<?xml version="1.0" encoding="UTF-8" standalone="no"?>
<!-- Created with Inkscape (http://www.inkscape.org/) -->

<svg
   width="96mm"
   height="96mm"
   viewBox="0 0 96 96"
   version="1.1"
   id="svg1"
   inkscape:version="1.4.2 (ebf0e940, 2025-05-08)"
   sodipodi:docname="motocycle.svg"
   xmlns:inkscape="http://www.inkscape.org/namespaces/inkscape"
   xmlns:sodipodi="http://sodipodi.sourceforge.net/DTD/sodipodi-0.dtd"
   xmlns="http://www.w3.org/2000/svg"
   xmlns:svg="http://www.w3.org/2000/svg">
  <sodipodi:namedview
     id="namedview1"
     pagecolor="#ffffff"
     bordercolor="#000000"
     borderopacity="0.25"
     inkscape:showpageshadow="2"
     inkscape:pageopacity="0.0"
     inkscape:pagecheckerboard="0"
     inkscape:deskcolor="#d1d1d1"
     inkscape:document-units="mm"
     inkscape:zoom="0.80444024"
     inkscape:cx="397.17059"
     inkscape:cy="262.91574"
     inkscape:window-width="1920"
     inkscape:window-height="1052"
     inkscape:window-x="0"
     inkscape:window-y="28"
     inkscape:window-maximized="0"
     inkscape:current-layer="layer1" />
  <defs
     id="defs1" />
  <g
     inkscape:label="Layer 1"
     inkscape:groupmode="layer"
     id="layer1">
    <g
       id="g3"
       style="clip-rule:evenodd;fill-rule:evenodd;image-rendering:optimizeQuality;shape-rendering:geometricPrecision;text-rendering:geometricPrecision"
       transform="matrix(0.28429109,0,0,0.28429109,-106.24455,-1.3416673)">
      <path
         style="opacity:1"
         fill="#f0c62f"
         d="m 541.5,52.5 c 0.667,4 1.333,8 2,12 -0.149,3.1074 0.351,6.1074 1.5,9 2.409,2.1201 4.909,4.1201 7.5,6 -0.333,0.3333 -0.667,0.6667 -1,1 -1.786,-2.4224 -3.452,-2.4224 -5,0 -1.122,-1.1302 -2.456,-1.7969 -4,-2 -0.667,-1.3333 -1.667,-2.3333 -3,-3 -3.156,-3.5863 -7.156,-4.753 -12,-3.5 -2.911,2.4161 -5.577,4.9161 -8,7.5 -1.333,0 -2.667,0 -4,0 -0.438,-1.0063 -1.104,-1.0063 -2,0 -0.739,0.131 -1.406,-0.0357 -2,-0.5 1.323,-0.8159 1.989,-1.9826 2,-3.5 3.488,-0.6434 5.988,-2.6434 7.5,-6 0.337,-6.0389 1.003,-12.0389 2,-18 6.453,-5.5073 12.62,-5.174 18.5,1 z"
         id="path3" />
    </g>
    <g
       id="g11"
       style="clip-rule:evenodd;fill-rule:evenodd;image-rendering:optimizeQuality;shape-rendering:geometricPrecision;text-rendering:geometricPrecision"
       transform="matrix(0.28429109,0,0,0.28429109,-106.24455,-1.3416673)">
      <path
         style="opacity:1"
         fill="#f8eea7"
         d="m 521.5,51.5 c -0.565,4.6493 -1.065,9.316 -1.5,14 -0.122,1.937 -0.955,3.2703 -2.5,4 1.305,-5.2428 2.139,-10.5762 2.5,-16 0.278,-0.9158 0.778,-1.5825 1.5,-2 z"
         id="path11" />
    </g>
    <g
       id="g12"
       style="clip-rule:evenodd;fill-rule:evenodd;image-rendering:optimizeQuality;shape-rendering:geometricPrecision;text-rendering:geometricPrecision"
       transform="matrix(0.28429109,0,0,0.28429109,-106.24455,-1.3416673)">
      <path
         style="opacity:1"
         fill="#e5c858"
         d="m 541.5,52.5 c -5.88,-6.174 -12.047,-6.5073 -18.5,-1 -0.997,5.9611 -1.663,11.9611 -2,18 -1.512,3.3566 -4.012,5.3566 -7.5,6 2.509,-1.1824 3.843,-3.1824 4,-6 1.545,-0.7297 2.378,-2.063 2.5,-4 0.435,-4.684 0.935,-9.3507 1.5,-14 0,-0.3333 0,-0.6667 0,-1 1.858,-1.0955 3.525,-2.4288 5,-4 7.128,-2.8227 12.128,-0.8227 15,6 z"
         id="path12" />
    </g>
    <g
       id="g29"
       style="clip-rule:evenodd;fill-rule:evenodd;image-rendering:optimizeQuality;shape-rendering:geometricPrecision;text-rendering:geometricPrecision"
       transform="matrix(0.28429109,0,0,0.28429109,-106.24455,-1.3416673)">
      <path
         style="opacity:1"
         fill="#faf9f4"
         d="m 525.5,76.5 c 4.186,0.2916 8.52,0.4583 13,0.5 1.968,4.3576 4.301,8.5243 7,12.5 -1.189,0.9287 -2.522,1.262 -4,1 -8.819,-3.2582 -17.153,-2.2582 -25,3 -0.333,-0.6667 -0.667,-1.3333 -1,-2 1.777,-6.0975 5.111,-11.0975 10,-15 z"
         id="path29" />
    </g>
    <g
       id="g30"
       style="clip-rule:evenodd;fill-rule:evenodd;image-rendering:optimizeQuality;shape-rendering:geometricPrecision;text-rendering:geometricPrecision"
       transform="matrix(0.28429109,0,0,0.28429109,-106.24455,-1.3416673)">
      <path
         style="opacity:1"
         fill="#f8f0b6"
         d="m 544.5,53.5 c 0.672,5.4218 1.672,10.9218 3,16.5 2.054,2.9131 4.72,4.7464 8,5.5 2.872,5.2338 7.205,7.9005 13,8 -1.511,1.9411 -3.511,2.4411 -6,1.5 -3.67,-4.7715 -8.337,-8.1049 -14,-10 -0.833,-0.8333 -1.667,-1.6667 -2.5,-2.5 -0.279,-2.9568 -1.113,-5.6234 -2.5,-8 -0.667,-4 -1.333,-8 -2,-12 -2.872,-6.8227 -7.872,-8.8227 -15,-6 -1.475,1.5712 -3.142,2.9045 -5,4 1.627,-4.9112 5.127,-7.2445 10.5,-7 5.793,1.2925 9.96,4.6258 12.5,10 z"
         id="path30" />
    </g>
    <g
       id="g34"
       style="clip-rule:evenodd;fill-rule:evenodd;image-rendering:optimizeQuality;shape-rendering:geometricPrecision;text-rendering:geometricPrecision"
       transform="matrix(0.28429109,0,0,0.28429109,-106.24455,-1.3416673)">
      <path
         style="opacity:1"
         fill="#f9df79"
         d="m 515.5,79.5 c -2.866,5.2311 -5.866,10.3978 -9,15.5 -2.646,0.4974 -5.313,0.6641 -8,0.5 -0.094,-3.0406 1.406,-4.7072 4.5,-5 2.298,-4.7985 5.798,-8.4652 10.5,-11 0.896,-1.0063 1.562,-1.0063 2,0 z"
         id="path34" />
    </g>
    <g
       id="g35"
       style="clip-rule:evenodd;fill-rule:evenodd;image-rendering:optimizeQuality;shape-rendering:geometricPrecision;text-rendering:geometricPrecision"
       transform="matrix(0.28429109,0,0,0.28429109,-106.24455,-1.3416673)">
      <path
         style="opacity:1"
         fill="#e8c447"
         d="m 513.5,75.5 c -0.011,1.5174 -0.677,2.6841 -2,3.5 0.594,0.4643 1.261,0.631 2,0.5 -4.702,2.5348 -8.202,6.2015 -10.5,11 -3.094,0.2928 -4.594,1.9594 -4.5,5 2.687,0.1641 5.354,-0.0026 8,-0.5 3.134,-5.1022 6.134,-10.2689 9,-15.5 1.333,0 2.667,0 4,0 -1.567,2.7827 -3.4,5.4493 -5.5,8 -0.696,2.9781 -1.196,5.9781 -1.5,9 3.574,-1.6218 7.241,-2.9551 11,-4 -3.916,5.5958 -9.25,8.596 -16,9 0,-1.333 0,-2.6667 0,-4 -3.755,0.2141 -7.422,0.3807 -11,0.5 -0.384,4.08 -0.551,8.246 -0.5,12.5 -0.816,1.323 -1.983,1.989 -3.5,2 1.351,-1.923 2.018,-4.09 2,-6.5 -1.296,-4.85 -1.296,-9.6833 0,-14.5 -4.696,1.3494 -9.529,2.0161 -14.5,2 -4.998,0.3611 -9.664,-0.6389 -14,-3 -0.667,-1.3333 -0.667,-2.6667 0,-4 5.83,-4.9853 12.663,-7.3186 20.5,-7 3.71,2.2033 7.543,4.2033 11.5,6 5.075,-3.4555 10.242,-6.7889 15.5,-10 z"
         id="path35" />
    </g>
    <g
       id="g37"
       style="clip-rule:evenodd;fill-rule:evenodd;image-rendering:optimizeQuality;shape-rendering:geometricPrecision;text-rendering:geometricPrecision"
       transform="matrix(0.28429109,0,0,0.28429109,-106.24455,-1.3416673)">
      <path
         style="opacity:1"
         fill="#f9e078"
         d="m 478.5,83.5 c 4.288,-0.5141 7.955,0.6526 11,3.5 -2.03,2.5131 -4.697,3.6798 -8,3.5 -3.966,-0.1225 -7.633,-1.1225 -11,-3 0.209,-0.586 0.543,-1.086 1,-1.5 2.504,-0.6976 4.837,-1.5309 7,-2.5 z"
         id="path37" />
    </g>
    <g
       id="g38"
       style="clip-rule:evenodd;fill-rule:evenodd;image-rendering:optimizeQuality;shape-rendering:geometricPrecision;text-rendering:geometricPrecision"
       transform="matrix(0.28429109,0,0,0.28429109,-106.24455,-1.3416673)">
      <path
         style="opacity:1"
         fill="#faf8da"
         d="m 539.5,75.5 c 1.333,0.6667 2.333,1.6667 3,3 1.598,2.1979 2.931,4.5313 4,7 0.194,2.8297 0.861,5.4963 2,8 -2.065,-0.0172 -4.065,-0.3505 -6,-1 -0.333,-0.6667 -0.667,-1.3333 -1,-2 1.478,0.262 2.811,-0.0713 4,-1 -2.699,-3.9757 -5.032,-8.1424 -7,-12.5 -4.48,-0.0417 -8.814,-0.2084 -13,-0.5 0.892,-2.2142 2.558,-3.2142 5,-3 3.052,0.5135 6.052,1.1802 9,2 z"
         id="path38" />
    </g>
    <g
       id="g40"
       style="clip-rule:evenodd;fill-rule:evenodd;image-rendering:optimizeQuality;shape-rendering:geometricPrecision;text-rendering:geometricPrecision"
       transform="matrix(0.28429109,0,0,0.28429109,-106.24455,-1.3416673)">
      <path
         style="opacity:1"
         fill="#f9f3b8"
         d="m 546.5,85.5 c 3.197,3.2326 4.864,7.2326 5,12 -3.448,-0.8901 -6.448,-2.5568 -9,-5 1.935,0.6495 3.935,0.9828 6,1 -1.139,-2.5037 -1.806,-5.1703 -2,-8 z"
         id="path40" />
    </g>
    <g
       id="g41"
       style="clip-rule:evenodd;fill-rule:evenodd;image-rendering:optimizeQuality;shape-rendering:geometricPrecision;text-rendering:geometricPrecision"
       transform="matrix(0.28429109,0,0,0.28429109,-106.24455,-1.3416673)">
      <path
         style="opacity:1"
         fill="#f9f1b2"
         d="m 539.5,75.5 c -2.948,-0.8198 -5.948,-1.4865 -9,-2 -2.442,-0.2142 -4.108,0.7858 -5,3 -4.889,3.9025 -8.223,8.9025 -10,15 0.333,0.6667 0.667,1.3333 1,2 7.847,-5.2582 16.181,-6.2582 25,-3 0.333,0.6667 0.667,1.3333 1,2 -3.742,-1.3019 -7.575,-2.3019 -11.5,-3 -2.956,0.068 -5.456,1.068 -7.5,3 -3.759,1.0449 -7.426,2.3782 -11,4 0.304,-3.0219 0.804,-6.0219 1.5,-9 2.1,-2.5507 3.933,-5.2173 5.5,-8 2.423,-2.5839 5.089,-5.0839 8,-7.5 4.844,-1.253 8.844,-0.0863 12,3.5 z"
         id="path41" />
    </g>
    <g
       id="g42"
       style="clip-rule:evenodd;fill-rule:evenodd;image-rendering:optimizeQuality;shape-rendering:geometricPrecision;text-rendering:geometricPrecision"
       transform="matrix(0.28429109,0,0,0.28429109,-106.24455,-1.3416673)">
      <path
         style="opacity:1"
         fill="#e7c753"
         d="m 543.5,64.5 c 1.387,2.3766 2.221,5.0432 2.5,8 0.833,0.8333 1.667,1.6667 2.5,2.5 5.663,1.8951 10.33,5.2285 14,10 2.489,0.9411 4.489,0.4411 6,-1.5 2.757,-1.5857 5.757,-2.5857 9,-3 6.228,-0.2751 12.228,0.7249 18,3 2.35,1.7133 3.35,4.0466 3,7 -9.136,3.0981 -18.469,3.7647 -28,2 -0.502,6.0045 -0.668,12.005 -0.5,18 1.741,1.258 3.574,2.258 5.5,3 1.236,2.328 3.236,3.494 6,3.5 3.349,0.388 6.683,0.221 10,-0.5 0.219,1.175 -0.114,2.175 -1,3 -3.003,0.585 -6.003,1.252 -9,2 1.435,2.887 3.768,4.554 7,5 3.501,2.362 3.835,5.195 1,8.5 -2.667,0.667 -5.333,0.667 -8,0 -2.386,-1.193 -4.72,-2.36 -7,-3.5 -0.787,-1.604 -2.12,-2.271 -4,-2 2.056,-0.716 4.223,-1.383 6.5,-2 3.807,2.305 7.64,4.305 11.5,6 0.009,-1.808 -0.491,-3.475 -1.5,-5 -3.5,-2.167 -7,-4.333 -10.5,-6.5 -0.752,-0.671 -1.086,-1.504 -1,-2.5 0.111,-0.617 0.444,-1.117 1,-1.5 -2.192,-0.926 -4.192,-2.093 -6,-3.5 -3.203,-4.842 -3.536,-10.009 -1,-15.5 -1.576,-2.9508 -2.243,-6.1174 -2,-9.5 2.882,0.4861 5.548,0.4861 8,0 4.679,0.1658 9.345,-8e-4 14,-0.5 1.473,-0.7096 2.14,-1.8762 2,-3.5 -4.963,-0.9964 -9.963,-1.1631 -15,-0.5 -0.837,1.0113 -1.17,2.1779 -1,3.5 -1.966,-0.7545 -2.3,-1.9212 -1,-3.5 -2.335,-0.5068 -4.335,0.1599 -6,2 -2.399,0.711 -4.732,0.5443 -7,-0.5 -0.333,0.1667 -0.667,0.3333 -1,0.5 0.722,1.7505 1.722,3.2505 3,4.5 -1.373,0.1567 -2.707,-0.01 -4,-0.5 -0.755,-2.1748 -1.588,-4.3415 -2.5,-6.5 -1.987,-0.718 -3.821,-1.718 -5.5,-3 -1.083,0.865 -1.249,1.865 -0.5,3 1.756,2.5729 3.256,5.2396 4.5,8 -0.617,0.1107 -1.117,0.444 -1.5,1 -0.495,1.9727 -0.662,3.9727 -0.5,6 -3.074,-0.3726 -6.074,-1.0392 -9,-2 0,1.6667 0,3.333 0,5 -1.105,1.1 -2.438,1.767 -4,2 3.299,-5.5624 1.632,-8.5624 -5,-9 -2.759,0.042 -5.425,0.542 -8,1.5 -1.729,1.7889 -2.396,3.956 -2,6.5 -1.122,-1.788 -1.289,-3.7884 -0.5,-6 3.222,-2.1736 6.722,-3.6736 10.5,-4.5 -3.912,-1.7545 -7.912,-1.9212 -12,-0.5 2.044,-1.932 4.544,-2.932 7.5,-3 3.925,0.6981 7.758,1.6981 11.5,3 2.552,2.4432 5.552,4.1099 9,5 -0.136,-4.7674 -1.803,-8.7674 -5,-12 -1.069,-2.4687 -2.402,-4.8021 -4,-7 1.544,0.2031 2.878,0.8698 4,2 1.548,-2.4224 3.214,-2.4224 5,0 0.333,-0.3333 0.667,-0.6667 1,-1 -2.591,-1.8799 -5.091,-3.8799 -7.5,-6 -1.149,-2.8926 -1.649,-5.8926 -1.5,-9 z"
         id="path42" />
    </g>
    <g
       id="g43"
       style="clip-rule:evenodd;fill-rule:evenodd;image-rendering:optimizeQuality;shape-rendering:geometricPrecision;text-rendering:geometricPrecision"
       transform="matrix(0.28429109,0,0,0.28429109,-106.24455,-1.3416673)">
      <path
         style="opacity:1"
         fill="#f9e280"
         d="m 575.5,89.5 c 0,-0.3333 0,-0.6667 0,-1 -0.17,-1.3221 0.163,-2.4887 1,-3.5 5.037,-0.6631 10.037,-0.4964 15,0.5 0.14,1.6238 -0.527,2.7904 -2,3.5 -4.655,0.4992 -9.321,0.6658 -14,0.5 z"
         id="path43" />
    </g>
    <g
       id="g44"
       style="clip-rule:evenodd;fill-rule:evenodd;image-rendering:optimizeQuality;shape-rendering:geometricPrecision;text-rendering:geometricPrecision"
       transform="matrix(0.28429109,0,0,0.28429109,-106.24455,-1.3416673)">
      <path
         style="opacity:1"
         fill="#f9e081"
         d="m 563.5,91.5 c 0.734,1.2079 1.067,2.5413 1,4 -2.357,0.1633 -4.69,-0.0034 -7,-0.5 -0.881,-0.7083 -1.547,-1.5416 -2,-2.5 -1.244,-2.7604 -2.744,-5.4271 -4.5,-8 -0.749,-1.135 -0.583,-2.135 0.5,-3 1.679,1.282 3.513,2.282 5.5,3 0.912,2.1585 1.745,4.3252 2.5,6.5 1.293,0.49 2.627,0.6567 4,0.5 z"
         id="path44" />
    </g>
    <g
       id="g45"
       style="clip-rule:evenodd;fill-rule:evenodd;image-rendering:optimizeQuality;shape-rendering:geometricPrecision;text-rendering:geometricPrecision"
       transform="matrix(0.28429109,0,0,0.28429109,-106.24455,-1.3416673)">
      <path
         style="opacity:1"
         fill="#f7eeb1"
         d="m 598.5,90.5 c -2.641,1.9535 -5.641,3.4535 -9,4.5 -5.704,0.6873 -11.37,0.5207 -17,-0.5 0.255,3.9012 -0.412,7.568 -2,11 0.167,1 0.333,2 0.5,3 2.415,0.911 3.915,2.578 4.5,5 -1.926,-0.742 -3.759,-1.742 -5.5,-3 -0.168,-5.995 -0.002,-11.9955 0.5,-18 9.531,1.7647 18.864,1.0981 28,-2 z"
         id="path45" />
    </g>
    <g
       id="g50"
       style="clip-rule:evenodd;fill-rule:evenodd;image-rendering:optimizeQuality;shape-rendering:geometricPrecision;text-rendering:geometricPrecision"
       transform="matrix(0.28429109,0,0,0.28429109,-106.24455,-1.3416673)">
      <path
         style="opacity:1"
         fill="#f2c729"
         d="m 525.5,103.5 c 1.226,2.376 3.226,3.876 6,4.5 -0.333,0.333 -0.667,0.667 -1,1 -8.967,1.176 -17.967,2.176 -27,3 -3.35,3.767 -7.017,4.6 -11,2.5 0,-0.667 0,-1.333 0,-2 1.517,-0.011 2.684,-0.677 3.5,-2 -0.051,-4.254 0.116,-8.42 0.5,-12.5 3.578,-0.1193 7.245,-0.2859 11,-0.5 0,1.3333 0,2.667 0,4 6.75,-0.404 12.084,-3.4042 16,-9 4.088,-1.4212 8.088,-1.2545 12,0.5 -3.778,0.8264 -7.278,2.3264 -10.5,4.5 -0.789,2.2116 -0.622,4.212 0.5,6 z"
         id="path50" />
    </g>
    <g
       id="g51"
       style="clip-rule:evenodd;fill-rule:evenodd;image-rendering:optimizeQuality;shape-rendering:geometricPrecision;text-rendering:geometricPrecision"
       transform="matrix(0.28429109,0,0,0.28429109,-106.24455,-1.3416673)">
      <path
         style="opacity:1"
         fill="#f1c72e"
         d="m 575.5,88.5 c 0,0.3333 0,0.6667 0,1 -2.452,0.4861 -5.118,0.4861 -8,0 -0.243,3.3826 0.424,6.5492 2,9.5 -2.536,5.491 -2.203,10.658 1,15.5 -0.47,1.193 -1.47,1.86 -3,2 -3.78,-0.085 -6.78,-1.585 -9,-4.5 -7.513,-1.896 -15.18,-2.896 -23,-3 4.248,-0.66 7.248,-2.827 9,-6.5 0,-1.667 0,-3.3333 0,-5 2.926,0.9608 5.926,1.6274 9,2 -0.162,-2.0273 0.005,-4.0273 0.5,-6 0.383,-0.556 0.883,-0.8893 1.5,-1 0.453,0.9584 1.119,1.7917 2,2.5 2.31,0.4966 4.643,0.6633 7,0.5 0.067,-1.4587 -0.266,-2.7921 -1,-4 -1.278,-1.2495 -2.278,-2.7495 -3,-4.5 0.333,-0.1667 0.667,-0.3333 1,-0.5 2.268,1.0443 4.601,1.211 7,0.5 1.665,-1.8401 3.665,-2.5068 6,-2 -1.3,1.5788 -0.966,2.7455 1,3.5 z"
         id="path51" />
    </g>
    <g
       id="g53"
       style="clip-rule:evenodd;fill-rule:evenodd;image-rendering:optimizeQuality;shape-rendering:geometricPrecision;text-rendering:geometricPrecision"
       transform="matrix(0.28429109,0,0,0.28429109,-106.24455,-1.3416673)">
      <path
         style="opacity:1"
         fill="#f9f3b6"
         d="m 540.5,104.5 c -5.095,0.279 -10.095,-0.055 -15,-1 -0.396,-2.544 0.271,-4.7111 2,-6.5 2.575,-0.958 5.241,-1.458 8,-1.5 6.632,0.4376 8.299,3.4376 5,9 z"
         id="path53" />
    </g>
    <g
       id="g54"
       style="clip-rule:evenodd;fill-rule:evenodd;image-rendering:optimizeQuality;shape-rendering:geometricPrecision;text-rendering:geometricPrecision"
       transform="matrix(0.28429109,0,0,0.28429109,-106.24455,-1.3416673)">
      <path
         style="opacity:1"
         fill="#faf9e7"
         d="m 532.5,97.5 c 3.57,-0.6071 6.237,0.5596 8,3.5 -0.405,0.945 -1.072,1.612 -2,2 -3.333,0.667 -6.667,0.667 -10,0 -0.951,-0.718 -1.117,-1.551 -0.5,-2.5 1.409,-1.2811 2.909,-2.2811 4.5,-3 z"
         id="path54" />
    </g>
    <g
       id="g57"
       style="clip-rule:evenodd;fill-rule:evenodd;image-rendering:optimizeQuality;shape-rendering:geometricPrecision;text-rendering:geometricPrecision"
       transform="matrix(0.28429109,0,0,0.28429109,-106.24455,-1.3416673)">
      <path
         style="opacity:1"
         fill="#faf9e5"
         d="m 555.5,75.5 c 1.052,-0.1495 2.052,0.0172 3,0.5 2.185,2.397 4.685,4.2303 7.5,5.5 4.507,-1.7479 9.007,-3.4145 13.5,-5 8.525,-0.7313 15.192,2.2687 20,9 1.63,3.3961 0.963,6.2294 -2,8.5 -7.13,3.2923 -14.463,4.6256 -22,4 -1.333,1.3333 -1.333,2.667 0,4 -2.501,2.399 -2.501,4.899 0,7.5 4.386,3.234 8.886,4.234 13.5,3 3.78,0.115 5.946,1.949 6.5,5.5 -0.621,2.141 -1.954,3.641 -4,4.5 1.073,-2.153 1.073,-4.153 0,-6 -5.388,-0.496 -10.721,-1.496 -16,-3 -0.585,-2.422 -2.085,-4.089 -4.5,-5 -0.167,-1 -0.333,-2 -0.5,-3 1.588,-3.432 2.255,-7.0988 2,-11 5.63,1.0207 11.296,1.1873 17,0.5 3.359,-1.0465 6.359,-2.5465 9,-4.5 0.35,-2.9534 -0.65,-5.2867 -3,-7 -1.885,-1.8115 -4.219,-2.9782 -7,-3.5 -3.858,-0.8099 -7.524,-0.6433 -11,0.5 -3.243,0.4143 -6.243,1.4143 -9,3 -5.795,-0.0995 -10.128,-2.7662 -13,-8 z"
         id="path57" />
    </g>
    <g
       id="g58"
       style="clip-rule:evenodd;fill-rule:evenodd;image-rendering:optimizeQuality;shape-rendering:geometricPrecision;text-rendering:geometricPrecision"
       transform="matrix(0.28429109,0,0,0.28429109,-106.24455,-1.3416673)">
      <path
         style="opacity:1"
         fill="#f7eaa4"
         d="m 577.5,80.5 c 3.476,-1.1433 7.142,-1.3099 11,-0.5 2.781,0.5218 5.115,1.6885 7,3.5 -5.772,-2.2751 -11.772,-3.2751 -18,-3 z"
         id="path58" />
    </g>
    <g
       id="g60"
       style="clip-rule:evenodd;fill-rule:evenodd;image-rendering:optimizeQuality;shape-rendering:geometricPrecision;text-rendering:geometricPrecision"
       transform="matrix(0.28429109,0,0,0.28429109,-106.24455,-1.3416673)">
      <path
         style="opacity:1"
         fill="#f8efaf"
         d="m 486.5,79.5 c -7.837,-0.3186 -14.67,2.0147 -20.5,7 -0.667,1.3333 -0.667,2.6667 0,4 4.336,2.3611 9.002,3.3611 14,3 4.971,0.0161 9.804,-0.6506 14.5,-2 -1.296,4.8167 -1.296,9.65 0,14.5 0.018,2.41 -0.649,4.577 -2,6.5 -2.762,0.88 -5.429,2.046 -8,3.5 -3.667,0.333 -7.333,0.667 -11,1 -0.752,0.671 -1.086,1.504 -1,2.5 -0.333,0 -0.667,0 -1,0 -0.17,-1.322 0.163,-2.489 1,-3.5 7.756,0.586 14.256,-1.914 19.5,-7.5 -0.124,-4.636 -0.29,-9.3023 -0.5,-14 -5.984,0.8321 -11.984,0.9988 -18,0.5 -9.373,-0.8924 -11.373,-5.059 -6,-12.5 3.039,-1.0686 6.039,-2.2353 9,-3.5 3.527,-0.8075 6.86,-0.6408 10,0.5 z"
         id="path60" />
    </g>
    <g
       id="g70"
       style="clip-rule:evenodd;fill-rule:evenodd;image-rendering:optimizeQuality;shape-rendering:geometricPrecision;text-rendering:geometricPrecision"
       transform="matrix(0.28429109,0,0,0.28429109,-106.24455,-1.3416673)">
      <path
         style="opacity:1"
         fill="#eac84a"
         d="m 544.5,102.5 c -1.752,3.673 -4.752,5.84 -9,6.5 7.82,0.104 15.487,1.104 23,3 2.22,2.915 5.22,4.415 9,4.5 1.53,-0.14 2.53,-0.807 3,-2 1.808,1.407 3.808,2.574 6,3.5 -0.556,0.383 -0.889,0.883 -1,1.5 -1.333,0 -2.667,0 -4,0 0.626,3.875 -1.041,5.709 -5,5.5 -0.752,0.671 -1.086,1.504 -1,2.5 -1.105,-1.1 -2.438,-1.767 -4,-2 0.841,-1.879 1.175,-3.879 1,-6 -1.333,0 -2.667,0 -4,0 -2.222,0.322 -4.056,-0.345 -5.5,-2 -5.81,2.492 -11.644,4.825 -17.5,7 -3.018,0.165 -6.018,-0.002 -9,-0.5 -2.153,-0.099 -3.819,-0.933 -5,-2.5 -4.435,-0.107 -8.435,-1.44 -12,-4 -2.358,1.787 -5.025,2.787 -8,3 0,1.667 0,3.333 0,5 -0.996,-0.086 -1.829,0.248 -2.5,1 -0.198,1.882 -0.698,3.548 -1.5,5 0,-2.333 0,-4.667 0,-7 -1.052,0.149 -2.052,-0.017 -3,-0.5 -0.619,-1.757 -1.786,-2.924 -3.5,-3.5 -3.793,2.146 -7.626,4.146 -11.5,6 0.528,-1.221 1.195,-2.387 2,-3.5 3.438,-0.92 6.438,-2.587 9,-5 1.741,-1.083 2.407,-2.25 2,-3.5 3.983,2.1 7.65,1.267 11,-2.5 9.033,-0.824 18.033,-1.824 27,-3 0.333,-0.333 0.667,-0.667 1,-1 -2.774,-0.624 -4.774,-2.124 -6,-4.5 4.905,0.945 9.905,1.279 15,1 1.562,-0.233 2.895,-0.9 4,-2 z"
         id="path70" />
    </g>
    <g
       id="g77"
       style="clip-rule:evenodd;fill-rule:evenodd;image-rendering:optimizeQuality;shape-rendering:geometricPrecision;text-rendering:geometricPrecision"
       transform="matrix(0.28429109,0,0,0.28429109,-106.24455,-1.3416673)">
      <path
         style="opacity:1"
         fill="#faf9e5"
         d="m 544.5,53.5 c -2.54,-5.3742 -6.707,-8.7075 -12.5,-10 -5.373,-0.2445 -8.873,2.0888 -10.5,7 0,0.3333 0,0.6667 0,1 -0.722,0.4175 -1.222,1.0842 -1.5,2 -0.361,5.4238 -1.195,10.7572 -2.5,16 -0.157,2.8176 -1.491,4.8176 -4,6 -5.258,3.2111 -10.425,6.5445 -15.5,10 -3.957,-1.7967 -7.79,-3.7967 -11.5,-6 -3.14,-1.1408 -6.473,-1.3075 -10,-0.5 -2.961,1.2647 -5.961,2.4314 -9,3.5 -5.373,7.441 -3.373,11.6076 6,12.5 6.016,0.4988 12.016,0.3321 18,-0.5 0.21,4.6977 0.376,9.364 0.5,14 -5.244,5.586 -11.744,8.086 -19.5,7.5 -0.837,1.011 -1.17,2.178 -1,3.5 -0.806,-1.497 -1.472,-3.164 -2,-5 8.118,0.359 14.951,-2.308 20.5,-8 0.499,-3.652 0.665,-7.3183 0.5,-11 -5.564,0.476 -11.064,1.1427 -16.5,2 -3.19,-1.2315 -6.357,-2.5649 -9.5,-4 -2.989,-4.206 -2.656,-8.0393 1,-11.5 4.753,-2.7485 9.753,-4.5818 15,-5.5 6.128,0.8197 11.795,2.8197 17,6 2.075,-2.3302 4.742,-3.4968 8,-3.5 1.913,-1.7911 3.58,-3.7911 5,-6 1.293,-0.49 2.627,-0.6567 4,-0.5 0.961,-8.0966 2.461,-16.0966 4.5,-24 2.69,-2.6846 5.69,-5.0179 9,-7 6.245,-0.2567 11.578,1.7433 16,6 0.495,1.9727 0.662,3.9727 0.5,6 z"
         id="path77" />
    </g>
    <g
       id="g78"
       style="clip-rule:evenodd;fill-rule:evenodd;image-rendering:optimizeQuality;shape-rendering:geometricPrecision;text-rendering:geometricPrecision"
       transform="matrix(0.28429109,0,0,0.28429109,-106.24455,-1.3416673)">
      <path
         style="opacity:1"
         fill="#faf8c9"
         d="m 515.5,114.5 c 11.154,-0.995 22.488,-1.328 34,-1 0,1.333 0,2.667 0,4 -3.719,1.019 -7.386,2.352 -11,4 2.185,-1.791 4.518,-3.625 7,-5.5 -0.667,-0.333 -1.333,-0.667 -2,-1 -9.327,-0.5 -18.661,-0.666 -28,-0.5 z"
         id="path78" />
    </g>
    <g
       id="g80"
       style="clip-rule:evenodd;fill-rule:evenodd;image-rendering:optimizeQuality;shape-rendering:geometricPrecision;text-rendering:geometricPrecision"
       transform="matrix(0.28429109,0,0,0.28429109,-106.24455,-1.3416673)">
      <path
         style="opacity:1"
         fill="#f3dd7c"
         d="m 549.5,117.5 c 0,-1.333 0,-2.667 0,-4 -11.512,-0.328 -22.846,0.005 -34,1 -0.597,0.235 -0.93,0.735 -1,1.5 0.478,1.303 1.145,2.469 2,3.5 -2.17,-1.249 -4.504,-2.249 -7,-3 -2.696,1.121 -5.363,1.121 -8,0 0.813,-1.314 1.813,-2.481 3,-3.5 15.583,-0.339 31.25,-0.505 47,-0.5 0.423,2.281 -0.244,3.948 -2,5 z"
         id="path80" />
    </g>
    <g
       id="g83"
       style="clip-rule:evenodd;fill-rule:evenodd;image-rendering:optimizeQuality;shape-rendering:geometricPrecision;text-rendering:geometricPrecision"
       transform="matrix(0.28429109,0,0,0.28429109,-106.24455,-1.3416673)">
      <path
         style="opacity:1"
         fill="#faf9f0"
         d="m 515.5,114.5 c 9.339,-0.166 18.673,0 28,0.5 0.667,0.333 1.333,0.667 2,1 -2.482,1.875 -4.815,3.709 -7,5.5 -0.667,0 -1.333,0 -2,0 -3.682,0.165 -7.348,-0.001 -11,-0.5 -2.457,-1.562 -5.124,-2.562 -8,-3 -1.323,-0.816 -1.989,-1.983 -2,-3.5 z"
         id="path83" />
    </g>
    <g
       id="g84"
       style="clip-rule:evenodd;fill-rule:evenodd;image-rendering:optimizeQuality;shape-rendering:geometricPrecision;text-rendering:geometricPrecision"
       transform="matrix(0.28429109,0,0,0.28429109,-106.24455,-1.3416673)">
      <path
         style="opacity:1"
         fill="#f7edac"
         d="m 575.5,113.5 c 5.279,1.504 10.612,2.504 16,3 -3.317,0.721 -6.651,0.888 -10,0.5 -2.764,-0.006 -4.764,-1.172 -6,-3.5 z"
         id="path84" />
    </g>
    <g
       id="g86"
       style="clip-rule:evenodd;fill-rule:evenodd;image-rendering:optimizeQuality;shape-rendering:geometricPrecision;text-rendering:geometricPrecision"
       transform="matrix(0.28429109,0,0,0.28429109,-106.24455,-1.3416673)">
      <path
         style="opacity:1"
         fill="#e7c956"
         d="m 492.5,112.5 c 0,0.667 0,1.333 0,2 0.407,1.25 -0.259,2.417 -2,3.5 -2.562,2.413 -5.562,4.08 -9,5 -0.805,1.113 -1.472,2.279 -2,3.5 -2.092,1.394 -3.758,3.228 -5,5.5 0.234,1.732 1.234,2.566 3,2.5 5.238,-3.119 10.905,-4.786 17,-5 -0.309,4.767 0.191,9.434 1.5,14 0.232,-1.237 0.732,-2.237 1.5,-3 0,2 0,4 0,6 1.478,0.262 2.811,-0.071 4,-1 2.51,-3.815 4.51,-7.815 6,-12 0.967,1.306 2.301,1.973 4,2 0,-1 0,-2 0,-3 1,0 2,0 3,0 -0.057,1.109 -0.39,2.109 -1,3 -4.164,2.993 -6.831,6.993 -8,12 0,0.333 0,0.667 0,1 -0.617,0.111 -1.117,0.444 -1.5,1 -0.498,2.982 -0.665,5.982 -0.5,9 0.525,4.618 -0.808,5.618 -4,3 -0.989,3.607 -1.323,7.274 -1,11 -0.663,-1.542 -1.33,-3.209 -2,-5 -1.383,11.466 1.45,21.799 8.5,31 0.82,6.514 0.653,12.847 -0.5,19 0.166,-6.009 -10e-4,-12.009 -0.5,-18 -2.819,-2.97 -4.985,-6.304 -6.5,-10 -0.674,-3.026 -1.507,-6.026 -2.5,-9 -1.156,-16.647 -1.656,-33.314 -1.5,-50 -1.915,-0.284 -3.581,0.049 -5,1 -2.921,0.565 -5.588,1.732 -8,3.5 -6.737,1.433 -9.07,-1.067 -7,-7.5 1.84,-1.668 3.84,-3.168 6,-4.5 -1.821,-2.137 -4.154,-2.97 -7,-2.5 0,-0.333 0,-0.667 0,-1 -0.086,-0.996 0.248,-1.829 1,-2.5 3.667,-0.333 7.333,-0.667 11,-1 2.571,-1.454 5.238,-2.62 8,-3.5 z"
         id="path86" />
    </g>
    <g
       id="g91"
       style="clip-rule:evenodd;fill-rule:evenodd;image-rendering:optimizeQuality;shape-rendering:geometricPrecision;text-rendering:geometricPrecision"
       transform="matrix(0.28429109,0,0,0.28429109,-106.24455,-1.3416673)">
      <path
         style="opacity:1"
         fill="#f2c328"
         d="m 558.5,119.5 c 0.929,0.815 1.929,1.648 3,2.5 -3.237,3.902 -6.071,8.068 -8.5,12.5 -2,-2.333 -4,-4.667 -6,-7 -0.333,0.333 -0.667,0.667 -1,1 -2.74,-0.782 -5.574,-1.282 -8.5,-1.5 -1.256,-0.417 -1.923,-1.25 -2,-2.5 5.856,-2.175 11.69,-4.508 17.5,-7 1.444,1.655 3.278,2.322 5.5,2 z"
         id="path91" />
    </g>
    <g
       id="g92"
       style="clip-rule:evenodd;fill-rule:evenodd;image-rendering:optimizeQuality;shape-rendering:geometricPrecision;text-rendering:geometricPrecision"
       transform="matrix(0.28429109,0,0,0.28429109,-106.24455,-1.3416673)">
      <path
         style="opacity:1"
         fill="#faea95"
         d="m 565.5,117.5 c 3.661,-0.15 4.661,1.35 3,4.5 -1.293,0.49 -2.627,0.657 -4,0.5 -0.134,-1.792 0.199,-3.458 1,-5 z"
         id="path92" />
    </g>
    <g
       id="g99"
       style="clip-rule:evenodd;fill-rule:evenodd;image-rendering:optimizeQuality;shape-rendering:geometricPrecision;text-rendering:geometricPrecision"
       transform="matrix(0.28429109,0,0,0.28429109,-106.24455,-1.3416673)">
      <path
         style="opacity:1"
         fill="#f9f5c1"
         d="m 515.5,114.5 c 0.011,1.517 0.677,2.684 2,3.5 2.876,0.438 5.543,1.438 8,3 3.652,0.499 7.318,0.665 11,0.5 -1.446,1.44 -3.279,2.107 -5.5,2 -3.233,-0.434 -6.4,-1.101 -9.5,-2 -1.28,-1.431 -2.947,-2.098 -5,-2 -0.855,-1.031 -1.522,-2.197 -2,-3.5 0.07,-0.765 0.403,-1.265 1,-1.5 z"
         id="path99" />
    </g>
    <g
       id="g100"
       style="clip-rule:evenodd;fill-rule:evenodd;image-rendering:optimizeQuality;shape-rendering:geometricPrecision;text-rendering:geometricPrecision"
       transform="matrix(0.28429109,0,0,0.28429109,-106.24455,-1.3416673)">
      <path
         style="opacity:1"
         fill="#f7f0bb"
         d="m 591.5,116.5 c 1.073,1.847 1.073,3.847 0,6 -1.373,-0.157 -2.707,0.01 -4,0.5 0.837,1.011 1.17,2.178 1,3.5 -3.232,-0.446 -5.565,-2.113 -7,-5 2.997,-0.748 5.997,-1.415 9,-2 0.886,-0.825 1.219,-1.825 1,-3 z"
         id="path100" />
    </g>
    <g
       id="g102"
       style="clip-rule:evenodd;fill-rule:evenodd;image-rendering:optimizeQuality;shape-rendering:geometricPrecision;text-rendering:geometricPrecision"
       transform="matrix(0.28429109,0,0,0.28429109,-106.24455,-1.3416673)">
      <path
         style="opacity:1"
         fill="#faf4b2"
         d="m 472.5,120.5 c 2.846,-0.47 5.179,0.363 7,2.5 -2.16,1.332 -4.16,2.832 -6,4.5 1.563,-2.632 1.23,-4.965 -1,-7 z"
         id="path102" />
    </g>
    <g
       id="g103"
       style="clip-rule:evenodd;fill-rule:evenodd;image-rendering:optimizeQuality;shape-rendering:geometricPrecision;text-rendering:geometricPrecision"
       transform="matrix(0.28429109,0,0,0.28429109,-106.24455,-1.3416673)">
      <path
         style="opacity:1"
         fill="#f1c72e"
         d="m 575.5,119.5 c -0.086,0.996 0.248,1.829 1,2.5 3.5,2.167 7,4.333 10.5,6.5 1.009,1.525 1.509,3.192 1.5,5 -3.86,-1.695 -7.693,-3.695 -11.5,-6 -2.277,0.617 -4.444,1.284 -6.5,2 -1.25,0.077 -2.083,0.744 -2.5,2 -0.2,-1.82 -1.034,-3.153 -2.5,-4 -0.086,-0.996 0.248,-1.829 1,-2.5 3.959,0.209 5.626,-1.625 5,-5.5 1.333,0 2.667,0 4,0 z"
         id="path103" />
    </g>
    <g
       id="g106"
       style="clip-rule:evenodd;fill-rule:evenodd;image-rendering:optimizeQuality;shape-rendering:geometricPrecision;text-rendering:geometricPrecision"
       transform="matrix(0.28429109,0,0,0.28429109,-106.24455,-1.3416673)">
      <path
         style="opacity:1"
         fill="#edc434"
         d="m 497.5,131.5 c 0,3 0,6 0,9 -0.768,0.763 -1.268,1.763 -1.5,3 -1.309,-4.566 -1.809,-9.233 -1.5,-14 -6.095,0.214 -11.762,1.881 -17,5 -1.766,0.066 -2.766,-0.768 -3,-2.5 1.242,-2.272 2.908,-4.106 5,-5.5 3.874,-1.854 7.707,-3.854 11.5,-6 1.714,0.576 2.881,1.743 3.5,3.5 0.948,0.483 1.948,0.649 3,0.5 0,2.333 0,4.667 0,7 z"
         id="path106" />
    </g>
    <g
       id="g107"
       style="clip-rule:evenodd;fill-rule:evenodd;image-rendering:optimizeQuality;shape-rendering:geometricPrecision;text-rendering:geometricPrecision"
       transform="matrix(0.28429109,0,0,0.28429109,-106.24455,-1.3416673)">
      <path
         style="opacity:1"
         fill="#edc435"
         d="m 521.5,121.5 c 1.181,1.567 2.847,2.401 5,2.5 2.982,0.498 5.982,0.665 9,0.5 0.077,1.25 0.744,2.083 2,2.5 2.926,0.218 5.76,0.718 8.5,1.5 0.333,-0.333 0.667,-0.667 1,-1 2,2.333 4,4.667 6,7 2.429,-4.432 5.263,-8.598 8.5,-12.5 -1.071,-0.852 -2.071,-1.685 -3,-2.5 1.333,0 2.667,0 4,0 0.175,2.121 -0.159,4.121 -1,6 -1.514,1.864 -2.847,3.864 -4,6 -0.647,0.774 -0.98,1.774 -1,3 0.682,2.341 1.349,4.674 2,7 -2.014,0.108 -3.68,-0.558 -5,-2 0.172,-0.992 -0.162,-1.658 -1,-2 -3.242,-6.462 -8.575,-9.629 -16,-9.5 -6.921,-1.306 -13.254,-0.14 -19,3.5 -0.891,0.61 -1.891,0.943 -3,1 -1,0 -2,0 -3,0 0,1 0,2 0,3 -1.699,-0.027 -3.033,-0.694 -4,-2 -0.813,-3.489 -2.813,-6.156 -6,-8 0,-1.667 0,-3.333 0,-5 2.975,-0.213 5.642,-1.213 8,-3 3.565,2.56 7.565,3.893 12,4 z"
         id="path107" />
    </g>
    <g
       id="g109"
       style="clip-rule:evenodd;fill-rule:evenodd;image-rendering:optimizeQuality;shape-rendering:geometricPrecision;text-rendering:geometricPrecision"
       transform="matrix(0.28429109,0,0,0.28429109,-106.24455,-1.3416673)">
      <path
         style="opacity:1"
         fill="#f5db73"
         d="m 552.5,137.5 c -1,-0.667 -2,-1.333 -3,-2 -0.79,-1.294 -1.79,-2.461 -3,-3.5 -3.377,-0.452 -6.711,-1.118 -10,-2 -6.525,0.274 -12.858,0.774 -19,1.5 5.746,-3.64 12.079,-4.806 19,-3.5 7.425,-0.129 12.758,3.038 16,9.5 z"
         id="path109" />
    </g>
    <g
       id="g112"
       style="clip-rule:evenodd;fill-rule:evenodd;image-rendering:optimizeQuality;shape-rendering:geometricPrecision;text-rendering:geometricPrecision"
       transform="matrix(0.28429109,0,0,0.28429109,-106.24455,-1.3416673)">
      <path
         style="opacity:1"
         fill="#f9e183"
         d="m 501.5,125.5 c 3.187,1.844 5.187,4.511 6,8 -1.49,4.185 -3.49,8.185 -6,12 -1.189,0.929 -2.522,1.262 -4,1 0,-2 0,-4 0,-6 0,-3 0,-6 0,-9 0.802,-1.452 1.302,-3.118 1.5,-5 0.671,-0.752 1.504,-1.086 2.5,-1 z"
         id="path112" />
    </g>
    <g
       id="g114"
       style="clip-rule:evenodd;fill-rule:evenodd;image-rendering:optimizeQuality;shape-rendering:geometricPrecision;text-rendering:geometricPrecision"
       transform="matrix(0.28429109,0,0,0.28429109,-106.24455,-1.3416673)">
      <path
         style="opacity:1"
         fill="#f8f2bd"
         d="m 588.5,126.5 c 4.651,0.674 6.151,3.341 4.5,8 -2.763,2.47 -5.93,3.304 -9.5,2.5 -3.452,-1.226 -6.785,-2.726 -10,-4.5 -0.785,17.358 -1.952,34.692 -3.5,52 -0.891,4.788 -3.058,8.788 -6.5,12 0.667,-1.667 1.333,-3.333 2,-5 0,-0.667 0,-1.333 0,-2 3.213,-4.69 4.546,-10.023 4,-16 0,-1.667 0,-3.333 0,-5 1.748,-12.12 2.415,-24.453 2,-37 1,0 2,0 3,0 2.28,1.14 4.614,2.307 7,3.5 2.667,0.667 5.333,0.667 8,0 2.835,-3.305 2.501,-6.138 -1,-8.5 z"
         id="path114" />
    </g>
    <g
       id="g118"
       style="clip-rule:evenodd;fill-rule:evenodd;image-rendering:optimizeQuality;shape-rendering:geometricPrecision;text-rendering:geometricPrecision"
       transform="matrix(0.28429109,0,0,0.28429109,-106.24455,-1.3416673)">
      <path
         style="opacity:1"
         fill="#f8f4c6"
         d="m 549.5,135.5 c 1,0.667 2,1.333 3,2 0.838,0.342 1.172,1.008 1,2 2.505,3.007 4.505,6.34 6,10 0.798,7.925 -1.202,14.925 -6,21 1.152,-3.645 2.318,-7.312 3.5,-11 1.451,-6.139 0.284,-11.639 -3.5,-16.5 -0.948,-0.483 -1.948,-0.649 -3,-0.5 0.166,5.676 -10e-4,11.343 -0.5,17 -0.24,2.352 -1.073,4.352 -2.5,6 1.761,-7.913 2.261,-15.913 1.5,-24 -0.36,-1.921 -1.194,-3.588 -2.5,-5 0.825,-0.886 1.825,-1.219 3,-1 z"
         id="path118" />
    </g>
    <g
       id="g119"
       style="clip-rule:evenodd;fill-rule:evenodd;image-rendering:optimizeQuality;shape-rendering:geometricPrecision;text-rendering:geometricPrecision"
       transform="matrix(0.28429109,0,0,0.28429109,-106.24455,-1.3416673)">
      <path
         style="opacity:1"
         fill="#f9e484"
         d="m 561.5,125.5 c 1.562,0.233 2.895,0.9 4,2 0.33,6.368 -0.004,12.702 -1,19 -4.272,-4.074 -6.605,-9.074 -7,-15 1.153,-2.136 2.486,-4.136 4,-6 z"
         id="path119" />
    </g>
    <g
       id="g124"
       style="clip-rule:evenodd;fill-rule:evenodd;image-rendering:optimizeQuality;shape-rendering:geometricPrecision;text-rendering:geometricPrecision"
       transform="matrix(0.28429109,0,0,0.28429109,-106.24455,-1.3416673)">
      <path
         style="opacity:1"
         fill="#f5e190"
         d="m 570.5,129.5 c 1.88,-0.271 3.213,0.396 4,2 -1,0 -2,0 -3,0 0.415,12.547 -0.252,24.88 -2,37 0.738,-12.987 1.071,-25.987 1,-39 z"
         id="path124" />
    </g>
    <g
       id="g126"
       style="clip-rule:evenodd;fill-rule:evenodd;image-rendering:optimizeQuality;shape-rendering:geometricPrecision;text-rendering:geometricPrecision"
       transform="matrix(0.28429109,0,0,0.28429109,-106.24455,-1.3416673)">
      <path
         style="opacity:1"
         fill="#faf9f4"
         d="m 514.5,162.5 c 0.951,1.419 1.284,3.085 1,5 0.076,3.473 0.742,6.806 2,10 -1.459,0.067 -2.792,-0.266 -4,-1 -0.699,-6.268 -2.865,-11.934 -6.5,-17 -0.825,-3.711 -0.659,-7.378 0.5,-11 0.667,-0.667 1.333,-1.333 2,-2 1.326,4.969 2.492,9.969 3.5,15 0.383,0.556 0.883,0.889 1.5,1 z"
         id="path126" />
    </g>
    <g
       id="g130"
       style="clip-rule:evenodd;fill-rule:evenodd;image-rendering:optimizeQuality;shape-rendering:geometricPrecision;text-rendering:geometricPrecision"
       transform="matrix(0.28429109,0,0,0.28429109,-106.24455,-1.3416673)">
      <path
         style="opacity:1"
         fill="#f9f8d1"
         d="m 473.5,127.5 c -2.07,6.433 0.263,8.933 7,7.5 2.412,-1.768 5.079,-2.935 8,-3.5 1.333,0 2.667,0 4,0 -0.111,14.68 0.223,29.347 1,44 -1.518,-4.066 -2.351,-8.399 -2.5,-13 -0.168,-9.684 -0.668,-19.351 -1.5,-29 -2.559,1.733 -5.225,3.233 -8,4.5 -6.392,1.978 -10.059,-0.189 -11,-6.5 0.061,-2.153 1.061,-3.486 3,-4 z"
         id="path130" />
    </g>
    <g
       id="g132"
       style="clip-rule:evenodd;fill-rule:evenodd;image-rendering:optimizeQuality;shape-rendering:geometricPrecision;text-rendering:geometricPrecision"
       transform="matrix(0.28429109,0,0,0.28429109,-106.24455,-1.3416673)">
      <path
         style="opacity:1"
         fill="#f6e298"
         d="m 549.5,135.5 c -1.175,-0.219 -2.175,0.114 -3,1 1.306,1.412 2.14,3.079 2.5,5 0.761,8.087 0.261,16.087 -1.5,24 -2.684,7.233 -4.684,14.733 -6,22.5 0.662,5.831 1.995,5.998 4,0.5 0.667,-0.333 1.333,-0.667 2,-1 -0.397,2.946 -1.397,5.613 -3,8 -1.784,0.393 -3.45,1.059 -5,2 -5.011,0.166 -10.011,-0.001 -15,-0.5 -1.82,-0.2 -3.153,-1.034 -4,-2.5 2.367,-0.664 4.367,-1.997 6,-4 -0.54,-1.248 -1.207,-2.415 -2,-3.5 0.848,-3.458 -0.152,-6.458 -3,-9 1.134,-1.016 0.801,-1.683 -1,-2 0.333,-0.333 0.667,-0.667 1,-1 -4.994,-12.423 -6.161,-25.257 -3.5,-38.5 1.901,-1.483 1.567,-2.483 -1,-3 -1.077,0.929 -2.244,1.596 -3.5,2 0.61,-0.891 0.943,-1.891 1,-3 1.109,-0.057 2.109,-0.39 3,-1 6.142,-0.726 12.475,-1.226 19,-1.5 3.289,0.882 6.623,1.548 10,2 1.21,1.039 2.21,2.206 3,3.5 z"
         id="path132" />
    </g>
    <g
       id="g133"
       style="clip-rule:evenodd;fill-rule:evenodd;image-rendering:optimizeQuality;shape-rendering:geometricPrecision;text-rendering:geometricPrecision"
       transform="matrix(0.28429109,0,0,0.28429109,-106.24455,-1.3416673)">
      <path
         style="opacity:1"
         fill="#f9f9e9"
         d="m 527.5,145.5 c 9.809,-0.362 12.476,3.805 8,12.5 -6.215,1.435 -9.549,-1.065 -10,-7.5 -0.063,-2.014 0.603,-3.681 2,-5 z"
         id="path133" />
    </g>
    <g
       id="g135"
       style="clip-rule:evenodd;fill-rule:evenodd;image-rendering:optimizeQuality;shape-rendering:geometricPrecision;text-rendering:geometricPrecision"
       transform="matrix(0.28429109,0,0,0.28429109,-106.24455,-1.3416673)">
      <path
         style="opacity:1"
         fill="#f4e596"
         d="m 488.5,131.5 c 1.419,-0.951 3.085,-1.284 5,-1 -0.156,16.686 0.344,33.353 1.5,50 0.993,2.974 1.826,5.974 2.5,9 -1.228,-0.806 -2.228,-1.806 -3,-3 -0.844,-3.599 -1.177,-7.266 -1,-11 -0.777,-14.653 -1.111,-29.32 -1,-44 -1.333,0 -2.667,0 -4,0 z"
         id="path135" />
    </g>
    <g
       id="g137"
       style="clip-rule:evenodd;fill-rule:evenodd;image-rendering:optimizeQuality;shape-rendering:geometricPrecision;text-rendering:geometricPrecision"
       transform="matrix(0.28429109,0,0,0.28429109,-106.24455,-1.3416673)">
      <path
         style="opacity:1"
         fill="#faf1b2"
         d="m 505.5,148.5 c 0,3.667 0,7.333 0,11 -0.667,-0.333 -1.333,-0.667 -2,-1 -0.165,-3.018 0.002,-6.018 0.5,-9 0.383,-0.556 0.883,-0.889 1.5,-1 z"
         id="path137" />
    </g>
    <g
       id="g145"
       style="clip-rule:evenodd;fill-rule:evenodd;image-rendering:optimizeQuality;shape-rendering:geometricPrecision;text-rendering:geometricPrecision"
       transform="matrix(0.28429109,0,0,0.28429109,-106.24455,-1.3416673)">
      <path
         style="opacity:1"
         fill="#faf9df"
         d="m 514.5,162.5 c -0.617,-0.111 -1.117,-0.444 -1.5,-1 -1.008,-5.031 -2.174,-10.031 -3.5,-15 -0.667,0.667 -1.333,1.333 -2,2 -1.159,3.622 -1.325,7.289 -0.5,11 3.635,5.066 5.801,10.732 6.5,17 -1.333,-1.667 -2.667,-3.333 -4,-5 -1.303,-3.955 -2.636,-7.955 -4,-12 0,-3.667 0,-7.333 0,-11 0,-0.333 0,-0.667 0,-1 1.581,-2.174 3.081,-4.507 4.5,-7 1.11,-1.537 2.61,-2.203 4.5,-2 -1.202,7.984 -1.202,15.984 0,24 z"
         id="path145" />
    </g>
    <g
       id="g146"
       style="clip-rule:evenodd;fill-rule:evenodd;image-rendering:optimizeQuality;shape-rendering:geometricPrecision;text-rendering:geometricPrecision"
       transform="matrix(0.28429109,0,0,0.28429109,-106.24455,-1.3416673)">
      <path
         style="opacity:1"
         fill="#e9c546"
         d="m 565.5,127.5 c 1.466,0.847 2.3,2.18 2.5,4 0.417,-1.256 1.25,-1.923 2.5,-2 0.071,13.013 -0.262,26.013 -1,39 0,1.667 0,3.333 0,5 -0.825,2.872 -1.659,5.872 -2.5,9 -0.333,0.333 -0.667,0.667 -1,1 -0.49,-1.293 -0.657,-2.627 -0.5,-4 0.166,-6.675 0,-13.342 -0.5,-20 -1.705,2.077 -2.872,4.41 -3.5,7 -1.367,1.353 -2.367,1.019 -3,-1 2.039,-5.377 2.372,-10.71 1,-16 -1.495,-3.66 -3.495,-6.993 -6,-10 1.32,1.442 2.986,2.108 5,2 -0.651,-2.326 -1.318,-4.659 -2,-7 0.02,-1.226 0.353,-2.226 1,-3 0.395,5.926 2.728,10.926 7,15 0.996,-6.298 1.33,-12.632 1,-19 z"
         id="path146" />
    </g>
    <g
       id="g148"
       style="clip-rule:evenodd;fill-rule:evenodd;image-rendering:optimizeQuality;shape-rendering:geometricPrecision;text-rendering:geometricPrecision"
       transform="matrix(0.28429109,0,0,0.28429109,-106.24455,-1.3416673)">
      <path
         style="opacity:1"
         fill="#f6e185"
         d="m 503.5,158.5 c 0.667,0.333 1.333,0.667 2,1 1.364,4.045 2.697,8.045 4,12 -1.723,-1.753 -3.223,-3.753 -4.5,-6 -0.692,0.525 -1.192,1.192 -1.5,2 1.136,8.285 1.303,16.618 0.5,25 -1.527,-1.721 -2.527,-3.721 -3,-6 -0.837,-4.713 -1.67,-9.38 -2.5,-14 -0.323,-3.726 0.011,-7.393 1,-11 3.192,2.618 4.525,1.618 4,-3 z"
         id="path148" />
    </g>
    <g
       id="g149"
       style="clip-rule:evenodd;fill-rule:evenodd;image-rendering:optimizeQuality;shape-rendering:geometricPrecision;text-rendering:geometricPrecision"
       transform="matrix(0.28429109,0,0,0.28429109,-106.24455,-1.3416673)">
      <path
         style="opacity:1"
         fill="#f9e483"
         d="m 565.5,179.5 c -0.904,0.709 -1.237,1.709 -1,3 -1.333,0 -2.667,0 -4,0 -0.233,-5.395 0.1,-10.728 1,-16 0.628,-2.59 1.795,-4.923 3.5,-7 0.5,6.658 0.666,13.325 0.5,20 z"
         id="path149" />
    </g>
    <g
       id="g152"
       style="clip-rule:evenodd;fill-rule:evenodd;image-rendering:optimizeQuality;shape-rendering:geometricPrecision;text-rendering:geometricPrecision"
       transform="matrix(0.28429109,0,0,0.28429109,-106.24455,-1.3416673)">
      <path
         style="opacity:1"
         fill="#faf9e9"
         d="m 553.5,170.5 c -3.223,5.638 -5.89,11.638 -8,18 -2.005,5.498 -3.338,5.331 -4,-0.5 1.316,-7.767 3.316,-15.267 6,-22.5 1.427,-1.648 2.26,-3.648 2.5,-6 0.499,-5.657 0.666,-11.324 0.5,-17 1.052,-0.149 2.052,0.017 3,0.5 3.784,4.861 4.951,10.361 3.5,16.5 -1.182,3.688 -2.348,7.355 -3.5,11 z"
         id="path152" />
    </g>
    <g
       id="g153"
       style="clip-rule:evenodd;fill-rule:evenodd;image-rendering:optimizeQuality;shape-rendering:geometricPrecision;text-rendering:geometricPrecision"
       transform="matrix(0.28429109,0,0,0.28429109,-106.24455,-1.3416673)">
      <path
         style="opacity:1"
         fill="#eed161"
         d="m 559.5,149.5 c 1.372,5.29 1.039,10.623 -1,16 0.633,2.019 1.633,2.353 3,1 -0.9,5.272 -1.233,10.605 -1,16 1.333,0 2.667,0 4,0 -0.237,-1.291 0.096,-2.291 1,-3 -0.157,1.373 0.01,2.707 0.5,4 0.333,-0.333 0.667,-0.667 1,-1 0.841,-3.128 1.675,-6.128 2.5,-9 0.546,5.977 -0.787,11.31 -4,16 0.219,-1.175 -0.114,-2.175 -1,-3 -2.12,1.095 -3.62,2.761 -4.5,5 -0.22,-7.413 -1.053,-14.746 -2.5,-22 -1.142,1.326 -2.476,2.326 -4,3 0,-0.667 0,-1.333 0,-2 4.798,-6.075 6.798,-13.075 6,-21 z"
         id="path153" />
    </g>
    <g
       id="g155"
       style="clip-rule:evenodd;fill-rule:evenodd;image-rendering:optimizeQuality;shape-rendering:geometricPrecision;text-rendering:geometricPrecision"
       transform="matrix(0.28429109,0,0,0.28429109,-106.24455,-1.3416673)">
      <path
         style="opacity:1"
         fill="#f2e5a7"
         d="m 520.5,194.5 c -3.111,-3.233 -4.944,-7.233 -5.5,-12 -2.524,-3.347 -4.357,-7.014 -5.5,-11 1.333,1.667 2.667,3.333 4,5 0.531,2.044 1.698,3.711 3.5,5 0.144,4.602 1.644,8.602 4.5,12 0.27,-9.19 -1.73,-17.857 -6,-26 0.284,-1.915 -0.049,-3.581 -1,-5 -1.202,-8.016 -1.202,-16.016 0,-24 -1.89,-0.203 -3.39,0.463 -4.5,2 -1.419,2.493 -2.919,4.826 -4.5,7 1.169,-5.007 3.836,-9.007 8,-12 1.256,-0.404 2.423,-1.071 3.5,-2 2.567,0.517 2.901,1.517 1,3 -2.661,13.243 -1.494,26.077 3.5,38.5 -0.333,0.333 -0.667,0.667 -1,1 1.801,0.317 2.134,0.984 1,2 2.848,2.542 3.848,5.542 3,9 0.793,1.085 1.46,2.252 2,3.5 -1.633,2.003 -3.633,3.336 -6,4 z"
         id="path155" />
    </g>
    <g
       id="g157"
       style="clip-rule:evenodd;fill-rule:evenodd;image-rendering:optimizeQuality;shape-rendering:geometricPrecision;text-rendering:geometricPrecision"
       transform="matrix(0.28429109,0,0,0.28429109,-106.24455,-1.3416673)">
      <path
         style="opacity:1"
         fill="#f8edaf"
         d="m 553.5,170.5 c 0,0.667 0,1.333 0,2 0,0.333 0,0.667 0,1 -2.188,4.558 -4.188,9.225 -6,14 -0.667,0.333 -1.333,0.667 -2,1 2.11,-6.362 4.777,-12.362 8,-18 z"
         id="path157" />
    </g>
    <g
       id="g160"
       style="clip-rule:evenodd;fill-rule:evenodd;image-rendering:optimizeQuality;shape-rendering:geometricPrecision;text-rendering:geometricPrecision"
       transform="matrix(0.28429109,0,0,0.28429109,-106.24455,-1.3416673)">
      <path
         style="opacity:1"
         fill="#ecc439"
         d="m 565.5,189.5 c 0,0.667 0,1.333 0,2 -1.839,1.008 -3.172,2.508 -4,4.5 -1.26,1.113 -2.427,1.28 -3.5,0.5 -1.163,-5.968 -2.163,-11.968 -3,-18 -0.508,2.404 -1.675,3.071 -3.5,2 1.446,-2.118 2.113,-4.451 2,-7 0,-0.333 0,-0.667 0,-1 1.524,-0.674 2.858,-1.674 4,-3 1.447,7.254 2.28,14.587 2.5,22 0.88,-2.239 2.38,-3.905 4.5,-5 0.886,0.825 1.219,1.825 1,3 z"
         id="path160" />
    </g>
    <g
       id="g161"
       style="clip-rule:evenodd;fill-rule:evenodd;image-rendering:optimizeQuality;shape-rendering:geometricPrecision;text-rendering:geometricPrecision"
       transform="matrix(0.28429109,0,0,0.28429109,-106.24455,-1.3416673)">
      <path
         style="opacity:1"
         fill="#faf8df"
         d="m 515.5,167.5 c 4.27,8.143 6.27,16.81 6,26 -2.856,-3.398 -4.356,-7.398 -4.5,-12 -1.802,-1.289 -2.969,-2.956 -3.5,-5 1.208,0.734 2.541,1.067 4,1 -1.258,-3.194 -1.924,-6.527 -2,-10 z"
         id="path161" />
    </g>
    <g
       id="g162"
       style="clip-rule:evenodd;fill-rule:evenodd;image-rendering:optimizeQuality;shape-rendering:geometricPrecision;text-rendering:geometricPrecision"
       transform="matrix(0.28429109,0,0,0.28429109,-106.24455,-1.3416673)">
      <path
         style="opacity:1"
         fill="#e8c54a"
         d="m 509.5,171.5 c 1.143,3.986 2.976,7.653 5.5,11 0.556,4.767 2.389,8.767 5.5,12 0.847,1.466 2.18,2.3 4,2.5 4.989,0.499 9.989,0.666 15,0.5 -5.15,1.151 -10.484,1.317 -16,0.5 -2.671,-1.903 -5.671,-2.736 -9,-2.5 0.319,4.863 -0.014,9.53 -1,14 0.323,-6.522 -0.01,-12.855 -1,-19 -0.077,-3.646 -1.077,-6.979 -3,-10 -0.739,13.678 -1.405,27.345 -2,41 -1.473,-0.571 -3.14,-0.571 -5,0 0.16,-1.653 0.826,-2.986 2,-4 1.153,-6.153 1.32,-12.486 0.5,-19 -7.05,-9.201 -9.883,-19.534 -8.5,-31 0.67,1.791 1.337,3.458 2,5 0.83,4.62 1.663,9.287 2.5,14 0.473,2.279 1.473,4.279 3,6 0.803,-8.382 0.636,-16.715 -0.5,-25 0.308,-0.808 0.808,-1.475 1.5,-2 1.277,2.247 2.777,4.247 4.5,6 z"
         id="path162" />
    </g>
    <g
       id="g168"
       style="clip-rule:evenodd;fill-rule:evenodd;image-rendering:optimizeQuality;shape-rendering:geometricPrecision;text-rendering:geometricPrecision"
       transform="matrix(0.28429109,0,0,0.28429109,-106.24455,-1.3416673)">
      <path
         style="opacity:1"
         fill="#ebca54"
         d="m 553.5,173.5 c 0.113,2.549 -0.554,4.882 -2,7 1.825,1.071 2.992,0.404 3.5,-2 0.837,6.032 1.837,12.032 3,18 1.073,0.78 2.24,0.613 3.5,-0.5 0.828,-1.992 2.161,-3.492 4,-4.5 -0.667,1.667 -1.333,3.333 -2,5 -1.673,0.843 -2.84,2.176 -3.5,4 -0.667,6 -0.667,12 0,18 1.094,1.578 1.928,3.245 2.5,5 -2.562,-1.913 -4.895,-1.913 -7,0 -1.682,-4.715 -3.348,-9.381 -5,-14 -0.722,-0.418 -1.222,-1.084 -1.5,-2 -0.333,-3.667 -0.667,-7.333 -1,-11 -1.011,-0.837 -2.178,-1.17 -3.5,-1 1.603,-2.387 2.603,-5.054 3,-8 1.812,-4.775 3.812,-9.442 6,-14 z"
         id="path168" />
    </g>
    <g
       id="g170"
       style="clip-rule:evenodd;fill-rule:evenodd;image-rendering:optimizeQuality;shape-rendering:geometricPrecision;text-rendering:geometricPrecision"
       transform="matrix(0.28429109,0,0,0.28429109,-106.24455,-1.3416673)">
      <path
         style="opacity:1"
         fill="#fae485"
         d="m 512.5,190.5 c 0.99,6.145 1.323,12.478 1,19 0,0.333 0,0.667 0,1 -1.294,0.79 -2.461,1.79 -3.5,3 -0.5,-7.659 -0.666,-15.326 -0.5,-23 1,0 2,0 3,0 z"
         id="path170" />
    </g>
    <g
       id="g173"
       style="clip-rule:evenodd;fill-rule:evenodd;image-rendering:optimizeQuality;shape-rendering:geometricPrecision;text-rendering:geometricPrecision"
       transform="matrix(0.28429109,0,0,0.28429109,-106.24455,-1.3416673)">
      <path
         style="opacity:1"
         fill="#f9f5c5"
         d="m 494.5,186.5 c 0.772,1.194 1.772,2.194 3,3 1.515,3.696 3.681,7.03 6.5,10 0.499,5.991 0.666,11.991 0.5,18 -1.174,1.014 -1.84,2.347 -2,4 -2.137,4.388 -4.471,8.721 -7,13 0.448,-4.024 1.114,-8.024 2,-12 4.223,-3.442 5.89,-7.942 5,-13.5 -0.167,-2.5 -0.333,-5 -0.5,-7.5 -0.991,-1.439 -2.324,-2.439 -4,-3 -1.479,-3.917 -2.646,-7.917 -3.5,-12 z"
         id="path173" />
    </g>
    <g
       id="g174"
       style="clip-rule:evenodd;fill-rule:evenodd;image-rendering:optimizeQuality;shape-rendering:geometricPrecision;text-rendering:geometricPrecision"
       transform="matrix(0.28429109,0,0,0.28429109,-106.24455,-1.3416673)">
      <path
         style="opacity:1"
         fill="#fae58b"
         d="m 550.5,209.5 c -0.959,-5.638 -1.126,-11.305 -0.5,-17 1.344,-1.842 2.844,-3.508 4.5,-5 1.111,7.997 1.111,15.997 0,24 -1.699,-0.027 -3.033,-0.694 -4,-2 z"
         id="path174" />
    </g>
    <g
       id="g179"
       style="clip-rule:evenodd;fill-rule:evenodd;image-rendering:optimizeQuality;shape-rendering:geometricPrecision;text-rendering:geometricPrecision"
       transform="matrix(0.28429109,0,0,0.28429109,-106.24455,-1.3416673)">
      <path
         style="opacity:1"
         fill="#faf0b8"
         d="m 563.5,196.5 c -1.559,3.917 -2.226,8.084 -2,12.5 0.002,3.352 0.335,6.518 1,9.5 1.875,3.088 3.208,6.422 4,10 -1.093,-1.849 -2.426,-3.516 -4,-5 -0.572,-1.755 -1.406,-3.422 -2.5,-5 -0.667,-6 -0.667,-12 0,-18 0.66,-1.824 1.827,-3.157 3.5,-4 z"
         id="path179" />
    </g>
    <g
       id="g182"
       style="clip-rule:evenodd;fill-rule:evenodd;image-rendering:optimizeQuality;shape-rendering:geometricPrecision;text-rendering:geometricPrecision"
       transform="matrix(0.28429109,0,0,0.28429109,-106.24455,-1.3416673)">
      <path
         style="opacity:1"
         fill="#f8dc67"
         d="m 512.5,190.5 c -1,0 -2,0 -3,0 -0.166,7.674 0,15.341 0.5,23 1.039,-1.21 2.206,-2.21 3.5,-3 -1.055,4.886 -2.721,9.552 -5,14 -0.886,-0.825 -1.219,-1.825 -1,-3 0.595,-13.655 1.261,-27.322 2,-41 1.923,3.021 2.923,6.354 3,10 z"
         id="path182" />
    </g>
    <g
       id="g183"
       style="clip-rule:evenodd;fill-rule:evenodd;image-rendering:optimizeQuality;shape-rendering:geometricPrecision;text-rendering:geometricPrecision"
       transform="matrix(0.28429109,0,0,0.28429109,-106.24455,-1.3416673)">
      <path
         style="opacity:1"
         fill="#ecc63a"
         d="m 539.5,197.5 c 1.55,-0.941 3.216,-1.607 5,-2 1.322,-0.17 2.489,0.163 3.5,1 0.333,3.667 0.667,7.333 1,11 0.278,0.916 0.778,1.582 1.5,2 1.652,4.619 3.318,9.285 5,14 2.105,-1.913 4.438,-1.913 7,0 0.43,3.416 0.93,6.75 1.5,10 -1,-1.667 -2,-3.333 -3,-5 -0.167,0.5 -0.333,1 -0.5,1.5 1.735,4.698 2.735,9.531 3,14.5 0,0.333 0,0.667 0,1 -0.65,0.304 -1.317,0.637 -2,1 -0.668,-2.469 -1.335,-4.802 -2,-7 0.49,-2.448 -0.343,-4.115 -2.5,-5 -2.134,3.135 -4.634,5.968 -7.5,8.5 -1.634,0.494 -3.301,0.66 -5,0.5 -0.667,0 -1.333,0 -2,0 -0.667,-0.667 -1.333,-1.333 -2,-2 -4.629,-0.981 -9.296,-1.148 -14,-0.5 -2.352,0.24 -4.352,1.073 -6,2.5 -1,0 -2,0 -3,0 -1.373,0.157 -2.707,-0.01 -4,-0.5 -1.205,-1.376 -2.538,-2.542 -4,-3.5 -0.901,-4.022 -2.734,-4.689 -5.5,-2 -0.333,2 -0.667,4 -1,6 -0.333,-0.333 -0.667,-0.667 -1,-1 -1.475,-7.199 -1.309,-14.199 0.5,-21 1.86,-0.571 3.527,-0.571 5,0 -0.219,1.175 0.114,2.175 1,3 2.279,-4.448 3.945,-9.114 5,-14 0,-0.333 0,-0.667 0,-1 0.986,-4.47 1.319,-9.137 1,-14 3.329,-0.236 6.329,0.597 9,2.5 5.516,0.817 10.85,0.651 16,-0.5 z"
         id="path183" />
    </g>
    <g
       id="g184"
       style="clip-rule:evenodd;fill-rule:evenodd;image-rendering:optimizeQuality;shape-rendering:geometricPrecision;text-rendering:geometricPrecision"
       transform="matrix(0.28429109,0,0,0.28429109,-106.24455,-1.3416673)">
      <path
         style="opacity:1"
         fill="#f2c729"
         d="m 540.5,241.5 c -2.536,-2.496 -5.703,-3.496 -9.5,-3 -5.65,0.463 -11.15,1.297 -16.5,2.5 -3.142,-1.45 -4.808,-3.95 -5,-7.5 -1.823,-1.658 -3.49,-3.491 -5,-5.5 4.268,0.288 7.102,-1.546 8.5,-5.5 0.977,-8.256 2.81,-16.256 5.5,-24 2.12,1.391 4.453,2.058 7,2 6.703,0.402 13.37,-0.098 20,-1.5 -0.333,0.333 -0.667,0.667 -1,1 2.437,7.31 4.937,14.81 7.5,22.5 1.622,2.406 3.789,4.239 6.5,5.5 -1.38,1.324 -1.714,2.657 -1,4 -2.788,0.726 -4.288,2.56 -4.5,5.5 -3.387,3.539 -7.553,4.872 -12.5,4 z"
         id="path184" />
    </g>
    <g
       id="g192"
       style="clip-rule:evenodd;fill-rule:evenodd;image-rendering:optimizeQuality;shape-rendering:geometricPrecision;text-rendering:geometricPrecision"
       transform="matrix(0.28429109,0,0,0.28429109,-106.24455,-1.3416673)">
      <path
         style="opacity:1"
         fill="#faf9ea"
         d="m 562.5,218.5 c 1.574,0.437 2.741,1.437 3.5,3 1.659,3.632 3.326,7.299 5,11 0.998,4.504 1.831,9.004 2.5,13.5 -0.244,8.739 -0.744,17.905 -1.5,27.5 -0.006,2.764 -1.172,4.764 -3.5,6 0,-0.667 0,-1.333 0,-2 0.722,-0.418 1.222,-1.084 1.5,-2 0.894,-14.708 0.56,-29.374 -1,-44 -0.671,-0.752 -1.504,-1.086 -2.5,-1 0,-0.667 0,-1.333 0,-2 -0.792,-3.578 -2.125,-6.912 -4,-10 z"
         id="path192" />
    </g>
    <g
       id="g195"
       style="clip-rule:evenodd;fill-rule:evenodd;image-rendering:optimizeQuality;shape-rendering:geometricPrecision;text-rendering:geometricPrecision"
       transform="matrix(0.28429109,0,0,0.28429109,-106.24455,-1.3416673)">
      <path
         style="opacity:1"
         fill="#f9f3be"
         d="m 566.5,230.5 c 0.996,-0.086 1.829,0.248 2.5,1 1.56,14.626 1.894,29.292 1,44 -0.278,0.916 -0.778,1.582 -1.5,2 1.284,-12.807 1.284,-25.474 0,-38 -0.256,-3.098 -0.922,-6.098 -2,-9 z"
         id="path195" />
    </g>
    <g
       id="g201"
       style="clip-rule:evenodd;fill-rule:evenodd;image-rendering:optimizeQuality;shape-rendering:geometricPrecision;text-rendering:geometricPrecision"
       transform="matrix(0.28429109,0,0,0.28429109,-106.24455,-1.3416673)">
      <path
         style="opacity:1"
         fill="#faf9d7"
         d="m 494.5,234.5 c -1.058,11.978 -1.225,23.978 -0.5,36 0.856,4.3 2.689,7.967 5.5,11 0,0.333 0,0.667 0,1 -1.517,-0.011 -2.684,-0.677 -3.5,-2 -2.782,-4.24 -4.115,-8.907 -4,-14 -0.667,-7.333 -0.667,-14.667 0,-22 0.026,-3.679 0.86,-7.012 2.5,-10 z"
         id="path201" />
    </g>
    <g
       id="g202"
       style="clip-rule:evenodd;fill-rule:evenodd;image-rendering:optimizeQuality;shape-rendering:geometricPrecision;text-rendering:geometricPrecision"
       transform="matrix(0.28429109,0,0,0.28429109,-106.24455,-1.3416673)">
      <path
         style="opacity:1"
         fill="#f0e397"
         d="m 503.5,259.5 c -1.392,-1.773 -2.559,-3.773 -3.5,-6 -1.405,3.119 -1.905,6.452 -1.5,10 -0.987,-4.805 -1.321,-9.805 -1,-15 -0.383,-2.962 0.617,-3.962 3,-3 0.816,4.711 1.816,9.378 3,14 z"
         id="path202" />
    </g>
    <g
       id="g210"
       style="clip-rule:evenodd;fill-rule:evenodd;image-rendering:optimizeQuality;shape-rendering:geometricPrecision;text-rendering:geometricPrecision"
       transform="matrix(0.28429109,0,0,0.28429109,-106.24455,-1.3416673)">
      <path
         style="opacity:1"
         fill="#faf9d1"
         d="m 503.5,259.5 c 0,0.333 0,0.667 0,1 0.538,1.617 0.871,3.284 1,5 -2.185,-0.204 -4.185,-0.87 -6,-2 -0.405,-3.548 0.095,-6.881 1.5,-10 0.941,2.227 2.108,4.227 3.5,6 z"
         id="path210" />
    </g>
    <g
       id="g213"
       style="clip-rule:evenodd;fill-rule:evenodd;image-rendering:optimizeQuality;shape-rendering:geometricPrecision;text-rendering:geometricPrecision"
       transform="matrix(0.28429109,0,0,0.28429109,-106.24455,-1.3416673)">
      <path
         style="opacity:1"
         fill="#e7c64d"
         d="m 502.5,221.5 c -1.809,6.801 -1.975,13.801 -0.5,21 0.333,0.333 0.667,0.667 1,1 0.333,-2 0.667,-4 1,-6 2.766,-2.689 4.599,-2.022 5.5,2 -0.982,-0.641 -1.982,-1.307 -3,-2 -1.163,5.302 -1.329,10.636 -0.5,16 2.835,7.663 6.169,14.997 10,22 1.039,1.21 2.206,2.21 3.5,3 0.667,1.333 1.667,2.333 3,3 4.21,3.556 8.877,4.556 14,3 3.857,-1.186 6.857,-3.52 9,-7 8.389,-11.155 13.056,-23.822 14,-38 0.665,2.198 1.332,4.531 2,7 0.683,-0.363 1.35,-0.696 2,-1 -0.667,3 -1.333,6 -2,9 -0.801,1.542 -1.134,3.208 -1,5 -5.031,6.609 -3.531,8.942 4.5,7 0.667,-7.667 0.667,-15.333 0,-23 -0.383,0.556 -0.883,0.889 -1.5,1 -0.265,-4.969 -1.265,-9.802 -3,-14.5 0.167,-0.5 0.333,-1 0.5,-1.5 1,1.667 2,3.333 3,5 -0.57,-3.25 -1.07,-6.584 -1.5,-10 1.574,1.484 2.907,3.151 4,5 0,0.667 0,1.333 0,2 1.078,2.902 1.744,5.902 2,9 0.434,13.077 -0.232,26.077 -2,39 -0.843,1.673 -2.176,2.84 -4,3.5 -2.646,0.497 -5.313,0.664 -8,0.5 -0.26,-2.095 -1.426,-3.428 -3.5,-4 -2.101,1.594 -3.601,3.594 -4.5,6 -1.395,4.091 -2.228,8.424 -2.5,13 -1.405,1.231 -2.571,2.564 -3.5,4 1.512,-5.228 2.512,-10.562 3,-16 -3.976,0.547 -7.643,1.88 -11,4 -5.702,-1.203 -10.202,-4.203 -13.5,-9 -0.513,1.027 -1.013,2.027 -1.5,3 -0.667,-0.333 -1.333,-0.667 -2,-1 -0.212,-1.884 -1.212,-3.217 -3,-4 -3.964,2.38 -8.297,3.38 -13,3 -0.823,-1.955 -0.99,-3.955 -0.5,-6 4.618,4.395 8.118,3.729 10.5,-2 -0.043,-0.916 -0.376,-1.583 -1,-2 -0.473,-1.406 -1.473,-2.073 -3,-2 1.683,-3.595 1.017,-6.595 -2,-9 0,-0.333 0,-0.667 0,-1 -1.184,-4.622 -2.184,-9.289 -3,-14 -2.383,-0.962 -3.383,0.038 -3,3 -0.617,0.111 -1.117,0.444 -1.5,1 -0.499,-4.989 -0.666,-9.989 -0.5,-15 2.529,-4.279 4.863,-8.612 7,-13 z"
         id="path213" />
    </g>
    <g
       id="g214"
       style="clip-rule:evenodd;fill-rule:evenodd;image-rendering:optimizeQuality;shape-rendering:geometricPrecision;text-rendering:geometricPrecision"
       transform="matrix(0.28429109,0,0,0.28429109,-106.24455,-1.3416673)">
      <path
         style="opacity:1"
         fill="#faf8d3"
         d="m 561.5,254.5 c 0.996,-0.086 1.829,0.248 2.5,1 0.667,3 0.667,6 0,9 -1.011,0.837 -2.178,1.17 -3.5,1 0,-2 0,-4 0,-6 -0.134,-1.792 0.199,-3.458 1,-5 z"
         id="path214" />
    </g>
    <g
       id="g215"
       style="clip-rule:evenodd;fill-rule:evenodd;image-rendering:optimizeQuality;shape-rendering:geometricPrecision;text-rendering:geometricPrecision"
       transform="matrix(0.28429109,0,0,0.28429109,-106.24455,-1.3416673)">
      <path
         style="opacity:1"
         fill="#f8f3cb"
         d="m 541.5,243.5 c 0.333,0 0.667,0 1,0 0.667,0 1.333,0 2,0 0.709,0.904 1.709,1.237 3,1 1.037,2.238 1.203,4.571 0.5,7 -2.199,8.269 -4.199,16.602 -6,25 -1.442,1.891 -2.609,3.891 -3.5,6 -0.667,0 -1.333,0 -2,0 4.358,-8.754 7.025,-18.087 8,-28 -0.237,-1.291 0.096,-2.291 1,-3 1.288,-1.535 1.288,-3.201 0,-5 -1.761,-0.535 -3.094,-1.535 -4,-3 z"
         id="path215" />
    </g>
    <g
       id="g216"
       style="clip-rule:evenodd;fill-rule:evenodd;image-rendering:optimizeQuality;shape-rendering:geometricPrecision;text-rendering:geometricPrecision"
       transform="matrix(0.28429109,0,0,0.28429109,-106.24455,-1.3416673)">
      <path
         style="opacity:1"
         fill="#f9e286"
         d="m 509.5,239.5 c 1.462,0.958 2.795,2.124 4,3.5 1.293,0.49 2.627,0.657 4,0.5 -0.342,0.838 -1.008,1.172 -2,1 -1.373,0.157 -2.707,-0.01 -4,-0.5 -0.864,-1.697 -2.197,-2.863 -4,-3.5 -0.831,3.654 -1.165,7.154 -1,10.5 4.473,9.113 8.807,18.279 13,27.5 -1.294,-0.79 -2.461,-1.79 -3.5,-3 -3.831,-7.003 -7.165,-14.337 -10,-22 -0.829,-5.364 -0.663,-10.698 0.5,-16 1.018,0.693 2.018,1.359 3,2 z"
         id="path216" />
    </g>
    <g
       id="g217"
       style="clip-rule:evenodd;fill-rule:evenodd;image-rendering:optimizeQuality;shape-rendering:geometricPrecision;text-rendering:geometricPrecision"
       transform="matrix(0.28429109,0,0,0.28429109,-106.24455,-1.3416673)">
      <path
         style="opacity:1"
         fill="#f7e399"
         d="m 515.5,244.5 c 0.288,7.25 0.954,14.417 2,21.5 -0.457,0.414 -0.791,0.914 -1,1.5 2.202,4.615 4.202,9.282 6,14 -1.333,-0.667 -2.333,-1.667 -3,-3 -4.193,-9.221 -8.527,-18.387 -13,-27.5 -0.165,-3.346 0.169,-6.846 1,-10.5 1.803,0.637 3.136,1.803 4,3.5 1.293,0.49 2.627,0.657 4,0.5 z"
         id="path217" />
    </g>
    <g
       id="g218"
       style="clip-rule:evenodd;fill-rule:evenodd;image-rendering:optimizeQuality;shape-rendering:geometricPrecision;text-rendering:geometricPrecision"
       transform="matrix(0.28429109,0,0,0.28429109,-106.24455,-1.3416673)">
      <path
         style="opacity:1"
         fill="#f7e99b"
         d="m 560.5,259.5 c 0,2 0,4 0,6 1.322,0.17 2.489,-0.163 3.5,-1 0.667,-3 0.667,-6 0,-9 -0.671,-0.752 -1.504,-1.086 -2.5,-1 0.667,-3 1.333,-6 2,-9 0,-0.333 0,-0.667 0,-1 0.617,-0.111 1.117,-0.444 1.5,-1 0.667,7.667 0.667,15.333 0,23 -8.031,1.942 -9.531,-0.391 -4.5,-7 z"
         id="path218" />
    </g>
    <g
       id="g219"
       style="clip-rule:evenodd;fill-rule:evenodd;image-rendering:optimizeQuality;shape-rendering:geometricPrecision;text-rendering:geometricPrecision"
       transform="matrix(0.28429109,0,0,0.28429109,-106.24455,-1.3416673)">
      <path
         style="opacity:1"
         fill="#f5e198"
         d="m 545.5,277.5 c -2.143,3.48 -5.143,5.814 -9,7 0.667,-0.667 1.333,-1.333 2,-2 0.891,-2.109 2.058,-4.109 3.5,-6 1.801,-8.398 3.801,-16.731 6,-25 0.703,-2.429 0.537,-4.762 -0.5,-7 1.052,0.149 2.052,-0.017 3,-0.5 2.176,-1.677 4.176,-3.511 6,-5.5 0.73,1.841 1.397,3.675 2,5.5 -0.5,0.5 -1,1 -1.5,1.5 -0.409,4.809 -1.409,9.476 -3,14 -0.93,2.862 -2.597,5.195 -5,7 -0.89,3.832 -2.056,7.499 -3.5,11 z"
         id="path219" />
    </g>
    <g
       id="g220"
       style="clip-rule:evenodd;fill-rule:evenodd;image-rendering:optimizeQuality;shape-rendering:geometricPrecision;text-rendering:geometricPrecision"
       transform="matrix(0.28429109,0,0,0.28429109,-106.24455,-1.3416673)">
      <path
         style="opacity:1"
         fill="#faf9e3"
         d="m 541.5,243.5 c 0.906,1.465 2.239,2.465 4,3 1.288,1.799 1.288,3.465 0,5 0,-1.333 0,-2.667 0,-4 -5.35,-0.971 -10.683,-1.971 -16,-3 -3.017,0.268 -6.017,0.602 -9,1 0.667,-0.667 1.333,-1.333 2,-2 2.948,-0.82 5.948,-1.486 9,-2 3.346,0.67 6.679,1.337 10,2 z"
         id="path220" />
    </g>
    <g
       id="g221"
       style="clip-rule:evenodd;fill-rule:evenodd;image-rendering:optimizeQuality;shape-rendering:geometricPrecision;text-rendering:geometricPrecision"
       transform="matrix(0.28429109,0,0,0.28429109,-106.24455,-1.3416673)">
      <path
         style="opacity:1"
         fill="#faf9f9"
         d="m 545.5,251.5 c -0.904,0.709 -1.237,1.709 -1,3 -1.664,1.243 -2.831,2.91 -3.5,5 -0.318,5.419 -1.318,10.752 -3,16 -2.93,7.119 -6.93,7.786 -12,2 -2.816,-7.807 -5.649,-15.473 -8.5,-23 0,-3 0,-6 0,-9 1,0 2,0 3,0 2.983,-0.398 5.983,-0.732 9,-1 5.317,1.029 10.65,2.029 16,3 0,1.333 0,2.667 0,4 z"
         id="path221" />
    </g>
    <g
       id="g222"
       style="clip-rule:evenodd;fill-rule:evenodd;image-rendering:optimizeQuality;shape-rendering:geometricPrecision;text-rendering:geometricPrecision"
       transform="matrix(0.28429109,0,0,0.28429109,-106.24455,-1.3416673)">
      <path
         style="opacity:1"
         fill="#f4e394"
         d="m 540.5,241.5 c 0.667,0.667 1.333,1.333 2,2 -0.333,0 -0.667,0 -1,0 -3.321,-0.663 -6.654,-1.33 -10,-2 -3.052,0.514 -6.052,1.18 -9,2 -0.667,0 -1.333,0 -2,0 1.648,-1.427 3.648,-2.26 6,-2.5 4.704,-0.648 9.371,-0.481 14,0.5 z"
         id="path222" />
    </g>
    <g
       id="g224"
       style="clip-rule:evenodd;fill-rule:evenodd;image-rendering:optimizeQuality;shape-rendering:geometricPrecision;text-rendering:geometricPrecision"
       transform="matrix(0.28429109,0,0,0.28429109,-106.24455,-1.3416673)">
      <path
         style="opacity:1"
         fill="#f7f3a7"
         d="m 505.5,269.5 c 1.527,-0.073 2.527,0.594 3,2 -0.266,3.579 -1.599,3.913 -4,1 -1.236,0.746 -2.57,1.079 -4,1 0,-1.333 0,-2.667 0,-4 1.667,0 3.333,0 5,0 z"
         id="path224" />
    </g>
    <g
       id="g225"
       style="clip-rule:evenodd;fill-rule:evenodd;image-rendering:optimizeQuality;shape-rendering:geometricPrecision;text-rendering:geometricPrecision"
       transform="matrix(0.28429109,0,0,0.28429109,-106.24455,-1.3416673)">
      <path
         style="opacity:1"
         fill="#f9e181"
         d="m 559.5,239.5 c -0.944,14.178 -5.611,26.845 -14,38 1.444,-3.501 2.61,-7.168 3.5,-11 2.403,-1.805 4.07,-4.138 5,-7 1.591,-4.524 2.591,-9.191 3,-14 0.5,-0.5 1,-1 1.5,-1.5 -0.603,-1.825 -1.27,-3.659 -2,-5.5 -1.824,1.989 -3.824,3.823 -6,5.5 -0.948,0.483 -1.948,0.649 -3,0.5 -1.291,0.237 -2.291,-0.096 -3,-1 1.699,0.16 3.366,-0.006 5,-0.5 2.866,-2.532 5.366,-5.365 7.5,-8.5 2.157,0.885 2.99,2.552 2.5,5 z"
         id="path225" />
    </g>
    <g
       id="g226"
       style="clip-rule:evenodd;fill-rule:evenodd;image-rendering:optimizeQuality;shape-rendering:geometricPrecision;text-rendering:geometricPrecision"
       transform="matrix(0.28429109,0,0,0.28429109,-106.24455,-1.3416673)">
      <path
         style="opacity:1"
         fill="#f6ed9f"
         d="m 563.5,274.5 c -2.596,-0.765 -5.263,-1.099 -8,-1 0,-1 0,-2 0,-3 2.787,-0.977 5.787,-1.31 9,-1 0.134,1.792 -0.199,3.458 -1,5 z"
         id="path226" />
    </g>
    <g
       id="g227"
       style="clip-rule:evenodd;fill-rule:evenodd;image-rendering:optimizeQuality;shape-rendering:geometricPrecision;text-rendering:geometricPrecision"
       transform="matrix(0.28429109,0,0,0.28429109,-106.24455,-1.3416673)">
      <path
         style="opacity:1"
         fill="#e8d271"
         d="m 494.5,234.5 c 0.333,0 0.667,0 1,0 -0.166,5.011 10e-4,10.011 0.5,15 0.383,-0.556 0.883,-0.889 1.5,-1 -0.321,5.195 0.013,10.195 1,15 1.815,1.13 3.815,1.796 6,2 -0.129,-1.716 -0.462,-3.383 -1,-5 3.017,2.405 3.683,5.405 2,9 -1.667,0 -3.333,0 -5,0 0,1.333 0,2.667 0,4 1.43,0.079 2.764,-0.254 4,-1 2.401,2.913 3.734,2.579 4,-1 0.624,0.417 0.957,1.084 1,2 -2.382,5.729 -5.882,6.395 -10.5,2 -0.49,2.045 -0.323,4.045 0.5,6 -2.811,-3.033 -4.644,-6.7 -5.5,-11 -0.725,-12.022 -0.558,-24.022 0.5,-36 z"
         id="path227" />
    </g>
    <g
       id="g229"
       style="clip-rule:evenodd;fill-rule:evenodd;image-rendering:optimizeQuality;shape-rendering:geometricPrecision;text-rendering:geometricPrecision"
       transform="matrix(0.28429109,0,0,0.28429109,-106.24455,-1.3416673)">
      <path
         style="opacity:1"
         fill="#e9d379"
         d="m 568.5,239.5 c 1.284,12.526 1.284,25.193 0,38 -0.667,0.333 -1.333,0.667 -2,1 1.768,-12.923 2.434,-25.923 2,-39 z"
         id="path229" />
    </g>
    <g
       id="g231"
       style="clip-rule:evenodd;fill-rule:evenodd;image-rendering:optimizeQuality;shape-rendering:geometricPrecision;text-rendering:geometricPrecision"
       transform="matrix(0.28429109,0,0,0.28429109,-106.24455,-1.3416673)">
      <path
         style="opacity:1"
         fill="#f3e8af"
         d="m 517.5,243.5 c 1,0 2,0 3,0 0.667,0 1.333,0 2,0 -0.667,0.667 -1.333,1.333 -2,2 -1,0 -2,0 -3,0 0,3 0,6 0,9 1.648,8.78 3.814,17.447 6.5,26 3.764,3.075 7.931,3.742 12.5,2 0.667,0 1.333,0 2,0 -0.667,0.667 -1.333,1.333 -2,2 -5.123,1.556 -9.79,0.556 -14,-3 -1.798,-4.718 -3.798,-9.385 -6,-14 0.209,-0.586 0.543,-1.086 1,-1.5 -1.046,-7.083 -1.712,-14.25 -2,-21.5 0.992,0.172 1.658,-0.162 2,-1 z"
         id="path231" />
    </g>
    <g
       id="g232"
       style="clip-rule:evenodd;fill-rule:evenodd;image-rendering:optimizeQuality;shape-rendering:geometricPrecision;text-rendering:geometricPrecision"
       transform="matrix(0.28429109,0,0,0.28429109,-106.24455,-1.3416673)">
      <path
         style="opacity:1"
         fill="#f0d873"
         d="m 555.5,270.5 c 0,1 0,2 0,3 2.737,-0.099 5.404,0.235 8,1 -4.379,5.822 -7.379,5.156 -9,-2 0.043,-0.916 0.376,-1.583 1,-2 z"
         id="path232" />
    </g>
    <g
       id="g234"
       style="clip-rule:evenodd;fill-rule:evenodd;image-rendering:optimizeQuality;shape-rendering:geometricPrecision;text-rendering:geometricPrecision"
       transform="matrix(0.28429109,0,0,0.28429109,-106.24455,-1.3416673)">
      <path
         style="opacity:1"
         fill="#faf9e8"
         d="m 517.5,254.5 c 2.851,7.527 5.684,15.193 8.5,23 5.07,5.786 9.07,5.119 12,-2 1.682,-5.248 2.682,-10.581 3,-16 0.669,-2.09 1.836,-3.757 3.5,-5 -0.975,9.913 -3.642,19.246 -8,28 -4.569,1.742 -8.736,1.075 -12.5,-2 -2.686,-8.553 -4.852,-17.22 -6.5,-26 z"
         id="path234" />
    </g>
    <g
       id="g235"
       style="clip-rule:evenodd;fill-rule:evenodd;image-rendering:optimizeQuality;shape-rendering:geometricPrecision;text-rendering:geometricPrecision"
       transform="matrix(0.28429109,0,0,0.28429109,-106.24455,-1.3416673)">
      <path
         style="opacity:1"
         fill="#f9f3c0"
         d="m 568.5,277.5 c 0,0.667 0,1.333 0,2 -3.324,4.325 -7.657,5.825 -13,4.5 -0.556,-0.383 -0.889,-0.883 -1,-1.5 2.687,0.164 5.354,-0.003 8,-0.5 1.824,-0.66 3.157,-1.827 4,-3.5 0.667,-0.333 1.333,-0.667 2,-1 z"
         id="path235" />
    </g>
    <g
       id="g236"
       style="clip-rule:evenodd;fill-rule:evenodd;image-rendering:optimizeQuality;shape-rendering:geometricPrecision;text-rendering:geometricPrecision"
       transform="matrix(0.28429109,0,0,0.28429109,-106.24455,-1.3416673)">
      <path
         style="opacity:1"
         fill="#e9d685"
         d="m 515.5,282.5 c -0.982,-0.641 -1.982,-1.307 -3,-2 -3.937,3.087 -8.271,3.753 -13,2 0,-0.333 0,-0.667 0,-1 4.703,0.38 9.036,-0.62 13,-3 1.788,0.783 2.788,2.116 3,4 z"
         id="path236" />
    </g>
    <g
       id="g237"
       style="clip-rule:evenodd;fill-rule:evenodd;image-rendering:optimizeQuality;shape-rendering:geometricPrecision;text-rendering:geometricPrecision"
       transform="matrix(0.28429109,0,0,0.28429109,-106.24455,-1.3416673)">
      <path
         style="opacity:1"
         fill="#f9f2be"
         d="m 554.5,282.5 c -2.222,-0.322 -4.056,0.345 -5.5,2 -0.499,3.652 -0.665,7.318 -0.5,11 -0.628,2.162 -1.961,3.828 -4,5 0.993,-5.277 1.66,-10.61 2,-16 0.899,-2.406 2.399,-4.406 4.5,-6 2.074,0.572 3.24,1.905 3.5,4 z"
         id="path237" />
    </g>
    <g
       id="g238"
       style="clip-rule:evenodd;fill-rule:evenodd;image-rendering:optimizeQuality;shape-rendering:geometricPrecision;text-rendering:geometricPrecision"
       transform="matrix(0.28429109,0,0,0.28429109,-106.24455,-1.3416673)">
      <path
         style="opacity:1"
         fill="#faf6cb"
         d="m 515.5,282.5 c 0.667,0.333 1.333,0.667 2,1 0.34,5.708 1.007,11.375 2,17 -1.466,-0.847 -2.3,-2.18 -2.5,-4 -0.179,-3.525 -0.679,-6.859 -1.5,-10 -0.789,-0.283 -1.456,-0.783 -2,-1.5 -4.333,-0.333 -8.667,-0.667 -13,-1 -0.556,-0.383 -0.889,-0.883 -1,-1.5 4.729,1.753 9.063,1.087 13,-2 1.018,0.693 2.018,1.359 3,2 z"
         id="path238" />
    </g>
    <g
       id="g239"
       style="clip-rule:evenodd;fill-rule:evenodd;image-rendering:optimizeQuality;shape-rendering:geometricPrecision;text-rendering:geometricPrecision"
       transform="matrix(0.28429109,0,0,0.28429109,-106.24455,-1.3416673)">
      <path
         style="opacity:1"
         fill="#f1c72f"
         d="m 540.5,301.5 c -5.537,2.485 -11.204,2.651 -17,0.5 -0.711,-1.255 -1.544,-2.421 -2.5,-3.5 -0.851,-5.205 -2.018,-10.205 -3.5,-15 0.487,-0.973 0.987,-1.973 1.5,-3 3.298,4.797 7.798,7.797 13.5,9 3.357,-2.12 7.024,-3.453 11,-4 -0.488,5.438 -1.488,10.772 -3,16 z"
         id="path239" />
    </g>
    <g
       id="g243"
       style="clip-rule:evenodd;fill-rule:evenodd;image-rendering:optimizeQuality;shape-rendering:geometricPrecision;text-rendering:geometricPrecision"
       transform="matrix(0.28429109,0,0,0.28429109,-106.24455,-1.3416673)">
      <path
         style="opacity:1"
         fill="#e3c75d"
         d="m 517.5,283.5 c 1.482,4.795 2.649,9.795 3.5,15 0.956,1.079 1.789,2.245 2.5,3.5 5.796,2.151 11.463,1.985 17,-0.5 0.929,-1.436 2.095,-2.769 3.5,-4 0.272,-4.576 1.105,-8.909 2.5,-13 -0.34,5.39 -1.007,10.723 -2,16 -5.779,4.596 -12.445,6.263 -20,5 -1.333,-2 -3,-3.667 -5,-5 -0.993,-5.625 -1.66,-11.292 -2,-17 z"
         id="path243" />
    </g>
    <g
       id="g273"
       style="clip-rule:evenodd;fill-rule:evenodd;image-rendering:optimizeQuality;shape-rendering:geometricPrecision;text-rendering:geometricPrecision"
       transform="matrix(0.28429109,0,0,0.28429109,-106.24455,-1.3416673)">
      <path
         style="opacity:1"
         fill="#faf8e1"
         d="m 515.5,286.5 c 0.821,3.141 1.321,6.475 1.5,10 0.2,1.82 1.034,3.153 2.5,4 2,1.333 3.667,3 5,5 0.418,0.722 1.084,1.222 2,1.5 4,0.667 8,0.667 12,0 2.597,-1.757 4.597,-3.924 6,-6.5 2.039,-1.172 3.372,-2.838 4,-5 -0.783,4.397 -2.783,8.23 -6,11.5 -6.223,1.581 -12.556,1.915 -19,1 -2.46,-1.458 -4.627,-3.291 -6.5,-5.5 -1.191,-5.267 -1.691,-10.601 -1.5,-16 z"
         id="path273" />
    </g>
    <g
       id="g275"
       style="clip-rule:evenodd;fill-rule:evenodd;image-rendering:optimizeQuality;shape-rendering:geometricPrecision;text-rendering:geometricPrecision"
       transform="matrix(0.28429109,0,0,0.28429109,-106.24455,-1.3416673)">
      <path
         style="opacity:1"
         fill="#f9f2bd"
         d="m 544.5,300.5 c -1.403,2.576 -3.403,4.743 -6,6.5 -4,0.667 -8,0.667 -12,0 -0.916,-0.278 -1.582,-0.778 -2,-1.5 7.555,1.263 14.221,-0.404 20,-5 z"
         id="path275" />
    </g>
  </g>
</svg>
