<?xml version="1.0" encoding="UTF-8" standalone="no"?>
<!-- Created with Inkscape (http://www.inkscape.org/) -->

<svg
   width="96mm"
   height="96mm"
   viewBox="0 0 96 96"
   version="1.1"
   id="svg1"
   inkscape:version="1.4.2 (ebf0e940, 2025-05-08)"
   sodipodi:docname="bus.svg"
   xmlns:inkscape="http://www.inkscape.org/namespaces/inkscape"
   xmlns:sodipodi="http://sodipodi.sourceforge.net/DTD/sodipodi-0.dtd"
   xmlns="http://www.w3.org/2000/svg"
   xmlns:svg="http://www.w3.org/2000/svg">
  <sodipodi:namedview
     id="namedview1"
     pagecolor="#ffffff"
     bordercolor="#000000"
     borderopacity="0.25"
     inkscape:showpageshadow="2"
     inkscape:pageopacity="0.0"
     inkscape:pagecheckerboard="0"
     inkscape:deskcolor="#d1d1d1"
     inkscape:document-units="mm"
     inkscape:zoom="0.80444024"
     inkscape:cx="397.17059"
     inkscape:cy="262.91574"
     inkscape:window-width="1920"
     inkscape:window-height="1052"
     inkscape:window-x="0"
     inkscape:window-y="28"
     inkscape:window-maximized="0"
     inkscape:current-layer="layer1" />
  <defs
     id="defs1" />
  <g
     inkscape:label="Layer 1"
     inkscape:groupmode="layer"
     id="layer1">
    <g
       id="g2"
       style="clip-rule:evenodd;fill-rule:evenodd;image-rendering:optimizeQuality;shape-rendering:geometricPrecision;text-rendering:geometricPrecision"
       transform="matrix(0.28903713,0,0,0.28903713,-306.14656,-3.4539552)">
      <path
         style="opacity:1"
         fill="#faf9e4"
         d="m 1266.5,48.5 c -7.87,-1.8746 -15.87,-2.8746 -24,-3 -0.33,0 -0.67,0 -1,0 -13.49,-0.9957 -27.16,-1.329 -41,-1 4.63,-1.5076 9.46,-2.5076 14.5,-3 10.47,0.6777 20.97,1.3443 31.5,2 0.59,-0.2093 1.09,-0.5426 1.5,-1 5.81,1.444 11.65,2.944 17.5,4.5 0.56,0.3826 0.89,0.8826 1,1.5 z"
         id="path2" />
    </g>
    <g
       id="g5"
       style="clip-rule:evenodd;fill-rule:evenodd;image-rendering:optimizeQuality;shape-rendering:geometricPrecision;text-rendering:geometricPrecision"
       transform="matrix(0.28903713,0,0,0.28903713,-306.14656,-3.4539552)">
      <path
         style="opacity:1"
         fill="#e4c85c"
         d="m 1241.5,45.5 c 0.33,0 0.67,0 1,0 6.55,1.1242 13.21,2.2908 20,3.5 6.5,2.9756 10.5,7.8089 12,14.5 -1.08,-0.0394 -2.08,-0.3728 -3,-1 -0.67,2.4688 -1.33,4.8021 -2,7 0.17,-3.6817 0,-7.3484 -0.5,-11 -1.04,-1.2101 -2.21,-2.2101 -3.5,-3 -18.08,-5.7206 -36.42,-7.3873 -55,-5 -0.33,0 -0.67,0 -1,0 -5.42,0.5704 -10.76,1.5704 -16,3 2.87,-2.2614 6.2,-3.7614 10,-4.5 -7.39,-0.3076 -14.39,1.1924 -21,4.5 0.45,-0.9584 1.12,-1.7917 2,-2.5 7.45,-2.6455 15.11,-4.3121 23,-5 11.33,-0.4999 22.66,-0.6665 34,-0.5 z"
         id="path5" />
    </g>
    <g
       id="g7"
       style="clip-rule:evenodd;fill-rule:evenodd;image-rendering:optimizeQuality;shape-rendering:geometricPrecision;text-rendering:geometricPrecision"
       transform="matrix(0.28903713,0,0,0.28903713,-306.14656,-3.4539552)">
      <path
         style="opacity:1"
         fill="#f9f3bb"
         d="m 1200.5,44.5 c 13.84,-0.329 27.51,0.0043 41,1 -11.34,-0.1665 -22.67,1e-4 -34,0.5 -7.89,0.6879 -15.55,2.3545 -23,5 -0.88,0.7083 -1.55,1.5416 -2,2.5 -2.21,1.9547 -3.87,4.288 -5,7 0.09,-3.6823 1.42,-6.849 4,-9.5 6.36,-2.5092 12.7,-4.6758 19,-6.5 z"
         id="path7" />
    </g>
    <g
       id="g8"
       style="clip-rule:evenodd;fill-rule:evenodd;image-rendering:optimizeQuality;shape-rendering:geometricPrecision;text-rendering:geometricPrecision"
       transform="matrix(0.28903713,0,0,0.28903713,-306.14656,-3.4539552)">
      <path
         style="opacity:1"
         fill="#faf8bb"
         d="m 1209.5,50.5 c 0.33,0 0.67,0 1,0 9.34,-0.1665 18.67,2e-4 28,0.5 -9.68,1.1413 -19.35,1.9746 -29,2.5 -0.67,0 -1.33,0 -2,0 -0.11,-0.6174 -0.44,-1.1174 -1,-1.5 1.24,-0.2321 2.24,-0.7321 3,-1.5 z"
         id="path8" />
    </g>
    <g
       id="g14"
       style="clip-rule:evenodd;fill-rule:evenodd;image-rendering:optimizeQuality;shape-rendering:geometricPrecision;text-rendering:geometricPrecision"
       transform="matrix(0.28903713,0,0,0.28903713,-306.14656,-3.4539552)">
      <path
         style="opacity:1"
         fill="#e6c54d"
         d="m 1207.5,53.5 c 0.67,0 1.33,0 2,0 12.34,-0.1665 24.67,1e-4 37,0.5 5.21,1.7587 10.54,3.092 16,4 2.39,1.4626 3.39,3.6292 3,6.5 -0.68,3.3386 -2.01,6.3386 -4,9 -5.04,0.0874 -10.04,-0.246 -15,-1 -0.76,-0.7679 -1.76,-1.2679 -3,-1.5 -18.12,-1.0726 -36.12,-0.2393 -54,2.5 -0.43,-1.2095 -1.1,-2.2095 -2,-3 -1.76,-3.4767 -2.26,-7.1434 -1.5,-11 0.82,-1.3228 1.98,-1.9894 3.5,-2 5.75,-1.9517 11.75,-3.285 18,-4 z"
         id="path14" />
    </g>
    <g
       id="g15"
       style="clip-rule:evenodd;fill-rule:evenodd;image-rendering:optimizeQuality;shape-rendering:geometricPrecision;text-rendering:geometricPrecision"
       transform="matrix(0.28903713,0,0,0.28903713,-306.14656,-3.4539552)">
      <path
         style="opacity:1"
         fill="#f2c72c"
         d="m 1189.5,57.5 c 16.96,-1.6987 33.96,-2.1987 51,-1.5 6.77,0.3582 13.43,1.3582 20,3 4.63,6.2543 3.13,10.421 -4.5,12.5 -20.33,-3.9491 -40.66,-3.9491 -61,0 -4.37,0.3016 -7.03,-1.6984 -8,-6 -0.98,-3.2747 -0.15,-5.9414 2.5,-8 z"
         id="path15" />
    </g>
    <g
       id="g20"
       style="clip-rule:evenodd;fill-rule:evenodd;image-rendering:optimizeQuality;shape-rendering:geometricPrecision;text-rendering:geometricPrecision"
       transform="matrix(0.28903713,0,0,0.28903713,-306.14656,-3.4539552)">
      <path
         style="opacity:1"
         fill="#f9eea0"
         d="m 1209.5,50.5 c -0.76,0.7679 -1.76,1.2679 -3,1.5 0.56,0.3826 0.89,0.8826 1,1.5 -6.25,0.715 -12.25,2.0483 -18,4 -1.52,0.0106 -2.68,0.6772 -3.5,2 -0.76,3.8566 -0.26,7.5233 1.5,11 -1,0.0858 -1.83,-0.2476 -2.5,-1 -0.49,1.6341 -0.66,3.3008 -0.5,5 -0.67,-1.3333 -1.33,-2.6667 -2,-4 -3.01,-10.2838 0.66,-15.9505 11,-17 5.24,-1.4296 10.58,-2.4296 16,-3 z"
         id="path20" />
    </g>
    <g
       id="g23"
       style="clip-rule:evenodd;fill-rule:evenodd;image-rendering:optimizeQuality;shape-rendering:geometricPrecision;text-rendering:geometricPrecision"
       transform="matrix(0.28903713,0,0,0.28903713,-306.14656,-3.4539552)">
      <path
         style="opacity:1"
         fill="#f9f3c3"
         d="m 1242.5,45.5 c 8.13,0.1254 16.13,1.1254 24,3 1.54,0.2031 2.88,0.8698 4,2 0.65,1.6492 1.65,2.9825 3,4 0.81,1.9233 1.31,3.9233 1.5,6 2.17,1.2315 4.33,2.2315 6.5,3 1.01,1.8386 2.51,3.1719 4.5,4 2.07,4.0472 1.91,7.8805 -0.5,11.5 -2.49,0.9411 -4.49,0.4411 -6,-1.5 5.57,0.7468 7.4,-1.5866 5.5,-7 -2.31,-4.056 -5.81,-6.3893 -10.5,-7 -1.5,-6.6911 -5.5,-11.5244 -12,-14.5 -6.79,-1.2092 -13.45,-2.3758 -20,-3.5 z"
         id="path23" />
    </g>
    <g
       id="g27"
       style="clip-rule:evenodd;fill-rule:evenodd;image-rendering:optimizeQuality;shape-rendering:geometricPrecision;text-rendering:geometricPrecision"
       transform="matrix(0.28903713,0,0,0.28903713,-306.14656,-3.4539552)">
      <path
         style="opacity:1"
         fill="#f9eba4"
         d="m 1246.5,72.5 c -13.51,-0.3289 -26.84,0.0044 -40,1 -1,0 -2,0 -3,0 -4.83,0.9987 -9.49,0.9987 -14,0 17.88,-2.7393 35.88,-3.5726 54,-2.5 1.24,0.2321 2.24,0.7321 3,1.5 z"
         id="path27" />
    </g>
    <g
       id="g28"
       style="clip-rule:evenodd;fill-rule:evenodd;image-rendering:optimizeQuality;shape-rendering:geometricPrecision;text-rendering:geometricPrecision"
       transform="matrix(0.28903713,0,0,0.28903713,-306.14656,-3.4539552)">
      <path
         style="opacity:1"
         fill="#faf8ce"
         d="m 1206.5,73.5 c 13.16,-0.9956 26.49,-1.3289 40,-1 4.96,0.754 9.96,1.0874 15,1 1.6,-0.1882 2.94,0.3118 4,1.5 -1.17,2.0065 -1.84,4.1732 -2,6.5 -0.67,0.3333 -1.33,0.6667 -2,1 0.46,-2.0504 1.13,-4.0504 2,-6 -5.63,-1.0881 -11.29,-1.9214 -17,-2.5 -13.33,-0.4999 -26.66,-0.6666 -40,-0.5 z"
         id="path28" />
    </g>
    <g
       id="g31"
       style="clip-rule:evenodd;fill-rule:evenodd;image-rendering:optimizeQuality;shape-rendering:geometricPrecision;text-rendering:geometricPrecision"
       transform="matrix(0.28903713,0,0,0.28903713,-306.14656,-3.4539552)">
      <path
         style="opacity:1"
         fill="#f9eb99"
         d="m 1178.5,294.5 c -0.83,-72.166 -1.33,-144.499 -1.5,-217 -3.26,-0.2245 -6.42,-0.5579 -9.5,-1 3.56,-0.9658 7.06,-0.9658 10.5,0 0.5,72.666 0.67,145.333 0.5,218 z"
         id="path31" />
    </g>
    <g
       id="g49"
       style="clip-rule:evenodd;fill-rule:evenodd;image-rendering:optimizeQuality;shape-rendering:geometricPrecision;text-rendering:geometricPrecision"
       transform="matrix(0.28903713,0,0,0.28903713,-306.14656,-3.4539552)">
      <path
         style="opacity:1"
         fill="#f9f6c2"
         d="m 1177.5,60.5 c 0.22,1.175 -0.11,2.175 -1,3 -3.37,0.6789 -6.04,2.3455 -8,5 -1.53,0.9919 -2.19,2.4919 -2,4.5 0.01,1.3847 0.35,2.5514 1,3.5 3.08,0.4421 6.24,0.7755 9.5,1 0.17,72.501 0.67,144.834 1.5,217 0.88,2.762 2.05,5.429 3.5,8 0.67,0.752 1.5,1.086 2.5,1 0.42,0.722 1.08,1.222 2,1.5 26.33,0.667 52.67,0.667 79,0 2.14,-0.985 4.14,-2.152 6,-3.5 0,0.667 0,1.333 0,2 -1.57,1.706 -3.57,2.873 -6,3.5 -27,0.667 -54,0.667 -81,0 -2.88,-1.884 -5.05,-4.384 -6.5,-7.5 -1.32,-73.276 -1.99,-146.61 -2,-220 -3.41,-0.7931 -6.91,-1.2931 -10.5,-1.5 -2.34,-3.2309 -2.67,-6.7309 -1,-10.5 4.45,-2.0613 8.79,-4.3946 13,-7 z"
         id="path49" />
    </g>
    <g
       id="g55"
       style="clip-rule:evenodd;fill-rule:evenodd;image-rendering:optimizeQuality;shape-rendering:geometricPrecision;text-rendering:geometricPrecision"
       transform="matrix(0.28903713,0,0,0.28903713,-306.14656,-3.4539552)">
      <path
         style="opacity:1"
         fill="#f8e28e"
         d="m 1267.5,74.5 c 0,41.963 -0.33,83.963 -1,126 -0.2,-15.233 -0.2,-30.399 0,-45.5 -0.46,-3.085 -1.12,-6.085 -2,-9 0.3,-5.137 0.63,-10.303 1,-15.5 -0.31,-0.808 -0.81,-1.475 -1.5,-2 -0.77,-15.691 -0.44,-31.3573 1,-47 0.7,-2.5037 1.53,-4.837 2.5,-7 z"
         id="path55" />
    </g>
    <g
       id="g79"
       style="clip-rule:evenodd;fill-rule:evenodd;image-rendering:optimizeQuality;shape-rendering:geometricPrecision;text-rendering:geometricPrecision"
       transform="matrix(0.28903713,0,0,0.28903713,-306.14656,-3.4539552)">
      <path
         style="opacity:1"
         fill="#e8c442"
         d="m 1193.5,53.5 c -10.34,1.0495 -14.01,6.7162 -11,17 0,3 0,6 0,9 0.33,68.67 0,137.337 -1,206 -0.59,-0.209 -1.09,-0.543 -1.5,-1 -0.5,-69.999 -0.67,-139.999 -0.5,-210 -4,0 -8,0 -12,0 0.02,-2.0648 0.35,-4.0648 1,-6 1.96,-2.6545 4.63,-4.3211 8,-5 0.89,-0.825 1.22,-1.825 1,-3 1.13,-2.712 2.79,-5.0453 5,-7 6.61,-3.3076 13.61,-4.8076 21,-4.5 -3.8,0.7386 -7.13,2.2386 -10,4.5 z"
         id="path79" />
    </g>
    <g
       id="g113"
       style="clip-rule:evenodd;fill-rule:evenodd;image-rendering:optimizeQuality;shape-rendering:geometricPrecision;text-rendering:geometricPrecision"
       transform="matrix(0.28903713,0,0,0.28903713,-306.14656,-3.4539552)">
      <path
         style="opacity:1"
         fill="#eacb5d"
         d="m 1168.5,68.5 c -0.65,1.9352 -0.98,3.9352 -1,6 4,0 8,0 12,0 -0.17,70.001 0,140.001 0.5,210 0.41,0.457 0.91,0.791 1.5,1 1,-68.663 1.33,-137.33 1,-206 0.83,72.832 1.33,145.832 1.5,219 1.49,1.66 3.32,2.66 5.5,3 14.59,0.533 29.25,1.366 44,2.5 -16.36,0.773 -32.69,0.607 -49,-0.5 -1,0.086 -1.83,-0.248 -2.5,-1 -1.45,-2.571 -2.62,-5.238 -3.5,-8 0.17,-72.667 0,-145.334 -0.5,-218 -3.44,-0.9658 -6.94,-0.9658 -10.5,0 -0.65,-0.9486 -0.99,-2.1153 -1,-3.5 -0.19,-2.0081 0.47,-3.5081 2,-4.5 z"
         id="path113" />
    </g>
    <g
       id="g117"
       style="clip-rule:evenodd;fill-rule:evenodd;image-rendering:optimizeQuality;shape-rendering:geometricPrecision;text-rendering:geometricPrecision"
       transform="matrix(0.28903713,0,0,0.28903713,-306.14656,-3.4539552)">
      <path
         style="opacity:1"
         fill="#eac94c"
         d="m 1274.5,63.5 c 4.69,0.6107 8.19,2.944 10.5,7 1.9,5.4134 0.07,7.7468 -5.5,7 -0.47,-1.4063 -1.47,-2.073 -3,-2 -1.07,-0.9345 -2.4,-1.2678 -4,-1 0.17,69.667 0,139.334 -0.5,209 -0.28,5.716 -0.95,11.383 -2,17 -4.02,2.893 -8.52,3.726 -13.5,2.5 1.56,-0.21 2.89,-0.71 4,-1.5 3.12,-0.142 5.62,-1.476 7.5,-4 0.17,-76.168 0.67,-152.168 1.5,-228 0.67,-2.1979 1.33,-4.5312 2,-7 0.92,0.6272 1.92,0.9606 3,1 z"
         id="path117" />
    </g>
    <g
       id="g123"
       style="clip-rule:evenodd;fill-rule:evenodd;image-rendering:optimizeQuality;shape-rendering:geometricPrecision;text-rendering:geometricPrecision"
       transform="matrix(0.28903713,0,0,0.28903713,-306.14656,-3.4539552)">
      <path
         style="opacity:1"
         fill="#faf9e8"
         d="m 1164.5,67.5 c -1.67,3.7691 -1.34,7.2691 1,10.5 3.59,0.2069 7.09,0.7069 10.5,1.5 0.01,73.39 0.68,146.724 2,220 1.45,3.116 3.62,5.616 6.5,7.5 27,0.667 54,0.667 81,0 2.43,-0.627 4.43,-1.794 6,-3.5 -0.52,2.208 -1.86,3.708 -4,4.5 -21.23,0.708 -42.4,1.542 -63.5,2.5 -5.75,-0.81 -11.58,-1.31 -17.5,-1.5 -5.83,-1.167 -9.33,-4.667 -10.5,-10.5 -0.18,-24.709 -0.68,-49.376 -1.5,-74 0.67,-47.426 0.83,-95.093 0.5,-143 -3.41,-0.7931 -6.91,-1.2931 -10.5,-1.5 -5.25,-4.2107 -5.25,-8.3773 0,-12.5 z"
         id="path123" />
    </g>
    <g
       id="g125"
       style="clip-rule:evenodd;fill-rule:evenodd;image-rendering:optimizeQuality;shape-rendering:geometricPrecision;text-rendering:geometricPrecision"
       transform="matrix(0.28903713,0,0,0.28903713,-306.14656,-3.4539552)">
      <path
         style="opacity:1"
         fill="#f9e28a"
         d="m 1182.5,70.5 c 0.67,1.3333 1.33,2.6667 2,4 0.02,17.8314 0.02,35.665 0,53.5 0.08,6.608 0.75,13.108 2,19.5 -1.66,9.294 -1.33,18.461 1,27.5 -2.07,2.513 -2.4,5.179 -1,8 -0.67,12 -1.33,24 -2,36 0.67,7.333 1.33,14.667 2,22 -1.33,9.667 -1.33,19.333 0,29 -0.67,0.333 -1.33,0.667 -2,1 0.61,7.985 0.78,16.152 0.5,24.5 3.41,3.028 7.41,4.695 12,5 15.46,-1.545 30.96,-2.545 46.5,-3 6.81,1.612 13.48,1.278 20,-1 0.02,-6.612 0.02,-13.445 0,-20.5 0.33,-1.5 0.67,-3 1,-4.5 1.34,2.821 2.01,2.654 2,-0.5 -0.06,-12.169 -0.22,-24.669 -0.5,-37.5 -0.71,-1.581 -1.54,-3.081 -2.5,-4.5 0.85,-9.185 1.85,-18.351 3,-27.5 1.33,31.539 1.33,63.206 0,95 -1.33,1 -2.67,2 -4,3 -9.67,1.227 -19.33,1.227 -29,0 -9.16,0.553 -18.16,1.22 -27,2 -5.67,0 -11.33,0 -17,0 -2.18,-0.34 -4.01,-1.34 -5.5,-3 -0.17,-73.168 -0.67,-146.168 -1.5,-219 0,-3 0,-6 0,-9 z"
         id="path125" />
    </g>
    <g
       id="g150"
       style="clip-rule:evenodd;fill-rule:evenodd;image-rendering:optimizeQuality;shape-rendering:geometricPrecision;text-rendering:geometricPrecision"
       transform="matrix(0.28903713,0,0,0.28903713,-306.14656,-3.4539552)">
      <path
         style="opacity:1"
         fill="#f9f3ce"
         d="m 1187.5,70.5 c 0.9,0.7905 1.57,1.7905 2,3 4.51,0.9987 9.17,0.9987 14,0 -4.38,1.7105 -9.05,2.3772 -14,2 -0.38,2.198 0.29,3.8646 2,5 0,71 0,142 0,213 -0.67,-70 -1.33,-140 -2,-210 -0.93,-3.5516 -2.6,-6.5516 -5,-9 -0.16,-1.6992 0.01,-3.3659 0.5,-5 0.67,0.7524 1.5,1.0858 2.5,1 z"
         id="path150" />
    </g>
    <g
       id="g181"
       style="clip-rule:evenodd;fill-rule:evenodd;image-rendering:optimizeQuality;shape-rendering:geometricPrecision;text-rendering:geometricPrecision"
       transform="matrix(0.28903713,0,0,0.28903713,-306.14656,-3.4539552)">
      <path
         style="opacity:1"
         fill="#faf0b2"
         d="m 1276.5,75.5 c 1.53,-0.073 2.53,0.5937 3,2 -1.64,-0.2135 -3.14,0.1198 -4.5,1 -0.33,73.667 -0.67,147.333 -1,221 -0.71,0.881 -1.54,1.547 -2.5,2 0.39,-1.679 0.89,-3.346 1.5,-5 0.33,-73.333 0.67,-146.667 1,-220 0.67,-0.7524 1.5,-1.0858 2.5,-1 z"
         id="path181" />
    </g>
    <g
       id="g191"
       style="clip-rule:evenodd;fill-rule:evenodd;image-rendering:optimizeQuality;shape-rendering:geometricPrecision;text-rendering:geometricPrecision"
       transform="matrix(0.28903713,0,0,0.28903713,-306.14656,-3.4539552)">
      <path
         style="opacity:1"
         fill="#f5e299"
         d="m 1210.5,50.5 c 18.58,-2.3873 36.92,-0.7206 55,5 0.19,1.6958 1.02,3.0291 2.5,4 0.39,5.0107 0.22,10.0107 -0.5,15 -0.97,2.163 -1.8,4.4963 -2.5,7 -1.44,15.6427 -1.77,31.309 -1,47 0.69,0.525 1.19,1.192 1.5,2 -0.37,5.197 -0.7,10.363 -1,15.5 0.88,2.915 1.54,5.915 2,9 -0.2,15.101 -0.2,30.267 0,45.5 0,0.333 0,0.667 0,1 -1.15,9.149 -2.15,18.315 -3,27.5 0.96,1.419 1.79,2.919 2.5,4.5 0.28,12.831 0.44,25.331 0.5,37.5 0.01,3.154 -0.66,3.321 -2,0.5 -0.33,1.5 -0.67,3 -1,4.5 0.02,7.055 0.02,13.888 0,20.5 -6.52,2.278 -13.19,2.612 -20,1 -15.54,0.455 -31.04,1.455 -46.5,3 -4.59,-0.305 -8.59,-1.972 -12,-5 0.28,-8.348 0.11,-16.515 -0.5,-24.5 0.67,-0.333 1.33,-0.667 2,-1 -1.33,-9.667 -1.33,-19.333 0,-29 -0.67,-7.333 -1.33,-14.667 -2,-22 0.67,-12 1.33,-24 2,-36 -1.4,-2.821 -1.07,-5.487 1,-8 -2.33,-9.039 -2.66,-18.206 -1,-27.5 -1.25,-6.392 -1.92,-12.892 -2,-19.5 0.02,-17.835 0.02,-35.6686 0,-53.5 2.4,2.4484 4.07,5.4484 5,9 0.15,70.362 -0.02,140.695 -0.5,211 22.67,1.719 45.34,2.719 68,3 1.9,-0.115 3.56,-0.782 5,-2 0.18,-9.577 0.68,-19.077 1.5,-28.5 -1.33,-61.804 -1.33,-123.637 0,-185.5 0.16,-2.3268 0.83,-4.4935 2,-6.5 -1.06,-1.1882 -2.4,-1.6882 -4,-1.5 1.99,-2.6614 3.32,-5.6614 4,-9 0.39,-2.8708 -0.61,-5.0374 -3,-6.5 -5.46,-0.908 -10.79,-2.2413 -16,-4 -12.33,-0.4999 -24.66,-0.6665 -37,-0.5 9.65,-0.5254 19.32,-1.3587 29,-2.5 -9.33,-0.4998 -18.66,-0.6665 -28,-0.5 z"
         id="path191" />
    </g>
    <g
       id="g200"
       style="clip-rule:evenodd;fill-rule:evenodd;image-rendering:optimizeQuality;shape-rendering:geometricPrecision;text-rendering:geometricPrecision"
       transform="matrix(0.28903713,0,0,0.28903713,-306.14656,-3.4539552)">
      <path
         style="opacity:1"
         fill="#faf9e4"
         d="m 1281.5,63.5 c 6.9,2.12 9.4,6.7866 7.5,14 -3.63,3.3059 -7.79,3.9726 -12.5,2 0.41,72.036 0.74,144.369 1,217 -1.3,2.967 -3.3,5.301 -6,7 0,-0.667 0,-1.333 0,-2 0.96,-0.453 1.79,-1.119 2.5,-2 0.33,-73.667 0.67,-147.333 1,-221 1.36,-0.8802 2.86,-1.2135 4.5,-1 1.51,1.9411 3.51,2.4411 6,1.5 2.41,-3.6195 2.57,-7.4528 0.5,-11.5 -1.99,-0.8281 -3.49,-2.1614 -4.5,-4 z"
         id="path200" />
    </g>
    <g
       id="g211"
       style="clip-rule:evenodd;fill-rule:evenodd;image-rendering:optimizeQuality;shape-rendering:geometricPrecision;text-rendering:geometricPrecision"
       transform="matrix(0.28903713,0,0,0.28903713,-306.14656,-3.4539552)">
      <path
         style="opacity:1"
         fill="#e6cc67"
         d="m 1276.5,75.5 c -1,-0.0858 -1.83,0.2476 -2.5,1 -0.33,73.333 -0.67,146.667 -1,220 -0.61,1.654 -1.11,3.321 -1.5,5 -1.86,1.348 -3.86,2.515 -6,3.5 -26.33,0.667 -52.67,0.667 -79,0 -0.92,-0.278 -1.58,-0.778 -2,-1.5 16.31,1.107 32.64,1.273 49,0.5 -14.75,-1.134 -29.41,-1.967 -44,-2.5 5.67,0 11.33,0 17,0 18,0 36,0 54,0 -1.11,0.79 -2.44,1.29 -4,1.5 4.98,1.226 9.48,0.393 13.5,-2.5 1.05,-5.617 1.72,-11.284 2,-17 0.5,-69.666 0.67,-139.333 0.5,-209 1.6,-0.2678 2.93,0.0655 4,1 z"
         id="path211" />
    </g>
    <g
       id="g242"
       style="clip-rule:evenodd;fill-rule:evenodd;image-rendering:optimizeQuality;shape-rendering:geometricPrecision;text-rendering:geometricPrecision"
       transform="matrix(0.28903713,0,0,0.28903713,-306.14656,-3.4539552)">
      <path
         style="opacity:1"
         fill="#efe3ad"
         d="m 1263.5,81.5 c -1.33,61.863 -1.33,123.696 0,185.5 -0.82,9.423 -1.32,18.923 -1.5,28.5 -1.44,1.218 -3.1,1.885 -5,2 -22.66,-0.281 -45.33,-1.281 -68,-3 0.48,-70.305 0.65,-140.638 0.5,-211 0.67,70 1.33,140 2,210 0.11,0.617 0.44,1.117 1,1.5 22.33,0.667 44.67,0.667 67,0 0.5,-0.5 1,-1 1.5,-1.5 0.5,-69.999 0.67,-139.999 0.5,-210 0,-0.3333 0,-0.6667 0,-1 0.67,-0.3333 1.33,-0.6667 2,-1 z"
         id="path242" />
    </g>
    <g
       id="g251"
       style="clip-rule:evenodd;fill-rule:evenodd;image-rendering:optimizeQuality;shape-rendering:geometricPrecision;text-rendering:geometricPrecision"
       transform="matrix(0.28903713,0,0,0.28903713,-306.14656,-3.4539552)">
      <path
         style="opacity:1"
         fill="#faf9e9"
         d="m 1203.5,73.5 c 1,0 2,0 3,0 13.34,-0.1666 26.67,1e-4 40,0.5 5.71,0.5786 11.37,1.4119 17,2.5 -0.87,1.9496 -1.54,3.9496 -2,6 0,0.3333 0,0.6667 0,1 -0.83,69.165 -1.33,138.499 -1.5,208 -0.37,0.916 -0.87,1.75 -1.5,2.5 -22.36,0.801 -44.7,0.635 -67,-0.5 0,-71 0,-142 0,-213 -1.71,-1.1354 -2.38,-2.802 -2,-5 4.95,0.3772 9.62,-0.2895 14,-2 z"
         id="path251" />
    </g>
    <g
       id="g252"
       style="clip-rule:evenodd;fill-rule:evenodd;image-rendering:optimizeQuality;shape-rendering:geometricPrecision;text-rendering:geometricPrecision"
       transform="matrix(0.28903713,0,0,0.28903713,-306.14656,-3.4539552)">
      <path
         style="opacity:1"
         fill="#faf9f9"
         d="m 1191.5,80.5 c 0,-1.3333 0,-2.6667 0,-4 15.42,-1.6828 30.59,-2.3494 45.5,-2 3.44,0.3492 6.77,1.0158 10,2 1.34,-0.7135 2.68,-0.3802 4,1 9.22,-2.1327 11.39,0.7006 6.5,8.5 0.44,61.54 0.78,122.873 1,184 0.03,6.879 -0.47,13.712 -1.5,20.5 -0.67,0.667 -1.33,1.333 -2,2 -19.18,-0.995 -38.85,-0.995 -59,0 -1.02,-0.854 -1.86,-1.854 -2.5,-3 -1.28,-47.373 -1.28,-94.873 0,-142.5 -0.66,-22.264 -1.33,-44.431 -2,-66.5 z"
         id="path252" />
    </g>
    <g
       id="g253"
       style="clip-rule:evenodd;fill-rule:evenodd;image-rendering:optimizeQuality;shape-rendering:geometricPrecision;text-rendering:geometricPrecision"
       transform="matrix(0.28903713,0,0,0.28903713,-306.14656,-3.4539552)">
      <path
         style="opacity:1"
         fill="#e1c55a"
         d="m 1237.5,215.5 c 1.3,1.382 2.13,3.048 2.5,5 0.67,11 0.67,22 0,33 -0.66,1.484 -1.5,2.817 -2.5,4 0,0.667 -0.33,1 -1,1 -7.34,0.166 -14.67,0 -22,-0.5 -1.21,-1.039 -2.21,-2.206 -3,-3.5 -0.17,-11.671 0,-23.338 0.5,-35 1.04,-0.744 1.54,-1.744 1.5,-3 0.79,-0.283 1.46,-0.783 2,-1.5 7.37,-0.726 14.7,-0.559 22,0.5 z"
         id="path253" />
    </g>
    <g
       id="g254"
       style="clip-rule:evenodd;fill-rule:evenodd;image-rendering:optimizeQuality;shape-rendering:geometricPrecision;text-rendering:geometricPrecision"
       transform="matrix(0.28903713,0,0,0.28903713,-306.14656,-3.4539552)">
      <path
         style="opacity:1"
         fill="#f7e59c"
         d="m 1237.5,215.5 c 1.53,-0.073 2.53,0.594 3,2 0.96,12.283 1.29,24.617 1,37 -0.74,1.729 -2.07,2.729 -4,3 1,-1.183 1.84,-2.516 2.5,-4 0.67,-11 0.67,-22 0,-33 -0.37,-1.952 -1.2,-3.618 -2.5,-5 z"
         id="path254" />
    </g>
    <g
       id="g255"
       style="clip-rule:evenodd;fill-rule:evenodd;image-rendering:optimizeQuality;shape-rendering:geometricPrecision;text-rendering:geometricPrecision"
       transform="matrix(0.28903713,0,0,0.28903713,-306.14656,-3.4539552)">
      <path
         style="opacity:1"
         fill="#eedd8c"
         d="m 1213.5,216.5 c 0.04,1.256 -0.46,2.256 -1.5,3 -0.5,11.662 -0.67,23.329 -0.5,35 -1.32,-12.173 -1.32,-24.506 0,-37 0.68,-0.363 1.35,-0.696 2,-1 z"
         id="path255" />
    </g>
    <g
       id="g256"
       style="clip-rule:evenodd;fill-rule:evenodd;image-rendering:optimizeQuality;shape-rendering:geometricPrecision;text-rendering:geometricPrecision"
       transform="matrix(0.28903713,0,0,0.28903713,-306.14656,-3.4539552)">
      <path
         style="opacity:1"
         fill="#faf8cc"
         d="m 1240.5,217.5 c 0.62,0.111 1.12,0.444 1.5,1 0.83,12.174 0.66,24.174 -0.5,36 0.29,-12.383 -0.04,-24.717 -1,-37 z"
         id="path256" />
    </g>
    <g
       id="g257"
       style="clip-rule:evenodd;fill-rule:evenodd;image-rendering:optimizeQuality;shape-rendering:geometricPrecision;text-rendering:geometricPrecision"
       transform="matrix(0.28903713,0,0,0.28903713,-306.14656,-3.4539552)">
      <path
         style="opacity:1"
         fill="#faf9e8"
         d="m 1237.5,213.5 c 3.49,0.897 5.66,3.23 6.5,7 0.75,12.362 0.42,24.696 -1,37 -1.41,1.287 -2.91,2.454 -4.5,3.5 -4.17,0.167 -8.33,0.333 -12.5,0.5 -4.56,-0.009 -8.72,-0.675 -12.5,-2 3.92,0.635 7.92,0.968 12,1 4.07,-0.011 7.73,-0.678 11,-2 0.67,0 1,-0.333 1,-1 1.93,-0.271 3.26,-1.271 4,-3 1.16,-11.826 1.33,-23.826 0.5,-36 -0.38,-0.556 -0.88,-0.889 -1.5,-1 -0.47,-1.406 -1.47,-2.073 -3,-2 0,-0.667 0,-1.333 0,-2 z"
         id="path257" />
    </g>
    <g
       id="g258"
       style="clip-rule:evenodd;fill-rule:evenodd;image-rendering:optimizeQuality;shape-rendering:geometricPrecision;text-rendering:geometricPrecision"
       transform="matrix(0.28903713,0,0,0.28903713,-306.14656,-3.4539552)">
      <path
         style="opacity:1"
         fill="#f9e07c"
         d="m 1215.5,217.5 c 6.67,-0.166 13.34,0 20,0.5 0.5,0.5 1,1 1.5,1.5 0.67,11.333 0.67,22.667 0,34 -0.69,0.525 -1.19,1.192 -1.5,2 -6.89,1.311 -13.72,1.311 -20.5,0 -1.13,-6.063 -1.63,-12.229 -1.5,-18.5 0.17,-5.5 0.33,-11 0.5,-16.5 0.51,-1.027 1.01,-2.027 1.5,-3 z"
         id="path258" />
    </g>
    <g
       id="g259"
       style="clip-rule:evenodd;fill-rule:evenodd;image-rendering:optimizeQuality;shape-rendering:geometricPrecision;text-rendering:geometricPrecision"
       transform="matrix(0.28903713,0,0,0.28903713,-306.14656,-3.4539552)">
      <path
         style="opacity:1"
         fill="#f9e494"
         d="m 1216.5,218.5 c 5.68,-0.166 11.34,0.001 17,0.5 0.92,0.374 1.75,0.874 2.5,1.5 0.67,9.667 0.67,19.333 0,29 -0.27,1.829 -1.11,3.329 -2.5,4.5 -4.48,0.318 -8.98,0.484 -13.5,0.5 -1.71,0.061 -3.04,-0.606 -4,-2 -0.81,-11.409 -0.64,-22.743 0.5,-34 z"
         id="path259" />
    </g>
    <g
       id="g260"
       style="clip-rule:evenodd;fill-rule:evenodd;image-rendering:optimizeQuality;shape-rendering:geometricPrecision;text-rendering:geometricPrecision"
       transform="matrix(0.28903713,0,0,0.28903713,-306.14656,-3.4539552)">
      <path
         style="opacity:1"
         fill="#f9f5cc"
         d="m 1237.5,213.5 c 0,0.667 0,1.333 0,2 -7.3,-1.059 -14.63,-1.226 -22,-0.5 -0.54,0.717 -1.21,1.217 -2,1.5 -0.65,0.304 -1.32,0.637 -2,1 -1.32,12.494 -1.32,24.827 0,37 0.79,1.294 1.79,2.461 3,3.5 7.33,0.5 14.66,0.666 22,0.5 -3.27,1.322 -6.93,1.989 -11,2 -4.08,-0.032 -8.08,-0.365 -12,-1 -1.64,0.02 -2.98,-0.647 -4,-2 -1.17,-13.321 -1.33,-26.654 -0.5,-40 1.19,-1.063 1.69,-2.397 1.5,-4 8.98,-1.179 17.98,-1.179 27,0 z"
         id="path260" />
    </g>
    <g
       id="g261"
       style="clip-rule:evenodd;fill-rule:evenodd;image-rendering:optimizeQuality;shape-rendering:geometricPrecision;text-rendering:geometricPrecision"
       transform="matrix(0.28903713,0,0,0.28903713,-306.14656,-3.4539552)">
      <path
         style="opacity:1"
         fill="#faf5c8"
         d="m 1238.5,104.5 c -7.97,-1.27 -15.97,-1.27 -24,0 -0.76,1.219 -1.76,2.219 -3,3 -0.98,11.949 -1.31,23.949 -1,36 -0.77,-0.763 -1.27,-1.763 -1.5,-3 -0.5,-10.661 -0.67,-21.328 -0.5,-32 0.9,-0.79 1.57,-1.79 2,-3 1.5,0.085 2.5,-0.581 3,-2 7.98,-1.165 15.98,-1.332 24,-0.5 0.56,0.383 0.89,0.883 1,1.5 z"
         id="path261" />
    </g>
    <g
       id="g262"
       style="clip-rule:evenodd;fill-rule:evenodd;image-rendering:optimizeQuality;shape-rendering:geometricPrecision;text-rendering:geometricPrecision"
       transform="matrix(0.28903713,0,0,0.28903713,-306.14656,-3.4539552)">
      <path
         style="opacity:1"
         fill="#f9e79e"
         d="m 1239.5,106.5 c 0.62,0.111 1.12,0.444 1.5,1 0.67,12 0.67,24 0,36 -0.71,0.881 -1.54,1.547 -2.5,2 -0.04,-1.256 0.46,-2.256 1.5,-3 0.79,-12.046 0.63,-24.046 -0.5,-36 z"
         id="path262" />
    </g>
    <g
       id="g263"
       style="clip-rule:evenodd;fill-rule:evenodd;image-rendering:optimizeQuality;shape-rendering:geometricPrecision;text-rendering:geometricPrecision"
       transform="matrix(0.28903713,0,0,0.28903713,-306.14656,-3.4539552)">
      <path
         style="opacity:1"
         fill="#faf9e9"
         d="m 1208.5,108.5 c -0.17,10.672 0,21.339 0.5,32 0.23,1.237 0.73,2.237 1.5,3 0.99,1.295 1.99,2.628 3,4 0.76,0.768 1.76,1.268 3,1.5 6.33,0.667 12.67,0.667 19,0 0.92,-0.278 1.58,-0.778 2,-1.5 0.33,-0.667 0.67,-1.333 1,-2 0.96,-0.453 1.79,-1.119 2.5,-2 0.67,-12 0.67,-24 0,-36 -0.38,-0.556 -0.88,-0.889 -1.5,-1 -0.33,-0.667 -0.67,-1.333 -1,-2 -0.11,-0.617 -0.44,-1.117 -1,-1.5 -8.02,-0.832 -16.02,-0.665 -24,0.5 -0.5,1.419 -1.5,2.085 -3,2 0.12,-2.082 1.12,-3.582 3,-4.5 6.25,-0.188 12.41,-0.688 18.5,-1.5 5.52,0.85 9.68,3.683 12.5,8.5 0.1,10.355 -0.07,20.855 -0.5,31.5 0.49,5.197 -1.68,8.697 -6.5,10.5 -8,0.667 -16,0.667 -24,0 -4.09,-3.299 -6.43,-7.633 -7,-13 1.23,-9.117 1.23,-17.95 0,-26.5 0.36,-1.022 1.02,-1.689 2,-2 z"
         id="path263" />
    </g>
    <g
       id="g264"
       style="clip-rule:evenodd;fill-rule:evenodd;image-rendering:optimizeQuality;shape-rendering:geometricPrecision;text-rendering:geometricPrecision"
       transform="matrix(0.28903713,0,0,0.28903713,-306.14656,-3.4539552)">
      <path
         style="opacity:1"
         fill="#faf6c4"
         d="m 1213.5,147.5 c 8,0 16,0 24,0 -0.42,0.722 -1.08,1.222 -2,1.5 -6.33,0.667 -12.67,0.667 -19,0 -1.24,-0.232 -2.24,-0.732 -3,-1.5 z"
         id="path264" />
    </g>
    <g
       id="g265"
       style="clip-rule:evenodd;fill-rule:evenodd;image-rendering:optimizeQuality;shape-rendering:geometricPrecision;text-rendering:geometricPrecision"
       transform="matrix(0.28903713,0,0,0.28903713,-306.14656,-3.4539552)">
      <path
         style="opacity:1"
         fill="#e9cd62"
         d="m 1238.5,104.5 c 0.33,0.667 0.67,1.333 1,2 1.13,11.954 1.29,23.954 0.5,36 -1.04,0.744 -1.54,1.744 -1.5,3 -0.33,0.667 -0.67,1.333 -1,2 -8,0 -16,0 -24,0 -1.01,-1.372 -2.01,-2.705 -3,-4 -0.31,-12.051 0.02,-24.051 1,-36 1.24,-0.781 2.24,-1.781 3,-3 8.03,-1.27 16.03,-1.27 24,0 z"
         id="path265" />
    </g>
    <g
       id="g266"
       style="clip-rule:evenodd;fill-rule:evenodd;image-rendering:optimizeQuality;shape-rendering:geometricPrecision;text-rendering:geometricPrecision"
       transform="matrix(0.28903713,0,0,0.28903713,-306.14656,-3.4539552)">
      <path
         style="opacity:1"
         fill="#fae381"
         d="m 1215.5,106.5 c 6.34,-0.166 12.68,0 19,0.5 0.92,0.374 1.75,0.874 2.5,1.5 0.67,11 0.67,22 0,33 -0.5,0.5 -1,1 -1.5,1.5 -6.69,0.831 -13.36,0.664 -20,-0.5 -1.33,-12.03 -1.33,-24.03 0,-36 z"
         id="path266" />
    </g>
    <g
       id="g267"
       style="clip-rule:evenodd;fill-rule:evenodd;image-rendering:optimizeQuality;shape-rendering:geometricPrecision;text-rendering:geometricPrecision"
       transform="matrix(0.28903713,0,0,0.28903713,-306.14656,-3.4539552)">
      <path
         style="opacity:1"
         fill="#f9e293"
         d="m 1217.5,107.5 c 5.01,-0.166 10.01,0.001 15,0.5 1.27,0.309 2.43,0.809 3.5,1.5 0.68,10.363 0.35,20.696 -1,31 -0.39,0.928 -1.05,1.595 -2,2 -5.37,0.184 -10.87,-0.149 -16.5,-1 -0.23,-5.078 0.1,-10.244 1,-15.5 -2.39,-1.309 -2.39,-2.309 0,-3 -1.78,-5.338 -1.78,-10.505 0,-15.5 z"
         id="path267" />
    </g>
    <g
       id="g268"
       style="clip-rule:evenodd;fill-rule:evenodd;image-rendering:optimizeQuality;shape-rendering:geometricPrecision;text-rendering:geometricPrecision"
       transform="matrix(0.28903713,0,0,0.28903713,-306.14656,-3.4539552)">
      <path
         style="opacity:1"
         fill="#f9f1ca"
         d="m 1261.5,83.5 c 0.17,70.001 0,140.001 -0.5,210 -0.5,0.5 -1,1 -1.5,1.5 -22.33,0.667 -44.67,0.667 -67,0 -0.56,-0.383 -0.89,-0.883 -1,-1.5 22.3,1.135 44.64,1.301 67,0.5 0.63,-0.75 1.13,-1.584 1.5,-2.5 0.17,-69.501 0.67,-138.835 1.5,-208 z"
         id="path268" />
    </g>
    <g
       id="g272"
       style="clip-rule:evenodd;fill-rule:evenodd;image-rendering:optimizeQuality;shape-rendering:geometricPrecision;text-rendering:geometricPrecision"
       transform="matrix(0.28903713,0,0,0.28903713,-306.14656,-3.4539552)">
      <path
         style="opacity:1"
         fill="#f9e27d"
         d="m 1265.5,55.5 c 1.29,0.7899 2.46,1.7899 3.5,3 0.5,3.6516 0.67,7.3183 0.5,11 -0.83,75.832 -1.33,151.832 -1.5,228 -1.88,2.524 -4.38,3.858 -7.5,4 -18,0 -36,0 -54,0 8.84,-0.78 17.84,-1.447 27,-2 9.67,1.227 19.33,1.227 29,0 1.33,-1 2.67,-2 4,-3 1.33,-31.794 1.33,-63.461 0,-95 0,-0.333 0,-0.667 0,-1 0.67,-42.037 1,-84.037 1,-126 0.72,-4.9893 0.89,-9.9893 0.5,-15 -1.48,-0.9709 -2.31,-2.3042 -2.5,-4 z"
         id="path272" />
    </g>
  </g>
</svg>
