<?xml version="1.0" encoding="UTF-8" standalone="no"?>
<!-- Created with Inkscape (http://www.inkscape.org/) -->

<svg
   width="96mm"
   height="96mm"
   viewBox="0 0 96 96"
   version="1.1"
   id="svg1"
   inkscape:version="1.4.2 (ebf0e940, 2025-05-08)"
   sodipodi:docname="taxi.svg"
   xmlns:inkscape="http://www.inkscape.org/namespaces/inkscape"
   xmlns:sodipodi="http://sodipodi.sourceforge.net/DTD/sodipodi-0.dtd"
   xmlns="http://www.w3.org/2000/svg"
   xmlns:svg="http://www.w3.org/2000/svg">
  <sodipodi:namedview
     id="namedview1"
     pagecolor="#ffffff"
     bordercolor="#000000"
     borderopacity="0.25"
     inkscape:showpageshadow="2"
     inkscape:pageopacity="0.0"
     inkscape:pagecheckerboard="0"
     inkscape:deskcolor="#d1d1d1"
     inkscape:document-units="mm"
     inkscape:zoom="0.80444024"
     inkscape:cx="397.17059"
     inkscape:cy="262.91574"
     inkscape:window-width="1920"
     inkscape:window-height="1052"
     inkscape:window-x="0"
     inkscape:window-y="28"
     inkscape:window-maximized="0"
     inkscape:current-layer="layer1" />
  <defs
     id="defs1" />
  <g
     inkscape:label="Layer 1"
     inkscape:groupmode="layer"
     id="layer1">
    <g
       id="g2"
       style="clip-rule:evenodd;fill-rule:evenodd;image-rendering:optimizeQuality;shape-rendering:geometricPrecision;text-rendering:geometricPrecision"
       transform="matrix(0.32438399,0,0,0.32438399,-127.23318,-7.0708926)">
      <path
         style="opacity:1"
         fill="#faf9d4"
         d="m 558.5,44.5 c 1.572,1.1873 3.239,2.1873 5,3 -1.333,0 -2.667,0 -4,0 -0.667,0 -1.333,0 -2,0 -3.886,-1.775 -8.22,-2.6084 -13,-2.5 -5.849,-0.8184 -11.515,-0.6517 -17,0.5 -1.667,0 -3.333,0 -5,0 -4.801,-0.1502 -9.467,0.5165 -14,2 1.194,-0.7719 2.194,-1.7719 3,-3 15.664,-1.315 31.33,-1.315 47,0 z"
         id="path2" />
    </g>
    <g
       id="g6"
       style="clip-rule:evenodd;fill-rule:evenodd;image-rendering:optimizeQuality;shape-rendering:geometricPrecision;text-rendering:geometricPrecision"
       transform="matrix(0.32438399,0,0,0.32438399,-127.23318,-7.0708926)">
      <path
         style="opacity:1"
         fill="#f8eeab"
         d="m 527.5,45.5 c 5.485,-1.1517 11.151,-1.3184 17,-0.5 4.78,-0.1084 9.114,0.725 13,2.5 -9.948,-1.3284 -19.948,-1.9951 -30,-2 z"
         id="path6" />
    </g>
    <g
       id="g8"
       style="clip-rule:evenodd;fill-rule:evenodd;image-rendering:optimizeQuality;shape-rendering:geometricPrecision;text-rendering:geometricPrecision"
       transform="matrix(0.32438399,0,0,0.32438399,-127.23318,-7.0708926)">
      <path
         style="opacity:1"
         fill="#f6eba7"
         d="m 522.5,45.5 c 0,0.3333 0,0.6667 0,1 -7.52,0.8398 -14.853,2.5065 -22,5 1.837,-2.8722 4.503,-4.2055 8,-4 4.533,-1.4835 9.199,-2.1502 14,-2 z"
         id="path8" />
    </g>
    <g
       id="g9"
       style="clip-rule:evenodd;fill-rule:evenodd;image-rendering:optimizeQuality;shape-rendering:geometricPrecision;text-rendering:geometricPrecision"
       transform="matrix(0.32438399,0,0,0.32438399,-127.23318,-7.0708926)">
      <path
         style="opacity:1"
         fill="#f7ee9e"
         d="m 525.5,49.5 c 8.007,-0.1664 16.007,3e-4 24,0.5 1.882,0.1981 3.548,0.6981 5,1.5 -1.175,-0.219 -2.175,0.1143 -3,1 0.627,0.9168 0.961,1.9168 1,3 0.934,1.0676 1.268,2.401 1,4 -11.671,0.1665 -23.338,-1e-4 -35,-0.5 -0.522,-0.5613 -0.855,-1.228 -1,-2 0.789,-1.6255 1.789,-3.1255 3,-4.5 -1.896,-0.9656 -3.896,-1.2989 -6,-1 0.418,-0.7216 1.084,-1.2216 2,-1.5 2.982,-0.498 5.982,-0.6646 9,-0.5 z"
         id="path9" />
    </g>
    <g
       id="g20"
       style="clip-rule:evenodd;fill-rule:evenodd;image-rendering:optimizeQuality;shape-rendering:geometricPrecision;text-rendering:geometricPrecision"
       transform="matrix(0.32438399,0,0,0.32438399,-127.23318,-7.0708926)">
      <path
         style="opacity:1"
         fill="#e2c95e"
         d="m 522.5,46.5 c 6.342,-0.1662 12.675,5e-4 19,0.5 0.333,0.3333 0.667,0.6667 1,1 -5.848,0.1728 -11.515,0.6728 -17,1.5 -3.018,-0.1646 -6.018,0.002 -9,0.5 -0.916,0.2784 -1.582,0.7784 -2,1.5 -0.333,0 -0.667,0 -1,0 -13.49,1.495 -21.49,8.8283 -24,22 0,1.6667 0,3.3333 0,5 -1.161,2.6022 -2.328,5.2689 -3.5,8 -0.673,-6.43 -0.173,-12.7634 1.5,-19 0.084,-2.8274 0.75,-5.494 2,-8 2.781,-3.8901 6.448,-6.5567 11,-8 7.147,-2.4935 14.48,-4.1602 22,-5 z"
         id="path20" />
    </g>
    <g
       id="g30"
       style="clip-rule:evenodd;fill-rule:evenodd;image-rendering:optimizeQuality;shape-rendering:geometricPrecision;text-rendering:geometricPrecision"
       transform="matrix(0.32438399,0,0,0.32438399,-127.23318,-7.0708926)">
      <path
         style="opacity:1"
         fill="#f5e381"
         d="m 513.5,51.5 c 0.164,2.6873 -0.003,5.354 -0.5,8 -0.816,1.3228 -1.983,1.9894 -3.5,2 1.581,-1.6417 2.247,-3.6417 2,-6 -10.783,-0.46 -17.116,4.54 -19,15 1.808,0.0086 3.475,-0.4914 5,-1.5 1.941,-2.4536 4.275,-4.287 7,-5.5 -1.667,2 -3.333,4 -5,6 -1,0.6667 -2,1.3333 -3,2 -2.711,-0.3151 -5.044,0.3516 -7,2 2.51,-13.1717 10.51,-20.505 24,-22 z"
         id="path30" />
    </g>
    <g
       id="g31"
       style="clip-rule:evenodd;fill-rule:evenodd;image-rendering:optimizeQuality;shape-rendering:geometricPrecision;text-rendering:geometricPrecision"
       transform="matrix(0.32438399,0,0,0.32438399,-127.23318,-7.0708926)">
      <path
         style="opacity:1"
         fill="#f9f8d9"
         d="m 513.5,51.5 c 0.333,0 0.667,0 1,0 2.104,-0.2989 4.104,0.0344 6,1 -1.211,1.3745 -2.211,2.8745 -3,4.5 0.145,0.772 0.478,1.4387 1,2 11.662,0.4999 23.329,0.6665 35,0.5 0.268,-1.599 -0.066,-2.9324 -1,-4 -0.039,-1.0832 -0.373,-2.0832 -1,-3 0.825,-0.8857 1.825,-1.219 3,-1 1.644,-0.2135 3.144,0.1198 4.5,1 0.497,2.3098 0.663,4.6432 0.5,7 0,1 0,2 0,3 3.271,-0.1458 5.605,1.1875 7,4 -2.396,-1.7121 -5.062,-2.2121 -8,-1.5 0.96,3.73 1.293,7.5633 1,11.5 -1.248,-3.4416 -2.081,-7.1083 -2.5,-11 -1.156,-1.4928 -1.99,-1.3261 -2.5,0.5 1.45,4.7501 2.45,9.5834 3,14.5 -0.617,-0.1107 -1.117,-0.444 -1.5,-1 -1.92,-5.7537 -3.42,-11.587 -4.5,-17.5 -11.015,-0.8324 -22.015,-0.6658 -33,0.5 0.848,1.9086 1.182,3.9086 1,6 -0.61,0.891 -0.943,1.891 -1,3 -2.64,7.2227 -4.973,14.556 -7,22 1.556,-9.7307 3.056,-19.3974 4.5,-29 -0.915,0.8279 -1.581,1.8279 -2,3 -0.972,6.5603 -2.472,12.8936 -4.5,19 0,-1.3333 0,-2.6667 0,-4 0.447,-5.3571 1.114,-10.6905 2,-16 -0.333,-0.6667 -0.667,-1.3333 -1,-2 -5.384,0.2193 -8.884,2.8859 -10.5,8 -0.44,10.2058 -1.273,20.3725 -2.5,30.5 0.167,2.833 0.333,5.667 0.5,8.5 1.292,1.291 2.458,1.291 3.5,0 1.667,0 3.333,0 5,0 -0.111,0.617 -0.444,1.117 -1,1.5 -3.293,0.826 -6.626,1.326 -10,1.5 0,-4.333 0,-8.667 0,-13 0.469,-10.804 1.802,-21.4706 4,-32 1.667,-2 3.333,-4 5,-6 1.667,-0.6667 3.333,-1.3333 5,-2 1.517,-0.0106 2.684,-0.6772 3.5,-2 0.497,-2.646 0.664,-5.3127 0.5,-8 z"
         id="path31" />
    </g>
    <g
       id="g32"
       style="clip-rule:evenodd;fill-rule:evenodd;image-rendering:optimizeQuality;shape-rendering:geometricPrecision;text-rendering:geometricPrecision"
       transform="matrix(0.32438399,0,0,0.32438399,-127.23318,-7.0708926)">
      <path
         style="opacity:1"
         fill="#e4cc60"
         d="m 552.5,55.5 c 0,1 0,2 0,3 -10.672,0.1665 -21.339,-2e-4 -32,-0.5 -0.457,-0.414 -0.791,-0.914 -1,-1.5 0.991,-1.8231 2.324,-3.3231 4,-4.5 8,-0.6667 16,-0.6667 24,0 1.823,0.9973 3.49,2.1639 5,3.5 z"
         id="path32" />
    </g>
    <g
       id="g33"
       style="clip-rule:evenodd;fill-rule:evenodd;image-rendering:optimizeQuality;shape-rendering:geometricPrecision;text-rendering:geometricPrecision"
       transform="matrix(0.32438399,0,0,0.32438399,-127.23318,-7.0708926)">
      <path
         style="opacity:1"
         fill="#edcb46"
         d="m 523.5,53.5 c 8.36,-0.3312 16.693,0.0021 25,1 1,0.8333 2,1.6667 3,2.5 -9.661,0.4998 -19.328,0.6665 -29,0.5 -0.067,-1.4587 0.266,-2.7921 1,-4 z"
         id="path33" />
    </g>
    <g
       id="g34"
       style="clip-rule:evenodd;fill-rule:evenodd;image-rendering:optimizeQuality;shape-rendering:geometricPrecision;text-rendering:geometricPrecision"
       transform="matrix(0.32438399,0,0,0.32438399,-127.23318,-7.0708926)">
      <path
         style="opacity:1"
         fill="#ebc948"
         d="m 567.5,64.5 c -2.434,-1.4852 -4.767,-3.1519 -7,-5 0,-1.3333 0,-2.6667 0,-4 6.322,0.4933 11.822,2.8266 16.5,7 0.977,2.24 1.477,4.5733 1.5,7 -3.292,0.3804 -5.625,-0.9529 -7,-4 -1.189,-0.9287 -2.522,-1.262 -4,-1 z"
         id="path34" />
    </g>
    <g
       id="g40"
       style="clip-rule:evenodd;fill-rule:evenodd;image-rendering:optimizeQuality;shape-rendering:geometricPrecision;text-rendering:geometricPrecision"
       transform="matrix(0.32438399,0,0,0.32438399,-127.23318,-7.0708926)">
      <path
         style="opacity:1"
         fill="#fafaf9"
         d="m 518.5,71.5 c 0.057,-1.109 0.39,-2.109 1,-3 0.961,-1.7646 1.295,-3.7646 1,-6 10.296,0.0135 20.129,0.3469 29.5,1 0.541,4.5277 1.708,9.1944 3.5,14 -0.209,0.586 -0.543,1.086 -1,1.5 2.312,5.6326 4.145,11.1326 5.5,16.5 0.642,3.9908 1.142,7.991 1.5,12 -7.609,-1.229 -15.276,-1.896 -23,-2 -6.543,0.595 -12.709,0.595 -18.5,0 -2.243,1.782 -4.743,2.282 -7.5,1.5 1.625,-0.853 1.958,-1.853 1,-3 1.672,-8.5197 3.506,-17.0197 5.5,-25.5 0.75,-0.6258 1.584,-1.1258 2.5,-1.5 -0.574,-1.9193 -0.907,-3.7526 -1,-5.5 z"
         id="path40" />
    </g>
    <g
       id="g46"
       style="clip-rule:evenodd;fill-rule:evenodd;image-rendering:optimizeQuality;shape-rendering:geometricPrecision;text-rendering:geometricPrecision"
       transform="matrix(0.32438399,0,0,0.32438399,-127.23318,-7.0708926)">
      <path
         style="opacity:1"
         fill="#faf6c0"
         d="m 489.5,59.5 c -1.25,2.506 -1.916,5.1726 -2,8 -0.667,1 -1.333,2 -2,3 0.304,-3.0219 0.804,-6.0219 1.5,-9 0.417,-1.256 1.25,-1.9226 2.5,-2 z"
         id="path46" />
    </g>
    <g
       id="g49"
       style="clip-rule:evenodd;fill-rule:evenodd;image-rendering:optimizeQuality;shape-rendering:geometricPrecision;text-rendering:geometricPrecision"
       transform="matrix(0.32438399,0,0,0.32438399,-127.23318,-7.0708926)">
      <path
         style="opacity:1"
         fill="#f7f3c0"
         d="m 559.5,59.5 c 0.333,0 0.667,0 1,0 2.233,1.8481 4.566,3.5148 7,5 2.69,1.6935 4.69,4.0268 6,7 1.059,8.6299 1.725,17.2966 2,26 -2.205,-8.0494 -3.371,-16.3827 -3.5,-25 -0.649,-3.1466 -2.482,-5.1466 -5.5,-6 -1.395,-2.8125 -3.729,-4.1458 -7,-4 0,-1 0,-2 0,-3 z"
         id="path49" />
    </g>
    <g
       id="g50"
       style="clip-rule:evenodd;fill-rule:evenodd;image-rendering:optimizeQuality;shape-rendering:geometricPrecision;text-rendering:geometricPrecision"
       transform="matrix(0.32438399,0,0,0.32438399,-127.23318,-7.0708926)">
      <path
         style="opacity:1"
         fill="#f8f1b9"
         d="m 559.5,47.5 c 1.333,0 2.667,0 4,0 10.902,1.8542 18.402,7.8542 22.5,18 1.442,6.5962 2.276,13.2629 2.5,20 -1.705,-9.1441 -4.205,-18.1441 -7.5,-27 -6.316,-5.4078 -13.483,-9.0745 -21.5,-11 z"
         id="path50" />
    </g>
    <g
       id="g52"
       style="clip-rule:evenodd;fill-rule:evenodd;image-rendering:optimizeQuality;shape-rendering:geometricPrecision;text-rendering:geometricPrecision"
       transform="matrix(0.32438399,0,0,0.32438399,-127.23318,-7.0708926)">
      <path
         style="opacity:1"
         fill="#eac94a"
         d="m 509.5,61.5 c -1.667,0.6667 -3.333,1.3333 -5,2 -2.725,1.213 -5.059,3.0464 -7,5.5 -1.525,1.0086 -3.192,1.5086 -5,1.5 1.884,-10.46 8.217,-15.46 19,-15 0.247,2.3583 -0.419,4.3583 -2,6 z"
         id="path52" />
    </g>
    <g
       id="g53"
       style="clip-rule:evenodd;fill-rule:evenodd;image-rendering:optimizeQuality;shape-rendering:geometricPrecision;text-rendering:geometricPrecision"
       transform="matrix(0.32438399,0,0,0.32438399,-127.23318,-7.0708926)">
      <path
         style="opacity:1"
         fill="#faf9f7"
         d="m 509.5,82.5 c -4.393,8.623 -6.56,17.956 -6.5,28 -1.107,-1.212 -1.607,-0.879 -1.5,1 -1.042,1.291 -2.208,1.291 -3.5,0 -0.167,-2.833 -0.333,-5.667 -0.5,-8.5 1.227,-10.1275 2.06,-20.2942 2.5,-30.5 1.616,-5.1141 5.116,-7.7807 10.5,-8 0.333,0.6667 0.667,1.3333 1,2 -0.886,5.3095 -1.553,10.6429 -2,16 z"
         id="path53" />
    </g>
    <g
       id="g59"
       style="clip-rule:evenodd;fill-rule:evenodd;image-rendering:optimizeQuality;shape-rendering:geometricPrecision;text-rendering:geometricPrecision"
       transform="matrix(0.32438399,0,0,0.32438399,-127.23318,-7.0708926)">
      <path
         style="opacity:1"
         fill="#faf9eb"
         d="m 511.5,44.5 c -0.806,1.2281 -1.806,2.2281 -3,3 -3.497,-0.2055 -6.163,1.1278 -8,4 -4.552,1.4433 -8.219,4.1099 -11,8 -1.25,0.0774 -2.083,0.744 -2.5,2 -0.696,2.9781 -1.196,5.9781 -1.5,9 -0.722,0.4175 -1.222,1.0842 -1.5,2 -1.491,8.2739 -2.324,16.6072 -2.5,25 -0.722,0.4175 -1.222,1.0842 -1.5,2 -0.171,7.844 -0.671,15.511 -1.5,23 -0.055,-3.798 -0.388,-7.298 -1,-10.5 0.546,-7.394 1.546,-14.7273 3,-22 -0.854,-12.6526 1.98,-24.486 8.5,-35.5 3.491,-3.4962 7.657,-5.6629 12.5,-6.5 1.043,-1.9756 2.377,-2.4756 4,-1.5 1.95,-0.8721 3.95,-1.5388 6,-2 z"
         id="path59" />
    </g>
    <g
       id="g65"
       style="clip-rule:evenodd;fill-rule:evenodd;image-rendering:optimizeQuality;shape-rendering:geometricPrecision;text-rendering:geometricPrecision"
       transform="matrix(0.32438399,0,0,0.32438399,-127.23318,-7.0708926)">
      <path
         style="opacity:1"
         fill="#faf7ca"
         d="m 485.5,70.5 c -0.662,3.9659 -0.995,7.9659 -1,12 -0.782,5.0368 -1.782,10.0368 -3,15 0.176,-8.3928 1.009,-16.7261 2.5,-25 0.278,-0.9158 0.778,-1.5825 1.5,-2 z"
         id="path65" />
    </g>
    <g
       id="g70"
       style="clip-rule:evenodd;fill-rule:evenodd;image-rendering:optimizeQuality;shape-rendering:geometricPrecision;text-rendering:geometricPrecision"
       transform="matrix(0.32438399,0,0,0.32438399,-127.23318,-7.0708926)">
      <path
         style="opacity:1"
         fill="#ddd398"
         d="m 580.5,72.5 c -1.667,0 -3.333,0 -5,0 0.693,10.8803 2.027,21.5469 4,32 0,1.333 0,2.667 0,4 0.319,4.863 -0.014,9.53 -1,14 0.162,-2.027 -0.005,-4.027 -0.5,-6 -0.383,-0.556 -0.883,-0.889 -1.5,-1 0.246,-6.059 -0.087,-12.059 -1,-18 -0.275,-8.7034 -0.941,-17.3701 -2,-26 2.194,-0.6233 4.361,-0.9566 6.5,-1 0.464,0.5944 0.631,1.2611 0.5,2 z"
         id="path70" />
    </g>
    <g
       id="g78"
       style="clip-rule:evenodd;fill-rule:evenodd;image-rendering:optimizeQuality;shape-rendering:geometricPrecision;text-rendering:geometricPrecision"
       transform="matrix(0.32438399,0,0,0.32438399,-127.23318,-7.0708926)">
      <path
         style="opacity:1"
         fill="#d8d1a0"
         d="m 511.5,93.5 c -1.784,3.8453 -3.284,7.845 -4.5,12 1.024,-6.1743 1.858,-12.5077 2.5,-19 2.028,-6.1064 3.528,-12.4397 4.5,-19 0.419,-1.1721 1.085,-2.1721 2,-3 -1.444,9.6026 -2.944,19.2693 -4.5,29 z"
         id="path78" />
    </g>
    <g
       id="g79"
       style="clip-rule:evenodd;fill-rule:evenodd;image-rendering:optimizeQuality;shape-rendering:geometricPrecision;text-rendering:geometricPrecision"
       transform="matrix(0.32438399,0,0,0.32438399,-127.23318,-7.0708926)">
      <path
         style="opacity:1"
         fill="#faf9e6"
         d="m 579.5,108.5 c 0,-1.333 0,-2.667 0,-4 -0.593,-10.0052 -1.26,-20.0052 -2,-30 1.624,-0.1399 2.79,0.5267 3.5,2 1.849,16.6067 2.849,33.273 3,50 1.167,1.167 2.333,2.333 3.5,3.5 -3.525,0.737 -6.191,-0.43 -8,-3.5 2.23,-6.094 2.23,-12.094 0,-18 z"
         id="path79" />
    </g>
    <g
       id="g80"
       style="clip-rule:evenodd;fill-rule:evenodd;image-rendering:optimizeQuality;shape-rendering:geometricPrecision;text-rendering:geometricPrecision"
       transform="matrix(0.32438399,0,0,0.32438399,-127.23318,-7.0708926)">
      <path
         style="opacity:1"
         fill="#e1ce7a"
         d="m 487.5,67.5 c -1.673,6.2366 -2.173,12.57 -1.5,19 1.172,-2.7311 2.339,-5.3978 3.5,-8 0,1.3333 0,2.6667 0,4 -0.969,2.163 -1.802,4.4963 -2.5,7 -0.5,11.995 -0.667,23.995 -0.5,36 -0.271,1.93 -1.271,3.264 -3,4 -2.358,-0.247 -4.358,0.419 -6,2 -1.042,-1.291 -2.208,-1.291 -3.5,0 -0.497,2.31 -0.663,4.643 -0.5,7 -1.275,-2.896 -1.275,-5.896 0,-9 2.95,-1.615 5.616,-3.615 8,-6 0.907,-13.525 1.907,-27.1916 3,-41 0.005,-4.0341 0.338,-8.0341 1,-12 0.667,-1 1.333,-2 2,-3 z"
         id="path80" />
    </g>
    <g
       id="g88"
       style="clip-rule:evenodd;fill-rule:evenodd;image-rendering:optimizeQuality;shape-rendering:geometricPrecision;text-rendering:geometricPrecision"
       transform="matrix(0.32438399,0,0,0.32438399,-127.23318,-7.0708926)">
      <path
         style="opacity:1"
         fill="#f9f9ea"
         d="m 557.5,80.5 c 0.342,8.2001 1.842,16.2001 4.5,24 0.908,1.939 2.408,2.939 4.5,3 0.302,-2.559 -0.032,-4.893 -1,-7 -2.955,-7.5743 -4.955,-15.5743 -6,-24 0.293,-3.9367 -0.04,-7.77 -1,-11.5 2.938,-0.7121 5.604,-0.2121 8,1.5 3.018,0.8534 4.851,2.8534 5.5,6 0.129,8.6173 1.295,16.9506 3.5,25 0.913,5.941 1.246,11.941 1,18 -4.147,0.374 -7.814,-0.626 -11,-3 -3.611,-2.154 -7.611,-3.488 -12,-4 -15.903,-1.874 -31.57,-0.874 -47,3 -1.667,0 -3.333,0 -5,0 -0.107,-1.879 0.393,-2.212 1.5,-1 -0.06,-10.044 2.107,-19.377 6.5,-28 0,1.3333 0,2.6667 0,4 -0.642,6.4923 -1.476,12.8257 -2.5,19 1.216,-4.155 2.716,-8.1547 4.5,-12 2.027,-7.444 4.36,-14.7773 7,-22 0.093,1.7474 0.426,3.5807 1,5.5 -0.916,0.3742 -1.75,0.8742 -2.5,1.5 -1.994,8.4803 -3.828,16.9803 -5.5,25.5 0.958,1.147 0.625,2.147 -1,3 2.757,0.782 5.257,0.282 7.5,-1.5 5.791,0.595 11.957,0.595 18.5,0 7.724,0.104 15.391,0.771 23,2 -0.358,-4.009 -0.858,-8.0092 -1.5,-12 -1.355,-5.3674 -3.188,-10.8674 -5.5,-16.5 0.457,-0.414 0.791,-0.914 1,-1.5 -1.792,-4.8056 -2.959,-9.4723 -3.5,-14 -9.371,-0.6531 -19.204,-0.9865 -29.5,-1 0.295,2.2354 -0.039,4.2354 -1,6 0.182,-2.0914 -0.152,-4.0914 -1,-6 10.985,-1.1658 21.985,-1.3324 33,-0.5 1.08,5.913 2.58,11.7463 4.5,17.5 0.383,0.556 0.883,0.8893 1.5,1 z"
         id="path88" />
    </g>
    <g
       id="g89"
       style="clip-rule:evenodd;fill-rule:evenodd;image-rendering:optimizeQuality;shape-rendering:geometricPrecision;text-rendering:geometricPrecision"
       transform="matrix(0.32438399,0,0,0.32438399,-127.23318,-7.0708926)">
      <path
         style="opacity:1"
         fill="#f6f4d0"
         d="m 557.5,80.5 c 2.332,8.3131 4.832,16.6464 7.5,25 0.494,-1.634 0.66,-3.301 0.5,-5 0.968,2.107 1.302,4.441 1,7 -2.092,-0.061 -3.592,-1.061 -4.5,-3 -2.658,-7.7999 -4.158,-15.7999 -4.5,-24 z"
         id="path89" />
    </g>
    <g
       id="g90"
       style="clip-rule:evenodd;fill-rule:evenodd;image-rendering:optimizeQuality;shape-rendering:geometricPrecision;text-rendering:geometricPrecision"
       transform="matrix(0.32438399,0,0,0.32438399,-127.23318,-7.0708926)">
      <path
         style="opacity:1"
         fill="#d9d29d"
         d="m 559.5,76.5 c 1.045,8.4257 3.045,16.4257 6,24 0.16,1.699 -0.006,3.366 -0.5,5 -2.668,-8.3536 -5.168,-16.6869 -7.5,-25 -0.55,-4.9166 -1.55,-9.7499 -3,-14.5 0.51,-1.8261 1.344,-1.9928 2.5,-0.5 0.419,3.8917 1.252,7.5584 2.5,11 z"
         id="path90" />
    </g>
    <g
       id="g91"
       style="clip-rule:evenodd;fill-rule:evenodd;image-rendering:optimizeQuality;shape-rendering:geometricPrecision;text-rendering:geometricPrecision"
       transform="matrix(0.32438399,0,0,0.32438399,-127.23318,-7.0708926)">
      <path
         style="opacity:1"
         fill="#faf9f9"
         d="m 560.5,65.5 c 0.722,0.4175 1.222,1.0842 1.5,2 0.333,-0.3333 0.667,-0.6667 1,-1 1.667,1 3.333,2 5,3 0.881,4.0037 1.714,8.0037 2.5,12 -0.209,0.586 -0.543,1.086 -1,1.5 3.515,9.4472 5.182,19.28 5,29.5 -6.092,-0.057 -8.092,-2.557 -6,-7.5 -1.911,-13.6458 -4.577,-26.8125 -8,-39.5 z"
         id="path91" />
    </g>
    <g
       id="g95"
       style="clip-rule:evenodd;fill-rule:evenodd;image-rendering:optimizeQuality;shape-rendering:geometricPrecision;text-rendering:geometricPrecision"
       transform="matrix(0.32438399,0,0,0.32438399,-127.23318,-7.0708926)">
      <path
         style="opacity:1"
         fill="#f9f8de"
         d="m 496.5,71.5 c -1.334,11.0111 -2.668,22.0111 -4,33 -0.958,0.453 -1.792,1.119 -2.5,2 -0.333,-0.333 -0.667,-0.667 -1,-1 -0.321,-7.6704 -0.154,-15.3371 0.5,-23 0,-1.3333 0,-2.6667 0,-4 0,-1.6667 0,-3.3333 0,-5 1.956,-1.6484 4.289,-2.3151 7,-2 z"
         id="path95" />
    </g>
    <g
       id="g101"
       style="clip-rule:evenodd;fill-rule:evenodd;image-rendering:optimizeQuality;shape-rendering:geometricPrecision;text-rendering:geometricPrecision"
       transform="matrix(0.32438399,0,0,0.32438399,-127.23318,-7.0708926)">
      <path
         style="opacity:1"
         fill="#f7eba7"
         d="m 484.5,82.5 c -1.093,13.8084 -2.093,27.475 -3,41 0,-8.667 0,-17.333 0,-26 1.218,-4.9632 2.218,-9.9632 3,-15 z"
         id="path101" />
    </g>
    <g
       id="g103"
       style="clip-rule:evenodd;fill-rule:evenodd;image-rendering:optimizeQuality;shape-rendering:geometricPrecision;text-rendering:geometricPrecision"
       transform="matrix(0.32438399,0,0,0.32438399,-127.23318,-7.0708926)">
      <path
         style="opacity:1"
         fill="#faf9d8"
         d="m 481.5,97.5 c 0,8.667 0,17.333 0,26 -2.384,2.385 -5.05,4.385 -8,6 1.871,-2.128 3.538,-4.461 5,-7 0.829,-7.489 1.329,-15.156 1.5,-23 0.278,-0.9158 0.778,-1.5825 1.5,-2 z"
         id="path103" />
    </g>
    <g
       id="g104"
       style="clip-rule:evenodd;fill-rule:evenodd;image-rendering:optimizeQuality;shape-rendering:geometricPrecision;text-rendering:geometricPrecision"
       transform="matrix(0.32438399,0,0,0.32438399,-127.23318,-7.0708926)">
      <path
         style="opacity:1"
         fill="#f9f5c4"
         d="m 489.5,82.5 c -0.654,7.6629 -0.821,15.3296 -0.5,23 0.333,0.333 0.667,0.667 1,1 0.708,-0.881 1.542,-1.547 2.5,-2 0,4 0,8 0,12 0.187,4.413 0.854,8.746 2,13 -0.034,2.699 0.633,5.199 2,7.5 -0.594,0.464 -1.261,0.631 -2,0.5 -0.838,-0.342 -1.172,-1.008 -1,-2 -0.558,-2.064 -1.725,-3.73 -3.5,-5 -2.788,1.67 -5.621,3.003 -8.5,4 -1.333,0 -2.667,0 -4,0 0,-1 0,-2 0,-3 1.642,-1.581 3.642,-2.247 6,-2 -0.131,0.876 0.202,1.543 1,2 2.443,-1.555 5.11,-2.222 8,-2 -0.526,-4.436 -1.526,-8.77 -3,-13 -0.586,0.209 -1.086,0.543 -1.5,1 -0.183,2.865 -0.683,5.531 -1.5,8 -0.167,-12.005 0,-24.005 0.5,-36 0.698,-2.5037 1.531,-4.837 2.5,-7 z"
         id="path104" />
    </g>
    <g
       id="g105"
       style="clip-rule:evenodd;fill-rule:evenodd;image-rendering:optimizeQuality;shape-rendering:geometricPrecision;text-rendering:geometricPrecision"
       transform="matrix(0.32438399,0,0,0.32438399,-127.23318,-7.0708926)">
      <path
         style="opacity:1"
         fill="#f9f4ba"
         d="m 495.5,101.5 c 0,4.333 0,8.667 0,13 3.374,-0.174 6.707,-0.674 10,-1.5 0.556,-0.383 0.889,-0.883 1,-1.5 15.43,-3.874 31.097,-4.874 47,-3 4.389,0.512 8.389,1.846 12,4 -15.177,-2.9 -30.51,-3.734 -46,-2.5 -8.095,2.861 -16.428,5.028 -25,6.5 -0.321,-5.195 0.013,-10.195 1,-15 z"
         id="path105" />
    </g>
    <g
       id="g108"
       style="clip-rule:evenodd;fill-rule:evenodd;image-rendering:optimizeQuality;shape-rendering:geometricPrecision;text-rendering:geometricPrecision"
       transform="matrix(0.32438399,0,0,0.32438399,-127.23318,-7.0708926)">
      <path
         style="opacity:1"
         fill="#f2cd39"
         d="m 566.5,145.5 c -14.999,-3.146 -30.166,-3.813 -45.5,-2 -2.929,0.025 -5.429,0.691 -7.5,2 -4.432,1.977 -8.265,1.311 -11.5,-2 -1.114,-7.051 -2.948,-13.885 -5.5,-20.5 -0.45,-2.626 0.55,-4.126 3,-4.5 3.028,0.161 5.861,-0.506 8.5,-2 0.772,0.145 1.439,0.478 2,1 1.46,-0.482 2.96,-1.649 4.5,-3.5 12.919,-2.842 25.919,-3.175 39,-1 3.289,1.842 6.789,4.008 10.5,6.5 0.667,-0.667 1.333,-1.333 2,-2 2.5,1.167 5,2.333 7.5,3.5 0.597,1.062 0.93,2.228 1,3.5 -1.792,3.874 -3.292,7.874 -4.5,12 -1.613,-1.122 -2.78,-0.622 -3.5,1.5 1.016,0.519 1.682,1.353 2,2.5 -1.909,1.457 -2.576,3.124 -2,5 z"
         id="path108" />
    </g>
    <g
       id="g109"
       style="clip-rule:evenodd;fill-rule:evenodd;image-rendering:optimizeQuality;shape-rendering:geometricPrecision;text-rendering:geometricPrecision"
       transform="matrix(0.32438399,0,0,0.32438399,-127.23318,-7.0708926)">
      <path
         style="opacity:1"
         fill="#f9f4c0"
         d="m 588.5,86.5 c 0.814,2.131 1.314,4.4644 1.5,7 0.333,10 0.667,20 1,30 2.846,1.757 5.512,3.757 8,6 0.805,3.196 0.638,6.196 -0.5,9 1.477,-6.861 -1.19,-11.194 -8,-13 -0.866,-12.994 -1.533,-25.9941 -2,-39 z"
         id="path109" />
    </g>
    <g
       id="g110"
       style="clip-rule:evenodd;fill-rule:evenodd;image-rendering:optimizeQuality;shape-rendering:geometricPrecision;text-rendering:geometricPrecision"
       transform="matrix(0.32438399,0,0,0.32438399,-127.23318,-7.0708926)">
      <path
         style="opacity:1"
         fill="#d7cf95"
         d="m 499.5,69.5 c -2.198,10.5294 -3.531,21.196 -4,32 -0.987,4.805 -1.321,9.805 -1,15 -0.667,0 -1.333,0 -2,0 0,-4 0,-8 0,-12 1.332,-10.9889 2.666,-21.9889 4,-33 1,-0.6667 2,-1.3333 3,-2 z"
         id="path110" />
    </g>
    <g
       id="g112"
       style="clip-rule:evenodd;fill-rule:evenodd;image-rendering:optimizeQuality;shape-rendering:geometricPrecision;text-rendering:geometricPrecision"
       transform="matrix(0.32438399,0,0,0.32438399,-127.23318,-7.0708926)">
      <path
         style="opacity:1"
         fill="#efcc43"
         d="m 577.5,124.5 c -1.727,5.363 -3.394,10.697 -5,16 -1.702,2.037 -3.702,3.703 -6,5 -0.576,-1.876 0.091,-3.543 2,-5 -0.318,-1.147 -0.984,-1.981 -2,-2.5 0.72,-2.122 1.887,-2.622 3.5,-1.5 1.208,-4.126 2.708,-8.126 4.5,-12 -0.07,-1.272 -0.403,-2.438 -1,-3.5 -2.5,-1.167 -5,-2.333 -7.5,-3.5 -0.667,0.667 -1.333,1.333 -2,2 -3.711,-2.492 -7.211,-4.658 -10.5,-6.5 -13.081,-2.175 -26.081,-1.842 -39,1 -1.54,1.851 -3.04,3.018 -4.5,3.5 -0.561,-0.522 -1.228,-0.855 -2,-1 -2.639,1.494 -5.472,2.161 -8.5,2 5.684,-2.554 11.518,-4.887 17.5,-7 10.815,-1.086 21.648,-1.252 32.5,-0.5 5.32,1.536 10.654,3.203 16,5 3.94,1.015 7.94,1.515 12,1.5 0,2.333 0,4.667 0,7 z"
         id="path112" />
    </g>
    <g
       id="g113"
       style="clip-rule:evenodd;fill-rule:evenodd;image-rendering:optimizeQuality;shape-rendering:geometricPrecision;text-rendering:geometricPrecision"
       transform="matrix(0.32438399,0,0,0.32438399,-127.23318,-7.0708926)">
      <path
         style="opacity:1"
         fill="#faf9e1"
         d="m 483.5,129.5 c 1.729,-0.736 2.729,-2.07 3,-4 0.817,-2.469 1.317,-5.135 1.5,-8 0.414,-0.457 0.914,-0.791 1.5,-1 1.474,4.23 2.474,8.564 3,13 -2.89,-0.222 -5.557,0.445 -8,2 -0.798,-0.457 -1.131,-1.124 -1,-2 z"
         id="path113" />
    </g>
    <g
       id="g142"
       style="clip-rule:evenodd;fill-rule:evenodd;image-rendering:optimizeQuality;shape-rendering:geometricPrecision;text-rendering:geometricPrecision"
       transform="matrix(0.32438399,0,0,0.32438399,-127.23318,-7.0708926)">
      <path
         style="opacity:1"
         fill="#f8f3be"
         d="m 580.5,72.5 c 1.63,1.5261 2.463,3.5261 2.5,6 1.664,15.9559 2.664,31.956 3,48 2.869,2.004 5.369,4.337 7.5,7 -0.833,0.333 -1.667,0.667 -2.5,1 -3.545,-1.373 -7.045,-2.539 -10.5,-3.5 -2.43,3.456 -3.763,7.29 -4,11.5 -1.818,4.27 -3.485,8.603 -5,13 0.449,-2.79 0.449,-5.456 0,-8 -1.673,1.586 -3.673,2.253 -6,2 -1,-0.667 -2,-1.333 -3,-2 6.104,1.557 9.438,-0.777 10,-7 1.606,-5.303 3.273,-10.637 5,-16 0.838,-0.342 1.172,-1.008 1,-2 0.986,-4.47 1.319,-9.137 1,-14 2.23,5.906 2.23,11.906 0,18 1.809,3.07 4.475,4.237 8,3.5 -1.167,-1.167 -2.333,-2.333 -3.5,-3.5 -0.151,-16.727 -1.151,-33.3933 -3,-50 -0.71,-1.4733 -1.876,-2.1399 -3.5,-2 0.74,9.9948 1.407,19.9948 2,30 -1.973,-10.4531 -3.307,-21.1197 -4,-32 1.667,0 3.333,0 5,0 z"
         id="path142" />
    </g>
    <g
       id="g148"
       style="clip-rule:evenodd;fill-rule:evenodd;image-rendering:optimizeQuality;shape-rendering:geometricPrecision;text-rendering:geometricPrecision"
       transform="matrix(0.32438399,0,0,0.32438399,-127.23318,-7.0708926)">
      <path
         style="opacity:1"
         fill="#e7ce60"
         d="m 565.5,112.5 c 3.186,2.374 6.853,3.374 11,3 0.617,0.111 1.117,0.444 1.5,1 0.495,1.973 0.662,3.973 0.5,6 0.172,0.992 -0.162,1.658 -1,2 0,-2.333 0,-4.667 0,-7 -4.06,0.015 -8.06,-0.485 -12,-1.5 -5.346,-1.797 -10.68,-3.464 -16,-5 -10.852,-0.752 -21.685,-0.586 -32.5,0.5 -5.982,2.113 -11.816,4.446 -17.5,7 -2.45,0.374 -3.45,1.874 -3,4.5 2.552,6.615 4.386,13.449 5.5,20.5 3.235,3.311 7.068,3.977 11.5,2 -0.667,0.667 -1.333,1.333 -2,2 -2.196,0.09 -4.363,0.423 -6.5,1 -1.699,0.113 -2.866,-0.553 -3.5,-2 -1.52,-3.079 -2.353,-6.412 -2.5,-10 -2.036,-2.092 -3.536,-4.426 -4.5,-7 -1.146,-4.254 -1.813,-8.587 -2,-13 0.667,0 1.333,0 2,0 8.572,-1.472 16.905,-3.639 25,-6.5 15.49,-1.234 30.823,-0.4 46,2.5 z"
         id="path148" />
    </g>
    <g
       id="g156"
       style="clip-rule:evenodd;fill-rule:evenodd;image-rendering:optimizeQuality;shape-rendering:geometricPrecision;text-rendering:geometricPrecision"
       transform="matrix(0.32438399,0,0,0.32438399,-127.23318,-7.0708926)">
      <path
         style="opacity:1"
         fill="#e4c956"
         d="m 581.5,209.5 c 0,5.667 0,11.333 0,17 -1,0 -2,0 -3,0 -2.04,-4.08 -4.04,-8.08 -6,-12 0,-1 0,-2 0,-3 2.31,2.602 4.143,5.602 5.5,9 0.333,-0.333 0.667,-0.667 1,-1 1.577,-25.307 1.91,-50.64 1,-76 -0.333,-0.333 -0.667,-0.667 -1,-1 -1.706,4.871 -3.706,9.538 -6,14 -0.5,17.997 -0.667,35.997 -0.5,54 -0.997,-17.159 -1.33,-34.492 -1,-52 0,-1 0,-2 0,-3 1.515,-4.397 3.182,-8.73 5,-13 1.454,-2.908 2.954,-5.908 4.5,-9 0.5,25.331 0.667,50.664 0.5,76 z"
         id="path156" />
    </g>
    <g
       id="g157"
       style="clip-rule:evenodd;fill-rule:evenodd;image-rendering:optimizeQuality;shape-rendering:geometricPrecision;text-rendering:geometricPrecision"
       transform="matrix(0.32438399,0,0,0.32438399,-127.23318,-7.0708926)">
      <path
         style="opacity:1"
         fill="#f5eda8"
         d="m 494.5,129.5 c 0.964,2.574 2.464,4.908 4.5,7 0.147,3.588 0.98,6.921 2.5,10 -0.958,-0.453 -1.792,-1.119 -2.5,-2 -0.175,2.657 -0.008,5.324 0.5,8 -0.667,-1 -1.333,-2 -2,-3 -0.988,-3.985 -1.988,-7.985 -3,-12 0.739,0.131 1.406,-0.036 2,-0.5 -1.367,-2.301 -2.034,-4.801 -2,-7.5 z"
         id="path157" />
    </g>
    <g
       id="g158"
       style="clip-rule:evenodd;fill-rule:evenodd;image-rendering:optimizeQuality;shape-rendering:geometricPrecision;text-rendering:geometricPrecision"
       transform="matrix(0.32438399,0,0,0.32438399,-127.23318,-7.0708926)">
      <path
         style="opacity:1"
         fill="#f9f2b1"
         d="m 560.5,147.5 c -16.342,-1.281 -32.676,-1.281 -49,0 0.667,-0.667 1.333,-1.333 2,-2 11.989,-0.91 23.989,-1.076 36,-0.5 3.93,0.242 7.597,1.075 11,2.5 z"
         id="path158" />
    </g>
    <g
       id="g159"
       style="clip-rule:evenodd;fill-rule:evenodd;image-rendering:optimizeQuality;shape-rendering:geometricPrecision;text-rendering:geometricPrecision"
       transform="matrix(0.32438399,0,0,0.32438399,-127.23318,-7.0708926)">
      <path
         style="opacity:1"
         fill="#e6cc5d"
         d="m 572.5,140.5 c -0.562,6.223 -3.896,8.557 -10,7 -0.667,0 -1.333,0 -2,0 -3.403,-1.425 -7.07,-2.258 -11,-2.5 -12.011,-0.576 -24.011,-0.41 -36,0.5 2.071,-1.309 4.571,-1.975 7.5,-2 15.334,-1.813 30.501,-1.146 45.5,2 2.298,-1.297 4.298,-2.963 6,-5 z"
         id="path159" />
    </g>
    <g
       id="g160"
       style="clip-rule:evenodd;fill-rule:evenodd;image-rendering:optimizeQuality;shape-rendering:geometricPrecision;text-rendering:geometricPrecision"
       transform="matrix(0.32438399,0,0,0.32438399,-127.23318,-7.0708926)">
      <path
         style="opacity:1"
         fill="#f9f9d5"
         d="m 501.5,146.5 c 0.634,1.447 1.801,2.113 3.5,2 2.137,-0.577 4.304,-0.91 6.5,-1 16.324,-1.281 32.658,-1.281 49,0 0.667,0 1.333,0 2,0 1,0.667 2,1.333 3,2 -2.361,-0.174 -4.694,-0.507 -7,-1 -2.333,0 -4.667,0 -7,0 -5.657,-0.666 -11.49,-0.999 -17.5,-1 -11.221,-0.027 -22.388,0.639 -33.5,2 0,1.333 0,2.667 0,4 -0.667,0 -1,-0.333 -1,-1 -0.508,-2.676 -0.675,-5.343 -0.5,-8 0.708,0.881 1.542,1.547 2.5,2 z"
         id="path160" />
    </g>
    <g
       id="g162"
       style="clip-rule:evenodd;fill-rule:evenodd;image-rendering:optimizeQuality;shape-rendering:geometricPrecision;text-rendering:geometricPrecision"
       transform="matrix(0.32438399,0,0,0.32438399,-127.23318,-7.0708926)">
      <path
         style="opacity:1"
         fill="#faf9eb"
         d="m 551.5,148.5 c -9.416,0.749 -18.583,0.749 -27.5,0 -7.024,1.539 -13.857,2.872 -20.5,4 0.312,6.583 0.978,13.083 2,19.5 -0.5,0.5 -1,1 -1.5,1.5 -0.667,4 -0.667,8 0,12 0.383,0.556 0.883,0.889 1.5,1 -0.206,2.049 -1.039,2.383 -2.5,1 -0.17,-9.176 -0.67,-18.176 -1.5,-27 0.202,-2.45 -0.131,-4.783 -1,-7 0,-1.333 0,-2.667 0,-4 11.112,-1.361 22.279,-2.027 33.5,-2 6.01,0.001 11.843,0.334 17.5,1 z"
         id="path162" />
    </g>
    <g
       id="g163"
       style="clip-rule:evenodd;fill-rule:evenodd;image-rendering:optimizeQuality;shape-rendering:geometricPrecision;text-rendering:geometricPrecision"
       transform="matrix(0.32438399,0,0,0.32438399,-127.23318,-7.0708926)">
      <path
         style="opacity:1"
         fill="#faf9f9"
         d="m 551.5,148.5 c 2.333,0 4.667,0 7,0 2.852,1.576 5.852,3.076 9,4.5 0.522,0.561 0.855,1.228 1,2 -0.928,4.357 -1.928,8.357 -3,12 1.371,5.696 1.871,11.529 1.5,17.5 -1.301,-5.154 -3.801,-9.654 -7.5,-13.5 -3.513,-0.927 -7.013,-1.761 -10.5,-2.5 -8.989,1.328 -17.989,1.328 -27,0 -2.74,0.782 -5.574,1.282 -8.5,1.5 -1.786,0.785 -3.286,1.951 -4.5,3.5 -1.684,4.216 -2.851,8.549 -3.5,13 -0.617,-0.111 -1.117,-0.444 -1.5,-1 -0.667,-4 -0.667,-8 0,-12 0.5,-0.5 1,-1 1.5,-1.5 -1.022,-6.417 -1.688,-12.917 -2,-19.5 6.643,-1.128 13.476,-2.461 20.5,-4 8.917,0.749 18.084,0.749 27.5,0 z"
         id="path163" />
    </g>
    <g
       id="g167"
       style="clip-rule:evenodd;fill-rule:evenodd;image-rendering:optimizeQuality;shape-rendering:geometricPrecision;text-rendering:geometricPrecision"
       transform="matrix(0.32438399,0,0,0.32438399,-127.23318,-7.0708926)">
      <path
         style="opacity:1"
         fill="#f9f9ce"
         d="m 473.5,139.5 c 1.667,0 3.333,0 5,0 1,0 2,0 3,0 0,24.333 0,48.667 0,73 0,10 0,20 0,30 -0.998,-33.496 -1.332,-67.163 -1,-101 -2.027,0.162 -4.027,-0.005 -6,-0.5 -0.556,-0.383 -0.889,-0.883 -1,-1.5 z"
         id="path167" />
    </g>
    <g
       id="g173"
       style="clip-rule:evenodd;fill-rule:evenodd;image-rendering:optimizeQuality;shape-rendering:geometricPrecision;text-rendering:geometricPrecision"
       transform="matrix(0.32438399,0,0,0.32438399,-127.23318,-7.0708926)">
      <path
         style="opacity:1"
         fill="#f9eba7"
         d="m 478.5,139.5 c 0.417,-0.624 1.084,-0.957 2,-1 1.213,0.247 1.88,0.914 2,2 0,24 0,48 0,72 -0.333,0 -0.667,0 -1,0 0,-24.333 0,-48.667 0,-73 -1,0 -2,0 -3,0 z"
         id="path173" />
    </g>
    <g
       id="g175"
       style="clip-rule:evenodd;fill-rule:evenodd;image-rendering:optimizeQuality;shape-rendering:geometricPrecision;text-rendering:geometricPrecision"
       transform="matrix(0.32438399,0,0,0.32438399,-127.23318,-7.0708926)">
      <path
         style="opacity:1"
         fill="#f2cc3d"
         d="m 497.5,154.5 c 0.838,0.342 1.172,1.008 1,2 0.167,15.337 0,30.67 -0.5,46 -3.083,2.18 -3.249,4.513 -0.5,7 -0.559,2.785 -1.892,5.118 -4,7 -1.894,-22.649 -2.227,-45.315 -1,-68 2.365,1.477 4.031,3.477 5,6 z"
         id="path175" />
    </g>
    <g
       id="g179"
       style="clip-rule:evenodd;fill-rule:evenodd;image-rendering:optimizeQuality;shape-rendering:geometricPrecision;text-rendering:geometricPrecision"
       transform="matrix(0.32438399,0,0,0.32438399,-127.23318,-7.0708926)">
      <path
         style="opacity:1"
         fill="#e4cd67"
         d="m 493.5,135.5 c -0.172,0.992 0.162,1.658 1,2 1.012,4.015 2.012,8.015 3,12 -2.607,-3.119 -4.274,-6.786 -5,-11 -0.333,0.833 -0.667,1.667 -1,2.5 -1.144,26.147 -1.311,52.314 -0.5,78.5 0.667,0.667 1.333,1.333 2,2 1.976,-1.322 3.476,-2.988 4.5,-5 -0.129,1.716 -0.462,3.383 -1,5 -1.337,0.815 -2.337,1.982 -3,3.5 -0.948,0.483 -1.948,0.649 -3,0.5 -0.969,-30.308 -1.302,-60.642 -1,-91 -0.131,-0.739 0.036,-1.406 0.5,-2 1.039,1.21 2.206,2.21 3.5,3 z"
         id="path179" />
    </g>
    <g
       id="g183"
       style="clip-rule:evenodd;fill-rule:evenodd;image-rendering:optimizeQuality;shape-rendering:geometricPrecision;text-rendering:geometricPrecision"
       transform="matrix(0.32438399,0,0,0.32438399,-127.23318,-7.0708926)">
      <path
         style="opacity:1"
         fill="#dcc55c"
         d="m 477.5,131.5 c 0,1 0,2 0,3 1.333,0 2.667,0 4,0 1.333,0 2.667,0 4,0 0.333,28.341 0,56.675 -1,85 -0.667,-26.497 -1.333,-52.83 -2,-79 -0.12,-1.086 -0.787,-1.753 -2,-2 -0.916,0.043 -1.583,0.376 -2,1 -1.667,0 -3.333,0 -5,0 0,-0.333 0,-0.667 0,-1 -0.163,-2.357 0.003,-4.69 0.5,-7 1.292,-1.291 2.458,-1.291 3.5,0 z"
         id="path183" />
    </g>
    <g
       id="g197"
       style="clip-rule:evenodd;fill-rule:evenodd;image-rendering:optimizeQuality;shape-rendering:geometricPrecision;text-rendering:geometricPrecision"
       transform="matrix(0.32438399,0,0,0.32438399,-127.23318,-7.0708926)">
      <path
         style="opacity:1"
         fill="#f7eeb4"
         d="m 593.5,139.5 c -1,0 -2,0 -3,0 0.167,32.668 0,65.335 -0.5,98 -0.173,5.516 -0.673,10.849 -1.5,16 -0.108,-38.338 0.225,-76.672 1,-115 1.599,-0.268 2.932,0.066 4,1 z"
         id="path197" />
    </g>
    <g
       id="g199"
       style="clip-rule:evenodd;fill-rule:evenodd;image-rendering:optimizeQuality;shape-rendering:geometricPrecision;text-rendering:geometricPrecision"
       transform="matrix(0.32438399,0,0,0.32438399,-127.23318,-7.0708926)">
      <path
         style="opacity:1"
         fill="#ddd18e"
         d="m 561.5,176.5 c 0.667,3.667 1.333,7.333 2,11 0,0.333 0,0.667 0,1 -0.822,-1.889 -1.655,-3.889 -2.5,-6 -0.494,1.634 -0.66,3.301 -0.5,5 -0.868,-2.949 -1.868,-5.949 -3,-9 0,-1 0,-2 0,-3 -12.333,0 -24.667,0 -37,0 -2.292,-0.256 -4.459,0.077 -6.5,1 -0.943,3.996 -1.776,7.996 -2.5,12 -0.333,0 -0.667,0 -1,0 0.667,-2.319 0.834,-4.653 0.5,-7 -0.278,0.916 -0.778,1.582 -1.5,2 0.277,-3.39 1.277,-6.557 3,-9.5 15.329,-1.913 30.662,-1.913 46,0 0.873,1.045 1.873,1.878 3,2.5 z"
         id="path199" />
    </g>
    <g
       id="g201"
       style="clip-rule:evenodd;fill-rule:evenodd;image-rendering:optimizeQuality;shape-rendering:geometricPrecision;text-rendering:geometricPrecision"
       transform="matrix(0.32438399,0,0,0.32438399,-127.23318,-7.0708926)">
      <path
         style="opacity:1"
         fill="#faf9e4"
         d="m 588.5,262.5 c 0,-3 0,-6 0,-9 0.827,-5.151 1.327,-10.484 1.5,-16 0.5,-32.665 0.667,-65.332 0.5,-98 1,0 2,0 3,0 1.915,0.284 3.581,-0.049 5,-1 1.138,-2.804 1.305,-5.804 0.5,-9 -2.488,-2.243 -5.154,-4.243 -8,-6 -0.333,-10 -0.667,-20 -1,-30 -0.186,-2.5356 -0.686,-4.869 -1.5,-7 0,-0.3333 0,-0.6667 0,-1 -0.224,-6.7371 -1.058,-13.4038 -2.5,-20 -4.098,-10.1458 -11.598,-16.1458 -22.5,-18 -1.761,-0.8127 -3.428,-1.8127 -5,-3 -0.065,-0.4382 0.101,-0.7716 0.5,-1 2.533,1.3724 5.2,2.3724 8,3 8.534,1.7225 15.034,6.5559 19.5,14.5 0.54,3.497 1.54,6.8304 3,10 -1.345,3.7789 -0.679,7.2789 2,10.5 -0.844,2.6307 -1.177,5.1307 -1,7.5 0.346,8.1892 1.346,16.189 3,24 -1.11,2.737 -1.277,5.571 -0.5,8.5 7.328,4.287 9.828,10.287 7.5,18 -2.443,1.555 -5.11,2.222 -8,2 -0.73,32.325 -1.23,64.659 -1.5,97 -0.061,8.232 -0.894,16.232 -2.5,24 z"
         id="path201" />
    </g>
    <g
       id="g205"
       style="clip-rule:evenodd;fill-rule:evenodd;image-rendering:optimizeQuality;shape-rendering:geometricPrecision;text-rendering:geometricPrecision"
       transform="matrix(0.32438399,0,0,0.32438399,-127.23318,-7.0708926)">
      <path
         style="opacity:1"
         fill="#faf9e5"
         d="m 571.5,155.5 c -0.815,0.929 -1.648,1.929 -2.5,3 -0.167,7.167 -0.333,14.333 -0.5,21.5 -0.18,10.71 0.487,21.21 2,31.5 0.667,1 1.333,2 2,3 1.96,3.92 3.96,7.92 6,12 1.419,0.951 3.085,1.284 5,1 0.321,5.526 -0.012,10.86 -1,16 0,-5 0,-10 0,-15 -1.788,0.285 -3.455,-0.048 -5,-1 -1,-1.667 -2.333,-3 -4,-4 -1.009,2.973 -1.009,5.973 0,9 -1.439,-3.538 -3.106,-7.038 -5,-10.5 -4.335,-0.263 -8.668,-0.097 -13,0.5 4.734,-1.645 9.734,-2.311 15,-2 -1.454,-7.508 -2.454,-15.175 -3,-23 -1.459,-0.067 -2.792,0.266 -4,1 1.768,-3.092 2.268,-6.425 1.5,-10 -0.383,-0.556 -0.883,-0.889 -1.5,-1 -0.667,-3.667 -1.333,-7.333 -2,-11 -0.524,-2.688 -2.191,-4.188 -5,-4.5 -13.976,-1.399 -27.976,-1.733 -42,-1 -1.431,0.465 -2.597,1.299 -3.5,2.5 -1.577,4.602 -3.411,8.935 -5.5,13 0.649,-4.451 1.816,-8.784 3.5,-13 1.214,-1.549 2.714,-2.715 4.5,-3.5 2.926,-0.218 5.76,-0.718 8.5,-1.5 9.011,1.328 18.011,1.328 27,0 3.487,0.739 6.987,1.573 10.5,2.5 3.699,3.846 6.199,8.346 7.5,13.5 0.371,-5.971 -0.129,-11.804 -1.5,-17.5 1.072,-3.643 2.072,-7.643 3,-12 -0.145,-0.772 -0.478,-1.439 -1,-2 -3.148,-1.424 -6.148,-2.924 -9,-4.5 2.306,0.493 4.639,0.826 7,1 2.327,0.253 4.327,-0.414 6,-2 0.449,2.544 0.449,5.21 0,8 z"
         id="path205" />
    </g>
    <g
       id="g206"
       style="clip-rule:evenodd;fill-rule:evenodd;image-rendering:optimizeQuality;shape-rendering:geometricPrecision;text-rendering:geometricPrecision"
       transform="matrix(0.32438399,0,0,0.32438399,-127.23318,-7.0708926)">
      <path
         style="opacity:1"
         fill="#f9f09e"
         d="m 585.5,234.5 c 0.313,3.542 -0.021,6.875 -1,10 0.167,-17.337 0,-34.67 -0.5,-52 -0.383,0.556 -0.883,0.889 -1.5,1 -0.333,-19.678 0,-39.345 1,-59 0.586,0.209 1.086,0.543 1.5,1 0.5,32.998 0.667,65.998 0.5,99 z"
         id="path206" />
    </g>
    <g
       id="g208"
       style="clip-rule:evenodd;fill-rule:evenodd;image-rendering:optimizeQuality;shape-rendering:geometricPrecision;text-rendering:geometricPrecision"
       transform="matrix(0.32438399,0,0,0.32438399,-127.23318,-7.0708926)">
      <path
         style="opacity:1"
         fill="#f9f6cc"
         d="m 501.5,160.5 c 0.83,8.824 1.33,17.824 1.5,27 1.461,1.383 2.294,1.049 2.5,-1 2.089,-4.065 3.923,-8.398 5.5,-13 0.903,-1.201 2.069,-2.035 3.5,-2.5 14.024,-0.733 28.024,-0.399 42,1 2.809,0.312 4.476,1.812 5,4.5 -1.127,-0.622 -2.127,-1.455 -3,-2.5 -15.338,-1.913 -30.671,-1.913 -46,0 -1.723,2.943 -2.723,6.11 -3,9.5 -2.949,5.031 -2.616,9.698 1,14 16.492,0.997 33.158,1.33 50,1 -16.828,1.162 -33.828,1.328 -51,0.5 -2.487,-3.615 -4.654,-3.782 -6.5,-0.5 -0.499,3.986 -0.666,7.986 -0.5,12 -1.121,2.454 -1.954,5.121 -2.5,8 -1.039,1.21 -2.206,2.21 -3.5,3 0.538,-1.617 0.871,-3.284 1,-5 1.368,-2.064 2.368,-4.398 3,-7 0.999,-16.32 1.333,-32.653 1,-49 z"
         id="path208" />
    </g>
    <g
       id="g210"
       style="clip-rule:evenodd;fill-rule:evenodd;image-rendering:optimizeQuality;shape-rendering:geometricPrecision;text-rendering:geometricPrecision"
       transform="matrix(0.32438399,0,0,0.32438399,-127.23318,-7.0708926)">
      <path
         style="opacity:1"
         fill="#ead576"
         d="m 497.5,149.5 c 0.667,1 1.333,2 2,3 0,0.667 0.333,1 1,1 0.869,2.217 1.202,4.55 1,7 0.333,16.347 -10e-4,32.68 -1,49 -0.632,2.602 -1.632,4.936 -3,7 2.152,-20.114 2.485,-40.114 1,-60 0.172,-0.992 -0.162,-1.658 -1,-2 0,-1.667 0,-3.333 0,-5 z"
         id="path210" />
    </g>
    <g
       id="g211"
       style="clip-rule:evenodd;fill-rule:evenodd;image-rendering:optimizeQuality;shape-rendering:geometricPrecision;text-rendering:geometricPrecision"
       transform="matrix(0.32438399,0,0,0.32438399,-127.23318,-7.0708926)">
      <path
         style="opacity:1"
         fill="#f4eeb4"
         d="m 520.5,175.5 c 12.333,0 24.667,0 37,0 0,1 0,2 0,3 -1,0 -2,0 -3,0 0.315,3.871 -0.018,7.538 -1,11 0,-3.333 0,-6.667 0,-10 -1,0 -2,0 -3,0 0,3.667 0,7.333 0,11 1,0 2,0 3,0 -7.859,1.252 -15.859,1.252 -24,0 -1.847,1.073 -3.847,1.073 -6,0 0,-3 0,-6 0,-9 1.846,0.278 3.18,-0.389 4,-2 -2.586,-0.98 -5.253,-1.313 -8,-1 0.057,-1.109 0.39,-2.109 1,-3 z"
         id="path211" />
    </g>
    <g
       id="g212"
       style="clip-rule:evenodd;fill-rule:evenodd;image-rendering:optimizeQuality;shape-rendering:geometricPrecision;text-rendering:geometricPrecision"
       transform="matrix(0.32438399,0,0,0.32438399,-127.23318,-7.0708926)">
      <path
         style="opacity:1"
         fill="#f5e798"
         d="m 571.5,158.5 c -0.33,17.508 0.003,34.841 1,52 0,0.333 0,0.667 0,1 0,1 0,2 0,3 -0.667,-1 -1.333,-2 -2,-3 -0.33,-17.841 0.003,-35.508 1,-53 z"
         id="path212" />
    </g>
    <g
       id="g213"
       style="clip-rule:evenodd;fill-rule:evenodd;image-rendering:optimizeQuality;shape-rendering:geometricPrecision;text-rendering:geometricPrecision"
       transform="matrix(0.32438399,0,0,0.32438399,-127.23318,-7.0708926)">
      <path
         style="opacity:1"
         fill="#f9f8d3"
         d="m 520.5,175.5 c -0.61,0.891 -0.943,1.891 -1,3 -0.543,0.06 -0.876,0.393 -1,1 1.812,3.399 2.479,7.066 2,11 1,0 2,0 3,0 2.153,1.073 4.153,1.073 6,0 8.141,1.252 16.141,1.252 24,0 0,-0.333 0,-0.667 0,-1 0.982,-3.462 1.315,-7.129 1,-11 1,0 2,0 3,0 1.132,3.051 2.132,6.051 3,9 0,2 0,4 0,6 -16.333,0 -32.667,0 -49,0 0,-1.667 0,-3.333 0,-5 0.724,-4.004 1.557,-8.004 2.5,-12 2.041,-0.923 4.208,-1.256 6.5,-1 z"
         id="path213" />
    </g>
    <g
       id="g214"
       style="clip-rule:evenodd;fill-rule:evenodd;image-rendering:optimizeQuality;shape-rendering:geometricPrecision;text-rendering:geometricPrecision"
       transform="matrix(0.32438399,0,0,0.32438399,-127.23318,-7.0708926)">
      <path
         style="opacity:1"
         fill="#deca6c"
         d="m 539.5,178.5 c 2.987,0.498 5.987,0.998 9,1.5 -1.456,2.266 -2.29,4.766 -2.5,7.5 -1.356,0.88 -2.856,1.214 -4.5,1 0.184,-3.579 -0.483,-6.913 -2,-10 z"
         id="path214" />
    </g>
    <g
       id="g215"
       style="clip-rule:evenodd;fill-rule:evenodd;image-rendering:optimizeQuality;shape-rendering:geometricPrecision;text-rendering:geometricPrecision"
       transform="matrix(0.32438399,0,0,0.32438399,-127.23318,-7.0708926)">
      <path
         style="opacity:1"
         fill="#dec971"
         d="m 529.5,190.5 c -1.149,-0.291 -1.816,-1.124 -2,-2.5 1.117,-2.731 1.783,-5.565 2,-8.5 1.644,-0.214 3.144,0.12 4.5,1 1.665,2.947 2.165,5.947 1.5,9 -2.548,-1.685 -4.548,-1.352 -6,1 z"
         id="path215" />
    </g>
    <g
       id="g216"
       style="clip-rule:evenodd;fill-rule:evenodd;image-rendering:optimizeQuality;shape-rendering:geometricPrecision;text-rendering:geometricPrecision"
       transform="matrix(0.32438399,0,0,0.32438399,-127.23318,-7.0708926)">
      <path
         style="opacity:1"
         fill="#d8ca7d"
         d="m 553.5,189.5 c 0,0.333 0,0.667 0,1 -1,0 -2,0 -3,0 0,-3.667 0,-7.333 0,-11 1,0 2,0 3,0 0,3.333 0,6.667 0,10 z"
         id="path216" />
    </g>
    <g
       id="g217"
       style="clip-rule:evenodd;fill-rule:evenodd;image-rendering:optimizeQuality;shape-rendering:geometricPrecision;text-rendering:geometricPrecision"
       transform="matrix(0.32438399,0,0,0.32438399,-127.23318,-7.0708926)">
      <path
         style="opacity:1"
         fill="#faf9e7"
         d="m 515.5,179.5 c 1.48,4.18 3.147,8.346 5,12.5 -2.646,0.497 -5.313,0.664 -8,0.5 0.706,-4.409 1.706,-8.742 3,-13 z"
         id="path217" />
    </g>
    <g
       id="g218"
       style="clip-rule:evenodd;fill-rule:evenodd;image-rendering:optimizeQuality;shape-rendering:geometricPrecision;text-rendering:geometricPrecision"
       transform="matrix(0.32438399,0,0,0.32438399,-127.23318,-7.0708926)">
      <path
         style="opacity:1"
         fill="#d8c97c"
         d="m 519.5,178.5 c 2.747,-0.313 5.414,0.02 8,1 -0.82,1.611 -2.154,2.278 -4,2 0,3 0,6 0,9 -1,0 -2,0 -3,0 0.479,-3.934 -0.188,-7.601 -2,-11 0.124,-0.607 0.457,-0.94 1,-1 z"
         id="path218" />
    </g>
    <g
       id="g219"
       style="clip-rule:evenodd;fill-rule:evenodd;image-rendering:optimizeQuality;shape-rendering:geometricPrecision;text-rendering:geometricPrecision"
       transform="matrix(0.32438399,0,0,0.32438399,-127.23318,-7.0708926)">
      <path
         style="opacity:1"
         fill="#faf8d2"
         d="m 571.5,155.5 c 0,1 0,2 0,3 -0.997,17.492 -1.33,35.159 -1,53 -1.513,-10.29 -2.18,-20.79 -2,-31.5 0.167,-7.167 0.333,-14.333 0.5,-21.5 0.852,-1.071 1.685,-2.071 2.5,-3 z"
         id="path219" />
    </g>
    <g
       id="g221"
       style="clip-rule:evenodd;fill-rule:evenodd;image-rendering:optimizeQuality;shape-rendering:geometricPrecision;text-rendering:geometricPrecision"
       transform="matrix(0.32438399,0,0,0.32438399,-127.23318,-7.0708926)">
      <path
         style="opacity:1"
         fill="#e0cf7d"
         d="m 510.5,188.5 c 0,2 0,4 0,6 17,0 34,0 51,0 0.302,-2.559 -0.032,-4.893 -1,-7 -0.16,-1.699 0.006,-3.366 0.5,-5 0.845,2.111 1.678,4.111 2.5,6 1.692,3.369 1.026,6.202 -2,8.5 -16.997,0.5 -33.997,0.667 -51,0.5 -3.616,-4.302 -3.949,-8.969 -1,-14 0.722,-0.418 1.222,-1.084 1.5,-2 0.334,2.347 0.167,4.681 -0.5,7 z"
         id="path221" />
    </g>
    <g
       id="g222"
       style="clip-rule:evenodd;fill-rule:evenodd;image-rendering:optimizeQuality;shape-rendering:geometricPrecision;text-rendering:geometricPrecision"
       transform="matrix(0.32438399,0,0,0.32438399,-127.23318,-7.0708926)">
      <path
         style="opacity:1"
         fill="#f9f3b7"
         d="m 560.5,187.5 c 0.968,2.107 1.302,4.441 1,7 -17,0 -34,0 -51,0 0,-2 0,-4 0,-6 0.333,0 0.667,0 1,0 0,1.667 0,3.333 0,5 16.333,0 32.667,0 49,0 0,-2 0,-4 0,-6 z"
         id="path222" />
    </g>
    <g
       id="g226"
       style="clip-rule:evenodd;fill-rule:evenodd;image-rendering:optimizeQuality;shape-rendering:geometricPrecision;text-rendering:geometricPrecision"
       transform="matrix(0.32438399,0,0,0.32438399,-127.23318,-7.0708926)">
      <path
         style="opacity:1"
         fill="#f9f1b7"
         d="m 563.5,187.5 c 0.617,0.111 1.117,0.444 1.5,1 0.768,3.575 0.268,6.908 -1.5,10 -1,0 -2,0 -3,0 -16.842,0.33 -33.508,-0.003 -50,-1 17.003,0.167 34.003,0 51,-0.5 3.026,-2.298 3.692,-5.131 2,-8.5 0,-0.333 0,-0.667 0,-1 z"
         id="path226" />
    </g>
    <g
       id="g229"
       style="clip-rule:evenodd;fill-rule:evenodd;image-rendering:optimizeQuality;shape-rendering:geometricPrecision;text-rendering:geometricPrecision"
       transform="matrix(0.32438399,0,0,0.32438399,-127.23318,-7.0708926)">
      <path
         style="opacity:1"
         fill="#faf9f8"
         d="m 560.5,198.5 c 1,0 2,0 3,0 1.208,-0.734 2.541,-1.067 4,-1 0.546,7.825 1.546,15.492 3,23 -5.266,-0.311 -10.266,0.355 -15,2 -1.333,0.333 -2.667,0.667 -4,1 -14.299,0.613 -28.466,-0.387 -42.5,-3 -2.033,0.006 -3.866,0.339 -5.5,1 -1.175,0.219 -2.175,-0.114 -3,-1 1.302,-3.208 1.969,-6.541 2,-10 -0.166,-4.014 10e-4,-8.014 0.5,-12 1.846,-3.282 4.013,-3.115 6.5,0.5 17.172,0.828 34.172,0.662 51,-0.5 z"
         id="path229" />
    </g>
    <g
       id="g231"
       style="clip-rule:evenodd;fill-rule:evenodd;image-rendering:optimizeQuality;shape-rendering:geometricPrecision;text-rendering:geometricPrecision"
       transform="matrix(0.32438399,0,0,0.32438399,-127.23318,-7.0708926)">
      <path
         style="opacity:1"
         fill="#eeca41"
         d="m 572.5,211.5 c 0,-0.333 0,-0.667 0,-1 -0.167,-18.003 0,-36.003 0.5,-54 2.294,-4.462 4.294,-9.129 6,-14 0.333,0.333 0.667,0.667 1,1 0.91,25.36 0.577,50.693 -1,76 -0.333,0.333 -0.667,0.667 -1,1 -1.357,-3.398 -3.19,-6.398 -5.5,-9 z"
         id="path231" />
    </g>
    <g
       id="g239"
       style="clip-rule:evenodd;fill-rule:evenodd;image-rendering:optimizeQuality;shape-rendering:geometricPrecision;text-rendering:geometricPrecision"
       transform="matrix(0.32438399,0,0,0.32438399,-127.23318,-7.0708926)">
      <path
         style="opacity:1"
         fill="#eaca48"
         d="m 497.5,149.5 c 0,1.667 0,3.333 0,5 -0.969,-2.523 -2.635,-4.523 -5,-6 -1.227,22.685 -0.894,45.351 1,68 2.108,-1.882 3.441,-4.215 4,-7 -2.749,-2.487 -2.583,-4.82 0.5,-7 0.5,-15.33 0.667,-30.663 0.5,-46 1.485,19.886 1.152,39.886 -1,60 -1.024,2.012 -2.524,3.678 -4.5,5 -0.667,-0.667 -1.333,-1.333 -2,-2 -0.811,-26.186 -0.644,-52.353 0.5,-78.5 0.333,-0.833 0.667,-1.667 1,-2.5 0.726,4.214 2.393,7.881 5,11 z"
         id="path239" />
    </g>
    <g
       id="g240"
       style="clip-rule:evenodd;fill-rule:evenodd;image-rendering:optimizeQuality;shape-rendering:geometricPrecision;text-rendering:geometricPrecision"
       transform="matrix(0.32438399,0,0,0.32438399,-127.23318,-7.0708926)">
      <path
         style="opacity:1"
         fill="#f9f3ab"
         d="m 489.5,134.5 c -0.302,30.358 0.031,60.692 1,91 1.052,0.149 2.052,-0.017 3,-0.5 0.663,-1.518 1.663,-2.685 3,-3.5 -0.724,4.491 -3.391,6.158 -8,5 0,6 0,12 0,18 0,4.333 0,8.667 0,13 -0.802,-1.452 -1.302,-3.118 -1.5,-5 -0.5,-39.332 -0.667,-78.665 -0.5,-118 1,0 2,0 3,0 z"
         id="path240" />
    </g>
    <g
       id="g241"
       style="clip-rule:evenodd;fill-rule:evenodd;image-rendering:optimizeQuality;shape-rendering:geometricPrecision;text-rendering:geometricPrecision"
       transform="matrix(0.32438399,0,0,0.32438399,-127.23318,-7.0708926)">
      <path
         style="opacity:1"
         fill="#e5ce6c"
         d="m 522.5,46.5 c 0,-0.3333 0,-0.6667 0,-1 1.667,0 3.333,0 5,0 10.052,0.0049 20.052,0.6716 30,2 0.667,0 1.333,0 2,0 8.017,1.9255 15.184,5.5922 21.5,11 3.295,8.8559 5.795,17.8559 7.5,27 0,0.3333 0,0.6667 0,1 0.467,13.0059 1.134,26.006 2,39 6.81,1.806 9.477,6.139 8,13 -1.419,0.951 -3.085,1.284 -5,1 -1.068,-0.934 -2.401,-1.268 -4,-1 -0.775,38.328 -1.108,76.662 -1,115 -0.333,0 -0.667,0 -1,0 0.167,-18.336 0,-36.67 -0.5,-55 -0.169,12.174 -0.669,24.174 -1.5,36 0.167,-33.002 0,-66.002 -0.5,-99 -0.414,-0.457 -0.914,-0.791 -1.5,-1 -1,19.655 -1.333,39.322 -1,59 0.321,5.526 -0.012,10.86 -1,16 0.167,-25.336 0,-50.669 -0.5,-76 -1.546,3.092 -3.046,6.092 -4.5,9 0.237,-4.21 1.57,-8.044 4,-11.5 3.455,0.961 6.955,2.127 10.5,3.5 0.833,-0.333 1.667,-0.667 2.5,-1 -2.131,-2.663 -4.631,-4.996 -7.5,-7 -0.336,-16.044 -1.336,-32.0441 -3,-48 -0.037,-2.4739 -0.87,-4.4739 -2.5,-6 0.131,-0.7389 -0.036,-1.4056 -0.5,-2 -2.139,0.0434 -4.306,0.3767 -6.5,1 -1.31,-2.9732 -3.31,-5.3065 -6,-7 1.478,-0.262 2.811,0.0713 4,1 1.375,3.0471 3.708,4.3804 7,4 -0.023,-2.4267 -0.523,-4.76 -1.5,-7 -4.678,-4.1734 -10.178,-6.5067 -16.5,-7 0,1.3333 0,2.6667 0,4 -0.333,0 -0.667,0 -1,0 0.163,-2.3568 -0.003,-4.6902 -0.5,-7 -1.356,-0.8802 -2.856,-1.2135 -4.5,-1 -1.452,-0.8019 -3.118,-1.3019 -5,-1.5 -7.993,-0.4997 -15.993,-0.6664 -24,-0.5 5.485,-0.8272 11.152,-1.3272 17,-1.5 -0.333,-0.3333 -0.667,-0.6667 -1,-1 -6.325,-0.4995 -12.658,-0.6662 -19,-0.5 z"
         id="path241" />
    </g>
    <g
       id="g243"
       style="clip-rule:evenodd;fill-rule:evenodd;image-rendering:optimizeQuality;shape-rendering:geometricPrecision;text-rendering:geometricPrecision"
       transform="matrix(0.32438399,0,0,0.32438399,-127.23318,-7.0708926)">
      <path
         style="opacity:1"
         fill="#f9f6b7"
         d="m 584.5,244.5 c -0.667,5.333 -1.333,10.667 -2,16 0,-5.667 0,-11.333 0,-17 0.988,-5.14 1.321,-10.474 1,-16 -1.915,0.284 -3.581,-0.049 -5,-1 1,0 2,0 3,0 0,-5.667 0,-11.333 0,-17 0.988,-5.14 1.321,-10.474 1,-16 0.617,-0.111 1.117,-0.444 1.5,-1 0.5,17.33 0.667,34.663 0.5,52 z"
         id="path243" />
    </g>
    <g
       id="g248"
       style="clip-rule:evenodd;fill-rule:evenodd;image-rendering:optimizeQuality;shape-rendering:geometricPrecision;text-rendering:geometricPrecision"
       transform="matrix(0.32438399,0,0,0.32438399,-127.23318,-7.0708926)">
      <path
         style="opacity:1"
         fill="#faf9f9"
         d="m 490.5,253.5 c 0,-0.333 0,-0.667 0,-1 0.458,-6.964 0.625,-14.297 0.5,-22 1.82,-2.703 4.32,-3.536 7.5,-2.5 -2.001,6.366 -4.001,12.699 -6,19 1.351,5.783 1.851,11.616 1.5,17.5 -0.333,0.333 -0.667,0.667 -1,1 -0.839,-4.137 -1.673,-8.137 -2.5,-12 z"
         id="path248" />
    </g>
    <g
       id="g249"
       style="clip-rule:evenodd;fill-rule:evenodd;image-rendering:optimizeQuality;shape-rendering:geometricPrecision;text-rendering:geometricPrecision"
       transform="matrix(0.32438399,0,0,0.32438399,-127.23318,-7.0708926)">
      <path
         style="opacity:1"
         fill="#e7cc54"
         d="m 513.5,223.5 c 1.171,0.845 2.505,1.511 4,2 11.159,1.159 22.492,1.326 34,0.5 3.633,-0.149 6.966,-0.982 10,-2.5 6.271,-2.071 8.938,0.262 8,7 -1.585,-0.974 -2.585,-2.474 -3,-4.5 -1,-0.167 -2,-0.333 -3,-0.5 -19.383,3.979 -38.716,3.979 -58,0 -0.169,4.226 -1.835,7.559 -5,10 0.184,-4.582 1.518,-8.749 4,-12.5 3.007,-0.301 6.007,-0.135 9,0.5 z"
         id="path249" />
    </g>
    <g
       id="g250"
       style="clip-rule:evenodd;fill-rule:evenodd;image-rendering:optimizeQuality;shape-rendering:geometricPrecision;text-rendering:geometricPrecision"
       transform="matrix(0.32438399,0,0,0.32438399,-127.23318,-7.0708926)">
      <path
         style="opacity:1"
         fill="#f2e086"
         d="m 561.5,223.5 c -3.034,1.518 -6.367,2.351 -10,2.5 -11.508,0.826 -22.841,0.659 -34,-0.5 11.179,0.328 22.179,-0.005 33,-1 0.333,0 0.667,0 1,0 3.333,-0.333 6.667,-0.667 10,-1 z"
         id="path250" />
    </g>
    <g
       id="g251"
       style="clip-rule:evenodd;fill-rule:evenodd;image-rendering:optimizeQuality;shape-rendering:geometricPrecision;text-rendering:geometricPrecision"
       transform="matrix(0.32438399,0,0,0.32438399,-127.23318,-7.0708926)">
      <path
         style="opacity:1"
         fill="#f9f5b5"
         d="m 513.5,223.5 c 12.307,0.895 24.641,1.228 37,1 -10.821,0.995 -21.821,1.328 -33,1 -1.495,-0.489 -2.829,-1.155 -4,-2 z"
         id="path251" />
    </g>
    <g
       id="g257"
       style="clip-rule:evenodd;fill-rule:evenodd;image-rendering:optimizeQuality;shape-rendering:geometricPrecision;text-rendering:geometricPrecision"
       transform="matrix(0.32438399,0,0,0.32438399,-127.23318,-7.0708926)">
      <path
         style="opacity:1"
         fill="#faf9eb"
         d="m 502.5,210.5 c -0.031,3.459 -0.698,6.792 -2,10 0.825,0.886 1.825,1.219 3,1 -1.336,1.51 -2.503,3.177 -3.5,5 -0.054,3.361 -1.054,6.361 -3,9 -1.172,10.291 -1.839,20.624 -2,31 -1.587,1.227 -2.921,0.894 -4,-1 -0.499,-3.986 -0.666,-7.986 -0.5,-12 0.827,3.863 1.661,7.863 2.5,12 0.333,-0.333 0.667,-0.667 1,-1 0.351,-5.884 -0.149,-11.717 -1.5,-17.5 1.999,-6.301 3.999,-12.634 6,-19 -3.18,-1.036 -5.68,-0.203 -7.5,2.5 0.125,7.703 -0.042,15.036 -0.5,22 -0.302,-2.873 -0.969,-5.539 -2,-8 0,-6 0,-12 0,-18 4.609,1.158 7.276,-0.509 8,-5 1.294,-0.79 2.461,-1.79 3.5,-3 0.546,-2.879 1.379,-5.546 2.5,-8 z"
         id="path257" />
    </g>
    <g
       id="g258"
       style="clip-rule:evenodd;fill-rule:evenodd;image-rendering:optimizeQuality;shape-rendering:geometricPrecision;text-rendering:geometricPrecision"
       transform="matrix(0.32438399,0,0,0.32438399,-127.23318,-7.0708926)">
      <path
         style="opacity:1"
         fill="#e4cb60"
         d="m 587.5,253.5 c -0.025,6.434 -0.858,12.767 -2.5,19 -0.663,3.535 -2.163,6.535 -4.5,9 0.667,-3.333 1.333,-6.667 2,-10 -1.052,-0.149 -2.052,0.017 -3,0.5 -4.42,4.925 -9.753,8.425 -16,10.5 1.172,-2.039 2.838,-3.372 5,-4 0.975,-1.693 2.308,-3.193 4,-4.5 6.138,-1.019 9.138,-4.519 9,-10.5 0.61,-0.891 0.943,-1.891 1,-3 0.667,-5.333 1.333,-10.667 2,-16 0.979,-3.125 1.313,-6.458 1,-10 0.831,-11.826 1.331,-23.826 1.5,-36 0.5,18.33 0.667,36.664 0.5,55 z"
         id="path258" />
    </g>
    <g
       id="g259"
       style="clip-rule:evenodd;fill-rule:evenodd;image-rendering:optimizeQuality;shape-rendering:geometricPrecision;text-rendering:geometricPrecision"
       transform="matrix(0.32438399,0,0,0.32438399,-127.23318,-7.0708926)">
      <path
         style="opacity:1"
         fill="#f2cd3c"
         d="m 569.5,230.5 c 1.702,5.542 2.535,11.209 2.5,17 -3.701,1.717 -7.534,3.05 -11.5,4 -8.416,0.341 -16.749,1.341 -25,3 -5.36,-0.67 -10.693,-1.503 -16,-2.5 -1.462,-1.628 -3.128,-1.795 -5,-0.5 -5.278,-1.255 -10.611,-2.255 -16,-3 -0.075,-4.481 0.592,-8.814 2,-13 3.165,-2.441 4.831,-5.774 5,-10 19.284,3.979 38.617,3.979 58,0 1,0.167 2,0.333 3,0.5 0.415,2.026 1.415,3.526 3,4.5 z"
         id="path259" />
    </g>
    <g
       id="g263"
       style="clip-rule:evenodd;fill-rule:evenodd;image-rendering:optimizeQuality;shape-rendering:geometricPrecision;text-rendering:geometricPrecision"
       transform="matrix(0.32438399,0,0,0.32438399,-127.23318,-7.0708926)">
      <path
         style="opacity:1"
         fill="#faf9f0"
         d="m 582.5,243.5 c 0,5.667 0,11.333 0,17 -0.057,1.109 -0.39,2.109 -1,3 -0.299,3.632 -2.299,5.632 -6,6 -0.078,-7.563 0.589,-15.063 2,-22.5 -0.897,-4.999 -2.23,-9.832 -4,-14.5 -1.009,-3.027 -1.009,-6.027 0,-9 1.667,1 3,2.333 4,4 1.545,0.952 3.212,1.285 5,1 0,5 0,10 0,15 z"
         id="path263" />
    </g>
    <g
       id="g266"
       style="clip-rule:evenodd;fill-rule:evenodd;image-rendering:optimizeQuality;shape-rendering:geometricPrecision;text-rendering:geometricPrecision"
       transform="matrix(0.32438399,0,0,0.32438399,-127.23318,-7.0708926)">
      <path
         style="opacity:1"
         fill="#e4d078"
         d="m 493.5,135.5 c -1.294,-0.79 -2.461,-1.79 -3.5,-3 -0.464,0.594 -0.631,1.261 -0.5,2 -1,0 -2,0 -3,0 -0.167,39.335 0,78.668 0.5,118 0.198,1.882 0.698,3.548 1.5,5 0.51,3.483 1.177,6.816 2,10 0.238,1.904 1.238,3.238 3,4 0.667,0.667 1.333,1.333 2,2 -2.395,-0.863 -4.729,-0.863 -7,0 2.161,5.83 5.828,10.497 11,14 -4.512,-1.997 -8.345,-4.997 -11.5,-9 -4.865,-21.731 -6.699,-43.731 -5.5,-66 0,-24 0,-48 0,-72 0.667,26.17 1.333,52.503 2,79 1,-28.325 1.333,-56.659 1,-85 -1.333,0 -2.667,0 -4,0 2.879,-0.997 5.712,-2.33 8.5,-4 1.775,1.27 2.942,2.936 3.5,5 z"
         id="path266" />
    </g>
    <g
       id="g268"
       style="clip-rule:evenodd;fill-rule:evenodd;image-rendering:optimizeQuality;shape-rendering:geometricPrecision;text-rendering:geometricPrecision"
       transform="matrix(0.32438399,0,0,0.32438399,-127.23318,-7.0708926)">
      <path
         style="opacity:1"
         fill="#e4cd68"
         d="m 500.5,235.5 c -1.408,4.186 -2.075,8.519 -2,13 5.389,0.745 10.722,1.745 16,3 2.279,1.151 4.612,2.151 7,3 -8.417,-2.159 -16.75,-3.492 -25,-4 -0.66,-5.637 0.673,-10.637 4,-15 z"
         id="path268" />
    </g>
    <g
       id="g272"
       style="clip-rule:evenodd;fill-rule:evenodd;image-rendering:optimizeQuality;shape-rendering:geometricPrecision;text-rendering:geometricPrecision"
       transform="matrix(0.32438399,0,0,0.32438399,-127.23318,-7.0708926)">
      <path
         style="opacity:1"
         fill="#e6d16f"
         d="m 569.5,230.5 c 3.092,4.864 5.092,10.197 6,16 0.916,5.29 -0.584,6.623 -4.5,4 -1.07,0.028 -1.903,0.361 -2.5,1 -2.652,-0.09 -4.985,0.576 -7,2 -8.227,1.711 -16.561,2.711 -25,3 -4.513,-10e-4 -8.847,-0.334 -13,-1 12.69,0.691 25.023,-0.643 37,-4 3.966,-0.95 7.799,-2.283 11.5,-4 0.035,-5.791 -0.798,-11.458 -2.5,-17 z"
         id="path272" />
    </g>
    <g
       id="g273"
       style="clip-rule:evenodd;fill-rule:evenodd;image-rendering:optimizeQuality;shape-rendering:geometricPrecision;text-rendering:geometricPrecision"
       transform="matrix(0.32438399,0,0,0.32438399,-127.23318,-7.0708926)">
      <path
         style="opacity:1"
         fill="#faf9f8"
         d="m 555.5,256.5 c 3.875,0.144 7.708,-0.19 11.5,-1 1.607,0.269 2.774,1.103 3.5,2.5 0.83,8.9 -2.503,15.733 -10,20.5 -0.886,0.825 -1.219,1.825 -1,3 -0.647,1.641 -1.647,2.974 -3,4 -10.898,1.949 -21.898,2.449 -33,1.5 -6.048,-2.251 -11.715,-5.084 -17,-8.5 -0.333,0 -0.667,0 -1,0 -1.885,-1.553 -2.885,-3.553 -3,-6 0.141,-6.136 -0.192,-11.969 -1,-17.5 5.762,0.238 11.429,1.238 17,3 11,0.667 22,0.667 33,0 1.558,-0.21 2.891,-0.71 4,-1.5 z"
         id="path273" />
    </g>
    <g
       id="g274"
       style="clip-rule:evenodd;fill-rule:evenodd;image-rendering:optimizeQuality;shape-rendering:geometricPrecision;text-rendering:geometricPrecision"
       transform="matrix(0.32438399,0,0,0.32438399,-127.23318,-7.0708926)">
      <path
         style="opacity:1"
         fill="#e6c94f"
         d="m 560.5,251.5 c -11.977,3.357 -24.31,4.691 -37,4 -0.667,-0.333 -1.333,-0.667 -2,-1 -2.388,-0.849 -4.721,-1.849 -7,-3 1.872,-1.295 3.538,-1.128 5,0.5 5.307,0.997 10.64,1.83 16,2.5 8.251,-1.659 16.584,-2.659 25,-3 z"
         id="path274" />
    </g>
    <g
       id="g277"
       style="clip-rule:evenodd;fill-rule:evenodd;image-rendering:optimizeQuality;shape-rendering:geometricPrecision;text-rendering:geometricPrecision"
       transform="matrix(0.32438399,0,0,0.32438399,-127.23318,-7.0708926)">
      <path
         style="opacity:1"
         fill="#faf8d7"
         d="m 551.5,223.5 c 0,0.333 0,0.667 0,1 -0.333,0 -0.667,0 -1,0 -12.359,0.228 -24.693,-0.105 -37,-1 -2.993,-0.635 -5.993,-0.801 -9,-0.5 -2.482,3.751 -3.816,7.918 -4,12.5 -3.327,4.363 -4.66,9.363 -4,15 0.166,5.676 -10e-4,11.343 -0.5,17 -1.71,2.397 -3.544,2.397 -5.5,0 -0.823,-3.184 -1.49,-6.517 -2,-10 0,-4.333 0,-8.667 0,-13 1.031,2.461 1.698,5.127 2,8 0,0.333 0,0.667 0,1 -0.166,4.014 10e-4,8.014 0.5,12 1.079,1.894 2.413,2.227 4,1 0.161,-10.376 0.828,-20.709 2,-31 1.946,-2.639 2.946,-5.639 3,-9 0.997,-1.823 2.164,-3.49 3.5,-5 1.634,-0.661 3.467,-0.994 5.5,-1 14.034,2.613 28.201,3.613 42.5,3 z"
         id="path277" />
    </g>
    <g
       id="g279"
       style="clip-rule:evenodd;fill-rule:evenodd;image-rendering:optimizeQuality;shape-rendering:geometricPrecision;text-rendering:geometricPrecision"
       transform="matrix(0.32438399,0,0,0.32438399,-127.23318,-7.0708926)">
      <path
         style="opacity:1"
         fill="#f9f8de"
         d="m 555.5,256.5 c -1.109,0.79 -2.442,1.29 -4,1.5 -11,0.667 -22,0.667 -33,0 -5.571,-1.762 -11.238,-2.762 -17,-3 0.808,5.531 1.141,11.364 1,17.5 -1.227,-2.916 -2.393,-5.916 -3.5,-9 -0.793,-3.923 -0.626,-7.756 0.5,-11.5 7.299,0.241 14.299,1.908 21,5 11.689,0.721 23.355,0.555 35,-0.5 z"
         id="path279" />
    </g>
    <g
       id="g285"
       style="clip-rule:evenodd;fill-rule:evenodd;image-rendering:optimizeQuality;shape-rendering:geometricPrecision;text-rendering:geometricPrecision"
       transform="matrix(0.32438399,0,0,0.32438399,-127.23318,-7.0708926)">
      <path
         style="opacity:1"
         fill="#faf9e7"
         d="m 568.5,251.5 c 1.333,0 2.667,0 4,0 0.803,9.284 -1.197,17.784 -6,25.5 -2.733,0.904 -5.067,2.404 -7,4.5 -0.219,-1.175 0.114,-2.175 1,-3 7.497,-4.767 10.83,-11.6 10,-20.5 -0.726,-1.397 -1.893,-2.231 -3.5,-2.5 -3.792,0.81 -7.625,1.144 -11.5,1 2.129,-0.703 4.129,-1.703 6,-3 2.015,-1.424 4.348,-2.09 7,-2 z"
         id="path285" />
    </g>
    <g
       id="g287"
       style="clip-rule:evenodd;fill-rule:evenodd;image-rendering:optimizeQuality;shape-rendering:geometricPrecision;text-rendering:geometricPrecision"
       transform="matrix(0.32438399,0,0,0.32438399,-127.23318,-7.0708926)">
      <path
         style="opacity:1"
         fill="#faf9eb"
         d="m 473.5,129.5 c -1.275,3.104 -1.275,6.104 0,9 0,0.333 0,0.667 0,1 0.111,0.617 0.444,1.117 1,1.5 1.973,0.495 3.973,0.662 6,0.5 -0.332,33.837 0.002,67.504 1,101 0.439,12.515 2.106,24.849 5,37 -1.801,-3.341 -3.468,-6.841 -5,-10.5 1.354,-1.957 1.021,-3.957 -1,-6 0.457,-0.414 0.791,-0.914 1,-1.5 -1.532,-6.059 -2.532,-12.226 -3,-18.5 0.235,-0.873 0.569,-1.707 1,-2.5 -1.35,-32.034 -1.85,-64.034 -1.5,-96 -1.797,-1.656 -3.964,-2.656 -6.5,-3 -2.374,-3.573 -2.541,-7.24 -0.5,-11 0.671,-0.752 1.504,-1.086 2.5,-1 z"
         id="path287" />
    </g>
    <g
       id="g288"
       style="clip-rule:evenodd;fill-rule:evenodd;image-rendering:optimizeQuality;shape-rendering:geometricPrecision;text-rendering:geometricPrecision"
       transform="matrix(0.32438399,0,0,0.32438399,-127.23318,-7.0708926)">
      <path
         style="opacity:1"
         fill="#f4efbd"
         d="m 573.5,232.5 c 1.77,4.668 3.103,9.501 4,14.5 -1.411,7.437 -2.078,14.937 -2,22.5 3.701,-0.368 5.701,-2.368 6,-6 0.138,5.981 -2.862,9.481 -9,10.5 -1.692,1.307 -3.025,2.807 -4,4.5 -4.011,0.322 -7.011,2.322 -9,6 -0.825,0.886 -1.825,1.219 -3,1 1.353,-1.026 2.353,-2.359 3,-4 1.933,-2.096 4.267,-3.596 7,-4.5 4.803,-7.716 6.803,-16.216 6,-25.5 -1.333,0 -2.667,0 -4,0 0.597,-0.639 1.43,-0.972 2.5,-1 3.916,2.623 5.416,1.29 4.5,-4 -0.908,-5.803 -2.908,-11.136 -6,-16 0.938,-6.738 -1.729,-9.071 -8,-7 -3.333,0.333 -6.667,0.667 -10,1 0,-0.333 0,-0.667 0,-1 1.333,-0.333 2.667,-0.667 4,-1 4.332,-0.597 8.665,-0.763 13,-0.5 1.894,3.462 3.561,6.962 5,10.5 z"
         id="path288" />
    </g>
    <g
       id="g294"
       style="clip-rule:evenodd;fill-rule:evenodd;image-rendering:optimizeQuality;shape-rendering:geometricPrecision;text-rendering:geometricPrecision"
       transform="matrix(0.32438399,0,0,0.32438399,-127.23318,-7.0708926)">
      <path
         style="opacity:1"
         fill="#f3edba"
         d="m 496.5,250.5 c 8.25,0.508 16.583,1.841 25,4 0.667,0.333 1.333,0.667 2,1 4.153,0.666 8.487,0.999 13,1 8.439,-0.289 16.773,-1.289 25,-3 -1.871,1.297 -3.871,2.297 -6,3 -11.645,1.055 -23.311,1.221 -35,0.5 -6.701,-3.092 -13.701,-4.759 -21,-5 -1.126,3.744 -1.293,7.577 -0.5,11.5 1.107,3.084 2.273,6.084 3.5,9 0.115,2.447 1.115,4.447 3,6 -2.956,-0.955 -4.956,-2.955 -6,-6 -1.896,-0.966 -3.896,-1.299 -6,-1 -1.762,-0.762 -2.762,-2.096 -3,-4 1.956,2.397 3.79,2.397 5.5,0 0.499,-5.657 0.666,-11.324 0.5,-17 z"
         id="path294" />
    </g>
    <g
       id="g297"
       style="clip-rule:evenodd;fill-rule:evenodd;image-rendering:optimizeQuality;shape-rendering:geometricPrecision;text-rendering:geometricPrecision"
       transform="matrix(0.32438399,0,0,0.32438399,-127.23318,-7.0708926)">
      <path
         style="opacity:1"
         fill="#edca43"
         d="m 580.5,281.5 c -3.906,4.457 -8.906,7.123 -15,8 -8.402,0.363 -9.069,-1.97 -2,-7 6.247,-2.075 11.58,-5.575 16,-10.5 0.948,-0.483 1.948,-0.649 3,-0.5 -0.667,3.333 -1.333,6.667 -2,10 z"
         id="path297" />
    </g>
    <g
       id="g299"
       style="clip-rule:evenodd;fill-rule:evenodd;image-rendering:optimizeQuality;shape-rendering:geometricPrecision;text-rendering:geometricPrecision"
       transform="matrix(0.32438399,0,0,0.32438399,-127.23318,-7.0708926)">
      <path
         style="opacity:1"
         fill="#f9f3be"
         d="m 481.5,212.5 c 0.333,0 0.667,0 1,0 -1.199,22.269 0.635,44.269 5.5,66 3.155,4.003 6.988,7.003 11.5,9 1.21,0.432 2.21,1.099 3,2 -2.89,0.222 -5.557,-0.445 -8,-2 -2.354,-3.021 -5.021,-5.688 -8,-8 -2.894,-12.151 -4.561,-24.485 -5,-37 0,-10 0,-20 0,-30 z"
         id="path299" />
    </g>
    <g
       id="g300"
       style="clip-rule:evenodd;fill-rule:evenodd;image-rendering:optimizeQuality;shape-rendering:geometricPrecision;text-rendering:geometricPrecision"
       transform="matrix(0.32438399,0,0,0.32438399,-127.23318,-7.0708926)">
      <path
         style="opacity:1"
         fill="#f1e38b"
         d="m 493.5,271.5 c 2.104,-0.299 4.104,0.034 6,1 1.044,3.045 3.044,5.045 6,6 0.333,0 0.667,0 1,0 3.401,1.563 6.068,4.063 8,7.5 1.815,0.757 3.481,1.59 5,2.5 -2.065,-0.017 -4.065,-0.35 -6,-1 -0.979,-1.265 -1.979,-2.599 -3,-4 -5.6,-2.63 -10.6,-5.963 -15,-10 -0.667,-0.667 -1.333,-1.333 -2,-2 z"
         id="path300" />
    </g>
    <g
       id="g302"
       style="clip-rule:evenodd;fill-rule:evenodd;image-rendering:optimizeQuality;shape-rendering:geometricPrecision;text-rendering:geometricPrecision"
       transform="matrix(0.32438399,0,0,0.32438399,-127.23318,-7.0708926)">
      <path
         style="opacity:1"
         fill="#ecca44"
         d="m 495.5,273.5 c 4.4,4.037 9.4,7.37 15,10 1.021,1.401 2.021,2.735 3,4 0.111,0.617 0.444,1.117 1,1.5 -2.646,0.497 -5.313,0.664 -8,0.5 -1,0 -2,0 -3,0 -0.333,0 -0.667,0 -1,0 -0.79,-0.901 -1.79,-1.568 -3,-2 -5.172,-3.503 -8.839,-8.17 -11,-14 2.271,-0.863 4.605,-0.863 7,0 z"
         id="path302" />
    </g>
    <g
       id="g308"
       style="clip-rule:evenodd;fill-rule:evenodd;image-rendering:optimizeQuality;shape-rendering:geometricPrecision;text-rendering:geometricPrecision"
       transform="matrix(0.32438399,0,0,0.32438399,-127.23318,-7.0708926)">
      <path
         style="opacity:1"
         fill="#faf6c6"
         d="m 506.5,278.5 c 5.285,3.416 10.952,6.249 17,8.5 11.102,0.949 22.102,0.449 33,-1.5 -1.1,1.058 -2.434,1.892 -4,2.5 -10.995,0.5 -21.995,0.667 -33,0.5 -1.519,-0.91 -3.185,-1.743 -5,-2.5 -1.932,-3.437 -4.599,-5.937 -8,-7.5 z"
         id="path308" />
    </g>
    <g
       id="g309"
       style="clip-rule:evenodd;fill-rule:evenodd;image-rendering:optimizeQuality;shape-rendering:geometricPrecision;text-rendering:geometricPrecision"
       transform="matrix(0.32438399,0,0,0.32438399,-127.23318,-7.0708926)">
      <path
         style="opacity:1"
         fill="#e0ce7e"
         d="m 568.5,278.5 c -2.162,0.628 -3.828,1.961 -5,4 -7.069,5.03 -6.402,7.363 2,7 -1.452,0.802 -3.118,1.302 -5,1.5 -14.987,1.179 -29.987,1.512 -45,1 -3.297,-0.204 -6.297,-1.037 -9,-2.5 2.687,0.164 5.354,-0.003 8,-0.5 -0.556,-0.383 -0.889,-0.883 -1,-1.5 1.935,0.65 3.935,0.983 6,1 11.005,0.167 22.005,0 33,-0.5 1.566,-0.608 2.9,-1.442 4,-2.5 1.175,0.219 2.175,-0.114 3,-1 1.989,-3.678 4.989,-5.678 9,-6 z"
         id="path309" />
    </g>
    <g
       id="g316"
       style="clip-rule:evenodd;fill-rule:evenodd;image-rendering:optimizeQuality;shape-rendering:geometricPrecision;text-rendering:geometricPrecision"
       transform="matrix(0.32438399,0,0,0.32438399,-127.23318,-7.0708926)">
      <path
         style="opacity:1"
         fill="#faf9e0"
         d="m 574.5,288.5 c -0.558,1.29 -1.558,2.123 -3,2.5 -7.659,1.357 -15.159,3.19 -22.5,5.5 -10.965,-0.443 -22.298,-1.109 -34,-2 -2.227,1.584 -4.06,1.251 -5.5,-1 17.355,0.229 34.689,-0.271 52,-1.5 4.432,-0.867 8.765,-2.034 13,-3.5 z"
         id="path316" />
    </g>
    <g
       id="g321"
       style="clip-rule:evenodd;fill-rule:evenodd;image-rendering:optimizeQuality;shape-rendering:geometricPrecision;text-rendering:geometricPrecision"
       transform="matrix(0.32438399,0,0,0.32438399,-127.23318,-7.0708926)">
      <path
         style="opacity:1"
         fill="#f8f0bd"
         d="m 587.5,253.5 c 0.333,0 0.667,0 1,0 0,3 0,6 0,9 0.598,10.211 -2.735,18.711 -10,25.5 -1.293,0.49 -2.627,0.657 -4,0.5 -4.235,1.466 -8.568,2.633 -13,3.5 -17.311,1.229 -34.645,1.729 -52,1.5 -2,-1.333 -4,-2.667 -6,-4 1,0 2,0 3,0 2.703,1.463 5.703,2.296 9,2.5 15.013,0.512 30.013,0.179 45,-1 1.882,-0.198 3.548,-0.698 5,-1.5 6.094,-0.877 11.094,-3.543 15,-8 2.337,-2.465 3.837,-5.465 4.5,-9 1.642,-6.233 2.475,-12.566 2.5,-19 z"
         id="path321" />
    </g>
  </g>
</svg>
