<?xml version="1.0" encoding="UTF-8" standalone="no"?>
<!-- Created with Inkscape (http://www.inkscape.org/) -->

<svg
   width="96mm"
   height="96mm"
   viewBox="0 0 96 96"
   version="1.1"
   id="svg1"
   inkscape:version="1.4.2 (ebf0e940, 2025-05-08)"
   sodipodi:docname="truck.svg"
   xmlns:inkscape="http://www.inkscape.org/namespaces/inkscape"
   xmlns:sodipodi="http://sodipodi.sourceforge.net/DTD/sodipodi-0.dtd"
   xmlns="http://www.w3.org/2000/svg"
   xmlns:svg="http://www.w3.org/2000/svg">
  <sodipodi:namedview
     id="namedview1"
     pagecolor="#ffffff"
     bordercolor="#000000"
     borderopacity="0.25"
     inkscape:showpageshadow="2"
     inkscape:pageopacity="0.0"
     inkscape:pagecheckerboard="0"
     inkscape:deskcolor="#d1d1d1"
     inkscape:document-units="mm"
     inkscape:zoom="0.80444024"
     inkscape:cx="397.17059"
     inkscape:cy="262.91574"
     inkscape:window-width="1920"
     inkscape:window-height="1052"
     inkscape:window-x="0"
     inkscape:window-y="28"
     inkscape:window-maximized="0"
     inkscape:current-layer="layer1" />
  <defs
     id="defs1" />
  <g
     inkscape:label="Layer 1"
     inkscape:groupmode="layer"
     id="layer1">
    <g
       id="g3"
       style="clip-rule:evenodd;fill-rule:evenodd;image-rendering:optimizeQuality;shape-rendering:geometricPrecision;text-rendering:geometricPrecision"
       transform="matrix(0.29798547,0,0,0.29798547,-318.74896,-2.9550558)">
      <path
         style="opacity:1"
         fill="#f9f7ca"
         d="m 1262.5,46.5 c 2.25,0.6302 4.25,1.6302 6,3 -8.72,-1.1204 -17.39,-2.4538 -26,-4 -10.51,-1.2211 -21.18,-1.2211 -32,0 1.11,-0.79 2.44,-1.29 4,-1.5 16.13,-1.0962 32.13,-0.2628 48,2.5 z"
         id="path3" />
    </g>
    <g
       id="g4"
       style="clip-rule:evenodd;fill-rule:evenodd;image-rendering:optimizeQuality;shape-rendering:geometricPrecision;text-rendering:geometricPrecision"
       transform="matrix(0.29798547,0,0,0.29798547,-318.74896,-2.9550558)">
      <path
         style="opacity:1"
         fill="#f9f1b2"
         d="m 1242.5,45.5 c -16.51,-1.3735 -32.51,0.6265 -48,6 4.53,-3.7378 9.86,-5.7378 16,-6 10.82,-1.2211 21.49,-1.2211 32,0 z"
         id="path4" />
    </g>
    <g
       id="g18"
       style="clip-rule:evenodd;fill-rule:evenodd;image-rendering:optimizeQuality;shape-rendering:geometricPrecision;text-rendering:geometricPrecision"
       transform="matrix(0.29798547,0,0,0.29798547,-318.74896,-2.9550558)">
      <path
         style="opacity:1"
         fill="#faf9f9"
         d="m 1214.5,53.5 c 12.98,0.7566 25.98,1.2566 39,1.5 1.32,0.8159 1.99,1.9826 2,3.5 1.06,3.1536 3.06,5.9869 6,8.5 -0.96,1.1475 -0.62,2.1475 1,3 -3.92,1.5416 -8.08,1.0416 -12.5,-1.5 -5.04,0.4408 -10.21,0.4408 -15.5,0 -11.18,0.0195 -22.18,1.3528 -33,4 -0.09,-4.2252 1.74,-7.8919 5.5,-11 0.68,-4.5134 3.18,-7.1801 7.5,-8 z"
         id="path18" />
    </g>
    <g
       id="g26"
       style="clip-rule:evenodd;fill-rule:evenodd;image-rendering:optimizeQuality;shape-rendering:geometricPrecision;text-rendering:geometricPrecision"
       transform="matrix(0.29798547,0,0,0.29798547,-318.74896,-2.9550558)">
      <path
         style="opacity:1"
         fill="#e7d069"
         d="m 1242.5,45.5 c 8.61,1.5462 17.28,2.8796 26,4 5.38,1.7126 8.71,5.3793 10,11 0.17,3.3499 0,6.6832 -0.5,10 -1.19,-1.8772 -2.19,-3.8772 -3,-6 -0.67,-0.7524 -1.5,-1.0858 -2.5,-1 -1.53,-6.1221 -5.53,-9.4554 -12,-10 -0.35,2.9534 0.65,5.2867 3,7 -4.17,-1.437 -6.17,-4.437 -6,-9 -14.32,0.7975 -28.65,1.1308 -43,1 -2.11,-0.9682 -4.44,-1.3016 -7,-1 0,1.6667 0,3.3333 0,5 -2,1.6667 -4,3.3333 -6,5 1.93,-2.2808 2.93,-4.9475 3,-8 -6.29,0.6258 -9.95,3.9591 -11,10 -0.77,-0.7625 -1.27,-1.7625 -1.5,-3 -2.1,2.6066 -2.94,5.6066 -2.5,9 0,3.6667 0,7.3333 0,11 -0.77,0.672 -1.43,1.5053 -2,2.5 -3.73,0.2474 -6.07,2.0807 -7,5.5 3.34,-0.4347 6.34,0.2319 9,2 0,12.333 0,24.667 0,37 -0.81,-0.929 -1.65,-1.929 -2.5,-3 -0.5,2.044 -1.66,3.378 -3.5,4 -0.24,-1.291 0.1,-2.291 1,-3 0.99,-10.821 1.33,-21.821 1,-33 -3.64,0.6143 -7.3,0.9476 -11,1 -1.13,-2.1282 -1.3,-4.4615 -0.5,-7 3.16,-3.3918 6.66,-6.0584 10.5,-8 0.69,-5.8798 1.52,-11.8798 2.5,-18 0.85,-3.0924 2.35,-5.7591 4.5,-8 0.89,-0.6098 1.89,-0.9431 3,-1 15.49,-5.3735 31.49,-7.3735 48,-6 z"
         id="path26" />
    </g>
    <g
       id="g27"
       style="clip-rule:evenodd;fill-rule:evenodd;image-rendering:optimizeQuality;shape-rendering:geometricPrecision;text-rendering:geometricPrecision"
       transform="matrix(0.29798547,0,0,0.29798547,-318.74896,-2.9550558)">
      <path
         style="opacity:1"
         fill="#faf6c8"
         d="m 1263.5,60.5 c 0.06,1.109 0.39,2.109 1,3 -3.18,-1.4058 -6.18,-3.0725 -9,-5 -0.01,-1.5174 -0.68,-2.6841 -2,-3.5 -13.02,-0.2434 -26.02,-0.7434 -39,-1.5 0,-0.3333 0,-0.6667 0,-1 14.35,0.1308 28.68,-0.2025 43,-1 -0.17,4.563 1.83,7.563 6,9 z"
         id="path27" />
    </g>
    <g
       id="g28"
       style="clip-rule:evenodd;fill-rule:evenodd;image-rendering:optimizeQuality;shape-rendering:geometricPrecision;text-rendering:geometricPrecision"
       transform="matrix(0.29798547,0,0,0.29798547,-318.74896,-2.9550558)">
      <path
         style="opacity:1"
         fill="#eecb46"
         d="m 1215.5,47.5 c 10.72,-0.3746 21.39,0.1254 32,1.5 -10.23,1.6172 -20.57,1.9505 -31,1 -0.75,-0.6708 -1.09,-1.5041 -1,-2.5 z"
         id="path28" />
    </g>
    <g
       id="g29"
       style="clip-rule:evenodd;fill-rule:evenodd;image-rendering:optimizeQuality;shape-rendering:geometricPrecision;text-rendering:geometricPrecision"
       transform="matrix(0.29798547,0,0,0.29798547,-318.74896,-2.9550558)">
      <path
         style="opacity:1"
         fill="#faf9e3"
         d="m 1262.5,46.5 c -15.87,-2.7628 -31.87,-3.5962 -48,-2.5 -1.56,0.21 -2.89,0.71 -4,1.5 -6.14,0.2622 -11.47,2.2622 -16,6 -1.11,0.0569 -2.11,0.3902 -3,1 -2.97,0.8084 -4.8,2.8084 -5.5,6 -1.33,6.592 -1.83,13.2586 -1.5,20 -3.84,1.9416 -7.34,4.6082 -10.5,8 -0.8,2.5385 -0.63,4.8718 0.5,7 0.33,0.6667 0.67,1.3333 1,2 -1.32,0.17 -2.49,-0.1634 -3.5,-1 -0.45,-3.6875 -0.28,-7.3542 0.5,-11 2.63,-3.4172 5.79,-6.0839 9.5,-8 -1.14,-7.8012 0.36,-15.4679 4.5,-23 3.75,-1.5881 7.08,-3.7547 10,-6.5 14.2,-3.1923 28.36,-4.6923 42.5,-4.5 8.22,0.2712 16.06,1.9378 23.5,5 z"
         id="path29" />
    </g>
    <g
       id="g38"
       style="clip-rule:evenodd;fill-rule:evenodd;image-rendering:optimizeQuality;shape-rendering:geometricPrecision;text-rendering:geometricPrecision"
       transform="matrix(0.29798547,0,0,0.29798547,-318.74896,-2.9550558)">
      <path
         style="opacity:1"
         fill="#e8cc59"
         d="m 1272.5,63.5 c -2,1.3333 -4,1.3333 -6,0 -0.67,0 -1.33,0 -2,0 -0.61,-0.891 -0.94,-1.891 -1,-3 -2.35,-1.7133 -3.35,-4.0466 -3,-7 6.47,0.5446 10.47,3.8779 12,10 z"
         id="path38" />
    </g>
    <g
       id="g42"
       style="clip-rule:evenodd;fill-rule:evenodd;image-rendering:optimizeQuality;shape-rendering:geometricPrecision;text-rendering:geometricPrecision"
       transform="matrix(0.29798547,0,0,0.29798547,-318.74896,-2.9550558)">
      <path
         style="opacity:1"
         fill="#e8cb50"
         d="m 1201.5,61.5 c -2.38,2.5622 -5.05,3.2288 -8,2 1.05,-6.0409 4.71,-9.3742 11,-10 -0.07,3.0525 -1.07,5.7192 -3,8 z"
         id="path42" />
    </g>
    <g
       id="g43"
       style="clip-rule:evenodd;fill-rule:evenodd;image-rendering:optimizeQuality;shape-rendering:geometricPrecision;text-rendering:geometricPrecision"
       transform="matrix(0.29798547,0,0,0.29798547,-318.74896,-2.9550558)">
      <path
         style="opacity:1"
         fill="#faf9eb"
         d="m 1214.5,52.5 c 0,0.3333 0,0.6667 0,1 -4.32,0.8199 -6.82,3.4866 -7.5,8 -3.76,3.1081 -5.59,6.7748 -5.5,11 10.82,-2.6472 21.82,-3.9805 33,-4 5.29,0.4408 10.46,0.4408 15.5,0 4.42,2.5416 8.58,3.0416 12.5,1.5 -1.62,-0.8525 -1.96,-1.8525 -1,-3 -2.94,-2.5131 -4.94,-5.3464 -6,-8.5 2.82,1.9275 5.82,3.5942 9,5 0.6,2.8319 1.27,5.6652 2,8.5 -0.23,1.7324 -1.23,2.5658 -3,2.5 -12.91,-4.5484 -26.24,-6.0484 -40,-4.5 -1.56,0.21 -2.89,0.71 -4,1.5 -5.71,-0.0951 -11.04,1.2382 -16,4 -1.67,0 -3.33,0 -5,0 0.6,-4.7534 2.27,-9.0867 5,-13 1.75,-1.7459 3.08,-3.7459 4,-6 0,-1.6667 0,-3.3333 0,-5 2.56,-0.3016 4.89,0.0318 7,1 z"
         id="path43" />
    </g>
    <g
       id="g48"
       style="clip-rule:evenodd;fill-rule:evenodd;image-rendering:optimizeQuality;shape-rendering:geometricPrecision;text-rendering:geometricPrecision"
       transform="matrix(0.29798547,0,0,0.29798547,-318.74896,-2.9550558)">
      <path
         style="opacity:1"
         fill="#faf9db"
         d="m 1268.5,49.5 c 4.77,-0.0726 8.1,2.0941 10,6.5 0.95,0.4828 1.95,0.6495 3,0.5 0.28,2.6178 0.95,5.1178 2,7.5 -1.19,4.7874 -1.19,9.6208 0,14.5 2.83,0.4977 5.16,1.8311 7,4 0.61,0.891 0.94,1.891 1,3 -1.42,-1.425 -3.09,-2.425 -5,-3 -1.41,-1.5542 -3.08,-2.8875 -5,-4 -0.83,-5.3025 -1.33,-10.6358 -1.5,-16 -0.28,-0.9158 -0.78,-1.5825 -1.5,-2 -1.29,-5.6207 -4.62,-9.2874 -10,-11 z"
         id="path48" />
    </g>
    <g
       id="g56"
       style="clip-rule:evenodd;fill-rule:evenodd;image-rendering:optimizeQuality;shape-rendering:geometricPrecision;text-rendering:geometricPrecision"
       transform="matrix(0.29798547,0,0,0.29798547,-318.74896,-2.9550558)">
      <path
         style="opacity:1"
         fill="#f9f4c0"
         d="m 1191.5,52.5 c -2.15,2.2409 -3.65,4.9076 -4.5,8 -0.98,6.1202 -1.81,12.1202 -2.5,18 -0.33,-6.7414 0.17,-13.408 1.5,-20 0.7,-3.1916 2.53,-5.1916 5.5,-6 z"
         id="path56" />
    </g>
    <g
       id="g57"
       style="clip-rule:evenodd;fill-rule:evenodd;image-rendering:optimizeQuality;shape-rendering:geometricPrecision;text-rendering:geometricPrecision"
       transform="matrix(0.29798547,0,0,0.29798547,-318.74896,-2.9550558)">
      <path
         style="opacity:1"
         fill="#f9f7d3"
         d="m 1195.5,83.5 c 0,0.3333 0,0.6667 0,1 0.99,1.8344 0.99,3.5011 0,5 -2.06,0.0172 -4.06,0.3505 -6,1 0.12,-1.9835 -0.55,-3.6502 -2,-5 1.45,-1.3498 2.12,-3.0165 2,-5 0,-3.6667 0,-7.3333 0,-11 0.77,-1.1602 1.77,-2.1602 3,-3 0.69,0.5253 1.19,1.1919 1.5,2 0.17,5.1835 0.67,10.1835 1.5,15 z"
         id="path57" />
    </g>
    <g
       id="g58"
       style="clip-rule:evenodd;fill-rule:evenodd;image-rendering:optimizeQuality;shape-rendering:geometricPrecision;text-rendering:geometricPrecision"
       transform="matrix(0.29798547,0,0,0.29798547,-318.74896,-2.9550558)">
      <path
         style="opacity:1"
         fill="#faf9d8"
         d="m 1264.5,63.5 c 0.67,0 1.33,0 2,0 0.87,4.2685 1.21,8.6018 1,13 -2.63,-0.5916 -5.29,-0.9249 -8,-1 -0.12,-1.0862 -0.79,-1.7528 -2,-2 -2,-0.5 -4,-1 -6,-1.5 -10.66,-0.4998 -21.33,-0.6665 -32,-0.5 1.11,-0.79 2.44,-1.29 4,-1.5 13.76,-1.5484 27.09,-0.0484 40,4.5 1.77,0.0658 2.77,-0.7676 3,-2.5 -0.73,-2.8348 -1.4,-5.6681 -2,-8.5 z"
         id="path58" />
    </g>
    <g
       id="g60"
       style="clip-rule:evenodd;fill-rule:evenodd;image-rendering:optimizeQuality;shape-rendering:geometricPrecision;text-rendering:geometricPrecision"
       transform="matrix(0.29798547,0,0,0.29798547,-318.74896,-2.9550558)">
      <path
         style="opacity:1"
         fill="#f8f6c8"
         d="m 1203.5,62.5 c -2.73,3.9133 -4.4,8.2466 -5,13 1.67,0 3.33,0 5,0 0,0.3333 0,0.6667 0,1 -2.25,0.9552 -4.58,1.6218 -7,2 -0.24,-3.7733 0.26,-7.4399 1.5,-11 1.08,-2.579 2.91,-4.2457 5.5,-5 z"
         id="path60" />
    </g>
    <g
       id="g61"
       style="clip-rule:evenodd;fill-rule:evenodd;image-rendering:optimizeQuality;shape-rendering:geometricPrecision;text-rendering:geometricPrecision"
       transform="matrix(0.29798547,0,0,0.29798547,-318.74896,-2.9550558)">
      <path
         style="opacity:1"
         fill="#f5e99d"
         d="m 1219.5,71.5 c 10.67,-0.1665 21.34,2e-4 32,0.5 2,0.5 4,1 6,1.5 1.21,0.2472 1.88,0.9138 2,2 -1.33,0 -2.67,0 -4,0 -0.42,-0.7216 -1.08,-1.2216 -2,-1.5 -16.87,-2.4917 -33.54,-1.6584 -50,2.5 0,-0.3333 0,-0.6667 0,-1 4.96,-2.7618 10.29,-4.0951 16,-4 z"
         id="path61" />
    </g>
    <g
       id="g63"
       style="clip-rule:evenodd;fill-rule:evenodd;image-rendering:optimizeQuality;shape-rendering:geometricPrecision;text-rendering:geometricPrecision"
       transform="matrix(0.29798547,0,0,0.29798547,-318.74896,-2.9550558)">
      <path
         style="opacity:1"
         fill="#e6ca56"
         d="m 1255.5,75.5 c -14.13,-0.9581 -28.13,-1.1248 -42,-0.5 -5.39,1.4647 -10.73,3.1314 -16,5 -0.88,1.3561 -1.21,2.8561 -1,4.5 -0.33,0 -0.67,0 -1,0 0,-0.3333 0,-0.6667 0,-1 -0.28,-1.9147 0.05,-3.5813 1,-5 2.42,-0.3782 4.75,-1.0448 7,-2 16.46,-4.1584 33.13,-4.9917 50,-2.5 0.92,0.2784 1.58,0.7784 2,1.5 z"
         id="path63" />
    </g>
    <g
       id="g64"
       style="clip-rule:evenodd;fill-rule:evenodd;image-rendering:optimizeQuality;shape-rendering:geometricPrecision;text-rendering:geometricPrecision"
       transform="matrix(0.29798547,0,0,0.29798547,-318.74896,-2.9550558)">
      <path
         style="opacity:1"
         fill="#e7de9d"
         d="m 1207.5,56.5 c -0.92,2.2541 -2.25,4.2541 -4,6 -2.59,0.7543 -4.42,2.421 -5.5,5 -1.24,3.5601 -1.74,7.2267 -1.5,11 -0.95,1.4187 -1.28,3.0853 -1,5 -0.83,-4.8165 -1.33,-9.8165 -1.5,-15 -0.31,-0.8081 -0.81,-1.4747 -1.5,-2 -1.23,0.8398 -2.23,1.8398 -3,3 -0.44,-3.3934 0.4,-6.3934 2.5,-9 0.23,1.2375 0.73,2.2375 1.5,3 2.95,1.2288 5.62,0.5622 8,-2 2,-1.6667 4,-3.3333 6,-5 z"
         id="path64" />
    </g>
    <g
       id="g66"
       style="clip-rule:evenodd;fill-rule:evenodd;image-rendering:optimizeQuality;shape-rendering:geometricPrecision;text-rendering:geometricPrecision"
       transform="matrix(0.29798547,0,0,0.29798547,-318.74896,-2.9550558)">
      <path
         style="opacity:1"
         fill="#f1cd3d"
         d="m 1255.5,75.5 c 0.56,1.2899 1.56,2.1232 3,2.5 3.2,0.4008 6.2,1.2341 9,2.5 -0.34,3.9252 -1.5,7.5919 -3.5,11 -0.89,0.5814 -1.89,0.9148 -3,1 -9.85,-2.425 -19.85,-3.425 -30,-3 -5.83,0.1667 -11.67,0.3333 -17.5,0.5 -3.09,0.1475 -5.92,0.9808 -8.5,2.5 -2.94,-1.9105 -5.44,-4.2438 -7.5,-7 -0.67,0 -1,-0.3333 -1,-1 -0.21,-1.6439 0.12,-3.1439 1,-4.5 5.27,-1.8686 10.61,-3.5353 16,-5 13.87,-0.6248 27.87,-0.4581 42,0.5 z"
         id="path66" />
    </g>
    <g
       id="g69"
       style="clip-rule:evenodd;fill-rule:evenodd;image-rendering:optimizeQuality;shape-rendering:geometricPrecision;text-rendering:geometricPrecision"
       transform="matrix(0.29798547,0,0,0.29798547,-318.74896,-2.9550558)">
      <path
         style="opacity:1"
         fill="#ebdd93"
         d="m 1278.5,60.5 c 0.72,0.4175 1.22,1.0842 1.5,2 0.17,5.3642 0.67,10.6975 1.5,16 1.92,1.1125 3.59,2.4458 5,4 -2.05,-0.4612 -4.05,-1.1279 -6,-2 -0.77,-2.3622 -1.6,-4.6955 -2.5,-7 -0.58,3.7027 -0.41,7.3694 0.5,11 1.37,-0.1567 2.71,0.01 4,0.5 1.9,0.8996 3.56,2.0663 5,3.5 -1,0.3333 -2,0.6667 -3,1 -2.51,-1.1552 -5.18,-1.8219 -8,-2 0.3,-0.6499 0.64,-1.3165 1,-2 -1.66,-4.8164 -2.49,-9.8164 -2.5,-15 -0.22,-2.4732 -1.39,-4.1398 -3.5,-5 -0.83,5.4851 -1.33,11.1518 -1.5,17 -0.38,0.556 -0.88,0.8893 -1.5,1 0.21,-1.6439 -0.12,-3.1439 -1,-4.5 -2.66,-1.478 -5.32,-2.6446 -8,-3.5 2.71,0.0751 5.37,0.4084 8,1 0.21,-4.3982 -0.13,-8.7315 -1,-13 2,1.3333 4,1.3333 6,0 1,-0.0858 1.83,0.2476 2.5,1 0.81,2.1228 1.81,4.1228 3,6 0.5,-3.3168 0.67,-6.6501 0.5,-10 z"
         id="path69" />
    </g>
    <g
       id="g72"
       style="clip-rule:evenodd;fill-rule:evenodd;image-rendering:optimizeQuality;shape-rendering:geometricPrecision;text-rendering:geometricPrecision"
       transform="matrix(0.29798547,0,0,0.29798547,-318.74896,-2.9550558)">
      <path
         style="opacity:1"
         fill="#f6eca2"
         d="m 1189.5,80.5 c 0.12,1.9835 -0.55,3.6502 -2,5 1.45,1.3498 2.12,3.0165 2,5 -2.66,-1.7681 -5.66,-2.4347 -9,-2 0.93,-3.4193 3.27,-5.2526 7,-5.5 0.57,-0.9947 1.23,-1.828 2,-2.5 z"
         id="path72" />
    </g>
    <g
       id="g74"
       style="clip-rule:evenodd;fill-rule:evenodd;image-rendering:optimizeQuality;shape-rendering:geometricPrecision;text-rendering:geometricPrecision"
       transform="matrix(0.29798547,0,0,0.29798547,-318.74896,-2.9550558)">
      <path
         style="opacity:1"
         fill="#faf9d4"
         d="m 1271.5,65.5 c 2.11,0.8602 3.28,2.5268 3.5,5 0.01,5.1836 0.84,10.1836 2.5,15 -0.36,0.6835 -0.7,1.3501 -1,2 -2,0 -4,0 -6,0 0.85,-7.2985 1.18,-14.6319 1,-22 z"
         id="path74" />
    </g>
    <g
       id="g76"
       style="clip-rule:evenodd;fill-rule:evenodd;image-rendering:optimizeQuality;shape-rendering:geometricPrecision;text-rendering:geometricPrecision"
       transform="matrix(0.29798547,0,0,0.29798547,-318.74896,-2.9550558)">
      <path
         style="opacity:1"
         fill="#e7ce60"
         d="m 1255.5,75.5 c 1.33,0 2.67,0 4,0 2.68,0.8554 5.34,2.022 8,3.5 0.88,1.3561 1.21,2.8561 1,4.5 -0.46,3.5247 -1.79,6.6914 -4,9.5 -10.45,-0.7291 -20.95,-1.2291 -31.5,-1.5 -5.17,0.1667 -10.33,0.3333 -15.5,0.5 -3.63,0.1489 -6.97,0.9823 -10,2.5 -2.1,0.2989 -4.1,-0.0344 -6,-1 -1.36,-2.7198 -2.69,-5.3864 -4,-8 2.06,2.7562 4.56,5.0895 7.5,7 2.58,-1.5192 5.41,-2.3525 8.5,-2.5 5.83,-0.1667 11.67,-0.3333 17.5,-0.5 10.15,-0.425 20.15,0.575 30,3 1.11,-0.0852 2.11,-0.4186 3,-1 2,-3.4081 3.16,-7.0748 3.5,-11 -2.8,-1.2659 -5.8,-2.0992 -9,-2.5 -1.44,-0.3768 -2.44,-1.2101 -3,-2.5 z"
         id="path76" />
    </g>
    <g
       id="g77"
       style="clip-rule:evenodd;fill-rule:evenodd;image-rendering:optimizeQuality;shape-rendering:geometricPrecision;text-rendering:geometricPrecision"
       transform="matrix(0.29798547,0,0,0.29798547,-318.74896,-2.9550558)">
      <path
         style="opacity:1"
         fill="#f9f3b2"
         d="m 1195.5,84.5 c 0.33,0 0.67,0 1,0 0,0.6667 0.33,1 1,1 1.31,2.6136 2.64,5.2802 4,8 1.9,0.9656 3.9,1.2989 6,1 -1.6,1.5739 -3.6,2.2406 -6,2 0.32,8.229 -0.34,16.229 -2,24 0.17,-8.34 0,-16.673 -0.5,-25 -0.38,-0.556 -0.88,-0.8893 -1.5,-1 0.17,-0.9916 -0.16,-1.6583 -1,-2 -0.06,-1.109 -0.39,-2.109 -1,-3 0.99,-1.4989 0.99,-3.1656 0,-5 z"
         id="path77" />
    </g>
    <g
       id="g81"
       style="clip-rule:evenodd;fill-rule:evenodd;image-rendering:optimizeQuality;shape-rendering:geometricPrecision;text-rendering:geometricPrecision"
       transform="matrix(0.29798547,0,0,0.29798547,-318.74896,-2.9550558)">
      <path
         style="opacity:1"
         fill="#f9f1ae"
         d="m 1184.5,125.5 c 0.33,-10.181 -0.01,-20.181 -1,-30 -2.48,-0.7583 -5.15,-0.7583 -8,0 -0.33,-0.6667 -0.67,-1.3333 -1,-2 3.7,-0.0524 7.36,-0.3857 11,-1 0.33,11.179 -0.01,22.179 -1,33 z"
         id="path81" />
    </g>
    <g
       id="g82"
       style="clip-rule:evenodd;fill-rule:evenodd;image-rendering:optimizeQuality;shape-rendering:geometricPrecision;text-rendering:geometricPrecision"
       transform="matrix(0.29798547,0,0,0.29798547,-318.74896,-2.9550558)">
      <path
         style="opacity:1"
         fill="#e4cb5f"
         d="m 1273.5,89.5 c 0.17,11.671 0,23.338 -0.5,35 -2.23,1.48 -4.07,1.147 -5.5,-1 -0.33,0 -0.67,0 -1,0 0,-0.667 -0.33,-1 -1,-1 0,-1 0,-2 0,-3 -0.17,-7.674 0,-15.341 0.5,-23 1.42,-4.2846 3.92,-6.6179 7.5,-7 z"
         id="path82" />
    </g>
    <g
       id="g83"
       style="clip-rule:evenodd;fill-rule:evenodd;image-rendering:optimizeQuality;shape-rendering:geometricPrecision;text-rendering:geometricPrecision"
       transform="matrix(0.29798547,0,0,0.29798547,-318.74896,-2.9550558)">
      <path
         style="opacity:1"
         fill="#e1c961"
         d="m 1286.5,82.5 c 1.91,0.575 3.58,1.575 5,3 0,3 0,6 0,9 -2.45,0.202 -4.78,-0.1314 -7,-1 -1.38,-1.3009 -2.88,-1.3009 -4.5,0 -0.5,10.661 -0.67,21.328 -0.5,32 -1,-1.333 -2,-1.333 -3,0 0,-12.333 0,-24.667 0,-37 0,-0.3333 0,-0.6667 0,-1 2.82,0.1781 5.49,0.8448 8,2 1,-0.3333 2,-0.6667 3,-1 -1.44,-1.4337 -3.1,-2.6004 -5,-3.5 -1.29,-0.49 -2.63,-0.6567 -4,-0.5 -0.91,-3.6306 -1.08,-7.2973 -0.5,-11 0.9,2.3045 1.73,4.6378 2.5,7 1.95,0.8721 3.95,1.5388 6,2 z"
         id="path83" />
    </g>
    <g
       id="g96"
       style="clip-rule:evenodd;fill-rule:evenodd;image-rendering:optimizeQuality;shape-rendering:geometricPrecision;text-rendering:geometricPrecision"
       transform="matrix(0.29798547,0,0,0.29798547,-318.74896,-2.9550558)">
      <path
         style="opacity:1"
         fill="#f8efae"
         d="m 1271.5,65.5 c 0.18,7.3681 -0.15,14.7015 -1,22 2,0 4,0 6,0 0,0.3333 0,0.6667 0,1 -0.89,0.6098 -1.89,0.9431 -3,1 -3.58,0.3821 -6.08,2.7154 -7.5,7 -0.5,7.659 -0.67,15.326 -0.5,23 -0.99,-7.816 -1.33,-15.816 -1,-24 -2.74,0.0987 -5.4,-0.2347 -8,-1 -16.36,-2.2255 -32.69,-2.2255 -49,0 3.03,-1.5177 6.37,-2.3511 10,-2.5 5.17,-0.1667 10.33,-0.3333 15.5,-0.5 10.55,0.2709 21.05,0.7709 31.5,1.5 2.21,-2.8086 3.54,-5.9753 4,-9.5 0.62,-0.1107 1.12,-0.444 1.5,-1 0.17,-5.8482 0.67,-11.5149 1.5,-17 z"
         id="path96" />
    </g>
    <g
       id="g102"
       style="clip-rule:evenodd;fill-rule:evenodd;image-rendering:optimizeQuality;shape-rendering:geometricPrecision;text-rendering:geometricPrecision"
       transform="matrix(0.29798547,0,0,0.29798547,-318.74896,-2.9550558)">
      <path
         style="opacity:1"
         fill="#f9f5c5"
         d="m 1291.5,85.5 c 1.93,2.6368 2.43,5.6368 1.5,9 -3.67,1.3333 -7.33,2.6667 -11,4 -0.5,7.993 -0.67,15.993 -0.5,24 -1.16,-9.157 -1.32,-18.491 -0.5,-28 1.01,-0.8366 2.18,-1.17 3.5,-1 2.22,0.8686 4.55,1.202 7,1 0,-3 0,-6 0,-9 z"
         id="path102" />
    </g>
    <g
       id="g131"
       style="clip-rule:evenodd;fill-rule:evenodd;image-rendering:optimizeQuality;shape-rendering:geometricPrecision;text-rendering:geometricPrecision"
       transform="matrix(0.29798547,0,0,0.29798547,-318.74896,-2.9550558)">
      <path
         style="opacity:1"
         fill="#f7eb92"
         d="m 1276.5,88.5 c 0,12.333 0,24.667 0,37 -0.08,1.25 -0.74,2.083 -2,2.5 -28.5,0.83 -56.84,0.664 -85,-0.5 0,-12.333 0,-24.667 0,-37 1.94,-0.6495 3.94,-0.9828 6,-1 0.61,0.891 0.94,1.891 1,3 -1.29,-1.748 -2.79,-2.0814 -4.5,-1 -0.7,10.356 -0.54,20.689 0.5,31 2.48,0.177 4.31,-0.823 5.5,-3 0.82,-7.845 0.66,-15.511 -0.5,-23 0,-0.6667 0,-1.3333 0,-2 0.62,0.1107 1.12,0.444 1.5,1 0.5,8.327 0.67,16.66 0.5,25 0,0.333 0,0.667 0,1 -2.15,1.432 -2.48,3.265 -1,5.5 22.33,0.667 44.67,0.667 67,0 0.84,-1.011 1.17,-2.178 1,-3.5 0.33,0 0.67,0 1,0 1.43,2.147 3.27,2.48 5.5,1 0.5,-11.662 0.67,-23.329 0.5,-35 1.11,-0.0569 2.11,-0.3902 3,-1 z"
         id="path131" />
    </g>
    <g
       id="g132"
       style="clip-rule:evenodd;fill-rule:evenodd;image-rendering:optimizeQuality;shape-rendering:geometricPrecision;text-rendering:geometricPrecision"
       transform="matrix(0.29798547,0,0,0.29798547,-318.74896,-2.9550558)">
      <path
         style="opacity:1"
         fill="#e6ca50"
         d="m 1196.5,92.5 c 0.84,0.3417 1.17,1.0084 1,2 0,0.6667 0,1.3333 0,2 1.16,7.489 1.32,15.155 0.5,23 -1.19,2.177 -3.02,3.177 -5.5,3 -1.04,-10.311 -1.2,-20.644 -0.5,-31 1.71,-1.0814 3.21,-0.748 4.5,1 z"
         id="path132" />
    </g>
    <g
       id="g133"
       style="clip-rule:evenodd;fill-rule:evenodd;image-rendering:optimizeQuality;shape-rendering:geometricPrecision;text-rendering:geometricPrecision"
       transform="matrix(0.29798547,0,0,0.29798547,-318.74896,-2.9550558)">
      <path
         style="opacity:1"
         fill="#eeca3c"
         d="m 1197.5,96.5 c 0.35,7.406 -0.15,14.739 -1.5,22 -2.51,-7.058 -3.17,-14.391 -2,-22 0.99,-0.6712 2.15,-0.6712 3.5,0 z"
         id="path133" />
    </g>
    <g
       id="g134"
       style="clip-rule:evenodd;fill-rule:evenodd;image-rendering:optimizeQuality;shape-rendering:geometricPrecision;text-rendering:geometricPrecision"
       transform="matrix(0.29798547,0,0,0.29798547,-318.74896,-2.9550558)">
      <path
         style="opacity:1"
         fill="#faf9e5"
         d="m 1256.5,94.5 c 1.9,1.5983 4.06,2.9316 6.5,4 0.33,7.333 0.67,14.667 1,22 0.28,0.916 0.78,1.582 1.5,2 0.17,1.322 -0.16,2.489 -1,3.5 -21.66,0.5 -43.33,0.667 -65,0.5 0,-1.667 0,-3.333 0,-5 0,-0.333 0,-0.667 0,-1 1.66,-7.771 2.32,-15.771 2,-24 2.4,0.2406 4.4,-0.4261 6,-2 16.31,-2.2255 32.64,-2.2255 49,0 z"
         id="path134" />
    </g>
    <g
       id="g135"
       style="clip-rule:evenodd;fill-rule:evenodd;image-rendering:optimizeQuality;shape-rendering:geometricPrecision;text-rendering:geometricPrecision"
       transform="matrix(0.29798547,0,0,0.29798547,-318.74896,-2.9550558)">
      <path
         style="opacity:1"
         fill="#faf9cc"
         d="m 1256.5,94.5 c 2.6,0.7653 5.26,1.0987 8,1 -0.33,8.184 0.01,16.184 1,24 0,1 0,2 0,3 -0.72,-0.418 -1.22,-1.084 -1.5,-2 -0.33,-7.333 -0.67,-14.667 -1,-22 -2.44,-1.0684 -4.6,-2.4017 -6.5,-4 z"
         id="path135" />
    </g>
    <g
       id="g136"
       style="clip-rule:evenodd;fill-rule:evenodd;image-rendering:optimizeQuality;shape-rendering:geometricPrecision;text-rendering:geometricPrecision"
       transform="matrix(0.29798547,0,0,0.29798547,-318.74896,-2.9550558)">
      <path
         style="opacity:1"
         fill="#faf9f9"
         d="m 1231.5,94.5 c 9.81,-0.8985 19.14,0.6015 28,4.5 1.19,7.88 2.53,16.047 4,24.5 -1.58,0.572 -3.08,0.906 -4.5,1 -3.33,-0.667 -6.67,-1.333 -10,-2 -8.36,0.715 -16.36,0.715 -24,0 -7.48,1.007 -14.81,1.674 -22,2 0.58,-8.3 1.24,-16.633 2,-25 1.84,-1.8501 3.84,-2.1834 6,-1 6.75,-1.7435 13.58,-3.0769 20.5,-4 z"
         id="path136" />
    </g>
    <g
       id="g137"
       style="clip-rule:evenodd;fill-rule:evenodd;image-rendering:optimizeQuality;shape-rendering:geometricPrecision;text-rendering:geometricPrecision"
       transform="matrix(0.29798547,0,0,0.29798547,-318.74896,-2.9550558)">
      <path
         style="opacity:1"
         fill="#edcb46"
         d="m 1267.5,123.5 c -0.17,-8.673 0,-17.34 0.5,-26 0.58,-2.6242 1.91,-3.2908 4,-2 0.67,9.333 0.67,18.667 0,28 -1.41,0.913 -2.91,0.913 -4.5,0 z"
         id="path137" />
    </g>
    <g
       id="g138"
       style="clip-rule:evenodd;fill-rule:evenodd;image-rendering:optimizeQuality;shape-rendering:geometricPrecision;text-rendering:geometricPrecision"
       transform="matrix(0.29798547,0,0,0.29798547,-318.74896,-2.9550558)">
      <path
         style="opacity:1"
         fill="#faf9ce"
         d="m 1183.5,95.5 c 0.99,9.819 1.33,19.819 1,30 -0.9,0.709 -1.24,1.709 -1,3 -1.91,0.575 -3.58,1.575 -5,3 1.68,-2.525 3.18,-5.191 4.5,-8 0.5,-9.327 0.67,-18.661 0.5,-28 z"
         id="path138" />
    </g>
    <g
       id="g144"
       style="clip-rule:evenodd;fill-rule:evenodd;image-rendering:optimizeQuality;shape-rendering:geometricPrecision;text-rendering:geometricPrecision"
       transform="matrix(0.29798547,0,0,0.29798547,-318.74896,-2.9550558)">
      <path
         style="opacity:1"
         fill="#f9f8bd"
         d="m 1199.5,121.5 c 0,1.667 0,3.333 0,5 21.67,0.167 43.34,0 65,-0.5 0.84,-1.011 1.17,-2.178 1,-3.5 0.67,0 1,0.333 1,1 0.17,1.322 -0.16,2.489 -1,3.5 -22.33,0.667 -44.67,0.667 -67,0 -1.48,-2.235 -1.15,-4.068 1,-5.5 z"
         id="path144" />
    </g>
    <g
       id="g174"
       style="clip-rule:evenodd;fill-rule:evenodd;image-rendering:optimizeQuality;shape-rendering:geometricPrecision;text-rendering:geometricPrecision"
       transform="matrix(0.29798547,0,0,0.29798547,-318.74896,-2.9550558)">
      <path
         style="opacity:1"
         fill="#f8eca9"
         d="m 1284.5,93.5 c -1.32,-0.17 -2.49,0.1634 -3.5,1 -0.82,9.509 -0.66,18.843 0.5,28 2.25,3.494 4.25,7.161 6,11 0.33,51.169 0,102.169 -1,153 0.33,-51.169 0,-102.169 -1,-153 -2.38,-2.378 -4.38,-5.045 -6,-8 -0.17,-10.672 0,-21.339 0.5,-32 1.62,-1.3009 3.12,-1.3009 4.5,0 z"
         id="path174" />
    </g>
    <g
       id="g207"
       style="clip-rule:evenodd;fill-rule:evenodd;image-rendering:optimizeQuality;shape-rendering:geometricPrecision;text-rendering:geometricPrecision"
       transform="matrix(0.29798547,0,0,0.29798547,-318.74896,-2.9550558)">
      <path
         style="opacity:1"
         fill="#faf9da"
         d="m 1287.5,133.5 c 0.83,6.487 1.33,13.154 1.5,20 0.67,42.667 0.67,85.333 0,128 -0.33,2.333 -0.67,4.667 -1,7 -1.75,1.851 -3.25,3.851 -4.5,6 -0.67,0 -1.33,0 -2,0 1,-1.333 2,-2.667 3,-4 1.1,-1.105 1.77,-2.438 2,-4 1,-50.831 1.33,-101.831 1,-153 z"
         id="path207" />
    </g>
    <g
       id="g223"
       style="clip-rule:evenodd;fill-rule:evenodd;image-rendering:optimizeQuality;shape-rendering:geometricPrecision;text-rendering:geometricPrecision"
       transform="matrix(0.29798547,0,0,0.29798547,-318.74896,-2.9550558)">
      <path
         style="opacity:1"
         fill="#faf9ed"
         d="m 1290.5,82.5 c 1.95,1.1258 3.45,2.7925 4.5,5 1.13,7.8762 -2.37,11.7096 -10.5,11.5 -1.14,5.719 -0.81,11.385 1,17 -0.61,6.195 0.89,12.028 4.5,17.5 0.28,3.539 0.78,7.039 1.5,10.5 -1.01,39.682 -1.01,79.349 0,119 -0.73,8.79 -1.56,17.623 -2.5,26.5 -1.43,2.266 -3.26,3.932 -5.5,5 1.25,-2.149 2.75,-4.149 4.5,-6 0.33,-2.333 0.67,-4.667 1,-7 0.67,-42.667 0.67,-85.333 0,-128 -0.17,-6.846 -0.67,-13.513 -1.5,-20 -1.75,-3.839 -3.75,-7.506 -6,-11 -0.17,-8.007 0,-16.007 0.5,-24 3.67,-1.3333 7.33,-2.6667 11,-4 0.93,-3.3632 0.43,-6.3632 -1.5,-9 -0.06,-1.109 -0.39,-2.109 -1,-3 z"
         id="path223" />
    </g>
    <g
       id="g230"
       style="clip-rule:evenodd;fill-rule:evenodd;image-rendering:optimizeQuality;shape-rendering:geometricPrecision;text-rendering:geometricPrecision"
       transform="matrix(0.29798547,0,0,0.29798547,-318.74896,-2.9550558)">
      <path
         style="opacity:1"
         fill="#faf3b5"
         d="m 1183.5,128.5 c -1.77,1.613 -2.94,3.613 -3.5,6 -0.83,51.337 -0.67,102.67 0.5,154 1.48,0.98 2.81,2.147 4,3.5 32,0.5 64,0.667 96,0.5 -31.83,0.998 -63.83,1.332 -96,1 -3.04,-1.586 -5.21,-3.919 -6.5,-7 -0.83,-51.737 -0.66,-103.404 0.5,-155 1.42,-1.425 3.09,-2.425 5,-3 z"
         id="path230" />
    </g>
    <g
       id="g246"
       style="clip-rule:evenodd;fill-rule:evenodd;image-rendering:optimizeQuality;shape-rendering:geometricPrecision;text-rendering:geometricPrecision"
       transform="matrix(0.29798547,0,0,0.29798547,-318.74896,-2.9550558)">
      <path
         style="opacity:1"
         fill="#faf9ec"
         d="m 1172.5,83.5 c -0.78,3.6458 -0.95,7.3125 -0.5,11 1.01,0.8366 2.18,1.17 3.5,1 2.85,-0.7583 5.52,-0.7583 8,0 0.17,9.339 0,18.673 -0.5,28 -1.32,2.809 -2.82,5.475 -4.5,8 -1.16,51.596 -1.33,103.263 -0.5,155 1.29,3.081 3.46,5.414 6.5,7 32.16,0.998 64.5,1.332 97,1 -16.54,1.673 -33.38,2.673 -50.5,3 -14.76,-0.825 -29.59,-1.325 -44.5,-1.5 -7.73,-1.593 -11.57,-6.427 -11.5,-14.5 -0.67,-12.088 -0.5,-23.754 0.5,-35 -0.51,-2.907 -1.18,-5.741 -2,-8.5 0.86,-0.689 1.52,-1.522 2,-2.5 -1.21,-1.22 -1.21,-2.387 0,-3.5 -2.53,-1.316 -2.53,-2.483 0,-3.5 0.12,-26.496 -0.21,-52.996 -1,-79.5 0.78,-7.13 1.28,-14.297 1.5,-21.5 1.21,-1.549 2.71,-2.715 4.5,-3.5 -0.04,-8.41 -0.04,-16.91 0,-25.5 -9.25,0.2578 -12.75,-4.0755 -10.5,-13 0.71,-0.8805 1.54,-1.5472 2.5,-2 z"
         id="path246" />
    </g>
    <g
       id="g278"
       style="clip-rule:evenodd;fill-rule:evenodd;image-rendering:optimizeQuality;shape-rendering:geometricPrecision;text-rendering:geometricPrecision"
       transform="matrix(0.29798547,0,0,0.29798547,-318.74896,-2.9550558)">
      <path
         style="opacity:1"
         fill="#e7d47a"
         d="m 1285.5,133.5 c 1,50.831 1.33,101.831 1,153 -0.23,1.562 -0.9,2.895 -2,4 -0.33,0 -0.67,0 -1,0 -0.04,-1.256 0.46,-2.256 1.5,-3 0.5,-51.332 0.67,-102.666 0.5,-154 z"
         id="path278" />
    </g>
    <g
       id="g318"
       style="clip-rule:evenodd;fill-rule:evenodd;image-rendering:optimizeQuality;shape-rendering:geometricPrecision;text-rendering:geometricPrecision"
       transform="matrix(0.29798547,0,0,0.29798547,-318.74896,-2.9550558)">
      <path
         style="opacity:1"
         fill="#e7cb5a"
         d="m 1189.5,127.5 c 28.16,1.164 56.5,1.33 85,0.5 1.26,-0.417 1.92,-1.25 2,-2.5 1,-1.333 2,-1.333 3,0 1.62,2.955 3.62,5.622 6,8 0.17,51.334 0,102.668 -0.5,154 -1.04,0.744 -1.54,1.744 -1.5,3 -1,0.667 -2,1.333 -3,2 -32,0.167 -64,0 -96,-0.5 -1.19,-1.353 -2.52,-2.52 -4,-3.5 -1.17,-51.33 -1.33,-102.663 -0.5,-154 0.56,-2.387 1.73,-4.387 3.5,-6 1.84,-0.622 3,-1.956 3.5,-4 0.85,1.071 1.69,2.071 2.5,3 z"
         id="path318" />
    </g>
    <g
       id="g319"
       style="clip-rule:evenodd;fill-rule:evenodd;image-rendering:optimizeQuality;shape-rendering:geometricPrecision;text-rendering:geometricPrecision"
       transform="matrix(0.29798547,0,0,0.29798547,-318.74896,-2.9550558)">
      <path
         style="opacity:1"
         fill="#edcd4a"
         d="m 1284.5,161.5 c 0.33,41.17 0,82.17 -1,123 0.31,-37.319 -0.02,-74.319 -1,-111 0.61,-4.135 1.28,-8.135 2,-12 z"
         id="path319" />
    </g>
    <g
       id="g320"
       style="clip-rule:evenodd;fill-rule:evenodd;image-rendering:optimizeQuality;shape-rendering:geometricPrecision;text-rendering:geometricPrecision"
       transform="matrix(0.29798547,0,0,0.29798547,-318.74896,-2.9550558)">
      <path
         style="opacity:1"
         fill="#f2cd38"
         d="m 1284.5,161.5 c -0.72,3.865 -1.39,7.865 -2,12 0.98,36.681 1.31,73.681 1,111 -0.62,1.729 -1.62,3.229 -3,4.5 -14.65,1.355 -29.31,1.688 -44,1 -1.5,-0.833 -2.67,-2 -3.5,-3.5 -0.83,0.833 -1.67,1.667 -2.5,2.5 -15.82,0.403 -31.48,0.403 -47,0 -0.63,-0.75 -1.13,-1.584 -1.5,-2.5 -0.67,-49 -0.67,-98 0,-147 0.33,-3.006 1.17,-5.84 2.5,-8.5 1,-0.5 2,-1 3,-1.5 29.95,1.206 59.95,1.206 90,0 1.57,1.915 3.57,2.915 6,3 -0.28,9.719 0.05,19.386 1,29 z"
         id="path320" />
    </g>
    <g
       id="g322"
       style="clip-rule:evenodd;fill-rule:evenodd;image-rendering:optimizeQuality;shape-rendering:geometricPrecision;text-rendering:geometricPrecision"
       transform="matrix(0.29798547,0,0,0.29798547,-318.74896,-2.9550558)">
      <path
         style="opacity:1"
         fill="#f9f8cd"
         d="m 1283.5,290.5 c 0.33,0 0.67,0 1,0 -1,1.333 -2,2.667 -3,4 -32.5,0.332 -64.84,-0.002 -97,-1 32.17,0.332 64.17,-0.002 96,-1 1,-0.667 2,-1.333 3,-2 z"
         id="path322" />
    </g>
  </g>
</svg>
