<?xml version="1.0" encoding="UTF-8" standalone="no"?>
<!-- Created with Inkscape (http://www.inkscape.org/) -->

<svg
   width="96mm"
   height="96mm"
   viewBox="0 0 96 96"
   version="1.1"
   id="svg1"
   inkscape:version="1.4.2 (ebf0e940, 2025-05-08)"
   sodipodi:docname="start.svg"
   xmlns:inkscape="http://www.inkscape.org/namespaces/inkscape"
   xmlns:sodipodi="http://sodipodi.sourceforge.net/DTD/sodipodi-0.dtd"
   xmlns="http://www.w3.org/2000/svg"
   xmlns:svg="http://www.w3.org/2000/svg">
  <sodipodi:namedview
     id="namedview1"
     pagecolor="#ffffff"
     bordercolor="#000000"
     borderopacity="0.25"
     inkscape:showpageshadow="2"
     inkscape:pageopacity="0.0"
     inkscape:pagecheckerboard="0"
     inkscape:deskcolor="#d1d1d1"
     inkscape:document-units="mm"
     inkscape:zoom="0.80444024"
     inkscape:cx="397.17059"
     inkscape:cy="262.91574"
     inkscape:window-width="1920"
     inkscape:window-height="1052"
     inkscape:window-x="0"
     inkscape:window-y="28"
     inkscape:window-maximized="0"
     inkscape:current-layer="layer1" />
  <defs
     id="defs1" />
  <g
     inkscape:label="Layer 1"
     inkscape:groupmode="layer"
     id="layer1">
    <g
       id="g389"
       style="clip-rule:evenodd;fill-rule:evenodd;image-rendering:optimizeQuality;shape-rendering:geometricPrecision;text-rendering:geometricPrecision"
       transform="matrix(0.29590604,0,0,0.29590604,-212.17629,-116.48339)">
      <path
         style="opacity:1"
         fill="#f7eaa5"
         d="m 866.5,429.5 c 6.813,-0.991 13.813,-1.325 21,-1 6.954,-0.061 13.621,0.939 20,3 0.667,0.667 1.333,1.333 2,2 -5.473,-0.433 -10.806,-1.6 -16,-3.5 -8.994,-0.5 -17.994,-0.666 -27,-0.5 z"
         id="path389" />
    </g>
    <g
       id="g390"
       style="clip-rule:evenodd;fill-rule:evenodd;image-rendering:optimizeQuality;shape-rendering:geometricPrecision;text-rendering:geometricPrecision"
       transform="matrix(0.29590604,0,0,0.29590604,-212.17629,-116.48339)">
      <path
         style="opacity:1"
         fill="#faf5bf"
         d="m 887.5,428.5 c -7.187,-0.325 -14.187,0.009 -21,1 -6.844,1.066 -13.511,2.399 -20,4 -7.504,2.038 -14.837,4.371 -22,7 1.98,-1.951 4.313,-3.451 7,-4.5 4.268,-0.534 8.268,-1.867 12,-4 5.921,-0.732 11.754,-1.899 17.5,-3.5 8.99,-1.246 17.823,-1.246 26.5,0 z"
         id="path390" />
    </g>
    <g
       id="g391"
       style="clip-rule:evenodd;fill-rule:evenodd;image-rendering:optimizeQuality;shape-rendering:geometricPrecision;text-rendering:geometricPrecision"
       transform="matrix(0.29590604,0,0,0.29590604,-212.17629,-116.48339)">
      <path
         style="opacity:1"
         fill="#e4c552"
         d="m 866.5,429.5 c 9.006,-0.166 18.006,0 27,0.5 5.194,1.9 10.527,3.067 16,3.5 2.902,1.078 5.902,1.744 9,2 0.333,0.667 0.667,1.333 1,2 -23.997,-6.403 -48.33,-7.737 -73,-4 6.489,-1.601 13.156,-2.934 20,-4 z"
         id="path391" />
    </g>
    <g
       id="g394"
       style="clip-rule:evenodd;fill-rule:evenodd;image-rendering:optimizeQuality;shape-rendering:geometricPrecision;text-rendering:geometricPrecision"
       transform="matrix(0.29590604,0,0,0.29590604,-212.17629,-116.48339)">
      <path
         style="opacity:1"
         fill="#faf7c9"
         d="m 907.5,431.5 c 7.049,0.04 13.382,2.04 19,6 -2.667,-0.667 -5.333,-1.333 -8,-2 -3.098,-0.256 -6.098,-0.922 -9,-2 -0.667,-0.667 -1.333,-1.333 -2,-2 z"
         id="path394" />
    </g>
    <g
       id="g399"
       style="clip-rule:evenodd;fill-rule:evenodd;image-rendering:optimizeQuality;shape-rendering:geometricPrecision;text-rendering:geometricPrecision"
       transform="matrix(0.29590604,0,0,0.29590604,-212.17629,-116.48339)">
      <path
         style="opacity:1"
         fill="#faf9f9"
         d="m 904.5,442.5 c 5.394,2.274 11.06,4.107 17,5.5 5.022,2.511 10.022,5.011 15,7.5 0.992,-0.172 1.658,0.162 2,1 2.775,3.105 6.108,5.438 10,7 2.249,0.58 3.915,1.913 5,4 2.528,4.405 5.528,8.405 9,12 0.739,4.243 2.906,7.577 6.5,10 2.129,3.921 3.963,7.921 5.5,12 1.392,2.661 3.226,4.994 5.5,7 3.421,10.663 6.421,21.663 9,33 0.672,12.016 0.505,24.016 -0.5,36 -1.1,5.158 -2.433,10.158 -4,15 -2.551,2.078 -4.384,4.744 -5.5,8 -2.911,6.454 -5.577,13.12 -8,20 -1.011,0.837 -2.178,1.17 -3.5,1 -1.532,3.349 -3.699,6.349 -6.5,9 0.266,3.401 -1.234,5.067 -4.5,5 0,1 0,2 0,3 -1.373,-0.157 -2.707,0.01 -4,0.5 -5.678,6.399 -12.345,11.566 -20,15.5 -0.925,0.857 -1.592,1.857 -2,3 -0.333,0 -0.667,0 -1,0 -7.477,1.734 -14.643,4.401 -21.5,8 -0.772,-0.145 -1.439,-0.478 -2,-1 -7.492,3.124 -15.325,4.791 -23.5,5 -9.156,-0.232 -18.823,-0.565 -29,-1 -5.056,-3.359 -10.722,-5.359 -17,-6 -4.591,-0.962 -8.591,-2.962 -12,-6 -6.833,-6.319 -14.167,-12.153 -22,-17.5 -2,-2.333 -4,-4.667 -6,-7 -0.948,-0.483 -1.948,-0.649 -3,-0.5 0,-0.333 0,-0.667 0,-1 -0.461,-2.05 -1.128,-4.05 -2,-6 -5.691,-7.213 -10.858,-14.88 -15.5,-23 -0.71,-4.064 -1.877,-7.897 -3.5,-11.5 0.333,-0.333 0.667,-0.667 1,-1 -1.535,-2.624 -2.702,-5.457 -3.5,-8.5 -0.295,-6.242 -1.128,-12.409 -2.5,-18.5 0.191,-8.504 0.358,-17.338 0.5,-26.5 2.449,-6.13 4.116,-12.463 5,-19 2.705,-4.397 4.538,-9.063 5.5,-14 3.066,-7.802 7.399,-14.802 13,-21 7.556,-8.18 15.89,-15.68 25,-22.5 7.484,-4.078 15.151,-7.578 23,-10.5 7.02,-5.134 15.02,-7.634 24,-7.5 13.73,-0.889 27.397,-0.389 41,1.5 z"
         id="path399" />
    </g>
    <g
       id="g404"
       style="clip-rule:evenodd;fill-rule:evenodd;image-rendering:optimizeQuality;shape-rendering:geometricPrecision;text-rendering:geometricPrecision"
       transform="matrix(0.29590604,0,0,0.29590604,-212.17629,-116.48339)">
      <path
         style="opacity:1"
         fill="#f8edaa"
         d="m 918.5,435.5 c 2.667,0.667 5.333,1.333 8,2 10.205,2.591 18.538,7.925 25,16 -5.023,-2.526 -9.689,-5.693 -14,-9.5 -2.313,-0.662 -4.646,-1.162 -7,-1.5 -2.976,-2.926 -6.642,-4.592 -11,-5 -0.333,-0.667 -0.667,-1.333 -1,-2 z"
         id="path404" />
    </g>
    <g
       id="g408"
       style="clip-rule:evenodd;fill-rule:evenodd;image-rendering:optimizeQuality;shape-rendering:geometricPrecision;text-rendering:geometricPrecision"
       transform="matrix(0.29590604,0,0,0.29590604,-212.17629,-116.48339)">
      <path
         style="opacity:1"
         fill="#e7c755"
         d="m 930.5,442.5 c 2.354,0.338 4.687,0.838 7,1.5 4.311,3.807 8.977,6.974 14,9.5 2.249,0.58 3.915,1.913 5,4 1.667,2 3.333,4 5,6 -3.608,-2.27 -6.942,-4.937 -10,-8 -6.929,-4.622 -13.929,-8.955 -21,-13 z"
         id="path408" />
    </g>
    <g
       id="g409"
       style="clip-rule:evenodd;fill-rule:evenodd;image-rendering:optimizeQuality;shape-rendering:geometricPrecision;text-rendering:geometricPrecision"
       transform="matrix(0.29590604,0,0,0.29590604,-212.17629,-116.48339)">
      <path
         style="opacity:1"
         fill="#f9f3ba"
         d="m 821.5,441.5 c -7.088,6.021 -14.421,11.688 -22,17 -6.888,6.12 -13.555,12.454 -20,19 10.943,-15.77 24.943,-27.77 42,-36 z"
         id="path409" />
    </g>
    <g
       id="g410"
       style="clip-rule:evenodd;fill-rule:evenodd;image-rendering:optimizeQuality;shape-rendering:geometricPrecision;text-rendering:geometricPrecision"
       transform="matrix(0.29590604,0,0,0.29590604,-212.17629,-116.48339)">
      <path
         style="opacity:1"
         fill="#e7c958"
         d="m 846.5,433.5 c -1.334,1.659 -3.001,2.992 -5,4 -7.012,2.333 -14.012,4.499 -21,6.5 -5.754,5.021 -11.754,9.688 -18,14 -0.948,0.483 -1.948,0.649 -3,0.5 7.579,-5.312 14.912,-10.979 22,-17 1.291,0.237 2.291,-0.096 3,-1 7.163,-2.629 14.496,-4.962 22,-7 z"
         id="path410" />
    </g>
    <g
       id="g411"
       style="clip-rule:evenodd;fill-rule:evenodd;image-rendering:optimizeQuality;shape-rendering:geometricPrecision;text-rendering:geometricPrecision"
       transform="matrix(0.29590604,0,0,0.29590604,-212.17629,-116.48339)">
      <path
         style="opacity:1"
         fill="#f0c734"
         d="m 919.5,437.5 c 4.358,0.408 8.024,2.074 11,5 7.071,4.045 14.071,8.378 21,13 3.058,3.063 6.392,5.73 10,8 1.941,3.78 4.108,7.447 6.5,11 2.835,1.416 5.502,3.083 8,5 1.644,3.922 3.144,7.922 4.5,12 -1.43,0.079 -2.764,-0.254 -4,-1 -1.403,-2.07 -3.07,-3.737 -5,-5 -0.271,-1.812 -0.938,-3.478 -2,-5 -3,-3.333 -6,-6.667 -9,-10 -4.46,-4.287 -9.127,-8.454 -14,-12.5 -1.293,-0.49 -2.627,-0.657 -4,-0.5 -4.762,-5.385 -10.762,-8.718 -18,-10 -0.992,0.172 -1.658,-0.162 -2,-1 -10.787,-6.033 -22.454,-9.033 -35,-9 -16.604,-2.793 -32.604,-0.793 -48,6 -1.849,1.093 -3.516,2.426 -5,4 -0.667,0 -1.333,0 -2,0 -3.825,0.574 -7.491,1.741 -11,3.5 -8.734,4.573 -16.067,10.739 -22,18.5 -20.275,20.887 -32.275,45.887 -36,75 -1.157,8.49 -1.324,17.157 -0.5,26 0.278,0.916 0.778,1.582 1.5,2 1.793,7.632 3.46,15.299 5,23 1.385,9.436 5.385,17.436 12,24 -0.157,1.373 0.01,2.707 0.5,4 1.867,2.603 3.367,5.436 4.5,8.5 -0.667,0.667 -1.333,0.667 -2,0 -0.603,-2.071 -1.936,-3.238 -4,-3.5 -2.651,-2.163 -4.817,-4.829 -6.5,-8 -1.883,-4.885 -4.216,-9.552 -7,-14 -3.794,-10.054 -6.794,-20.387 -9,-31 -0.979,-6.46 -1.479,-12.96 -1.5,-19.5 1.163,-10.773 2.163,-21.606 3,-32.5 4.014,-9.826 8.181,-19.826 12.5,-30 8.298,-12.452 17.465,-24.118 27.5,-35 1.052,0.149 2.052,-0.017 3,-0.5 6.246,-4.312 12.246,-8.979 18,-14 6.988,-2.001 13.988,-4.167 21,-6.5 1.999,-1.008 3.666,-2.341 5,-4 24.67,-3.737 49.003,-2.403 73,4 z"
         id="path411" />
    </g>
    <g
       id="g412"
       style="clip-rule:evenodd;fill-rule:evenodd;image-rendering:optimizeQuality;shape-rendering:geometricPrecision;text-rendering:geometricPrecision"
       transform="matrix(0.29590604,0,0,0.29590604,-212.17629,-116.48339)">
      <path
         style="opacity:1"
         fill="#e6c85a"
         d="m 832.5,447.5 c -2.31,0.825 -4.31,2.158 -6,4 -9.609,3.257 -17.609,8.924 -24,17 -1.109,0.057 -2.109,0.39 -3,1 5.933,-7.761 13.266,-13.927 22,-18.5 3.509,-1.759 7.175,-2.926 11,-3.5 z"
         id="path412" />
    </g>
    <g
       id="g413"
       style="clip-rule:evenodd;fill-rule:evenodd;image-rendering:optimizeQuality;shape-rendering:geometricPrecision;text-rendering:geometricPrecision"
       transform="matrix(0.29590604,0,0,0.29590604,-212.17629,-116.48339)">
      <path
         style="opacity:1"
         fill="#e8cc62"
         d="m 924.5,447.5 c 7.238,1.282 13.238,4.615 18,10 -1.333,-0.333 -2.667,-0.667 -4,-1 -0.342,-0.838 -1.008,-1.172 -2,-1 -3.69,-3.175 -7.69,-5.842 -12,-8 z"
         id="path413" />
    </g>
    <g
       id="g414"
       style="clip-rule:evenodd;fill-rule:evenodd;image-rendering:optimizeQuality;shape-rendering:geometricPrecision;text-rendering:geometricPrecision"
       transform="matrix(0.29590604,0,0,0.29590604,-212.17629,-116.48339)">
      <path
         style="opacity:1"
         fill="#faf5c0"
         d="m 904.5,442.5 c 6.159,0.722 12.159,2.056 18,4 0.342,0.838 1.008,1.172 2,1 4.31,2.158 8.31,4.825 12,8 -4.978,-2.489 -9.978,-4.989 -15,-7.5 -5.94,-1.393 -11.606,-3.226 -17,-5.5 z"
         id="path414" />
    </g>
    <g
       id="g415"
       style="clip-rule:evenodd;fill-rule:evenodd;image-rendering:optimizeQuality;shape-rendering:geometricPrecision;text-rendering:geometricPrecision"
       transform="matrix(0.29590604,0,0,0.29590604,-212.17629,-116.48339)">
      <path
         style="opacity:1"
         fill="#f6e794"
         d="m 845.5,442.5 c -3.24,2.451 -6.907,4.118 -11,5 1.484,-1.574 3.151,-2.907 5,-4 2,-0.333 4,-0.667 6,-1 z"
         id="path415" />
    </g>
    <g
       id="g416"
       style="clip-rule:evenodd;fill-rule:evenodd;image-rendering:optimizeQuality;shape-rendering:geometricPrecision;text-rendering:geometricPrecision"
       transform="matrix(0.29590604,0,0,0.29590604,-212.17629,-116.48339)">
      <path
         style="opacity:1"
         fill="#faf7c8"
         d="m 866.5,438.5 c 10.697,-0.149 21.363,0.351 32,1.5 2.223,0.566 4.223,1.4 6,2.5 -13.603,-1.889 -27.27,-2.389 -41,-1.5 -8.98,-0.134 -16.98,2.366 -24,7.5 -4.269,1.199 -8.603,2.199 -13,3 1.69,-1.842 3.69,-3.175 6,-4 0.667,0 1.333,0 2,0 4.093,-0.882 7.76,-2.549 11,-5 6.784,-2.446 13.784,-3.779 21,-4 z"
         id="path416" />
    </g>
    <g
       id="g417"
       style="clip-rule:evenodd;fill-rule:evenodd;image-rendering:optimizeQuality;shape-rendering:geometricPrecision;text-rendering:geometricPrecision"
       transform="matrix(0.29590604,0,0,0.29590604,-212.17629,-116.48339)">
      <path
         style="opacity:1"
         fill="#ecd574"
         d="m 866.5,438.5 c 6.813,-0.991 13.813,-1.325 21,-1 12.546,-0.033 24.213,2.967 35,9 -5.841,-1.944 -11.841,-3.278 -18,-4 -1.777,-1.1 -3.777,-1.934 -6,-2.5 -10.637,-1.149 -21.303,-1.649 -32,-1.5 z"
         id="path417" />
    </g>
    <g
       id="g418"
       style="clip-rule:evenodd;fill-rule:evenodd;image-rendering:optimizeQuality;shape-rendering:geometricPrecision;text-rendering:geometricPrecision"
       transform="matrix(0.29590604,0,0,0.29590604,-212.17629,-116.48339)">
      <path
         style="opacity:1"
         fill="#e2c452"
         d="m 887.5,437.5 c -7.187,-0.325 -14.187,0.009 -21,1 -7.216,0.221 -14.216,1.554 -21,4 -2,0.333 -4,0.667 -6,1 15.396,-6.793 31.396,-8.793 48,-6 z"
         id="path418" />
    </g>
    <g
       id="g419"
       style="clip-rule:evenodd;fill-rule:evenodd;image-rendering:optimizeQuality;shape-rendering:geometricPrecision;text-rendering:geometricPrecision"
       transform="matrix(0.29590604,0,0,0.29590604,-212.17629,-116.48339)">
      <path
         style="opacity:1"
         fill="#f9f2b5"
         d="m 938.5,456.5 c 1.333,0.333 2.667,0.667 4,1 2.43,1.553 4.43,3.553 6,6 -3.892,-1.562 -7.225,-3.895 -10,-7 z"
         id="path419" />
    </g>
    <g
       id="g420"
       style="clip-rule:evenodd;fill-rule:evenodd;image-rendering:optimizeQuality;shape-rendering:geometricPrecision;text-rendering:geometricPrecision"
       transform="matrix(0.29590604,0,0,0.29590604,-212.17629,-116.48339)">
      <path
         style="opacity:1"
         fill="#f9f4bf"
         d="m 956.5,457.5 c 1.373,-0.157 2.707,0.01 4,0.5 8.064,6.55 14.397,14.384 19,23.5 -4.994,-6.994 -10.994,-12.994 -18,-18 -1.667,-2 -3.333,-4 -5,-6 z"
         id="path420" />
    </g>
    <g
       id="g434"
       style="clip-rule:evenodd;fill-rule:evenodd;image-rendering:optimizeQuality;shape-rendering:geometricPrecision;text-rendering:geometricPrecision"
       transform="matrix(0.29590604,0,0,0.29590604,-212.17629,-116.48339)">
      <path
         style="opacity:1"
         fill="#e7ca58"
         d="m 799.5,458.5 c -10.035,10.882 -19.202,22.548 -27.5,35 -4.319,10.174 -8.486,20.174 -12.5,30 0.505,-6.337 2.172,-12.337 5,-18 -0.172,-0.992 0.162,-1.658 1,-2 3.604,-9.206 8.271,-17.872 14,-26 6.445,-6.546 13.112,-12.88 20,-19 z"
         id="path434" />
    </g>
    <g
       id="g438"
       style="clip-rule:evenodd;fill-rule:evenodd;image-rendering:optimizeQuality;shape-rendering:geometricPrecision;text-rendering:geometricPrecision"
       transform="matrix(0.29590604,0,0,0.29590604,-212.17629,-116.48339)">
      <path
         style="opacity:1"
         fill="#faf7d9"
         d="m 839.5,448.5 c -7.849,2.922 -15.516,6.422 -23,10.5 -9.11,6.82 -17.444,14.32 -25,22.5 3.239,-4.582 6.905,-8.916 11,-13 6.391,-8.076 14.391,-13.743 24,-17 4.397,-0.801 8.731,-1.801 13,-3 z"
         id="path438" />
    </g>
    <g
       id="g440"
       style="clip-rule:evenodd;fill-rule:evenodd;image-rendering:optimizeQuality;shape-rendering:geometricPrecision;text-rendering:geometricPrecision"
       transform="matrix(0.29590604,0,0,0.29590604,-212.17629,-116.48339)">
      <path
         style="opacity:1"
         fill="#f9f2b2"
         d="m 953.5,467.5 c 5.062,4.059 9.395,8.726 13,14 -1.105,-1.1 -2.438,-1.767 -4,-2 -3.472,-3.595 -6.472,-7.595 -9,-12 z"
         id="path440" />
    </g>
    <g
       id="g441"
       style="clip-rule:evenodd;fill-rule:evenodd;image-rendering:optimizeQuality;shape-rendering:geometricPrecision;text-rendering:geometricPrecision"
       transform="matrix(0.29590604,0,0,0.29590604,-212.17629,-116.48339)">
      <path
         style="opacity:1"
         fill="#e4c44f"
         d="m 942.5,457.5 c 1.373,-0.157 2.707,0.01 4,0.5 4.873,4.046 9.54,8.213 14,12.5 3,3.333 6,6.667 9,10 1.062,1.522 1.729,3.188 2,5 -1.667,-1.333 -3.333,-2.667 -5,-4 -3.605,-5.274 -7.938,-9.941 -13,-14 -1.085,-2.087 -2.751,-3.42 -5,-4 -1.57,-2.447 -3.57,-4.447 -6,-6 z"
         id="path441" />
    </g>
    <g
       id="g444"
       style="clip-rule:evenodd;fill-rule:evenodd;image-rendering:optimizeQuality;shape-rendering:geometricPrecision;text-rendering:geometricPrecision"
       transform="matrix(0.29590604,0,0,0.29590604,-212.17629,-116.48339)">
      <path
         style="opacity:1"
         fill="#f2c82c"
         d="m 957.5,559.5 c 0,0.333 0,0.667 0,1 1.414,6.747 1.248,13.413 -0.5,20 -12.079,10.019 -25.912,13.519 -41.5,10.5 -8.063,-1.078 -15.729,-3.411 -23,-7 -17.54,-4.422 -34.206,-2.422 -50,6 -0.752,0.671 -1.086,1.504 -1,2.5 -1,0.667 -2,1.333 -3,2 -1.129,2.128 -1.296,4.461 -0.5,7 2.145,4.434 3.478,9.1 4,14 0.377,1.442 1.21,2.442 2.5,3 1.815,8.213 2.648,16.546 2.5,25 -0.893,0.581 -1.893,0.915 -3,1 -2.041,-1.137 -3.875,-2.47 -5.5,-4 -1.493,-3.083 -2.493,-6.417 -3,-10 -1.106,-10.095 -3.606,-19.761 -7.5,-29 -3.569,-10.482 -6.569,-21.148 -9,-32 -0.383,-0.556 -0.883,-0.889 -1.5,-1 -1.65,-9.451 -3.817,-18.784 -6.5,-28 -0.985,-5.146 -2.819,-9.812 -5.5,-14 -1.035,-6.47 -2.535,-12.803 -4.5,-19 -0.667,-3 -0.667,-6 0,-9 10.214,1.146 19.048,-1.854 26.5,-9 3.439,-1.704 7.105,-3.038 11,-4 9.006,-0.166 18.006,0 27,0.5 11.337,1.896 22.337,4.729 33,8.5 6.821,1.155 13.821,1.321 21,0.5 7.39,-3.06 14.557,-6.56 21.5,-10.5 2.652,10.609 5.319,21.276 8,32 1.535,11.356 3.202,22.689 5,34 0.754,3.318 1.92,6.318 3.5,9 z"
         id="path444" />
    </g>
    <g
       id="g445"
       style="clip-rule:evenodd;fill-rule:evenodd;image-rendering:optimizeQuality;shape-rendering:geometricPrecision;text-rendering:geometricPrecision"
       transform="matrix(0.29590604,0,0,0.29590604,-212.17629,-116.48339)">
      <path
         style="opacity:1"
         fill="#e9c74b"
         d="m 953.5,529.5 c 0,0.333 0,0.667 0,1 1.222,9.668 2.555,19.335 4,29 -1.58,-2.682 -2.746,-5.682 -3.5,-9 -1.798,-11.311 -3.465,-22.644 -5,-34 -2.681,-10.724 -5.348,-21.391 -8,-32 -6.943,3.94 -14.11,7.44 -21.5,10.5 -7.179,0.821 -14.179,0.655 -21,-0.5 5.526,0.321 10.86,-0.012 16,-1 1.333,-0.667 2.667,-1.333 4,-2 5.674,-0.652 10.674,-2.652 15,-6 2.74,-1.788 5.573,-3.455 8.5,-5 0.945,0.405 1.612,1.072 2,2 2.605,15.924 5.772,31.591 9.5,47 z"
         id="path445" />
    </g>
    <g
       id="g447"
       style="clip-rule:evenodd;fill-rule:evenodd;image-rendering:optimizeQuality;shape-rendering:geometricPrecision;text-rendering:geometricPrecision"
       transform="matrix(0.29590604,0,0,0.29590604,-212.17629,-116.48339)">
      <path
         style="opacity:1"
         fill="#f9f3bb"
         d="m 779.5,477.5 c -5.729,8.128 -10.396,16.794 -14,26 1.042,-4.419 2.375,-8.752 4,-13 2.352,-3.042 4.352,-6.376 6,-10 1.142,-1.326 2.476,-2.326 4,-3 z"
         id="path447" />
    </g>
    <g
       id="g448"
       style="clip-rule:evenodd;fill-rule:evenodd;image-rendering:optimizeQuality;shape-rendering:geometricPrecision;text-rendering:geometricPrecision"
       transform="matrix(0.29590604,0,0,0.29590604,-212.17629,-116.48339)">
      <path
         style="opacity:1"
         fill="#f8f3bd"
         d="m 979.5,481.5 c 3.857,3.038 6.19,7.038 7,12 -0.958,-0.453 -1.792,-1.119 -2.5,-2 -1.274,-3.439 -2.774,-6.772 -4.5,-10 z"
         id="path448" />
    </g>
    <g
       id="g449"
       style="clip-rule:evenodd;fill-rule:evenodd;image-rendering:optimizeQuality;shape-rendering:geometricPrecision;text-rendering:geometricPrecision"
       transform="matrix(0.29590604,0,0,0.29590604,-212.17629,-116.48339)">
      <path
         style="opacity:1"
         fill="#faf9e5"
         d="m 958.5,549.5 c -1.2,-6.465 -2.866,-12.799 -5,-19 0,-0.333 0,-0.667 0,-1 0.165,-3.35 -0.002,-6.683 -0.5,-10 -2.5,-13.331 -5,-26.665 -7.5,-40 -2.016,-1.206 -4.016,-1.206 -6,0 -2.376,1.709 -4.376,3.709 -6,6 -4.326,3.348 -9.326,5.348 -15,6 -6.322,0.777 -12.655,0.944 -19,0.5 -7.608,-2.482 -15.274,-4.648 -23,-6.5 -3.469,-0.047 -6.802,-0.713 -10,-2 -8.49,-1.157 -17.157,-1.324 -26,-0.5 -6.261,2.198 -12.595,4.198 -19,6 -0.752,0.671 -1.086,1.504 -1,2.5 -3.314,1.331 -6.647,2.664 -10,4 -1.349,-0.346 -2.683,-0.679 -4,-1 -2.027,-0.162 -4.027,0.005 -6,0.5 -1.256,0.417 -1.923,1.25 -2,2.5 -1.143,3.476 -1.31,7.142 -0.5,11 2.081,9.348 4.914,18.348 8.5,27 0.667,0 1,0.333 1,1 0,2.667 0,5.333 0,8 -2.246,-2.149 -3.746,-4.816 -4.5,-8 -3.789,-11.696 -6.956,-23.529 -9.5,-35.5 0.735,-3.924 2.735,-6.924 6,-9 4.341,-0.093 8.674,-0.093 13,0 21.674,-12.202 44.674,-14.869 69,-8 8.557,2.641 16.724,5.141 24.5,7.5 2.974,-0.25 5.641,-1.25 8,-3 0.333,0.333 0.667,0.667 1,1 10.321,-3.317 19.321,-7.984 27,-14 0.741,1.141 1.575,1.141 2.5,0 2.55,3.521 4.05,7.521 4.5,12 4.16,20.619 7.327,41.286 9.5,62 z"
         id="path449" />
    </g>
    <g
       id="g450"
       style="clip-rule:evenodd;fill-rule:evenodd;image-rendering:optimizeQuality;shape-rendering:geometricPrecision;text-rendering:geometricPrecision"
       transform="matrix(0.29590604,0,0,0.29590604,-212.17629,-116.48339)">
      <path
         style="opacity:1"
         fill="#f9f4ba"
         d="m 876.5,485.5 c 7.726,1.852 15.392,4.018 23,6.5 6.345,0.444 12.678,0.277 19,-0.5 -1.333,0.667 -2.667,1.333 -4,2 -13.68,1.173 -26.347,-1.494 -38,-8 z"
         id="path450" />
    </g>
    <g
       id="g451"
       style="clip-rule:evenodd;fill-rule:evenodd;image-rendering:optimizeQuality;shape-rendering:geometricPrecision;text-rendering:geometricPrecision"
       transform="matrix(0.29590604,0,0,0.29590604,-212.17629,-116.48339)">
      <path
         style="opacity:1"
         fill="#f9f3ba"
         d="m 866.5,483.5 c -8.34,-0.166 -16.673,0 -25,0.5 -1.237,0.232 -2.237,0.732 -3,1.5 -3.895,0.962 -7.561,2.296 -11,4 -2.608,-0.1 -4.942,0.567 -7,2 -0.086,-0.996 0.248,-1.829 1,-2.5 6.405,-1.802 12.739,-3.802 19,-6 8.843,-0.824 17.51,-0.657 26,0.5 z"
         id="path451" />
    </g>
    <g
       id="g452"
       style="clip-rule:evenodd;fill-rule:evenodd;image-rendering:optimizeQuality;shape-rendering:geometricPrecision;text-rendering:geometricPrecision"
       transform="matrix(0.29590604,0,0,0.29590604,-212.17629,-116.48339)">
      <path
         style="opacity:1"
         fill="#e9d26b"
         d="m 866.5,483.5 c 3.198,1.287 6.531,1.953 10,2 11.653,6.506 24.32,9.173 38,8 -5.14,0.988 -10.474,1.321 -16,1 -10.663,-3.771 -21.663,-6.604 -33,-8.5 -8.994,-0.5 -17.994,-0.666 -27,-0.5 0.763,-0.768 1.763,-1.268 3,-1.5 8.327,-0.5 16.66,-0.666 25,-0.5 z"
         id="path452" />
    </g>
    <g
       id="g456"
       style="clip-rule:evenodd;fill-rule:evenodd;image-rendering:optimizeQuality;shape-rendering:geometricPrecision;text-rendering:geometricPrecision"
       transform="matrix(0.29590604,0,0,0.29590604,-212.17629,-116.48339)">
      <path
         style="opacity:1"
         fill="#eacb59"
         d="m 961.5,463.5 c 7.006,5.006 13.006,11.006 18,18 1.726,3.228 3.226,6.561 4.5,10 0.708,0.881 1.542,1.547 2.5,2 2.635,1.839 3.968,4.506 4,8 0.667,2.333 1.333,4.667 2,7 -1.951,-1.216 -3.451,-2.882 -4.5,-5 -0.564,-3.627 -2.064,-6.793 -4.5,-9.5 -1.819,-0.783 -3.152,-0.283 -4,1.5 1.285,2.521 1.952,5.187 2,8 -3.284,-5.891 -6.618,-11.891 -10,-18 1.93,1.263 3.597,2.93 5,5 1.236,0.746 2.57,1.079 4,1 -1.356,-4.078 -2.856,-8.078 -4.5,-12 -2.498,-1.917 -5.165,-3.584 -8,-5 -2.392,-3.553 -4.559,-7.22 -6.5,-11 z"
         id="path456" />
    </g>
    <g
       id="g457"
       style="clip-rule:evenodd;fill-rule:evenodd;image-rendering:optimizeQuality;shape-rendering:geometricPrecision;text-rendering:geometricPrecision"
       transform="matrix(0.29590604,0,0,0.29590604,-212.17629,-116.48339)">
      <path
         style="opacity:1"
         fill="#f9f0ab"
         d="m 820.5,491.5 c -0.453,0.958 -1.119,1.792 -2,2.5 -3.026,0.69 -5.859,1.857 -8.5,3.5 -1.642,-0.478 -2.809,-1.478 -3.5,-3 1.317,0.321 2.651,0.654 4,1 3.353,-1.336 6.686,-2.669 10,-4 z"
         id="path457" />
    </g>
    <g
       id="g458"
       style="clip-rule:evenodd;fill-rule:evenodd;image-rendering:optimizeQuality;shape-rendering:geometricPrecision;text-rendering:geometricPrecision"
       transform="matrix(0.29590604,0,0,0.29590604,-212.17629,-116.48339)">
      <path
         style="opacity:1"
         fill="#e7c74f"
         d="m 827.5,489.5 c -7.452,7.146 -16.286,10.146 -26.5,9 -0.667,3 -0.667,6 0,9 1.965,6.197 3.465,12.53 4.5,19 -4.337,-9.019 -6.67,-18.686 -7,-29 0.077,-1.25 0.744,-2.083 2,-2.5 1.973,-0.495 3.973,-0.662 6,-0.5 0.691,1.522 1.858,2.522 3.5,3 2.641,-1.643 5.474,-2.81 8.5,-3.5 0.881,-0.708 1.547,-1.542 2,-2.5 2.058,-1.433 4.392,-2.1 7,-2 z"
         id="path458" />
    </g>
    <g
       id="g459"
       style="clip-rule:evenodd;fill-rule:evenodd;image-rendering:optimizeQuality;shape-rendering:geometricPrecision;text-rendering:geometricPrecision"
       transform="matrix(0.29590604,0,0,0.29590604,-212.17629,-116.48339)">
      <path
         style="opacity:1"
         fill="#faf9dd"
         d="m 769.5,490.5 c -1.625,4.248 -2.958,8.581 -4,13 -0.838,0.342 -1.172,1.008 -1,2 -1.333,1.333 -2.667,2.667 -4,4 1.877,-5.734 4.044,-11.4 6.5,-17 0.708,-0.881 1.542,-1.547 2.5,-2 z"
         id="path459" />
    </g>
    <g
       id="g462"
       style="clip-rule:evenodd;fill-rule:evenodd;image-rendering:optimizeQuality;shape-rendering:geometricPrecision;text-rendering:geometricPrecision"
       transform="matrix(0.29590604,0,0,0.29590604,-212.17629,-116.48339)">
      <path
         style="opacity:1"
         fill="#f7eeaa"
         d="m 966.5,481.5 c 1.667,1.333 3.333,2.667 5,4 3.382,6.109 6.716,12.109 10,18 1.883,3.777 3.216,7.777 4,12 -4.428,-8.177 -8.928,-16.51 -13.5,-25 -3.37,-2.174 -5.203,-5.174 -5.5,-9 z"
         id="path462" />
    </g>
    <g
       id="g463"
       style="clip-rule:evenodd;fill-rule:evenodd;image-rendering:optimizeQuality;shape-rendering:geometricPrecision;text-rendering:geometricPrecision"
       transform="matrix(0.29590604,0,0,0.29590604,-212.17629,-116.48339)">
      <path
         style="opacity:1"
         fill="#f9f0b7"
         d="m 990.5,501.5 c 1.25,0.077 2.083,0.744 2.5,2 2.172,7.566 4.839,14.899 8,22 0.5,3.652 0.67,7.318 0.5,11 -0.67,-2 -1.33,-4 -2,-6 -1.085,-3.868 -2.418,-7.535 -4,-11 -0.555,-3.897 -1.555,-7.563 -3,-11 -0.667,-2.333 -1.333,-4.667 -2,-7 z"
         id="path463" />
    </g>
    <g
       id="g465"
       style="clip-rule:evenodd;fill-rule:evenodd;image-rendering:optimizeQuality;shape-rendering:geometricPrecision;text-rendering:geometricPrecision"
       transform="matrix(0.29590604,0,0,0.29590604,-212.17629,-116.48339)">
      <path
         style="opacity:1"
         fill="#f9f2b8"
         d="m 802.5,468.5 c -4.095,4.084 -7.761,8.418 -11,13 -5.601,6.198 -9.934,13.198 -13,21 -2.059,3.111 -3.892,6.444 -5.5,10 -7.175,20.753 -9.175,42.087 -6,64 3.409,11.06 6.909,22.06 10.5,33 -3.16,-2.875 -4.993,-6.542 -5.5,-11 -0.377,-1.442 -1.21,-2.442 -2.5,-3 -1.54,-7.701 -3.207,-15.368 -5,-23 -0.777,-9.312 -1.11,-18.646 -1,-28 3.725,-29.113 15.725,-54.113 36,-75 0.891,-0.61 1.891,-0.943 3,-1 z"
         id="path465" />
    </g>
    <g
       id="g466"
       style="clip-rule:evenodd;fill-rule:evenodd;image-rendering:optimizeQuality;shape-rendering:geometricPrecision;text-rendering:geometricPrecision"
       transform="matrix(0.29590604,0,0,0.29590604,-212.17629,-116.48339)">
      <path
         style="opacity:1"
         fill="#f9f0b2"
         d="m 953.5,529.5 c -3.728,-15.409 -6.895,-31.076 -9.5,-47 -0.388,-0.928 -1.055,-1.595 -2,-2 -2.927,1.545 -5.76,3.212 -8.5,5 1.624,-2.291 3.624,-4.291 6,-6 1.984,-1.206 3.984,-1.206 6,0 2.5,13.335 5,26.669 7.5,40 0.498,3.317 0.665,6.65 0.5,10 z"
         id="path466" />
    </g>
    <g
       id="g476"
       style="clip-rule:evenodd;fill-rule:evenodd;image-rendering:optimizeQuality;shape-rendering:geometricPrecision;text-rendering:geometricPrecision"
       transform="matrix(0.29590604,0,0,0.29590604,-212.17629,-116.48339)">
      <path
         style="opacity:1"
         fill="#f8f0a6"
         d="m 886.5,514.5 c 0,0.667 0,1.333 0,2 0,0.667 0,1.333 0,2 -1.285,-1.562 -2.785,-2.896 -4.5,-4 -1.715,1.104 -3.215,2.438 -4.5,4 0.724,-7.108 3.724,-8.441 9,-4 z"
         id="path476" />
    </g>
    <g
       id="g477"
       style="clip-rule:evenodd;fill-rule:evenodd;image-rendering:optimizeQuality;shape-rendering:geometricPrecision;text-rendering:geometricPrecision"
       transform="matrix(0.29590604,0,0,0.29590604,-212.17629,-116.48339)">
      <path
         style="opacity:1"
         fill="#f8eeab"
         d="m 798.5,497.5 c 0.33,10.314 2.663,19.981 7,29 0.463,2.982 0.796,5.982 1,9 -3.586,-8.652 -6.419,-17.652 -8.5,-27 -0.81,-3.858 -0.643,-7.524 0.5,-11 z"
         id="path477" />
    </g>
    <g
       id="g479"
       style="clip-rule:evenodd;fill-rule:evenodd;image-rendering:optimizeQuality;shape-rendering:geometricPrecision;text-rendering:geometricPrecision"
       transform="matrix(0.29590604,0,0,0.29590604,-212.17629,-116.48339)">
      <path
         style="opacity:1"
         fill="#ecc641"
         d="m 992.5,508.5 c 1.445,3.437 2.445,7.103 3,11 -1.617,-0.538 -3.284,-0.871 -5,-1 0.533,6.132 1.7,12.132 3.5,18 0.827,12.84 0.66,25.507 -0.5,38 0.166,-10.006 0,-20.006 -0.5,-30 -0.186,-2.536 -0.686,-4.869 -1.5,-7 -0.417,-5.67 -1.751,-11.003 -4,-16 -1.23,-1.797 -1.896,-3.797 -2,-6 -0.784,-4.223 -2.117,-8.223 -4,-12 -0.048,-2.813 -0.715,-5.479 -2,-8 0.848,-1.783 2.181,-2.283 4,-1.5 2.436,2.707 3.936,5.873 4.5,9.5 1.049,2.118 2.549,3.784 4.5,5 z"
         id="path479" />
    </g>
    <g
       id="g482"
       style="clip-rule:evenodd;fill-rule:evenodd;image-rendering:optimizeQuality;shape-rendering:geometricPrecision;text-rendering:geometricPrecision"
       transform="matrix(0.29590604,0,0,0.29590604,-212.17629,-116.48339)">
      <path
         style="opacity:1"
         fill="#e4c658"
         d="m 995.5,519.5 c 1.582,3.465 2.915,7.132 4,11 0.75,12.319 1.09,24.652 1,37 -0.29,8.73 -1.96,17.063 -5,25 1.868,-11.442 3.201,-22.942 4,-34.5 -0.239,-8.848 -0.739,-17.681 -1.5,-26.5 -1.772,-3.813 -2.605,-7.813 -2.5,-12 z"
         id="path482" />
    </g>
    <g
       id="g485"
       style="clip-rule:evenodd;fill-rule:evenodd;image-rendering:optimizeQuality;shape-rendering:geometricPrecision;text-rendering:geometricPrecision"
       transform="matrix(0.29590604,0,0,0.29590604,-212.17629,-116.48339)">
      <path
         style="opacity:1"
         fill="#faf9e1"
         d="m 962.5,479.5 c 1.562,0.233 2.895,0.9 4,2 0.297,3.826 2.13,6.826 5.5,9 4.572,8.49 9.072,16.823 13.5,25 0.104,2.203 0.77,4.203 2,6 -0.165,3.35 0.002,6.683 0.5,10 1.581,4.296 2.748,8.629 3.5,13 0,1 0,2 0,3 0.605,10.308 -0.395,20.308 -3,30 1.005,-11.984 1.172,-23.984 0.5,-36 -2.579,-11.337 -5.579,-22.337 -9,-33 -2.274,-2.006 -4.108,-4.339 -5.5,-7 -1.537,-4.079 -3.371,-8.079 -5.5,-12 -3.594,-2.423 -5.761,-5.757 -6.5,-10 z"
         id="path485" />
    </g>
    <g
       id="g487"
       style="clip-rule:evenodd;fill-rule:evenodd;image-rendering:optimizeQuality;shape-rendering:geometricPrecision;text-rendering:geometricPrecision"
       transform="matrix(0.29590604,0,0,0.29590604,-212.17629,-116.48339)">
      <path
         style="opacity:1"
         fill="#e4c757"
         d="m 805.5,526.5 c 2.681,4.188 4.515,8.854 5.5,14 2.683,9.216 4.85,18.549 6.5,28 -0.667,-0.667 -1.333,-1.333 -2,-2 0,-0.333 0,-0.667 0,-1 -2.419,-9.776 -5.086,-19.443 -8,-29 0,-0.667 -0.333,-1 -1,-1 -0.204,-3.018 -0.537,-6.018 -1,-9 z"
         id="path487" />
    </g>
    <g
       id="g488"
       style="clip-rule:evenodd;fill-rule:evenodd;image-rendering:optimizeQuality;shape-rendering:geometricPrecision;text-rendering:geometricPrecision"
       transform="matrix(0.29590604,0,0,0.29590604,-212.17629,-116.48339)">
      <path
         style="opacity:1"
         fill="#faf9e8"
         d="m 886.5,518.5 c 0.06,4.014 1.727,7.181 5,9.5 5.019,0.411 10.019,0.911 15,1.5 0.149,1.052 -0.017,2.052 -0.5,3 -9.373,5.42 -12.707,13.42 -10,24 -4.499,0.845 -8.332,-0.488 -11.5,-4 2.765,0.298 5.265,1.298 7.5,3 2.484,-1.199 2.65,-3.032 0.5,-5.5 0.419,-2.757 1.086,-5.757 2,-9 -0.333,-0.333 -0.667,-0.667 -1,-1 10.304,-6.629 9.304,-9.962 -3,-10 -3.222,-3.714 -6.222,-7.548 -9,-11.5 -1.753,2.505 -3.253,5.171 -4.5,8 -1.255,0.711 -2.421,1.544 -3.5,2.5 -4.491,0.145 -8.824,0.979 -13,2.5 3.037,2.539 5.87,5.206 8.5,8 2.01,4.922 1.843,9.755 -0.5,14.5 0.547,0.925 1.213,1.758 2,2.5 1.35,-1.45 3.016,-2.117 5,-2 -1.051,0.722 -1.718,1.722 -2,3 -1.935,0.65 -3.935,0.983 -6,1 0.602,-5.711 0.602,-11.377 0,-17 -2.623,-3.125 -5.456,-6.125 -8.5,-9 -0.483,-0.948 -0.649,-1.948 -0.5,-3 4.999,-0.766 9.999,-1.6 15,-2.5 0.833,-1.5 2,-2.667 3.5,-3.5 0.494,-1.634 0.66,-3.301 0.5,-5 1.285,-1.562 2.785,-2.896 4.5,-4 1.715,1.104 3.215,2.438 4.5,4 z"
         id="path488" />
    </g>
    <g
       id="g490"
       style="clip-rule:evenodd;fill-rule:evenodd;image-rendering:optimizeQuality;shape-rendering:geometricPrecision;text-rendering:geometricPrecision"
       transform="matrix(0.29590604,0,0,0.29590604,-212.17629,-116.48339)">
      <path
         style="opacity:1"
         fill="#f9f4b8"
         d="m 764.5,505.5 c -2.828,5.663 -4.495,11.663 -5,18 -0.667,1 -1.333,2 -2,3 -1.139,3.801 -1.972,7.801 -2.5,12 -0.5,8.994 -0.666,17.994 -0.5,27 -0.993,-8.15 -1.326,-16.483 -1,-25 1.165,-10.691 3.499,-21.025 7,-31 1.333,-1.333 2.667,-2.667 4,-4 z"
         id="path490" />
    </g>
    <g
       id="g491"
       style="clip-rule:evenodd;fill-rule:evenodd;image-rendering:optimizeQuality;shape-rendering:geometricPrecision;text-rendering:geometricPrecision"
       transform="matrix(0.29590604,0,0,0.29590604,-212.17629,-116.48339)">
      <path
         style="opacity:1"
         fill="#f8efa9"
         d="m 987.5,521.5 c 2.249,4.997 3.583,10.33 4,16 0,2.333 0,4.667 0,7 -0.752,-4.371 -1.919,-8.704 -3.5,-13 -0.498,-3.317 -0.665,-6.65 -0.5,-10 z"
         id="path491" />
    </g>
    <g
       id="g492"
       style="clip-rule:evenodd;fill-rule:evenodd;image-rendering:optimizeQuality;shape-rendering:geometricPrecision;text-rendering:geometricPrecision"
       transform="matrix(0.29590604,0,0,0.29590604,-212.17629,-116.48339)">
      <path
         style="opacity:1"
         fill="#ebd16c"
         d="m 763.5,544.5 c -0.11,9.354 0.223,18.688 1,28 -0.722,-0.418 -1.222,-1.084 -1.5,-2 -0.824,-8.843 -0.657,-17.51 0.5,-26 z"
         id="path492" />
    </g>
    <g
       id="g493"
       style="clip-rule:evenodd;fill-rule:evenodd;image-rendering:optimizeQuality;shape-rendering:geometricPrecision;text-rendering:geometricPrecision"
       transform="matrix(0.29590604,0,0,0.29590604,-212.17629,-116.48339)">
      <path
         style="opacity:1"
         fill="#f9f2b5"
         d="m 953.5,530.5 c 2.134,6.201 3.8,12.535 5,19 0.086,4.357 0.42,8.69 1,13 -0.667,-0.667 -1.333,-1.333 -2,-2 0,-0.333 0,-0.667 0,-1 -1.445,-9.665 -2.778,-19.332 -4,-29 z"
         id="path493" />
    </g>
    <g
       id="g494"
       style="clip-rule:evenodd;fill-rule:evenodd;image-rendering:optimizeQuality;shape-rendering:geometricPrecision;text-rendering:geometricPrecision"
       transform="matrix(0.29590604,0,0,0.29590604,-212.17629,-116.48339)">
      <path
         style="opacity:1"
         fill="#eed878"
         d="m 757.5,526.5 c -1.598,13.277 -2.265,26.61 -2,40 -0.333,0 -0.667,0 -1,0 0,-0.333 0,-0.667 0,-1 -0.166,-9.006 0,-18.006 0.5,-27 0.528,-4.199 1.361,-8.199 2.5,-12 z"
         id="path494" />
    </g>
    <g
       id="g495"
       style="clip-rule:evenodd;fill-rule:evenodd;image-rendering:optimizeQuality;shape-rendering:geometricPrecision;text-rendering:geometricPrecision"
       transform="matrix(0.29590604,0,0,0.29590604,-212.17629,-116.48339)">
      <path
         style="opacity:1"
         fill="#f8eeaa"
         d="m 807.5,536.5 c 2.914,9.557 5.581,19.224 8,29 -1.29,-0.558 -2.123,-1.558 -2.5,-3 -0.908,-6.454 -2.741,-12.454 -5.5,-18 0,-2.667 0,-5.333 0,-8 z"
         id="path495" />
    </g>
    <g
       id="g496"
       style="clip-rule:evenodd;fill-rule:evenodd;image-rendering:optimizeQuality;shape-rendering:geometricPrecision;text-rendering:geometricPrecision"
       transform="matrix(0.29590604,0,0,0.29590604,-212.17629,-116.48339)">
      <path
         style="opacity:1"
         fill="#efd984"
         d="m 999.5,530.5 c 0.67,2 1.33,4 2,6 0,10.333 0,20.667 0,31 -0.33,0 -0.67,0 -1,0 0.09,-12.348 -0.25,-24.681 -1,-37 z"
         id="path496" />
    </g>
    <g
       id="g497"
       style="clip-rule:evenodd;fill-rule:evenodd;image-rendering:optimizeQuality;shape-rendering:geometricPrecision;text-rendering:geometricPrecision"
       transform="matrix(0.29590604,0,0,0.29590604,-212.17629,-116.48339)">
      <path
         style="opacity:1"
         fill="#eacb51"
         d="m 886.5,514.5 c -5.276,-4.441 -8.276,-3.108 -9,4 -1.519,2.521 -3.186,5.021 -5,7.5 -1.973,0.495 -3.973,0.662 -6,0.5 -4.105,-0.266 -8.105,0.234 -12,1.5 -1.3,1.579 -0.966,2.745 1,3.5 3.998,3.165 7.498,6.832 10.5,11 -0.013,6.318 -0.179,12.651 -0.5,19 3.352,-0.03 6.018,-1.363 8,-4 7.712,-3.308 14.712,-2.142 21,3.5 1.634,0.494 3.301,0.66 5,0.5 -1.096,-6.304 -1.596,-12.637 -1.5,-19 3.63,-3.799 7.13,-7.632 10.5,-11.5 -0.593,-1.882 -1.927,-2.882 -4,-3 -4.295,-0.912 -8.628,-1.579 -13,-2 -2.128,-2.273 -3.795,-4.773 -5,-7.5 0,-0.667 0,-1.333 0,-2 2.803,2.301 5.47,4.801 8,7.5 5.589,0.552 11.089,1.385 16.5,2.5 0.789,5.748 -1.544,9.748 -7,12 -1.333,2 -2.667,4 -4,6 0.578,6.302 0.911,12.635 1,19 -1.726,1.076 -3.559,1.243 -5.5,0.5 -5.084,-4.882 -11.084,-6.882 -18,-6 -3.771,4.222 -8.438,6.222 -14,6 -0.158,-6.743 -0.325,-13.576 -0.5,-20.5 -3.292,-2.177 -6.292,-4.843 -9,-8 -1.174,-2.171 -2.34,-4.338 -3.5,-6.5 0.772,-1.221 1.772,-2.221 3,-3 6.515,-0.308 12.849,-1.474 19,-3.5 0.713,-2.276 1.213,-4.609 1.5,-7 0.908,-1.939 2.408,-2.939 4.5,-3 -0.652,-4.827 1.348,-6.66 6,-5.5 1.054,2.382 1.721,4.882 2,7.5 z"
         id="path497" />
    </g>
    <g
       id="g498"
       style="clip-rule:evenodd;fill-rule:evenodd;image-rendering:optimizeQuality;shape-rendering:geometricPrecision;text-rendering:geometricPrecision"
       transform="matrix(0.29590604,0,0,0.29590604,-212.17629,-116.48339)">
      <path
         style="opacity:1"
         fill="#f9f4be"
         d="m 886.5,518.5 c 1.205,2.727 2.872,5.227 5,7.5 4.372,0.421 8.705,1.088 13,2 2.073,0.118 3.407,1.118 4,3 -3.37,3.868 -6.87,7.701 -10.5,11.5 -0.096,6.363 0.404,12.696 1.5,19 -1.699,0.16 -3.366,-0.006 -5,-0.5 -6.288,-5.642 -13.288,-6.808 -21,-3.5 0.282,-1.278 0.949,-2.278 2,-3 2.715,-1.623 5.715,-2.29 9,-2 3.168,3.512 7.001,4.845 11.5,4 -2.707,-10.58 0.627,-18.58 10,-24 0.483,-0.948 0.649,-1.948 0.5,-3 -4.981,-0.589 -9.981,-1.089 -15,-1.5 -3.273,-2.319 -4.94,-5.486 -5,-9.5 z"
         id="path498" />
    </g>
    <g
       id="g499"
       style="clip-rule:evenodd;fill-rule:evenodd;image-rendering:optimizeQuality;shape-rendering:geometricPrecision;text-rendering:geometricPrecision"
       transform="matrix(0.29590604,0,0,0.29590604,-212.17629,-116.48339)">
      <path
         style="opacity:1"
         fill="#f9f3ba"
         d="m 877.5,518.5 c 0.16,1.699 -0.006,3.366 -0.5,5 -1.5,0.833 -2.667,2 -3.5,3.5 -5.001,0.9 -10.001,1.734 -15,2.5 -0.149,1.052 0.017,2.052 0.5,3 3.044,2.875 5.877,5.875 8.5,9 0.602,5.623 0.602,11.289 0,17 2.065,-0.017 4.065,-0.35 6,-1 -1.982,2.637 -4.648,3.97 -8,4 0.321,-6.349 0.487,-12.682 0.5,-19 -3.002,-4.168 -6.502,-7.835 -10.5,-11 0,-1 0,-2 0,-3 3.837,-0.431 7.503,-1.098 11,-2 2.027,0.162 4.027,-0.005 6,-0.5 1.814,-2.479 3.481,-4.979 5,-7.5 z"
         id="path499" />
    </g>
    <g
       id="g500"
       style="clip-rule:evenodd;fill-rule:evenodd;image-rendering:optimizeQuality;shape-rendering:geometricPrecision;text-rendering:geometricPrecision"
       transform="matrix(0.29590604,0,0,0.29590604,-212.17629,-116.48339)">
      <path
         style="opacity:1"
         fill="#f3e07c"
         d="m 866.5,526.5 c -3.497,0.902 -7.163,1.569 -11,2 0,1 0,2 0,3 -1.966,-0.755 -2.3,-1.921 -1,-3.5 3.895,-1.266 7.895,-1.766 12,-1.5 z"
         id="path500" />
    </g>
    <g
       id="g501"
       style="clip-rule:evenodd;fill-rule:evenodd;image-rendering:optimizeQuality;shape-rendering:geometricPrecision;text-rendering:geometricPrecision"
       transform="matrix(0.29590604,0,0,0.29590604,-212.17629,-116.48339)">
      <path
         style="opacity:1"
         fill="#faf9f9"
         d="m 884.5,552.5 c -3.285,-0.29 -6.285,0.377 -9,2 -1.984,-0.117 -3.65,0.55 -5,2 -0.787,-0.742 -1.453,-1.575 -2,-2.5 2.343,-4.745 2.51,-9.578 0.5,-14.5 -2.63,-2.794 -5.463,-5.461 -8.5,-8 4.176,-1.521 8.509,-2.355 13,-2.5 1.079,-0.956 2.245,-1.789 3.5,-2.5 1.247,-2.829 2.747,-5.495 4.5,-8 2.778,3.952 5.778,7.786 9,11.5 12.304,0.038 13.304,3.371 3,10 0.333,0.333 0.667,0.667 1,1 -0.914,3.243 -1.581,6.243 -2,9 2.15,2.468 1.984,4.301 -0.5,5.5 -2.235,-1.702 -4.735,-2.702 -7.5,-3 z"
         id="path501" />
    </g>
    <g
       id="g508"
       style="clip-rule:evenodd;fill-rule:evenodd;image-rendering:optimizeQuality;shape-rendering:geometricPrecision;text-rendering:geometricPrecision"
       transform="matrix(0.29590604,0,0,0.29590604,-212.17629,-116.48339)">
      <path
         style="opacity:1"
         fill="#faf9e3"
         d="m 753.5,540.5 c -0.326,8.517 0.007,16.85 1,25 0,0.333 0,0.667 0,1 -0.166,5.011 10e-4,10.011 0.5,15 2.552,7.155 4.385,14.489 5.5,22 -2.591,-5.581 -4.925,-11.414 -7,-17.5 0.333,-0.333 0.667,-0.667 1,-1 -1.589,-7.705 -2.589,-15.538 -3,-23.5 0.514,-7.166 1.181,-14.166 2,-21 z"
         id="path508" />
    </g>
    <g
       id="g509"
       style="clip-rule:evenodd;fill-rule:evenodd;image-rendering:optimizeQuality;shape-rendering:geometricPrecision;text-rendering:geometricPrecision"
       transform="matrix(0.29590604,0,0,0.29590604,-212.17629,-116.48339)">
      <path
         style="opacity:1"
         fill="#e8cc63"
         d="m 991.5,537.5 c 0.814,2.131 1.314,4.464 1.5,7 0.5,9.994 0.666,19.994 0.5,30 -1.36,3.12 -2.193,6.453 -2.5,10 -0.377,1.442 -1.21,2.442 -2.5,3 1.269,-6.644 2.436,-13.31 3.5,-20 0.821,-6.846 0.654,-13.513 -0.5,-20 0,-1 0,-2 0,-3 0,-2.333 0,-4.667 0,-7 z"
         id="path509" />
    </g>
    <g
       id="g510"
       style="clip-rule:evenodd;fill-rule:evenodd;image-rendering:optimizeQuality;shape-rendering:geometricPrecision;text-rendering:geometricPrecision"
       transform="matrix(0.29590604,0,0,0.29590604,-212.17629,-116.48339)">
      <path
         style="opacity:1"
         fill="#e5c74d"
         d="m 759.5,523.5 c -0.837,10.894 -1.837,21.727 -3,32.5 0.021,6.54 0.521,13.04 1.5,19.5 2.206,10.613 5.206,20.946 9,31 2.784,4.448 5.117,9.115 7,14 1.683,3.171 3.849,5.837 6.5,8 6.835,8.947 14.169,17.614 22,26 -4.607,-3.268 -8.941,-6.935 -13,-11 -4.643,-5.485 -9.143,-11.152 -13.5,-17 -12.345,-18.015 -19.179,-38.015 -20.5,-60 -0.265,-13.39 0.402,-26.723 2,-40 0.667,-1 1.333,-2 2,-3 z"
         id="path510" />
    </g>
    <g
       id="g511"
       style="clip-rule:evenodd;fill-rule:evenodd;image-rendering:optimizeQuality;shape-rendering:geometricPrecision;text-rendering:geometricPrecision"
       transform="matrix(0.29590604,0,0,0.29590604,-212.17629,-116.48339)">
      <path
         style="opacity:1"
         fill="#faf9e3"
         d="m 807.5,544.5 c 2.759,5.546 4.592,11.546 5.5,18 0.377,1.442 1.21,2.442 2.5,3 0,0.333 0,0.667 0,1 0.039,7.048 2.039,13.382 6,19 0.278,4.81 1.611,9.143 4,13 0.266,7.063 2.1,13.73 5.5,20 0.418,4.433 1.251,8.766 2.5,13 -1.93,-2.899 -3.597,-6.066 -5,-9.5 -4.294,-11.826 -7.627,-23.993 -10,-36.5 -1.446,-3.653 -3.113,-7.153 -5,-10.5 0.333,-0.333 0.667,-0.667 1,-1 -1.465,-6.318 -3.298,-12.484 -5.5,-18.5 -0.936,-3.614 -1.436,-7.28 -1.5,-11 z"
         id="path511" />
    </g>
    <g
       id="g512"
       style="clip-rule:evenodd;fill-rule:evenodd;image-rendering:optimizeQuality;shape-rendering:geometricPrecision;text-rendering:geometricPrecision"
       transform="matrix(0.29590604,0,0,0.29590604,-212.17629,-116.48339)">
      <path
         style="opacity:1"
         fill="#f8f0b2"
         d="m 815.5,566.5 c 0.667,0.667 1.333,1.333 2,2 1.492,5.633 2.825,11.299 4,17 -3.961,-5.618 -5.961,-11.952 -6,-19 z"
         id="path512" />
    </g>
    <g
       id="g513"
       style="clip-rule:evenodd;fill-rule:evenodd;image-rendering:optimizeQuality;shape-rendering:geometricPrecision;text-rendering:geometricPrecision"
       transform="matrix(0.29590604,0,0,0.29590604,-212.17629,-116.48339)">
      <path
         style="opacity:1"
         fill="#f9f2bc"
         d="m 959.5,563.5 c 1.193,0.47 1.86,1.47 2,3 1.154,4.68 1.154,9.346 0,14 -0.683,0.363 -1.35,0.696 -2,1 0.546,-5.938 0.546,-11.938 0,-18 z"
         id="path513" />
    </g>
    <g
       id="g516"
       style="clip-rule:evenodd;fill-rule:evenodd;image-rendering:optimizeQuality;shape-rendering:geometricPrecision;text-rendering:geometricPrecision"
       transform="matrix(0.29590604,0,0,0.29590604,-212.17629,-116.48339)">
      <path
         style="opacity:1"
         fill="#f1c836"
         d="m 995.5,519.5 c -0.105,4.187 0.728,8.187 2.5,12 0.761,8.819 1.261,17.652 1.5,26.5 -0.799,11.558 -2.132,23.058 -4,34.5 0,0.333 0,0.667 0,1 -1.981,2.628 -3.481,5.628 -4.5,9 -1.493,2.162 -3.16,4.162 -5,6 -0.944,-0.763 -1.444,-1.763 -1.5,-3 2.352,-5.426 3.685,-11.092 4,-17 0,-0.333 0,-0.667 0,-1 1.29,-0.558 2.123,-1.558 2.5,-3 0.307,-3.547 1.14,-6.88 2.5,-10 1.16,-12.493 1.327,-25.16 0.5,-38 -1.8,-5.868 -2.967,-11.868 -3.5,-18 1.716,0.129 3.383,0.462 5,1 z"
         id="path516" />
    </g>
    <g
       id="g519"
       style="clip-rule:evenodd;fill-rule:evenodd;image-rendering:optimizeQuality;shape-rendering:geometricPrecision;text-rendering:geometricPrecision"
       transform="matrix(0.29590604,0,0,0.29590604,-212.17629,-116.48339)">
      <path
         style="opacity:1"
         fill="#f8edaa"
         d="m 1000.5,567.5 c 0.33,0 0.67,0 1,0 -0.67,8.01 -1.501,16.01 -2.5,24 -1.731,3.995 -3.898,7.661 -6.5,11 1.287,-2.906 2.287,-5.906 3,-9 0,-0.333 0,-0.667 0,-1 3.04,-7.937 4.71,-16.27 5,-25 z"
         id="path519" />
    </g>
    <g
       id="g520"
       style="clip-rule:evenodd;fill-rule:evenodd;image-rendering:optimizeQuality;shape-rendering:geometricPrecision;text-rendering:geometricPrecision"
       transform="matrix(0.29590604,0,0,0.29590604,-212.17629,-116.48339)">
      <path
         style="opacity:1"
         fill="#faf9e7"
         d="m 902.5,591.5 c 0,0.333 0,0.667 0,1 -7.708,-1.51 -15.374,-3.344 -23,-5.5 -5.667,-0.667 -11.333,-0.667 -17,0 -1.832,0.748 -3.499,1.748 -5,3 -2,0.333 -4,0.667 -6,1 -1.51,2.755 -3.843,3.921 -7,3.5 1.974,-1.406 3.974,-2.906 6,-4.5 9.841,-4.284 20.174,-5.617 31,-4 7.186,1.268 14.186,3.102 21,5.5 z"
         id="path520" />
    </g>
    <g
       id="g521"
       style="clip-rule:evenodd;fill-rule:evenodd;image-rendering:optimizeQuality;shape-rendering:geometricPrecision;text-rendering:geometricPrecision"
       transform="matrix(0.29590604,0,0,0.29590604,-212.17629,-116.48339)">
      <path
         style="opacity:1"
         fill="#e7ca54"
         d="m 957.5,560.5 c 0.667,0.667 1.333,1.333 2,2 0,0.333 0,0.667 0,1 0.546,6.062 0.546,12.062 0,18 -4.352,2.173 -8.352,4.84 -12,8 -0.667,0 -1.333,0 -2,0 -14.096,4.621 -28.43,5.288 -43,2 -20.501,-10.959 -40.834,-10.625 -61,1 -0.086,-0.996 0.248,-1.829 1,-2.5 15.794,-8.422 32.46,-10.422 50,-6 7.271,3.589 14.937,5.922 23,7 15.588,3.019 29.421,-0.481 41.5,-10.5 1.748,-6.587 1.914,-13.253 0.5,-20 z"
         id="path521" />
    </g>
    <g
       id="g522"
       style="clip-rule:evenodd;fill-rule:evenodd;image-rendering:optimizeQuality;shape-rendering:geometricPrecision;text-rendering:geometricPrecision"
       transform="matrix(0.29590604,0,0,0.29590604,-212.17629,-116.48339)">
      <path
         style="opacity:1"
         fill="#f9f2bb"
         d="m 959.5,581.5 c -2.605,4.581 -6.605,7.248 -12,8 3.648,-3.16 7.648,-5.827 12,-8 z"
         id="path522" />
    </g>
    <g
       id="g524"
       style="clip-rule:evenodd;fill-rule:evenodd;image-rendering:optimizeQuality;shape-rendering:geometricPrecision;text-rendering:geometricPrecision"
       transform="matrix(0.29590604,0,0,0.29590604,-212.17629,-116.48339)">
      <path
         style="opacity:1"
         fill="#faf9ea"
         d="m 778.5,502.5 c -0.962,4.937 -2.795,9.603 -5.5,14 -0.884,6.537 -2.551,12.87 -5,19 -0.142,9.162 -0.309,17.996 -0.5,26.5 1.372,6.091 2.205,12.258 2.5,18.5 0.798,3.043 1.965,5.876 3.5,8.5 -0.333,0.333 -0.667,0.667 -1,1 1.623,3.603 2.79,7.436 3.5,11.5 4.642,8.12 9.809,15.787 15.5,23 0.872,1.95 1.539,3.95 2,6 -5.333,-7 -10.667,-14 -16,-21 -3.591,-10.94 -7.091,-21.94 -10.5,-33 -3.175,-21.913 -1.175,-43.247 6,-64 1.608,-3.556 3.441,-6.889 5.5,-10 z"
         id="path524" />
    </g>
    <g
       id="g527"
       style="clip-rule:evenodd;fill-rule:evenodd;image-rendering:optimizeQuality;shape-rendering:geometricPrecision;text-rendering:geometricPrecision"
       transform="matrix(0.29590604,0,0,0.29590604,-212.17629,-116.48339)">
      <path
         style="opacity:1"
         fill="#f7efaa"
         d="m 991.5,547.5 c 1.154,6.487 1.321,13.154 0.5,20 -1.064,6.69 -2.231,13.356 -3.5,20 0,0.333 0,0.667 0,1 -2.063,5.867 -4.229,11.867 -6.5,18 -0.708,0.881 -1.542,1.547 -2.5,2 1.666,-5.329 3.333,-10.662 5,-16 1.567,-4.842 2.9,-9.842 4,-15 2.605,-9.692 3.605,-19.692 3,-30 z"
         id="path527" />
    </g>
    <g
       id="g529"
       style="clip-rule:evenodd;fill-rule:evenodd;image-rendering:optimizeQuality;shape-rendering:geometricPrecision;text-rendering:geometricPrecision"
       transform="matrix(0.29590604,0,0,0.29590604,-212.17629,-116.48339)">
      <path
         style="opacity:1"
         fill="#f9f4bc"
         d="m 945.5,589.5 c -3.337,2.335 -7.004,4.169 -11,5.5 -10.869,1.189 -21.536,0.356 -32,-2.5 0,-0.333 0,-0.667 0,-1 14.57,3.288 28.904,2.621 43,-2 z"
         id="path529" />
    </g>
    <g
       id="g530"
       style="clip-rule:evenodd;fill-rule:evenodd;image-rendering:optimizeQuality;shape-rendering:geometricPrecision;text-rendering:geometricPrecision"
       transform="matrix(0.29590604,0,0,0.29590604,-212.17629,-116.48339)">
      <path
         style="opacity:1"
         fill="#faf9e7"
         d="m 958.5,549.5 c 0.841,3.005 2.008,6.005 3.5,9 0.092,6.726 1.258,12.893 3.5,18.5 -2.553,4.561 -5.886,8.561 -10,12 -5.872,1.882 -11.539,4.215 -17,7 -2.333,0.333 -4.667,0.667 -7,1 -7.606,0.319 -15.106,0.486 -22.5,0.5 -2.562,-1.227 -4.728,-2.894 -6.5,-5 10.464,2.856 21.131,3.689 32,2.5 3.996,-1.331 7.663,-3.165 11,-5.5 0.667,0 1.333,0 2,0 5.395,-0.752 9.395,-3.419 12,-8 0.65,-0.304 1.317,-0.637 2,-1 1.154,-4.654 1.154,-9.32 0,-14 -0.14,-1.53 -0.807,-2.53 -2,-3 0,-0.333 0,-0.667 0,-1 -0.58,-4.31 -0.914,-8.643 -1,-13 z"
         id="path530" />
    </g>
    <g
       id="g536"
       style="clip-rule:evenodd;fill-rule:evenodd;image-rendering:optimizeQuality;shape-rendering:geometricPrecision;text-rendering:geometricPrecision"
       transform="matrix(0.29590604,0,0,0.29590604,-212.17629,-116.48339)">
      <path
         style="opacity:1"
         fill="#e5c959"
         d="m 817.5,568.5 c 0.617,0.111 1.117,0.444 1.5,1 2.431,10.852 5.431,21.518 9,32 3.894,9.239 6.394,18.905 7.5,29 -2.746,-10.832 -6.079,-21.498 -10,-32 -2.389,-3.857 -3.722,-8.19 -4,-13 -1.175,-5.701 -2.508,-11.367 -4,-17 z"
         id="path536" />
    </g>
    <g
       id="g545"
       style="clip-rule:evenodd;fill-rule:evenodd;image-rendering:optimizeQuality;shape-rendering:geometricPrecision;text-rendering:geometricPrecision"
       transform="matrix(0.29590604,0,0,0.29590604,-212.17629,-116.48339)">
      <path
         style="opacity:1"
         fill="#e8c955"
         d="m 769.5,595.5 c 1.29,0.558 2.123,1.558 2.5,3 0.507,4.458 2.34,8.125 5.5,11 0.386,2.437 1.553,4.437 3.5,6 0.49,1.293 0.657,2.627 0.5,4 -6.615,-6.564 -10.615,-14.564 -12,-24 z"
         id="path545" />
    </g>
    <g
       id="g546"
       style="clip-rule:evenodd;fill-rule:evenodd;image-rendering:optimizeQuality;shape-rendering:geometricPrecision;text-rendering:geometricPrecision"
       transform="matrix(0.29590604,0,0,0.29590604,-212.17629,-116.48339)">
      <path
         style="opacity:1"
         fill="#f6edab"
         d="m 902.5,591.5 c -6.814,-2.398 -13.814,-4.232 -21,-5.5 -10.826,-1.617 -21.159,-0.284 -31,4 -2.026,1.594 -4.026,3.094 -6,4.5 -2.222,0.059 -3.222,1.225 -3,3.5 2.577,10.556 5.243,21.056 8,31.5 0.996,4.963 1.163,9.963 0.5,15 -2.196,2.625 -5.03,3.625 -8.5,3 -1.93,-0.271 -3.264,-1.271 -4,-3 -1.334,-4.258 -2.667,-8.591 -4,-13 -1.249,-4.234 -2.082,-8.567 -2.5,-13 -3.4,-6.27 -5.234,-12.937 -5.5,-20 3.921,10.502 7.254,21.168 10,32 0.507,3.583 1.507,6.917 3,10 0.539,3.071 2.373,4.738 5.5,5 2.034,0.146 3.701,-0.52 5,-2 0.579,-8.809 -0.921,-17.142 -4.5,-25 -1.54,-8.169 -3.54,-16.169 -6,-24 1,-0.667 2,-1.333 3,-2 20.166,-11.625 40.499,-11.959 61,-1 z"
         id="path546" />
    </g>
    <g
       id="g547"
       style="clip-rule:evenodd;fill-rule:evenodd;image-rendering:optimizeQuality;shape-rendering:geometricPrecision;text-rendering:geometricPrecision"
       transform="matrix(0.29590604,0,0,0.29590604,-212.17629,-116.48339)">
      <path
         style="opacity:1"
         fill="#eac94f"
         d="m 988.5,588.5 c -0.315,5.908 -1.648,11.574 -4,17 0.056,1.237 0.556,2.237 1.5,3 1.84,-1.838 3.507,-3.838 5,-6 1.019,-3.372 2.519,-6.372 4.5,-9 -0.713,3.094 -1.713,6.094 -3,9 -1.32,3.66 -2.653,7.326 -4,11 -0.876,-0.131 -1.543,0.202 -2,1 -2.763,7.209 -6.763,13.543 -12,19 2.086,-5.297 4.252,-10.63 6.5,-16 3.206,-1.32 4.206,-3.653 3,-7 -4.37,4.202 -8.537,8.536 -12.5,13 2.675,-5.048 5.341,-10.048 8,-15 0.958,-0.453 1.792,-1.119 2.5,-2 2.271,-6.133 4.437,-12.133 6.5,-18 z"
         id="path547" />
    </g>
    <g
       id="g549"
       style="clip-rule:evenodd;fill-rule:evenodd;image-rendering:optimizeQuality;shape-rendering:geometricPrecision;text-rendering:geometricPrecision"
       transform="matrix(0.29590604,0,0,0.29590604,-212.17629,-116.48339)">
      <path
         style="opacity:1"
         fill="#faf8d8"
         d="m 984.5,592.5 c -1.667,5.338 -3.334,10.671 -5,16 -2.659,4.952 -5.325,9.952 -8,15 -2.969,3.142 -5.802,6.475 -8.5,10 -1.926,2.039 -4.093,3.706 -6.5,5 0,-1 0,-2 0,-3 3.266,0.067 4.766,-1.599 4.5,-5 2.801,-2.651 4.968,-5.651 6.5,-9 1.322,0.17 2.489,-0.163 3.5,-1 2.423,-6.88 5.089,-13.546 8,-20 1.116,-3.256 2.949,-5.922 5.5,-8 z"
         id="path549" />
    </g>
    <g
       id="g551"
       style="clip-rule:evenodd;fill-rule:evenodd;image-rendering:optimizeQuality;shape-rendering:geometricPrecision;text-rendering:geometricPrecision"
       transform="matrix(0.29590604,0,0,0.29590604,-212.17629,-116.48339)">
      <path
         style="opacity:1"
         fill="#e7ce64"
         d="m 838.5,594.5 c 2.46,7.831 4.46,15.831 6,24 -1.29,-0.558 -2.123,-1.558 -2.5,-3 -0.522,-4.9 -1.855,-9.566 -4,-14 -0.796,-2.539 -0.629,-4.872 0.5,-7 z"
         id="path551" />
    </g>
    <g
       id="g552"
       style="clip-rule:evenodd;fill-rule:evenodd;image-rendering:optimizeQuality;shape-rendering:geometricPrecision;text-rendering:geometricPrecision"
       transform="matrix(0.29590604,0,0,0.29590604,-212.17629,-116.48339)">
      <path
         style="opacity:1"
         fill="#faf8dc"
         d="m 1001.5,536.5 c 1.44,6.442 2.11,13.108 2,20 -0.09,12.771 -1.26,25.438 -3.5,38 -2.623,5.871 -5.623,11.538 -9,17 -0.333,2 -0.667,4 -1,6 -0.816,1.323 -1.983,1.989 -3.5,2 0.667,-2 1.333,-4 2,-6 1.347,-3.674 2.68,-7.34 4,-11 2.602,-3.339 4.769,-7.005 6.5,-11 0.999,-7.99 1.83,-15.99 2.5,-24 0,-10.333 0,-20.667 0,-31 z"
         id="path552" />
    </g>
    <g
       id="g554"
       style="clip-rule:evenodd;fill-rule:evenodd;image-rendering:optimizeQuality;shape-rendering:geometricPrecision;text-rendering:geometricPrecision"
       transform="matrix(0.29590604,0,0,0.29590604,-212.17629,-116.48339)">
      <path
         style="opacity:1"
         fill="#f9f2b8"
         d="m 754.5,566.5 c 0.333,0 0.667,0 1,0 1.321,21.985 8.155,41.985 20.5,60 4.357,5.848 8.857,11.515 13.5,17 -4.052,-3.723 -8.052,-7.39 -12,-11 -6.165,-9.469 -11.832,-19.136 -17,-29 -1.115,-7.511 -2.948,-14.845 -5.5,-22 -0.499,-4.989 -0.666,-9.989 -0.5,-15 z"
         id="path554" />
    </g>
    <g
       id="g556"
       style="clip-rule:evenodd;fill-rule:evenodd;image-rendering:optimizeQuality;shape-rendering:geometricPrecision;text-rendering:geometricPrecision"
       transform="matrix(0.29590604,0,0,0.29590604,-212.17629,-116.48339)">
      <path
         style="opacity:1"
         fill="#faf9e9"
         d="m 844.5,594.5 c -0.423,0.765 -0.757,1.598 -1,2.5 2.592,11.619 5.759,23.119 9.5,34.5 0.667,4.333 0.667,8.667 0,13 -2.947,5.867 -7.447,7.367 -13.5,4.5 -1.537,-1.11 -2.203,-2.61 -2,-4.5 0.736,1.729 2.07,2.729 4,3 4.712,2.145 8.212,0.811 10.5,-4 1.086,-5.132 0.252,-9.799 -2.5,-14 -2.757,-10.444 -5.423,-20.944 -8,-31.5 -0.222,-2.275 0.778,-3.441 3,-3.5 z"
         id="path556" />
    </g>
    <g
       id="g558"
       style="clip-rule:evenodd;fill-rule:evenodd;image-rendering:optimizeQuality;shape-rendering:geometricPrecision;text-rendering:geometricPrecision"
       transform="matrix(0.29590604,0,0,0.29590604,-212.17629,-116.48339)">
      <path
         style="opacity:1"
         fill="#f9f2b6"
         d="m 777.5,609.5 c 5.333,7 10.667,14 16,21 0,0.333 0,0.667 0,1 4.374,4.372 8.374,9.039 12,14 -1.871,-0.359 -3.371,-1.359 -4.5,-3 -6.518,-7.738 -13.018,-15.405 -19.5,-23 0.157,-1.373 -0.01,-2.707 -0.5,-4 -1.947,-1.563 -3.114,-3.563 -3.5,-6 z"
         id="path558" />
    </g>
    <g
       id="g559"
       style="clip-rule:evenodd;fill-rule:evenodd;image-rendering:optimizeQuality;shape-rendering:geometricPrecision;text-rendering:geometricPrecision"
       transform="matrix(0.29590604,0,0,0.29590604,-212.17629,-116.48339)">
      <path
         style="opacity:1"
         fill="#ecd679"
         d="m 971.5,623.5 c -0.209,1.422 -0.709,2.755 -1.5,4 -2.374,2.039 -4.374,4.372 -6,7 -5.749,6.586 -12.249,12.253 -19.5,17 2,-2.333 4,-4.667 6,-7 3.022,-1.022 5.022,-3.022 6,-6 2.407,-1.294 4.574,-2.961 6.5,-5 2.698,-3.525 5.531,-6.858 8.5,-10 z"
         id="path559" />
    </g>
    <g
       id="g561"
       style="clip-rule:evenodd;fill-rule:evenodd;image-rendering:optimizeQuality;shape-rendering:geometricPrecision;text-rendering:geometricPrecision"
       transform="matrix(0.29590604,0,0,0.29590604,-212.17629,-116.48339)">
      <path
         style="opacity:1"
         fill="#faf9e7"
         d="m 793.5,631.5 c 1.052,-0.149 2.052,0.017 3,0.5 2,2.333 4,4.667 6,7 7.833,5.347 15.167,11.181 22,17.5 -4.38,-2.2 -8.38,-5.033 -12,-8.5 -2.354,-0.847 -4.688,-1.68 -7,-2.5 -3.626,-4.961 -7.626,-9.628 -12,-14 z"
         id="path561" />
    </g>
    <g
       id="g562"
       style="clip-rule:evenodd;fill-rule:evenodd;image-rendering:optimizeQuality;shape-rendering:geometricPrecision;text-rendering:geometricPrecision"
       transform="matrix(0.29590604,0,0,0.29590604,-212.17629,-116.48339)">
      <path
         style="opacity:1"
         fill="#e6c953"
         d="m 844.5,618.5 c 3.579,7.858 5.079,16.191 4.5,25 -1.299,1.48 -2.966,2.146 -5,2 -3.127,-0.262 -4.961,-1.929 -5.5,-5 1.625,1.53 3.459,2.863 5.5,4 1.107,-0.085 2.107,-0.419 3,-1 0.148,-8.454 -0.685,-16.787 -2.5,-25 z"
         id="path562" />
    </g>
    <g
       id="g566"
       style="clip-rule:evenodd;fill-rule:evenodd;image-rendering:optimizeQuality;shape-rendering:geometricPrecision;text-rendering:geometricPrecision"
       transform="matrix(0.29590604,0,0,0.29590604,-212.17629,-116.48339)">
      <path
         style="opacity:1"
         fill="#f0c733"
         d="m 974.5,633.5 c -3.021,5.021 -7.021,9.021 -12,12 -2.093,0.545 -4.093,1.378 -6,2.5 -3.998,4.18 -8.665,7.347 -14,9.5 -0.424,-2.071 0.242,-4.071 2,-6 7.251,-4.747 13.751,-10.414 19.5,-17 1.626,-2.628 3.626,-4.961 6,-7 0.791,-1.245 1.291,-2.578 1.5,-4 3.963,-4.464 8.13,-8.798 12.5,-13 1.206,3.347 0.206,5.68 -3,7 -2.248,5.37 -4.414,10.703 -6.5,16 z"
         id="path566" />
    </g>
    <g
       id="g568"
       style="clip-rule:evenodd;fill-rule:evenodd;image-rendering:optimizeQuality;shape-rendering:geometricPrecision;text-rendering:geometricPrecision"
       transform="matrix(0.29590604,0,0,0.29590604,-212.17629,-116.48339)">
      <path
         style="opacity:1"
         fill="#faf9e6"
         d="m 986.5,619.5 c 0.16,1.699 -0.006,3.366 -0.5,5 -6.229,8.593 -13.062,16.759 -20.5,24.5 -0.948,0.483 -1.948,0.649 -3,0.5 6.329,-6.496 12.495,-13.163 18.5,-20 2.099,-3.245 3.932,-6.579 5.5,-10 z"
         id="path568" />
    </g>
    <g
       id="g571"
       style="clip-rule:evenodd;fill-rule:evenodd;image-rendering:optimizeQuality;shape-rendering:geometricPrecision;text-rendering:geometricPrecision"
       transform="matrix(0.29590604,0,0,0.29590604,-212.17629,-116.48339)">
      <path
         style="opacity:1"
         fill="#faf9e6"
         d="m 777.5,632.5 c 3.948,3.61 7.948,7.277 12,11 0.912,2.095 2.079,4.095 3.5,6 3.056,2.461 5.889,5.127 8.5,8 -1.755,-0.572 -3.422,-1.406 -5,-2.5 -6.449,-6.118 -12.615,-12.618 -18.5,-19.5 -0.483,-0.948 -0.649,-1.948 -0.5,-3 z"
         id="path571" />
    </g>
    <g
       id="g572"
       style="clip-rule:evenodd;fill-rule:evenodd;image-rendering:optimizeQuality;shape-rendering:geometricPrecision;text-rendering:geometricPrecision"
       transform="matrix(0.29590604,0,0,0.29590604,-212.17629,-116.48339)">
      <path
         style="opacity:1"
         fill="#f9f4c6"
         d="m 849.5,629.5 c 2.752,4.201 3.586,8.868 2.5,14 -2.288,4.811 -5.788,6.145 -10.5,4 3.47,0.625 6.304,-0.375 8.5,-3 0.663,-5.037 0.496,-10.037 -0.5,-15 z"
         id="path572" />
    </g>
    <g
       id="g573"
       style="clip-rule:evenodd;fill-rule:evenodd;image-rendering:optimizeQuality;shape-rendering:geometricPrecision;text-rendering:geometricPrecision"
       transform="matrix(0.29590604,0,0,0.29590604,-212.17629,-116.48339)">
      <path
         style="opacity:1"
         fill="#faf9e4"
         d="m 956.5,638.5 c -0.978,2.978 -2.978,4.978 -6,6 -6.299,4.821 -12.965,9.155 -20,13 0.408,-1.143 1.075,-2.143 2,-3 7.655,-3.934 14.322,-9.101 20,-15.5 1.293,-0.49 2.627,-0.657 4,-0.5 z"
         id="path573" />
    </g>
    <g
       id="g574"
       style="clip-rule:evenodd;fill-rule:evenodd;image-rendering:optimizeQuality;shape-rendering:geometricPrecision;text-rendering:geometricPrecision"
       transform="matrix(0.29590604,0,0,0.29590604,-212.17629,-116.48339)">
      <path
         style="opacity:1"
         fill="#f9f3b8"
         d="m 950.5,644.5 c -2,2.333 -4,4.667 -6,7 -4.966,2.098 -9.299,5.098 -13,9 -7.106,2.146 -14.106,4.48 -21,7 6.395,-3.439 12.728,-6.772 19,-10 0.333,0 0.667,0 1,0 7.035,-3.845 13.701,-8.179 20,-13 z"
         id="path574" />
    </g>
    <g
       id="g575"
       style="clip-rule:evenodd;fill-rule:evenodd;image-rendering:optimizeQuality;shape-rendering:geometricPrecision;text-rendering:geometricPrecision"
       transform="matrix(0.29590604,0,0,0.29590604,-212.17629,-116.48339)">
      <path
         style="opacity:1"
         fill="#f8eeb0"
         d="m 988.5,613.5 c -0.667,2 -1.333,4 -2,6 -1.568,3.421 -3.401,6.755 -5.5,10 -6.005,6.837 -12.171,13.504 -18.5,20 -5.099,3.594 -9.766,7.761 -14,12.5 -1.936,0.813 -3.936,1.313 -6,1.5 4.468,-3.737 9.135,-7.237 14,-10.5 2.268,-2.418 4.268,-4.918 6,-7.5 4.979,-2.979 8.979,-6.979 12,-12 5.237,-5.457 9.237,-11.791 12,-19 0.457,-0.798 1.124,-1.131 2,-1 z"
         id="path575" />
    </g>
    <g
       id="g582"
       style="clip-rule:evenodd;fill-rule:evenodd;image-rendering:optimizeQuality;shape-rendering:geometricPrecision;text-rendering:geometricPrecision"
       transform="matrix(0.29590604,0,0,0.29590604,-212.17629,-116.48339)">
      <path
         style="opacity:1"
         fill="#f9f2b5"
         d="m 789.5,643.5 c 4.059,4.065 8.393,7.732 13,11 2.05,2.047 4.383,3.714 7,5 3.411,2.223 6.744,4.723 10,7.5 5.101,1.519 9.768,3.686 14,6.5 -4.447,-0.927 -8.781,-2.26 -13,-4 -6.156,-4.247 -12.49,-8.247 -19,-12 -2.611,-2.873 -5.444,-5.539 -8.5,-8 -1.421,-1.905 -2.588,-3.905 -3.5,-6 z"
         id="path582" />
    </g>
    <g
       id="g587"
       style="clip-rule:evenodd;fill-rule:evenodd;image-rendering:optimizeQuality;shape-rendering:geometricPrecision;text-rendering:geometricPrecision"
       transform="matrix(0.29590604,0,0,0.29590604,-212.17629,-116.48339)">
      <path
         style="opacity:1"
         fill="#e7cd66"
         d="m 809.5,659.5 c 1.373,-0.157 2.707,0.01 4,0.5 7.701,6.027 16.368,10.36 26,13 0.667,0.667 1.333,1.333 2,2 21.515,4.917 43.182,5.75 65,2.5 -2.746,0.751 -5.413,1.751 -8,3 -14.333,1.333 -28.667,1.333 -43,0 -7.521,-1.834 -14.854,-4.168 -22,-7 -4.232,-2.814 -8.899,-4.981 -14,-6.5 -3.256,-2.777 -6.589,-5.277 -10,-7.5 z"
         id="path587" />
    </g>
    <g
       id="g589"
       style="clip-rule:evenodd;fill-rule:evenodd;image-rendering:optimizeQuality;shape-rendering:geometricPrecision;text-rendering:geometricPrecision"
       transform="matrix(0.29590604,0,0,0.29590604,-212.17629,-116.48339)">
      <path
         style="opacity:1"
         fill="#f7eaa5"
         d="m 942.5,663.5 c -0.79,1.294 -1.79,2.461 -3,3.5 -2.786,1.501 -5.453,3.001 -8,4.5 -9.307,3.437 -18.64,6.437 -28,9 -1.667,0 -3.333,0 -5,0 2.587,-1.249 5.254,-2.249 8,-3 6.484,-1.328 12.818,-3.162 19,-5.5 5.72,-2.86 11.386,-5.693 17,-8.5 z"
         id="path589" />
    </g>
    <g
       id="g591"
       style="clip-rule:evenodd;fill-rule:evenodd;image-rendering:optimizeQuality;shape-rendering:geometricPrecision;text-rendering:geometricPrecision"
       transform="matrix(0.29590604,0,0,0.29590604,-212.17629,-116.48339)">
      <path
         style="opacity:1"
         fill="#eec83f"
         d="m 781.5,619.5 c 6.482,7.595 12.982,15.262 19.5,23 1.129,1.641 2.629,2.641 4.5,3 10.089,8.892 21.423,16.059 34,21.5 1.634,0.494 3.301,0.66 5,0.5 7.801,2.855 15.801,4.855 24,6 15.642,1.962 30.975,0.129 46,-5.5 5.997,-1.829 11.664,-4.329 17,-7.5 3.701,-3.902 8.034,-6.902 13,-9 -1.758,1.929 -2.424,3.929 -2,6 5.335,-2.153 10.002,-5.32 14,-9.5 1.907,-1.122 3.907,-1.955 6,-2.5 -1.732,2.582 -3.732,5.082 -6,7.5 -4.865,3.263 -9.532,6.763 -14,10.5 -5.614,2.807 -11.28,5.64 -17,8.5 -6.182,2.338 -12.516,4.172 -19,5.5 -21.818,3.25 -43.485,2.417 -65,-2.5 -0.667,-0.667 -1.333,-1.333 -2,-2 -9.632,-2.64 -18.299,-6.973 -26,-13 -1.293,-0.49 -2.627,-0.657 -4,-0.5 -2.617,-1.286 -4.95,-2.953 -7,-5 -7.831,-8.386 -15.165,-17.053 -22,-26 2.064,0.262 3.397,1.429 4,3.5 0.667,0.667 1.333,0.667 2,0 -1.133,-3.064 -2.633,-5.897 -4.5,-8.5 -0.49,-1.293 -0.657,-2.627 -0.5,-4 z"
         id="path591" />
    </g>
    <g
       id="g592"
       style="clip-rule:evenodd;fill-rule:evenodd;image-rendering:optimizeQuality;shape-rendering:geometricPrecision;text-rendering:geometricPrecision"
       transform="matrix(0.29590604,0,0,0.29590604,-212.17629,-116.48339)">
      <path
         style="opacity:1"
         fill="#faf9e2"
         d="m 929.5,657.5 c -6.272,3.228 -12.605,6.561 -19,10 -2.246,0.955 -4.579,1.622 -7,2 -16.867,2.909 -33.533,2.576 -50,-1 10.177,0.435 19.844,0.768 29,1 8.175,-0.209 16.008,-1.876 23.5,-5 0.561,0.522 1.228,0.855 2,1 6.857,-3.599 14.023,-6.266 21.5,-8 z"
         id="path592" />
    </g>
    <g
       id="g593"
       style="clip-rule:evenodd;fill-rule:evenodd;image-rendering:optimizeQuality;shape-rendering:geometricPrecision;text-rendering:geometricPrecision"
       transform="matrix(0.29590604,0,0,0.29590604,-212.17629,-116.48339)">
      <path
         style="opacity:1"
         fill="#f4e79c"
         d="m 844.5,667.5 c 3.018,0.204 6.018,0.537 9,1 16.467,3.576 33.133,3.909 50,1 -11.284,3.427 -22.951,4.76 -35,4 -8.199,-1.145 -16.199,-3.145 -24,-6 z"
         id="path593" />
    </g>
    <g
       id="g594"
       style="clip-rule:evenodd;fill-rule:evenodd;image-rendering:optimizeQuality;shape-rendering:geometricPrecision;text-rendering:geometricPrecision"
       transform="matrix(0.29590604,0,0,0.29590604,-212.17629,-116.48339)">
      <path
         style="opacity:1"
         fill="#e5cd65"
         d="m 931.5,660.5 c -5.336,3.171 -11.003,5.671 -17,7.5 -15.025,5.629 -30.358,7.462 -46,5.5 12.049,0.76 23.716,-0.573 35,-4 2.421,-0.378 4.754,-1.045 7,-2 6.894,-2.52 13.894,-4.854 21,-7 z"
         id="path594" />
    </g>
    <g
       id="g595"
       style="clip-rule:evenodd;fill-rule:evenodd;image-rendering:optimizeQuality;shape-rendering:geometricPrecision;text-rendering:geometricPrecision"
       transform="matrix(0.29590604,0,0,0.29590604,-212.17629,-116.48339)">
      <path
         style="opacity:1"
         fill="#faf9dc"
         d="m 836.5,662.5 c 6.278,0.641 11.944,2.641 17,6 -2.982,-0.463 -5.982,-0.796 -9,-1 -3.097,-0.928 -5.764,-2.594 -8,-5 z"
         id="path595" />
    </g>
    <g
       id="g596"
       style="clip-rule:evenodd;fill-rule:evenodd;image-rendering:optimizeQuality;shape-rendering:geometricPrecision;text-rendering:geometricPrecision"
       transform="matrix(0.29590604,0,0,0.29590604,-212.17629,-116.48339)">
      <path
         style="opacity:1"
         fill="#f8efb0"
         d="m 805.5,645.5 c 2.312,0.82 4.646,1.653 7,2.5 3.62,3.467 7.62,6.3 12,8.5 3.409,3.038 7.409,5.038 12,6 2.236,2.406 4.903,4.072 8,5 -1.699,0.16 -3.366,-0.006 -5,-0.5 -12.577,-5.441 -23.911,-12.608 -34,-21.5 z"
         id="path596" />
    </g>
    <g
       id="g599"
       style="clip-rule:evenodd;fill-rule:evenodd;image-rendering:optimizeQuality;shape-rendering:geometricPrecision;text-rendering:geometricPrecision"
       transform="matrix(0.29590604,0,0,0.29590604,-212.17629,-116.48339)">
      <path
         style="opacity:1"
         fill="#faf9e5"
         d="m 820.5,669.5 c 4.219,1.74 8.553,3.073 13,4 7.146,2.832 14.479,5.166 22,7 0.418,0.722 1.084,1.222 2,1.5 15.579,2.343 30.912,1.843 46,-1.5 9.36,-2.563 18.693,-5.563 28,-9 -3.489,1.881 -6.822,4.047 -10,6.5 -10.607,2.361 -20.773,4.861 -30.5,7.5 -7.502,-1.084 -15.169,-1.084 -23,0 -17.28,-1.76 -33.113,-7.093 -47.5,-16 z"
         id="path599" />
    </g>
    <g
       id="g600"
       style="clip-rule:evenodd;fill-rule:evenodd;image-rendering:optimizeQuality;shape-rendering:geometricPrecision;text-rendering:geometricPrecision"
       transform="matrix(0.29590604,0,0,0.29590604,-212.17629,-116.48339)">
      <path
         style="opacity:1"
         fill="#faf6c7"
         d="m 855.5,680.5 c 14.333,1.333 28.667,1.333 43,0 1.667,0 3.333,0 5,0 -15.088,3.343 -30.421,3.843 -46,1.5 -0.916,-0.278 -1.582,-0.778 -2,-1.5 z"
         id="path600" />
    </g>
  </g>
</svg>
