<?xml version="1.0" encoding="UTF-8" standalone="no"?>
<!-- Created with Inkscape (http://www.inkscape.org/) -->

<svg
   width="96mm"
   height="96mm"
   viewBox="0 0 96 96"
   version="1.1"
   id="svg1"
   inkscape:version="1.4.2 (ebf0e940, 2025-05-08)"
   sodipodi:docname="car.svg"
   xmlns:inkscape="http://www.inkscape.org/namespaces/inkscape"
   xmlns:sodipodi="http://sodipodi.sourceforge.net/DTD/sodipodi-0.dtd"
   xmlns="http://www.w3.org/2000/svg"
   xmlns:svg="http://www.w3.org/2000/svg">
  <sodipodi:namedview
     id="namedview1"
     pagecolor="#ffffff"
     bordercolor="#000000"
     borderopacity="0.25"
     inkscape:showpageshadow="2"
     inkscape:pageopacity="0.0"
     inkscape:pagecheckerboard="0"
     inkscape:deskcolor="#d1d1d1"
     inkscape:document-units="mm"
     inkscape:zoom="0.80444024"
     inkscape:cx="397.17059"
     inkscape:cy="262.91574"
     inkscape:window-width="1920"
     inkscape:window-height="1052"
     inkscape:window-x="0"
     inkscape:window-y="28"
     inkscape:window-maximized="0"
     inkscape:current-layer="layer1" />
  <defs
     id="defs1" />
  <g
     inkscape:label="Layer 1"
     inkscape:groupmode="layer"
     id="layer1">
    <g
       id="g10"
       style="clip-rule:evenodd;fill-rule:evenodd;image-rendering:optimizeQuality;shape-rendering:geometricPrecision;text-rendering:geometricPrecision"
       transform="matrix(0.32951763,0,0,0.32951763,-245.02205,-7.2397942)">
      <path
         style="opacity:1"
         fill="#faf9e6"
         d="m 931.5,287.5 c 1.476,-2 3.309,-3.667 5.5,-5 1.094,-1.578 1.928,-3.245 2.5,-5 1.953,-4.237 3.62,-8.57 5,-13 2.147,-10.582 3.147,-21.415 3,-32.5 -0.858,-29.494 -1.192,-58.994 -1,-88.5 2.559,0.302 4.893,-0.032 7,-1 0.617,-0.111 1.117,-0.444 1.5,-1 0.667,-3 0.667,-6 0,-9 -2.729,-2.899 -5.562,-5.566 -8.5,-8 0.317,-14.034 -0.183,-28.0342 -1.5,-42 -1.616,-3.8466 -2.616,-7.8466 -3,-12 -0.759,-1.5629 -1.926,-2.5629 -3.5,-3 0.172,-0.9916 -0.162,-1.6583 -1,-2 -1.149,-4.2647 -3.816,-7.2647 -8,-9 -1.571,-2.7313 -3.905,-4.5646 -7,-5.5 -6.451,-2.7318 -13.117,-4.5651 -20,-5.5 -0.333,0 -0.667,0 -1,0 -10.48,-2.4816 -21.147,-2.6483 -32,-0.5 -1.237,0.2321 -2.237,0.7321 -3,1.5 -5.374,0.8456 -10.707,2.0123 -16,3.5 -3.452,2.8993 -7.118,5.5659 -11,8 -1.732,1.9719 -3.065,4.1386 -4,6.5 0,0.3333 0,0.6667 0,1 -1.673,0.843 -2.84,2.1763 -3.5,4 -4.313,18.0278 -6.313,36.361 -6,55 -2.929,2.171 -5.096,4.838 -6.5,8 0,2.667 0,5.333 0,8 2.135,1.869 4.802,2.536 8,2 0,26.667 0,53.333 0,80 -1.526,19.096 0.474,37.762 6,56 3.395,3.402 7.062,6.402 11,9 3.058,1.632 6.391,2.799 10,3.5 7.757,1.553 15.424,2.72 23,3.5 -11.926,0.511 -23.593,-0.989 -35,-4.5 -3.439,-2.139 -6.606,-4.639 -9.5,-7.5 -0.579,-3.088 -1.913,-5.755 -4,-8 -0.105,-6.16 -1.105,-12.16 -3,-18 -0.167,-6.167 -0.333,-12.333 -0.5,-18.5 0.998,-30.496 1.164,-60.996 0.5,-91.5 -2.911,-1.66 -6.078,-2.826 -9.5,-3.5 -2.407,-7.727 -0.074,-13.893 7,-18.5 -0.32,-12.434 0.18,-25.1008 1.5,-38 2.118,-5.4709 3.451,-11.1376 4,-17 4.808,-8.8082 11.642,-15.6416 20.5,-20.5 6.54,-2.1175 13.04,-4.2842 19.5,-6.5 21.39,-3.2277 41.89,0.2723 61.5,10.5 5.566,4.6336 10.066,10.1336 13.5,16.5 4.403,17.8357 5.57,36.169 3.5,55 6.485,2.048 10.152,6.381 11,13 -1.164,3.673 -3.331,6.673 -6.5,9 -1.356,-0.88 -2.856,-1.214 -4.5,-1 0.35,22.06 0.35,44.226 0,66.5 2.473,17.757 1.973,36.257 -1.5,55.5 -2.275,4.884 -4.275,9.884 -6,15 -2.255,2.613 -5.089,4.28 -8.5,5 z"
         id="path10" />
    </g>
    <g
       id="g11"
       style="clip-rule:evenodd;fill-rule:evenodd;image-rendering:optimizeQuality;shape-rendering:geometricPrecision;text-rendering:geometricPrecision"
       transform="matrix(0.32951763,0,0,0.32951763,-245.02205,-7.2397942)">
      <path
         style="opacity:1"
         fill="#f8ee92"
         d="m 906.5,51.5 c -1.679,-0.2148 -2.679,0.4519 -3,2 -11.241,-2.2998 -22.574,-2.6332 -34,-1 -1.068,-0.9345 -2.401,-1.2678 -4,-1 2,-0.6667 4,-1.3333 6,-2 11.935,-1.652 23.602,-0.9854 35,2 z"
         id="path11" />
    </g>
    <g
       id="g12"
       style="clip-rule:evenodd;fill-rule:evenodd;image-rendering:optimizeQuality;shape-rendering:geometricPrecision;text-rendering:geometricPrecision"
       transform="matrix(0.32951763,0,0,0.32951763,-245.02205,-7.2397942)">
      <path
         style="opacity:1"
         fill="#f7eead"
         d="m 902.5,45.5 c 6.883,0.9349 13.549,2.7682 20,5.5 3.095,0.9354 5.429,2.7687 7,5.5 -8.403,-4.9126 -17.403,-8.2459 -27,-10 0,-0.3333 0,-0.6667 0,-1 z"
         id="path12" />
    </g>
    <g
       id="g13"
       style="clip-rule:evenodd;fill-rule:evenodd;image-rendering:optimizeQuality;shape-rendering:geometricPrecision;text-rendering:geometricPrecision"
       transform="matrix(0.32951763,0,0,0.32951763,-245.02205,-7.2397942)">
      <path
         style="opacity:1"
         fill="#faf5c1"
         d="m 901.5,45.5 c -11.697,-0.2463 -23.364,0.0871 -35,1 0.763,-0.7679 1.763,-1.2679 3,-1.5 10.853,-2.1483 21.52,-1.9816 32,0.5 z"
         id="path13" />
    </g>
    <g
       id="g14"
       style="clip-rule:evenodd;fill-rule:evenodd;image-rendering:optimizeQuality;shape-rendering:geometricPrecision;text-rendering:geometricPrecision"
       transform="matrix(0.32951763,0,0,0.32951763,-245.02205,-7.2397942)">
      <path
         style="opacity:1"
         fill="#e6ce63"
         d="m 902.5,46.5 c 9.597,1.7541 18.597,5.0874 27,10 2.695,3.0256 5.362,6.0256 8,9 0.838,0.3417 1.172,1.0084 1,2 1.139,2.5037 1.806,5.1703 2,8 0.162,2.0273 -0.005,4.0273 -0.5,6 -0.377,-1.4423 -1.21,-2.4423 -2.5,-3 0.085,-1.4953 -0.581,-2.4953 -2,-3 -1.932,1.0202 -3.932,1.1869 -6,0.5 -0.553,-1.8778 -1.553,-3.3778 -3,-4.5 -0.359,-1.871 -1.359,-3.371 -3,-4.5 -1.991,-0.3736 -3.658,-1.207 -5,-2.5 -2.467,-0.2549 -4.467,-1.2549 -6,-3 -0.905,-1.2024 -0.905,-2.5357 0,-4 1.118,-4.5214 -0.882,-6.5214 -6,-6 -11.398,-2.9854 -23.065,-3.652 -35,-2 -1.699,0.1602 -3.366,-0.0065 -5,-0.5 2.462,-1.2156 5.129,-1.8823 8,-2 9.327,-0.4998 18.661,-0.6665 28,-0.5 z"
         id="path14" />
    </g>
    <g
       id="g17"
       style="clip-rule:evenodd;fill-rule:evenodd;image-rendering:optimizeQuality;shape-rendering:geometricPrecision;text-rendering:geometricPrecision"
       transform="matrix(0.32951763,0,0,0.32951763,-245.02205,-7.2397942)">
      <path
         style="opacity:1"
         fill="#f9f5bb"
         d="m 865.5,51.5 c 1.599,-0.2678 2.932,0.0655 4,1 0,0.3333 0,0.6667 0,1 -2.012,0.841 -3.345,2.341 -4,4.5 -4.711,0.7928 -6.377,-1.0405 -5,-5.5 1.545,-0.9519 3.212,-1.2852 5,-1 z"
         id="path17" />
    </g>
    <g
       id="g21"
       style="clip-rule:evenodd;fill-rule:evenodd;image-rendering:optimizeQuality;shape-rendering:geometricPrecision;text-rendering:geometricPrecision"
       transform="matrix(0.32951763,0,0,0.32951763,-245.02205,-7.2397942)">
      <path
         style="opacity:1"
         fill="#faf5bc"
         d="m 866.5,46.5 c -7.13,1.8272 -13.796,4.8272 -20,9 -2.249,0.5798 -3.915,1.9131 -5,4 -2.196,1.3381 -4.196,3.0047 -6,5 0.935,-2.3614 2.268,-4.5281 4,-6.5 3.882,-2.4341 7.548,-5.1007 11,-8 5.293,-1.4877 10.626,-2.6544 16,-3.5 z"
         id="path21" />
    </g>
    <g
       id="g22"
       style="clip-rule:evenodd;fill-rule:evenodd;image-rendering:optimizeQuality;shape-rendering:geometricPrecision;text-rendering:geometricPrecision"
       transform="matrix(0.32951763,0,0,0.32951763,-245.02205,-7.2397942)">
      <path
         style="opacity:1"
         fill="#e7d376"
         d="m 901.5,45.5 c 0.333,0 0.667,0 1,0 0,0.3333 0,0.6667 0,1 -9.339,-0.1665 -18.673,2e-4 -28,0.5 -2.871,0.1177 -5.538,0.7844 -8,2 1.634,0.4935 3.301,0.6602 5,0.5 -2,0.6667 -4,1.3333 -6,2 -1.788,-0.2852 -3.455,0.0481 -5,1 -1.377,4.4595 0.289,6.2928 5,5.5 0.655,-2.159 1.988,-3.659 4,-4.5 -0.538,1.6172 -0.871,3.2839 -1,5 1.333,0 2.667,0 4,0 -1.014,1.1737 -2.347,1.8404 -4,2 -3.018,0.2038 -6.018,0.5371 -9,1 -0.672,-3.1437 -1.672,-6.1437 -3,-9 -3.152,1.4569 -6.485,2.4569 -10,3 6.204,-4.1728 12.87,-7.1728 20,-9 11.636,-0.9129 23.303,-1.2463 35,-1 z"
         id="path22" />
    </g>
    <g
       id="g23"
       style="clip-rule:evenodd;fill-rule:evenodd;image-rendering:optimizeQuality;shape-rendering:geometricPrecision;text-rendering:geometricPrecision"
       transform="matrix(0.32951763,0,0,0.32951763,-245.02205,-7.2397942)">
      <path
         style="opacity:1"
         fill="#e9ca4e"
         d="m 903.5,53.5 c 0.667,0.3333 1.333,0.6667 2,1 0.039,1.0832 0.373,2.0832 1,3 -3.268,0.987 -6.602,1.3204 -10,1 -8,0 -16,0 -24,0 -1.333,0 -2.667,0 -4,0 0.129,-1.7161 0.462,-3.3828 1,-5 0,-0.3333 0,-0.6667 0,-1 11.426,-1.6332 22.759,-1.2998 34,1 z"
         id="path23" />
    </g>
    <g
       id="g24"
       style="clip-rule:evenodd;fill-rule:evenodd;image-rendering:optimizeQuality;shape-rendering:geometricPrecision;text-rendering:geometricPrecision"
       transform="matrix(0.32951763,0,0,0.32951763,-245.02205,-7.2397942)">
      <path
         style="opacity:1"
         fill="#f9f8c0"
         d="m 906.5,51.5 c 5.118,-0.5214 7.118,1.4786 6,6 -2.938,0.2267 -5.271,-0.7733 -7,-3 -0.667,-0.3333 -1.333,-0.6667 -2,-1 0.321,-1.5481 1.321,-2.2148 3,-2 z"
         id="path24" />
    </g>
    <g
       id="g25"
       style="clip-rule:evenodd;fill-rule:evenodd;image-rendering:optimizeQuality;shape-rendering:geometricPrecision;text-rendering:geometricPrecision"
       transform="matrix(0.32951763,0,0,0.32951763,-245.02205,-7.2397942)">
      <path
         style="opacity:1"
         fill="#f5ebac"
         d="m 929.5,56.5 c 4.184,1.7353 6.851,4.7353 8,9 -2.638,-2.9744 -5.305,-5.9744 -8,-9 z"
         id="path25" />
    </g>
    <g
       id="g35"
       style="clip-rule:evenodd;fill-rule:evenodd;image-rendering:optimizeQuality;shape-rendering:geometricPrecision;text-rendering:geometricPrecision"
       transform="matrix(0.32951763,0,0,0.32951763,-245.02205,-7.2397942)">
      <path
         style="opacity:1"
         fill="#e7d77e"
         d="m 905.5,54.5 c 1.729,2.2267 4.062,3.2267 7,3 -0.905,1.4643 -0.905,2.7976 0,4 -5.484,-0.826 -10.818,-1.826 -16,-3 3.398,0.3204 6.732,-0.013 10,-1 -0.627,-0.9168 -0.961,-1.9168 -1,-3 z"
         id="path35" />
    </g>
    <g
       id="g36"
       style="clip-rule:evenodd;fill-rule:evenodd;image-rendering:optimizeQuality;shape-rendering:geometricPrecision;text-rendering:geometricPrecision"
       transform="matrix(0.32951763,0,0,0.32951763,-245.02205,-7.2397942)">
      <path
         style="opacity:1"
         fill="#eacc57"
         d="m 859.5,61.5 c -7.591,1.925 -12.591,6.5916 -15,14 -1.935,0.6495 -3.935,0.9828 -6,1 -0.189,-4.9358 1.477,-9.1025 5,-12.5 -3.172,0.3996 -3.839,-1.1004 -2,-4.5 1.085,-2.0869 2.751,-3.4202 5,-4 3.515,-0.5431 6.848,-1.5431 10,-3 1.328,2.8563 2.328,5.8563 3,9 z"
         id="path36" />
    </g>
    <g
       id="g37"
       style="clip-rule:evenodd;fill-rule:evenodd;image-rendering:optimizeQuality;shape-rendering:geometricPrecision;text-rendering:geometricPrecision"
       transform="matrix(0.32951763,0,0,0.32951763,-245.02205,-7.2397942)">
      <path
         style="opacity:1"
         fill="#efc741"
         d="m 851.5,57.5 c 2.027,-0.1621 4.027,0.0045 6,0.5 0.457,0.414 0.791,0.914 1,1.5 -4.118,2.8051 -8.285,5.4718 -12.5,8 -0.016,-4.2971 1.817,-7.6304 5.5,-10 z"
         id="path37" />
    </g>
    <g
       id="g41"
       style="clip-rule:evenodd;fill-rule:evenodd;image-rendering:optimizeQuality;shape-rendering:geometricPrecision;text-rendering:geometricPrecision"
       transform="matrix(0.32951763,0,0,0.32951763,-245.02205,-7.2397942)">
      <path
         style="opacity:1"
         fill="#faf9f9"
         d="m 911.5,92.5 c 0,0.3333 0,0.6667 0,1 0.031,3.4588 0.698,6.792 2,10 -5.81,0.978 -11.477,0.312 -17,-2 -11.486,0.412 -22.819,0.912 -34,1.5 -0.785,-2.042 -0.452,-4.0417 1,-6 -0.522,-0.5613 -0.855,-1.228 -1,-2 1.458,-4.0427 2.125,-8.2094 2,-12.5 0.617,-0.1107 1.117,-0.444 1.5,-1 1.493,-5.9628 2.659,-11.9628 3.5,-18 11.34,-1.3091 22.673,-1.3091 34,0 0.481,6.592 1.814,13.592 4,21 1.056,2.8993 2.39,5.5659 4,8 z"
         id="path41" />
    </g>
    <g
       id="g44"
       style="clip-rule:evenodd;fill-rule:evenodd;image-rendering:optimizeQuality;shape-rendering:geometricPrecision;text-rendering:geometricPrecision"
       transform="matrix(0.32951763,0,0,0.32951763,-245.02205,-7.2397942)">
      <path
         style="opacity:1"
         fill="#f8f0b0"
         d="m 868.5,60.5 c -3.402,1.1346 -6.735,2.4679 -10,4 -2.312,0.8195 -4.646,1.6529 -7,2.5 -1.323,0.8159 -1.989,1.9826 -2,3.5 -2.534,3.0779 -4.534,6.4112 -6,10 0.129,-1.7161 0.462,-3.3828 1,-5 2.409,-7.4084 7.409,-12.075 15,-14 2.982,-0.4629 5.982,-0.7962 9,-1 z"
         id="path44" />
    </g>
    <g
       id="g45"
       style="clip-rule:evenodd;fill-rule:evenodd;image-rendering:optimizeQuality;shape-rendering:geometricPrecision;text-rendering:geometricPrecision"
       transform="matrix(0.32951763,0,0,0.32951763,-245.02205,-7.2397942)">
      <path
         style="opacity:1"
         fill="#f8f5cb"
         d="m 872.5,58.5 c 8,0 16,0 24,0 5.182,1.174 10.516,2.174 16,3 1.533,1.7451 3.533,2.7451 6,3 1.342,1.293 3.009,2.1264 5,2.5 1.641,1.129 2.641,2.629 3,4.5 0.538,1.6172 0.871,3.2839 1,5 -1,-1.3333 -2,-2.6667 -3,-4 -1.391,-2.3903 -3.391,-4.0569 -6,-5 -1.676,-2.3337 -4.009,-3.3337 -7,-3 0,2 0,4 0,6 -1.175,-1.4738 -2.175,-3.1404 -3,-5 -0.333,0.6667 -0.667,1.3333 -1,2 2.99,11.6177 5.657,23.2844 8,35 -1.483,-2.9328 -2.817,-5.9328 -4,-9 0,-0.3333 0,-0.6667 0,-1 -1.022,-7.0886 -2.522,-14.0886 -4.5,-21 -0.777,-2.9294 -0.61,-5.7628 0.5,-8.5 -5.981,-1.9587 -12.147,-2.792 -18.5,-2.5 -6.977,-0.2339 -13.811,0.5994 -20.5,2.5 -1.088,6.5248 -2.422,13.0248 -4,19.5 -1.667,4 -3.333,8 -5,12 1.838,-9.0198 3.838,-18.0198 6,-27 -0.835,-2.5416 -1.501,-2.375 -2,0.5 -1.752,7.7258 -3.752,15.2258 -6,22.5 1.349,-8.7296 3.016,-17.3963 5,-26 -1.333,0 -2.667,0 -4,0 3.265,-1.5321 6.598,-2.8654 10,-4 1.653,-0.1596 2.986,-0.8263 4,-2 z"
         id="path45" />
    </g>
    <g
       id="g47"
       style="clip-rule:evenodd;fill-rule:evenodd;image-rendering:optimizeQuality;shape-rendering:geometricPrecision;text-rendering:geometricPrecision"
       transform="matrix(0.32951763,0,0,0.32951763,-245.02205,-7.2397942)">
      <path
         style="opacity:1"
         fill="#ebca4a"
         d="m 918.5,64.5 c -1.24,-1.473 -2.24,-3.1396 -3,-5 0.667,-0.3333 1.333,-0.6667 2,-1 2.971,0.9348 5.971,1.7681 9,2.5 1.771,4.0904 3.771,8.0904 6,12 -0.667,0.6667 -1.333,0.6667 -2,0 -2.358,-5.2841 -6.358,-8.1175 -12,-8.5 z"
         id="path47" />
    </g>
    <g
       id="g51"
       style="clip-rule:evenodd;fill-rule:evenodd;image-rendering:optimizeQuality;shape-rendering:geometricPrecision;text-rendering:geometricPrecision"
       transform="matrix(0.32951763,0,0,0.32951763,-245.02205,-7.2397942)">
      <path
         style="opacity:1"
         fill="#e7d06b"
         d="m 841.5,59.5 c -1.839,3.3996 -1.172,4.8996 2,4.5 -3.523,3.3975 -5.189,7.5642 -5,12.5 2.065,-0.0172 4.065,-0.3505 6,-1 -0.538,1.6172 -0.871,3.2839 -1,5 0,0.6667 -0.333,1 -1,1 -0.333,0 -0.667,0 -1,0 -0.335,-4.0111 -2.335,-5.0111 -6,-3 -1.385,1.0736 -2.551,2.4069 -3.5,4 -0.399,-0.2284 -0.565,-0.5618 -0.5,-1 0.955,-5.4431 2.288,-10.7765 4,-16 0,-0.3333 0,-0.6667 0,-1 1.804,-1.9953 3.804,-3.6619 6,-5 z"
         id="path51" />
    </g>
    <g
       id="g55"
       style="clip-rule:evenodd;fill-rule:evenodd;image-rendering:optimizeQuality;shape-rendering:geometricPrecision;text-rendering:geometricPrecision"
       transform="matrix(0.32951763,0,0,0.32951763,-245.02205,-7.2397942)">
      <path
         style="opacity:1"
         fill="#faf9f9"
         d="m 918.5,67.5 c 2.609,0.9431 4.609,2.6097 6,5 2.931,11.7837 3.931,23.4504 3,35 -2.921,0.354 -5.254,-0.646 -7,-3 0.487,-0.946 0.82,-1.946 1,-3 -2.679,-11.3825 -5.679,-22.7159 -9,-34 1.96,-1.0192 3.96,-1.0192 6,0 z"
         id="path55" />
    </g>
    <g
       id="g62"
       style="clip-rule:evenodd;fill-rule:evenodd;image-rendering:optimizeQuality;shape-rendering:geometricPrecision;text-rendering:geometricPrecision"
       transform="matrix(0.32951763,0,0,0.32951763,-245.02205,-7.2397942)">
      <path
         style="opacity:1"
         fill="#faf9ec"
         d="m 911.5,92.5 c -1.61,-2.4341 -2.944,-5.1007 -4,-8 -2.186,-7.408 -3.519,-14.408 -4,-21 -11.327,-1.3091 -22.66,-1.3091 -34,0 -0.841,6.0372 -2.007,12.0372 -3.5,18 -0.383,0.556 -0.883,0.8893 -1.5,1 1.578,-6.4752 2.912,-12.9752 4,-19.5 6.689,-1.9006 13.523,-2.7339 20.5,-2.5 6.353,-0.292 12.519,0.5413 18.5,2.5 -1.11,2.7372 -1.277,5.5706 -0.5,8.5 1.978,6.9114 3.478,13.9114 4.5,21 z"
         id="path62" />
    </g>
    <g
       id="g67"
       style="clip-rule:evenodd;fill-rule:evenodd;image-rendering:optimizeQuality;shape-rendering:geometricPrecision;text-rendering:geometricPrecision"
       transform="matrix(0.32951763,0,0,0.32951763,-245.02205,-7.2397942)">
      <path
         style="opacity:1"
         fill="#f8f3b8"
         d="m 841.5,81.5 c 0.237,1.291 -0.096,2.291 -1,3 0,-1.6667 0,-3.3333 0,-5 -3.095,0.1263 -4.928,1.793 -5.5,5 -2.155,9.5943 -1.988,19.094 0.5,28.5 -1.11,2.737 -1.277,5.571 -0.5,8.5 1.011,0.837 2.178,1.17 3.5,1 -0.322,-5.858 0.011,-11.525 1,-17 -0.343,1.983 0.324,3.317 2,4 0.426,1.785 1.592,2.785 3.5,3 7.281,-3.997 15.114,-6.497 23.5,-7.5 10.175,-0.825 20.175,-0.658 30,0.5 -14.747,-0.957 -29.247,0.376 -43.5,4 -2.091,0.756 -3.924,1.923 -5.5,3.5 -2.198,0.373 -4.365,0.873 -6.5,1.5 -0.772,-0.145 -1.439,-0.478 -2,-1 -0.667,2.333 -0.667,4.667 0,7 1.604,4.007 3.104,8.007 4.5,12 1.228,4.414 2.228,8.914 3,13.5 -0.333,1.167 -0.667,2.333 -1,3.5 -0.333,-0.167 -0.667,-0.333 -1,-0.5 -0.922,-2.294 -1.922,-4.461 -3,-6.5 -1.462,-5.975 -2.795,-11.975 -4,-18 -2.292,0.256 -4.459,-0.077 -6.5,-1 -2.761,-15.271 -1.928,-30.2712 2.5,-45 3.665,-2.0111 5.665,-1.0111 6,3 z"
         id="path67" />
    </g>
    <g
       id="g68"
       style="clip-rule:evenodd;fill-rule:evenodd;image-rendering:optimizeQuality;shape-rendering:geometricPrecision;text-rendering:geometricPrecision"
       transform="matrix(0.32951763,0,0,0.32951763,-245.02205,-7.2397942)">
      <path
         style="opacity:1"
         fill="#e6db8e"
         d="m 926.5,71.5 c 1.447,1.1222 2.447,2.6222 3,4.5 2.068,0.6869 4.068,0.5202 6,-0.5 1.419,0.5047 2.085,1.5047 2,3 -1.739,-0.9339 -3.405,-0.9339 -5,0 -0.689,1.944 -1.189,3.944 -1.5,6 -0.249,-2.8919 -1.416,-5.2253 -3.5,-7 0,-0.3333 0,-0.6667 0,-1 -0.129,-1.7161 -0.462,-3.3828 -1,-5 z"
         id="path68" />
    </g>
    <g
       id="g73"
       style="clip-rule:evenodd;fill-rule:evenodd;image-rendering:optimizeQuality;shape-rendering:geometricPrecision;text-rendering:geometricPrecision"
       transform="matrix(0.32951763,0,0,0.32951763,-245.02205,-7.2397942)">
      <path
         style="opacity:1"
         fill="#ebe7b7"
         d="m 927.5,77.5 c 2.084,1.7747 3.251,4.1081 3.5,7 0.311,-2.056 0.811,-4.056 1.5,-6 1.595,-0.9339 3.261,-0.9339 5,0 0.667,2.3333 1.333,4.6667 2,7 -1.659,-1.9691 -3.325,-3.9691 -5,-6 -0.998,7.9723 -1.331,15.9723 -1,24 -1.162,2.486 -2.496,4.986 -4,7.5 -1.973,0.495 -3.973,0.662 -6,0.5 -1.21,-0.432 -2.21,-1.099 -3,-2 2.744,0.705 5.411,0.705 8,0 0.654,-1.615 1.154,-3.282 1.5,-5 0.396,-9.1449 -0.437,-18.1449 -2.5,-27 z"
         id="path73" />
    </g>
    <g
       id="g75"
       style="clip-rule:evenodd;fill-rule:evenodd;image-rendering:optimizeQuality;shape-rendering:geometricPrecision;text-rendering:geometricPrecision"
       transform="matrix(0.32951763,0,0,0.32951763,-245.02205,-7.2397942)">
      <path
         style="opacity:1"
         fill="#f8f0b5"
         d="m 835.5,65.5 c -1.712,5.2235 -3.045,10.5569 -4,16 -1.425,3.4032 -2.258,7.0698 -2.5,11 -0.168,11.015 -0.668,22.015 -1.5,33 -2.658,2.331 -5.324,4.664 -8,7 1.404,-3.162 3.571,-5.829 6.5,-8 -0.313,-18.639 1.687,-36.9722 6,-55 0.66,-1.8237 1.827,-3.157 3.5,-4 z"
         id="path75" />
    </g>
    <g
       id="g84"
       style="clip-rule:evenodd;fill-rule:evenodd;image-rendering:optimizeQuality;shape-rendering:geometricPrecision;text-rendering:geometricPrecision"
       transform="matrix(0.32951763,0,0,0.32951763,-245.02205,-7.2397942)">
      <path
         style="opacity:1"
         fill="#f9f9e4"
         d="m 858.5,64.5 c 1.333,0 2.667,0 4,0 -1.984,8.6037 -3.651,17.2704 -5,26 0.26,3.8479 -0.406,7.5145 -2,11 0.481,2.231 1.148,2.398 2,0.5 0.749,-2.4966 1.416,-4.9966 2,-7.5 1.667,-4 3.333,-8 5,-12 0.125,4.2906 -0.542,8.4573 -2,12.5 0.145,0.772 0.478,1.4387 1,2 -1.452,1.9583 -1.785,3.958 -1,6 11.181,-0.588 22.514,-1.088 34,-1.5 5.523,2.312 11.19,2.978 17,2 -1.302,-3.208 -1.969,-6.5412 -2,-10 1.183,3.0672 2.517,6.0672 4,9 0.617,0.111 1.117,0.444 1.5,1 0.167,-1.333 0.333,-2.667 0.5,-4 -2.956,-9.3822 -4.956,-19.0489 -6,-29 0,-2 0,-4 0,-6 2.991,-0.3337 5.324,0.6663 7,3 -2.04,-1.0192 -4.04,-1.0192 -6,0 3.321,11.2841 6.321,22.6175 9,34 -0.18,1.054 -0.513,2.054 -1,3 1.746,2.354 4.079,3.354 7,3 0.931,-11.5496 -0.069,-23.2163 -3,-35 1,1.3333 2,2.6667 3,4 0,0.3333 0,0.6667 0,1 2.063,8.8551 2.896,17.8551 2.5,27 -0.346,1.718 -0.846,3.385 -1.5,5 -2.589,0.705 -5.256,0.705 -8,0 -0.418,-0.722 -1.084,-1.222 -2,-1.5 -2.646,-0.497 -5.313,-0.664 -8,-0.5 -3.826,-1.5 -7.826,-2.166 -12,-2 -9.825,-1.158 -19.825,-1.325 -30,-0.5 -8.386,1.003 -16.219,3.503 -23.5,7.5 -1.908,-0.215 -3.074,-1.215 -3.5,-3 0.629,-9.32 0.962,-18.6536 1,-28 0.667,0 1,-0.3333 1,-1 1.466,-3.5888 3.466,-6.9221 6,-10 0.011,-1.5174 0.677,-2.6841 2,-3.5 2.354,-0.8471 4.688,-1.6805 7,-2.5 z"
         id="path84" />
    </g>
    <g
       id="g85"
       style="clip-rule:evenodd;fill-rule:evenodd;image-rendering:optimizeQuality;shape-rendering:geometricPrecision;text-rendering:geometricPrecision"
       transform="matrix(0.32951763,0,0,0.32951763,-245.02205,-7.2397942)">
      <path
         style="opacity:1"
         fill="#dad2a0"
         d="m 911.5,70.5 c 1.044,9.9511 3.044,19.6178 6,29 -0.167,1.333 -0.333,2.667 -0.5,4 -0.383,-0.556 -0.883,-0.889 -1.5,-1 -2.343,-11.7156 -5.01,-23.3823 -8,-35 0.333,-0.6667 0.667,-1.3333 1,-2 0.825,1.8596 1.825,3.5262 3,5 z"
         id="path85" />
    </g>
    <g
       id="g86"
       style="clip-rule:evenodd;fill-rule:evenodd;image-rendering:optimizeQuality;shape-rendering:geometricPrecision;text-rendering:geometricPrecision"
       transform="matrix(0.32951763,0,0,0.32951763,-245.02205,-7.2397942)">
      <path
         style="opacity:1"
         fill="#d5ce9b"
         d="m 859.5,94.5 c -0.584,2.5034 -1.251,5.0034 -2,7.5 -0.852,1.898 -1.519,1.731 -2,-0.5 1.594,-3.4855 2.26,-7.1521 2,-11 2.248,-7.2742 4.248,-14.7742 6,-22.5 0.499,-2.875 1.165,-3.0416 2,-0.5 -2.162,8.9802 -4.162,17.9802 -6,27 z"
         id="path86" />
    </g>
    <g
       id="g87"
       style="clip-rule:evenodd;fill-rule:evenodd;image-rendering:optimizeQuality;shape-rendering:geometricPrecision;text-rendering:geometricPrecision"
       transform="matrix(0.32951763,0,0,0.32951763,-245.02205,-7.2397942)">
      <path
         style="opacity:1"
         fill="#faf9f9"
         d="m 849.5,70.5 c 3.043,-2.52 6.543,-4.1867 10.5,-5 0.167,0.5 0.333,1 0.5,1.5 -1.353,4.1733 -3.02,8.1733 -5,12 0.581,0.8926 0.915,1.8926 1,3 -1.749,7.4872 -3.249,14.9872 -4.5,22.5 -1.08,3.791 -3.58,5.457 -7.5,5 0.478,-7.663 0.978,-15.3296 1.5,-23 1.57,-5.3358 2.737,-10.6692 3.5,-16 z"
         id="path87" />
    </g>
    <g
       id="g93"
       style="clip-rule:evenodd;fill-rule:evenodd;image-rendering:optimizeQuality;shape-rendering:geometricPrecision;text-rendering:geometricPrecision"
       transform="matrix(0.32951763,0,0,0.32951763,-245.02205,-7.2397942)">
      <path
         style="opacity:1"
         fill="#f9f4c5"
         d="m 938.5,67.5 c 1.574,0.4371 2.741,1.4371 3.5,3 0.384,4.1534 1.384,8.1534 3,12 1.317,13.9658 1.817,27.966 1.5,42 -0.667,-9.333 -1.333,-18.667 -2,-28 -0.506,-6.3664 -1.339,-12.6997 -2.5,-19 -0.278,-0.9158 -0.778,-1.5825 -1.5,-2 -0.194,-2.8297 -0.861,-5.4963 -2,-8 z"
         id="path93" />
    </g>
    <g
       id="g97"
       style="clip-rule:evenodd;fill-rule:evenodd;image-rendering:optimizeQuality;shape-rendering:geometricPrecision;text-rendering:geometricPrecision"
       transform="matrix(0.32951763,0,0,0.32951763,-245.02205,-7.2397942)">
      <path
         style="opacity:1"
         fill="#faf9e4"
         d="m 840.5,84.5 c -0.732,6.9756 -1.065,13.9756 -1,21 -0.989,5.475 -1.322,11.142 -1,17 -1.322,0.17 -2.489,-0.163 -3.5,-1 -0.777,-2.929 -0.61,-5.763 0.5,-8.5 -2.488,-9.406 -2.655,-18.9057 -0.5,-28.5 0.572,-3.207 2.405,-4.8737 5.5,-5 0,1.6667 0,3.3333 0,5 z"
         id="path97" />
    </g>
    <g
       id="g98"
       style="clip-rule:evenodd;fill-rule:evenodd;image-rendering:optimizeQuality;shape-rendering:geometricPrecision;text-rendering:geometricPrecision"
       transform="matrix(0.32951763,0,0,0.32951763,-245.02205,-7.2397942)">
      <path
         style="opacity:1"
         fill="#faf9e1"
         d="m 939.5,85.5 c 0,1 0,2 0,3 0.268,11.3714 -0.066,22.705 -1,34 -1.333,0 -2.667,0 -4,0 0.322,-5.858 -0.011,-11.525 -1,-17 0,-0.667 0,-1.333 0,-2 -0.331,-8.0277 0.002,-16.0277 1,-24 1.675,2.0309 3.341,4.0309 5,6 z"
         id="path98" />
    </g>
    <g
       id="g99"
       style="clip-rule:evenodd;fill-rule:evenodd;image-rendering:optimizeQuality;shape-rendering:geometricPrecision;text-rendering:geometricPrecision"
       transform="matrix(0.32951763,0,0,0.32951763,-245.02205,-7.2397942)">
      <path
         style="opacity:1"
         fill="#dcd4a5"
         d="m 841.5,81.5 c 0.333,0 0.667,0 1,0 -0.038,9.3464 -0.371,18.68 -1,28 -1.676,-0.683 -2.343,-2.017 -2,-4 -0.065,-7.0244 0.268,-14.0244 1,-21 0.904,-0.709 1.237,-1.709 1,-3 z"
         id="path99" />
    </g>
    <g
       id="g106"
       style="clip-rule:evenodd;fill-rule:evenodd;image-rendering:optimizeQuality;shape-rendering:geometricPrecision;text-rendering:geometricPrecision"
       transform="matrix(0.32951763,0,0,0.32951763,-245.02205,-7.2397942)">
      <path
         style="opacity:1"
         fill="#f2cd39"
         d="m 923.5,145.5 c -1.604,0.787 -2.271,2.12 -2,4 -17.563,-2.524 -35.23,-3.524 -53,-3 -4.379,-0.208 -8.713,0.125 -13,1 -1.529,-0.029 -2.696,-0.696 -3.5,-2 -2.623,-9.234 -5.789,-18.234 -9.5,-27 0.318,-1.147 0.984,-1.981 2,-2.5 25.39,-10.124 51.056,-11.124 77,-3 2.749,1.123 5.249,2.623 7.5,4.5 -0.804,5.227 -1.471,10.561 -2,16 -2.285,3.687 -3.452,7.687 -3.5,12 z"
         id="path106" />
    </g>
    <g
       id="g107"
       style="clip-rule:evenodd;fill-rule:evenodd;image-rendering:optimizeQuality;shape-rendering:geometricPrecision;text-rendering:geometricPrecision"
       transform="matrix(0.32951763,0,0,0.32951763,-245.02205,-7.2397942)">
      <path
         style="opacity:1"
         fill="#f7f2b7"
         d="m 910.5,107.5 c 2.687,-0.164 5.354,0.003 8,0.5 0.916,0.278 1.582,0.778 2,1.5 -2.687,0.164 -5.354,-0.003 -8,-0.5 -0.916,-0.278 -1.582,-0.778 -2,-1.5 z"
         id="path107" />
    </g>
    <g
       id="g111"
       style="clip-rule:evenodd;fill-rule:evenodd;image-rendering:optimizeQuality;shape-rendering:geometricPrecision;text-rendering:geometricPrecision"
       transform="matrix(0.32951763,0,0,0.32951763,-245.02205,-7.2397942)">
      <path
         style="opacity:1"
         fill="#f9f5c3"
         d="m 939.5,88.5 c 0.904,0.709 1.237,1.709 1,3 0,10.667 0,21.333 0,32 -2.333,0 -4.667,0 -7,0 0,-6 0,-12 0,-18 0.989,5.475 1.322,11.142 1,17 1.333,0 2.667,0 4,0 0.934,-11.295 1.268,-22.6286 1,-34 z"
         id="path111" />
    </g>
    <g
       id="g140"
       style="clip-rule:evenodd;fill-rule:evenodd;image-rendering:optimizeQuality;shape-rendering:geometricPrecision;text-rendering:geometricPrecision"
       transform="matrix(0.32951763,0,0,0.32951763,-245.02205,-7.2397942)">
      <path
         style="opacity:1"
         fill="#e1cc72"
         d="m 940.5,75.5 c 0.722,0.4175 1.222,1.0842 1.5,2 1.161,6.3003 1.994,12.6336 2.5,19 -0.166,9.672 0,19.339 0.5,29 4.714,2.699 7.88,6.533 9.5,11.5 -0.059,1.436 -0.392,2.769 -1,4 -2.212,0.789 -4.212,0.622 -6,-0.5 1.667,0 3.333,0 5,0 0.391,-3.338 -0.776,-4.338 -3.5,-3 -2.03,-0.454 -3.863,-1.12 -5.5,-2 1.667,0 3.333,0 5,0 -1.351,-5.667 -5.018,-8.334 -11,-8 0,1.667 0,3.333 0,5 -1.208,-0.734 -2.541,-1.067 -4,-1 -0.233,3.042 -1.233,5.708 -3,8 0.745,-4.826 2.078,-9.493 4,-14 2.161,-0.234 4.328,-0.567 6.5,-1 0.826,-11.174 0.659,-22.174 -0.5,-33 0.237,-1.291 -0.096,-2.291 -1,-3 0,-1 0,-2 0,-3 -0.667,-2.3333 -1.333,-4.6667 -2,-7 1.29,0.5577 2.123,1.5577 2.5,3 0.495,-1.9727 0.662,-3.9727 0.5,-6 z"
         id="path140" />
    </g>
    <g
       id="g143"
       style="clip-rule:evenodd;fill-rule:evenodd;image-rendering:optimizeQuality;shape-rendering:geometricPrecision;text-rendering:geometricPrecision"
       transform="matrix(0.32951763,0,0,0.32951763,-245.02205,-7.2397942)">
      <path
         style="opacity:1"
         fill="#e7cb5a"
         d="m 898.5,105.5 c 4.174,-0.166 8.174,0.5 12,2 0.418,0.722 1.084,1.222 2,1.5 2.646,0.497 5.313,0.664 8,0.5 0.79,0.901 1.79,1.568 3,2 2.377,1.387 5.043,2.221 8,2.5 0.581,0.893 0.915,1.893 1,3 -1.75,10.075 -4.75,19.575 -9,28.5 0.048,-4.313 1.215,-8.313 3.5,-12 0.529,-5.439 1.196,-10.773 2,-16 -2.251,-1.877 -4.751,-3.377 -7.5,-4.5 -25.944,-8.124 -51.61,-7.124 -77,3 -1.016,0.519 -1.682,1.353 -2,2.5 3.711,8.766 6.877,17.766 9.5,27 0.804,1.304 1.971,1.971 3.5,2 4.287,-0.875 8.621,-1.208 13,-1 -2.475,0.631 -4.809,1.631 -7,3 -3.582,0.766 -7.082,0.766 -10.5,0 -1.153,-3.211 -1.82,-6.544 -2,-10 -0.67,-2.674 -1.837,-5.007 -3.5,-7 -1.396,-3.993 -2.896,-7.993 -4.5,-12 -0.667,-2.333 -0.667,-4.667 0,-7 0.561,0.522 1.228,0.855 2,1 2.135,-0.627 4.302,-1.127 6.5,-1.5 1.576,-1.577 3.409,-2.744 5.5,-3.5 14.253,-3.624 28.753,-4.957 43.5,-4 z"
         id="path143" />
    </g>
    <g
       id="g146"
       style="clip-rule:evenodd;fill-rule:evenodd;image-rendering:optimizeQuality;shape-rendering:geometricPrecision;text-rendering:geometricPrecision"
       transform="matrix(0.32951763,0,0,0.32951763,-245.02205,-7.2397942)">
      <path
         style="opacity:1"
         fill="#e0ca6e"
         d="m 835.5,78.5 c -4.428,14.7288 -5.261,29.729 -2.5,45 2.041,0.923 4.208,1.256 6.5,1 1.205,6.025 2.538,12.025 4,18 -0.901,-0.79 -1.568,-1.79 -2,-3 -0.241,-3.417 -1.408,-6.417 -3.5,-9 -0.236,1.619 -1.069,2.619 -2.5,3 -0.905,1.464 -0.905,2.798 0,4 -1,0 -2,0 -3,0 0,27.333 0,54.667 0,82 -0.869,2.217 -1.202,4.55 -1,7 -0.666,4.849 -1.333,9.849 -2,15 -0.996,-6.298 -1.33,-12.632 -1,-19 0.956,-27.312 1.29,-54.645 1,-82 -3.402,0.96 -6.735,0.96 -10,0 0,-2.667 0,-5.333 0,-8 2.676,-2.336 5.342,-4.669 8,-7 0.832,-10.985 1.332,-21.985 1.5,-33 0.242,-3.9302 1.075,-7.5968 2.5,-11 -0.065,0.4382 0.101,0.7716 0.5,1 0.949,-1.5931 2.115,-2.9264 3.5,-4 z"
         id="path146" />
    </g>
    <g
       id="g149"
       style="clip-rule:evenodd;fill-rule:evenodd;image-rendering:optimizeQuality;shape-rendering:geometricPrecision;text-rendering:geometricPrecision"
       transform="matrix(0.32951763,0,0,0.32951763,-245.02205,-7.2397942)">
      <path
         style="opacity:1"
         fill="#faf6c7"
         d="m 835.5,133.5 c -3.571,1.142 -7.238,1.809 -11,2 -0.149,-1.052 0.017,-2.052 0.5,-3 2.805,-3.153 6.305,-4.819 10.5,-5 0,2 0,4 0,6 z"
         id="path149" />
    </g>
    <g
       id="g151"
       style="clip-rule:evenodd;fill-rule:evenodd;image-rendering:optimizeQuality;shape-rendering:geometricPrecision;text-rendering:geometricPrecision"
       transform="matrix(0.32951763,0,0,0.32951763,-245.02205,-7.2397942)">
      <path
         style="opacity:1"
         fill="#f9f5be"
         d="m 943.5,135.5 c -1.871,-1.297 -3.871,-2.297 -6,-3 0,-1.667 0,-3.333 0,-5 5.982,-0.334 9.649,2.333 11,8 -1.667,0 -3.333,0 -5,0 z"
         id="path151" />
    </g>
    <g
       id="g154"
       style="clip-rule:evenodd;fill-rule:evenodd;image-rendering:optimizeQuality;shape-rendering:geometricPrecision;text-rendering:geometricPrecision"
       transform="matrix(0.32951763,0,0,0.32951763,-245.02205,-7.2397942)">
      <path
         style="opacity:1"
         fill="#e5c953"
         d="m 841.5,139.5 c -1.208,-0.734 -2.541,-1.067 -4,-1 0.786,23.325 1.119,46.658 1,70 -0.946,-23.669 -1.946,-47.335 -3,-71 -0.905,-1.202 -0.905,-2.536 0,-4 1.431,-0.381 2.264,-1.381 2.5,-3 2.092,2.583 3.259,5.583 3.5,9 z"
         id="path154" />
    </g>
    <g
       id="g161"
       style="clip-rule:evenodd;fill-rule:evenodd;image-rendering:optimizeQuality;shape-rendering:geometricPrecision;text-rendering:geometricPrecision"
       transform="matrix(0.32951763,0,0,0.32951763,-245.02205,-7.2397942)">
      <path
         style="opacity:1"
         fill="#ebd674"
         d="m 923.5,145.5 c 0,1 0,2 0,3 -1.142,2.472 -3.142,3.472 -6,3 -10.82,-2.912 -21.987,-4.246 -33.5,-4 -7.59,-0.109 -15.09,0.558 -22.5,2 2.191,-1.369 4.525,-2.369 7,-3 17.77,-0.524 35.437,0.476 53,3 -0.271,-1.88 0.396,-3.213 2,-4 z"
         id="path161" />
    </g>
    <g
       id="g164"
       style="clip-rule:evenodd;fill-rule:evenodd;image-rendering:optimizeQuality;shape-rendering:geometricPrecision;text-rendering:geometricPrecision"
       transform="matrix(0.32951763,0,0,0.32951763,-245.02205,-7.2397942)">
      <path
         style="opacity:1"
         fill="#f9f5ca"
         d="m 917.5,151.5 c 1.287,5.591 1.954,11.425 2,17.5 -1.418,26.815 -2.085,53.648 -2,80.5 -5.195,0.321 -10.195,-0.013 -15,-1 4.822,0.565 9.322,-0.101 13.5,-2 0.67,-30.957 1.503,-61.957 2.5,-93 -5.52,-0.603 -10.853,-1.769 -16,-3.5 -9.333,-0.667 -18.667,-0.667 -28,0 -2.536,0.186 -4.869,0.686 -7,1.5 -2.361,0.174 -4.694,0.507 -7,1 -1.667,0 -3.333,0 -5,0 0,13 0,26 0,39 -1.452,-12.472 -2.119,-25.138 -2,-38 2.388,-1.7 5.055,-3.034 8,-4 7.41,-1.442 14.91,-2.109 22.5,-2 11.513,-0.246 22.68,1.088 33.5,4 z"
         id="path164" />
    </g>
    <g
       id="g165"
       style="clip-rule:evenodd;fill-rule:evenodd;image-rendering:optimizeQuality;shape-rendering:geometricPrecision;text-rendering:geometricPrecision"
       transform="matrix(0.32951763,0,0,0.32951763,-245.02205,-7.2397942)">
      <path
         style="opacity:1"
         fill="#ede08c"
         d="m 845.5,132.5 c 1.663,1.993 2.83,4.326 3.5,7 0.18,3.456 0.847,6.789 2,10 3.418,0.766 6.918,0.766 10.5,0 -2.945,0.966 -5.612,2.3 -8,4 -0.737,3.225 -1.403,6.559 -2,10 -0.722,0.418 -1.222,1.084 -1.5,2 -0.499,3.986 -0.666,7.986 -0.5,12 -0.829,-7.489 -1.329,-15.156 -1.5,-23 -0.608,-1.566 -1.442,-2.9 -2.5,-4 -0.667,-1 -1.333,-2 -2,-3 0,-1.667 0,-3.333 0,-5 1.078,2.039 2.078,4.206 3,6.5 0.333,0.167 0.667,0.333 1,0.5 0.333,-1.167 0.667,-2.333 1,-3.5 -0.772,-4.586 -1.772,-9.086 -3,-13.5 z"
         id="path165" />
    </g>
    <g
       id="g168"
       style="clip-rule:evenodd;fill-rule:evenodd;image-rendering:optimizeQuality;shape-rendering:geometricPrecision;text-rendering:geometricPrecision"
       transform="matrix(0.32951763,0,0,0.32951763,-245.02205,-7.2397942)">
      <path
         style="opacity:1"
         fill="#fafaf9"
         d="m 860.5,152.5 c 2.306,-0.493 4.639,-0.826 7,-1 9.514,-0.015 19.18,-0.182 29,-0.5 5.711,0.742 11.378,1.742 17,3 1.016,0.519 1.682,1.353 2,2.5 -0.277,13.435 -0.277,26.435 0,39 -0.667,10 -1.333,20 -2,30 1.24,4.24 0.907,8.406 -1,12.5 -0.061,2.261 0.606,4.261 2,6 -0.667,0.667 -1.333,1.333 -2,2 -7.914,0.232 -15.748,-0.268 -23.5,-1.5 -8.605,0.756 -17.272,1.423 -26,2 -1.436,-0.059 -2.769,-0.392 -4,-1 0.267,-17.879 -0.233,-35.879 -1.5,-54 0.051,-1.6 0.384,-3.1 1,-4.5 -0.678,-10.47 -1.344,-20.97 -2,-31.5 1.124,-1.359 2.458,-2.359 4,-3 z"
         id="path168" />
    </g>
    <g
       id="g169"
       style="clip-rule:evenodd;fill-rule:evenodd;image-rendering:optimizeQuality;shape-rendering:geometricPrecision;text-rendering:geometricPrecision"
       transform="matrix(0.32951763,0,0,0.32951763,-245.02205,-7.2397942)">
      <path
         style="opacity:1"
         fill="#f7f1ac"
         d="m 940.5,91.5 c 1.159,10.826 1.326,21.826 0.5,33 -2.172,0.433 -4.339,0.766 -6.5,1 -1.922,4.507 -3.255,9.174 -4,14 -0.871,3.682 -1.871,7.348 -3,11 -0.822,1.889 -1.655,3.889 -2.5,6 -0.5,7.326 -0.666,14.659 -0.5,22 0,0.333 0,0.667 0,1 -1.162,19.162 -1.329,38.496 -0.5,58 2.016,4.031 4.016,8.031 6,12 1.011,0.837 2.178,1.17 3.5,1 -1.989,1.387 -3.822,1.053 -5.5,-1 -1.809,-3.278 -3.309,-6.611 -4.5,-10 -1,0 -2,0 -3,0 -0.165,3.35 0.002,6.683 0.5,10 1.371,1.541 2.871,2.875 4.5,4 0.369,4.394 1.035,8.727 2,13 -0.333,0 -0.667,0 -1,0 -0.267,-2.465 -0.934,-4.799 -2,-7 0.107,-3.786 -1.393,-6.786 -4.5,-9 -0.282,-25.003 0.051,-50.003 1,-75 0.028,-9.135 0.861,-18.135 2.5,-27 0,-1 0,-2 0,-3 4.25,-8.925 7.25,-18.425 9,-28.5 -0.085,-1.107 -0.419,-2.107 -1,-3 -2.957,-0.279 -5.623,-1.113 -8,-2.5 2.027,0.162 4.027,-0.005 6,-0.5 1.504,-2.514 2.838,-5.014 4,-7.5 0,0.667 0,1.333 0,2 0,6 0,12 0,18 2.333,0 4.667,0 7,0 0,-10.667 0,-21.333 0,-32 z"
         id="path169" />
    </g>
    <g
       id="g170"
       style="clip-rule:evenodd;fill-rule:evenodd;image-rendering:optimizeQuality;shape-rendering:geometricPrecision;text-rendering:geometricPrecision"
       transform="matrix(0.32951763,0,0,0.32951763,-245.02205,-7.2397942)">
      <path
         style="opacity:1"
         fill="#e6ca56"
         d="m 937.5,132.5 c 2.129,0.703 4.129,1.703 6,3 1.637,0.88 3.47,1.546 5.5,2 2.724,-1.338 3.891,-0.338 3.5,3 -1.667,0 -3.333,0 -5,0 -1.679,-0.215 -2.679,0.452 -3,2 -0.996,14.824 -1.329,29.824 -1,45 -0.617,0.111 -1.117,0.444 -1.5,1 -0.168,-17.172 -0.668,-34.172 -1.5,-51 -1,0 -2,0 -3,0 0,3.333 0,6.667 0,10 -0.505,30.88 -1.505,61.88 -3,93 -0.667,0.667 -1.333,1.333 -2,2 0.858,-33.063 1.525,-65.729 2,-98 -1.322,-0.17 -2.489,0.163 -3.5,1 -0.373,3.718 -1.539,7.051 -3.5,10 0,-1.667 0,-3.333 0,-5 1.129,-3.652 2.129,-7.318 3,-11 1.767,-2.292 2.767,-4.958 3,-8 1.459,-0.067 2.792,0.266 4,1 z"
         id="path170" />
    </g>
    <g
       id="g172"
       style="clip-rule:evenodd;fill-rule:evenodd;image-rendering:optimizeQuality;shape-rendering:geometricPrecision;text-rendering:geometricPrecision"
       transform="matrix(0.32951763,0,0,0.32951763,-245.02205,-7.2397942)">
      <path
         style="opacity:1"
         fill="#f9f5b2"
         d="m 940.5,220.5 c 0,1.333 0,2.667 0,4 -0.732,-1.308 -1.566,-2.642 -2.5,-4 -2.271,9.172 -3.105,18.506 -2.5,28 -0.333,0 -0.667,0 -1,0 0,-2.667 0,-5.333 0,-8 1.495,-31.12 2.495,-62.12 3,-93 0.768,-0.763 1.268,-1.763 1.5,-3 0.168,25.503 0.668,50.837 1.5,76 z"
         id="path172" />
    </g>
    <g
       id="g177"
       style="clip-rule:evenodd;fill-rule:evenodd;image-rendering:optimizeQuality;shape-rendering:geometricPrecision;text-rendering:geometricPrecision"
       transform="matrix(0.32951763,0,0,0.32951763,-245.02205,-7.2397942)">
      <path
         style="opacity:1"
         fill="#ead879"
         d="m 927.5,150.5 c 0,1.667 0,3.333 0,5 -0.768,0.763 -1.268,1.763 -1.5,3 -0.172,6.846 -0.672,13.513 -1.5,20 -0.166,-7.341 0,-14.674 0.5,-22 0.845,-2.111 1.678,-4.111 2.5,-6 z"
         id="path177" />
    </g>
    <g
       id="g180"
       style="clip-rule:evenodd;fill-rule:evenodd;image-rendering:optimizeQuality;shape-rendering:geometricPrecision;text-rendering:geometricPrecision"
       transform="matrix(0.32951763,0,0,0.32951763,-245.02205,-7.2397942)">
      <path
         style="opacity:1"
         fill="#faed9b"
         d="m 940.5,137.5 c 0,26.667 0,53.333 0,80 0,1 0,2 0,3 -0.832,-25.163 -1.332,-50.497 -1.5,-76 -0.232,1.237 -0.732,2.237 -1.5,3 0,-3.333 0,-6.667 0,-10 1,0 2,0 3,0 z"
         id="path180" />
    </g>
    <g
       id="g192"
       style="clip-rule:evenodd;fill-rule:evenodd;image-rendering:optimizeQuality;shape-rendering:geometricPrecision;text-rendering:geometricPrecision"
       transform="matrix(0.32951763,0,0,0.32951763,-245.02205,-7.2397942)">
      <path
         style="opacity:1"
         fill="#f7efb0"
         d="m 819.5,140.5 c 3.265,0.96 6.598,0.96 10,0 0.29,27.355 -0.044,54.688 -1,82 -0.333,0 -0.667,0 -1,0 0,-26.667 0,-53.333 0,-80 -3.198,0.536 -5.865,-0.131 -8,-2 z"
         id="path192" />
    </g>
    <g
       id="g193"
       style="clip-rule:evenodd;fill-rule:evenodd;image-rendering:optimizeQuality;shape-rendering:geometricPrecision;text-rendering:geometricPrecision"
       transform="matrix(0.32951763,0,0,0.32951763,-245.02205,-7.2397942)">
      <path
         style="opacity:1"
         fill="#f7f1a5"
         d="m 835.5,137.5 c -0.278,30.867 0.722,61.533 3,92 0.409,6.002 0.909,12.002 1.5,18 2.076,1.257 3.91,0.924 5.5,-1 -0.892,2.792 -2.892,4.125 -6,4 -1.478,-6.582 -2.478,-13.248 -3,-20 -0.335,-4.677 -0.835,-9.344 -1.5,-14 -0.236,1.619 -1.069,2.619 -2.5,3 0,-27.333 0,-54.667 0,-82 1,0 2,0 3,0 z"
         id="path193" />
    </g>
    <g
       id="g194"
       style="clip-rule:evenodd;fill-rule:evenodd;image-rendering:optimizeQuality;shape-rendering:geometricPrecision;text-rendering:geometricPrecision"
       transform="matrix(0.32951763,0,0,0.32951763,-245.02205,-7.2397942)">
      <path
         style="opacity:1"
         fill="#f1cc3d"
         d="m 841.5,139.5 c 0.432,1.21 1.099,2.21 2,3 0,1.667 0,3.333 0,5 3.224,28.877 4.391,57.877 3.5,87 -0.708,3.749 -1.708,7.416 -3,11 -0.718,0.951 -1.551,1.117 -2.5,0.5 -0.466,-5.699 -1.466,-11.199 -3,-16.5 0,-7 0,-14 0,-21 0.119,-23.342 -0.214,-46.675 -1,-70 1.459,-0.067 2.792,0.266 4,1 z"
         id="path194" />
    </g>
    <g
       id="g195"
       style="clip-rule:evenodd;fill-rule:evenodd;image-rendering:optimizeQuality;shape-rendering:geometricPrecision;text-rendering:geometricPrecision"
       transform="matrix(0.32951763,0,0,0.32951763,-245.02205,-7.2397942)">
      <path
         style="opacity:1"
         fill="#e6c94e"
         d="m 843.5,147.5 c 0.667,1 1.333,2 2,3 1.608,9.227 2.441,18.56 2.5,28 0.775,21.02 0.609,42.02 -0.5,63 -0.667,1.667 -1.333,3.333 -2,5 -1.59,1.924 -3.424,2.257 -5.5,1 -0.591,-5.998 -1.091,-11.998 -1.5,-18 1.534,5.301 2.534,10.801 3,16.5 0.949,0.617 1.782,0.451 2.5,-0.5 1.292,-3.584 2.292,-7.251 3,-11 0.891,-29.123 -0.276,-58.123 -3.5,-87 z"
         id="path195" />
    </g>
    <g
       id="g196"
       style="clip-rule:evenodd;fill-rule:evenodd;image-rendering:optimizeQuality;shape-rendering:geometricPrecision;text-rendering:geometricPrecision"
       transform="matrix(0.32951763,0,0,0.32951763,-245.02205,-7.2397942)">
      <path
         style="opacity:1"
         fill="#dfca68"
         d="m 940.5,137.5 c 0.832,16.828 1.332,33.828 1.5,51 0.383,-0.556 0.883,-0.889 1.5,-1 0.332,10.687 -10e-4,21.354 -1,32 -0.682,-0.743 -1.349,-1.409 -2,-2 0,-26.667 0,-53.333 0,-80 z"
         id="path196" />
    </g>
    <g
       id="g200"
       style="clip-rule:evenodd;fill-rule:evenodd;image-rendering:optimizeQuality;shape-rendering:geometricPrecision;text-rendering:geometricPrecision"
       transform="matrix(0.32951763,0,0,0.32951763,-245.02205,-7.2397942)">
      <path
         style="opacity:1"
         fill="#ead879"
         d="m 835.5,137.5 c 1.054,23.665 2.054,47.331 3,71 0,7 0,14 0,21 -2.278,-30.467 -3.278,-61.133 -3,-92 z"
         id="path200" />
    </g>
    <g
       id="g220"
       style="clip-rule:evenodd;fill-rule:evenodd;image-rendering:optimizeQuality;shape-rendering:geometricPrecision;text-rendering:geometricPrecision"
       transform="matrix(0.32951763,0,0,0.32951763,-245.02205,-7.2397942)">
      <path
         style="opacity:1"
         fill="#f8efb6"
         d="m 944.5,96.5 c 0.667,9.333 1.333,18.667 2,28 2.938,2.434 5.771,5.101 8.5,8 0.667,3 0.667,6 0,9 -0.383,0.556 -0.883,0.889 -1.5,1 -2.667,0 -5.333,0 -8,0 0,27.333 0,54.667 0,82 -0.998,-27.162 -1.331,-54.495 -1,-82 0.321,-1.548 1.321,-2.215 3,-2 1.788,1.122 3.788,1.289 6,0.5 0.608,-1.231 0.941,-2.564 1,-4 -1.62,-4.967 -4.786,-8.801 -9.5,-11.5 -0.5,-9.661 -0.666,-19.328 -0.5,-29 z"
         id="path220" />
    </g>
    <g
       id="g232"
       style="clip-rule:evenodd;fill-rule:evenodd;image-rendering:optimizeQuality;shape-rendering:geometricPrecision;text-rendering:geometricPrecision"
       transform="matrix(0.32951763,0,0,0.32951763,-245.02205,-7.2397942)">
      <path
         style="opacity:1"
         fill="#faf7d5"
         d="m 953.5,142.5 c -2.107,0.968 -4.441,1.302 -7,1 -0.192,29.506 0.142,59.006 1,88.5 0.147,11.085 -0.853,21.918 -3,32.5 0.747,-13.32 1.08,-26.653 1,-40 0,-27.333 0,-54.667 0,-82 2.667,0 5.333,0 8,0 z"
         id="path232" />
    </g>
    <g
       id="g236"
       style="clip-rule:evenodd;fill-rule:evenodd;image-rendering:optimizeQuality;shape-rendering:geometricPrecision;text-rendering:geometricPrecision"
       transform="matrix(0.32951763,0,0,0.32951763,-245.02205,-7.2397942)">
      <path
         style="opacity:1"
         fill="#e4c850"
         d="m 927.5,155.5 c -0.857,26.323 -1.524,52.657 -2,79 -0.997,-18.159 -1.33,-36.492 -1,-55 0,-0.333 0,-0.667 0,-1 0.828,-6.487 1.328,-13.154 1.5,-20 0.232,-1.237 0.732,-2.237 1.5,-3 z"
         id="path236" />
    </g>
    <g
       id="g242"
       style="clip-rule:evenodd;fill-rule:evenodd;image-rendering:optimizeQuality;shape-rendering:geometricPrecision;text-rendering:geometricPrecision"
       transform="matrix(0.32951763,0,0,0.32951763,-245.02205,-7.2397942)">
      <path
         style="opacity:1"
         fill="#f2cc3e"
         d="m 932.5,242.5 c 0.262,1.478 -0.071,2.811 -1,4 -3.589,-3.178 -5.589,-7.178 -6,-12 0.476,-26.343 1.143,-52.677 2,-79 1.961,-2.949 3.127,-6.282 3.5,-10 1.011,-0.837 2.178,-1.17 3.5,-1 -0.475,32.271 -1.142,64.937 -2,98 z"
         id="path242" />
    </g>
    <g
       id="g244"
       style="clip-rule:evenodd;fill-rule:evenodd;image-rendering:optimizeQuality;shape-rendering:geometricPrecision;text-rendering:geometricPrecision"
       transform="matrix(0.32951763,0,0,0.32951763,-245.02205,-7.2397942)">
      <path
         style="opacity:1"
         fill="#faf9ea"
         d="m 902.5,248.5 c -0.333,0 -0.667,0 -1,0 -13.016,-1.296 -26.183,-1.296 -39.5,0 -1.711,0.061 -3.044,-0.606 -4,-2 -0.48,-17.842 -1.314,-35.509 -2.5,-53 0,-0.667 0,-1.333 0,-2 0,-13 0,-26 0,-39 1.667,0 3.333,0 5,0 -1.542,0.641 -2.876,1.641 -4,3 0.656,10.53 1.322,21.03 2,31.5 -0.616,1.4 -0.949,2.9 -1,4.5 1.267,18.121 1.767,36.121 1.5,54 1.231,0.608 2.564,0.941 4,1 8.728,-0.577 17.395,-1.244 26,-2 7.752,1.232 15.586,1.732 23.5,1.5 0.667,-0.667 1.333,-1.333 2,-2 -1.394,-1.739 -2.061,-3.739 -2,-6 1.907,-4.094 2.24,-8.26 1,-12.5 0.667,-10 1.333,-20 2,-30 -0.277,-12.565 -0.277,-25.565 0,-39 -0.318,-1.147 -0.984,-1.981 -2,-2.5 -5.622,-1.258 -11.289,-2.258 -17,-3 -9.82,0.318 -19.486,0.485 -29,0.5 2.131,-0.814 4.464,-1.314 7,-1.5 9.333,-0.667 18.667,-0.667 28,0 5.147,1.731 10.48,2.897 16,3.5 -0.997,31.043 -1.83,62.043 -2.5,93 -4.178,1.899 -8.678,2.565 -13.5,2 z"
         id="path244" />
    </g>
    <g
       id="g247"
       style="clip-rule:evenodd;fill-rule:evenodd;image-rendering:optimizeQuality;shape-rendering:geometricPrecision;text-rendering:geometricPrecision"
       transform="matrix(0.32951763,0,0,0.32951763,-245.02205,-7.2397942)">
      <path
         style="opacity:1"
         fill="#f7f3b7"
         d="m 851.5,163.5 c 1.024,19.985 1.691,39.985 2,60 -0.333,9 -0.667,18 -1,27 -1.205,1.077 -1.872,2.41 -2,4 -1.701,3.777 -3.034,7.777 -4,12 -0.934,1.068 -1.268,2.401 -1,4 -3.221,-1.005 -6.554,-1.839 -10,-2.5 -1.217,-1.648 -2.05,-3.481 -2.5,-5.5 -1.415,-11.938 -1.915,-23.938 -1.5,-36 -0.202,-2.45 0.131,-4.783 1,-7 1.431,-0.381 2.264,-1.381 2.5,-3 0.665,4.656 1.165,9.323 1.5,14 -0.663,-1.542 -1.33,-3.209 -2,-5 -0.781,1.229 -1.281,2.562 -1.5,4 -0.821,7.179 -0.655,14.179 0.5,21 0.544,4.18 1.21,8.347 2,12.5 2.285,1.718 4.785,3.218 7.5,4.5 0.945,-0.405 1.612,-1.072 2,-2 0.346,-3.076 1.012,-6.076 2,-9 2.609,-3.829 4.443,-7.996 5.5,-12.5 0.077,-2.051 -0.423,-3.884 -1.5,-5.5 -1.142,2.179 -1.975,4.512 -2.5,7 -0.825,0.886 -1.825,1.219 -3,1 0.667,-1.667 1.333,-3.333 2,-5 0.79,-1.109 1.29,-2.442 1.5,-4 0.5,-19.997 0.667,-39.997 0.5,-60 -0.166,-4.014 10e-4,-8.014 0.5,-12 0.278,-0.916 0.778,-1.582 1.5,-2 z"
         id="path247" />
    </g>
    <g
       id="g252"
       style="clip-rule:evenodd;fill-rule:evenodd;image-rendering:optimizeQuality;shape-rendering:geometricPrecision;text-rendering:geometricPrecision"
       transform="matrix(0.32951763,0,0,0.32951763,-245.02205,-7.2397942)">
      <path
         style="opacity:1"
         fill="#faf9da"
         d="m 836.5,230.5 c 0.522,6.752 1.522,13.418 3,20 -0.996,0.086 -1.829,-0.248 -2.5,-1 -1.701,-15.692 -2.868,-15.359 -3.5,1 -1.155,-6.821 -1.321,-13.821 -0.5,-21 0.219,-1.438 0.719,-2.771 1.5,-4 0.67,1.791 1.337,3.458 2,5 z"
         id="path252" />
    </g>
    <g
       id="g253"
       style="clip-rule:evenodd;fill-rule:evenodd;image-rendering:optimizeQuality;shape-rendering:geometricPrecision;text-rendering:geometricPrecision"
       transform="matrix(0.32951763,0,0,0.32951763,-245.02205,-7.2397942)">
      <path
         style="opacity:1"
         fill="#e6d06a"
         d="m 845.5,150.5 c 1.058,1.1 1.892,2.434 2.5,4 0.171,7.844 0.671,15.511 1.5,23 0.167,20.003 0,40.003 -0.5,60 -0.21,1.558 -0.71,2.891 -1.5,4 1.109,-20.98 1.275,-41.98 0.5,-63 -0.059,-9.44 -0.892,-18.773 -2.5,-28 z"
         id="path253" />
    </g>
    <g
       id="g254"
       style="clip-rule:evenodd;fill-rule:evenodd;image-rendering:optimizeQuality;shape-rendering:geometricPrecision;text-rendering:geometricPrecision"
       transform="matrix(0.32951763,0,0,0.32951763,-245.02205,-7.2397942)">
      <path
         style="opacity:1"
         fill="#faf8ca"
         d="m 940.5,224.5 c 1.232,11.031 0.899,22.031 -1,33 -0.082,-7.351 0.251,-14.684 1,-22 -0.061,-3.403 -0.561,-6.736 -1.5,-10 -1.044,1.123 -1.71,2.456 -2,4 -0.172,6.513 -0.672,12.847 -1.5,19 -0.605,-9.494 0.229,-18.828 2.5,-28 0.934,1.358 1.768,2.692 2.5,4 z"
         id="path254" />
    </g>
    <g
       id="g261"
       style="clip-rule:evenodd;fill-rule:evenodd;image-rendering:optimizeQuality;shape-rendering:geometricPrecision;text-rendering:geometricPrecision"
       transform="matrix(0.32951763,0,0,0.32951763,-245.02205,-7.2397942)">
      <path
         style="opacity:1"
         fill="#e4d384"
         d="m 944.5,142.5 c -0.331,27.505 0.002,54.838 1,82 0.08,13.347 -0.253,26.68 -1,40 -1.38,4.43 -3.047,8.763 -5,13 2.818,-9.686 0.151,-11.686 -8,-6 0.934,-3.136 3.101,-4.802 6.5,-5 1.202,-2.177 1.702,-4.511 1.5,-7 0,-0.667 0,-1.333 0,-2 1.899,-10.969 2.232,-21.969 1,-33 0,-1.333 0,-2.667 0,-4 0,-1 0,-2 0,-3 0.651,0.591 1.318,1.257 2,2 0.999,-10.646 1.332,-21.313 1,-32 -0.329,-15.176 0.004,-30.176 1,-45 z"
         id="path261" />
    </g>
    <g
       id="g262"
       style="clip-rule:evenodd;fill-rule:evenodd;image-rendering:optimizeQuality;shape-rendering:geometricPrecision;text-rendering:geometricPrecision"
       transform="matrix(0.32951763,0,0,0.32951763,-245.02205,-7.2397942)">
      <path
         style="opacity:1"
         fill="#e7d06c"
         d="m 924.5,179.5 c -0.33,18.508 0.003,36.841 1,55 0.411,4.822 2.411,8.822 6,12 0.929,-1.189 1.262,-2.522 1,-4 0.667,-0.667 1.333,-1.333 2,-2 0,2.667 0,5.333 0,8 -0.838,0.342 -1.172,1.008 -1,2 -1.322,0.17 -2.489,-0.163 -3.5,-1 -1.984,-3.969 -3.984,-7.969 -6,-12 -0.829,-19.504 -0.662,-38.838 0.5,-58 z"
         id="path262" />
    </g>
    <g
       id="g265"
       style="clip-rule:evenodd;fill-rule:evenodd;image-rendering:optimizeQuality;shape-rendering:geometricPrecision;text-rendering:geometricPrecision"
       transform="matrix(0.32951763,0,0,0.32951763,-245.02205,-7.2397942)">
      <path
         style="opacity:1"
         fill="#faf9ed"
         d="m 839.5,250.5 c 3.108,0.125 5.108,-1.208 6,-4 1.175,0.219 2.175,-0.114 3,-1 0.525,-2.488 1.358,-4.821 2.5,-7 1.077,1.616 1.577,3.449 1.5,5.5 -1.057,4.504 -2.891,8.671 -5.5,12.5 -0.988,2.924 -1.654,5.924 -2,9 -0.388,0.928 -1.055,1.595 -2,2 -2.715,-1.282 -5.215,-2.782 -7.5,-4.5 -0.79,-4.153 -1.456,-8.32 -2,-12.5 0.632,-16.359 1.799,-16.692 3.5,-1 0.671,0.752 1.504,1.086 2.5,1 z"
         id="path265" />
    </g>
    <g
       id="g267"
       style="clip-rule:evenodd;fill-rule:evenodd;image-rendering:optimizeQuality;shape-rendering:geometricPrecision;text-rendering:geometricPrecision"
       transform="matrix(0.32951763,0,0,0.32951763,-245.02205,-7.2397942)">
      <path
         style="opacity:1"
         fill="#faf9ec"
         d="m 939.5,257.5 c 0,0.667 0,1.333 0,2 -1.078,2.039 -2.078,4.206 -3,6.5 -2,0.667 -4,0.667 -6,0 -1.855,-4.202 -3.521,-8.369 -5,-12.5 -1.629,-1.125 -3.129,-2.459 -4.5,-4 -0.498,-3.317 -0.665,-6.65 -0.5,-10 1,0 2,0 3,0 1.191,3.389 2.691,6.722 4.5,10 1.678,2.053 3.511,2.387 5.5,1 -0.172,-0.992 0.162,-1.658 1,-2 0.333,0 0.667,0 1,0 0.828,-6.153 1.328,-12.487 1.5,-19 0.29,-1.544 0.956,-2.877 2,-4 0.939,3.264 1.439,6.597 1.5,10 -0.749,7.316 -1.082,14.649 -1,22 z"
         id="path267" />
    </g>
    <g
       id="g269"
       style="clip-rule:evenodd;fill-rule:evenodd;image-rendering:optimizeQuality;shape-rendering:geometricPrecision;text-rendering:geometricPrecision"
       transform="matrix(0.32951763,0,0,0.32951763,-245.02205,-7.2397942)">
      <path
         style="opacity:1"
         fill="#ded394"
         d="m 923.5,148.5 c -1.639,8.865 -2.472,17.865 -2.5,27 -0.949,24.997 -1.282,49.997 -1,75 3.107,2.214 4.607,5.214 4.5,9 -1.552,-3.071 -3.885,-3.737 -7,-2 2.397,-1.956 2.397,-3.79 0,-5.5 -20,-0.667 -40,-0.667 -60,0 -3.568,1.291 -3.901,3.124 -1,5.5 -2.252,-0.416 -3.752,-1.749 -4.5,-4 -0.383,0.556 -0.883,0.889 -1.5,1 0.128,-1.59 0.795,-2.923 2,-4 0.333,-9 0.667,-18 1,-27 -0.309,-20.015 -0.976,-40.015 -2,-60 0.597,-3.441 1.263,-6.775 2,-10 -0.119,12.862 0.548,25.528 2,38 0,0.667 0,1.333 0,2 -0.32,18.38 0.013,36.713 1,55 14.974,0.37 29.974,0.37 45,0 0.333,0 0.667,0 1,0 4.805,0.987 9.805,1.321 15,1 -0.085,-26.852 0.582,-53.685 2,-80.5 -0.046,-6.075 -0.713,-11.909 -2,-17.5 2.858,0.472 4.858,-0.528 6,-3 z"
         id="path269" />
    </g>
    <g
       id="g270"
       style="clip-rule:evenodd;fill-rule:evenodd;image-rendering:optimizeQuality;shape-rendering:geometricPrecision;text-rendering:geometricPrecision"
       transform="matrix(0.32951763,0,0,0.32951763,-245.02205,-7.2397942)">
      <path
         style="opacity:1"
         fill="#f7f4c9"
         d="m 855.5,193.5 c 1.186,17.491 2.02,35.158 2.5,53 0.956,1.394 2.289,2.061 4,2 13.317,-1.296 26.484,-1.296 39.5,0 -15.026,0.37 -30.026,0.37 -45,0 -0.987,-18.287 -1.32,-36.62 -1,-55 z"
         id="path270" />
    </g>
    <g
       id="g271"
       style="clip-rule:evenodd;fill-rule:evenodd;image-rendering:optimizeQuality;shape-rendering:geometricPrecision;text-rendering:geometricPrecision"
       transform="matrix(0.32951763,0,0,0.32951763,-245.02205,-7.2397942)">
      <path
         style="opacity:1"
         fill="#f8f5ca"
         d="m 917.5,257.5 c -6.945,1.87 -13.945,3.537 -21,5 -7.187,0.325 -14.187,-0.009 -21,-1 -2.667,0 -5.333,0 -8,0 -2.361,-0.174 -4.694,-0.507 -7,-1 -1.333,-1 -2.667,-2 -4,-3 -2.901,-2.376 -2.568,-4.209 1,-5.5 20,-0.667 40,-0.667 60,0 2.397,1.71 2.397,3.544 0,5.5 z"
         id="path271" />
    </g>
    <g
       id="g275"
       style="clip-rule:evenodd;fill-rule:evenodd;image-rendering:optimizeQuality;shape-rendering:geometricPrecision;text-rendering:geometricPrecision"
       transform="matrix(0.32951763,0,0,0.32951763,-245.02205,-7.2397942)">
      <path
         style="opacity:1"
         fill="#faf9ec"
         d="m 875.5,261.5 c -3.092,-0.684 -6.092,-1.684 -9,-3 4.598,0.483 9.098,0.483 13.5,0 3.132,1.476 6.465,2.143 10,2 5.231,-0.858 10.398,-2.025 15.5,-3.5 -0.457,-0.414 -0.791,-0.914 -1,-1.5 -10.161,-0.782 -20.328,-1.448 -30.5,-2 -4.229,0.299 -8.396,0.966 -12.5,2 1.27,0.788 2.27,1.788 3,3 -2.064,-0.187 -4.064,-0.687 -6,-1.5 -0.837,-1.011 -1.17,-2.178 -1,-3.5 19.311,-1.296 38.644,-1.296 58,0 1.141,0.925 1.141,1.759 0,2.5 -4.42,1.043 -8.754,2.376 -13,4 -8.941,1.346 -17.941,1.846 -27,1.5 z"
         id="path275" />
    </g>
    <g
       id="g276"
       style="clip-rule:evenodd;fill-rule:evenodd;image-rendering:optimizeQuality;shape-rendering:geometricPrecision;text-rendering:geometricPrecision"
       transform="matrix(0.32951763,0,0,0.32951763,-245.02205,-7.2397942)">
      <path
         style="opacity:1"
         fill="#faf9f8"
         d="m 866.5,258.5 c -0.667,0 -1.333,0 -2,0 -0.73,-1.212 -1.73,-2.212 -3,-3 4.104,-1.034 8.271,-1.701 12.5,-2 10.172,0.552 20.339,1.218 30.5,2 0.209,0.586 0.543,1.086 1,1.5 -5.102,1.475 -10.269,2.642 -15.5,3.5 -3.535,0.143 -6.868,-0.524 -10,-2 -4.402,0.483 -8.902,0.483 -13.5,0 z"
         id="path276" />
    </g>
    <g
       id="g280"
       style="clip-rule:evenodd;fill-rule:evenodd;image-rendering:optimizeQuality;shape-rendering:geometricPrecision;text-rendering:geometricPrecision"
       transform="matrix(0.32951763,0,0,0.32951763,-245.02205,-7.2397942)">
      <path
         style="opacity:1"
         fill="#e7ca55"
         d="m 856.5,257.5 c 1.333,1 2.667,2 4,3 -2.59,0.104 -4.923,-0.563 -7,-2 -0.942,0.108 -1.775,0.441 -2.5,1 -1.975,4.463 -2.808,9.129 -2.5,14 -1.844,-1.779 -2.51,-4.112 -2,-7 0.966,-4.223 2.299,-8.223 4,-12 0.617,-0.111 1.117,-0.444 1.5,-1 0.748,2.251 2.248,3.584 4.5,4 z"
         id="path280" />
    </g>
    <g
       id="g286"
       style="clip-rule:evenodd;fill-rule:evenodd;image-rendering:optimizeQuality;shape-rendering:geometricPrecision;text-rendering:geometricPrecision"
       transform="matrix(0.32951763,0,0,0.32951763,-245.02205,-7.2397942)">
      <path
         style="opacity:1"
         fill="#e8d16c"
         d="m 917.5,257.5 c -4.589,2.161 -9.256,4.328 -14,6.5 -8.843,0.824 -17.51,0.657 -26,-0.5 6.522,0.323 12.855,-0.01 19,-1 7.055,-1.463 14.055,-3.13 21,-5 z"
         id="path286" />
    </g>
    <g
       id="g290"
       style="clip-rule:evenodd;fill-rule:evenodd;image-rendering:optimizeQuality;shape-rendering:geometricPrecision;text-rendering:geometricPrecision"
       transform="matrix(0.32951763,0,0,0.32951763,-245.02205,-7.2397942)">
      <path
         style="opacity:1"
         fill="#f1cc3e"
         d="m 924.5,259.5 c 1.066,2.201 1.733,4.535 2,7 0,2.333 0,4.667 0,7 -2.014,-0.108 -3.68,0.558 -5,2 -7.173,1.789 -14.507,3.289 -22,4.5 -10.369,0.767 -20.703,0.433 -31,-1 -6.687,-1.838 -13.354,-3.671 -20,-5.5 -0.308,-4.871 0.525,-9.537 2.5,-14 0.725,-0.559 1.558,-0.892 2.5,-1 2.077,1.437 4.41,2.104 7,2 2.306,0.493 4.639,0.826 7,1 3.127,1.081 6.46,1.747 10,2 8.49,1.157 17.157,1.324 26,0.5 4.744,-2.172 9.411,-4.339 14,-6.5 3.115,-1.737 5.448,-1.071 7,2 z"
         id="path290" />
    </g>
    <g
       id="g291"
       style="clip-rule:evenodd;fill-rule:evenodd;image-rendering:optimizeQuality;shape-rendering:geometricPrecision;text-rendering:geometricPrecision"
       transform="matrix(0.32951763,0,0,0.32951763,-245.02205,-7.2397942)">
      <path
         style="opacity:1"
         fill="#f6e89f"
         d="m 867.5,261.5 c 2.667,0 5.333,0 8,0 6.813,0.991 13.813,1.325 21,1 -6.145,0.99 -12.478,1.323 -19,1 -3.54,-0.253 -6.873,-0.919 -10,-2 z"
         id="path291" />
    </g>
    <g
       id="g292"
       style="clip-rule:evenodd;fill-rule:evenodd;image-rendering:optimizeQuality;shape-rendering:geometricPrecision;text-rendering:geometricPrecision"
       transform="matrix(0.32951763,0,0,0.32951763,-245.02205,-7.2397942)">
      <path
         style="opacity:1"
         fill="#faf8cc"
         d="m 925.5,253.5 c 1.479,4.131 3.145,8.298 5,12.5 2,0.667 4,0.667 6,0 0.922,-2.294 1.922,-4.461 3,-6.5 0.202,2.489 -0.298,4.823 -1.5,7 -3.399,0.198 -5.566,1.864 -6.5,5 -0.333,0 -0.667,0 -1,0 -1,0 -2,0 -3,0 0,-1.667 0,-3.333 0,-5 -0.965,-4.273 -1.631,-8.606 -2,-13 z"
         id="path292" />
    </g>
    <g
       id="g301"
       style="clip-rule:evenodd;fill-rule:evenodd;image-rendering:optimizeQuality;shape-rendering:geometricPrecision;text-rendering:geometricPrecision"
       transform="matrix(0.32951763,0,0,0.32951763,-245.02205,-7.2397942)">
      <path
         style="opacity:1"
         fill="#e7c953"
         d="m 939.5,277.5 c -0.333,0 -0.667,0 -1,0 0,-2.333 0,-4.667 0,-7 -5.45,0.92 -9.784,3.754 -13,8.5 -2.217,1.275 -4.551,2.275 -7,3 -1.537,1.11 -2.203,2.61 -2,4.5 4.533,-0.217 8.866,-1.217 13,-3 -0.558,1.29 -1.558,2.123 -3,2.5 -3.586,1.108 -7.253,1.608 -11,1.5 -0.338,-2.657 0.329,-4.99 2,-7 3.022,-1.511 6.022,-3.011 9,-4.5 1.541,-1.371 2.875,-2.871 4,-4.5 0.333,0 0.667,0 1,0 8.151,-5.686 10.818,-3.686 8,6 z"
         id="path301" />
    </g>
    <g
       id="g303"
       style="clip-rule:evenodd;fill-rule:evenodd;image-rendering:optimizeQuality;shape-rendering:geometricPrecision;text-rendering:geometricPrecision"
       transform="matrix(0.32951763,0,0,0.32951763,-245.02205,-7.2397942)">
      <path
         style="opacity:1"
         fill="#efc83f"
         d="m 938.5,277.5 c -2.705,2.359 -5.705,4.359 -9,6 -4.134,1.783 -8.467,2.783 -13,3 -0.203,-1.89 0.463,-3.39 2,-4.5 2.449,-0.725 4.783,-1.725 7,-3 3.216,-4.746 7.55,-7.58 13,-8.5 0,2.333 0,4.667 0,7 z"
         id="path303" />
    </g>
    <g
       id="g310"
       style="clip-rule:evenodd;fill-rule:evenodd;image-rendering:optimizeQuality;shape-rendering:geometricPrecision;text-rendering:geometricPrecision"
       transform="matrix(0.32951763,0,0,0.32951763,-245.02205,-7.2397942)">
      <path
         style="opacity:1"
         fill="#e6d27a"
         d="m 827.5,222.5 c 0.333,0 0.667,0 1,0 -0.33,6.368 0.004,12.702 1,19 0.667,-5.151 1.334,-10.151 2,-15 -0.415,12.062 0.085,24.062 1.5,36 0.45,2.019 1.283,3.852 2.5,5.5 3.446,0.661 6.779,1.495 10,2.5 -0.268,-1.599 0.066,-2.932 1,-4 -0.51,2.888 0.156,5.221 2,7 0.929,0.815 1.929,1.648 3,2.5 3.833,1.034 7.499,2.2 11,3.5 -1.333,0 -2.667,0 -4,0 -0.247,3.005 0.753,5.505 3,7.5 16.871,2.128 33.705,1.961 50.5,-0.5 1.81,-1.567 2.977,-3.567 3.5,-6 -1.189,-0.929 -2.522,-1.262 -4,-1 3.45,-1.03 6.783,-2.363 10,-4 1.32,-1.442 2.986,-2.108 5,-2 0,-2.333 0,-4.667 0,-7 0.333,0 0.667,0 1,0 0,1.667 0,3.333 0,5 1,0 2,0 3,0 -1.125,1.629 -2.459,3.129 -4,4.5 -2.978,1.489 -5.978,2.989 -9,4.5 -1.671,2.01 -2.338,4.343 -2,7 3.747,0.108 7.414,-0.392 11,-1.5 1.442,-0.377 2.442,-1.21 3,-2.5 3.295,-1.641 6.295,-3.641 9,-6 -2.217,4.287 -5.551,7.454 -10,9.5 -27.967,7.071 -55.967,7.237 -84,0.5 -3.938,-2.598 -7.605,-5.598 -11,-9 -5.526,-18.238 -7.526,-36.904 -6,-56 z"
         id="path310" />
    </g>
    <g
       id="g311"
       style="clip-rule:evenodd;fill-rule:evenodd;image-rendering:optimizeQuality;shape-rendering:geometricPrecision;text-rendering:geometricPrecision"
       transform="matrix(0.32951763,0,0,0.32951763,-245.02205,-7.2397942)">
      <path
         style="opacity:1"
         fill="#f9f5bd"
         d="m 862.5,279.5 c 1.653,0.16 2.986,0.826 4,2 -2.104,-0.299 -4.104,0.034 -6,1 0.477,0.978 1.143,1.811 2,2.5 15.978,3.275 31.978,3.275 48,0 1.473,-0.71 2.14,-1.876 2,-3.5 -2.333,0 -4.667,0 -7,0 1.802,-0.958 3.802,-1.625 6,-2 1.478,-0.262 2.811,0.071 4,1 -0.523,2.433 -1.69,4.433 -3.5,6 -16.795,2.461 -33.629,2.628 -50.5,0.5 -2.247,-1.995 -3.247,-4.495 -3,-7.5 1.333,0 2.667,0 4,0 z"
         id="path311" />
    </g>
    <g
       id="g312"
       style="clip-rule:evenodd;fill-rule:evenodd;image-rendering:optimizeQuality;shape-rendering:geometricPrecision;text-rendering:geometricPrecision"
       transform="matrix(0.32951763,0,0,0.32951763,-245.02205,-7.2397942)">
      <path
         style="opacity:1"
         fill="#faf9e6"
         d="m 866.5,281.5 c 0.333,0 0.667,0 1,0 0.763,0.768 1.763,1.268 3,1.5 9.293,1.442 18.626,1.776 28,1 2.604,-0.39 4.938,-1.224 7,-2.5 2.333,0 4.667,0 7,0 0.14,1.624 -0.527,2.79 -2,3.5 -16.022,3.275 -32.022,3.275 -48,0 -0.857,-0.689 -1.523,-1.522 -2,-2.5 1.896,-0.966 3.896,-1.299 6,-1 z"
         id="path312" />
    </g>
    <g
       id="g313"
       style="clip-rule:evenodd;fill-rule:evenodd;image-rendering:optimizeQuality;shape-rendering:geometricPrecision;text-rendering:geometricPrecision"
       transform="matrix(0.32951763,0,0,0.32951763,-245.02205,-7.2397942)">
      <path
         style="opacity:1"
         fill="#faf6c4"
         d="m 867.5,281.5 c 12.67,1.309 25.336,1.309 38,0 -2.062,1.276 -4.396,2.11 -7,2.5 -9.374,0.776 -18.707,0.442 -28,-1 -1.237,-0.232 -2.237,-0.732 -3,-1.5 z"
         id="path313" />
    </g>
    <g
       id="g314"
       style="clip-rule:evenodd;fill-rule:evenodd;image-rendering:optimizeQuality;shape-rendering:geometricPrecision;text-rendering:geometricPrecision"
       transform="matrix(0.32951763,0,0,0.32951763,-245.02205,-7.2397942)">
      <path
         style="opacity:1"
         fill="#e5cc5c"
         d="m 848.5,273.5 c 6.646,1.829 13.313,3.662 20,5.5 10.297,1.433 20.631,1.767 31,1 7.493,-1.211 14.827,-2.711 22,-4.5 -3.217,1.637 -6.55,2.97 -10,4 -2.198,0.375 -4.198,1.042 -6,2 -12.664,1.309 -25.33,1.309 -38,0 -0.333,0 -0.667,0 -1,0 -1.014,-1.174 -2.347,-1.84 -4,-2 -3.501,-1.3 -7.167,-2.466 -11,-3.5 -1.071,-0.852 -2.071,-1.685 -3,-2.5 z"
         id="path314" />
    </g>
    <g
       id="g315"
       style="clip-rule:evenodd;fill-rule:evenodd;image-rendering:optimizeQuality;shape-rendering:geometricPrecision;text-rendering:geometricPrecision"
       transform="matrix(0.32951763,0,0,0.32951763,-245.02205,-7.2397942)">
      <path
         style="opacity:1"
         fill="#edc943"
         d="m 833.5,268.5 c 2.267,0.923 4.6,1.756 7,2.5 4.02,4.01 8.687,7.01 14,9 1.709,1.916 3.043,4.082 4,6.5 -9.282,0.848 -16.949,-2.319 -23,-9.5 -1.494,-2.639 -2.161,-5.472 -2,-8.5 z"
         id="path315" />
    </g>
    <g
       id="g317"
       style="clip-rule:evenodd;fill-rule:evenodd;image-rendering:optimizeQuality;shape-rendering:geometricPrecision;text-rendering:geometricPrecision"
       transform="matrix(0.32951763,0,0,0.32951763,-245.02205,-7.2397942)">
      <path
         style="opacity:1"
         fill="#f8f0bb"
         d="m 938.5,277.5 c 0.333,0 0.667,0 1,0 -0.572,1.755 -1.406,3.422 -2.5,5 -2.191,1.333 -4.024,3 -5.5,5 -17.614,5.135 -35.614,7.468 -54,7 -7.576,-0.78 -15.243,-1.947 -23,-3.5 -3.609,-0.701 -6.942,-1.868 -10,-3.5 28.033,6.737 56.033,6.571 84,-0.5 4.449,-2.046 7.783,-5.213 10,-9.5 z"
         id="path317" />
    </g>
  </g>
</svg>
