<?xml version="1.0" encoding="UTF-8" standalone="no"?>
<!-- Created with Inkscape (http://www.inkscape.org/) -->

<svg
   width="96mm"
   height="96mm"
   viewBox="0 0 96 96"
   version="1.1"
   id="svg1"
   inkscape:version="1.4.2 (ebf0e940, 2025-05-08)"
   sodipodi:docname="train.svg"
   xmlns:inkscape="http://www.inkscape.org/namespaces/inkscape"
   xmlns:sodipodi="http://sodipodi.sourceforge.net/DTD/sodipodi-0.dtd"
   xmlns="http://www.w3.org/2000/svg"
   xmlns:svg="http://www.w3.org/2000/svg">
  <sodipodi:namedview
     id="namedview1"
     pagecolor="#ffffff"
     bordercolor="#000000"
     borderopacity="0.25"
     inkscape:showpageshadow="2"
     inkscape:pageopacity="0.0"
     inkscape:pagecheckerboard="0"
     inkscape:deskcolor="#d1d1d1"
     inkscape:document-units="mm"
     inkscape:zoom="0.80444024"
     inkscape:cx="397.17059"
     inkscape:cy="262.91574"
     inkscape:window-width="1920"
     inkscape:window-height="1052"
     inkscape:window-x="0"
     inkscape:window-y="28"
     inkscape:window-maximized="0"
     inkscape:current-layer="layer1" />
  <defs
     id="defs1" />
  <g
     inkscape:label="Layer 1"
     inkscape:groupmode="layer"
     id="layer1">
    <g
       id="g4"
       style="clip-rule:evenodd;fill-rule:evenodd;image-rendering:optimizeQuality;shape-rendering:geometricPrecision;text-rendering:geometricPrecision"
       transform="matrix(0.26458333,0,0,0.26458333,-30.995295,4.8829838)">
      <path
         style="opacity:1"
         fill="#a68c4b"
         d="m 323.5,9.5 c 0,0.33333 0,0.6667 0,1 -2,0 -4,0 -6,0 -0.763,-0.76791 -1.763,-1.26791 -3,-1.5 -4.667,-0.66667 -9.333,-0.66667 -14,0 -3.114,1.9826 -6.447,3.4826 -10,4.5 6.515,-6.8027 14.515,-9.3027 24,-7.5 2.92,1.31601 5.92,2.48267 9,3.5 z"
         id="path4" />
    </g>
    <g
       id="g8"
       style="clip-rule:evenodd;fill-rule:evenodd;image-rendering:optimizeQuality;shape-rendering:geometricPrecision;text-rendering:geometricPrecision"
       transform="matrix(0.26458333,0,0,0.26458333,-30.995295,4.8829838)">
      <path
         style="opacity:1"
         fill="#f2cf45"
         d="m 320.5,16.5 c 0,2.6667 0,5.3333 0,8 -1,0 -2,0 -3,0 -0.237,1.291 0.096,2.291 1,3 0,0.6667 0,1.3333 0,2 0.928,5.3224 1.428,10.6558 1.5,16 -3.745,-0.4378 -6.745,-1.7711 -9,-4 -2.083,0.7311 -3.916,1.7311 -5.5,3 -2.415,0.8052 -4.749,1.8052 -7,3 -1,0 -2,0 -3,0 0,-1.3333 0,-2.6667 0,-4 1.358,-5.4311 3.024,-10.7644 5,-16 0.904,-0.709 1.237,-1.709 1,-3 -1.679,0.2148 -2.679,-0.4519 -3,-2 0.733,-3.1451 1.733,-6.3118 3,-9.5 4.249,-0.9971 8.249,-0.4971 12,1.5 2.566,-0.5947 4.899,0.072 7,2 z"
         id="path8" />
    </g>
    <g
       id="g9"
       style="clip-rule:evenodd;fill-rule:evenodd;image-rendering:optimizeQuality;shape-rendering:geometricPrecision;text-rendering:geometricPrecision"
       transform="matrix(0.26458333,0,0,0.26458333,-30.995295,4.8829838)">
      <path
         style="opacity:1"
         fill="#edcb50"
         d="m 317.5,10.5 c 1.1,1.0585 2.434,1.8918 4,2.5 0.752,0.6708 1.086,1.5041 1,2.5 -0.342,0.8382 -1.008,1.1716 -2,1 -2.101,-1.928 -4.434,-2.5947 -7,-2 -3.751,-1.9971 -7.751,-2.4971 -12,-1.5 -1.267,3.1882 -2.267,6.3549 -3,9.5 0.162,-2.0273 -0.005,-4.0273 -0.5,-6 -1.417,-0.5779 -2.25,-1.5779 -2.5,-3 6.873,-4.02224 14.206,-5.02224 22,-3 z"
         id="path9" />
    </g>
    <g
       id="g13"
       style="clip-rule:evenodd;fill-rule:evenodd;image-rendering:optimizeQuality;shape-rendering:geometricPrecision;text-rendering:geometricPrecision"
       transform="matrix(0.26458333,0,0,0.26458333,-30.995295,4.8829838)">
      <path
         style="opacity:1"
         fill="#a2802b"
         d="m 317.5,10.5 c -7.794,-2.02224 -15.127,-1.02224 -22,3 -0.808,1.7202 -1.808,3.3869 -3,5 0,0.3333 0,0.6667 0,1 -0.79,1.1085 -1.29,2.4419 -1.5,4 -0.417,-1.256 -1.25,-1.9226 -2.5,-2 1.139,-2.5037 1.806,-5.1703 2,-8 3.553,-1.0174 6.886,-2.5174 10,-4.5 4.667,-0.66667 9.333,-0.66667 14,0 1.237,0.23209 2.237,0.73209 3,1.5 z"
         id="path13" />
    </g>
    <g
       id="g14"
       style="clip-rule:evenodd;fill-rule:evenodd;image-rendering:optimizeQuality;shape-rendering:geometricPrecision;text-rendering:geometricPrecision"
       transform="matrix(0.26458333,0,0,0.26458333,-30.995295,4.8829838)">
      <path
         style="opacity:1"
         fill="#ba9328"
         d="m 322.5,15.5 c 2.69,1.6935 4.69,4.0268 6,7 0.148,2.8523 -1.186,4.519 -4,5 -1.541,-0.7858 -2.874,-1.7858 -4,-3 0,-2.6667 0,-5.3333 0,-8 0.992,0.1716 1.658,-0.1618 2,-1 z"
         id="path14" />
    </g>
    <g
       id="g17"
       style="clip-rule:evenodd;fill-rule:evenodd;image-rendering:optimizeQuality;shape-rendering:geometricPrecision;text-rendering:geometricPrecision"
       transform="matrix(0.26458333,0,0,0.26458333,-30.995295,4.8829838)">
      <path
         style="opacity:1"
         fill="#d7ae42"
         d="m 292.5,18.5 c 1,0 2,0 3,0 0,2 0,4 0,6 -1,0 -2,0 -3,0 0,-1.6667 0,-3.3333 0,-5 0,-0.3333 0,-0.6667 0,-1 z"
         id="path17" />
    </g>
    <g
       id="g18"
       style="clip-rule:evenodd;fill-rule:evenodd;image-rendering:optimizeQuality;shape-rendering:geometricPrecision;text-rendering:geometricPrecision"
       transform="matrix(0.26458333,0,0,0.26458333,-30.995295,4.8829838)">
      <path
         style="opacity:1"
         fill="#f2eac5"
         d="m 323.5,9.5 c -3.08,-1.01733 -6.08,-2.18399 -9,-3.5 -9.485,-1.8027 -17.485,0.6973 -24,7.5 -4.123,5.2517 -6.956,11.2517 -8.5,18 -1.132,8.6506 -2.132,17.3172 -3,26 -0.5,24.6644 -0.667,49.331 -0.5,74 0.237,1.291 -0.096,2.291 -1,3 0,-2 0,-4 0,-6 -0.873,-22.988 -1.207,-45.9876 -1,-69 1.234,-10.985 2.734,-21.985 4.5,-33 1.027,-3.9259 2.527,-7.5926 4.5,-11 1.548,-0.3212 2.215,-1.3212 2,-3 8.09,-6.52815 17.423,-9.36148 28,-8.5 2.269,2.02293 4.936,2.85626 8,2.5 0,1 0,2 0,3 z"
         id="path18" />
    </g>
    <g
       id="g20"
       style="clip-rule:evenodd;fill-rule:evenodd;image-rendering:optimizeQuality;shape-rendering:geometricPrecision;text-rendering:geometricPrecision"
       transform="matrix(0.26458333,0,0,0.26458333,-30.995295,4.8829838)">
      <path
         style="opacity:1"
         fill="#ae8927"
         d="m 295.5,13.5 c 0.25,1.4221 1.083,2.4221 2.5,3 0.495,1.9727 0.662,3.9727 0.5,6 -1.334,3.9175 -4,4.9175 -8,3 -0.5,-1 -1,-2 -1.5,-3 -1.735,6.0566 -3.235,12.0566 -4.5,18 0,-2.3333 0,-4.6667 0,-7 0.219,-4.5143 1.553,-8.5143 4,-12 1.25,0.0774 2.083,0.744 2.5,2 0.21,-1.5581 0.71,-2.8915 1.5,-4 0,1.6667 0,3.3333 0,5 1,0 2,0 3,0 0,-2 0,-4 0,-6 -1,0 -2,0 -3,0 1.192,-1.6131 2.192,-3.2798 3,-5 z"
         id="path20" />
    </g>
    <g
       id="g29"
       style="clip-rule:evenodd;fill-rule:evenodd;image-rendering:optimizeQuality;shape-rendering:geometricPrecision;text-rendering:geometricPrecision"
       transform="matrix(0.26458333,0,0,0.26458333,-30.995295,4.8829838)">
      <path
         style="opacity:1"
         fill="#ab9457"
         d="m 324.5,10.5 c 3.381,2.3797 6.047,5.3797 8,9 4.99,16.5331 7.656,33.5331 8,51 0.332,35.504 -0.002,70.837 -1,106 0.167,-37.668 0,-75.335 -0.5,-113 -1.27,-14.6206 -3.936,-28.9539 -8,-43 -2.63,-3.1068 -4.797,-6.4401 -6.5,-10 z"
         id="path29" />
    </g>
    <g
       id="g31"
       style="clip-rule:evenodd;fill-rule:evenodd;image-rendering:optimizeQuality;shape-rendering:geometricPrecision;text-rendering:geometricPrecision"
       transform="matrix(0.26458333,0,0,0.26458333,-30.995295,4.8829838)">
      <path
         style="opacity:1"
         fill="#ddb23c"
         d="m 298.5,22.5 c 0.321,1.5481 1.321,2.2148 3,2 0.237,1.291 -0.096,2.291 -1,3 -0.595,-2.6125 -1.429,-2.6125 -2.5,0 -4.721,14.4397 -9.721,28.773 -15,43 -0.499,-3.9862 -0.666,-7.9862 -0.5,-12 0.257,-6.1876 0.923,-12.1876 2,-18 1.265,-5.9434 2.765,-11.9434 4.5,-18 0.5,1 1,2 1.5,3 4,1.9175 6.666,0.9175 8,-3 z"
         id="path31" />
    </g>
    <g
       id="g32"
       style="clip-rule:evenodd;fill-rule:evenodd;image-rendering:optimizeQuality;shape-rendering:geometricPrecision;text-rendering:geometricPrecision"
       transform="matrix(0.26458333,0,0,0.26458333,-30.995295,4.8829838)">
      <path
         style="opacity:1"
         fill="#b0891b"
         d="m 300.5,27.5 c -1.976,5.2356 -3.642,10.5689 -5,16 -8.195,15.9363 -12.529,32.9363 -13,51 -1.333,-12 -1.333,-24 0,-36 -0.166,4.0138 10e-4,8.0138 0.5,12 5.279,-14.227 10.279,-28.5603 15,-43 1.071,-2.6125 1.905,-2.6125 2.5,0 z"
         id="path32" />
    </g>
    <g
       id="g35"
       style="clip-rule:evenodd;fill-rule:evenodd;image-rendering:optimizeQuality;shape-rendering:geometricPrecision;text-rendering:geometricPrecision"
       transform="matrix(0.26458333,0,0,0.26458333,-30.995295,4.8829838)">
      <path
         style="opacity:1"
         fill="#af891a"
         d="m 335.5,73.5 c 0.268,1.599 -0.066,2.9324 -1,4 -4.24,-16.4538 -9.574,-32.4538 -16,-48 0,-0.6667 0,-1.3333 0,-2 -0.107,-1.8786 0.393,-2.2119 1.5,-1 2.807,8.0886 5.807,16.0886 9,24 2.882,7.4767 5.048,15.1434 6.5,23 z"
         id="path35" />
    </g>
    <g
       id="g39"
       style="clip-rule:evenodd;fill-rule:evenodd;image-rendering:optimizeQuality;shape-rendering:geometricPrecision;text-rendering:geometricPrecision"
       transform="matrix(0.26458333,0,0,0.26458333,-30.995295,4.8829838)">
      <path
         style="opacity:1"
         fill="#d9af40"
         d="m 328.5,22.5 c 2.529,3.3938 4.029,7.3938 4.5,12 2.156,11.5726 3.323,23.2393 3.5,35 0.268,1.599 -0.066,2.9324 -1,4 -1.452,-7.8566 -3.618,-15.5233 -6.5,-23 -3.193,-7.9114 -6.193,-15.9114 -9,-24 -1.107,-1.2119 -1.607,-0.8786 -1.5,1 -0.904,-0.709 -1.237,-1.709 -1,-3 1,0 2,0 3,0 1.126,1.2142 2.459,2.2142 4,3 2.814,-0.481 4.148,-2.1477 4,-5 z"
         id="path39" />
    </g>
    <g
       id="g41"
       style="clip-rule:evenodd;fill-rule:evenodd;image-rendering:optimizeQuality;shape-rendering:geometricPrecision;text-rendering:geometricPrecision"
       transform="matrix(0.26458333,0,0,0.26458333,-30.995295,4.8829838)">
      <path
         style="opacity:1"
         fill="#a2822c"
         d="m 284.5,33.5 c 0,2.3333 0,4.6667 0,7 -1.077,5.8124 -1.743,11.8124 -2,18 -1.333,12 -1.333,24 0,36 0,0.3333 0,0.6667 0,1 0.623,1.4648 0.623,3.1314 0,5 0.209,1.494 0.876,2.661 2,3.5 -0.881,0.708 -1.547,1.542 -2,2.5 -1.345,5.805 -1.845,11.805 -1.5,18 0.383,0.556 0.883,0.889 1.5,1 0.667,-0.667 1.333,-1.333 2,-2 0.667,0 1.333,0 2,0 0,0.333 0,0.667 0,1 -1.333,0 -2,0.667 -2,2 -0.992,-0.172 -1.658,0.162 -2,1 -1,0 -2,0 -3,0 -0.634,-29.0562 0.2,-58.0562 2.5,-87 0.902,-2.4269 1.736,-4.7603 2.5,-7 z"
         id="path41" />
    </g>
    <g
       id="g42"
       style="clip-rule:evenodd;fill-rule:evenodd;image-rendering:optimizeQuality;shape-rendering:geometricPrecision;text-rendering:geometricPrecision"
       transform="matrix(0.26458333,0,0,0.26458333,-30.995295,4.8829838)">
      <path
         style="opacity:1"
         fill="#f7efcf"
         d="m 332.5,19.5 c 2.581,2.8203 4.414,6.1536 5.5,10 4.164,24.016 5.33,48.016 3.5,72 0.328,-10.5135 -0.006,-20.8468 -1,-31 -0.344,-17.4669 -3.01,-34.4669 -8,-51 z"
         id="path42" />
    </g>
    <g
       id="g56"
       style="clip-rule:evenodd;fill-rule:evenodd;image-rendering:optimizeQuality;shape-rendering:geometricPrecision;text-rendering:geometricPrecision"
       transform="matrix(0.26458333,0,0,0.26458333,-30.995295,4.8829838)">
      <path
         style="opacity:1"
         fill="#f0cc4d"
         d="m 318.5,29.5 c 6.426,15.5462 11.76,31.5462 16,48 1.522,5.5452 2.188,11.2119 2,17 -1.624,-0.1399 -2.79,0.5267 -3.5,2 -0.497,2.3098 -0.663,4.643 -0.5,7 -0.814,-2.131 -1.314,-4.4644 -1.5,-7 -0.654,1.1956 -1.154,1.1956 -1.5,0 1.663,-1.8264 3.33,-3.6597 5,-5.5 -2.025,-1.194 -2.359,-2.694 -1,-4.5 -0.54,-1.2481 -1.207,-2.4148 -2,-3.5 1.39,-4.3241 0.724,-8.3241 -2,-12 1.196,-0.6543 1.196,-1.1543 0,-1.5 -0.744,1.4905 -1.41,2.9905 -2,4.5 0.452,4.355 0.452,8.855 0,13.5 -1.322,-0.17 -2.489,0.1634 -3.5,1 -0.925,4.4455 -2.425,8.6122 -4.5,12.5 1.3,1.579 0.966,2.745 -1,3.5 0,-3 0,-6 0,-9 8.551,-13.9493 10.051,-28.616 4.5,-44 -4.637,-5.2323 -10.47,-7.5656 -17.5,-7 1.584,-1.2689 3.417,-2.2689 5.5,-3 2.255,2.2289 5.255,3.5622 9,4 -0.072,-5.3442 -0.572,-10.6776 -1.5,-16 z"
         id="path56" />
    </g>
    <g
       id="g59"
       style="clip-rule:evenodd;fill-rule:evenodd;image-rendering:optimizeQuality;shape-rendering:geometricPrecision;text-rendering:geometricPrecision"
       transform="matrix(0.26458333,0,0,0.26458333,-30.995295,4.8829838)">
      <path
         style="opacity:1"
         fill="#f9f9ee"
         d="m 285.5,15.5 c -1.973,3.4074 -3.473,7.0741 -4.5,11 -1.766,11.015 -3.266,22.015 -4.5,33 -1.163,23.4964 -1.33,47.163 -0.5,71 0.278,-0.916 0.778,-1.582 1.5,-2 0,2 0,4 0,6 0,0.667 0,1.333 0,2 -0.502,7.82 -0.502,15.82 0,24 -0.995,11.822 -1.328,23.822 -1,36 -0.667,22 -1.333,44 -2,66 0.148,-22.618 -0.186,-44.951 -1,-67 1.026,-10.003 1.692,-19.836 2,-29.5 -0.76,-1.441 -1.426,-2.941 -2,-4.5 0.681,-8.487 1.348,-16.987 2,-25.5 -1.719,-2.281 -2.053,-4.614 -1,-7 -1.952,-2.407 -1.952,-5.073 0,-8 -0.434,-18.283 -0.767,-36.6158 -1,-55 0.938,-7.3 1.938,-14.6334 3,-22 -0.333,-1 -0.667,-2 -1,-3 2.369,-7.4412 4.536,-14.9412 6.5,-22.5 1.039,-1.2101 2.206,-2.2101 3.5,-3 z"
         id="path59" />
    </g>
    <g
       id="g60"
       style="clip-rule:evenodd;fill-rule:evenodd;image-rendering:optimizeQuality;shape-rendering:geometricPrecision;text-rendering:geometricPrecision"
       transform="matrix(0.26458333,0,0,0.26458333,-30.995295,4.8829838)">
      <path
         style="opacity:1"
         fill="#b28d1a"
         d="m 305.5,44.5 c 7.03,-0.5656 12.863,1.7677 17.5,7 5.551,15.384 4.051,30.0507 -4.5,44 -0.998,26.161 -1.331,52.495 -1,79 -0.667,0 -1.333,0 -2,0 0,-3.667 0,-7.333 0,-11 0,-22.667 0,-45.333 0,-68 -4.333,0 -8.667,0 -13,0 0,10.333 0,20.667 0,31 -1.495,-0.489 -2.829,-1.155 -4,-2 0.992,0.172 1.658,-0.162 2,-1 1.848,-14.473 -0.319,-28.1393 -6.5,-41 -1.488,-7.9452 -1.822,-15.9452 -1,-24 0.797,-4.2499 2.63,-7.9165 5.5,-11 2.251,-1.1948 4.585,-2.1948 7,-3 z"
         id="path60" />
    </g>
    <g
       id="g61"
       style="clip-rule:evenodd;fill-rule:evenodd;image-rendering:optimizeQuality;shape-rendering:geometricPrecision;text-rendering:geometricPrecision"
       transform="matrix(0.26458333,0,0,0.26458333,-30.995295,4.8829838)">
      <path
         style="opacity:1"
         fill="#eecc4c"
         d="m 317.5,90.5 c 1.109,-5.6014 2.442,-11.1014 4,-16.5 -0.689,-3.038 -2.689,-4.7047 -6,-5 1.035,-1.5069 0.868,-3.0069 -0.5,-4.5 -2.515,1.1745 -5.015,0.8412 -7.5,-1 -3.534,1.1339 -5.867,3.4673 -7,7 -1.571,-0.8094 -3.238,-1.1427 -5,-1 0.878,7.9843 3.878,14.9843 9,21 2.131,0.6687 4.131,1.3354 6,2 -3.398,0.3204 -6.732,-0.013 -10,-1 -3.579,-7.6502 -5.579,-15.6502 -6,-24 4.55,0.7758 7.216,-1.0576 8,-5.5 7.301,-4.4543 12.634,-2.7876 16,5 1.634,0.4935 3.301,0.6602 5,0.5 0.261,8.4041 -1.739,16.0707 -6,23 z"
         id="path61" />
    </g>
    <g
       id="g62"
       style="clip-rule:evenodd;fill-rule:evenodd;image-rendering:optimizeQuality;shape-rendering:geometricPrecision;text-rendering:geometricPrecision"
       transform="matrix(0.26458333,0,0,0.26458333,-30.995295,4.8829838)">
      <path
         style="opacity:1"
         fill="#f3cf44"
         d="m 317.5,90.5 c -1.779,1.8435 -4.112,2.5102 -7,2 -1.869,-0.6646 -3.869,-1.3313 -6,-2 -5.122,-6.0157 -8.122,-13.0157 -9,-21 1.762,-0.1427 3.429,0.1906 5,1 1.133,-3.5327 3.466,-5.8661 7,-7 2.485,1.8412 4.985,2.1745 7.5,1 1.368,1.4931 1.535,2.9931 0.5,4.5 3.311,0.2953 5.311,1.962 6,5 -1.558,5.3986 -2.891,10.8986 -4,16.5 z"
         id="path62" />
    </g>
    <g
       id="g63"
       style="clip-rule:evenodd;fill-rule:evenodd;image-rendering:optimizeQuality;shape-rendering:geometricPrecision;text-rendering:geometricPrecision"
       transform="matrix(0.26458333,0,0,0.26458333,-30.995295,4.8829838)">
      <path
         style="opacity:1"
         fill="#d7af42"
         d="m 319.5,52.5 c 1.457,1.7418 2.624,3.7418 3.5,6 0.497,2.646 0.664,5.3127 0.5,8 -1.322,0.17 -2.489,-0.1634 -3.5,-1 -0.499,-4.3206 -0.666,-8.6539 -0.5,-13 z"
         id="path63" />
    </g>
    <g
       id="g64"
       style="clip-rule:evenodd;fill-rule:evenodd;image-rendering:optimizeQuality;shape-rendering:geometricPrecision;text-rendering:geometricPrecision"
       transform="matrix(0.26458333,0,0,0.26458333,-30.995295,4.8829838)">
      <path
         style="opacity:1"
         fill="#d5ad40"
         d="m 298.5,51.5 c 1.147,4.1463 1.314,8.4796 0.5,13 -1.011,0.8366 -2.178,1.17 -3.5,1 -0.255,-4.9743 0.745,-9.641 3,-14 z"
         id="path64" />
    </g>
    <g
       id="g65"
       style="clip-rule:evenodd;fill-rule:evenodd;image-rendering:optimizeQuality;shape-rendering:geometricPrecision;text-rendering:geometricPrecision"
       transform="matrix(0.26458333,0,0,0.26458333,-30.995295,4.8829838)">
      <path
         style="opacity:1"
         fill="#d4ab39"
         d="m 305.5,46.5 c 4.016,-0.2129 7.85,0.4538 11.5,2 0.825,3.7113 0.659,7.378 -0.5,11 -4.628,-2.4885 -9.128,-2.4885 -13.5,0 -1.58,-3.4717 -1.913,-7.1384 -1,-11 1.302,-0.5848 2.469,-1.2515 3.5,-2 z"
         id="path65" />
    </g>
    <g
       id="g72"
       style="clip-rule:evenodd;fill-rule:evenodd;image-rendering:optimizeQuality;shape-rendering:geometricPrecision;text-rendering:geometricPrecision"
       transform="matrix(0.26458333,0,0,0.26458333,-30.995295,4.8829838)">
      <path
         style="opacity:1"
         fill="#b08c1f"
         d="m 282.5,95.5 c 3.45,0.0726 4.783,1.9059 4,5.5 0.783,3.594 -0.55,5.427 -4,5.5 0.453,-0.958 1.119,-1.792 2,-2.5 -1.124,-0.839 -1.791,-2.006 -2,-3.5 0.623,-1.8686 0.623,-3.5352 0,-5 z"
         id="path72" />
    </g>
    <g
       id="g73"
       style="clip-rule:evenodd;fill-rule:evenodd;image-rendering:optimizeQuality;shape-rendering:geometricPrecision;text-rendering:geometricPrecision"
       transform="matrix(0.26458333,0,0,0.26458333,-30.995295,4.8829838)">
      <path
         style="opacity:1"
         fill="#ba9833"
         d="m 336.5,69.5 c 0.995,11.488 1.328,23.1547 1,35 -2.39,-0.185 -3.39,-1.518 -3,-4 0.219,-2.1931 0.885,-4.1931 2,-6 0.188,-5.7881 -0.478,-11.4548 -2,-17 0.934,-1.0676 1.268,-2.401 1,-4 0.934,-1.0676 1.268,-2.401 1,-4 z"
         id="path73" />
    </g>
    <g
       id="g74"
       style="clip-rule:evenodd;fill-rule:evenodd;image-rendering:optimizeQuality;shape-rendering:geometricPrecision;text-rendering:geometricPrecision"
       transform="matrix(0.26458333,0,0,0.26458333,-30.995295,4.8829838)">
      <path
         style="opacity:1"
         fill="#faf9e2"
         d="m 276.5,59.5 c -0.207,23.0124 0.127,46.012 1,69 -0.722,0.418 -1.222,1.084 -1.5,2 -0.83,-23.837 -0.663,-47.5036 0.5,-71 z"
         id="path74" />
    </g>
    <g
       id="g75"
       style="clip-rule:evenodd;fill-rule:evenodd;image-rendering:optimizeQuality;shape-rendering:geometricPrecision;text-rendering:geometricPrecision"
       transform="matrix(0.26458333,0,0,0.26458333,-30.995295,4.8829838)">
      <path
         style="opacity:1"
         fill="#f4cd4d"
         d="m 315.5,163.5 c -1.599,-4.436 -1.933,-8.769 -1,-13 -0.419,-1.172 -1.085,-2.172 -2,-3 -3.345,4.703 -6.679,9.37 -10,14 0,-1 0,-2 0,-3 6.631,-7.497 8.298,-15.83 5,-25 -1.279,-2.612 -2.945,-4.945 -5,-7 0,-10.333 0,-20.667 0,-31 4.333,0 8.667,0 13,0 0,22.667 0,45.333 0,68 z"
         id="path75" />
    </g>
    <g
       id="g76"
       style="clip-rule:evenodd;fill-rule:evenodd;image-rendering:optimizeQuality;shape-rendering:geometricPrecision;text-rendering:geometricPrecision"
       transform="matrix(0.26458333,0,0,0.26458333,-30.995295,4.8829838)">
      <path
         style="opacity:1"
         fill="#f2cf42"
         d="m 332.5,103.5 c 0,0.333 0,0.667 0,1 1.531,3.583 0.698,6.583 -2.5,9 -1.432,5.648 -0.265,10.482 3.5,14.5 -1.49,2.404 -2.824,4.904 -4,7.5 1.354,4.186 0.687,8.019 -2,11.5 2.491,0.626 2.491,1.459 0,2.5 0.346,1.196 0.846,1.196 1.5,0 1.547,2.658 1.38,5.325 -0.5,8 0.5,2 1,4 1.5,6 0.333,-0.333 0.667,-0.667 1,-1 0.278,0.916 0.778,1.582 1.5,2 0.333,0.667 0.667,1.333 1,2 0.039,1.083 0.373,2.083 1,3 -0.525,0.692 -1.192,1.192 -2,1.5 -2.536,0.339 -5.036,0.839 -7.5,1.5 -1.788,-0.8 -3.455,-1.134 -5,-1 -1.108,-4.994 -0.275,-9.494 2.5,-13.5 -2.256,-1.834 -2.256,-3.501 0,-5 -0.842,-2.068 -0.842,-4.235 0,-6.5 0.014,-2.093 -0.652,-3.926 -2,-5.5 0.793,-1.085 1.46,-2.252 2,-3.5 -0.941,0.011 -1.608,-0.489 -2,-1.5 0.235,-0.873 0.569,-1.707 1,-2.5 -1.453,-2.925 -2.453,-5.925 -3,-9 0,-6.667 0,-13.333 0,-20 1.966,-0.755 2.3,-1.921 1,-3.5 2.075,-3.8878 3.575,-8.0545 4.5,-12.5 1.011,-0.8366 2.178,-1.17 3.5,-1 0.452,-4.645 0.452,-9.145 0,-13.5 0.59,-1.5095 1.256,-3.0095 2,-4.5 1.196,0.3457 1.196,0.8457 0,1.5 2.724,3.6759 3.39,7.6759 2,12 0.793,1.0852 1.46,2.2519 2,3.5 -1.359,1.806 -1.025,3.306 1,4.5 -1.67,1.8403 -3.337,3.6736 -5,5.5 0.346,1.1956 0.846,1.1956 1.5,0 0.186,2.5356 0.686,4.869 1.5,7 z"
         id="path76" />
    </g>
    <g
       id="g79"
       style="clip-rule:evenodd;fill-rule:evenodd;image-rendering:optimizeQuality;shape-rendering:geometricPrecision;text-rendering:geometricPrecision"
       transform="matrix(0.26458333,0,0,0.26458333,-30.995295,4.8829838)">
      <path
         style="opacity:1"
         fill="#edca4b"
         d="m 295.5,43.5 c 0,1.3333 0,2.6667 0,4 1,0 2,0 3,0 -2.87,3.0835 -4.703,6.7501 -5.5,11 -0.822,8.0548 -0.488,16.0548 1,24 6.181,12.8607 8.348,26.527 6.5,41 -4.667,-1.333 -9.333,-1.333 -14,0 0.165,-3.682 -10e-4,-7.348 -0.5,-11 -2.46,-1.255 -3.627,-3.255 -3.5,-6 3.45,-0.073 4.783,-1.906 4,-5.5 0.783,-3.5941 -0.55,-5.4274 -4,-5.5 0,-0.3333 0,-0.6667 0,-1 0.471,-18.0637 4.805,-35.0637 13,-51 z"
         id="path79" />
    </g>
    <g
       id="g80"
       style="clip-rule:evenodd;fill-rule:evenodd;image-rendering:optimizeQuality;shape-rendering:geometricPrecision;text-rendering:geometricPrecision"
       transform="matrix(0.26458333,0,0,0.26458333,-30.995295,4.8829838)">
      <path
         style="opacity:1"
         fill="#f2cf45"
         d="m 288.5,66.5 c 1.617,1.0893 2.45,2.756 2.5,5 0.277,5.6281 1.111,11.1281 2.5,16.5 -1.109,1.813 -0.442,2.6463 2,2.5 0.149,1.052 -0.017,2.052 -0.5,3 -0.667,1.3333 -1.333,1.3333 -2,0 -0.667,1 -0.667,2 0,3 3.11,-1.1734 3.277,-0.6734 0.5,1.5 1.833,2.5 3.667,5 5.5,7.5 1.159,5.664 0.492,10.998 -2,16 -0.333,-0.667 -0.667,-1.333 -1,-2 -2.228,1.613 -4.728,2.28 -7.5,2 -1.016,-2.7 -1.016,-5.366 0,-8 -0.628,-1.758 -1.628,-3.258 -3,-4.5 1.187,-1.019 2.187,-2.186 3,-3.5 -0.65,-2.058 -0.65,-4.224 0,-6.5 0,-3.3333 -1.333,-6 -4,-8 0.713,-5.8139 1.213,-11.9806 1.5,-18.5 1.135,-1.8699 1.968,-3.8699 2.5,-6 z"
         id="path80" />
    </g>
    <g
       id="g81"
       style="clip-rule:evenodd;fill-rule:evenodd;image-rendering:optimizeQuality;shape-rendering:geometricPrecision;text-rendering:geometricPrecision"
       transform="matrix(0.26458333,0,0,0.26458333,-30.995295,4.8829838)">
      <path
         style="opacity:1"
         fill="#f4cf42"
         d="m 308.5,96.5 c 1.208,0.7341 2.541,1.0674 4,1 0.14,1.6238 -0.527,2.79 -2,3.5 1.713,1.378 3.047,3.045 4,5 0.067,11.52 -0.1,23.02 -0.5,34.5 -1.163,-1.785 -1.83,-3.785 -2,-6 -1.901,-3.986 -4.401,-7.486 -7.5,-10.5 -0.159,-2.563 0.175,-5.23 1,-8 -1.847,-2.579 -2.347,-5.412 -1.5,-8.5 1.668,2.71 2.501,2.543 2.5,-0.5 -0.983,-3.112 -1.65,-6.278 -2,-9.5 1.599,0.2678 2.932,-0.0655 4,-1 z"
         id="path81" />
    </g>
    <g
       id="g92"
       style="clip-rule:evenodd;fill-rule:evenodd;image-rendering:optimizeQuality;shape-rendering:geometricPrecision;text-rendering:geometricPrecision"
       transform="matrix(0.26458333,0,0,0.26458333,-30.995295,4.8829838)">
      <path
         style="opacity:1"
         fill="#a58c4c"
         d="m 290.5,13.5 c -0.194,2.8297 -0.861,5.4963 -2,8 -2.447,3.4857 -3.781,7.4857 -4,12 -0.764,2.2397 -1.598,4.5731 -2.5,7 -2.3,28.9438 -3.134,57.9438 -2.5,87 1,0 2,0 3,0 -0.667,1 -1.333,2 -2,3 -0.667,0.333 -1.333,0.667 -2,1 -0.167,-24.669 0,-49.3356 0.5,-74 0.868,-8.6828 1.868,-17.3494 3,-26 1.544,-6.7483 4.377,-12.7483 8.5,-18 z"
         id="path92" />
    </g>
    <g
       id="g95"
       style="clip-rule:evenodd;fill-rule:evenodd;image-rendering:optimizeQuality;shape-rendering:geometricPrecision;text-rendering:geometricPrecision"
       transform="matrix(0.26458333,0,0,0.26458333,-30.995295,4.8829838)">
      <path
         style="opacity:1"
         fill="#b69226"
         d="m 282.5,106.5 c -0.127,2.745 1.04,4.745 3.5,6 0.499,3.652 0.665,7.318 0.5,11 -0.667,0 -1.333,0 -2,0 0.32,-3.398 -0.013,-6.732 -1,-10 -0.991,3.945 -1.324,7.945 -1,12 -0.617,-0.111 -1.117,-0.444 -1.5,-1 -0.345,-6.195 0.155,-12.195 1.5,-18 z"
         id="path95" />
    </g>
    <g
       id="g96"
       style="clip-rule:evenodd;fill-rule:evenodd;image-rendering:optimizeQuality;shape-rendering:geometricPrecision;text-rendering:geometricPrecision"
       transform="matrix(0.26458333,0,0,0.26458333,-30.995295,4.8829838)">
      <path
         style="opacity:1"
         fill="#d8b244"
         d="m 284.5,123.5 c -0.667,0.667 -1.333,1.333 -2,2 -0.324,-4.055 0.009,-8.055 1,-12 0.987,3.268 1.32,6.602 1,10 z"
         id="path96" />
    </g>
    <g
       id="g97"
       style="clip-rule:evenodd;fill-rule:evenodd;image-rendering:optimizeQuality;shape-rendering:geometricPrecision;text-rendering:geometricPrecision"
       transform="matrix(0.26458333,0,0,0.26458333,-30.995295,4.8829838)">
      <path
         style="opacity:1"
         fill="#d1ac40"
         d="m 336.5,123.5 c 0,0.333 0,0.667 0,1 -1.294,-1.548 -1.961,-3.548 -2,-6 0.333,-2 0.667,-4 1,-6 0.989,3.607 1.323,7.274 1,11 z"
         id="path97" />
    </g>
    <g
       id="g100"
       style="clip-rule:evenodd;fill-rule:evenodd;image-rendering:optimizeQuality;shape-rendering:geometricPrecision;text-rendering:geometricPrecision"
       transform="matrix(0.26458333,0,0,0.26458333,-30.995295,4.8829838)">
      <path
         style="opacity:1"
         fill="#b08a1c"
         d="m 336.5,94.5 c -1.115,1.8069 -1.781,3.8069 -2,6 -0.39,2.482 0.61,3.815 3,4 0.323,6.522 -0.01,12.855 -1,19 0.323,-3.726 -0.011,-7.393 -1,-11 -0.333,2 -0.667,4 -1,6 0.039,2.452 0.706,4.452 2,6 0,0.667 0,1.333 0,2 -1.322,0.17 -2.489,-0.163 -3.5,-1 -0.667,-4.667 -0.667,-9.333 0,-14 1.011,-0.837 2.178,-1.17 3.5,-1 0.158,-3.022 -1.175,-5.022 -4,-6 0,-0.333 0,-0.667 0,-1 -0.163,-2.357 0.003,-4.6902 0.5,-7 0.71,-1.4733 1.876,-2.1399 3.5,-2 z"
         id="path100" />
    </g>
    <g
       id="g103"
       style="clip-rule:evenodd;fill-rule:evenodd;image-rendering:optimizeQuality;shape-rendering:geometricPrecision;text-rendering:geometricPrecision"
       transform="matrix(0.26458333,0,0,0.26458333,-30.995295,4.8829838)">
      <path
         style="opacity:1"
         fill="#f1ca68"
         d="m 300.5,123.5 c -0.342,0.838 -1.008,1.172 -2,1 -3.984,-1.243 -7.984,-1.243 -12,0 0,-0.333 0,-0.667 0,-1 4.667,-1.333 9.333,-1.333 14,0 z"
         id="path103" />
    </g>
    <g
       id="g106"
       style="clip-rule:evenodd;fill-rule:evenodd;image-rendering:optimizeQuality;shape-rendering:geometricPrecision;text-rendering:geometricPrecision"
       transform="matrix(0.26458333,0,0,0.26458333,-30.995295,4.8829838)">
      <path
         style="opacity:1"
         fill="#8d5a1b"
         d="m 298.5,124.5 c 1.171,0.845 2.505,1.511 4,2 2.055,2.055 3.721,4.388 5,7 0,1 0,2 0,3 -0.667,0 -1.333,0 -2,0 -0.454,-2.64 -1.621,-4.973 -3.5,-7 -1.264,-2.107 -3.097,-3.107 -5.5,-3 -3.899,-1.291 -7.899,-1.291 -12,0 0,-1.333 0.667,-2 2,-2 4.016,-1.243 8.016,-1.243 12,0 z"
         id="path106" />
    </g>
    <g
       id="g109"
       style="clip-rule:evenodd;fill-rule:evenodd;image-rendering:optimizeQuality;shape-rendering:geometricPrecision;text-rendering:geometricPrecision"
       transform="matrix(0.26458333,0,0,0.26458333,-30.995295,4.8829838)">
      <path
         style="opacity:1"
         fill="#c8a42a"
         d="m 318.5,95.5 c 0,3 0,6 0,9 0,6.667 0,13.333 0,20 0,16.333 0,32.667 0,49 5.667,0 11.333,0 17,0 0.202,-2.45 -0.131,-4.783 -1,-7 0.992,-0.172 1.658,0.162 2,1 0,2.333 0,4.667 0,7 -6.333,0 -12.667,0 -19,0 -0.331,-26.505 0.002,-52.839 1,-79 z"
         id="path109" />
    </g>
    <g
       id="g111"
       style="clip-rule:evenodd;fill-rule:evenodd;image-rendering:optimizeQuality;shape-rendering:geometricPrecision;text-rendering:geometricPrecision"
       transform="matrix(0.26458333,0,0,0.26458333,-30.995295,4.8829838)">
      <path
         style="opacity:1"
         fill="#7b461d"
         d="m 296.5,126.5 c -3.018,-0.165 -6.018,0.002 -9,0.5 -1.905,1.421 -3.905,2.588 -6,3.5 -0.333,0 -0.667,0 -1,0 0.667,-1 1.333,-2 2,-3 0.342,-0.838 1.008,-1.172 2,-1 4.101,-1.291 8.101,-1.291 12,0 z"
         id="path111" />
    </g>
    <g
       id="g116"
       style="clip-rule:evenodd;fill-rule:evenodd;image-rendering:optimizeQuality;shape-rendering:geometricPrecision;text-rendering:geometricPrecision"
       transform="matrix(0.26458333,0,0,0.26458333,-30.995295,4.8829838)">
      <path
         style="opacity:1"
         fill="#bc9830"
         d="m 336.5,131.5 c -0.111,0.617 -0.444,1.117 -1,1.5 1.963,10.577 2.63,21.41 2,32.5 -1.291,-0.237 -2.291,0.096 -3,1 -0.333,0 -0.667,0 -1,0 -0.333,-0.667 -0.667,-1.333 -1,-2 -0.165,-3.35 0.002,-6.683 0.5,-10 1.011,-0.837 2.178,-1.17 3.5,-1 0,-2 0,-4 0,-6 -1.322,0.17 -2.489,-0.163 -3.5,-1 -0.667,-4.333 -0.667,-8.667 0,-13 0.816,-1.323 1.983,-1.989 3.5,-2 z"
         id="path116" />
    </g>
    <g
       id="g117"
       style="clip-rule:evenodd;fill-rule:evenodd;image-rendering:optimizeQuality;shape-rendering:geometricPrecision;text-rendering:geometricPrecision"
       transform="matrix(0.26458333,0,0,0.26458333,-30.995295,4.8829838)">
      <path
         style="opacity:1"
         fill="#edc061"
         d="m 307.5,133.5 c 3.298,9.17 1.631,17.503 -5,25 0,-0.667 0,-1.333 0,-2 2.079,-3.828 3.912,-7.828 5.5,-12 0.801,-2.867 0.634,-5.534 -0.5,-8 0,-1 0,-2 0,-3 z"
         id="path117" />
    </g>
    <g
       id="g120"
       style="clip-rule:evenodd;fill-rule:evenodd;image-rendering:optimizeQuality;shape-rendering:geometricPrecision;text-rendering:geometricPrecision"
       transform="matrix(0.26458333,0,0,0.26458333,-30.995295,4.8829838)">
      <path
         style="opacity:1"
         fill="#74463b"
         d="m 280.5,130.5 c 0.333,0 0.667,0 1,0 0,0.667 0,1.333 0,2 -0.747,3.801 -0.747,7.468 0,11 0.525,0.692 1.192,1.192 2,1.5 -0.906,1.699 -1.239,3.533 -1,5.5 -0.667,0 -1.333,0 -2,0 0,-0.667 -0.333,-1 -1,-1 0.172,-0.992 -0.162,-1.658 -1,-2 -0.844,-3.599 -1.177,-7.266 -1,-11 0,-0.667 0,-1.333 0,-2 0.904,-0.709 1.237,-1.709 1,-3 0.667,-0.333 1.333,-0.667 2,-1 z"
         id="path120" />
    </g>
    <g
       id="g123"
       style="clip-rule:evenodd;fill-rule:evenodd;image-rendering:optimizeQuality;shape-rendering:geometricPrecision;text-rendering:geometricPrecision"
       transform="matrix(0.26458333,0,0,0.26458333,-30.995295,4.8829838)">
      <path
         style="opacity:1"
         fill="#f0cc4c"
         d="m 332.5,104.5 c 2.825,0.978 4.158,2.978 4,6 -1.322,-0.17 -2.489,0.163 -3.5,1 -0.667,4.667 -0.667,9.333 0,14 1.011,0.837 2.178,1.17 3.5,1 0,1.667 0,3.333 0,5 -1.517,0.011 -2.684,0.677 -3.5,2 -0.667,4.333 -0.667,8.667 0,13 1.011,0.837 2.178,1.17 3.5,1 0,2 0,4 0,6 -1.322,-0.17 -2.489,0.163 -3.5,1 -0.498,3.317 -0.665,6.65 -0.5,10 -0.722,-0.418 -1.222,-1.084 -1.5,-2 -0.333,0.333 -0.667,0.667 -1,1 -0.5,-2 -1,-4 -1.5,-6 1.88,-2.675 2.047,-5.342 0.5,-8 -0.654,1.196 -1.154,1.196 -1.5,0 2.491,-1.041 2.491,-1.874 0,-2.5 2.687,-3.481 3.354,-7.314 2,-11.5 1.176,-2.596 2.51,-5.096 4,-7.5 -3.765,-4.018 -4.932,-8.852 -3.5,-14.5 3.198,-2.417 4.031,-5.417 2.5,-9 z"
         id="path123" />
    </g>
    <g
       id="g126"
       style="clip-rule:evenodd;fill-rule:evenodd;image-rendering:optimizeQuality;shape-rendering:geometricPrecision;text-rendering:geometricPrecision"
       transform="matrix(0.26458333,0,0,0.26458333,-30.995295,4.8829838)">
      <path
         style="opacity:1"
         fill="#8f5049"
         d="m 287.5,157.5 c -1.482,-2.391 -3.149,-4.724 -5,-7 -0.239,-1.967 0.094,-3.801 1,-5.5 -0.808,-0.308 -1.475,-0.808 -2,-1.5 -0.747,-3.532 -0.747,-7.199 0,-11 5.781,-4.256 11.947,-4.923 18.5,-2 2.662,2.745 4.162,6.078 4.5,10 -0.809,1.571 -1.143,3.238 -1,5 -1.643,-0.02 -2.976,0.647 -4,2 -0.586,-0.209 -1.086,-0.543 -1.5,-1 -0.9,1.27 -2.066,2.27 -3.5,3 4.278,4.79 3.611,8.79 -2,12 -1.417,-1.761 -3.083,-3.094 -5,-4 z"
         id="path126" />
    </g>
    <g
       id="g127"
       style="clip-rule:evenodd;fill-rule:evenodd;image-rendering:optimizeQuality;shape-rendering:geometricPrecision;text-rendering:geometricPrecision"
       transform="matrix(0.26458333,0,0,0.26458333,-30.995295,4.8829838)">
      <path
         style="opacity:1"
         fill="#774039"
         d="m 290.5,132.5 c 7.092,0.502 9.425,4.169 7,11 -6.946,2.459 -10.446,0.126 -10.5,-7 1.376,-1.205 2.542,-2.538 3.5,-4 z"
         id="path127" />
    </g>
    <g
       id="g128"
       style="clip-rule:evenodd;fill-rule:evenodd;image-rendering:optimizeQuality;shape-rendering:geometricPrecision;text-rendering:geometricPrecision"
       transform="matrix(0.26458333,0,0,0.26458333,-30.995295,4.8829838)">
      <path
         style="opacity:1"
         fill="#ebc1b7"
         d="m 290.5,135.5 c 4.72,-0.294 6.386,1.706 5,6 -5.354,1.331 -7.02,-0.669 -5,-6 z"
         id="path128" />
    </g>
    <g
       id="g130"
       style="clip-rule:evenodd;fill-rule:evenodd;image-rendering:optimizeQuality;shape-rendering:geometricPrecision;text-rendering:geometricPrecision"
       transform="matrix(0.26458333,0,0,0.26458333,-30.995295,4.8829838)">
      <path
         style="opacity:1"
         fill="#965745"
         d="m 296.5,126.5 c 2.403,-0.107 4.236,0.893 5.5,3 1.879,2.027 3.046,4.36 3.5,7 0.347,11.142 -3.82,20.142 -12.5,27 -2.707,-1.207 -4.541,-3.207 -5.5,-6 1.917,0.906 3.583,2.239 5,4 5.611,-3.21 6.278,-7.21 2,-12 1.434,-0.73 2.6,-1.73 3.5,-3 0.414,0.457 0.914,0.791 1.5,1 1.024,-1.353 2.357,-2.02 4,-2 -0.143,-1.762 0.191,-3.429 1,-5 -0.338,-3.922 -1.838,-7.255 -4.5,-10 -6.553,-2.923 -12.719,-2.256 -18.5,2 0,-0.667 0,-1.333 0,-2 2.095,-0.912 4.095,-2.079 6,-3.5 2.982,-0.498 5.982,-0.665 9,-0.5 z"
         id="path130" />
    </g>
    <g
       id="g136"
       style="clip-rule:evenodd;fill-rule:evenodd;image-rendering:optimizeQuality;shape-rendering:geometricPrecision;text-rendering:geometricPrecision"
       transform="matrix(0.26458333,0,0,0.26458333,-30.995295,4.8829838)">
      <path
         style="opacity:1"
         fill="#997140"
         d="m 279.5,149.5 c 0.667,0 1,0.333 1,1 1.029,2.017 2.029,4.017 3,6 -1.464,0.905 -2.798,0.905 -4,0 0,-2.333 0,-4.667 0,-7 z"
         id="path136" />
    </g>
    <g
       id="g144"
       style="clip-rule:evenodd;fill-rule:evenodd;image-rendering:optimizeQuality;shape-rendering:geometricPrecision;text-rendering:geometricPrecision"
       transform="matrix(0.26458333,0,0,0.26458333,-30.995295,4.8829838)">
      <path
         style="opacity:1"
         fill="#e1d1ab"
         d="m 277.5,136.5 c -0.177,3.734 0.156,7.401 1,11 0,9.333 0,18.667 0,28 -0.987,-4.805 -1.321,-9.805 -1,-15 -0.502,-8.18 -0.502,-16.18 0,-24 z"
         id="path144" />
    </g>
    <g
       id="g147"
       style="clip-rule:evenodd;fill-rule:evenodd;image-rendering:optimizeQuality;shape-rendering:geometricPrecision;text-rendering:geometricPrecision"
       transform="matrix(0.26458333,0,0,0.26458333,-30.995295,4.8829838)">
      <path
         style="opacity:1"
         fill="#794614"
         d="m 305.5,136.5 c 0.667,0 1.333,0 2,0 1.134,2.466 1.301,5.133 0.5,8 -1.588,4.172 -3.421,8.172 -5.5,12 -0.988,1.295 -1.988,2.628 -3,4 -1.637,1.975 -3.304,3.975 -5,6 -1.052,0.149 -2.052,-0.017 -3,-0.5 -1.233,-1.667 -2.567,-3.167 -4,-4.5 -1.364,-1.691 -2.697,-3.358 -4,-5 -0.971,-1.983 -1.971,-3.983 -3,-6 0.667,0 1.333,0 2,0 1.851,2.276 3.518,4.609 5,7 0.959,2.793 2.793,4.793 5.5,6 8.68,-6.858 12.847,-15.858 12.5,-27 z"
         id="path147" />
    </g>
    <g
       id="g148"
       style="clip-rule:evenodd;fill-rule:evenodd;image-rendering:optimizeQuality;shape-rendering:geometricPrecision;text-rendering:geometricPrecision"
       transform="matrix(0.26458333,0,0,0.26458333,-30.995295,4.8829838)">
      <path
         style="opacity:1"
         fill="#f0c93f"
         d="m 315.5,163.5 c 0,3.667 0,7.333 0,11 -3,0 -6,0 -9,0 -1.333,0 -2.667,0 -4,0 0,-4.333 0,-8.667 0,-13 3.321,-4.63 6.655,-9.297 10,-14 0.915,0.828 1.581,1.828 2,3 -0.933,4.231 -0.599,8.564 1,13 z"
         id="path148" />
    </g>
    <g
       id="g153"
       style="clip-rule:evenodd;fill-rule:evenodd;image-rendering:optimizeQuality;shape-rendering:geometricPrecision;text-rendering:geometricPrecision"
       transform="matrix(0.26458333,0,0,0.26458333,-30.995295,4.8829838)">
      <path
         style="opacity:1"
         fill="#ba9530"
         d="m 286.5,161.5 c 0.256,2.412 -0.744,4.079 -3,5 -0.974,2.243 -1.308,4.576 -1,7 0,0.333 0,0.667 0,1 -1.772,-4.815 -2.105,-9.815 -1,-15 2.014,-0.108 3.68,0.558 5,2 z"
         id="path153" />
    </g>
    <g
       id="g156"
       style="clip-rule:evenodd;fill-rule:evenodd;image-rendering:optimizeQuality;shape-rendering:geometricPrecision;text-rendering:geometricPrecision"
       transform="matrix(0.26458333,0,0,0.26458333,-30.995295,4.8829838)">
      <path
         style="opacity:1"
         fill="#f2d04a"
         d="m 299.5,166.5 c 0,1.667 0,3.333 0,5 -4.953,0.829 -9.953,1.163 -15,1 -0.239,-1.967 0.094,-3.801 1,-5.5 3.909,0.998 7.743,1.498 11.5,1.5 0.708,-0.881 1.542,-1.547 2.5,-2 z"
         id="path156" />
    </g>
    <g
       id="g160"
       style="clip-rule:evenodd;fill-rule:evenodd;image-rendering:optimizeQuality;shape-rendering:geometricPrecision;text-rendering:geometricPrecision"
       transform="matrix(0.26458333,0,0,0.26458333,-30.995295,4.8829838)">
      <path
         style="opacity:1"
         fill="#f4d050"
         d="m 318.5,124.5 c 0.547,3.075 1.547,6.075 3,9 -0.431,0.793 -0.765,1.627 -1,2.5 0.392,1.011 1.059,1.511 2,1.5 -0.54,1.248 -1.207,2.415 -2,3.5 1.348,1.574 2.014,3.407 2,5.5 -0.842,2.265 -0.842,4.432 0,6.5 -2.256,1.499 -2.256,3.166 0,5 -2.775,4.006 -3.608,8.506 -2.5,13.5 1.545,-0.134 3.212,0.2 5,1 2.464,-0.661 4.964,-1.161 7.5,-1.5 0.808,-0.308 1.475,-0.808 2,-1.5 -0.627,-0.917 -0.961,-1.917 -1,-3 0.333,0 0.667,0 1,0 0.869,2.217 1.202,4.55 1,7 -5.667,0 -11.333,0 -17,0 0,-16.333 0,-32.667 0,-49 z"
         id="path160" />
    </g>
    <g
       id="g161"
       style="clip-rule:evenodd;fill-rule:evenodd;image-rendering:optimizeQuality;shape-rendering:geometricPrecision;text-rendering:geometricPrecision"
       transform="matrix(0.26458333,0,0,0.26458333,-30.995295,4.8829838)">
      <path
         style="opacity:1"
         fill="#f2d057"
         d="m 286.5,161.5 c 0.333,0 0.667,0 1,0 1.433,1.333 2.767,2.833 4,4.5 0.948,0.483 1.948,0.649 3,0.5 1.544,-0.203 2.878,-0.87 4,-2 0.798,0.457 1.131,1.124 1,2 -0.958,0.453 -1.792,1.119 -2.5,2 -3.757,-0.002 -7.591,-0.502 -11.5,-1.5 -0.906,1.699 -1.239,3.533 -1,5.5 5.047,0.163 10.047,-0.171 15,-1 -5.235,1.95 -10.902,2.617 -17,2 -0.308,-2.424 0.026,-4.757 1,-7 2.256,-0.921 3.256,-2.588 3,-5 z"
         id="path161" />
    </g>
    <g
       id="g164"
       style="clip-rule:evenodd;fill-rule:evenodd;image-rendering:optimizeQuality;shape-rendering:geometricPrecision;text-rendering:geometricPrecision"
       transform="matrix(0.26458333,0,0,0.26458333,-30.995295,4.8829838)">
      <path
         style="opacity:1"
         fill="#dab542"
         d="m 299.5,160.5 c 0.986,4.47 1.319,9.137 1,14 -6,0 -12,0 -18,0 0,-0.333 0,-0.667 0,-1 6.098,0.617 11.765,-0.05 17,-2 0,-1.667 0,-3.333 0,-5 0.131,-0.876 -0.202,-1.543 -1,-2 -1.122,1.13 -2.456,1.797 -4,2 1.696,-2.025 3.363,-4.025 5,-6 z"
         id="path164" />
    </g>
    <g
       id="g165"
       style="clip-rule:evenodd;fill-rule:evenodd;image-rendering:optimizeQuality;shape-rendering:geometricPrecision;text-rendering:geometricPrecision"
       transform="matrix(0.26458333,0,0,0.26458333,-30.995295,4.8829838)">
      <path
         style="opacity:1"
         fill="#b38d1b"
         d="m 302.5,156.5 c 0,0.667 0,1.333 0,2 0,1 0,2 0,3 0,4.333 0,8.667 0,13 1.333,0 2.667,0 4,0 0.333,0.667 0.667,1.333 1,2 -8,0 -16,0 -24,0 -0.333,-0.667 -0.667,-1.333 -1,-2 6,0 12,0 18,0 0.319,-4.863 -0.014,-9.53 -1,-14 1.012,-1.372 2.012,-2.705 3,-4 z"
         id="path165" />
    </g>
    <g
       id="g166"
       style="clip-rule:evenodd;fill-rule:evenodd;image-rendering:optimizeQuality;shape-rendering:geometricPrecision;text-rendering:geometricPrecision"
       transform="matrix(0.26458333,0,0,0.26458333,-30.995295,4.8829838)">
      <path
         style="opacity:1"
         fill="#bb9738"
         d="m 309.5,176.5 c 34.667,0.667 34.667,1.333 0,2 0,-0.667 0,-1.333 0,-2 z"
         id="path166" />
    </g>
    <g
       id="g167"
       style="clip-rule:evenodd;fill-rule:evenodd;image-rendering:optimizeQuality;shape-rendering:geometricPrecision;text-rendering:geometricPrecision"
       transform="matrix(0.26458333,0,0,0.26458333,-30.995295,4.8829838)">
      <path
         style="opacity:1"
         fill="#d2ab3d"
         d="m 283.5,176.5 c 8,0 16,0 24,0 0.667,0 1.333,0 2,0 0,0.667 0,1.333 0,2 -1.333,0 -2.667,0 -4,0 -7.667,0 -15.333,0 -23,0 -0.172,-0.992 0.162,-1.658 1,-2 z"
         id="path167" />
    </g>
    <g
       id="g168"
       style="clip-rule:evenodd;fill-rule:evenodd;image-rendering:optimizeQuality;shape-rendering:geometricPrecision;text-rendering:geometricPrecision"
       transform="matrix(0.26458333,0,0,0.26458333,-30.995295,4.8829838)">
      <path
         style="opacity:1"
         fill="#a37e1b"
         d="m 336.5,167.5 c 0.957,4.17 0.957,8.503 0,13 -10.721,0.642 -21.054,-0.025 -31,-2 1.333,0 2.667,0 4,0 34.667,-0.667 34.667,-1.333 0,-2 -0.667,0 -1.333,0 -2,0 -0.333,-0.667 -0.667,-1.333 -1,-2 3,0 6,0 9,0 0.667,0 1.333,0 2,0 6.333,0 12.667,0 19,0 0,-2.333 0,-4.667 0,-7 z"
         id="path168" />
    </g>
    <g
       id="g171"
       style="clip-rule:evenodd;fill-rule:evenodd;image-rendering:optimizeQuality;shape-rendering:geometricPrecision;text-rendering:geometricPrecision"
       transform="matrix(0.26458333,0,0,0.26458333,-30.995295,4.8829838)">
      <path
         style="opacity:1"
         fill="#f9f9ed"
         d="m 343.5,307.5 c -0.322,-42.136 -0.989,-84.136 -2,-126 0,-26.667 0,-53.333 0,-80 1.83,-23.984 0.664,-47.984 -3.5,-72 -1.086,-3.8464 -2.919,-7.1797 -5.5,-10 -1.953,-3.6203 -4.619,-6.6203 -8,-9 -0.333,0 -0.667,0 -1,0 0,-0.3333 0,-0.66667 0,-1 0,-1 0,-2 0,-3 -3.064,0.35626 -5.731,-0.47707 -8,-2.5 -10.577,-0.86148 -19.91,1.97185 -28,8.5 1.489,-3.65333 4.156,-6.15333 8,-7.5 4.314,-1.23223 8.314,-2.3989 12,-3.5 2.534,1.28834 5.034,1.28834 7.5,0 4.517,1.42262 8.851,3.42262 13,6 4.529,6.5754 8.695,13.4087 12.5,20.5 -0.457,0.414 -0.791,0.914 -1,1.5 1.865,12.2373 3.531,24.7373 5,37.5 0.054,60.781 -0.279,121.447 -1,182 1.962,10.7 1.962,21.367 0,32 1.088,8.998 1.088,17.832 0,26.5 z"
         id="path171" />
    </g>
    <g
       id="g180"
       style="clip-rule:evenodd;fill-rule:evenodd;image-rendering:optimizeQuality;shape-rendering:geometricPrecision;text-rendering:geometricPrecision"
       transform="matrix(0.26458333,0,0,0.26458333,-30.995295,4.8829838)">
      <path
         style="opacity:1"
         fill="#d3af3d"
         d="m 281.5,180.5 c 6.19,-0.323 12.19,0.01 18,1 -5.667,0 -11.333,0 -17,0 0,2.333 0,4.667 0,7 -0.973,-2.448 -1.306,-5.115 -1,-8 z"
         id="path180" />
    </g>
    <g
       id="g188"
       style="clip-rule:evenodd;fill-rule:evenodd;image-rendering:optimizeQuality;shape-rendering:geometricPrecision;text-rendering:geometricPrecision"
       transform="matrix(0.26458333,0,0,0.26458333,-30.995295,4.8829838)">
      <path
         style="opacity:1"
         fill="#f3cd49"
         d="m 320.5,244.5 c -7.482,0.992 -15.148,1.325 -23,1 -0.166,-5.676 10e-4,-11.343 0.5,-17 1.154,-1.243 2.488,-2.243 4,-3 0.5,-14.663 0.667,-29.33 0.5,-44 4.333,0 8.667,0 13,0 -0.167,14.337 0,28.671 0.5,43 1.019,1.187 2.186,2.187 3.5,3 0.995,5.628 1.329,11.294 1,17 z"
         id="path188" />
    </g>
    <g
       id="g189"
       style="clip-rule:evenodd;fill-rule:evenodd;image-rendering:optimizeQuality;shape-rendering:geometricPrecision;text-rendering:geometricPrecision"
       transform="matrix(0.26458333,0,0,0.26458333,-30.995295,4.8829838)">
      <path
         style="opacity:1"
         fill="#b08b1f"
         d="m 282.5,189.5 c 3.44,0.949 4.774,3.282 4,7 0.628,3.349 -0.539,5.683 -3.5,7 -0.49,1.293 -0.657,2.627 -0.5,4 -0.901,-5.172 -0.901,-10.505 0,-16 0,-0.667 0,-1.333 0,-2 z"
         id="path189" />
    </g>
    <g
       id="g190"
       style="clip-rule:evenodd;fill-rule:evenodd;image-rendering:optimizeQuality;shape-rendering:geometricPrecision;text-rendering:geometricPrecision"
       transform="matrix(0.26458333,0,0,0.26458333,-30.995295,4.8829838)">
      <path
         style="opacity:1"
         fill="#cfa93f"
         d="m 282.5,191.5 c 0.617,0.111 1.117,0.444 1.5,1 0.818,2.727 0.652,5.394 -0.5,8 -0.984,-2.928 -1.317,-5.928 -1,-9 z"
         id="path190" />
    </g>
    <g
       id="g192"
       style="clip-rule:evenodd;fill-rule:evenodd;image-rendering:optimizeQuality;shape-rendering:geometricPrecision;text-rendering:geometricPrecision"
       transform="matrix(0.26458333,0,0,0.26458333,-30.995295,4.8829838)">
      <path
         style="opacity:1"
         fill="#f2ce4a"
         d="m 299.5,181.5 c 0,12 0,24 0,36 -0.749,-1.031 -1.415,-2.198 -2,-3.5 0.065,-5.782 0.398,-11.615 1,-17.5 -0.762,-3.611 -1.262,-7.278 -1.5,-11 -2.614,-0.532 -5.28,-0.865 -8,-1 -0.938,5.027 -0.438,9.86 1.5,14.5 -0.333,0.333 -0.667,0.667 -1,1 2.344,0.837 4.344,2.171 6,4 -6.05,0.45 -8.05,3.45 -6,9 -1.459,3.827 -2.459,7.661 -3,11.5 0.321,-5.195 -0.013,-10.195 -1,-15 -0.79,-0.901 -1.79,-1.568 -3,-2 -0.157,-1.373 0.01,-2.707 0.5,-4 2.961,-1.317 4.128,-3.651 3.5,-7 0.774,-3.718 -0.56,-6.051 -4,-7 0,-0.333 0,-0.667 0,-1 0,-2.333 0,-4.667 0,-7 5.667,0 11.333,0 17,0 z"
         id="path192" />
    </g>
    <g
       id="g193"
       style="clip-rule:evenodd;fill-rule:evenodd;image-rendering:optimizeQuality;shape-rendering:geometricPrecision;text-rendering:geometricPrecision"
       transform="matrix(0.26458333,0,0,0.26458333,-30.995295,4.8829838)">
      <path
         style="opacity:1"
         fill="#bb9621"
         d="m 282.5,178.5 c 7.667,0 15.333,0 23,0 9.946,1.975 20.279,2.642 31,2 0,0.333 0,0.667 0,1 -6,0 -12,0 -18,0 -0.167,14.337 0,28.671 0.5,43 1.302,0.585 2.469,1.251 3.5,2 -0.667,6 -1.333,12 -2,18 0.329,-5.706 -0.005,-11.372 -1,-17 -1.314,-0.813 -2.481,-1.813 -3.5,-3 -0.5,-14.329 -0.667,-28.663 -0.5,-43 -4.333,0 -8.667,0 -13,0 0.167,14.67 0,29.337 -0.5,44 -1.512,0.757 -2.846,1.757 -4,3 -0.499,5.657 -0.666,11.324 -0.5,17 -0.826,-4.482 -1.326,-9.149 -1.5,-14 -0.5,14.329 -0.667,28.663 -0.5,43 -0.831,-13.494 -1.331,-27.161 -1.5,-41 -0.5,14.329 -0.667,28.663 -0.5,43 -0.831,-11.826 -1.331,-23.826 -1.5,-36 -0.5,18.664 -0.667,37.33 -0.5,56 -1.163,-20.829 -1.329,-41.829 -0.5,-63 0.904,-2.733 2.404,-5.067 4.5,-7 1.517,-0.011 2.684,-0.677 3.5,-2 0.497,-2.31 0.663,-4.643 0.5,-7 0,-12 0,-24 0,-36 -5.81,-0.99 -11.81,-1.323 -18,-1 0.333,-0.667 0.667,-1.333 1,-2 z"
         id="path193" />
    </g>
    <g
       id="g196"
       style="clip-rule:evenodd;fill-rule:evenodd;image-rendering:optimizeQuality;shape-rendering:geometricPrecision;text-rendering:geometricPrecision"
       transform="matrix(0.26458333,0,0,0.26458333,-30.995295,4.8829838)">
      <path
         style="opacity:1"
         fill="#f3d045"
         d="m 299.5,217.5 c 0.163,2.357 -0.003,4.69 -0.5,7 -0.816,1.323 -1.983,1.989 -3.5,2 -3.912,-0.544 -6.245,1.123 -7,5 -0.012,-1.634 -1.012,-3.134 -3,-4.5 0.752,-0.671 1.086,-1.504 1,-2.5 0.541,-3.839 1.541,-7.673 3,-11.5 -2.05,-5.55 -0.05,-8.55 6,-9 -1.656,-1.829 -3.656,-3.163 -6,-4 0.333,-0.333 0.667,-0.667 1,-1 -1.938,-4.64 -2.438,-9.473 -1.5,-14.5 2.72,0.135 5.386,0.468 8,1 0.238,3.722 0.738,7.389 1.5,11 -0.602,5.885 -0.935,11.718 -1,17.5 0.585,1.302 1.251,2.469 2,3.5 z"
         id="path196" />
    </g>
    <g
       id="g200"
       style="clip-rule:evenodd;fill-rule:evenodd;image-rendering:optimizeQuality;shape-rendering:geometricPrecision;text-rendering:geometricPrecision"
       transform="matrix(0.26458333,0,0,0.26458333,-30.995295,4.8829838)">
      <path
         style="opacity:1"
         fill="#b59127"
         d="m 336.5,181.5 c 1.282,3.231 1.282,6.564 0,10 1.323,10.507 1.323,21.174 0,32 -0.607,-0.124 -0.94,-0.457 -1,-1 1.145,-3.811 1.312,-7.811 0.5,-12 -1.415,3.458 -1.915,7.125 -1.5,11 -0.904,0.709 -1.237,1.709 -1,3 -1.315,-5.18 -1.315,-10.514 0,-16 3.973,-2.04 3.973,-4.04 0,-6 -1.096,-3.913 -1.262,-7.913 -0.5,-12 1.011,-0.837 2.178,-1.17 3.5,-1 0,-2.667 0,-5.333 0,-8 z"
         id="path200" />
    </g>
    <g
       id="g201"
       style="clip-rule:evenodd;fill-rule:evenodd;image-rendering:optimizeQuality;shape-rendering:geometricPrecision;text-rendering:geometricPrecision"
       transform="matrix(0.26458333,0,0,0.26458333,-30.995295,4.8829838)">
      <path
         style="opacity:1"
         fill="#d9b148"
         d="m 336.5,191.5 c 0.317,3.072 -0.016,6.072 -1,9 -0.333,-1.5 -0.667,-3 -1,-4.5 0.069,-1.986 0.735,-3.486 2,-4.5 z"
         id="path201" />
    </g>
    <g
       id="g202"
       style="clip-rule:evenodd;fill-rule:evenodd;image-rendering:optimizeQuality;shape-rendering:geometricPrecision;text-rendering:geometricPrecision"
       transform="matrix(0.26458333,0,0,0.26458333,-30.995295,4.8829838)">
      <path
         style="opacity:1"
         fill="#a0822e"
         d="m 279.5,156.5 c 1.202,0.905 2.536,0.905 4,0 1.303,1.642 2.636,3.309 4,5 -0.333,0 -0.667,0 -1,0 -1.32,-1.442 -2.986,-2.108 -5,-2 -1.105,5.185 -0.772,10.185 1,15 0.333,0.667 0.667,1.333 1,2 -0.838,0.342 -1.172,1.008 -1,2 -0.333,0.667 -0.667,1.333 -1,2 -0.306,2.885 0.027,5.552 1,8 0,0.333 0,0.667 0,1 0,0.667 0,1.333 0,2 -0.901,5.495 -0.901,10.828 0,16 1.21,0.432 2.21,1.099 3,2 0.172,0.992 -0.162,1.658 -1,2 -0.342,-0.838 -1.008,-1.172 -2,-1 -2.429,11.852 -2.429,23.852 0,36 -0.674,13.401 -0.674,27.068 0,41 -0.575,7.687 -1.242,15.687 -2,24 -0.892,-51.581 -1.225,-103.248 -1,-155 z"
         id="path202" />
    </g>
    <g
       id="g203"
       style="clip-rule:evenodd;fill-rule:evenodd;image-rendering:optimizeQuality;shape-rendering:geometricPrecision;text-rendering:geometricPrecision"
       transform="matrix(0.26458333,0,0,0.26458333,-30.995295,4.8829838)">
      <path
         style="opacity:1"
         fill="#ecdfb5"
         d="m 340.5,70.5 c 0.994,10.1532 1.328,20.4865 1,31 0,26.667 0,53.333 0,80 0.332,42.17 -10e-4,84.17 -1,126 0.661,-43.346 -0.005,-86.346 -2,-129 -0.172,-0.992 0.162,-1.658 1,-2 0.998,-35.163 1.332,-70.496 1,-106 z"
         id="path203" />
    </g>
    <g
       id="g208"
       style="clip-rule:evenodd;fill-rule:evenodd;image-rendering:optimizeQuality;shape-rendering:geometricPrecision;text-rendering:geometricPrecision"
       transform="matrix(0.26458333,0,0,0.26458333,-30.995295,4.8829838)">
      <path
         style="opacity:1"
         fill="#ddb84b"
         d="m 335.5,222.5 c -0.667,0 -1,-0.333 -1,-1 -0.415,-3.875 0.085,-7.542 1.5,-11 0.812,4.189 0.645,8.189 -0.5,12 z"
         id="path208" />
    </g>
    <g
       id="g212"
       style="clip-rule:evenodd;fill-rule:evenodd;image-rendering:optimizeQuality;shape-rendering:geometricPrecision;text-rendering:geometricPrecision"
       transform="matrix(0.26458333,0,0,0.26458333,-30.995295,4.8829838)">
      <path
         style="opacity:1"
         fill="#b59127"
         d="m 285.5,209.5 c 0.987,4.805 1.321,9.805 1,15 -3.197,0.612 -4.531,2.612 -4,6 1.322,-0.17 2.489,0.163 3.5,1 0.667,4.333 0.667,8.667 0,13 -0.816,1.323 -1.983,1.989 -3.5,2 -2.429,-12.148 -2.429,-24.148 0,-36 -0.324,4.055 0.009,8.055 1,12 0.989,-3.607 1.323,-7.274 1,-11 0.838,-0.342 1.172,-1.008 1,-2 z"
         id="path212" />
    </g>
    <g
       id="g213"
       style="clip-rule:evenodd;fill-rule:evenodd;image-rendering:optimizeQuality;shape-rendering:geometricPrecision;text-rendering:geometricPrecision"
       transform="matrix(0.26458333,0,0,0.26458333,-30.995295,4.8829838)">
      <path
         style="opacity:1"
         fill="#d4ac3c"
         d="m 282.5,210.5 c 0.992,-0.172 1.658,0.162 2,1 0.323,3.726 -0.011,7.393 -1,11 -0.991,-3.945 -1.324,-7.945 -1,-12 z"
         id="path213" />
    </g>
    <g
       id="g218"
       style="clip-rule:evenodd;fill-rule:evenodd;image-rendering:optimizeQuality;shape-rendering:geometricPrecision;text-rendering:geometricPrecision"
       transform="matrix(0.26458333,0,0,0.26458333,-30.995295,4.8829838)">
      <path
         style="opacity:1"
         fill="#efcf51"
         d="m 286.5,224.5 c 0.086,0.996 -0.248,1.829 -1,2.5 1.988,1.366 2.988,2.866 3,4.5 0.755,-3.877 3.088,-5.544 7,-5 -2.096,1.933 -3.596,4.267 -4.5,7 -0.829,21.171 -0.663,42.171 0.5,63 1.33,4.418 4.33,6.085 9,5 0,3.667 0,7.333 0,11 -6,0 -12,0 -18,0 0.868,-4.946 2.201,-9.78 4,-14.5 0.455,-2.923 -0.545,-5.09 -3,-6.5 -0.929,-1.189 -1.262,-2.522 -1,-4 1.517,-0.011 2.684,-0.677 3.5,-2 0.667,-4.333 0.667,-8.667 0,-13 -4.627,-2.244 -4.627,-4.577 0,-7 0.667,-4.667 0.667,-9.333 0,-14 -1.011,-0.837 -2.178,-1.17 -3.5,-1 0,-1.333 0,-2.667 0,-4 1.517,-0.011 2.684,-0.677 3.5,-2 0.667,-4.333 0.667,-8.667 0,-13 -1.011,-0.837 -2.178,-1.17 -3.5,-1 -0.531,-3.388 0.803,-5.388 4,-6 z"
         id="path218" />
    </g>
    <g
       id="g223"
       style="clip-rule:evenodd;fill-rule:evenodd;image-rendering:optimizeQuality;shape-rendering:geometricPrecision;text-rendering:geometricPrecision"
       transform="matrix(0.26458333,0,0,0.26458333,-30.995295,4.8829838)">
      <path
         style="opacity:1"
         fill="#f3ce3d"
         d="m 310.5,185.5 c 1.266,0.59 2.599,1.09 4,1.5 -0.466,10.605 -1.133,21.438 -2,32.5 0.344,2.536 1.344,4.703 3,6.5 -0.667,0.333 -1.333,0.667 -2,1 1.333,0.667 2.667,1.333 4,2 -0.457,0.414 -0.791,0.914 -1,1.5 2.201,3.646 2.534,7.479 1,11.5 -3.908,-0.078 -7.908,0.422 -12,1.5 -1.687,-0.26 -3.187,-0.927 -4.5,-2 0.651,-2.446 0.484,-4.946 -0.5,-7.5 0.263,-4.263 2.596,-6.597 7,-7 -1.41,-0.368 -2.41,-1.201 -3,-2.5 0.173,-2.74 0.173,-5.407 0,-8 0.667,-0.333 1.333,-0.667 2,-1 -2.3,-2.328 -2.3,-4.495 0,-6.5 0.257,-1.371 -0.077,-2.871 -1,-4.5 0.537,-1.241 1.204,-2.408 2,-3.5 -2.728,-4.431 -3.395,-9.098 -2,-14 1.244,-0.456 2.077,0.044 2.5,1.5 1.045,-0.873 1.878,-1.873 2.5,-3 z"
         id="path223" />
    </g>
    <g
       id="g225"
       style="clip-rule:evenodd;fill-rule:evenodd;image-rendering:optimizeQuality;shape-rendering:geometricPrecision;text-rendering:geometricPrecision"
       transform="matrix(0.26458333,0,0,0.26458333,-30.995295,4.8829838)">
      <path
         style="opacity:1"
         fill="#a78d48"
         d="m 338.5,178.5 c 1.995,42.654 2.661,85.654 2,129 0.308,2.424 -0.026,4.757 -1,7 -2.092,1.325 -3.759,2.991 -5,5 -15.67,0.167 -31.337,0 -47,-0.5 -0.916,-0.278 -1.582,-0.778 -2,-1.5 16.175,0.33 32.175,-0.004 48,-1 4.594,-3.028 6.261,-7.361 5,-13 0,-41.667 0,-83.333 0,-125 z"
         id="path225" />
    </g>
    <g
       id="g232"
       style="clip-rule:evenodd;fill-rule:evenodd;image-rendering:optimizeQuality;shape-rendering:geometricPrecision;text-rendering:geometricPrecision"
       transform="matrix(0.26458333,0,0,0.26458333,-30.995295,4.8829838)">
      <path
         style="opacity:1"
         fill="#f4edc6"
         d="m 277.5,160.5 c -0.321,5.195 0.013,10.195 1,15 0,46.333 0,92.667 0,139 -1.472,-39.157 -2.139,-78.491 -2,-118 -0.328,-12.178 0.005,-24.178 1,-36 z"
         id="path232" />
    </g>
    <g
       id="g233"
       style="clip-rule:evenodd;fill-rule:evenodd;image-rendering:optimizeQuality;shape-rendering:geometricPrecision;text-rendering:geometricPrecision"
       transform="matrix(0.26458333,0,0,0.26458333,-30.995295,4.8829838)">
      <path
         style="opacity:1"
         fill="#f0cf4f"
         d="m 336.5,181.5 c 0,2.667 0,5.333 0,8 -1.322,-0.17 -2.489,0.163 -3.5,1 -0.762,4.087 -0.596,8.087 0.5,12 3.973,1.96 3.973,3.96 0,6 -1.315,5.486 -1.315,10.82 0,16 0.891,0.61 1.891,0.943 3,1 0.127,2.745 -1.04,4.745 -3.5,6 -0.667,4.333 -0.667,8.667 0,13 0.71,1.473 1.876,2.14 3.5,2 0,1.333 0,2.667 0,4 -1.322,-0.17 -2.489,0.163 -3.5,1 -0.667,4.667 -0.667,9.333 0,14 1.298,1.06 2.465,2.226 3.5,3.5 -1.035,1.274 -2.202,2.44 -3.5,3.5 -0.667,4.667 -0.667,9.333 0,14 1.011,0.837 2.178,1.17 3.5,1 0,1.333 0,2.667 0,4 -1.322,-0.17 -2.489,0.163 -3.5,1 -0.667,3.667 -0.667,7.333 0,11 2.802,1.891 3.968,4.558 3.5,8 -6,0 -12,0 -18,0 0,-3.333 0,-6.667 0,-10 3.525,0.154 6.359,-1.179 8.5,-4 0.5,-8.327 0.666,-16.66 0.5,-25 0.167,-13.337 0,-26.671 -0.5,-40 -0.792,-2.606 -2.292,-4.606 -4.5,-6 -1.031,-0.749 -2.198,-1.415 -3.5,-2 -0.5,-14.329 -0.667,-28.663 -0.5,-43 6,0 12,0 18,0 z"
         id="path233" />
    </g>
    <g
       id="g234"
       style="clip-rule:evenodd;fill-rule:evenodd;image-rendering:optimizeQuality;shape-rendering:geometricPrecision;text-rendering:geometricPrecision"
       transform="matrix(0.26458333,0,0,0.26458333,-30.995295,4.8829838)">
      <path
         style="opacity:1"
         fill="#f3d044"
         d="m 333.5,202.5 c -3.563,6.405 -4.73,13.739 -3.5,22 1.158,0.498 1.991,1.331 2.5,2.5 -2.6,7.42 -4.766,7.253 -6.5,-0.5 -1.378,-1.713 -3.045,-3.047 -5,-4 0.06,-6.178 -0.107,-12.012 -0.5,-17.5 2.728,-0.639 3.228,-1.806 1.5,-3.5 -1.145,-5.299 -1.478,-10.632 -1,-16 1.016,-1.134 1.683,-0.801 2,1 0.333,-1 0.667,-2 1,-3 0.689,0.857 1.522,1.523 2.5,2 2.43,-2.071 5.097,-2.404 8,-1 -1.785,3.401 -3.452,6.734 -5,10 0.544,2.174 0.544,4.174 0,6 0.82,1.611 2.154,2.278 4,2 z"
         id="path234" />
    </g>
    <g
       id="g235"
       style="clip-rule:evenodd;fill-rule:evenodd;image-rendering:optimizeQuality;shape-rendering:geometricPrecision;text-rendering:geometricPrecision"
       transform="matrix(0.26458333,0,0,0.26458333,-30.995295,4.8829838)">
      <path
         style="opacity:1"
         fill="#a38330"
         d="m 317.5,10.5 c 2,0 4,0 6,0 0.333,0 0.667,0 1,0 1.703,3.5599 3.87,6.8932 6.5,10 4.064,14.0461 6.73,28.3794 8,43 0.5,37.665 0.667,75.332 0.5,113 -0.838,0.342 -1.172,1.008 -1,2 0,41.667 0,83.333 0,125 -0.667,-3 -1.333,-6 -2,-9 0,-1 0,-2 0,-3 1.333,-22 1.333,-44 0,-66 -1.109,-0.057 -2.109,-0.39 -3,-1 -0.237,-1.291 0.096,-2.291 1,-3 0,0.667 0.333,1 1,1 0.06,0.543 0.393,0.876 1,1 1.323,-10.826 1.323,-21.493 0,-32 1.282,-3.436 1.282,-6.769 0,-10 0,-0.333 0,-0.667 0,-1 0.957,-4.497 0.957,-8.83 0,-13 -0.342,-0.838 -1.008,-1.172 -2,-1 0.709,-0.904 1.709,-1.237 3,-1 0.63,-11.09 -0.037,-21.923 -2,-32.5 0.556,-0.383 0.889,-0.883 1,-1.5 0,-1.667 0,-3.333 0,-5 0,-0.667 0,-1.333 0,-2 0,-0.333 0,-0.667 0,-1 0.99,-6.145 1.323,-12.478 1,-19 0.328,-11.8453 -0.005,-23.512 -1,-35 -0.177,-11.7607 -1.344,-23.4274 -3.5,-35 -0.471,-4.6062 -1.971,-8.6062 -4.5,-12 -1.31,-2.9732 -3.31,-5.3065 -6,-7 0.086,-0.9959 -0.248,-1.8292 -1,-2.5 -1.566,-0.6082 -2.9,-1.4415 -4,-2.5 z"
         id="path235" />
    </g>
    <g
       id="g240"
       style="clip-rule:evenodd;fill-rule:evenodd;image-rendering:optimizeQuality;shape-rendering:geometricPrecision;text-rendering:geometricPrecision"
       transform="matrix(0.26458333,0,0,0.26458333,-30.995295,4.8829838)">
      <path
         style="opacity:1"
         fill="#ddb848"
         d="m 295.5,274.5 c 1.126,1.358 1.126,2.692 0,4 -1.022,-0.355 -1.689,-1.022 -2,-2 -0.167,-14.337 0,-28.671 0.5,-43 0.169,13.839 0.669,27.506 1.5,41 z"
         id="path240" />
    </g>
    <g
       id="g242"
       style="clip-rule:evenodd;fill-rule:evenodd;image-rendering:optimizeQuality;shape-rendering:geometricPrecision;text-rendering:geometricPrecision"
       transform="matrix(0.26458333,0,0,0.26458333,-30.995295,4.8829838)">
      <path
         style="opacity:1"
         fill="#bb962b"
         d="m 282.5,246.5 c 0,1.333 0,2.667 0,4 1.322,-0.17 2.489,0.163 3.5,1 0.667,4.667 0.667,9.333 0,14 -4.627,2.423 -4.627,4.756 0,7 0.667,4.333 0.667,8.667 0,13 -0.816,1.323 -1.983,1.989 -3.5,2 -0.674,-13.932 -0.674,-27.599 0,-41 z"
         id="path242" />
    </g>
    <g
       id="g245"
       style="clip-rule:evenodd;fill-rule:evenodd;image-rendering:optimizeQuality;shape-rendering:geometricPrecision;text-rendering:geometricPrecision"
       transform="matrix(0.26458333,0,0,0.26458333,-30.995295,4.8829838)">
      <path
         style="opacity:1"
         fill="#f8f4da"
         d="m 341.5,181.5 c 1.011,41.864 1.678,83.864 2,126 -0.061,4.346 -1.227,8.346 -3.5,12 -1.789,1.729 -3.956,2.396 -6.5,2 -15.842,0.33 -31.509,-0.004 -47,-1 16.175,0.33 32.175,-0.004 48,-1 1.241,-2.009 2.908,-3.675 5,-5 0.974,-2.243 1.308,-4.576 1,-7 0.999,-41.83 1.332,-83.83 1,-126 z"
         id="path245" />
    </g>
    <g
       id="g253"
       style="clip-rule:evenodd;fill-rule:evenodd;image-rendering:optimizeQuality;shape-rendering:geometricPrecision;text-rendering:geometricPrecision"
       transform="matrix(0.26458333,0,0,0.26458333,-30.995295,4.8829838)">
      <path
         style="opacity:1"
         fill="#b49125"
         d="m 336.5,225.5 c 1.333,22 1.333,44 0,66 0,-1.333 0,-2.667 0,-4 -1.322,0.17 -2.489,-0.163 -3.5,-1 -0.667,-4.667 -0.667,-9.333 0,-14 1.298,-1.06 2.465,-2.226 3.5,-3.5 -1.035,-1.274 -2.202,-2.44 -3.5,-3.5 -0.667,-4.667 -0.667,-9.333 0,-14 1.011,-0.837 2.178,-1.17 3.5,-1 0,-1.333 0,-2.667 0,-4 -1.624,0.14 -2.79,-0.527 -3.5,-2 -0.667,-4.333 -0.667,-8.667 0,-13 2.46,-1.255 3.627,-3.255 3.5,-6 z"
         id="path253" />
    </g>
    <g
       id="g254"
       style="clip-rule:evenodd;fill-rule:evenodd;image-rendering:optimizeQuality;shape-rendering:geometricPrecision;text-rendering:geometricPrecision"
       transform="matrix(0.26458333,0,0,0.26458333,-30.995295,4.8829838)">
      <path
         style="opacity:1"
         fill="#dab546"
         d="m 334.5,253.5 c 1.287,1.371 1.953,3.205 2,5.5 -0.333,1.833 -0.667,3.667 -1,5.5 -0.989,-3.607 -1.323,-7.274 -1,-11 z"
         id="path254" />
    </g>
    <g
       id="g255"
       style="clip-rule:evenodd;fill-rule:evenodd;image-rendering:optimizeQuality;shape-rendering:geometricPrecision;text-rendering:geometricPrecision"
       transform="matrix(0.26458333,0,0,0.26458333,-30.995295,4.8829838)">
      <path
         style="opacity:1"
         fill="#dfb447"
         d="m 334.5,232.5 c 1.287,1.371 1.953,3.205 2,5.5 -0.333,1.833 -0.667,3.667 -1,5.5 -0.989,-3.607 -1.323,-7.274 -1,-11 z"
         id="path255" />
    </g>
    <g
       id="g263"
       style="clip-rule:evenodd;fill-rule:evenodd;image-rendering:optimizeQuality;shape-rendering:geometricPrecision;text-rendering:geometricPrecision"
       transform="matrix(0.26458333,0,0,0.26458333,-30.995295,4.8829838)">
      <path
         style="opacity:1"
         fill="#e0ba49"
         d="m 334.5,273.5 c 1.294,1.548 1.961,3.548 2,6 -0.333,2 -0.667,4 -1,6 -0.991,-3.945 -1.324,-7.945 -1,-12 z"
         id="path263" />
    </g>
    <g
       id="g264"
       style="clip-rule:evenodd;fill-rule:evenodd;image-rendering:optimizeQuality;shape-rendering:geometricPrecision;text-rendering:geometricPrecision"
       transform="matrix(0.26458333,0,0,0.26458333,-30.995295,4.8829838)">
      <path
         style="opacity:1"
         fill="#b7921f"
         d="m 327.5,272.5 c 0.166,8.34 0,16.673 -0.5,25 -2.141,2.821 -4.975,4.154 -8.5,4 0,3.333 0,6.667 0,10 -0.667,0 -1.333,0 -2,0 0,-3.667 0,-7.333 0,-11 0.787,-1.604 2.12,-2.271 4,-2 0.973,-2.448 1.306,-5.115 1,-8 0.667,-3.333 1.333,-6.667 2,-10 -0.328,5.375 0.005,10.708 1,16 1.315,-5.486 1.315,-10.82 0,-16 -0.6,-1.4 -1.6,-2.4 -3,-3 1.333,0 2.667,0 4,0 0.667,-1.667 1.333,-3.333 2,-5 z"
         id="path264" />
    </g>
    <g
       id="g267"
       style="clip-rule:evenodd;fill-rule:evenodd;image-rendering:optimizeQuality;shape-rendering:geometricPrecision;text-rendering:geometricPrecision"
       transform="matrix(0.26458333,0,0,0.26458333,-30.995295,4.8829838)">
      <path
         style="opacity:1"
         fill="#b09b5d"
         d="m 278.5,147.5 c 0.838,0.342 1.172,1.008 1,2 0,2.333 0,4.667 0,7 -0.225,51.752 0.108,103.419 1,155 0.582,1.431 1.415,2.764 2.5,4 0.671,0.752 1.504,1.086 2.5,1 0,0.333 0,0.667 0,1 0.418,0.722 1.084,1.222 2,1.5 15.663,0.5 31.33,0.667 47,0.5 -15.825,0.996 -31.825,1.33 -48,1 -2.655,-1.915 -5.321,-3.915 -8,-6 0,-46.333 0,-92.667 0,-139 0,-9.333 0,-18.667 0,-28 z"
         id="path267" />
    </g>
    <g
       id="g268"
       style="clip-rule:evenodd;fill-rule:evenodd;image-rendering:optimizeQuality;shape-rendering:geometricPrecision;text-rendering:geometricPrecision"
       transform="matrix(0.26458333,0,0,0.26458333,-30.995295,4.8829838)">
      <path
         style="opacity:1"
         fill="#d9b140"
         d="m 323.5,280.5 c 0.333,0 0.667,0 1,0 1.315,5.18 1.315,10.514 0,16 -0.995,-5.292 -1.328,-10.625 -1,-16 z"
         id="path268" />
    </g>
    <g
       id="g271"
       style="clip-rule:evenodd;fill-rule:evenodd;image-rendering:optimizeQuality;shape-rendering:geometricPrecision;text-rendering:geometricPrecision"
       transform="matrix(0.26458333,0,0,0.26458333,-30.995295,4.8829838)">
      <path
         style="opacity:1"
         fill="#f3ce46"
         d="m 320.5,298.5 c -1.88,-0.271 -3.213,0.396 -4,2 -0.982,3.462 -1.315,7.129 -1,11 -4,0 -8,0 -12,0 0.31,-3.213 -0.023,-6.213 -1,-9 -0.238,-1.904 -1.238,-3.238 -3,-4 -1.329,-4.97 -1.329,-9.97 0,-15 6.556,-1.31 13.056,-1.31 19.5,0 0.891,3.434 0.391,6.601 -1.5,9.5 0.602,1.563 1.435,1.396 2.5,-0.5 0.495,1.973 0.662,3.973 0.5,6 z"
         id="path271" />
    </g>
    <g
       id="g274"
       style="clip-rule:evenodd;fill-rule:evenodd;image-rendering:optimizeQuality;shape-rendering:geometricPrecision;text-rendering:geometricPrecision"
       transform="matrix(0.26458333,0,0,0.26458333,-30.995295,4.8829838)">
      <path
         style="opacity:1"
         fill="#e7c348"
         d="m 321.5,290.5 c 0.306,2.885 -0.027,5.552 -1,8 0.162,-2.027 -0.005,-4.027 -0.5,-6 -1.065,1.896 -1.898,2.063 -2.5,0.5 1.891,-2.899 2.391,-6.066 1.5,-9.5 -6.444,-1.31 -12.944,-1.31 -19.5,0 -1.329,5.03 -1.329,10.03 0,15 -1.312,-2.243 -1.978,-4.91 -2,-8 0.024,-2.921 0.357,-5.754 1,-8.5 7.333,-0.667 14.667,-0.667 22,0 0.944,2.719 1.277,5.552 1,8.5 z"
         id="path274" />
    </g>
    <g
       id="g278"
       style="clip-rule:evenodd;fill-rule:evenodd;image-rendering:optimizeQuality;shape-rendering:geometricPrecision;text-rendering:geometricPrecision"
       transform="matrix(0.26458333,0,0,0.26458333,-30.995295,4.8829838)">
      <path
         style="opacity:1"
         fill="#ad8a1e"
         d="m 322.5,226.5 c 2.208,1.394 3.708,3.394 4.5,6 0.5,13.329 0.667,26.663 0.5,40 -0.667,1.667 -1.333,3.333 -2,5 0.167,-15.004 0,-30.004 -0.5,-45 -0.414,-0.457 -0.914,-0.791 -1.5,-1 -0.998,9.31 -1.332,18.643 -1,28 -0.667,-1 -1.333,-2 -2,-3 -2.747,-0.313 -5.414,0.02 -8,1 0.363,0.683 0.696,1.35 1,2 -0.667,0 -1,0.333 -1,1 -0.921,-1.481 -2.088,-2.814 -3.5,-4 -0.765,0.07 -1.265,0.403 -1.5,1 -1.125,-0.848 -1.125,-1.848 0,-3 0,-0.333 0,-0.667 0,-1 0.658,-0.898 1.324,-1.898 2,-3 0.672,1.449 1.339,2.782 2,4 3,0 6,0 9,0 0,-1.667 0,-3.333 0,-5 -7.667,-1.333 -15.333,-1.333 -23,0 -0.284,1.915 0.049,3.581 1,5 0.667,0.667 1.333,1.333 2,2 -1,0 -2,0 -3,0 0,5.333 0,10.667 0,16 -0.107,1.879 0.393,2.212 1.5,1 0.494,1.634 0.66,3.301 0.5,5 6.7,0.33 13.366,-0.003 20,-1 -0.124,-0.607 -0.457,-0.94 -1,-1 0,-0.667 0,-1.333 0,-2 1.291,-0.237 2.291,0.096 3,1 0,0.667 0,1.333 0,2 1.4,0.6 2.4,1.6 3,3 -0.333,0 -0.667,0 -1,0 -0.667,3.333 -1.333,6.667 -2,10 0.277,-2.948 -0.056,-5.781 -1,-8.5 -7.333,-0.667 -14.667,-0.667 -22,0 -0.643,2.746 -0.976,5.579 -1,8.5 0.022,3.09 0.688,5.757 2,8 1.762,0.762 2.762,2.096 3,4 0,3.333 0,6.667 0,10 4.863,0.319 9.53,-0.014 14,-1 0.667,0 1.333,0 2,0 6,0 12,0 18,0 0.468,-3.442 -0.698,-6.109 -3.5,-8 -0.667,-3.667 -0.667,-7.333 0,-11 1.011,-0.837 2.178,-1.17 3.5,-1 0,1 0,2 0,3 0.667,3 1.333,6 2,9 1.261,5.639 -0.406,9.972 -5,13 -7.638,-1.331 -15.638,-1.998 -24,-2 -8.362,0.002 -16.362,0.669 -24,2 -0.996,0.086 -1.829,-0.248 -2.5,-1 -1.085,-1.236 -1.918,-2.569 -2.5,-4 0.758,-8.313 1.425,-16.313 2,-24 -0.262,1.478 0.071,2.811 1,4 2.455,1.41 3.455,3.577 3,6.5 -1.799,4.72 -3.132,9.554 -4,14.5 6,0 12,0 18,0 0,-3.667 0,-7.333 0,-11 -4.67,1.085 -7.67,-0.582 -9,-5 -0.167,-18.67 0,-37.336 0.5,-56 0.169,12.174 0.669,24.174 1.5,36 0.311,0.978 0.978,1.645 2,2 1.126,-1.308 1.126,-2.642 0,-4 -0.167,-14.337 0,-28.671 0.5,-43 0.174,4.851 0.674,9.518 1.5,14 7.852,0.325 15.518,-0.008 23,-1 0.667,-6 1.333,-12 2,-18 z"
         id="path278" />
    </g>
    <g
       id="g279"
       style="clip-rule:evenodd;fill-rule:evenodd;image-rendering:optimizeQuality;shape-rendering:geometricPrecision;text-rendering:geometricPrecision"
       transform="matrix(0.26458333,0,0,0.26458333,-30.995295,4.8829838)">
      <path
         style="opacity:1"
         fill="#c9a539"
         d="m 293.5,280.5 c 1.314,2.415 1.981,5.248 2,8.5 -0.333,2.833 -0.667,5.667 -1,8.5 -0.995,-5.628 -1.329,-11.294 -1,-17 z"
         id="path279" />
    </g>
    <g
       id="g280"
       style="clip-rule:evenodd;fill-rule:evenodd;image-rendering:optimizeQuality;shape-rendering:geometricPrecision;text-rendering:geometricPrecision"
       transform="matrix(0.26458333,0,0,0.26458333,-30.995295,4.8829838)">
      <path
         style="opacity:1"
         fill="#e9c851"
         d="m 318.5,274.5 c 0,0.667 0,1.333 0,2 -5.81,0.99 -11.81,1.323 -18,1 0,-1 0,-2 0,-3 6,0 12,0 18,0 z"
         id="path280" />
    </g>
    <g
       id="g281"
       style="clip-rule:evenodd;fill-rule:evenodd;image-rendering:optimizeQuality;shape-rendering:geometricPrecision;text-rendering:geometricPrecision"
       transform="matrix(0.26458333,0,0,0.26458333,-30.995295,4.8829838)">
      <path
         style="opacity:1"
         fill="#b99520"
         d="m 298.5,254.5 c 3,0 6,0 9,0 -1.125,1.152 -1.125,2.152 0,3 -1.97,4.615 -3.97,9.282 -6,14 5,1.333 10,1.333 15,0 -2.199,-3.389 -3.532,-7.056 -4,-11 0,-0.667 0.333,-1 1,-1 2.408,4.487 4.575,9.153 6.5,14 0.499,-5.657 0.666,-11.324 0.5,-17 0.667,1 1.333,2 2,3 0.321,5.526 -0.012,10.86 -1,16 -0.709,-0.904 -1.709,-1.237 -3,-1 -6,0 -12,0 -18,0 0,1 0,2 0,3 6.19,0.323 12.19,-0.01 18,-1 0.543,0.06 0.876,0.393 1,1 -6.634,0.997 -13.3,1.33 -20,1 0.16,-1.699 -0.006,-3.366 -0.5,-5 -1.107,1.212 -1.607,0.879 -1.5,-1 3.024,-4.679 5.691,-9.679 8,-15 -1.545,-0.952 -3.212,-1.285 -5,-1 -0.667,-0.667 -1.333,-1.333 -2,-2 z"
         id="path281" />
    </g>
    <g
       id="g282"
       style="clip-rule:evenodd;fill-rule:evenodd;image-rendering:optimizeQuality;shape-rendering:geometricPrecision;text-rendering:geometricPrecision"
       transform="matrix(0.26458333,0,0,0.26458333,-30.995295,4.8829838)">
      <path
         style="opacity:1"
         fill="#d1aa3a"
         d="m 325.5,277.5 c -1.333,0 -2.667,0 -4,0 0,-0.667 0,-1.333 0,-2 0.988,-5.14 1.321,-10.474 1,-16 -0.332,-9.357 0.002,-18.69 1,-28 0.586,0.209 1.086,0.543 1.5,1 0.5,14.996 0.667,29.996 0.5,45 z"
         id="path282" />
    </g>
    <g
       id="g283"
       style="clip-rule:evenodd;fill-rule:evenodd;image-rendering:optimizeQuality;shape-rendering:geometricPrecision;text-rendering:geometricPrecision"
       transform="matrix(0.26458333,0,0,0.26458333,-30.995295,4.8829838)">
      <path
         style="opacity:1"
         fill="#f0cd50"
         d="m 320.5,256.5 c 0.166,5.676 -10e-4,11.343 -0.5,17 -1.925,-4.847 -4.092,-9.513 -6.5,-14 -0.304,-0.65 -0.637,-1.317 -1,-2 2.586,-0.98 5.253,-1.313 8,-1 z"
         id="path283" />
    </g>
    <g
       id="g284"
       style="clip-rule:evenodd;fill-rule:evenodd;image-rendering:optimizeQuality;shape-rendering:geometricPrecision;text-rendering:geometricPrecision"
       transform="matrix(0.26458333,0,0,0.26458333,-30.995295,4.8829838)">
      <path
         style="opacity:1"
         fill="#efcd4c"
         d="m 312.5,260.5 c 0.468,3.944 1.801,7.611 4,11 -5,1.333 -10,1.333 -15,0 2.03,-4.718 4.03,-9.385 6,-14 0.235,-0.597 0.735,-0.93 1.5,-1 1.412,1.186 2.579,2.519 3.5,4 z"
         id="path284" />
    </g>
    <g
       id="g285"
       style="clip-rule:evenodd;fill-rule:evenodd;image-rendering:optimizeQuality;shape-rendering:geometricPrecision;text-rendering:geometricPrecision"
       transform="matrix(0.26458333,0,0,0.26458333,-30.995295,4.8829838)">
      <path
         style="opacity:1"
         fill="#f0ce4c"
         d="m 300.5,256.5 c 1.788,-0.285 3.455,0.048 5,1 -2.309,5.321 -4.976,10.321 -8,15 0,-5.333 0,-10.667 0,-16 1,0 2,0 3,0 z"
         id="path285" />
    </g>
    <g
       id="g286"
       style="clip-rule:evenodd;fill-rule:evenodd;image-rendering:optimizeQuality;shape-rendering:geometricPrecision;text-rendering:geometricPrecision"
       transform="matrix(0.26458333,0,0,0.26458333,-30.995295,4.8829838)">
      <path
         style="opacity:1"
         fill="#edc74c"
         d="m 320.5,249.5 c 0,1.667 0,3.333 0,5 -3,0 -6,0 -9,0 0,-1.667 0,-3.333 0,-5 3,0 6,0 9,0 z"
         id="path286" />
    </g>
    <g
       id="g287"
       style="clip-rule:evenodd;fill-rule:evenodd;image-rendering:optimizeQuality;shape-rendering:geometricPrecision;text-rendering:geometricPrecision"
       transform="matrix(0.26458333,0,0,0.26458333,-30.995295,4.8829838)">
      <path
         style="opacity:1"
         fill="#ecc74c"
         d="m 297.5,249.5 c 3.333,0 6.667,0 10,0 0,1.333 0,2.667 0,4 0,0.333 0,0.667 0,1 -3,0 -6,0 -9,0 -0.951,-1.419 -1.284,-3.085 -1,-5 z"
         id="path287" />
    </g>
    <g
       id="g288"
       style="clip-rule:evenodd;fill-rule:evenodd;image-rendering:optimizeQuality;shape-rendering:geometricPrecision;text-rendering:geometricPrecision"
       transform="matrix(0.26458333,0,0,0.26458333,-30.995295,4.8829838)">
      <path
         style="opacity:1"
         fill="#caa535"
         d="m 297.5,249.5 c 7.667,-1.333 15.333,-1.333 23,0 -3,0 -6,0 -9,0 0,1.667 0,3.333 0,5 -0.661,-1.218 -1.328,-2.551 -2,-4 -0.676,1.102 -1.342,2.102 -2,3 0,-1.333 0,-2.667 0,-4 -3.333,0 -6.667,0 -10,0 z"
         id="path288" />
    </g>
    <g
       id="g290"
       style="clip-rule:evenodd;fill-rule:evenodd;image-rendering:optimizeQuality;shape-rendering:geometricPrecision;text-rendering:geometricPrecision"
       transform="matrix(0.26458333,0,0,0.26458333,-30.995295,4.8829838)">
      <path
         style="opacity:1"
         fill="#d6b24b"
         d="m 336.5,294.5 c 0.313,2.747 -0.02,5.414 -1,8 -0.333,-1.333 -0.667,-2.667 -1,-4 0.085,-1.833 0.752,-3.166 2,-4 z"
         id="path290" />
    </g>
    <g
       id="g300"
       style="clip-rule:evenodd;fill-rule:evenodd;image-rendering:optimizeQuality;shape-rendering:geometricPrecision;text-rendering:geometricPrecision"
       transform="matrix(0.26458333,0,0,0.26458333,-30.995295,4.8829838)">
      <path
         style="opacity:1"
         fill="#d1ae3a"
         d="m 316.5,300.5 c 0,3.667 0,7.333 0,11 -4.47,0.986 -9.137,1.319 -14,1 0,-3.333 0,-6.667 0,-10 0.977,2.787 1.31,5.787 1,9 4,0 8,0 12,0 -0.315,-3.871 0.018,-7.538 1,-11 z"
         id="path300" />
    </g>
    <g
       id="g304"
       style="clip-rule:evenodd;fill-rule:evenodd;image-rendering:optimizeQuality;shape-rendering:geometricPrecision;text-rendering:geometricPrecision"
       transform="matrix(0.26458333,0,0,0.26458333,-30.995295,4.8829838)">
      <path
         style="opacity:1"
         fill="#cfab46"
         d="m 333.5,316.5 c -15.825,0.996 -31.825,1.33 -48,1 0,-0.333 0,-0.667 0,-1 7.638,-1.331 15.638,-1.998 24,-2 8.362,0.002 16.362,0.669 24,2 z"
         id="path304" />
    </g>
    <g
       id="g311"
       style="clip-rule:evenodd;fill-rule:evenodd;image-rendering:optimizeQuality;shape-rendering:geometricPrecision;text-rendering:geometricPrecision"
       transform="matrix(0.26458333,0,0,0.26458333,-30.995295,4.8829838)">
      <path
         style="opacity:1"
         fill="#f9f9e6"
         d="m 276.5,196.5 c -0.139,39.509 0.528,78.843 2,118 2.679,2.085 5.345,4.085 8,6 15.491,0.996 31.158,1.33 47,1 -4.065,0.693 -8.232,1.36 -12.5,2 -10.387,-0.674 -21.054,-0.674 -32,0 -2.069,-0.764 -4.236,-1.264 -6.5,-1.5 -1.097,-2.765 -3.097,-4.431 -6,-5 -1.655,-2.247 -1.988,-4.58 -1,-7 -0.667,-7.333 -1.333,-14.667 -2,-22 0.609,-8.718 0.942,-17.218 1,-25.5 0.667,-22 1.333,-44 2,-66 z"
         id="path311" />
    </g>
  </g>
</svg>
