<?xml version="1.0" encoding="UTF-8" standalone="no"?>
<!-- Created with Inkscape (http://www.inkscape.org/) -->

<svg
   width="96mm"
   height="96mm"
   viewBox="0 0 96 96"
   version="1.1"
   id="svg1"
   inkscape:version="1.4.2 (ebf0e940, 2025-05-08)"
   sodipodi:docname="van.svg"
   xmlns:inkscape="http://www.inkscape.org/namespaces/inkscape"
   xmlns:sodipodi="http://sodipodi.sourceforge.net/DTD/sodipodi-0.dtd"
   xmlns="http://www.w3.org/2000/svg"
   xmlns:svg="http://www.w3.org/2000/svg">
  <sodipodi:namedview
     id="namedview1"
     pagecolor="#ffffff"
     bordercolor="#000000"
     borderopacity="0.25"
     inkscape:showpageshadow="2"
     inkscape:pageopacity="0.0"
     inkscape:pagecheckerboard="0"
     inkscape:deskcolor="#d1d1d1"
     inkscape:document-units="mm"
     inkscape:zoom="0.80444024"
     inkscape:cx="397.17059"
     inkscape:cy="262.91574"
     inkscape:window-width="1920"
     inkscape:window-height="1052"
     inkscape:window-x="0"
     inkscape:window-y="28"
     inkscape:window-maximized="0"
     inkscape:current-layer="layer1" />
  <defs
     id="defs1" />
  <g
     inkscape:label="Layer 1"
     inkscape:groupmode="layer"
     id="layer1">
    <g
       id="g375"
       style="clip-rule:evenodd;fill-rule:evenodd;image-rendering:optimizeQuality;shape-rendering:geometricPrecision;text-rendering:geometricPrecision"
       transform="matrix(0.28149185,0,0,0.28149185,-102.74128,-108.77791)">
      <path
         style="opacity:1"
         fill="#faf9e8"
         d="m 575.5,429.5 c -1.935,-0.65 -3.935,-0.983 -6,-1 -0.709,-0.904 -1.709,-1.237 -3,-1 -1.974,-1.406 -3.974,-2.906 -6,-4.5 -2.982,-0.498 -5.982,-0.665 -9,-0.5 -5.919,-1.545 -12.086,-2.211 -18.5,-2 -4.68,10e-4 -9.18,0.334 -13.5,1 -1.333,0 -2.667,0 -4,0 -5.678,0.585 -11.345,1.251 -17,2 0.418,-0.722 1.084,-1.222 2,-1.5 20.85,-5.103 41.85,-5.103 63,0 4.921,1.28 8.921,3.78 12,7.5 z"
         id="path375" />
    </g>
    <g
       id="g377"
       style="clip-rule:evenodd;fill-rule:evenodd;image-rendering:optimizeQuality;shape-rendering:geometricPrecision;text-rendering:geometricPrecision"
       transform="matrix(0.28149185,0,0,0.28149185,-102.74128,-108.77791)">
      <path
         style="opacity:1"
         fill="#faf5bf"
         d="m 519.5,421.5 c 4.32,-0.666 8.82,-0.999 13.5,-1 6.414,-0.211 12.581,0.455 18.5,2 -2,0 -4,0 -6,0 -8.484,-0.993 -17.151,-1.326 -26,-1 z"
         id="path377" />
    </g>
    <g
       id="g379"
       style="clip-rule:evenodd;fill-rule:evenodd;image-rendering:optimizeQuality;shape-rendering:geometricPrecision;text-rendering:geometricPrecision"
       transform="matrix(0.28149185,0,0,0.28149185,-102.74128,-108.77791)">
      <path
         style="opacity:1"
         fill="#f0df8b"
         d="m 515.5,421.5 c 1.333,0 2.667,0 4,0 8.849,-0.326 17.516,0.007 26,1 -11.031,-0.24 -22.031,0.093 -33,1 1,-0.667 2,-1.333 3,-2 z"
         id="path379" />
    </g>
    <g
       id="g380"
       style="clip-rule:evenodd;fill-rule:evenodd;image-rendering:optimizeQuality;shape-rendering:geometricPrecision;text-rendering:geometricPrecision"
       transform="matrix(0.28149185,0,0,0.28149185,-102.74128,-108.77791)">
      <path
         style="opacity:1"
         fill="#faf6ca"
         d="m 515.5,421.5 c -1,0.667 -2,1.333 -3,2 -10.05,0.873 -19.05,4.206 -27,10 0.057,-1.109 0.39,-2.109 1,-3 4.005,-2.334 8.005,-4.667 12,-7 5.655,-0.749 11.322,-1.415 17,-2 z"
         id="path380" />
    </g>
    <g
       id="g381"
       style="clip-rule:evenodd;fill-rule:evenodd;image-rendering:optimizeQuality;shape-rendering:geometricPrecision;text-rendering:geometricPrecision"
       transform="matrix(0.28149185,0,0,0.28149185,-102.74128,-108.77791)">
      <path
         style="opacity:1"
         fill="#f5eba9"
         d="m 551.5,422.5 c 3.018,-0.165 6.018,0.002 9,0.5 2.026,1.594 4.026,3.094 6,4.5 -5.175,-1.503 -10.175,-3.169 -15,-5 z"
         id="path381" />
    </g>
    <g
       id="g382"
       style="clip-rule:evenodd;fill-rule:evenodd;image-rendering:optimizeQuality;shape-rendering:geometricPrecision;text-rendering:geometricPrecision"
       transform="matrix(0.28149185,0,0,0.28149185,-102.74128,-108.77791)">
      <path
         style="opacity:1"
         fill="#e5c650"
         d="m 545.5,422.5 c 2,0 4,0 6,0 4.825,1.831 9.825,3.497 15,5 1.291,-0.237 2.291,0.096 3,1 2.748,2.101 5.748,3.934 9,5.5 1.66,1.488 2.66,3.321 3,5.5 0.504,4.007 0.67,8.007 0.5,12 -1.11,-1.537 -2.61,-2.203 -4.5,-2 -3.824,-1.115 -7.49,-2.781 -11,-5 -3.39,-4.058 -6.39,-8.391 -9,-13 -0.194,-2.412 -1.527,-3.412 -4,-3 -9.935,-2.788 -20.269,-3.621 -31,-2.5 -3.297,0.204 -6.297,1.037 -9,2.5 -4.246,-0.739 -6.913,0.927 -8,5 -2.164,2.322 -3.831,4.989 -5,8 -3.294,1.658 -6.294,3.824 -9,6.5 -1.973,0.495 -3.973,0.662 -6,0.5 -0.996,-0.086 -1.829,0.248 -2.5,1 -0.731,-4.484 -0.231,-8.818 1.5,-13 0.057,-1.109 0.39,-2.109 1,-3 7.95,-5.794 16.95,-9.127 27,-10 10.969,-0.907 21.969,-1.24 33,-1 z"
         id="path382" />
    </g>
    <g
       id="g386"
       style="clip-rule:evenodd;fill-rule:evenodd;image-rendering:optimizeQuality;shape-rendering:geometricPrecision;text-rendering:geometricPrecision"
       transform="matrix(0.28149185,0,0,0.28149185,-102.74128,-108.77791)">
      <path
         style="opacity:1"
         fill="#f6e182"
         d="m 553.5,428.5 c -13.333,0 -26.667,0 -40,0 2.703,-1.463 5.703,-2.296 9,-2.5 10.731,-1.121 21.065,-0.288 31,2.5 z"
         id="path386" />
    </g>
    <g
       id="g387"
       style="clip-rule:evenodd;fill-rule:evenodd;image-rendering:optimizeQuality;shape-rendering:geometricPrecision;text-rendering:geometricPrecision"
       transform="matrix(0.28149185,0,0,0.28149185,-102.74128,-108.77791)">
      <path
         style="opacity:1"
         fill="#f1e39d"
         d="m 513.5,428.5 c 13.333,0 26.667,0 40,0 2.473,-0.412 3.806,0.588 4,3 -15.577,-2.169 -31.244,-2.502 -47,-1 -1.911,0.575 -3.578,1.575 -5,3 1.087,-4.073 3.754,-5.739 8,-5 z"
         id="path387" />
    </g>
    <g
       id="g388"
       style="clip-rule:evenodd;fill-rule:evenodd;image-rendering:optimizeQuality;shape-rendering:geometricPrecision;text-rendering:geometricPrecision"
       transform="matrix(0.28149185,0,0,0.28149185,-102.74128,-108.77791)">
      <path
         style="opacity:1"
         fill="#f4eebf"
         d="m 557.5,431.5 c 2.61,4.609 5.61,8.942 9,13 -5.675,-2 -9.008,-6 -10,-12 -15.458,-1.892 -30.791,-2.559 -46,-2 15.756,-1.502 31.423,-1.169 47,1 z"
         id="path388" />
    </g>
    <g
       id="g392"
       style="clip-rule:evenodd;fill-rule:evenodd;image-rendering:optimizeQuality;shape-rendering:geometricPrecision;text-rendering:geometricPrecision"
       transform="matrix(0.28149185,0,0,0.28149185,-102.74128,-108.77791)">
      <path
         style="opacity:1"
         fill="#f9e27d"
         d="m 501.5,429.5 c 0.876,-0.131 1.543,0.202 2,1 -2.445,4.937 -5.778,9.104 -10,12.5 -1.973,0.495 -3.973,0.662 -6,0.5 -0.16,-1.699 0.006,-3.366 0.5,-5 3.882,-4.071 8.382,-7.071 13.5,-9 z"
         id="path392" />
    </g>
    <g
       id="g393"
       style="clip-rule:evenodd;fill-rule:evenodd;image-rendering:optimizeQuality;shape-rendering:geometricPrecision;text-rendering:geometricPrecision"
       transform="matrix(0.28149185,0,0,0.28149185,-102.74128,-108.77791)">
      <path
         style="opacity:1"
         fill="#f8e187"
         d="m 559.5,431.5 c 6.012,-0.962 11.179,1.038 15.5,6 0.494,1.634 0.66,3.301 0.5,5 -2.104,0.299 -4.104,-0.034 -6,-1 -3.736,-3.069 -7.069,-6.403 -10,-10 z"
         id="path393" />
    </g>
    <g
       id="g395"
       style="clip-rule:evenodd;fill-rule:evenodd;image-rendering:optimizeQuality;shape-rendering:geometricPrecision;text-rendering:geometricPrecision"
       transform="matrix(0.28149185,0,0,0.28149185,-102.74128,-108.77791)">
      <path
         style="opacity:1"
         fill="#faf9e5"
         d="m 486.5,430.5 c -0.61,0.891 -0.943,1.891 -1,3 -2.285,1.457 -4.118,3.457 -5.5,6 -0.994,4.618 -1.494,9.285 -1.5,14 0,0.333 0,0.667 0,1 -0.828,6.487 -1.328,13.154 -1.5,20 -0.589,2.363 -2.089,3.363 -4.5,3 0.969,-0.809 1.802,-1.809 2.5,-3 1.606,-8.434 1.773,-16.6 0.5,-24.5 0.077,-7.795 3.077,-14.128 9,-19 0.594,-0.464 1.261,-0.631 2,-0.5 z"
         id="path395" />
    </g>
    <g
       id="g397"
       style="clip-rule:evenodd;fill-rule:evenodd;image-rendering:optimizeQuality;shape-rendering:geometricPrecision;text-rendering:geometricPrecision"
       transform="matrix(0.28149185,0,0,0.28149185,-102.74128,-108.77791)">
      <path
         style="opacity:1"
         fill="#faf4bb"
         d="m 485.5,433.5 c -0.61,0.891 -0.943,1.891 -1,3 -0.958,0.453 -1.792,1.119 -2.5,2 -1.18,5.126 -2.346,10.126 -3.5,15 0.006,-4.715 0.506,-9.382 1.5,-14 1.382,-2.543 3.215,-4.543 5.5,-6 z"
         id="path397" />
    </g>
    <g
       id="g398"
       style="clip-rule:evenodd;fill-rule:evenodd;image-rendering:optimizeQuality;shape-rendering:geometricPrecision;text-rendering:geometricPrecision"
       transform="matrix(0.28149185,0,0,0.28149185,-102.74128,-108.77791)">
      <path
         style="opacity:1"
         fill="#f8f1c1"
         d="m 569.5,428.5 c 2.065,0.017 4.065,0.35 6,1 2.695,0.433 4.862,1.766 6.5,4 1.78,3.781 2.947,7.781 3.5,12 0,2.667 0,5.333 0,8 -0.968,-4.894 -2.302,-9.561 -4,-14 -0.34,-2.179 -1.34,-4.012 -3,-5.5 -3.252,-1.566 -6.252,-3.399 -9,-5.5 z"
         id="path398" />
    </g>
    <g
       id="g407"
       style="clip-rule:evenodd;fill-rule:evenodd;image-rendering:optimizeQuality;shape-rendering:geometricPrecision;text-rendering:geometricPrecision"
       transform="matrix(0.28149185,0,0,0.28149185,-102.74128,-108.77791)">
      <path
         style="opacity:1"
         fill="#f9f8db"
         d="m 580.5,477.5 c -0.057,1.109 -0.39,2.109 -1,3 -0.617,0.111 -1.117,0.444 -1.5,1 -0.179,-3.525 -0.679,-6.859 -1.5,-10 -1.214,-6.656 -1.214,-13.323 0,-20 2.381,1.598 3.548,3.932 3.5,7 0.5,6.325 0.666,12.658 0.5,19 z"
         id="path407" />
    </g>
    <g
       id="g421"
       style="clip-rule:evenodd;fill-rule:evenodd;image-rendering:optimizeQuality;shape-rendering:geometricPrecision;text-rendering:geometricPrecision"
       transform="matrix(0.28149185,0,0,0.28149185,-102.74128,-108.77791)">
      <path
         style="opacity:1"
         fill="#faf9e5"
         d="m 510.5,430.5 c 15.209,-0.559 30.542,0.108 46,2 0.992,6 4.325,10 10,12 1.668,1.84 3.168,3.84 4.5,6 0.193,5.25 0.693,10.417 1.5,15.5 -1.941,0.743 -3.774,0.576 -5.5,-0.5 -0.333,-2.333 -0.667,-4.667 -1,-7 -0.383,-0.556 -0.883,-0.889 -1.5,-1 -3.198,-1.287 -6.531,-1.953 -10,-2 -0.418,-0.722 -1.084,-1.222 -2,-1.5 -3,-0.667 -6,-0.667 -9,0 -1.307,1.943 -1.307,3.777 0,5.5 -6.924,1.963 -14.257,2.63 -22,2 0.277,-2.948 -0.056,-5.781 -1,-8.5 -5.739,-0.942 -11.073,-0.109 -16,2.5 -1.495,0.489 -2.829,1.155 -4,2 -2.584,0.548 -3.584,2.215 -3,5 0.06,3.985 -1.94,5.652 -6,5 -0.655,-6.956 0.178,-13.623 2.5,-20 2.664,-1.498 4.83,-3.498 6.5,-6 1.169,-3.011 2.836,-5.678 5,-8 1.422,-1.425 3.089,-2.425 5,-3 z"
         id="path421" />
    </g>
    <g
       id="g422"
       style="clip-rule:evenodd;fill-rule:evenodd;image-rendering:optimizeQuality;shape-rendering:geometricPrecision;text-rendering:geometricPrecision"
       transform="matrix(0.28149185,0,0,0.28149185,-102.74128,-108.77791)">
      <path
         style="opacity:1"
         fill="#faf9f9"
         d="m 527.5,432.5 c 8.047,-0.345 15.88,0.655 23.5,3 1,-0.333 2,-0.667 3,-1 3.053,5.72 7.386,10.053 13,13 4.372,8.448 2.872,10.281 -4.5,5.5 -7.369,-1.784 -14.702,-1.784 -22,0 -0.455,2.312 -1.455,4.312 -3,6 -4.333,0.667 -8.667,0.667 -13,0 -0.707,-2.52 -1.54,-5.02 -2.5,-7.5 -4.911,-1.427 -9.744,-1.094 -14.5,1 -0.667,-0.333 -1.333,-0.667 -2,-1 -3.277,1.554 -6.444,3.221 -9.5,5 -1.801,-1.638 -1.968,-3.472 -0.5,-5.5 2.809,-3.121 4.976,-6.621 6.5,-10.5 1.356,-0.88 2.856,-1.214 4.5,-1 -0.117,-1.984 0.55,-3.65 2,-5 6.488,-0.667 12.821,-1.333 19,-2 z"
         id="path422" />
    </g>
    <g
       id="g424"
       style="clip-rule:evenodd;fill-rule:evenodd;image-rendering:optimizeQuality;shape-rendering:geometricPrecision;text-rendering:geometricPrecision"
       transform="matrix(0.28149185,0,0,0.28149185,-102.74128,-108.77791)">
      <path
         style="opacity:1"
         fill="#f6eeb2"
         d="m 500.5,441.5 c -1.67,2.502 -3.836,4.502 -6.5,6 -2.322,6.377 -3.155,13.044 -2.5,20 4.06,0.652 6.06,-1.015 6,-5 5.922,-0.264 11.589,-1.264 17,-3 2,0 4,0 6,0 0,-1.667 0,-3.333 0,-5 -5.37,-0.108 -10.703,0.225 -16,1 4.927,-2.609 10.261,-3.442 16,-2.5 0.944,2.719 1.277,5.552 1,8.5 7.743,0.63 15.076,-0.037 22,-2 5.423,0.024 10.757,0.69 16,2 1.765,0.961 3.765,1.295 6,1 -0.129,-1.716 -0.462,-3.383 -1,-5 0.617,0.111 1.117,0.444 1.5,1 0.333,2.333 0.667,4.667 1,7 1.726,1.076 3.559,1.243 5.5,0.5 -0.807,-5.083 -1.307,-10.25 -1.5,-15.5 -1.332,-2.16 -2.832,-4.16 -4.5,-6 3.51,2.219 7.176,3.885 11,5 1.188,0.864 2.355,1.864 3.5,3 0.823,8.51 0.657,16.844 -0.5,25 0.166,-6.342 0,-12.675 -0.5,-19 0.048,-3.068 -1.119,-5.402 -3.5,-7 -1.214,6.677 -1.214,13.344 0,20 -2.333,-0.667 -4.667,-1.333 -7,-2 -3.606,-2.293 -7.606,-3.793 -12,-4.5 -15.923,-2.997 -31.923,-3.33 -48,-1 -4.43,1.05 -8.763,2.383 -13,4 -2.379,0.716 -4.379,1.883 -6,3.5 -1.25,0.077 -2.083,0.744 -2.5,2 -0.497,2.31 -0.663,4.643 -0.5,7 0.423,2.281 -0.244,3.948 -2,5 -3.783,-12.406 -3.783,-24.74 0,-37 2.027,0.162 4.027,-0.005 6,-0.5 2.706,-2.676 5.706,-4.842 9,-6.5 z"
         id="path424" />
    </g>
    <g
       id="g425"
       style="clip-rule:evenodd;fill-rule:evenodd;image-rendering:optimizeQuality;shape-rendering:geometricPrecision;text-rendering:geometricPrecision"
       transform="matrix(0.28149185,0,0,0.28149185,-102.74128,-108.77791)">
      <path
         style="opacity:1"
         fill="#e2c761"
         d="m 500.5,457.5 c -1.126,1.358 -1.126,2.692 0,4 4.52,-1.614 9.187,-2.28 14,-2 -5.411,1.736 -11.078,2.736 -17,3 -0.584,-2.785 0.416,-4.452 3,-5 z"
         id="path425" />
    </g>
    <g
       id="g426"
       style="clip-rule:evenodd;fill-rule:evenodd;image-rendering:optimizeQuality;shape-rendering:geometricPrecision;text-rendering:geometricPrecision"
       transform="matrix(0.28149185,0,0,0.28149185,-102.74128,-108.77791)">
      <path
         style="opacity:1"
         fill="#e6cf6d"
         d="m 554.5,455.5 c -3.307,-0.551 -6.64,-0.884 -10,-1 0,1.333 0,2.667 0,4 5.394,-0.376 10.394,0.624 15,3 -5.243,-1.31 -10.577,-1.976 -16,-2 -1.307,-1.723 -1.307,-3.557 0,-5.5 3,-0.667 6,-0.667 9,0 0.916,0.278 1.582,0.778 2,1.5 z"
         id="path426" />
    </g>
    <g
       id="g427"
       style="clip-rule:evenodd;fill-rule:evenodd;image-rendering:optimizeQuality;shape-rendering:geometricPrecision;text-rendering:geometricPrecision"
       transform="matrix(0.28149185,0,0,0.28149185,-102.74128,-108.77791)">
      <path
         style="opacity:1"
         fill="#e8c544"
         d="m 554.5,455.5 c 3.469,0.047 6.802,0.713 10,2 0.538,1.617 0.871,3.284 1,5 -2.235,0.295 -4.235,-0.039 -6,-1 -4.606,-2.376 -9.606,-3.376 -15,-3 0,-1.333 0,-2.667 0,-4 3.36,0.116 6.693,0.449 10,1 z"
         id="path427" />
    </g>
    <g
       id="g428"
       style="clip-rule:evenodd;fill-rule:evenodd;image-rendering:optimizeQuality;shape-rendering:geometricPrecision;text-rendering:geometricPrecision"
       transform="matrix(0.28149185,0,0,0.28149185,-102.74128,-108.77791)">
      <path
         style="opacity:1"
         fill="#e7c443"
         d="m 514.5,459.5 c -4.813,-0.28 -9.48,0.386 -14,2 -1.126,-1.308 -1.126,-2.642 0,-4 6.03,-0.456 12.03,-1.123 18,-2 0,1 0,2 0,3 -1.599,-0.268 -2.932,0.066 -4,1 z"
         id="path428" />
    </g>
    <g
       id="g429"
       style="clip-rule:evenodd;fill-rule:evenodd;image-rendering:optimizeQuality;shape-rendering:geometricPrecision;text-rendering:geometricPrecision"
       transform="matrix(0.28149185,0,0,0.28149185,-102.74128,-108.77791)">
      <path
         style="opacity:1"
         fill="#e5ca65"
         d="m 514.5,459.5 c 1.068,-0.934 2.401,-1.268 4,-1 0,-1 0,-2 0,-3 -5.97,0.877 -11.97,1.544 -18,2 1.171,-0.845 2.505,-1.511 4,-2 5.297,-0.775 10.63,-1.108 16,-1 0,1.667 0,3.333 0,5 -2,0 -4,0 -6,0 z"
         id="path429" />
    </g>
    <g
       id="g430"
       style="clip-rule:evenodd;fill-rule:evenodd;image-rendering:optimizeQuality;shape-rendering:geometricPrecision;text-rendering:geometricPrecision"
       transform="matrix(0.28149185,0,0,0.28149185,-102.74128,-108.77791)">
      <path
         style="opacity:1"
         fill="#e6c957"
         d="m 569.5,469.5 c -19.99,-5.641 -40.324,-6.474 -61,-2.5 -5.789,2.398 -11.789,3.898 -18,4.5 1.621,-1.617 3.621,-2.784 6,-3.5 4.237,-1.617 8.57,-2.95 13,-4 16.077,-2.33 32.077,-1.997 48,1 4.394,0.707 8.394,2.207 12,4.5 z"
         id="path430" />
    </g>
    <g
       id="g431"
       style="clip-rule:evenodd;fill-rule:evenodd;image-rendering:optimizeQuality;shape-rendering:geometricPrecision;text-rendering:geometricPrecision"
       transform="matrix(0.28149185,0,0,0.28149185,-102.74128,-108.77791)">
      <path
         style="opacity:1"
         fill="#f2c72b"
         d="m 569.5,469.5 c 0.901,2.227 2.567,3.227 5,3 0.165,3.35 -0.002,6.683 -0.5,10 -2.235,6.395 -4.402,12.728 -6.5,19 -5.503,-0.04 -10.836,-0.874 -16,-2.5 -10.508,-0.825 -20.842,-0.659 -31,0.5 -0.667,0 -1.333,0 -2,0 -7.328,1.168 -14.662,2.001 -22,2.5 -3.506,-9.86 -5.506,-20.027 -6,-30.5 6.211,-0.602 12.211,-2.102 18,-4.5 20.676,-3.974 41.01,-3.141 61,2.5 z"
         id="path431" />
    </g>
    <g
       id="g432"
       style="clip-rule:evenodd;fill-rule:evenodd;image-rendering:optimizeQuality;shape-rendering:geometricPrecision;text-rendering:geometricPrecision"
       transform="matrix(0.28149185,0,0,0.28149185,-102.74128,-108.77791)">
      <path
         style="opacity:1"
         fill="#e4c75f"
         d="m 484.5,436.5 c -1.731,4.182 -2.231,8.516 -1.5,13 0.671,-0.752 1.504,-1.086 2.5,-1 -3.783,12.26 -3.783,24.594 0,37 0.801,1.542 1.134,3.208 1,5 -3.168,-3.92 -6.502,-3.92 -10,0 1.112,0.765 1.779,1.765 2,3 -0.333,0 -0.667,0 -1,0 -2.538,0.007 -5.038,0.341 -7.5,1 -1.833,-0.019 -3.333,-0.685 -4.5,-2 0.296,-8.136 4.463,-13.136 12.5,-15 0.5,-7.659 0.666,-15.326 0.5,-23 0,-0.333 0,-0.667 0,-1 1.154,-4.874 2.32,-9.874 3.5,-15 0.708,-0.881 1.542,-1.547 2.5,-2 z"
         id="path432" />
    </g>
    <g
       id="g433"
       style="clip-rule:evenodd;fill-rule:evenodd;image-rendering:optimizeQuality;shape-rendering:geometricPrecision;text-rendering:geometricPrecision"
       transform="matrix(0.28149185,0,0,0.28149185,-102.74128,-108.77791)">
      <path
         style="opacity:1"
         fill="#e6cd6b"
         d="m 581.5,439.5 c 1.698,4.439 3.032,9.106 4,14 0,1.333 0,2.667 0,4 0.454,6.659 0.787,13.326 1,20 -1.702,-6.97 -2.869,-14.303 -3.5,-22 -0.832,8.353 -0.665,16.687 0.5,25 2.235,1.252 4.569,1.752 7,1.5 -1.256,-0.417 -1.923,-1.25 -2,-2.5 1,0 2,0 3,0 2.271,1.766 4.437,3.766 6.5,6 0.796,2.539 0.629,4.872 -0.5,7 0.269,-1.929 -0.231,-3.595 -1.5,-5 -1.126,1.444 -2.626,2.11 -4.5,2 -3.723,-0.797 -7.39,-1.797 -11,-3 -1.235,0.84 -2.235,1.84 -3,3 0.256,-3.098 0.922,-6.098 2,-9 0.61,-0.891 0.943,-1.891 1,-3 1.157,-8.156 1.323,-16.49 0.5,-25 -1.145,-1.136 -2.312,-2.136 -3.5,-3 1.89,-0.203 3.39,0.463 4.5,2 0.17,-3.993 0.004,-7.993 -0.5,-12 z"
         id="path433" />
    </g>
    <g
       id="g435"
       style="clip-rule:evenodd;fill-rule:evenodd;image-rendering:optimizeQuality;shape-rendering:geometricPrecision;text-rendering:geometricPrecision"
       transform="matrix(0.28149185,0,0,0.28149185,-102.74128,-108.77791)">
      <path
         style="opacity:1"
         fill="#faf9e0"
         d="m 486.5,451.5 c 1.312,2.243 1.978,4.91 2,8 0.392,6.096 -0.941,11.763 -4,17 -1.371,-8.514 -0.704,-16.847 2,-25 z"
         id="path435" />
    </g>
    <g
       id="g436"
       style="clip-rule:evenodd;fill-rule:evenodd;image-rendering:optimizeQuality;shape-rendering:geometricPrecision;text-rendering:geometricPrecision"
       transform="matrix(0.28149185,0,0,0.28149185,-102.74128,-108.77791)">
      <path
         style="opacity:1"
         fill="#f9efb5"
         d="m 585.5,457.5 c 1.433,6.111 2.266,12.444 2.5,19 1.518,0.663 2.685,1.663 3.5,3 -1,0 -2,0 -3,0 -1,-0.333 -1.667,-1 -2,-2 -0.213,-6.674 -0.546,-13.341 -1,-20 z"
         id="path436" />
    </g>
    <g
       id="g437"
       style="clip-rule:evenodd;fill-rule:evenodd;image-rendering:optimizeQuality;shape-rendering:geometricPrecision;text-rendering:geometricPrecision"
       transform="matrix(0.28149185,0,0,0.28149185,-102.74128,-108.77791)">
      <path
         style="opacity:1"
         fill="#e2bf49"
         d="m 586.5,477.5 c 0.333,1 1,1.667 2,2 0.077,1.25 0.744,2.083 2,2.5 -2.431,0.252 -4.765,-0.248 -7,-1.5 -1.165,-8.313 -1.332,-16.647 -0.5,-25 0.631,7.697 1.798,15.03 3.5,22 z"
         id="path437" />
    </g>
    <g
       id="g439"
       style="clip-rule:evenodd;fill-rule:evenodd;image-rendering:optimizeQuality;shape-rendering:geometricPrecision;text-rendering:geometricPrecision"
       transform="matrix(0.28149185,0,0,0.28149185,-102.74128,-108.77791)">
      <path
         style="opacity:1"
         fill="#e6c64a"
         d="m 490.5,471.5 c 0.494,10.473 2.494,20.64 6,30.5 7.338,-0.499 14.672,-1.332 22,-2.5 -8.022,2.503 -16.355,3.836 -25,4 0.268,-1.599 -0.066,-2.932 -1,-4 -1.047,-6.602 -2.714,-12.935 -5,-19 -0.163,-2.357 0.003,-4.69 0.5,-7 0.417,-1.256 1.25,-1.923 2.5,-2 z"
         id="path439" />
    </g>
    <g
       id="g442"
       style="clip-rule:evenodd;fill-rule:evenodd;image-rendering:optimizeQuality;shape-rendering:geometricPrecision;text-rendering:geometricPrecision"
       transform="matrix(0.28149185,0,0,0.28149185,-102.74128,-108.77791)">
      <path
         style="opacity:1"
         fill="#f9f2ba"
         d="m 478.5,454.5 c 0.166,7.674 0,15.341 -0.5,23 -8.037,1.864 -12.204,6.864 -12.5,15 -1.242,-3.24 -1.076,-6.574 0.5,-10 2.326,-1.566 4.492,-3.232 6.5,-5 2.411,0.363 3.911,-0.637 4.5,-3 0.172,-6.846 0.672,-13.513 1.5,-20 z"
         id="path442" />
    </g>
    <g
       id="g443"
       style="clip-rule:evenodd;fill-rule:evenodd;image-rendering:optimizeQuality;shape-rendering:geometricPrecision;text-rendering:geometricPrecision"
       transform="matrix(0.28149185,0,0,0.28149185,-102.74128,-108.77791)">
      <path
         style="opacity:1"
         fill="#f9f5bc"
         d="m 581.5,483.5 c 2.687,-0.164 5.354,0.003 8,0.5 1.473,0.71 2.14,1.876 2,3.5 -3.068,-0.047 -6.068,-0.547 -9,-1.5 -0.752,-0.671 -1.086,-1.504 -1,-2.5 z"
         id="path443" />
    </g>
    <g
       id="g446"
       style="clip-rule:evenodd;fill-rule:evenodd;image-rendering:optimizeQuality;shape-rendering:geometricPrecision;text-rendering:geometricPrecision"
       transform="matrix(0.28149185,0,0,0.28149185,-102.74128,-108.77791)">
      <path
         style="opacity:1"
         fill="#f9f29d"
         d="m 475.5,483.5 c 2,0 4,0 6,0 0,1 0,2 0,3 -3.748,0.707 -7.414,1.707 -11,3 0.249,-3.244 1.916,-5.244 5,-6 z"
         id="path446" />
    </g>
    <g
       id="g453"
       style="clip-rule:evenodd;fill-rule:evenodd;image-rendering:optimizeQuality;shape-rendering:geometricPrecision;text-rendering:geometricPrecision"
       transform="matrix(0.28149185,0,0,0.28149185,-102.74128,-108.77791)">
      <path
         style="opacity:1"
         fill="#f2c830"
         d="m 490.5,515.5 c 0.487,0.973 0.987,1.973 1.5,3 0.5,6.992 0.666,13.992 0.5,21 -2.333,0 -4.667,0 -7,0 -1.068,-0.934 -2.401,-1.268 -4,-1 -1.15,-15.926 -1.317,-31.926 -0.5,-48 1,1.333 2,1.333 3,0 0.607,9.227 2.774,17.561 6.5,25 z"
         id="path453" />
    </g>
    <g
       id="g454"
       style="clip-rule:evenodd;fill-rule:evenodd;image-rendering:optimizeQuality;shape-rendering:geometricPrecision;text-rendering:geometricPrecision"
       transform="matrix(0.28149185,0,0,0.28149185,-102.74128,-108.77791)">
      <path
         style="opacity:1"
         fill="#f2c82c"
         d="m 584.5,494.5 c 0,0.333 0,0.667 0,1 -0.744,2.86 -1.411,5.86 -2,9 0.978,10.948 1.311,21.948 1,33 -3.286,0.429 -6.453,0.429 -9.5,0 0.148,-6.528 -0.019,-12.695 -0.5,-18.5 2.104,-0.489 2.438,-1.655 1,-3.5 1.369,-8.041 2.703,-16.041 4,-24 1.43,0.079 2.764,-0.254 4,-1 0.808,0.308 1.475,0.808 2,1.5 -1.274,0.977 -1.274,1.811 0,2.5 z"
         id="path454" />
    </g>
    <g
       id="g455"
       style="clip-rule:evenodd;fill-rule:evenodd;image-rendering:optimizeQuality;shape-rendering:geometricPrecision;text-rendering:geometricPrecision"
       transform="matrix(0.28149185,0,0,0.28149185,-102.74128,-108.77791)">
      <path
         style="opacity:1"
         fill="#f8ee94"
         d="m 487.5,480.5 c 2.286,6.065 3.953,12.398 5,19 -1.756,1.052 -2.423,2.719 -2,5 -0.529,-4.884 -1.862,-9.551 -4,-14 0.134,-1.792 -0.199,-3.458 -1,-5 1.756,-1.052 2.423,-2.719 2,-5 z"
         id="path455" />
    </g>
    <g
       id="g461"
       style="clip-rule:evenodd;fill-rule:evenodd;image-rendering:optimizeQuality;shape-rendering:geometricPrecision;text-rendering:geometricPrecision"
       transform="matrix(0.28149185,0,0,0.28149185,-102.74128,-108.77791)">
      <path
         style="opacity:1"
         fill="#e5c650"
         d="m 569.5,469.5 c 2.333,0.667 4.667,1.333 7,2 -1.021,9.904 -3.188,19.57 -6.5,29 -0.833,0.833 -1.667,1.667 -2.5,2.5 -8.673,-0.598 -17.34,-1.598 -26,-3 -6.992,-0.5 -13.992,-0.666 -21,-0.5 10.158,-1.159 20.492,-1.325 31,-0.5 5.164,1.626 10.497,2.46 16,2.5 2.098,-6.272 4.265,-12.605 6.5,-19 0.498,-3.317 0.665,-6.65 0.5,-10 -2.433,0.227 -4.099,-0.773 -5,-3 z"
         id="path461" />
    </g>
    <g
       id="g464"
       style="clip-rule:evenodd;fill-rule:evenodd;image-rendering:optimizeQuality;shape-rendering:geometricPrecision;text-rendering:geometricPrecision"
       transform="matrix(0.28149185,0,0,0.28149185,-102.74128,-108.77791)">
      <path
         style="opacity:1"
         fill="#faf9f9"
         d="m 554.5,663.5 c -3,0 -6,0 -9,0 -3.812,-0.824 -7.812,-1.324 -12,-1.5 -0.556,-0.383 -0.889,-0.883 -1,-1.5 -5.091,0.727 -10.424,0.894 -16,0.5 2.928,-1.26 4.761,-3.427 5.5,-6.5 0.667,-38 0.667,-76 0,-114 -2.837,-2.085 -5.837,-2.419 -9,-1 -0.443,39.67 -0.609,78.67 -0.5,117 2.558,1.62 2.558,3.12 0,4.5 -4.484,0.264 -8.818,0.43 -13,0.5 -2.773,-0.153 -4.107,-1.653 -4,-4.5 0.252,-39.817 0.585,-81.984 1,-126.5 -0.095,-5.372 -0.595,-10.706 -1.5,-16 -0.232,-1.237 -0.732,-2.237 -1.5,-3 0,-0.667 0,-1.333 0,-2 -0.086,-0.996 0.248,-1.829 1,-2.5 19.462,-3.7 39.129,-4.367 59,-2 4.696,1.005 9.363,2.172 14,3.5 1.224,2.398 1.058,4.731 -0.5,7 -0.333,7.667 -0.667,15.333 -1,23 -2.86,-0.589 -5.693,-0.089 -8.5,1.5 -1.394,1.739 -2.061,3.739 -2,6 1.299,35.701 1.299,71.368 0,107 0.644,5.326 3.477,6.826 8.5,4.5 0.267,-18.434 1.267,-36.767 3,-55 0.821,12.242 0.654,24.409 -0.5,36.5 0.691,1.067 1.191,2.234 1.5,3.5 0.5,6.658 0.666,13.325 0.5,20 -4.863,-0.319 -9.53,0.014 -14,1 z"
         id="path464" />
    </g>
    <g
       id="g474"
       style="clip-rule:evenodd;fill-rule:evenodd;image-rendering:optimizeQuality;shape-rendering:geometricPrecision;text-rendering:geometricPrecision"
       transform="matrix(0.28149185,0,0,0.28149185,-102.74128,-108.77791)">
      <path
         style="opacity:1"
         fill="#faf9e6"
         d="m 472.5,477.5 c -2.008,1.768 -4.174,3.434 -6.5,5 -1.576,3.426 -1.742,6.76 -0.5,10 -0.086,0.996 0.248,1.829 1,2.5 3.317,0.498 6.65,0.665 10,0.5 -0.332,59.836 10e-4,119.502 1,179 0.44,3.214 2.106,5.547 5,7 0.806,1.228 1.806,2.228 3,3 0,0.333 0,0.667 0,1 -4.649,-1.334 -7.816,-4.334 -9.5,-9 -0.333,-59.667 -0.667,-119.333 -1,-179 -11.564,1.271 -15.231,-3.729 -11,-15 2.313,-2.572 5.146,-4.239 8.5,-5 z"
         id="path474" />
    </g>
    <g
       id="g475"
       style="clip-rule:evenodd;fill-rule:evenodd;image-rendering:optimizeQuality;shape-rendering:geometricPrecision;text-rendering:geometricPrecision"
       transform="matrix(0.28149185,0,0,0.28149185,-102.74128,-108.77791)">
      <path
         style="opacity:1"
         fill="#f9e69a"
         d="m 477.5,493.5 c 0.333,0 0.667,0 1,0 -0.167,60.334 0,120.668 0.5,181 1.193,2.386 2.36,4.72 3.5,7 -2.894,-1.453 -4.56,-3.786 -5,-7 0,-60.333 0,-120.667 0,-181 z"
         id="path475" />
    </g>
    <g
       id="g480"
       style="clip-rule:evenodd;fill-rule:evenodd;image-rendering:optimizeQuality;shape-rendering:geometricPrecision;text-rendering:geometricPrecision"
       transform="matrix(0.28149185,0,0,0.28149185,-102.74128,-108.77791)">
      <path
         style="opacity:1"
         fill="#f9f0ae"
         d="m 576.5,471.5 c 0.821,3.141 1.321,6.475 1.5,10 0.383,-0.556 0.883,-0.889 1.5,-1 -1.078,2.902 -1.744,5.902 -2,9 -3.6,9.634 -5.6,19.634 -6,30 -0.991,6.479 -1.324,13.146 -1,20 -0.992,-7.148 -1.325,-14.481 -1,-22 0.86,-3.934 1.193,-7.934 1,-12 -13.229,-2.204 -26.563,-3.537 -40,-4 -9.558,-0.538 -18.891,0.629 -28,3.5 -3.317,0.498 -6.65,0.665 -10,0.5 -0.268,1.599 0.066,2.932 1,4 0,0.667 0,1.333 0,2 0,1 0,2 0,3 -1.212,-3.28 -2.212,-6.613 -3,-10 -0.423,-2.281 0.244,-3.948 2,-5 0.934,1.068 1.268,2.401 1,4 8.645,-0.164 16.978,-1.497 25,-4 0.667,0 1.333,0 2,0 7.008,-0.166 14.008,0 21,0.5 8.66,1.402 17.327,2.402 26,3 0.833,-0.833 1.667,-1.667 2.5,-2.5 3.312,-9.43 5.479,-19.096 6.5,-29 z"
         id="path480" />
    </g>
    <g
       id="g489"
       style="clip-rule:evenodd;fill-rule:evenodd;image-rendering:optimizeQuality;shape-rendering:geometricPrecision;text-rendering:geometricPrecision"
       transform="matrix(0.28149185,0,0,0.28149185,-102.74128,-108.77791)">
      <path
         style="opacity:1"
         fill="#e9c540"
         d="m 597.5,492.5 c -0.111,0.617 -0.444,1.117 -1,1.5 -1.973,0.495 -3.973,0.662 -6,0.5 -1.419,-0.951 -3.085,-1.284 -5,-1 -0.667,0 -1,0.333 -1,1 -1.274,-0.689 -1.274,-1.523 0,-2.5 -0.525,-0.692 -1.192,-1.192 -2,-1.5 -1.236,0.746 -2.57,1.079 -4,1 -1.297,7.959 -2.631,15.959 -4,24 1.438,1.845 1.104,3.011 -1,3.5 0.481,5.805 0.648,11.972 0.5,18.5 3.047,0.429 6.214,0.429 9.5,0 0.311,-11.052 -0.022,-22.052 -1,-33 0.589,-3.14 1.256,-6.14 2,-9 0,14.667 0,29.333 0,44 -3.517,0.287 -7.184,0.287 -11,0 -1.959,-6.25 -2.626,-12.916 -2,-20 0.4,-10.366 2.4,-20.366 6,-30 0.765,-1.16 1.765,-2.16 3,-3 3.61,1.203 7.277,2.203 11,3 1.874,0.11 3.374,-0.556 4.5,-2 1.269,1.405 1.769,3.071 1.5,5 z"
         id="path489" />
    </g>
    <g
       id="g502"
       style="clip-rule:evenodd;fill-rule:evenodd;image-rendering:optimizeQuality;shape-rendering:geometricPrecision;text-rendering:geometricPrecision"
       transform="matrix(0.28149185,0,0,0.28149185,-102.74128,-108.77791)">
      <path
         style="opacity:1"
         fill="#f8f1c9"
         d="m 569.5,517.5 c -0.325,7.519 0.008,14.852 1,22 0.538,1.617 0.871,3.284 1,5 0,38.333 0,76.667 0,115 0.343,1.983 -0.324,3.317 -2,4 0.167,-33.002 0,-66.002 -0.5,-99 -0.232,-4.055 -0.732,-8.055 -1.5,-12 0.647,-11.795 1.314,-23.462 2,-35 z"
         id="path502" />
    </g>
    <g
       id="g503"
       style="clip-rule:evenodd;fill-rule:evenodd;image-rendering:optimizeQuality;shape-rendering:geometricPrecision;text-rendering:geometricPrecision"
       transform="matrix(0.28149185,0,0,0.28149185,-102.74128,-108.77791)">
      <path
         style="opacity:1"
         fill="#faf9ea"
         d="m 532.5,660.5 c -2.093,-0.558 -3.593,-1.891 -4.5,-4 -0.337,-3.361 -0.837,-6.694 -1.5,-10 0.565,-34.153 0.565,-68.987 0,-104.5 1.5,-1.5 3,-3 4.5,-4.5 1.66,-0.176 3.326,0.491 5,2 0.217,5.053 0.717,10.053 1.5,15 -1.186,26.744 -1.186,53.577 0,80.5 -0.814,6.753 -1.314,13.586 -1.5,20.5 -0.697,2.084 -1.864,3.751 -3.5,5 z"
         id="path503" />
    </g>
    <g
       id="g504"
       style="clip-rule:evenodd;fill-rule:evenodd;image-rendering:optimizeQuality;shape-rendering:geometricPrecision;text-rendering:geometricPrecision"
       transform="matrix(0.28149185,0,0,0.28149185,-102.74128,-108.77791)">
      <path
         style="opacity:1"
         fill="#f9f3c1"
         d="m 533.5,541.5 c -0.996,-0.086 -1.829,0.248 -2.5,1 -0.5,37.665 -0.667,75.332 -0.5,113 0,0.333 0,0.667 0,1 -1.164,-38.164 -1.331,-76.498 -0.5,-115 1.292,-1.291 2.458,-1.291 3.5,0 z"
         id="path504" />
    </g>
    <g
       id="g505"
       style="clip-rule:evenodd;fill-rule:evenodd;image-rendering:optimizeQuality;shape-rendering:geometricPrecision;text-rendering:geometricPrecision"
       transform="matrix(0.28149185,0,0,0.28149185,-102.74128,-108.77791)">
      <path
         style="opacity:1"
         fill="#faf7d0"
         d="m 533.5,541.5 c 0.617,0.111 1.117,0.444 1.5,1 0.667,37.333 0.667,74.667 0,112 -0.835,2.769 -2.335,3.435 -4.5,2 0,-0.333 0,-0.667 0,-1 1,0 2,0 3,0 0,-38 0,-76 0,-114 z"
         id="path505" />
    </g>
    <g
       id="g506"
       style="clip-rule:evenodd;fill-rule:evenodd;image-rendering:optimizeQuality;shape-rendering:geometricPrecision;text-rendering:geometricPrecision"
       transform="matrix(0.28149185,0,0,0.28149185,-102.74128,-108.77791)">
      <path
         style="opacity:1"
         fill="#f5e296"
         d="m 571.5,544.5 c 0.827,5.485 1.327,11.152 1.5,17 1.091,2.218 2.257,4.384 3.5,6.5 -1.591,2.386 -2.591,5.053 -3,8 0.276,2.724 0.276,5.391 0,8 0.667,2 1.333,4 2,6 -2.36,6.044 -2.527,11.877 -0.5,17.5 0.667,1.333 1.333,1.333 2,0 0.54,1.635 0.04,2.968 -1.5,4 0.346,1.196 0.846,1.196 1.5,0 0.309,1.266 0.809,2.433 1.5,3.5 -1,0.667 -2,0.667 -3,0 1.196,-0.654 1.196,-1.154 0,-1.5 -0.904,7.15 -1.238,14.15 -1,21 1.291,1.325 2.624,2.658 4,4 0.67,1.791 1.337,3.458 2,5 0.166,10.006 0,20.006 -0.5,30 -1.174,2.171 -3.007,3.171 -5.5,3 -0.667,-1.333 -1.667,-2.333 -3,-3 -0.333,-0.667 -0.667,-1.333 -1,-2 2.058,1.433 4.392,2.1 7,2 0.209,-4.251 -1.791,-6.917 -6,-8 1.254,-2.143 1.254,-4.143 0,-6 0,-38.333 0,-76.667 0,-115 z"
         id="path506" />
    </g>
    <g
       id="g507"
       style="clip-rule:evenodd;fill-rule:evenodd;image-rendering:optimizeQuality;shape-rendering:geometricPrecision;text-rendering:geometricPrecision"
       transform="matrix(0.28149185,0,0,0.28149185,-102.74128,-108.77791)">
      <path
         style="opacity:1"
         fill="#f9e38d"
         d="m 571.5,519.5 c -0.626,7.084 0.041,13.75 2,20 0.111,0.617 0.444,1.117 1,1.5 1.973,0.495 3.973,0.662 6,0.5 -0.282,9.719 0.051,19.386 1,29 -0.998,24.161 -1.331,48.494 -1,73 -0.663,-1.542 -1.33,-3.209 -2,-5 -1.376,-1.342 -2.709,-2.675 -4,-4 -0.238,-6.85 0.096,-13.85 1,-21 1.196,0.346 1.196,0.846 0,1.5 1,0.667 2,0.667 3,0 -0.691,-1.067 -1.191,-2.234 -1.5,-3.5 -0.654,1.196 -1.154,1.196 -1.5,0 1.54,-1.032 2.04,-2.365 1.5,-4 -0.667,1.333 -1.333,1.333 -2,0 -2.027,-5.623 -1.86,-11.456 0.5,-17.5 -0.667,-2 -1.333,-4 -2,-6 0.276,-2.609 0.276,-5.276 0,-8 0.409,-2.947 1.409,-5.614 3,-8 -1.243,-2.116 -2.409,-4.282 -3.5,-6.5 -0.173,-5.848 -0.673,-11.515 -1.5,-17 -0.129,-1.716 -0.462,-3.383 -1,-5 -0.324,-6.854 0.009,-13.521 1,-20 z"
         id="path507" />
    </g>
    <g
       id="g517"
       style="clip-rule:evenodd;fill-rule:evenodd;image-rendering:optimizeQuality;shape-rendering:geometricPrecision;text-rendering:geometricPrecision"
       transform="matrix(0.28149185,0,0,0.28149185,-102.74128,-108.77791)">
      <path
         style="opacity:1"
         fill="#faf9ed"
         d="m 569.5,517.5 c -0.686,11.538 -1.353,23.205 -2,35 0.768,3.945 1.268,7.945 1.5,12 0.5,32.998 0.667,65.998 0.5,99 -0.333,0 -0.667,0 -1,0 -4.667,0 -9.333,0 -14,0 4.47,-0.986 9.137,-1.319 14,-1 0.166,-6.675 0,-13.342 -0.5,-20 -0.309,-1.266 -0.809,-2.433 -1.5,-3.5 1.154,-12.091 1.321,-24.258 0.5,-36.5 -1.733,18.233 -2.733,36.566 -3,55 -5.023,2.326 -7.856,0.826 -8.5,-4.5 1.299,-35.632 1.299,-71.299 0,-107 -0.061,-2.261 0.606,-4.261 2,-6 2.807,-1.589 5.64,-2.089 8.5,-1.5 0.333,-7.667 0.667,-15.333 1,-23 1.558,-2.269 1.724,-4.602 0.5,-7 -4.637,-1.328 -9.304,-2.495 -14,-3.5 -19.871,-2.367 -39.538,-1.7 -59,2 -0.752,0.671 -1.086,1.504 -1,2.5 -0.934,-1.068 -1.268,-2.401 -1,-4 3.35,0.165 6.683,-0.002 10,-0.5 9.109,-2.871 18.442,-4.038 28,-3.5 13.437,0.463 26.771,1.796 40,4 0.193,4.066 -0.14,8.066 -1,12 z"
         id="path517" />
    </g>
    <g
       id="g518"
       style="clip-rule:evenodd;fill-rule:evenodd;image-rendering:optimizeQuality;shape-rendering:geometricPrecision;text-rendering:geometricPrecision"
       transform="matrix(0.28149185,0,0,0.28149185,-102.74128,-108.77791)">
      <path
         style="opacity:1"
         fill="#eccc50"
         d="m 573.5,539.5 c 3.816,0.287 7.483,0.287 11,0 0.298,46.348 -0.035,92.681 -1,139 -3.317,2.108 -6.984,3.441 -11,4 2.087,-1.659 1.754,-3.326 -1,-5 0,-1.333 0,-2.667 0,-4 1.333,0.667 2.333,1.667 3,3 -0.085,1.495 0.581,2.495 2,3 2.027,-1.193 3.527,-2.86 4.5,-5 0.5,-34.665 0.667,-69.332 0.5,-104 -0.949,-9.614 -1.282,-19.281 -1,-29 -2.027,0.162 -4.027,-0.005 -6,-0.5 -0.556,-0.383 -0.889,-0.883 -1,-1.5 z"
         id="path518" />
    </g>
    <g
       id="g523"
       style="clip-rule:evenodd;fill-rule:evenodd;image-rendering:optimizeQuality;shape-rendering:geometricPrecision;text-rendering:geometricPrecision"
       transform="matrix(0.28149185,0,0,0.28149185,-102.74128,-108.77791)">
      <path
         style="opacity:1"
         fill="#ebce5f"
         d="m 478.5,493.5 c 0.833,54.498 1.333,109.165 1.5,164 0.333,0.333 0.667,0.667 1,1 0.5,-39.999 0.667,-79.999 0.5,-120 1.599,-0.268 2.932,0.066 4,1 -1,0 -2,0 -3,0 -0.167,44.668 0,89.335 0.5,134 0.383,0.556 0.883,0.889 1.5,1 1.32,1.442 2.986,2.108 5,2 -1.141,0.839 -2.474,1.506 -4,2 -0.886,0.825 -1.219,1.825 -1,3 5.981,1.164 11.981,2.164 18,3 1.452,0.802 3.118,1.302 5,1.5 13.996,0.5 27.996,0.667 42,0.5 -14.828,1.161 -29.828,1.328 -45,0.5 -6.173,-2.001 -12.506,-2.834 -19,-2.5 -1.194,-0.772 -2.194,-1.772 -3,-3 -1.14,-2.28 -2.307,-4.614 -3.5,-7 -0.5,-60.332 -0.667,-120.666 -0.5,-181 z"
         id="path523" />
    </g>
    <g
       id="g526"
       style="clip-rule:evenodd;fill-rule:evenodd;image-rendering:optimizeQuality;shape-rendering:geometricPrecision;text-rendering:geometricPrecision"
       transform="matrix(0.28149185,0,0,0.28149185,-102.74128,-108.77791)">
      <path
         style="opacity:1"
         fill="#f9f9cc"
         d="m 465.5,492.5 c 1.167,1.315 2.667,1.981 4.5,2 2.462,-0.659 4.962,-0.993 7.5,-1 0,60.333 0,120.667 0,181 -0.999,-59.498 -1.332,-119.164 -1,-179 -3.35,0.165 -6.683,-0.002 -10,-0.5 -0.752,-0.671 -1.086,-1.504 -1,-2.5 z"
         id="path526" />
    </g>
    <g
       id="g528"
       style="clip-rule:evenodd;fill-rule:evenodd;image-rendering:optimizeQuality;shape-rendering:geometricPrecision;text-rendering:geometricPrecision"
       transform="matrix(0.28149185,0,0,0.28149185,-102.74128,-108.77791)">
      <path
         style="opacity:1"
         fill="#f9f4c7"
         d="m 559.5,655.5 c -0.999,-38.163 -1.332,-76.496 -1,-115 1.644,-0.214 3.144,0.12 4.5,1 0.667,38.333 0.667,76.667 0,115 -1.756,1.485 -2.923,1.152 -3.5,-1 z"
         id="path528" />
    </g>
    <g
       id="g531"
       style="clip-rule:evenodd;fill-rule:evenodd;image-rendering:optimizeQuality;shape-rendering:geometricPrecision;text-rendering:geometricPrecision"
       transform="matrix(0.28149185,0,0,0.28149185,-102.74128,-108.77791)">
      <path
         style="opacity:1"
         fill="#faf9ec"
         d="m 505.5,656.5 c -1.452,2.352 -3.452,2.685 -6,1 -0.67,-38.567 -1.336,-77.067 -2,-115.5 2.543,-5.037 5.71,-5.537 9.5,-1.5 0.054,38.832 -0.446,77.498 -1.5,116 z"
         id="path531" />
    </g>
    <g
       id="g532"
       style="clip-rule:evenodd;fill-rule:evenodd;image-rendering:optimizeQuality;shape-rendering:geometricPrecision;text-rendering:geometricPrecision"
       transform="matrix(0.28149185,0,0,0.28149185,-102.74128,-108.77791)">
      <path
         style="opacity:1"
         fill="#faf9e4"
         d="m 544.5,657.5 c -0.617,-0.111 -1.117,-0.444 -1.5,-1 -0.17,-37.905 -0.67,-75.738 -1.5,-113.5 1.85,-5.545 4.683,-6.378 8.5,-2.5 0.195,37.178 0.695,74.345 1.5,111.5 0.264,5.594 -2.069,7.427 -7,5.5 z"
         id="path532" />
    </g>
    <g
       id="g533"
       style="clip-rule:evenodd;fill-rule:evenodd;image-rendering:optimizeQuality;shape-rendering:geometricPrecision;text-rendering:geometricPrecision"
       transform="matrix(0.28149185,0,0,0.28149185,-102.74128,-108.77791)">
      <path
         style="opacity:1"
         fill="#f0e4a4"
         d="m 547.5,541.5 c 0.333,0 0.667,0 1,0 0.167,38.001 0,76.001 -0.5,114 -1.145,1.184 -2.312,1.184 -3.5,0 -0.332,-37.837 0.002,-75.504 1,-113 -0.455,37.364 0.045,74.697 1.5,112 0.5,-37.665 0.667,-75.332 0.5,-113 z"
         id="path533" />
    </g>
    <g
       id="g534"
       style="clip-rule:evenodd;fill-rule:evenodd;image-rendering:optimizeQuality;shape-rendering:geometricPrecision;text-rendering:geometricPrecision"
       transform="matrix(0.28149185,0,0,0.28149185,-102.74128,-108.77791)">
      <path
         style="opacity:1"
         fill="#f9f9ce"
         d="m 547.5,541.5 c -0.992,-0.172 -1.658,0.162 -2,1 -0.998,37.496 -1.332,75.163 -1,113 -1.164,-37.831 -1.331,-75.831 -0.5,-114 1.292,-1.291 2.458,-1.291 3.5,0 z"
         id="path534" />
    </g>
    <g
       id="g535"
       style="clip-rule:evenodd;fill-rule:evenodd;image-rendering:optimizeQuality;shape-rendering:geometricPrecision;text-rendering:geometricPrecision"
       transform="matrix(0.28149185,0,0,0.28149185,-102.74128,-108.77791)">
      <path
         style="opacity:1"
         fill="#f9f4c8"
         d="m 548.5,541.5 c 1.164,38.164 1.331,76.498 0.5,115 -1.356,0.88 -2.856,1.214 -4.5,1 0,-0.667 0,-1.333 0,-2 1.188,1.184 2.355,1.184 3.5,0 0.5,-37.999 0.667,-75.999 0.5,-114 z"
         id="path535" />
    </g>
    <g
       id="g538"
       style="clip-rule:evenodd;fill-rule:evenodd;image-rendering:optimizeQuality;shape-rendering:geometricPrecision;text-rendering:geometricPrecision"
       transform="matrix(0.28149185,0,0,0.28149185,-102.74128,-108.77791)">
      <path
         style="opacity:1"
         fill="#ecc745"
         d="m 486.5,490.5 c 2.138,4.449 3.471,9.116 4,14 0,3.667 0,7.333 0,11 -3.726,-7.439 -5.893,-15.773 -6.5,-25 -1,1.333 -2,1.333 -3,0 -0.817,16.074 -0.65,32.074 0.5,48 0.167,40.001 0,80.001 -0.5,120 -0.333,-0.333 -0.667,-0.667 -1,-1 -0.167,-54.835 -0.667,-109.502 -1.5,-164 -0.221,-1.235 -0.888,-2.235 -2,-3 3.498,-3.92 6.832,-3.92 10,0 z"
         id="path538" />
    </g>
    <g
       id="g539"
       style="clip-rule:evenodd;fill-rule:evenodd;image-rendering:optimizeQuality;shape-rendering:geometricPrecision;text-rendering:geometricPrecision"
       transform="matrix(0.28149185,0,0,0.28149185,-102.74128,-108.77791)">
      <path
         style="opacity:1"
         fill="#f8e386"
         d="m 490.5,504.5 c 0.788,3.387 1.788,6.72 3,10 0,0.667 0,1.333 0,2 0.302,8.418 -0.031,16.752 -1,25 -2.005,0.539 -4.005,1.205 -6,2 -0.522,1.107 -0.855,2.274 -1,3.5 1.171,4.138 2.837,7.304 5,9.5 -0.219,1.438 -0.719,2.771 -1.5,4 -0.317,-1.801 -0.984,-2.134 -2,-1 -1.103,2.258 -1.936,4.591 -2.5,7 1.14,3.896 1.14,7.729 0,11.5 2.491,0.626 2.491,1.459 0,2.5 0.667,1.333 1.333,2.667 2,4 -0.227,2.171 -0.56,4.338 -1,6.5 2.667,1.333 2.667,2.667 0,4 0.757,1.512 1.757,2.846 3,4 -1.625,0.853 -1.958,1.853 -1,3 -0.727,2.124 -1.394,4.291 -2,6.5 0.875,5.188 1.209,10.522 1,16 -0.537,1.241 -1.204,2.408 -2,3.5 0.794,2.969 1.461,5.969 2,9 -1.802,3.587 -1.802,7.42 0,11.5 -0.813,1.314 -1.813,2.481 -3,3.5 0.76,1.441 1.426,2.941 2,4.5 0.304,5.659 -0.03,11.659 -1,18 -0.617,-0.111 -1.117,-0.444 -1.5,-1 -0.5,-44.665 -0.667,-89.332 -0.5,-134 1,0 2,0 3,0 2.333,0 4.667,0 7,0 0.166,-7.008 0,-14.008 -0.5,-21 -0.513,-1.027 -1.013,-2.027 -1.5,-3 0,-3.667 0,-7.333 0,-11 z"
         id="path539" />
    </g>
    <g
       id="g540"
       style="clip-rule:evenodd;fill-rule:evenodd;image-rendering:optimizeQuality;shape-rendering:geometricPrecision;text-rendering:geometricPrecision"
       transform="matrix(0.28149185,0,0,0.28149185,-102.74128,-108.77791)">
      <path
         style="opacity:1"
         fill="#e0d28b"
         d="m 533.5,541.5 c 0,38 0,76 0,114 -1,0 -2,0 -3,0 -0.167,-37.668 0,-75.335 0.5,-113 0.671,-0.752 1.504,-1.086 2.5,-1 z"
         id="path540" />
    </g>
    <g
       id="g541"
       style="clip-rule:evenodd;fill-rule:evenodd;image-rendering:optimizeQuality;shape-rendering:geometricPrecision;text-rendering:geometricPrecision"
       transform="matrix(0.28149185,0,0,0.28149185,-102.74128,-108.77791)">
      <path
         style="opacity:1"
         fill="#d9c879"
         d="m 547.5,541.5 c 0.167,37.668 0,75.335 -0.5,113 -1.455,-37.303 -1.955,-74.636 -1.5,-112 0.342,-0.838 1.008,-1.172 2,-1 z"
         id="path541" />
    </g>
    <g
       id="g542"
       style="clip-rule:evenodd;fill-rule:evenodd;image-rendering:optimizeQuality;shape-rendering:geometricPrecision;text-rendering:geometricPrecision"
       transform="matrix(0.28149185,0,0,0.28149185,-102.74128,-108.77791)">
      <path
         style="opacity:1"
         fill="#d9cd8b"
         d="m 559.5,655.5 c -0.333,-38.006 0,-76.006 1,-114 0.586,0.209 1.086,0.543 1.5,1 0.667,37.667 0.667,75.333 0,113 -0.77,1.098 -1.603,1.098 -2.5,0 z"
         id="path542" />
    </g>
    <g
       id="g543"
       style="clip-rule:evenodd;fill-rule:evenodd;image-rendering:optimizeQuality;shape-rendering:geometricPrecision;text-rendering:geometricPrecision"
       transform="matrix(0.28149185,0,0,0.28149185,-102.74128,-108.77791)">
      <path
         style="opacity:1"
         fill="#f2e8b6"
         d="m 493.5,516.5 c 0.996,14.49 1.329,29.157 1,44 -0.853,34.218 -1.353,68.551 -1.5,103 25.264,1.331 50.431,1.331 75.5,0 0.333,0 0.667,0 1,0 1.676,-0.683 2.343,-2.017 2,-4 1.254,1.857 1.254,3.857 0,6 4.209,1.083 6.209,3.749 6,8 -2.608,0.1 -4.942,-0.567 -7,-2 0,-0.667 -0.333,-1 -1,-1 -0.381,-1.431 -1.381,-2.264 -3,-2.5 -2.646,-0.497 -5.313,-0.664 -8,-0.5 -15.667,0 -31.333,0 -47,0 -5.344,-0.166 -10.677,10e-4 -16,0.5 0.333,0.333 0.667,0.667 1,1 -0.916,0.278 -1.582,0.778 -2,1.5 -2.083,1.088 -4.249,2.088 -6.5,3 -0.743,-1.941 -0.576,-3.774 0.5,-5.5 1.746,-0.471 3.413,-1.138 5,-2 -1.158,-1.009 -1.825,-2.342 -2,-4 0.98,-40.151 1.313,-80.318 1,-120.5 0.969,-8.248 1.302,-16.582 1,-25 z"
         id="path543" />
    </g>
    <g
       id="g544"
       style="clip-rule:evenodd;fill-rule:evenodd;image-rendering:optimizeQuality;shape-rendering:geometricPrecision;text-rendering:geometricPrecision"
       transform="matrix(0.28149185,0,0,0.28149185,-102.74128,-108.77791)">
      <path
         style="opacity:1"
         fill="#f9f9e1"
         d="m 585.5,445.5 c 1.322,9.881 2.822,19.881 4.5,30 3.877,2.771 7.544,5.771 11,9 0.497,4.024 0.331,8.024 -0.5,12 -4,0 -8,0 -12,0 0.167,59.334 0,118.668 -0.5,178 -0.608,1.566 -1.442,2.9 -2.5,4 0,-1.667 0,-3.333 0,-5 1.996,-59.324 2.663,-118.991 2,-179 1,0 2,0 3,0 2.027,0.162 4.027,-0.005 6,-0.5 0.556,-0.383 0.889,-0.883 1,-1.5 1.129,-2.128 1.296,-4.461 0.5,-7 -2.063,-2.234 -4.229,-4.234 -6.5,-6 -0.815,-1.337 -1.982,-2.337 -3.5,-3 -0.234,-6.556 -1.067,-12.889 -2.5,-19 0,-1.333 0,-2.667 0,-4 0,-2.667 0,-5.333 0,-8 z"
         id="path544" />
    </g>
    <g
       id="g550"
       style="clip-rule:evenodd;fill-rule:evenodd;image-rendering:optimizeQuality;shape-rendering:geometricPrecision;text-rendering:geometricPrecision"
       transform="matrix(0.28149185,0,0,0.28149185,-102.74128,-108.77791)">
      <path
         style="opacity:1"
         fill="#f9e075"
         d="m 581.5,570.5 c 0.167,34.668 0,69.335 -0.5,104 -0.973,2.14 -2.473,3.807 -4.5,5 -1.419,-0.505 -2.085,-1.505 -2,-3 2.493,0.171 4.326,-0.829 5.5,-3 0.5,-9.994 0.666,-19.994 0.5,-30 -0.331,-24.506 0.002,-48.839 1,-73 z"
         id="path550" />
    </g>
    <g
       id="g560"
       style="clip-rule:evenodd;fill-rule:evenodd;image-rendering:optimizeQuality;shape-rendering:geometricPrecision;text-rendering:geometricPrecision"
       transform="matrix(0.28149185,0,0,0.28149185,-102.74128,-108.77791)">
      <path
         style="opacity:1"
         fill="#f7e498"
         d="m 492.5,541.5 c 0.313,40.182 -0.02,80.349 -1,120.5 0.175,1.658 0.842,2.991 2,4 -1.587,0.862 -3.254,1.529 -5,2 -1.076,1.726 -1.243,3.559 -0.5,5.5 2.251,-0.912 4.417,-1.912 6.5,-3 -1.995,1.804 -3.662,3.804 -5,6 -2.014,0.108 -3.68,-0.558 -5,-2 0.97,-6.341 1.304,-12.341 1,-18 -0.574,-1.559 -1.24,-3.059 -2,-4.5 1.187,-1.019 2.187,-2.186 3,-3.5 -1.802,-4.08 -1.802,-7.913 0,-11.5 -0.539,-3.031 -1.206,-6.031 -2,-9 0.796,-1.092 1.463,-2.259 2,-3.5 0.209,-5.478 -0.125,-10.812 -1,-16 0.606,-2.209 1.273,-4.376 2,-6.5 -0.958,-1.147 -0.625,-2.147 1,-3 -1.243,-1.154 -2.243,-2.488 -3,-4 2.667,-1.333 2.667,-2.667 0,-4 0.44,-2.162 0.773,-4.329 1,-6.5 -0.667,-1.333 -1.333,-2.667 -2,-4 2.491,-1.041 2.491,-1.874 0,-2.5 1.14,-3.771 1.14,-7.604 0,-11.5 0.564,-2.409 1.397,-4.742 2.5,-7 1.016,-1.134 1.683,-0.801 2,1 0.781,-1.229 1.281,-2.562 1.5,-4 -2.163,-2.196 -3.829,-5.362 -5,-9.5 0.145,-1.226 0.478,-2.393 1,-3.5 1.995,-0.795 3.995,-1.461 6,-2 z"
         id="path560" />
    </g>
    <g
       id="g567"
       style="clip-rule:evenodd;fill-rule:evenodd;image-rendering:optimizeQuality;shape-rendering:geometricPrecision;text-rendering:geometricPrecision"
       transform="matrix(0.28149185,0,0,0.28149185,-102.74128,-108.77791)">
      <path
         style="opacity:1"
         fill="#e2c95c"
         d="m 585.5,493.5 c 0,60 0,120 0,180 0,1.667 0,3.333 0,5 -1.333,1 -2.667,2 -4,3 -6.254,2.899 -12.92,4.232 -20,4 3.731,-0.725 7.398,-1.725 11,-3 4.016,-0.559 7.683,-1.892 11,-4 0.965,-46.319 1.298,-92.652 1,-139 0,-14.667 0,-29.333 0,-44 0,-0.333 0,-0.667 0,-1 0,-0.667 0.333,-1 1,-1 z"
         id="path567" />
    </g>
    <g
       id="g576"
       style="clip-rule:evenodd;fill-rule:evenodd;image-rendering:optimizeQuality;shape-rendering:geometricPrecision;text-rendering:geometricPrecision"
       transform="matrix(0.28149185,0,0,0.28149185,-102.74128,-108.77791)">
      <path
         style="opacity:1"
         fill="#faf3ba"
         d="m 585.5,493.5 c 1.915,-0.284 3.581,0.049 5,1 -1,0 -2,0 -3,0 0.663,60.009 -0.004,119.676 -2,179 0,-60 0,-120 0,-180 z"
         id="path576" />
    </g>
    <g
       id="g577"
       style="clip-rule:evenodd;fill-rule:evenodd;image-rendering:optimizeQuality;shape-rendering:geometricPrecision;text-rendering:geometricPrecision"
       transform="matrix(0.28149185,0,0,0.28149185,-102.74128,-108.77791)">
      <path
         style="opacity:1"
         fill="#faf9ed"
         d="m 493.5,511.5 c 0.768,0.763 1.268,1.763 1.5,3 0.905,5.294 1.405,10.628 1.5,16 -0.415,44.516 -0.748,86.683 -1,126.5 -0.107,2.847 1.227,4.347 4,4.5 4.182,-0.07 8.516,-0.236 13,-0.5 2.558,-1.38 2.558,-2.88 0,-4.5 -0.109,-38.33 0.057,-77.33 0.5,-117 3.163,-1.419 6.163,-1.085 9,1 0.667,38 0.667,76 0,114 -0.739,3.073 -2.572,5.24 -5.5,6.5 5.576,0.394 10.909,0.227 16,-0.5 0.111,0.617 0.444,1.117 1,1.5 4.188,0.176 8.188,0.676 12,1.5 -16.714,0.319 -33.381,-0.015 -50,-1 -1,-33.993 -1.333,-67.993 -1,-102 0.329,-14.843 -0.004,-29.51 -1,-44 0,-0.667 0,-1.333 0,-2 0,-1 0,-2 0,-3 z"
         id="path577" />
    </g>
    <g
       id="g578"
       style="clip-rule:evenodd;fill-rule:evenodd;image-rendering:optimizeQuality;shape-rendering:geometricPrecision;text-rendering:geometricPrecision"
       transform="matrix(0.28149185,0,0,0.28149185,-102.74128,-108.77791)">
      <path
         style="opacity:1"
         fill="#faf5ca"
         d="m 518.5,541.5 c 0.617,0.111 1.117,0.444 1.5,1 0.667,38 0.667,76 0,114 -1.667,1.333 -3.333,1.333 -5,0 -0.5,-38.665 -0.667,-77.332 -0.5,-116 1.599,-0.268 2.932,0.066 4,1 z"
         id="path578" />
    </g>
    <g
       id="g579"
       style="clip-rule:evenodd;fill-rule:evenodd;image-rendering:optimizeQuality;shape-rendering:geometricPrecision;text-rendering:geometricPrecision"
       transform="matrix(0.28149185,0,0,0.28149185,-102.74128,-108.77791)">
      <path
         style="opacity:1"
         fill="#d8cc8b"
         d="m 518.5,541.5 c 0.333,38.339 0,76.672 -1,115 -0.333,-19.167 -0.667,-38.333 -1,-57.5 0,-19.512 0.667,-38.678 2,-57.5 z"
         id="path579" />
    </g>
    <g
       id="g580"
       style="clip-rule:evenodd;fill-rule:evenodd;image-rendering:optimizeQuality;shape-rendering:geometricPrecision;text-rendering:geometricPrecision"
       transform="matrix(0.28149185,0,0,0.28149185,-102.74128,-108.77791)">
      <path
         style="opacity:1"
         fill="#ede4ae"
         d="m 505.5,656.5 c -1.951,0.273 -3.451,-0.393 -4.5,-2 -0.667,-37.667 -0.667,-75.333 0,-113 1.714,-1.425 3.047,-1.092 4,1 0.5,37.999 0.667,75.999 0.5,114 z"
         id="path580" />
    </g>
    <g
       id="g581"
       style="clip-rule:evenodd;fill-rule:evenodd;image-rendering:optimizeQuality;shape-rendering:geometricPrecision;text-rendering:geometricPrecision"
       transform="matrix(0.28149185,0,0,0.28149185,-102.74128,-108.77791)">
      <path
         style="opacity:1"
         fill="#faf7d5"
         d="m 494.5,560.5 c -0.333,34.007 0,68.007 1,102 16.619,0.985 33.286,1.319 50,1 3,0 6,0 9,0 4.667,0 9.333,0 14,0 -25.069,1.331 -50.236,1.331 -75.5,0 0.147,-34.449 0.647,-68.782 1.5,-103 z"
         id="path581" />
    </g>
    <g
       id="g584"
       style="clip-rule:evenodd;fill-rule:evenodd;image-rendering:optimizeQuality;shape-rendering:geometricPrecision;text-rendering:geometricPrecision"
       transform="matrix(0.28149185,0,0,0.28149185,-102.74128,-108.77791)">
      <path
         style="opacity:1"
         fill="#e7cc60"
         d="m 494.5,670.5 c 24.992,2.617 49.992,2.617 75,0 0.667,0 1,0.333 1,1 -12.571,1.845 -25.238,2.845 -38,3 -10.904,0.173 -21.737,-0.493 -32.5,-2 -3.825,0.661 -7.325,1.994 -10.5,4 1.338,-2.196 3.005,-4.196 5,-6 z"
         id="path584" />
    </g>
    <g
       id="g585"
       style="clip-rule:evenodd;fill-rule:evenodd;image-rendering:optimizeQuality;shape-rendering:geometricPrecision;text-rendering:geometricPrecision"
       transform="matrix(0.28149185,0,0,0.28149185,-102.74128,-108.77791)">
      <path
         style="opacity:1"
         fill="#f9f3b2"
         d="m 511.5,667.5 c -0.763,0.768 -1.763,1.268 -3,1.5 2.288,0.822 4.622,1.489 7,2 11.333,0.667 22.667,0.667 34,0 2.536,-0.339 5.036,-0.839 7.5,-1.5 1.03,-0.336 1.53,-1.003 1.5,-2 2.687,-0.164 5.354,0.003 8,0.5 1.619,0.236 2.619,1.069 3,2.5 -25.008,2.617 -50.008,2.617 -75,0 0.418,-0.722 1.084,-1.222 2,-1.5 -0.333,-0.333 -0.667,-0.667 -1,-1 5.323,-0.499 10.656,-0.666 16,-0.5 z"
         id="path585" />
    </g>
    <g
       id="g586"
       style="clip-rule:evenodd;fill-rule:evenodd;image-rendering:optimizeQuality;shape-rendering:geometricPrecision;text-rendering:geometricPrecision"
       transform="matrix(0.28149185,0,0,0.28149185,-102.74128,-108.77791)">
      <path
         style="opacity:1"
         fill="#f9f8d9"
         d="m 511.5,667.5 c 15.667,0 31.333,0 47,0 0.03,0.997 -0.47,1.664 -1.5,2 -2.464,0.661 -4.964,1.161 -7.5,1.5 -11.333,0.667 -22.667,0.667 -34,0 -2.378,-0.511 -4.712,-1.178 -7,-2 1.237,-0.232 2.237,-0.732 3,-1.5 z"
         id="path586" />
    </g>
    <g
       id="g590"
       style="clip-rule:evenodd;fill-rule:evenodd;image-rendering:optimizeQuality;shape-rendering:geometricPrecision;text-rendering:geometricPrecision"
       transform="matrix(0.28149185,0,0,0.28149185,-102.74128,-108.77791)">
      <path
         style="opacity:1"
         fill="#f3c82e"
         d="m 571.5,673.5 c 0,1.333 0,2.667 0,4 0.671,1.347 0.671,2.514 0,3.5 -3.106,0.279 -5.939,0.112 -8.5,-0.5 -2.068,2.062 -4.568,3.228 -7.5,3.5 -13.667,0.667 -27.333,0.667 -41,0 -8.14,-0.35 -16.14,-1.517 -24,-3.5 1.635,-4.855 5.135,-6.855 10.5,-6 13.125,1.445 26.292,2.278 39.5,2.5 1,2 2,2 3,0 3.667,-0.333 7.333,-0.667 11,-1 5.453,-2.727 11.12,-3.561 17,-2.5 z"
         id="path590" />
    </g>
    <g
       id="g601"
       style="clip-rule:evenodd;fill-rule:evenodd;image-rendering:optimizeQuality;shape-rendering:geometricPrecision;text-rendering:geometricPrecision"
       transform="matrix(0.28149185,0,0,0.28149185,-102.74128,-108.77791)">
      <path
         style="opacity:1"
         fill="#eec83d"
         d="m 570.5,671.5 c 0.333,0.667 0.667,1.333 1,2 -5.88,-1.061 -11.547,-0.227 -17,2.5 -3.667,0.333 -7.333,0.667 -11,1 -1,2 -2,2 -3,0 -13.208,-0.222 -26.375,-1.055 -39.5,-2.5 -5.365,-0.855 -8.865,1.145 -10.5,6 7.86,1.983 15.86,3.15 24,3.5 13.667,0.667 27.333,0.667 41,0 2.932,-0.272 5.432,-1.438 7.5,-3.5 2.561,0.612 5.394,0.779 8.5,0.5 0.671,-0.986 0.671,-2.153 0,-3.5 2.754,1.674 3.087,3.341 1,5 -3.602,1.275 -7.269,2.275 -11,3 -19.685,0.243 -39.351,-0.09 -59,-1 -6.019,-0.836 -12.019,-1.836 -18,-3 -0.219,-1.175 0.114,-2.175 1,-3 1.526,-0.494 2.859,-1.161 4,-2 3.175,-2.006 6.675,-3.339 10.5,-4 10.763,1.507 21.596,2.173 32.5,2 12.762,-0.155 25.429,-1.155 38,-3 z"
         id="path601" />
    </g>
    <g
       id="g602"
       style="clip-rule:evenodd;fill-rule:evenodd;image-rendering:optimizeQuality;shape-rendering:geometricPrecision;text-rendering:geometricPrecision"
       transform="matrix(0.28149185,0,0,0.28149185,-102.74128,-108.77791)">
      <path
         style="opacity:1"
         fill="#f9f3b9"
         d="m 581.5,681.5 c -0.647,1.641 -1.647,2.974 -3,4 -31.018,5.211 -62.018,5.211 -93,0 0,-0.333 0,-0.667 0,-1 6.494,-0.334 12.827,0.499 19,2.5 15.172,0.828 30.172,0.661 45,-0.5 4.202,0.317 8.202,-0.017 12,-1 7.08,0.232 13.746,-1.101 20,-4 z"
         id="path602" />
    </g>
    <g
       id="g603"
       style="clip-rule:evenodd;fill-rule:evenodd;image-rendering:optimizeQuality;shape-rendering:geometricPrecision;text-rendering:geometricPrecision"
       transform="matrix(0.28149185,0,0,0.28149185,-102.74128,-108.77791)">
      <path
         style="opacity:1"
         fill="#e4c64f"
         d="m 502.5,684.5 c 19.649,0.91 39.315,1.243 59,1 -3.798,0.983 -7.798,1.317 -12,1 -14.004,0.167 -28.004,0 -42,-0.5 -1.882,-0.198 -3.548,-0.698 -5,-1.5 z"
         id="path603" />
    </g>
    <g
       id="g604"
       style="clip-rule:evenodd;fill-rule:evenodd;image-rendering:optimizeQuality;shape-rendering:geometricPrecision;text-rendering:geometricPrecision"
       transform="matrix(0.28149185,0,0,0.28149185,-102.74128,-108.77791)">
      <path
         style="opacity:1"
         fill="#faf9e8"
         d="m 485.5,685.5 c 30.982,5.211 61.982,5.211 93,0 -3.986,3.121 -8.486,4.121 -13.5,3 -10.936,1.253 -21.936,1.919 -33,2 -9.833,-0.167 -19.667,-0.333 -29.5,-0.5 -3.679,-0.835 -7.345,-1.668 -11,-2.5 -0.586,0.209 -1.086,0.543 -1.5,1 -2.026,-0.415 -3.526,-1.415 -4.5,-3 z"
         id="path604" />
    </g>
  </g>
</svg>
