<?xml version="1.0" encoding="UTF-8" standalone="no"?>
<!-- Created with Inkscape (http://www.inkscape.org/) -->

<svg
   width="96mm"
   height="96mm"
   viewBox="0 0 96 96"
   version="1.1"
   id="svg1"
   inkscape:version="1.4.2 (ebf0e940, 2025-05-08)"
   sodipodi:docname="bicycle.svg"
   xmlns:inkscape="http://www.inkscape.org/namespaces/inkscape"
   xmlns:sodipodi="http://sodipodi.sourceforge.net/DTD/sodipodi-0.dtd"
   xmlns="http://www.w3.org/2000/svg"
   xmlns:svg="http://www.w3.org/2000/svg">
  <sodipodi:namedview
     id="namedview1"
     pagecolor="#ffffff"
     bordercolor="#000000"
     borderopacity="0.25"
     inkscape:showpageshadow="2"
     inkscape:pageopacity="0.0"
     inkscape:pagecheckerboard="0"
     inkscape:deskcolor="#d1d1d1"
     inkscape:document-units="mm"
     inkscape:zoom="0.80444024"
     inkscape:cx="397.17059"
     inkscape:cy="262.91574"
     inkscape:window-width="1920"
     inkscape:window-height="1052"
     inkscape:window-x="0"
     inkscape:window-y="28"
     inkscape:window-maximized="0"
     inkscape:current-layer="layer1" />
  <defs
     id="defs1" />
  <g
     inkscape:label="Layer 1"
     inkscape:groupmode="layer"
     id="layer1">
    <g
       id="g6"
       style="clip-rule:evenodd;fill-rule:evenodd;image-rendering:optimizeQuality;shape-rendering:geometricPrecision;text-rendering:geometricPrecision"
       transform="matrix(0.30166704,0,0,0.30166704,-7.3737208,-4.1017886)">
      <path
         style="opacity:1"
         fill="#faf9e4"
         d="m 236.5,97.5 c -5.185,-1.7517 -10.519,-2.2517 -16,-1.5 -5.65,1.2097 -10.983,3.043 -16,5.5 -0.476,-4.4935 -1.142,-8.8268 -2,-13 0,-0.6667 -0.333,-1 -1,-1 -1.052,-1.756 -2.719,-2.4227 -5,-2 0.167,-12.6711 0,-25.3377 -0.5,-38 -3.374,-4.3602 -7.208,-5.0268 -11.5,-2 -1,0.3333 -1.667,1 -2,2 -1.562,0.2329 -2.895,0.8995 -4,2 0.824,-2.8152 2.491,-4.9818 5,-6.5 6.012,-1.7745 10.845,-0.2745 14.5,4.5 0.333,12 0.667,24 1,36 1.667,0.6667 3.333,1.3333 5,2 0.796,4.5516 1.629,9.0516 2.5,13.5 3.466,-1.066 6.799,-2.7327 10,-5 5.528,-0.7123 11.028,-0.5456 16.5,0.5 1.908,0.2151 3.074,1.2151 3.5,3 z"
         id="path6" />
    </g>
    <g
       id="g9"
       style="clip-rule:evenodd;fill-rule:evenodd;image-rendering:optimizeQuality;shape-rendering:geometricPrecision;text-rendering:geometricPrecision"
       transform="matrix(0.30166704,0,0,0.30166704,-7.3737208,-4.1017886)">
      <path
         style="opacity:1"
         fill="#e6c550"
         d="m 184.5,45.5 c 3.107,-0.1488 6.107,0.3512 9,1.5 0.626,0.7504 1.126,1.5838 1.5,2.5 0.5,12.6623 0.667,25.3289 0.5,38 0,5.3333 0,10.6667 0,16 -0.768,-0.763 -1.268,-1.763 -1.5,-3 -0.333,-16.6667 -0.667,-33.3333 -1,-50 -2.818,-4.3304 -6.318,-4.997 -10.5,-2 0,-0.3333 0,-0.6667 0,-1 0.333,-1 1,-1.6667 2,-2 z"
         id="path9" />
    </g>
    <g
       id="g16"
       style="clip-rule:evenodd;fill-rule:evenodd;image-rendering:optimizeQuality;shape-rendering:geometricPrecision;text-rendering:geometricPrecision"
       transform="matrix(0.30166704,0,0,0.30166704,-7.3737208,-4.1017886)">
      <path
         style="opacity:1"
         fill="#edc537"
         d="m 195.5,103.5 c 1.452,1.213 2.786,0.88 4,-1 4.362,3.652 8.862,3.652 13.5,0 0.464,0.594 0.631,1.261 0.5,2 -1.53,1.846 -3.53,2.846 -6,3 -8.673,0.166 -17.34,0 -26,-0.5 -0.752,-0.671 -1.086,-1.504 -1,-2.5 0.718,-18.5193 1.384,-37.186 2,-56 4.182,-2.997 7.682,-2.3304 10.5,2 0.333,16.6667 0.667,33.3333 1,50 0.232,1.237 0.732,2.237 1.5,3 z"
         id="path16" />
    </g>
    <g
       id="g17"
       style="clip-rule:evenodd;fill-rule:evenodd;image-rendering:optimizeQuality;shape-rendering:geometricPrecision;text-rendering:geometricPrecision"
       transform="matrix(0.30166704,0,0,0.30166704,-7.3737208,-4.1017886)">
      <path
         style="opacity:1"
         fill="#f2c726"
         d="m 186.5,48.5 c 2.481,-0.1766 4.314,0.8234 5.5,3 0.5,17.9969 0.667,35.9969 0.5,54 -2.848,-1.157 -5.348,-0.824 -7.5,1 -0.692,-0.525 -1.192,-1.192 -1.5,-2 1.981,-3.145 2.147,-6.1453 0.5,-9 -1.529,-13.9018 -1.529,-27.9018 0,-42 0.366,-1.9517 1.199,-3.6184 2.5,-5 z"
         id="path17" />
    </g>
    <g
       id="g24"
       style="clip-rule:evenodd;fill-rule:evenodd;image-rendering:optimizeQuality;shape-rendering:geometricPrecision;text-rendering:geometricPrecision"
       transform="matrix(0.30166704,0,0,0.30166704,-7.3737208,-4.1017886)">
      <path
         style="opacity:1"
         fill="#f9f0b4"
         d="m 201.5,87.5 c -1.333,0 -2.667,0 -4,0 -0.667,0 -1.333,0 -2,0 0.167,-12.6711 0,-25.3377 -0.5,-38 -0.374,-0.9162 -0.874,-1.7496 -1.5,-2.5 -2.893,-1.1488 -5.893,-1.6488 -9,-1.5 4.292,-3.0268 8.126,-2.3602 11.5,2 0.5,12.6623 0.667,25.3289 0.5,38 2.281,-0.4227 3.948,0.244 5,2 z"
         id="path24" />
    </g>
    <g
       id="g33"
       style="clip-rule:evenodd;fill-rule:evenodd;image-rendering:optimizeQuality;shape-rendering:geometricPrecision;text-rendering:geometricPrecision"
       transform="matrix(0.30166704,0,0,0.30166704,-7.3737208,-4.1017886)">
      <path
         style="opacity:1"
         fill="#f9f3b7"
         d="m 182.5,47.5 c 0,0.3333 0,0.6667 0,1 -0.667,0.6667 -1.333,1.3333 -2,2 -0.374,12.4045 -1.374,24.7378 -3,37 -1.322,-0.17 -2.489,0.1634 -3.5,1 -0.499,5.3229 -0.666,10.6563 -0.5,16 -3.442,0.672 -6.109,-0.328 -8,-3 2.264,0.719 4.597,1.052 7,1 -0.166,-5.0111 0.001,-10.0111 0.5,-15 1.444,-1.6554 3.278,-2.322 5.5,-2 0,-11.6667 0,-23.3333 0,-35 0,-0.3333 0,-0.6667 0,-1 1.105,-1.1005 2.438,-1.7671 4,-2 z"
         id="path33" />
    </g>
    <g
       id="g39"
       style="clip-rule:evenodd;fill-rule:evenodd;image-rendering:optimizeQuality;shape-rendering:geometricPrecision;text-rendering:geometricPrecision"
       transform="matrix(0.30166704,0,0,0.30166704,-7.3737208,-4.1017886)">
      <path
         style="opacity:1"
         fill="#e1c251"
         d="m 182.5,48.5 c -0.616,18.814 -1.282,37.4807 -2,56 0,-18 0,-36 0,-54 0.667,-0.6667 1.333,-1.3333 2,-2 z"
         id="path39" />
    </g>
    <g
       id="g46"
       style="clip-rule:evenodd;fill-rule:evenodd;image-rendering:optimizeQuality;shape-rendering:geometricPrecision;text-rendering:geometricPrecision"
       transform="matrix(0.30166704,0,0,0.30166704,-7.3737208,-4.1017886)">
      <path
         style="opacity:1"
         fill="#faf9df"
         d="m 178.5,50.5 c 0,11.6667 0,23.3333 0,35 -2.222,-0.322 -4.056,0.3446 -5.5,2 -0.499,4.9889 -0.666,9.9889 -0.5,15 -2.403,0.052 -4.736,-0.281 -7,-1 -3.588,-1.298 -6.921,-2.9644 -10,-5 -4.146,-1.147 -8.48,-1.3136 -13,-0.5 -2.973,2.4908 -6.307,4.324 -10,5.5 1.409,-1.9169 3.076,-3.7502 5,-5.5 7.199,-2.1947 14.532,-2.8614 22,-2 3.475,2.3076 6.808,4.8076 10,7.5 1.081,-4.1502 1.081,-7.9835 0,-11.5 1.167,-3.1667 3.333,-5.3333 6.5,-6.5 0.333,-1 0.667,-2 1,-3 0.17,-10.1751 0.67,-20.1751 1.5,-30 z"
         id="path46" />
    </g>
    <g
       id="g47"
       style="clip-rule:evenodd;fill-rule:evenodd;image-rendering:optimizeQuality;shape-rendering:geometricPrecision;text-rendering:geometricPrecision"
       transform="matrix(0.30166704,0,0,0.30166704,-7.3737208,-4.1017886)">
      <path
         style="opacity:1"
         fill="#f9e788"
         d="m 180.5,50.5 c 0,18 0,36 0,54 -1,0 -2,0 -3,0 0,-5.6667 0,-11.3333 0,-17 1.626,-12.2622 2.626,-24.5955 3,-37 z"
         id="path47" />
    </g>
    <g
       id="g56"
       style="clip-rule:evenodd;fill-rule:evenodd;image-rendering:optimizeQuality;shape-rendering:geometricPrecision;text-rendering:geometricPrecision"
       transform="matrix(0.30166704,0,0,0.30166704,-7.3737208,-4.1017886)">
      <path
         style="opacity:1"
         fill="#f4e79c"
         d="m 202.5,88.5 c 0.858,4.1732 1.524,8.5065 2,13 5.017,-2.457 10.35,-4.2903 16,-5.5 5.481,-0.7517 10.815,-0.2517 16,1.5 1.867,1.2598 3.2,2.927 4,5 -6.722,-4.01 -14.056,-5.51 -22,-4.5 -3.834,2.295 -7.834,4.295 -12,6 -1,0.667 -2,0.667 -3,0 -0.971,-5.0717 -1.305,-10.2384 -1,-15.5 z"
         id="path56" />
    </g>
    <g
       id="g62"
       style="clip-rule:evenodd;fill-rule:evenodd;image-rendering:optimizeQuality;shape-rendering:geometricPrecision;text-rendering:geometricPrecision"
       transform="matrix(0.30166704,0,0,0.30166704,-7.3737208,-4.1017886)">
      <path
         style="opacity:1"
         fill="#f9f0b5"
         d="m 155.5,96.5 c -4.767,-0.3092 -9.434,0.1908 -14,1.5 -6.015,4.159 -11.348,8.992 -16,14.5 -0.333,0 -0.667,0 -1,0 2.616,-3.629 5.283,-7.296 8,-11 3.693,-1.176 7.027,-3.0092 10,-5.5 4.52,-0.8136 8.854,-0.647 13,0.5 z"
         id="path62" />
    </g>
    <g
       id="g71"
       style="clip-rule:evenodd;fill-rule:evenodd;image-rendering:optimizeQuality;shape-rendering:geometricPrecision;text-rendering:geometricPrecision"
       transform="matrix(0.30166704,0,0,0.30166704,-7.3737208,-4.1017886)">
      <path
         style="opacity:1"
         fill="#e5c64d"
         d="m 177.5,87.5 c 0,5.6667 0,11.3333 0,17 1,0 2,0 3,0 -0.086,0.996 0.248,1.829 1,2.5 8.66,0.5 17.327,0.666 26,0.5 -14.206,1.307 -28.539,1.307 -43,0 -6.281,-7.5101 -13.948,-9.0101 -23,-4.5 -0.88,1.356 -1.214,2.856 -1,4.5 8.969,-3.774 16.969,-2.274 24,4.5 14.019,1.78 28.019,1.947 42,0.5 4.393,-1.364 8.393,-3.531 12,-6.5 3.667,-0.667 7.333,-0.667 11,0 1.616,0.615 2.949,1.615 4,3 3.667,0.667 4.667,-0.667 3,-4 -7.545,-7.0382 -15.212,-7.2049 -23,-0.5 0.131,-0.739 -0.036,-1.406 -0.5,-2 -4.638,3.652 -9.138,3.652 -13.5,0 -1.214,1.88 -2.548,2.213 -4,1 1.946,-4.8958 2.613,-10.2291 2,-16 1.333,0 2.667,0 4,0 0.667,0 1,0.3333 1,1 -0.305,5.2616 0.029,10.4283 1,15.5 1,0.667 2,0.667 3,0 4.166,-1.705 8.166,-3.705 12,-6 7.944,-1.01 15.278,0.49 22,4.5 4.64,3.973 8.973,8.306 13,13 4.783,4.242 6.783,9.576 6,16 -2.292,1.391 -4.792,2.391 -7.5,3 -2.399,-0.113 -4.232,-1.113 -5.5,-3 -5.419,-7.153 -11.085,-14.153 -17,-21 -2.606,-1.152 -5.273,-1.318 -8,-0.5 -5.467,5.546 -12.133,8.046 -20,7.5 -0.204,2.185 -0.87,4.185 -2,6 -0.333,0 -0.667,0 -1,0 -1.333,1 -2.667,2 -4,3 -0.509,25.31 -1.343,50.643 -2.5,76 -1.222,-28.32 -1.722,-56.653 -1.5,-85 -1.667,0 -3.333,0 -5,0 0,4.667 0,9.333 0,14 0,10.333 0,20.667 0,31 -0.996,0.086 -1.829,-0.248 -2.5,-1 -0.17,-10.841 -0.67,-21.508 -1.5,-32 0.149,-1.052 -0.017,-2.052 -0.5,-3 -3.03,-2.796 -5.53,-5.963 -7.5,-9.5 -1.973,-0.495 -3.973,-0.662 -6,-0.5 -1.792,0.134 -3.458,-0.199 -5,-1 -2.289,-1.887 -4.955,-3.221 -8,-4 -3.791,-2.799 -7.458,-2.465 -11,1 -1.013,2.027 -2.013,4.027 -3,6 -4.333,5 -9,9.667 -14,14 -2,0 -4,0 -6,0 -0.237,-1.291 0.096,-2.291 1,-3 1.373,0.157 2.707,-0.01 4,-0.5 4.463,-5.114 8.796,-10.281 13,-15.5 -1.082,-2.284 -2.748,-3.45 -5,-3.5 -4.574,5.065 -8.907,10.231 -13,15.5 -1.686,-3.751 -0.519,-6.418 3.5,-8 0.608,-1.654 1.108,-3.321 1.5,-5 4.652,-5.508 9.985,-10.341 16,-14.5 4.566,-1.3092 9.233,-1.8092 14,-1.5 3.079,2.0356 6.412,3.702 10,5 1.891,2.672 4.558,3.672 8,3 -0.166,-5.3437 0.001,-10.6771 0.5,-16 1.011,-0.8366 2.178,-1.17 3.5,-1 z"
         id="path71" />
    </g>
    <g
       id="g72"
       style="clip-rule:evenodd;fill-rule:evenodd;image-rendering:optimizeQuality;shape-rendering:geometricPrecision;text-rendering:geometricPrecision"
       transform="matrix(0.30166704,0,0,0.30166704,-7.3737208,-4.1017886)">
      <path
         style="opacity:1"
         fill="#f8f0af"
         d="m 154.5,111.5 c 3.045,0.779 5.711,2.113 8,4 -1.667,0 -3.333,0 -5,0 -1.289,-1.137 -2.289,-2.47 -3,-4 z"
         id="path72" />
    </g>
    <g
       id="g73"
       style="clip-rule:evenodd;fill-rule:evenodd;image-rendering:optimizeQuality;shape-rendering:geometricPrecision;text-rendering:geometricPrecision"
       transform="matrix(0.30166704,0,0,0.30166704,-7.3737208,-4.1017886)">
      <path
         style="opacity:1"
         fill="#f7eaa1"
         d="m 154.5,111.5 c -4.786,-2.287 -7.953,-0.954 -9.5,4 -1.129,1.641 -2.629,2.641 -4.5,3 0.987,-1.973 1.987,-3.973 3,-6 3.542,-3.465 7.209,-3.799 11,-1 z"
         id="path73" />
    </g>
    <g
       id="g74"
       style="clip-rule:evenodd;fill-rule:evenodd;image-rendering:optimizeQuality;shape-rendering:geometricPrecision;text-rendering:geometricPrecision"
       transform="matrix(0.30166704,0,0,0.30166704,-7.3737208,-4.1017886)">
      <path
         style="opacity:1"
         fill="#f9e587"
         d="m 164.5,107.5 c 0.111,0.617 0.444,1.117 1,1.5 13.333,0.333 26.667,0.667 40,1 0.752,0.671 1.086,1.504 1,2.5 -13.981,1.447 -27.981,1.28 -42,-0.5 -7.031,-6.774 -15.031,-8.274 -24,-4.5 -0.214,-1.644 0.12,-3.144 1,-4.5 9.052,-4.5101 16.719,-3.0101 23,4.5 z"
         id="path74" />
    </g>
    <g
       id="g75"
       style="clip-rule:evenodd;fill-rule:evenodd;image-rendering:optimizeQuality;shape-rendering:geometricPrecision;text-rendering:geometricPrecision"
       transform="matrix(0.30166704,0,0,0.30166704,-7.3737208,-4.1017886)">
      <path
         style="opacity:1"
         fill="#f9e277"
         d="m 206.5,112.5 c 0.086,-0.996 -0.248,-1.829 -1,-2.5 -13.333,-0.333 -26.667,-0.667 -40,-1 -0.556,-0.383 -0.889,-0.883 -1,-1.5 14.461,1.307 28.794,1.307 43,0 2.47,-0.154 4.47,-1.154 6,-3 7.788,-6.7049 15.455,-6.5382 23,0.5 1.667,3.333 0.667,4.667 -3,4 -1.051,-1.385 -2.384,-2.385 -4,-3 -3.667,-0.667 -7.333,-0.667 -11,0 -3.607,2.969 -7.607,5.136 -12,6.5 z"
         id="path75" />
    </g>
    <g
       id="g76"
       style="clip-rule:evenodd;fill-rule:evenodd;image-rendering:optimizeQuality;shape-rendering:geometricPrecision;text-rendering:geometricPrecision"
       transform="matrix(0.30166704,0,0,0.30166704,-7.3737208,-4.1017886)">
      <path
         style="opacity:1"
         fill="#faec86"
         d="m 195.5,87.5 c 0.667,0 1.333,0 2,0 0.613,5.7709 -0.054,11.1042 -2,16 0,-5.3333 0,-10.6667 0,-16 z"
         id="path76" />
    </g>
    <g
       id="g82"
       style="clip-rule:evenodd;fill-rule:evenodd;image-rendering:optimizeQuality;shape-rendering:geometricPrecision;text-rendering:geometricPrecision"
       transform="matrix(0.30166704,0,0,0.30166704,-7.3737208,-4.1017886)">
      <path
         style="opacity:1"
         fill="#faf9e2"
         d="m 236.5,97.5 c 1.43,-0.0792 2.764,0.2542 4,1 1.945,3.058 4.611,5.224 8,6.5 4.591,4.751 8.591,9.918 12,15.5 -2.073,-2.08 -4.407,-3.746 -7,-5 -4.027,-4.694 -8.36,-9.027 -13,-13 -0.8,-2.073 -2.133,-3.7402 -4,-5 z"
         id="path82" />
    </g>
    <g
       id="g93"
       style="clip-rule:evenodd;fill-rule:evenodd;image-rendering:optimizeQuality;shape-rendering:geometricPrecision;text-rendering:geometricPrecision"
       transform="matrix(0.30166704,0,0,0.30166704,-7.3737208,-4.1017886)">
      <path
         style="opacity:1"
         fill="#faf7c9"
         d="m 124.5,112.5 c -3.201,3.7 -6.034,7.7 -8.5,12 -0.49,2.045 -0.323,4.045 0.5,6 -0.617,-0.111 -1.117,-0.444 -1.5,-1 -1.172,-4.959 -0.005,-9.292 3.5,-13 2.036,-1.385 4.036,-2.718 6,-4 z"
         id="path93" />
    </g>
    <g
       id="g94"
       style="clip-rule:evenodd;fill-rule:evenodd;image-rendering:optimizeQuality;shape-rendering:geometricPrecision;text-rendering:geometricPrecision"
       transform="matrix(0.30166704,0,0,0.30166704,-7.3737208,-4.1017886)">
      <path
         style="opacity:1"
         fill="#faf9e4"
         d="m 232.5,118.5 c 4.657,4.331 9.324,8.665 14,13 1.268,1.887 3.101,2.887 5.5,3 2.708,-0.609 5.208,-1.609 7.5,-3 0.667,-0.333 1.333,-0.667 2,-1 -0.902,3.406 -3.069,5.739 -6.5,7 -3.099,-0.955 -6.266,-1.789 -9.5,-2.5 -3.612,-3.823 -7.278,-7.656 -11,-11.5 -1.45,-1.35 -2.117,-3.016 -2,-5 z"
         id="path94" />
    </g>
    <g
       id="g97"
       style="clip-rule:evenodd;fill-rule:evenodd;image-rendering:optimizeQuality;shape-rendering:geometricPrecision;text-rendering:geometricPrecision"
       transform="matrix(0.30166704,0,0,0.30166704,-7.3737208,-4.1017886)">
      <path
         style="opacity:1"
         fill="#f9e382"
         d="m 121.5,129.5 c -0.734,-1.208 -1.067,-2.541 -1,-4 4.093,-5.269 8.426,-10.435 13,-15.5 2.252,0.05 3.918,1.216 5,3.5 -4.204,5.219 -8.537,10.386 -13,15.5 -1.293,0.49 -2.627,0.657 -4,0.5 z"
         id="path97" />
    </g>
    <g
       id="g98"
       style="clip-rule:evenodd;fill-rule:evenodd;image-rendering:optimizeQuality;shape-rendering:geometricPrecision;text-rendering:geometricPrecision"
       transform="matrix(0.30166704,0,0,0.30166704,-7.3737208,-4.1017886)">
      <path
         style="opacity:1"
         fill="#f9f4c0"
         d="m 246.5,131.5 c -4.676,-4.335 -9.343,-8.669 -14,-13 -1.533,-1.855 -3.2,-3.688 -5,-5.5 -5.239,-0.781 -9.905,0.553 -14,4 -2.924,0.988 -5.924,1.654 -9,2 -1.541,1.371 -2.875,2.871 -4,4.5 -0.333,0 -0.667,0 -1,0 1.13,-1.815 1.796,-3.815 2,-6 7.867,0.546 14.533,-1.954 20,-7.5 2.727,-0.818 5.394,-0.652 8,0.5 5.915,6.847 11.581,13.847 17,21 z"
         id="path98" />
    </g>
    <g
       id="g101"
       style="clip-rule:evenodd;fill-rule:evenodd;image-rendering:optimizeQuality;shape-rendering:geometricPrecision;text-rendering:geometricPrecision"
       transform="matrix(0.30166704,0,0,0.30166704,-7.3737208,-4.1017886)">
      <path
         style="opacity:1"
         fill="#f9e281"
         d="m 240.5,109.5 c 1.517,0.011 2.684,0.677 3.5,2 2.954,4.89 6.621,9.223 11,13 0.494,1.634 0.66,3.301 0.5,5 -1.699,0.16 -3.366,-0.006 -5,-0.5 -3.642,-4.594 -7.475,-9.094 -11.5,-13.5 -0.374,-0.916 -0.874,-1.75 -1.5,-2.5 1.21,-1.039 2.21,-2.206 3,-3.5 z"
         id="path101" />
    </g>
    <g
       id="g104"
       style="clip-rule:evenodd;fill-rule:evenodd;image-rendering:optimizeQuality;shape-rendering:geometricPrecision;text-rendering:geometricPrecision"
       transform="matrix(0.30166704,0,0,0.30166704,-7.3737208,-4.1017886)">
      <path
         style="opacity:1"
         fill="#f8efb8"
         d="m 253.5,115.5 c 2.593,1.254 4.927,2.92 7,5 0.707,3.286 1.04,6.619 1,10 -0.667,0.333 -1.333,0.667 -2,1 0.783,-6.424 -1.217,-11.758 -6,-16 z"
         id="path104" />
    </g>
    <g
       id="g105"
       style="clip-rule:evenodd;fill-rule:evenodd;image-rendering:optimizeQuality;shape-rendering:geometricPrecision;text-rendering:geometricPrecision"
       transform="matrix(0.30166704,0,0,0.30166704,-7.3737208,-4.1017886)">
      <path
         style="opacity:1"
         fill="#e4c860"
         d="m 124.5,112.5 c 0.333,0 0.667,0 1,0 -0.392,1.679 -0.892,3.346 -1.5,5 -4.019,1.582 -5.186,4.249 -3.5,8 -0.067,1.459 0.266,2.792 1,4 -0.904,0.709 -1.237,1.709 -1,3 2,0 4,0 6,0 -3.724,1.655 -7.057,0.989 -10,-2 -0.823,-1.955 -0.99,-3.955 -0.5,-6 2.466,-4.3 5.299,-8.3 8.5,-12 z"
         id="path105" />
    </g>
    <g
       id="g111"
       style="clip-rule:evenodd;fill-rule:evenodd;image-rendering:optimizeQuality;shape-rendering:geometricPrecision;text-rendering:geometricPrecision"
       transform="matrix(0.30166704,0,0,0.30166704,-7.3737208,-4.1017886)">
      <path
         style="opacity:1"
         fill="#faf9e8"
         d="m 157.5,115.5 c 1.667,0 3.333,0 5,0 1.542,0.801 3.208,1.134 5,1 1.171,0.845 2.505,1.511 4,2 1.874,3.735 4.374,7.068 7.5,10 0.667,14 0.667,28 0,42 -0.667,2 -1.333,4 -2,6 0.101,-7.204 -2.399,-13.204 -7.5,-18 5.062,1.255 7.562,4.588 7.5,10 0.22,-11.786 0.386,-23.286 0.5,-34.5 -1.546,-4.545 -3.546,-8.878 -6,-13 -3.052,-1.211 -6.219,-2.045 -9.5,-2.5 -1.942,-0.459 -3.442,-1.459 -4.5,-3 z"
         id="path111" />
    </g>
    <g
       id="g115"
       style="clip-rule:evenodd;fill-rule:evenodd;image-rendering:optimizeQuality;shape-rendering:geometricPrecision;text-rendering:geometricPrecision"
       transform="matrix(0.30166704,0,0,0.30166704,-7.3737208,-4.1017886)">
      <path
         style="opacity:1"
         fill="#f5ecb3"
         d="m 140.5,118.5 c -3.712,6.22 -8.379,11.72 -14,16.5 -2.667,0.667 -5.333,0.667 -8,0 -1.082,-1.33 -1.749,-2.83 -2,-4.5 2.943,2.989 6.276,3.655 10,2 5,-4.333 9.667,-9 14,-14 z"
         id="path115" />
    </g>
    <g
       id="g129"
       style="clip-rule:evenodd;fill-rule:evenodd;image-rendering:optimizeQuality;shape-rendering:geometricPrecision;text-rendering:geometricPrecision"
       transform="matrix(0.30166704,0,0,0.30166704,-7.3737208,-4.1017886)">
      <path
         style="opacity:1"
         fill="#faf9e9"
         d="m 198.5,123.5 c 0.333,0 0.667,0 1,0 0.333,0 0.667,0 1,0 -2.085,4.01 -3.085,8.343 -3,13 0.269,13.085 0.269,26.085 0,39 1.623,2.357 3.623,4.524 6,6.5 2.176,0.163 4.009,0.996 5.5,2.5 1.379,4.536 1.879,9.203 1.5,14 6.098,-0.617 11.765,0.05 17,2 -6.333,0 -12.667,0 -19,0 0.608,-5.444 -0.058,-10.444 -2,-15 -0.333,0 -0.667,0 -1,0 -1.836,-2.088 -4.169,-3.421 -7,-4 -0.622,-1.127 -1.455,-2.127 -2.5,-3 -0.667,-17 -0.667,-34 0,-51 1.481,-0.971 2.315,-2.304 2.5,-4 z"
         id="path129" />
    </g>
    <g
       id="g131"
       style="clip-rule:evenodd;fill-rule:evenodd;image-rendering:optimizeQuality;shape-rendering:geometricPrecision;text-rendering:geometricPrecision"
       transform="matrix(0.30166704,0,0,0.30166704,-7.3737208,-4.1017886)">
      <path
         style="opacity:1"
         fill="#f8ea9e"
         d="m 167.5,116.5 c 2.027,-0.162 4.027,0.005 6,0.5 1.97,3.537 4.47,6.704 7.5,9.5 0.483,0.948 0.649,1.948 0.5,3 0.33,16.842 -0.003,33.508 -1,50 0.167,-17.337 0,-34.67 -0.5,-52 -2.472,-1.798 -4.139,-4.132 -5,-7 -0.816,-1.323 -1.983,-1.989 -3.5,-2 -1.495,-0.489 -2.829,-1.155 -4,-2 z"
         id="path131" />
    </g>
    <g
       id="g136"
       style="clip-rule:evenodd;fill-rule:evenodd;image-rendering:optimizeQuality;shape-rendering:geometricPrecision;text-rendering:geometricPrecision"
       transform="matrix(0.30166704,0,0,0.30166704,-7.3737208,-4.1017886)">
      <path
         style="opacity:1"
         fill="#f9f2b8"
         d="m 198.5,123.5 c -0.185,1.696 -1.019,3.029 -2.5,4 -0.667,17 -0.667,34 0,51 1.045,0.873 1.878,1.873 2.5,3 -1.083,-0.039 -2.083,-0.373 -3,-1 -1,-17.988 -1.333,-35.988 -1,-54 1.333,-1 2.667,-2 4,-3 z"
         id="path136" />
    </g>
    <g
       id="g140"
       style="clip-rule:evenodd;fill-rule:evenodd;image-rendering:optimizeQuality;shape-rendering:geometricPrecision;text-rendering:geometricPrecision"
       transform="matrix(0.30166704,0,0,0.30166704,-7.3737208,-4.1017886)">
      <path
         style="opacity:1"
         fill="#fae484"
         d="m 185.5,180.5 c 0,-1 0,-2 0,-3 1.032,-4.841 1.032,-9.841 0,-15 0,-10.333 0,-20.667 0,-31 0.823,-3.477 1.323,-7.144 1.5,-11 0.667,0.667 1.333,1.333 2,2 0.833,27.006 0.667,54.006 -0.5,81 -0.586,-0.209 -1.086,-0.543 -1.5,-1 -0.832,-7.315 -1.332,-14.648 -1.5,-22 z"
         id="path140" />
    </g>
    <g
       id="g143"
       style="clip-rule:evenodd;fill-rule:evenodd;image-rendering:optimizeQuality;shape-rendering:geometricPrecision;text-rendering:geometricPrecision"
       transform="matrix(0.30166704,0,0,0.30166704,-7.3737208,-4.1017886)">
      <path
         style="opacity:1"
         fill="#f9f6c1"
         d="m 171.5,118.5 c 1.517,0.011 2.684,0.677 3.5,2 0.861,2.868 2.528,5.202 5,7 0.5,17.33 0.667,34.663 0.5,52 -1.935,0.65 -3.935,0.983 -6,1 0.271,-5.413 -0.229,-10.746 -1.5,-16 -2.018,-0.723 -3.852,-1.723 -5.5,-3 -0.111,-0.617 -0.444,-1.117 -1,-1.5 -6,-0.667 -12,-0.667 -18,0 -3.847,3.421 -3.847,7.088 0,11 5.849,0.818 11.515,0.652 17,-0.5 0.333,0 0.667,0 1,0 1,0 2,0 3,0 0,5.667 0,11.333 0,17 -0.667,0 -1.333,0 -2,0 0,-5 0,-10 0,-15 -6,0 -12,0 -18,0 -2.403,0.107 -4.236,-0.893 -5.5,-3 -1.735,-5.744 0.098,-9.578 5.5,-11.5 6.717,-0.756 13.383,-0.589 20,0.5 5.101,4.796 7.601,10.796 7.5,18 0.667,-2 1.333,-4 2,-6 0.667,-14 0.667,-28 0,-42 -3.126,-2.932 -5.626,-6.265 -7.5,-10 z"
         id="path143" />
    </g>
    <g
       id="g144"
       style="clip-rule:evenodd;fill-rule:evenodd;image-rendering:optimizeQuality;shape-rendering:geometricPrecision;text-rendering:geometricPrecision"
       transform="matrix(0.30166704,0,0,0.30166704,-7.3737208,-4.1017886)">
      <path
         style="opacity:1"
         fill="#e1c95d"
         d="m 167.5,161.5 c -5.615,-1.073 -11.282,-1.24 -17,-0.5 -3.478,2.706 -3.811,5.706 -1,9 5.323,0.499 10.656,0.666 16,0.5 -5.485,1.152 -11.151,1.318 -17,0.5 -3.847,-3.912 -3.847,-7.579 0,-11 6,-0.667 12,-0.667 18,0 0.556,0.383 0.889,0.883 1,1.5 z"
         id="path144" />
    </g>
    <g
       id="g147"
       style="clip-rule:evenodd;fill-rule:evenodd;image-rendering:optimizeQuality;shape-rendering:geometricPrecision;text-rendering:geometricPrecision"
       transform="matrix(0.30166704,0,0,0.30166704,-7.3737208,-4.1017886)">
      <path
         style="opacity:1"
         fill="#ecc731"
         d="m 167.5,161.5 c 0.011,1.517 0.677,2.684 2,3.5 -1.139,1.78 -2.139,3.614 -3,5.5 -0.333,0 -0.667,0 -1,0 -5.344,0.166 -10.677,-0.001 -16,-0.5 -2.811,-3.294 -2.478,-6.294 1,-9 5.718,-0.74 11.385,-0.573 17,0.5 z"
         id="path147" />
    </g>
    <g
       id="g151"
       style="clip-rule:evenodd;fill-rule:evenodd;image-rendering:optimizeQuality;shape-rendering:geometricPrecision;text-rendering:geometricPrecision"
       transform="matrix(0.30166704,0,0,0.30166704,-7.3737208,-4.1017886)">
      <path
         style="opacity:1"
         fill="#e4cd6b"
         d="m 181.5,129.5 c 0.83,10.492 1.33,21.159 1.5,32 0.671,0.752 1.504,1.086 2.5,1 1.032,5.159 1.032,10.159 0,15 0.317,-3.072 -0.016,-6.072 -1,-9 -0.586,0.209 -1.086,0.543 -1.5,1 -0.13,4.451 -0.796,8.784 -2,13 -2.888,2.486 -5.721,2.486 -8.5,0 -1.813,3.69 -0.813,6.024 3,7 -0.667,0 -1.333,0 -2,0 -1.562,-0.233 -2.895,-0.9 -4,-2 0,-5.667 0,-11.333 0,-17 -1,0 -2,0 -3,0 0.861,-1.886 1.861,-3.72 3,-5.5 -1.323,-0.816 -1.989,-1.983 -2,-3.5 1.648,1.277 3.482,2.277 5.5,3 1.271,5.254 1.771,10.587 1.5,16 2.065,-0.017 4.065,-0.35 6,-1 0.997,-16.492 1.33,-33.158 1,-50 z"
         id="path151" />
    </g>
    <g
       id="g154"
       style="clip-rule:evenodd;fill-rule:evenodd;image-rendering:optimizeQuality;shape-rendering:geometricPrecision;text-rendering:geometricPrecision"
       transform="matrix(0.30166704,0,0,0.30166704,-7.3737208,-4.1017886)">
      <path
         style="opacity:1"
         fill="#faf9e0"
         d="m 149.5,172.5 c 6,0 12,0 18,0 0,5 0,10 0,15 -0.986,-4.47 -1.319,-9.137 -1,-14 -5.858,0.322 -11.525,-0.011 -17,-1 z"
         id="path154" />
    </g>
    <g
       id="g159"
       style="clip-rule:evenodd;fill-rule:evenodd;image-rendering:optimizeQuality;shape-rendering:geometricPrecision;text-rendering:geometricPrecision"
       transform="matrix(0.30166704,0,0,0.30166704,-7.3737208,-4.1017886)">
      <path
         style="opacity:1"
         fill="#f8f1bb"
         d="m 198.5,181.5 c 2.831,0.579 5.164,1.912 7,4 -1,0 -2,0 -3,0 -1,0 -2,0 -3,0 0.067,-1.459 -0.266,-2.792 -1,-4 z"
         id="path159" />
    </g>
    <g
       id="g163"
       style="clip-rule:evenodd;fill-rule:evenodd;image-rendering:optimizeQuality;shape-rendering:geometricPrecision;text-rendering:geometricPrecision"
       transform="matrix(0.30166704,0,0,0.30166704,-7.3737208,-4.1017886)">
      <path
         style="opacity:1"
         fill="#f5e073"
         d="m 204.5,210.5 c -1.902,2.837 -2.569,6.171 -2,10 -0.333,0 -0.667,0 -1,0 -0.682,-10.319 -1.015,-20.653 -1,-31 1,0 2,0 3,0 -0.295,7.088 0.038,14.088 1,21 z"
         id="path163" />
    </g>
    <g
       id="g164"
       style="clip-rule:evenodd;fill-rule:evenodd;image-rendering:optimizeQuality;shape-rendering:geometricPrecision;text-rendering:geometricPrecision"
       transform="matrix(0.30166704,0,0,0.30166704,-7.3737208,-4.1017886)">
      <path
         style="opacity:1"
         fill="#f1d666"
         d="m 194.5,126.5 c -0.333,18.012 0,36.012 1,54 0.917,0.627 1.917,0.961 3,1 0.734,1.208 1.067,2.541 1,4 -1,0 -2,0 -3,0 0.406,8.674 0.573,17.341 0.5,26 -2.994,-4.505 -7.161,-6.505 -12.5,-6 0.449,-5.852 -0.051,-11.519 -1.5,-17 -1.204,6.253 -1.871,12.586 -2,19 -0.608,1.566 -1.442,2.9 -2.5,4 0.847,-8.972 1.18,-17.972 1,-27 1.478,0.262 2.811,-0.071 4,-1 0.442,-1.239 1.109,-2.239 2,-3 0.168,7.352 0.668,14.685 1.5,22 0.414,0.457 0.914,0.791 1.5,1 1.167,-26.994 1.333,-53.994 0.5,-81 -0.667,-0.667 -1.333,-1.333 -2,-2 -0.177,3.856 -0.677,7.523 -1.5,11 0,-4.667 0,-9.333 0,-14 1.667,0 3.333,0 5,0 -0.222,28.347 0.278,56.68 1.5,85 1.157,-25.357 1.991,-50.69 2.5,-76 z"
         id="path164" />
    </g>
    <g
       id="g165"
       style="clip-rule:evenodd;fill-rule:evenodd;image-rendering:optimizeQuality;shape-rendering:geometricPrecision;text-rendering:geometricPrecision"
       transform="matrix(0.30166704,0,0,0.30166704,-7.3737208,-4.1017886)">
      <path
         style="opacity:1"
         fill="#e9c43f"
         d="m 199.5,185.5 c 1,0 2,0 3,0 0.672,0.767 1.505,1.434 2.5,2 0.191,5.583 0.691,11.083 1.5,16.5 6.644,-0.378 13.311,-0.378 20,0 1.944,2.153 2.444,4.653 1.5,7.5 -5.649,1.988 -11.482,2.488 -17.5,1.5 -0.971,-1.481 -2.304,-2.315 -4,-2.5 -0.667,0 -1.333,0 -2,0 -0.962,-6.912 -1.295,-13.912 -1,-21 -1,0 -2,0 -3,0 -0.015,10.347 0.318,20.681 1,31 0,4.667 0,9.333 0,14 -1.501,-1.252 -3.168,-2.252 -5,-3 -1.672,-6.194 -2.839,-12.527 -3.5,-19 -2.362,-4.138 -5.362,-4.805 -9,-2 -0.703,7.144 -2.537,13.81 -5.5,20 -1,0 -2,0 -3,0 -0.59,-6.636 0.41,-12.969 3,-19 1.058,-1.1 1.892,-2.434 2.5,-4 0.129,-6.414 0.796,-12.747 2,-19 1.449,5.481 1.949,11.148 1.5,17 5.339,-0.505 9.506,1.495 12.5,6 0.073,-8.659 -0.094,-17.326 -0.5,-26 1,0 2,0 3,0 z"
         id="path165" />
    </g>
    <g
       id="g176"
       style="clip-rule:evenodd;fill-rule:evenodd;image-rendering:optimizeQuality;shape-rendering:geometricPrecision;text-rendering:geometricPrecision"
       transform="matrix(0.30166704,0,0,0.30166704,-7.3737208,-4.1017886)">
      <path
         style="opacity:1"
         fill="#e3c54f"
         d="m 185.5,177.5 c 0,1 0,2 0,3 -0.891,0.761 -1.558,1.761 -2,3 -1.189,0.929 -2.522,1.262 -4,1 0.18,9.028 -0.153,18.028 -1,27 -2.59,6.031 -3.59,12.364 -3,19 1,0 2,0 3,0 -3.757,4.507 -6.757,9.507 -9,15 1.838,4.182 4.838,6.849 9,8 -1.788,-0.285 -3.455,0.048 -5,1 1.598,2.381 3.932,3.548 7,3.5 0.626,0.75 1.126,1.584 1.5,2.5 0.202,13.711 0.702,27.378 1.5,41 -0.65,-0.304 -1.317,-0.637 -2,-1 -0.833,-12.32 -1.333,-24.653 -1.5,-37 -1.292,-1.291 -2.458,-1.291 -3.5,0 -1.322,0.17 -2.489,-0.163 -3.5,-1 -0.198,-1.882 -0.698,-3.548 -1.5,-5 -1.587,-2.768 -3.42,-5.435 -5.5,-8 -1.089,-5.056 -0.256,-9.722 2.5,-14 1.629,-1.125 3.129,-2.459 4.5,-4 0.247,-14.157 1.08,-28.157 2.5,-42 -3.813,-0.976 -4.813,-3.31 -3,-7 2.779,2.486 5.612,2.486 8.5,0 1.204,-4.216 1.87,-8.549 2,-13 0.414,-0.457 0.914,-0.791 1.5,-1 0.984,2.928 1.317,5.928 1,9 z"
         id="path176" />
    </g>
    <g
       id="g177"
       style="clip-rule:evenodd;fill-rule:evenodd;image-rendering:optimizeQuality;shape-rendering:geometricPrecision;text-rendering:geometricPrecision"
       transform="matrix(0.30166704,0,0,0.30166704,-7.3737208,-4.1017886)">
      <path
         style="opacity:1"
         fill="#faf6c5"
         d="m 173.5,189.5 c 0.667,0 1.333,0 2,0 -1.42,13.843 -2.253,27.843 -2.5,42 -1.371,1.541 -2.871,2.875 -4.5,4 -0.039,-1.859 0.794,-3.192 2.5,-4 1.271,-13.975 2.104,-27.975 2.5,-42 z"
         id="path177" />
    </g>
    <g
       id="g180"
       style="clip-rule:evenodd;fill-rule:evenodd;image-rendering:optimizeQuality;shape-rendering:geometricPrecision;text-rendering:geometricPrecision"
       transform="matrix(0.30166704,0,0,0.30166704,-7.3737208,-4.1017886)">
      <path
         style="opacity:1"
         fill="#e3c964"
         d="m 202.5,185.5 c 1,0 2,0 3,0 0.333,0 0.667,0 1,0 0,5.333 0,10.667 0,16 6.675,-0.166 13.342,0 20,0.5 3.792,2.053 4.958,5.219 3.5,9.5 -1.171,1.393 -2.671,2.227 -4.5,2.5 -5.333,0.667 -10.667,0.667 -16,0 -1.21,-1.039 -2.21,-2.206 -3,-3.5 1.696,0.185 3.029,1.019 4,2.5 6.018,0.988 11.851,0.488 17.5,-1.5 0.944,-2.847 0.444,-5.347 -1.5,-7.5 -6.689,-0.378 -13.356,-0.378 -20,0 -0.809,-5.417 -1.309,-10.917 -1.5,-16.5 -0.995,-0.566 -1.828,-1.233 -2.5,-2 z"
         id="path180" />
    </g>
    <g
       id="g189"
       style="clip-rule:evenodd;fill-rule:evenodd;image-rendering:optimizeQuality;shape-rendering:geometricPrecision;text-rendering:geometricPrecision"
       transform="matrix(0.30166704,0,0,0.30166704,-7.3737208,-4.1017886)">
      <path
         style="opacity:1"
         fill="#f9f3bf"
         d="m 206.5,185.5 c 1.942,4.556 2.608,9.556 2,15 6.333,0 12.667,0 19,0 6.657,4.903 6.657,10.07 0,15.5 -7.689,0.647 -15.356,0.48 -23,-0.5 -0.166,5.011 0.001,10.011 0.5,15 6.525,6.535 8.192,14.201 5,23 -1.11,1.537 -2.61,2.203 -4.5,2 0.162,2.027 -0.005,4.027 -0.5,6 -0.417,1.256 -1.25,1.923 -2.5,2 0.605,-2.627 1.105,-5.293 1.5,-8 5.466,-3.572 7.466,-8.572 6,-15 -6.141,-5.284 -8.641,-11.951 -7.5,-20 -0.569,-3.829 0.098,-7.163 2,-10 0.667,0 1.333,0 2,0 0.79,1.294 1.79,2.461 3,3.5 5.333,0.667 10.667,0.667 16,0 1.829,-0.273 3.329,-1.107 4.5,-2.5 1.458,-4.281 0.292,-7.447 -3.5,-9.5 -6.658,-0.5 -13.325,-0.666 -20,-0.5 0,-5.333 0,-10.667 0,-16 z"
         id="path189" />
    </g>
    <g
       id="g190"
       style="clip-rule:evenodd;fill-rule:evenodd;image-rendering:optimizeQuality;shape-rendering:geometricPrecision;text-rendering:geometricPrecision"
       transform="matrix(0.30166704,0,0,0.30166704,-7.3737208,-4.1017886)">
      <path
         style="opacity:1"
         fill="#e6c756"
         d="m 201.5,220.5 c 0.333,0 0.667,0 1,0 -1.141,8.049 1.359,14.716 7.5,20 1.466,6.428 -0.534,11.428 -6,15 -0.395,2.707 -0.895,5.373 -1.5,8 -1,0 -2,0 -3,0 -0.267,-2.812 -1.267,-5.145 -3,-7 0.763,-0.768 1.763,-1.268 3,-1.5 -6.513,-0.172 -12.847,-0.672 -19,-1.5 8.088,0.847 15.755,-0.32 23,-3.5 1.444,-1.126 2.11,-2.626 2,-4.5 -0.57,-4.053 -1.904,-7.72 -4,-11 0,-4.667 0,-9.333 0,-14 z"
         id="path190" />
    </g>
    <g
       id="g194"
       style="clip-rule:evenodd;fill-rule:evenodd;image-rendering:optimizeQuality;shape-rendering:geometricPrecision;text-rendering:geometricPrecision"
       transform="matrix(0.30166704,0,0,0.30166704,-7.3737208,-4.1017886)">
      <path
         style="opacity:1"
         fill="#f9e285"
         d="m 196.5,231.5 c 1.832,0.748 3.499,1.748 5,3 2.096,3.28 3.43,6.947 4,11 0.11,1.874 -0.556,3.374 -2,4.5 -7.245,3.18 -14.912,4.347 -23,3.5 -0.667,0 -1.333,0 -2,0 -4.162,-1.151 -7.162,-3.818 -9,-8 2.243,-5.493 5.243,-10.493 9,-15 2.963,-6.19 4.797,-12.856 5.5,-20 3.638,-2.805 6.638,-2.138 9,2 0.661,6.473 1.828,12.806 3.5,19 z"
         id="path194" />
    </g>
    <g
       id="g199"
       style="clip-rule:evenodd;fill-rule:evenodd;image-rendering:optimizeQuality;shape-rendering:geometricPrecision;text-rendering:geometricPrecision"
       transform="matrix(0.30166704,0,0,0.30166704,-7.3737208,-4.1017886)">
      <path
         style="opacity:1"
         fill="#f6e197"
         d="m 196.5,231.5 c 1.721,4.539 3.888,8.872 6.5,13 0.595,1.399 0.428,2.732 -0.5,4 -2.682,1.38 -5.516,2.38 -8.5,3 -3.106,-0.953 -5.939,-0.953 -8.5,0 -3.801,-0.542 -7.467,-1.542 -11,-3 -1.682,-3.741 -0.682,-6.574 3,-8.5 -1.333,-1.84 -1.166,-2.34 0.5,-1.5 0.019,-2.808 1.019,-5.141 3,-7 1.606,-6.927 3.44,-13.76 5.5,-20.5 1.399,-0.595 2.732,-0.428 4,0.5 0.66,6.428 1.827,12.762 3.5,19 0.671,0.752 1.504,1.086 2.5,1 z"
         id="path199" />
    </g>
    <g
       id="g205"
       style="clip-rule:evenodd;fill-rule:evenodd;image-rendering:optimizeQuality;shape-rendering:geometricPrecision;text-rendering:geometricPrecision"
       transform="matrix(0.30166704,0,0,0.30166704,-7.3737208,-4.1017886)">
      <path
         style="opacity:1"
         fill="#efc72f"
         d="m 178.5,253.5 c 0.667,0 1.333,0 2,0 6.153,0.828 12.487,1.328 19,1.5 -1.237,0.232 -2.237,0.732 -3,1.5 -0.333,0.667 -0.667,1.333 -1,2 -0.997,14.528 -1.997,29.195 -3,44 -2.312,1.867 -4.979,2.367 -8,1.5 -0.752,-0.671 -1.086,-1.504 -1,-2.5 -0.798,-13.622 -1.298,-27.289 -1.5,-41 -0.374,-0.916 -0.874,-1.75 -1.5,-2.5 -3.068,0.048 -5.402,-1.119 -7,-3.5 1.545,-0.952 3.212,-1.285 5,-1 z"
         id="path205" />
    </g>
    <g
       id="g212"
       style="clip-rule:evenodd;fill-rule:evenodd;image-rendering:optimizeQuality;shape-rendering:geometricPrecision;text-rendering:geometricPrecision"
       transform="matrix(0.30166704,0,0,0.30166704,-7.3737208,-4.1017886)">
      <path
         style="opacity:1"
         fill="#faf9e7"
         d="m 169.5,187.5 c 1.105,1.1 2.438,1.767 4,2 -0.396,14.025 -1.229,28.025 -2.5,42 -1.706,0.808 -2.539,2.141 -2.5,4 -2.756,4.278 -3.589,8.944 -2.5,14 2.08,2.565 3.913,5.232 5.5,8 -1.163,5.834 1.171,8.5 7,8 -0.328,11.845 0.005,23.512 1,35 -0.203,1.89 0.463,3.39 2,4.5 3.188,1.316 6.522,1.816 10,1.5 -5.222,3.238 -9.722,2.238 -13.5,-3 -1.104,-11.611 -1.937,-23.278 -2.5,-35 -1.758,-0.628 -3.258,-1.628 -4.5,-3 -0.667,-2.667 -1.333,-5.333 -2,-8 -4.591,-2.922 -7.091,-7.089 -7.5,-12.5 1.183,-3.093 2.183,-6.593 3,-10.5 1,0 2,0 3,0 0.229,-1.933 1.062,-3.6 2.5,-5 0.238,-7.029 0.738,-14.029 1.5,-21 -0.52,-3.78 -0.52,-7.613 0,-11.5 -0.231,-3.282 -0.897,-6.449 -2,-9.5 z"
         id="path212" />
    </g>
    <g
       id="g223"
       style="clip-rule:evenodd;fill-rule:evenodd;image-rendering:optimizeQuality;shape-rendering:geometricPrecision;text-rendering:geometricPrecision"
       transform="matrix(0.30166704,0,0,0.30166704,-7.3737208,-4.1017886)">
      <path
         style="opacity:1"
         fill="#f9f7c2"
         d="m 171.5,257.5 c 0.802,1.452 1.302,3.118 1.5,5 1.011,0.837 2.178,1.17 3.5,1 0.996,-0.086 1.829,0.248 2.5,1 0.5,11.995 0.667,23.995 0.5,36 -0.995,-11.488 -1.328,-23.155 -1,-35 -5.829,0.5 -8.163,-2.166 -7,-8 z"
         id="path223" />
    </g>
    <g
       id="g228"
       style="clip-rule:evenodd;fill-rule:evenodd;image-rendering:optimizeQuality;shape-rendering:geometricPrecision;text-rendering:geometricPrecision"
       transform="matrix(0.30166704,0,0,0.30166704,-7.3737208,-4.1017886)">
      <path
         style="opacity:1"
         fill="#f6e698"
         d="m 196.5,256.5 c 1.733,1.855 2.733,4.188 3,7 -1,0 -2,0 -3,0 0,12.333 0,24.667 0,37 -0.212,3.212 -1.879,5.212 -5,6 -3.478,0.316 -6.812,-0.184 -10,-1.5 -1.537,-1.11 -2.203,-2.61 -2,-4.5 0.167,-12.005 0,-24.005 -0.5,-36 -0.671,-0.752 -1.504,-1.086 -2.5,-1 1.042,-1.291 2.208,-1.291 3.5,0 0.167,12.347 0.667,24.68 1.5,37 0.683,0.363 1.35,0.696 2,1 -0.086,0.996 0.248,1.829 1,2.5 3.021,0.867 5.688,0.367 8,-1.5 0.958,-0.453 1.792,-1.119 2.5,-2 0.5,-13.996 0.667,-27.996 0.5,-42 0.333,-0.667 0.667,-1.333 1,-2 z"
         id="path228" />
    </g>
    <g
       id="g240"
       style="clip-rule:evenodd;fill-rule:evenodd;image-rendering:optimizeQuality;shape-rendering:geometricPrecision;text-rendering:geometricPrecision"
       transform="matrix(0.30166704,0,0,0.30166704,-7.3737208,-4.1017886)">
      <path
         style="opacity:1"
         fill="#e3c64f"
         d="m 195.5,258.5 c 0.167,14.004 0,28.004 -0.5,42 -0.708,0.881 -1.542,1.547 -2.5,2 1.003,-14.805 2.003,-29.472 3,-44 z"
         id="path240" />
    </g>
    <g
       id="g244"
       style="clip-rule:evenodd;fill-rule:evenodd;image-rendering:optimizeQuality;shape-rendering:geometricPrecision;text-rendering:geometricPrecision"
       transform="matrix(0.30166704,0,0,0.30166704,-7.3737208,-4.1017886)">
      <path
         style="opacity:1"
         fill="#f9f7c6"
         d="m 199.5,263.5 c 1,0 2,0 3,0 -1.419,0.951 -3.085,1.284 -5,1 0.328,12.178 -0.005,24.178 -1,36 0,-12.333 0,-24.667 0,-37 1,0 2,0 3,0 z"
         id="path244" />
    </g>
  </g>
</svg>
