<?xml version="1.0" encoding="UTF-8" standalone="no"?>
<!-- Created with Inkscape (http://www.inkscape.org/) -->

<svg
   width="96mm"
   height="96mm"
   viewBox="0 0 96 96"
   version="1.1"
   id="svg1"
   inkscape:version="1.4.2 (ebf0e940, 2025-05-08)"
   sodipodi:docname="default.svg"
   xmlns:inkscape="http://www.inkscape.org/namespaces/inkscape"
   xmlns:sodipodi="http://sodipodi.sourceforge.net/DTD/sodipodi-0.dtd"
   xmlns="http://www.w3.org/2000/svg"
   xmlns:svg="http://www.w3.org/2000/svg">
  <sodipodi:namedview
     id="namedview1"
     pagecolor="#ffffff"
     bordercolor="#000000"
     borderopacity="0.25"
     inkscape:showpageshadow="2"
     inkscape:pageopacity="0.0"
     inkscape:pagecheckerboard="0"
     inkscape:deskcolor="#d1d1d1"
     inkscape:document-units="mm"
     inkscape:zoom="0.80444024"
     inkscape:cx="397.17059"
     inkscape:cy="262.91574"
     inkscape:window-width="1920"
     inkscape:window-height="1052"
     inkscape:window-x="0"
     inkscape:window-y="28"
     inkscape:window-maximized="0"
     inkscape:current-layer="layer1" />
  <defs
     id="defs1" />
  <g
     inkscape:label="Layer 1"
     inkscape:groupmode="layer"
     id="layer1">
    <g
       id="g5"
       style="clip-rule:evenodd;fill-rule:evenodd;image-rendering:optimizeQuality;shape-rendering:geometricPrecision;text-rendering:geometricPrecision"
       transform="matrix(0.32096681,0,0,0.32096681,-12.41576,-7.1443402)">
      <path
         style="opacity:1"
         fill="#faf9e5"
         d="m 232.5,55.5 c -3.018,-0.2038 -6.018,-0.5371 -9,-1 -3.149,0.0848 -5.816,-0.9152 -8,-3 -0.763,-0.7679 -1.763,-1.2679 -3,-1.5 -15.669,-1.9779 -31.336,-1.9779 -47,0 -0.556,0.3826 -0.889,0.8826 -1,1.5 -1.333,0 -2.667,0 -4,0 -6.657,1.6625 -13.324,3.3292 -20,5 0.437,-1.5744 1.437,-2.7411 3,-3.5 23.352,-6.9087 47.019,-8.242 71,-4 6.278,1.8648 12.278,4.0315 18,6.5 z"
         id="path5" />
    </g>
    <g
       id="g7"
       style="clip-rule:evenodd;fill-rule:evenodd;image-rendering:optimizeQuality;shape-rendering:geometricPrecision;text-rendering:geometricPrecision"
       transform="matrix(0.32096681,0,0,0.32096681,-12.41576,-7.1443402)">
      <path
         style="opacity:1"
         fill="#f9f3b7"
         d="m 215.5,51.5 c -9.134,-0.9922 -18.3,-1.6589 -27.5,-2 -7.904,-0.0377 -15.738,0.629 -23.5,2 0.111,-0.6174 0.444,-1.1174 1,-1.5 15.664,-1.9779 31.331,-1.9779 47,0 1.237,0.2321 2.237,0.7321 3,1.5 z"
         id="path7" />
    </g>
    <g
       id="g15"
       style="clip-rule:evenodd;fill-rule:evenodd;image-rendering:optimizeQuality;shape-rendering:geometricPrecision;text-rendering:geometricPrecision"
       transform="matrix(0.32096681,0,0,0.32096681,-12.41576,-7.1443402)">
      <path
         style="opacity:1"
         fill="#faf5bd"
         d="m 160.5,51.5 c -11.023,3.4241 -21.689,7.7574 -32,13 3.346,-3.6711 7.346,-6.3378 12,-8 6.676,-1.6708 13.343,-3.3375 20,-5 z"
         id="path15" />
    </g>
    <g
       id="g16"
       style="clip-rule:evenodd;fill-rule:evenodd;image-rendering:optimizeQuality;shape-rendering:geometricPrecision;text-rendering:geometricPrecision"
       transform="matrix(0.32096681,0,0,0.32096681,-12.41576,-7.1443402)">
      <path
         style="opacity:1"
         fill="#e7cf60"
         d="m 215.5,51.5 c 2.184,2.0848 4.851,3.0848 8,3 2,1 4,2 6,3 -7.045,-1.1976 -14.045,-2.6976 -21,-4.5 -14.002,-1.9684 -28.002,-1.9684 -42,0 -4.291,2.5734 -8.958,3.9068 -14,4 -9.311,3.0417 -18.311,6.5417 -27,10.5 1.194,-0.7719 2.194,-1.7719 3,-3 10.311,-5.2426 20.977,-9.5759 32,-13 1.333,0 2.667,0 4,0 7.762,-1.371 15.596,-2.0377 23.5,-2 9.2,0.3411 18.366,1.0078 27.5,2 z"
         id="path16" />
    </g>
    <g
       id="g19"
       style="clip-rule:evenodd;fill-rule:evenodd;image-rendering:optimizeQuality;shape-rendering:geometricPrecision;text-rendering:geometricPrecision"
       transform="matrix(0.32096681,0,0,0.32096681,-12.41576,-7.1443402)">
      <path
         style="opacity:1"
         fill="#faf5c1"
         d="m 223.5,54.5 c 2.982,0.4629 5.982,0.7962 9,1 5.979,3.3373 11.646,7.0039 17,11 -6.222,-3.8625 -12.888,-6.8625 -20,-9 -2,-1 -4,-2 -6,-3 z"
         id="path19" />
    </g>
    <g
       id="g39"
       style="clip-rule:evenodd;fill-rule:evenodd;image-rendering:optimizeQuality;shape-rendering:geometricPrecision;text-rendering:geometricPrecision"
       transform="matrix(0.32096681,0,0,0.32096681,-12.41576,-7.1443402)">
      <path
         style="opacity:1"
         fill="#e9cd58"
         d="m 229.5,57.5 c 7.112,2.1375 13.778,5.1375 20,9 1.473,1.8947 3.14,3.5613 5,5 -7.464,-3.232 -14.797,-6.732 -22,-10.5 -1.563,-0.7589 -2.563,-1.9256 -3,-3.5 z"
         id="path39" />
    </g>
    <g
       id="g54"
       style="clip-rule:evenodd;fill-rule:evenodd;image-rendering:optimizeQuality;shape-rendering:geometricPrecision;text-rendering:geometricPrecision"
       transform="matrix(0.32096681,0,0,0.32096681,-12.41576,-7.1443402)">
      <path
         style="opacity:1"
         fill="#f8f1b6"
         d="m 249.5,66.5 c 10.559,4.3397 19.726,11.0064 27.5,20 1.094,1.5779 1.928,3.2446 2.5,5 -7.708,-7.0434 -15.708,-13.71 -24,-20 -0.333,0 -0.667,0 -1,0 -1.86,-1.4387 -3.527,-3.1053 -5,-5 z"
         id="path54" />
    </g>
    <g
       id="g71"
       style="clip-rule:evenodd;fill-rule:evenodd;image-rendering:optimizeQuality;shape-rendering:geometricPrecision;text-rendering:geometricPrecision"
       transform="matrix(0.32096681,0,0,0.32096681,-12.41576,-7.1443402)">
      <path
         style="opacity:1"
         fill="#f9f5c2"
         d="m 128.5,64.5 c -0.806,1.2281 -1.806,2.2281 -3,3 -3.566,3.0401 -7.566,5.5401 -12,7.5 -2.788,1.7186 -5.121,3.8852 -7,6.5 -3.606,1.9367 -6.606,4.6034 -9,8 -2.5955,4.4315 -5.7622,8.4315 -9.5,12 -0.3126,3.868 -2.1459,6.535 -5.5,8 5.5709,-10.4258 12.5709,-19.9258 21,-28.5 6.333,-5 12.667,-10 19,-15 2.018,-0.5046 4.018,-1.0046 6,-1.5 z"
         id="path71" />
    </g>
    <g
       id="g92"
       style="clip-rule:evenodd;fill-rule:evenodd;image-rendering:optimizeQuality;shape-rendering:geometricPrecision;text-rendering:geometricPrecision"
       transform="matrix(0.32096681,0,0,0.32096681,-12.41576,-7.1443402)">
      <path
         style="opacity:1"
         fill="#e8cd61"
         d="m 255.5,71.5 c 8.292,6.29 16.292,12.9566 24,20 5.358,8.0703 10.692,16.07 16,24 1.209,3.949 2.376,7.949 3.5,12 0.716,2.379 1.883,4.379 3.5,6 0,1.667 0,3.333 0,5 -3.628,-7.698 -6.795,-15.698 -9.5,-24 -3.558,-3.435 -6.391,-7.435 -8.5,-12 -1.128,-0.762 -2.295,-1.429 -3.5,-2 -2.637,-4.9559 -5.637,-9.6226 -9,-14 -4.475,-2.8141 -8.641,-5.9808 -12.5,-9.5 -1.964,-1.451 -3.297,-3.2843 -4,-5.5 z"
         id="path92" />
    </g>
    <g
       id="g94"
       style="clip-rule:evenodd;fill-rule:evenodd;image-rendering:optimizeQuality;shape-rendering:geometricPrecision;text-rendering:geometricPrecision"
       transform="matrix(0.32096681,0,0,0.32096681,-12.41576,-7.1443402)">
      <path
         style="opacity:1"
         fill="#e7cf67"
         d="m 106.5,81.5 c -5.234,8.0743 -11.0669,15.741 -17.5,23 -2.5392,4.414 -4.5392,9.081 -6,14 -0.9246,0.547 -1.7579,1.213 -2.5,2 -10.4661,28.502 -11.7994,57.836 -4,88 -2.0499,-4.456 -3.8832,-9.123 -5.5,-14 -3.6644,-19.062 -3.3311,-38.062 1,-57 3.7471,-9.175 7.2471,-18.509 10.5,-28 3.3541,-1.465 5.1874,-4.132 5.5,-8 3.7378,-3.5685 6.9045,-7.5685 9.5,-12 2.394,-3.3966 5.394,-6.0633 9,-8 z"
         id="path94" />
    </g>
    <g
       id="g100"
       style="clip-rule:evenodd;fill-rule:evenodd;image-rendering:optimizeQuality;shape-rendering:geometricPrecision;text-rendering:geometricPrecision"
       transform="matrix(0.32096681,0,0,0.32096681,-12.41576,-7.1443402)">
      <path
         style="opacity:1"
         fill="#f9f4bf"
         d="m 279.5,91.5 c 3.477,3.5595 6.977,7.2262 10.5,11 2.33,4.166 4.163,8.499 5.5,13 -5.308,-7.93 -10.642,-15.9297 -16,-24 z"
         id="path100" />
    </g>
    <g
       id="g114"
       style="clip-rule:evenodd;fill-rule:evenodd;image-rendering:optimizeQuality;shape-rendering:geometricPrecision;text-rendering:geometricPrecision"
       transform="matrix(0.32096681,0,0,0.32096681,-12.41576,-7.1443402)">
      <path
         style="opacity:1"
         fill="#f0cc3e"
         d="m 229.5,57.5 c 0.437,1.5744 1.437,2.7411 3,3.5 7.203,3.768 14.536,7.268 22,10.5 0.333,0 0.667,0 1,0 0.703,2.2157 2.036,4.049 4,5.5 3.859,3.5192 8.025,6.6859 12.5,9.5 3.363,4.3774 6.363,9.0441 9,14 1.205,0.571 2.372,1.238 3.5,2 2.109,4.565 4.942,8.565 8.5,12 2.705,8.302 5.872,16.302 9.5,24 0,0.333 0,0.667 0,1 0,1.667 0,3.333 0,5 4.253,26.378 1.253,51.711 -9,76 0,1.333 0,2.667 0,4 -4.245,6.762 -8.745,13.429 -13.5,20 -3.729,3.898 -7.562,7.565 -11.5,11 -3.655,1.14 -6.655,3.307 -9,6.5 -5.313,3.302 -10.646,6.635 -16,10 -9.616,4.576 -19.616,8.242 -30,11 -26.926,4.426 -52.926,1.426 -78,-9 -4.686,-4.175 -10.019,-7.008 -16,-8.5 -4.637,-6.154 -10.304,-11.154 -17,-15 -1.25,-2.567 -2.417,-5.233 -3.5,-8 -1.892,-0.63 -3.5587,-1.63 -5,-3 -3.8115,-5.511 -6.8115,-11.511 -9,-18 -2.4161,-3.49 -4.9161,-6.823 -7.5,-10 -0.904,-0.709 -1.2373,-1.709 -1,-3 -7.7994,-30.164 -6.4661,-59.498 4,-88 0.7421,-0.787 1.5754,-1.453 2.5,-2 1.4608,-4.919 3.4608,-9.586 6,-14 6.4331,-7.259 12.266,-14.9257 17.5,-23 1.879,-2.6148 4.212,-4.7814 7,-6.5 4.434,-1.9599 8.434,-4.4599 12,-7.5 8.689,-3.9583 17.689,-7.4583 27,-10.5 5.042,-0.0932 9.709,-1.4266 14,-4 13.998,-1.9684 27.998,-1.9684 42,0 6.955,1.8024 13.955,3.3024 21,4.5 z"
         id="path114" />
    </g>
    <g
       id="g115"
       style="clip-rule:evenodd;fill-rule:evenodd;image-rendering:optimizeQuality;shape-rendering:geometricPrecision;text-rendering:geometricPrecision"
       transform="matrix(0.32096681,0,0,0.32096681,-12.41576,-7.1443402)">
      <path
         style="opacity:1"
         fill="#e7ce5e"
         d="m 273.5,101.5 c 1.963,1.779 4.129,3.446 6.5,5 4.702,10.02 9.369,20.02 14,30 4.506,19.564 4.34,38.897 -0.5,58 1.906,-14.259 2.406,-28.593 1.5,-43 -2.326,-10.644 -5.659,-20.977 -10,-31 -0.66,-1.824 -1.827,-3.157 -3.5,-4 -0.622,-1.622 -1.622,-2.955 -3,-4 0.157,-1.373 -0.01,-2.707 -0.5,-4 -2.02,-2.051 -3.52,-4.384 -4.5,-7 z"
         id="path115" />
    </g>
    <g
       id="g116"
       style="clip-rule:evenodd;fill-rule:evenodd;image-rendering:optimizeQuality;shape-rendering:geometricPrecision;text-rendering:geometricPrecision"
       transform="matrix(0.32096681,0,0,0.32096681,-12.41576,-7.1443402)">
      <path
         style="opacity:1"
         fill="#f9f5c1"
         d="m 249.5,81.5 c 1.667,0.6667 3.333,1.3333 5,2 6.307,5.9722 12.64,11.9722 19,18 0.98,2.616 2.48,4.949 4.5,7 0.49,1.293 0.657,2.627 0.5,4 -1.895,-1.473 -3.561,-3.14 -5,-5 -2.644,-3.494 -5.144,-7.16 -7.5,-11 -5.627,-4.8906 -11.127,-9.8906 -16.5,-15 z"
         id="path116" />
    </g>
    <g
       id="g117"
       style="clip-rule:evenodd;fill-rule:evenodd;image-rendering:optimizeQuality;shape-rendering:geometricPrecision;text-rendering:geometricPrecision"
       transform="matrix(0.32096681,0,0,0.32096681,-12.41576,-7.1443402)">
      <path
         style="opacity:1"
         fill="#e5cb62"
         d="m 105.5,98.5 c -4.933,6.228 -9.6001,12.562 -14,19 1.539,-4.573 3.7057,-8.907 6.5,-13 2.91,-0.95 4.077,-2.95 3.5,-6 1.333,0 2.667,0 4,0 z"
         id="path117" />
    </g>
    <g
       id="g118"
       style="clip-rule:evenodd;fill-rule:evenodd;image-rendering:optimizeQuality;shape-rendering:geometricPrecision;text-rendering:geometricPrecision"
       transform="matrix(0.32096681,0,0,0.32096681,-12.41576,-7.1443402)">
      <path
         style="opacity:1"
         fill="#e8cd5d"
         d="m 254.5,83.5 c 6.481,1.4938 11.148,5.1605 14,11 1,0 2,0 3,0 0.378,2.421 1.045,4.7543 2,7 -6.36,-6.0278 -12.693,-12.0278 -19,-18 z"
         id="path118" />
    </g>
    <g
       id="g119"
       style="clip-rule:evenodd;fill-rule:evenodd;image-rendering:optimizeQuality;shape-rendering:geometricPrecision;text-rendering:geometricPrecision"
       transform="matrix(0.32096681,0,0,0.32096681,-12.41576,-7.1443402)">
      <path
         style="opacity:1"
         fill="#e3c85c"
         d="m 126.5,78.5 c -4.679,4.6777 -9.679,9.011 -15,13 1.548,-2.8984 3.548,-5.5651 6,-8 2.774,-2.1146 5.774,-3.7812 9,-5 z"
         id="path119" />
    </g>
    <g
       id="g120"
       style="clip-rule:evenodd;fill-rule:evenodd;image-rendering:optimizeQuality;shape-rendering:geometricPrecision;text-rendering:geometricPrecision"
       transform="matrix(0.32096681,0,0,0.32096681,-12.41576,-7.1443402)">
      <path
         style="opacity:1"
         fill="#e8d371"
         d="m 242.5,75.5 c 5.045,1.1831 9.045,3.8498 12,8 -1.667,-0.6667 -3.333,-1.3333 -5,-2 -1.399,-1.3897 -3.066,-2.3897 -5,-3 -0.667,-1 -1.333,-2 -2,-3 z"
         id="path120" />
    </g>
    <g
       id="g121"
       style="clip-rule:evenodd;fill-rule:evenodd;image-rendering:optimizeQuality;shape-rendering:geometricPrecision;text-rendering:geometricPrecision"
       transform="matrix(0.32096681,0,0,0.32096681,-12.41576,-7.1443402)">
      <path
         style="opacity:1"
         fill="#faf7d5"
         d="m 217.5,66.5 c 2,0.3333 4,0.6667 6,1 2.354,0.338 4.687,0.838 7,1.5 3.843,2.4603 7.843,4.627 12,6.5 0.667,1 1.333,2 2,3 -6.919,-2.7719 -13.919,-5.4386 -21,-8 -2,-1.3333 -4,-2.6667 -6,-4 z"
         id="path121" />
    </g>
    <g
       id="g122"
       style="clip-rule:evenodd;fill-rule:evenodd;image-rendering:optimizeQuality;shape-rendering:geometricPrecision;text-rendering:geometricPrecision"
       transform="matrix(0.32096681,0,0,0.32096681,-12.41576,-7.1443402)">
      <path
         style="opacity:1"
         fill="#f8f0b1"
         d="m 211.5,62.5 c 0.667,0.3333 1.333,0.6667 2,1 3.45,1.0298 6.783,2.3631 10,4 -2,-0.3333 -4,-0.6667 -6,-1 -4.759,-0.953 -9.426,-2.1196 -14,-3.5 -13.693,-0.7547 -27.36,-0.4213 -41,1 -4.144,1.7589 -8.144,3.5923 -12,5.5 -5.564,1.4355 -10.564,3.9355 -15,7.5 -2,0.3333 -4,0.6667 -6,1 -5.952,6.4605 -12.619,11.9605 -20,16.5 0.667,-1 1.333,-2 2,-3 5.321,-3.989 10.321,-8.3223 15,-13 1,-0.6667 2,-1.3333 3,-2 10.446,-5.224 21.112,-9.8907 32,-14 1,0 2,0 3,0 15.647,-2.6013 31.314,-2.6013 47,0 z"
         id="path122" />
    </g>
    <g
       id="g123"
       style="clip-rule:evenodd;fill-rule:evenodd;image-rendering:optimizeQuality;shape-rendering:geometricPrecision;text-rendering:geometricPrecision"
       transform="matrix(0.32096681,0,0,0.32096681,-12.41576,-7.1443402)">
      <path
         style="opacity:1"
         fill="#e7cb56"
         d="m 161.5,62.5 c -10.888,4.1093 -21.554,8.776 -32,14 1.883,-3.6173 4.883,-5.7839 9,-6.5 0.837,-1.0113 1.17,-2.1779 1,-3.5 1.322,-0.17 2.489,0.1634 3.5,1 6.092,-2.1153 12.258,-3.782 18.5,-5 z"
         id="path123" />
    </g>
    <g
       id="g124"
       style="clip-rule:evenodd;fill-rule:evenodd;image-rendering:optimizeQuality;shape-rendering:geometricPrecision;text-rendering:geometricPrecision"
       transform="matrix(0.32096681,0,0,0.32096681,-12.41576,-7.1443402)">
      <path
         style="opacity:1"
         fill="#e6ce67"
         d="m 213.5,63.5 c 3.773,-0.2367 7.44,0.2633 11,1.5 3.881,1.9693 7.881,3.6359 12,5 2.543,1.3819 4.543,3.2152 6,5.5 -4.157,-1.873 -8.157,-4.0397 -12,-6.5 -2.313,-0.662 -4.646,-1.162 -7,-1.5 -3.217,-1.6369 -6.55,-2.9702 -10,-4 z"
         id="path124" />
    </g>
    <g
       id="g125"
       style="clip-rule:evenodd;fill-rule:evenodd;image-rendering:optimizeQuality;shape-rendering:geometricPrecision;text-rendering:geometricPrecision"
       transform="matrix(0.32096681,0,0,0.32096681,-12.41576,-7.1443402)">
      <path
         style="opacity:1"
         fill="#faf9e9"
         d="m 217.5,66.5 c 2,1.3333 4,2.6667 6,4 -11.283,-4.0557 -22.949,-6.0557 -35,-6 -5.765,0.4435 -11.432,0.4435 -17,0 -4.297,1.3761 -8.464,3.0428 -12.5,5 -2.75,-0.7911 -5.583,-0.7911 -8.5,0 3.856,-1.9077 7.856,-3.7411 12,-5.5 13.64,-1.4213 27.307,-1.7547 41,-1 4.574,1.3804 9.241,2.547 14,3.5 z"
         id="path125" />
    </g>
    <g
       id="g126"
       style="clip-rule:evenodd;fill-rule:evenodd;image-rendering:optimizeQuality;shape-rendering:geometricPrecision;text-rendering:geometricPrecision"
       transform="matrix(0.32096681,0,0,0.32096681,-12.41576,-7.1443402)">
      <path
         style="opacity:1"
         fill="#faf9f9"
         d="m 223.5,70.5 c 7.081,2.5614 14.081,5.2281 21,8 1.934,0.6103 3.601,1.6103 5,3 5.373,5.1094 10.873,10.1094 16.5,15 2.356,3.84 4.856,7.506 7.5,11 4.447,8.894 8.947,17.894 13.5,27 1.209,7.372 2.709,14.872 4.5,22.5 0.571,8.702 -0.096,18.036 -2,28 0.165,1.117 0.498,2.284 1,3.5 -1.295,4.708 -2.961,9.208 -5,13.5 0.333,0.333 0.667,0.667 1,1 -2.283,5.9 -5.117,11.4 -8.5,16.5 -1.423,4.439 -2.923,8.772 -4.5,13 -2.294,3.627 -4.96,6.961 -8,10 -2.795,0.563 -5.128,1.896 -7,4 -6.792,4.288 -13.459,8.788 -20,13.5 -8.477,4.44 -17.143,8.273 -26,11.5 -9.838,0.589 -19.505,1.256 -29,2 -6.369,-0.564 -12.535,-1.897 -18.5,-4 -0.725,0.559 -1.558,0.892 -2.5,1 -11.047,-4.093 -22.047,-8.093 -33,-12 -9.657,-7.99 -18.657,-16.657 -27,-26 -1.333,-0.667 -2.333,-1.667 -3,-3 -2.9065,-8.622 -6.9065,-16.622 -12,-24 -1.0144,-10.314 -2.5144,-20.314 -4.5,-30 -0.9305,-10.436 -0.4305,-20.769 1.5,-31 4.144,-17.285 11.9774,-32.619 23.5,-46 0.791,-1.245 1.291,-2.5783 1.5,-4 7.381,-4.5395 14.048,-10.0395 20,-16.5 2,-0.3333 4,-0.6667 6,-1 4.436,-3.5645 9.436,-6.0645 15,-7.5 2.917,-0.7911 5.75,-0.7911 8.5,0 4.036,-1.9572 8.203,-3.6239 12.5,-5 5.568,0.4435 11.235,0.4435 17,0 12.051,-0.0557 23.717,1.9443 35,6 z"
         id="path126" />
    </g>
    <g
       id="g127"
       style="clip-rule:evenodd;fill-rule:evenodd;image-rendering:optimizeQuality;shape-rendering:geometricPrecision;text-rendering:geometricPrecision"
       transform="matrix(0.32096681,0,0,0.32096681,-12.41576,-7.1443402)">
      <path
         style="opacity:1"
         fill="#f2cd39"
         d="m 222.5,169.5 c 1.427,1.648 2.26,3.648 2.5,6 3.61,5.577 7.443,10.91 11.5,16 2.242,4.283 3.575,8.95 4,14 -5.037,-0.408 -10.037,-1.074 -15,-2 -1.599,-1.809 -3.599,-3.142 -6,-4 -4.099,-1.216 -8.099,-2.716 -12,-4.5 -1.333,-0.667 -1.333,-1.333 0,-2 -6.564,-1.865 -13.064,-4.031 -19.5,-6.5 -1.333,1.333 -2.667,1.333 -4,0 -2.417,3.028 -5.417,4.028 -9,3 -2.141,2.821 -4.975,4.154 -8.5,4 0,1 0,2 0,3 -3.668,1.056 -7.335,2.222 -11,3.5 -2.084,0.697 -3.751,1.864 -5,3.5 -1.716,0.129 -3.383,0.462 -5,1 -3.523,1.587 -7.19,2.087 -11,1.5 -1.105,-2.12 -1.105,-4.287 0,-6.5 1.755,-2.488 3.755,-4.822 6,-7 4.686,-9.761 9.352,-19.428 14,-29 1.08,-2.496 2.414,-4.83 4,-7 3.416,-2.493 5.583,-5.826 6.5,-10 6.044,-7.344 10.878,-15.344 14.5,-24 1.948,-2.289 3.948,-4.622 6,-7 1.574,-1.131 3.241,-1.298 5,-0.5 1.661,2.493 2.994,5.16 4,8 -0.451,2.533 -0.784,5.367 -1,8.5 1.175,-0.219 2.175,0.114 3,1 -0.593,1.882 -1.26,3.715 -2,5.5 4.05,3.197 8.55,5.697 13.5,7.5 0.844,3.178 2.511,5.845 5,8 1.729,6.22 4.896,11.553 9.5,16 z"
         id="path127" />
    </g>
    <g
       id="g128"
       style="clip-rule:evenodd;fill-rule:evenodd;image-rendering:optimizeQuality;shape-rendering:geometricPrecision;text-rendering:geometricPrecision"
       transform="matrix(0.32096681,0,0,0.32096681,-12.41576,-7.1443402)">
      <path
         style="opacity:1"
         fill="#e1cd6c"
         d="m 190.5,110.5 c 1.1,1.105 1.767,2.438 2,4 -1.66,-1.748 -3.66,-2.248 -6,-1.5 -1.844,2.011 -3.844,3.845 -6,5.5 0.681,-6.017 4.014,-8.683 10,-8 z"
         id="path128" />
    </g>
    <g
       id="g129"
       style="clip-rule:evenodd;fill-rule:evenodd;image-rendering:optimizeQuality;shape-rendering:geometricPrecision;text-rendering:geometricPrecision"
       transform="matrix(0.32096681,0,0,0.32096681,-12.41576,-7.1443402)">
      <path
         style="opacity:1"
         fill="#faf6cf"
         d="m 203.5,130.5 c -1.454,-1.937 -3.121,-3.603 -5,-5 -1.311,-2.882 -2.478,-5.882 -3.5,-9 -0.708,-0.881 -1.542,-1.547 -2.5,-2 -0.233,-1.562 -0.9,-2.895 -2,-4 -1.419,-0.951 -3.085,-1.284 -5,-1 0.812,-1.493 2.145,-2.16 4,-2 2.193,0.364 4.027,1.364 5.5,3 2.031,7.055 4.864,13.722 8.5,20 z"
         id="path129" />
    </g>
    <g
       id="g130"
       style="clip-rule:evenodd;fill-rule:evenodd;image-rendering:optimizeQuality;shape-rendering:geometricPrecision;text-rendering:geometricPrecision"
       transform="matrix(0.32096681,0,0,0.32096681,-12.41576,-7.1443402)">
      <path
         style="opacity:1"
         fill="#e7ce5a"
         d="m 211.5,62.5 c -15.686,-2.6013 -31.353,-2.6013 -47,0 1.141,-1.7295 2.807,-2.7295 5,-3 9.646,-1.0888 19.312,-1.2555 29,-0.5 4.633,0.4959 8.967,1.6625 13,3.5 z"
         id="path130" />
    </g>
    <g
       id="g139"
       style="clip-rule:evenodd;fill-rule:evenodd;image-rendering:optimizeQuality;shape-rendering:geometricPrecision;text-rendering:geometricPrecision"
       transform="matrix(0.32096681,0,0,0.32096681,-12.41576,-7.1443402)">
      <path
         style="opacity:1"
         fill="#eecd45"
         d="m 192.5,114.5 c 0.958,0.453 1.792,1.119 2.5,2 1.022,3.118 2.189,6.118 3.5,9 2.224,5.413 4.724,10.746 7.5,16 1.371,1.541 2.871,2.875 4.5,4 1.259,4.147 3.259,7.814 6,11 2.144,2.881 4.144,5.881 6,9 0,1.333 0,2.667 0,4 -4.604,-4.447 -7.771,-9.78 -9.5,-16 -2.489,-2.155 -4.156,-4.822 -5,-8 -4.95,-1.803 -9.45,-4.303 -13.5,-7.5 0.74,-1.785 1.407,-3.618 2,-5.5 -0.825,-0.886 -1.825,-1.219 -3,-1 0.216,-3.133 0.549,-5.967 1,-8.5 -1.006,-2.84 -2.339,-5.507 -4,-8 -1.759,-0.798 -3.426,-0.631 -5,0.5 -2.052,2.378 -4.052,4.711 -6,7 0,-0.667 0,-1.333 0,-2 -0.172,-0.992 0.162,-1.658 1,-2 2.156,-1.655 4.156,-3.489 6,-5.5 2.34,-0.748 4.34,-0.248 6,1.5 z"
         id="path139" />
    </g>
    <g
       id="g141"
       style="clip-rule:evenodd;fill-rule:evenodd;image-rendering:optimizeQuality;shape-rendering:geometricPrecision;text-rendering:geometricPrecision"
       transform="matrix(0.32096681,0,0,0.32096681,-12.41576,-7.1443402)">
      <path
         style="opacity:1"
         fill="#f9f3bd"
         d="m 109.5,94.5 c -0.209,1.4217 -0.709,2.755 -1.5,4 -11.5226,13.381 -19.356,28.715 -23.5,46 -0.8485,2.388 -1.8485,4.721 -3,7 0.358,-5.789 1.358,-11.455 3,-17 0.6174,-0.111 1.1174,-0.444 1.5,-1 1.746,-5.406 3.5793,-10.739 5.5,-16 4.3999,-6.438 9.067,-12.772 14,-19 1.333,-1.3333 2.667,-2.6667 4,-4 z"
         id="path141" />
    </g>
    <g
       id="g145"
       style="clip-rule:evenodd;fill-rule:evenodd;image-rendering:optimizeQuality;shape-rendering:geometricPrecision;text-rendering:geometricPrecision"
       transform="matrix(0.32096681,0,0,0.32096681,-12.41576,-7.1443402)">
      <path
         style="opacity:1"
         fill="#f9f2bb"
         d="m 295.5,115.5 c 0.667,0.333 1.333,0.667 2,1 1.405,5.792 3.072,11.458 5,17 -1.617,-1.621 -2.784,-3.621 -3.5,-6 -1.124,-4.051 -2.291,-8.051 -3.5,-12 z"
         id="path145" />
    </g>
    <g
       id="g147"
       style="clip-rule:evenodd;fill-rule:evenodd;image-rendering:optimizeQuality;shape-rendering:geometricPrecision;text-rendering:geometricPrecision"
       transform="matrix(0.32096681,0,0,0.32096681,-12.41576,-7.1443402)">
      <path
         style="opacity:1"
         fill="#e8cd5e"
         d="m 91.5,117.5 c -1.9207,5.261 -3.754,10.594 -5.5,16 -0.3826,0.556 -0.8826,0.889 -1.5,1 0.2203,-4.445 1.0536,-8.778 2.5,-13 1.6667,-1.233 3.1667,-2.567 4.5,-4 z"
         id="path147" />
    </g>
    <g
       id="g150"
       style="clip-rule:evenodd;fill-rule:evenodd;image-rendering:optimizeQuality;shape-rendering:geometricPrecision;text-rendering:geometricPrecision"
       transform="matrix(0.32096681,0,0,0.32096681,-12.41576,-7.1443402)">
      <path
         style="opacity:1"
         fill="#faf5c1"
         d="m 203.5,130.5 c 2.25,2.834 4.416,5.834 6.5,9 0.49,1.293 0.657,2.627 0.5,4 -3.078,-3.815 -5.411,-8.149 -7,-13 z"
         id="path150" />
    </g>
    <g
       id="g152"
       style="clip-rule:evenodd;fill-rule:evenodd;image-rendering:optimizeQuality;shape-rendering:geometricPrecision;text-rendering:geometricPrecision"
       transform="matrix(0.32096681,0,0,0.32096681,-12.41576,-7.1443402)">
      <path
         style="opacity:1"
         fill="#e9d16f"
         d="m 198.5,125.5 c 1.879,1.397 3.546,3.063 5,5 1.589,4.851 3.922,9.185 7,13 0,0.667 0,1.333 0,2 -1.629,-1.125 -3.129,-2.459 -4.5,-4 -2.776,-5.254 -5.276,-10.587 -7.5,-16 z"
         id="path152" />
    </g>
    <g
       id="g153"
       style="clip-rule:evenodd;fill-rule:evenodd;image-rendering:optimizeQuality;shape-rendering:geometricPrecision;text-rendering:geometricPrecision"
       transform="matrix(0.32096681,0,0,0.32096681,-12.41576,-7.1443402)">
      <path
         style="opacity:1"
         fill="#faf5c5"
         d="m 302.5,133.5 c 1.466,0.847 2.3,2.18 2.5,4 0.789,5.687 1.622,11.353 2.5,17 -0.333,0 -0.667,0 -1,0 -0.419,-5.346 -1.752,-10.346 -4,-15 0,-0.333 0,-0.667 0,-1 0,-1.667 0,-3.333 0,-5 z"
         id="path153" />
    </g>
    <g
       id="g155"
       style="clip-rule:evenodd;fill-rule:evenodd;image-rendering:optimizeQuality;shape-rendering:geometricPrecision;text-rendering:geometricPrecision"
       transform="matrix(0.32096681,0,0,0.32096681,-12.41576,-7.1443402)">
      <path
         style="opacity:1"
         fill="#f9f4bc"
         d="m 185.5,109.5 c 1.915,-0.284 3.581,0.049 5,1 -5.986,-0.683 -9.319,1.983 -10,8 -0.838,0.342 -1.172,1.008 -1,2 -4.045,4.991 -7.379,10.658 -10,17 -1.26,0.882 -2.426,1.882 -3.5,3 -2.233,5.465 -4.733,10.799 -7.5,16 -1.586,2.17 -2.92,4.504 -4,7 -1,0.667 -2,1.333 -3,2 2.183,-3.497 3.85,-7.331 5,-11.5 1.153,-1.654 2.487,-3.154 4,-4.5 4.706,-9.984 9.873,-19.651 15.5,-29 2.29,-2.268 3.956,-4.935 5,-8 1.129,-1.641 2.629,-2.641 4.5,-3 z"
         id="path155" />
    </g>
    <g
       id="g166"
       style="clip-rule:evenodd;fill-rule:evenodd;image-rendering:optimizeQuality;shape-rendering:geometricPrecision;text-rendering:geometricPrecision"
       transform="matrix(0.32096681,0,0,0.32096681,-12.41576,-7.1443402)">
      <path
         style="opacity:1"
         fill="#e6cf65"
         d="m 179.5,120.5 c 0,0.667 0,1.333 0,2 -3.622,8.656 -8.456,16.656 -14.5,24 -0.917,4.174 -3.084,7.507 -6.5,10 2.767,-5.201 5.267,-10.535 7.5,-16 1.074,-1.118 2.24,-2.118 3.5,-3 2.621,-6.342 5.955,-12.009 10,-17 z"
         id="path166" />
    </g>
    <g
       id="g171"
       style="clip-rule:evenodd;fill-rule:evenodd;image-rendering:optimizeQuality;shape-rendering:geometricPrecision;text-rendering:geometricPrecision"
       transform="matrix(0.32096681,0,0,0.32096681,-12.41576,-7.1443402)">
      <path
         style="opacity:1"
         fill="#edd87a"
         d="m 210.5,145.5 c 0.958,0.453 1.792,1.119 2.5,2 1.654,2.793 2.821,5.793 3.5,9 -2.741,-3.186 -4.741,-6.853 -6,-11 z"
         id="path171" />
    </g>
    <g
       id="g176"
       style="clip-rule:evenodd;fill-rule:evenodd;image-rendering:optimizeQuality;shape-rendering:geometricPrecision;text-rendering:geometricPrecision"
       transform="matrix(0.32096681,0,0,0.32096681,-12.41576,-7.1443402)">
      <path
         style="opacity:1"
         fill="#faf9e5"
         d="m 214.5,146.5 c 4.057,5.09 7.89,10.423 11.5,16 6.151,11.276 11.984,22.61 17.5,34 -2.511,-2.897 -4.845,-5.897 -7,-9 -3.079,-3.15 -5.413,-6.817 -7,-11 0.157,-1.373 -0.01,-2.707 -0.5,-4 -5.618,-8.237 -10.451,-16.904 -14.5,-26 z"
         id="path176" />
    </g>
    <g
       id="g178"
       style="clip-rule:evenodd;fill-rule:evenodd;image-rendering:optimizeQuality;shape-rendering:geometricPrecision;text-rendering:geometricPrecision"
       transform="matrix(0.32096681,0,0,0.32096681,-12.41576,-7.1443402)">
      <path
         style="opacity:1"
         fill="#faf9e6"
         d="m 273.5,107.5 c 1.439,1.86 3.105,3.527 5,5 1.378,1.045 2.378,2.378 3,4 2.498,5.981 4.998,11.981 7.5,18 0.84,6.902 2.507,13.569 5,20 0.667,8.333 0.667,16.667 0,25 -2.521,11.419 -5.355,22.752 -8.5,34 -3.078,5.153 -5.911,10.486 -8.5,16 -1.039,1.21 -2.206,2.21 -3.5,3 1.577,-4.228 3.077,-8.561 4.5,-13 3.383,-5.1 6.217,-10.6 8.5,-16.5 -0.333,-0.333 -0.667,-0.667 -1,-1 2.039,-4.292 3.705,-8.792 5,-13.5 -0.502,-1.216 -0.835,-2.383 -1,-3.5 1.904,-9.964 2.571,-19.298 2,-28 -1.791,-7.628 -3.291,-15.128 -4.5,-22.5 -4.553,-9.106 -9.053,-18.106 -13.5,-27 z"
         id="path178" />
    </g>
    <g
       id="g181"
       style="clip-rule:evenodd;fill-rule:evenodd;image-rendering:optimizeQuality;shape-rendering:geometricPrecision;text-rendering:geometricPrecision"
       transform="matrix(0.32096681,0,0,0.32096681,-12.41576,-7.1443402)">
      <path
         style="opacity:1"
         fill="#f9f3ba"
         d="m 82.5,109.5 c -3.2529,9.491 -6.7529,18.825 -10.5,28 -4.3311,18.938 -4.6644,37.938 -1,57 1.6168,4.877 3.4501,9.544 5.5,14 -0.2373,1.291 0.096,2.291 1,3 1.2659,2.801 2.0992,5.801 2.5,9 4.9262,8.194 10.0929,16.194 15.5,24 -2.9414,-1.302 -5.2748,-3.302 -7,-6 -16.2292,-24.915 -23.3959,-52.248 -21.5,-82 1.4691,-10.514 3.6358,-20.847 6.5,-31 3.0938,-4.527 5.4271,-9.527 7,-15 0.4569,-0.798 1.1236,-1.131 2,-1 z"
         id="path181" />
    </g>
    <g
       id="g182"
       style="clip-rule:evenodd;fill-rule:evenodd;image-rendering:optimizeQuality;shape-rendering:geometricPrecision;text-rendering:geometricPrecision"
       transform="matrix(0.32096681,0,0,0.32096681,-12.41576,-7.1443402)">
      <path
         style="opacity:1"
         fill="#e5c957"
         d="m 302.5,144.5 c 0.722,0.418 1.222,1.084 1.5,2 0.874,10.318 1.374,20.651 1.5,31 -0.183,6.393 -0.85,12.726 -2,19 -2.211,7.273 -4.545,14.606 -7,22 -1,0.667 -2,1.333 -3,2 10.253,-24.289 13.253,-49.622 9,-76 z"
         id="path182" />
    </g>
    <g
       id="g184"
       style="clip-rule:evenodd;fill-rule:evenodd;image-rendering:optimizeQuality;shape-rendering:geometricPrecision;text-rendering:geometricPrecision"
       transform="matrix(0.32096681,0,0,0.32096681,-12.41576,-7.1443402)">
      <path
         style="opacity:1"
         fill="#f9f3bb"
         d="m 210.5,143.5 c 1.53,0.711 2.863,1.711 4,3 4.049,9.096 8.882,17.763 14.5,26 0.49,1.293 0.657,2.627 0.5,4 -2.764,-3.408 -5.098,-7.074 -7,-11 -1.856,-3.119 -3.856,-6.119 -6,-9 -0.679,-3.207 -1.846,-6.207 -3.5,-9 -0.708,-0.881 -1.542,-1.547 -2.5,-2 0,-0.667 0,-1.333 0,-2 z"
         id="path184" />
    </g>
    <g
       id="g185"
       style="clip-rule:evenodd;fill-rule:evenodd;image-rendering:optimizeQuality;shape-rendering:geometricPrecision;text-rendering:geometricPrecision"
       transform="matrix(0.32096681,0,0,0.32096681,-12.41576,-7.1443402)">
      <path
         style="opacity:1"
         fill="#f4e396"
         d="m 81.5,151.5 c -1.6748,14.814 -1.0082,29.48 2,44 -2.2969,-4.263 -3.4635,-8.929 -3.5,-14 -0.6667,-8.667 -0.6667,-17.333 0,-26 0.21,-1.558 0.71,-2.891 1.5,-4 z"
         id="path185" />
    </g>
    <g
       id="g186"
       style="clip-rule:evenodd;fill-rule:evenodd;image-rendering:optimizeQuality;shape-rendering:geometricPrecision;text-rendering:geometricPrecision"
       transform="matrix(0.32096681,0,0,0.32096681,-12.41576,-7.1443402)">
      <path
         style="opacity:1"
         fill="#f8f0af"
         d="m 281.5,116.5 c 1.673,0.843 2.84,2.176 3.5,4 4.341,10.023 7.674,20.356 10,31 0.906,14.407 0.406,28.741 -1.5,43 0,0.333 0,0.667 0,1 -2.472,6.083 -5.139,12.083 -8,18 3.145,-11.248 5.979,-22.581 8.5,-34 0.667,-8.333 0.667,-16.667 0,-25 -2.493,-6.431 -4.16,-13.098 -5,-20 -2.502,-6.019 -5.002,-12.019 -7.5,-18 z"
         id="path186" />
    </g>
    <g
       id="g187"
       style="clip-rule:evenodd;fill-rule:evenodd;image-rendering:optimizeQuality;shape-rendering:geometricPrecision;text-rendering:geometricPrecision"
       transform="matrix(0.32096681,0,0,0.32096681,-12.41576,-7.1443402)">
      <path
         style="opacity:1"
         fill="#f9f4bc"
         d="m 151.5,165.5 c -0.611,3.221 -1.778,6.221 -3.5,9 -0.708,0.881 -1.542,1.547 -2.5,2 1.242,-4.155 3.242,-7.822 6,-11 z"
         id="path187" />
    </g>
    <g
       id="g188"
       style="clip-rule:evenodd;fill-rule:evenodd;image-rendering:optimizeQuality;shape-rendering:geometricPrecision;text-rendering:geometricPrecision"
       transform="matrix(0.32096681,0,0,0.32096681,-12.41576,-7.1443402)">
      <path
         style="opacity:1"
         fill="#e6d173"
         d="m 302.5,139.5 c 2.248,4.654 3.581,9.654 4,15 0.325,7.852 -0.008,15.518 -1,23 -0.126,-10.349 -0.626,-20.682 -1.5,-31 -0.278,-0.916 -0.778,-1.582 -1.5,-2 0,-1.667 0,-3.333 0,-5 z"
         id="path188" />
    </g>
    <g
       id="g189"
       style="clip-rule:evenodd;fill-rule:evenodd;image-rendering:optimizeQuality;shape-rendering:geometricPrecision;text-rendering:geometricPrecision"
       transform="matrix(0.32096681,0,0,0.32096681,-12.41576,-7.1443402)">
      <path
         style="opacity:1"
         fill="#e7cb56"
         d="m 84.5,134.5 c -1.642,5.545 -2.642,11.211 -3,17 -0.79,1.109 -1.29,2.442 -1.5,4 -0.6667,8.667 -0.6667,17.333 0,26 0.0365,5.071 1.2031,9.737 3.5,14 0.3816,3.832 1.7149,7.165 4,10 0.1785,2.716 0.6785,5.383 1.5,8 1.705,2.077 2.8717,4.41 3.5,7 -1.9169,-1.409 -3.7502,-3.076 -5.5,-5 -0.7792,-5.421 -2.6126,-10.421 -5.5,-15 -5.6375,-21.708 -5.3042,-43.208 1,-64.5 0.3361,-1.03 1.0028,-1.53 2,-1.5 z"
         id="path189" />
    </g>
    <g
       id="g190"
       style="clip-rule:evenodd;fill-rule:evenodd;image-rendering:optimizeQuality;shape-rendering:geometricPrecision;text-rendering:geometricPrecision"
       transform="matrix(0.32096681,0,0,0.32096681,-12.41576,-7.1443402)">
      <path
         style="opacity:1"
         fill="#e8cf66"
         d="m 222.5,165.5 c 1.902,3.926 4.236,7.592 7,11 1.587,4.183 3.921,7.85 7,11 0,1.333 0,2.667 0,4 -4.057,-5.09 -7.89,-10.423 -11.5,-16 -0.24,-2.352 -1.073,-4.352 -2.5,-6 0,-1.333 0,-2.667 0,-4 z"
         id="path190" />
    </g>
    <g
       id="g191"
       style="clip-rule:evenodd;fill-rule:evenodd;image-rendering:optimizeQuality;shape-rendering:geometricPrecision;text-rendering:geometricPrecision"
       transform="matrix(0.32096681,0,0,0.32096681,-12.41576,-7.1443402)">
      <path
         style="opacity:1"
         fill="#faf9e1"
         d="m 297.5,116.5 c 0.958,0.453 1.792,1.119 2.5,2 1.408,3.557 2.408,7.224 3,11 2.958,2.746 4.125,5.912 3.5,9.5 1.34,5.042 2.173,10.209 2.5,15.5 0.331,11.261 0.498,22.427 0.5,33.5 -0.586,2.28 -1.42,4.447 -2.5,6.5 -0.769,2.599 -0.602,5.099 0.5,7.5 -3.651,5.725 -6.484,11.892 -8.5,18.5 -1.749,2.121 -3.582,4.121 -5.5,6 0,-0.667 0,-1.333 0,-2 0,-1.333 0,-2.667 0,-4 1,-0.667 2,-1.333 3,-2 4.565,-6.502 6.899,-13.835 7,-22 1.511,-1.976 2.344,-4.309 2.5,-7 1.193,-11.636 1.693,-23.303 1.5,-35 -0.878,-5.647 -1.711,-11.313 -2.5,-17 -0.2,-1.82 -1.034,-3.153 -2.5,-4 -1.928,-5.542 -3.595,-11.208 -5,-17 z"
         id="path191" />
    </g>
    <g
       id="g198"
       style="clip-rule:evenodd;fill-rule:evenodd;image-rendering:optimizeQuality;shape-rendering:geometricPrecision;text-rendering:geometricPrecision"
       transform="matrix(0.32096681,0,0,0.32096681,-12.41576,-7.1443402)">
      <path
         style="opacity:1"
         fill="#faf9de"
         d="m 84.5,144.5 c -1.9305,10.231 -2.4305,20.564 -1.5,31 1.9856,9.686 3.4856,19.686 4.5,30 -2.2851,-2.835 -3.6184,-6.168 -4,-10 -3.0082,-14.52 -3.6748,-29.186 -2,-44 1.1515,-2.279 2.1515,-4.612 3,-7 z"
         id="path198" />
    </g>
    <g
       id="g202"
       style="clip-rule:evenodd;fill-rule:evenodd;image-rendering:optimizeQuality;shape-rendering:geometricPrecision;text-rendering:geometricPrecision"
       transform="matrix(0.32096681,0,0,0.32096681,-12.41576,-7.1443402)">
      <path
         style="opacity:1"
         fill="#e4cc61"
         d="m 154.5,163.5 c -4.648,9.572 -9.314,19.239 -14,29 -2.245,2.178 -4.245,4.512 -6,7 1.287,-2.906 2.287,-5.906 3,-9 3.694,-4.051 6.36,-8.717 8,-14 0.958,-0.453 1.792,-1.119 2.5,-2 1.722,-2.779 2.889,-5.779 3.5,-9 1,-0.667 2,-1.333 3,-2 z"
         id="path202" />
    </g>
    <g
       id="g203"
       style="clip-rule:evenodd;fill-rule:evenodd;image-rendering:optimizeQuality;shape-rendering:geometricPrecision;text-rendering:geometricPrecision"
       transform="matrix(0.32096681,0,0,0.32096681,-12.41576,-7.1443402)">
      <path
         style="opacity:1"
         fill="#f7eaa3"
         d="m 306.5,154.5 c 0.333,0 0.667,0 1,0 0.193,11.697 -0.307,23.364 -1.5,35 -0.156,2.691 -0.989,5.024 -2.5,7 1.15,-6.274 1.817,-12.607 2,-19 0.992,-7.482 1.325,-15.148 1,-23 z"
         id="path203" />
    </g>
    <g
       id="g204"
       style="clip-rule:evenodd;fill-rule:evenodd;image-rendering:optimizeQuality;shape-rendering:geometricPrecision;text-rendering:geometricPrecision"
       transform="matrix(0.32096681,0,0,0.32096681,-12.41576,-7.1443402)">
      <path
         style="opacity:1"
         fill="#f9f3b8"
         d="m 145.5,176.5 c -1.64,5.283 -4.306,9.949 -8,14 1.487,-3.645 2.987,-7.312 4.5,-11 1.039,-1.21 2.206,-2.21 3.5,-3 z"
         id="path204" />
    </g>
    <g
       id="g209"
       style="clip-rule:evenodd;fill-rule:evenodd;image-rendering:optimizeQuality;shape-rendering:geometricPrecision;text-rendering:geometricPrecision"
       transform="matrix(0.32096681,0,0,0.32096681,-12.41576,-7.1443402)">
      <path
         style="opacity:1"
         fill="#ebcb4d"
         d="m 225.5,203.5 c -1.333,0 -2.667,0 -4,0 -0.787,-1.604 -2.12,-2.271 -4,-2 -7.825,-4.5 -16.158,-7.833 -25,-10 -0.667,0 -1.333,0 -2,0 -2.128,-1.129 -4.461,-1.296 -7,-0.5 -10.037,4.284 -20.037,8.451 -30,12.5 -1,0 -2,0 -3,0 1.249,-1.636 2.916,-2.803 5,-3.5 3.665,-1.278 7.332,-2.444 11,-3.5 0,-1 0,-2 0,-3 3.525,0.154 6.359,-1.179 8.5,-4 3.583,1.028 6.583,0.028 9,-3 1.333,1.333 2.667,1.333 4,0 6.436,2.469 12.936,4.635 19.5,6.5 -1.333,0.667 -1.333,1.333 0,2 3.901,1.784 7.901,3.284 12,4.5 2.401,0.858 4.401,2.191 6,4 z"
         id="path209" />
    </g>
    <g
       id="g224"
       style="clip-rule:evenodd;fill-rule:evenodd;image-rendering:optimizeQuality;shape-rendering:geometricPrecision;text-rendering:geometricPrecision"
       transform="matrix(0.32096681,0,0,0.32096681,-12.41576,-7.1443402)">
      <path
         style="opacity:1"
         fill="#faf9e2"
         d="m 190.5,191.5 c 0.667,0 1.333,0 2,0 0.453,0.958 1.119,1.792 2,2.5 7.773,2.202 15.44,4.702 23,7.5 1.88,-0.271 3.213,0.396 4,2 2.588,2.125 5.588,3.458 9,4 0.847,1.466 2.18,2.3 4,2.5 5.922,1.876 9.588,-0.124 11,-6 -0.571,-2.544 -1.238,-5.044 -2,-7.5 1.696,0.185 3.029,1.019 4,2.5 -0.788,3.076 -1.288,6.242 -1.5,9.5 -1.529,3.016 -4.029,4.349 -7.5,4 -8.109,-2.203 -16.109,-4.703 -24,-7.5 -3.883,-3.692 -8.549,-5.692 -14,-6 -7.379,-5.522 -14.712,-5.856 -22,-1 -4.109,0.665 -8.109,1.498 -12,2.5 4.985,-2.393 9.985,-4.893 15,-7.5 2.893,-1.149 5.893,-1.649 9,-1.5 z"
         id="path224" />
    </g>
    <g
       id="g225"
       style="clip-rule:evenodd;fill-rule:evenodd;image-rendering:optimizeQuality;shape-rendering:geometricPrecision;text-rendering:geometricPrecision"
       transform="matrix(0.32096681,0,0,0.32096681,-12.41576,-7.1443402)">
      <path
         style="opacity:1"
         fill="#eedc87"
         d="m 192.5,191.5 c 8.842,2.167 17.175,5.5 25,10 -7.56,-2.798 -15.227,-5.298 -23,-7.5 -0.881,-0.708 -1.547,-1.542 -2,-2.5 z"
         id="path225" />
    </g>
    <g
       id="g227"
       style="clip-rule:evenodd;fill-rule:evenodd;image-rendering:optimizeQuality;shape-rendering:geometricPrecision;text-rendering:geometricPrecision"
       transform="matrix(0.32096681,0,0,0.32096681,-12.41576,-7.1443402)">
      <path
         style="opacity:1"
         fill="#f9f3bc"
         d="m 137.5,190.5 c -0.713,3.094 -1.713,6.094 -3,9 -1.25,0.077 -2.083,0.744 -2.5,2 -0.494,1.634 -0.66,3.301 -0.5,5 -1.438,-6.483 0.562,-11.817 6,-16 z"
         id="path227" />
    </g>
    <g
       id="g228"
       style="clip-rule:evenodd;fill-rule:evenodd;image-rendering:optimizeQuality;shape-rendering:geometricPrecision;text-rendering:geometricPrecision"
       transform="matrix(0.32096681,0,0,0.32096681,-12.41576,-7.1443402)">
      <path
         style="opacity:1"
         fill="#f7eeae"
         d="m 190.5,191.5 c -3.107,-0.149 -6.107,0.351 -9,1.5 -5.015,2.607 -10.015,5.107 -15,7.5 -4.286,1.124 -8.619,2.124 -13,3 9.963,-4.049 19.963,-8.216 30,-12.5 2.539,-0.796 4.872,-0.629 7,0.5 z"
         id="path228" />
    </g>
    <g
       id="g233"
       style="clip-rule:evenodd;fill-rule:evenodd;image-rendering:optimizeQuality;shape-rendering:geometricPrecision;text-rendering:geometricPrecision"
       transform="matrix(0.32096681,0,0,0.32096681,-12.41576,-7.1443402)">
      <path
         style="opacity:1"
         fill="#e0c85d"
         d="m 134.5,199.5 c -1.105,2.213 -1.105,4.38 0,6.5 3.81,0.587 7.477,0.087 11,-1.5 -4.214,4.148 -8.881,4.814 -14,2 -0.16,-1.699 0.006,-3.366 0.5,-5 0.417,-1.256 1.25,-1.923 2.5,-2 z"
         id="path233" />
    </g>
    <g
       id="g234"
       style="clip-rule:evenodd;fill-rule:evenodd;image-rendering:optimizeQuality;shape-rendering:geometricPrecision;text-rendering:geometricPrecision"
       transform="matrix(0.32096681,0,0,0.32096681,-12.41576,-7.1443402)">
      <path
         style="opacity:1"
         fill="#e8cf63"
         d="m 236.5,191.5 c 2.25,2.834 4.416,5.834 6.5,9 1.832,5.32 -0.001,7.987 -5.5,8 -2.358,-0.253 -4.692,-0.586 -7,-1 -3.412,-0.542 -6.412,-1.875 -9,-4 1.333,0 2.667,0 4,0 4.963,0.926 9.963,1.592 15,2 -0.425,-5.05 -1.758,-9.717 -4,-14 z"
         id="path234" />
    </g>
    <g
       id="g235"
       style="clip-rule:evenodd;fill-rule:evenodd;image-rendering:optimizeQuality;shape-rendering:geometricPrecision;text-rendering:geometricPrecision"
       transform="matrix(0.32096681,0,0,0.32096681,-12.41576,-7.1443402)">
      <path
         style="opacity:1"
         fill="#f7f0ba"
         d="m 236.5,187.5 c 2.155,3.103 4.489,6.103 7,9 0.762,2.456 1.429,4.956 2,7.5 -1.412,5.876 -5.078,7.876 -11,6 -1.82,-0.2 -3.153,-1.034 -4,-2.5 2.308,0.414 4.642,0.747 7,1 5.499,-0.013 7.332,-2.68 5.5,-8 -2.084,-3.166 -4.25,-6.166 -6.5,-9 0,-1.333 0,-2.667 0,-4 z"
         id="path235" />
    </g>
    <g
       id="g237"
       style="clip-rule:evenodd;fill-rule:evenodd;image-rendering:optimizeQuality;shape-rendering:geometricPrecision;text-rendering:geometricPrecision"
       transform="matrix(0.32096681,0,0,0.32096681,-12.41576,-7.1443402)">
      <path
         style="opacity:1"
         fill="#f3e7a0"
         d="m 150.5,203.5 c 1,0 2,0 3,0 -3.248,3.183 -7.248,5.016 -12,5.5 -3,0.667 -6,0.667 -9,0 -0.752,-0.671 -1.086,-1.504 -1,-2.5 5.119,2.814 9.786,2.148 14,-2 1.617,-0.538 3.284,-0.871 5,-1 z"
         id="path237" />
    </g>
    <g
       id="g238"
       style="clip-rule:evenodd;fill-rule:evenodd;image-rendering:optimizeQuality;shape-rendering:geometricPrecision;text-rendering:geometricPrecision"
       transform="matrix(0.32096681,0,0,0.32096681,-12.41576,-7.1443402)">
      <path
         style="opacity:1"
         fill="#f9f2b8"
         d="m 303.5,196.5 c -0.101,8.165 -2.435,15.498 -7,22 2.455,-7.394 4.789,-14.727 7,-22 z"
         id="path238" />
    </g>
    <g
       id="g245"
       style="clip-rule:evenodd;fill-rule:evenodd;image-rendering:optimizeQuality;shape-rendering:geometricPrecision;text-rendering:geometricPrecision"
       transform="matrix(0.32096681,0,0,0.32096681,-12.41576,-7.1443402)">
      <path
         style="opacity:1"
         fill="#faf5ca"
         d="m 87.5,205.5 c 5.0935,7.378 9.0935,15.378 12,24 -2.0917,-3.181 -4.425,-6.181 -7,-9 -0.6283,-2.59 -1.795,-4.923 -3.5,-7 -0.8215,-2.617 -1.3215,-5.284 -1.5,-8 z"
         id="path245" />
    </g>
    <g
       id="g255"
       style="clip-rule:evenodd;fill-rule:evenodd;image-rendering:optimizeQuality;shape-rendering:geometricPrecision;text-rendering:geometricPrecision"
       transform="matrix(0.32096681,0,0,0.32096681,-12.41576,-7.1443402)">
      <path
         style="opacity:1"
         fill="#e8cd5d"
         d="m 293.5,195.5 c -0.959,6.255 -2.792,12.255 -5.5,18 -4.46,6.008 -7.793,12.675 -10,20 -9.69,10.08 -19.857,19.58 -30.5,28.5 -1.654,0.608 -3.321,1.108 -5,1.5 1.333,-1.333 2.667,-2.667 4,-4 6.683,-5.353 13.016,-11.02 19,-17 3.04,-3.039 5.706,-6.373 8,-10 1.294,-0.79 2.461,-1.79 3.5,-3 2.589,-5.514 5.422,-10.847 8.5,-16 2.861,-5.917 5.528,-11.917 8,-18 z"
         id="path255" />
    </g>
    <g
       id="g256"
       style="clip-rule:evenodd;fill-rule:evenodd;image-rendering:optimizeQuality;shape-rendering:geometricPrecision;text-rendering:geometricPrecision"
       transform="matrix(0.32096681,0,0,0.32096681,-12.41576,-7.1443402)">
      <path
         style="opacity:1"
         fill="#e5cc5c"
         d="m 77.5,211.5 c 2.5839,3.177 5.0839,6.51 7.5,10 2.1885,6.489 5.1885,12.489 9,18 1.4413,1.37 3.108,2.37 5,3 1.083,2.767 2.25,5.433 3.5,8 -2.333,-2 -4.6667,-4 -7,-6 -5.4071,-7.806 -10.5738,-15.806 -15.5,-24 -0.4008,-3.199 -1.2341,-6.199 -2.5,-9 z"
         id="path256" />
    </g>
    <g
       id="g260"
       style="clip-rule:evenodd;fill-rule:evenodd;image-rendering:optimizeQuality;shape-rendering:geometricPrecision;text-rendering:geometricPrecision"
       transform="matrix(0.32096681,0,0,0.32096681,-12.41576,-7.1443402)">
      <path
         style="opacity:1"
         fill="#f9f4c5"
         d="m 102.5,232.5 c 8.343,9.343 17.343,18.01 27,26 -1.872,-1.011 -3.872,-1.845 -6,-2.5 -7.949,-7.109 -14.949,-14.942 -21,-23.5 z"
         id="path260" />
    </g>
    <g
       id="g264"
       style="clip-rule:evenodd;fill-rule:evenodd;image-rendering:optimizeQuality;shape-rendering:geometricPrecision;text-rendering:geometricPrecision"
       transform="matrix(0.32096681,0,0,0.32096681,-12.41576,-7.1443402)">
      <path
         style="opacity:1"
         fill="#faf5bf"
         d="m 265.5,242.5 c -5.984,5.98 -12.317,11.647 -19,17 -3.333,1.667 -6.667,3.333 -10,5 2.906,-3.465 6.573,-5.965 11,-7.5 3.703,-3.419 7.37,-6.919 11,-10.5 1.872,-2.104 4.205,-3.437 7,-4 z"
         id="path264" />
    </g>
    <g
       id="g281"
       style="clip-rule:evenodd;fill-rule:evenodd;image-rendering:optimizeQuality;shape-rendering:geometricPrecision;text-rendering:geometricPrecision"
       transform="matrix(0.32096681,0,0,0.32096681,-12.41576,-7.1443402)">
      <path
         style="opacity:1"
         fill="#e6ce67"
         d="m 102.5,250.5 c 6.696,3.846 12.363,8.846 17,15 -6.696,-3.846 -12.363,-8.846 -17,-15 z"
         id="path281" />
    </g>
    <g
       id="g282"
       style="clip-rule:evenodd;fill-rule:evenodd;image-rendering:optimizeQuality;shape-rendering:geometricPrecision;text-rendering:geometricPrecision"
       transform="matrix(0.32096681,0,0,0.32096681,-12.41576,-7.1443402)">
      <path
         style="opacity:1"
         fill="#e8cf67"
         d="m 92.5,220.5 c 2.575,2.819 4.9083,5.819 7,9 0.667,1.333 1.667,2.333 3,3 6.051,8.558 13.051,16.391 21,23.5 2.128,0.655 4.128,1.489 6,2.5 0.453,0.958 1.119,1.792 2,2.5 2.785,0.658 5.451,1.491 8,2.5 2.309,2.487 4.976,4.487 8,6 -10.615,-3.809 -20.615,-8.975 -30,-15.5 -3.808,-6.475 -8.975,-11.642 -15.5,-15.5 -2.9739,-4.597 -5.9739,-9.264 -9,-14 -0.49,-1.293 -0.6567,-2.627 -0.5,-4 z"
         id="path282" />
    </g>
    <g
       id="g283"
       style="clip-rule:evenodd;fill-rule:evenodd;image-rendering:optimizeQuality;shape-rendering:geometricPrecision;text-rendering:geometricPrecision"
       transform="matrix(0.32096681,0,0,0.32096681,-12.41576,-7.1443402)">
      <path
         style="opacity:1"
         fill="#faf9ea"
         d="m 73.5,125.5 c -2.8642,10.153 -5.0309,20.486 -6.5,31 -1.8959,29.752 5.2708,57.085 21.5,82 1.7252,2.698 4.0586,4.698 7,6 0.5722,1.755 1.4055,3.422 2.5,5 4.167,2.833 7.667,6.333 10.5,10.5 7.415,6.023 15.082,11.523 23,16.5 -6.104,-2.886 -12.104,-6.053 -18,-9.5 -30.9838,-25.301 -47.3171,-57.968 -49,-98 0.1561,-13.643 2.3228,-27.476 6.5,-41.5 0.7083,-0.881 1.5416,-1.547 2.5,-2 z"
         id="path283" />
    </g>
    <g
       id="g284"
       style="clip-rule:evenodd;fill-rule:evenodd;image-rendering:optimizeQuality;shape-rendering:geometricPrecision;text-rendering:geometricPrecision"
       transform="matrix(0.32096681,0,0,0.32096681,-12.41576,-7.1443402)">
      <path
         style="opacity:1"
         fill="#faf9e1"
         d="m 258.5,246.5 c -3.63,3.581 -7.297,7.081 -11,10.5 -4.427,1.535 -8.094,4.035 -11,7.5 -6.518,3.701 -13.518,6.035 -21,7 -1,0 -2,0 -3,0 8.857,-3.227 17.523,-7.06 26,-11.5 6.541,-4.712 13.208,-9.212 20,-13.5 z"
         id="path284" />
    </g>
    <g
       id="g289"
       style="clip-rule:evenodd;fill-rule:evenodd;image-rendering:optimizeQuality;shape-rendering:geometricPrecision;text-rendering:geometricPrecision"
       transform="matrix(0.32096681,0,0,0.32096681,-12.41576,-7.1443402)">
      <path
         style="opacity:1"
         fill="#ecd877"
         d="m 246.5,259.5 c -1.333,1.333 -2.667,2.667 -4,4 -8.967,4.825 -18.3,8.492 -28,11 -1.333,0 -2.667,0 -4,0 1.761,-0.813 3.428,-1.813 5,-3 7.482,-0.965 14.482,-3.299 21,-7 3.333,-1.667 6.667,-3.333 10,-5 z"
         id="path289" />
    </g>
    <g
       id="g293"
       style="clip-rule:evenodd;fill-rule:evenodd;image-rendering:optimizeQuality;shape-rendering:geometricPrecision;text-rendering:geometricPrecision"
       transform="matrix(0.32096681,0,0,0.32096681,-12.41576,-7.1443402)">
      <path
         style="opacity:1"
         fill="#f9f4be"
         d="m 95.5,244.5 c 2.3333,2 4.667,4 7,6 4.637,6.154 10.304,11.154 17,15 6.034,4.012 12.034,8.012 18,12 -2,-0.333 -4,-0.667 -6,-1 -7.918,-4.977 -15.585,-10.477 -23,-16.5 -2.833,-4.167 -6.333,-7.667 -10.5,-10.5 -1.0945,-1.578 -1.9278,-3.245 -2.5,-5 z"
         id="path293" />
    </g>
    <g
       id="g295"
       style="clip-rule:evenodd;fill-rule:evenodd;image-rendering:optimizeQuality;shape-rendering:geometricPrecision;text-rendering:geometricPrecision"
       transform="matrix(0.32096681,0,0,0.32096681,-12.41576,-7.1443402)">
      <path
         style="opacity:1"
         fill="#faf9e9"
         d="m 129.5,258.5 c 10.953,3.907 21.953,7.907 33,12 0.942,-0.108 1.775,-0.441 2.5,-1 5.965,2.103 12.131,3.436 18.5,4 9.495,-0.744 19.162,-1.411 29,-2 -25.272,6.038 -49.605,3.372 -73,-8 -2.549,-1.009 -5.215,-1.842 -8,-2.5 -0.881,-0.708 -1.547,-1.542 -2,-2.5 z"
         id="path295" />
    </g>
    <g
       id="g296"
       style="clip-rule:evenodd;fill-rule:evenodd;image-rendering:optimizeQuality;shape-rendering:geometricPrecision;text-rendering:geometricPrecision"
       transform="matrix(0.32096681,0,0,0.32096681,-12.41576,-7.1443402)">
      <path
         style="opacity:1"
         fill="#f9f5c1"
         d="m 139.5,263.5 c 23.395,11.372 47.728,14.038 73,8 1,0 2,0 3,0 -1.572,1.187 -3.239,2.187 -5,3 -20.7,3.705 -41.033,2.371 -61,-4 -0.342,-0.838 -1.008,-1.172 -2,-1 -3.024,-1.513 -5.691,-3.513 -8,-6 z"
         id="path296" />
    </g>
    <g
       id="g298"
       style="clip-rule:evenodd;fill-rule:evenodd;image-rendering:optimizeQuality;shape-rendering:geometricPrecision;text-rendering:geometricPrecision"
       transform="matrix(0.32096681,0,0,0.32096681,-12.41576,-7.1443402)">
      <path
         style="opacity:1"
         fill="#f9f4bc"
         d="m 293.5,224.5 c 0,0.667 0,1.333 0,2 -10.782,18.613 -25.115,33.779 -43,45.5 -10.052,4.668 -20.052,9.168 -30,13.5 -17.65,4.346 -35.317,5.013 -53,2 8.992,0.774 17.992,0.941 27,0.5 8.314,-0.598 16.314,-2.098 24,-4.5 19.034,-5.182 35.701,-14.515 50,-28 3.938,-3.435 7.771,-7.102 11.5,-11 4.755,-6.571 9.255,-13.238 13.5,-20 z"
         id="path298" />
    </g>
    <g
       id="g304"
       style="clip-rule:evenodd;fill-rule:evenodd;image-rendering:optimizeQuality;shape-rendering:geometricPrecision;text-rendering:geometricPrecision"
       transform="matrix(0.32096681,0,0,0.32096681,-12.41576,-7.1443402)">
      <path
         style="opacity:1"
         fill="#e5cd5e"
         d="m 268.5,255.5 c -14.299,13.485 -30.966,22.818 -50,28 -22.744,4.207 -45.41,3.873 -68,-1 -3.624,-2.309 -7.624,-3.476 -12,-3.5 -0.556,-0.383 -0.889,-0.883 -1,-1.5 -5.966,-3.988 -11.966,-7.988 -18,-12 5.981,1.492 11.314,4.325 16,8.5 25.074,10.426 51.074,13.426 78,9 10.384,-2.758 20.384,-6.424 30,-11 5.354,-3.365 10.687,-6.698 16,-10 2.345,-3.193 5.345,-5.36 9,-6.5 z"
         id="path304" />
    </g>
    <g
       id="g305"
       style="clip-rule:evenodd;fill-rule:evenodd;image-rendering:optimizeQuality;shape-rendering:geometricPrecision;text-rendering:geometricPrecision"
       transform="matrix(0.32096681,0,0,0.32096681,-12.41576,-7.1443402)">
      <path
         style="opacity:1"
         fill="#e6cd5b"
         d="m 149.5,270.5 c 19.967,6.371 40.3,7.705 61,4 1.333,0 2.667,0 4,0 -1.976,1.511 -4.309,2.344 -7,2.5 -15.411,2.243 -30.745,1.91 -46,-1 -4.348,-1.379 -8.348,-3.213 -12,-5.5 z"
         id="path305" />
    </g>
    <g
       id="g306"
       style="clip-rule:evenodd;fill-rule:evenodd;image-rendering:optimizeQuality;shape-rendering:geometricPrecision;text-rendering:geometricPrecision"
       transform="matrix(0.32096681,0,0,0.32096681,-12.41576,-7.1443402)">
      <path
         style="opacity:1"
         fill="#f3e597"
         d="m 150.5,282.5 c 22.59,4.873 45.256,5.207 68,1 -7.686,2.402 -15.686,3.902 -24,4.5 -9.008,0.441 -18.008,0.274 -27,-0.5 -6.052,-0.687 -11.718,-2.354 -17,-5 z"
         id="path306" />
    </g>
    <g
       id="g307"
       style="clip-rule:evenodd;fill-rule:evenodd;image-rendering:optimizeQuality;shape-rendering:geometricPrecision;text-rendering:geometricPrecision"
       transform="matrix(0.32096681,0,0,0.32096681,-12.41576,-7.1443402)">
      <path
         style="opacity:1"
         fill="#faf9e8"
         d="m 131.5,276.5 c 2,0.333 4,0.667 6,1 0.111,0.617 0.444,1.117 1,1.5 4.376,0.024 8.376,1.191 12,3.5 5.282,2.646 10.948,4.313 17,5 17.683,3.013 35.35,2.346 53,-2 -0.111,0.617 -0.444,1.117 -1,1.5 -16.735,3.385 -33.735,4.385 -51,3 -11.586,-2.697 -22.586,-6.03 -33,-10 -1.593,-0.949 -2.926,-2.115 -4,-3.5 z"
         id="path307" />
    </g>
  </g>
</svg>
