<?xml version="1.0" encoding="UTF-8" standalone="no"?>
<!-- Created with Inkscape (http://www.inkscape.org/) -->

<svg
   width="96mm"
   height="96mm"
   viewBox="0 0 96 96"
   version="1.1"
   id="svg1"
   inkscape:version="1.4.2 (ebf0e940, 2025-05-08)"
   sodipodi:docname="boat.svg"
   xmlns:inkscape="http://www.inkscape.org/namespaces/inkscape"
   xmlns:sodipodi="http://sodipodi.sourceforge.net/DTD/sodipodi-0.dtd"
   xmlns="http://www.w3.org/2000/svg"
   xmlns:svg="http://www.w3.org/2000/svg">
  <sodipodi:namedview
     id="namedview1"
     pagecolor="#ffffff"
     bordercolor="#000000"
     borderopacity="0.25"
     inkscape:showpageshadow="2"
     inkscape:pageopacity="0.0"
     inkscape:pagecheckerboard="0"
     inkscape:deskcolor="#d1d1d1"
     inkscape:document-units="mm"
     inkscape:zoom="0.80444024"
     inkscape:cx="397.17059"
     inkscape:cy="262.91574"
     inkscape:window-width="1920"
     inkscape:window-height="1052"
     inkscape:window-x="0"
     inkscape:window-y="28"
     inkscape:window-maximized="0"
     inkscape:current-layer="layer1" />
  <defs
     id="defs1" />
  <g
     inkscape:label="Layer 1"
     inkscape:groupmode="layer"
     id="layer1">
    <g
       id="g7"
       style="clip-rule:evenodd;fill-rule:evenodd;image-rendering:optimizeQuality;shape-rendering:geometricPrecision;text-rendering:geometricPrecision"
       transform="matrix(0.26458333,0,0,0.26458333,-281.23287,4.6119985)">
      <path
         style="opacity:1"
         fill="#faf9ed"
         d="m 1263.5,10.5 c -2.48,-0.74204 -4.81,-1.74204 -7,-3 -1.1,-1.09832 -2.43,-1.26498 -4,-0.5 -2.06,1.93341 -4.22,3.7667 -6.5,5.5 -2.97,3.8166 -5.8,7.8166 -8.5,12 -0.75,1.2362 -1.08,2.5695 -1,4 0,0.3333 0,0.6667 0,1 -1.18,-0.219 -2.18,0.1143 -3,1 -0.63,2.2855 -1.97,3.9522 -4,5 2.88,-7.9406 7.71,-15.274 14.5,-22 1.59,-2.1705 2.92,-4.50381 4,-7 0.33,0.33333 0.67,0.66667 1,1 5.86,-4.46047 10.7,-3.46047 14.5,3 z"
         id="path7" />
    </g>
    <g
       id="g10"
       style="clip-rule:evenodd;fill-rule:evenodd;image-rendering:optimizeQuality;shape-rendering:geometricPrecision;text-rendering:geometricPrecision"
       transform="matrix(0.26458333,0,0,0.26458333,-281.23287,4.6119985)">
      <path
         style="opacity:1"
         fill="#f7f3d3"
         d="m 1256.5,7.5 c 2.19,1.25796 4.52,2.25796 7,3 0.8,2.4663 2.13,4.4663 4,6 1.92,3.5171 3.59,7.1837 5,11 -3.96,-5.2954 -8.29,-10.2954 -13,-15 -0.58,-1.9113 -1.58,-3.57797 -3,-5 z"
         id="path10" />
    </g>
    <g
       id="g12"
       style="clip-rule:evenodd;fill-rule:evenodd;image-rendering:optimizeQuality;shape-rendering:geometricPrecision;text-rendering:geometricPrecision"
       transform="matrix(0.26458333,0,0,0.26458333,-281.23287,4.6119985)">
      <path
         style="opacity:1"
         fill="#a38c48"
         d="m 1256.5,7.5 c 1.42,1.42203 2.42,3.0887 3,5 -1.66,-0.6465 -3.32,-1.3131 -5,-2 -0.67,0.3333 -1.33,0.6667 -2,1 -5.98,6.637 -11.48,13.637 -16.5,21 -2.91,6.1177 -6.08,12.1177 -9.5,18 -0.86,0.9252 -1.86,1.5919 -3,2 3.55,-8.0938 7.88,-15.7605 13,-23 0,-0.3333 0,-0.6667 0,-1 5.3,-6.1445 10.47,-12.4778 15.5,-19 1.11,-1.53683 2.61,-2.2035 4.5,-2 z"
         id="path12" />
    </g>
    <g
       id="g15"
       style="clip-rule:evenodd;fill-rule:evenodd;image-rendering:optimizeQuality;shape-rendering:geometricPrecision;text-rendering:geometricPrecision"
       transform="matrix(0.26458333,0,0,0.26458333,-281.23287,4.6119985)">
      <path
         style="opacity:1"
         fill="#f6f0cb"
         d="m 1256.5,7.5 c -1.89,-0.2035 -3.39,0.46317 -4.5,2 -5.03,6.5222 -10.2,12.8555 -15.5,19 -0.08,-1.4305 0.25,-2.7638 1,-4 2.7,-4.1834 5.53,-8.1834 8.5,-12 2.28,-1.7333 4.44,-3.56659 6.5,-5.5 1.57,-0.76498 2.9,-0.59832 4,0.5 z"
         id="path15" />
    </g>
    <g
       id="g21"
       style="clip-rule:evenodd;fill-rule:evenodd;image-rendering:optimizeQuality;shape-rendering:geometricPrecision;text-rendering:geometricPrecision"
       transform="matrix(0.26458333,0,0,0.26458333,-281.23287,4.6119985)">
      <path
         style="opacity:1"
         fill="#aa8a2b"
         d="m 1259.5,12.5 c -0.16,1.3734 0.01,2.7068 0.5,4 3.11,2.1936 5.77,4.8603 8,8 6.03,9.3804 11.7,19.0471 17,29 0.71,0.8805 1.54,1.5472 2.5,2 1.21,9.7416 4.21,18.7416 9,27 0.36,7.7475 1.36,15.4141 3,23 -0.67,-1.333 -1.33,-2.667 -2,-4 -4.03,-20.6498 -10.86,-40.3164 -20.5,-59 -2.28,-3.5804 -4.78,-6.9137 -7.5,-10 -3.83,-7.0069 -8.66,-13.3402 -14.5,-19 -5.43,5.5853 -10.26,11.5853 -14.5,18 -10.98,15.3079 -18.81,32.3079 -23.5,51 -4.24,17.4185 -6.74,35.085 -7.5,53 1.6,-0.268 2.93,0.066 4,1 -1.67,0 -3.33,0 -5,0 -1.53,-12.457 -0.7,-24.79 2.5,-37 3.94,-15.7892 8.11,-31.4559 12.5,-47 1.14,-0.4081 2.14,-1.0748 3,-2 3.42,-5.8823 6.59,-11.8823 9.5,-18 5.02,-7.363 10.52,-14.363 16.5,-21 0.67,-0.3333 1.33,-0.6667 2,-1 1.68,0.6869 3.34,1.3535 5,2 z"
         id="path21" />
    </g>
    <g
       id="g22"
       style="clip-rule:evenodd;fill-rule:evenodd;image-rendering:optimizeQuality;shape-rendering:geometricPrecision;text-rendering:geometricPrecision"
       transform="matrix(0.26458333,0,0,0.26458333,-281.23287,4.6119985)">
      <path
         style="opacity:1"
         fill="#ba9722"
         d="m 1263.5,31.5 c 0.16,3.0184 0,6.0184 -0.5,9 -0.5,0.5 -1,1 -1.5,1.5 -4.33,0.6667 -8.67,0.6667 -13,0 -1.84,-2.8263 -2.51,-5.9929 -2,-9.5 0.53,-6.3995 3.2,-11.7328 8,-16 4.27,4.1953 7.27,9.1953 9,15 z"
         id="path22" />
    </g>
    <g
       id="g23"
       style="clip-rule:evenodd;fill-rule:evenodd;image-rendering:optimizeQuality;shape-rendering:geometricPrecision;text-rendering:geometricPrecision"
       transform="matrix(0.26458333,0,0,0.26458333,-281.23287,4.6119985)">
      <path
         style="opacity:1"
         fill="#a88e48"
         d="m 1259.5,12.5 c 4.71,4.7046 9.04,9.7046 13,15 3.01,4.7031 6.01,9.3698 9,14 0.33,0.6667 0.67,1.3333 1,2 1.68,4.034 3.34,8.034 5,12 -0.96,-0.4528 -1.79,-1.1195 -2.5,-2 -5.3,-9.9529 -10.97,-19.6196 -17,-29 -2.23,-3.1397 -4.89,-5.8064 -8,-8 -0.49,-1.2932 -0.66,-2.6266 -0.5,-4 z"
         id="path23" />
    </g>
    <g
       id="g24"
       style="clip-rule:evenodd;fill-rule:evenodd;image-rendering:optimizeQuality;shape-rendering:geometricPrecision;text-rendering:geometricPrecision"
       transform="matrix(0.26458333,0,0,0.26458333,-281.23287,4.6119985)">
      <path
         style="opacity:1"
         fill="#f1d15a"
         d="m 1269.5,32.5 c -1.35,-0.6712 -2.51,-0.6712 -3.5,0 -0.33,1.6667 -0.67,3.3333 -1,5 -0.19,-2.2078 -0.69,-4.2078 -1.5,-6 -1.73,-5.8047 -4.73,-10.8047 -9,-15 -4.8,4.2672 -7.47,9.6005 -8,16 -2.11,-1.4681 -3.94,-1.1348 -5.5,1 -0.46,-0.5944 -0.63,-1.2611 -0.5,-2 4.24,-6.4147 9.07,-12.4147 14.5,-18 5.84,5.6598 10.67,11.9931 14.5,19 z"
         id="path24" />
    </g>
    <g
       id="g25"
       style="clip-rule:evenodd;fill-rule:evenodd;image-rendering:optimizeQuality;shape-rendering:geometricPrecision;text-rendering:geometricPrecision"
       transform="matrix(0.26458333,0,0,0.26458333,-281.23287,4.6119985)">
      <path
         style="opacity:1"
         fill="#f4ecc5"
         d="m 1236.5,29.5 c -5.12,7.2395 -9.45,14.9062 -13,23 -4.8,9.5953 -8.47,19.5953 -11,30 0.99,-4.6173 1.65,-9.284 2,-14 4.82,-11.1481 9.82,-22.1481 15,-33 2.03,-1.0478 3.37,-2.7145 4,-5 0.82,-0.8857 1.82,-1.219 3,-1 z"
         id="path25" />
    </g>
    <g
       id="g26"
       style="clip-rule:evenodd;fill-rule:evenodd;image-rendering:optimizeQuality;shape-rendering:geometricPrecision;text-rendering:geometricPrecision"
       transform="matrix(0.26458333,0,0,0.26458333,-281.23287,4.6119985)">
      <path
         style="opacity:1"
         fill="#f7f0ca"
         d="m 1272.5,27.5 c 1.52,0.0106 2.68,0.6772 3.5,2 3.01,3.4971 4.85,7.4971 5.5,12 -2.99,-4.6302 -5.99,-9.2969 -9,-14 z"
         id="path26" />
    </g>
    <g
       id="g27"
       style="clip-rule:evenodd;fill-rule:evenodd;image-rendering:optimizeQuality;shape-rendering:geometricPrecision;text-rendering:geometricPrecision"
       transform="matrix(0.26458333,0,0,0.26458333,-281.23287,4.6119985)">
      <path
         style="opacity:1"
         fill="#faf9eb"
         d="m 1267.5,16.5 c 7.11,7.4108 13.11,15.5775 18,24.5 5.76,13.3462 11.09,26.8462 16,40.5 -0.45,2.7179 0.22,5.3846 2,8 -0.49,0.9461 -0.82,1.9461 -1,3 1.16,5.281 1.99,10.614 2.5,16 0.71,1.581 1.54,3.081 2.5,4.5 -0.33,0.333 -0.67,0.667 -1,1 0.67,2.333 1.33,4.667 2,7 -0.33,0.333 -0.67,0.667 -1,1 1.16,9.373 2.16,19.039 3,29 -0.76,16.277 -0.76,33.11 0,50.5 -0.62,5.465 -1.29,10.798 -2,16 0.33,-11.512 -0.01,-22.846 -1,-34 0,-11.333 0,-22.667 0,-34 0.54,-11.152 -0.29,-22.152 -2.5,-33 -0.38,-0.556 -0.88,-0.889 -1.5,-1 0,-1 0,-2 0,-3 0.34,-4.622 -0.32,-8.955 -2,-13 -1.33,-14.4867 -5,-28.3201 -11,-41.5 -0.34,-1.0299 -1,-1.5299 -2,-1.5 0,-0.3333 0,-0.6667 0,-1 0.06,-5.1841 -1.94,-9.1841 -6,-12 -0.33,-0.6667 -0.67,-1.3333 -1,-2 -0.65,-4.5029 -2.49,-8.5029 -5.5,-12 -0.82,-1.3228 -1.98,-1.9894 -3.5,-2 -1.41,-3.8163 -3.08,-7.4829 -5,-11 z"
         id="path27" />
    </g>
    <g
       id="g28"
       style="clip-rule:evenodd;fill-rule:evenodd;image-rendering:optimizeQuality;shape-rendering:geometricPrecision;text-rendering:geometricPrecision"
       transform="matrix(0.26458333,0,0,0.26458333,-281.23287,4.6119985)">
      <path
         style="opacity:1"
         fill="#f1ce4f"
         d="m 1253.5,19.5 c 1,-0.0858 1.83,0.2476 2.5,1 3.71,6.1571 5.21,12.8238 4.5,20 -3.94,0.2935 -7.77,-0.0399 -11.5,-1 -0.67,-3.3333 -0.67,-6.6667 0,-10 1.25,-3.504 2.75,-6.8374 4.5,-10 z"
         id="path28" />
    </g>
    <g
       id="g34"
       style="clip-rule:evenodd;fill-rule:evenodd;image-rendering:optimizeQuality;shape-rendering:geometricPrecision;text-rendering:geometricPrecision"
       transform="matrix(0.26458333,0,0,0.26458333,-281.23287,4.6119985)">
      <path
         style="opacity:1"
         fill="#f2eac4"
         d="m 1282.5,43.5 c 4.06,2.8159 6.06,6.8159 6,12 -0.33,0 -0.67,0 -1,0 -1.66,-3.966 -3.32,-7.966 -5,-12 z"
         id="path34" />
    </g>
    <g
       id="g36"
       style="clip-rule:evenodd;fill-rule:evenodd;image-rendering:optimizeQuality;shape-rendering:geometricPrecision;text-rendering:geometricPrecision"
       transform="matrix(0.26458333,0,0,0.26458333,-281.23287,4.6119985)">
      <path
         style="opacity:1"
         fill="#f2cf4d"
         d="m 1240.5,31.5 c -0.13,0.7389 0.04,1.4056 0.5,2 1.56,-2.1348 3.39,-2.4681 5.5,-1 -0.51,3.5071 0.16,6.6737 2,9.5 4.33,0.6667 8.67,0.6667 13,0 0.5,-0.5 1,-1 1.5,-1.5 0.5,-2.9816 0.66,-5.9816 0.5,-9 0.81,1.7922 1.31,3.7922 1.5,6 0.33,-1.6667 0.67,-3.3333 1,-5 0.99,-0.6712 2.15,-0.6712 3.5,0 2.72,3.0863 5.22,6.4196 7.5,10 9.64,18.6836 16.47,38.3502 20.5,59 0.63,4.641 0.96,9.307 1,14 0.24,9.497 -1.42,10.163 -5,2 0,-0.667 -0.33,-1 -1,-1 -2.06,-20.8049 -7.23,-40.8049 -15.5,-60 -2.04,-3.4405 -4.54,-6.4405 -7.5,-9 -5.08,-1.5152 -10.41,-2.1818 -16,-2 -8.9,-1.9628 -15.4,1.0372 -19.5,9 -3.73,7.0157 -6.56,14.3491 -8.5,22 -1.96,6.1656 -3.8,12.4989 -5.5,19 -2.22,13.951 -4.39,27.618 -6.5,41 -1.07,-0.934 -2.4,-1.268 -4,-1 0.76,-17.915 3.26,-35.5815 7.5,-53 4.69,-18.6921 12.52,-35.6921 23.5,-51 z"
         id="path36" />
    </g>
    <g
       id="g37"
       style="clip-rule:evenodd;fill-rule:evenodd;image-rendering:optimizeQuality;shape-rendering:geometricPrecision;text-rendering:geometricPrecision"
       transform="matrix(0.26458333,0,0,0.26458333,-281.23287,4.6119985)">
      <path
         style="opacity:1"
         fill="#d4ac3c"
         d="m 1266.5,48.5 c 2.84,1.1865 5.01,3.1865 6.5,6 8.91,17.2948 13.91,35.6281 15,55 -3.56,-17.8119 -8.89,-35.1452 -16,-52 -1.79,-2.7953 -3.96,-5.2953 -6.5,-7.5 -6,-0.6667 -12,-0.6667 -18,0 -2.96,0.2293 -5.46,1.396 -7.5,3.5 -5.02,8.0611 -8.69,16.7278 -11,26 -2.8,9.9322 -5.3,19.9322 -7.5,30 -1.15,-2.265 -1.31,-4.598 -0.5,-7 1.56,-7.4396 3.4,-14.7729 5.5,-22 2.15,-6.3124 4.32,-12.6457 6.5,-19 2.21,-4.5997 5.05,-8.7664 8.5,-12.5 8.43,-1.7503 16.77,-1.9169 25,-0.5 z"
         id="path37" />
    </g>
    <g
       id="g40"
       style="clip-rule:evenodd;fill-rule:evenodd;image-rendering:optimizeQuality;shape-rendering:geometricPrecision;text-rendering:geometricPrecision"
       transform="matrix(0.26458333,0,0,0.26458333,-281.23287,4.6119985)">
      <path
         style="opacity:1"
         fill="#f4ebc4"
         d="m 1288.5,56.5 c 1,-0.0299 1.66,0.4701 2,1.5 6,13.1799 9.67,27.0133 11,41.5 -1.56,-5.6868 -3.23,-11.3535 -5,-17 -2.06,-8.857 -4.73,-17.5237 -8,-26 z"
         id="path40" />
    </g>
    <g
       id="g53"
       style="clip-rule:evenodd;fill-rule:evenodd;image-rendering:optimizeQuality;shape-rendering:geometricPrecision;text-rendering:geometricPrecision"
       transform="matrix(0.26458333,0,0,0.26458333,-281.23287,4.6119985)">
      <path
         style="opacity:1"
         fill="#a58b45"
         d="m 1287.5,55.5 c 0.33,0 0.67,0 1,0 0,0.3333 0,0.6667 0,1 3.27,8.4763 5.94,17.143 8,26 -4.79,-8.2584 -7.79,-17.2584 -9,-27 z"
         id="path53" />
    </g>
    <g
       id="g55"
       style="clip-rule:evenodd;fill-rule:evenodd;image-rendering:optimizeQuality;shape-rendering:geometricPrecision;text-rendering:geometricPrecision"
       transform="matrix(0.26458333,0,0,0.26458333,-281.23287,4.6119985)">
      <path
         style="opacity:1"
         fill="#a78f49"
         d="m 1223.5,52.5 c -4.39,15.5441 -8.56,31.2108 -12.5,47 -3.2,12.21 -4.03,24.543 -2.5,37 -1.29,-0.237 -2.29,0.096 -3,1 -0.33,0 -0.67,0 -1,0 1.17,-12.689 2.84,-25.356 5,-38 0,-0.6667 0,-1.3333 0,-2 1.63,-4.4114 2.63,-9.078 3,-14 0,-0.3333 0,-0.6667 0,-1 2.53,-10.4047 6.2,-20.4047 11,-30 z"
         id="path55" />
    </g>
    <g
       id="g57"
       style="clip-rule:evenodd;fill-rule:evenodd;image-rendering:optimizeQuality;shape-rendering:geometricPrecision;text-rendering:geometricPrecision"
       transform="matrix(0.26458333,0,0,0.26458333,-281.23287,4.6119985)">
      <path
         style="opacity:1"
         fill="#b08818"
         d="m 1269.5,47.5 c -0.71,0.904 -1.71,1.2373 -3,1 -8.23,-1.4169 -16.57,-1.2503 -25,0.5 -3.45,3.7336 -6.29,7.9003 -8.5,12.5 -2.18,6.3543 -4.35,12.6876 -6.5,19 -0.93,-1.0676 -1.27,-2.401 -1,-4 1.94,-7.6509 4.77,-14.9843 8.5,-22 4.1,-7.9628 10.6,-10.9628 19.5,-9 5.59,-0.1818 10.92,0.4848 16,2 z"
         id="path57" />
    </g>
    <g
       id="g67"
       style="clip-rule:evenodd;fill-rule:evenodd;image-rendering:optimizeQuality;shape-rendering:geometricPrecision;text-rendering:geometricPrecision"
       transform="matrix(0.26458333,0,0,0.26458333,-281.23287,4.6119985)">
      <path
         style="opacity:1"
         fill="#e5d8ab"
         d="m 1212.5,83.5 c -0.37,4.922 -1.37,9.5886 -3,14 -0.7,-5.2172 0.3,-9.8839 3,-14 z"
         id="path67" />
    </g>
    <g
       id="g68"
       style="clip-rule:evenodd;fill-rule:evenodd;image-rendering:optimizeQuality;shape-rendering:geometricPrecision;text-rendering:geometricPrecision"
       transform="matrix(0.26458333,0,0,0.26458333,-281.23287,4.6119985)">
      <path
         style="opacity:1"
         fill="#ad9550"
         d="m 1296.5,82.5 c 1.77,5.6465 3.44,11.3132 5,17 -0.34,4.622 0.32,8.955 2,13 0,1 0,2 0,3 0.74,5.971 1.07,11.971 1,18 -0.62,-7.79 -1.95,-15.457 -4,-23 -0.13,-1.716 -0.46,-3.383 -1,-5 -1.64,-7.5859 -2.64,-15.2525 -3,-23 z"
         id="path68" />
    </g>
    <g
       id="g69"
       style="clip-rule:evenodd;fill-rule:evenodd;image-rendering:optimizeQuality;shape-rendering:geometricPrecision;text-rendering:geometricPrecision"
       transform="matrix(0.26458333,0,0,0.26458333,-281.23287,4.6119985)">
      <path
         style="opacity:1"
         fill="#f9f8e0"
         d="m 1214.5,68.5 c -0.35,4.716 -1.01,9.3827 -2,14 0,0.3333 0,0.6667 0,1 -2.7,4.1161 -3.7,8.7828 -3,14 0,0.6667 0,1.3333 0,2 -1,1.333 -2,2.667 -3,4 0.65,-12.2482 3.32,-23.9149 8,-35 z"
         id="path69" />
    </g>
    <g
       id="g71"
       style="clip-rule:evenodd;fill-rule:evenodd;image-rendering:optimizeQuality;shape-rendering:geometricPrecision;text-rendering:geometricPrecision"
       transform="matrix(0.26458333,0,0,0.26458333,-281.23287,4.6119985)">
      <path
         style="opacity:1"
         fill="#faf9ed"
         d="m 1229.5,35.5 c -5.18,10.8519 -10.18,21.8519 -15,33 -4.68,11.0851 -7.35,22.7518 -8,35 -1.1,10.479 -2.44,20.812 -4,31 -0.44,-8.974 0.22,-17.807 2,-26.5 -0.36,-3.008 -0.69,-6.342 -1,-10 2.9,-2.6418 3.57,-5.6418 2,-9 3.47,-7.4646 5.97,-15.2979 7.5,-23.5 4.09,-5.7482 6.75,-12.0816 8,-19 1.42,-4.8637 4.25,-8.5303 8.5,-11 z"
         id="path71" />
    </g>
    <g
       id="g77"
       style="clip-rule:evenodd;fill-rule:evenodd;image-rendering:optimizeQuality;shape-rendering:geometricPrecision;text-rendering:geometricPrecision"
       transform="matrix(0.26458333,0,0,0.26458333,-281.23287,4.6119985)">
      <path
         style="opacity:1"
         fill="#b5942e"
         d="m 1297.5,101.5 c 0.67,1.333 1.33,2.667 2,4 0.54,1.617 0.87,3.284 1,5 2.46,23.751 3.46,47.584 3,71.5 0.21,20.358 -0.45,40.525 -2,60.5 0.15,-1.052 -0.02,-2.052 -0.5,-3 -0.88,4.679 -1.72,9.346 -2.5,14 -0.95,-1.419 -1.28,-3.085 -1,-5 0.91,-8.356 1.91,-16.689 3,-25 0.82,-4.147 1.32,-8.481 1.5,-13 0.67,-22.333 0.67,-44.667 0,-67 -0.4,-9.585 -1.57,-18.918 -3.5,-28 -0.04,-4.693 -0.37,-9.359 -1,-14 z"
         id="path77" />
    </g>
    <g
       id="g78"
       style="clip-rule:evenodd;fill-rule:evenodd;image-rendering:optimizeQuality;shape-rendering:geometricPrecision;text-rendering:geometricPrecision"
       transform="matrix(0.26458333,0,0,0.26458333,-281.23287,4.6119985)">
      <path
         style="opacity:1"
         fill="#f3e8be"
         d="m 1301.5,99.5 c 1.68,4.045 2.34,8.378 2,13 -1.68,-4.045 -2.34,-8.378 -2,-13 z"
         id="path78" />
    </g>
    <g
       id="g83"
       style="clip-rule:evenodd;fill-rule:evenodd;image-rendering:optimizeQuality;shape-rendering:geometricPrecision;text-rendering:geometricPrecision"
       transform="matrix(0.26458333,0,0,0.26458333,-281.23287,4.6119985)">
      <path
         style="opacity:1"
         fill="#b58f1d"
         d="m 1269.5,47.5 c 2.96,2.5595 5.46,5.5595 7.5,9 8.27,19.1951 13.44,39.1951 15.5,60 0.09,2.198 -0.58,2.531 -2,1 -11.03,-4.788 -22.7,-7.121 -35,-7 -11.96,-0.023 -23.63,1.811 -35,5.5 -1.53,3.006 -2.03,6.173 -1.5,9.5 3.75,-2.862 7.92,-4.862 12.5,-6 1.29,-0.237 2.29,0.096 3,1 -5.29,1.392 -10.12,3.726 -14.5,7 -0.67,1.667 -0.67,3.333 0,5 1.47,3.256 2.64,6.589 3.5,10 -2.83,-2.933 -6.16,-4.933 -10,-6 2.11,-13.382 4.28,-27.049 6.5,-41 1.7,-6.5011 3.54,-12.8344 5.5,-19 -0.27,1.599 0.07,2.9324 1,4 -2.1,7.2271 -3.94,14.5604 -5.5,22 -0.81,2.402 -0.65,4.735 0.5,7 2.2,-10.0678 4.7,-20.0678 7.5,-30 2.31,-9.2722 5.98,-17.9389 11,-26 2.04,-2.104 4.54,-3.2707 7.5,-3.5 6,-0.6667 12,-0.6667 18,0 2.54,2.2047 4.71,4.7047 6.5,7.5 7.11,16.8548 12.44,34.1881 16,52 -1.09,-19.3719 -6.09,-37.7052 -15,-55 -1.49,-2.8135 -3.66,-4.8135 -6.5,-6 1.29,0.2373 2.29,-0.096 3,-1 z"
         id="path83" />
    </g>
    <g
       id="g84"
       style="clip-rule:evenodd;fill-rule:evenodd;image-rendering:optimizeQuality;shape-rendering:geometricPrecision;text-rendering:geometricPrecision"
       transform="matrix(0.26458333,0,0,0.26458333,-281.23287,4.6119985)">
      <path
         style="opacity:1"
         fill="#caa332"
         d="m 1271.5,107.5 c 6.33,0.913 12.33,2.746 18,5.5 -5.03,-0.503 -10.03,-1.503 -15,-3 -9.99,-0.5 -19.99,-0.666 -30,-0.5 9,-0.667 18,-1.333 27,-2 z"
         id="path84" />
    </g>
    <g
       id="g85"
       style="clip-rule:evenodd;fill-rule:evenodd;image-rendering:optimizeQuality;shape-rendering:geometricPrecision;text-rendering:geometricPrecision"
       transform="matrix(0.26458333,0,0,0.26458333,-281.23287,4.6119985)">
      <path
         style="opacity:1"
         fill="#f2cf4a"
         d="m 1269.5,58.5 c -0.62,0.1107 -1.12,0.444 -1.5,1 -2.02,-4.1243 -5.36,-6.1243 -10,-6 -0.67,2.6667 -1.33,2.6667 -2,0 -1.33,0 -2.67,0 -4,0 -2.41,0.7744 -4.91,1.2744 -7.5,1.5 -1.2,3.1222 -2.87,5.9555 -5,8.5 0.33,0.3333 0.67,0.6667 1,1 2.14,-1.1005 4.31,-2.1005 6.5,-3 1.49,1.5037 3.32,2.3371 5.5,2.5 3.93,0.0406 7.76,0.2073 11.5,0.5 1.79,4.7444 3.79,9.4111 6,14 0.33,4.3333 0.67,8.6667 1,13 0.78,1.786 1.95,3.286 3.5,4.5 -0.74,2.2717 -0.74,4.272 0,6 2.24,3.156 4.91,3.823 8,2 -1.7,-7.6933 -4.37,-15.36 -8,-23 0.55,-1.3985 0.88,-2.7318 1,-4 -1.58,-2.9508 -2.24,-6.1174 -2,-9.5 4.4,10.8836 7.9,22.217 10.5,34 0.81,2.402 0.65,4.735 -0.5,7 -3.67,-0.92 -7.17,-2.253 -10.5,-4 -2.54,-11.0347 -5.21,-22.0347 -8,-33 -2.07,-4.4534 -5.57,-6.4534 -10.5,-6 -4.55,-0.2928 -7.72,1.7072 -9.5,6 -3.41,10.8949 -6.41,21.8949 -9,33 -3.3,1.823 -6.8,3.156 -10.5,4 -0.33,-0.667 -0.67,-1.333 -1,-2 3.52,-17.7621 9.02,-34.7621 16.5,-51 0.9,-1.2014 2.07,-2.0348 3.5,-2.5 7,-0.6667 14,-0.6667 21,0 1.96,1.451 3.3,3.2843 4,5.5 z"
         id="path85" />
    </g>
    <g
       id="g86"
       style="clip-rule:evenodd;fill-rule:evenodd;image-rendering:optimizeQuality;shape-rendering:geometricPrecision;text-rendering:geometricPrecision"
       transform="matrix(0.26458333,0,0,0.26458333,-281.23287,4.6119985)">
      <path
         style="opacity:1"
         fill="#dcaf39"
         d="m 1271.5,107.5 c -9,0.667 -18,1.333 -27,2 -5.04,0.082 -10.04,0.249 -15,0.5 3.04,-0.745 5.71,-2.078 8,-4 3.21,-12.967 7.21,-25.6336 12,-38 4.65,-1.1931 8.82,-0.3597 12.5,2.5 3.21,12.2758 6.38,24.6092 9.5,37 z"
         id="path86" />
    </g>
    <g
       id="g87"
       style="clip-rule:evenodd;fill-rule:evenodd;image-rendering:optimizeQuality;shape-rendering:geometricPrecision;text-rendering:geometricPrecision"
       transform="matrix(0.26458333,0,0,0.26458333,-281.23287,4.6119985)">
      <path
         style="opacity:1"
         fill="#f3cf43"
         d="m 1269.5,58.5 c 2.08,2.6113 3.41,5.6113 4,9 -0.24,3.3826 0.42,6.5492 2,9.5 -0.12,1.2682 -0.45,2.6015 -1,4 3.63,7.64 6.3,15.3067 8,23 -3.09,1.823 -5.76,1.156 -8,-2 -0.74,-1.728 -0.74,-3.7283 0,-6 -1.55,-1.214 -2.72,-2.714 -3.5,-4.5 -0.33,-4.3333 -0.67,-8.6667 -1,-13 -2.21,-4.5889 -4.21,-9.2556 -6,-14 -3.74,-0.2927 -7.57,-0.4594 -11.5,-0.5 -2.18,-0.1629 -4.01,-0.9963 -5.5,-2.5 -2.19,0.8995 -4.36,1.8995 -6.5,3 -0.33,-0.3333 -0.67,-0.6667 -1,-1 2.13,-2.5445 3.8,-5.3778 5,-8.5 2.59,-0.2256 5.09,-0.7256 7.5,-1.5 1.33,0 2.67,0 4,0 0.67,2.6667 1.33,2.6667 2,0 4.64,-0.1243 7.98,1.8757 10,6 0.38,-0.556 0.88,-0.8893 1.5,-1 z"
         id="path87" />
    </g>
    <g
       id="g98"
       style="clip-rule:evenodd;fill-rule:evenodd;image-rendering:optimizeQuality;shape-rendering:geometricPrecision;text-rendering:geometricPrecision"
       transform="matrix(0.26458333,0,0,0.26458333,-281.23287,4.6119985)">
      <path
         style="opacity:1"
         fill="#efcd4f"
         d="m 1290.5,117.5 c 0.31,2.424 -0.03,4.757 -1,7 -18.62,-10.081 -37.95,-11.748 -58,-5 -4.58,1.138 -8.75,3.138 -12.5,6 -0.53,-3.327 -0.03,-6.494 1.5,-9.5 11.37,-3.689 23.04,-5.523 35,-5.5 12.3,-0.121 23.97,2.212 35,7 z"
         id="path98" />
    </g>
    <g
       id="g99"
       style="clip-rule:evenodd;fill-rule:evenodd;image-rendering:optimizeQuality;shape-rendering:geometricPrecision;text-rendering:geometricPrecision"
       transform="matrix(0.26458333,0,0,0.26458333,-281.23287,4.6119985)">
      <path
         style="opacity:1"
         fill="#bc9821"
         d="m 1290.5,117.5 c 1.42,1.531 2.09,1.198 2,-1 0.67,0 1,0.333 1,1 1,8.304 1.66,16.637 2,25 -0.81,-2.131 -1.31,-4.464 -1.5,-7 -0.5,5.657 -0.67,11.324 -0.5,17 -0.83,-6.153 -1.33,-12.487 -1.5,-19 -2.58,3.895 -4.08,8.229 -4.5,13 -0.67,-1 -1.33,-2 -2,-3 2.42,-5.138 3.92,-10.472 4.5,-16 -6.03,-3.734 -12.53,-6.401 -19.5,-8 -1.07,-0.934 -2.4,-1.268 -4,-1 0,6.333 0,12.667 0,19 -8.42,-0.302 -16.75,0.031 -25,1 0,-6.333 0,-12.667 0,-19 -2.4,-0.052 -4.74,0.281 -7,1 -0.71,-0.904 -1.71,-1.237 -3,-1 20.05,-6.748 39.38,-5.081 58,5 0.97,-2.243 1.31,-4.576 1,-7 z"
         id="path99" />
    </g>
    <g
       id="g101"
       style="clip-rule:evenodd;fill-rule:evenodd;image-rendering:optimizeQuality;shape-rendering:geometricPrecision;text-rendering:geometricPrecision"
       transform="matrix(0.26458333,0,0,0.26458333,-281.23287,4.6119985)">
      <path
         style="opacity:1"
         fill="#f5edc7"
         d="m 1209.5,99.5 c -2.16,12.644 -3.83,25.311 -5,38 -0.67,0.333 -1.33,0.667 -2,1 0,-1.333 0,-2.667 0,-4 1.56,-10.188 2.9,-20.521 4,-31 1,-1.333 2,-2.667 3,-4 z"
         id="path101" />
    </g>
    <g
       id="g102"
       style="clip-rule:evenodd;fill-rule:evenodd;image-rendering:optimizeQuality;shape-rendering:geometricPrecision;text-rendering:geometricPrecision"
       transform="matrix(0.26458333,0,0,0.26458333,-281.23287,4.6119985)">
      <path
         style="opacity:1"
         fill="#f1cd40"
         d="m 1249.5,117.5 c 4.73,-0.277 9.4,0.057 14,1 1,5.963 1.33,11.963 1,18 -6.67,0 -13.33,0 -20,0 0.14,-6.036 -0.19,-12.036 -1,-18 2.24,0.295 4.24,-0.039 6,-1 z"
         id="path102" />
    </g>
    <g
       id="g107"
       style="clip-rule:evenodd;fill-rule:evenodd;image-rendering:optimizeQuality;shape-rendering:geometricPrecision;text-rendering:geometricPrecision"
       transform="matrix(0.26458333,0,0,0.26458333,-281.23287,4.6119985)">
      <path
         style="opacity:1"
         fill="#f2d24f"
         d="m 1270.5,119.5 c 6.97,1.599 13.47,4.266 19.5,8 -0.58,5.528 -2.08,10.862 -4.5,16 -6.03,-2.231 -12.03,-4.231 -18,-6 0,-6 0,-12 0,-18 1,0 2,0 3,0 z"
         id="path107" />
    </g>
    <g
       id="g108"
       style="clip-rule:evenodd;fill-rule:evenodd;image-rendering:optimizeQuality;shape-rendering:geometricPrecision;text-rendering:geometricPrecision"
       transform="matrix(0.26458333,0,0,0.26458333,-281.23287,4.6119985)">
      <path
         style="opacity:1"
         fill="#f7d344"
         d="m 1271.5,122.5 c 1.94,0.759 3.77,1.759 5.5,3 3,-0.526 5.66,0.474 8,3 0.33,-0.333 0.67,-0.667 1,-1 -0.32,2.243 -0.15,4.41 0.5,6.5 -1.36,1.945 -2.2,4.112 -2.5,6.5 -4.84,-1.339 -9.84,-3.006 -15,-5 -0.86,-2.249 -0.36,-4.082 1.5,-5.5 -1.42,-2.743 -1.08,-5.243 1,-7.5 z"
         id="path108" />
    </g>
    <g
       id="g110"
       style="clip-rule:evenodd;fill-rule:evenodd;image-rendering:optimizeQuality;shape-rendering:geometricPrecision;text-rendering:geometricPrecision"
       transform="matrix(0.26458333,0,0,0.26458333,-281.23287,4.6119985)">
      <path
         style="opacity:1"
         fill="#cead2d"
         d="m 1270.5,119.5 c -1,0 -2,0 -3,0 0,6 0,12 0,18 -0.33,0 -0.67,0 -1,0 0,-6.333 0,-12.667 0,-19 1.6,-0.268 2.93,0.066 4,1 z"
         id="path110" />
    </g>
    <g
       id="g112"
       style="clip-rule:evenodd;fill-rule:evenodd;image-rendering:optimizeQuality;shape-rendering:geometricPrecision;text-rendering:geometricPrecision"
       transform="matrix(0.26458333,0,0,0.26458333,-281.23287,4.6119985)">
      <path
         style="opacity:1"
         fill="#eecb4a"
         d="m 1241.5,138.5 c -1.33,0.333 -2.67,0.667 -4,1 0.35,-2.205 1.35,-4.038 3,-5.5 -0.67,-3.667 -1.33,-7.333 -2,-11 -4.5,-0.835 -8.17,0.498 -11,4 -1.29,0.49 -2.63,0.657 -4,0.5 -0.06,3.591 0.94,6.758 3,9.5 -0.46,0.414 -0.79,0.914 -1,1.5 2.95,-0.118 5.95,0.216 9,1 -3.34,2.523 -7.01,3.523 -11,3 -0.86,-3.411 -2.03,-6.744 -3.5,-10 -0.67,-1.667 -0.67,-3.333 0,-5 4.38,-3.274 9.21,-5.608 14.5,-7 2.26,-0.719 4.6,-1.052 7,-1 0,6.333 0,12.667 0,19 z"
         id="path112" />
    </g>
    <g
       id="g113"
       style="clip-rule:evenodd;fill-rule:evenodd;image-rendering:optimizeQuality;shape-rendering:geometricPrecision;text-rendering:geometricPrecision"
       transform="matrix(0.26458333,0,0,0.26458333,-281.23287,4.6119985)">
      <path
         style="opacity:1"
         fill="#f3cf3f"
         d="m 1237.5,139.5 c -1,0 -2,0 -3,0 -3.05,-0.784 -6.05,-1.118 -9,-1 0.21,-0.586 0.54,-1.086 1,-1.5 -2.06,-2.742 -3.06,-5.909 -3,-9.5 1.37,0.157 2.71,-0.01 4,-0.5 2.83,-3.502 6.5,-4.835 11,-4 0.67,3.667 1.33,7.333 2,11 -1.65,1.462 -2.65,3.295 -3,5.5 z"
         id="path113" />
    </g>
    <g
       id="g115"
       style="clip-rule:evenodd;fill-rule:evenodd;image-rendering:optimizeQuality;shape-rendering:geometricPrecision;text-rendering:geometricPrecision"
       transform="matrix(0.26458333,0,0,0.26458333,-281.23287,4.6119985)">
      <path
         style="opacity:1"
         fill="#ecc94f"
         d="m 1298.5,115.5 c 1.93,9.082 3.1,18.415 3.5,28 0.67,22.333 0.67,44.667 0,67 -0.18,4.519 -0.68,8.853 -1.5,13 0.46,-12.16 0.79,-24.327 1,-36.5 0.67,-11.398 -0.5,-22.565 -3.5,-33.5 -0.94,17.486 -1.78,34.819 -2.5,52 0,-21 0,-42 0,-63 -0.34,-8.363 -1,-16.696 -2,-25 3.58,8.163 5.24,7.497 5,-2 z"
         id="path115" />
    </g>
    <g
       id="g122"
       style="clip-rule:evenodd;fill-rule:evenodd;image-rendering:optimizeQuality;shape-rendering:geometricPrecision;text-rendering:geometricPrecision"
       transform="matrix(0.26458333,0,0,0.26458333,-281.23287,4.6119985)">
      <path
         style="opacity:1"
         fill="#f4edcb"
         d="m 1303.5,115.5 c 0.62,0.111 1.12,0.444 1.5,1 2.21,10.848 3.04,21.848 2.5,33 -0.33,0 -0.67,0 -1,0 0.5,-5.558 -0.17,-10.892 -2,-16 0.07,-6.029 -0.26,-12.029 -1,-18 z"
         id="path122" />
    </g>
    <g
       id="g124"
       style="clip-rule:evenodd;fill-rule:evenodd;image-rendering:optimizeQuality;shape-rendering:geometricPrecision;text-rendering:geometricPrecision"
       transform="matrix(0.26458333,0,0,0.26458333,-281.23287,4.6119985)">
      <path
         style="opacity:1"
         fill="#92554f"
         d="m 1207.5,139.5 c 4.56,2.585 9.23,5.085 14,7.5 0,3 0,6 0,9 -1.44,1.241 -2.94,1.741 -4.5,1.5 -0.28,-0.916 -0.78,-1.582 -1.5,-2 2.42,-9.416 -0.75,-12.083 -9.5,-8 -3.85,4.859 -2.68,8.026 3.5,9.5 1.43,0.579 2.76,0.412 4,-0.5 -1.96,2.425 -4.12,4.758 -6.5,7 -0.19,2.208 -0.69,4.208 -1.5,6 -5.3,-7.088 -7.47,-15.088 -6.5,-24 1.61,-3.776 4.44,-5.776 8.5,-6 z"
         id="path124" />
    </g>
    <g
       id="g129"
       style="clip-rule:evenodd;fill-rule:evenodd;image-rendering:optimizeQuality;shape-rendering:geometricPrecision;text-rendering:geometricPrecision"
       transform="matrix(0.26458333,0,0,0.26458333,-281.23287,4.6119985)">
      <path
         style="opacity:1"
         fill="#7e4a3c"
         d="m 1215.5,155.5 c -0.67,0.333 -1.33,0.667 -2,1 -1.24,0.912 -2.57,1.079 -4,0.5 -6.18,-1.474 -7.35,-4.641 -3.5,-9.5 8.75,-4.083 11.92,-1.416 9.5,8 z"
         id="path129" />
    </g>
    <g
       id="g134"
       style="clip-rule:evenodd;fill-rule:evenodd;image-rendering:optimizeQuality;shape-rendering:geometricPrecision;text-rendering:geometricPrecision"
       transform="matrix(0.26458333,0,0,0.26458333,-281.23287,4.6119985)">
      <path
         style="opacity:1"
         fill="#744b47"
         d="m 1204.5,137.5 c 0.33,0 0.67,0 1,0 0.34,0.838 1.01,1.172 2,1 0,0.333 0,0.667 0,1 -4.06,0.224 -6.89,2.224 -8.5,6 -0.97,8.912 1.2,16.912 6.5,24 0.73,1.208 1.07,2.541 1,4 -0.67,-0.333 -1.33,-0.667 -2,-1 0.07,-1.527 -0.59,-2.527 -2,-3 -3.74,-5.812 -6.07,-12.145 -7,-19 0.32,-4.31 1.99,-7.977 5,-11 0.67,-0.333 1.33,-0.667 2,-1 0.67,-0.333 1.33,-0.667 2,-1 z"
         id="path134" />
    </g>
    <g
       id="g135"
       style="clip-rule:evenodd;fill-rule:evenodd;image-rendering:optimizeQuality;shape-rendering:geometricPrecision;text-rendering:geometricPrecision"
       transform="matrix(0.26458333,0,0,0.26458333,-281.23287,4.6119985)">
      <path
         style="opacity:1"
         fill="#e7beaa"
         d="m 1208.5,147.5 c 5.01,-0.59 6.68,1.41 5,6 -5.2,1.13 -6.86,-0.87 -5,-6 z"
         id="path135" />
    </g>
    <g
       id="g140"
       style="clip-rule:evenodd;fill-rule:evenodd;image-rendering:optimizeQuality;shape-rendering:geometricPrecision;text-rendering:geometricPrecision"
       transform="matrix(0.26458333,0,0,0.26458333,-281.23287,4.6119985)">
      <path
         style="opacity:1"
         fill="#946a24"
         d="m 1224.5,145.5 c 1.81,2.872 2.81,6.205 3,10 -0.61,0.891 -0.94,1.891 -1,3 -1,0.667 -2,1.333 -3,2 2.2,-4.831 2.53,-9.831 1,-15 z"
         id="path140" />
    </g>
    <g
       id="g141"
       style="clip-rule:evenodd;fill-rule:evenodd;image-rendering:optimizeQuality;shape-rendering:geometricPrecision;text-rendering:geometricPrecision"
       transform="matrix(0.26458333,0,0,0.26458333,-281.23287,4.6119985)">
      <path
         style="opacity:1"
         fill="#94574b"
         d="m 1207.5,139.5 c 0,-0.333 0,-0.667 0,-1 9.79,-0.928 15.12,3.405 16,13 -1.54,9.055 -5.54,16.889 -12,23.5 -1.7,0.384 -3.36,0.218 -5,-0.5 0,-0.333 0,-0.667 0,-1 0.07,-1.459 -0.27,-2.792 -1,-4 0.81,-1.792 1.31,-3.792 1.5,-6 2.38,-2.242 4.54,-4.575 6.5,-7 0.67,-0.333 1.33,-0.667 2,-1 0.72,0.418 1.22,1.084 1.5,2 1.56,0.241 3.06,-0.259 4.5,-1.5 0,-3 0,-6 0,-9 -4.77,-2.415 -9.44,-4.915 -14,-7.5 z"
         id="path141" />
    </g>
    <g
       id="g142"
       style="clip-rule:evenodd;fill-rule:evenodd;image-rendering:optimizeQuality;shape-rendering:geometricPrecision;text-rendering:geometricPrecision"
       transform="matrix(0.26458333,0,0,0.26458333,-281.23287,4.6119985)">
      <path
         style="opacity:1"
         fill="#f2ce40"
         d="m 1244.5,155.5 c 0.84,0.342 1.17,1.008 1,2 0,4.333 0,8.667 0,13 -6.04,0.329 -12.04,-0.004 -18,-1 -0.52,-4.198 0.15,-8.364 2,-12.5 4.87,-1.388 9.87,-1.888 15,-1.5 z"
         id="path142" />
    </g>
    <g
       id="g143"
       style="clip-rule:evenodd;fill-rule:evenodd;image-rendering:optimizeQuality;shape-rendering:geometricPrecision;text-rendering:geometricPrecision"
       transform="matrix(0.26458333,0,0,0.26458333,-281.23287,4.6119985)">
      <path
         style="opacity:1"
         fill="#dab23d"
         d="m 1293.5,152.5 c 0.17,10.339 0,20.672 -0.5,31 -2.05,-8.858 -3.05,-17.858 -3,-27 -0.84,-3.352 -1.67,-6.685 -2.5,-10 0.42,-4.771 1.92,-9.105 4.5,-13 0.17,6.513 0.67,12.847 1.5,19 z"
         id="path143" />
    </g>
    <g
       id="g150"
       style="clip-rule:evenodd;fill-rule:evenodd;image-rendering:optimizeQuality;shape-rendering:geometricPrecision;text-rendering:geometricPrecision"
       transform="matrix(0.26458333,0,0,0.26458333,-281.23287,4.6119985)">
      <path
         style="opacity:1"
         fill="#7c491b"
         d="m 1208.5,136.5 c 1.67,0 3.33,0 5,0 3.84,1.067 7.17,3.067 10,6 0.06,1.109 0.39,2.109 1,3 1.53,5.169 1.2,10.169 -1,15 -0.61,0.891 -0.94,1.891 -1,3 -2.74,4.47 -5.74,8.804 -9,13 -0.67,0 -1,0.333 -1,1 -1.79,0.134 -3.46,-0.199 -5,-1 -0.33,-0.667 -0.67,-1.333 -1,-2 1.64,0.718 3.3,0.884 5,0.5 6.46,-6.611 10.46,-14.445 12,-23.5 -0.88,-9.595 -6.21,-13.928 -16,-13 -0.99,0.172 -1.66,-0.162 -2,-1 0.71,-0.904 1.71,-1.237 3,-1 z"
         id="path150" />
    </g>
    <g
       id="g154"
       style="clip-rule:evenodd;fill-rule:evenodd;image-rendering:optimizeQuality;shape-rendering:geometricPrecision;text-rendering:geometricPrecision"
       transform="matrix(0.26458333,0,0,0.26458333,-281.23287,4.6119985)">
      <path
         style="opacity:1"
         fill="#a68c44"
         d="m 1300.5,110.5 c 2.05,7.543 3.38,15.21 4,23 1.83,5.108 2.5,10.442 2,16 0.16,25.676 -0.18,51.342 -1,77 0,1 0,2 0,3 -1.92,14.121 -2.92,28.454 -3,43 -0.8,5.303 -1.46,10.636 -2,16 -2.33,1.667 -4.33,3.667 -6,6 -4.08,0.854 -8.08,2.021 -12,3.5 -3.2,0.805 -6.2,0.638 -9,-0.5 -0.49,-0.973 -0.99,-1.973 -1.5,-3 -0.5,5.991 -0.67,11.991 -0.5,18 0,0.667 0,1.333 0,2 -0.74,1.729 -2.07,2.729 -4,3 -0.04,-1.859 0.79,-3.192 2.5,-4 0.33,-7 0.67,-14 1,-21 1.36,0.88 2.86,1.214 4.5,1 3.6,1.021 7.27,1.021 11,0 5.07,0.597 8.74,-1.403 11,-6 3.04,-12.807 4.37,-25.807 4,-39 0,-2 0,-4 0,-6 1.55,-19.975 2.21,-40.142 2,-60.5 0.46,-23.916 -0.54,-47.749 -3,-71.5 z"
         id="path154" />
    </g>
    <g
       id="g155"
       style="clip-rule:evenodd;fill-rule:evenodd;image-rendering:optimizeQuality;shape-rendering:geometricPrecision;text-rendering:geometricPrecision"
       transform="matrix(0.26458333,0,0,0.26458333,-281.23287,4.6119985)">
      <path
         style="opacity:1"
         fill="#bc9525"
         d="m 1226.5,158.5 c 0,4.333 0,8.667 0,13 6.33,0.667 12.67,1.333 19,2 -6.33,0 -12.67,0 -19,0 -0.17,1.322 0.16,2.489 1,3.5 5.66,0.499 11.32,0.666 17,0.5 -5.15,0.827 -10.48,1.327 -16,1.5 5.32,0.499 10.66,0.666 16,0.5 -5.48,1.152 -11.15,1.318 -17,0.5 -0.83,-0.833 -1.67,-1.667 -2.5,-2.5 0.11,-5.106 -0.72,-9.773 -2.5,-14 0.06,-1.109 0.39,-2.109 1,-3 1,-0.667 2,-1.333 3,-2 z"
         id="path155" />
    </g>
    <g
       id="g157"
       style="clip-rule:evenodd;fill-rule:evenodd;image-rendering:optimizeQuality;shape-rendering:geometricPrecision;text-rendering:geometricPrecision"
       transform="matrix(0.26458333,0,0,0.26458333,-281.23287,4.6119985)">
      <path
         style="opacity:1"
         fill="#b58f1c"
         d="m 1273.5,152.5 c 3.76,-0.429 7.26,0.237 10.5,2 1.42,6.55 1.92,13.216 1.5,20 -0.22,2.107 -1.22,3.774 -3,5 -5.64,1.163 -11.3,1.33 -17,0.5 -1.26,-0.923 -2.59,-1.757 -4,-2.5 -1.37,-7.018 -1.21,-14.018 0.5,-21 0.47,-1.431 1.3,-2.597 2.5,-3.5 2.98,-0.498 5.98,-0.665 9,-0.5 z"
         id="path157" />
    </g>
    <g
       id="g159"
       style="clip-rule:evenodd;fill-rule:evenodd;image-rendering:optimizeQuality;shape-rendering:geometricPrecision;text-rendering:geometricPrecision"
       transform="matrix(0.26458333,0,0,0.26458333,-281.23287,4.6119985)">
      <path
         style="opacity:1"
         fill="#dab63b"
         d="m 1244.5,155.5 c -5.13,-0.388 -10.13,0.112 -15,1.5 -1.85,4.136 -2.52,8.302 -2,12.5 5.96,0.996 11.96,1.329 18,1 0,-4.333 0,-8.667 0,-13 0.99,4.47 1.32,9.137 1,14 -6.67,0 -13.33,0 -20,0 0,-4.333 0,-8.667 0,-13 0.06,-1.109 0.39,-2.109 1,-3 5.77,-1.304 11.43,-1.304 17,0 z"
         id="path159" />
    </g>
    <g
       id="g169"
       style="clip-rule:evenodd;fill-rule:evenodd;image-rendering:optimizeQuality;shape-rendering:geometricPrecision;text-rendering:geometricPrecision"
       transform="matrix(0.26458333,0,0,0.26458333,-281.23287,4.6119985)">
      <path
         style="opacity:1"
         fill="#dcaf3c"
         d="m 1264.5,146.5 c 3.19,0.666 6.52,1.333 10,2 -1.4,1.342 -1.07,2.176 1,2.5 -0.92,0.278 -1.58,0.778 -2,1.5 -3.02,-0.165 -6.02,0.002 -9,0.5 -1.2,0.903 -2.03,2.069 -2.5,3.5 -1.71,6.982 -1.87,13.982 -0.5,21 1.41,0.743 2.74,1.577 4,2.5 5.7,0.83 11.36,0.663 17,-0.5 1.78,-1.226 2.78,-2.893 3,-5 0.81,-1.792 1.31,-3.792 1.5,-6 1.08,3.334 1.92,6.668 2.5,10 0.39,3.847 1.39,7.514 3,11 0,3.333 0,6.667 0,10 -25,0 -50,0 -75,0 0,-3.333 0,-6.667 0,-10 0,-1 0,-2 0,-3 2.17,-7.516 3.84,-15.183 5,-23 1.78,4.227 2.61,8.894 2.5,14 0.83,0.833 1.67,1.667 2.5,2.5 5.85,0.818 11.52,0.652 17,-0.5 1.61,-0.444 2.78,-1.444 3.5,-3 0.93,-7.44 0.59,-14.774 -1,-22 -0.5,-0.5 -1,-1 -1.5,-1.5 -5.99,-0.499 -11.99,-0.666 -18,-0.5 -0.42,-2.281 0.24,-3.948 2,-5 5.65,-0.532 11.32,-0.865 17,-1 0,-2.333 0,-4.667 0,-7 5.25,-1.115 10.58,-1.281 16,-0.5 0.62,2.607 1.29,5.107 2,7.5 z"
         id="path169" />
    </g>
    <g
       id="g170"
       style="clip-rule:evenodd;fill-rule:evenodd;image-rendering:optimizeQuality;shape-rendering:geometricPrecision;text-rendering:geometricPrecision"
       transform="matrix(0.26458333,0,0,0.26458333,-281.23287,4.6119985)">
      <path
         style="opacity:1"
         fill="#f1cc4f"
         d="m 1245.5,173.5 c 0.07,1.459 -0.27,2.792 -1,4 -5.68,0.166 -11.34,-0.001 -17,-0.5 -0.84,-1.011 -1.17,-2.178 -1,-3.5 6.33,0 12.67,0 19,0 z"
         id="path170" />
    </g>
    <g
       id="g172"
       style="clip-rule:evenodd;fill-rule:evenodd;image-rendering:optimizeQuality;shape-rendering:geometricPrecision;text-rendering:geometricPrecision"
       transform="matrix(0.26458333,0,0,0.26458333,-281.23287,4.6119985)">
      <path
         style="opacity:1"
         fill="#af8919"
         d="m 1295.5,142.5 c 0,21 0,42 0,63 0.2,2.45 -0.13,4.783 -1,7 -0.33,0 -0.67,0 -1,0 0,-3.333 0,-6.667 0,-10 -1.33,0 -2.67,0 -4,0 -10.16,-0.83 -20.49,-1.33 -31,-1.5 11.66,-0.5 23.33,-0.667 35,-0.5 0.31,-3.871 -0.02,-7.538 -1,-11 -1.61,-3.486 -2.61,-7.153 -3,-11 0.05,-10.228 -1.28,-20.228 -4,-30 -0.88,-0.751 -1.88,-1.251 -3,-1.5 -5.99,-0.499 -11.99,-0.666 -18,-0.5 -0.71,-2.393 -1.38,-4.893 -2,-7.5 -5.42,-0.781 -10.75,-0.615 -16,0.5 -0.72,0.418 -1.22,1.084 -1.5,2 -0.38,-0.556 -0.88,-0.889 -1.5,-1 -3.19,-0.095 -6.19,0.571 -9,2 -2.09,0.545 -4.09,1.378 -6,2.5 1.33,0.333 2.67,0.667 4,1 -1.24,0.232 -2.24,0.732 -3,1.5 -1.76,1.052 -2.42,2.719 -2,5 6.01,-0.166 12.01,0.001 18,0.5 0.5,0.5 1,1 1.5,1.5 1.59,7.226 1.93,14.56 1,22 -0.72,1.556 -1.89,2.556 -3.5,3 -5.34,0.166 -10.68,-0.001 -16,-0.5 5.52,-0.173 10.85,-0.673 16,-1.5 0.73,-1.208 1.07,-2.541 1,-4 -6.33,-0.667 -12.67,-1.333 -19,-2 6.67,0 13.33,0 20,0 0.32,-4.863 -0.01,-9.53 -1,-14 0.17,-0.992 -0.16,-1.658 -1,-2 -5.57,-1.304 -11.23,-1.304 -17,0 -0.19,-3.795 -1.19,-7.128 -3,-10 -0.61,-0.891 -0.94,-1.891 -1,-3 3.99,0.523 7.66,-0.477 11,-3 1,0 2,0 3,0 1.33,-0.333 2.67,-0.667 4,-1 8.25,-0.969 16.58,-1.302 25,-1 0.33,0 0.67,0 1,0 5.97,1.769 11.97,3.769 18,6 0.67,1 1.33,2 2,3 0.83,3.315 1.66,6.648 2.5,10 -0.05,9.142 0.95,18.142 3,27 0.5,-10.328 0.67,-20.661 0.5,-31 -0.17,-5.676 0,-11.343 0.5,-17 0.19,2.536 0.69,4.869 1.5,7 z"
         id="path172" />
    </g>
    <g
       id="g173"
       style="clip-rule:evenodd;fill-rule:evenodd;image-rendering:optimizeQuality;shape-rendering:geometricPrecision;text-rendering:geometricPrecision"
       transform="matrix(0.26458333,0,0,0.26458333,-281.23287,4.6119985)">
      <path
         style="opacity:1"
         fill="#f1cd50"
         d="m 1263.5,173.5 c 6.67,0 13.33,0 20,0 0.17,1.322 -0.16,2.489 -1,3.5 -6,0.667 -12,0.667 -18,0 -0.84,-1.011 -1.17,-2.178 -1,-3.5 z"
         id="path173" />
    </g>
    <g
       id="g174"
       style="clip-rule:evenodd;fill-rule:evenodd;image-rendering:optimizeQuality;shape-rendering:geometricPrecision;text-rendering:geometricPrecision"
       transform="matrix(0.26458333,0,0,0.26458333,-281.23287,4.6119985)">
      <path
         style="opacity:1"
         fill="#f2ce3f"
         d="m 1282.5,156.5 c 0.99,4.47 1.32,9.137 1,14 -6.16,0.466 -12.16,-0.201 -18,-2 -0.63,-3.989 -0.29,-7.989 1,-12 5.61,0.278 10.95,0.278 16,0 z"
         id="path174" />
    </g>
    <g
       id="g175"
       style="clip-rule:evenodd;fill-rule:evenodd;image-rendering:optimizeQuality;shape-rendering:geometricPrecision;text-rendering:geometricPrecision"
       transform="matrix(0.26458333,0,0,0.26458333,-281.23287,4.6119985)">
      <path
         style="opacity:1"
         fill="#e5c142"
         d="m 1282.5,156.5 c -5.05,0.278 -10.39,0.278 -16,0 -1.29,4.011 -1.63,8.011 -1,12 5.84,1.799 11.84,2.466 18,2 -6.48,0.991 -13.15,1.324 -20,1 -0.17,-5.011 0,-10.011 0.5,-15 0.5,-0.5 1,-1 1.5,-1.5 5,-0.667 10,-0.667 15,0 0.92,0.278 1.58,0.778 2,1.5 z"
         id="path175" />
    </g>
    <g
       id="g176"
       style="clip-rule:evenodd;fill-rule:evenodd;image-rendering:optimizeQuality;shape-rendering:geometricPrecision;text-rendering:geometricPrecision"
       transform="matrix(0.26458333,0,0,0.26458333,-281.23287,4.6119985)">
      <path
         style="opacity:1"
         fill="#d0a836"
         d="m 1264.5,146.5 c 6.01,-0.166 12.01,0.001 18,0.5 1.12,0.249 2.12,0.749 3,1.5 2.72,9.772 4.05,19.772 4,30 -0.58,-3.332 -1.42,-6.666 -2.5,-10 -0.19,2.208 -0.69,4.208 -1.5,6 0.42,-6.784 -0.08,-13.45 -1.5,-20 -3.24,-1.763 -6.74,-2.429 -10.5,-2 0.42,-0.722 1.08,-1.222 2,-1.5 -2.07,-0.324 -2.4,-1.158 -1,-2.5 -3.48,-0.667 -6.81,-1.334 -10,-2 z"
         id="path176" />
    </g>
    <g
       id="g177"
       style="clip-rule:evenodd;fill-rule:evenodd;image-rendering:optimizeQuality;shape-rendering:geometricPrecision;text-rendering:geometricPrecision"
       transform="matrix(0.26458333,0,0,0.26458333,-281.23287,4.6119985)">
      <path
         style="opacity:1"
         fill="#bc9524"
         d="m 1246.5,139.5 c 0,2.333 0,4.667 0,7 -5.68,0.135 -11.35,0.468 -17,1 0.76,-0.768 1.76,-1.268 3,-1.5 -1.33,-0.333 -2.67,-0.667 -4,-1 1.91,-1.122 3.91,-1.955 6,-2.5 -0.11,0.617 -0.44,1.117 -1,1.5 3.71,0.825 7.38,0.659 11,-0.5 -0.63,-0.917 -0.96,-1.917 -1,-3 0.62,0.111 1.12,0.444 1.5,1 0.28,-0.916 0.78,-1.582 1.5,-2 z"
         id="path177" />
    </g>
    <g
       id="g178"
       style="clip-rule:evenodd;fill-rule:evenodd;image-rendering:optimizeQuality;shape-rendering:geometricPrecision;text-rendering:geometricPrecision"
       transform="matrix(0.26458333,0,0,0.26458333,-281.23287,4.6119985)">
      <path
         style="opacity:1"
         fill="#dcb545"
         d="m 1243.5,140.5 c 0.04,1.083 0.37,2.083 1,3 -3.62,1.159 -7.29,1.325 -11,0.5 0.56,-0.383 0.89,-0.883 1,-1.5 2.81,-1.429 5.81,-2.095 9,-2 z"
         id="path178" />
    </g>
    <g
       id="g179"
       style="clip-rule:evenodd;fill-rule:evenodd;image-rendering:optimizeQuality;shape-rendering:geometricPrecision;text-rendering:geometricPrecision"
       transform="matrix(0.26458333,0,0,0.26458333,-281.23287,4.6119985)">
      <path
         style="opacity:1"
         fill="#e1b847"
         d="m 1266.5,140.5 c 18.64,3.71 18.3,4.71 -1,3 0.63,-0.917 0.96,-1.917 1,-3 z"
         id="path179" />
    </g>
    <g
       id="g181"
       style="clip-rule:evenodd;fill-rule:evenodd;image-rendering:optimizeQuality;shape-rendering:geometricPrecision;text-rendering:geometricPrecision"
       transform="matrix(0.26458333,0,0,0.26458333,-281.23287,4.6119985)">
      <path
         style="opacity:1"
         fill="#eadcb2"
         d="m 1306.5,149.5 c 0.33,0 0.67,0 1,0 0,11.333 0,22.667 0,34 0.4,14.54 -0.26,28.873 -2,43 0.82,-25.658 1.16,-51.324 1,-77 z"
         id="path181" />
    </g>
    <g
       id="g182"
       style="clip-rule:evenodd;fill-rule:evenodd;image-rendering:optimizeQuality;shape-rendering:geometricPrecision;text-rendering:geometricPrecision"
       transform="matrix(0.26458333,0,0,0.26458333,-281.23287,4.6119985)">
      <path
         style="opacity:1"
         fill="#d8b642"
         d="m 1212.5,177.5 c 0,-0.667 0.33,-1 1,-1 0.98,3.125 1.31,6.458 1,10 0,6.667 0,13.333 0,20 -0.67,-9.667 -1.33,-19.333 -2,-29 z"
         id="path182" />
    </g>
    <g
       id="g183"
       style="clip-rule:evenodd;fill-rule:evenodd;image-rendering:optimizeQuality;shape-rendering:geometricPrecision;text-rendering:geometricPrecision"
       transform="matrix(0.26458333,0,0,0.26458333,-281.23287,4.6119985)">
      <path
         style="opacity:1"
         fill="#be952e"
         d="m 1222.5,163.5 c -1.16,7.817 -2.83,15.484 -5,23 0.13,-0.739 -0.04,-1.406 -0.5,-2 -0.71,0.881 -1.54,1.547 -2.5,2 0.31,-3.542 -0.02,-6.875 -1,-10 3.26,-4.196 6.26,-8.53 9,-13 z"
         id="path183" />
    </g>
    <g
       id="g184"
       style="clip-rule:evenodd;fill-rule:evenodd;image-rendering:optimizeQuality;shape-rendering:geometricPrecision;text-rendering:geometricPrecision"
       transform="matrix(0.26458333,0,0,0.26458333,-281.23287,4.6119985)">
      <path
         style="opacity:1"
         fill="#cbaa40"
         d="m 1207.5,176.5 c 1.54,0.801 3.21,1.134 5,1 -1.07,0.934 -2.4,1.268 -4,1 0,12.667 0,25.333 0,38 -1,-12.489 -1.33,-25.156 -1,-38 0,-0.667 0,-1.333 0,-2 z"
         id="path184" />
    </g>
    <g
       id="g185"
       style="clip-rule:evenodd;fill-rule:evenodd;image-rendering:optimizeQuality;shape-rendering:geometricPrecision;text-rendering:geometricPrecision"
       transform="matrix(0.26458333,0,0,0.26458333,-281.23287,4.6119985)">
      <path
         style="opacity:1"
         fill="#a68b41"
         d="m 1204.5,172.5 c 0.67,0.333 1.33,0.667 2,1 0,0.333 0,0.667 0,1 0.33,0.667 0.67,1.333 1,2 0,0.667 0,1.333 0,2 -0.67,8.994 -1,18.16 -1,27.5 -0.15,14.363 0.51,28.53 2,42.5 0,1 0,2 0,3 0.2,12.442 1.37,24.775 3.5,37 1.71,1.537 3.21,3.204 4.5,5 -1.11,-0.057 -2.11,-0.39 -3,-1 -0.96,-1.462 -2.12,-2.795 -3.5,-4 -3.37,-26.563 -5.2,-53.23 -5.5,-80 0,-12 0,-24 0,-36 z"
         id="path185" />
    </g>
    <g
       id="g186"
       style="clip-rule:evenodd;fill-rule:evenodd;image-rendering:optimizeQuality;shape-rendering:geometricPrecision;text-rendering:geometricPrecision"
       transform="matrix(0.26458333,0,0,0.26458333,-281.23287,4.6119985)">
      <path
         style="opacity:1"
         fill="#cbb783"
         d="m 1202.5,169.5 c 1.41,0.473 2.07,1.473 2,3 0,12 0,24 0,36 -0.33,0 -0.67,0 -1,0 0.33,-12.511 0,-24.845 -1,-37 0,-0.667 0,-1.333 0,-2 z"
         id="path186" />
    </g>
    <g
       id="g194"
       style="clip-rule:evenodd;fill-rule:evenodd;image-rendering:optimizeQuality;shape-rendering:geometricPrecision;text-rendering:geometricPrecision"
       transform="matrix(0.26458333,0,0,0.26458333,-281.23287,4.6119985)">
      <path
         style="opacity:1"
         fill="#c29a24"
         d="m 1217.5,189.5 c 0,3.333 0,6.667 0,10 25,0 50,0 75,0 0,-3.333 0,-6.667 0,-10 0.98,3.462 1.31,7.129 1,11 -11.67,-0.167 -23.34,0 -35,0.5 10.51,0.17 20.84,0.67 31,1.5 -23.67,0 -47.33,0 -71,0 4.15,-0.825 8.48,-1.325 13,-1.5 -4.99,-0.499 -9.99,-0.666 -15,-0.5 -0.31,-3.871 0.02,-7.538 1,-11 z"
         id="path194" />
    </g>
    <g
       id="g195"
       style="clip-rule:evenodd;fill-rule:evenodd;image-rendering:optimizeQuality;shape-rendering:geometricPrecision;text-rendering:geometricPrecision"
       transform="matrix(0.26458333,0,0,0.26458333,-281.23287,4.6119985)">
      <path
         style="opacity:1"
         fill="#ebc642"
         d="m 1218.5,202.5 c 23.67,0 47.33,0 71,0 1.33,0 2.67,0 4,0 0,3.333 0,6.667 0,10 0.17,1.322 -0.16,2.489 -1,3.5 -21.66,0.5 -43.33,0.667 -65,0.5 21.16,-0.832 42.5,-1.332 64,-1.5 -1.14,-0.741 -1.14,-1.575 0,-2.5 -0.53,-0.692 -1.19,-1.192 -2,-1.5 0.28,-1.956 0.28,-4.123 0,-6.5 -4.5,0.646 -9,0.979 -13.5,1 -1.67,-0.667 -3.33,-1.333 -5,-2 -11.79,0.545 -23.45,0.545 -35,0 -4.79,-1.064 -8.12,0.603 -10,5 -2.46,-1.821 -5.29,-2.488 -8.5,-2 -0.37,6.619 2.63,9.952 9,10 -3.33,0 -6.67,0 -10,0 -0.6,-5.119 0.06,-9.785 2,-14 z"
         id="path195" />
    </g>
    <g
       id="g197"
       style="clip-rule:evenodd;fill-rule:evenodd;image-rendering:optimizeQuality;shape-rendering:geometricPrecision;text-rendering:geometricPrecision"
       transform="matrix(0.26458333,0,0,0.26458333,-281.23287,4.6119985)">
      <path
         style="opacity:1"
         fill="#f3cd3c"
         d="m 1227.5,216.5 c -0.33,0 -0.67,0 -1,0 -6.37,-0.048 -9.37,-3.381 -9,-10 3.21,-0.488 6.04,0.179 8.5,2 1.88,-4.397 5.21,-6.064 10,-5 11.55,0.545 23.21,0.545 35,0 1.67,0.667 3.33,1.333 5,2 4.5,-0.021 9,-0.354 13.5,-1 0.28,2.377 0.28,4.544 0,6.5 0.81,0.308 1.47,0.808 2,1.5 -1.14,0.925 -1.14,1.759 0,2.5 -21.5,0.168 -42.84,0.668 -64,1.5 z"
         id="path197" />
    </g>
    <g
       id="g199"
       style="clip-rule:evenodd;fill-rule:evenodd;image-rendering:optimizeQuality;shape-rendering:geometricPrecision;text-rendering:geometricPrecision"
       transform="matrix(0.26458333,0,0,0.26458333,-281.23287,4.6119985)">
      <path
         style="opacity:1"
         fill="#f3d24f"
         d="m 1300.5,223.5 c -1.09,8.311 -2.09,16.644 -3,25 -1.15,5.708 -2.48,11.375 -4,17 0.29,-1.788 -0.05,-3.455 -1,-5 -1.2,0.346 -1.2,0.846 0,1.5 -1.38,1.649 -3.05,2.816 -5,3.5 4.44,-17.322 6.78,-34.989 7,-53 0.87,-2.217 1.2,-4.55 1,-7 0.72,-17.181 1.56,-34.514 2.5,-52 3,10.935 4.17,22.102 3.5,33.5 -0.21,12.173 -0.54,24.34 -1,36.5 z"
         id="path199" />
    </g>
    <g
       id="g211"
       style="clip-rule:evenodd;fill-rule:evenodd;image-rendering:optimizeQuality;shape-rendering:geometricPrecision;text-rendering:geometricPrecision"
       transform="matrix(0.26458333,0,0,0.26458333,-281.23287,4.6119985)">
      <path
         style="opacity:1"
         fill="#f9f5dc"
         d="m 1202.5,171.5 c 1,12.155 1.33,24.489 1,37 0,10.667 0,21.333 0,32 -1.91,-22.858 -2.25,-45.858 -1,-69 z"
         id="path211" />
    </g>
    <g
       id="g214"
       style="clip-rule:evenodd;fill-rule:evenodd;image-rendering:optimizeQuality;shape-rendering:geometricPrecision;text-rendering:geometricPrecision"
       transform="matrix(0.26458333,0,0,0.26458333,-281.23287,4.6119985)">
      <path
         style="opacity:1"
         fill="#b49018"
         d="m 1217.5,186.5 c 0,1 0,2 0,3 -0.98,3.462 -1.31,7.129 -1,11 5.01,-0.166 10.01,0.001 15,0.5 -4.52,0.175 -8.85,0.675 -13,1.5 -1.94,4.215 -2.6,8.881 -2,14 3.33,0 6.67,0 10,0 0.33,0 0.67,0 1,0 21.67,0.167 43.34,0 65,-0.5 0.84,-1.011 1.17,-2.178 1,-3.5 0.33,0 0.67,0 1,0 -0.22,18.011 -2.56,35.678 -7,53 -9.98,2.141 -20.15,3.141 -30.5,3 -8.85,-0.155 -17.69,-0.655 -26.5,-1.5 -8.29,0.039 -12.13,-4.128 -11.5,-12.5 -1.83,-15.976 -3.33,-31.976 -4.5,-48 0,-6.667 0,-13.333 0,-20 0.96,-0.453 1.79,-1.119 2.5,-2 0.46,0.594 0.63,1.261 0.5,2 z"
         id="path214" />
    </g>
    <g
       id="g215"
       style="clip-rule:evenodd;fill-rule:evenodd;image-rendering:optimizeQuality;shape-rendering:geometricPrecision;text-rendering:geometricPrecision"
       transform="matrix(0.26458333,0,0,0.26458333,-281.23287,4.6119985)">
      <path
         style="opacity:1"
         fill="#ecc648"
         d="m 1217.5,218.5 c 24.67,-0.167 49.34,0 74,0.5 0.88,1.356 1.21,2.856 1,4.5 -25,0 -50,0 -75,0 0,-1.667 0,-3.333 0,-5 z"
         id="path215" />
    </g>
    <g
       id="g221"
       style="clip-rule:evenodd;fill-rule:evenodd;image-rendering:optimizeQuality;shape-rendering:geometricPrecision;text-rendering:geometricPrecision"
       transform="matrix(0.26458333,0,0,0.26458333,-281.23287,4.6119985)">
      <path
         style="opacity:1"
         fill="#ddb63e"
         d="m 1218.5,225.5 c 24.33,0 48.67,0 73,0 0,1.667 0,3.333 0,5 -24.33,0 -48.67,0 -73,0 0,-1.667 0,-3.333 0,-5 z"
         id="path221" />
    </g>
    <g
       id="g224"
       style="clip-rule:evenodd;fill-rule:evenodd;image-rendering:optimizeQuality;shape-rendering:geometricPrecision;text-rendering:geometricPrecision"
       transform="matrix(0.26458333,0,0,0.26458333,-281.23287,4.6119985)">
      <path
         style="opacity:1"
         fill="#cdaa2e"
         d="m 1290.5,237.5 c 0,-1.333 0,-2.667 0,-4 -23.67,0 -47.33,0 -71,0 0,2.333 0,4.667 0,7 -0.97,-2.448 -1.31,-5.115 -1,-8 24.33,0 48.67,0 73,0 0.28,1.915 -0.05,3.581 -1,5 z"
         id="path224" />
    </g>
    <g
       id="g226"
       style="clip-rule:evenodd;fill-rule:evenodd;image-rendering:optimizeQuality;shape-rendering:geometricPrecision;text-rendering:geometricPrecision"
       transform="matrix(0.26458333,0,0,0.26458333,-281.23287,4.6119985)">
      <path
         style="opacity:1"
         fill="#ab8a27"
         d="m 1207.5,178.5 c -0.33,12.844 0,25.511 1,38 0.88,7.306 1.54,14.639 2,22 0.17,0.992 -0.16,1.658 -1,2 -0.97,2.448 -1.31,5.115 -1,8 -1.49,-13.97 -2.15,-28.137 -2,-42.5 0,-9.34 0.33,-18.506 1,-27.5 z"
         id="path226" />
    </g>
    <g
       id="g227"
       style="clip-rule:evenodd;fill-rule:evenodd;image-rendering:optimizeQuality;shape-rendering:geometricPrecision;text-rendering:geometricPrecision"
       transform="matrix(0.26458333,0,0,0.26458333,-281.23287,4.6119985)">
      <path
         style="opacity:1"
         fill="#f2ce46"
         d="m 1290.5,237.5 c -0.5,8.809 -1.83,17.476 -4,26 -20.3,2.284 -40.64,2.451 -61,0.5 -0.92,-0.374 -1.75,-0.874 -2.5,-1.5 -1.31,-7.322 -2.47,-14.655 -3.5,-22 0,-2.333 0,-4.667 0,-7 23.67,0 47.33,0 71,0 0,1.333 0,2.667 0,4 z"
         id="path227" />
    </g>
    <g
       id="g228"
       style="clip-rule:evenodd;fill-rule:evenodd;image-rendering:optimizeQuality;shape-rendering:geometricPrecision;text-rendering:geometricPrecision"
       transform="matrix(0.26458333,0,0,0.26458333,-281.23287,4.6119985)">
      <path
         style="opacity:1"
         fill="#f3ce39"
         d="m 1226.5,234.5 c 1.89,-0.203 3.39,0.463 4.5,2 0.39,-0.928 1.05,-1.595 2,-2 2.4,0.544 4.73,1.211 7,2 3.16,-1.381 6.49,-2.048 10,-2 11.36,1.19 22.53,1.19 33.5,0 5.73,0.845 6.4,3.345 2,7.5 0.38,3.602 0.54,7.102 0.5,10.5 -1.43,0.712 -2.93,0.879 -4.5,0.5 0.15,1.974 0.48,3.974 1,6 -1.58,0.707 -3.08,1.54 -4.5,2.5 -6.32,-0.661 -12.82,-0.661 -19.5,0 -0.98,-0.477 -1.81,-1.143 -2.5,-2 -1.18,1.184 -2.68,1.851 -4.5,2 -2.74,-0.454 -5.24,-0.787 -7.5,-1 -1.68,0.561 -3.01,1.561 -4,3 -4.5,-1.137 -9.33,-1.803 -14.5,-2 -1.33,-1.287 -2.33,-3.453 -3,-6.5 2.34,-3.808 2.01,-7.142 -1,-10 0.31,-2.571 0.81,-5.404 1.5,-8.5 1.3,-0.585 2.47,-1.251 3.5,-2 z"
         id="path228" />
    </g>
    <g
       id="g231"
       style="clip-rule:evenodd;fill-rule:evenodd;image-rendering:optimizeQuality;shape-rendering:geometricPrecision;text-rendering:geometricPrecision"
       transform="matrix(0.26458333,0,0,0.26458333,-281.23287,4.6119985)">
      <path
         style="opacity:1"
         fill="#f1e7bf"
         d="m 1203.5,208.5 c 0.33,0 0.67,0 1,0 0.3,26.77 2.13,53.437 5.5,80 1.38,1.205 2.54,2.538 3.5,4 -3.69,-0.855 -5.85,-3.188 -6.5,-7 -0.36,-15.073 -1.52,-30.073 -3.5,-45 0,-10.667 0,-21.333 0,-32 z"
         id="path231" />
    </g>
    <g
       id="g236"
       style="clip-rule:evenodd;fill-rule:evenodd;image-rendering:optimizeQuality;shape-rendering:geometricPrecision;text-rendering:geometricPrecision"
       transform="matrix(0.26458333,0,0,0.26458333,-281.23287,4.6119985)">
      <path
         style="opacity:1"
         fill="#e5d8ac"
         d="m 1305.5,229.5 c 0.6,14.597 -0.4,28.931 -3,43 0.08,-14.546 1.08,-28.879 3,-43 z"
         id="path236" />
    </g>
    <g
       id="g241"
       style="clip-rule:evenodd;fill-rule:evenodd;image-rendering:optimizeQuality;shape-rendering:geometricPrecision;text-rendering:geometricPrecision"
       transform="matrix(0.26458333,0,0,0.26458333,-281.23287,4.6119985)">
      <path
         style="opacity:1"
         fill="#d6b048"
         d="m 1301.5,242.5 c 0,2 0,4 0,6 -0.93,5.677 -1.93,11.344 -3,17 0.28,-1.915 -0.05,-3.581 -1,-5 0.17,-2.361 0.51,-4.694 1,-7 0.78,-4.654 1.62,-9.321 2.5,-14 0.48,0.948 0.65,1.948 0.5,3 z"
         id="path241" />
    </g>
    <g
       id="g243"
       style="clip-rule:evenodd;fill-rule:evenodd;image-rendering:optimizeQuality;shape-rendering:geometricPrecision;text-rendering:geometricPrecision"
       transform="matrix(0.26458333,0,0,0.26458333,-281.23287,4.6119985)">
      <path
         style="opacity:1"
         fill="#b5931e"
         d="m 1210.5,238.5 c 1.93,9.937 4.09,19.937 6.5,30 6.71,2.155 13.54,3.822 20.5,5 0,0.667 0,1.333 0,2 -8.23,-0.306 -15.9,-2.306 -23,-6 -2.42,-9.518 -4.09,-19.185 -5,-29 0.84,-0.342 1.17,-1.008 1,-2 z"
         id="path243" />
    </g>
    <g
       id="g244"
       style="clip-rule:evenodd;fill-rule:evenodd;image-rendering:optimizeQuality;shape-rendering:geometricPrecision;text-rendering:geometricPrecision"
       transform="matrix(0.26458333,0,0,0.26458333,-281.23287,4.6119985)">
      <path
         style="opacity:1"
         fill="#dbba4c"
         d="m 1209.5,240.5 c 0.91,9.815 2.58,19.482 5,29 -0.62,0.111 -1.12,0.444 -1.5,1 -0.5,3.652 -0.67,7.318 -0.5,11 -1.03,-10.037 -2.37,-20.037 -4,-30 0,-1 0,-2 0,-3 -0.31,-2.885 0.03,-5.552 1,-8 z"
         id="path244" />
    </g>
    <g
       id="g257"
       style="clip-rule:evenodd;fill-rule:evenodd;image-rendering:optimizeQuality;shape-rendering:geometricPrecision;text-rendering:geometricPrecision"
       transform="matrix(0.26458333,0,0,0.26458333,-281.23287,4.6119985)">
      <path
         style="opacity:1"
         fill="#efd050"
         d="m 1212.5,177.5 c 0.67,9.667 1.33,19.333 2,29 1.17,16.024 2.67,32.024 4.5,48 -0.63,8.372 3.21,12.539 11.5,12.5 8.81,0.845 17.65,1.345 26.5,1.5 10.35,0.141 20.52,-0.859 30.5,-3 1.95,-0.684 3.62,-1.851 5,-3.5 -1.2,-0.654 -1.2,-1.154 0,-1.5 0.95,1.545 1.29,3.212 1,5 -0.37,3.388 -2.37,5.222 -6,5.5 -12.59,2.012 -25.25,2.845 -38,2.5 -4,0 -8,0 -12,0 -6.96,-1.178 -13.79,-2.845 -20.5,-5 -2.41,-10.063 -4.57,-20.063 -6.5,-30 -0.46,-7.361 -1.12,-14.694 -2,-22 0,-12.667 0,-25.333 0,-38 1.6,0.268 2.93,-0.066 4,-1 z"
         id="path257" />
    </g>
    <g
       id="g258"
       style="clip-rule:evenodd;fill-rule:evenodd;image-rendering:optimizeQuality;shape-rendering:geometricPrecision;text-rendering:geometricPrecision"
       transform="matrix(0.26458333,0,0,0.26458333,-281.23287,4.6119985)">
      <path
         style="opacity:1"
         fill="#b69420"
         d="m 1297.5,248.5 c -0.28,1.915 0.05,3.581 1,5 -0.49,2.306 -0.83,4.639 -1,7 -0.5,3.852 -1.83,7.352 -4,10.5 -7.33,1.787 -14.66,3.62 -22,5.5 1.21,2.95 2.21,5.95 3,9 -1.21,-0.734 -2.54,-1.067 -4,-1 -0.52,-4.432 -2.85,-7.099 -7,-8 1.11,-0.79 2.44,-1.29 4,-1.5 -6.18,-0.172 -12.18,-0.672 -18,-1.5 12.75,0.345 25.41,-0.488 38,-2.5 3.63,-0.278 5.63,-2.112 6,-5.5 1.52,-5.625 2.85,-11.292 4,-17 z"
         id="path258" />
    </g>
    <g
       id="g259"
       style="clip-rule:evenodd;fill-rule:evenodd;image-rendering:optimizeQuality;shape-rendering:geometricPrecision;text-rendering:geometricPrecision"
       transform="matrix(0.26458333,0,0,0.26458333,-281.23287,4.6119985)">
      <path
         style="opacity:1"
         fill="#f8f5db"
         d="m 1307.5,183.5 c 0.99,11.154 1.33,22.488 1,34 -1.28,22.194 -2.78,44.528 -4.5,67 0.45,5.79 -2.05,9.457 -7.5,11 -7.22,3.545 -14.89,4.879 -23,4 0.17,5.011 0,10.011 -0.5,15 -0.28,0.916 -0.78,1.582 -1.5,2 0,-0.667 0,-1.333 0,-2 0,-0.667 0,-1.333 0,-2 0.67,-5 1.33,-10 2,-15 2.8,1.138 5.8,1.305 9,0.5 3.92,-1.479 7.92,-2.646 12,-3.5 3,-1 5,-3 6,-6 0.54,-5.364 1.2,-10.697 2,-16 2.6,-14.069 3.6,-28.403 3,-43 0,-1 0,-2 0,-3 1.74,-14.127 2.4,-28.46 2,-43 z"
         id="path259" />
    </g>
    <g
       id="g260"
       style="clip-rule:evenodd;fill-rule:evenodd;image-rendering:optimizeQuality;shape-rendering:geometricPrecision;text-rendering:geometricPrecision"
       transform="matrix(0.26458333,0,0,0.26458333,-281.23287,4.6119985)">
      <path
         style="opacity:1"
         fill="#d9b447"
         d="m 1263.5,276.5 c 4.15,0.901 6.48,3.568 7,8 0.16,1.373 -0.01,2.707 -0.5,4 -1.04,-2.215 -1.71,-4.548 -2,-7 -1.93,-1.38 -3.76,-2.88 -5.5,-4.5 0.23,-0.399 0.56,-0.565 1,-0.5 z"
         id="path260" />
    </g>
    <g
       id="g261"
       style="clip-rule:evenodd;fill-rule:evenodd;image-rendering:optimizeQuality;shape-rendering:geometricPrecision;text-rendering:geometricPrecision"
       transform="matrix(0.26458333,0,0,0.26458333,-281.23287,4.6119985)">
      <path
         style="opacity:1"
         fill="#eeca48"
         d="m 1297.5,260.5 c 0.95,1.419 1.28,3.085 1,5 -0.11,7.429 -0.94,14.762 -2.5,22 -2.85,2.652 -6.01,4.652 -9.5,6 -3.73,1.021 -7.4,1.021 -11,0 -0.33,-2.667 -0.67,-5.333 -1,-8 -0.79,-3.05 -1.79,-6.05 -3,-9 7.34,-1.88 14.67,-3.713 22,-5.5 2.17,-3.148 3.5,-6.648 4,-10.5 z"
         id="path261" />
    </g>
    <g
       id="g262"
       style="clip-rule:evenodd;fill-rule:evenodd;image-rendering:optimizeQuality;shape-rendering:geometricPrecision;text-rendering:geometricPrecision"
       transform="matrix(0.26458333,0,0,0.26458333,-281.23287,4.6119985)">
      <path
         style="opacity:1"
         fill="#f2cd3b"
         d="m 1285.5,275.5 c 2.93,0.698 5.93,0.864 9,0.5 -0.32,1.902 -0.32,3.902 0,6 -2.29,2.07 -3.95,4.57 -5,7.5 -3.49,2.13 -7.16,2.796 -11,2 -1.81,-4.499 -3.15,-9.166 -4,-14 3.86,-0.308 7.53,-0.975 11,-2 z"
         id="path262" />
    </g>
    <g
       id="g265"
       style="clip-rule:evenodd;fill-rule:evenodd;image-rendering:optimizeQuality;shape-rendering:geometricPrecision;text-rendering:geometricPrecision"
       transform="matrix(0.26458333,0,0,0.26458333,-281.23287,4.6119985)">
      <path
         style="opacity:1"
         fill="#b08d2a"
         d="m 1208.5,251.5 c 1.63,9.963 2.97,19.963 4,30 0.12,3.647 1.79,6.481 5,8.5 5.5,2.225 11.17,3.725 17,4.5 0.41,-3.721 1.08,-7.388 2,-11 0,-0.333 0,-0.667 0,-1 1.82,-2.117 2.15,-4.451 1,-7 0,-0.667 0,-1.333 0,-2 4,0 8,0 12,0 5.82,0.828 11.82,1.328 18,1.5 -1.56,0.21 -2.89,0.71 -4,1.5 -0.44,-0.065 -0.77,0.101 -1,0.5 1.74,1.62 3.57,3.12 5.5,4.5 0.29,2.452 0.96,4.785 2,7 0.49,-1.293 0.66,-2.627 0.5,-4 1.46,-0.067 2.79,0.266 4,1 0.33,2.667 0.67,5.333 1,8 -1.64,0.214 -3.14,-0.12 -4.5,-1 -0.33,7 -0.67,14 -1,21 -1.71,0.808 -2.54,2.141 -2.5,4 -5.3,0.694 -10.64,1.028 -16,1 -2.13,-0.703 -4.13,-1.703 -6,-3 5.96,1.03 11.96,1.197 18,0.5 1.43,-0.465 2.6,-1.299 3.5,-2.5 1.92,-10.533 1.09,-20.866 -2.5,-31 -0.53,-0.692 -1.19,-1.192 -2,-1.5 -5.25,-0.804 -10.42,-0.637 -15.5,0.5 -3.97,9.577 -5.47,19.577 -4.5,30 -0.76,-4.381 -1.76,-8.714 -3,-13 0.3,-2.104 -0.03,-4.104 -1,-6 -0.8,0.457 -1.13,1.124 -1,2 -0.33,0.667 -0.67,1.333 -1,2 -3.68,0.165 -7.35,-10e-4 -11,-0.5 -2.85,-1.43 -5.85,-2.263 -9,-2.5 -1.29,-1.796 -2.79,-3.463 -4.5,-5 -2.13,-12.225 -3.3,-24.558 -3.5,-37 z"
         id="path265" />
    </g>
    <g
       id="g266"
       style="clip-rule:evenodd;fill-rule:evenodd;image-rendering:optimizeQuality;shape-rendering:geometricPrecision;text-rendering:geometricPrecision"
       transform="matrix(0.26458333,0,0,0.26458333,-281.23287,4.6119985)">
      <path
         style="opacity:1"
         fill="#f2ce3d"
         d="m 1236.5,282.5 c 0,0.333 0,0.667 0,1 -2.14,1.995 -3.47,4.495 -4,7.5 -8.36,1.46 -12.86,-1.707 -13.5,-9.5 -1.02,-1.134 -1.68,-0.801 -2,1 -1.25,-2.577 -1.58,-5.243 -1,-8 2.31,1.954 4.31,1.954 6,0 4.19,2.157 8.69,3.323 13.5,3.5 0.88,1.356 1.21,2.856 1,4.5 z"
         id="path266" />
    </g>
    <g
       id="g269"
       style="clip-rule:evenodd;fill-rule:evenodd;image-rendering:optimizeQuality;shape-rendering:geometricPrecision;text-rendering:geometricPrecision"
       transform="matrix(0.26458333,0,0,0.26458333,-281.23287,4.6119985)">
      <path
         style="opacity:1"
         fill="#f9f8ec"
         d="m 1200.5,139.5 c -3.01,3.023 -4.68,6.69 -5,11 0.93,6.855 3.26,13.188 7,19 0,0.667 0,1.333 0,2 -1.25,23.142 -0.91,46.142 1,69 1.98,14.927 3.14,29.927 3.5,45 0.65,3.812 2.81,6.145 6.5,7 2.55,3.837 6.22,5.503 11,5 1.29,-0.237 2.29,0.096 3,1 3.12,0.979 6.46,1.313 10,1 -0.32,4.532 0.02,8.866 1,13 0.24,1.904 1.24,3.238 3,4 1.55,2.612 3.89,3.945 7,4 5.48,1.152 11.15,1.318 17,0.5 2.61,-0.792 4.61,-2.292 6,-4.5 0.72,-0.418 1.22,-1.084 1.5,-2 0.5,-4.989 0.67,-9.989 0.5,-15 8.11,0.879 15.78,-0.455 23,-4 -0.84,1.673 -2.18,2.84 -4,3.5 -5.3,2.076 -10.63,3.243 -16,3.5 -0.76,2.657 -1.43,5.323 -2,8 0.76,1.951 1.09,3.784 1,5.5 -4.42,4.795 -9.92,7.628 -16.5,8.5 -5.12,-0.039 -10.29,-0.706 -15.5,-2 -0.59,0.209 -1.09,0.543 -1.5,1 -3.1,-2.712 -5.6,-5.879 -7.5,-9.5 0.96,-3.73 1.29,-7.563 1,-11.5 -3.26,-0.638 -6.43,-0.638 -9.5,0 -4.93,-2.097 -9.76,-4.263 -14.5,-6.5 -3.17,-3.347 -5.83,-7.014 -8,-11 0.62,-2.388 0.95,-4.721 1,-7 -0.6,-1.605 -1.6,-2.938 -3,-4 1.02,-0.519 1.68,-1.353 2,-2.5 -0.1,-4.487 -0.1,-9.32 0,-14.5 -0.93,-1.194 -1.6,-2.527 -2,-4 -0.09,-2.165 0.24,-4.165 1,-6 -0.67,-0.667 -1.33,-1.333 -2,-2 0.86,-9.241 1.19,-18.241 1,-27 -0.67,-7.667 -1.33,-15.333 -2,-23 1.15,-7.754 1.31,-15.587 0.5,-23.5 -4.43,-5.202 -6.27,-11.202 -5.5,-18 0.17,-3 0.33,-6 0.5,-9 0.47,-1.431 1.3,-2.597 2.5,-3.5 -0.33,-0.333 -0.67,-0.667 -1,-1 1.29,-0.49 2.63,-0.657 4,-0.5 z"
         id="path269" />
    </g>
    <g
       id="g270"
       style="clip-rule:evenodd;fill-rule:evenodd;image-rendering:optimizeQuality;shape-rendering:geometricPrecision;text-rendering:geometricPrecision"
       transform="matrix(0.26458333,0,0,0.26458333,-281.23287,4.6119985)">
      <path
         style="opacity:1"
         fill="#b0902e"
         d="m 1301.5,248.5 c 0.37,13.193 -0.96,26.193 -4,39 -2.26,4.597 -5.93,6.597 -11,6 3.49,-1.348 6.65,-3.348 9.5,-6 1.56,-7.238 2.39,-14.571 2.5,-22 1.07,-5.656 2.07,-11.323 3,-17 z"
         id="path270" />
    </g>
    <g
       id="g273"
       style="clip-rule:evenodd;fill-rule:evenodd;image-rendering:optimizeQuality;shape-rendering:geometricPrecision;text-rendering:geometricPrecision"
       transform="matrix(0.26458333,0,0,0.26458333,-281.23287,4.6119985)">
      <path
         style="opacity:1"
         fill="#efcb4a"
         d="m 1214.5,269.5 c 7.1,3.694 14.77,5.694 23,6 1.15,2.549 0.82,4.883 -1,7 0.21,-1.644 -0.12,-3.144 -1,-4.5 -4.81,-0.177 -9.31,-1.343 -13.5,-3.5 -1.69,1.954 -3.69,1.954 -6,0 -0.58,2.757 -0.25,5.423 1,8 0.32,-1.801 0.98,-2.134 2,-1 0.64,7.793 5.14,10.96 13.5,9.5 0.53,-3.005 1.86,-5.505 4,-7.5 -0.92,3.612 -1.59,7.279 -2,11 -5.83,-0.775 -11.5,-2.275 -17,-4.5 -3.21,-2.019 -4.88,-4.853 -5,-8.5 -0.17,-3.682 0,-7.348 0.5,-11 0.38,-0.556 0.88,-0.889 1.5,-1 z"
         id="path273" />
    </g>
    <g
       id="g275"
       style="clip-rule:evenodd;fill-rule:evenodd;image-rendering:optimizeQuality;shape-rendering:geometricPrecision;text-rendering:geometricPrecision"
       transform="matrix(0.26458333,0,0,0.26458333,-281.23287,4.6119985)">
      <path
         style="opacity:1"
         fill="#e1d5a8"
         d="m 1300.5,288.5 c -1,3 -3,5 -6,6 1.67,-2.333 3.67,-4.333 6,-6 z"
         id="path275" />
    </g>
    <g
       id="g276"
       style="clip-rule:evenodd;fill-rule:evenodd;image-rendering:optimizeQuality;shape-rendering:geometricPrecision;text-rendering:geometricPrecision"
       transform="matrix(0.26458333,0,0,0.26458333,-281.23287,4.6119985)">
      <path
         style="opacity:1"
         fill="#ad985a"
         d="m 1216.5,293.5 c 3.15,0.237 6.15,1.07 9,2.5 3.65,0.499 7.32,0.665 11,0.5 -0.11,0.617 -0.44,1.117 -1,1.5 -2.65,0.497 -5.31,0.664 -8,0.5 -0.71,-0.904 -1.71,-1.237 -3,-1 -2.75,-1.141 -5.42,-2.475 -8,-4 z"
         id="path276" />
    </g>
    <g
       id="g277"
       style="clip-rule:evenodd;fill-rule:evenodd;image-rendering:optimizeQuality;shape-rendering:geometricPrecision;text-rendering:geometricPrecision"
       transform="matrix(0.26458333,0,0,0.26458333,-281.23287,4.6119985)">
      <path
         style="opacity:1"
         fill="#d3b463"
         d="m 1239.5,298.5 c -0.33,0 -0.67,0 -1,0 0.27,-1.599 -0.07,-2.932 -1,-4 -0.13,-0.876 0.2,-1.543 1,-2 0.97,1.896 1.3,3.896 1,6 z"
         id="path277" />
    </g>
    <g
       id="g289"
       style="clip-rule:evenodd;fill-rule:evenodd;image-rendering:optimizeQuality;shape-rendering:geometricPrecision;text-rendering:geometricPrecision"
       transform="matrix(0.26458333,0,0,0.26458333,-281.23287,4.6119985)">
      <path
         style="opacity:1"
         fill="#f2ebc3"
         d="m 1213.5,292.5 c 0.89,0.61 1.89,0.943 3,1 2.58,1.525 5.25,2.859 8,4 -4.78,0.503 -8.45,-1.163 -11,-5 z"
         id="path289" />
    </g>
    <g
       id="g295"
       style="clip-rule:evenodd;fill-rule:evenodd;image-rendering:optimizeQuality;shape-rendering:geometricPrecision;text-rendering:geometricPrecision"
       transform="matrix(0.26458333,0,0,0.26458333,-281.23287,4.6119985)">
      <path
         style="opacity:1"
         fill="#f2e5b6"
         d="m 1237.5,294.5 c 0.93,1.068 1.27,2.401 1,4 0,4.667 0,9.333 0,14 -0.98,-4.134 -1.32,-8.468 -1,-13 -3.54,0.313 -6.88,-0.021 -10,-1 2.69,0.164 5.35,-0.003 8,-0.5 0.56,-0.383 0.89,-0.883 1,-1.5 0.33,-0.667 0.67,-1.333 1,-2 z"
         id="path295" />
    </g>
    <g
       id="g296"
       style="clip-rule:evenodd;fill-rule:evenodd;image-rendering:optimizeQuality;shape-rendering:geometricPrecision;text-rendering:geometricPrecision"
       transform="matrix(0.26458333,0,0,0.26458333,-281.23287,4.6119985)">
      <path
         style="opacity:1"
         fill="#a38436"
         d="m 1239.5,298.5 c 1.24,4.286 2.24,8.619 3,13 0.24,1.904 1.24,3.238 3,4 1.87,1.297 3.87,2.297 6,3 -3.62,0.345 -6.95,-0.322 -10,-2 -1.8,-5.816 -2.47,-11.816 -2,-18 z"
         id="path296" />
    </g>
    <g
       id="g298"
       style="clip-rule:evenodd;fill-rule:evenodd;image-rendering:optimizeQuality;shape-rendering:geometricPrecision;text-rendering:geometricPrecision"
       transform="matrix(0.26458333,0,0,0.26458333,-281.23287,4.6119985)">
      <path
         style="opacity:1"
         fill="#b09d66"
         d="m 1238.5,298.5 c 0.33,0 0.67,0 1,0 -0.47,6.184 0.2,12.184 2,18 -1.76,-0.762 -2.76,-2.096 -3,-4 0,-4.667 0,-9.333 0,-14 z"
         id="path298" />
    </g>
    <g
       id="g299"
       style="clip-rule:evenodd;fill-rule:evenodd;image-rendering:optimizeQuality;shape-rendering:geometricPrecision;text-rendering:geometricPrecision"
       transform="matrix(0.26458333,0,0,0.26458333,-281.23287,4.6119985)">
      <path
         style="opacity:1"
         fill="#d4c494"
         d="m 1273.5,297.5 c -0.67,5 -1.33,10 -2,15 -0.17,-6.009 0,-12.009 0.5,-18 0.51,1.027 1.01,2.027 1.5,3 z"
         id="path299" />
    </g>
    <g
       id="g302"
       style="clip-rule:evenodd;fill-rule:evenodd;image-rendering:optimizeQuality;shape-rendering:geometricPrecision;text-rendering:geometricPrecision"
       transform="matrix(0.26458333,0,0,0.26458333,-281.23287,4.6119985)">
      <path
         style="opacity:1"
         fill="#dbb143"
         d="m 1245.5,315.5 c -1.76,-0.762 -2.76,-2.096 -3,-4 -0.97,-10.423 0.53,-20.423 4.5,-30 5.08,-1.137 10.25,-1.304 15.5,-0.5 0.81,0.308 1.47,0.808 2,1.5 3.59,10.134 4.42,20.467 2.5,31 -0.9,1.201 -2.07,2.035 -3.5,2.5 -6.04,0.697 -12.04,0.53 -18,-0.5 z"
         id="path302" />
    </g>
    <g
       id="g303"
       style="clip-rule:evenodd;fill-rule:evenodd;image-rendering:optimizeQuality;shape-rendering:geometricPrecision;text-rendering:geometricPrecision"
       transform="matrix(0.26458333,0,0,0.26458333,-281.23287,4.6119985)">
      <path
         style="opacity:1"
         fill="#dcaf39"
         d="m 1254.5,281.5 c 2.79,0.517 5.45,1.35 8,2.5 0.19,1.43 0.19,2.93 0,4.5 -1.72,0.497 -3.38,0.831 -5,1 0.53,0.692 1.19,1.192 2,1.5 -0.33,0.333 -0.67,0.667 -1,1 1,0.333 2,0.667 3,1 -1.46,0.423 -1.96,1.256 -1.5,2.5 1.01,0.482 2.18,0.648 3.5,0.5 -0.72,2.003 -1.05,4.169 -1,6.5 1.03,-0.204 2.03,0.296 3,1.5 -0.42,2.823 -0.75,5.656 -1,8.5 -5.82,1.79 -11.82,1.79 -18,0 -1.51,-0.749 -2.51,-1.916 -3,-3.5 1.04,-6.215 2.71,-12.215 5,-18 -0.67,-1 -1.33,-2 -2,-3 0.91,-1.699 1.24,-3.533 1,-5.5 2.56,0.302 4.89,-0.032 7,-1 z"
         id="path303" />
    </g>
    <g
       id="g307"
       style="clip-rule:evenodd;fill-rule:evenodd;image-rendering:optimizeQuality;shape-rendering:geometricPrecision;text-rendering:geometricPrecision"
       transform="matrix(0.26458333,0,0,0.26458333,-281.23287,4.6119985)">
      <path
         style="opacity:1"
         fill="#e5d9b4"
         d="m 1271.5,314.5 c 0,0.667 0,1.333 0,2 -1.39,2.208 -3.39,3.708 -6,4.5 -5.85,0.818 -11.52,0.652 -17,-0.5 5.01,0.166 10.01,-10e-4 15,-0.5 1.57,-0.608 2.9,-1.442 4,-2.5 1.93,-0.271 3.26,-1.271 4,-3 z"
         id="path307" />
    </g>
    <g
       id="g310"
       style="clip-rule:evenodd;fill-rule:evenodd;image-rendering:optimizeQuality;shape-rendering:geometricPrecision;text-rendering:geometricPrecision"
       transform="matrix(0.26458333,0,0,0.26458333,-281.23287,4.6119985)">
      <path
         style="opacity:1"
         fill="#aa9455"
         d="m 1241.5,316.5 c 3.05,1.678 6.38,2.345 10,2 5.36,0.028 10.7,-0.306 16,-1 -1.1,1.058 -2.43,1.892 -4,2.5 -4.99,0.499 -9.99,0.666 -15,0.5 -3.11,-0.055 -5.45,-1.388 -7,-4 z"
         id="path310" />
    </g>
  </g>
</svg>
