<?xml version="1.0" encoding="UTF-8" standalone="no"?>
<!-- Created with Inkscape (http://www.inkscape.org/) -->

<svg
   width="96mm"
   height="96mm"
   viewBox="0 0 96 96"
   version="1.1"
   id="svg1"
   inkscape:version="1.4.2 (ebf0e940, 2025-05-08)"
   sodipodi:docname="ship.svg"
   xmlns:inkscape="http://www.inkscape.org/namespaces/inkscape"
   xmlns:sodipodi="http://sodipodi.sourceforge.net/DTD/sodipodi-0.dtd"
   xmlns="http://www.w3.org/2000/svg"
   xmlns:svg="http://www.w3.org/2000/svg">
  <sodipodi:namedview
     id="namedview1"
     pagecolor="#ffffff"
     bordercolor="#000000"
     borderopacity="0.25"
     inkscape:showpageshadow="2"
     inkscape:pageopacity="0.0"
     inkscape:pagecheckerboard="0"
     inkscape:deskcolor="#d1d1d1"
     inkscape:document-units="mm"
     inkscape:zoom="0.80444024"
     inkscape:cx="397.17059"
     inkscape:cy="262.91574"
     inkscape:window-width="1920"
     inkscape:window-height="1052"
     inkscape:window-x="0"
     inkscape:window-y="28"
     inkscape:window-maximized="0"
     inkscape:current-layer="layer1" />
  <defs
     id="defs1" />
  <g
     inkscape:label="Layer 1"
     inkscape:groupmode="layer"
     id="layer1">
    <g
       id="g366"
       style="clip-rule:evenodd;fill-rule:evenodd;image-rendering:optimizeQuality;shape-rendering:geometricPrecision;text-rendering:geometricPrecision"
       transform="matrix(0.22398595,0,0,0.22398595,-21.754219,-73.844688)">
      <path
         style="opacity:1"
         fill="#d3ab41"
         d="m 312.5,377.5 c 6.161,6.163 11.161,13.163 15,21 0.237,1.291 -0.096,2.291 -1,3 -3.786,-6.954 -9.12,-12.454 -16,-16.5 -2,-0.667 -4,-0.667 -6,0 -9.95,6.722 -17.45,15.556 -22.5,26.5 -0.69,1.238 -1.19,1.238 -1.5,0 4.38,-12.434 11.047,-23.434 20,-33 3.859,-2.088 7.859,-2.421 12,-1 z"
         id="path366" />
    </g>
    <g
       id="g367"
       style="clip-rule:evenodd;fill-rule:evenodd;image-rendering:optimizeQuality;shape-rendering:geometricPrecision;text-rendering:geometricPrecision"
       transform="matrix(0.22398595,0,0,0.22398595,-21.754219,-73.844688)">
      <path
         style="opacity:1"
         fill="#f5efcd"
         d="m 301.5,371.5 c 3.871,-0.315 7.538,0.018 11,1 1.995,1.804 3.662,3.804 5,6 -1.501,-1.252 -3.168,-2.252 -5,-3 -3.019,-1.837 -6.352,-2.337 -10,-1.5 -6.726,5.649 -12.393,12.149 -17,19.5 1.519,-4.045 3.353,-8.045 5.5,-12 4.075,-2.912 7.575,-6.246 10.5,-10 z"
         id="path367" />
    </g>
    <g
       id="g368"
       style="clip-rule:evenodd;fill-rule:evenodd;image-rendering:optimizeQuality;shape-rendering:geometricPrecision;text-rendering:geometricPrecision"
       transform="matrix(0.22398595,0,0,0.22398595,-21.754219,-73.844688)">
      <path
         style="opacity:1"
         fill="#a48633"
         d="m 312.5,375.5 c 0,0.667 0,1.333 0,2 -4.141,-1.421 -8.141,-1.088 -12,1 0.453,-0.958 1.119,-1.792 2,-2.5 3.317,-0.498 6.65,-0.665 10,-0.5 z"
         id="path368" />
    </g>
    <g
       id="g369"
       style="clip-rule:evenodd;fill-rule:evenodd;image-rendering:optimizeQuality;shape-rendering:geometricPrecision;text-rendering:geometricPrecision"
       transform="matrix(0.22398595,0,0,0.22398595,-21.754219,-73.844688)">
      <path
         style="opacity:1"
         fill="#f4ecc6"
         d="m 317.5,378.5 c 1.59,0.128 2.923,0.795 4,2 5.516,6.885 9.516,14.551 12,23 -4.438,-8.799 -9.772,-17.132 -16,-25 z"
         id="path369" />
    </g>
    <g
       id="g370"
       style="clip-rule:evenodd;fill-rule:evenodd;image-rendering:optimizeQuality;shape-rendering:geometricPrecision;text-rendering:geometricPrecision"
       transform="matrix(0.22398595,0,0,0.22398595,-21.754219,-73.844688)">
      <path
         style="opacity:1"
         fill="#a38a45"
         d="m 312.5,375.5 c -3.35,-0.165 -6.683,0.002 -10,0.5 -0.881,0.708 -1.547,1.542 -2,2.5 -8.953,9.566 -15.62,20.566 -20,33 -2.843,6.323 -4.843,12.989 -6,20 -0.763,3.549 -1.763,7.049 -3,10.5 -0.336,1.03 -1.003,1.53 -2,1.5 0.799,-2.93 1.132,-5.93 1,-9 3.042,-11.488 6.708,-22.821 11,-34 2.088,-1.836 3.421,-4.169 4,-7 4.607,-7.351 10.274,-13.851 17,-19.5 3.648,-0.837 6.981,-0.337 10,1.5 z"
         id="path370" />
    </g>
    <g
       id="g371"
       style="clip-rule:evenodd;fill-rule:evenodd;image-rendering:optimizeQuality;shape-rendering:geometricPrecision;text-rendering:geometricPrecision"
       transform="matrix(0.22398595,0,0,0.22398595,-21.754219,-73.844688)">
      <path
         style="opacity:1"
         fill="#b08824"
         d="m 326.5,401.5 c 2.715,6.162 5.715,11.496 9,16 2.115,3.612 3.115,7.612 3,12 -1.333,-0.667 -2.333,-1.667 -3,-3 -2.752,-9.07 -6.586,-17.736 -11.5,-26 -4.156,-6.328 -9.656,-10.995 -16.5,-14 -6.14,2.628 -11.307,6.628 -15.5,12 -4.828,7.325 -8.994,14.991 -12.5,23 -0.951,1.419 -1.284,3.085 -1,5 -1.75,1.159 -2.75,2.826 -3,5 -0.333,0 -0.667,0 -1,0 1.157,-7.011 3.157,-13.677 6,-20 0.31,1.238 0.81,1.238 1.5,0 5.05,-10.944 12.55,-19.778 22.5,-26.5 2,-0.667 4,-0.667 6,0 6.88,4.046 12.214,9.546 16,16.5 z"
         id="path371" />
    </g>
    <g
       id="g372"
       style="clip-rule:evenodd;fill-rule:evenodd;image-rendering:optimizeQuality;shape-rendering:geometricPrecision;text-rendering:geometricPrecision"
       transform="matrix(0.22398595,0,0,0.22398595,-21.754219,-73.844688)">
      <path
         style="opacity:1"
         fill="#d9ad3c"
         d="m 335.5,426.5 c -1.653,-0.16 -2.986,-0.826 -4,-2 0.739,0.131 1.406,-0.036 2,-0.5 -4.945,-2.8 -10.278,-4.467 -16,-5 -12.77,-1.745 -25.103,-0.245 -37,4.5 -0.798,-0.457 -1.131,-1.124 -1,-2 3.506,-8.009 7.672,-15.675 12.5,-23 4.193,-5.372 9.36,-9.372 15.5,-12 6.844,3.005 12.344,7.672 16.5,14 4.914,8.264 8.748,16.93 11.5,26 z"
         id="path372" />
    </g>
    <g
       id="g373"
       style="clip-rule:evenodd;fill-rule:evenodd;image-rendering:optimizeQuality;shape-rendering:geometricPrecision;text-rendering:geometricPrecision"
       transform="matrix(0.22398595,0,0,0.22398595,-21.754219,-73.844688)">
      <path
         style="opacity:1"
         fill="#c3a047"
         d="m 327.5,398.5 c 3.572,5.921 6.239,12.254 8,19 -3.285,-4.504 -6.285,-9.838 -9,-16 0.904,-0.709 1.237,-1.709 1,-3 z"
         id="path373" />
    </g>
    <g
       id="g374"
       style="clip-rule:evenodd;fill-rule:evenodd;image-rendering:optimizeQuality;shape-rendering:geometricPrecision;text-rendering:geometricPrecision"
       transform="matrix(0.22398595,0,0,0.22398595,-21.754219,-73.844688)">
      <path
         style="opacity:1"
         fill="#dbcb9c"
         d="m 334.5,407.5 c 2.482,2.003 3.482,4.669 3,8 -1.371,-2.436 -2.371,-5.103 -3,-8 z"
         id="path374" />
    </g>
    <g
       id="g375"
       style="clip-rule:evenodd;fill-rule:evenodd;image-rendering:optimizeQuality;shape-rendering:geometricPrecision;text-rendering:geometricPrecision"
       transform="matrix(0.22398595,0,0,0.22398595,-21.754219,-73.844688)">
      <path
         style="opacity:1"
         fill="#b38f23"
         d="m 331.5,424.5 c -17.942,-5.819 -35.609,-5.153 -53,2 -0.284,-1.915 0.049,-3.581 1,-5 -0.131,0.876 0.202,1.543 1,2 11.897,-4.745 24.23,-6.245 37,-4.5 5.722,0.533 11.055,2.2 16,5 -0.594,0.464 -1.261,0.631 -2,0.5 z"
         id="path375" />
    </g>
    <g
       id="g378"
       style="clip-rule:evenodd;fill-rule:evenodd;image-rendering:optimizeQuality;shape-rendering:geometricPrecision;text-rendering:geometricPrecision"
       transform="matrix(0.22398595,0,0,0.22398595,-21.754219,-73.844688)">
      <path
         style="opacity:1"
         fill="#efd261"
         d="m 331.5,424.5 c 1.014,1.174 2.347,1.84 4,2 0.667,1.333 1.667,2.333 3,3 0.131,0.876 -0.202,1.543 -1,2 -21.08,-10.591 -41.747,-10.591 -62,0 0.25,-2.174 1.25,-3.841 3,-5 17.391,-7.153 35.058,-7.819 53,-2 z"
         id="path378" />
    </g>
    <g
       id="g379"
       style="clip-rule:evenodd;fill-rule:evenodd;image-rendering:optimizeQuality;shape-rendering:geometricPrecision;text-rendering:geometricPrecision"
       transform="matrix(0.22398595,0,0,0.22398595,-21.754219,-73.844688)">
      <path
         style="opacity:1"
         fill="#f5efcc"
         d="m 281.5,400.5 c -4.292,11.179 -7.958,22.512 -11,34 -0.225,-4.748 0.275,-9.415 1.5,-14 2.391,-7.111 5.557,-13.778 9.5,-20 z"
         id="path379" />
    </g>
    <g
       id="g380"
       style="clip-rule:evenodd;fill-rule:evenodd;image-rendering:optimizeQuality;shape-rendering:geometricPrecision;text-rendering:geometricPrecision"
       transform="matrix(0.22398595,0,0,0.22398595,-21.754219,-73.844688)">
      <path
         style="opacity:1"
         fill="#a2893f"
         d="m 312.5,375.5 c 1.832,0.748 3.499,1.748 5,3 6.228,7.868 11.562,16.201 16,25 0.333,1.333 0.667,2.667 1,4 0.629,2.897 1.629,5.564 3,8 0.667,2.333 1.333,4.667 2,7 -0.09,2.652 0.576,4.985 2,7 0.721,4.67 1.554,9.337 2.5,14 1.699,0.906 3.533,1.239 5.5,1 1.824,3.346 2.49,7.013 2,11 -1.667,0 -3.333,0 -5,0 0,-0.333 0,-0.667 0,-1 1,0 2,0 3,0 0.302,-2.559 -0.032,-4.893 -1,-7 -2.642,-0.602 -4.975,-1.936 -7,-4 -0.607,-4.888 -1.607,-9.554 -3,-14 0.115,-4.388 -0.885,-8.388 -3,-12 -1.761,-6.746 -4.428,-13.079 -8,-19 -3.839,-7.837 -8.839,-14.837 -15,-21 0,-0.667 0,-1.333 0,-2 z"
         id="path380" />
    </g>
    <g
       id="g384"
       style="clip-rule:evenodd;fill-rule:evenodd;image-rendering:optimizeQuality;shape-rendering:geometricPrecision;text-rendering:geometricPrecision"
       transform="matrix(0.22398595,0,0,0.22398595,-21.754219,-73.844688)">
      <path
         style="opacity:1"
         fill="#beaa6f"
         d="m 339.5,422.5 c 1.424,2.015 2.09,4.348 2,7 -1.424,-2.015 -2.09,-4.348 -2,-7 z"
         id="path384" />
    </g>
    <g
       id="g387"
       style="clip-rule:evenodd;fill-rule:evenodd;image-rendering:optimizeQuality;shape-rendering:geometricPrecision;text-rendering:geometricPrecision"
       transform="matrix(0.22398595,0,0,0.22398595,-21.754219,-73.844688)">
      <path
         style="opacity:1"
         fill="#b49229"
         d="m 338.5,429.5 c 1.393,4.446 2.393,9.112 3,14 2.025,2.064 4.358,3.398 7,4 -2.357,0.163 -4.69,-0.003 -7,-0.5 -18.847,-6.996 -38.181,-8.329 -58,-4 -5.871,2.013 -11.871,3.513 -18,4.5 0,2 0,4 0,6 -1.129,-2.128 -1.296,-4.461 -0.5,-7 1.302,-0.585 2.469,-1.251 3.5,-2 0.667,0 1,-0.333 1,-1 0.997,0.03 1.664,-0.47 2,-1.5 1.237,-3.451 2.237,-6.951 3,-10.5 0.333,0 0.667,0 1,0 20.253,-10.591 40.92,-10.591 62,0 0.798,-0.457 1.131,-1.124 1,-2 z"
         id="path387" />
    </g>
    <g
       id="g388"
       style="clip-rule:evenodd;fill-rule:evenodd;image-rendering:optimizeQuality;shape-rendering:geometricPrecision;text-rendering:geometricPrecision"
       transform="matrix(0.22398595,0,0,0.22398595,-21.754219,-73.844688)">
      <path
         style="opacity:1"
         fill="#cfa93e"
         d="m 299.5,435.5 c 12.65,-1.336 24.65,0.83 36,6.5 -9.82,-2.133 -19.82,-3.3 -30,-3.5 -7.692,-0.368 -15.192,0.632 -22.5,3 -2.954,-0.094 -3.121,-0.594 -0.5,-1.5 5.711,-1.834 11.378,-3.334 17,-4.5 z"
         id="path388" />
    </g>
    <g
       id="g389"
       style="clip-rule:evenodd;fill-rule:evenodd;image-rendering:optimizeQuality;shape-rendering:geometricPrecision;text-rendering:geometricPrecision"
       transform="matrix(0.22398595,0,0,0.22398595,-21.754219,-73.844688)">
      <path
         style="opacity:1"
         fill="#edd060"
         d="m 295.5,430.5 c 15.32,-1.384 29.987,0.95 44,7 0.262,1.478 -0.071,2.811 -1,4 -13.018,-7.526 -27.018,-10.026 -42,-7.5 -7.902,0.972 -15.236,3.472 -22,7.5 -0.971,-1.462 -0.638,-2.795 1,-4 6.561,-2.963 13.228,-5.297 20,-7 z"
         id="path389" />
    </g>
    <g
       id="g390"
       style="clip-rule:evenodd;fill-rule:evenodd;image-rendering:optimizeQuality;shape-rendering:geometricPrecision;text-rendering:geometricPrecision"
       transform="matrix(0.22398595,0,0,0.22398595,-21.754219,-73.844688)">
      <path
         style="opacity:1"
         fill="#d0ab40"
         d="m 300.5,425.5 c 7.46,-0.267 14.793,0.566 22,2.5 -13.572,-0.41 -26.905,0.924 -40,4 -2.246,1.039 -4.413,2.206 -6.5,3.5 -0.167,-0.333 -0.333,-0.667 -0.5,-1 7.886,-4.63 16.219,-7.63 25,-9 z"
         id="path390" />
    </g>
    <g
       id="g391"
       style="clip-rule:evenodd;fill-rule:evenodd;image-rendering:optimizeQuality;shape-rendering:geometricPrecision;text-rendering:geometricPrecision"
       transform="matrix(0.22398595,0,0,0.22398595,-21.754219,-73.844688)">
      <path
         style="opacity:1"
         fill="#f4ecc5"
         d="m 337.5,415.5 c 1.97,2.828 3.803,5.828 5.5,9 0.48,6.555 1.647,12.888 3.5,19 1.291,-0.237 2.291,0.096 3,1 -1.967,0.239 -3.801,-0.094 -5.5,-1 -0.946,-4.663 -1.779,-9.33 -2.5,-14 0.09,-2.652 -0.576,-4.985 -2,-7 -0.667,-2.333 -1.333,-4.667 -2,-7 z"
         id="path391" />
    </g>
    <g
       id="g400"
       style="clip-rule:evenodd;fill-rule:evenodd;image-rendering:optimizeQuality;shape-rendering:geometricPrecision;text-rendering:geometricPrecision"
       transform="matrix(0.22398595,0,0,0.22398595,-21.754219,-73.844688)">
      <path
         style="opacity:1"
         fill="#edd05a"
         d="m 348.5,447.5 c 0,2 0,4 0,6 -4.002,0.464 -7.669,-0.202 -11,-2 -6.45,-3.499 -13.45,-5.499 -21,-6 -12.572,-1.554 -24.905,-0.387 -37,3.5 -1.803,0.637 -3.136,1.803 -4,3.5 -2.586,0.98 -5.253,1.313 -8,1 -0.667,0 -1.333,0 -2,0 0,-2 0,-4 0,-6 6.129,-0.987 12.129,-2.487 18,-4.5 19.819,-4.329 39.153,-2.996 58,4 2.31,0.497 4.643,0.663 7,0.5 z"
         id="path400" />
    </g>
    <g
       id="g403"
       style="clip-rule:evenodd;fill-rule:evenodd;image-rendering:optimizeQuality;shape-rendering:geometricPrecision;text-rendering:geometricPrecision"
       transform="matrix(0.22398595,0,0,0.22398595,-21.754219,-73.844688)">
      <path
         style="opacity:1"
         fill="#cdc092"
         d="m 269.5,443.5 c 0,0.667 -0.333,1 -1,1 -2.222,-0.322 -4.056,0.345 -5.5,2 -0.498,2.982 -0.665,5.982 -0.5,9 -1.141,-3.14 -1.308,-6.473 -0.5,-10 2.135,-1.778 4.635,-2.445 7.5,-2 z"
         id="path403" />
    </g>
    <g
       id="g404"
       style="clip-rule:evenodd;fill-rule:evenodd;image-rendering:optimizeQuality;shape-rendering:geometricPrecision;text-rendering:geometricPrecision"
       transform="matrix(0.22398595,0,0,0.22398595,-21.754219,-73.844688)">
      <path
         style="opacity:1"
         fill="#bb9d2a"
         d="m 316.5,445.5 c 7.55,0.501 14.55,2.501 21,6 -0.667,0 -1,0.333 -1,1 -11.913,-4.351 -24.246,-6.018 -37,-5 5.667,-0.667 11.333,-1.333 17,-2 z"
         id="path404" />
    </g>
    <g
       id="g407"
       style="clip-rule:evenodd;fill-rule:evenodd;image-rendering:optimizeQuality;shape-rendering:geometricPrecision;text-rendering:geometricPrecision"
       transform="matrix(0.22398595,0,0,0.22398595,-21.754219,-73.844688)">
      <path
         style="opacity:1"
         fill="#f0d159"
         d="m 299.5,447.5 c 12.754,-1.018 25.087,0.649 37,5 0,1.667 0,3.333 0,5 0.333,54.671 0,109.337 -1,164 -0.586,0.209 -1.086,0.543 -1.5,1 -0.667,6.333 -0.667,12.667 0,19 3.2,2.42 3.2,4.753 0,7 -0.5,6.325 -0.666,12.658 -0.5,19 -0.667,2 -1.333,4 -2,6 0,-26.333 0,-52.667 0,-79 0,-35 0,-70 0,-105 0.166,-8.673 0,-17.34 -0.5,-26 -1.419,-0.96 -2.919,-1.793 -4.5,-2.5 -11.594,-2.892 -23.26,-3.225 -35,-1 -2.943,0.942 -5.776,2.108 -8.5,3.5 -0.495,1.973 -0.662,3.973 -0.5,6 -0.679,8.735 -1.346,17.568 -2,26.5 0.663,31.598 1.33,63.098 2,94.5 0,0.667 0,1.333 0,2 -0.703,6.203 -1.369,12.536 -2,19 1.224,2.339 1.224,4.672 0,7 -1.287,-3.209 -1.287,-6.375 0,-9.5 -1.329,-25.285 -1.995,-50.785 -2,-76.5 0.167,-25.333 0.333,-50.667 0.5,-76 0.325,-3.022 1.825,-5.022 4.5,-6 5.278,-1.255 10.611,-2.255 16,-3 z"
         id="path407" />
    </g>
    <g
       id="g411"
       style="clip-rule:evenodd;fill-rule:evenodd;image-rendering:optimizeQuality;shape-rendering:geometricPrecision;text-rendering:geometricPrecision"
       transform="matrix(0.22398595,0,0,0.22398595,-21.754219,-73.844688)">
      <path
         style="opacity:1"
         fill="#ded0a2"
         d="m 349.5,444.5 c 0.996,-0.086 1.829,0.248 2.5,1 0.808,3.527 0.641,6.86 -0.5,10 0.49,-3.987 -0.176,-7.654 -2,-11 z"
         id="path411" />
    </g>
    <g
       id="g421"
       style="clip-rule:evenodd;fill-rule:evenodd;image-rendering:optimizeQuality;shape-rendering:geometricPrecision;text-rendering:geometricPrecision"
       transform="matrix(0.22398595,0,0,0.22398595,-21.754219,-73.844688)">
      <path
         style="opacity:1"
         fill="#faf9e8"
         d="m 312.5,372.5 c 4.732,1.21 8.566,3.877 11.5,8 8.785,13.785 15.785,28.452 21,44 0.956,4.805 1.623,9.472 2,14 2.929,2.551 5.762,5.218 8.5,8 -0.926,3.594 -1.259,7.26 -1,11 -1.967,-0.239 -3.801,0.094 -5.5,1 -0.217,83.524 -0.551,167.191 -1,251 -0.05,2.244 -0.883,3.911 -2.5,5 0.719,-2.264 1.052,-4.597 1,-7 0,-0.333 0,-0.667 0,-1 0.833,-82.832 1.333,-165.832 1.5,-249 1.302,-0.585 2.469,-1.251 3.5,-2 1.141,-3.14 1.308,-6.473 0.5,-10 -0.671,-0.752 -1.504,-1.086 -2.5,-1 -0.709,-0.904 -1.709,-1.237 -3,-1 -1.853,-6.112 -3.02,-12.445 -3.5,-19 -1.697,-3.172 -3.53,-6.172 -5.5,-9 0.482,-3.331 -0.518,-5.997 -3,-8 -0.333,-1.333 -0.667,-2.667 -1,-4 -2.484,-8.449 -6.484,-16.115 -12,-23 -1.077,-1.205 -2.41,-1.872 -4,-2 -1.338,-2.196 -3.005,-4.196 -5,-6 z"
         id="path421" />
    </g>
    <g
       id="g440"
       style="clip-rule:evenodd;fill-rule:evenodd;image-rendering:optimizeQuality;shape-rendering:geometricPrecision;text-rendering:geometricPrecision"
       transform="matrix(0.22398595,0,0,0.22398595,-21.754219,-73.844688)">
      <path
         style="opacity:1"
         fill="#b39522"
         d="m 331.5,489.5 c -0.667,0 -1.333,0 -2,0 0.166,-8.34 0,-16.673 -0.5,-25 -14.675,-5.243 -29.342,-5.243 -44,0 -0.499,5.323 -0.666,10.656 -0.5,16 -0.667,13 -1.333,26 -2,39 0,-16.667 0,-33.333 0,-50 -0.162,-2.027 0.005,-4.027 0.5,-6 2.724,-1.392 5.557,-2.558 8.5,-3.5 11.74,-2.225 23.406,-1.892 35,1 1.581,0.707 3.081,1.54 4.5,2.5 0.5,8.66 0.666,17.327 0.5,26 z"
         id="path440" />
    </g>
    <g
       id="g441"
       style="clip-rule:evenodd;fill-rule:evenodd;image-rendering:optimizeQuality;shape-rendering:geometricPrecision;text-rendering:geometricPrecision"
       transform="matrix(0.22398595,0,0,0.22398595,-21.754219,-73.844688)">
      <path
         style="opacity:1"
         fill="#edd15c"
         d="m 329.5,489.5 c -2.333,0 -4.667,0 -7,0 0.272,-6.038 -2.062,-10.705 -7,-14 -0.333,-0.667 -0.667,-1.333 -1,-2 -0.011,-1.517 -0.677,-2.684 -2,-3.5 -3.667,-0.667 -7.333,-0.667 -11,0 -2.107,1.264 -3.107,3.097 -3,5.5 -3.523,2.373 -5.523,5.707 -6,10 -0.934,1.068 -1.268,2.401 -1,4 -2.333,0 -4.667,0 -7,0 0,-3 0,-6 0,-9 -0.166,-5.344 10e-4,-10.677 0.5,-16 14.658,-5.243 29.325,-5.243 44,0 0.5,8.327 0.666,16.66 0.5,25 z"
         id="path441" />
    </g>
    <g
       id="g442"
       style="clip-rule:evenodd;fill-rule:evenodd;image-rendering:optimizeQuality;shape-rendering:geometricPrecision;text-rendering:geometricPrecision"
       transform="matrix(0.22398595,0,0,0.22398595,-21.754219,-73.844688)">
      <path
         style="opacity:1"
         fill="#a37f2b"
         d="m 314.5,473.5 c -5.558,-0.499 -10.892,0.167 -16,2 -0.107,-2.403 0.893,-4.236 3,-5.5 3.667,-0.667 7.333,-0.667 11,0 1.323,0.816 1.989,1.983 2,3.5 z"
         id="path442" />
    </g>
    <g
       id="g443"
       style="clip-rule:evenodd;fill-rule:evenodd;image-rendering:optimizeQuality;shape-rendering:geometricPrecision;text-rendering:geometricPrecision"
       transform="matrix(0.22398595,0,0,0.22398595,-21.754219,-73.844688)">
      <path
         style="opacity:1"
         fill="#f9f9e6"
         d="m 301.5,371.5 c -2.925,3.754 -6.425,7.088 -10.5,10 -2.147,3.955 -3.981,7.955 -5.5,12 -0.579,2.831 -1.912,5.164 -4,7 -3.943,6.222 -7.109,12.889 -9.5,20 -1.225,4.585 -1.725,9.252 -1.5,14 0.132,3.07 -0.201,6.07 -1,9 -2.865,-0.445 -5.365,0.222 -7.5,2 -0.808,3.527 -0.641,6.86 0.5,10 0,0.667 0.333,1 1,1 0,0.667 0.333,1 1,1 1.991,63.785 2.657,127.785 2,192 -0.333,0 -0.667,0 -1,0 -0.627,-63.267 -0.96,-126.6 -1,-190 -6.326,-3.511 -7.826,-8.511 -4.5,-15 1.444,-1.655 3.278,-2.322 5.5,-2 2.533,-12.13 5.7,-24.13 9.5,-36 3.078,-3.49 5.078,-7.49 6,-12 3.248,-5.495 6.748,-10.828 10.5,-16 3.042,-2.845 6.375,-5.179 10,-7 z"
         id="path443" />
    </g>
    <g
       id="g448"
       style="clip-rule:evenodd;fill-rule:evenodd;image-rendering:optimizeQuality;shape-rendering:geometricPrecision;text-rendering:geometricPrecision"
       transform="matrix(0.22398595,0,0,0.22398595,-21.754219,-73.844688)">
      <path
         style="opacity:1"
         fill="#86571e"
         d="m 315.5,475.5 c 4.938,3.295 7.272,7.962 7,14 0,1 0,2 0,3 -0.61,1.934 -1.61,3.601 -3,5 0,-1 0,-2 0,-3 2.219,-6.337 0.886,-11.67 -4,-16 0,-1 0,-2 0,-3 z"
         id="path448" />
    </g>
    <g
       id="g469"
       style="clip-rule:evenodd;fill-rule:evenodd;image-rendering:optimizeQuality;shape-rendering:geometricPrecision;text-rendering:geometricPrecision"
       transform="matrix(0.22398595,0,0,0.22398595,-21.754219,-73.844688)">
      <path
         style="opacity:1"
         fill="#945a4d"
         d="m 315.5,478.5 c 4.886,4.33 6.219,9.663 4,16 -0.808,1.72 -1.808,3.387 -3,5 -0.722,0.418 -1.222,1.084 -1.5,2 -0.49,-1.293 -0.657,-2.627 -0.5,-4 -1.322,-0.17 -2.489,0.163 -3.5,1 -0.689,-0.857 -1.522,-1.523 -2.5,-2 -0.827,1.662 -1.993,2.995 -3.5,4 -0.617,-0.949 -0.451,-1.782 0.5,-2.5 -3.085,-0.985 -4.585,-3.152 -4.5,-6.5 -0.689,-0.857 -1.522,-1.523 -2.5,-2 -1.714,3.275 -0.881,5.608 2.5,7 0.496,1.535 0.33,3.035 -0.5,4.5 1.356,1.567 2.023,3.4 2,5.5 -6.347,-6.208 -8.847,-13.875 -7.5,-23 4.964,-8.694 11.797,-10.361 20.5,-5 z"
         id="path469" />
    </g>
    <g
       id="g470"
       style="clip-rule:evenodd;fill-rule:evenodd;image-rendering:optimizeQuality;shape-rendering:geometricPrecision;text-rendering:geometricPrecision"
       transform="matrix(0.22398595,0,0,0.22398595,-21.754219,-73.844688)">
      <path
         style="opacity:1"
         fill="#6e4133"
         d="m 305.5,484.5 c -1.877,1.159 -2.377,2.826 -1.5,5 2.293,2.634 4.46,2.634 6.5,0 0.802,-1.452 1.302,-3.118 1.5,-5 1.985,7.513 -0.849,10.18 -8.5,8 -2.071,-2.43 -2.404,-5.097 -1,-8 2.144,-3.262 4.81,-3.762 8,-1.5 -1.882,0.198 -3.548,0.698 -5,1.5 z"
         id="path470" />
    </g>
    <g
       id="g471"
       style="clip-rule:evenodd;fill-rule:evenodd;image-rendering:optimizeQuality;shape-rendering:geometricPrecision;text-rendering:geometricPrecision"
       transform="matrix(0.22398595,0,0,0.22398595,-21.754219,-73.844688)">
      <path
         style="opacity:1"
         fill="#e9d6ca"
         d="m 305.5,484.5 c 4,-0.667 5.667,1 5,5 -2.04,2.634 -4.207,2.634 -6.5,0 -0.877,-2.174 -0.377,-3.841 1.5,-5 z"
         id="path471" />
    </g>
    <g
       id="g495"
       style="clip-rule:evenodd;fill-rule:evenodd;image-rendering:optimizeQuality;shape-rendering:geometricPrecision;text-rendering:geometricPrecision"
       transform="matrix(0.22398595,0,0,0.22398595,-21.754219,-73.844688)">
      <path
         style="opacity:1"
         fill="#704015"
         d="m 314.5,473.5 c 0.333,0.667 0.667,1.333 1,2 0,1 0,2 0,3 -8.703,-5.361 -15.536,-3.694 -20.5,5 -1.347,9.125 1.153,16.792 7.5,23 0.644,2.644 2.311,4.311 5,5 3.287,-2.576 6.12,-5.576 8.5,-9 0.483,-0.948 0.649,-1.948 0.5,-3 1.192,-1.613 2.192,-3.28 3,-5 0,1 0,2 0,3 0,0.333 0,0.667 0,1 -2.147,5.16 -5.147,9.827 -9,14 -2.333,2.667 -4.667,2.667 -7,0 -3.837,-5.005 -7.17,-10.338 -10,-16 -0.844,-3.599 -1.177,-7.266 -1,-11 0.477,-4.293 2.477,-7.627 6,-10 5.108,-1.833 10.442,-2.499 16,-2 z"
         id="path495" />
    </g>
    <g
       id="g516"
       style="clip-rule:evenodd;fill-rule:evenodd;image-rendering:optimizeQuality;shape-rendering:geometricPrecision;text-rendering:geometricPrecision"
       transform="matrix(0.22398595,0,0,0.22398595,-21.754219,-73.844688)">
      <path
         style="opacity:1"
         fill="#cba43a"
         d="m 343.5,455.5 c 0,19.333 0,38.667 0,58 -0.997,-18.826 -1.33,-37.826 -1,-57 -1,0 -2,0 -3,0 0.331,25.839 -0.002,51.505 -1,77 0,-26 0,-52 0,-78 1.667,0 3.333,0 5,0 z"
         id="path516" />
    </g>
    <g
       id="g528"
       style="clip-rule:evenodd;fill-rule:evenodd;image-rendering:optimizeQuality;shape-rendering:geometricPrecision;text-rendering:geometricPrecision"
       transform="matrix(0.22398595,0,0,0.22398595,-21.754219,-73.844688)">
      <path
         style="opacity:1"
         fill="#b18f20"
         d="m 316.5,445.5 c -5.667,0.667 -11.333,1.333 -17,2 -5.389,0.745 -10.722,1.745 -16,3 -2.222,-0.322 -4.056,0.345 -5.5,2 -0.167,28.167 -0.333,56.333 -0.5,84.5 0.008,28.714 0.675,57.214 2,85.5 0.172,0.992 -0.162,1.658 -1,2 -2.448,-0.973 -5.115,-1.306 -8,-1 0,-0.667 0,-1.333 0,-2 1.915,0.284 3.581,-0.049 5,-1 0,-55 0,-110 0,-165 -1.333,0 -2.667,0 -4,0 0,5 0,10 0,15 -0.333,0 -0.667,0 -1,0 0.166,-5.011 -10e-4,-10.011 -0.5,-15 -0.995,-0.566 -1.828,-1.233 -2.5,-2 2.747,0.313 5.414,-0.02 8,-1 0.864,-1.697 2.197,-2.863 4,-3.5 12.095,-3.887 24.428,-5.054 37,-3.5 z"
         id="path528" />
    </g>
    <g
       id="g534"
       style="clip-rule:evenodd;fill-rule:evenodd;image-rendering:optimizeQuality;shape-rendering:geometricPrecision;text-rendering:geometricPrecision"
       transform="matrix(0.22398595,0,0,0.22398595,-21.754219,-73.844688)">
      <path
         style="opacity:1"
         fill="#b48d1f"
         d="m 284.5,480.5 c 0,3 0,6 0,9 2.333,0 4.667,0 7,0 -0.268,-1.599 0.066,-2.932 1,-4 -0.177,3.734 0.156,7.401 1,11 -1.756,-1.052 -2.423,-2.719 -2,-5 -2.333,0 -4.667,0 -7,0 0,6.333 0,12.667 0,19 3.439,0.247 6.772,-0.086 10,-1 0,0.667 0,1.333 0,2 0.896,-1.006 1.562,-1.006 2,0 0,6 0,12 0,18 3.333,0 6.667,0 10,0 -0.166,-4.346 10e-4,-8.679 0.5,-13 0.176,4.188 0.676,8.188 1.5,12 3,0 6,0 9,0 0,-3.333 0,-6.667 0,-10 0,-1.667 0,-3.333 0,-5 0.667,0 1.333,0 2,0 0,5.333 0,10.667 0,16 3.333,0 6.667,0 10,0 0,-6 0,-12 0,-18 -2.333,0 -4.667,0 -7,0 -0.667,-0.667 -1.333,-1.333 -2,-2 3,0 6,0 9,0 0,-6 0,-12 0,-18 -2.45,-0.202 -4.783,0.131 -7,1 0,-1 0,-2 0,-3 2.333,0 4.667,0 7,0 0.667,0 1.333,0 2,0 0,35 0,70 0,105 -0.667,0 -1.333,0 -2,0 0,-21 0,-42 0,-63 -14.667,0 -29.333,0 -44,0 -0.551,3.307 -0.884,6.64 -1,10 -0.667,-4.667 -1.333,-9.333 -2,-14 0,-2.667 0,-5.333 0,-8 0.667,-13 1.333,-26 2,-39 z"
         id="path534" />
    </g>
    <g
       id="g535"
       style="clip-rule:evenodd;fill-rule:evenodd;image-rendering:optimizeQuality;shape-rendering:geometricPrecision;text-rendering:geometricPrecision"
       transform="matrix(0.22398595,0,0,0.22398595,-21.754219,-73.844688)">
      <path
         style="opacity:1"
         fill="#daae3e"
         d="m 322.5,511.5 c 2.333,0 4.667,0 7,0 0,6 0,12 0,18 -3.333,0 -6.667,0 -10,0 0,-5.333 0,-10.667 0,-16 0.321,-1.548 1.321,-2.215 3,-2 z"
         id="path535" />
    </g>
    <g
       id="g536"
       style="clip-rule:evenodd;fill-rule:evenodd;image-rendering:optimizeQuality;shape-rendering:geometricPrecision;text-rendering:geometricPrecision"
       transform="matrix(0.22398595,0,0,0.22398595,-21.754219,-73.844688)">
      <path
         style="opacity:1"
         fill="#deb240"
         d="m 317.5,518.5 c 0,3.333 0,6.667 0,10 -3,0 -6,0 -9,0 -0.165,-3.018 0.002,-6.018 0.5,-9 0.71,-1.473 1.876,-2.14 3.5,-2 0,-1.333 0,-2.667 0,-4 1.333,0 2.667,0 4,0 -0.284,1.915 0.049,3.581 1,5 z"
         id="path536" />
    </g>
    <g
       id="g537"
       style="clip-rule:evenodd;fill-rule:evenodd;image-rendering:optimizeQuality;shape-rendering:geometricPrecision;text-rendering:geometricPrecision"
       transform="matrix(0.22398595,0,0,0.22398595,-21.754219,-73.844688)">
      <path
         style="opacity:1"
         fill="#d8ac3c"
         d="m 294.5,511.5 c 0,6 0,12 0,18 -3.333,0 -6.667,0 -10,0 0,-6 0,-12 0,-18 3.333,0 6.667,0 10,0 z"
         id="path537" />
    </g>
    <g
       id="g538"
       style="clip-rule:evenodd;fill-rule:evenodd;image-rendering:optimizeQuality;shape-rendering:geometricPrecision;text-rendering:geometricPrecision"
       transform="matrix(0.22398595,0,0,0.22398595,-21.754219,-73.844688)">
      <path
         style="opacity:1"
         fill="#cfa43d"
         d="m 296.5,511.5 c 1.915,-0.284 3.581,0.049 5,1 0.667,0 1.333,0 2,0 2.333,2.667 4.667,2.667 7,0 1.467,-0.394 2.967,-0.727 4.5,-1 1.376,0.184 2.209,0.851 2.5,2 0,1.667 0,3.333 0,5 -0.951,-1.419 -1.284,-3.085 -1,-5 -1.333,0 -2.667,0 -4,0 0,1.333 0,2.667 0,4 -1.624,-0.14 -2.79,0.527 -3.5,2 -0.498,2.982 -0.665,5.982 -0.5,9 -0.824,-3.812 -1.324,-7.812 -1.5,-12 -0.499,4.321 -0.666,8.654 -0.5,13 -3.333,0 -6.667,0 -10,0 0,-6 0,-12 0,-18 z"
         id="path538" />
    </g>
    <g
       id="g539"
       style="clip-rule:evenodd;fill-rule:evenodd;image-rendering:optimizeQuality;shape-rendering:geometricPrecision;text-rendering:geometricPrecision"
       transform="matrix(0.22398595,0,0,0.22398595,-21.754219,-73.844688)">
      <path
         style="opacity:1"
         fill="#dfb244"
         d="m 301.5,512.5 c 3.29,4.721 4.624,10.054 4,16 -2.667,0 -5.333,0 -8,0 0,-5.333 0,-10.667 0,-16 1.333,0 2.667,0 4,0 z"
         id="path539" />
    </g>
    <g
       id="g540"
       style="clip-rule:evenodd;fill-rule:evenodd;image-rendering:optimizeQuality;shape-rendering:geometricPrecision;text-rendering:geometricPrecision"
       transform="matrix(0.22398595,0,0,0.22398595,-21.754219,-73.844688)">
      <path
         style="opacity:1"
         fill="#b28931"
         d="m 319.5,498.5 c -0.315,3.871 0.018,7.538 1,11 0.667,0.667 1.333,1.333 2,2 -1.679,-0.215 -2.679,0.452 -3,2 -0.667,0 -1.333,0 -2,0 -0.291,-1.149 -1.124,-1.816 -2.5,-2 -1.533,0.273 -3.033,0.606 -4.5,1 3.853,-4.173 6.853,-8.84 9,-14 z"
         id="path540" />
    </g>
    <g
       id="g541"
       style="clip-rule:evenodd;fill-rule:evenodd;image-rendering:optimizeQuality;shape-rendering:geometricPrecision;text-rendering:geometricPrecision"
       transform="matrix(0.22398595,0,0,0.22398595,-21.754219,-73.844688)">
      <path
         style="opacity:1"
         fill="#b48936"
         d="m 293.5,496.5 c 2.83,5.662 6.163,10.995 10,16 -0.667,0 -1.333,0 -2,0 -1.419,-0.951 -3.085,-1.284 -5,-1 -0.438,-1.006 -1.104,-1.006 -2,0 0,-0.667 0,-1.333 0,-2 0.033,-4.369 -0.3,-8.702 -1,-13 z"
         id="path541" />
    </g>
    <g
       id="g542"
       style="clip-rule:evenodd;fill-rule:evenodd;image-rendering:optimizeQuality;shape-rendering:geometricPrecision;text-rendering:geometricPrecision"
       transform="matrix(0.22398595,0,0,0.22398595,-21.754219,-73.844688)">
      <path
         style="opacity:1"
         fill="#d9ae3f"
         d="m 320.5,509.5 c -0.982,-3.462 -1.315,-7.129 -1,-11 0,-0.333 0,-0.667 0,-1 1.39,-1.399 2.39,-3.066 3,-5 2.217,-0.869 4.55,-1.202 7,-1 0,6 0,12 0,18 -3,0 -6,0 -9,0 z"
         id="path542" />
    </g>
    <g
       id="g543"
       style="clip-rule:evenodd;fill-rule:evenodd;image-rendering:optimizeQuality;shape-rendering:geometricPrecision;text-rendering:geometricPrecision"
       transform="matrix(0.22398595,0,0,0.22398595,-21.754219,-73.844688)">
      <path
         style="opacity:1"
         fill="#8b5048"
         d="m 316.5,499.5 c 0.149,1.052 -0.017,2.052 -0.5,3 -2.38,3.424 -5.213,6.424 -8.5,9 -2.689,-0.689 -4.356,-2.356 -5,-5 0.023,-2.1 -0.644,-3.933 -2,-5.5 0.83,-1.465 0.996,-2.965 0.5,-4.5 -3.381,-1.392 -4.214,-3.725 -2.5,-7 0.978,0.477 1.811,1.143 2.5,2 -0.085,3.348 1.415,5.515 4.5,6.5 -0.951,0.718 -1.117,1.551 -0.5,2.5 1.507,-1.005 2.673,-2.338 3.5,-4 0.978,0.477 1.811,1.143 2.5,2 1.011,-0.837 2.178,-1.17 3.5,-1 -0.157,1.373 0.01,2.707 0.5,4 0.278,-0.916 0.778,-1.582 1.5,-2 z"
         id="path543" />
    </g>
    <g
       id="g544"
       style="clip-rule:evenodd;fill-rule:evenodd;image-rendering:optimizeQuality;shape-rendering:geometricPrecision;text-rendering:geometricPrecision"
       transform="matrix(0.22398595,0,0,0.22398595,-21.754219,-73.844688)">
      <path
         style="opacity:1"
         fill="#d9ae3f"
         d="m 293.5,496.5 c 0.7,4.298 1.033,8.631 1,13 -3.228,0.914 -6.561,1.247 -10,1 0,-6.333 0,-12.667 0,-19 2.333,0 4.667,0 7,0 -0.423,2.281 0.244,3.948 2,5 z"
         id="path544" />
    </g>
    <g
       id="g560"
       style="clip-rule:evenodd;fill-rule:evenodd;image-rendering:optimizeQuality;shape-rendering:geometricPrecision;text-rendering:geometricPrecision"
       transform="matrix(0.22398595,0,0,0.22398595,-21.754219,-73.844688)">
      <path
         style="opacity:1"
         fill="#a9852c"
         d="m 346.5,454.5 c 0,0.333 0,0.667 0,1 -1.666,61.827 -2.666,123.827 -3,186 0,-6 0,-12 0,-18 -0.333,-0.667 -0.667,-1.333 -1,-2 0.998,-35.829 1.332,-71.829 1,-108 0,-19.333 0,-38.667 0,-58 0.709,-0.904 1.709,-1.237 3,-1 z"
         id="path560" />
    </g>
    <g
       id="g565"
       style="clip-rule:evenodd;fill-rule:evenodd;image-rendering:optimizeQuality;shape-rendering:geometricPrecision;text-rendering:geometricPrecision"
       transform="matrix(0.22398595,0,0,0.22398595,-21.754219,-73.844688)">
      <path
         style="opacity:1"
         fill="#ac8719"
         d="m 348.5,447.5 c 0.968,2.107 1.302,4.441 1,7 -1,0 -2,0 -3,0 -1.291,-0.237 -2.291,0.096 -3,1 -1.667,0 -3.333,0 -5,0 0,26 0,52 0,78 0,27.333 0,54.667 0,82 -0.667,-52.667 -1.333,-105.333 -2,-158 0,-1.667 0,-3.333 0,-5 0,-0.667 0.333,-1 1,-1 3.331,1.798 6.998,2.464 11,2 0,-2 0,-4 0,-6 z"
         id="path565" />
    </g>
    <g
       id="g570"
       style="clip-rule:evenodd;fill-rule:evenodd;image-rendering:optimizeQuality;shape-rendering:geometricPrecision;text-rendering:geometricPrecision"
       transform="matrix(0.22398595,0,0,0.22398595,-21.754219,-73.844688)">
      <path
         style="opacity:1"
         fill="#ebc953"
         d="m 282.5,469.5 c 0,16.667 0,33.333 0,50 0,2.667 0,5.333 0,8 0,21 0,42 0,63 -0.67,-31.402 -1.337,-62.902 -2,-94.5 0.654,-8.932 1.321,-17.765 2,-26.5 z"
         id="path570" />
    </g>
    <g
       id="g609"
       style="clip-rule:evenodd;fill-rule:evenodd;image-rendering:optimizeQuality;shape-rendering:geometricPrecision;text-rendering:geometricPrecision"
       transform="matrix(0.22398595,0,0,0.22398595,-21.754219,-73.844688)">
      <path
         style="opacity:1"
         fill="#e9ca57"
         d="m 283.5,450.5 c -2.675,0.978 -4.175,2.978 -4.5,6 -0.167,25.333 -0.333,50.667 -0.5,76 0.005,25.715 0.671,51.215 2,76.5 -1.287,3.125 -1.287,6.291 0,9.5 1.224,-2.328 1.224,-4.661 0,-7 0.631,-6.464 1.297,-12.797 2,-19 0,27.333 0,54.667 0,82 -0.958,-0.453 -1.792,-1.119 -2.5,-2 -0.333,0.333 -0.667,0.667 -1,1 -0.483,-0.948 -0.649,-1.948 -0.5,-3 0.283,-0.789 0.783,-1.456 1.5,-2 0.831,-6.692 0.664,-13.358 -0.5,-20 -2.667,-2 -2.667,-4 0,-6 1.318,-6.822 1.318,-13.489 0,-20 -1.325,-28.286 -1.992,-56.786 -2,-85.5 0.167,-28.167 0.333,-56.333 0.5,-84.5 1.444,-1.655 3.278,-2.322 5.5,-2 z"
         id="path609" />
    </g>
    <g
       id="g614"
       style="clip-rule:evenodd;fill-rule:evenodd;image-rendering:optimizeQuality;shape-rendering:geometricPrecision;text-rendering:geometricPrecision"
       transform="matrix(0.22398595,0,0,0.22398595,-21.754219,-73.844688)">
      <path
         style="opacity:1"
         fill="#c7a13f"
         d="m 270.5,470.5 c 0.333,0 0.667,0 1,0 0,50 0,100 0,150 1.333,0 2.667,0 4,0 -1.419,0.951 -3.085,1.284 -5,1 0,-50.333 0,-100.667 0,-151 z"
         id="path614" />
    </g>
    <g
       id="g630"
       style="clip-rule:evenodd;fill-rule:evenodd;image-rendering:optimizeQuality;shape-rendering:geometricPrecision;text-rendering:geometricPrecision"
       transform="matrix(0.22398595,0,0,0.22398595,-21.754219,-73.844688)">
      <path
         style="opacity:1"
         fill="#dbc892"
         d="m 263.5,456.5 c 1.667,0 3.333,0 5,0 0.332,64.169 -10e-4,128.169 -1,192 0,-63.667 0,-127.333 0,-191 -1,0 -2,0 -3,0 -0.667,0 -1,-0.333 -1,-1 z"
         id="path630" />
    </g>
    <g
       id="g637"
       style="clip-rule:evenodd;fill-rule:evenodd;image-rendering:optimizeQuality;shape-rendering:geometricPrecision;text-rendering:geometricPrecision"
       transform="matrix(0.22398595,0,0,0.22398595,-21.754219,-73.844688)">
      <path
         style="opacity:1"
         fill="#dbb03e"
         d="m 329.5,594.5 c -14.676,-6.594 -29.343,-6.594 -44,0 -1,-17.654 -1.333,-35.321 -1,-53 0.116,-3.36 0.449,-6.693 1,-10 14.667,0 29.333,0 44,0 0,21 0,42 0,63 z"
         id="path637" />
    </g>
    <g
       id="g638"
       style="clip-rule:evenodd;fill-rule:evenodd;image-rendering:optimizeQuality;shape-rendering:geometricPrecision;text-rendering:geometricPrecision"
       transform="matrix(0.22398595,0,0,0.22398595,-21.754219,-73.844688)">
      <path
         style="opacity:1"
         fill="#b2881e"
         d="m 293.5,537.5 c 10.582,-0.32 21.082,0.013 31.5,1 0.667,14.667 0.667,29.333 0,44 -11.931,1.329 -23.765,1.329 -35.5,0 -0.166,-6.675 0,-13.342 0.5,-20 0.497,2.646 0.664,5.313 0.5,8 5.333,0 10.667,0 16,0 0.333,-12 0.667,-12 1,0 5.526,0.321 10.86,-0.012 16,-1 0,-2.667 0,-5.333 0,-8 -0.667,-0.667 -1.333,-1.333 -2,-2 1.265,-1.014 1.931,-2.514 2,-4.5 -0.069,-1.986 -0.735,-3.486 -2,-4.5 0.667,-0.667 1.333,-1.333 2,-2 0,-3 0,-6 0,-9 -1,0 -2,0 -3,0 -4.333,0 -8.667,0 -13,0 -0.333,6.667 -0.667,6.667 -1,0 -4.333,0 -8.667,0 -13,0 -0.667,0 -1.333,0 -2,0 0.667,-0.667 1.333,-1.333 2,-2 z"
         id="path638" />
    </g>
    <g
       id="g639"
       style="clip-rule:evenodd;fill-rule:evenodd;image-rendering:optimizeQuality;shape-rendering:geometricPrecision;text-rendering:geometricPrecision"
       transform="matrix(0.22398595,0,0,0.22398595,-21.754219,-73.844688)">
      <path
         style="opacity:1"
         fill="#dcb03e"
         d="m 307.5,572.5 c 5.333,0 10.667,0 16,0 0,3 0,6 0,9 -5.333,0 -10.667,0 -16,0 0,-3 0,-6 0,-9 z"
         id="path639" />
    </g>
    <g
       id="g640"
       style="clip-rule:evenodd;fill-rule:evenodd;image-rendering:optimizeQuality;shape-rendering:geometricPrecision;text-rendering:geometricPrecision"
       transform="matrix(0.22398595,0,0,0.22398595,-21.754219,-73.844688)">
      <path
         style="opacity:1"
         fill="#d8ac3c"
         d="m 290.5,572.5 c 5.333,0 10.667,0 16,0 0,3 0,6 0,9 -5.333,0 -10.667,0 -16,0 0,-3 0,-6 0,-9 z"
         id="path640" />
    </g>
    <g
       id="g641"
       style="clip-rule:evenodd;fill-rule:evenodd;image-rendering:optimizeQuality;shape-rendering:geometricPrecision;text-rendering:geometricPrecision"
       transform="matrix(0.22398595,0,0,0.22398595,-21.754219,-73.844688)">
      <path
         style="opacity:1"
         fill="#deb13f"
         d="m 323.5,561.5 c 0,2.667 0,5.333 0,8 -5,0 -10,0 -15,0 0,-2.667 0,-5.333 0,-8 5,0 10,0 15,0 z"
         id="path641" />
    </g>
    <g
       id="g642"
       style="clip-rule:evenodd;fill-rule:evenodd;image-rendering:optimizeQuality;shape-rendering:geometricPrecision;text-rendering:geometricPrecision"
       transform="matrix(0.22398595,0,0,0.22398595,-21.754219,-73.844688)">
      <path
         style="opacity:1"
         fill="#deb545"
         d="m 321.5,550.5 c 1.265,1.014 1.931,2.514 2,4.5 -0.069,1.986 -0.735,3.486 -2,4.5 -4.333,0 -8.667,0 -13,0 0,-3 0,-6 0,-9 4.333,0 8.667,0 13,0 z"
         id="path642" />
    </g>
    <g
       id="g643"
       style="clip-rule:evenodd;fill-rule:evenodd;image-rendering:optimizeQuality;shape-rendering:geometricPrecision;text-rendering:geometricPrecision"
       transform="matrix(0.22398595,0,0,0.22398595,-21.754219,-73.844688)">
      <path
         style="opacity:1"
         fill="#c09628"
         d="m 293.5,537.5 c -0.667,0.667 -1.333,1.333 -2,2 -0.977,2.787 -1.31,5.787 -1,9 5,0 10,0 15,0 0,-2.667 0,-5.333 0,-8 -4.202,0.317 -8.202,-0.017 -12,-1 4.333,0 8.667,0 13,0 0.333,6.667 0.667,6.667 1,0 4.333,0 8.667,0 13,0 -3.798,0.983 -7.798,1.317 -12,1 0,2.667 0,5.333 0,8 5,0 10,0 15,0 -0.667,0.667 -1.333,1.333 -2,2 -4.333,0 -8.667,0 -13,0 0,3 0,6 0,9 4.333,0 8.667,0 13,0 0.667,0.667 1.333,1.333 2,2 -5,0 -10,0 -15,0 0,2.667 0,5.333 0,8 5,0 10,0 15,0 -5.14,0.988 -10.474,1.321 -16,1 -0.333,-12 -0.667,-12 -1,0 -5.333,0 -10.667,0 -16,0 0.164,-2.687 -0.003,-5.354 -0.5,-8 -0.5,6.658 -0.666,13.325 -0.5,20 -0.996,-14.824 -1.329,-29.824 -1,-45 1.667,0 3.333,0 5,0 z"
         id="path643" />
    </g>
    <g
       id="g644"
       style="clip-rule:evenodd;fill-rule:evenodd;image-rendering:optimizeQuality;shape-rendering:geometricPrecision;text-rendering:geometricPrecision"
       transform="matrix(0.22398595,0,0,0.22398595,-21.754219,-73.844688)">
      <path
         style="opacity:1"
         fill="#dcb03f"
         d="m 291.5,561.5 c 4.667,0 9.333,0 14,0 0,2.667 0,5.333 0,8 -4.667,0 -9.333,0 -14,0 0,-2.667 0,-5.333 0,-8 z"
         id="path644" />
    </g>
    <g
       id="g645"
       style="clip-rule:evenodd;fill-rule:evenodd;image-rendering:optimizeQuality;shape-rendering:geometricPrecision;text-rendering:geometricPrecision"
       transform="matrix(0.22398595,0,0,0.22398595,-21.754219,-73.844688)">
      <path
         style="opacity:1"
         fill="#deb543"
         d="m 290.5,550.5 c 5,0 10,0 15,0 0,3 0,6 0,9 -5,0 -10,0 -15,0 0,-3 0,-6 0,-9 z"
         id="path645" />
    </g>
    <g
       id="g646"
       style="clip-rule:evenodd;fill-rule:evenodd;image-rendering:optimizeQuality;shape-rendering:geometricPrecision;text-rendering:geometricPrecision"
       transform="matrix(0.22398595,0,0,0.22398595,-21.754219,-73.844688)">
      <path
         style="opacity:1"
         fill="#dcb140"
         d="m 291.5,539.5 c 0.667,0 1.333,0 2,0 3.798,0.983 7.798,1.317 12,1 0,2.667 0,5.333 0,8 -5,0 -10,0 -15,0 -0.31,-3.213 0.023,-6.213 1,-9 z"
         id="path646" />
    </g>
    <g
       id="g647"
       style="clip-rule:evenodd;fill-rule:evenodd;image-rendering:optimizeQuality;shape-rendering:geometricPrecision;text-rendering:geometricPrecision"
       transform="matrix(0.22398595,0,0,0.22398595,-21.754219,-73.844688)">
      <path
         style="opacity:1"
         fill="#dcb241"
         d="m 320.5,539.5 c 1,0 2,0 3,0 0,3 0,6 0,9 -5,0 -10,0 -15,0 0,-2.667 0,-5.333 0,-8 4.202,0.317 8.202,-0.017 12,-1 z"
         id="path647" />
    </g>
    <g
       id="g648"
       style="clip-rule:evenodd;fill-rule:evenodd;image-rendering:optimizeQuality;shape-rendering:geometricPrecision;text-rendering:geometricPrecision"
       transform="matrix(0.22398595,0,0,0.22398595,-21.754219,-73.844688)">
      <path
         style="opacity:1"
         fill="#f6e9c3"
         d="m 346.5,455.5 c 1.667,0 3.333,0 5,0 -1.031,0.749 -2.198,1.415 -3.5,2 -0.167,83.168 -0.667,166.168 -1.5,249 0,-83.667 0,-167.333 0,-251 z"
         id="path648" />
    </g>
    <g
       id="g651"
       style="clip-rule:evenodd;fill-rule:evenodd;image-rendering:optimizeQuality;shape-rendering:geometricPrecision;text-rendering:geometricPrecision"
       transform="matrix(0.22398595,0,0,0.22398595,-21.754219,-73.844688)">
      <path
         style="opacity:1"
         fill="#d6ad40"
         d="m 343.5,513.5 c 0.332,36.171 -0.002,72.171 -1,108 -1.333,0 -2.667,0 -4,0 0,-2 0,-4 0,-6 0,-27.333 0,-54.667 0,-82 0.998,-25.495 1.331,-51.161 1,-77 1,0 2,0 3,0 -0.33,19.174 0.003,38.174 1,57 z"
         id="path651" />
    </g>
    <g
       id="g659"
       style="clip-rule:evenodd;fill-rule:evenodd;image-rendering:optimizeQuality;shape-rendering:geometricPrecision;text-rendering:geometricPrecision"
       transform="matrix(0.22398595,0,0,0.22398595,-21.754219,-73.844688)">
      <path
         style="opacity:1"
         fill="#a68b42"
         d="m 268.5,444.5 c -1.031,0.749 -2.198,1.415 -3.5,2 -0.796,2.539 -0.629,4.872 0.5,7 0.667,0 1.333,0 2,0 0.672,0.767 1.505,1.434 2.5,2 0.499,4.989 0.666,9.989 0.5,15 0,50.333 0,100.667 0,151 0,0.667 0,1.333 0,2 0,6 0,12 0,18 0,2.667 0,5.333 0,8 -0.99,6.145 -1.323,12.478 -1,19 -0.167,13.004 0,26.004 0.5,39 0.383,0.556 0.883,0.889 1.5,1 1.237,1.465 2.237,3.132 3,5 0.847,1.466 2.18,2.3 4,2.5 19.664,0.5 39.331,0.667 59,0.5 -0.763,0.768 -1.763,1.268 -3,1.5 -18.333,0.667 -36.667,0.667 -55,0 -3.657,-0.837 -6.657,-2.67 -9,-5.5 -0.209,-1.422 -0.709,-2.755 -1.5,-4 -0.184,-13.741 -0.684,-27.408 -1.5,-41 0,-6.333 0,-12.667 0,-19 0.999,-63.831 1.332,-127.831 1,-192 -1.667,0 -3.333,0 -5,0 -0.667,0 -1,-0.333 -1,-1 -0.165,-3.018 0.002,-6.018 0.5,-9 1.444,-1.655 3.278,-2.322 5.5,-2 z"
         id="path659" />
    </g>
    <g
       id="g660"
       style="clip-rule:evenodd;fill-rule:evenodd;image-rendering:optimizeQuality;shape-rendering:geometricPrecision;text-rendering:geometricPrecision"
       transform="matrix(0.22398595,0,0,0.22398595,-21.754219,-73.844688)">
      <path
         style="opacity:1"
         fill="#ac8f49"
         d="m 346.5,455.5 c 0,83.667 0,167.333 0,251 0,0.333 0,0.667 0,1 -1.895,4.14 -4.895,7.14 -9,9 -19.669,0.167 -39.336,0 -59,-0.5 -1.82,-0.2 -3.153,-1.034 -4,-2.5 0.667,0 1.333,0 2,0 0.763,0.768 1.763,1.268 3,1.5 18.667,0.667 37.333,0.667 56,0 1.442,-0.377 2.442,-1.21 3,-2.5 0.667,0 1.333,0 2,0 1.673,-0.843 2.84,-2.176 3.5,-4 0.829,-19.838 0.662,-39.504 -0.5,-59 0,-0.333 0,-0.667 0,-1 0,-2.333 0,-4.667 0,-7 0.334,-62.173 1.334,-124.173 3,-186 z"
         id="path660" />
    </g>
    <g
       id="g671"
       style="clip-rule:evenodd;fill-rule:evenodd;image-rendering:optimizeQuality;shape-rendering:geometricPrecision;text-rendering:geometricPrecision"
       transform="matrix(0.22398595,0,0,0.22398595,-21.754219,-73.844688)">
      <path
         style="opacity:1"
         fill="#dfb745"
         d="m 275.5,620.5 c -1.333,0 -2.667,0 -4,0 0,-50 0,-100 0,-150 0,-5 0,-10 0,-15 1.333,0 2.667,0 4,0 0,55 0,110 0,165 z"
         id="path671" />
    </g>
    <g
       id="g675"
       style="clip-rule:evenodd;fill-rule:evenodd;image-rendering:optimizeQuality;shape-rendering:geometricPrecision;text-rendering:geometricPrecision"
       transform="matrix(0.22398595,0,0,0.22398595,-21.754219,-73.844688)">
      <path
         style="opacity:1"
         fill="#b69423"
         d="m 282.5,527.5 c 0.667,4.667 1.333,9.333 2,14 -0.333,17.679 0,35.346 1,53 14.657,-6.594 29.324,-6.594 44,0 0.667,0 1.333,0 2,0 0,26.333 0,52.667 0,79 -0.859,2.952 -2.859,4.785 -6,5.5 -12.333,0.667 -24.667,0.667 -37,0 -2.729,-0.566 -4.729,-2.066 -6,-4.5 0,-27.333 0,-54.667 0,-82 0,-0.667 0,-1.333 0,-2 0,-21 0,-42 0,-63 z"
         id="path675" />
    </g>
    <g
       id="g700"
       style="clip-rule:evenodd;fill-rule:evenodd;image-rendering:optimizeQuality;shape-rendering:geometricPrecision;text-rendering:geometricPrecision"
       transform="matrix(0.22398595,0,0,0.22398595,-21.754219,-73.844688)">
      <path
         style="opacity:1"
         fill="#f0d25c"
         d="m 300.5,591.5 c 10.212,-0.941 19.712,1.059 28.5,6 0.667,25.667 0.667,51.333 0,77 -1.648,1.217 -3.481,2.05 -5.5,2.5 -11.333,0.667 -22.667,0.667 -34,0 -1.829,-0.273 -3.329,-1.107 -4.5,-2.5 -0.667,-25.667 -0.667,-51.333 0,-77 4.83,-3.106 9.996,-5.106 15.5,-6 z"
         id="path700" />
    </g>
    <g
       id="g701"
       style="clip-rule:evenodd;fill-rule:evenodd;image-rendering:optimizeQuality;shape-rendering:geometricPrecision;text-rendering:geometricPrecision"
       transform="matrix(0.22398595,0,0,0.22398595,-21.754219,-73.844688)">
      <path
         style="opacity:1"
         fill="#e0b641"
         d="m 298.5,603.5 c 7.977,-0.405 15.81,0.262 23.5,2 0.829,21.504 0.663,42.837 -0.5,64 -10.053,0.308 -20.053,-0.025 -30,-1 -1.333,-21 -1.333,-42 0,-63 2.118,-1.446 4.451,-2.113 7,-2 z"
         id="path701" />
    </g>
    <g
       id="g703"
       style="clip-rule:evenodd;fill-rule:evenodd;image-rendering:optimizeQuality;shape-rendering:geometricPrecision;text-rendering:geometricPrecision"
       transform="matrix(0.22398595,0,0,0.22398595,-21.754219,-73.844688)">
      <path
         style="opacity:1"
         fill="#b69323"
         d="m 299.5,601.5 c 8.409,-1.889 16.575,-0.889 24.5,3 0.667,21.667 0.667,43.333 0,65 -0.5,0.5 -1,1 -1.5,1.5 -10.508,0.825 -20.842,0.659 -31,-0.5 10.181,0.327 20.181,-0.006 30,-1 1.163,-21.163 1.329,-42.496 0.5,-64 -7.69,-1.738 -15.523,-2.405 -23.5,-2 4.816,-0.826 9.816,-1.326 15,-1.5 -4.655,-0.499 -9.321,-0.666 -14,-0.5 z"
         id="path703" />
    </g>
    <g
       id="g717"
       style="clip-rule:evenodd;fill-rule:evenodd;image-rendering:optimizeQuality;shape-rendering:geometricPrecision;text-rendering:geometricPrecision"
       transform="matrix(0.22398595,0,0,0.22398595,-21.754219,-73.844688)">
      <path
         style="opacity:1"
         fill="#f8f5cf"
         d="m 264.5,457.5 c 1,0 2,0 3,0 0,63.667 0,127.333 0,191 0,6.333 0,12.667 0,19 -0.99,-5.81 -1.323,-11.81 -1,-18 0.657,-64.215 -0.009,-128.215 -2,-192 z"
         id="path717" />
    </g>
    <g
       id="g733"
       style="clip-rule:evenodd;fill-rule:evenodd;image-rendering:optimizeQuality;shape-rendering:geometricPrecision;text-rendering:geometricPrecision"
       transform="matrix(0.22398595,0,0,0.22398595,-21.754219,-73.844688)">
      <path
         style="opacity:1"
         fill="#dfb546"
         d="m 270.5,623.5 c 2.885,-0.306 5.552,0.027 8,1 0.166,5.344 -10e-4,10.677 -0.5,16 -2.381,0.935 -4.881,1.268 -7.5,1 0,-6 0,-12 0,-18 z"
         id="path733" />
    </g>
    <g
       id="g734"
       style="clip-rule:evenodd;fill-rule:evenodd;image-rendering:optimizeQuality;shape-rendering:geometricPrecision;text-rendering:geometricPrecision"
       transform="matrix(0.22398595,0,0,0.22398595,-21.754219,-73.844688)">
      <path
         style="opacity:1"
         fill="#bb9327"
         d="m 316.5,644.5 c 1.145,-3.811 1.312,-7.811 0.5,-12 -0.335,-2.003 -1.168,-3.67 -2.5,-5 0.639,-0.597 0.972,-1.43 1,-2.5 -0.593,-3.151 -1.093,-6.318 -1.5,-9.5 -1.135,-3.359 -3.468,-4.692 -7,-4 -6.611,-0.3 -9.444,2.866 -8.5,9.5 0.006,2.033 0.339,3.866 1,5.5 -1.664,1.243 -2.831,2.91 -3.5,5 -0.499,4.321 -0.666,8.654 -0.5,13 -1.178,-10.642 -0.345,-21.308 2.5,-32 5.667,-5.333 11.333,-5.333 17,0 2.97,10.841 3.804,21.841 2.5,33 -0.607,-0.124 -0.94,-0.457 -1,-1 z"
         id="path734" />
    </g>
    <g
       id="g735"
       style="clip-rule:evenodd;fill-rule:evenodd;image-rendering:optimizeQuality;shape-rendering:geometricPrecision;text-rendering:geometricPrecision"
       transform="matrix(0.22398595,0,0,0.22398595,-21.754219,-73.844688)">
      <path
         style="opacity:1"
         fill="#eed25f"
         d="m 314.5,627.5 c -4.823,-3.5 -9.823,-3.834 -15,-1 -0.661,-1.634 -0.994,-3.467 -1,-5.5 -0.944,-6.634 1.889,-9.8 8.5,-9.5 3.532,-0.692 5.865,0.641 7,4 0.407,3.182 0.907,6.349 1.5,9.5 -0.028,1.07 -0.361,1.903 -1,2.5 z"
         id="path735" />
    </g>
    <g
       id="g746"
       style="clip-rule:evenodd;fill-rule:evenodd;image-rendering:optimizeQuality;shape-rendering:geometricPrecision;text-rendering:geometricPrecision"
       transform="matrix(0.22398595,0,0,0.22398595,-21.754219,-73.844688)">
      <path
         style="opacity:1"
         fill="#ab8718"
         d="m 299.5,601.5 c 4.679,-0.166 9.345,10e-4 14,0.5 -5.184,0.174 -10.184,0.674 -15,1.5 -2.549,-0.113 -4.882,0.554 -7,2 -1.333,21 -1.333,42 0,63 9.947,0.975 19.947,1.308 30,1 -9.819,0.994 -19.819,1.327 -30,1 -0.617,-0.111 -1.117,-0.444 -1.5,-1 -0.833,-22.008 -0.666,-44.008 0.5,-66 2.833,-1.433 5.833,-2.1 9,-2 z"
         id="path746" />
    </g>
    <g
       id="g749"
       style="clip-rule:evenodd;fill-rule:evenodd;image-rendering:optimizeQuality;shape-rendering:geometricPrecision;text-rendering:geometricPrecision"
       transform="matrix(0.22398595,0,0,0.22398595,-21.754219,-73.844688)">
      <path
         style="opacity:1"
         fill="#deb344"
         d="m 343.5,623.5 c 0,6 0,12 0,18 -2.619,0.268 -5.119,-0.065 -7.5,-1 -0.499,-5.657 -0.666,-11.324 -0.5,-17 2.667,0 5.333,0 8,0 z"
         id="path749" />
    </g>
    <g
       id="g760"
       style="clip-rule:evenodd;fill-rule:evenodd;image-rendering:optimizeQuality;shape-rendering:geometricPrecision;text-rendering:geometricPrecision"
       transform="matrix(0.22398595,0,0,0.22398595,-21.754219,-73.844688)">
      <path
         style="opacity:1"
         fill="#d9ae3f"
         d="m 343.5,648.5 c 0,0.333 0,0.667 0,1 0,6 0,12 0,18 -7.446,1.224 -10.112,-1.942 -8,-9.5 -2.112,-7.558 0.554,-10.724 8,-9.5 z"
         id="path760" />
    </g>
    <g
       id="g775"
       style="clip-rule:evenodd;fill-rule:evenodd;image-rendering:optimizeQuality;shape-rendering:geometricPrecision;text-rendering:geometricPrecision"
       transform="matrix(0.22398595,0,0,0.22398595,-21.754219,-73.844688)">
      <path
         style="opacity:1"
         fill="#b89424"
         d="m 336.5,457.5 c 0.667,52.667 1.333,105.333 2,158 0,2 0,4 0,6 1.333,0 2.667,0 4,0 0.333,0.667 0.667,1.333 1,2 -2.667,0 -5.333,0 -8,0 -0.166,5.676 10e-4,11.343 0.5,17 2.381,0.935 4.881,1.268 7.5,1 0,2.333 0,4.667 0,7 -7.446,-1.224 -10.112,1.942 -8,9.5 -2.112,7.558 0.554,10.724 8,9.5 -0.418,0.722 -1.084,1.222 -2,1.5 0.556,0.383 0.889,0.883 1,1.5 -1.333,0 -2.667,0 -4,0 0.166,4.679 -10e-4,9.345 -0.5,14 -1.943,3.378 -4.776,5.378 -8.5,6 -15.356,1.479 -30.689,1.313 -46,-0.5 -2.639,-0.653 -4.973,-1.82 -7,-3.5 -0.842,-5.287 -1.176,-10.62 -1,-16 -1.333,0 -2.667,0 -4,0 0,7.667 0,15.333 0,23 -0.667,-8.333 -1.333,-16.667 -2,-25 -0.323,-6.522 0.01,-12.855 1,-19 0,-2.667 0,-5.333 0,-8 2.619,0.268 5.119,-0.065 7.5,-1 0.499,-5.323 0.666,-10.656 0.5,-16 0.838,-0.342 1.172,-1.008 1,-2 1.318,6.511 1.318,13.178 0,20 -2.667,2 -2.667,4 0,6 1.164,6.642 1.331,13.308 0.5,20 -0.717,0.544 -1.217,1.211 -1.5,2 -1.147,4.146 -1.314,8.48 -0.5,13 1.214,1.549 2.714,2.715 4.5,3.5 14.954,1.582 29.954,1.915 45,1 3.818,0.177 6.651,-1.323 8.5,-4.5 0.667,-4.667 0.667,-9.333 0,-14 -0.708,-0.881 -1.542,-1.547 -2.5,-2 -0.166,-6.342 0,-12.675 0.5,-19 3.2,-2.247 3.2,-4.58 0,-7 -0.667,-6.333 -0.667,-12.667 0,-19 0.414,-0.457 0.914,-0.791 1.5,-1 1,-54.663 1.333,-109.329 1,-164 z"
         id="path775" />
    </g>
    <g
       id="g776"
       style="clip-rule:evenodd;fill-rule:evenodd;image-rendering:optimizeQuality;shape-rendering:geometricPrecision;text-rendering:geometricPrecision"
       transform="matrix(0.22398595,0,0,0.22398595,-21.754219,-73.844688)">
      <path
         style="opacity:1"
         fill="#af8924"
         d="m 314.5,627.5 c 1.332,1.33 2.165,2.997 2.5,5 0.812,4.189 0.645,8.189 -0.5,12 -0.617,-0.111 -1.117,-0.444 -1.5,-1 -6.243,5.652 -12.076,5.319 -17.5,-1 -0.682,0.743 -1.349,1.409 -2,2 -0.166,-4.346 10e-4,-8.679 0.5,-13 0.669,-2.09 1.836,-3.757 3.5,-5 5.177,-2.834 10.177,-2.5 15,1 z"
         id="path776" />
    </g>
    <g
       id="g777"
       style="clip-rule:evenodd;fill-rule:evenodd;image-rendering:optimizeQuality;shape-rendering:geometricPrecision;text-rendering:geometricPrecision"
       transform="matrix(0.22398595,0,0,0.22398595,-21.754219,-73.844688)">
      <path
         style="opacity:1"
         fill="#c09a36"
         d="m 303.5,626.5 c 2.489,-0.202 4.823,0.298 7,1.5 -8.261,-0.99 -11.761,2.51 -10.5,10.5 0.833,0.833 1.667,1.667 2.5,2.5 3.502,0.282 6.835,0.449 10,0.5 -4.251,4.901 -8.418,4.901 -12.5,0 -3.982,-6.265 -2.815,-11.265 3.5,-15 z"
         id="path777" />
    </g>
    <g
       id="g778"
       style="clip-rule:evenodd;fill-rule:evenodd;image-rendering:optimizeQuality;shape-rendering:geometricPrecision;text-rendering:geometricPrecision"
       transform="matrix(0.22398595,0,0,0.22398595,-21.754219,-73.844688)">
      <path
         style="opacity:1"
         fill="#d0a63a"
         d="m 304.5,630.5 c 6.994,-0.085 8.661,2.748 5,8.5 -4.568,1.65 -7.234,0.15 -8,-4.5 0.287,-1.943 1.287,-3.277 3,-4 z"
         id="path778" />
    </g>
    <g
       id="g780"
       style="clip-rule:evenodd;fill-rule:evenodd;image-rendering:optimizeQuality;shape-rendering:geometricPrecision;text-rendering:geometricPrecision"
       transform="matrix(0.22398595,0,0,0.22398595,-21.754219,-73.844688)">
      <path
         style="opacity:1"
         fill="#dfb444"
         d="m 270.5,649.5 c 2.333,0 4.667,0 7,0 0,6.333 0,12.667 0,19 -2.306,-0.493 -4.639,-0.826 -7,-1 0,-6 0,-12 0,-18 z"
         id="path780" />
    </g>
    <g
       id="g788"
       style="clip-rule:evenodd;fill-rule:evenodd;image-rendering:optimizeQuality;shape-rendering:geometricPrecision;text-rendering:geometricPrecision"
       transform="matrix(0.22398595,0,0,0.22398595,-21.754219,-73.844688)">
      <path
         style="opacity:1"
         fill="#f3edcd"
         d="m 265.5,649.5 c 0.333,0 0.667,0 1,0 -0.323,6.19 0.01,12.19 1,18 0.816,13.592 1.316,27.259 1.5,41 0.791,1.245 1.291,2.578 1.5,4 -2.688,-0.524 -4.188,-2.191 -4.5,-5 -0.325,-15.673 -0.825,-31.34 -1.5,-47 0.076,-3.717 0.409,-7.383 1,-11 z"
         id="path788" />
    </g>
    <g
       id="g799"
       style="clip-rule:evenodd;fill-rule:evenodd;image-rendering:optimizeQuality;shape-rendering:geometricPrecision;text-rendering:geometricPrecision"
       transform="matrix(0.22398595,0,0,0.22398595,-21.754219,-73.844688)">
      <path
         style="opacity:1"
         fill="#f2cf51"
         d="m 276.5,686.5 c -1.632,0.325 -2.632,1.325 -3,3 0.93,1.605 0.93,3.105 0,4.5 2,0.667 3.333,2 4,4 3.814,0.234 7.481,1.068 11,2.5 1.467,-0.223 2.967,-0.556 4.5,-1 0.995,0.566 1.828,1.233 2.5,2 -6.065,0.239 -12.065,-0.261 -18,-1.5 -2.523,-1.36 -4.523,-3.193 -6,-5.5 0,-0.333 0,-0.667 0,-1 0,-7.667 0,-15.333 0,-23 1.333,0 2.667,0 4,0 -0.176,5.38 0.158,10.713 1,16 z"
         id="path799" />
    </g>
    <g
       id="g803"
       style="clip-rule:evenodd;fill-rule:evenodd;image-rendering:optimizeQuality;shape-rendering:geometricPrecision;text-rendering:geometricPrecision"
       transform="matrix(0.22398595,0,0,0.22398595,-21.754219,-73.844688)">
      <path
         style="opacity:1"
         fill="#9f8229"
         d="m 269.5,668.5 c 0.667,8.333 1.333,16.667 2,25 0,0.333 0,0.667 0,1 0,1 0,2 0,3 -1.215,3.533 -1.215,7.199 0,11 -0.617,-0.111 -1.117,-0.444 -1.5,-1 -0.5,-12.996 -0.667,-25.996 -0.5,-39 z"
         id="path803" />
    </g>
    <g
       id="g808"
       style="clip-rule:evenodd;fill-rule:evenodd;image-rendering:optimizeQuality;shape-rendering:geometricPrecision;text-rendering:geometricPrecision"
       transform="matrix(0.22398595,0,0,0.22398595,-21.754219,-73.844688)">
      <path
         style="opacity:1"
         fill="#f1cf4f"
         d="m 333.5,667.5 c 0.958,0.453 1.792,1.119 2.5,2 0.667,4.667 0.667,9.333 0,14 -1.849,3.177 -4.682,4.677 -8.5,4.5 -15.046,0.915 -30.046,0.582 -45,-1 -1.786,-0.785 -3.286,-1.951 -4.5,-3.5 -0.814,-4.52 -0.647,-8.854 0.5,-13 -0.149,1.052 0.017,2.052 0.5,3 0.333,-0.333 0.667,-0.667 1,-1 0.708,0.881 1.542,1.547 2.5,2 1.271,2.434 3.271,3.934 6,4.5 12.333,0.667 24.667,0.667 37,0 3.141,-0.715 5.141,-2.548 6,-5.5 0.667,-2 1.333,-4 2,-6 z"
         id="path808" />
    </g>
    <g
       id="g809"
       style="clip-rule:evenodd;fill-rule:evenodd;image-rendering:optimizeQuality;shape-rendering:geometricPrecision;text-rendering:geometricPrecision"
       transform="matrix(0.22398595,0,0,0.22398595,-21.754219,-73.844688)">
      <path
         style="opacity:1"
         fill="#b49233"
         d="m 343.5,649.5 c 1.162,19.496 1.329,39.162 0.5,59 -0.66,1.824 -1.827,3.157 -3.5,4 2.128,-4.261 2.461,-8.595 1,-13 1.581,-1.642 2.247,-3.642 2,-6 0.325,-7.852 -0.008,-15.518 -1,-23 -0.111,-0.617 -0.444,-1.117 -1,-1.5 0.916,-0.278 1.582,-0.778 2,-1.5 0,-6 0,-12 0,-18 z"
         id="path809" />
    </g>
    <g
       id="g825"
       style="clip-rule:evenodd;fill-rule:evenodd;image-rendering:optimizeQuality;shape-rendering:geometricPrecision;text-rendering:geometricPrecision"
       transform="matrix(0.22398595,0,0,0.22398595,-21.754219,-73.844688)">
      <path
         style="opacity:1"
         fill="#f4d043"
         d="m 276.5,686.5 c 2.027,1.68 4.361,2.847 7,3.5 15.311,1.813 30.644,1.979 46,0.5 2.772,0.28 5.272,-0.387 7.5,-2 0.84,2.964 1.84,3.297 3,1 0.832,4.494 -1.002,7.328 -5.5,8.5 -1.535,0.496 -3.035,0.33 -4.5,-0.5 -1,0.667 -2,1.333 -3,2 -5.03,-0.972 -10.03,-0.638 -15,1 -0.333,-1 -0.667,-2 -1,-3 -3.886,3.028 -8.719,4.361 -14.5,4 -0.333,0 -0.667,0 -1,0 -0.672,-0.767 -1.505,-1.434 -2.5,-2 -1.533,0.444 -3.033,0.777 -4.5,1 -3.519,-1.432 -7.186,-2.266 -11,-2.5 -0.667,-2 -2,-3.333 -4,-4 0.93,-1.395 0.93,-2.895 0,-4.5 0.368,-1.675 1.368,-2.675 3,-3 z"
         id="path825" />
    </g>
    <g
       id="g828"
       style="clip-rule:evenodd;fill-rule:evenodd;image-rendering:optimizeQuality;shape-rendering:geometricPrecision;text-rendering:geometricPrecision"
       transform="matrix(0.22398595,0,0,0.22398595,-21.754219,-73.844688)">
      <path
         style="opacity:1"
         fill="#f0cc4c"
         d="m 342.5,670.5 c 0.992,7.482 1.325,15.148 1,23 -1.809,2.639 -4.142,4.806 -7,6.5 -13.429,2.346 -26.762,2.846 -40,1.5 5.781,0.361 10.614,-0.972 14.5,-4 0.333,1 0.667,2 1,3 4.97,-1.638 9.97,-1.972 15,-1 1,-0.667 2,-1.333 3,-2 1.465,0.83 2.965,0.996 4.5,0.5 4.498,-1.172 6.332,-4.006 5.5,-8.5 -1.16,2.297 -2.16,1.964 -3,-1 -2.228,1.613 -4.728,2.28 -7.5,2 3.724,-0.622 6.557,-2.622 8.5,-6 0.499,-4.655 0.666,-9.321 0.5,-14 1.333,0 2.667,0 4,0 z"
         id="path828" />
    </g>
    <g
       id="g835"
       style="clip-rule:evenodd;fill-rule:evenodd;image-rendering:optimizeQuality;shape-rendering:geometricPrecision;text-rendering:geometricPrecision"
       transform="matrix(0.22398595,0,0,0.22398595,-21.754219,-73.844688)">
      <path
         style="opacity:1"
         fill="#b28b17"
         d="m 343.5,693.5 c 0.247,2.358 -0.419,4.358 -2,6 -2.307,1.153 -4.64,2.32 -7,3.5 -18.004,1.936 -36.004,1.936 -54,0 -3.992,-0.324 -6.992,-2.157 -9,-5.5 0,-1 0,-2 0,-3 1.477,2.307 3.477,4.14 6,5.5 5.935,1.239 11.935,1.739 18,1.5 0.333,0 0.667,0 1,0 13.238,1.346 26.571,0.846 40,-1.5 2.858,-1.694 5.191,-3.861 7,-6.5 z"
         id="path835" />
    </g>
    <g
       id="g838"
       style="clip-rule:evenodd;fill-rule:evenodd;image-rendering:optimizeQuality;shape-rendering:geometricPrecision;text-rendering:geometricPrecision"
       transform="matrix(0.22398595,0,0,0.22398595,-21.754219,-73.844688)">
      <path
         style="opacity:1"
         fill="#dcb13d"
         d="m 271.5,697.5 c 2.008,3.343 5.008,5.176 9,5.5 17.996,1.936 35.996,1.936 54,0 2.36,-1.18 4.693,-2.347 7,-3.5 1.461,4.405 1.128,8.739 -1,13 -0.667,0 -1.333,0 -2,0 -1.422,0.209 -2.755,0.709 -4,1.5 -19.574,0.735 -38.907,0.568 -58,-0.5 -0.667,0 -1.333,0 -2,0 -0.763,-1.868 -1.763,-3.535 -3,-5 -1.215,-3.801 -1.215,-7.467 0,-11 z"
         id="path838" />
    </g>
    <g
       id="g852"
       style="clip-rule:evenodd;fill-rule:evenodd;image-rendering:optimizeQuality;shape-rendering:geometricPrecision;text-rendering:geometricPrecision"
       transform="matrix(0.22398595,0,0,0.22398595,-21.754219,-73.844688)">
      <path
         style="opacity:1"
         fill="#f8f5da"
         d="m 346.5,707.5 c 0.052,2.403 -0.281,4.736 -1,7 -2.812,1.576 -5.478,3.41 -8,5.5 -18.24,0.174 -36.407,0.674 -54.5,1.5 -4.002,-0.985 -7.836,-2.485 -11.5,-4.5 -0.88,-1.356 -1.214,-2.856 -1,-4.5 2.343,2.83 5.343,4.663 9,5.5 18.333,0.667 36.667,0.667 55,0 1.237,-0.232 2.237,-0.732 3,-1.5 4.105,-1.86 7.105,-4.86 9,-9 z"
         id="path852" />
    </g>
    <g
       id="g853"
       style="clip-rule:evenodd;fill-rule:evenodd;image-rendering:optimizeQuality;shape-rendering:geometricPrecision;text-rendering:geometricPrecision"
       transform="matrix(0.22398595,0,0,0.22398595,-21.754219,-73.844688)">
      <path
         style="opacity:1"
         fill="#ccaa46"
         d="m 338.5,712.5 c -0.558,1.29 -1.558,2.123 -3,2.5 -18.667,0.667 -37.333,0.667 -56,0 -1.237,-0.232 -2.237,-0.732 -3,-1.5 19.093,1.068 38.426,1.235 58,0.5 1.245,-0.791 2.578,-1.291 4,-1.5 z"
         id="path853" />
    </g>
  </g>
</svg>
