<?xml version="1.0" encoding="UTF-8" standalone="no"?>
<!-- Created with Inkscape (http://www.inkscape.org/) -->

<svg
   width="96mm"
   height="96mm"
   viewBox="0 0 96 96"
   version="1.1"
   id="svg1"
   inkscape:version="1.4.2 (ebf0e940, 2025-05-08)"
   sodipodi:docname="taxi.svg"
   xmlns:inkscape="http://www.inkscape.org/namespaces/inkscape"
   xmlns:sodipodi="http://sodipodi.sourceforge.net/DTD/sodipodi-0.dtd"
   xmlns="http://www.w3.org/2000/svg"
   xmlns:svg="http://www.w3.org/2000/svg">
  <sodipodi:namedview
     id="namedview1"
     pagecolor="#ffffff"
     bordercolor="#000000"
     borderopacity="0.25"
     inkscape:showpageshadow="2"
     inkscape:pageopacity="0.0"
     inkscape:pagecheckerboard="0"
     inkscape:deskcolor="#d1d1d1"
     inkscape:document-units="mm"
     inkscape:zoom="0.80444024"
     inkscape:cx="397.17059"
     inkscape:cy="362.36377"
     inkscape:window-width="1920"
     inkscape:window-height="1052"
     inkscape:window-x="0"
     inkscape:window-y="28"
     inkscape:window-maximized="0"
     inkscape:current-layer="layer1" />
  <defs
     id="defs1" />
  <g
     inkscape:label="Layer 1"
     inkscape:groupmode="layer"
     id="layer1">
    <g
       id="g10"
       style="clip-rule:evenodd;fill-rule:evenodd;image-rendering:optimizeQuality;shape-rendering:geometricPrecision;text-rendering:geometricPrecision"
       transform="matrix(0.30449043,0,0,0.30449043,-116.83353,-3.5237121)">
      <path
         style="opacity:1"
         fill="#5e5e5d"
         d="m 587.5,77.5 c 2.434,10.7207 3.434,21.7207 3,33 -0.957,-10.8568 -1.957,-21.8568 -3,-33 z"
         id="path10" />
    </g>
    <g
       id="g14"
       style="clip-rule:evenodd;fill-rule:evenodd;image-rendering:optimizeQuality;shape-rendering:geometricPrecision;text-rendering:geometricPrecision"
       transform="matrix(0.30449043,0,0,0.30449043,-116.83353,-3.5237121)">
      <path
         style="opacity:1"
         fill="#f4f4f4"
         d="m 582.5,226.5 c 1.513,-30.316 2.513,-60.649 3,-91 0.998,32.496 1.332,65.162 1,98 -0.589,6.985 -0.922,13.985 -1,21 -1.066,4.819 -1.9,9.819 -2.5,15 -2.644,1.81 -5.144,3.81 -7.5,6 -0.333,-1.333 -0.667,-2.667 -1,-4 1.376,-9.3 1.876,-18.633 1.5,-28 -2.168,-6.672 -4.334,-13.339 -6.5,-20 -0.667,-0.333 -1.333,-0.667 -2,-1 -20.196,5.216 -40.363,5.216 -60.5,0 -1.653,0.32 -2.653,1.32 -3,3 -2.202,6.272 -4.202,12.605 -6,19 0.416,10.328 0.749,20.662 1,31 -2.079,-2.29 -4.579,-3.957 -7.5,-5 -1.933,-10.227 -3.099,-20.56 -3.5,-31 -0.667,-34.667 -0.667,-69.333 0,-104 0.667,-0.667 1.333,-1.333 2,-2 0.333,30.667 0.667,61.333 1,92 0.718,0.951 1.551,1.117 2.5,0.5 3.83,-4.474 6.33,-9.641 7.5,-15.5 0.667,-18 0.667,-36 0,-54 -2.041,-8.79 -4.874,-17.29 -8.5,-25.5 -4.548,1.006 -9.048,2.506 -13.5,4.5 -1.345,-1.943 -0.845,-3.776 1.5,-5.5 2.15,-1.411 4.484,-2.245 7,-2.5 -1,-20.543 0.5,-40.8768 4.5,-61 4.299,-8.9201 11.465,-14.0868 21.5,-15.5 16.722,-2.2164 33.388,-1.8831 50,1 7.464,1.4824 13.297,5.3157 17.5,11.5 1.975,5.849 3.309,11.849 4,18 1.062,14.9805 1.729,29.981 2,45 2.087,1.294 4.254,2.461 6.5,3.5 2.107,1.264 3.107,3.097 3,5.5 -5.129,-0.897 -9.796,-2.897 -14,-6 -3.627,8.841 -6.793,17.841 -9.5,27 -0.667,17.333 -0.667,34.667 0,52 1.103,4.872 2.77,9.538 5,14 0.876,2.135 2.376,3.469 4.5,4 z"
         id="path14" />
    </g>
    <g
       id="g16"
       style="clip-rule:evenodd;fill-rule:evenodd;image-rendering:optimizeQuality;shape-rendering:geometricPrecision;text-rendering:geometricPrecision"
       transform="matrix(0.30449043,0,0,0.30449043,-116.83353,-3.5237121)">
      <path
         style="opacity:1"
         fill="#a4a4a4"
         d="m 592.5,138.5 c -0.667,22.333 -1.333,44.667 -2,67 -0.333,-22.676 0,-45.343 1,-68 0.607,0.124 0.94,0.457 1,1 z"
         id="path16" />
    </g>
    <g
       id="g17"
       style="clip-rule:evenodd;fill-rule:evenodd;image-rendering:optimizeQuality;shape-rendering:geometricPrecision;text-rendering:geometricPrecision"
       transform="matrix(0.30449043,0,0,0.30449043,-116.83353,-3.5237121)">
      <path
         style="opacity:1"
         fill="#dcdcdc"
         d="m 479.5,139.5 c 0.709,-0.904 1.709,-1.237 3,-1 0.998,25.161 1.331,50.495 1,76 -0.832,-24.497 -1.332,-49.163 -1.5,-74 -0.671,-0.752 -1.504,-1.086 -2.5,-1 z"
         id="path17" />
    </g>
    <g
       id="g18"
       style="clip-rule:evenodd;fill-rule:evenodd;image-rendering:optimizeQuality;shape-rendering:geometricPrecision;text-rendering:geometricPrecision"
       transform="matrix(0.30449043,0,0,0.30449043,-116.83353,-3.5237121)">
      <path
         style="opacity:1"
         fill="#494947"
         d="m 482.5,138.5 c 0.06,-0.543 0.393,-0.876 1,-1 1,26.325 1.333,52.658 1,79 -0.838,-0.342 -1.172,-1.008 -1,-2 0.331,-25.505 -0.002,-50.839 -1,-76 z"
         id="path18" />
    </g>
    <g
       id="g25"
       style="clip-rule:evenodd;fill-rule:evenodd;image-rendering:optimizeQuality;shape-rendering:geometricPrecision;text-rendering:geometricPrecision"
       transform="matrix(0.30449043,0,0,0.30449043,-116.83353,-3.5237121)">
      <path
         style="opacity:1"
         fill="#272725"
         d="m 587.5,77.5 c 1.043,11.1432 2.043,22.1432 3,33 -0.166,4.679 10e-4,9.345 0.5,14 4.952,1.949 8.119,5.449 9.5,10.5 -1.116,4.326 -3.782,5.492 -8,3.5 -0.06,-0.543 -0.393,-0.876 -1,-1 -1,22.657 -1.333,45.324 -1,68 0.329,12.844 -0.005,25.511 -1,38 0.333,-32.007 0,-64.007 -1,-96 -0.667,28.83 -1.333,57.497 -2,86 0.332,-32.838 -0.002,-65.504 -1,-98 -0.06,-0.543 -0.393,-0.876 -1,-1 -0.864,30.664 -1.53,61.331 -2,92 -2.124,-0.531 -3.624,-1.865 -4.5,-4 -2.23,-4.462 -3.897,-9.128 -5,-14 -0.667,-17.333 -0.667,-34.667 0,-52 2.707,-9.159 5.873,-18.159 9.5,-27 4.204,3.103 8.871,5.103 14,6 0.107,-2.403 -0.893,-4.236 -3,-5.5 -2.246,-1.039 -4.413,-2.206 -6.5,-3.5 -0.271,-15.019 -0.938,-30.0195 -2,-45 -0.691,-6.151 -2.025,-12.151 -4,-18 -4.203,-6.1843 -10.036,-10.0176 -17.5,-11.5 -16.612,-2.8831 -33.278,-3.2164 -50,-1 -10.035,1.4132 -17.201,6.5799 -21.5,15.5 -4,20.1232 -5.5,40.457 -4.5,61 -2.516,0.255 -4.85,1.089 -7,2.5 -2.345,1.724 -2.845,3.557 -1.5,5.5 4.452,-1.994 8.952,-3.494 13.5,-4.5 3.626,8.21 6.459,16.71 8.5,25.5 0.667,18 0.667,36 0,54 -1.17,5.859 -3.67,11.026 -7.5,15.5 -0.949,0.617 -1.782,0.451 -2.5,-0.5 -0.333,-30.667 -0.667,-61.333 -1,-92 -0.667,0.667 -1.333,1.333 -2,2 -0.667,34.667 -0.667,69.333 0,104 0.401,10.44 1.567,20.773 3.5,31 2.921,1.043 5.421,2.71 7.5,5 -0.251,-10.338 -0.584,-20.672 -1,-31 1.798,-6.395 3.798,-12.728 6,-19 0.347,-1.68 1.347,-2.68 3,-3 20.137,5.216 40.304,5.216 60.5,0 0.667,0.333 1.333,0.667 2,1 2.166,6.661 4.332,13.328 6.5,20 0.376,9.367 -0.124,18.7 -1.5,28 0.333,1.333 0.667,2.667 1,4 2.356,-2.19 4.856,-4.19 7.5,-6 0.6,-5.181 1.434,-10.181 2.5,-15 -0.164,2.687 0.003,5.354 0.5,8 0.383,0.556 0.883,0.889 1.5,1 0.32,11.212 -4.347,19.379 -14,24.5 -18.443,4.161 -37.11,5.494 -56,4 -6.842,-1.034 -13.508,-2.701 -20,-5 -5.194,-3.524 -8.361,-8.357 -9.5,-14.5 -2.959,-18.55 -4.125,-37.216 -3.5,-56 0.333,-26.342 0,-52.675 -1,-79 -0.607,0.124 -0.94,0.457 -1,1 -1.291,-0.237 -2.291,0.096 -3,1 -1.644,0.214 -3.144,-0.12 -4.5,-1 -1.796,-7.369 1.037,-11.702 8.5,-13 -0.872,-19.522 0.628,-38.8551 4.5,-58 1.975,-7.9773 6.808,-13.4773 14.5,-16.5 10.038,-4.4073 20.538,-6.2407 31.5,-5.5 14.413,-0.561 28.246,1.939 41.5,7.5 8.646,5.7923 12.646,13.959 12,24.5 z"
         id="path25" />
    </g>
    <g
       id="g26"
       style="clip-rule:evenodd;fill-rule:evenodd;image-rendering:optimizeQuality;shape-rendering:geometricPrecision;text-rendering:geometricPrecision"
       transform="matrix(0.30449043,0,0,0.30449043,-116.83353,-3.5237121)">
      <path
         style="opacity:1"
         fill="#282828"
         d="m 515.5,172.5 c 14.337,-0.167 28.671,0 43,0.5 2.394,1.952 3.894,4.452 4.5,7.5 1.327,4.62 1.993,9.287 2,14 -0.833,0.833 -1.667,1.667 -2.5,2.5 -17,0.667 -34,0.667 -51,0 -1.857,-1.182 -2.857,-2.849 -3,-5 0.59,-7.231 2.923,-13.731 7,-19.5 z"
         id="path26" />
    </g>
    <g
       id="g27"
       style="clip-rule:evenodd;fill-rule:evenodd;image-rendering:optimizeQuality;shape-rendering:geometricPrecision;text-rendering:geometricPrecision"
       transform="matrix(0.30449043,0,0,0.30449043,-116.83353,-3.5237121)">
      <path
         style="opacity:1"
         fill="#b4b4b3"
         d="m 585.5,135.5 c -0.487,30.351 -1.487,60.684 -3,91 0.47,-30.669 1.136,-61.336 2,-92 0.607,0.124 0.94,0.457 1,1 z"
         id="path27" />
    </g>
    <g
       id="g28"
       style="clip-rule:evenodd;fill-rule:evenodd;image-rendering:optimizeQuality;shape-rendering:geometricPrecision;text-rendering:geometricPrecision"
       transform="matrix(0.30449043,0,0,0.30449043,-116.83353,-3.5237121)">
      <path
         style="opacity:1"
         fill="#eeeeee"
         d="m 515.5,175.5 c 14.337,-0.167 28.671,0 43,0.5 1.921,6.023 3.255,12.19 4,18.5 -17,0 -34,0 -51,0 0.547,-6.52 1.881,-12.853 4,-19 z"
         id="path28" />
    </g>
    <g
       id="g29"
       style="clip-rule:evenodd;fill-rule:evenodd;image-rendering:optimizeQuality;shape-rendering:geometricPrecision;text-rendering:geometricPrecision"
       transform="matrix(0.30449043,0,0,0.30449043,-116.83353,-3.5237121)">
      <path
         style="opacity:1"
         fill="#6f6f6e"
         d="m 518.5,178.5 c 3.333,0 6.667,0 10,0 0,1 0,2 0,3 -1,0 -2,0 -3,0 0,3.333 0,6.667 0,10 -1.333,0 -2.667,0 -4,0 0,-3.333 0,-6.667 0,-10 -1,0 -2,0 -3,0 0,-1 0,-2 0,-3 z"
         id="path29" />
    </g>
    <g
       id="g30"
       style="clip-rule:evenodd;fill-rule:evenodd;image-rendering:optimizeQuality;shape-rendering:geometricPrecision;text-rendering:geometricPrecision"
       transform="matrix(0.30449043,0,0,0.30449043,-116.83353,-3.5237121)">
      <path
         style="opacity:1"
         fill="#292928"
         d="m 531.5,178.5 c 1.478,-0.262 2.811,0.071 4,1 1.47,3.548 2.47,7.215 3,11 -1.867,-0.455 -3.7,-1.122 -5.5,-2 -1.365,0.344 -2.532,1.011 -3.5,2 -0.641,-4.129 0.025,-8.129 2,-12 z"
         id="path30" />
    </g>
    <g
       id="g31"
       style="clip-rule:evenodd;fill-rule:evenodd;image-rendering:optimizeQuality;shape-rendering:geometricPrecision;text-rendering:geometricPrecision"
       transform="matrix(0.30449043,0,0,0.30449043,-116.83353,-3.5237121)">
      <path
         style="opacity:1"
         fill="#929290"
         d="m 532.5,182.5 c 1.676,0.683 2.343,2.017 2,4 -1.175,0.219 -2.175,-0.114 -3,-1 0.627,-0.917 0.961,-1.917 1,-3 z"
         id="path31" />
    </g>
    <g
       id="g32"
       style="clip-rule:evenodd;fill-rule:evenodd;image-rendering:optimizeQuality;shape-rendering:geometricPrecision;text-rendering:geometricPrecision"
       transform="matrix(0.30449043,0,0,0.30449043,-116.83353,-3.5237121)">
      <path
         style="opacity:1"
         fill="#252524"
         d="m 540.5,178.5 c 2.55,0.061 4.05,1.394 4.5,4 0.941,-1.561 2.108,-2.895 3.5,-4 0.333,0.5 0.667,1 1,1.5 -2.569,3.19 -2.569,6.356 0,9.5 -0.5,0.333 -1,0.667 -1.5,1 -1.221,-0.772 -2.221,-1.772 -3,-3 -0.906,2.112 -2.406,2.945 -4.5,2.5 1,-1.667 2,-3.333 3,-5 -1.414,-1.993 -2.414,-4.16 -3,-6.5 z"
         id="path32" />
    </g>
    <g
       id="g33"
       style="clip-rule:evenodd;fill-rule:evenodd;image-rendering:optimizeQuality;shape-rendering:geometricPrecision;text-rendering:geometricPrecision"
       transform="matrix(0.30449043,0,0,0.30449043,-116.83353,-3.5237121)">
      <path
         style="opacity:1"
         fill="#8f8f8e"
         d="m 551.5,178.5 c 1.333,0 2.667,0 4,0 0,4.333 0,8.667 0,13 -1.333,0 -2.667,0 -4,0 0,-4.333 0,-8.667 0,-13 z"
         id="path33" />
    </g>
    <g
       id="g34"
       style="clip-rule:evenodd;fill-rule:evenodd;image-rendering:optimizeQuality;shape-rendering:geometricPrecision;text-rendering:geometricPrecision"
       transform="matrix(0.30449043,0,0,0.30449043,-116.83353,-3.5237121)">
      <path
         style="opacity:1"
         fill="#141414"
         d="m 552.5,179.5 c 1.287,1.371 1.953,3.205 2,5.5 -0.333,1.833 -0.667,3.667 -1,5.5 -0.989,-3.607 -1.323,-7.274 -1,-11 z"
         id="path34" />
    </g>
    <g
       id="g35"
       style="clip-rule:evenodd;fill-rule:evenodd;image-rendering:optimizeQuality;shape-rendering:geometricPrecision;text-rendering:geometricPrecision"
       transform="matrix(0.30449043,0,0,0.30449043,-116.83353,-3.5237121)">
      <path
         style="opacity:1"
         fill="#111111"
         d="m 519.5,180.5 c 4.467,-1.362 6.133,-1.362 5,0 -0.667,13.333 -1.333,13.333 -2,0 -1,0 -2,0 -3,0 z"
         id="path35" />
    </g>
    <g
       id="g36"
       style="clip-rule:evenodd;fill-rule:evenodd;image-rendering:optimizeQuality;shape-rendering:geometricPrecision;text-rendering:geometricPrecision"
       transform="matrix(0.30449043,0,0,0.30449043,-116.83353,-3.5237121)">
      <path
         style="opacity:1"
         fill="#212120"
         d="m 494.5,102.5 c 0.333,0 0.667,0 1,0 -0.166,5.344 10e-4,10.677 0.5,16 27.458,-13.313 54.958,-13.313 82.5,0 0.667,-1 1.333,-2 2,-3 -2.018,11.222 -5.351,22.055 -10,32.5 -5.996,-0.669 -11.996,-1.669 -18,-3 -16.056,-1.438 -31.889,-0.272 -47.5,3.5 -1.653,-0.32 -2.653,-1.32 -3,-3 -2.271,-8.148 -4.938,-16.148 -8,-24 -0.82,-6.514 -0.653,-12.847 0.5,-19 z"
         id="path36" />
    </g>
    <g
       id="g37"
       style="clip-rule:evenodd;fill-rule:evenodd;image-rendering:optimizeQuality;shape-rendering:geometricPrecision;text-rendering:geometricPrecision"
       transform="matrix(0.30449043,0,0,0.30449043,-116.83353,-3.5237121)">
      <path
         style="opacity:1"
         fill="#404041"
         d="m 576.5,76.5 c 2.242,12.7643 3.575,25.764 4,39 -0.667,1 -1.333,2 -2,3 -0.236,-12.407 -1.236,-24.7399 -3,-37 0.951,-1.4187 1.284,-3.0853 1,-5 z"
         id="path37" />
    </g>
    <g
       id="g38"
       style="clip-rule:evenodd;fill-rule:evenodd;image-rendering:optimizeQuality;shape-rendering:geometricPrecision;text-rendering:geometricPrecision"
       transform="matrix(0.30449043,0,0,0.30449043,-116.83353,-3.5237121)">
      <path
         style="opacity:1"
         fill="#2c2b2b"
         d="m 516.5,64.5 c 0.876,-0.1309 1.543,0.2025 2,1 -3.287,13.7284 -6.787,27.395 -10.5,41 2.247,-14.0672 5.08,-28.0672 8.5,-42 z"
         id="path38" />
    </g>
    <g
       id="g39"
       style="clip-rule:evenodd;fill-rule:evenodd;image-rendering:optimizeQuality;shape-rendering:geometricPrecision;text-rendering:geometricPrecision"
       transform="matrix(0.30449043,0,0,0.30449043,-116.83353,-3.5237121)">
      <path
         style="opacity:1"
         fill="#3d3c3c"
         d="m 496.5,70.5 c 0.06,-0.5431 0.393,-0.8764 1,-1 0.672,1.4492 1.339,2.7825 2,4 -1.199,9.8188 -2.532,19.4854 -4,29 -0.333,0 -0.667,0 -1,0 1.029,-9.4868 2.029,-18.9868 3,-28.5 -0.014,-1.3847 -0.348,-2.5514 -1,-3.5 z"
         id="path39" />
    </g>
    <g
       id="g40"
       style="clip-rule:evenodd;fill-rule:evenodd;image-rendering:optimizeQuality;shape-rendering:geometricPrecision;text-rendering:geometricPrecision"
       transform="matrix(0.30449043,0,0,0.30449043,-116.83353,-3.5237121)">
      <path
         style="opacity:1"
         fill="#383838"
         d="m 555.5,65.5 c 0.577,-1.2733 1.243,-1.2733 2,0 2.938,13.25 6.271,26.4167 10,39.5 -0.333,0.5 -0.667,1 -1,1.5 -4.058,-13.6554 -7.725,-27.322 -11,-41 z"
         id="path40" />
    </g>
    <g
       id="g41"
       style="clip-rule:evenodd;fill-rule:evenodd;image-rendering:optimizeQuality;shape-rendering:geometricPrecision;text-rendering:geometricPrecision"
       transform="matrix(0.30449043,0,0,0.30449043,-116.83353,-3.5237121)">
      <path
         style="opacity:1"
         fill="#252523"
         d="m 576.5,76.5 c 0.284,1.9147 -0.049,3.5813 -1,5 -0.346,-4.7734 -1.179,-9.4401 -2.5,-14 -3.828,-2.9148 -7.828,-5.5814 -12,-8 -0.494,-1.6341 -0.66,-3.3008 -0.5,-5 6.896,0.3651 12.73,3.0318 17.5,8 1.707,2.4088 2.54,5.0755 2.5,8 -1.831,-0.5522 -3.497,-0.5522 -5,0 0.848,1.9086 1.182,3.9086 1,6 z"
         id="path41" />
    </g>
    <g
       id="g42"
       style="clip-rule:evenodd;fill-rule:evenodd;image-rendering:optimizeQuality;shape-rendering:geometricPrecision;text-rendering:geometricPrecision"
       transform="matrix(0.30449043,0,0,0.30449043,-116.83353,-3.5237121)">
      <path
         style="opacity:1"
         fill="#21211f"
         d="m 499.5,73.5 c -0.661,-1.2175 -1.328,-2.5508 -2,-4 -0.607,0.1236 -0.94,0.4569 -1,1 -0.65,0.3039 -1.317,0.6373 -2,1 -0.639,-7.9082 3.027,-13.0748 11,-15.5 2.626,-0.995 5.293,-1.3283 8,-1 1.017,1.0495 1.184,2.2161 0.5,3.5 -4.682,2.5067 -9.015,5.5067 -13,9 -1.128,1.8453 -1.628,3.8453 -1.5,6 z"
         id="path42" />
    </g>
    <g
       id="g43"
       style="clip-rule:evenodd;fill-rule:evenodd;image-rendering:optimizeQuality;shape-rendering:geometricPrecision;text-rendering:geometricPrecision"
       transform="matrix(0.30449043,0,0,0.30449043,-116.83353,-3.5237121)">
      <path
         style="opacity:1"
         fill="#2a2a29"
         d="m 524.5,51.5 c 9.082,-0.4137 18.082,0.0863 27,1.5 1.519,1.3513 2.852,2.8513 4,4.5 -11.982,0.999 -23.982,1.3323 -36,1 0.502,-3.1685 2.169,-5.5019 5,-7 z"
         id="path43" />
    </g>
    <g
       id="g44"
       style="clip-rule:evenodd;fill-rule:evenodd;image-rendering:optimizeQuality;shape-rendering:geometricPrecision;text-rendering:geometricPrecision"
       transform="matrix(0.30449043,0,0,0.30449043,-116.83353,-3.5237121)">
      <path
         style="opacity:1"
         fill="#1d1e1d"
         d="m 589.5,243.5 c -0.339,6.747 -1.006,13.414 -2,20 -0.617,-0.111 -1.117,-0.444 -1.5,-1 -0.497,-2.646 -0.664,-5.313 -0.5,-8 0.078,-7.015 0.411,-14.015 1,-21 0.667,-28.503 1.333,-57.17 2,-86 1,31.993 1.333,63.993 1,96 z"
         id="path44" />
    </g>
    <g
       id="g70"
       style="clip-rule:evenodd;fill-rule:evenodd;image-rendering:optimizeQuality;shape-rendering:geometricPrecision;text-rendering:geometricPrecision"
       transform="matrix(0.30449043,0,0,0.30449043,-116.83353,-3.5237121)">
      <path
         style="opacity:1"
         fill="#f6f6f6"
         d="m 499.5,248.5 c 24.769,10.487 49.602,10.487 74.5,0 0.164,9.706 -0.503,19.372 -2,29 -5.635,0.967 -9.468,4.133 -11.5,9.5 -15.676,1.962 -31.343,1.962 -47,0 -2.105,-5.151 -5.938,-8.318 -11.5,-9.5 -1.273,-9.635 -2.106,-19.302 -2.5,-29 z"
         id="path70" />
    </g>
  </g>
</svg>
