<?xml version="1.0" encoding="UTF-8" standalone="no"?>
<!-- Created with Inkscape (http://www.inkscape.org/) -->

<svg
   width="96mm"
   height="96mm"
   viewBox="0 0 96 96"
   version="1.1"
   id="svg1"
   inkscape:version="1.4.2 (ebf0e940, 2025-05-08)"
   sodipodi:docname="crane.svg"
   xmlns:inkscape="http://www.inkscape.org/namespaces/inkscape"
   xmlns:sodipodi="http://sodipodi.sourceforge.net/DTD/sodipodi-0.dtd"
   xmlns="http://www.w3.org/2000/svg"
   xmlns:svg="http://www.w3.org/2000/svg">
  <sodipodi:namedview
     id="namedview1"
     pagecolor="#ffffff"
     bordercolor="#000000"
     borderopacity="0.25"
     inkscape:showpageshadow="2"
     inkscape:pageopacity="0.0"
     inkscape:pagecheckerboard="0"
     inkscape:deskcolor="#d1d1d1"
     inkscape:document-units="mm"
     inkscape:zoom="0.80444024"
     inkscape:cx="397.17059"
     inkscape:cy="362.36377"
     inkscape:window-width="1920"
     inkscape:window-height="1052"
     inkscape:window-x="0"
     inkscape:window-y="28"
     inkscape:window-maximized="0"
     inkscape:current-layer="layer1" />
  <defs
     id="defs1" />
  <g
     inkscape:label="Layer 1"
     inkscape:groupmode="layer"
     id="layer1">
    <g
       id="g31"
       style="clip-rule:evenodd;fill-rule:evenodd;image-rendering:optimizeQuality;shape-rendering:geometricPrecision;text-rendering:geometricPrecision"
       transform="matrix(0.30842656,0,0,0.30842656,-114.72011,-7.6281628)">
      <path
         style="opacity:1"
         fill="#242422"
         d="m 561.5,231.5 c -0.846,7.92 -1.346,16.586 -1.5,26 -0.156,-10.745 -0.656,-20.745 -1.5,-30 -1.127,-0.622 -2.127,-1.455 -3,-2.5 -4.655,-0.499 -9.321,-0.666 -14,-0.5 0.167,10.672 0,21.339 -0.5,32 -0.5,0.5 -1,1 -1.5,1.5 -12,0.333 -24,0.667 -36,1 -0.744,1.039 -1.744,1.539 -3,1.5 -6.153,-1.153 -12.486,-1.32 -19,-0.5 -1.237,0.232 -2.237,0.732 -3,1.5 -1.951,-0.782 -3.451,-2.116 -4.5,-4 -0.667,-14 -0.667,-28 0,-42 0.667,-2 2,-3.333 4,-4 -3.595,-14.735 1.905,-20.568 16.5,-17.5 1.201,0.903 2.035,2.069 2.5,3.5 0.498,2.982 0.665,5.982 0.5,9 1.667,0 3.333,0 5,0 2.668,-48.696 5.835,-97.362 9.5,-146 1.699,-0.9061 3.533,-1.2394 5.5,-1 0,-2.6667 0,-5.3333 0,-8 3.018,-0.1646 6.018,0.002 9,0.5 0.935,2.3806 1.268,4.8806 1,7.5 1.644,-0.2135 3.144,0.1198 4.5,1 3.071,48.66 5.904,97.326 8.5,146 1.667,0 3.333,0 5,0 -0.64,-12.159 5.026,-16.326 17,-12.5 0.5,0.5 1,1 1.5,1.5 1.617,10.234 1.95,20.567 1,31 -0.697,2.084 -1.864,3.751 -3.5,5 z"
         id="path31" />
    </g>
    <g
       id="g32"
       style="clip-rule:evenodd;fill-rule:evenodd;image-rendering:optimizeQuality;shape-rendering:geometricPrecision;text-rendering:geometricPrecision"
       transform="matrix(0.30842656,0,0,0.30842656,-114.72011,-7.6281628)">
      <path
         style="opacity:1"
         fill="#ebebe9"
         d="m 534.5,159.5 c 3.502,31.747 4.836,63.747 4,96 -11,0 -22,0 -33,0 -0.483,-26.428 0.184,-52.761 2,-79 0.722,-0.418 1.222,-1.084 1.5,-2 1.375,2.437 1.875,5.103 1.5,8 0,4 0,8 0,12 -1.297,2.193 -1.297,4.527 0,7 0.607,-0.124 0.94,-0.457 1,-1 6.891,-3.605 13.225,-7.938 19,-13 0,-0.667 0.333,-1 1,-1 0.455,-7.484 0.455,-15.15 0,-23 -0.032,-2.119 0.968,-3.452 3,-4 z"
         id="path32" />
    </g>
    <g
       id="g33"
       style="clip-rule:evenodd;fill-rule:evenodd;image-rendering:optimizeQuality;shape-rendering:geometricPrecision;text-rendering:geometricPrecision"
       transform="matrix(0.30842656,0,0,0.30842656,-114.72011,-7.6281628)">
      <path
         style="opacity:1"
         fill="#1d1d1a"
         d="m 530.5,187.5 c -5.775,5.062 -12.109,9.395 -19,13 -0.961,-1.765 -1.295,-3.765 -1,-6 0,-4 0,-8 0,-12 0.961,-1.765 1.295,-3.765 1,-6 6.753,2.879 13.086,6.545 19,11 z"
         id="path33" />
    </g>
    <g
       id="g34"
       style="clip-rule:evenodd;fill-rule:evenodd;image-rendering:optimizeQuality;shape-rendering:geometricPrecision;text-rendering:geometricPrecision"
       transform="matrix(0.30842656,0,0,0.30842656,-114.72011,-7.6281628)">
      <path
         style="opacity:1"
         fill="#7e7b7a"
         d="m 510.5,194.5 c -0.295,2.235 0.039,4.235 1,6 -0.06,0.543 -0.393,0.876 -1,1 -1.297,-2.473 -1.297,-4.807 0,-7 z"
         id="path34" />
    </g>
    <g
       id="g35"
       style="clip-rule:evenodd;fill-rule:evenodd;image-rendering:optimizeQuality;shape-rendering:geometricPrecision;text-rendering:geometricPrecision"
       transform="matrix(0.30842656,0,0,0.30842656,-114.72011,-7.6281628)">
      <path
         style="opacity:1"
         fill="#676862"
         d="m 531.5,191.5 c 0.06,-0.543 0.393,-0.876 1,-1 0.98,2.586 1.313,5.253 1,8 -0.667,-2.333 -1.333,-4.667 -2,-7 z"
         id="path35" />
    </g>
    <g
       id="g36"
       style="clip-rule:evenodd;fill-rule:evenodd;image-rendering:optimizeQuality;shape-rendering:geometricPrecision;text-rendering:geometricPrecision"
       transform="matrix(0.30842656,0,0,0.30842656,-114.72011,-7.6281628)">
      <path
         style="opacity:1"
         fill="#e9e9e7"
         d="m 513.5,179.5 c 4.451,2.611 8.784,5.444 13,8.5 -4.5,3.167 -9,6.333 -13.5,9.5 -0.575,-6.022 -0.409,-12.022 0.5,-18 z"
         id="path36" />
    </g>
    <g
       id="g37"
       style="clip-rule:evenodd;fill-rule:evenodd;image-rendering:optimizeQuality;shape-rendering:geometricPrecision;text-rendering:geometricPrecision"
       transform="matrix(0.30842656,0,0,0.30842656,-114.72011,-7.6281628)">
      <path
         style="opacity:1"
         fill="#232421"
         d="m 531.5,163.5 c 0.455,7.85 0.455,15.516 0,23 -5.97,-4.658 -11.97,-9.325 -18,-14 5.05,-4.385 10.384,-8.385 16,-12 0.676,1.102 1.342,2.102 2,3 z"
         id="path37" />
    </g>
    <g
       id="g38"
       style="clip-rule:evenodd;fill-rule:evenodd;image-rendering:optimizeQuality;shape-rendering:geometricPrecision;text-rendering:geometricPrecision"
       transform="matrix(0.30842656,0,0,0.30842656,-114.72011,-7.6281628)">
      <path
         style="opacity:1"
         fill="#eeeeec"
         d="m 527.5,164.5 c 2.089,5.093 2.422,10.426 1,16 -4.013,-2.006 -7.68,-4.506 -11,-7.5 3.219,-3.089 6.552,-5.922 10,-8.5 z"
         id="path38" />
    </g>
    <g
       id="g39"
       style="clip-rule:evenodd;fill-rule:evenodd;image-rendering:optimizeQuality;shape-rendering:geometricPrecision;text-rendering:geometricPrecision"
       transform="matrix(0.30842656,0,0,0.30842656,-114.72011,-7.6281628)">
      <path
         style="opacity:1"
         fill="#e0e0de"
         d="m 518.5,80.5 c -0.165,3.0184 0.002,6.0184 0.5,9 2.237,2.1471 4.237,4.4804 6,7 0.499,-5.3229 0.666,-10.6563 0.5,-16 1.068,-0.9345 2.401,-1.2678 4,-1 2.251,26.479 3.918,53.146 5,80 -2.032,0.548 -3.032,1.881 -3,4 -0.658,-0.898 -1.324,-1.898 -2,-3 -5.616,3.615 -10.95,7.615 -16,12 6.03,4.675 12.03,9.342 18,14 -0.667,0 -1,0.333 -1,1 -5.914,-4.455 -12.247,-8.121 -19,-11 0.295,2.235 -0.039,4.235 -1,6 0.375,-2.897 -0.125,-5.563 -1.5,-8 -0.278,0.916 -0.778,1.582 -1.5,2 2,-29.669 4,-59.335 6,-89 0.973,-2.4479 1.306,-5.1146 1,-8 1.599,-0.2678 2.932,0.0655 4,1 z"
         id="path39" />
    </g>
    <g
       id="g40"
       style="clip-rule:evenodd;fill-rule:evenodd;image-rendering:optimizeQuality;shape-rendering:geometricPrecision;text-rendering:geometricPrecision"
       transform="matrix(0.30842656,0,0,0.30842656,-114.72011,-7.6281628)">
      <path
         style="opacity:1"
         fill="#282824"
         d="m 513.5,146.5 c 5.512,2.927 10.512,6.594 15,11 -4.696,4.021 -9.696,7.688 -15,11 -1.084,-7.328 -1.084,-14.661 0,-22 z"
         id="path40" />
    </g>
    <g
       id="g41"
       style="clip-rule:evenodd;fill-rule:evenodd;image-rendering:optimizeQuality;shape-rendering:geometricPrecision;text-rendering:geometricPrecision"
       transform="matrix(0.30842656,0,0,0.30842656,-114.72011,-7.6281628)">
      <path
         style="opacity:1"
         fill="#eaeaea"
         d="m 515.5,150.5 c 3.521,1.602 6.521,3.935 9,7 -2.69,2.685 -5.69,5.018 -9,7 -0.968,-4.645 -0.968,-9.312 0,-14 z"
         id="path41" />
    </g>
    <g
       id="g42"
       style="clip-rule:evenodd;fill-rule:evenodd;image-rendering:optimizeQuality;shape-rendering:geometricPrecision;text-rendering:geometricPrecision"
       transform="matrix(0.30842656,0,0,0.30842656,-114.72011,-7.6281628)">
      <path
         style="opacity:1"
         fill="#23231f"
         d="m 527.5,131.5 c 1.309,2.071 1.975,4.571 2,7.5 0.719,5.211 0.719,10.378 0,15.5 -4.883,-3.603 -9.549,-7.436 -14,-11.5 3.874,-4.042 7.874,-7.876 12,-11.5 z"
         id="path42" />
    </g>
    <g
       id="g43"
       style="clip-rule:evenodd;fill-rule:evenodd;image-rendering:optimizeQuality;shape-rendering:geometricPrecision;text-rendering:geometricPrecision"
       transform="matrix(0.30842656,0,0,0.30842656,-114.72011,-7.6281628)">
      <path
         style="opacity:1"
         fill="#e0e0db"
         d="m 525.5,135.5 c 1.305,1.897 1.971,4.231 2,7 -0.167,2.333 -0.333,4.667 -0.5,7 -2.833,-2.167 -5.667,-4.333 -8.5,-6.5 2.588,-2.416 4.922,-4.916 7,-7.5 z"
         id="path43" />
    </g>
    <g
       id="g44"
       style="clip-rule:evenodd;fill-rule:evenodd;image-rendering:optimizeQuality;shape-rendering:geometricPrecision;text-rendering:geometricPrecision"
       transform="matrix(0.30842656,0,0,0.30842656,-114.72011,-7.6281628)">
      <path
         style="opacity:1"
         fill="#252521"
         d="m 515.5,118.5 c 4.25,2.579 7.917,5.912 11,10 -3.504,4.004 -7.337,7.67 -11.5,11 -0.333,-7.005 -0.167,-14.005 0.5,-21 z"
         id="path44" />
    </g>
    <g
       id="g45"
       style="clip-rule:evenodd;fill-rule:evenodd;image-rendering:optimizeQuality;shape-rendering:geometricPrecision;text-rendering:geometricPrecision"
       transform="matrix(0.30842656,0,0,0.30842656,-114.72011,-7.6281628)">
      <path
         style="opacity:1"
         fill="#eaeae8"
         d="m 517.5,123.5 c 2.569,0.896 4.569,2.562 6,5 -1.887,1.54 -3.72,3.207 -5.5,5 -0.498,-3.317 -0.665,-6.65 -0.5,-10 z"
         id="path45" />
    </g>
    <g
       id="g46"
       style="clip-rule:evenodd;fill-rule:evenodd;image-rendering:optimizeQuality;shape-rendering:geometricPrecision;text-rendering:geometricPrecision"
       transform="matrix(0.30842656,0,0,0.30842656,-114.72011,-7.6281628)">
      <path
         style="opacity:1"
         fill="#2b2d29"
         d="m 525.5,103.5 c 1.793,5.93 2.793,12.263 3,19 -0.333,1 -0.667,2 -1,3 -3.866,-3.032 -7.199,-6.532 -10,-10.5 2.508,-3.997 5.174,-7.83 8,-11.5 z"
         id="path46" />
    </g>
    <g
       id="g47"
       style="clip-rule:evenodd;fill-rule:evenodd;image-rendering:optimizeQuality;shape-rendering:geometricPrecision;text-rendering:geometricPrecision"
       transform="matrix(0.30842656,0,0,0.30842656,-114.72011,-7.6281628)">
      <path
         style="opacity:1"
         fill="#dbdcd9"
         d="m 523.5,109.5 c 1.287,1.371 1.953,3.205 2,5.5 -0.167,1.833 -0.333,3.667 -0.5,5.5 -1.892,-1.554 -3.392,-3.388 -4.5,-5.5 1.241,-1.731 2.241,-3.564 3,-5.5 z"
         id="path47" />
    </g>
    <g
       id="g48"
       style="clip-rule:evenodd;fill-rule:evenodd;image-rendering:optimizeQuality;shape-rendering:geometricPrecision;text-rendering:geometricPrecision"
       transform="matrix(0.30842656,0,0,0.30842656,-114.72011,-7.6281628)">
      <path
         style="opacity:1"
         fill="#454642"
         d="m 517.5,96.5 c -0.165,3.0184 0.002,6.018 0.5,9 0.183,-2.865 0.683,-5.5314 1.5,-8 -0.295,2.2354 0.039,4.235 1,6 -1.125,1.152 -1.125,2.152 0,3 -0.958,1.462 -2.124,2.795 -3.5,4 -0.815,-4.852 -0.648,-9.519 0.5,-14 z"
         id="path48" />
    </g>
    <g
       id="g49"
       style="clip-rule:evenodd;fill-rule:evenodd;image-rendering:optimizeQuality;shape-rendering:geometricPrecision;text-rendering:geometricPrecision"
       transform="matrix(0.30842656,0,0,0.30842656,-114.72011,-7.6281628)">
      <path
         style="opacity:1"
         fill="#141514"
         d="m 520.5,106.5 c -1.125,-0.848 -1.125,-1.848 0,-3 2.784,-2.452 2.451,-4.4516 -1,-6 -0.817,2.4686 -1.317,5.135 -1.5,8 -0.498,-2.982 -0.665,-5.9816 -0.5,-9 -0.16,-1.6992 0.006,-3.3659 0.5,-5 2.312,3.146 4.812,6.146 7.5,9 -1.69,2.019 -3.356,4.019 -5,6 z"
         id="path49" />
    </g>
    <g
       id="g50"
       style="clip-rule:evenodd;fill-rule:evenodd;image-rendering:optimizeQuality;shape-rendering:geometricPrecision;text-rendering:geometricPrecision"
       transform="matrix(0.30842656,0,0,0.30842656,-114.72011,-7.6281628)">
      <path
         style="opacity:1"
         fill="#ebebe6"
         d="m 519.5,97.5 c 3.451,1.5484 3.784,3.548 1,6 -0.961,-1.765 -1.295,-3.7646 -1,-6 z"
         id="path50" />
    </g>
    <g
       id="g51"
       style="clip-rule:evenodd;fill-rule:evenodd;image-rendering:optimizeQuality;shape-rendering:geometricPrecision;text-rendering:geometricPrecision"
       transform="matrix(0.30842656,0,0,0.30842656,-114.72011,-7.6281628)">
      <path
         style="opacity:1"
         fill="#191a17"
         d="m 518.5,80.5 c 2.333,0 4.667,0 7,0 0.166,5.3437 -10e-4,10.6771 -0.5,16 -1.763,-2.5196 -3.763,-4.8529 -6,-7 -0.498,-2.9816 -0.665,-5.9816 -0.5,-9 z"
         id="path51" />
    </g>
    <g
       id="g52"
       style="clip-rule:evenodd;fill-rule:evenodd;image-rendering:optimizeQuality;shape-rendering:geometricPrecision;text-rendering:geometricPrecision"
       transform="matrix(0.30842656,0,0,0.30842656,-114.72011,-7.6281628)">
      <path
         style="opacity:1"
         fill="#979796"
         d="m 522.5,82.5 c 1.138,2.8035 1.305,5.8035 0.5,9 -0.717,-0.5442 -1.217,-1.2109 -1.5,-2 0.968,-2.1074 1.302,-4.4407 1,-7 z"
         id="path52" />
    </g>
    <g
       id="g53"
       style="clip-rule:evenodd;fill-rule:evenodd;image-rendering:optimizeQuality;shape-rendering:geometricPrecision;text-rendering:geometricPrecision"
       transform="matrix(0.30842656,0,0,0.30842656,-114.72011,-7.6281628)">
      <path
         style="opacity:1"
         fill="#edecec"
         d="m 522.5,82.5 c 0.302,2.5593 -0.032,4.8926 -1,7 -1.678,-2.8096 -1.345,-5.143 1,-7 z"
         id="path53" />
    </g>
    <g
       id="g54"
       style="clip-rule:evenodd;fill-rule:evenodd;image-rendering:optimizeQuality;shape-rendering:geometricPrecision;text-rendering:geometricPrecision"
       transform="matrix(0.30842656,0,0,0.30842656,-114.72011,-7.6281628)">
      <path
         style="opacity:1"
         fill="#b2b1af"
         d="m 529.5,79.5 c -1.599,-0.2678 -2.932,0.0655 -4,1 -2.333,0 -4.667,0 -7,0 -1.068,-0.9345 -2.401,-1.2678 -4,-1 0.306,2.8854 -0.027,5.5521 -1,8 0,-3 0,-6 0,-9 5.526,-0.3214 10.86,0.0119 16,1 z"
         id="path54" />
    </g>
    <g
       id="g55"
       style="clip-rule:evenodd;fill-rule:evenodd;image-rendering:optimizeQuality;shape-rendering:geometricPrecision;text-rendering:geometricPrecision"
       transform="matrix(0.30842656,0,0,0.30842656,-114.72011,-7.6281628)">
      <path
         style="opacity:1"
         fill="#f5f5f4"
         d="m 514.5,62.5 c 5,0 10,0 15,0 0,4.6667 0,9.3333 0,14 -5,0 -10,0 -15,0 0,-4.6667 0,-9.3333 0,-14 z"
         id="path55" />
    </g>
    <g
       id="g56"
       style="clip-rule:evenodd;fill-rule:evenodd;image-rendering:optimizeQuality;shape-rendering:geometricPrecision;text-rendering:geometricPrecision"
       transform="matrix(0.30842656,0,0,0.30842656,-114.72011,-7.6281628)">
      <path
         style="opacity:1"
         fill="#20201d"
         d="m 531.5,191.5 c 0.667,2.333 1.333,4.667 2,7 0.698,7.507 0.698,14.841 0,22 -6.422,-5.057 -13.089,-9.89 -20,-14.5 -0.752,-0.671 -1.086,-1.504 -1,-2.5 6.165,-4.25 12.498,-8.25 19,-12 z"
         id="path56" />
    </g>
    <g
       id="g57"
       style="clip-rule:evenodd;fill-rule:evenodd;image-rendering:optimizeQuality;shape-rendering:geometricPrecision;text-rendering:geometricPrecision"
       transform="matrix(0.30842656,0,0,0.30842656,-114.72011,-7.6281628)">
      <path
         style="opacity:1"
         fill="#656564"
         d="m 529.5,195.5 c 0.06,-0.543 0.393,-0.876 1,-1 0.992,4.283 1.326,8.616 1,13 -3.871,0.315 -7.538,-0.018 -11,-1 3.333,0 6.667,0 10,0 0.315,-3.871 -0.018,-7.538 -1,-11 z"
         id="path57" />
    </g>
    <g
       id="g58"
       style="clip-rule:evenodd;fill-rule:evenodd;image-rendering:optimizeQuality;shape-rendering:geometricPrecision;text-rendering:geometricPrecision"
       transform="matrix(0.30842656,0,0,0.30842656,-114.72011,-7.6281628)">
      <path
         style="opacity:1"
         fill="#f3f3f2"
         d="m 529.5,195.5 c 0.982,3.462 1.315,7.129 1,11 -3.333,0 -6.667,0 -10,0 -2.666,0.434 -3.833,-0.566 -3.5,-3 4.05,-2.89 8.217,-5.557 12.5,-8 z"
         id="path58" />
    </g>
    <g
       id="g59"
       style="clip-rule:evenodd;fill-rule:evenodd;image-rendering:optimizeQuality;shape-rendering:geometricPrecision;text-rendering:geometricPrecision"
       transform="matrix(0.30842656,0,0,0.30842656,-114.72011,-7.6281628)">
      <path
         style="opacity:1"
         fill="#efefee"
         d="m 480.5,213.5 c 6.675,-0.166 13.342,0 20,0.5 0.833,0.833 1.667,1.667 2.5,2.5 0.667,12.333 0.667,24.667 0,37 -0.273,1.829 -1.107,3.329 -2.5,4.5 -7,0.667 -14,0.667 -21,0 -0.833,-0.833 -1.667,-1.667 -2.5,-2.5 -0.667,-12.667 -0.667,-25.333 0,-38 1.032,-1.527 2.199,-2.86 3.5,-4 z"
         id="path59" />
    </g>
    <g
       id="g60"
       style="clip-rule:evenodd;fill-rule:evenodd;image-rendering:optimizeQuality;shape-rendering:geometricPrecision;text-rendering:geometricPrecision"
       transform="matrix(0.30842656,0,0,0.30842656,-114.72011,-7.6281628)">
      <path
         style="opacity:1"
         fill="#21221e"
         d="m 499.5,219.5 c 0,2.667 0,5.333 0,8 -6.333,0 -12.667,0 -19,0 -0.658,-1.293 -0.992,-2.793 -1,-4.5 -0.195,-2.352 0.472,-4.352 2,-6 5.696,-0.83 11.363,-0.663 17,0.5 0.363,0.683 0.696,1.35 1,2 z"
         id="path60" />
    </g>
    <g
       id="g64"
       style="clip-rule:evenodd;fill-rule:evenodd;image-rendering:optimizeQuality;shape-rendering:geometricPrecision;text-rendering:geometricPrecision"
       transform="matrix(0.30842656,0,0,0.30842656,-114.72011,-7.6281628)">
      <path
         style="opacity:1"
         fill="#cfcfce"
         d="m 512.5,203.5 c -0.086,0.996 0.248,1.829 1,2.5 6.911,4.61 13.578,9.443 20,14.5 0,1.667 0,3.333 0,5 1,0 2,0 3,0 0.326,8.849 -0.007,17.516 -1,26 0.166,-8.34 0,-16.673 -0.5,-25 -7.702,7.869 -15.535,15.536 -23.5,23 0,-1.333 -0.667,-2 -2,-2 7.645,-7.979 15.312,-15.979 23,-24 -7.013,-6.263 -14.513,-11.929 -22.5,-17 -0.179,3.525 -0.679,6.859 -1.5,10 0,-3.667 0,-7.333 0,-11 1.699,-0.027 3.033,-0.694 4,-2 z"
         id="path64" />
    </g>
    <g
       id="g65"
       style="clip-rule:evenodd;fill-rule:evenodd;image-rendering:optimizeQuality;shape-rendering:geometricPrecision;text-rendering:geometricPrecision"
       transform="matrix(0.30842656,0,0,0.30842656,-114.72011,-7.6281628)">
      <path
         style="opacity:1"
         fill="#f6f6f6"
         d="m 558.5,227.5 c 0.167,18.336 0,36.67 -0.5,55 -0.5,0.5 -1,1 -1.5,1.5 -23.333,0.667 -46.667,0.667 -70,0 -0.981,-7.413 -1.314,-14.913 -1,-22.5 5.095,0.279 10.095,-0.055 15,-1 1.256,0.039 2.256,-0.461 3,-1.5 12,-0.333 24,-0.667 36,-1 0.5,-0.5 1,-1 1.5,-1.5 0.5,-10.661 0.667,-21.328 0.5,-32 4.679,-0.166 9.345,0.001 14,0.5 0.873,1.045 1.873,1.878 3,2.5 z"
         id="path65" />
    </g>
    <g
       id="g66"
       style="clip-rule:evenodd;fill-rule:evenodd;image-rendering:optimizeQuality;shape-rendering:geometricPrecision;text-rendering:geometricPrecision"
       transform="matrix(0.30842656,0,0,0.30842656,-114.72011,-7.6281628)">
      <path
         style="opacity:1"
         fill="#969694"
         d="m 499.5,219.5 c 0.977,2.787 1.31,5.787 1,9 -6.854,0.324 -13.521,-0.009 -20,-1 6.333,0 12.667,0 19,0 0,-2.667 0,-5.333 0,-8 z"
         id="path66" />
    </g>
    <g
       id="g67"
       style="clip-rule:evenodd;fill-rule:evenodd;image-rendering:optimizeQuality;shape-rendering:geometricPrecision;text-rendering:geometricPrecision"
       transform="matrix(0.30842656,0,0,0.30842656,-114.72011,-7.6281628)">
      <path
         style="opacity:1"
         fill="#21211e"
         d="m 509.5,247.5 c -0.992,-7.816 -1.326,-15.816 -1,-24 0,-2.333 0,-4.667 0,-7 0.821,-3.141 1.321,-6.475 1.5,-10 7.987,5.071 15.487,10.737 22.5,17 -7.688,8.021 -15.355,16.021 -23,24 z"
         id="path67" />
    </g>
    <g
       id="g69"
       style="clip-rule:evenodd;fill-rule:evenodd;image-rendering:optimizeQuality;shape-rendering:geometricPrecision;text-rendering:geometricPrecision"
       transform="matrix(0.30842656,0,0,0.30842656,-114.72011,-7.6281628)">
      <path
         style="opacity:1"
         fill="#1d1d1b"
         d="m 535.5,251.5 c -8.517,0.326 -16.85,-0.007 -25,-1 0.667,0 1,-0.333 1,-1 7.965,-7.464 15.798,-15.131 23.5,-23 0.5,8.327 0.666,16.66 0.5,25 z"
         id="path69" />
    </g>
    <g
       id="g70"
       style="clip-rule:evenodd;fill-rule:evenodd;image-rendering:optimizeQuality;shape-rendering:geometricPrecision;text-rendering:geometricPrecision"
       transform="matrix(0.30842656,0,0,0.30842656,-114.72011,-7.6281628)">
      <path
         style="opacity:1"
         fill="#8b8b89"
         d="m 508.5,223.5 c -0.326,8.184 0.008,16.184 1,24 -0.06,0.543 -0.393,0.876 -1,1 -1.321,-8.491 -1.321,-16.824 0,-25 z"
         id="path70" />
    </g>
    <g
       id="g73"
       style="clip-rule:evenodd;fill-rule:evenodd;image-rendering:optimizeQuality;shape-rendering:geometricPrecision;text-rendering:geometricPrecision"
       transform="matrix(0.30842656,0,0,0.30842656,-114.72011,-7.6281628)">
      <path
         style="opacity:1"
         fill="#a6a7a5"
         d="m 510.5,250.5 c 8.15,0.993 16.483,1.326 25,1 -8.509,1.321 -17.175,1.321 -26,0 0.124,-0.607 0.457,-0.94 1,-1 z"
         id="path73" />
    </g>
    <g
       id="g92"
       style="clip-rule:evenodd;fill-rule:evenodd;image-rendering:optimizeQuality;shape-rendering:geometricPrecision;text-rendering:geometricPrecision"
       transform="matrix(0.30842656,0,0,0.30842656,-114.72011,-7.6281628)">
      <path
         style="opacity:1"
         fill="#201f1e"
         d="m 561.5,231.5 c -0.166,10.006 0,20.006 0.5,30 1.385,1.051 2.385,2.384 3,4 0.667,10 0.667,20 0,30 -0.465,1.431 -1.299,2.597 -2.5,3.5 -4,0.333 -8,0.667 -12,1 -2.039,2.374 -4.372,4.374 -7,6 -14.333,0.667 -28.667,0.667 -43,0 -2.544,-1.755 -4.877,-3.755 -7,-6 -14.408,1.566 -19.408,-4.768 -15,-19 0.167,-5.167 0.333,-10.333 0.5,-15.5 3.324,-2.193 3.157,-3.526 -0.5,-4 0.763,-0.768 1.763,-1.268 3,-1.5 6.514,-0.82 12.847,-0.653 19,0.5 -4.905,0.945 -9.905,1.279 -15,1 -0.314,7.587 0.019,15.087 1,22.5 23.333,0.667 46.667,0.667 70,0 0.5,-0.5 1,-1 1.5,-1.5 0.5,-18.33 0.667,-36.664 0.5,-55 0.844,9.255 1.344,19.255 1.5,30 0.154,-9.414 0.654,-18.08 1.5,-26 z"
         id="path92" />
    </g>
    <g
       id="g93"
       style="clip-rule:evenodd;fill-rule:evenodd;image-rendering:optimizeQuality;shape-rendering:geometricPrecision;text-rendering:geometricPrecision"
       transform="matrix(0.30842656,0,0,0.30842656,-114.72011,-7.6281628)">
      <path
         style="opacity:1"
         fill="#e9e8e8"
         d="m 492.5,286.5 c 19.336,-0.167 38.67,0 58,0.5 1.277,2.466 1.277,4.966 0,7.5 -2.563,2.642 -5.229,5.142 -8,7.5 -14,0.667 -28,0.667 -42,0 -2.147,-3.115 -4.647,-5.948 -7.5,-8.5 -0.497,-2.31 -0.663,-4.643 -0.5,-7 z"
         id="path93" />
    </g>
    <g
       id="g94"
       style="clip-rule:evenodd;fill-rule:evenodd;image-rendering:optimizeQuality;shape-rendering:geometricPrecision;text-rendering:geometricPrecision"
       transform="matrix(0.30842656,0,0,0.30842656,-114.72011,-7.6281628)">
      <path
         style="opacity:1"
         fill="#2a2a29"
         d="m 506.5,288.5 c 10.339,-0.166 20.672,0 31,0.5 1.333,1.333 1.333,2.667 0,4 -10.333,0.667 -20.667,0.667 -31,0 -1.228,-1.49 -1.228,-2.99 0,-4.5 z"
         id="path94" />
    </g>
  </g>
</svg>
