<?xml version="1.0" encoding="UTF-8" standalone="no"?>
<!-- Created with Inkscape (http://www.inkscape.org/) -->

<svg
   width="96mm"
   height="96mm"
   viewBox="0 0 96 96"
   version="1.1"
   id="svg1"
   inkscape:version="1.4.2 (ebf0e940, 2025-05-08)"
   sodipodi:docname="truck.svg"
   xmlns:inkscape="http://www.inkscape.org/namespaces/inkscape"
   xmlns:sodipodi="http://sodipodi.sourceforge.net/DTD/sodipodi-0.dtd"
   xmlns="http://www.w3.org/2000/svg"
   xmlns:svg="http://www.w3.org/2000/svg">
  <sodipodi:namedview
     id="namedview1"
     pagecolor="#ffffff"
     bordercolor="#000000"
     borderopacity="0.25"
     inkscape:showpageshadow="2"
     inkscape:pageopacity="0.0"
     inkscape:pagecheckerboard="0"
     inkscape:deskcolor="#d1d1d1"
     inkscape:document-units="mm"
     inkscape:zoom="0.80444024"
     inkscape:cx="397.17059"
     inkscape:cy="362.36377"
     inkscape:window-width="1920"
     inkscape:window-height="1052"
     inkscape:window-x="0"
     inkscape:window-y="28"
     inkscape:window-maximized="0"
     inkscape:current-layer="layer1" />
  <defs
     id="defs1" />
  <g
     inkscape:label="Layer 1"
     inkscape:groupmode="layer"
     id="layer1">
    <g
       id="g2"
       style="clip-rule:evenodd;fill-rule:evenodd;image-rendering:optimizeQuality;shape-rendering:geometricPrecision;text-rendering:geometricPrecision"
       transform="matrix(0.30185828,0,0,0.30185828,-323.83793,-2.4510673)">
      <path
         style="opacity:1"
         fill="#b4b4b1"
         d="m 1248.5,45.5 c 5.23,-0.0557 10.23,0.611 15,2 -5.23,0.0557 -10.23,-0.611 -15,-2 z"
         id="path2" />
    </g>
    <g
       id="g3"
       style="clip-rule:evenodd;fill-rule:evenodd;image-rendering:optimizeQuality;shape-rendering:geometricPrecision;text-rendering:geometricPrecision"
       transform="matrix(0.30185828,0,0,0.30185828,-323.83793,-2.4510673)">
      <path
         style="opacity:1"
         fill="#292928"
         d="m 1248.5,45.5 c 4.77,1.389 9.77,2.0557 15,2 17.51,3.9808 24.18,14.9808 20,33 8.38,0.5217 12.05,4.6883 11,12.5 -3.7,0.8042 -7.2,0.3042 -10.5,-1.5 -0.67,12 -0.67,24 0,36 2.33,1 4,2.667 5,5 0.67,51.667 0.67,103.333 0,155 -0.66,1.824 -1.83,3.157 -3.5,4 -32.5,-0.832 -65.16,-1.332 -98,-1.5 -0.83,-0.833 -1.67,-1.667 -2.5,-2.5 -0.33,-51.333 -0.67,-102.667 -1,-154 -0.5,50.999 -0.67,101.999 -0.5,153 -1.17,-51.165 -1.33,-102.498 -0.5,-154 1.73,-1.902 3.56,-3.569 5.5,-5 1,-11.822 1.33,-23.822 1,-36 -1.29,-0.2373 -2.29,0.096 -3,1 -10.81,2.4983 -12.81,-0.6684 -6,-9.5 2.41,-1.7068 5.08,-2.5402 8,-2.5 -0.44,-7.4869 0.39,-14.8202 2.5,-22 4.66,-7.5646 11.49,-11.3979 20.5,-11.5 12.3,-1.2168 24.64,-1.7168 37,-1.5 z"
         id="path3" />
    </g>
    <g
       id="g4"
       style="clip-rule:evenodd;fill-rule:evenodd;image-rendering:optimizeQuality;shape-rendering:geometricPrecision;text-rendering:geometricPrecision"
       transform="matrix(0.30185828,0,0,0.30185828,-323.83793,-2.4510673)">
      <path
         style="opacity:1"
         fill="#cfcfcf"
         d="m 1208.5,51.5 c 0.71,0.904 1.71,1.2373 3,1 0.24,1.291 -0.1,2.291 -1,3 -5.16,-2.5773 -9.66,-1.244 -13.5,4 1.2,7.5347 1.7,15.2013 1.5,23 -0.83,-5.1509 -1.33,-10.4842 -1.5,-16 -1,1.3333 -2,1.3333 -3,0 -0.19,2.5356 -0.69,4.869 -1.5,7 -1.45,-12.4843 3.89,-19.8176 16,-22 z"
         id="path4" />
    </g>
    <g
       id="g5"
       style="clip-rule:evenodd;fill-rule:evenodd;image-rendering:optimizeQuality;shape-rendering:geometricPrecision;text-rendering:geometricPrecision"
       transform="matrix(0.30185828,0,0,0.30185828,-323.83793,-2.4510673)">
      <path
         style="opacity:1"
         fill="#f4f4f4"
         d="m 1282.5,87.5 c -0.71,-0.904 -1.71,-1.2373 -3,-1 0,13.667 0,27.333 0,41 -29,0 -58,0 -87,0 0,-13.333 0,-26.667 0,-40 -15.56,2.7382 -15.89,1.0715 -1,-5 0.98,-2.9281 1.32,-5.9281 1,-9 0.81,-2.131 1.31,-4.4644 1.5,-7 1,1.3333 2,1.3333 3,0 0.17,5.5158 0.67,10.8491 1.5,16 2.12,4.5904 4.95,8.5904 8.5,12 19.5,-5.288 39,-5.288 58.5,0 3.66,-3.3033 6.32,-7.3033 8,-12 1.33,-4.6667 1.33,-9.3333 0,-14 3.05,-9.994 -0.95,-14.994 -12,-15 -0.15,1.052 0.02,2.052 0.5,3 3,2.6667 6,5.3333 9,8 1.27,3.8951 1.77,7.8951 1.5,12 0,1 0,2 0,3 -19.04,-7.8734 -38.7,-9.7067 -59,-5.5 -4.65,1.1596 -8.99,2.9929 -13,5.5 -0.76,-4.9749 -0.59,-9.9749 0.5,-15 2.23,-2.1998 4.73,-4.0331 7.5,-5.5 1.32,-0.8159 1.99,-1.9826 2,-3.5 0.9,-0.709 1.24,-1.709 1,-3 -1.29,0.2373 -2.29,-0.096 -3,-1 1.12,-0.6558 2.45,-0.9892 4,-1 15.35,2.6166 30.68,2.6166 46,0 8.27,0.0506 14.77,3.3839 19.5,10 1.22,7.2552 1.89,14.5885 2,22 2.35,1.2143 4.85,2.0477 7.5,2.5 1.56,0.941 2.89,2.1076 4,3.5 -0.83,0.3333 -1.67,0.6667 -2.5,1 -2.23,-0.5329 -4.39,-1.1996 -6.5,-2 z"
         id="path5" />
    </g>
    <g
       id="g6"
       style="clip-rule:evenodd;fill-rule:evenodd;image-rendering:optimizeQuality;shape-rendering:geometricPrecision;text-rendering:geometricPrecision"
       transform="matrix(0.30185828,0,0,0.30185828,-323.83793,-2.4510673)">
      <path
         style="opacity:1"
         fill="#232321"
         d="m 1273.5,68.5 c 0.31,2.8854 -0.03,5.5521 -1,8 0.27,-4.1049 -0.23,-8.1049 -1.5,-12 -3,-2.6667 -6,-5.3333 -9,-8 -0.48,-0.948 -0.65,-1.948 -0.5,-3 11.05,0.006 15.05,5.006 12,15 z"
         id="path6" />
    </g>
    <g
       id="g7"
       style="clip-rule:evenodd;fill-rule:evenodd;image-rendering:optimizeQuality;shape-rendering:geometricPrecision;text-rendering:geometricPrecision"
       transform="matrix(0.30185828,0,0,0.30185828,-323.83793,-2.4510673)">
      <path
         style="opacity:1"
         fill="#242422"
         d="m 1210.5,55.5 c -0.01,1.5174 -0.68,2.6841 -2,3.5 -2.77,1.4669 -5.27,3.3002 -7.5,5.5 -1.09,5.0251 -1.26,10.0251 -0.5,15 4.01,-2.5071 8.35,-4.3404 13,-5.5 20.3,-4.2067 39.96,-2.3734 59,5.5 0.61,0.891 0.94,1.891 1,3 -1.68,4.6967 -4.34,8.6967 -8,12 -19.5,-5.288 -39,-5.288 -58.5,0 -3.55,-3.4096 -6.38,-7.4096 -8.5,-12 0.2,-7.7987 -0.3,-15.4653 -1.5,-23 3.84,-5.244 8.34,-6.5773 13.5,-4 z"
         id="path7" />
    </g>
    <g
       id="g8"
       style="clip-rule:evenodd;fill-rule:evenodd;image-rendering:optimizeQuality;shape-rendering:geometricPrecision;text-rendering:geometricPrecision"
       transform="matrix(0.30185828,0,0,0.30185828,-323.83793,-2.4510673)">
      <path
         style="opacity:1"
         fill="#5a5a59"
         d="m 1273.5,68.5 c 1.33,4.6667 1.33,9.3333 0,14 -0.06,-1.109 -0.39,-2.109 -1,-3 0,-1 0,-2 0,-3 0.97,-2.4479 1.31,-5.1146 1,-8 z"
         id="path8" />
    </g>
    <g
       id="g9"
       style="clip-rule:evenodd;fill-rule:evenodd;image-rendering:optimizeQuality;shape-rendering:geometricPrecision;text-rendering:geometricPrecision"
       transform="matrix(0.30185828,0,0,0.30185828,-323.83793,-2.4510673)">
      <path
         style="opacity:1"
         fill="#646463"
         d="m 1282.5,87.5 c -1.66,13.135 -2.66,26.469 -3,40 0,-13.667 0,-27.333 0,-41 1.29,-0.2373 2.29,0.096 3,1 z"
         id="path9" />
    </g>
    <g
       id="g11"
       style="clip-rule:evenodd;fill-rule:evenodd;image-rendering:optimizeQuality;shape-rendering:geometricPrecision;text-rendering:geometricPrecision"
       transform="matrix(0.30185828,0,0,0.30185828,-323.83793,-2.4510673)">
      <path
         style="opacity:1"
         fill="#717170"
         d="m 1186.5,92.5 c 0.71,-0.904 1.71,-1.2373 3,-1 0.33,12.178 0,24.178 -1,36 0.65,-12.048 -0.02,-23.715 -2,-35 z"
         id="path11" />
    </g>
    <g
       id="g12"
       style="clip-rule:evenodd;fill-rule:evenodd;image-rendering:optimizeQuality;shape-rendering:geometricPrecision;text-rendering:geometricPrecision"
       transform="matrix(0.30185828,0,0,0.30185828,-323.83793,-2.4510673)">
      <path
         style="opacity:1"
         fill="#272726"
         d="m 1275.5,87.5 c 1.33,5.6275 2,11.6275 2,18 -0.17,6 -0.33,12 -0.5,18 -2.63,2.692 -4.97,2.359 -7,-1 -0.67,-9 -0.67,-18 0,-27 1.6,-2.8695 3.43,-5.5361 5.5,-8 z"
         id="path12" />
    </g>
    <g
       id="g13"
       style="clip-rule:evenodd;fill-rule:evenodd;image-rendering:optimizeQuality;shape-rendering:geometricPrecision;text-rendering:geometricPrecision"
       transform="matrix(0.30185828,0,0,0.30185828,-323.83793,-2.4510673)">
      <path
         style="opacity:1"
         fill="#1f1f1e"
         d="m 1195.5,88.5 c 1.52,0.0106 2.68,0.6772 3.5,2 1,2 2,4 3,6 0.67,8.667 0.67,17.333 0,26 -1.42,2.695 -3.42,3.361 -6,2 -0.5,-11.995 -0.67,-23.995 -0.5,-36 z"
         id="path13" />
    </g>
    <g
       id="g15"
       style="clip-rule:evenodd;fill-rule:evenodd;image-rendering:optimizeQuality;shape-rendering:geometricPrecision;text-rendering:geometricPrecision"
       transform="matrix(0.30185828,0,0,0.30185828,-323.83793,-2.4510673)">
      <path
         style="opacity:1"
         fill="#0d0d0c"
         d="m 1280.5,136.5 c -29.67,0 -59.33,0 -89,0 0,49 0,98 0,147 -1,-49.164 -1.33,-98.497 -1,-148 30.17,-0.331 60.17,0.002 90,1 z"
         id="path15" />
    </g>
    <g
       id="g20"
       style="clip-rule:evenodd;fill-rule:evenodd;image-rendering:optimizeQuality;shape-rendering:geometricPrecision;text-rendering:geometricPrecision"
       transform="matrix(0.30185828,0,0,0.30185828,-323.83793,-2.4510673)">
      <path
         style="opacity:1"
         fill="#80807f"
         d="m 1280.5,136.5 c 0,0.333 0,0.667 0,1 1,48.83 1.33,97.83 1,147 -30.17,0.331 -60.17,-0.002 -90,-1 0,-49 0,-98 0,-147 29.67,0 59.33,0 89,0 z"
         id="path20" />
    </g>
    <g
       id="g21"
       style="clip-rule:evenodd;fill-rule:evenodd;image-rendering:optimizeQuality;shape-rendering:geometricPrecision;text-rendering:geometricPrecision"
       transform="matrix(0.30185828,0,0,0.30185828,-323.83793,-2.4510673)">
      <path
         style="opacity:1"
         fill="#f9f9f9"
         d="m 1280.5,137.5 c 0,48.667 0,97.333 0,146 -29.33,0 -58.67,0 -88,0 0,-48.667 0,-97.333 0,-146 29.33,0 58.67,0 88,0 z"
         id="path21" />
    </g>
    <g
       id="g24"
       style="clip-rule:evenodd;fill-rule:evenodd;image-rendering:optimizeQuality;shape-rendering:geometricPrecision;text-rendering:geometricPrecision"
       transform="matrix(0.30185828,0,0,0.30185828,-323.83793,-2.4510673)">
      <path
         style="opacity:1"
         fill="#232323"
         d="m 1285.5,291.5 c -32.6,1.159 -65.26,1.325 -98,0.5 -1.96,-1.451 -3.3,-3.284 -4,-5.5 -0.17,-51.001 0,-102.001 0.5,-153 0.33,51.333 0.67,102.667 1,154 0.83,0.833 1.67,1.667 2.5,2.5 32.84,0.168 65.5,0.668 98,1.5 z"
         id="path24" />
    </g>
  </g>
</svg>
