<?xml version="1.0" encoding="UTF-8" standalone="no"?>
<!-- Created with Inkscape (http://www.inkscape.org/) -->

<svg
   width="96mm"
   height="96mm"
   viewBox="0 0 96 96"
   version="1.1"
   id="svg1"
   inkscape:version="1.4.2 (ebf0e940, 2025-05-08)"
   sodipodi:docname="animal.svg"
   xmlns:inkscape="http://www.inkscape.org/namespaces/inkscape"
   xmlns:sodipodi="http://sodipodi.sourceforge.net/DTD/sodipodi-0.dtd"
   xmlns="http://www.w3.org/2000/svg"
   xmlns:svg="http://www.w3.org/2000/svg">
  <sodipodi:namedview
     id="namedview1"
     pagecolor="#ffffff"
     bordercolor="#000000"
     borderopacity="0.25"
     inkscape:showpageshadow="2"
     inkscape:pageopacity="0.0"
     inkscape:pagecheckerboard="0"
     inkscape:deskcolor="#d1d1d1"
     inkscape:document-units="mm"
     inkscape:zoom="0.80444024"
     inkscape:cx="397.17059"
     inkscape:cy="362.36377"
     inkscape:window-width="1920"
     inkscape:window-height="1052"
     inkscape:window-x="0"
     inkscape:window-y="28"
     inkscape:window-maximized="0"
     inkscape:current-layer="layer1" />
  <defs
     id="defs1" />
  <g
     inkscape:label="Layer 1"
     inkscape:groupmode="layer"
     id="layer1">
    <g
       id="g167"
       style="clip-rule:evenodd;fill-rule:evenodd;image-rendering:optimizeQuality;shape-rendering:geometricPrecision;text-rendering:geometricPrecision"
       transform="matrix(0.30880375,0,0,0.30880375,-219.52328,-121.53924)">
      <path
         style="opacity:1"
         fill="#232322"
         d="m 830.5,445.5 c 9.847,5.353 16.681,13.353 20.5,24 4.757,11.205 5.591,22.538 2.5,34 -0.801,-2.008 -2.134,-2.508 -4,-1.5 1.154,-0.914 0.987,-1.747 -0.5,-2.5 -2.134,2.078 -1.968,3.912 0.5,5.5 -1.625,0.853 -1.958,1.853 -1,3 -0.948,0.483 -1.948,0.649 -3,0.5 -0.204,3.045 -0.204,5.879 0,8.5 -1.049,0.492 -2.049,0.326 -3,-0.5 -1.537,2.953 -3.87,5.12 -7,6.5 -1.665,-0.744 -3.331,-0.577 -5,0.5 -1.555,-1.646 -3.221,-1.979 -5,-1 -1.501,-1.252 -3.168,-2.252 -5,-3 1.129,-2.029 0.629,-2.363 -1.5,-1 -1.242,-2.041 -3.075,-3.207 -5.5,-3.5 1.333,-0.667 2.667,-1.333 4,-2 -1.27,-0.9 -2.27,-2.066 -3,-3.5 -0.411,0.762 -0.577,1.762 -0.5,3 -1.667,-0.667 -3.333,-1.333 -5,-2 -0.456,-1.244 0.044,-2.077 1.5,-2.5 -1.333,-0.667 -2.333,-1.667 -3,-3 0.568,-1.652 1.901,-3.318 4,-5 -1,-0.333 -2,-0.667 -3,-1 0.333,-1 0.667,-2 1,-3 -0.949,-0.617 -1.782,-0.451 -2.5,0.5 -0.687,2.068 -0.52,4.068 0.5,6 -0.825,0.886 -1.825,1.219 -3,1 -1.827,-5.102 -3.16,-10.102 -4,-15 0.525,-0.692 1.192,-1.192 2,-1.5 -1.187,-1.019 -2.187,-2.186 -3,-3.5 1.527,-1.444 3.194,-2.278 5,-2.5 -0.367,-2.244 -1.367,-2.744 -3,-1.5 -0.808,-0.308 -1.475,-0.808 -2,-1.5 1.177,-2.719 2.843,-4.219 5,-4.5 -1.669,-0.193 -3.336,-1.193 -5,-3 0.966,-3.852 3.3,-6.519 7,-8 0.808,0.308 1.475,0.808 2,1.5 -1.138,1.734 -1.638,3.568 -1.5,5.5 1.674,-1.509 3.34,-2.176 5,-2 0,-1.333 0,-2.667 0,-4 1.117,0.165 2.284,0.498 3.5,1 1.172,-0.419 2.172,-1.085 3,-2 -2.062,-1.494 -4.062,-3.16 -6,-5 0.477,-0.978 1.143,-1.811 2,-2.5 -0.333,-0.333 -0.667,-0.667 -1,-1 1.692,-1.401 2.359,-3.234 2,-5.5 5.832,-0.209 11.499,0.291 17,1.5 -1.537,-1.11 -2.203,-2.61 -2,-4.5 z"
         id="path167" />
    </g>
    <g
       id="g168"
       style="clip-rule:evenodd;fill-rule:evenodd;image-rendering:optimizeQuality;shape-rendering:geometricPrecision;text-rendering:geometricPrecision"
       transform="matrix(0.30880375,0,0,0.30880375,-219.52328,-121.53924)">
      <path
         style="opacity:1"
         fill="#242423"
         d="m 924.5,461.5 c 1.276,2.062 2.11,4.396 2.5,7 0.667,7.333 0.667,14.667 0,22 -0.232,1.237 -0.732,2.237 -1.5,3 -2.106,-2.034 -2.106,-4.534 0,-7.5 -0.571,-1.205 -1.238,-2.372 -2,-3.5 -1.612,5.226 -2.779,10.559 -3.5,16 -1.147,-0.958 -2.147,-0.625 -3,1 -2.351,-2.933 -3.351,-2.599 -3,1 0.333,-0.333 0.667,-0.667 1,-1 0.49,1.293 0.657,2.627 0.5,4 -2.549,-0.059 -4.549,0.941 -6,3 -1.932,-1.02 -3.932,-1.187 -6,-0.5 0.193,1.645 0.36,3.479 0.5,5.5 1.171,1.393 2.671,2.227 4.5,2.5 -0.774,2.44 -2.44,3.773 -5,4 0.457,0.414 0.791,0.914 1,1.5 -1,1.333 -2,2.667 -3,4 -3.521,0.258 -7.021,0.592 -10.5,1 -1,-1 -2,-2 -3,-3 -3.346,0.589 -3.346,-0.078 0,-2 1.016,1.134 1.683,0.801 2,-1 1.018,1.206 1.518,0.873 1.5,-1 -2.173,-4.95 -3.507,-4.95 -4,0 -2.757,0.82 -4.924,0.82 -6.5,0 -0.273,-1.601 -0.773,-3.101 -1.5,-4.5 1.943,0.305 3.943,0.305 6,0 0.857,-0.689 1.523,-1.522 2,-2.5 -1.333,-1.333 -1.333,-2.667 0,-4 -0.346,-1.196 -0.846,-1.196 -1.5,0 -1.162,-2.324 -2.329,-4.658 -3.5,-7 -1.553,1.765 -1.886,3.598 -1,5.5 -0.833,0.833 -1.667,1.667 -2.5,2.5 -0.318,-1.561 -1.151,-2.728 -2.5,-3.5 0.482,-1.008 0.648,-2.175 0.5,-3.5 0.414,0.457 0.914,0.791 1.5,1 1.275,-2.217 2.275,-4.551 3,-7 -0.604,-2.511 -0.937,-5.011 -1,-7.5 0.749,-1.734 1.249,-3.567 1.5,-5.5 0.741,1.141 1.575,1.141 2.5,0 0.692,0.525 1.192,1.192 1.5,2 0.318,-1.561 1.151,-2.728 2.5,-3.5 -1.735,-0.651 -3.402,-0.485 -5,0.5 -1.219,-0.763 -2.219,-1.763 -3,-3 -0.824,2.248 -1.824,2.414 -3,0.5 0.438,-6.096 1.772,-12.263 4,-18.5 0.586,0.209 1.086,0.543 1.5,1 0.972,-1.805 2.139,-3.472 3.5,-5 3.126,-1.629 5.793,-3.795 8,-6.5 4.667,-0.667 9.333,-0.667 14,0 4.12,2.167 7.12,4.834 9,8 -0.808,0.308 -1.475,0.808 -2,1.5 1.306,1.412 2.14,3.079 2.5,5 0.691,-2.391 1.691,-2.391 3,0 -0.471,2.518 -1.638,4.852 -3.5,7 0.891,1.09 1.891,1.09 3,0 0.833,2 1.667,4 2.5,6 3.124,-4.502 2.957,-8.835 -0.5,-13 0.346,-1.196 0.846,-1.196 1.5,0 0.464,-0.594 0.631,-1.261 0.5,-2 z"
         id="path168" />
    </g>
    <g
       id="g173"
       style="clip-rule:evenodd;fill-rule:evenodd;image-rendering:optimizeQuality;shape-rendering:geometricPrecision;text-rendering:geometricPrecision"
       transform="matrix(0.30880375,0,0,0.30880375,-219.52328,-121.53924)">
      <path
         style="opacity:1"
         fill="#1e1d1c"
         d="m 830.5,445.5 c -0.203,1.89 0.463,3.39 2,4.5 -5.501,-1.209 -11.168,-1.709 -17,-1.5 0.359,2.266 -0.308,4.099 -2,5.5 0.333,0.333 0.667,0.667 1,1 -0.857,0.689 -1.523,1.522 -2,2.5 1.938,1.84 3.938,3.506 6,5 -0.828,0.915 -1.828,1.581 -3,2 -1.216,-0.502 -2.383,-0.835 -3.5,-1 0,1.333 0,2.667 0,4 -1.66,-0.176 -3.326,0.491 -5,2 -0.138,-1.932 0.362,-3.766 1.5,-5.5 -0.525,-0.692 -1.192,-1.192 -2,-1.5 -3.7,1.481 -6.034,4.148 -7,8 1.664,1.807 3.331,2.807 5,3 -2.157,0.281 -3.823,1.781 -5,4.5 0.525,0.692 1.192,1.192 2,1.5 1.633,-1.244 2.633,-0.744 3,1.5 -1.806,0.222 -3.473,1.056 -5,2.5 0.813,1.314 1.813,2.481 3,3.5 -0.808,0.308 -1.475,0.808 -2,1.5 0.84,4.898 2.173,9.898 4,15 1.175,0.219 2.175,-0.114 3,-1 -1.02,-1.932 -1.187,-3.932 -0.5,-6 0.718,-0.951 1.551,-1.117 2.5,-0.5 -0.333,1 -0.667,2 -1,3 1,0.333 2,0.667 3,1 -2.099,1.682 -3.432,3.348 -4,5 0.667,1.333 1.667,2.333 3,3 -1.456,0.423 -1.956,1.256 -1.5,2.5 1.667,0.667 3.333,1.333 5,2 -0.077,-1.238 0.089,-2.238 0.5,-3 0.73,1.434 1.73,2.6 3,3.5 -1.333,0.667 -2.667,1.333 -4,2 2.425,0.293 4.258,1.459 5.5,3.5 2.129,-1.363 2.629,-1.029 1.5,1 1.832,0.748 3.499,1.748 5,3 1.779,-0.979 3.445,-0.646 5,1 1.669,-1.077 3.335,-1.244 5,-0.5 3.13,-1.38 5.463,-3.547 7,-6.5 0.951,0.826 1.951,0.992 3,0.5 -0.204,-2.621 -0.204,-5.455 0,-8.5 1.052,0.149 2.052,-0.017 3,-0.5 -0.958,-1.147 -0.625,-2.147 1,-3 -2.468,-1.588 -2.634,-3.422 -0.5,-5.5 1.487,0.753 1.654,1.586 0.5,2.5 1.866,-1.008 3.199,-0.508 4,1.5 -3.024,18.551 -13.691,26.385 -32,23.5 -11.041,-5.717 -18.541,-14.55 -22.5,-26.5 -5.552,-15.836 -4.552,-31.169 3,-46 7.17,-10.333 16.67,-13.333 28.5,-9 z"
         id="path173" />
    </g>
    <g
       id="g176"
       style="clip-rule:evenodd;fill-rule:evenodd;image-rendering:optimizeQuality;shape-rendering:geometricPrecision;text-rendering:geometricPrecision"
       transform="matrix(0.30880375,0,0,0.30880375,-219.52328,-121.53924)">
      <path
         style="opacity:1"
         fill="#20201d"
         d="m 924.5,461.5 c 0.131,0.739 -0.036,1.406 -0.5,2 -0.654,-1.196 -1.154,-1.196 -1.5,0 3.457,4.165 3.624,8.498 0.5,13 -0.833,-2 -1.667,-4 -2.5,-6 -1.109,1.09 -2.109,1.09 -3,0 1.862,-2.148 3.029,-4.482 3.5,-7 -1.309,-2.391 -2.309,-2.391 -3,0 -0.36,-1.921 -1.194,-3.588 -2.5,-5 0.525,-0.692 1.192,-1.192 2,-1.5 -1.88,-3.166 -4.88,-5.833 -9,-8 -4.667,-0.667 -9.333,-0.667 -14,0 -2.207,2.705 -4.874,4.871 -8,6.5 -1.361,1.528 -2.528,3.195 -3.5,5 -0.414,-0.457 -0.914,-0.791 -1.5,-1 -2.228,6.237 -3.562,12.404 -4,18.5 1.176,1.914 2.176,1.748 3,-0.5 0.781,1.237 1.781,2.237 3,3 1.598,-0.985 3.265,-1.151 5,-0.5 -1.349,0.772 -2.182,1.939 -2.5,3.5 -0.308,-0.808 -0.808,-1.475 -1.5,-2 -0.925,1.141 -1.759,1.141 -2.5,0 -0.251,1.933 -0.751,3.766 -1.5,5.5 0.063,2.489 0.396,4.989 1,7.5 -0.725,2.449 -1.725,4.783 -3,7 -0.586,-0.209 -1.086,-0.543 -1.5,-1 0.148,1.325 -0.018,2.492 -0.5,3.5 1.349,0.772 2.182,1.939 2.5,3.5 0.833,-0.833 1.667,-1.667 2.5,-2.5 -0.886,-1.902 -0.553,-3.735 1,-5.5 1.171,2.342 2.338,4.676 3.5,7 0.654,-1.196 1.154,-1.196 1.5,0 -1.333,1.333 -1.333,2.667 0,4 -0.477,0.978 -1.143,1.811 -2,2.5 -2.057,0.305 -4.057,0.305 -6,0 0.727,1.399 1.227,2.899 1.5,4.5 1.576,0.82 3.743,0.82 6.5,0 0.493,-4.95 1.827,-4.95 4,0 0.018,1.873 -0.482,2.206 -1.5,1 -0.317,1.801 -0.984,2.134 -2,1 -3.346,1.922 -3.346,2.589 0,2 1,1 2,2 3,3 3.479,-0.408 6.979,-0.742 10.5,-1 1,-1.333 2,-2.667 3,-4 -0.209,-0.586 -0.543,-1.086 -1,-1.5 2.56,-0.227 4.226,-1.56 5,-4 -1.829,-0.273 -3.329,-1.107 -4.5,-2.5 -0.14,-2.021 -0.307,-3.855 -0.5,-5.5 2.068,-0.687 4.068,-0.52 6,0.5 1.451,-2.059 3.451,-3.059 6,-3 0.157,-1.373 -0.01,-2.707 -0.5,-4 -0.333,0.333 -0.667,0.667 -1,1 -0.351,-3.599 0.649,-3.933 3,-1 0.853,-1.625 1.853,-1.958 3,-1 0.721,-5.441 1.888,-10.774 3.5,-16 0.762,1.128 1.429,2.295 2,3.5 -2.106,2.966 -2.106,5.466 0,7.5 -2.017,12.536 -8.017,22.703 -18,30.5 -18.813,8.181 -31.313,2.348 -37.5,-17.5 -4.756,-18.554 -1.423,-35.554 10,-51 5.821,-6.908 13.154,-10.908 22,-12 11.479,0.975 18.979,6.975 22.5,18 z"
         id="path176" />
    </g>
    <g
       id="g188"
       style="clip-rule:evenodd;fill-rule:evenodd;image-rendering:optimizeQuality;shape-rendering:geometricPrecision;text-rendering:geometricPrecision"
       transform="matrix(0.30880375,0,0,0.30880375,-219.52328,-121.53924)">
      <path
         style="opacity:1"
         fill="#232322"
         d="m 971.5,546.5 c -2.473,0.104 -3.139,1.104 -2,3 -1.829,1.656 -3.163,3.656 -4,6 -0.774,1.211 -1.607,1.211 -2.5,0 -1.113,1.26 -1.28,2.427 -0.5,3.5 -1.124,0.249 -2.124,0.749 -3,1.5 0.826,0.951 0.992,1.951 0.5,3 -2.326,1.955 -4.659,3.955 -7,6 -0.333,-0.667 -0.667,-1.333 -1,-2 -1.691,2.209 -1.524,4.042 0.5,5.5 -1.242,3.357 -2.076,3.19 -2.5,-0.5 -1.648,1.217 -3.481,2.05 -5.5,2.5 1.493,1.156 1.326,1.99 -0.5,2.5 -2.298,-1.127 -4.465,-0.794 -6.5,1 -2.251,-2.187 -4.751,-2.853 -7.5,-2 -1.951,-1.637 -1.784,-3.137 0.5,-4.5 -1.572,-3.417 -2.739,-3.251 -3.5,0.5 -0.724,-2.459 -2.057,-3.459 -4,-3 -1.368,-1.493 -1.535,-2.993 -0.5,-4.5 -0.994,-1.329 -1.994,-2.662 -3,-4 0.509,-1.169 1.342,-2.002 2.5,-2.5 1.844,1.211 2.678,2.544 2.5,4 1.146,-0.645 2.146,-1.478 3,-2.5 -0.26,-2.39 -0.26,-4.89 0,-7.5 -0.414,-2.91 -1.414,-5.577 -3,-8 0.346,-1.196 0.846,-1.196 1.5,0 -0.794,-1.986 -0.294,-3.819 1.5,-5.5 -2.473,-1.925 -2.473,-3.758 0,-5.5 1,1.333 2,1.333 3,0 0.98,-2.586 1.313,-5.253 1,-8 2,0 4,0 6,0 0.059,-2.549 -0.941,-4.549 -3,-6 0.667,-2 2,-3.333 4,-4 1.211,0.774 1.211,1.607 0,2.5 2.287,-0.958 3.953,-0.124 5,2.5 -1.333,0.667 -2.667,1.333 -4,2 3.394,0.218 6.728,0.552 10,1 0,-2 0,-4 0,-6 -1.322,-0.17 -2.489,0.163 -3.5,1 -0.617,-0.949 -0.451,-1.782 0.5,-2.5 -2.667,-0.667 -2.667,-1.333 0,-2 -0.72,-2.122 -1.887,-2.622 -3.5,-1.5 -0.456,-1.244 0.044,-2.077 1.5,-2.5 -0.594,-0.464 -1.261,-0.631 -2,-0.5 16.457,-4.335 26.624,1.998 30.5,19 0.667,4.667 0.667,9.333 0,14 -0.21,1.558 -0.71,2.891 -1.5,4 z"
         id="path188" />
    </g>
    <g
       id="g194"
       style="clip-rule:evenodd;fill-rule:evenodd;image-rendering:optimizeQuality;shape-rendering:geometricPrecision;text-rendering:geometricPrecision"
       transform="matrix(0.30880375,0,0,0.30880375,-219.52328,-121.53924)">
      <path
         style="opacity:1"
         fill="#242422"
         d="m 807.5,545.5 c 0.934,1.068 1.268,2.401 1,4 -0.737,1.882 -1.904,2.548 -3.5,2 -1.357,2.155 -1.524,4.322 -0.5,6.5 -0.827,2.407 -1.827,4.74 -3,7 0.085,1.107 0.419,2.107 1,3 -1.849,1.68 -3.849,3.18 -6,4.5 1.006,0.896 1.006,1.562 0,2 -2.12,-5.364 -3.453,-5.031 -4,1 -2.759,1.94 -5.259,2.273 -7.5,1 -0.667,0.667 -1.333,1.333 -2,2 -1.252,-1.501 -2.252,-3.168 -3,-5 -0.308,0.808 -0.808,1.475 -1.5,2 -1.615,-0.654 -3.282,-1.154 -5,-1.5 0.667,-0.333 1.333,-0.667 2,-1 -1.333,-0.333 -2.667,-0.667 -4,-1 0.333,-0.333 0.667,-0.667 1,-1 -1.481,-0.98 -2.815,-2.147 -4,-3.5 -0.586,0.209 -1.086,0.543 -1.5,1 -0.684,-1.284 -0.517,-2.451 0.5,-3.5 -1.293,-0.49 -2.627,-0.657 -4,-0.5 1.323,-2.781 1.156,-5.447 -0.5,-8 -0.423,1.456 -1.256,1.956 -2.5,1.5 0.617,-2.388 0.95,-4.721 1,-7 -0.884,-1.098 -1.884,-1.598 -3,-1.5 1.639,-2.54 1.306,-4.707 -1,-6.5 2.468,-1.588 2.634,-3.422 0.5,-5.5 -0.317,1.801 -0.984,2.134 -2,1 -0.163,-2.176 -0.996,-4.009 -2.5,-5.5 1.907,-2.792 3.073,-5.958 3.5,-9.5 0.833,-1.5 2,-2.667 3.5,-3.5 -0.837,-1.011 -1.17,-2.178 -1,-3.5 2.369,0.351 4.703,0.518 7,0.5 -1.905,-0.826 -2.239,-1.993 -1,-3.5 0.667,0.667 1.333,1.333 2,2 0.359,-1.417 1.525,-2.75 3.5,-4 1,1.333 2,1.333 3,0 1.333,0.667 2.333,1.667 3,3 0.561,-0.522 1.228,-0.855 2,-1 3.562,1.68 6.229,3.68 8,6 0.667,-0.667 1.333,-1.333 2,-2 0.202,1.756 0.702,3.422 1.5,5 3.123,2.225 5.79,4.891 8,8 2.125,5.96 4.125,11.96 6,18 2.383,0.962 3.383,-0.038 3,-3 z"
         id="path194" />
    </g>
    <g
       id="g200"
       style="clip-rule:evenodd;fill-rule:evenodd;image-rendering:optimizeQuality;shape-rendering:geometricPrecision;text-rendering:geometricPrecision"
       transform="matrix(0.30880375,0,0,0.30880375,-219.52328,-121.53924)">
      <path
         style="opacity:1"
         fill="#1f1f1d"
         d="m 942.5,509.5 c 0.739,-0.131 1.406,0.036 2,0.5 -1.456,0.423 -1.956,1.256 -1.5,2.5 1.613,-1.122 2.78,-0.622 3.5,1.5 -2.667,0.667 -2.667,1.333 0,2 -0.951,0.718 -1.117,1.551 -0.5,2.5 1.011,-0.837 2.178,-1.17 3.5,-1 0,2 0,4 0,6 -3.272,-0.448 -6.606,-0.782 -10,-1 1.333,-0.667 2.667,-1.333 4,-2 -1.047,-2.624 -2.713,-3.458 -5,-2.5 1.211,-0.893 1.211,-1.726 0,-2.5 -2,0.667 -3.333,2 -4,4 2.059,1.451 3.059,3.451 3,6 -2,0 -4,0 -6,0 0.313,2.747 -0.02,5.414 -1,8 -1,1.333 -2,1.333 -3,0 -2.473,1.742 -2.473,3.575 0,5.5 -1.794,1.681 -2.294,3.514 -1.5,5.5 -0.654,-1.196 -1.154,-1.196 -1.5,0 1.586,2.423 2.586,5.09 3,8 -0.26,2.61 -0.26,5.11 0,7.5 -0.854,1.022 -1.854,1.855 -3,2.5 0.178,-1.456 -0.656,-2.789 -2.5,-4 -1.158,0.498 -1.991,1.331 -2.5,2.5 1.006,1.338 2.006,2.671 3,4 -1.035,1.507 -0.868,3.007 0.5,4.5 1.943,-0.459 3.276,0.541 4,3 0.761,-3.751 1.928,-3.917 3.5,-0.5 -2.284,1.363 -2.451,2.863 -0.5,4.5 2.749,-0.853 5.249,-0.187 7.5,2 2.035,-1.794 4.202,-2.127 6.5,-1 1.826,-0.51 1.993,-1.344 0.5,-2.5 2.019,-0.45 3.852,-1.283 5.5,-2.5 0.424,3.69 1.258,3.857 2.5,0.5 -2.024,-1.458 -2.191,-3.291 -0.5,-5.5 0.333,0.667 0.667,1.333 1,2 2.341,-2.045 4.674,-4.045 7,-6 0.492,-1.049 0.326,-2.049 -0.5,-3 0.876,-0.751 1.876,-1.251 3,-1.5 -0.78,-1.073 -0.613,-2.24 0.5,-3.5 0.893,1.211 1.726,1.211 2.5,0 0.837,-2.344 2.171,-4.344 4,-6 -1.139,-1.896 -0.473,-2.896 2,-3 -2.968,17.799 -12.968,29.632 -30,35.5 -8.288,1.46 -15.122,-1.04 -20.5,-7.5 -10.671,-23.041 -6.505,-43.208 12.5,-60.5 2.743,-2.038 5.743,-3.538 9,-4.5 z"
         id="path200" />
    </g>
    <g
       id="g207"
       style="clip-rule:evenodd;fill-rule:evenodd;image-rendering:optimizeQuality;shape-rendering:geometricPrecision;text-rendering:geometricPrecision"
       transform="matrix(0.30880375,0,0,0.30880375,-219.52328,-121.53924)">
      <path
         style="opacity:1"
         fill="#242423"
         d="m 926.5,596.5 c 1.904,0.238 3.238,1.238 4,3 -1.571,0.697 -3.071,1.03 -4.5,1 -0.494,1.634 -0.66,3.301 -0.5,5 5.883,2.386 9.383,6.719 10.5,13 1.012,5.85 0.512,11.516 -1.5,17 1.355,1.175 1.188,2.175 -0.5,3 -1.049,-1.017 -2.216,-1.184 -3.5,-0.5 1.449,1.117 3.116,1.784 5,2 -2.254,1.054 -2.587,2.554 -1,4.5 -0.855,0.793 -1.689,0.46 -2.5,-1 -3.488,2.237 -3.322,3.904 0.5,5 -5.267,7.476 -12.601,11.643 -22,12.5 -4.333,0.667 -8.667,0.667 -13,0 -7.384,-2.128 -14.717,-4.461 -22,-7 -7.619,-1.429 -15.285,-1.762 -23,-1 -8.945,2.871 -17.945,5.538 -27,8 -29.698,0.815 -43.864,-13.685 -42.5,-43.5 0.705,-2.976 1.871,-5.642 3.5,-8 -0.085,1.495 0.581,2.495 2,3 3.012,-3.511 6.178,-6.844 9.5,-10 1.245,-0.039 2.578,0.295 4,1 0.5,-0.167 1,-0.333 1.5,-0.5 -1.333,-0.667 -1.333,-1.333 0,-2 3.741,-0.694 7.241,-1.861 10.5,-3.5 0.689,0.857 1.522,1.523 2.5,2 3.471,-2.96 7.304,-5.294 11.5,-7 0.833,1 1.667,2 2.5,3 1.333,-1 1.333,-2 0,-3 -2.607,-0.637 -4.94,-1.804 -7,-3.5 1.473,-0.71 2.14,-1.876 2,-3.5 2.041,-0.354 3.874,-0.354 5.5,0 0.333,-2 0.667,-4 1,-6 0.333,0.333 0.667,0.667 1,1 0.635,-1.466 1.469,-2.8 2.5,-4 -1.506,-1.247 -3.006,-1.247 -4.5,0 -1.991,-3.033 -1.324,-5.367 2,-7 0.667,0.667 1.333,1.333 2,2 1.547,-2.387 3.713,-3.72 6.5,-4 0.143,-1.762 -0.191,-3.429 -1,-5 2.918,-1.37 5.918,-2.37 9,-3 0,-1.333 0,-2.667 0,-4 1.333,0 2.667,0 4,0 -0.043,-2.588 -1.043,-4.754 -3,-6.5 1.242,-0.311 2.242,0.189 3,1.5 2.08,-0.831 4.08,-1.831 6,-3 1.604,0.439 3.104,1.106 4.5,2 1.713,-0.637 1.879,-1.637 0.5,-3 1.847,-1.33 3.347,-0.997 4.5,1 6.156,-1.749 9.823,0.584 11,7 0.333,-1 0.667,-2 1,-3 1.067,0.691 2.234,1.191 3.5,1.5 -1,0.333 -2,0.667 -3,1 7.075,4.288 11.575,10.454 13.5,18.5 2.179,0.616 4.012,1.783 5.5,3.5 -1.612,0.72 -3.112,0.554 -4.5,-0.5 -0.494,1.634 -0.66,3.301 -0.5,5 2.974,-0.3 5.974,0.2 9,1.5 1.753,1.999 3.087,4.165 4,6.5 1.052,-0.149 2.052,0.017 3,0.5 3.867,4.202 8.033,8.035 12.5,11.5 0.662,-1.484 1.496,-2.817 2.5,-4 z"
         id="path207" />
    </g>
    <g
       id="g211"
       style="clip-rule:evenodd;fill-rule:evenodd;image-rendering:optimizeQuality;shape-rendering:geometricPrecision;text-rendering:geometricPrecision"
       transform="matrix(0.30880375,0,0,0.30880375,-219.52328,-121.53924)">
      <path
         style="opacity:1"
         fill="#1e1f1c"
         d="m 926.5,596.5 c -1.004,1.183 -1.838,2.516 -2.5,4 -4.467,-3.465 -8.633,-7.298 -12.5,-11.5 -0.948,-0.483 -1.948,-0.649 -3,-0.5 -0.913,-2.335 -2.247,-4.501 -4,-6.5 -3.026,-1.3 -6.026,-1.8 -9,-1.5 -0.16,-1.699 0.006,-3.366 0.5,-5 1.388,1.054 2.888,1.22 4.5,0.5 -1.488,-1.717 -3.321,-2.884 -5.5,-3.5 -1.925,-8.046 -6.425,-14.212 -13.5,-18.5 1,-0.333 2,-0.667 3,-1 -1.266,-0.309 -2.433,-0.809 -3.5,-1.5 -0.333,1 -0.667,2 -1,3 -1.177,-6.416 -4.844,-8.749 -11,-7 -1.153,-1.997 -2.653,-2.33 -4.5,-1 1.379,1.363 1.213,2.363 -0.5,3 -1.396,-0.894 -2.896,-1.561 -4.5,-2 -1.92,1.169 -3.92,2.169 -6,3 -0.758,-1.311 -1.758,-1.811 -3,-1.5 1.957,1.746 2.957,3.912 3,6.5 -1.333,0 -2.667,0 -4,0 0,1.333 0,2.667 0,4 -3.082,0.63 -6.082,1.63 -9,3 0.809,1.571 1.143,3.238 1,5 -2.787,0.28 -4.953,1.613 -6.5,4 -0.667,-0.667 -1.333,-1.333 -2,-2 -3.324,1.633 -3.991,3.967 -2,7 1.494,-1.247 2.994,-1.247 4.5,0 -1.031,1.2 -1.865,2.534 -2.5,4 -0.333,-0.333 -0.667,-0.667 -1,-1 -0.333,2 -0.667,4 -1,6 -1.626,-0.354 -3.459,-0.354 -5.5,0 0.14,1.624 -0.527,2.79 -2,3.5 2.06,1.696 4.393,2.863 7,3.5 1.333,1 1.333,2 0,3 -0.833,-1 -1.667,-2 -2.5,-3 -4.196,1.706 -8.029,4.04 -11.5,7 -0.978,-0.477 -1.811,-1.143 -2.5,-2 -3.259,1.639 -6.759,2.806 -10.5,3.5 -1.333,0.667 -1.333,1.333 0,2 -0.5,0.167 -1,0.333 -1.5,0.5 -1.422,-0.705 -2.755,-1.039 -4,-1 -3.322,3.156 -6.488,6.489 -9.5,10 -1.419,-0.505 -2.085,-1.505 -2,-3 1.223,-2.774 2.723,-5.441 4.5,-8 9.524,-8.434 18.857,-17.101 28,-26 4.969,-9.108 10.802,-17.608 17.5,-25.5 20.674,-14.211 39.508,-12.044 56.5,6.5 4.083,7.168 8.416,14.168 13,21 7.03,6.2 13.863,12.533 20.5,19 z"
         id="path211" />
    </g>
    <g
       id="g212"
       style="clip-rule:evenodd;fill-rule:evenodd;image-rendering:optimizeQuality;shape-rendering:geometricPrecision;text-rendering:geometricPrecision"
       transform="matrix(0.30880375,0,0,0.30880375,-219.52328,-121.53924)">
      <path
         style="opacity:1"
         fill="#1e1e1c"
         d="m 807.5,545.5 c 0.383,2.962 -0.617,3.962 -3,3 -1.875,-6.04 -3.875,-12.04 -6,-18 -2.21,-3.109 -4.877,-5.775 -8,-8 -0.798,-1.578 -1.298,-3.244 -1.5,-5 -0.667,0.667 -1.333,1.333 -2,2 -1.771,-2.32 -4.438,-4.32 -8,-6 -0.772,0.145 -1.439,0.478 -2,1 -0.667,-1.333 -1.667,-2.333 -3,-3 -1,1.333 -2,1.333 -3,0 -1.975,1.25 -3.141,2.583 -3.5,4 -0.667,-0.667 -1.333,-1.333 -2,-2 -1.239,1.507 -0.905,2.674 1,3.5 -2.297,0.018 -4.631,-0.149 -7,-0.5 -0.17,1.322 0.163,2.489 1,3.5 -1.5,0.833 -2.667,2 -3.5,3.5 -0.427,3.542 -1.593,6.708 -3.5,9.5 1.504,1.491 2.337,3.324 2.5,5.5 1.016,1.134 1.683,0.801 2,-1 2.134,2.078 1.968,3.912 -0.5,5.5 2.306,1.793 2.639,3.96 1,6.5 1.116,-0.098 2.116,0.402 3,1.5 -0.05,2.279 -0.383,4.612 -1,7 1.244,0.456 2.077,-0.044 2.5,-1.5 1.656,2.553 1.823,5.219 0.5,8 1.373,-0.157 2.707,0.01 4,0.5 -1.017,1.049 -1.184,2.216 -0.5,3.5 0.414,-0.457 0.914,-0.791 1.5,-1 1.185,1.353 2.519,2.52 4,3.5 -0.333,0.333 -0.667,0.667 -1,1 1.333,0.333 2.667,0.667 4,1 -0.667,0.333 -1.333,0.667 -2,1 1.718,0.346 3.385,0.846 5,1.5 0.692,-0.525 1.192,-1.192 1.5,-2 0.748,1.832 1.748,3.499 3,5 0.667,-0.667 1.333,-1.333 2,-2 2.241,1.273 4.741,0.94 7.5,-1 0.547,-6.031 1.88,-6.364 4,-1 1.006,-0.438 1.006,-1.104 0,-2 2.151,-1.32 4.151,-2.82 6,-4.5 -0.581,-0.893 -0.915,-1.893 -1,-3 1.173,-2.26 2.173,-4.593 3,-7 -1.024,-2.178 -0.857,-4.345 0.5,-6.5 1.596,0.548 2.763,-0.118 3.5,-2 0.961,9.489 -1.205,18.155 -6.5,26 -8.704,7.671 -18.204,8.837 -28.5,3.5 -17.977,-13.224 -25.477,-31.058 -22.5,-53.5 6.741,-17.785 18.575,-22.285 35.5,-13.5 11.705,8.25 18.705,19.416 21,33.5 z"
         id="path212" />
    </g>
    <g
       id="g235"
       style="clip-rule:evenodd;fill-rule:evenodd;image-rendering:optimizeQuality;shape-rendering:geometricPrecision;text-rendering:geometricPrecision"
       transform="matrix(0.30880375,0,0,0.30880375,-219.52328,-121.53924)">
      <path
         style="opacity:1"
         fill="#1d1e1d"
         d="m 930.5,599.5 c 13.908,15.87 14.575,32.203 2,49 -3.822,-1.096 -3.988,-2.763 -0.5,-5 0.811,1.46 1.645,1.793 2.5,1 -1.587,-1.946 -1.254,-3.446 1,-4.5 -1.884,-0.216 -3.551,-0.883 -5,-2 1.284,-0.684 2.451,-0.517 3.5,0.5 1.688,-0.825 1.855,-1.825 0.5,-3 2.012,-5.484 2.512,-11.15 1.5,-17 -1.117,-6.281 -4.617,-10.614 -10.5,-13 -0.16,-1.699 0.006,-3.366 0.5,-5 1.429,0.03 2.929,-0.303 4.5,-1 z"
         id="path235" />
    </g>
  </g>
</svg>
