<?xml version="1.0" encoding="UTF-8" standalone="no"?>
<!-- Created with Inkscape (http://www.inkscape.org/) -->

<svg
   width="96mm"
   height="96mm"
   viewBox="0 0 96 96"
   version="1.1"
   id="svg1"
   inkscape:version="1.4.2 (ebf0e940, 2025-05-08)"
   sodipodi:docname="trailer.svg"
   xmlns:inkscape="http://www.inkscape.org/namespaces/inkscape"
   xmlns:sodipodi="http://sodipodi.sourceforge.net/DTD/sodipodi-0.dtd"
   xmlns="http://www.w3.org/2000/svg"
   xmlns:svg="http://www.w3.org/2000/svg">
  <sodipodi:namedview
     id="namedview1"
     pagecolor="#ffffff"
     bordercolor="#000000"
     borderopacity="0.25"
     inkscape:showpageshadow="2"
     inkscape:pageopacity="0.0"
     inkscape:pagecheckerboard="0"
     inkscape:deskcolor="#d1d1d1"
     inkscape:document-units="mm"
     inkscape:zoom="0.80444024"
     inkscape:cx="397.17059"
     inkscape:cy="362.36377"
     inkscape:window-width="1920"
     inkscape:window-height="1052"
     inkscape:window-x="0"
     inkscape:window-y="28"
     inkscape:window-maximized="0"
     inkscape:current-layer="layer1" />
  <defs
     id="defs1" />
  <g
     inkscape:label="Layer 1"
     inkscape:groupmode="layer"
     id="layer1">
    <g
       id="g7"
       style="clip-rule:evenodd;fill-rule:evenodd;image-rendering:optimizeQuality;shape-rendering:geometricPrecision;text-rendering:geometricPrecision"
       transform="matrix(0.2981316,0,0,0.2981316,-312.02464,-5.8308005)">
      <path
         style="opacity:1"
         fill="#242422"
         d="m 1261.5,106.5 c 0,38.667 0,77.333 0,116 3,0 6,0 9,0 2.22,0.703 4.05,2.036 5.5,4 0.67,16 0.67,32 0,48 -0.38,1.442 -1.21,2.442 -2.5,3 -0.11,-0.617 -0.44,-1.117 -1,-1.5 -4.06,-0.767 -8.06,-0.6 -12,0.5 -0.83,-17.991 -1.33,-35.991 -1.5,-54 -0.17,26.503 -0.67,52.837 -1.5,79 0.17,-65.001 0,-130.001 -0.5,-195 -35.43,-1.163 -70.93,-1.329 -106.5,-0.5 -0.54,0.717 -1.21,1.217 -2,1.5 -0.34,56.938 -1.34,114.271 -3,172 -2.67,0 -5.33,0 -8,0 -3.49,-0.643 -5.99,-2.643 -7.5,-6 -0.67,-15.333 -0.67,-30.667 0,-46 1.05,-2.556 2.89,-4.223 5.5,-5 3.33,0 6.67,0 10,0 0,-38.333 0,-76.667 0,-115 0.7,-2.216 2.04,-4.049 4,-5.5 9,-0.333 18,-0.667 27,-1 6.04,-10.5822 12.21,-21.0822 18.5,-31.5 0.11,-5.1141 0.78,-10.1141 2,-15 4.95,-4.1767 9.62,-3.8433 14,1 0.33,4 0.67,8 1,12 6.29,11.0863 12.46,22.2529 18.5,33.5 9,0.333 18,0.667 27,1 2.14,0.792 3.48,2.292 4,4.5 z"
         id="path7" />
    </g>
    <g
       id="g8"
       style="clip-rule:evenodd;fill-rule:evenodd;image-rendering:optimizeQuality;shape-rendering:geometricPrecision;text-rendering:geometricPrecision"
       transform="matrix(0.2981316,0,0,0.2981316,-312.02464,-5.8308005)">
      <path
         style="opacity:1"
         fill="#565751"
         d="m 1191.5,100.5 c 8.15,0.993 16.48,1.326 25,1 -8.51,1.321 -17.18,1.321 -26,0 0.12,-0.607 0.46,-0.94 1,-1 z"
         id="path8" />
    </g>
    <g
       id="g9"
       style="clip-rule:evenodd;fill-rule:evenodd;image-rendering:optimizeQuality;shape-rendering:geometricPrecision;text-rendering:geometricPrecision"
       transform="matrix(0.2981316,0,0,0.2981316,-312.02464,-5.8308005)">
      <path
         style="opacity:1"
         fill="#f4f4f3"
         d="m 1216.5,101.5 c -8.52,0.326 -16.85,-0.007 -25,-1 3.74,-7.1354 7.74,-14.1354 12,-21 4.34,7.3609 8.68,14.6943 13,22 z"
         id="path9" />
    </g>
    <g
       id="g10"
       style="clip-rule:evenodd;fill-rule:evenodd;image-rendering:optimizeQuality;shape-rendering:geometricPrecision;text-rendering:geometricPrecision"
       transform="matrix(0.2981316,0,0,0.2981316,-312.02464,-5.8308005)">
      <path
         style="opacity:1"
         fill="#a5a5a5"
         d="m 1261.5,106.5 c 1,38.163 1.33,76.496 1,115 2.89,-0.306 5.55,0.027 8,1 -3,0 -6,0 -9,0 0,-38.667 0,-77.333 0,-116 z"
         id="path10" />
    </g>
    <g
       id="g12"
       style="clip-rule:evenodd;fill-rule:evenodd;image-rendering:optimizeQuality;shape-rendering:geometricPrecision;text-rendering:geometricPrecision"
       transform="matrix(0.2981316,0,0,0.2981316,-312.02464,-5.8308005)">
      <path
         style="opacity:1"
         fill="#e3e3e2"
         d="m 1257.5,301.5 c -35.6,1.159 -71.26,1.326 -107,0.5 -0.5,-0.5 -1,-1 -1.5,-1.5 -0.5,-64.332 -0.67,-128.666 -0.5,-193 0.79,-0.283 1.46,-0.783 2,-1.5 35.57,-0.829 71.07,-0.663 106.5,0.5 0.5,64.999 0.67,129.999 0.5,195 z"
         id="path12" />
    </g>
    <g
       id="g13"
       style="clip-rule:evenodd;fill-rule:evenodd;image-rendering:optimizeQuality;shape-rendering:geometricPrecision;text-rendering:geometricPrecision"
       transform="matrix(0.2981316,0,0,0.2981316,-312.02464,-5.8308005)">
      <path
         style="opacity:1"
         fill="#20201e"
         d="m 1154.5,110.5 c 32.67,0 65.33,0 98,0 0,62.333 0,124.667 0,187 -32.67,0 -65.33,0 -98,0 0,-62.333 0,-124.667 0,-187 z"
         id="path13" />
    </g>
    <g
       id="g14"
       style="clip-rule:evenodd;fill-rule:evenodd;image-rendering:optimizeQuality;shape-rendering:geometricPrecision;text-rendering:geometricPrecision"
       transform="matrix(0.2981316,0,0,0.2981316,-312.02464,-5.8308005)">
      <path
         style="opacity:1"
         fill="#242423"
         d="m 1247.5,113.5 c 1.33,0 2.67,0 4,0 0,58 0,116 0,174 -2.49,-0.649 -4.99,-0.983 -7.5,-1 -2.25,0.498 -4.25,1.498 -6,3 -1.47,-0.403 -2.81,-1.07 -4,-2 -1.15,2.457 -2.49,2.457 -4,0 -0.85,0.924 -1.85,0.924 -3,0 -2.37,1.566 -3.87,3.733 -4.5,6.5 2.43,0.451 2.6,1.285 0.5,2.5 -1.73,-0.749 -3.57,-1.249 -5.5,-1.5 1,-0.833 2,-1.667 3,-2.5 -1.99,-1.115 -3.82,-0.782 -5.5,1 -1.81,-1.19 -3.64,-1.19 -5.5,0 -1.53,-0.029 -2.7,-0.696 -3.5,-2 -3.57,1.292 -7.4,1.958 -11.5,2 -7.15,-0.48 -14.15,-0.647 -21,-0.5 -2.33,-1.243 -3,-2.909 -2,-5 -1.24,-0.456 -2.08,0.044 -2.5,1.5 -1.89,-1.526 -2.89,-3.526 -3,-6 -1.34,0.714 -2.68,0.38 -4,-1 -0.86,1.725 -1.53,3.392 -2,5 -0.67,-5.667 -0.67,-11.333 0,-17 0.5,-0.5 1,-1 1.5,-1.5 -2.67,-2 -2.67,-4 0,-6 -2.1,-0.556 -2.26,-1.056 -0.5,-1.5 0.95,0.405 1.61,1.072 2,2 1.53,-1.083 3.03,-2.083 4.5,-3 -1.84,-0.255 -3.84,-0.422 -6,-0.5 -0.33,-0.333 -0.67,-0.667 -1,-1 0.81,-0.308 1.47,-0.808 2,-1.5 -1.12,0.098 -2.12,-0.402 -3,-1.5 0.09,-3.344 0.26,-6.844 0.5,-10.5 0.33,1.333 0.67,2.667 1,4 1.27,-3.825 1.27,-7.492 0,-11 -0.95,5.048 -1.45,4.715 -1.5,-1 0.17,-10.185 0.17,-20.519 0,-31 5.33,-0.333 5.33,-0.667 0,-1 0.05,-12.854 0.21,-25.854 0.5,-39 0.42,4.352 1.09,4.685 2,1 0.66,3.502 1.99,3.502 4,0 0.78,-2.929 0.61,-5.763 -0.5,-8.5 1.33,-0.333 2.67,-0.667 4,-1 -0.75,-1.487 -1.59,-1.654 -2.5,-0.5 0.43,-2.824 -0.07,-5.658 -1.5,-8.5 0.95,-0.483 1.95,-0.649 3,-0.5 0,-1 0,-2 0,-3 1.62,-0.14 2.79,0.527 3.5,2 1.38,-2.558 2.88,-2.558 4.5,0 1.63,-1.398 3.46,-2.398 5.5,-3 3.12,1.287 6.29,1.287 9.5,0 -0.33,-1 -1,-1.667 -2,-2 -4.61,2.345 -8.94,1.845 -13,-1.5 1.33,-0.333 2.67,-0.667 4,-1 -1.13,-1.016 -0.8,-1.683 1,-2 -3.42,-1.143 -3.75,-2.81 -1,-5 -0.67,-0.333 -1.33,-0.667 -2,-1 1.48,-1.193 2.81,-1.693 4,-1.5 -1.8,-0.641 -3.3,-1.641 -4.5,-3 -0.15,2.779 -0.98,3.279 -2.5,1.5 0.33,-0.333 0.67,-0.667 1,-1 -4.42,-0.723 -5.75,-3.057 -4,-7 -1.74,-0.651 -3.4,-0.485 -5,0.5 -1.67,-1.39 -3.34,-1.723 -5,-1 -0.33,-0.333 -0.67,-0.667 -1,-1 3.35,-1.988 6.85,-1.988 10.5,0 0.55,-1.853 -0.12,-3.187 -2,-4 -2.4,1.102 -4.9,1.269 -7.5,0.5 0.33,-0.333 0.67,-0.667 1,-1 15.92,-0.733 31.75,-0.566 47.5,0.5 12.26,-0.658 24.43,-1.324 36.5,-2 z"
         id="path14" />
    </g>
    <g
       id="g27"
       style="clip-rule:evenodd;fill-rule:evenodd;image-rendering:optimizeQuality;shape-rendering:geometricPrecision;text-rendering:geometricPrecision"
       transform="matrix(0.2981316,0,0,0.2981316,-312.02464,-5.8308005)">
      <path
         style="opacity:1"
         fill="#acacaa"
         d="m 1145.5,107.5 c 0,38.333 0,76.667 0,115 -3.33,0 -6.67,0 -10,0 2.79,-0.977 5.79,-1.31 9,-1 -0.33,-38.17 0,-76.17 1,-114 z"
         id="path27" />
    </g>
    <g
       id="g89"
       style="clip-rule:evenodd;fill-rule:evenodd;image-rendering:optimizeQuality;shape-rendering:geometricPrecision;text-rendering:geometricPrecision"
       transform="matrix(0.2981316,0,0,0.2981316,-312.02464,-5.8308005)">
      <path
         style="opacity:1"
         fill="#b4b4b2"
         d="m 1137.5,279.5 c 2.67,0 5.33,0 8,0 0,7 0,14 0,21 -0.99,-6.479 -1.32,-13.146 -1,-20 -2.56,0.302 -4.89,-0.032 -7,-1 z"
         id="path89" />
    </g>
    <g
       id="g91"
       style="clip-rule:evenodd;fill-rule:evenodd;image-rendering:optimizeQuality;shape-rendering:geometricPrecision;text-rendering:geometricPrecision"
       transform="matrix(0.2981316,0,0,0.2981316,-312.02464,-5.8308005)">
      <path
         style="opacity:1"
         fill="#b6b6b4"
         d="m 1269.5,279.5 c -2.11,0.968 -4.44,1.302 -7,1 0.32,6.854 -0.01,13.521 -1,20 0,-7 0,-14 0,-21 2.67,0 5.33,0 8,0 z"
         id="path91" />
    </g>
    <g
       id="g95"
       style="clip-rule:evenodd;fill-rule:evenodd;image-rendering:optimizeQuality;shape-rendering:geometricPrecision;text-rendering:geometricPrecision"
       transform="matrix(0.2981316,0,0,0.2981316,-312.02464,-5.8308005)">
      <path
         style="opacity:1"
         fill="#201f1e"
         d="m 1148.5,107.5 c -0.17,64.334 0,128.668 0.5,193 0.5,0.5 1,1 1.5,1.5 35.74,0.826 71.4,0.659 107,-0.5 0.83,-26.163 1.33,-52.497 1.5,-79 0.17,18.009 0.67,36.009 1.5,54 3.94,-1.1 7.94,-1.267 12,-0.5 0.56,0.383 0.89,0.883 1,1.5 -1.01,1.174 -2.35,1.84 -4,2 -2.67,0 -5.33,0 -8,0 0,7 0,14 0,21 -0.7,2.216 -2.04,4.049 -4,5.5 -36,0.667 -72,0.667 -108,0 -1.96,-1.451 -3.3,-3.284 -4,-5.5 0,-7 0,-14 0,-21 1.66,-57.729 2.66,-115.062 3,-172 z"
         id="path95" />
    </g>
  </g>
</svg>
