<?xml version="1.0" encoding="UTF-8" standalone="no"?>
<!-- Created with Inkscape (http://www.inkscape.org/) -->

<svg
   width="96mm"
   height="96mm"
   viewBox="0 0 96 96"
   version="1.1"
   id="svg1"
   inkscape:version="1.4.2 (ebf0e940, 2025-05-08)"
   sodipodi:docname="person.svg"
   xmlns:inkscape="http://www.inkscape.org/namespaces/inkscape"
   xmlns:sodipodi="http://sodipodi.sourceforge.net/DTD/sodipodi-0.dtd"
   xmlns="http://www.w3.org/2000/svg"
   xmlns:svg="http://www.w3.org/2000/svg">
  <sodipodi:namedview
     id="namedview1"
     pagecolor="#ffffff"
     bordercolor="#000000"
     borderopacity="0.25"
     inkscape:showpageshadow="2"
     inkscape:pageopacity="0.0"
     inkscape:pagecheckerboard="0"
     inkscape:deskcolor="#d1d1d1"
     inkscape:document-units="mm"
     inkscape:zoom="0.80444024"
     inkscape:cx="397.17059"
     inkscape:cy="362.36377"
     inkscape:window-width="1920"
     inkscape:window-height="1052"
     inkscape:window-x="0"
     inkscape:window-y="28"
     inkscape:window-maximized="0"
     inkscape:current-layer="layer1" />
  <defs
     id="defs1" />
  <g
     inkscape:label="Layer 1"
     inkscape:groupmode="layer"
     id="layer1">
    <g
       id="g203"
       style="clip-rule:evenodd;fill-rule:evenodd;image-rendering:optimizeQuality;shape-rendering:geometricPrecision;text-rendering:geometricPrecision"
       transform="matrix(0.34085894,0,0,0.34085894,-362.36713,-139.44002)">
      <path
         style="opacity:1"
         fill="#242423"
         d="m 1190.5,444.5 c 44.91,-4.249 67.41,16.085 67.5,61 4.89,4.669 6.55,10.336 5,17 -1.2,7.406 -4.7,13.406 -10.5,18 -5.19,15.553 -14.19,28.387 -27,38.5 -16.41,9.548 -32.07,8.548 -47,-3 -10.7,-9.893 -18.53,-21.726 -23.5,-35.5 -8.69,-7.749 -12.03,-17.416 -10,-29 0.78,-2.576 2.28,-4.576 4.5,-6 0.14,-12.847 2.64,-25.18 7.5,-37 8,-12.506 19.16,-20.506 33.5,-24 z"
         id="path203" />
    </g>
    <g
       id="g204"
       style="clip-rule:evenodd;fill-rule:evenodd;image-rendering:optimizeQuality;shape-rendering:geometricPrecision;text-rendering:geometricPrecision"
       transform="matrix(0.34085894,0,0,0.34085894,-362.36713,-139.44002)">
      <path
         style="opacity:1"
         fill="#f8f8f8"
         d="m 1191.5,449.5 c 42.36,-3.805 62.86,15.528 61.5,58 1.71,1.378 3.05,3.045 4,5 0.98,6.193 0.32,12.193 -2,18 -1.33,2.667 -3.33,4.667 -6,6 -4.94,15.588 -13.77,28.422 -26.5,38.5 -13.84,7.908 -27.18,7.241 -40,-2 -10.71,-9.382 -18.21,-20.882 -22.5,-34.5 -8.44,-6.656 -11.78,-15.322 -10,-26 1,-2.333 2.67,-4 5,-5 -2.64,-19.096 2.86,-35.262 16.5,-48.5 6.34,-4.006 13.01,-7.173 20,-9.5 z"
         id="path204" />
    </g>
    <g
       id="g214"
       style="clip-rule:evenodd;fill-rule:evenodd;image-rendering:optimizeQuality;shape-rendering:geometricPrecision;text-rendering:geometricPrecision"
       transform="matrix(0.34085894,0,0,0.34085894,-362.36713,-139.44002)">
      <path
         style="opacity:1"
         fill="#f8f8f8"
         d="m 1273.5,643.5 c -12.01,3.336 -24.01,6.336 -36,9 -43.32,6.662 -84.66,0.496 -124,-18.5 -0.83,-0.833 -1.67,-1.667 -2.5,-2.5 -0.6,-16.097 5.9,-28.597 19.5,-37.5 10.99,-6.22 22.66,-10.22 35,-12 16.76,17.295 36.42,21.628 59,13 7.1,-3.948 13.77,-8.448 20,-13.5 13.09,3.524 25.42,8.691 37,15.5 9.28,7.885 14.61,17.885 16,30 0.2,2.352 -0.47,4.352 -2,6 -7.03,4.35 -14.36,7.85 -22,10.5 z"
         id="path214" />
    </g>
    <g
       id="g229"
       style="clip-rule:evenodd;fill-rule:evenodd;image-rendering:optimizeQuality;shape-rendering:geometricPrecision;text-rendering:geometricPrecision"
       transform="matrix(0.34085894,0,0,0.34085894,-362.36713,-139.44002)">
      <path
         style="opacity:1"
         fill="#262624"
         d="m 1277.5,646.5 c -1.33,-1 -2.67,-2 -4,-3 7.64,-2.65 14.97,-6.15 22,-10.5 1.53,-1.648 2.2,-3.648 2,-6 -1.39,-12.115 -6.72,-22.115 -16,-30 -11.58,-6.809 -23.91,-11.976 -37,-15.5 -6.23,5.052 -12.9,9.552 -20,13.5 -22.58,8.628 -42.24,4.295 -59,-13 -12.34,1.78 -24.01,5.78 -35,12 -13.6,8.903 -20.1,21.403 -19.5,37.5 0.83,0.833 1.67,1.667 2.5,2.5 39.34,18.996 80.68,25.162 124,18.5 3.33,-0.482 6,0.518 8,3 -46.39,8.784 -91.06,3.284 -134,-16.5 -4.71,-3.088 -6.71,-7.422 -6,-13 3.62,-21.637 15.96,-35.97 37,-43 7.46,-2.575 14.96,-5.075 22.5,-7.5 25.97,25.298 51.8,25.298 77.5,0 13.53,3.898 26.53,9.065 39,15.5 15.13,10.757 21.63,25.257 19.5,43.5 -6.94,5.723 -14.78,9.723 -23.5,12 z"
         id="path229" />
    </g>
    <g
       id="g237"
       style="clip-rule:evenodd;fill-rule:evenodd;image-rendering:optimizeQuality;shape-rendering:geometricPrecision;text-rendering:geometricPrecision"
       transform="matrix(0.34085894,0,0,0.34085894,-362.36713,-139.44002)">
      <path
         style="opacity:1"
         fill="#626262"
         d="m 1273.5,643.5 c 1.33,1 2.67,2 4,3 -10.22,4.225 -20.89,7.225 -32,9 -2,-2.482 -4.67,-3.482 -8,-3 11.99,-2.664 23.99,-5.664 36,-9 z"
         id="path237" />
    </g>
  </g>
</svg>
