<?xml version="1.0" encoding="UTF-8" standalone="no"?>
<!-- Created with Inkscape (http://www.inkscape.org/) -->

<svg
   width="96mm"
   height="96mm"
   viewBox="0 0 96 96"
   version="1.1"
   id="svg1"
   inkscape:version="1.4.2 (ebf0e940, 2025-05-08)"
   sodipodi:docname="camper.svg"
   xmlns:inkscape="http://www.inkscape.org/namespaces/inkscape"
   xmlns:sodipodi="http://sodipodi.sourceforge.net/DTD/sodipodi-0.dtd"
   xmlns="http://www.w3.org/2000/svg"
   xmlns:svg="http://www.w3.org/2000/svg">
  <sodipodi:namedview
     id="namedview1"
     pagecolor="#ffffff"
     bordercolor="#000000"
     borderopacity="0.25"
     inkscape:showpageshadow="2"
     inkscape:pageopacity="0.0"
     inkscape:pagecheckerboard="0"
     inkscape:deskcolor="#d1d1d1"
     inkscape:document-units="mm"
     inkscape:zoom="0.80444024"
     inkscape:cx="397.17059"
     inkscape:cy="362.36377"
     inkscape:window-width="1920"
     inkscape:window-height="1052"
     inkscape:window-x="0"
     inkscape:window-y="28"
     inkscape:window-maximized="0"
     inkscape:current-layer="layer1" />
  <defs
     id="defs1" />
  <g
     inkscape:label="Layer 1"
     inkscape:groupmode="layer"
     id="layer1">
    <g
       id="g143"
       style="clip-rule:evenodd;fill-rule:evenodd;image-rendering:optimizeQuality;shape-rendering:geometricPrecision;text-rendering:geometricPrecision"
       transform="matrix(0.30746384,0,0,0.30746384,-119.39551,-119.40807)">
      <path
         style="opacity:1"
         fill="#f8f8f8"
         d="m 584.5,470.5 c 0.667,0 1,0.333 1,1 -2.16,11.135 -4.827,22.135 -8,33 0,1 0,2 0,3 -0.999,49.164 -1.332,98.497 -1,148 -26,0 -52,0 -78,0 0.332,-49.836 -10e-4,-99.503 -1,-149 -0.057,-1.109 -0.39,-2.109 -1,-3 -1.915,-10.661 -4.915,-20.995 -9,-31 0.111,-0.617 0.444,-1.117 1,-1.5 31.998,-0.5 63.998,-0.667 96,-0.5 z"
         id="path143" />
    </g>
    <g
       id="g145"
       style="clip-rule:evenodd;fill-rule:evenodd;image-rendering:optimizeQuality;shape-rendering:geometricPrecision;text-rendering:geometricPrecision"
       transform="matrix(0.30746384,0,0,0.30746384,-119.39551,-119.40807)">
      <path
         style="opacity:1"
         fill="#232323"
         d="m 508.5,475.5 c 19.333,0 38.667,0 58,0 0.529,3.692 -0.471,6.858 -3,9.5 -17.667,0.667 -35.333,0.667 -53,0 -2.674,-2.848 -3.341,-6.015 -2,-9.5 z"
         id="path145" />
    </g>
    <g
       id="g149"
       style="clip-rule:evenodd;fill-rule:evenodd;image-rendering:optimizeQuality;shape-rendering:geometricPrecision;text-rendering:geometricPrecision"
       transform="matrix(0.30746384,0,0,0.30746384,-119.39551,-119.40807)">
      <path
         style="opacity:1"
         fill="#3b3c3b"
         d="m 487.5,467.5 c 0.418,0.722 1.084,1.222 2,1.5 31.836,0.168 63.503,0.668 95,1.5 -32.002,-0.167 -64.002,0 -96,0.5 -0.556,0.383 -0.889,0.883 -1,1.5 -0.617,0.111 -1.117,0.444 -1.5,1 -0.5,36.998 -0.667,73.998 -0.5,111 -0.833,-35.498 -1.333,-71.164 -1.5,-107 -1.416,4.194 -1.583,8.361 -0.5,12.5 -1,0.333 -2,0.667 -3,1 1.326,16.281 1.993,32.781 2,49.5 0,16.503 -0.333,32.837 -1,49 0,-32.333 0,-64.667 0,-97 -3.08,0.248 -6.08,0.914 -9,2 -2.447,-0.401 -3.447,-1.901 -3,-4.5 -0.092,-2.814 0.908,-5.147 3,-7 2.809,-1.741 5.809,-2.908 9,-3.5 -0.978,-5.642 1.022,-9.642 6,-12 z"
         id="path149" />
    </g>
    <g
       id="g150"
       style="clip-rule:evenodd;fill-rule:evenodd;image-rendering:optimizeQuality;shape-rendering:geometricPrecision;text-rendering:geometricPrecision"
       transform="matrix(0.30746384,0,0,0.30746384,-119.39551,-119.40807)">
      <path
         style="opacity:1"
         fill="#e4e5e4"
         d="m 478.5,483.5 c 1,0 2,0 3,0 0,1.667 0,3.333 0,5 -10.496,3.356 -11.496,1.689 -3,-5 z"
         id="path150" />
    </g>
    <g
       id="g163"
       style="clip-rule:evenodd;fill-rule:evenodd;image-rendering:optimizeQuality;shape-rendering:geometricPrecision;text-rendering:geometricPrecision"
       transform="matrix(0.30746384,0,0,0.30746384,-119.39551,-119.40807)">
      <path
         style="opacity:1"
         fill="#252523"
         d="m 529.5,671.5 c 0,-2 0,-4 0,-6 -12.667,0 -25.333,0 -38,0 -3.768,-0.637 -6.601,-2.637 -8.5,-6 -1.225,-7.255 -1.892,-14.589 -2,-22 -1,-1.667 -2,-3.333 -3,-5 -0.667,-13.333 -0.667,-26.667 0,-40 1.039,-1.21 2.206,-2.21 3.5,-3 0.667,-16.163 1,-32.497 1,-49 -0.007,-16.719 -0.674,-33.219 -2,-49.5 1,-0.333 2,-0.667 3,-1 -1.083,-4.139 -0.916,-8.306 0.5,-12.5 0.167,35.836 0.667,71.502 1.5,107 -0.331,24.172 0.002,48.172 1,72 0.057,1.109 0.39,2.109 1,3 1.1,1.058 2.434,1.892 4,2.5 30.333,0.667 60.667,0.667 91,0 2.348,-0.346 4.181,-1.513 5.5,-3.5 1.659,-61.251 1.992,-122.584 1,-184 -0.422,-1.926 -1.589,-2.926 -3.5,-3 0,-0.667 -0.333,-1 -1,-1 -31.497,-0.832 -63.164,-1.332 -95,-1.5 -0.916,-0.278 -1.582,-0.778 -2,-1.5 -0.303,-11.419 0.531,-22.752 2.5,-34 3.874,-8.367 10.374,-13.534 19.5,-15.5 22.919,-5.672 45.252,-4.005 67,5 6.148,4.123 9.315,9.957 9.5,17.5 0.168,9.018 0.668,18.018 1.5,27 4.37,2.732 6.704,6.732 7,12 5.661,1.335 9.328,4.668 11,10 0.11,1.874 -0.556,3.374 -2,4.5 -3.468,0.434 -6.802,-0.066 -10,-1.5 -0.167,32.335 0,64.668 0.5,97 1,1 2,2 3,3 0.667,13.333 0.667,26.667 0,40 -0.615,1.616 -1.615,2.949 -3,4 -0.333,7 -0.667,14 -1,21 -1.193,3.86 -3.693,6.36 -7.5,7.5 -3.652,0.499 -7.318,0.665 -11,0.5 0.796,4.184 -0.537,7.35 -4,9.5 -12.667,0.667 -25.333,0.667 -38,0 -1.21,-1.039 -2.21,-2.206 -3,-3.5 z"
         id="path163" />
    </g>
    <g
       id="g164"
       style="clip-rule:evenodd;fill-rule:evenodd;image-rendering:optimizeQuality;shape-rendering:geometricPrecision;text-rendering:geometricPrecision"
       transform="matrix(0.30746384,0,0,0.30746384,-119.39551,-119.40807)">
      <path
         style="opacity:1"
         fill="#d6d6d5"
         d="m 592.5,483.5 c 4.836,0.224 7.836,2.557 9,7 -2.813,-0.048 -5.479,-0.715 -8,-2 -0.952,-1.545 -1.285,-3.212 -1,-5 z"
         id="path164" />
    </g>
    <g
       id="g165"
       style="clip-rule:evenodd;fill-rule:evenodd;image-rendering:optimizeQuality;shape-rendering:geometricPrecision;text-rendering:geometricPrecision"
       transform="matrix(0.30746384,0,0,0.30746384,-119.39551,-119.40807)">
      <path
         style="opacity:1"
         fill="#797978"
         d="m 576.5,465.5 c 2.107,0.968 4.441,1.302 7,1 -2.524,1.3 -5.191,1.3 -8,0 0.124,-0.607 0.457,-0.94 1,-1 z"
         id="path165" />
    </g>
    <g
       id="g166"
       style="clip-rule:evenodd;fill-rule:evenodd;image-rendering:optimizeQuality;shape-rendering:geometricPrecision;text-rendering:geometricPrecision"
       transform="matrix(0.30746384,0,0,0.30746384,-119.39551,-119.40807)">
      <path
         style="opacity:1"
         fill="#6a6a69"
         d="m 491.5,460.5 c 0,2 0,4 0,6 2.559,0.302 4.893,-0.032 7,-1 0.543,0.06 0.876,0.393 1,1 -2.928,0.984 -5.928,1.317 -9,1 -0.302,-2.559 0.032,-4.893 1,-7 z"
         id="path166" />
    </g>
    <g
       id="g167"
       style="clip-rule:evenodd;fill-rule:evenodd;image-rendering:optimizeQuality;shape-rendering:geometricPrecision;text-rendering:geometricPrecision"
       transform="matrix(0.30746384,0,0,0.30746384,-119.39551,-119.40807)">
      <path
         style="opacity:1"
         fill="#ececec"
         d="m 575.5,437.5 c 2.088,1.439 4.421,2.106 7,2 0.466,8.994 0.8,17.994 1,27 -2.559,0.302 -4.893,-0.032 -7,-1 0.662,-3.966 0.995,-7.966 1,-12 -0.877,-5.301 -1.544,-10.635 -2,-16 z"
         id="path167" />
    </g>
    <g
       id="g168"
       style="clip-rule:evenodd;fill-rule:evenodd;image-rendering:optimizeQuality;shape-rendering:geometricPrecision;text-rendering:geometricPrecision"
       transform="matrix(0.30746384,0,0,0.30746384,-119.39551,-119.40807)">
      <path
         style="opacity:1"
         fill="#f0f0ef"
         d="m 497.5,450.5 c -0.279,5.095 0.055,10.095 1,15 -2.107,0.968 -4.441,1.302 -7,1 0,-2 0,-4 0,-6 0.078,-7.015 0.411,-14.015 1,-21 2.436,0.183 4.603,-0.484 6.5,-2 -0.639,4.256 -1.139,8.589 -1.5,13 z"
         id="path168" />
    </g>
    <g
       id="g169"
       style="clip-rule:evenodd;fill-rule:evenodd;image-rendering:optimizeQuality;shape-rendering:geometricPrecision;text-rendering:geometricPrecision"
       transform="matrix(0.30746384,0,0,0.30746384,-119.39551,-119.40807)">
      <path
         style="opacity:1"
         fill="#5d5e5c"
         d="m 509.5,425.5 c -1.828,4.988 -4.661,9.322 -8.5,13 -0.731,4.065 -1.565,8.065 -2.5,12 -0.333,0 -0.667,0 -1,0 0.361,-4.411 0.861,-8.744 1.5,-13 -1.897,1.516 -4.064,2.183 -6.5,2 2.628,-1.981 5.628,-3.481 9,-4.5 2.347,-3.587 5.013,-6.754 8,-9.5 z"
         id="path169" />
    </g>
    <g
       id="g170"
       style="clip-rule:evenodd;fill-rule:evenodd;image-rendering:optimizeQuality;shape-rendering:geometricPrecision;text-rendering:geometricPrecision"
       transform="matrix(0.30746384,0,0,0.30746384,-119.39551,-119.40807)">
      <path
         style="opacity:1"
         fill="#6d6e6c"
         d="m 575.5,437.5 c 0.456,5.365 1.123,10.699 2,16 -0.658,0.898 -1.324,1.898 -2,3 -0.607,-0.124 -0.94,-0.457 -1,-1 0.972,-5.932 0.472,-11.932 -1.5,-18 -3.827,-2.827 -6.494,-6.493 -8,-11 -1.622,-0.599 -3.122,-1.266 -4.5,-2 1.322,0.17 2.489,-0.163 3.5,-1 2.18,2.363 3.847,5.03 5,8 2.063,2.234 4.229,4.234 6.5,6 z"
         id="path170" />
    </g>
    <g
       id="g171"
       style="clip-rule:evenodd;fill-rule:evenodd;image-rendering:optimizeQuality;shape-rendering:geometricPrecision;text-rendering:geometricPrecision"
       transform="matrix(0.30746384,0,0,0.30746384,-119.39551,-119.40807)">
      <path
         style="opacity:1"
         fill="#f2f2f2"
         d="m 560.5,424.5 c 1.378,0.734 2.878,1.401 4.5,2 1.506,4.507 4.173,8.173 8,11 1.972,6.068 2.472,12.068 1.5,18 -22.663,-9.553 -45.663,-10.386 -69,-2.5 -2.246,1.039 -4.413,2.206 -6.5,3.5 -0.495,-1.973 -0.662,-3.973 -0.5,-6 0.935,-3.935 1.769,-7.935 2.5,-12 3.839,-3.678 6.672,-8.012 8.5,-13 16.898,-4.931 33.898,-5.265 51,-1 z"
         id="path171" />
    </g>
    <g
       id="g172"
       style="clip-rule:evenodd;fill-rule:evenodd;image-rendering:optimizeQuality;shape-rendering:geometricPrecision;text-rendering:geometricPrecision"
       transform="matrix(0.30746384,0,0,0.30746384,-119.39551,-119.40807)">
      <path
         style="opacity:1"
         fill="#2a2a2a"
         d="m 545.5,439.5 c 5.743,0.248 11.41,1.081 17,2.5 1.43,1.88 1.096,3.38 -1,4.5 -4.917,-1.24 -9.917,-2.074 -15,-2.5 -0.88,-1.356 -1.214,-2.856 -1,-4.5 z"
         id="path172" />
    </g>
    <g
       id="g173"
       style="clip-rule:evenodd;fill-rule:evenodd;image-rendering:optimizeQuality;shape-rendering:geometricPrecision;text-rendering:geometricPrecision"
       transform="matrix(0.30746384,0,0,0.30746384,-119.39551,-119.40807)">
      <path
         style="opacity:1"
         fill="#292929"
         d="m 521.5,439.5 c 2.667,0 5.333,0 8,0 0.363,2.411 -0.637,3.911 -3,4.5 -5.084,0.426 -10.084,1.26 -15,2.5 -0.214,-1.644 0.12,-3.144 1,-4.5 3.178,-0.66 6.178,-1.493 9,-2.5 z"
         id="path173" />
    </g>
    <g
       id="g174"
       style="clip-rule:evenodd;fill-rule:evenodd;image-rendering:optimizeQuality;shape-rendering:geometricPrecision;text-rendering:geometricPrecision"
       transform="matrix(0.30746384,0,0,0.30746384,-119.39551,-119.40807)">
      <path
         style="opacity:1"
         fill="#a4a4a4"
         d="m 487.5,472.5 c 4.085,10.005 7.085,20.339 9,31 -1.32,-1.963 -2.654,-3.963 -4,-6 -0.342,-0.838 -1.008,-1.172 -2,-1 -0.832,26.497 -1.332,53.164 -1.5,80 -0.333,1 -0.667,2 -1,3 -0.333,-21 -0.667,-42 -1,-63 -0.5,46.665 -0.667,93.332 -0.5,140 -0.998,-23.828 -1.331,-47.828 -1,-72 -0.167,-37.002 0,-74.002 0.5,-111 0.383,-0.556 0.883,-0.889 1.5,-1 z"
         id="path174" />
    </g>
    <g
       id="g175"
       style="clip-rule:evenodd;fill-rule:evenodd;image-rendering:optimizeQuality;shape-rendering:geometricPrecision;text-rendering:geometricPrecision"
       transform="matrix(0.30746384,0,0,0.30746384,-119.39551,-119.40807)">
      <path
         style="opacity:1"
         fill="#838383"
         d="m 582.5,497.5 c 0.06,-0.543 0.393,-0.876 1,-1 1.331,51.498 1.331,102.832 0,154 0.332,-51.169 -10e-4,-102.169 -1,-153 z"
         id="path175" />
    </g>
    <g
       id="g181"
       style="clip-rule:evenodd;fill-rule:evenodd;image-rendering:optimizeQuality;shape-rendering:geometricPrecision;text-rendering:geometricPrecision"
       transform="matrix(0.30746384,0,0,0.30746384,-119.39551,-119.40807)">
      <path
         style="opacity:1"
         fill="#1f1f1d"
         d="m 492.5,497.5 c 1.346,2.037 2.68,4.037 4,6 0.61,0.891 0.943,1.891 1,3 0,49.667 0,99.333 0,149 -1.699,0.16 -3.366,-0.006 -5,-0.5 -0.752,-0.671 -1.086,-1.504 -1,-2.5 -0.332,-51.836 10e-4,-103.503 1,-155 z"
         id="path181" />
    </g>
    <g
       id="g186"
       style="clip-rule:evenodd;fill-rule:evenodd;image-rendering:optimizeQuality;shape-rendering:geometricPrecision;text-rendering:geometricPrecision"
       transform="matrix(0.30746384,0,0,0.30746384,-119.39551,-119.40807)">
      <path
         style="opacity:1"
         fill="#242423"
         d="m 582.5,497.5 c 0.999,50.831 1.332,101.831 1,153 -0.19,3.857 -2.19,5.524 -6,5 0,-49.333 0,-98.667 0,-148 0,-1 0,-2 0,-3 1.9,-2.119 3.566,-4.453 5,-7 z"
         id="path186" />
    </g>
    <g
       id="g187"
       style="clip-rule:evenodd;fill-rule:evenodd;image-rendering:optimizeQuality;shape-rendering:geometricPrecision;text-rendering:geometricPrecision"
       transform="matrix(0.30746384,0,0,0.30746384,-119.39551,-119.40807)">
      <path
         style="opacity:1"
         fill="#696969"
         d="m 490.5,496.5 c 0.992,-0.172 1.658,0.162 2,1 -0.999,51.497 -1.332,103.164 -1,155 -0.333,0 -0.667,0 -1,0 0,-52 0,-104 0,-156 z"
         id="path187" />
    </g>
    <g
       id="g189"
       style="clip-rule:evenodd;fill-rule:evenodd;image-rendering:optimizeQuality;shape-rendering:geometricPrecision;text-rendering:geometricPrecision"
       transform="matrix(0.30746384,0,0,0.30746384,-119.39551,-119.40807)">
      <path
         style="opacity:1"
         fill="#b3b3b3"
         d="m 490.5,496.5 c 0,52 0,104 0,156 -0.551,-23.871 -1.384,-47.871 -2.5,-72 0.299,25.269 0.132,50.436 -0.5,75.5 1.99,1.84 1.99,3.007 0,3.5 -0.61,-0.891 -0.943,-1.891 -1,-3 -0.167,-46.668 0,-93.335 0.5,-140 0.333,21 0.667,42 1,63 0.333,-1 0.667,-2 1,-3 0.168,-26.836 0.668,-53.503 1.5,-80 z"
         id="path189" />
    </g>
    <g
       id="g191"
       style="clip-rule:evenodd;fill-rule:evenodd;image-rendering:optimizeQuality;shape-rendering:geometricPrecision;text-rendering:geometricPrecision"
       transform="matrix(0.30746384,0,0,0.30746384,-119.39551,-119.40807)">
      <path
         style="opacity:1"
         fill="#9fa09f"
         d="m 585.5,471.5 c 1.911,0.074 3.078,1.074 3.5,3 0.992,61.416 0.659,122.749 -1,184 -1.319,1.987 -3.152,3.154 -5.5,3.5 -30.333,0.667 -60.667,0.667 -91,0 -1.566,-0.608 -2.9,-1.442 -4,-2.5 1.99,-0.493 1.99,-1.66 0,-3.5 0.632,-25.064 0.799,-50.231 0.5,-75.5 1.116,24.129 1.949,48.129 2.5,72 0.333,0 0.667,0 1,0 -0.086,0.996 0.248,1.829 1,2.5 1.634,0.494 3.301,0.66 5,0.5 0,-49.667 0,-99.333 0,-149 0.999,49.497 1.332,99.164 1,149 26,0 52,0 78,0 -0.332,-49.503 10e-4,-98.836 1,-148 0,49.333 0,98.667 0,148 3.81,0.524 5.81,-1.143 6,-5 1.331,-51.168 1.331,-102.502 0,-154 -0.607,0.124 -0.94,0.457 -1,1 -1.434,2.547 -3.1,4.881 -5,7 3.173,-10.865 5.84,-21.865 8,-33 z"
         id="path191" />
    </g>
    <g
       id="g192"
       style="clip-rule:evenodd;fill-rule:evenodd;image-rendering:optimizeQuality;shape-rendering:geometricPrecision;text-rendering:geometricPrecision"
       transform="matrix(0.30746384,0,0,0.30746384,-119.39551,-119.40807)">
      <path
         style="opacity:1"
         fill="#252524"
         d="m 524.5,611.5 c 8.673,-0.166 17.34,0 26,0.5 1.167,1.167 2.333,2.333 3.5,3.5 0.667,8.667 0.667,17.333 0,26 -0.833,0.833 -1.667,1.667 -2.5,2.5 -4.723,1.112 -9.556,1.612 -14.5,1.5 -4.167,-0.167 -8.333,-0.333 -12.5,-0.5 -0.916,-0.374 -1.75,-0.874 -2.5,-1.5 -1.611,-9.232 -1.945,-18.565 -1,-28 0.69,-1.85 1.856,-3.184 3.5,-4 z"
         id="path192" />
    </g>
    <g
       id="g193"
       style="clip-rule:evenodd;fill-rule:evenodd;image-rendering:optimizeQuality;shape-rendering:geometricPrecision;text-rendering:geometricPrecision"
       transform="matrix(0.30746384,0,0,0.30746384,-119.39551,-119.40807)">
      <path
         style="opacity:1"
         fill="#262624"
         d="m 524.5,524.5 c 8.34,-0.166 16.673,0 25,0.5 1.786,0.785 3.286,1.951 4.5,3.5 0.667,8.333 0.667,16.667 0,25 -0.785,1.786 -1.951,3.286 -3.5,4.5 -9,0.667 -18,0.667 -27,0 -0.5,-0.5 -1,-1 -1.5,-1.5 -1.611,-9.232 -1.945,-18.565 -1,-28 1.376,-1.205 2.542,-2.538 3.5,-4 z"
         id="path193" />
    </g>
    <g
       id="g194"
       style="clip-rule:evenodd;fill-rule:evenodd;image-rendering:optimizeQuality;shape-rendering:geometricPrecision;text-rendering:geometricPrecision"
       transform="matrix(0.30746384,0,0,0.30746384,-119.39551,-119.40807)">
      <path
         style="opacity:1"
         fill="#a4a5a5"
         d="m 491.5,665.5 c 12.667,0 25.333,0 38,0 0,2 0,4 0,6 -0.951,-1.419 -1.284,-3.085 -1,-5 -12.511,0.329 -24.845,-0.005 -37,-1 z"
         id="path194" />
    </g>
  </g>
</svg>
