<?xml version="1.0" encoding="UTF-8" standalone="no"?>
<!-- Created with Inkscape (http://www.inkscape.org/) -->

<svg
   width="96mm"
   height="96mm"
   viewBox="0 0 96 96"
   version="1.1"
   id="svg1"
   inkscape:version="1.4.2 (ebf0e940, 2025-05-08)"
   sodipodi:docname="pickup.svg"
   xmlns:inkscape="http://www.inkscape.org/namespaces/inkscape"
   xmlns:sodipodi="http://sodipodi.sourceforge.net/DTD/sodipodi-0.dtd"
   xmlns="http://www.w3.org/2000/svg"
   xmlns:svg="http://www.w3.org/2000/svg">
  <sodipodi:namedview
     id="namedview1"
     pagecolor="#ffffff"
     bordercolor="#000000"
     borderopacity="0.25"
     inkscape:showpageshadow="2"
     inkscape:pageopacity="0.0"
     inkscape:pagecheckerboard="0"
     inkscape:deskcolor="#d1d1d1"
     inkscape:document-units="mm"
     inkscape:zoom="0.80444024"
     inkscape:cx="397.17059"
     inkscape:cy="362.36377"
     inkscape:window-width="1920"
     inkscape:window-height="1052"
     inkscape:window-x="0"
     inkscape:window-y="28"
     inkscape:window-maximized="0"
     inkscape:current-layer="layer1" />
  <defs
     id="defs1" />
  <g
     inkscape:label="Layer 1"
     inkscape:groupmode="layer"
     id="layer1">
    <g
       id="g16"
       style="clip-rule:evenodd;fill-rule:evenodd;image-rendering:optimizeQuality;shape-rendering:geometricPrecision;text-rendering:geometricPrecision"
       transform="matrix(0.2955414,0,0,0.2955414,-6.5429342,-4.8036925)">
      <path
         style="opacity:1"
         fill="#2a2a28"
         d="m 234.5,142.5 c -0.709,-0.904 -1.709,-1.237 -3,-1 -0.617,0.111 -1.117,0.444 -1.5,1 -0.5,17.664 -0.667,35.33 -0.5,53 -0.333,0 -0.667,0 -1,0 0.326,-18.576 -0.007,-37.076 -1,-55.5 -0.333,-0.167 -0.667,-0.333 -1,-0.5 -0.833,16.323 -1.333,32.656 -1.5,49 -4.676,0.726 -8.009,-1.274 -10,-6 -0.667,-10.333 -0.667,-20.667 0,-31 2.607,-4.88 4.94,-9.88 7,-15 1.362,-2.736 3.196,-5.069 5.5,-7 1.615,-19.072 1.115,-38.0723 -1.5,-57 -0.465,-1.4308 -1.299,-2.5975 -2.5,-3.5 -21.711,-8.6697 -44.045,-10.6697 -67,-6 -6.438,0.8128 -12.438,2.8128 -18,6 -2.759,5.1113 -4.259,10.6113 -4.5,16.5 -0.833,14.678 -0.666,29.345 0.5,44 1.959,1.248 3.459,2.915 4.5,5 8.261,15.295 10.928,31.628 8,49 -2.321,4.047 -5.655,5.713 -10,5 -0.167,-16.344 -0.667,-32.677 -1.5,-49 -0.683,0.363 -1.35,0.696 -2,1 -0.333,0 -0.667,0 -1,0 -1.664,27.818 -2.664,55.818 -3,84 0.167,-27.669 0,-55.335 -0.5,-83 -8.07,4.954 -10.737,2.62 -8,-7 2.07,-2.287 4.57,-3.953 7.5,-5 0.193,-21.112 1.693,-42.1118 4.5,-63 1.738,-3.7413 4.238,-6.908 7.5,-9.5 22.754,-6.1106 45.754,-7.1106 69,-3 5.168,1.2075 10.168,2.8741 15,5 1.93,2.2583 3.43,4.7583 4.5,7.5 3.021,20.8655 4.355,41.866 4,63 5.403,1.271 8.569,4.604 9.5,10 -1.036,5.261 -3.702,6.261 -8,3 z"
         id="path16" />
    </g>
    <g
       id="g17"
       style="clip-rule:evenodd;fill-rule:evenodd;image-rendering:optimizeQuality;shape-rendering:geometricPrecision;text-rendering:geometricPrecision"
       transform="matrix(0.2955414,0,0,0.2955414,-6.5429342,-4.8036925)">
      <path
         style="opacity:1"
         fill="#e1e1dd"
         d="m 129.5,132.5 c 2.846,-0.47 5.179,0.363 7,2.5 -4.361,2.003 -8.694,3.17 -13,3.5 1.174,-2.903 3.174,-4.903 6,-6 z"
         id="path17" />
    </g>
    <g
       id="g18"
       style="clip-rule:evenodd;fill-rule:evenodd;image-rendering:optimizeQuality;shape-rendering:geometricPrecision;text-rendering:geometricPrecision"
       transform="matrix(0.2955414,0,0,0.2955414,-6.5429342,-4.8036925)">
      <path
         style="opacity:1"
         fill="#e8e8e7"
         d="m 226.5,132.5 c 5.083,-0.125 9.083,1.875 12,6 -0.667,0.333 -1.333,0.667 -2,1 -3.29,-1.264 -6.624,-2.43 -10,-3.5 -1.184,-1.145 -1.184,-2.312 0,-3.5 z"
         id="path18" />
    </g>
    <g
       id="g19"
       style="clip-rule:evenodd;fill-rule:evenodd;image-rendering:optimizeQuality;shape-rendering:geometricPrecision;text-rendering:geometricPrecision"
       transform="matrix(0.2955414,0,0,0.2955414,-6.5429342,-4.8036925)">
      <path
         style="opacity:1"
         fill="#f6f6f5"
         d="m 228.5,195.5 c -3.018,0.165 -6.018,-0.002 -9,-0.5 -2.667,-2 -5.333,-4 -8,-6 -20.667,-0.667 -41.333,-0.667 -62,0 -0.873,1.045 -1.873,1.878 -3,2.5 -3.484,3.632 -7.817,4.965 -13,4 0,-18.333 0,-36.667 0,-55 0.65,-0.304 1.317,-0.637 2,-1 0.833,16.323 1.333,32.656 1.5,49 4.345,0.713 7.679,-0.953 10,-5 2.928,-17.372 0.261,-33.705 -8,-49 -1.041,-2.085 -2.541,-3.752 -4.5,-5 -1.166,-14.655 -1.333,-29.322 -0.5,-44 0.241,-5.8887 1.741,-11.3887 4.5,-16.5 5.562,-3.1872 11.562,-5.1872 18,-6 22.955,-4.6697 45.289,-2.6697 67,6 1.201,0.9025 2.035,2.0692 2.5,3.5 2.615,18.9277 3.115,37.928 1.5,57 -2.304,1.931 -4.138,4.264 -5.5,7 -2.06,5.12 -4.393,10.12 -7,15 -0.667,10.333 -0.667,20.667 0,31 1.991,4.726 5.324,6.726 10,6 0.167,-16.344 0.667,-32.677 1.5,-49 0.333,0.167 0.667,0.333 1,0.5 0.993,18.424 1.326,36.924 1,55.5 z"
         id="path19" />
    </g>
    <g
       id="g20"
       style="clip-rule:evenodd;fill-rule:evenodd;image-rendering:optimizeQuality;shape-rendering:geometricPrecision;text-rendering:geometricPrecision"
       transform="matrix(0.2955414,0,0,0.2955414,-6.5429342,-4.8036925)">
      <path
         style="opacity:1"
         fill="#212120"
         d="m 167.5,118.5 c 17.088,-1.416 33.755,0.417 50,5.5 2.255,0.453 3.589,1.786 4,4 -1.926,6.851 -4.926,13.185 -9,19 -10.205,-0.38 -20.372,-1.213 -30.5,-2.5 -10.876,0.747 -21.709,1.58 -32.5,2.5 -4.074,-5.815 -7.074,-12.149 -9,-19 1.779,-3.621 4.779,-5.621 9,-6 6.117,-1.293 12.117,-2.46 18,-3.5 z"
         id="path20" />
    </g>
    <g
       id="g21"
       style="clip-rule:evenodd;fill-rule:evenodd;image-rendering:optimizeQuality;shape-rendering:geometricPrecision;text-rendering:geometricPrecision"
       transform="matrix(0.2955414,0,0,0.2955414,-6.5429342,-4.8036925)">
      <path
         style="opacity:1"
         fill="#525250"
         d="m 155.5,66.5 c 1.149,0.2911 1.816,1.1244 2,2.5 -2.964,16.6263 -6.297,33.126 -10,49.5 -1.152,-2.606 -1.318,-5.273 -0.5,-8 2.947,-14.6852 5.78,-29.3519 8.5,-44 z"
         id="path21" />
    </g>
    <g
       id="g22"
       style="clip-rule:evenodd;fill-rule:evenodd;image-rendering:optimizeQuality;shape-rendering:geometricPrecision;text-rendering:geometricPrecision"
       transform="matrix(0.2955414,0,0,0.2955414,-6.5429342,-4.8036925)">
      <path
         style="opacity:1"
         fill="#555452"
         d="m 204.5,66.5 c 1,0 2,0 3,0 2.349,17.4609 5.349,34.794 9,52 -1,0 -2,0 -3,0 -2.998,-17.328 -5.998,-34.6613 -9,-52 z"
         id="path22" />
    </g>
    <g
       id="g23"
       style="clip-rule:evenodd;fill-rule:evenodd;image-rendering:optimizeQuality;shape-rendering:geometricPrecision;text-rendering:geometricPrecision"
       transform="matrix(0.2955414,0,0,0.2955414,-6.5429342,-4.8036925)">
      <path
         style="opacity:1"
         fill="#dfdfdd"
         d="m 150.5,57.5 c 1.667,0 3.333,0 5,0 0,1 0,2 0,3 -6.337,0.6215 -12.337,2.1215 -18,4.5 3.525,-4.0902 7.859,-6.5902 13,-7.5 z"
         id="path23" />
    </g>
    <g
       id="g24"
       style="clip-rule:evenodd;fill-rule:evenodd;image-rendering:optimizeQuality;shape-rendering:geometricPrecision;text-rendering:geometricPrecision"
       transform="matrix(0.2955414,0,0,0.2955414,-6.5429342,-4.8036925)">
      <path
         style="opacity:1"
         fill="#d8d8d5"
         d="m 206.5,57.5 c 6.997,0.272 12.997,2.772 18,7.5 -5.771,-1.8556 -11.771,-3.0222 -18,-3.5 0,-1.3333 0,-2.6667 0,-4 z"
         id="path24" />
    </g>
    <g
       id="g25"
       style="clip-rule:evenodd;fill-rule:evenodd;image-rendering:optimizeQuality;shape-rendering:geometricPrecision;text-rendering:geometricPrecision"
       transform="matrix(0.2955414,0,0,0.2955414,-6.5429342,-4.8036925)">
      <path
         style="opacity:1"
         fill="#373735"
         d="m 231.5,141.5 c 1.291,-0.237 2.291,0.096 3,1 -1.991,26.646 -2.658,53.646 -2,81 -0.998,-27.162 -1.331,-54.495 -1,-82 z"
         id="path25" />
    </g>
    <g
       id="g30"
       style="clip-rule:evenodd;fill-rule:evenodd;image-rendering:optimizeQuality;shape-rendering:geometricPrecision;text-rendering:geometricPrecision"
       transform="matrix(0.2955414,0,0,0.2955414,-6.5429342,-4.8036925)">
      <path
         style="opacity:1"
         fill="#2f2f2c"
         d="m 132.5,140.5 c 0.333,0 0.667,0 1,0 0,18.333 0,36.667 0,55 5.183,0.965 9.516,-0.368 13,-4 0.689,1.274 1.523,1.274 2.5,0 2.096,1.215 1.929,2.049 -0.5,2.5 0.5,0.167 1,0.333 1.5,0.5 1.781,-0.239 3.614,-0.572 5.5,-1 0.333,0.333 0.667,0.667 1,1 -0.667,0.333 -1.333,0.667 -2,1 -7.723,0.57 -14.723,1.237 -21,2 0,0.333 0,0.667 0,1 0,0.333 0,0.667 0,1 0,29 0,58 0,87 -1.437,-48.504 -1.77,-97.171 -1,-146 z"
         id="path30" />
    </g>
    <g
       id="g78"
       style="clip-rule:evenodd;fill-rule:evenodd;image-rendering:optimizeQuality;shape-rendering:geometricPrecision;text-rendering:geometricPrecision"
       transform="matrix(0.2955414,0,0,0.2955414,-6.5429342,-4.8036925)">
      <path
         style="opacity:1"
         fill="#20201e"
         d="m 132.5,140.5 c -0.77,48.829 -0.437,97.496 1,146 -0.166,4.346 0.001,8.679 0.5,13 0.833,0.833 1.667,1.667 2.5,2.5 29.836,0.831 59.503,0.664 89,-0.5 1.644,-0.31 2.644,-1.31 3,-3 0.998,-33.496 1.332,-67.163 1,-101 -3.667,0 -7.333,0 -11,0 3.667,-0.667 7.333,-1.333 11,-2 -0.167,-17.67 0,-35.336 0.5,-53 0.383,-0.556 0.883,-0.889 1.5,-1 -0.331,27.505 0.002,54.838 1,82 3.029,1.872 5.195,4.539 6.5,8 0.667,16 0.667,32 0,48 -1.094,3.192 -2.927,5.858 -5.5,8 -0.827,3.959 -1.327,7.959 -1.5,12 -0.786,3.083 -2.619,5.249 -5.5,6.5 -30,0.667 -60,0.667 -90,0 -1.786,-0.785 -3.286,-1.951 -4.5,-3.5 -1.062,-4.923 -1.895,-9.923 -2.5,-15 -3.486,-1.995 -5.653,-4.995 -6.5,-9 -0.667,-15 -0.667,-30 0,-45 0.249,-2.677 1.249,-5.01 3,-7 0.816,-1.323 1.983,-1.989 3.5,-2 0.336,-28.182 1.336,-56.182 3,-84 z"
         id="path78" />
    </g>
    <g
       id="g79"
       style="clip-rule:evenodd;fill-rule:evenodd;image-rendering:optimizeQuality;shape-rendering:geometricPrecision;text-rendering:geometricPrecision"
       transform="matrix(0.2955414,0,0,0.2955414,-6.5429342,-4.8036925)">
      <path
         style="opacity:1"
         fill="#222220"
         d="m 199.5,202.5 c 8.517,-0.326 16.85,0.007 25,1 0.325,31.74 -0.008,63.407 -1,95 -21.667,0 -43.333,0 -65,0 -1.591,-1.937 -3.258,-3.937 -5,-6 0.44,1.453 -0.226,2.619 -2,3.5 -4.01,0.357 -8.01,0.19 -12,-0.5 -0.65,-22.731 0.017,-45.231 2,-67.5 -1.294,-3.74 -1.961,-7.74 -2,-12 -3.075,-11.757 1.258,-15.924 13,-12.5 7.865,1.189 16.532,2.189 26,3 5.327,-0.937 10.493,-0.937 15.5,0 3.076,-0.788 6.242,-1.288 9.5,-1.5 -3,-0.333 -6,-0.667 -9,-1 1.882,-0.198 3.548,-0.698 5,-1.5 z"
         id="path79" />
    </g>
    <g
       id="g80"
       style="clip-rule:evenodd;fill-rule:evenodd;image-rendering:optimizeQuality;shape-rendering:geometricPrecision;text-rendering:geometricPrecision"
       transform="matrix(0.2955414,0,0,0.2955414,-6.5429342,-4.8036925)">
      <path
         style="opacity:1"
         fill="#979796"
         d="m 233.5,229.5 c -0.997,17.826 -1.33,35.826 -1,54 -1.327,-18.171 -1.327,-36.504 0,-55 0.607,0.124 0.94,0.457 1,1 z"
         id="path80" />
    </g>
    <g
       id="g81"
       style="clip-rule:evenodd;fill-rule:evenodd;image-rendering:optimizeQuality;shape-rendering:geometricPrecision;text-rendering:geometricPrecision"
       transform="matrix(0.2955414,0,0,0.2955414,-6.5429342,-4.8036925)">
      <path
         style="opacity:1"
         fill="#181818"
         d="m 199.5,202.5 c -1.452,0.802 -3.118,1.302 -5,1.5 3,0.333 6,0.667 9,1 -3.258,0.212 -6.424,0.712 -9.5,1.5 -5.007,-0.937 -10.173,-0.937 -15.5,0 -9.468,-0.811 -18.135,-1.811 -26,-3 -11.742,-3.424 -16.075,0.743 -13,12.5 0.039,4.26 0.706,8.26 2,12 -1.983,22.269 -2.65,44.769 -2,67.5 3.99,0.69 7.99,0.857 12,0.5 1.774,-0.881 2.44,-2.047 2,-3.5 1.742,2.063 3.409,4.063 5,6 -6.922,0.312 -13.756,-0.021 -20.5,-1 -0.5,-31.332 -0.667,-62.665 -0.5,-94 20.591,-0.988 41.258,-1.321 62,-1 z"
         id="path81" />
    </g>
    <g
       id="g82"
       style="clip-rule:evenodd;fill-rule:evenodd;image-rendering:optimizeQuality;shape-rendering:geometricPrecision;text-rendering:geometricPrecision"
       transform="matrix(0.2955414,0,0,0.2955414,-6.5429342,-4.8036925)">
      <path
         style="opacity:1"
         fill="#bebeb9"
         d="m 224.5,203.5 c 0.667,15.663 1,31.496 1,47.5 -0.001,16.181 -0.667,32.014 -2,47.5 0.992,-31.593 1.325,-63.26 1,-95 z"
         id="path82" />
    </g>
    <g
       id="g83"
       style="clip-rule:evenodd;fill-rule:evenodd;image-rendering:optimizeQuality;shape-rendering:geometricPrecision;text-rendering:geometricPrecision"
       transform="matrix(0.2955414,0,0,0.2955414,-6.5429342,-4.8036925)">
      <path
         style="opacity:1"
         fill="#e8e8e7"
         d="m 133.5,199.5 c 0.667,7.178 1.333,14.511 2,22 0.667,-6.154 1.333,-12.154 2,-18 -0.167,31.335 0,62.668 0.5,94 6.744,0.979 13.578,1.312 20.5,1 21.667,0 43.333,0 65,0 -20.829,0.832 -41.829,1.332 -63,1.5 21.575,1.478 43.242,1.978 65,1.5 -29.497,1.164 -59.164,1.331 -89,0.5 -0.833,-0.833 -1.667,-1.667 -2.5,-2.5 -0.499,-4.321 -0.666,-8.654 -0.5,-13 0,-29 0,-58 0,-87 z"
         id="path83" />
    </g>
    <g
       id="g84"
       style="clip-rule:evenodd;fill-rule:evenodd;image-rendering:optimizeQuality;shape-rendering:geometricPrecision;text-rendering:geometricPrecision"
       transform="matrix(0.2955414,0,0,0.2955414,-6.5429342,-4.8036925)">
      <path
         style="opacity:1"
         fill="#f0f0f0"
         d="m 233.5,229.5 c 0.722,0.418 1.222,1.084 1.5,2 0.667,16 0.667,32 0,48 -0.2,1.82 -1.034,3.153 -2.5,4 -0.33,-18.174 0.003,-36.174 1,-54 z"
         id="path84" />
    </g>
    <g
       id="g85"
       style="clip-rule:evenodd;fill-rule:evenodd;image-rendering:optimizeQuality;shape-rendering:geometricPrecision;text-rendering:geometricPrecision"
       transform="matrix(0.2955414,0,0,0.2955414,-6.5429342,-4.8036925)">
      <path
         style="opacity:1"
         fill="#ebebe9"
         d="m 129.5,228.5 c 1.327,18.171 1.327,36.504 0,55 -1.306,-1.412 -2.14,-3.079 -2.5,-5 -0.667,-15.333 -0.667,-30.667 0,-46 0.662,-1.484 1.496,-2.817 2.5,-4 z"
         id="path85" />
    </g>
    <g
       id="g86"
       style="clip-rule:evenodd;fill-rule:evenodd;image-rendering:optimizeQuality;shape-rendering:geometricPrecision;text-rendering:geometricPrecision"
       transform="matrix(0.2955414,0,0,0.2955414,-6.5429342,-4.8036925)">
      <path
         style="opacity:1"
         fill="#757574"
         d="m 133.5,198.5 c 0,-0.333 0,-0.667 0,-1 28.333,0 56.667,0 85,0 3.667,0 7.333,0 11,0 0.332,33.837 -0.002,67.504 -1,101 0,-33.333 0,-66.667 0,-100 -31.667,0 -63.333,0 -95,0 z"
         id="path86" />
    </g>
    <g
       id="g87"
       style="clip-rule:evenodd;fill-rule:evenodd;image-rendering:optimizeQuality;shape-rendering:geometricPrecision;text-rendering:geometricPrecision"
       transform="matrix(0.2955414,0,0,0.2955414,-6.5429342,-4.8036925)">
      <path
         style="opacity:1"
         fill="#f0f0ef"
         d="m 133.5,199.5 c 0,-0.333 0,-0.667 0,-1 31.667,0 63.333,0 95,0 0,33.333 0,66.667 0,100 -0.356,1.69 -1.356,2.69 -3,3 -21.758,0.478 -43.425,-0.022 -65,-1.5 21.171,-0.168 42.171,-0.668 63,-1.5 1.333,-15.486 1.999,-31.319 2,-47.5 0,-16.004 -0.333,-31.837 -1,-47.5 -8.15,-0.993 -16.483,-1.326 -25,-1 -20.742,-0.321 -41.409,0.012 -62,1 -0.667,5.846 -1.333,11.846 -2,18 -0.667,-7.489 -1.333,-14.822 -2,-22 z"
         id="path87" />
    </g>
    <g
       id="g88"
       style="clip-rule:evenodd;fill-rule:evenodd;image-rendering:optimizeQuality;shape-rendering:geometricPrecision;text-rendering:geometricPrecision"
       transform="matrix(0.2955414,0,0,0.2955414,-6.5429342,-4.8036925)">
      <path
         style="opacity:1"
         fill="#1d1e1b"
         d="m 228.5,195.5 c 0.333,0 0.667,0 1,0 -3.667,0.667 -7.333,1.333 -11,2 -28.333,0 -56.667,0 -85,0 6.277,-0.763 13.277,-1.43 21,-2 0.667,-0.333 1.333,-0.667 2,-1 -0.333,-0.333 -0.667,-0.667 -1,-1 -1.886,0.428 -3.719,0.761 -5.5,1 -0.5,-0.167 -1,-0.333 -1.5,-0.5 2.429,-0.451 2.596,-1.285 0.5,-2.5 -0.977,1.274 -1.811,1.274 -2.5,0 1.127,-0.622 2.127,-1.455 3,-2.5 20.667,-0.667 41.333,-0.667 62,0 2.667,2 5.333,4 8,6 2.982,0.498 5.982,0.665 9,0.5 z"
         id="path88" />
    </g>
  </g>
</svg>
