<?xml version="1.0" encoding="UTF-8" standalone="no"?>
<!-- Created with Inkscape (http://www.inkscape.org/) -->

<svg
   width="96mm"
   height="96mm"
   viewBox="0 0 96 96"
   version="1.1"
   id="svg1"
   inkscape:version="1.4.2 (ebf0e940, 2025-05-08)"
   sodipodi:docname="train.svg"
   xmlns:inkscape="http://www.inkscape.org/namespaces/inkscape"
   xmlns:sodipodi="http://sodipodi.sourceforge.net/DTD/sodipodi-0.dtd"
   xmlns="http://www.w3.org/2000/svg"
   xmlns:svg="http://www.w3.org/2000/svg">
  <sodipodi:namedview
     id="namedview1"
     pagecolor="#ffffff"
     bordercolor="#000000"
     borderopacity="0.25"
     inkscape:showpageshadow="2"
     inkscape:pageopacity="0.0"
     inkscape:pagecheckerboard="0"
     inkscape:deskcolor="#d1d1d1"
     inkscape:document-units="mm"
     inkscape:zoom="0.80444024"
     inkscape:cx="397.17059"
     inkscape:cy="362.36377"
     inkscape:window-width="1920"
     inkscape:window-height="1052"
     inkscape:window-x="0"
     inkscape:window-y="28"
     inkscape:window-maximized="0"
     inkscape:current-layer="layer1" />
  <defs
     id="defs1" />
  <g
     inkscape:label="Layer 1"
     inkscape:groupmode="layer"
     id="layer1">
    <g
       id="g4"
       style="clip-rule:evenodd;fill-rule:evenodd;image-rendering:optimizeQuality;shape-rendering:geometricPrecision;text-rendering:geometricPrecision"
       transform="matrix(0.2541419,0,0,0.2541419,-30.362989,6.7873689)">
      <path
         style="opacity:1"
         fill="#41413e"
         d="m 282.5,178.5 c -0.264,9.462 0.236,18.795 1.5,28 -0.333,-1 -0.667,-2 -1,-3 -0.667,27 -0.667,54 0,81 1.308,-0.651 2.141,0.015 2.5,2 0,2 0,4 0,6 1.322,-0.17 2.489,0.163 3.5,1 0.667,3.333 0.667,6.667 0,10 -1.154,1.243 -2.488,2.243 -4,3 -0.495,1.973 -0.662,3.973 -0.5,6 6.333,0 12.667,0 19,0 0.165,-3.35 -0.002,-6.683 -0.5,-10 -0.75,-0.626 -1.584,-1.126 -2.5,-1.5 1.634,-0.494 3.301,-0.66 5,-0.5 0,4 0,8 0,12 4.667,0 9.333,0 14,0 0,-4.333 0,-8.667 0,-13 1.644,0.214 3.144,-0.12 4.5,-1 0.667,-5 0.667,-10 0,-15 -0.5,-0.5 -1,-1 -1.5,-1.5 -7.024,-0.831 -14.024,-0.664 -21,0.5 -2.644,17.25 -3.311,17.25 -2,0 -1.189,-0.929 -2.522,-1.262 -4,-1 -1.243,-6.636 -1.409,-23.303 -0.5,-50 2.376,-2.545 4.876,-4.878 7.5,-7 0.999,-14.318 1.333,-28.651 1,-43 0.667,0 1.333,0 2,0 0.167,14.67 0,29.337 -0.5,44 -1.512,0.757 -2.846,1.757 -4,3 -0.173,4.041 -0.673,8.041 -1.5,12 -0.667,-2.667 -1.333,-5.333 -2,-8 -1.166,15.322 -1.333,30.656 -0.5,46 0.414,0.457 0.914,0.791 1.5,1 0.068,-6.591 0.234,-13.258 0.5,-20 0.333,-0.333 0.667,-0.667 1,-1 0.172,4.702 0.672,9.368 1.5,14 2.519,-4.88 4.853,-9.88 7,-15 -2.667,-0.667 -5.333,-1.333 -8,-2 3.333,-0.667 6.667,-1.333 10,-2 0.419,-1.172 1.085,-2.172 2,-3 0.333,0.333 0.667,0.667 1,1 -2.964,6.921 -5.631,13.921 -8,21 4.667,0 9.333,0 14,0 -1.295,-3.165 -2.295,-6.499 -3,-10 -0.018,-1.873 0.482,-2.206 1.5,-1 1.409,3.816 3.076,7.483 5,11 0.499,-5.323 0.666,-10.656 0.5,-16 -9.184,-1.253 -9.184,-1.919 0,-2 0,-2 0,-4 0,-6 -7.363,0.331 -14.697,-0.003 -22,-1 7.557,-0.682 15.057,-1.349 22.5,-2 0.667,-5.667 0.667,-11.333 0,-17 -1.154,-1.243 -2.488,-2.243 -4,-3 -0.5,-14.996 -0.667,-29.996 -0.5,-45 -1,0 -2,0 -3,0 -1.792,-0.809 -3.792,-1.309 -6,-1.5 10.16,-0.025 20.16,-0.691 30,-2 -9.333,-0.167 -18.667,-0.333 -28,-0.5 -9.895,0.026 -19.562,0.692 -29,2 -1.898,-10.48 -2.565,-21.147 -2,-32 0.729,3.041 1.896,6.041 3.5,9 2.521,1.381 4.355,3.381 5.5,6 -0.951,1.618 -2.284,2.951 -4,4 -0.984,2.928 -1.317,5.928 -1,9 6,0 12,0 18,0 -0.327,-4.714 0.007,-9.38 1,-14 0.992,4.283 1.326,8.616 1,13 4.333,0 8.667,0 13,0 0.935,-26.317 1.268,-52.65 1,-79 -4.667,0 -9.333,0 -14,0 0,10.667 0,21.333 0,32 -1,-0.333 -1.667,-1 -2,-2 0.166,-10.339 0,-20.672 -0.5,-31 -7.909,-13.2169 -9.575,-27.2169 -5,-42 5.821,-7.9018 13.321,-10.0684 22.5,-6.5 6.824,5.3199 9.824,12.3199 9,21 0.147,9.8919 -2.353,19.0586 -7.5,27.5 -0.5,26.665 -0.667,53.331 -0.5,80 6,0 12,0 18,0 0.711,-3.781 -0.455,-6.781 -3.5,-9 -0.667,-3.333 -0.667,-6.667 0,-10 1.011,-0.837 2.178,-1.17 3.5,-1 0.468,-3.442 -0.698,-6.109 -3.5,-8 -0.667,-4 -0.667,-8 0,-12 4.462,-2.862 4.629,-5.862 0.5,-9 -1.161,-4.295 -1.328,-8.629 -0.5,-13 4.667,-2.667 4.667,-5.333 0,-8 -1.138,-3.9305 -0.305,-7.2638 2.5,-10 1.155,-2.9459 1.321,-5.9459 0.5,-9 -4.132,-20.6056 -10.299,-40.6056 -18.5,-60 0.774,-1.2112 1.607,-1.2112 2.5,0 5.736,15.2099 11.07,30.5433 16,46 1.1,-17.2067 -1.067,-33.8734 -6.5,-50 -0.857,1.2357 -1.523,2.569 -2,4 -1.223,1.1139 -2.556,1.2805 -4,0.5 -1.394,-1.7395 -2.061,-3.7395 -2,-6 0.185,-2.4019 0.685,-4.5685 1.5,-6.5 -9.286,-5.4418 -18.453,-5.27514 -27.5,0.5 1.687,1.913 2.187,4.0797 1.5,6.5 -3.089,-5.173 -4.923,-4.5063 -5.5,2 -1,0 -2,0 -3,0 -1.498,8.3187 -2.998,16.6521 -4.5,25 -1.265,7.9689 -1.598,15.9689 -1,24 5.176,-16.0408 11.009,-31.7075 17.5,-47 0.333,0.5 0.667,1 1,1.5 -8.671,20.1765 -15.005,41.0098 -19,62.5 0.995,4.3067 2.328,8.4734 4,12.5 0.783,3.594 -0.55,5.427 -4,5.5 0,1.667 0,3.333 0,5 1.322,-0.17 2.489,0.163 3.5,1 0.499,3.986 0.666,7.986 0.5,12 -1.1,1.058 -2.434,1.892 -4,2.5 -0.532,2.463 -1.866,4.297 -4,5.5 -0.167,-27.002 0,-54.0021 0.5,-81 0.837,-11.034 3.17,-21.7006 7,-32 6.311,-11.07103 15.811,-15.57103 28.5,-13.5 11.806,2.47303 18.973,9.6397 21.5,21.5 1.982,8.9074 3.315,17.9074 4,27 0.167,20.5 0.333,41 0.5,61.5 -0.146,66.421 -0.313,132.921 -0.5,199.5 -1.011,0.837 -2.178,1.17 -3.5,1 0.214,1.644 -0.12,3.144 -1,4.5 -17,0.667 -34,0.667 -51,0 -1.627,-2.02 -3.461,-3.853 -5.5,-5.5 -0.831,-45.502 -0.665,-90.835 0.5,-136 z"
         id="path4" />
    </g>
    <g
       id="g5"
       style="clip-rule:evenodd;fill-rule:evenodd;image-rendering:optimizeQuality;shape-rendering:geometricPrecision;text-rendering:geometricPrecision"
       transform="matrix(0.2541419,0,0,0.2541419,-30.362989,6.7873689)">
      <path
         style="opacity:1"
         fill="#21201e"
         d="m 303.5,124.5 c -4.619,-0.814 -9.286,-1.147 -14,-1 0.166,-4.014 -10e-4,-8.014 -0.5,-12 -1.011,-0.837 -2.178,-1.17 -3.5,-1 0,-1.667 0,-3.333 0,-5 3.45,-0.073 4.783,-1.906 4,-5.5 -1.672,-4.0266 -3.005,-8.1933 -4,-12.5 3.995,-21.4902 10.329,-42.3235 19,-62.5 -0.333,-0.5 -0.667,-1 -1,-1.5 -6.491,15.2925 -12.324,30.9592 -17.5,47 -0.598,-8.0311 -0.265,-16.0311 1,-24 1.502,-8.3479 3.002,-16.6813 4.5,-25 1,0 2,0 3,0 0.577,-6.5063 2.411,-7.173 5.5,-2 0.687,-2.4203 0.187,-4.587 -1.5,-6.5 9.047,-5.77514 18.214,-5.9418 27.5,-0.5 -0.815,1.9315 -1.315,4.0981 -1.5,6.5 -0.061,2.2605 0.606,4.2605 2,6 1.444,0.7805 2.777,0.6139 4,-0.5 0.477,-1.431 1.143,-2.7643 2,-4 5.433,16.1266 7.6,32.7933 6.5,50 -4.93,-15.4567 -10.264,-30.7901 -16,-46 -0.893,-1.2112 -1.726,-1.2112 -2.5,0 8.201,19.3944 14.368,39.3944 18.5,60 0.821,3.0541 0.655,6.0541 -0.5,9 -2.805,2.7362 -3.638,6.0695 -2.5,10 4.667,2.667 4.667,5.333 0,8 -0.828,4.371 -0.661,8.705 0.5,13 4.129,3.138 3.962,6.138 -0.5,9 -0.667,4 -0.667,8 0,12 2.802,1.891 3.968,4.558 3.5,8 -1.322,-0.17 -2.489,0.163 -3.5,1 -0.667,3.333 -0.667,6.667 0,10 3.045,2.219 4.211,5.219 3.5,9 -6,0 -12,0 -18,0 -0.167,-26.669 0,-53.335 0.5,-80 5.147,-8.4414 7.647,-17.6081 7.5,-27.5 0.824,-8.6801 -2.176,-15.6801 -9,-21 -9.179,-3.5684 -16.679,-1.4018 -22.5,6.5 -4.575,14.7831 -2.909,28.7831 5,42 0.5,10.328 0.666,20.661 0.5,31 z"
         id="path5" />
    </g>
    <g
       id="g6"
       style="clip-rule:evenodd;fill-rule:evenodd;image-rendering:optimizeQuality;shape-rendering:geometricPrecision;text-rendering:geometricPrecision"
       transform="matrix(0.2541419,0,0,0.2541419,-30.362989,6.7873689)">
      <path
         style="opacity:1"
         fill="#21201e"
         d="m 308.5,58.5 c 7.131,-1.3597 11.464,1.4736 13,8.5 2,0.3333 4,0.6667 6,1 -0.855,8.2473 -3.188,16.0806 -7,23.5 -5.302,1.1628 -10.636,1.3295 -16,0.5 -4.583,-7.4991 -6.75,-15.6658 -6.5,-24.5 1.825,-0.6029 3.659,-1.2696 5.5,-2 1.304,-2.6301 2.97,-4.9634 5,-7 z"
         id="path6" />
    </g>
    <g
       id="g9"
       style="clip-rule:evenodd;fill-rule:evenodd;image-rendering:optimizeQuality;shape-rendering:geometricPrecision;text-rendering:geometricPrecision"
       transform="matrix(0.2541419,0,0,0.2541419,-30.362989,6.7873689)">
      <path
         style="opacity:1"
         fill="#5f3c37"
         d="m 289.5,123.5 c 4.714,-0.147 9.381,0.186 14,1 0.333,1 1,1.667 2,2 2.704,1.549 4.537,3.883 5.5,7 1.037,5.894 0.371,11.561 -2,17 -2.963,5.222 -6.463,10.055 -10.5,14.5 -1.333,0.667 -2.667,0.667 -4,0 -1.205,-1.376 -2.538,-2.542 -4,-3.5 -1.145,-2.619 -2.979,-4.619 -5.5,-6 -1.604,-2.959 -2.771,-5.959 -3.5,-9 -1.333,-5 -1.333,-10 0,-15 2.134,-1.203 3.468,-3.037 4,-5.5 1.566,-0.608 2.9,-1.442 4,-2.5 z"
         id="path9" />
    </g>
    <g
       id="g10"
       style="clip-rule:evenodd;fill-rule:evenodd;image-rendering:optimizeQuality;shape-rendering:geometricPrecision;text-rendering:geometricPrecision"
       transform="matrix(0.2541419,0,0,0.2541419,-30.362989,6.7873689)">
      <path
         style="opacity:1"
         fill="#8b524d"
         d="m 291.5,126.5 c 15.125,-1.37 20.625,5.297 16.5,20 -3.262,6.193 -7.262,11.86 -12,17 -5.779,-5.229 -9.779,-11.562 -12,-19 -2.58,-8.375 -0.08,-14.375 7.5,-18 z"
         id="path10" />
    </g>
    <g
       id="g11"
       style="clip-rule:evenodd;fill-rule:evenodd;image-rendering:optimizeQuality;shape-rendering:geometricPrecision;text-rendering:geometricPrecision"
       transform="matrix(0.2541419,0,0,0.2541419,-30.362989,6.7873689)">
      <path
         style="opacity:1"
         fill="#eee0de"
         d="m 294.5,134.5 c 4.828,-0.115 6.161,2.052 4,6.5 -6.161,0.878 -7.494,-1.289 -4,-6.5 z"
         id="path11" />
    </g>
    <g
       id="g17"
       style="clip-rule:evenodd;fill-rule:evenodd;image-rendering:optimizeQuality;shape-rendering:geometricPrecision;text-rendering:geometricPrecision"
       transform="matrix(0.2541419,0,0,0.2541419,-30.362989,6.7873689)">
      <path
         style="opacity:1"
         fill="#211f1c"
         d="m 290.5,161.5 c 1.462,0.958 2.795,2.124 4,3.5 1.333,0.667 2.667,0.667 4,0 4.037,-4.445 7.537,-9.278 10.5,-14.5 2.371,-5.439 3.037,-11.106 2,-17 -0.963,-3.117 -2.796,-5.451 -5.5,-7 0,-10.667 0,-21.333 0,-32 4.667,0 9.333,0 14,0 0.268,26.35 -0.065,52.683 -1,79 -4.333,0 -8.667,0 -13,0 0.326,-4.384 -0.008,-8.717 -1,-13 -0.993,4.62 -1.327,9.286 -1,14 -6,0 -12,0 -18,0 -0.317,-3.072 0.016,-6.072 1,-9 1.716,-1.049 3.049,-2.382 4,-4 z"
         id="path17" />
    </g>
    <g
       id="g57"
       style="clip-rule:evenodd;fill-rule:evenodd;image-rendering:optimizeQuality;shape-rendering:geometricPrecision;text-rendering:geometricPrecision"
       transform="matrix(0.2541419,0,0,0.2541419,-30.362989,6.7873689)">
      <path
         style="opacity:1"
         fill="#383836"
         d="m 316.5,180.5 c -3.871,-0.315 -7.538,0.018 -11,1 -0.667,0 -1.333,0 -2,0 -6.145,-0.99 -12.478,-1.323 -19,-1 0,3 0,6 0,9 4.048,0.224 5.715,2.391 5,6.5 0.74,3.659 -0.593,5.826 -4,6.5 -0.326,3.107 0.841,5.44 3.5,7 0.667,4.333 0.667,8.667 0,13 -1.154,1.243 -2.488,2.243 -4,3 -0.494,1.634 -0.66,3.301 -0.5,5 1.43,-0.079 2.764,0.254 4,1 1.333,4.333 1.333,8.667 0,13 -1.236,0.746 -2.57,1.079 -4,1 -0.922,3.982 0.578,6.316 4.5,7 0.667,4 0.667,8 0,12 -1.11,1.537 -2.61,2.203 -4.5,2 0,1.667 0,3.333 0,5 4.454,0.661 6.121,3.328 5,8 -0.167,2 -0.333,4 -0.5,6 -1.011,0.837 -2.178,1.17 -3.5,1 -0.359,-1.985 -1.192,-2.651 -2.5,-2 -0.667,-27 -0.667,-54 0,-81 0.333,1 0.667,2 1,3 -1.264,-9.205 -1.764,-18.538 -1.5,-28 0.333,0 0.667,0 1,0 9.438,-1.308 19.105,-1.974 29,-2 9.333,0.167 18.667,0.333 28,0.5 -9.84,1.309 -19.84,1.975 -30,2 2.208,0.191 4.208,0.691 6,1.5 z"
         id="path57" />
    </g>
    <g
       id="g58"
       style="clip-rule:evenodd;fill-rule:evenodd;image-rendering:optimizeQuality;shape-rendering:geometricPrecision;text-rendering:geometricPrecision"
       transform="matrix(0.2541419,0,0,0.2541419,-30.362989,6.7873689)">
      <path
         style="opacity:1"
         fill="#242421"
         d="m 316.5,180.5 c 1,0 2,0 3,0 -0.167,15.004 0,30.004 0.5,45 1.512,0.757 2.846,1.757 4,3 0.667,5.667 0.667,11.333 0,17 -7.443,0.651 -14.943,1.318 -22.5,2 7.303,0.997 14.637,1.331 22,1 0,2 0,4 0,6 -9.184,0.081 -9.184,0.747 0,2 0.166,5.344 -10e-4,10.677 -0.5,16 -1.924,-3.517 -3.591,-7.184 -5,-11 -1.018,-1.206 -1.518,-0.873 -1.5,1 0.705,3.501 1.705,6.835 3,10 -4.667,0 -9.333,0 -14,0 2.369,-7.079 5.036,-14.079 8,-21 -0.333,-0.333 -0.667,-0.667 -1,-1 -0.915,0.828 -1.581,1.828 -2,3 -3.333,0.667 -6.667,1.333 -10,2 2.667,0.667 5.333,1.333 8,2 -2.147,5.12 -4.481,10.12 -7,15 -0.828,-4.632 -1.328,-9.298 -1.5,-14 -0.333,0.333 -0.667,0.667 -1,1 -0.266,6.742 -0.432,13.409 -0.5,20 -0.586,-0.209 -1.086,-0.543 -1.5,-1 -0.833,-15.344 -0.666,-30.678 0.5,-46 0.667,2.667 1.333,5.333 2,8 0.827,-3.959 1.327,-7.959 1.5,-12 1.154,-1.243 2.488,-2.243 4,-3 0.5,-14.663 0.667,-29.33 0.5,-44 3.462,-0.982 7.129,-1.315 11,-1 z"
         id="path58" />
    </g>
    <g
       id="g59"
       style="clip-rule:evenodd;fill-rule:evenodd;image-rendering:optimizeQuality;shape-rendering:geometricPrecision;text-rendering:geometricPrecision"
       transform="matrix(0.2541419,0,0,0.2541419,-30.362989,6.7873689)">
      <path
         style="opacity:1"
         fill="#20201e"
         d="m 321.5,180.5 c 6,0 12,0 18,0 0.317,3.072 -0.016,6.072 -1,9 -0.667,0.333 -1.333,0.667 -2,1 -1.157,3.284 -1.324,6.618 -0.5,10 4.648,3.284 4.648,6.617 0,10 -0.667,4.333 -0.667,8.667 0,13 3.044,1.303 4.211,3.636 3.5,7 -1.322,-0.17 -2.489,0.163 -3.5,1 -0.828,4.371 -0.661,8.705 0.5,13 3.631,2.162 3.797,4.495 0.5,7 -0.667,4.667 -0.667,9.333 0,14 3.307,2.959 2.974,5.626 -1,8 -1.452,6.196 -0.285,11.696 3.5,16.5 -0.209,1.871 -1.209,3.038 -3,3.5 -1.811,4.911 -0.978,9.245 2.5,13 0.495,1.973 0.662,3.973 0.5,6 -6,0 -12,0 -18,0 0,-3.667 0,-7.333 0,-11 3.993,0.255 6.826,-1.411 8.5,-5 0.667,-21.333 0.667,-42.667 0,-64 -2,-3.333 -4.667,-6 -8,-8 -0.5,-14.663 -0.667,-29.33 -0.5,-44 z"
         id="path59" />
    </g>
    <g
       id="g64"
       style="clip-rule:evenodd;fill-rule:evenodd;image-rendering:optimizeQuality;shape-rendering:geometricPrecision;text-rendering:geometricPrecision"
       transform="matrix(0.2541419,0,0,0.2541419,-30.362989,6.7873689)">
      <path
         style="opacity:1"
         fill="#21201e"
         d="m 303.5,181.5 c 0.333,14.349 -10e-4,28.682 -1,43 -2.624,2.122 -5.124,4.455 -7.5,7 -0.909,26.697 -0.743,43.364 0.5,50 1.478,-0.262 2.811,0.071 4,1 -1.311,17.25 -0.644,17.25 2,0 6.976,-1.164 13.976,-1.331 21,-0.5 0.5,0.5 1,1 1.5,1.5 0.667,5 0.667,10 0,15 -1.356,0.88 -2.856,1.214 -4.5,1 0,4.333 0,8.667 0,13 -4.667,0 -9.333,0 -14,0 0,-4 0,-8 0,-12 -1.699,-0.16 -3.366,0.006 -5,0.5 0.916,0.374 1.75,0.874 2.5,1.5 0.498,3.317 0.665,6.65 0.5,10 -6.333,0 -12.667,0 -19,0 -0.162,-2.027 0.005,-4.027 0.5,-6 1.512,-0.757 2.846,-1.757 4,-3 0.667,-3.333 0.667,-6.667 0,-10 -1.011,-0.837 -2.178,-1.17 -3.5,-1 0,-2 0,-4 0,-6 1.322,0.17 2.489,-0.163 3.5,-1 0.167,-2 0.333,-4 0.5,-6 1.121,-4.672 -0.546,-7.339 -5,-8 0,-1.667 0,-3.333 0,-5 1.89,0.203 3.39,-0.463 4.5,-2 0.667,-4 0.667,-8 0,-12 -3.922,-0.684 -5.422,-3.018 -4.5,-7 1.43,0.079 2.764,-0.254 4,-1 1.333,-4.333 1.333,-8.667 0,-13 -1.236,-0.746 -2.57,-1.079 -4,-1 -0.16,-1.699 0.006,-3.366 0.5,-5 1.512,-0.757 2.846,-1.757 4,-3 0.667,-4.333 0.667,-8.667 0,-13 -2.659,-1.56 -3.826,-3.893 -3.5,-7 3.407,-0.674 4.74,-2.841 4,-6.5 0.715,-4.109 -0.952,-6.276 -5,-6.5 0,-3 0,-6 0,-9 6.522,-0.323 12.855,0.01 19,1 z"
         id="path64" />
    </g>
    <g
       id="g65"
       style="clip-rule:evenodd;fill-rule:evenodd;image-rendering:optimizeQuality;shape-rendering:geometricPrecision;text-rendering:geometricPrecision"
       transform="matrix(0.2541419,0,0,0.2541419,-30.362989,6.7873689)">
      <path
         style="opacity:1"
         fill="#1e1e1d"
         d="m 326.5,232.5 c 0.617,0.111 1.117,0.444 1.5,1 0.167,7.5 0.333,15 0.5,22.5 0.153,7.993 -0.347,15.826 -1.5,23.5 -2.015,-1.978 -1.848,-3.812 0.5,-5.5 -0.99,-13.754 -1.323,-27.588 -1,-41.5 z"
         id="path65" />
    </g>
    <g
       id="g72"
       style="clip-rule:evenodd;fill-rule:evenodd;image-rendering:optimizeQuality;shape-rendering:geometricPrecision;text-rendering:geometricPrecision"
       transform="matrix(0.2541419,0,0,0.2541419,-30.362989,6.7873689)">
      <path
         style="opacity:1"
         fill="#212220"
         d="m 303.5,275.5 c 6,0 12,0 18,0 0,1.333 0,2.667 0,4 -6.368,0.33 -12.702,-0.004 -19,-1 0.627,-0.917 0.961,-1.917 1,-3 z"
         id="path72" />
    </g>
    <g
       id="g78"
       style="clip-rule:evenodd;fill-rule:evenodd;image-rendering:optimizeQuality;shape-rendering:geometricPrecision;text-rendering:geometricPrecision"
       transform="matrix(0.2541419,0,0,0.2541419,-30.362989,6.7873689)">
      <path
         style="opacity:1"
         fill="#23231e"
         d="m 289.5,315.5 c 15.681,-0.333 31.348,10e-4 47,1 -7.833,0.333 -15.667,0.667 -23.5,1 -8.196,-0.002 -16.03,-0.669 -23.5,-2 z"
         id="path78" />
    </g>
  </g>
</svg>
