<?xml version="1.0" encoding="UTF-8" standalone="no"?>
<!-- Created with Inkscape (http://www.inkscape.org/) -->

<svg
   width="96mm"
   height="96mm"
   viewBox="0 0 96 96"
   version="1.1"
   id="svg1"
   inkscape:version="1.4.2 (ebf0e940, 2025-05-08)"
   sodipodi:docname="finish.svg"
   xmlns:inkscape="http://www.inkscape.org/namespaces/inkscape"
   xmlns:sodipodi="http://sodipodi.sourceforge.net/DTD/sodipodi-0.dtd"
   xmlns="http://www.w3.org/2000/svg"
   xmlns:svg="http://www.w3.org/2000/svg">
  <sodipodi:namedview
     id="namedview1"
     pagecolor="#ffffff"
     bordercolor="#000000"
     borderopacity="0.25"
     inkscape:showpageshadow="2"
     inkscape:pageopacity="0.0"
     inkscape:pagecheckerboard="0"
     inkscape:deskcolor="#d1d1d1"
     inkscape:document-units="mm"
     inkscape:zoom="0.80444024"
     inkscape:cx="397.17059"
     inkscape:cy="362.36377"
     inkscape:window-width="1920"
     inkscape:window-height="1052"
     inkscape:window-x="0"
     inkscape:window-y="28"
     inkscape:window-maximized="0"
     inkscape:current-layer="layer1" />
  <defs
     id="defs1" />
  <g
     inkscape:label="Layer 1"
     inkscape:groupmode="layer"
     id="layer1">
    <g
       id="g139"
       style="clip-rule:evenodd;fill-rule:evenodd;image-rendering:optimizeQuality;shape-rendering:geometricPrecision;text-rendering:geometricPrecision"
       transform="matrix(0.31514193,0,0,0.31514193,-232.61296,-123.79702)">
      <path
         style="opacity:1"
         fill="#252523"
         d="m 875.5,421.5 c 53.903,-2.306 94.736,19.361 122.5,65 14.31,27.542 18.31,56.542 12,87 -11.303,43.97 -38.136,74.137 -80.5,90.5 -51.204,15.098 -95.371,3.598 -132.5,-34.5 -32.253,-39.761 -39.587,-83.761 -22,-132 20.207,-43.055 53.707,-68.388 100.5,-76 z"
         id="path139" />
    </g>
    <g
       id="g140"
       style="clip-rule:evenodd;fill-rule:evenodd;image-rendering:optimizeQuality;shape-rendering:geometricPrecision;text-rendering:geometricPrecision"
       transform="matrix(0.31514193,0,0,0.31514193,-232.61296,-123.79702)">
      <path
         style="opacity:1"
         fill="#f8f8f7"
         d="m 874.5,430.5 c 50.833,-3.253 89.333,16.747 115.5,60 22.08,44.964 18.41,87.63 -11,128 -31.753,36.696 -71.419,50.029 -119,40 -40.159,-12.825 -67.159,-39.158 -81,-79 -13.295,-57.817 4.872,-102.65 54.5,-134.5 12.983,-7.159 26.649,-11.992 41,-14.5 z"
         id="path140" />
    </g>
    <g
       id="g156"
       style="clip-rule:evenodd;fill-rule:evenodd;image-rendering:optimizeQuality;shape-rendering:geometricPrecision;text-rendering:geometricPrecision"
       transform="matrix(0.31514193,0,0,0.31514193,-232.61296,-123.79702)">
      <path
         style="opacity:1"
         fill="#252523"
         d="m 952.5,471.5 c 0.996,-0.086 1.829,0.248 2.5,1 5.334,29.336 10.667,58.669 16,88 0.667,3.667 0.667,7.333 0,11 -13.115,9.989 -27.948,14.156 -44.5,12.5 -11.103,-2.589 -22.103,-5.589 -33,-9 -15.463,-2.401 -29.797,0.599 -43,9 -0.943,2.8 -0.776,5.634 0.5,8.5 3.646,12.733 7.479,25.4 11.5,38 -0.98,5.165 -3.98,7.332 -9,6.5 -1.549,-1.214 -2.715,-2.714 -3.5,-4.5 -13,-44 -26,-88 -39,-132 -1.277,-3.597 -1.61,-7.264 -1,-11 3.865,-2.898 7.365,-2.565 10.5,1 20.801,-14.745 43.467,-18.578 68,-11.5 16.748,7.801 33.748,8.468 51,2 5.077,-2.257 9.41,-5.424 13,-9.5 z"
         id="path156" />
    </g>
    <g
       id="g157"
       style="clip-rule:evenodd;fill-rule:evenodd;image-rendering:optimizeQuality;shape-rendering:geometricPrecision;text-rendering:geometricPrecision"
       transform="matrix(0.31514193,0,0,0.31514193,-232.61296,-123.79702)">
      <path
         style="opacity:1"
         fill="#727272"
         d="m 879.5,501.5 c 0.838,0.342 1.172,1.008 1,2 -5.333,0 -10.667,0 -16,0 5,-0.667 10,-1.333 15,-2 z"
         id="path157" />
    </g>
    <g
       id="g158"
       style="clip-rule:evenodd;fill-rule:evenodd;image-rendering:optimizeQuality;shape-rendering:geometricPrecision;text-rendering:geometricPrecision"
       transform="matrix(0.31514193,0,0,0.31514193,-232.61296,-123.79702)">
      <path
         style="opacity:1"
         fill="#f4f4f3"
         d="m 932.5,511.5 c 0,-0.667 -0.333,-1 -1,-1 -0.728,-5.869 -1.728,-11.703 -3,-17.5 0.333,-0.833 0.667,-1.667 1,-2.5 7.485,-2.1 14.318,-5.433 20.5,-10 1.321,4.516 2.321,9.182 3,14 0.667,2.667 0.667,5.333 0,8 -6.175,4.504 -13.008,7.504 -20.5,9 z"
         id="path158" />
    </g>
    <g
       id="g159"
       style="clip-rule:evenodd;fill-rule:evenodd;image-rendering:optimizeQuality;shape-rendering:geometricPrecision;text-rendering:geometricPrecision"
       transform="matrix(0.31514193,0,0,0.31514193,-232.61296,-123.79702)">
      <path
         style="opacity:1"
         fill="#f3f3f3"
         d="m 846.5,483.5 c 1.25,0.077 2.083,0.744 2.5,2 1.344,5.71 2.844,11.377 4.5,17 -0.333,0.667 -0.667,1.333 -1,2 -8.242,2.205 -15.742,5.871 -22.5,11 -2.306,-6.448 -4.473,-12.948 -6.5,-19.5 6.918,-5.581 14.584,-9.747 23,-12.5 z"
         id="path159" />
    </g>
    <g
       id="g160"
       style="clip-rule:evenodd;fill-rule:evenodd;image-rendering:optimizeQuality;shape-rendering:geometricPrecision;text-rendering:geometricPrecision"
       transform="matrix(0.31514193,0,0,0.31514193,-232.61296,-123.79702)">
      <path
         style="opacity:1"
         fill="#f1f1f1"
         d="m 906.5,510.5 c -8.568,-2.642 -17.235,-4.976 -26,-7 0.172,-0.992 -0.162,-1.658 -1,-2 -0.872,-6.358 -1.872,-12.691 -3,-19 8.718,1.679 17.385,3.679 26,6 1.241,7.353 2.574,14.686 4,22 z"
         id="path160" />
    </g>
    <g
       id="g161"
       style="clip-rule:evenodd;fill-rule:evenodd;image-rendering:optimizeQuality;shape-rendering:geometricPrecision;text-rendering:geometricPrecision"
       transform="matrix(0.31514193,0,0,0.31514193,-232.61296,-123.79702)">
      <path
         style="opacity:1"
         fill="#595959"
         d="m 931.5,510.5 c 0.667,0 1,0.333 1,1 0,0.667 0,1.333 0,2 -6.767,-0.632 -13.433,-1.299 -20,-2 6.522,0.323 12.855,-0.01 19,-1 z"
         id="path161" />
    </g>
    <g
       id="g176"
       style="clip-rule:evenodd;fill-rule:evenodd;image-rendering:optimizeQuality;shape-rendering:geometricPrecision;text-rendering:geometricPrecision"
       transform="matrix(0.31514193,0,0,0.31514193,-232.61296,-123.79702)">
      <path
         style="opacity:1"
         fill="#f3f4f3"
         d="m 864.5,503.5 c 5.333,0 10.667,0 16,0 1.538,7.022 3.205,14.022 5,21 -6.258,0.084 -12.591,0.251 -19,0.5 -2,0.333 -4,0.667 -6,1 -0.457,0.414 -0.791,0.914 -1,1.5 2.141,6.896 3.807,13.896 5,21 -8.016,2.177 -15.683,5.177 -23,9 -1.149,-6.616 -2.815,-13.116 -5,-19.5 6.486,-4.995 13.653,-8.828 21.5,-11.5 -0.205,-7.46 -1.371,-14.794 -3.5,-22 3.286,-0.707 6.619,-1.04 10,-1 z"
         id="path176" />
    </g>
    <g
       id="g177"
       style="clip-rule:evenodd;fill-rule:evenodd;image-rendering:optimizeQuality;shape-rendering:geometricPrecision;text-rendering:geometricPrecision"
       transform="matrix(0.31514193,0,0,0.31514193,-232.61296,-123.79702)">
      <path
         style="opacity:1"
         fill="#f3f3f2"
         d="m 906.5,510.5 c 1.879,0.841 3.879,1.175 6,1 6.567,0.701 13.233,1.368 20,2 0.971,6.356 2.138,12.689 3.5,19 7.896,0.425 15.062,-1.908 21.5,-7 2.193,6.119 3.86,12.452 5,19 -0.769,2.604 -2.436,4.438 -5,5.5 -5.481,2.744 -11.148,4.911 -17,6.5 0,-0.667 -0.333,-1 -1,-1 -0.892,-7.016 -1.892,-14.016 -3,-21 -8.807,0.503 -17.474,-0.164 -26,-2 -1.015,-7.394 -2.349,-14.727 -4,-22 z"
         id="path177" />
    </g>
    <g
       id="g178"
       style="clip-rule:evenodd;fill-rule:evenodd;image-rendering:optimizeQuality;shape-rendering:geometricPrecision;text-rendering:geometricPrecision"
       transform="matrix(0.31514193,0,0,0.31514193,-232.61296,-123.79702)">
      <path
         style="opacity:1"
         fill="#252524"
         d="m 910.5,532.5 c 8.526,1.836 17.193,2.503 26,2 1.108,6.984 2.108,13.984 3,21 -5.14,0.988 -10.474,1.321 -16,1 -2.706,-0.075 -5.373,-0.408 -8,-1 -1.986,-7.575 -3.653,-15.242 -5,-23 z"
         id="path178" />
    </g>
    <g
       id="g180"
       style="clip-rule:evenodd;fill-rule:evenodd;image-rendering:optimizeQuality;shape-rendering:geometricPrecision;text-rendering:geometricPrecision"
       transform="matrix(0.31514193,0,0,0.31514193,-232.61296,-123.79702)">
      <path
         style="opacity:1"
         fill="#f4f4f4"
         d="m 910.5,532.5 c 1.347,7.758 3.014,15.425 5,23 -8.033,-3.514 -16.366,-5.681 -25,-6.5 1.649,6.748 2.983,13.581 4,20.5 -8,-1.333 -16,-1.333 -24,0 -1.677,-7.031 -3.177,-14.031 -4.5,-21 7.747,-0.982 15.58,-1.315 23.5,-1 -0.675,-7.049 -1.675,-14.049 -3,-21 8.176,1.429 16.176,3.429 24,6 z"
         id="path180" />
    </g>
    <g
       id="g182"
       style="clip-rule:evenodd;fill-rule:evenodd;image-rendering:optimizeQuality;shape-rendering:geometricPrecision;text-rendering:geometricPrecision"
       transform="matrix(0.31514193,0,0,0.31514193,-232.61296,-123.79702)">
      <path
         style="opacity:1"
         fill="#f3f3f3"
         d="m 915.5,555.5 c 2.627,0.592 5.294,0.925 8,1 5.475,0.989 11.142,1.322 17,1 1.325,6.951 2.325,13.951 3,21 -8.061,0.321 -16.061,-0.179 -24,-1.5 -1.167,-7.167 -2.501,-14.334 -4,-21.5 z"
         id="path182" />
    </g>
    <g
       id="g183"
       style="clip-rule:evenodd;fill-rule:evenodd;image-rendering:optimizeQuality;shape-rendering:geometricPrecision;text-rendering:geometricPrecision"
       transform="matrix(0.31514193,0,0,0.31514193,-232.61296,-123.79702)">
      <path
         style="opacity:1"
         fill="#767676"
         d="m 939.5,555.5 c 0.667,0 1,0.333 1,1 0,0.333 0,0.667 0,1 -5.858,0.322 -11.525,-0.011 -17,-1 5.526,0.321 10.86,-0.012 16,-1 z"
         id="path183" />
    </g>
  </g>
</svg>
