<?xml version="1.0" encoding="UTF-8" standalone="no"?>
<!-- Created with Inkscape (http://www.inkscape.org/) -->

<svg
   width="96mm"
   height="96mm"
   viewBox="0 0 96 96"
   version="1.1"
   id="svg1"
   inkscape:version="1.4.2 (ebf0e940, 2025-05-08)"
   sodipodi:docname="motocycle.svg"
   xmlns:inkscape="http://www.inkscape.org/namespaces/inkscape"
   xmlns:sodipodi="http://sodipodi.sourceforge.net/DTD/sodipodi-0.dtd"
   xmlns="http://www.w3.org/2000/svg"
   xmlns:svg="http://www.w3.org/2000/svg">
  <sodipodi:namedview
     id="namedview1"
     pagecolor="#ffffff"
     bordercolor="#000000"
     borderopacity="0.25"
     inkscape:showpageshadow="2"
     inkscape:pageopacity="0.0"
     inkscape:pagecheckerboard="0"
     inkscape:deskcolor="#d1d1d1"
     inkscape:document-units="mm"
     inkscape:zoom="0.80444024"
     inkscape:cx="397.17059"
     inkscape:cy="362.36377"
     inkscape:window-width="1920"
     inkscape:window-height="1052"
     inkscape:window-x="0"
     inkscape:window-y="28"
     inkscape:window-maximized="0"
     inkscape:current-layer="layer1" />
  <defs
     id="defs1" />
  <g
     inkscape:label="Layer 1"
     inkscape:groupmode="layer"
     id="layer1">
    <g
       id="g20"
       style="clip-rule:evenodd;fill-rule:evenodd;image-rendering:optimizeQuality;shape-rendering:geometricPrecision;text-rendering:geometricPrecision"
       transform="matrix(0.3048692,0,0,0.3048692,-116.64756,-6.8124358)">
      <path
         style="opacity:1"
         fill="#b0b0af"
         d="m 483.5,122.5 c -2.667,-0.667 -5.333,-1.333 -8,-2 5.571,0.683 10.571,-0.651 15,-4 0.793,0.855 0.46,1.689 -1,2.5 -1.888,1.394 -3.888,2.56 -6,3.5 z"
         id="path20" />
    </g>
    <g
       id="g21"
       style="clip-rule:evenodd;fill-rule:evenodd;image-rendering:optimizeQuality;shape-rendering:geometricPrecision;text-rendering:geometricPrecision"
       transform="matrix(0.3048692,0,0,0.3048692,-116.64756,-6.8124358)">
      <path
         style="opacity:1"
         fill="#b7b6b4"
         d="m 587.5,120.5 c -2,0.667 -4,1.333 -6,2 -4.06,-1.888 -7.726,-4.388 -11,-7.5 0.333,-0.167 0.667,-0.333 1,-0.5 4.27,4.8 9.603,6.8 16,6 z"
         id="path21" />
    </g>
    <g
       id="g22"
       style="clip-rule:evenodd;fill-rule:evenodd;image-rendering:optimizeQuality;shape-rendering:geometricPrecision;text-rendering:geometricPrecision"
       transform="matrix(0.3048692,0,0,0.3048692,-116.64756,-6.8124358)">
      <path
         style="opacity:1"
         fill="#242422"
         d="m 587.5,120.5 c -6.397,0.8 -11.73,-1.2 -16,-6 -0.333,0.167 -0.667,0.333 -1,0.5 3.274,3.112 6.94,5.612 11,7.5 3.187,1.85 6.353,3.85 9.5,6 0.989,5.34 -1.178,7.84 -6.5,7.5 -4.308,-2.988 -8.975,-5.155 -14,-6.5 0.333,16.697 -0.167,33.363 -1.5,50 -0.677,8.042 -3.677,15.042 -9,21 -1.046,7.203 -0.546,14.203 1.5,21 -0.998,-0.156 -1.998,0.344 -3,1.5 1.211,1.113 1.211,2.28 0,3.5 1.021,1.401 2.021,2.735 3,4 1.403,4.891 2.07,9.891 2,15 -1.193,7.243 -3.193,14.243 -6,21 2.24,0.764 4.573,1.598 7,2.5 -3.195,0.181 -6.195,0.681 -9,1.5 0,0.333 0,0.667 0,1 -1.072,2.436 -0.405,4.603 2,6.5 2.34,0.748 4.34,0.248 6,-1.5 0.617,0.111 1.117,0.444 1.5,1 0.219,-1.438 0.719,-2.771 1.5,-4 0.607,0.124 0.94,0.457 1,1 -1,7.152 -5,9.652 -12,7.5 -1.519,-1.351 -2.852,-2.851 -4,-4.5 -4.447,5.066 -6.281,11.066 -5.5,18 -1.635,7.08 -6.135,10.747 -13.5,11 -7.169,0.174 -11.669,-3.159 -13.5,-10 0.974,-7.442 -1.026,-13.775 -6,-19 -3.74,5.344 -8.406,6.344 -14,3 -1.562,-2.457 -2.562,-5.124 -3,-8 -1.347,-11.307 -1.68,-22.64 -1,-34 1.914,-7.161 4.914,-13.828 9,-20 0.667,-6.333 0.667,-12.667 0,-19 -4.907,-6.151 -7.907,-13.151 -9,-21 -1.205,-16.311 -1.705,-32.644 -1.5,-49 -5.025,1.345 -9.692,3.512 -14,6.5 -5.432,0.316 -7.432,-2.184 -6,-7.5 3.03,-2.514 6.363,-4.514 10,-6 2.112,-0.94 4.112,-2.106 6,-3.5 1.46,-0.811 1.793,-1.645 1,-2.5 -4.429,3.349 -9.429,4.683 -15,4 -2.412,-0.194 -3.412,-1.527 -3,-4 9.703,1.975 17.036,-1.191 22,-9.5 -0.227,-2.619 -0.893,-5.119 -2,-7.5 1.056,-3.1128 2.389,-6.1128 4,-9 -0.865,-1.0827 -1.865,-1.2494 -3,-0.5 -8.758,5.5798 -17.758,5.7464 -27,0.5 -1.114,-1.223 -1.281,-2.5563 -0.5,-4 6.485,-5.6142 13.985,-7.4476 22.5,-5.5 2.964,1.973 6.131,3.473 9.5,4.5 3.949,-0.9366 7.115,-3.1033 9.5,-6.5 3.584,-2.0414 7.084,-4.208 10.5,-6.5 1.87,-6.8845 3.203,-13.8845 4,-21 3.277,-5.6088 8.11,-7.4422 14.5,-5.5 3.228,1.5629 5.395,4.0629 6.5,7.5 0.068,6.4939 1.068,12.8272 3,19 6.787,3.6442 12.954,8.1442 18.5,13.5 1,0.6667 2,0.6667 3,0 9.783,-7.082 19.783,-7.2487 30,-0.5 1.348,2.1114 1.015,3.9447 -1,5.5 -9.002,4.6758 -17.836,4.5091 -26.5,-0.5 -0.5,0.3333 -1,0.6667 -1.5,1 3.588,5.0961 3.922,10.429 1,16 4.964,8.44 12.298,11.44 22,9 0.333,3 -1,4.333 -4,4 z"
         id="path22" />
    </g>
    <g
       id="g23"
       style="clip-rule:evenodd;fill-rule:evenodd;image-rendering:optimizeQuality;shape-rendering:geometricPrecision;text-rendering:geometricPrecision"
       transform="matrix(0.3048692,0,0,0.3048692,-116.64756,-6.8124358)">
      <path
         style="opacity:1"
         fill="#949593"
         d="m 495.5,117.5 c 3.985,0.129 5.318,1.963 4,5.5 -4.772,0.81 -6.105,-1.023 -4,-5.5 z"
         id="path23" />
    </g>
    <g
       id="g24"
       style="clip-rule:evenodd;fill-rule:evenodd;image-rendering:optimizeQuality;shape-rendering:geometricPrecision;text-rendering:geometricPrecision"
       transform="matrix(0.3048692,0,0,0.3048692,-116.64756,-6.8124358)">
      <path
         style="opacity:1"
         fill="#999996"
         d="m 565.5,117.5 c 5.247,0.14 6.247,2.306 3,6.5 -3.869,-0.508 -4.869,-2.675 -3,-6.5 z"
         id="path24" />
    </g>
    <g
       id="g25"
       style="clip-rule:evenodd;fill-rule:evenodd;image-rendering:optimizeQuality;shape-rendering:geometricPrecision;text-rendering:geometricPrecision"
       transform="matrix(0.3048692,0,0,0.3048692,-116.64756,-6.8124358)">
      <path
         style="opacity:1"
         fill="#afb0b0"
         d="m 504.5,113.5 c 1.667,0 3.333,0 5,0 0.219,1.175 -0.114,2.175 -1,3 -6.394,3.19 -7.727,2.19 -4,-3 z"
         id="path25" />
    </g>
    <g
       id="g26"
       style="clip-rule:evenodd;fill-rule:evenodd;image-rendering:optimizeQuality;shape-rendering:geometricPrecision;text-rendering:geometricPrecision"
       transform="matrix(0.3048692,0,0,0.3048692,-116.64756,-6.8124358)">
      <path
         style="opacity:1"
         fill="#a09f9e"
         d="m 554.5,113.5 c 2.427,0.023 4.76,0.523 7,1.5 0.837,1.011 1.17,2.178 1,3.5 -2.627,-0.592 -5.294,-0.925 -8,-1 0,-1.333 0,-2.667 0,-4 z"
         id="path26" />
    </g>
    <g
       id="g27"
       style="clip-rule:evenodd;fill-rule:evenodd;image-rendering:optimizeQuality;shape-rendering:geometricPrecision;text-rendering:geometricPrecision"
       transform="matrix(0.3048692,0,0,0.3048692,-116.64756,-6.8124358)">
      <path
         style="opacity:1"
         fill="#f0f0f0"
         d="m 513.5,112.5 c 12.333,0 24.667,0 37,0 0.285,1.788 -0.048,3.455 -1,5 -5.873,2.235 -11.707,4.569 -17.5,7 -6.019,-2.507 -12.186,-4.507 -18.5,-6 0,-2 0,-4 0,-6 z"
         id="path27" />
    </g>
    <g
       id="g28"
       style="clip-rule:evenodd;fill-rule:evenodd;image-rendering:optimizeQuality;shape-rendering:geometricPrecision;text-rendering:geometricPrecision"
       transform="matrix(0.3048692,0,0,0.3048692,-116.64756,-6.8124358)">
      <path
         style="opacity:1"
         fill="#ebebea"
         d="m 531.5,95.5 c 3.478,-0.3158 6.812,0.1842 10,1.5 2.173,1.8647 2.507,4.031 1,6.5 -5.628,0.995 -11.294,1.329 -17,1 -0.308,-2.424 0.026,-4.7573 1,-7 1.836,-0.5276 3.503,-1.1942 5,-2 z"
         id="path28" />
    </g>
    <g
       id="g29"
       style="clip-rule:evenodd;fill-rule:evenodd;image-rendering:optimizeQuality;shape-rendering:geometricPrecision;text-rendering:geometricPrecision"
       transform="matrix(0.3048692,0,0,0.3048692,-116.64756,-6.8124358)">
      <path
         style="opacity:1"
         fill="#908f8f"
         d="m 514.5,78.5 c 0.876,-0.1309 1.543,0.2025 2,1 -3.34,4.6753 -6.173,9.6753 -8.5,15 -3.073,1.1168 -6.24,1.2835 -9.5,0.5 0.95,-2.9101 2.95,-4.0768 6,-3.5 0.17,-1.3221 -0.163,-2.4887 -1,-3.5 3.738,-3.1844 7.405,-6.3511 11,-9.5 z"
         id="path29" />
    </g>
    <g
       id="g30"
       style="clip-rule:evenodd;fill-rule:evenodd;image-rendering:optimizeQuality;shape-rendering:geometricPrecision;text-rendering:geometricPrecision"
       transform="matrix(0.3048692,0,0,0.3048692,-116.64756,-6.8124358)">
      <path
         style="opacity:1"
         fill="#888787"
         d="m 578.5,83.5 c 5.803,-0.0503 11.136,1.4497 16,4.5 -5.495,2.1827 -11.161,2.8494 -17,2 -1.616,-0.6152 -2.949,-1.6152 -4,-3 1.733,-1.1889 3.4,-2.3556 5,-3.5 z"
         id="path30" />
    </g>
    <g
       id="g31"
       style="clip-rule:evenodd;fill-rule:evenodd;image-rendering:optimizeQuality;shape-rendering:geometricPrecision;text-rendering:geometricPrecision"
       transform="matrix(0.3048692,0,0,0.3048692,-116.64756,-6.8124358)">
      <path
         style="opacity:1"
         fill="#8f8e8e"
         d="m 547.5,79.5 c 0.06,-0.5431 0.393,-0.8764 1,-1 4.358,2.5134 8.358,5.5134 12,9 -0.826,0.951 -0.992,1.951 -0.5,3 2.49,0.4893 4.324,1.8227 5.5,4 -3,1.3333 -6,1.3333 -9,0 -2.774,-5.2292 -5.774,-10.2292 -9,-15 z"
         id="path31" />
    </g>
    <g
       id="g32"
       style="clip-rule:evenodd;fill-rule:evenodd;image-rendering:optimizeQuality;shape-rendering:geometricPrecision;text-rendering:geometricPrecision"
       transform="matrix(0.3048692,0,0,0.3048692,-116.64756,-6.8124358)">
      <path
         style="opacity:1"
         fill="#908f8f"
         d="m 478.5,83.5 c 4.824,-0.5289 9.157,0.6378 13,3.5 -6.896,4.4884 -13.896,4.6551 -21,0.5 2.75,-1.3748 5.416,-2.7082 8,-4 z"
         id="path32" />
    </g>
    <g
       id="g33"
       style="clip-rule:evenodd;fill-rule:evenodd;image-rendering:optimizeQuality;shape-rendering:geometricPrecision;text-rendering:geometricPrecision"
       transform="matrix(0.3048692,0,0,0.3048692,-116.64756,-6.8124358)">
      <path
         style="opacity:1"
         fill="#f0f0f0"
         d="m 528.5,71.5 c 6.044,-0.2283 10.877,2.1051 14.5,7 5.306,6.6121 8.973,13.9455 11,22 -14.754,-13.2258 -29.421,-13.2258 -44,0 3.125,-11.5792 9.292,-21.2458 18.5,-29 z"
         id="path33" />
    </g>
    <g
       id="g38"
       style="clip-rule:evenodd;fill-rule:evenodd;image-rendering:optimizeQuality;shape-rendering:geometricPrecision;text-rendering:geometricPrecision"
       transform="matrix(0.3048692,0,0,0.3048692,-116.64756,-6.8124358)">
      <path
         style="opacity:1"
         fill="#959595"
         d="m 544.5,130.5 c -0.438,-0.065 -0.772,0.101 -1,0.5 6.591,8.387 8.758,17.887 6.5,28.5 -3.854,10.564 -6.688,21.397 -8.5,32.5 0.014,1.385 0.348,2.551 1,3.5 -3.18,2.367 -6.847,3.367 -11,3 -3.314,0.157 -6.314,-0.509 -9,-2 0.624,-0.417 0.957,-1.084 1,-2 -2.449,-12.181 -5.615,-24.181 -9.5,-36 -0.818,-6.402 -0.484,-12.735 1,-19 1.198,-3.226 3.031,-6.059 5.5,-8.5 -0.228,-0.399 -0.562,-0.565 -1,-0.5 8.323,-3.935 16.657,-3.935 25,0 z"
         id="path38" />
    </g>
    <g
       id="g40"
       style="clip-rule:evenodd;fill-rule:evenodd;image-rendering:optimizeQuality;shape-rendering:geometricPrecision;text-rendering:geometricPrecision"
       transform="matrix(0.3048692,0,0,0.3048692,-116.64756,-6.8124358)">
      <path
         style="opacity:1"
         fill="#f1f1f1"
         d="m 519.5,130.5 c 0.438,-0.065 0.772,0.101 1,0.5 -2.469,2.441 -4.302,5.274 -5.5,8.5 -1.484,6.265 -1.818,12.598 -1,19 3.885,11.819 7.051,23.819 9.5,36 -0.043,0.916 -0.376,1.583 -1,2 -1.729,-0.617 -3.229,-1.617 -4.5,-3 -2.66,-11.323 -6.993,-21.99 -13,-32 -2.241,-13.524 2.593,-23.857 14.5,-31 z"
         id="path40" />
    </g>
    <g
       id="g45"
       style="clip-rule:evenodd;fill-rule:evenodd;image-rendering:optimizeQuality;shape-rendering:geometricPrecision;text-rendering:geometricPrecision"
       transform="matrix(0.3048692,0,0,0.3048692,-116.64756,-6.8124358)">
      <path
         style="opacity:1"
         fill="#f5f5f5"
         d="m 528.5,145.5 c 5.528,-1.431 8.862,0.569 10,6 -1.151,5.591 -4.484,7.425 -10,5.5 -3.958,-3.908 -3.958,-7.741 0,-11.5 z"
         id="path45" />
    </g>
    <g
       id="g46"
       style="clip-rule:evenodd;fill-rule:evenodd;image-rendering:optimizeQuality;shape-rendering:geometricPrecision;text-rendering:geometricPrecision"
       transform="matrix(0.3048692,0,0,0.3048692,-116.64756,-6.8124358)">
      <path
         style="opacity:1"
         fill="#f2f2f2"
         d="m 544.5,130.5 c 8.828,5.651 14.161,13.651 16,24 -0.042,2.759 -0.542,5.425 -1.5,8 -5.44,9.544 -9.773,19.544 -13,30 -0.422,1.926 -1.589,2.926 -3.5,3 -0.652,-0.949 -0.986,-2.115 -1,-3.5 1.812,-11.103 4.646,-21.936 8.5,-32.5 2.258,-10.613 0.091,-20.113 -6.5,-28.5 0.228,-0.399 0.562,-0.565 1,-0.5 z"
         id="path46" />
    </g>
    <g
       id="g49"
       style="clip-rule:evenodd;fill-rule:evenodd;image-rendering:optimizeQuality;shape-rendering:geometricPrecision;text-rendering:geometricPrecision"
       transform="matrix(0.3048692,0,0,0.3048692,-116.64756,-6.8124358)">
      <path
         style="opacity:1"
         fill="#909090"
         d="m 561.5,125.5 c 1.67,0.251 3.17,0.918 4.5,2 0.799,17.357 0.466,34.69 -1,52 -1.083,4.917 -2.749,9.584 -5,14 -0.667,-8.333 -0.667,-16.667 0,-25 4.175,-6.077 5.509,-12.743 4,-20 -2.127,-4.758 -4.627,-9.258 -7.5,-13.5 1.29,-3.415 2.956,-6.582 5,-9.5 z"
         id="path49" />
    </g>
    <g
       id="g50"
       style="clip-rule:evenodd;fill-rule:evenodd;image-rendering:optimizeQuality;shape-rendering:geometricPrecision;text-rendering:geometricPrecision"
       transform="matrix(0.3048692,0,0,0.3048692,-116.64756,-6.8124358)">
      <path
         style="opacity:1"
         fill="#979797"
         d="m 500.5,125.5 c 1.517,0.011 2.684,0.677 3.5,2 1.5,2.333 3,4.667 4.5,7 -4.499,5.83 -7.499,12.33 -9,19.5 0.49,5.139 1.99,9.972 4.5,14.5 0.667,8.333 0.667,16.667 0,25 -3.936,-8.537 -5.936,-17.537 -6,-27 -0.667,-12.667 -0.667,-25.333 0,-38 1.045,-0.873 1.878,-1.873 2.5,-3 z"
         id="path50" />
    </g>
    <g
       id="g55"
       style="clip-rule:evenodd;fill-rule:evenodd;image-rendering:optimizeQuality;shape-rendering:geometricPrecision;text-rendering:geometricPrecision"
       transform="matrix(0.3048692,0,0,0.3048692,-116.64756,-6.8124358)">
      <path
         style="opacity:1"
         fill="#939393"
         d="m 554.5,179.5 c 0.993,8.484 1.326,17.151 1,26 0.368,6.725 0.368,13.391 0,20 -7.381,-15.27 -7.714,-30.603 -1,-46 z"
         id="path55" />
    </g>
    <g
       id="g56"
       style="clip-rule:evenodd;fill-rule:evenodd;image-rendering:optimizeQuality;shape-rendering:geometricPrecision;text-rendering:geometricPrecision"
       transform="matrix(0.3048692,0,0,0.3048692,-116.64756,-6.8124358)">
      <path
         style="opacity:1"
         fill="#929292"
         d="m 508.5,178.5 c 8.048,15.647 7.881,31.314 -0.5,47 0.468,-15.585 0.634,-31.251 0.5,-47 z"
         id="path56" />
    </g>
    <g
       id="g57"
       style="clip-rule:evenodd;fill-rule:evenodd;image-rendering:optimizeQuality;shape-rendering:geometricPrecision;text-rendering:geometricPrecision"
       transform="matrix(0.3048692,0,0,0.3048692,-116.64756,-6.8124358)">
      <path
         style="opacity:1"
         fill="#4e4e4d"
         d="m 555.5,205.5 c 0.326,-8.849 -0.007,-17.516 -1,-26 -0.039,-1.256 0.461,-2.256 1.5,-3 0.825,9.842 0.658,19.509 -0.5,29 z"
         id="path57" />
    </g>
    <g
       id="g68"
       style="clip-rule:evenodd;fill-rule:evenodd;image-rendering:optimizeQuality;shape-rendering:geometricPrecision;text-rendering:geometricPrecision"
       transform="matrix(0.3048692,0,0,0.3048692,-116.64756,-6.8124358)">
      <path
         style="opacity:1"
         fill="#f8f8f8"
         d="m 545.5,243.5 c 1.03,1.052 1.697,2.386 2,4 -1.32,12.948 -4.653,25.281 -10,37 -4.258,1.562 -8.258,1.228 -12,-1 -4.247,-11.653 -7.247,-23.653 -9,-36 0.303,-1.614 0.97,-2.948 2,-4 8.988,-2.613 17.988,-2.613 27,0 z"
         id="path68" />
    </g>
    <g
       id="g69"
       style="clip-rule:evenodd;fill-rule:evenodd;image-rendering:optimizeQuality;shape-rendering:geometricPrecision;text-rendering:geometricPrecision"
       transform="matrix(0.3048692,0,0,0.3048692,-116.64756,-6.8124358)">
      <path
         style="opacity:1"
         fill="#9e9f9e"
         d="m 561.5,230.5 c 2.306,3.585 3.639,7.585 4,12 -0.667,1 -1.333,2 -2,3 0.07,-5.109 -0.597,-10.109 -2,-15 z"
         id="path69" />
    </g>
    <g
       id="g70"
       style="clip-rule:evenodd;fill-rule:evenodd;image-rendering:optimizeQuality;shape-rendering:geometricPrecision;text-rendering:geometricPrecision"
       transform="matrix(0.3048692,0,0,0.3048692,-116.64756,-6.8124358)">
      <path
         style="opacity:1"
         fill="#2d2d2c"
         d="m 561.5,221.5 c 3.271,4.88 5.771,10.214 7.5,16 0.667,11 0.667,22 0,33 -0.21,1.558 -0.71,2.891 -1.5,4 -0.06,-0.543 -0.393,-0.876 -1,-1 -0.781,1.229 -1.281,2.562 -1.5,4 -0.383,-0.556 -0.883,-0.889 -1.5,-1 0.333,-1.333 0.667,-2.667 1,-4 -2.488,-1.888 -5.488,-2.555 -9,-2 2.805,-0.819 5.805,-1.319 9,-1.5 -2.427,-0.902 -4.76,-1.736 -7,-2.5 2.667,0 5.333,0 8,0 0,-8 0,-16 0,-24 -0.361,-4.415 -1.694,-8.415 -4,-12 -0.979,-1.265 -1.979,-2.599 -3,-4 1.211,-1.22 1.211,-2.387 0,-3.5 1.002,-1.156 2.002,-1.656 3,-1.5 z"
         id="path70" />
    </g>
    <g
       id="g71"
       style="clip-rule:evenodd;fill-rule:evenodd;image-rendering:optimizeQuality;shape-rendering:geometricPrecision;text-rendering:geometricPrecision"
       transform="matrix(0.3048692,0,0,0.3048692,-116.64756,-6.8124358)">
      <path
         style="opacity:1"
         fill="#bcbcbc"
         d="m 500.5,244.5 c -0.992,7.148 -1.325,14.481 -1,22 -1.158,-9.157 -1.324,-18.491 -0.5,-28 1.115,-4.229 2.781,-8.229 5,-12 -0.555,3.683 -1.555,7.35 -3,11 -0.497,2.31 -0.663,4.643 -0.5,7 z"
         id="path71" />
    </g>
    <g
       id="g72"
       style="clip-rule:evenodd;fill-rule:evenodd;image-rendering:optimizeQuality;shape-rendering:geometricPrecision;text-rendering:geometricPrecision"
       transform="matrix(0.3048692,0,0,0.3048692,-116.64756,-6.8124358)">
      <path
         style="opacity:1"
         fill="#979797"
         d="m 518.5,243.5 c -1.03,1.052 -1.697,2.386 -2,4 1.753,12.347 4.753,24.347 9,36 -4.018,-1.601 -7.184,-4.268 -9.5,-8 -4.758,-8.185 -8.424,-16.851 -11,-26 -0.95,-5.826 -0.45,-11.493 1.5,-17 1.529,6.535 5.529,10.202 12,11 z"
         id="path72" />
    </g>
    <g
       id="g73"
       style="clip-rule:evenodd;fill-rule:evenodd;image-rendering:optimizeQuality;shape-rendering:geometricPrecision;text-rendering:geometricPrecision"
       transform="matrix(0.3048692,0,0,0.3048692,-116.64756,-6.8124358)">
      <path
         style="opacity:1"
         fill="#ebebea"
         d="m 565.5,242.5 c 0,8 0,16 0,24 -2.667,0 -5.333,0 -8,0 2.807,-6.757 4.807,-13.757 6,-21 0.667,-1 1.333,-2 2,-3 z"
         id="path73" />
    </g>
    <g
       id="g81"
       style="clip-rule:evenodd;fill-rule:evenodd;image-rendering:optimizeQuality;shape-rendering:geometricPrecision;text-rendering:geometricPrecision"
       transform="matrix(0.3048692,0,0,0.3048692,-116.64756,-6.8124358)">
      <path
         style="opacity:1"
         fill="#969696"
         d="m 537.5,284.5 c 5.347,-11.719 8.68,-24.052 10,-37 -0.303,-1.614 -0.97,-2.948 -2,-4 2.726,0.236 5.059,-0.597 7,-2.5 1.791,-2.414 3.457,-4.914 5,-7.5 2.412,3.649 3.245,7.649 2.5,12 -2.501,13.834 -8.335,26.001 -17.5,36.5 -1.578,1.094 -3.245,1.928 -5,2.5 z"
         id="path81" />
    </g>
    <g
       id="g83"
       style="clip-rule:evenodd;fill-rule:evenodd;image-rendering:optimizeQuality;shape-rendering:geometricPrecision;text-rendering:geometricPrecision"
       transform="matrix(0.3048692,0,0,0.3048692,-116.64756,-6.8124358)">
      <path
         style="opacity:1"
         fill="#ebebe8"
         d="m 500.5,244.5 c 0.909,7.3 2.909,14.3 6,21 -2.243,0.974 -4.576,1.308 -7,1 -0.325,-7.519 0.008,-14.852 1,-22 z"
         id="path83" />
    </g>
    <g
       id="g84"
       style="clip-rule:evenodd;fill-rule:evenodd;image-rendering:optimizeQuality;shape-rendering:geometricPrecision;text-rendering:geometricPrecision"
       transform="matrix(0.3048692,0,0,0.3048692,-116.64756,-6.8124358)">
      <path
         style="opacity:1"
         fill="#e0e0df"
         d="m 508.5,276.5 c -0.667,-1 -1.333,-2 -2,-3 -1,-1.333 -2,-1.333 -3,0 -0.722,1.051 -1.722,1.718 -3,2 -0.538,-1.617 -0.871,-3.284 -1,-5 3.018,-0.165 6.018,0.002 9,0.5 1.252,1.828 1.252,3.661 0,5.5 z"
         id="path84" />
    </g>
    <g
       id="g85"
       style="clip-rule:evenodd;fill-rule:evenodd;image-rendering:optimizeQuality;shape-rendering:geometricPrecision;text-rendering:geometricPrecision"
       transform="matrix(0.3048692,0,0,0.3048692,-116.64756,-6.8124358)">
      <path
         style="opacity:1"
         fill="#e7e7e6"
         d="m 555.5,270.5 c 3.512,-0.555 6.512,0.112 9,2 -1.109,0.057 -2.109,0.39 -3,1 -0.333,0 -0.667,0 -1,0 -0.111,-0.617 -0.444,-1.117 -1,-1.5 -1.615,-0.062 -2.948,-0.229 -4,-0.5 0,-0.333 0,-0.667 0,-1 z"
         id="path85" />
    </g>
    <g
       id="g86"
       style="clip-rule:evenodd;fill-rule:evenodd;image-rendering:optimizeQuality;shape-rendering:geometricPrecision;text-rendering:geometricPrecision"
       transform="matrix(0.3048692,0,0,0.3048692,-116.64756,-6.8124358)">
      <path
         style="opacity:1"
         fill="#333432"
         d="m 506.5,273.5 c 0,1 0,2 0,3 -1,0 -2,0 -3,0 0,-1 0,-2 0,-3 1,-1.333 2,-1.333 3,0 z"
         id="path86" />
    </g>
    <g
       id="g87"
       style="clip-rule:evenodd;fill-rule:evenodd;image-rendering:optimizeQuality;shape-rendering:geometricPrecision;text-rendering:geometricPrecision"
       transform="matrix(0.3048692,0,0,0.3048692,-116.64756,-6.8124358)">
      <path
         style="opacity:1"
         fill="#9b9c9a"
         d="m 503.5,273.5 c 0,1 0,2 0,3 1,0 2,0 3,0 0,-1 0,-2 0,-3 0.667,1 1.333,2 2,3 -2.974,2.809 -5.641,2.476 -8,-1 1.278,-0.282 2.278,-0.949 3,-2 z"
         id="path87" />
    </g>
    <g
       id="g88"
       style="clip-rule:evenodd;fill-rule:evenodd;image-rendering:optimizeQuality;shape-rendering:geometricPrecision;text-rendering:geometricPrecision"
       transform="matrix(0.3048692,0,0,0.3048692,-116.64756,-6.8124358)">
      <path
         style="opacity:1"
         fill="#aeafaf"
         d="m 555.5,271.5 c 1.052,0.271 2.385,0.438 4,0.5 0.556,0.383 0.889,0.883 1,1.5 -1,0 -2,0 -3,0 0,1 0,2 0,3 2.473,0.412 3.806,-0.588 4,-3 0.891,-0.61 1.891,-0.943 3,-1 -0.333,1.333 -0.667,2.667 -1,4 -1.66,1.748 -3.66,2.248 -6,1.5 -2.405,-1.897 -3.072,-4.064 -2,-6.5 z"
         id="path88" />
    </g>
    <g
       id="g89"
       style="clip-rule:evenodd;fill-rule:evenodd;image-rendering:optimizeQuality;shape-rendering:geometricPrecision;text-rendering:geometricPrecision"
       transform="matrix(0.3048692,0,0,0.3048692,-116.64756,-6.8124358)">
      <path
         style="opacity:1"
         fill="#222221"
         d="m 560.5,273.5 c 0.333,0 0.667,0 1,0 -0.194,2.412 -1.527,3.412 -4,3 0,-1 0,-2 0,-3 1,0 2,0 3,0 z"
         id="path89" />
    </g>
  </g>
</svg>
