<?xml version="1.0" encoding="UTF-8" standalone="no"?>
<!-- Created with Inkscape (http://www.inkscape.org/) -->

<svg
   width="96mm"
   height="96mm"
   viewBox="0 0 96 96"
   version="1.1"
   id="svg1"
   inkscape:version="1.4.2 (ebf0e940, 2025-05-08)"
   sodipodi:docname="plane.svg"
   xmlns:inkscape="http://www.inkscape.org/namespaces/inkscape"
   xmlns:sodipodi="http://sodipodi.sourceforge.net/DTD/sodipodi-0.dtd"
   xmlns="http://www.w3.org/2000/svg"
   xmlns:svg="http://www.w3.org/2000/svg">
  <sodipodi:namedview
     id="namedview1"
     pagecolor="#ffffff"
     bordercolor="#000000"
     borderopacity="0.25"
     inkscape:showpageshadow="2"
     inkscape:pageopacity="0.0"
     inkscape:pagecheckerboard="0"
     inkscape:deskcolor="#d1d1d1"
     inkscape:document-units="mm"
     inkscape:zoom="0.80444024"
     inkscape:cx="397.17059"
     inkscape:cy="362.36377"
     inkscape:window-width="1920"
     inkscape:window-height="1052"
     inkscape:window-x="0"
     inkscape:window-y="28"
     inkscape:window-maximized="0"
     inkscape:current-layer="layer1" />
  <defs
     id="defs1" />
  <g
     inkscape:label="Layer 1"
     inkscape:groupmode="layer"
     id="layer1">
    <g
       id="g157"
       style="clip-rule:evenodd;fill-rule:evenodd;image-rendering:optimizeQuality;shape-rendering:geometricPrecision;text-rendering:geometricPrecision"
       transform="matrix(0.26458333,0,0,0.26458333,-172.19426,-102.9316)">
      <path
         style="opacity:1"
         fill="#40403e"
         d="m 810.5,613.5 c 0,-10.333 0,-20.667 0,-31 -5.526,-0.321 -10.86,0.012 -16,1 -0.399,5.077 -2.899,6.743 -7.5,5 -1.009,-1.525 -1.509,-3.192 -1.5,-5 -4.105,-0.266 -8.105,0.234 -12,1.5 -1.48,2.559 -2.813,5.226 -4,8 -1.333,0.667 -2.667,0.667 -4,0 -0.767,-2.053 -2.1,-3.553 -4,-4.5 -4.698,1.399 -9.364,2.899 -14,4.5 -0.814,3.144 -2.48,5.644 -5,7.5 -2.333,-1.333 -4.667,-2.667 -7,-4 -20.991,6.496 -41.991,12.829 -63,19 -0.135,-6.13 0.699,-12.13 2.5,-18 1.458,-2.46 3.291,-4.627 5.5,-6.5 28.914,-15.706 57.747,-31.54 86.5,-47.5 -1.884,-10.211 -2.551,-20.545 -2,-31 2.894,-5.781 7.561,-8.114 14,-7 6.575,-0.878 11.575,1.456 15,7 0.499,5.323 0.666,10.656 0.5,16 6.148,-1.836 10.982,-5.502 14.5,-11 -1.376,-26.14 1.291,-51.807 8,-77 1.957,-7.084 5.79,-12.917 11.5,-17.5 2.53,-1.422 5.197,-1.755 8,-1 3.5,2.167 6.333,5 8.5,8.5 6.157,12.624 9.823,25.957 11,40 0.333,15 0.667,30 1,45 3.389,6.389 8.389,11.056 15,14 -2.531,-22.136 6.636,-29.303 27.5,-21.5 2.537,3.866 3.537,8.199 3,13 -0.328,7.614 -1.161,15.114 -2.5,22.5 28.753,15.96 57.586,31.794 86.5,47.5 1.833,1.833 3.667,3.667 5.5,5.5 2.001,6.173 2.834,12.506 2.5,19 -21.147,-5.714 -42.147,-12.048 -63,-19 -1.647,0.778 -2.98,1.944 -4,3.5 -1.333,0.667 -2.667,0.667 -4,0 -0.78,-2.698 -2.113,-5.031 -4,-7 -5.035,-1.401 -10.035,-2.901 -15,-4.5 -1.098,3.822 -3.432,4.822 -7,3 -0.271,-4.98 -2.938,-7.48 -8,-7.5 -2.333,-0.667 -4.667,-0.667 -7,0 -0.732,4.081 -3.065,5.748 -7,5 -1.361,-1.584 -2.028,-3.418 -2,-5.5 -5.667,0 -11.333,0 -17,0 0.923,28.247 -0.911,56.247 -5.5,84 16.948,11.948 33.615,24.281 50,37 1.404,5.544 1.904,11.21 1.5,17 -2.357,0.163 -4.69,-0.003 -7,-0.5 -18.262,-5.81 -36.595,-11.31 -55,-16.5 -4.309,23.906 -8.976,23.906 -14,0 -18.797,4.987 -37.463,10.487 -56,16.5 -1.941,0.743 -3.774,0.576 -5.5,-0.5 -1.38,-6.493 -0.38,-12.493 3,-18 15.823,-11.911 31.823,-23.578 48,-35 -1.657,-12.268 -3.323,-24.601 -5,-37 -0.499,-5.657 -0.666,-11.324 -0.5,-17 z"
         id="path157" />
    </g>
    <g
       id="g158"
       style="clip-rule:evenodd;fill-rule:evenodd;image-rendering:optimizeQuality;shape-rendering:geometricPrecision;text-rendering:geometricPrecision"
       transform="matrix(0.26458333,0,0,0.26458333,-172.19426,-102.9316)">
      <path
         style="opacity:1"
         fill="#8a8987"
         d="m 794.5,583.5 c 5.14,-0.988 10.474,-1.321 16,-1 0,10.333 0,20.667 0,31 -0.994,-9.819 -1.327,-19.819 -1,-30 -5,0 -10,0 -15,0 z"
         id="path158" />
    </g>
    <g
       id="g159"
       style="clip-rule:evenodd;fill-rule:evenodd;image-rendering:optimizeQuality;shape-rendering:geometricPrecision;text-rendering:geometricPrecision"
       transform="matrix(0.26458333,0,0,0.26458333,-172.19426,-102.9316)">
      <path
         style="opacity:1"
         fill="#212120"
         d="m 770.5,574.5 c 4.197,-0.306 6.197,1.694 6,6 -15.505,4.794 -31.172,9.127 -47,13 -0.107,-2.403 0.893,-4.236 3,-5.5 12.871,-4.286 25.538,-8.786 38,-13.5 z"
         id="path159" />
    </g>
    <g
       id="g160"
       style="clip-rule:evenodd;fill-rule:evenodd;image-rendering:optimizeQuality;shape-rendering:geometricPrecision;text-rendering:geometricPrecision"
       transform="matrix(0.26458333,0,0,0.26458333,-172.19426,-102.9316)">
      <path
         style="opacity:1"
         fill="#21201f"
         d="m 891.5,573.5 c 15.408,4.619 30.574,9.952 45.5,16 0.49,1.293 0.657,2.627 0.5,4 -15.684,-4.503 -31.351,-8.836 -47,-13 0.174,-2.361 0.507,-4.694 1,-7 z"
         id="path160" />
    </g>
    <g
       id="g161"
       style="clip-rule:evenodd;fill-rule:evenodd;image-rendering:optimizeQuality;shape-rendering:geometricPrecision;text-rendering:geometricPrecision"
       transform="matrix(0.26458333,0,0,0.26458333,-172.19426,-102.9316)">
      <path
         style="opacity:1"
         fill="#1e1d1c"
         d="m 785.5,573.5 c 8.333,0 16.667,0 25,0 0,2 0,4 0,6 -8.333,0 -16.667,0 -25,0 0,-2 0,-4 0,-6 z"
         id="path161" />
    </g>
    <g
       id="g162"
       style="clip-rule:evenodd;fill-rule:evenodd;image-rendering:optimizeQuality;shape-rendering:geometricPrecision;text-rendering:geometricPrecision"
       transform="matrix(0.26458333,0,0,0.26458333,-172.19426,-102.9316)">
      <path
         style="opacity:1"
         fill="#20201f"
         d="m 856.5,573.5 c 8.028,-0.331 16.028,0.002 24,1 0.809,1.571 1.143,3.238 1,5 -8.333,0 -16.667,0 -25,0 0,-2 0,-4 0,-6 z"
         id="path162" />
    </g>
    <g
       id="g163"
       style="clip-rule:evenodd;fill-rule:evenodd;image-rendering:optimizeQuality;shape-rendering:geometricPrecision;text-rendering:geometricPrecision"
       transform="matrix(0.26458333,0,0,0.26458333,-172.19426,-102.9316)">
      <path
         style="opacity:1"
         fill="#21211f"
         d="m 856.5,532.5 c 40.889,21.278 81.889,42.278 123,63 1.555,-0.222 2.889,-0.889 4,-2 1,0.5 2,1 3,1.5 1.414,3.055 2.581,6.222 3.5,9.5 0.495,1.973 0.662,3.973 0.5,6 -16.722,-4.851 -33.389,-10.018 -50,-15.5 -0.592,-3.032 -1.926,-5.698 -4,-8 -13.765,-4.715 -27.432,-9.715 -41,-15 -1.333,-0.667 -2.667,-0.667 -4,0 -1.286,2.022 -2.286,4.189 -3,6.5 -1.545,0.952 -3.212,1.285 -5,1 0.034,-2.699 -0.633,-5.199 -2,-7.5 -8.327,-0.5 -16.66,-0.666 -25,-0.5 0,-13 0,-26 0,-39 z"
         id="path163" />
    </g>
    <g
       id="g164"
       style="clip-rule:evenodd;fill-rule:evenodd;image-rendering:optimizeQuality;shape-rendering:geometricPrecision;text-rendering:geometricPrecision"
       transform="matrix(0.26458333,0,0,0.26458333,-172.19426,-102.9316)">
      <path
         style="opacity:1"
         fill="#1f1f1e"
         d="m 779.5,540.5 c 2.245,1.328 2.578,3.161 1,5.5 -29.274,15.232 -58.607,30.565 -88,46 -1.333,0.667 -2.667,0.667 -4,0 28.454,-16.733 57.454,-32.733 87,-48 1.593,-0.949 2.926,-2.115 4,-3.5 z"
         id="path164" />
    </g>
    <g
       id="g165"
       style="clip-rule:evenodd;fill-rule:evenodd;image-rendering:optimizeQuality;shape-rendering:geometricPrecision;text-rendering:geometricPrecision"
       transform="matrix(0.26458333,0,0,0.26458333,-172.19426,-102.9316)">
      <path
         style="opacity:1"
         fill="#222220"
         d="m 884.5,540.5 c 26.866,13.931 53.533,28.098 80,42.5 5.333,3.333 10.667,6.667 16,10 -1.333,0.667 -2.667,0.667 -4,0 -29.937,-15.637 -59.937,-31.303 -90,-47 -1.655,-1.444 -2.322,-3.278 -2,-5.5 z"
         id="path165" />
    </g>
    <g
       id="g166"
       style="clip-rule:evenodd;fill-rule:evenodd;image-rendering:optimizeQuality;shape-rendering:geometricPrecision;text-rendering:geometricPrecision"
       transform="matrix(0.26458333,0,0,0.26458333,-172.19426,-102.9316)">
      <path
         style="opacity:1"
         fill="#20201f"
         d="m 809.5,531.5 c 0.996,13.156 1.329,26.49 1,40 -8.673,-0.166 -17.34,0 -26,0.5 -0.935,2.381 -1.268,4.881 -1,7.5 -1.699,0.16 -3.366,-0.006 -5,-0.5 -0.352,-7.024 -3.686,-9.024 -10,-6 -12.627,4.641 -25.294,9.308 -38,14 -2.104,2.042 -3.271,4.542 -3.5,7.5 -16.515,5.227 -33.015,10.56 -49.5,16 -0.989,-4.904 -0.156,-9.57 2.5,-14 2.646,-3.579 5.646,-3.912 9,-1 40.837,-20.315 81.004,-41.648 120.5,-64 z"
         id="path166" />
    </g>
    <g
       id="g167"
       style="clip-rule:evenodd;fill-rule:evenodd;image-rendering:optimizeQuality;shape-rendering:geometricPrecision;text-rendering:geometricPrecision"
       transform="matrix(0.26458333,0,0,0.26458333,-172.19426,-102.9316)">
      <path
         style="opacity:1"
         fill="#21211f"
         d="m 856.5,522.5 c 7.779,6.096 16.113,11.429 25,16 1.458,1.638 1.792,3.305 1,5 -8.652,-3.991 -16.986,-8.491 -25,-13.5 -0.935,-2.381 -1.268,-4.881 -1,-7.5 z"
         id="path167" />
    </g>
    <g
       id="g168"
       style="clip-rule:evenodd;fill-rule:evenodd;image-rendering:optimizeQuality;shape-rendering:geometricPrecision;text-rendering:geometricPrecision"
       transform="matrix(0.26458333,0,0,0.26458333,-172.19426,-102.9316)">
      <path
         style="opacity:1"
         fill="#1c1c1a"
         d="m 809.5,522.5 c 1.297,2.193 1.297,4.527 0,7 -7.894,5.413 -16.227,10.079 -25,14 -1.348,-2.111 -1.015,-3.945 1,-5.5 5.364,-2.682 10.698,-5.349 16,-8 3.166,-2 5.832,-4.5 8,-7.5 z"
         id="path168" />
    </g>
    <g
       id="g169"
       style="clip-rule:evenodd;fill-rule:evenodd;image-rendering:optimizeQuality;shape-rendering:geometricPrecision;text-rendering:geometricPrecision"
       transform="matrix(0.26458333,0,0,0.26458333,-172.19426,-102.9316)">
      <path
         style="opacity:1"
         fill="#1e1f1b"
         d="m 885.5,522.5 c 1,0 2,0 3,0 0.328,5.375 -0.005,10.708 -1,16 -1.146,-0.645 -2.146,-1.478 -3,-2.5 0.967,-4.401 1.3,-8.901 1,-13.5 z"
         id="path169" />
    </g>
    <g
       id="g170"
       style="clip-rule:evenodd;fill-rule:evenodd;image-rendering:optimizeQuality;shape-rendering:geometricPrecision;text-rendering:geometricPrecision"
       transform="matrix(0.26458333,0,0,0.26458333,-172.19426,-102.9316)">
      <path
         style="opacity:1"
         fill="#1f1f1d"
         d="m 876.5,514.5 c 7.333,0 14.667,0 22,0 0.531,9.197 -0.469,18.197 -3,27 -1.43,0.079 -2.764,-0.254 -4,-1 -0.704,-6.356 -1.37,-12.69 -2,-19 -1.635,-1.181 -3.302,-1.181 -5,0 -0.667,4.667 -1.333,9.333 -2,14 -1.922,-1.211 -3.755,-2.544 -5.5,-4 -0.499,-5.657 -0.666,-11.324 -0.5,-17 z"
         id="path170" />
    </g>
    <g
       id="g171"
       style="clip-rule:evenodd;fill-rule:evenodd;image-rendering:optimizeQuality;shape-rendering:geometricPrecision;text-rendering:geometricPrecision"
       transform="matrix(0.26458333,0,0,0.26458333,-172.19426,-102.9316)">
      <path
         style="opacity:1"
         fill="#222120"
         d="m 771.5,513.5 c 6.333,0 12.667,0 19,0 0.166,6.009 -10e-4,12.009 -0.5,18 -1.242,1.372 -2.742,2.372 -4.5,3 -0.754,-4.453 -1.921,-8.786 -3.5,-13 -1.938,-1.36 -3.604,-1.027 -5,1 -0.333,5.667 -0.667,11.333 -1,17 -1.584,1.361 -3.418,2.028 -5.5,2 -1.603,-8.917 -2.27,-17.917 -2,-27 1.291,0.237 2.291,-0.096 3,-1 z"
         id="path171" />
    </g>
    <g
       id="g172"
       style="clip-rule:evenodd;fill-rule:evenodd;image-rendering:optimizeQuality;shape-rendering:geometricPrecision;text-rendering:geometricPrecision"
       transform="matrix(0.26458333,0,0,0.26458333,-172.19426,-102.9316)">
      <path
         style="opacity:1"
         fill="#292927"
         d="m 772.5,508.5 c 4.679,-0.166 9.345,10e-4 14,0.5 1.41,0.368 2.41,1.201 3,2.5 -7,1.333 -14,1.333 -21,0 1.401,-1.021 2.735,-2.021 4,-3 z"
         id="path172" />
    </g>
    <g
       id="g173"
       style="clip-rule:evenodd;fill-rule:evenodd;image-rendering:optimizeQuality;shape-rendering:geometricPrecision;text-rendering:geometricPrecision"
       transform="matrix(0.26458333,0,0,0.26458333,-172.19426,-102.9316)">
      <path
         style="opacity:1"
         fill="#21201e"
         d="m 830.5,425.5 c 2.027,-0.162 4.027,0.005 6,0.5 9.369,11.215 13.702,24.048 13,38.5 -0.978,0.477 -1.811,1.143 -2.5,2 -0.929,3.744 -0.429,7.244 1.5,10.5 1.293,0.49 2.627,0.657 4,0.5 0.277,51.676 -0.056,103.343 -1,155 -1.644,-0.214 -3.144,0.12 -4.5,1 -0.667,3 -0.667,6 0,9 1.653,1.732 2.486,3.899 2.5,6.5 -2.499,17.161 -6.333,33.995 -11.5,50.5 0.923,-19.68 0.59,-39.347 -1,-59 -0.27,-2.724 -0.77,-5.391 -1.5,-8 -1.506,-1.247 -3.006,-1.247 -4.5,0 -2.527,22.952 -3.194,45.952 -2,69 -5.021,-17.583 -8.854,-35.416 -11.5,-53.5 -0.057,-2.895 1.11,-5.062 3.5,-6.5 1.961,-6.183 -0.205,-9.516 -6.5,-10 0.132,-51.671 -0.202,-103.337 -1,-155 1.967,0.239 3.801,-0.094 5.5,-1 0.667,-3.333 0.667,-6.667 0,-10 -3.035,-4.518 -3.035,-9.184 0,-14 0.804,1.304 1.971,1.971 3.5,2 2.495,-1.664 4.495,-3.83 6,-6.5 5.786,-2.292 10.119,-0.625 13,5 4.167,1.167 5.667,-0.333 4.5,-4.5 -3.22,-7.194 -8.72,-10.027 -16.5,-8.5 -3.402,1.4 -6.236,3.567 -8.5,6.5 0.724,-7.783 3.89,-14.449 9.5,-20 z"
         id="path173" />
    </g>
    <g
       id="g174"
       style="clip-rule:evenodd;fill-rule:evenodd;image-rendering:optimizeQuality;shape-rendering:geometricPrecision;text-rendering:geometricPrecision"
       transform="matrix(0.26458333,0,0,0.26458333,-172.19426,-102.9316)">
      <path
         style="opacity:1"
         fill="#593532"
         d="m 826.5,533.5 c 19.291,-0.879 25.791,7.787 19.5,26 -3.454,5.916 -7.62,11.249 -12.5,16 -11.148,-8.289 -15.982,-19.289 -14.5,-33 2.335,-3.165 4.835,-6.165 7.5,-9 z"
         id="path174" />
    </g>
    <g
       id="g175"
       style="clip-rule:evenodd;fill-rule:evenodd;image-rendering:optimizeQuality;shape-rendering:geometricPrecision;text-rendering:geometricPrecision"
       transform="matrix(0.26458333,0,0,0.26458333,-172.19426,-102.9316)">
      <path
         style="opacity:1"
         fill="#874e49"
         d="m 829.5,535.5 c 17.577,1.819 21.744,10.485 12.5,26 -2.087,4.189 -5.087,7.523 -9,10 -7.009,-5.681 -11.176,-13.014 -12.5,-22 0.003,-6.688 3.003,-11.355 9,-14 z"
         id="path175" />
    </g>
    <g
       id="g176"
       style="clip-rule:evenodd;fill-rule:evenodd;image-rendering:optimizeQuality;shape-rendering:geometricPrecision;text-rendering:geometricPrecision"
       transform="matrix(0.26458333,0,0,0.26458333,-172.19426,-102.9316)">
      <path
         style="opacity:1"
         fill="#eee2de"
         d="m 831.5,544.5 c 4.828,-0.115 6.161,2.052 4,6.5 -4.93,0.427 -6.263,-1.74 -4,-6.5 z"
         id="path176" />
    </g>
    <g
       id="g177"
       style="clip-rule:evenodd;fill-rule:evenodd;image-rendering:optimizeQuality;shape-rendering:geometricPrecision;text-rendering:geometricPrecision"
       transform="matrix(0.26458333,0,0,0.26458333,-172.19426,-102.9316)">
      <path
         style="opacity:1"
         fill="#1f1f1d"
         d="m 833.5,641.5 c 0.768,0.763 1.268,1.763 1.5,3 0.167,8 0.333,16 0.5,24 0.208,11.072 -0.459,22.072 -2,33 -0.798,-1.578 -1.298,-3.244 -1.5,-5 -0.667,-16 -0.667,-32 0,-48 0.44,-2.366 0.94,-4.699 1.5,-7 z"
         id="path177" />
    </g>
    <g
       id="g178"
       style="clip-rule:evenodd;fill-rule:evenodd;image-rendering:optimizeQuality;shape-rendering:geometricPrecision;text-rendering:geometricPrecision"
       transform="matrix(0.26458333,0,0,0.26458333,-172.19426,-102.9316)">
      <path
         style="opacity:1"
         fill="#21211f"
         d="m 848.5,671.5 c 15.435,10.254 30.768,20.754 46,31.5 3.867,3.66 5.034,8.16 3.5,13.5 -2.592,-3.262 -5.759,-5.762 -9.5,-7.5 -14.622,-5.426 -28.956,-11.426 -43,-18 -0.457,-0.414 -0.791,-0.914 -1,-1.5 1.972,-5.858 3.305,-11.858 4,-18 z"
         id="path178" />
    </g>
    <g
       id="g209"
       style="clip-rule:evenodd;fill-rule:evenodd;image-rendering:optimizeQuality;shape-rendering:geometricPrecision;text-rendering:geometricPrecision"
       transform="matrix(0.26458333,0,0,0.26458333,-172.19426,-102.9316)">
      <path
         style="opacity:1"
         fill="#20201f"
         d="m 815.5,671.5 c 0.996,-0.086 1.829,0.248 2.5,1 1.502,5.838 3.002,11.671 4.5,17.5 -13.227,6.775 -26.894,12.775 -41,18 -4.693,2.021 -8.86,4.854 -12.5,8.5 -1.294,-5.208 -0.128,-9.708 3.5,-13.5 15.077,-9.591 29.41,-20.091 43,-31.5 z"
         id="path209" />
    </g>
    <g
       id="g214"
       style="clip-rule:evenodd;fill-rule:evenodd;image-rendering:optimizeQuality;shape-rendering:geometricPrecision;text-rendering:geometricPrecision"
       transform="matrix(0.26458333,0,0,0.26458333,-172.19426,-102.9316)">
      <path
         style="opacity:1"
         fill="#20201f"
         d="m 820.5,693.5 c 3.643,0.882 4.81,3.216 3.5,7 -16.721,5.406 -33.555,10.739 -50.5,16 -0.333,-0.333 -0.667,-0.667 -1,-1 2.206,-1.585 4.539,-3.085 7,-4.5 14.043,-5.173 27.71,-11.007 41,-17.5 z"
         id="path214" />
    </g>
    <g
       id="g216"
       style="clip-rule:evenodd;fill-rule:evenodd;image-rendering:optimizeQuality;shape-rendering:geometricPrecision;text-rendering:geometricPrecision"
       transform="matrix(0.26458333,0,0,0.26458333,-172.19426,-102.9316)">
      <path
         style="opacity:1"
         fill="#222220"
         d="m 843.5,692.5 c 14.52,6.424 29.187,12.591 44,18.5 2.71,1.015 5.043,2.515 7,4.5 -0.5,0.333 -1,0.667 -1.5,1 -15.523,-4.756 -31.023,-9.589 -46.5,-14.5 -1.723,-0.523 -3.056,-1.523 -4,-3 0.787,-2.099 1.12,-4.266 1,-6.5 z"
         id="path216" />
    </g>
  </g>
</svg>
