<?xml version="1.0" encoding="UTF-8" standalone="no"?>
<!-- Created with Inkscape (http://www.inkscape.org/) -->

<svg
   width="96mm"
   height="96mm"
   viewBox="0 0 96 96"
   version="1.1"
   id="svg1"
   inkscape:version="1.4.2 (ebf0e940, 2025-05-08)"
   sodipodi:docname="tractor.svg"
   xmlns:inkscape="http://www.inkscape.org/namespaces/inkscape"
   xmlns:sodipodi="http://sodipodi.sourceforge.net/DTD/sodipodi-0.dtd"
   xmlns="http://www.w3.org/2000/svg"
   xmlns:svg="http://www.w3.org/2000/svg">
  <sodipodi:namedview
     id="namedview1"
     pagecolor="#ffffff"
     bordercolor="#000000"
     borderopacity="0.25"
     inkscape:showpageshadow="2"
     inkscape:pageopacity="0.0"
     inkscape:pagecheckerboard="0"
     inkscape:deskcolor="#d1d1d1"
     inkscape:document-units="mm"
     inkscape:zoom="0.80444024"
     inkscape:cx="397.17059"
     inkscape:cy="362.36377"
     inkscape:window-width="1920"
     inkscape:window-height="1052"
     inkscape:window-x="0"
     inkscape:window-y="28"
     inkscape:window-maximized="0"
     inkscape:current-layer="layer1" />
  <defs
     id="defs1" />
  <g
     inkscape:label="Layer 1"
     inkscape:groupmode="layer"
     id="layer1">
    <g
       id="g2"
       style="clip-rule:evenodd;fill-rule:evenodd;image-rendering:optimizeQuality;shape-rendering:geometricPrecision;text-rendering:geometricPrecision"
       transform="matrix(0.30260264,0,0,0.30260264,-214.21107,-8.0691951)">
      <path
         style="opacity:1"
         fill="#f7f7f6"
         d="m 888.5,89.5 c -3.052,30.03 -6.385,60.03 -10,90 -3.333,0 -6.667,0 -10,0 -7.674,0.166 -15.341,0 -23,-0.5 -0.88,-1.356 -1.214,-2.856 -1,-4.5 -2.629,-26.532 -5.629,-53.032 -9,-79.5 0.333,-1.8333 0.667,-3.6667 1,-5.5 0.917,-0.6272 1.917,-0.9606 3,-1 16.39,-4.0776 32.723,-3.7442 49,1 z"
         id="path2" />
    </g>
    <g
       id="g3"
       style="clip-rule:evenodd;fill-rule:evenodd;image-rendering:optimizeQuality;shape-rendering:geometricPrecision;text-rendering:geometricPrecision"
       transform="matrix(0.30260264,0,0,0.30260264,-214.21107,-8.0691951)">
      <path
         style="opacity:1"
         fill="#1e1f1c"
         d="m 892.5,116.5 c -0.722,0.418 -1.222,1.084 -1.5,2 -0.333,-1.333 -0.667,-2.667 -1,-4 -0.167,1 -0.333,2 -0.5,3 1.239,11.341 1.239,22.675 0,34 0.667,3.667 1.333,7.333 2,11 -0.816,4.43 -1.15,8.763 -1,13 0.301,1.922 0.967,3.588 2,5 0,1 0,2 0,3 -4.771,-1.818 -9.771,-2.485 -15,-2 -3,-0.667 -6,-1.333 -9,-2 3.333,0 6.667,0 10,0 3.615,-29.97 6.948,-59.97 10,-90 0.237,-1.291 -0.096,-2.291 -1,-3 -0.846,-3.8383 -3.179,-6.3383 -7,-7.5 -12.353,-3.2652 -24.686,-3.2652 -37,0 -3.239,1.7364 -5.573,4.2364 -7,7.5 0.254,0.8321 1.254,1.4987 3,2 -1.083,0.0394 -2.083,0.3728 -3,1 -0.333,1.8333 -0.667,3.6667 -1,5.5 3.371,26.468 6.371,52.968 9,79.5 -0.934,1.068 -1.268,2.401 -1,4 -2.667,0 -5.333,0 -8,0 -0.625,-16.873 -1.125,-33.873 -1.5,-51 -1.019,2.002 -1.852,4.002 -2.5,6 0,-9.333 0,-18.667 0,-28 -3,0 -6,0 -9,0 -0.986,4.47 -1.319,9.137 -1,14 -1,0 -2,0 -3,0 -0.247,-13.185 0.086,-26.3517 1,-39.5 -0.022,-4.888 -1.355,-9.388 -4,-13.5 -1.057,1.5032 -1.724,3.1698 -2,5 1.177,5.7245 1.177,11.7245 0,18 0.531,3.2349 1.198,6.4015 2,9.5 -0.667,0.3333 -1.333,0.6667 -2,1 -0.068,6.772 0.266,13.606 1,20.5 -2.207,4.285 -3.374,3.952 -3.5,-1 0.27,-7.231 -0.23,-14.564 -1.5,-22 0.51,-2.9074 1.177,-5.7408 2,-8.5 -0.981,-7.4129 -1.314,-14.9129 -1,-22.5 -1.667,0 -3.333,0 -5,0 -0.2,10.8497 -0.533,21.5164 -1,32 1.715,6.84 2.382,13.173 2,19 -0.318,1.147 -0.984,1.981 -2,2.5 0.333,0.333 0.667,0.667 1,1 -1.293,0.49 -2.627,0.657 -4,0.5 -0.241,-17.726 0.092,-35.2258 1,-52.5 -0.525,-0.6924 -1.192,-1.1924 -2,-1.5 -0.729,2.8132 -1.896,4.8132 -3.5,6 -0.667,15.6667 -0.667,31.333 0,47 0.559,2.785 1.892,5.118 4,7 0.49,-1.293 0.657,-2.627 0.5,-4 1,0 2,0 3,0 0,1.667 0,3.333 0,5 -1.478,-0.262 -2.811,0.071 -4,1 5.151,0.667 10.151,1.334 15,2 -6.009,0.166 -12.009,-0.001 -18,-0.5 -1.549,-1.214 -2.715,-2.714 -3.5,-4.5 -0.667,-19.667 -0.667,-39.3333 0,-59 0.948,-2.0701 2.448,-3.5701 4.5,-4.5 6.776,-0.9196 13.443,-0.5863 20,1 1.549,1.214 2.715,2.714 3.5,4.5 0.5,6.9921 0.666,13.9921 0.5,21 3,0 6,0 9,0 1.013,-5.6802 3.847,-10.3469 8.5,-14 -0.379,-4.9217 1.121,-9.0884 4.5,-12.5 11.667,-0.6667 23.333,-0.6667 35,0 3.505,3.3194 5.005,7.4861 4.5,12.5 3.038,2.7026 5.705,5.7026 8,9 0.494,1.6341 0.66,3.3008 0.5,5 3,0 6,0 9,0 -0.432,-7.7792 0.068,-15.4458 1.5,-23 1.214,-1.5488 2.714,-2.7155 4.5,-3.5 6,-0.6667 12,-0.6667 18,0 1.833,1.1667 3.333,2.6667 4.5,4.5 0.667,19.6667 0.667,39.333 0,59 -0.833,2.167 -2.333,3.667 -4.5,4.5 -6.333,0.667 -12.667,0.667 -19,0 -2.226,-1.227 -3.726,-3.061 -4.5,-5.5 -0.5,-6.658 -0.666,-13.325 -0.5,-20 -3,0 -6,0 -9,0 0,3.667 0,7.333 0,11 z"
         id="path3" />
    </g>
    <g
       id="g4"
       style="clip-rule:evenodd;fill-rule:evenodd;image-rendering:optimizeQuality;shape-rendering:geometricPrecision;text-rendering:geometricPrecision"
       transform="matrix(0.30260264,0,0,0.30260264,-214.21107,-8.0691951)">
      <path
         style="opacity:1"
         fill="#5a5a58"
         d="m 887.5,86.5 c 0.904,0.709 1.237,1.709 1,3 -16.277,-4.7442 -32.61,-5.0776 -49,-1 -1.746,-0.5013 -2.746,-1.1679 -3,-2 17.007,-5.2435 34.007,-5.2435 51,0 z"
         id="path4" />
    </g>
    <g
       id="g5"
       style="clip-rule:evenodd;fill-rule:evenodd;image-rendering:optimizeQuality;shape-rendering:geometricPrecision;text-rendering:geometricPrecision"
       transform="matrix(0.30260264,0,0,0.30260264,-214.21107,-8.0691951)">
      <path
         style="opacity:1"
         fill="#eaeae8"
         d="m 887.5,86.5 c -16.993,-5.2435 -33.993,-5.2435 -51,0 1.427,-3.2636 3.761,-5.7636 7,-7.5 12.314,-3.2652 24.647,-3.2652 37,0 3.821,1.1617 6.154,3.6617 7,7.5 z"
         id="path5" />
    </g>
    <g
       id="g6"
       style="clip-rule:evenodd;fill-rule:evenodd;image-rendering:optimizeQuality;shape-rendering:geometricPrecision;text-rendering:geometricPrecision"
       transform="matrix(0.30260264,0,0,0.30260264,-214.21107,-8.0691951)">
      <path
         style="opacity:1"
         fill="#272725"
         d="m 846.5,95.5 c 3.47,-0.6252 6.304,0.3748 8.5,3 0.667,4.333 0.667,8.667 0,13 -3.171,4.914 -6.837,5.247 -11,1 -0.667,-4.667 -0.667,-9.333 0,-14 1.045,-0.8734 1.878,-1.8734 2.5,-3 z"
         id="path6" />
    </g>
    <g
       id="g11"
       style="clip-rule:evenodd;fill-rule:evenodd;image-rendering:optimizeQuality;shape-rendering:geometricPrecision;text-rendering:geometricPrecision"
       transform="matrix(0.30260264,0,0,0.30260264,-214.21107,-8.0691951)">
      <path
         style="opacity:1"
         fill="#242421"
         d="m 822.5,105.5 c 0.391,7.421 -0.109,14.754 -1.5,22 -1.451,1.964 -3.284,3.297 -5.5,4 -4.849,-0.666 -9.849,-1.333 -15,-2 1.189,-0.929 2.522,-1.262 4,-1 0,-1.667 0,-3.333 0,-5 -1,0 -2,0 -3,0 0.157,1.373 -0.01,2.707 -0.5,4 -2.108,-1.882 -3.441,-4.215 -4,-7 -0.667,-15.667 -0.667,-31.3333 0,-47 1.604,-1.1868 2.771,-3.1868 3.5,-6 0.808,0.3076 1.475,0.8076 2,1.5 -0.908,17.2742 -1.241,34.774 -1,52.5 1.373,0.157 2.707,-0.01 4,-0.5 -0.333,-0.333 -0.667,-0.667 -1,-1 1.016,-0.519 1.682,-1.353 2,-2.5 0.382,-5.827 -0.285,-12.16 -2,-19 0.467,-10.4836 0.8,-21.1503 1,-32 1.667,0 3.333,0 5,0 -0.314,7.5871 0.019,15.0871 1,22.5 -0.823,2.7592 -1.49,5.5926 -2,8.5 1.27,7.436 1.77,14.769 1.5,22 0.126,4.952 1.293,5.285 3.5,1 -0.734,-6.894 -1.068,-13.728 -1,-20.5 0.667,-0.3333 1.333,-0.6667 2,-1 -0.802,-3.0985 -1.469,-6.2651 -2,-9.5 1.177,-6.2755 1.177,-12.2755 0,-18 0.276,-1.8302 0.943,-3.4968 2,-5 2.645,4.112 3.978,8.612 4,13.5 -0.914,13.1483 -1.247,26.315 -1,39.5 1,0 2,0 3,0 -0.319,-4.863 0.014,-9.53 1,-14 z"
         id="path11" />
    </g>
    <g
       id="g15"
       style="clip-rule:evenodd;fill-rule:evenodd;image-rendering:optimizeQuality;shape-rendering:geometricPrecision;text-rendering:geometricPrecision"
       transform="matrix(0.30260264,0,0,0.30260264,-214.21107,-8.0691951)">
      <path
         style="opacity:1"
         fill="#11110e"
         d="m 892.5,116.5 c 0,21.333 0,42.667 0,64 -1.033,-1.412 -1.699,-3.078 -2,-5 -0.15,-4.237 0.184,-8.57 1,-13 -0.667,-3.667 -1.333,-7.333 -2,-11 1.239,-11.325 1.239,-22.659 0,-34 0.167,-1 0.333,-2 0.5,-3 0.333,1.333 0.667,2.667 1,4 0.278,-0.916 0.778,-1.582 1.5,-2 z"
         id="path15" />
    </g>
    <g
       id="g26"
       style="clip-rule:evenodd;fill-rule:evenodd;image-rendering:optimizeQuality;shape-rendering:geometricPrecision;text-rendering:geometricPrecision"
       transform="matrix(0.30260264,0,0,0.30260264,-214.21107,-8.0691951)">
      <path
         style="opacity:1"
         fill="#f7f7f7"
         d="m 877.5,181.5 c 5.229,-0.485 10.229,0.182 15,2 3.087,1.921 5.254,4.587 6.5,8 0.5,18.33 0.667,36.664 0.5,55 -1.222,4.897 -4.222,8.397 -9,10.5 -18.664,0.5 -37.33,0.667 -56,0.5 -5.427,-1.601 -8.593,-5.267 -9.5,-11 -0.667,-18.333 -0.667,-36.667 0,-55 1.779,-4.112 4.612,-7.278 8.5,-9.5 14.663,-0.5 29.33,-0.667 44,-0.5 z"
         id="path26" />
    </g>
    <g
       id="g28"
       style="clip-rule:evenodd;fill-rule:evenodd;image-rendering:optimizeQuality;shape-rendering:geometricPrecision;text-rendering:geometricPrecision"
       transform="matrix(0.30260264,0,0,0.30260264,-214.21107,-8.0691951)">
      <path
         style="opacity:1"
         fill="#f3f3f3"
         d="m 831.5,271.5 c 0.645,3.047 -0.355,5.213 -3,6.5 -6.333,0.667 -12.667,0.667 -19,0 -1.693,-1.25 -3.027,-2.75 -4,-4.5 -0.167,-26.002 0,-52.002 0.5,-78 0.903,-1.201 2.069,-2.035 3.5,-2.5 3.986,-0.499 7.986,-0.666 12,-0.5 -0.167,18.003 0,36.003 0.5,54 0.783,5.91 3.783,10.243 9,13 0.499,3.986 0.666,7.986 0.5,12 z"
         id="path28" />
    </g>
    <g
       id="g29"
       style="clip-rule:evenodd;fill-rule:evenodd;image-rendering:optimizeQuality;shape-rendering:geometricPrecision;text-rendering:geometricPrecision"
       transform="matrix(0.30260264,0,0,0.30260264,-214.21107,-8.0691951)">
      <path
         style="opacity:1"
         fill="#f8f8f8"
         d="m 914.5,193.5 c 2,0 3,1 3,3 0,25.667 0,51.333 0,77 -1.052,-0.149 -2.052,0.017 -3,0.5 0.837,1.011 1.17,2.178 1,3.5 -0.891,0.61 -1.891,0.943 -3,1 -5.676,0.166 -11.343,-10e-4 -17,-0.5 -0.833,-0.833 -1.667,-1.667 -2.5,-2.5 -0.667,-5.333 -0.667,-10.667 0,-16 4.542,-2.372 7.375,-6.038 8.5,-11 0,-0.667 0,-1.333 0,-2 0.997,-17.492 1.33,-35.159 1,-53 4,0 8,0 12,0 z"
         id="path29" />
    </g>
    <g
       id="g61"
       style="clip-rule:evenodd;fill-rule:evenodd;image-rendering:optimizeQuality;shape-rendering:geometricPrecision;text-rendering:geometricPrecision"
       transform="matrix(0.30260264,0,0,0.30260264,-214.21107,-8.0691951)">
      <path
         style="opacity:1"
         fill="#1c1c1a"
         d="m 892.5,180.5 c 7.341,-0.166 14.674,0 22,0.5 2.862,0.93 5.195,2.597 7,5 5.333,0.333 10.667,0.667 16,1 5.073,1.406 8.573,4.572 10.5,9.5 0.667,33.333 0.667,66.667 0,100 -1.927,4.928 -5.427,8.094 -10.5,9.5 -9.333,0.667 -18.667,0.667 -28,0 -2.496,-1.331 -4.496,-3.164 -6,-5.5 0.06,-0.543 0.393,-0.876 1,-1 1.667,0.833 3.333,1.667 5,2.5 3.921,0.203 7.755,0.703 11.5,1.5 0.333,-0.667 0.667,-1.333 1,-2 5.308,1.763 10.808,1.93 16.5,0.5 -2.71,-2.351 -2.377,-4.351 1,-6 1.333,-0.333 2.667,-0.667 4,-1 -2.401,-0.805 -2.234,-1.638 0.5,-2.5 0.497,-2.31 0.663,-4.643 0.5,-7 -1.322,0.17 -2.489,-0.163 -3.5,-1 -1,1.333 -2,2.667 -3,4 -1.701,-1.723 -3.201,-2.889 -4.5,-3.5 1.242,-4.227 3.409,-5.061 6.5,-2.5 -0.266,-3.401 1.234,-5.067 4.5,-5 0.324,-4.055 -0.009,-8.055 -1,-12 -5.287,4.427 -10.62,8.093 -16,11 -1.892,-2.371 -2.225,-4.871 -1,-7.5 6.12,-2.467 10.62,-6.633 13.5,-12.5 1.11,1.537 2.61,2.203 4.5,2 0.326,-4.384 -0.008,-8.717 -1,-13 -4.54,2.38 -8.707,5.713 -12.5,10 -1.406,-1.168 -2.572,-0.835 -3.5,1 -1.402,-0.365 -2.402,-1.199 -3,-2.5 0.583,-2.499 1.916,-4.499 4,-6 5.251,-2.541 10.085,-5.708 14.5,-9.5 0.825,-3.711 0.659,-7.378 -0.5,-11 -4.984,2.831 -9.651,6.165 -14,10 -1.236,-0.746 -2.57,-1.079 -4,-1 -0.107,1.879 0.393,2.212 1.5,1 0.665,2.466 1.165,4.633 1.5,6.5 -2,1.333 -4,2.667 -6,4 1.074,5.536 2.074,11.036 3,16.5 -1.455,1.72 -2.288,3.72 -2.5,6 -0.333,-1.667 -0.667,-3.333 -1,-5 -0.758,2.269 -0.591,4.436 0.5,6.5 -0.667,0.333 -1.333,0.667 -2,1 2.144,2.979 4.478,5.812 7,8.5 -0.5,1 -1,2 -1.5,3 -0.336,-1.574 -1.169,-2.908 -2.5,-4 -0.781,1.229 -1.281,2.562 -1.5,4 -2.333,-1.333 -4.667,-2.667 -7,-4 -3.333,1.333 -6.667,1.333 -10,0 -0.684,1.284 -0.517,2.451 0.5,3.5 -2.667,0.667 -2.667,1.333 0,2 -1.314,0.985 -2.314,2.152 -3,3.5 0,-2.333 0,-4.667 0,-7 -1.218,-0.661 -2.551,-1.328 -4,-2 5.151,-0.667 10.151,-1.334 15,-2 1.109,-0.057 2.109,-0.39 3,-1 1.29,-0.558 2.123,-1.558 2.5,-3 0.83,-26.17 0.663,-52.17 -0.5,-78 0,-2 -1,-3 -3,-3 -4.134,-0.985 -8.468,-1.318 -13,-1 0,18 0,36 0,54 0,0.667 0,1.333 0,2 -1.333,0 -2,-0.667 -2,-2 0.167,-18.336 0,-36.67 -0.5,-55 -1.246,-3.413 -3.413,-6.079 -6.5,-8 0,-1 0,-2 0,-3 z"
         id="path61" />
    </g>
    <g
       id="g62"
       style="clip-rule:evenodd;fill-rule:evenodd;image-rendering:optimizeQuality;shape-rendering:geometricPrecision;text-rendering:geometricPrecision"
       transform="matrix(0.30260264,0,0,0.30260264,-214.21107,-8.0691951)">
      <path
         style="opacity:1"
         fill="#242421"
         d="m 924.5,236.5 c -1.534,0.703 -3.201,0.536 -5,-0.5 0.782,-2.74 1.282,-5.574 1.5,-8.5 0.333,2.667 0.667,5.333 1,8 1.219,-5.486 1.219,-10.819 0,-16 -0.333,0.667 -0.667,1.333 -1,2 -1.328,-3.947 -1.162,-7.947 0.5,-12 3.368,-1.227 4.368,-3.394 3,-6.5 2.667,-1 2.667,-2 0,-3 4.151,-1.149 7.484,-3.482 10,-7 4.2,-1.31 6.867,0.19 8,4.5 -4.925,5.782 -10.592,10.616 -17,14.5 1.333,1.333 1.333,2.667 0,4 2.13,3.266 3.796,2.933 5,-1 2,-1 4,-2 6,-3 2.035,-2.333 4.202,-4.5 6.5,-6.5 1.064,1.444 1.564,3.111 1.5,5 -1.247,3.163 -2.247,6.33 -3,9.5 0.45,1.55 0.617,3.05 0.5,4.5 -1.466,-1.825 -3.299,-2.325 -5.5,-1.5 -3.309,3.761 -7.142,6.928 -11.5,9.5 -0.49,1.293 -0.657,2.627 -0.5,4 z"
         id="path62" />
    </g>
    <g
       id="g63"
       style="clip-rule:evenodd;fill-rule:evenodd;image-rendering:optimizeQuality;shape-rendering:geometricPrecision;text-rendering:geometricPrecision"
       transform="matrix(0.30260264,0,0,0.30260264,-214.21107,-8.0691951)">
      <path
         style="opacity:1"
         fill="#666565"
         d="m 914.5,193.5 c -4,0 -8,0 -12,0 0.33,17.841 -0.003,35.508 -1,53 0,-18 0,-36 0,-54 4.532,-0.318 8.866,0.015 13,1 z"
         id="path63" />
    </g>
    <g
       id="g68"
       style="clip-rule:evenodd;fill-rule:evenodd;image-rendering:optimizeQuality;shape-rendering:geometricPrecision;text-rendering:geometricPrecision"
       transform="matrix(0.30260264,0,0,0.30260264,-214.21107,-8.0691951)">
      <path
         style="opacity:1"
         fill="#1c1c1b"
         d="m 844.5,174.5 c -0.214,1.644 0.12,3.144 1,4.5 7.659,0.5 15.326,0.666 23,0.5 3,0.667 6,1.333 9,2 -14.67,-0.167 -29.337,0 -44,0.5 -3.888,2.222 -6.721,5.388 -8.5,9.5 -0.667,18.333 -0.667,36.667 0,55 0.907,5.733 4.073,9.399 9.5,11 13.494,0.831 27.161,1.331 41,1.5 -1.372,0.402 -2.705,0.902 -4,1.5 -11.807,-0.564 -23.807,-0.897 -36,-1 -0.677,3.809 0.657,6.642 4,8.5 -0.405,0.945 -1.072,1.612 -2,2 1.333,0.667 2.667,0.667 4,0 -1.122,-1.613 -0.622,-2.78 1.5,-3.5 1.5,0.833 2.667,2 3.5,3.5 1.167,0.167 2.333,0.333 3.5,0.5 3.575,-0.117 7.242,-0.45 11,-1 2.077,0.517 4.077,1.184 6,2 4.267,-0.796 8.601,-1.462 13,-2 1.888,0.296 3.722,0.796 5.5,1.5 -0.333,0.333 -0.667,0.667 -1,1 0.916,0.278 1.582,0.778 2,1.5 -3.333,0 -6.667,0 -10,0 0,5 0,10 0,15 -0.79,1.294 -1.79,2.461 -3,3.5 -6.992,0.5 -13.992,0.666 -21,0.5 1.208,-5.085 3.874,-6.085 8,-3 1.017,-2.528 2.184,-2.528 3.5,0 2.637,-0.337 5.137,-0.837 7.5,-1.5 0.815,-4.778 1.481,-9.611 2,-14.5 -7.333,0 -14.667,0 -22,0 -0.428,3.172 -0.595,6.172 -0.5,9 -1.113,0.805 -2.279,1.472 -3.5,2 0,-3.667 0,-7.333 0,-11 -4,0 -8,0 -12,0 -0.79,-1.109 -1.29,-2.442 -1.5,-4 -0.708,0.881 -1.542,1.547 -2.5,2 0.166,-4.014 -10e-4,-8.014 -0.5,-12 -5.217,-2.757 -8.217,-7.09 -9,-13 -0.5,-17.997 -0.667,-35.997 -0.5,-54 -4.014,-0.166 -8.014,0.001 -12,0.5 -1.431,0.465 -2.597,1.299 -3.5,2.5 -0.5,25.998 -0.667,51.998 -0.5,78 -0.943,-26.694 -1.61,-54.028 -2,-82 -3.661,-0.15 -4.661,1.35 -3,4.5 -4.684,2.101 -7.518,0.601 -8.5,-4.5 -0.333,1.333 -0.667,2.667 -1,4 -1.884,-1.477 -3.884,-2.81 -6,-4 -1.377,2.254 -2.877,4.42 -4.5,6.5 3.687,3.356 7.354,6.69 11,10 -0.167,0.5 -0.333,1 -0.5,1.5 -1.843,-3.512 -4.176,-3.845 -7,-1 -0.088,4.14 -1.088,7.807 -3,11 5.127,3.379 10.627,7.045 16.5,11 2.986,2.884 2.653,5.217 -1,7 -6.059,-3.732 -11.892,-7.732 -17.5,-12 -0.5,0.333 -1,0.667 -1.5,1 1.593,3.809 2.426,7.809 2.5,12 7.193,3.833 13.693,8.5 19.5,14 -0.552,1.833 -1.385,3.5 -2.5,5 -4.632,-3.092 -9.465,-6.092 -14.5,-9 -2.099,-4.459 -3.766,-4.626 -5,-0.5 2.391,0.691 2.391,1.691 0,3 1.223,2.052 2.223,4.219 3,6.5 5.62,4.084 10.953,7.751 16,11 -0.477,0.978 -1.143,1.811 -2,2.5 1.024,1.367 0.524,2.2 -1.5,2.5 -2.245,-0.637 -4.412,-1.47 -6.5,-2.5 0.705,-1.557 0.039,-2.723 -2,-3.5 -0.586,0.209 -1.086,0.543 -1.5,1 -0.615,-1.616 -1.615,-2.949 -3,-4 -1.914,1.176 -1.748,2.176 0.5,3 -1.333,1.333 -1.333,2.667 0,4 -0.477,0.978 -1.143,1.811 -2,2.5 2.83,2.644 2.496,3.478 -1,2.5 -1,-26.658 -1.333,-53.325 -1,-80 1.421,-4.59 4.421,-7.756 9,-9.5 6,-0.333 12,-0.667 18,-1 1.708,-2.043 3.708,-3.71 6,-5 7.326,-0.5 14.659,-0.666 22,-0.5 0,-15.667 0,-31.333 0,-47 0.648,-1.998 1.481,-3.998 2.5,-6 0.375,17.127 0.875,34.127 1.5,51 2.667,0 5.333,0 8,0 -0.268,-1.599 0.066,-2.932 1,-4 z"
         id="path68" />
    </g>
    <g
       id="g71"
       style="clip-rule:evenodd;fill-rule:evenodd;image-rendering:optimizeQuality;shape-rendering:geometricPrecision;text-rendering:geometricPrecision"
       transform="matrix(0.30260264,0,0,0.30260264,-214.21107,-8.0691951)">
      <path
         style="opacity:1"
         fill="#22221f"
         d="m 805.5,273.5 c 0.973,1.75 2.307,3.25 4,4.5 6.333,0.667 12.667,0.667 19,0 2.645,-1.287 3.645,-3.453 3,-6.5 0.958,-0.453 1.792,-1.119 2.5,-2 0.21,1.558 0.71,2.891 1.5,4 0,0.333 0,0.667 0,1 -1.844,5.607 -5.844,8.274 -12,8 2.73,10.618 -0.604,18.452 -10,23.5 -9.333,0.667 -18.667,0.667 -28,0 -4.928,-1.927 -8.094,-5.427 -9.5,-10.5 -0.831,-33.169 -0.664,-66.169 0.5,-99 -0.333,26.675 0,53.342 1,80 3.496,0.978 3.83,0.144 1,-2.5 0.857,-0.689 1.523,-1.522 2,-2.5 -1.333,-1.333 -1.333,-2.667 0,-4 -2.248,-0.824 -2.414,-1.824 -0.5,-3 1.385,1.051 2.385,2.384 3,4 0.414,-0.457 0.914,-0.791 1.5,-1 2.039,0.777 2.705,1.943 2,3.5 2.088,1.03 4.255,1.863 6.5,2.5 2.024,-0.3 2.524,-1.133 1.5,-2.5 0.857,-0.689 1.523,-1.522 2,-2.5 -5.047,-3.249 -10.38,-6.916 -16,-11 -0.777,-2.281 -1.777,-4.448 -3,-6.5 2.391,-1.309 2.391,-2.309 0,-3 1.234,-4.126 2.901,-3.959 5,0.5 5.035,2.908 9.868,5.908 14.5,9 1.115,-1.5 1.948,-3.167 2.5,-5 -5.807,-5.5 -12.307,-10.167 -19.5,-14 -0.074,-4.191 -0.907,-8.191 -2.5,-12 0.5,-0.333 1,-0.667 1.5,-1 5.608,4.268 11.441,8.268 17.5,12 3.653,-1.783 3.986,-4.116 1,-7 -5.873,-3.955 -11.373,-7.621 -16.5,-11 1.912,-3.193 2.912,-6.86 3,-11 2.824,-2.845 5.157,-2.512 7,1 0.167,-0.5 0.333,-1 0.5,-1.5 -3.646,-3.31 -7.313,-6.644 -11,-10 1.623,-2.08 3.123,-4.246 4.5,-6.5 2.116,1.19 4.116,2.523 6,4 0.333,-1.333 0.667,-2.667 1,-4 0.982,5.101 3.816,6.601 8.5,4.5 -1.661,-3.15 -0.661,-4.65 3,-4.5 0.39,27.972 1.057,55.306 2,82 z"
         id="path71" />
    </g>
    <g
       id="g72"
       style="clip-rule:evenodd;fill-rule:evenodd;image-rendering:optimizeQuality;shape-rendering:geometricPrecision;text-rendering:geometricPrecision"
       transform="matrix(0.30260264,0,0,0.30260264,-214.21107,-8.0691951)">
      <path
         style="opacity:1"
         fill="#22221f"
         d="m 903.5,300.5 c -1.717,-3.345 -2.384,-7.011 -2,-11 0.686,-1.348 1.686,-2.515 3,-3.5 -2.667,-0.667 -2.667,-1.333 0,-2 -1.017,-1.049 -1.184,-2.216 -0.5,-3.5 3.333,1.333 6.667,1.333 10,0 2.333,1.333 4.667,2.667 7,4 0.219,-1.438 0.719,-2.771 1.5,-4 1.331,1.092 2.164,2.426 2.5,4 0.5,-1 1,-2 1.5,-3 -2.522,-2.688 -4.856,-5.521 -7,-8.5 0.667,-0.333 1.333,-0.667 2,-1 -1.091,-2.064 -1.258,-4.231 -0.5,-6.5 0.333,1.667 0.667,3.333 1,5 0.212,-2.28 1.045,-4.28 2.5,-6 -0.926,-5.464 -1.926,-10.964 -3,-16.5 2,-1.333 4,-2.667 6,-4 -0.335,-1.867 -0.835,-4.034 -1.5,-6.5 -1.107,1.212 -1.607,0.879 -1.5,-1 1.43,-0.079 2.764,0.254 4,1 4.349,-3.835 9.016,-7.169 14,-10 1.159,3.622 1.325,7.289 0.5,11 -4.415,3.792 -9.249,6.959 -14.5,9.5 -2.084,1.501 -3.417,3.501 -4,6 0.598,1.301 1.598,2.135 3,2.5 0.928,-1.835 2.094,-2.168 3.5,-1 3.793,-4.287 7.96,-7.62 12.5,-10 0.992,4.283 1.326,8.616 1,13 -1.89,0.203 -3.39,-0.463 -4.5,-2 -2.88,5.867 -7.38,10.033 -13.5,12.5 -1.225,2.629 -0.892,5.129 1,7.5 5.38,-2.907 10.713,-6.573 16,-11 0.991,3.945 1.324,7.945 1,12 -3.266,-0.067 -4.766,1.599 -4.5,5 -3.091,-2.561 -5.258,-1.727 -6.5,2.5 1.299,0.611 2.799,1.777 4.5,3.5 1,-1.333 2,-2.667 3,-4 1.011,0.837 2.178,1.17 3.5,1 0.163,2.357 -0.003,4.69 -0.5,7 -2.734,0.862 -2.901,1.695 -0.5,2.5 -1.333,0.333 -2.667,0.667 -4,1 -3.377,1.649 -3.71,3.649 -1,6 -5.692,1.43 -11.192,1.263 -16.5,-0.5 -0.333,0.667 -0.667,1.333 -1,2 -3.745,-0.797 -7.579,-1.297 -11.5,-1.5 -1.667,-0.833 -3.333,-1.667 -5,-2.5 -0.607,0.124 -0.94,0.457 -1,1 z"
         id="path72" />
    </g>
    <g
       id="g74"
       style="clip-rule:evenodd;fill-rule:evenodd;image-rendering:optimizeQuality;shape-rendering:geometricPrecision;text-rendering:geometricPrecision"
       transform="matrix(0.30260264,0,0,0.30260264,-214.21107,-8.0691951)">
      <path
         style="opacity:1"
         fill="#242421"
         d="m 899.5,246.5 c 0,1.333 0.667,2 2,2 -1.125,4.962 -3.958,8.628 -8.5,11 -0.667,5.333 -0.667,10.667 0,16 0.833,0.833 1.667,1.667 2.5,2.5 5.657,0.499 11.324,0.666 17,0.5 -4.849,0.666 -9.849,1.333 -15,2 1.449,0.672 2.782,1.339 4,2 -6.781,1.117 -11.114,-1.55 -13,-8 -0.342,-0.838 -1.008,-1.172 -2,-1 -0.418,-0.722 -1.084,-1.222 -2,-1.5 0.333,-0.333 0.667,-0.667 1,-1 -1.778,-0.704 -3.612,-1.204 -5.5,-1.5 -4.399,0.538 -8.733,1.204 -13,2 -1.923,-0.816 -3.923,-1.483 -6,-2 -3.758,0.55 -7.425,0.883 -11,1 -1.167,-0.167 -2.333,-0.333 -3.5,-0.5 -0.833,-1.5 -2,-2.667 -3.5,-3.5 -2.122,0.72 -2.622,1.887 -1.5,3.5 -1.333,0.667 -2.667,0.667 -4,0 0.928,-0.388 1.595,-1.055 2,-2 -3.343,-1.858 -4.677,-4.691 -4,-8.5 12.193,0.103 24.193,0.436 36,1 1.295,-0.598 2.628,-1.098 4,-1.5 -13.839,-0.169 -27.506,-0.669 -41,-1.5 18.67,0.167 37.336,0 56,-0.5 4.778,-2.103 7.778,-5.603 9,-10.5 z"
         id="path74" />
    </g>
    <g
       id="g75"
       style="clip-rule:evenodd;fill-rule:evenodd;image-rendering:optimizeQuality;shape-rendering:geometricPrecision;text-rendering:geometricPrecision"
       transform="matrix(0.30260264,0,0,0.30260264,-214.21107,-8.0691951)">
      <path
         style="opacity:1"
         fill="#d3d3d2"
         d="m 917.5,196.5 c 1.163,25.83 1.33,51.83 0.5,78 -0.377,1.442 -1.21,2.442 -2.5,3 0.17,-1.322 -0.163,-2.489 -1,-3.5 0.948,-0.483 1.948,-0.649 3,-0.5 0,-25.667 0,-51.333 0,-77 z"
         id="path75" />
    </g>
    <g
       id="g76"
       style="clip-rule:evenodd;fill-rule:evenodd;image-rendering:optimizeQuality;shape-rendering:geometricPrecision;text-rendering:geometricPrecision"
       transform="matrix(0.30260264,0,0,0.30260264,-214.21107,-8.0691951)">
      <path
         style="opacity:1"
         fill="#242420"
         d="m 852.5,292.5 c -2.644,-0.644 -4.311,-2.311 -5,-5 0,-1 0,-2 0,-3 1.221,-0.528 2.387,-1.195 3.5,-2 -0.095,-2.828 0.072,-5.828 0.5,-9 7.333,0 14.667,0 22,0 -0.519,4.889 -1.185,9.722 -2,14.5 -2.363,0.663 -4.863,1.163 -7.5,1.5 -1.316,-2.528 -2.483,-2.528 -3.5,0 -4.126,-3.085 -6.792,-2.085 -8,3 z"
         id="path76" />
    </g>
    <g
       id="g77"
       style="clip-rule:evenodd;fill-rule:evenodd;image-rendering:optimizeQuality;shape-rendering:geometricPrecision;text-rendering:geometricPrecision"
       transform="matrix(0.30260264,0,0,0.30260264,-214.21107,-8.0691951)">
      <path
         style="opacity:1"
         fill="#979793"
         d="m 886.5,273.5 c 0.992,-0.172 1.658,0.162 2,1 -3.667,0 -7.333,0 -11,0 0.319,4.863 -0.014,9.53 -1,14 0,-5 0,-10 0,-15 3.333,0 6.667,0 10,0 z"
         id="path77" />
    </g>
    <g
       id="g90"
       style="clip-rule:evenodd;fill-rule:evenodd;image-rendering:optimizeQuality;shape-rendering:geometricPrecision;text-rendering:geometricPrecision"
       transform="matrix(0.30260264,0,0,0.30260264,-214.21107,-8.0691951)">
      <path
         style="opacity:1"
         fill="#a0a0a0"
         d="m 835.5,274.5 c 0,-0.333 0,-0.667 0,-1 4,0 8,0 12,0 0,3.667 0,7.333 0,11 0,1 0,2 0,3 -0.985,-4.134 -1.318,-8.468 -1,-13 -3.667,0 -7.333,0 -11,0 z"
         id="path90" />
    </g>
  </g>
</svg>
