<?xml version="1.0" encoding="UTF-8" standalone="no"?>
<!-- Created with Inkscape (http://www.inkscape.org/) -->

<svg
   width="96mm"
   height="96mm"
   viewBox="0 0 96 96"
   version="1.1"
   id="svg1"
   inkscape:version="1.4.2 (ebf0e940, 2025-05-08)"
   sodipodi:docname="bus.svg"
   xmlns:inkscape="http://www.inkscape.org/namespaces/inkscape"
   xmlns:sodipodi="http://sodipodi.sourceforge.net/DTD/sodipodi-0.dtd"
   xmlns="http://www.w3.org/2000/svg"
   xmlns:svg="http://www.w3.org/2000/svg">
  <sodipodi:namedview
     id="namedview1"
     pagecolor="#ffffff"
     bordercolor="#000000"
     borderopacity="0.25"
     inkscape:showpageshadow="2"
     inkscape:pageopacity="0.0"
     inkscape:pagecheckerboard="0"
     inkscape:deskcolor="#d1d1d1"
     inkscape:document-units="mm"
     inkscape:zoom="0.80444024"
     inkscape:cx="397.17059"
     inkscape:cy="262.91574"
     inkscape:window-width="1920"
     inkscape:window-height="1052"
     inkscape:window-x="0"
     inkscape:window-y="28"
     inkscape:window-maximized="0"
     inkscape:current-layer="layer1" />
  <defs
     id="defs1" />
  <g
     inkscape:label="Layer 1"
     inkscape:groupmode="layer"
     id="layer1">
    <path
       d="m 57.21243,7.6893794 c 0.406246,0.066803 0.812492,0.1336066 1.231049,0.2024341 3.871309,0.7075284 3.871309,0.7075284 5.246826,2.3887165 0.08016,0.374096 0.160327,0.748194 0.24292,1.133627 0.485285,1.358797 0.769643,1.43695 2.024336,2.04458 0.287254,0.122331 0.574507,0.244665 0.870465,0.370706 0.749005,0.337812 0.749005,0.337812 1.396791,0.985598 0.04048,1.174116 0.04048,1.174116 0,2.267258 -1.562686,0.520894 -2.437005,0.01645 -3.886724,-0.647788 0.0012,0.363777 0.0025,0.727553 0.0037,1.102353 0.02875,8.847457 0.05004,17.694905 0.06351,26.542398 0.0067,4.278564 0.01579,8.557098 0.03061,12.835644 0.01291,3.728749 0.02126,7.457474 0.02417,11.186247 0.0018,1.974751 0.0056,3.949438 0.01509,5.924166 0.0088,1.858282 0.0115,3.716471 0.0095,5.574772 3.56e-4,0.682353 0.003,1.364709 0.0079,2.047045 0.0065,0.931288 0.0049,1.862233 0.0014,2.793531 0.0038,0.270334 0.0076,0.540669 0.01138,0.819195 -0.02075,2.01897 -0.620564,3.173168 -2.037501,4.649544 -1.041723,0.538839 -2.040034,0.513592 -3.185988,0.508892 -0.246637,0.0026 -0.493276,0.0055 -0.747388,0.0083 -0.814386,0.0076 -1.628577,0.0079 -2.442996,0.0075 -0.567174,0.0023 -1.134348,0.0048 -1.70152,0.0075 -1.188749,0.0044 -2.377428,0.0049 -3.566182,0.003 -1.521234,-0.0019 -3.042133,0.0079 -4.563303,0.02109 -1.171501,0.0085 -2.342921,0.0093 -3.514447,0.0081 -0.5607,6.48e-4 -1.121403,0.0037 -1.682074,0.0094 -0.785449,0.0072 -1.570221,0.0041 -2.355669,-0.0016 -0.230241,0.0042 -0.460481,0.0086 -0.6977,0.01303 -1.819246,-0.03059 -2.561204,-0.590773 -3.794589,-1.831789 -0.537055,-1.074107 -0.366853,-2.274747 -0.362844,-3.455456 -2.77e-4,-0.294181 -5.51e-4,-0.588356 -8.42e-4,-0.891449 -5.51e-4,-0.991683 0.0012,-1.983345 0.003,-2.975023 9.2e-5,-0.708505 4.1e-5,-1.41701 -1.43e-4,-2.12551 -9.3e-5,-1.928546 0.0018,-3.857084 0.0041,-5.785624 0.0019,-2.013548 0.0022,-4.027094 0.0026,-6.040642 9.07e-4,-3.38128 0.003,-6.762555 0.0057,-10.143831 0.003,-3.483124 0.0053,-6.966246 0.0066,-10.44937 8.5e-5,-0.214608 1.71e-4,-0.429217 2.58e-4,-0.650327 4.22e-4,-1.076596 8.43e-4,-2.153197 0.0012,-3.229793 0.0034,-8.935061 0.009,-17.870119 0.01632,-26.805176 -0.175775,0.09447 -0.35155,0.188927 -0.532652,0.286253 -0.231724,0.120972 -0.463447,0.241952 -0.702192,0.366594 -0.229218,0.12118 -0.458437,0.242371 -0.694601,0.367228 -0.861583,0.358718 -1.416478,0.275866 -2.281173,-0.04839 -0.121462,-1.032412 -0.121462,-1.032412 0,-2.267258 1.186143,-1.299108 2.134205,-1.818181 3.886725,-1.943362 0.02004,-0.280572 0.04007,-0.561145 0.06074,-0.850221 0.31801,-1.320963 0.861338,-2.1642911 1.882633,-3.036504 0.92285,-0.4382426 1.862273,-0.6774813 2.854313,-0.9109504 0.24905,-0.065762 0.498101,-0.1315195 0.754698,-0.1992709 5.757935,-1.4722818 12.280652,-1.2753821 18.09187,-0.1853533 z"
       fill="#fcfefc"
       id="path5"
       style="stroke-width:0.323894" />
    <path
       d="m 57.21243,7.6893794 c 0.406246,0.066803 0.812492,0.1336066 1.231049,0.2024341 3.871309,0.7075284 3.871309,0.7075284 5.246826,2.3887165 0.08016,0.374096 0.160327,0.748194 0.24292,1.133627 0.485285,1.358797 0.769643,1.43695 2.024336,2.04458 0.287254,0.122331 0.574507,0.244665 0.870465,0.370706 0.749005,0.337812 0.749005,0.337812 1.396791,0.985598 0.04048,1.174116 0.04048,1.174116 0,2.267258 -1.562686,0.520894 -2.437005,0.01645 -3.886724,-0.647788 0.0012,0.363777 0.0025,0.727553 0.0037,1.102353 0.02875,8.847457 0.05004,17.694905 0.06351,26.542398 0.0067,4.278564 0.01579,8.557098 0.03061,12.835644 0.01291,3.728749 0.02126,7.457474 0.02417,11.186247 0.0018,1.974751 0.0056,3.949438 0.01509,5.924166 0.0088,1.858282 0.0115,3.716471 0.0095,5.574772 3.56e-4,0.682353 0.003,1.364709 0.0079,2.047045 0.0065,0.931288 0.0049,1.862233 0.0014,2.793531 0.0038,0.270334 0.0076,0.540669 0.01138,0.819195 -0.02075,2.01897 -0.620564,3.173168 -2.037501,4.649544 -1.041723,0.538839 -2.040034,0.513592 -3.185988,0.508892 -0.246637,0.0026 -0.493276,0.0055 -0.747388,0.0083 -0.814386,0.0076 -1.628577,0.0079 -2.442996,0.0075 -0.567174,0.0023 -1.134348,0.0048 -1.70152,0.0075 -1.188749,0.0044 -2.377428,0.0049 -3.566182,0.003 -1.521234,-0.0019 -3.042133,0.0079 -4.563303,0.02109 -1.171501,0.0085 -2.342921,0.0093 -3.514447,0.0081 -0.5607,6.48e-4 -1.121403,0.0037 -1.682074,0.0094 -0.785449,0.0072 -1.570221,0.0041 -2.355669,-0.0016 -0.230241,0.0042 -0.460481,0.0086 -0.6977,0.01303 -1.819246,-0.03059 -2.561204,-0.590773 -3.794589,-1.831789 -0.537055,-1.074107 -0.366853,-2.274747 -0.362844,-3.455456 -2.77e-4,-0.294181 -5.51e-4,-0.588356 -8.42e-4,-0.891449 -5.51e-4,-0.991683 0.0012,-1.983345 0.003,-2.975023 9.2e-5,-0.708505 4.1e-5,-1.41701 -1.43e-4,-2.12551 -9.3e-5,-1.928546 0.0018,-3.857084 0.0041,-5.785624 0.0019,-2.013548 0.0022,-4.027094 0.0026,-6.040642 9.07e-4,-3.38128 0.003,-6.762555 0.0057,-10.143831 0.003,-3.483124 0.0053,-6.966246 0.0066,-10.44937 8.5e-5,-0.214608 1.71e-4,-0.429217 2.58e-4,-0.650327 4.22e-4,-1.076596 8.43e-4,-2.153197 0.0012,-3.229793 0.0034,-8.935061 0.009,-17.870119 0.01632,-26.805176 -0.175775,0.09447 -0.35155,0.188927 -0.532652,0.286253 -0.231724,0.120972 -0.463447,0.241952 -0.702192,0.366594 -0.229218,0.12118 -0.458437,0.242371 -0.694601,0.367228 -0.861583,0.358718 -1.416478,0.275866 -2.281173,-0.04839 -0.121462,-1.032412 -0.121462,-1.032412 0,-2.267258 1.186143,-1.299108 2.134205,-1.818181 3.886725,-1.943362 0.02004,-0.280572 0.04007,-0.561145 0.06074,-0.850221 0.31801,-1.320963 0.861338,-2.1642911 1.882633,-3.036504 C 36.434397,8.5467123 37.37382,8.3074736 38.36586,8.0740045 38.61491,8.0082422 38.863961,7.942485 39.120558,7.8747336 44.878493,6.4024518 51.40121,6.5993515 57.212428,7.6893803 Z M 39.074379,9.3088486 c -0.45781,0.1221228 -0.45781,0.1221228 -0.924868,0.2467159 -1.221886,0.3671479 -2.167143,0.6813095 -2.961856,1.6966465 -0.56165,2.03496 0.143808,3.597787 1.128655,5.363867 1.547702,3.078893 1.452787,6.084848 1.420583,9.464236 0.0021,0.663929 0.005,1.327855 0.009,1.991777 0.0078,1.787883 0.0019,3.575482 -0.0064,5.363353 -0.0063,1.874196 5.18e-4,3.748342 0.006,5.622534 0.0085,3.542884 0.0056,7.085663 -0.0014,10.628542 -0.0098,5.212017 -0.0021,10.424016 0.0049,15.636034 0.001,0.767954 0.0019,1.535909 0.003,2.303865 4.86e-4,0.374693 10e-4,0.749386 0.0015,1.135432 0.0026,2.231608 0.0021,4.463195 -0.0011,6.694803 -0.0018,1.382262 -0.0026,2.764528 -0.0031,4.146789 -5.82e-4,0.643341 -0.0018,1.286677 -0.0035,1.930015 -0.0023,0.874047 -0.0028,1.748071 -0.0028,2.622121 -0.0012,0.257875 -0.0025,0.515749 -0.0037,0.781439 -0.104875,1.148428 -0.104875,1.148428 0.363609,2.106333 0.672183,0.03391 1.34553,0.04488 2.018564,0.04704 0.210668,0.001 0.421336,0.0023 0.638388,0.0033 0.699662,0.0031 1.399303,0.0037 2.098973,0.0041 0.484524,0.001 0.969048,0.0023 1.453573,0.0033 1.016992,0.0019 2.033976,0.0026 3.050969,0.0023 1.305244,-3.3e-5 2.610431,0.0044 3.915662,0.0099 1.001114,0.0035 2.002213,0.0042 3.003333,0.0041 0.481306,3.23e-4 0.962614,0.0019 1.443915,0.0042 0.672385,0.0031 1.344645,0.0023 2.017031,2.88e-4 0.383099,3.24e-4 0.766198,10e-4 1.160905,0.0014 0.94524,0.01302 0.94524,0.01302 1.547377,-0.727676 0.06304,-0.880682 0.08522,-1.728368 0.0793,-2.609365 0.0011,-0.409382 0.0011,-0.409382 0.0022,-0.827031 0.0018,-0.919961 -0.0012,-1.839852 -0.0039,-2.75981 3.57e-4,-0.657524 10e-4,-1.315049 0.0019,-1.972573 0.0015,-1.419186 0.0012,-2.838358 -5.83e-4,-4.257544 -0.0025,-2.246044 10e-4,-4.492057 0.0056,-6.738097 0.01224,-6.388112 0.01812,-12.776203 0.01437,-19.164324 -0.0019,-3.525717 0.0018,-7.051382 0.01175,-10.577082 0.006,-2.23039 0.005,-4.460625 -0.0014,-6.691011 -0.0022,-1.392379 0.0023,-2.784677 0.0087,-4.177042 0.0016,-0.642882 5.18e-4,-1.285777 -0.0035,-1.928648 -0.02091,-3.505716 0.01397,-6.442803 1.828866,-9.5541 0.160328,-0.160327 0.160328,-0.160327 0.323895,-0.323894 0.270014,-2.306923 0.270014,-2.306923 -0.566814,-4.372566 C 58.038092,8.5438014 53.159267,8.2143651 48.69014,8.2359899 c -0.570774,0.00172 -0.570774,0.00172 -1.15308,0.00342 -2.926793,0.03648 -5.632277,0.3126947 -8.462515,1.0694983 z"
       fill="#b6d9b9"
       id="path11"
       style="stroke-width:0.323894" />
    <path
       d="m 57.21243,7.6893794 c 0.406246,0.066803 0.812492,0.1336066 1.231049,0.2024341 3.871309,0.7075284 3.871309,0.7075284 5.246826,2.3887165 0.08016,0.374096 0.160327,0.748194 0.24292,1.133627 0.485285,1.358797 0.769643,1.43695 2.024336,2.04458 0.287254,0.122331 0.574507,0.244665 0.870465,0.370706 0.749005,0.337812 0.749005,0.337812 1.396791,0.985598 0.04048,1.174116 0.04048,1.174116 0,2.267258 -1.562686,0.520894 -2.437005,0.01645 -3.886724,-0.647788 0.0012,0.363777 0.0025,0.727553 0.0037,1.102353 0.02875,8.847457 0.05004,17.694905 0.06351,26.542398 0.0067,4.278564 0.01579,8.557098 0.03061,12.835644 0.01291,3.728749 0.02126,7.457474 0.02417,11.186247 0.0018,1.974751 0.0056,3.949438 0.01509,5.924166 0.0088,1.858282 0.0115,3.716471 0.0095,5.574772 3.56e-4,0.682353 0.003,1.364709 0.0079,2.047045 0.0065,0.931288 0.0049,1.862233 0.0014,2.793531 0.0038,0.270334 0.0076,0.540669 0.01138,0.819195 -0.02075,2.01897 -0.620564,3.173168 -2.037501,4.649544 -1.041723,0.538839 -2.040034,0.513592 -3.185988,0.508892 -0.246637,0.0026 -0.493276,0.0055 -0.747388,0.0083 -0.814386,0.0076 -1.628577,0.0079 -2.442996,0.0075 -0.567174,0.0023 -1.134348,0.0048 -1.70152,0.0075 -1.188749,0.0044 -2.377428,0.0049 -3.566182,0.003 -1.521234,-0.0019 -3.042133,0.0079 -4.563303,0.02109 -1.171501,0.0085 -2.342921,0.0093 -3.514447,0.0081 -0.5607,6.48e-4 -1.121403,0.0037 -1.682074,0.0094 -0.785449,0.0072 -1.570221,0.0041 -2.355669,-0.0016 -0.230241,0.0042 -0.460481,0.0086 -0.6977,0.01303 -1.819246,-0.03059 -2.561204,-0.590773 -3.794589,-1.831789 -0.537055,-1.074107 -0.366853,-2.274747 -0.362844,-3.455456 -2.77e-4,-0.294181 -5.51e-4,-0.588356 -8.42e-4,-0.891449 -5.51e-4,-0.991683 0.0012,-1.983345 0.003,-2.975023 9.2e-5,-0.708505 4.1e-5,-1.41701 -1.43e-4,-2.12551 -9.3e-5,-1.928546 0.0018,-3.857084 0.0041,-5.785624 0.0019,-2.013548 0.0022,-4.027094 0.0026,-6.040642 9.07e-4,-3.38128 0.003,-6.762555 0.0057,-10.143831 0.003,-3.483124 0.0053,-6.966246 0.0066,-10.44937 8.5e-5,-0.214608 1.71e-4,-0.429217 2.58e-4,-0.650327 4.22e-4,-1.076596 8.43e-4,-2.153197 0.0012,-3.229793 0.0034,-8.935061 0.009,-17.870119 0.01632,-26.805176 -0.175775,0.09447 -0.35155,0.188927 -0.532652,0.286253 -0.231724,0.120972 -0.463447,0.241952 -0.702192,0.366594 -0.229218,0.12118 -0.458437,0.242371 -0.694601,0.367228 -0.861583,0.358718 -1.416478,0.275866 -2.281173,-0.04839 -0.121462,-1.032412 -0.121462,-1.032412 0,-2.267258 1.186143,-1.299108 2.134205,-1.818181 3.886725,-1.943362 0.02004,-0.280572 0.04007,-0.561145 0.06074,-0.850221 0.31801,-1.320963 0.861338,-2.1642911 1.882633,-3.036504 C 36.434397,8.5467123 37.37382,8.3074736 38.36586,8.0740045 38.61491,8.0082422 38.863961,7.942485 39.120558,7.8747336 44.878493,6.4024518 51.40121,6.5993515 57.212428,7.6893803 Z M 39.074379,9.3088486 c -0.452173,0.1108481 -0.452173,0.1108481 -0.913481,0.2239415 -1.61998,0.4557825 -2.362896,0.8978399 -3.297138,2.3672079 -0.189179,1.007467 -0.173498,1.999458 -0.162337,3.022108 -0.0018,0.30554 -0.0035,0.611082 -0.0054,0.925884 -0.0044,1.02449 4.53e-4,2.048726 0.0053,3.073212 -0.0012,0.734216 -0.003,1.468429 -0.0053,2.202642 -0.0045,1.994892 -9.07e-4,3.989697 0.0044,5.984586 0.0045,2.086552 0.0025,4.1731 0.0012,6.259656 -8.75e-4,3.504569 0.0034,7.009095 0.01101,10.513656 0.0078,3.604594 0.01004,7.209143 0.0066,10.813747 -0.0041,4.344857 -0.0033,8.68967 0.0018,13.034527 0.0018,1.659075 0.0018,3.318133 3.01e-4,4.977211 -0.0016,1.95374 0.0018,3.907419 0.0087,5.861149 0.0018,0.717341 0.0019,1.434688 3.23e-4,2.152031 -0.0019,0.978677 0.0021,1.957154 0.0078,2.935816 -0.0019,0.284353 -0.0039,0.568705 -0.0059,0.861674 0.01678,1.617255 0.188975,2.752233 1.103148,4.144924 1.200017,0.80001 1.817809,0.735202 3.251352,0.747027 0.346193,0.0041 0.346193,0.0041 0.69938,0.0082 0.763534,0.0078 1.526979,0.01065 2.290548,0.01279 0.531328,0.003 1.062655,0.0059 1.593982,0.0088 1.114428,0.0054 2.228823,0.0078 3.343264,0.0088 1.425746,0.0016 2.851193,0.01393 4.276857,0.02873 1.097863,0.0097 2.195655,0.012 3.293557,0.01232 0.525451,0.0014 1.050899,0.0054 1.576306,0.01212 0.736611,0.0087 1.472535,0.0071 2.209171,0.0031 0.418547,0.0016 0.837091,0.0033 1.268319,0.005 1.371016,-0.240225 2.247052,-0.7129 3.080436,-1.818727 0.283215,-1.029097 0.261179,-2.025785 0.244596,-3.087949 0.0028,-0.312613 0.0056,-0.625225 0.0084,-0.947309 0.007,-1.048482 9.1e-5,-2.096412 -0.0067,-3.144888 0.0021,-0.751224 0.005,-1.502446 0.0087,-2.253663 0.0075,-2.041058 0.0027,-4.081923 -0.0046,-6.122975 -0.0061,-2.133977 -0.0026,-4.267938 -3.56e-4,-6.401923 0.0026,-3.813185 -0.0052,-7.626284 -0.01651,-11.43945 -0.01004,-3.457952 -0.01077,-6.915802 -0.0046,-10.373761 0.0079,-4.443571 0.0076,-8.887056 3.88e-4,-13.330628 -0.0026,-1.69759 -0.0019,-3.395134 0.0014,-5.092723 0.0034,-1.997912 -0.0011,-3.99565 -0.01187,-5.993534 -0.0027,-0.734324 -0.0026,-1.468665 4.86e-4,-2.202989 0.0037,-1.000302 -0.0026,-2.000059 -0.01138,-3.000319 0.0034,-0.292541 0.0067,-0.585082 0.01028,-0.88649 -0.01787,-1.661094 -0.01787,-1.661094 -0.987056,-2.978773 C 61.06259,9.9358941 60.308659,9.6560597 59.31783,9.4301289 58.871919,9.3236633 58.871919,9.3236633 58.417,9.2150443 55.156125,8.5916405 52.013614,8.2196889 48.690066,8.2357707 c -0.570775,0.00172 -0.570775,0.00172 -1.153081,0.00342 -2.928991,0.036505 -5.6294,0.3179256 -8.462514,1.0694983 z"
       fill="#679e6c"
       id="path21"
       style="stroke-width:0.323894" />
    <path
       d="m 61.592575,11.45844 c 0.157821,0.145714 0.315644,0.291429 0.478249,0.441558 -0.138859,1.735741 -0.417929,2.914221 -1.619469,4.210619 -1.121173,0.186862 -1.942824,0.06413 -3.049709,-0.154672 -2.640362,-0.513307 -5.228639,-0.592856 -7.906772,-0.577568 -0.72408,0.0034 -1.447899,9e-6 -2.171971,-0.0042 -2.596911,-0.0023 -5.058257,0.167573 -7.600749,0.736351 -1.255088,0.202434 -1.255088,0.202434 -2.267256,0 -0.974701,-1.024304 -1.534654,-2.114066 -1.781415,-3.502101 0.203544,-0.890509 0.413757,-1.118969 1.133627,-1.680199 0.972947,-0.296059 0.972947,-0.296059 2.125553,-0.526327 0.374515,-0.07766 0.74903,-0.155317 1.134893,-0.235329 6.088844,-1.0037292 16.06852,-2.2473502 21.525019,1.291772 z"
       fill="#5aa563"
       id="path33"
       style="stroke-width:0.323894" />
    <path
       d="m 48.770948,61.314039 c 0.486931,-0.0097 0.486931,-0.0097 0.9837,-0.01961 0.312931,2.1e-4 0.625862,4.17e-4 0.948275,6.34e-4 0.285557,-6.01e-4 0.571115,-0.0012 0.865324,-0.0018 1.09034,0.225487 1.445445,0.544557 2.081349,1.458077 0.128931,0.897645 0.181983,1.664179 0.172069,2.560784 0.0012,0.246716 0.0025,0.493431 0.0038,0.747621 8.75e-4,0.52052 -0.0015,1.041054 -0.007,1.561547 -0.007,0.795667 -6.2e-5,1.590388 0.0082,2.386027 -8.42e-4,0.506508 -0.0026,1.013015 -0.005,1.519517 0.0026,0.237216 0.0053,0.474433 0.0079,0.718838 -0.01993,1.086834 -0.107825,1.738332 -0.735364,2.639029 -0.872555,0.587608 -1.346131,0.665213 -2.391326,0.670562 -0.312931,0.0018 -0.625861,0.0033 -0.948274,0.005 -0.324623,-0.005 -0.649244,-0.01004 -0.983703,-0.01518 -0.325873,0.005 -0.651747,0.01004 -0.987496,0.01518 -0.312513,-0.0018 -0.625027,-0.0033 -0.947009,-0.005 -0.285193,-0.0015 -0.570384,-0.003 -0.864218,-0.0044 C 45.22835,75.38315 45.22835,75.38315 44.65007,74.889798 c -0.556073,-1.133943 -0.532364,-2.209186 -0.522453,-3.445246 -9.23e-4,-0.254673 -0.0018,-0.509345 -0.0028,-0.771734 -6.48e-4,-0.537125 0.0011,-1.074259 0.0052,-1.611368 0.0053,-0.822537 4.2e-5,-1.64456 -0.0061,-2.46708 6.47e-4,-0.522323 0.0018,-1.044644 0.0038,-1.566963 -0.0019,-0.245972 -0.0039,-0.491946 -0.006,-0.745372 0.01268,-0.94877 0.02372,-1.67368 0.528413,-2.494199 1.235599,-0.709629 2.735287,-0.483585 4.120868,-0.473821 z"
       fill="#bcdebc"
       id="path37"
       style="stroke-width:0.323894" />
    <path
       d="m 48.770948,25.685726 c 0.486931,-0.0097 0.486931,-0.0097 0.9837,-0.01961 0.312931,2.1e-4 0.625862,4.18e-4 0.948275,6.33e-4 0.285557,-6e-4 0.571115,-0.0012 0.865324,-0.0018 1.09034,0.225487 1.445445,0.544557 2.081349,1.458076 0.128931,0.897646 0.181983,1.66418 0.172069,2.560784 0.0012,0.246716 0.0025,0.493431 0.0038,0.747621 8.75e-4,0.520521 -0.0015,1.041054 -0.007,1.561547 -0.007,0.795667 -6.2e-5,1.590388 0.0082,2.386027 -8.42e-4,0.506509 -0.0026,1.013016 -0.005,1.519518 0.0026,0.237216 0.0053,0.474432 0.0079,0.718837 -0.01999,1.090272 -0.106918,1.737992 -0.740504,2.63903 -0.847323,0.574606 -1.288258,0.665063 -2.303947,0.670563 -0.296856,0.0018 -0.593712,0.0033 -0.899564,0.005 -0.307714,-0.005 -0.615425,-0.01004 -0.932461,-0.01518 -0.461568,0.0075 -0.461568,0.0075 -0.93246,0.01518 -0.445285,-0.0025 -0.445285,-0.0025 -0.899564,-0.005 -0.269927,-0.0015 -0.539853,-0.003 -0.817959,-0.0044 -1.066116,-0.238013 -1.421103,-0.566986 -2.046476,-1.463216 -0.124934,-0.924138 -0.174367,-1.720397 -0.160682,-2.643024 -4.86e-4,-0.254673 -9.23e-4,-0.509344 -0.0015,-0.771734 5.5e-4,-0.537135 0.0042,-1.074275 0.01101,-1.611368 0.0094,-0.822576 0.0066,-1.644475 0.0025,-2.467081 0.0019,-0.522324 0.0048,-1.044646 0.0082,-1.566963 -9.23e-4,-0.245971 -0.0019,-0.491945 -0.003,-0.745371 0.017,-0.948226 0.03245,-1.674713 0.537433,-2.494199 1.23481,-0.710053 2.735113,-0.483579 4.120144,-0.473818 z"
       fill="#baddba"
       id="path39"
       style="stroke-width:0.323894" />
    <path
       d="m 62.718623,11.899998 c 0.106882,0 0.21377,0 0.323893,0 0.106883,19.559943 0.21377,39.119889 0.323895,59.272558 0.106882,0 0.213769,0 0.323893,0 0.106882,-18.170439 0.21377,-36.34088 0.323894,-55.06194 0.320655,0.106882 0.64131,0.21377 0.971681,0.323895 -0.21377,0 -0.42754,0 -0.647786,0 0.0012,0.363777 0.0025,0.727553 0.0037,1.102353 0.02875,8.847456 0.05004,17.694905 0.06351,26.542397 0.0067,4.278565 0.01579,8.557099 0.03061,12.835645 0.01291,3.728749 0.02126,7.457474 0.02417,11.186247 0.0018,1.974751 0.0056,3.949437 0.01509,5.924166 0.0088,1.858282 0.0115,3.71647 0.0095,5.574771 3.56e-4,0.682353 0.003,1.36471 0.0079,2.047044 0.0065,0.93129 0.0049,1.862234 0.0014,2.793533 0.0038,0.270334 0.0076,0.540669 0.01138,0.819195 -0.02076,2.019374 -0.621537,3.172257 -2.036859,4.650189 -1.045752,0.539509 -2.047532,0.50769 -3.196908,0.497966 -0.247679,0.0016 -0.495358,0.0034 -0.750543,0.0052 -0.817513,0.0042 -1.634821,0.0014 -2.452337,-0.0019 -0.568726,6.47e-4 -1.137451,0.0016 -1.706176,0.003 -1.191471,0.0014 -2.382872,-6.47e-4 -3.574336,-0.0052 -1.527032,-0.0055 -3.053897,-0.0023 -4.580923,0.0034 -1.174246,0.0035 -2.348454,0.0023 -3.522703,-1.23e-4 -0.563035,-6.48e-4 -1.126073,1.46e-4 -1.689105,0.0023 -0.787001,0.0026 -1.573735,-0.0014 -2.360719,-0.0067 -0.232569,0.0019 -0.465138,0.0039 -0.704756,0.006 -1.01003,-0.01285 -1.685842,-0.0838 -2.573126,-0.584903 -0.493076,-0.518311 -0.493076,-0.518311 -0.493076,-1.166099 0.320654,-0.106882 0.641309,-0.21377 0.971682,-0.323893 0.320653,0.21377 0.641309,0.42754 0.971681,0.647788 1.056678,0.103589 1.056678,0.103589 2.28481,0.0941 0.231316,0.0023 0.462632,0.0042 0.700956,0.0066 0.765096,0.0061 1.530101,0.0075 2.295219,0.0081 0.532104,0.0019 1.064208,0.0042 1.59631,0.0065 1.115789,0.0039 2.231546,0.0052 3.347341,0.0046 1.428642,-6.8e-5 2.857073,0.0088 4.285665,0.01992 1.09924,0.0072 2.198428,0.0086 3.297688,0.0082 0.526614,6.47e-4 1.053229,0.0037 1.57982,0.0087 0.737381,0.0064 1.47431,0.0045 2.211697,6.47e-4 0.419265,10e-4 0.838529,0.0019 1.270499,0.003 1.350629,-0.197197 1.798376,-0.447352 2.717602,-1.455945 0.243531,-1.008624 0.219316,-1.999633 0.207045,-3.033122 0.0041,-0.465908 0.0041,-0.465908 0.0082,-0.941225 0.0071,-1.043492 0.0027,-2.086619 -0.0018,-3.130123 0.0027,-0.746896 0.0063,-1.493788 0.01028,-2.240678 0.0091,-2.03025 0.0083,-4.060388 0.0057,-6.09065 -10e-4,-2.120766 0.0071,-4.241496 0.01424,-6.362248 0.01102,-3.56039 0.01589,-7.120753 0.01671,-10.681158 8.57e-4,-3.667227 0.0052,-7.334422 0.01392,-11.001634 8.13e-4,-0.339073 8.13e-4,-0.339073 0.0016,-0.684994 0.0027,-1.134013 0.0055,-2.268027 0.0084,-3.402039 0.02348,-9.40775 0.03514,-18.815493 0.03939,-28.223269 z"
       fill="#7caf81"
       id="path51"
       style="stroke-width:0.323894" />
    <path
       d="m 63.042516,13.84336 c 0.320654,0 0.64131,0 0.971682,0 0,0.320654 0,0.64131 0,0.971681 0.233811,0.0334 0.467621,0.0668 0.708518,0.101215 0.990278,0.242068 1.682885,0.637408 2.530419,1.194357 0.106882,-0.427539 0.21377,-0.855079 0.323895,-1.295574 0.21377,0 0.42754,0 0.647786,0 0,0.748194 0,1.496389 0,2.267256 -0.647786,0.242921 -0.647786,0.242921 -1.619467,0.323895 -0.855081,-0.42754 -1.71016,-0.85508 -2.591151,-1.295577 0,19.8806 0,39.7612 0,60.244241 -0.106883,0 -0.21377,0 -0.323894,0 -0.106881,-1.603274 -0.21377,-3.206548 -0.323894,-4.858406 -0.106882,0 -0.21377,0 -0.323894,0 0,-19.02552 0,-38.05104 0,-57.653091 z"
       fill="#5e9662"
       id="path56"
       style="stroke-width:0.323894" />
    <path
       d="m 30.005353,13.519467 c 0.320655,0.106882 0.64131,0.21377 0.971682,0.323893 -0.160328,0.113566 -0.320656,0.227131 -0.485841,0.344138 -0.72249,0.933217 -0.550556,1.751484 -0.485841,2.894801 1.397085,-0.199584 2.520346,-0.516222 3.886726,-0.971682 0.106882,23.942228 0.21377,47.884454 0.323893,72.552204 -1.214326,-1.214328 -1.094898,-1.589966 -1.100826,-3.266823 -0.0022,-0.235331 -0.0042,-0.470663 -0.0065,-0.713126 -0.006,-0.791199 -0.0052,-1.58224 -0.0044,-2.373461 -0.003,-0.566762 -0.0063,-1.133522 -0.01004,-1.70028 -0.009,-1.544465 -0.012,-3.088892 -0.01388,-4.633378 -0.003,-1.625132 -0.0115,-3.250233 -0.01944,-4.875343 -0.01419,-3.091285 -0.02339,-6.182562 -0.03087,-9.27387 -0.0087,-3.474313 -0.02294,-6.948596 -0.03766,-10.422887 -0.04719,-11.224508 -0.0806,-22.448952 -0.072,-33.673567 -0.643148,0.09489 -1.286297,0.189782 -1.929446,0.284672 -0.661705,0.03922 -0.661705,0.03922 -1.633386,-0.284672 0,-1.175734 0,-2.351469 0,-3.562831 0.21377,0 0.42754,0 0.647788,0 0,-0.21377 0,-0.42754 0,-0.647788 z"
       fill="#cfead1"
       id="path61"
       style="stroke-width:0.323894" />
    <path
       d="m 48.770948,61.314039 c 0.486931,-0.0097 0.486931,-0.0097 0.9837,-0.01961 0.312931,2.1e-4 0.625862,4.17e-4 0.948275,6.34e-4 0.285557,-6.01e-4 0.571115,-0.0012 0.865324,-0.0018 1.09034,0.225487 1.445445,0.544557 2.081349,1.458077 0.128931,0.897645 0.181983,1.664179 0.172069,2.560784 0.0012,0.246716 0.0025,0.493431 0.0038,0.747621 8.75e-4,0.52052 -0.0015,1.041054 -0.007,1.561547 -0.007,0.795667 -6.2e-5,1.590388 0.0082,2.386027 -8.42e-4,0.506508 -0.0026,1.013015 -0.005,1.519517 0.0026,0.237216 0.0053,0.474433 0.0079,0.718838 -0.01993,1.086834 -0.107825,1.738332 -0.735364,2.639029 -0.872555,0.587608 -1.346131,0.665213 -2.391326,0.670562 -0.312931,0.0018 -0.625861,0.0033 -0.948274,0.005 -0.324623,-0.005 -0.649244,-0.01004 -0.983703,-0.01518 -0.325873,0.005 -0.651747,0.01004 -0.987496,0.01518 -0.312513,-0.0018 -0.625027,-0.0033 -0.947009,-0.005 -0.285193,-0.0015 -0.570384,-0.003 -0.864218,-0.0044 C 45.22835,75.38315 45.22835,75.38315 44.65007,74.889798 c -0.556073,-1.133943 -0.532364,-2.209186 -0.522453,-3.445246 -9.23e-4,-0.254673 -0.0018,-0.509345 -0.0028,-0.771734 -6.48e-4,-0.537125 0.0011,-1.074259 0.0052,-1.611368 0.0053,-0.822537 4.2e-5,-1.64456 -0.0061,-2.46708 6.47e-4,-0.522323 0.0018,-1.044644 0.0038,-1.566963 -0.0019,-0.245972 -0.0039,-0.491946 -0.006,-0.745372 0.01268,-0.94877 0.02372,-1.67368 0.528413,-2.494199 1.235599,-0.709629 2.735287,-0.483585 4.120868,-0.473821 z m -3.542588,1.437279 c -0.03269,0.83626 -0.04526,1.66367 -0.04302,2.500055 -3.11e-4,0.250395 -6.16e-4,0.500789 -9.24e-4,0.758771 -2.2e-4,0.530399 3.89e-4,1.0608 0.0018,1.591199 0.0018,0.814657 1.8e-5,1.629256 -0.0021,2.443911 2.14e-4,0.514097 6.16e-4,1.028195 0.0012,1.54229 -6.48e-4,0.24528 -0.0014,0.49056 -0.0019,0.743272 -0.09897,1.134958 -0.09897,1.134958 0.368897,2.080677 0.501892,0.03206 1.005216,0.04237 1.50813,0.04302 0.304372,4.21e-4 0.608744,8.42e-4 0.922339,0.0012 0.480355,-0.0018 0.480355,-0.0018 0.970416,-0.0038 0.320238,0.0012 0.640474,0.0025 0.970416,0.0038 0.456558,-6.15e-4 0.456558,-6.15e-4 0.922338,-0.0012 0.421798,-5.51e-4 0.421798,-5.51e-4 0.852118,-0.0011 0.65473,0.03069 0.65473,0.03069 0.979905,-0.365804 0.03269,-0.83626 0.04526,-1.663669 0.04302,-2.500055 3.09e-4,-0.250394 6.15e-4,-0.500789 9.24e-4,-0.75877 2.2e-4,-0.5304 -3.89e-4,-1.060802 -0.0018,-1.591199 -0.0018,-0.814658 -1.9e-5,-1.629257 0.0021,-2.443912 -2.13e-4,-0.514096 -6.15e-4,-1.028194 -0.0012,-1.542291 6.47e-4,-0.245279 0.0014,-0.490559 0.0019,-0.743271 0.09897,-1.134964 0.09897,-1.134964 -0.368897,-2.080683 -0.501891,-0.03206 -1.005216,-0.04237 -1.50813,-0.04302 -0.456558,-6.26e-4 -0.456558,-6.26e-4 -0.922338,-0.0012 -0.320238,0.0012 -0.640475,0.0025 -0.970417,0.0038 -0.320237,-0.0012 -0.640475,-0.0025 -0.970415,-0.0038 -0.456558,6.24e-4 -0.456558,6.24e-4 -0.92234,0.0012 -0.421797,5.47e-4 -0.421797,5.47e-4 -0.852117,0.0011 -0.654729,-0.03069 -0.654729,-0.03069 -0.979906,0.365802 z"
       fill="#6e9c72"
       id="path80"
       style="stroke-width:0.323894" />
    <path
       d="m 62.070835,10.604423 c 0.842726,0.842727 0.744341,1.238422 0.749004,2.40896 0.0054,0.313557 0.01089,0.627113 0.01645,0.950174 -0.136027,0.984361 -0.3145,1.229784 -1.089345,1.823165 -1.045503,0.697002 -1.387563,0.712847 -2.591151,0.647789 0.187049,-0.06012 0.374098,-0.12025 0.566814,-0.182191 1.061368,-0.678095 1.549446,-1.580256 2.024337,-2.732853 0.109636,-0.905198 0.109636,-0.905198 0,-1.619469 -6.425949,-2.9002059 -14.229732,-2.4723172 -21.073338,-1.518252 -0.273136,0.03805 -0.546271,0.0761 -0.827686,0.115292 -1.398523,0.227071 -2.566583,0.474831 -3.686583,1.40296 -0.135148,1.174437 -0.135148,1.174437 0,2.267257 -0.320656,0.106881 -0.64131,0.21377 -0.971681,0.323893 -0.0352,-0.512333 -0.06022,-1.025373 -0.08098,-1.538495 -0.01503,-0.285583 -0.03007,-0.571166 -0.04555,-0.865403 0.126521,-0.835039 0.126521,-0.835039 0.611097,-1.544822 1.108853,-0.8009349 2.17769,-1.0227585 3.503366,-1.2943103 0.237778,-0.053239 0.475554,-0.1064656 0.720536,-0.1613144 6.675182,-1.4629719 16.009992,-1.9570365 22.174704,1.5176197 z"
       fill="#e2f7e5"
       id="path82"
       style="stroke-width:0.323894" />
    <path
       d="m 48.770948,25.685726 c 0.486931,-0.0097 0.486931,-0.0097 0.9837,-0.01961 0.312931,2.1e-4 0.625862,4.18e-4 0.948275,6.33e-4 0.285557,-6e-4 0.571115,-0.0012 0.865324,-0.0018 1.09034,0.225487 1.445445,0.544557 2.081349,1.458076 0.128931,0.897646 0.181983,1.66418 0.172069,2.560784 0.0012,0.246716 0.0025,0.493431 0.0038,0.747621 8.75e-4,0.520521 -0.0015,1.041054 -0.007,1.561547 -0.007,0.795667 -6.2e-5,1.590388 0.0082,2.386027 -8.42e-4,0.506509 -0.0026,1.013016 -0.005,1.519518 0.0026,0.237216 0.0053,0.474432 0.0079,0.718837 -0.01999,1.090272 -0.106918,1.737992 -0.740504,2.63903 -0.847323,0.574606 -1.288258,0.665063 -2.303947,0.670563 -0.296856,0.0018 -0.593712,0.0033 -0.899564,0.005 -0.307714,-0.005 -0.615425,-0.01004 -0.932461,-0.01518 -0.461568,0.0075 -0.461568,0.0075 -0.93246,0.01518 -0.445285,-0.0025 -0.445285,-0.0025 -0.899564,-0.005 -0.269927,-0.0015 -0.539853,-0.003 -0.817959,-0.0044 -1.066116,-0.238013 -1.421103,-0.566986 -2.046476,-1.463216 -0.124934,-0.924138 -0.174367,-1.720397 -0.160682,-2.643024 -4.86e-4,-0.254673 -9.23e-4,-0.509344 -0.0015,-0.771734 5.5e-4,-0.537135 0.0042,-1.074275 0.01101,-1.611368 0.0094,-0.822576 0.0066,-1.644475 0.0025,-2.467081 0.0019,-0.522324 0.0048,-1.044646 0.0082,-1.566963 -9.23e-4,-0.245971 -0.0019,-0.491945 -0.003,-0.745371 0.017,-0.948226 0.03245,-1.674713 0.537433,-2.494199 1.23481,-0.710053 2.735113,-0.483579 4.120144,-0.473818 z m -3.542588,1.437279 c -0.0607,0.855455 -0.08282,1.676324 -0.07465,2.531684 1.48e-4,0.249937 2.96e-4,0.499873 4.52e-4,0.757382 10e-4,0.52847 0.0035,1.056938 0.0076,1.585392 0.0059,0.811798 0.0066,1.623476 0.0066,2.435292 0.0016,0.512622 0.0034,1.025243 0.0057,1.537863 3.56e-4,0.244264 7.12e-4,0.488528 0.0011,0.740192 -0.0921,1.130785 -0.0921,1.130785 0.377207,2.072371 0.501891,0.03206 1.005216,0.04237 1.50813,0.04302 0.304371,4.21e-4 0.608743,8.42e-4 0.922339,0.0012 0.480354,-0.0018 0.480354,-0.0018 0.970415,-0.0038 0.320238,0.0012 0.640474,0.0025 0.970417,0.0038 0.456557,-6.16e-4 0.456557,-6.16e-4 0.922337,-0.0012 0.421798,-5.51e-4 0.421798,-5.51e-4 0.85212,-0.0011 0.654728,0.0307 0.654728,0.0307 0.979903,-0.365803 0.0367,-0.832471 0.05318,-1.655911 0.0544,-2.488669 0.0011,-0.249625 0.0022,-0.499253 0.0033,-0.756442 0.0016,-0.529039 0.0025,-1.058082 0.0023,-1.587122 7.12e-4,-0.811136 0.0066,-1.622127 0.01273,-2.433237 9.23e-4,-0.513042 0.0016,-1.026084 0.0019,-1.539127 0.0023,-0.243608 0.0046,-0.487215 0.0071,-0.738206 0.04185,-1.369523 0.04185,-1.369523 -0.729498,-2.441273 -0.64786,-0.100234 -0.64786,-0.100234 -1.386672,-0.08603 -0.27264,-8.35e-4 -0.545279,-0.0018 -0.826181,-0.0026 -0.285166,0.0025 -0.570332,0.005 -0.864139,0.0076 -0.427747,-0.0038 -0.427747,-0.0038 -0.864138,-0.0076 -0.27264,8.36e-4 -0.54528,0.0018 -0.826182,0.0026 -0.375454,0.0011 -0.375454,0.0011 -0.758494,0.0022 -0.704833,0.02933 -0.704833,0.02933 -1.275963,0.731608 z"
       fill="#6b996f"
       id="path89"
       style="stroke-width:0.323894" />
    <path
       d="m 64.338093,16.434511 c 1.230507,0.232685 2.379514,0.558896 3.562831,0.971681 0,0.106882 0,0.21377 0,0.323894 -0.748195,0.213769 -1.49639,0.427539 -2.267257,0.647787 -0.531167,1.8604 -0.739211,3.498172 -0.721328,5.42706 -9.6e-5,0.273762 -1.93e-4,0.547525 -2.91e-4,0.829585 4.46e-4,0.91103 0.0055,1.821973 0.01052,2.732988 0.0012,0.655633 0.0022,1.311265 0.0029,1.966897 0.0021,1.408561 0.0061,2.817097 0.01175,4.225647 0.0088,2.226427 0.01258,4.452846 0.01563,6.679289 0.0072,4.723916 0.01985,9.447813 0.03305,14.171716 0.01426,5.104371 0.02759,10.208733 0.03461,15.31312 0.0031,2.214284 0.0097,4.428525 0.01841,6.642793 0.0048,1.375233 0.007,2.750463 0.0084,4.125703 0.0012,0.638754 0.0035,1.277506 0.0071,1.916249 0.0046,0.8703 0.0054,1.740515 0.005,2.610827 0.0023,0.254072 0.0046,0.508141 0.0071,0.769911 -0.0046,1.22258 -0.04009,2.160573 -0.728385,3.197056 -0.320654,-0.106882 -0.641309,-0.21377 -0.971681,-0.323893 0.105021,-0.155016 0.21005,-0.310033 0.318256,-0.469747 0.481344,-1.206284 0.422673,-2.3948 0.419727,-3.674507 0.0028,-0.436148 0.0028,-0.436148 0.0056,-0.881107 0.0055,-0.976246 0.0065,-1.952439 0.0074,-2.9287 0.003,-0.699027 0.0064,-1.398055 0.0099,-2.09708 0.0088,-1.899724 0.01375,-3.799441 0.01795,-5.699182 0.005,-1.984592 0.01374,-3.969163 0.02203,-5.953744 0.01517,-3.759001 0.02707,-7.518005 0.0378,-11.277019 0.01238,-4.279115 0.02838,-8.558217 0.04469,-12.837319 0.03348,-8.80329 0.06239,-17.60659 0.08829,-26.409905 z"
       fill="#ecfeed"
       id="path98"
       style="stroke-width:0.323894" />
    <path
       d="m 30.65314,14.815041 c 0.21377,0.106883 0.42754,0.21377 0.647788,0.323894 -0.106882,0.21377 -0.21377,0.42754 -0.323894,0.647787 0.199157,-0.07014 0.398313,-0.140286 0.603506,-0.212555 0.261783,-0.09018 0.523568,-0.180369 0.793286,-0.273285 0.25928,-0.09018 0.518559,-0.180369 0.785694,-0.273285 0.732557,-0.212556 0.732557,-0.212556 1.704238,-0.212556 -0.05238,0.209937 -0.104776,0.419876 -0.158743,0.636175 -0.210898,1.255678 -0.214849,2.491023 -0.216396,3.760257 -0.0016,0.279137 -0.0031,0.558275 -0.0049,0.845872 -0.005,0.934941 -0.0078,1.869876 -0.0104,2.804827 -0.003,0.670356 -0.0064,1.340711 -0.0097,2.011066 -0.0088,1.820073 -0.01555,3.640146 -0.02203,5.460227 -0.0071,1.90202 -0.01595,3.80403 -0.02463,5.706043 -0.01617,3.601839 -0.03072,7.203683 -0.04471,10.80553 -0.01599,4.100531 -0.03378,8.201052 -0.05172,12.301577 -0.03686,8.435187 -0.07146,16.870382 -0.104594,25.305586 -0.106881,0 -0.21377,0 -0.323893,0 0,-22.552723 0,-45.105445 0,-68.341585 -0.641311,0.320655 -0.641311,0.320655 -1.295575,0.647788 -1.01216,-0.04048 -1.01216,-0.04048 -1.943355,-0.323893 -0.445353,-0.668031 -0.445353,-0.668031 -0.647788,-1.295576 0.21377,-0.106882 0.42754,-0.21377 0.647787,-0.323894 z"
       fill="#5d9361"
       id="path123"
       style="stroke-width:0.323894" />
    <path
       d="m 49.054355,25.037938 c 0.323369,-0.01483 0.646738,-0.02965 0.979906,-0.04491 2.321302,-0.03558 2.321302,-0.03558 3.219801,0.583736 1.029497,1.176093 1.398713,2.165185 1.327996,3.68445 -0.03383,0.323159 -0.06763,0.646319 -0.102487,0.979273 -0.194403,2.109636 -0.190979,4.187395 -0.113162,6.302169 0.01447,0.726073 0.01447,0.726073 -0.06903,1.916635 -0.320656,0.21377 -0.64131,0.42754 -0.971682,0.647788 0,-4.168514 0,-8.337027 0,-12.631857 -1.494595,-0.498199 -2.989475,-0.38363 -4.554756,-0.384624 -0.330049,-0.0039 -0.660097,-0.0079 -1.000149,-0.012 -0.315018,-6.25e-4 -0.630036,-0.0012 -0.9546,-0.0018 -0.28895,-0.0014 -0.5779,-0.0027 -0.875605,-0.0041 -0.779547,0.01101 -0.779547,0.01101 -1.360022,0.726468 -0.07945,0.834283 -0.120947,1.636405 -0.134112,2.47222 -0.0063,0.243515 -0.01255,0.487029 -0.01901,0.737924 -0.01938,0.778807 -0.0344,1.557631 -0.04931,2.336535 -0.01236,0.5276 -0.02501,1.055193 -0.03796,1.58278 -0.03113,1.294255 -0.05834,2.588543 -0.0835,3.882928 -0.21377,0 -0.42754,0 -0.647788,0 -0.06446,-1.288668 -0.123766,-2.577527 -0.182191,-3.866481 -0.01817,-0.361782 -0.03632,-0.723561 -0.05504,-1.096305 -0.239078,-5.435017 -0.239078,-5.435017 0.86477,-6.859336 1.507761,-1.096553 3.005585,-0.917897 4.81792,-0.951438 z"
       fill="#e7fbe9"
       id="path142"
       style="stroke-width:0.323894" />
    <path
       d="m 53.00181,63.399107 c 0.21377,0 0.42754,0 0.647788,0 0.03207,1.498463 0.05556,2.996725 0.07118,4.49545 0.0065,0.509598 0.01534,1.019172 0.02656,1.528689 0.01576,0.733303 0.02308,1.466285 0.02878,2.199725 0.0067,0.227112 0.01337,0.454222 0.02026,0.688216 4.9e-4,1.070077 -0.08151,1.682248 -0.69715,2.570333 -0.893631,0.60157 -1.361108,0.653046 -2.430469,0.628177 -0.317315,-0.0042 -0.63463,-0.0083 -0.96156,-0.01265 -0.329004,-0.01089 -0.65801,-0.02172 -0.996984,-0.03289 -0.334017,-0.0059 -0.668032,-0.01163 -1.012169,-0.01771 -0.823537,-0.01525 -1.64646,-0.03654 -2.46969,-0.06326 -0.106882,-0.21377 -0.21377,-0.42754 -0.323894,-0.647788 0.647788,-0.647787 0.647788,-0.647787 1.34057,-0.716188 0.419254,0.0082 0.419254,0.0082 0.846979,0.01652 0.303327,0.0035 0.606655,0.0071 0.919174,0.01077 0.317524,0.0068 0.635047,0.01377 0.962193,0.02087 0.627941,0.01114 1.25591,0.02087 1.883898,0.0291 0.279137,0.0059 0.558275,0.01163 0.845871,0.01763 0.650381,0.04718 0.650381,0.04718 0.974766,-0.35038 0.05173,-0.768726 0.08396,-1.529162 0.102475,-2.298887 0.0067,-0.229595 0.01347,-0.45919 0.02039,-0.695742 0.02124,-0.735939 0.0403,-1.471916 0.05931,-2.207915 0.01398,-0.497865 0.02811,-0.995724 0.04238,-1.493581 0.03474,-1.222786 0.06754,-2.44561 0.09932,-3.668476 z"
       fill="#6a996d"
       id="path187"
       style="stroke-width:0.323894" />
    <path
       d="m 33.568184,11.576105 c 0.106882,0.427539 0.21377,0.855079 0.323893,1.295574 0.320655,0 0.64131,0 0.971681,0 0,0.64131 0,1.282619 0,1.943362 -0.832707,0.277571 -1.633987,0.481957 -2.489932,0.668032 -0.392677,0.0858 -0.392677,0.0858 -0.793286,0.173334 -0.199157,0.043 -0.398314,0.08601 -0.603506,0.130315 -0.106883,-0.213769 -0.21377,-0.427539 -0.323894,-0.647786 0,0.320654 0,0.641309 0,0.971681 0.42754,0.21377 0.855079,0.42754 1.295575,0.647787 -0.21377,0.21377 -0.42754,0.42754 -0.647787,0.647788 -0.850222,-0.121461 -0.850222,-0.121461 -1.619469,-0.323893 -0.121462,-1.032412 -0.121462,-1.032412 0,-2.267258 1.186142,-1.299108 2.134205,-1.818181 3.886725,-1.943362 0,-0.42754 0,-0.855079 0,-1.295574 z"
       fill="#6d9f70"
       id="path229"
       style="stroke-width:0.323894" />
    <path
       d="m 61.746942,9.6327419 c 0.437185,0.2049303 0.869178,0.4212651 1.295574,0.6477881 0.21377,0 0.42754,0 0.647788,0 0.04008,0.340695 0.08016,0.681391 0.121462,1.032411 0.251799,0.938525 0.467592,1.195559 1.290514,1.74599 0.815308,0.400745 1.631482,0.770705 2.474751,1.108324 0,0.971681 0,0.971681 -0.323894,1.943362 -1.619469,-0.647787 -1.619469,-0.647787 -3.238938,-1.295576 0,-0.320654 0,-0.641309 0,-0.971681 -0.320654,0 -0.64131,0 -0.971681,0 -0.12025,-0.601228 -0.12025,-0.601228 -0.24292,-1.214601 -0.29833,-1.219265 -0.700736,-1.872358 -1.700443,-2.6721236 0.213769,-0.1068819 0.427539,-0.21377 0.647787,-0.3238935 z"
       fill="#659f6a"
       id="path232"
       style="stroke-width:0.323894" />
    <path
       d="m 44.904466,27.446899 c 0.106882,0 0.21377,0 0.323894,0 0.106882,3.634088 0.21377,7.268175 0.323894,11.012387 2.137699,0.106882 4.275398,0.21377 6.477875,0.323895 0,0.106881 0,0.21377 0,0.323893 -0.413345,0.01963 -0.826688,0.03924 -1.252558,0.05947 -0.54067,0.02734 -1.081336,0.05475 -1.622,0.08224 -0.272639,0.01273 -0.545279,0.02546 -0.826181,0.03859 -0.260949,0.01356 -0.5219,0.02714 -0.790756,0.04112 -0.240857,0.01187 -0.481714,0.02375 -0.729868,0.03598 -0.637435,0.03397 -0.637435,0.03397 -1.256512,0.390396 -0.640197,-0.423845 -0.640197,-0.423845 -1.295575,-1.295575 -0.187528,-1.195176 -0.150617,-2.376148 -0.121462,-3.583074 4.17e-4,-0.319612 8.34e-4,-0.639223 0.0012,-0.968519 0.02605,-2.210331 0.30659,-4.300641 0.767981,-6.460795 z"
       fill="#79a87c"
       id="path234"
       style="stroke-width:0.323894" />
    <path
       d="m 45.434194,60.947999 c 0.334147,0.0084 0.668292,0.01697 1.012564,0.02569 0.362197,0.0053 0.724396,0.0104 1.097569,0.01581 0.567096,0.02036 0.567096,0.02036 1.145648,0.04112 0.572732,0.01101 0.572732,0.01101 1.157035,0.02215 0.944047,0.01911 1.887273,0.04576 2.830906,0.07908 -0.106882,0.21377 -0.21377,0.42754 -0.323893,0.647787 -0.212465,-0.0034 -0.42493,-0.0067 -0.643834,-0.01028 -0.959491,-0.01344 -1.918962,-0.02189 -2.87851,-0.03021 -0.50165,-0.0082 -0.50165,-0.0082 -1.013433,-0.01645 -0.319403,-0.0021 -0.638805,-0.0042 -0.967885,-0.0064 -0.295135,-0.0034 -0.590268,-0.0067 -0.894346,-0.01028 -0.793373,0.0027 -0.793373,0.0027 -1.375443,0.721328 -0.05678,0.929214 -0.07494,1.826737 -0.06326,2.755627 0.0014,0.408408 0.0014,0.408408 0.0029,0.825065 0.0037,0.871305 0.01175,1.742503 0.01999,2.613777 0.0033,0.590007 0.0063,1.180018 0.0088,1.770028 0.0071,1.447863 0.01833,2.895646 0.03164,4.343467 -0.320654,0 -0.641309,0 -0.971681,0 -0.41308,-2.103049 -0.329523,-4.161865 -0.263321,-6.290862 0.02037,-0.692172 0.03378,-1.384265 0.04697,-2.076605 0.01265,-0.443469 0.02571,-0.886926 0.03923,-1.330368 0.01052,-0.399801 0.02108,-0.799603 0.03195,-1.211518 0.197911,-1.465043 0.411794,-2.54233 1.970484,-2.878037 z"
       fill="#ddf4df"
       id="path244"
       style="stroke-width:0.323894" />
    <path
       d="m 40.693848,8.0132727 c 0.106882,0.3206543 0.21377,0.6413097 0.323893,0.9716813 -0.312304,0.074735 -0.624608,0.1494719 -0.946377,0.2264731 -0.409169,0.1056332 -0.818337,0.211264 -1.239905,0.3200972 -0.405829,0.1014588 -0.811658,0.2029152 -1.229785,0.3074467 -1.256603,0.496103 -1.699748,0.932408 -2.414021,2.061027 -0.106882,0.320654 -0.21377,0.64131 -0.323893,0.971681 -0.320654,0 -0.64131,0 -0.971681,0 -0.158476,-1.331198 -0.05792,-1.854788 0.688274,-2.9960173 1.675114,-1.6022832 3.844971,-1.862389 6.113495,-1.862389 z"
       fill="#68976b"
       id="path258"
       style="stroke-width:0.323894" />
    <path
       d="m 43.284997,8.984954 c -0.320655,0.1068819 -0.64131,0.2137699 -0.971681,0.3238934 0.748195,0.1068819 1.496389,0.2137698 2.267256,0.3238945 0,0.1068819 0,0.21377 0,0.3238935 -0.296348,0.036517 -0.296348,0.036517 -0.598682,0.07378 -0.900864,0.113236 -1.80088,0.232227 -2.700985,0.351333 -0.466265,0.0573 -0.466265,0.0573 -0.941949,0.11577 -2.25712,0.269159 -2.25712,0.269159 -4.179621,1.402486 -0.135148,1.174437 -0.135148,1.174437 0,2.267255 -0.320656,0.106882 -0.641311,0.21377 -0.971682,0.323895 -0.03519,-0.512334 -0.06022,-1.025375 -0.08098,-1.538495 -0.01503,-0.285584 -0.03007,-0.571167 -0.04555,-0.865405 0.126522,-0.835038 0.126522,-0.835038 0.607302,-1.54229 1.124825,-0.8121809 2.224934,-1.0511795 3.56789,-1.337327 0.245919,-0.058662 0.491838,-0.117324 0.74521,-0.1777623 1.237763,-0.2785503 2.068862,-0.4253081 3.303463,-0.044914 z"
       fill="#cdf3d0"
       id="path260"
       style="stroke-width:0.323894" />
    <path
       d="m 60.127473,10.928317 c 1.578983,0.607301 1.578983,0.607301 1.943364,0.971681 -0.10195,1.733064 -0.426287,2.923237 -1.61947,4.210618 -0.898754,0.149793 -1.387942,0.136473 -2.267256,0 -0.333597,-0.0501 -0.667196,-0.10021 -1.010902,-0.151825 -0.96104,-0.153947 -1.918616,-0.319924 -2.875823,-0.495961 0.106881,-0.320656 0.21377,-0.64131 0.323893,-0.971682 1.347846,-0.02643 2.574065,0.0056 3.886726,0.323893 0,0.21377 0,0.42754 0,0.647789 0.823505,-0.07913 0.823505,-0.07913 1.619468,-0.647789 0.349834,-1.061806 0.510879,-2.131403 0.647789,-3.238936 -0.21377,0 -0.42754,0 -0.647789,0 0,-0.21377 0,-0.42754 0,-0.647788 z"
       fill="#6ca373"
       id="path261"
       style="stroke-width:0.323894" />
    <path
       d="m 54.621279,7.6893794 c 2.413034,-0.1447821 4.840891,0.1718752 7.125663,0.9716813 0.947642,0.8464259 0.947642,0.8464259 1.619469,1.6194693 -0.971682,0 -0.971682,0 -1.619469,-0.3238946 C 61.161654,9.879329 60.576097,9.8037077 59.989565,9.7364888 58.302471,9.5265627 56.624563,9.2486392 54.945172,8.984954 54.83829,8.5574142 54.731402,8.1298745 54.621279,7.6893794 Z"
       fill="#659869"
       id="path263"
       style="stroke-width:0.323894" />
    <path
       d="m 52.677916,25.179643 c 1.04132,0.996043 1.717793,1.812918 1.943363,3.238937 -0.02832,0.608476 -0.07829,1.216076 -0.141703,1.821903 -0.194404,2.109636 -0.19098,4.187395 -0.113162,6.302169 0.01447,0.726072 0.01447,0.726072 -0.06903,1.916635 -0.320656,0.21377 -0.64131,0.427541 -0.971682,0.647787 0,-4.168512 0,-8.337025 0,-12.631857 -0.903749,-0.30125 -1.543449,-0.384458 -2.483607,-0.426376 -0.289132,-0.01356 -0.578264,-0.02714 -0.876159,-0.04112 -0.300822,-0.01273 -0.601645,-0.02546 -0.911583,-0.03859 -0.30458,-0.014 -0.609161,-0.02797 -0.922971,-0.04238 -0.751698,-0.03434 -1.503432,-0.0674 -2.255236,-0.09932 0,-0.106882 0,-0.21377 0,-0.323894 0.708437,-0.05503 1.416976,-0.108743 2.125552,-0.161946 0.591834,-0.04509 0.591834,-0.04509 1.195624,-0.09109 2.391621,-0.139657 2.391621,-0.139657 3.480593,-0.07085 z"
       fill="#d9f1db"
       id="path266"
       style="stroke-width:0.323894" />
    <path
       d="m 36.483228,11.25221 c 0.21377,0.21377 0.427539,0.42754 0.647788,0.647788 -0.01065,0.883807 -0.182668,1.715555 -0.323895,2.591149 0.320656,-0.106882 0.64131,-0.21377 0.971682,-0.323893 0.106881,0.21377 0.213769,0.42754 0.323894,0.647787 0.258026,-0.02338 0.516054,-0.04677 0.781899,-0.07085 0.343201,-0.03007 0.686402,-0.06012 1.040003,-0.09109 0.338191,-0.03007 0.676381,-0.06012 1.02482,-0.09109 0.998372,-0.06802 1.983069,-0.08286 2.983366,-0.07085 -0.647788,0.971682 -0.647788,0.971682 -1.41071,1.208276 -0.932029,0.15041 -1.863863,0.288198 -2.79991,0.411193 -0.414179,0.0668 -0.828359,0.133606 -1.255088,0.202434 -1.188656,-0.237732 -1.308149,-0.427301 -1.963606,-1.396793 -0.555637,-1.03268 -0.912545,-1.828615 -0.668031,-3.01626 0.21377,-0.21377 0.42754,-0.42754 0.647788,-0.647788 z"
       fill="#6ba374"
       id="path281"
       style="stroke-width:0.323894" />
    <path
       d="m 50.83577,61.354526 c 1.110221,0.0088 1.424137,0.03236 2.34823,0.708518 0.465598,0.688274 0.465598,0.688274 0.465598,1.336062 -0.21377,0 -0.427539,0 -0.647788,0 0,3.420318 0,6.840636 0,10.3646 -0.106882,0 -0.21377,0 -0.323894,0 -0.106882,-3.634087 -0.21377,-7.268176 -0.323894,-11.012388 -2.137699,-0.106881 -4.275398,-0.21377 -6.477875,-0.323893 0,-0.106883 0,-0.21377 0,-0.323894 0.230053,-0.01963 0.460106,-0.03924 0.697131,-0.05947 0.446536,-0.0407 0.446536,-0.0407 0.902095,-0.08225 0.296856,-0.02631 0.593713,-0.0526 0.899565,-0.0797 0.941732,-0.130394 1.431421,-0.495582 2.460832,-0.527592 z"
       fill="#7cac80"
       id="path290"
       style="stroke-width:0.323894" />
    <path
       d="m 53.325705,62.427425 c 0.213769,0 0.427539,0 0.647788,0 0.813504,2.197435 0.755205,4.358359 0.749004,6.680309 0.0053,0.393304 0.0104,0.786607 0.01581,1.191827 2.08e-4,0.379109 4.18e-4,0.758216 6.32e-4,1.148811 0.0015,0.515193 0.0015,0.515193 0.003,1.040795 -0.136064,1.072639 -0.478374,1.690917 -1.09227,2.570115 -0.21377,-0.106882 -0.42754,-0.21377 -0.647787,-0.323893 0.106882,-0.21377 0.213769,-0.42754 0.323893,-0.647788 0.02809,-0.874168 0.03743,-1.739857 0.03163,-2.613924 -4.58e-4,-0.257893 -9.17e-4,-0.515786 -0.0014,-0.781494 -0.0018,-0.825065 -0.0059,-1.650101 -0.01004,-2.475157 -0.0016,-0.558801 -0.003,-1.117601 -0.0044,-1.676402 -0.0035,-1.371078 -0.0091,-2.742133 -0.01581,-4.113199 z"
       fill="#e1f6e2"
       id="path295"
       style="stroke-width:0.323894" />
    <path
       d="m 54.297386,8.6610607 c 0.783182,0.091567 1.565706,0.1864954 2.34823,0.2834065 0.220867,0.025475 0.441735,0.050937 0.669296,0.077184 1.162958,0.1467812 2.129957,0.3176024 3.136455,0.9349895 -0.106882,0.3206553 -0.21377,0.6413093 -0.323894,0.9716803 -1.923928,-0.320654 -3.847857,-0.641309 -5.830087,-0.9716803 0,-0.4275399 0,-0.8550796 0,-1.2955747 z"
       fill="#d2f7d6"
       id="path359"
       style="stroke-width:0.323894" />
    <path
       d="m 44.580572,74.735388 c 0.320655,0.160328 0.320655,0.160328 0.647789,0.323893 0.587354,0.02744 1.175715,0.03473 1.763703,0.03164 0.348627,-10e-4 0.697256,-0.0021 1.056449,-0.0031 0.547994,-0.0041 0.547994,-0.0041 1.107059,-0.0082 0.551751,-0.0022 0.551751,-0.0022 1.11465,-0.0044 0.910546,-0.0038 1.821059,-0.0091 2.731589,-0.01581 -1.005543,1.119605 -1.729254,1.17576 -3.238938,1.295576 -1.649265,0.05917 -3.250991,0.104752 -4.858407,-0.323894 -0.106882,-0.42754 -0.21377,-0.85508 -0.323894,-1.295575 z"
       fill="#e0f5e1"
       id="path373"
       style="stroke-width:0.323894" />
    <path
       d="m 33.568184,11.576105 c 0.106882,0.427539 0.21377,0.855079 0.323893,1.295574 0.320655,0 0.64131,0 0.971681,0 0,0.64131 0,1.282619 0,1.943362 -0.832707,0.277571 -1.633987,0.481957 -2.489932,0.668032 -0.392677,0.0858 -0.392677,0.0858 -0.793286,0.173334 -0.199157,0.043 -0.398314,0.08601 -0.603506,0.130315 0,-0.213769 0,-0.427539 0,-0.647786 1.42015,-0.971681 1.42015,-0.971681 2.267257,-0.971681 -0.106882,-0.21377 -0.21377,-0.42754 -0.323895,-0.647788 -0.655765,-0.211223 -0.655765,-0.211223 -1.295575,-0.323893 0.64131,-0.106882 1.282619,-0.21377 1.943363,-0.323895 0,-0.42754 0,-0.855079 0,-1.295574 z"
       fill="#72aa77"
       id="path393"
       style="stroke-width:0.323894" />
    <path
       d="m 63.042516,15.786722 c 0.320654,0.106883 0.64131,0.213771 0.971682,0.323894 0.01757,0.776096 0.03038,1.551788 0.04048,2.327987 0.0054,0.218153 0.01089,0.436307 0.01645,0.661073 0.01283,1.314866 -0.121645,2.3066 -0.704723,3.488816 -0.106882,0 -0.21377,0 -0.323893,0 0,-2.244585 0,-4.489168 0,-6.80177 z"
       fill="#56915a"
       id="path422"
       style="stroke-width:0.323894" />
    <path
       d="m 43.932785,8.6610607 c 0,0.2137699 0,0.4275397 0,0.6477879 1.48459,-0.044963 2.969065,-0.093049 4.45354,-0.1417045 0.632541,-0.019097 0.632541,-0.019097 1.277862,-0.038585 0.404992,-0.013576 0.809987,-0.02714 1.227253,-0.041119 0.373158,-0.011875 0.746316,-0.023749 1.130782,-0.035978 0.810323,-0.055014 1.501353,-0.157091 2.275164,-0.3903962 0,0.3206543 0,0.6413097 0,0.9716814 -4.061628,0 -8.123256,0 -12.307963,0 0.45111,-0.902221 0.967962,-0.9716814 1.943362,-0.9716814 z"
       fill="#e6fee8"
       id="path444"
       style="stroke-width:0.323894" />
    <path
       d="m 38.750485,9.9566354 c 0,0.2137696 0,0.4275396 0,0.6477876 -0.551125,0.23047 -0.551125,0.23047 -1.113385,0.465597 -1.075296,0.388259 -1.075296,0.388259 -1.477765,0.829978 -0.01326,0.755636 -0.01374,1.511628 0,2.267256 -0.320654,0.106882 -0.641311,0.21377 -0.971682,0.323894 -0.199496,-2.903784 -0.199496,-2.903784 0.506085,-4.089159 1.055869,-0.5956175 1.865182,-0.5370131 3.056747,-0.4453536 z"
       fill="#d8f9db"
       id="path464"
       style="stroke-width:0.323894" />
    <path
       d="m 40.693848,8.0132727 c 0.106882,0.3206543 0.21377,0.6413097 0.323893,0.9716813 -0.505164,0.1647911 -1.011485,0.3260431 -1.518252,0.4858407 -0.422738,0.1352764 -0.422738,0.1352764 -0.854017,0.2732851 -0.864698,0.212072 -1.599954,0.2508768 -2.486137,0.2125556 0.222676,-0.6224833 0.222676,-0.6224833 0.647787,-1.2955747 0.749005,-0.2682245 0.749005,-0.2682245 1.61947,-0.4048683 0.287252,-0.048428 0.574505,-0.096868 0.870463,-0.1467639 0.749005,-0.096158 0.749005,-0.096158 1.396793,-0.096158 z"
       fill="#609464"
       id="path474"
       style="stroke-width:0.323894" />
    <path
       d="m 66.605349,13.84336 c 0.427539,0.21377 0.855079,0.42754 1.295574,0.647788 -0.21377,0.534425 -0.42754,1.06885 -0.647787,1.619468 -1.079647,-0.431857 -2.159291,-0.863716 -3.238938,-1.295575 0,-0.21377 0,-0.427539 0,-0.647787 0.85508,0.106882 1.710159,0.21377 2.591151,0.323894 0,-0.213769 0,-0.427539 0,-0.647788 z"
       fill="#69a56e"
       id="path572"
       style="stroke-width:0.323894" />
    <path
       d="m 64.338093,16.434511 c 1.232851,0.217562 2.381289,0.559515 3.562831,0.971681 0,0.106882 0,0.21377 0,0.323894 -0.961965,0 -1.923929,0 -2.915044,0 -0.106882,0.427539 -0.21377,0.855079 -0.323895,1.295575 -0.106881,0 -0.213769,0 -0.323892,0 0,-0.855079 0,-1.710159 0,-2.59115 z"
       fill="#ddf9df"
       id="path641"
       style="stroke-width:0.323894" />
    <path
       d="m 34.539865,86.07167 c 0.719659,0.719659 0.94771,1.32305 1.295575,2.267256 -0.641309,0.320656 -0.641309,0.320656 -1.295575,0.647788 -0.697001,-1.045502 -0.712846,-1.387564 -0.647788,-2.591151 0.21377,-0.106882 0.42754,-0.21377 0.647788,-0.323893 z"
       fill="#6da370"
       id="path668"
       style="stroke-width:0.323894" />
    <path
       d="m 33.568184,16.434511 c 0,1.923929 0,3.847857 0,5.830088 -0.106882,0 -0.21377,0 -0.323893,0 -0.106882,-1.603275 -0.21377,-3.206549 -0.323895,-4.858407 -0.534424,0 -1.068849,0 -1.619468,0 1.174114,-0.971681 1.174114,-0.971681 2.267256,-0.971681 z"
       fill="#e1fce4"
       id="path704"
       style="stroke-width:0.323894" />
    <path
       d="m 66.605349,13.519467 c 0.801636,0.160327 0.801636,0.160327 1.619468,0.323893 0,0.21377 0,0.42754 0,0.647788 0.21377,0 0.42754,0 0.647787,0 0,0.85508 0,1.710159 0,2.591151 -0.320654,0 -0.64131,0 -0.971681,0 0.02672,-0.347377 0.05345,-0.694753 0.08098,-1.052655 0.03639,-1.227589 0.03639,-1.227589 -0.72876,-2.004094 -0.213771,-0.167007 -0.427541,-0.334015 -0.647789,-0.506083 z"
       fill="#e5fae7"
       id="path717"
       style="stroke-width:0.323894" />
    <path
       d="m 61.746942,9.6327419 c 0.437185,0.2049303 0.869178,0.4212651 1.295574,0.6477881 0.21377,0 0.42754,0 0.647788,0 0.106882,0.42754 0.21377,0.855079 0.323894,1.295575 -0.42754,0.106881 -0.855079,0.213769 -1.295575,0.323893 -0.534425,-0.64131 -1.068849,-1.282619 -1.619469,-1.9433626 0.21377,-0.1068819 0.427539,-0.21377 0.647788,-0.3238935 z"
       fill="#77a57b"
       id="path736"
       style="stroke-width:0.323894" />
    <path
       d="m 60.77526,8.6610607 c 1.050092,0.1135168 1.494859,0.182097 2.206527,0.991924 0.126926,0.2070897 0.253851,0.4141793 0.384624,0.6275453 -0.971682,0 -0.971682,0 -1.619469,-0.3238946 -0.53967,-0.012854 -1.079833,-0.0142 -1.619469,0 0.213769,-0.1068819 0.427539,-0.21377 0.647787,-0.3238935 0,-0.3206553 0,-0.6413096 0,-0.9716812 z"
       fill="#6d9e72"
       id="path748"
       style="stroke-width:0.323894" />
    <path
       d="m 67.57703,14.815041 c 0.21377,0 0.42754,0 0.647787,0 0,0.748194 0,1.496389 0,2.267256 -0.534425,0.106882 -1.068849,0.21377 -1.619468,0.323895 0.320655,-0.85508 0.641309,-1.710159 0.971681,-2.591151 z"
       fill="#699c6f"
       id="path766"
       style="stroke-width:0.323894" />
    <path
       d="m 41.665529,10.604423 c 0,0.106882 0,0.21377 0,0.323894 -1.923929,0.160327 -1.923929,0.160327 -3.886725,0.323894 0,-0.21377 0,-0.42754 0,-0.647788 1.378383,-0.375923 2.48864,-0.24672 3.886725,0 z"
       fill="#629c67"
       id="path809"
       style="stroke-width:0.323894" />
    <path
       d="m 38.750485,8.0132727 c -1.160929,0.6036825 -2.359467,1.1069247 -3.562832,1.6194692 -0.320654,0.1603265 -0.320654,0.1603265 -0.647787,0.3238935 0.04048,-0.6073012 0.04048,-0.6073012 0.323894,-1.2955747 1.31404,-0.6111818 2.450392,-0.7161845 3.886725,-0.647788 z"
       fill="#d6eed7"
       id="path810"
       style="stroke-width:0.323894" />
    <path
       d="m 60.127473,10.928317 c 1.578983,0.607301 1.578983,0.607301 1.943364,0.971681 0.01316,0.539662 0.01383,1.079823 0,1.619469 -0.42754,-0.21377 -0.85508,-0.427539 -1.295575,-0.647788 0,-0.42754 0,-0.855079 0,-1.295574 -0.21377,0 -0.42754,0 -0.647789,0 0,-0.21377 0,-0.42754 0,-0.647788 z"
       fill="#75a57c"
       id="path836"
       style="stroke-width:0.323894" />
    <path
       d="m 61.746942,12.547786 c -0.106883,0.748193 -0.21377,1.496388 -0.323894,2.267255 -0.320655,0 -0.641309,0 -0.971681,0 0.121461,-0.951437 0.121461,-0.951437 0.323893,-1.943362 0.647788,-0.323893 0.647788,-0.323893 0.971682,-0.323893 z"
       fill="#67a271"
       id="path866"
       style="stroke-width:0.323894" />
    <path
       d="m 33.568184,13.519467 c -0.689183,0.758101 -1.333024,1.200675 -2.267256,1.619469 -0.21377,-0.21377 -0.427539,-0.42754 -0.647788,-0.647788 0.847886,-0.97507 1.662691,-1.597857 2.915044,-0.971681 z"
       fill="#639e66"
       id="path867"
       style="stroke-width:0.323894" />
    <path
       d="m 35.835441,15.786722 c 0.644866,0.967299 0.952653,1.812793 1.295575,2.915045 -0.42754,-0.106882 -0.855079,-0.21377 -1.295575,-0.323894 0,-0.855079 0,-1.710159 0,-2.591151 z"
       fill="#c6dcc6"
       id="path895"
       style="stroke-width:0.323894" />
    <path
       d="m 64.014198,11.576105 c 0.21377,0 0.42754,0 0.647787,0 0.323894,0.323893 0.647787,0.647787 0.971682,0.971681 0.680143,0.380817 0.680143,0.380817 1.295574,0.647788 -0.971681,0.323893 -0.971681,0.323893 -2.004092,-0.141705 -0.300614,-0.167006 -0.601228,-0.334014 -0.910951,-0.506083 0,-0.320656 0,-0.64131 0,-0.971681 z"
       fill="#daf1db"
       id="path929"
       style="stroke-width:0.323894" />
    <path
       d="m 50.41066,25.179643 c 2.112784,-0.119589 2.112784,-0.119589 2.894801,0.48584 0.113567,0.160328 0.227131,0.320654 0.344137,0.485841 -0.106882,0.320654 -0.21377,0.64131 -0.323893,0.971681 0,-0.21377 0,-0.42754 0,-0.647788 -0.961965,-0.320654 -1.923929,-0.64131 -2.915045,-0.971681 0,-0.106882 0,-0.21377 0,-0.323893 z"
       fill="#e3f7e4"
       id="path956"
       style="stroke-width:0.323894" />
    <path
       d="m 64.014198,14.167254 c 1.397253,0.15525 1.997029,0.565452 2.915043,1.619468 -0.961964,-0.320655 -1.923928,-0.641309 -2.915043,-0.971681 0,-0.21377 0,-0.427539 0,-0.647787 z"
       fill="#a7e7ac"
       id="path957"
       style="stroke-width:0.323894" />
    <path
       d="m 33.568184,14.167254 c 0,0.21377 0,0.42754 0,0.647787 -1.862389,0.971681 -1.862389,0.971681 -2.59115,0.971681 0,-0.213769 0,-0.427539 0,-0.647787 0.941069,-0.661291 1.425593,-0.971681 2.59115,-0.971681 z"
       fill="#a1e2a6"
       id="path958"
       style="stroke-width:0.323894" />
    <path
       d="m 35.511547,11.576105 c 0.106881,0 0.213769,0 0.323893,0 0.106882,0.855079 0.21377,1.710158 0.323895,2.59115 -0.320656,0.106881 -0.641311,0.21377 -0.971682,0.323893 -0.03163,-1.992706 -0.03163,-1.992706 0,-2.59115 0.106883,-0.106882 0.21377,-0.21377 0.323894,-0.323893 z"
       fill="#e4fdea"
       id="path960"
       style="stroke-width:0.323894" />
    <path
       d="m 45.552254,72.792025 c 0.21377,0.320655 0.42754,0.64131 0.647788,0.971681 1.155553,0.238408 1.155553,0.238408 2.267256,0.323894 0,0.106882 0,0.21377 0,0.323895 -0.961965,0 -1.923929,0 -2.915044,0 -0.106882,-0.42754 -0.213769,-0.85508 -0.323893,-1.295577 0.106881,-0.106882 0.21377,-0.21377 0.323893,-0.323893 z"
       fill="#afe1b2"
       id="path987"
       style="stroke-width:0.323894" />
    <path
       d="m 44.256679,37.487605 c 0.106881,0.21377 0.21377,0.42754 0.323893,0.647788 0.213769,0.100197 0.427539,0.200409 0.647788,0.30365 0.647787,0.344138 0.647787,0.344138 0.971681,1.315819 -0.789492,-0.222677 -0.789492,-0.222677 -1.619469,-0.647788 -0.263164,-0.85022 -0.263164,-0.85022 -0.323893,-1.619469 z"
       fill="#739c75"
       id="path994"
       style="stroke-width:0.323894" />
  </g>
</svg>
