<?xml version="1.0" encoding="UTF-8" standalone="no"?>
<!-- Created with Inkscape (http://www.inkscape.org/) -->

<svg
   width="96mm"
   height="96mm"
   viewBox="0 0 96 96"
   version="1.1"
   id="svg1"
   inkscape:version="1.4.2 (ebf0e940, 2025-05-08)"
   sodipodi:docname="start.svg"
   xmlns:inkscape="http://www.inkscape.org/namespaces/inkscape"
   xmlns:sodipodi="http://sodipodi.sourceforge.net/DTD/sodipodi-0.dtd"
   xmlns="http://www.w3.org/2000/svg"
   xmlns:svg="http://www.w3.org/2000/svg">
  <sodipodi:namedview
     id="namedview1"
     pagecolor="#ffffff"
     bordercolor="#000000"
     borderopacity="0.25"
     inkscape:showpageshadow="2"
     inkscape:pageopacity="0.0"
     inkscape:pagecheckerboard="0"
     inkscape:deskcolor="#d1d1d1"
     inkscape:document-units="mm"
     inkscape:zoom="0.80444024"
     inkscape:cx="397.17059"
     inkscape:cy="262.91574"
     inkscape:window-width="1920"
     inkscape:window-height="1052"
     inkscape:window-x="0"
     inkscape:window-y="28"
     inkscape:window-maximized="0"
     inkscape:current-layer="layer1" />
  <defs
     id="defs1" />
  <g
     inkscape:label="Layer 1"
     inkscape:groupmode="layer"
     id="layer1">
    <path
       d="m 67.853357,15.906875 c 7.199391,5.081923 12.200475,11.90567 15.022879,20.234171 0.07315,0.214808 0.146286,0.429617 0.221645,0.650934 1.98958,6.200835 1.876821,14.297588 0.10422,20.530282 -0.110895,0.399898 -0.221792,0.799793 -0.336048,1.211809 -2.677619,8.756536 -8.280261,16.283424 -15.957195,21.272865 -0.294461,0.191547 -0.588925,0.383094 -0.892309,0.580446 -2.620549,1.617011 -5.317198,2.707647 -8.231906,3.655797 -0.399059,0.135681 -0.798115,0.271358 -1.209266,0.411151 -6.098322,1.859289 -13.96349,1.63414 -19.97195,-0.411151 C 36.240495,83.925142 35.877563,83.807106 35.503632,83.685491 26.154318,80.370533 18.445351,73.543862 14.066642,64.641332 9.5367814,54.918079 8.7413158,44.266664 12.387594,34.124757 15.999442,24.77378 23.081345,17.007881 32.213163,12.800975 c 2.90235,-1.245127 5.873217,-2.051426 8.952372,-2.729119 0.256788,-0.05728 0.513576,-0.1145762 0.778146,-0.1735924 8.867696,-1.5863885 18.50275,1.1372094 25.909676,6.0086114 z"
       fill="#fcfefc"
       id="path2"
       style="stroke-width:0.325865" />
    <path
       d="m 67.886452,23.106452 c 0.21507,0 0.430141,0 0.65173,0 0.437371,1.894386 0.817258,3.788419 1.134163,5.706454 0.09009,0.535791 0.180198,1.071581 0.270333,1.607365 0.0699,0.417889 0.0699,0.417889 0.141194,0.844219 0.841884,5.027698 1.721561,10.047362 2.649819,15.059832 0.07377,0.398705 0.07377,0.398705 0.149041,0.805464 0.4565,2.464165 0.918942,4.926157 1.419184,7.381891 -0.263326,1.388447 -0.489883,1.544709 -1.588591,2.36252 -4.550706,2.88233 -9.769564,3.851839 -15.070772,2.914646 -1.990335,-0.478435 -3.906389,-1.178761 -5.824039,-1.887409 -4.870594,-1.696499 -9.651223,-1.285041 -14.304958,0.885945 -1.856465,0.830096 -1.856465,0.830096 -2.86532,2.44526 0.18809,0.866977 0.402368,1.696356 0.65173,2.54582 0.07213,0.254031 0.144238,0.508062 0.218543,0.76979 0.431296,1.496968 0.894322,2.981788 1.376413,4.46314 0.103538,0.318695 0.207089,0.637388 0.313772,0.965743 0.20412,0.623051 0.411085,1.245181 0.62118,1.866244 0.492792,1.495172 0.899963,2.782664 0.728741,4.379046 -0.346231,0.610997 -0.346231,0.610997 -0.977595,0.977595 -1.201627,0.0611 -1.201627,0.0611 -2.281054,0 -1.164086,-2.118845 -1.824468,-4.227063 -2.443986,-6.55803 -0.186548,-0.686561 -0.373243,-1.373084 -0.560081,-2.059568 -0.09488,-0.350673 -0.18976,-0.701341 -0.287517,-1.062641 -1.020469,-3.739038 -2.134829,-7.449223 -3.254255,-11.15949 -1.218612,-4.039951 -2.43135,-8.080134 -3.572199,-12.14287 -0.514863,-1.821828 -1.076134,-3.625916 -1.65383,-5.428719 -0.598747,-1.88103 -1.192544,-3.762641 -1.731157,-5.661904 -0.160674,-0.556998 -0.160674,-0.556998 -0.324591,-1.125251 -0.208275,-1.212303 -0.110784,-2.156142 0.141292,-3.355391 0.325865,-0.325864 0.325865,-0.325864 1.405293,-0.386963 1.201627,0.0611 1.201627,0.0611 1.836809,0.442973 0.330798,0.133578 0.330798,0.133578 0.668277,0.269856 0.739397,-0.29601 0.739397,-0.29601 1.466392,-0.835029 5.516373,-3.555538 11.918322,-4.28537 18.350901,-3.254194 1.830932,0.416318 3.56148,1.068271 5.309067,1.750172 1.843111,0.674445 3.486458,0.876193 5.443837,0.852292 0.285404,-0.0025 0.570809,-0.0049 0.864862,-0.0075 3.621408,-0.09167 7.860126,-1.304085 10.498401,-3.94236 0.141561,-0.141561 0.28312,-0.28312 0.428971,-0.42897 z"
       fill="#55a85e"
       id="path7"
       style="stroke-width:0.325865" />
    <path
       d="m 71.185833,14.919097 c 0.532675,0.444321 1.062225,0.892417 1.588592,1.344192 0.396326,0.330798 0.396326,0.330798 0.800659,0.668279 8.122587,6.996938 12.546145,16.788755 13.537393,27.3561 0.773644,11.235292 -2.63023,21.565311 -9.834499,30.176867 -5.173612,5.937688 -11.292234,9.879901 -18.739774,12.287397 -0.243531,0.07909 -0.487061,0.158152 -0.73797,0.239624 C 49.521631,89.535222 39.917488,88.942492 32.041317,85.346639 31.843416,85.259426 31.645515,85.17221 31.441618,85.08235 21.854157,80.819385 14.194217,72.811231 10.232078,63.098885 6.1949611,52.440252 6.202623,41.052771 10.891926,30.577476 c 3.410665,-7.282729 8.560689,-13.189035 15.283825,-17.572835 0.314204,-0.20751 0.62841,-0.415019 0.952137,-0.628817 2.772533,-1.723262 5.739568,-2.8985963 8.823807,-3.9332917 0.217066,-0.074562 0.434134,-0.1491215 0.657775,-0.2259411 11.352926,-3.7101063 25.330457,-0.5477769 34.576363,6.7025058 z m -51.955078,7.718925 c -7.0932,8.292463 -9.6162292,18.058755 -9.022384,28.818672 0.762901,8.829847 5.100506,16.797075 11.079407,23.136404 0.20331,0.224313 0.406616,0.448625 0.616089,0.679735 4.350335,4.624519 10.536997,7.776055 16.653474,9.263282 0.433959,0.105525 0.866058,0.219021 1.295823,0.340502 2.363685,0.61964 4.748201,0.599729 7.177937,0.592221 0.224874,-2.86e-4 0.449746,-6.51e-4 0.681434,-9.78e-4 3.508731,-0.01469 6.743357,-0.257289 10.072106,-1.424791 0.239383,-0.08039 0.478764,-0.160778 0.725399,-0.243604 9.827628,-3.351309 17.55723,-10.229377 22.143455,-19.536216 0.775557,-1.647003 1.429122,-3.325293 2.019073,-5.047009 0.07779,-0.223969 0.155581,-0.44794 0.235729,-0.678698 C 85.901561,49.29144 84.658539,38.518749 80.294774,29.959209 75.602186,21.124479 67.922032,14.338617 58.314729,11.34569 58.07931,11.274773 57.843893,11.203867 57.601342,11.130807 57.386298,11.065988 57.171253,11.001166 56.949692,10.934381 42.905378,6.9465166 28.892512,12.080966 19.230755,22.638022 Z"
       fill="#5ca265"
       id="path12"
       style="stroke-width:0.325865" />
    <path
       d="m 48.33456,32.230667 c 0.985704,0.754278 1.184714,1.600639 1.543961,2.752587 0.404996,1.188702 0.80887,2.218598 1.714687,3.11298 2.024176,0.879945 4.336252,0.930363 6.517298,0.977595 -0.302276,0.362004 -0.605927,0.722861 -0.91013,1.083247 -0.168943,0.201077 -0.337886,0.402156 -0.511948,0.609325 -0.507074,0.55974 -1.026081,1.03068 -1.612538,1.504978 -0.885784,0.621161 -0.885784,0.621161 -1.201627,1.364559 -0.215071,0 -0.430142,0 -0.65173,0 0.09788,0.412079 0.195748,0.824157 0.296587,1.248724 0.125307,0.540955 0.250468,1.081942 0.375509,1.622959 0.0649,0.271569 0.129799,0.543139 0.196664,0.822936 0.08979,0.392231 0.08979,0.392231 0.18139,0.792386 0.08447,0.360924 0.08447,0.360924 0.17065,0.729139 0.08265,0.649422 0.08265,0.649422 -0.243206,1.627016 -0.326386,-0.191966 -0.652773,-0.383933 -0.98905,-0.581718 -0.437276,-0.247688 -0.874743,-0.49504 -1.31237,-0.742107 -0.21402,-0.127067 -0.428042,-0.254135 -0.648548,-0.385056 -1.528996,-0.851116 -2.468426,-1.059586 -4.219058,-0.572172 -0.987873,0.441939 -0.987873,0.441939 -1.89409,0.997962 -1.632918,0.957227 -1.632918,0.957227 -2.342154,0.957227 0.04654,-0.658588 0.09432,-1.317091 0.142567,-1.975555 0.02646,-0.366714 0.05293,-0.733426 0.08019,-1.111251 0.103111,-1.149436 0.103111,-1.149436 0.408604,-2.289964 0.02273,-1.273193 -0.06026,-1.399574 -0.87449,-2.289964 -0.394521,-0.377275 -0.795804,-0.747578 -1.202899,-1.11125 -0.203518,-0.191758 -0.407038,-0.383515 -0.616724,-0.581083 -0.501577,-0.470946 -1.01095,-0.933562 -1.521763,-1.394473 1.065891,-0.710594 1.549334,-0.673544 2.785683,-0.675914 1.209098,-0.02871 2.303306,-0.09676 3.405749,-0.627546 1.343255,-1.441181 1.959615,-3.38801 2.606919,-5.213836 0.107533,-0.215071 0.215072,-0.430142 0.325864,-0.651731 z"
       fill="#fafefa"
       id="path31"
       style="stroke-width:0.325865" />
    <path
       d="m 56.481182,84.694908 c 0.322606,0 0.645213,0 0.977595,0 0.215071,0 0.430142,0 0.65173,0 0.215071,0.322606 0.430142,0.645213 0.651729,0.977595 0.215071,-0.215071 0.430142,-0.430141 0.65173,-0.65173 0.855395,0.122201 0.855395,0.122201 1.629325,0.325866 -1.308172,1.521228 -3.346403,1.867949 -5.274938,2.057022 -1.455806,-0.161757 -2.791198,-0.618114 -4.175143,-1.079428 -0.624897,-0.04869 -1.251146,-0.08085 -1.877543,-0.103111 -0.546603,-0.02048 -0.546603,-0.02048 -1.104248,-0.04137 -0.380365,-0.0128 -0.76073,-0.02562 -1.152619,-0.03882 -0.576218,-0.02111 -0.576218,-0.02111 -1.164077,-0.04264 -0.949339,-0.0346 -1.898706,-0.06784 -2.848135,-0.09992 0,-0.107533 0,-0.215071 0,-0.325865 0.63198,-0.02394 0.63198,-0.02394 1.276729,-0.04836 2.910651,-0.121401 5.742484,-0.297756 8.615052,-0.795568 1.07145,-0.166178 2.061407,-0.180675 3.142813,-0.133656 z"
       fill="#599c62"
       id="path151"
       style="stroke-width:0.325865" />
    <path
       d="m 45.890574,56.568698 c 0.257444,-0.0018 0.514889,-0.0035 0.780134,-0.0054 1.260993,0.0158 1.896165,0.04488 2.967312,0.758972 -0.35075,0.01596 -0.7015,0.03192 -1.06288,0.04836 -5.767993,0.112854 -5.767993,0.112854 -10.99412,2.225046 -0.802434,0.410621 -1.391865,0.392165 -2.281054,0.333503 3.049587,-2.541323 6.712232,-3.340406 10.590608,-3.360481 z"
       fill="#e6fce7"
       id="path271"
       style="stroke-width:0.325865" />
    <path
       d="m 26.175751,16.263289 c 0.215071,0.107533 0.430141,0.215071 0.65173,0.325865 -1.07283,1.351094 -2.070623,2.561148 -3.584514,3.421581 -2.216762,1.282035 -3.615037,3.297 -4.810326,5.518064 -0.512465,0.64826 -0.905652,0.716525 -1.706971,0.8363 2.093277,-3.900002 5.764605,-7.644826 9.450081,-10.10181 z"
       fill="#dcf4e0"
       id="path272"
       style="stroke-width:0.325865" />
    <path
       d="m 70.167507,31.904803 c 0.740129,1.110193 0.888668,1.933818 1.140527,3.238283 0.25692,1.327887 0.537659,2.404318 1.140526,3.604879 0.0522,0.663186 0.0522,0.663186 0.02037,1.323826 -0.09072,1.251916 -0.09072,1.251916 0.305498,2.260687 0.02247,0.671755 0.02759,1.344197 0.02037,2.016289 -0.0029,0.354111 -0.0059,0.708221 -0.0089,1.073062 -0.0039,0.270939 -0.0075,0.541878 -0.01145,0.821027 -0.776408,-1.164611 -0.926936,-2.23015 -1.143073,-3.581967 -0.04248,-0.255138 -0.08494,-0.510274 -0.128714,-0.773144 -0.08928,-0.539418 -0.177408,-1.07903 -0.264456,-1.618813 -0.13302,-0.823584 -0.269949,-1.646445 -0.407491,-2.469285 -0.08636,-0.524825 -0.172507,-1.049687 -0.2584,-1.574589 -0.04072,-0.245129 -0.08145,-0.490256 -0.123403,-0.742812 -0.192542,-1.203818 -0.329115,-2.357698 -0.281382,-3.577443 z"
       fill="#d5f0d8"
       id="path293"
       style="stroke-width:0.325865" />
    <path
       d="m 27.805076,51.130829 c 2.246881,3.370321 3.337306,8.371274 3.258647,12.382865 -0.107532,0 -0.215071,0 -0.325864,0 -0.09872,-0.386456 -0.197428,-0.772911 -0.299133,-1.171078 -0.137569,-0.53301 -0.275494,-1.065928 -0.413696,-1.598775 -0.07209,-0.278078 -0.144185,-0.556158 -0.218463,-0.842665 -0.547543,-2.080584 -1.162126,-4.131129 -1.859165,-6.166611 -0.50296,-1.521832 -0.50296,-1.521832 -0.142326,-2.603736 z"
       fill="#64a169"
       id="path306"
       style="stroke-width:0.325865" />
    <path
       d="m 32.693048,25.713371 c -0.35369,0.14954 -0.707381,0.299081 -1.07179,0.453155 -0.471019,0.201866 -0.941995,0.403839 -1.41293,0.605905 -0.232293,0.09787 -0.464586,0.195748 -0.703918,0.296589 -1.441113,0.621397 -2.702029,1.317478 -3.980388,2.228863 -0.168025,-0.107531 -0.336049,-0.21507 -0.509165,-0.325864 -1.048556,-0.430177 -1.953415,-0.369017 -3.075349,-0.325865 -0.215071,0.645213 -0.430142,1.290425 -0.65173,1.955189 -0.107532,0 -0.215071,0 -0.325865,0 0.285133,-2.566185 0.285133,-2.566185 0.65173,-2.932783 2.034786,-0.07825 2.034786,-0.07825 3.018068,0.234215 1.299645,0.133488 2.232268,-0.42881 3.356663,-1.008144 3.297448,-1.650336 3.297448,-1.650336 4.704674,-1.18126 z"
       fill="#e4fae8"
       id="path322"
       style="stroke-width:0.325865" />
    <path
       d="m 86.134885,39.073829 c 0.107531,0 0.21507,0 0.325864,0 0.456737,2.919856 0.720274,5.781264 0.733196,8.737251 0.0045,0.422949 0.0045,0.422949 0.0089,0.854441 -0.0012,0.264533 -0.0025,0.529066 -0.0039,0.801614 -7.37e-4,0.234736 -0.0015,0.469471 -0.0022,0.711319 -0.08433,0.62651 -0.08433,0.62651 -0.736059,1.604105 0,-3.010991 0,-6.021982 0,-9.124216 -0.215071,0 -0.430141,0 -0.651729,0 -0.04073,-2.484719 -0.04073,-2.484719 0.325865,-3.584514 z"
       fill="#629c6a"
       id="path330"
       style="stroke-width:0.325865" />
    <path
       d="m 45.748008,9.3997594 c 0.313155,0.00146 0.62631,0.00292 0.948954,0.00448 0.763132,0.00385 1.526218,0.00917 2.289329,0.015909 0,0.1075328 0,0.2150708 0,0.3258656 -0.378895,0.00833 -0.757789,0.016805 -1.148166,0.025463 -4.815155,0.15263 -9.359405,0.865515 -13.851802,2.66802 -0.641546,0.239307 -0.641546,0.239307 -1.293276,0.239307 0,-0.215071 0,-0.430142 0,-0.651731 4.356177,-1.946376 8.293473,-2.670361 13.054961,-2.627285 z"
       fill="#679e6d"
       id="path331"
       style="stroke-width:0.325865" />
    <path
       d="m 57.784641,39.399694 c 0.107533,0.322606 0.215071,0.645212 0.325865,0.977594 -0.180625,0.153323 -0.361252,0.306644 -0.547351,0.464612 -0.236073,0.20289 -0.472147,0.405779 -0.715375,0.614817 -0.234393,0.200367 -0.468787,0.400736 -0.710283,0.607178 -1.43737,1.347893 -1.400614,2.481866 -1.499488,4.343166 -0.112016,0.81339 -0.112016,0.81339 -0.763746,1.46512 -0.215071,-1.397962 -0.430142,-2.795921 -0.65173,-4.236243 0.215071,0 0.430141,0 0.65173,0 0.08065,-0.190708 0.161303,-0.381416 0.2444,-0.577901 0.467315,-0.832407 0.979922,-1.296867 1.710789,-1.906819 0.676693,-0.569716 1.329409,-1.125741 1.955189,-1.751524 z"
       fill="#61a069"
       id="path351"
       style="stroke-width:0.325865" />
    <path
       d="m 72.774425,73.941368 c 0.322606,0.107533 0.645212,0.215071 0.977595,0.325865 -2.167202,2.047716 -4.328113,3.921658 -6.843163,5.539703 -0.27976,0.188607 -0.55952,0.377214 -0.847757,0.571536 -0.257918,0.133999 -0.515834,0.267998 -0.781568,0.406059 -0.322605,-0.107533 -0.645212,-0.215071 -0.977594,-0.325865 0.430141,-0.107532 0.860283,-0.21507 1.30346,-0.325865 0,-0.215071 0,-0.430142 0,-0.651729 0.322605,0 0.645212,0 0.977594,0 0,-0.215071 0,-0.430142 0,-0.65173 1.428792,-0.977595 1.428792,-0.977595 2.281054,-0.977595 0.107533,-0.322607 0.215071,-0.645212 0.325865,-0.977595 0.322607,0 0.645212,0 0.977594,0 0.107532,-0.322606 0.215071,-0.645212 0.325866,-0.977594 0.322606,0 0.645212,0 0.977595,0 0,-0.215071 0,-0.430142 0,-0.651731 0.215071,0 0.430141,0 0.651729,0 0,-0.322605 0,-0.645212 0,-0.977594 0.215071,-0.107532 0.430141,-0.215071 0.65173,-0.325865 z"
       fill="#e2f9e6"
       id="path357"
       style="stroke-width:0.325865" />
    <path
       d="m 37.255156,71.986179 c 0.65173,0.325864 0.65173,0.325864 1.018327,1.201627 0.343071,1.298765 0.628018,2.429523 -0.0611,3.645613 -0.957968,0.556239 -1.830124,0.427859 -2.912417,0.366598 -0.215071,-0.537677 -0.430141,-1.075354 -0.65173,-1.629324 0.181466,0.107533 0.362932,0.215071 0.549897,0.325865 0.865976,0.433648 0.865976,0.433648 2.382887,0.325864 -0.107533,-1.397959 -0.215072,-2.79592 -0.325864,-4.236243 z"
       fill="#6ca372"
       id="path379"
       style="stroke-width:0.325865" />
    <path
       d="m 51.59321,56.996397 c 0.755001,0.235164 1.514779,0.456404 2.281053,0.65173 -0.107532,0.21507 -0.215071,0.430141 -0.325865,0.651729 -0.631481,-0.155668 -1.262817,-0.311923 -1.894089,-0.468431 -0.351591,-0.08695 -0.703181,-0.173905 -1.065425,-0.263493 -0.64914,-0.167715 -1.292408,-0.359519 -1.928458,-0.571535 -0.779647,-0.07351 -1.560659,-0.133113 -2.342154,-0.183299 -0.414599,-0.02731 -0.829198,-0.05461 -1.256361,-0.08274 -0.317985,-0.01974 -0.635972,-0.03949 -0.963594,-0.05983 0,-0.107533 0,-0.215071 0,-0.325866 5.423926,-0.803544 5.423926,-0.803544 7.494893,0.65173 z"
       fill="#70a976"
       id="path385"
       style="stroke-width:0.325865" />
    <path
       d="m 35.951696,66.446478 c 0.902402,0.769548 1.172522,1.407068 1.466392,2.545818 0.271814,0.999528 0.510166,1.72683 1.038694,2.627285 0.67184,1.59962 0.502489,3.216831 0.427698,4.928707 -0.645212,0.322606 -0.645212,0.322606 -1.303459,0.65173 0.215071,-0.322607 0.430142,-0.645213 0.651729,-0.977595 0.27257,-1.969939 -0.520246,-3.781881 -1.140526,-5.621169 -0.214631,-0.646379 -0.42852,-1.293006 -0.641547,-1.939914 -0.09556,-0.284486 -0.191127,-0.568971 -0.289588,-0.862077 -0.209393,-0.701055 -0.209393,-0.701055 -0.209393,-1.352785 z"
       fill="#e0f7e3"
       id="path394"
       style="stroke-width:0.325865" />
    <path
       d="m 86.460749,53.411882 c 0.107532,0 0.215071,0 0.325864,0 -0.02847,0.991602 -0.06331,1.982296 -0.10183,2.973517 -0.01108,0.418379 -0.01108,0.418379 -0.02228,0.845212 -0.07138,1.687061 -0.29767,2.846671 -1.179351,4.327892 -0.187815,0.418914 -0.372122,0.839456 -0.549896,1.262728 -0.141141,0.336047 -0.282281,0.672096 -0.427697,1.018327 -0.215072,0 -0.430143,0 -0.651732,0 0.461775,-1.568721 0.926893,-3.127162 1.48676,-4.66394 0.638574,-1.868672 0.863824,-3.812563 1.12016,-5.763736 z"
       fill="#daf3de"
       id="path398"
       style="stroke-width:0.325865" />
    <path
       d="m 67.886452,58.951586 c -1.407743,0.754147 -2.579197,1.018698 -4.173871,1.020873 -0.297191,4.2e-4 -0.594386,8.41e-4 -0.900583,0.0012 -0.308115,-0.0012 -0.616228,-0.0025 -0.933679,-0.0039 -0.306855,0.0013 -0.613708,0.0025 -0.929862,0.0039 -0.297612,-4.2e-4 -0.595224,-8.4e-4 -0.901855,-0.0012 -0.269862,-3.68e-4 -0.539725,-7.37e-4 -0.817765,-0.0011 -0.833635,-0.04435 -1.608157,-0.185449 -2.42179,-0.368028 0,-0.107533 0,-0.215071 0,-0.325867 1.340539,-0.280578 2.258605,-0.277515 3.584513,0 1.983328,0.144829 3.803402,-0.118727 5.740823,-0.540985 0.776474,-0.110747 0.776474,-0.110747 1.754069,0.215122 z"
       fill="#649f6b"
       id="path434"
       style="stroke-width:0.325865" />
    <path
       d="m 31.715453,66.120612 c 0.322606,0 0.645213,0 0.977595,0 0.876392,1.508427 1.143373,2.803719 1.201627,4.521375 0.01109,0.224312 0.02226,0.448625 0.03374,0.679734 0.0266,0.547176 0.04789,1.094604 0.06809,1.642053 -0.578232,-0.867349 -0.808819,-1.380395 -1.07179,-2.356157 -0.107114,-0.392231 -0.107114,-0.392231 -0.216395,-0.792385 -0.07224,-0.271569 -0.1445,-0.543138 -0.21894,-0.822936 -0.07477,-0.27535 -0.149542,-0.550699 -0.226578,-0.834392 -0.184046,-0.678666 -0.36591,-1.357925 -0.547351,-2.037292 z"
       fill="#64a26a"
       id="path449"
       style="stroke-width:0.325865" />
    <path
       d="m 53.222533,44.613533 c 0.107533,0 0.215071,0 0.325864,0 0.172808,0.793737 0.342004,1.587958 0.509165,2.382885 0.04935,0.224942 0.09871,0.449885 0.149567,0.681644 0.226844,1.09202 0.351957,1.724166 -0.007,2.801036 -0.967819,-0.537676 -1.935637,-1.075354 -2.932783,-1.629323 1.303458,-0.325866 1.303458,-0.325866 1.629325,-0.325866 0.107532,-1.290425 0.215071,-2.580849 0.325864,-3.910376 z"
       fill="#ddf9e1"
       id="path450"
       style="stroke-width:0.325865" />
    <path
       d="m 24.872292,43.635938 c 0.706543,0.706543 0.815658,1.034814 1.071789,1.975555 0.07141,0.259597 0.14282,0.519194 0.216395,0.786658 0.07224,0.271359 0.144501,0.542718 0.218941,0.8223 0.07477,0.271358 0.149542,0.542717 0.226578,0.8223 0.547351,2.013469 0.547351,2.013469 0.547351,2.762213 -0.215071,0 -0.430142,0 -0.65173,0 -0.959269,-0.959269 -0.972219,-2.10964 -1.18126,-3.401214 -0.04368,-0.253087 -0.08737,-0.506172 -0.132383,-0.766929 -0.170621,-1.010669 -0.315681,-1.974194 -0.315681,-3.000883 z"
       fill="#d8f3db"
       id="path467"
       style="stroke-width:0.325865" />
    <path
       d="m 34.974102,63.513694 c 0.712297,1.068446 0.978274,1.963812 1.323826,3.197549 0.111314,0.391916 0.222631,0.783832 0.337321,1.187624 0.263631,1.035124 0.463059,2.053827 0.619907,3.109719 -0.215071,0 -0.430142,0 -0.651729,0 -0.164602,-0.522218 -0.327142,-1.045087 -0.488798,-1.568226 -0.09073,-0.291101 -0.181466,-0.582202 -0.274949,-0.882126 -0.213848,-0.808297 -0.213848,-0.808297 -0.213848,-1.785892 -0.215071,0 -0.430142,0 -0.65173,0 -0.366598,-2.158854 -0.366598,-2.158854 0,-3.258648 z"
       fill="#6ba371"
       id="path477"
       style="stroke-width:0.325865" />
    <path
       d="m 36.603427,11.701181 c -1.626956,1.190454 -3.13667,1.955189 -5.213838,1.955189 0,0.215071 0,0.430143 0,0.65173 -1.051865,0.701243 -1.396007,0.717185 -2.606919,0.651729 1.01255,-0.811494 2.057175,-1.398138 3.217915,-1.975555 0.328488,-0.165083 0.656975,-0.330168 0.995416,-0.500254 2.703498,-1.234803 2.703498,-1.234803 3.607426,-0.782839 z"
       fill="#dff7e2"
       id="path478"
       style="stroke-width:0.325865" />
    <path
       d="m 23.894697,39.073829 c 0.215071,0 0.430142,0 0.65173,0 0.06679,0.184406 0.133579,0.368814 0.202393,0.558807 0.08779,0.239016 0.175585,0.478029 0.266037,0.724286 0.08695,0.238174 0.173906,0.476349 0.263493,0.72174 0.198052,0.596566 0.198052,0.596566 0.571536,0.927951 0.07667,0.765741 0.134865,1.533377 0.183299,2.301421 0.02731,0.420479 0.05461,0.84096 0.08274,1.274182 0.01974,0.325547 0.03949,0.651094 0.05983,0.986505 -1.231777,-2.320201 -1.745771,-4.942011 -2.281054,-7.494892 z"
       fill="#66a06c"
       id="path508"
       style="stroke-width:0.325865" />
    <path
       d="m 42.468992,57.322261 c -0.313155,0.118457 -0.313155,0.118457 -0.632636,0.239306 -1.348073,0.522354 -2.636908,1.034495 -3.868371,1.797349 -1.028544,0.564691 -1.522853,0.709072 -2.668019,0.570263 1.84978,-1.541482 4.753053,-3.324483 7.169026,-2.606918 z"
       fill="#dbf5dd"
       id="path522"
       style="stroke-width:0.325865" />
    <path
       d="m 21.939508,15.285695 c 0.322605,0.107532 0.645212,0.21507 0.977594,0.325864 -0.617186,0.570923 -1.235066,1.141065 -1.853356,1.710792 -0.172855,0.160042 -0.34571,0.320085 -0.523802,0.484978 -1.023024,0.941431 -2.064956,1.83694 -3.162544,2.692204 0,-0.322606 0,-0.645213 0,-0.977595 0.215071,0 0.430141,0 0.65173,0 0,-0.215071 0,-0.430142 0,-0.651729 0.215071,0 0.430142,0 0.65173,0 0,-0.215071 0,-0.430142 0,-0.65173 0.215071,0 0.430142,0 0.651728,0 0,-0.322607 0,-0.645213 0,-0.977595 0.531372,-0.344672 1.07627,-0.668912 1.629325,-0.977595 0.570751,-0.515665 0.570751,-0.515665 0.977595,-0.977594 z"
       fill="#e3fae6"
       id="path526"
       style="stroke-width:0.325865" />
    <path
       d="m 48.33456,32.230667 c 1.032539,0.8651 1.467375,1.903051 2.016289,3.116083 0.258967,0.565192 0.258967,0.565192 0.523166,1.1418 0.393329,0.955954 0.393329,0.955954 0.393329,1.607684 -0.21507,0 -0.430142,0 -0.65173,0 0,-0.322605 0,-0.645212 0,-0.977594 -0.215072,0 -0.430142,0 -0.651729,0 -0.977594,-2.118121 -0.977594,-2.118121 -0.977594,-3.584513 -0.645213,0.322606 -0.645213,0.322606 -1.303461,0.65173 0.215071,-0.645213 0.430142,-1.290425 0.65173,-1.95519 z"
       fill="#dbf7df"
       id="path532"
       style="stroke-width:0.325865" />
    <path
       d="m 67.234723,22.780587 c 0.430141,0.107532 0.860283,0.215071 1.303459,0.325865 -1.881353,1.372463 -3.712298,2.677873 -5.865567,3.584513 -0.322606,-0.107532 -0.645213,-0.215071 -0.977595,-0.325866 1.507125,-0.977594 1.507125,-0.977594 2.60692,-0.977594 0,-0.215071 0,-0.430142 0,-0.651728 0.86269,-0.475968 1.269074,-0.65173 2.281052,-0.65173 0,-0.215071 0,-0.430142 0,-0.65173 0.215071,0 0.430142,0 0.651731,0 0,-0.215071 0,-0.430142 0,-0.65173 z"
       fill="#e1f8e4"
       id="path533"
       style="stroke-width:0.325865" />
    <path
       d="m 47.356966,32.882398 c 0.215071,0 0.430141,0 0.65173,0 -0.536265,1.85255 -1.398068,3.508527 -2.281055,5.213836 -0.215071,-0.107531 -0.430142,-0.21507 -0.651729,-0.325864 0,-0.215071 0,-0.430142 0,-0.65173 0.215071,0 0.430141,0 0.651729,0 0.04032,-0.289 0.08066,-0.578003 0.122201,-0.875762 0.256945,-1.361814 0.517539,-2.370894 1.507124,-3.36048 z"
       fill="#66a26d"
       id="path545"
       style="stroke-width:0.325865" />
    <path
       d="m 70.167507,77.525882 c -0.244398,0.631363 -0.244398,0.631363 -0.651731,1.30346 -0.434485,0.108616 -0.868972,0.217243 -1.303459,0.325865 -0.100809,0.20835 -0.201629,0.4167 -0.305498,0.631363 -0.346232,0.672096 -0.346232,0.672096 -1.12016,1.099794 -0.909665,0.238245 -1.281826,0.157543 -2.158856,-0.10183 0.324498,-0.189027 0.324498,-0.189027 0.65555,-0.381872 4.877701,-2.876775 4.877701,-2.876775 4.884154,-2.876775 z"
       fill="#66a06d"
       id="path563"
       style="stroke-width:0.325865" />
    <path
       d="m 43.120723,45.916992 c 0.107532,0 0.21507,0 0.325864,0 0,0.967818 0,1.935637 0,2.932783 0.537678,0 1.075354,0 1.629325,0 0,-0.215071 0,-0.430142 0,-0.65173 0.430141,0.107532 0.860283,0.21507 1.303459,0.325866 -0.474255,0.273234 -0.949701,0.544402 -1.425659,0.814661 -0.264636,0.151221 -0.529275,0.302443 -0.801933,0.458247 -0.705192,0.356415 -0.705192,0.356415 -1.356921,0.356415 0.107533,-1.39796 0.215071,-2.79592 0.325865,-4.236242 z"
       fill="#d1f4d5"
       id="path574"
       style="stroke-width:0.325865" />
    <path
       d="m 18.354994,19.521938 c 0.21507,0.107533 0.430141,0.215071 0.65173,0.325864 -0.509529,1.250662 -1.311639,2.009532 -2.281054,2.932784 -0.373013,0.373015 -0.373013,0.373015 -0.753563,0.753562 -0.181465,0.181466 -0.362931,0.362933 -0.549896,0.549899 0,-1.294383 0.466336,-1.662953 1.283092,-2.647653 0.238173,-0.289842 0.476348,-0.579683 0.721741,-0.878308 0.602086,-0.710284 0.602086,-0.710284 0.92795,-1.036148 z"
       fill="#669f6d"
       id="path576"
       style="stroke-width:0.325865" />
    <path
       d="m 59.739831,83.391449 c 0,0.322606 0,0.645214 0,0.977595 -0.41257,0.173456 -0.827079,0.342303 -1.24236,0.509163 -0.230612,0.09452 -0.461226,0.189028 -0.698827,0.286405 -0.665733,0.182027 -0.665733,0.182027 -1.643327,-0.143838 -0.322606,-0.215071 -0.645213,-0.430141 -0.977595,-0.65173 0.576617,-0.164467 1.153775,-0.32704 1.731158,-0.488797 0.321346,-0.09073 0.642692,-0.181467 0.973776,-0.274948 0.87958,-0.21385 0.87958,-0.21385 1.857175,-0.21385 z"
       fill="#68a370"
       id="path589"
       style="stroke-width:0.325865" />
    <path
       d="m 31.063723,81.762126 c 1.863746,0.604457 3.700377,1.280986 5.539704,1.955188 0,0.107533 0,0.215071 0,0.325864 -2.02737,0.382523 -2.544665,0.150126 -4.236245,-0.977594 -0.431988,-0.222166 -0.865997,-0.440542 -1.303459,-0.651728 0,-0.215071 0,-0.430143 0,-0.65173 z"
       fill="#67a370"
       id="path590"
       style="stroke-width:0.325865" />
    <path
       d="m 32.367182,68.727531 c 0.599711,0.899567 0.87444,1.546549 1.181261,2.566186 0.08485,0.274719 0.169704,0.549439 0.257127,0.832484 0.194075,0.851339 0.225236,1.596973 0.190937,2.466897 -0.107532,-0.21507 -0.215071,-0.430141 -0.325865,-0.65173 -0.215071,0 -0.430142,0 -0.65173,0 -0.388069,-1.753239 -0.746867,-3.406236 -0.65173,-5.213837 z"
       fill="#ddf5e0"
       id="path591"
       style="stroke-width:0.325865" />
    <path
       d="m 71.79683,43.310072 c 0.107532,0 0.215071,0 0.325865,0 0.173231,0.786881 0.342337,1.57428 0.509164,2.36252 0.04936,0.222212 0.09871,0.444425 0.149566,0.67337 0.238159,1.140944 0.423805,2.048574 -0.007,3.155542 -1.223658,-2.174224 -1.447556,-3.744572 -0.977595,-6.191432 z"
       fill="#68a16d"
       id="path592"
       style="stroke-width:0.325865" />
    <path
       d="m 68.538182,59.277449 c -0.561793,0.704884 -0.839284,0.957635 -1.746671,1.088577 -0.295223,-0.0052 -0.590447,-0.01021 -0.894617,-0.01551 -0.320296,-0.0032 -0.640591,-0.0063 -0.970592,-0.0096 -0.333738,-0.0082 -0.667477,-0.01638 -1.011328,-0.02482 -0.337517,-0.0045 -0.675036,-0.0089 -1.022782,-0.01337 -0.833713,-0.01158 -1.667088,-0.02761 -2.500631,-0.04774 0,-0.107532 0,-0.215071 0,-0.325864 0.506592,-0.02961 0.506592,-0.02961 1.023419,-0.05983 0.44637,-0.02752 0.892738,-0.0551 1.339101,-0.08274 0.222211,-0.01282 0.444423,-0.02563 0.673368,-0.03882 1.749088,-0.110377 3.35435,-0.510259 5.110733,-0.47034 z"
       fill="#cae9cc"
       id="path594"
       style="stroke-width:0.325865" />
    <path
       d="m 42.468992,42.984208 c 0.645213,0.322606 0.645213,0.322606 1.30346,0.65173 -0.215071,1.505495 -0.430142,3.010991 -0.651729,4.562107 -0.215071,-0.107532 -0.430142,-0.215071 -0.651731,-0.325864 0,-1.613032 0,-3.226063 0,-4.887973 z"
       fill="#68a16f"
       id="path595"
       style="stroke-width:0.325865" />
    <path
       d="m 46.705237,24.735777 c 1.907447,0.09918 3.40044,0.810933 4.887973,1.955188 -0.65173,0.325865 -0.65173,0.325865 -1.78462,0.0012 -0.451457,-0.154105 -0.902043,-0.310786 -1.35183,-0.469705 -0.230193,-0.07918 -0.460385,-0.158363 -0.697554,-0.239943 -0.569322,-0.196184 -1.137612,-0.395356 -1.705699,-0.595085 0.21507,-0.215071 0.430141,-0.430142 0.65173,-0.65173 z"
       fill="#dff6e2"
       id="path596"
       style="stroke-width:0.325865" />
    <path
       d="m 82.224506,65.143017 c 0.215071,0.322606 0.430142,0.645213 0.65173,0.977595 -0.752748,1.290425 -1.505495,2.580849 -2.281055,3.910379 -0.325864,-1.30346 -0.325864,-1.30346 0,-1.95519 0.215071,0 0.430142,0 0.65173,0 0.04032,-0.302443 0.08065,-0.604886 0.122201,-0.916495 0.203665,-1.038694 0.203665,-1.038694 0.855394,-2.016289 z"
       fill="#64a06b"
       id="path612"
       style="stroke-width:0.325865" />
    <path
       d="m 26.175751,16.263289 c 0.215071,0.107533 0.430141,0.215071 0.65173,0.325865 -0.351369,0.415522 -0.7048,0.829302 -1.059062,1.24236 -0.196587,0.230614 -0.393176,0.461226 -0.595721,0.698827 -0.601409,0.639303 -1.21265,1.140418 -1.929731,1.643327 -0.215071,-0.107533 -0.430142,-0.215071 -0.65173,-0.325865 0.412718,-0.476439 0.827172,-0.951372 1.24236,-1.425659 0.230613,-0.264637 0.461226,-0.529276 0.698828,-0.801932 0.665731,-0.705193 0.665731,-0.705193 1.643326,-1.356923 z"
       fill="#e7fae9"
       id="path614"
       style="stroke-width:0.325865" />
    <path
       d="m 56.155317,11.049451 c 2.366413,0.165099 5.469164,0.907057 7.169026,2.606921 -1.478425,0.190764 -2.491528,-0.334577 -3.793269,-0.948319 -1.103384,-0.509676 -2.233886,-0.91751 -3.375757,-1.332737 0,-0.107532 0,-0.215071 0,-0.325865 z"
       fill="#e2fae3"
       id="path615"
       style="stroke-width:0.325865" />
    <path
       d="m 73.426155,51.782559 c 0.107532,0 0.215071,0 0.325865,0 0.324866,1.340074 0.521855,2.538453 0.325865,3.910378 -0.684257,0.682546 -1.438079,1.162677 -2.281055,1.629325 0,-0.322607 0,-0.645212 0,-0.977595 0.215071,0 0.430142,0 0.65173,0 0,-0.21507 0,-0.430141 0,-0.65173 0.215071,0 0.430142,0 0.651731,0 0.107531,-1.290424 0.21507,-2.580849 0.325864,-3.910378 z"
       fill="#75a77c"
       id="path628"
       style="stroke-width:0.325865" />
    <path
       d="m 34.648237,83.065584 c 0.570371,0.04623 1.14061,0.09406 1.71079,0.142566 0.476349,0.03969 0.476349,0.03969 0.96232,0.08019 0.769528,0.08705 1.471569,0.21837 2.214864,0.428971 0,0.21507 0,0.430141 0,0.651729 0.322605,0.107532 0.645212,0.215071 0.977594,0.325865 -2.097531,-0.166472 -3.897155,-0.56356 -5.865568,-1.30346 0,-0.107533 0,-0.215071 0,-0.325864 z"
       fill="#dbf4df"
       id="path644"
       style="stroke-width:0.325865" />
    <path
       d="m 77.336533,68.401667 c 0.21507,0 0.430141,0 0.65173,0 -0.495357,1.761265 -1.718564,2.927872 -2.932783,4.236242 -0.107533,-0.322606 -0.215071,-0.645212 -0.325866,-0.977595 0.154583,-0.141138 0.309165,-0.28228 0.468431,-0.427696 0.586351,-0.557425 0.586351,-0.557425 0.83503,-1.527492 0.21507,0 0.430141,0 0.651728,0 0.21507,-0.430141 0.430141,-0.860283 0.65173,-1.303459 z"
       fill="#e5fae8"
       id="path645"
       style="stroke-width:0.325865" />
    <path
       d="m 30.411993,84.369044 c 1.841203,0.195873 3.474256,0.676263 5.213838,1.303459 -0.107533,0.215071 -0.215071,0.430142 -0.325865,0.65173 -1.805454,-0.185174 -3.270758,-0.856654 -4.887973,-1.629325 0,-0.107531 0,-0.21507 0,-0.325864 z"
       fill="#70a476"
       id="path673"
       style="stroke-width:0.325865" />
    <path
       d="m 85.809019,53.411882 c 0.65173,0.651731 0.65173,0.651731 0.667005,1.465118 -0.04788,0.47446 -0.04788,0.47446 -0.09675,0.958503 -0.02856,0.315465 -0.05714,0.630929 -0.08656,0.955955 -0.157842,0.856668 -0.157842,0.856668 -0.809571,1.834261 -0.286404,-2.004831 -0.286404,-2.004831 -0.325865,-2.606917 0.107533,-0.107533 0.215071,-0.215071 0.325865,-0.325866 0.119787,-0.758671 0.228892,-1.519129 0.325865,-2.281054 z"
       fill="#6aa271"
       id="path674"
       style="stroke-width:0.325865" />
    <path
       d="m 34.974102,59.929179 c 0.107533,0 0.215071,0 0.325864,0 0.215071,1.828103 0.430142,3.656205 0.65173,5.539704 -0.675122,-1.012685 -0.920386,-1.78229 -1.221992,-2.953151 -0.09241,-0.346549 -0.184827,-0.693099 -0.280041,-1.050151 -0.04201,-0.291941 -0.08401,-0.583883 -0.127291,-0.884671 0.21507,-0.215071 0.430141,-0.430142 0.65173,-0.651731 z"
       fill="#d4f4d7"
       id="path691"
       style="stroke-width:0.325865" />
    <path
       d="m 41.552499,38.727598 c 0.614967,0.01011 0.614967,0.01011 1.242359,0.02037 -0.977595,0.65173 -0.977595,0.65173 -1.629325,0.977594 -0.212506,0.659757 -0.212506,0.659757 -0.325863,1.30346 -0.537679,-0.645212 -1.075355,-1.290424 -1.629325,-1.955189 0.896385,-0.298796 1.420604,-0.36134 2.342154,-0.346231 z"
       fill="#dffce3"
       id="path692"
       style="stroke-width:0.325865" />
    <path
       d="m 65.931262,24.735777 c 0,0.977594 0,0.977594 -0.712829,1.710789 -0.916495,0.570264 -0.916495,0.570264 -1.832989,0.488798 -0.235234,-0.08065 -0.470467,-0.161304 -0.712829,-0.244399 1.018107,-0.822317 2.079213,-1.392277 3.258647,-1.955188 z"
       fill="#69a470"
       id="path707"
       style="stroke-width:0.325865" />
    <path
       d="m 62.998479,10.071856 c 1.610769,0.161078 2.851239,0.446077 4.236243,1.30346 0.107532,0.322607 0.21507,0.645212 0.325865,0.977595 -1.620312,-0.486093 -3.069144,-1.174604 -4.562108,-1.95519 0,-0.107532 0,-0.215071 0,-0.325865 z"
       fill="#d7f3db"
       id="path708"
       style="stroke-width:0.325865" />
    <path
       d="m 29.760265,59.603316 c 0.636329,0.954494 0.89742,1.655824 1.201626,2.749484 0.08863,0.308744 0.177266,0.617489 0.268584,0.935589 0.158474,0.873509 0.124471,1.353734 -0.166752,2.180494 0,-0.215071 0,-0.430142 0,-0.65173 -0.215071,0 -0.430141,0 -0.651728,0 -0.215071,-1.720567 -0.430141,-3.441133 -0.65173,-5.213837 z"
       fill="#cfeed2"
       id="path721"
       style="stroke-width:0.325865" />
    <path
       d="m 86.460749,39.073829 c 0.215071,0 0.430142,0 0.65173,0 0.269238,1.826678 0.348008,3.396455 0,5.213838 -0.107532,0 -0.21507,0 -0.325866,0 -0.107532,-1.720566 -0.215071,-3.441134 -0.325864,-5.213838 z"
       fill="#d3edd7"
       id="path722"
       style="stroke-width:0.325865" />
    <path
       d="m 51.267344,37.444504 c 1.704846,-0.124744 2.730104,0.25465 4.236243,0.977595 -1.330973,0.499116 -2.539971,0.205562 -3.910379,0 -0.107532,-0.322606 -0.215071,-0.645212 -0.325864,-0.977595 z"
       fill="#74a87a"
       id="path723"
       style="stroke-width:0.325865" />
    <path
       d="m 26.240669,16.064714 c 0.193649,0.06553 0.387295,0.131059 0.586812,0.198573 -0.411866,0.328711 -0.826527,0.65392 -1.24236,0.977595 -0.34592,0.272199 -0.34592,0.272199 -0.698827,0.549897 -0.665732,0.427698 -0.665732,0.427698 -1.643327,0.427698 0.439767,-1.319299 1.510884,-2.417852 2.997702,-2.153763 z"
       fill="#669e6c"
       id="path724"
       style="stroke-width:0.325865" />
    <path
       d="m 16.399805,68.401667 c 1.149879,0.459952 1.43855,0.85733 1.955189,1.955189 0.421901,0.446718 0.854258,0.884205 1.303459,1.303458 -0.107532,0.322608 -0.215071,0.645214 -0.325865,0.977595 -0.489741,-0.644242 -0.978381,-1.28927 -1.466392,-1.934821 -0.139879,-0.183777 -0.27976,-0.367554 -0.423878,-0.556899 -1.042513,-1.381743 -1.042513,-1.381743 -1.042513,-1.744522 z"
       fill="#dcf7e0"
       id="path739"
       style="stroke-width:0.325865" />
    <path
       d="m 68.538182,23.106452 c 0.107533,0.752747 0.215071,1.505495 0.325864,2.281053 -0.322605,0.161304 -0.322605,0.161304 -0.651729,0.325864 0,-0.430141 0,-0.860283 0,-1.303458 -0.645212,0.107532 -1.290424,0.215071 -1.955189,0.325866 1.547859,-1.629325 1.547859,-1.629325 2.281054,-1.629325 z"
       fill="#70a175"
       id="path740"
       style="stroke-width:0.325865" />
    <path
       d="m 71.145101,79.481072 c -0.473336,1.247889 -1.117375,1.668592 -2.281054,2.281054 0,-0.430143 0,-0.860285 0,-1.30346 0.816242,-0.788095 1.127538,-0.977594 2.281054,-0.977594 z"
       fill="#63a06c"
       id="path749"
       style="stroke-width:0.325865" />
    <path
       d="m 84.50556,61.884369 c -0.146908,0.475981 -0.296842,0.95103 -0.448065,1.425659 -0.08317,0.264638 -0.166344,0.529275 -0.252036,0.801932 -0.277494,0.705193 -0.277494,0.705193 -0.929224,1.356923 -0.119393,-2.069411 -0.119393,-2.069411 0.448063,-3.075351 0.529532,-0.509163 0.529532,-0.509163 1.181262,-0.509163 z"
       fill="#65a16c"
       id="path750"
       style="stroke-width:0.325865" />
    <path
       d="m 28.13094,54.389477 c 0.687719,1.031579 0.897927,1.796158 1.181261,2.993883 0.08485,0.354111 0.169703,0.708222 0.257126,1.073063 0.06301,0.270939 0.126019,0.541878 0.190938,0.821026 -0.215071,0 -0.430143,0 -0.65173,0 0,-0.430141 0,-0.860283 0,-1.303458 -0.215071,0 -0.430143,0 -0.65173,0 -0.107533,-1.182891 -0.215071,-2.36578 -0.325865,-3.584514 z"
       fill="#d3edd5"
       id="path751"
       style="stroke-width:0.325865" />
    <path
       d="m 30.411993,84.694908 c 1.193227,0.204247 2.242569,0.535891 3.360482,0.997961 0.287741,0.118039 0.575482,0.236075 0.871943,0.357689 0.216331,0.09032 0.432662,0.180626 0.655548,0.273675 -1.601571,0.434381 -2.404055,0.136373 -3.828911,-0.672096 -0.349491,-0.20835 -0.69898,-0.416699 -1.059062,-0.631364 0,-0.107532 0,-0.215071 0,-0.325865 z"
       fill="#e3f9e6"
       id="path767"
       style="stroke-width:0.325865" />
    <path
       d="m 25.198156,77.851747 c 0.476957,0.129544 0.951817,0.266822 1.425658,0.40733 0.264639,0.07561 0.529276,0.151222 0.801934,0.229125 0.854391,0.413314 1.029044,0.772661 1.356922,1.644599 -1.338691,-0.472479 -2.433741,-1.125563 -3.584514,-1.95519 0,-0.107532 0,-0.21507 0,-0.325864 z"
       fill="#d6f3db"
       id="path768"
       style="stroke-width:0.325865" />
    <path
       d="m 19.006724,23.106452 c 0.21507,0.107532 0.430142,0.215071 0.65173,0.325865 -0.239312,0.430564 -0.484942,0.857621 -0.733196,1.283092 -0.1361,0.238174 -0.272199,0.476348 -0.412423,0.721741 -0.567106,0.705897 -0.905899,0.809318 -1.787164,0.927949 1.350011,-2.467262 1.350011,-2.467262 2.281053,-3.258647 z"
       fill="#e4fae5"
       id="path770"
       style="stroke-width:0.325865" />
    <path
       d="m 38.558616,7.7908021 c -1.025086,0.68339 -1.63407,0.8211943 -2.830951,1.0183278 -0.4858,0.081915 -0.4858,0.081915 -0.981413,0.1654786 -0.247416,0.039486 -0.494831,0.078972 -0.749745,0.1196513 0,-0.2150707 0,-0.4301415 0,-0.6517288 1.577973,-0.4353033 2.911399,-0.7342655 4.562109,-0.6517301 z"
       fill="#ddf5e1"
       id="path774"
       style="stroke-width:0.325865" />
    <path
       d="m 81.572776,68.075801 c 0.325864,1.30346 0.325864,1.30346 -0.142566,2.199587 -0.252036,0.362933 -0.252036,0.362933 -0.509164,0.733196 -0.322606,-0.107531 -0.645213,-0.215071 -0.977595,-0.325863 0.537678,-0.860284 1.075354,-1.720568 1.629325,-2.60692 z"
       fill="#dff7e3"
       id="path787"
       style="stroke-width:0.325865" />
    <path
       d="m 85.15729,59.603316 c 0.215071,0.322605 0.430142,0.645212 0.65173,0.977594 -0.0941,0.174746 -0.188187,0.349491 -0.285133,0.529531 -0.421055,0.888895 -0.720352,1.792623 -1.018327,2.729117 -0.215071,0 -0.430142,0 -0.651729,0 0.155955,-0.522797 0.312144,-1.045525 0.46843,-1.568224 0.08695,-0.291102 0.173905,-0.582203 0.263493,-0.882126 0.181762,-0.598026 0.373881,-1.192929 0.571536,-1.785892 z"
       fill="#d1efd5"
       id="path788"
       style="stroke-width:0.325865" />
    <path
       d="m 8.2531835,56.670532 c 0.5134136,0.940538 0.8025279,1.803149 1.0183278,2.851317 0.05461,0.260438 0.1092197,0.520875 0.1654782,0.789204 0.059229,0.294883 0.059229,0.294883 0.1196515,0.595721 -0.2150708,0 -0.4301413,0 -0.6517286,0 C 8.3235371,59.908824 8.178624,59.205503 8.212449,58.055457 8.218359,57.79502 8.224273,57.534582 8.230271,57.266253 8.237781,57.069665 8.245395,56.873077 8.253179,56.670532 Z"
       fill="#d3efd6"
       id="path789"
       style="stroke-width:0.325865" />
    <path
       d="m 54.525993,42.332478 c 0,0.91172 -0.121203,1.622503 -0.325865,2.505086 -0.06048,0.263378 -0.12098,0.526756 -0.183298,0.798114 -0.04705,0.200369 -0.0941,0.400737 -0.142567,0.607178 -0.107532,0 -0.215071,0 -0.325865,0 -0.107531,-0.860283 -0.21507,-1.720567 -0.325863,-2.606918 0.215071,0 0.430141,0 0.651728,0 0.215071,-0.430142 0.430141,-0.860283 0.65173,-1.30346 z"
       fill="#77a97f"
       id="path790"
       style="stroke-width:0.325865" />
    <path
       d="m 80.921046,62.861963 c 0.330841,1.323369 0.34356,1.521681 -0.142566,2.688385 -0.09367,0.230194 -0.187347,0.460387 -0.283859,0.697555 -0.07436,0.173065 -0.148702,0.34613 -0.225305,0.524439 -0.322606,-0.107533 -0.645213,-0.215071 -0.977595,-0.325864 0.537677,-1.18289 1.075354,-2.365779 1.629325,-3.584515 z"
       fill="#6ea574"
       id="path813"
       style="stroke-width:0.325865" />
    <path
       d="m 53.548398,57.973991 c 0.40998,0.04032 0.819959,0.08065 1.242361,0.122201 0.34592,0.03403 0.34592,0.03403 0.698826,0.06874 0.665733,0.134929 0.665733,0.134929 1.643327,0.786659 -0.707021,0.31109 -1.16115,0.372793 -1.897908,0.129837 -0.568392,-0.246726 -1.128161,-0.513084 -1.686606,-0.781567 0,-0.107533 0,-0.215071 0,-0.325866 z"
       fill="#64a06a"
       id="path841"
       style="stroke-width:0.325865" />
    <path
       d="m 55.177722,38.747965 c 0.967818,0.107532 1.935637,0.21507 2.932784,0.325864 -0.537677,0.537678 -1.075354,1.075354 -1.629325,1.629325 -0.03361,-0.201629 -0.06721,-0.403258 -0.101829,-0.610997 -0.183382,-0.81149 -0.183382,-0.81149 -1.201627,-1.344192 z"
       fill="#def7e1"
       id="path842"
       style="stroke-width:0.325865" />
    <path
       d="m 10.208372,30.927208 c 0.215071,0.107533 0.430143,0.215071 0.651731,0.325865 -0.430142,1.18289 -0.8602839,2.365778 -1.303461,3.584514 -0.1075317,0 -0.2150708,0 -0.3258639,0 0.037343,-0.468714 0.078885,-0.937093 0.1222013,-1.405293 0.022681,-0.260857 0.045372,-0.521715 0.068741,-0.790477 0.1349281,-0.737014 0.1349281,-0.737014 0.7866556,-1.714609 z"
       fill="#e2f9e4"
       id="path843"
       style="stroke-width:0.325865" />
    <path
       d="m 49.312155,26.365099 c 1.451728,0.322608 1.451728,0.322608 2.932783,0.651731 -0.322607,0.161303 -0.322607,0.161303 -0.65173,0.325864 0,0.215071 0,0.430142 0,0.65173 -0.96513,-0.199682 -1.427478,-0.408545 -2.281053,-0.977594 0,-0.215071 0,-0.430142 0,-0.651731 z"
       fill="#66a66d"
       id="path844"
       style="stroke-width:0.325865" />
    <path
       d="m 14.77048,22.780587 c 0.322606,0.107532 0.645213,0.215071 0.977595,0.325865 -0.96782,1.290425 -0.96782,1.290425 -1.955189,2.606919 -0.107533,-0.430141 -0.215071,-0.860284 -0.325865,-1.30346 0.215071,0 0.430142,0 0.651729,0 0.07057,-0.312525 0.07057,-0.312525 0.142567,-0.631363 0.183299,-0.672096 0.183299,-0.672096 0.509163,-0.997961 z"
       fill="#def7e3"
       id="path845"
       style="stroke-width:0.325865" />
    <path
       d="m 78.314127,68.075801 c 0.107533,0.215071 0.215071,0.430142 0.325865,0.65173 -0.395874,0.776475 -0.395874,0.776475 -0.957228,1.670057 -0.184405,0.296563 -0.368812,0.593124 -0.558807,0.898674 -0.144921,0.227672 -0.289842,0.455345 -0.439154,0.689917 -0.107532,-0.215071 -0.215071,-0.430142 -0.325865,-0.65173 0.313136,-0.693735 0.313136,-0.693735 0.773929,-1.486758 0.150383,-0.262537 0.300764,-0.525076 0.455702,-0.795569 0.399694,-0.650456 0.399694,-0.650456 0.725558,-0.976321 z"
       fill="#609a67"
       id="path872"
       style="stroke-width:0.325865" />
    <path
       d="m 11.511832,36.792776 c 0.432463,1.297391 0.348402,2.558186 0.325864,3.910378 -0.322605,0 -0.645212,0 -0.977594,0 0.04617,-0.468567 0.09403,-0.936967 0.142567,-1.405292 0.02647,-0.260858 0.05293,-0.521716 0.08019,-0.790477 0.103112,-0.737015 0.103112,-0.737015 0.428971,-1.714609 z"
       fill="#d2f0d5"
       id="path873"
       style="stroke-width:0.325865" />
    <path
       d="m 82.876235,36.792776 c 0.215071,0 0.430142,0 0.65173,0 0.126794,0.474014 0.247944,0.94954 0.366598,1.425658 0.06804,0.264638 0.136099,0.529276 0.206212,0.801934 0.02605,0.232713 0.05208,0.465426 0.07892,0.705191 -0.215071,0.215071 -0.430141,0.430142 -0.651729,0.651729 -0.215071,-1.182889 -0.430141,-2.365778 -0.651731,-3.584512 z"
       fill="#6ca170"
       id="path874"
       style="stroke-width:0.325865" />
    <path
       d="m 12.815291,33.208262 c 0.107532,0 0.215071,0 0.325865,0 0.120316,2.125642 0.120316,2.125642 -0.488798,2.912418 -0.161302,0.114257 -0.322605,0.228513 -0.488797,0.34623 -0.325865,-0.651728 -0.325865,-0.651728 -0.143838,-1.285638 0.09452,-0.234393 0.189027,-0.468786 0.286405,-0.710283 0.09367,-0.236075 0.187346,-0.472148 0.283857,-0.715376 0.07436,-0.180625 0.148702,-0.361252 0.225306,-0.547351 z"
       fill="#daf3dd"
       id="path875"
       style="stroke-width:0.325865" />
    <path
       d="m 62.998479,27.01683 c -0.509163,0.509163 -0.509163,0.509163 -1.303459,0.977594 -1.221994,-0.101829 -1.221994,-0.101829 -2.281055,-0.325864 1.303322,-0.674132 2.13911,-1.100304 3.584514,-0.65173 z"
       fill="#70ac79"
       id="path876"
       style="stroke-width:0.325865" />
    <path
       d="m 34.974102,9.0942629 c 0.107533,0.3226046 0.215071,0.6452124 0.325864,0.9775931 -0.916493,0.203667 -0.916493,0.203667 -1.955189,0.325865 -0.322606,-0.215071 -0.645212,-0.4301415 -0.977595,-0.651728 0.946965,-0.4094985 1.562864,-0.6517301 2.60692,-0.6517301 z"
       fill="#6ba671"
       id="path879"
       style="stroke-width:0.325865" />
    <path
       d="m 22.591237,27.994424 c 1.290424,0.107533 2.580849,0.215071 3.910378,0.325865 -0.483909,0.483909 -0.483909,0.483909 -0.977594,0.977594 -0.967819,-0.322605 -1.935637,-0.645212 -2.932784,-0.977594 0,-0.107532 0,-0.215071 0,-0.325865 z"
       fill="#c8eacd"
       id="path903"
       style="stroke-width:0.325865" />
    <path
       d="m 73.100289,20.499533 c 0.955438,0.929614 1.838906,1.841396 2.606919,2.932784 -0.430142,-0.107533 -0.860283,-0.215071 -1.30346,-0.325865 -0.0336,-0.20835 -0.06721,-0.4167 -0.10183,-0.631363 -0.07393,-0.221792 -0.147862,-0.443584 -0.224032,-0.672097 -0.322606,-0.107533 -0.645212,-0.215071 -0.977594,-0.325865 0,-0.322605 0,-0.645212 0,-0.977594 z"
       fill="#d9f3d9"
       id="path906"
       style="stroke-width:0.325865" />
    <path
       d="m 72.774425,73.941368 c 0.322606,0.107533 0.645212,0.215071 0.977595,0.325865 -1.129122,0.967819 -1.129122,0.967819 -2.281054,1.955189 0,-0.322606 0,-0.645212 0,-0.977595 0.215071,0 0.430141,0 0.651729,0 0,-0.322605 0,-0.645212 0,-0.977594 0.215071,-0.107532 0.430141,-0.215071 0.65173,-0.325865 z"
       fill="#d8f2dd"
       id="path934"
       style="stroke-width:0.325865" />
    <path
       d="m 76.358938,70.682721 c 0.107533,0.215071 0.215071,0.430141 0.325865,0.65173 -0.386964,0.835027 -0.386964,0.835027 -0.977595,1.629323 -0.430142,0.107532 -0.860283,0.21507 -1.303458,0.325865 0.645212,-0.860283 1.290424,-1.720566 1.955188,-2.606918 z"
       fill="#73a678"
       id="path935"
       style="stroke-width:0.325865" />
    <path
       d="m 27.153346,51.130829 c 0.748295,1.122444 0.827749,1.935025 0.977594,3.258648 -0.322608,-0.107533 -0.645212,-0.215071 -0.977594,-0.325864 -0.275207,-1.10083 -0.361205,-1.84917 0,-2.932784 z"
       fill="#d8f1db"
       id="path936"
       style="stroke-width:0.325865" />
    <path
       d="m 31.063723,81.762126 c 1.873724,0.610996 1.873724,0.610996 2.60692,0.977593 -0.107532,0.215071 -0.215071,0.430142 -0.325866,0.65173 -0.957228,-0.264764 -0.957228,-0.264764 -1.955189,-0.65173 -0.107532,-0.322607 -0.215071,-0.645212 -0.325865,-0.977593 z"
       fill="#70a478"
       id="path968"
       style="stroke-width:0.325865" />
    <path
       d="m 16.399805,26.365099 c 0.107532,0.215071 0.215071,0.430142 0.325865,0.651731 -0.304941,0.768981 -0.630053,1.530363 -0.977595,2.281053 -0.215071,0 -0.430141,0 -0.651729,0 0.345008,-1.108959 0.654668,-1.959598 1.303459,-2.932784 z"
       fill="#dbf5dc"
       id="path970"
       style="stroke-width:0.325865" />
    <path
       d="m 15.096346,27.01683 c 0.215071,0.322605 0.430142,0.645212 0.65173,0.977594 -0.322607,0.430142 -0.645212,0.860283 -0.977594,1.303459 -0.215071,-0.430141 -0.430142,-0.860283 -0.651731,-1.303459 0.322607,-0.322606 0.645213,-0.645212 0.977595,-0.977594 z"
       fill="#63a169"
       id="path971"
       style="stroke-width:0.325865" />
    <path
       d="m 37.581021,8.7683967 c -0.107533,0.2150704 -0.215071,0.4301411 -0.325864,0.6517297 -0.835029,0.2036657 -0.835029,0.2036657 -1.629325,0.3258645 0,-0.2150707 0,-0.4301415 0,-0.6517301 -0.215071,-0.1075317 -0.430142,-0.2150705 -0.65173,-0.3258641 1.07202,-0.3573397 1.535814,-0.2605396 2.606919,0 z"
       fill="#6aa871"
       id="path974"
       style="stroke-width:0.325865" />
  </g>
</svg>
