<?xml version="1.0" encoding="UTF-8" standalone="no"?>
<!-- Created with Inkscape (http://www.inkscape.org/) -->

<svg
   width="96mm"
   height="96mm"
   viewBox="0 0 96 96"
   version="1.1"
   id="svg1"
   inkscape:version="1.4.2 (ebf0e940, 2025-05-08)"
   sodipodi:docname="train.svg"
   xmlns:inkscape="http://www.inkscape.org/namespaces/inkscape"
   xmlns:sodipodi="http://sodipodi.sourceforge.net/DTD/sodipodi-0.dtd"
   xmlns="http://www.w3.org/2000/svg"
   xmlns:svg="http://www.w3.org/2000/svg">
  <sodipodi:namedview
     id="namedview1"
     pagecolor="#ffffff"
     bordercolor="#000000"
     borderopacity="0.25"
     inkscape:showpageshadow="2"
     inkscape:pageopacity="0.0"
     inkscape:pagecheckerboard="0"
     inkscape:deskcolor="#d1d1d1"
     inkscape:document-units="mm"
     inkscape:zoom="0.80444024"
     inkscape:cx="397.17059"
     inkscape:cy="362.36377"
     inkscape:window-width="1920"
     inkscape:window-height="1052"
     inkscape:window-x="0"
     inkscape:window-y="28"
     inkscape:window-maximized="0"
     inkscape:current-layer="layer1" />
  <defs
     id="defs1" />
  <g
     inkscape:label="Layer 1"
     inkscape:groupmode="layer"
     id="layer1">
    <path
       d="m 50.791948,7.021444 c 1.894664,1.047562 2.885691,2.519839 3.516065,4.568197 0.348243,1.661941 0.540952,3.34873 0.716041,5.036514 0.05312,0.538917 0.05312,0.538917 0.342292,1.048902 0.263877,1.845386 0.30087,3.655685 0.29462,5.517557 3.9e-5,0.304863 7.7e-5,0.609725 1.17e-4,0.923826 -1.83e-4,1.000661 -0.0022,2.001309 -0.0043,3.001968 -5.03e-4,0.696576 -8.74e-4,1.393151 -0.0011,2.089726 -8.2e-4,1.641631 -0.003,3.283256 -0.0056,4.924883 -0.003,1.87034 -0.0044,3.740677 -0.0057,5.611019 -0.0028,3.844369 -0.0074,7.688736 -0.01331,11.533103 -0.174625,0 -0.34925,0 -0.529167,0 0,0.174625 0,0.34925 0,0.529166 0.174625,0 0.34925,0 0.529167,0 0.01852,4.648005 0.03253,9.295993 0.04113,13.944023 0.0041,2.158051 0.0097,4.316077 0.01875,6.474111 0.0079,1.880436 0.01303,3.760856 0.0148,5.641308 10e-4,0.996151 0.0035,1.992257 0.0092,2.988395 0.0064,1.110678 0.0066,2.221275 0.0062,3.331972 0.0029,0.332094 0.0057,0.664186 0.0086,1.006345 -0.0011,0.301271 -0.0022,0.602541 -0.0033,0.91294 7.41e-4,0.262916 0.0015,0.52583 0.0022,0.79671 -0.03223,0.205574 -0.06446,0.411147 -0.09767,0.622946 -0.261937,0.174628 -0.523875,0.34925 -0.79375,0.529167 -0.174625,0.34925 -0.34925,0.6985 -0.529166,1.058333 -4.54025,0 -9.0805,0 -13.758333,0 -0.08731,-0.34925 -0.174625,-0.698497 -0.264584,-1.058333 -0.34925,-0.08731 -0.6985,-0.174625 -1.058333,-0.264584 2.44e-4,-0.177929 4.76e-4,-0.355862 7.41e-4,-0.539186 0.0059,-4.388988 0.01026,-8.777975 0.01297,-13.166966 0.0013,-2.122736 0.0032,-4.245469 0.0063,-6.368203 0.0035,-2.455275 0.0056,-4.91055 0.0059,-7.365828 2.4e-5,-0.200956 4.9e-5,-0.401913 7.3e-5,-0.60896 -2.1e-5,-5.04957 -0.03538,-10.094375 -0.18118,-15.142212 -0.138161,-4.812147 -0.128485,-9.619686 -0.07437,-14.433226 0.01059,-0.960411 0.01783,-1.920761 0.02222,-2.88122 0.0736,-15.585969 0.0736,-15.585969 3.681106,-19.48828 0.73819,-0.65497 1.411024,-0.926961 2.347144,-1.233 1.97373,-0.657911 3.865857,-0.332718 5.744349,0.458887 z"
       fill="#5c8453"
       id="path7"
       style="stroke-width:0.264583" />
    <path
       d="m 50.603845,8.150057 c 0.174625,0.261937 0.34925,0.523875 0.529167,0.79375 -0.174625,0.08731 -0.34925,0.174625 -0.529167,0.264583 -0.123092,0.501474 -0.123092,0.501474 -0.165365,1.07487 -0.04911,0.51569 -0.04911,0.51569 -0.09922,1.041797 -0.261938,0 -0.523875,0 -0.79375,0 0.654983,2.042515 1.376937,4.055853 2.116666,6.06888 0.770876,2.105656 1.515369,4.20503 2.116667,6.366536 0.05934,0.202934 0.11869,0.405867 0.179834,0.61495 0.45147,1.722389 0.39858,3.435722 0.349333,5.205884 -0.261938,0.08731 -0.523875,0.174625 -0.79375,0.264583 0.130968,1.309687 0.130968,1.309687 0.264583,2.645833 0.261937,0.08731 0.523875,0.174625 0.79375,0.264584 0,0.34925 0,0.6985 0,1.058333 -0.261938,0.08731 -0.523875,0.174625 -0.79375,0.264583 -0.02137,0.606187 -0.0368,1.212583 -0.04961,1.819011 -0.0092,0.337653 -0.01842,0.675306 -0.02791,1.023194 0.02558,0.284448 0.05116,0.568894 0.07752,0.861962 0.261937,0.174625 0.523875,0.34925 0.79375,0.529167 0.04961,0.694531 0.04961,0.694531 0,1.322916 -0.261938,0.08731 -0.523875,0.174625 -0.79375,0.264584 -0.02138,0.562075 -0.0368,1.124381 -0.04961,1.686718 -0.0092,0.313098 -0.01842,0.626195 -0.02791,0.94878 0.02558,0.265348 0.05116,0.530696 0.07752,0.804085 0.261937,0.174625 0.523875,0.34925 0.79375,0.529166 0.04961,0.694532 0.04961,0.694532 0,1.322917 -0.261938,0.08731 -0.523875,0.174625 -0.79375,0.264583 0,0.960438 0,1.920876 0,2.910417 0.261937,0.08731 0.523875,0.174625 0.79375,0.264583 0,0.611188 0,1.222375 0,1.852084 -1.571625,0 -3.14325,0 -4.7625,0 -0.01794,-2.702444 -0.0325,-5.404848 -0.04113,-8.107336 -0.0041,-1.254895 -0.0098,-2.509745 -0.01875,-3.764614 -0.0086,-1.211167 -0.01337,-2.422294 -0.01543,-3.633491 -0.0015,-0.461935 -0.0043,-0.92387 -0.0086,-1.38579 -0.0058,-0.647357 -0.0066,-1.294543 -0.0062,-1.941922 -0.0029,-0.190693 -0.0057,-0.381387 -0.0086,-0.577859 0.0072,-1.177417 0.225218,-1.853214 0.892508,-2.813988 1.06734,-3.259135 1.666799,-6.431209 0.337964,-9.713102 -0.644881,-1.155657 -1.480325,-1.515601 -2.719214,-1.928564 -1.620454,-0.132824 -2.414369,-0.02627 -3.704167,1.058333 -1.374792,1.374792 -1.608312,2.961781 -1.670182,4.828646 0.0361,1.737396 0.297714,3.63409 1.139207,5.178689 1.029228,1.937222 0.915115,3.884357 0.861705,6.016493 -0.0053,0.371546 -0.01015,0.743101 -0.01447,1.11466 -0.0124,0.901832 -0.03138,1.803572 -0.05168,2.705262 -1.135063,0 -2.270125,0 -3.439583,0 0,-1.135063 0,-2.270125 0,-3.439584 -0.34925,-0.08731 -0.6985,-0.174625 -1.058334,-0.264583 0,-0.34925 0,-0.6985 0,-1.058333 0.392907,-0.130969 0.392907,-0.130969 0.79375,-0.264584 0.02142,-0.38561 0.03682,-0.771559 0.04961,-1.157552 0.0092,-0.21487 0.01842,-0.429741 0.0279,-0.651123 -0.02558,-0.188949 -0.05116,-0.377899 -0.07751,-0.572575 -0.261937,-0.174625 -0.523875,-0.34925 -0.79375,-0.529166 -0.847073,-3.867646 1.30387,-8.437255 2.771924,-11.924854 0.828007,-2.048912 1.38533,-4.208492 1.990576,-6.331396 -0.174625,0 -0.34925,0 -0.529167,0 C 44.46679,10.79968 44.415118,10.274303 44.363441,9.748926 44.273291,9.129047 44.273291,9.129047 43.72472,8.41464 45.731704,6.766047 48.375099,7.075463 50.603887,8.150057 Z"
       fill="#8cb783"
       id="path20"
       style="stroke-width:0.264583" />
    <path
       d="m 49.065955,16.666333 c 1.456029,0.93833 2.251901,1.847539 2.726449,3.505729 0.548128,2.765939 -0.06113,5.451625 -0.923975,8.086328 -0.134983,0.195072 -0.269966,0.390143 -0.409039,0.591126 -0.493454,0.938639 -0.501171,1.765619 -0.49911,2.800721 -0.0027,0.204063 -0.0054,0.408126 -0.0082,0.618373 -0.008,0.671426 -0.01042,1.342752 -0.01282,2.014218 -0.0045,0.466743 -0.0093,0.933482 -0.01439,1.400218 -0.01256,1.22616 -0.02045,2.452307 -0.02737,3.67851 -0.0079,1.252156 -0.0202,2.504269 -0.03214,3.756392 -0.02275,2.455124 -0.04058,4.910257 -0.05529,7.365442 -0.79458,0.39729 -1.532117,0.289139 -2.414323,0.28112 -0.339018,-0.0024 -0.678036,-0.0048 -1.027328,-0.0072 -0.391883,-0.0046 -0.391883,-0.0046 -0.791683,-0.0093 -0.25212,-5.32943 -0.25212,-5.32943 1.024227,-7.402131 0.527843,-0.9461 0.453818,-1.583378 0.29869,-2.652035 -0.401788,-1.245768 -0.78772,-1.950136 -1.918229,-2.645834 -0.24011,-0.08731 -0.480219,-0.174625 -0.727604,-0.264583 0.261937,-0.130969 0.261937,-0.130969 0.529166,-0.264583 -0.0052,-1.077351 -0.01907,-2.154237 -0.04037,-3.231392 -0.0061,-0.365063 -0.0099,-0.730171 -0.01137,-1.095282 -0.01038,-2.198295 -0.169665,-3.947246 -1.220016,-5.901319 -1.106791,-2.173053 -1.212566,-5.114192 -0.547253,-7.432945 0.512936,-1.354054 1.346284,-2.53329 2.599325,-3.286621 1.199563,-0.484395 2.32963,-0.341914 3.502628,0.09508 z"
       fill="#65965a"
       id="path23"
       style="stroke-width:0.264583" />
    <path
       d="m 49.280929,29.84589 c 0.08731,0 0.174625,0 0.264583,0 0.08731,6.810375 0.174625,13.62075 0.264584,20.6375 0.611187,0.08731 1.222375,0.174625 1.852083,0.264583 -0.08731,0.174625 -0.174625,0.34925 -0.264583,0.529167 -1.027804,0.342601 -1.999943,0.297196 -3.070614,0.290421 -0.22204,-3.7e-4 -0.444079,-7.41e-4 -0.672847,-0.0011 -0.709004,-0.0015 -1.417985,-0.0048 -2.126982,-0.0082 -0.480763,-0.0013 -0.961526,-0.0025 -1.442289,-0.0036 -1.178404,-0.0029 -2.356791,-0.0075 -3.535185,-0.01292 0.255585,0.0066 0.51117,0.01326 0.774501,0.02009 9.348897,0.244607 9.348897,0.244607 13.248416,0.509077 0,0.08731 0,0.174625 0,0.264583 -1.571625,0.08731 -3.14325,0.174625 -4.7625,0.264583 -0.08731,3.754438 -0.174625,7.508875 -0.264584,11.377084 -0.08731,0 -0.174625,0 -0.264583,0 0,-3.754438 0,-7.508875 0,-11.377084 -1.222375,0 -2.44475,0 -3.704167,0 0,3.84175 0,7.6835 0,11.641667 -0.174625,0 -0.34925,0 -0.529166,0 -0.08731,-3.84175 -0.174625,-7.6835 -0.264584,-11.641667 -1.571625,-0.08731 -3.14325,-0.174625 -4.7625,-0.264583 0,-1.5875 0,-1.5875 0.264584,-1.852083 0.757416,-0.01938 1.508315,-0.02444 2.265495,-0.01654 0.213335,0.0012 0.426671,0.0024 0.646472,0.0036 0.528658,0.0031 1.057306,0.0079 1.585949,0.01292 0,-0.960438 0,-1.920875 0,-2.910417 -0.294679,0.335608 -0.294679,0.335608 -0.595312,0.677995 -0.727604,0.644922 -0.727604,0.644922 -1.227832,0.654223 -0.844657,-0.414505 -1.250494,-1.127165 -1.748731,-1.894456 -0.156516,-0.236837 -0.156516,-0.236837 -0.316195,-0.478459 -0.293026,-0.445835 -0.583804,-0.893147 -0.87443,-1.340551 -0.128581,-0.174284 -0.257162,-0.348568 -0.38964,-0.528133 -0.927144,-1.332562 -0.903499,-2.946265 -0.668693,-4.49895 0.661822,-1.27149 1.322598,-2.077054 2.645833,-2.645833 1.64779,-0.266225 2.969232,-0.06611 4.331519,0.913639 0.986995,0.93729 1.185721,1.963905 1.357023,3.270084 -0.02956,0.919932 -0.3043,1.452458 -0.777214,2.232422 -1.141934,2.04516 -0.918221,4.532381 -0.942578,6.813021 1.222375,0 2.44475,0 3.704167,0 0,-6.897687 0,-13.795375 0,-20.902083 z"
       fill="#537f4c"
       id="path40"
       style="stroke-width:0.264583" />
    <path
       d="m 39.226762,44.13339 c 0.802048,0.802048 1.388118,1.478743 2.017448,2.397786 0.156207,0.226808 0.312415,0.453616 0.473356,0.687297 0.31828,0.469581 0.634108,0.940826 0.948779,1.412833 0.51349,-0.07307 0.51349,-0.07307 1.058334,-0.264583 0.174625,-0.261937 0.34925,-0.523875 0.529166,-0.79375 0.174625,0 0.34925,0 0.529167,0 0,0.960438 0,1.920875 0,2.910417 -2.226469,0.130968 -2.226469,0.130968 -4.497917,0.264583 -0.08731,0.523875 -0.174625,1.04775 -0.264583,1.5875 1.571625,0 3.14325,0 4.7625,0 0,0.08731 0,0.174625 0,0.264583 -1.571625,0 -3.14325,0 -4.7625,0 0,0.6985 0,1.397 0,2.116667 0.169168,0.0382 0.338336,0.0764 0.51263,0.115755 0.545703,0.148828 0.545703,0.148828 0.810287,0.413412 0.01906,0.446111 0.02219,0.89297 0.01654,1.339453 -0.0024,0.243179 -0.0048,0.486358 -0.0072,0.736906 -0.0031,0.187926 -0.0061,0.375853 -0.0093,0.569474 -0.654844,0.130969 -0.654844,0.130969 -1.322917,0.264583 0,0.436563 0,0.873125 0,1.322917 0.436562,0.08731 0.873125,0.174625 1.322917,0.264583 0,1.309688 0,2.619375 0,3.96875 -0.523875,0.261938 -0.523875,0.261938 -1.058334,0.529167 0,0.34925 0,0.6985 0,1.058333 0.174625,0 0.34925,0 0.529167,0 0,0.174625 0,0.34925 0,0.529167 0.174625,0 0.34925,0 0.529167,0 0,1.135062 0,2.270125 0,3.439583 -0.523875,0.261938 -0.523875,0.261938 -1.058334,0.529167 0.198835,0.867235 0.198835,0.867235 1.058334,1.322916 0.08682,0.84336 0.08682,0.84336 0.06615,1.852084 -0.0041,0.33288 -0.0082,0.665758 -0.0124,1.008724 -0.05374,0.843359 -0.05374,0.843359 -0.318327,1.372526 -0.261937,0 -0.523875,0 -0.79375,0 0,0.261937 0,0.523875 0,0.79375 0.261938,0.08731 0.523875,0.174625 0.79375,0.264583 0.01425,0.606269 0.02453,1.212633 0.03307,1.81901 0.0061,0.337654 0.01228,0.675307 0.0186,1.023194 -0.05168,0.861963 -0.05168,0.861963 -0.580843,1.391129 -0.170001,0.547354 -0.170001,0.547354 -0.264584,1.058334 0.34925,0.08731 0.6985,0.174625 1.058334,0.264583 0,0.873125 0,1.74625 0,2.645833 -0.523875,0.261938 -0.523875,0.261938 -1.058334,0.529167 0,0.611187 0,1.222375 0,1.852083 1.484313,0 2.968625,0 4.497917,0 0,0.08731 0,0.174625 0,0.264584 -1.04775,0.08731 -2.0955,0.174625 -3.175,0.264583 5.893594,0.130969 5.893594,0.130969 11.90625,0.264583 0,0.174625 0,0.34925 0,0.529167 -4.103688,0 -8.207375,0 -12.435417,0 0,0.174625 0,0.34925 0,0.529167 1.756558,-0.0177 3.512958,-0.04145 5.269381,-0.06944 0.597705,-0.0088 1.195433,-0.01622 1.793173,-0.02222 0.858463,-0.0089 1.716722,-0.0227 2.575101,-0.03753 0.401869,-0.0026 0.401869,-0.0026 0.811857,-0.0051 0.248906,-0.0052 0.497813,-0.01048 0.754262,-0.01588 0.219151,-0.0029 0.438302,-0.0059 0.664094,-0.0089 0.687092,-0.127711 0.924779,-0.367437 1.361299,-0.899242 0.174625,0.08731 0.34925,0.174625 0.529166,0.264584 -0.174625,0.34925 -0.34925,0.6985 -0.529166,1.058333 -4.54025,0 -9.0805,0 -13.758333,0 -0.08731,-0.34925 -0.174625,-0.6985 -0.264584,-1.058333 -0.34925,-0.08731 -0.6985,-0.174625 -1.058333,-0.264584 0,-14.406562 0,-28.813124 0,-43.656249 z"
       fill="#5f8058"
       id="path42"
       style="stroke-width:0.264583" />
    <path
       d="m 49.810095,52.600056 c 1.484312,0 2.968625,0 4.497917,0 0,0.6985 0,1.397 0,2.116667 -0.261938,0.130968 -0.261938,0.130968 -0.529167,0.264583 0,0.960437 0,1.920875 0,2.910417 0.174625,0.08731 0.34925,0.174625 0.529167,0.264583 0.04961,0.628385 0.04961,0.628385 0,1.322917 -0.261938,0.174625 -0.523875,0.34925 -0.79375,0.529166 -0.127144,0.868534 -0.127144,0.868534 -0.09922,1.852084 -0.002,0.332878 -0.0041,0.665757 -0.0062,1.008723 0.03479,0.278309 0.06958,0.556618 0.105421,0.84336 0.261937,0.174625 0.523875,0.34925 0.79375,0.529167 -0.231511,1.289843 -0.231511,1.289843 -0.529167,1.587499 -0.01924,0.622601 -0.02215,1.245748 -0.01654,1.86862 0.0024,0.341406 0.0048,0.682811 0.0072,1.034562 0.0031,0.264325 0.0061,0.52865 0.0093,0.800985 0.174625,0.08731 0.34925,0.174625 0.529167,0.264583 0,0.34925 0,0.6985 0,1.058334 -0.261938,0.130969 -0.261938,0.130969 -0.529167,0.264583 -0.01425,0.60627 -0.02453,1.212634 -0.03307,1.81901 -0.0061,0.337654 -0.01228,0.675308 -0.0186,1.023194 -0.04263,0.884699 -0.04263,0.884699 0.580843,1.391129 0,0.261938 0,0.523875 0,0.79375 -0.261938,0.130969 -0.261938,0.130969 -0.529167,0.264584 0,1.309687 0,2.619375 0,3.96875 0.174625,0.08731 0.34925,0.174625 0.529167,0.264583 0,0.34925 0,0.6985 0,1.058333 -0.174625,0 -0.34925,0 -0.529167,0 0,1.04775 0,2.0955 0,3.175 0.261937,0.08731 0.523875,0.174625 0.79375,0.264584 0,0.611187 0,1.222375 0,1.852083 -1.571625,0 -3.14325,0 -4.7625,0 0,-0.960438 0,-1.920875 0,-2.910417 0.300137,-0.0764 0.600273,-0.152797 0.909505,-0.23151 0.311051,-0.09823 0.622102,-0.196453 0.942578,-0.297656 0.362115,-0.724228 0.304254,-1.307793 0.311415,-2.118477 0.0034,-0.333854 0.0068,-0.667708 0.01029,-1.011679 0.0022,-0.366345 0.0041,-0.732695 0.0059,-1.099042 0.0011,-0.184354 0.0022,-0.368704 0.0033,-0.558642 0.0055,-0.976247 0.0093,-1.952484 0.01178,-2.928744 0.0029,-1.006554 0.01202,-2.012953 0.02254,-3.019453 0.0069,-0.775392 0.0091,-1.550748 0.01008,-2.326169 0.0013,-0.37089 0.0044,-0.741778 0.0093,-1.112638 0.0065,-0.52043 0.0056,-1.040936 0.0044,-1.561405 0.0016,-0.295698 0.0031,-0.591395 0.0047,-0.896053 -0.161856,-1.041245 -0.524063,-1.606039 -1.187384,-2.417698 -0.34925,-0.174625 -0.6985,-0.34925 -1.058333,-0.529167 0,-3.754437 0,-7.508875 0,-11.377083 z"
       fill="#8eb886"
       id="path46"
       style="stroke-width:0.264583" />
    <path
       d="m 40.020512,52.600056 c 1.571625,0 3.14325,0 4.7625,0 0.03929,1.596019 0.06807,3.191756 0.0872,4.788144 0.008,0.542825 0.0188,1.085616 0.03256,1.628325 0.01929,0.78098 0.02827,1.56151 0.03527,2.342686 0.0082,0.242032 0.01639,0.484064 0.02483,0.73343 8.73e-4,1.6653 8.73e-4,1.6653 -0.525235,2.303376 -0.399848,0.319938 -0.820668,0.613152 -1.242123,0.904039 -0.591486,0.879708 -0.59879,1.648097 -0.606035,2.691825 -0.0034,0.330225 -0.0068,0.66045 -0.01023,1.000682 -8.09e-4,0.35942 -0.0014,0.71884 -0.0018,1.078261 -0.0017,0.36967 -0.0035,0.739339 -0.0053,1.109008 -0.0032,0.773982 -0.0041,1.547932 -0.0038,2.321919 5.4e-5,0.991181 -0.0072,1.982162 -0.01628,2.973295 -0.0059,0.76312 -0.007,1.526192 -0.0067,2.289332 -6.25e-4,0.365417 -0.003,0.730833 -0.0071,1.096228 -0.0052,0.510987 -0.003,1.022032 -4.74e-4,1.53304 -0.0011,0.435864 -0.0011,0.435864 -0.0023,0.880534 0.161858,0.931529 0.450836,1.238625 1.189164,1.811292 0.698988,0.210823 0.698988,0.210823 1.322916,0.264584 0,0.873125 0,1.74625 0,2.645833 -1.571625,0 -3.14325,0 -4.7625,0 0,-0.611188 0,-1.222375 0,-1.852083 0.392907,-0.261938 0.392907,-0.261938 0.79375,-0.529167 0.153959,-0.64167 0.153959,-0.64167 0.181901,-1.35599 0.0174,-0.240792 0.03479,-0.481584 0.05271,-0.72967 0.0099,-0.184857 0.01978,-0.369716 0.02997,-0.560173 -0.34925,-0.08731 -0.6985,-0.174625 -1.058334,-0.264584 0.231511,-1.289843 0.231511,-1.289843 0.529167,-1.5875 0.01924,-0.622601 0.02215,-1.245747 0.01654,-1.868619 -0.0036,-0.512109 -0.0036,-0.512109 -0.0072,-1.034563 -0.0031,-0.264325 -0.0061,-0.528649 -0.0093,-0.800984 -0.174625,-0.08731 -0.34925,-0.174625 -0.529167,-0.264584 0,-0.261937 0,-0.523875 0,-0.79375 0.261938,0 0.523875,0 0.79375,0 0.02136,-0.694693 0.03714,-1.388733 0.04961,-2.083593 0.0067,-0.197477 0.0133,-0.394953 0.02015,-0.598413 0.01752,-0.641747 0.01752,-0.641747 -0.06976,-1.551327 -0.261937,-0.174625 -0.523875,-0.34925 -0.79375,-0.529167 0,-0.261937 0,-0.523875 0,-0.79375 0.261938,-0.174625 0.523875,-0.34925 0.79375,-0.529166 0.155027,-0.82447 0.155027,-0.82447 0.181901,-1.752865 0.0174,-0.314461 0.03479,-0.628923 0.05271,-0.952913 0.0099,-0.242156 0.01978,-0.484312 0.02997,-0.733806 -0.174625,0 -0.34925,0 -0.529167,0 0,-0.174624 0,-0.349249 0,-0.529166 -0.174625,0 -0.34925,0 -0.529167,0 0,-0.34925 0,-0.6985 0,-1.058333 0.261938,-0.174625 0.523875,-0.34925 0.79375,-0.529167 0.05857,-0.695053 0.07451,-1.325282 0.04961,-2.017448 -0.0036,-0.186903 -0.0072,-0.373807 -0.01085,-0.566374 -0.0094,-0.461728 -0.0236,-0.923353 -0.03876,-1.384928 -0.34925,-0.08731 -0.6985,-0.174625 -1.058333,-0.264583 0,-0.436563 0,-0.873125 0,-1.322917 0.34925,-0.08731 0.6985,-0.174625 1.058333,-0.264583 0,-0.873125 0,-1.74625 0,-2.645834 -0.34925,-0.174625 -0.6985,-0.34925 -1.058333,-0.529166 0,-0.6985 0,-1.397 0,-2.116667 z"
       fill="#8bb682"
       id="path48"
       style="stroke-width:0.264583" />
    <path
       d="m 45.576762,52.600056 c 1.135062,0 2.270125,0 3.439583,0 0.0037,0.522756 0.0037,0.522756 0.0075,1.056072 0.01054,1.291486 0.02793,2.582803 0.04741,3.874183 0.0075,0.559203 0.01308,1.118434 0.0168,1.677675 0.0057,0.803349 0.01799,1.606359 0.03165,2.409607 3.18e-4,0.250551 6.62e-4,0.501101 9.79e-4,0.759244 0.01433,0.639783 0.0339,1.237494 0.160251,1.864886 0.501368,0.503171 0.501368,0.503171 1.058333,0.79375 0.120148,0.503005 0.120148,0.503005 0.103353,1.061433 -0.0026,0.180658 -0.0053,0.361315 -0.008,0.547448 -0.01445,0.341395 -0.01445,0.341395 -0.0292,0.689686 -0.02183,0.725785 -0.04366,1.45157 -0.06615,2.199349 -2.008188,0 -4.016375,0 -6.085417,0 -0.02183,-0.725785 -0.04366,-1.45157 -0.06614,-2.199349 -0.0096,-0.227597 -0.01927,-0.455193 -0.0292,-0.689686 -0.0026,-0.180658 -0.0053,-0.361316 -0.008,-0.547448 -0.0055,-0.184281 -0.01108,-0.368562 -0.01679,-0.558428 0.03965,-0.165992 0.0793,-0.331984 0.120147,-0.503005 0.260147,-0.148108 0.260147,-0.148108 0.52555,-0.299207 0.64865,-0.602094 0.6235,-0.793055 0.677219,-1.653323 0.01094,-0.488359 0.01616,-0.976868 0.0168,-1.46535 0.0044,-0.257276 0.0088,-0.514551 0.01326,-0.779623 0.01286,-0.822247 0.01849,-1.644364 0.02395,-2.46669 0.0074,-0.557251 0.01537,-1.114495 0.02377,-1.671733 0.01958,-1.366486 0.03268,-2.7329 0.04238,-4.099491 z"
       fill="#6da161"
       id="path56"
       style="stroke-width:0.264583" />
    <path
       d="m 52.985095,9.20839 c 1.510449,1.868076 1.698237,4.20323 1.945682,6.519757 0.09554,1.00578 0.09554,1.00578 0.435568,1.94691 0.263877,1.845386 0.30087,3.655684 0.29462,5.517557 3.9e-5,0.304862 7.7e-5,0.609724 1.17e-4,0.923825 -1.83e-4,1.000661 -0.0022,2.001309 -0.0043,3.001969 -5.03e-4,0.696575 -8.73e-4,1.39315 -0.0011,2.089726 -8.2e-4,1.64163 -0.003,3.283255 -0.0056,4.924884 -0.003,1.870337 -0.0044,3.740677 -0.0057,5.611016 -0.0028,3.844372 -0.0074,7.688739 -0.01331,11.533105 -0.174625,0 -0.34925,0 -0.529167,0 0,0.174625 0,0.34925 0,0.529167 0.174625,0 0.34925,0 0.529167,0 0,11.787187 0,23.574375 0,35.71875 -0.08731,0 -0.174625,0 -0.264584,0 0,-11.350625 0,-22.70125 0,-34.395833 -0.261937,0 -0.523875,0 -0.79375,0 0,0.523875 0,1.04775 0,1.5875 0.174625,0 0.34925,0 0.529167,0 0.06615,2.017448 0.06615,2.017448 -0.529167,2.910416 -0.174625,0 -0.34925,0 -0.529166,0 0.0031,-0.165756 0.0061,-0.331515 0.0093,-0.502295 0.0024,-0.216234 0.0048,-0.43247 0.0072,-0.655257 0.0031,-0.21487 0.0061,-0.429741 0.0093,-0.651123 0.01244,-0.585637 0.01244,-0.585637 -0.290421,-1.101741 0.174625,0 0.34925,0 0.529167,0 0,-0.6985 0,-1.397 0,-2.116667 -1.484313,0 -2.968625,0 -4.497917,0 0,-0.174625 0,-0.34925 0,-0.529167 -4.714875,-0.130968 -4.714875,-0.130968 -9.525,-0.264583 0.130969,-0.261937 0.130969,-0.261937 0.264583,-0.529167 0.300414,0.0013 0.600828,0.0028 0.910345,0.0042 1.113884,0.0048 2.227766,0.0078 3.341657,0.01035 0.482229,0.0013 0.964456,0.0031 1.446682,0.0054 0.692876,0.0032 1.385737,0.0047 2.078619,0.0059 0.215826,0.0013 0.431652,0.0027 0.654018,0.0041 0.874112,8.4e-5 1.581368,-0.01614 2.416596,-0.294561 -0.523875,-0.08731 -1.04775,-0.174625 -1.5875,-0.264583 0,-0.08731 0,-0.174625 0,-0.264584 1.571625,0 3.14325,0 4.7625,0 0,-0.611187 0,-1.222375 0,-1.852083 -0.34925,-0.08731 -0.6985,-0.174625 -1.058333,-0.264583 0,-0.960438 0,-1.920875 0,-2.910417 0.34925,-0.08731 0.6985,-0.174625 1.058333,-0.264583 0,-0.436563 0,-0.873125 0,-1.322917 -0.174625,-0.08731 -0.34925,-0.174625 -0.529167,-0.264583 0,-1.135063 0,-2.270125 0,-3.439583 0.174625,0 0.34925,0 0.529167,0 0.130969,1.440656 0.130969,1.440656 0.264583,2.910416 0.230521,-1.152602 0.300574,-2.180825 0.294621,-3.343272 3.8e-5,-0.198901 7.7e-5,-0.397804 1.17e-4,-0.602732 -1.84e-4,-0.654235 -0.0022,-1.308449 -0.0043,-1.962679 -6.17e-4,-0.454846 -9.93e-4,-0.909723 -0.0013,-1.364597 -10e-4,-1.194856 -0.0036,-2.389703 -0.0065,-3.584556 -0.0027,-1.220209 -0.0039,-2.440419 -0.0052,-3.660629 -0.0028,-2.392451 -0.0073,-4.784895 -0.01292,-7.17734 -0.261938,0 -0.523875,0 -0.79375,0 -0.02929,-0.217194 -0.05858,-0.434388 -0.08876,-0.658164 -0.110921,-0.820134 -0.222442,-1.640185 -0.334346,-2.460186 -0.07129,-0.5237 -0.141913,-1.047492 -0.212519,-1.571286 -0.243173,-1.778759 -0.508246,-3.543331 -0.865581,-5.303035 -0.112384,-0.769196 -0.02369,-1.430875 0.178284,-2.178162 z"
       fill="#6f8c69"
       id="path69"
       style="stroke-width:0.264583" />
    <path
       d="m 47.263481,20.519328 c 0.209414,-0.0068 0.418827,-0.01364 0.634587,-0.02067 0.723827,0.10667 0.93815,0.312325 1.382861,0.880567 0.0764,0.185539 0.152797,0.371078 0.23151,0.562239 0.266882,0.572836 0.266882,0.572836 0.992188,0.694532 0.207367,0.02183 0.414734,0.04366 0.628385,0.06615 0.09933,2.334298 -0.397944,4.33136 -1.5875,6.35 -0.527325,0.527326 -1.498177,0.349128 -2.215885,0.363802 -0.27217,0.01483 -0.27217,0.01483 -0.549837,0.02997 -0.531234,0.0093 -0.531234,0.0093 -1.467611,-0.129191 -0.486792,-0.580843 -0.486792,-0.580843 -0.79375,-1.322916 -0.152968,-0.337654 -0.152968,-0.337654 -0.309025,-0.682129 -0.617345,-1.617869 -0.862767,-2.879296 -0.749308,-4.609538 0.196453,-0.01091 0.392906,-0.02183 0.595312,-0.03307 1.019434,-0.324366 1.260394,-0.91808 1.785938,-1.819011 0.417836,-0.417836 0.845195,-0.319526 1.422135,-0.330729 z"
       fill="#8ab782"
       id="path74"
       style="stroke-width:0.264583" />
    <path
       d="m 43.989262,38.047973 c 0.810286,0.363802 0.810286,0.363802 1.322917,0.79375 0,0.174625 0,0.34925 0,0.529167 0.261937,0.08731 0.523875,0.174625 0.79375,0.264583 0.5506,1.651802 0.468986,3.205044 -0.28112,4.779037 -0.73701,1.336359 -1.650847,2.520257 -2.629297,3.68763 -1.529316,-1.439357 -3.29066,-3.196802 -3.537769,-5.355746 -0.05327,-2.914192 -0.05327,-2.914192 0.726571,-3.855061 1.17377,-0.978142 2.115345,-0.99232 3.604948,-0.84336 z"
       fill="#936057"
       id="path78"
       style="stroke-width:0.264583" />
    <path
       d="m 43.460095,65.829223 c 0.08731,0 0.174625,0 0.264583,0 0.08731,2.182812 0.174625,4.365625 0.264584,6.614583 0.916781,-0.130968 0.916781,-0.130968 1.852083,-0.264583 -0.523875,-0.08731 -1.04775,-0.174625 -1.5875,-0.264583 0,-0.523875 0,-1.04775 0,-1.5875 2.008187,0 4.016375,0 6.085417,0 0,0.523875 0,1.04775 0,1.5875 -0.785813,0 -1.571625,0 -2.38125,0 -0.08731,-0.34925 -0.174625,-0.6985 -0.264584,-1.058334 -0.174625,0 -0.34925,0 -0.529166,0 0.242151,0.650579 0.48467,1.301016 0.727604,1.951302 0.07184,0.192403 0.143673,0.384806 0.217687,0.58304 0.48626,1.297173 0.991672,2.584458 1.524842,3.8632 0.1757,0.481625 0.1757,0.481625 0.1757,1.010792 -1.658938,0 -3.317875,0 -5.027083,0 0,-0.261938 0,-0.523875 0,-0.79375 -0.261938,0 -0.523875,0 -0.79375,0 0,0.174625 0,0.34925 0,0.529166 -0.261938,0 -0.523875,0 -0.79375,0 -0.316056,-1.127193 -0.307453,-2.228131 -0.309025,-3.391007 -8.81e-4,-0.225656 -0.0018,-0.451311 -0.0027,-0.683805 -0.0013,-0.476133 -0.002,-0.952269 -0.0019,-1.428405 -5.8e-4,-0.729303 -0.0054,-1.458502 -0.0104,-2.187786 -7.75e-4,-0.462848 -0.0013,-0.925697 -0.0016,-1.388546 -0.0019,-0.218293 -0.0038,-0.436586 -0.0058,-0.661495 0.0041,-1.03516 0.0086,-1.548838 0.595907,-2.429789 z"
       fill="#5e8c54"
       id="path83"
       style="stroke-width:0.264583" />
    <path
       d="m 44.253845,79.058389 c 2.008187,0 4.016375,0 6.085417,0 0.174625,1.222375 0.34925,2.44475 0.529166,3.704167 0.08731,-1.222375 0.174625,-2.44475 0.264584,-3.704167 0.174625,0 0.34925,0 0.529166,0 0.0071,0.600807 0.01228,1.201639 0.01654,1.802474 0.0031,0.334584 0.0061,0.669168 0.0093,1.013891 -0.02584,0.887802 -0.02584,0.887802 -0.290422,1.681552 -0.436563,0.08731 -0.873125,0.174625 -1.322917,0.264583 -0.08731,1.04775 -0.174625,2.0955 -0.264583,3.175 -1.397,0 -2.794,0 -4.233333,0 -0.08731,-1.04775 -0.174625,-2.0955 -0.264584,-3.175 -0.34925,-0.08731 -0.6985,-0.174625 -1.058333,-0.264583 0,-1.484313 0,-2.968625 -1e-6,-4.497917 z"
       fill="#6c9f60"
       id="path87"
       style="stroke-width:0.264583" />
    <path
       d="m 39.226762,44.13339 c 0.77136,0.755469 1.406711,1.505895 2.017448,2.397786 0.156207,0.226808 0.312415,0.453616 0.473356,0.687297 0.31828,0.469581 0.634108,0.940826 0.948779,1.412833 0.51349,-0.07307 0.51349,-0.07307 1.058334,-0.264583 0.174625,-0.261937 0.34925,-0.523875 0.529166,-0.79375 0.174625,0 0.34925,0 0.529167,0 0,0.960438 0,1.920875 0,2.910417 -2.226469,0.130968 -2.226469,0.130968 -4.497917,0.264583 -0.08731,0.523875 -0.174625,1.04775 -0.264583,1.5875 1.571625,0 3.14325,0 4.7625,0 0,0.08731 0,0.174625 0,0.264583 -1.571625,0 -3.14325,0 -4.7625,0 0,0.6985 0,1.397 0,2.116667 0.169168,0.0382 0.338336,0.0764 0.51263,0.115755 0.545703,0.148828 0.545703,0.148828 0.810287,0.413412 0.01906,0.446111 0.02219,0.89297 0.01654,1.339453 -0.0024,0.243179 -0.0048,0.486358 -0.0072,0.736906 -0.0031,0.187926 -0.0061,0.375853 -0.0093,0.569474 -0.654844,0.130969 -0.654844,0.130969 -1.322917,0.264583 0,0.436563 0,0.873125 0,1.322917 0.436562,0.08731 0.873125,0.174625 1.322917,0.264583 0,1.309688 0,2.619375 0,3.96875 -0.523875,0.261938 -0.523875,0.261938 -1.058334,0.529167 0,0.34925 0,0.6985 0,1.058333 0.174625,0 0.34925,0 0.529167,0 0,0.174625 0,0.34925 0,0.529167 0.174625,0 0.34925,0 0.529167,0 0,1.135062 0,2.270125 0,3.439583 -0.174625,0 -0.34925,0 -0.529167,0 0,-0.960437 0,-1.920875 0,-2.910416 -0.261938,0 -0.523875,0 -0.79375,0 -0.130969,0.261937 -0.130969,0.261937 -0.264583,0.529166 -0.264584,-0.264583 -0.264584,-0.264583 -0.294621,-0.867163 0.0014,-0.266531 0.0028,-0.533062 0.0042,-0.80767 8.74e-4,-0.301064 0.0017,-0.602128 0.0026,-0.912315 0.0022,-0.327688 0.0044,-0.655377 0.0067,-0.992995 10e-4,-0.333742 0.002,-0.667484 0.003,-1.01134 0.0038,-1.253513 0.01,-2.507007 0.01625,-3.76051 0.006,-1.226091 0.01011,-2.452179 0.01379,-3.67828 0.0022,-0.327688 0.0044,-0.655377 0.0067,-0.992995 8.73e-4,-0.301064 0.0017,-0.602128 0.0026,-0.912315 0.0014,-0.266531 0.0028,-0.533063 0.0042,-0.80767 0.03796,-0.593763 0.03796,-0.593763 -0.29462,-0.867163 -0.02317,-0.529074 -0.0283,-1.058958 -0.02584,-1.588534 8.52e-4,-0.321453 0.0017,-0.642906 0.0026,-0.974101 0.0022,-0.338506 0.0044,-0.677012 0.0067,-1.025777 0.0012,-0.339529 0.0024,-0.679059 0.0036,-1.028878 0.0031,-0.842165 0.0075,-1.684307 0.01292,-2.52646 z"
       fill="#567a4d"
       id="path92"
       style="stroke-width:0.264583" />
    <path
       d="m 49.016345,52.600056 c 0.261937,0 0.523875,0 0.79375,0 0,3.754437 0,7.508875 0,11.377083 0.436562,0.174625 0.873125,0.34925 1.322917,0.529167 0.549519,0.477559 0.762915,0.835823 0.863166,1.559247 0.03171,0.638376 0.03359,1.27118 0.0267,1.910308 1.32e-4,0.234891 2.64e-4,0.469782 3.97e-4,0.711791 -6.09e-4,0.496612 -0.0032,0.993226 -0.0076,1.489819 -0.0062,0.756038 -0.0054,1.511828 -0.0037,2.267885 -0.0015,0.483521 -0.0034,0.96704 -0.0057,1.450557 3.7e-4,0.336609 3.7e-4,0.336609 7.41e-4,0.680018 -0.01568,1.327451 -0.184264,2.429553 -0.609484,3.688708 -0.392906,-0.130969 -0.392906,-0.130969 -0.79375,-0.264583 -0.08731,0.261937 -0.174625,0.523875 -0.264583,0.79375 -0.261938,0 -0.523875,0 -0.79375,0 0,-0.611188 0,-1.222375 0,-1.852084 -1.309688,0 -2.619375,0 -3.96875,0 0,-0.08731 0,-0.174625 0,-0.264583 1.222375,0 2.44475,0 3.704166,0 -0.130627,-0.287176 -0.261255,-0.574352 -0.395841,-0.870231 -0.171318,-0.382362 -0.342534,-0.76477 -0.513664,-1.147217 -0.08612,-0.188609 -0.172237,-0.377217 -0.260966,-0.571541 -0.479923,-1.07859 -0.81339,-2.045946 -0.946195,-3.231844 0.174625,0 0.34925,0 0.529166,0 0.08731,0.261937 0.174625,0.523875 0.264584,0.79375 0.785812,0.08731 1.571625,0.174625 2.38125,0.264583 0,-0.523875 0,-1.04775 0,-1.5875 C 49.702765,70.008922 49.253437,70.008801 48.542926,69.97884 48.293949,69.96775 48.044972,69.95667 47.78845,69.94525 47.527877,69.93485 47.267304,69.92445 46.998834,69.91373 46.736214,69.9023 46.473595,69.89088 46.203017,69.87911 45.55331,69.851 44.903576,69.824 44.253782,69.79798 c 0,-0.08731 0,-0.174625 0,-0.264583 2.008188,0 4.016375,0 6.085417,0 -0.02183,-0.725785 -0.04366,-1.45157 -0.06615,-2.199349 -0.0042,-0.227597 -0.0084,-0.455193 -0.01266,-0.689686 -0.0081,-0.180658 -0.0162,-0.361316 -0.02455,-0.547448 -0.0055,-0.184281 -0.01109,-0.368562 -0.0168,-0.558428 -0.09649,-0.558183 -0.09649,-0.558183 -0.67722,-0.802212 -0.643792,-0.60581 -0.610517,-0.793134 -0.645697,-1.653323 1.68e-4,-0.488482 0.0061,-0.976984 0.0168,-1.46535 0.0015,-0.257276 0.003,-0.514551 0.0045,-0.779623 0.0059,-0.822362 0.01921,-1.64442 0.03267,-2.46669 0.0053,-0.55724 0.01014,-1.114484 0.01447,-1.671733 0.01167,-1.366614 0.02994,-2.733001 0.05168,-4.099491 z"
       fill="#55834c"
       id="path93"
       style="stroke-width:0.264583" />
    <path
       d="m 40.814262,13.17714 c 0.08731,0 0.174625,0 0.264583,0 -0.01603,0.202933 -0.03206,0.405867 -0.04858,0.61495 -0.217409,2.879842 -0.349452,5.760424 -0.48059,8.645467 0.6985,-1.920875 1.397,-3.84175 2.116666,-5.820834 0.174625,0 0.34925,0 0.529167,0 -0.08848,1.194454 -0.253332,2.172683 -0.727604,3.274219 -1.303548,3.09891 -2.1174,6.324604 -2.182813,9.690364 0.34925,0.174625 0.6985,0.34925 1.058334,0.529167 0,0.785813 0,1.571625 0,2.38125 -0.523875,0.130969 -0.523875,0.130969 -1.058334,0.264583 0,0.34925 0,0.6985 0,1.058334 0.34925,0.08731 0.6985,0.174625 1.058334,0.264583 0.08731,1.222375 0.174625,2.44475 0.264583,3.704167 -0.79375,0.529166 -1.5875,1.058333 -2.38125,1.5875 -0.01847,-2.739442 -0.03253,-5.478869 -0.04113,-8.218361 -0.0041,-1.272339 -0.0097,-2.544636 -0.01875,-3.816951 -0.0087,-1.230047 -0.01338,-2.460052 -0.01543,-3.690127 -0.0015,-0.467053 -0.0043,-0.934103 -0.0086,-1.401138 -0.02815,-3.175131 0.02364,-6.2424 1.671423,-9.067173 z"
       fill="#597b54"
       id="path96"
       style="stroke-width:0.264583" />
    <path
       d="m 54.572595,20.056307 c 0.174625,0.34925 0.34925,0.6985 0.529167,1.058333 0.08731,0.08731 0.174625,0.174625 0.264583,0.264584 0.02653,0.627525 0.03603,1.247348 0.03424,1.875014 4.63e-4,0.196198 9.26e-4,0.392395 0.0014,0.594538 0.0012,0.652356 3.91e-4,1.304694 -5.01e-4,1.957051 1.79e-4,0.452584 4.34e-4,0.905169 7.68e-4,1.357754 3.91e-4,0.950885 -1.8e-4,1.901763 -0.0014,2.852648 -0.0015,1.216785 -6.43e-4,2.433556 9.44e-4,3.650341 9.58e-4,0.935858 6.51e-4,1.871713 -3.3e-5,2.807572 -1.77e-4,0.448419 3.9e-5,0.896839 6.56e-4,1.345258 6.75e-4,0.628858 -3.57e-4,1.257691 -0.0018,1.886547 5.35e-4,0.184379 0.0011,0.368757 0.0016,0.558723 -0.0045,1.051899 -0.09867,2.042708 -0.300441,3.07497 -0.174625,-0.08731 -0.34925,-0.174625 -0.529167,-0.264583 0,-0.960438 0,-1.920875 0,-2.910417 -0.174625,0 -0.34925,0 -0.529167,0 0.08731,1.135063 0.174625,2.270125 0.264584,3.439583 -0.261938,-0.08731 -0.523875,-0.174625 -0.79375,-0.264583 0,-1.135062 0,-2.270125 0,-3.439583 0.523859,-0.130969 0.523859,-0.130969 1.058317,-0.264584 -0.07153,-0.644835 -0.07153,-0.644835 -0.264583,-1.322916 -0.261938,-0.174625 -0.523875,-0.34925 -0.79375,-0.529167 -0.07752,-0.861963 -0.07752,-0.861963 -0.04961,-1.885156 0.0072,-0.339018 0.01432,-0.678036 0.0217,-1.027328 0.0092,-0.261255 0.01842,-0.52251 0.02791,-0.791683 0.523875,-0.130968 0.523875,-0.130968 1.058333,-0.264583 0,-0.34925 0,-0.6985 0,-1.058333 -0.34925,-0.08731 -0.6985,-0.174625 -1.058333,-0.264584 0,-0.873125 0,-1.74625 0,-2.645833 0.261937,-0.130969 0.261937,-0.130969 0.529166,-0.264583 0,-1.74625 0,-3.4925 0,-5.291667 0.08731,0 0.174625,0 0.264584,0 0.08731,-1.397 0.174625,-2.794 0.264583,-4.233333 z"
       fill="#5a7654"
       id="path111"
       style="stroke-width:0.264583" />
    <path
       d="m 44.253845,10.266724 c 0.08731,0.34925 0.174625,0.6985 0.264583,1.058333 0.174625,0 0.34925,0 0.529167,0 -0.163156,1.427144 -0.497212,2.720963 -0.942578,4.084505 -0.0619,0.193555 -0.123807,0.387109 -0.187586,0.586528 -0.151126,0.471886 -0.304045,0.943197 -0.457336,1.414384 -0.08731,-0.261938 -0.174625,-0.523875 -0.264583,-0.79375 -0.174625,0 -0.34925,0 -0.529167,0 -0.03477,0.192936 -0.06953,0.385872 -0.105355,0.584654 -0.148445,0.688267 -0.343837,1.308642 -0.59021,1.967128 -0.08271,0.222545 -0.165416,0.445089 -0.25063,0.674377 -0.08612,0.228684 -0.172238,0.457368 -0.260966,0.692981 -0.130713,0.3507 -0.130713,0.3507 -0.264067,0.708484 -0.214259,0.574464 -0.42943,1.148568 -0.645439,1.722376 -0.08731,0 -0.174625,0 -0.264583,0 -0.02743,-1.766998 0.036,-3.500576 0.214974,-5.258594 0.023,-0.228812 0.046,-0.457623 0.0697,-0.693368 0.207531,-1.913719 0.432426,-3.948904 1.302827,-5.689705 0.611188,0.08731 1.222375,0.174625 1.852083,0.264584 0.174625,-0.436563 0.34925,-0.873125 0.529166,-1.322917 z"
       fill="#6a9c5e"
       id="path132"
       style="stroke-width:0.264583" />
    <path
       d="m 52.985095,9.20839 c 1.510449,1.868076 1.698237,4.20323 1.945682,6.519757 0.09554,1.00578 0.09554,1.00578 0.435568,1.94691 0.263877,1.845386 0.30087,3.655684 0.29462,5.517557 3.9e-5,0.304862 7.7e-5,0.609724 1.17e-4,0.923825 -1.83e-4,1.000661 -0.0022,2.001309 -0.0043,3.001969 -5.03e-4,0.696575 -8.73e-4,1.39315 -0.0011,2.089726 -8.2e-4,1.64163 -0.003,3.283255 -0.0056,4.924884 -0.003,1.870337 -0.0044,3.740677 -0.0057,5.611016 -0.0028,3.844372 -0.0074,7.688739 -0.01331,11.533105 -0.08731,0 -0.174625,0 -0.264583,0 C 55.23552,36.477671 55.23552,36.477671 55.101906,21.379223 c -0.261938,0 -0.523875,0 -0.79375,0 -0.02929,-0.217194 -0.05858,-0.434388 -0.08876,-0.658164 -0.110921,-0.820134 -0.222442,-1.640185 -0.334346,-2.460186 -0.07129,-0.5237 -0.141913,-1.047492 -0.212519,-1.571286 C 53.429358,14.910828 53.164285,13.146256 52.80695,11.386552 52.694566,10.617356 52.78326,9.955677 52.985234,9.20839 Z"
       fill="#768b70"
       id="path144"
       style="stroke-width:0.264583" />
    <path
       d="m 44.868795,37.750317 c 0.970897,0.545569 1.448355,1.003025 2.030884,1.967838 0.604512,2.22914 0.24021,3.433768 -0.82889,5.441529 -0.784052,1.310579 -1.675382,2.530272 -2.610694,3.736206 C 43.005343,48.86488 43.005343,48.86488 42.401762,48.631306 41.961758,48.096794 41.585788,47.5877 41.211137,47.010733 41.05462,46.773896 41.05462,46.773896 40.894942,46.532274 40.601916,46.086439 40.311138,45.639127 40.020512,45.191723 39.82764,44.930297 39.82764,44.930297 39.630872,44.66359 c -0.927144,-1.332562 -0.9035,-2.946265 -0.668693,-4.49895 1.234973,-2.372625 3.283973,-3.401671 5.906616,-2.414323 z m -4.848283,1.620573 c -0.625189,1.250378 -0.415116,2.881401 -0.264583,4.233333 0.676679,1.739698 1.929116,3.133377 3.175,4.497917 1.607621,-1.465773 3.275904,-3.464907 3.509863,-5.697844 -0.0014,-0.220668 -0.0027,-0.441337 -0.0041,-0.668693 0.0014,-0.221351 0.0027,-0.442701 0.0041,-0.67076 -0.07466,-0.675272 -0.259991,-1.110682 -0.599447,-1.693953 -0.174625,0 -0.34925,0 -0.529166,0 -0.08731,-0.261938 -0.174625,-0.523875 -0.264584,-0.79375 -1.844978,-1.196417 -3.606969,-0.697369 -5.027083,0.79375 z"
       fill="#594c32"
       id="path161"
       style="stroke-width:0.264583" />
    <path
       d="m 39.226762,78.529223 c 0.08731,0 0.174625,0 0.264583,0 0,2.794 0,5.588 0,8.466667 0.174625,0 0.34925,0 0.529167,0 0,-0.523875 0,-1.04775 0,-1.5875 0.08731,0 0.174625,0 0.264583,0 0,0.523875 0,1.04775 0,1.5875 1.484313,0 2.968625,0 4.497917,0 0,0.08731 0,0.174625 0,0.264583 -1.571625,0.130969 -1.571625,0.130969 -3.175,0.264583 3.929062,0.08731 7.858125,0.174625 11.90625,0.264584 0,0.174625 0,0.34925 0,0.529166 -4.103688,0 -8.207375,0 -12.435417,0 0,0.174625 0,0.34925 0,0.529167 1.756558,-0.0177 3.512958,-0.04145 5.269381,-0.06944 0.597705,-0.0088 1.195433,-0.01622 1.793173,-0.02222 0.858463,-0.0089 1.716722,-0.0227 2.575101,-0.03753 0.401869,-0.0025 0.401869,-0.0025 0.811857,-0.0051 0.373359,-0.0079 0.373359,-0.0079 0.754262,-0.01587 0.219151,-0.0029 0.438302,-0.0059 0.664094,-0.0089 0.687092,-0.127719 0.924779,-0.367444 1.361299,-0.899248 0.261937,0.130968 0.261937,0.130968 0.529166,0.264583 -0.174625,0.34925 -0.34925,0.6985 -0.529166,1.058333 -4.54025,0 -9.0805,0 -13.758333,0 -0.08731,-0.34925 -0.174625,-0.6985 -0.264584,-1.058333 -0.34925,-0.08731 -0.6985,-0.174625 -1.058333,-0.264583 0,-3.055938 0,-6.111875 0,-9.260417 z"
       fill="#65865f"
       id="path164"
       style="stroke-width:0.264583" />
    <path
       d="m 42.930929,21.379223 c 0.174625,0.174625 0.34925,0.34925 0.529167,0.529167 0.820014,-0.08519 0.820014,-0.08519 1.5875,-0.264584 -0.08731,0.34925 -0.174625,0.6985 -0.264584,1.058334 -0.436562,0 -0.873125,0 -1.322916,0 0.0943,1.823127 0.492506,4.990422 1.852083,6.35 0.489193,0.06182 0.980249,0.109282 1.471745,0.148828 0.267735,0.02217 0.535471,0.04434 0.81132,0.06718 0.310539,0.02405 0.310539,0.02405 0.627352,0.04858 0,0.174625 0,0.34925 0,0.529166 -0.873125,0 -1.74625,0 -2.645834,0 0,2.794 0,5.588 0,8.466667 -0.436562,-0.174625 -0.873125,-0.34925 -1.322916,-0.529167 0.261937,-0.130968 0.261937,-0.130968 0.529166,-0.264583 -0.0052,-1.077351 -0.01907,-2.154237 -0.04037,-3.231392 -0.0061,-0.365063 -0.0099,-0.730171 -0.01137,-1.095282 -0.01043,-2.209582 -0.177488,-3.961152 -1.22809,-5.927158 -0.648256,-1.251734 -0.60469,-2.450539 -0.588788,-3.83523 0.0012,-0.197135 0.0024,-0.394271 0.0036,-0.59738 0.0031,-0.484389 0.0079,-0.968768 0.01292,-1.453141 z"
       fill="#537d4b"
       id="path189"
       style="stroke-width:0.264583" />
    <path
       d="m 54.308012,71.385473 c 0.174625,0 0.34925,0 0.529167,0 0.08731,0.436562 0.174625,0.873125 0.264583,1.322917 0.08731,0 0.174625,0 0.264583,0 0,3.4925 0,6.985 0,10.583333 -0.08731,0 -0.174625,0 -0.264583,0 -0.08731,-0.436563 -0.174625,-0.873125 -0.264583,-1.322917 -0.34925,-0.08731 -0.6985,-0.174625 -1.058334,-0.264583 0.174625,0 0.34925,0 0.529167,0 0,-0.34925 0,-0.6985 0,-1.058333 -0.261937,-0.08731 -0.523875,-0.174625 -0.79375,-0.264584 0,-1.309687 0,-2.619375 0,-3.96875 0.261938,-0.08731 0.523875,-0.174625 0.79375,-0.264583 -0.04366,-0.20191 -0.08731,-0.40382 -0.132292,-0.611849 -0.175347,-1.29319 -0.207789,-2.58262 -0.132291,-3.886068 0.08731,-0.08731 0.174625,-0.174625 0.264583,-0.264583 z"
       fill="#5f8259"
       id="path193"
       style="stroke-width:0.264583" />
    <path
       d="m 50.074679,27.200057 c 0.261937,0.174625 0.523875,0.34925 0.79375,0.529166 -0.496094,1.256771 -0.496094,1.256771 -0.79375,1.852084 -0.03232,0.661782 -0.04912,1.316693 -0.05433,1.978819 -0.0026,0.203948 -0.0052,0.407895 -0.0079,0.618022 -0.0084,0.675714 -0.01492,1.351432 -0.02145,2.027166 -0.0054,0.467875 -0.011,0.935748 -0.01666,1.403621 -0.01462,1.232695 -0.02769,2.465402 -0.04044,3.698118 -0.01328,1.25739 -0.02802,2.514763 -0.04263,3.772138 -0.02847,2.468051 -0.05531,4.936118 -0.08113,7.404199 -0.392907,0.130968 -0.392907,0.130968 -0.79375,0.264583 0,-6.897687 0,-13.795375 0,-20.902083 -0.261938,0 -0.523875,0 -0.79375,0 0,-0.174625 0,-0.34925 0,-0.529167 0.207367,-0.05457 0.414734,-0.10914 0.628385,-0.165364 0.776331,-0.312676 0.776331,-0.312676 1.041797,-1.190625 0.06003,-0.251024 0.120055,-0.502047 0.181901,-0.760677 z"
       fill="#5c8855"
       id="path201"
       style="stroke-width:0.264583" />
    <path
       d="m 41.343429,47.30839 c 0.196453,0.223738 0.392906,0.447477 0.595312,0.677995 0.637745,0.708906 0.637745,0.708906 1.306381,0.644922 0.568134,-0.265438 0.568134,-0.265438 1.008724,-1.058334 0.174625,0 0.34925,0 0.529166,0 0,0.960438 0,1.920875 0,2.910417 -1.484312,0 -2.968625,0 -4.497916,0 0,-0.611188 0,-1.222375 0,-1.852083 0.261937,-0.174625 0.523875,-0.34925 0.79375,-0.529167 0.08731,-0.261938 0.174625,-0.523875 0.264583,-0.79375 z"
       fill="#92b783"
       id="path238"
       style="stroke-width:0.264583" />
    <path
       d="m 53.514262,34.079223 c 0.261937,0.08731 0.523875,0.174625 0.79375,0.264584 -0.08731,1.04775 -0.174625,2.0955 -0.264583,3.175 0.261937,0 0.523875,0 0.79375,0 0,-0.960438 0,-1.920875 0,-2.910417 0.08731,0 0.174625,0 0.264583,0 0.259546,1.514017 0.304491,2.980081 0.297656,4.514453 0.001,0.23073 0.002,0.46146 0.0031,0.699182 -0.0018,1.202693 -0.05592,2.334251 -0.300757,3.517615 -0.174625,-0.08731 -0.34925,-0.174625 -0.529167,-0.264584 0,-0.960437 0,-1.920875 0,-2.910416 -0.174625,0 -0.34925,0 -0.529166,0 0.08731,1.135062 0.174625,2.270125 0.264583,3.439583 -0.261938,-0.08731 -0.523875,-0.174625 -0.79375,-0.264583 0,-1.135063 0,-2.270125 0,-3.439583 0.34925,-0.08731 0.6985,-0.174625 1.058333,-0.264584 -0.07153,-0.644835 -0.07153,-0.644835 -0.264583,-1.322916 -0.261938,-0.174625 -0.523875,-0.34925 -0.79375,-0.529167 -0.07752,-0.861963 -0.07752,-0.861963 -0.04961,-1.885156 0.0072,-0.339018 0.01432,-0.678036 0.0217,-1.027328 0.0092,-0.261255 0.01842,-0.522511 0.02791,-0.791683 z"
       fill="#53744d"
       id="path241"
       style="stroke-width:0.264583" />
    <path
       d="m 46.899679,72.443806 c 0.261937,0 0.523875,0 0.79375,0 0.265751,0.605849 0.530139,1.212231 0.79375,1.81901 0.07572,0.172238 0.151433,0.344475 0.229443,0.521932 0.564307,1.30328 0.564307,1.30328 0.564307,1.892391 -1.309688,0 -2.619375,0 -3.96875,0 0.467792,-1.447926 0.96688,-2.844327 1.5875,-4.233333 z"
       fill="#74a665"
       id="path246"
       style="stroke-width:0.264583" />
    <path
       d="m 42.401762,77.735473 c 0.785812,0.130969 0.785812,0.130969 1.5875,0.264583 -0.261938,0.08731 -0.523875,0.174625 -0.79375,0.264584 0,0.174625 0,0.34925 0,0.529166 0.174625,0 0.34925,0 0.529167,0 0.08731,0.960438 0.174625,1.920875 0.264583,2.910417 0.08731,0 0.174625,0 0.264583,0 0,0.611187 0,1.222375 0,1.852083 0.34925,0.08731 0.6985,0.174625 1.058334,0.264584 -0.174625,0.174625 -0.34925,0.34925 -0.529167,0.529166 -0.889689,-0.03786 -1.403624,-0.0715 -2.030173,-0.729413 -0.406277,-0.68682 -0.44381,-1.063077 -0.428592,-1.854408 0.0026,-0.235335 0.0051,-0.470669 0.0078,-0.713135 0.0067,-0.24352 0.0133,-0.48704 0.02015,-0.73794 0.0054,-0.371419 0.0054,-0.371419 0.01085,-0.750341 0.0093,-0.609938 0.02238,-1.219564 0.03876,-1.829346 z"
       fill="#5a8853"
       id="path264"
       style="stroke-width:0.264583" />
    <path
       d="m 49.545512,11.325057 c 0.79375,0.264583 0.79375,0.264583 1.024485,0.692206 0.06165,0.184942 0.123295,0.369884 0.186811,0.560431 0.0716,0.209541 0.143204,0.419083 0.216976,0.634974 0.07437,0.228385 0.148747,0.45677 0.225374,0.692076 0.07864,0.234184 0.157273,0.468367 0.238293,0.709647 0.166964,0.498136 0.332657,0.996701 0.497192,1.495645 0.256318,0.770116 0.521386,1.536693 0.78897,2.30296 0.169974,0.492604 0.339821,0.985251 0.509529,1.477946 0.08109,0.230816 0.162176,0.461631 0.245722,0.699441 0.401229,1.184294 0.665853,2.165462 0.564565,3.434674 -0.529167,-0.264583 -0.529167,-0.264583 -0.823723,-1.086239 -0.1075,-0.359498 -0.213137,-0.719556 -0.317293,-1.080037 -0.116871,-0.389134 -0.23436,-0.778083 -0.352433,-1.166854 -0.05956,-0.196155 -0.119117,-0.392309 -0.18048,-0.594408 -0.503917,-1.613339 -1.104473,-3.196181 -1.687752,-4.782137 -0.126023,-0.343037 -0.251562,-0.686253 -0.376592,-1.029653 -0.171194,-0.47017 -0.343933,-0.939776 -0.516765,-1.409346 -0.242879,-0.757576 -0.242879,-0.757576 -0.242879,-1.551326 z"
       fill="#4f7b48"
       id="path280"
       style="stroke-width:0.264583" />
    <path
       d="m 48.222595,16.881307 c 0.818366,-0.09353 1.262083,-0.03116 2.000911,0.347266 1.49259,1.645675 1.882767,3.775481 1.808676,5.946923 -0.19388,1.562442 -0.590579,3.087321 -1.163754,4.553727 -0.261937,0.130969 -0.261937,0.130969 -0.529166,0.264584 0.218753,-1.859402 0.503365,-3.706808 0.79375,-5.55625 -0.261938,-0.08731 -0.523875,-0.174625 -0.79375,-0.264583 0.261937,0 0.523875,0 0.79375,0 C 50.859864,19.881797 50.490699,18.655952 48.669079,17.178963 48.52174,17.080733 48.3744,16.98251 48.222595,16.881307 Z"
       fill="#547e4d"
       id="path288"
       style="stroke-width:0.264583" />
    <path
       d="m 43.195512,9.20839 c 0.261937,0 0.523875,0 0.79375,0 -0.08731,0.523875 -0.174625,1.04775 -0.264583,1.5875 0.174625,0 0.34925,0 0.529166,0 -0.174625,0.34925 -0.34925,0.6985 -0.529166,1.058333 -1.256771,-0.23151 -1.256771,-0.23151 -1.852084,-0.529166 -0.174625,1.04775 -0.34925,2.0955 -0.529166,3.175 -0.174625,-0.34925 -0.34925,-0.6985 -0.529167,-1.058334 -0.261937,0.6985 -0.523875,1.397 -0.79375,2.116667 -0.307932,-1.231727 -0.0757,-2.055103 0.248047,-3.241146 0.05167,-0.197135 0.103342,-0.39427 0.15658,-0.597379 0.127461,-0.484977 0.257993,-0.969144 0.389123,-1.453142 0.261938,0.392907 0.261938,0.392907 0.529167,0.79375 0.174625,-0.261937 0.34925,-0.523875 0.529166,-0.79375 0.350628,-0.180626 0.703295,-0.357373 1.058334,-0.529166 0.08731,-0.174625 0.174625,-0.34925 0.264583,-0.529167 z m -2.38125,2.116667 c 0.264583,0.529166 0.264583,0.529166 0.264583,0.529166 z"
       fill="#557f4c"
       id="path290"
       style="stroke-width:0.264583" />
    <path
       d="m 44.253845,70.327139 c 2.008187,0 4.016375,0 6.085417,0 0,0.523875 0,1.04775 0,1.5875 -0.785813,0 -1.571625,0 -2.38125,0 -0.08731,-0.34925 -0.174625,-0.6985 -0.264584,-1.058333 -0.261937,0 -0.523875,0 -0.79375,0 0,0.261937 0,0.523875 0,0.79375 -0.873125,0 -1.74625,0 -2.645833,0 0,-0.436563 0,-0.873125 0,-1.322917 z"
       fill="#6a975e"
       id="path292"
       style="stroke-width:0.264583" />
    <path
       d="m 43.195512,39.668546 c 1.189937,0.347065 1.189937,0.347065 1.5875,1.02526 -0.03307,0.810287 -0.03307,0.810287 -0.264583,1.5875 -0.79375,0.529167 -0.79375,0.529167 -1.752865,0.463021 -0.29468,-0.06548 -0.589359,-0.130968 -0.892969,-0.198437 -0.370244,-0.74049 -0.331431,-1.297778 -0.264583,-2.116667 0.45682,-0.786745 0.674193,-0.798731 1.5875,-0.760677 z"
       fill="#68423d"
       id="path293"
       style="stroke-width:0.264583" />
    <path
       d="m 49.280929,29.84589 c 0.08731,0 0.174625,0 0.264583,0 0.08731,6.810375 0.174625,13.62075 0.264584,20.6375 0.611187,0.08731 1.222375,0.174625 1.852083,0.264583 -0.130969,0.261938 -0.130969,0.261938 -0.264583,0.529167 -1.222375,0 -2.44475,0 -3.704167,0 0,-0.174625 0,-0.34925 0,-0.529167 0.523875,0 1.04775,0 1.5875,0 0,-6.897687 0,-13.795375 0,-20.902083 z"
       fill="#467241"
       id="path298"
       style="stroke-width:0.264583" />
    <path
       d="m 39.755929,80.645889 c 0.08731,0.34925 0.174625,0.6985 0.264583,1.058333 0.436563,0.08731 0.873125,0.174625 1.322917,0.264584 0.02864,0.424042 0.04913,0.848639 0.06615,1.273307 0.01228,0.236358 0.02456,0.472715 0.03721,0.716235 -0.103353,0.656291 -0.103353,0.656291 -0.624251,1.086239 -0.266031,0.180082 -0.266031,0.180082 -0.537435,0.363802 -0.214171,0.820731 -0.214171,0.820731 -0.264584,1.5875 -0.174625,0 -0.34925,0 -0.529166,0 -0.0077,-0.859891 -0.01239,-1.719773 -0.01654,-2.579688 -0.0022,-0.24352 -0.0044,-0.48704 -0.0067,-0.737939 -8.52e-4,-0.235335 -0.0017,-0.470669 -0.0026,-0.713135 -0.0014,-0.216149 -0.0028,-0.432299 -0.0042,-0.654999 0.02925,-0.589946 0.130432,-1.098385 0.294621,-1.664239 z"
       fill="#4b7045"
       id="path305"
       style="stroke-width:0.264583" />
    <path
       d="m 43.724679,67.94589 c 0.08731,0 0.174625,0 0.264583,0 0.08731,0.523875 0.174625,1.04775 0.264584,1.5875 2.008187,0.08731 4.016375,0.174625 6.085416,0.264583 -0.529166,0.529167 -0.529166,0.529167 -1.099287,0.589241 -0.230005,-0.0028 -0.46001,-0.0055 -0.696986,-0.0084 -0.248977,-0.0017 -0.497954,-0.0034 -0.754475,-0.0052 -0.260574,-0.0044 -0.521147,-0.0089 -0.789616,-0.01344 -0.26262,-0.0024 -0.525239,-0.0048 -0.795817,-0.0072 -0.649809,-0.0062 -1.299491,-0.01496 -1.949235,-0.02584 0,0.523875 0,1.04775 0,1.5875 0.611187,0 1.222375,0 1.852083,0 -0.08731,0.174625 -0.174625,0.34925 -0.264583,0.529167 -0.611188,0 -1.222375,0 -1.852084,0 0,1.309687 0,2.619375 0,3.96875 -0.08731,0 -0.174625,0 -0.264583,0 0,-2.794 0,-5.588 0,-8.466667 z"
       fill="#48743e"
       id="path317"
       style="stroke-width:0.264583" />
    <path
       d="m 53.514262,61.59589 c 0.529167,1.058333 0.529167,1.058333 0.529167,1.852083 0.34925,-0.261937 0.6985,-0.523875 1.058333,-0.79375 0.358566,2.231076 0.178591,4.375324 0,6.614584 -0.08731,0 -0.174625,0 -0.264583,0 -0.08731,-1.04775 -0.174625,-2.0955 -0.264584,-3.175 -0.174625,0 -0.34925,0 -0.529166,0 0,1.04775 0,2.0955 0,3.175 -0.174625,0 -0.34925,0 -0.529167,0 -0.01425,-0.562168 -0.02454,-1.124436 -0.03307,-1.686719 -0.0061,-0.313097 -0.01228,-0.626195 -0.0186,-0.94878 0.05168,-0.804085 0.05168,-0.804085 0.580843,-1.333251 0.170001,-0.547354 0.170001,-0.547354 0.264583,-1.058334 -0.261938,-0.08731 -0.523875,-0.174625 -0.79375,-0.264583 0,-0.785813 0,-1.571625 0,-2.38125 z"
       fill="#5c8255"
       id="path319"
       style="stroke-width:0.264583" />
    <path
       d="m 54.043429,30.375057 c 0.174625,0 0.34925,0 0.529167,0 0.08731,0.523875 0.174625,1.04775 0.264583,1.5875 0.174625,-0.174625 0.34925,-0.34925 0.529167,-0.529167 0.01541,0.815777 0.02478,1.631517 0.03307,2.447396 0.0044,0.2309 0.0089,0.461801 0.01344,0.699699 0.0017,0.223397 0.0034,0.446794 0.0052,0.676961 0.0028,0.205065 0.0055,0.41013 0.0084,0.621409 -0.06715,0.650102 -0.265273,1.077213 -0.58924,1.639952 -0.261938,0 -0.523875,0 -0.79375,0 0.0031,-0.223057 0.0061,-0.446113 0.0093,-0.675928 0.0024,-0.289905 0.0048,-0.57981 0.0072,-0.8785 0.0031,-0.28854 0.0061,-0.577081 0.0093,-0.874365 0.0264,-0.733448 0.0264,-0.733448 -0.290421,-1.275374 0.261937,0 0.523875,0 0.79375,0 0,-0.34925 0,-0.6985 0,-1.058333 -0.261938,-0.08731 -0.523875,-0.174625 -0.79375,-0.264584 0.08731,-0.6985 0.174625,-1.397 0.264584,-2.116666 z"
       fill="#60845b"
       id="path327"
       style="stroke-width:0.264583" />
    <path
       d="m 40.020512,55.24589 c 0.261937,0.08731 0.523875,0.174625 0.79375,0.264583 0,0.6985 0,1.397 0,2.116667 -0.261938,0 -0.523875,0 -0.79375,0 0,0.611187 0,1.222375 0,1.852083 0.34925,0.08731 0.6985,0.174625 1.058333,0.264584 -0.174625,0.08731 -0.34925,0.174625 -0.529166,0.264583 0.08731,0.08731 0.174625,0.174625 0.264583,0.264583 0.01917,0.534364 0.02217,1.069359 0.01654,1.604037 -0.0024,0.292292 -0.0048,0.584584 -0.0072,0.885734 -0.0031,0.226126 -0.0061,0.452251 -0.0093,0.685229 -0.174625,0 -0.34925,0 -0.529167,0 -0.174625,-0.6985 -0.34925,-1.397 -0.529166,-2.116666 -0.08731,0 -0.174625,0 -0.264584,0 -0.05934,-2.103327 0.01216,-4.040482 0.529167,-6.085417 z"
       fill="#5c8456"
       id="path341"
       style="stroke-width:0.264583" />
    <path
       d="m 43.989262,77.470889 c 0.261937,0 0.523875,0 0.79375,0 0,0.261937 0,0.523875 0,0.79375 1.571625,0 3.14325,0 4.7625,0 0,0.174625 0,0.34925 0,0.529167 -2.488406,0.130968 -2.488406,0.130968 -5.027083,0.264583 -0.174625,1.135062 -0.34925,2.270125 -0.529167,3.439583 -0.08731,0 -0.174625,0 -0.264583,0 0,-1.222375 0,-2.44475 0,-3.704166 -0.174625,0 -0.34925,0 -0.529167,0 0,-0.174625 0,-0.34925 0,-0.529167 0.261938,0 0.523875,0 0.79375,0 0,-0.261938 0,-0.523875 0,-0.79375 z"
       fill="#42713c"
       id="path354"
       style="stroke-width:0.264583" />
    <path
       d="m 46.370512,52.07089 c 2.706687,0 5.413375,0 8.202083,0 0,0.08731 0,0.174625 0,0.264583 -1.571625,0.08731 -3.14325,0.174625 -4.7625,0.264584 -0.08731,3.754437 -0.174625,7.508875 -0.264583,11.377083 -0.08731,0 -0.174625,0 -0.264583,0 -0.08731,-3.754438 -0.174625,-7.508875 -0.264584,-11.377083 -0.873125,-0.08731 -1.74625,-0.174625 -2.645833,-0.264584 0,-0.08731 0,-0.174625 0,-0.264583 z"
       fill="#4a7543"
       id="path367"
       style="stroke-width:0.264583" />
    <path
       d="m 45.576762,37.78339 c 0.174625,0 0.34925,0 0.529167,0 0,0.174625 0,0.34925 0,0.529167 0.174625,0 0.34925,0 0.529166,0 0.98081,1.440563 1.333062,2.494305 1.058334,4.233333 -0.428328,1.610598 -0.859541,2.835752 -2.116667,3.96875 0.118718,-0.920068 0.406799,-1.639848 0.810286,-2.463933 0.554809,-1.227487 0.683281,-2.013027 0.512631,-3.356901 C 46.6681,40.116417 46.404979,39.584475 46.098694,39.043261 45.841345,38.57714 45.841345,38.57714 45.576762,37.78339 Z"
       fill="#819c69"
       id="path374"
       style="stroke-width:0.264583" />
    <path
       d="m 53.249679,71.385473 c 0.08731,0 0.174625,0 0.264583,0 0.01944,0.363234 0.01944,0.363234 0.03927,0.733805 0.01978,0.314462 0.03956,0.628923 0.05994,0.952914 0.01842,0.313097 0.03684,0.626194 0.05581,0.948779 0.03075,0.832031 0.03075,0.832031 0.63872,1.333252 0,0.261937 0,0.523875 0,0.79375 -0.174625,0.08731 -0.34925,0.174625 -0.529166,0.264583 -0.124357,0.866658 -0.124357,0.866658 -0.165365,1.86862 -0.01978,0.341406 -0.03956,0.682811 -0.05994,1.034562 -0.01296,0.264325 -0.02592,0.52865 -0.03927,0.800985 -0.08731,0 -0.174625,0 -0.264583,0 -0.08731,-1.04775 -0.174625,-2.0955 -0.264583,-3.175 -0.08731,0 -0.174625,0 -0.264584,0 -0.01426,-0.777278 -0.02477,-1.554295 -0.03307,-2.331641 -0.0044,-0.220498 -0.0089,-0.440996 -0.01344,-0.668176 -0.0017,-0.212313 -0.0034,-0.424625 -0.0052,-0.643372 -0.0028,-0.195365 -0.0055,-0.390731 -0.0084,-0.592018 0.06007,-0.527293 0.06007,-0.527293 0.589241,-1.321043 z"
       fill="#85b07d"
       id="path378"
       style="stroke-width:0.264583" />
    <path
       d="m 54.043429,40.16464 c 0.174625,0 0.34925,0 0.529167,0 0.08731,0.960437 0.174625,1.920875 0.264583,2.910416 0.08731,-0.436562 0.174625,-0.873125 0.264583,-1.322916 0.08731,0 0.174625,0 0.264584,0 0,0.873125 0,1.74625 0,2.645833 -0.174625,0 -0.34925,0 -0.529167,0 -0.08731,1.222375 -0.174625,2.44475 -0.264583,3.704167 -0.174625,0 -0.34925,0 -0.529167,0 -0.03307,-2.050521 -0.03307,-2.050521 0.264583,-2.645834 -0.174625,-0.08731 -0.34925,-0.174625 -0.529166,-0.264583 0.261937,0 0.523875,0 0.79375,0 0,-0.436562 0,-0.873125 0,-1.322917 -0.174625,-0.08731 -0.34925,-0.174625 -0.529167,-0.264583 0,-1.135062 0,-2.270125 0,-3.439583 z"
       fill="#63875d"
       id="path384"
       style="stroke-width:0.264583" />
    <path
       d="m 38.962179,40.16464 c 0.261937,0.08731 0.523875,0.174625 0.79375,0.264583 6.83e-4,0.1985 0.0014,0.396999 0.0021,0.601514 0.100161,2.65089 1.077824,4.214734 2.643767,6.277653 -0.261937,0.08731 -0.523875,0.174625 -0.79375,0.264583 -0.342549,-0.506604 -0.684122,-1.013845 -1.025294,-1.521354 -0.190314,-0.282401 -0.380628,-0.564803 -0.576709,-0.855762 -0.828032,-1.283615 -1.110655,-1.958843 -1.076937,-3.509863 0.0048,-0.28513 0.0096,-0.57026 0.01447,-0.86403 0.0061,-0.216917 0.01228,-0.433834 0.0186,-0.657324 z"
       fill="#634b3b"
       id="path391"
       style="stroke-width:0.264583" />
    <path
       d="m 48.222595,72.443806 c 0.6985,0 1.397,0 2.116667,0 0,1.309687 0,2.619375 0,3.96875 -0.174625,0 -0.34925,0 -0.529167,0 -0.215323,-0.512484 -0.430215,-1.025149 -0.644922,-1.537891 -0.119713,-0.285471 -0.239427,-0.570942 -0.362768,-0.865063 -0.210386,-0.515271 -0.403808,-1.037791 -0.57981,-1.565796 z"
       fill="#72a265"
       id="path395"
       style="stroke-width:0.264583" />
    <path
       d="m 54.308012,58.42089 c 0.676535,1.001892 0.538426,1.961153 0.429948,3.108854 -0.01501,0.184516 -0.03001,0.369032 -0.04547,0.559139 -0.03726,0.453261 -0.07821,0.906215 -0.11989,1.35909 -0.174625,0 -0.34925,0 -0.529166,0 -0.08731,-0.261937 -0.174625,-0.523875 -0.264584,-0.79375 -0.174625,0.34925 -0.34925,0.6985 -0.529166,1.058334 0,-1.222375 0,-2.44475 0,-3.704167 0.34925,-0.174625 0.6985,-0.34925 1.058333,-0.529167 0,-0.34925 0,-0.6985 0,-1.058333 z"
       fill="#719868"
       id="path396"
       style="stroke-width:0.264583" />
    <path
       d="m 39.755929,33.02089 c 0.08731,0.261937 0.174625,0.523875 0.264583,0.79375 0.436563,0.08731 0.873125,0.174625 1.322917,0.264583 0.08731,1.222375 0.174625,2.44475 0.264583,3.704167 -0.261937,0 -0.523875,0 -0.79375,0 0,-1.04775 0,-2.0955 0,-3.175 -0.174625,0 -0.34925,0 -0.529166,0 0,1.04775 0,2.0955 0,3.175 -1.021685,-1.532527 -0.780362,-3.02346 -0.529167,-4.7625 z"
       fill="#587b4e"
       id="path408"
       style="stroke-width:0.264583" />
    <path
       d="m 52.985095,76.677139 c 0.08731,0 0.174625,0 0.264583,0 0.0099,0.242156 0.01978,0.484312 0.02997,0.733805 0.01739,0.314462 0.03479,0.628923 0.05271,0.952914 0.01535,0.313097 0.03069,0.626194 0.04651,0.948779 0.04468,0.265348 0.08936,0.530696 0.135393,0.804085 0.261937,0.174625 0.523875,0.34925 0.79375,0.529167 0,0.34925 0,0.6985 0,1.058333 -0.174625,0 -0.34925,0 -0.529167,0 0,0.174625 0,0.34925 0,0.529167 -0.34925,0.08731 -0.6985,0.174625 -1.058333,0.264583 -0.0076,-0.920525 -0.01237,-1.841041 -0.01654,-2.761588 -0.0022,-0.26279 -0.0044,-0.525581 -0.0067,-0.796334 -8.52e-4,-0.24983 -0.0017,-0.499659 -0.0026,-0.75706 -0.0014,-0.231391 -0.0028,-0.462782 -0.0042,-0.701184 0.03004,-0.540084 0.03004,-0.540084 0.294621,-0.804667 z"
       fill="#8fb985"
       id="path412"
       style="stroke-width:0.264583" />
    <path
       d="m 50.339262,9.20839 c 0.261937,0 0.523875,0 0.79375,0 0,0.611187 0,1.222375 0,1.852083 0.174625,0 0.34925,0 0.529167,0 0,-0.523875 0,-1.04775 0,-1.5875 0.436562,-0.08731 0.873125,-0.174625 1.322916,-0.264583 0,0.523875 0,1.04775 0,1.5875 -0.174625,0 -0.34925,0 -0.529166,0 -0.174625,0.34925 -0.34925,0.6985 -0.529167,1.058333 -0.34925,0 -0.6985,0 -1.058333,0 -0.553907,-0.900099 -0.576639,-1.60145 -0.529167,-2.645833 z"
       fill="#53784a"
       id="path413"
       style="stroke-width:0.264583" />
    <path
       d="m 44.253845,72.443806 c 0.611187,0 1.222375,0 1.852083,0 -0.440972,1.322917 -0.881944,2.645833 -1.322916,3.96875 -0.174625,0 -0.34925,0 -0.529167,0 0,-1.309688 0,-2.619375 0,-3.96875 z"
       fill="#75a466"
       id="path416"
       style="stroke-width:0.264583" />
    <path
       d="m 39.755929,52.600056 c 0.08731,0 0.174625,0 0.264583,0 0,0.6985 0,1.397 0,2.116667 0.253752,0.0573 0.253752,0.0573 0.512631,0.115755 0.545703,0.148828 0.545703,0.148828 0.810286,0.413411 0.01906,0.446112 0.02219,0.892971 0.01654,1.339453 -0.0024,0.243179 -0.0048,0.486358 -0.0072,0.736906 -0.0031,0.187927 -0.0061,0.375853 -0.0093,0.569475 -0.436563,0.08731 -0.873125,0.174625 -1.322917,0.264583 0,-0.174625 0,-0.34925 0,-0.529167 0.261938,0 0.523875,0 0.79375,0 -0.03274,-0.343793 -0.06548,-0.687586 -0.09922,-1.041797 -0.01842,-0.193383 -0.03684,-0.386767 -0.05581,-0.58601 -0.05423,-0.241986 -0.05423,-0.241986 -0.109554,-0.488859 -0.174625,-0.08731 -0.34925,-0.174625 -0.529167,-0.264584 -0.08731,0.873125 -0.174625,1.74625 -0.264583,2.645834 -0.08731,0 -0.174625,0 -0.264583,0 -0.0072,-0.683526 -0.0124,-1.366976 -0.01654,-2.050521 -0.0022,-0.193043 -0.0044,-0.386085 -0.0067,-0.584977 -0.0042,-0.93286 0.03571,-1.759324 0.287838,-2.656169 z"
       fill="#507448"
       id="path419"
       style="stroke-width:0.264583" />
    <path
       d="m 49.810095,52.335473 c 1.571625,0 3.14325,0 4.7625,0 0,0.785812 0,1.571625 0,2.38125 0.174625,0 0.34925,0 0.529167,0 0.06615,2.017448 0.06615,2.017448 -0.529167,2.910417 -0.174625,0 -0.34925,0 -0.529167,0 0.0031,-0.165758 0.0061,-0.331515 0.0093,-0.502295 0.0024,-0.216235 0.0048,-0.43247 0.0072,-0.655257 0.0031,-0.214871 0.0061,-0.429742 0.0093,-0.651123 0.01244,-0.585638 0.01244,-0.585638 -0.290422,-1.101742 0.174625,0 0.34925,0 0.529167,0 0,-0.6985 0,-1.397 0,-2.116667 -1.484313,0 -2.968625,0 -4.497917,0 0,-0.08731 0,-0.174625 0,-0.264583 z"
       fill="#678c60"
       id="path428"
       style="stroke-width:0.264583" />
    <path
       d="m 51.133012,79.058389 c 0.174625,0 0.34925,0 0.529167,0 0.0071,0.600807 0.01228,1.201639 0.01654,1.802474 0.0031,0.334584 0.0061,0.669168 0.0093,1.013891 -0.02584,0.887802 -0.02584,0.887802 -0.290422,1.681552 -0.436562,0.08731 -0.873125,0.174625 -1.322916,0.264583 -0.08731,1.04775 -0.174625,2.0955 -0.264584,3.175 -0.08731,0 -0.174625,0 -0.264583,0 -0.08731,-1.135063 -0.174625,-2.270125 -0.264583,-3.439583 0.34925,-0.08731 0.6985,-0.174625 1.058333,-0.264584 0,-0.523875 0,-1.04775 0,-1.5875 0.174625,0.34925 0.34925,0.6985 0.529167,1.058334 0.08731,-1.222375 0.174625,-2.44475 0.264583,-3.704167 z"
       fill="#618e58"
       id="path435"
       style="stroke-width:0.264583" />
    <path
       d="m 42.666345,16.616724 c 0.174625,0 0.34925,0 0.529167,0 -0.130023,1.755303 -0.620108,3.156451 -1.322917,4.7625 -0.08117,0.191337 -0.162347,0.382674 -0.24598,0.579809 -0.180327,0.425059 -0.363667,0.848837 -0.54777,1.272274 -0.08731,0 -0.174625,0 -0.264583,0 0.08516,-2.384343 0.974429,-4.427159 1.852083,-6.614583 z"
       fill="#4d7a44"
       id="path439"
       style="stroke-width:0.264583" />
    <path
       d="m 50.868429,7.356307 c 0.934404,0.210241 1.253899,0.42921 1.802474,1.223698 0.103684,0.207367 0.207367,0.414734 0.314193,0.628385 -0.261938,0 -0.523875,0 -0.79375,0 -0.174625,0.611188 -0.34925,1.222375 -0.529167,1.852084 -0.174625,0 -0.34925,0 -0.529167,0 0,-0.611188 0,-1.222375 0,-1.852084 -0.174625,-0.08731 -0.34925,-0.174625 -0.529166,-0.264583 0,-0.174625 0,-0.34925 0,-0.529167 -0.174625,-0.174625 -0.34925,-0.34925 -0.529167,-0.529166 0.261938,-0.174625 0.523875,-0.34925 0.79375,-0.529167 z"
       fill="#617f58"
       id="path440"
       style="stroke-width:0.264583" />
    <path
       d="m 54.572595,28.25839 c 0.532529,0.439547 0.771671,0.674265 0.89917,1.364258 -0.002,0.204638 -0.0041,0.409277 -0.0062,0.620117 0.002,0.204639 0.0041,0.409277 0.0062,0.620117 -0.127499,0.689993 -0.366641,0.924711 -0.89917,1.364258 0,-0.611188 0,-1.222375 0,-1.852083 -0.174625,0 -0.34925,0 -0.529167,0 0,0.6985 0,1.397 0,2.116666 -0.174625,0 -0.34925,0 -0.529166,0 0,-0.873125 0,-1.74625 0,-2.645833 0.34925,0 0.6985,0 1.058333,0 0,-0.523875 0,-1.04775 0,-1.5875 z"
       fill="#52774d"
       id="path451"
       style="stroke-width:0.264583" />
    <path
       d="m 40.814262,13.17714 c 0.08731,0 0.174625,0 0.264583,0 -0.206122,3.910891 -0.206122,3.910891 -0.79375,5.55625 -0.718641,-1.077962 -0.699617,-1.908515 -0.529166,-3.175 0.288176,-0.830699 0.647146,-1.604767 1.058333,-2.38125 z"
       fill="#52744b"
       id="path452"
       style="stroke-width:0.264583" />
    <path
       d="m 45.576762,44.662556 c 0.08731,0.261938 0.174625,0.523875 0.264583,0.79375 -0.360701,0.695565 -0.360701,0.695565 -0.876432,1.471745 -0.168145,0.256822 -0.336289,0.513643 -0.50953,0.778247 -0.466121,0.660425 -0.466121,0.660425 -0.995288,1.189592 -0.529166,-0.01654 -0.529166,-0.01654 -1.058333,-0.264584 -0.330729,-0.677994 -0.330729,-0.677994 -0.529167,-1.322916 0.654844,0.261937 0.654844,0.261937 1.322917,0.529166 0.785813,-1.04775 1.571625,-2.0955 2.38125,-3.175 z"
       fill="#4c3e2a"
       id="path469"
       style="stroke-width:0.264583" />
    <path
       d="m 54.837179,65.829223 c 0.08731,1.484312 0.174625,2.968625 0.264583,4.497917 -0.174625,0 -0.34925,0 -0.529166,0 -0.08731,0.174625 -0.174625,0.34925 -0.264584,0.529166 0,-0.34925 0,-0.6985 0,-1.058333 -0.261937,-0.08731 -0.523875,-0.174625 -0.79375,-0.264583 0.174625,-0.08731 0.34925,-0.174625 0.529167,-0.264584 0,-1.04775 0,-2.0955 0,-3.175 0.529167,-0.264583 0.529167,-0.264583 0.79375,-0.264583 z"
       fill="#678c5d"
       id="path490"
       style="stroke-width:0.264583" />
    <path
       d="m 54.837179,17.14589 c 0.529167,0.529167 0.529167,0.529167 0.580843,1.39113 -0.0092,0.50648 -0.0092,0.50648 -0.0186,1.023193 -0.0048,0.339018 -0.0095,0.678036 -0.01447,1.027327 -0.0061,0.261256 -0.01228,0.522511 -0.0186,0.791683 -0.352778,0 -0.705556,0 -1.058334,0 -0.06585,-0.556135 -0.125272,-1.113033 -0.181901,-1.670182 -0.03376,-0.310028 -0.06753,-0.620055 -0.102319,-0.939478 0.01964,-0.829923 0.01964,-0.829923 0.411344,-1.337386 0.132674,-0.09447 0.265349,-0.188949 0.402043,-0.286287 z"
       fill="#6a8363"
       id="path496"
       style="stroke-width:0.264583" />
    <path
       d="m 45.047595,77.206306 c 1.484312,0 2.968625,0 4.497917,0 0.08731,0.261937 0.174625,0.523875 0.264583,0.79375 -1.571625,0 -3.14325,0 -4.7625,0 0,-0.261938 0,-0.523875 0,-0.79375 z"
       fill="#73a36a"
       id="path506"
       style="stroke-width:0.264583" />
    <path
       d="m 49.280929,83.820889 c 0.08731,0 0.174625,0 0.264583,0 0,1.04775 0,2.0955 0,3.175 0.6985,0 1.397,0 2.116667,0 0.08731,0.174625 0.174625,0.34925 0.264583,0.529167 -1.920875,0 -3.84175,0 -5.820833,0 0.955506,-0.477753 1.202407,-0.59492 2.182813,-0.56224 0.491132,0.01637 0.491132,0.01637 0.992187,0.03307 0,-1.04775 0,-2.0955 0,-3.175 z"
       fill="#4a7643"
       id="path511"
       style="stroke-width:0.264583" />
    <path
       d="m 54.837179,78.529223 c 0.08731,0 0.174625,0 0.264583,0 0.05962,0.870674 0.113073,1.741618 0.165365,2.61276 0.01705,0.247954 0.03411,0.495908 0.05168,0.751376 0.01364,0.237039 0.02728,0.474079 0.04134,0.718302 0.01386,0.218921 0.02771,0.437841 0.04199,0.663396 -0.03579,0.545833 -0.03579,0.545833 -0.564953,1.074999 -0.08731,-0.611187 -0.174625,-1.222375 -0.264583,-1.852083 -0.174625,0 -0.34925,0 -0.529167,0 0,0.523875 0,1.04775 0,1.5875 -0.174625,0.08731 -0.34925,0.174625 -0.529167,0.264583 0,-0.6985 0,-1.397 0,-2.116666 0.436563,-0.08731 0.873125,-0.174625 1.322917,-0.264584 0,-1.135062 0,-2.270125 0,-3.439583 z"
       fill="#4d7049"
       id="path512"
       style="stroke-width:0.264583" />
    <path
       d="m 42.666345,68.73964 c 0.08731,0 0.174625,0 0.264583,0 0.08731,3.055937 0.174625,6.111875 0.264584,9.260417 -0.261938,-0.08731 -0.523875,-0.174625 -0.79375,-0.264584 0.08731,-2.968625 0.174625,-5.93725 0.264583,-8.995833 z"
       fill="#4f7a46"
       id="path522"
       style="stroke-width:0.264583" />
    <path
       d="m 54.837179,44.397973 c 0.174625,0 0.34925,0 0.529167,0 0,2.182813 0,4.365625 0,6.614583 -0.08731,0 -0.174625,0 -0.264584,0 -0.496056,-2.2753 -0.540307,-4.304459 -0.264583,-6.614583 z"
       fill="#53704c"
       id="path523"
       style="stroke-width:0.264583" />
    <path
       d="m 46.635095,6.562557 c 0.457414,-0.01442 0.914963,-0.02461 1.372526,-0.03307 0.254775,-0.0061 0.50955,-0.01228 0.772046,-0.0186 0.799745,0.05396 1.36584,0.245154 2.088761,0.580843 -0.08731,0.261937 -0.174625,0.523875 -0.264583,0.79375 -1.457347,-0.156145 -2.81749,-0.414507 -4.233333,-0.79375 0.08731,-0.174625 0.174625,-0.34925 0.264583,-0.529167 z"
       fill="#5c7853"
       id="path524"
       style="stroke-width:0.264583" />
    <path
       d="m 40.814262,71.120889 c 0.174625,0 0.34925,0 0.529167,0 0,1.222375 0,2.44475 0,3.704167 -0.436563,0.08731 -0.873125,0.174625 -1.322917,0.264583 -0.08731,0.261937 -0.174625,0.523875 -0.264583,0.79375 0,-1.135063 0,-2.270125 0,-3.439583 0.08731,0 0.174625,0 0.264583,0 0.03274,0.300136 0.06548,0.600273 0.09922,0.909505 0.05457,0.311051 0.10914,0.622101 0.165364,0.942578 0.174625,0.08731 0.34925,0.174625 0.529167,0.264583 0,-1.135062 0,-2.270125 -10e-7,-3.439583 z"
       fill="#547d4b"
       id="path529"
       style="stroke-width:0.264583" />
    <path
       d="m 39.491345,16.881307 c 0.438675,0.789615 0.707753,1.478285 0.79375,2.38125 -0.176389,0.529167 -0.352778,1.058333 -0.529167,1.5875 -0.122987,0.967854 -0.198775,1.937145 -0.264583,2.910417 -0.08731,0 -0.174625,0 -0.264583,0 -0.0077,-0.948086 -0.01239,-1.896164 -0.01654,-2.844271 -0.0022,-0.268759 -0.0044,-0.537518 -0.0067,-0.814421 -8.52e-4,-0.259209 -0.0017,-0.518418 -0.0026,-0.785482 -0.0014,-0.238318 -0.0028,-0.476637 -0.0042,-0.722178 0.02802,-0.610534 0.12229,-1.128441 0.294621,-1.712815 z"
       fill="#6f866a"
       id="path531"
       style="stroke-width:0.264583" />
    <path
       d="m 44.253845,84.614639 c 0.174625,0 0.34925,0 0.529167,0 0,0.785812 0,1.571625 0,2.38125 -1.484313,0 -2.968625,0 -4.497917,0 0,-0.174625 0,-0.34925 0,-0.529167 1.309688,0 2.619375,0 3.96875,0 0,-0.611187 0,-1.222375 0,-1.852083 z"
       fill="#96bd8b"
       id="path544"
       style="stroke-width:0.264583" />
    <path
       d="m 39.226762,49.160473 c 0.08731,0.34925 0.174625,0.6985 0.264583,1.058333 0.261938,0 0.523875,0 0.79375,0 -0.08731,0.6985 -0.174625,1.397 -0.264583,2.116667 1.571625,0 3.14325,0 4.7625,0 0,0.08731 0,0.174625 0,0.264583 -1.658938,0 -3.317875,0 -5.027083,0 -0.08731,0.34925 -0.174625,0.6985 -0.264584,1.058334 0.0086,-0.542603 0.01723,-1.085205 0.02584,-1.627808 0.02856,-0.493442 0.02856,-0.493442 -0.290421,-0.753442 -0.03735,-0.706594 -0.01124,-1.408727 0,-2.116667 z"
       fill="#5d7d56"
       id="path545"
       style="stroke-width:0.264583" />
    <path
       d="m 54.043429,82.497973 c 0.174625,0 0.34925,0 0.529167,0 0.08731,0.436562 0.174625,0.873125 0.264583,1.322917 0.174625,0 0.34925,0 0.529167,0 0,0.6985 0,1.397 0,2.116666 -0.261938,-0.08731 -0.523875,-0.174625 -0.79375,-0.264583 0,-0.174625 0,-0.34925 0,-0.529167 -0.34925,-0.08731 -0.6985,-0.174625 -1.058334,-0.264583 0.174625,-0.785813 0.34925,-1.571625 0.529167,-2.38125 z"
       fill="#5c8255"
       id="path552"
       style="stroke-width:0.264583" />
    <path
       d="m 54.572595,23.49589 c 0.08731,0 0.174625,0 0.264583,0 0.08731,1.397 0.174625,2.794 0.264584,4.233333 -0.08731,0 -0.174625,0 -0.264584,0 -0.08731,0.6985 -0.174625,1.397 -0.264583,2.116667 -0.174625,-0.08731 -0.34925,-0.174625 -0.529167,-0.264583 -0.01536,-0.865389 -0.02477,-1.730742 -0.03307,-2.596224 -0.0044,-0.245737 -0.0089,-0.491474 -0.01344,-0.744658 -0.0017,-0.236187 -0.0034,-0.472374 -0.0052,-0.715718 -0.0028,-0.217535 -0.0055,-0.435071 -0.0084,-0.659198 0.06007,-0.575869 0.06007,-0.575869 0.58924,-1.369619 z"
       fill="#608459"
       id="path554"
       style="stroke-width:0.264583" />
    <path
       d="m 54.308012,71.385473 c 0.174625,0 0.34925,0 0.529167,0 0.01424,0.694603 0.02476,1.388916 0.03307,2.083594 0.0044,0.197476 0.0089,0.394952 0.01344,0.598413 0.0047,0.51732 -0.0192,1.034706 -0.04651,1.551326 -0.174625,0.174625 -0.34925,0.34925 -0.529167,0.529167 -0.320922,-1.484263 -0.352191,-2.985404 -0.264583,-4.497917 0.08731,-0.08731 0.174625,-0.174625 0.264583,-0.264583 z"
       fill="#678e60"
       id="path566"
       style="stroke-width:0.264583" />
    <path
       d="m 43.06322,40.39615 c 0.661458,0.03307 0.661458,0.03307 0.926042,0.297656 0.03307,0.661459 0.03307,0.661459 0,1.322917 -0.264584,0.264583 -0.264584,0.264583 -0.926042,0.297656 -0.661458,-0.03307 -0.661458,-0.03307 -0.926042,-0.297656 -0.03307,-0.661458 -0.03307,-0.661458 0,-1.322917 0.264584,-0.264583 0.264584,-0.264583 0.926042,-0.297656 z"
       fill="#f5e8e5"
       id="path575"
       style="stroke-width:0.264583" />
    <path
       d="m 43.195512,8.41464 c 0.08731,0.174625 0.174625,0.34925 0.264583,0.529167 0.535684,0.172543 0.535684,0.172543 1.058334,0.264583 -0.08731,0.523875 -0.174625,1.04775 -0.264584,1.5875 -0.174625,0 -0.34925,0 -0.529166,0 0.08731,-0.523875 0.174625,-1.04775 0.264583,-1.5875 -0.261938,0 -0.523875,0 -0.79375,0 -0.174625,0.436562 -0.34925,0.873125 -0.529167,1.322917 -0.261937,0 -0.523875,0 -0.79375,0 -0.446613,0.380339 -0.446613,0.380339 -0.79375,0.79375 0,-0.34925 0,-0.6985 0,-1.058334 0.431443,-0.279854 0.873868,-0.543118 1.322917,-0.79375 0.471869,-0.547568 0.471869,-0.547568 0.79375,-1.058333 z"
       fill="#4f7347"
       id="path578"
       style="stroke-width:0.264583" />
    <path
       d="m 41.078845,81.968806 c 0.08731,0 0.174625,0 0.264583,0 0,0.873125 0,1.74625 0,2.645833 -0.523875,0.261938 -0.523875,0.261938 -1.058333,0.529167 -0.264583,-0.264583 -0.264583,-0.264583 -0.290422,-0.869198 0.0031,-0.242496 0.0061,-0.484993 0.0093,-0.734838 0.0024,-0.243179 0.0048,-0.486358 0.0072,-0.736906 0.0031,-0.187927 0.0061,-0.375853 0.0093,-0.569475 0.261937,0.08731 0.523875,0.174625 0.79375,0.264584 0.08731,-0.174625 0.174625,-0.34925 0.264583,-0.529167 z"
       fill="#578252"
       id="path593"
       style="stroke-width:0.264583" />
    <path
       d="m 54.572595,53.129223 c 0.261937,0 0.523875,0 0.79375,0 0,1.833562 0,3.667125 0,5.55625 -0.79375,-1.058333 -0.79375,-1.058333 -0.727604,-1.537891 0.06548,-0.190996 0.130969,-0.381992 0.198437,-0.578776 0.09251,-0.616729 0.181384,-1.234029 0.264584,-1.852083 -0.174625,0 -0.34925,0 -0.529167,0 0,-0.523875 0,-1.04775 0,-1.5875 z"
       fill="#526e4c"
       id="path600"
       style="stroke-width:0.264583" />
    <path
       d="m 47.958012,16.616724 c -0.529167,0.529167 -0.529167,0.529167 -1.389062,0.744141 -1.164028,0.368608 -1.695337,0.817466 -2.579688,1.637109 -0.08731,-0.261938 -0.174625,-0.523875 -0.264583,-0.79375 1.332416,-1.439524 2.280588,-1.826612 4.233333,-1.5875 z"
       fill="#527847"
       id="path609"
       style="stroke-width:0.264583" />
    <path
       d="m 44.518429,11.58964 c 0.174625,0 0.34925,0 0.529167,0 -0.276441,1.775037 -0.713848,3.189926 -1.5875,4.7625 -0.45575,-1.080699 -0.01926,-1.94991 0.380338,-2.976563 0.06429,-0.171896 0.128582,-0.343792 0.19482,-0.520898 0.158494,-0.42265 0.320494,-0.843983 0.483175,-1.265039 z"
       fill="#497441"
       id="path620"
       style="stroke-width:0.264583" />
    <path
       d="m 40.285095,76.941723 c 0.174625,0 0.34925,0 0.529167,0 0.05858,0.517762 0.112912,1.036008 0.165364,1.554427 0.0307,0.288541 0.06139,0.577081 0.09302,0.874365 0.002,0.246249 0.0041,0.492497 0.0062,0.746208 -0.174625,0.174625 -0.34925,0.34925 -0.529167,0.529167 -0.184543,0.348581 -0.362373,0.700918 -0.529166,1.058333 -0.02631,-1.616844 -0.01886,-3.16813 0.264582,-4.7625 z"
       fill="#64915c"
       id="path627"
       style="stroke-width:0.264583" />
    <path
       d="m 39.491345,47.30839 c 0.174625,0.261937 0.34925,0.523875 0.529167,0.79375 0.436562,-0.174625 0.873125,-0.34925 1.322916,-0.529167 -0.174625,0.34925 -0.34925,0.6985 -0.529166,1.058334 -0.174625,0 -0.34925,0 -0.529167,0 0,0.523875 0,1.04775 0,1.5875 -0.261938,0 -0.523875,0 -0.79375,0 -0.297656,-2.017448 -0.297656,-2.017448 0,-2.910417 z"
       fill="#516f47"
       id="path629"
       style="stroke-width:0.264583" />
    <path
       d="m 51.397595,18.204223 c 0.174625,0 0.34925,0 0.529167,0 0.907142,2.230059 0.907142,2.230059 0.79375,3.439583 -0.261938,0 -0.523875,0 -0.79375,0 -0.384134,-1.200418 -0.591368,-2.164454 -0.529167,-3.439583 z"
       fill="#93be8b"
       id="path630"
       style="stroke-width:0.264583" />
    <path
       d="m 40.814262,10.266724 c 0.316339,0.939978 0.226316,1.675105 0.06615,2.645833 -0.06344,0.409278 -0.06344,0.409278 -0.128158,0.826823 -0.207994,0.781039 -0.46881,1.21614 -0.996321,1.819011 0.150869,-1.840603 0.532613,-3.522735 1.058333,-5.291667 z m 0.529167,0.79375 c 0,0.79375 0,0.79375 0,0.79375 z"
       fill="#71876b"
       id="path643"
       style="stroke-width:0.264583" />
    <path
       d="m 47.693429,70.591723 c 0.785812,0 1.571625,0 2.38125,0 0,0.34925 0,0.6985 0,1.058333 -0.785813,0 -1.571625,0 -2.38125,0 0,-0.34925 0,-0.6985 0,-1.058333 z"
       fill="#6f9c60"
       id="path654"
       style="stroke-width:0.264583" />
    <path
       d="m 53.778845,14.76464 c 0.08731,0 0.174625,0 0.264583,0 0,0.436562 0,0.873125 0,1.322917 0.261938,0 0.523875,0 0.79375,0 -0.08731,1.04775 -0.174625,2.0955 -0.264583,3.175 -0.08731,0 -0.174625,0 -0.264583,0 -0.532256,-1.530237 -0.587599,-2.884538 -0.529167,-4.497917 z"
       fill="#5b7852"
       id="path668"
       style="stroke-width:0.264583" />
    <path
       d="m 54.837179,62.654223 c 0.498401,0.840308 0.582088,1.407502 0.522965,2.377116 -0.01364,0.247272 -0.02729,0.494543 -0.04134,0.749308 -0.01705,0.256139 -0.03411,0.512279 -0.05168,0.77618 -0.01501,0.260232 -0.03001,0.520464 -0.04547,0.788583 -0.03736,0.641334 -0.07741,1.282384 -0.11989,1.923396 -0.08731,0 -0.174625,0 -0.264583,0 -0.05179,-0.804687 -0.101028,-1.609397 -0.148828,-2.414323 -0.01484,-0.226466 -0.02967,-0.452933 -0.04496,-0.686263 -0.07026,-1.217895 -0.07216,-2.312311 0.193786,-3.513997 z"
       fill="#536f4b"
       id="path679"
       style="stroke-width:0.264583" />
    <path
       d="m 53.514262,59.743806 c 0.261937,0 0.523875,0 0.79375,0 -0.02316,0.463262 -0.05179,0.926252 -0.08268,1.389062 -0.01535,0.257845 -0.0307,0.51569 -0.04651,0.781348 -0.14766,0.807056 -0.390371,1.19168 -0.929142,1.79834 -0.0071,-0.611833 -0.01226,-1.223688 -0.01654,-1.835547 -0.0031,-0.340723 -0.0061,-0.681447 -0.0093,-1.032495 0.02584,-0.836125 0.02584,-0.836125 0.290422,-1.100708 z"
       fill="#648a5c"
       id="path680"
       style="stroke-width:0.264583" />
    <path
       d="m 53.778845,39.635473 c 0.261937,0.08731 0.523875,0.174625 0.79375,0.264583 -0.08731,0.08731 -0.174625,0.174625 -0.264583,0.264584 -0.01921,0.578483 -0.02216,1.157553 -0.01654,1.736328 0.0024,0.316849 0.0048,0.633698 0.0072,0.960148 0.0031,0.245225 0.0061,0.490451 0.0093,0.743107 -0.261938,-0.08731 -0.523875,-0.174625 -0.79375,-0.264583 -0.0071,-0.567734 -0.01226,-1.135493 -0.01654,-1.703255 -0.0031,-0.316167 -0.0061,-0.632334 -0.0093,-0.958081 0.02584,-0.778248 0.02584,-0.778248 0.290422,-1.042831 z"
       fill="#4c7245"
       id="path691"
       style="stroke-width:0.264583" />
    <path
       d="m 52.985095,9.20839 c 0.628925,0.76319 0.97403,1.434935 1.256771,2.38125 0.06958,0.223738 0.139154,0.447477 0.21084,0.677995 0.125261,0.67382 0.07512,1.061643 -0.144694,1.703255 0,-0.261938 0,-0.523875 0,-0.79375 -0.174625,0 -0.34925,0 -0.529167,0 -0.03274,-0.289223 -0.06548,-0.578445 -0.09922,-0.876432 -0.100448,-0.995182 -0.100448,-0.995182 -0.694531,-1.769401 -0.03307,-0.711068 -0.03307,-0.711068 1e-6,-1.322917 z"
       fill="#788870"
       id="path693"
       style="stroke-width:0.264583" />
    <path
       d="m 41.078845,69.268806 c 0.261937,0.08731 0.523875,0.174625 0.79375,0.264583 0,0.611188 0,1.222375 0,1.852084 -0.261938,0.130968 -0.261938,0.130968 -0.529167,0.264583 -0.529166,-0.479557 -0.529166,-0.479557 -1.058333,-1.058333 0,-0.261938 0,-0.523875 0,-0.79375 0.261938,-0.174625 0.523875,-0.34925 0.79375,-0.529167 z"
       fill="#8db482"
       id="path701"
       style="stroke-width:0.264583" />
    <path
       d="m 53.778845,65.56464 c 0.261937,0 0.523875,0 0.79375,0 0,0.174625 0,0.34925 0,0.529167 -0.174625,0 -0.34925,0 -0.529167,0 0,1.04775 0,2.0955 0,3.175 -0.174625,0 -0.34925,0 -0.529166,0 -0.0071,-0.567734 -0.01226,-1.135493 -0.01654,-1.703256 -0.0031,-0.316166 -0.0061,-0.632333 -0.0093,-0.958081 0.02584,-0.778247 0.02584,-0.778247 0.290423,-1.04283 z"
       fill="#507647"
       id="path709"
       style="stroke-width:0.264583" />
    <path
       d="m 39.226762,44.13339 c 0.861734,0.800181 1.514345,1.634793 2.116667,2.645833 0,0.261938 0,0.523875 0,0.79375 -0.174625,0 -0.34925,0 -0.529167,0 -0.0764,-0.169168 -0.152797,-0.338336 -0.23151,-0.51263 -0.25221,-0.585936 -0.25221,-0.585936 -0.826823,-0.810287 -0.36378,-0.767979 -0.529167,-1.259783 -0.529167,-2.116666 z"
       fill="#6f7357"
       id="path710"
       style="stroke-width:0.264583" />
    <path
       d="m 48.222595,16.881307 c 0.885042,-0.101148 1.272295,-0.02991 2.050521,0.429948 0.705649,0.744851 0.79118,1.208063 0.859896,2.215885 -0.185539,-0.196453 -0.371078,-0.392906 -0.56224,-0.595312 -0.55505,-0.530917 -1.006815,-0.915696 -1.637109,-1.322917 -0.234653,-0.152797 -0.469305,-0.305594 -0.711068,-0.463021 0,-0.08731 0,-0.174625 0,-0.264583 z"
       fill="#4d7443"
       id="path713"
       style="stroke-width:0.264583" />
    <path
       d="m 44.253845,10.266724 c 0.03274,0.169168 0.06548,0.338336 0.09922,0.51263 0.08185,0.270123 0.08185,0.270123 0.165364,0.545703 0.174625,0.08731 0.34925,0.174625 0.529167,0.264584 -0.174625,0 -0.34925,0 -0.529167,0 -0.03274,0.196453 -0.06548,0.392906 -0.09922,0.595312 -0.153424,0.675062 -0.360386,1.184475 -0.694532,1.785938 -0.174625,0 -0.34925,0 -0.529166,0 0.262053,-1.2796 0.517786,-2.507242 1.058334,-3.704167 z"
       fill="#76a66c"
       id="path714"
       style="stroke-width:0.264583" />
    <path
       d="m 50.339262,19.262557 c 0.174625,0 0.34925,0 0.529167,0 0.311074,0.972108 0.284074,1.896875 0.264583,2.910417 -0.261938,0 -0.523875,0 -0.79375,0 0,-0.960438 0,-1.920875 0,-2.910417 z"
       fill="#648f5b"
       id="path740"
       style="stroke-width:0.264583" />
    <path
       d="m 43.989262,81.704223 c 0.08731,0 0.174625,0 0.264583,0 0,0.611187 0,1.222375 0,1.852083 0.34925,0.08731 0.6985,0.174625 1.058334,0.264584 -0.174625,0.174625 -0.34925,0.34925 -0.529167,0.529166 -0.826823,-0.09922 -0.826823,-0.09922 -1.5875,-0.264583 0,-0.261938 0,-0.523875 0,-0.79375 0.174625,-0.08731 0.34925,-0.174625 0.529167,-0.264583 0.173448,-0.66869 0.173448,-0.66869 0.264583,-1.322917 z"
       fill="#58854f"
       id="path753"
       style="stroke-width:0.264583" />
    <path
       d="m 42.401762,77.735473 c 0.785812,0.130969 0.785812,0.130969 1.5875,0.264583 -0.261938,0.08731 -0.523875,0.174625 -0.79375,0.264584 0,1.397 0,2.794 0,4.233333 -0.08731,0 -0.174625,0 -0.264583,0 -0.08731,-1.135063 -0.174625,-2.270125 -0.264584,-3.439583 -0.08731,0 -0.174625,0 -0.264583,0 0,-0.436563 0,-0.873125 0,-1.322917 z"
       fill="#55834e"
       id="path754"
       style="stroke-width:0.264583" />
    <path
       d="m 53.514262,54.981306 c 0.261937,0.08731 0.523875,0.174625 0.79375,0.264583 -0.08731,0.785813 -0.174625,1.571625 -0.264583,2.38125 0.174625,0 0.34925,0 0.529166,0 0,0.174625 0,0.34925 0,0.529167 -0.34925,-0.08731 -0.6985,-0.174625 -1.058333,-0.264583 0,-0.960438 0,-1.920875 0,-2.910417 z"
       fill="#4d7649"
       id="path756"
       style="stroke-width:0.264583" />
    <path
       d="m 45.312179,45.985473 c 0.08731,0 0.174625,0 0.264583,0 0.02772,1.530857 -0.002,2.987965 -0.264583,4.497917 -0.08731,0 -0.174625,0 -0.264583,0 -0.0587,-0.600486 -0.112992,-1.201404 -0.165365,-1.802474 -0.0307,-0.334584 -0.06139,-0.669169 -0.09302,-1.013892 -0.0062,-0.887801 -0.0062,-0.887801 0.522965,-1.681551 z"
       fill="#4e7040"
       id="path757"
       style="stroke-width:0.264583" />
    <path
       d="m 42.930929,21.379223 c 0.174625,0.174625 0.34925,0.34925 0.529167,0.529167 0.820014,-0.08519 0.820014,-0.08519 1.5875,-0.264584 -0.08731,0.34925 -0.174625,0.6985 -0.264584,1.058334 -0.31105,0.03274 -0.31105,0.03274 -0.628385,0.06614 -0.343793,0.09823 -0.343793,0.09823 -0.694531,0.198438 -0.174625,0.34925 -0.34925,0.6985 -0.529167,1.058333 0,-0.873125 0,-1.74625 0,-2.645833 z"
       fill="#4b7443"
       id="path758"
       style="stroke-width:0.264583" />
    <path
       d="m 54.308012,87.789639 c 0.174625,0.08731 0.34925,0.174625 0.529167,0.264583 -0.174625,0.34925 -0.34925,0.6985 -0.529167,1.058334 -1.397,0 -2.794,0 -4.233333,0 0,-0.08731 0,-0.174625 0,-0.264584 0.358629,-0.01484 0.358629,-0.01484 0.724503,-0.02997 0.312074,-0.01739 0.624148,-0.03479 0.945679,-0.05271 0.310028,-0.01535 0.620055,-0.0307 0.939478,-0.04651 0.85595,-0.139638 1.117485,-0.247524 1.623673,-0.929143 z"
       fill="#6b8368"
       id="path773"
       style="stroke-width:0.264583" />
    <path
       d="m 53.514262,45.456306 c 0.261937,0 0.523875,0 0.79375,0 0,1.04775 0,2.0955 0,3.175 -0.261938,-0.08731 -0.523875,-0.174625 -0.79375,-0.264583 0,-0.960437 0,-1.920875 0,-2.910417 z"
       fill="#4b7447"
       id="path775"
       style="stroke-width:0.264583" />
    <path
       d="m 40.285095,34.60839 c 0.174625,0 0.34925,0 0.529167,0 0.08731,1.04775 0.174625,2.0955 0.264583,3.175 -0.261938,0.08731 -0.523875,0.174625 -0.79375,0.264583 0,-1.135062 0,-2.270125 0,-3.439583 z"
       fill="#678a5d"
       id="path776"
       style="stroke-width:0.264583" />
    <path
       d="m 50.868429,24.554223 c 0.174625,0 0.34925,0 0.529167,0 -0.02311,0.424701 -0.05173,0.849105 -0.08268,1.273307 -0.01535,0.236358 -0.0307,0.472716 -0.04651,0.716236 -0.152097,0.737263 -0.352532,0.984733 -0.929143,1.45004 0.137473,-1.1587 0.279601,-2.298709 0.529166,-3.439583 z"
       fill="#4a7545"
       id="path778"
       style="stroke-width:0.264583" />
    <path
       d="m 50.339262,10.79589 c 0.174625,0.34925 0.34925,0.6985 0.529167,1.058333 0.174625,0 0.34925,0 0.529166,0 0,0.6985 0,1.397 0,2.116667 -0.174625,0 -0.34925,0 -0.529166,0 -0.140159,-0.429186 -0.277424,-0.859318 -0.413412,-1.289844 -0.07674,-0.239427 -0.153479,-0.478854 -0.232544,-0.725537 -0.147794,-0.630452 -0.147794,-0.630452 0.116789,-1.159619 z"
       fill="#73a168"
       id="path779"
       style="stroke-width:0.264583" />
    <path
       d="m 52.985095,76.677139 c 0.08731,0 0.174625,0 0.264583,0 0.0099,0.242156 0.01978,0.484312 0.02997,0.733805 0.01739,0.314462 0.03479,0.628923 0.05271,0.952914 0.01535,0.313097 0.03069,0.626194 0.04651,0.948779 0.04468,0.265348 0.08936,0.530696 0.135393,0.804085 0.261937,0.174625 0.523875,0.34925 0.79375,0.529167 -0.08731,0.261937 -0.174625,0.523875 -0.264584,0.79375 -0.174625,0 -0.34925,0 -0.529166,0 -0.628624,-0.980059 -0.583407,-1.833522 -0.56224,-2.976563 0.0048,-0.334243 0.0096,-0.668486 0.01447,-1.012858 0.0061,-0.255116 0.01228,-0.510232 0.0186,-0.773079 z"
       fill="#98c28e"
       id="path789"
       style="stroke-width:0.264583" />
    <path
       d="m 46.635095,43.075056 c 0.174625,0.261938 0.34925,0.523875 0.529167,0.79375 -0.358334,1.056142 -0.706916,1.93298 -1.5875,2.645834 0.190522,-1.219343 0.61197,-2.294566 1.058333,-3.439584 z"
       fill="#7a8c61"
       id="path791"
       style="stroke-width:0.264583" />
    <path
       d="m 39.491345,35.931307 c 0.395296,0.790591 0.73901,1.560132 1.058333,2.38125 -0.436562,0.34925 -0.873125,0.6985 -1.322916,1.058333 0.08731,-1.135063 0.174625,-2.270125 0.264583,-3.439583 z"
       fill="#5d6e51"
       id="path792"
       style="stroke-width:0.264583" />
    <path
       d="m 38.962179,40.16464 c 0.261937,0.08731 0.523875,0.174625 0.79375,0.264583 0.02142,0.38561 0.03682,0.771559 0.04961,1.157552 0.0092,0.214871 0.01842,0.429741 0.02791,0.651123 -0.02558,0.18895 -0.05116,0.3779 -0.07751,0.572575 -0.261938,0.174625 -0.523875,0.34925 -0.79375,0.529167 0,-1.04775 0,-2.0955 0,-3.175 z"
       fill="#745550"
       id="path810"
       style="stroke-width:0.264583" />
    <path
       d="m 40.549679,38.047973 c 0.174625,0.174625 0.34925,0.34925 0.529167,0.529167 -0.158254,0.196453 -0.316508,0.392906 -0.479558,0.595312 -0.468109,0.588481 -0.925012,1.181794 -1.372526,1.785938 -0.08268,-0.711068 -0.08268,-0.711068 0,-1.5875 0.661459,-0.760677 0.661459,-0.760677 1.322917,-1.322917 z"
       fill="#5b4537"
       id="path811"
       style="stroke-width:0.264583" />
    <path
       d="m 54.308012,38.312557 c 0.08731,0 0.174625,0 0.264583,0 0,0.436562 0,0.873125 0,1.322916 -0.261937,0.08731 -0.523875,0.174625 -0.79375,0.264584 -0.08731,1.04775 -0.174625,2.0955 -0.264583,3.174999 -0.08731,0 -0.174625,0 -0.264583,0 0,-1.222374 0,-2.444749 0,-3.704166 0.174625,-0.08731 0.34925,-0.174625 0.529166,-0.264583 0.174625,0.08731 0.34925,0.174625 0.529167,0.264583 0,-0.34925 0,-0.6985 0,-1.058333 z"
       fill="#759b6e"
       id="path812"
       style="stroke-width:0.264583" />
    <path
       d="m 49.545512,22.70214 c 0.523875,0 1.04775,0 1.5875,0 0.0756,1.965476 0.0756,1.965476 -0.529167,2.910417 -0.40599,-0.811981 -0.145479,-1.508375 0,-2.38125 -0.34925,-0.174625 -0.6985,-0.34925 -1.058333,-0.529167 z"
       fill="#90bc89"
       id="path814"
       style="stroke-width:0.264583" />
    <path
       d="m 43.195512,9.20839 c 0.261937,0 0.523875,0 0.79375,0 -0.08731,0.611187 -0.174625,1.222375 -0.264583,1.852083 -0.261938,0.08731 -0.523875,0.174625 -0.79375,0.264584 -0.03307,-1.521355 -0.03307,-1.521355 0.264583,-2.116667 z"
       fill="#63905c"
       id="path815"
       style="stroke-width:0.264583" />
    <path
       d="m 41.872595,47.30839 c 0.20191,0.08186 0.40382,0.163711 0.611849,0.248047 0.496199,0.196171 0.998629,0.376973 1.504818,0.545703 -0.261938,0.392906 -0.261938,0.392906 -0.529167,0.79375 -0.496094,-0.04961 -0.496094,-0.04961 -1.058333,-0.264583 -0.33073,-0.677995 -0.33073,-0.677995 -0.529167,-1.322917 z"
       fill="#4c4a2f"
       id="path832"
       style="stroke-width:0.264583" />
    <path
       d="m 53.514262,77.470889 c 0.261937,0.130969 0.261937,0.130969 0.529167,0.264583 0.109554,0.604615 0.109554,0.604615 0.165364,1.339453 0.01978,0.243179 0.03956,0.486358 0.05994,0.736906 0.01944,0.28189 0.01944,0.28189 0.03927,0.569475 -0.261938,0 -0.523875,0 -0.79375,0 0,-0.960438 0,-1.920875 0,-2.910417 z"
       fill="#57824e"
       id="path854"
       style="stroke-width:0.264583" />
    <path
       d="m 42.930929,74.031306 c 0.08731,0 0.174625,0 0.264583,0 0.01296,0.153479 0.02592,0.306958 0.03927,0.465088 0.118549,1.238625 0.304161,2.332842 0.754476,3.503662 -0.261937,0 -0.523875,0 -0.79375,0 -0.264873,-0.875958 -0.291984,-1.667099 -0.281119,-2.579688 0.0024,-0.260573 0.0048,-0.521146 0.0072,-0.789615 0.0031,-0.197818 0.0061,-0.395635 0.0093,-0.599447 z"
       fill="#66925d"
       id="path855"
       style="stroke-width:0.264583" />
    <path
       d="m 53.514262,72.179223 c 0.174625,0 0.34925,0 0.529167,0 0.08731,0.960437 0.174625,1.920875 0.264583,2.910417 -0.261938,-0.08731 -0.523875,-0.174625 -0.79375,-0.264584 0,-0.873125 0,-1.74625 0,-2.645833 z"
       fill="#4c7646"
       id="path856"
       style="stroke-width:0.264583" />
    <path
       d="m 40.814262,30.110473 c 0.174625,0 0.34925,0 0.529167,0 0,0.785813 0,1.571625 0,2.38125 -0.436563,0.08731 -0.873125,0.174625 -1.322917,0.264584 0.174625,-0.174625 0.34925,-0.34925 0.529167,-0.529167 0.12121,-0.521852 0.12121,-0.521852 0.165364,-1.091406 0.03274,-0.338336 0.06549,-0.676672 0.09922,-1.025261 z"
       fill="#4d7945"
       id="path857"
       style="stroke-width:0.264583" />
    <path
       d="m 46.370512,72.972973 c 0.264583,0.79375 0.264583,0.79375 -0.115755,1.637109 -0.204639,0.36835 -0.204639,0.36835 -0.413412,0.744141 -0.174625,0 -0.34925,0 -0.529166,0 0.16282,-1.465385 0.16282,-1.465385 0.677994,-2.083594 0.125512,-0.09823 0.251024,-0.196453 0.380339,-0.297656 z"
       fill="#4c7c40"
       id="path877"
       style="stroke-width:0.264583" />
    <path
       d="m 46.635095,6.562557 c 0.785812,0 1.571625,0 2.38125,0 -0.08731,0.261937 -0.174625,0.523875 -0.264583,0.79375 -0.785813,-0.08731 -1.571625,-0.174625 -2.38125,-0.264583 0.08731,-0.174625 0.174625,-0.34925 0.264583,-0.529167 z"
       fill="#4f6c47"
       id="path882"
       style="stroke-width:0.264583" />
    <path
       d="m 39.755929,72.443806 c 0.08731,0 0.174625,0 0.264583,0 0.02729,0.289223 0.05457,0.578445 0.08268,0.876432 0.174777,0.937444 0.235534,1.222359 0.975651,1.769401 -0.34925,0 -0.6985,0 -1.058334,0 -0.08731,0.261938 -0.174625,0.523875 -0.264583,0.79375 0,-1.135062 0,-2.270125 0,-3.439583 z"
       fill="#4d7347"
       id="path902"
       style="stroke-width:0.264583" />
    <path
       d="m 46.635095,20.585473 c 1.698277,-0.09613 1.698277,-0.09613 2.38125,0.330729 0.264583,0.463021 0.264583,0.463021 0.181901,1.041797 -0.09004,0.237381 -0.09004,0.237381 -0.181901,0.479557 -0.174625,-0.436562 -0.34925,-0.873125 -0.529167,-1.322916 -0.611187,-0.08731 -1.222375,-0.174625 -1.852083,-0.264584 0,-0.08731 0,-0.174625 0,-0.264583 z"
       fill="#92bd89"
       id="path905"
       style="stroke-width:0.264583" />
    <path
       d="m 44.518429,40.693806 c 0.198437,0.463021 0.198437,0.463021 0.264583,1.058334 -0.51263,0.595312 -0.51263,0.595312 -1.058333,1.058333 -0.34925,-0.174625 -0.6985,-0.34925 -1.058333,-0.529167 0.163711,-0.02183 0.327422,-0.04366 0.496093,-0.06615 0.608228,-0.147129 0.608228,-0.147129 0.876433,-0.727604 0.07094,-0.174625 0.141883,-0.34925 0.214974,-0.529166 0.08731,-0.08731 0.174625,-0.174625 0.264583,-0.264584 z"
       fill="#75504b"
       id="path927"
       style="stroke-width:0.264583" />
    <path
       d="m 44.253845,84.614639 c 0.174625,0 0.34925,0 0.529167,0 0,0.785812 0,1.571625 0,2.38125 -0.261938,-0.08731 -0.523875,-0.174625 -0.79375,-0.264583 0.08731,-0.6985 0.174625,-1.397 0.264583,-2.116667 z"
       fill="#9ec895"
       id="path953"
       style="stroke-width:0.264583" />
    <path
       d="m 44.518429,11.58964 c 0.174625,0 0.34925,0 0.529167,0 -0.174625,0.873125 -0.34925,1.74625 -0.529167,2.645833 -0.174625,-0.174625 -0.34925,-0.34925 -0.529167,-0.529166 0.09598,-0.74866 0.290234,-1.399869 0.529167,-2.116667 z"
       fill="#4e7b47"
       id="path958"
       style="stroke-width:0.264583" />
    <path
       d="m 53.778845,81.968806 c 0.174625,0 0.34925,0 0.529167,0 -0.15503,1.627808 -0.15503,1.627808 -0.264584,2.116667 -0.261937,0.130968 -0.261937,0.130968 -0.529166,0.264583 -0.02584,-1.627808 -0.02584,-1.627808 0,-2.116667 0.08731,-0.08731 0.174625,-0.174625 0.264583,-0.264583 z"
       fill="#47703e"
       id="path984"
       style="stroke-width:0.264583" />
    <path
       d="m 39.755929,33.02089 c 0.08731,0.261937 0.174625,0.523875 0.264583,0.79375 0.533158,0.194002 0.533158,0.194002 1.058334,0.264583 -0.08731,0.261938 -0.174625,0.523875 -0.264584,0.79375 -0.261937,-0.174625 -0.523875,-0.34925 -0.79375,-0.529166 -0.08731,0.261937 -0.174625,0.523875 -0.264583,0.79375 0,-0.6985 0,-1.397 0,-2.116667 z"
       fill="#4f7547"
       id="path988"
       style="stroke-width:0.264583" />
    <path
       d="m 41.343429,47.30839 c 0.529167,0.363802 0.529167,0.363802 1.058333,0.79375 0,0.174625 0,0.34925 0,0.529167 -0.523875,0 -1.04775,0 -1.5875,0 0.174625,-0.436563 0.34925,-0.873125 0.529167,-1.322917 z"
       fill="#8da078"
       id="path1010"
       style="stroke-width:0.264583" />
    <path
       d="m 40.549679,22.437557 c 0.529167,0.79375 0.529167,0.79375 0.429948,1.372526 -0.05457,0.158254 -0.109141,0.316508 -0.165365,0.479557 -0.08731,-0.08731 -0.174625,-0.174625 -0.264583,-0.264583 -0.174625,0.174625 -0.34925,0.34925 -0.529167,0.529167 -0.05314,-0.98319 -0.0402,-1.262614 0.529167,-2.116667 z"
       fill="#5e8957"
       id="path1011"
       style="stroke-width:0.264583" />
  </g>
</svg>
