<?xml version="1.0" encoding="UTF-8" standalone="no"?>
<!-- Created with Inkscape (http://www.inkscape.org/) -->

<svg
   width="96mm"
   height="96mm"
   viewBox="0 0 96 96"
   version="1.1"
   id="svg1"
   inkscape:version="1.4.2 (ebf0e940, 2025-05-08)"
   sodipodi:docname="default.svg"
   xmlns:inkscape="http://www.inkscape.org/namespaces/inkscape"
   xmlns:sodipodi="http://sodipodi.sourceforge.net/DTD/sodipodi-0.dtd"
   xmlns="http://www.w3.org/2000/svg"
   xmlns:svg="http://www.w3.org/2000/svg">
  <sodipodi:namedview
     id="namedview1"
     pagecolor="#ffffff"
     bordercolor="#000000"
     borderopacity="0.25"
     inkscape:showpageshadow="2"
     inkscape:pageopacity="0.0"
     inkscape:pagecheckerboard="0"
     inkscape:deskcolor="#d1d1d1"
     inkscape:document-units="mm"
     inkscape:zoom="0.80444024"
     inkscape:cx="397.17059"
     inkscape:cy="163.46771"
     inkscape:window-width="1920"
     inkscape:window-height="1052"
     inkscape:window-x="0"
     inkscape:window-y="28"
     inkscape:window-maximized="0"
     inkscape:current-layer="layer1" />
  <defs
     id="defs1" />
  <g
     inkscape:label="Layer 1"
     inkscape:groupmode="layer"
     id="layer1">
    <path
       d="m 73.323263,13.187541 c 7.472895,5.888355 13.879077,13.687799 16.217411,23.109242 0.06462,0.249456 0.129239,0.498912 0.195822,0.755927 1.733377,6.854584 1.940324,13.848291 0.168103,20.715652 -0.06052,0.236497 -0.121028,0.472993 -0.183384,0.716655 -1.897535,7.208876 -5.576771,13.557803 -10.734368,18.935298 -0.292732,0.307743 -0.585464,0.615489 -0.887068,0.932559 -0.307744,0.29273 -0.615487,0.585464 -0.932558,0.887067 -0.372248,0.3631 -0.372248,0.3631 -0.752016,0.733534 C 67.50423,88.383835 56.318062,90.875163 44.456613,90.64814 41.363339,90.534967 38.601525,90.067844 35.679764,89.065918 35.451125,88.987929 35.222488,88.909936 34.986919,88.829582 23.391652,84.778752 14.418411,76.72766 9.0561926,65.695815 4.2819941,55.600057 4.0280035,43.555762 7.6575333,33.021458 11.710895,22.521583 19.608079,13.679783 29.887704,8.9450049 44.192251,2.6550895 60.572253,3.8801143 73.323263,13.187541 Z"
       fill="#fdfefd"
       id="path2"
       style="stroke-width:0.363925" />
    <path
       d="m 73.323263,13.187541 c 7.472895,5.888355 13.879077,13.687799 16.217411,23.109242 0.06462,0.249456 0.129239,0.498912 0.195822,0.755927 1.733377,6.854584 1.940324,13.848291 0.168103,20.715652 -0.06052,0.236497 -0.121028,0.472993 -0.183384,0.716655 -1.897535,7.208876 -5.576771,13.557803 -10.734368,18.935298 -0.292732,0.307743 -0.585464,0.615489 -0.887068,0.932559 -0.307744,0.29273 -0.615487,0.585464 -0.932558,0.887067 -0.372248,0.3631 -0.372248,0.3631 -0.752016,0.733534 C 67.50423,88.383835 56.318062,90.875163 44.456613,90.64814 41.363339,90.534967 38.601525,90.067844 35.679764,89.065918 35.451125,88.987929 35.222488,88.909936 34.986919,88.829582 23.391652,84.778752 14.418411,76.72766 9.0561926,65.695815 4.2819941,55.600057 4.0280035,43.555762 7.6575333,33.021458 11.710895,22.521583 19.608079,13.679783 29.887704,8.9450049 44.192251,2.6550895 60.572253,3.8801143 73.323263,13.187541 Z m -50.380877,4.912988 c -0.284757,0.223772 -0.569512,0.447544 -0.862899,0.678095 -7.27714,6.057796 -11.790859,15.51874 -12.9662525,24.79666 -0.4613666,5.886065 -0.00179,11.958247 2.1835505,17.468403 0.153401,0.403445 0.306807,0.806892 0.464856,1.22256 2.10123,5.238523 5.084502,9.325733 8.997195,13.334443 0.215797,0.238313 0.431593,0.47663 0.65393,0.722163 4.425335,4.775861 10.97087,7.853469 17.178398,9.467739 0.350904,0.10836 0.701807,0.216735 1.063344,0.328384 9.00813,2.532078 19.441948,0.35859 27.482028,-4.104106 2.308129,-1.325936 4.375617,-2.854469 6.391434,-4.594555 0.308213,-0.241599 0.616427,-0.483194 0.93398,-0.732114 5.100629,-4.167289 8.645808,-10.525409 10.848094,-16.645307 0.08687,-0.240278 0.173752,-0.480556 0.26326,-0.728117 3.131918,-9.203195 1.953376,-19.594574 -2.270888,-28.207658 -0.10309,-0.208935 -0.20618,-0.41787 -0.312393,-0.633136 C 82.738104,29.942701 82.738104,29.942701 82.481095,29.400687 77.845575,20.223429 69.279803,13.831666 59.698819,10.550505 46.747117,6.3780822 33.375565,9.7625963 22.942386,18.100529 Z"
       fill="#57a45f"
       id="path13"
       style="stroke-width:0.363925" />
    <path
       d="m 47.325367,26.834731 c 1.021227,0.09177 1.627425,0.169197 2.359827,0.911235 0.151994,0.247227 0.30399,0.494454 0.460592,0.749173 0.185772,0.300239 0.371545,0.600477 0.562946,0.909813 0.842276,1.45273 1.671545,2.912235 2.487148,4.380073 1.24792,2.244175 2.541827,4.459769 3.841738,6.67415 2.033461,3.468082 4.013292,6.963105 5.961849,10.47955 0.918677,1.652174 1.843429,3.293704 2.842009,4.899128 0.155368,0.250012 0.310735,0.500025 0.47081,0.757614 0.401612,0.638096 0.8102,1.271786 1.219451,1.905009 0.59775,1.209731 0.708801,1.939525 0.537359,3.271062 -0.240191,0.24019 -0.480381,0.480381 -0.727851,0.727849 C 65.014431,62.398868 63.087019,61.71021 60.945547,60.83898 60.46142,60.647182 60.46142,60.647182 59.967514,60.45151 58.944086,60.045552 57.922538,59.635112 56.901145,59.224061 55.87561,58.813672 54.8497,58.404282 53.823081,57.996615 53.186471,57.743588 52.55052,57.4889 51.915329,57.232336 51.626135,57.116962 51.336942,57.001587 51.038984,56.882716 50.786738,56.78118 50.534491,56.679644 50.2746,56.575032 c -1.661165,-0.569219 -2.679536,-0.724621 -4.333143,-0.06628 -0.336435,0.131178 -0.672868,0.262353 -1.019498,0.397504 -0.359039,0.145166 -0.718079,0.290332 -1.087998,0.439897 -0.372762,0.145913 -0.745524,0.291827 -1.129581,0.442162 -1.190884,0.466632 -2.379242,0.93929 -3.567327,1.413003 -1.188279,0.471866 -2.377039,0.942332 -3.567327,1.409105 -0.74042,0.29052 -1.479669,0.584045 -2.21758,0.88088 -0.336434,0.13232 -0.672868,0.264648 -1.019497,0.400981 -0.29433,0.117465 -0.588661,0.234939 -0.891909,0.355968 -0.948927,0.278424 -1.691928,0.348137 -2.675552,0.251136 -0.727849,-0.727849 -0.727849,-0.727849 -0.830204,-1.754764 0.110175,-1.24497 0.367649,-1.863971 1.012167,-2.922241 0.199817,-0.334425 0.399633,-0.66885 0.605505,-1.01341 0.330776,-0.538406 0.330776,-0.538406 0.668232,-1.087688 0.471083,-0.786288 0.941605,-1.57291 1.411631,-2.359828 0.370226,-0.616074 0.370226,-0.616074 0.747931,-1.244594 1.121149,-1.874982 2.198796,-3.775002 3.277824,-5.674413 0.607482,-1.068874 1.21731,-2.136408 1.826901,-3.204079 0.120903,-0.211855 0.241821,-0.42371 0.366396,-0.641984 1.342503,-2.352017 2.688175,-4.702183 4.037666,-7.050199 0.216469,-0.378287 0.43294,-0.756576 0.65597,-1.146328 3.776978,-6.561946 3.776978,-6.561946 4.78016,-7.565128 z"
       fill="#54a85b"
       id="path21"
       style="stroke-width:0.363925" />
    <path
       d="m 6.2018335,36.296783 c 0.2401906,0 0.4803811,0 0.7278506,0 -0.04832,0.198439 -0.09664,0.396878 -0.1464237,0.60133 -0.096406,0.411655 -0.096406,0.411655 -0.1947562,0.831626 -0.063326,0.265991 -0.1266666,0.531984 -0.1919145,0.806037 -0.6032913,3.210213 -0.6366655,6.399334 -0.6496623,9.656809 -0.00757,0.463257 -0.015006,0.926515 -0.02275,1.403811 -0.011554,2.853148 0.2833293,5.431758 0.9698746,8.202974 0.2356282,1.060767 0.2356282,1.060767 0.2356282,2.516468 -0.2401906,0 -0.4803811,0 -0.7278506,0 -0.1801433,-0.900715 -0.1801433,-0.900715 -0.3639246,-1.819626 -0.1200919,0 -0.2401906,0 -0.363926,0 C 5.440899,58.114816 5.440899,58.114816 5.407159,57.725714 5.376665,57.394514 5.346171,57.063315 5.314755,56.722077 5.285196,56.392754 5.255651,56.06343 5.225199,55.724127 5.157402,54.852919 5.157402,54.852919 4.7461259,54.129111 c -0.040466,-0.939653 -0.059723,-1.869163 -0.061126,-2.809045 -0.00121,-0.281137 -0.00248,-0.562273 -0.00371,-0.851929 -0.00179,-0.597165 -0.00275,-1.194335 -0.00261,-1.791504 -7.854e-4,-0.902534 -0.00743,-1.804899 -0.014305,-2.707403 -0.026739,-7.326186 -0.026739,-7.326186 1.5374423,-9.672447 z"
       fill="#cfeed2"
       id="path183"
       style="stroke-width:0.363925" />
    <path
       d="m 85.901424,38.844258 c 0.120092,0 0.24019,0 0.363924,0 0.67197,3.025976 0.855852,5.935113 0.841577,9.029891 -0.0015,0.450327 -0.003,0.900656 -0.0047,1.364631 -0.05756,4.644273 -0.92099,8.579728 -2.656581,12.896682 -0.790176,-2.370527 0.323483,-4.994505 1.091775,-7.2785 0.120092,-0.240191 0.24019,-0.480381 0.363924,-0.727851 0.03241,-0.494375 0.04279,-0.990299 0.04132,-1.485731 -2.7e-5,-0.305959 -5.5e-5,-0.611919 -8.4e-5,-0.927149 -0.0019,-0.330582 -0.0037,-0.661162 -0.0056,-1.001761 -5.14e-4,-0.338233 -10e-4,-0.676466 -0.0015,-1.024949 -0.0021,-1.082787 -0.0066,-2.165547 -0.01128,-3.248327 -0.0018,-0.733062 -0.0034,-1.466124 -0.005,-2.199188 -0.004,-1.799259 -0.01032,-3.598499 -0.01777,-5.397748 z"
       fill="#daf6dd"
       id="path213"
       style="stroke-width:0.363925" />
    <path
       d="m 35.679764,84.698817 c 0.735637,0.04203 1.471028,0.08839 2.206295,0.136474 0.409545,0.02534 0.819088,0.05067 1.241042,0.07676 1.283689,0.150687 1.283689,0.150687 2.44299,0.519588 1.555989,0.402343 2.907475,0.451948 4.502861,0.430028 0.287193,-10e-4 0.574385,-0.0021 0.87028,-0.0032 0.90836,-0.004 1.816584,-0.01321 2.724902,-0.02246 0.619571,-0.0037 1.239144,-0.007 1.858718,-0.0099 1.510958,-0.008 3.021814,-0.02052 4.532715,-0.03554 0,0.120092 0,0.240191 0,0.363925 -6.998427,1.478913 -13.554957,0.862169 -20.379803,-1.091776 0,-0.120091 0,-0.24019 0,-0.363924 z"
       fill="#dff8e3"
       id="path245"
       style="stroke-width:0.363925" />
    <path
       d="m 30.220888,55.948737 c 0.363925,1.091775 0.363925,1.091775 0.0014,1.994481 -0.173107,0.3251 -0.346213,0.650202 -0.524566,0.985156 -0.172167,0.327916 -0.344335,0.655832 -0.52172,0.993686 -0.13558,0.250042 -0.271153,0.500084 -0.410836,0.757703 0.24019,0 0.480381,0 0.727849,0 0.24019,0.24019 0.480381,0.480381 0.72785,0.72785 0.508877,-0.156321 1.016639,-0.316276 1.523937,-0.477652 0.282881,-0.08866 0.56576,-0.177328 0.857213,-0.268679 0.916456,-0.323084 0.916456,-0.323084 1.762763,-0.878537 1.093064,-0.642115 2.151455,-1.004597 3.362042,-1.377514 0.410013,-0.129473 0.820026,-0.258955 1.242462,-0.392356 1.07756,-0.244512 1.07756,-0.244512 2.169335,0.119418 -1.776686,1.184458 -3.791467,1.826538 -5.777309,2.592966 -0.646686,0.255437 -0.646686,0.255437 -1.306435,0.516034 -0.624168,0.241364 -0.624168,0.241364 -1.260943,0.487604 -0.379931,0.147831 -0.759861,0.295663 -1.151304,0.447975 -1.041768,0.317623 -1.798157,0.4462 -2.87746,0.322522 -0.727851,-0.727851 -0.727851,-0.727851 -0.909814,-1.637663 0.273617,-1.915318 1.308327,-3.320917 2.365513,-4.912988 z"
       fill="#5d9664"
       id="path246"
       style="stroke-width:0.363925" />
    <path
       d="m 57.151344,40.663884 c 0.24019,0 0.480381,0 0.72785,0 0.45917,0.642556 0.45917,0.642556 0.978048,1.546682 0.19281,0.332608 0.385618,0.665216 0.584271,1.007902 0.205006,0.35794 0.410013,0.71588 0.621232,1.084666 0.424541,0.720292 0.849121,1.440559 1.273737,2.160806 1.007009,1.728515 1.971008,3.476078 2.917087,5.238531 0.550862,0.990102 1.143349,1.944829 1.745703,2.904293 0.791614,1.295931 1.260525,2.341939 1.341973,3.889448 -1.054409,-1.256433 -1.892412,-2.51556 -2.676839,-3.954842 -0.225149,-0.410041 -0.450299,-0.820084 -0.68227,-1.242551 -0.116516,-0.213923 -0.23303,-0.427847 -0.353075,-0.648253 -0.603232,-1.107488 -1.211505,-2.212187 -1.820613,-3.316452 -0.119157,-0.216124 -0.238311,-0.432248 -0.361076,-0.654922 -1.084468,-1.959103 -2.221955,-3.882306 -3.408516,-5.781114 -0.887512,-1.434357 -0.887512,-1.434357 -0.887512,-2.234194 z"
       fill="#e1f8e3"
       id="path265"
       style="stroke-width:0.363925" />
    <path
       d="m 37.443949,5.6915368 c 0.746331,0.011829 1.492661,0.023699 2.238993,0.035542 -1.042281,0.6948532 -1.895124,0.9755526 -3.092298,1.2909742 -3.962915,1.0450575 -7.54673,2.651086 -11.038231,4.801929 -0.7904,0.457749 -0.7904,0.457749 -1.51825,0.457749 0,-0.240191 0,-0.480381 0,-0.727851 1.091775,-0.727851 1.091775,-0.727851 2.18355,-0.727851 0,-0.24019 0,-0.480381 0,-0.727849 2.456495,-1.0917756 2.456495,-1.0917756 3.275326,-1.0917756 0.120092,-0.3602865 0.24019,-0.7205716 0.363926,-1.0917752 2.070677,-1.0389216 4.262018,-1.5708606 6.550651,-1.8196258 0.363925,-0.3639246 0.363925,-0.3639246 1.036333,-0.3994639 z"
       fill="#e0f8e4"
       id="path270"
       style="stroke-width:0.363925" />
    <path
       d="m 47.325367,26.834731 c 1.021227,0.09177 1.627425,0.169197 2.359827,0.911235 0.151994,0.247227 0.30399,0.494454 0.460592,0.749173 0.179204,0.288979 0.358409,0.577959 0.543045,0.875695 1.33063,2.294598 2.632931,4.603912 3.915038,6.925949 -0.240191,0.120092 -0.480381,0.240191 -0.727851,0.363925 -0.899323,-0.80506 -1.343253,-1.524832 -1.79688,-2.638456 -0.637555,-1.502286 -1.379239,-2.870124 -2.206296,-4.27612 -0.180142,-0.42784 -0.180142,-0.42784 -0.363925,-0.864323 -0.326426,-0.669266 -0.326426,-0.669266 -1.137266,-0.864321 -0.337767,-0.04503 -0.337767,-0.04503 -0.68236,-0.09099 -0.09006,0.232684 -0.180141,0.465369 -0.272943,0.705104 -0.454906,0.750596 -0.454906,0.750596 -1.228247,1.02354 -0.337768,0.04503 -0.337768,0.04503 -0.68236,0.09099 1.41021,-2.501985 1.41021,-2.501985 1.819626,-2.911401 z"
       fill="#619b66"
       id="path306"
       style="stroke-width:0.363925" />
    <path
       d="m 48.201949,4.31198 c 0.759265,0.027564 1.518343,0.045404 2.277908,0.06246 2.543301,0.075004 4.718871,0.2451147 7.035411,1.3526363 -1.299643,0.3678075 -2.125585,0.2908379 -3.457288,0.02275 C 49.47951,4.9850265 44.641061,5.1370016 40.046865,5.7270761 40.41079,4.9992255 40.41079,4.9992255 41.536683,4.5855448 43.731592,4.0871919 45.968449,4.2276915 48.201949,4.31198 Z"
       fill="#e7fdeb"
       id="path318"
       style="stroke-width:0.363925" />
    <path
       d="m 88.812823,34.841084 c 2.702622,5.076433 2.380482,11.538927 2.183551,17.104478 -0.120092,0 -0.240191,0 -0.363925,0 -0.0072,-0.231101 -0.01443,-0.462203 -0.02186,-0.700307 -0.03484,-1.055607 -0.07469,-2.110971 -0.114617,-3.166397 -0.01128,-0.363569 -0.02252,-0.727139 -0.03413,-1.101726 -0.07473,-1.880616 -0.230221,-3.450537 -0.921184,-5.221473 -0.125099,-0.786134 -0.125099,-0.786134 -0.181963,-1.478445 -0.108951,-1.38352 -0.108951,-1.38352 -0.591379,-2.388259 -0.414618,-1.125391 -0.22205,-1.897442 0.04549,-3.047871 z"
       fill="#75a779"
       id="path352"
       style="stroke-width:0.363925" />
    <path
       d="m 44.57025,8.1621577 c 1.707684,0.2051685 3.425732,0.2477598 5.143374,0.3171011 0.367088,0.015721 0.734176,0.031429 1.112387,0.047619 0.895324,0.038183 1.790677,0.075375 2.686081,0.1115914 0.180143,0.3602865 0.180143,0.3602865 0.363925,0.7278506 -0.453832,-0.00289 -0.453832,-0.00289 -0.916831,-0.00578 -1.137444,-0.00619 -2.274878,-0.010729 -3.412332,-0.014209 -0.728419,-0.00275 -1.456829,-0.00729 -2.185238,-0.011966 -2.995105,-0.00784 -2.995105,-0.00784 -5.9742,0.260861 -0.442382,0.044568 -0.884763,0.089133 -1.340551,0.1350595 C 39.806674,9.4900947 39.566484,9.2499042 39.319014,9.0024347 41.294645,8.1044198 42.435126,7.8769936 44.57025,8.1621921 Z"
       fill="#66a16e"
       id="path353"
       style="stroke-width:0.363925" />
    <path
       d="m 6.2018335,36.296783 c 0.2401906,0 0.4803811,0 0.7278506,0 -0.1576255,0.664277 -0.1576255,0.664277 -0.3184352,1.341974 -0.9098219,4.142595 -1.2950758,8.26183 -1.5011906,12.48718 -0.1200918,0 -0.2401906,0 -0.3639246,0 -0.021402,-1.440514 -0.034167,-2.880986 -0.045487,-4.321612 -0.00605,-0.403444 -0.012242,-0.806889 -0.018486,-1.22256 -0.035019,-5.952948 -0.035019,-5.952948 1.5196728,-8.284982 z"
       fill="#ebfeed"
       id="path370"
       style="stroke-width:0.363925" />
    <path
       d="m 90.268525,39.572109 c 0.24019,0 0.480381,0 0.72785,0 0.449304,1.347913 0.416015,2.596817 0.412259,4.000333 3.48e-4,0.284936 6.94e-4,0.569873 0.0011,0.863444 2.47e-4,0.60263 -4.23e-4,1.205259 -0.0019,1.807886 -0.0019,0.919254 -2.1e-5,1.838441 0.0023,2.757692 -2.39e-4,0.586166 -7.05e-4,1.172332 -0.0014,1.758497 7.34e-4,0.273759 0.0015,0.547518 0.0022,0.829572 -0.0061,1.377198 -0.08265,2.656366 -0.41449,3.99528 -0.24019,0 -0.480381,0 -0.72785,0 0.02575,-0.214419 0.05148,-0.428837 0.078,-0.649754 0.26577,-2.39123 0.341058,-4.747232 0.331406,-7.151891 0.0014,-0.349261 0.0028,-0.698523 0.0043,-1.058368 -0.0033,-2.402163 -0.157694,-4.764558 -0.413681,-7.152691 z"
       fill="#e3fae5"
       id="path377"
       style="stroke-width:0.363925" />
    <path
       d="m 22.942388,18.100529 c 0,1.559243 -0.918975,2.243759 -1.933352,3.320817 -0.181785,0.200314 -0.36357,0.40063 -0.550863,0.607016 -0.854404,0.921171 -1.400976,1.491715 -2.610737,1.894968 -0.24924,0.481865 -0.490826,0.967711 -0.727849,1.455701 -0.471178,0.498894 -0.954033,0.987477 -1.455701,1.4557 0.536895,-1.666545 1.486101,-2.858704 2.615712,-4.162393 0.178179,-0.208377 0.356356,-0.416756 0.539934,-0.631448 1.270523,-1.463096 2.590244,-2.748329 4.122856,-3.940361 z"
       fill="#e5f9e7"
       id="path416"
       style="stroke-width:0.363925" />
    <path
       d="m 21.486686,13.369504 c 0.360286,0.120092 0.720572,0.240191 1.091776,0.363925 -0.520022,0.441209 -0.520022,0.441209 -1.05055,0.891332 -0.461101,0.392791 -0.922165,0.785623 -1.383199,1.178492 -0.227759,0.193044 -0.455518,0.386087 -0.690178,0.584981 -1.322107,1.12829 -2.580184,2.284424 -3.790649,3.531921 0.120092,-0.600475 0.24019,-1.200952 0.363924,-1.819626 0.360287,-0.120091 0.720572,-0.24019 1.091776,-0.363924 0.0563,-0.326509 0.0563,-0.326509 0.113723,-0.659614 0.396044,-1.260142 1.328354,-1.610658 2.433749,-2.251787 0.360286,-0.120092 0.720572,-0.240191 1.091775,-0.363925 0,-0.24019 0,-0.480381 0,-0.72785 0.240191,-0.120092 0.480381,-0.240191 0.727851,-0.363925 z"
       fill="#e5fbe8"
       id="path422"
       style="stroke-width:0.363925" />
    <path
       d="m 56.787418,90.157693 c -3.183353,2.122235 -9.039145,1.047512 -12.737378,0.727851 0,-0.120092 0,-0.240191 0,-0.363926 0.251245,-0.0091 0.502489,-0.01824 0.761347,-0.02763 1.148901,-0.04248 2.297714,-0.08701 3.446537,-0.131591 0.395235,-0.01431 0.790471,-0.02862 1.197683,-0.04336 2.423011,-0.09122 2.423011,-0.09122 4.829826,-0.366058 0.991803,-0.150927 1.568479,-0.131356 2.501985,0.204708 z"
       fill="#d1ecd5"
       id="path428"
       style="stroke-width:0.363925" />
    <path
       d="m 62.058643,87.567569 c 0.18202,0.134163 0.364039,0.268338 0.551574,0.406572 -2.081652,1.079376 -3.84952,1.628052 -6.186727,1.819626 -0.240189,-0.120092 -0.480379,-0.24019 -0.727849,-0.363924 0,-0.240191 0,-0.480381 0,-0.727851 0.877992,-0.264271 1.757085,-0.520822 2.638457,-0.773341 0.248165,-0.07553 0.496331,-0.151057 0.752017,-0.228875 1.866045,-0.525392 1.866045,-0.525392 2.972528,-0.13221 z"
       fill="#62a56b"
       id="path430"
       style="stroke-width:0.363925" />
    <path
       d="m 41.13864,58.132288 c -1.383104,0.922069 -2.824749,1.464766 -4.367101,2.069824 -0.298361,0.121261 -0.596723,0.242536 -0.904126,0.367479 -0.287103,0.112829 -0.574205,0.225647 -0.870009,0.341889 -0.26177,0.103999 -0.52354,0.207998 -0.793243,0.315148 -0.707947,0.180985 -0.707947,0.180985 -1.799722,-0.182939 1.185108,-0.993401 2.377525,-1.507352 3.821213,-2.04708 0.409074,-0.15481 0.818148,-0.30962 1.23962,-0.469121 2.366729,-0.830747 2.366729,-0.830747 3.673368,-0.3952 z"
       fill="#639d69"
       id="path437"
       style="stroke-width:0.363925" />
    <path
       d="m 76.803296,73.053215 c 0.240191,0.120091 0.480381,0.24019 0.727851,0.363924 -1.534324,1.879548 -3.136741,3.643935 -5.094952,5.094952 -0.24019,0 -0.480381,0 -0.72785,0 0,-0.240191 0,-0.480382 0,-0.727851 0.24019,0 0.480381,0 0.72785,0 0.03003,-0.210167 0.06005,-0.420332 0.09099,-0.636869 0.352272,-1.056814 0.886864,-1.560294 1.728645,-2.274531 0.24019,0 0.480381,0 0.727849,0 0.09757,-0.232684 0.195155,-0.465369 0.295689,-0.705106 0.432161,-0.750595 0.432161,-0.750595 1.523937,-1.114519 z"
       fill="#e4fce8"
       id="path446"
       style="stroke-width:0.363925" />
    <path
       d="m 10.568934,57.404437 c 0.727851,0.727851 0.727851,0.727851 0.727851,2.18355 0.24019,0 0.480381,0 0.727849,0 0.114466,0.368731 0.228933,0.73746 0.346866,1.117363 0.157143,0.491926 0.314476,0.983791 0.471966,1.475603 0.111881,0.363101 0.111881,0.363101 0.226032,0.733537 0.414061,1.279826 0.822145,2.202455 1.587907,3.335032 0.212043,0.323695 0.424087,0.647388 0.642555,0.980892 -0.120092,0.360285 -0.240191,0.720572 -0.363925,1.091775 -2.205247,-3.243012 -4.207743,-6.933808 -4.367101,-10.917752 z"
       fill="#e1f8e2"
       id="path447"
       style="stroke-width:0.363925" />
    <path
       d="m 16.755661,18.464455 c 0.360285,0.240191 0.720572,0.480382 1.091775,0.727851 -0.606541,0.606542 -1.213083,1.213083 -1.819626,1.819624 -0.551818,0.723975 -1.087752,1.458574 -1.624868,2.193502 -0.512424,0.658459 -1.04702,1.235059 -1.650457,1.809675 -0.240191,-0.120092 -0.480381,-0.240191 -0.727849,-0.363925 1.474736,-2.168474 2.985519,-4.228353 4.731025,-6.186727 z"
       fill="#619f69"
       id="path448"
       style="stroke-width:0.363925" />
    <path
       d="m 81.170397,74.87284 c 0.120092,0.360285 0.240191,0.720572 0.363925,1.091776 -1.357117,1.990437 -3.181484,3.30198 -5.09495,4.731025 -0.607751,0.483719 -1.214993,0.968092 -1.819626,1.455701 -0.240191,-0.120092 -0.480381,-0.24019 -0.727851,-0.363926 0.285697,-0.228931 0.571392,-0.457863 0.865744,-0.693732 2.227016,-1.806637 4.240448,-3.615457 6.048833,-5.856919 0.120092,-0.120092 0.240191,-0.240191 0.363925,-0.363925 z"
       fill="#dcf5df"
       id="path461"
       style="stroke-width:0.363925" />
    <path
       d="m 76.075447,79.96779 c -1.506687,1.652496 -3.211239,2.808928 -5.094952,4.003177 0,-0.480381 0,-0.960763 0,-1.455702 1.16976,-1.091775 1.16976,-1.091775 2.183551,-1.091775 0,-0.24019 0,-0.480381 0,-0.727849 1.597569,-1.165794 1.597569,-1.165794 2.911401,-0.727851 z"
       fill="#66a46f"
       id="path462"
       style="stroke-width:0.363925" />
    <path
       d="m 80.078622,69.777889 c 0.24019,0.24019 0.480381,0.480381 0.72785,0.727851 -0.24019,0.24019 -0.480381,0.480381 -0.72785,0.727849 -0.112596,0.292733 -0.225179,0.585465 -0.34118,0.887067 -0.387425,0.934376 -0.678869,1.416655 -1.478446,2.024334 -0.360285,0 -0.720572,0 -1.091775,0 0,0.360285 0,0.720571 0,1.091775 -0.600476,0.120092 -1.200953,0.240191 -1.819625,0.363925 0.307744,-0.35278 0.615488,-0.70556 0.932557,-1.06903 1.322999,-1.540867 2.563296,-3.142199 3.798469,-4.753771 z"
       fill="#67a36d"
       id="path471"
       style="stroke-width:0.363925" />
    <path
       d="m 54.967793,37.752483 c 1.54999,1.332193 2.415306,2.989818 3.389052,4.753772 0.170057,0.296719 0.340114,0.593439 0.515324,0.899151 0.158798,0.28546 0.317596,0.570921 0.481206,0.865032 0.217658,0.389181 0.217658,0.389181 0.439713,0.786224 0.269657,0.702172 0.269657,0.702172 -0.09427,1.793948 -1.42658,-0.951053 -1.360684,-1.655535 -1.819624,-3.275326 -0.478717,-0.732153 -0.962912,-1.460793 -1.455701,-2.183551 0,-0.360285 0,-0.720571 0,-1.091775 -0.240191,0 -0.480381,0 -0.72785,0 -0.24019,-0.840666 -0.480381,-1.681334 -0.72785,-2.547475 z"
       fill="#629c67"
       id="path472"
       style="stroke-width:0.363925" />
    <path
       d="m 67.341245,81.423492 c -0.898481,1.032038 -1.855835,1.527032 -3.093362,2.092569 -0.349027,0.163255 -0.698054,0.326509 -1.057659,0.49471 -0.94393,0.324122 -0.94393,0.324122 -2.035705,-0.03981 0.808217,-1.212325 1.164636,-1.373451 2.479239,-1.887861 0.31009,-0.12525 0.620181,-0.250511 0.939667,-0.379562 0.973829,-0.287622 1.758636,-0.332595 2.76782,-0.28005 z"
       fill="#e1fbe5"
       id="path486"
       style="stroke-width:0.363925" />
    <path
       d="m 49.144991,55.220887 c 0,0.24019 0,0.480381 0,0.72785 -0.546762,0.06122 -0.546762,0.06122 -1.10457,0.123682 -1.456841,0.20812 -2.769217,0.660092 -4.149598,1.172805 -0.449889,0.165601 -0.899776,0.3312 -1.363298,0.501818 -0.338236,0.127134 -0.676474,0.254264 -1.02496,0.38525 0.516408,-1.233784 0.666043,-1.424214 1.933352,-2.069825 1.990882,-0.708618 3.591761,-0.883092 5.709074,-0.841576 z"
       fill="#629f68"
       id="path488"
       style="stroke-width:0.363925" />
    <path
       d="m 88.084974,60.679763 c 0.240191,0.120091 0.480381,0.24019 0.727851,0.363924 -0.636168,1.989715 -1.331216,3.915196 -2.183551,5.822802 -0.120091,0 -0.24019,0 -0.363926,0 -0.19231,-2.259663 0.392745,-3.833494 1.455702,-5.822802 0.120091,-0.120092 0.24019,-0.24019 0.363924,-0.363924 z"
       fill="#64a16a"
       id="path507"
       style="stroke-width:0.363925" />
    <path
       d="m 33.132289,49.398086 c 0.240191,0 0.480381,0 0.727851,0 -0.522787,1.788478 -1.288877,3.276193 -2.229041,4.867498 -0.13558,0.233153 -0.271153,0.466307 -0.410838,0.706526 -0.33133,0.569208 -0.665101,1.136993 -0.999373,1.704478 -0.466851,-1.400554 -0.177238,-1.922416 0.363926,-3.275326 0.545888,-1.046284 0.545888,-1.046284 1.091775,-1.819626 0.240191,0 0.480381,0 0.72785,0 0.05254,-0.225178 0.105085,-0.450357 0.159218,-0.68236 0.204708,-0.773339 0.204708,-0.773339 0.568632,-1.50119 z"
       fill="#dff8e2"
       id="path508"
       style="stroke-width:0.363925" />
    <path
       d="m 36.771539,44.667059 c 0.240191,0.120092 0.480381,0.240191 0.727851,0.363925 -0.480381,0.960762 -0.960762,1.921524 -1.455701,2.911401 -0.240191,0 -0.480381,0 -0.727849,0 -0.05254,0.285226 -0.105086,0.570452 -0.159219,0.864321 -0.204707,0.955305 -0.204707,0.955305 -0.568632,1.683154 -0.240191,0 -0.480381,0 -0.727851,0 -0.105085,0.27772 -0.210167,0.555441 -0.318434,0.841577 -0.409415,0.978049 -0.409415,0.978049 -1.137265,2.069824 -0.120092,-0.240191 -0.240191,-0.480381 -0.363925,-0.727851 0.392978,-0.817587 0.392978,-0.817587 0.999371,-1.822469 0.321936,-0.538317 0.321936,-0.538317 0.650375,-1.08751 0.228697,-0.375767 0.457395,-0.751533 0.693021,-1.138686 0.22729,-0.378582 0.454579,-0.757164 0.688757,-1.147218 0.563915,-0.938423 1.130505,-1.875122 1.699501,-2.810468 z"
       fill="#629d67"
       id="path509"
       style="stroke-width:0.363925" />
    <path
       d="m 10.568934,34.113233 c 0.360285,0.120092 0.720572,0.240191 1.091776,0.363925 -0.480382,1.681333 -0.960763,3.362667 -1.4557,5.094951 C 9.8447232,39.331918 9.4844381,39.091728 9.1132345,38.844258 9.2860576,38.123615 9.4607925,37.40343 9.6363761,36.683454 9.7334841,36.282355 9.8305931,35.881255 9.9306444,35.468001 10.20501,34.477158 10.20501,34.477158 10.568934,34.113233 Z"
       fill="#5f9e66"
       id="path531"
       style="stroke-width:0.363925" />
    <path
       d="m 10.20501,57.404437 c 0.621922,0.932884 0.92096,1.552526 1.250992,2.592966 0.09195,0.285695 0.183895,0.571391 0.278631,0.865743 0.143551,0.449655 0.143551,0.449655 0.290003,0.908392 0.203872,0.614401 0.408543,1.228539 0.614123,1.84237 0.159217,0.477653 0.318433,0.955303 0.477652,1.432955 -0.360287,0 -0.720572,0 -1.091775,0 C 11.728267,64.167602 11.432692,63.288087 11.137568,62.408407 11.05383,62.160241 10.970091,61.912076 10.883815,61.656389 9.981366,58.962121 9.981366,58.962121 9.8410851,58.132288 9.961177,57.892097 10.081276,57.651907 10.20501,57.404437 Z"
       fill="#6ca16f"
       id="path551"
       style="stroke-width:0.363925" />
    <path
       d="m 42.958266,89.429843 c 0,0.120092 0,0.24019 0,0.363924 0.600476,0.120092 1.200953,0.240191 1.819626,0.363926 0,0.120092 0,0.240191 0,0.363925 -2.286398,0.08469 -4.323502,-0.2167 -6.550651,-0.727851 1.844356,-1.22957 2.655656,-1.165771 4.731025,-0.363924 z"
       fill="#74ad7a"
       id="path559"
       style="stroke-width:0.363925" />
    <path
       d="m 12.752485,22.103706 c 0.360285,0.120092 0.720571,0.24019 1.091775,0.363924 -0.529604,0.834726 -1.060492,1.668585 -1.592172,2.501986 -0.15012,0.236906 -0.300238,0.473813 -0.454906,0.717899 -0.602307,0.942317 -1.162732,1.809551 -1.9560983,2.602917 0.2401903,-1.080858 0.4803813,-2.161715 0.7278503,-3.275325 0.240191,0 0.480381,0 0.727851,0 0,-0.360287 0,-0.720572 0,-1.091775 0.24019,0 0.480381,0 0.727849,0 0.240191,-0.600478 0.480381,-1.200953 0.727851,-1.819626 z"
       fill="#def8e2"
       id="path570"
       style="stroke-width:0.363925" />
    <path
       d="m 82.626098,71.23359 c 0.240191,0.360285 0.480381,0.720572 0.727851,1.091775 -0.840668,1.080857 -1.681334,2.161715 -2.547477,3.275326 -0.24019,-0.120092 -0.480381,-0.240191 -0.727849,-0.363925 0.215747,-1.234406 0.643213,-1.896332 1.478445,-2.820419 0.199377,-0.223303 0.398754,-0.446605 0.604173,-0.676674 0.153402,-0.167007 0.306805,-0.334015 0.464857,-0.506083 z"
       fill="#65a46d"
       id="path577"
       style="stroke-width:0.363925" />
    <path
       d="m 85.173573,59.224063 c 0.727851,1.091775 0.727851,1.091775 0.598487,1.943303 -0.09993,0.311965 -0.199847,0.623932 -0.302798,0.945352 -0.09524,0.311028 -0.190463,0.622056 -0.28858,0.94251 -0.382847,0.928511 -0.792469,1.609007 -1.462809,2.355561 -0.24019,0 -0.480381,0 -0.72785,0 0.679677,-2.082418 1.402164,-4.140237 2.18355,-6.186726 z"
       fill="#67a06c"
       id="path600"
       style="stroke-width:0.363925" />
    <path
       d="m 89.904599,56.676586 c 0.538945,1.878017 0.395552,3.525086 -0.43074,5.284022 -0.444426,0.799463 -0.90286,1.583634 -1.388886,2.358405 -0.484754,-0.969508 -0.253842,-1.295077 0.07818,-2.311492 0.09969,-0.309621 0.199378,-0.619243 0.302087,-0.938245 0.10719,-0.323695 0.214389,-0.64739 0.324832,-0.980892 0.105787,-0.326509 0.211574,-0.653018 0.320566,-0.989421 0.262259,-0.808273 0.526998,-1.615646 0.793954,-2.422377 z"
       fill="#d7f1db"
       id="path601"
       style="stroke-width:0.363925" />
    <path
       d="m 52.784243,33.385382 c 1.444406,0.481469 1.844863,1.372984 2.592966,2.615712 0.196328,0.308565 0.196328,0.308565 0.396622,0.623364 0.819759,1.340167 1.221217,2.47884 1.377513,4.039426 -1.253043,-1.453416 -2.127657,-2.970037 -3.002383,-4.66279 -0.132292,-0.252153 -0.264584,-0.504307 -0.400886,-0.764101 -0.323021,-0.616292 -0.643672,-1.233826 -0.963832,-1.851611 z"
       fill="#e2f9e4"
       id="path602"
       style="stroke-width:0.363925" />
    <path
       d="m 60.426669,47.214536 c 1.196713,1.015505 1.865974,2.355788 2.615712,3.707487 0.133929,0.238079 0.267868,0.476158 0.405861,0.721451 0.328811,0.585028 0.655426,1.171289 0.981604,1.757788 -0.360287,0 -0.720572,0 -1.091776,0 -0.487072,-0.893692 -0.971994,-1.788437 -1.455701,-2.683947 -0.13886,-0.254264 -0.27772,-0.508529 -0.420788,-0.770498 -1.034912,-1.92198 -1.034912,-1.92198 -1.034912,-2.732281 z"
       fill="#679d6a"
       id="path613"
       style="stroke-width:0.363925" />
    <path
       d="m 39.319014,38.844258 c 0.240191,0 0.480381,0 0.727851,0 -0.519503,1.379457 -1.150865,2.646182 -1.865117,3.93494 -0.294139,0.532689 -0.294139,0.532689 -0.594221,1.076137 -0.223772,0.401804 -0.223772,0.401804 -0.452063,0.811724 -0.504988,-1.514962 0.02689,-2.185744 0.685203,-3.579544 0.428785,-0.830583 0.849938,-1.565374 1.498347,-2.243257 z"
       fill="#ddf6e0"
       id="path614"
       style="stroke-width:0.363925" />
    <path
       d="m 10.20501,27.562582 c 0.120092,0.24019 0.24019,0.480381 0.363924,0.72785 0.240191,0 0.480381,0 0.727851,0 -0.09099,0.682359 -0.09099,0.682359 -0.363925,1.4557 -0.485233,0.242617 -0.9704671,0.485234 -1.4557009,0.727851 -0.2930648,0.746049 -0.2930648,0.746049 -0.3639246,1.4557 -0.2401905,0 -0.4803811,0 -0.7278506,0 0.4769658,-1.540968 1.0712368,-2.938358 1.8196261,-4.367101 z"
       fill="#61a168"
       id="path615"
       style="stroke-width:0.363925" />
    <path
       d="m 5.4739843,53.765187 c 0.6003945,1.20079 0.8913163,1.994828 1.1372659,3.275325 0.060988,0.307744 0.1219763,0.615489 0.1848061,0.932559 0.1336264,0.887067 0.1336264,0.887067 0.1336264,2.342767 -0.2401905,0 -0.4803811,0 -0.7278492,0 -0.1200918,-0.600477 -0.2401905,-1.200953 -0.363926,-1.819626 -0.1200918,0 -0.2401905,0 -0.3639246,0 0,-1.561238 0,-3.122477 1.4e-6,-4.731025 z"
       fill="#d6f3da"
       id="path629"
       style="stroke-width:0.363925" />
    <path
       d="m 66.613395,58.132288 c 1.045915,0.849806 1.428376,1.227998 1.592172,2.592965 -0.136474,1.046285 -0.136474,1.046285 -0.864322,1.774135 -0.955304,0.04549 -0.955304,0.04549 -1.819626,0 -0.120091,-0.24019 -0.24019,-0.480381 -0.363924,-0.72785 0.600475,-0.120092 1.200953,-0.240191 1.819624,-0.363925 -0.120092,-1.080858 -0.24019,-2.161715 -0.363924,-3.275325 z"
       fill="#699d6f"
       id="path647"
       style="stroke-width:0.363925" />
    <path
       d="m 7.2936087,60.679763 c 0.3602851,0 0.7205717,0 1.0917752,0 0.1836768,0.643963 0.3652382,1.288532 0.5458876,1.933352 0.1013305,0.358878 0.202661,0.717757 0.3070615,1.08751 0.2388261,0.982314 0.2388261,0.982314 0.2388261,2.074089 C 8.6561524,64.953706 8.3978511,64.302258 7.9759686,63.227238 7.8474314,62.904482 7.7188887,62.581727 7.5864548,62.24919 7.2936087,61.407613 7.2936087,61.407613 7.2936087,60.679763 Z"
       fill="#619d66"
       id="path660"
       style="stroke-width:0.363925" />
    <path
       d="m 84.081798,33.385382 c 0.580002,0.870003 0.965483,1.567893 1.341974,2.524731 0.09899,0.243474 0.197969,0.486949 0.299954,0.7378 0.206362,0.860123 0.09044,1.366334 -0.186228,2.196345 -0.240191,-0.120091 -0.480381,-0.24019 -0.727849,-0.363924 -0.121303,-0.727851 -0.242617,-1.455701 -0.363926,-2.183551 -0.240191,-0.120091 -0.480382,-0.24019 -0.72785,-0.363926 0.120092,-0.840666 0.240191,-1.681333 0.363925,-2.547475 z"
       fill="#d8f3db"
       id="path661"
       style="stroke-width:0.363925" />
    <path
       d="m 9.1132345,28.290432 c 0.2401906,0 0.4803811,0 0.7278506,0 -0.6261927,1.982941 -1.4000402,3.898255 -2.1835504,5.822801 -0.5375812,-1.718745 -0.067742,-3.139837 0.7278492,-4.731025 0.2401906,0 0.4803811,0 0.7278506,0 0,-0.360287 0,-0.720572 0,-1.091776 z"
       fill="#e2fbe5"
       id="path662"
       style="stroke-width:0.363925" />
    <path
       d="m 16.02781,24.287256 c 0.360286,0.120092 0.720572,0.240191 1.091776,0.363925 -0.415436,0.668169 -0.832785,1.33515 -1.250993,2.001589 -0.232215,0.371544 -0.464431,0.743089 -0.703683,1.125892 -0.195624,0.288979 -0.391248,0.577959 -0.592799,0.875695 -0.120092,0 -0.240191,0 -0.363926,0 0.150936,-1.924429 0.492116,-2.953946 1.819625,-4.367101 z"
       fill="#609c68"
       id="path663"
       style="stroke-width:0.363925" />
    <path
       d="m 85.173573,55.584811 c 0.120092,0 0.240191,0 0.363925,0 0.136955,2.475431 -0.08199,4.278631 -1.091775,6.550651 -0.712984,-2.138949 0.169538,-4.429065 0.72785,-6.550651 z"
       fill="#e8fbea"
       id="path680"
       style="stroke-width:0.363925" />
    <path
       d="m 6.2018335,36.296783 c 0.2401906,0 0.4803811,0 0.7278506,0 -0.04832,0.198439 -0.09664,0.396878 -0.1464237,0.60133 -0.4642043,1.982185 -0.7523394,3.922697 -0.9453515,5.949322 -0.1200918,0 -0.2401906,0 -0.363926,0 -0.019642,-0.887175 -0.034084,-1.773915 -0.045487,-2.661203 -0.00605,-0.251215 -0.012242,-0.50243 -0.018486,-0.761256 -0.013204,-1.370928 0.011692,-1.957925 0.7918208,-3.128193 z"
       fill="#d5f0d9"
       id="path681"
       style="stroke-width:0.363925" />
    <path
       d="m 11.66071,33.749308 c 0.120091,0 0.24019,0 0.363924,0 -0.216365,3.842353 -0.216365,3.842353 -1.4557,5.458876 -0.5719317,-1.143865 -0.0426,-1.952626 0.34118,-3.138853 0.138391,-0.432531 0.276782,-0.865061 0.419367,-1.3107 0.109308,-0.333075 0.218611,-0.666152 0.331229,-1.009323 z"
       fill="#dcf4df"
       id="path682"
       style="stroke-width:0.363925" />
    <path
       d="m 29.856963,9.3663263 c -0.83293,0.4871456 -1.66703,0.9720477 -2.501984,1.4557017 -0.236907,0.13886 -0.473813,0.27772 -0.717899,0.420788 -1.792616,1.034912 -1.792616,1.034912 -2.602917,1.034912 0,-0.24019 0,-0.480381 0,-0.727851 1.091775,-0.727849 1.091775,-0.727849 2.18355,-0.727849 0,-0.240191 0,-0.480382 0,-0.727851 2.411003,-1.1372661 2.411003,-1.1372661 3.63925,-0.7278507 z"
       fill="#e2fbe6"
       id="path685"
       style="stroke-width:0.363925" />
    <path
       d="m 62.61022,7.5467019 c 2.259931,0.1614231 3.859573,0.6970346 5.8228,1.8196244 0,0.2401905 0,0.4803811 0,0.7278507 -1.98294,-0.6261915 -3.898254,-1.400039 -5.8228,-2.1835505 0,-0.1200919 0,-0.2401906 0,-0.3639246 z"
       fill="#dcf6e0"
       id="path688"
       style="stroke-width:0.363925" />
    <path
       d="m 89.176749,55.220887 c 0.360286,0 0.720572,0 1.091776,0 -0.17032,1.476102 -0.320085,2.717023 -1.091776,4.003176 -0.363924,-0.363926 -0.363924,-0.363926 -0.409415,-1.592172 0.04549,-1.319229 0.04549,-1.319229 0.409415,-2.411004 z"
       fill="#639f6a"
       id="path699"
       style="stroke-width:0.363925" />
    <path
       d="m 76.803296,21.739781 c 1.652496,1.506687 2.808928,3.211239 4.003176,5.094952 -1.628188,-0.48818 -2.198726,-1.078318 -3.025127,-2.547477 -0.186242,-0.322755 -0.372483,-0.645511 -0.564368,-0.978048 -0.413681,-0.841576 -0.413681,-0.841576 -0.413681,-1.569427 z"
       fill="#dbf6dd"
       id="path702"
       style="stroke-width:0.363925" />
    <path
       d="m 32.768365,11.913804 c -1.241045,1.042477 -2.513612,1.581995 -4.003177,2.183551 0,-0.360287 0,-0.720572 0,-1.091776 1.333735,-1.059143 2.326845,-1.20873 4.003177,-1.091775 z"
       fill="#66a06d"
       id="path704"
       style="stroke-width:0.363925" />
    <path
       d="m 52.420317,4.6353008 c 0.576493,0.0418 1.152656,0.088195 1.728644,0.1364737 0.481319,0.038004 0.481319,0.038004 0.972362,0.076765 0.934847,0.150143 1.578174,0.4096602 2.393945,0.8785382 -1.16986,0.3774606 -1.968564,0.3423381 -3.161599,0.068237 -0.286633,-0.062391 -0.573268,-0.1247821 -0.868587,-0.18907 -0.70084,-0.24309 -0.70084,-0.24309 -1.064765,-0.9709406 z"
       fill="#e1f8e5"
       id="path705"
       style="stroke-width:0.363925" />
    <path
       d="m 70.252646,84.698817 c 0,0.360285 0,0.720572 0,1.091775 -1.711928,0.678868 -3.256198,1.225856 -5.094951,1.4557 0.802601,-0.8026 1.533562,-1.179143 2.547476,-1.683153 0.322756,-0.162316 0.645511,-0.324632 0.978048,-0.491867 0.841577,-0.372455 0.841577,-0.372455 1.569427,-0.372455 z"
       fill="#d9f6dc"
       id="path720"
       style="stroke-width:0.363925" />
    <path
       d="m 85.901424,66.502563 c 0.120092,0.360285 0.24019,0.720572 0.363924,1.091775 -0.496131,0.96952 -0.496131,0.96952 -1.205501,2.047079 -0.231278,0.357471 -0.462554,0.714942 -0.700841,1.083246 -0.641133,0.872852 -0.641133,0.872852 -1.368983,1.236776 0.68236,-2.092569 0.68236,-2.092569 1.091775,-2.911401 0.240191,0 0.480381,0 0.727851,0 0.112595,-0.285226 0.225178,-0.570452 0.341179,-0.864321 0.386671,-0.955303 0.386671,-0.955303 0.750596,-1.683154 z"
       fill="#5a9563"
       id="path739"
       style="stroke-width:0.363925" />
    <path
       d="m 18.575287,21.01193 c 0.360285,0.120092 0.720571,0.240191 1.091775,0.363925 -0.354932,0.486268 -0.711595,0.971271 -1.069031,1.455701 -0.198438,0.270214 -0.396876,0.540429 -0.601328,0.818831 -0.25403,0.31525 -0.25403,0.31525 -0.513191,0.636869 -0.120092,0 -0.240191,0 -0.363925,0 -0.09099,-0.818832 -0.09099,-0.818832 0,-1.819626 0.727849,-0.841576 0.727849,-0.841576 1.4557,-1.4557 z"
       fill="#6ca473"
       id="path780"
       style="stroke-width:0.363925" />
    <path
       d="m 73.891896,18.464455 c 1.073421,0.498374 2.010572,1.047487 2.911401,1.819626 0,0.240191 0,0.480381 0,0.727849 0.360286,0.120092 0.720572,0.240191 1.091776,0.363926 -0.120092,0.480382 -0.240191,0.960763 -0.363926,1.4557 -0.402494,-0.454323 -0.804166,-0.909373 -1.205502,-1.364719 -0.223771,-0.253325 -0.447542,-0.506651 -0.678094,-0.767654 -0.617715,-0.724855 -1.193309,-1.466478 -1.755655,-2.234728 z"
       fill="#5d9b63"
       id="path782"
       style="stroke-width:0.363925" />
    <path
       d="m 65.157695,87.610217 c -1.119772,0.975876 -1.891445,1.244943 -3.366307,1.341974 -0.324632,0.02392 -0.649265,0.04785 -0.983736,0.0725 -0.245818,0.01362 -0.491639,0.02721 -0.744909,0.04122 0.955848,-0.637231 1.680638,-0.980083 2.752184,-1.341974 0.285696,-0.09898 0.571391,-0.197969 0.865744,-0.299953 0.749173,-0.177697 0.749173,-0.177697 1.477024,0.186227 z"
       fill="#dcf4df"
       id="path797"
       style="stroke-width:0.363925" />
    <path
       d="m 64.429844,53.765187 c 1.48919,0.496397 1.784526,1.199596 2.547475,2.547475 0.272945,1.228247 0.272945,1.228247 0.363926,2.18355 -1.277734,-1.460266 -2.098167,-2.987762 -2.911401,-4.731025 z"
       fill="#dbf5de"
       id="path800"
       style="stroke-width:0.363925" />
    <path
       d="m 67.341245,13.733429 c 1.273172,0.23069 2.125639,0.746693 3.184344,1.478446 0.436284,0.299065 0.436284,0.299065 0.881382,0.604172 0.329323,0.230105 0.329323,0.230105 0.6653,0.464858 -0.240191,0.240191 -0.480381,0.480381 -0.72785,0.727849 -0.668221,-0.476216 -1.335189,-0.954191 -2.001588,-1.432955 -0.371545,-0.265991 -0.74309,-0.531984 -1.125893,-0.806036 -0.288979,-0.221896 -0.577959,-0.44379 -0.875695,-0.672408 0,-0.120092 0,-0.240191 0,-0.363926 z"
       fill="#629d67"
       id="path802"
       style="stroke-width:0.363925" />
    <path
       d="m 13.84426,73.781065 c 1.186428,1.15347 2.26448,2.328895 3.275326,3.63925 -1.257223,-0.09313 -1.555349,-0.468102 -2.456495,-1.410209 C 13.84426,74.87284 13.84426,74.87284 13.84426,73.781065 Z"
       fill="#def8e1"
       id="path816"
       style="stroke-width:0.363925" />
    <path
       d="m 21.486686,13.369504 c 0.360286,0.120092 0.720572,0.240191 1.091776,0.363925 -1.441144,1.261001 -1.441144,1.261001 -2.911401,2.547476 -0.240191,-0.360286 -0.480381,-0.720572 -0.72785,-1.091775 0.240191,-0.240191 0.480381,-0.480381 0.72785,-0.727851 0.360286,0 0.720571,0 1.091775,0 0,-0.24019 0,-0.480381 0,-0.72785 0.24019,-0.120092 0.480381,-0.240191 0.72785,-0.363925 z"
       fill="#d7f4db"
       id="path823"
       style="stroke-width:0.363925" />
    <path
       d="m 27.309488,13.733429 c 0.360286,0.120091 0.720572,0.24019 1.091776,0.363926 -1.009095,1.121214 -1.842649,1.70599 -3.275326,2.18355 0.272945,-0.705106 0.272945,-0.705106 0.727851,-1.455701 0.77334,-0.272943 0.77334,-0.272943 1.455699,-0.363925 0,-0.24019 0,-0.480381 0,-0.72785 z"
       fill="#68a26f"
       id="path824"
       style="stroke-width:0.363925" />
    <path
       d="m 33.86014,11.549877 c 0.24019,0.120092 0.480381,0.240191 0.72785,0.363927 -1.611383,0.999057 -2.809001,1.63211 -4.731027,1.819625 1.24508,-1.045867 2.488842,-1.622686 4.003177,-2.183552 z"
       fill="#def6e1"
       id="path825"
       style="stroke-width:0.363925" />
    <path
       d="m 26.217713,79.96779 c 0.841577,-0.06824 0.841577,-0.06824 1.819626,0 0.568632,0.500397 0.568632,0.500397 1.091775,1.091776 0.764204,0.427883 0.764204,0.427883 1.4557,0.72785 0,0.240191 0,0.480381 0,0.727849 -1.567661,-0.570058 -2.93386,-1.340467 -4.367101,-2.18355 0,-0.120092 0,-0.240191 0,-0.363925 z"
       fill="#d7f5dd"
       id="path845"
       style="stroke-width:0.363925" />
    <path
       d="m 70.616571,78.512091 c 0.360285,0.120091 0.720571,0.24019 1.091775,0.363924 -1.200953,0.840668 -2.401905,1.681334 -3.63925,2.547477 0,-0.360287 0,-0.720572 0,-1.091776 1.536571,-1.091775 1.536571,-1.091775 2.547475,-1.091775 0,-0.24019 0,-0.480381 0,-0.72785 z"
       fill="#e4fae7"
       id="path846"
       style="stroke-width:0.363925" />
    <path
       d="m 36.043689,44.667059 c 0.24019,0.120092 0.480381,0.240191 0.72785,0.363925 -0.720571,1.321048 -1.441143,2.642096 -2.18355,4.003176 -0.363926,-1.091775 -0.363926,-1.091775 0,-2.18355 0.24019,0 0.480381,0 0.727849,0 0.05254,-0.292732 0.105086,-0.585464 0.159218,-0.887068 0.204708,-0.932558 0.204708,-0.932558 0.568633,-1.296483 z"
       fill="#dbf5de"
       id="path847"
       style="stroke-width:0.363925" />
    <path
       d="m 8.7493099,39.936034 c 0.3602851,0.120091 0.7205716,0.24019 1.0917752,0.363924 C 9.7209933,41.380816 9.6008946,42.461673 9.4771605,43.575284 9.23697,43.455192 8.9967794,43.335093 8.7493099,43.211359 c 0,-1.080858 0,-2.161715 0,-3.275325 z"
       fill="#5d9c63"
       id="path848"
       style="stroke-width:0.363925" />
    <path
       d="m 51.692468,32.657533 c 1.091775,0.363925 1.091775,0.363925 1.596437,1.195551 0.156217,0.333545 0.312436,0.667091 0.473387,1.010744 0.238548,0.501727 0.238548,0.501727 0.481916,1.013589 0.118689,0.258487 0.237376,0.516972 0.359661,0.783292 -0.727851,0 -0.727851,0 -1.280847,-0.450642 -0.591757,-0.704174 -0.854615,-1.298615 -1.152902,-2.165069 -0.09148,-0.260364 -0.182959,-0.520727 -0.277209,-0.788978 -0.06615,-0.197502 -0.132292,-0.395002 -0.200443,-0.598487 z"
       fill="#6aa06e"
       id="path849"
       style="stroke-width:0.363925" />
    <path
       d="m 85.901424,38.116409 c 0.360285,0.120092 0.720571,0.240191 1.091775,0.363925 0,1.441143 0,2.882286 0,4.367101 -0.120092,0 -0.240191,0 -0.363925,0 -0.24019,-1.561238 -0.480381,-3.122477 -0.72785,-4.731026 z"
       fill="#649d68"
       id="path869"
       style="stroke-width:0.363925" />
    <path
       d="m 67.70517,14.461279 c 1.7004,0.775911 3.127163,1.464807 4.367101,2.911401 -1.610648,-0.184074 -2.426521,-0.770777 -3.639251,-1.819626 -0.24019,-0.120091 -0.480381,-0.24019 -0.72785,-0.363924 0,-0.240191 0,-0.480381 0,-0.727851 z"
       fill="#d8f5db"
       id="path871"
       style="stroke-width:0.363925" />
    <path
       d="m 24.398087,83.607042 c 1.200953,0.600476 2.401906,1.200953 3.639251,1.819626 -1.4557,0.363924 -1.4557,0.363924 -2.638457,-0.295689 -0.330261,-0.262709 -0.660524,-0.525417 -1.000794,-0.796086 0,-0.240191 0,-0.480381 0,-0.727851 z"
       fill="#ddf9e1"
       id="path886"
       style="stroke-width:0.363925" />
    <path
       d="m 24.034163,78.512091 c 0.960762,0.600475 1.921524,1.200952 2.911401,1.819625 -0.240191,0.240191 -0.480381,0.480381 -0.727851,0.72785 -0.480381,-0.240191 -0.960762,-0.480381 -1.4557,-0.72785 0,-0.24019 0,-0.480381 0,-0.72785 -0.24019,0 -0.480381,0 -0.72785,0 0,-0.360287 0,-0.720572 0,-1.091775 z"
       fill="#629f6a"
       id="path888"
       style="stroke-width:0.363925" />
    <path
       d="m 15.299961,26.834731 c 0.363925,1.091775 0.363925,1.091775 -0.09099,2.229041 -0.636869,1.046285 -0.636869,1.046285 -1.728644,1.410209 0.485798,-1.307914 1.077301,-2.458279 1.819626,-3.63925 z"
       fill="#ddf8e2"
       id="path891"
       style="stroke-width:0.363925" />
    <path
       d="m 72.072271,17.37268 c 0.478968,0.346952 0.956318,0.696137 1.432955,1.046285 0.265991,0.194215 0.531984,0.388432 0.806037,0.588535 0.672409,0.548731 0.672409,0.548731 1.036333,1.27658 -1.159501,-0.128833 -1.743444,-0.302155 -2.661202,-1.046285 -0.614123,-0.77334 -0.614123,-0.77334 -0.614123,-1.865115 z"
       fill="#dbf6dd"
       id="path892"
       style="stroke-width:0.363925" />
    <path
       d="m 23.670237,12.641653 c 0.24019,0.240191 0.480381,0.480382 0.72785,0.727851 -0.818832,0.750595 -0.818832,0.750595 -1.819625,1.4557 -0.480381,-0.120092 -0.960763,-0.240191 -1.4557,-0.363925 0.840666,-0.600477 1.681334,-1.200952 2.547475,-1.819626 z"
       fill="#5d9c64"
       id="path893"
       style="stroke-width:0.363925" />
    <path
       d="m 67.341245,9.7302523 c 1.200953,0.6004757 2.401906,1.2009527 3.63925,1.8196247 0,0.120092 0,0.240191 0,0.363927 -1.281996,0.146513 -1.746624,0.04866 -2.843164,-0.682361 -0.262708,-0.255202 -0.525416,-0.510405 -0.796086,-0.773342 0,-0.24019 0,-0.4803806 0,-0.7278487 z"
       fill="#659f6b"
       id="path894"
       style="stroke-width:0.363925" />
    <path
       d="m 10.20501,67.594338 c 1.091775,0.363925 1.091775,0.363925 1.516828,1.036333 0.122444,0.265993 0.244882,0.531985 0.371033,0.806038 0.12525,0.266931 0.250511,0.533861 0.379562,0.808881 0.09242,0.205944 0.184835,0.411888 0.280052,0.624074 -0.360285,0.180143 -0.360285,0.180143 -0.727849,0.363925 -0.600478,-1.200953 -1.200953,-2.401906 -1.819626,-3.639251 z"
       fill="#659f6b"
       id="path915"
       style="stroke-width:0.363925" />
    <path
       d="m 84.809649,34.113233 c 0.983589,1.045064 1.436745,1.568488 1.546681,3.025127 -0.03003,0.322756 -0.06005,0.645513 -0.09099,0.978049 -0.841739,-0.84174 -0.908287,-1.266114 -1.137266,-2.411004 -0.06099,-0.297424 -0.121976,-0.594847 -0.184805,-0.901283 -0.0441,-0.227993 -0.08819,-0.455987 -0.133626,-0.690889 z"
       fill="#5a9760"
       id="path919"
       style="stroke-width:0.363925" />
    <path
       d="m 32.040514,83.243116 c 1.080857,0.120092 2.161715,0.240191 3.275326,0.363925 0.120091,0.360286 0.24019,0.720571 0.363924,1.091775 -1.200953,-0.360285 -2.401905,-0.720572 -3.63925,-1.091775 0,-0.120092 0,-0.240191 0,-0.363925 z"
       fill="#dbf5dd"
       id="path942"
       style="stroke-width:0.363925" />
    <path
       d="m 54.239943,57.768362 c 1.200952,0.120091 2.401905,0.24019 3.63925,0.363924 0,0.360287 0,0.720572 0,1.091775 -1.200953,-0.360285 -2.401906,-0.720571 -3.63925,-1.091775 0,-0.120092 0,-0.24019 0,-0.363924 z"
       fill="#659e6b"
       id="path944"
       style="stroke-width:0.363925" />
    <path
       d="m 49.508917,27.562582 c 1.4557,0.72785 1.4557,0.72785 1.933352,1.410209 0.250199,0.773341 0.250199,0.773341 -0.113723,2.229041 -0.600477,-1.200953 -1.200953,-2.401905 -1.819626,-3.63925 z"
       fill="#dcf7df"
       id="path946"
       style="stroke-width:0.363925" />
    <path
       d="m 82.626098,63.955088 c 0.240191,0 0.480381,0 0.727851,0 -0.420645,1.423718 -0.857172,2.501804 -1.819626,3.63925 0.112087,-0.538649 0.226186,-1.07688 0.34118,-1.614916 0.06333,-0.299769 0.126666,-0.599539 0.191913,-0.908392 0.194758,-0.752017 0.194758,-0.752017 0.558682,-1.115942 z"
       fill="#daf7de"
       id="path968"
       style="stroke-width:0.363925" />
    <path
       d="m 6.2018335,38.480334 c 0.7604367,1.520872 0.7880891,1.748334 0.3639246,3.275325 -0.2401905,0 -0.4803811,0 -0.7278492,0 0.1200918,-1.080858 0.2401905,-2.161714 0.3639246,-3.275325 z"
       fill="#679e6b"
       id="path971"
       style="stroke-width:0.363925" />
    <path
       d="m 88.812823,34.841084 c 0.656565,1.004156 0.732481,1.415566 0.591379,2.638456 -0.07506,0.330263 -0.15012,0.660524 -0.227454,1.000794 -0.656564,-1.004157 -0.73248,-1.415567 -0.591378,-2.638457 0.07506,-0.330261 0.150119,-0.660524 0.227453,-1.000793 z"
       fill="#6da472"
       id="path975"
       style="stroke-width:0.363925" />
    <path
       d="m 41.13864,35.568933 c 0.240191,0 0.480381,0 0.727851,0 -0.454606,1.258908 -0.973601,2.237023 -1.819626,3.275325 0.181228,-1.359215 0.318405,-2.115269 1.091775,-3.275325 z"
       fill="#e0f8e3"
       id="path976"
       style="stroke-width:0.363925" />
    <path
       d="m 20.394911,19.192305 c 0.360285,0 0.720572,0 1.091775,0 -0.453255,1.359766 -0.958597,1.52396 -2.18355,2.18355 0,-0.360286 0,-0.720572 0,-1.091775 0.360287,-0.120092 0.720572,-0.240191 1.091775,-0.363925 0,-0.24019 0,-0.480381 0,-0.72785 z"
       fill="#629c68"
       id="path980"
       style="stroke-width:0.363925" />
  </g>
</svg>
