<?xml version="1.0" encoding="UTF-8" standalone="no"?>
<!-- Created with Inkscape (http://www.inkscape.org/) -->

<svg
   width="96mm"
   height="96mm"
   viewBox="0 0 96 96"
   version="1.1"
   id="svg1"
   inkscape:version="1.4.2 (ebf0e940, 2025-05-08)"
   sodipodi:docname="tram.svg"
   xmlns:inkscape="http://www.inkscape.org/namespaces/inkscape"
   xmlns:sodipodi="http://sodipodi.sourceforge.net/DTD/sodipodi-0.dtd"
   xmlns="http://www.w3.org/2000/svg"
   xmlns:svg="http://www.w3.org/2000/svg">
  <sodipodi:namedview
     id="namedview1"
     pagecolor="#ffffff"
     bordercolor="#000000"
     borderopacity="0.25"
     inkscape:showpageshadow="2"
     inkscape:pageopacity="0.0"
     inkscape:pagecheckerboard="0"
     inkscape:deskcolor="#d1d1d1"
     inkscape:document-units="mm"
     inkscape:zoom="0.80444024"
     inkscape:cx="397.17059"
     inkscape:cy="362.36377"
     inkscape:window-width="1920"
     inkscape:window-height="1052"
     inkscape:window-x="0"
     inkscape:window-y="28"
     inkscape:window-maximized="0"
     inkscape:current-layer="layer1" />
  <defs
     id="defs1" />
  <g
     inkscape:label="Layer 1"
     inkscape:groupmode="layer"
     id="layer1">
    <path
       d="m 49.733715,7.0061534 c 0.21766,4.26e-4 0.43533,8.53e-4 0.65959,0.0013 2.38331,0.04742 5.18117,0.493864 6.94718,2.214593 2.56213,4.2215856 2.26193,9.9828786 2.22002,14.7040116 -0.002,0.663133 -0.003,1.326267 -0.005,1.989402 -0.004,1.728119 -0.0144,3.456142 -0.0261,5.184224 -0.0115,1.770275 -0.0157,3.540581 -0.021,5.310885 -0.0113,3.46081 -0.0291,6.921555 -0.0517,10.38231 -0.17463,0.08731 -0.34925,0.174625 -0.52917,0.264584 -0.12423,0.80587 -0.12423,0.80587 -0.16537,1.736328 -0.0198,0.316849 -0.0396,0.633698 -0.0599,0.960149 -0.013,0.245224 -0.0259,0.49045 -0.0393,0.743106 0.26193,0.08731 0.52387,0.174625 0.79375,0.264583 0.0249,3.836725 0.0435,7.673435 0.0548,11.510225 0.005,1.78213 0.0129,3.56421 0.025,5.34631 0.0116,1.72413 0.0178,3.4482 0.0206,5.17237 0.002,0.65339 0.006,1.30679 0.0115,1.96016 0.0266,3.14023 -0.009,6.20256 -0.58138,9.29863 -0.0411,0.22432 -0.0822,0.44863 -0.12461,0.67973 -0.32779,1.55725 -0.82869,2.69688 -2.0197,3.79875 -3.10788,1.8487 -7.48045,1.88118 -10.94507,1.19889 -1.66514,-0.4317 -3.032435,-0.86802 -4.168218,-2.18798 -2.157111,-4.41102 -2.00225,-9.54951 -1.964738,-14.33814 0.0013,-0.64798 0.0022,-1.29596 0.0026,-1.94394 0.002,-1.34502 0.0074,-2.68996 0.01565,-4.03496 0.01056,-1.72447 0.01526,-3.44888 0.01781,-5.17337 0.0026,-1.65142 0.0079,-3.30283 0.01352,-4.95424 9e-4,-0.31396 0.0018,-0.62792 0.0027,-0.95139 0.0031,-0.88439 0.008,-1.76874 0.01349,-2.65311 7.14e-4,-0.26208 0.0014,-0.52417 0.0021,-0.794198 0.0019,-0.240538 0.0038,-0.481076 0.0057,-0.728904 0.0017,-0.312576 0.0017,-0.312576 0.0034,-0.631465 0.03551,-0.573368 0.03551,-0.573368 0.189745,-1.136946 0.173029,-0.536416 0.173029,-0.536416 -0.201775,-1.14898 -0.222033,-0.339188 -0.222033,-0.339188 -0.448552,-0.685228 -1.132456,-1.751357 -1.299181,-3.20285 -1.091406,-5.27513 0.311374,-0.755788 0.74295,-1.272117 1.322917,-1.852084 0.02891,-0.708874 0.04081,-1.411173 0.04173,-2.120283 0.0013,-0.222491 0.0027,-0.444982 0.0041,-0.674211 0.0028,-0.485656 0.0051,-0.971318 0.0069,-1.456979 0.0031,-0.772594 0.0083,-1.545151 0.01405,-2.317731 0.01629,-2.19771 0.03051,-4.395418 0.03943,-6.593171 0.0056,-1.343613 0.01499,-2.687159 0.02666,-4.030733 0.0037,-0.508776 0.006,-1.017564 0.0069,-1.526352 0.01863,-10.119612 0.01863,-10.119612 2.588773,-13.5927786 2.200524,-1.535254 4.763314,-1.923663 7.391794,-1.918229 z"
       fill="#59904f"
       id="path6"
       style="stroke-width:0.264583" />
    <path
       d="m 40.936319,51.290788 c 0.376535,0.07367 0.376535,0.07367 0.760677,0.148828 0.800017,0.191655 0.800017,0.191655 1.35599,-0.148828 0.432375,-0.02389 0.865719,-0.0311 1.298759,-0.03004 0.27011,2e-5 0.54023,4e-5 0.81853,6.1e-5 0.43864,0.002 0.43864,0.002 0.88614,0.0041 0.29876,3.74e-4 0.59752,7.49e-4 0.90534,0.0011 0.95706,0.0015 1.91412,0.0048 2.87118,0.0082 0.64768,0.0013 1.29535,0.0025 1.94303,0.0036 1.59026,0.0029 3.18052,0.0074 4.77077,0.01292 0.0124,3.707435 0.0217,7.414865 0.0274,11.122315 0.003,1.72144 0.007,3.44286 0.0125,5.16429 0.006,1.66063 0.009,3.32124 0.0103,4.98188 9.8e-4,0.63422 0.003,1.26843 0.006,1.90264 0.004,0.88689 0.004,1.77373 0.004,2.66063 0.002,0.26339 0.004,0.52678 0.006,0.79816 -7.2e-4,0.24189 -10e-4,0.48378 -0.002,0.733 4.8e-4,0.20974 9.8e-4,0.41949 0.001,0.63559 -0.0752,0.66611 -0.22026,1.07829 -0.59429,1.63483 -1.58881,0.56211 -3.09042,0.60382 -4.7625,0.57877 -0.24128,-0.002 -0.48256,-0.004 -0.73115,-0.006 -6.39624,-0.0793 -6.39624,-0.0793 -7.470929,-0.83704 -0.08731,-0.26193 -0.174625,-0.52387 -0.264584,-0.79375 0.08731,0.43657 0.174625,0.87313 0.264584,1.32292 1.369789,0.55492 2.558869,0.60654 4.011129,0.59945 0.34428,7.9e-4 0.34428,7.9e-4 0.69552,0.002 0.48321,2.6e-4 0.96642,-5.3e-4 1.44963,-0.003 0.73797,-0.003 1.47578,-2e-5 2.21375,0.003 0.47077,-2.6e-4 0.94155,-0.001 1.41232,-0.002 0.21969,10e-4 0.43938,0.002 0.66572,0.003 1.60592,0.0137 1.60592,0.0137 3.04568,-0.6027 0.58042,-1.53717 0.60985,-2.98256 0.61353,-4.61257 0.004,-0.40686 0.004,-0.40686 0.008,-0.82193 0.008,-0.89187 0.0127,-1.78371 0.0171,-2.6756 0.005,-0.62022 0.0101,-1.24043 0.0155,-1.86065 0.0136,-1.62893 0.0241,-3.25787 0.0339,-4.88684 0.0106,-1.66362 0.0241,-3.32721 0.0374,-4.99081 0.0256,-3.26163 0.0479,-6.52327 0.0682,-9.784932 0.34925,0 0.6985,0 1.05833,0 0.0124,3.769802 0.0217,7.539602 0.0274,11.309412 0.003,1.75073 0.006,3.50145 0.0125,5.25217 0.006,1.69152 0.009,3.38303 0.0103,5.07456 9.8e-4,0.64332 0.003,1.28665 0.006,1.92997 0.0414,9.66809 0.0414,9.66809 -1.97211,12.3211 -2.53383,1.96513 -6.73374,1.64089 -9.7255,1.28675 -0.26194,-0.0437 -0.52388,-0.0873 -0.79375,-0.1323 0,0.17463 0,0.34925 0,0.52917 0.52387,0 1.04775,0 1.5875,0 0,0.0873 0,0.17463 0,0.26458 2.0955,0 4.191,0 6.35,0 0,0.0873 0,0.17463 0,0.26459 -3.42746,0.87646 -7.31874,0.43527 -10.583336,-0.79375 0.793746,-0.52917 0.793746,-0.52917 1.852086,-0.52917 -0.15962,-0.0426 -0.31924,-0.0853 -0.48369,-0.12919 -0.96216,-0.32744 -1.688577,-0.61448 -2.263432,-1.48001 -1.702563,-4.36366 -1.596053,-9.18267 -1.563729,-13.78004 0.0015,-0.62792 0.0026,-1.25584 0.0034,-1.88376 0.003,-1.63633 0.01077,-3.27259 0.01961,-4.9089 0.0082,-1.67627 0.01176,-3.35255 0.01574,-5.02884 0.0085,-3.277 0.02197,-6.55396 0.03876,-9.830925 z"
       fill="#5a8f50"
       id="path10"
       style="stroke-width:0.264583" />
    <path
       d="m 49.733715,7.0061534 c 0.21766,4.26e-4 0.43533,8.53e-4 0.65959,0.0013 2.38331,0.04742 5.18117,0.493864 6.94718,2.214593 2.56213,4.2215856 2.26193,9.9828786 2.22002,14.7040116 -0.002,0.663133 -0.003,1.326267 -0.005,1.989402 -0.004,1.728119 -0.0144,3.456142 -0.0261,5.184224 -0.0115,1.770275 -0.0157,3.540581 -0.021,5.310885 -0.0113,3.46081 -0.0291,6.921555 -0.0517,10.38231 -0.17463,0.08731 -0.34925,0.174625 -0.52917,0.264584 -0.12423,0.80587 -0.12423,0.80587 -0.16537,1.736328 -0.0198,0.316849 -0.0396,0.633698 -0.0599,0.960149 -0.013,0.245224 -0.0259,0.49045 -0.0393,0.743106 0.26193,0.08731 0.52387,0.174625 0.79375,0.264583 0.0249,3.836725 0.0435,7.673435 0.0548,11.510225 0.005,1.78213 0.0129,3.56421 0.025,5.34631 0.0116,1.72413 0.0178,3.4482 0.0206,5.17237 0.002,0.65339 0.006,1.30679 0.0115,1.96016 0.0266,3.14023 -0.009,6.20256 -0.58138,9.29863 -0.0411,0.22432 -0.0822,0.44863 -0.12461,0.67973 -0.32823,1.55936 -0.8317,2.69402 -2.01867,3.80185 -2.77474,1.6322 -6.45893,1.15486 -9.55807,1.12448 0,-0.0873 0,-0.17463 0,-0.26459 -0.43656,-0.0873 -0.87312,-0.17462 -1.32291,-0.26458 0,-0.17462 0,-0.34925 0,-0.52917 0.25944,0.008 0.25944,0.008 0.52412,0.0168 4.90891,0.29136 4.90891,0.29136 9.53004,-1.07513 0.71431,-0.90248 1.18818,-1.75713 1.50482,-2.86081 0.061,-0.20361 0.1221,-0.40723 0.185,-0.61701 0.43314,-2.01671 0.46941,-4.04763 0.48118,-6.10305 0.003,-0.2868 0.005,-0.5736 0.008,-0.86909 0.008,-0.94052 0.0149,-1.88105 0.0215,-2.82158 0.005,-0.65505 0.011,-1.3101 0.0167,-1.96516 0.0146,-1.71853 0.0276,-3.43708 0.0404,-5.15563 0.0133,-1.75587 0.028,-3.51174 0.0426,-5.2676 0.0284,-3.44112 0.0553,-6.88226 0.0811,-10.323405 -0.34925,0 -0.6985,0 -1.05833,0 10e-4,0.343932 0.002,0.687867 0.004,1.04222 0.0107,3.242835 0.0187,6.485655 0.0239,9.728495 0.003,1.66714 0.007,3.33426 0.0125,5.00139 0.006,1.60916 0.009,3.21832 0.0103,4.8275 9.8e-4,0.61362 0.003,1.22724 0.006,1.84085 0.004,0.86012 0.004,1.72018 0.004,2.58031 0.002,0.25311 0.004,0.50623 0.006,0.76702 -0.004,1.3819 -0.0948,2.54986 -0.595,3.84555 -1.24702,0.93279 -2.49822,0.91021 -3.99252,0.89917 -0.22827,7.9e-4 -0.45654,0.002 -0.69173,0.002 -0.48099,5.3e-4 -0.96198,-7.9e-4 -1.44296,-0.004 -0.73224,-0.004 -1.46409,-4e-5 -2.19632,0.005 -0.46905,-5.3e-4 -0.9381,-0.002 -1.40714,-0.003 -0.21696,0.002 -0.43392,0.003 -0.65745,0.005 -1.36683,-0.0166 -2.871567,-0.14081 -3.899382,-1.16862 -0.01917,-0.53437 -0.02216,-1.06936 -0.01654,-1.60404 0.0024,-0.29229 0.0048,-0.58458 0.0072,-0.88574 0.0031,-0.22612 0.0061,-0.45224 0.0093,-0.68522 0.08731,0 0.174625,0 0.264583,0 0.174625,0.96043 0.34925,1.92087 0.529167,2.91041 2.409572,0.8032 5.411952,0.55891 7.937502,0.57878 0.23051,0.003 0.46103,0.007 0.69853,0.0104 1.44029,0.002 2.6953,-0.12103 4.06397,-0.58918 0.24774,-0.74324 0.30019,-1.20446 0.30644,-1.97402 0.003,-0.24152 0.005,-0.48305 0.008,-0.73189 0.002,-0.26435 0.003,-0.52869 0.005,-0.80105 0.003,-0.27882 0.005,-0.55765 0.008,-0.84492 0.008,-0.92338 0.0149,-1.84677 0.0215,-2.77017 0.005,-0.63952 0.011,-1.27904 0.0167,-1.91857 0.0146,-1.68463 0.0277,-3.36927 0.0404,-5.05392 0.0133,-1.71849 0.028,-3.43697 0.0426,-5.15545 0.0285,-3.37291 0.0554,-6.74583 0.0811,-10.118761 -1.89752,0.03115 -3.79501,0.06418 -5.69248,0.09851 -0.64543,0.01146 -1.29087,0.02249 -1.93631,0.03307 -0.92803,0.01529 -1.85601,0.03214 -2.78401,0.04929 -0.43249,0.0066 -0.43249,0.0066 -0.87373,0.01339 -0.27005,0.0053 -0.54011,0.01056 -0.81835,0.01598 -0.23677,0.0041 -0.47355,0.0082 -0.717504,0.01246 -0.681944,0.02299 -0.681944,0.02299 -1.370015,0.210621 -0.624267,0.09577 -0.624267,0.09577 -1.418017,-0.433395 0.01013,3.590735 0.02594,7.181395 0.04866,10.772065 0.01038,1.66791 0.01893,3.33578 0.02304,5.00371 0.0041,1.61438 0.01324,3.22866 0.02575,4.843 0.0039,0.61107 0.006,1.22215 0.0062,1.83323 0.0034,4.56951 0.274653,9.16453 1.748398,13.53133 0.541658,0.36852 0.541658,0.36852 1.190628,0.47955 1.15606,0.27964 1.15606,0.27964 1.71979,0.84336 -2.338514,0.16347 -2.338514,0.16347 -3.423049,-0.41341 -3.149878,-3.72258 -2.545811,-10.46791 -2.510441,-14.98306 0.0013,-0.64798 0.0022,-1.29596 0.0026,-1.94394 0.002,-1.34502 0.0074,-2.68996 0.01565,-4.03496 0.01056,-1.72447 0.01526,-3.44888 0.01781,-5.17337 0.0026,-1.65142 0.0079,-3.30283 0.01352,-4.95424 9e-4,-0.31396 0.0018,-0.62792 0.0027,-0.95139 0.0031,-0.88439 0.008,-1.76874 0.01349,-2.65311 7.14e-4,-0.26208 0.0014,-0.52417 0.0021,-0.794195 0.0019,-0.240538 0.0038,-0.481076 0.0057,-0.728904 0.0017,-0.312576 0.0017,-0.312576 0.0034,-0.631465 0.03551,-0.573368 0.03551,-0.573368 0.189746,-1.136946 0.173028,-0.536416 0.173028,-0.536416 -0.201776,-1.14898 -0.222033,-0.339188 -0.222033,-0.339188 -0.448551,-0.685228 -1.132457,-1.751357 -1.299181,-3.20285 -1.091407,-5.27513 0.311374,-0.755788 0.742951,-1.272117 1.322917,-1.852084 0.02891,-0.708874 0.04081,-1.411173 0.04173,-2.120283 0.0013,-0.222491 0.0027,-0.444982 0.0041,-0.674211 0.0028,-0.485656 0.0051,-0.971318 0.0069,-1.456979 0.0031,-0.772594 0.0083,-1.545151 0.01405,-2.317731 0.01629,-2.19771 0.03051,-4.395418 0.03943,-6.593171 0.0056,-1.343613 0.01499,-2.687159 0.02666,-4.030733 0.0037,-0.508776 0.006,-1.017564 0.0069,-1.526352 0.01863,-10.119612 0.01863,-10.119612 2.588773,-13.5927786 2.200528,-1.535254 4.763318,-1.923663 7.391798,-1.918229 z M 43.1274,9.8039153 c -0.70823,0.8695217 -0.922509,1.5391467 -1.182357,2.6261957 -0.08015,0.322647 -0.1603,0.645294 -0.242879,0.977718 -0.0794,0.368516 -0.158274,0.737147 -0.236678,1.105876 -0.04523,0.184019 -0.09045,0.368038 -0.137052,0.557633 -0.556107,2.535645 -0.458515,5.091579 -0.443791,7.672356 9.79e-4,0.511925 0.0017,1.023852 0.0023,1.535779 0.002,1.338384 0.0072,2.676737 0.01307,4.015109 0.0054,1.369313 0.0078,2.738632 0.0105,4.107953 0.0057,2.680127 0.01467,5.360229 0.02584,8.040336 0.436562,0 0.873125,0 1.322916,0 0.0021,-0.285443 0.0043,-0.570886 0.0065,-0.864978 0.0205,-2.690125 0.04372,-5.380215 0.06959,-8.070295 0.01321,-1.382995 0.02547,-2.765984 0.03555,-4.149005 0.0098,-1.334709 0.02202,-2.669372 0.03603,-4.004042 0.0049,-0.509185 0.0089,-1.01838 0.01198,-1.527579 0.0045,-0.713252 0.01215,-1.426402 0.02059,-2.139616 8.47e-4,-0.31573 8.47e-4,-0.31573 0.0017,-0.637837 0.01646,-1.08985 0.07478,-1.986853 0.611797,-2.948314 1.695379,-1.130252 3.750579,-0.842998 5.717539,-0.842778 0.57829,-5.82e-4 1.15645,-0.0054 1.73472,-0.0104 4.0381,-0.01622 4.0381,-0.01622 5.77691,0.853179 0.16536,0.677995 0.16536,0.677995 0.26458,1.322917 -0.17462,0 -0.34925,0 -0.52917,0 -0.0218,-0.163711 -0.0436,-0.327422 -0.0661,-0.496094 -0.14813,-0.58372 -0.14813,-0.58372 -0.61185,-0.876432 -3.26303,-1.087676 -8.49093,-0.98746 -11.757419,0.04961 -0.982319,1.473477 -0.834415,3.38859 -0.848075,5.118034 -0.0026,0.20934 -0.0052,0.41868 -0.0079,0.634364 -0.0083,0.684262 -0.01488,1.36853 -0.02146,2.05281 -0.0054,0.47747 -0.011,0.954939 -0.01666,1.432406 -0.01454,1.250942 -0.02764,2.501895 -0.04044,3.752856 -0.01334,1.278813 -0.02804,2.55761 -0.04263,3.83641 -0.02837,2.504914 -0.05523,5.009844 -0.08113,7.514786 0.435369,0.177012 0.435369,0.177012 0.879533,0.357601 1.259851,0.51223 2.062961,1.260848 2.642731,2.503207 0.06,0.190994 0.12005,0.381992 0.1819,0.578776 0.17463,0 0.34925,0 0.52917,0 0,0.611187 0,1.222375 0,1.852083 3.23056,0 6.46112,0 9.78958,0 0.0873,-9.0805 0.17462,-18.161 0.26458,-27.516666 0.24219,0.726564 0.3,1.164587 0.30645,1.913751 0.003,0.228169 0.005,0.456337 0.008,0.691419 0.002,0.374249 0.002,0.374249 0.005,0.756058 0.003,0.263341 0.005,0.526681 0.008,0.798002 0.008,0.871843 0.0149,1.743691 0.0215,2.61555 0.005,0.603933 0.011,1.207865 0.0167,1.811796 0.0146,1.590677 0.0277,3.181363 0.0404,4.772056 0.0133,1.622729 0.028,3.245445 0.0426,4.868161 0.0285,3.184808 0.0553,6.369627 0.0811,9.554456 0.34925,0 0.6985,0 1.05833,0 0.0185,-3.583601 0.0325,-7.167189 0.0411,-10.75083 0.004,-1.664406 0.01,-3.328781 0.0188,-4.99317 0.009,-1.60918 0.0134,-3.218329 0.0154,-4.827531 10e-4,-0.610918 0.004,-1.221833 0.009,-1.832737 0.023,-3.393423 -0.0682,-6.568254 -0.87768,-9.874898 -0.0867,-0.361475 -0.17343,-0.722951 -0.26014,-1.08443 -0.51052,-2.194295 -0.51052,-2.194295 -2.12111,-3.6780696 -3.42205,-1.444267 -9.11485,-1.565352 -12.096412,0.8464599 z"
       fill="#568350"
       id="path11"
       style="stroke-width:0.264583" />
    <path
       d="m 40.936319,51.290788 c 0.654844,0.261937 0.654844,0.261937 1.322917,0.529167 5.82e-4,0.219438 5.82e-4,0.219438 0.0012,0.44331 0.0098,3.559709 0.02548,7.119349 0.04748,10.679009 0.01046,1.72143 0.01897,3.44282 0.02304,5.16428 0.004,1.66068 0.01309,3.32126 0.02575,4.98189 0.0039,0.6342 0.006,1.26842 0.0062,1.90264 6.25e-4,0.88698 0.0078,1.77369 0.01646,2.66063 -0.0013,0.26339 -0.0027,0.52678 -0.004,0.79816 0.008,1.40265 0.008,1.40265 0.620517,2.62916 0.906782,0.57884 1.656112,0.67139 2.715292,0.67727 0.20754,0.002 0.41507,0.003 0.6289,0.005 0.22188,2.6e-4 0.44377,5.3e-4 0.67238,7.9e-4 0.23027,7.9e-4 0.46054,0.002 0.6978,0.003 0.48636,10e-4 0.97274,0.002 1.45911,0.002 0.74265,5.3e-4 1.4852,0.005 2.22783,0.0104 0.47319,8e-4 0.94637,10e-4 1.41955,0.002 0.33203,0.003 0.33203,0.003 0.67076,0.006 1.61326,0.0218 1.61326,0.0218 3.05925,-0.59591 0.58028,-1.53725 0.60985,-2.9825 0.61353,-4.61257 0.004,-0.40686 0.004,-0.40686 0.008,-0.82193 0.008,-0.89186 0.0127,-1.78371 0.0171,-2.6756 0.005,-0.62021 0.0101,-1.24043 0.0155,-1.86064 0.0136,-1.62894 0.0241,-3.25788 0.0339,-4.88684 0.0106,-1.66362 0.0241,-3.32722 0.0374,-4.99082 0.0256,-3.2615 0.0479,-6.52314 0.0682,-9.784803 0.34925,0 0.6985,0 1.05833,0 0.0124,3.769803 0.0217,7.539603 0.0274,11.309413 0.003,1.75073 0.006,3.50145 0.0125,5.25217 0.006,1.69152 0.009,3.38303 0.0103,5.07456 9.8e-4,0.64332 0.003,1.28665 0.006,1.92997 0.0414,9.66809 0.0414,9.66809 -1.97211,12.3211 -2.53383,1.96513 -6.73374,1.64089 -9.7255,1.28675 -0.26194,-0.0437 -0.52388,-0.0873 -0.79375,-0.1323 0,0.17463 0,0.34925 0,0.52917 0.52387,0 1.04775,0 1.5875,0 0,0.0873 0,0.17463 0,0.26458 2.0955,0 4.191,0 6.35,0 0,0.0873 0,0.17463 0,0.26459 -3.42746,0.87646 -7.31874,0.43527 -10.583339,-0.79375 0.793749,-0.52917 0.793749,-0.52917 1.852089,-0.52917 -0.15962,-0.0426 -0.31924,-0.0853 -0.48369,-0.12919 -0.962163,-0.32744 -1.68858,-0.61448 -2.263435,-1.48001 -1.702563,-4.36366 -1.596053,-9.18267 -1.563729,-13.78004 0.0015,-0.62792 0.0026,-1.25584 0.0034,-1.88376 0.003,-1.63633 0.01077,-3.27259 0.01961,-4.9089 0.0082,-1.67627 0.01176,-3.35255 0.01574,-5.02884 0.0085,-3.277 0.02197,-6.55396 0.03876,-9.830926 z"
       fill="#85b47b"
       id="path24"
       style="stroke-width:0.264583" />
    <path
       d="m 49.601425,8.0810234 c 0.31038,0.0017 0.31038,0.0017 0.62703,0.0034 2.30472,0.04452 4.60955,0.242917 6.31828,1.9314066 0.44513,1.02296 0.66955,2.083429 0.9293,3.166328 0.11475,0.478302 0.23143,0.95614 0.34839,1.433908 0.71318,3.289541 0.67561,6.532297 0.65191,9.885701 -10e-4,0.622743 -0.003,1.245488 -0.003,1.868232 -0.003,1.625025 -0.0108,3.249991 -0.0196,4.874993 -0.008,1.663812 -0.0118,3.327634 -0.0157,4.991458 -0.008,3.254264 -0.022,6.508483 -0.0387,9.762712 -0.34925,0 -0.6985,0 -1.05834,0 -0.002,-0.332226 -0.004,-0.664453 -0.006,-1.006744 -0.0205,-3.13748 -0.0438,-6.274927 -0.0696,-9.412367 -0.0132,-1.612823 -0.0255,-3.22564 -0.0356,-4.838484 -0.01,-1.557728 -0.0221,-3.115418 -0.036,-4.673113 -0.005,-0.593017 -0.009,-1.186043 -0.012,-1.779072 -0.004,-0.833366 -0.0122,-1.666648 -0.0206,-2.499982 -5.8e-4,-0.24284 -10e-4,-0.485681 -0.002,-0.73588 -0.0203,-1.584344 -0.12617,-3.169289 -0.61181,-4.68769 -1.66213,-1.52362 -4.42936,-1.107599 -6.54579,-1.107362 -0.57885,-5.82e-4 -1.15756,-0.0054 -1.73639,-0.0104 -0.37259,-7.67e-4 -0.74517,-0.0013 -1.11776,-0.0016 -0.3349,-0.0011 -0.66981,-0.0022 -1.01486,-0.0033 -1.26479,0.08448 -2.423582,0.202657 -3.343531,1.122606 -0.350595,1.076395 -0.310835,2.170615 -0.318908,3.291531 -0.0026,0.224669 -0.0052,0.449338 -0.0079,0.680816 -0.0083,0.741556 -0.01491,1.483117 -0.02145,2.224691 -0.0054,0.514574 -0.011,1.029148 -0.01666,1.54372 -0.01459,1.353611 -0.02768,2.707234 -0.04044,4.060863 -0.0133,1.381574 -0.02802,2.763132 -0.04263,4.144692 -0.02845,2.710244 -0.05529,5.420501 -0.08113,8.130771 -0.436563,0 -0.873125,0 -1.322917,0 -0.03095,-2.896142 -0.05431,-5.792242 -0.06854,-8.688519 -0.0068,-1.345554 -0.01608,-2.690993 -0.03126,-4.03648 -0.15184,-13.831331 -0.15184,-13.831331 2.216468,-17.9666567 0.466121,-0.3679359 0.466121,-0.3679359 0.975648,-0.5953119 0.16474,-0.07776 0.32947,-0.155526 0.4992,-0.235645 1.71304,-0.606873 3.26757,-0.852523 5.07359,-0.839225 z"
       fill="#84b27c"
       id="path26"
       style="stroke-width:0.264583" />
    <path
       d="m 48.770535,14.993843 c 0.57829,-5.77e-4 1.15645,-0.0054 1.73471,-0.0104 4.33796,-0.01793 4.33796,-0.01793 6.04149,1.117761 0.0496,0.694532 0.0496,0.694532 0,1.322917 -0.17462,0 -0.34925,0 -0.52916,0 -0.0638,-0.167804 -0.12756,-0.335607 -0.19327,-0.508496 -0.28464,-0.582954 -0.28464,-0.582954 -0.82889,-0.768945 -3.7349,-0.643333 -7.70581,-0.551271 -11.413258,0.219108 -0.626386,2.478601 -0.616719,4.920167 -0.629419,7.457942 -0.0043,0.463583 -0.0088,0.927164 -0.01363,1.390742 -0.01201,1.212453 -0.02126,2.424909 -0.02969,3.637391 -0.0138,1.947869 -0.03094,3.895705 -0.0498,5.843531 -0.006,0.679787 -0.01034,1.359569 -0.01448,2.03937 -0.0035,0.414036 -0.0071,0.828072 -0.01082,1.242107 -0.001,0.284086 -0.001,0.284086 -0.0021,0.573911 -0.01376,1.302783 -0.01376,1.302783 -0.308415,1.892089 0.234652,0.02183 0.469304,0.04366 0.711067,0.06615 1.238945,0.280517 1.854985,0.864914 2.678905,1.802473 0.57291,1.417214 0.62637,2.936078 0.0351,4.359425 -0.32977,0.583428 -0.68336,1.144744 -1.04387,1.709455 -0.0982,0.245568 -0.19645,0.491133 -0.29765,0.74414 -0.25501,0.637509 -0.59316,1.106803 -1.025259,1.63711 0.174625,0.08731 0.349249,0.174625 0.529159,0.264583 -1.428152,0.811456 -1.428152,0.811456 -2.182805,0.727604 -0.33546,-0.143766 -0.665749,-0.299802 -0.992187,-0.46302 0.01013,3.590733 0.02593,7.181393 0.04866,10.772063 0.01038,1.66791 0.01893,3.33578 0.02304,5.00371 0.0041,1.61438 0.01324,3.22866 0.02575,4.843 0.0039,0.61107 0.006,1.22215 0.0062,1.83323 0.0034,4.56951 0.274652,9.16453 1.748397,13.53133 0.541658,0.36853 0.541658,0.36853 1.190625,0.47955 1.15606,0.27964 1.15606,0.27964 1.71979,0.84336 -2.33851,0.16347 -2.33851,0.16347 -3.423045,-0.41341 -3.149879,-3.72258 -2.545811,-10.46791 -2.510441,-14.98306 0.0013,-0.64798 0.0022,-1.29596 0.0026,-1.94394 0.002,-1.34502 0.0074,-2.68996 0.01564,-4.03496 0.01056,-1.72447 0.01526,-3.44888 0.01781,-5.17337 0.0026,-1.65143 0.0079,-3.30283 0.01352,-4.95424 8.99e-4,-0.31396 0.0018,-0.62792 0.0027,-0.95139 0.0031,-0.88438 0.008,-1.76874 0.01349,-2.65311 7.15e-4,-0.26208 0.0014,-0.52417 0.0021,-0.794194 0.0019,-0.240538 0.0038,-0.481076 0.0057,-0.728903 0.0017,-0.312576 0.0017,-0.312576 0.0034,-0.631465 0.03551,-0.573368 0.03551,-0.573368 0.189746,-1.136947 0.173029,-0.536416 0.173029,-0.536416 -0.201776,-1.148976 -0.222032,-0.339191 -0.222032,-0.339191 -0.448551,-0.685232 -1.134226,-1.754092 -1.293938,-3.200542 -1.091406,-5.27513 0.269383,-0.712131 0.523007,-1.021582 1.058333,-1.5875 0.392906,-0.130968 0.392906,-0.130968 0.79375,-0.264582 0,-7.421563 0,-14.843125 0,-22.489583 0.261938,-0.08731 0.523875,-0.174625 0.79375,-0.264584 0,7.246938 0,14.493875 0,21.960417 0.436563,0 0.873125,0 1.322917,0 -0.0012,-0.285443 -0.0024,-0.570886 -0.0036,-0.864979 -0.01073,-2.690094 -0.01866,-5.380184 -0.02386,-8.070295 -0.0028,-1.383011 -0.0065,-2.766004 -0.0125,-4.149005 -0.0057,-1.334682 -0.0089,-2.669348 -0.01029,-4.004042 -9.79e-4,-0.509195 -0.0029,-1.01839 -0.0057,-1.527578 -0.0038,-0.713226 -0.0044,-1.426383 -0.0041,-2.139617 -0.0019,-0.210486 -0.0038,-0.420972 -0.0058,-0.637837 0.0041,-1.097853 0.07707,-1.970599 0.595006,-2.948314 1.566727,-1.512695 3.956917,-1.107587 5.982137,-1.107361 z"
       fill="#54734f"
       id="path30"
       style="stroke-width:0.264583" />
    <path
       d="m 47.119915,22.336483 c 0.19017,-0.0014 0.38033,-0.0028 0.57626,-0.0042 0.40187,-0.0017 0.80375,-0.0013 1.20561,9.09e-4 0.61396,0.0022 1.22727,-0.0054 1.84116,-0.01376 0.39085,-4.27e-4 0.7817,-2.74e-4 1.17254,5.17e-4 0.18304,-0.003 0.36607,-0.0059 0.55465,-0.009 0.88291,0.01273 1.35886,0.08693 2.07575,0.618725 0.60184,0.84431 0.56014,1.422733 0.41334,2.431957 -0.82592,0.841659 -1.56298,0.913206 -2.71197,0.975651 -0.28513,0.01739 -0.57026,0.03479 -0.86403,0.05271 -0.32538,0.01484 -0.32538,0.01484 -0.65733,0.02997 0.0721,0.218878 0.14427,0.437756 0.21859,0.663267 0.26751,0.814191 0.53362,1.628823 0.79879,2.443778 0.11494,0.352272 0.23043,0.704363 0.34649,1.056266 0.16696,0.506552 0.33175,1.013817 0.49648,1.521096 0.14964,0.45724 0.14964,0.45724 0.30231,0.923716 0.21859,0.80021 0.21859,0.80021 0.21859,1.858543 0.61119,0 1.22238,0 1.85208,0 0,0.261938 0,0.523875 0,0.79375 -0.52387,0 -1.04775,0 -1.5875,0 0.13097,0.916781 0.13097,0.916781 0.26459,1.852084 0.34925,0.08731 0.6985,0.174625 1.05833,0.264583 0,0.174625 0,0.34925 0,0.529167 -3.4925,0 -6.985,0 -10.58333,0 0,-0.174625 0,-0.34925 0,-0.529167 0.43656,0 0.87312,0 1.32291,0 0.0873,-0.6985 0.17463,-1.397 0.26459,-2.116667 -0.43656,0 -0.87313,0 -1.32292,0 0,-0.261937 0,-0.523875 0,-0.79375 0.61119,0 1.22238,0 1.85208,0 0.0706,-0.333561 0.14121,-0.667122 0.21395,-1.010791 0.31852,-1.432926 0.71645,-2.838493 1.12551,-4.247802 0.0711,-0.247613 0.14222,-0.495226 0.21549,-0.750342 0.26291,-0.912635 0.52594,-1.821207 0.8263,-2.722315 -0.24215,0.0061 -0.48431,0.01228 -0.7338,0.0186 -0.47169,0.0072 -0.47169,0.0072 -0.95291,0.01447 -0.46965,0.0092 -0.46965,0.0092 -0.94878,0.0186 -0.80409,-0.05168 -0.80409,-0.05168 -1.33326,-0.580842 -0.13745,-0.54467 -0.13745,-0.54467 -0.21497,-1.174089 -0.029,-0.207026 -0.058,-0.414052 -0.0879,-0.627352 0.0382,-0.579809 0.0382,-0.579809 0.31561,-1.005752 0.7726,-0.550306 1.55207,-0.486399 2.46665,-0.482529 z"
       fill="#4a7c45"
       id="path38"
       style="stroke-width:0.264583" />
    <path
       d="m 45.169655,64.784534 c 1.2763,-0.007 2.55259,-0.0113 3.8289,-0.0145 0.43452,-10e-4 0.86903,-0.003 1.30354,-0.005 0.62324,-0.003 1.24647,-0.005 1.86972,-0.006 0.1954,-0.001 0.39081,-0.003 0.59214,-0.004 0.46728,-5e-5 0.93454,0.0136 1.40153,0.03 0.4511,0.4511 0.29846,1.01741 0.30135,1.61899 -5.3e-4,0.18879 -0.001,0.37758 -0.002,0.57209 2.5e-4,0.1928 5e-4,0.3856 7.6e-4,0.58424 1.8e-4,0.40836 -3.1e-4,0.81672 -10e-4,1.22508 -0.001,0.62716 -1e-5,1.25426 0.002,1.88141 -1.8e-4,0.39584 -5.1e-4,0.79168 -10e-4,1.18753 5.2e-4,0.18879 10e-4,0.37758 0.002,0.57209 -0.006,1.32399 -0.006,1.32399 -0.30135,1.61899 -0.667,0.0234 -1.3267,0.0305 -1.99367,0.0258 -0.29895,-5.6e-4 -0.29895,-5.6e-4 -0.60394,-10e-4 -0.63895,-0.001 -1.27789,-0.005 -1.91684,-0.008 -0.43219,-10e-4 -0.86437,-0.003 -1.29656,-0.004 -1.06162,-0.003 -2.12321,-0.007 -3.18482,-0.0129 -0.39082,-0.78165 -0.29895,-1.485 -0.29972,-2.35645 -2.6e-4,-0.18005 -5.1e-4,-0.3601 -7.7e-4,-0.54561 -1.8e-4,-0.38075 3.1e-4,-0.76151 10e-4,-1.14227 10e-4,-0.58357 2e-5,-1.1671 -0.002,-1.75067 1.8e-4,-0.36966 5.2e-4,-0.73932 0.001,-1.10897 3e-4,-0.33749 5.9e-4,-0.67497 9e-4,-1.02268 0.0342,-0.8046 0.0342,-0.8046 0.29882,-1.33377 z"
       fill="#689d5d"
       id="path47"
       style="stroke-width:0.264583" />
    <path
       d="m 46.818625,53.869884 c 0.18742,0.002 0.37485,0.004 0.56795,0.006 0.28864,1.8e-4 0.28864,1.8e-4 0.5831,3.7e-4 0.40679,8e-4 0.81357,0.003 1.22035,0.006 0.62481,0.005 1.24953,0.005 1.87436,0.005 0.39464,0.001 0.78928,0.003 1.18391,0.005 0.18796,2.9e-4 0.37592,5.9e-4 0.56958,8.9e-4 1.31691,0.0128 1.31691,0.0128 1.6122,0.30813 0.0264,0.50657 0.0346,1.0141 0.0351,1.52136 5e-4,0.46248 5e-4,0.46248 10e-4,0.93431 -10e-4,0.32469 -0.002,0.64938 -0.003,0.98392 0.002,0.48704 0.002,0.48704 0.003,0.98392 -3.4e-4,0.30832 -6.9e-4,0.61664 -10e-4,0.93431 -2.9e-4,0.28512 -6.1e-4,0.57025 -9e-4,0.86402 -0.0342,0.65733 -0.0342,0.65733 -0.29882,0.92191 -0.6639,0.0267 -1.32037,0.037 -1.98437,0.0351 -0.19867,2.6e-4 -0.39734,5.1e-4 -0.60203,7.7e-4 -0.42082,1.8e-4 -0.84164,-3.2e-4 -1.26246,-10e-4 -0.64632,-10e-4 -1.29258,-2e-5 -1.9389,0.002 -0.4079,-1.7e-4 -0.8158,-5e-4 -1.2237,-0.001 -0.19457,5.3e-4 -0.38915,0.001 -0.58963,0.002 -1.36433,-0.006 -1.36433,-0.006 -1.65933,-0.30135 -0.0669,-1.09528 -0.049,-2.19368 -0.0496,-3.29075 -0.003,-0.30986 -0.006,-0.61972 -0.01,-0.93897 -5.1e-4,-0.29553 -0.001,-0.59106 -0.002,-0.89555 -10e-4,-0.27266 -0.002,-0.54532 -0.003,-0.82624 0.12582,-1.29809 0.84013,-1.25364 1.97782,-1.25897 z"
       fill="#689d5d"
       id="path57"
       style="stroke-width:0.264583" />
    <path
       d="m 52.842565,8.6928724 c 0.36962,0.0161 0.73892,0.03966 1.10794,0.06615 0.20566,0.01228 0.41133,0.02456 0.62322,0.03721 0.88671,0.219916 1.32996,0.573285 1.97301,1.2195636 0.44512,1.02296 0.66954,2.083429 0.92929,3.166328 0.11476,0.478302 0.23144,0.95614 0.34839,1.433908 0.71319,3.289541 0.67561,6.532297 0.65191,9.885701 -0.001,0.622743 -0.003,1.245488 -0.003,1.868232 -0.003,1.625025 -0.0108,3.249991 -0.0196,4.874993 -0.008,1.663812 -0.0118,3.327633 -0.0157,4.991458 -0.008,3.254264 -0.022,6.508483 -0.0388,9.762713 -0.34925,0 -0.6985,0 -1.05833,0 -0.002,-0.332227 -0.004,-0.664454 -0.006,-1.006745 -0.0205,-3.13748 -0.0438,-6.274927 -0.0696,-9.412367 -0.0132,-1.612823 -0.0254,-3.22564 -0.0356,-4.838484 -0.01,-1.557728 -0.0221,-3.115418 -0.036,-4.673113 -0.005,-0.593017 -0.009,-1.186043 -0.012,-1.779072 -0.004,-0.833366 -0.0122,-1.666647 -0.0206,-2.499982 -5.8e-4,-0.24284 -0.001,-0.485681 -0.002,-0.73588 -0.0203,-1.584344 -0.12616,-3.169289 -0.6118,-4.68769 -1.30557,-1.196765 -3.15702,-1.091962 -4.84312,-1.093474 -0.18066,-2.53e-4 -0.36132,-5.03e-4 -0.54745,-7.67e-4 -0.38023,-1.79e-4 -0.76046,2.91e-4 -1.14069,0.0014 -0.57591,0.0014 -1.15176,1.3e-5 -1.72767,-0.0017 -0.37173,1.75e-4 -0.74345,5.03e-4 -1.11518,10e-4 -0.50028,4.5e-4 -0.50028,4.5e-4 -1.01066,9e-4 -1.05467,0.03639 -2.06444,0.153197 -3.108983,0.298824 0,-0.174625 0,-0.34925 0,-0.529167 1.208653,-0.463614 2.245333,-0.606703 3.536733,-0.638721 0.17981,-0.0051 0.35962,-0.01025 0.54487,-0.01553 0.56869,-0.01569 1.13739,-0.02804 1.70616,-0.04028 0.38792,-0.01011 0.77584,-0.02045 1.16375,-0.03101 0.94597,-0.02527 1.89199,-0.04755 2.83807,-0.06821 0.13097,-0.392906 0.13097,-0.392906 0.26458,-0.79375 0.16883,-0.01603 0.33766,-0.03206 0.5116,-0.04858 0.32793,-0.03325 0.32793,-0.03325 0.66249,-0.06718 0.21794,-0.02149 0.43588,-0.04297 0.66043,-0.06511 0.54319,-0.02797 0.54319,-0.02797 0.81132,-0.348299 0.019,-0.401976 0.0222,-0.804776 0.0165,-1.207161 -0.005,-0.387449 -0.0109,-0.774899 -0.0165,-1.174089 -1.04775,-0.436562 -2.0955,-0.8731247 -3.175,-1.3229156 0.0873,-0.174625 0.17462,-0.34925 0.26458,-0.529167 z"
       fill="#87b681"
       id="path73"
       style="stroke-width:0.264583" />
    <path
       d="m 43.846735,41.236621 c 0.79375,0.661458 0.79375,0.661458 1.32292,1.322917 0.0873,0.08731 0.17462,0.174625 0.26458,0.264583 0.30542,2.432913 0.0116,4.161466 -1.33429,6.214608 -0.637811,0.818593 -1.250185,1.403499 -2.105293,1.987475 -1.208818,-1.321266 -2.0943,-2.640822 -2.910417,-4.233333 -0.174625,0.08731 -0.34925,0.174625 -0.529167,0.264583 -0.289736,-0.869208 -0.290937,-1.517817 -0.281119,-2.430859 0.0024,-0.287517 0.0048,-0.575035 0.0072,-0.871265 0.0031,-0.219986 0.0061,-0.439973 0.0093,-0.666626 0.174625,0.174625 0.34925,0.34925 0.529167,0.529167 0.174625,-0.34925 0.34925,-0.6985 0.529166,-1.058333 0.174625,0 0.34925,0 0.529167,0 0.06548,-0.163711 0.130969,-0.327422 0.198438,-0.496094 0.833827,-1.417507 2.364071,-1.225383 3.770308,-0.826823 z"
       fill="#8c5a54"
       id="path77"
       style="stroke-width:0.264583" />
    <path
       d="m 43.846735,83.569954 c 0.69867,-0.0196 0.69867,-0.0196 1.65365,0.0827 2.27058,0.20654 4.53545,0.20711 6.81302,0.19844 0.18239,-5.4e-4 0.36479,-0.001 0.55271,-0.002 1.0505,-0.003 2.10097,-0.008 3.15145,-0.0149 0.42351,0.84701 0.39294,1.7266 0.26459,2.64584 -0.7779,1.01465 -2.23682,1.12684 -3.43959,1.32291 -1.00446,0.0774 -2.00253,0.086 -3.00963,0.0827 -0.25512,0.004 -0.51023,0.009 -0.77308,0.0129 -1.88097,0.001 -4.14019,-0.0734 -5.695132,-1.25594 -0.311738,-0.42717 -0.311738,-0.42717 -0.262129,-1.35321 0.214974,-0.92604 0.214974,-0.92604 0.744141,-1.71979 z"
       fill="#5e9152"
       id="path80"
       style="stroke-width:0.264583" />
    <path
       d="m 49.353375,9.1393564 c 0.2302,7.25e-4 0.46039,0.0014 0.69757,0.0022 2.09946,0.03392 4.18358,0.214705 5.96662,1.4034026 0.0961,0.553971 0.0961,0.553971 0.0827,1.190625 -10e-4,0.210096 -0.002,0.420191 -0.003,0.636654 -0.0796,0.553971 -0.0796,0.553971 -0.60874,1.083138 -0.493,-0.0062 -0.493,-0.0062 -1.14102,-0.09922 -1.55213,-0.173608 -3.08689,-0.197633 -4.64674,-0.198438 -0.24227,-0.0012 -0.48453,-0.0023 -0.73413,-0.0035 -1.12816,0.0023 -2.16539,0.03634 -3.2677,0.301145 -0.97565,0.04961 -0.97565,0.04961 -1.85208,0 -0.635917,-0.635917 -0.614055,-0.830528 -0.628386,-1.703256 0.03408,-1.11937 0.03408,-1.11937 0.479557,-1.719791 1.823559,-0.7561106 3.700039,-0.9054866 5.655469,-0.8929696 z"
       fill="#5a8f50"
       id="path84"
       style="stroke-width:0.264583" />
    <path
       d="m 59.192565,50.761621 c 0.0873,0 0.17462,0 0.26458,0 0.0249,3.836723 0.0435,7.673433 0.0548,11.510223 0.005,1.78213 0.0129,3.56421 0.025,5.34631 0.0116,1.72412 0.0178,3.4482 0.0206,5.17237 0.002,0.65339 0.006,1.30679 0.0115,1.96016 0.0266,3.14023 -0.009,6.20256 -0.58138,9.29863 -0.0411,0.22432 -0.0822,0.44863 -0.12461,0.67973 -0.32823,1.55936 -0.83171,2.69402 -2.01867,3.80185 -2.77474,1.6322 -6.45893,1.15486 -9.55807,1.12448 0,-0.0873 0,-0.17463 0,-0.26459 -0.43656,-0.0873 -0.87312,-0.17462 -1.32292,-0.26458 0,-0.17463 0,-0.34925 0,-0.52917 0.17297,0.006 0.34593,0.0111 0.52413,0.0168 4.90891,0.29136 4.90891,0.29136 9.53004,-1.07513 0.71431,-0.90248 1.18818,-1.75714 1.50482,-2.86081 0.061,-0.20361 0.1221,-0.40723 0.185,-0.61701 0.43314,-2.01671 0.46941,-4.04763 0.48117,-6.10305 0.003,-0.2868 0.005,-0.5736 0.008,-0.86909 0.008,-0.94052 0.0149,-1.88105 0.0215,-2.82158 0.005,-0.65505 0.011,-1.3101 0.0167,-1.96516 0.0146,-1.71853 0.0277,-3.43708 0.0404,-5.15563 0.0133,-1.75587 0.028,-3.51174 0.0426,-5.2676 0.0284,-3.44113 0.0553,-6.88226 0.0811,-10.323403 -0.34925,-0.08731 -0.6985,-0.174625 -1.05833,-0.264583 0.43656,0 0.87312,0 1.32291,0 0.13097,1.964526 0.13097,1.964526 0.26459,3.968746 0.0873,-1.48431 0.17462,-2.968621 0.26458,-4.497913 z"
       fill="#63815d"
       id="path90"
       style="stroke-width:0.264583" />
    <path
       d="m 40.407152,50.232454 c 0.516262,0.480351 0.771409,0.888601 0.863945,1.591621 0.02013,0.698986 0.01566,1.394119 0.0031,2.093299 -0.0016,0.26693 -0.0032,0.53386 -0.0048,0.80888 -0.0039,0.58051 -0.0096,1.16101 -0.01694,1.74149 -0.01139,0.92417 -0.01754,1.84824 -0.02228,2.77247 -0.01453,2.62823 -0.0393,5.25635 -0.06554,7.88449 -0.0157,1.60868 -0.02595,3.21733 -0.03327,4.82607 -0.0058,0.90067 -0.01782,1.80112 -0.03004,2.70172 -0.03365,4.27074 0.31298,8.54578 1.687046,12.62163 0.541658,0.36852 0.541658,0.36852 1.190622,0.47955 1.15607,0.27964 1.15607,0.27964 1.71979,0.84336 -2.338507,0.16347 -2.338507,0.16347 -3.423042,-0.41341 -3.151135,-3.72407 -2.549191,-10.48413 -2.519743,-15.00167 6.32e-4,-0.64924 8.7e-4,-1.29849 7.36e-4,-1.94773 8.2e-4,-1.34724 0.0051,-2.69441 0.01231,-4.04163 0.0091,-1.72928 0.01101,-3.45847 0.01061,-5.18777 1.44e-4,-1.33436 0.003,-2.66872 0.0069,-4.00308 0.0017,-0.63834 0.0027,-1.27669 0.0031,-1.91503 0.0011,-0.88578 0.0058,-1.77147 0.01143,-2.65723 -2.39e-4,-0.26399 -4.78e-4,-0.52798 -7.27e-4,-0.799966 0.0023,-0.239811 0.0045,-0.479622 0.0068,-0.7267 8.86e-4,-0.208871 0.0018,-0.417742 0.0027,-0.632942 0.06807,-0.508255 0.06807,-0.508255 0.597236,-1.037422 z"
       fill="#54744f"
       id="path91"
       style="stroke-width:0.264583" />
    <path
       d="m 49.733715,7.0061534 c 0.21766,4.26e-4 0.43533,8.53e-4 0.65959,0.0013 2.38331,0.04742 5.18117,0.493864 6.94718,2.214593 1.02869,1.9671926 1.4295,3.8826826 1.32292,6.0854166 -0.17463,0.261937 -0.34925,0.523875 -0.52917,0.79375 -0.60113,-1.743277 -1.09503,-3.492643 -1.54512,-5.281331 -0.33906,-0.8881527 -0.54195,-1.1502067 -1.3653,-1.5978356 -3.35511,-1.336547 -7.30851,-1.170821 -10.68875,-0.07028 -1.116229,0.5430319 -1.621348,1.0535406 -2.05362,2.2251876 -0.07879,0.320259 -0.157572,0.640519 -0.238746,0.970483 -0.06491,0.257397 -0.06491,0.257397 -0.131128,0.519994 -0.396022,1.606881 -0.700392,3.231097 -0.987149,4.860556 -0.06207,0.248977 -0.124148,0.497954 -0.188103,0.754476 -0.261937,0.130969 -0.261937,0.130969 -0.529166,0.264583 -0.08731,7.421563 -0.174625,14.843125 -0.264584,22.489583 -0.08731,0 -0.174625,0 -0.264583,0 -0.01851,-2.992575 -0.03255,-5.985134 -0.04113,-8.977754 -0.0041,-1.39005 -0.0097,-2.78006 -0.01875,-4.170086 -0.0087,-1.344993 -0.01339,-2.689947 -0.01543,-4.034965 -0.0015,-0.509529 -0.0043,-1.019056 -0.0086,-1.528568 -0.08191,-10.04713 -0.08191,-10.04713 2.547854,-13.6008656 2.200525,-1.535254 4.763315,-1.923663 7.391795,-1.918229 z"
       fill="#5e7a56"
       id="path98"
       style="stroke-width:0.264583" />
    <path
       d="m 57.340485,51.555371 c 0.34925,0 0.6985,0 1.05833,0 0.0124,3.797223 0.0217,7.594433 0.0274,11.391663 0.003,1.76324 0.007,3.52646 0.0125,5.28968 0.006,1.70181 0.009,3.4036 0.0103,5.10542 9.8e-4,0.64906 0.003,1.29813 0.006,1.94719 0.004,0.90954 0.004,1.81903 0.004,2.72858 0.002,0.26796 0.004,0.53592 0.006,0.812 -0.004,1.42145 -0.12406,2.60222 -0.595,3.9463 -0.36363,-1.01007 -0.17985,-1.87128 0,-2.91042 -0.17463,0 -0.34925,0 -0.52917,0 0,-9.34243 0,-18.68487 0,-28.310413 z"
       fill="#88b882"
       id="path106"
       style="stroke-width:0.264583" />
    <path
       d="m 56.546735,17.688705 c 0.59448,0.594479 0.77451,1.011181 0.82631,1.850324 -3.7e-4,0.303278 -3.7e-4,0.303278 -7.4e-4,0.612684 3.6e-4,0.23262 7.3e-4,0.465241 0.001,0.704911 -0.001,0.381671 -0.001,0.381671 -0.003,0.771052 4e-5,0.268502 8e-5,0.537004 1.2e-4,0.813642 -1.9e-4,0.889035 -0.002,1.778056 -0.004,2.667089 -4.9e-4,0.615796 -8.7e-4,1.231592 -10e-4,1.847388 -0.001,1.622006 -0.004,3.244007 -0.007,4.86601 -0.003,1.654641 -0.004,3.309283 -0.005,4.963925 -0.003,3.247523 -0.007,6.495039 -0.0129,9.742558 -3.57981,0 -7.15962,0 -10.84792,0 0.0873,-0.261938 0.17463,-0.523875 0.26459,-0.79375 3.23056,0 6.46112,0 9.78958,0 0,-9.255125 0,-18.51025 0,-28.045833 z"
       fill="#4e7f49"
       id="path107"
       style="stroke-width:0.264583" />
    <path
       d="m 49.402985,26.155371 c 0.17462,0 0.34925,0 0.52917,0 0.89299,2.818894 1.78265,5.638471 2.64583,8.466667 -0.26458,0.264583 -0.26458,0.264583 -0.80467,0.29462 -0.34708,-0.0021 -0.34708,-0.0021 -0.70118,-0.0042 -0.24983,-8.47e-4 -0.49966,-0.0017 -0.75706,-0.0026 -0.26279,-0.0022 -0.52558,-0.0044 -0.79633,-0.0067 -0.26382,-0.0012 -0.52763,-0.0024 -0.79944,-0.0036 -0.65407,-0.0031 -1.3081,-0.0075 -1.96215,-0.01292 0.0803,-0.374276 0.16143,-0.74838 0.24288,-1.122412 0.0451,-0.208348 0.0902,-0.416696 0.13662,-0.631357 0.245,-1.027159 0.59805,-2.011828 0.94341,-3.008731 0.23854,-0.710565 0.47472,-1.421908 0.71107,-2.133203 0.11675,-0.350379 0.23354,-0.700746 0.35037,-1.051099 0.0863,-0.258868 0.17258,-0.517736 0.26148,-0.784448 z"
       fill="#588f4f"
       id="path118"
       style="stroke-width:0.264583" />
    <path
       d="m 44.905065,40.442871 c 1.31398,-0.0065 2.62795,-0.01133 3.94194,-0.01453 0.44735,-0.0013 0.8947,-0.0031 1.34204,-0.0054 0.64163,-0.0032 1.28325,-0.0047 1.92488,-0.0059 0.30179,-0.002 0.30179,-0.002 0.60968,-0.0041 0.48073,-5.2e-5 0.96143,0.01358 1.44188,0.02998 0.26458,0.264583 0.26458,0.264583 0.29042,0.869198 -0.003,0.242496 -0.006,0.484993 -0.009,0.734838 -0.002,0.243179 -0.005,0.486358 -0.007,0.736906 -0.003,0.187927 -0.006,0.375853 -0.009,0.569475 -1.13897,0.05257 -2.27728,0.09084 -3.4171,0.116272 -0.3871,0.0106 -0.77411,0.02502 -1.16092,0.04341 -3.19833,0.148152 -3.19833,0.148152 -4.25012,-0.612366 -0.43676,-0.551698 -0.74442,-0.994678 -0.96144,-1.663981 0.0873,-0.261938 0.17462,-0.523875 0.26458,-0.79375 z"
       fill="#699b5d"
       id="path122"
       style="stroke-width:0.264583" />
    <path
       d="m 45.698815,46.528288 c 0.0873,0.174625 0.17462,0.34925 0.26458,0.529167 3.92907,0 7.85813,0 11.90625,0 0,0.261937 0,0.523875 0,0.79375 0.17463,0 0.34925,0 0.52917,0 -0.0873,0.436562 -0.17463,0.873125 -0.26458,1.322916 -4.45294,-0.08731 -8.90588,-0.174625 -13.49375,-0.264583 0.33166,-0.829164 0.65107,-1.595823 1.05833,-2.38125 z"
       fill="#578553"
       id="path131"
       style="stroke-width:0.264583" />
    <path
       d="m 44.905065,64.255374 c 0.72571,-0.0772 1.3908,-0.10479 2.11667,-0.0961 0.31412,-2e-4 0.31412,-2e-4 0.63458,-4e-4 0.44305,6.2e-4 0.8861,0.003 1.32912,0.008 0.67946,0.006 1.35864,0.005 2.03812,0.004 0.42995,0.001 0.8599,0.003 1.28984,0.006 0.30594,-3.6e-4 0.30594,-3.6e-4 0.61805,-7.3e-4 1.43749,0.0192 1.43749,0.0192 2.02779,0.60948 0.0561,0.69258 0.0804,1.35647 0.0796,2.04948 10e-4,0.20292 0.002,0.40583 0.003,0.61489 0.002,0.42947 0.002,0.85895 5e-4,1.28842 -8.5e-4,0.65742 0.005,1.31453 0.0121,1.97191 6e-4,0.41703 7.9e-4,0.83406 5.3e-4,1.25109 0.002,0.1968 0.005,0.3936 0.007,0.59637 -0.007,0.74354 -0.0272,1.34477 -0.38029,2.00883 -0.81375,0.43 -1.63622,0.38618 -2.53441,0.37859 -0.295,10e-4 -0.295,10e-4 -0.59596,0.002 -0.41544,5.3e-4 -0.83088,-9.2e-4 -1.24631,-0.004 -0.63594,-0.004 -1.27144,-4e-5 -1.90737,0.005 -0.40377,-5.3e-4 -0.80753,-0.002 -1.2113,-0.003 -0.19018,0.002 -0.38037,0.003 -0.57632,0.005 -0.72802,-0.0103 -1.30978,-0.0398 -1.95809,-0.38766 -0.43569,-0.81281 -0.38443,-1.63474 -0.37291,-2.53382 -1.4e-4,-0.19667 -2.7e-4,-0.39334 -4e-4,-0.59596 6.1e-4,-0.41545 0.003,-0.83089 0.008,-1.24631 0.006,-0.63588 0.005,-1.27147 0.004,-1.90738 10e-4,-0.40376 0.003,-0.80753 0.006,-1.21129 -2.4e-4,-0.19019 -4.8e-4,-0.38037 -7.3e-4,-0.57632 0.0139,-0.97708 0.053,-1.40011 0.60948,-2.23488 z m 0.26458,0.52917 c -0.39082,0.78164 -0.29895,1.485 -0.29972,2.35644 -2.5e-4,0.18005 -5.1e-4,0.3601 -7.7e-4,0.54561 -1.8e-4,0.38076 3.1e-4,0.76152 10e-4,1.14227 0.001,0.58358 1e-5,1.1671 -0.002,1.75067 1.7e-4,0.36966 5.1e-4,0.73932 10e-4,1.10898 3e-4,0.33748 6e-4,0.67496 9e-4,1.02267 -0.0216,0.78307 -0.0216,0.78307 0.29882,1.33377 1.2763,0.007 2.55259,0.0113 3.8289,0.0145 0.43452,10e-4 0.86903,0.003 1.30354,0.005 0.62324,0.003 1.24647,0.005 1.86972,0.006 0.29311,0.002 0.29311,0.002 0.59214,0.004 0.46729,5e-5 0.93454,-0.0136 1.40154,-0.03 0.45109,-0.45109 0.29846,-1.01741 0.30134,-1.61899 -5.3e-4,-0.18879 -10e-4,-0.37758 -0.002,-0.57209 2.5e-4,-0.19279 5e-4,-0.38559 7.7e-4,-0.58423 1.8e-4,-0.40836 -3.2e-4,-0.81673 -10e-4,-1.22509 -10e-4,-0.62715 -1e-5,-1.25426 0.002,-1.88141 -1.7e-4,-0.39584 -5e-4,-0.79168 -0.001,-1.18752 5.3e-4,-0.18879 0.001,-0.37758 0.002,-0.57209 0.0734,-0.88474 0.0734,-0.88474 -0.30134,-1.61899 -0.667,-0.0234 -1.32671,-0.0305 -1.99368,-0.0258 -0.1993,3.7e-4 -0.3986,7.5e-4 -0.60393,10e-4 -0.63896,0.001 -1.2779,0.005 -1.91685,0.008 -0.43218,10e-4 -0.86437,0.003 -1.29656,0.004 -1.06161,0.003 -2.12321,0.007 -3.18482,0.0129 z"
       fill="#4b7d45"
       id="path135"
       style="stroke-width:0.264583" />
    <path
       d="m 40.936319,17.424122 c 0.08731,0 0.174625,0 0.264583,0 0.08731,2.270125 0.174625,4.54025 0.264584,6.879167 0.08731,0 0.174625,0 0.264583,0 0.08731,-1.833563 0.174625,-3.667125 0.264583,-5.55625 0.08731,0 0.174625,0 0.264584,0 0,7.159625 0,14.319249 0,21.695833 -0.436563,0 -0.873125,0 -1.322917,0 0,-7.596188 0,-15.192375 0,-23.01875 z"
       fill="#77a373"
       id="path136"
       style="stroke-width:0.264583" />
    <path
       d="m 48.770535,14.993843 c 0.57829,-5.77e-4 1.15645,-0.0054 1.73471,-0.0104 4.33796,-0.01793 4.33796,-0.01793 6.04149,1.117761 0.0496,0.694532 0.0496,0.694532 0,1.322917 -0.17462,0 -0.34925,0 -0.52916,0 -0.0638,-0.167804 -0.12756,-0.335607 -0.19327,-0.508496 -0.28464,-0.582954 -0.28464,-0.582954 -0.82889,-0.768945 -3.7349,-0.643333 -7.70581,-0.551271 -11.413258,0.219108 -0.6269,2.483403 -0.621498,4.933617 -0.638721,7.476546 -0.005,0.46485 -0.01014,0.929699 -0.01553,1.394545 -0.0135,1.215262 -0.02403,2.430532 -0.0339,3.645829 -0.01064,1.243402 -0.02414,2.486773 -0.03739,3.73015 -0.02551,2.433593 -0.04787,4.867204 -0.06821,7.300846 -0.174625,0 -0.34925,0 -0.529166,0 -0.01226,-2.909425 -0.02166,-5.818844 -0.02742,-8.728289 -0.0028,-1.350979 -0.0065,-2.701939 -0.0125,-4.052907 -0.0057,-1.303804 -0.0089,-2.607589 -0.01029,-3.911404 -9.79e-4,-0.49738 -0.0029,-0.994759 -0.0057,-1.492132 -0.0038,-0.696751 -0.0044,-1.393433 -0.0041,-2.090193 -0.0019,-0.205538 -0.0038,-0.411076 -0.0058,-0.622842 0.0041,-1.087204 0.08467,-1.946046 0.595005,-2.914733 1.56672,-1.512695 3.95691,-1.107587 5.98213,-1.107361 z"
       fill="#4b7a44"
       id="path139"
       style="stroke-width:0.264583" />
    <path
       d="m 47.319395,23.174675 c 0.18592,-5.06e-4 0.37185,-0.001 0.5634,-0.0015 0.39322,-3.6e-4 0.78644,6.17e-4 1.17965,0.0028 0.60279,0.0028 1.20537,2.7e-5 1.80815,-0.0034 0.38172,3.5e-4 0.76344,0.001 1.14515,0.0021 0.34857,5.97e-4 0.69714,0.0012 1.05627,0.0018 0.82889,0.06847 0.82889,0.06847 1.35806,0.597638 0.0496,0.677994 0.0496,0.677994 0,1.322916 -0.26459,0.264584 -0.26459,0.264584 -1.15859,0.290422 -0.36898,-0.0018 -0.73795,-0.0049 -1.10691,-0.0093 -0.18809,-0.0012 -0.37619,-0.0024 -0.56999,-0.0036 -0.46596,-0.0031 -0.9319,-0.0079 -1.39785,-0.01292 -0.0873,-0.34925 -0.17462,-0.6985 -0.26458,-1.058334 -0.17462,0 -0.34925,0 -0.52917,0 -0.0873,0.436563 -0.17462,0.873125 -0.26458,1.322917 -0.60627,0.01425 -1.21263,0.02453 -1.81901,0.03307 -0.50648,0.0092 -0.50648,0.0092 -1.02319,0.0186 -0.86197,-0.05168 -0.86197,-0.05168 -1.39113,-0.580843 -0.0661,-0.661458 -0.0661,-0.661458 0,-1.322916 0.76846,-0.768461 1.34079,-0.597609 2.41432,-0.599447 z"
       fill="#629659"
       id="path149"
       style="stroke-width:0.264583" />
    <path
       d="m 41.730069,52.084538 c 0.08731,0 0.174625,0 0.264583,0 0,8.818566 0,17.637126 0,26.722916 -0.392906,0.13097 -0.392906,0.13097 -0.79375,0.26458 0,-7.59618 0,-15.19237 0,-23.01875 0.174625,0 0.34925,0 0.529167,0 0,-1.30968 0,-2.61937 0,-3.968746 z"
       fill="#88b383"
       id="path156"
       style="stroke-width:0.264583" />
    <path
       d="m 47.187105,53.037454 c 0.295,-10e-4 0.295,-10e-4 0.59596,-0.002 0.41544,-5.4e-4 0.83088,9.2e-4 1.2463,0.004 0.63595,0.004 1.27145,4e-5 1.90738,-0.005 0.40377,5.2e-4 0.80753,0.002 1.2113,0.003 0.19018,-0.002 0.38037,-0.003 0.57632,-0.005 0.74298,0.0105 1.31064,0.0336 1.95925,0.41486 0.39838,0.70704 0.36497,1.26332 0.35314,2.07151 -0.004,0.46172 -0.004,0.46172 -0.008,0.93276 -0.007,0.32146 -0.0133,0.64291 -0.0202,0.9741 -0.005,0.48679 -0.005,0.48679 -0.0108,0.9834 -0.009,0.80231 -0.0224,1.60439 -0.0388,2.40658 -0.0873,0 -0.17462,0 -0.26458,0 -0.007,-0.19098 -0.0133,-0.38195 -0.0201,-0.57871 -0.0306,-0.85997 -0.0631,-1.71986 -0.0957,-2.57976 -0.0104,-0.30065 -0.0208,-0.60129 -0.0315,-0.91105 -0.0111,-0.28564 -0.0222,-0.57129 -0.0336,-0.86558 -0.0145,-0.39697 -0.0145,-0.39697 -0.0294,-0.80196 0.0127,-0.60254 0.0127,-0.60254 -0.3189,-0.87753 -0.64469,-0.0267 -1.28171,-0.037 -1.9265,-0.0351 -0.1928,-2.5e-4 -0.3856,-5e-4 -0.58424,-7.6e-4 -0.40836,-1.8e-4 -0.81672,3.1e-4 -1.22508,10e-4 -0.62716,0.001 -1.25426,1e-5 -1.88141,-0.002 -0.39584,1.7e-4 -0.79169,5.1e-4 -1.18753,10e-4 -0.18879,-5.3e-4 -0.37758,-10e-4 -0.57209,-0.002 -0.88473,-0.0734 -0.88473,-0.0734 -1.61899,0.30135 -0.0232,0.52907 -0.0283,1.05896 -0.0258,1.58853 8.6e-4,0.32145 0.002,0.64291 0.003,0.9741 0.002,0.33851 0.004,0.67701 0.007,1.02578 0.001,0.33953 0.002,0.67906 0.004,1.02888 0.003,0.84216 0.008,1.68431 0.0129,2.52646 2.27013,0 4.54025,0 6.87917,0 0,0.17462 0,0.34925 0,0.52916 -1.17959,0.0153 -2.35915,0.0247 -3.5388,0.0331 -0.33629,0.004 -0.67258,0.009 -1.01906,0.0134 -0.3206,0.002 -0.6412,0.003 -0.97152,0.005 -0.29651,0.003 -0.59302,0.006 -0.89852,0.008 -0.71585,-0.0601 -0.71585,-0.0601 -1.24502,-0.58924 -0.1053,-1.08947 -0.0871,-2.1804 -0.0835,-3.27455 8.5e-4,-0.54246 -0.005,-1.08454 -0.0121,-1.62696 -1.7e-4,-0.34124 -3.4e-4,-0.68247 -5.3e-4,-1.03405 -7.9e-4,-0.31393 -0.002,-0.62786 -0.002,-0.9513 0.0985,-0.78606 0.0985,-0.78606 0.3753,-1.28493 0.80787,-0.46082 1.62936,-0.40795 2.53441,-0.4003 z"
       fill="#4a7d43"
       id="path160"
       style="stroke-width:0.264583" />
    <path
       d="m 40.936319,51.290788 c 0.654844,0.261937 0.654844,0.261937 1.322917,0.529167 0,8.120059 0,16.240129 0,24.606249 -0.08731,0 -0.174625,0 -0.264584,0 -0.08731,-6.72306 -0.174625,-13.44612 -0.264583,-20.37292 -0.174625,0 -0.34925,0 -0.529167,0 0,7.77082 0,15.54163 0,23.54792 -0.08731,0 -0.174625,0 -0.264583,0 0,-9.34244 0,-18.68487 0,-28.310416 z"
       fill="#719a6c"
       id="path172"
       style="stroke-width:0.264583" />
    <path
       d="m 44.111315,83.834534 c 3.92906,0 7.85812,0 11.90625,0 0.4235,0.84701 0.39294,1.7266 0.26458,2.64583 -0.7779,1.01465 -2.23682,1.12684 -3.43958,1.32292 -1.00447,0.0774 -2.00254,0.086 -3.00964,0.0827 -0.25511,0.004 -0.51023,0.009 -0.77307,0.0129 -1.81924,0.001 -3.50567,-0.23484 -5.21312,-0.88935 -0.52917,-0.52917 -0.52917,-0.52917 -0.562243,-1.2237 0.01091,-0.20737 0.02183,-0.41473 0.03307,-0.62838 0.174625,-0.0873 0.34925,-0.17463 0.529173,-0.26459 0.0873,0.43657 0.17462,0.87313 0.26458,1.32292 2.25325,0.57355 4.40466,0.87737 6.73034,0.89297 0.32832,0.005 0.32832,0.005 0.66327,0.0109 1.4952,-0.0108 2.61163,-0.30846 3.98347,-0.90382 0,-0.61119 0,-1.22238 0,-1.85208 -0.25769,0.0431 -0.51539,0.0862 -0.78089,0.13067 -1.13409,0.16126 -2.24982,0.16738 -3.39353,0.15975 -0.21467,-3.8e-4 -0.42934,-7.5e-4 -0.65051,-10e-4 -0.67924,-0.001 -1.35846,-0.005 -2.0377,-0.008 -0.46319,-10e-4 -0.92638,-0.003 -1.38958,-0.004 -1.12982,-0.003 -2.25963,-0.007 -3.38945,-0.0129 0.0873,-0.26194 0.17462,-0.52388 0.26458,-0.79375 z"
       fill="#507f46"
       id="path176"
       style="stroke-width:0.264583" />
    <path
       d="m 40.142569,40.707455 c 0.634222,-0.02872 1.267131,-0.04962 1.901693,-0.06615 0.178206,-0.0089 0.356412,-0.01774 0.540018,-0.02687 0.964505,-0.01882 1.473745,0.05804 2.287715,0.592212 1.051,1.045205 1.41174,1.78782 1.48828,3.271118 -0.0386,1.592664 -0.6171,2.589741 -1.45521,3.902605 -0.0982,0.245566 -0.19645,0.491132 -0.29765,0.74414 -0.25501,0.637508 -0.59316,1.106802 -1.025263,1.63711 0.174625,0.08731 0.349253,0.174625 0.529163,0.264583 -1.396996,0.79375 -1.396996,0.79375 -2.149736,0.79375 -1.527481,-0.814657 -2.486074,-2.957258 -3.141927,-4.497917 0.08731,-0.261937 0.174625,-0.523875 0.264584,-0.79375 0.162687,0.261256 0.325375,0.522511 0.492993,0.791683 0.215922,0.342497 0.431934,0.684936 0.648022,1.027328 0.106924,0.172237 0.213848,0.344475 0.324012,0.521932 0.51925,0.81898 0.89308,1.347796 1.709973,1.892391 2.061399,-2.253163 3.168389,-3.950251 3.035469,-7.109644 -0.0799,-0.874732 -0.0799,-0.874732 -0.63768,-1.704289 -1.064646,-0.58664 -1.977284,-0.790546 -3.191539,-0.711067 -0.765288,0.291248 -0.765288,0.291248 -1.322917,0.79375 -0.204127,0.160129 -0.204127,0.160129 -0.412378,0.323494 -0.539788,0.665593 -0.57794,1.265893 -0.695565,2.107365 -0.04195,0.287517 -0.0839,0.575035 -0.127124,0.871265 -0.02899,0.219986 -0.05798,0.439973 -0.08785,0.666626 -0.08731,0 -0.174625,0 -0.264583,0 -0.02875,-0.545392 -0.04918,-1.091225 -0.06615,-1.63711 -0.01228,-0.303888 -0.02456,-0.607777 -0.03721,-0.920874 0.122891,-1.048257 0.416749,-1.471995 1.161686,-2.204516 0.174625,0 0.34925,0 0.529167,0 0,-0.174625 0,-0.34925 0,-0.529167 z"
       fill="#5a4833"
       id="path177"
       style="stroke-width:0.264583" />
    <path
       d="m 58.663405,15.836622 c 0.0873,0 0.17462,0 0.26458,0 0.305,1.45368 0.3001,2.864773 0.29462,4.342241 4e-5,0.273779 8e-5,0.547558 1.2e-4,0.829633 -1.8e-4,0.9019 -0.002,1.803784 -0.004,2.705681 -4.9e-4,0.626526 -8.7e-4,1.253051 -10e-4,1.879577 -0.001,1.646788 -0.004,3.29357 -0.007,4.940356 -0.003,1.681313 -0.004,3.362627 -0.005,5.043942 -0.003,3.297304 -0.007,6.594603 -0.0129,9.891903 -0.17463,0 -0.34925,0 -0.52917,0 -0.0407,-3.824624 -0.0798,-7.649262 -0.1172,-11.47392 -0.0174,-1.775737 -0.0353,-3.551466 -0.0543,-5.327186 -0.0184,-1.712079 -0.0353,-3.424169 -0.0515,-5.136271 -0.006,-0.654813 -0.0133,-1.309622 -0.0206,-1.964426 -0.0101,-0.913643 -0.0187,-1.827287 -0.0268,-2.74095 -0.003,-0.273669 -0.007,-0.547337 -0.0104,-0.829298 -0.002,-0.247477 -0.004,-0.494954 -0.006,-0.74993 -0.002,-0.216331 -0.004,-0.432663 -0.007,-0.65555 0.0284,-0.491219 0.0284,-0.491219 0.29301,-0.755802 z"
       fill="#52704b"
       id="path178"
       style="stroke-width:0.264583" />
    <path
       d="m 47.212935,39.527164 c 0.19629,2.42e-4 0.39258,4.85e-4 0.59482,7.35e-4 0.41388,0.0016 0.82774,0.0058 1.24157,0.01231 0.63356,0.0097 1.26671,0.01085 1.90033,0.01072 0.40257,0.0026 0.80513,0.0057 1.20768,0.0093 0.18936,5.89e-4 0.37871,0.0012 0.57381,0.0018 0.97314,0.0186 1.39673,0.06203 2.22809,0.616266 0.0775,0.804085 0.0775,0.804085 0.0496,1.752864 -0.0107,0.471693 -0.0107,0.471693 -0.0217,0.952914 -0.009,0.242156 -0.0184,0.484312 -0.0279,0.733805 -1.0316,0.695987 -2.12968,0.598486 -3.32383,0.578776 -0.21142,-0.0017 -0.42283,-0.0034 -0.64066,-0.0052 -1.5976,-0.02064 -3.18032,-0.11334 -4.76676,-0.309025 0,-0.174625 0,-0.34925 0,-0.529167 2.70669,0 5.41337,0 8.20208,0 -0.0873,-0.873125 -0.17462,-1.74625 -0.26458,-2.645833 -1.30914,-0.01306 -2.61823,-0.02268 -3.92741,-0.02907 -0.44555,-0.0027 -0.89108,-0.0063 -1.33661,-0.01085 -0.63968,-0.0064 -1.2793,-0.0094 -1.91901,-0.01176 -0.29974,-0.0041 -0.29974,-0.0041 -0.60554,-0.0083 -0.49102,-1.06e-4 -0.98189,0.02761 -1.47185,0.05995 -0.17462,0.174625 -0.34925,0.34925 -0.52917,0.529166 -0.0873,-0.174625 -0.17462,-0.34925 -0.26458,-0.529166 0.89388,-1.161255 1.72021,-1.208108 3.10162,-1.18029 z"
       fill="#4d7e47"
       id="path181"
       style="stroke-width:0.264583" />
    <path
       d="m 42.788402,8.6928724 c 0.08731,0.174625 0.174625,0.34925 0.264583,0.529167 -0.248047,0.5622389 -0.248047,0.5622389 -0.529166,1.0583326 -0.174625,0 -0.34925,0 -0.529167,0 0.05628,0.238063 0.112551,0.476126 0.170532,0.721403 0.213874,1.502795 -0.196065,2.941845 -0.517798,4.404899 -0.05986,0.292292 -0.119713,0.584584 -0.181384,0.885734 -0.340527,1.595668 -0.340527,1.595668 -0.529683,2.190047 -0.261938,0.130969 -0.261938,0.130969 -0.529167,0.264584 -0.08731,7.421562 -0.174625,14.843124 -0.264583,22.489583 -0.08731,0 -0.174625,0 -0.264584,0 -0.01851,-2.992575 -0.03255,-5.985135 -0.04113,-8.977755 -0.0041,-1.390049 -0.0097,-2.780059 -0.01875,-4.170086 -0.0087,-1.344992 -0.01339,-2.689947 -0.01543,-4.034965 -0.0015,-0.509529 -0.0043,-1.019055 -0.0086,-1.528568 -0.0859,-10.536958 -0.0859,-10.536958 2.499279,-13.3972596 0.245055,-0.215383 0.245055,-0.215383 0.49506,-0.435116 z"
       fill="#70856d"
       id="path182"
       style="stroke-width:0.264583" />
    <path
       d="m 46.492565,35.415788 c 0.96462,-0.0076 1.92924,-0.01237 2.89388,-0.01654 0.41311,-0.0033 0.41311,-0.0033 0.83457,-0.0067 0.26177,-8.53e-4 0.52354,-0.0017 0.79324,-0.0026 0.36371,-0.0021 0.36371,-0.0021 0.73477,-0.0042 0.56437,0.03004 0.56437,0.03004 0.82896,0.29462 0,0.6985 0,1.397 0,2.116667 -2.0955,0 -4.191,0 -6.35,0 0.0873,-0.785813 0.17462,-1.571625 0.26458,-2.38125 z"
       fill="#578e4f"
       id="path188"
       style="stroke-width:0.264583" />
    <path
       d="m 51.784235,65.578284 c 0.61119,0 1.22237,0 1.85208,0 0.007,1.05021 0.0113,2.10042 0.0145,3.15065 10e-4,0.35751 0.003,0.71503 0.005,1.07254 0.003,0.51291 0.005,1.02582 0.006,1.53873 0.001,0.30899 0.003,0.61797 0.004,0.93631 -0.03,0.7101 -0.03,0.7101 -0.29462,0.97469 -0.66146,0.0331 -0.66146,0.0331 -1.32292,0 -0.26458,-0.26459 -0.26458,-0.26459 -0.29462,-0.97469 10e-4,-0.30898 0.003,-0.61796 0.004,-0.93631 8.5e-4,-0.33339 0.002,-0.66678 0.003,-1.01027 0.002,-0.35467 0.004,-0.70935 0.007,-1.06402 0.001,-0.35571 0.003,-0.71141 0.004,-1.06712 0.003,-0.87351 0.007,-1.74701 0.0129,-2.62051 z"
       fill="#568a51"
       id="path195"
       style="stroke-width:0.264583" />
    <path
       d="m 58.134235,84.099124 c 0.17462,0.0873 0.34925,0.17462 0.52917,0.26458 -0.12277,1.78011 -0.46555,2.90396 -1.81901,4.16719 -2.77474,1.6322 -6.45894,1.15486 -9.55808,1.12448 0,-0.0873 0,-0.17463 0,-0.26458 -0.43656,-0.0873 -0.87312,-0.17463 -1.32291,-0.26459 0,-0.17462 0,-0.34925 0,-0.52916 0.25944,0.008 0.25944,0.008 0.52413,0.0168 4.9089,0.29137 4.9089,0.29137 9.53003,-1.07513 0.79423,-1.02056 1.19043,-1.95542 1.5875,-3.175 0.17463,-0.0873 0.34925,-0.17462 0.52917,-0.26458 z"
       fill="#607d55"
       id="path197"
       style="stroke-width:0.264583" />
    <path
       d="m 44.375905,49.438704 c 0.56587,-0.09545 0.56587,-0.09545 1.27447,-0.09011 0.26482,6e-5 0.52964,1.2e-4 0.80248,1.82e-4 0.42996,0.0061 0.42996,0.0061 0.86861,0.01241 0.43933,0.0017 0.43933,0.0017 0.88753,0.0034 0.93825,0.0045 1.87636,0.01442 2.81457,0.0245 0.63492,0.004 1.26986,0.0076 1.90479,0.01085 1.55896,0.0088 3.11783,0.02206 4.67672,0.03876 -0.0873,0.261937 -0.17463,0.523875 -0.26459,0.79375 -4.45293,0 -8.90587,0 -13.49375,0 0.17463,-0.261938 0.34925,-0.523875 0.52917,-0.79375 z"
       fill="#4a7946"
       id="path229"
       style="stroke-width:0.264583" />
    <path
       d="m 58.663405,14.249122 c 0.9901,1.716168 0.83045,3.652624 0.82379,5.57059 4e-5,0.291843 7e-5,0.583687 1.1e-4,0.884374 -1.8e-4,0.962028 -0.002,1.924042 -0.004,2.886068 -5e-4,0.66805 -8.7e-4,1.336099 -0.001,2.004149 -9e-4,1.577 -0.003,3.153996 -0.006,4.730994 -0.003,1.796097 -0.004,3.592195 -0.006,5.388294 -0.003,3.693096 -0.007,7.386189 -0.0133,11.079281 -0.0873,0 -0.17463,0 -0.26458,0 -0.002,-0.225208 -0.002,-0.225208 -0.003,-0.454967 -0.0273,-3.654719 -0.0561,-7.309424 -0.0864,-10.964119 -0.0146,-1.767389 -0.0287,-3.534779 -0.0418,-5.30218 -0.0126,-1.705244 -0.0265,-3.410473 -0.0412,-5.115699 -0.005,-0.650977 -0.0103,-1.301957 -0.0148,-1.95294 -0.006,-0.910915 -0.0143,-1.821802 -0.0226,-2.732701 -0.002,-0.269863 -0.003,-0.539726 -0.005,-0.817767 -0.003,-0.248932 -0.005,-0.497864 -0.008,-0.754339 -0.002,-0.215356 -0.003,-0.430712 -0.005,-0.652593 -0.0569,-0.963563 -0.26111,-1.823869 -0.56585,-2.738112 0.11575,-0.578776 0.11575,-0.578776 0.26458,-1.058333 z m -0.52917,1.852083 c 0.0873,0 0.17463,0 0.26459,0 0,0.611188 0,1.222375 0,1.852084 -0.0873,0 -0.17463,0 -0.26459,0 0,-0.611188 0,-1.222375 0,-1.852084 z"
       fill="#72816a"
       id="path247"
       style="stroke-width:0.264583" />
    <path
       d="m 43.052986,86.215784 c 0.526066,0.19637 0.526066,0.19637 1.141019,0.49609 1.69434,0.82272 3.30466,0.89129 5.15937,0.97565 0.3507,0.0171 0.3507,0.0171 0.70849,0.0346 0.57408,0.0279 1.14822,0.0547 1.72237,0.0811 0,0.0873 0,0.17462 0,0.26458 -1.57162,0 -3.14325,0 -4.7625,0 0,0.17463 0,0.34925 0,0.52917 -0.34925,0 -0.6985,0 -1.05833,0 0,0.17462 0,0.34925 0,0.52917 0.52387,0 1.04775,0 1.5875,0 0,0.0873 0,0.17462 0,0.26458 2.0955,0 4.191,0 6.35,0 0,0.0873 0,0.17462 0,0.26458 -3.42746,0.87646 -7.31874,0.43528 -10.583336,-0.79375 0.793746,-0.52916 0.793746,-0.52916 1.852086,-0.52916 -0.16883,-0.0672 -0.33766,-0.13438 -0.5116,-0.20361 -0.21862,-0.0911 -0.43724,-0.18213 -0.66249,-0.27595 -0.21794,-0.089 -0.435881,-0.17804 -0.660426,-0.26975 -0.546736,-0.30903 -0.546736,-0.30903 -0.81132,-1.10278 0.174625,-0.0873 0.34925,-0.17462 0.529167,-0.26458 z"
       fill="#7da872"
       id="path254"
       style="stroke-width:0.264583" />
    <path
       d="m 41.200902,80.924124 c 0.08731,0 0.174625,0 0.264583,0 0.05116,0.30321 0.10232,0.60641 0.15503,0.91881 0.06954,0.4048 0.139131,0.8096 0.208772,1.21439 0.05014,0.29852 0.05014,0.29852 0.101286,0.60307 0.101984,0.58895 0.212523,1.17533 0.328662,1.76165 0.03402,0.17959 0.06804,0.35918 0.103095,0.54421 0.115282,0.56076 0.115282,0.56076 0.426072,1.30787 0.541658,0.36853 0.541658,0.36853 1.190623,0.47956 1.15607,0.27963 1.15607,0.27963 1.71979,0.84336 -2.338508,0.16347 -2.338508,0.16347 -3.423043,-0.41341 -1.438308,-1.69982 -1.86862,-4.0192 -1.86862,-6.20118 0.174625,0 0.34925,0 0.529167,0 0.08731,-0.34925 0.174625,-0.6985 0.264583,-1.05833 z"
       fill="#627b58"
       id="path270"
       style="stroke-width:0.264583" />
    <path
       d="m 40.407152,50.232454 c 0.174625,0.261937 0.34925,0.523875 0.529167,0.79375 -0.261938,0.130969 -0.261938,0.130969 -0.529167,0.264583 -0.08731,9.517067 -0.174625,19.034127 -0.264583,28.839587 -0.08731,0 -0.174625,0 -0.264584,0 -0.01235,-3.82007 -0.02165,-7.64013 -0.02742,-11.46021 -0.0027,-1.77366 -0.0065,-3.5473 -0.0125,-5.32094 -0.0057,-1.71038 -0.0089,-3.42074 -0.01029,-5.13113 -9.81e-4,-0.65385 -0.0029,-1.3077 -0.0057,-1.96155 -0.0038,-0.91298 -0.0044,-1.82591 -0.0041,-2.73889 -0.0019,-0.27272 -0.0038,-0.54543 -0.0058,-0.826415 7.28e-4,-0.247841 0.0015,-0.495681 0.0022,-0.751032 -4.87e-4,-0.216088 -9.76e-4,-0.432175 -0.0015,-0.654811 0.06511,-0.523775 0.06511,-0.523775 0.594281,-1.052942 z"
       fill="#82947d"
       id="path285"
       style="stroke-width:0.264583" />
    <path
       d="m 42.523819,77.749124 c 0.08731,0 0.174625,0 0.264583,0 0.174625,0.96044 0.34925,1.92087 0.529167,2.91042 0.924296,0.30809 1.723586,0.34318 2.697506,0.39687 0.18703,0.0107 0.37406,0.0215 0.56676,0.0326 0.59858,0.0343 1.19722,0.0671 1.79589,0.0997 0.78346,0.0433 1.56688,0.0873 2.35024,0.13229 0.28018,0.0161 0.28018,0.0161 0.56601,0.0325 1.31718,0.0786 2.62106,0.19819 3.92984,0.36438 0,0.0873 0,0.17462 0,0.26458 -1.4733,0.0197 -2.94654,0.0341 -4.41995,0.0436 -0.50067,0.004 -1.00133,0.009 -1.50197,0.0163 -0.72184,0.01 -1.44355,0.0142 -2.16544,0.0176 -0.22194,0.004 -0.44387,0.008 -0.67254,0.0124 -1.4269,4.1e-4 -2.40535,-0.22392 -3.675513,-0.88368 -0.264583,-0.26458 -0.264583,-0.26458 -0.290421,-0.98495 0.0031,-0.29161 0.0061,-0.58322 0.0093,-0.88367 0.0024,-0.29229 0.0048,-0.58458 0.0072,-0.88573 0.0031,-0.22613 0.0061,-0.45225 0.0093,-0.68523 z"
       fill="#507f46"
       id="path287"
       style="stroke-width:0.264583" />
    <path
       d="m 55.223815,54.201204 c 0.023,1.12444 0.0371,2.24883 0.0496,3.37344 0.007,0.31923 0.0133,0.63847 0.0202,0.96738 0.003,0.30696 0.005,0.61392 0.008,0.93018 0.004,0.28265 0.008,0.56531 0.0126,0.85653 -0.10161,0.84759 -0.28877,1.20701 -0.88386,1.80997 -0.59841,0.10335 -0.59841,0.10335 -1.24023,0.0661 -0.21385,-0.01 -0.4277,-0.0191 -0.64803,-0.0289 -0.24403,-0.0184 -0.24403,-0.0184 -0.49299,-0.0372 0,-0.17463 0,-0.34925 0,-0.52917 -2.27012,0 -4.54025,0 -6.87917,0 0,-0.0873 0,-0.17462 0,-0.26458 2.96863,-0.0873 5.93725,-0.17463 8.99584,-0.26458 0.0873,-2.18282 0.17462,-4.36563 0.26458,-6.61459 0.52917,-0.26458 0.52917,-0.26458 0.79375,-0.26458 z"
       fill="#54864d"
       id="path295"
       style="stroke-width:0.264583" />
    <path
       d="m 47.572605,7.4019944 c 0.24642,0.01279 0.49284,0.02558 0.74672,0.03876 0.25393,0.01484 0.50785,0.02967 0.76947,0.04496 0.25903,0.01381 0.51807,0.02763 0.78496,0.04186 0.63692,0.03418 1.27372,0.06988 1.91048,0.10697 0,0.08731 0,0.174625 0,0.264583 -0.42718,0.03888 -0.42718,0.03888 -0.863,0.07855 -4.49171,0.301629 -4.49171,0.301629 -8.132834,2.5672856 -0.331883,0.696444 -0.331883,0.696444 -0.529167,1.322916 -0.08731,0 -0.174625,0 -0.264583,0 0,-0.523875 0,-1.04775 0,-1.5875 0.174625,0 0.34925,0 0.529167,0 0.04911,-0.2892217 0.09823,-0.5784447 0.148828,-0.8764316 0.380338,-0.975651 0.380338,-0.975651 1.256769,-1.471745 1.26123,-0.384783 2.32447,-0.603013 3.64319,-0.5302 z"
       fill="#58794f"
       id="path297"
       style="stroke-width:0.264583" />
    <path
       d="m 55.488405,8.9574554 c 1.24249,0.354997 1.98542,1.0272319 2.64583,2.1166666 0.55283,1.379208 0.6288,2.763821 0.52917,4.233333 -0.17463,0.261937 -0.34925,0.523875 -0.52917,0.79375 -0.59836,-1.735256 -1.10234,-3.480594 -1.57096,-5.255493 -0.26444,-0.780675 -0.53891,-1.2715987 -1.07487,-1.8882566 z"
       fill="#617d59"
       id="path328"
       style="stroke-width:0.264583" />
    <path
       d="m 45.169655,47.586621 c 0.0873,0.174625 0.17462,0.34925 0.26458,0.529167 0.32045,-0.0042 0.32045,-0.0042 0.64738,-0.0084 0.9638,-0.01097 1.92759,-0.01787 2.89143,-0.02467 0.50443,-0.0067 0.50443,-0.0067 1.01905,-0.01344 0.32061,-0.0017 0.64121,-0.0034 0.97152,-0.0052 0.29651,-0.0028 0.59303,-0.0055 0.89853,-0.0084 0.71584,0.06007 0.71584,0.06007 1.24501,0.58924 -0.26458,0.264584 -0.26458,0.264584 -1.04755,0.294621 -0.34223,-0.0014 -0.68447,-0.0028 -1.03708,-0.0042 -0.27252,-5.62e-4 -0.27252,-5.62e-4 -0.55054,-0.0011 -0.58234,-0.0015 -1.16466,-0.0048 -1.74699,-0.0082 -0.39395,-0.0013 -0.78789,-0.0025 -1.18184,-0.0036 -0.96757,-0.0029 -1.93511,-0.0075 -2.90267,-0.01292 0.17463,-0.436563 0.34925,-0.873125 0.52917,-1.322917 z"
       fill="#4b7646"
       id="path333"
       style="stroke-width:0.264583" />
    <path
       d="m 45.698815,46.528288 c 0.0873,0.174625 0.17462,0.34925 0.26458,0.529167 3.57982,0 7.15963,0 10.84792,0 0,0.174625 0,0.34925 0,0.529166 -3.75444,0 -7.50888,0 -11.37708,0 0.0873,-0.34925 0.17462,-0.6985 0.26458,-1.058333 z"
       fill="#4b7847"
       id="path345"
       style="stroke-width:0.264583" />
    <path
       d="m 38.819652,46.528288 c 1.001998,0.930581 1.595939,1.926825 2.25826,3.110921 0.376264,0.66084 0.376264,0.66084 1.181323,1.122412 0.34925,-0.34925 0.6985,-0.6985 1.058334,-1.058333 0.261937,0.08731 0.523876,0.174625 0.793746,0.264583 -0.26193,0.392907 -0.26193,0.392907 -0.529163,0.79375 0.174625,0.08731 0.349253,0.174625 0.529163,0.264584 -1.396996,0.79375 -1.396996,0.79375 -2.149736,0.79375 -1.55314,-0.828342 -2.4273,-2.959088 -3.141927,-4.497917 0,-0.261938 0,-0.523875 0,-0.79375 z m 5.556253,2.38125 c 0,0.79375 0,0.79375 0,0.79375 z"
       fill="#5e4e3d"
       id="path347"
       style="stroke-width:0.264583" />
    <path
       d="m 45.169655,22.451205 c 1.22407,-0.0262 2.44797,-0.04539 3.67226,-0.05814 0.41628,-0.0053 0.83254,-0.01253 1.24876,-0.0217 0.59902,-0.01287 1.19778,-0.01885 1.79692,-0.02351 0.18552,-0.0055 0.37104,-0.01093 0.56219,-0.01655 0.89173,-4.08e-4 1.3718,0.06166 2.09888,0.595587 0.59027,0.83766 0.53991,1.436999 0.41057,2.434735 -0.99618,0.664119 -1.69191,0.536 -2.82773,0.429948 -0.18571,-0.01501 -0.37142,-0.03001 -0.56276,-0.04548 -0.45755,-0.03735 -0.91482,-0.07828 -1.37201,-0.119889 0,-0.08731 0,-0.174625 0,-0.264583 1.30969,-0.08731 2.61938,-0.174625 3.96875,-0.264584 0.0986,-1.322916 0.0986,-1.322916 -0.52916,-2.38125 -2.794,0 -5.588,0 -8.46667,0 0,-0.08731 0,-0.174625 0,-0.264584 z"
       fill="#4f834a"
       id="path369"
       style="stroke-width:0.264583" />
    <path
       d="m 48.609235,9.2220384 c 2.53012,-0.110182 5.2297,-0.129506 7.40833,1.3229166 0.0775,0.572575 0.0775,0.572575 0.0496,1.223698 -0.007,0.216235 -0.0143,0.432469 -0.0217,0.655257 -0.009,0.165757 -0.0184,0.331514 -0.0279,0.502295 -0.17462,0 -0.34925,0 -0.52916,0 -0.0873,-0.6985 -0.17463,-1.397 -0.26459,-2.116667 -1.4895,-0.481006 -2.92569,-0.682493 -4.48138,-0.8268227 -0.34712,-0.03428 -0.34712,-0.03428 -0.70125,-0.06925 -0.56536,-0.05561 -1.13093,-0.109151 -1.69653,-0.162264 0.0873,-0.174625 0.17462,-0.3492499 0.26458,-0.5291669 z"
       fill="#467542"
       id="path371"
       style="stroke-width:0.264583" />
    <path
       d="m 49.502205,12.363965 c 0.2367,-10e-4 0.4734,-0.002 0.71727,-0.0031 1.51209,0.0022 2.97531,0.10831 4.47518,0.300757 -1.00236,0.668236 -1.79529,0.596349 -2.95486,0.580843 -0.31544,-0.0011 -0.31544,-0.0011 -0.63726,-0.0023 -0.67128,-0.003 -1.34248,-0.0096 -2.01374,-0.01633 -0.45527,-0.0027 -0.91054,-0.0051 -1.36581,-0.0072 -1.11573,-0.0058 -2.23139,-0.01497 -3.34708,-0.02584 1.19053,-1.190529 3.53949,-0.833624 5.1263,-0.826823 z"
       fill="#4a7a43"
       id="path379"
       style="stroke-width:0.264583" />
    <path
       d="m 51.784235,65.578284 c 0.34925,0.0873 0.6985,0.17462 1.05833,0.26458 -0.17462,0 -0.34925,0 -0.52916,0 0,2.27013 0,4.54025 0,6.87917 0.34925,0.17462 0.6985,0.34925 1.05833,0.52917 -0.44083,0.0113 -0.88208,0.0108 -1.32292,0 -0.26458,-0.26459 -0.26458,-0.26459 -0.29462,-0.97469 10e-4,-0.30898 0.003,-0.61796 0.004,-0.93631 8.5e-4,-0.33339 0.002,-0.66678 0.003,-1.01027 0.002,-0.35467 0.004,-0.70935 0.007,-1.06402 0.001,-0.35571 0.003,-0.71141 0.004,-1.06712 0.003,-0.87351 0.007,-1.74701 0.0129,-2.62051 z"
       fill="#487c44"
       id="path418"
       style="stroke-width:0.264583" />
    <path
       d="m 58.134235,84.099124 c 0.17462,0.0873 0.34925,0.17462 0.52917,0.26458 -0.10697,1.55097 -0.31508,2.45919 -1.32292,3.70417 -0.26194,0.17462 -0.52387,0.34925 -0.79375,0.52917 -0.17462,-0.17463 -0.34925,-0.34925 -0.52917,-0.52917 0.12245,-0.14632 0.24489,-0.29263 0.37104,-0.44338 0.45671,-0.66442 0.63526,-1.21042 0.83612,-1.98748 0.18294,-0.7059 0.18294,-0.7059 0.38034,-1.27331 0.17463,-0.0873 0.34925,-0.17462 0.52917,-0.26458 z"
       fill="#658061"
       id="path424"
       style="stroke-width:0.264583" />
    <path
       d="m 42.788402,8.6928724 c 0.08731,0.174625 0.174625,0.34925 0.264583,0.529167 -0.248047,0.5622389 -0.248047,0.5622389 -0.529166,1.0583326 -0.174625,0 -0.34925,0 -0.529167,0 0.08186,0.384721 0.08186,0.384721 0.165365,0.777214 0.181677,1.214497 -0.109168,2.286996 -0.429948,3.456119 -0.34925,-0.08731 -0.6985,-0.174625 -1.058334,-0.264583 0.196197,-1.80501 0.450374,-3.768366 1.63711,-5.1924476 0.158254,-0.120055 0.316508,-0.240109 0.479557,-0.363802 z"
       fill="#5d7957"
       id="path425"
       style="stroke-width:0.264583" />
    <path
       d="m 44.477185,88.280774 c 0.23943,0.006 0.47885,0.0123 0.72554,0.0186 0.36118,0.007 0.36118,0.007 0.72967,0.0145 0.18486,0.006 0.36971,0.0123 0.56017,0.0186 -0.26194,0.13097 -0.26194,0.13097 -0.52917,0.26458 0,0.17462 0,0.34925 0,0.52917 0.52388,0 1.04775,0 1.5875,0 0,0.0873 0,0.17462 0,0.26458 2.0955,0 4.191,0 6.35,0 0,0.0873 0,0.17462 0,0.26458 -3.42746,0.87646 -7.31873,0.43528 -10.583329,-0.79375 0.529169,-0.52916 0.529169,-0.52916 1.159619,-0.58084 z"
       fill="#819479"
       id="path427"
       style="stroke-width:0.264583" />
    <path
       d="m 43.317569,42.824121 c 0.529166,0.79375 0.529166,0.79375 0.429948,1.372526 -0.05457,0.158254 -0.109141,0.316508 -0.165365,0.479557 -0.261937,-0.34925 -0.523875,-0.6985 -0.79375,-1.058333 -0.436562,0.08731 -0.873125,0.174625 -1.322916,0.264583 0.08731,0.436563 0.174625,0.873125 0.264583,1.322917 0.436563,0.08731 0.873125,0.174625 1.322917,0.264583 0,0.174625 0,0.34925 0,0.529167 -1.420395,0.09469 -1.420395,0.09469 -2.083594,-0.28112 -0.466363,-0.803181 -0.396428,-1.459304 -0.297656,-2.364713 0.973657,-0.649105 1.495989,-0.633698 2.645833,-0.529167 z"
       fill="#623331"
       id="path432"
       style="stroke-width:0.264583" />
    <path
       d="m 52.842565,14.778288 c -0.15555,0.0052 -0.31109,0.01049 -0.47135,0.01589 -3.13566,0.110688 -6.21787,0.280449 -9.318233,0.777859 0,-0.174625 0,-0.34925 0,-0.529167 1.730453,-0.644659 3.363093,-0.667657 5.192443,-0.727604 0.3247,-0.01467 0.64939,-0.02933 0.98392,-0.04444 0.4676,-0.01688 0.4676,-0.01688 0.94465,-0.03411 0.28364,-0.01049 0.56727,-0.02097 0.85951,-0.03178 0.75435,0.0444 1.17224,0.181315 1.80906,0.57335 z"
       fill="#8dbd84"
       id="path471"
       style="stroke-width:0.264583" />
    <path
       d="m 48.344655,8.4282884 c -0.0873,0.261937 -0.17462,0.523875 -0.26458,0.79375 -0.80822,0.2604489 -0.80822,0.2604489 -1.81901,0.4630209 -0.3322,0.06958 -0.6644,0.139154 -1.00666,0.21084 -0.8785,0.1198887 -0.8785,0.1198887 -1.67225,-0.144694 0.38448,-0.7689539 0.98508,-0.8850159 1.76113,-1.1647869 1.0012,-0.255305 1.97636,-0.222193 3.00137,-0.15813 z"
       fill="#92bd89"
       id="path472"
       style="stroke-width:0.264583" />
    <path
       d="m 52.577985,7.3699554 c 1.62484,0.171035 3.56799,0.626888 4.72633,1.838647 0.0992,0.179059 0.1985,0.3581179 0.30075,0.5426029 -0.0873,0.2619367 -0.17462,0.5238747 -0.26458,0.7937497 -0.18008,-0.212824 -0.36016,-0.425648 -0.5457,-0.6449217 -0.90548,-0.7898839 -1.45,-0.8732079 -2.6293,-0.9425779 0,-0.174625 0,-0.34925 0,-0.529167 -0.52388,-0.174625 -1.04775,-0.34925 -1.5875,-0.529166 0,-0.174625 0,-0.34925 0,-0.529167 z"
       fill="#687f60"
       id="path497"
       style="stroke-width:0.264583" />
    <path
       d="m 58.398815,42.030371 c 0,1.309687 0,2.619375 0,3.96875 -0.34925,0 -0.6985,0 -1.05833,0 -0.0527,-2.688792 -0.0527,-2.688792 0.26458,-3.704167 0.52917,-0.264583 0.52917,-0.264583 0.79375,-0.264583 z"
       fill="#7fac7b"
       id="path507"
       style="stroke-width:0.264583" />
    <path
       d="m 40.142569,40.707455 c 0.523875,0 1.04775,0 1.5875,0 -0.364859,0.729718 -0.893425,0.909777 -1.5875,1.322917 -0.88806,0.676409 -0.957218,1.352601 -1.107943,2.430859 -0.04195,0.287517 -0.0839,0.575035 -0.127124,0.871265 -0.02899,0.219986 -0.05798,0.439973 -0.08785,0.666626 -0.08731,0 -0.174625,0 -0.264583,0 -0.02875,-0.545392 -0.04918,-1.091225 -0.06615,-1.63711 -0.01228,-0.303888 -0.02456,-0.607777 -0.03721,-0.920874 0.122891,-1.048257 0.416749,-1.471995 1.161686,-2.204516 0.174625,0 0.34925,0 0.529167,0 0,-0.174625 0,-0.34925 0,-0.529167 z"
       fill="#674742"
       id="path530"
       style="stroke-width:0.264583" />
    <path
       d="m 47.815485,9.4866223 c 0,0.174625 0,0.34925 0,0.5291667 -0.22306,0.03513 -0.44611,0.07026 -0.67593,0.106453 -0.2899,0.04673 -0.57981,0.09345 -0.8785,0.141594 -0.28854,0.04604 -0.57708,0.09209 -0.87436,0.139526 -0.72986,0.103364 -0.72986,0.103364 -1.27538,0.406177 -0.19233,0.523581 -0.369927,1.052921 -0.529163,1.5875 -0.08731,0 -0.174625,0 -0.264584,0 -0.06614,-0.876433 -0.06614,-0.876433 0,-1.852084 1.114987,-1.2865266 2.929007,-1.0897106 4.497917,-1.0583327 z"
       fill="#4c7b45"
       id="path546"
       style="stroke-width:0.264583" />
    <path
       d="m 56.546735,87.009534 c 0.17462,0.0873 0.34925,0.17462 0.52917,0.26458 -0.13097,0.1146 -0.26194,0.2292 -0.39688,0.34727 -0.48476,0.4458 -0.48476,0.4458 -0.39687,1.24023 -1.3037,0.52148 -2.3231,0.57679 -3.70417,0.52917 0.61705,-0.31916 1.18968,-0.57295 1.85208,-0.79375 -0.34925,-0.0873 -0.6985,-0.17463 -1.05833,-0.26458 0.18486,-0.0512 0.36971,-0.10232 0.56017,-0.15503 0.24079,-0.0689 0.48159,-0.13779 0.72967,-0.20878 0.23943,-0.0675 0.47886,-0.13506 0.72554,-0.20463 0.669,-0.18839 0.669,-0.18839 1.15962,-0.75448 z"
       fill="#5e7958"
       id="path551"
       style="stroke-width:0.264583" />
    <path
       d="m 55.488405,8.9574554 c 1.04362,0.347875 1.73277,0.6842609 2.38125,1.5874996 0.16409,0.791743 0.2301,1.574241 0.26458,2.38125 -0.26193,0 -0.52387,0 -0.79375,0 -0.0672,-0.197817 -0.13438,-0.395635 -0.2036,-0.599447 -0.0911,-0.260573 -0.18213,-0.521146 -0.27595,-0.789616 -0.089,-0.257844 -0.17804,-0.515689 -0.26975,-0.781347 -0.2935,-0.702828 -0.61841,-1.2154357 -1.10278,-1.7983396 z"
       fill="#4f7147"
       id="path577"
       style="stroke-width:0.264583" />
    <path
       d="m 41.730069,35.944955 c 0.08731,0 0.174625,0 0.264583,0 0,1.397 0,2.794 0,4.233333 -0.261937,0 -0.523875,0 -0.79375,0 -0.01429,-0.556653 -0.02455,-1.113411 -0.03307,-1.670182 -0.0061,-0.310028 -0.01228,-0.620055 -0.0186,-0.939478 0.05168,-0.829923 0.05168,-0.829923 0.580843,-1.623673 z"
       fill="#8bb685"
       id="path586"
       style="stroke-width:0.264583" />
    <path
       d="m 41.730069,43.353288 c 0.694531,0.09922 0.694531,0.09922 1.322917,0.264583 0.0113,0.440828 0.01075,0.882076 0,1.322917 -0.264584,0.264583 -0.264584,0.264583 -0.942578,0.28112 -0.319237,-0.0082 -0.319237,-0.0082 -0.644922,-0.01654 -0.165365,-0.628385 -0.165365,-0.628385 -0.264584,-1.322916 0.174625,-0.174625 0.34925,-0.34925 0.529167,-0.529167 z"
       fill="#eedcdc"
       id="path594"
       style="stroke-width:0.264583" />
    <path
       d="m 57.340485,84.628284 c -0.10772,1.37342 -0.28738,2.22576 -1.32292,3.175 -0.7276,0.0827 -0.7276,0.0827 -1.32291,0 0.20736,-0.18554 0.41473,-0.37108 0.62838,-0.56224 0.72183,-0.79057 0.92583,-1.34 1.2237,-2.34818 0.52917,-0.26458 0.52917,-0.26458 0.79375,-0.26458 z"
       fill="#8ab381"
       id="path617"
       style="stroke-width:0.264583" />
    <path
       d="m 56.546735,79.072034 c 0.0873,0 0.17462,0 0.26458,0 0.0775,1.60197 0.0775,1.60197 0,2.11667 -0.93313,0.62208 -1.33053,0.5859 -2.43086,0.56224 -0.28751,-0.005 -0.57503,-0.01 -0.87126,-0.0145 -0.32998,-0.009 -0.32998,-0.009 -0.66663,-0.0186 0.72424,-0.39622 1.33782,-0.59794 2.14974,-0.7276 0.55214,-0.10697 0.55214,-0.10697 1.02526,-0.33073 0.42637,-0.79224 0.42637,-0.79224 0.52917,-1.5875 z"
       fill="#43723f"
       id="path618"
       style="stroke-width:0.264583" />
    <path
       d="m 40.407152,50.232454 c 0.174625,0.261937 0.34925,0.523875 0.529167,0.79375 -0.261938,0.130969 -0.261938,0.130969 -0.529167,0.264583 -0.08731,2.532067 -0.174625,5.064127 -0.264583,7.672917 -0.08731,0 -0.174625,0 -0.264584,0 -0.01306,-1.15841 -0.02268,-2.31678 -0.02907,-3.47524 -0.0027,-0.39421 -0.0063,-0.78842 -0.01085,-1.18262 -0.0064,-0.56612 -0.0094,-1.13218 -0.01176,-1.698341 -0.0042,-0.511277 -0.0042,-0.511277 -0.0084,-1.032883 0.06007,-0.812999 0.06007,-0.812999 0.589241,-1.342166 z"
       fill="#788a76"
       id="path634"
       style="stroke-width:0.264583" />
    <path
       d="m 58.398815,46.792871 c 0.17462,0.08731 0.34925,0.174625 0.52917,0.264583 -0.0873,1.135063 -0.17463,2.270125 -0.26459,3.439584 0.17463,0.08731 0.34925,0.174625 0.52917,0.264583 -0.26194,0.08731 -0.52388,0.174625 -0.79375,0.264583 -0.17462,-0.08731 -0.34925,-0.174625 -0.52917,-0.264583 0,-0.174625 0,-0.34925 0,-0.529167 -0.17462,-0.08731 -0.34925,-0.174625 -0.52916,-0.264583 0.12551,-0.180082 0.25102,-0.360164 0.38034,-0.545703 0.47229,-0.887921 0.5805,-1.634891 0.67799,-2.629297 z"
       fill="#63815d"
       id="path642"
       style="stroke-width:0.264583" />
    <path
       d="m 55.223815,88.597034 c -1.80733,0.64602 -3.37384,0.90392 -5.29167,0.79375 0.0873,-0.17463 0.17463,-0.34925 0.26459,-0.52917 0.70022,-0.13393 1.377,-0.23493 2.08359,-0.31419 0.2911,-0.0376 0.2911,-0.0376 0.58808,-0.076 0.88695,-0.10582 1.49803,-0.16022 2.35541,0.12557 z"
       fill="#4f7048"
       id="path666"
       style="stroke-width:0.264583" />
    <path
       d="m 41.200902,51.555371 c 0.261937,0.08731 0.523875,0.174625 0.79375,0.264583 -0.08731,1.397 -0.174625,2.794 -0.264583,4.23333 -0.174625,0 -0.34925,0 -0.529167,0 0,-1.48431 0,-2.96862 0,-4.497913 z"
       fill="#80a67a"
       id="path667"
       style="stroke-width:0.264583" />
    <path
       d="m 58.663405,14.249122 c 0.86858,1.505534 0.82284,3.075458 0.79375,4.7625 -0.0873,0 -0.17463,0 -0.26458,0 -0.0351,-0.200887 -0.0703,-0.401774 -0.10646,-0.608748 -0.0467,-0.262961 -0.0934,-0.525922 -0.14159,-0.796851 -0.046,-0.260914 -0.0921,-0.521829 -0.13953,-0.790649 -0.13034,-0.735836 -0.13034,-0.735836 -0.40617,-1.507919 0.11575,-0.578776 0.11575,-0.578776 0.26458,-1.058333 z m -0.52917,1.852083 c 0.0873,0 0.17463,0 0.26459,0 0,0.611188 0,1.222375 0,1.852084 -0.0873,0 -0.17463,0 -0.26459,0 0,-0.611188 0,-1.222375 0,-1.852084 z"
       fill="#7e9377"
       id="path704"
       style="stroke-width:0.264583" />
    <path
       d="m 48.347755,7.4019944 c 0.20038,0.01279 0.40075,0.02558 0.6072,0.03876 0.20788,0.01484 0.41576,0.02967 0.62993,0.04496 0.21095,0.01381 0.4219,0.02763 0.63924,0.04186 0.52013,0.03426 1.04014,0.07043 1.56011,0.10697 0,0.08731 0,0.174625 0,0.264583 -2.4884,0.130969 -2.4884,0.130969 -5.02708,0.264584 -0.0873,-0.174625 -0.17463,-0.34925 -0.26458,-0.529167 0.7473,-0.249101 1.09583,-0.283929 1.85518,-0.232544 z"
       fill="#48683f"
       id="path715"
       style="stroke-width:0.264583" />
    <path
       d="m 38.819652,46.528288 c 1.051712,0.901468 1.552559,1.938763 2.116667,3.175 -0.174625,0.174625 -0.34925,0.34925 -0.529167,0.529167 -0.266619,-0.467378 -0.530732,-0.936186 -0.79375,-1.405599 -0.14734,-0.260915 -0.29468,-0.521829 -0.446484,-0.79065 -0.347266,-0.714168 -0.347266,-0.714168 -0.347266,-1.507918 z"
       fill="#6b4c47"
       id="path732"
       style="stroke-width:0.264583" />
    <path
       d="m 42.259236,86.744954 c 0.174625,0 0.34925,0 0.529167,0 0,0.17462 0,0.34925 0,0.52917 0.248636,0.0767 0.248636,0.0767 0.502295,0.15503 0.216234,0.0689 0.432469,0.13779 0.655257,0.20877 0.21487,0.0675 0.42974,0.13506 0.65112,0.20464 0.57258,0.22531 0.57258,0.22531 1.10174,0.75447 -1.39538,0.1329 -2.092891,-0.17755 -3.174996,-1.05833 -0.08731,-0.26194 -0.174625,-0.52388 -0.264583,-0.79375 z"
       fill="#55734a"
       id="path752"
       style="stroke-width:0.264583" />
    <path
       d="m 41.465486,83.834534 c 0.678778,0.67878 0.672164,1.1845 0.79375,2.11667 -0.261938,-0.0873 -0.523875,-0.17463 -0.79375,-0.26459 -0.08731,0.17463 -0.174625,0.34925 -0.264583,0.52917 -0.08731,-0.61119 -0.174625,-1.22238 -0.264584,-1.85208 0.174625,0 0.34925,0 0.529167,0 0,-0.17463 0,-0.34925 0,-0.52917 z"
       fill="#6b8561"
       id="path788"
       style="stroke-width:0.264583" />
    <path
       d="m 41.730069,33.034538 c 0.08731,0 0.174625,0 0.264583,0 0.02147,0.468333 0.03684,0.936948 0.04961,1.405599 0.01381,0.391371 0.01381,0.391371 0.0279,0.790649 -0.07751,0.714169 -0.07751,0.714169 -0.47749,1.205095 -0.129946,0.09993 -0.259891,0.199863 -0.393775,0.302824 -0.04762,-1.38107 0.0077,-2.400467 0.529167,-3.704167 z"
       fill="#83b180"
       id="path793"
       style="stroke-width:0.264583" />
    <path
       d="m 57.605065,51.555371 c 0.26194,0 0.52387,0 0.79375,0 0,0.6985 0,1.397003 0,2.116663 -0.26194,0.0873 -0.52388,0.17463 -0.79375,0.26459 0,-0.78582 0,-1.571628 0,-2.381253 z"
       fill="#80ae7a"
       id="path831"
       style="stroke-width:0.264583" />
    <path
       d="m 44.640485,40.707455 c 0.17462,0 0.34925,0 0.52917,0 0,0.174625 0,0.34925 0,0.529167 0.26193,0 0.52387,0 0.79375,0 0.56224,1.223698 0.56224,1.223698 0.26458,2.116666 -0.26611,-0.340562 -0.53035,-0.682595 -0.79375,-1.02526 -0.14734,-0.190314 -0.29468,-0.380628 -0.44648,-0.576709 -0.34727,-0.514697 -0.34727,-0.514697 -0.34727,-1.043864 z"
       fill="#789166"
       id="path833"
       style="stroke-width:0.264583" />
    <path
       d="m 54.430065,15.572038 c 1.81901,0.23151 1.81901,0.23151 2.11667,0.529167 0.0108,0.440841 0.0113,0.882089 0,1.322916 -0.17463,0 -0.34925,0 -0.52917,0 -0.0655,-0.163711 -0.13097,-0.327422 -0.19844,-0.496093 -0.38531,-0.655026 -0.69536,-0.813925 -1.38906,-1.091407 0,-0.08731 0,-0.174625 0,-0.264583 z"
       fill="#497540"
       id="path834"
       style="stroke-width:0.264583" />
    <path
       d="m 40.936319,13.455372 c 0.649105,0.973657 0.633698,1.495989 0.529167,2.645833 -0.261938,0.174625 -0.523875,0.34925 -0.79375,0.529167 -0.0072,-0.380311 -0.01229,-0.760661 -0.01654,-1.141016 -0.0031,-0.211801 -0.0061,-0.423602 -0.0093,-0.641821 0.02584,-0.598413 0.02584,-0.598413 0.290423,-1.392163 z"
       fill="#4e6b47"
       id="path835"
       style="stroke-width:0.264583" />
    <path
       d="m 43.582152,84.892874 c 0.08731,0 0.174625,0 0.264583,0 0.0164,0.20737 0.0327,0.41473 0.0496,0.62839 0.0709,0.22919 0.14188,0.45839 0.21497,0.69453 0.65521,0.36371 0.65521,0.36371 1.32292,0.52916 0,0.0873 0,0.17463 0,0.26459 -0.76068,0.0331 -0.76068,0.0331 -1.5875,0 -0.529166,-0.52917 -0.529166,-0.52917 -0.578776,-1.20716 0.04961,-0.64493 0.04961,-0.64493 0.314193,-0.90951 z"
       fill="#4a7741"
       id="path853"
       style="stroke-width:0.264583" />
    <path
       d="m 43.052986,8.6928724 c 0.174625,0 0.34925,0 0.529167,0 -0.170523,0.7969699 -0.436622,1.4595886 -0.810287,2.1828116 -0.09584,0.186904 -0.191678,0.373807 -0.290421,0.566374 -0.07333,0.140519 -0.146658,0.281037 -0.222209,0.425814 -0.08731,0 -0.174625,0 -0.264583,0 0,-0.523875 0,-1.04775 0,-1.5875 0.174625,0 0.34925,0 0.529166,0 0.174625,-0.5238747 0.34925,-1.0477496 0.529167,-1.5874996 z"
       fill="#4e6e47"
       id="path858"
       style="stroke-width:0.264583" />
    <path
       d="m 43.317569,9.4866223 c 0.174625,0.08731 0.34925,0.174625 0.529166,0.264583 -0.174624,0.8731247 -0.349249,1.7462497 -0.529166,2.6458337 -0.79375,-1.058334 -0.79375,-1.058334 -0.744141,-1.752865 0.214974,-0.628385 0.214974,-0.628385 0.744141,-1.1575517 z"
       fill="#7ea576"
       id="path859"
       style="stroke-width:0.264583" />
    <path
       d="m 45.963405,8.4282884 c 0.78581,0 1.57162,0 2.38125,0 -0.0873,0.261937 -0.17463,0.523875 -0.26458,0.79375 -0.52388,0.08731 -1.04775,0.174625 -1.5875,0.2645829 0,-0.1746249 0,-0.3492499 0,-0.5291659 -0.17463,-0.174625 -0.34925,-0.34925 -0.52917,-0.529167 z"
       fill="#8ab882"
       id="path881"
       style="stroke-width:0.264583" />
    <path
       d="m 48.873815,88.861624 c 0.43656,0 0.87312,0 1.32292,0 0,0.0873 0,0.17462 0,0.26458 0.61118,0.0873 1.22237,0.17463 1.85208,0.26459 0,0.0873 0,0.17462 0,0.26458 -1.04775,0 -2.0955,0 -3.175,0 0,-0.26194 0,-0.52388 0,-0.79375 z"
       fill="#597652"
       id="path900"
       style="stroke-width:0.264583" />
    <path
       d="m 54.165485,83.834534 c 0.61119,0 1.22237,0 1.85208,0 0,0.52387 0,1.04775 0,1.5875 -0.17462,-0.34925 -0.34925,-0.6985 -0.52916,-1.05833 -0.52388,0 -1.04775,0 -1.5875,0 0.0873,-0.17463 0.17462,-0.34925 0.26458,-0.52917 z"
       fill="#4a7a43"
       id="path901"
       style="stroke-width:0.264583" />
    <path
       d="m 44.375905,48.909538 c 0,0.79375 0,0.79375 0,0.79375 z m -1.058333,0.79375 c 0.261937,0.08731 0.523873,0.174625 0.793753,0.264583 -0.26194,0.392907 -0.26194,0.392907 -0.52917,0.79375 0.174625,0.08731 0.34925,0.174625 0.52917,0.264584 -0.523878,0.174625 -1.047753,0.34925 -1.587503,0.529166 0.261937,-0.611187 0.523875,-1.222375 0.79375,-1.852083 z"
       fill="#5d6243"
       id="path903"
       style="stroke-width:0.264583" />
    <path
       d="m 42.788402,37.797038 c 0.08731,0 0.174625,0 0.264583,0 0,0.6985 0,1.397 0,2.116667 0.654844,0.261937 0.654844,0.261937 1.32292,0.529166 -0.793753,0.264584 -0.793753,0.264584 -1.852086,0 0.08731,-0.873125 0.174625,-1.74625 0.264583,-2.645833 z"
       fill="#658a56"
       id="path904"
       style="stroke-width:0.264583" />
    <path
       d="m 55.223815,10.809538 c 0.0873,0 0.17462,0 0.26458,0 0.0514,0.391137 0.10058,0.782556 0.14883,1.174089 0.0276,0.21794 0.0553,0.43588 0.0837,0.660424 0.0106,0.180423 0.0211,0.360847 0.032,0.546737 -0.26459,0.264583 -0.26459,0.264583 -1.07487,0.28112 -0.25648,-0.0055 -0.51296,-0.01091 -0.77722,-0.01654 0,-0.174625 0,-0.34925 0,-0.529166 0.43657,0 0.87313,0 1.32292,0 0,-0.6985 0,-1.397 0,-2.116667 z"
       fill="#548451"
       id="path907"
       style="stroke-width:0.264583" />
    <path
       d="m 45.963405,7.8991224 c -0.26194,0 -0.52387,0 -0.79375,0 0,0.174625 0,0.34925 0,0.529167 -0.52387,0.174625 -1.04775,0.34925 -1.5875,0.529166 -0.174625,-0.174625 -0.34925,-0.34925 -0.529167,-0.529166 1.965477,-0.944941 1.965477,-0.944941 2.910417,-0.529167 z"
       fill="#73896b"
       id="path908"
       style="stroke-width:0.264583" />
    <path
       d="m 43.052986,86.215784 c 0.537487,0.24724 1.067679,0.51124 1.587499,0.79375 -0.26194,0.39291 -0.26194,0.39291 -0.52917,0.79375 -0.644918,-0.21497 -0.644918,-0.21497 -1.322912,-0.52917 -0.08731,-0.26193 -0.174625,-0.52387 -0.264584,-0.79375 0.174625,-0.0873 0.34925,-0.17462 0.529167,-0.26458 z"
       fill="#79a06f"
       id="path925"
       style="stroke-width:0.264583" />
    <path
       d="m 57.605065,10.544955 c 0.0873,0 0.17462,0 0.26458,0 0.0873,0.785812 0.17463,1.571625 0.26459,2.38125 -0.26194,0 -0.52388,0 -0.79375,0 -0.27323,-0.737721 -0.27652,-1.023336 -0.0165,-1.785938 0.0928,-0.196453 0.18554,-0.392906 0.28112,-0.595312 z"
       fill="#597650"
       id="path928"
       style="stroke-width:0.264583" />
    <path
       d="m 55.488405,9.7512053 c 0.5457,0.115755 0.5457,0.115755 1.05833,0.2645827 0.0873,0.34925 0.17463,0.6985 0.26459,1.058334 -0.17463,0 -0.34925,0 -0.52917,0 0,0.436562 0,0.873125 0,1.322916 -0.0873,0 -0.17463,0 -0.26458,0 -0.0327,-0.294679 -0.0655,-0.589359 -0.0992,-0.892968 -0.0719,-0.967327 -0.0719,-0.967327 -0.69453,-1.488282 0.0873,-0.08731 0.17462,-0.1746247 0.26458,-0.2645827 z"
       fill="#7da977"
       id="path929"
       style="stroke-width:0.264583" />
    <path
       d="m 42.788402,8.6928724 c 0.08731,0.174625 0.174625,0.34925 0.264583,0.529167 -0.248047,0.5622389 -0.248047,0.5622389 -0.529166,1.0583326 -0.174625,0 -0.34925,0 -0.529167,0 -0.08731,0.261937 -0.174625,0.523875 -0.264583,0.79375 -0.08731,-0.174625 -0.174625,-0.34925 -0.264584,-0.529167 0.649432,-1.5153406 0.649432,-1.5153406 1.322917,-1.8520826 z"
       fill="#6f8369"
       id="path930"
       style="stroke-width:0.264583" />
    <path
       d="m 54.694655,9.7512053 c -0.17462,0.174625 -0.34925,0.3492497 -0.52917,0.5291667 -0.68833,-0.0062 -0.68833,-0.0062 -1.48828,-0.09922 -0.26535,-0.02933 -0.53069,-0.05866 -0.80408,-0.08888 -0.30594,-0.03786 -0.30594,-0.03786 -0.61805,-0.07648 0,-0.08731 0,-0.1746247 0,-0.2645827 1.21992,-0.3431029 2.2062,-0.188143 3.43958,0 z"
       fill="#4d7f48"
       id="path931"
       style="stroke-width:0.264583" />
    <path
       d="m 54.959235,87.538704 c 0.0873,0.17462 0.17462,0.34925 0.26458,0.52917 -0.78581,0 -1.57162,0 -2.38125,0 0,-0.17463 0,-0.34925 0,-0.52917 0.86968,-0.21154 1.24625,-0.29014 2.11667,0 z"
       fill="#84ae7a"
       id="path952"
       style="stroke-width:0.264583" />
    <path
       d="m 41.465486,42.824121 c 0.34925,0.174625 0.6985,0.34925 1.058333,0.529167 -0.523875,0.174625 -1.04775,0.34925 -1.5875,0.529166 0,0.436563 0,0.873125 0,1.322917 -0.08731,0 -0.174625,0 -0.264583,0 -0.04961,-0.892969 -0.04961,-0.892969 0,-1.852083 0.261938,-0.174625 0.523875,-0.34925 0.79375,-0.529167 z"
       fill="#683a38"
       id="path956"
       style="stroke-width:0.264583" />
    <path
       d="m 57.340485,84.628284 c -0.0676,0.61995 -0.15682,1.23784 -0.26458,1.85208 -0.26194,0.13097 -0.26194,0.13097 -0.52917,0.26459 0,-0.61119 0,-1.22238 0,-1.85209 0.52917,-0.26458 0.52917,-0.26458 0.79375,-0.26458 z"
       fill="#8fbb88"
       id="path982"
       style="stroke-width:0.264583" />
    <path
       d="m 40.407152,50.232454 c 0.174625,0.261937 0.34925,0.523875 0.529167,0.79375 -0.261938,0.130969 -0.261938,0.130969 -0.529167,0.264583 -0.123431,0.562443 -0.123431,0.562443 -0.165365,1.207162 -0.01978,0.218622 -0.03956,0.437245 -0.05994,0.662495 -0.01296,0.16882 -0.02592,0.33765 -0.03927,0.51159 -0.08731,0 -0.174625,0 -0.264584,0 -0.01427,-0.47396 -0.02454,-0.948036 -0.03307,-1.422132 -0.0061,-0.263984 -0.01228,-0.527968 -0.0186,-0.799951 0.05168,-0.68833 0.05168,-0.68833 0.580843,-1.217497 z"
       fill="#76826f"
       id="path986"
       style="stroke-width:0.264583" />
    <path
       d="m 43.052986,43.882455 c 0.261937,0.34925 0.523875,0.6985 0.793749,1.058333 -0.314192,0.413412 -0.314192,0.413412 -0.793749,0.79375 -0.711068,-0.08268 -0.711068,-0.08268 -1.322917,-0.264583 0.169168,-0.06548 0.338336,-0.130969 0.512631,-0.198438 0.59529,-0.281946 0.59529,-0.281946 0.74414,-0.892968 0.02183,-0.163711 0.04366,-0.327422 0.06615,-0.496094 z"
       fill="#784f4d"
       id="path987"
       style="stroke-width:0.264583" />
    <path
       d="m 52.842565,8.6928724 c 0.61119,0.08731 1.22237,0.174625 1.85208,0.264583 -0.0873,0.174625 -0.17462,0.34925 -0.26458,0.5291669 -0.61119,-0.08731 -1.22238,-0.1746249 -1.85208,-0.2645829 0.0873,-0.174625 0.17462,-0.34925 0.26458,-0.529167 z"
       fill="#94bf8b"
       id="path990"
       style="stroke-width:0.264583" />
  </g>
</svg>
