<?xml version="1.0" encoding="UTF-8" standalone="no"?>
<!-- Created with Inkscape (http://www.inkscape.org/) -->

<svg
   width="96mm"
   height="96mm"
   viewBox="0 0 96 96"
   version="1.1"
   id="svg1"
   inkscape:version="1.4.2 (ebf0e940, 2025-05-08)"
   sodipodi:docname="trailer.svg"
   xmlns:inkscape="http://www.inkscape.org/namespaces/inkscape"
   xmlns:sodipodi="http://sodipodi.sourceforge.net/DTD/sodipodi-0.dtd"
   xmlns="http://www.w3.org/2000/svg"
   xmlns:svg="http://www.w3.org/2000/svg">
  <sodipodi:namedview
     id="namedview1"
     pagecolor="#ffffff"
     bordercolor="#000000"
     borderopacity="0.25"
     inkscape:showpageshadow="2"
     inkscape:pageopacity="0.0"
     inkscape:pagecheckerboard="0"
     inkscape:deskcolor="#d1d1d1"
     inkscape:document-units="mm"
     inkscape:zoom="0.80444024"
     inkscape:cx="397.17059"
     inkscape:cy="262.91574"
     inkscape:window-width="1920"
     inkscape:window-height="1052"
     inkscape:window-x="0"
     inkscape:window-y="28"
     inkscape:window-maximized="0"
     inkscape:current-layer="layer1" />
  <defs
     id="defs1" />
  <g
     inkscape:label="Layer 1"
     inkscape:groupmode="layer"
     id="layer1">
    <path
       d="m 49.025052,5.0051765 c 0.944516,0.2674899 1.337815,0.689199 1.926384,1.4661082 0.08277,0.8465553 0.08277,0.8465553 0.04012,1.8260509 0.119599,2.6048434 1.261438,4.2990674 2.651285,6.4187714 0.591516,0.916121 0.997789,1.752969 1.319371,2.794258 0.645812,1.979904 0.645812,1.979904 2.089424,3.408796 2.535539,0.595201 5.187289,0.427468 7.767936,0.25867 1.07392,0.07438 1.417551,0.285686 2.185046,1.025586 0.158031,0.705177 0.158031,0.705177 0.154438,1.541921 0.0012,0.317397 0.0036,0.634794 0.0049,0.961809 -0.0073,0.52169 -0.0073,0.52169 -0.01396,1.053919 1.82e-4,0.366527 3.88e-4,0.733055 5.82e-4,1.110691 -9.09e-4,1.214415 -0.01092,2.428579 -0.02099,3.642951 -0.0024,0.840826 -0.0036,1.681655 -0.006,2.522485 -0.0036,1.988761 -0.01456,3.977433 -0.02743,5.966157 -0.01432,2.264107 -0.02148,4.528218 -0.02791,6.792361 -0.01347,4.657439 -0.03604,9.314812 -0.06468,13.972183 0.195503,-0.0068 0.390992,-0.01358 0.592416,-0.02058 0.387012,-0.0079 0.387012,-0.0079 0.781838,-0.01602 0.255096,-0.0068 0.510192,-0.01358 0.773018,-0.02058 0.968397,0.07461 1.631923,0.407164 2.325019,1.09109 0.74239,1.234389 0.609418,2.644248 0.588231,4.042929 0.0012,0.503979 0.0012,0.503979 0.0036,1.01814 -9.8e-5,0.709215 -0.0049,1.418444 -0.01432,2.127598 -0.01274,1.084733 -0.006,2.168208 0.0012,3.252965 -0.0024,0.689791 -0.006,1.379579 -0.01092,2.069359 0.0024,0.323777 0.0049,0.647554 0.0073,0.981139 -0.02985,1.486546 -0.07111,2.261792 -0.941373,3.503722 -0.988311,0.653507 -1.434516,0.770049 -2.600878,0.692295 -0.283504,-0.01448 -0.567007,-0.02897 -0.859101,-0.04389 -0.319713,-0.02794 -0.319713,-0.02794 -0.645894,-0.05644 0.0073,0.205565 0.01347,0.411129 0.02038,0.622921 0.02682,0.936099 0.04345,1.872115 0.05982,2.808449 0.01092,0.32344 0.02148,0.64688 0.03265,0.980123 0.0036,0.313508 0.0085,0.627014 0.0125,0.950021 0.0073,0.287513 0.01347,0.575025 0.02039,0.871248 -0.207904,1.184492 -0.534267,1.621662 -1.43005,2.435964 -1.099659,0.244387 -2.185929,0.215892 -3.308467,0.202623 -0.336328,0.0023 -0.672657,0.0046 -1.019178,0.0069 -1.112729,0.0054 -2.225044,-9.64e-4 -3.33776,-0.0076 -0.772508,2.67e-4 -1.545016,9.63e-4 -2.317523,0.0023 -1.619432,9.64e-4 -3.238722,-0.0037 -4.858129,-0.01261 -2.077339,-0.01093 -4.154422,-0.009 -6.231773,-0.0029 -1.595304,0.0034 -3.19055,6.41e-4 -4.785849,-0.0043 -0.766014,-0.0016 -1.532032,-0.0016 -2.298045,6.44e-4 -1.070042,0.0016 -2.139718,-0.0047 -3.209717,-0.01358 -0.317602,0.0023 -0.635202,0.0043 -0.962428,0.0064 -2.139845,-0.02996 -2.139845,-0.02996 -3.18583,-0.778972 -0.564389,-0.867167 -0.59277,-1.393514 -0.569878,-2.423673 0.0042,-0.329027 0.0082,-0.658055 0.01253,-0.997053 0.0108,-0.341444 0.02153,-0.682888 0.0326,-1.034678 0.0058,-0.346412 0.01153,-0.692821 0.01756,-1.049731 0.01513,-0.854367 0.03624,-1.708159 0.06271,-2.562237 -0.240046,0.01491 -0.480091,0.02979 -0.727411,0.04516 -0.316197,0.01165 -0.632395,0.02318 -0.958175,0.03511 -0.312886,0.01491 -0.625773,0.02979 -0.94814,0.04515 -0.897978,-0.125585 -0.897978,-0.125585 -1.645533,-0.54753 -0.874172,-1.404525 -0.713092,-2.845168 -0.695978,-4.465501 -4.82e-4,-0.352216 -9.31e-4,-0.70443 -0.0015,-1.067322 5.46e-4,-0.74405 0.0043,-1.488104 0.01092,-2.232125 0.0094,-1.140885 0.0067,-2.281295 0.0024,-3.422202 0.002,-0.722605 0.0047,-1.445208 0.0081,-2.167808 -0.0015,-0.513216 -0.0015,-0.513216 -0.0029,-1.036799 0.006,-0.475768 0.006,-0.475768 0.01234,-0.961148 0.0017,-0.279173 0.0035,-0.558344 0.0052,-0.845972 0.157388,-0.906142 0.34969,-1.136106 1.087662,-1.679818 0.936856,-0.09407 0.936856,-0.09407 1.986583,-0.0602 0.348894,0.0087 0.697787,0.01736 1.057254,0.02633 0.266946,0.01117 0.533894,0.02234 0.80893,0.03386 -0.0011,-0.192414 -0.0024,-0.384828 -0.0036,-0.583072 -0.02835,-4.681244 -0.0496,-9.362481 -0.06296,-14.043788 -0.0067,-2.26385 -0.01566,-4.527646 -0.03035,-6.791458 -0.01416,-2.18375 -0.02163,-4.367438 -0.02496,-6.551229 -0.0024,-0.834129 -0.0071,-1.668256 -0.01394,-2.502359 -0.0094,-1.166231 -0.01055,-2.332215 -0.0101,-3.498475 -0.0046,-0.346639 -0.0093,-0.693278 -0.01399,-1.05042 0.01295,-2.331268 0.01295,-2.331268 0.755365,-3.405214 0.934352,-0.573516 1.511525,-0.512339 2.597503,-0.415194 3.894594,0.388172 3.894594,0.388172 7.438556,-0.832916 1.084518,-1.345199 1.663995,-2.901381 2.236316,-4.516844 0.366247,-0.93892 0.859151,-1.733356 1.405047,-2.576349 1.250061,-1.932287 1.665951,-3.4440451 1.723759,-5.7228705 0.05643,-0.8064126 0.05643,-0.8064126 0.558086,-1.8498702 0.955611,-0.6860796 1.557243,-0.7414649 2.708977,-0.7437145 z"
       fill="#5aa85e"
       id="path4"
       style="stroke-width:0.321063" />
    <path
       d="m 49.025052,5.0051765 c 0.944516,0.2674899 1.337815,0.689199 1.926384,1.4661082 0.08277,0.8465553 0.08277,0.8465553 0.04012,1.8260509 0.119599,2.6048434 1.261438,4.2990674 2.651285,6.4187714 0.591516,0.916121 0.997789,1.752969 1.319371,2.794258 0.645812,1.979904 0.645812,1.979904 2.089424,3.408796 2.535539,0.595201 5.187289,0.427468 7.767936,0.25867 1.07392,0.07438 1.417551,0.285686 2.185046,1.025586 0.158031,0.705177 0.158031,0.705177 0.154438,1.541921 0.0012,0.317397 0.0036,0.634794 0.0049,0.961809 -0.0073,0.52169 -0.0073,0.52169 -0.01396,1.053919 1.82e-4,0.366527 3.88e-4,0.733055 5.82e-4,1.110691 -9.09e-4,1.214415 -0.01092,2.428579 -0.02099,3.642951 -0.0024,0.840826 -0.0036,1.681655 -0.006,2.522485 -0.0036,1.988761 -0.01456,3.977433 -0.02743,5.966157 -0.01432,2.264107 -0.02148,4.528218 -0.02791,6.792361 -0.01347,4.657439 -0.03604,9.314812 -0.06468,13.972183 0.195503,-0.0068 0.390992,-0.01358 0.592416,-0.02058 0.387012,-0.0079 0.387012,-0.0079 0.781838,-0.01602 0.255096,-0.0068 0.510192,-0.01358 0.773018,-0.02058 0.968397,0.07461 1.631923,0.407164 2.325019,1.09109 0.74239,1.234389 0.609418,2.644248 0.588231,4.042929 0.0012,0.503979 0.0012,0.503979 0.0036,1.01814 -9.8e-5,0.709215 -0.0049,1.418444 -0.01432,2.127598 -0.01274,1.084733 -0.006,2.168208 0.0012,3.252965 -0.0024,0.689791 -0.006,1.379579 -0.01092,2.069359 0.0024,0.323777 0.0049,0.647554 0.0073,0.981139 -0.02985,1.486546 -0.07111,2.261792 -0.941373,3.503722 -0.988311,0.653507 -1.434516,0.770049 -2.600878,0.692295 -0.283504,-0.01448 -0.567007,-0.02897 -0.859101,-0.04389 -0.319713,-0.02794 -0.319713,-0.02794 -0.645894,-0.05644 0.0073,0.205565 0.01347,0.411129 0.02038,0.622921 0.02682,0.936099 0.04345,1.872115 0.05982,2.808449 0.01092,0.32344 0.02148,0.64688 0.03265,0.980123 0.0036,0.313508 0.0085,0.627014 0.0125,0.950021 0.0073,0.287513 0.01347,0.575025 0.02039,0.871248 -0.207904,1.184492 -0.534267,1.621662 -1.43005,2.435964 -1.099659,0.244387 -2.185929,0.215892 -3.308467,0.202623 -0.336328,0.0023 -0.672657,0.0046 -1.019178,0.0069 -1.112729,0.0054 -2.225044,-9.64e-4 -3.33776,-0.0076 -0.772508,2.67e-4 -1.545016,9.63e-4 -2.317523,0.0023 -1.619432,9.64e-4 -3.238722,-0.0037 -4.858129,-0.01261 -2.077339,-0.01093 -4.154422,-0.009 -6.231773,-0.0029 -1.595304,0.0034 -3.19055,6.41e-4 -4.785849,-0.0043 -0.766014,-0.0016 -1.532032,-0.0016 -2.298045,6.44e-4 -1.070042,0.0016 -2.139718,-0.0047 -3.209717,-0.01358 -0.317602,0.0023 -0.635202,0.0043 -0.962428,0.0064 -2.139845,-0.02996 -2.139845,-0.02996 -3.18583,-0.778972 -0.564389,-0.867167 -0.59277,-1.393514 -0.569878,-2.423673 0.0042,-0.329027 0.0082,-0.658055 0.01253,-0.997053 0.0108,-0.341444 0.02153,-0.682888 0.0326,-1.034678 0.0058,-0.346412 0.01153,-0.692821 0.01756,-1.049731 0.01513,-0.854367 0.03624,-1.708159 0.06271,-2.562237 -0.240046,0.01491 -0.480091,0.02979 -0.727411,0.04516 -0.316197,0.01165 -0.632395,0.02318 -0.958175,0.03511 -0.312886,0.01491 -0.625773,0.02979 -0.94814,0.04515 -0.897978,-0.125585 -0.897978,-0.125585 -1.645533,-0.54753 -0.874172,-1.404525 -0.713092,-2.845168 -0.695978,-4.465501 -4.82e-4,-0.352216 -9.31e-4,-0.70443 -0.0015,-1.067322 5.46e-4,-0.74405 0.0043,-1.488104 0.01092,-2.232125 0.0094,-1.140885 0.0067,-2.281295 0.0024,-3.422202 0.002,-0.722605 0.0047,-1.445208 0.0081,-2.167808 -0.0015,-0.513216 -0.0015,-0.513216 -0.0029,-1.036799 0.006,-0.475768 0.006,-0.475768 0.01234,-0.961148 0.0017,-0.279173 0.0035,-0.558344 0.0052,-0.845972 0.157388,-0.906142 0.34969,-1.136106 1.087662,-1.679818 0.936856,-0.09407 0.936856,-0.09407 1.986583,-0.0602 0.348894,0.0087 0.697787,0.01736 1.057254,0.02633 0.266946,0.01117 0.533894,0.02234 0.80893,0.03386 -0.0011,-0.192414 -0.0024,-0.384828 -0.0036,-0.583072 -0.02835,-4.681244 -0.0496,-9.362481 -0.06296,-14.043788 -0.0067,-2.26385 -0.01566,-4.527646 -0.03035,-6.791458 -0.01416,-2.18375 -0.02163,-4.367438 -0.02496,-6.551229 -0.0024,-0.834129 -0.0071,-1.668256 -0.01394,-2.502359 -0.0094,-1.166231 -0.01055,-2.332215 -0.0101,-3.498475 -0.0046,-0.346639 -0.0093,-0.693278 -0.01399,-1.05042 0.01295,-2.331268 0.01295,-2.331268 0.755365,-3.405214 0.934352,-0.573516 1.511525,-0.512339 2.597503,-0.415194 3.894594,0.388172 3.894594,0.388172 7.438556,-0.832916 1.084518,-1.345199 1.663995,-2.901381 2.236316,-4.516844 0.366247,-0.93892 0.859151,-1.733356 1.405047,-2.576349 1.250061,-1.932287 1.665951,-3.4440451 1.723759,-5.7228705 0.05643,-0.8064126 0.05643,-0.8064126 0.558086,-1.8498702 0.955611,-0.6860796 1.557243,-0.7414649 2.708977,-0.7437145 z M 31.045474,22.845544 c -0.03209,0.807299 -0.04316,1.605798 -0.04077,2.413271 -5.14e-4,0.255709 -9.96e-4,0.511417 -0.0015,0.774875 -0.0014,0.863465 -2.63e-4,1.726912 7.39e-4,2.590378 -4.5e-4,0.616341 -9.96e-4,1.232682 -0.0017,1.849022 -0.0015,1.678902 -8.98e-4,3.3578 1.23e-4,5.036702 8.02e-4,1.752849 5.9e-5,3.505695 -4.5e-4,5.258542 -5.78e-4,2.944195 1.89e-4,5.888393 0.0017,8.832588 0.0017,3.409162 0.0011,6.818318 -5.8e-4,10.22748 -0.0015,2.921328 -0.0017,5.842654 -8.34e-4,8.763982 5.15e-4,1.747281 5.78e-4,3.494562 -4.82e-4,5.241843 -9.3e-4,1.642274 -2.9e-4,3.284538 0.0016,4.926812 4.17e-4,0.60458 2.99e-4,1.209159 -4.17e-4,1.813735 -8.67e-4,0.821664 2.14e-4,1.643302 0.0018,2.464962 -7.06e-4,0.242448 -0.0015,0.484896 -0.0022,0.73469 -0.09331,1.092077 -0.09331,1.092077 0.364003,1.999644 0.441924,0.03131 0.885436,0.04055 1.328466,0.04077 0.286335,9.64e-4 0.572669,0.002 0.86768,0.0029 0.316573,-6.42e-4 0.633146,-0.0014 0.959311,-0.002 0.497208,9.62e-4 0.497208,9.62e-4 1.004462,0.0016 1.101612,0.0014 2.203206,3.2e-4 3.304818,-6.43e-4 0.761794,2.16e-4 1.523591,6.43e-4 2.285385,9.63e-4 1.598947,3.22e-4 3.197887,-2.18e-4 4.796833,-0.0016 2.054711,-0.002 4.109407,-6.42e-4 6.164118,0.0014 1.573763,0.0014 3.147524,6.42e-4 4.721289,-4.3e-5 0.75785,-2.14e-4 1.5157,5.1e-5 2.273549,6.43e-4 1.057145,9.63e-4 2.114265,-3.21e-4 3.171408,-0.0023 0.316573,6.43e-4 0.633146,0.0014 0.959311,0.002 0.286334,-9.63e-4 0.57267,-0.002 0.86768,-0.0029 0.375387,-1.81e-4 0.375387,-1.81e-4 0.758358,-3.2e-4 0.578243,0.02161 0.578243,0.02161 0.891172,-0.361468 0.03203,-0.807298 0.0432,-1.605797 0.04077,-2.413269 5.09e-4,-0.255709 9.95e-4,-0.511419 0.0012,-0.774875 0.0012,-0.863466 2.67e-4,-1.726914 -7.28e-4,-2.59038 4.49e-4,-0.616339 9.95e-4,-1.232682 0.0012,-1.849022 0.0012,-1.678904 8.98e-4,-3.357799 -1.22e-4,-5.036703 -8.01e-4,-1.752845 -6e-5,-3.505694 4.49e-4,-5.25854 5.71e-4,-2.944196 -1.94e-4,-5.888391 -0.0012,-8.83259 -0.0012,-3.409162 -0.0011,-6.818317 5.71e-4,-10.227477 0.0012,-2.921328 0.0012,-5.842656 8.37e-4,-8.763985 -5.1e-4,-1.747281 -5.83e-4,-3.494558 4.86e-4,-5.241842 9.22e-4,-1.642273 2.9e-4,-3.284539 -0.0012,-4.926812 -4.14e-4,-0.604579 -3.04e-4,-1.209159 4.12e-4,-1.813736 8.73e-4,-0.821664 -2.06e-4,-1.643299 -0.0024,-2.464959 7.04e-4,-0.242449 0.0012,-0.484897 0.0024,-0.734692 0.09331,-1.092077 0.09331,-1.092077 -0.364005,-1.999642 -0.441922,-0.03132 -0.885444,-0.04055 -1.32847,-0.04077 -0.286339,-8.99e-4 -0.572673,-0.0018 -0.867685,-0.0027 -0.316572,6.43e-4 -0.633145,0.0014 -0.95931,0.002 -0.331473,-5.78e-4 -0.662945,-0.0011 -1.004463,-0.0017 -1.10161,-0.0015 -2.203205,-4.81e-4 -3.304818,6.09e-4 -0.761795,-2.15e-4 -1.52359,-5.13e-4 -2.285384,-9.3e-4 -1.598947,-4.82e-4 -3.197888,2.18e-4 -4.796833,0.0017 -2.054711,0.0018 -4.109408,7.7e-4 -6.164117,-0.0011 -1.573765,-0.0011 -3.147526,-8.02e-4 -4.721289,4.1e-5 -0.757852,2.14e-4 -1.515701,-5.2e-5 -2.27355,-8.04e-4 -1.057144,-8.02e-4 -2.114265,4.18e-4 -3.171408,0.0022 -0.474859,-9.64e-4 -0.474859,-9.64e-4 -0.959312,-0.002 -0.286334,8.99e-4 -0.572668,0.0018 -0.867679,0.0027 -0.375385,1.8e-4 -0.375385,1.8e-4 -0.758354,3.53e-4 -0.57824,-0.02157 -0.57824,-0.02157 -0.891174,0.3615 z"
       fill="#47884d"
       id="path16"
       style="stroke-width:0.321063" />
    <path
       d="m 32.695003,22.483712 c 0.286334,-9.06e-4 0.57267,-0.0018 0.867679,-0.0028 0.47486,9.75e-4 0.47486,9.75e-4 0.959313,0.002 0.331471,-5.63e-4 0.662944,-0.0011 1.00446,-0.0017 1.101613,-0.0015 2.203208,-4.75e-4 3.304819,6.07e-4 0.761795,-2.16e-4 1.523591,-5.28e-4 2.285386,-9.3e-4 1.598947,-4.75e-4 3.197886,2.16e-4 4.796832,0.0017 2.05471,0.0018 4.109408,7.76e-4 6.164117,-0.0011 1.573765,-0.0011 3.147525,-7.92e-4 4.72129,4e-5 0.75785,2.15e-4 1.5157,-5.1e-5 2.273549,-7.96e-4 1.057144,-8.1e-4 2.114266,4.21e-4 3.171409,0.0022 0.316571,-6.49e-4 0.633144,-0.0014 0.95931,-0.002 0.286335,9.05e-4 0.572669,0.0018 0.867679,0.0028 0.250253,1.22e-4 0.500519,2.43e-4 0.758358,3.67e-4 0.570111,0.0404 0.570111,0.0404 0.891172,0.361468 0.03215,0.807297 0.0432,1.605797 0.04077,2.413269 6.44e-4,0.383563 6.44e-4,0.383563 0.0012,0.774874 0.0012,0.863466 2.67e-4,1.726914 -6.43e-4,2.590379 3.27e-4,0.616342 9.71e-4,1.232683 0.0012,1.849023 0.0012,1.678903 9.71e-4,3.357799 -1.22e-4,5.036703 -9.58e-4,1.752845 -6e-5,3.505693 3.28e-4,5.25854 6.43e-4,2.944197 -1.93e-4,5.888392 -0.0012,8.832588 -0.0012,3.409161 -0.0012,6.818319 6.43e-4,10.227477 0.0012,2.92133 0.0012,5.842659 9.59e-4,8.763987 -6.43e-4,1.747281 -6.43e-4,3.494558 6.43e-4,5.241839 9.58e-4,1.642274 2.92e-4,3.284542 -0.0012,4.926816 -3.27e-4,0.60458 -3.03e-4,1.209155 3.16e-4,1.813735 9.58e-4,0.821664 -2.19e-4,1.643298 -0.0024,2.464958 9.71e-4,0.363672 9.71e-4,0.363672 0.0024,0.734694 -0.006,1.641927 -0.006,1.641927 -0.364005,1.999641 -0.441909,0.03131 -0.885432,0.04055 -1.328458,0.04077 -0.286335,9.62e-4 -0.572669,0.002 -0.867681,0.0029 -0.316573,-6.42e-4 -0.633146,-0.0014 -0.959312,-0.002 -0.331472,6.43e-4 -0.662944,0.0014 -1.004461,0.0016 -1.101612,0.0014 -2.203206,3.2e-4 -3.304818,-6.42e-4 -0.761796,2.15e-4 -1.523591,6.42e-4 -2.285386,9.62e-4 -1.598946,3.22e-4 -3.197887,-2.17e-4 -4.796832,-0.0016 -2.05471,-0.002 -4.109407,-6.43e-4 -6.164118,0.0014 -1.573764,0.0014 -3.147524,6.43e-4 -4.721289,-4e-5 -0.75785,-2.17e-4 -1.515701,5.1e-5 -2.273549,6.41e-4 -1.057144,9.63e-4 -2.114266,-3.22e-4 -3.171409,-0.0023 -0.316572,6.41e-4 -0.633145,0.0014 -0.95931,0.002 -0.286334,-9.64e-4 -0.572669,-0.002 -0.86768,-0.0029 -0.250258,-1.23e-4 -0.500514,-2.43e-4 -0.758353,-3.22e-4 -0.570113,-0.0404 -0.570113,-0.0404 -0.891176,-0.361465 -0.03209,-0.807297 -0.04316,-1.605799 -0.04077,-2.413272 -5.02e-4,-0.255707 -0.001,-0.511416 -0.0016,-0.774874 -0.0014,-0.863463 -2.63e-4,-1.72691 7.45e-4,-2.590376 -4.34e-4,-0.616343 -10e-4,-1.232683 -0.0017,-1.849022 -0.0015,-1.678905 -8.94e-4,-3.357799 1.2e-4,-5.036704 8.1e-4,-1.752847 6e-5,-3.505694 -4.46e-4,-5.258541 -5.84e-4,-2.944195 1.88e-4,-5.888394 0.0017,-8.832588 0.0017,-3.409162 0.0011,-6.818317 -5.87e-4,-10.227478 -0.0015,-2.921329 -0.0017,-5.842656 -8.21e-4,-8.763984 5e-4,-1.747282 5.63e-4,-3.494561 -4.96e-4,-5.241842 -9.24e-4,-1.642275 -2.9e-4,-3.28454 0.0016,-4.926814 4.28e-4,-0.604579 3e-4,-1.209157 -4.04e-4,-1.813736 -8.69e-4,-0.821662 2.14e-4,-1.643299 0.0018,-2.464959 -7.15e-4,-0.242448 -0.0015,-0.484897 -0.0022,-0.734692 0.0075,-2.039603 0.0075,-2.039603 1.692196,-2.040419 z m -0.04421,1.646088 c 0,19.812855 0,39.625706 0,60.038949 10.383207,0 20.766414,0 31.464256,0 0,-19.812853 0,-39.625705 0,-60.038949 -10.383199,0 -20.766406,0 -31.464256,0 z"
       fill="#b4dfb6"
       id="path31"
       style="stroke-width:0.321063" />
    <path
       d="m 30.724409,23.166609 c 0.105948,0 0.211902,0 0.321063,0 0.105948,20.554511 0.211903,41.109022 0.321065,62.286397 11.230816,0 22.46163,0 34.032778,0 0.105937,-20.554512 0.211897,-41.109023 0.321061,-62.286397 0.105935,0 0.211896,0 0.321059,0 0.105937,20.448559 0.211908,40.89712 0.321073,61.965333 0.105935,-2.119021 0.211896,-4.238043 0.321059,-6.421279 0.105937,0 0.211896,0 0.321061,0 0.0375,1.090185 0.06019,2.180208 0.08021,3.270839 0.01092,0.308129 0.02148,0.616254 0.03265,0.933718 0.0036,0.299024 0.0085,0.598046 0.0125,0.906129 0.0097,0.41109 0.0097,0.41109 0.02039,0.830486 -0.212005,1.164994 -0.548974,1.603616 -1.430062,2.40649 -1.099598,0.244564 -2.185943,0.215893 -3.308458,0.202624 -0.336329,0.0023 -0.672657,0.0046 -1.019177,0.0069 -1.112729,0.0054 -2.225044,-9.63e-4 -3.337759,-0.0076 -0.772509,2.64e-4 -1.545017,9.64e-4 -2.317525,0.0023 -1.61943,9.64e-4 -3.238721,-0.0038 -4.858128,-0.01261 -2.07734,-0.01093 -4.154423,-0.009 -6.231774,-0.0029 -1.595305,0.0034 -3.190549,6.42e-4 -4.785848,-0.0043 -0.766014,-0.0016 -1.532033,-0.0016 -2.298046,6.44e-4 -1.070042,0.0016 -2.139717,-0.0047 -3.209717,-0.01358 -0.317602,0.0023 -0.635203,0.0043 -0.962427,0.0064 -2.139437,-0.02995 -2.139437,-0.02995 -3.187105,-0.778718 -0.554003,-0.854101 -0.576595,-1.359576 -0.523473,-2.368895 0.01165,-0.286399 0.02318,-0.572798 0.03511,-0.867878 0.01491,-0.216866 0.0298,-0.433735 0.04516,-0.657177 0.211902,0 0.423804,0 0.642128,0 0.158926,-29.401425 0.158926,-29.401425 0.321064,-59.396821 z"
       fill="#74a578"
       id="path69"
       style="stroke-width:0.321063" />
    <path
       d="m 47.740797,6.1502207 c 1.462624,0.1783688 1.462624,0.1783688 1.926383,0.6421279 0.01044,0.5484426 0.01775,1.0969445 0.02383,1.6454524 0.187418,2.457156 1.233022,4.324237 2.445683,6.405445 0.362418,0.622212 0.71454,1.249425 1.065328,1.878255 1.361359,2.439391 1.361359,2.439391 3.207502,4.518725 -0.321063,0.642127 -0.321063,0.642127 -0.642128,0.963191 -0.474047,0.03154 -0.949627,0.04165 -1.42472,0.04012 -0.257841,8.35e-4 -0.515684,0.0017 -0.781339,0.0025 -0.683515,-0.04265 -0.683515,-0.04265 -1.325643,-0.363701 -0.605119,-0.04927 -1.211786,-0.08013 -1.818526,-0.101581 -0.540103,-0.02018 -0.540103,-0.02018 -1.091116,-0.04076 -0.566176,-0.01893 -0.566176,-0.01893 -1.14379,-0.03825 -0.379934,-0.01388 -0.759867,-0.02773 -1.151315,-0.04201 -0.940577,-0.03413 -1.881184,-0.06689 -2.821851,-0.09845 0.404106,-1.055706 0.854142,-2.040765 1.407162,-3.026277 0.142787,-0.255567 0.285573,-0.511131 0.432685,-0.774442 0.147752,-0.262187 0.295504,-0.524375 0.447734,-0.794507 0.150235,-0.268396 0.300469,-0.536791 0.455258,-0.813321 0.369114,-0.65913 0.739112,-1.317749 1.109927,-1.975922 0.211903,0 0.423805,0 0.642129,0 0.537311,0.948582 1.071596,1.898837 1.60532,2.849443 0.153131,0.270258 0.306264,0.540516 0.464037,0.818964 0.144855,0.258669 0.289709,0.517338 0.438954,0.783846 0.134508,0.238752 0.269017,0.477504 0.407601,0.723492 0.294726,0.603405 0.294726,0.603405 0.294726,1.245533 0.317854,0 0.635708,0 0.963193,0 0,0.317854 0,0.635707 0,0.963191 0.317853,0 0.635706,0 0.963191,0 -1.297116,-2.463138 -2.606773,-4.918799 -3.973169,-7.344342 -0.106991,-0.192709 -0.213972,-0.385418 -0.324199,-0.583968 -0.555052,-1.033557 -0.555052,-1.033557 -1.481786,-1.703613 -0.07366,0.206108 -0.147339,0.412216 -0.223239,0.624569 -0.568515,1.331074 -1.274329,2.570033 -1.984075,3.830193 -0.209211,0.374347 -0.209211,0.374347 -0.42265,0.756256 -0.82741,1.478403 -1.664397,2.951145 -2.507058,4.4209 -0.529755,0 -1.059511,0 -1.60532,0 0.176914,-1.672335 1.007509,-2.96319 1.826051,-4.394562 0.144623,-0.258955 0.289246,-0.517909 0.43825,-0.78471 0.75481,-1.343284 1.547446,-2.63419 2.411192,-3.910851 0.960554,-1.541729 1.013135,-3.0276486 1.038442,-4.8159582 0.06521,-0.8628592 0.06521,-0.8628592 0.707344,-1.5049871 z"
       fill="#5ca55e"
       id="path75"
       style="stroke-width:0.321063" />
    <path
       d="m 57.051649,22.845544 c 2.860678,0 5.721359,0 8.668727,0 0.02184,2.629235 0.03944,5.258398 0.04987,7.8877 0.0049,1.221138 0.01214,2.44221 0.02281,3.663312 0.01092,1.180361 0.01626,2.36066 0.01869,3.541064 0.0012,0.448369 0.0049,0.896734 0.01093,1.345076 0.0073,0.632181 0.0073,1.264426 0.0073,1.896647 0.0036,0.537927 0.0036,0.537927 0.006,1.086721 -0.09926,0.966756 -0.260932,1.583357 -0.595583,2.472886 -0.630203,1.779484 -0.624767,3.477635 -0.622256,5.350072 -0.0036,0.369943 -0.006,0.739884 -0.0097,1.121036 -0.0097,1.214281 -0.01262,2.428482 -0.01553,3.642798 -0.0049,0.845276 -0.01092,1.69055 -0.01747,2.535818 -0.01396,1.99206 -0.02318,3.984108 -0.03058,5.9762 -0.0085,2.269623 -0.02281,4.539205 -0.03737,6.8088 -0.02973,4.665 -0.05278,9.330016 -0.07135,13.995075 -0.105936,0 -0.211908,0 -0.321072,0 0,-19.812853 0,-39.625707 0,-60.03895 -10.383204,0 -20.766411,0 -31.464259,0 0,19.812855 0,39.625707 0,60.03895 -0.105949,0 -0.211903,0 -0.321063,0 0,-19.918805 0,-39.837609 0,-60.360013 8.476086,0 16.952172,0 25.685111,0 0,-0.211903 0,-0.423805 0,-0.642129 -0.317855,-0.105947 -0.635707,-0.211902 -0.963192,-0.321063 z"
       fill="#a4d5a6"
       id="path76"
       style="stroke-width:0.321063" />
    <path
       d="m 65.399315,43.393633 c 0.105937,0 0.211897,0 0.321061,0 0,13.773642 0,27.547284 0,41.738307 -0.741649,0.105949 -1.48331,0.211903 -2.247444,0.321064 0,-0.105948 0,-0.211902 0,-0.321064 -0.741657,-0.105948 -1.483315,-0.211902 -2.247446,-0.321063 0,0.211903 0,0.423805 0,0.642127 -7.812556,0 -15.625111,0 -23.437666,0 0,-0.105948 0,-0.211902 0,-0.321064 -0.529755,-0.105948 -1.05951,-0.211902 -1.605319,-0.321063 0,-0.105948 0,-0.211902 0,-0.321065 13.826617,-0.158927 13.826617,-0.158927 27.932564,-0.321063 0.01213,-2.701338 0.02403,-5.402677 0.0364,-8.185874 0.01092,-1.931382 0.02245,-3.86275 0.03495,-5.794119 0.01602,-2.500365 0.03058,-5.000712 0.03993,-7.50111 0.0085,-2.192117 0.02135,-4.384159 0.0375,-6.57623 0.0049,-0.835474 0.0085,-1.670958 0.01092,-2.506444 0.0036,-1.172059 0.01214,-2.343935 0.02245,-3.51595 -6.92e-4,-0.515803 -6.92e-4,-0.515803 -0.0012,-1.042026 0.0256,-2.05289 0.318087,-3.752046 1.103408,-5.653363 z"
       fill="#bae4bb"
       id="path81"
       style="stroke-width:0.321063" />
    <path
       d="m 26.871642,61.052149 c 0.953559,0 1.90712,0 2.889576,0 0,5.403505 0,10.807011 0,16.374259 -0.953561,0 -1.90712,0 -2.889576,0 -0.78935,-0.78935 -0.723122,-1.005453 -0.725215,-2.090051 -0.0021,-0.299991 -0.004,-0.599983 -0.0061,-0.909068 0.0014,-0.324746 0.0025,-0.649492 0.0039,-0.984079 -6.12e-4,-0.332507 -0.0012,-0.665016 -0.0018,-1.007598 -4.38e-4,-0.703882 7.51e-4,-1.407768 0.0034,-2.111645 0.0034,-1.080253 3.3e-5,-2.160335 -0.0042,-3.240583 4.23e-4,-0.682678 0.0013,-1.365358 0.0025,-2.048035 -0.0014,-0.324747 -0.0025,-0.649495 -0.0039,-0.984082 0.0021,-0.299992 0.004,-0.599985 0.0061,-0.909068 5.1e-4,-0.264708 0.001,-0.529418 0.0016,-0.80215 0.08154,-0.645771 0.08154,-0.645771 0.72367,-1.2879 z"
       fill="#5aa85f"
       id="path91"
       style="stroke-width:0.321063" />
    <path
       d="m 67.004628,61.052149 c 2.528373,0 2.528373,0 3.531706,0.642129 0.0085,2.143166 0.01371,4.286329 0.01759,6.429508 0.0012,0.72971 0.0036,1.45942 0.006,2.189129 0.0036,1.046359 0.006,2.092707 0.0073,3.139074 0.0013,0.328418 0.0036,0.656836 0.0049,0.995206 2.4e-5,0.302089 4.9e-5,0.604179 7.3e-5,0.915422 7.16e-4,0.267358 0.0012,0.534717 0.0024,0.810178 -0.03859,0.611485 -0.03859,0.611485 -0.359672,0.932549 -1.059505,0 -2.119022,0 -3.210636,0 0,-5.297553 0,-10.595108 0,-16.053195 z"
       fill="#5ba85f"
       id="path94"
       style="stroke-width:0.321063" />
    <path
       d="m 30.403346,54.630871 c 0.105947,0 0.211902,0 0.321063,0 0,9.217744 0,18.435489 0,27.932559 -0.317852,0 -0.635706,0 -0.963191,0 0,-1.377364 0,-2.754728 0,-4.173831 -0.556243,0.02649 -1.112487,0.05298 -1.685585,0.08027 -1.047105,0.04986 -1.636624,0.04902 -2.534415,-0.505033 -0.960586,-1.385352 -0.772616,-2.817216 -0.755237,-4.462679 -4.81e-4,-0.352216 -9.3e-4,-0.704431 -0.0015,-1.06732 5.46e-4,-0.744051 0.0043,-1.488107 0.01092,-2.232128 0.0094,-1.140885 0.0067,-2.281292 0.0024,-3.422199 0.002,-0.722605 0.0047,-1.445209 0.0081,-2.167809 -9.31e-4,-0.342145 -0.002,-0.684288 -0.0029,-1.0368 0.0042,-0.317179 0.0081,-0.634358 0.01234,-0.961149 0.0017,-0.27917 0.0035,-0.558341 0.0052,-0.845973 0.151483,-0.872222 0.379392,-1.160897 1.08765,-1.679818 0.936855,-0.09406 0.936855,-0.09406 1.986583,-0.0602 0.348894,0.0087 0.697787,0.01737 1.057253,0.02633 0.400421,0.01676 0.400421,0.01676 0.808931,0.03386 0.01945,-0.313301 0.03891,-0.626602 0.05895,-0.949396 0.02691,-0.408492 0.0538,-0.816982 0.08152,-1.237851 0.02607,-0.40601 0.05214,-0.812018 0.07901,-1.230328 0.101592,-1.07732 0.101592,-1.07732 0.42265,-2.040511 z m -3.531704,6.421278 c -0.78935,0.78935 -0.723121,1.005453 -0.725215,2.09005 -0.0021,0.299993 -0.004,0.599984 -0.0061,0.909068 0.0014,0.324746 0.0025,0.649492 0.0039,0.984082 -6.09e-4,0.332506 -0.0012,0.665013 -0.0018,1.007595 -4.5e-4,0.703884 7.37e-4,1.407769 0.0034,2.111645 0.0034,1.080254 3.3e-5,2.160335 -0.0042,3.240583 4.17e-4,0.68268 0.0013,1.365358 0.0025,2.048036 -0.002,0.487121 -0.002,0.487121 -0.0039,0.984081 0.0021,0.299993 0.004,0.599985 0.0061,0.909068 5.13e-4,0.26471 0.001,0.529418 0.0016,0.80215 0.0238,0.719222 0.0238,0.719222 0.723667,1.2879 0.95356,0 1.907119,0 2.889575,0 0,-5.403505 0,-10.807009 0,-16.374258 -0.953559,0 -1.90712,0 -2.889575,0 z"
       fill="#418349"
       id="path98"
       style="stroke-width:0.321063" />
    <path
       d="m 57.372714,21.240226 c 1.36448,-0.02796 2.728886,-0.04508 4.093564,-0.0602 0.387384,-0.0081 0.774768,-0.01614 1.173891,-0.02445 0.372483,-0.0031 0.744967,-0.0061 1.12874,-0.0095 0.343,-0.0051 0.685987,-0.0101 1.039387,-0.01529 1.058582,0.126911 1.433908,0.340424 2.196332,1.072539 0.15803,0.705177 0.15803,0.705177 0.154437,1.541921 0.0012,0.317398 0.0036,0.634795 0.0049,0.961809 -0.0049,0.347795 -0.0097,0.695586 -0.01396,1.053919 1.82e-4,0.366528 3.88e-4,0.733056 5.82e-4,1.110691 -8.98e-4,1.214416 -0.01092,2.42858 -0.02099,3.642951 -0.0024,0.840828 -0.0036,1.681656 -0.006,2.522484 -0.0036,1.988764 -0.01456,3.977434 -0.02743,5.966158 -0.01432,2.264106 -0.02148,4.528219 -0.02791,6.79236 -0.01347,4.657442 -0.03628,9.314808 -0.06468,13.972184 0.953569,0 1.907126,0 2.889576,0 0,0.105948 0,0.211902 0,0.321064 -1.271414,0 -2.542826,0 -3.852767,0 -0.0036,-0.461854 -0.006,-0.923708 -0.0097,-1.399557 -0.03131,-4.342025 -0.06431,-8.684036 -0.09889,-13.026037 -0.01772,-2.23253 -0.03495,-4.465061 -0.05073,-6.697605 -0.01517,-2.152524 -0.03203,-4.305031 -0.05,-6.457536 -0.006,-0.823263 -0.01261,-1.64653 -0.01808,-2.4698 -0.0073,-1.148686 -0.01735,-2.29734 -0.02743,-3.446009 -0.0024,-0.516146 -0.0024,-0.516146 -0.006,-1.042718 -0.0036,-0.311111 -0.006,-0.622224 -0.0097,-0.942762 -0.0024,-0.271982 -0.0036,-0.543966 -0.006,-0.824189 0.02281,-0.618813 0.02281,-0.618813 -0.365582,-0.9372 -0.664885,-0.05087 -1.331383,-0.08065 -1.997875,-0.101591 -0.606839,-0.02018 -0.606839,-0.02018 -1.225938,-0.04076 -0.430383,-0.01279 -0.860767,-0.02553 -1.291153,-0.03825 -0.431644,-0.01385 -0.863282,-0.02786 -1.294916,-0.04201 -1.059934,-0.0342 -2.119895,-0.06695 -3.179912,-0.09845 0,-0.105949 0,-0.211903 0,-0.321064 1.589266,-0.105948 3.178532,-0.211902 4.815958,-0.321064 -1.271412,-0.105948 -2.542826,-0.211902 -3.852767,-0.321064 0,-0.105948 0,-0.211902 0,-0.321064 z"
       fill="#548758"
       id="path111"
       style="stroke-width:0.321063" />
    <path
       d="m 33.067181,21.11481 c 0.580454,0.0061 0.580454,0.0061 1.172635,0.01253 0.402697,0.0108 0.805395,0.02153 1.220294,0.0326 0.407663,0.0058 0.815326,0.01153 1.235343,0.01756 1.006495,0.01514 2.012502,0.03626 3.018753,0.06271 0.105948,0.211902 0.211902,0.423805 0.321064,0.642129 2.013072,0.105948 4.026142,0.211902 6.100214,0.321064 0,0.105948 0,0.211902 0,0.321063 -0.184313,0.0032 -0.368627,0.0067 -0.558525,0.0101 -1.911308,0.03462 -3.822568,0.07143 -5.73381,0.109503 -0.714126,0.01395 -1.428264,0.02731 -2.142411,0.04012 -1.024079,0.01847 -2.048101,0.03894 -3.072134,0.05981 -0.482093,0.008 -0.482093,0.008 -0.973924,0.01626 -0.295662,0.0065 -0.591323,0.01281 -0.895943,0.01941 -0.261656,0.005 -0.523312,0.01 -0.792897,0.01512 -0.60382,-0.01369 -0.60382,-0.01369 -0.920359,0.371862 -0.03684,0.955123 -0.05294,1.903088 -0.05574,2.858535 -0.0022,0.300231 -0.0043,0.600462 -0.0066,0.909792 -0.0045,0.655029 -0.0083,1.310062 -0.01153,1.965098 -0.0052,1.039664 -0.01273,2.079291 -0.02083,3.118936 -0.02273,2.957209 -0.04192,5.914434 -0.05847,8.871683 -0.01031,1.807359 -0.02354,3.614673 -0.03859,5.421997 -0.0051,0.686554 -0.0091,1.373116 -0.0119,2.059682 -0.01443,3.532432 -0.03989,6.959436 -0.759665,10.432372 -0.105949,0 -0.211904,0 -0.321064,0 -0.03,-4.708155 -0.05266,-9.416294 -0.06653,-14.124522 -0.0067,-2.18611 -0.01566,-4.372162 -0.03035,-6.558235 -0.01417,-2.108798 -0.02163,-4.217551 -0.02496,-6.326399 -0.0024,-0.805454 -0.0071,-1.610906 -0.01395,-2.416333 -0.0094,-1.126251 -0.01055,-2.252245 -0.0101,-3.378528 -0.0046,-0.334628 -0.0093,-0.669258 -0.01399,-1.014029 0.01295,-2.251411 0.01295,-2.251411 0.75218,-3.312455 0.944345,-0.592349 1.603558,-0.580336 2.713561,-0.559392 z"
       fill="#4c8452"
       id="path112"
       style="stroke-width:0.321063" />
    <path
       d="m 49.025052,5.0051765 c 0.944516,0.2674899 1.337815,0.689199 1.926384,1.4661082 0.08277,0.8465553 0.08277,0.8465553 0.04012,1.8260509 0.133837,2.8488214 1.561918,4.7703814 3.063118,7.0955434 0.430327,0.713433 0.787799,1.432931 1.137049,2.188974 0.633023,1.342373 1.228073,2.51015 2.180978,3.658373 1.444193,0.509715 2.665541,0.526208 4.17383,0.321063 -1.57533,1.57533 -5.53909,0.987856 -7.753192,0.994545 -0.880444,-8.02e-4 -1.760827,-0.0058 -2.641251,-0.01128 -0.459021,-0.0016 -0.918042,-0.003 -1.377064,-0.0044 -1.106178,-0.0035 -2.212333,-0.009 -3.318497,-0.01568 0,-0.105948 0,-0.211902 0,-0.321063 3.072583,0 6.145164,0 9.310854,0 0.105948,-0.211902 0.211902,-0.423804 0.321063,-0.642128 C 55.929527,21.402384 55.929527,21.402384 55.76739,21.240247 54.873963,19.871441 54.036379,18.469779 53.198879,17.066416 52.970345,16.688034 52.970345,16.688034 52.737193,16.302008 49.052573,10.151002 49.052573,10.151002 49.346112,6.7923705 48.816357,6.68642 48.2866,6.5804683 47.740792,6.4713066 47.59511,6.7361842 47.449426,7.001062 47.29933,7.2739663 47.12716,7.5388439 46.954989,7.8037218 46.777601,8.076626 c -0.211902,0 -0.423804,0 -0.642128,0 0,0.7416571 0,1.4833154 0,2.247447 -0.105948,0 -0.211902,0 -0.321064,0 -0.196357,-3.1144434 -0.196357,-3.1144434 0.481596,-4.5550937 0.969982,-0.7032379 1.558071,-0.761494 2.729043,-0.763781 z"
       fill="#47854c"
       id="path146"
       style="stroke-width:0.321063" />
    <path
       d="m 48.06186,14.176818 c 0.211902,0 0.423804,0 0.642128,0 0.643237,1.1164 1.284957,2.233665 1.926384,3.351105 0.183758,0.318888 0.367517,0.637776 0.556844,0.966328 0.173826,0.30316 0.347652,0.606321 0.526745,0.91867 0.161411,0.280784 0.322821,0.56157 0.489122,0.850865 0.353672,0.655375 0.353672,0.655375 0.353672,0.97644 -2.648778,0 -5.297554,0 -8.026598,0 0.722394,-2.167183 0.722394,-2.167183 1.336931,-3.238232 0.128299,-0.22556 0.2566,-0.45112 0.388788,-0.683514 0.132438,-0.228872 0.264877,-0.457742 0.401329,-0.693549 0.134923,-0.236321 0.269845,-0.472641 0.408855,-0.716124 0.330404,-0.578206 0.662892,-1.155221 0.9958,-1.731989 z"
       fill="#f6fcf6"
       id="path159"
       style="stroke-width:0.321063" />
    <path
       d="m 32.650793,84.168749 c 10.383206,0 20.766413,0 31.464259,0 0,0.105948 0,0.211902 0,0.321063 -12.237347,0.158927 -12.237347,0.158927 -24.721917,0.321065 0,0.105949 0,0.211903 0,0.321063 1.988358,0.0079 3.976708,0.01376 5.965079,0.01763 0.676409,0.0016 1.352817,0.0037 2.029224,0.0066 0.972286,0.0039 1.944559,0.0057 2.916852,0.0072 0.30238,0.0017 0.604758,0.0032 0.916299,0.005 0.424098,3.5e-5 0.424098,3.5e-5 0.856764,7.4e-5 0.24811,7.11e-4 0.49622,0.0015 0.751847,0.0022 0.696285,-0.03892 1.306023,-0.167871 1.975002,-0.359674 0,0.105948 0,0.211902 0,0.321064 2.224973,0.158927 2.224973,0.158927 4.494894,0.321063 0,-0.211902 0,-0.423804 0,-0.642127 0.642129,0 1.284257,0 1.926384,0 0.254117,-0.0074 0.508234,-0.01491 0.770051,-0.02257 0.473057,-0.0088 0.473057,-0.0088 0.955668,-0.01756 0.313715,-0.0074 0.627429,-0.01491 0.950649,-0.02257 0.855336,0.06271 0.855336,0.06271 1.818528,0.704834 -0.321061,0.321065 -0.321061,0.321065 -0.89207,0.36057 -0.25068,-2.96e-4 -0.501346,-5.9e-4 -0.759621,-8.95e-4 -0.286798,4.39e-4 -0.573596,8.83e-4 -0.869086,0.0014 -0.475615,-0.0017 -0.475615,-0.0017 -0.960839,-0.0035 -0.497983,6.9e-5 -0.497983,6.9e-5 -1.006025,1.42e-4 -1.103156,-2.24e-4 -2.206294,-0.0027 -3.309447,-0.0052 -0.762565,-5.96e-4 -1.525129,-0.001 -2.287694,-0.0014 -2.011546,-0.0012 -4.023086,-0.0044 -6.034631,-0.0079 -2.050837,-0.0032 -4.101675,-0.0047 -6.152515,-0.0064 -4.027307,-0.0034 -8.054609,-0.0089 -12.081911,-0.01568 0,-0.105948 0,-0.211902 0,-0.321065 0.847609,0 1.695218,0 2.568511,0 0,-0.211902 0,-0.423804 0,-0.642127 -0.423804,-0.211902 -0.847609,-0.423804 -1.284255,-0.642128 z"
       fill="#a8d7aa"
       id="path170"
       style="stroke-width:0.321063" />
    <path
       d="m 30.403346,54.630871 c 0.105947,0 0.211902,0 0.321063,0 0.0093,1.277561 0.01501,2.555114 0.02007,3.8327 0.0027,0.364828 0.0053,0.729655 0.0081,1.105538 0.0016,0.519926 0.0016,0.519926 0.0031,1.050356 0.0025,0.481707 0.0025,0.481707 0.0051,0.973147 -0.03645,0.743793 -0.03645,0.743793 -0.357513,1.064856 -0.0159,0.905071 -0.01315,1.804172 0,2.708976 0.03288,4.024972 -0.142724,8.039715 -0.321064,12.059963 -0.105948,0 -0.211902,0 -0.321064,0 0,-5.403505 0,-10.807009 0,-16.374258 -2.678152,0.07358 -2.678152,0.07358 -3.852767,0.963192 -0.317853,0 -0.635707,0 -0.963192,0 0.184114,-0.92057 0.276582,-1.239773 0.963192,-1.926384 0.9055,-0.06271 0.9055,-0.06271 1.966516,-0.04012 0.351791,0.0058 0.703582,0.01153 1.066033,0.01756 0.270672,0.0074 0.541344,0.01491 0.820218,0.02257 0.01945,-0.313301 0.0389,-0.626602 0.05895,-0.949396 0.02691,-0.408491 0.0538,-0.816983 0.08152,-1.237852 0.02607,-0.406009 0.05214,-0.812016 0.07901,-1.230328 0.101592,-1.077319 0.101592,-1.077319 0.42265,-2.040511 z"
       fill="#468c4c"
       id="path251"
       style="stroke-width:0.321063" />
    <path
       d="m 25.90845,61.373212 c 0.313486,0.940456 0.36003,1.537979 0.357513,2.5167 -2.4e-5,0.314897 -4.9e-5,0.629793 -7.3e-5,0.954231 -0.0017,0.339151 -0.0032,0.678299 -0.005,1.027727 -4.53e-4,0.347828 -9.09e-4,0.695656 -0.0014,1.054024 -0.0018,1.112268 -0.0058,2.224513 -0.01,3.336776 -0.0016,0.753537 -0.003,1.507077 -0.0044,2.260615 -0.0035,1.848424 -0.0089,3.696836 -0.01568,5.54525 -0.633016,-0.388185 -0.633016,-0.388185 -1.284256,-0.963191 -0.154437,-0.688703 -0.154437,-0.688703 -0.145796,-1.494562 9.8e-5,-0.30204 1.94e-4,-0.604081 2.94e-4,-0.915274 0.0067,-0.325104 0.01325,-0.650209 0.02008,-0.985164 0.0018,-0.333576 0.0036,-0.667152 0.0054,-1.010835 0.0072,-1.066606 0.02331,-2.132865 0.03965,-3.199366 0.0065,-0.722598 0.0123,-1.445202 0.01756,-2.167809 0.01418,-1.772449 0.03567,-3.544696 0.06272,-5.316993 0.317853,0 0.635706,0 0.963191,0 0,-0.211903 0,-0.423805 0,-0.642129 z"
       fill="#3c7c45"
       id="path266"
       style="stroke-width:0.321063" />
    <path
       d="m 66.041435,60.088957 c 1.271414,0 2.542826,0 3.852767,0 0,0.105948 0,0.211902 0,0.321064 -0.635712,0 -1.271412,0 -1.926383,0 0,0.211902 0,0.423804 0,0.642128 -0.317856,0 -0.635712,0 -0.963191,0 -0.0024,0.202999 -0.0049,0.405998 -0.0073,0.615149 -0.02754,2.109326 -0.05958,4.218555 -0.09404,6.32778 -0.01226,0.787593 -0.02354,1.575203 -0.03349,2.36283 -0.01469,1.130923 -0.03325,2.261719 -0.05267,3.392568 -0.0036,0.353197 -0.0073,0.706392 -0.01092,1.070291 -0.006,0.327752 -0.01274,0.655505 -0.01929,0.993189 -0.0049,0.288747 -0.0085,0.577496 -0.01298,0.874994 -0.08944,0.737458 -0.08944,0.737458 -0.731541,1.70065 0,-6.039213 0,-12.078424 0,-18.300643 z"
       fill="#3f8447"
       id="path288"
       style="stroke-width:0.321063" />
    <path
       d="m 31.914144,21.167327 c 0.35981,0.0034 0.719619,0.0067 1.090332,0.01021 0.583558,0.0031 0.583558,0.0031 1.178906,0.0064 0.408077,0.0053 0.816154,0.0108 1.236597,0.01631 0.410561,0.0029 0.821122,0.0058 1.244124,0.0087 1.016761,0.0076 2.033404,0.01817 3.050107,0.03135 0.105947,0.211902 0.211902,0.423804 0.321064,0.642128 2.01307,0.105948 4.026141,0.211902 6.100214,0.321063 0,0.105948 0,0.211902 0,0.321064 -2.085684,0.04586 -4.171373,0.09158 -6.257063,0.137173 -0.709749,0.01553 -1.419496,0.0311 -2.129244,0.04672 -1.019285,0.02242 -2.038575,0.0447 -3.057866,0.06695 -0.318081,0.0071 -0.636163,0.01404 -0.963882,0.02128 -0.443419,0.0096 -0.443419,0.0096 -0.895796,0.01948 -0.390345,0.0086 -0.390345,0.0086 -0.788576,0.01728 -0.546494,0.0098 -1.093121,0.01219 -1.639704,0.01219 0,-1.275202 0.233783,-1.571051 1.510787,-1.678218 z"
       fill="#609366"
       id="path290"
       style="stroke-width:0.321063" />
    <path
       d="m 71.178466,60.731084 c 0.642132,0.642128 0.642132,0.642128 0.719345,1.30441 -0.0012,0.272351 -0.0024,0.544701 -0.0049,0.825304 -7.3e-5,0.462738 -7.3e-5,0.462738 -1.46e-4,0.934826 -0.0036,0.333784 -0.006,0.667568 -0.0097,1.011467 -9.11e-4,0.341156 -0.0013,0.682312 -0.0024,1.033807 -0.0036,1.092696 -0.01214,2.18531 -0.01978,3.27798 -0.0036,0.739533 -0.006,1.479068 -0.0085,2.218603 -0.0073,1.815628 -0.01783,3.631207 -0.03131,5.446798 -0.105936,0 -0.211909,0 -0.321072,0 -0.105937,-3.602336 -0.211896,-7.204673 -0.32106,-10.916173 -0.211896,0 -0.423805,0 -0.642132,0 0,-1.377363 0,-2.754728 0,-4.17383 -0.847609,-0.211902 -1.695217,-0.423804 -2.568503,-0.642128 0,-0.211902 0,-0.423804 0,-0.642127 1.306689,-0.296975 2.075555,-0.449169 3.210635,0.321063 z"
       fill="#568e5c"
       id="path322"
       style="stroke-width:0.321063" />
    <path
       d="m 57.372714,21.240226 c 1.36448,-0.02796 2.728886,-0.04508 4.093564,-0.0602 0.387384,-0.0081 0.774768,-0.01614 1.173891,-0.02445 0.372483,-0.0031 0.744967,-0.0061 1.12874,-0.0095 0.343,-0.0051 0.685987,-0.0101 1.039387,-0.01529 1.018404,0.122093 1.448956,0.389016 2.196332,1.072539 -0.105937,0.423805 -0.211897,0.847609 -0.321061,1.284255 0,-0.211902 0,-0.423804 0,-0.642127 -0.317856,0.105948 -0.635712,0.211902 -0.963191,0.321064 -0.105937,-0.105948 -0.211909,-0.211902 -0.321061,-0.321064 -0.664883,-0.05087 -1.331382,-0.08065 -1.997874,-0.101591 -0.606839,-0.02018 -0.606839,-0.02018 -1.225937,-0.04076 -0.430385,-0.01279 -0.860768,-0.02553 -1.291154,-0.03825 -0.431644,-0.01385 -0.863282,-0.02786 -1.294915,-0.04201 -1.059935,-0.0342 -2.119896,-0.06695 -3.179913,-0.09845 0,-0.105949 0,-0.211903 0,-0.321064 1.589266,-0.105948 3.178533,-0.211902 4.815959,-0.321064 -1.271414,-0.105948 -2.542826,-0.211902 -3.852767,-0.321064 0,-0.105948 0,-0.211902 0,-0.321064 z"
       fill="#6a9970"
       id="path376"
       style="stroke-width:0.321063" />
    <path
       d="m 66.683567,78.710663 c 0.105937,0 0.211896,0 0.321061,0 0.02803,1.096916 0.04514,2.193742 0.06019,3.290905 0.0085,0.310818 0.01613,0.621635 0.02451,0.941872 0.0036,0.300056 0.006,0.600113 0.0097,0.909262 0.0049,0.275742 0.0097,0.551485 0.01529,0.835582 -0.138482,0.968539 -0.353194,1.383447 -1.072539,2.048977 -0.869439,0.150891 -0.869439,0.150891 -1.911324,0.136703 -0.377869,-0.0027 -0.755734,-0.0053 -1.145049,-0.0081 -0.395249,-0.0094 -0.790495,-0.01863 -1.197719,-0.02822 -0.390281,-0.0031 -0.780561,-0.0061 -1.182669,-0.0095 -1.85308,-0.02324 -3.654628,-0.07997 -5.479408,-0.411989 0,-0.105949 0,-0.211904 0,-0.321064 0.459282,0.0075 0.459282,0.0075 0.927841,0.01529 1.136239,0.01744 2.272463,0.02849 3.408795,0.03763 0.491754,0.0049 0.983494,0.01141 1.475201,0.01976 0.706935,0.01165 1.413686,0.01715 2.1207,0.0214 0.329642,0.0074 0.329642,0.0074 0.665941,0.01506 0.894304,3.16e-4 1.52833,-0.01525 2.29324,-0.502931 0.439191,-0.723748 0.482913,-1.223271 0.509816,-2.068104 0.01092,-0.286606 0.02281,-0.573212 0.03446,-0.868502 0.0073,-0.298195 0.01444,-0.596389 0.02197,-0.903621 0.01093,-0.301918 0.02197,-0.603838 0.03325,-0.914906 0.02646,-0.745138 0.04866,-1.490157 0.0671,-2.235532 z"
       fill="#57865b"
       id="path419"
       style="stroke-width:0.321063" />
    <path
       d="m 43.566965,12.892562 c 0.211902,0 0.423804,0 0.642128,0 -0.489017,1.747682 -1.317382,3.175706 -2.247447,4.715628 -0.217283,0.365345 -0.217283,0.365345 -0.438955,0.738069 -0.58454,0.97971 -1.175476,1.944441 -1.808493,2.893967 -0.86866,0.109345 -0.86866,0.109345 -1.958992,0.09405 -0.583559,-0.0046 -0.583559,-0.0046 -1.178905,-0.0095 -0.408078,-0.0081 -0.816155,-0.01614 -1.236598,-0.02445 -0.410561,-0.0044 -0.821122,-0.0087 -1.244123,-0.01317 -1.016837,-0.01141 -2.033406,-0.02726 -3.050108,-0.04703 0,-0.105948 0,-0.211902 0,-0.321064 3.973167,-0.158926 3.973167,-0.158926 8.026598,-0.321063 0.317854,-0.635707 0.635706,-1.271413 0.963192,-1.926383 0.266402,-0.472724 0.539776,-0.941646 0.822726,-1.404655 0.132854,-0.221008 0.265706,-0.442014 0.402585,-0.66972 0.125402,-0.163064 0.250805,-0.326128 0.380008,-0.494135 0.211903,0 0.423805,0 0.642129,0 0,-0.423806 0,-0.84761 0,-1.284256 0.211902,0 0.423804,0 0.642127,0 0.04635,-0.198658 0.09271,-0.397316 0.140466,-0.601995 0.180599,-0.68226 0.180599,-0.68226 0.501662,-1.324389 z"
       fill="#e5f9e6"
       id="path433"
       style="stroke-width:0.321063" />
    <path
       d="m 56.088458,19.634905 c 0.167204,0.259497 0.334408,0.518995 0.506679,0.786355 0.995376,1.048356 1.523982,1.037207 2.944757,1.07983 0.563694,0.02297 0.563694,0.02297 1.138775,0.04641 0.286397,0.0046 0.572797,0.0091 0.867875,0.0138 -1.575331,1.575331 -5.539092,0.987856 -7.753191,0.994545 -0.880445,-8e-4 -1.760828,-0.0058 -2.641254,-0.01128 -0.45902,-0.0016 -0.918041,-0.003 -1.377062,-0.0044 -1.106177,-0.0035 -2.212333,-0.009 -3.318496,-0.01568 0,-0.105948 0,-0.211902 0,-0.321064 3.072581,0 6.145162,0 9.310853,0 0.105948,-0.211902 0.211902,-0.423804 0.321064,-0.642128 -0.105948,-0.105948 -0.211902,-0.211902 -0.321064,-0.321063 0,-0.963192 0,-0.963192 0.321064,-1.605321 z"
       fill="#548e59"
       id="path462"
       style="stroke-width:0.321063" />
    <path
       d="m 49.055168,5.0503261 c 0.953493,0.2129731 1.362631,0.6204812 1.896283,1.4209585 0,0.4238044 0,0.8476088 0,1.2842557 -0.80061,-0.3865015 -1.503038,-0.787983 -2.247447,-1.2842557 -0.674977,0.0015 -0.674977,0.0015 -1.284255,0.321064 -0.412365,0.6369191 -0.412365,0.6369191 -0.642128,1.2842556 -0.211902,0 -0.423804,0 -0.642128,0 0,0.741657 0,1.4833154 0,2.2474468 -0.105948,0 -0.211902,0 -0.321064,0 C 45.618072,7.2096076 45.618072,7.2096076 46.296025,5.7689574 47.27231,5.0611504 47.86993,4.9729318 49.055168,5.0503261 Z"
       fill="#598d5d"
       id="path463"
       style="stroke-width:0.321063" />
    <path
       d="m 50.951436,6.7923485 c 0.211902,0 0.423804,0 0.642128,0 0.0046,0.244598 0.0091,0.489196 0.0138,0.7412061 0.1402,3.0351534 1.035784,4.8318504 2.81558,7.2251924 0.702327,1.023391 0.702327,1.023391 0.702327,2.307647 0.211903,0 0.423805,0 0.642128,0 -0.105947,0.423804 -0.211902,0.847608 -0.321063,1.284256 -0.124757,-0.222016 -0.249514,-0.444033 -0.378051,-0.672776 -0.562386,-1.000106 -1.125582,-1.999756 -1.6888,-2.999392 C 53.084907,14.15421 53.084907,14.15421 52.784383,13.619346 52.597105,13.287214 52.40983,12.955082 52.216877,12.612886 52.043699,12.305199 51.87052,11.997511 51.692092,11.6805 51.331803,10.998561 51.331803,10.998561 50.951436,10.645116 50.928176,9.9966808 50.92453,9.3474809 50.931363,8.6986652 c 0.0029,-0.3546876 0.0058,-0.7093754 0.0087,-1.0748114 0.0037,-0.2743967 0.0074,-0.5487936 0.01128,-0.8315053 z"
       fill="#dbf3dd"
       id="path510"
       style="stroke-width:0.321063" />
    <path
       d="m 25.90845,62.336405 c 0.105948,0 0.211903,0 0.321064,0 0.005,0.268298 0.005,0.268298 0.0101,0.542015 0.0347,1.859329 0.07149,3.718609 0.109504,5.577873 0.01392,0.694164 0.0273,1.388339 0.04012,2.082526 0.01853,0.997008 0.03898,1.993963 0.05981,2.990926 0.0053,0.311059 0.01068,0.622117 0.01626,0.942602 0.0065,0.289185 0.0128,0.578368 0.01941,0.876316 0.005,0.254526 0.01,0.509053 0.01512,0.771291 0.02859,0.727703 0.02859,0.727703 0.371862,1.627518 0.953559,0.105948 1.90712,0.211902 2.889575,0.321063 0,0.105948 0,0.211902 0,0.321064 -1.165462,0 -2.330924,0 -3.531703,0 -0.260418,-1.04167 -0.360383,-1.741227 -0.357513,-2.785793 3.6e-5,-0.443382 3.6e-5,-0.443382 7.4e-5,-0.895722 0.0017,-0.316424 0.0032,-0.632848 0.005,-0.958861 4.54e-4,-0.325994 9.09e-4,-0.65199 0.0014,-0.987864 0.0018,-1.04026 0.0058,-2.080497 0.01,-3.120751 0.0016,-0.705671 0.003,-1.411343 0.0044,-2.117016 0.0035,-1.729069 0.0089,-3.458126 0.01568,-5.187187 z"
       fill="#4d9856"
       id="path518"
       style="stroke-width:0.321063" />
    <path
       d="m 50.309307,17.708522 c 0.993121,1.164347 1.539813,2.116433 2.247447,3.531704 -2.648777,0 -5.297554,0 -8.026597,0 0.211902,-0.423805 0.423804,-0.84761 0.642128,-1.284258 0,0.317855 0,0.635708 0,0.963193 1.589265,-0.105949 3.178533,-0.211903 4.815958,-0.321063 0.265875,-1.063505 0.350854,-1.817148 0.321064,-2.889576 z"
       fill="#e0fae0"
       id="path553"
       style="stroke-width:0.321063" />
    <path
       d="m 52.235691,20.598098 c 0.211902,0 0.423804,0 0.642128,0 0,0.317852 0,0.635706 0,0.963191 0.178792,-0.05959 0.357583,-0.1192 0.541794,-0.180599 0.870608,-0.164709 1.494942,-0.0326 2.347781,0.180599 0,0.211902 0,0.423804 0,0.642128 -0.468186,0.0086 -0.936418,0.01491 -1.404655,0.02007 -0.260739,0.0037 -0.521479,0.0074 -0.790117,0.01128 -0.694803,-0.03135 -0.694803,-0.03135 -1.336931,-0.352418 -0.605119,-0.04927 -1.211785,-0.08013 -1.818527,-0.101582 -0.360068,-0.01345 -0.720136,-0.02691 -1.091114,-0.04076 -0.377452,-0.01262 -0.754903,-0.02524 -1.143792,-0.03825 -0.569899,-0.0208 -0.569899,-0.0208 -1.151314,-0.04201 -0.940578,-0.03413 -1.881184,-0.06689 -2.821851,-0.09845 0.105948,-0.211902 0.211902,-0.423804 0.321064,-0.642128 2.542826,0 5.085652,0 7.705534,0 0,-0.105948 0,-0.211902 0,-0.321064 z m 3.531703,0.642128 c 0.211902,0 0.423804,0 0.642127,0 -0.105948,0.211902 -0.211902,0.423804 -0.321063,0.642127 -0.105948,-0.211903 -0.211902,-0.423805 -0.321064,-0.642127 z"
       fill="#5d9962"
       id="path588"
       style="stroke-width:0.321063" />
    <path
       d="m 33.292921,54.630871 c 0.707358,2.472926 0.339483,4.942805 -0.321063,7.38447 -0.105948,0 -0.211903,0 -0.321065,0 -0.01859,-1.110324 -0.03003,-2.220607 -0.04012,-3.331038 -0.0053,-0.316198 -0.0108,-0.632396 -0.01631,-0.958175 -0.0021,-0.302127 -0.0042,-0.604252 -0.0064,-0.915534 -0.0034,-0.279105 -0.0067,-0.558209 -0.01021,-0.845771 0.07289,-0.691824 0.07289,-0.691824 0.715027,-1.333952 z"
       fill="#61a364"
       id="path609"
       style="stroke-width:0.321063" />
    <path
       d="m 46.777605,7.1134123 c 0.105948,0 0.211902,0 0.321064,0 0.236959,4.0677837 0.236959,4.0677837 -1.284255,5.7791497 -0.211903,-0.211902 -0.423806,-0.423804 -0.642129,-0.642128 0.178369,-1.462624 0.178369,-1.462624 0.642129,-1.926383 0.118021,-0.7474932 0.22552,-1.4967482 0.321063,-2.2474469 0.211902,0 0.423804,0 0.642128,0 0,-0.3178533 0,-0.6357066 0,-0.9631918 z"
       fill="#34763b"
       id="path612"
       style="stroke-width:0.321063" />
    <path
       d="m 31.045474,82.884494 c 0.622061,0.100331 0.622061,0.100331 1.284256,0.321063 0.105947,0.317855 0.211902,0.635707 0.321064,0.963192 0.847608,0.105948 1.695217,0.211902 2.56851,0.321064 -0.423804,0.105949 -0.847608,0.211903 -1.284255,0.321064 0,0.211903 0,0.423805 0,0.642129 -0.95356,0 -1.90712,0 -2.889575,0 0,-0.847609 0,-1.695218 0,-2.568512 z"
       fill="#bee6c0"
       id="path665"
       style="stroke-width:0.321063" />
    <path
       d="m 57.051649,22.845544 c 2.119022,0 4.238044,0 6.421278,0 -0.963191,0.963192 -0.963191,0.963192 -2.040512,1.057254 -0.406007,-0.01117 -0.812015,-0.02235 -1.230327,-0.03386 -0.408491,-0.0087 -0.816982,-0.01737 -1.237851,-0.02633 -0.469952,-0.01676 -0.469952,-0.01676 -0.949396,-0.03385 0,-0.211902 0,-0.423804 0,-0.642128 -0.317855,-0.105948 -0.635707,-0.211902 -0.963192,-0.321063 z"
       fill="#bce5be"
       id="path668"
       style="stroke-width:0.321063" />
    <path
       d="m 32.650793,36.330228 c 0.879109,0.879109 0.913952,1.695528 0.963192,2.889576 -0.109638,3.535617 -0.109638,3.535617 -0.963192,4.815958 0,-2.542826 0,-5.085652 0,-7.705534 z"
       fill="#61a265"
       id="path681"
       style="stroke-width:0.321063" />
    <path
       d="m 49.66718,7.1134123 c 0.635707,0.3178533 0.635707,0.3178533 1.284256,0.6421279 0,1.1654618 0,2.3309228 0,3.5317028 -0.317853,0 -0.635708,0 -0.963193,0 -0.424539,-0.84908 -0.352133,-1.5018122 -0.341129,-2.4481125 0.0029,-0.3219916 0.0058,-0.6439836 0.0087,-0.9757329 0.0038,-0.2474952 0.0074,-0.4949903 0.01128,-0.7499853 z"
       fill="#3e7f44"
       id="path683"
       style="stroke-width:0.321063" />
    <path
       d="m 46.135477,5.187029 c 0.317852,0.1059505 0.635706,0.2119022 0.963192,0.3210639 -0.155616,0.1729984 -0.311232,0.3459965 -0.471564,0.5242372 -0.605155,0.9355215 -0.618388,1.5402108 -0.652161,2.6462692 -0.08982,1.5633787 -0.283777,2.5782017 -1.123723,3.8928997 -0.650202,-1.904165 -0.100633,-4.3137707 0.57942,-6.1591597 0.263373,-0.5229831 0.263373,-0.5229831 0.704836,-1.2253103 z"
       fill="#e7fae8"
       id="path688"
       style="stroke-width:0.321063" />
    <path
       d="m 32.650793,44.356826 c 0.317852,0 0.635706,0 0.963192,0 0.118483,3.021217 0.118483,3.021217 -0.642128,4.494895 -0.105949,0 -0.211903,0 -0.321064,0 0,-1.483316 0,-2.966632 0,-4.494895 z"
       fill="#60a364"
       id="path836"
       style="stroke-width:0.321063" />
    <path
       d="m 29.119091,55.594062 c 0.105947,0 0.211902,0 0.321063,0 0,1.377364 0,2.754728 0,4.173831 -0.450292,0.03973 -0.900584,0.07947 -1.364521,0.1204 -1.084967,0.09573 -1.858385,0.306263 -2.809309,0.842792 0,-0.317852 0,-0.635706 0,-0.963191 1.165462,-0.317852 2.330924,-0.635707 3.531703,-0.963192 0.105948,-1.059511 0.211902,-2.119022 0.321064,-3.21064 z"
       fill="#edfdee"
       id="path848"
       style="stroke-width:0.321063" />
    <path
       d="m 48.703988,5.5080929 c 1.045694,0.1340633 1.48795,0.2036935 2.247448,0.9631917 0,0.4238044 0,0.8476088 0,1.2842556 C 49.87076,7.2923938 49.182222,6.6855475 48.382925,5.8291568 48.488873,5.723205 48.594827,5.6172546 48.703988,5.5080929 Z"
       fill="#4d8952"
       id="path920"
       style="stroke-width:0.321063" />
    <path
       d="m 46.456541,16.103201 c 0.211902,0.105949 0.423804,0.211904 0.642128,0.321064 -0.794634,1.430341 -0.794634,1.430341 -1.605321,2.889575 -0.642128,-1.284255 -0.642128,-1.284255 -0.361196,-2.16718 0.119199,-0.23839 0.23839,-0.47678 0.361196,-0.722395 0.317854,0.105949 0.635707,0.211903 0.963193,0.321066 0,-0.211903 0,-0.423806 0,-0.64213 z"
       fill="#4c8451"
       id="path1002"
       style="stroke-width:0.321063" />
    <path
       d="m 67.325699,58.483638 c 0.105936,0.317852 0.211896,0.635706 0.32106,0.963191 0.224322,-0.0074 0.448644,-0.01491 0.679761,-0.02257 0.292193,-0.0058 0.584384,-0.01153 0.885433,-0.01756 0.29053,-0.0074 0.58107,-0.01491 0.880409,-0.02257 0.765044,0.06272 0.765044,0.06272 1.407164,0.704835 -0.105936,0.317853 -0.211896,0.635707 -0.32106,0.963192 -0.158928,-0.152305 -0.317856,-0.30461 -0.481602,-0.46153 -1.122011,-0.70126 -2.057911,-0.713289 -3.371165,-0.822726 0,-0.423804 0,-0.847609 0,-1.284255 z"
       fill="#e3f6e4"
       id="path1054"
       style="stroke-width:0.321063" />
    <path
       d="m 51.272499,17.066394 c 0.211902,0 0.423804,0 0.642128,0 0.434847,0.869696 0.341937,1.608315 0.321064,2.568511 -0.317855,-0.105948 -0.635707,-0.211902 -0.963192,-0.321065 -0.361197,-1.525053 -0.361197,-1.525053 0,-2.247446 z"
       fill="#3f7e43"
       id="path1058"
       style="stroke-width:0.321063" />
    <path
       d="m 32.650793,82.56343 c 0.926069,0.415135 1.564285,0.853843 2.247447,1.60532 -0.741658,0 -1.483316,0 -2.247447,0 0,-0.529755 0,-1.059511 0,-1.60532 z"
       fill="#609d63"
       id="path1081"
       style="stroke-width:0.321063" />
    <path
       d="m 25.90845,76.142152 c 0.481596,0.441463 0.481596,0.441463 0.963192,0.963192 0,0.211902 0,0.423804 0,0.642128 0.953559,0.105948 1.90712,0.211902 2.889576,0.321063 0,0.105948 0,0.211902 0,0.321064 -1.165463,0 -2.330925,0 -3.531704,0 -0.105948,-0.741657 -0.211902,-1.483316 -0.321064,-2.247447 z"
       fill="#4e8954"
       id="path1083"
       style="stroke-width:0.321063" />
    <path
       d="m 45.814414,10.324051 c 0.317852,0.317854 0.635706,0.635707 0.963191,0.963192 -0.47678,0.794633 -0.47678,0.794633 -0.963191,1.605319 -0.211903,-0.211902 -0.423806,-0.423804 -0.642129,-0.642128 0.178369,-1.462624 0.178369,-1.462624 0.642129,-1.926383 z"
       fill="#417d47"
       id="path1115"
       style="stroke-width:0.321063" />
    <path
       d="m 48.06186,14.176818 c 0.211902,0 0.423804,0 0.642128,0 0.317853,0.635707 0.635706,1.271414 0.963192,1.926383 -0.192036,-0.05959 -0.384073,-0.119198 -0.58193,-0.180597 -0.75501,-0.2114 -0.75501,-0.2114 -1.665518,0.180597 0.211902,-0.635706 0.423804,-1.271412 0.642128,-1.926383 z"
       fill="#dbf3dc"
       id="path1145"
       style="stroke-width:0.321063" />
    <path
       d="m 25.90845,60.088957 c 0.211903,0.105948 0.423805,0.211902 0.642128,0.321064 -0.105947,0.423804 -0.211902,0.847609 -0.321064,1.284257 -0.423804,0.105948 -0.847608,0.211902 -1.284255,0.321063 0.184114,-0.92057 0.276581,-1.239773 0.963191,-1.926384 z"
       fill="#518858"
       id="path1173"
       style="stroke-width:0.321063" />
    <path
       d="m 51.593564,11.608307 c 1.421854,1.651186 1.421854,1.651186 1.605319,2.889576 -0.622062,-0.1806 -0.622062,-0.1806 -1.284256,-0.642128 -0.240797,-1.163857 -0.240797,-1.163857 -0.321063,-2.247448 z"
       fill="#588d5d"
       id="path1178"
       style="stroke-width:0.321063" />
    <path
       d="m 70.215274,76.78428 c 0.105936,0.211902 0.211897,0.423805 0.32106,0.642128 -0.869694,0.434847 -1.608309,0.341937 -2.568502,0.321064 0,0.211902 0,0.423804 0,0.642128 -0.317858,0 -0.635714,0 -0.963193,0 0,-0.317854 0,-0.635706 0,-0.963192 1.059505,-0.211902 2.119022,-0.423804 3.210635,-0.642128 z"
       fill="#3f8346"
       id="path1201"
       style="stroke-width:0.321063" />
    <path
       d="m 25.587387,75.500023 c 0.105948,0 0.211902,0 0.321063,0 0.105948,0.84761 0.211903,1.695218 0.321065,2.568512 -0.423804,-0.317854 -0.847608,-0.635706 -1.284256,-0.963191 0.211902,-0.529756 0.423804,-1.059512 0.642128,-1.605321 z"
       fill="#447f4c"
       id="path1269"
       style="stroke-width:0.321063" />
    <path
       d="m 46.777605,14.497882 c 0.105948,0 0.211902,0 0.321064,0 0,0.529756 0,1.05951 0,1.605319 -0.211902,0 -0.423805,0 -0.642127,0 0,0.211904 0,0.423806 0,0.64213 -0.211902,0 -0.423805,0 -0.642128,0 0.240798,-1.525055 0.240798,-1.525055 0.963191,-2.247449 z"
       fill="#3d8343"
       id="path1277"
       style="stroke-width:0.321063" />
    <path
       d="m 48.703988,14.176818 c -0.211902,0 -0.423804,0 -0.642128,0 -0.211902,0.635707 -0.423804,1.271414 -0.642127,1.926383 -0.105948,0 -0.211902,0 -0.321064,0 -0.105948,-0.635706 -0.211902,-1.271412 -0.321064,-1.926383 0.799747,-0.399874 1.095087,-0.249388 1.926383,0 z"
       fill="#4a8850"
       id="path1278"
       style="stroke-width:0.321063" />
  </g>
</svg>
