<?xml version="1.0" encoding="UTF-8" standalone="no"?>
<!-- Created with Inkscape (http://www.inkscape.org/) -->

<svg
   width="96mm"
   height="96mm"
   viewBox="0 0 96 96"
   version="1.1"
   id="svg1"
   inkscape:version="1.4.2 (ebf0e940, 2025-05-08)"
   sodipodi:docname="person.svg"
   xmlns:inkscape="http://www.inkscape.org/namespaces/inkscape"
   xmlns:sodipodi="http://sodipodi.sourceforge.net/DTD/sodipodi-0.dtd"
   xmlns="http://www.w3.org/2000/svg"
   xmlns:svg="http://www.w3.org/2000/svg">
  <sodipodi:namedview
     id="namedview1"
     pagecolor="#ffffff"
     bordercolor="#000000"
     borderopacity="0.25"
     inkscape:showpageshadow="2"
     inkscape:pageopacity="0.0"
     inkscape:pagecheckerboard="0"
     inkscape:deskcolor="#d1d1d1"
     inkscape:document-units="mm"
     inkscape:zoom="0.80444024"
     inkscape:cx="397.17059"
     inkscape:cy="262.91574"
     inkscape:window-width="1920"
     inkscape:window-height="1052"
     inkscape:window-x="0"
     inkscape:window-y="28"
     inkscape:window-maximized="0"
     inkscape:current-layer="layer1" />
  <defs
     id="defs1" />
  <g
     inkscape:label="Layer 1"
     inkscape:groupmode="layer"
     id="layer1">
    <path
       d="m 58.306308,14.606376 c 3.935437,2.577135 6.202116,6.209238 7.249894,10.775112 0.194698,1.046669 0.292811,2.071085 0.337667,3.132799 0.01564,0.354854 0.01564,0.354854 0.03166,0.716875 0.01766,0.469246 0.02914,0.938772 0.03381,1.408326 0.05462,1.651378 0.518919,2.299171 1.536814,3.544607 0.5541,3.33678 -0.136964,6.2834 -2.044204,9.032061 -0.625773,0.646637 -0.625773,0.646637 -1.293274,0.980384 -0.263609,0.64569 -0.502785,1.301419 -0.730079,1.960771 -1.706259,4.535205 -5.056868,9.615327 -9.61611,11.722906 -0.403979,0.194245 -0.403979,0.194245 -0.81612,0.392415 -3.179069,1.348556 -6.422042,1.493206 -9.655239,0.233363 C 41.651594,57.70604 40.192657,56.781529 38.793815,55.54398 38.460177,55.250995 38.460177,55.250995 38.119799,54.952098 35.41134,52.414533 33.73296,49.322897 32.309763,45.936905 31.682029,44.497016 30.911683,43.602412 29.782614,42.5278 29.339354,41.815978 29.339354,41.815978 29.03168,41.151088 28.926705,40.929954 28.821732,40.70882 28.713576,40.480985 28.13896,39.134579 28.038857,38.019871 28.009577,36.562052 c -0.01249,-0.40527 -0.02495,-0.81054 -0.0378,-1.228089 0.165738,-1.341112 0.5193,-1.883913 1.477095,-2.818608 0.220274,0 0.440548,0 0.667497,0 -0.01549,-0.403549 -0.03098,-0.807097 -0.04694,-1.222874 -0.145665,-5.422397 0.615913,-10.214949 4.448238,-14.358993 2.410672,-2.246068 5.081858,-3.70166 8.281131,-4.443023 0.30366,-0.08575 0.30366,-0.08575 0.613475,-0.17323 4.925013,-1.095684 10.586135,-0.233643 14.894078,2.289141 z"
       fill="#c0dcbf"
       id="path9"
       style="stroke-width:0.333748" />
    <path
       d="m 35.790055,56.211476 c 0.582756,0.534519 0.582756,0.534519 1.147259,1.209838 2.282034,2.416781 6.025728,4.24992 9.33582,4.575999 4.51701,0.04831 8.302376,-0.928718 11.878046,-3.783348 0.54252,-0.626356 1.024253,-1.238959 1.465368,-1.939912 0.537121,-0.396325 0.537121,-0.396325 1.540977,-0.367644 6.044136,1.171565 13.158491,4.122626 16.954668,9.107675 1.712617,2.665013 3.424817,6.310423 2.733867,9.553541 -1.320255,2.800153 -4.585151,3.907335 -7.342455,4.901927 -0.549849,0.185304 -1.099925,0.370075 -1.652536,0.546985 -0.515627,0.16954 -1.0281,0.348686 -1.538858,0.5324 -2.517018,0.8877 -5.051141,1.476582 -7.670662,1.965333 -0.674211,0.12609 -1.347338,0.257021 -2.020502,0.388585 -4.298117,0.827976 -8.471759,1.079515 -12.83692,1.072297 -0.244461,-3.13e-4 -0.488935,-6.34e-4 -0.740801,-9.35e-4 -3.676166,-0.01022 -7.292997,-0.07999 -10.919523,-0.729139 -0.285721,-0.05028 -0.571443,-0.10056 -0.865822,-0.152371 -16.385952,-2.991018 -16.385952,-2.991018 -19.769201,-7.2996 -0.87486,-1.994682 -0.66827,-4.249745 -0.08604,-6.309927 0.829419,-2.108329 1.876076,-3.89458 3.366163,-5.595496 0.175962,-0.218553 0.351923,-0.437106 0.533215,-0.662282 3.35092,-3.800164 9.128451,-5.508298 13.817956,-7.013926 1.123044,-0.374348 1.556313,-0.3477 2.669986,0 z"
       fill="#bfdcbe"
       id="path10"
       style="stroke-width:0.333748" />
    <path
       d="m 35.790055,56.211476 c 0.582756,0.534519 0.582756,0.534519 1.147259,1.209838 2.282034,2.416781 6.025728,4.24992 9.33582,4.575999 4.51701,0.04831 8.302376,-0.928718 11.878046,-3.783348 0.54252,-0.626356 1.024253,-1.238959 1.465368,-1.939912 0.537121,-0.396325 0.537121,-0.396325 1.540977,-0.367644 6.044136,1.171565 13.158491,4.122626 16.954668,9.107675 1.712617,2.665013 3.424817,6.310423 2.733867,9.553541 -1.320255,2.800153 -4.585151,3.907335 -7.342455,4.901927 -0.549849,0.185304 -1.099925,0.370075 -1.652536,0.546985 -0.515627,0.16954 -1.0281,0.348686 -1.538858,0.5324 -2.517018,0.8877 -5.051141,1.476582 -7.670662,1.965333 -0.674211,0.12609 -1.347338,0.257021 -2.020502,0.388585 -4.298117,0.827976 -8.471759,1.079515 -12.83692,1.072297 -0.244461,-3.13e-4 -0.488935,-6.34e-4 -0.740801,-9.35e-4 -3.676166,-0.01022 -7.292997,-0.07999 -10.919523,-0.729139 -0.285721,-0.05028 -0.571443,-0.10056 -0.865822,-0.152371 -16.385952,-2.991018 -16.385952,-2.991018 -19.769201,-7.2996 -0.87486,-1.994682 -0.66827,-4.249745 -0.08604,-6.309927 0.829419,-2.108329 1.876076,-3.89458 3.366163,-5.595496 0.175962,-0.218553 0.351923,-0.437106 0.533215,-0.662282 3.35092,-3.800164 9.128451,-5.508298 13.817956,-7.013926 1.123044,-0.374348 1.556313,-0.3477 2.669986,0 z M 20.103891,64.55518 c -2.605282,3.408877 -3.529121,6.087519 -3.337481,10.346193 9.241949,5.721206 20.624593,7.4137 31.288895,7.446757 0.407019,0.0013 0.407019,0.0013 0.822263,0.0026 4.653936,0.0016 9.062238,-0.423789 13.612347,-1.441925 0.527484,-0.10944 1.055043,-0.218532 1.582691,-0.327229 3.011113,-0.642959 5.898747,-1.544308 8.763498,-2.676505 0.310887,-0.122861 0.310887,-0.122861 0.628056,-0.248191 3.064244,-1.185128 3.064244,-1.185128 5.713155,-3.08929 0.522804,-2.730177 -0.805297,-5.98817 -2.231939,-8.281127 -3.00632,-4.080543 -7.314226,-5.962295 -11.97322,-7.571911 -0.254225,-0.08932 -0.508462,-0.17865 -0.770406,-0.270681 -1.337512,-0.43875 -2.350311,-0.766142 -3.714324,-0.229941 -0.798221,0.55504 -0.798221,0.55504 -1.564452,1.251555 -3.587048,2.961835 -7.69251,4.336716 -12.356499,4.203142 -3.845183,-0.401872 -7.92678,-2.060801 -10.588686,-4.933216 -0.743869,-0.918307 -0.743869,-0.918307 -1.600949,-0.9504 -4.669886,0.481499 -11.014478,3.370574 -14.272949,6.770134 z"
       fill="#6aa26c"
       id="path38"
       style="stroke-width:0.333748" />
    <path
       d="m 58.306308,14.606376 c 3.935437,2.577135 6.202116,6.209238 7.249894,10.775112 0.194698,1.046669 0.292811,2.071085 0.337667,3.132799 0.01564,0.354854 0.01564,0.354854 0.03166,0.716875 0.01766,0.469246 0.02914,0.938772 0.03381,1.408326 0.05462,1.651378 0.518919,2.299171 1.536814,3.544607 0.5541,3.33678 -0.136964,6.2834 -2.044204,9.032061 -0.625773,0.646637 -0.625773,0.646637 -1.293274,0.980384 -0.263609,0.64569 -0.502785,1.301419 -0.730079,1.960771 -1.706259,4.535205 -5.056868,9.615327 -9.61611,11.722906 -0.403979,0.194245 -0.403979,0.194245 -0.81612,0.392415 -3.179069,1.348556 -6.422042,1.493206 -9.655239,0.233363 C 41.651594,57.70604 40.192657,56.781529 38.793815,55.54398 38.460177,55.250995 38.460177,55.250995 38.119799,54.952098 35.41134,52.414533 33.73296,49.322897 32.309763,45.936905 31.682029,44.497016 30.911683,43.602412 29.782614,42.5278 29.339354,41.815978 29.339354,41.815978 29.03168,41.151088 28.926705,40.929954 28.821732,40.70882 28.713576,40.480985 28.13896,39.134579 28.038857,38.019871 28.009577,36.562052 c -0.01249,-0.40527 -0.02495,-0.81054 -0.0378,-1.228089 0.165738,-1.341112 0.5193,-1.883913 1.477095,-2.818608 0.220274,0 0.440548,0 0.667497,0 -0.01549,-0.403549 -0.03098,-0.807097 -0.04694,-1.222874 -0.145665,-5.422397 0.615913,-10.214949 4.448238,-14.358993 2.410672,-2.246068 5.081858,-3.70166 8.281131,-4.443023 0.30366,-0.08575 0.30366,-0.08575 0.613475,-0.17323 4.925013,-1.095684 10.586135,-0.233643 14.894078,2.289141 z m -21.515023,2.556563 c -0.312986,0.251035 -0.312986,0.251035 -0.632296,0.50714 -2.721715,2.437092 -4.210263,6.090931 -4.425505,9.703468 -0.0136,0.887574 -0.0071,1.772061 0.0098,2.659555 0.0045,0.457219 0.0045,0.457219 0.0091,0.923675 0.0078,0.74212 0.01868,1.484048 0.0326,2.226074 -0.206506,0.09637 -0.413013,0.192739 -0.625778,0.29203 -0.753689,0.354508 -0.753689,0.354508 -1.376711,1.042963 -0.256624,2.382933 -0.252638,4.599573 1.001245,6.674963 0.806459,0.974167 0.806459,0.974167 1.66874,1.668741 0.220274,0 0.440547,0 0.667497,0 0.04517,0.190589 0.09034,0.381177 0.136889,0.577541 1.358635,5.117259 4.582497,10.116076 9.231529,12.844089 2.661311,1.379763 5.344886,1.720863 8.303284,1.03514 2.076484,-0.697953 3.716343,-1.66857 5.35692,-3.109331 0.194459,-0.159615 0.388918,-0.319227 0.589268,-0.483674 2.544555,-2.275195 4.084094,-5.576632 5.293042,-8.715261 0.465574,-1.189081 0.810091,-1.979253 1.835617,-2.753422 1.162718,-0.884674 1.663031,-1.663716 1.960775,-3.066312 0.146525,-1.465291 0.23418,-2.881974 0,-4.338726 -0.218994,-0.267168 -0.437975,-0.534336 -0.663591,-0.8096 -0.898994,-1.150372 -0.848904,-1.937157 -0.879997,-3.383111 -0.01905,-0.478516 -0.03948,-0.956979 -0.0613,-1.435378 -0.01009,-0.23474 -0.01968,-0.46948 -0.02977,-0.711334 C 63.980662,24.3463 62.581758,20.600258 59.688196,17.533191 53.429797,12.466417 43.121916,12.026268 36.791248,17.162939 Z"
       fill="#669f68"
       id="path44"
       style="stroke-width:0.333748" />
    <path
       d="m 35.790055,56.211476 c 0.582756,0.534519 0.582756,0.534519 1.147259,1.209838 2.68883,2.820486 6.452703,4.07696 10.200176,4.797629 0,0.110134 0,0.220274 0,0.333748 -0.660815,0 -1.321642,0 -2.002489,0 0,0.220274 0,0.440547 0,0.667497 -1.837963,0.11224 -2.993617,-0.169687 -4.630752,-1.001245 -0.20312,-0.102603 -0.406237,-0.205216 -0.615512,-0.310934 -1.310673,-0.693007 -2.327133,-1.478346 -3.389466,-2.525925 -1.105401,-1.060026 -1.105401,-1.060026 -2.649127,-1.251556 -0.680289,0.166603 -0.680289,0.166603 -1.39757,0.417185 -0.286958,0.07787 -0.573917,0.155741 -0.869571,0.235971 -5.076366,1.500302 -10.238578,3.868713 -12.988801,8.534044 -1.412879,2.605233 -1.628141,4.603698 -1.494043,7.583645 7.198295,3.994177 15.973849,6.461751 24.186312,6.893986 0.844797,0.114726 0.844797,0.114726 1.846041,0.782222 -0.550681,0 -1.101362,0 -1.668732,0 0,0.220274 0,0.440548 0,0.667497 -2.586554,0.04171 -2.586554,0.04171 -3.337488,-0.333749 -0.792167,-0.04445 -1.585006,-0.07713 -2.377955,-0.104293 -6.408902,-0.333286 -14.27054,-2.640434 -19.649423,-6.236919 -1.220363,-1.54683 -1.186897,-2.937522 -1.139437,-4.844563 0.358598,-3.017641 1.833512,-5.582392 3.809422,-7.837867 0.175961,-0.218553 0.351922,-0.437107 0.533214,-0.662282 3.35092,-3.800164 9.128451,-5.508298 13.817957,-7.013927 1.123043,-0.374347 1.556313,-0.3477 2.669985,0 z"
       fill="#69a36c"
       id="path64"
       style="stroke-width:0.333748" />
    <path
       d="m 70.833615,78.238855 c 0.330414,0.330411 0.330414,0.330411 0.667501,0.667497 0.663552,0.132712 1.331469,0.246224 2.002489,0.333748 -3.622973,1.902276 -7.61844,2.65161 -11.597748,3.420919 -0.334552,0.06537 -0.334552,0.06537 -0.675864,0.13204 -4.511334,0.874771 -8.8632,1.187352 -13.445866,1.182093 -0.363702,1.97e-4 -0.363702,1.97e-4 -0.734759,4e-4 -4.250196,-0.0028 -8.424293,-0.18088 -12.594304,-1.064222 0,-0.110133 0,-0.220273 0,-0.333749 2.433129,-0.08327 4.641349,0.09235 7.008716,0.667497 0,-0.220274 0,-0.440547 0,-0.667497 1.359006,-0.323019 2.637331,-0.379871 4.03235,-0.392414 0.470456,-0.0067 0.940899,-0.0138 1.411342,-0.02127 0.245206,-0.0038 0.490411,-0.0074 0.743047,-0.01135 5.050409,-0.08691 9.888612,-0.515895 14.839396,-1.577514 0.417451,-0.08744 0.417451,-0.08744 0.843328,-0.176652 2.576835,-0.547053 5.04481,-1.20072 7.500372,-2.159585 z"
       fill="#6fa572"
       id="path107"
       style="stroke-width:0.333748" />
    <path
       d="m 65.159892,71.897641 c 0.220267,0 0.440547,0 0.6675,0 0.170366,0.393007 0.170366,0.393007 0.344176,0.793955 0.994092,2.154744 1.907732,3.67629 3.814631,5.111823 0.254263,0.215541 0.254263,0.215541 0.513659,0.435436 0,0.220274 0,0.440548 0,0.667497 -1.021881,0.271993 -2.044065,0.542852 -3.066312,0.813512 -0.288459,0.07679 -0.576918,0.153589 -0.874132,0.232711 -3.116188,0.823822 -5.97047,1.562721 -9.075734,0.28877 0,-0.220274 0,-0.440548 0,-0.667496 0.262007,-0.113577 0.524015,-0.227157 0.793956,-0.344178 3.632963,-1.676067 5.487703,-3.590137 6.882256,-7.33203 z"
       fill="#cfe5cf"
       id="path120"
       style="stroke-width:0.333748" />
    <path
       d="m 70.833615,78.238855 c 0.220267,0.220274 0.440548,0.440548 0.667501,0.667497 0.663552,0.132712 1.331469,0.246224 2.002489,0.333748 -2.829357,1.519723 -6.110134,2.3627 -9.240652,3.024592 -0.223824,0.05246 -0.447649,0.104924 -0.67826,0.158971 -0.639787,0.123933 -0.639787,0.123933 -1.762279,0.153918 -0.82003,-0.64794 -0.82003,-0.64794 -1.334988,-1.334992 0.331271,-0.08088 0.662543,-0.161763 1.003843,-0.245096 5.028625,-0.808163 5.028625,-0.808163 9.342346,-2.758638 z"
       fill="#94bb97"
       id="path252"
       style="stroke-width:0.333748" />
    <path
       d="m 79.177315,74.567626 c 0.330414,0.110134 0.660815,0.220274 1.001245,0.333748 -0.04819,0.591882 -0.04819,0.591882 -0.333744,1.334994 -0.838283,0.617955 -0.838283,0.617955 -1.898196,1.209836 -0.5182,0.295562 -0.5182,0.295562 -1.04687,0.597096 -1.864226,0.930963 -3.311051,1.280304 -5.398647,1.196801 -0.110121,-0.330411 -0.220268,-0.660821 -0.333744,-1.001244 0.183359,-0.07563 0.366705,-0.151277 0.555626,-0.229209 0.837463,-0.346375 1.674068,-0.694771 2.510686,-1.043206 0.288459,-0.118951 0.576931,-0.237914 0.874132,-0.360475 1.182207,-0.493717 2.28782,-0.96667 3.37725,-1.645926 0.228441,-0.129496 0.456896,-0.258994 0.692262,-0.392415 z"
       fill="#659d69"
       id="path296"
       style="stroke-width:0.333748" />
    <path
       d="m 54.146202,60.883951 c 0,0.220274 0,0.440547 0,0.667497 -0.220267,0 -0.440548,0 -0.667501,0 0.110122,0.440547 0.220281,0.881095 0.333757,1.334992 -3.333769,1.009138 -6.577612,1.451881 -10.012445,0.667497 0.440547,-0.110134 0.881095,-0.220274 1.334988,-0.333749 0,-0.220274 0,-0.440548 0,-0.667496 0.193463,-0.02683 0.386938,-0.05367 0.586266,-0.08132 0.882621,-0.123681 1.764764,-0.250602 2.646918,-0.377584 0.456581,-0.06325 0.456581,-0.06325 0.922369,-0.127764 1.592177,-0.231589 3.320915,-1.082074 4.855648,-1.082073 z"
       fill="#6ba46f"
       id="path303"
       style="stroke-width:0.333748" />
    <path
       d="m 23.441373,61.217699 c -0.124829,0.846657 -0.223334,1.23907 -0.88,1.809541 -0.225867,0.146275 -0.451734,0.292551 -0.684444,0.443258 -1.300316,0.909524 -2.108712,1.882764 -2.96723,3.208415 -0.570469,0.656668 -0.962884,0.755174 -1.80954,0.88 0.274696,-2.911785 2.250659,-4.507711 4.338725,-6.341214 0.831343,-0.415672 1.138351,-0.259242 2.002489,0 z"
       fill="#5f9c63"
       id="path346"
       style="stroke-width:0.333748" />
    <path
       d="m 40.46253,54.876484 c 1.334994,0.667496 2.669982,1.334992 4.004983,2.002489 0.242645,0.111004 0.48529,0.221994 0.735289,0.336355 0.5997,0.331141 0.5997,0.331141 1.075554,0.859141 0.727721,0.655492 1.292063,0.640056 2.256714,0.702697 0.30072,0.02194 0.601441,0.04388 0.911281,0.06649 0.229312,0.01249 0.458623,0.02495 0.694873,0.0378 0,0.110134 0,0.220274 0,0.333748 -4.139672,0.27557 -7.345092,-0.502596 -10.679938,-3.003734 0.330411,-0.440547 0.660821,-0.881095 1.001244,-1.334992 z"
       fill="#6fa26f"
       id="path350"
       style="stroke-width:0.333748" />
    <path
       d="m 31.785077,20.83417 c 0.110134,0.220274 0.220274,0.440547 0.333748,0.667497 0.220274,0 0.440548,0 0.667497,0 -0.110134,0.33041 -0.220274,0.660821 -0.333748,1.001244 -0.220274,0 -0.440548,0 -0.667497,0 0,3.524381 0,7.048762 0,10.679941 -0.110134,0 -0.220274,0 -0.333748,0 -0.220273,-1.541917 -0.440547,-3.083833 -0.667496,-4.672474 -0.220274,0.220274 -0.440548,0.440548 -0.667497,0.667496 -0.197024,-2.856856 0.379808,-5.765839 1.668741,-8.343704 z"
       fill="#71a774"
       id="path400"
       style="stroke-width:0.333748" />
    <path
       d="m 63.824903,22.169163 c 0.220268,0 0.440548,0 0.667501,0 0.160905,0.521179 0.320575,1.042736 0.479765,1.564444 0.133583,0.435601 0.133583,0.435601 0.269866,0.880001 0.493085,1.750102 0.6288,3.353372 0.606221,5.169185 -0.0013,0.231245 -0.0025,0.462489 -0.005,0.700741 -0.0038,0.566038 -0.01009,1.13206 -0.01627,1.698075 -0.110121,0 -0.22028,0 -0.333744,0 -0.110121,-1.211507 -0.22028,-2.423012 -0.333756,-3.671231 -0.220268,0 -0.440548,0 -0.667488,0 -1.089972,-1.089971 -0.952365,-2.514184 -1.001245,-4.004978 0.05941,-0.802541 0.178868,-1.544635 0.333744,-2.336237 z"
       fill="#7baa7a"
       id="path408"
       style="stroke-width:0.333748" />
    <path
       d="m 78.509827,66.891418 c 0.220268,0 0.440548,0 0.667501,0 1.979342,4.969557 1.979342,4.969557 1.668732,7.676208 -0.220267,0.33041 -0.440547,0.660822 -0.667488,1.001245 0,-0.220274 0,-0.440548 0,-0.667497 -0.330414,-0.110134 -0.660827,-0.220274 -1.001244,-0.333748 -0.110121,-0.991232 -0.22028,-1.982464 -0.333757,-3.003733 0.110121,0 0.22028,0 0.333757,0 0,-0.881095 0,-1.762191 0,-2.669986 -0.22028,0 -0.440548,0 -0.667501,0 0,-0.660821 0,-1.321643 0,-2.002489 z"
       fill="#77a778"
       id="path415"
       style="stroke-width:0.333748" />
    <path
       d="m 62.823659,19.16543 c 1.001244,0.333748 1.001244,0.333748 1.440594,1.002549 0.137241,0.281795 0.274482,0.56359 0.415874,0.853925 0.138112,0.275772 0.276211,0.551544 0.418498,0.835675 0.933065,2.312644 1.206955,4.60647 1.417119,7.069984 0.05172,0.58588 0.104192,1.171682 0.157752,1.757393 0.03292,0.383489 0.03292,0.383489 0.0666,0.774726 0.08678,0.707736 0.234169,1.369845 0.422321,2.056919 C 66.506662,33.169815 66.506662,33.169815 65.82743,32.515356 65.697732,31.656734 65.643327,30.913378 65.639694,30.053964 65.501923,26.098413 64.6191,22.706551 62.823697,19.16543 Z"
       fill="#e8fae8"
       id="path475"
       style="stroke-width:0.333748" />
    <path
       d="m 45.33969,82.21124 c 0.416241,0.0011 0.832481,0.0021 1.261335,0.0033 0.43173,0.0028 0.863461,0.0055 1.308259,0.0085 0.657283,0.0023 0.657283,0.0023 1.327824,0.0045 1.080133,0.0039 2.160241,0.0095 3.240362,0.0163 0,0.110133 0,0.220273 0,0.333749 -4.130136,0.165204 -4.130136,0.165204 -8.343701,0.333747 0,0.110134 0,0.220274 0,0.333748 -3.308964,0.58826 -6.403236,0.375831 -9.678701,-0.333748 0,-0.110133 0,-0.220273 0,-0.333747 2.433127,-0.08327 4.641347,0.09235 7.008712,0.667495 0,-0.220274 0,-0.440547 0,-0.667495 1.312586,-0.310681 2.528661,-0.372494 3.87591,-0.366342 z"
       fill="#78ac7b"
       id="path485"
       style="stroke-width:0.333748" />
    <path
       d="m 40.796278,60.883951 c 2.164266,0.24594 4.23607,0.785372 6.341212,1.334992 0,0.110134 0,0.220274 0,0.333749 -0.660815,0 -1.321642,0 -2.002489,0 0,0.220274 0,0.440548 0,0.667496 -1.886994,0.115532 -3.013762,-0.188817 -4.672471,-1.001245 0.110134,-0.440548 0.220274,-0.881095 0.333748,-1.334992 z"
       fill="#67a16a"
       id="path488"
       style="stroke-width:0.333748" />
    <path
       d="m 36.7913,15.160452 c 0.33041,0.110133 0.660821,0.220273 1.001244,0.333747 -0.194893,1.171957 -0.611692,1.765634 -1.439289,2.607409 -0.198332,0.208657 -0.396664,0.417315 -0.601007,0.632296 -0.629689,0.431526 -0.629689,0.431526 -1.374103,0.33114 -0.194892,-0.07701 -0.389782,-0.154019 -0.590579,-0.233362 0.184067,-1.257789 0.680754,-1.784189 1.627023,-2.607408 0.23318,-0.208658 0.466361,-0.417315 0.706607,-0.632296 0.221134,-0.142403 0.442269,-0.284808 0.670104,-0.431526 z"
       fill="#5e9862"
       id="path507"
       style="stroke-width:0.333748" />
    <path
       d="m 58.484937,59.21521 c 0.220267,0.110133 0.440547,0.220273 0.6675,0.333747 -0.463846,0.377949 -0.930214,0.752814 -1.397579,1.126401 -0.259422,0.209087 -0.518844,0.418176 -0.786124,0.6336 -1.051777,0.739085 -1.9567,1.330016 -3.260569,1.118578 -0.185857,-0.06883 -0.371713,-0.137671 -0.563195,-0.208593 0.110121,-0.220274 0.220268,-0.440548 0.333744,-0.667497 0.22028,0 0.440548,0 0.667501,0 0.110121,-0.33041 0.220267,-0.660821 0.333744,-1.001244 0.330413,-0.220274 0.660827,-0.440548 1.001244,-0.667496 0.709216,0.146015 0.709216,0.146015 1.334989,0.333748 0.110121,-0.110134 0.22028,-0.220274 0.333756,-0.333748 0.646637,-0.375467 0.646637,-0.375467 1.334989,-0.667496 z"
       fill="#609e63"
       id="path525"
       style="stroke-width:0.333748" />
    <path
       d="m 34.788811,47.534024 c 0.729899,0.933243 1.332165,1.88003 1.898193,2.920297 0.145845,0.266737 0.29169,0.533475 0.441955,0.808296 0.108847,0.201344 0.217693,0.402688 0.329838,0.610133 -0.330412,0.165206 -0.330412,0.165206 -0.667497,0.333749 -0.110134,0.33041 -0.220274,0.660821 -0.333748,1.001245 -0.391263,-0.54098 -0.780206,-1.083638 -1.168119,-1.627023 -0.216831,-0.302016 -0.433664,-0.604033 -0.657066,-0.9152 -0.511053,-0.79526 -0.511053,-0.79526 -0.511053,-1.462755 0.220274,0 0.440548,0 0.667497,0 0,-0.550686 0,-1.101369 0,-1.668742 z"
       fill="#6ea36e"
       id="path531"
       style="stroke-width:0.333748" />
    <path
       d="m 25.110115,59.548959 c -0.226297,0.105832 -0.452594,0.211669 -0.685749,0.320711 -2.568193,1.287654 -4.395045,2.903148 -6.322963,5.019259 -0.220274,-0.33041 -0.440547,-0.660821 -0.667497,-1.001245 0.420985,-0.447982 0.845868,-0.892304 1.272415,-1.334992 0.236193,-0.247808 0.472385,-0.495616 0.715735,-0.750934 0.681836,-0.584058 0.681836,-0.584058 1.68308,-0.584058 0,-0.220274 0,-0.440548 0,-0.667497 0.414438,-0.234379 0.832321,-0.462673 1.251557,-0.688355 0.232319,-0.127776 0.464639,-0.255552 0.703999,-0.3872 0.835049,-0.303238 1.226144,-0.220513 2.049423,0.07431 z"
       fill="#e3f8e4"
       id="path540"
       style="stroke-width:0.333748" />
    <path
       d="m 54.479959,12.824215 c -0.110122,0.33041 -0.220268,0.660821 -0.333744,1.001245 -3.01298,0.502162 -5.981735,0.212422 -9.011201,0 0,-0.110134 0,-0.220274 0,-0.333748 2.147665,-0.165206 2.147665,-0.165206 4.338722,-0.333749 0,-0.110134 0,-0.220274 0,-0.333748 1.747079,-0.252355 3.261566,-0.402613 5.006223,0 z"
       fill="#71aa74"
       id="path543"
       style="stroke-width:0.333748" />
    <path
       d="m 45.468758,57.546469 c 1.76219,0 3.524381,0 5.339966,0 0.110122,0.330411 0.220281,0.660822 0.333757,1.001245 -0.333757,0.333748 -0.333757,0.333748 -1.461457,0.366341 -0.465436,-0.0023 -0.930858,-0.0062 -1.396268,-0.01173 -0.237272,-0.0015 -0.47453,-0.003 -0.718992,-0.0045 -0.587766,-0.0039 -1.175508,-0.01 -1.763262,-0.0163 0.110121,-0.220274 0.22028,-0.440548 0.333756,-0.667496 -0.22028,-0.220274 -0.440547,-0.440547 -0.6675,-0.667497 z"
       fill="#619d62"
       id="path576"
       style="stroke-width:0.333748" />
    <path
       d="m 76.507338,77.905108 c -1.147341,1.147334 -2.372814,1.325407 -3.963263,1.376711 -0.344176,-0.01376 -0.688352,-0.02754 -1.042959,-0.04171 -0.110122,-0.33041 -0.220268,-0.660822 -0.333744,-1.001245 1.996976,-1.10471 3.186095,-1.012632 5.339966,-0.333747 z"
       fill="#6da471"
       id="path580"
       style="stroke-width:0.333748" />
    <path
       d="m 49.139979,62.218943 c 0.625773,0.500622 0.625773,0.500622 1.001245,1.001245 -0.110121,0.220273 -0.22028,0.440547 -0.333744,0.667496 -0.688339,0.0091 -1.376703,0.01552 -2.065068,0.02086 -0.38333,0.0039 -0.76666,0.0077 -1.161607,0.01173 -0.976218,-0.02861 -1.834003,-0.139895 -2.780792,-0.366341 0.440547,-0.110134 0.881095,-0.220274 1.334988,-0.333748 0,-0.220274 0,-0.440547 0,-0.667497 1.352472,-0.257614 2.62859,-0.456093 4.004978,-0.333747 z"
       fill="#78ac7a"
       id="path584"
       style="stroke-width:0.333748" />
    <path
       d="m 43.800013,82.577581 c 2.423005,0 4.846023,0 7.342455,0 0,0.110134 0,0.220274 0,0.333748 -0.991228,0 -1.982457,0 -3.003733,0 0,0.220274 0,0.440548 0,0.667497 -2.092592,0 -4.185196,0 -6.341211,0 0,-0.110134 0,-0.220274 0,-0.333748 0.660827,-0.110134 1.321643,-0.220274 2.002489,-0.333749 0,-0.110134 0,-0.220274 0,-0.333748 z"
       fill="#619d65"
       id="path596"
       style="stroke-width:0.333748" />
    <path
       d="m 41.797524,57.21272 c 0.351063,0.06195 0.702126,0.123909 1.063823,0.187734 1.129303,0.129592 1.861236,0.106791 2.941155,-0.187734 0.194244,0.322667 0.194244,0.322667 0.392412,0.651852 0.55526,0.752824 0.55526,0.752824 1.436683,0.886519 0.298147,0.01549 0.596294,0.03098 0.903473,0.04694 0.30072,0.01893 0.601441,0.03786 0.911281,0.05737 0.229312,0.0086 0.458623,0.01721 0.694873,0.02607 0,0.110133 0,0.220273 0,0.333747 -2.886284,0.149721 -5.461579,0.186256 -8.009956,-1.334992 C 42.021147,57.659952 41.911,57.439678 41.797524,57.212729 Z"
       fill="#79a577"
       id="path621"
       style="stroke-width:0.333748" />
    <path
       d="m 61.48867,55.877728 c 0.991229,0.110134 1.982458,0.220274 3.003734,0.333748 0,0.220274 0,0.440548 0,0.667497 0.43366,-0.02065 0.43366,-0.02065 0.876087,-0.04171 1.16765,0.04324 2.042716,0.295432 3.128891,0.709215 0,0.220274 0,0.440548 0,0.667496 0.440548,0 0.881095,0 1.334988,0 0,0.220274 0,0.440547 0,0.667497 -2.853159,-0.716203 -5.587114,-1.651858 -8.3437,-2.669986 0,-0.110134 0,-0.220274 0,-0.333748 z"
       fill="#d7efd9"
       id="path674"
       style="stroke-width:0.333748" />
    <path
       d="m 42.131268,83.912575 c 3.083833,0 6.167666,0 9.344944,0 0,0.110134 0,0.220274 0,0.333748 -2.222945,0.644539 -4.079414,0.6836 -6.362074,0.375467 -0.288889,-0.03485 -0.577789,-0.06969 -0.875432,-0.105605 -0.703047,-0.08545 -1.405337,-0.177015 -2.107438,-0.269867 0,-0.110134 0,-0.220274 0,-0.333748 z"
       fill="#e0f6e1"
       id="path684"
       style="stroke-width:0.333748" />
    <path
       d="m 16.432662,72.231388 c 0.110134,0 0.220274,0 0.333748,0 0.06519,0.673581 0.13037,1.347161 0.195556,2.020741 0.09271,0.7249 0.09271,0.7249 0.805688,1.316741 -0.458903,0.500622 -0.458903,0.500622 -1.001244,1.001244 -0.220274,0 -0.440548,0 -0.667496,0 -0.811545,-1.123676 -1.001244,-1.579798 -1.001244,-3.003733 0.33041,-0.110134 0.660821,-0.220274 1.001244,-0.333748 0.110134,-0.330411 0.220274,-0.660822 0.333748,-1.001245 z"
       fill="#72a673"
       id="path685"
       style="stroke-width:0.333748" />
    <path
       d="m 16.432662,65.890173 c 0.220274,0 0.440548,0 0.667497,0 -0.354758,1.091562 -0.727418,2.139109 -1.188978,3.191467 -0.719251,1.863515 -0.72617,3.844002 -0.813511,5.819734 -0.110134,0 -0.220274,0 -0.333749,0 -0.01802,-0.973515 -0.03127,-1.946695 -0.04171,-2.920296 -0.0055,-0.275342 -0.01123,-0.550685 -0.01695,-0.834371 -0.0021,-0.266738 -0.0043,-0.533475 -0.0066,-0.808296 -0.0035,-0.24469 -0.0069,-0.489378 -0.0106,-0.741482 0.08653,-0.8028 0.345359,-1.341321 0.743273,-2.038014 0.220274,0 0.440548,0 0.667497,0 0.110134,-0.550685 0.220274,-1.101369 0.333748,-1.668742 z"
       fill="#e0f6e0"
       id="path712"
       style="stroke-width:0.333748" />
    <path
       d="m 36.123804,14.826703 c 0.33041,0.110133 0.660822,0.220273 1.001245,0.333747 -0.374293,0.320732 -0.374293,0.320732 -0.756149,0.647942 -1.747379,1.534674 -3.268601,2.875884 -4.250074,5.025778 -0.375466,-1.251556 -0.375466,-1.251556 0,-2.002489 0.220274,0 0.440548,0 0.667497,0 0.0826,-0.261575 0.165204,-0.52315 0.250311,-0.792652 0.482247,-1.012719 0.769509,-1.099799 1.752178,-1.543585 0.110134,-0.330411 0.220274,-0.660821 0.333748,-1.001245 0.330411,0 0.660821,0 1.001244,0 0,-0.220273 0,-0.440547 0,-0.667496 z"
       fill="#e4f7e4"
       id="path720"
       style="stroke-width:0.333748" />
    <path
       d="m 40.796278,60.216454 c 2.438333,0.210201 2.438333,0.210201 3.608657,0.83437 1.227314,0.577562 2.175668,0.666417 3.525213,0.730074 0.623389,0.03291 0.623389,0.03291 1.25938,0.06649 0.314053,0.01249 0.628119,0.02495 0.951696,0.0378 0,0.110133 0,0.220273 0,0.333747 -3.587628,0.223296 -6.060787,-0.118042 -9.344946,-1.668741 0,-0.110134 0,-0.220274 0,-0.333748 z"
       fill="#cce7cc"
       id="path732"
       style="stroke-width:0.333748" />
    <path
       d="m 29.44884,42.194054 c 2.147206,1.557776 3.120052,3.177982 4.004979,5.673719 0,0.220274 0,0.440548 0,0.667496 -0.440548,-0.110134 -0.881096,-0.220274 -1.334993,-0.333748 -0.39812,-1.293889 -0.667497,-2.308275 -0.667497,-3.67123 -0.206506,-0.07572 -0.413013,-0.151438 -0.625778,-0.229452 -0.91417,-0.564634 -1.059732,-1.103018 -1.376711,-2.106785 z"
       fill="#dbf4db"
       id="path746"
       style="stroke-width:0.333748" />
    <path
       d="m 28.781345,33.182853 c 0.37874,1.204809 0.367175,2.330976 0.354608,3.587793 -0.003,0.390641 -0.0061,0.781284 -0.0091,1.183763 -0.0039,0.297713 -0.0077,0.595428 -0.01173,0.902164 -0.33041,0 -0.660821,0 -1.001244,0 -0.01803,-0.7578 -0.03097,-1.515723 -0.04171,-2.27366 -0.0077,-0.422049 -0.01549,-0.844097 -0.02346,-1.278934 0.06519,-1.119881 0.06519,-1.119881 0.732681,-2.121126 z"
       fill="#72a373"
       id="path758"
       style="stroke-width:0.333748" />
    <path
       d="m 64.158647,43.862794 c 0.220268,0 0.440548,0 0.667501,0 -1.528098,4.675947 -1.528098,4.675947 -2.66999,6.341215 -0.220267,0 -0.440547,0 -0.6675,0 0.09246,-0.228878 0.184998,-0.457756 0.280298,-0.69357 0.578445,-1.45681 1.127827,-2.924608 1.681775,-4.390874 0.374172,-0.923023 0.374172,-0.923023 0.707916,-1.256771 z"
       fill="#dbf0da"
       id="path774"
       style="stroke-width:0.333748" />
    <path
       d="m 67.162381,33.516601 c 0.220267,0 0.440547,0 0.6675,0 0.387178,1.161536 0.401886,2.113699 0.417187,3.337481 0.0088,0.413014 0.01715,0.826027 0.02611,1.251557 -0.109491,1.084681 -0.109491,1.084681 -1.11076,2.085926 0,-2.202738 0,-4.405476 0,-6.674964 z"
       fill="#ecfdec"
       id="path792"
       style="stroke-width:0.333748" />
    <path
       d="m 24.776367,78.238855 c -0.220274,0.550684 -0.440548,1.101369 -0.667497,1.668742 -1.101369,-0.330412 -2.202738,-0.660822 -3.337481,-1.001245 1.476156,-0.984105 2.285688,-1.09732 4.004978,-0.667497 z"
       fill="#73a876"
       id="path812"
       style="stroke-width:0.333748" />
    <path
       d="m 38.981523,14.242645 c 0.813512,0.25031 0.813512,0.25031 1.481008,0.917807 -1.321642,0.660821 -1.321642,0.660821 -2.669985,1.334992 -0.220274,-0.550684 -0.440548,-1.101369 -0.667497,-1.66874 1.001244,-0.667497 1.001244,-0.667497 1.856474,-0.584059 z"
       fill="#649f67"
       id="path817"
       style="stroke-width:0.333748" />
    <path
       d="m 65.493648,39.857816 c 0.110121,0 0.220268,0 0.333744,0 0.08351,1.877333 0.08351,1.877333 -0.667488,3.003733 -0.22028,0 -0.440547,0 -0.6675,0 0,0.33041 0,0.660822 0,1.001245 -0.220268,0 -0.440548,0 -0.667501,0 -0.250301,-0.5632 -0.250301,-0.5632 -0.333744,-1.334992 0.604922,-0.85523 0.604922,-0.85523 1.334989,-1.668742 0.22028,-0.330411 0.440547,-0.660821 0.6675,-1.001244 z"
       fill="#609d64"
       id="path840"
       style="stroke-width:0.333748" />
    <path
       d="m 63.157403,20.166674 c 0.220267,0.110134 0.440547,0.220274 0.6675,0.333748 0.450639,1.392892 0.250933,2.58299 0,4.004978 -0.7103,-0.864703 -1.232158,-1.538787 -1.335001,-2.669984 0.312893,-0.917809 0.312893,-0.917809 0.667501,-1.668742 z"
       fill="#6ea26e"
       id="path859"
       style="stroke-width:0.333748" />
    <path
       d="m 78.176071,73.90013 c 0.220267,0.33041 0.440547,0.660821 0.6675,1.001244 -0.41571,0.273436 -0.833262,0.54406 -1.251559,0.813511 -0.232326,0.151008 -0.46464,0.302016 -0.704005,0.4576 -0.690925,0.384547 -1.277443,0.580114 -2.049414,0.731378 0,-0.220274 0,-0.440547 0,-0.667497 1.46335,-1.001244 1.46335,-1.001244 2.336233,-1.001244 0,-0.220274 0,-0.440548 0,-0.667496 0.330414,-0.220273 0.660828,-0.440547 1.001245,-0.667496 z"
       fill="#acdbae"
       id="path904"
       style="stroke-width:0.333748" />
    <path
       d="m 56.148691,54.876484 c 0.330414,0.110133 0.660815,0.220273 1.001245,0.333747 -1.03471,1.093834 -1.992802,1.979478 -3.337478,2.669986 -0.22028,0 -0.440548,0 -0.667501,0 0,-0.220274 0,-0.440547 0,-0.667497 0.440548,-0.110133 0.881096,-0.220273 1.334989,-0.333747 0,-0.220274 0,-0.440548 0,-0.667497 0.771794,-0.730074 0.771794,-0.730074 1.668745,-1.334992 z"
       fill="#719e74"
       id="path906"
       style="stroke-width:0.333748" />
    <path
       d="m 20.103892,76.903863 c 1.848452,0.205384 1.848452,0.205384 2.628267,0.85523 0.185856,0.237482 0.185856,0.237482 0.375467,0.479762 -0.770959,0.110134 -1.541917,0.220274 -2.336237,0.333749 0,-0.220273 0,-0.440547 0,-0.667496 -0.220274,0 -0.440548,0 -0.667497,0 0,-0.330412 0,-0.660822 0,-1.001245 z"
       fill="#5e9d63"
       id="path965"
       style="stroke-width:0.333748" />
    <path
       d="m 40.796278,60.883951 c 0.550684,0.110134 1.101364,0.220274 1.668746,0.333748 0.110121,0.440547 0.220268,0.881095 0.333744,1.334993 -0.770961,-0.110134 -1.541918,-0.220274 -2.336238,-0.333749 0.110134,-0.440548 0.220274,-0.881095 0.333748,-1.334992 z"
       fill="#5f9b62"
       id="path966"
       style="stroke-width:0.333748" />
    <path
       d="m 27.446351,58.213965 c 0.33041,0 0.660822,0 1.001245,0 0,0.220274 0,0.440548 0,0.667497 1.156437,-0.165206 1.156437,-0.165206 2.336237,-0.333749 -0.333748,0.667497 -0.333748,0.667497 -1.272415,1.063823 -1.016967,0.259226 -1.443459,0.304866 -2.398814,-0.06258 0.110133,-0.440547 0.220273,-0.881095 0.333747,-1.334991 z"
       fill="#62a065"
       id="path967"
       style="stroke-width:0.333748" />
    <path
       d="m 66.828637,34.184098 c 0.220267,0 0.440547,0 0.6675,0 -0.110121,0.660821 -0.22028,1.321642 -0.333756,2.002489 -0.220268,0 -0.440548,0 -0.667488,0 -0.110121,0.550684 -0.22028,1.101369 -0.333757,1.668741 -0.110121,0 -0.220267,0 -0.333744,0 0,-0.770959 0,-1.541917 0,-2.336238 0.22028,0 0.440548,0 0.667501,0 0.110121,-0.440548 0.220267,-0.881095 0.333744,-1.334992 z"
       fill="#71a673"
       id="path1042"
       style="stroke-width:0.333748" />
    <path
       d="m 35.456308,55.54398 c -3.300516,1.716269 -3.300516,1.716269 -4.484741,1.564445 -0.172089,-0.07572 -0.344178,-0.151438 -0.521482,-0.229452 0,-0.110134 0,-0.220274 0,-0.333748 0.520535,-0.169806 1.042259,-0.335963 1.564444,-0.500622 0.290401,-0.09293 0.5808,-0.185857 0.88,-0.2816 0.891008,-0.218524 1.648632,-0.25851 2.561779,-0.219023 z"
       fill="#d8f1d9"
       id="path1066"
       style="stroke-width:0.333748" />
    <path
       d="m 29.44884,26.841637 c 0.110134,0 0.220274,0 0.333748,0 0.02694,0.931905 0.04685,1.863038 0.06258,2.79514 0.0085,0.265018 0.01678,0.530035 0.02542,0.803082 0.0088,0.692399 -0.03632,1.384975 -0.088,2.075497 -0.33041,0.220274 -0.660821,0.440548 -1.001244,0.667496 0.0512,-0.166926 0.102388,-0.333853 0.155141,-0.505837 0.243546,-1.130622 0.299947,-2.264145 0.366341,-3.415704 0.01442,-0.23275 0.02882,-0.465501 0.04367,-0.705304 0.03522,-0.57139 0.06894,-1.142872 0.102338,-1.71437 z"
       fill="#effdef"
       id="path1071"
       style="stroke-width:0.333748" />
    <path
       d="m 33.453819,18.164185 c 0.354607,0.625778 0.354607,0.625778 0.667496,1.334993 -0.110133,0.220273 -0.220273,0.440547 -0.333749,0.667496 -0.33041,0 -0.660821,0 -1.001244,0 0,0.220274 0,0.440548 0,0.667497 -0.220274,0 -0.440548,0 -0.667496,0 0.375305,-0.99188 0.741901,-1.78035 1.334993,-2.669986 z"
       fill="#74a374"
       id="path1100"
       style="stroke-width:0.333748" />
    <path
       d="m 44.133757,12.156718 c 1.38885,-0.02723 2.65238,0.0058 4.004978,0.333748 -0.110121,0.220274 -0.22028,0.440548 -0.333744,0.667497 -2.505678,0.123227 -2.505678,0.123227 -3.33749,-0.500622 -0.110121,-0.165206 -0.220268,-0.330412 -0.333744,-0.500623 z"
       fill="#69a26c"
       id="path1103"
       style="stroke-width:0.333748" />
    <path
       d="m 35.12256,57.880217 c -0.110134,0.33041 -0.220274,0.660822 -0.333748,1.001245 -1.101369,0 -2.202738,0 -3.337483,0 1.296294,-0.864195 2.145156,-1.04249 3.671231,-1.001245 z"
       fill="#acd9ab"
       id="path1124"
       style="stroke-width:0.333748" />
    <path
       d="m 66.828637,40.191565 c 0.310597,0.869689 0.383532,1.215505 0.02081,2.085926 -0.175538,0.289109 -0.175538,0.289109 -0.354608,0.58406 -0.22028,0 -0.440547,0 -0.6675,0 -0.110121,0.33041 -0.220268,0.660821 -0.333744,1.001244 -0.22028,-0.110134 -0.440548,-0.220274 -0.667501,-0.333749 0.206506,-0.240924 0.413011,-0.481849 0.625773,-0.730074 0.65471,-0.866517 1.027331,-1.588379 1.376716,-2.607407 z"
       fill="#d5eed7"
       id="path1159"
       style="stroke-width:0.333748" />
    <path
       d="m 59.819925,55.210231 c 0.440548,0.220274 0.881095,0.440548 1.334989,0.667497 -0.330402,0.110134 -0.660815,0.220274 -1.001245,0.333748 -0.569325,0.542849 -1.12731,1.098054 -1.668732,1.668741 0.200009,-1.120045 0.616173,-1.794902 1.334988,-2.669986 z"
       fill="#dff4e0"
       id="path1184"
       style="stroke-width:0.333748" />
    <path
       d="m 29.115093,80.241345 c -0.110134,0.220273 -0.220274,0.440547 -0.333748,0.667496 -0.660821,0 -1.321643,0 -2.002489,0 -0.110134,-0.220273 -0.220274,-0.440547 -0.333749,-0.667496 1.018812,-0.327475 1.651173,-0.327475 2.669986,0 z"
       fill="#639f66"
       id="path1245"
       style="stroke-width:0.333748" />
    <path
       d="m 79.511072,76.570115 c -0.333744,1.001245 -0.333744,1.001245 -0.938666,1.41843 -0.843367,0.289152 -1.238112,0.211904 -2.065068,-0.08344 2.252803,-1.334993 2.252803,-1.334993 3.003734,-1.334993 z"
       fill="#e1f4e1"
       id="path1246"
       style="stroke-width:0.333748" />
    <path
       d="m 42.798768,56.545225 c 0.770962,0.220274 1.541911,0.440548 2.336233,0.667497 -1.001244,0.667495 -1.001244,0.667495 -1.898183,0.542341 -0.254691,-0.06884 -0.509382,-0.137672 -0.771794,-0.208594 0.110121,-0.330411 0.220268,-0.660821 0.333744,-1.001244 z"
       fill="#649e63"
       id="path1249"
       style="stroke-width:0.333748" />
    <path
       d="m 67.496137,35.51909 c 0.110122,0 0.220268,0 0.333744,0 0.08313,0.59011 0.158093,1.181385 0.229451,1.773037 0.04264,0.32912 0.08514,0.658241 0.129067,0.997333 -0.02472,0.90086 -0.02472,0.90086 -1.026006,1.902105 0.110122,-1.541917 0.220268,-3.083833 0.333744,-4.672475 z"
       fill="#c6e3c7"
       id="path1254"
       style="stroke-width:0.333748" />
    <path
       d="m 51.809969,11.822971 c 1.317392,-0.05988 2.202082,-0.03121 3.337478,0.667496 0,0.220274 0,0.440548 0,0.667496 -1.101363,-0.33041 -2.202738,-0.660822 -3.337478,-1.001245 0,-0.110133 0,-0.220274 0,-0.333747 z"
       fill="#e1f6e3"
       id="path1260"
       style="stroke-width:0.333748" />
  </g>
</svg>
