<?xml version="1.0" encoding="UTF-8" standalone="no"?>
<!-- Created with Inkscape (http://www.inkscape.org/) -->

<svg
   width="96mm"
   height="96mm"
   viewBox="0 0 96 96"
   version="1.1"
   id="svg1"
   inkscape:version="1.4.2 (ebf0e940, 2025-05-08)"
   sodipodi:docname="finish.svg"
   xmlns:inkscape="http://www.inkscape.org/namespaces/inkscape"
   xmlns:sodipodi="http://sodipodi.sourceforge.net/DTD/sodipodi-0.dtd"
   xmlns="http://www.w3.org/2000/svg"
   xmlns:svg="http://www.w3.org/2000/svg">
  <sodipodi:namedview
     id="namedview1"
     pagecolor="#ffffff"
     bordercolor="#000000"
     borderopacity="0.25"
     inkscape:showpageshadow="2"
     inkscape:pageopacity="0.0"
     inkscape:pagecheckerboard="0"
     inkscape:deskcolor="#d1d1d1"
     inkscape:document-units="mm"
     inkscape:zoom="0.80444024"
     inkscape:cx="397.17059"
     inkscape:cy="163.46771"
     inkscape:window-width="1920"
     inkscape:window-height="1052"
     inkscape:window-x="0"
     inkscape:window-y="28"
     inkscape:window-maximized="0"
     inkscape:current-layer="layer1" />
  <defs
     id="defs1" />
  <g
     inkscape:label="Layer 1"
     inkscape:groupmode="layer"
     id="layer1">
    <path
       d="m 70.806685,18.33252 c 6.822952,5.600808 11.846849,12.981901 13.780654,21.655314 0.05742,0.2538 0.114958,0.5076 0.174148,0.76909 0.527156,2.55419 0.60873,5.056436 0.605121,7.659257 -1.86e-4,0.217436 -3.72e-4,0.434871 -5.33e-4,0.658895 -0.01302,3.438707 -0.296224,6.372161 -1.434961,9.615075 -0.145403,0.463226 -0.289763,0.926785 -0.433206,1.390626 -3.090636,9.678451 -10.045052,17.277288 -18.97235,21.96484 C 56.022439,86.320383 46.094936,87.197732 36.970256,84.38533 26.968132,80.683425 18.764401,73.865175 14.125541,64.144993 12.979712,61.648654 12.100559,59.053806 11.418626,56.393375 11.357303,56.155727 11.295968,55.91808 11.232782,55.67323 c -0.558656,-2.430654 -0.596871,-4.832427 -0.593418,-7.31857 1.77e-4,-0.216979 3.27e-4,-0.433959 6.56e-4,-0.657514 0.01342,-3.587239 0.303718,-6.920067 1.434828,-10.334199 0.06858,-0.209521 0.137143,-0.419043 0.207793,-0.634913 C 15.647862,26.81386 22.735604,18.728747 32.089608,14.06708 44.748332,7.9908947 59.691894,9.9856129 70.806685,18.33252 Z"
       fill="#fcfefd"
       id="path3"
       style="stroke-width:0.32811" />
    <path
       d="m 68.509913,24.238515 c 0.324833,0.108273 0.649653,0.216553 0.984333,0.32811 0.04154,0.231075 0.08321,0.462148 0.125982,0.700225 0.400032,2.223232 0.800288,4.446423 1.200768,6.669574 0.245553,1.363144 0.490919,2.726321 0.73615,4.089524 0.158981,0.883423 0.318186,1.766803 0.477403,2.650183 0.119422,0.662958 0.238397,1.325978 0.35741,1.989002 0.387136,2.152178 0.782915,4.302092 1.196787,6.449339 0.07652,0.400318 0.153017,0.800637 0.23185,1.213087 0.143381,0.747326 0.288932,1.494242 0.437124,2.240632 0.378195,1.978092 0.610479,3.810043 0.486295,5.825184 -1.861719,2.453692 -5.97781,3.553096 -8.87437,4.139836 -3.891843,0.504498 -7.591036,-0.05072 -11.273685,-1.36243 -6.699811,-2.368933 -12.157136,-1.869313 -18.585679,1.175306 -0.211056,0.103201 -0.422112,0.206402 -0.63956,0.312729 0.223423,2.13461 0.820648,4.121013 1.435484,6.172585 0.09982,0.33773 0.199635,0.675459 0.302477,1.023423 0.385922,1.303725 0.772216,2.607017 1.176425,3.905208 0.08888,0.287002 0.177747,0.574004 0.269314,0.869701 0.118802,0.37733 0.118802,0.37733 0.239995,0.762283 0.303015,1.174903 0.312792,2.135171 0.185523,3.34423 -0.389631,0.656221 -0.389631,0.656221 -0.984333,0.984333 -0.79977,0.164054 -0.79977,0.164054 -1.640553,0 -1.580631,-1.469543 -1.907007,-3.422305 -2.440325,-5.434336 -0.227318,-0.826068 -0.455454,-1.651881 -0.684419,-2.477492 -0.06192,-0.224707 -0.123837,-0.44941 -0.187631,-0.680925 -0.794864,-2.873286 -1.647933,-5.729485 -2.496614,-8.587235 -0.464756,-1.564986 -0.928085,-3.130394 -1.391506,-4.695776 -0.08823,-0.297904 -0.176464,-0.595808 -0.26737,-0.90274 -0.68186,-2.303378 -1.356879,-4.608658 -2.026842,-6.915526 -0.666203,-2.293181 -1.342597,-4.582959 -2.030186,-6.86982 -0.07954,-0.265933 -0.159084,-0.531867 -0.241037,-0.805858 -0.388689,-1.298017 -0.783321,-2.59367 -1.189319,-3.886383 -0.152096,-0.493447 -0.304192,-0.986895 -0.456281,-1.480344 -0.07069,-0.218852 -0.141373,-0.437706 -0.214201,-0.66319 -0.478608,-1.568864 -0.59789,-2.882665 -0.483035,-4.504555 0.656222,-0.656222 0.656222,-0.656222 1.59954,-0.73825 1.025347,0.08203 1.025347,0.08203 1.672598,0.457561 0.219513,0.09262 0.439025,0.185254 0.665192,0.280689 0.605926,-0.222253 0.605926,-0.222253 1.168896,-0.67673 5.269708,-3.57483 11.434823,-4.35864 17.668803,-3.476724 1.928039,0.373632 3.783135,0.986066 5.652703,1.579834 4.926288,1.467407 9.877031,1.678521 14.55479,-0.707489 0.914651,-0.59176 1.779636,-1.201951 2.628723,-1.884074 0.215294,-0.136192 0.430576,-0.272382 0.652381,-0.412701 z"
       fill="#55a55c"
       id="path8"
       style="stroke-width:0.32811" />
    <path
       d="m 55.385472,8.4891969 c 0.228129,0.049431 0.456259,0.098861 0.691308,0.1497971 10.445185,2.328857 19.609416,8.223514 25.481382,17.268994 2.823159,4.483675 4.668111,8.943926 5.982175,14.079848 0.131959,0.50247 0.131959,0.50247 0.266585,1.015092 2.09678,9.901485 -0.703288,21.083821 -6.129003,29.460762 -0.642361,0.914232 -1.31513,1.790126 -2.012242,2.663338 -0.140318,0.178857 -0.280635,0.357713 -0.425207,0.541994 -3.464515,4.382605 -7.521317,7.536026 -12.371115,10.285663 -0.300725,0.17468 -0.601451,0.349362 -0.911278,0.529335 -3.005876,1.631518 -6.288927,2.559703 -9.588273,3.407995 -0.249521,0.06494 -0.49903,0.129899 -0.756116,0.196817 -2.494779,0.576832 -4.998462,0.604112 -7.549194,0.602954 -0.346721,3.27e-4 -0.346721,3.27e-4 -0.700448,6.56e-4 -4.063362,-0.01104 -7.806108,-0.467536 -11.665224,-1.784759 -0.245208,-0.08258 -0.490416,-0.165165 -0.743055,-0.250251 C 29.494511,84.754015 24.842277,81.613162 20.605725,77.72058 20.319805,77.461729 20.03389,77.202883 19.739305,76.936188 12.704587,70.255419 8.1035086,60.163937 7.7427574,50.442522 7.5410445,38.774064 11.264778,28.443001 19.366339,19.923089 28.572052,10.48432 42.328963,5.6391472 55.385472,8.4891969 Z M 21.918168,21.285518 c -0.21909,0.191176 -0.438182,0.382352 -0.663912,0.579321 -5.891336,5.476454 -10.047892,14.533784 -10.56387,22.518526 -0.367378,11.380307 2.414917,21.202042 10.243449,29.727996 0.359088,0.399691 0.359088,0.399691 0.725434,0.807461 6.2871,6.661053 15.601277,10.630568 24.67239,11.057079 10.544207,0.242516 20.08228,-3.535985 27.747474,-10.723522 6.319049,-6.132205 10.983588,-15.172005 11.274653,-24.06648 0.0099,-0.827491 0.01401,-1.655068 0.01277,-2.482621 -1.74e-4,-0.216451 -3.6e-4,-0.432903 -5.21e-4,-0.655909 C 85.326479,37.577272 81.144501,28.53315 73.964709,21.018928 72.084029,19.19459 70.055727,17.772971 67.85365,16.363856 67.444441,16.091049 67.444441,16.091049 67.02696,15.812732 52.358651,6.4230695 34.27726,10.292224 21.91813,21.285518 Z"
       fill="#57a260"
       id="path15"
       style="stroke-width:0.32811" />
    <path
       d="m 32.417719,26.863402 c 0,0.216553 0,0.433106 0,0.656222 0.216554,0 0.433107,0 0.656222,0 0.162414,0.487244 0.162414,0.487244 0.328111,0.984332 -0.312565,0.130694 -0.625128,0.261386 -0.947164,0.39604 -0.415719,0.175525 -0.831411,0.35112 -1.247077,0.526771 -0.205345,0.08565 -0.41069,0.171297 -0.622257,0.259542 -1.200651,0.509175 -2.317501,1.070194 -3.417607,1.770645 0.42983,2.295893 0.42983,2.295893 1.025346,4.552536 0.287096,1.025347 0.287096,1.025347 0.287096,2.337791 0.440297,-0.267097 0.440297,-0.267097 0.889489,-0.539589 2.266537,-1.349743 4.381305,-2.493661 6.985171,-3.06963 0,-0.541384 0,-1.082766 0,-1.640555 0.387004,0.161147 0.387004,0.161147 0.781828,0.325547 1.506815,0.419826 2.872644,0.402119 4.42693,0.371689 0.28846,-0.003 0.576909,-0.006 0.874112,-0.0089 0.706673,-0.0077 1.413297,-0.01945 2.119896,-0.03204 0.108261,-0.216553 0.216559,-0.433106 0.328119,-0.656222 0.162416,0.649659 0.162416,0.649659 0.328106,1.312444 -2.815184,0.108273 -5.63038,0.216553 -8.53088,0.32811 0.32483,1.299319 0.649659,2.598638 0.984332,3.93733 0,1.968665 0,1.968665 -0.337082,2.515944 -1.168156,0.788794 -2.50266,1.277201 -3.809803,1.792433 -1.065559,0.459059 -1.68045,0.814906 -2.298697,1.809096 -0.165264,1.560012 0.283118,2.72672 0.826685,4.177004 0.09685,0.272806 0.193713,0.545613 0.293505,0.826686 0.238621,0.669678 0.484519,1.336756 0.731841,2.00327 0.359936,-0.185677 0.71987,-0.371355 1.090713,-0.562659 0.47716,-0.243198 0.954375,-0.486284 1.431639,-0.729278 0.354965,-0.183668 0.354965,-0.183668 0.717101,-0.371046 1.21139,-0.613992 2.284926,-1.120281 3.650875,-1.290014 -0.09474,-0.359936 -0.189484,-0.71987 -0.287098,-1.090713 -0.123142,-0.477187 -0.24618,-0.954401 -0.369124,-1.431639 -0.0626,-0.236644 -0.125195,-0.473287 -0.189689,-0.717102 -0.318441,-1.245333 -0.548414,-2.353574 -0.466533,-3.650874 0.268999,0.0038 0.537999,0.0076 0.81515,0.01153 0.530386,0.0045 0.530386,0.0045 1.071487,0.0089 0.350208,0.0038 0.700414,0.0076 1.061234,0.01153 0.84828,-0.02747 1.491547,-0.1476 2.301905,-0.360154 0.519108,-0.02149 1.039021,-0.02815 1.558526,-0.02051 0.262232,0.003 0.524464,0.006 0.794646,0.0089 0.197933,0.0038 0.395878,0.0076 0.599826,0.01153 0.221854,0.778492 0.440026,1.557723 0.656213,2.337789 0.09388,0.327368 0.09388,0.327368 0.189699,0.661349 0.382969,1.395135 0.466527,2.40367 0.466527,3.891189 -2.598638,0.108274 -5.197276,0.216553 -7.874659,0.328111 0.538502,1.899735 0.538502,1.899735 1.079818,3.798667 0.06662,0.237357 0.133231,0.474714 0.201866,0.719264 0.103052,0.363413 0.103052,0.363413 0.208275,0.734165 0.150598,0.653898 0.150598,0.653898 0.150598,1.638231 0.243619,-0.05414 0.487237,-0.108274 0.738246,-0.164056 2.396266,-0.3195 4.760437,-0.281439 7.136414,0.164056 -0.09474,-0.414919 -0.189488,-0.829839 -0.287096,-1.25733 -0.123143,-0.544704 -0.246136,-1.089419 -0.36913,-1.634147 -0.06262,-0.273441 -0.125188,-0.546881 -0.189686,-0.828608 -0.05915,-0.263289 -0.11843,-0.526579 -0.179443,-0.797847 -0.05494,-0.242274 -0.109997,-0.484548 -0.166608,-0.734164 -0.120538,-0.653899 -0.120538,-0.653899 -0.120538,-1.638231 1.859833,0.195121 3.479037,0.686548 5.22927,1.33295 0.255672,0.09241 0.511357,0.184831 0.77478,0.280048 0.624256,0.225957 1.247532,0.454592 1.87061,0.683777 -0.03981,-0.183694 -0.07949,-0.36739 -0.120414,-0.55665 -0.179617,-0.83274 -0.357696,-1.665804 -0.535738,-2.498882 -0.06262,-0.289089 -0.125201,-0.57818 -0.189686,-0.87603 -0.05928,-0.278092 -0.11843,-0.556186 -0.179443,-0.842707 -0.05494,-0.256019 -0.109997,-0.51204 -0.16662,-0.775817 -0.120414,-0.684019 -0.120414,-0.684019 -0.120414,-1.668352 0.372204,0.05371 0.744397,0.10743 1.127886,0.162774 1.488609,0.186077 2.95177,0.202722 4.450002,0.185844 0.254196,-0.0015 0.508393,-0.003 0.77029,-0.0045 0.618204,-0.0038 1.236409,-0.0097 1.854588,-0.01602 0.166906,0.771909 0.330438,1.544291 0.492172,2.317283 0.047,0.215496 0.09388,0.430992 0.142265,0.653017 0.297253,1.436688 0.395941,2.773014 0.349896,4.248139 -1.137969,0.379325 -2.04136,0.371659 -3.240094,0.369124 -0.398421,8.53e-4 -0.796842,0.0017 -1.207341,0.0026 -0.970059,-0.03739 -1.829947,-0.146261 -2.771,-0.371684 0.101317,0.9093 0.203985,1.818391 0.307608,2.727422 0.02852,0.257791 0.05704,0.515581 0.08656,0.781184 0.02852,0.248488 0.05704,0.496973 0.08656,0.752989 0.02579,0.228529 0.05159,0.457056 0.07813,0.69251 0.0909,0.694809 0.0909,0.694809 0.425604,1.608111 0.915519,0.305172 1.563548,0.389465 2.515948,0.431927 0.292887,0.01374 0.585787,0.02749 0.887567,0.04165 0.30473,0.0129 0.609474,0.02579 0.923443,0.03909 0.462819,0.02125 0.462819,0.02125 0.934989,0.04293 0.761486,0.03479 1.523009,0.06828 2.284606,0.10061 -0.07106,-0.411113 -0.142116,-0.822225 -0.215332,-1.245796 -0.09226,-0.541714 -0.184614,-1.08344 -0.27684,-1.625173 -0.047,-0.270692 -0.09388,-0.541384 -0.142265,-0.820277 -0.0444,-0.262232 -0.08879,-0.524466 -0.134576,-0.794644 -0.04117,-0.240556 -0.08247,-0.481112 -0.124965,-0.728958 -0.0904,-0.691147 -0.0904,-0.691147 -0.0904,-2.00359 0.363735,-0.130693 0.727482,-0.261386 1.102242,-0.39604 0.480255,-0.175474 0.960448,-0.351071 1.440616,-0.526772 0.23939,-0.08565 0.478779,-0.171297 0.725436,-0.259541 1.012694,-0.37286 1.85651,-0.692585 2.724855,-1.343844 0.569059,-0.4268 0.569059,-0.4268 1.881511,-0.4268 0.32482,-0.649659 0.32482,-0.649659 0.656213,-1.312444 1.09779,1.646676 1.237388,3.67283 1.54011,5.604959 0.08284,0.518601 0.178922,1.035056 0.278602,1.550677 0.09549,0.798015 0.106897,1.278948 -0.178154,2.031468 -2.561013,2.813102 -7.120465,4.077156 -10.807145,4.332089 -3.264264,0.04996 -6.263195,-0.458446 -9.34091,-1.554683 -6.699822,-2.368933 -12.157135,-1.869314 -18.585682,1.175305 -0.211055,0.103201 -0.422111,0.206401 -0.63956,0.312729 0.223424,2.134611 0.820648,4.121013 1.435484,6.172585 0.09982,0.337731 0.199636,0.675459 0.302478,1.023423 0.385921,1.303726 0.772215,2.607018 1.176424,3.905209 0.08888,0.287001 0.177747,0.574003 0.269314,0.8697 0.118802,0.377331 0.118802,0.377331 0.239995,0.762283 0.303015,1.174903 0.312794,2.135171 0.185524,3.34423 -0.389632,0.656222 -0.389632,0.656222 -0.984332,0.984333 -0.799771,0.164055 -0.799771,0.164055 -1.640555,0 -1.580639,-1.469467 -1.907015,-3.422228 -2.440334,-5.434259 -0.227318,-0.826068 -0.455453,-1.651881 -0.684418,-2.477494 -0.06192,-0.224706 -0.123837,-0.44941 -0.187631,-0.680925 -0.794865,-2.873286 -1.647932,-5.729484 -2.496614,-8.587234 -0.464757,-1.564985 -0.928086,-3.130395 -1.391507,-4.695776 -0.08823,-0.297904 -0.176465,-0.595808 -0.267371,-0.90274 -0.681857,-2.303378 -1.356879,-4.608657 -2.026841,-6.915525 -0.666203,-2.293181 -1.342597,-4.582961 -2.030186,-6.869821 -0.07954,-0.265933 -0.159083,-0.531866 -0.241035,-0.805858 -0.388692,-1.298016 -0.783324,-2.593669 -1.189322,-3.886383 -0.152096,-0.493447 -0.304189,-0.986896 -0.45628,-1.480344 -0.07069,-0.218853 -0.141372,-0.437706 -0.214201,-0.66319 -0.478609,-1.568863 -0.597889,-2.882665 -0.483034,-4.504555 0.656221,-0.656222 0.656221,-0.656222 1.599541,-0.73825 1.025345,0.08203 1.025345,0.08203 1.66875,0.458843 0.658456,0.367328 0.658456,0.367328 1.279119,0.03075 0.20471,-0.148034 0.409422,-0.296069 0.620335,-0.448589 0.916619,-0.625356 1.820272,-1.197467 2.809449,-1.702075 0.208517,-0.107009 0.417035,-0.214015 0.63187,-0.324265 0.578039,-0.229421 0.578039,-0.229421 1.562371,-0.229421 z"
       fill="#54a45b"
       id="path18"
       style="stroke-width:0.32811" />
    <path
       d="m 43.901601,27.519624 c 7.166077,0.779098 7.166077,0.779098 8.759015,2.606942 0.268706,0.789116 0.363202,1.48388 0.428084,2.31472 0.119422,0.650071 0.242453,1.299472 0.369129,1.948158 0.04824,0.300721 0.09648,0.601442 0.14611,0.911276 0.106772,0.756229 0.106772,0.756229 0.469094,1.406006 2.576142,0.525743 5.257321,0.356699 7.874659,0.328112 0.220367,1.018165 0.438501,2.036798 0.656226,3.055532 0.06263,0.289089 0.125189,0.57818 0.189687,0.87603 0.05928,0.278092 0.118429,0.556186 0.179443,0.842707 0.05494,0.256019 0.109997,0.51204 0.166608,0.775817 0.120538,0.684019 0.120538,0.684019 0.120538,1.668352 -0.985784,0.492888 -1.897483,0.384182 -2.99402,0.389632 -0.420408,0.0047 -0.840828,0.0093 -1.273984,0.0141 -1.409366,-0.08136 -2.580284,-0.350232 -3.934775,-0.731843 0.09474,0.411114 0.189488,0.822227 0.287096,1.245796 0.123143,0.541709 0.246161,1.083435 0.36913,1.625175 0.09387,0.406038 0.09387,0.406038 0.189686,0.820277 0.05915,0.262232 0.11843,0.524465 0.179443,0.794644 0.05494,0.240555 0.109997,0.481112 0.166608,0.728956 0.120538,0.691147 0.120538,0.691147 0.120538,2.003591 -2.646159,-0.699982 -5.262728,-1.478728 -7.87466,-2.296776 0.09474,0.387427 0.189476,0.774855 0.287097,1.174022 0.123142,0.510945 0.246148,1.02191 0.369116,1.532893 0.06263,0.255042 0.125201,0.510084 0.189699,0.772855 0.05915,0.247428 0.11843,0.494857 0.179431,0.749784 0.05494,0.22681 0.109997,0.45362 0.16662,0.687303 0.120414,0.661027 0.120414,0.661027 0.120414,1.97347 -2.598637,0 -5.197275,0 -7.87466,0 -0.270689,-0.954187 -0.541382,-1.908373 -0.820276,-2.891476 -0.128474,-0.44906 -0.128474,-0.44906 -0.259542,-0.907192 -0.06662,-0.237357 -0.13323,-0.474714 -0.201865,-0.719263 -0.10309,-0.363412 -0.10309,-0.363412 -0.208273,-0.734164 -0.150598,-0.6539 -0.150598,-0.6539 -0.150598,-1.638232 0.98337,-0.285334 1.853679,-0.366706 2.876095,-0.360152 0.394774,0.0012 0.394774,0.0012 0.797523,0.0025 0.330649,0.003 0.661298,0.006 1.001967,0.0091 1.055688,0.0068 2.111388,0.01353 3.199071,0.02051 -0.433106,-2.273807 -0.866213,-4.547616 -1.312439,-6.890327 -0.954186,0.162415 -0.954186,0.162415 -1.927655,0.328111 -4.796766,0.739174 -4.796766,0.739174 -6.275115,0 0.09474,0.387426 0.189484,0.774853 0.287096,1.174021 0.123118,0.510946 0.246157,1.021911 0.369124,1.532893 0.0626,0.255042 0.125195,0.510084 0.18969,0.772855 0.05922,0.247428 0.11843,0.494857 0.179436,0.749784 0.05499,0.22681 0.109972,0.45362 0.166618,0.687303 0.120476,0.661027 0.120476,0.661027 0.120476,1.97347 -0.356128,0.15438 -0.712256,0.308759 -1.079177,0.467815 -0.474234,0.206323 -0.948457,0.412675 -1.422668,0.619053 -0.233895,0.101304 -0.467788,0.202596 -0.70877,0.306963 -1.357052,0.591376 -2.689845,1.211659 -4.007823,1.887278 -0.351455,-0.994858 -0.689495,-1.993789 -1.025346,-2.994011 -0.0994,-0.280843 -0.198789,-0.561685 -0.301195,-0.851037 -0.412145,-1.24602 -0.663228,-2.168751 -0.537026,-3.486178 0.805098,-1.273178 1.828683,-1.701674 3.17601,-2.30703 0.241931,-0.116309 0.483861,-0.232625 0.733122,-0.352462 1.770822,-0.836939 1.770822,-0.836939 2.547986,-0.836939 0.08663,-2.252533 -0.243321,-4.350246 -0.656221,-6.562217 1.029776,-0.303678 1.947931,-0.366384 3.019644,-0.360152 0.321447,10e-4 0.642893,0.0021 0.97408,0.0032 0.333289,0.0027 0.666578,0.0055 1.009965,0.0083 0.50755,0.0022 0.50755,0.0022 1.025355,0.0045 0.833958,0.0038 1.66789,0.0093 2.501836,0.01601 -0.09474,-0.387427 -0.189476,-0.774854 -0.287097,-1.174021 -0.123142,-0.510947 -0.246148,-1.021911 -0.369117,-1.532894 -0.06262,-0.255041 -0.125201,-0.510083 -0.189699,-0.772854 -0.05915,-0.247429 -0.118429,-0.494858 -0.17943,-0.749785 -0.08247,-0.340214 -0.08247,-0.340214 -0.166621,-0.687302 C 43.9017,28.832105 43.9017,28.832105 43.9017,27.519662 Z"
       fill="#57a35d"
       id="path25"
       style="stroke-width:0.32811" />
    <path
       d="m 43.901601,27.519624 c 7.120627,0.774157 7.120627,0.774157 8.770561,2.595407 0.287022,0.802812 0.372167,1.474352 0.416538,2.326255 0.03844,0.351899 0.07701,0.703798 0.11657,1.066361 0.09598,0.95746 0.164326,1.91005 0.211487,2.870969 -1.716936,-0.156084 -3.186968,-0.466809 -4.799909,-1.076614 -1.012917,-0.307044 -2.026342,-0.431776 -3.074751,-0.56394 0.07106,0.363742 0.142104,0.727483 0.21532,1.102247 0.09239,0.480192 0.184626,0.960396 0.27684,1.440612 0.047,0.239392 0.09388,0.478785 0.142265,0.725432 0.215009,1.12624 0.349908,2.142813 0.349908,3.293925 -4.060373,0.162416 -4.060373,0.162416 -8.202775,0.328111 -1.453062,-4.499805 -1.453062,-4.499805 -1.640554,-6.890327 1.029777,-0.303678 1.947931,-0.366384 3.019645,-0.360153 0.321446,10e-4 0.642892,0.0021 0.974079,0.0032 0.333289,0.0027 0.666578,0.0055 1.009963,0.0083 0.50755,0.0022 0.50755,0.0022 1.025355,0.0045 0.833958,0.0038 1.66789,0.0093 2.501835,0.01601 -0.09474,-0.387427 -0.189475,-0.774854 -0.287096,-1.174021 -0.123142,-0.510946 -0.246148,-1.021911 -0.369117,-1.532894 -0.06263,-0.255041 -0.125201,-0.510083 -0.189699,-0.772853 -0.08879,-0.371144 -0.08879,-0.371144 -0.17943,-0.749786 -0.05494,-0.226809 -0.109998,-0.453619 -0.166621,-0.687301 -0.120414,-0.661029 -0.120414,-0.661029 -0.120414,-1.973472 z"
       fill="#f9fefa"
       id="path43"
       style="stroke-width:0.32811" />
    <path
       d="m 70.150459,41.300278 c 0.216547,0.108274 0.433106,0.216554 0.656226,0.328111 0.164847,0.66976 0.164847,0.66976 0.279408,1.539301 0.04229,0.309815 0.08458,0.61963 0.128164,0.938833 0.04142,0.325887 0.08284,0.651774 0.125598,0.987537 0.06597,0.490734 0.06597,0.490734 0.133299,0.991381 0.108633,0.810777 0.214451,1.621822 0.317863,2.433275 -4.663634,2.952998 -4.663634,2.952998 -7.218446,2.952998 0.07106,0.383621 0.142116,0.767241 0.215331,1.162487 0.09239,0.507959 0.184627,1.015934 0.276841,1.52392 0.047,0.252293 0.09388,0.504586 0.142265,0.764524 0.229283,1.271967 0.412372,2.468671 0.349895,3.767506 -1.066328,0.0191 -2.132619,0.03073 -3.199071,0.04101 -0.30199,0.0055 -0.60398,0.01104 -0.915122,0.01667 -0.291846,0.0021 -0.58368,0.0042 -0.884368,0.0064 -0.402066,0.0052 -0.402066,0.0052 -0.812268,0.01042 -0.849136,-0.08419 -1.359241,-0.249288 -2.063831,-0.730719 -0.26186,-0.880353 -0.437992,-1.663677 -0.574192,-2.563365 -0.06151,-0.350526 -0.06151,-0.350526 -0.124321,-0.708131 -0.204679,-1.2157 -0.334245,-2.386247 -0.285819,-3.618831 0.264775,0.05371 0.529549,0.10743 0.802335,0.162773 1.372286,0.194533 2.695155,0.201083 4.078317,0.185845 0.25716,-0.0015 0.514308,-0.003 0.779269,-0.0045 0.628882,-0.0038 1.257763,-0.0097 1.886632,-0.01602 -0.07106,-0.411111 -0.142116,-0.822225 -0.215319,-1.245796 -0.09239,-0.541714 -0.184614,-1.08344 -0.276841,-1.625173 -0.047,-0.270691 -0.09388,-0.541382 -0.142277,-0.820277 -0.0444,-0.262232 -0.08879,-0.524465 -0.134576,-0.794644 -0.04117,-0.240555 -0.08247,-0.481111 -0.124965,-0.728956 -0.0904,-0.691149 -0.0904,-0.691149 -0.0904,-2.003591 0.249968,-0.07571 0.499936,-0.151418 0.75748,-0.229422 2.001206,-0.632095 3.778597,-1.329569 5.561221,-2.442887 0.282955,-0.138941 0.282955,-0.138941 0.571626,-0.280689 z"
       fill="#f7fdf7"
       id="path48"
       style="stroke-width:0.32811" />
    <path
       d="m 46.854599,41.628389 c 1.952779,0.390556 3.710465,0.742646 5.577888,1.33295 0.537994,0.168125 0.537994,0.168125 1.086864,0.339646 0.881801,0.296069 0.881801,0.296069 1.538014,0.624179 0.194982,0.558574 0.194982,0.558574 0.351185,1.277838 0.05704,0.259483 0.114214,0.518966 0.173032,0.786313 0.05704,0.273017 0.114213,0.546035 0.173019,0.827326 0.05965,0.269211 0.119298,0.538422 0.18072,0.815792 0.263151,1.219794 0.434496,2.25199 0.434496,3.51117 -2.646159,-0.699984 -5.262728,-1.478729 -7.87466,-2.296776 0.09474,0.387427 0.189475,0.774854 0.287096,1.174021 0.123143,0.510946 0.246149,1.021911 0.369117,1.532894 0.06263,0.255042 0.125201,0.510083 0.189699,0.772855 0.05915,0.247428 0.11843,0.494857 0.179431,0.749784 0.05494,0.22681 0.109997,0.453619 0.16662,0.687303 0.120414,0.661027 0.120414,0.661027 0.120414,1.97347 -2.598638,0 -5.197275,0 -7.87466,0 -0.27069,-0.954187 -0.541382,-1.908375 -0.820276,-2.891476 -0.08565,-0.299373 -0.171297,-0.598747 -0.259542,-0.907192 -0.06662,-0.237357 -0.13323,-0.474714 -0.201865,-0.719264 -0.06873,-0.242274 -0.137459,-0.484548 -0.208273,-0.734164 -0.150598,-0.653899 -0.150598,-0.653899 -0.150598,-1.638231 0.98337,-0.285336 1.853678,-0.366707 2.876095,-0.360153 0.394774,0.0012 0.394774,0.0012 0.797523,0.0025 0.330649,0.003 0.661298,0.006 1.001967,0.0091 1.055688,0.0067 2.111388,0.01353 3.199071,0.0205 -0.433107,-2.273808 -0.866213,-4.547616 -1.312439,-6.890327 z"
       fill="#fbfefc"
       id="path49"
       style="stroke-width:0.32811" />
    <path
       d="m 46.198373,26.20718 c 1.905643,0.340774 3.756448,0.783135 5.618898,1.312443 2.038533,0.560492 4.02632,0.892556 6.130454,1.088149 1.145955,0.113928 1.705242,0.225664 2.687528,0.880515 0.232222,0.767248 0.232222,0.767248 0.383217,1.714893 0.05605,0.338364 0.112106,0.676728 0.16982,1.025345 0.05432,0.354438 0.108757,0.708873 0.164698,1.074052 0.05816,0.356974 0.116322,0.713947 0.176231,1.08174 0.143294,0.882969 0.282608,1.766384 0.418473,2.65052 -1.506837,0.753419 -3.59702,0.362505 -5.249769,0.32811 -0.281268,0.0021 -0.562536,0.0042 -0.852323,0.0064 -0.685703,-0.02691 -0.685703,-0.02691 -1.772567,-0.334519 -0.829035,-1.585264 -1.2234,-3.150858 -1.538014,-4.901156 -0.142116,-0.764703 -0.284232,-1.529407 -0.430651,-2.317282 -2.706912,-0.757937 -5.413835,-1.515872 -8.202767,-2.296777 -0.108261,0.324831 -0.216559,0.64966 -0.328119,0.984333 -0.108261,-0.216553 -0.216547,-0.433107 -0.328107,-0.656221 0.108261,-0.216553 0.21656,-0.433106 0.328107,-0.656222 0.765591,-0.109365 1.531194,-0.218741 2.296784,-0.328111 0.108261,-0.216553 0.216547,-0.433106 0.328107,-0.656222 z"
       fill="#55a45c"
       id="path55"
       style="stroke-width:0.32811" />
    <path
       d="m 35.042605,28.175845 c 0.265437,0.794372 0.491367,1.569053 0.697236,2.378803 0.05964,0.219514 0.119273,0.439028 0.180717,0.665194 0.312822,1.197191 0.506443,2.280632 0.43449,3.51822 -0.172037,0.07436 -0.344074,0.14872 -0.521323,0.225335 -0.784005,0.340076 -1.566823,0.682801 -2.349646,1.025587 -0.270692,0.116942 -0.541383,0.233894 -0.820277,0.354385 -0.393349,0.172882 -0.393349,0.172882 -0.794644,0.349259 -0.360833,0.15722 -0.360833,0.15722 -0.728956,0.317616 -0.719295,0.341482 -0.719295,0.341482 -1.395112,0.886765 -0.60848,0.450271 -0.60848,0.450271 -1.264702,0.450271 -0.284233,-0.95597 -0.563796,-1.9129 -0.840783,-2.87097 -0.08099,-0.270691 -0.161992,-0.541382 -0.245442,-0.820276 -0.07508,-0.262233 -0.15015,-0.524465 -0.227499,-0.794644 -0.07045,-0.240555 -0.140897,-0.481112 -0.213481,-0.728957 -0.130985,-0.798684 -0.09638,-1.256251 0.214762,-2.003591 0.840444,-0.513766 1.63488,-0.939985 2.522352,-1.353457 0.348622,-0.170663 0.348622,-0.170663 0.704285,-0.344772 3.644398,-1.75658 3.644398,-1.75658 4.648023,-1.254768 z"
       fill="#f7fdf7"
       id="path64"
       style="stroke-width:0.32811" />
    <path
       d="m 53.744926,36.706726 c 0.378963,0.05414 0.757939,0.108274 1.148386,0.164056 2.342221,0.26693 4.700961,0.190044 7.05438,0.164055 0.220367,1.018166 0.438501,2.036797 0.656226,3.055533 0.06263,0.289089 0.125189,0.57818 0.189687,0.876029 0.08879,0.41714 0.08879,0.41714 0.179443,0.842706 0.05494,0.256021 0.109997,0.512042 0.166608,0.775819 0.120538,0.684019 0.120538,0.684019 0.120538,1.668352 -2.190334,1.095163 -5.959369,0.404429 -8.202779,-0.328112 C 54.40042,41.520306 53.904763,39.1973 53.744976,36.706726 Z"
       fill="#f7fdf7"
       id="path65"
       style="stroke-width:0.32811" />
    <path
       d="m 38.323714,41.956499 c 0.214768,0.655291 0.425952,1.311756 0.635715,1.968665 0.118008,0.365434 0.236009,0.730867 0.35759,1.107375 0.344565,1.284166 0.509688,2.493698 0.64725,3.814288 -0.534194,0.231568 -0.534194,0.231568 -1.079177,0.467814 -0.474236,0.206322 -0.948458,0.412675 -1.422668,0.619052 -0.233895,0.101304 -0.46779,0.202596 -0.708772,0.306963 -1.35705,0.591376 -2.689845,1.21166 -4.007822,1.887278 -0.339681,-1.016993 -0.672848,-2.036005 -1.004839,-3.055531 -0.09664,-0.289091 -0.193291,-0.57818 -0.292864,-0.876031 -0.134818,-0.41714 -0.134818,-0.41714 -0.272358,-0.842706 -0.08419,-0.256021 -0.168389,-0.51204 -0.255135,-0.775819 -0.143469,-0.684018 -0.143469,-0.684018 0.184643,-1.66835 0.50354,-0.347496 0.50354,-0.347496 1.145823,-0.658786 0.231358,-0.113779 0.462714,-0.227549 0.701081,-0.344772 0.2432,-0.115466 0.486399,-0.230934 0.736967,-0.349899 0.240662,-0.118008 0.481324,-0.236009 0.729278,-0.35759 2.553674,-1.241951 2.553674,-1.241951 3.905288,-1.241951 z"
       fill="#fafefa"
       id="path66"
       style="stroke-width:0.32811" />
    <path
       d="m 67.197462,27.191512 c 0.324832,0.108274 0.649653,0.216553 0.984332,0.328111 0.165529,0.847355 0.329334,1.694983 0.49216,2.542859 0.07044,0.359089 0.07044,0.359089 0.142277,0.725432 0.215009,1.12624 0.349895,2.142813 0.349895,3.293925 -5.112799,2.952998 -5.112799,2.952998 -7.218434,2.952998 -0.618477,-2.29884 -1.114593,-4.516151 -1.312451,-6.890327 0.336254,-0.130694 0.672508,-0.261387 1.018944,-0.39604 0.446487,-0.175514 0.892936,-0.351109 1.339361,-0.526773 0.220987,-0.08565 0.441986,-0.171296 0.669669,-0.25954 1.005526,-0.397303 1.893143,-0.785964 2.812655,-1.364351 0.238125,-0.134077 0.476249,-0.268154 0.721592,-0.406294 z"
       fill="#f7fdf8"
       id="path67"
       style="stroke-width:0.32811" />
    <path
       d="m 56.697923,51.143602 c 0.264775,0.05034 0.529537,0.100659 0.802335,0.15252 1.360072,0.204759 2.705907,0.289206 4.078318,0.360153 0.257147,0.01417 0.514308,0.02834 0.779256,0.04293 0.628832,0.03451 1.257726,0.0677 1.886645,0.10061 0.110493,0.792798 0.219622,1.585735 0.328106,2.378803 0.03125,0.223743 0.06263,0.447486 0.09487,0.678009 0.146159,1.075323 0.233264,2.089226 0.233264,3.177293 -2.976994,0.376663 -4.858988,0.359448 -7.546541,-0.984333 -0.207631,-0.907431 -0.207631,-0.907431 -0.369129,-2.050692 -0.05494,-0.373893 -0.109998,-0.747786 -0.166621,-1.133008 -0.102556,-0.92128 -0.144819,-1.797065 -0.120414,-2.722294 z"
       fill="#fcfefc"
       id="path75"
       style="stroke-width:0.32811" />
    <path
       d="m 17.324621,23.910404 c 0.461391,1.557195 0.539865,2.550229 -0.234549,4.023202 -0.239392,0.377054 -0.482602,0.751707 -0.729278,1.124037 -0.242368,0.377158 -0.484611,0.754396 -0.726713,1.131726 -0.200058,0.310026 -0.400115,0.620052 -0.606235,0.939473 -0.108274,0.216553 -0.216553,0.433106 -0.328112,0.656222 -0.324829,0 -0.649659,0 -0.984332,0 0,0.216553 0,0.433106 0,0.656222 -0.433107,0 -0.866213,0 -1.312443,0 0,-0.216553 0,-0.433106 0,-0.656222 -0.216553,0 -0.433107,0 -0.656222,0 0.399048,-2.622314 1.89002,-5.210484 3.937329,-6.890327 0.53606,-0.345461 1.080081,-0.680076 1.640555,-0.984333 z"
       fill="#519d58"
       id="path134"
       style="stroke-width:0.32811" />
    <path
       d="m 67.525581,24.894737 c 0.433652,0.71426 0.660541,1.165508 0.635714,2.009679 -0.447057,0.894115 -1.017555,0.92387 -1.948154,1.271429 -1.478848,0.646608 -1.478848,0.646608 -2.954287,1.300908 -0.935125,0.40824 -1.591165,0.667757 -2.623601,0.667757 -0.144224,-0.157763 -0.28846,-0.315525 -0.43705,-0.478068 -0.770389,-0.71265 -1.38083,-0.671101 -2.413415,-0.731841 -0.326098,-0.02157 -0.652196,-0.04314 -0.988177,-0.06537 -0.373681,-0.0184 -0.373681,-0.0184 -0.754913,-0.03717 0,-0.108273 0,-0.216553 0,-0.32811 0.278304,-0.0047 0.556608,-0.0093 0.843357,-0.0141 3.928042,-0.159711 7.559487,-1.027588 10.640526,-3.59512 z"
       fill="#5e9f67"
       id="path174"
       style="stroke-width:0.32811" />
    <path
       d="m 46.198373,26.20718 c 2.496639,0.419788 4.833813,1.124623 7.218434,1.968665 0,0.216553 0,0.433106 0,0.656222 -0.324821,0 -0.649653,0 -0.984333,0 0,0.216553 0,0.433106 0,0.65622 0.21656,0 0.433107,0 0.656226,0 -0.108261,0.541384 -0.216559,1.082766 -0.328107,1.640555 -0.06994,-0.203547 -0.139896,-0.407095 -0.211958,-0.61681 -0.623103,-0.975653 -1.195783,-1.035514 -2.302712,-1.326221 -0.367963,-0.09939 -0.735939,-0.19879 -1.115064,-0.301196 -0.385734,-0.09855 -0.771469,-0.197097 -1.168885,-0.298632 -0.388276,-0.103623 -0.776553,-0.207247 -1.176586,-0.314012 -0.960125,-0.255516 -1.921268,-0.506059 -2.883787,-0.752348 -0.108261,0.32483 -0.216559,0.649659 -0.328119,0.984332 -0.108261,-0.216553 -0.216547,-0.433106 -0.328107,-0.656221 0.108261,-0.216553 0.21656,-0.433106 0.328107,-0.656222 0.765591,-0.109365 1.531194,-0.218741 2.296784,-0.32811 0.108261,-0.216553 0.216547,-0.433107 0.328107,-0.656222 z"
       fill="#5c9e63"
       id="path190"
       style="stroke-width:0.32811" />
    <path
       d="m 36.68316,87.235793 c 1.456693,0.138733 2.793432,0.285702 4.21161,0.66263 2.02948,0.460185 4.080526,0.431779 6.150718,0.425279 0.683979,-10e-4 1.367487,0.0067 2.051417,0.01498 2.662007,0.0119 5.046938,-0.244715 7.640503,-0.89117 0.944848,-0.211718 0.944848,-0.211718 2.257287,-0.211718 0,0.216554 0,0.433107 0,0.656222 -3.651201,1.108222 -7.135087,1.439244 -10.9507,1.435485 -0.412856,4.23e-4 -0.825711,8.46e-4 -1.251079,0.0012 -3.534792,-0.04094 -6.837711,-0.380552 -10.109756,-1.764878 0,-0.108274 0,-0.216553 0,-0.328111 z"
       fill="#edfeef"
       id="path206"
       style="stroke-width:0.32811" />
    <path
       d="m 8.4656288,38.347281 c 0.2165532,0 0.4331063,0 0.6562221,0 -0.029825,0.186021 -0.059637,0.372042 -0.090354,0.5637 C 8.1443005,44.563442 7.5911001,49.956372 8.800313,55.59657 9.0395849,56.724859 9.2174096,57.593111 8.7937405,58.690151 8.1845171,57.624647 7.9719844,56.659327 7.7889016,55.450057 7.7377225,55.119307 7.6865435,54.788555 7.633818,54.447782 7.5834821,54.115339 7.5331587,53.782895 7.4812976,53.440379 7.421661,53.143887 7.3620244,52.847396 7.3005792,52.54192 7.0957153,51.05442 7.1058048,49.587703 7.1121727,48.088072 c -0.00124,-0.295013 -0.00248,-0.590023 -0.00384,-0.893975 0.0036,-2.523026 0.1029038,-4.974553 0.885643,-7.390824 0.088395,-0.277882 0.1767954,-0.555763 0.2678724,-0.842066 0.067251,-0.202596 0.1344992,-0.405192 0.2037875,-0.613926 z"
       fill="#dbf5de"
       id="path227"
       style="stroke-width:0.32811" />
    <path
       d="m 12.074848,37.362949 c 0.108274,0 0.216553,0 0.328111,0 0.07805,2.28968 -0.02405,4.51731 -0.307604,6.787793 -0.0285,0.231991 -0.05699,0.463981 -0.08635,0.703002 -0.218972,1.653015 -0.218972,1.653015 -0.590375,2.024419 -0.10624,2.009222 -0.0089,3.925996 0.328111,5.905995 0.02854,1.203589 0.01927,2.405526 0,3.609218 -0.108273,0 -0.216553,0 -0.328111,0 -0.677927,-2.680507 -0.782049,-5.28222 -0.779263,-8.038714 -4.22e-4,-0.432314 -8.47e-4,-0.864627 -0.0012,-1.310041 0.03638,-3.373578 0.458536,-6.458744 1.436769,-9.681672 z"
       fill="#d5f2d8"
       id="path228"
       style="stroke-width:0.32811" />
    <path
       d="m 11.746738,56.393376 c 0.920421,0.920421 1.159821,2.030275 1.558526,3.240094 1.148936,3.362028 2.558864,6.364326 4.675579,9.228118 0,0.216553 0,0.433106 0,0.656221 0.487245,0.162415 0.487245,0.162415 0.984332,0.328111 0,0.324829 0,0.64966 0,0.984333 0.216553,0 0.433106,0 0.656222,0 0.348618,0.5947 0.348618,0.5947 0.656222,1.312443 -0.108273,0.324829 -0.216553,0.649659 -0.328111,0.984332 -3.821784,-4.587737 -7.84223,-10.604458 -8.20277,-16.733652 z"
       fill="#e1fae4"
       id="path255"
       style="stroke-width:0.32811" />
    <path
       d="m 57.354137,85.923349 c -0.108261,0.216553 -0.216547,0.433106 -0.328107,0.656222 -0.216559,0 -0.433106,0 -0.656226,0 0,0.216553 0,0.433106 0,0.656221 0.21656,0.108273 0.433107,0.216553 0.656226,0.328112 -3.165254,1.009918 -6.154177,1.104432 -9.433185,1.045852 -0.487894,-0.005 -0.975788,-0.0094 -1.463682,-0.01346 -1.180108,-0.01066 -2.36003,-0.02762 -3.540013,-0.04807 0,-0.108274 0,-0.216553 0,-0.328112 0.183324,-0.0082 0.366649,-0.01644 0.555529,-0.02491 0.847053,-0.03855 1.694032,-0.07859 2.541022,-0.11864 0.288238,-0.0129 0.576488,-0.02581 0.873455,-0.03909 3.570073,-0.171257 7.634043,-2.284997 10.794981,-2.114136 z"
       fill="#64a36b"
       id="path264"
       style="stroke-width:0.32811" />
    <path
       d="m 52.432474,31.128842 c 0.641085,1.282176 0.770279,1.967639 0.86129,3.363136 0.02455,0.353591 0.04911,0.707181 0.07441,1.071487 0.02406,0.4035 0.02406,0.4035 0.04874,0.81515 -1.739531,-0.158139 -3.217375,-0.498357 -4.860141,-1.083021 -1.001892,-0.320249 -1.970289,-0.446444 -3.014519,-0.557532 0.03125,0.205555 0.06263,0.411111 0.09487,0.622898 0.03634,0.268152 0.07279,0.536306 0.110245,0.812586 0.03807,0.266461 0.07614,0.532924 0.11533,0.80746 0.0025,0.234317 0.005,0.468634 0.0074,0.710053 -0.216547,0.216553 -0.433107,0.433106 -0.656214,0.656221 0,-1.299319 0,-2.598638 0,-3.93733 2.587911,-0.08924 4.487391,0.02317 6.890328,0.984332 0.108261,-1.407594 0.216547,-2.815191 0.328106,-4.26544 z"
       fill="#dcf4df"
       id="path272"
       style="stroke-width:0.32811" />
    <path
       d="m 44.792368,55.333423 c 0.34894,0.0047 0.697881,0.0093 1.057387,0.0141 0.348097,0.0021 0.696182,0.0042 1.054832,0.0064 0.934344,0.05511 0.934344,0.05511 1.918677,0.383224 0.225574,0.676729 0.225574,0.676729 0.328106,1.312443 0.365434,-0.01353 0.730868,-0.02707 1.107376,-0.04101 1.189396,0.04101 1.189396,0.04101 1.845622,0.697235 -0.987718,0.306533 -1.268639,0.342712 -2.296772,0 -0.896694,-0.0748 -1.788341,-0.136718 -2.686412,-0.184563 -0.24595,-0.01417 -0.4919,-0.02834 -0.745303,-0.04293 -0.605952,-0.03473 -1.212003,-0.06783 -1.818066,-0.10061 0.108261,-0.324829 0.216559,-0.649659 0.328119,-0.984332 -0.54138,-0.108274 -1.082772,-0.216553 -1.640559,-0.328111 0.656226,-0.656222 0.656226,-0.656222 1.546993,-0.731841 z m 4.359002,0.731841 c 0.984333,0.328111 0.984333,0.328111 0.984333,0.328111 z"
       fill="#619f68"
       id="path274"
       style="stroke-width:0.32811" />
    <path
       d="m 64.244464,50.815492 c 0.757939,0 1.515866,0 2.296772,0 -0.216547,0.216553 -0.433107,0.433106 -0.656214,0.656222 -0.433106,0 -0.866212,0 -1.312451,0 0.07106,0.38362 0.142116,0.767241 0.215331,1.162485 0.09239,0.507961 0.184627,1.015934 0.276841,1.523922 0.047,0.252293 0.09388,0.504586 0.142265,0.764523 0.229283,1.271968 0.412372,2.468671 0.349895,3.767507 -1.066328,0.0191 -2.132619,0.03073 -3.199071,0.04101 -0.30199,0.0055 -0.60398,0.01104 -0.915122,0.01665 -0.437769,0.0032 -0.437769,0.0032 -0.884368,0.0064 -0.402066,0.0052 -0.402066,0.0052 -0.812268,0.01042 -0.823193,-0.08162 -1.353127,-0.318284 -2.063831,-0.73072 0.162417,-0.487245 0.162417,-0.487245 0.32812,-0.984333 0.345133,0.162415 0.690254,0.32483 1.045854,0.492166 1.89964,0.729055 3.841457,0.574607 5.844473,0.492167 -0.04737,-0.312564 -0.09474,-0.625128 -0.143555,-0.947163 -0.06089,-0.411536 -0.121778,-0.823072 -0.184564,-1.247079 -0.06089,-0.407305 -0.121778,-0.814611 -0.184552,-1.23426 -0.117686,-0.954685 -0.172896,-1.846536 -0.143555,-2.805604 -0.324833,-0.108273 -0.649653,-0.216553 -0.984332,-0.32811 0.324832,0 0.649665,0 0.984332,0 0,-0.216553 0,-0.433106 0,-0.656222 z"
       fill="#daf5dd"
       id="path281"
       style="stroke-width:0.32811" />
    <path
       d="m 68.509913,24.238515 c 0.324833,0.108273 0.649653,0.216553 0.984333,0.32811 0.296657,1.259042 0.362817,2.419825 0.348618,3.711754 -0.0025,0.350631 -0.0062,0.70126 -0.0087,1.062515 -0.0037,0.265193 -0.0074,0.530386 -0.01116,0.803616 -0.216547,0 -0.433106,0 -0.656213,0 0,0.541382 0,1.082765 0,1.640554 -0.795478,-1.350386 -0.790232,-2.611464 -0.871545,-4.146245 -0.0558,-0.383832 -0.0558,-0.383832 -0.11285,-0.775417 -0.216559,-0.108274 -0.433106,-0.216553 -0.656226,-0.328112 0.108261,-0.324829 0.21656,-0.649659 0.328107,-0.984332 0,-0.32483 0,-0.64966 0,-0.984333 0.216559,-0.108273 0.433106,-0.216553 0.656226,-0.32811 z"
       fill="#529859"
       id="path289"
       style="stroke-width:0.32811" />
    <path
       d="m 59.694498,58.401771 c 0.264353,0.01586 0.528694,0.03172 0.801058,0.04807 0.276183,0.0184 0.552379,0.03679 0.836933,0.05576 0.418089,0.02569 0.418089,0.02569 0.844623,0.05191 0.689225,0.0426 1.378313,0.08742 2.067365,0.132654 0,0.108273 0,0.216553 0,0.32811 -1.191046,0 -2.382091,0 -3.609224,0 0,0.32483 0,0.649659 0,0.984332 1.624152,0 3.248304,0 4.921663,0 -0.656226,0.656223 -0.656226,0.656223 -1.526481,0.743377 -2.406062,-0.01141 -4.655574,-0.216185 -7.004405,-0.743377 0.216559,-0.108273 0.433106,-0.216553 0.656226,-0.32811 0,-0.32483 0,-0.649659 0,-0.984332 0.773217,-0.38661 1.156831,-0.342595 2.012242,-0.288379 z"
       fill="#64a16a"
       id="path299"
       style="stroke-width:0.32811" />
    <path
       d="m 36.355049,33.097507 c 0.387004,0.161147 0.387004,0.161147 0.781826,0.325547 1.506817,0.419826 2.872646,0.402119 4.426932,0.371689 0.28846,-0.003 0.576909,-0.006 0.874112,-0.0089 0.706673,-0.0077 1.413297,-0.01945 2.119896,-0.03204 0.108261,-0.216553 0.216559,-0.433106 0.328119,-0.656222 0.108261,0.433106 0.216547,0.866212 0.328106,1.312443 -2.815184,0.108273 -5.63038,0.216553 -8.53088,0.328111 0.108273,0.64966 0.216553,1.299319 0.328111,1.968665 -0.216553,0 -0.433106,0 -0.656222,0 0,-0.433106 0,-0.866212 0,-1.312444 -0.541382,0 -1.082765,0 -1.640554,0 0.984332,-0.656221 0.984332,-0.656221 1.640554,-0.656221 0,-0.541383 0,-1.082765 0,-1.640554 z"
       fill="#6da472"
       id="path308"
       style="stroke-width:0.32811" />
    <path
       d="m 87.868444,41.628389 c 0.817216,1.225823 0.756612,2.18951 0.754913,3.609219 0.0012,0.259509 0.0025,0.519019 0.0037,0.786392 0.0025,0.550507 0.0025,1.101022 6.33e-4,1.651529 -0.001,0.831053 0.0062,1.661709 0.01501,2.492713 0.02257,5.735623 0.02257,5.735623 -1.102887,8.193799 -0.324832,0.162415 -0.324832,0.162415 -0.656225,0.32811 0.158659,-1.586633 0.360423,-3.13133 0.666469,-4.696086 0.423545,-2.50885 0.390099,-4.992643 0.358873,-7.526042 -0.0037,-0.472084 -0.0062,-0.94417 -0.0087,-1.416259 -0.0074,-1.141173 -0.01835,-2.282259 -0.03199,-3.423375 z"
       fill="#edfeef"
       id="path310"
       style="stroke-width:0.32811" />
    <path
       d="m 15.027846,23.910404 c 0.324828,0.108274 0.649659,0.216553 0.984332,0.328111 -0.19033,0.285918 -0.38066,0.571835 -0.576758,0.866418 -1.635519,2.484306 -3.084251,4.965181 -4.344904,7.664464 -0.108274,0 -0.216553,0 -0.328111,0 0.08397,-2.561028 0.842577,-4.446032 2.296776,-6.562217 0.32483,-0.216554 0.649659,-0.433107 0.984332,-0.656221 0.344859,-0.536448 0.67587,-1.082384 0.984333,-1.640555 z"
       fill="#effef2"
       id="path316"
       style="stroke-width:0.32811" />
    <path
       d="m 26.511725,14.395191 c -0.222475,0.155225 -0.44495,0.310449 -0.674166,0.470378 -1.936781,1.376134 -3.735154,2.823235 -5.481757,4.433341 -0.876534,0.804636 -1.78131,1.562758 -2.70307,2.314719 0.108274,-0.433106 0.216553,-0.866213 0.328111,-1.312443 0.216553,0 0.433106,0 0.656222,0 0.108273,-0.433106 0.216553,-0.866213 0.32811,-1.312443 0.216553,0 0.433106,0 0.656222,0 0.08797,-0.203019 0.17595,-0.406037 0.26659,-0.615208 0.389632,-0.697236 0.389632,-0.697236 1.373965,-1.353457 0.324829,0 0.649659,0 0.984332,0 0.108274,-0.433106 0.216553,-0.866212 0.328111,-1.312444 0.209786,-0.03383 0.419571,-0.06767 0.635714,-0.102532 0.334981,-0.111659 0.334981,-0.111659 0.676729,-0.225576 0.108273,-0.32483 0.216553,-0.649659 0.328111,-0.984332 1.028134,-0.342712 1.309058,-0.306533 2.296776,0 z"
       fill="#e2fbe7"
       id="path317"
       style="stroke-width:0.32811" />
    <path
       d="m 71.134791,76.736246 c 0.324833,0.108274 0.649654,0.216553 0.984333,0.328111 -2.15819,1.758988 -4.345361,3.252842 -6.808295,4.552538 -0.228377,0.120935 -0.456742,0.241877 -0.69204,0.366481 -3.826229,1.971308 -3.826229,1.971308 -5.624094,1.971308 0,-0.216553 0,-0.433106 0,-0.656221 0.261377,-0.07952 0.522766,-0.159032 0.792079,-0.240957 2.254819,-0.673949 2.254819,-0.673949 4.293637,-1.809736 0.820279,-0.574194 0.820279,-0.574194 2.132718,-0.574194 0,-0.216553 0,-0.433106 0,-0.656222 0.324833,0 0.649666,0 0.984333,0 0,-0.216553 0,-0.433106 0,-0.656221 0.541379,-0.108273 1.082771,-0.216553 1.640558,-0.328111 0,-0.216553 0,-0.433107 0,-0.656221 0.433106,-0.108274 0.866212,-0.216553 1.312439,-0.328112 0,-0.216553 0,-0.433106 0,-0.656221 0.324833,-0.216553 0.649666,-0.433106 0.984332,-0.656222 z"
       fill="#e0f8e3"
       id="path322"
       style="stroke-width:0.32811" />
    <path
       d="m 67.197462,27.191512 c 0.324832,0.108274 0.649653,0.216553 0.984332,0.328111 0.165529,0.847355 0.329334,1.694983 0.49216,2.542859 0.07044,0.359089 0.07044,0.359089 0.142277,0.725432 0.215009,1.12624 0.349895,2.142813 0.349895,3.293925 -1.191045,0.64966 -2.382078,1.299319 -3.609223,1.968665 -0.108261,-0.216553 -0.216547,-0.433106 -0.328106,-0.656222 0.324832,0 0.649665,0 0.984332,0 0,-0.216553 0,-0.433106 0,-0.65622 0.54138,-0.108274 1.08276,-0.216554 1.640558,-0.328112 0.0087,-0.669868 0.01525,-1.339771 0.02046,-2.009679 0.0037,-0.373046 0.0074,-0.746092 0.01116,-1.130444 -0.03026,-1.063934 -0.158721,-2.050369 -0.360151,-3.093982 -0.649653,0.108273 -1.299319,0.216553 -1.968665,0.32811 0.758758,-0.676728 0.758758,-0.676728 1.640558,-1.312443 z"
       fill="#dbf6dd"
       id="path328"
       style="stroke-width:0.32811" />
    <path
       d="m 24.87117,18.660631 c 0.108273,0.216554 0.216553,0.433107 0.32811,0.656223 -1.743401,2.06668 -3.558426,4.104358 -5.577883,5.905994 -0.216553,0 -0.433106,0 -0.656222,0 0,0.216554 0,0.433107 0,0.656221 -0.216553,0 -0.433106,0 -0.656222,0 1.285582,-2.934625 4.1663,-5.190688 6.562217,-7.218438 z"
       fill="#e3f7e5"
       id="path344"
       style="stroke-width:0.32811" />
    <path
       d="m 54.401139,43.925164 c 0.216547,0 0.433107,0 0.656226,0 0.220453,0.956624 0.43891,1.913631 0.656214,2.87097 0.06262,0.270691 0.1252,0.541383 0.189698,0.820276 0.05915,0.262233 0.11843,0.524465 0.179431,0.794644 0.05494,0.240557 0.109997,0.481112 0.16662,0.728958 0.120414,0.691147 0.120414,0.691147 0.120414,2.00359 -0.581608,-0.148118 -1.16251,-0.299041 -1.74309,-0.451152 -0.485339,-0.125618 -0.485339,-0.125618 -0.980488,-0.253774 -0.885645,-0.279407 -0.885645,-0.279407 -1.869977,-0.935627 1.082772,0.108273 2.165531,0.216553 3.281116,0.32811 -0.213583,-2.966893 -0.213583,-2.966893 -0.656226,-5.905995 z"
       fill="#d6f3d8"
       id="path359"
       style="stroke-width:0.32811" />
    <path
       d="m 38.413432,24.830653 c 0.378545,0.0021 0.75709,0.0042 1.147106,0.0064 0.390389,0.0055 0.780776,0.01104 1.182993,0.01667 0.398002,0.003 0.796002,0.006 1.20606,0.0089 0.978851,0.0077 1.957566,0.01849 2.936343,0.03205 0,0.216553 0,0.433106 0,0.656222 0.216547,0.108273 0.433106,0.216553 0.656213,0.32811 -0.267986,-0.0017 -0.535985,-0.0035 -0.812107,-0.0052 -1.219456,-0.0068 -2.438925,-0.01104 -3.658398,-0.0153 -0.421686,-0.0027 -0.843372,-0.0055 -1.277838,-0.0083 -0.408152,-0.0011 -0.816303,-0.0021 -1.236824,-0.0032 -0.56187,-0.0026 -0.56187,-0.0026 -1.13509,-0.0052 -1.040204,0.03632 -2.014322,0.169915 -3.035506,0.36536 0,-0.216553 0,-0.433106 0,-0.656222 1.395623,-0.528617 2.537291,-0.735056 4.027048,-0.720306 z"
       fill="#d9f4dd"
       id="path360"
       style="stroke-width:0.32811" />
    <path
       d="m 24.54306,81.001688 c 2.675852,1.460731 2.675852,1.460731 3.67202,2.107087 2.637343,1.706245 5.534934,2.718947 8.46808,3.798908 0,0.108273 0,0.216553 0,0.32811 C 34.518428,87.084535 32.8977,86.49141 30.961727,85.533718 30.551328,85.334427 30.551328,85.334427 30.132639,85.13111 26.152558,83.167187 26.152558,83.167187 24.87117,81.98602 24.762897,81.66119 24.654617,81.336361 24.54306,81.001688 Z"
       fill="#e3fae5"
       id="path366"
       style="stroke-width:0.32811" />
    <path
       d="m 37.667492,39.987834 c 0.656222,0.984333 0.656222,0.984333 0.656222,1.640555 0.216553,0.108273 0.433107,0.216553 0.656221,0.32811 -0.216553,0.216553 -0.433106,0.433107 -0.656221,0.656222 0,-0.216553 0,-0.433106 0,-0.656222 -0.90256,0.368512 -1.804817,0.737734 -2.706915,1.107375 -0.382563,0.15607 -0.382563,0.15607 -0.772855,0.315294 -0.247428,0.101502 -0.494857,0.203018 -0.749784,0.307604 -0.22681,0.09278 -0.45362,0.185571 -0.687303,0.281168 -0.671599,0.289898 -1.322409,0.608367 -1.97347,0.941557 0.09621,-0.616811 0.09621,-0.616811 0.32811,-1.312443 0.817047,-0.4746 1.578636,-0.859644 2.440325,-1.230416 0.227761,-0.103623 0.455523,-0.207248 0.690186,-0.314012 1.682197,-0.752349 1.682197,-0.752349 2.447374,-0.752349 0.108273,-0.433106 0.216553,-0.866212 0.32811,-1.312443 z"
       fill="#629f68"
       id="path367"
       style="stroke-width:0.32811" />
    <path
       d="m 17.980843,25.879069 c 0.453656,1.360968 -0.0081,1.955563 -0.595983,3.210616 -0.471171,0.881696 -1.051401,1.609645 -1.700793,2.367269 -0.228852,0.432276 -0.449381,0.869211 -0.656221,1.312443 -0.216553,0.324829 -0.433107,0.649659 -0.656222,0.984332 -0.216554,0 -0.433107,0 -0.656221,0 0.459856,-1.558271 1.130601,-2.91136 1.948157,-4.306454 0.17098,-0.298818 0.17098,-0.298818 0.345413,-0.603673 0.600595,-1.038317 1.226004,-2.024602 1.97187,-2.964533 z"
       fill="#def8e1"
       id="path368"
       style="stroke-width:0.32811" />
    <path
       d="m 48.495144,49.831159 c 0.536705,0.974177 0.815852,1.86229 1.025343,2.952998 0.05494,0.277458 0.109997,0.554917 0.166621,0.840784 0.120414,0.79977 0.120414,0.79977 0.120414,2.112213 -2.598638,0 -5.197276,0 -7.87466,0 0.162416,-0.487244 0.162416,-0.487244 0.328119,-0.984333 2.273805,0.108274 4.54761,0.216554 6.890327,0.328111 -0.216559,-0.757936 -0.433106,-1.515872 -0.656226,-2.296775 -0.06411,-0.870263 -0.06411,-0.870263 -0.04105,-1.620047 0.0062,-0.253351 0.0124,-0.506701 0.01798,-0.767729 0.0074,-0.186523 0.01525,-0.373047 0.02307,-0.565222 z"
       fill="#daf6dd"
       id="path384"
       style="stroke-width:0.32811" />
    <path
       d="m 48.167038,47.862494 c 0.108261,0.216553 0.216547,0.433106 0.328106,0.656222 0.611905,0.127947 0.611905,0.127947 1.312452,0.164055 0.717735,0.05127 0.717735,0.05127 1.312439,0.164056 0.162417,0.324829 0.162417,0.324829 0.328107,0.656222 -0.350714,-0.0795 -0.350714,-0.0795 -0.708521,-0.160611 -1.580364,-0.284016 -3.165167,-0.228034 -4.766823,-0.229021 -0.347031,-0.004 -0.694074,-0.0081 -1.051621,-0.01215 -0.49645,-9.53e-4 -0.49645,-9.53e-4 -1.002921,-0.002 -0.302276,-0.0014 -0.604563,-0.0027 -0.916003,-0.0041 -0.807134,0.0084 -0.807134,0.0084 -1.397436,0.735926 -0.131395,0.76212 -0.242703,1.528142 -0.328107,2.296776 -0.618133,-1.071432 -0.81794,-2.060903 -0.984332,-3.281108 0.98337,-0.285336 1.853682,-0.366708 2.876099,-0.360154 0.291833,0.0011 0.583679,0.0021 0.884355,0.0032 0.30199,0.0027 0.60398,0.0055 0.915122,0.0083 0.307075,0.0015 0.614137,0.003 0.9305,0.0045 0.756215,0.0038 1.512393,0.0093 2.268584,0.01602 0,-0.216553 0,-0.433107 0,-0.656222 z"
       fill="#d3f0d6"
       id="path396"
       style="stroke-width:0.32811" />
    <path
       d="m 53.744926,36.706726 c 0.378963,0.05414 0.757939,0.108274 1.148386,0.164056 2.342221,0.26693 4.700961,0.190044 7.05438,0.164055 -0.108261,0.32483 -0.216546,0.649659 -0.328106,0.984332 -2.273805,-0.108273 -4.547622,-0.216553 -6.890328,-0.32811 0,1.407595 0,2.815191 0,4.26544 -0.108261,0 -0.216559,0 -0.328106,0 -0.21656,-1.732425 -0.433107,-3.46485 -0.656226,-5.249773 z"
       fill="#dcf7df"
       id="path397"
       style="stroke-width:0.32811" />
    <path
       d="m 80.978116,64.268036 c 0.216547,0 0.433106,0 0.656226,0 -0.431333,1.483224 -1.015583,2.623483 -1.886644,3.896316 -0.231776,0.33921 -0.463551,0.67842 -0.702358,1.027909 -0.861637,1.222247 -1.743648,2.425502 -2.660779,3.606657 -0.108262,-0.433107 -0.216547,-0.866213 -0.328107,-1.312444 0.216559,0 0.433106,0 0.656226,0 0,-0.32483 0,-0.64966 0,-0.984333 0.216547,0 0.433106,0 0.656213,0 0,-0.216553 0,-0.433106 0,-0.656221 0.216559,0 0.433106,0 0.656226,0 0.05072,-0.274075 0.05072,-0.274075 0.102556,-0.553688 0.272104,-0.915235 0.666234,-1.616407 1.209908,-2.399309 0.216559,0 0.433106,0 0.656226,0 0,-0.324831 0,-0.64966 0,-0.984333 0.216559,0 0.433106,0 0.656225,0 0.108261,-0.541383 0.216547,-1.082765 0.328107,-1.640554 z"
       fill="#e1f9e4"
       id="path401"
       style="stroke-width:0.32811" />
    <path
       d="m 65.885022,58.033929 c 0.205064,0.594701 0.205064,0.594701 0.328107,1.312443 -0.32482,0.487246 -0.32482,0.487246 -0.656213,0.984333 -1.624152,-0.108274 -3.248304,-0.216553 -4.921663,-0.328111 0,-0.32483 0,-0.649659 0,-0.984332 2.598638,-0.162415 2.598638,-0.162415 5.249769,-0.328111 0,-0.216553 0,-0.433106 0,-0.656222 z"
       fill="#519b58"
       id="path402"
       style="stroke-width:0.32811" />
    <path
       d="m 63.916357,49.174938 c 0.108261,0 0.216547,0 0.328107,0 0,0.757936 0,1.515872 0,2.296776 -1.137969,0.379326 -2.04136,0.371659 -3.240094,0.369125 -0.39842,8.46e-4 -0.796841,0.0017 -1.20734,0.0026 -0.970059,-0.03739 -1.829947,-0.146265 -2.771,-0.371687 0.656226,-0.656221 0.656226,-0.656221 1.762312,-0.731841 0.444763,0.0014 0.889539,0.0062 1.33424,0.0141 0.223529,2.12e-4 0.447057,4.24e-4 0.677369,6.4e-4 1.015174,0.0089 1.818824,0.06584 2.7883,0.388992 0.108261,-0.64966 0.216547,-1.299319 0.328106,-1.968665 z"
       fill="#649f6a"
       id="path411"
       style="stroke-width:0.32811" />
    <path
       d="m 12.074848,37.362949 c 0.108274,0 0.216553,0 0.328111,0 0.07792,2.28552 -0.01808,4.519306 -0.287097,6.787793 -0.02575,0.231991 -0.05149,0.463981 -0.07803,0.703002 -0.0726,0.56909 -0.178989,1.133667 -0.291102,1.696307 -0.216553,0.108274 -0.433106,0.216553 -0.656222,0.328112 0.03636,-1.15542 0.07914,-2.310516 0.123043,-3.465671 0.01017,-0.325042 0.0203,-0.650083 0.03075,-0.984974 0.07165,-1.79725 0.24305,-3.361827 0.830531,-5.064569 z"
       fill="#e3f8e5"
       id="path424"
       style="stroke-width:0.32811" />
    <path
       d="m 62.603918,27.847734 c 0.328107,0.984333 0.328107,0.984333 0,1.968665 -0.922811,0.225576 -0.922811,0.225576 -1.968665,0.328111 -0.145501,-0.155647 -0.29099,-0.311295 -0.440894,-0.471659 -0.766148,-0.722781 -1.373861,-0.677326 -2.409571,-0.73825 -0.326098,-0.02157 -0.652196,-0.04314 -0.988177,-0.06537 -0.249125,-0.01228 -0.498237,-0.02453 -0.754913,-0.03717 0,-0.108273 0,-0.216553 0,-0.32811 0.320182,-0.01988 0.640364,-0.03976 0.970232,-0.06024 0.417469,-0.02749 0.834925,-0.05499 1.26503,-0.08331 0.414914,-0.02665 0.82984,-0.05329 1.257329,-0.08074 1.086554,-0.102457 1.980483,-0.431927 3.069629,-0.431927 z"
       fill="#639f6a"
       id="path425"
       style="stroke-width:0.32811" />
    <path
       d="m 36.68316,87.235793 c 1.468728,0.139879 2.863986,0.30295 4.296201,0.656222 1.793374,0.408946 3.570194,0.474939 5.403576,0.53318 0.330959,0.01269 0.661918,0.02537 1.00291,0.03844 0.807196,0.03061 1.614392,0.05876 2.421749,0.08459 0,0.108274 0,0.216553 0,0.328112 -1.244072,0.01931 -2.488095,0.0308 -3.732266,0.04101 -0.522134,0.0083 -0.522134,0.0083 -1.05482,0.01667 -2.932834,0.01799 -5.577183,-0.353215 -8.33735,-1.370119 0,-0.108273 0,-0.216553 0,-0.32811 z"
       fill="#d7f4db"
       id="path432"
       style="stroke-width:0.32811" />
    <path
       d="m 50.143391,41.624543 c 0.381928,0.05266 0.381928,0.05266 0.771568,0.106376 0.379398,0.04885 0.379398,0.04885 0.766446,0.09869 0.751069,0.126886 0.751069,0.126886 1.440617,0.325547 0.691618,0.198167 0.691618,0.198167 1.607236,-0.198661 0.108262,0.649659 0.216547,1.299319 0.328107,1.968665 -2.088149,-0.514323 -4.171461,-1.031135 -6.234101,-1.640555 0.656213,-0.65622 0.656213,-0.65622 1.320127,-0.660066 z"
       fill="#69a26f"
       id="path433"
       style="stroke-width:0.32811" />
    <path
       d="m 56.697923,51.143602 c 1.948972,0.216553 3.897957,0.433106 5.905995,0.656222 0,0.108274 0,0.216553 0,0.32811 -1.515878,0.108274 -3.031744,0.216554 -4.593555,0.328111 -0.108262,1.515872 -0.216547,3.031744 -0.328107,4.593552 -0.108261,0 -0.216559,0 -0.328107,0 -0.110989,-0.676474 -0.219932,-1.353267 -0.328119,-2.030185 -0.06089,-0.376854 -0.121778,-0.753707 -0.184552,-1.14198 -0.143555,-1.093275 -0.143555,-1.093275 -0.143555,-2.73383 z"
       fill="#dff9e2"
       id="path440"
       style="stroke-width:0.32811" />
    <path
       d="m 43.901601,27.519624 c 1.945401,0.192329 3.712834,0.591926 5.577888,1.168894 0.254197,0.07676 0.508393,0.153534 0.770291,0.232627 0.618775,0.187159 1.236768,0.376882 1.854588,0.567144 0,0.108273 0,0.216553 0,0.32811 -1.85806,-0.147466 -3.455451,-0.429138 -5.203625,-1.076613 -0.845615,-0.300368 -0.845615,-0.300368 -2.342916,-0.56394 0.108261,1.191042 0.216547,2.382084 0.328107,3.609218 -0.569878,-1.139755 -0.754926,-1.665555 -0.86129,-2.870969 -0.02455,-0.262233 -0.04911,-0.524465 -0.07441,-0.794644 -0.01612,-0.197943 -0.03212,-0.395886 -0.04874,-0.599827 z"
       fill="#dff9e2"
       id="path441"
       style="stroke-width:0.32811" />
    <path
       d="m 68.181794,23.582294 c 0.433106,0 0.866213,0 1.312439,0 1.130082,4.096527 1.130082,4.096527 0.984333,6.234105 -0.108261,0 -0.216547,0 -0.328107,0 -0.324833,-1.732425 -0.649666,-3.46485 -0.984333,-5.249773 -1.061094,0.424441 -1.930866,0.788393 -2.891475,1.353457 -0.345134,0.203019 -0.690267,0.406037 -1.045854,0.615208 0.108261,-0.32483 0.216559,-0.649659 0.328106,-0.984332 0.21656,0 0.433107,0 0.656226,0 0.216559,-0.433106 0.433106,-0.866213 0.656226,-1.312443 0.433106,0 0.866212,0 1.312439,0 0,-0.216553 0,-0.433106 0,-0.656222 z"
       fill="#dcf5e0"
       id="path442"
       style="stroke-width:0.32811" />
    <path
       d="m 71.791017,39.331613 c 0.108261,0 0.216547,0 0.328107,0 0.481086,1.975989 0.762961,3.577615 0.328119,5.577885 -0.984332,-0.328112 -0.984332,-0.328112 -1.640558,-0.984333 -0.0821,-0.820277 -0.0821,-0.820277 0,-1.640554 0.216559,-0.216553 0.433106,-0.433106 0.656226,-0.656222 0.131401,-0.76212 0.2427,-1.528141 0.328106,-2.296776 z"
       fill="#65a16b"
       id="path466"
       style="stroke-width:0.32811" />
    <path
       d="m 57.02603,60.002594 c 0.188211,0.02369 0.376434,0.04737 0.570349,0.07178 3.088392,0.337427 6.171067,0.285267 9.272976,0.256336 -0.547791,0.676234 -0.818208,0.962889 -1.697355,1.076374 -0.270975,-0.01472 -0.541963,-0.02945 -0.821147,-0.04462 -0.448236,-0.02252 -0.448236,-0.02252 -0.905512,-0.0455 -0.311514,-0.02093 -0.623016,-0.04188 -0.943967,-0.06344 -0.307695,-0.0146 -0.615389,-0.02918 -0.932422,-0.04422 -1.617889,-0.09235 -3.025022,-0.260753 -4.542922,-0.878594 0,-0.108273 0,-0.216553 0,-0.32811 z"
       fill="#e4fbe7"
       id="path474"
       style="stroke-width:0.32811" />
    <path
       d="m 28.8085,28.175845 c 0.433106,0.541382 0.866212,1.082765 1.312443,1.640554 -1.299319,0.64966 -1.299319,0.64966 -2.624886,1.312443 -0.32483,-0.32483 -0.649659,-0.649659 -0.984332,-0.984332 0.32811,-0.984333 0.32811,-0.984333 1.332949,-1.538019 0.318063,-0.142114 0.636125,-0.284227 0.963826,-0.430646 z"
       fill="#63a368"
       id="path475"
       style="stroke-width:0.32811" />
    <path
       d="m 70.150459,41.300278 c 0.216547,0.108274 0.433106,0.216554 0.656226,0.328111 0.164847,0.66976 0.164847,0.66976 0.279408,1.539301 0.04229,0.309815 0.08458,0.61963 0.128164,0.938833 0.04142,0.325887 0.08284,0.651774 0.125598,0.987537 0.04402,0.327156 0.08805,0.654312 0.133299,0.991381 0.108633,0.810777 0.214451,1.621822 0.317863,2.433275 -0.216559,0 -0.433106,0 -0.656226,0 -0.06721,-0.371354 -0.134501,-0.742709 -0.203786,-1.125317 -0.08929,-0.486195 -0.178538,-0.972379 -0.267875,-1.458555 -0.04415,-0.244892 -0.08842,-0.489782 -0.133931,-0.742095 -0.229568,-1.328395 -0.229568,-1.328395 -0.706847,-2.580028 -0.664311,-0.213971 -0.664311,-0.213971 -1.312451,-0.32811 0.779269,-0.512673 0.779269,-0.512673 1.640558,-0.984333 z"
       fill="#d8f3da"
       id="path482"
       style="stroke-width:0.32811" />
    <path
       d="m 18.965175,20.301185 c 0.216604,0.572912 0.216604,0.572912 0.328111,1.312443 -0.865604,1.754785 -2.106523,2.911769 -3.93733,3.609219 0.464869,-1.417592 1.160737,-2.298289 2.173734,-3.383643 0.268154,-0.289724 0.536308,-0.579449 0.812587,-0.877953 0.308335,-0.326732 0.308335,-0.326732 0.622898,-0.660066 z"
       fill="#5e9d66"
       id="path491"
       style="stroke-width:0.32811" />
    <path
       d="m 32.089608,65.252368 c 0.433106,0.108274 0.866212,0.216553 1.312443,0.328111 -0.02707,0.257158 -0.05414,0.514314 -0.08203,0.779264 0.09682,1.403865 0.54674,2.398589 1.139416,3.661767 0.299127,0.948486 0.194911,1.503831 -0.07306,2.449296 -0.705904,-1.260072 -1.094982,-2.605122 -1.517512,-3.978344 -0.07529,-0.238969 -0.150572,-0.477938 -0.22814,-0.72415 -0.551123,-1.77475 -0.551123,-1.77475 -0.551123,-2.515944 z"
       fill="#619e66"
       id="path497"
       style="stroke-width:0.32811" />
    <path
       d="m 69.822352,28.175845 c 0.108261,0 0.216547,0 0.328107,0 0.111361,0.512236 0.220267,1.025022 0.328119,1.538019 0.06089,0.285495 0.121778,0.570989 0.184552,0.865136 0.140182,0.857325 0.168543,1.651681 0.143555,2.518507 -0.974486,-0.162415 -0.974486,-0.162415 -1.968665,-0.32811 0.108261,-0.866213 0.216559,-1.732426 0.328106,-2.624887 0.21656,0 0.433107,0 0.656226,0 0,-0.64966 0,-1.299319 0,-1.968665 z"
       fill="#68a46e"
       id="path499"
       style="stroke-width:0.32811" />
    <path
       d="m 46.198373,26.20718 c 0.757939,0.108273 1.515866,0.216553 2.296771,0.32811 -0.487236,0.812075 -0.487236,0.812075 -0.984332,1.640555 -1.191033,-0.216554 -2.382078,-0.433107 -3.609211,-0.656222 -0.108261,0.32483 -0.216559,0.649659 -0.328119,0.984332 -0.108261,-0.216553 -0.216547,-0.433106 -0.328107,-0.656221 0.108261,-0.216553 0.21656,-0.433106 0.328107,-0.656222 0.765591,-0.109365 1.531194,-0.218741 2.296784,-0.32811 0.108261,-0.216553 0.216547,-0.433107 0.328107,-0.656222 z"
       fill="#63a16b"
       id="path511"
       style="stroke-width:0.32811" />
    <path
       d="m 72.77535,42.612721 c 0.108261,0 0.216547,0 0.328106,0 0,0.541383 0,1.082766 0,1.640555 0.21656,0 0.433107,0 0.656226,0 0.601401,2.102422 0.671182,3.744652 0.328107,5.905995 -0.108261,0 -0.216547,0 -0.328107,0 -0.166186,-0.888283 -0.329867,-1.776908 -0.492172,-2.665901 -0.047,-0.249544 -0.09388,-0.499088 -0.142265,-0.756193 -0.252485,-1.394714 -0.404509,-2.699993 -0.349895,-4.124456 z"
       fill="#ddf7e0"
       id="path520"
       style="stroke-width:0.32811" />
    <path
       d="m 70.806685,31.785064 c 0.656226,0.32811 0.656226,0.32811 0.947166,1.106092 0.592088,2.267295 0.789562,4.129882 0.365273,6.440457 -0.108261,0 -0.216547,0 -0.328107,0 -0.165715,-0.949892 -0.329495,-1.900051 -0.492172,-2.850463 -0.047,-0.267941 -0.09388,-0.535885 -0.142265,-0.811945 -0.222475,-1.308399 -0.41505,-2.551126 -0.349895,-3.884141 z"
       fill="#e1f8e2"
       id="path521"
       style="stroke-width:0.32811" />
    <path
       d="m 35.370717,86.251461 c 1.646821,-0.102929 2.747479,0.114846 4.26544,0.743376 0.976642,0.35861 1.920817,0.461548 2.952993,0.569067 0,0.216553 0,0.433106 0,0.656222 -2.343583,-0.195299 -4.655711,-0.554272 -6.890323,-1.312443 -0.108273,-0.216553 -0.216553,-0.433107 -0.32811,-0.656222 z"
       fill="#5e9a65"
       id="path536"
       style="stroke-width:0.32811" />
    <path
       d="m 33.07394,68.861587 c 0.638304,1.1553 1.003057,2.34519 1.373965,3.609219 0.119695,0.399269 0.239392,0.798539 0.362715,1.209909 0.212993,0.997889 0.26896,1.469153 -0.09612,2.399309 -1.31064,-2.35915 -1.557902,-4.544606 -1.640555,-7.218437 z"
       fill="#d7f1da"
       id="path537"
       style="stroke-width:0.32811" />
    <path
       d="m 38.323714,42.612721 c 0.677808,1.016711 0.901293,1.755315 1.189403,2.932491 0.08543,0.341325 0.170873,0.68265 0.258898,1.034318 0.192254,0.954854 0.192254,0.954854 0.192254,2.267297 -1.517513,0.697236 -1.517513,0.697236 -2.624887,0.328111 0.984332,-0.656222 0.984332,-0.656222 1.968665,-0.656222 0,-0.541383 0,-1.082766 0,-1.640554 -0.216553,0 -0.433107,0 -0.656222,0 -0.108274,-1.407595 -0.216553,-2.815191 -0.328111,-4.265441 z"
       fill="#e1f9e1"
       id="path538"
       style="stroke-width:0.32811" />
    <path
       d="m 67.525581,15.707634 c 0.216547,0 0.433106,0 0.656225,0 0,0.216553 0,0.433106 0,0.656222 0.54138,0 1.08276,0 1.640546,0 0.08123,0.209786 0.162417,0.419572 0.246086,0.635715 0.349648,0.738221 0.349648,0.738221 1.107376,0.922811 0.203017,0.02707 0.406035,0.05414 0.615203,0.08203 0,0.216553 0,0.433106 0,0.656221 0.21656,0.108274 0.433107,0.216554 0.656226,0.328111 -0.324833,0.108273 -0.649666,0.216553 -0.984332,0.328112 -0.695959,-0.435773 -0.695959,-0.435773 -1.455994,-1.066361 -0.249968,-0.20471 -0.499936,-0.409421 -0.757468,-0.620335 -0.244052,-0.201327 -0.488092,-0.402653 -0.739536,-0.610081 -0.435599,-0.330607 -0.87245,-0.659599 -1.312439,-0.984333 0.108261,-0.108273 0.216547,-0.216553 0.328107,-0.32811 z"
       fill="#63a46c"
       id="path540"
       style="stroke-width:0.32811" />
    <path
       d="m 29.464722,55.080932 c 0.656222,0.656222 0.656222,0.656222 0.697236,1.681568 -0.01353,0.311295 -0.02707,0.62259 -0.04101,0.943319 0.216553,0 0.433106,0 0.656221,0 0.174493,0.737405 0.34454,1.475865 0.512673,2.214747 0.09517,0.411113 0.19033,0.822226 0.288379,1.245796 0.18328,1.133008 0.18328,1.133008 -0.14483,2.445452 -0.757937,-2.706915 -1.515872,-5.413829 -2.296776,-8.202772 0.108274,-0.108273 0.216553,-0.216553 0.328111,-0.32811 z"
       fill="#609b66"
       id="path547"
       style="stroke-width:0.32811" />
    <path
       d="m 77.697012,75.095693 c 0,1.513445 -0.976582,2.209091 -1.968665,3.281108 -0.277461,0.311296 -0.554922,0.62259 -0.840778,0.943318 -0.849285,0.740401 -1.33243,0.930385 -2.440326,1.025347 0.901444,-0.928759 1.814198,-1.796944 2.809443,-2.624886 0.941611,-0.793582 1.70802,-1.628956 2.440326,-2.624887 z"
       fill="#ddf5e1"
       id="path564"
       style="stroke-width:0.32811" />
    <path
       d="m 29.792832,58.033929 c 0.77959,1.169386 1.035951,2.324275 1.353457,3.67074 0.08945,0.368924 0.08945,0.368924 0.180718,0.745299 0.146579,0.605602 0.290767,1.211781 0.43449,1.818067 -0.216553,-0.108274 -0.433106,-0.216554 -0.656222,-0.328111 0,-0.216553 0,-0.433106 0,-0.656222 -0.324829,-0.108273 -0.649659,-0.216553 -0.984332,-0.32811 -0.108274,-1.62415 -0.216553,-3.248297 -0.328111,-4.921663 z"
       fill="#daf4dd"
       id="path565"
       style="stroke-width:0.32811" />
    <path
       d="m 56.369804,52.456046 c 0.324833,0.162415 0.324833,0.162415 0.656226,0.328111 0.209702,0.939822 0.383701,1.859994 0.53317,2.809449 0.04402,0.264559 0.08792,0.529117 0.133299,0.801692 0.108509,0.655157 0.213534,1.3109 0.317864,1.966743 -0.21656,0 -0.433107,0 -0.656226,0 -1.252195,-1.878287 -1.080416,-3.706831 -0.984333,-5.905995 z"
       fill="#63a06a"
       id="path574"
       style="stroke-width:0.32811" />
    <path
       d="m 29.464722,30.14451 c -0.377897,0.809777 -0.671917,1.328138 -1.312443,1.968664 -0.150313,0.647151 -0.150313,0.647151 -0.20507,1.353457 -0.0406,0.419572 -0.0812,0.839144 -0.123043,1.271431 -0.753452,-1.130182 -0.833455,-1.948364 -0.984332,-3.28111 1.886638,-1.312442 1.886638,-1.312442 2.624888,-1.312442 z"
       fill="#e2f9e3"
       id="path575"
       style="stroke-width:0.32811" />
    <path
       d="m 23.886838,29.057643 c 0.324829,0.03383 0.649659,0.06767 0.984332,0.102532 0.216553,0.32483 0.433106,0.649659 0.656222,0.984332 -0.257158,-0.06767 -0.514314,-0.135345 -0.779264,-0.205068 -0.284225,-0.0406 -0.568451,-0.0812 -0.86129,-0.123044 -0.786689,0.786689 -0.7687,1.093507 -0.861291,2.173735 -0.02453,0.268153 -0.04906,0.536307 -0.07433,0.812587 -0.01607,0.205556 -0.03214,0.411112 -0.0487,0.622898 -0.889944,-1.334917 -0.756951,-2.022727 -0.656222,-3.60922 0.656222,-0.656222 0.656222,-0.656222 1.640555,-0.758756 z"
       fill="#5b9962"
       id="path584"
       style="stroke-width:0.32811" />
    <path
       d="m 62.932025,27.519624 c 0.52785,0.09136 0.52785,0.09136 1.066365,0.184562 1.03483,0.120736 1.590731,0.1582 2.542858,-0.184562 -0.883537,1.091418 -1.980892,1.504299 -3.281116,1.968665 -0.324821,-0.108274 -0.649654,-0.216553 -0.984333,-0.328111 0.216559,-0.541383 0.433106,-1.082765 0.656226,-1.640554 z"
       fill="#56915b"
       id="path585"
       style="stroke-width:0.32811" />
    <path
       d="m 46.854599,41.628389 c 2.239106,0.404945 4.394605,0.948765 6.56222,1.640554 -1.333074,0.535247 -2.362733,0.09833 -3.691256,-0.307604 -0.414492,-0.124771 -0.828984,-0.249543 -1.256039,-0.378096 -0.316375,-0.09855 -0.632751,-0.197097 -0.9587,-0.298632 0,0.541382 0,1.082766 0,1.640553 -0.108261,0 -0.216559,0 -0.328119,0 -0.108261,-0.757935 -0.216547,-1.515872 -0.328106,-2.296775 z"
       fill="#d4f2d6"
       id="path606"
       style="stroke-width:0.32811" />
    <path
       d="m 52.432474,31.128842 c 0.641085,1.282176 0.770279,1.967639 0.86129,3.363136 0.02455,0.353591 0.04911,0.707181 0.07441,1.071487 0.02406,0.4035 0.02406,0.4035 0.04874,0.81515 -0.866213,-0.108274 -1.732425,-0.216553 -2.624891,-0.328111 1.271429,-0.32811 1.271429,-0.32811 1.640559,-0.32811 0,-1.515872 0,-3.031744 0,-4.593552 z"
       fill="#cef2d0"
       id="path622"
       style="stroke-width:0.32811" />
    <path
       d="m 19.949508,21.941739 c 0.216553,0 0.433106,0 0.656222,0 -0.197964,1.215663 -0.729963,1.922625 -1.497007,2.87097 -0.315312,0.393348 -0.315312,0.393348 -0.636996,0.794644 -0.161991,0.197942 -0.323984,0.395885 -0.490884,0.599827 -0.216553,-0.324829 -0.433107,-0.64966 -0.656222,-0.984333 0.203018,-0.07444 0.406037,-0.148879 0.615208,-0.225576 0.909055,-0.561474 1.014102,-1.077376 1.353457,-2.071199 0.216553,-0.324831 0.433106,-0.64966 0.656222,-0.984333 z"
       fill="#5d9c66"
       id="path623"
       style="stroke-width:0.32811" />
    <path
       d="m 37.339382,59.674484 c 0,0.216553 0,0.433106 0,0.656222 -0.324829,0 -0.64966,0 -0.984333,0 0.01353,0.412804 0.02707,0.825608 0.04101,1.250922 0.03741,1.141216 -0.02158,1.3448 -0.697236,2.358296 -0.521663,-1.319498 -0.85646,-2.250609 -0.328111,-3.609218 0.705771,-0.478102 1.116517,-0.656222 1.968665,-0.656222 z"
       fill="#defadf"
       id="path636"
       style="stroke-width:0.32811" />
    <path
       d="m 87.868444,51.799824 c 0.108261,0 0.216546,0 0.328106,0 -0.02852,0.964301 -0.06362,1.92759 -0.102556,2.891477 -0.0074,0.273441 -0.01476,0.546881 -0.02245,0.828608 -0.01749,0.394934 -0.01749,0.394934 -0.03522,0.797847 -0.0087,0.242274 -0.01711,0.484548 -0.02604,0.734165 -0.175438,0.808655 -0.502676,1.113425 -1.126201,1.63823 0.231614,-2.316101 0.584734,-4.597505 0.984333,-6.890327 z"
       fill="#d3efd7"
       id="path637"
       style="stroke-width:0.32811" />
    <path
       d="m 13.059181,27.191512 c 0.216553,0.108274 0.433106,0.216553 0.656222,0.328111 -0.866213,1.732425 -1.732425,3.46485 -2.624887,5.249774 -0.108274,0 -0.216553,0 -0.328111,0 0.108274,-0.757937 0.216554,-1.515872 0.328111,-2.296777 0.216553,0 0.433106,0 0.656222,0 0.03383,-0.236855 0.06767,-0.47371 0.102532,-0.717742 0.245219,-1.003173 0.645706,-1.704797 1.209908,-2.563366 z"
       fill="#d4f5d9"
       id="path653"
       style="stroke-width:0.32811" />
    <path
       d="m 58.994695,87.235793 c 0,0.216553 0,0.433106 0,0.656222 -2.007976,0.460846 -3.844607,0.732569 -5.905995,0.656221 0,-0.108273 0,-0.216553 0,-0.32811 0.737874,-0.165727 1.47622,-0.329388 2.214751,-0.492167 0.616667,-0.137037 0.616667,-0.137037 1.245796,-0.276843 1.133009,-0.215323 1.133009,-0.215323 2.445448,-0.215323 z"
       fill="#dbf4de"
       id="path670"
       style="stroke-width:0.32811" />
    <path
       d="m 67.197462,27.191512 c 0.324832,0.108274 0.649653,0.216553 0.984332,0.328111 0.108261,0.866212 0.216547,1.732425 0.328107,2.624887 -0.216547,0 -0.433107,0 -0.656214,0 -0.108261,-0.64966 -0.216559,-1.299319 -0.328119,-1.968665 -0.649653,0.108273 -1.299319,0.216553 -1.968665,0.32811 0.758758,-0.676728 0.758758,-0.676728 1.640559,-1.312443 z"
       fill="#d3f4d6"
       id="path671"
       style="stroke-width:0.32811" />
    <path
       d="m 48.495144,26.535291 c 0.622247,0.03771 1.244259,0.07953 1.866134,0.123043 0.346398,0.02284 0.692796,0.04567 1.049698,0.06921 0.990905,0.13179 1.756719,0.378887 2.662057,0.79208 0,0.216553 0,0.433106 0,0.656222 -1.940106,-0.210881 -3.721589,-0.718576 -5.577889,-1.312444 0,-0.108274 0,-0.216553 0,-0.328111 z"
       fill="#d8f2da"
       id="path672"
       style="stroke-width:0.32811" />
    <path
       d="m 54.073033,8.1610853 c 1.883742,-0.076886 3.47363,-0.0098 5.249769,0.656222 0.108261,0.2165532 0.216559,0.4331063 0.328119,0.6562209 -1.896801,-0.2069238 -3.722209,-0.541892 -5.577888,-0.9843325 0,-0.1082735 0,-0.2165531 0,-0.3281104 z"
       fill="#d6f1db"
       id="path673"
       style="stroke-width:0.32811" />
    <path
       d="m 75.072121,22.597961 c 1.489985,1.399681 2.706043,2.964851 3.93733,4.593552 -0.324833,0.162414 -0.324833,0.162414 -0.656226,0.328111 C 78.19505,27.310261 78.036863,27.100898 77.873876,26.88519 77.66663,26.614076 77.459383,26.342962 77.24585,26.063631 77.040303,25.793363 76.834743,25.523095 76.622958,25.244637 76.109753,24.538645 76.109753,24.538645 75.400228,24.238516 75.195164,23.397732 75.195164,23.397732 75.072121,22.597961 Z"
       fill="#dcf7e0"
       id="path693"
       style="stroke-width:0.32811" />
    <path
       d="m 39.964268,11.442194 c 0,0.108273 0,0.216553 0,0.32811 -0.261387,0.06344 -0.522774,0.126888 -0.792081,0.192254 -2.583054,0.633912 -2.583054,0.633912 -5.113914,1.448301 0.32811,-0.984333 0.32811,-0.984333 0.86129,-1.353457 1.637512,-0.603295 3.31533,-0.657388 5.044705,-0.615208 z"
       fill="#649e6b"
       id="path695"
       style="stroke-width:0.32811" />
    <path
       d="m 35.370717,75.095693 c 0.377086,0.313089 0.752786,0.627847 1.127881,0.943319 0.209363,0.175103 0.418726,0.350206 0.634433,0.530616 0.534461,0.49473 0.534461,0.49473 0.862573,1.150952 -0.73825,0.102532 -0.73825,0.102532 -1.640555,0 -0.779262,-0.758756 -0.779262,-0.758756 -1.312443,-1.640554 0.108274,-0.324831 0.216554,-0.64966 0.328111,-0.984333 z"
       fill="#69a06d"
       id="path710"
       style="stroke-width:0.32811" />
    <path
       d="m 83.603007,66.564811 c 0.221731,0.560096 0.221731,0.560096 0.328107,1.312443 -0.375529,0.762602 -0.375529,0.762602 -0.922811,1.53802 -0.267094,0.387638 -0.267094,0.387638 -0.539582,0.783109 -0.506272,0.631868 -0.506272,0.631868 -1.162486,0.95998 0.578881,-1.631399 1.441683,-3.095522 2.296772,-4.593552 z"
       fill="#e0f7e3"
       id="path711"
       style="stroke-width:0.32811" />
    <path
       d="m 31.105275,44.909497 c 0.108274,0 0.216553,0 0.328111,0 0.229517,0.791981 0.454381,1.584809 0.676728,2.378803 0.06534,0.223743 0.130693,0.447487 0.198021,0.678011 0.56897,2.056275 0.56897,2.056275 0.109588,3.177291 -0.283819,-0.85342 -0.563455,-1.707838 -0.840783,-2.563365 -0.08099,-0.242142 -0.161992,-0.484285 -0.245442,-0.733764 C 30.74,46.005336 30.74,46.005336 31.10528,44.909497 Z"
       fill="#d7f2d9"
       id="path712"
       style="stroke-width:0.32811" />
    <path
       d="m 24.54306,39.659724 c 0.984332,0.32811 0.984332,0.32811 1.39447,0.861291 0.344718,1.091606 0.131239,1.967052 -0.08203,3.076039 -0.624457,-0.936685 -0.807779,-1.450057 -1.025347,-2.522352 -0.05499,-0.265193 -0.109972,-0.530386 -0.166618,-0.803616 -0.03976,-0.20175 -0.07951,-0.403498 -0.120475,-0.611362 z"
       fill="#619f66"
       id="path713"
       style="stroke-width:0.32811" />
    <path
       d="m 37.339382,38.019169 c 0.216553,0 0.433106,0 0.656222,0 0,0.433107 0,0.866213 0,1.312443 0.216553,0 0.433106,0 0.656221,0 0,0.64966 0,1.299319 0,1.968665 0.866212,0 1.732425,0 2.624887,0 0,0.108274 0,0.216553 0,0.328112 -0.97449,0 -1.948979,0 -2.952998,0 -0.165262,-0.47808 -0.329038,-0.956673 -0.492166,-1.435485 -0.09136,-0.266462 -0.182717,-0.532925 -0.276843,-0.80746 -0.215323,-0.710053 -0.215323,-0.710053 -0.215323,-1.366275 z"
       fill="#d8f2da"
       id="path714"
       style="stroke-width:0.32811" />
    <path
       d="m 67.525581,12.754637 c 0.757939,0.216553 1.515865,0.433106 2.296771,0.656222 0,0.216553 0,0.433106 0,0.656221 0.25039,0.09474 0.500779,0.189484 0.758758,0.287097 0.881801,0.369125 0.881801,0.369125 1.866133,1.025347 0,0.216553 0,0.433106 0,0.656221 -1.119479,-0.530423 -2.153118,-1.162398 -3.199084,-1.825116 -0.323134,-0.203441 -0.646267,-0.406883 -0.979198,-0.61649 -0.245317,-0.168759 -0.490635,-0.337518 -0.74338,-0.511392 0,-0.108273 0,-0.216553 0,-0.32811 z"
       fill="#daf6df"
       id="path715"
       style="stroke-width:0.32811" />
    <path
       d="m 37.01127,83.954684 c 1.71267,-0.05905 2.976829,0.0095 4.593547,0.656222 0,0.216553 0,0.433106 0,0.656221 -1.630433,-0.168665 -3.048231,-0.404839 -4.593547,-0.984332 0,-0.108274 0,-0.216554 0,-0.328111 z"
       fill="#d7f1db"
       id="path727"
       style="stroke-width:0.32811" />
    <path
       d="m 74.744015,73.127028 c 0.324832,0.108274 0.649653,0.216553 0.984332,0.328111 -1.082759,1.082765 -2.165531,2.165531 -3.281104,3.281109 -0.108261,-0.324831 -0.216559,-0.64966 -0.328119,-0.984333 0.216559,0 0.433106,0 0.656226,0 0.108261,-0.32483 0.216559,-0.649659 0.328106,-0.984332 0.21656,0 0.433107,0 0.656226,0 0.108261,-0.324831 0.21656,-0.64966 0.328107,-0.984333 0.216559,0 0.433106,0 0.656226,0 0,-0.216553 0,-0.433106 0,-0.656222 z"
       fill="#e7fdea"
       id="path728"
       style="stroke-width:0.32811" />
    <path
       d="m 80.978116,71.158363 c 0.108261,0.324829 0.216547,0.64966 0.328107,0.984333 -0.866213,0.974488 -1.732425,1.948978 -2.624878,2.952997 -0.21656,-0.108273 -0.433107,-0.216553 -0.656226,-0.32811 0.974486,-1.191043 1.948984,-2.382085 2.952997,-3.60922 z"
       fill="#def6e2"
       id="path729"
       style="stroke-width:0.32811" />
    <path
       d="m 33.730162,13.738969 c -0.641736,0.329699 -1.284476,0.657449 -1.927651,0.984333 -0.357821,0.182717 -0.71564,0.365433 -1.084303,0.553686 -0.925376,0.430646 -0.925376,0.430646 -1.581598,0.430646 0,-0.32483 0,-0.649659 0,-0.984332 0.517514,-0.230117 1.037525,-0.454625 1.558527,-0.676729 0.433952,-0.188426 0.433952,-0.188426 0.876672,-0.38066 0.895967,-0.270148 1.295098,-0.24764 2.158353,0.07306 z"
       fill="#67a06e"
       id="path733"
       style="stroke-width:0.32811" />
    <path
       d="m 55.057365,43.925164 c 0.866213,0.108274 1.732425,0.216553 2.624891,0.328111 -0.216559,0.216553 -0.433106,0.433106 -0.656226,0.656222 -0.324833,0 -0.649666,0 -0.984332,0 -0.108261,0.649659 -0.21656,1.299319 -0.328107,1.968665 -0.108261,0 -0.216559,0 -0.328119,0 -0.108261,-0.97449 -0.216547,-1.948979 -0.328107,-2.952998 z"
       fill="#6a9f71"
       id="path746"
       style="stroke-width:0.32811" />
    <path
       d="m 35.698827,32.113174 c 0.706076,1.059115 0.722128,1.40563 0.656222,2.624888 -0.866212,0.324829 -1.732425,0.649659 -2.624887,0.984332 0.216553,-0.433106 0.433107,-0.866213 0.656222,-1.312444 0.433107,0 0.866213,0 1.312443,0 0,-0.757936 0,-1.515872 0,-2.296776 z"
       fill="#dcf6dc"
       id="path747"
       style="stroke-width:0.32811" />
    <path
       d="m 17.980843,25.879069 c 0.393314,1.179942 0.237881,1.407338 -0.26659,2.501845 -0.117165,0.261387 -0.234318,0.522774 -0.355026,0.792081 -0.362717,0.643404 -0.362717,0.643404 -1.018939,0.971515 0.571765,-3.14807 0.571765,-3.14807 1.640555,-4.265441 z"
       fill="#e8fbea"
       id="path748"
       style="stroke-width:0.32811" />
    <path
       d="m 55.385472,85.595239 c -0.216547,0.216553 -0.433106,0.433106 -0.656226,0.656222 -0.997143,-0.0077 -0.997143,-0.0077 -2.173729,-0.123043 -0.389963,-0.03637 -0.779926,-0.07274 -1.181707,-0.110221 -0.300303,-0.0313 -0.600607,-0.0626 -0.910001,-0.09484 0,-0.108273 0,-0.216553 0,-0.32811 1.764011,-0.278528 3.167486,-0.328908 4.921663,0 z"
       fill="#71ad79"
       id="path764"
       style="stroke-width:0.32811" />
    <path
       d="m 40.292378,48.846827 c 0.649659,0 1.299319,0 1.968665,0 -0.324833,0.487244 -0.324833,0.487244 -0.656226,0.984332 -0.129231,0.76249 -0.241112,1.52832 -0.328107,2.296775 -0.618133,-1.071431 -0.81794,-2.060902 -0.984332,-3.281107 z"
       fill="#e2fbe4"
       id="path765"
       style="stroke-width:0.32811" />
    <path
       d="m 83.2749,36.378616 c 0.565525,0.848283 0.803005,1.324949 1.045854,2.276269 0.05878,0.219513 0.117562,0.439028 0.178154,0.665193 0.09921,0.748738 -0.01401,1.265006 -0.239675,1.9802 -0.744658,-1.116993 -0.776144,-1.694771 -0.86129,-3.014517 -0.02455,-0.356553 -0.04911,-0.713103 -0.07428,-1.080459 -0.01612,-0.272807 -0.03212,-0.545613 -0.04874,-0.826686 z"
       fill="#d3f1d6"
       id="path766"
       style="stroke-width:0.32811" />
    <path
       d="m 38.651825,73.127028 c 0.487244,0.324829 0.487244,0.324829 0.984332,0.656222 0.09613,0.710053 0.09613,0.710053 0.06152,1.517513 -0.0089,0.268152 -0.01776,0.536306 -0.02691,0.812587 -0.01141,0.205556 -0.02284,0.411111 -0.03461,0.622898 -0.32483,0 -0.649659,0 -0.984332,0 0,-1.191043 0,-2.382085 0,-3.60922 z"
       fill="#dbf1dd"
       id="path787"
       style="stroke-width:0.32811" />
    <path
       d="m 66.541248,51.143602 c 0,0.216553 0,0.433106 0,0.656222 -0.324833,0.162414 -0.324833,0.162414 -0.656226,0.32811 -0.215083,0.829246 -0.215083,0.829246 -0.328106,1.640555 -0.216547,0 -0.433107,0 -0.656226,0 -0.108261,-0.757937 -0.216547,-1.515872 -0.328107,-2.296777 0.681003,-0.1816 1.261149,-0.32811 1.968665,-0.32811 z"
       fill="#5d9d61"
       id="path788"
       style="stroke-width:0.32811" />
    <path
       d="m 45.542147,37.691059 c 0.108261,0 0.216547,0 0.328107,0 0,1.082766 0,2.165531 0,3.281108 -1.08276,0 -2.165532,0 -3.281104,0 0,-0.108274 0,-0.216553 0,-0.328111 0.866212,-0.216553 1.732425,-0.433106 2.62489,-0.656222 0.108261,-0.757935 0.216547,-1.515872 0.328107,-2.296775 z"
       fill="#ebfeec"
       id="path789"
       style="stroke-width:0.32811" />
    <path
       d="m 21.918173,30.14451 c 0.108273,0 0.216553,0 0.32811,0 0.119782,0.518697 0.235126,1.038418 0.348618,1.558526 0.06471,0.289302 0.129425,0.578603 0.196098,0.876671 0.110939,0.841576 0.04969,1.361345 -0.216604,2.158355 0,-0.216554 0,-0.433107 0,-0.656223 -0.324831,-0.108273 -0.64966,-0.216553 -0.984333,-0.32811 0.108274,-1.191043 0.216553,-2.382085 0.328111,-3.609219 z"
       fill="#d1eed5"
       id="path791"
       style="stroke-width:0.32811" />
    <path
       d="m 63.588251,85.923349 c -1.009569,0.879839 -1.705304,1.122427 -3.035031,1.209909 -0.292677,0.02157 -0.585366,0.04314 -0.886922,0.06537 -0.221631,0.01228 -0.44325,0.02453 -0.671603,0.03716 0.861785,-0.57452 1.515246,-0.883632 2.481336,-1.209908 0.257582,-0.08924 0.515164,-0.178487 0.780547,-0.270435 0.675447,-0.16021 0.675447,-0.16021 1.331673,0.167901 z"
       fill="#d7f3db"
       id="path807"
       style="stroke-width:0.32811" />
    <path
       d="m 15.684067,66.892922 c 0.324829,0 0.64966,0 0.984333,0 0.738249,0.902304 0.738249,0.902304 1.312443,1.968665 -0.108274,0.433106 -0.216553,0.866212 -0.328111,1.312442 -0.649659,-1.082765 -1.299319,-2.165531 -1.968665,-3.281107 z"
       fill="#d7f6dc"
       id="path808"
       style="stroke-width:0.32811" />
    <path
       d="m 52.432474,57.705819 c 1.232254,0.107157 2.210163,0.366479 3.281105,0.984332 0,0.216554 0,0.433107 0,0.656222 -1.948973,-0.487245 -1.948973,-0.487245 -3.93733,-0.984332 0.216559,-0.216553 0.433106,-0.433106 0.656225,-0.656222 z"
       fill="#69a26f"
       id="path809"
       style="stroke-width:0.32811" />
    <path
       d="m 56.041698,28.503956 c 1.732425,0 3.46485,0 5.249769,0 -0.108261,0.324829 -0.216547,0.64966 -0.328107,0.984333 -2.436221,-0.324831 -2.436221,-0.324831 -4.921662,-0.656222 0,-0.108274 0,-0.216553 0,-0.328111 z"
       fill="#6aa771"
       id="path810"
       style="stroke-width:0.32811" />
    <path
       d="m 69.494246,78.704911 c 0.108261,0.216553 0.216547,0.433107 0.328106,0.656222 -0.108261,0.216554 -0.216547,0.433107 -0.328106,0.656221 -0.216547,0 -0.433107,0 -0.656226,0 0,0.216553 0,0.433106 0,0.656222 -0.615203,0.20507 -0.615203,0.20507 -1.312439,0.328111 -0.216547,-0.216553 -0.433107,-0.433107 -0.656226,-0.656221 1.299319,-0.812075 1.299319,-0.812075 2.624891,-1.640555 z"
       fill="#5f9f68"
       id="path833"
       style="stroke-width:0.32811" />
    <path
       d="m 48.495144,48.846827 c 0.75794,0.108273 1.515866,0.216553 2.296772,0.32811 -0.32482,0.216553 -0.649653,0.433106 -0.984332,0.656222 -0.391216,0.67264 -0.391216,0.67264 -0.656214,1.312443 -0.47925,-0.868637 -0.656226,-1.277822 -0.656226,-2.296775 z"
       fill="#6b9e73"
       id="path835"
       style="stroke-width:0.32811" />
    <path
       d="m 37.667492,39.987834 c 0.656222,0.984333 0.656222,0.984333 0.656222,1.640555 0.216553,0.108273 0.433107,0.216553 0.656221,0.32811 -0.216553,0.216553 -0.433106,0.433107 -0.656221,0.656222 0,-0.216553 0,-0.433106 0,-0.656222 -0.649659,0 -1.299319,0 -1.968665,0 0.108274,-0.216553 0.216553,-0.433106 0.328111,-0.656222 0.216553,0 0.433106,0 0.656222,0 0.108273,-0.433106 0.216553,-0.866212 0.32811,-1.312443 z"
       fill="#6fa973"
       id="path836"
       style="stroke-width:0.32811" />
    <path
       d="m 23.886838,38.019169 c 0.979342,1.469014 1.312442,2.834301 1.312442,4.593552 -0.216553,0 -0.433106,0 -0.65622,0 -0.110965,-0.51917 -0.219953,-1.038764 -0.328112,-1.558526 -0.0609,-0.289302 -0.121815,-0.578603 -0.184562,-0.876672 -0.143548,-0.845911 -0.143548,-0.845911 -0.143548,-2.158354 z"
       fill="#daf3dc"
       id="path837"
       style="stroke-width:0.32811" />
    <path
       d="m 67.525581,34.738062 c 0.108261,0.324829 0.216547,0.649659 0.328106,0.984332 -1.453773,1.009572 -1.453773,1.009572 -2.399303,0.881798 -0.182717,-0.07444 -0.365434,-0.14888 -0.553694,-0.225576 0.790492,-0.790491 1.621969,-1.160896 2.624891,-1.640554 z"
       fill="#67a56e"
       id="path838"
       style="stroke-width:0.32811" />
    <path
       d="m 15.027846,23.910404 c 0.324828,0.108274 0.649659,0.216553 0.984332,0.328111 -0.64966,0.974489 -1.299319,1.948978 -1.968665,2.952997 -0.32811,-0.984332 -0.32811,-0.984332 0.123043,-2.009679 0.533181,-0.943318 0.533181,-0.943318 0.86129,-1.271429 z"
       fill="#d8f4dd"
       id="path840"
       style="stroke-width:0.32811" />
    <path
       d="m 22.902505,19.644964 c 0.216553,0.108273 0.433106,0.216553 0.656222,0.32811 -0.866212,0.866213 -1.732425,1.732426 -2.624887,2.624887 -0.108273,-0.433106 -0.216553,-0.866212 -0.32811,-1.312443 0.318062,-0.209785 0.636125,-0.419571 0.963825,-0.635715 0.926212,-0.577154 0.926212,-0.577154 1.33295,-1.004839 z"
       fill="#54915a"
       id="path841"
       style="stroke-width:0.32811" />
    <path
       d="m 78.025119,70.174031 c 0.328106,0.656222 0.328106,0.656222 -0.04105,1.825116 -0.304532,0.558301 -0.304532,0.558301 -0.615215,1.127881 -0.858723,0.234548 -0.858723,0.234548 -1.640546,0.328111 0.320815,-0.485636 0.642188,-0.970896 0.963821,-1.455992 0.17891,-0.270268 0.35782,-0.540537 0.542149,-0.818995 0.462695,-0.678011 0.462695,-0.678011 0.790802,-1.006121 z"
       fill="#639d6a"
       id="path855"
       style="stroke-width:0.32811" />
    <path
       d="m 44.787246,56.369023 c 0.48534,0.06281 0.48534,0.06281 0.980488,0.126886 0.489147,0.059 0.489147,0.059 0.988177,0.119199 0.249125,0.03511 0.498237,0.07022 0.754913,0.106376 0,0.108273 0,0.216553 0,0.328112 -1.515878,0.108273 -3.031744,0.216553 -4.593555,0.32811 0.984332,-0.984332 0.984332,-0.984332 1.869977,-1.008683 z"
       fill="#4c8e53"
       id="path856"
       style="stroke-width:0.32811" />
    <path
       d="m 23.230615,35.066172 c 0.216554,0 0.433107,0 0.656223,0 0.175382,0.408237 0.3452,0.818869 0.512672,1.230415 0.09517,0.228396 0.19033,0.456792 0.288379,0.692109 0.208977,0.800837 0.118479,1.240584 -0.144831,2.014806 -0.624456,-0.936685 -0.807779,-1.450057 -1.025346,-2.522352 -0.05499,-0.265193 -0.109972,-0.530386 -0.166618,-0.803616 -0.03976,-0.20175 -0.07952,-0.403498 -0.120476,-0.611362 z"
       fill="#5c9861"
       id="path857"
       style="stroke-width:0.32811" />
    <path
       d="m 72.447243,19.973074 c 0.377091,0.313089 0.75278,0.627848 1.127887,0.943319 0.209354,0.175104 0.418721,0.350206 0.634425,0.530617 0.53446,0.494729 0.53446,0.494729 0.862579,1.150951 -0.635715,-0.102531 -0.635715,-0.102531 -1.312452,-0.328111 -0.108261,-0.324829 -0.216547,-0.64966 -0.328107,-0.984333 -0.324832,0 -0.649665,0 -0.984332,0 0,-0.433106 0,-0.866212 0,-1.312443 z"
       fill="#e3fce5"
       id="path861"
       style="stroke-width:0.32811" />
    <path
       d="m 76.056454,75.423803 c 0.433106,0.108274 0.866212,0.216554 1.312439,0.328111 -0.54138,0.649659 -1.08276,1.299319 -1.640546,1.968665 -0.205076,-0.594701 -0.205076,-0.594701 -0.328119,-1.312443 0.216559,-0.32483 0.433106,-0.649659 0.656226,-0.984333 z"
       fill="#64a26c"
       id="path874"
       style="stroke-width:0.32811" />
    <path
       d="m 36.355049,66.236701 c 0.539035,0.970261 0.867597,1.844011 0.984333,2.952997 -0.216553,0.216553 -0.433107,0.433106 -0.656222,0.656222 -0.118963,-0.477817 -0.234532,-0.956479 -0.348617,-1.435485 -0.09708,-0.399692 -0.09708,-0.399692 -0.196098,-0.80746 -0.11151,-0.710052 -0.11151,-0.710052 0.216604,-1.366274 z"
       fill="#69a46f"
       id="path875"
       style="stroke-width:0.32811" />
    <path
       d="m 27.167945,33.753729 c 0.842219,1.263329 0.60139,1.832727 0.328111,3.281108 -0.638209,-0.957312 -0.804778,-1.517634 -0.984333,-2.624886 0.216553,0 0.433107,0 0.656222,0 0,-0.216553 0,-0.433106 0,-0.656222 z"
       fill="#63a269"
       id="path877"
       style="stroke-width:0.32811" />
    <path
       d="m 19.949508,77.064358 c 0.431832,0.312808 0.862205,0.627629 1.291936,0.943319 0.239815,0.175103 0.479631,0.350206 0.726715,0.530616 0.606236,0.49473 0.606236,0.49473 0.934346,1.150952 -1.270467,-0.188218 -2.02925,-0.768128 -2.952997,-1.640555 0,-0.32483 0,-0.649659 0,-0.984332 z"
       fill="#def7e0"
       id="path900"
       style="stroke-width:0.32811" />
    <path
       d="m 36.026938,50.487381 c -1.624148,0.812075 -1.624148,0.812075 -3.281108,1.640555 0,-0.324831 0,-0.64966 0,-0.984333 2.173733,-1.025346 2.173733,-1.025346 3.281108,-0.656222 z"
       fill="#dcf8df"
       id="path901"
       style="stroke-width:0.32811" />
    <path
       d="m 79.33757,28.175845 c 1.453067,1.687426 1.453067,1.687426 1.640559,2.952997 C 80.342414,30.94428 80.342414,30.94428 79.665677,30.47262 79.419603,29.283219 79.419603,29.283219 79.33757,28.175845 Z"
       fill="#ddf8e1"
       id="path902"
       style="stroke-width:0.32811" />
    <path
       d="m 22.246283,28.832067 c 0.216553,0 0.433106,0 0.656222,0 -0.152265,0.243622 -0.152265,0.243622 -0.307604,0.492166 -0.485258,1.141782 -0.553369,2.21156 -0.676728,3.445164 -0.369126,-0.512673 -0.369126,-0.512673 -0.656222,-1.312443 0.463635,-2.10419 0.463635,-2.10419 0.984332,-2.624887 z"
       fill="#ecfdef"
       id="path903"
       style="stroke-width:0.32811" />
    <path
       d="m 24.54306,81.001688 c 0.974488,0.541382 1.948978,1.082766 2.952997,1.640554 -0.984332,0.328111 -0.984332,0.328111 -1.845623,-0.08203 C 24.87117,81.986017 24.87117,81.986017 24.54306,81.001685 Z"
       fill="#d9f7dd"
       id="path927"
       style="stroke-width:0.32811" />
    <path
       d="m 18.637065,75.423803 c 0.649659,0.216554 1.299319,0.433107 1.968665,0.656223 0,0.433106 0,0.866212 0,1.312442 -0.662964,-0.538657 -1.319147,-1.085756 -1.968665,-1.640554 0,-0.108274 0,-0.216553 0,-0.328111 z"
       fill="#619f65"
       id="path928"
       style="stroke-width:0.32811" />
    <path
       d="m 53.621883,87.194779 c 0.25716,0.01353 0.514308,0.02707 0.779269,0.04101 0.108261,0.32483 0.216547,0.64966 0.328106,0.984333 -0.866212,-0.108274 -1.732425,-0.216553 -2.62489,-0.32811 0.656225,-0.656223 0.656225,-0.656223 1.517515,-0.697236 z"
       fill="#60a568"
       id="path953"
       style="stroke-width:0.32811" />
    <path
       d="m 35.370717,86.251461 c 0.757935,0 1.515872,0 2.296775,0 0,0.324829 0,0.649659 0,0.984332 -0.963825,-0.123043 -0.963825,-0.123043 -1.968665,-0.32811 -0.108273,-0.216553 -0.216553,-0.433107 -0.32811,-0.656222 z"
       fill="#6aa46f"
       id="path954"
       style="stroke-width:0.32811" />
    <path
       d="m 30.777165,84.282796 c 0.541382,0 1.082766,0 1.640554,0 0,0.216553 0,0.433106 0,0.656222 0.32483,0.108273 0.64966,0.216553 0.984333,0.32811 -1.188834,0.396278 -1.522915,0.178201 -2.624887,-0.32811 0,-0.216553 0,-0.433106 0,-0.656222 z"
       fill="#66a26c"
       id="path955"
       style="stroke-width:0.32811" />
    <path
       d="m 71.462911,80.673576 c 0.216546,0.108274 0.433106,0.216553 0.656225,0.328111 -0.738258,0.840784 -0.738258,0.840784 -1.640558,1.640554 -0.433106,-0.108273 -0.866213,-0.216553 -1.312439,-0.32811 0.757927,-0.541384 1.515866,-1.082766 2.296772,-1.640555 z"
       fill="#ddf6e0"
       id="path956"
       style="stroke-width:0.32811" />
    <path
       d="m 31.433387,27.847734 c -0.324829,0.487244 -0.324829,0.487244 -0.656222,0.984333 -0.861291,0.06152 -0.861291,0.06152 -1.640553,0 0.108273,-0.324831 0.216553,-0.64966 0.32811,-0.984333 0.8173,-0.40865 1.119123,-0.254862 1.968665,0 z"
       fill="#519357"
       id="path960"
       style="stroke-width:0.32811" />
    <path
       d="m 29.792832,15.707634 c -0.205069,0.635715 -0.205069,0.635715 -0.656222,1.312443 -1.025346,0.246084 -1.025346,0.246084 -1.968665,0.328112 1.587633,-1.640555 1.587633,-1.640555 2.624887,-1.640555 z"
       fill="#daf5dd"
       id="path962"
       style="stroke-width:0.32811" />
    <path
       d="m 29.792832,12.426526 c 0,0.216553 0,0.433107 0,0.656222 -0.757935,0.433107 -1.515872,0.866213 -2.296775,1.312443 -0.216553,-0.216553 -0.433106,-0.433106 -0.656222,-0.656222 2.214749,-1.312443 2.214749,-1.312443 2.952997,-1.312443 z"
       fill="#65a06b"
       id="path963"
       style="stroke-width:0.32811" />
  </g>
</svg>
