<?xml version="1.0" encoding="UTF-8" standalone="no"?>
<!-- Created with Inkscape (http://www.inkscape.org/) -->

<svg
   width="96mm"
   height="96mm"
   viewBox="0 0 96 96"
   version="1.1"
   id="svg1"
   inkscape:version="1.4.2 (ebf0e940, 2025-05-08)"
   sodipodi:docname="animal.svg"
   xmlns:inkscape="http://www.inkscape.org/namespaces/inkscape"
   xmlns:sodipodi="http://sodipodi.sourceforge.net/DTD/sodipodi-0.dtd"
   xmlns="http://www.w3.org/2000/svg"
   xmlns:svg="http://www.w3.org/2000/svg">
  <sodipodi:namedview
     id="namedview1"
     pagecolor="#ffffff"
     bordercolor="#000000"
     borderopacity="0.25"
     inkscape:showpageshadow="2"
     inkscape:pageopacity="0.0"
     inkscape:pagecheckerboard="0"
     inkscape:deskcolor="#d1d1d1"
     inkscape:document-units="mm"
     inkscape:zoom="0.80444024"
     inkscape:cx="397.17059"
     inkscape:cy="262.91574"
     inkscape:window-width="1920"
     inkscape:window-height="1052"
     inkscape:window-x="0"
     inkscape:window-y="28"
     inkscape:window-maximized="0"
     inkscape:current-layer="layer1" />
  <defs
     id="defs1" />
  <g
     inkscape:label="Layer 1"
     inkscape:groupmode="layer"
     id="layer1">
    <path
       d="m 56.856856,45.950991 c 1.638995,1.220258 2.719051,2.45449 3.778693,4.208601 0.140374,0.223044 0.280762,0.446087 0.425405,0.67589 0.629885,1.003599 1.237138,2.013149 1.820309,3.044819 2.14201,3.683604 5.39199,6.257691 8.592561,8.995603 3.101026,2.7084 5.49713,5.3617 5.792492,9.606528 0.171285,4.246524 -0.332812,7.232711 -3.167772,10.531402 -2.816488,2.926406 -5.642828,4.222199 -9.706934,4.36699 -3.421963,-0.08464 -6.656659,-1.05475 -9.774816,-2.421077 -5.019703,-1.874922 -10.314489,-0.58099 -15.137388,1.176598 -4.020417,1.270651 -8.277058,1.947676 -12.221342,0.09192 -3.526815,-1.972308 -5.666842,-4.694243 -7.077973,-8.490741 -0.779153,-3.156204 -0.576315,-6.753327 0.835774,-9.702693 1.941854,-3.066898 4.641845,-5.540587 7.444253,-7.806277 0.656662,-0.534899 1.312887,-1.070345 1.968537,-1.606508 0.22774,-0.182473 0.455481,-0.364944 0.690117,-0.552945 1.832377,-1.629259 2.879252,-3.706176 4.075573,-5.811929 2.442039,-4.233915 5.404429,-7.361197 10.206229,-8.659381 4.178921,-0.790105 7.868838,0.177109 11.456282,2.353197 z"
       fill="#58a75d"
       id="path7"
       style="stroke-width:0.36203" />
    <path
       d="m 36.849034,8.6024828 c 3.5009,1.6199792 5.700844,4.2334862 7.336774,7.6620302 0.194135,0.388278 0.38827,0.776555 0.588288,1.176599 1.962968,5.353527 2.322941,10.683272 0.124379,16.021251 -1.191245,2.378485 -2.928196,4.035691 -5.192861,5.406412 -3.679888,0.788547 -6.069971,-0.274737 -9.163896,-2.217435 -4.660674,-4.660673 -6.046327,-10.368337 -6.06692,-16.741335 0.06212,-2.588082 0.690583,-4.642743 1.971451,-6.903764 0.216548,-0.40321 0.433082,-0.806422 0.656184,-1.221852 2.602964,-3.1235535 5.741113,-4.4064185 9.746533,-3.1819062 z"
       fill="#58a55d"
       id="path24"
       style="stroke-width:0.36203" />
    <path
       d="m 67.106843,9.0465355 c 2.736264,1.9849145 4.523528,4.6250255 5.190042,7.9632515 0.481766,4.03073 0.382824,8.069292 -0.958811,11.925784 -0.0966,0.280007 -0.193204,0.560015 -0.292734,0.848508 -1.603611,4.048216 -4.235501,7.165496 -8.205085,8.971562 -1.801905,0.623844 -3.616097,0.646737 -5.417715,0 C 54.414723,37.211088 52.623025,34.902852 51.393879,31.77666 49.928152,25.580351 51.073531,19.118796 54.322649,13.730302 57.20706,9.8539083 62.166311,6.1431426 67.106843,9.0465355 Z"
       fill="#58a65c"
       id="path25"
       style="stroke-width:0.36203" />
    <path
       d="m 23.132903,34.061977 c 3.193141,2.3757 5.515234,6.937959 6.209661,10.802925 0.264178,4.127207 0.08347,7.527379 -2.059036,11.177683 -1.80118,1.655133 -3.583039,2.682739 -6.064005,2.805734 C 18.01222,58.686833 15.208594,56.955207 13.051204,54.639718 9.1402648,49.993888 7.8737223,44.640676 8.3448154,38.710389 8.8467227,35.86171 10.052923,34.202445 12.247955,32.360718 c 3.639605,-2.396503 7.629344,-0.342962 10.884948,1.701259 z"
       fill="#58a65d"
       id="path27"
       style="stroke-width:0.36203" />
    <path
       d="m 83.788511,31.797871 c 2.314937,1.378359 3.921311,3.32488 4.927,5.826424 0.174678,1.27688 0.189661,2.536458 0.181027,3.823944 -0.0027,0.355057 -0.0041,0.710112 -0.0068,1.075927 -0.07197,2.936989 -0.560758,5.168084 -1.984888,7.771188 -0.188073,0.351875 -0.376146,0.703752 -0.569912,1.066291 -1.9499,3.336184 -4.658278,6.207043 -8.480852,7.260403 -2.165874,0.322105 -4.26496,0.05535 -6.154505,-1.086091 -2.497878,-2.079865 -3.759714,-4.824409 -4.106784,-8.026888 -0.143877,-5.011959 1.324449,-9.667098 4.532449,-13.566235 3.080927,-3.208635 7.048554,-5.894136 11.662746,-4.144963 z"
       fill="#58a55d"
       id="path28"
       style="stroke-width:0.36203" />
    <path
       d="m 56.856856,45.950991 c 1.638995,1.220258 2.719051,2.45449 3.778693,4.208601 0.140374,0.223044 0.280762,0.446087 0.425405,0.67589 0.629885,1.003599 1.237138,2.013149 1.820309,3.044819 2.14201,3.683604 5.39199,6.257691 8.592561,8.995603 3.101026,2.7084 5.49713,5.3617 5.792492,9.606528 0.171285,4.246524 -0.332812,7.232711 -3.167772,10.531402 -2.816488,2.926406 -5.642828,4.222199 -9.706934,4.36699 -3.421963,-0.08464 -6.656659,-1.05475 -9.774816,-2.421077 -5.019703,-1.874922 -10.314489,-0.58099 -15.137388,1.176598 -4.020417,1.270651 -8.277058,1.947676 -12.221342,0.09192 -3.526815,-1.972308 -5.666842,-4.694243 -7.077973,-8.490741 -0.779153,-3.156204 -0.576315,-6.753327 0.835774,-9.702693 1.941854,-3.066898 4.641845,-5.540587 7.444253,-7.806277 0.656662,-0.534899 1.312887,-1.070345 1.968537,-1.606508 0.22774,-0.182473 0.455481,-0.364944 0.690117,-0.552945 1.832377,-1.629259 2.879252,-3.706176 4.075573,-5.811929 2.442039,-4.233915 5.404429,-7.361197 10.206229,-8.659381 4.178921,-0.790105 7.868838,0.177109 11.456282,2.353197 z m -14.843243,1.086091 c -0.256201,0.168937 -0.512416,0.337876 -0.776375,0.511932 -2.537587,1.94652 -3.96091,4.641963 -5.53086,7.365052 -0.585264,1.004759 -1.197895,1.896907 -1.957234,2.777452 -0.864166,0.819664 -0.864166,0.819664 -0.786282,1.654591 -0.194135,0.08214 -0.388284,0.164271 -0.588302,0.248895 -1.158351,0.640143 -2.051032,1.393528 -3.031996,2.285317 0,0.23894 0,0.47788 0,0.72406 -0.315011,0.144204 -0.315011,0.144204 -0.636384,0.291321 -2.985528,1.591586 -5.729824,4.658333 -6.795144,7.892541 -0.650245,3.294221 -0.424817,6.293716 1.27701,9.193588 0.194135,0.365878 0.388283,0.731754 0.588302,1.108717 0.246404,0.347211 0.246404,0.347211 0.497789,0.701435 0.238946,0 0.477879,0 0.724065,0 0,0.23894 0,0.47788 0,0.724059 2.607274,2.16349 5.253983,3.121874 8.654777,3.026349 3.083485,-0.358186 6.139782,-1.360958 9.039449,-2.442293 3.588745,-1.035722 8.449519,-1.151818 11.992247,0.140005 0.399011,0.144671 0.798022,0.289342 1.209129,0.438398 0.870473,0.316037 1.738976,0.637625 2.60492,0.965885 3.545575,1.147215 7.626717,1.351882 11.029195,-0.318192 2.820688,-1.746619 4.902712,-3.994534 5.792479,-7.240605 0.560826,-4.124545 -0.06458,-7.391741 -2.534207,-10.860907 -1.824592,-2.088916 -4.032841,-3.745649 -6.2224,-5.430452 -2.943029,-2.319471 -4.932241,-5.159868 -6.646642,-8.4568 -1.689266,-3.069731 -3.689739,-5.094694 -6.932317,-6.424622 -3.427996,-0.92791 -7.995543,-0.964127 -10.971219,1.124274 z"
       fill="#46884f"
       id="path40"
       style="stroke-width:0.36203" />
    <path
       d="m 67.106843,9.0465355 c 2.736264,1.9849145 4.523528,4.6250255 5.190042,7.9632515 0.481766,4.03073 0.382824,8.069292 -0.958811,11.925784 -0.0966,0.280007 -0.193204,0.560015 -0.292734,0.848508 -1.603611,4.048216 -4.235501,7.165496 -8.205085,8.971562 -1.801905,0.623844 -3.616097,0.646737 -5.417715,0 C 54.414723,37.211088 52.623025,34.902852 51.393879,31.77666 49.928152,25.580351 51.073531,19.118796 54.322649,13.730302 57.20706,9.8539083 62.166311,6.1431426 67.106843,9.0465355 Z M 56.132805,14.092332 c -0.984029,1.637548 -1.795433,3.304358 -2.534221,5.068423 -0.139991,0.329476 -0.279995,0.658952 -0.424242,0.998412 -0.432315,1.692529 -0.418824,3.325626 -0.41294,5.065595 -0.0055,0.339741 -0.01232,0.679484 -0.01765,1.029522 -0.0027,3.898619 0.907951,6.997005 3.637976,9.854011 1.750347,1.155892 3.241565,1.36783 5.301764,1.005482 3.38157,-0.962048 5.165249,-3.143191 6.936559,-6.078148 2.394735,-4.448259 2.578649,-10.031348 1.56408,-14.913948 -0.784655,-2.516174 -2.300174,-4.446538 -4.611648,-5.718946 -3.700522,-1.4425777 -7.106789,0.969979 -9.439651,3.689597 z"
       fill="#42884a"
       id="path62"
       style="stroke-width:0.36203" />
    <path
       d="m 31.876771,8.6618782 c 2.898244,-0.2226243 5.241833,-0.3806853 7.594151,1.4863038 4.321937,4.046602 6.424006,8.752173 7.014333,14.622627 0.110969,4.200158 -0.755946,8.642372 -3.720704,11.781538 -2.110635,1.931763 -3.773068,2.715967 -6.65373,2.660074 -2.689564,-0.385896 -5.330143,-2.058815 -7.012909,-4.153449 -3.916796,-5.317439 -5.198212,-11.178858 -4.46175,-17.708368 0.419946,-1.576045 1.004567,-2.929946 1.810156,-4.344363 0.125063,-0.22914 0.250139,-0.458279 0.379006,-0.694363 0.752622,-1.249235 1.642758,-2.160477 2.879266,-2.9259389 1.199222,-0.090513 1.199222,-0.090513 2.172181,0 -0.04529,0.6335519 -0.04529,0.6335519 -0.362025,1.4481209 -0.321087,0.179205 -0.642159,0.358409 -0.97296,0.543045 -2.087045,1.245166 -2.997268,4.127024 -3.733442,6.335529 -0.553205,6.157832 0.537948,11.27591 4.07285,16.381867 1.606826,1.606829 3.27361,2.668157 5.543584,2.986749 2.462823,-0.35823 4.288263,-0.973263 5.825004,-3.022721 1.576586,-2.515968 1.764878,-5.441243 1.732381,-8.335977 -0.0027,-0.349981 -0.0068,-0.699961 -0.0096,-1.060546 -0.110947,-4.579285 -1.673016,-8.405225 -4.492829,-12.017795 -2.401016,-1.79162 -4.307418,-2.273326 -7.240609,-2.172181 0.238947,-0.358411 0.47788,-0.7168201 0.724065,-1.0860909 -0.358413,-0.23894 -0.716826,-0.4778799 -1.08609,-0.7240609 z"
       fill="#43844b"
       id="path63"
       style="stroke-width:0.36203" />
    <path
       d="m 56.856856,45.950991 c 1.638995,1.220258 2.719051,2.45449 3.778693,4.208601 0.140374,0.223044 0.280762,0.446087 0.425405,0.67589 0.629885,1.003599 1.237138,2.013149 1.820309,3.044819 2.163533,3.720629 5.46321,6.307244 8.683074,9.086111 1.80824,1.575924 2.687744,2.6586 3.031996,5.068422 0.186677,0.365877 0.373341,0.731753 0.56567,1.108718 0.530341,1.083714 0.624904,1.689585 0.52042,2.873615 -0.92604,-0.926043 -1.255007,-1.87943 -1.787524,-3.077258 -1.653225,-3.479487 -4.372864,-5.487759 -7.35374,-7.828903 -3.235435,-2.560753 -5.252013,-5.718807 -7.35515,-9.227527 -0.17127,-0.285142 -0.342541,-0.570283 -0.518997,-0.864065 -0.198117,-0.330409 -0.198117,-0.330409 -0.400215,-0.667493 -1.568445,-2.400795 -3.729543,-3.661614 -6.478368,-4.40093 -3.309775,-0.361712 -6.948545,-0.505332 -9.774816,1.44812 -0.229601,0.142338 -0.459203,0.284676 -0.695769,0.431326 -2.407502,1.767104 -3.731978,4.467208 -5.201358,7.000193 -1.300969,2.204105 -2.730777,4.295568 -4.692254,5.9636 -0.240807,0.209072 -0.481615,0.418144 -0.729716,0.633552 -0.6279,0.452539 -0.6279,0.452539 -1.351952,0.452539 0,0.23894 0,0.47788 0,0.72406 -0.623659,0.523247 -0.623659,0.523247 -1.470748,1.131344 -2.778641,2.114557 -4.546721,4.2754 -5.769861,7.557381 -0.238933,0 -0.47788,0 -0.724065,0 0.221186,-1.504069 0.737858,-2.643738 1.44813,-3.982333 0.164265,-0.38081 0.328543,-0.761621 0.497789,-1.153971 0.665994,-1.152694 1.201589,-1.551905 2.398444,-2.104301 0.238947,0 0.47788,0 0.724065,0 0,-0.238939 0,-0.477879 0,-0.72406 0.238947,0 0.47788,0 0.724065,0 -0.119453,-0.477879 -0.238947,-0.955759 -0.362039,-1.44812 0.16031,-0.139858 0.320607,-0.279717 0.485775,-0.423813 3.393036,-2.989207 6.043904,-5.70945 8.20295,-9.713034 2.331972,-3.960061 5.243899,-6.439314 9.525921,-8.055172 4.327478,-0.880165 8.097537,-0.0037 11.833866,2.262689 z"
       fill="#3f8347"
       id="path66"
       style="stroke-width:0.36203" />
    <path
       d="m 23.132903,34.061977 c 3.193141,2.3757 5.515234,6.937959 6.209661,10.802925 0.264178,4.127207 0.08347,7.527379 -2.059036,11.177683 -1.80118,1.655133 -3.583039,2.682739 -6.064005,2.805734 C 18.01222,58.686833 15.208594,56.955207 13.051204,54.639718 9.1402648,49.993888 7.8737223,44.640676 8.3448154,38.710389 8.8467227,35.86171 10.052923,34.202445 12.247955,32.360718 15.88756,29.964215 19.877299,32.017756 23.132903,34.061977 Z M 11.710568,35.0915 c -1.379715,2.123599 -1.7475427,3.914036 -1.7139917,6.401996 0.0027,0.285812 0.0055,0.571623 0.0082,0.866097 0.109328,3.916482 1.39032,7.021564 3.770387,10.107943 0.263905,0.35281 0.263905,0.35281 0.533146,0.712748 1.693344,2.131346 3.651605,3.376748 6.386446,3.730607 1.828847,0.08447 3.04182,-0.112132 4.457494,-1.316601 2.387538,-2.482324 2.605413,-4.855374 2.544195,-8.185985 -0.15485,-3.776007 -1.129999,-6.412143 -3.4224,-9.421977 -0.258308,-0.34791 -0.258308,-0.34791 -0.521829,-0.702848 C 22.12522,35.2309 20.55594,33.835286 17.901747,33.455293 15.456972,33.349208 13.511861,33.304628 11.710462,35.0915 Z"
       fill="#47864f"
       id="path68"
       style="stroke-width:0.36203" />
    <path
       d="m 83.788511,31.797871 c 2.314937,1.378359 3.921311,3.32488 4.927,5.826424 0.174678,1.27688 0.189661,2.536458 0.181027,3.823944 -0.0027,0.355057 -0.0041,0.710112 -0.0068,1.075927 -0.07197,2.936989 -0.560758,5.168084 -1.984888,7.771188 -0.188073,0.351875 -0.376146,0.703752 -0.569912,1.066291 -1.9499,3.336184 -4.658278,6.207043 -8.480852,7.260403 -2.729382,0.405908 -5.003639,-0.253551 -7.217978,-1.855404 -1.00194,-1.396647 -1.068302,-2.613245 -1.108708,-4.299111 1.380193,0.460068 1.457968,0.943734 2.172181,2.172182 1.236768,1.391363 1.980674,1.772624 3.869192,1.900659 2.812,-0.06157 4.860405,-1.189344 6.902624,-3.089984 3.278701,-3.962957 4.875839,-8.931307 4.433453,-14.015943 -0.50281,-2.252062 -1.423692,-4.030616 -3.289387,-5.431868 -1.207965,-0.628634 -2.294617,-0.59248 -3.589196,-0.360617 -0.257597,0.0448 -0.515207,0.0896 -0.780617,0.135763 -3.211161,0.814096 -5.591434,3.267748 -7.365056,5.973499 -0.911235,1.635098 -1.270894,3.211854 -1.511756,5.058524 -0.117401,0.779213 -0.117401,0.779213 -0.479413,1.141244 -0.08483,0.729833 -0.149651,1.462049 -0.203644,2.194808 -0.04543,0.599916 -0.04543,0.599916 -0.09195,1.211952 -0.02189,0.309409 -0.04392,0.618817 -0.0665,0.937603 -0.48271,0 -0.96542,0 -1.44813,0 -0.294034,-5.880691 0.646688,-10.22496 4.581955,-14.819199 2.903813,-3.0688 6.830022,-5.307113 11.126768,-3.678283 z"
       fill="#45854d"
       id="path70"
       style="stroke-width:0.36203" />
    <path
       d="m 31.876771,8.6618782 c 2.898244,-0.2226243 5.241833,-0.3806853 7.594151,1.4863038 2.418476,2.264402 5.149692,4.96551 5.535101,8.428516 -0.0041,0.548542 -0.02217,1.097214 -0.05651,1.644692 -0.06896,0.827677 -0.06896,0.827677 0.141414,1.948742 0.501551,3.698943 0.445218,8.40923 -1.267104,11.833862 -0.358413,-0.119467 -0.716826,-0.23894 -1.08609,-0.36203 0.0784,-0.195072 0.156807,-0.390144 0.237578,-0.591128 1.48766,-4.394089 1.680071,-10.373162 -0.09332,-14.706063 -2.371831,-4.67552 -2.371831,-4.67552 -6.615541,-7.601221 -1.395396,-0.334894 -2.594946,-0.320924 -4.027587,-0.271522 0.238947,-0.358411 0.47788,-0.7168201 0.724065,-1.0860909 -0.358413,-0.23894 -0.716826,-0.4778799 -1.08609,-0.7240609 z"
       fill="#418948"
       id="path147"
       style="stroke-width:0.36203" />
    <path
       d="m 58.304986,11.558119 c -0.47684,1.03051 -1.01825,1.844104 -1.742274,2.715227 -1.39233,1.817857 -2.178078,3.837527 -2.964114,5.973499 -0.132041,0.323409 -0.264151,0.646817 -0.400215,0.980026 -0.4531,1.667956 -0.478509,3.294599 -0.527494,5.016099 -0.02176,0.671779 -0.04488,1.343519 -0.06924,2.015208 -0.0082,0.295203 -0.01738,0.590408 -0.02627,0.894557 -0.06636,0.916904 -0.226892,1.782156 -0.424872,2.679076 -0.951326,-1.092665 -1.222743,-1.760177 -1.217598,-3.204533 2.32e-4,-0.338342 4.65e-4,-0.676685 7.11e-4,-1.025281 0.0055,-0.351409 0.01232,-0.702819 0.01765,-1.064878 -0.0011,-0.343009 -0.0027,-0.686018 -0.0041,-1.039422 0.02572,-3.423468 0.508488,-6.352137 2.107843,-9.391573 0.111517,-0.216306 0.223061,-0.432612 0.337985,-0.655472 1.112759,-2.137184 2.219265,-3.892533 4.911442,-3.892533 z"
       fill="#3b8844"
       id="path173"
       style="stroke-width:0.36203" />
    <path
       d="m 24.636176,36.176175 c 2.662567,2.192702 4.408167,5.999688 4.785503,9.402002 0.200087,3.4851 0.213565,7.179775 -2.026443,10.067022 -0.496366,0.510519 -0.496366,0.510519 -1.310944,1.166698 -0.304447,-0.855927 -0.429195,-1.283062 -0.08059,-2.139655 0.207914,-0.385711 0.207914,-0.385711 0.420014,-0.779213 1.528806,-3.572529 1.245498,-8.421273 -0.0665,-12.027605 -0.199512,-0.453828 -0.413255,-0.901475 -0.634961,-1.344886 0.01491,-0.343476 0.02983,-0.686953 0.04529,-1.040837 -0.05118,-1.278021 -0.321497,-1.634641 -1.131341,-2.579465 0,-0.23894 0,-0.47788 0,-0.724061 z"
       fill="#4b8750"
       id="path179"
       style="stroke-width:0.36203" />
    <path
       d="m 81.233096,32.775071 c 0.318746,0.04714 0.637479,0.09426 0.965885,0.142832 0,0.119466 0,0.23894 0,0.362031 -0.306144,0.0532 -0.612288,0.106399 -0.927696,0.161216 -2.721569,0.538128 -4.672796,1.150021 -6.674939,3.097056 -0.196009,0.190405 -0.392005,0.38081 -0.593953,0.576985 -2.271643,2.432267 -3.510395,5.173672 -3.750409,8.47377 -0.179207,0.179205 -0.179207,0.179205 -0.362026,0.36203 -0.08483,0.729834 -0.149651,1.46205 -0.203645,2.194809 -0.04556,0.599916 -0.04556,0.599916 -0.09195,1.211952 -0.02189,0.309408 -0.04392,0.618817 -0.0665,0.937602 -0.482696,0 -0.965406,0 -1.448116,0 -0.388284,-7.765737 -0.388284,-7.765737 1.810155,-10.860907 0.479987,-0.13107 0.962807,-0.252259 1.448117,-0.36203 0.485953,-0.666075 0.485953,-0.666075 0.814564,-1.470748 0.121369,-0.26554 0.242682,-0.531081 0.367691,-0.804669 0.08771,-0.204872 0.175471,-0.409744 0.265861,-0.620825 0.238947,0 0.47788,0 0.724065,0 0.119453,-0.358409 0.238947,-0.71682 0.362026,-1.086091 0.268816,-0.104538 0.53762,-0.209071 0.814578,-0.316776 1.075637,-0.339996 1.075637,-0.339996 1.719642,-1.38024 1.591747,-1.226972 2.895795,-0.847293 4.826594,-0.617997 z"
       fill="#408748"
       id="path190"
       style="stroke-width:0.36203" />
    <path
       d="m 24.998202,17.712634 c 0.119452,0 0.238933,0 0.362025,0 0.119453,0.597349 0.238947,1.194699 0.36204,1.810151 0.238933,0 0.477879,0 0.724051,0 0.0096,0.337409 0.01875,0.674819 0.02832,1.022452 0.238399,5.358392 1.485293,10.627959 5.40217,14.544847 1.174346,0.785906 2.381231,1.493693 3.620312,2.172182 -1.431122,0.477037 -1.852095,0.12769 -3.190391,-0.52042 -2.007314,-1.052258 -3.440708,-2.103545 -4.412244,-4.185973 -0.251522,-1.002661 -0.324822,-1.854372 -0.362039,-2.896242 -0.238934,0 -0.47788,0 -0.724052,0 -0.238947,-0.836291 -0.47788,-1.67258 -0.724065,-2.534211 -0.238947,0 -0.47788,0 -0.724065,0 -0.369168,-1.107521 -0.403786,-1.855109 -0.397382,-3.01362 0.0012,-0.372177 0.0027,-0.744354 0.0041,-1.127808 0.0027,-0.388044 0.0055,-0.776088 0.0096,-1.175891 0.0014,-0.392245 0.0027,-0.784488 0.0055,-1.188619 0.0041,-0.96897 0.0096,-1.9379 0.01765,-2.906848 z"
       fill="#3c8546"
       id="path232"
       style="stroke-width:0.36203" />
    <path
       d="m 34.410992,56.087837 c 0.179207,0.358409 0.179207,0.358409 0.362026,0.72406 -1.309179,2.004691 -2.757884,3.653288 -4.706389,5.068423 -0.238933,0 -0.47788,0 -0.724065,0 0,0.23894 0,0.47788 0,0.724061 -0.623645,0.523246 -0.623645,0.523246 -1.470748,1.131344 -2.778627,2.114557 -4.546707,4.2754 -5.769847,7.557381 -0.238947,0 -0.47788,0 -0.724065,0 0.221186,-1.504069 0.737844,-2.64374 1.448116,-3.982333 0.246418,-0.571216 0.246418,-0.571216 0.497803,-1.153971 0.665994,-1.152694 1.201589,-1.551905 2.398444,-2.104301 0.238946,0 0.477879,0 0.724065,0 0,-0.23894 0,-0.47788 0,-0.72406 0.238933,0 0.477879,0 0.724051,0 -0.119453,-0.477879 -0.238933,-0.955759 -0.362026,-1.448121 0.570241,-0.538675 1.144162,-1.073441 1.719643,-1.606509 0.319211,-0.298208 0.638423,-0.596417 0.967294,-0.903661 1.083915,-0.868768 1.746434,-1.110132 3.105542,-1.110132 0.09701,-0.291208 0.194149,-0.582416 0.294158,-0.882449 0.141866,-0.306141 0.283731,-0.612283 0.429907,-0.927703 0.358414,-0.119466 0.716827,-0.23894 1.086091,-0.362029 z"
       fill="#398743"
       id="path239"
       style="stroke-width:0.36203" />
    <path
       d="m 22.101955,77.44762 c 0.08962,0.194139 0.179207,0.388278 0.271526,0.588299 0.467673,0.927691 0.467673,0.927691 1.221854,1.991166 0.678802,1.040837 0.678802,1.040837 0.678802,1.764898 0.238933,0 0.477879,0 0.724065,0 0,0.23894 0,0.47788 0,0.724061 0.238933,0.119466 0.477879,0.23894 0.724051,0.362029 0,0.23894 0,0.47788 0,0.724061 1.897973,1.127594 3.637237,2.029791 5.792493,2.534211 0,0.119467 0,0.23894 0,0.36203 1.194692,0.119467 2.389399,0.23894 3.620297,0.362031 0,0.119467 0,0.23894 0,0.36203 -4.44496,0.230574 -7.430789,-0.333555 -10.972628,-3.05463 -1.266502,-1.16998 -1.817299,-2.121806 -2.06046,-3.823944 -0.07471,-0.380811 -0.149336,-0.761622 -0.226262,-1.153972 -0.135736,-1.018209 -0.135736,-1.018209 0.226262,-1.74227 z"
       fill="#448d4e"
       id="path291"
       style="stroke-width:0.36203" />
    <path
       d="m 75.320398,79.619801 c 0.238933,0.23894 0.47788,0.47788 0.724065,0.724061 -2.187903,3.190693 -4.572938,5.764306 -8.428515,6.7216 -1.16392,0.185624 -2.272465,0.191502 -3.450601,0.1796 -0.42048,-0.0033 -0.840959,-0.0066 -1.274178,-0.0099 -0.318746,-0.0042 -0.637492,-0.0083 -0.965885,-0.01273 0,-0.23894 0,-0.47788 0,-0.724061 2.150453,-0.119466 4.300919,-0.23894 6.516544,-0.362029 0,-0.23894 0,-0.47788 0,-0.724061 0.238933,0 0.47788,0 0.724051,0 0.119453,-0.358409 0.238947,-0.71682 0.36204,-1.086091 0.604817,-0.0448 0.604817,-0.0448 1.221853,-0.09051 1.309603,-0.11606 1.309603,-0.11606 1.764893,-0.905075 0.08962,-0.268808 0.179206,-0.537615 0.271526,-0.814568 0.357962,-0.605799 0.719166,-1.20973 1.08609,-1.810151 0.3584,0.119466 0.716813,0.23894 1.086091,0.36203 0.119453,-0.47788 0.238933,-0.95576 0.362026,-1.448121 z"
       fill="#538a5b"
       id="path341"
       style="stroke-width:0.36203" />
    <path
       d="m 50.340312,43.41678 c 0.238934,0.23894 0.47788,0.47788 0.724065,0.724061 -0.327147,0.0093 -0.654295,0.01866 -0.991349,0.02828 -0.427006,0.02054 -0.854013,0.04106 -1.293977,0.06222 -0.636316,0.0252 -0.636316,0.0252 -1.28548,0.05091 -1.164823,0.105592 -1.164823,0.105592 -1.762073,0.939016 -0.151677,0.240806 -0.303339,0.481612 -0.459613,0.729716 -0.995865,0.331957 -1.578256,0.401441 -2.602089,0.384657 -0.683221,-0.01122 -0.683221,-0.01122 -1.380235,-0.02263 -0.119452,0.35841 -0.238946,0.71682 -0.362039,1.086091 -0.598934,0.252184 -1.202862,0.492711 -1.810142,0.72406 -0.641802,0.550315 -0.641802,0.550315 -1.086091,1.08609 -0.238946,-0.119466 -0.477879,-0.23894 -0.724065,-0.362029 3.512161,-3.808496 7.68186,-6.14581 13.033088,-5.430454 z"
       fill="#4a8653"
       id="path351"
       style="stroke-width:0.36203" />
    <path
       d="m 51.426403,20.970906 c 0.716813,0.179205 0.716813,0.179205 1.448116,0.362029 -0.05049,1.410505 -0.104127,2.820868 -0.158381,4.231229 -0.02135,0.598867 -0.02135,0.598867 -0.0431,1.209832 -0.01519,0.386177 -0.03038,0.772354 -0.04597,1.170234 -0.01368,0.35453 -0.02654,0.70906 -0.04023,1.074334 -0.07143,0.964958 -0.22484,1.870049 -0.436352,2.813248 -0.981443,-1.116838 -1.220691,-1.80127 -1.204887,-3.280899 0.0014,-0.348143 0.0041,-0.696286 0.0055,-1.054979 0.0068,-0.36121 0.01492,-0.72242 0.02258,-1.094575 0.0014,-0.36121 0.0041,-0.72242 0.0055,-1.094576 0.03106,-2.899366 0.03106,-2.899366 0.446888,-4.335877 z"
       fill="#3a7742"
       id="path359"
       style="stroke-width:0.36203" />
    <path
       d="m 60.839193,85.050253 c -0.238933,0.47788 -0.477879,0.95576 -0.724065,1.448121 -1.681015,-0.152821 -3.225815,-0.526367 -4.842151,-1.018209 -0.376146,-0.114336 -0.752279,-0.228674 -1.139824,-0.346475 -0.896594,-0.445466 -0.896594,-0.445466 -1.204887,-1.219024 -0.01779,-0.222605 -0.03544,-0.445212 -0.05377,-0.674564 2.452944,-0.81765 5.638668,0.888532 7.96466,1.810151 z"
       fill="#4a8d53"
       id="path385"
       style="stroke-width:0.36203" />
    <path
       d="m 66.269647,36.538205 c -2.290786,2.013116 -4.134452,2.65721 -7.120404,2.643103 -0.902519,-0.116401 -1.508773,-0.380801 -2.292387,-0.832952 0.238947,-0.35841 0.47788,-0.71682 0.724065,-1.08609 0.783463,-0.106071 0.783463,-0.106071 1.674393,-0.06788 0.295868,0.0099 0.59175,0.01959 0.896594,0.02969 0.340202,0.0189 0.340202,0.0189 0.687285,0.03819 0,-0.119467 0,-0.23894 0,-0.362032 2.081668,-0.362029 2.081668,-0.362029 2.896247,-0.362029 0.965406,-0.482702 1.508499,-0.24293 2.534207,0 z"
       fill="#548e59"
       id="path390"
       style="stroke-width:0.36203" />
    <path
       d="m 84.371162,51.743474 c 0.238933,0 0.47788,0 0.724065,0 0.119453,0.358409 0.238933,0.71682 0.362026,1.086091 -2.256619,2.883458 -4.807834,5.429316 -8.603877,5.922588 -0.899413,0.0056 -0.899413,0.0056 -2.25703,-0.130098 0,-0.119467 0,-0.23894 0,-0.36203 0.366815,-0.0721 0.366815,-0.0721 0.741032,-0.145662 0.484407,-0.0959 0.484407,-0.0959 0.978611,-0.193742 0.319211,-0.063 0.638423,-0.126007 0.967294,-0.190914 0.462022,-0.0959 0.462022,-0.0959 0.933361,-0.193743 0.271143,-0.05413 0.542286,-0.108274 0.821639,-0.164045 0.20675,-0.06534 0.413487,-0.130673 0.626491,-0.197985 0.247937,-0.479356 0.488265,-0.962671 0.724051,-1.44812 0.594802,-0.493248 1.19769,-0.976993 1.810156,-1.448122 0.119453,-0.23894 0.238947,-0.47788 0.362026,-0.72406 0.238946,0 0.47788,0 0.724065,0 0.112064,-0.231473 0.224005,-0.462946 0.339407,-0.701434 0.384658,-0.746687 0.384658,-0.746687 0.746683,-1.108717 z"
       fill="#508a59"
       id="path398"
       style="stroke-width:0.36203" />
    <path
       d="m 70.976035,14.092332 c 1.810566,1.810567 1.513576,4.903372 1.515998,7.308485 3.01e-4,0.27954 5.88e-4,0.559082 8.89e-4,0.847095 -0.01491,1.542169 -0.128073,2.997043 -0.430796,4.515478 -0.358414,0 -0.716827,0 -1.086091,0 0,-4.18145 0,-8.362898 0,-12.671058 z"
       fill="#538b59"
       id="path405"
       style="stroke-width:0.36203" />
    <path
       d="m 27.170383,60.432199 c 0.358413,0.119467 0.716813,0.23894 1.086091,0.36203 -0.314546,0.280008 -0.629078,0.560016 -0.95316,0.848509 -5.080866,4.458675 -5.080866,4.458675 -7.053398,10.73964 -0.04639,1.690281 -0.01478,3.375596 0.04187,5.065242 -0.238947,-0.119466 -0.47788,-0.23894 -0.724065,-0.362031 -0.11658,-3.442067 -0.0862,-6.481271 1.086091,-9.774816 0.238946,0 0.477879,0 0.724065,0 0.02244,-0.26134 0.04474,-0.522681 0.06787,-0.791941 0.386601,-1.338242 1.05737,-1.934649 2.1043,-2.828361 0.238933,0 0.47788,0 0.724051,0 0.119453,-0.35841 0.238947,-0.71682 0.36204,-1.08609 0.238933,0 0.47788,0 0.724051,0 0.238947,-0.47788 0.47788,-0.95576 0.724065,-1.448121 0.358413,0 0.716827,0 1.086091,0 0,-0.23894 0,-0.47788 0,-0.724061 z"
       fill="#d8f1db"
       id="path416"
       style="stroke-width:0.36203" />
    <path
       d="m 48.4241,81.999868 c 0.556516,0.0203 0.556516,0.0203 1.12428,0.04101 0.384999,0.01259 0.770012,0.0252 1.166697,0.03819 1.100649,0.07686 2.167625,0.197446 3.245533,0.436981 0,0.23894 0,0.47788 0,0.724061 -0.3584,0.179204 -0.3584,0.179204 -0.724051,0.36203 0.47788,0.23894 0.95576,0.47788 1.448116,0.724061 -2.783635,-0.186104 -5.556638,-0.389745 -8.3267,-0.724061 0.601233,-1.047498 0.844202,-1.410073 2.066125,-1.602267 z"
       fill="#408548"
       id="path431"
       style="stroke-width:0.36203" />
    <path
       d="m 16.399989,31.447155 c 0.322947,0.0033 0.645881,0.0066 0.978611,0.0099 0.244543,0.0042 0.489086,0.0083 0.741032,0.01272 -0.96932,0.759568 -1.673271,1.229734 -2.896246,1.448122 0.836293,0.119466 1.672586,0.23894 2.53422,0.362029 0,0.119467 0,0.23894 0,0.36203 -2.150466,0.119467 -4.300919,0.23894 -6.516544,0.362031 -0.238947,0.47788 -0.47788,0.95576 -0.724065,1.448121 -0.119453,0.23894 -0.238933,0.47788 -0.362026,0.724061 -0.2389467,0 -0.4778797,0 -0.7240649,0 0.4843382,-1.997895 1.9956019,-3.204004 3.6202979,-4.344363 1.117671,-0.404982 2.167064,-0.400207 3.348785,-0.384657 z"
       fill="#4a8c52"
       id="path434"
       style="stroke-width:0.36203" />
    <path
       d="m 25.360227,15.178423 c 0.597347,0 1.194693,0 1.810156,0 -0.200251,1.458956 -0.418441,2.903565 -0.724065,4.344362 -0.238947,0 -0.47788,0 -0.724065,0 0,0.95576 0,1.91152 0,2.896242 -0.119453,0 -0.238933,0 -0.362026,0 -0.119453,0.59735 -0.238933,1.1947 -0.362025,1.810151 -0.119453,0 -0.238947,0 -0.36204,0 -0.01957,-1.101263 -0.03393,-2.202172 -0.04529,-3.303526 -0.0096,-0.464813 -0.0096,-0.464813 -0.01834,-0.939016 -0.01368,-1.754805 0.101391,-3.159918 0.787705,-4.808213 z"
       fill="#4c8955"
       id="path467"
       style="stroke-width:0.36203" />
    <path
       d="m 67.717763,45.950991 c 0.119453,0 0.238933,0 0.362026,0 0.04474,0.388278 0.08962,0.776554 0.135735,1.176598 0.168042,1.418611 0.168042,1.418611 0.950328,2.805735 0.119453,-1.314171 0.238947,-2.62834 0.362039,-3.982333 0.119453,0 0.238933,0 0.362026,0 0.119453,2.150459 0.238933,4.300919 0.362026,6.516544 -0.238933,0 -0.47788,0 -0.724052,0 0.238933,0.836289 0.47788,1.672579 0.724052,2.534211 -0.238933,0.119466 -0.47788,0.23894 -0.724052,0.362031 -1.479094,-3.227588 -2.071529,-5.864001 -1.810155,-9.412786 z"
       fill="#599661"
       id="path470"
       style="stroke-width:0.36203" />
    <path
       d="m 48.507539,42.964241 c 0.420247,0.0066 0.840494,0.013 1.273466,0.0198 1.031495,0.01698 2.062347,0.04073 3.093528,0.07071 0.179207,0.537615 0.179207,0.537615 0.362026,1.086091 -0.395741,-0.05974 -0.791495,-0.119467 -1.199222,-0.181016 -4.214675,-0.496279 -7.671734,-0.0031 -11.471841,1.991166 0,-0.23894 0,-0.47788 0,-0.72406 0.238947,0 0.47788,0 0.724065,0 0,-0.23894 0,-0.477879 0,-0.72406 2.333053,-1.720163 4.389668,-1.62224 7.217978,-1.538629 z"
       fill="#def7e0"
       id="path511"
       style="stroke-width:0.36203" />
    <path
       d="m 14.86136,31.831812 c 4.171176,-0.200395 4.171176,-0.200395 6.154518,1.086091 -0.119453,0.47788 -0.238947,0.95576 -0.362039,1.44812 -1.792039,-0.358409 -3.584092,-0.71682 -5.430453,-1.08609 -0.119453,-0.47788 -0.238934,-0.95576 -0.362026,-1.448121 z"
       fill="#3b7f43"
       id="path512"
       style="stroke-width:0.36203" />
    <path
       d="m 31.876771,8.6618782 c 0.821529,-0.048835 1.64388,-0.083973 2.466326,-0.1131314 0.686724,-0.031498 0.686724,-0.031498 1.387322,-0.06364 1.21478,0.1767724 1.21478,0.1767724 1.920455,1.043665 0.380415,0.9432592 0.380415,0.9432592 0.380415,1.6673192 -0.418153,-0.119467 -0.836293,-0.23894 -1.267117,-0.36203 -1.547674,-0.392447 -2.933751,-0.418875 -4.525375,-0.36203 0.238947,-0.358411 0.47788,-0.7168198 0.724065,-1.0860906 C 32.604449,9.1470005 32.246035,8.9080605 31.876771,8.6618782 Z"
       fill="#3c8344"
       id="path516"
       style="stroke-width:0.36203" />
    <path
       d="m 14.661957,31.072396 c 0.306842,0.0012 0.613684,0.0023 0.929831,0.0036 0.478454,0.0045 0.478454,0.0045 0.966583,0.0092 0.484762,0.0025 0.484762,0.0025 0.979322,0.0049 0.797392,0.0042 1.59473,0.01026 2.392081,0.01768 0.119453,0.23894 0.238947,0.47788 0.362039,0.724061 0.716416,0.263174 1.440714,0.506177 2.172182,0.724061 0,0.23894 0,0.47788 0,0.72406 0.238933,0 0.477879,0 0.724051,0 -0.119453,0.35841 -0.238933,0.71682 -0.362026,1.08609 -0.282103,-0.183404 -0.282103,-0.183404 -0.569912,-0.370514 -2.848013,-1.821462 -5.126443,-2.704688 -8.554385,-1.999652 -0.584991,0.166465 -1.162141,0.360201 -1.73661,0.560016 0,-0.35841 0,-0.71682 0,-1.086091 1.022424,-0.340806 1.639707,-0.40448 2.696844,-0.397385 z"
       fill="#e6fae8"
       id="path555"
       style="stroke-width:0.36203" />
    <path
       d="m 84.009123,32.917903 c 0.119453,0.23894 0.238933,0.47788 0.362026,0.724061 0.358413,-0.119467 0.716826,-0.23894 1.08609,-0.362031 1.756532,2.459144 2.274394,4.276479 2.172182,7.240605 -0.656731,-0.985102 -0.975286,-1.747636 -1.357603,-2.850989 -0.68693,-1.779741 -1.423227,-2.59951 -2.98676,-3.665555 0.238947,-0.119467 0.47788,-0.23894 0.724065,-0.36203 0,-0.23894 0,-0.47788 0,-0.724061 z"
       fill="#408848"
       id="path559"
       style="stroke-width:0.36203" />
    <path
       d="m 44.909859,18.798724 c 0.119453,0 0.238933,0 0.362026,0 0.878341,3.194431 1.232403,6.102002 1.08609,9.412786 -0.358399,0 -0.716813,0 -1.08609,0 -0.131631,-1.432746 -0.258568,-2.865867 -0.384658,-4.299108 -0.03763,-0.408346 -0.07512,-0.81669 -0.113842,-1.237409 -0.0338,-0.389678 -0.06773,-0.779355 -0.102486,-1.18084 -0.03229,-0.36022 -0.06445,-0.720438 -0.0977,-1.091571 -0.02531,-0.879797 -0.02531,-0.879797 0.336657,-1.603858 z"
       fill="#5b8f60"
       id="path560"
       style="stroke-width:0.36203" />
    <path
       d="m 34.773018,52.829565 c 0.358413,0.119466 0.716813,0.23894 1.08609,0.362029 -0.119453,0.33601 -0.238947,0.672019 -0.362025,1.018211 -0.416225,1.125115 -0.416225,1.125115 -0.36204,2.240061 -0.597346,0 -1.194693,0 -1.810142,0 -0.238947,0.71682 -0.47788,1.43364 -0.724065,2.172182 -1.08609,0 -1.08609,0 -1.810155,-0.36203 0.196474,-0.210006 0.392949,-0.420012 0.595376,-0.636381 1.395696,-1.523955 2.599475,-2.874569 3.386961,-4.794072 z"
       fill="#4b8854"
       id="path563"
       style="stroke-width:0.36203" />
    <path
       d="m 24.274137,19.884815 c 0.119452,0 0.238933,0 0.362025,0 0.04392,0.402278 0.08771,0.804555 0.132999,1.219024 0.321798,2.880351 0.661958,5.727486 1.315186,8.555792 -0.358413,0 -0.716827,0 -1.086091,0 -1.510278,-2.732002 -1.493503,-6.793255 -0.724065,-9.774816 z"
       fill="#ebfced"
       id="path564"
       style="stroke-width:0.36203" />
    <path
       d="m 51.064377,19.884815 c 0.119453,0 0.238934,0 0.362026,0 -0.119453,3.464628 -0.238933,6.929258 -0.362026,10.498877 -0.798432,-1.197657 -0.816836,-1.581247 -0.820229,-2.975437 -9.3e-4,-0.367276 -0.0014,-0.734553 -0.0027,-1.11296 0.0027,-0.383144 0.0055,-0.766287 0.0082,-1.161042 -0.0027,-0.383144 -0.0055,-0.766288 -0.0082,-1.161043 0.0014,-0.550914 0.0014,-0.550914 0.0027,-1.11296 8.21e-4,-0.336242 0.0014,-0.672485 0.0027,-1.018916 0.09373,-0.870428 0.09373,-0.870428 0.817752,-1.956519 z"
       fill="#d0e7d1"
       id="path565"
       style="stroke-width:0.36203" />
    <path
       d="m 58.667012,86.498375 c 0.440539,0.05974 0.881092,0.119467 1.334985,0.181016 3.044639,0.336689 6.14609,0.380435 9.163896,-0.181016 -0.238947,0.47788 -0.47788,0.95576 -0.724065,1.448121 -3.442062,0.116606 -6.481269,0.08619 -9.774816,-1.086091 0,-0.119467 0,-0.23894 0,-0.36203 z"
       fill="#e9fae9"
       id="path590"
       style="stroke-width:0.36203" />
    <path
       d="m 25.360227,82.878072 c 0.882227,0.346365 1.754343,0.698021 2.613405,1.098819 2.484291,1.11878 4.816399,1.350533 7.523437,1.435392 0,0.119467 0,0.23894 0,0.362031 -5.817204,0.57965 -5.817204,0.57965 -6.855938,-0.09051 -0.36962,-0.31361 -0.36962,-0.31361 -0.746697,-0.633553 -0.833461,-0.50442 -1.68315,-0.973492 -2.534207,-1.448121 0,-0.238939 0,-0.477879 0,-0.72406 z"
       fill="#3d8c48"
       id="path591"
       style="stroke-width:0.36203" />
    <path
       d="m 27.532409,40.158508 c 0.358413,0.119466 0.716813,0.23894 1.08609,0.36203 1.205421,2.643973 1.220308,5.478261 1.086091,8.326695 0.238933,0.119467 0.47788,0.23894 0.724065,0.36203 -0.321401,1.33915 -0.704444,2.659294 -1.086091,3.982333 -0.238947,0 -0.47788,0 -0.724065,0 0.05733,-0.298208 0.114801,-0.596418 0.173939,-0.903662 0.634509,-4.279357 0.310304,-8.098421 -1.260029,-12.129426 z"
       fill="#dbf1dc"
       id="path592"
       style="stroke-width:0.36203" />
    <path
       d="m 37.307224,9.0239079 c 2.050061,1.0250311 3.314824,2.1676781 4.706389,3.9823331 -1.456983,0 -2.338636,-0.399483 -3.620298,-1.086091 -1.086091,-1.716724 -1.086091,-1.716724 -1.086091,-2.8962421 z"
       fill="#4d8654"
       id="path607"
       style="stroke-width:0.36203" />
    <path
       d="m 69.527919,52.829565 c 0.686477,0.849917 1.112567,1.520197 1.49338,2.556838 0.989296,1.549906 2.201791,1.754099 3.937073,2.149554 0.720754,0.139092 1.444094,0.268686 2.172181,0.362031 0,0.119467 0,0.23894 0,0.36203 -2.473673,0.158456 -4.193493,0.267771 -6.154518,-1.448121 -0.216534,-0.149337 -0.433068,-0.298675 -0.65617,-0.452538 -0.728279,-1.073244 -0.687339,-2.253562 -0.791946,-3.529794 z"
       fill="#477e4c"
       id="path622"
       style="stroke-width:0.36203" />
    <path
       d="m 45.633924,24.591207 c 0.119453,0 0.238933,0 0.362026,0 0.200401,6.115755 0.200401,6.115755 -1.086091,8.688726 -0.238933,0 -0.47788,0 -0.724051,0 0.222691,-1.813374 0.460406,-3.622591 0.724051,-5.430454 0.119453,0 0.238947,0 0.362039,0 0.119453,-1.07523 0.238934,-2.150459 0.362026,-3.258272 z"
       fill="#4f8755"
       id="path623"
       style="stroke-width:0.36203" />
    <path
       d="m 25.722267,54.277685 c 0.238933,0 0.477879,0 0.724065,0 -0.119453,0.836289 -0.238947,1.67258 -0.36204,2.534211 -0.410669,0.112009 -0.821351,0.224006 -1.244472,0.339404 -1.212891,0.250432 -1.212891,0.250432 -1.65176,0.746687 -0.550031,0.026 -1.101183,0.03038 -1.651761,0.02263 -0.299152,-0.0033 -0.598291,-0.0066 -0.906501,-0.0099 -0.230997,-0.0042 -0.462008,-0.0083 -0.70001,-0.01273 0.915518,-0.610353 1.686132,-0.992138 2.692601,-1.402867 1.304978,-0.56346 2.144022,-1.14682 3.099878,-2.21738 z"
       fill="#3f8246"
       id="path633"
       style="stroke-width:0.36203" />
    <path
       d="m 53.598584,14.816391 c 0.238934,0.23894 0.47788,0.47788 0.724065,0.724061 -0.176907,2.063822 -1.228366,3.97744 -2.172181,5.792483 -0.238947,-0.119466 -0.47788,-0.23894 -0.724065,-0.362029 0.401624,-2.282953 1.061461,-4.118202 2.172181,-6.154515 z"
       fill="#4f8755"
       id="path639"
       style="stroke-width:0.36203" />
    <path
       d="m 68.441828,44.140839 c 0.848198,0.899408 1.078784,1.367503 1.192148,2.619063 -0.01232,0.420011 -0.02518,0.840023 -0.03818,1.272762 -0.0096,0.423745 -0.01957,0.84749 -0.02969,1.284076 -0.01232,0.322942 -0.02518,0.645885 -0.03818,0.978614 -0.48271,0 -0.96542,0 -1.448116,0 -0.0096,-0.822088 -0.01683,-1.644207 -0.02258,-2.466331 -0.0068,-0.68672 -0.0068,-0.68672 -0.01232,-1.387312 0.0353,-1.214781 0.0353,-1.214781 0.397383,-2.300872 z"
       fill="#3c7b45"
       id="path647"
       style="stroke-width:0.36203" />
    <path
       d="m 51.064377,43.77881 c 0.119453,0.238939 0.238934,0.477879 0.362026,0.72406 -0.119453,0.23894 -0.238933,0.47788 -0.362026,0.72406 -3.046486,0.179205 -3.046486,0.179205 -6.154518,0.362031 1.581334,-1.581331 1.800824,-1.636003 3.891824,-1.719644 0.42375,-0.02054 0.8475,-0.04106 1.284084,-0.06222 0.322933,-0.0093 0.64588,-0.01866 0.97861,-0.02828 z"
       fill="#388444"
       id="path648"
       style="stroke-width:0.36203" />
    <path
       d="m 27.532409,84.688224 c 0.380812,0.257607 0.380812,0.257607 0.769314,0.520419 1.099062,0.597312 1.9791,0.784223 3.213023,0.927701 0,0.119467 0,0.23894 0,0.362031 1.194692,0.119467 2.389399,0.23894 3.620297,0.36203 0,0.119466 0,0.23894 0,0.36203 -2.899667,0.109957 -5.318458,0.184087 -7.96466,-1.086091 0.119453,-0.47788 0.238933,-0.95576 0.362026,-1.44812 z"
       fill="#5d9163"
       id="path711"
       style="stroke-width:0.36203" />
    <path
       d="m 8.7068411,42.692719 c 0.2389331,0 0.4778799,0 0.724065,0 0.1219162,0.640871 0.2422582,1.282021 0.3620252,1.923285 0.06718,0.35701 0.134368,0.714021 0.203645,1.081848 0.2092137,1.290777 0.1583807,2.568253 0.1583807,3.873441 C 8.9442007,47.755152 8.2694493,45.739057 8.4579467,43.55254 8.5400449,43.268799 8.6222115,42.985058 8.7068411,42.692719 Z"
       fill="#508955"
       id="path713"
       style="stroke-width:0.36203" />
    <path
       d="m 57.580921,9.3859391 c 0.358414,0.1194665 0.716813,0.2389399 1.086091,0.3620297 -0.327613,0.2821082 -0.327613,0.2821082 -0.661834,0.5699142 -1.483528,1.294494 -2.888543,2.528112 -4.044554,4.13648 0,-0.597351 0,-1.1947 0,-1.810152 0.238933,0 0.47788,0 0.724051,0 0.03366,-0.313608 0.03366,-0.313608 0.06787,-0.633553 0.482299,-1.335569 1.589558,-2.005318 2.828365,-2.6247189 z"
       fill="#e1f7e5"
       id="path722"
       style="stroke-width:0.36203" />
    <path
       d="m 49.073209,83.91891 c 0.332279,0.0033 0.664557,0.0066 1.006893,0.0099 0.810898,0.0085 1.62159,0.02029 2.432392,0.03536 0,0.119466 0,0.23894 0,0.36203 -0.457807,0.01773 -0.915628,0.03547 -1.387309,0.05373 -0.601041,0.02716 -1.202055,0.05451 -1.803082,0.08202 -0.301711,0.01122 -0.603421,0.0224 -0.914273,0.03395 -0.290504,0.014 -0.581008,0.028 -0.880325,0.04243 -0.267311,0.01136 -0.534637,0.02276 -0.810049,0.03447 -0.834993,0.08225 -0.834993,0.08225 -1.807597,0.839493 -0.739609,0.07071 -0.739609,0.07071 -1.515998,0.04525 -0.683221,-0.0224 -0.683221,-0.0224 -1.380235,-0.04525 0.119453,-0.23894 0.238934,-0.47788 0.362026,-0.72406 2.258289,-0.74068 4.336262,-0.813932 6.697557,-0.769315 z"
       fill="#d0ead2"
       id="path731"
       style="stroke-width:0.36203" />
    <path
       d="m 65.907621,57.897988 c 1.710365,0.316734 3.256192,1.159677 4.344363,2.534211 0,0.358411 0,0.71682 0,1.086091 0.47788,0.119466 0.95576,0.23894 1.448116,0.362031 -0.119453,0.358409 -0.238933,0.71682 -0.362026,1.086091 -3.822341,-3.406714 -3.822341,-3.406714 -5.430453,-5.068424 z"
       fill="#dcf4dd"
       id="path733"
       style="stroke-width:0.36203" />
    <path
       d="m 86.543344,50.295354 c 0.248894,0.610925 0.248894,0.610925 0.362025,1.44812 -0.709273,1.384002 -1.599738,2.431409 -2.692601,3.529795 -0.275796,0.281875 -0.551605,0.563749 -0.835774,0.854165 -0.79746,0.668922 -1.248768,0.907724 -2.264104,1.046493 0.380813,-0.36961 0.380813,-0.36961 0.769315,-0.746687 1.878927,-1.889571 3.409182,-3.77243 4.661139,-6.131886 z"
       fill="#dff5e1"
       id="path734"
       style="stroke-width:0.36203" />
    <path
       d="m 81.11289,57.173927 c 0,0.23894 0,0.47788 0,0.724061 -2.723703,1.334059 -5.370138,1.190031 -8.326699,1.086091 -0.238933,-0.47788 -0.47788,-0.95576 -0.724052,-1.448122 0.526414,0.179205 0.526414,0.179205 1.063459,0.362031 3.253032,0.913479 5.055443,-0.724061 7.987292,-0.724061 z"
       fill="#e0f5e0"
       id="path743"
       style="stroke-width:0.36203" />
    <path
       d="m 73.872281,65.862653 c 1.086091,0.362029 1.086091,0.362029 1.600847,1.16387 0.158682,0.325276 0.31735,0.650552 0.480821,0.985685 0.162404,0.324341 0.324822,0.648683 0.492138,0.982855 0.106454,0.280474 0.212812,0.560948 0.322441,0.849922 -0.119453,0.23894 -0.238947,0.47788 -0.36204,0.72406 -1.437922,-1.486303 -2.428765,-2.544958 -2.534207,-4.706392 z"
       fill="#508657"
       id="path757"
       style="stroke-width:0.36203" />
    <path
       d="m 67.717763,32.193842 c 0.119453,0.358409 0.238933,0.71682 0.362026,1.086091 -0.475157,0.791941 -0.475157,0.791941 -1.086091,1.44812 -0.238933,0 -0.47788,0 -0.724051,0 0,0.597351 0,1.1947 0,1.810152 -0.836293,0 -1.672587,0 -2.534221,0 0.253875,-0.246407 0.50775,-0.492814 0.769315,-0.746688 1.141972,-1.138695 2.177381,-2.362732 3.213022,-3.597675 z m -4.706388,4.344363 c 0.358399,0.179205 0.358399,0.179205 0.724051,0.362029 -0.3584,0.179206 -0.3584,0.179206 -0.724051,0.362032 0,-0.23894 0,-0.47788 0,-0.724061 z"
       fill="#3d8244"
       id="path759"
       style="stroke-width:0.36203" />
    <path
       d="m 28.256474,42.330689 c 0.706564,1.059849 0.856393,1.478795 0.995577,2.692601 0.03544,0.275807 0.07101,0.551615 0.107549,0.83578 -0.01943,0.935804 -0.268544,1.466336 -0.741032,2.264102 -0.693744,-1.803742 -0.924878,-3.521412 -1.086091,-5.430453 0.238947,-0.119467 0.47788,-0.23894 0.724065,-0.36203 z"
       fill="#5a915f"
       id="path775"
       style="stroke-width:0.36203" />
    <path
       d="m 52.512494,33.641964 c 0.358413,0 0.716813,0 1.08609,0 0,0.358409 0,0.71682 0,1.08609 0.201606,0.07467 0.403212,0.149338 0.61092,0.22627 1.172089,0.696911 1.808282,1.597822 2.647352,2.669973 -0.358413,0.179204 -0.358413,0.179204 -0.724065,0.362029 -1.663542,-1.285263 -2.811001,-2.344907 -3.620297,-4.344362 z"
       fill="#508856"
       id="path777"
       style="stroke-width:0.36203" />
    <path
       d="m 28.980539,9.7479688 c 0.238933,0.1194666 0.477879,0.23894 0.724065,0.3620302 -0.731824,1.656209 -1.563957,2.758061 -2.896247,3.982333 -0.238933,-0.119467 -0.47788,-0.23894 -0.724065,-0.36203 0.277177,-0.461224 0.556708,-0.92103 0.837197,-1.38024 0.155411,-0.256208 0.31081,-0.512415 0.470928,-0.776387 0.474897,-0.699649 0.970511,-1.251565 1.588122,-1.8257062 z"
       fill="#478652"
       id="path780"
       style="stroke-width:0.36203" />
    <path
       d="m 35.497083,50.295354 c 0.238933,0 0.477879,0 0.724065,0 -0.472024,1.593063 -1.090702,2.881906 -1.991169,4.276482 -0.220269,0.345809 -0.440553,0.691618 -0.667499,1.047907 -0.599604,0.830125 -0.599604,0.830125 -1.323669,1.192154 0,-0.35841 0,-0.716819 0,-1.08609 0.238946,0 0.477879,0 0.724065,0 0.03681,-0.196006 0.07375,-0.392011 0.11179,-0.593956 0.314586,-1.073543 0.813155,-1.960257 1.359026,-2.93584 0.29751,-0.534813 0.29751,-0.534813 0.601027,-1.080432 0.152593,-0.270675 0.3052,-0.541349 0.462432,-0.820225 z"
       fill="#def5e1"
       id="path789"
       style="stroke-width:0.36203" />
    <path
       d="m 71.7001,35.452114 c 0.358413,0.119467 0.716813,0.23894 1.086091,0.36203 -0.140005,0.175472 -0.28001,0.350944 -0.424256,0.531732 -1.306032,1.681043 -2.299667,3.330093 -3.196042,5.260752 -0.338231,-1.089826 -0.378144,-1.399792 0,-2.534212 0.238933,0 0.47788,0 0.724051,0 0,-0.47788 0,-0.95576 0,-1.448121 0.238947,0 0.47788,0 0.724065,0 0.06718,-0.336008 0.06718,-0.336008 0.135736,-0.678807 0.226263,-0.769313 0.226263,-0.769313 0.950328,-1.493374 z"
       fill="#e0f6e1"
       id="path791"
       style="stroke-width:0.36203" />
    <path
       d="m 76.044463,68.396864 c 1.08609,0.362029 1.08609,0.362029 1.448116,1.08609 0.03065,0.630093 0.03886,1.261349 0.0353,1.892173 -0.0014,0.560017 -0.0014,0.560017 -0.0041,1.131345 -0.0027,0.391077 -0.0055,0.782155 -0.0096,1.185083 -0.0014,0.393879 -0.0027,0.787756 -0.0055,1.193568 -0.0041,0.974863 -0.0096,1.949685 -0.01765,2.924527 -0.238933,0.119466 -0.47788,0.23894 -0.724051,0.36203 0.0041,-0.206068 0.0082,-0.412137 0.01095,-0.62445 0.01519,-0.945804 0.02449,-1.891584 0.0338,-2.837464 0.0055,-0.324109 0.01232,-0.648219 0.01834,-0.982149 0.01409,-1.927995 -0.152429,-3.507463 -0.787704,-5.330753 z"
       fill="#dbf2de"
       id="path813"
       style="stroke-width:0.36203" />
    <path
       d="m 41.289561,46.313021 c 0.597347,0 1.194693,0 1.810156,0 -1.094328,1.178496 -2.265294,2.03396 -3.620311,2.896242 -0.3584,-0.23894 -0.716813,-0.47788 -1.086091,-0.724061 0.805,-0.925742 1.357685,-1.173596 2.534221,-1.44812 0.119453,-0.23894 0.238933,-0.47788 0.362025,-0.724061 z"
       fill="#408e4a"
       id="path826"
       style="stroke-width:0.36203" />
    <path
       d="m 82.561007,31.107751 c 0,0.119467 0,0.23894 0,0.36203 -0.253875,0.0093 -0.50775,0.01866 -0.769315,0.02828 -2.381997,0.142402 -4.064599,0.575109 -6.109255,1.781867 -0.481177,0.244393 -0.963518,0.48655 -1.44813,0.724061 0,-0.23894 0,-0.47788 0,-0.724061 0.238947,0 0.47788,0 0.724065,0 0.119453,-0.35841 0.238947,-0.71682 0.362026,-1.08609 2.291908,-1.406397 4.62024,-1.192482 7.240609,-1.086091 z"
       fill="#eafdeb"
       id="path828"
       style="stroke-width:0.36203" />
    <path
       d="m 70.251984,29.297601 c 0.238933,0 0.47788,0 0.724065,0 -0.511527,1.747694 -1.241681,3.155541 -2.172182,4.706393 -0.119452,0 -0.238946,0 -0.362039,0 -0.116853,-1.674786 0.05624,-2.635674 1.086091,-3.982332 0.238947,0 0.47788,0 0.724065,0 0,-0.23894 0,-0.47788 0,-0.724061 z"
       fill="#528a57"
       id="path829"
       style="stroke-width:0.36203" />
    <path
       d="m 72.424165,18.798724 c 0.119453,0 0.238933,0 0.362026,0 0.08073,1.101016 0.155193,2.201883 0.226276,3.303526 0.0234,0.309876 0.04666,0.61975 0.07074,0.939016 0.108507,1.763735 0.111517,3.167488 -0.659002,4.808213 -0.238933,0.119467 -0.47788,0.23894 -0.724065,0.362031 0.238947,-3.106219 0.47788,-6.212438 0.724065,-9.412786 z"
       fill="#d9f1db"
       id="path830"
       style="stroke-width:0.36203" />
    <path
       d="m 69.165893,10.83406 c 0.358413,0 0.716813,0 1.086091,0 0.295047,0.5803 0.588986,1.161165 0.882446,1.74227 0.163813,0.323409 0.327613,0.646819 0.496379,0.980028 0.757082,1.576229 0.826113,2.7819 0.793356,4.518307 -0.520913,-0.986182 -0.899796,-1.942795 -1.221854,-3.009377 -0.50151,-1.553403 -1.180531,-2.844104 -2.036418,-4.231228 z"
       fill="#dbf0dc"
       id="path843"
       style="stroke-width:0.36203" />
    <path
       d="m 12.689178,51.743474 c 1.091934,0.404421 1.681659,0.945831 2.398445,1.832778 0.740785,1.06645 0.740785,1.06645 1.583893,1.425494 0,0.23894 0,0.47788 0,0.724061 -0.836294,-0.119467 -1.672587,-0.23894 -2.534221,-0.362031 0,-0.597349 0,-1.1947 0,-1.81015 -0.238933,0 -0.47788,0 -0.724051,0 -0.238948,-0.597351 -0.477881,-1.1947 -0.724066,-1.810152 z"
       fill="#3d8b45"
       id="path854"
       style="stroke-width:0.36203" />
    <path
       d="m 85.457253,33.279933 c 1.658219,1.105476 2.684447,2.436566 3.258272,4.344362 -0.144247,0.814568 -0.144247,0.814568 -0.362026,1.448121 -1.257169,-1.382883 -1.71436,-2.545748 -2.172181,-4.344363 -0.226167,-0.49001 -0.460379,-0.977243 -0.724065,-1.44812 z"
       fill="#55865b"
       id="path857"
       style="stroke-width:0.36203" />
    <path
       d="m 11.241048,34.003994 c 0.716813,0 1.43364,0 2.172182,0 -0.144206,0.149338 -0.288411,0.298674 -0.436982,0.452537 -1.445667,1.575815 -2.177668,2.939794 -2.821291,4.977916 -0.119452,0 -0.2389327,0 -0.3620257,0 0.205697,-1.9748 0.7046497,-3.587935 1.4481167,-5.430453 z"
       fill="#398443"
       id="path858"
       style="stroke-width:0.36203" />
    <path
       d="m 33.77744,8.2319669 c 0.58521,0.014696 0.58521,0.014696 1.182255,0.029692 0.296812,0.012588 0.593611,0.025204 0.899413,0.038189 0,0.1194665 0,0.2389399 0,0.3620311 -0.716813,0.1194666 -1.43364,0.23894 -2.172181,0.3620298 -0.119453,0.3584106 -0.238933,0.7168198 -0.362026,1.0860902 -0.746683,0.248896 -0.746683,0.248896 -1.448116,0.36203 0,-0.358409 0,-0.7168196 0,-1.0860904 -0.597347,0 -1.194707,0 -1.810156,0 C 31.29241,8.2523938 32.134217,8.178385 33.77744,8.2319669 Z"
       fill="#548f5b"
       id="path861"
       style="stroke-width:0.36203" />
    <path
       d="m 55.40874,83.240103 c 0.718127,0.21338 1.43431,0.433342 2.14955,0.65618 0.399011,0.121806 0.798021,0.243607 1.209128,0.369101 0.325273,0.139538 0.650546,0.279075 0.985685,0.42284 0.119453,0.35841 0.238933,0.716819 0.362025,1.08609 -0.836279,-0.119466 -1.672572,-0.23894 -2.534207,-0.36203 -0.119452,-0.35841 -0.238946,-0.716819 -0.362025,-1.08609 -0.59736,-0.119467 -1.194707,-0.23894 -1.810156,-0.36203 0,-0.23894 0,-0.47788 0,-0.724061 z"
       fill="#3f8c49"
       id="path867"
       style="stroke-width:0.36203" />
    <path
       d="m 61.563258,53.553626 c 0.358414,0 0.716813,0 1.086091,0 0.502031,0.59537 0.502031,0.59537 0.972959,1.38024 0.158204,0.256206 0.316407,0.512414 0.479399,0.776385 0.357798,0.739617 0.357798,0.739617 0.357798,1.825707 -0.238947,0 -0.47788,0 -0.724065,0 0,-0.35841 0,-0.716819 0,-1.08609 -0.224005,-0.09707 -0.44801,-0.194139 -0.678802,-0.29415 -0.769315,-0.429911 -0.769315,-0.429911 -1.49338,-1.516002 0,-0.35841 0,-0.71682 0,-1.08609 z"
       fill="#518b56"
       id="path868"
       style="stroke-width:0.36203" />
    <path
       d="m 9.4309061,40.520538 c 0.2389332,0 0.4778802,0 0.7240649,0 0,1.314169 0,2.628339 0,3.982332 -0.3584137,0.179204 -0.3584137,0.179204 -0.7240649,0.36203 0,-0.71682 0,-1.433639 0,-2.172181 -0.2389331,0 -0.4778799,0 -0.724065,0 0,-0.47788 0,-0.95576 0,-1.448121 0.2389468,0 0.4778799,0 0.724065,0 0,-0.23894 0,-0.477879 0,-0.72406 z"
       fill="#45914e"
       id="path884"
       style="stroke-width:0.36203" />
    <path
       d="m 56.132805,84.688224 c 1.97126,0.537614 1.97126,0.537614 3.982337,1.08609 0,-0.23894 0,-0.47788 0,-0.724061 0.238933,0.119467 0.47788,0.23894 0.724051,0.362031 -0.358399,0.537615 -0.358399,0.537615 -0.724051,1.086091 -1.654949,-0.198593 -3.140379,-0.513159 -4.706402,-1.086091 0.238947,-0.238939 0.47788,-0.477879 0.724065,-0.72406 z"
       fill="#578d5e"
       id="path903"
       style="stroke-width:0.36203" />
    <path
       d="m 30.428655,58.622048 c 0,1.08609 0,1.08609 -0.497789,1.697016 -0.588302,0.475165 -0.588302,0.475165 -1.312367,0.475165 -0.119453,0.597349 -0.238933,1.1947 -0.362025,1.810152 -0.358414,0.119466 -0.716813,0.23894 -1.086091,0.362029 0,-1.44812 0,-1.44812 0.712749,-2.223091 0.302409,-0.252008 0.604817,-0.504015 0.916394,-0.763659 0.302395,-0.25574 0.604803,-0.51148 0.91638,-0.77497 0.352817,-0.288408 0.352817,-0.288408 0.712749,-0.582642 z"
       fill="#3e7746"
       id="path905"
       style="stroke-width:0.36203" />
    <path
       d="m 69.165893,32.917903 c 0.294144,0.588299 0.294144,0.588299 0.362026,1.44812 -1.40418,2.04609 -1.40418,2.04609 -2.597847,2.416836 -0.217943,0.03874 -0.435873,0.07747 -0.660425,0.117373 0.148406,-0.196472 0.296812,-0.392946 0.44972,-0.595371 0.195065,-0.259007 0.390144,-0.518014 0.591121,-0.78487 0.193204,-0.256208 0.386408,-0.512414 0.585469,-0.776386 0.440211,-0.596455 0.858734,-1.208894 1.269936,-1.825706 z"
       fill="#e0f4e1"
       id="path907"
       style="stroke-width:0.36203" />
    <path
       d="m 43.099717,15.178423 c 0.238933,0 0.47788,0 0.724065,0 1.086091,2.39845 1.086091,2.39845 1.086091,3.620301 -0.238947,0 -0.47788,0 -0.724065,0 0,-0.23894 0,-0.47788 0,-0.724059 -0.47788,-0.119467 -0.95576,-0.23894 -1.448117,-0.362031 0.119453,-0.83629 0.238934,-1.67258 0.362026,-2.534211 z"
       fill="#4f8955"
       id="path908"
       style="stroke-width:0.36203" />
    <path
       d="m 51.426403,43.77881 c 0.358413,0.119466 0.716813,0.238939 1.086091,0.362029 0,0.597351 0,1.1947 0,1.810152 -2.030986,-0.119467 -4.061972,-0.23894 -6.154519,-0.36203 0,-0.119466 0,-0.23894 0,-0.362031 1.55312,0 3.106227,0 4.706402,0 0.119453,-0.47788 0.238934,-0.95576 0.362026,-1.44812 z"
       fill="#499453"
       id="path923"
       style="stroke-width:0.36203" />
    <path
       d="m 33.686927,37.262266 c 0.836293,0.23894 1.672573,0.477879 2.534207,0.72406 0,0.119467 0,0.23894 0,0.36203 0.836293,0.119467 1.672586,0.23894 2.53422,0.36203 0,0.119467 0,0.23894 0,0.362031 -3.822354,0.133601 -3.822354,0.133601 -5.430453,-0.724061 0.119453,-0.35841 0.238933,-0.71682 0.362026,-1.08609 z"
       fill="#66976b"
       id="path924"
       style="stroke-width:0.36203" />
    <path
       d="m 18.119632,31.469782 c 1.720395,-0.156399 2.817364,0.367501 4.344363,1.086091 0,0.23894 0,0.47788 0,0.724061 0.238933,0 0.477879,0 0.724065,0 -0.119453,0.358409 -0.238947,0.71682 -0.36204,1.086091 -0.188073,-0.122272 -0.376133,-0.244541 -0.569912,-0.370516 -1.344672,-0.859995 -2.6174,-1.641514 -4.136476,-2.163697 0,-0.119466 0,-0.23894 0,-0.36203 z"
       fill="#d0ebd2"
       id="path925"
       style="stroke-width:0.36203" />
    <path
       d="m 46.833146,83.579507 c 0.268105,0.0016 0.536211,0.0033 0.812444,0.0049 0.656908,0.0042 1.31379,0.01067 1.970657,0.01768 0,0.119467 0,0.23894 0,0.362031 -0.288397,0.02193 -0.576808,0.04387 -0.873962,0.06647 -2.391438,0.183019 -2.391438,0.183019 -4.760122,0.544459 -0.88246,0.113131 -0.88246,0.113131 -1.96855,-0.610925 1.606648,-0.402453 3.174846,-0.403765 4.819533,-0.384658 z"
       fill="#55885b"
       id="path944"
       style="stroke-width:0.36203" />
    <path
       d="m 68.079802,10.109999 c 1.353581,0.96175 2.045395,1.658498 2.534207,3.258272 -0.882446,-0.271524 -0.882446,-0.271524 -1.810142,-0.724061 -0.248894,-0.746687 -0.248894,-0.746687 -0.362039,-1.448121 -0.238933,-0.119466 -0.47788,-0.238939 -0.724051,-0.362029 0.119453,-0.23894 0.238933,-0.47788 0.362025,-0.724061 z"
       fill="#4e8754"
       id="path949"
       style="stroke-width:0.36203" />
    <path
       d="m 40.565496,36.538205 c 0.358414,0.358409 0.716813,0.716819 1.086091,1.08609 -1.960532,1.11394 -1.960532,1.11394 -3.032009,0.972957 -0.194135,-0.08214 -0.38827,-0.164272 -0.588289,-0.248896 0,-0.23894 0,-0.47788 0,-0.724061 1.254434,-0.179205 1.254434,-0.179205 2.534207,-0.362029 0,-0.23894 0,-0.47788 0,-0.724061 z"
       fill="#4f8956"
       id="path969"
       style="stroke-width:0.36203" />
    <path
       d="m 66.269647,36.538205 c -1.306771,1.191472 -2.217938,1.646021 -3.982337,1.810151 1.79156,-2.32902 1.79156,-2.32902 3.982337,-1.810151 z"
       fill="#518355"
       id="path970"
       style="stroke-width:0.36203" />
    <path
       d="m 44.185808,23.505117 c 0.358413,0 0.716813,0 1.08609,0 0.06992,1.74629 -0.08785,3.075978 -0.724065,4.706392 -0.119452,0 -0.238933,0 -0.362025,0 0,-1.553109 0,-3.106219 0,-4.706392 z"
       fill="#47944e"
       id="path992"
       style="stroke-width:0.36203" />
    <path
       d="m 27.532409,43.77881 c 0.238933,0.238939 0.477879,0.477879 0.724065,0.72406 -0.0068,1.056956 -0.05049,2.071891 -0.135736,3.122511 -0.02052,0.290274 -0.04105,0.580549 -0.06226,0.87962 -0.05131,0.717714 -0.107275,1.435089 -0.164046,2.152382 -0.119453,0 -0.238933,0 -0.362025,0 -0.07019,-1.078444 -0.137693,-2.15694 -0.203645,-3.235644 -0.02025,-0.307775 -0.04064,-0.61555 -0.06157,-0.932652 -0.02627,-0.439262 -0.02627,-0.439262 -0.05295,-0.887399 -0.0171,-0.271112 -0.03407,-0.542223 -0.05172,-0.82155 0.0082,-0.639299 0.0082,-0.639299 0.369894,-1.001328 z"
       fill="#499750"
       id="path1016"
       style="stroke-width:0.36203" />
    <path
       d="m 45.99595,43.054749 c 0,0.119466 0,0.23894 0,0.362029 -0.95576,0.119467 -1.91152,0.23894 -2.896247,0.362032 -0.119452,0.358409 -0.238933,0.716819 -0.362025,1.08609 -1.108723,0.610926 -1.108723,0.610926 -2.172182,1.086091 0,-0.23894 0,-0.47788 0,-0.724061 0.238947,0 0.47788,0 0.724065,0 0,-0.23894 0,-0.47788 0,-0.724061 1.669002,-1.068162 2.666454,-1.647139 4.706389,-1.44812 z"
       fill="#ebfbec"
       id="path1017"
       style="stroke-width:0.36203" />
    <path
       d="m 20.653839,73.465287 c 0.358413,0 0.716813,0 1.086091,0 0.09058,2.398451 0.09058,2.398451 -0.724065,3.620302 -0.362026,-0.36203 -0.362026,-0.36203 -0.397383,-1.110132 0.0041,-0.298208 0.0082,-0.596416 0.01232,-0.90366 0.0027,-0.299143 0.0068,-0.598284 0.0096,-0.90649 0.0041,-0.231007 0.0082,-0.462013 0.01232,-0.70002 z"
       fill="#428e4c"
       id="path1037"
       style="stroke-width:0.36203" />
    <path
       d="m 24.636176,24.229178 c 0.119453,0 0.238933,0 0.362026,0 0.358413,1.792049 0.716826,3.584099 1.08609,5.430453 -0.358399,0 -0.716813,0 -1.08609,0 -0.306569,-1.839428 -0.394742,-3.565377 -0.362026,-5.430453 z"
       fill="#cde9d0"
       id="path1044"
       style="stroke-width:0.36203" />
    <path
       d="m 11.965113,32.555873 c 0.119453,0.358409 0.238933,0.71682 0.362026,1.086091 -0.3584,0.119466 -0.716813,0.23894 -1.086091,0.36203 -0.422368,0.693891 -0.422368,0.693891 -0.724051,1.448121 -0.119453,0.23894 -0.238947,0.47788 -0.36204,0.72406 -0.2389327,0 -0.4778797,0 -0.7240509,0 0.5045622,-1.605455 1.3054159,-2.488517 2.5342069,-3.620302 z"
       fill="#528658"
       id="path1070"
       style="stroke-width:0.36203" />
    <path
       d="m 58.304986,11.558119 c -0.367293,0.91824 -0.610153,1.373368 -1.448116,1.923286 -0.238947,0.08214 -0.47788,0.164272 -0.724065,0.248896 -0.238933,-0.119467 -0.47788,-0.23894 -0.724065,-0.36203 0,-0.23894 0,-0.47788 0,-0.724061 2.081682,-1.086091 2.081682,-1.086091 2.896246,-1.086091 z"
       fill="#347b3e"
       id="path1074"
       style="stroke-width:0.36203" />
    <path
       d="m 36.221134,84.688224 c 0.836293,0 1.672573,0 2.534207,0 0,0.477879 0,0.955759 0,1.44812 -0.597347,0 -1.194693,0 -1.810142,0 0,-0.23894 0,-0.47788 0,-0.72406 -0.238947,0 -0.47788,0 -0.724065,0 0,-0.238939 0,-0.477879 0,-0.72406 z"
       fill="#3f8548"
       id="path1095"
       style="stroke-width:0.36203" />
    <path
       d="m 10.879022,48.123172 c 1.119286,0.91578 1.415291,1.891444 1.810156,3.258272 -0.238947,0 -0.47788,0 -0.724065,0 -0.238947,-0.71682 -0.47788,-1.43364 -0.724065,-2.172181 -0.3584,0.119466 -0.716813,0.23894 -1.086091,0.36203 0,-0.35841 0,-0.71682 0,-1.086091 0.238947,-0.119467 0.47788,-0.23894 0.724065,-0.36203 z"
       fill="#388242"
       id="path1097"
       style="stroke-width:0.36203" />
    <path
       d="m 40.565496,11.196089 c 1.122296,0.120247 1.467848,0.381761 2.285313,1.199225 0.610934,0.972957 0.610934,0.972957 0.468097,1.757827 -0.07238,0.218873 -0.144671,0.437746 -0.219203,0.66325 C 42.744506,14.34931 42.390184,13.881561 42.036245,13.413525 41.74013,13.022914 41.74013,13.022914 41.43805,12.624412 40.927522,11.92015 40.927522,11.92015 40.565496,11.196089 Z"
       fill="#def6e1"
       id="path1102"
       style="stroke-width:0.36203" />
    <path
       d="m 62.649349,9.0239079 c 0.95576,0 1.91152,0 2.896246,0 0,0.3584093 0,0.7168199 0,1.0860911 -1.07524,-0.119467 -2.150466,-0.2389404 -3.258272,-0.3620302 0.119453,-0.2389399 0.238934,-0.4778799 0.362026,-0.7240609 z"
       fill="#398641"
       id="path1104"
       style="stroke-width:0.36203" />
    <path
       d="m 30.428655,57.535957 c 0.358413,0.119467 0.716813,0.23894 1.086091,0.36203 -0.344676,0.364189 -0.692157,0.725731 -1.040841,1.08609 -0.193205,0.201606 -0.386409,0.403212 -0.58547,0.610927 -0.545871,0.475164 -0.545871,0.475164 -1.269936,0.475164 0.119453,-0.47788 0.238947,-0.95576 0.36204,-1.44812 0.358399,0 0.716813,0 1.08609,0 0.119453,-0.358411 0.238933,-0.71682 0.362026,-1.086091 z"
       fill="#daf4dd"
       id="path1152"
       style="stroke-width:0.36203" />
    <path
       d="m 27.894448,54.277685 c 0.271526,0.610926 0.271526,0.610926 0.362026,1.44812 -0.701434,0.995583 -0.701434,0.995583 -1.448117,1.810152 -0.47788,-0.119467 -0.95576,-0.23894 -1.448116,-0.36203 0.283731,-0.276275 0.567476,-0.552549 0.859814,-0.837195 0.976613,-0.939982 0.976613,-0.939982 1.674393,-2.059047 z"
       fill="#e2f6e3"
       id="path1153"
       style="stroke-width:0.36203" />
    <path
       d="m 37.307224,49.209263 c 0.358414,0.23894 0.716813,0.47788 1.086091,0.724061 -1.075226,0.896024 -1.075226,0.896024 -2.172181,1.81015 -0.119453,-0.23894 -0.238933,-0.47788 -0.362026,-0.72406 0.47788,-0.59735 0.95576,-1.194699 1.448116,-1.810151 z"
       fill="#427b48"
       id="path1154"
       style="stroke-width:0.36203" />
    <path
       d="m 24.274137,37.262266 c 0.358413,0.179205 0.358413,0.179205 0.724065,0.362029 0,0.23894 0,0.47788 0,0.724061 0.358399,0 0.716813,0 1.08609,0 0,0.71682 0,1.43364 0,2.172182 -0.732959,-0.699641 -1.238533,-1.314744 -1.810155,-2.172182 0,-0.35841 0,-0.71682 0,-1.08609 z"
       fill="#3c8444"
       id="path1160"
       style="stroke-width:0.36203" />
    <path
       d="m 55.046714,12.64421 c 0.358414,0.119466 0.716813,0.23894 1.086091,0.36203 0.119453,0.35841 0.238933,0.71682 0.362026,1.086091 -0.83628,0.238939 -1.672573,0.477879 -2.534207,0.72406 0.358413,-0.716819 0.716826,-1.433639 1.08609,-2.172181 z"
       fill="#417e49"
       id="path1164"
       style="stroke-width:0.36203" />
    <path
       d="m 68.803854,60.432199 c 0.47788,0 0.95576,0 1.448116,0 0,0.358409 0,0.71682 0,1.086091 0.47788,0.119466 0.95576,0.23894 1.44813,0.36203 -0.119453,0.35841 -0.238947,0.71682 -0.362039,1.08609 -0.423422,-0.353218 -0.845557,-0.707994 -1.267104,-1.063463 -0.235197,-0.197405 -0.470409,-0.394811 -0.712749,-0.598199 -0.182928,-0.168471 -0.365871,-0.336942 -0.554354,-0.510519 0,-0.119467 0,-0.23894 0,-0.36203 z"
       fill="#d0ebd2"
       id="path1183"
       style="stroke-width:0.36203" />
    <path
       d="m 38.031289,47.037082 c 0.358414,0.119466 0.716813,0.238939 1.086091,0.362029 -0.716827,0.836291 -1.43364,1.67258 -2.172181,2.534213 -0.119453,-0.47788 -0.238933,-0.95576 -0.362026,-1.448122 0.238933,0 0.47788,0 0.724051,0 0.238947,-0.47788 0.47788,-0.95576 0.724065,-1.44812 z"
       fill="#dbf2de"
       id="path1186"
       style="stroke-width:0.36203" />
    <path
       d="m 25.360227,13.730301 c 0.238933,0 0.47788,0 0.724065,0 -0.358413,1.194699 -0.716826,2.389399 -1.08609,3.620301 -0.119453,0 -0.238947,0 -0.36204,0 0,-0.955759 0,-1.911519 0,-2.89624 0.238947,0 0.47788,0 0.724065,0 0,-0.23894 0,-0.47788 0,-0.724061 z"
       fill="#e1f7e4"
       id="path1193"
       style="stroke-width:0.36203" />
    <path
       d="m 68.441828,52.105504 c 0.358413,0 0.716813,0 1.086091,0 0.238933,0.955759 0.47788,1.911519 0.724065,2.896242 -0.358414,0.179204 -0.358414,0.179204 -0.724065,0.36203 -0.358414,-1.075231 -0.716827,-2.15046 -1.086091,-3.258272 z"
       fill="#54865c"
       id="path1219"
       style="stroke-width:0.36203" />
    <path
       d="m 28.980539,9.7479688 c 0.238933,0.1194666 0.477879,0.23894 0.724065,0.3620302 -0.238947,0.59735 -0.47788,1.1947 -0.724065,1.810151 -0.597347,0 -1.194693,0 -1.810156,0 0.59736,-0.716819 1.194706,-1.43364 1.810156,-2.1721812 z"
       fill="#568e5e"
       id="path1222"
       style="stroke-width:0.36203" />
    <path
       d="m 37.307224,9.0239079 c 1.086091,0.3620298 1.086091,0.3620298 1.515998,1.0408371 0.294158,0.769315 0.294158,0.769315 0.294158,1.855405 -0.358413,-0.119466 -0.716827,-0.23894 -1.086091,-0.362031 -0.42992,-1.289733 -0.42992,-1.289733 -0.724065,-2.5342111 z"
       fill="#45894e"
       id="path1223"
       style="stroke-width:0.36203" />
    <path
       d="m 24.998202,84.326194 c 0.836293,0.119466 1.672572,0.23894 2.534207,0.36203 -0.119453,0.35841 -0.238934,0.716819 -0.362026,1.08609 -1.764892,-0.633553 -1.764892,-0.633553 -2.172181,-1.44812 z"
       fill="#4d8654"
       id="path1244"
       style="stroke-width:0.36203" />
    <path
       d="m 27.894448,58.984079 c 0.358413,0.119466 0.716813,0.23894 1.086091,0.36203 -0.119453,0.35841 -0.238947,0.716819 -0.362026,1.08609 -0.47788,0 -0.95576,0 -1.44813,0 0,0.23894 0,0.47788 0,0.724061 -0.238933,-0.119466 -0.47788,-0.23894 -0.724051,-0.36203 0.119452,-0.23894 0.238933,-0.47788 0.362025,-0.724061 0.238947,0 0.47788,0 0.724065,0 0.119453,-0.35841 0.238933,-0.716819 0.362026,-1.08609 z"
       fill="#f2fdf0"
       id="path1248"
       style="stroke-width:0.36203" />
    <path
       d="m 76.044463,31.831812 c 0.358413,0.119467 0.716813,0.23894 1.08609,0.36203 -0.836293,0.597351 -1.672572,1.1947 -2.534207,1.810152 -0.119452,-0.23894 -0.238946,-0.47788 -0.362039,-0.724061 0.238947,0 0.47788,0 0.724065,0 0.119453,-0.35841 0.238947,-0.71682 0.362026,-1.086091 0.238946,-0.119467 0.47788,-0.23894 0.724065,-0.36203 z"
       fill="#e0f5e2"
       id="path1255"
       style="stroke-width:0.36203" />
    <path
       d="m 51.426403,28.57354 c 0.238933,0 0.47788,0 0.724065,0 0.401282,1.203877 0.305747,2.035271 0,3.258272 -0.724065,-0.724061 -0.724065,-0.724061 -0.769315,-2.036419 0.01492,-0.403212 0.02983,-0.806424 0.04529,-1.221853 z"
       fill="#3e7746"
       id="path1257"
       style="stroke-width:0.36203" />
    <path
       d="m 69.165893,10.83406 c 0.358413,0 0.716813,0 1.086091,0 0.56567,1.01821 0.56567,1.01821 1.08609,2.172181 -0.119452,0.358409 -0.238946,0.71682 -0.362025,1.086091 -0.59736,-1.075231 -1.194707,-2.15046 -1.810156,-3.258272 z"
       fill="#e2f7e3"
       id="path1259"
       style="stroke-width:0.36203" />
  </g>
</svg>
