<?xml version="1.0" encoding="UTF-8" standalone="no"?>
<!-- Created with Inkscape (http://www.inkscape.org/) -->

<svg
   width="96mm"
   height="96mm"
   viewBox="0 0 96 96"
   version="1.1"
   id="svg1"
   inkscape:version="1.4.2 (ebf0e940, 2025-05-08)"
   sodipodi:docname="boat.svg"
   xmlns:inkscape="http://www.inkscape.org/namespaces/inkscape"
   xmlns:sodipodi="http://sodipodi.sourceforge.net/DTD/sodipodi-0.dtd"
   xmlns="http://www.w3.org/2000/svg"
   xmlns:svg="http://www.w3.org/2000/svg">
  <sodipodi:namedview
     id="namedview1"
     pagecolor="#ffffff"
     bordercolor="#000000"
     borderopacity="0.25"
     inkscape:showpageshadow="2"
     inkscape:pageopacity="0.0"
     inkscape:pagecheckerboard="0"
     inkscape:deskcolor="#d1d1d1"
     inkscape:document-units="mm"
     inkscape:zoom="0.80444024"
     inkscape:cx="397.17059"
     inkscape:cy="262.91574"
     inkscape:window-width="1920"
     inkscape:window-height="1052"
     inkscape:window-x="0"
     inkscape:window-y="28"
     inkscape:window-maximized="0"
     inkscape:current-layer="layer1" />
  <defs
     id="defs1" />
  <g
     inkscape:label="Layer 1"
     inkscape:groupmode="layer"
     id="layer1">
    <g
       id="g12"
       style="clip-rule:evenodd;fill-rule:evenodd;image-rendering:optimizeQuality;shape-rendering:geometricPrecision;text-rendering:geometricPrecision"
       transform="matrix(0.26458333,0,0,0.26458333,-286.27582,5.1475668)">
      <path
         style="opacity:1"
         fill="#e9e8e7"
         d="m 1256.5,-0.5 c 2.33,0 4.67,0 7,0 -0.08,1.249754 -0.74,2.08309 -2,2.5 1.8,1.50528 3.63,1.67194 5.5,0.5 1.33,0.66667 2.67,1.33333 4,2 1.33,-2.66667 2.67,-2.66667 4,0 -0.58,2.05441 -0.08,4.05441 1.5,6 1.11,-1.08957 2.11,-1.08957 3,0 -1.17,1.0836 -2.5,1.9169 -4,2.5 4.86,2.1764 8.52,5.6764 11,10.5 0.67,-0.3333 1.33,-0.6667 2,-1 1.24,1.5072 0.91,2.6739 -1,3.5 2.49,0.6259 2.49,1.4593 0,2.5 1.3,1.7012 2.97,2.8678 5,3.5 -1,0.3333 -2,0.6667 -3,1 2.31,0.7562 4.31,0.2562 6,-1.5 0.41,0.7624 0.58,1.7624 0.5,3 1.05,-1.0171 2.22,-1.1838 3.5,-0.5 -1.06,1.1882 -2.4,1.6882 -4,1.5 0,1.3333 0,2.6667 0,4 1.18,-0.219 2.18,0.1143 3,1 -0.81,2.2921 -1.14,4.4588 -1,6.5 2.39,0.2835 3.05,1.2835 2,3 1.33,0.3333 2.67,0.6667 4,1 -1.91,0.8261 -2.24,1.9928 -1,3.5 1.88,-0.1425 3.88,0.3575 6,1.5 -0.95,0.4828 -1.95,0.6495 -3,0.5 -0.15,1.052 0.02,2.052 0.5,3 0.89,-1.2112 1.73,-1.2112 2.5,0 -0.54,1.7705 -1.37,2.1039 -2.5,1 0.52,1.5491 0.36,3.0491 -0.5,4.5 1.18,1.7351 2.85,2.7351 5,3 -3.15,0.9814 -3.49,2.3148 -1,4 -2.67,1.3333 -2.67,2.6667 0,4 -0.74,2.0206 0.1,3.5206 2.5,4.5 1.07,-0.7797 2.24,-0.613 3.5,0.5 -2.72,0.0434 -3.38,1.0434 -2,3 -0.67,0.6667 -1.33,1.3333 -2,2 0.32,1.6532 1.32,2.6532 3,3 -0.69,1.0674 -1.19,2.2341 -1.5,3.5 -1.14,0.1191 -2.31,0.4524 -3.5,1 -5.93,-32.8556 -20.09,-61.5222 -42.5,-86 -1.39,-1.05364 -2.89,-1.22031 -4.5,-0.5 -4.04,3.9576 -7.7,8.1242 -11,12.5 -0.45,-0.9584 -1.12,-1.7917 -2,-2.5 2.39,-1.3086 2.39,-2.3086 0,-3 2.42,-1.6732 2.42,-3.5065 0,-5.5 0.31,-0.80806 0.81,-1.47473 1.5,-2 2.68,6.5331 4.51,6.1998 5.5,-1 1.18,0.21901 2.18,-0.11432 3,-1 -1.61,-0.74207 -3.27,-0.90874 -5,-0.5 1.54,-1.10963 2.2,-2.60963 2,-4.5 z"
         id="path12" />
    </g>
    <g
       id="g19"
       style="clip-rule:evenodd;fill-rule:evenodd;image-rendering:optimizeQuality;shape-rendering:geometricPrecision;text-rendering:geometricPrecision"
       transform="matrix(0.26458333,0,0,0.26458333,-286.27582,5.1475668)">
      <path
         style="opacity:1"
         fill="#949494"
         d="m 1216.5,175.5 c 1.29,0.79 2.46,1.79 3.5,3 1.04,-0.873 1.88,-1.873 2.5,-3 0.34,23.916 1.84,47.916 4.5,72 0.84,5.747 2.01,11.414 3.5,17 0.53,0.692 1.19,1.192 2,1.5 20.29,2.846 40.62,3.18 61,1 4.39,-1.719 6.39,-5.052 6,-10 5.91,-39.636 7.58,-79.469 5,-119.5 0.31,-2.885 -0.03,-5.552 -1,-8 -1.37,-24.929 -6.7,-48.9293 -16,-72 -0.43,-1.2095 -1.1,-2.2095 -2,-3 -1.78,-4.9505 -5.12,-8.4505 -10,-10.5 -7.67,-0.6667 -15.33,-0.6667 -23,0 -2.6,0.8834 -4.77,2.3834 -6.5,4.5 -8.8,16.2911 -14.8,33.6245 -18,52 -1.57,10.456 -2.74,20.956 -3.5,31.5 -0.11,1.681 -0.77,2.848 -2,3.5 -1.33,0 -2.67,0 -4,0 0.49,-41.9518 12.65,-79.9518 36.5,-114 2.63,-3.6317 5.63,-6.965 9,-10 20.43,21.8582 33.76,47.5249 40,77 3.72,19.845 6.06,39.845 7,60 2.26,38.316 -0.07,76.316 -7,114 -0.23,2.958 -1.4,5.458 -3.5,7.5 -11.29,2.963 -22.79,4.129 -34.5,3.5 -13.01,0.567 -25.84,-0.6 -38.5,-3.5 -1.2,-0.903 -2.03,-2.069 -2.5,-3.5 -5.82,-30.039 -8.65,-60.373 -8.5,-91 z"
         id="path19" />
    </g>
    <g
       id="g20"
       style="clip-rule:evenodd;fill-rule:evenodd;image-rendering:optimizeQuality;shape-rendering:geometricPrecision;text-rendering:geometricPrecision"
       transform="matrix(0.26458333,0,0,0.26458333,-286.27582,5.1475668)">
      <path
         style="opacity:1"
         fill="#eae7e7"
         d="m 1249.5,21.5 c -17.73,25.1547 -28.56,53.1547 -32.5,84 -1.66,10.285 -2.83,20.618 -3.5,31 -0.33,0 -0.67,0 -1,0 -1.96,-1.41 -3.96,-2.077 -6,-2 0.88,-0.751 1.88,-1.251 3,-1.5 0.37,-1.61 -0.3,-3.11 -2,-4.5 1.41,-0.743 2.74,-1.577 4,-2.5 -0.13,-1.974 -0.29,-4.141 -0.5,-6.5 -0.67,0.667 -1.33,1.333 -2,2 -0.72,-0.951 -1.55,-1.117 -2.5,-0.5 -1.48,1.983 -3.15,3.816 -5,5.5 0.69,1.564 0.52,3.231 -0.5,5 -0.33,-0.667 -0.67,-1.333 -1,-2 -0.29,1.544 -0.96,2.877 -2,4 -0.33,-0.333 -0.67,-0.667 -1,-1 -0.43,1.1 0.07,1.767 1.5,2 0.94,-0.108 1.78,-0.441 2.5,-1 0.8,1.759 0.63,3.426 -0.5,5 -0.69,-0.525 -1.19,-1.192 -1.5,-2 -1.24,-0.039 -2.58,0.295 -4,1 -0.95,-0.405 -1.61,-1.072 -2,-2 -0.33,0.667 -0.67,1.333 -1,2 -0.19,-2.077 -0.69,-4.077 -1.5,-6 -0.93,1.189 -1.26,2.522 -1,4 -1.98,-0.117 -3.65,0.55 -5,2 -0.69,-0.525 -1.19,-1.192 -1.5,-2 -0.42,1.172 -1.09,2.172 -2,3 -0.67,-1.333 -1.33,-1.333 -2,0 -0.67,-1 -0.67,-2 0,-3 1.78,-1.094 3.61,-2.094 5.5,-3 -1.36,-1.806 -1.03,-3.306 1,-4.5 -0.67,-0.333 -1.33,-0.667 -2,-1 1.02,-1.049 1.18,-2.216 0.5,-3.5 -0.33,0.667 -0.67,1.333 -1,2 -1,-0.333 -2,-0.667 -3,-1 -1.2,0.971 -1.7,1.971 -1.5,3 -1.49,-0.033 -2.82,-0.533 -4,-1.5 1.81,-1.884 4.47,-3.384 8,-4.5 0,-1 0,-2 0,-3 1.7,0.16 3.37,-0.006 5,-0.5 -0.63,-0.75 -1.13,-1.584 -1.5,-2.5 -0.31,0.808 -0.81,1.475 -1.5,2 -0.74,-1.491 -1.41,-2.991 -2,-4.5 0.76,-0.944 1.76,-1.444 3,-1.5 2.62,2.757 3.96,2.09 4,-2 -1.32,-0.17 -2.49,0.163 -3.5,1 -3.33,-1.333 -3.33,-2.667 0,-4 3.01,2.426 6.18,2.593 9.5,0.5 2.12,-1.171 2.78,-2.671 2,-4.5 1.41,-0.743 2.74,-1.577 4,-2.5 -1.28,-0.6838 -2.45,-0.5171 -3.5,0.5 0.72,-2.403 1.55,-4.903 2.5,-7.5 -1.58,-0.7065 -3.08,-1.5399 -4.5,-2.5 -0.62,-0.9491 -0.45,-1.7825 0.5,-2.5 -1,-0.3333 -2,-0.6667 -3,-1 0.33,-0.3333 0.67,-0.6667 1,-1 -1.17,-1.5 -2.33,-3 -3.5,-4.5 -0.27,1.6012 -0.77,3.1012 -1.5,4.5 0.95,0.6172 1.78,0.4506 2.5,-0.5 0.93,2.0431 1.43,3.8764 1.5,5.5 -0.33,0.1667 -0.67,0.3333 -1,0.5 -0.67,-1.3333 -1.33,-2.6667 -2,-4 -1.9,2.1087 -3.57,1.6087 -5,-1.5 2.36,-0.5885 3.36,-2.0885 3,-4.5 -1.32,-0.17 -2.49,0.1634 -3.5,1 -0.27,-1.4323 0.4,-2.4323 2,-3 2.78,0.6282 5.61,1.1282 8.5,1.5 -0.33,0.3333 -0.67,0.6667 -1,1 1.39,1.1711 2.23,2.6711 2.5,4.5 0.2,-1.7556 0.7,-3.4223 1.5,-5 1.21,0.7739 1.21,1.6072 0,2.5 0.95,0.6172 1.78,0.4506 2.5,-0.5 0.74,-3.3404 0.4,-5.6738 -1,-7 1.48,-2.2811 3.15,-2.2811 5,0 2.01,-1.3334 3.68,-3 5,-5 2.11,1.7711 1.95,3.2711 -0.5,4.5 1.36,2.1293 1.03,2.6293 -1,1.5 -1.84,1.2962 -3.84,2.1296 -6,2.5 1.04,1.6169 2.2,1.7836 3.5,0.5 0.97,2.3776 1.64,2.0443 2,-1 0.86,2.3684 1.69,4.7017 2.5,7 1.93,-0.2692 3.6,0.2308 5,1.5 -2,0.8333 -4,1.6667 -6,2.5 -1.21,1.2202 -1.21,2.3869 0,3.5 2.4,-1.4674 4.9,-2.3007 7.5,-2.5 0.3,-1.9405 1.14,-3.6072 2.5,-5 -1.24,-0.7807 -2.24,-1.7807 -3,-3 0.86,-0.793 1.69,-0.4597 2.5,1 0.67,-1.6667 0.67,-3.3333 0,-5 -0.33,0.3333 -0.67,0.6667 -1,1 -1.33,-0.9939 -2.66,-1.9939 -4,-3 -1.1,0.7913 -1.93,0.7913 -2.5,0 2.89,-1.4882 5.73,-2.1548 8.5,-2 0.49,-1.049 0.33,-2.049 -0.5,-3 2.14,-1.3517 2.47,-3.0183 1,-5 0.67,-0.3333 1.33,-0.6667 2,-1 -1.06,-1.2701 -2.06,-2.4367 -3,-3.5 1.63,-0.4935 3.3,-0.6602 5,-0.5 0.15,-2.4424 -0.69,-3.1091 -2.5,-2 -2.15,-0.6125 -4.31,-1.2792 -6.5,-2 1.52,-0.3797 3.19,-0.5464 5,-0.5 -0.28,-1.9562 -0.28,-4.1229 0,-6.5 1.37,-0.1567 2.71,0.01 4,0.5 -1.66,0.7253 -2.16,1.892 -1.5,3.5 1.11,-1.5368 2.61,-2.2035 4.5,-2 0,-2 0,-4 0,-6 1.32,0.17 2.49,-0.1634 3.5,-1 0.25,-3.2896 1.25,-6.2896 3,-9 0.65,1.1956 1.15,1.1956 1.5,0 -0.53,-0.6924 -1.19,-1.1924 -2,-1.5 2,-1.3333 4,-2.6667 6,-4 -0.81,-0.3076 -1.47,-0.8076 -2,-1.5 1.91,-2.6221 4.24,-4.7888 7,-6.5 -0.95,-0.7175 -1.12,-1.5509 -0.5,-2.5 0.67,-1.3333 1.33,-1.3333 2,0 0.83,-1 1.67,-2 2.5,-3 0.89,0.825 1.22,1.825 1,3 z"
         id="path20" />
    </g>
    <g
       id="g23"
       style="clip-rule:evenodd;fill-rule:evenodd;image-rendering:optimizeQuality;shape-rendering:geometricPrecision;text-rendering:geometricPrecision"
       transform="matrix(0.26458333,0,0,0.26458333,-286.27582,5.1475668)">
      <path
         style="opacity:1"
         fill="#7c7c7c"
         d="m 1233.5,142.5 c -0.33,-0.667 -0.67,-1.333 -1,-2 -1.23,-4.18 -2.56,-8.346 -4,-12.5 6.22,-5.609 13.56,-8.776 22,-9.5 0.17,6.009 0,12.009 -0.5,18 -5.34,2.422 -10.84,4.422 -16.5,6 z"
         id="path23" />
    </g>
    <g
       id="g24"
       style="clip-rule:evenodd;fill-rule:evenodd;image-rendering:optimizeQuality;shape-rendering:geometricPrecision;text-rendering:geometricPrecision"
       transform="matrix(0.26458333,0,0,0.26458333,-286.27582,5.1475668)">
      <path
         style="opacity:1"
         fill="#666666"
         d="m 1285.5,54.5 c 0.13,0.8764 -0.2,1.5431 -1,2 -2.16,-3.6563 -4.83,-6.823 -8,-9.5 -8.33,-0.6667 -16.67,-0.6667 -25,0 -5.3,5.2349 -9.14,11.4016 -11.5,18.5 -4.91,13.2974 -8.41,26.9641 -10.5,41 0.33,0.667 0.67,1.333 1,2 2.84,-12.0145 6,-24.0145 9.5,-36 2.29,-8.8847 6.45,-16.7181 12.5,-23.5 7.67,-0.6667 15.33,-0.6667 23,0 1.08,0.956 2.25,1.7894 3.5,2.5 2.06,5.1203 4.39,10.1203 7,15 4.47,13.4968 8.3,27.1635 11.5,41 0.28,-6.357 -0.56,-12.6904 -2.5,-19 -2.46,-9.7525 -5.63,-19.2525 -9.5,-28.5 0.18,-1.3756 0.85,-2.2089 2,-2.5 9.3,23.0707 14.63,47.071 16,72 0.16,2.357 0,4.69 -0.5,7 -0.22,-1.438 -0.72,-2.771 -1.5,-4 -2.12,3.35 -3.45,7.016 -4,11 1.69,10.942 2.86,21.942 3.5,33 0.14,2.543 0.81,4.877 2,7 0.67,-12.843 0.51,-25.676 -0.5,-38.5 0.02,-2.929 0.69,-5.429 2,-7.5 2.58,40.031 0.91,79.864 -5,119.5 0.39,4.948 -1.61,8.281 -6,10 -20.38,2.18 -40.71,1.846 -61,-1 -0.81,-0.308 -1.47,-0.808 -2,-1.5 -1.49,-5.586 -2.66,-11.253 -3.5,-17 -2.66,-24.084 -4.16,-48.084 -4.5,-72 3.38,-3.374 6.38,-7.041 9,-11 -2.54,11.58 -4.54,23.246 -6,35 25.67,0 51.33,0 77,0 -3.05,-17.523 -5.38,-35.19 -7,-53 -7.34,0.166 -14.67,0 -22,-0.5 -0.64,-2.394 -0.64,-4.894 0,-7.5 -6.33,0 -12.67,0 -19,0 -0.12,4.338 -0.46,4.672 -1,1 -4.46,0.866 -8.8,2.2 -13,4 1.67,0.667 3.33,1.333 5,2 -3.27,0.987 -6.6,1.32 -10,1 -1.17,-1.014 -1.84,-2.347 -2,-4 5.66,-1.578 11.16,-3.578 16.5,-6 0.5,-5.991 0.67,-11.991 0.5,-18 -8.44,0.724 -15.78,3.891 -22,9.5 1.44,4.154 2.77,8.32 4,12.5 -3.1,-2.219 -6.44,-3.885 -10,-5 1.23,-0.652 1.89,-1.819 2,-3.5 0.76,-10.544 1.93,-21.044 3.5,-31.5 3.2,-18.3755 9.2,-35.7089 18,-52 1.73,-2.1166 3.9,-3.6166 6.5,-4.5 7.67,-0.6667 15.33,-0.6667 23,0 4.88,2.0495 8.22,5.5495 10,10.5 z"
         id="path24" />
    </g>
    <g
       id="g25"
       style="clip-rule:evenodd;fill-rule:evenodd;image-rendering:optimizeQuality;shape-rendering:geometricPrecision;text-rendering:geometricPrecision"
       transform="matrix(0.26458333,0,0,0.26458333,-286.27582,5.1475668)">
      <path
         style="opacity:1"
         fill="#7c7c7c"
         d="m 1276.5,118.5 c 8.62,0.375 16.46,3.042 23.5,8 -1.07,4.659 -2.57,9.326 -4.5,14 -0.67,0.333 -1.33,0.667 -2,1 -5.25,-1.918 -10.59,-3.584 -16,-5 -1,-5.963 -1.33,-11.963 -1,-18 z"
         id="path25" />
    </g>
    <g
       id="g27"
       style="clip-rule:evenodd;fill-rule:evenodd;image-rendering:optimizeQuality;shape-rendering:geometricPrecision;text-rendering:geometricPrecision"
       transform="matrix(0.26458333,0,0,0.26458333,-286.27582,5.1475668)">
      <path
         style="opacity:1"
         fill="#e5e3e3"
         d="m 1314.5,293.5 c -2.21,0.547 -3.88,-0.453 -5,-3 5.38,-52.17 7.22,-104.504 5.5,-157 -1.83,-12.3 -3.33,-24.633 -4.5,-37 1.18,0.5814 2.84,0.5814 5,0 -0.67,1.3333 -1.33,2.6667 -2,4 1.33,0.667 2.67,1.333 4,2 -0.67,0.667 -1.33,1.333 -2,2 2.49,1.041 2.49,1.874 0,2.5 1.62,2.11 2.96,4.443 4,7 -1.23,1.698 -1.9,3.698 -2,6 0.1,2.302 0.77,4.302 2,6 -1.77,2.269 -2.44,4.602 -2,7 1.76,0.98 3.43,1.647 5,2 -2.33,1.075 -3.66,2.575 -4,4.5 -0.11,3.789 0.56,7.622 2,11.5 -2.87,2.837 -2.2,4.504 2,5 -0.83,0.915 -1.83,1.581 -3,2 0.86,0.689 1.52,1.522 2,2.5 -0.61,2.14 -0.27,4.307 1,6.5 -0.95,0.617 -1.78,0.451 -2.5,-0.5 -0.84,2.818 -0.01,4.984 2.5,6.5 -0.95,0.483 -1.95,0.649 -3,0.5 -0.36,2.266 0.31,4.099 2,5.5 -0.67,0.333 -1.33,0.667 -2,1 2.73,0.182 5.39,0.682 8,1.5 0.97,1.462 0.64,2.795 -1,4 -1.97,-2.946 -4.3,-3.446 -7,-1.5 0.61,1.13 0.61,2.463 0,4 0.25,1.326 0.92,2.326 2,3 -0.81,0.308 -1.47,0.808 -2,1.5 0.97,2.136 2.64,3.303 5,3.5 -1.05,1.119 -2.22,1.619 -3.5,1.5 -0.33,-0.667 -0.67,-1.333 -1,-2 -0.62,1.964 -0.12,3.631 1.5,5 -2.27,1.093 -2.6,2.593 -1,4.5 -2.47,2.281 -2.47,4.614 0,7 -0.33,0.333 -0.67,0.667 -1,1 3.54,2.609 3.54,4.943 0,7 1.06,1.188 2.4,1.688 4,1.5 0.25,2.744 -0.41,5.244 -2,7.5 0.39,1.011 1.06,1.511 2,1.5 -1.14,0.925 -1.14,1.759 0,2.5 -1.17,0.5 -2,1.333 -2.5,2.5 -0.34,-1.574 -1.17,-2.908 -2.5,-4 -0.33,1.333 -0.67,2.667 -1,4 -0.15,2.972 1.19,4.806 4,5.5 -1.46,3.089 -2.79,6.256 -4,9.5 0.66,1.99 0.66,3.823 0,5.5 2.5,2.662 2.5,5.328 0,8 1.01,1.338 2.01,2.671 3,4 -1.25,1.824 -2.42,1.657 -3.5,-0.5 -0.07,1.609 0.1,3.276 0.5,5 -2.48,5.43 -2.48,10.763 0,16 -0.21,0.586 -0.54,1.086 -1,1.5 2.43,0.451 2.6,1.285 0.5,2.5 -2.45,-1.496 -3.28,-1.163 -2.5,1 z"
         id="path27" />
    </g>
    <g
       id="g28"
       style="clip-rule:evenodd;fill-rule:evenodd;image-rendering:optimizeQuality;shape-rendering:geometricPrecision;text-rendering:geometricPrecision"
       transform="matrix(0.26458333,0,0,0.26458333,-286.27582,5.1475668)">
      <path
         style="opacity:1"
         fill="#797979"
         d="m 1303.5,129.5 c 0.97,2.448 1.31,5.115 1,8 -1.31,2.071 -1.98,4.571 -2,7.5 1.01,12.824 1.17,25.657 0.5,38.5 -1.19,-2.123 -1.86,-4.457 -2,-7 -0.64,-11.058 -1.81,-22.058 -3.5,-33 0.55,-3.984 1.88,-7.65 4,-11 0.78,1.229 1.28,2.562 1.5,4 0.5,-2.31 0.66,-4.643 0.5,-7 z"
         id="path28" />
    </g>
    <g
       id="g30"
       style="clip-rule:evenodd;fill-rule:evenodd;image-rendering:optimizeQuality;shape-rendering:geometricPrecision;text-rendering:geometricPrecision"
       transform="matrix(0.26458333,0,0,0.26458333,-286.27582,5.1475668)">
      <path
         style="opacity:1"
         fill="#767676"
         d="m 1231.5,164.5 c 0.62,-0.111 1.12,-0.444 1.5,-1 0.33,4.333 0.67,8.667 1,13 0.5,1.167 1.33,2 2.5,2.5 6.33,0.667 12.67,0.667 19,0 0.63,-0.75 1.13,-1.584 1.5,-2.5 0.8,-7.383 0.63,-14.717 -0.5,-22 -1,-0.833 -2,-1.667 -3,-2.5 -6.05,-0.746 -12.05,-0.579 -18,0.5 0,-2 0,-4 0,-6 3.4,0.32 6.73,-0.013 10,-1 -1.67,-0.667 -3.33,-1.333 -5,-2 4.2,-1.8 8.54,-3.134 13,-4 0.54,3.672 0.88,3.338 1,-1 6.33,0 12.67,0 19,0 -0.64,2.606 -0.64,5.106 0,7.5 7.33,0.5 14.66,0.666 22,0.5 1.62,17.81 3.95,35.477 7,53 -25.67,0 -51.33,0 -77,0 1.46,-11.754 3.46,-23.42 6,-35 z"
         id="path30" />
    </g>
    <g
       id="g43"
       style="clip-rule:evenodd;fill-rule:evenodd;image-rendering:optimizeQuality;shape-rendering:geometricPrecision;text-rendering:geometricPrecision"
       transform="matrix(0.26458333,0,0,0.26458333,-286.27582,5.1475668)">
      <path
         style="opacity:1"
         fill="#656464"
         d="m 1231.5,164.5 c 0.89,-2.109 2.06,-4.109 3.5,-6 0.5,-1.973 0.66,-3.973 0.5,-6 5.95,-1.079 11.95,-1.246 18,-0.5 1,0.833 2,1.667 3,2.5 1.13,7.283 1.3,14.617 0.5,22 -0.37,0.916 -0.87,1.75 -1.5,2.5 -6.33,0.667 -12.67,0.667 -19,0 -1.17,-0.5 -2,-1.333 -2.5,-2.5 -0.33,-4.333 -0.67,-8.667 -1,-13 -0.38,0.556 -0.88,0.889 -1.5,1 z"
         id="path43" />
    </g>
    <g
       id="g44"
       style="clip-rule:evenodd;fill-rule:evenodd;image-rendering:optimizeQuality;shape-rendering:geometricPrecision;text-rendering:geometricPrecision"
       transform="matrix(0.26458333,0,0,0.26458333,-286.27582,5.1475668)">
      <path
         style="opacity:1"
         fill="#7c7c7c"
         d="m 1236.5,154.5 c 6.01,-0.166 12.01,0.001 18,0.5 0.97,5.072 1.3,10.238 1,15.5 -6.67,0 -13.33,0 -20,0 -0.03,-5.362 0.31,-10.695 1,-16 z"
         id="path44" />
    </g>
    <g
       id="g47"
       style="clip-rule:evenodd;fill-rule:evenodd;image-rendering:optimizeQuality;shape-rendering:geometricPrecision;text-rendering:geometricPrecision"
       transform="matrix(0.26458333,0,0,0.26458333,-286.27582,5.1475668)">
      <path
         style="opacity:1"
         fill="#646464"
         d="m 1273.5,152.5 c 6.34,-0.166 12.68,0 19,0.5 2.41,3.923 3.41,8.256 3,13 0.41,4.744 -0.59,9.077 -3,13 -3.33,0.167 -6.67,0.333 -10,0.5 -3.86,-0.079 -7.52,-0.746 -11,-2 -1.16,-7.311 -1.33,-14.644 -0.5,-22 1.04,-0.873 1.88,-1.873 2.5,-3 z"
         id="path47" />
    </g>
    <g
       id="g48"
       style="clip-rule:evenodd;fill-rule:evenodd;image-rendering:optimizeQuality;shape-rendering:geometricPrecision;text-rendering:geometricPrecision"
       transform="matrix(0.26458333,0,0,0.26458333,-286.27582,5.1475668)">
      <path
         style="opacity:1"
         fill="#7c7c7c"
         d="m 1274.5,154.5 c 5.68,-0.166 11.34,0.001 17,0.5 0.64,2.411 0.97,4.911 1,7.5 -0.07,2.787 -0.74,5.287 -2,7.5 -5.99,0.499 -11.99,0.666 -18,0.5 -0.54,-5.635 0.13,-10.968 2,-16 z"
         id="path48" />
    </g>
    <g
       id="g51"
       style="clip-rule:evenodd;fill-rule:evenodd;image-rendering:optimizeQuality;shape-rendering:geometricPrecision;text-rendering:geometricPrecision"
       transform="matrix(0.26458333,0,0,0.26458333,-286.27582,5.1475668)">
      <path
         style="opacity:1"
         fill="#6c3b3b"
         d="m 1218.5,135.5 c 1.33,0 2.67,0 4,0 3.56,1.115 6.9,2.781 10,5 0.33,0.667 0.67,1.333 1,2 0.16,1.653 0.83,2.986 2,4 0,2 0,4 0,6 0.16,2.027 0,4.027 -0.5,6 -1.44,1.891 -2.61,3.891 -3.5,6 -2.62,3.959 -5.62,7.626 -9,11 -0.62,1.127 -1.46,2.127 -2.5,3 -1.04,-1.21 -2.21,-2.21 -3.5,-3 -2.04,-1.126 -3.37,-2.793 -4,-5 -3.29,-4.914 -5.79,-10.248 -7.5,-16 -1.04,-4.727 -0.2,-9.06 2.5,-13 2,-1.333 3.67,-3 5,-5 0.33,0 0.67,0 1,0 1.54,-0.801 3.21,-1.134 5,-1 z"
         id="path51" />
    </g>
    <g
       id="g52"
       style="clip-rule:evenodd;fill-rule:evenodd;image-rendering:optimizeQuality;shape-rendering:geometricPrecision;text-rendering:geometricPrecision"
       transform="matrix(0.26458333,0,0,0.26458333,-286.27582,5.1475668)">
      <path
         style="opacity:1"
         fill="#9a4f4c"
         d="m 1214.5,138.5 c 16.37,-0.799 21.87,6.534 16.5,22 -3.42,5.178 -7.09,10.178 -11,15 -9.32,-8.311 -13.32,-18.644 -12,-31 2.04,-2.206 4.2,-4.206 6.5,-6 z"
         id="path52" />
    </g>
    <g
       id="g53"
       style="clip-rule:evenodd;fill-rule:evenodd;image-rendering:optimizeQuality;shape-rendering:geometricPrecision;text-rendering:geometricPrecision"
       transform="matrix(0.26458333,0,0,0.26458333,-286.27582,5.1475668)">
      <path
         style="opacity:1"
         fill="#6b2c2d"
         d="m 1217.5,144.5 c 7.99,-0.181 10.32,3.319 7,10.5 -5.48,2.595 -8.81,0.928 -10,-5 0.36,-2.192 1.36,-4.026 3,-5.5 z"
         id="path53" />
    </g>
    <g
       id="g54"
       style="clip-rule:evenodd;fill-rule:evenodd;image-rendering:optimizeQuality;shape-rendering:geometricPrecision;text-rendering:geometricPrecision"
       transform="matrix(0.26458333,0,0,0.26458333,-286.27582,5.1475668)">
      <path
         style="opacity:1"
         fill="#f3d9d7"
         d="m 1218.5,146.5 c 4.83,-0.115 6.16,2.052 4,6.5 -6.16,0.878 -7.49,-1.289 -4,-6.5 z"
         id="path54" />
    </g>
    <g
       id="g83"
       style="clip-rule:evenodd;fill-rule:evenodd;image-rendering:optimizeQuality;shape-rendering:geometricPrecision;text-rendering:geometricPrecision"
       transform="matrix(0.26458333,0,0,0.26458333,-286.27582,5.1475668)">
      <path
         style="opacity:1"
         fill="#666666"
         d="m 1309.5,93.5 c -0.24,1.291 0.1,2.291 1,3 1.17,12.367 2.67,24.7 4.5,37 1.72,52.496 -0.12,104.83 -5.5,157 -7.84,6.505 -16.84,8.838 -27,7 -0.5,-1 -1,-2 -1.5,-3 4.97,23.534 -4.2,32.2 -27.5,26 -3.17,-1.654 -4.83,-4.321 -5,-8 -0.17,-5.676 0,-11.343 0.5,-17 0.49,5.433 1.49,10.767 3,16 2.78,4.593 6.95,6.593 12.5,6 4.69,0.123 8.85,-1.21 12.5,-4 1.14,-10.22 0.14,-20.22 -3,-30 -0.5,-0.5 -1,-1 -1.5,-1.5 -5.33,-0.667 -10.67,-0.667 -16,0 -2.18,3.511 -3.68,7.344 -4.5,11.5 -1.12,-0.165 -2.28,-0.498 -3.5,-1 -0.86,1.266 -1.53,2.599 -2,4 -1.37,1.287 -3.2,1.953 -5.5,2 -9.03,0.113 -16.36,-3.22 -22,-10 -4.56,-39.181 -6.73,-78.514 -6.5,-118 0.63,2.207 1.96,3.874 4,5 -0.15,30.627 2.68,60.961 8.5,91 0.47,1.431 1.3,2.597 2.5,3.5 12.66,2.9 25.49,4.067 38.5,3.5 11.71,0.629 23.21,-0.537 34.5,-3.5 2.1,-2.042 3.27,-4.542 3.5,-7.5 6.93,-37.684 9.26,-75.684 7,-114 -0.94,-20.155 -3.28,-40.155 -7,-60 -6.24,-29.4751 -19.57,-55.1418 -40,-77 -3.37,3.035 -6.37,6.3683 -9,10 -23.85,34.0482 -36.01,72.0482 -36.5,114 -1.79,-0.134 -3.46,0.199 -5,1 0.67,-10.382 1.84,-20.715 3.5,-31 3.94,-30.8453 14.77,-58.8453 32.5,-84 1,-0.3333 1.67,-1 2,-2 3.3,-4.3758 6.96,-8.5424 11,-12.5 1.61,-0.72031 3.11,-0.55364 4.5,0.5 22.41,24.4778 36.57,53.1444 42.5,86 z"
         id="path83" />
    </g>
    <g
       id="g84"
       style="clip-rule:evenodd;fill-rule:evenodd;image-rendering:optimizeQuality;shape-rendering:geometricPrecision;text-rendering:geometricPrecision"
       transform="matrix(0.26458333,0,0,0.26458333,-286.27582,5.1475668)">
      <path
         style="opacity:1"
         fill="#7b7c7b"
         d="m 1308.5,250.5 c 0.48,12.228 -0.35,24.561 -2.5,37 -5.78,5.424 -12.61,7.591 -20.5,6.5 -1.55,-6.202 -3.55,-12.202 -6,-18 7.16,-0.01 14.16,-1.01 21,-3 2.93,-2.12 4.76,-4.953 5.5,-8.5 0.84,-4.68 1.67,-9.346 2.5,-14 z"
         id="path84" />
    </g>
    <g
       id="g85"
       style="clip-rule:evenodd;fill-rule:evenodd;image-rendering:optimizeQuality;shape-rendering:geometricPrecision;text-rendering:geometricPrecision"
       transform="matrix(0.26458333,0,0,0.26458333,-286.27582,5.1475668)">
      <path
         style="opacity:1"
         fill="#7b7b7b"
         d="m 1218.5,244.5 c 1.87,8.569 3.7,17.235 5.5,26 1.42,0.96 2.92,1.793 4.5,2.5 6.19,1.26 12.36,2.426 18.5,3.5 -0.82,6.014 -1.99,12.014 -3.5,18 -7.53,0.045 -14.2,-2.288 -20,-7 -1.56,-3.474 -2.4,-7.14 -2.5,-11 -1,-10.66 -1.83,-21.327 -2.5,-32 z"
         id="path85" />
    </g>
    <g
       id="g86"
       style="clip-rule:evenodd;fill-rule:evenodd;image-rendering:optimizeQuality;shape-rendering:geometricPrecision;text-rendering:geometricPrecision"
       transform="matrix(0.26458333,0,0,0.26458333,-286.27582,5.1475668)">
      <path
         style="opacity:1"
         fill="#7c7c7c"
         d="m 1228.5,233.5 c 23.67,0 47.33,0 71,0 -0.08,9.804 -1.25,19.471 -3.5,29 -1.49,1.504 -3.32,2.337 -5.5,2.5 -19.02,0.822 -38.02,0.488 -57,-1 -2.04,-3.835 -3.21,-8.002 -3.5,-12.5 -0.96,-5.965 -1.46,-11.965 -1.5,-18 z"
         id="path86" />
    </g>
    <g
       id="g87"
       style="clip-rule:evenodd;fill-rule:evenodd;image-rendering:optimizeQuality;shape-rendering:geometricPrecision;text-rendering:geometricPrecision"
       transform="matrix(0.26458333,0,0,0.26458333,-286.27582,5.1475668)">
      <path
         style="opacity:1"
         fill="#7c7c7c"
         d="m 1227.5,225.5 c 24.33,0 48.67,0 73,0 0,1.667 0,3.333 0,5 -24,0.167 -48,0 -72,-0.5 -0.88,-1.356 -1.21,-2.856 -1,-4.5 z"
         id="path87" />
    </g>
    <g
       id="g88"
       style="clip-rule:evenodd;fill-rule:evenodd;image-rendering:optimizeQuality;shape-rendering:geometricPrecision;text-rendering:geometricPrecision"
       transform="matrix(0.26458333,0,0,0.26458333,-286.27582,5.1475668)">
      <path
         style="opacity:1"
         fill="#7b7b7b"
         d="m 1226.5,218.5 c 25,0 50,0 75,0 0,1.667 0,3.333 0,5 -25,0 -50,0 -75,0 0,-1.667 0,-3.333 0,-5 z"
         id="path88" />
    </g>
    <g
       id="g89"
       style="clip-rule:evenodd;fill-rule:evenodd;image-rendering:optimizeQuality;shape-rendering:geometricPrecision;text-rendering:geometricPrecision"
       transform="matrix(0.26458333,0,0,0.26458333,-286.27582,5.1475668)">
      <path
         style="opacity:1"
         fill="#7c7c7c"
         d="m 1226.5,202.5 c 25.33,0 50.67,0 76,0 0,4.667 0,9.333 0,14 -25.33,0 -50.67,0 -76,0 0,-4.667 0,-9.333 0,-14 z"
         id="path89" />
    </g>
    <g
       id="g90"
       style="clip-rule:evenodd;fill-rule:evenodd;image-rendering:optimizeQuality;shape-rendering:geometricPrecision;text-rendering:geometricPrecision"
       transform="matrix(0.26458333,0,0,0.26458333,-286.27582,5.1475668)">
      <path
         style="opacity:1"
         fill="#7e7e7d"
         d="m 1272.5,172.5 c 6.67,0 13.33,0 20,0 0.21,1.644 -0.12,3.144 -1,4.5 -5.67,0.667 -11.33,0.667 -17,0 -1.54,-1.11 -2.2,-2.61 -2,-4.5 z"
         id="path90" />
    </g>
    <g
       id="g91"
       style="clip-rule:evenodd;fill-rule:evenodd;image-rendering:optimizeQuality;shape-rendering:geometricPrecision;text-rendering:geometricPrecision"
       transform="matrix(0.26458333,0,0,0.26458333,-286.27582,5.1475668)">
      <path
         style="opacity:1"
         fill="#7e7e7e"
         d="m 1236.5,172.5 c 6.33,0 12.67,0 19,0 0.21,1.644 -0.12,3.144 -1,4.5 -6.05,0.79 -12.05,0.624 -18,-0.5 -1.13,-1.308 -1.13,-2.642 0,-4 z"
         id="path91" />
    </g>
    <g
       id="g92"
       style="clip-rule:evenodd;fill-rule:evenodd;image-rendering:optimizeQuality;shape-rendering:geometricPrecision;text-rendering:geometricPrecision"
       transform="matrix(0.26458333,0,0,0.26458333,-286.27582,5.1475668)">
      <path
         style="opacity:1"
         fill="#7c7c7c"
         d="m 1254.5,117.5 c 6.67,0 13.33,0 20,0 0,6 0,12 0,18 -7.02,-0.065 -14.02,0.268 -21,1 -0.29,-6.423 0.04,-12.756 1,-19 z"
         id="path92" />
    </g>
    <g
       id="g93"
       style="clip-rule:evenodd;fill-rule:evenodd;image-rendering:optimizeQuality;shape-rendering:geometricPrecision;text-rendering:geometricPrecision"
       transform="matrix(0.26458333,0,0,0.26458333,-286.27582,5.1475668)">
      <path
         style="opacity:1"
         fill="#90908f"
         d="m 1243.5,111.5 c 1.29,0.237 2.29,-0.096 3,-1 18.16,-2.581 35.82,-0.748 53,5.5 1.1,2.401 1.27,4.901 0.5,7.5 -19.01,-9.895 -38.84,-11.729 -59.5,-5.5 -3.83,1.552 -7.5,3.385 -11,5.5 -1.28,-2.534 -1.28,-5.034 0,-7.5 4.4,-2.368 9.07,-3.868 14,-4.5 z"
         id="path93" />
    </g>
    <g
       id="g94"
       style="clip-rule:evenodd;fill-rule:evenodd;image-rendering:optimizeQuality;shape-rendering:geometricPrecision;text-rendering:geometricPrecision"
       transform="matrix(0.26458333,0,0,0.26458333,-286.27582,5.1475668)">
      <path
         style="opacity:1"
         fill="#777777"
         d="m 1246.5,110.5 c -0.71,0.904 -1.71,1.237 -3,1 -0.47,-1.193 -1.47,-1.86 -3,-2 -4,1.177 -8,2.01 -12,2.5 6.14,-2.38 12.31,-4.547 18.5,-6.5 2.95,-12.4325 6.29,-24.7659 10,-37 3.59,-1.9559 7.43,-2.4559 11.5,-1.5 1.23,0.779 2.23,1.779 3,3 3.17,11.8473 6.34,23.6807 9.5,35.5 6.33,1.788 12.5,3.955 18.5,6.5 -5.78,-0.528 -11.45,-1.861 -17,-4 -11.33,-0.667 -22.67,-0.667 -34,0 -1.33,0.667 -2.67,1.333 -4,2 0.59,0.464 1.26,0.631 2,0.5 z"
         id="path94" />
    </g>
    <g
       id="g95"
       style="clip-rule:evenodd;fill-rule:evenodd;image-rendering:optimizeQuality;shape-rendering:geometricPrecision;text-rendering:geometricPrecision"
       transform="matrix(0.26458333,0,0,0.26458333,-286.27582,5.1475668)">
      <path
         style="opacity:1"
         fill="#797979"
         d="m 1285.5,54.5 c 0.9,0.7905 1.57,1.7905 2,3 -1.15,0.2911 -1.82,1.1244 -2,2.5 3.87,9.2475 7.04,18.7475 9.5,28.5 1.94,6.3096 2.78,12.643 2.5,19 -3.2,-13.8365 -7.03,-27.5032 -11.5,-41 -2.61,-4.8797 -4.94,-9.8797 -7,-15 -1.25,-0.7106 -2.42,-1.544 -3.5,-2.5 -7.67,-0.6667 -15.33,-0.6667 -23,0 -6.05,6.7819 -10.21,14.6153 -12.5,23.5 -3.5,11.9855 -6.66,23.9855 -9.5,36 -0.33,-0.667 -0.67,-1.333 -1,-2 2.09,-14.0359 5.59,-27.7026 10.5,-41 2.36,-7.0984 6.2,-13.2651 11.5,-18.5 8.33,-0.6667 16.67,-0.6667 25,0 3.17,2.677 5.84,5.8437 8,9.5 0.8,-0.4569 1.13,-1.1236 1,-2 z"
         id="path95" />
    </g>
    <g
       id="g96"
       style="clip-rule:evenodd;fill-rule:evenodd;image-rendering:optimizeQuality;shape-rendering:geometricPrecision;text-rendering:geometricPrecision"
       transform="matrix(0.26458333,0,0,0.26458333,-286.27582,5.1475668)">
      <path
         style="opacity:1"
         fill="#7c7c7c"
         d="m 1255.5,50.5 c 5.68,-0.1661 11.34,6e-4 17,0.5 1.83,0.2735 3.33,1.1068 4.5,2.5 4.76,9.6136 8.76,19.6136 12,30 2.08,7.5639 3.58,15.2306 4.5,23 -4.29,-0.152 -8.13,-1.486 -11.5,-4 -2.53,-11.7665 -5.53,-23.4332 -9,-35 -4.51,-4.2964 -9.68,-5.1297 -15.5,-2.5 -1.88,2.2513 -3.38,4.7513 -4.5,7.5 -2.29,10.4418 -4.95,20.7752 -8,31 -3.23,1.616 -6.56,2.95 -10,4 1.11,-13.6795 4.11,-27.0129 9,-40 1.81,-4.9455 4.14,-9.6122 7,-14 1.41,-1.2811 2.91,-2.2811 4.5,-3 z"
         id="path96" />
    </g>
    <g
       id="g97"
       style="clip-rule:evenodd;fill-rule:evenodd;image-rendering:optimizeQuality;shape-rendering:geometricPrecision;text-rendering:geometricPrecision"
       transform="matrix(0.26458333,0,0,0.26458333,-286.27582,5.1475668)">
      <path
         style="opacity:1"
         fill="#656565"
         d="m 1262.5,14.5 c 3.17,0.3399 5.34,2.0066 6.5,5 1.91,5.0512 3.41,10.2179 4.5,15.5 -0.11,1.8951 -0.78,3.5618 -2,5 -2.5,0.1667 -5,0.3333 -7.5,0.5 -2.95,-0.0676 -5.62,-0.7343 -8,-2 -1.39,-8.9813 0.77,-16.9813 6.5,-24 z"
         id="path97" />
    </g>
    <g
       id="g98"
       style="clip-rule:evenodd;fill-rule:evenodd;image-rendering:optimizeQuality;shape-rendering:geometricPrecision;text-rendering:geometricPrecision"
       transform="matrix(0.26458333,0,0,0.26458333,-286.27582,5.1475668)">
      <path
         style="opacity:1"
         fill="#939393"
         d="m 1263.5,17.5 c 3.44,3.201 5.6,7.201 6.5,12 0.78,2.9294 0.61,5.7628 -0.5,8.5 -3.92,0.7927 -7.76,0.626 -11.5,-0.5 -0.71,-7.3771 1.13,-14.0437 5.5,-20 z"
         id="path98" />
    </g>
    <g
       id="g101"
       style="clip-rule:evenodd;fill-rule:evenodd;image-rendering:optimizeQuality;shape-rendering:geometricPrecision;text-rendering:geometricPrecision"
       transform="matrix(0.26458333,0,0,0.26458333,-286.27582,5.1475668)">
      <path
         style="opacity:1"
         fill="#787878"
         d="m 1248.5,312.5 c -0.67,-5.333 -1.33,-10.667 -2,-16 0.47,-1.401 1.14,-2.734 2,-4 1.22,0.502 2.38,0.835 3.5,1 0.82,-4.156 2.32,-7.989 4.5,-11.5 5.33,-0.667 10.67,-0.667 16,0 0.5,0.5 1,1 1.5,1.5 3.14,9.78 4.14,19.78 3,30 -3.65,2.79 -7.81,4.123 -12.5,4 -5.55,0.593 -9.72,-1.407 -12.5,-6 -1.51,-5.233 -2.51,-10.567 -3,-16 -0.5,5.657 -0.67,11.324 -0.5,17 z"
         id="path101" />
    </g>
  </g>
</svg>
