<?xml version="1.0" encoding="UTF-8" standalone="no"?>
<!-- Created with Inkscape (http://www.inkscape.org/) -->

<svg
   width="96mm"
   height="96mm"
   viewBox="0 0 96 96"
   version="1.1"
   id="svg1"
   inkscape:version="1.4.2 (ebf0e940, 2025-05-08)"
   sodipodi:docname="tractor.svg"
   xmlns:inkscape="http://www.inkscape.org/namespaces/inkscape"
   xmlns:sodipodi="http://sodipodi.sourceforge.net/DTD/sodipodi-0.dtd"
   xmlns="http://www.w3.org/2000/svg"
   xmlns:svg="http://www.w3.org/2000/svg">
  <sodipodi:namedview
     id="namedview1"
     pagecolor="#ffffff"
     bordercolor="#000000"
     borderopacity="0.25"
     inkscape:showpageshadow="2"
     inkscape:pageopacity="0.0"
     inkscape:pagecheckerboard="0"
     inkscape:deskcolor="#d1d1d1"
     inkscape:document-units="mm"
     inkscape:zoom="0.80444024"
     inkscape:cx="397.17059"
     inkscape:cy="262.91574"
     inkscape:window-width="1920"
     inkscape:window-height="1052"
     inkscape:window-x="0"
     inkscape:window-y="28"
     inkscape:window-maximized="0"
     inkscape:current-layer="layer1" />
  <defs
     id="defs1" />
  <g
     inkscape:label="Layer 1"
     inkscape:groupmode="layer"
     id="layer1">
    <g
       id="g7"
       style="clip-rule:evenodd;fill-rule:evenodd;image-rendering:optimizeQuality;shape-rendering:geometricPrecision;text-rendering:geometricPrecision"
       transform="matrix(0.30771637,0,0,0.30771637,-216.73689,-8.6958531)">
      <path
         style="opacity:1"
         fill="#686867"
         d="m 902.5,126.5 c 0,-0.333 0,-0.667 0,-1 1.332,-9.309 1.999,-18.976 2,-29 -0.167,-9.6667 -0.333,-19.3333 -0.5,-29 -1.132,7.3456 -1.966,14.6789 -2.5,22 -0.166,-7.3409 0,-14.6742 0.5,-22 1.5,-1.5 3,-3 4.5,-4.5 6.333,-0.6667 12.667,-0.6667 19,0 2.07,0.9476 3.57,2.4476 4.5,4.5 0.667,19.6667 0.667,39.333 0,59 -0.833,2.167 -2.333,3.667 -4.5,4.5 -6.333,0.667 -12.667,0.667 -19,0 -2.144,-0.792 -3.477,-2.292 -4,-4.5 z"
         id="path7" />
    </g>
    <g
       id="g8"
       style="clip-rule:evenodd;fill-rule:evenodd;image-rendering:optimizeQuality;shape-rendering:geometricPrecision;text-rendering:geometricPrecision"
       transform="matrix(0.30771637,0,0,0.30771637,-216.73689,-8.6958531)">
      <path
         style="opacity:1"
         fill="#7e7d7d"
         d="m 913.5,65.5 c 2,0 4,0 6,0 -1.274,20.6925 -1.274,41.359 0,62 -1.896,0.966 -3.896,1.299 -6,1 0,-21 0,-42 0,-63 z"
         id="path8" />
    </g>
    <g
       id="g9"
       style="clip-rule:evenodd;fill-rule:evenodd;image-rendering:optimizeQuality;shape-rendering:geometricPrecision;text-rendering:geometricPrecision"
       transform="matrix(0.30771637,0,0,0.30771637,-216.73689,-8.6958531)">
      <path
         style="opacity:1"
         fill="#7d7d7d"
         d="m 921.5,66.5 c 1.89,-0.2035 3.39,0.4632 4.5,2 0.667,19.3333 0.667,38.667 0,58 -1.011,0.837 -2.178,1.17 -3.5,1 0.202,-20.347 -0.131,-40.6804 -1,-61 z"
         id="path9" />
    </g>
    <g
       id="g10"
       style="clip-rule:evenodd;fill-rule:evenodd;image-rendering:optimizeQuality;shape-rendering:geometricPrecision;text-rendering:geometricPrecision"
       transform="matrix(0.30771637,0,0,0.30771637,-216.73689,-8.6958531)">
      <path
         style="opacity:1"
         fill="#5f5f5e"
         d="m 882.5,66.5 c -0.553,2.1569 -1.553,1.9903 -3,-0.5 -10.661,-0.4998 -21.328,-0.6665 -32,-0.5 -1.886,2.9554 -2.886,6.2887 -3,10 3.799,-0.5474 7.632,-0.8808 11.5,-1 3.252,0.0191 6.085,0.6858 8.5,2 -9.274,-0.9015 -17.941,0.7651 -26,5 -1.333,0 -2,-0.6667 -2,-2 3.473,-3.5056 4.973,-7.8389 4.5,-13 1.167,-1.1667 2.333,-2.3333 3.5,-3.5 11.333,-0.6667 22.667,-0.6667 34,0 1.824,0.66 3.157,1.8267 4,3.5 z"
         id="path10" />
    </g>
    <g
       id="g11"
       style="clip-rule:evenodd;fill-rule:evenodd;image-rendering:optimizeQuality;shape-rendering:geometricPrecision;text-rendering:geometricPrecision"
       transform="matrix(0.30771637,0,0,0.30771637,-216.73689,-8.6958531)">
      <path
         style="opacity:1"
         fill="#626261"
         d="m 821.5,68.5 c -0.809,1.7922 -1.309,3.7922 -1.5,6 -0.566,-2.2226 -1.4,-4.2226 -2.5,-6 -0.967,-1.3062 -2.301,-1.9729 -4,-2 0,11.3333 0,22.6667 0,34 -0.332,9.357 0.002,18.69 1,28 1.239,0.442 2.239,1.109 3,2 -0.709,0.904 -1.709,1.237 -3,1 -4.346,0.166 -8.679,-0.001 -13,-0.5 5.675,-0.464 6.008,-1.131 1,-2 2.646,-0.497 5.313,-0.664 8,-0.5 0,-21 0,-42 0,-63 -2,0 -4,0 -6,0 -0.341,82.492 -1.341,82.492 -3,0 -1.649,1.1477 -3.149,2.481 -4.5,4 -0.667,18.6667 -0.667,37.333 0,56 1.214,1.549 2.714,2.715 4.5,3.5 -1.063,1.188 -2.397,1.688 -4,1.5 -1.673,-0.843 -2.84,-2.176 -3.5,-4 -0.667,-19.667 -0.667,-39.3333 0,-59 0.833,-2.1667 2.333,-3.6667 4.5,-4.5 6,-0.6667 12,-0.6667 18,0 2.579,1.0757 4.246,2.909 5,5.5 z"
         id="path11" />
    </g>
    <g
       id="g12"
       style="clip-rule:evenodd;fill-rule:evenodd;image-rendering:optimizeQuality;shape-rendering:geometricPrecision;text-rendering:geometricPrecision"
       transform="matrix(0.30771637,0,0,0.30771637,-216.73689,-8.6958531)">
      <path
         style="opacity:1"
         fill="#b1b1b0"
         d="m 864.5,76.5 c 7.109,0.1522 13.776,1.8189 20,5 1.452,1.4397 2.452,3.1064 3,5 -16.986,-3.9241 -33.986,-3.9241 -51,0 0.393,-1.7838 1.059,-3.4505 2,-5 8.059,-4.2349 16.726,-5.9015 26,-5 z"
         id="path12" />
    </g>
    <g
       id="g13"
       style="clip-rule:evenodd;fill-rule:evenodd;image-rendering:optimizeQuality;shape-rendering:geometricPrecision;text-rendering:geometricPrecision"
       transform="matrix(0.30771637,0,0,0.30771637,-216.73689,-8.6958531)">
      <path
         style="opacity:1"
         fill="#8a8a89"
         d="m 887.5,86.5 c 0,1 0,2 0,3 -16.97,-5.308 -33.97,-5.308 -51,0 0,-1 0,-2 0,-3 17.014,-3.9241 34.014,-3.9241 51,0 z"
         id="path13" />
    </g>
    <g
       id="g14"
       style="clip-rule:evenodd;fill-rule:evenodd;image-rendering:optimizeQuality;shape-rendering:geometricPrecision;text-rendering:geometricPrecision"
       transform="matrix(0.30771637,0,0,0.30771637,-216.73689,-8.6958531)">
      <path
         style="opacity:1"
         fill="#b5b5b5"
         d="m 887.5,89.5 c 0.647,0.7739 0.98,1.7739 1,3 -4.318,28.539 -7.318,57.206 -9,86 -11.667,0 -23.333,0 -35,0 -2.503,-29.37 -5.503,-58.703 -9,-88 0,-0.6667 0.333,-1 1,-1 17.03,-5.308 34.03,-5.308 51,0 z"
         id="path14" />
    </g>
    <g
       id="g15"
       style="clip-rule:evenodd;fill-rule:evenodd;image-rendering:optimizeQuality;shape-rendering:geometricPrecision;text-rendering:geometricPrecision"
       transform="matrix(0.30771637,0,0,0.30771637,-216.73689,-8.6958531)">
      <path
         style="opacity:1"
         fill="#7e7e7d"
         d="m 817.5,68.5 c 1.116,18.9756 1.282,37.976 0.5,57 -1.011,0.837 -2.178,1.17 -3.5,1 -0.3,-4.599 0.033,-9.099 1,-13.5 -0.64,-4.268 -1.307,-8.435 -2,-12.5 0,-11.3333 0,-22.6667 0,-34 1.699,0.0271 3.033,0.6938 4,2 z"
         id="path15" />
    </g>
    <g
       id="g16"
       style="clip-rule:evenodd;fill-rule:evenodd;image-rendering:optimizeQuality;shape-rendering:geometricPrecision;text-rendering:geometricPrecision"
       transform="matrix(0.30771637,0,0,0.30771637,-216.73689,-8.6958531)">
      <path
         style="opacity:1"
         fill="#7d7e7d"
         d="m 907.5,68.5 c 1.332,9.4765 1.999,19.3099 2,29.5 -0.333,9.833 -0.667,19.667 -1,29.5 -0.833,-1 -1.667,-2 -2.5,-3 -0.667,-17.667 -0.667,-35.3333 0,-53 1.039,-0.7438 1.539,-1.7438 1.5,-3 z"
         id="path16" />
    </g>
    <g
       id="g27"
       style="clip-rule:evenodd;fill-rule:evenodd;image-rendering:optimizeQuality;shape-rendering:geometricPrecision;text-rendering:geometricPrecision"
       transform="matrix(0.30771637,0,0,0.30771637,-216.73689,-8.6958531)">
      <path
         style="opacity:1"
         fill="#767676"
         d="m 902.5,125.5 c 0,0.333 0,0.667 0,1 -0.991,-6.813 -1.325,-13.813 -1,-21 -3,0 -6,0 -9,0 0,24.667 0,49.333 0,74 -0.998,-24.828 -1.331,-49.828 -1,-75 5.953,0.128 6.287,-0.539 1,-2 0,-3 0,-6 0,-9 3.333,0 6.667,0 10,0 0.363,10.521 0.363,21.187 0,32 z"
         id="path27" />
    </g>
    <g
       id="g29"
       style="clip-rule:evenodd;fill-rule:evenodd;image-rendering:optimizeQuality;shape-rendering:geometricPrecision;text-rendering:geometricPrecision"
       transform="matrix(0.30771637,0,0,0.30771637,-216.73689,-8.6958531)">
      <path
         style="opacity:1"
         fill="#6b6b6a"
         d="m 817.5,68.5 c 1.1,1.7774 1.934,3.7774 2.5,6 0.191,-2.2078 0.691,-4.2078 1.5,-6 0.991,6.8134 1.325,13.8134 1,21 3.072,0.3174 6.072,-0.0159 9,-1 0.395,-3.7967 2.061,-6.7967 5,-9 0,1.3333 0.667,2 2,2 -0.941,1.5495 -1.607,3.2162 -2,5 0,1 0,2 0,3 -0.667,0 -1,0.3333 -1,1 -0.998,26.161 -1.331,52.495 -1,79 -0.832,-20.496 -1.332,-41.163 -1.5,-62 -0.168,24.503 -0.668,48.837 -1.5,73 0,-25 0,-50 0,-75 -3,0 -6,0 -9,0 0.166,6.342 0,12.675 -0.5,19 -0.792,2.606 -2.292,4.606 -4.5,6 -0.761,-0.891 -1.761,-1.558 -3,-2 -0.998,-9.31 -1.332,-18.643 -1,-28 0.693,4.065 1.36,8.232 2,12.5 -0.967,4.401 -1.3,8.901 -1,13.5 1.322,0.17 2.489,-0.163 3.5,-1 0.782,-19.024 0.616,-38.0244 -0.5,-57 z"
         id="path29" />
    </g>
    <g
       id="g30"
       style="clip-rule:evenodd;fill-rule:evenodd;image-rendering:optimizeQuality;shape-rendering:geometricPrecision;text-rendering:geometricPrecision"
       transform="matrix(0.30771637,0,0,0.30771637,-216.73689,-8.6958531)">
      <path
         style="opacity:1"
         fill="#777777"
         d="m 814.5,131.5 c -4.816,1.15 -9.816,1.316 -15,0.5 -0.916,-0.278 -1.582,-0.778 -2,-1.5 1.603,0.188 2.937,-0.312 4,-1.5 -1.786,-0.785 -3.286,-1.951 -4.5,-3.5 -0.667,-18.667 -0.667,-37.3333 0,-56 1.351,-1.519 2.851,-2.8523 4.5,-4 1.659,82.492 2.659,82.492 3,0 2,0 4,0 6,0 0,21 0,42 0,63 -2.687,-0.164 -5.354,0.003 -8,0.5 5.008,0.869 4.675,1.536 -1,2 4.321,0.499 8.654,0.666 13,0.5 z"
         id="path30" />
    </g>
    <g
       id="g33"
       style="clip-rule:evenodd;fill-rule:evenodd;image-rendering:optimizeQuality;shape-rendering:geometricPrecision;text-rendering:geometricPrecision"
       transform="matrix(0.30771637,0,0,0.30771637,-216.73689,-8.6958531)">
      <path
         style="opacity:1"
         fill="#797979"
         d="m 882.5,66.5 c 0.819,2.8054 1.319,5.8054 1.5,9 2.333,2.3333 4.667,4.6667 7,7 1.128,1.8453 1.628,3.8453 1.5,6 -0.65,-0.3039 -1.317,-0.6373 -2,-1 -1,30.659 -1.333,61.326 -1,92 -18.333,0 -36.667,0 -55,0 0,-3.333 0,-6.667 0,-10 -0.331,-26.505 0.002,-52.839 1,-79 3.497,29.297 6.497,58.63 9,88 11.667,0 23.333,0 35,0 1.682,-28.794 4.682,-57.461 9,-86 -0.02,-1.2261 -0.353,-2.2261 -1,-3 0,-1 0,-2 0,-3 -0.548,-1.8936 -1.548,-3.5603 -3,-5 -6.224,-3.1811 -12.891,-4.8478 -20,-5 -2.415,-1.3142 -5.248,-1.9809 -8.5,-2 -3.868,0.1192 -7.701,0.4526 -11.5,1 0.114,-3.7113 1.114,-7.0446 3,-10 10.672,-0.1665 21.339,2e-4 32,0.5 1.447,2.4903 2.447,2.6569 3,0.5 z"
         id="path33" />
    </g>
    <g
       id="g34"
       style="clip-rule:evenodd;fill-rule:evenodd;image-rendering:optimizeQuality;shape-rendering:geometricPrecision;text-rendering:geometricPrecision"
       transform="matrix(0.30771637,0,0,0.30771637,-216.73689,-8.6958531)">
      <path
         style="opacity:1"
         fill="#6d6d6d"
         d="m 846.5,95.5 c 3.47,-0.6252 6.304,0.3748 8.5,3 0.667,4.667 0.667,9.333 0,14 -3.667,4 -7.333,4 -11,0 -0.667,-4.667 -0.667,-9.333 0,-14 1.045,-0.8734 1.878,-1.8734 2.5,-3 z"
         id="path34" />
    </g>
    <g
       id="g82"
       style="clip-rule:evenodd;fill-rule:evenodd;image-rendering:optimizeQuality;shape-rendering:geometricPrecision;text-rendering:geometricPrecision"
       transform="matrix(0.30771637,0,0,0.30771637,-216.73689,-8.6958531)">
      <path
         style="opacity:1"
         fill="#d1d1d0"
         d="m 947.5,196.5 c 0,-0.333 0,-0.667 0,-1 1.333,16.32 2,32.986 2,50 0,16.837 -0.333,33.503 -1,50 0.332,-33.171 -0.002,-66.171 -1,-99 z"
         id="path82" />
    </g>
    <g
       id="g83"
       style="clip-rule:evenodd;fill-rule:evenodd;image-rendering:optimizeQuality;shape-rendering:geometricPrecision;text-rendering:geometricPrecision"
       transform="matrix(0.30771637,0,0,0.30771637,-216.73689,-8.6958531)">
      <path
         style="opacity:1"
         fill="#7b7b7a"
         d="m 947.5,196.5 c 0.998,32.829 1.332,65.829 1,99 0,0.667 -0.333,1 -1,1 0,-1 0,-2 0,-3 -1.43,-0.079 -2.764,0.254 -4,1 -1.529,3.029 -3.862,5.195 -7,6.5 -4.319,0.905 -8.652,1.238 -13,1 1.536,-1.599 2.036,-3.433 1.5,-5.5 -6.684,-4.534 -13.184,-9.201 -19.5,-14 4.348,-1.21 8.681,-1.21 13,0 2.971,4.088 5.637,3.921 8,-0.5 -1.108,-2.112 -2.608,-3.946 -4.5,-5.5 -0.499,-3.652 -0.665,-7.318 -0.5,-11 2.627,0.207 4.293,-0.96 5,-3.5 -1.108,-2.112 -2.608,-3.946 -4.5,-5.5 -0.498,-3.317 -0.665,-6.65 -0.5,-10 3.09,0.67 4.757,-0.497 5,-3.5 -0.762,-2.429 -2.262,-4.262 -4.5,-5.5 -0.498,-3.317 -0.665,-6.65 -0.5,-10 2.743,0.423 4.076,-0.744 4,-3.5 -0.409,-2.296 -1.576,-4.13 -3.5,-5.5 -0.498,-3.317 -0.665,-6.65 -0.5,-10 1.667,0 3.333,0 5,0 0,-2.333 0,-4.667 0,-7 -1.43,0.079 -2.764,-0.254 -4,-1 -0.987,-3.268 -1.32,-6.602 -1,-10 5.19,-0.565 6.19,1.102 3,5 1.544,1.946 3.544,2.446 6,1.5 2.248,-1.914 4.748,-3.414 7.5,-4.5 2.947,0.447 4.78,2.113 5.5,5 -6.036,5.109 -12.202,10.109 -18.5,15 -0.836,3.825 0.664,5.325 4.5,4.5 4.546,-4.214 9.379,-8.047 14.5,-11.5 0.667,4 0.667,8 0,12 -5.563,4.863 -11.396,9.363 -17.5,13.5 -2.667,1.667 -2.667,3.333 0,5 1.333,0.667 2.667,0.667 4,0 3.667,-2.667 7.333,-5.333 11,-8 0.948,-0.483 1.948,-0.649 3,-0.5 0.323,3.726 -0.011,7.393 -1,11 -5.667,3.5 -11.333,7 -17,10.5 -1.333,2.333 -1.333,4.667 0,7 1,0.667 2,0.667 3,0 4.808,-3.308 9.475,-6.808 14,-10.5 1.159,3.622 1.325,7.289 0.5,11 -4.696,3.528 -9.529,6.862 -14.5,10 -2.171,1.409 -3.838,3.242 -5,5.5 1.113,1.394 2.447,2.561 4,3.5 4.176,-2.588 8.176,-5.421 12,-8.5 0.948,-0.483 1.948,-0.649 3,-0.5 0.165,3.35 -0.002,6.683 -0.5,10 -6.333,4.568 -12.5,9.235 -18.5,14 0.333,2.333 1.667,3.667 4,4 4.994,-3.325 9.994,-6.658 15,-10 1.413,1.868 2.58,3.868 3.5,6 0.5,-31.332 0.667,-62.665 0.5,-94 z"
         id="path83" />
    </g>
    <g
       id="g100"
       style="clip-rule:evenodd;fill-rule:evenodd;image-rendering:optimizeQuality;shape-rendering:geometricPrecision;text-rendering:geometricPrecision"
       transform="matrix(0.30771637,0,0,0.30771637,-216.73689,-8.6958531)">
      <path
         style="opacity:1"
         fill="#70706f"
         d="m 831.5,259.5 c 0.356,5.577 1.356,10.91 3,16 0,0.667 0,1.333 0,2 -2.709,3.518 -6.376,5.184 -11,5 0.484,6.2 -0.349,12.2 -2.5,18 -1.451,1.964 -3.284,3.297 -5.5,4 -3.305,-1.707 -6.972,-3.04 -11,-4 4.744,-3.788 9.577,-7.455 14.5,-11 0.284,2.386 1.284,3.052 3,2 0.667,-3 0.667,-6 0,-9 -2.458,-0.849 -4.958,-2.182 -7.5,-4 4.679,0.166 9.345,-10e-4 14,-0.5 0.833,-0.833 1.667,-1.667 2.5,-2.5 0.499,-5.323 0.666,-10.656 0.5,-16 z"
         id="path100" />
    </g>
    <g
       id="g106"
       style="clip-rule:evenodd;fill-rule:evenodd;image-rendering:optimizeQuality;shape-rendering:geometricPrecision;text-rendering:geometricPrecision"
       transform="matrix(0.30771637,0,0,0.30771637,-216.73689,-8.6958531)">
      <path
         style="opacity:1"
         fill="#6b6b6a"
         d="m 899.5,246.5 c -0.237,1.291 0.096,2.291 1,3 -0.786,4.553 -3.286,7.887 -7.5,10 -0.667,5.333 -0.667,10.667 0,16 0.903,1.201 2.069,2.035 3.5,2.5 7.175,1 14.175,0.5 21,-1.5 0.378,1.975 0.711,3.975 1,6 -4.319,-1.21 -8.652,-1.21 -13,0 6.316,4.799 12.816,9.466 19.5,14 0.536,2.067 0.036,3.901 -1.5,5.5 4.348,0.238 8.681,-0.095 13,-1 3.138,-1.305 5.471,-3.471 7,-6.5 1.236,-0.746 2.57,-1.079 4,-1 0,1 0,2 0,3 -1.421,4.59 -4.421,7.756 -9,9.5 -10,0.667 -20,0.667 -30,0 -4.028,-2.903 -6.361,-6.736 -7,-11.5 0,-4.333 0,-8.667 0,-13 -2.667,0 -5.333,0 -8,0 -2.367,-1.371 -4.033,-3.371 -5,-6 -3.945,-0.991 -7.945,-1.324 -12,-1 4.329,-0.561 8.662,-1.394 13,-2.5 -18.645,-1.256 -37.312,-1.756 -56,-1.5 -0.313,-3.542 0.021,-6.875 1,-10 14.494,-0.831 29.161,-1.331 44,-1.5 -15.172,-0.169 -30.172,-0.669 -45,-1.5 19.003,0.167 38.003,0 57,-0.5 4.332,-2.489 7.332,-5.989 9,-10.5 z"
         id="path106" />
    </g>
    <g
       id="g107"
       style="clip-rule:evenodd;fill-rule:evenodd;image-rendering:optimizeQuality;shape-rendering:geometricPrecision;text-rendering:geometricPrecision"
       transform="matrix(0.30771637,0,0,0.30771637,-216.73689,-8.6958531)">
      <path
         style="opacity:1"
         fill="#626262"
         d="m 902.5,125.5 c 0.363,-10.813 0.363,-21.479 0,-32 -3.333,0 -6.667,0 -10,0 0,3 0,6 0,9 5.287,1.461 4.953,2.128 -1,2 -0.331,25.172 0.002,50.172 1,75 7.51,0.667 15.177,1.333 23,2 2.418,0.915 4.418,2.415 6,4.5 5.333,0.333 10.667,0.667 16,1 4.728,1.231 8.061,4.064 10,8.5 0,0.333 0,0.667 0,1 0.167,31.335 0,62.668 -0.5,94 -0.92,-2.132 -2.087,-4.132 -3.5,-6 -5.006,3.342 -10.006,6.675 -15,10 -2.333,-0.333 -3.667,-1.667 -4,-4 6,-4.765 12.167,-9.432 18.5,-14 0.498,-3.317 0.665,-6.65 0.5,-10 -1.052,-0.149 -2.052,0.017 -3,0.5 -3.824,3.079 -7.824,5.912 -12,8.5 -1.553,-0.939 -2.887,-2.106 -4,-3.5 1.162,-2.258 2.829,-4.091 5,-5.5 4.971,-3.138 9.804,-6.472 14.5,-10 0.825,-3.711 0.659,-7.378 -0.5,-11 -4.525,3.692 -9.192,7.192 -14,10.5 -1,0.667 -2,0.667 -3,0 -1.333,-2.333 -1.333,-4.667 0,-7 5.667,-3.5 11.333,-7 17,-10.5 0.989,-3.607 1.323,-7.274 1,-11 -1.052,-0.149 -2.052,0.017 -3,0.5 -3.667,2.667 -7.333,5.333 -11,8 -1.333,0.667 -2.667,0.667 -4,0 -2.667,-1.667 -2.667,-3.333 0,-5 6.104,-4.137 11.937,-8.637 17.5,-13.5 0.667,-4 0.667,-8 0,-12 -5.121,3.453 -9.954,7.286 -14.5,11.5 -3.836,0.825 -5.336,-0.675 -4.5,-4.5 6.298,-4.891 12.464,-9.891 18.5,-15 -0.72,-2.887 -2.553,-4.553 -5.5,-5 -2.752,1.086 -5.252,2.586 -7.5,4.5 -2.456,0.946 -4.456,0.446 -6,-1.5 3.19,-3.898 2.19,-5.565 -3,-5 -0.32,3.398 0.013,6.732 1,10 1.236,0.746 2.57,1.079 4,1 0,2.333 0,4.667 0,7 -1.667,0 -3.333,0 -5,0 -0.165,3.35 0.002,6.683 0.5,10 1.924,1.37 3.091,3.204 3.5,5.5 0.076,2.756 -1.257,3.923 -4,3.5 -0.165,3.35 0.002,6.683 0.5,10 2.238,1.238 3.738,3.071 4.5,5.5 -0.243,3.003 -1.91,4.17 -5,3.5 -0.165,3.35 0.002,6.683 0.5,10 1.892,1.554 3.392,3.388 4.5,5.5 -0.707,2.54 -2.373,3.707 -5,3.5 -0.165,3.682 10e-4,7.348 0.5,11 1.892,1.554 3.392,3.388 4.5,5.5 -2.363,4.421 -5.029,4.588 -8,0.5 -0.289,-2.025 -0.622,-4.025 -1,-6 0,-0.667 0,-1.333 0,-2 1.164,-28.497 1.33,-57.164 0.5,-86 -0.833,-0.833 -1.667,-1.667 -2.5,-2.5 -4.989,-0.499 -9.989,-0.666 -15,-0.5 0.965,20.3 1.298,40.633 1,61 0.237,1.291 -0.096,2.291 -1,3 -0.904,-0.709 -1.237,-1.709 -1,-3 0.167,-18.336 0,-36.67 -0.5,-55 -1.779,-4.112 -4.612,-7.278 -8.5,-9.5 -19,-0.667 -38,-0.667 -57,0 -4.317,2.315 -7.15,5.815 -8.5,10.5 -0.667,18.333 -0.667,36.667 0,55 1.259,4.752 4.092,8.086 8.5,10 14.828,0.831 29.828,1.331 45,1.5 -14.839,0.169 -29.506,0.669 -44,1.5 -0.979,3.125 -1.313,6.458 -1,10 18.688,-0.256 37.355,0.244 56,1.5 -4.338,1.106 -8.671,1.939 -13,2.5 0.166,5.011 -10e-4,10.011 -0.5,15 -0.833,0.833 -1.667,1.667 -2.5,2.5 -7.667,0.667 -15.333,0.667 -23,0 -0.544,-0.717 -1.211,-1.217 -2,-1.5 -0.907,-5.606 -1.24,-11.273 -1,-17 -4.794,-0.597 -9.127,0.07 -13,2 -1.644,-5.09 -2.644,-10.423 -3,-16 -5.717,-2.43 -8.717,-6.763 -9,-13 -0.298,-20.367 0.035,-40.7 1,-61 -5.011,-0.166 -10.011,0.001 -15,0.5 -1.349,0.772 -2.182,1.939 -2.5,3.5 -0.83,28.503 -0.664,56.836 0.5,85 1.607,3.215 4.274,4.549 8,4 2.542,1.818 5.042,3.151 7.5,4 0.667,3 0.667,6 0,9 -1.716,1.052 -2.716,0.386 -3,-2 -4.923,3.545 -9.756,7.212 -14.5,11 4.028,0.96 7.695,2.293 11,4 -0.789,0.283 -1.456,0.783 -2,1.5 -10.407,0.926 -20.741,0.592 -31,-1 -2.933,-2.264 -5.1,-5.098 -6.5,-8.5 -0.667,-33.333 -0.667,-66.667 0,-100 1.833,-4.5 5,-7.667 9.5,-9.5 6,-0.333 12,-0.667 18,-1 1.333,-2 3,-3.667 5,-5 7.659,-0.5 15.326,-0.666 23,-0.5 0.832,-24.163 1.332,-48.497 1.5,-73 0.168,20.837 0.668,41.504 1.5,62 0,3.333 0,6.667 0,10 18.333,0 36.667,0 55,0 -0.333,-30.674 0,-61.341 1,-92 0.683,0.3627 1.35,0.6961 2,1 2.787,0.9767 5.787,1.31 9,1 0.534,-7.3211 1.368,-14.6544 2.5,-22 0.167,9.6667 0.333,19.3333 0.5,29 -10e-4,10.024 -0.668,19.691 -2,29 z"
         id="path107" />
    </g>
    <g
       id="g108"
       style="clip-rule:evenodd;fill-rule:evenodd;image-rendering:optimizeQuality;shape-rendering:geometricPrecision;text-rendering:geometricPrecision"
       transform="matrix(0.30771637,0,0,0.30771637,-216.73689,-8.6958531)">
      <path
         style="opacity:1"
         fill="#b8b8b8"
         d="m 848.5,290.5 c -0.617,-0.111 -1.117,-0.444 -1.5,-1 -0.499,-4.989 -0.666,-9.989 -0.5,-15 -3.667,0 -7.333,0 -11,0 0.237,1.291 -0.096,2.291 -1,3 0,-0.667 0,-1.333 0,-2 3.873,-1.93 8.206,-2.597 13,-2 -0.24,5.727 0.093,11.394 1,17 z"
         id="path108" />
    </g>
    <g
       id="g109"
       style="clip-rule:evenodd;fill-rule:evenodd;image-rendering:optimizeQuality;shape-rendering:geometricPrecision;text-rendering:geometricPrecision"
       transform="matrix(0.30771637,0,0,0.30771637,-216.73689,-8.6958531)">
      <path
         style="opacity:1"
         fill="#b8b8b8"
         d="m 893.5,281.5 c 2.667,0 5.333,0 8,0 0,4.333 0,8.667 0,13 -0.983,-3.798 -1.317,-7.798 -1,-12 -2.559,0.302 -4.893,-0.032 -7,-1 z"
         id="path109" />
    </g>
    <g
       id="g110"
       style="clip-rule:evenodd;fill-rule:evenodd;image-rendering:optimizeQuality;shape-rendering:geometricPrecision;text-rendering:geometricPrecision"
       transform="matrix(0.30771637,0,0,0.30771637,-216.73689,-8.6958531)">
      <path
         style="opacity:1"
         fill="#7c7c7a"
         d="m 851.5,274.5 c 7,0 14,0 21,0 0.327,4.714 -0.007,9.38 -1,14 -6.486,-0.094 -13.153,-0.094 -20,0 0,-4.667 0,-9.333 0,-14 z"
         id="path110" />
    </g>
    <g
       id="g111"
       style="clip-rule:evenodd;fill-rule:evenodd;image-rendering:optimizeQuality;shape-rendering:geometricPrecision;text-rendering:geometricPrecision"
       transform="matrix(0.30771637,0,0,0.30771637,-216.73689,-8.6958531)">
      <path
         style="opacity:1"
         fill="#7e7e7d"
         d="m 834.5,260.5 c 18.333,0 36.667,0 55,0 0.582,3.815 -0.252,7.149 -2.5,10 -17.423,-0.992 -34.923,-1.325 -52.5,-1 0,-3 0,-6 0,-9 z"
         id="path111" />
    </g>
    <g
       id="g112"
       style="clip-rule:evenodd;fill-rule:evenodd;image-rendering:optimizeQuality;shape-rendering:geometricPrecision;text-rendering:geometricPrecision"
       transform="matrix(0.30771637,0,0,0.30771637,-216.73689,-8.6958531)">
      <path
         style="opacity:1"
         fill="#858584"
         d="m 822.5,246.5 c -0.997,-17.826 -1.33,-35.826 -1,-54 -4.014,-0.166 -8.014,0.001 -12,0.5 -0.525,0.692 -1.192,1.192 -2,1.5 -1,26.658 -1.333,53.325 -1,80 -1.164,-28.164 -1.33,-56.497 -0.5,-85 0.318,-1.561 1.151,-2.728 2.5,-3.5 4.989,-0.499 9.989,-0.666 15,-0.5 -0.965,20.3 -1.298,40.633 -1,61 z"
         id="path112" />
    </g>
    <g
       id="g113"
       style="clip-rule:evenodd;fill-rule:evenodd;image-rendering:optimizeQuality;shape-rendering:geometricPrecision;text-rendering:geometricPrecision"
       transform="matrix(0.30771637,0,0,0.30771637,-216.73689,-8.6958531)">
      <path
         style="opacity:1"
         fill="#7b7b7a"
         d="m 799.5,190.5 c 1,0 2,0 3,0 0.32,3.398 -0.013,6.732 -1,10 -5.1,2.389 -5.266,5.056 -0.5,8 0.414,-0.457 0.914,-0.791 1.5,-1 0.989,3.607 1.323,7.274 1,11 -4.762,0.592 -6.096,3.092 -4,7.5 0.948,0.483 1.948,0.649 3,0.5 -1.249,3.716 -1.249,7.216 0,10.5 -2.061,1.723 -3.728,3.723 -5,6 0.085,1.107 0.419,2.107 1,3 1.634,0.494 3.301,0.66 5,0.5 0.193,5.514 -1.474,10.347 -5,14.5 0.2,3.285 1.7,4.118 4.5,2.5 1.76,6.878 0.093,12.545 -5,17 -0.699,2.822 0.468,4.488 3.5,5 4.323,-4.086 9.323,-4.753 15,-2 -5.807,3.974 -11.474,8.14 -17,12.5 -0.906,1.699 -1.239,3.533 -1,5.5 -13.883,2.447 -19.883,-3.219 -18,-17 5.032,3.53 10.199,6.864 15.5,10 1.464,-0.959 2.297,-2.292 2.5,-4 -5.693,-5.18 -11.86,-9.847 -18.5,-14 -0.825,-3.711 -0.659,-7.378 0.5,-11 4.566,3.27 9.232,6.436 14,9.5 2.625,0.723 4.292,-0.277 5,-3 -6.064,-5.875 -12.731,-11.041 -20,-15.5 -1.16,-3.959 -1.327,-7.959 -0.5,-12 4.934,4.21 10.101,8.043 15.5,11.5 2.729,0.801 4.395,-0.199 5,-3 -0.085,-1.107 -0.419,-2.107 -1,-3 -6,-4 -12,-8 -18,-12 -1.495,-3.366 -1.162,-6.532 1,-9.5 4.133,2.302 8.133,4.802 12,7.5 4.797,1.135 6.463,-0.532 5,-5 -6.447,-4.113 -12.614,-8.613 -18.5,-13.5 -0.825,-3.711 -0.659,-7.378 0.5,-11 4.478,3.31 8.811,6.81 13,10.5 4.006,0.987 5.839,-0.513 5.5,-4.5 -4.899,-4.199 -10.066,-8.032 -15.5,-11.5 -2.631,-3.934 -1.631,-6.767 3,-8.5 2.444,1.267 4.777,2.767 7,4.5 5.421,1.28 7.421,-0.887 6,-6.5 z"
         id="path113" />
    </g>
    <g
       id="g114"
       style="clip-rule:evenodd;fill-rule:evenodd;image-rendering:optimizeQuality;shape-rendering:geometricPrecision;text-rendering:geometricPrecision"
       transform="matrix(0.30771637,0,0,0.30771637,-216.73689,-8.6958531)">
      <path
         style="opacity:1"
         fill="#b5b5b5"
         d="m 917.5,274.5 c 0,0.667 0,1.333 0,2 -6.825,2 -13.825,2.5 -21,1.5 -1.431,-0.465 -2.597,-1.299 -3.5,-2.5 -0.667,-5.333 -0.667,-10.667 0,-16 4.214,-2.113 6.714,-5.447 7.5,-10 0.904,-0.709 1.237,-1.709 1,-3 0.997,-17.492 1.33,-35.159 1,-53 5.036,-0.438 9.869,0.228 14.5,2 0.5,26.331 0.667,52.665 0.5,79 z"
         id="path114" />
    </g>
    <g
       id="g115"
       style="clip-rule:evenodd;fill-rule:evenodd;image-rendering:optimizeQuality;shape-rendering:geometricPrecision;text-rendering:geometricPrecision"
       transform="matrix(0.30771637,0,0,0.30771637,-216.73689,-8.6958531)">
      <path
         style="opacity:1"
         fill="#b5b5b5"
         d="m 822.5,246.5 c 0.283,6.237 3.283,10.57 9,13 0.166,5.344 -10e-4,10.677 -0.5,16 -0.833,0.833 -1.667,1.667 -2.5,2.5 -4.655,0.499 -9.321,0.666 -14,0.5 -3.726,0.549 -6.393,-0.785 -8,-4 -0.333,-26.675 0,-53.342 1,-80 0.808,-0.308 1.475,-0.808 2,-1.5 3.986,-0.499 7.986,-0.666 12,-0.5 -0.33,18.174 0.003,36.174 1,54 z"
         id="path115" />
    </g>
    <g
       id="g116"
       style="clip-rule:evenodd;fill-rule:evenodd;image-rendering:optimizeQuality;shape-rendering:geometricPrecision;text-rendering:geometricPrecision"
       transform="matrix(0.30771637,0,0,0.30771637,-216.73689,-8.6958531)">
      <path
         style="opacity:1"
         fill="#8a8a89"
         d="m 917.5,274.5 c 0.167,-26.335 0,-52.669 -0.5,-79 -4.631,-1.772 -9.464,-2.438 -14.5,-2 0.33,17.841 -0.003,35.508 -1,53 0.298,-20.367 -0.035,-40.7 -1,-61 5.011,-0.166 10.011,0.001 15,0.5 0.833,0.833 1.667,1.667 2.5,2.5 0.83,28.836 0.664,57.503 -0.5,86 z"
         id="path116" />
    </g>
    <g
       id="g117"
       style="clip-rule:evenodd;fill-rule:evenodd;image-rendering:optimizeQuality;shape-rendering:geometricPrecision;text-rendering:geometricPrecision"
       transform="matrix(0.30771637,0,0,0.30771637,-216.73689,-8.6958531)">
      <path
         style="opacity:1"
         fill="#b5b4b4"
         d="m 899.5,246.5 c -1.668,4.511 -4.668,8.011 -9,10.5 -18.997,0.5 -37.997,0.667 -57,0.5 -4.408,-1.914 -7.241,-5.248 -8.5,-10 -0.667,-18.333 -0.667,-36.667 0,-55 1.35,-4.685 4.183,-8.185 8.5,-10.5 19,-0.667 38,-0.667 57,0 3.888,2.222 6.721,5.388 8.5,9.5 0.5,18.33 0.667,36.664 0.5,55 z"
         id="path117" />
    </g>
  </g>
</svg>
