<?xml version="1.0" encoding="UTF-8" standalone="no"?>
<!-- Created with Inkscape (http://www.inkscape.org/) -->

<svg
   width="96mm"
   height="96mm"
   viewBox="0 0 96 96"
   version="1.1"
   id="svg1"
   inkscape:version="1.4.2 (ebf0e940, 2025-05-08)"
   sodipodi:docname="start.svg"
   xmlns:inkscape="http://www.inkscape.org/namespaces/inkscape"
   xmlns:sodipodi="http://sodipodi.sourceforge.net/DTD/sodipodi-0.dtd"
   xmlns="http://www.w3.org/2000/svg"
   xmlns:svg="http://www.w3.org/2000/svg">
  <sodipodi:namedview
     id="namedview1"
     pagecolor="#ffffff"
     bordercolor="#000000"
     borderopacity="0.25"
     inkscape:showpageshadow="2"
     inkscape:pageopacity="0.0"
     inkscape:pagecheckerboard="0"
     inkscape:deskcolor="#d1d1d1"
     inkscape:document-units="mm"
     inkscape:zoom="0.80444024"
     inkscape:cx="397.17059"
     inkscape:cy="262.91574"
     inkscape:window-width="1920"
     inkscape:window-height="1052"
     inkscape:window-x="0"
     inkscape:window-y="28"
     inkscape:window-maximized="0"
     inkscape:current-layer="layer1" />
  <defs
     id="defs1" />
  <g
     inkscape:label="Layer 1"
     inkscape:groupmode="layer"
     id="layer1">
    <g
       id="g193"
       style="clip-rule:evenodd;fill-rule:evenodd;image-rendering:optimizeQuality;shape-rendering:geometricPrecision;text-rendering:geometricPrecision"
       transform="matrix(0.29075659,0,0,0.29075659,-208.23934,-112.64885)">
      <path
         style="opacity:1"
         fill="#777777"
         d="m 757.5,576.5 c -1.615,-15.722 -1.282,-31.388 1,-47 9.255,-40.765 32.589,-70.598 70,-89.5 58.011,-21.774 107.511,-9.607 148.5,36.5 28.29,39.543 33.96,82.21 17,128 -30.308,60.738 -79.142,85.238 -146.5,73.5 -49.067,-16.993 -79.067,-50.826 -90,-101.5 z"
         id="path193" />
    </g>
    <g
       id="g194"
       style="clip-rule:evenodd;fill-rule:evenodd;image-rendering:optimizeQuality;shape-rendering:geometricPrecision;text-rendering:geometricPrecision"
       transform="matrix(0.29075659,0,0,0.29075659,-208.23934,-112.64885)">
      <path
         style="opacity:1"
         fill="#f8f8f8"
         d="m 870.5,437.5 c 47.072,-0.7 83.238,18.633 108.5,58 23.33,45.976 20.329,89.976 -9,132 -32.867,39.523 -74.367,53.023 -124.5,40.5 -46.505,-18.177 -73.338,-52.011 -80.5,-101.5 -2.431,-51.855 18.736,-90.689 63.5,-116.5 13.477,-6.383 27.477,-10.55 42,-12.5 z"
         id="path194" />
    </g>
    <g
       id="g195"
       style="clip-rule:evenodd;fill-rule:evenodd;image-rendering:optimizeQuality;shape-rendering:geometricPrecision;text-rendering:geometricPrecision"
       transform="matrix(0.29075659,0,0,0.29075659,-208.23934,-112.64885)">
      <path
         style="opacity:1"
         fill="#757575"
         d="m 843.5,484.5 c 9.357,-0.15 18.691,0.183 28,1 8.88,1.758 17.547,4.258 26,7.5 16.485,2.503 31.152,-1.497 44,-12 1.525,-1.009 3.192,-1.509 5,-1.5 1.013,11.057 2.513,22.057 4.5,33 3.587,17.269 6.92,34.602 10,52 0.999,5.313 1.332,10.646 1,16 -13.579,11.035 -29.079,15.535 -46.5,13.5 -9.283,-2.206 -18.283,-5.206 -27,-9 -17.179,-4.064 -32.846,-0.898 -47,9.5 -0.333,1 -0.667,2 -1,3 3.566,14.296 7.566,28.462 12,42.5 -0.185,5.928 -3.185,8.261 -9,7 -1.549,-1.214 -2.715,-2.714 -3.5,-4.5 -13.815,-47.248 -27.649,-94.581 -41.5,-142 2.916,-6.718 7.25,-7.718 13,-3 6.096,-3.715 12.429,-6.881 19,-9.5 4.216,-1.684 8.549,-2.851 13,-3.5 z"
         id="path195" />
    </g>
    <g
       id="g196"
       style="clip-rule:evenodd;fill-rule:evenodd;image-rendering:optimizeQuality;shape-rendering:geometricPrecision;text-rendering:geometricPrecision"
       transform="matrix(0.29075659,0,0,0.29075659,-208.23934,-112.64885)">
      <path
         style="opacity:1"
         fill="#f4f4f4"
         d="m 882.5,507.5 c 0.876,-0.131 1.543,0.202 2,1 2.667,5.667 5.333,11.333 8,17 6.885,1.736 13.885,2.903 21,3.5 -4.527,4.527 -9.027,9.027 -13.5,13.5 -0.491,6.064 0.009,12.064 1.5,18 -0.333,1 -0.667,2 -1,3 -5.614,-3.391 -11.447,-6.391 -17.5,-9 -6.062,2.947 -11.895,6.28 -17.5,10 0.458,-6.703 1.458,-13.537 3,-20.5 -4.287,-5.289 -8.954,-10.289 -14,-15 6.629,-1.329 13.295,-2.496 20,-3.5 3.251,-5.827 5.918,-11.827 8,-18 z"
         id="path196" />
    </g>
    <g
       id="g197"
       style="clip-rule:evenodd;fill-rule:evenodd;image-rendering:optimizeQuality;shape-rendering:geometricPrecision;text-rendering:geometricPrecision"
       transform="matrix(0.29075659,0,0,0.29075659,-208.23934,-112.64885)">
      <path
         style="opacity:1"
         fill="#b0b0b0"
         d="m 843.5,484.5 c 3.651,-0.665 7.485,-0.999 11.5,-1 5.752,-0.189 11.252,0.478 16.5,2 -9.309,-0.817 -18.643,-1.15 -28,-1 z"
         id="path197" />
    </g>
    <g
       id="g199"
       style="clip-rule:evenodd;fill-rule:evenodd;image-rendering:optimizeQuality;shape-rendering:geometricPrecision;text-rendering:geometricPrecision"
       transform="matrix(0.29075659,0,0,0.29075659,-208.23934,-112.64885)">
      <path
         style="opacity:1"
         fill="#c3c2c2"
         d="m 758.5,529.5 c -2.282,15.612 -2.615,31.278 -1,47 -0.768,-0.763 -1.268,-1.763 -1.5,-3 -0.667,-13 -0.667,-26 0,-39 0.757,-1.815 1.59,-3.481 2.5,-5 z"
         id="path199" />
    </g>
  </g>
</svg>
