<?xml version="1.0" encoding="UTF-8" standalone="no"?>
<!-- Created with Inkscape (http://www.inkscape.org/) -->

<svg
   width="96mm"
   height="96mm"
   viewBox="0 0 96 96"
   version="1.1"
   id="svg1"
   inkscape:version="1.4.2 (ebf0e940, 2025-05-08)"
   sodipodi:docname="bicycle.svg"
   xmlns:inkscape="http://www.inkscape.org/namespaces/inkscape"
   xmlns:sodipodi="http://sodipodi.sourceforge.net/DTD/sodipodi-0.dtd"
   xmlns="http://www.w3.org/2000/svg"
   xmlns:svg="http://www.w3.org/2000/svg">
  <sodipodi:namedview
     id="namedview1"
     pagecolor="#ffffff"
     bordercolor="#000000"
     borderopacity="0.25"
     inkscape:showpageshadow="2"
     inkscape:pageopacity="0.0"
     inkscape:pagecheckerboard="0"
     inkscape:deskcolor="#d1d1d1"
     inkscape:document-units="mm"
     inkscape:zoom="0.80444024"
     inkscape:cx="397.17059"
     inkscape:cy="262.91574"
     inkscape:window-width="1920"
     inkscape:window-height="1052"
     inkscape:window-x="0"
     inkscape:window-y="28"
     inkscape:window-maximized="0"
     inkscape:current-layer="layer1" />
  <defs
     id="defs1" />
  <g
     inkscape:label="Layer 1"
     inkscape:groupmode="layer"
     id="layer1">
    <g
       id="g18"
       style="clip-rule:evenodd;fill-rule:evenodd;image-rendering:optimizeQuality;shape-rendering:geometricPrecision;text-rendering:geometricPrecision"
       transform="matrix(0.30251886,0,0,0.30251886,-9.2148116,-4.3079341)">
      <path
         style="opacity:1"
         fill="#d2d1d2"
         d="m 195.5,126.5 c -0.633,18.569 0.034,36.902 2,55 -1,0 -2,0 -3,0 -0.33,-18.508 0.003,-36.841 1,-55 z"
         id="path18" />
    </g>
    <g
       id="g20"
       style="clip-rule:evenodd;fill-rule:evenodd;image-rendering:optimizeQuality;shape-rendering:geometricPrecision;text-rendering:geometricPrecision"
       transform="matrix(0.30251886,0,0,0.30251886,-9.2148116,-4.3079341)">
      <path
         style="opacity:1"
         fill="#787878"
         d="m 173.5,165.5 c 0.166,6.342 0,12.675 -0.5,19 -0.667,0.667 -1.333,1.333 -2,2 -0.169,-6.359 -0.669,-12.693 -1.5,-19 -0.607,0.124 -0.94,0.457 -1,1 -0.929,0.815 -1.929,1.648 -3,2.5 -5.667,0.667 -11.333,0.667 -17,0 -2.667,-3.667 -2.667,-7.333 0,-11 6,-0.667 12,-0.667 18,0 1.726,1.53 3.726,2.53 6,3 0.752,0.671 1.086,1.504 1,2.5 z"
         id="path20" />
    </g>
    <g
       id="g31"
       style="clip-rule:evenodd;fill-rule:evenodd;image-rendering:optimizeQuality;shape-rendering:geometricPrecision;text-rendering:geometricPrecision"
       transform="matrix(0.30251886,0,0,0.30251886,-9.2148116,-4.3079341)">
      <path
         style="opacity:1"
         fill="#a3a3a3"
         d="m 173.5,165.5 c 0.351,6.565 1.351,12.899 3,19 0.261,6.572 -0.406,12.906 -2,19 -0.147,-4.714 0.186,-9.381 1,-14 -2.266,0.359 -4.099,-0.308 -5.5,-2 -0.172,-6.513 -0.672,-12.847 -1.5,-19 0.06,-0.543 0.393,-0.876 1,-1 0.831,6.307 1.331,12.641 1.5,19 0.667,-0.667 1.333,-1.333 2,-2 0.5,-6.325 0.666,-12.658 0.5,-19 z"
         id="path31" />
    </g>
    <g
       id="g55"
       style="clip-rule:evenodd;fill-rule:evenodd;image-rendering:optimizeQuality;shape-rendering:geometricPrecision;text-rendering:geometricPrecision"
       transform="matrix(0.30251886,0,0,0.30251886,-9.2148116,-4.3079341)">
      <path
         style="opacity:1"
         fill="#7b7a7a"
         d="m 195.5,126.5 c -0.997,18.159 -1.33,36.492 -1,55 1,0 2,0 3,0 1.548,0.321 2.215,1.321 2,3 2.292,-0.256 4.459,0.077 6.5,1 0.169,6.691 0.669,13.358 1.5,20 0.882,-1.26 1.882,-2.426 3,-3.5 5.333,-0.667 10.667,-0.667 16,0 3.792,2.053 4.958,5.219 3.5,9.5 -0.833,0.833 -1.667,1.667 -2.5,2.5 -6,0.667 -12,0.667 -18,0 -1.377,-2.308 -3.377,-3.808 -6,-4.5 -0.831,-6.642 -1.331,-13.309 -1.5,-20 -0.724,14.063 -0.058,28.063 2,42 5.917,5.164 7.751,11.497 5.5,19 -1.359,2.192 -3.192,3.859 -5.5,5 -0.333,2.333 -0.667,4.667 -1,7 -1.011,0.837 -2.178,1.17 -3.5,1 0,-2.333 0,-4.667 0,-7 -1.333,0 -2.667,0 -4,0 0,14.667 0,29.333 0,44 -2.225,4.609 -5.891,6.109 -11,4.5 -1.549,-1.214 -2.715,-2.714 -3.5,-4.5 -0.5,-14.329 -0.667,-28.663 -0.5,-43 -1,0 -2,0 -3,0 0.162,2.027 -0.005,4.027 -0.5,6 -1.587,1.227 -2.921,0.894 -4,-1 0.484,-4.696 -1.183,-8.363 -5,-11 -2.939,-7.375 -1.439,-13.708 4.5,-19 1.589,-9.598 2.256,-19.265 2,-29 1.594,-6.094 2.261,-12.428 2,-19 0,-1 0,-2 0,-3 1.667,0 3.333,0 5,0 0.333,-18.345 0,-36.679 -1,-55 -3.032,-2.734 -5.032,-6.068 -6,-10 -3.35,0.165 -6.683,-0.002 -10,-0.5 -4.419,-3.127 -9.252,-5.293 -14.5,-6.5 -1.167,0.333 -2.333,0.667 -3.5,1 -5.77,7.94 -12.103,15.44 -19,22.5 -6.425,2.767 -10.092,0.6 -11,-6.5 0.077,-1.799 0.577,-3.466 1.5,-5 7.527,-8.86 15.694,-17.027 24.5,-24.5 9.992,-2.3323 18.659,0.001 26,7 1.634,0.494 3.301,0.66 5,0.5 -0.166,-5.6764 0.001,-11.3431 0.5,-17 1.333,-1.3333 2.667,-1.3333 4,0 0.17,5.6958 0.67,11.3624 1.5,17 0.833,-18.3243 1.333,-36.6576 1.5,-55 4.3,-4.9459 8.967,-5.2793 14,-1 0.5,18.6637 0.667,37.3304 0.5,56 1,0 2,0 3,0 0,-5.6667 0,-11.3333 0,-17 1.333,0 2.667,0 4,0 0,5.6667 0,11.3333 0,17 5.767,-0.926 10.767,-3.426 15,-7.5 7.655,-1.6295 14.655,-0.2962 21,4 7.133,5.799 13.633,12.299 19.5,19.5 3.8,4.815 3.3,8.982 -1.5,12.5 -3.134,0.79 -6.134,0.457 -9,-1 -5.167,-6.5 -10.333,-13 -15.5,-19.5 -2.995,-2.765 -6.495,-3.598 -10.5,-2.5 -5.561,4.3 -11.895,6.633 -19,7 -1.513,3.897 -3.846,7.063 -7,9.5 z"
         id="path55" />
    </g>
    <g
       id="g56"
       style="clip-rule:evenodd;fill-rule:evenodd;image-rendering:optimizeQuality;shape-rendering:geometricPrecision;text-rendering:geometricPrecision"
       transform="matrix(0.30251886,0,0,0.30251886,-9.2148116,-4.3079341)">
      <path
         style="opacity:1"
         fill="#b1b1b0"
         d="m 180.5,184.5 c 0.666,3.819 0.999,7.819 1,12 0.109,4.778 -0.391,9.444 -1.5,14 -0.802,-8.745 -0.636,-17.412 0.5,-26 z"
         id="path56" />
    </g>
    <g
       id="g57"
       style="clip-rule:evenodd;fill-rule:evenodd;image-rendering:optimizeQuality;shape-rendering:geometricPrecision;text-rendering:geometricPrecision"
       transform="matrix(0.30251886,0,0,0.30251886,-9.2148116,-4.3079341)">
      <path
         style="opacity:1"
         fill="#70706f"
         d="m 197.5,203.5 c 0,-1.667 0,-3.333 0,-5 -0.165,-3.682 0.001,-7.348 0.5,-11 0.414,0.457 0.914,0.791 1.5,1 1.165,8.647 1.332,17.314 0.5,26 -0.795,-3.812 -1.629,-7.479 -2.5,-11 z"
         id="path57" />
    </g>
    <g
       id="g58"
       style="clip-rule:evenodd;fill-rule:evenodd;image-rendering:optimizeQuality;shape-rendering:geometricPrecision;text-rendering:geometricPrecision"
       transform="matrix(0.30251886,0,0,0.30251886,-9.2148116,-4.3079341)">
      <path
         style="opacity:1"
         fill="#b6b6b6"
         d="m 197.5,198.5 c 0,1.667 0,3.333 0,5 0.164,2.687 -0.003,5.354 -0.5,8 -0.915,-0.828 -1.581,-1.828 -2,-3 -0.832,-8.021 -0.665,-16.021 0.5,-24 0.667,4.817 1.334,9.483 2,14 z"
         id="path58" />
    </g>
    <g
       id="g59"
       style="clip-rule:evenodd;fill-rule:evenodd;image-rendering:optimizeQuality;shape-rendering:geometricPrecision;text-rendering:geometricPrecision"
       transform="matrix(0.30251886,0,0,0.30251886,-9.2148116,-4.3079341)">
      <path
         style="opacity:1"
         fill="#bab9b9"
         d="m 185.5,117.5 c 1.667,0 3.333,0 5,0 0,29.333 0,58.667 0,88 -1.667,0 -3.333,0 -5,0 0,-29.333 0,-58.667 0,-88 z"
         id="path59" />
    </g>
    <g
       id="g60"
       style="clip-rule:evenodd;fill-rule:evenodd;image-rendering:optimizeQuality;shape-rendering:geometricPrecision;text-rendering:geometricPrecision"
       transform="matrix(0.30251886,0,0,0.30251886,-9.2148116,-4.3079341)">
      <path
         style="opacity:1"
         fill="#b8b6b5"
         d="m 133.5,109.5 c 3.5,-0.005 5,1.662 4.5,5 -4.048,4.927 -8.215,9.76 -12.5,14.5 -3.611,1.254 -5.111,0.088 -4.5,-3.5 4,-5.495 8.166,-10.829 12.5,-16 z"
         id="path60" />
    </g>
    <g
       id="g61"
       style="clip-rule:evenodd;fill-rule:evenodd;image-rendering:optimizeQuality;shape-rendering:geometricPrecision;text-rendering:geometricPrecision"
       transform="matrix(0.30251886,0,0,0.30251886,-9.2148116,-4.3079341)">
      <path
         style="opacity:1"
         fill="#b8b7b5"
         d="m 240.5,109.5 c 5.587,4.756 10.753,10.089 15.5,16 -0.057,3.465 -1.891,4.631 -5.5,3.5 -4.521,-5.02 -8.855,-10.187 -13,-15.5 1.024,-1.352 2.024,-2.685 3,-4 z"
         id="path61" />
    </g>
    <g
       id="g62"
       style="clip-rule:evenodd;fill-rule:evenodd;image-rendering:optimizeQuality;shape-rendering:geometricPrecision;text-rendering:geometricPrecision"
       transform="matrix(0.30251886,0,0,0.30251886,-9.2148116,-4.3079341)">
      <path
         style="opacity:1"
         fill="#bcbbb9"
         d="m 222.5,99.5 c 5.694,-0.0473 10.527,1.953 14.5,6 0.684,1.284 0.517,2.451 -0.5,3.5 -2.131,-0.398 -4.131,-1.398 -6,-3 -3.333,-0.667 -6.667,-0.667 -10,0 -4,2.333 -8,4.667 -12,7 -13.667,0.667 -27.333,0.667 -41,0 -4.259,-1.934 -8.259,-4.268 -12,-7 -3.333,-0.667 -6.667,-0.667 -10,0 -1.225,1.563 -2.725,2.73 -4.5,3.5 -1.5,-0.167 -2.333,-1 -2.5,-2.5 2.931,-4.799 7.264,-6.965 13,-6.5 2,0.167 4,0.333 6,0.5 3.057,2.723 6.39,5.056 10,7 13.667,0.667 27.333,0.667 41,0 4.332,-3.523 8.999,-6.356 14,-8.5 z"
         id="path62" />
    </g>
    <g
       id="g63"
       style="clip-rule:evenodd;fill-rule:evenodd;image-rendering:optimizeQuality;shape-rendering:geometricPrecision;text-rendering:geometricPrecision"
       transform="matrix(0.30251886,0,0,0.30251886,-9.2148116,-4.3079341)">
      <path
         style="opacity:1"
         fill="#bcbbbb"
         d="m 185.5,208.5 c 3.152,-0.541 5.652,0.459 7.5,3 0.549,5.862 1.882,11.529 4,17 3,4.667 6,9.333 9,14 1.106,5.915 -1.394,9.415 -7.5,10.5 -6.667,0.667 -13.333,0.667 -20,0 -6.864,-0.881 -9.364,-4.714 -7.5,-11.5 3.726,-4.728 7.059,-9.728 10,-15 1.03,-4.273 1.697,-8.606 2,-13 0.366,-1.952 1.199,-3.618 2.5,-5 z"
         id="path63" />
    </g>
    <g
       id="g81"
       style="clip-rule:evenodd;fill-rule:evenodd;image-rendering:optimizeQuality;shape-rendering:geometricPrecision;text-rendering:geometricPrecision"
       transform="matrix(0.30251886,0,0,0.30251886,-9.2148116,-4.3079341)">
      <path
         style="opacity:1"
         fill="#b1b1b1"
         d="m 199.5,263.5 c -0.665,-1.869 -1.331,-3.869 -2,-6 -0.667,14.494 -1.333,28.828 -2,43 0,-14.667 0,-29.333 0,-44 1.333,0 2.667,0 4,0 0,2.333 0,4.667 0,7 z"
         id="path81" />
    </g>
  </g>
</svg>
