<?xml version="1.0" encoding="UTF-8" standalone="no"?>
<!-- Created with Inkscape (http://www.inkscape.org/) -->

<svg
   width="96mm"
   height="96mm"
   viewBox="0 0 96 96"
   version="1.1"
   id="svg1"
   inkscape:version="1.4.2 (ebf0e940, 2025-05-08)"
   sodipodi:docname="train.svg"
   xmlns:inkscape="http://www.inkscape.org/namespaces/inkscape"
   xmlns:sodipodi="http://sodipodi.sourceforge.net/DTD/sodipodi-0.dtd"
   xmlns="http://www.w3.org/2000/svg"
   xmlns:svg="http://www.w3.org/2000/svg">
  <sodipodi:namedview
     id="namedview1"
     pagecolor="#ffffff"
     bordercolor="#000000"
     borderopacity="0.25"
     inkscape:showpageshadow="2"
     inkscape:pageopacity="0.0"
     inkscape:pagecheckerboard="0"
     inkscape:deskcolor="#d1d1d1"
     inkscape:document-units="mm"
     inkscape:zoom="0.80444024"
     inkscape:cx="397.17059"
     inkscape:cy="262.91574"
     inkscape:window-width="1920"
     inkscape:window-height="1052"
     inkscape:window-x="0"
     inkscape:window-y="28"
     inkscape:window-maximized="0"
     inkscape:current-layer="layer1" />
  <defs
     id="defs1" />
  <g
     inkscape:label="Layer 1"
     inkscape:groupmode="layer"
     id="layer1">
    <g
       id="g13"
       style="clip-rule:evenodd;fill-rule:evenodd;image-rendering:optimizeQuality;shape-rendering:geometricPrecision;text-rendering:geometricPrecision"
       transform="matrix(0.26458333,0,0,0.26458333,-33.993115,6.1700311)">
      <path
         style="opacity:1"
         fill="#ece8e7"
         d="m 358.5,61.5 c 1.25,0.0774 2.083,0.744 2.5,2 1.113,-1.2111 2.28,-1.2111 3.5,0 1.755,5.149 2.255,10.4823 1.5,16 0.333,-0.6667 0.667,-1.3333 1,-2 1.333,1.3333 2.667,2.6667 4,4 1.664,-2.3048 3.164,-1.9715 4.5,1 -1.556,2.2015 -2.723,2.2015 -3.5,0 -0.36,1.9211 -1.194,3.5878 -2.5,5 -0.333,-0.6667 -0.667,-1.3333 -1,-2 -2.704,3.0472 -2.037,5.3805 2,7 2.528,-0.9978 2.528,-1.8311 0,-2.5 0.691,-1.0674 1.191,-2.2341 1.5,-3.5 0.333,0.6667 0.667,1.3333 1,2 0.667,-1.3333 1.333,-1.3333 2,0 0.54,1.6346 0.04,2.9679 -1.5,4 1.978,0.2377 3.645,1.5711 5,4 -1.467,0.223 -2.967,0.5563 -4.5,1 -0.667,2 -0.667,4 0,6 0.667,-1.333 1.333,-1.333 2,0 0.333,-0.667 0.667,-1.333 1,-2 0.029,2.867 0.862,5.367 2.5,7.5 -1.801,0.317 -2.134,0.984 -1,2 1.1,0.432 1.767,-0.068 2,-1.5 -1.588,-4.36 -0.921,-4.86 2,-1.5 -0.727,1.399 -1.227,2.899 -1.5,4.5 -1.011,0.837 -2.178,1.17 -3.5,1 -0.149,1.052 0.017,2.052 0.5,3 1.333,-1.333 2.667,-1.333 4,0 0.763,-2.563 1.263,-2.563 1.5,0 -1.751,1.615 -3.751,3.781 -6,6.5 1.333,0.333 2.667,0.667 4,1 -4.619,5.13 -5.119,10.297 -1.5,15.5 0.849,-2.006 2.015,-2.672 3.5,-2 -3.373,2.553 -4.539,5.886 -3.5,10 0.333,-0.333 0.667,-0.667 1,-1 0.199,1.902 1.033,3.402 2.5,4.5 -1.444,3.753 -2.778,7.586 -4,11.5 0.346,1.196 0.846,1.196 1.5,0 0.203,3.161 -1.297,5.328 -4.5,6.5 1.391,1.65 2.891,2.15 4.5,1.5 0.317,1.801 0.984,2.134 2,1 0.127,1.277 -0.373,2.443 -1.5,3.5 0.522,0.95 1.189,1.784 2,2.5 -1.17,4.048 -3.17,7.548 -6,10.5 0.928,0.388 1.595,1.055 2,2 -1.749,2.086 -3.083,4.419 -4,7 0.333,0.333 0.667,0.667 1,1 -1.41,0.368 -2.41,1.201 -3,2.5 2.164,0.74 4.498,1.073 7,1 1.147,-0.318 1.981,-0.984 2.5,-2 1.145,1.751 1.645,3.584 1.5,5.5 -1.887,0.163 -3.387,-0.671 -4.5,-2.5 -3.357,1.242 -3.19,2.076 0.5,2.5 -0.457,0.414 -0.791,0.914 -1,1.5 0.667,0.333 1.333,0.667 2,1 -0.667,1 -1.333,2 -2,3 0.346,1.196 0.846,1.196 1.5,0 1.206,4.51 1.206,9.176 0,14 -1.688,0.825 -1.855,1.825 -0.5,3 -2.566,0.779 -4.566,2.279 -6,4.5 3.84,1.64 3.84,3.14 0,4.5 1.303,2.089 0.803,3.756 -1.5,5 -1.324,-1.38 -2.657,-1.714 -4,-1 -0.617,-0.949 -0.451,-1.782 0.5,-2.5 -1.201,-0.903 -2.035,-2.069 -2.5,-3.5 -2.046,2.773 -1.879,5.273 0.5,7.5 -1.596,4.903 -2.596,10.07 -3,15.5 -2.133,-2.628 -2.466,-5.461 -1,-8.5 -1.244,-0.456 -2.077,0.044 -2.5,1.5 -2.405,-3.062 -1.905,-4.062 1.5,-3 1.333,-1.333 1.333,-2.667 0,-4 -1.83,1.527 -2.83,1.027 -3,-1.5 0.507,-5.132 0.507,-10.632 0,-16.5 -1,0 -2,0 -3,0 0.982,-3.324 0.649,-6.324 -1,-9 0.683,-2.961 1.516,-3.295 2.5,-1 1.63,-1.651 1.463,-3.317 -0.5,-5 0.333,-0.667 0.667,-1.333 1,-2 1.148,-1.85 2.481,-2.517 4,-2 -2.052,-2.48 -4.385,-3.814 -7,-4 1.282,-1.679 2.282,-3.513 3,-5.5 -2.186,-0.604 -2.352,-1.77 -0.5,-3.5 0.333,0.667 0.667,1.333 1,2 1.036,-5.23 0.536,-10.23 -1.5,-15 2.677,-1.764 2.344,-2.93 -1,-3.5 0.948,-0.483 1.948,-0.649 3,-0.5 -1.447,-2.316 -2.113,-4.649 -2,-7 -1.489,-0.033 -2.822,-0.533 -4,-1.5 3.168,-0.582 3.501,-1.582 1,-3 0.828,-0.915 1.828,-1.581 3,-2 -0.852,-2.417 -1.519,-4.917 -2,-7.5 0.029,-1.529 0.696,-2.696 2,-3.5 -1.779,0.979 -3.445,0.646 -5,-1 2.386,-0.284 3.052,-1.284 2,-3 0.667,-0.667 1.333,-1.333 2,-2 -0.413,-4.652 -1.413,-9.152 -3,-13.5 1.673,-2.023 2.34,-4.356 2,-7 -3.79,0.492 -4.456,-0.341 -2,-2.5 -1.211,-1.113 -1.211,-2.28 0,-3.5 -2.078,-2.585 -1.411,-4.752 2,-6.5 -2.391,-1.309 -2.391,-2.309 0,-3 -0.333,-0.333 -0.667,-0.667 -1,-1 0.455,-2.312 1.455,-4.312 3,-6 -0.928,-0.388 -1.595,-1.055 -2,-2 1.073,-1.4162 1.073,-2.7496 0,-4 0.857,-0.6891 1.523,-1.5224 2,-2.5 -1.412,-1.3064 -3.079,-2.1397 -5,-2.5 2.31,-0.4966 4.643,-0.6633 7,-0.5 -0.34,-2.6441 0.327,-4.9775 2,-7 -1.53,-1.7262 -2.53,-3.7262 -3,-6 1.195,-1.4675 1.195,-2.9675 0,-4.5 2.256,-2.4848 2.256,-4.8182 0,-7 1.036,-1.7755 1.036,-3.6089 0,-5.5 z"
         id="path13" />
    </g>
    <g
       id="g26"
       style="clip-rule:evenodd;fill-rule:evenodd;image-rendering:optimizeQuality;shape-rendering:geometricPrecision;text-rendering:geometricPrecision"
       transform="matrix(0.26458333,0,0,0.26458333,-33.993115,6.1700311)">
      <path
         style="opacity:1"
         fill="#6b3c39"
         d="m 301.5,123.5 c 0.79,0.901 1.79,1.568 3,2 7.287,6.368 8.787,14.034 4.5,23 -2.06,2.786 -3.56,5.786 -4.5,9 -1.333,0.667 -2.333,1.667 -3,3 -1.646,2.312 -3.646,4.312 -6,6 -2.021,-1.355 -3.688,-3.021 -5,-5 -4.066,-4.574 -7.399,-9.574 -10,-15 -1.261,-5.342 -1.261,-10.675 0,-16 2.425,-3.049 5.425,-5.382 9,-7 3.952,-1.178 7.952,-1.178 12,0 z"
         id="path26" />
    </g>
    <g
       id="g33"
       style="clip-rule:evenodd;fill-rule:evenodd;image-rendering:optimizeQuality;shape-rendering:geometricPrecision;text-rendering:geometricPrecision"
       transform="matrix(0.26458333,0,0,0.26458333,-33.993115,6.1700311)">
      <path
         style="opacity:1"
         fill="#7c7a7a"
         d="m 304.5,157.5 c 0.94,-3.214 2.44,-6.214 4.5,-9 4.287,-8.966 2.787,-16.632 -4.5,-23 0.952,-10.282 1.286,-20.615 1,-31 4.333,0 8.667,0 13,0 0,26.333 0,52.667 0,79 -4.667,0 -9.333,0 -14,0 0,-5.333 0,-10.667 0,-16 z"
         id="path33" />
    </g>
    <g
       id="g36"
       style="clip-rule:evenodd;fill-rule:evenodd;image-rendering:optimizeQuality;shape-rendering:geometricPrecision;text-rendering:geometricPrecision"
       transform="matrix(0.26458333,0,0,0.26458333,-33.993115,6.1700311)">
      <path
         style="opacity:1"
         fill="#9a4f4f"
         d="m 293.5,124.5 c 11.936,1.444 16.769,8.111 14.5,20 -2.947,6.91 -7.114,12.91 -12.5,18 -7.378,-6.585 -12.044,-14.752 -14,-24.5 -0.006,-2.3 0.494,-4.466 1.5,-6.5 2.998,-3.238 6.498,-5.571 10.5,-7 z"
         id="path36" />
    </g>
    <g
       id="g37"
       style="clip-rule:evenodd;fill-rule:evenodd;image-rendering:optimizeQuality;shape-rendering:geometricPrecision;text-rendering:geometricPrecision"
       transform="matrix(0.26458333,0,0,0.26458333,-33.993115,6.1700311)">
      <path
         style="opacity:1"
         fill="#682a2e"
         d="m 293.5,131.5 c 6.32,-0.18 8.82,2.82 7.5,9 -3.62,3.987 -7.287,3.987 -11,0 -1.335,-4.108 -0.168,-7.108 3.5,-9 z"
         id="path37" />
    </g>
    <g
       id="g38"
       style="clip-rule:evenodd;fill-rule:evenodd;image-rendering:optimizeQuality;shape-rendering:geometricPrecision;text-rendering:geometricPrecision"
       transform="matrix(0.26458333,0,0,0.26458333,-33.993115,6.1700311)">
      <path
         style="opacity:1"
         fill="#f3d8db"
         d="m 292.5,134.5 c 4.506,-0.973 6.672,0.694 6.5,5 -3.493,3.002 -5.993,2.335 -7.5,-2 0.185,-1.084 0.518,-2.084 1,-3 z"
         id="path38" />
    </g>
    <g
       id="g55"
       style="clip-rule:evenodd;fill-rule:evenodd;image-rendering:optimizeQuality;shape-rendering:geometricPrecision;text-rendering:geometricPrecision"
       transform="matrix(0.26458333,0,0,0.26458333,-33.993115,6.1700311)">
      <path
         style="opacity:1"
         fill="#656565"
         d="m 337.5,21.5 c 2.671,11.5231 4.504,23.1898 5.5,35 0.341,49.081 0.508,98.081 0.5,147 -0.651,-0.591 -1.318,-1.257 -2,-2 -0.989,-3.607 -1.323,-7.274 -1,-11 -1.859,-0.039 -3.192,0.794 -4,2.5 0.453,3.227 1.453,6.227 3,9 -0.228,0.399 -0.562,0.565 -1,0.5 -2.488,-1.556 -3.488,-3.889 -3,-7 -0.484,-3.075 0.516,-5.409 3,-7 0.98,-2.586 1.313,-5.253 1,-8 -6,0 -12,0 -18,0 -0.831,14.494 -1.331,29.161 -1.5,44 -0.169,-14.839 -0.669,-29.506 -1.5,-44 -2.667,0 -5.333,0 -8,0 -0.111,-0.617 -0.444,-1.117 -1,-1.5 1.667,-0.333 3.333,-0.667 5,-1 8.693,0.075 17.36,-0.091 26,-0.5 -0.671,-1.446 -1.838,-2.112 -3.5,-2 -17.992,-1.316 -35.492,-1.316 -52.5,0 0,1 0,2 0,3 3.35,-0.165 6.683,0.002 10,0.5 -0.556,0.383 -0.889,0.883 -1,1.5 -3,0 -6,0 -9,0 -1.128,4.919 0.372,8.585 4.5,11 0.667,3 0.667,6 0,9 -1.11,1.537 -2.61,2.203 -4.5,2 -0.157,1.373 0.01,2.707 0.5,4 1.518,0.663 2.685,1.663 3.5,3 0.166,4.014 -10e-4,8.014 -0.5,12 -0.238,-3.722 -0.738,-7.389 -1.5,-11 -0.333,-0.333 -0.667,-0.667 -1,-1 -1.333,4.667 -1.333,9.333 0,14 1.187,-1.153 2.187,-1.153 3,0 -4.985,2.318 -5.151,4.985 -0.5,8 0.667,4.333 0.667,8.667 0,13 -2.46,1.255 -3.627,3.255 -3.5,6 1.322,-0.17 2.489,0.163 3.5,1 0.667,5 0.667,10 0,15 -1.011,0.837 -2.178,1.17 -3.5,1 -0.223,2.614 0.944,4.281 3.5,5 0.667,4.667 0.667,9.333 0,14 -1.011,0.837 -2.178,1.17 -3.5,1 -0.127,2.745 1.04,4.745 3.5,6 0.825,3.711 0.659,7.378 -0.5,11 -2.606,1.918 -3.606,4.584 -3,8 6.333,0 12.667,0 19,0 0,-3.667 0,-7.333 0,-11 -3.787,0.686 -6.954,-0.314 -9.5,-3 -0.667,-22 -0.667,-44 0,-66 0.662,-1.484 1.496,-2.817 2.5,-4 0.854,1.132 0.854,2.465 0,4 -1.323,15.431 -1.323,30.765 0,46 -1.168,6.421 -1.168,13.088 0,20 0.333,0.333 0.667,0.667 1,1 0.829,-5.302 1.329,-10.636 1.5,-16 0.383,0.556 0.883,0.889 1.5,1 0,5 0,10 0,15 1.644,-0.214 3.144,0.12 4.5,1 0.499,3.986 0.666,7.986 0.5,12 4.532,0.318 8.866,-0.015 13,-1 0.667,-3.333 1.333,-6.667 2,-10 0,3.667 0,7.333 0,11 6.333,0 12.667,0 19,0 -0.651,-4.935 -1.985,-9.602 -4,-14 0.167,-1.667 0.333,-3.333 0.5,-5 4.297,-2.153 4.463,-4.487 0.5,-7 -1.162,-4.631 -1.328,-9.298 -0.5,-14 1.011,-0.837 2.178,-1.17 3.5,-1 0.127,-2.745 -1.04,-4.745 -3.5,-6 -0.667,-4.667 -0.667,-9.333 0,-14 1.011,-0.837 2.178,-1.17 3.5,-1 -0.069,-2.584 -1.235,-4.584 -3.5,-6 -0.667,-4.333 -0.667,-8.667 0,-13 4.667,-2.667 4.667,-5.333 0,-8 -0.816,-5.184 -0.65,-10.184 0.5,-15 0.739,-0.131 1.406,0.036 2,0.5 -0.637,2.243 -0.97,4.576 -1,7 -0.109,2.7 0.391,5.2 1.5,7.5 0.539,-3.029 1.206,-6.029 2,-9 0.77,1.098 1.603,1.098 2.5,0 0,32.667 0,65.333 0,98 -0.194,2.412 -1.527,3.412 -4,3 0.214,1.644 -0.12,3.144 -1,4.5 -17.74,0.818 -35.407,0.652 -53,-0.5 -0.951,-2.12 -2.451,-3.786 -4.5,-5 -0.348,-56.081 -0.514,-112.081 -0.5,-168 2.601,5.426 5.934,10.426 10,15 -1.312,2.141 -3.145,3.808 -5.5,5 -0.497,2.31 -0.663,4.643 -0.5,7 6,0 12,0 18,0 0.318,-4.532 -0.015,-8.866 -1,-13 0.667,-1.333 1.667,-2.333 3,-3 0,5.333 0,10.667 0,16 4.667,0 9.333,0 14,0 0,-26.333 0,-52.667 0,-79 -4.333,0 -8.667,0 -13,0 0.286,10.385 -0.048,20.718 -1,31 -1.21,-0.432 -2.21,-1.099 -3,-2 1.158,-9.825 1.325,-19.825 0.5,-30 -8.441,-14.6204 -9.441,-29.6204 -3,-45 7.724,-7.4021 15.891,-7.9021 24.5,-1.5 5.363,6.9554 7.196,14.7887 5.5,23.5 -1.27,8.422 -3.77,16.422 -7.5,24 -0.998,26.161 -1.331,52.495 -1,79 6.333,0 12.667,0 19,0 0.536,-3.198 -0.131,-5.865 -2,-8 -0.617,-0.111 -1.117,-0.444 -1.5,-1 -0.667,-3.667 -0.667,-7.333 0,-11 4.667,-2.667 4.667,-5.333 0,-8 -0.667,-4.333 -0.667,-8.667 0,-13 2.659,-1.56 3.826,-3.893 3.5,-7 -1.322,0.17 -2.489,-0.163 -3.5,-1 -0.667,-4.667 -0.667,-9.333 0,-14 4.627,-2.244 4.627,-4.577 0,-7 -0.667,-3 -0.667,-6 0,-9 3.151,-2.5878 4.151,-5.9211 3,-10 -4.542,-20.3359 -10.709,-40.1692 -18.5,-59.5 0.336,-1.0299 1.003,-1.5299 2,-1.5 5.892,17.0877 11.726,34.0877 17.5,51 -0.822,-16.7279 -2.822,-33.3946 -6,-50 -0.388,-0.928 -1.055,-1.5946 -2,-2 -1.368,1.2026 -2.868,2.2026 -4.5,3 -1.352,-1.0244 -2.685,-2.0244 -4,-3 -0.686,-3.787 0.314,-6.9537 3,-9.5 -9.735,-7.27887 -19.402,-7.27887 -29,0 0.916,0.3742 1.75,0.8742 2.5,1.5 0.497,2.3098 0.663,4.6432 0.5,7 -2.619,3.5094 -5.619,3.8428 -9,1 -0.692,0.5253 -1.192,1.1919 -1.5,2 -3.265,15.1839 -4.932,30.5173 -5,46 5.39,-15.9401 11.223,-31.6068 17.5,-47 0.597,0.2352 0.93,0.7352 1,1.5 -7.579,19.0696 -13.746,38.5696 -18.5,58.5 -1.342,5.0016 -0.009,9.0016 4,12 0.667,2.6667 0.667,5.333 0,8 -1.635,1.226 -3.135,2.559 -4.5,4 1.649,1.148 3.149,2.481 4.5,4 0.499,3.986 0.666,7.986 0.5,12 -3.575,1.618 -6.575,3.951 -9,7 -0.167,-25.002 0,-50.0022 0.5,-75 0.842,-9.4051 2.176,-18.7384 4,-28 1.732,-10.7279 7.566,-18.22788 17.5,-22.5 16.253,-3.76798 27.919,1.73202 35,16.5 z"
         id="path55" />
    </g>
    <g
       id="g56"
       style="clip-rule:evenodd;fill-rule:evenodd;image-rendering:optimizeQuality;shape-rendering:geometricPrecision;text-rendering:geometricPrecision"
       transform="matrix(0.26458333,0,0,0.26458333,-33.993115,6.1700311)">
      <path
         style="opacity:1"
         fill="#9d9a98"
         d="m 301.5,160.5 c 0.985,4.134 1.318,8.468 1,13 -6,0 -12,0 -18,0 -0.163,-2.357 0.003,-4.69 0.5,-7 2.355,-1.192 4.188,-2.859 5.5,-5 1.312,1.979 2.979,3.645 5,5 2.354,-1.688 4.354,-3.688 6,-6 z"
         id="path56" />
    </g>
    <g
       id="g57"
       style="clip-rule:evenodd;fill-rule:evenodd;image-rendering:optimizeQuality;shape-rendering:geometricPrecision;text-rendering:geometricPrecision"
       transform="matrix(0.26458333,0,0,0.26458333,-33.993115,6.1700311)">
      <path
         style="opacity:1"
         fill="#838383"
         d="m 321.5,94.5 c 0,26 0,52 0,78 5.667,0 11.333,0 17,0 0.202,-2.45 -0.131,-4.783 -1,-7 1.869,2.135 2.536,4.802 2,8 -6.333,0 -12.667,0 -19,0 -0.331,-26.505 0.002,-52.839 1,-79 z"
         id="path57" />
    </g>
    <g
       id="g58"
       style="clip-rule:evenodd;fill-rule:evenodd;image-rendering:optimizeQuality;shape-rendering:geometricPrecision;text-rendering:geometricPrecision"
       transform="matrix(0.26458333,0,0,0.26458333,-33.993115,6.1700311)">
      <path
         style="opacity:1"
         fill="#7a7a7b"
         d="m 300.5,21.5 c 0.667,0.6667 1.333,1.3333 2,2 -6.277,15.3932 -12.11,31.0599 -17.5,47 0.068,-15.4827 1.735,-30.8161 5,-46 0.308,-0.8081 0.808,-1.4747 1.5,-2 3.381,2.8428 6.381,2.5094 9,-1 z"
         id="path58" />
    </g>
    <g
       id="g59"
       style="clip-rule:evenodd;fill-rule:evenodd;image-rendering:optimizeQuality;shape-rendering:geometricPrecision;text-rendering:geometricPrecision"
       transform="matrix(0.26458333,0,0,0.26458333,-33.993115,6.1700311)">
      <path
         style="opacity:1"
         fill="#797979"
         d="m 323.5,22.5 c 1.315,0.9756 2.648,1.9756 4,3 1.632,-0.7974 3.132,-1.7974 4.5,-3 0.945,0.4054 1.612,1.072 2,2 3.178,16.6054 5.178,33.2721 6,50 -5.774,-16.9123 -11.608,-33.9123 -17.5,-51 0.667,0 1,-0.3333 1,-1 z"
         id="path59" />
    </g>
    <g
       id="g60"
       style="clip-rule:evenodd;fill-rule:evenodd;image-rendering:optimizeQuality;shape-rendering:geometricPrecision;text-rendering:geometricPrecision"
       transform="matrix(0.26458333,0,0,0.26458333,-33.993115,6.1700311)">
      <path
         style="opacity:1"
         fill="#989898"
         d="m 323.5,22.5 c 0,0.6667 -0.333,1 -1,1 -0.997,-0.0299 -1.664,0.4701 -2,1.5 7.791,19.3308 13.958,39.1641 18.5,59.5 1.151,4.0789 0.151,7.4122 -3,10 -0.667,3 -0.667,6 0,9 4.627,2.423 4.627,4.756 0,7 -0.667,4.667 -0.667,9.333 0,14 1.011,0.837 2.178,1.17 3.5,1 0.326,3.107 -0.841,5.44 -3.5,7 -0.667,4.333 -0.667,8.667 0,13 4.667,2.667 4.667,5.333 0,8 -0.667,3.667 -0.667,7.333 0,11 0.383,0.556 0.883,0.889 1.5,1 0.869,2.217 1.202,4.55 1,7 -5.667,0 -11.333,0 -17,0 0,-26 0,-52 0,-78 3.73,-7.578 6.23,-15.578 7.5,-24 1.696,-8.7113 -0.137,-16.5446 -5.5,-23.5 -8.609,-6.4021 -16.776,-5.9021 -24.5,1.5 -6.441,15.3796 -5.441,30.3796 3,45 0.825,10.175 0.658,20.175 -0.5,30 -4.048,-1.178 -8.048,-1.178 -12,0 0.166,-4.014 -10e-4,-8.014 -0.5,-12 -1.351,-1.519 -2.851,-2.852 -4.5,-4 1.365,-1.441 2.865,-2.774 4.5,-4 0.667,-2.667 0.667,-5.3333 0,-8 -4.009,-2.9984 -5.342,-6.9984 -4,-12 4.754,-19.9304 10.921,-39.4304 18.5,-58.5 -0.07,-0.7648 -0.403,-1.2648 -1,-1.5 -0.667,-0.6667 -1.333,-1.3333 -2,-2 0.163,-2.3568 -0.003,-4.6902 -0.5,-7 -0.75,-0.6258 -1.584,-1.1258 -2.5,-1.5 9.598,-7.27887 19.265,-7.27887 29,0 -2.686,2.5463 -3.686,5.713 -3,9.5 z"
         id="path60" />
    </g>
    <g
       id="g61"
       style="clip-rule:evenodd;fill-rule:evenodd;image-rendering:optimizeQuality;shape-rendering:geometricPrecision;text-rendering:geometricPrecision"
       transform="matrix(0.26458333,0,0,0.26458333,-33.993115,6.1700311)">
      <path
         style="opacity:1"
         fill="#989998"
         d="m 309.5,57.5 c 6.04,-0.1362 10.04,2.6971 12,8.5 1.634,0.4935 3.301,0.6602 5,0.5 -0.177,8.835 -2.511,17.0017 -7,24.5 -5.364,0.8295 -10.698,0.6628 -16,-0.5 -3.886,-7.5432 -5.886,-15.5432 -6,-24 1.788,0.2852 3.455,-0.0481 5,-1 1.669,-3.3303 4.002,-5.9969 7,-8 z"
         id="path61" />
    </g>
    <g
       id="g62"
       style="clip-rule:evenodd;fill-rule:evenodd;image-rendering:optimizeQuality;shape-rendering:geometricPrecision;text-rendering:geometricPrecision"
       transform="matrix(0.26458333,0,0,0.26458333,-33.993115,6.1700311)">
      <path
         style="opacity:1"
         fill="#959595"
         d="m 293.5,180.5 c 3,0 6,0 9,0 0.333,14.682 -10e-4,29.348 -1,44 -2.286,0.633 -3.952,1.966 -5,4 -1.004,1.183 -1.838,2.516 -2.5,4 -0.667,22 -0.667,44 0,66 2.546,2.686 5.713,3.686 9.5,3 0,3.667 0,7.333 0,11 -6.333,0 -12.667,0 -19,0 -0.606,-3.416 0.394,-6.082 3,-8 1.159,-3.622 1.325,-7.289 0.5,-11 -2.46,-1.255 -3.627,-3.255 -3.5,-6 1.322,0.17 2.489,-0.163 3.5,-1 0.667,-4.667 0.667,-9.333 0,-14 -2.556,-0.719 -3.723,-2.386 -3.5,-5 1.322,0.17 2.489,-0.163 3.5,-1 0.667,-5 0.667,-10 0,-15 -1.011,-0.837 -2.178,-1.17 -3.5,-1 -0.127,-2.745 1.04,-4.745 3.5,-6 0.667,-4.333 0.667,-8.667 0,-13 -4.651,-3.015 -4.485,-5.682 0.5,-8 1.333,-4.667 1.333,-9.333 0,-14 -0.815,-1.337 -1.982,-2.337 -3.5,-3 -0.49,-1.293 -0.657,-2.627 -0.5,-4 1.89,0.203 3.39,-0.463 4.5,-2 0.667,-3 0.667,-6 0,-9 -4.128,-2.415 -5.628,-6.081 -4.5,-11 3,0 6,0 9,0 z"
         id="path62" />
    </g>
    <g
       id="g64"
       style="clip-rule:evenodd;fill-rule:evenodd;image-rendering:optimizeQuality;shape-rendering:geometricPrecision;text-rendering:geometricPrecision"
       transform="matrix(0.26458333,0,0,0.26458333,-33.993115,6.1700311)">
      <path
         style="opacity:1"
         fill="#707070"
         d="m 343.5,203.5 c 0,3.667 0,7.333 0,11 -0.897,1.098 -1.73,1.098 -2.5,0 -0.794,2.971 -1.461,5.971 -2,9 -1.109,-2.3 -1.609,-4.8 -1.5,-7.5 0.03,-2.424 0.363,-4.757 1,-7 -0.594,-0.464 -1.261,-0.631 -2,-0.5 2.864,-1.258 3.53,-3.258 2,-6 0.438,0.065 0.772,-0.101 1,-0.5 -1.547,-2.773 -2.547,-5.773 -3,-9 0.808,-1.706 2.141,-2.539 4,-2.5 -0.323,3.726 0.011,7.393 1,11 0.682,0.743 1.349,1.409 2,2 z"
         id="path64" />
    </g>
    <g
       id="g65"
       style="clip-rule:evenodd;fill-rule:evenodd;image-rendering:optimizeQuality;shape-rendering:geometricPrecision;text-rendering:geometricPrecision"
       transform="matrix(0.26458333,0,0,0.26458333,-33.993115,6.1700311)">
      <path
         style="opacity:1"
         fill="#737373"
         d="m 288.5,209.5 c 1.333,4.667 1.333,9.333 0,14 -0.813,-1.153 -1.813,-1.153 -3,0 -1.333,-4.667 -1.333,-9.333 0,-14 0.333,0.333 0.667,0.667 1,1 0.762,3.611 1.262,7.278 1.5,11 0.499,-3.986 0.666,-7.986 0.5,-12 z"
         id="path65" />
    </g>
    <g
       id="g66"
       style="clip-rule:evenodd;fill-rule:evenodd;image-rendering:optimizeQuality;shape-rendering:geometricPrecision;text-rendering:geometricPrecision"
       transform="matrix(0.26458333,0,0,0.26458333,-33.993115,6.1700311)">
      <path
         style="opacity:1"
         fill="#6b6b6b"
         d="m 310.5,180.5 c -1.667,0 -3.333,0 -5,0 0.167,14.67 0,29.337 -0.5,44 -1.154,1.243 -2.488,2.243 -4,3 -0.499,5.991 -0.666,11.991 -0.5,18 7.667,0 15.333,0 23,0 0.166,-6.009 -10e-4,-12.009 -0.5,-18 -1.085,-0.793 -2.252,-1.46 -3.5,-2 -0.999,-14.985 -1.333,-29.985 -1,-45 0.831,14.494 1.331,29.161 1.5,44 0.169,-14.839 0.669,-29.506 1.5,-44 -0.333,14.682 10e-4,29.348 1,44 3.167,1.969 5.667,4.635 7.5,8 0.667,21.333 0.667,42.667 0,64 -1.701,4.375 -4.867,6.042 -9.5,5 -0.667,3.333 -1.333,6.667 -2,10 0,-4 0,-8 0,-12 1.644,0.214 3.144,-0.12 4.5,-1 0.784,-5.387 0.618,-10.72 -0.5,-16 -7,-1.333 -14,-1.333 -21,0 -0.363,0.683 -0.696,1.35 -1,2 -0.617,-0.111 -1.117,-0.444 -1.5,-1 -0.171,5.364 -0.671,10.698 -1.5,16 -0.333,-0.333 -0.667,-0.667 -1,-1 -1.168,-6.912 -1.168,-13.579 0,-20 0.997,0.03 1.664,-0.47 2,-1.5 -0.45,-1.285 -1.117,-2.452 -2,-3.5 1.323,-13.794 1.323,-27.461 0,-41 0.854,-1.535 0.854,-2.868 0,-4 1.048,-2.034 2.714,-3.367 5,-4 0.999,-14.652 1.333,-29.318 1,-44 -3,0 -6,0 -9,0 0.111,-0.617 0.444,-1.117 1,-1.5 -3.317,-0.498 -6.65,-0.665 -10,-0.5 0,-1 0,-2 0,-3 17.008,-1.316 34.508,-1.316 52.5,0 1.662,-0.112 2.829,0.554 3.5,2 -8.64,0.409 -17.307,0.575 -26,0.5 -1.667,0.333 -3.333,0.667 -5,1 0.556,0.383 0.889,0.883 1,1.5 z"
         id="path66" />
    </g>
    <g
       id="g67"
       style="clip-rule:evenodd;fill-rule:evenodd;image-rendering:optimizeQuality;shape-rendering:geometricPrecision;text-rendering:geometricPrecision"
       transform="matrix(0.26458333,0,0,0.26458333,-33.993115,6.1700311)">
      <path
         style="opacity:1"
         fill="#7c7c7c"
         d="m 310.5,180.5 c 2.667,0 5.333,0 8,0 -0.333,15.015 10e-4,30.015 1,45 1.248,0.54 2.415,1.207 3.5,2 0.499,5.991 0.666,11.991 0.5,18 -7.667,0 -15.333,0 -23,0 -0.166,-6.009 10e-4,-12.009 0.5,-18 1.512,-0.757 2.846,-1.757 4,-3 0.5,-14.663 0.667,-29.33 0.5,-44 1.667,0 3.333,0 5,0 z"
         id="path67" />
    </g>
    <g
       id="g68"
       style="clip-rule:evenodd;fill-rule:evenodd;image-rendering:optimizeQuality;shape-rendering:geometricPrecision;text-rendering:geometricPrecision"
       transform="matrix(0.26458333,0,0,0.26458333,-33.993115,6.1700311)">
      <path
         style="opacity:1"
         fill="#989898"
         d="m 321.5,180.5 c 6,0 12,0 18,0 0.313,2.747 -0.02,5.414 -1,8 -2.484,1.591 -3.484,3.925 -3,7 -0.488,3.111 0.512,5.444 3,7 1.53,2.742 0.864,4.742 -2,6 -1.15,4.816 -1.316,9.816 -0.5,15 4.667,2.667 4.667,5.333 0,8 -0.667,4.333 -0.667,8.667 0,13 2.265,1.416 3.431,3.416 3.5,6 -1.322,-0.17 -2.489,0.163 -3.5,1 -0.667,4.667 -0.667,9.333 0,14 2.46,1.255 3.627,3.255 3.5,6 -1.322,-0.17 -2.489,0.163 -3.5,1 -0.828,4.702 -0.662,9.369 0.5,14 3.963,2.513 3.797,4.847 -0.5,7 -0.167,1.667 -0.333,3.333 -0.5,5 2.015,4.398 3.349,9.065 4,14 -6.333,0 -12.667,0 -19,0 0,-3.667 0,-7.333 0,-11 4.633,1.042 7.799,-0.625 9.5,-5 0.667,-21.333 0.667,-42.667 0,-64 -1.833,-3.365 -4.333,-6.031 -7.5,-8 -0.999,-14.652 -1.333,-29.318 -1,-44 z"
         id="path68" />
    </g>
    <g
       id="g69"
       style="clip-rule:evenodd;fill-rule:evenodd;image-rendering:optimizeQuality;shape-rendering:geometricPrecision;text-rendering:geometricPrecision"
       transform="matrix(0.26458333,0,0,0.26458333,-33.993115,6.1700311)">
      <path
         style="opacity:1"
         fill="#7e7e7e"
         d="m 296.5,232.5 c 1.323,13.539 1.323,27.206 0,41 0.883,1.048 1.55,2.215 2,3.5 -0.336,1.03 -1.003,1.53 -2,1.5 -1.323,-15.235 -1.323,-30.569 0,-46 z"
         id="path69" />
    </g>
    <g
       id="g76"
       style="clip-rule:evenodd;fill-rule:evenodd;image-rendering:optimizeQuality;shape-rendering:geometricPrecision;text-rendering:geometricPrecision"
       transform="matrix(0.26458333,0,0,0.26458333,-33.993115,6.1700311)">
      <path
         style="opacity:1"
         fill="#878787"
         d="m 300.5,257.5 c 2.424,-0.308 4.757,0.026 7,1 -1.91,4.817 -4.076,9.484 -6.5,14 -0.499,-4.989 -0.666,-9.989 -0.5,-15 z"
         id="path76" />
    </g>
    <g
       id="g77"
       style="clip-rule:evenodd;fill-rule:evenodd;image-rendering:optimizeQuality;shape-rendering:geometricPrecision;text-rendering:geometricPrecision"
       transform="matrix(0.26458333,0,0,0.26458333,-33.993115,6.1700311)">
      <path
         style="opacity:1"
         fill="#858685"
         d="m 315.5,256.5 c 2.667,0 5.333,0 8,0 0.328,5.375 -0.005,10.708 -1,16 -2.891,-5.112 -5.224,-10.445 -7,-16 z"
         id="path77" />
    </g>
    <g
       id="g81"
       style="clip-rule:evenodd;fill-rule:evenodd;image-rendering:optimizeQuality;shape-rendering:geometricPrecision;text-rendering:geometricPrecision"
       transform="matrix(0.26458333,0,0,0.26458333,-33.993115,6.1700311)">
      <path
         style="opacity:1"
         fill="#868686"
         d="m 311.5,256.5 c 2.892,4.78 5.559,9.78 8,15 -5,1.333 -10,1.333 -15,0 2.09,-5.177 4.424,-10.177 7,-15 z"
         id="path81" />
    </g>
    <g
       id="g82"
       style="clip-rule:evenodd;fill-rule:evenodd;image-rendering:optimizeQuality;shape-rendering:geometricPrecision;text-rendering:geometricPrecision"
       transform="matrix(0.26458333,0,0,0.26458333,-33.993115,6.1700311)">
      <path
         style="opacity:1"
         fill="#ece8e7"
         d="m 362.5,259.5 c 1.586,0.913 3.086,0.913 4.5,0 -1.123,2.441 -1.456,5.108 -1,8 0.667,2.667 1.333,2.667 2,0 1.067,0.691 2.234,1.191 3.5,1.5 -1.326,3.203 -0.659,6.036 2,8.5 -1.629,-0.128 -2.962,0.872 -4,3 -1.187,-1.394 -1.854,-1.227 -2,0.5 0.333,0.5 0.667,1 1,1.5 2.567,-0.739 4.9,-0.739 7,0 -1.694,1.694 -3.36,3.36 -5,5 3.277,1.454 3.611,3.62 1,6.5 0.333,0.333 0.667,0.667 1,1 -1.349,0.772 -2.182,1.939 -2.5,3.5 -0.424,-2.115 -1.591,-2.948 -3.5,-2.5 1.309,1.751 0.975,3.251 -1,4.5 0.308,0.808 0.808,1.475 1.5,2 1.899,-3.602 3.565,-3.269 5,1 0.914,-1.154 1.747,-0.987 2.5,0.5 -0.711,1.255 -1.544,2.421 -2.5,3.5 -0.667,-2 -2,-3.333 -4,-4 -0.783,1.933 -0.283,3.433 1.5,4.5 -0.182,2.653 -0.515,5.32 -1,8 1.399,0.595 2.732,0.428 4,-0.5 0.504,2.799 1.504,5.299 3,7.5 -0.916,0.374 -1.75,0.874 -2.5,1.5 -0.662,-2.313 -1.162,-4.646 -1.5,-7 -1.333,0 -2.667,0 -4,0 -0.399,-3.488 -1.066,-3.654 -2,-0.5 1.063,1.787 1.563,3.621 1.5,5.5 -0.604,-2.186 -1.77,-2.352 -3.5,-0.5 2.381,1.247 2.047,1.58 -1,1 -2.015,-1.555 -2.348,-3.389 -1,-5.5 0.692,0.525 1.192,1.192 1.5,2 0.667,-1.667 0.667,-3.333 0,-5 -1.895,2.11 -3.728,1.777 -5.5,-1 2.446,-1.483 2.112,-2.649 -1,-3.5 0.485,-2.68 0.818,-5.347 1,-8 -0.808,-0.308 -1.475,-0.808 -2,-1.5 1.247,-1.542 1.247,-3.042 0,-4.5 0.667,-0.333 1.333,-0.667 2,-1 -0.568,-1.296 -0.568,-2.796 0,-4.5 -0.209,-1.494 -0.876,-2.661 -2,-3.5 1,-0.333 2,-0.667 3,-1 -1.759,-0.98 -3.426,-1.647 -5,-2 2,-0.667 4,-1.333 6,-2 -2.667,-0.667 -2.667,-1.333 0,-2 -4,-2 -4,-4 0,-6 -0.667,-0.333 -1.333,-0.667 -2,-1 0,-1.333 0,-2.667 0,-4 1.238,0.077 2.238,-0.089 3,-0.5 -1.078,-1.901 -2.078,-3.401 -3,-4.5 0.094,-2.954 0.594,-3.121 1.5,-0.5 2.071,-0.603 3.238,-1.936 3.5,-4 z"
         id="path82" />
    </g>
    <g
       id="g99"
       style="clip-rule:evenodd;fill-rule:evenodd;image-rendering:optimizeQuality;shape-rendering:geometricPrecision;text-rendering:geometricPrecision"
       transform="matrix(0.26458333,0,0,0.26458333,-33.993115,6.1700311)">
      <path
         style="opacity:1"
         fill="#8b8b8a"
         d="m 303.5,275.5 c 5.706,-0.329 11.372,0.005 17,1 -5.972,1.164 -11.972,1.33 -18,0.5 0.556,-0.383 0.889,-0.883 1,-1.5 z"
         id="path99" />
    </g>
    <g
       id="g100"
       style="clip-rule:evenodd;fill-rule:evenodd;image-rendering:optimizeQuality;shape-rendering:geometricPrecision;text-rendering:geometricPrecision"
       transform="matrix(0.26458333,0,0,0.26458333,-33.993115,6.1700311)">
      <path
         style="opacity:1"
         fill="#7c7c7c"
         d="m 318.5,311.5 c -4.134,0.985 -8.468,1.318 -13,1 0.166,-4.014 -10e-4,-8.014 -0.5,-12 -1.356,-0.88 -2.856,-1.214 -4.5,-1 0,-5 0,-10 0,-15 0.304,-0.65 0.637,-1.317 1,-2 7,-1.333 14,-1.333 21,0 1.118,5.28 1.284,10.613 0.5,16 -1.356,0.88 -2.856,1.214 -4.5,1 0,4 0,8 0,12 z"
         id="path100" />
    </g>
  </g>
</svg>
