<?xml version="1.0" encoding="UTF-8" standalone="no"?>
<!-- Created with Inkscape (http://www.inkscape.org/) -->

<svg
   width="96mm"
   height="96mm"
   viewBox="0 0 96 96"
   version="1.1"
   id="svg1"
   inkscape:version="1.4.2 (ebf0e940, 2025-05-08)"
   sodipodi:docname="bus.svg"
   xmlns:inkscape="http://www.inkscape.org/namespaces/inkscape"
   xmlns:sodipodi="http://sodipodi.sourceforge.net/DTD/sodipodi-0.dtd"
   xmlns="http://www.w3.org/2000/svg"
   xmlns:svg="http://www.w3.org/2000/svg">
  <sodipodi:namedview
     id="namedview1"
     pagecolor="#ffffff"
     bordercolor="#000000"
     borderopacity="0.25"
     inkscape:showpageshadow="2"
     inkscape:pageopacity="0.0"
     inkscape:pagecheckerboard="0"
     inkscape:deskcolor="#d1d1d1"
     inkscape:document-units="mm"
     inkscape:zoom="0.80444024"
     inkscape:cx="397.17059"
     inkscape:cy="262.91574"
     inkscape:window-width="1920"
     inkscape:window-height="1052"
     inkscape:window-x="0"
     inkscape:window-y="28"
     inkscape:window-maximized="0"
     inkscape:current-layer="layer1" />
  <defs
     id="defs1" />
  <g
     inkscape:label="Layer 1"
     inkscape:groupmode="layer"
     id="layer1">
    <g
       id="g2"
       style="clip-rule:evenodd;fill-rule:evenodd;image-rendering:optimizeQuality;shape-rendering:geometricPrecision;text-rendering:geometricPrecision"
       transform="matrix(0.29734571,0,0,0.29734571,-316.50741,-4.6145786)">
      <path
         style="opacity:1"
         fill="#cbcbcb"
         d="m 1214.5,45.5 c 4.15,-0.6657 8.49,-0.9991 13,-1 7.22,-0.128 14.22,0.5387 21,2 -11.32,-0.7593 -22.65,-1.0926 -34,-1 z"
         id="path2" />
    </g>
    <g
       id="g4"
       style="clip-rule:evenodd;fill-rule:evenodd;image-rendering:optimizeQuality;shape-rendering:geometricPrecision;text-rendering:geometricPrecision"
       transform="matrix(0.29734571,0,0,0.29734571,-316.50741,-4.6145786)">
      <path
         style="opacity:1"
         fill="#e7e6e5"
         d="m 1270.5,68.5 c -1.93,2.8707 -3.6,5.8707 -5,9 -0.45,-0.9584 -1.12,-1.7917 -2,-2.5 -1.88,-0.1981 -3.55,-0.6981 -5,-1.5 2.54,0.3957 4.71,-0.271 6.5,-2 1.05,-2.9327 2.22,-5.7661 3.5,-8.5 0.01,-1.8122 -0.66,-3.3122 -2,-4.5 -7.14,-2.2598 -14.48,-3.7598 -22,-4.5 -13.33,-0.6667 -26.67,-0.6667 -40,0 -5.46,0.826 -10.8,2.1593 -16,4 -0.57,0.9947 -1.23,1.828 -2,2.5 0.17,-0.9916 -0.16,-1.6583 -1,-2 1.85,-3.0847 4.52,-4.7514 8,-5 10.91,-3.0087 22.08,-4.342 33.5,-4 12.63,0.3259 25.13,1.8259 37.5,4.5 5.45,3.269 7.45,8.1023 6,14.5 z"
         id="path4" />
    </g>
    <g
       id="g5"
       style="clip-rule:evenodd;fill-rule:evenodd;image-rendering:optimizeQuality;shape-rendering:geometricPrecision;text-rendering:geometricPrecision"
       transform="matrix(0.29734571,0,0,0.29734571,-316.50741,-4.6145786)">
      <path
         style="opacity:1"
         fill="#777777"
         d="m 1258.5,73.5 c -16.56,-2.959 -33.23,-3.6257 -50,-2 -5.98,0.5742 -11.98,0.9075 -18,1 -1.93,-3.8027 -3.27,-7.8027 -4,-12 0.77,-0.672 1.43,-1.5053 2,-2.5 5.2,-1.8407 10.54,-3.174 16,-4 13.33,-0.6667 26.67,-0.6667 40,0 7.52,0.7402 14.86,2.2402 22,4.5 1.34,1.1878 2.01,2.6878 2,4.5 -1.28,2.7339 -2.45,5.5673 -3.5,8.5 -1.79,1.729 -3.96,2.3957 -6.5,2 z"
         id="path5" />
    </g>
    <g
       id="g10"
       style="clip-rule:evenodd;fill-rule:evenodd;image-rendering:optimizeQuality;shape-rendering:geometricPrecision;text-rendering:geometricPrecision"
       transform="matrix(0.29734571,0,0,0.29734571,-316.50741,-4.6145786)">
      <path
         style="opacity:1"
         fill="#8e8e8e"
         d="m 1183.5,53.5 c -0.13,0.7389 0.04,1.4056 0.5,2 2.9,-1.7268 6.07,-2.3935 9.5,-2 -3.48,0.2486 -6.15,1.9153 -8,5 -0.97,2.4479 -1.31,5.1146 -1,8 0,76 0,152 0,228 -0.83,-78.499 -1.33,-157.166 -1.5,-236 -1.56,1.7166 -2.39,3.7166 -2.5,6 -1.33,0 -2.67,0 -4,0 0.67,-0.7674 1.51,-1.4341 2.5,-2 0.47,-3.6105 1.97,-6.6105 4.5,-9 z"
         id="path10" />
    </g>
    <g
       id="g22"
       style="clip-rule:evenodd;fill-rule:evenodd;image-rendering:optimizeQuality;shape-rendering:geometricPrecision;text-rendering:geometricPrecision"
       transform="matrix(0.29734571,0,0,0.29734571,-316.50741,-4.6145786)">
      <path
         style="opacity:1"
         fill="#9f9f9f"
         d="m 1277.5,74.5 c -1.67,73.828 -2.67,147.828 -3,222 0,-74.333 0,-148.667 0,-223 1.29,-0.2373 2.29,0.096 3,1 z"
         id="path22" />
    </g>
    <g
       id="g23"
       style="clip-rule:evenodd;fill-rule:evenodd;image-rendering:optimizeQuality;shape-rendering:geometricPrecision;text-rendering:geometricPrecision"
       transform="matrix(0.29734571,0,0,0.29734571,-316.50741,-4.6145786)">
      <path
         style="opacity:1"
         fill="#797979"
         d="m 1214.5,45.5 c 11.35,-0.0926 22.68,0.2407 34,1 6.66,0.9501 13.32,2.4501 20,4.5 4.51,3.009 7.18,7.1756 8,12.5 8.36,1.1531 11.7,5.6531 10,13.5 -3.29,0.3604 -6.29,-0.473 -9,-2.5 -0.71,-0.904 -1.71,-1.2373 -3,-1 0,74.333 0,148.667 0,223 -1.02,3.862 -3.36,6.695 -7,8.5 -26.67,0.667 -53.33,0.667 -80,0 -2.12,-1.122 -3.96,-2.622 -5.5,-4.5 -1.49,-75.276 -1.99,-150.609 -1.5,-226 -3.49,0.4089 -6.82,1.4089 -10,3 -0.94,-0.1082 -1.78,-0.4415 -2.5,-1 -1.8,-7.4177 1.03,-11.4177 8.5,-12 1.33,0 2.67,0 4,0 0.11,-2.2834 0.94,-4.2834 2.5,-6 0.17,78.834 0.67,157.501 1.5,236 0.43,2.695 1.77,4.862 4,6.5 25.67,0.667 51.33,0.667 77,0 1.5,-1.5 3,-3 4.5,-4.5 0.5,-75.999 0.67,-151.999 0.5,-228 1.45,-6.3977 -0.55,-11.231 -6,-14.5 -12.37,-2.6741 -24.87,-4.1741 -37.5,-4.5 -11.42,-0.342 -22.59,0.9913 -33.5,4 -3.43,-0.3935 -6.6,0.2732 -9.5,2 -0.46,-0.5944 -0.63,-1.2611 -0.5,-2 1.51,-1.3361 3.18,-2.5027 5,-3.5 8.66,-1.8317 17.33,-3.3317 26,-4.5 z"
         id="path23" />
    </g>
    <g
       id="g24"
       style="clip-rule:evenodd;fill-rule:evenodd;image-rendering:optimizeQuality;shape-rendering:geometricPrecision;text-rendering:geometricPrecision"
       transform="matrix(0.29734571,0,0,0.29734571,-316.50741,-4.6145786)">
      <path
         style="opacity:1"
         fill="#bbbbbb"
         d="m 1184.5,66.5 c 2.58,5.8931 5.08,11.8931 7.5,18 0.33,70 0.67,140 1,210 23.09,0.994 46.26,1.327 69.5,1 0,-1 0,-2 0,-3 0.68,-70.527 1.34,-141.194 2,-212 0.06,-1.109 0.39,-2.109 1,-3 1.4,-3.1293 3.07,-6.1293 5,-9 0.17,76.001 0,152.001 -0.5,228 -1.5,1.5 -3,3 -4.5,4.5 -25.67,0.667 -51.33,0.667 -77,0 -2.23,-1.638 -3.57,-3.805 -4,-6.5 0,-76 0,-152 0,-228 z"
         id="path24" />
    </g>
    <g
       id="g25"
       style="clip-rule:evenodd;fill-rule:evenodd;image-rendering:optimizeQuality;shape-rendering:geometricPrecision;text-rendering:geometricPrecision"
       transform="matrix(0.29734571,0,0,0.29734571,-316.50741,-4.6145786)">
      <path
         style="opacity:1"
         fill="#e1e1e1"
         d="m 1264.5,80.5 c -0.66,70.806 -1.32,141.473 -2,212 -0.17,-70.001 0,-140.001 0.5,-210 0.28,-0.9158 0.78,-1.5825 1.5,-2 z"
         id="path25" />
    </g>
    <g
       id="g26"
       style="clip-rule:evenodd;fill-rule:evenodd;image-rendering:optimizeQuality;shape-rendering:geometricPrecision;text-rendering:geometricPrecision"
       transform="matrix(0.29734571,0,0,0.29734571,-316.50741,-4.6145786)">
      <path
         style="opacity:1"
         fill="#b1b0ac"
         d="m 1274.5,68.5 c 3.49,-1.1165 6.49,-0.1165 9,3 -0.33,0.3333 -0.67,0.6667 -1,1 -2.69,-1.3466 -5.36,-2.6799 -8,-4 z"
         id="path26" />
    </g>
    <g
       id="g27"
       style="clip-rule:evenodd;fill-rule:evenodd;image-rendering:optimizeQuality;shape-rendering:geometricPrecision;text-rendering:geometricPrecision"
       transform="matrix(0.29734571,0,0,0.29734571,-316.50741,-4.6145786)">
      <path
         style="opacity:1"
         fill="#f8f8f8"
         d="m 1185.5,58.5 c 0.84,0.3417 1.17,1.0084 1,2 0.73,4.1973 2.07,8.1973 4,12 1.97,0.6627 4.14,0.9961 6.5,1 4.09,0.0693 7.93,-0.5973 11.5,-2 16.77,-1.6257 33.44,-0.959 50,2 1.45,0.8019 3.12,1.3019 5,1.5 0.88,0.7083 1.55,1.5416 2,2.5 -0.61,0.891 -0.94,1.891 -1,3 -0.72,0.4175 -1.22,1.0842 -1.5,2 -0.5,69.999 -0.67,139.999 -0.5,210 0,1 0,2 0,3 -23.24,0.327 -46.41,-0.006 -69.5,-1 -0.33,-70 -0.67,-140 -1,-210 -2.42,-6.1069 -4.92,-12.1069 -7.5,-18 -0.31,-2.8854 0.03,-5.5521 1,-8 z"
         id="path27" />
    </g>
    <g
       id="g28"
       style="clip-rule:evenodd;fill-rule:evenodd;image-rendering:optimizeQuality;shape-rendering:geometricPrecision;text-rendering:geometricPrecision"
       transform="matrix(0.29734571,0,0,0.29734571,-316.50741,-4.6145786)">
      <path
         style="opacity:1"
         fill="#7e7e7e"
         d="m 1216.5,103.5 c 7.01,-0.166 14.01,0 21,0.5 1.79,0.785 3.29,1.951 4.5,3.5 0.67,12 0.67,24 0,36 -1.17,1.167 -2.33,2.333 -3.5,3.5 -7.33,0.667 -14.67,0.667 -22,0 -0.83,-0.833 -1.67,-1.667 -2.5,-2.5 -1.63,-12.237 -1.96,-24.571 -1,-37 1.38,-1.205 2.54,-2.538 3.5,-4 z"
         id="path28" />
    </g>
    <g
       id="g29"
       style="clip-rule:evenodd;fill-rule:evenodd;image-rendering:optimizeQuality;shape-rendering:geometricPrecision;text-rendering:geometricPrecision"
       transform="matrix(0.29734571,0,0,0.29734571,-316.50741,-4.6145786)">
      <path
         style="opacity:1"
         fill="#b9b9b9"
         d="m 1217.5,106.5 c 6.67,-0.166 13.34,0 20,0.5 0.5,0.5 1,1 1.5,1.5 0.82,11.909 0.65,23.743 -0.5,35.5 -7.36,0.831 -14.69,0.665 -22,-0.5 -1.15,-11.62 -1.31,-23.287 -0.5,-35 0.72,-0.544 1.22,-1.211 1.5,-2 z"
         id="path29" />
    </g>
    <g
       id="g30"
       style="clip-rule:evenodd;fill-rule:evenodd;image-rendering:optimizeQuality;shape-rendering:geometricPrecision;text-rendering:geometricPrecision"
       transform="matrix(0.29734571,0,0,0.29734571,-316.50741,-4.6145786)">
      <path
         style="opacity:1"
         fill="#bebdbd"
         d="m 1208.5,71.5 c -3.57,1.4027 -7.41,2.0693 -11.5,2 -2.36,-0.0039 -4.53,-0.3373 -6.5,-1 6.02,-0.0925 12.02,-0.4258 18,-1 z"
         id="path30" />
    </g>
    <g
       id="g65"
       style="clip-rule:evenodd;fill-rule:evenodd;image-rendering:optimizeQuality;shape-rendering:geometricPrecision;text-rendering:geometricPrecision"
       transform="matrix(0.29734571,0,0,0.29734571,-316.50741,-4.6145786)">
      <path
         style="opacity:1"
         fill="#80807f"
         d="m 1217.5,214.5 c 6.67,-0.166 13.34,0 20,0.5 1.59,1.046 3.09,2.213 4.5,3.5 0.67,12 0.67,24 0,36 -0.37,0.916 -0.87,1.75 -1.5,2.5 -4.39,1.107 -8.89,1.607 -13.5,1.5 -3.83,-0.167 -7.67,-0.333 -11.5,-0.5 -0.5,-0.5 -1,-1 -1.5,-1.5 -1.63,-12.571 -1.96,-25.238 -1,-38 1.4,-1.57 2.9,-2.904 4.5,-4 z"
         id="path65" />
    </g>
    <g
       id="g66"
       style="clip-rule:evenodd;fill-rule:evenodd;image-rendering:optimizeQuality;shape-rendering:geometricPrecision;text-rendering:geometricPrecision"
       transform="matrix(0.29734571,0,0,0.29734571,-316.50741,-4.6145786)">
      <path
         style="opacity:1"
         fill="#b9b9b9"
         d="m 1217.5,217.5 c 6.67,-0.166 13.34,0 20,0.5 0.5,0.5 1,1 1.5,1.5 0.67,11.667 0.67,23.333 0,35 -0.5,0.5 -1,1 -1.5,1.5 -6.67,0.667 -13.33,0.667 -20,0 -0.5,-0.5 -1,-1 -1.5,-1.5 -0.67,-11.667 -0.67,-23.333 0,-35 0.72,-0.544 1.22,-1.211 1.5,-2 z"
         id="path66" />
    </g>
  </g>
</svg>
