<?xml version="1.0" encoding="UTF-8" standalone="no"?>
<!-- Created with Inkscape (http://www.inkscape.org/) -->

<svg
   width="96mm"
   height="96mm"
   viewBox="0 0 96 96"
   version="1.1"
   id="svg1"
   inkscape:version="1.4.2 (ebf0e940, 2025-05-08)"
   sodipodi:docname="finish.svg"
   xmlns:inkscape="http://www.inkscape.org/namespaces/inkscape"
   xmlns:sodipodi="http://sodipodi.sourceforge.net/DTD/sodipodi-0.dtd"
   xmlns="http://www.w3.org/2000/svg"
   xmlns:svg="http://www.w3.org/2000/svg">
  <sodipodi:namedview
     id="namedview1"
     pagecolor="#ffffff"
     bordercolor="#000000"
     borderopacity="0.25"
     inkscape:showpageshadow="2"
     inkscape:pageopacity="0.0"
     inkscape:pagecheckerboard="0"
     inkscape:deskcolor="#d1d1d1"
     inkscape:document-units="mm"
     inkscape:zoom="0.80444024"
     inkscape:cx="397.17059"
     inkscape:cy="262.91574"
     inkscape:window-width="1920"
     inkscape:window-height="1052"
     inkscape:window-x="0"
     inkscape:window-y="28"
     inkscape:window-maximized="0"
     inkscape:current-layer="layer1" />
  <defs
     id="defs1" />
  <g
     inkscape:label="Layer 1"
     inkscape:groupmode="layer"
     id="layer1">
    <g
       id="g98"
       style="clip-rule:evenodd;fill-rule:evenodd;image-rendering:optimizeQuality;shape-rendering:geometricPrecision;text-rendering:geometricPrecision"
       transform="matrix(0.29357166,0,0,0.29357166,-212.20252,-111.41063)">
      <path
         style="opacity:1"
         fill="#747575"
         d="m 874.5,421.5 c 53.096,-1.711 93.263,19.956 120.5,65 15.45,30.33 18.78,61.996 10,95 -17.853,52.509 -54.353,82.343 -109.5,89.5 -54.594,0.798 -94.761,-22.702 -120.5,-70.5 -21.377,-49.631 -15.044,-95.297 19,-137 21.972,-23.402 48.805,-37.402 80.5,-42 z"
         id="path98" />
    </g>
    <g
       id="g99"
       style="clip-rule:evenodd;fill-rule:evenodd;image-rendering:optimizeQuality;shape-rendering:geometricPrecision;text-rendering:geometricPrecision"
       transform="matrix(0.29357166,0,0,0.29357166,-212.20252,-111.41063)">
      <path
         style="opacity:1"
         fill="#f8f8f8"
         d="m 874.5,430.5 c 60.982,-1.111 101.815,26.889 122.5,84 10.97,47.293 -1.193,87.46 -36.5,120.5 -40.267,31.18 -83.267,35.513 -129,13 -42.738,-26.458 -62.571,-64.958 -59.5,-115.5 8.586,-46.92 35.086,-79.086 79.5,-96.5 7.694,-2.3 15.36,-4.134 23,-5.5 z"
         id="path99" />
    </g>
    <g
       id="g119"
       style="clip-rule:evenodd;fill-rule:evenodd;image-rendering:optimizeQuality;shape-rendering:geometricPrecision;text-rendering:geometricPrecision"
       transform="matrix(0.29357166,0,0,0.29357166,-212.20252,-111.41063)">
      <path
         style="opacity:1"
         fill="#757574"
         d="m 948.5,472.5 c 1.333,0 2.667,0 4,0 6.046,32.612 11.546,65.279 16.5,98 -13.43,11.363 -28.93,15.863 -46.5,13.5 -9.74,-2.368 -19.406,-5.034 -29,-8 -17.253,-3.911 -32.92,-0.578 -47,10 4.568,14.772 8.901,29.605 13,44.5 -1.686,7.381 -5.519,8.715 -11.5,4 -13.865,-45.93 -27.532,-91.93 -41,-138 -1.623,-5.196 0.21,-8.196 5.5,-9 2.412,-0.094 4.245,0.906 5.5,3 16.952,-11.994 35.786,-16.494 56.5,-13.5 10.384,2.461 20.718,5.128 31,8 9.901,1.183 19.567,0.183 29,-3 5.252,-2.448 9.919,-5.614 14,-9.5 z"
         id="path119" />
    </g>
    <g
       id="g120"
       style="clip-rule:evenodd;fill-rule:evenodd;image-rendering:optimizeQuality;shape-rendering:geometricPrecision;text-rendering:geometricPrecision"
       transform="matrix(0.29357166,0,0,0.29357166,-212.20252,-111.41063)">
      <path
         style="opacity:1"
         fill="#f6f6f6"
         d="m 852.5,527.5 c 1.644,-0.214 3.144,0.12 4.5,1 2.135,6.539 3.635,13.206 4.5,20 -7.754,1.804 -14.754,5.137 -21,10 -2.131,-5.172 -3.965,-10.505 -5.5,-16 -0.667,-1.667 -0.667,-3.333 0,-5 5.521,-4.007 11.354,-7.34 17.5,-10 z"
         id="path120" />
    </g>
    <g
       id="g121"
       style="clip-rule:evenodd;fill-rule:evenodd;image-rendering:optimizeQuality;shape-rendering:geometricPrecision;text-rendering:geometricPrecision"
       transform="matrix(0.29357166,0,0,0.29357166,-212.20252,-111.41063)">
      <path
         style="opacity:1"
         fill="#f6f6f6"
         d="m 903.5,510.5 c 8.499,1.874 17.166,2.54 26,2 1.373,7.277 2.373,14.611 3,22 -7.738,0.356 -15.405,-0.144 -23,-1.5 -2.566,-7.321 -4.566,-14.821 -6,-22.5 z"
         id="path121" />
    </g>
    <g
       id="g122"
       style="clip-rule:evenodd;fill-rule:evenodd;image-rendering:optimizeQuality;shape-rendering:geometricPrecision;text-rendering:geometricPrecision"
       transform="matrix(0.29357166,0,0,0.29357166,-212.20252,-111.41063)">
      <path
         style="opacity:1"
         fill="#f6f6f6"
         d="m 854.5,503.5 c 7.674,-0.166 15.341,0 23,0.5 1.854,6.763 3.52,13.596 5,20.5 -8.648,-0.445 -17.314,0.222 -26,2 -1.414,-7.406 -3.081,-14.739 -5,-22 1.291,0.237 2.291,-0.096 3,-1 z"
         id="path122" />
    </g>
    <g
       id="g123"
       style="clip-rule:evenodd;fill-rule:evenodd;image-rendering:optimizeQuality;shape-rendering:geometricPrecision;text-rendering:geometricPrecision"
       transform="matrix(0.29357166,0,0,0.29357166,-212.20252,-111.41063)">
      <path
         style="opacity:1"
         fill="#f6f6f6"
         d="m 841.5,484.5 c 1.644,-0.214 3.144,0.12 4.5,1 2.143,6.227 3.476,12.56 4,19 -8.099,2.466 -15.599,6.133 -22.5,11 -2.632,-6.864 -4.465,-13.864 -5.5,-21 6.514,-3.506 13.014,-6.839 19.5,-10 z"
         id="path123" />
    </g>
    <g
       id="g124"
       style="clip-rule:evenodd;fill-rule:evenodd;image-rendering:optimizeQuality;shape-rendering:geometricPrecision;text-rendering:geometricPrecision"
       transform="matrix(0.29357166,0,0,0.29357166,-212.20252,-111.41063)">
      <path
         style="opacity:1"
         fill="#f6f6f6"
         d="m 946.5,480.5 c 2.773,6.973 3.939,14.307 3.5,22 -5.572,4.528 -11.906,7.528 -19,9 -0.945,-0.405 -1.612,-1.072 -2,-2 -0.72,-6.098 -1.886,-12.098 -3.5,-18 6.514,-2.254 12.848,-5.087 19,-8.5 0.881,-0.708 1.547,-1.542 2,-2.5 z"
         id="path124" />
    </g>
    <g
       id="g125"
       style="clip-rule:evenodd;fill-rule:evenodd;image-rendering:optimizeQuality;shape-rendering:geometricPrecision;text-rendering:geometricPrecision"
       transform="matrix(0.29357166,0,0,0.29357166,-212.20252,-111.41063)">
      <path
         style="opacity:1"
         fill="#f5f5f5"
         d="m 903.5,510.5 c -8.372,-2.343 -16.705,-4.843 -25,-7.5 -1.858,-6.79 -3.524,-13.623 -5,-20.5 8.886,1.275 17.552,3.442 26,6.5 1.52,7.101 2.853,14.267 4,21.5 z"
         id="path125" />
    </g>
    <g
       id="g126"
       style="clip-rule:evenodd;fill-rule:evenodd;image-rendering:optimizeQuality;shape-rendering:geometricPrecision;text-rendering:geometricPrecision"
       transform="matrix(0.29357166,0,0,0.29357166,-212.20252,-111.41063)">
      <path
         style="opacity:1"
         fill="#f6f6f6"
         d="m 912.5,555.5 c -8.028,-3.512 -16.361,-5.679 -25,-6.5 1.907,6.702 3.24,13.535 4,20.5 -7.672,-1.164 -15.339,-1.33 -23,-0.5 -1.763,-6.547 -3.763,-13.047 -6,-19.5 1.229,-0.781 2.562,-1.281 4,-1.5 6.992,-0.5 13.992,-0.666 21,-0.5 -1.335,-7.021 -2.669,-14.021 -4,-21 8.051,1.847 16.051,4.013 24,6.5 2.039,7.395 3.706,14.895 5,22.5 z"
         id="path126" />
    </g>
    <g
       id="g127"
       style="clip-rule:evenodd;fill-rule:evenodd;image-rendering:optimizeQuality;shape-rendering:geometricPrecision;text-rendering:geometricPrecision"
       transform="matrix(0.29357166,0,0,0.29357166,-212.20252,-111.41063)">
      <path
         style="opacity:1"
         fill="#f6f6f6"
         d="m 912.5,555.5 c 7.575,2.171 15.242,2.504 23,1 0.877,-6.762 0.21,-13.429 -2,-20 0.333,-0.667 0.667,-1.333 1,-2 7.597,-1.642 14.597,-4.642 21,-9 1.608,6.983 2.775,13.983 3.5,21 -6.231,4.949 -13.231,8.282 -21,10 0.715,7.304 1.548,14.637 2.5,22 -7.738,0.356 -15.405,-0.144 -23,-1.5 -2.145,-7.03 -3.812,-14.197 -5,-21.5 z"
         id="path127" />
    </g>
  </g>
</svg>
