<?xml version="1.0" encoding="UTF-8" standalone="no"?>
<!-- Created with Inkscape (http://www.inkscape.org/) -->

<svg
   width="96mm"
   height="96mm"
   viewBox="0 0 96 96"
   version="1.1"
   id="svg1"
   inkscape:version="1.4.2 (ebf0e940, 2025-05-08)"
   sodipodi:docname="crane.svg"
   xmlns:inkscape="http://www.inkscape.org/namespaces/inkscape"
   xmlns:sodipodi="http://sodipodi.sourceforge.net/DTD/sodipodi-0.dtd"
   xmlns="http://www.w3.org/2000/svg"
   xmlns:svg="http://www.w3.org/2000/svg">
  <sodipodi:namedview
     id="namedview1"
     pagecolor="#ffffff"
     bordercolor="#000000"
     borderopacity="0.25"
     inkscape:showpageshadow="2"
     inkscape:pageopacity="0.0"
     inkscape:pagecheckerboard="0"
     inkscape:deskcolor="#d1d1d1"
     inkscape:document-units="mm"
     inkscape:zoom="0.80444024"
     inkscape:cx="397.17059"
     inkscape:cy="262.91574"
     inkscape:window-width="1920"
     inkscape:window-height="1052"
     inkscape:window-x="0"
     inkscape:window-y="28"
     inkscape:window-maximized="0"
     inkscape:current-layer="layer1" />
  <defs
     id="defs1" />
  <g
     inkscape:label="Layer 1"
     inkscape:groupmode="layer"
     id="layer1">
    <g
       id="g5"
       style="clip-rule:evenodd;fill-rule:evenodd;image-rendering:optimizeQuality;shape-rendering:geometricPrecision;text-rendering:geometricPrecision"
       transform="matrix(0.29295931,0,0,0.29295931,-103.86592,-5.4014546)">
      <path
         style="opacity:1"
         fill="#686866"
         d="m 535.5,121.5 c 0.333,8.667 0.667,17.333 1,26 0.45,8.339 0.616,16.672 0.5,25 -0.232,-1.237 -0.732,-2.237 -1.5,-3 -1.672,-30.361 -3.672,-60.694 -6,-91 -5.333,0 -10.667,0 -16,0 -2.289,38.68 -4.789,77.347 -7.5,116 -0.5,20.331 -0.667,40.664 -0.5,61 11.179,0.328 22.179,-0.005 33,-1 0.831,-14.828 1.331,-29.828 1.5,-45 1.424,3.797 1.924,7.797 1.5,12 1.644,0.214 3.144,-0.12 4.5,-1 0.499,-3.652 0.665,-7.318 0.5,-11 -1.788,0.285 -3.455,-0.048 -5,-1 2.527,-0.714 5.027,-1.38 7.5,-2 0.499,5.323 0.666,10.656 0.5,16 2.027,-0.162 4.027,0.005 6,0.5 -4.851,0.174 -9.518,0.674 -14,1.5 0.167,10.672 0,21.339 -0.5,32 -0.383,0.556 -0.883,0.889 -1.5,1 -12,0 -24,0 -36,0 0.329,-13.844 -0.004,-27.51 -1,-41 -0.762,-1.762 -2.096,-2.762 -4,-3 -4.816,-0.826 -9.816,-1.326 -15,-1.5 6.052,-0.79 12.052,-0.624 18,0.5 0.966,-1.896 1.299,-3.896 1,-6 2.834,-49.009 5.834,-98.009 9,-147 1.667,0 3.333,0 5,0 -0.163,-2.3568 0.003,-4.6902 0.5,-7 3.333,-1.3333 6.667,-1.3333 10,0 0.497,2.3098 0.663,4.6432 0.5,7 1.644,-0.2135 3.144,0.1198 4.5,1 0.229,20.4047 1.395,40.738 3.5,61 z"
         id="path5" />
    </g>
    <g
       id="g6"
       style="clip-rule:evenodd;fill-rule:evenodd;image-rendering:optimizeQuality;shape-rendering:geometricPrecision;text-rendering:geometricPrecision"
       transform="matrix(0.29295931,0,0,0.29295931,-103.86592,-5.4014546)">
      <path
         style="opacity:1"
         fill="#adaead"
         d="m 513.5,62.5 c 5.333,0 10.667,0 16,0 0,4.6667 0,9.3333 0,14 -5.333,0 -10.667,0 -16,0 0,-4.6667 0,-9.3333 0,-14 z"
         id="path6" />
    </g>
    <g
       id="g20"
       style="clip-rule:evenodd;fill-rule:evenodd;image-rendering:optimizeQuality;shape-rendering:geometricPrecision;text-rendering:geometricPrecision"
       transform="matrix(0.29295931,0,0,0.29295931,-103.86592,-5.4014546)">
      <path
         style="opacity:1"
         fill="#ababa9"
         d="m 535.5,169.5 c 2.576,28.263 3.576,56.596 3,85 -10.821,0.995 -21.821,1.328 -33,1 -0.167,-20.336 0,-40.669 0.5,-61 2.711,-38.653 5.211,-77.32 7.5,-116 5.333,0 10.667,0 16,0 2.328,30.306 4.328,60.639 6,91 z"
         id="path20" />
    </g>
    <g
       id="g21"
       style="clip-rule:evenodd;fill-rule:evenodd;image-rendering:optimizeQuality;shape-rendering:geometricPrecision;text-rendering:geometricPrecision"
       transform="matrix(0.29295931,0,0,0.29295931,-103.86592,-5.4014546)">
      <path
         style="opacity:1"
         fill="#6f706d"
         d="m 525.5,104.5 c 1.32,2.928 1.986,6.261 2,10 -0.167,3.333 -0.333,6.667 -0.5,10 -3.846,-2.512 -7.012,-5.679 -9.5,-9.5 2.868,-3.366 5.535,-6.866 8,-10.5 z"
         id="path21" />
    </g>
    <g
       id="g22"
       style="clip-rule:evenodd;fill-rule:evenodd;image-rendering:optimizeQuality;shape-rendering:geometricPrecision;text-rendering:geometricPrecision"
       transform="matrix(0.29295931,0,0,0.29295931,-103.86592,-5.4014546)">
      <path
         style="opacity:1"
         fill="#dedfdd"
         d="m 523.5,110.5 c 1.243,3.133 1.743,6.467 1.5,10 -1.892,-1.554 -3.392,-3.388 -4.5,-5.5 0.815,-1.643 1.815,-3.143 3,-4.5 z"
         id="path22" />
    </g>
    <g
       id="g23"
       style="clip-rule:evenodd;fill-rule:evenodd;image-rendering:optimizeQuality;shape-rendering:geometricPrecision;text-rendering:geometricPrecision"
       transform="matrix(0.29295931,0,0,0.29295931,-103.86592,-5.4014546)">
      <path
         style="opacity:1"
         fill="#6c6d6b"
         d="m 516.5,91.5 c 3.264,2.5974 6.264,5.5974 9,9 -3.021,3.186 -5.854,6.52 -8.5,10 -0.5,-6.325 -0.666,-12.6579 -0.5,-19 z"
         id="path23" />
    </g>
    <g
       id="g24"
       style="clip-rule:evenodd;fill-rule:evenodd;image-rendering:optimizeQuality;shape-rendering:geometricPrecision;text-rendering:geometricPrecision"
       transform="matrix(0.29295931,0,0,0.29295931,-103.86592,-5.4014546)">
      <path
         style="opacity:1"
         fill="#c8cbc9"
         d="m 518.5,98.5 c 4.889,0.9823 5.223,2.982 1,6 -0.966,-1.896 -1.299,-3.896 -1,-6 z"
         id="path24" />
    </g>
    <g
       id="g25"
       style="clip-rule:evenodd;fill-rule:evenodd;image-rendering:optimizeQuality;shape-rendering:geometricPrecision;text-rendering:geometricPrecision"
       transform="matrix(0.29295931,0,0,0.29295931,-103.86592,-5.4014546)">
      <path
         style="opacity:1"
         fill="#70716e"
         d="m 518.5,80.5 c 2.333,0 4.667,0 7,0 -0.062,5.4197 0.105,10.753 0.5,16 -2.333,-2.3333 -4.667,-4.6667 -7,-7 -0.498,-2.9816 -0.665,-5.9816 -0.5,-9 z"
         id="path25" />
    </g>
    <g
       id="g26"
       style="clip-rule:evenodd;fill-rule:evenodd;image-rendering:optimizeQuality;shape-rendering:geometricPrecision;text-rendering:geometricPrecision"
       transform="matrix(0.29295931,0,0,0.29295931,-103.86592,-5.4014546)">
      <path
         style="opacity:1"
         fill="#e1e2e1"
         d="m 520.5,82.5 c 1.225,0.6522 1.892,1.8189 2,3.5 -0.167,1.1667 -0.333,2.3333 -0.5,3.5 -1.352,-2.0938 -1.852,-4.4272 -1.5,-7 z"
         id="path26" />
    </g>
    <g
       id="g31"
       style="clip-rule:evenodd;fill-rule:evenodd;image-rendering:optimizeQuality;shape-rendering:geometricPrecision;text-rendering:geometricPrecision"
       transform="matrix(0.29295931,0,0,0.29295931,-103.86592,-5.4014546)">
      <path
         style="opacity:1"
         fill="#71726f"
         d="m 515.5,119.5 c 3.944,2.605 7.61,5.605 11,9 -3.436,3.557 -7.103,6.891 -11,10 -0.141,-6.202 -0.141,-12.536 0,-19 z"
         id="path31" />
    </g>
    <g
       id="g32"
       style="clip-rule:evenodd;fill-rule:evenodd;image-rendering:optimizeQuality;shape-rendering:geometricPrecision;text-rendering:geometricPrecision"
       transform="matrix(0.29295931,0,0,0.29295931,-103.86592,-5.4014546)">
      <path
         style="opacity:1"
         fill="#e9e9e8"
         d="m 517.5,123.5 c 2.009,1.669 4.009,3.336 6,5 -1.983,1.482 -3.816,3.149 -5.5,5 -0.498,-3.317 -0.665,-6.65 -0.5,-10 z"
         id="path32" />
    </g>
    <g
       id="g45"
       style="clip-rule:evenodd;fill-rule:evenodd;image-rendering:optimizeQuality;shape-rendering:geometricPrecision;text-rendering:geometricPrecision"
       transform="matrix(0.29295931,0,0,0.29295931,-103.86592,-5.4014546)">
      <path
         style="opacity:1"
         fill="#cdcdcc"
         d="m 535.5,121.5 c 1.748,12.46 2.748,25.127 3,38 -0.667,-4 -1.333,-8 -2,-12 -0.333,-8.667 -0.667,-17.333 -1,-26 z"
         id="path45" />
    </g>
    <g
       id="g47"
       style="clip-rule:evenodd;fill-rule:evenodd;image-rendering:optimizeQuality;shape-rendering:geometricPrecision;text-rendering:geometricPrecision"
       transform="matrix(0.29295931,0,0,0.29295931,-103.86592,-5.4014546)">
      <path
         style="opacity:1"
         fill="#6d6e6b"
         d="m 527.5,131.5 c 1.312,2.243 1.978,4.91 2,8 0.632,5.054 0.632,10.054 0,15 -4.986,-3.655 -9.653,-7.655 -14,-12 4.046,-3.717 8.046,-7.384 12,-11 z"
         id="path47" />
    </g>
    <g
       id="g48"
       style="clip-rule:evenodd;fill-rule:evenodd;image-rendering:optimizeQuality;shape-rendering:geometricPrecision;text-rendering:geometricPrecision"
       transform="matrix(0.29295931,0,0,0.29295931,-103.86592,-5.4014546)">
      <path
         style="opacity:1"
         fill="#b8b8b7"
         d="m 525.5,136.5 c 0.06,-0.543 0.393,-0.876 1,-1 0.992,4.283 1.326,8.616 1,13 -1.291,0.237 -2.291,-0.096 -3,-1 1.287,-1.371 1.953,-3.205 2,-5.5 -0.006,-2.033 -0.339,-3.866 -1,-5.5 z"
         id="path48" />
    </g>
    <g
       id="g49"
       style="clip-rule:evenodd;fill-rule:evenodd;image-rendering:optimizeQuality;shape-rendering:geometricPrecision;text-rendering:geometricPrecision"
       transform="matrix(0.29295931,0,0,0.29295931,-103.86592,-5.4014546)">
      <path
         style="opacity:1"
         fill="#f0f0f0"
         d="m 525.5,136.5 c 0.661,1.634 0.994,3.467 1,5.5 -0.047,2.295 -0.713,4.129 -2,5.5 -1.817,-1.316 -3.483,-2.816 -5,-4.5 1.485,-2.652 3.485,-4.818 6,-6.5 z"
         id="path49" />
    </g>
    <g
       id="g51"
       style="clip-rule:evenodd;fill-rule:evenodd;image-rendering:optimizeQuality;shape-rendering:geometricPrecision;text-rendering:geometricPrecision"
       transform="matrix(0.29295931,0,0,0.29295931,-103.86592,-5.4014546)">
      <path
         style="opacity:1"
         fill="#737472"
         d="m 513.5,146.5 c 5.268,3.263 10.268,6.93 15,11 -4.719,4.053 -9.719,7.72 -15,11 -1.227,-7.346 -1.227,-14.679 0,-22 z"
         id="path51" />
    </g>
    <g
       id="g52"
       style="clip-rule:evenodd;fill-rule:evenodd;image-rendering:optimizeQuality;shape-rendering:geometricPrecision;text-rendering:geometricPrecision"
       transform="matrix(0.29295931,0,0,0.29295931,-103.86592,-5.4014546)">
      <path
         style="opacity:1"
         fill="#e9eae9"
         d="m 515.5,150.5 c 3.521,1.602 6.521,3.935 9,7 -2.78,2.564 -5.78,4.897 -9,7 -1.069,-4.656 -1.069,-9.322 0,-14 z"
         id="path52" />
    </g>
    <g
       id="g53"
       style="clip-rule:evenodd;fill-rule:evenodd;image-rendering:optimizeQuality;shape-rendering:geometricPrecision;text-rendering:geometricPrecision"
       transform="matrix(0.29295931,0,0,0.29295931,-103.86592,-5.4014546)">
      <path
         style="opacity:1"
         fill="#70716f"
         d="m 528.5,160.5 c 1.545,0.73 2.378,2.063 2.5,4 0.831,6.692 0.664,13.358 -0.5,20 -6.231,-3.275 -11.897,-7.275 -17,-12 5.043,-4.054 10.043,-8.054 15,-12 z"
         id="path53" />
    </g>
    <g
       id="g54"
       style="clip-rule:evenodd;fill-rule:evenodd;image-rendering:optimizeQuality;shape-rendering:geometricPrecision;text-rendering:geometricPrecision"
       transform="matrix(0.29295931,0,0,0.29295931,-103.86592,-5.4014546)">
      <path
         style="opacity:1"
         fill="#ebebeb"
         d="m 526.5,164.5 c 1,0 2,0 3,0 0.328,5.375 -0.005,10.708 -1,16 -4.236,-1.945 -7.903,-4.612 -11,-8 3.045,-2.718 6.045,-5.384 9,-8 z"
         id="path54" />
    </g>
    <g
       id="g55"
       style="clip-rule:evenodd;fill-rule:evenodd;image-rendering:optimizeQuality;shape-rendering:geometricPrecision;text-rendering:geometricPrecision"
       transform="matrix(0.29295931,0,0,0.29295931,-103.86592,-5.4014546)">
      <path
         style="opacity:1"
         fill="#6c6c6b"
         d="m 511.5,176.5 c 6.775,3.225 13.108,7.225 19,12 -6.667,4.333 -13.333,8.667 -20,13 -0.333,-0.5 -0.667,-1 -1,-1.5 1.048,-7.792 1.715,-15.625 2,-23.5 z"
         id="path55" />
    </g>
    <g
       id="g56"
       style="clip-rule:evenodd;fill-rule:evenodd;image-rendering:optimizeQuality;shape-rendering:geometricPrecision;text-rendering:geometricPrecision"
       transform="matrix(0.29295931,0,0,0.29295931,-103.86592,-5.4014546)">
      <path
         style="opacity:1"
         fill="#ececeb"
         d="m 513.5,180.5 c 4.62,1.442 8.62,3.942 12,7.5 -3.803,3.503 -7.969,6.669 -12.5,9.5 -0.469,-5.682 -0.302,-11.348 0.5,-17 z"
         id="path56" />
    </g>
    <g
       id="g62"
       style="clip-rule:evenodd;fill-rule:evenodd;image-rendering:optimizeQuality;shape-rendering:geometricPrecision;text-rendering:geometricPrecision"
       transform="matrix(0.29295931,0,0,0.29295931,-103.86592,-5.4014546)">
      <path
         style="opacity:1"
         fill="#757574"
         d="m 536.5,147.5 c 0.667,4 1.333,8 2,12 0.84,15.657 1.507,31.324 2,47 1.667,0 3.333,0 5,0 -0.734,-12.33 4.932,-16.497 17,-12.5 0.5,0.5 1,1 1.5,1.5 1.12,5.393 1.62,10.893 1.5,16.5 -10e-4,5.012 -0.334,9.845 -1,14.5 0.166,-9.339 0,-18.673 -0.5,-28 -1.097,3.884 -1.597,7.884 -1.5,12 0.018,3.584 0.352,7.084 1,10.5 -0.658,2.727 -1.825,5.227 -3.5,7.5 -0.383,-0.556 -0.883,-0.889 -1.5,-1 -1.127,-0.622 -2.127,-1.455 -3,-2.5 -4.655,-0.499 -9.321,-0.666 -14,-0.5 4.482,-0.826 9.149,-1.326 14,-1.5 -1.973,-0.495 -3.973,-0.662 -6,-0.5 0.166,-5.344 -10e-4,-10.677 -0.5,-16 -2.473,0.62 -4.973,1.286 -7.5,2 1.545,0.952 3.212,1.285 5,1 0.165,3.682 -10e-4,7.348 -0.5,11 -1.356,0.88 -2.856,1.214 -4.5,1 0.424,-4.203 -0.076,-8.203 -1.5,-12 -0.169,15.172 -0.669,30.172 -1.5,45 0.576,-28.404 -0.424,-56.737 -3,-85 0.768,0.763 1.268,1.763 1.5,3 0.116,-8.328 -0.05,-16.661 -0.5,-25 z"
         id="path62" />
    </g>
    <g
       id="g63"
       style="clip-rule:evenodd;fill-rule:evenodd;image-rendering:optimizeQuality;shape-rendering:geometricPrecision;text-rendering:geometricPrecision"
       transform="matrix(0.29295931,0,0,0.29295931,-103.86592,-5.4014546)">
      <path
         style="opacity:1"
         fill="#686a67"
         d="m 530.5,191.5 c 1,0 2,0 3,0 0.474,9.699 0.474,19.366 0,29 -7.18,-5.091 -14.18,-10.424 -21,-16 6.042,-4.39 12.042,-8.723 18,-13 z"
         id="path63" />
    </g>
    <g
       id="g64"
       style="clip-rule:evenodd;fill-rule:evenodd;image-rendering:optimizeQuality;shape-rendering:geometricPrecision;text-rendering:geometricPrecision"
       transform="matrix(0.29295931,0,0,0.29295931,-103.86592,-5.4014546)">
      <path
         style="opacity:1"
         fill="#a3a5a4"
         d="m 530.5,195.5 c 0.983,3.798 1.317,7.798 1,12 -4.532,0.318 -8.866,-0.015 -13,-1 4,0 8,0 12,0 0,-3.667 0,-7.333 0,-11 z"
         id="path64" />
    </g>
    <g
       id="g65"
       style="clip-rule:evenodd;fill-rule:evenodd;image-rendering:optimizeQuality;shape-rendering:geometricPrecision;text-rendering:geometricPrecision"
       transform="matrix(0.29295931,0,0,0.29295931,-103.86592,-5.4014546)">
      <path
         style="opacity:1"
         fill="#f2f3f2"
         d="m 530.5,195.5 c 0,3.667 0,7.333 0,11 -4,0 -8,0 -12,0 -1.966,-0.755 -2.3,-1.921 -1,-3.5 4.062,-3.029 8.395,-5.529 13,-7.5 z"
         id="path65" />
    </g>
    <g
       id="g67"
       style="clip-rule:evenodd;fill-rule:evenodd;image-rendering:optimizeQuality;shape-rendering:geometricPrecision;text-rendering:geometricPrecision"
       transform="matrix(0.29295931,0,0,0.29295931,-103.86592,-5.4014546)">
      <path
         style="opacity:1"
         fill="#6f6f6d"
         d="m 508.5,206.5 c 8.529,4.853 16.529,10.52 24,17 -7.652,8.152 -15.485,16.152 -23.5,24 -0.5,-13.663 -0.667,-27.329 -0.5,-41 z"
         id="path67" />
    </g>
    <g
       id="g69"
       style="clip-rule:evenodd;fill-rule:evenodd;image-rendering:optimizeQuality;shape-rendering:geometricPrecision;text-rendering:geometricPrecision"
       transform="matrix(0.29295931,0,0,0.29295931,-103.86592,-5.4014546)">
      <path
         style="opacity:1"
         fill="#727170"
         d="m 502.5,206.5 c 0.299,2.104 -0.034,4.104 -1,6 -5.948,-1.124 -11.948,-1.29 -18,-0.5 5.184,0.174 10.184,0.674 15,1.5 -2.333,0 -4.667,0 -7,0 -3.682,-0.165 -7.348,0.001 -11,0.5 -0.833,0.833 -1.667,1.667 -2.5,2.5 -0.175,4.519 -0.675,8.853 -1.5,13 0.367,-4.467 -0.133,-8.8 -1.5,-13 -0.5,13.663 -0.667,27.329 -0.5,41 -1.161,-14.161 -1.327,-28.494 -0.5,-43 1.019,-1.187 2.186,-2.187 3.5,-3 0.829,-4.967 1.329,-9.967 1.5,-15 0.833,-0.833 1.667,-1.667 2.5,-2.5 4.787,-0.879 9.453,-0.545 14,1 0.5,0.5 1,1 1.5,1.5 0.499,3.652 0.665,7.318 0.5,11 1.792,0.134 3.458,-0.199 5,-1 z"
         id="path69" />
    </g>
    <g
       id="g70"
       style="clip-rule:evenodd;fill-rule:evenodd;image-rendering:optimizeQuality;shape-rendering:geometricPrecision;text-rendering:geometricPrecision"
       transform="matrix(0.29295931,0,0,0.29295931,-103.86592,-5.4014546)">
      <path
         style="opacity:1"
         fill="#a2a2a1"
         d="m 491.5,213.5 c -3.141,0.821 -6.475,1.321 -10,1.5 5.516,0.173 10.849,0.673 16,1.5 -5.344,-0.166 -10.677,0.001 -16,0.5 -0.956,3.394 -1.289,6.894 -1,10.5 6.333,0 12.667,0 19,0 0,-3 0,-6 0,-9 0.979,3.125 1.313,6.458 1,10 -7.008,-0.166 -14.008,0 -21,0.5 -0.5,0.5 -1,1 -1.5,1.5 -0.5,7.993 -0.666,15.993 -0.5,24 -0.993,-8.15 -1.326,-16.483 -1,-25 0.825,-4.147 1.325,-8.481 1.5,-13 0.833,-0.833 1.667,-1.667 2.5,-2.5 3.652,-0.499 7.318,-0.665 11,-0.5 z"
         id="path70" />
    </g>
    <g
       id="g76"
       style="clip-rule:evenodd;fill-rule:evenodd;image-rendering:optimizeQuality;shape-rendering:geometricPrecision;text-rendering:geometricPrecision"
       transform="matrix(0.29295931,0,0,0.29295931,-103.86592,-5.4014546)">
      <path
         style="opacity:1"
         fill="#b5b5b5"
         d="m 491.5,213.5 c 2.333,0 4.667,0 7,0 1.904,0.238 3.238,1.238 4,3 0.167,13.337 0,26.671 -0.5,40 -0.5,0.5 -1,1 -1.5,1.5 -5.657,0.499 -11.324,0.666 -17,0.5 -3.378,0.609 -5.378,-0.724 -6,-4 -0.166,-8.007 0,-16.007 0.5,-24 0.5,-0.5 1,-1 1.5,-1.5 6.992,-0.5 13.992,-0.666 21,-0.5 0.313,-3.542 -0.021,-6.875 -1,-10 -0.333,-1 -1,-1.667 -2,-2 -5.151,-0.827 -10.484,-1.327 -16,-1.5 3.525,-0.179 6.859,-0.679 10,-1.5 z"
         id="path76" />
    </g>
    <g
       id="g86"
       style="clip-rule:evenodd;fill-rule:evenodd;image-rendering:optimizeQuality;shape-rendering:geometricPrecision;text-rendering:geometricPrecision"
       transform="matrix(0.29295931,0,0,0.29295931,-103.86592,-5.4014546)">
      <path
         style="opacity:1"
         fill="#c3c4c3"
         d="m 477.5,261.5 c 4.654,-0.105 5.154,1.229 1.5,4 -0.5,9.661 -0.666,19.328 -0.5,29 -0.995,-10.821 -1.328,-21.821 -1,-33 z"
         id="path86" />
    </g>
    <g
       id="g91"
       style="clip-rule:evenodd;fill-rule:evenodd;image-rendering:optimizeQuality;shape-rendering:geometricPrecision;text-rendering:geometricPrecision"
       transform="matrix(0.29295931,0,0,0.29295931,-103.86592,-5.4014546)">
      <path
         style="opacity:1"
         fill="#686866"
         d="m 564.5,226.5 c -0.572,1.755 -1.406,3.422 -2.5,5 -0.667,10 -0.667,20 0,30 1.385,1.051 2.385,2.384 3,4 0.667,10 0.667,20 0,30 -0.374,0.916 -0.874,1.75 -1.5,2.5 -4.216,1.204 -8.549,1.87 -13,2 -2.039,2.374 -4.372,4.374 -7,6 -14.667,0.667 -29.333,0.667 -44,0 -4.468,-5.905 -10.468,-8.238 -18,-7 -1.641,-1.129 -2.641,-2.629 -3,-4.5 -0.166,-9.672 0,-19.339 0.5,-29 3.654,-2.771 3.154,-4.105 -1.5,-4 -1.762,-0.762 -2.762,-2.096 -3,-4 -0.167,-13.671 0,-27.337 0.5,-41 1.367,4.2 1.867,8.533 1.5,13 -0.326,8.517 0.007,16.85 1,25 0.622,3.276 2.622,4.609 6,4 4.816,0.826 9.816,1.326 15,1.5 -4.519,0.175 -8.853,0.675 -13,1.5 -0.977,2.787 -1.31,5.787 -1,9 -1,0 -2,0 -3,0 -0.156,8.029 0.177,16.029 1,24 2.687,0.164 5.354,-0.003 8,-0.5 -0.935,-2.381 -1.268,-4.881 -1,-7.5 -1.052,0.149 -2.052,-0.017 -3,-0.5 -1.238,-0.69 -1.238,-1.19 0,-1.5 23.336,0.167 46.669,0 70,-0.5 0.5,-0.5 1,-1 1.5,-1.5 0.5,-18.33 0.667,-36.664 0.5,-55 0.617,0.111 1.117,0.444 1.5,1 1.675,-2.273 2.842,-4.773 3.5,-7.5 -0.648,-3.416 -0.982,-6.916 -1,-10.5 -0.097,-4.116 0.403,-8.116 1.5,-12 0.5,9.327 0.666,18.661 0.5,28 z"
         id="path91" />
    </g>
    <g
       id="g92"
       style="clip-rule:evenodd;fill-rule:evenodd;image-rendering:optimizeQuality;shape-rendering:geometricPrecision;text-rendering:geometricPrecision"
       transform="matrix(0.29295931,0,0,0.29295931,-103.86592,-5.4014546)">
      <path
         style="opacity:1"
         fill="#737471"
         d="m 485.5,261.5 c -0.267,7.722 0.066,15.389 1,23 -1.238,0.31 -1.238,0.81 0,1.5 0.948,0.483 1.948,0.649 3,0.5 -0.268,2.619 0.065,5.119 1,7.5 -2.646,0.497 -5.313,0.664 -8,0.5 -0.823,-7.971 -1.156,-15.971 -1,-24 1,0 2,0 3,0 -0.31,-3.213 0.023,-6.213 1,-9 z"
         id="path92" />
    </g>
    <g
       id="g93"
       style="clip-rule:evenodd;fill-rule:evenodd;image-rendering:optimizeQuality;shape-rendering:geometricPrecision;text-rendering:geometricPrecision"
       transform="matrix(0.29295931,0,0,0.29295931,-103.86592,-5.4014546)">
      <path
         style="opacity:1"
         fill="#959594"
         d="m 492.5,287.5 c 19.493,-0.997 39.16,-1.33 59,-1 0.306,2.885 -0.027,5.552 -1,8 0,-2.333 0,-4.667 0,-7 -19.333,0 -38.667,0 -58,0 z"
         id="path93" />
    </g>
    <g
       id="g94"
       style="clip-rule:evenodd;fill-rule:evenodd;image-rendering:optimizeQuality;shape-rendering:geometricPrecision;text-rendering:geometricPrecision"
       transform="matrix(0.29295931,0,0,0.29295931,-103.86592,-5.4014546)">
      <path
         style="opacity:1"
         fill="#7d7d7c"
         d="m 502.5,216.5 c 0.996,13.49 1.329,27.156 1,41 12,0 24,0 36,0 -11.826,0.831 -23.826,1.331 -36,1.5 -0.828,0.915 -1.828,1.581 -3,2 -4.989,0.499 -9.989,0.666 -15,0.5 4.147,-0.825 8.481,-1.325 13,-1.5 -5.184,-0.174 -10.184,-0.674 -15,-1.5 5.676,0.166 11.343,-10e-4 17,-0.5 0.5,-0.5 1,-1 1.5,-1.5 0.5,-13.329 0.667,-26.663 0.5,-40 z"
         id="path94" />
    </g>
    <g
       id="g95"
       style="clip-rule:evenodd;fill-rule:evenodd;image-rendering:optimizeQuality;shape-rendering:geometricPrecision;text-rendering:geometricPrecision"
       transform="matrix(0.29295931,0,0,0.29295931,-103.86592,-5.4014546)">
      <path
         style="opacity:1"
         fill="#676867"
         d="m 534.5,226.5 c 0.993,8.15 1.326,16.483 1,25 -8.36,0.331 -16.693,-0.002 -25,-1 7.688,-8.354 15.688,-16.354 24,-24 z"
         id="path95" />
    </g>
    <g
       id="g96"
       style="clip-rule:evenodd;fill-rule:evenodd;image-rendering:optimizeQuality;shape-rendering:geometricPrecision;text-rendering:geometricPrecision"
       transform="matrix(0.29295931,0,0,0.29295931,-103.86592,-5.4014546)">
      <path
         style="opacity:1"
         fill="#7d7d7b"
         d="m 530.5,232.5 c 1.95,5.235 2.617,10.902 2,17 -5.706,0.329 -11.372,-0.005 -17,-1 5.274,-5.124 10.274,-10.457 15,-16 z"
         id="path96" />
    </g>
    <g
       id="g97"
       style="clip-rule:evenodd;fill-rule:evenodd;image-rendering:optimizeQuality;shape-rendering:geometricPrecision;text-rendering:geometricPrecision"
       transform="matrix(0.29295931,0,0,0.29295931,-103.86592,-5.4014546)">
      <path
         style="opacity:1"
         fill="#b3b4b3"
         d="m 541.5,224.5 c 4.679,-0.166 9.345,0.001 14,0.5 0.873,1.045 1.873,1.878 3,2.5 0.167,18.336 0,36.67 -0.5,55 -0.5,0.5 -1,1 -1.5,1.5 -23.331,0.5 -46.664,0.667 -70,0.5 -0.934,-7.611 -1.267,-15.278 -1,-23 5.011,0.166 10.011,-10e-4 15,-0.5 1.172,-0.419 2.172,-1.085 3,-2 12.174,-0.169 24.174,-0.669 36,-1.5 0.617,-0.111 1.117,-0.444 1.5,-1 0.5,-10.661 0.667,-21.328 0.5,-32 z"
         id="path97" />
    </g>
    <g
       id="g98"
       style="clip-rule:evenodd;fill-rule:evenodd;image-rendering:optimizeQuality;shape-rendering:geometricPrecision;text-rendering:geometricPrecision"
       transform="matrix(0.29295931,0,0,0.29295931,-103.86592,-5.4014546)">
      <path
         style="opacity:1"
         fill="#636462"
         d="m 497.5,216.5 c 1,0.333 1.667,1 2,2 0,3 0,6 0,9 -6.333,0 -12.667,0 -19,0 -0.289,-3.606 0.044,-7.106 1,-10.5 5.323,-0.499 10.656,-0.666 16,-0.5 z"
         id="path98" />
    </g>
    <g
       id="g99"
       style="clip-rule:evenodd;fill-rule:evenodd;image-rendering:optimizeQuality;shape-rendering:geometricPrecision;text-rendering:geometricPrecision"
       transform="matrix(0.29295931,0,0,0.29295931,-103.86592,-5.4014546)">
      <path
         style="opacity:1"
         fill="#7d7d79"
         d="m 482.5,218.5 c 4.679,-0.166 9.345,0.001 14,0.5 0.923,2.041 1.256,4.208 1,6.5 -5,0 -10,0 -15,0 0,-2.333 0,-4.667 0,-7 z"
         id="path99" />
    </g>
    <g
       id="g104"
       style="clip-rule:evenodd;fill-rule:evenodd;image-rendering:optimizeQuality;shape-rendering:geometricPrecision;text-rendering:geometricPrecision"
       transform="matrix(0.29295931,0,0,0.29295931,-103.86592,-5.4014546)">
      <path
         style="opacity:1"
         fill="#b5b5b5"
         d="m 492.5,287.5 c 19.333,0 38.667,0 58,0 0,2.333 0,4.667 0,7 -2.797,2.295 -5.464,4.795 -8,7.5 -14,0.667 -28,0.667 -42,0 -1.793,-2.795 -3.96,-5.295 -6.5,-7.5 -0.977,-2.24 -1.477,-4.573 -1.5,-7 z"
         id="path104" />
    </g>
    <g
       id="g105"
       style="clip-rule:evenodd;fill-rule:evenodd;image-rendering:optimizeQuality;shape-rendering:geometricPrecision;text-rendering:geometricPrecision"
       transform="matrix(0.29295931,0,0,0.29295931,-103.86592,-5.4014546)">
      <path
         style="opacity:1"
         fill="#959595"
         d="m 505.5,288.5 c 11,0 22,0 33,0 0.214,1.644 -0.12,3.144 -1,4.5 -10.333,0.667 -20.667,0.667 -31,0 -0.88,-1.356 -1.214,-2.856 -1,-4.5 z"
         id="path105" />
    </g>
  </g>
</svg>
