<?xml version="1.0" encoding="UTF-8" standalone="no"?>
<!-- Created with Inkscape (http://www.inkscape.org/) -->

<svg
   width="96mm"
   height="96mm"
   viewBox="0 0 96 96"
   version="1.1"
   id="svg1"
   inkscape:version="1.4.2 (ebf0e940, 2025-05-08)"
   sodipodi:docname="pickup.svg"
   xmlns:inkscape="http://www.inkscape.org/namespaces/inkscape"
   xmlns:sodipodi="http://sodipodi.sourceforge.net/DTD/sodipodi-0.dtd"
   xmlns="http://www.w3.org/2000/svg"
   xmlns:svg="http://www.w3.org/2000/svg">
  <sodipodi:namedview
     id="namedview1"
     pagecolor="#ffffff"
     bordercolor="#000000"
     borderopacity="0.25"
     inkscape:showpageshadow="2"
     inkscape:pageopacity="0.0"
     inkscape:pagecheckerboard="0"
     inkscape:deskcolor="#d1d1d1"
     inkscape:document-units="mm"
     inkscape:zoom="0.80444024"
     inkscape:cx="397.17059"
     inkscape:cy="262.91574"
     inkscape:window-width="1920"
     inkscape:window-height="1052"
     inkscape:window-x="0"
     inkscape:window-y="28"
     inkscape:window-maximized="0"
     inkscape:current-layer="layer1" />
  <defs
     id="defs1" />
  <g
     inkscape:label="Layer 1"
     inkscape:groupmode="layer"
     id="layer1">
    <g
       id="g2"
       style="clip-rule:evenodd;fill-rule:evenodd;image-rendering:optimizeQuality;shape-rendering:geometricPrecision;text-rendering:geometricPrecision"
       transform="matrix(0.30568783,0,0,0.30568783,-7.3963621,-6.6077665)">
      <path
         style="opacity:1"
         fill="#cfcfcf"
         d="m 167.5,51.5 c 4.655,-0.6659 9.488,-0.9993 14.5,-1 7.07,-0.1968 13.903,0.4699 20.5,2 -10.648,-0.777 -21.315,-1.1103 -32,-1 -1,0 -2,0 -3,0 z"
         id="path2" />
    </g>
    <g
       id="g3"
       style="clip-rule:evenodd;fill-rule:evenodd;image-rendering:optimizeQuality;shape-rendering:geometricPrecision;text-rendering:geometricPrecision"
       transform="matrix(0.30568783,0,0,0.30568783,-7.3963621,-6.6077665)">
      <path
         style="opacity:1"
         fill="#777776"
         d="m 167.5,51.5 c 1,0 2,0 3,0 -1.998,0.6475 -3.998,1.4808 -6,2.5 11,0.3333 22,0.6667 33,1 2.056,0.3108 4.056,0.8108 6,1.5 0.886,0.825 1.219,1.825 1,3 -15.4,-1.5502 -30.733,-1.2169 -46,1 -0.143,-1.7624 0.191,-3.4291 1,-5 -2.818,-1.3795 -5.485,-1.2129 -8,0.5 1.634,0.4935 3.301,0.6602 5,0.5 0.268,1.599 -0.066,2.9324 -1,4 0,-1 0,-2 0,-3 -3.654,0.4422 -7.321,0.7756 -11,1 -1.068,-0.9345 -2.401,-1.2678 -4,-1 8.572,-3.3901 17.572,-5.3901 27,-6 z"
         id="path3" />
    </g>
    <g
       id="g35"
       style="clip-rule:evenodd;fill-rule:evenodd;image-rendering:optimizeQuality;shape-rendering:geometricPrecision;text-rendering:geometricPrecision"
       transform="matrix(0.30568783,0,0,0.30568783,-7.3963621,-6.6077665)">
      <path
         style="opacity:1"
         fill="#70706f"
         d="m 170.5,51.5 c 10.685,-0.1103 21.352,0.223 32,1 6.077,1.9565 12.41,3.4565 19,4.5 3.585,1.9158 6.085,4.7491 7.5,8.5 0.223,6.7864 1.223,13.4531 3,20 0.333,14.667 0.667,29.333 1,44 5.191,1.191 8.358,4.358 9.5,9.5 -0.115,1.895 -0.782,3.562 -2,5 -2.832,0.326 -5.499,-0.174 -8,-1.5 0,27 0,54 0,81 -0.832,-27.164 -1.332,-54.497 -1.5,-82 -0.333,-0.333 -0.667,-0.667 -1,-1 -0.168,18.505 -0.668,36.838 -1.5,55 0.333,-18.345 0,-36.679 -1,-55 -0.586,-0.209 -1.086,-0.543 -1.5,-1 -0.333,16.333 -0.667,32.667 -1,49 -1.049,1.017 -2.216,1.184 -3.5,0.5 -2.46,-1.458 -4.627,-3.291 -6.5,-5.5 -0.667,-10.667 -0.667,-21.333 0,-32 2.917,-8.182 7.084,-15.515 12.5,-22 1.166,-13.654 1.333,-27.321 0.5,-41 -0.248,-5.0634 -0.915,-10.0634 -2,-15 -0.273,-1.8289 -1.107,-3.3289 -2.5,-4.5 -27.092,-10.5342 -54.425,-11.2009 -82,-2 -1.59,1.0458 -3.09,2.2125 -4.5,3.5 -1.798,5.1781 -2.798,10.5115 -3,16 -0.667,14.333 -0.667,28.667 0,43 1.154,1.243 2.488,2.243 4,3 2.923,5.515 5.59,11.182 8,17 1.768,11.609 1.935,23.276 0.5,35 -1.859,1.692 -3.859,3.192 -6,4.5 -1.428,0.579 -2.762,0.412 -4,-0.5 0.333,-16.347 -0.001,-32.68 -1,-49 -0.607,0.124 -0.94,0.457 -1,1 -0.997,18.159 -1.33,36.492 -1,55 2.667,0 5.333,0 8,0 -2.787,0.977 -5.787,1.31 -9,1 0.461,-18.735 -0.039,-37.402 -1.5,-56 -0.168,28.17 -0.668,56.17 -1.5,84 0,-27.333 0,-54.667 0,-82 -7.788,4.05 -10.955,1.717 -9.5,-7 2.297,-3.48 5.464,-5.48 9.5,-6 -0.839,-21.465 0.328,-42.7988 3.5,-64 1.377,-3.7791 3.877,-6.4458 7.5,-8 1.599,-0.2678 2.932,0.0655 4,1 -2.886,1.3792 -5.386,3.3792 -7.5,6 -0.688,0.8317 -0.521,1.4984 0.5,2 5.722,-3.054 11.722,-5.054 18,-6 0.934,-1.0676 1.268,-2.401 1,-4 -1.699,0.1602 -3.366,-0.0065 -5,-0.5 2.515,-1.7129 5.182,-1.8795 8,-0.5 -0.809,1.5709 -1.143,3.2376 -1,5 15.267,-2.2169 30.6,-2.5502 46,-1 0.219,-1.175 -0.114,-2.175 -1,-3 -1.944,-0.6892 -3.944,-1.1892 -6,-1.5 -11,-0.3333 -22,-0.6667 -33,-1 2.002,-1.0192 4.002,-1.8525 6,-2.5 z"
         id="path35" />
    </g>
    <g
       id="g36"
       style="clip-rule:evenodd;fill-rule:evenodd;image-rendering:optimizeQuality;shape-rendering:geometricPrecision;text-rendering:geometricPrecision"
       transform="matrix(0.30568783,0,0,0.30568783,-7.3963621,-6.6077665)">
      <path
         style="opacity:1"
         fill="#aaaba6"
         d="m 128.5,132.5 c 2.027,-0.162 4.027,0.005 6,0.5 1.473,0.71 2.14,1.876 2,3.5 -4.122,0.491 -8.122,1.491 -12,3 -1.083,-0.865 -1.249,-1.865 -0.5,-3 1.992,-0.828 3.492,-2.161 4.5,-4 z"
         id="path36" />
    </g>
    <g
       id="g37"
       style="clip-rule:evenodd;fill-rule:evenodd;image-rendering:optimizeQuality;shape-rendering:geometricPrecision;text-rendering:geometricPrecision"
       transform="matrix(0.30568783,0,0,0.30568783,-7.3963621,-6.6077665)">
      <path
         style="opacity:1"
         fill="#b4b4b3"
         d="m 228.5,195.5 c -4.313,0.51 -8.313,-0.157 -12,-2 -1,-1.667 -2.333,-3 -4,-4 -20.927,-1.154 -41.927,-1.321 -63,-0.5 -2.496,1.666 -4.829,3.5 -7,5.5 -0.206,-2.049 -1.039,-2.383 -2.5,-1 -1.14,-1.779 -2.307,-3.446 -3.5,-5 1.238,0.912 2.572,1.079 4,0.5 2.141,-1.308 4.141,-2.808 6,-4.5 1.435,-11.724 1.268,-23.391 -0.5,-35 -2.41,-5.818 -5.077,-11.485 -8,-17 -1.512,-0.757 -2.846,-1.757 -4,-3 -0.667,-14.333 -0.667,-28.667 0,-43 0.202,-5.4885 1.202,-10.8219 3,-16 1.41,-1.2875 2.91,-2.4542 4.5,-3.5 27.575,-9.2009 54.908,-8.5342 82,2 1.393,1.1711 2.227,2.6711 2.5,4.5 1.085,4.9366 1.752,9.9366 2,15 0.833,13.679 0.666,27.346 -0.5,41 -5.416,6.485 -9.583,13.818 -12.5,22 -0.667,10.667 -0.667,21.333 0,32 1.873,2.209 4.04,4.042 6.5,5.5 1.284,0.684 2.451,0.517 3.5,-0.5 0.333,-16.333 0.667,-32.667 1,-49 0.414,0.457 0.914,0.791 1.5,1 1,18.321 1.333,36.655 1,55 z"
         id="path37" />
    </g>
    <g
       id="g38"
       style="clip-rule:evenodd;fill-rule:evenodd;image-rendering:optimizeQuality;shape-rendering:geometricPrecision;text-rendering:geometricPrecision"
       transform="matrix(0.30568783,0,0,0.30568783,-7.3963621,-6.6077665)">
      <path
         style="opacity:1"
         fill="#636362"
         d="m 143.5,124.5 c 1.052,-0.149 2.052,0.017 3,0.5 -2.013,0.68 -3.346,2.013 -4,4 2.403,5.473 5.07,10.806 8,16 10.597,-1.159 21.264,-1.992 32,-2.5 9.726,0.455 19.393,1.455 29,3 1.905,-4.808 4.071,-9.475 6.5,-14 0.494,-1.634 0.66,-3.301 0.5,-5 -22.579,-7.249 -45.412,-7.916 -68.5,-2 -2.359,0.176 -2.859,-0.491 -1.5,-2 23.463,-5.74 46.796,-5.24 70,1.5 2.347,1.191 3.18,3.024 2.5,5.5 -2.449,6.063 -5.282,11.897 -8.5,17.5 -11.617,-0.958 -23.284,-1.791 -35,-2.5 -9.382,0.795 -18.715,1.628 -28,2.5 -5.15,-6.427 -7.817,-13.593 -8,-21.5 0.683,-0.363 1.35,-0.696 2,-1 z"
         id="path38" />
    </g>
    <g
       id="g39"
       style="clip-rule:evenodd;fill-rule:evenodd;image-rendering:optimizeQuality;shape-rendering:geometricPrecision;text-rendering:geometricPrecision"
       transform="matrix(0.30568783,0,0,0.30568783,-7.3963621,-6.6077665)">
      <path
         style="opacity:1"
         fill="#7b7b7b"
         d="m 143.5,124.5 c 1.43,-1.037 3.097,-1.704 5,-2 -1.359,1.509 -0.859,2.176 1.5,2 23.088,-5.916 45.921,-5.249 68.5,2 0.16,1.699 -0.006,3.366 -0.5,5 -2.429,4.525 -4.595,9.192 -6.5,14 -9.607,-1.545 -19.274,-2.545 -29,-3 -10.736,0.508 -21.403,1.341 -32,2.5 -2.93,-5.194 -5.597,-10.527 -8,-16 0.654,-1.987 1.987,-3.32 4,-4 -0.948,-0.483 -1.948,-0.649 -3,-0.5 z"
         id="path39" />
    </g>
    <g
       id="g40"
       style="clip-rule:evenodd;fill-rule:evenodd;image-rendering:optimizeQuality;shape-rendering:geometricPrecision;text-rendering:geometricPrecision"
       transform="matrix(0.30568783,0,0,0.30568783,-7.3963621,-6.6077665)">
      <path
         style="opacity:1"
         fill="#898989"
         d="m 204.5,66.5 c 1,0 2,0 3,0 2.676,16.5479 5.676,33.0479 9,49.5 -0.113,1.28 -0.78,2.113 -2,2.5 -3.959,-17.178 -7.293,-34.5117 -10,-52 z"
         id="path40" />
    </g>
    <g
       id="g41"
       style="clip-rule:evenodd;fill-rule:evenodd;image-rendering:optimizeQuality;shape-rendering:geometricPrecision;text-rendering:geometricPrecision"
       transform="matrix(0.30568783,0,0,0.30568783,-7.3963621,-6.6077665)">
      <path
         style="opacity:1"
         fill="#888888"
         d="m 154.5,67.5 c 1,0 2,0 3,0 -3.262,16.2387 -6.095,32.572 -8.5,49 -0.414,0.457 -0.914,0.791 -1.5,1 -0.333,-1 -0.667,-2 -1,-3 2.419,-15.7555 5.086,-31.4222 8,-47 z"
         id="path41" />
    </g>
    <g
       id="g42"
       style="clip-rule:evenodd;fill-rule:evenodd;image-rendering:optimizeQuality;shape-rendering:geometricPrecision;text-rendering:geometricPrecision"
       transform="matrix(0.30568783,0,0,0.30568783,-7.3963621,-6.6077665)">
      <path
         style="opacity:1"
         fill="#949492"
         d="m 155.5,60.5 c -6.278,0.946 -12.278,2.946 -18,6 -1.021,-0.5016 -1.188,-1.1683 -0.5,-2 2.114,-2.6208 4.614,-4.6208 7.5,-6 3.679,-0.2244 7.346,-0.5578 11,-1 0,1 0,2 0,3 z"
         id="path42" />
    </g>
    <g
       id="g43"
       style="clip-rule:evenodd;fill-rule:evenodd;image-rendering:optimizeQuality;shape-rendering:geometricPrecision;text-rendering:geometricPrecision"
       transform="matrix(0.30568783,0,0,0.30568783,-7.3963621,-6.6077665)">
      <path
         style="opacity:1"
         fill="#9c9c9b"
         d="m 206.5,57.5 c 4.81,0.5359 9.477,1.7025 14,3.5 2.688,0.7823 3.688,2.2823 3,4.5 -5.246,-1.804 -10.579,-3.304 -16,-4.5 -0.837,-1.0113 -1.17,-2.1779 -1,-3.5 z"
         id="path43" />
    </g>
    <g
       id="g44"
       style="clip-rule:evenodd;fill-rule:evenodd;image-rendering:optimizeQuality;shape-rendering:geometricPrecision;text-rendering:geometricPrecision"
       transform="matrix(0.30568783,0,0,0.30568783,-7.3963621,-6.6077665)">
      <path
         style="opacity:1"
         fill="#b1b1ac"
         d="m 226.5,132.5 c 5.593,-0.016 9.593,2.317 12,7 -4,-1 -8,-2 -12,-3 0,-1.333 0,-2.667 0,-4 z"
         id="path44" />
    </g>
    <g
       id="g50"
       style="clip-rule:evenodd;fill-rule:evenodd;image-rendering:optimizeQuality;shape-rendering:geometricPrecision;text-rendering:geometricPrecision"
       transform="matrix(0.30568783,0,0,0.30568783,-7.3963621,-6.6077665)">
      <path
         style="opacity:1"
         fill="#bfbfbf"
         d="m 136.5,188.5 c 1.193,1.554 2.36,3.221 3.5,5 1.461,-1.383 2.294,-1.049 2.5,1 -2.667,0 -5.333,0 -8,0 0,-18 0,-36 0,-54 0.06,-0.543 0.393,-0.876 1,-1 0.999,16.32 1.333,32.653 1,49 z"
         id="path50" />
    </g>
    <g
       id="g57"
       style="clip-rule:evenodd;fill-rule:evenodd;image-rendering:optimizeQuality;shape-rendering:geometricPrecision;text-rendering:geometricPrecision"
       transform="matrix(0.30568783,0,0,0.30568783,-7.3963621,-6.6077665)">
      <path
         style="opacity:1"
         fill="#636262"
         d="m 141.5,195.5 c 0.667,0 1,-0.333 1,-1 2.171,-2 4.504,-3.834 7,-5.5 21.073,-0.821 42.073,-0.654 63,0.5 -20.504,0.667 -41.171,1.333 -62,2 -1.481,0.98 -2.815,2.147 -4,3.5 11.333,0.167 22.667,0.333 34,0.5 12.155,-0.041 24.155,-0.707 36,-2 3.687,1.843 7.687,2.51 12,2 0.832,-18.162 1.332,-36.495 1.5,-55 0.333,0.333 0.667,0.667 1,1 0.168,27.503 0.668,54.836 1.5,82 2.605,1.837 4.772,4.17 6.5,7 0.667,16.333 0.667,32.667 0,49 -0.938,2.757 -2.438,5.09 -4.5,7 -1.667,0 -3.333,0 -5,0 0.331,-29.505 -0.002,-58.838 -1,-88 -31.829,-0.998 -63.829,-1.332 -96,-1 0.333,31.674 0,63.34 -1,95 -0.67,-1.791 -1.337,-3.458 -2,-5 -1.527,0.073 -2.527,-0.594 -3,-2 -0.215,-1.679 0.452,-2.679 2,-3 0.709,0.904 1.709,1.237 3,1 0.167,-18.67 0,-37.336 -0.5,-56 -2.158,-0.55 -2.658,-1.55 -1.5,-3 0.832,-27.83 1.332,-55.83 1.5,-84 1.461,18.598 1.961,37.265 1.5,56 3.213,0.31 6.213,-0.023 9,-1 z"
         id="path57" />
    </g>
    <g
       id="g58"
       style="clip-rule:evenodd;fill-rule:evenodd;image-rendering:optimizeQuality;shape-rendering:geometricPrecision;text-rendering:geometricPrecision"
       transform="matrix(0.30568783,0,0,0.30568783,-7.3963621,-6.6077665)">
      <path
         style="opacity:1"
         fill="#9c9c9c"
         d="m 134.5,140.5 c 0,18 0,36 0,54 2.667,0 5.333,0 8,0 0,0.667 -0.333,1 -1,1 -2.667,0 -5.333,0 -8,0 -0.33,-18.508 0.003,-36.841 1,-55 z"
         id="path58" />
    </g>
    <g
       id="g59"
       style="clip-rule:evenodd;fill-rule:evenodd;image-rendering:optimizeQuality;shape-rendering:geometricPrecision;text-rendering:geometricPrecision"
       transform="matrix(0.30568783,0,0,0.30568783,-7.3963621,-6.6077665)">
      <path
         style="opacity:1"
         fill="#797978"
         d="m 212.5,189.5 c 1.667,1 3,2.333 4,4 -11.845,1.293 -23.845,1.959 -36,2 -11.333,-0.167 -22.667,-0.333 -34,-0.5 1.185,-1.353 2.519,-2.52 4,-3.5 20.829,-0.667 41.496,-1.333 62,-2 z"
         id="path59" />
    </g>
    <g
       id="g60"
       style="clip-rule:evenodd;fill-rule:evenodd;image-rendering:optimizeQuality;shape-rendering:geometricPrecision;text-rendering:geometricPrecision"
       transform="matrix(0.30568783,0,0,0.30568783,-7.3963621,-6.6077665)">
      <path
         style="opacity:1"
         fill="#b0b0ae"
         d="m 228.5,198.5 c 0.333,34.007 0,68.007 -1,102 -30.177,1.982 -60.51,2.648 -91,2 -1,-0.333 -1.667,-1 -2,-2 -0.986,-33.957 -1.32,-67.957 -1,-102 31.667,0 63.333,0 95,0 z"
         id="path60" />
    </g>
    <g
       id="g61"
       style="clip-rule:evenodd;fill-rule:evenodd;image-rendering:optimizeQuality;shape-rendering:geometricPrecision;text-rendering:geometricPrecision"
       transform="matrix(0.30568783,0,0,0.30568783,-7.3963621,-6.6077665)">
      <path
         style="opacity:1"
         fill="#7b7b7a"
         d="m 141.5,204.5 c 26.667,0 53.333,0 80,0 0,7.333 0,14.667 0,22 -4.486,-0.506 -8.319,0.828 -11.5,4 -1.132,7.066 -1.632,14.233 -1.5,21.5 -0.115,7.574 0.385,15.074 1.5,22.5 3.127,3.21 6.961,4.543 11.5,4 0,5.667 0,11.333 0,17 -1.603,0.188 -2.937,-0.312 -4,-1.5 1.231,-1.183 1.231,-2.349 0,-3.5 -1.342,1.505 -3.008,2.172 -5,2 0.324,-4.055 -0.009,-8.055 -1,-12 -0.586,0.209 -1.086,0.543 -1.5,1 -0.333,3.333 -0.667,6.667 -1,10 -0.414,0.457 -0.914,0.791 -1.5,1 0.204,-1.029 -0.296,-2.029 -1.5,-3 -1.145,1.184 -2.312,1.184 -3.5,0 0.658,-27.021 -0.009,-53.688 -2,-80 -0.998,27.162 -1.331,54.495 -1,82 6.46,-0.035 6.46,0.798 0,2.5 0.333,0.333 0.667,0.667 1,1 -19.997,0.5 -39.997,0.667 -60,0.5 0,-5.667 0,-11.333 0,-17 5.94,1.431 10.107,-0.569 12.5,-6 0.667,-13.333 0.667,-26.667 0,-40 -3.048,-4.275 -7.215,-6.609 -12.5,-7 -0.295,-7.088 0.038,-14.088 1,-21 z"
         id="path61" />
    </g>
    <g
       id="g66"
       style="clip-rule:evenodd;fill-rule:evenodd;image-rendering:optimizeQuality;shape-rendering:geometricPrecision;text-rendering:geometricPrecision"
       transform="matrix(0.30568783,0,0,0.30568783,-7.3963621,-6.6077665)">
      <path
         style="opacity:1"
         fill="#5f5f5e"
         d="m 138.5,203.5 c 28.333,0 56.667,0 85,0 0.167,24.002 0,48.002 -0.5,72 -0.168,-23.837 -0.668,-47.504 -1.5,-71 -26.667,0 -53.333,0 -80,0 -1.333,14.818 -1.999,29.985 -2,45.5 0,15.337 0.333,30.504 1,45.5 1.16,1.703 0.493,2.369 -2,2 -1.333,-31.333 -1.333,-62.667 0,-94 z"
         id="path66" />
    </g>
    <g
       id="g68"
       style="clip-rule:evenodd;fill-rule:evenodd;image-rendering:optimizeQuality;shape-rendering:geometricPrecision;text-rendering:geometricPrecision"
       transform="matrix(0.30568783,0,0,0.30568783,-7.3963621,-6.6077665)">
      <path
         style="opacity:1"
         fill="#616262"
         d="m 169.5,209.5 c 1.333,13.15 1.999,26.65 2,40.5 -0.333,13.5 -0.667,27 -1,40.5 -1,-26.992 -1.333,-53.992 -1,-81 z"
         id="path68" />
    </g>
    <g
       id="g71"
       style="clip-rule:evenodd;fill-rule:evenodd;image-rendering:optimizeQuality;shape-rendering:geometricPrecision;text-rendering:geometricPrecision"
       transform="matrix(0.30568783,0,0,0.30568783,-7.3963621,-6.6077665)">
      <path
         style="opacity:1"
         fill="#686a67"
         d="m 179.5,209.5 c 1,0 2,0 3,0 0,27.333 0,54.667 0,82 -1,0 -2,0 -3,0 0,-27.333 0,-54.667 0,-82 z"
         id="path71" />
    </g>
    <g
       id="g74"
       style="clip-rule:evenodd;fill-rule:evenodd;image-rendering:optimizeQuality;shape-rendering:geometricPrecision;text-rendering:geometricPrecision"
       transform="matrix(0.30568783,0,0,0.30568783,-7.3963621,-6.6077665)">
      <path
         style="opacity:1"
         fill="#696a68"
         d="m 189.5,209.5 c 1,0 2,0 3,0 0,27.333 0,54.667 0,82 -1,0 -2,0 -3,0 0,-27.333 0,-54.667 0,-82 z"
         id="path74" />
    </g>
    <g
       id="g77"
       style="clip-rule:evenodd;fill-rule:evenodd;image-rendering:optimizeQuality;shape-rendering:geometricPrecision;text-rendering:geometricPrecision"
       transform="matrix(0.30568783,0,0,0.30568783,-7.3963621,-6.6077665)">
      <path
         style="opacity:1"
         fill="#aaaaa9"
         d="m 231.5,228.5 c 1.911,0.074 3.078,1.074 3.5,3 0.667,16 0.667,32 0,48 -0.196,1.786 -1.029,3.119 -2.5,4 -1,-18.321 -1.333,-36.655 -1,-55 z"
         id="path77" />
    </g>
    <g
       id="g78"
       style="clip-rule:evenodd;fill-rule:evenodd;image-rendering:optimizeQuality;shape-rendering:geometricPrecision;text-rendering:geometricPrecision"
       transform="matrix(0.30568783,0,0,0.30568783,-7.3963621,-6.6077665)">
      <path
         style="opacity:1"
         fill="#646564"
         d="m 141.5,204.5 c -0.962,6.912 -1.295,13.912 -1,21 5.285,0.391 9.452,2.725 12.5,7 0.667,13.333 0.667,26.667 0,40 -2.393,5.431 -6.56,7.431 -12.5,6 0,5.667 0,11.333 0,17 -0.667,-14.996 -1,-30.163 -1,-45.5 0.001,-15.515 0.667,-30.682 2,-45.5 z"
         id="path78" />
    </g>
    <g
       id="g79"
       style="clip-rule:evenodd;fill-rule:evenodd;image-rendering:optimizeQuality;shape-rendering:geometricPrecision;text-rendering:geometricPrecision"
       transform="matrix(0.30568783,0,0,0.30568783,-7.3963621,-6.6077665)">
      <path
         style="opacity:1"
         fill="#7c7c7c"
         d="m 140.5,229.5 c 4.78,-0.859 8.28,0.808 10.5,5 0.667,12 0.667,24 0,36 -2.061,4.481 -5.561,6.148 -10.5,5 0,-15.333 0,-30.667 0,-46 z"
         id="path79" />
    </g>
    <g
       id="g80"
       style="clip-rule:evenodd;fill-rule:evenodd;image-rendering:optimizeQuality;shape-rendering:geometricPrecision;text-rendering:geometricPrecision"
       transform="matrix(0.30568783,0,0,0.30568783,-7.3963621,-6.6077665)">
      <path
         style="opacity:1"
         fill="#6b6b69"
         d="m 138.5,203.5 c 28.495,-0.998 57.162,-1.331 86,-1 0,32 0,64 0,96 -28.838,0.331 -57.505,-0.002 -86,-1 2.493,0.369 3.16,-0.297 2,-2 20.003,0.167 40.003,0 60,-0.5 -0.333,-0.333 -0.667,-0.667 -1,-1 6.46,-1.702 6.46,-2.535 0,-2.5 -0.331,-27.505 0.002,-54.838 1,-82 -0.333,27.008 0,54.008 1,81 0.607,-0.124 0.94,-0.457 1,-1 1.188,1.184 2.355,1.184 3.5,0 1.204,0.971 1.704,1.971 1.5,3 0.586,-0.209 1.086,-0.543 1.5,-1 0.333,-3.333 0.667,-6.667 1,-10 0.414,-0.457 0.914,-0.791 1.5,-1 0.991,3.945 1.324,7.945 1,12 1.992,0.172 3.658,-0.495 5,-2 1.231,1.151 1.231,2.317 0,3.5 1.063,1.188 2.397,1.688 4,1.5 0,-5.667 0,-11.333 0,-17 -4.539,0.543 -8.373,-0.79 -11.5,-4 -1.115,-7.426 -1.615,-14.926 -1.5,-22.5 -0.132,-7.267 0.368,-14.434 1.5,-21.5 3.181,-3.172 7.014,-4.506 11.5,-4 0,-7.333 0,-14.667 0,-22 0.832,23.496 1.332,47.163 1.5,71 0.5,-23.998 0.667,-47.998 0.5,-72 -28.333,0 -56.667,0 -85,0 z"
         id="path80" />
    </g>
    <g
       id="g81"
       style="clip-rule:evenodd;fill-rule:evenodd;image-rendering:optimizeQuality;shape-rendering:geometricPrecision;text-rendering:geometricPrecision"
       transform="matrix(0.30568783,0,0,0.30568783,-7.3963621,-6.6077665)">
      <path
         style="opacity:1"
         fill="#7c7c7b"
         d="m 215.5,229.5 c 2,0 4,0 6,0 0,15.333 0,30.667 0,46 -4.939,1.148 -8.439,-0.519 -10.5,-5 -0.667,-12 -0.667,-24 0,-36 1.193,-1.997 2.693,-3.664 4.5,-5 z"
         id="path81" />
    </g>
    <g
       id="g84"
       style="clip-rule:evenodd;fill-rule:evenodd;image-rendering:optimizeQuality;shape-rendering:geometricPrecision;text-rendering:geometricPrecision"
       transform="matrix(0.30568783,0,0,0.30568783,-7.3963621,-6.6077665)">
      <path
         style="opacity:1"
         fill="#616462"
         d="m 159.5,209.5 c 1.333,12.983 1.999,26.316 2,40 -0.333,13.333 -0.667,26.667 -1,40 -1,-26.658 -1.333,-53.325 -1,-80 z"
         id="path84" />
    </g>
    <g
       id="g85"
       style="clip-rule:evenodd;fill-rule:evenodd;image-rendering:optimizeQuality;shape-rendering:geometricPrecision;text-rendering:geometricPrecision"
       transform="matrix(0.30568783,0,0,0.30568783,-7.3963621,-6.6077665)">
      <path
         style="opacity:1"
         fill="#767675"
         d="m 228.5,198.5 c -31.667,0 -63.333,0 -95,0 -0.32,34.043 0.014,68.043 1,102 -1.63,-1.526 -2.463,-3.526 -2.5,-6 -0.495,1.973 -0.662,3.973 -0.5,6 -0.617,-0.111 -1.117,-0.444 -1.5,-1 -0.499,-3.986 -0.666,-7.986 -0.5,-12 0.663,1.542 1.33,3.209 2,5 1,-31.66 1.333,-63.326 1,-95 32.171,-0.332 64.171,0.002 96,1 z"
         id="path85" />
    </g>
    <g
       id="g87"
       style="clip-rule:evenodd;fill-rule:evenodd;image-rendering:optimizeQuality;shape-rendering:geometricPrecision;text-rendering:geometricPrecision"
       transform="matrix(0.30568783,0,0,0.30568783,-7.3963621,-6.6077665)">
      <path
         style="opacity:1"
         fill="#606160"
         d="m 200.5,209.5 c 1.991,26.312 2.658,52.979 2,80 -0.06,0.543 -0.393,0.876 -1,1 -1,-26.992 -1.333,-53.992 -1,-81 z"
         id="path87" />
    </g>
    <g
       id="g88"
       style="clip-rule:evenodd;fill-rule:evenodd;image-rendering:optimizeQuality;shape-rendering:geometricPrecision;text-rendering:geometricPrecision"
       transform="matrix(0.30568783,0,0,0.30568783,-7.3963621,-6.6077665)">
      <path
         style="opacity:1"
         fill="#747473"
         d="m 129.5,224.5 c -1.158,1.45 -0.658,2.45 1.5,3 0.5,18.664 0.667,37.33 0.5,56 -1.291,0.237 -2.291,-0.096 -3,-1 -1.548,0.321 -2.215,1.321 -2,3 -1.734,-1.59 -2.9,-3.59 -3.5,-6 -0.667,-15.667 -0.667,-31.333 0,-47 0.576,-4.066 2.743,-6.733 6.5,-8 z"
         id="path88" />
    </g>
    <g
       id="g89"
       style="clip-rule:evenodd;fill-rule:evenodd;image-rendering:optimizeQuality;shape-rendering:geometricPrecision;text-rendering:geometricPrecision"
       transform="matrix(0.30568783,0,0,0.30568783,-7.3963621,-6.6077665)">
      <path
         style="opacity:1"
         fill="#acacab"
         d="m 128.5,282.5 c -0.209,-1.422 -0.709,-2.755 -1.5,-4 -0.667,-15.333 -0.667,-30.667 0,-46 0.583,-1.502 1.416,-2.835 2.5,-4 0.333,9 0.667,18 1,27 -0.002,9.359 -0.668,18.359 -2,27 z"
         id="path89" />
    </g>
    <g
       id="g103"
       style="clip-rule:evenodd;fill-rule:evenodd;image-rendering:optimizeQuality;shape-rendering:geometricPrecision;text-rendering:geometricPrecision"
       transform="matrix(0.30568783,0,0,0.30568783,-7.3963621,-6.6077665)">
      <path
         style="opacity:1"
         fill="#787976"
         d="m 228.5,198.5 c 0.998,29.162 1.331,58.495 1,88 1.667,0 3.333,0 5,0 -1.675,4.029 -2.509,8.363 -2.5,13 -0.706,3.107 -2.539,5.107 -5.5,6 -0.667,0 -1.333,0 -2,0 -0.111,-0.617 -0.444,-1.117 -1,-1.5 -29.17,-0.168 -58.17,-0.668 -87,-1.5 30.49,0.648 60.823,-0.018 91,-2 1,-33.993 1.333,-67.993 1,-102 z"
         id="path103" />
    </g>
    <g
       id="g118"
       style="clip-rule:evenodd;fill-rule:evenodd;image-rendering:optimizeQuality;shape-rendering:geometricPrecision;text-rendering:geometricPrecision"
       transform="matrix(0.30568783,0,0,0.30568783,-7.3963621,-6.6077665)">
      <path
         style="opacity:1"
         fill="#595958"
         d="m 134.5,300.5 c 0.333,1 1,1.667 2,2 28.83,0.832 57.83,1.332 87,1.5 0.556,0.383 0.889,0.883 1,1.5 -29.669,0.167 -59.335,0 -89,-0.5 -0.744,-1.039 -1.744,-1.539 -3,-1.5 -0.61,-0.891 -0.943,-1.891 -1,-3 -0.162,-2.027 0.005,-4.027 0.5,-6 0.037,2.474 0.87,4.474 2.5,6 z"
         id="path118" />
    </g>
    <g
       id="g119"
       style="clip-rule:evenodd;fill-rule:evenodd;image-rendering:optimizeQuality;shape-rendering:geometricPrecision;text-rendering:geometricPrecision"
       transform="matrix(0.30568783,0,0,0.30568783,-7.3963621,-6.6077665)">
      <path
         style="opacity:1"
         fill="#a0a0a0"
         d="m 132.5,303.5 c 1.256,-0.039 2.256,0.461 3,1.5 29.665,0.5 59.331,0.667 89,0.5 0.667,0 1.333,0 2,0 -30.497,1.164 -61.164,1.331 -92,0.5 -0.881,-0.708 -1.547,-1.542 -2,-2.5 z"
         id="path119" />
    </g>
  </g>
</svg>
