<?xml version="1.0" encoding="UTF-8" standalone="no"?>
<!-- Created with Inkscape (http://www.inkscape.org/) -->

<svg
   width="96mm"
   height="96mm"
   viewBox="0 0 96 96"
   version="1.1"
   id="svg1"
   inkscape:version="1.4.2 (ebf0e940, 2025-05-08)"
   sodipodi:docname="trailer.svg"
   xmlns:inkscape="http://www.inkscape.org/namespaces/inkscape"
   xmlns:sodipodi="http://sodipodi.sourceforge.net/DTD/sodipodi-0.dtd"
   xmlns="http://www.w3.org/2000/svg"
   xmlns:svg="http://www.w3.org/2000/svg">
  <sodipodi:namedview
     id="namedview1"
     pagecolor="#ffffff"
     bordercolor="#000000"
     borderopacity="0.25"
     inkscape:showpageshadow="2"
     inkscape:pageopacity="0.0"
     inkscape:pagecheckerboard="0"
     inkscape:deskcolor="#d1d1d1"
     inkscape:document-units="mm"
     inkscape:zoom="0.80444024"
     inkscape:cx="397.17059"
     inkscape:cy="262.91574"
     inkscape:window-width="1920"
     inkscape:window-height="1052"
     inkscape:window-x="0"
     inkscape:window-y="28"
     inkscape:window-maximized="0"
     inkscape:current-layer="layer1" />
  <defs
     id="defs1" />
  <g
     inkscape:label="Layer 1"
     inkscape:groupmode="layer"
     id="layer1">
    <g
       id="g4"
       style="clip-rule:evenodd;fill-rule:evenodd;image-rendering:optimizeQuality;shape-rendering:geometricPrecision;text-rendering:geometricPrecision"
       transform="matrix(0.30327252,0,0,0.30327252,-315.85677,-6.5303501)">
      <path
         style="opacity:1"
         fill="#787877"
         d="m 1210.5,55.5 c -0.9,-1.0981 -1.73,-1.0981 -2.5,0 -0.67,4.6667 -0.67,9.3333 0,14 6.7,10.7287 12.86,21.7287 18.5,33 -2.54,0.396 -4.71,-0.271 -6.5,-2 -4.47,-9.9641 -9.97,-19.2974 -16.5,-28 -6.07,9.4068 -11.73,19.0735 -17,29 -1.49,0.744 -2.99,1.41 -4.5,2 0.5,-4.1729 1.84,-8.1729 4,-12 4.33,-7 8.67,-14 13,-21 0.83,-5.033 0.66,-10.033 -0.5,-15 -0.68,0.3627 -1.35,0.6961 -2,1 0.92,-3.5833 3.26,-5.2499 7,-5 3.36,-0.2741 5.7,1.0592 7,4 z"
         id="path4" />
    </g>
    <g
       id="g17"
       style="clip-rule:evenodd;fill-rule:evenodd;image-rendering:optimizeQuality;shape-rendering:geometricPrecision;text-rendering:geometricPrecision"
       transform="matrix(0.30327252,0,0,0.30327252,-315.85677,-6.5303501)">
      <path
         style="opacity:1"
         fill="#6c6c6b"
         d="m 1210.5,55.5 c 0.82,3.8123 1.32,7.8123 1.5,12 5.66,11.3234 11.83,22.3234 18.5,33 9.32,0.832 18.65,1.332 28,1.5 1.21,1.039 2.21,2.206 3,3.5 0,39 0,78 0,117 3,0 6,0 9,0 1.9,0.238 3.24,1.238 4,3 -3.81,0.369 -7.81,0.535 -12,0.5 -0.61,1.231 -0.94,2.564 -1,4 -0.08,15.019 0.08,30.185 0.5,45.5 3.69,1.517 7.19,1.184 10.5,-1 0.67,-15 1.33,-30 2,-45 1.29,15.688 1.29,31.354 0,47 -0.33,1 -1,1.667 -2,2 -3.6,0.844 -7.27,1.177 -11,1 0,7.667 0,15.333 0,23 -1.46,0.958 -2.79,2.124 -4,3.5 -36.33,0.667 -72.67,0.667 -109,0 -1.2,-0.903 -2.03,-2.069 -2.5,-3.5 -0.5,-7.659 -0.67,-15.326 -0.5,-23 -3.68,0.165 -7.35,-10e-4 -11,-0.5 -0.85,-1.022 -1.85,-1.855 -3,-2.5 -1.17,-16.99 -1.33,-33.99 -0.5,-51 1.13,-1.641 2.63,-2.641 4.5,-3 3.33,0 6.67,0 10,0 0,-38.667 0,-77.333 0,-116 1.13,-1.629 2.46,-3.129 4,-4.5 9.02,-0.168 18.02,-0.668 27,-1.5 6.42,-10.5032 12.59,-21.1698 18.5,-32 0.18,-4.1877 0.68,-8.1877 1.5,-12 0.65,-0.3039 1.32,-0.6373 2,-1 1.16,4.967 1.33,9.967 0.5,15 -4.33,7 -8.67,14 -13,21 -2.16,3.8271 -3.5,7.8271 -4,12 1.51,-0.59 3.01,-1.256 4.5,-2 5.27,-9.9265 10.93,-19.5932 17,-29 6.53,8.7026 12.03,18.0359 16.5,28 1.79,1.729 3.96,2.396 6.5,2 -5.64,-11.2713 -11.8,-22.2713 -18.5,-33 -0.67,-4.6667 -0.67,-9.3333 0,-14 0.77,-1.0981 1.6,-1.0981 2.5,0 z"
         id="path17" />
    </g>
    <g
       id="g18"
       style="clip-rule:evenodd;fill-rule:evenodd;image-rendering:optimizeQuality;shape-rendering:geometricPrecision;text-rendering:geometricPrecision"
       transform="matrix(0.30327252,0,0,0.30327252,-315.85677,-6.5303501)">
      <path
         style="opacity:1"
         fill="#989898"
         d="m 1191.5,100.5 c 8.15,0.993 16.48,1.326 25,1 -8.51,1.321 -17.18,1.321 -26,0 0.12,-0.607 0.46,-0.94 1,-1 z"
         id="path18" />
    </g>
    <g
       id="g19"
       style="clip-rule:evenodd;fill-rule:evenodd;image-rendering:optimizeQuality;shape-rendering:geometricPrecision;text-rendering:geometricPrecision"
       transform="matrix(0.30327252,0,0,0.30327252,-315.85677,-6.5303501)">
      <path
         style="opacity:1"
         fill="#f4f4f4"
         d="m 1216.5,101.5 c -8.52,0.326 -16.85,-0.007 -25,-1 3.74,-7.1354 7.74,-14.1354 12,-21 4.36,7.3506 8.69,14.6839 13,22 z"
         id="path19" />
    </g>
    <g
       id="g28"
       style="clip-rule:evenodd;fill-rule:evenodd;image-rendering:optimizeQuality;shape-rendering:geometricPrecision;text-rendering:geometricPrecision"
       transform="matrix(0.30327252,0,0,0.30327252,-315.85677,-6.5303501)">
      <path
         style="opacity:1"
         fill="#bababa"
         d="m 1261.5,105.5 c 1,38.496 1.33,77.163 1,116 2.89,-0.306 5.55,0.027 8,1 -3,0 -6,0 -9,0 0,-39 0,-78 0,-117 z"
         id="path28" />
    </g>
    <g
       id="g46"
       style="clip-rule:evenodd;fill-rule:evenodd;image-rendering:optimizeQuality;shape-rendering:geometricPrecision;text-rendering:geometricPrecision"
       transform="matrix(0.30327252,0,0,0.30327252,-315.85677,-6.5303501)">
      <path
         style="opacity:1"
         fill="#c5c5c4"
         d="m 1145.5,106.5 c 0,38.667 0,77.333 0,116 -3.33,0 -6.67,0 -10,0 2.79,-0.977 5.79,-1.31 9,-1 -0.33,-38.504 0,-76.837 1,-115 z"
         id="path46" />
    </g>
    <g
       id="g72"
       style="clip-rule:evenodd;fill-rule:evenodd;image-rendering:optimizeQuality;shape-rendering:geometricPrecision;text-rendering:geometricPrecision"
       transform="matrix(0.30327252,0,0,0.30327252,-315.85677,-6.5303501)">
      <path
         style="opacity:1"
         fill="#7c7c7c"
         d="m 1136.5,225.5 c 3.35,-0.165 6.68,0.002 10,0.5 -0.99,16.423 -1.32,32.923 -1,49.5 -3.24,0.895 -6.4,0.895 -9.5,0 -0.82,-16.741 -0.65,-33.407 0.5,-50 z"
         id="path72" />
    </g>
    <g
       id="g73"
       style="clip-rule:evenodd;fill-rule:evenodd;image-rendering:optimizeQuality;shape-rendering:geometricPrecision;text-rendering:geometricPrecision"
       transform="matrix(0.30327252,0,0,0.30327252,-315.85677,-6.5303501)">
      <path
         style="opacity:1"
         fill="#7b7b7b"
         d="m 1274.5,225.5 c 0.62,0.111 1.12,0.444 1.5,1 0.67,16 0.67,32 0,48 -0.28,0.916 -0.78,1.582 -1.5,2 1.29,-15.646 1.29,-31.312 0,-47 -0.67,15 -1.33,30 -2,45 -3.31,2.184 -6.81,2.517 -10.5,1 -0.42,-15.315 -0.58,-30.481 -0.5,-45.5 0.06,-1.436 0.39,-2.769 1,-4 4.19,0.035 8.19,-0.131 12,-0.5 z"
         id="path73" />
    </g>
    <g
       id="g75"
       style="clip-rule:evenodd;fill-rule:evenodd;image-rendering:optimizeQuality;shape-rendering:geometricPrecision;text-rendering:geometricPrecision"
       transform="matrix(0.30327252,0,0,0.30327252,-315.85677,-6.5303501)">
      <path
         style="opacity:1"
         fill="#959595"
         d="m 1149.5,107.5 c -0.17,64.334 0,128.668 0.5,193 0.72,0.544 1.22,1.211 1.5,2 -1,0.086 -1.83,-0.248 -2.5,-1 -0.83,-64.835 -0.67,-129.501 0.5,-194 z"
         id="path75" />
    </g>
    <g
       id="g90"
       style="clip-rule:evenodd;fill-rule:evenodd;image-rendering:optimizeQuality;shape-rendering:geometricPrecision;text-rendering:geometricPrecision"
       transform="matrix(0.30327252,0,0,0.30327252,-315.85677,-6.5303501)">
      <path
         style="opacity:1"
         fill="#c1c1c0"
         d="m 1272.5,278.5 c -0.11,0.617 -0.44,1.117 -1,1.5 -2.98,0.498 -5.98,0.665 -9,0.5 0.32,7.519 -0.01,14.852 -1,22 0,-7.667 0,-15.333 0,-23 3.73,0.177 7.4,-0.156 11,-1 z"
         id="path90" />
    </g>
    <g
       id="g101"
       style="clip-rule:evenodd;fill-rule:evenodd;image-rendering:optimizeQuality;shape-rendering:geometricPrecision;text-rendering:geometricPrecision"
       transform="matrix(0.30327252,0,0,0.30327252,-315.85677,-6.5303501)">
      <path
         style="opacity:1"
         fill="#b2b2b2"
         d="m 1151.5,302.5 c -0.28,-0.789 -0.78,-1.456 -1.5,-2 -0.5,-64.332 -0.67,-128.666 -0.5,-193 0.11,-0.617 0.44,-1.117 1,-1.5 35.71,-0.826 71.37,-0.66 107,0.5 1.33,65 1.33,130 0,195 -35.29,0.993 -70.62,1.327 -106,1 z"
         id="path101" />
    </g>
    <g
       id="g102"
       style="clip-rule:evenodd;fill-rule:evenodd;image-rendering:optimizeQuality;shape-rendering:geometricPrecision;text-rendering:geometricPrecision"
       transform="matrix(0.30327252,0,0,0.30327252,-315.85677,-6.5303501)">
      <path
         style="opacity:1"
         fill="#7c7c7c"
         d="m 1154.5,110.5 c 32.67,0 65.33,0 98,0 0,62.333 0,124.667 0,187 -32.67,0 -65.33,0 -98,0 0,-62.333 0,-124.667 0,-187 z"
         id="path102" />
    </g>
  </g>
</svg>
