<?xml version="1.0" encoding="UTF-8" standalone="no"?>
<!-- Created with Inkscape (http://www.inkscape.org/) -->

<svg
   width="96mm"
   height="96mm"
   viewBox="0 0 96 96"
   version="1.1"
   id="svg1"
   inkscape:version="1.4.2 (ebf0e940, 2025-05-08)"
   sodipodi:docname="animal.svg"
   xmlns:inkscape="http://www.inkscape.org/namespaces/inkscape"
   xmlns:sodipodi="http://sodipodi.sourceforge.net/DTD/sodipodi-0.dtd"
   xmlns="http://www.w3.org/2000/svg"
   xmlns:svg="http://www.w3.org/2000/svg">
  <sodipodi:namedview
     id="namedview1"
     pagecolor="#ffffff"
     bordercolor="#000000"
     borderopacity="0.25"
     inkscape:showpageshadow="2"
     inkscape:pageopacity="0.0"
     inkscape:pagecheckerboard="0"
     inkscape:deskcolor="#d1d1d1"
     inkscape:document-units="mm"
     inkscape:zoom="0.80444024"
     inkscape:cx="397.17059"
     inkscape:cy="262.91574"
     inkscape:window-width="1920"
     inkscape:window-height="1052"
     inkscape:window-x="0"
     inkscape:window-y="28"
     inkscape:window-maximized="0"
     inkscape:current-layer="layer1" />
  <defs
     id="defs1" />
  <g
     inkscape:label="Layer 1"
     inkscape:groupmode="layer"
     id="layer1">
    <g
       id="g244"
       style="clip-rule:evenodd;fill-rule:evenodd;image-rendering:optimizeQuality;shape-rendering:geometricPrecision;text-rendering:geometricPrecision"
       transform="matrix(0.30587124,0,0,0.30587124,-216.06857,-120.5485)">
      <path
         style="opacity:1"
         fill="#646464"
         d="m 852.5,476.5 c 0.087,3.098 -0.413,3.432 -1.5,1 -0.317,1.801 -0.984,2.134 -2,1 -2.755,-10.017 -7.921,-18.517 -15.5,-25.5 -9.512,-6.633 -18.346,-5.799 -26.5,2.5 -10.614,21.993 -8.114,42.327 7.5,61 9.505,7.971 19.005,7.971 28.5,0 5.851,-9.728 8.351,-20.062 7.5,-31 0.781,1.229 1.281,2.562 1.5,4 0.333,-2.667 0.667,-5.333 1,-8 1.384,6.911 1.884,13.911 1.5,21 -1.739,12.288 -8.406,20.788 -20,25.5 -12.635,0.933 -22.469,-3.901 -29.5,-14.5 -9.684,-16.365 -12.018,-33.698 -7,-52 8.432,-18.147 21.265,-22.313 38.5,-12.5 8.579,7.331 13.913,16.498 16,27.5 z"
         id="path244" />
    </g>
    <g
       id="g245"
       style="clip-rule:evenodd;fill-rule:evenodd;image-rendering:optimizeQuality;shape-rendering:geometricPrecision;text-rendering:geometricPrecision"
       transform="matrix(0.30587124,0,0,0.30587124,-216.06857,-120.5485)">
      <path
         style="opacity:1"
         fill="#7b7b7b"
         d="m 852.5,476.5 c 0.681,1.658 1.515,3.325 2.5,5 0.821,7.179 0.655,14.179 -0.5,21 0.384,-7.089 -0.116,-14.089 -1.5,-21 -0.333,2.667 -0.667,5.333 -1,8 -0.219,-1.438 -0.719,-2.771 -1.5,-4 0.851,10.938 -1.649,21.272 -7.5,31 -9.495,7.971 -18.995,7.971 -28.5,0 -15.614,-18.673 -18.114,-39.007 -7.5,-61 8.154,-8.299 16.988,-9.133 26.5,-2.5 7.579,6.983 12.745,15.483 15.5,25.5 1.016,1.134 1.683,0.801 2,-1 1.087,2.432 1.587,2.098 1.5,-1 z"
         id="path245" />
    </g>
    <g
       id="g252"
       style="clip-rule:evenodd;fill-rule:evenodd;image-rendering:optimizeQuality;shape-rendering:geometricPrecision;text-rendering:geometricPrecision"
       transform="matrix(0.30587124,0,0,0.30587124,-216.06857,-120.5485)">
      <path
         style="opacity:1"
         fill="#dbdbdb"
         d="m 869.5,477.5 c -1.579,11.101 -1.245,22.101 1,33 -2.714,-0.187 -3.381,-1.354 -2,-3.5 -2.768,-9.042 -3.102,-18.042 -1,-27 0.184,-1.376 0.851,-2.209 2,-2.5 z"
         id="path252" />
    </g>
    <g
       id="g265"
       style="clip-rule:evenodd;fill-rule:evenodd;image-rendering:optimizeQuality;shape-rendering:geometricPrecision;text-rendering:geometricPrecision"
       transform="matrix(0.30587124,0,0,0.30587124,-216.06857,-120.5485)">
      <path
         style="opacity:1"
         fill="#656565"
         d="m 870.5,510.5 c -2.245,-10.899 -2.579,-21.899 -1,-33 3.356,-12.864 10.356,-23.364 21,-31.5 17.706,-5.395 29.539,0.771 35.5,18.5 4.26,19.37 0.593,37.036 -11,53 -18.072,16.736 -32.905,14.403 -44.5,-7 z"
         id="path265" />
    </g>
    <g
       id="g266"
       style="clip-rule:evenodd;fill-rule:evenodd;image-rendering:optimizeQuality;shape-rendering:geometricPrecision;text-rendering:geometricPrecision"
       transform="matrix(0.30587124,0,0,0.30587124,-216.06857,-120.5485)">
      <path
         style="opacity:1"
         fill="#7b7b7b"
         d="m 898.5,448.5 c 10.513,-0.492 17.68,4.174 21.5,14 5.108,18.015 2.441,34.682 -8,50 -11.31,13.543 -22.643,13.877 -34,1 -8.748,-21.433 -5.581,-40.933 9.5,-58.5 3.59,-2.451 7.257,-4.618 11,-6.5 z"
         id="path266" />
    </g>
    <g
       id="g269"
       style="clip-rule:evenodd;fill-rule:evenodd;image-rendering:optimizeQuality;shape-rendering:geometricPrecision;text-rendering:geometricPrecision"
       transform="matrix(0.30587124,0,0,0.30587124,-216.06857,-120.5485)">
      <path
         style="opacity:1"
         fill="#656565"
         d="m 752.5,551.5 c -1.471,-8.26 -2.138,-16.594 -2,-25 7.759,-20.308 20.759,-24.475 39,-12.5 16.628,14.766 22.128,32.933 16.5,54.5 -8.13,14.877 -19.63,18.044 -34.5,9.5 -9.174,-6.867 -15.507,-15.7 -19,-26.5 z"
         id="path269" />
    </g>
    <g
       id="g270"
       style="clip-rule:evenodd;fill-rule:evenodd;image-rendering:optimizeQuality;shape-rendering:geometricPrecision;text-rendering:geometricPrecision"
       transform="matrix(0.30587124,0,0,0.30587124,-216.06857,-120.5485)">
      <path
         style="opacity:1"
         fill="#7a7a7a"
         d="m 767.5,513.5 c 6.392,-0.709 12.392,0.457 18,3.5 16.228,13.789 21.395,30.956 15.5,51.5 -6.696,9.246 -15.196,11.246 -25.5,6 -15.862,-12.043 -22.362,-28.043 -19.5,-48 1.654,-6.475 5.487,-10.809 11.5,-13 z"
         id="path270" />
    </g>
    <g
       id="g271"
       style="clip-rule:evenodd;fill-rule:evenodd;image-rendering:optimizeQuality;shape-rendering:geometricPrecision;text-rendering:geometricPrecision"
       transform="matrix(0.30587124,0,0,0.30587124,-216.06857,-120.5485)">
      <path
         style="opacity:1"
         fill="#797a79"
         d="m 915.5,558.5 c -1.357,-5.411 -1.024,-10.745 1,-16 -0.527,4.455 0.973,5.121 4.5,2 3.01,-12.53 9.843,-22.363 20.5,-29.5 11.479,-5.066 19.646,-1.9 24.5,9.5 5.269,22.888 -2.231,40.055 -22.5,51.5 -5.617,2.176 -10.95,1.676 -16,-1.5 -1.936,-2.565 -3.769,-5.232 -5.5,-8 -1.245,-6.289 -2.245,-12.622 -3,-19 -1,0.667 -2,1.333 -3,2 -0.498,2.982 -0.665,5.982 -0.5,9 z"
         id="path271" />
    </g>
    <g
       id="g280"
       style="clip-rule:evenodd;fill-rule:evenodd;image-rendering:optimizeQuality;shape-rendering:geometricPrecision;text-rendering:geometricPrecision"
       transform="matrix(0.30587124,0,0,0.30587124,-216.06857,-120.5485)">
      <path
         style="opacity:1"
         fill="#bcbcbb"
         d="m 750.5,526.5 c -0.138,8.406 0.529,16.74 2,25 -1.463,-2.703 -2.296,-5.703 -2.5,-9 -0.817,-5.516 -0.651,-10.85 0.5,-16 z"
         id="path280" />
    </g>
    <g
       id="g283"
       style="clip-rule:evenodd;fill-rule:evenodd;image-rendering:optimizeQuality;shape-rendering:geometricPrecision;text-rendering:geometricPrecision"
       transform="matrix(0.30587124,0,0,0.30587124,-216.06857,-120.5485)">
      <path
         style="opacity:1"
         fill="#666666"
         d="m 915.5,558.5 c -0.165,-3.018 0.002,-6.018 0.5,-9 1,-0.667 2,-1.333 3,-2 0.755,6.378 1.755,12.711 3,19 1.731,2.768 3.564,5.435 5.5,8 5.05,3.176 10.383,3.676 16,1.5 20.269,-11.445 27.769,-28.612 22.5,-51.5 -4.854,-11.4 -13.021,-14.566 -24.5,-9.5 -10.657,7.137 -17.49,16.97 -20.5,29.5 -3.527,3.121 -5.027,2.455 -4.5,-2 3.361,-16.857 13.028,-28.357 29,-34.5 12.261,-1.786 20.761,3.047 25.5,14.5 4.64,21.418 -1.194,39.585 -17.5,54.5 -10.429,7.228 -20.762,7.228 -31,0 -4.206,-5.45 -6.539,-11.616 -7,-18.5 z"
         id="path283" />
    </g>
    <g
       id="g322"
       style="clip-rule:evenodd;fill-rule:evenodd;image-rendering:optimizeQuality;shape-rendering:geometricPrecision;text-rendering:geometricPrecision"
       transform="matrix(0.30587124,0,0,0.30587124,-216.06857,-120.5485)">
      <path
         style="opacity:1"
         fill="#666666"
         d="m 854.5,540.5 c 10.873,-0.615 20.873,1.885 30,7.5 8.402,8.277 15.235,17.777 20.5,28.5 4.907,5.578 10.407,10.411 16.5,14.5 8.501,6.489 14.668,14.655 18.5,24.5 3.19,17.432 -2.31,31.265 -16.5,41.5 -16.2,6.548 -31.867,5.548 -47,-3 -8.62,-1.464 -17.287,-1.798 -26,-1 -12.036,5.844 -24.703,8.51 -38,8 -13.667,-2 -22.833,-9.5 -27.5,-22.5 -5.327,-15.16 -2.493,-28.493 8.5,-40 8.316,-7.148 16.482,-14.481 24.5,-22 5.149,-10.133 11.649,-19.299 19.5,-27.5 5.24,-3.875 10.906,-6.708 17,-8.5 z"
         id="path322" />
    </g>
    <g
       id="g323"
       style="clip-rule:evenodd;fill-rule:evenodd;image-rendering:optimizeQuality;shape-rendering:geometricPrecision;text-rendering:geometricPrecision"
       transform="matrix(0.30587124,0,0,0.30587124,-216.06857,-120.5485)">
      <path
         style="opacity:1"
         fill="#7b7c7b"
         d="m 859.5,545.5 c 9.448,0.105 17.781,3.105 25,9 5.984,7.413 11.151,15.413 15.5,24 9.017,8.518 18.184,16.851 27.5,25 12.345,18.076 10.345,34.243 -6,48.5 -8.522,4.931 -17.522,5.931 -27,3 -5.144,-1.63 -10.144,-3.63 -15,-6 -17.611,-2.939 -34.278,-0.939 -50,6 -20.901,4.47 -34.735,-3.364 -41.5,-23.5 -1.14,-7.364 -0.14,-14.364 3,-21 2.472,-1.798 4.139,-4.132 5,-7 8.964,-7.295 17.63,-14.962 26,-23 4.42,-5.933 8.254,-12.266 11.5,-19 6.209,-9.433 14.876,-14.766 26,-16 z"
         id="path323" />
    </g>
  </g>
</svg>
