<?xml version="1.0" encoding="UTF-8" standalone="no"?>
<!-- Created with Inkscape (http://www.inkscape.org/) -->

<svg
   width="96mm"
   height="96mm"
   viewBox="0 0 96 96"
   version="1.1"
   id="svg1"
   inkscape:version="1.4.2 (ebf0e940, 2025-05-08)"
   sodipodi:docname="tractor.svg"
   xmlns:inkscape="http://www.inkscape.org/namespaces/inkscape"
   xmlns:sodipodi="http://sodipodi.sourceforge.net/DTD/sodipodi-0.dtd"
   xmlns="http://www.w3.org/2000/svg"
   xmlns:svg="http://www.w3.org/2000/svg">
  <sodipodi:namedview
     id="namedview1"
     pagecolor="#ffffff"
     bordercolor="#000000"
     borderopacity="0.25"
     inkscape:showpageshadow="2"
     inkscape:pageopacity="0.0"
     inkscape:pagecheckerboard="0"
     inkscape:deskcolor="#d1d1d1"
     inkscape:document-units="mm"
     inkscape:zoom="0.80444024"
     inkscape:cx="397.17059"
     inkscape:cy="362.36377"
     inkscape:window-width="1920"
     inkscape:window-height="1052"
     inkscape:window-x="0"
     inkscape:window-y="28"
     inkscape:window-maximized="0"
     inkscape:current-layer="layer1" />
  <defs
     id="defs1" />
  <g
     inkscape:label="Layer 1"
     inkscape:groupmode="layer"
     id="layer1">
    <g
       id="g17"
       style="clip-rule:evenodd;fill-rule:evenodd;image-rendering:optimizeQuality;shape-rendering:geometricPrecision;text-rendering:geometricPrecision"
       transform="matrix(0.31807284,0,0,0.31807284,-227.18529,-10.090427)">
      <path
         style="opacity:1"
         fill="#d79e9c"
         d="m 845.5,62.5 c 11.84,-1.3245 23.84,-1.3245 36,0 0.627,0.9168 0.961,1.9168 1,3 -1.183,-1.0045 -2.516,-1.8378 -4,-2.5 -10.995,-0.4998 -21.995,-0.6665 -33,-0.5 z"
         id="path17" />
    </g>
    <g
       id="g18"
       style="clip-rule:evenodd;fill-rule:evenodd;image-rendering:optimizeQuality;shape-rendering:geometricPrecision;text-rendering:geometricPrecision"
       transform="matrix(0.31807284,0,0,0.31807284,-227.18529,-10.090427)">
      <path
         style="opacity:1"
         fill="#eac3c1"
         d="m 924.5,62.5 c -6.009,-0.1662 -12.009,5e-4 -18,0.5 -1.537,1.7073 -3.204,3.2073 -5,4.5 0.086,-0.9959 -0.248,-1.8292 -1,-2.5 0.948,-0.4828 1.948,-0.6495 3,-0.5 0,-1 0,-2 0,-3 7.187,-0.3245 14.187,0.0088 21,1 z"
         id="path18" />
    </g>
    <g
       id="g20"
       style="clip-rule:evenodd;fill-rule:evenodd;image-rendering:optimizeQuality;shape-rendering:geometricPrecision;text-rendering:geometricPrecision"
       transform="matrix(0.31807284,0,0,0.31807284,-227.18529,-10.090427)">
      <path
         style="opacity:1"
         fill="#8f3a36"
         d="m 924.5,62.5 c 2.021,1.3545 3.688,3.0212 5,5 -6.82,-3.7573 -14.154,-4.924 -22,-3.5 -1.641,1.129 -2.641,2.629 -3,4.5 -1.651,6.7741 -2.651,13.7741 -3,21 0,-7 0,-14 0,-21 0,-0.3333 0,-0.6667 0,-1 1.796,-1.2927 3.463,-2.7927 5,-4.5 5.991,-0.4995 11.991,-0.6662 18,-0.5 z"
         id="path20" />
    </g>
    <g
       id="g25"
       style="clip-rule:evenodd;fill-rule:evenodd;image-rendering:optimizeQuality;shape-rendering:geometricPrecision;text-rendering:geometricPrecision"
       transform="matrix(0.31807284,0,0,0.31807284,-227.18529,-10.090427)">
      <path
         style="opacity:1"
         fill="#f7c6c5"
         d="m 901.5,68.5 c 0,7 0,14 0,21 -3,0 -6,0 -9,0 0,-1 0,-2 0,-3 2.3,1.7018 4.967,2.3685 8,2 -0.324,-6.8543 0.009,-13.521 1,-20 z"
         id="path25" />
    </g>
    <g
       id="g26"
       style="clip-rule:evenodd;fill-rule:evenodd;image-rendering:optimizeQuality;shape-rendering:geometricPrecision;text-rendering:geometricPrecision"
       transform="matrix(0.31807284,0,0,0.31807284,-227.18529,-10.090427)">
      <path
         style="opacity:1"
         fill="#f2d5d5"
         d="m 836.5,78.5 c -1.598,2.1979 -2.931,4.5313 -4,7 -2.396,2.4515 -5.396,3.4515 -9,3 0.324,-6.8543 -0.009,-13.521 -1,-20 -3.927,-5.3143 -9.26,-7.3143 -16,-6 -3,0.1667 -6,0.3333 -9,0.5 -1.549,1.214 -2.715,2.714 -3.5,4.5 -0.829,19.8376 -0.662,39.504 0.5,59 0,0.333 0,0.667 0,1 0.667,1 1.333,2 2,3 -2.519,-0.348 -4.353,-1.681 -5.5,-4 -0.185,-13.045 -0.685,-26.045 -1.5,-39 0.537,-7.3892 1.37,-14.7225 2.5,-22 2,-2.3326 4.5,-3.8326 7.5,-4.5 7.5,-1.0115 14.833,-0.3448 22,2 2.163,3.1291 3.497,6.6291 4,10.5 -1.03,3.9649 -1.197,7.9649 -0.5,12 1.398,0.5509 2.732,0.8842 4,1 2.095,-2.3866 3.595,-5.0533 4.5,-8 1,0 2,0 3,0 z"
         id="path26" />
    </g>
    <g
       id="g27"
       style="clip-rule:evenodd;fill-rule:evenodd;image-rendering:optimizeQuality;shape-rendering:geometricPrecision;text-rendering:geometricPrecision"
       transform="matrix(0.31807284,0,0,0.31807284,-227.18529,-10.090427)">
      <path
         style="opacity:1"
         fill="#f5c5c6"
         d="m 822.5,68.5 c 0.991,6.479 1.324,13.1457 1,20 3.604,0.4515 6.604,-0.5485 9,-3 -0.039,1.0832 -0.373,2.0832 -1,3 -2.928,0.9841 -5.928,1.3174 -9,1 0,-7 0,-14 0,-21 z"
         id="path27" />
    </g>
    <g
       id="g32"
       style="clip-rule:evenodd;fill-rule:evenodd;image-rendering:optimizeQuality;shape-rendering:geometricPrecision;text-rendering:geometricPrecision"
       transform="matrix(0.31807284,0,0,0.31807284,-227.18529,-10.090427)">
      <path
         style="opacity:1"
         fill="#922c27"
         d="m 845.5,62.5 c 11.005,-0.1665 22.005,2e-4 33,0.5 1.484,0.6622 2.817,1.4955 4,2.5 0.752,3.2473 1.252,6.5806 1.5,10 3.839,2.9912 6.672,6.6578 8.5,11 0,1 0,2 0,3 3,0 6,0 9,0 -3.14,1.1408 -6.473,1.3075 -10,0.5 -0.626,-0.7504 -1.126,-1.5838 -1.5,-2.5 -0.497,2.3098 -0.663,4.6432 -0.5,7 -0.333,0 -0.667,0 -1,0 0,-1.6667 0,-3.3333 0,-5 0.38,-2.198 -0.287,-3.8646 -2,-5 -1.694,-2.3606 -3.694,-4.3606 -6,-6 1.309,-3.8507 1.309,-7.8507 0,-12 -0.917,-0.6272 -1.917,-0.9606 -3,-1 -0.333,0 -0.667,0 -1,0 -9.825,-1.1583 -19.825,-1.3249 -30,-0.5 -2.038,1.236 -3.205,3.0694 -3.5,5.5 -0.801,2.867 -0.634,5.5336 0.5,8 -2.667,2 -5,4.3333 -7,7 -1.328,2.4652 -3.328,4.2986 -6,5.5 -1.333,0.1667 -2.667,0.3333 -4,0.5 -1.833,-0.0854 -3.166,-0.7521 -4,-2 3.072,0.3174 6.072,-0.0159 9,-1 0.627,-0.9168 0.961,-1.9168 1,-3 1.069,-2.4687 2.402,-4.8021 4,-7 1.294,-0.7899 2.461,-1.7899 3.5,-3 -0.769,-5.6165 1.064,-9.9498 5.5,-13 z"
         id="path32" />
    </g>
    <g
       id="g33"
       style="clip-rule:evenodd;fill-rule:evenodd;image-rendering:optimizeQuality;shape-rendering:geometricPrecision;text-rendering:geometricPrecision"
       transform="matrix(0.31807284,0,0,0.31807284,-227.18529,-10.090427)">
      <path
         style="opacity:1"
         fill="#e4655c"
         d="m 880.5,78.5 c 2.306,1.6394 4.306,3.6394 6,6 0.131,0.7389 -0.036,1.4056 -0.5,2 -16.493,-3.9638 -32.993,-3.9638 -49.5,0 0,-0.3333 0,-0.6667 0,-1 2,-2.6667 4.333,-5 7,-7 12.319,-1.2629 24.653,-1.2629 37,0 z"
         id="path33" />
    </g>
    <g
       id="g34"
       style="clip-rule:evenodd;fill-rule:evenodd;image-rendering:optimizeQuality;shape-rendering:geometricPrecision;text-rendering:geometricPrecision"
       transform="matrix(0.31807284,0,0,0.31807284,-227.18529,-10.090427)">
      <path
         style="opacity:1"
         fill="#ab2219"
         d="m 876.5,65.5 c -9.672,-0.1665 -19.339,2e-4 -29,0.5 -2.624,2.1533 -3.624,4.9866 -3,8.5 12.063,-1.5888 24.063,-1.2555 36,1 0.643,-3.9331 -0.357,-7.2664 -3,-10 1.083,0.0394 2.083,0.3728 3,1 1.309,4.1493 1.309,8.1493 0,12 -12.347,-1.2629 -24.681,-1.2629 -37,0 -1.134,-2.4664 -1.301,-5.133 -0.5,-8 0.295,-2.4306 1.462,-4.264 3.5,-5.5 10.175,-0.8249 20.175,-0.6583 30,0.5 z"
         id="path34" />
    </g>
    <g
       id="g35"
       style="clip-rule:evenodd;fill-rule:evenodd;image-rendering:optimizeQuality;shape-rendering:geometricPrecision;text-rendering:geometricPrecision"
       transform="matrix(0.31807284,0,0,0.31807284,-227.18529,-10.090427)">
      <path
         style="opacity:1"
         fill="#d4392d"
         d="m 876.5,65.5 c 0.333,0 0.667,0 1,0 2.643,2.7336 3.643,6.0669 3,10 -11.937,-2.2555 -23.937,-2.5888 -36,-1 -0.624,-3.5134 0.376,-6.3467 3,-8.5 9.661,-0.4998 19.328,-0.6665 29,-0.5 z"
         id="path35" />
    </g>
    <g
       id="g36"
       style="clip-rule:evenodd;fill-rule:evenodd;image-rendering:optimizeQuality;shape-rendering:geometricPrecision;text-rendering:geometricPrecision"
       transform="matrix(0.31807284,0,0,0.31807284,-227.18529,-10.090427)">
      <path
         style="opacity:1"
         fill="#d84e45"
         d="m 886.5,84.5 c 1.713,1.1354 2.38,2.802 2,5 -9.943,-2.9964 -19.943,-3.3297 -30,-1 -2.501,-2.1467 -5.168,-2.1467 -8,0 -1.439,-0.5634 -2.939,-0.8968 -4.5,-1 -2.958,1.3589 -6.124,2.0256 -9.5,2 0,-1 0,-2 0,-3 16.507,-3.9638 33.007,-3.9638 49.5,0 0.464,-0.5944 0.631,-1.2611 0.5,-2 z"
         id="path36" />
    </g>
    <g
       id="g37"
       style="clip-rule:evenodd;fill-rule:evenodd;image-rendering:optimizeQuality;shape-rendering:geometricPrecision;text-rendering:geometricPrecision"
       transform="matrix(0.31807284,0,0,0.31807284,-227.18529,-10.090427)">
      <path
         style="opacity:1"
         fill="#8d2e2b"
         d="m 822.5,68.5 c 0,7 0,14 0,21 -1.333,-6.6667 -2.667,-13.3333 -4,-20 -0.333,-0.6667 -0.667,-1.3333 -1,-2 -1.449,-1.6644 -3.449,-2.4977 -6,-2.5 -4.333,-0.6667 -8.667,-0.6667 -13,0 -1.258,1.7409 -2.258,3.5742 -3,5.5 -0.997,18.4925 -1.33,37.159 -1,56 -1.162,-19.496 -1.329,-39.1624 -0.5,-59 0.785,-1.786 1.951,-3.286 3.5,-4.5 3,-0.1667 6,-0.3333 9,-0.5 6.74,-1.3143 12.073,0.6857 16,6 z"
         id="path37" />
    </g>
    <g
       id="g42"
       style="clip-rule:evenodd;fill-rule:evenodd;image-rendering:optimizeQuality;shape-rendering:geometricPrecision;text-rendering:geometricPrecision"
       transform="matrix(0.31807284,0,0,0.31807284,-227.18529,-10.090427)">
      <path
         style="opacity:1"
         fill="#e6645d"
         d="m 888.5,89.5 c 0,1.6667 0,3.3333 0,5 0,1 0,2 0,3 -0.749,3.554 -1.582,7.22 -2.5,11 -1.858,23.791 -4.358,47.458 -7.5,71 -11.333,0 -22.667,0 -34,0 -1.677,-22.404 -4.01,-44.737 -7,-67 -1.37,-4.805 -2.037,-9.805 -2,-15 0.003,-2.8555 0.336,-5.5221 1,-8 3.376,0.0256 6.542,-0.6411 9.5,-2 1.561,0.1032 3.061,0.4366 4.5,1 2.832,-2.1467 5.499,-2.1467 8,0 10.057,-2.3297 20.057,-1.9964 30,1 z"
         id="path42" />
    </g>
    <g
       id="g43"
       style="clip-rule:evenodd;fill-rule:evenodd;image-rendering:optimizeQuality;shape-rendering:geometricPrecision;text-rendering:geometricPrecision"
       transform="matrix(0.31807284,0,0,0.31807284,-227.18529,-10.090427)">
      <path
         style="opacity:1"
         fill="#cc342d"
         d="m 927.5,125.5 c -1.553,1.885 -3.553,2.885 -6,3 0,-20 0,-40 0,-60 0.651,-0.5906 1.318,-1.2573 2,-2 1,0.6667 2,1.3333 3,2 1,18.9883 1.333,37.988 1,57 z"
         id="path43" />
    </g>
    <g
       id="g45"
       style="clip-rule:evenodd;fill-rule:evenodd;image-rendering:optimizeQuality;shape-rendering:geometricPrecision;text-rendering:geometricPrecision"
       transform="matrix(0.31807284,0,0,0.31807284,-227.18529,-10.090427)">
      <path
         style="opacity:1"
         fill="#8f1d18"
         d="m 904.5,68.5 c 0,19.3333 0,38.667 0,58 -0.722,-0.418 -1.222,-1.084 -1.5,-2 -0.172,-6.513 -0.672,-12.847 -1.5,-19 -2.667,0 -5.333,0 -8,0 -1.327,25.236 -1.327,50.569 0,76 -0.996,0.086 -1.829,-0.248 -2.5,-1 -0.265,-28.676 -0.765,-57.343 -1.5,-86 -0.163,-2.3568 0.003,-4.6902 0.5,-7 0.374,0.9162 0.874,1.7496 1.5,2.5 3.527,0.8075 6.86,0.6408 10,-0.5 0.349,-7.2259 1.349,-14.2259 3,-21 z"
         id="path45" />
    </g>
    <g
       id="g47"
       style="clip-rule:evenodd;fill-rule:evenodd;image-rendering:optimizeQuality;shape-rendering:geometricPrecision;text-rendering:geometricPrecision"
       transform="matrix(0.31807284,0,0,0.31807284,-227.18529,-10.090427)">
      <path
         style="opacity:1"
         fill="#cd312b"
         d="m 893.5,92.5 c 3,0 6,0 9,0 0,3.3333 0,6.6667 0,10 -3.333,0 -6.667,0 -10,0 -0.247,-3.4387 0.086,-6.772 1,-10 z"
         id="path47" />
    </g>
    <g
       id="g53"
       style="clip-rule:evenodd;fill-rule:evenodd;image-rendering:optimizeQuality;shape-rendering:geometricPrecision;text-rendering:geometricPrecision"
       transform="matrix(0.31807284,0,0,0.31807284,-227.18529,-10.090427)">
      <path
         style="opacity:1"
         fill="#941a19"
         d="m 795.5,70.5 c -0.167,17.6698 0,35.336 0.5,53 0.366,1.952 1.199,3.618 2.5,5 -1.333,-0.333 -2.667,-0.667 -4,-1 0,-0.333 0,-0.667 0,-1 -0.33,-18.841 0.003,-37.5075 1,-56 z"
         id="path53" />
    </g>
    <g
       id="g54"
       style="clip-rule:evenodd;fill-rule:evenodd;image-rendering:optimizeQuality;shape-rendering:geometricPrecision;text-rendering:geometricPrecision"
       transform="matrix(0.31807284,0,0,0.31807284,-227.18529,-10.090427)">
      <path
         style="opacity:1"
         fill="#d43930"
         d="m 817.5,67.5 c 0.333,0.6667 0.667,1.3333 1,2 0.333,19.0117 0,38.012 -1,57 -1.236,0.746 -2.57,1.079 -4,1 0,-20.333 0,-40.6667 0,-61 1.459,-0.0674 2.792,0.2659 4,1 z"
         id="path54" />
    </g>
    <g
       id="g55"
       style="clip-rule:evenodd;fill-rule:evenodd;image-rendering:optimizeQuality;shape-rendering:geometricPrecision;text-rendering:geometricPrecision"
       transform="matrix(0.31807284,0,0,0.31807284,-227.18529,-10.090427)">
      <path
         style="opacity:1"
         fill="#b22019"
         d="m 913.5,65.5 c 0,20.6667 0,41.333 0,62 1.667,0 3.333,0 5,0 -0.31,-20.713 0.023,-41.3792 1,-62 1.406,0.4731 2.073,1.4731 2,3 0,20 0,40 0,60 2.447,-0.115 4.447,-1.115 6,-3 0.17,1.322 -0.163,2.489 -1,3.5 -5.915,1.527 -11.915,1.861 -18,1 -1.824,-0.66 -3.157,-1.827 -4,-3.5 0,-19.333 0,-38.6667 0,-58 2.051,-2.0937 4.384,-2.427 7,-1 0.682,-0.7427 1.349,-1.4094 2,-2 z"
         id="path55" />
    </g>
    <g
       id="g56"
       style="clip-rule:evenodd;fill-rule:evenodd;image-rendering:optimizeQuality;shape-rendering:geometricPrecision;text-rendering:geometricPrecision"
       transform="matrix(0.31807284,0,0,0.31807284,-227.18529,-10.090427)">
      <path
         style="opacity:1"
         fill="#d53931"
         d="m 913.5,65.5 c 2,0 4,0 6,0 -0.977,20.6208 -1.31,41.287 -1,62 -1.667,0 -3.333,0 -5,0 0,-20.667 0,-41.3333 0,-62 z"
         id="path56" />
    </g>
    <g
       id="g57"
       style="clip-rule:evenodd;fill-rule:evenodd;image-rendering:optimizeQuality;shape-rendering:geometricPrecision;text-rendering:geometricPrecision"
       transform="matrix(0.31807284,0,0,0.31807284,-227.18529,-10.090427)">
      <path
         style="opacity:1"
         fill="#951b16"
         d="m 929.5,67.5 c 0.167,18.6696 0,37.336 -0.5,56 -0.278,0.916 -0.778,1.582 -1.5,2 0.333,-19.012 0,-38.0117 -1,-57 -1,-0.6667 -2,-1.3333 -3,-2 -0.682,0.7427 -1.349,1.4094 -2,2 0.073,-1.5269 -0.594,-2.5269 -2,-3 -2,0 -4,0 -6,0 -0.651,0.5906 -1.318,1.2573 -2,2 -2.616,-1.427 -4.949,-1.0937 -7,1 0.359,-1.871 1.359,-3.371 3,-4.5 7.846,-1.424 15.18,-0.2573 22,3.5 z"
         id="path57" />
    </g>
    <g
       id="g64"
       style="clip-rule:evenodd;fill-rule:evenodd;image-rendering:optimizeQuality;shape-rendering:geometricPrecision;text-rendering:geometricPrecision"
       transform="matrix(0.31807284,0,0,0.31807284,-227.18529,-10.090427)">
      <path
         style="opacity:1"
         fill="#d33830"
         d="m 907.5,68.5 c 1.988,19.3049 2.654,38.972 2,59 -1.624,0.14 -2.79,-0.527 -3.5,-2 -0.167,-9.333 -0.333,-18.667 -0.5,-28 0.026,-9.8951 0.692,-19.5617 2,-29 z"
         id="path64" />
    </g>
    <g
       id="g66"
       style="clip-rule:evenodd;fill-rule:evenodd;image-rendering:optimizeQuality;shape-rendering:geometricPrecision;text-rendering:geometricPrecision"
       transform="matrix(0.31807284,0,0,0.31807284,-227.18529,-10.090427)">
      <path
         style="opacity:1"
         fill="#ae1b16"
         d="m 817.5,67.5 c -1.208,-0.7341 -2.541,-1.0674 -4,-1 0,20.3333 0,40.667 0,61 0,0.333 0,0.667 0,1 -5,1.333 -10,1.333 -15,0 -1.301,-1.382 -2.134,-3.048 -2.5,-5 -0.5,-17.664 -0.667,-35.3302 -0.5,-53 0.742,-1.9258 1.742,-3.7591 3,-5.5 4.333,-0.6667 8.667,-0.6667 13,0 2.551,0.0023 4.551,0.8356 6,2.5 z"
         id="path66" />
    </g>
    <g
       id="g67"
       style="clip-rule:evenodd;fill-rule:evenodd;image-rendering:optimizeQuality;shape-rendering:geometricPrecision;text-rendering:geometricPrecision"
       transform="matrix(0.31807284,0,0,0.31807284,-227.18529,-10.090427)">
      <path
         style="opacity:1"
         fill="#d0342b"
         d="m 798.5,66.5 c 1.373,-0.1567 2.707,0.01 4,0.5 -0.661,20.1019 -1.328,40.269 -2,60.5 -1.299,-0.59 -2.132,-1.59 -2.5,-3 -0.808,-19.377 -0.642,-38.7101 0.5,-58 z"
         id="path67" />
    </g>
    <g
       id="g68"
       style="clip-rule:evenodd;fill-rule:evenodd;image-rendering:optimizeQuality;shape-rendering:geometricPrecision;text-rendering:geometricPrecision"
       transform="matrix(0.31807284,0,0,0.31807284,-227.18529,-10.090427)">
      <path
         style="opacity:1"
         fill="#d2372f"
         d="m 805.5,66.5 c 1.667,0 3.333,0 5,0 0,20.3333 0,40.667 0,61 -1.667,0 -3.333,0 -5,0 0,-20.333 0,-40.6667 0,-61 z"
         id="path68" />
    </g>
    <g
       id="g72"
       style="clip-rule:evenodd;fill-rule:evenodd;image-rendering:optimizeQuality;shape-rendering:geometricPrecision;text-rendering:geometricPrecision"
       transform="matrix(0.31807284,0,0,0.31807284,-227.18529,-10.090427)">
      <path
         style="opacity:1"
         fill="#913d3a"
         d="m 929.5,67.5 c 0.666,9.6609 1,19.4942 1,29.5 0.144,10.594 -0.356,21.094 -1.5,31.5 -3.828,3.407 -8.328,4.74 -13.5,4 -6.096,1.363 -10.596,-0.637 -13.5,-6 -0.5,-6.992 -0.666,-13.992 -0.5,-21 0.828,6.153 1.328,12.487 1.5,19 0.278,0.916 0.778,1.582 1.5,2 0.843,1.673 2.176,2.84 4,3.5 6.085,0.861 12.085,0.527 18,-1 0.837,-1.011 1.17,-2.178 1,-3.5 0.722,-0.418 1.222,-1.084 1.5,-2 0.5,-18.664 0.667,-37.3304 0.5,-56 z"
         id="path72" />
    </g>
    <g
       id="g77"
       style="clip-rule:evenodd;fill-rule:evenodd;image-rendering:optimizeQuality;shape-rendering:geometricPrecision;text-rendering:geometricPrecision"
       transform="matrix(0.31807284,0,0,0.31807284,-227.18529,-10.090427)">
      <path
         style="opacity:1"
         fill="#862122"
         d="m 821.5,105.5 c 0,6.667 0,13.333 0,20 -0.777,2.612 -2.444,4.445 -5,5.5 -5.657,0.499 -11.324,0.666 -17,0.5 -1.109,-0.057 -2.109,-0.39 -3,-1 -0.667,-1 -1.333,-2 -2,-3 1.333,0.333 2.667,0.667 4,1 5,1.333 10,1.333 15,0 2.556,0.368 4.556,-0.466 6,-2.5 0.615,-6.977 1.282,-13.81 2,-20.5 z"
         id="path77" />
    </g>
    <g
       id="g95"
       style="clip-rule:evenodd;fill-rule:evenodd;image-rendering:optimizeQuality;shape-rendering:geometricPrecision;text-rendering:geometricPrecision"
       transform="matrix(0.31807284,0,0,0.31807284,-227.18529,-10.090427)">
      <path
         style="opacity:1"
         fill="#f9dfe1"
         d="m 830.5,117.5 c 0,21 0,42 0,63 -6.675,-0.166 -13.342,0 -20,0.5 -1.952,0.366 -3.618,1.199 -5,2.5 0,-1 0,-2 0,-3 7.958,-0.903 15.958,-1.236 24,-1 -0.331,-20.84 0.003,-41.507 1,-62 z"
         id="path95" />
    </g>
    <g
       id="g96"
       style="clip-rule:evenodd;fill-rule:evenodd;image-rendering:optimizeQuality;shape-rendering:geometricPrecision;text-rendering:geometricPrecision"
       transform="matrix(0.31807284,0,0,0.31807284,-227.18529,-10.090427)">
      <path
         style="opacity:1"
         fill="#e5b0b2"
         d="m 831.5,105.5 c 0.331,25.172 -0.002,50.172 -1,75 0,-21 0,-42 0,-63 0,-3.667 0,-7.333 0,-11 -2.333,0 -4.667,0 -7,0 0.33,7.032 -0.003,14.032 -1,21 -1.193,2.027 -2.86,3.527 -5,4.5 -6.181,0.819 -12.181,0.653 -18,-0.5 5.676,0.166 11.343,-0.001 17,-0.5 2.556,-1.055 4.223,-2.888 5,-5.5 0.991,-6.479 1.324,-13.146 1,-20 3,0 6,0 9,0 z"
         id="path96" />
    </g>
    <g
       id="g105"
       style="clip-rule:evenodd;fill-rule:evenodd;image-rendering:optimizeQuality;shape-rendering:geometricPrecision;text-rendering:geometricPrecision"
       transform="matrix(0.31807284,0,0,0.31807284,-227.18529,-10.090427)">
      <path
         style="opacity:1"
         fill="#eab4b3"
         d="m 893.5,105.5 c 0,17.333 0,34.667 0,52 -0.331,7.363 0.003,14.697 1,22 6.797,0.632 13.463,1.299 20,2 -7,0 -14,0 -21,0 -1.327,-25.431 -1.327,-50.764 0,-76 z"
         id="path105" />
    </g>
    <g
       id="g110"
       style="clip-rule:evenodd;fill-rule:evenodd;image-rendering:optimizeQuality;shape-rendering:geometricPrecision;text-rendering:geometricPrecision"
       transform="matrix(0.31807284,0,0,0.31807284,-227.18529,-10.090427)">
      <path
         style="opacity:1"
         fill="#f9eae8"
         d="m 893.5,157.5 c 0.713,4.868 1.379,9.868 2,15 -0.557,1.735 -0.89,3.402 -1,5 5.554,1.306 11.054,1.306 16.5,0 2.52,0.707 5.02,1.54 7.5,2.5 0.837,1.011 1.17,2.178 1,3.5 5.645,0.627 11.311,1.127 17,1.5 0.556,0.383 0.889,0.883 1,1.5 -8.507,1.348 -16.174,-0.318 -23,-5 -6.537,-0.701 -13.203,-1.368 -20,-2 -0.997,-7.303 -1.331,-14.637 -1,-22 z"
         id="path110" />
    </g>
    <g
       id="g116"
       style="clip-rule:evenodd;fill-rule:evenodd;image-rendering:optimizeQuality;shape-rendering:geometricPrecision;text-rendering:geometricPrecision"
       transform="matrix(0.31807284,0,0,0.31807284,-227.18529,-10.090427)">
      <path
         style="opacity:1"
         fill="#f7cccb"
         d="m 805.5,183.5 c -0.453,0.958 -1.119,1.792 -2,2.5 -5.991,0.499 -11.991,0.666 -18,0.5 6.609,-0.662 13.275,-1.662 20,-3 z"
         id="path116" />
    </g>
    <g
       id="g117"
       style="clip-rule:evenodd;fill-rule:evenodd;image-rendering:optimizeQuality;shape-rendering:geometricPrecision;text-rendering:geometricPrecision"
       transform="matrix(0.31807284,0,0,0.31807284,-227.18529,-10.090427)">
      <path
         style="opacity:1"
         fill="#933431"
         d="m 831.5,105.5 c 0.617,0.111 1.117,0.444 1.5,1 0.5,24.998 0.667,49.998 0.5,75 -0.342,0.838 -1.008,1.172 -2,1 -7.674,-0.166 -15.341,0 -23,0.5 -1.964,1.451 -3.297,3.284 -4,5.5 -6.342,-0.166 -12.675,0 -19,0.5 -3.076,1.243 -5.743,3.077 -8,5.5 0.057,-1.109 0.39,-2.109 1,-3 2.276,-1.851 4.609,-3.518 7,-5 6.009,0.166 12.009,-0.001 18,-0.5 0.881,-0.708 1.547,-1.542 2,-2.5 1.382,-1.301 3.048,-2.134 5,-2.5 6.658,-0.5 13.325,-0.666 20,-0.5 0.998,-24.828 1.331,-49.828 1,-75 z"
         id="path117" />
    </g>
    <g
       id="g118"
       style="clip-rule:evenodd;fill-rule:evenodd;image-rendering:optimizeQuality;shape-rendering:geometricPrecision;text-rendering:geometricPrecision"
       transform="matrix(0.31807284,0,0,0.31807284,-227.18529,-10.090427)">
      <path
         style="opacity:1"
         fill="#e6645e"
         d="m 833.5,181.5 c 19.012,-0.333 38.012,0 57,1 2.933,1.43 5.433,3.43 7.5,6 1.64,18.576 1.974,37.243 1,56 -0.472,5.8 -3.306,9.967 -8.5,12.5 -19.333,0.667 -38.667,0.667 -58,0 -3.628,-2.638 -6.128,-6.138 -7.5,-10.5 -0.667,-18.333 -0.667,-36.667 0,-55 1.611,-3.438 3.777,-6.438 6.5,-9 0.992,0.172 1.658,-0.162 2,-1 z"
         id="path118" />
    </g>
    <g
       id="g119"
       style="clip-rule:evenodd;fill-rule:evenodd;image-rendering:optimizeQuality;shape-rendering:geometricPrecision;text-rendering:geometricPrecision"
       transform="matrix(0.31807284,0,0,0.31807284,-227.18529,-10.090427)">
      <path
         style="opacity:1"
         fill="#8e322f"
         d="m 893.5,181.5 c 7,0 14,0 21,0 6.826,4.682 14.493,6.348 23,5 1.24,1.159 2.574,2.159 4,3 -7.35,-0.418 -14.684,-1.085 -22,-2 -1.626,-1.49 -3.292,-2.99 -5,-4.5 -7.179,-0.171 -14.179,-0.671 -21,-1.5 z"
         id="path119" />
    </g>
    <g
       id="g139"
       style="clip-rule:evenodd;fill-rule:evenodd;image-rendering:optimizeQuality;shape-rendering:geometricPrecision;text-rendering:geometricPrecision"
       transform="matrix(0.31807284,0,0,0.31807284,-227.18529,-10.090427)">
      <path
         style="opacity:1"
         fill="#8d3c3b"
         d="m 776.5,196.5 c -0.333,32.34 0,64.674 1,97 0.67,1.791 1.337,3.458 2,5 0.667,0 1,0.333 1,1 0.984,3.337 3.317,4.837 7,4.5 9.327,0.5 18.661,0.666 28,0.5 -0.418,0.722 -1.084,1.222 -2,1.5 -10.367,0.76 -20.701,0.594 -31,-0.5 -3.155,-2.662 -5.322,-5.995 -6.5,-10 -0.831,-33.169 -0.664,-66.169 0.5,-99 z"
         id="path139" />
    </g>
    <g
       id="g143"
       style="clip-rule:evenodd;fill-rule:evenodd;image-rendering:optimizeQuality;shape-rendering:geometricPrecision;text-rendering:geometricPrecision"
       transform="matrix(0.31807284,0,0,0.31807284,-227.18529,-10.090427)">
      <path
         style="opacity:1"
         fill="#ac1d1a"
         d="m 784.5,192.5 c -1.695,1.713 -2.528,3.713 -2.5,6 4.906,4.248 10.073,8.081 15.5,11.5 2.076,1.884 2.41,4.051 1,6.5 -1.598,0.985 -3.265,1.151 -5,0.5 -3.856,-3.357 -7.856,-6.524 -12,-9.5 -1.48,4.36 -1.147,8.526 1,12.5 6.19,4.063 11.857,8.563 17,13.5 -1.196,2.638 -3.196,3.471 -6,2.5 -4.334,-3.526 -9.001,-6.36 -14,-8.5 -0.165,3.35 0.002,6.683 0.5,10 6.08,4.29 12.247,8.457 18.5,12.5 2.333,5.333 0.667,7.333 -5,6 -4.189,-3.69 -8.522,-7.19 -13,-10.5 -0.952,3.661 -0.785,7.328 0.5,11 4.899,4.199 10.066,8.032 15.5,11.5 4.449,4.766 3.449,7.099 -3,7 -3.698,-2.186 -7.032,-4.853 -10,-8 -0.948,-0.483 -1.948,-0.649 -3,-0.5 -0.323,3.726 0.011,7.393 1,11 4.695,3.679 9.695,6.846 15,9.5 2.704,2.687 2.537,5.187 -0.5,7.5 -5.221,-2.39 -10.054,-5.39 -14.5,-9 -0.333,0.833 -0.667,1.667 -1,2.5 0.715,5.222 2.715,9.722 6,13.5 -2.358,0.247 -4.358,-0.419 -6,-2 0,-0.667 -0.333,-1 -1,-1 -0.424,-6.323 -0.757,-12.657 -1,-19 -0.133,-5.974 0.533,-11.807 2,-17.5 -2.444,-6.916 -3.444,-14.083 -3,-21.5 0.838,-15.062 1.338,-30.062 1.5,-45 1.264,-2.107 3.097,-3.107 5.5,-3 z"
         id="path143" />
    </g>
    <g
       id="g152"
       style="clip-rule:evenodd;fill-rule:evenodd;image-rendering:optimizeQuality;shape-rendering:geometricPrecision;text-rendering:geometricPrecision"
       transform="matrix(0.31807284,0,0,0.31807284,-227.18529,-10.090427)">
      <path
         style="opacity:1"
         fill="#faebe7"
         d="m 948.5,194.5 c 1.789,4.907 2.622,10.24 2.5,16 0.597,10.842 0.43,21.675 -0.5,32.5 0.484,12.737 1.151,25.404 2,38 -1.409,3.134 -2.409,6.301 -3,9.5 0.326,-32.073 -0.008,-64.073 -1,-96 z"
         id="path152" />
    </g>
    <g
       id="g178"
       style="clip-rule:evenodd;fill-rule:evenodd;image-rendering:optimizeQuality;shape-rendering:geometricPrecision;text-rendering:geometricPrecision"
       transform="matrix(0.31807284,0,0,0.31807284,-227.18529,-10.090427)">
      <path
         style="opacity:1"
         fill="#d1362e"
         d="m 940.5,297.5 c -0.706,2.376 -2.373,3.71 -5,4 -3.333,0 -6.667,0 -10,0 0.541,-3.152 -0.459,-5.652 -3,-7.5 -6.079,-3.249 -11.745,-7.083 -17,-11.5 6.374,-1.893 12.208,-0.893 17.5,3 4.628,-2.702 4.462,-5.369 -0.5,-8 -0.991,-3.945 -1.324,-7.945 -1,-12 6.466,-2.345 6.632,-5.345 0.5,-9 -0.498,-3.317 -0.665,-6.65 -0.5,-10 3.43,0.745 5.097,-0.589 5,-4 -0.755,-2.488 -2.255,-4.488 -4.5,-6 -0.498,-3.317 -0.665,-6.65 -0.5,-10 2.627,0.207 4.293,-0.96 5,-3.5 -4.612,-3.655 -6.279,-8.489 -5,-14.5 4.568,0.417 6.068,-1.583 4.5,-6 -4.054,-2.918 -5.554,-6.918 -4.5,-12 1.788,-0.285 3.455,0.048 5,1 -2.803,2.737 -2.636,5.071 0.5,7 3.667,-2 7.333,-4 11,-6 2.296,1.128 4.129,2.795 5.5,5 -5.69,5.018 -11.69,9.685 -18,14 -1.632,4.115 -0.299,5.948 4,5.5 4.56,-4.194 9.394,-8.028 14.5,-11.5 0.828,4.371 0.661,8.705 -0.5,13 -6.669,4.68 -13.003,9.68 -19,15 0.275,2.109 1.442,3.442 3.5,4 4.903,-3.204 9.737,-6.537 14.5,-10 1.159,3.622 1.325,7.289 0.5,11 -5.077,4.124 -10.577,7.624 -16.5,10.5 -2.667,2.333 -2.667,4.667 0,7 1,0.667 2,0.667 3,0 4.808,-3.308 9.475,-6.808 14,-10.5 1.159,3.622 1.325,7.289 0.5,11 -6.519,4.859 -13.019,9.692 -19.5,14.5 0.445,3.789 2.445,5.123 6,4 4.333,-3.167 8.667,-6.333 13,-9.5 0.991,3.945 1.324,7.945 1,12 -2.723,0.852 -5.39,2.019 -8,3.5 -4.221,2.937 -8.221,6.104 -12,9.5 0.686,3.498 2.686,4.665 6,3.5 4.193,-3.36 8.526,-6.527 13,-9.5 1.597,4.981 0.597,9.315 -3,13 z"
         id="path178" />
    </g>
    <g
       id="g180"
       style="clip-rule:evenodd;fill-rule:evenodd;image-rendering:optimizeQuality;shape-rendering:geometricPrecision;text-rendering:geometricPrecision"
       transform="matrix(0.31807284,0,0,0.31807284,-227.18529,-10.090427)">
      <path
         style="opacity:1"
         fill="#941b1b"
         d="m 804.5,188.5 c -0.667,0.667 -1.333,1.333 -2,2 -5.641,1.603 -11.641,2.27 -18,2 -2.403,-0.107 -4.236,0.893 -5.5,3 -0.162,14.938 -0.662,29.938 -1.5,45 -0.444,7.417 0.556,14.584 3,21.5 -1.467,5.693 -2.133,11.526 -2,17.5 0.243,6.343 0.576,12.677 1,19 -0.663,-1.542 -1.33,-3.209 -2,-5 -1,-32.326 -1.333,-64.66 -1,-97 -0.172,-0.992 0.162,-1.658 1,-2 2.257,-2.423 4.924,-4.257 8,-5.5 6.325,-0.5 12.658,-0.666 19,-0.5 z"
         id="path180" />
    </g>
    <g
       id="g182"
       style="clip-rule:evenodd;fill-rule:evenodd;image-rendering:optimizeQuality;shape-rendering:geometricPrecision;text-rendering:geometricPrecision"
       transform="matrix(0.31807284,0,0,0.31807284,-227.18529,-10.090427)">
      <path
         style="opacity:1"
         fill="#a81c1a"
         d="m 818.5,69.5 c 1.333,6.6667 2.667,13.3333 4,20 0.834,1.2479 2.167,1.9146 4,2 1.333,-0.1667 2.667,-0.3333 4,-0.5 2.672,-1.2014 4.672,-3.0348 6,-5.5 0,0.3333 0,0.6667 0,1 0,1 0,2 0,3 -0.664,2.4779 -0.997,5.1445 -1,8 -0.037,5.195 0.63,10.195 2,15 -1.804,6.932 -2.637,14.265 -2.5,22 -0.5,14.996 -0.667,29.996 -0.5,45 3.333,0 6.667,0 10,0 11.333,0 22.667,0 34,0 3.333,0 6.667,0 10,0 0,-27.333 0,-54.667 0,-82 0,-1 0,-2 0,-3 0.333,0 0.667,0 1,0 0.735,28.657 1.235,57.324 1.5,86 0.671,0.752 1.504,1.086 2.5,1 6.821,0.829 13.821,1.329 21,1.5 1.708,1.51 3.374,3.01 5,4.5 7.316,0.915 14.65,1.582 22,2 0.333,1.333 0.667,2.667 1,4 1.472,2.618 2.472,5.451 3,8.5 -0.012,30.479 -0.178,61.312 -0.5,92.5 -1.129,1.641 -2.629,2.641 -4.5,3 3.597,-3.685 4.597,-8.019 3,-13 -4.474,2.973 -8.807,6.14 -13,9.5 -3.314,1.165 -5.314,-0.002 -6,-3.5 3.779,-3.396 7.779,-6.563 12,-9.5 2.61,-1.481 5.277,-2.648 8,-3.5 0.324,-4.055 -0.009,-8.055 -1,-12 -4.333,3.167 -8.667,6.333 -13,9.5 -3.555,1.123 -5.555,-0.211 -6,-4 6.481,-4.808 12.981,-9.641 19.5,-14.5 0.825,-3.711 0.659,-7.378 -0.5,-11 -4.525,3.692 -9.192,7.192 -14,10.5 -1,0.667 -2,0.667 -3,0 -2.667,-2.333 -2.667,-4.667 0,-7 5.923,-2.876 11.423,-6.376 16.5,-10.5 0.825,-3.711 0.659,-7.378 -0.5,-11 -4.763,3.463 -9.597,6.796 -14.5,10 -2.058,-0.558 -3.225,-1.891 -3.5,-4 5.997,-5.32 12.331,-10.32 19,-15 1.161,-4.295 1.328,-8.629 0.5,-13 -5.106,3.472 -9.94,7.306 -14.5,11.5 -4.299,0.448 -5.632,-1.385 -4,-5.5 6.31,-4.315 12.31,-8.982 18,-14 -1.371,-2.205 -3.204,-3.872 -5.5,-5 -3.667,2 -7.333,4 -11,6 -3.136,-1.929 -3.303,-4.263 -0.5,-7 -1.545,-0.952 -3.212,-1.285 -5,-1 -1.054,5.082 0.446,9.082 4.5,12 1.568,4.417 0.068,6.417 -4.5,6 -1.279,6.011 0.388,10.845 5,14.5 -0.707,2.54 -2.373,3.707 -5,3.5 -0.165,3.35 0.002,6.683 0.5,10 2.245,1.512 3.745,3.512 4.5,6 0.097,3.411 -1.57,4.745 -5,4 -0.165,3.35 0.002,6.683 0.5,10 6.132,3.655 5.966,6.655 -0.5,9 -0.324,4.055 0.009,8.055 1,12 4.962,2.631 5.128,5.298 0.5,8 -5.292,-3.893 -11.126,-4.893 -17.5,-3 5.255,4.417 10.921,8.251 17,11.5 2.541,1.848 3.541,4.348 3,7.5 3.333,0 6.667,0 10,0 -4.733,1.546 -9.733,2.213 -15,2 -4.382,-0.062 -8.716,-0.395 -13,-1 -0.61,-0.891 -0.943,-1.891 -1,-3 4.038,2.022 8.371,2.522 13,1.5 -4.15,-3.107 -8.483,-5.94 -13,-8.5 -0.952,1.545 -1.285,3.212 -1,5 -0.652,-0.949 -0.986,-2.115 -1,-3.5 0.175,-1.658 0.842,-2.991 2,-4 -0.753,-1.487 -1.586,-1.654 -2.5,-0.5 -0.218,-2.926 -0.718,-5.76 -1.5,-8.5 0.333,-0.333 0.667,-0.667 1,-1 -7.098,1.454 -11.431,-1.213 -13,-8 -5,-0.667 -10,-0.667 -15,0 -0.81,5.751 -1.31,11.584 -1.5,17.5 -4.144,1.539 -8.477,2.206 -13,2 -3.167,-0.167 -6.333,-0.333 -9.5,-0.5 -0.5,-0.5 -1,-1 -1.5,-1.5 -0.333,-5 -0.667,-10 -1,-15 -0.383,-0.556 -0.883,-0.889 -1.5,-1 -0.333,0 -0.667,0 -1,0 -3.811,-1.145 -7.811,-1.312 -12,-0.5 -1.208,2.25 -2.541,4.417 -4,6.5 -2.516,0.83 -4.85,1.83 -7,3 -0.825,4.147 -1.325,8.481 -1.5,13 -2.663,2.668 -4.83,5.668 -6.5,9 -9.339,0.166 -18.673,0 -28,-0.5 -3.683,0.337 -6.016,-1.163 -7,-4.5 1.642,1.581 3.642,2.247 6,2 3.35,0.165 6.683,-0.002 10,-0.5 0.604,-2.468 1.938,-4.468 4,-6 5.842,-3.754 11.509,-7.754 17,-12 -3.206,-0.296 -6.372,-0.796 -9.5,-1.5 -2.333,1.333 -4.667,2.667 -7,4 -3.072,-0.947 -4.072,-2.947 -3,-6 1.667,-1 3.333,-2 5,-3 0.499,-3.986 0.666,-7.986 0.5,-12 -3.09,0.67 -4.757,-0.497 -5,-3.5 1.04,-2.131 2.54,-3.964 4.5,-5.5 0.498,-2.982 0.665,-5.982 0.5,-9 -2,0 -4,0 -6,0 -0.162,-2.027 0.005,-4.027 0.5,-6 1.667,-1 3.333,-2 5,-3 0.499,-3.652 0.665,-7.318 0.5,-11 -4.568,0.417 -6.068,-1.583 -4.5,-6 1.154,-1.243 2.488,-2.243 4,-3 0.498,-2.982 0.665,-5.982 0.5,-9 -3.364,0.627 -5.364,-0.706 -6,-4 0.822,-2.187 2.322,-3.853 4.5,-5 0.498,-2.982 0.665,-5.982 0.5,-9 0.667,-0.667 1.333,-1.333 2,-2 0.703,-2.216 2.036,-4.049 4,-5.5 7.659,-0.5 15.326,-0.666 23,-0.5 -2.723,2.562 -4.889,5.562 -6.5,9 -0.667,18.333 -0.667,36.667 0,55 1.372,4.362 3.872,7.862 7.5,10.5 19.333,0.667 38.667,0.667 58,0 5.194,-2.533 8.028,-6.7 8.5,-12.5 0.974,-18.757 0.64,-37.424 -1,-56 -2.067,-2.57 -4.567,-4.57 -7.5,-6 -18.988,-1 -37.988,-1.333 -57,-1 0.167,-25.002 0,-50.002 -0.5,-75 -0.383,-0.556 -0.883,-0.889 -1.5,-1 -3.333,-1.333 -6.667,-1.333 -10,0 -0.718,6.69 -1.385,13.523 -2,20.5 -1.444,2.034 -3.444,2.868 -6,2.5 0,-0.333 0,-0.667 0,-1 1.43,0.079 2.764,-0.254 4,-1 1,-18.988 1.333,-37.9883 1,-57 z"
         id="path182" />
    </g>
    <g
       id="g183"
       style="clip-rule:evenodd;fill-rule:evenodd;image-rendering:optimizeQuality;shape-rendering:geometricPrecision;text-rendering:geometricPrecision"
       transform="matrix(0.31807284,0,0,0.31807284,-227.18529,-10.090427)">
      <path
         style="opacity:1"
         fill="#e66660"
         d="m 902.5,193.5 c 5.523,-0.431 10.856,0.236 16,2 0.167,26.669 0,53.335 -0.5,80 -0.903,1.201 -2.069,2.035 -3.5,2.5 -6.333,0.667 -12.667,0.667 -19,0 -0.833,-0.833 -1.667,-1.667 -2.5,-2.5 -0.667,-5.333 -0.667,-10.667 0,-16 4.174,-2.668 7.174,-6.335 9,-11 0.5,-18.33 0.667,-36.664 0.5,-55 z"
         id="path183" />
    </g>
    <g
       id="g184"
       style="clip-rule:evenodd;fill-rule:evenodd;image-rendering:optimizeQuality;shape-rendering:geometricPrecision;text-rendering:geometricPrecision"
       transform="matrix(0.31807284,0,0,0.31807284,-227.18529,-10.090427)">
      <path
         style="opacity:1"
         fill="#e56761"
         d="m 821.5,192.5 c -0.167,18.336 0,36.67 0.5,55 1.88,4.875 4.88,8.875 9,12 0.667,5.333 0.667,10.667 0,16 -0.692,0.525 -1.192,1.192 -1.5,2 -7,1.333 -14,1.333 -21,0 -0.645,-1.146 -1.478,-2.146 -2.5,-3 -0.5,-25.998 -0.667,-51.998 -0.5,-78 0.809,-0.969 1.809,-1.802 3,-2.5 4.251,-1.195 8.585,-1.695 13,-1.5 z"
         id="path184" />
    </g>
    <g
       id="g185"
       style="clip-rule:evenodd;fill-rule:evenodd;image-rendering:optimizeQuality;shape-rendering:geometricPrecision;text-rendering:geometricPrecision"
       transform="matrix(0.31807284,0,0,0.31807284,-227.18529,-10.090427)">
      <path
         style="opacity:1"
         fill="#d73a31"
         d="m 918.5,195.5 c -5.144,-1.764 -10.477,-2.431 -16,-2 -0.992,-2.638 -1.992,-5.305 -3,-8 4.631,-1.162 9.298,-1.328 14,-0.5 4.192,2.22 5.859,5.72 5,10.5 z"
         id="path185" />
    </g>
    <g
       id="g186"
       style="clip-rule:evenodd;fill-rule:evenodd;image-rendering:optimizeQuality;shape-rendering:geometricPrecision;text-rendering:geometricPrecision"
       transform="matrix(0.31807284,0,0,0.31807284,-227.18529,-10.090427)">
      <path
         style="opacity:1"
         fill="#d6342d"
         d="m 821.5,192.5 c -4.415,-0.195 -8.749,0.305 -13,1.5 -1.191,0.698 -2.191,1.531 -3,2.5 -0.165,-3.018 0.002,-6.018 0.5,-9 0.5,-0.5 1,-1 1.5,-1.5 5.572,-1.351 11.238,-1.851 17,-1.5 -0.44,2.88 -1.44,5.546 -3,8 z"
         id="path186" />
    </g>
    <g
       id="g187"
       style="clip-rule:evenodd;fill-rule:evenodd;image-rendering:optimizeQuality;shape-rendering:geometricPrecision;text-rendering:geometricPrecision"
       transform="matrix(0.31807284,0,0,0.31807284,-227.18529,-10.090427)">
      <path
         style="opacity:1"
         fill="#d53a2f"
         d="m 888.5,97.5 c 0,27.333 0,54.667 0,82 -3.333,0 -6.667,0 -10,0 3.142,-23.542 5.642,-47.209 7.5,-71 0.918,-3.78 1.751,-7.446 2.5,-11 z"
         id="path187" />
    </g>
    <g
       id="g188"
       style="clip-rule:evenodd;fill-rule:evenodd;image-rendering:optimizeQuality;shape-rendering:geometricPrecision;text-rendering:geometricPrecision"
       transform="matrix(0.31807284,0,0,0.31807284,-227.18529,-10.090427)">
      <path
         style="opacity:1"
         fill="#d3372c"
         d="m 837.5,112.5 c 2.99,22.263 5.323,44.596 7,67 -3.333,0 -6.667,0 -10,0 -0.167,-15.004 0,-30.004 0.5,-45 -0.137,-7.735 0.696,-15.068 2.5,-22 z"
         id="path188" />
    </g>
    <g
       id="g189"
       style="clip-rule:evenodd;fill-rule:evenodd;image-rendering:optimizeQuality;shape-rendering:geometricPrecision;text-rendering:geometricPrecision"
       transform="matrix(0.31807284,0,0,0.31807284,-227.18529,-10.090427)">
      <path
         style="opacity:1"
         fill="#a15454"
         d="m 831.5,105.5 c -3,0 -6,0 -9,0 0.324,6.854 -0.009,13.521 -1,20 0,-6.667 0,-13.333 0,-20 3.333,-1.333 6.667,-1.333 10,0 z"
         id="path189" />
    </g>
    <g
       id="g190"
       style="clip-rule:evenodd;fill-rule:evenodd;image-rendering:optimizeQuality;shape-rendering:geometricPrecision;text-rendering:geometricPrecision"
       transform="matrix(0.31807284,0,0,0.31807284,-227.18529,-10.090427)">
      <path
         style="opacity:1"
         fill="#d3352e"
         d="m 822.5,93.5 c 3,0 6,0 9,0 0,2.6667 0,5.3333 0,8 -3,0 -6,0 -9,0 0,-2.6667 0,-5.3333 0,-8 z"
         id="path190" />
    </g>
    <g
       id="g191"
       style="clip-rule:evenodd;fill-rule:evenodd;image-rendering:optimizeQuality;shape-rendering:geometricPrecision;text-rendering:geometricPrecision"
       transform="matrix(0.31807284,0,0,0.31807284,-227.18529,-10.090427)">
      <path
         style="opacity:1"
         fill="#aa1e18"
         d="m 846.5,95.5 c 3.47,-0.6252 6.304,0.3748 8.5,3 0.667,4.667 0.667,9.333 0,14 -3.667,4 -7.333,4 -11,0 -0.667,-4.667 -0.667,-9.333 0,-14 1.045,-0.8734 1.878,-1.8734 2.5,-3 z"
         id="path191" />
    </g>
    <g
       id="g192"
       style="clip-rule:evenodd;fill-rule:evenodd;image-rendering:optimizeQuality;shape-rendering:geometricPrecision;text-rendering:geometricPrecision"
       transform="matrix(0.31807284,0,0,0.31807284,-227.18529,-10.090427)">
      <path
         style="opacity:1"
         fill="#d5382f"
         d="m 848.5,97.5 c 1.083,0.0394 2.083,0.3728 3,1 1.161,4.295 1.328,8.629 0.5,13 -1.667,1.333 -3.333,1.333 -5,0 -1.011,-4.971 -0.511,-9.637 1.5,-14 z"
         id="path192" />
    </g>
    <g
       id="g194"
       style="clip-rule:evenodd;fill-rule:evenodd;image-rendering:optimizeQuality;shape-rendering:geometricPrecision;text-rendering:geometricPrecision"
       transform="matrix(0.31807284,0,0,0.31807284,-227.18529,-10.090427)">
      <path
         style="opacity:1"
         fill="#e7b2b0"
         d="m 946.5,193.5 c 0.992,-0.172 1.658,0.162 2,1 0.992,31.927 1.326,63.927 1,96 0.284,1.915 -0.049,3.581 -1,5 0.167,-33.002 0,-66.002 -0.5,-99 -0.513,-1.027 -1.013,-2.027 -1.5,-3 z"
         id="path194" />
    </g>
    <g
       id="g197"
       style="clip-rule:evenodd;fill-rule:evenodd;image-rendering:optimizeQuality;shape-rendering:geometricPrecision;text-rendering:geometricPrecision"
       transform="matrix(0.31807284,0,0,0.31807284,-227.18529,-10.090427)">
      <path
         style="opacity:1"
         fill="#d2372e"
         d="m 802.5,190.5 c 0.165,3.018 -0.002,6.018 -0.5,9 -2.178,1.147 -3.678,2.813 -4.5,5 0.636,3.294 2.636,4.627 6,4 0.165,3.018 -0.002,6.018 -0.5,9 -1.512,0.757 -2.846,1.757 -4,3 -1.568,4.417 -0.068,6.417 4.5,6 0.165,3.682 -10e-4,7.348 -0.5,11 -1.667,1 -3.333,2 -5,3 -0.495,1.973 -0.662,3.973 -0.5,6 2,0 4,0 6,0 0.165,3.018 -0.002,6.018 -0.5,9 -1.96,1.536 -3.46,3.369 -4.5,5.5 0.243,3.003 1.91,4.17 5,3.5 0.166,4.014 -10e-4,8.014 -0.5,12 -1.667,1 -3.333,2 -5,3 -1.072,3.053 -0.072,5.053 3,6 2.333,-1.333 4.667,-2.667 7,-4 3.128,0.704 6.294,1.204 9.5,1.5 -5.491,4.246 -11.158,8.246 -17,12 -2.062,1.532 -3.396,3.532 -4,6 -3.317,0.498 -6.65,0.665 -10,0.5 -3.285,-3.778 -5.285,-8.278 -6,-13.5 0.333,-0.833 0.667,-1.667 1,-2.5 4.446,3.61 9.279,6.61 14.5,9 3.037,-2.313 3.204,-4.813 0.5,-7.5 -5.305,-2.654 -10.305,-5.821 -15,-9.5 -0.989,-3.607 -1.323,-7.274 -1,-11 1.052,-0.149 2.052,0.017 3,0.5 2.968,3.147 6.302,5.814 10,8 6.449,0.099 7.449,-2.234 3,-7 -5.434,-3.468 -10.601,-7.301 -15.5,-11.5 -1.285,-3.672 -1.452,-7.339 -0.5,-11 4.478,3.31 8.811,6.81 13,10.5 5.667,1.333 7.333,-0.667 5,-6 -6.253,-4.043 -12.42,-8.21 -18.5,-12.5 -0.498,-3.317 -0.665,-6.65 -0.5,-10 4.999,2.14 9.666,4.974 14,8.5 2.804,0.971 4.804,0.138 6,-2.5 -5.143,-4.937 -10.81,-9.437 -17,-13.5 -2.147,-3.974 -2.48,-8.14 -1,-12.5 4.144,2.976 8.144,6.143 12,9.5 1.735,0.651 3.402,0.485 5,-0.5 1.41,-2.449 1.076,-4.616 -1,-6.5 -5.427,-3.419 -10.594,-7.252 -15.5,-11.5 -0.028,-2.287 0.805,-4.287 2.5,-6 6.359,0.27 12.359,-0.397 18,-2 z"
         id="path197" />
    </g>
    <g
       id="g199"
       style="clip-rule:evenodd;fill-rule:evenodd;image-rendering:optimizeQuality;shape-rendering:geometricPrecision;text-rendering:geometricPrecision"
       transform="matrix(0.31807284,0,0,0.31807284,-227.18529,-10.090427)">
      <path
         style="opacity:1"
         fill="#d83a30"
         d="m 834.5,260.5 c 18.333,0 36.667,0 55,0 0,3 0,6 0,9 -18.333,0 -36.667,0 -55,0 0,-3 0,-6 0,-9 z"
         id="path199" />
    </g>
    <g
       id="g206"
       style="clip-rule:evenodd;fill-rule:evenodd;image-rendering:optimizeQuality;shape-rendering:geometricPrecision;text-rendering:geometricPrecision"
       transform="matrix(0.31807284,0,0,0.31807284,-227.18529,-10.090427)">
      <path
         style="opacity:1"
         fill="#9a1e1f"
         d="m 942.5,193.5 c 1.911,0.074 3.078,1.074 3.5,3 0.667,33 0.667,66 0,99 -1.115,1.5 -1.948,3.167 -2.5,5 -3.481,1.74 -7.148,2.907 -11,3.5 -8,0.667 -16,0.667 -24,0 -0.556,-0.383 -0.889,-0.883 -1,-1.5 4.284,0.605 8.618,0.938 13,1 5.267,0.213 10.267,-0.454 15,-2 2.627,-0.29 4.294,-1.624 5,-4 1.871,-0.359 3.371,-1.359 4.5,-3 0.322,-31.188 0.488,-62.021 0.5,-92.5 -0.528,-3.049 -1.528,-5.882 -3,-8.5 z"
         id="path206" />
    </g>
    <g
       id="g208"
       style="clip-rule:evenodd;fill-rule:evenodd;image-rendering:optimizeQuality;shape-rendering:geometricPrecision;text-rendering:geometricPrecision"
       transform="matrix(0.31807284,0,0,0.31807284,-227.18529,-10.090427)">
      <path
         style="opacity:1"
         fill="#8c3733"
         d="m 846.5,273.5 c -3.871,-0.315 -7.538,0.018 -11,1 -1.037,1.43 -1.704,3.097 -2,5 -2.972,2.15 -6.305,3.15 -10,3 2.15,-1.17 4.484,-2.17 7,-3 1.459,-2.083 2.792,-4.25 4,-6.5 4.189,-0.812 8.189,-0.645 12,0.5 z"
         id="path208" />
    </g>
    <g
       id="g211"
       style="clip-rule:evenodd;fill-rule:evenodd;image-rendering:optimizeQuality;shape-rendering:geometricPrecision;text-rendering:geometricPrecision"
       transform="matrix(0.31807284,0,0,0.31807284,-227.18529,-10.090427)">
      <path
         style="opacity:1"
         fill="#d29696"
         d="m 835.5,274.5 c 3.462,-0.982 7.129,-1.315 11,-1 0.333,0 0.667,0 1,0 0,5 0,10 0,15 -0.986,-4.47 -1.319,-9.137 -1,-14 -3.667,0 -7.333,0 -11,0 z"
         id="path211" />
    </g>
    <g
       id="g214"
       style="clip-rule:evenodd;fill-rule:evenodd;image-rendering:optimizeQuality;shape-rendering:geometricPrecision;text-rendering:geometricPrecision"
       transform="matrix(0.31807284,0,0,0.31807284,-227.18529,-10.090427)">
      <path
         style="opacity:1"
         fill="#f2d7d6"
         d="m 889.5,278.5 c 3.133,3.578 7.133,4.911 12,4 -0.166,5.344 10e-4,10.677 0.5,16 1.332,2.16 2.832,4.16 4.5,6 -3.099,0.408 -5.433,-0.759 -7,-3.5 0.559,-0.725 0.892,-1.558 1,-2.5 -1.444,-3.692 -2.444,-7.525 -3,-11.5 0.457,-0.414 0.791,-0.914 1,-1.5 -4.812,-0.216 -7.812,-2.549 -9,-7 z"
         id="path214" />
    </g>
    <g
       id="g216"
       style="clip-rule:evenodd;fill-rule:evenodd;image-rendering:optimizeQuality;shape-rendering:geometricPrecision;text-rendering:geometricPrecision"
       transform="matrix(0.31807284,0,0,0.31807284,-227.18529,-10.090427)">
      <path
         style="opacity:1"
         fill="#f5dddc"
         d="m 778.5,191.5 c -0.61,0.891 -0.943,1.891 -1,3 -0.838,0.342 -1.172,1.008 -1,2 -1.164,32.831 -1.331,65.831 -0.5,99 1.178,4.005 3.345,7.338 6.5,10 -1.45,1.158 -2.45,0.658 -3,-1.5 -4.209,-0.71 -6.542,-3.21 -7,-7.5 0.097,-33.493 0.597,-67.159 1.5,-101 1.188,-1.063 1.688,-2.397 1.5,-4 1,0 2,0 3,0 z"
         id="path216" />
    </g>
    <g
       id="g221"
       style="clip-rule:evenodd;fill-rule:evenodd;image-rendering:optimizeQuality;shape-rendering:geometricPrecision;text-rendering:geometricPrecision"
       transform="matrix(0.31807284,0,0,0.31807284,-227.18529,-10.090427)">
      <path
         style="opacity:1"
         fill="#d7443a"
         d="m 815.5,291.5 c 1,0 2,0 3,0 0.464,6.699 -2.702,10.032 -9.5,10 -1.5,-0.333 -3,-0.667 -4.5,-1 0.167,-0.333 0.333,-0.667 0.5,-1 3.658,-2.566 7.158,-5.232 10.5,-8 z"
         id="path221" />
    </g>
    <g
       id="g224"
       style="clip-rule:evenodd;fill-rule:evenodd;image-rendering:optimizeQuality;shape-rendering:geometricPrecision;text-rendering:geometricPrecision"
       transform="matrix(0.31807284,0,0,0.31807284,-227.18529,-10.090427)">
      <path
         style="opacity:1"
         fill="#8f2e2b"
         d="m 941.5,189.5 c 2.249,0.58 3.915,1.913 5,4 0.487,0.973 0.987,1.973 1.5,3 0.5,32.998 0.667,65.998 0.5,99 -1.779,4.947 -5.113,8.447 -10,10.5 -9.667,0.667 -19.333,0.667 -29,0 -1.027,-0.513 -2.027,-1.013 -3,-1.5 -1.668,-1.84 -3.168,-3.84 -4.5,-6 -0.499,-5.323 -0.666,-10.656 -0.5,-16 -4.867,0.911 -8.867,-0.422 -12,-4 0.268,-1.599 -0.066,-2.932 -1,-4 -3.798,-0.983 -7.798,-1.317 -12,-1 0,4.667 0,9.333 0,14 -0.359,1.871 -1.359,3.371 -3,4.5 -7.667,0.667 -15.333,0.667 -23,0 -1.21,-1.039 -2.21,-2.206 -3,-3.5 0,-5 0,-10 0,-15 0.617,0.111 1.117,0.444 1.5,1 0.333,5 0.667,10 1,15 0.5,0.5 1,1 1.5,1.5 3.167,0.167 6.333,0.333 9.5,0.5 4.523,0.206 8.856,-0.461 13,-2 0.19,-5.916 0.69,-11.749 1.5,-17.5 5,-0.667 10,-0.667 15,0 1.569,6.787 5.902,9.454 13,8 -0.333,0.333 -0.667,0.667 -1,1 0.782,2.74 1.282,5.574 1.5,8.5 0.914,-1.154 1.747,-0.987 2.5,0.5 -1.158,1.009 -1.825,2.342 -2,4 0.014,1.385 0.348,2.551 1,3.5 -0.172,0.992 0.162,1.658 1,2 0.057,1.109 0.39,2.109 1,3 0.111,0.617 0.444,1.117 1,1.5 8,0.667 16,0.667 24,0 3.852,-0.593 7.519,-1.76 11,-3.5 0.552,-1.833 1.385,-3.5 2.5,-5 0.667,-33 0.667,-66 0,-99 -0.422,-1.926 -1.589,-2.926 -3.5,-3 -0.333,-1.333 -0.667,-2.667 -1,-4 z"
         id="path224" />
    </g>
    <g
       id="g225"
       style="clip-rule:evenodd;fill-rule:evenodd;image-rendering:optimizeQuality;shape-rendering:geometricPrecision;text-rendering:geometricPrecision"
       transform="matrix(0.31807284,0,0,0.31807284,-227.18529,-10.090427)">
      <path
         style="opacity:1"
         fill="#d74138"
         d="m 906.5,299.5 c -0.838,-0.342 -1.172,-1.008 -1,-2 -0.285,-1.788 0.048,-3.455 1,-5 4.517,2.56 8.85,5.393 13,8.5 -4.629,1.022 -8.962,0.522 -13,-1.5 z"
         id="path225" />
    </g>
    <g
       id="g226"
       style="clip-rule:evenodd;fill-rule:evenodd;image-rendering:optimizeQuality;shape-rendering:geometricPrecision;text-rendering:geometricPrecision"
       transform="matrix(0.31807284,0,0,0.31807284,-227.18529,-10.090427)">
      <path
         style="opacity:1"
         fill="#d6352a"
         d="m 851.5,273.5 c 7,0 14,0 21,0 0.305,5.262 -0.029,10.428 -1,15.5 -6.658,0.5 -13.325,0.666 -20,0.5 0,-5.333 0,-10.667 0,-16 z"
         id="path226" />
    </g>
    <g
       id="g227"
       style="clip-rule:evenodd;fill-rule:evenodd;image-rendering:optimizeQuality;shape-rendering:geometricPrecision;text-rendering:geometricPrecision"
       transform="matrix(0.31807284,0,0,0.31807284,-227.18529,-10.090427)">
      <path
         style="opacity:1"
         fill="#d1908f"
         d="m 888.5,274.5 c -3.667,0 -7.333,0 -11,0 0.318,4.532 -0.015,8.866 -1,13 0,-4.667 0,-9.333 0,-14 4.202,-0.317 8.202,0.017 12,1 z"
         id="path227" />
    </g>
    <g
       id="g228"
       style="clip-rule:evenodd;fill-rule:evenodd;image-rendering:optimizeQuality;shape-rendering:geometricPrecision;text-rendering:geometricPrecision"
       transform="matrix(0.31807284,0,0,0.31807284,-227.18529,-10.090427)">
      <path
         style="opacity:1"
         fill="#f4d9d8"
         d="m 833.5,279.5 c 0.086,0.996 -0.248,1.829 -1,2.5 -2.64,0.896 -4.807,2.396 -6.5,4.5 -0.465,5.131 -1.465,10.131 -3,15 -1.741,1.258 -3.574,2.258 -5.5,3 5.566,-6.195 7.566,-13.528 6,-22 3.695,0.15 7.028,-0.85 10,-3 z"
         id="path228" />
    </g>
    <g
       id="g229"
       style="clip-rule:evenodd;fill-rule:evenodd;image-rendering:optimizeQuality;shape-rendering:geometricPrecision;text-rendering:geometricPrecision"
       transform="matrix(0.31807284,0,0,0.31807284,-227.18529,-10.090427)">
      <path
         style="opacity:1"
         fill="#8e3532"
         d="m 823.5,282.5 c 1.566,8.472 -0.434,15.805 -6,22 -0.667,0 -1.333,0 -2,0 1.67,-3.332 3.837,-6.332 6.5,-9 0.175,-4.519 0.675,-8.853 1.5,-13 z"
         id="path229" />
    </g>
  </g>
</svg>
