<?xml version="1.0" encoding="UTF-8" standalone="no"?>
<!-- Created with Inkscape (http://www.inkscape.org/) -->

<svg
   width="96mm"
   height="96mm"
   viewBox="0 0 96 96"
   version="1.1"
   id="svg1"
   inkscape:version="1.4.2 (ebf0e940, 2025-05-08)"
   sodipodi:docname="person.svg"
   xmlns:inkscape="http://www.inkscape.org/namespaces/inkscape"
   xmlns:sodipodi="http://sodipodi.sourceforge.net/DTD/sodipodi-0.dtd"
   xmlns="http://www.w3.org/2000/svg"
   xmlns:svg="http://www.w3.org/2000/svg">
  <sodipodi:namedview
     id="namedview1"
     pagecolor="#ffffff"
     bordercolor="#000000"
     borderopacity="0.25"
     inkscape:showpageshadow="2"
     inkscape:pageopacity="0.0"
     inkscape:pagecheckerboard="0"
     inkscape:deskcolor="#d1d1d1"
     inkscape:document-units="mm"
     inkscape:zoom="0.80444024"
     inkscape:cx="397.17059"
     inkscape:cy="362.36377"
     inkscape:window-width="1920"
     inkscape:window-height="1052"
     inkscape:window-x="0"
     inkscape:window-y="28"
     inkscape:window-maximized="0"
     inkscape:current-layer="layer1" />
  <defs
     id="defs1" />
  <g
     inkscape:label="Layer 1"
     inkscape:groupmode="layer"
     id="layer1">
    <g
       id="g370"
       style="clip-rule:evenodd;fill-rule:evenodd;image-rendering:optimizeQuality;shape-rendering:geometricPrecision;text-rendering:geometricPrecision"
       transform="matrix(0.34061576,0,0,0.34061576,-362.82207,-141.40821)">
      <path
         style="opacity:1"
         fill="#eaaaa5"
         d="m 1192.5,444.5 c 7.49,-1.156 15.16,-1.322 23,-0.5 2.69,0.156 5.02,0.989 7,2.5 -9.93,-1.61 -19.93,-2.277 -30,-2 z"
         id="path370" />
    </g>
    <g
       id="g371"
       style="clip-rule:evenodd;fill-rule:evenodd;image-rendering:optimizeQuality;shape-rendering:geometricPrecision;text-rendering:geometricPrecision"
       transform="matrix(0.34061576,0,0,0.34061576,-362.82207,-141.40821)">
      <path
         style="opacity:1"
         fill="#b04038"
         d="m 1192.5,444.5 c 10.07,-0.277 20.07,0.39 30,2 4.51,1.115 8.51,3.115 12,6 -6.35,-1.673 -12.69,-3.506 -19,-5.5 -8.99,-0.5 -17.99,-0.666 -27,-0.5 1.17,-0.845 2.5,-1.511 4,-2 z"
         id="path371" />
    </g>
    <g
       id="g375"
       style="clip-rule:evenodd;fill-rule:evenodd;image-rendering:optimizeQuality;shape-rendering:geometricPrecision;text-rendering:geometricPrecision"
       transform="matrix(0.34061576,0,0,0.34061576,-362.82207,-141.40821)">
      <path
         style="opacity:1"
         fill="#b04c43"
         d="m 1188.5,446.5 c -4.76,2.371 -9.76,4.371 -15,6 4.36,-3.34 9.36,-5.34 15,-6 z"
         id="path375" />
    </g>
    <g
       id="g376"
       style="clip-rule:evenodd;fill-rule:evenodd;image-rendering:optimizeQuality;shape-rendering:geometricPrecision;text-rendering:geometricPrecision"
       transform="matrix(0.34061576,0,0,0.34061576,-362.82207,-141.40821)">
      <path
         style="opacity:1"
         fill="#e76963"
         d="m 1245.5,545.5 c -5.17,13.679 -14.17,24.179 -27,31.5 -3.93,1.477 -7.93,2.644 -12,3.5 -6.35,0.599 -12.35,-0.568 -18,-3.5 -14.38,-9.724 -24.22,-22.891 -29.5,-39.5 -8.12,-7.36 -10.79,-16.36 -8,-27 1.15,-1.243 2.49,-2.243 4,-3 -1.41,-42.585 19.09,-61.752 61.5,-57.5 15.43,3.763 26.26,12.929 32.5,27.5 2.61,10.166 4.11,20.499 4.5,31 3.44,2.782 4.77,6.449 4,11 -0.17,2.333 -0.33,4.667 -0.5,7 -1.83,4.665 -4.83,8.332 -9,11 -0.94,2.654 -1.77,5.321 -2.5,8 z"
         id="path376" />
    </g>
    <g
       id="g380"
       style="clip-rule:evenodd;fill-rule:evenodd;image-rendering:optimizeQuality;shape-rendering:geometricPrecision;text-rendering:geometricPrecision"
       transform="matrix(0.34061576,0,0,0.34061576,-362.82207,-141.40821)">
      <path
         style="opacity:1"
         fill="#c5362e"
         d="m 1188.5,446.5 c 9.01,-0.166 18.01,0 27,0.5 6.31,1.994 12.65,3.827 19,5.5 4.26,2.293 7.92,5.293 11,9 1.75,1.746 3.08,3.746 4,6 0.3,4.917 1.47,9.584 3.5,14 1.65,7.918 2.65,15.918 3,24 4.54,5.44 6.38,11.774 5.5,19 -0.21,3.621 -1.21,6.954 -3,10 -0.77,1.194 -1.77,2.194 -3,3 -1.43,-0.079 -2.76,0.254 -4,1 -0.88,2.82 -2.05,5.486 -3.5,8 -0.67,-0.752 -1.5,-1.086 -2.5,-1 0.73,-2.679 1.56,-5.346 2.5,-8 4.17,-2.668 7.17,-6.335 9,-11 0.17,-2.333 0.33,-4.667 0.5,-7 0.77,-4.551 -0.56,-8.218 -4,-11 -0.39,-10.501 -1.89,-20.834 -4.5,-31 -6.24,-14.571 -17.07,-23.737 -32.5,-27.5 -42.41,-4.252 -62.91,14.915 -61.5,57.5 -1.51,0.757 -2.85,1.757 -4,3 -2.79,10.64 -0.12,19.64 8,27 5.28,16.609 15.12,29.776 29.5,39.5 5.65,2.932 11.65,4.099 18,3.5 -4.04,1.677 -8.38,2.344 -13,2 -17.85,-8.704 -30.01,-22.704 -36.5,-42 -1.78,-2.29 -3.94,-3.957 -6.5,-5 -1.21,-4.075 -2.71,-8.075 -4.5,-12 -0.5,-4.321 -0.67,-8.654 -0.5,-13 1.89,-0.861 3.72,-1.861 5.5,-3 0.57,-8.674 1.24,-17.341 2,-26 2.49,-5.298 4.66,-10.631 6.5,-16 2.87,-3.021 6.2,-5.521 10,-7.5 1.47,-1.774 2.8,-3.608 4,-5.5 5.24,-1.629 10.24,-3.629 15,-6 z"
         id="path380" />
    </g>
    <g
       id="g384"
       style="clip-rule:evenodd;fill-rule:evenodd;image-rendering:optimizeQuality;shape-rendering:geometricPrecision;text-rendering:geometricPrecision"
       transform="matrix(0.34061576,0,0,0.34061576,-362.82207,-141.40821)">
      <path
         style="opacity:1"
         fill="#ad4037"
         d="m 1173.5,452.5 c -1.2,1.892 -2.53,3.726 -4,5.5 -3.8,1.979 -7.13,4.479 -10,7.5 3.39,-5.719 8.05,-10.052 14,-13 z"
         id="path384" />
    </g>
    <g
       id="g393"
       style="clip-rule:evenodd;fill-rule:evenodd;image-rendering:optimizeQuality;shape-rendering:geometricPrecision;text-rendering:geometricPrecision"
       transform="matrix(0.34061576,0,0,0.34061576,-362.82207,-141.40821)">
      <path
         style="opacity:1"
         fill="#b8514a"
         d="m 1159.5,465.5 c -1.84,5.369 -4.01,10.702 -6.5,16 -0.76,8.659 -1.43,17.326 -2,26 -1.78,1.139 -3.61,2.139 -5.5,3 0.06,-1.109 0.39,-2.109 1,-3 1.29,-0.79 2.46,-1.79 3.5,-3 0.08,-8.772 0.92,-17.439 2.5,-26 1.71,-2.761 2.88,-5.761 3.5,-9 0.95,-1.593 2.12,-2.926 3.5,-4 z"
         id="path393" />
    </g>
    <g
       id="g410"
       style="clip-rule:evenodd;fill-rule:evenodd;image-rendering:optimizeQuality;shape-rendering:geometricPrecision;text-rendering:geometricPrecision"
       transform="matrix(0.34061576,0,0,0.34061576,-362.82207,-141.40821)">
      <path
         style="opacity:1"
         fill="#f8dad6"
         d="m 1245.5,461.5 c 1.64,-0.02 2.98,0.647 4,2 0.96,2.124 2.12,4.124 3.5,6 1.08,5.566 2.75,10.899 5,16 0.33,5 0.67,10 1,15 1.59,2.427 2.42,5.093 2.5,8 -1.33,-1.333 -2.67,-2.667 -4,-4 0.41,-7.579 -0.26,-14.912 -2,-22 -1.63,-5.23 -3.63,-10.23 -6,-15 -0.92,-2.254 -2.25,-4.254 -4,-6 z"
         id="path410" />
    </g>
    <g
       id="g412"
       style="clip-rule:evenodd;fill-rule:evenodd;image-rendering:optimizeQuality;shape-rendering:geometricPrecision;text-rendering:geometricPrecision"
       transform="matrix(0.34061576,0,0,0.34061576,-362.82207,-141.40821)">
      <path
         style="opacity:1"
         fill="#c77872"
         d="m 1255.5,482.5 c 1.74,7.088 2.41,14.421 2,22 -1.04,-7.153 -1.7,-14.486 -2,-22 z"
         id="path412" />
    </g>
    <g
       id="g414"
       style="clip-rule:evenodd;fill-rule:evenodd;image-rendering:optimizeQuality;shape-rendering:geometricPrecision;text-rendering:geometricPrecision"
       transform="matrix(0.34061576,0,0,0.34061576,-362.82207,-141.40821)">
      <path
         style="opacity:1"
         fill="#fadcd8"
         d="m 1152.5,478.5 c -1.58,8.561 -2.42,17.228 -2.5,26 -1.04,1.21 -2.21,2.21 -3.5,3 2.07,-9.148 3.57,-18.481 4.5,-28 0.38,-0.556 0.88,-0.889 1.5,-1 z"
         id="path414" />
    </g>
    <g
       id="g421"
       style="clip-rule:evenodd;fill-rule:evenodd;image-rendering:optimizeQuality;shape-rendering:geometricPrecision;text-rendering:geometricPrecision"
       transform="matrix(0.34061576,0,0,0.34061576,-362.82207,-141.40821)">
      <path
         style="opacity:1"
         fill="#ab403a"
         d="m 1249.5,467.5 c 2.37,4.77 4.37,9.77 6,15 0.3,7.514 0.96,14.847 2,22 1.33,1.333 2.67,2.667 4,4 1.2,5.477 1.2,10.811 0,16 0.88,-7.226 -0.96,-13.56 -5.5,-19 -0.35,-8.082 -1.35,-16.082 -3,-24 -2.03,-4.416 -3.2,-9.083 -3.5,-14 z"
         id="path421" />
    </g>
    <g
       id="g427"
       style="clip-rule:evenodd;fill-rule:evenodd;image-rendering:optimizeQuality;shape-rendering:geometricPrecision;text-rendering:geometricPrecision"
       transform="matrix(0.34061576,0,0,0.34061576,-362.82207,-141.40821)">
      <path
         style="opacity:1"
         fill="#ad4c46"
         d="m 1145.5,510.5 c -0.17,4.346 0,8.679 0.5,13 1.79,3.925 3.29,7.925 4.5,12 -2.86,-3.046 -4.69,-6.713 -5.5,-11 -0.82,-4.852 -0.65,-9.519 0.5,-14 z"
         id="path427" />
    </g>
    <g
       id="g428"
       style="clip-rule:evenodd;fill-rule:evenodd;image-rendering:optimizeQuality;shape-rendering:geometricPrecision;text-rendering:geometricPrecision"
       transform="matrix(0.34061576,0,0,0.34061576,-362.82207,-141.40821)">
      <path
         style="opacity:1"
         fill="#f3d2cf"
         d="m 1261.5,508.5 c 1.25,0.077 2.08,0.744 2.5,2 0.67,5.667 0.67,11.333 0,17 -0.77,3.247 -2.6,5.58 -5.5,7 1.79,-3.046 2.79,-6.379 3,-10 1.2,-5.189 1.2,-10.523 0,-16 z"
         id="path428" />
    </g>
    <g
       id="g472"
       style="clip-rule:evenodd;fill-rule:evenodd;image-rendering:optimizeQuality;shape-rendering:geometricPrecision;text-rendering:geometricPrecision"
       transform="matrix(0.34061576,0,0,0.34061576,-362.82207,-141.40821)">
      <path
         style="opacity:1"
         fill="#f6ddd9"
         d="m 1146.5,507.5 c -0.61,0.891 -0.94,1.891 -1,3 -1.15,4.481 -1.32,9.148 -0.5,14 0.81,4.287 2.64,7.954 5.5,11 4.04,3.399 6.54,7.733 7.5,13 3.35,6.722 7.19,13.055 11.5,19 -2.42,-0.478 -4.58,-1.478 -6.5,-3 -2.94,-6.594 -6.11,-13.594 -9.5,-21 -4.8,-3.892 -7.63,-8.892 -8.5,-15 -0.57,-1.992 -1.74,-3.492 -3.5,-4.5 0.81,-4.749 1.31,-9.582 1.5,-14.5 0.82,-1.323 1.98,-1.989 3.5,-2 z"
         id="path472" />
    </g>
    <g
       id="g499"
       style="clip-rule:evenodd;fill-rule:evenodd;image-rendering:optimizeQuality;shape-rendering:geometricPrecision;text-rendering:geometricPrecision"
       transform="matrix(0.34061576,0,0,0.34061576,-362.82207,-141.40821)">
      <path
         style="opacity:1"
         fill="#ba362f"
         d="m 1255.5,537.5 c -0.81,1.337 -1.98,2.337 -3.5,3 -2.43,8.19 -5.93,15.857 -10.5,23 -3.97,4.307 -7.97,8.641 -12,13 -3.44,1.555 -6.77,3.388 -10,5.5 -2.24,0.977 -4.57,1.477 -7,1.5 -6.33,0 -12.67,0 -19,0 0,-0.333 0,-0.667 0,-1 4.62,0.344 8.96,-0.323 13,-2 4.07,-0.856 8.07,-2.023 12,-3.5 12.83,-7.321 21.83,-17.821 27,-31.5 1,-0.086 1.83,0.248 2.5,1 1.45,-2.514 2.62,-5.18 3.5,-8 1.24,-0.746 2.57,-1.079 4,-1 z"
         id="path499" />
    </g>
    <g
       id="g505"
       style="clip-rule:evenodd;fill-rule:evenodd;image-rendering:optimizeQuality;shape-rendering:geometricPrecision;text-rendering:geometricPrecision"
       transform="matrix(0.34061576,0,0,0.34061576,-362.82207,-141.40821)">
      <path
         style="opacity:1"
         fill="#f5d8d5"
         d="m 1241.5,563.5 c 0.16,1.373 -0.01,2.707 -0.5,4 -3.73,3.238 -7.56,6.238 -11.5,9 4.03,-4.359 8.03,-8.693 12,-13 z"
         id="path505" />
    </g>
    <g
       id="g509"
       style="clip-rule:evenodd;fill-rule:evenodd;image-rendering:optimizeQuality;shape-rendering:geometricPrecision;text-rendering:geometricPrecision"
       transform="matrix(0.34061576,0,0,0.34061576,-362.82207,-141.40821)">
      <path
         style="opacity:1"
         fill="#f3ccc8"
         d="m 1169.5,567.5 c 4.03,4.368 8.37,8.368 13,12 -5.91,-2.237 -10.24,-6.237 -13,-12 z"
         id="path509" />
    </g>
    <g
       id="g513"
       style="clip-rule:evenodd;fill-rule:evenodd;image-rendering:optimizeQuality;shape-rendering:geometricPrecision;text-rendering:geometricPrecision"
       transform="matrix(0.34061576,0,0,0.34061576,-362.82207,-141.40821)">
      <path
         style="opacity:1"
         fill="#ae413a"
         d="m 1150.5,535.5 c 2.56,1.043 4.72,2.71 6.5,5 6.49,19.296 18.65,33.296 36.5,42 0,0.333 0,0.667 0,1 -4,-0.501 -7.66,-1.834 -11,-4 -4.63,-3.632 -8.97,-7.632 -13,-12 -4.31,-5.945 -8.15,-12.278 -11.5,-19 -0.96,-5.267 -3.46,-9.601 -7.5,-13 z"
         id="path513" />
    </g>
    <g
       id="g516"
       style="clip-rule:evenodd;fill-rule:evenodd;image-rendering:optimizeQuality;shape-rendering:geometricPrecision;text-rendering:geometricPrecision"
       transform="matrix(0.34061576,0,0,0.34061576,-362.82207,-141.40821)">
      <path
         style="opacity:1"
         fill="#f6d9d4"
         d="m 1262.5,581.5 c -6.69,-1.675 -13.35,-3.675 -20,-6 -3.33,2.653 -6.66,5.32 -10,8 1.69,-4.382 4.69,-7.715 9,-10 6.74,1.519 13.41,3.353 20,5.5 0.75,0.671 1.09,1.504 1,2.5 z"
         id="path516" />
    </g>
    <g
       id="g518"
       style="clip-rule:evenodd;fill-rule:evenodd;image-rendering:optimizeQuality;shape-rendering:geometricPrecision;text-rendering:geometricPrecision"
       transform="matrix(0.34061576,0,0,0.34061576,-362.82207,-141.40821)">
      <path
         style="opacity:1"
         fill="#ba6660"
         d="m 1167.5,576.5 c -4.67,1 -9.33,2 -14,3 4.4,-2.902 9.07,-3.902 14,-3 z"
         id="path518" />
    </g>
    <g
       id="g519"
       style="clip-rule:evenodd;fill-rule:evenodd;image-rendering:optimizeQuality;shape-rendering:geometricPrecision;text-rendering:geometricPrecision"
       transform="matrix(0.34061576,0,0,0.34061576,-362.82207,-141.40821)">
      <path
         style="opacity:1"
         fill="#ae413a"
         d="m 1262.5,581.5 c 4.84,2.586 9.84,4.92 15,7 2.52,1.763 4.85,3.763 7,6 -9.58,-4.804 -19.24,-9.304 -29,-13.5 -4.9,-1.65 -9.9,-2.317 -15,-2 -3.81,2.895 -7.14,6.228 -10,10 -3.94,1.474 -7.94,2.641 -12,3.5 2,-1.333 4,-2.667 6,-4 3.34,-0.667 6.01,-2.334 8,-5 3.34,-2.68 6.67,-5.347 10,-8 6.65,2.325 13.31,4.325 20,6 z"
         id="path519" />
    </g>
    <g
       id="g520"
       style="clip-rule:evenodd;fill-rule:evenodd;image-rendering:optimizeQuality;shape-rendering:geometricPrecision;text-rendering:geometricPrecision"
       transform="matrix(0.34061576,0,0,0.34061576,-362.82207,-141.40821)">
      <path
         style="opacity:1"
         fill="#c8372f"
         d="m 1284.5,594.5 c 0.72,2.06 2.05,3.726 4,5 0.97,1.896 1.3,3.896 1,6 -7.53,-8.656 -16.86,-14.823 -28,-18.5 -5.65,-1.938 -11.31,-3.771 -17,-5.5 -5.12,4.066 -10.45,7.899 -16,11.5 -12.99,7.027 -26.32,8.193 -40,3.5 6.83,-0.594 13.83,-0.761 21,-0.5 3.29,-0.725 6.29,-1.892 9,-3.5 4.06,-0.859 8.06,-2.026 12,-3.5 2.86,-3.772 6.19,-7.105 10,-10 5.1,-0.317 10.1,0.35 15,2 9.76,4.196 19.42,8.696 29,13.5 z"
         id="path520" />
    </g>
    <g
       id="g522"
       style="clip-rule:evenodd;fill-rule:evenodd;image-rendering:optimizeQuality;shape-rendering:geometricPrecision;text-rendering:geometricPrecision"
       transform="matrix(0.34061576,0,0,0.34061576,-362.82207,-141.40821)">
      <path
         style="opacity:1"
         fill="#e76963"
         d="m 1175.5,590.5 c 3.54,3.522 7.87,5.522 13,6 13.68,4.693 27.01,3.527 40,-3.5 5.55,-3.601 10.88,-7.434 16,-11.5 5.69,1.729 11.35,3.562 17,5.5 11.14,3.677 20.47,9.844 28,18.5 0.43,1.21 1.1,2.21 2,3 4.71,7.487 6.21,15.487 4.5,24 -7.62,4.396 -15.45,8.062 -23.5,11 -0.33,0 -0.67,0 -1,0 -3.27,-2.768 -6.44,-5.768 -9.5,-9 -1.84,-3.676 -3.67,-7.342 -5.5,-11 -4.33,11.659 -12.33,19.659 -24,24 2.57,1.524 5.24,2.858 8,4 -36.16,6.154 -71.49,3.154 -106,-9 -4.11,-2.559 -8.45,-4.892 -13,-7 -3.04,-2.703 -5.7,-5.703 -8,-9 2.03,-1.749 2.36,-3.749 1,-6 1.96,-1.75 3.29,-3.917 4,-6.5 -0.46,-0.414 -0.79,-0.914 -1,-1.5 1.29,-2.167 2.13,-4.5 2.5,-7 2.39,-1.67 4.72,-3.337 7,-5 0.33,0.667 0.67,1.333 1,2 3.46,-4.943 7.46,-8.61 12,-11 0.46,-0.594 0.63,-1.261 0.5,-2 7.26,-3.033 14.76,-5.7 22.5,-8 0.83,0.167 1.67,0.333 2.5,0.5 2.91,3.419 6.25,6.252 10,8.5 z"
         id="path522" />
    </g>
    <g
       id="g523"
       style="clip-rule:evenodd;fill-rule:evenodd;image-rendering:optimizeQuality;shape-rendering:geometricPrecision;text-rendering:geometricPrecision"
       transform="matrix(0.34061576,0,0,0.34061576,-362.82207,-141.40821)">
      <path
         style="opacity:1"
         fill="#a9433d"
         d="m 1193.5,583.5 c 6.33,0 12.67,0 19,0 -0.42,0.722 -1.08,1.222 -2,1.5 -5,0.667 -10,0.667 -15,0 -0.92,-0.278 -1.58,-0.778 -2,-1.5 z"
         id="path523" />
    </g>
    <g
       id="g524"
       style="clip-rule:evenodd;fill-rule:evenodd;image-rendering:optimizeQuality;shape-rendering:geometricPrecision;text-rendering:geometricPrecision"
       transform="matrix(0.34061576,0,0,0.34061576,-362.82207,-141.40821)">
      <path
         style="opacity:1"
         fill="#f3c7c5"
         d="m 1262.5,581.5 c 4.25,0.291 8.25,1.457 12,3.5 1.21,1.039 2.21,2.206 3,3.5 -5.16,-2.08 -10.16,-4.414 -15,-7 z"
         id="path524" />
    </g>
    <g
       id="g526"
       style="clip-rule:evenodd;fill-rule:evenodd;image-rendering:optimizeQuality;shape-rendering:geometricPrecision;text-rendering:geometricPrecision"
       transform="matrix(0.34061576,0,0,0.34061576,-362.82207,-141.40821)">
      <path
         style="opacity:1"
         fill="#b3453e"
         d="m 1148.5,581.5 c -9.3,4.947 -18.64,9.947 -28,15 3.7,-4.695 8.37,-8.195 14,-10.5 4.54,-2.013 9.2,-3.513 14,-4.5 z"
         id="path526" />
    </g>
    <g
       id="g528"
       style="clip-rule:evenodd;fill-rule:evenodd;image-rendering:optimizeQuality;shape-rendering:geometricPrecision;text-rendering:geometricPrecision"
       transform="matrix(0.34061576,0,0,0.34061576,-362.82207,-141.40821)">
      <path
         style="opacity:1"
         fill="#f1c9c6"
         d="m 1180.5,587.5 c 7.9,2.482 15.9,4.149 24,5 6.99,0.069 13.66,-1.265 20,-4 -2,1.333 -4,2.667 -6,4 -11.95,3.215 -23.61,2.381 -35,-2.5 -1.44,-0.377 -2.44,-1.21 -3,-2.5 z"
         id="path528" />
    </g>
    <g
       id="g529"
       style="clip-rule:evenodd;fill-rule:evenodd;image-rendering:optimizeQuality;shape-rendering:geometricPrecision;text-rendering:geometricPrecision"
       transform="matrix(0.34061576,0,0,0.34061576,-362.82207,-141.40821)">
      <path
         style="opacity:1"
         fill="#bb3b35"
         d="m 1167.5,576.5 c 3.45,4.787 7.78,8.454 13,11 0.56,1.29 1.56,2.123 3,2.5 11.39,4.881 23.05,5.715 35,2.5 -2.71,1.608 -5.71,2.775 -9,3.5 -7.17,-0.261 -14.17,-0.094 -21,0.5 -5.13,-0.478 -9.46,-2.478 -13,-6 -0.39,-1.679 -0.89,-3.346 -1.5,-5 -2.76,-2.09 -5.6,-4.09 -8.5,-6 -5.51,0.352 -11.17,1.019 -17,2 1.43,-1.037 3.1,-1.704 5,-2 4.67,-1 9.33,-2 14,-3 z"
         id="path529" />
    </g>
    <g
       id="g531"
       style="clip-rule:evenodd;fill-rule:evenodd;image-rendering:optimizeQuality;shape-rendering:geometricPrecision;text-rendering:geometricPrecision"
       transform="matrix(0.34061576,0,0,0.34061576,-362.82207,-141.40821)">
      <path
         style="opacity:1"
         fill="#c4302a"
         d="m 1175.5,590.5 c -3.75,-2.248 -7.09,-5.081 -10,-8.5 -0.83,-0.167 -1.67,-0.333 -2.5,-0.5 -7.74,2.3 -15.24,4.967 -22.5,8 -18.14,6.802 -28.47,19.802 -31,39 -0.79,-0.283 -1.46,-0.783 -2,-1.5 0.8,-4.08 1.3,-8.247 1.5,-12.5 4.09,-5.904 7.92,-11.904 11.5,-18 9.36,-5.053 18.7,-10.053 28,-15 5.83,-0.981 11.49,-1.648 17,-2 2.9,1.91 5.74,3.91 8.5,6 0.61,1.654 1.11,3.321 1.5,5 z"
         id="path531" />
    </g>
    <g
       id="g536"
       style="clip-rule:evenodd;fill-rule:evenodd;image-rendering:optimizeQuality;shape-rendering:geometricPrecision;text-rendering:geometricPrecision"
       transform="matrix(0.34061576,0,0,0.34061576,-362.82207,-141.40821)">
      <path
         style="opacity:1"
         fill="#b7443c"
         d="m 1284.5,594.5 c 4.69,2.694 8.36,6.361 11,11 2.18,3.364 3.52,7.03 4,11 -1.73,-1.59 -2.9,-3.59 -3.5,-6 -1.67,-1 -3,-2.333 -4,-4 -0.46,0.594 -0.63,1.261 -0.5,2 -0.9,-0.79 -1.57,-1.79 -2,-3 0.3,-2.104 -0.03,-4.104 -1,-6 -1.95,-1.274 -3.28,-2.94 -4,-5 z"
         id="path536" />
    </g>
    <g
       id="g545"
       style="clip-rule:evenodd;fill-rule:evenodd;image-rendering:optimizeQuality;shape-rendering:geometricPrecision;text-rendering:geometricPrecision"
       transform="matrix(0.34061576,0,0,0.34061576,-362.82207,-141.40821)">
      <path
         style="opacity:1"
         fill="#ed645d"
         d="m 1140.5,589.5 c 0.13,0.739 -0.04,1.406 -0.5,2 -4.54,2.39 -8.54,6.057 -12,11 -0.33,-0.667 -0.67,-1.333 -1,-2 -2.28,1.663 -4.61,3.33 -7,5 -0.37,2.5 -1.21,4.833 -2.5,7 0.21,0.586 0.54,1.086 1,1.5 -0.71,2.583 -2.04,4.75 -4,6.5 1.36,2.251 1.03,4.251 -1,6 2.3,3.297 4.96,6.297 8,9 4.55,2.108 8.89,4.441 13,7 -7.96,-2.27 -15.63,-5.436 -23,-9.5 -0.81,-1.113 -1.47,-2.279 -2,-3.5 0,-0.333 0,-0.667 0,-1 2.53,-19.198 12.86,-32.198 31,-39 z"
         id="path545" />
    </g>
    <g
       id="g550"
       style="clip-rule:evenodd;fill-rule:evenodd;image-rendering:optimizeQuality;shape-rendering:geometricPrecision;text-rendering:geometricPrecision"
       transform="matrix(0.34061576,0,0,0.34061576,-362.82207,-141.40821)">
      <path
         style="opacity:1"
         fill="#f9dcd7"
         d="m 1295.5,605.5 c 0.88,-0.131 1.54,0.202 2,1 1.84,4.042 3.67,8.042 5.5,12 0.81,4.52 0.65,8.854 -0.5,13 0.52,-5.439 -0.48,-10.439 -3,-15 -0.48,-3.97 -1.82,-7.636 -4,-11 z"
         id="path550" />
    </g>
    <g
       id="g553"
       style="clip-rule:evenodd;fill-rule:evenodd;image-rendering:optimizeQuality;shape-rendering:geometricPrecision;text-rendering:geometricPrecision"
       transform="matrix(0.34061576,0,0,0.34061576,-362.82207,-141.40821)">
      <path
         style="opacity:1"
         fill="#b2423c"
         d="m 1120.5,596.5 c -3.58,6.096 -7.41,12.096 -11.5,18 -0.2,4.253 -0.7,8.42 -1.5,12.5 0.54,0.717 1.21,1.217 2,1.5 0,0.333 0,0.667 0,1 -1.33,2.561 -1,5.061 1,7.5 5.4,1.846 10.4,4.346 15,7.5 -6.46,-1.705 -12.46,-4.372 -18,-8 -1.74,-4.808 -2.41,-9.808 -2,-15 1.11,-6.558 3.61,-12.558 7.5,-18 1.74,-3.239 4.24,-5.573 7.5,-7 z"
         id="path553" />
    </g>
    <g
       id="g555"
       style="clip-rule:evenodd;fill-rule:evenodd;image-rendering:optimizeQuality;shape-rendering:geometricPrecision;text-rendering:geometricPrecision"
       transform="matrix(0.34061576,0,0,0.34061576,-362.82207,-141.40821)">
      <path
         style="opacity:1"
         fill="#ed938d"
         d="m 1271.5,643.5 c -9.76,3.083 -19.76,5.75 -30,8 -0.33,0 -0.67,0 -1,0 -2.76,-1.142 -5.43,-2.476 -8,-4 11.67,-4.341 19.67,-12.341 24,-24 1.83,3.658 3.66,7.324 5.5,11 3.06,3.232 6.23,6.232 9.5,9 z"
         id="path555" />
    </g>
    <g
       id="g557"
       style="clip-rule:evenodd;fill-rule:evenodd;image-rendering:optimizeQuality;shape-rendering:geometricPrecision;text-rendering:geometricPrecision"
       transform="matrix(0.34061576,0,0,0.34061576,-362.82207,-141.40821)">
      <path
         style="opacity:1"
         fill="#b34c45"
         d="m 1299.5,616.5 c 2.52,4.561 3.52,9.561 3,15 -1.06,1.1 -1.89,2.434 -2.5,4 -0.82,1.323 -1.98,1.989 -3.5,2 0.88,-2.41 2.05,-4.743 3.5,-7 0.56,-4.694 0.4,-9.36 -0.5,-14 z"
         id="path557" />
    </g>
    <g
       id="g560"
       style="clip-rule:evenodd;fill-rule:evenodd;image-rendering:optimizeQuality;shape-rendering:geometricPrecision;text-rendering:geometricPrecision"
       transform="matrix(0.34061576,0,0,0.34061576,-362.82207,-141.40821)">
      <path
         style="opacity:1"
         fill="#c4352f"
         d="m 1299.5,616.5 c 0.9,4.64 1.06,9.306 0.5,14 -1.45,2.257 -2.62,4.59 -3.5,7 -4.74,3.704 -10.07,6.37 -16,8 -2.92,0.217 -5.59,-0.449 -8,-2 8.05,-2.938 15.88,-6.604 23.5,-11 1.71,-8.513 0.21,-16.513 -4.5,-24 -0.13,-0.739 0.04,-1.406 0.5,-2 1,1.667 2.33,3 4,4 0.6,2.41 1.77,4.41 3.5,6 z"
         id="path560" />
    </g>
    <g
       id="g562"
       style="clip-rule:evenodd;fill-rule:evenodd;image-rendering:optimizeQuality;shape-rendering:geometricPrecision;text-rendering:geometricPrecision"
       transform="matrix(0.34061576,0,0,0.34061576,-362.82207,-141.40821)">
      <path
         style="opacity:1"
         fill="#efc3c0"
         d="m 1105.5,621.5 c -0.41,5.192 0.26,10.192 2,15 -0.65,-0.304 -1.32,-0.637 -2,-1 -1.31,-4.818 -1.31,-9.485 0,-14 z"
         id="path562" />
    </g>
    <g
       id="g567"
       style="clip-rule:evenodd;fill-rule:evenodd;image-rendering:optimizeQuality;shape-rendering:geometricPrecision;text-rendering:geometricPrecision"
       transform="matrix(0.34061576,0,0,0.34061576,-362.82207,-141.40821)">
      <path
         style="opacity:1"
         fill="#f6dcda"
         d="m 1302.5,631.5 c 0.63,3.47 -0.37,6.304 -3,8.5 -5.64,2.506 -10.97,4.839 -16,7 -3.99,0.945 -7.99,1.778 -12,2.5 2.89,-1.614 5.89,-2.947 9,-4 5.93,-1.63 11.26,-4.296 16,-8 1.52,-0.011 2.68,-0.677 3.5,-2 0.61,-1.566 1.44,-2.9 2.5,-4 z"
         id="path567" />
    </g>
    <g
       id="g573"
       style="clip-rule:evenodd;fill-rule:evenodd;image-rendering:optimizeQuality;shape-rendering:geometricPrecision;text-rendering:geometricPrecision"
       transform="matrix(0.34061576,0,0,0.34061576,-362.82207,-141.40821)">
      <path
         style="opacity:1"
         fill="#cb6f6d"
         d="m 1271.5,643.5 c 0.33,0 0.67,0 1,0 2.41,1.551 5.08,2.217 8,2 -3.11,1.053 -6.11,2.386 -9,4 -9.06,2.134 -18.06,4.467 -27,7 -0.67,0 -1.33,0 -2,0 0.76,-0.768 1.76,-1.268 3,-1.5 -1.23,-1.405 -2.56,-2.571 -4,-3.5 10.24,-2.25 20.24,-4.917 30,-8 z"
         id="path573" />
    </g>
    <g
       id="g575"
       style="clip-rule:evenodd;fill-rule:evenodd;image-rendering:optimizeQuality;shape-rendering:geometricPrecision;text-rendering:geometricPrecision"
       transform="matrix(0.34061576,0,0,0.34061576,-362.82207,-141.40821)">
      <path
         style="opacity:1"
         fill="#f6d8d6"
         d="m 1129.5,646.5 c 6.49,2.159 12.82,4.492 19,7 -4.37,-0.523 -8.71,-1.357 -13,-2.5 -2.16,-1.491 -4.16,-2.991 -6,-4.5 z"
         id="path575" />
    </g>
    <g
       id="g581"
       style="clip-rule:evenodd;fill-rule:evenodd;image-rendering:optimizeQuality;shape-rendering:geometricPrecision;text-rendering:geometricPrecision"
       transform="matrix(0.34061576,0,0,0.34061576,-362.82207,-141.40821)">
      <path
         style="opacity:1"
         fill="#ae4742"
         d="m 1126.5,644.5 c 6.8,1.654 13.46,3.821 20,6.5 13.04,2.075 26.04,4.408 39,7 14.01,0.596 28.01,0.43 42,-0.5 -12.45,1.757 -25.12,2.424 -38,2 -7.96,-0.964 -15.96,-1.964 -24,-3 -2.01,-1.424 -4.35,-2.09 -7,-2 -2.36,-0.174 -4.69,-0.507 -7,-1 -1,0 -2,0 -3,0 -6.18,-2.508 -12.51,-4.841 -19,-7 -1,-0.667 -2,-1.333 -3,-2 z"
         id="path581" />
    </g>
    <g
       id="g584"
       style="clip-rule:evenodd;fill-rule:evenodd;image-rendering:optimizeQuality;shape-rendering:geometricPrecision;text-rendering:geometricPrecision"
       transform="matrix(0.34061576,0,0,0.34061576,-362.82207,-141.40821)">
      <path
         style="opacity:1"
         fill="#cf8783"
         d="m 1158.5,654.5 c 2.65,-0.09 4.99,0.576 7,2 -2.65,0.09 -4.99,-0.576 -7,-2 z"
         id="path584" />
    </g>
    <g
       id="g585"
       style="clip-rule:evenodd;fill-rule:evenodd;image-rendering:optimizeQuality;shape-rendering:geometricPrecision;text-rendering:geometricPrecision"
       transform="matrix(0.34061576,0,0,0.34061576,-362.82207,-141.40821)">
      <path
         style="opacity:1"
         fill="#c53630"
         d="m 1109.5,629.5 c 0.53,1.221 1.19,2.387 2,3.5 7.37,4.064 15.04,7.23 23,9.5 34.51,12.154 69.84,15.154 106,9 0.33,0 0.67,0 1,0 1.44,0.929 2.77,2.095 4,3.5 -1.24,0.232 -2.24,0.732 -3,1.5 -4.98,0.553 -9.98,0.887 -15,1 -13.99,0.93 -27.99,1.096 -42,0.5 -12.96,-2.592 -25.96,-4.925 -39,-7 -6.54,-2.679 -13.2,-4.846 -20,-6.5 -0.33,0 -0.67,0 -1,0 -4.6,-3.154 -9.6,-5.654 -15,-7.5 -2,-2.439 -2.33,-4.939 -1,-7.5 z"
         id="path585" />
    </g>
    <g
       id="g589"
       style="clip-rule:evenodd;fill-rule:evenodd;image-rendering:optimizeQuality;shape-rendering:geometricPrecision;text-rendering:geometricPrecision"
       transform="matrix(0.34061576,0,0,0.34061576,-362.82207,-141.40821)">
      <path
         style="opacity:1"
         fill="#f8e3e0"
         d="m 1151.5,653.5 c 2.31,0.493 4.64,0.826 7,1 2.01,1.424 4.35,2.09 7,2 8.04,1.036 16.04,2.036 24,3 10.15,0.994 20.49,1.328 31,1 -19.28,1.695 -38.61,0.862 -58,-2.5 -3.84,-1.361 -7.51,-2.861 -11,-4.5 z"
         id="path589" />
    </g>
    <g
       id="g591"
       style="clip-rule:evenodd;fill-rule:evenodd;image-rendering:optimizeQuality;shape-rendering:geometricPrecision;text-rendering:geometricPrecision"
       transform="matrix(0.34061576,0,0,0.34061576,-362.82207,-141.40821)">
      <path
         style="opacity:1"
         fill="#f1c4c1"
         d="m 1242.5,656.5 c 0.67,0 1.33,0 2,0 -7.81,1.854 -15.81,3.188 -24,4 -10.51,0.328 -20.85,-0.006 -31,-1 12.88,0.424 25.55,-0.243 38,-2 5.02,-0.113 10.02,-0.447 15,-1 z"
         id="path591" />
    </g>
  </g>
</svg>
