<?xml version="1.0" encoding="UTF-8" standalone="no"?>
<!-- Created with Inkscape (http://www.inkscape.org/) -->

<svg
   width="96mm"
   height="96mm"
   viewBox="0 0 96 96"
   version="1.1"
   id="svg1"
   inkscape:version="1.4.2 (ebf0e940, 2025-05-08)"
   sodipodi:docname="helicopter.svg"
   xmlns:inkscape="http://www.inkscape.org/namespaces/inkscape"
   xmlns:sodipodi="http://sodipodi.sourceforge.net/DTD/sodipodi-0.dtd"
   xmlns="http://www.w3.org/2000/svg"
   xmlns:svg="http://www.w3.org/2000/svg">
  <sodipodi:namedview
     id="namedview1"
     pagecolor="#ffffff"
     bordercolor="#000000"
     borderopacity="0.25"
     inkscape:showpageshadow="2"
     inkscape:pageopacity="0.0"
     inkscape:pagecheckerboard="0"
     inkscape:deskcolor="#d1d1d1"
     inkscape:document-units="mm"
     inkscape:zoom="0.80444024"
     inkscape:cx="397.17059"
     inkscape:cy="362.36377"
     inkscape:window-width="1920"
     inkscape:window-height="1052"
     inkscape:window-x="0"
     inkscape:window-y="28"
     inkscape:window-maximized="0"
     inkscape:current-layer="layer1" />
  <defs
     id="defs1" />
  <g
     inkscape:label="Layer 1"
     inkscape:groupmode="layer"
     id="layer1">
    <g
       id="g159"
       style="clip-rule:evenodd;fill-rule:evenodd;image-rendering:optimizeQuality;shape-rendering:geometricPrecision;text-rendering:geometricPrecision"
       transform="matrix(0.26458333,0,0,0.26458333,-287.34808,-102.91598)">
      <path
         style="opacity:1"
         fill="#893834"
         d="m 1295.5,489.5 c -2.39,-11.418 -3.89,-23.085 -4.5,-35 -0.79,-2.971 -1.46,-5.971 -2,-9 -1.69,-3.841 -3.52,-7.507 -5.5,-11 -6.02,-13.683 -15.69,-17.183 -29,-10.5 -4.06,4.667 -7.73,9.501 -11,14.5 3.91,-13.764 12.91,-20.264 27,-19.5 10.2,5.55 16.7,14.05 19.5,25.5 3.94,14.735 5.77,29.735 5.5,45 z"
         id="path159" />
    </g>
    <g
       id="g166"
       style="clip-rule:evenodd;fill-rule:evenodd;image-rendering:optimizeQuality;shape-rendering:geometricPrecision;text-rendering:geometricPrecision"
       transform="matrix(0.26458333,0,0,0.26458333,-287.34808,-102.91598)">
      <path
         style="opacity:1"
         fill="#aa221d"
         d="m 1283.5,434.5 c 0,1.333 0,2.667 0,4 -2.69,-4.843 -6.03,-9.343 -10,-13.5 -5.91,-2.309 -11.58,-1.975 -17,1 -4.08,4.829 -7.42,10.162 -10,16 2.42,-0.025 4.75,-0.691 7,-2 2.67,-0.667 5.33,-0.667 8,0 1.13,3.744 1.29,7.577 0.5,11.5 -6.03,2.343 -12.19,4.51 -18.5,6.5 -1.43,2.659 -2.43,5.492 -3,8.5 0.35,1.196 0.85,1.196 1.5,0 0.69,-2.908 1.86,-5.575 3.5,-8 5.56,-1.808 11.23,-3.141 17,-4 0.17,4.014 0,8.014 -0.5,12 -0.5,0.5 -1,1 -1.5,1.5 -5.67,0.787 -11.34,1.62 -17,2.5 -1.49,0.209 -2.66,0.876 -3.5,2 -0.5,14.329 -0.67,28.663 -0.5,43 -0.33,0 -0.67,0 -1,0 -0.23,-17.479 -0.23,-34.812 0,-52 1.77,-8.315 3.44,-16.649 5,-25 3.27,-4.999 6.94,-9.833 11,-14.5 13.31,-6.683 22.98,-3.183 29,10.5 z"
         id="path166" />
    </g>
    <g
       id="g167"
       style="clip-rule:evenodd;fill-rule:evenodd;image-rendering:optimizeQuality;shape-rendering:geometricPrecision;text-rendering:geometricPrecision"
       transform="matrix(0.26458333,0,0,0.26458333,-287.34808,-102.91598)">
      <path
         style="opacity:1"
         fill="#c7322a"
         d="m 1256.5,441.5 c 1.33,0 2.67,0 4,0 0.32,3.072 -0.02,6.072 -1,9 -5.07,1.469 -10.07,3.136 -15,5 -1.26,-3.222 -0.76,-6.222 1.5,-9 3.15,-2.659 6.65,-4.326 10.5,-5 z"
         id="path167" />
    </g>
    <g
       id="g168"
       style="clip-rule:evenodd;fill-rule:evenodd;image-rendering:optimizeQuality;shape-rendering:geometricPrecision;text-rendering:geometricPrecision"
       transform="matrix(0.26458333,0,0,0.26458333,-287.34808,-102.91598)">
      <path
         style="opacity:1"
         fill="#853f3a"
         d="m 1219.5,467.5 c 1.67,-6.486 -0.67,-9.319 -7,-8.5 -1.54,1.11 -2.2,2.61 -2,4.5 -0.64,1.576 -1.64,2.91 -3,4 0.1,-5.211 2.43,-8.878 7,-11 6.95,1.55 8.61,5.216 5,11 z"
         id="path168" />
    </g>
    <g
       id="g169"
       style="clip-rule:evenodd;fill-rule:evenodd;image-rendering:optimizeQuality;shape-rendering:geometricPrecision;text-rendering:geometricPrecision"
       transform="matrix(0.26458333,0,0,0.26458333,-287.34808,-102.91598)">
      <path
         style="opacity:1"
         fill="#832e29"
         d="m 1243.5,438.5 c -1.56,8.351 -3.23,16.685 -5,25 -1.13,5.982 -2.13,11.982 -3,18 0,-1.667 0,-3.333 0,-5 0.26,-13.297 2.92,-25.964 8,-38 z"
         id="path169" />
    </g>
    <g
       id="g170"
       style="clip-rule:evenodd;fill-rule:evenodd;image-rendering:optimizeQuality;shape-rendering:geometricPrecision;text-rendering:geometricPrecision"
       transform="matrix(0.26458333,0,0,0.26458333,-287.34808,-102.91598)">
      <path
         style="opacity:1"
         fill="#b62621"
         d="m 1283.5,438.5 c 0.62,0.111 1.12,0.444 1.5,1 2.6,10.6 4.43,21.267 5.5,32 -6.61,-1.208 -13.28,-2.375 -20,-3.5 -0.54,-0.717 -1.21,-1.217 -2,-1.5 0,-4 0,-8 0,-12 5.79,1.031 11.46,2.531 17,4.5 1.43,2.713 2.59,5.546 3.5,8.5 1.18,-3.774 0.35,-6.941 -2.5,-9.5 -6.04,-1.794 -11.87,-3.961 -17.5,-6.5 -0.79,-3.923 -0.63,-7.756 0.5,-11.5 4.7,-0.052 9.37,0.448 14,1.5 0,-1 0,-2 0,-3 z"
         id="path170" />
    </g>
    <g
       id="g171"
       style="clip-rule:evenodd;fill-rule:evenodd;image-rendering:optimizeQuality;shape-rendering:geometricPrecision;text-rendering:geometricPrecision"
       transform="matrix(0.26458333,0,0,0.26458333,-287.34808,-102.91598)">
      <path
         style="opacity:1"
         fill="#9d231f"
         d="m 1283.5,434.5 c 1.98,3.493 3.81,7.159 5.5,11 0.54,3.029 1.21,6.029 2,9 0.61,11.915 2.11,23.582 4.5,35 0.71,1.057 1.04,0.724 1,-1 2.99,-8.492 7.32,-9.159 13,-2 1.69,-0.26 3.19,-0.927 4.5,-2 0.74,-6.602 0.24,-13.102 -1.5,-19.5 -0.31,-5.329 2.03,-6.829 7,-4.5 2.06,3.227 3.73,6.56 5,10 0.8,7.254 1.3,14.588 1.5,22 4.73,-4.562 9.23,-9.229 13.5,-14 8.08,-6.573 15.74,-13.74 23,-21.5 7.84,0.507 11.34,4.674 10.5,12.5 -2.17,1.5 -4,3.333 -5.5,5.5 -0.95,0.483 -1.95,0.649 -3,0.5 2.83,-2.994 5.16,-6.328 7,-10 -0.03,-1.529 -0.7,-2.696 -2,-3.5 -1.71,-1.751 -3.71,-2.418 -6,-2 -13.2,13.7 -26.53,27.2 -40,40.5 -1.55,-0.321 -2.21,-1.321 -2,-3 0.17,-10.006 0,-20.006 -0.5,-30 -0.26,-4.24 -2.42,-6.24 -6.5,-6 1.64,8.262 2.14,16.595 1.5,25 -3.27,1.442 -6.1,3.442 -8.5,6 -2.26,-2.594 -3.6,-5.594 -4,-9 -1,0 -2,0 -3,0 0,1 0,2 0,3 -0.45,3.337 -2.28,5.67 -5.5,7 -0.12,2.227 -0.95,4.06 -2.5,5.5 3.26,0.455 5.59,2.121 7,5 -1.86,2.598 -1.86,5.432 0,8.5 5.51,3.974 5.01,6.974 -1.5,9 -5.19,-3.42 -6.69,-8.087 -4.5,-14 -0.46,-0.798 -1.12,-1.131 -2,-1 0.14,-11.685 -0.2,-23.352 -1,-35 -1.07,-10.733 -2.9,-21.4 -5.5,-32 -0.38,-0.556 -0.88,-0.889 -1.5,-1 0,-1.333 0,-2.667 0,-4 z"
         id="path171" />
    </g>
    <g
       id="g172"
       style="clip-rule:evenodd;fill-rule:evenodd;image-rendering:optimizeQuality;shape-rendering:geometricPrecision;text-rendering:geometricPrecision"
       transform="matrix(0.26458333,0,0,0.26458333,-287.34808,-102.91598)">
      <path
         style="opacity:1"
         fill="#893a35"
         d="m 1324.5,470.5 c -1.27,-3.44 -2.94,-6.773 -5,-10 -4.97,-2.329 -7.31,-0.829 -7,4.5 1.74,6.398 2.24,12.898 1.5,19.5 -1.31,1.073 -2.81,1.74 -4.5,2 -5.68,-7.159 -10.01,-6.492 -13,2 -0.79,-6.306 1.87,-9.139 8,-8.5 1.85,1.684 3.52,3.517 5,5.5 0.67,-0.333 1.33,-0.667 2,-1 1.28,-6.899 0.94,-13.732 -1,-20.5 1.41,-6.693 5.07,-8.193 11,-4.5 1.62,3.514 2.62,7.181 3,11 z"
         id="path172" />
    </g>
    <g
       id="g174"
       style="clip-rule:evenodd;fill-rule:evenodd;image-rendering:optimizeQuality;shape-rendering:geometricPrecision;text-rendering:geometricPrecision"
       transform="matrix(0.26458333,0,0,0.26458333,-287.34808,-102.91598)">
      <path
         style="opacity:1"
         fill="#da3730"
         d="m 1268.5,466.5 c -0.11,0.617 -0.44,1.117 -1,1.5 1.15,0.645 2.15,1.478 3,2.5 0.59,-0.209 1.09,-0.543 1.5,-1 2.86,1.678 6.02,2.678 9.5,3 3.89,-2.063 6.55,-0.73 8,4 -0.05,10.321 -0.38,20.821 -1,31.5 0.6,3.181 1.27,6.347 2,9.5 -0.11,0.942 -0.44,1.775 -1,2.5 2.35,1.688 2.51,3.522 0.5,5.5 -0.33,-0.333 -0.67,-0.667 -1,-1 0.13,4.743 -2.04,7.409 -6.5,8 0.5,-4.672 0.67,-9.339 0.5,-14 -2.24,-4.025 -5.4,-7.025 -9.5,-9 -0.12,-1.086 -0.79,-1.753 -2,-2 -5.06,-1.427 -10.06,-1.26 -15,0.5 -2.62,3.412 -5.12,6.912 -7.5,10.5 -0.77,4.39 -0.61,8.723 0.5,13 -1.17,1.897 -2.83,2.064 -5,0.5 -2.67,-3.333 -5.33,-6.667 -8,-10 1.32,-0.816 1.99,-1.983 2,-3.5 0,-1 0,-2 0,-3 0.33,0 0.67,0 1,0 2.06,-3.272 2.39,-6.772 1,-10.5 0.67,-1 1.33,-2 2,-3 -0.12,-6.552 -0.45,-13.385 -1,-20.5 0.32,-1.147 0.98,-1.981 2,-2.5 -0.81,-0.308 -1.47,-0.808 -2,-1.5 1.21,-1.22 1.21,-2.387 0,-3.5 1.79,-2.054 3.79,-2.554 6,-1.5 1.53,-0.029 2.7,-0.696 3.5,-2 3.44,0.223 7.28,0.223 11.5,0 0,-1 0,-2 0,-3 1.62,0.14 2.79,-0.527 3.5,-2 0.67,0.752 1.5,1.086 2.5,1 z"
         id="path174" />
    </g>
    <g
       id="g175"
       style="clip-rule:evenodd;fill-rule:evenodd;image-rendering:optimizeQuality;shape-rendering:geometricPrecision;text-rendering:geometricPrecision"
       transform="matrix(0.26458333,0,0,0.26458333,-287.34808,-102.91598)">
      <path
         style="opacity:1"
         fill="#d43932"
         d="m 1283.5,438.5 c 0,1 0,2 0,3 -4.63,-1.052 -9.3,-1.552 -14,-1.5 -1.13,3.744 -1.29,7.577 -0.5,11.5 5.63,2.539 11.46,4.706 17.5,6.5 2.85,2.559 3.68,5.726 2.5,9.5 -0.91,-2.954 -2.07,-5.787 -3.5,-8.5 -5.54,-1.969 -11.21,-3.469 -17,-4.5 0,4 0,8 0,12 -1,0.086 -1.83,-0.248 -2.5,-1 -0.71,1.473 -1.88,2.14 -3.5,2 0,1 0,2 0,3 -4.22,0.223 -8.06,0.223 -11.5,0 -0.8,1.304 -1.97,1.971 -3.5,2 -2.21,-1.054 -4.21,-0.554 -6,1.5 1.21,1.113 1.21,2.28 0,3.5 0.53,0.692 1.19,1.192 2,1.5 -1.02,0.519 -1.68,1.353 -2,2.5 0.55,7.115 0.88,13.948 1,20.5 -0.67,1 -1.33,2 -2,3 1.39,3.728 1.06,7.228 -1,10.5 -0.17,-14.337 0,-28.671 0.5,-43 0.84,-1.124 2.01,-1.791 3.5,-2 5.66,-0.88 11.33,-1.713 17,-2.5 0.5,-0.5 1,-1 1.5,-1.5 0.5,-3.986 0.67,-7.986 0.5,-12 -5.77,0.859 -11.44,2.192 -17,4 -1.64,2.425 -2.81,5.092 -3.5,8 -0.65,1.196 -1.15,1.196 -1.5,0 0.57,-3.008 1.57,-5.841 3,-8.5 6.31,-1.99 12.47,-4.157 18.5,-6.5 0.79,-3.923 0.63,-7.756 -0.5,-11.5 -2.67,-0.667 -5.33,-0.667 -8,0 -2.25,1.309 -4.58,1.975 -7,2 2.58,-5.838 5.92,-11.171 10,-16 5.42,-2.975 11.09,-3.309 17,-1 3.97,4.157 7.31,8.657 10,13.5 z"
         id="path175" />
    </g>
    <g
       id="g176"
       style="clip-rule:evenodd;fill-rule:evenodd;image-rendering:optimizeQuality;shape-rendering:geometricPrecision;text-rendering:geometricPrecision"
       transform="matrix(0.26458333,0,0,0.26458333,-287.34808,-102.91598)">
      <path
         style="opacity:1"
         fill="#cd342f"
         d="m 1321.5,497.5 c -1.38,1.074 -2.55,2.407 -3.5,4 -0.5,-3.317 -0.67,-6.65 -0.5,-10 -3.19,1.165 -6.19,2.831 -9,5 -0.93,-1.189 -1.26,-2.522 -1,-4 2.4,-2.558 5.23,-4.558 8.5,-6 0.64,-8.405 0.14,-16.738 -1.5,-25 4.08,-0.24 6.24,1.76 6.5,6 0.5,9.994 0.67,19.994 0.5,30 z"
         id="path176" />
    </g>
    <g
       id="g178"
       style="clip-rule:evenodd;fill-rule:evenodd;image-rendering:optimizeQuality;shape-rendering:geometricPrecision;text-rendering:geometricPrecision"
       transform="matrix(0.26458333,0,0,0.26458333,-287.34808,-102.91598)">
      <path
         style="opacity:1"
         fill="#8f2b25"
         d="m 1204.5,492.5 c 0.06,0.543 0.39,0.876 1,1 1,-7.303 1.33,-14.637 1,-22 0.33,-1.333 0.67,-2.667 1,-4 1.36,-1.09 2.36,-2.424 3,-4 -1.83,10.7 -3.33,21.367 -4.5,32 -6.46,-4.124 -11.96,-9.29 -16.5,-15.5 -0.59,-0.464 -1.26,-0.631 -2,-0.5 -2.33,-1.667 -4.33,-3.667 -6,-6 -2.48,-4.071 -5.15,-8.071 -8,-12 -3.46,-3.66 -7.46,-4.493 -12,-2.5 -2.09,1.255 -3.09,3.088 -3,5.5 0.6,4.521 2.27,8.521 5,12 -9.65,-5.716 -10.32,-12.216 -2,-19.5 2.53,-1.422 5.2,-1.755 8,-1 12.18,11.679 23.85,23.846 35,36.5 z"
         id="path178" />
    </g>
    <g
       id="g179"
       style="clip-rule:evenodd;fill-rule:evenodd;image-rendering:optimizeQuality;shape-rendering:geometricPrecision;text-rendering:geometricPrecision"
       transform="matrix(0.26458333,0,0,0.26458333,-287.34808,-102.91598)">
      <path
         style="opacity:1"
         fill="#b0615f"
         d="m 1206.5,471.5 c 0.33,7.363 0,14.697 -1,22 -0.61,-0.124 -0.94,-0.457 -1,-1 0.67,-7 1.33,-14 2,-21 z"
         id="path179" />
    </g>
    <g
       id="g180"
       style="clip-rule:evenodd;fill-rule:evenodd;image-rendering:optimizeQuality;shape-rendering:geometricPrecision;text-rendering:geometricPrecision"
       transform="matrix(0.26458333,0,0,0.26458333,-287.34808,-102.91598)">
      <path
         style="opacity:1"
         fill="#a82620"
         d="m 1181.5,473.5 c -5.03,-4.531 -9.86,-9.198 -14.5,-14 -3.72,0.891 -5.89,3.224 -6.5,7 2.28,3.615 4.94,6.948 8,10 -1.67,0 -3.33,0 -5,0 -2.73,-3.479 -4.4,-7.479 -5,-12 -0.09,-2.412 0.91,-4.245 3,-5.5 4.54,-1.993 8.54,-1.16 12,2.5 2.85,3.929 5.52,7.929 8,12 z"
         id="path180" />
    </g>
    <g
       id="g181"
       style="clip-rule:evenodd;fill-rule:evenodd;image-rendering:optimizeQuality;shape-rendering:geometricPrecision;text-rendering:geometricPrecision"
       transform="matrix(0.26458333,0,0,0.26458333,-287.34808,-102.91598)">
      <path
         style="opacity:1"
         fill="#87322c"
         d="m 1333.5,512.5 c 0,-1.333 0,-2.667 0,-4 2.68,-2.326 5.68,-4.326 9,-6 -0.15,-1.052 0.02,-2.052 0.5,-3 7.26,-6.667 14.26,-13.667 21,-21 0.48,-0.948 0.65,-1.948 0.5,-3 1.05,0.149 2.05,-0.017 3,-0.5 1.5,-2.167 3.33,-4 5.5,-5.5 0.84,-7.826 -2.66,-11.993 -10.5,-12.5 -7.26,7.76 -14.92,14.927 -23,21.5 7.13,-7.632 14.46,-15.132 22,-22.5 2.33,-0.667 4.67,-0.667 7,0 2.17,2.167 4.33,4.333 6.5,6.5 0.67,2.333 0.67,4.667 0,7 -13.7,14.532 -27.53,28.866 -41.5,43 z"
         id="path181" />
    </g>
    <g
       id="g182"
       style="clip-rule:evenodd;fill-rule:evenodd;image-rendering:optimizeQuality;shape-rendering:geometricPrecision;text-rendering:geometricPrecision"
       transform="matrix(0.26458333,0,0,0.26458333,-287.34808,-102.91598)">
      <path
         style="opacity:1"
         fill="#9f221d"
         d="m 1219.5,467.5 c -1.64,5.22 -2.14,10.553 -1.5,16 0.74,1.074 1.74,1.741 3,2 1.52,-1.197 2.69,-2.697 3.5,-4.5 3.94,-2.433 6.94,-1.6 9,2.5 -0.16,2.027 0,4.027 0.5,6 1.08,-2.563 1.58,-5.229 1.5,-8 0.87,-6.018 1.87,-12.018 3,-18 -0.23,17.188 -0.23,34.521 0,52 0,1 0,2 0,3 -3.89,2.864 -3.89,5.864 0,9 -1.21,0.734 -2.54,1.067 -4,1 -16.68,-15.344 -32.34,-31.677 -47,-49 0.74,-0.131 1.41,0.036 2,0.5 4.54,6.21 10.04,11.376 16.5,15.5 1.17,-10.633 2.67,-21.3 4.5,-32 -0.2,-1.89 0.46,-3.39 2,-4.5 6.33,-0.819 8.67,2.014 7,8.5 z"
         id="path182" />
    </g>
    <g
       id="g183"
       style="clip-rule:evenodd;fill-rule:evenodd;image-rendering:optimizeQuality;shape-rendering:geometricPrecision;text-rendering:geometricPrecision"
       transform="matrix(0.26458333,0,0,0.26458333,-287.34808,-102.91598)">
      <path
         style="opacity:1"
         fill="#c66c6b"
         d="m 1235.5,476.5 c 0,1.667 0,3.333 0,5 0.08,2.771 -0.42,5.437 -1.5,8 -0.5,-1.973 -0.66,-3.973 -0.5,-6 0.67,-2.333 1.33,-4.667 2,-7 z"
         id="path183" />
    </g>
    <g
       id="g184"
       style="clip-rule:evenodd;fill-rule:evenodd;image-rendering:optimizeQuality;shape-rendering:geometricPrecision;text-rendering:geometricPrecision"
       transform="matrix(0.26458333,0,0,0.26458333,-287.34808,-102.91598)">
      <path
         style="opacity:1"
         fill="#d03a33"
         d="m 1213.5,461.5 c 2.13,-0.353 3.47,0.48 4,2.5 -2.82,7.26 -3.65,14.76 -2.5,22.5 3,1.839 5.5,4.173 7.5,7 -0.33,0.667 -0.67,1.333 -1,2 -2,-1.333 -4,-2.667 -6,-4 -0.67,3.333 -1.33,6.667 -2,10 -0.98,-1.481 -2.15,-2.815 -3.5,-4 -0.67,-7.667 -0.67,-15.333 0,-23 0.6,-4.536 1.77,-8.87 3.5,-13 z"
         id="path184" />
    </g>
    <g
       id="g185"
       style="clip-rule:evenodd;fill-rule:evenodd;image-rendering:optimizeQuality;shape-rendering:geometricPrecision;text-rendering:geometricPrecision"
       transform="matrix(0.26458333,0,0,0.26458333,-287.34808,-102.91598)">
      <path
         style="opacity:1"
         fill="#992922"
         d="m 1163.5,476.5 c 1.67,0 3.33,0 5,0 10.7,10.698 21.03,21.698 31,33 0.87,2.386 2.37,4.386 4.5,6 0.61,1.654 1.11,3.321 1.5,5 -14.36,-14.364 -28.36,-29.03 -42,-44 z"
         id="path185" />
    </g>
    <g
       id="g186"
       style="clip-rule:evenodd;fill-rule:evenodd;image-rendering:optimizeQuality;shape-rendering:geometricPrecision;text-rendering:geometricPrecision"
       transform="matrix(0.26458333,0,0,0.26458333,-287.34808,-102.91598)">
      <path
         style="opacity:1"
         fill="#f9e6e5"
         d="m 1219.5,499.5 c 1,0.333 1.67,1 2,2 0.16,2.687 0,5.354 -0.5,8 -2.63,-3.076 -3.13,-6.409 -1.5,-10 z"
         id="path186" />
    </g>
    <g
       id="g187"
       style="clip-rule:evenodd;fill-rule:evenodd;image-rendering:optimizeQuality;shape-rendering:geometricPrecision;text-rendering:geometricPrecision"
       transform="matrix(0.26458333,0,0,0.26458333,-287.34808,-102.91598)">
      <path
         style="opacity:1"
         fill="#d13a35"
         d="m 1226.5,484.5 c 1,0 2,0 3,0 0.33,9.357 0,18.69 -1,28 -0.59,-0.209 -1.09,-0.543 -1.5,-1 -0.5,-8.994 -0.67,-17.994 -0.5,-27 z"
         id="path187" />
    </g>
    <g
       id="g188"
       style="clip-rule:evenodd;fill-rule:evenodd;image-rendering:optimizeQuality;shape-rendering:geometricPrecision;text-rendering:geometricPrecision"
       transform="matrix(0.26458333,0,0,0.26458333,-287.34808,-102.91598)">
      <path
         style="opacity:1"
         fill="#d54039"
         d="m 1303.5,483.5 c 0,9.333 0,18.667 0,28 -1,0 -2,0 -3,0 0,-8.333 0,-16.667 0,-25 0,-1 0,-2 0,-3 1,0 2,0 3,0 z"
         id="path188" />
    </g>
    <g
       id="g190"
       style="clip-rule:evenodd;fill-rule:evenodd;image-rendering:optimizeQuality;shape-rendering:geometricPrecision;text-rendering:geometricPrecision"
       transform="matrix(0.26458333,0,0,0.26458333,-287.34808,-102.91598)">
      <path
         style="opacity:1"
         fill="#b05f5a"
         d="m 1219.5,499.5 c -1.63,3.591 -1.13,6.924 1.5,10 0.5,-2.646 0.66,-5.313 0.5,-8 0.98,2.787 1.31,5.787 1,9 -4.29,-0.309 -5.96,-2.642 -5,-7 0.33,-1.667 0.67,-3.333 1,-5 0.61,0.124 0.94,0.457 1,1 z"
         id="path190" />
    </g>
    <g
       id="g191"
       style="clip-rule:evenodd;fill-rule:evenodd;image-rendering:optimizeQuality;shape-rendering:geometricPrecision;text-rendering:geometricPrecision"
       transform="matrix(0.26458333,0,0,0.26458333,-287.34808,-102.91598)">
      <path
         style="opacity:1"
         fill="#d63932"
         d="m 1181.5,473.5 c 1.67,2.333 3.67,4.333 6,6 14.66,17.323 30.32,33.656 47,49 4.9,6.409 10.4,12.409 16.5,18 2.43,3.867 4.6,7.867 6.5,12 0.04,1.256 -0.46,2.256 -1.5,3 -3.71,-1.436 -7.21,-3.269 -10.5,-5.5 -4.87,-5.037 -9.87,-9.87 -15,-14.5 -9.86,-11.009 -20.2,-21.676 -31,-32 -9.97,-11.302 -20.3,-22.302 -31,-33 -3.06,-3.052 -5.72,-6.385 -8,-10 0.61,-3.776 2.78,-6.109 6.5,-7 4.64,4.802 9.47,9.469 14.5,14 z"
         id="path191" />
    </g>
    <g
       id="g193"
       style="clip-rule:evenodd;fill-rule:evenodd;image-rendering:optimizeQuality;shape-rendering:geometricPrecision;text-rendering:geometricPrecision"
       transform="matrix(0.26458333,0,0,0.26458333,-287.34808,-102.91598)">
      <path
         style="opacity:1"
         fill="#f7c7c5"
         d="m 1233.5,511.5 c 1.32,3.098 0.48,5.765 -2.5,8 -0.83,-0.833 -1.67,-1.667 -2.5,-2.5 3.21,-0.572 4.87,-2.405 5,-5.5 z"
         id="path193" />
    </g>
    <g
       id="g198"
       style="clip-rule:evenodd;fill-rule:evenodd;image-rendering:optimizeQuality;shape-rendering:geometricPrecision;text-rendering:geometricPrecision"
       transform="matrix(0.26458333,0,0,0.26458333,-287.34808,-102.91598)">
      <path
         style="opacity:1"
         fill="#942822"
         d="m 1309.5,532.5 c 2.29,-0.256 4.46,0.077 6.5,1 0.67,7.333 0.67,14.667 0,22 0.11,5.106 -0.72,9.773 -2.5,14 0.33,-11.686 0,-23.352 -1,-35 -0.61,0.124 -0.94,0.457 -1,1 -3.96,4.464 -8.13,8.798 -12.5,13 -0.34,3.361 -0.84,6.694 -1.5,10 0.11,0.942 0.44,1.775 1,2.5 3.9,2.751 7.9,5.251 12,7.5 0.33,1 1,1.667 2,2 -0.06,0.543 -0.39,0.876 -1,1 -3.64,-2.405 -7.48,-4.405 -11.5,-6 -2.46,-1.949 -4.3,-4.283 -5.5,-7 0,-1.333 0,-2.667 0,-4 1.23,-4.786 3.23,-9.12 6,-13 2.67,-3.333 5.67,-6.333 9,-9 z"
         id="path198" />
    </g>
    <g
       id="g200"
       style="clip-rule:evenodd;fill-rule:evenodd;image-rendering:optimizeQuality;shape-rendering:geometricPrecision;text-rendering:geometricPrecision"
       transform="matrix(0.26458333,0,0,0.26458333,-287.34808,-102.91598)">
      <path
         style="opacity:1"
         fill="#d73830"
         d="m 1364.5,475.5 c -18.64,18.643 -36.98,37.643 -55,57 -3.33,2.667 -6.33,5.667 -9,9 -5.49,4.991 -10.82,10.158 -16,15.5 -3.06,2.035 -6.39,3.201 -10,3.5 0,-1 0,-2 0,-3 1.9,-4.133 4.07,-8.133 6.5,-12 13.76,-14.484 27.76,-28.817 42,-43 0.46,-0.594 0.63,-1.261 0.5,-2 13.47,-13.3 26.8,-26.8 40,-40.5 2.29,-0.418 4.29,0.249 6,2 1.3,0.804 1.97,1.971 2,3.5 -1.84,3.672 -4.17,7.006 -7,10 z"
         id="path200" />
    </g>
    <g
       id="g202"
       style="clip-rule:evenodd;fill-rule:evenodd;image-rendering:optimizeQuality;shape-rendering:geometricPrecision;text-rendering:geometricPrecision"
       transform="matrix(0.26458333,0,0,0.26458333,-287.34808,-102.91598)">
      <path
         style="opacity:1"
         fill="#ae211b"
         d="m 1303.5,483.5 c 0.4,3.406 1.74,6.406 4,9 -0.26,1.478 0.07,2.811 1,4 2.81,-2.169 5.81,-3.835 9,-5 -0.17,3.35 0,6.683 0.5,10 0.95,-1.593 2.12,-2.926 3.5,-4 -0.21,1.679 0.45,2.679 2,3 0.13,0.739 -0.04,1.406 -0.5,2 -14.24,14.183 -28.24,28.516 -42,43 -2.43,3.867 -4.6,7.867 -6.5,12 -5.08,0.169 -10.24,-0.164 -15.5,-1 -0.28,0.916 -0.78,1.582 -1.5,2 -1.9,-4.133 -4.07,-8.133 -6.5,-12 -6.1,-5.591 -11.6,-11.591 -16.5,-18 1.46,0.067 2.79,-0.266 4,-1 4.94,5.438 10.1,10.771 15.5,16 2.88,3.918 5.38,8.085 7.5,12.5 3,0.667 6,0.667 9,0 6.23,-11.908 14.39,-22.408 24.5,-31.5 -0.34,-2.755 -1.34,-5.422 -3,-8 -0.5,-3.317 -0.67,-6.65 -0.5,-10 0.88,-0.131 1.54,0.202 2,1 -2.19,5.913 -0.69,10.58 4.5,14 6.51,-2.026 7.01,-5.026 1.5,-9 -1.86,-3.068 -1.86,-5.902 0,-8.5 -1.41,-2.879 -3.74,-4.545 -7,-5 1.55,-1.44 2.38,-3.273 2.5,-5.5 3.22,-1.33 5.05,-3.663 5.5,-7 0,8.333 0,16.667 0,25 1,0 2,0 3,0 0,-9.333 0,-18.667 0,-28 z"
         id="path202" />
    </g>
    <g
       id="g203"
       style="clip-rule:evenodd;fill-rule:evenodd;image-rendering:optimizeQuality;shape-rendering:geometricPrecision;text-rendering:geometricPrecision"
       transform="matrix(0.26458333,0,0,0.26458333,-287.34808,-102.91598)">
      <path
         style="opacity:1"
         fill="#f5c3be"
         d="m 1295.5,511.5 c 1.57,2.728 3.9,4.562 7,5.5 -1.69,2.952 -3.53,3.118 -5.5,0.5 -1.13,-1.845 -1.63,-3.845 -1.5,-6 z"
         id="path203" />
    </g>
    <g
       id="g204"
       style="clip-rule:evenodd;fill-rule:evenodd;image-rendering:optimizeQuality;shape-rendering:geometricPrecision;text-rendering:geometricPrecision"
       transform="matrix(0.26458333,0,0,0.26458333,-287.34808,-102.91598)">
      <path
         style="opacity:1"
         fill="#982824"
         d="m 1311.5,498.5 c -0.67,1.333 -1.67,2.333 -3,3 -1.3,2.855 -1.3,5.855 0,9 0.61,-0.124 0.94,-0.457 1,-1 1.19,-0.864 2.35,-1.864 3.5,-3 0.5,-2.646 0.66,-5.313 0.5,-8 2.75,6.905 0.59,12.238 -6.5,16 -1.28,-0.113 -2.11,-0.78 -2.5,-2 0.77,-3.945 1.27,-7.945 1.5,-12 1.58,-1.361 3.42,-2.028 5.5,-2 z"
         id="path204" />
    </g>
    <g
       id="g205"
       style="clip-rule:evenodd;fill-rule:evenodd;image-rendering:optimizeQuality;shape-rendering:geometricPrecision;text-rendering:geometricPrecision"
       transform="matrix(0.26458333,0,0,0.26458333,-287.34808,-102.91598)">
      <path
         style="opacity:1"
         fill="#bf7c7b"
         d="m 1308.5,501.5 c -0.31,2.885 0.03,5.552 1,8 -0.06,0.543 -0.39,0.876 -1,1 -1.3,-3.145 -1.3,-6.145 0,-9 z"
         id="path205" />
    </g>
    <g
       id="g206"
       style="clip-rule:evenodd;fill-rule:evenodd;image-rendering:optimizeQuality;shape-rendering:geometricPrecision;text-rendering:geometricPrecision"
       transform="matrix(0.26458333,0,0,0.26458333,-287.34808,-102.91598)">
      <path
         style="opacity:1"
         fill="#f6dfdc"
         d="m 1311.5,498.5 c 0.67,0 1.33,0 2,0 0.16,2.687 0,5.354 -0.5,8 -1.15,1.136 -2.31,2.136 -3.5,3 -0.97,-2.448 -1.31,-5.115 -1,-8 1.33,-0.667 2.33,-1.667 3,-3 z"
         id="path206" />
    </g>
    <g
       id="g207"
       style="clip-rule:evenodd;fill-rule:evenodd;image-rendering:optimizeQuality;shape-rendering:geometricPrecision;text-rendering:geometricPrecision"
       transform="matrix(0.26458333,0,0,0.26458333,-287.34808,-102.91598)">
      <path
         style="opacity:1"
         fill="#f8e7e6"
         d="m 1218.5,535.5 c 3.67,3.333 7.33,6.667 11,10 2.49,2.579 3.49,5.746 3,9.5 -0.17,2.167 -0.33,4.333 -0.5,6.5 -0.38,0.556 -0.88,0.889 -1.5,1 0.43,-5.57 -0.24,-10.904 -2,-16 -3.14,-1.786 -5.81,-1.286 -8,1.5 0.33,0.333 0.67,0.667 1,1 -0.67,1.667 -1.33,3.333 -2,5 -0.19,4.005 0.14,8.171 1,12.5 1.57,-0.809 3.24,-1.143 5,-1 -1.7,1.692 -3.7,3.025 -6,4 -0.99,-11.154 -1.33,-22.488 -1,-34 z"
         id="path207" />
    </g>
    <g
       id="g208"
       style="clip-rule:evenodd;fill-rule:evenodd;image-rendering:optimizeQuality;shape-rendering:geometricPrecision;text-rendering:geometricPrecision"
       transform="matrix(0.26458333,0,0,0.26458333,-287.34808,-102.91598)">
      <path
         style="opacity:1"
         fill="#f9f3f2"
         d="m 1311.5,535.5 c 0.67,5.323 1,10.823 1,16.5 0,5.876 -0.67,11.376 -2,16.5 -4.1,-2.249 -8.1,-4.749 -12,-7.5 -0.56,-0.725 -0.89,-1.558 -1,-2.5 0.66,-3.306 1.16,-6.639 1.5,-10 4.37,-4.202 8.54,-8.536 12.5,-13 z"
         id="path208" />
    </g>
    <g
       id="g209"
       style="clip-rule:evenodd;fill-rule:evenodd;image-rendering:optimizeQuality;shape-rendering:geometricPrecision;text-rendering:geometricPrecision"
       transform="matrix(0.26458333,0,0,0.26458333,-287.34808,-102.91598)">
      <path
         style="opacity:1"
         fill="#d43e36"
         d="m 1268.5,466.5 c 0.79,0.283 1.46,0.783 2,1.5 6.72,1.125 13.39,2.292 20,3.5 0.8,11.648 1.14,23.315 1,35 -0.17,3.35 0,6.683 0.5,10 1.66,2.578 2.66,5.245 3,8 -10.11,9.092 -18.27,19.592 -24.5,31.5 -3,0.667 -6,0.667 -9,0 -2.12,-4.415 -4.62,-8.582 -7.5,-12.5 -5.4,-5.229 -10.56,-10.562 -15.5,-16 -3.89,-3.136 -3.89,-6.136 0,-9 -0.01,1.517 -0.68,2.684 -2,3.5 2.67,3.333 5.33,6.667 8,10 2.17,1.564 3.83,1.397 5,-0.5 -1.11,-4.277 -1.27,-8.61 -0.5,-13 2.38,-3.588 4.88,-7.088 7.5,-10.5 4.94,-1.76 9.94,-1.927 15,-0.5 1.21,0.247 1.88,0.914 2,2 4.1,1.975 7.26,4.975 9.5,9 0.17,4.661 0,9.328 -0.5,14 4.46,-0.591 6.63,-3.257 6.5,-8 0.33,0.333 0.67,0.667 1,1 2.01,-1.978 1.85,-3.812 -0.5,-5.5 0.56,-0.725 0.89,-1.558 1,-2.5 -0.73,-3.153 -1.4,-6.319 -2,-9.5 0.62,-10.679 0.95,-21.179 1,-31.5 -1.45,-4.73 -4.11,-6.063 -8,-4 -3.48,-0.322 -6.64,-1.322 -9.5,-3 -0.41,0.457 -0.91,0.791 -1.5,1 -0.85,-1.022 -1.85,-1.855 -3,-2.5 0.56,-0.383 0.89,-0.883 1,-1.5 z"
         id="path209" />
    </g>
    <g
       id="g210"
       style="clip-rule:evenodd;fill-rule:evenodd;image-rendering:optimizeQuality;shape-rendering:geometricPrecision;text-rendering:geometricPrecision"
       transform="matrix(0.26458333,0,0,0.26458333,-287.34808,-102.91598)">
      <path
         style="opacity:1"
         fill="#8f1e1b"
         d="m 1273.5,509.5 c 3.05,2.89 5.55,6.224 7.5,10 -0.1,12.867 -5.1,23.534 -15,32 -10.43,-8.184 -15.43,-18.851 -15,-32 4.07,-10.718 11.57,-14.051 22.5,-10 z"
         id="path210" />
    </g>
    <g
       id="g211"
       style="clip-rule:evenodd;fill-rule:evenodd;image-rendering:optimizeQuality;shape-rendering:geometricPrecision;text-rendering:geometricPrecision"
       transform="matrix(0.26458333,0,0,0.26458333,-287.34808,-102.91598)">
      <path
         style="opacity:1"
         fill="#ad4443"
         d="m 1261.5,526.5 c 0.99,1.526 2.49,2.193 4.5,2 2.7,0.38 4.54,-0.62 5.5,-3 0.72,-0.418 1.22,-1.084 1.5,-2 0.17,3.313 1.67,5.646 4.5,7 -2.82,6.652 -6.65,12.652 -11.5,18 -6.55,-6.033 -10.72,-13.367 -12.5,-22 0.58,-1.702 1.41,-3.369 2.5,-5 0.67,1.333 1.33,1.333 2,0 0.9,1.931 2.07,3.597 3.5,5 z"
         id="path211" />
    </g>
    <g
       id="g212"
       style="clip-rule:evenodd;fill-rule:evenodd;image-rendering:optimizeQuality;shape-rendering:geometricPrecision;text-rendering:geometricPrecision"
       transform="matrix(0.26458333,0,0,0.26458333,-287.34808,-102.91598)">
      <path
         style="opacity:1"
         fill="#722828"
         d="m 1271.5,525.5 c -0.96,2.38 -2.8,3.38 -5.5,3 -2.01,0.193 -3.51,-0.474 -4.5,-2 -0.67,-2.319 -0.83,-4.653 -0.5,-7 6.71,-3.802 10.21,-1.802 10.5,6 z"
         id="path212" />
    </g>
    <g
       id="g213"
       style="clip-rule:evenodd;fill-rule:evenodd;image-rendering:optimizeQuality;shape-rendering:geometricPrecision;text-rendering:geometricPrecision"
       transform="matrix(0.26458333,0,0,0.26458333,-287.34808,-102.91598)">
      <path
         style="opacity:1"
         fill="#963c3c"
         d="m 1277.5,530.5 c -2.83,-1.354 -4.33,-3.687 -4.5,-7 -0.28,0.916 -0.78,1.582 -1.5,2 -0.29,-7.802 -3.79,-9.802 -10.5,-6 -0.33,2.347 -0.17,4.681 0.5,7 -1.43,-1.403 -2.6,-3.069 -3.5,-5 -0.67,1.333 -1.33,1.333 -2,0 -1.09,1.631 -1.92,3.298 -2.5,5 -1.13,-2.128 -1.3,-4.461 -0.5,-7 6.91,-10.614 14.91,-11.614 24,-3 3,4.638 3.17,9.305 0.5,14 z"
         id="path213" />
    </g>
    <g
       id="g214"
       style="clip-rule:evenodd;fill-rule:evenodd;image-rendering:optimizeQuality;shape-rendering:geometricPrecision;text-rendering:geometricPrecision"
       transform="matrix(0.26458333,0,0,0.26458333,-287.34808,-102.91598)">
      <path
         style="opacity:1"
         fill="#f5e0df"
         d="m 1263.5,519.5 c 5.52,-0.027 6.85,2.14 4,6.5 -4.93,0.427 -6.26,-1.74 -4,-6.5 z"
         id="path214" />
    </g>
    <g
       id="g215"
       style="clip-rule:evenodd;fill-rule:evenodd;image-rendering:optimizeQuality;shape-rendering:geometricPrecision;text-rendering:geometricPrecision"
       transform="matrix(0.26458333,0,0,0.26458333,-287.34808,-102.91598)">
      <path
         style="opacity:1"
         fill="#f9f8f8"
         d="m 1230.5,562.5 c -1.5,1.252 -3.17,2.252 -5,3 -1.76,-0.143 -3.43,0.191 -5,1 -0.86,-4.329 -1.19,-8.495 -1,-12.5 0.67,-1.667 1.33,-3.333 2,-5 -0.33,-0.333 -0.67,-0.667 -1,-1 2.19,-2.786 4.86,-3.286 8,-1.5 1.76,5.096 2.43,10.43 2,16 z"
         id="path215" />
    </g>
    <g
       id="g216"
       style="clip-rule:evenodd;fill-rule:evenodd;image-rendering:optimizeQuality;shape-rendering:geometricPrecision;text-rendering:geometricPrecision"
       transform="matrix(0.26458333,0,0,0.26458333,-287.34808,-102.91598)">
      <path
         style="opacity:1"
         fill="#9a1f1b"
         d="m 1199.5,509.5 c 10.8,10.324 21.14,20.991 31,32 1.95,2.964 3.95,5.964 6,9 -0.6,3.803 -1.27,7.469 -2,11 0.17,-4.346 0,-8.679 -0.5,-13 -1.13,-1.641 -2.63,-2.641 -4.5,-3 -3.67,-3.333 -7.33,-6.667 -11,-10 -0.99,11.154 -1.33,22.488 -1,34 -1,0 -2,0 -3,0 0.17,-13.004 0,-26.004 -0.5,-39 -1.02,-1.187 -2.19,-2.187 -3.5,-3 -1,23.657 -1.33,47.324 -1,71 -1.79,-4.567 -2.62,-9.567 -2.5,-15 -0.17,-21.171 -0.67,-42.171 -1.5,-63 -0.39,-1.679 -0.89,-3.346 -1.5,-5 -2.13,-1.614 -3.63,-3.614 -4.5,-6 z"
         id="path216" />
    </g>
    <g
       id="g218"
       style="clip-rule:evenodd;fill-rule:evenodd;image-rendering:optimizeQuality;shape-rendering:geometricPrecision;text-rendering:geometricPrecision"
       transform="matrix(0.26458333,0,0,0.26458333,-287.34808,-102.91598)">
      <path
         style="opacity:1"
         fill="#b68180"
         d="m 1218.5,535.5 c -0.33,11.512 0.01,22.846 1,34 -0.34,0.838 -1.01,1.172 -2,1 0,-0.333 0,-0.667 0,-1 -0.33,-11.512 0.01,-22.846 1,-34 z"
         id="path218" />
    </g>
    <g
       id="g219"
       style="clip-rule:evenodd;fill-rule:evenodd;image-rendering:optimizeQuality;shape-rendering:geometricPrecision;text-rendering:geometricPrecision"
       transform="matrix(0.26458333,0,0,0.26458333,-287.34808,-102.91598)">
      <path
         style="opacity:1"
         fill="#d23b33"
         d="m 1321.5,598.5 c -1.67,1.333 -3.33,1.333 -5,0 0.17,-4.679 0,-9.345 -0.5,-14 -0.25,-1.124 -0.75,-2.124 -1.5,-3 -6.51,-4.086 -12.84,-8.42 -19,-13 0.5,-1 1,-2 1.5,-3 6.69,4.42 13.52,8.42 20.5,12 0.32,-15.382 -0.02,-30.715 -1,-46 1.04,-2.085 2.54,-3.752 4.5,-5 0.5,23.998 0.67,47.998 0.5,72 z"
         id="path219" />
    </g>
    <g
       id="g221"
       style="clip-rule:evenodd;fill-rule:evenodd;image-rendering:optimizeQuality;shape-rendering:geometricPrecision;text-rendering:geometricPrecision"
       transform="matrix(0.26458333,0,0,0.26458333,-287.34808,-102.91598)">
      <path
         style="opacity:1"
         fill="#a4201c"
         d="m 1364.5,475.5 c 0.15,1.052 -0.02,2.052 -0.5,3 -6.74,7.333 -13.74,14.333 -21,21 -0.48,0.948 -0.65,1.948 -0.5,3 -3.32,1.674 -6.32,3.674 -9,6 0,1.333 0,2.667 0,4 -3.23,2.041 -6.4,4.374 -9.5,7 -0.33,25.667 -0.67,51.333 -1,77 -0.28,0.916 -0.78,1.582 -1.5,2 0.17,-24.002 0,-48.002 -0.5,-72 -1.96,1.248 -3.46,2.915 -4.5,5 0.98,15.285 1.32,30.618 1,46 -6.98,-3.58 -13.81,-7.58 -20.5,-12 -0.5,1 -1,2 -1.5,3 6.16,4.58 12.49,8.914 19,13 0.75,0.876 1.25,1.876 1.5,3 0.5,4.655 0.67,9.321 0.5,14 -0.82,-4.147 -1.32,-8.481 -1.5,-13 -0.82,-1.323 -1.98,-1.989 -3.5,-2 -5.69,-2.934 -11.19,-6.267 -16.5,-10 -1.42,1.836 -2.59,3.836 -3.5,6 1.69,2.019 3.36,4.019 5,6 3.26,4.44 6.76,8.773 10.5,13 1.45,1.964 3.28,3.297 5.5,4 2.56,4.07 5.73,7.736 9.5,11 1.12,1.907 1.96,3.907 2.5,6 -11.77,-12.272 -23.77,-24.438 -36,-36.5 -4.48,-3.571 -9.48,-6.071 -15,-7.5 1.35,5.025 3.51,9.692 6.5,14 16.67,18.171 33.51,36.171 50.5,54 -1.97,-0.941 -3.97,-1.941 -6,-3 -2.43,-4.771 -6.1,-8.104 -11,-10 -0.21,-1.422 -0.71,-2.755 -1.5,-4 -4.72,-3.049 -8.38,-7.049 -11,-12 -1.86,-2.7 -4.36,-4.366 -7.5,-5 -2,-6.853 -6.16,-12.186 -12.5,-16 -1.15,2.231 -2.15,4.565 -3,7 -0.78,8.987 -1.28,17.987 -1.5,27 -0.99,0.172 -1.66,-0.162 -2,-1 -0.92,-10.988 0.41,-21.654 4,-32 -3.5,-4.327 -6.5,-8.994 -9,-14 -2.26,-1.147 -4.6,-1.314 -7,-0.5 -2.2,4.889 -5.03,9.389 -8.5,13.5 1.54,6.17 2.38,12.503 2.5,19 0,0.667 0,1.333 0,2 -0.67,0.667 -1.33,1.333 -2,2 0.17,-4.679 0,-9.345 -0.5,-14 -0.42,-1.926 -1.59,-2.926 -3.5,-3 -1.1,-1.098 -2.43,-1.265 -4,-0.5 -1.91,1.791 -3.58,3.791 -5,6 -0.95,0.483 -1.95,0.649 -3,0.5 5.31,-6.15 10.48,-12.483 15.5,-19 2.2,-3.439 3.7,-7.106 4.5,-11 -4.85,0.997 -9.19,3.164 -13,6.5 -12.26,12.089 -24.26,24.255 -36,36.5 2.07,-5.596 5.57,-10.263 10.5,-14 0.79,-1.245 1.29,-2.578 1.5,-4 6.28,-5.101 12.44,-10.435 18.5,-16 2.03,-3.897 1.53,-7.397 -1.5,-10.5 -1.25,-0.74 -2.25,-0.573 -3,0.5 -5.87,3.431 -11.54,7.098 -17,11 -1.33,4.667 -2.67,9.333 -4,14 -0.33,-5.706 0,-11.372 1,-17 7.33,-4.358 14,-9.358 20,-15 -0.33,-0.667 -0.67,-1.333 -1,-2 -6.33,4 -12.67,8 -19,12 -0.98,-2.586 -1.31,-5.253 -1,-8 1,0 2,0 3,0 0,0.333 0,0.667 0,1 3.02,0.972 6.02,0.472 9,-1.5 2.93,-2.285 5.6,-4.785 8,-7.5 0.73,-3.531 1.4,-7.197 2,-11 -2.05,-3.036 -4.05,-6.036 -6,-9 5.13,4.63 10.13,9.463 15,14.5 3.29,2.231 6.79,4.064 10.5,5.5 1.04,-0.744 1.54,-1.744 1.5,-3 0.72,-0.418 1.22,-1.084 1.5,-2 5.26,0.836 10.42,1.169 15.5,1 0,1 0,2 0,3 3.61,-0.299 6.94,-1.465 10,-3.5 5.18,-5.342 10.51,-10.509 16,-15.5 -2.77,3.88 -4.77,8.214 -6,13 -4.76,4.225 -10.1,7.725 -16,10.5 -1.33,2.333 -1.33,4.667 0,7 2.84,1.517 5.68,3.017 8.5,4.5 1.82,-1.626 3.15,-3.626 4,-6 1.19,-4.123 2.36,-8.123 3.5,-12 1.2,2.717 3.04,5.051 5.5,7 4.02,1.595 7.86,3.595 11.5,6 0.61,-0.124 0.94,-0.457 1,-1 0.67,0 1,-0.333 1,-1 1.78,-4.227 2.61,-8.894 2.5,-14 0.67,-7.333 0.67,-14.667 0,-22 -2.04,-0.923 -4.21,-1.256 -6.5,-1 18.02,-19.357 36.36,-38.357 55,-57 z"
         id="path221" />
    </g>
    <g
       id="g223"
       style="clip-rule:evenodd;fill-rule:evenodd;image-rendering:optimizeQuality;shape-rendering:geometricPrecision;text-rendering:geometricPrecision"
       transform="matrix(0.26458333,0,0,0.26458333,-287.34808,-102.91598)">
      <path
         style="opacity:1"
         fill="#f2c1be"
         d="m 1311.5,535.5 c 0.06,-0.543 0.39,-0.876 1,-1 1,11.648 1.33,23.314 1,35 0,0.667 -0.33,1 -1,1 -1,-0.333 -1.67,-1 -2,-2 1.33,-5.124 2,-10.624 2,-16.5 0,-5.677 -0.33,-11.177 -1,-16.5 z"
         id="path223" />
    </g>
    <g
       id="g224"
       style="clip-rule:evenodd;fill-rule:evenodd;image-rendering:optimizeQuality;shape-rendering:geometricPrecision;text-rendering:geometricPrecision"
       transform="matrix(0.26458333,0,0,0.26458333,-287.34808,-102.91598)">
      <path
         style="opacity:1"
         fill="#8e2c29"
         d="m 1229.5,545.5 c 1.87,0.359 3.37,1.359 4.5,3 0.5,4.321 0.67,8.654 0.5,13 -2.4,2.715 -5.07,5.215 -8,7.5 -2.98,1.972 -5.98,2.472 -9,1.5 0.99,0.172 1.66,-0.162 2,-1 2.3,-0.975 4.3,-2.308 6,-4 1.83,-0.748 3.5,-1.748 5,-3 0.62,-0.111 1.12,-0.444 1.5,-1 0.17,-2.167 0.33,-4.333 0.5,-6.5 0.49,-3.754 -0.51,-6.921 -3,-9.5 z"
         id="path224" />
    </g>
    <g
       id="g225"
       style="clip-rule:evenodd;fill-rule:evenodd;image-rendering:optimizeQuality;shape-rendering:geometricPrecision;text-rendering:geometricPrecision"
       transform="matrix(0.26458333,0,0,0.26458333,-287.34808,-102.91598)">
      <path
         style="opacity:1"
         fill="#d73b33"
         d="m 1294.5,554.5 c 0,1.333 0,2.667 0,4 -1.14,3.877 -2.31,7.877 -3.5,12 -0.85,2.374 -2.18,4.374 -4,6 -2.82,-1.483 -5.66,-2.983 -8.5,-4.5 -1.33,-2.333 -1.33,-4.667 0,-7 5.9,-2.775 11.24,-6.275 16,-10.5 z"
         id="path225" />
    </g>
    <g
       id="g226"
       style="clip-rule:evenodd;fill-rule:evenodd;image-rendering:optimizeQuality;shape-rendering:geometricPrecision;text-rendering:geometricPrecision"
       transform="matrix(0.26458333,0,0,0.26458333,-287.34808,-102.91598)">
      <path
         style="opacity:1"
         fill="#d73b32"
         d="m 1236.5,554.5 c 4.9,4.466 10.57,7.966 17,10.5 1.09,2.064 1.26,4.231 0.5,6.5 -3.57,2.733 -7.41,4.066 -11.5,4 -1.31,-1.412 -2.14,-3.079 -2.5,-5 -1.74,-5.2 -2.91,-10.534 -3.5,-16 z"
         id="path226" />
    </g>
    <g
       id="g227"
       style="clip-rule:evenodd;fill-rule:evenodd;image-rendering:optimizeQuality;shape-rendering:geometricPrecision;text-rendering:geometricPrecision"
       transform="matrix(0.26458333,0,0,0.26458333,-287.34808,-102.91598)">
      <path
         style="opacity:1"
         fill="#d4322d"
         d="m 1262.5,560.5 c 8.38,-0.784 11.55,2.883 9.5,11 -4,4 -8,4 -12,0 -1.19,-4.241 -0.35,-7.908 2.5,-11 z"
         id="path227" />
    </g>
    <g
       id="g229"
       style="clip-rule:evenodd;fill-rule:evenodd;image-rendering:optimizeQuality;shape-rendering:geometricPrecision;text-rendering:geometricPrecision"
       transform="matrix(0.26458333,0,0,0.26458333,-287.34808,-102.91598)">
      <path
         style="opacity:1"
         fill="#cf3730"
         d="m 1214.5,569.5 c -0.31,2.747 0.02,5.414 1,8 6.33,-4 12.67,-8 19,-12 0.33,0.667 0.67,1.333 1,2 -6,5.642 -12.67,10.642 -20,15 -1,5.628 -1.33,11.294 -1,17 -0.6,0.639 -1.43,0.972 -2.5,1 -1.38,-0.184 -2.21,-0.851 -2.5,-2 -0.33,-23.676 0,-47.343 1,-71 1.31,0.813 2.48,1.813 3.5,3 0.5,12.996 0.67,25.996 0.5,39 z"
         id="path229" />
    </g>
    <g
       id="g231"
       style="clip-rule:evenodd;fill-rule:evenodd;image-rendering:optimizeQuality;shape-rendering:geometricPrecision;text-rendering:geometricPrecision"
       transform="matrix(0.26458333,0,0,0.26458333,-287.34808,-102.91598)">
      <path
         style="opacity:1"
         fill="#f8eceb"
         d="m 1311.5,583.5 c 0.28,0.789 0.78,1.456 1.5,2 0.33,4.667 0.67,9.333 1,14 0.69,1.85 1.86,3.184 3.5,4 -0.99,-0.172 -1.66,0.162 -2,1 -1,-0.667 -2,-1.333 -3,-2 -4.63,-6.297 -9.96,-11.963 -16,-17 -1.64,-1.981 -3.31,-3.981 -5,-6 0.91,-2.164 2.08,-4.164 3.5,-6 5.31,3.733 10.81,7.066 16.5,10 z"
         id="path231" />
    </g>
    <g
       id="g233"
       style="clip-rule:evenodd;fill-rule:evenodd;image-rendering:optimizeQuality;shape-rendering:geometricPrecision;text-rendering:geometricPrecision"
       transform="matrix(0.26458333,0,0,0.26458333,-287.34808,-102.91598)">
      <path
         style="opacity:1"
         fill="#f8edeb"
         d="m 1235.5,574.5 c 2.12,1.291 3.79,3.125 5,5.5 -6.17,7.004 -12.5,13.837 -19,20.5 -2.69,2.027 -5.03,4.361 -7,7 0,-1.333 0,-2.667 0,-4 1.3,-1.14 2.47,-2.473 3.5,-4 0.5,-4.655 0.67,-9.321 0.5,-14 5.46,-3.902 11.13,-7.569 17,-11 z"
         id="path233" />
    </g>
    <g
       id="g254"
       style="clip-rule:evenodd;fill-rule:evenodd;image-rendering:optimizeQuality;shape-rendering:geometricPrecision;text-rendering:geometricPrecision"
       transform="matrix(0.26458333,0,0,0.26458333,-287.34808,-102.91598)">
      <path
         style="opacity:1"
         fill="#893d38"
         d="m 1296.5,585.5 c 6.04,5.037 11.37,10.703 16,17 -2.22,-0.703 -4.05,-2.036 -5.5,-4 -3.74,-4.227 -7.24,-8.56 -10.5,-13 z"
         id="path254" />
    </g>
    <g
       id="g255"
       style="clip-rule:evenodd;fill-rule:evenodd;image-rendering:optimizeQuality;shape-rendering:geometricPrecision;text-rendering:geometricPrecision"
       transform="matrix(0.26458333,0,0,0.26458333,-287.34808,-102.91598)">
      <path
         style="opacity:1"
         fill="#862925"
         d="m 1235.5,574.5 c 0.75,-1.073 1.75,-1.24 3,-0.5 3.03,3.103 3.53,6.603 1.5,10.5 -6.06,5.565 -12.22,10.899 -18.5,16 6.5,-6.663 12.83,-13.496 19,-20.5 -1.21,-2.375 -2.88,-4.209 -5,-5.5 z"
         id="path255" />
    </g>
    <g
       id="g258"
       style="clip-rule:evenodd;fill-rule:evenodd;image-rendering:optimizeQuality;shape-rendering:geometricPrecision;text-rendering:geometricPrecision"
       transform="matrix(0.26458333,0,0,0.26458333,-287.34808,-102.91598)">
      <path
         style="opacity:1"
         fill="#8c2d27"
         d="m 1333.5,512.5 c -2.3,2.797 -4.8,5.464 -7.5,8 -0.33,26.667 -0.67,53.333 -1,80 -2,2.247 -4.5,3.247 -7.5,3 -1.64,-0.816 -2.81,-2.15 -3.5,-4 -0.33,-4.667 -0.67,-9.333 -1,-14 -0.72,-0.544 -1.22,-1.211 -1.5,-2 1.52,0.011 2.68,0.677 3.5,2 0.18,4.519 0.68,8.853 1.5,13 1.67,1.333 3.33,1.333 5,0 0.72,-0.418 1.22,-1.084 1.5,-2 0.33,-25.667 0.67,-51.333 1,-77 3.1,-2.626 6.27,-4.959 9.5,-7 z"
         id="path258" />
    </g>
    <g
       id="g264"
       style="clip-rule:evenodd;fill-rule:evenodd;image-rendering:optimizeQuality;shape-rendering:geometricPrecision;text-rendering:geometricPrecision"
       transform="matrix(0.26458333,0,0,0.26458333,-287.34808,-102.91598)">
      <path
         style="opacity:1"
         fill="#98453f"
         d="m 1205.5,520.5 c 0.83,20.829 1.33,41.829 1.5,63 -0.12,5.433 0.71,10.433 2.5,15 0.29,1.149 1.12,1.816 2.5,2 1.07,-0.028 1.9,-0.361 2.5,-1 1.33,-4.667 2.67,-9.333 4,-14 0.17,4.679 0,9.345 -0.5,14 -1.03,1.527 -2.2,2.86 -3.5,4 -3.85,0.655 -6.69,-0.679 -8.5,-4 -0.5,-26.331 -0.67,-52.665 -0.5,-79 z"
         id="path264" />
    </g>
    <g
       id="g265"
       style="clip-rule:evenodd;fill-rule:evenodd;image-rendering:optimizeQuality;shape-rendering:geometricPrecision;text-rendering:geometricPrecision"
       transform="matrix(0.26458333,0,0,0.26458333,-287.34808,-102.91598)">
      <path
         style="opacity:1"
         fill="#922c28"
         d="m 1293.5,609.5 c -2,-1.667 -4,-3.333 -6,-5 -0.92,-2.589 -2.59,-4.589 -5,-6 -1.3,0.59 -2.13,1.59 -2.5,3 -0.38,9.193 -1.21,18.193 -2.5,27 -0.67,0 -1,-0.333 -1,-1 0.22,-9.013 0.72,-18.013 1.5,-27 0.85,-2.435 1.85,-4.769 3,-7 6.34,3.814 10.5,9.147 12.5,16 z"
         id="path265" />
    </g>
    <g
       id="g268"
       style="clip-rule:evenodd;fill-rule:evenodd;image-rendering:optimizeQuality;shape-rendering:geometricPrecision;text-rendering:geometricPrecision"
       transform="matrix(0.26458333,0,0,0.26458333,-287.34808,-102.91598)">
      <path
         style="opacity:1"
         fill="#d63831"
         d="m 1238.5,605.5 c -3.67,3 -7,6.333 -10,10 -20.47,20.305 -40.47,41.138 -60,62.5 -3.76,1.176 -6.59,0.01 -8.5,-3.5 -0.65,-1.735 -0.48,-3.402 0.5,-5 16.11,-16.104 31.77,-32.437 47,-49 0.33,-1 1,-1.667 2,-2 11.74,-12.245 23.74,-24.411 36,-36.5 3.81,-3.336 8.15,-5.503 13,-6.5 -0.8,3.894 -2.3,7.561 -4.5,11 -5.02,6.517 -10.19,12.85 -15.5,19 z"
         id="path268" />
    </g>
    <g
       id="g269"
       style="clip-rule:evenodd;fill-rule:evenodd;image-rendering:optimizeQuality;shape-rendering:geometricPrecision;text-rendering:geometricPrecision"
       transform="matrix(0.26458333,0,0,0.26458333,-287.34808,-102.91598)">
      <path
         style="opacity:1"
         fill="#8a2724"
         d="m 1250.5,599.5 c 1.91,0.074 3.08,1.074 3.5,3 0.5,4.655 0.67,9.321 0.5,14 -0.44,1.006 -1.1,1.006 -2,0 0.51,-5.888 -0.15,-11.555 -2,-17 z"
         id="path269" />
    </g>
    <g
       id="g270"
       style="clip-rule:evenodd;fill-rule:evenodd;image-rendering:optimizeQuality;shape-rendering:geometricPrecision;text-rendering:geometricPrecision"
       transform="matrix(0.26458333,0,0,0.26458333,-287.34808,-102.91598)">
      <path
         style="opacity:1"
         fill="#e0706a"
         d="m 1274.5,626.5 c 0.34,0.838 1.01,1.172 2,1 0,0.667 0.33,1 1,1 0,2 0,4 0,6 -1.21,0.432 -2.21,1.099 -3,2 -0.33,0 -0.67,0 -1,0 -6.89,4.803 -11.55,11.137 -14,19 -1.24,-13.651 -2.24,-27.318 -3,-41 0,-0.667 0,-1.333 0,-2 0.8,-1.689 1.8,-3.355 3,-5 2.44,8.433 7.44,14.766 15,19 z"
         id="path270" />
    </g>
    <g
       id="g271"
       style="clip-rule:evenodd;fill-rule:evenodd;image-rendering:optimizeQuality;shape-rendering:geometricPrecision;text-rendering:geometricPrecision"
       transform="matrix(0.26458333,0,0,0.26458333,-287.34808,-102.91598)">
      <path
         style="opacity:1"
         fill="#d8382f"
         d="m 1274.5,626.5 c -7.56,-4.234 -12.56,-10.567 -15,-19 -1.2,1.645 -2.2,3.311 -3,5 -0.12,-6.497 -0.96,-12.83 -2.5,-19 3.47,-4.111 6.3,-8.611 8.5,-13.5 2.4,-0.814 4.74,-0.647 7,0.5 2.5,5.006 5.5,9.673 9,14 -3.59,10.346 -4.92,21.012 -4,32 z"
         id="path271" />
    </g>
    <g
       id="g272"
       style="clip-rule:evenodd;fill-rule:evenodd;image-rendering:optimizeQuality;shape-rendering:geometricPrecision;text-rendering:geometricPrecision"
       transform="matrix(0.26458333,0,0,0.26458333,-287.34808,-102.91598)">
      <path
         style="opacity:1"
         fill="#d73b31"
         d="m 1324.5,619.5 c 0.33,1 1,1.667 2,2 14.57,16.744 29.74,33.077 45.5,49 -0.39,3.913 -2.56,6.579 -6.5,8 -4.07,-3.406 -8.4,-6.406 -13,-9 -1.34,-2.197 -2.51,-4.53 -3.5,-7 -6.18,-6.408 -12.35,-12.742 -18.5,-19 -16.99,-17.829 -33.83,-35.829 -50.5,-54 -2.99,-4.308 -5.15,-8.975 -6.5,-14 5.52,1.429 10.52,3.929 15,7.5 12.23,12.062 24.23,24.228 36,36.5 z"
         id="path272" />
    </g>
    <g
       id="g273"
       style="clip-rule:evenodd;fill-rule:evenodd;image-rendering:optimizeQuality;shape-rendering:geometricPrecision;text-rendering:geometricPrecision"
       transform="matrix(0.26458333,0,0,0.26458333,-287.34808,-102.91598)">
      <path
         style="opacity:1"
         fill="#912a24"
         d="m 1250.5,599.5 c -1.9,0.238 -3.24,1.238 -4,3 -11.67,12 -23.33,24 -35,36 0,-1.333 0,-2.667 0,-4 1,0 2,0 3,0 4.9,-5.363 9.56,-11.696 14,-19 3,-3.667 6.33,-7 10,-10 1.05,0.149 2.05,-0.017 3,-0.5 1.42,-2.209 3.09,-4.209 5,-6 1.57,-0.765 2.9,-0.598 4,0.5 z"
         id="path273" />
    </g>
    <g
       id="g277"
       style="clip-rule:evenodd;fill-rule:evenodd;image-rendering:optimizeQuality;shape-rendering:geometricPrecision;text-rendering:geometricPrecision"
       transform="matrix(0.26458333,0,0,0.26458333,-287.34808,-102.91598)">
      <path
         style="opacity:1"
         fill="#87322e"
         d="m 1293.5,609.5 c 3.14,0.634 5.64,2.3 7.5,5 2.62,4.951 6.28,8.951 11,12 0.79,1.245 1.29,2.578 1.5,4 -6.89,-6.767 -13.56,-13.767 -20,-21 z"
         id="path277" />
    </g>
    <g
       id="g278"
       style="clip-rule:evenodd;fill-rule:evenodd;image-rendering:optimizeQuality;shape-rendering:geometricPrecision;text-rendering:geometricPrecision"
       transform="matrix(0.26458333,0,0,0.26458333,-287.34808,-102.91598)">
      <path
         style="opacity:1"
         fill="#8e2e29"
         d="m 1312.5,602.5 c 1,0.667 2,1.333 3,2 8.37,8.366 16.37,17.033 24,26 -4.14,-3.24 -8.47,-6.24 -13,-9 -1,-0.333 -1.67,-1 -2,-2 -0.54,-2.093 -1.38,-4.093 -2.5,-6 -3.77,-3.264 -6.94,-6.93 -9.5,-11 z"
         id="path278" />
    </g>
    <g
       id="g280"
       style="clip-rule:evenodd;fill-rule:evenodd;image-rendering:optimizeQuality;shape-rendering:geometricPrecision;text-rendering:geometricPrecision"
       transform="matrix(0.26458333,0,0,0.26458333,-287.34808,-102.91598)">
      <path
         style="opacity:1"
         fill="#89302c"
         d="m 1313.5,630.5 c 4.9,1.896 8.57,5.229 11,10 2.03,1.059 4.03,2.059 6,3 0.39,1.679 0.89,3.346 1.5,5 6.34,6.84 12.51,13.84 18.5,21 -12.67,-12.671 -25,-25.671 -37,-39 z"
         id="path280" />
    </g>
    <g
       id="g282"
       style="clip-rule:evenodd;fill-rule:evenodd;image-rendering:optimizeQuality;shape-rendering:geometricPrecision;text-rendering:geometricPrecision"
       transform="matrix(0.26458333,0,0,0.26458333,-287.34808,-102.91598)">
      <path
         style="opacity:1"
         fill="#b76460"
         d="m 1256.5,614.5 c 0.76,13.682 1.76,27.349 3,41 -0.81,-1.761 -1.81,-3.428 -3,-5 -1.13,0.397 -1.47,2.397 -1,6 -0.73,-13.213 -1.73,-26.547 -3,-40 0.9,1.006 1.56,1.006 2,0 0.67,-0.667 1.33,-1.333 2,-2 z"
         id="path282" />
    </g>
    <g
       id="g284"
       style="clip-rule:evenodd;fill-rule:evenodd;image-rendering:optimizeQuality;shape-rendering:geometricPrecision;text-rendering:geometricPrecision"
       transform="matrix(0.26458333,0,0,0.26458333,-287.34808,-102.91598)">
      <path
         style="opacity:1"
         fill="#8b3732"
         d="m 1339.5,630.5 c 11,11.005 21.67,22.339 32,34 -3.88,-0.856 -6.38,-3.189 -7.5,-7 -6.36,-6.699 -13.03,-13.032 -20,-19 -2.28,-2.236 -3.78,-4.902 -4.5,-8 z"
         id="path284" />
    </g>
    <g
       id="g285"
       style="clip-rule:evenodd;fill-rule:evenodd;image-rendering:optimizeQuality;shape-rendering:geometricPrecision;text-rendering:geometricPrecision"
       transform="matrix(0.26458333,0,0,0.26458333,-287.34808,-102.91598)">
      <path
         style="opacity:1"
         fill="#a4241f"
         d="m 1326.5,621.5 c 4.53,2.76 8.86,5.76 13,9 0.72,3.098 2.22,5.764 4.5,8 6.97,5.968 13.64,12.301 20,19 1.12,3.811 3.62,6.144 7.5,7 0.19,1.696 1.02,3.029 2.5,4 0.67,2.333 0.67,4.667 0,7 -2.7,0.69 -4.86,2.19 -6.5,4.5 -2,0.667 -4,0.667 -6,0 -2.84,-3.667 -5.84,-7.167 -9,-10.5 4.6,2.594 8.93,5.594 13,9 3.94,-1.421 6.11,-4.087 6.5,-8 -15.76,-15.923 -30.93,-32.256 -45.5,-49 z"
         id="path285" />
    </g>
    <g
       id="g286"
       style="clip-rule:evenodd;fill-rule:evenodd;image-rendering:optimizeQuality;shape-rendering:geometricPrecision;text-rendering:geometricPrecision"
       transform="matrix(0.26458333,0,0,0.26458333,-287.34808,-102.91598)">
      <path
         style="opacity:1"
         fill="#862825"
         d="m 1221.5,600.5 c -0.21,1.422 -0.71,2.755 -1.5,4 -4.93,3.737 -8.43,8.404 -10.5,14 -1,0.333 -1.67,1 -2,2 -4.16,3.311 -8.49,6.477 -13,9.5 -2.46,3.078 -4.79,6.244 -7,9.5 -6.29,4.622 -11.96,9.955 -17,16 -0.82,0.886 -1.82,1.219 -3,1 15.33,-16.663 31,-32.996 47,-49 1.97,-2.639 4.31,-4.973 7,-7 z"
         id="path286" />
    </g>
    <g
       id="g287"
       style="clip-rule:evenodd;fill-rule:evenodd;image-rendering:optimizeQuality;shape-rendering:geometricPrecision;text-rendering:geometricPrecision"
       transform="matrix(0.26458333,0,0,0.26458333,-287.34808,-102.91598)">
      <path
         style="opacity:1"
         fill="#89322b"
         d="m 1211.5,638.5 c -6.69,7.026 -13.36,14.026 -20,21 0.09,-0.996 -0.25,-1.829 -1,-2.5 0.95,-0.483 1.95,-0.649 3,-0.5 0,-1.333 0,-2.667 0,-4 1.05,0.149 2.05,-0.017 3,-0.5 3.28,-4.953 7.28,-9.287 12,-13 0.95,-0.483 1.95,-0.649 3,-0.5 z"
         id="path287" />
    </g>
    <g
       id="g288"
       style="clip-rule:evenodd;fill-rule:evenodd;image-rendering:optimizeQuality;shape-rendering:geometricPrecision;text-rendering:geometricPrecision"
       transform="matrix(0.26458333,0,0,0.26458333,-287.34808,-102.91598)">
      <path
         style="opacity:1"
         fill="#872a26"
         d="m 1277.5,634.5 c -0.65,13.657 -0.99,27.324 -1,41 -0.33,0 -0.67,0 -1,0 -0.74,-13.008 -1.07,-26.008 -1,-39 0.79,-0.901 1.79,-1.568 3,-2 z"
         id="path288" />
    </g>
    <g
       id="g289"
       style="clip-rule:evenodd;fill-rule:evenodd;image-rendering:optimizeQuality;shape-rendering:geometricPrecision;text-rendering:geometricPrecision"
       transform="matrix(0.26458333,0,0,0.26458333,-287.34808,-102.91598)">
      <path
         style="opacity:1"
         fill="#f4dcdb"
         d="m 1250.5,599.5 c 1.85,5.445 2.51,11.112 2,17 1.27,13.453 2.27,26.787 3,40 0.76,6.304 1.09,12.637 1,19 -6.34,0.701 -12.67,1.534 -19,2.5 -2.51,0.093 -4.67,0.926 -6.5,2.5 -0.67,4.333 -0.67,8.667 0,13 0.5,0.5 1,1 1.5,1.5 4.84,0.68 9.5,1.514 14,2.5 -5.37,-0.023 -10.71,-0.523 -16,-1.5 -0.5,-0.5 -1,-1 -1.5,-1.5 -0.67,-5 -0.67,-10 0,-15 1.83,-1.574 3.99,-2.407 6.5,-2.5 6.34,-0.871 12.68,-1.704 19,-2.5 -1.51,-23.648 -3.01,-47.315 -4.5,-71 -1.01,-0.837 -2.18,-1.17 -3.5,-1 0.76,-1.762 2.1,-2.762 4,-3 z"
         id="path289" />
    </g>
    <g
       id="g292"
       style="clip-rule:evenodd;fill-rule:evenodd;image-rendering:optimizeQuality;shape-rendering:geometricPrecision;text-rendering:geometricPrecision"
       transform="matrix(0.26458333,0,0,0.26458333,-287.34808,-102.91598)">
      <path
         style="opacity:1"
         fill="#9e241e"
         d="m 1330.5,643.5 c 6.15,6.258 12.32,12.592 18.5,19 0.99,2.47 2.16,4.803 3.5,7 -0.67,0 -1.33,0 -2,0 -5.99,-7.16 -12.16,-14.16 -18.5,-21 -0.61,-1.654 -1.11,-3.321 -1.5,-5 z"
         id="path292" />
    </g>
    <g
       id="g294"
       style="clip-rule:evenodd;fill-rule:evenodd;image-rendering:optimizeQuality;shape-rendering:geometricPrecision;text-rendering:geometricPrecision"
       transform="matrix(0.26458333,0,0,0.26458333,-287.34808,-102.91598)">
      <path
         style="opacity:1"
         fill="#a01f1a"
         d="m 1228.5,615.5 c -4.44,7.304 -9.1,13.637 -14,19 -1,0 -2,0 -3,0 0,1.333 0,2.667 0,4 -1.05,-0.149 -2.05,0.017 -3,0.5 -4.72,3.713 -8.72,8.047 -12,13 -0.95,0.483 -1.95,0.649 -3,0.5 0,1.333 0,2.667 0,4 -1.05,-0.149 -2.05,0.017 -3,0.5 0.75,0.671 1.09,1.504 1,2.5 -1.43,-0.079 -2.76,0.254 -4,1 -1.19,2.027 -2.86,3.527 -5,4.5 -2.85,4.337 -5.85,8.503 -9,12.5 -2.69,1.037 -5.35,2.037 -8,3 -1,-0.167 -2,-0.333 -3,-0.5 -1.03,-2.874 -3.03,-4.374 -6,-4.5 -0.18,-3.579 0.48,-6.913 2,-10 4,-2 7,-5 9,-9 1.18,0.219 2.18,-0.114 3,-1 5.04,-6.045 10.71,-11.378 17,-16 2.21,-3.256 4.54,-6.422 7,-9.5 4.51,-3.023 8.84,-6.189 13,-9.5 -15.23,16.563 -30.89,32.896 -47,49 -0.98,1.598 -1.15,3.265 -0.5,5 1.91,3.51 4.74,4.676 8.5,3.5 19.53,-21.362 39.53,-42.195 60,-62.5 z"
         id="path294" />
    </g>
    <g
       id="g296"
       style="clip-rule:evenodd;fill-rule:evenodd;image-rendering:optimizeQuality;shape-rendering:geometricPrecision;text-rendering:geometricPrecision"
       transform="matrix(0.26458333,0,0,0.26458333,-287.34808,-102.91598)">
      <path
         style="opacity:1"
         fill="#8a433e"
         d="m 1167.5,656.5 c -2,4 -5,7 -9,9 2.67,-3.333 5.67,-6.333 9,-9 z"
         id="path296" />
    </g>
    <g
       id="g297"
       style="clip-rule:evenodd;fill-rule:evenodd;image-rendering:optimizeQuality;shape-rendering:geometricPrecision;text-rendering:geometricPrecision"
       transform="matrix(0.26458333,0,0,0.26458333,-287.34808,-102.91598)">
      <path
         style="opacity:1"
         fill="#903530"
         d="m 1256.5,650.5 c 1.51,8.593 2.17,17.259 2,26 -7.94,1.82 -15.94,3.32 -24,4.5 -2.02,3.183 -2.52,6.683 -1.5,10.5 0.75,0.626 1.58,1.126 2.5,1.5 7.45,0.231 14.79,1.231 22,3 0.56,0.383 0.89,0.883 1,1.5 0,9.667 0,19.333 0,29 -0.99,-9.486 -1.33,-19.152 -1,-29 -3.67,0 -7.33,0 -11,0 -4.5,-0.986 -9.16,-1.82 -14,-2.5 -0.5,-0.5 -1,-1 -1.5,-1.5 -0.67,-4.333 -0.67,-8.667 0,-13 1.83,-1.574 3.99,-2.407 6.5,-2.5 6.33,-0.966 12.66,-1.799 19,-2.5 0.09,-6.363 -0.24,-12.696 -1,-19 -0.47,-3.603 -0.13,-5.603 1,-6 z"
         id="path297" />
    </g>
    <g
       id="g298"
       style="clip-rule:evenodd;fill-rule:evenodd;image-rendering:optimizeQuality;shape-rendering:geometricPrecision;text-rendering:geometricPrecision"
       transform="matrix(0.26458333,0,0,0.26458333,-287.34808,-102.91598)">
      <path
         style="opacity:1"
         fill="#f3d7d6"
         d="m 1287.5,604.5 c -1.52,-0.674 -2.86,-1.674 -4,-3 -0.75,0.876 -1.25,1.876 -1.5,3 -0.33,-0.333 -0.67,-0.667 -1,-1 0.28,12.756 -0.06,25.423 -1,38 -0.33,-0.333 -0.67,-0.667 -1,-1 -0.5,11.328 -0.67,22.662 -0.5,34 7.27,1.273 14.6,2.106 22,2.5 1.26,0.417 1.92,1.25 2,2.5 -2.6,-0.765 -5.26,-1.099 -8,-1 -5.99,-0.999 -11.99,-1.999 -18,-3 0.01,-13.676 0.35,-27.343 1,-41 0,-2 0,-4 0,-6 1.29,-8.807 2.12,-17.807 2.5,-27 0.37,-1.41 1.2,-2.41 2.5,-3 2.41,1.411 4.08,3.411 5,6 z"
         id="path298" />
    </g>
    <g
       id="g300"
       style="clip-rule:evenodd;fill-rule:evenodd;image-rendering:optimizeQuality;shape-rendering:geometricPrecision;text-rendering:geometricPrecision"
       transform="matrix(0.26458333,0,0,0.26458333,-287.34808,-102.91598)">
      <path
         style="opacity:1"
         fill="#8a2e2a"
         d="m 1191.5,659.5 c -5.67,6.333 -11.67,12.333 -18,18 3.15,-3.997 6.15,-8.163 9,-12.5 2.14,-0.973 3.81,-2.473 5,-4.5 1.24,-0.746 2.57,-1.079 4,-1 z"
         id="path300" />
    </g>
    <g
       id="g301"
       style="clip-rule:evenodd;fill-rule:evenodd;image-rendering:optimizeQuality;shape-rendering:geometricPrecision;text-rendering:geometricPrecision"
       transform="matrix(0.26458333,0,0,0.26458333,-287.34808,-102.91598)">
      <path
         style="opacity:1"
         fill="#873e37"
         d="m 1158.5,665.5 c -1.52,3.087 -2.18,6.421 -2,10 -1.38,-0.462 -2.05,-1.462 -2,-3 0.59,-2.849 1.92,-5.182 4,-7 z"
         id="path301" />
    </g>
    <g
       id="g303"
       style="clip-rule:evenodd;fill-rule:evenodd;image-rendering:optimizeQuality;shape-rendering:geometricPrecision;text-rendering:geometricPrecision"
       transform="matrix(0.26458333,0,0,0.26458333,-287.34808,-102.91598)">
      <path
         style="opacity:1"
         fill="#882f2b"
         d="m 1371.5,664.5 c 4.61,2.319 6.11,5.985 4.5,11 -2.5,2.5 -5,5 -7.5,7.5 -2.47,0.706 -4.8,0.373 -7,-1 -3.56,-4.292 -7.22,-8.459 -11,-12.5 0.67,0 1.33,0 2,0 3.16,3.333 6.16,6.833 9,10.5 2,0.667 4,0.667 6,0 1.64,-2.31 3.8,-3.81 6.5,-4.5 0.67,-2.333 0.67,-4.667 0,-7 -1.48,-0.971 -2.31,-2.304 -2.5,-4 z"
         id="path303" />
    </g>
    <g
       id="g306"
       style="clip-rule:evenodd;fill-rule:evenodd;image-rendering:optimizeQuality;shape-rendering:geometricPrecision;text-rendering:geometricPrecision"
       transform="matrix(0.26458333,0,0,0.26458333,-287.34808,-102.91598)">
      <path
         style="opacity:1"
         fill="#8a302b"
         d="m 1156.5,675.5 c 2.97,0.126 4.97,1.626 6,4.5 1,0.167 2,0.333 3,0.5 2.65,-0.963 5.31,-1.963 8,-3 -2.45,5.615 -6.45,7.115 -12,4.5 -2.29,-1.777 -3.96,-3.944 -5,-6.5 z"
         id="path306" />
    </g>
    <g
       id="g338"
       style="clip-rule:evenodd;fill-rule:evenodd;image-rendering:optimizeQuality;shape-rendering:geometricPrecision;text-rendering:geometricPrecision"
       transform="matrix(0.26458333,0,0,0.26458333,-287.34808,-102.91598)">
      <path
         style="opacity:1"
         fill="#da3b32"
         d="m 1298.5,682.5 c 0.98,2.787 1.31,5.787 1,9 -7.58,0.314 -15.08,0.981 -22.5,2 -0.5,-4.321 -0.67,-8.654 -0.5,-13 7.4,0.011 14.73,0.678 22,2 z"
         id="path338" />
    </g>
    <g
       id="g339"
       style="clip-rule:evenodd;fill-rule:evenodd;image-rendering:optimizeQuality;shape-rendering:geometricPrecision;text-rendering:geometricPrecision"
       transform="matrix(0.26458333,0,0,0.26458333,-287.34808,-102.91598)">
      <path
         style="opacity:1"
         fill="#b0261d"
         d="m 1273.5,636.5 c 0.33,0 0.67,0 1,0 -0.07,12.992 0.26,25.992 1,39 0,1 0,2 0,3 6.52,0.41 13.02,1.076 19.5,2 1.68,0.108 2.85,0.775 3.5,2 -7.27,-1.322 -14.6,-1.989 -22,-2 -0.17,4.346 0,8.679 0.5,13 7.42,-1.019 14.92,-1.686 22.5,-2 -0.42,0.722 -1.08,1.222 -2,1.5 -7.87,0.432 -15.54,1.599 -23,3.5 -0.35,10.367 -1.35,20.367 -3,30 0.77,-29.936 1.44,-59.936 2,-90 z"
         id="path339" />
    </g>
    <g
       id="g340"
       style="clip-rule:evenodd;fill-rule:evenodd;image-rendering:optimizeQuality;shape-rendering:geometricPrecision;text-rendering:geometricPrecision"
       transform="matrix(0.26458333,0,0,0.26458333,-287.34808,-102.91598)">
      <path
         style="opacity:1"
         fill="#da4034"
         d="m 1273.5,636.5 c -0.56,30.064 -1.23,60.064 -2,90 -2.95,0.277 -5.78,-0.056 -8.5,-1 -0.57,-23.369 -1.74,-46.702 -3.5,-70 2.45,-7.863 7.11,-14.197 14,-19 z"
         id="path340" />
    </g>
    <g
       id="g342"
       style="clip-rule:evenodd;fill-rule:evenodd;image-rendering:optimizeQuality;shape-rendering:geometricPrecision;text-rendering:geometricPrecision"
       transform="matrix(0.26458333,0,0,0.26458333,-287.34808,-102.91598)">
      <path
         style="opacity:1"
         fill="#883632"
         d="m 1294.5,678.5 c 2.74,-0.099 5.4,0.235 8,1 1.11,4.581 1.27,9.248 0.5,14 -0.5,0.5 -1,1 -1.5,1.5 -7.05,0.861 -14.05,1.694 -21,2.5 -1.33,0 -2.67,0 -4,0 6.94,-1.877 14.27,-3.044 22,-3.5 1.43,-0.465 2.6,-1.299 3.5,-2.5 2.21,-7.496 -0.29,-11.83 -7.5,-13 z"
         id="path342" />
    </g>
    <g
       id="g344"
       style="clip-rule:evenodd;fill-rule:evenodd;image-rendering:optimizeQuality;shape-rendering:geometricPrecision;text-rendering:geometricPrecision"
       transform="matrix(0.26458333,0,0,0.26458333,-287.34808,-102.91598)">
      <path
         style="opacity:1"
         fill="#a9221d"
         d="m 1256.5,650.5 c 1.19,1.572 2.19,3.239 3,5 1.76,23.298 2.93,46.631 3.5,70 2.72,0.944 5.55,1.277 8.5,1 -1.29,0.658 -2.79,0.992 -4.5,1 -2.35,0.195 -4.35,-0.472 -6,-2 -0.33,-9 -0.67,-18 -1,-27 -0.38,-0.556 -0.88,-0.889 -1.5,-1 -0.11,-0.617 -0.44,-1.117 -1,-1.5 -7.21,-1.769 -14.55,-2.769 -22,-3 -0.92,-0.374 -1.75,-0.874 -2.5,-1.5 -1.02,-3.817 -0.52,-7.317 1.5,-10.5 8.06,-1.18 16.06,-2.68 24,-4.5 0.17,-8.741 -0.49,-17.407 -2,-26 z"
         id="path344" />
    </g>
    <g
       id="g345"
       style="clip-rule:evenodd;fill-rule:evenodd;image-rendering:optimizeQuality;shape-rendering:geometricPrecision;text-rendering:geometricPrecision"
       transform="matrix(0.26458333,0,0,0.26458333,-287.34808,-102.91598)">
      <path
         style="opacity:1"
         fill="#d6362e"
         d="m 1249.5,679.5 c 2.67,0 5.33,0 8,0 0,4.667 0,9.333 0,14 -7.68,-0.557 -15.34,-1.224 -23,-2 0,-2.667 0,-5.333 0,-8 2.03,0.162 4.03,-0.005 6,-0.5 2.92,-1.603 5.92,-2.77 9,-3.5 z"
         id="path345" />
    </g>
    <g
       id="g350"
       style="clip-rule:evenodd;fill-rule:evenodd;image-rendering:optimizeQuality;shape-rendering:geometricPrecision;text-rendering:geometricPrecision"
       transform="matrix(0.26458333,0,0,0.26458333,-287.34808,-102.91598)">
      <path
         style="opacity:1"
         fill="#f9c2bf"
         d="m 1276.5,697.5 c 1.33,0 2.67,0 4,0 0.33,0.667 0.67,1.333 1,2 -1,-0.086 -1.83,0.248 -2.5,1 -0.5,4.321 -0.67,8.654 -0.5,13 -0.06,0.543 -0.39,0.876 -1,1 -1,-5.628 -1.33,-11.294 -1,-17 z"
         id="path350" />
    </g>
    <g
       id="g353"
       style="clip-rule:evenodd;fill-rule:evenodd;image-rendering:optimizeQuality;shape-rendering:geometricPrecision;text-rendering:geometricPrecision"
       transform="matrix(0.26458333,0,0,0.26458333,-287.34808,-102.91598)">
      <path
         style="opacity:1"
         fill="#932722"
         d="m 1275.5,675.5 c 0.33,0 0.67,0 1,0 6.01,1.001 12.01,2.001 18,3 7.21,1.17 9.71,5.504 7.5,13 -0.9,1.201 -2.07,2.035 -3.5,2.5 -7.73,0.456 -15.06,1.623 -22,3.5 -0.33,5.706 0,11.372 1,17 0.61,-0.124 0.94,-0.457 1,-1 0.67,-3.853 1.33,-7.853 2,-12 0.59,0.209 1.09,0.543 1.5,1 0.83,11.015 0.67,22.015 -0.5,33 -0.83,-4.296 -1.33,-8.629 -1.5,-13 -0.38,-0.556 -0.88,-0.889 -1.5,-1 -0.06,-0.543 -0.39,-0.876 -1,-1 -0.63,2.995 -1.63,5.828 -3,8.5 -4.67,0.667 -9.33,0.667 -14,0 -0.88,-0.708 -1.55,-1.542 -2,-2.5 0,-9.667 0,-19.333 0,-29 0.62,0.111 1.12,0.444 1.5,1 0.33,9 0.67,18 1,27 1.65,1.528 3.65,2.195 6,2 1.71,-0.008 3.21,-0.342 4.5,-1 1.65,-9.633 2.65,-19.633 3,-30 7.46,-1.901 15.13,-3.068 23,-3.5 0.92,-0.278 1.58,-0.778 2,-1.5 0.31,-3.213 -0.02,-6.213 -1,-9 -0.65,-1.225 -1.82,-1.892 -3.5,-2 -6.48,-0.924 -12.98,-1.59 -19.5,-2 0,-1 0,-2 0,-3 z"
         id="path353" />
    </g>
    <g
       id="g358"
       style="clip-rule:evenodd;fill-rule:evenodd;image-rendering:optimizeQuality;shape-rendering:geometricPrecision;text-rendering:geometricPrecision"
       transform="matrix(0.26458333,0,0,0.26458333,-287.34808,-102.91598)">
      <path
         style="opacity:1"
         fill="#7e3934"
         d="m 1281.5,699.5 c 0.62,0.111 1.12,0.444 1.5,1 0.5,11.995 0.67,23.995 0.5,36 -1.67,0 -3.33,0 -5,0 0,-5 0,-10 0,-15 0.62,0.111 1.12,0.444 1.5,1 0.17,4.371 0.67,8.704 1.5,13 1.17,-10.985 1.33,-21.985 0.5,-33 -0.41,-0.457 -0.91,-0.791 -1.5,-1 -0.67,4.147 -1.33,8.147 -2,12 -0.17,-4.346 0,-8.679 0.5,-13 0.67,-0.752 1.5,-1.086 2.5,-1 z"
         id="path358" />
    </g>
  </g>
</svg>
