<?xml version="1.0" encoding="UTF-8" standalone="no"?>
<!-- Created with Inkscape (http://www.inkscape.org/) -->

<svg
   width="96mm"
   height="96mm"
   viewBox="0 0 96 96"
   version="1.1"
   id="svg1"
   inkscape:version="1.4.2 (ebf0e940, 2025-05-08)"
   sodipodi:docname="bicycle.svg"
   xmlns:inkscape="http://www.inkscape.org/namespaces/inkscape"
   xmlns:sodipodi="http://sodipodi.sourceforge.net/DTD/sodipodi-0.dtd"
   xmlns="http://www.w3.org/2000/svg"
   xmlns:svg="http://www.w3.org/2000/svg">
  <sodipodi:namedview
     id="namedview1"
     pagecolor="#ffffff"
     bordercolor="#000000"
     borderopacity="0.25"
     inkscape:showpageshadow="2"
     inkscape:pageopacity="0.0"
     inkscape:pagecheckerboard="0"
     inkscape:deskcolor="#d1d1d1"
     inkscape:document-units="mm"
     inkscape:zoom="0.80444024"
     inkscape:cx="397.17059"
     inkscape:cy="362.36377"
     inkscape:window-width="1920"
     inkscape:window-height="1052"
     inkscape:window-x="0"
     inkscape:window-y="28"
     inkscape:window-maximized="0"
     inkscape:current-layer="layer1" />
  <defs
     id="defs1" />
  <g
     inkscape:label="Layer 1"
     inkscape:groupmode="layer"
     id="layer1">
    <g
       id="g9"
       style="clip-rule:evenodd;fill-rule:evenodd;image-rendering:optimizeQuality;shape-rendering:geometricPrecision;text-rendering:geometricPrecision"
       transform="matrix(0.31261505,0,0,0.31261505,-10.823133,-6.046515)">
      <path
         style="opacity:1"
         fill="#b55750"
         d="m 184.5,45.5 c 4.594,-0.8428 8.261,0.4906 11,4 0,18 0,36 0,54 -0.832,-17.1618 -1.332,-34.4952 -1.5,-52 -2.283,-4.5589 -5.783,-5.8923 -10.5,-4 0.333,-0.6667 0.667,-1.3333 1,-2 z"
         id="path9" />
    </g>
    <g
       id="g25"
       style="clip-rule:evenodd;fill-rule:evenodd;image-rendering:optimizeQuality;shape-rendering:geometricPrecision;text-rendering:geometricPrecision"
       transform="matrix(0.31261505,0,0,0.31261505,-10.823133,-6.046515)">
      <path
         style="opacity:1"
         fill="#f9e2e0"
         d="m 184.5,45.5 c -0.333,0.6667 -0.667,1.3333 -1,2 -0.667,0.3333 -1.333,0.6667 -2,1 -0.617,0.1107 -1.117,0.444 -1.5,1 -0.333,12 -0.667,24 -1,36 -0.383,0.556 -0.883,0.8893 -1.5,1 -1,0 -2,0 -3,0 1.706,-1.5727 2.873,-3.5727 3.5,-6 0.333,-10.6667 0.667,-21.3333 1,-32 1.264,-2.107 3.097,-3.107 5.5,-3 z"
         id="path25" />
    </g>
    <g
       id="g58"
       style="clip-rule:evenodd;fill-rule:evenodd;image-rendering:optimizeQuality;shape-rendering:geometricPrecision;text-rendering:geometricPrecision"
       transform="matrix(0.31261505,0,0,0.31261505,-10.823133,-6.046515)">
      <path
         style="opacity:1"
         fill="#d27d77"
         d="m 174.5,86.5 c 1,0 2,0 3,0 0,0.3333 0,0.6667 0,1 -1.25,0.0774 -2.083,0.744 -2.5,2 -0.174,5.1835 -0.674,10.1835 -1.5,15 0,-2.333 0,-4.6667 0,-7 -0.256,-3.7693 0.077,-7.4359 1,-11 z"
         id="path58" />
    </g>
    <g
       id="g59"
       style="clip-rule:evenodd;fill-rule:evenodd;image-rendering:optimizeQuality;shape-rendering:geometricPrecision;text-rendering:geometricPrecision"
       transform="matrix(0.31261505,0,0,0.31261505,-10.823133,-6.046515)">
      <path
         style="opacity:1"
         fill="#f8e0dd"
         d="m 201.5,87.5 c 0,-0.3333 0,-0.6667 0,-1 0.996,-0.0858 1.829,0.2476 2.5,1 0.333,3.3333 0.667,6.6667 1,10 0.519,1.0156 1.353,1.6822 2.5,2 2.222,-1.2783 4.556,-2.2783 7,-3 0.751,-0.876 1.251,-1.876 1.5,-3 4.414,0.8029 8.914,1.3029 13.5,1.5 0.556,0.3826 0.889,0.8826 1,1.5 -4.014,-0.1655 -8.014,0.0012 -12,0.5 -2.739,1.0259 -5.072,2.5259 -7,4.5 -1.32,1.442 -2.986,2.108 -5,2 -1,0 -2,0 -3,0 0.321,-5.1946 -0.013,-10.1946 -1,-15 0,-0.6667 -0.333,-1 -1,-1 z"
         id="path59" />
    </g>
    <g
       id="g62"
       style="clip-rule:evenodd;fill-rule:evenodd;image-rendering:optimizeQuality;shape-rendering:geometricPrecision;text-rendering:geometricPrecision"
       transform="matrix(0.31261505,0,0,0.31261505,-10.823133,-6.046515)">
      <path
         style="opacity:1"
         fill="#f7b8b2"
         d="m 181.5,48.5 c -0.974,18.6202 -1.308,37.2868 -1,56 -1,0 -2,0 -3,0 0,-5.6667 0,-11.3333 0,-17 0,-0.3333 0,-0.6667 0,-1 0.617,-0.1107 1.117,-0.444 1.5,-1 0.333,-12 0.667,-24 1,-36 0.383,-0.556 0.883,-0.8893 1.5,-1 z"
         id="path62" />
    </g>
    <g
       id="g63"
       style="clip-rule:evenodd;fill-rule:evenodd;image-rendering:optimizeQuality;shape-rendering:geometricPrecision;text-rendering:geometricPrecision"
       transform="matrix(0.31261505,0,0,0.31261505,-10.823133,-6.046515)">
      <path
         style="opacity:1"
         fill="#f9b7b3"
         d="m 202.5,88.5 c 0.987,4.8054 1.321,9.8054 1,15 1,0 2,0 3,0 -1.068,0.934 -2.401,1.268 -4,1 0,-5.3333 0,-10.6667 0,-16 z"
         id="path63" />
    </g>
    <g
       id="g66"
       style="clip-rule:evenodd;fill-rule:evenodd;image-rendering:optimizeQuality;shape-rendering:geometricPrecision;text-rendering:geometricPrecision"
       transform="matrix(0.31261505,0,0,0.31261505,-10.823133,-6.046515)">
      <path
         style="opacity:1"
         fill="#f5b0aa"
         d="m 195.5,49.5 c 0.995,12.1554 1.329,24.4887 1,37 1.667,0 3.333,0 5,0 0,0.3333 0,0.6667 0,1 -1,0 -2,0 -3,0 0,5.3333 0,10.6667 0,16 -1,1.333 -2,1.333 -3,0 0,-18 0,-36 0,-54 z"
         id="path66" />
    </g>
    <g
       id="g69"
       style="clip-rule:evenodd;fill-rule:evenodd;image-rendering:optimizeQuality;shape-rendering:geometricPrecision;text-rendering:geometricPrecision"
       transform="matrix(0.31261505,0,0,0.31261505,-10.823133,-6.046515)">
      <path
         style="opacity:1"
         fill="#b45b52"
         d="m 230.5,96.5 c 4.848,2.9221 9.515,6.089 14,9.5 1.939,1.432 3.272,3.265 4,5.5 -4.75,-3.567 -9.416,-7.401 -14,-11.5 -2.441,-1.3923 -4.774,-1.559 -7,-0.5 -3.537,-0.1893 -6.87,0.4774 -10,2 -1.847,-1.073 -3.847,-1.073 -6,0 1.928,-1.9741 4.261,-3.4741 7,-4.5 3.986,-0.4988 7.986,-0.6655 12,-0.5 z"
         id="path69" />
    </g>
    <g
       id="g73"
       style="clip-rule:evenodd;fill-rule:evenodd;image-rendering:optimizeQuality;shape-rendering:geometricPrecision;text-rendering:geometricPrecision"
       transform="matrix(0.31261505,0,0,0.31261505,-10.823133,-6.046515)">
      <path
         style="opacity:1"
         fill="#f6988f"
         d="m 227.5,99.5 c 3.491,1.337 6.657,3.337 9.5,6 0.684,1.284 0.517,2.451 -0.5,3.5 -2.131,-0.398 -4.131,-1.398 -6,-3 -6.2,-1.635 -11.533,-0.301 -16,4 -2.522,1.341 -5.189,2.174 -8,2.5 1.098,-0.897 1.098,-1.73 0,-2.5 -13.173,-0.169 -26.173,-0.669 -39,-1.5 13.337,0.167 26.671,0 40,-0.5 4.005,-1.178 7.338,-3.345 10,-6.5 3.13,-1.5226 6.463,-2.1893 10,-2 z"
         id="path73" />
    </g>
    <g
       id="g82"
       style="clip-rule:evenodd;fill-rule:evenodd;image-rendering:optimizeQuality;shape-rendering:geometricPrecision;text-rendering:geometricPrecision"
       transform="matrix(0.31261505,0,0,0.31261505,-10.823133,-6.046515)">
      <path
         style="opacity:1"
         fill="#c84b41"
         d="m 195.5,103.5 c 1,1.333 2,1.333 3,0 1.884,0.212 3.217,1.212 4,3 -10.985,1.166 -21.985,1.332 -33,0.5 -0.667,-0.333 -1.333,-0.667 -2,-1 2.208,-0.191 4.208,-0.691 6,-1.5 0.826,-4.8165 1.326,-9.8165 1.5,-15 0.417,-1.256 1.25,-1.9226 2.5,-2 0,5.6667 0,11.3333 0,17 1,0 2,0 3,0 -0.308,-18.7132 0.026,-37.3798 1,-56 0.667,-0.3333 1.333,-0.6667 2,-1 4.717,-1.8923 8.217,-0.5589 10.5,4 0.168,17.5048 0.668,34.8382 1.5,52 z"
         id="path82" />
    </g>
    <g
       id="g83"
       style="clip-rule:evenodd;fill-rule:evenodd;image-rendering:optimizeQuality;shape-rendering:geometricPrecision;text-rendering:geometricPrecision"
       transform="matrix(0.31261505,0,0,0.31261505,-10.823133,-6.046515)">
      <path
         style="opacity:1"
         fill="#d94034"
         d="m 184.5,48.5 c 3.346,-0.065 5.846,1.2683 7.5,4 0.5,17.6635 0.667,35.3302 0.5,53 -3,0 -6,0 -9,0 -0.465,-11.4929 -0.798,-22.9929 -1,-34.5 0.034,-7.7346 0.701,-15.2346 2,-22.5 z"
         id="path83" />
    </g>
    <g
       id="g85"
       style="clip-rule:evenodd;fill-rule:evenodd;image-rendering:optimizeQuality;shape-rendering:geometricPrecision;text-rendering:geometricPrecision"
       transform="matrix(0.31261505,0,0,0.31261505,-10.823133,-6.046515)">
      <path
         style="opacity:1"
         fill="#f69e96"
         d="m 167.5,108.5 c -0.876,-0.131 -1.543,0.202 -2,1 1.27,0.788 2.27,1.788 3,3 -0.333,0 -0.667,0 -1,0 -4.317,-1.462 -8.317,-3.628 -12,-6.5 -5.567,-1.471 -10.401,-0.305 -14.5,3.5 -1.434,-0.43 -2.601,-1.264 -3.5,-2.5 1.922,-2.43 4.255,-4.263 7,-5.5 3.018,-1.963 6.351,-2.463 10,-1.5 4.779,2.303 9.113,5.136 13,8.5 z"
         id="path85" />
    </g>
    <g
       id="g86"
       style="clip-rule:evenodd;fill-rule:evenodd;image-rendering:optimizeQuality;shape-rendering:geometricPrecision;text-rendering:geometricPrecision"
       transform="matrix(0.31261505,0,0,0.31261505,-10.823133,-6.046515)">
      <path
         style="opacity:1"
         fill="#be534c"
         d="m 201.5,87.5 c 0.667,0 1,0.3333 1,1 0,5.3333 0,10.6667 0,16 1.599,0.268 2.932,-0.066 4,-1 2.014,0.108 3.68,-0.558 5,-2 2.153,-1.073 4.153,-1.073 6,0 -2.662,3.155 -5.995,5.322 -10,6.5 -13.329,0.5 -26.663,0.667 -40,0.5 -3.887,-3.364 -8.221,-6.197 -13,-8.5 -3.649,-0.963 -6.982,-0.463 -10,1.5 0.131,-0.876 -0.202,-1.5431 -1,-2 -1.95,0.872 -3.95,1.539 -6,2 1.271,-2.4339 3.271,-3.9339 6,-4.5 3.986,-0.4988 7.986,-0.6655 12,-0.5 3.639,1.1528 6.972,2.8195 10,5 1.891,2.672 4.558,3.672 8,3 -1.792,0.809 -3.792,1.309 -6,1.5 0.667,0.333 1.333,0.667 2,1 11.015,0.832 22.015,0.666 33,-0.5 -0.783,-1.788 -2.116,-2.788 -4,-3 0,-5.3333 0,-10.6667 0,-16 1,0 2,0 3,0 z"
         id="path86" />
    </g>
    <g
       id="g87"
       style="clip-rule:evenodd;fill-rule:evenodd;image-rendering:optimizeQuality;shape-rendering:geometricPrecision;text-rendering:geometricPrecision"
       transform="matrix(0.31261505,0,0,0.31261505,-10.823133,-6.046515)">
      <path
         style="opacity:1"
         fill="#f5b5b1"
         d="m 173.5,97.5 c 0,2.3333 0,4.667 0,7 -3.442,0.672 -6.109,-0.328 -8,-3 2.058,1.433 4.392,2.1 7,2 -0.295,-2.235 0.039,-4.2354 1,-6 z"
         id="path87" />
    </g>
    <g
       id="g89"
       style="clip-rule:evenodd;fill-rule:evenodd;image-rendering:optimizeQuality;shape-rendering:geometricPrecision;text-rendering:geometricPrecision"
       transform="matrix(0.31261505,0,0,0.31261505,-10.823133,-6.046515)">
      <path
         style="opacity:1"
         fill="#f8ddd9"
         d="m 155.5,96.5 c -4.014,-0.1655 -8.014,0.0012 -12,0.5 -2.729,0.5661 -4.729,2.0661 -6,4.5 -1,0.333 -1.667,1 -2,2 -6.274,5.443 -12.108,11.443 -17.5,18 -1.202,2.177 -1.702,4.511 -1.5,7 -1.225,-0.652 -1.892,-1.819 -2,-3.5 0.655,-3.818 2.655,-6.651 6,-8.5 -1.109,-1.714 -0.442,-2.381 2,-2 3.519,-7.691 9.019,-13.691 16.5,-18 5.642,-1.2856 11.142,-1.2856 16.5,0 z"
         id="path89" />
    </g>
    <g
       id="g90"
       style="clip-rule:evenodd;fill-rule:evenodd;image-rendering:optimizeQuality;shape-rendering:geometricPrecision;text-rendering:geometricPrecision"
       transform="matrix(0.31261505,0,0,0.31261505,-10.823133,-6.046515)">
      <path
         style="opacity:1"
         fill="#bf5047"
         d="m 248.5,111.5 c 4.027,3.36 7.694,7.027 11,11 0.7,10.818 -3.634,13.651 -13,8.5 -5.684,-7.345 -11.684,-14.345 -18,-21 -2,-0.667 -4,-0.667 -6,0 -3.969,1.984 -7.969,3.984 -12,6 -2.982,0.498 -5.982,0.665 -9,0.5 -5.574,-1.953 -11.574,-2.62 -18,-2 -0.333,2 -0.667,4 -1,6 -1.89,0.203 -3.39,-0.463 -4.5,-2 -0.167,0.333 -0.333,0.667 -0.5,1 1.389,2.368 2.722,4.701 4,7 -1.956,-1.614 -3.956,-3.281 -6,-5 0.172,-0.992 -0.162,-1.658 -1,-2 0,-1 0,-2 0,-3 -3.35,0.165 -6.683,-0.002 -10,-0.5 -0.916,-0.278 -1.582,-0.778 -2,-1.5 2.281,0.423 3.948,-0.244 5,-2 0.333,0 0.667,0 1,0 12.667,1.333 25.333,1.333 38,0 2.811,-0.326 5.478,-1.159 8,-2.5 4.467,-4.301 9.8,-5.635 16,-4 1.869,1.602 3.869,2.602 6,3 1.017,-1.049 1.184,-2.216 0.5,-3.5 -2.843,-2.663 -6.009,-4.663 -9.5,-6 2.226,-1.059 4.559,-0.8923 7,0.5 4.584,4.099 9.25,7.933 14,11.5 z"
         id="path90" />
    </g>
    <g
       id="g94"
       style="clip-rule:evenodd;fill-rule:evenodd;image-rendering:optimizeQuality;shape-rendering:geometricPrecision;text-rendering:geometricPrecision"
       transform="matrix(0.31261505,0,0,0.31261505,-10.823133,-6.046515)">
      <path
         style="opacity:1"
         fill="#f8ada5"
         d="m 167.5,108.5 c 12.827,0.831 25.827,1.331 39,1.5 1.098,0.77 1.098,1.603 0,2.5 -12.667,1.333 -25.333,1.333 -38,0 -0.73,-1.212 -1.73,-2.212 -3,-3 0.457,-0.798 1.124,-1.131 2,-1 z"
         id="path94" />
    </g>
    <g
       id="g97"
       style="clip-rule:evenodd;fill-rule:evenodd;image-rendering:optimizeQuality;shape-rendering:geometricPrecision;text-rendering:geometricPrecision"
       transform="matrix(0.31261505,0,0,0.31261505,-10.823133,-6.046515)">
      <path
         style="opacity:1"
         fill="#bf463e"
         d="m 144.5,101.5 c -2.745,1.237 -5.078,3.07 -7,5.5 0.899,1.236 2.066,2.07 3.5,2.5 4.099,-3.805 8.933,-4.971 14.5,-3.5 3.683,2.872 7.683,5.038 12,6.5 -1.052,1.756 -2.719,2.423 -5,2 -3.169,-1.417 -6.169,-3.083 -9,-5 -1.788,-1.122 -3.788,-1.289 -6,-0.5 -1.602,2.111 -3.602,3.611 -6,4.5 -1.626,-1.952 -3.626,-3.286 -6,-4 -1.141,-1.951 -1.141,-3.951 0,-6 0.333,-1 1,-1.667 2,-2 2.05,-0.461 4.05,-1.128 6,-2 0.798,0.4569 1.131,1.124 1,2 z"
         id="path97" />
    </g>
    <g
       id="g102"
       style="clip-rule:evenodd;fill-rule:evenodd;image-rendering:optimizeQuality;shape-rendering:geometricPrecision;text-rendering:geometricPrecision"
       transform="matrix(0.31261505,0,0,0.31261505,-10.823133,-6.046515)">
      <path
         style="opacity:1"
         fill="#c7695f"
         d="m 153.5,109.5 c -1.699,-0.16 -3.366,0.006 -5,0.5 -2.617,2.442 -4.95,4.942 -7,7.5 -1.333,1 -2.667,2 -4,3 -0.605,-1.981 -1.605,-2.315 -3,-1 0.889,-2.236 2.222,-4.236 4,-6 -1.024,-1.352 -2.024,-2.685 -3,-4 2.374,0.714 4.374,2.048 6,4 2.398,-0.889 4.398,-2.389 6,-4.5 2.212,-0.789 4.212,-0.622 6,0.5 z"
         id="path102" />
    </g>
    <g
       id="g103"
       style="clip-rule:evenodd;fill-rule:evenodd;image-rendering:optimizeQuality;shape-rendering:geometricPrecision;text-rendering:geometricPrecision"
       transform="matrix(0.31261505,0,0,0.31261505,-10.823133,-6.046515)">
      <path
         style="opacity:1"
         fill="#f7d3cf"
         d="m 153.5,109.5 c 2.831,1.917 5.831,3.583 9,5 0.418,0.722 1.084,1.222 2,1.5 3.317,0.498 6.65,0.665 10,0.5 0,1 0,2 0,3 -5.062,-1.756 -10.395,-2.922 -16,-3.5 -1.881,-2.344 -4.214,-3.844 -7,-4.5 -1,0.167 -2,0.333 -3,0.5 -1.922,2.43 -4.255,4.263 -7,5.5 2.05,-2.558 4.383,-5.058 7,-7.5 1.634,-0.494 3.301,-0.66 5,-0.5 z"
         id="path103" />
    </g>
    <g
       id="g108"
       style="clip-rule:evenodd;fill-rule:evenodd;image-rendering:optimizeQuality;shape-rendering:geometricPrecision;text-rendering:geometricPrecision"
       transform="matrix(0.31261505,0,0,0.31261505,-10.823133,-6.046515)">
      <path
         style="opacity:1"
         fill="#f8a098"
         d="m 240.5,109.5 c 0.739,-0.131 1.406,0.036 2,0.5 4.5,5.167 9,10.333 13.5,15.5 0.684,1.284 0.517,2.451 -0.5,3.5 -1.667,0.667 -3.333,0.667 -5,0 -4.167,-4.833 -8.333,-9.667 -12.5,-14.5 0.058,-1.935 0.891,-3.602 2.5,-5 z"
         id="path108" />
    </g>
    <g
       id="g120"
       style="clip-rule:evenodd;fill-rule:evenodd;image-rendering:optimizeQuality;shape-rendering:geometricPrecision;text-rendering:geometricPrecision"
       transform="matrix(0.31261505,0,0,0.31261505,-10.823133,-6.046515)">
      <path
         style="opacity:1"
         fill="#c36359"
         d="m 201.5,116.5 c 0,0.333 0,0.667 0,1 -0.393,1.784 -1.059,3.45 -2,5 -0.772,1.194 -1.772,2.194 -3,3 -0.906,-2.936 -1.572,-5.936 -2,-9 1.643,-0.02 2.976,0.647 4,2 1.018,-0.693 2.018,-1.359 3,-2 z"
         id="path120" />
    </g>
    <g
       id="g125"
       style="clip-rule:evenodd;fill-rule:evenodd;image-rendering:optimizeQuality;shape-rendering:geometricPrecision;text-rendering:geometricPrecision"
       transform="matrix(0.31261505,0,0,0.31261505,-10.823133,-6.046515)">
      <path
         style="opacity:1"
         fill="#f79f95"
         d="m 135.5,109.5 c 0.976,1.315 1.976,2.648 3,4 -1.778,1.764 -3.111,3.764 -4,6 -3.499,2.666 -6.499,5.833 -9,9.5 -2.737,1.08 -4.404,0.246 -5,-2.5 2.665,-4.648 5.832,-8.981 9.5,-13 1.451,-1.964 3.284,-3.297 5.5,-4 z"
         id="path125" />
    </g>
    <g
       id="g132"
       style="clip-rule:evenodd;fill-rule:evenodd;image-rendering:optimizeQuality;shape-rendering:geometricPrecision;text-rendering:geometricPrecision"
       transform="matrix(0.31261505,0,0,0.31261505,-10.823133,-6.046515)">
      <path
         style="opacity:1"
         fill="#bb5048"
         d="m 135.5,103.5 c -1.141,2.049 -1.141,4.049 0,6 -2.216,0.703 -4.049,2.036 -5.5,4 -3.668,4.019 -6.835,8.352 -9.5,13 0.596,2.746 2.263,3.58 5,2.5 2.501,-3.667 5.501,-6.834 9,-9.5 1.395,-1.315 2.395,-0.981 3,1 -3.096,4.273 -6.43,8.44 -10,12.5 -4.54,1.338 -8.207,0.171 -11,-3.5 0,-0.333 0,-0.667 0,-1 -0.202,-2.489 0.298,-4.823 1.5,-7 5.392,-6.557 11.226,-12.557 17.5,-18 z"
         id="path132" />
    </g>
    <g
       id="g141"
       style="clip-rule:evenodd;fill-rule:evenodd;image-rendering:optimizeQuality;shape-rendering:geometricPrecision;text-rendering:geometricPrecision"
       transform="matrix(0.31261505,0,0,0.31261505,-10.823133,-6.046515)">
      <path
         style="opacity:1"
         fill="#f4d1ce"
         d="m 141.5,117.5 c -4.05,6.228 -8.716,12.062 -14,17.5 -5.35,1.325 -9.017,-0.508 -11,-5.5 2.793,3.671 6.46,4.838 11,3.5 3.57,-4.06 6.904,-8.227 10,-12.5 1.333,-1 2.667,-2 4,-3 z"
         id="path141" />
    </g>
    <g
       id="g144"
       style="clip-rule:evenodd;fill-rule:evenodd;image-rendering:optimizeQuality;shape-rendering:geometricPrecision;text-rendering:geometricPrecision"
       transform="matrix(0.31261505,0,0,0.31261505,-10.823133,-6.046515)">
      <path
         style="opacity:1"
         fill="#f7deda"
         d="m 259.5,122.5 c 2.883,4.205 2.216,8.038 -2,11.5 -4.921,3.536 -9.421,3.036 -13.5,-1.5 -5.571,-6.565 -10.738,-13.399 -15.5,-20.5 -1.372,-0.402 -2.705,-0.902 -4,-1.5 -3.777,1.935 -7.443,4.102 -11,6.5 -3.986,0.499 -7.986,0.666 -12,0.5 0,-0.333 0,-0.667 0,-1 3.018,0.165 6.018,-0.002 9,-0.5 4.031,-2.016 8.031,-4.016 12,-6 2,-0.667 4,-0.667 6,0 6.316,6.655 12.316,13.655 18,21 9.366,5.151 13.7,2.318 13,-8.5 z"
         id="path144" />
    </g>
    <g
       id="g152"
       style="clip-rule:evenodd;fill-rule:evenodd;image-rendering:optimizeQuality;shape-rendering:geometricPrecision;text-rendering:geometricPrecision"
       transform="matrix(0.31261505,0,0,0.31261505,-10.823133,-6.046515)">
      <path
         style="opacity:1"
         fill="#c36f68"
         d="m 194.5,126.5 c -0.33,18.174 0.003,36.174 1,54 2.333,0.333 3.667,1.667 4,4 -1,0 -2,0 -3,0 0.085,-1.495 -0.581,-2.495 -2,-3 -1.327,-18.496 -1.327,-36.829 0,-55 z"
         id="path152" />
    </g>
    <g
       id="g155"
       style="clip-rule:evenodd;fill-rule:evenodd;image-rendering:optimizeQuality;shape-rendering:geometricPrecision;text-rendering:geometricPrecision"
       transform="matrix(0.31261505,0,0,0.31261505,-10.823133,-6.046515)">
      <path
         style="opacity:1"
         fill="#f9c3bf"
         d="m 199.5,122.5 c 0.223,2.614 -0.944,4.281 -3.5,5 -0.5,17.664 -0.667,35.33 -0.5,53 -0.997,-17.826 -1.33,-35.826 -1,-54 0.667,-0.333 1.333,-0.667 2,-1 1.228,-0.806 2.228,-1.806 3,-3 z"
         id="path155" />
    </g>
    <g
       id="g160"
       style="clip-rule:evenodd;fill-rule:evenodd;image-rendering:optimizeQuality;shape-rendering:geometricPrecision;text-rendering:geometricPrecision"
       transform="matrix(0.31261505,0,0,0.31261505,-10.823133,-6.046515)">
      <path
         style="opacity:1"
         fill="#f7c4be"
         d="m 175.5,121.5 c 2.044,1.719 4.044,3.386 6,5 0,18.333 0,36.667 0,55 -1.667,0 -3.333,0 -5,0 0,1 0,2 0,3 -1.291,0.237 -2.291,-0.096 -3,-1 0,-6.333 0,-12.667 0,-19 1.326,4.799 2.326,9.799 3,15 0.667,-0.333 1.333,-0.667 2,-1 0.818,-2.607 1.318,-5.274 1.5,-8 0.667,-14 0.667,-28 0,-42 -1.75,-2.234 -3.25,-4.568 -4.5,-7 z"
         id="path160" />
    </g>
    <g
       id="g167"
       style="clip-rule:evenodd;fill-rule:evenodd;image-rendering:optimizeQuality;shape-rendering:geometricPrecision;text-rendering:geometricPrecision"
       transform="matrix(0.31261505,0,0,0.31261505,-10.823133,-6.046515)">
      <path
         style="opacity:1"
         fill="#f3d1cf"
         d="m 173.5,164.5 c -2.945,-0.489 -5.278,-1.989 -7,-4.5 -6,-0.667 -12,-0.667 -18,0 -3.146,2.56 -3.813,5.727 -2,9.5 -0.617,-0.111 -1.117,-0.444 -1.5,-1 -0.701,-3.428 -0.368,-6.762 1,-10 0.914,1.154 1.747,0.987 2.5,-0.5 6.692,-0.831 13.358,-0.664 20,0.5 2.031,1.81 3.698,3.81 5,6 z"
         id="path167" />
    </g>
    <g
       id="g174"
       style="clip-rule:evenodd;fill-rule:evenodd;image-rendering:optimizeQuality;shape-rendering:geometricPrecision;text-rendering:geometricPrecision"
       transform="matrix(0.31261505,0,0,0.31261505,-10.823133,-6.046515)">
      <path
         style="opacity:1"
         fill="#c1493e"
         d="m 201.5,116.5 c -0.982,0.641 -1.982,1.307 -3,2 -1.024,-1.353 -2.357,-2.02 -4,-2 0.428,3.064 1.094,6.064 2,9 -0.667,0.333 -1.333,0.667 -2,1 -1.327,18.171 -1.327,36.504 0,55 1.419,0.505 2.085,1.505 2,3 -1.324,3.607 -1.991,7.607 -2,12 0.167,4 0.333,8 0.5,12 0.513,1.027 1.013,2.027 1.5,3 0.077,3.715 -0.256,7.381 -1,11 -0.653,-3.593 -1.486,-7.259 -2.5,-11 -1.848,-2.541 -4.348,-3.541 -7.5,-3 1.576,-0.643 2.91,-1.643 4,-3 0.998,-29.162 1.331,-58.495 1,-88 -1.667,0 -3.333,0 -5,0 0,3.333 0,6.667 0,10 -1.695,1.326 -3.028,0.993 -4,-1 -1.278,-2.299 -2.611,-4.632 -4,-7 0.167,-0.333 0.333,-0.667 0.5,-1 1.11,1.537 2.61,2.203 4.5,2 0.333,-2 0.667,-4 1,-6 6.426,-0.62 12.426,0.047 18,2 z"
         id="path174" />
    </g>
    <g
       id="g179"
       style="clip-rule:evenodd;fill-rule:evenodd;image-rendering:optimizeQuality;shape-rendering:geometricPrecision;text-rendering:geometricPrecision"
       transform="matrix(0.31261505,0,0,0.31261505,-10.823133,-6.046515)">
      <path
         style="opacity:1"
         fill="#f6948a"
         d="m 189.5,205.5 c -1.983,0.343 -3.317,-0.324 -4,-2 0,-25.333 0,-50.667 0,-76 0,-3.333 0,-6.667 0,-10 1.667,0 3.333,0 5,0 0.331,29.505 -0.002,58.838 -1,88 z"
         id="path179" />
    </g>
    <g
       id="g180"
       style="clip-rule:evenodd;fill-rule:evenodd;image-rendering:optimizeQuality;shape-rendering:geometricPrecision;text-rendering:geometricPrecision"
       transform="matrix(0.31261505,0,0,0.31261505,-10.823133,-6.046515)">
      <path
         style="opacity:1"
         fill="#faada2"
         d="m 187.5,128.5 c 0.617,0.111 1.117,0.444 1.5,1 0.833,21.008 0.666,42.008 -0.5,63 -0.586,0.209 -1.086,0.543 -1.5,1 -0.821,-21.739 -0.655,-43.406 0.5,-65 z"
         id="path180" />
    </g>
    <g
       id="g184"
       style="clip-rule:evenodd;fill-rule:evenodd;image-rendering:optimizeQuality;shape-rendering:geometricPrecision;text-rendering:geometricPrecision"
       transform="matrix(0.31261505,0,0,0.31261505,-10.823133,-6.046515)">
      <path
         style="opacity:1"
         fill="#f9dbd7"
         d="m 167.5,168.5 c 1.953,5.574 2.62,11.574 2,18 -0.722,-0.418 -1.222,-1.084 -1.5,-2 -0.499,-3.986 -0.666,-7.986 -0.5,-12 -6.675,0.166 -13.342,0 -20,-0.5 -0.752,-0.671 -1.086,-1.504 -1,-2.5 3.203,1.586 6.703,2.253 10.5,2 3.021,-0.002 5.854,-0.336 8.5,-1 1,-0.333 1.667,-1 2,-2 z"
         id="path184" />
    </g>
    <g
       id="g186"
       style="clip-rule:evenodd;fill-rule:evenodd;image-rendering:optimizeQuality;shape-rendering:geometricPrecision;text-rendering:geometricPrecision"
       transform="matrix(0.31261505,0,0,0.31261505,-10.823133,-6.046515)">
      <path
         style="opacity:1"
         fill="#b2554f"
         d="m 173.5,164.5 c 0,6.333 0,12.667 0,19 -2.314,0.679 -2.647,2.012 -1,4 1.189,0.929 2.522,1.262 4,1 0.325,7.852 -0.008,15.518 -1,23 0,-4.667 0,-9.333 0,-14 0,-2.667 0,-5.333 0,-8 -1.333,0 -2.667,0 -4,0 -0.667,0 -1,-0.333 -1,-1 0.628,-7.413 -0.039,-14.413 -2,-21 0.481,-3.849 -1.186,-5.849 -5,-6 -4.481,-1.148 -9.148,-1.315 -14,-0.5 -2.667,3 -2.667,6 0,9 5.323,0.499 10.656,0.666 16,0.5 -2.646,0.664 -5.479,0.998 -8.5,1 -3.797,0.253 -7.297,-0.414 -10.5,-2 -1.813,-3.773 -1.146,-6.94 2,-9.5 6,-0.667 12,-0.667 18,0 1.722,2.511 4.055,4.011 7,4.5 z"
         id="path186" />
    </g>
    <g
       id="g187"
       style="clip-rule:evenodd;fill-rule:evenodd;image-rendering:optimizeQuality;shape-rendering:geometricPrecision;text-rendering:geometricPrecision"
       transform="matrix(0.31261505,0,0,0.31261505,-10.823133,-6.046515)">
      <path
         style="opacity:1"
         fill="#d54037"
         d="m 163.5,161.5 c 3.814,0.151 5.481,2.151 5,6 -0.333,0 -0.667,0 -1,0 -5.977,0.665 -11.977,0.998 -18,1 0.174,-2.361 0.507,-4.694 1,-7 4.333,0 8.667,0 13,0 z"
         id="path187" />
    </g>
    <g
       id="g188"
       style="clip-rule:evenodd;fill-rule:evenodd;image-rendering:optimizeQuality;shape-rendering:geometricPrecision;text-rendering:geometricPrecision"
       transform="matrix(0.31261505,0,0,0.31261505,-10.823133,-6.046515)">
      <path
         style="opacity:1"
         fill="#c44a40"
         d="m 163.5,161.5 c -4.333,0 -8.667,0 -13,0 -0.493,2.306 -0.826,4.639 -1,7 6.023,-0.002 12.023,-0.335 18,-1 0,0.333 0,0.667 0,1 -0.333,1 -1,1.667 -2,2 -5.344,0.166 -10.677,-0.001 -16,-0.5 -2.667,-3 -2.667,-6 0,-9 4.852,-0.815 9.519,-0.648 14,0.5 z"
         id="path188" />
    </g>
    <g
       id="g189"
       style="clip-rule:evenodd;fill-rule:evenodd;image-rendering:optimizeQuality;shape-rendering:geometricPrecision;text-rendering:geometricPrecision"
       transform="matrix(0.31261505,0,0,0.31261505,-10.823133,-6.046515)">
      <path
         style="opacity:1"
         fill="#d98f88"
         d="m 167.5,168.5 c 0,-0.333 0,-0.667 0,-1 0.333,0 0.667,0 1,0 1.961,6.587 2.628,13.587 2,21 -0.838,-0.342 -1.172,-1.008 -1,-2 0.62,-6.426 -0.047,-12.426 -2,-18 z"
         id="path189" />
    </g>
    <g
       id="g190"
       style="clip-rule:evenodd;fill-rule:evenodd;image-rendering:optimizeQuality;shape-rendering:geometricPrecision;text-rendering:geometricPrecision"
       transform="matrix(0.31261505,0,0,0.31261505,-10.823133,-6.046515)">
      <path
         style="opacity:1"
         fill="#bf534a"
         d="m 181.5,126.5 c 0.972,1.993 2.305,2.326 4,1 0,25.333 0,50.667 0,76 -0.819,-2.805 -1.319,-5.805 -1.5,-9 -0.383,0.556 -0.883,0.889 -1.5,1 0.165,-3.35 -0.002,-6.683 -0.5,-10 -0.414,-0.457 -0.914,-0.791 -1.5,-1 -0.8,8.001 -1.466,16.001 -2,24 -1.084,6.175 -2.084,12.509 -3,19 0.085,1.833 0.752,3.166 2,4 -2.253,3.768 -4.753,7.435 -7.5,11 -1.019,5.46 1.147,8.96 6.5,10.5 6.992,0.5 13.992,0.666 21,0.5 1.644,0.214 3.144,-0.12 4.5,-1 0.814,2.402 0.647,4.735 -0.5,7 -0.683,-0.363 -1.35,-0.696 -2,-1 -0.683,-1.676 -2.017,-2.343 -4,-2 0,14.667 0,29.333 0,44 -4.56,6.268 -9.56,6.602 -15,1 0,-14.667 0,-29.333 0,-44 -1.068,-0.934 -2.401,-1.268 -4,-1 0.262,1.478 -0.071,2.811 -1,4 -0.974,-2.243 -1.308,-4.576 -1,-7 -1.667,0 -3.333,0 -5,0 -2.824,-3.86 -3.658,-8.193 -2.5,-13 1.63,-3.129 3.464,-6.129 5.5,-9 0.333,0 0.667,0 1,0 0.829,-6.509 1.495,-13.176 2,-20 0.992,-7.482 1.325,-15.148 1,-23 -1.478,0.262 -2.811,-0.071 -4,-1 -1.647,-1.988 -1.314,-3.321 1,-4 0.709,0.904 1.709,1.237 3,1 0,-1 0,-2 0,-3 1.667,0 3.333,0 5,0 0,-18.333 0,-36.667 0,-55 z"
         id="path190" />
    </g>
    <g
       id="g203"
       style="clip-rule:evenodd;fill-rule:evenodd;image-rendering:optimizeQuality;shape-rendering:geometricPrecision;text-rendering:geometricPrecision"
       transform="matrix(0.31261505,0,0,0.31261505,-10.823133,-6.046515)">
      <path
         style="opacity:1"
         fill="#f5877f"
         d="m 182.5,195.5 c -0.825,4.147 -1.325,8.481 -1.5,13 -1.67,5.092 -2.503,5.092 -2.5,0 0.534,-7.999 1.2,-15.999 2,-24 0.586,0.209 1.086,0.543 1.5,1 0.498,3.317 0.665,6.65 0.5,10 z"
         id="path203" />
    </g>
    <g
       id="g206"
       style="clip-rule:evenodd;fill-rule:evenodd;image-rendering:optimizeQuality;shape-rendering:geometricPrecision;text-rendering:geometricPrecision"
       transform="matrix(0.31261505,0,0,0.31261505,-10.823133,-6.046515)">
      <path
         style="opacity:1"
         fill="#f7948a"
         d="m 196.5,184.5 c 0.238,8.671 0.572,17.338 1,26 0,0.667 -0.333,1 -1,1 -0.487,-0.973 -0.987,-1.973 -1.5,-3 -0.167,-4 -0.333,-8 -0.5,-12 0.009,-4.393 0.676,-8.393 2,-12 z"
         id="path206" />
    </g>
    <g
       id="g207"
       style="clip-rule:evenodd;fill-rule:evenodd;image-rendering:optimizeQuality;shape-rendering:geometricPrecision;text-rendering:geometricPrecision"
       transform="matrix(0.31261505,0,0,0.31261505,-10.823133,-6.046515)">
      <path
         style="opacity:1"
         fill="#f4b0ac"
         d="m 206.5,186.5 c 0.667,5.667 1.333,11.333 2,17 0,0.333 0,0.667 0,1 -0.667,0 -1.333,0 -2,0 0,-6 0,-12 0,-18 z"
         id="path207" />
    </g>
    <g
       id="g209"
       style="clip-rule:evenodd;fill-rule:evenodd;image-rendering:optimizeQuality;shape-rendering:geometricPrecision;text-rendering:geometricPrecision"
       transform="matrix(0.31261505,0,0,0.31261505,-10.823133,-6.046515)">
      <path
         style="opacity:1"
         fill="#de837c"
         d="m 203.5,208.5 c -0.821,-3.141 -1.321,-6.475 -1.5,-10 -0.416,8.674 -0.25,17.341 0.5,26 -0.333,0 -0.667,0 -1,0 -0.802,-11.648 -1.135,-23.315 -1,-35 1,0 2,0 3,0 0,6.333 0,12.667 0,19 z"
         id="path209" />
    </g>
    <g
       id="g210"
       style="clip-rule:evenodd;fill-rule:evenodd;image-rendering:optimizeQuality;shape-rendering:geometricPrecision;text-rendering:geometricPrecision"
       transform="matrix(0.31261505,0,0,0.31261505,-10.823133,-6.046515)">
      <path
         style="opacity:1"
         fill="#db9b96"
         d="m 209.5,202.5 c 6.153,-1.153 12.486,-1.32 19,-0.5 0.556,0.383 0.889,0.883 1,1.5 -6.609,-0.923 -13.276,-1.256 -20,-1 z"
         id="path210" />
    </g>
    <g
       id="g213"
       style="clip-rule:evenodd;fill-rule:evenodd;image-rendering:optimizeQuality;shape-rendering:geometricPrecision;text-rendering:geometricPrecision"
       transform="matrix(0.31261505,0,0,0.31261505,-10.823133,-6.046515)">
      <path
         style="opacity:1"
         fill="#cb473e"
         d="m 185.5,203.5 c 0.683,1.676 2.017,2.343 4,2 -1.09,1.357 -2.424,2.357 -4,3 -0.617,0.111 -1.117,0.444 -1.5,1 -1.622,4.532 -2.622,9.199 -3,14 -0.705,2.976 -1.871,5.642 -3.5,8 -1.248,-0.834 -1.915,-2.167 -2,-4 0.916,-6.491 1.916,-12.825 3,-19 -0.003,5.092 0.83,5.092 2.5,0 0.175,-4.519 0.675,-8.853 1.5,-13 0.617,-0.111 1.117,-0.444 1.5,-1 0.181,3.195 0.681,6.195 1.5,9 z"
         id="path213" />
    </g>
    <g
       id="g215"
       style="clip-rule:evenodd;fill-rule:evenodd;image-rendering:optimizeQuality;shape-rendering:geometricPrecision;text-rendering:geometricPrecision"
       transform="matrix(0.31261505,0,0,0.31261505,-10.823133,-6.046515)">
      <path
         style="opacity:1"
         fill="#ba4b43"
         d="m 196.5,184.5 c 1,0 2,0 3,0 2.333,0.667 4.667,1.333 7,2 0,6 0,12 0,18 -0.617,-0.111 -1.117,-0.444 -1.5,-1 -0.667,1.333 -0.667,2.667 0,4 1.833,1.167 3.333,2.667 4.5,4.5 5.387,0.784 10.72,0.618 16,-0.5 2.033,-1.952 2.366,-4.118 1,-6.5 -5.991,-0.499 -11.991,-0.666 -18,-0.5 0,-0.333 0,-0.667 0,-1 0.667,0 1,-0.333 1,-1 6.724,-0.256 13.391,0.077 20,1 0.333,0.667 0.667,1.333 1,2 0.175,2.121 -0.159,4.121 -1,6 -6.424,1.873 -13.091,2.54 -20,2 -1.904,-1.822 -3.904,-3.488 -6,-5 0,-6.333 0,-12.667 0,-19 -1,0 -2,0 -3,0 -0.135,11.685 0.198,23.352 1,35 0.162,2.027 -0.005,4.027 -0.5,6 -0.671,0.752 -1.504,1.086 -2.5,1 -0.333,-0.667 -0.667,-1.333 -1,-2 0.996,0.086 1.829,-0.248 2.5,-1 0.478,-5.368 0.145,-10.701 -1,-16 -0.278,-0.916 -0.778,-1.582 -1.5,-2 -0.428,-8.662 -0.762,-17.329 -1,-26 z"
         id="path215" />
    </g>
    <g
       id="g216"
       style="clip-rule:evenodd;fill-rule:evenodd;image-rendering:optimizeQuality;shape-rendering:geometricPrecision;text-rendering:geometricPrecision"
       transform="matrix(0.31261505,0,0,0.31261505,-10.823133,-6.046515)">
      <path
         style="opacity:1"
         fill="#d24136"
         d="m 206.5,204.5 c 0.667,0 1.333,0 2,0 6.009,-0.166 12.009,0.001 18,0.5 1.366,2.382 1.033,4.548 -1,6.5 -5.28,1.118 -10.613,1.284 -16,0.5 -1.167,-1.833 -2.667,-3.333 -4.5,-4.5 -0.667,-1.333 -0.667,-2.667 0,-4 0.383,0.556 0.883,0.889 1.5,1 z"
         id="path216" />
    </g>
    <g
       id="g218"
       style="clip-rule:evenodd;fill-rule:evenodd;image-rendering:optimizeQuality;shape-rendering:geometricPrecision;text-rendering:geometricPrecision"
       transform="matrix(0.31261505,0,0,0.31261505,-10.823133,-6.046515)">
      <path
         style="opacity:1"
         fill="#fae2df"
         d="m 171.5,189.5 c 1.333,0 2.667,0 4,0 0,2.667 0,5.333 0,8 -1.629,11.124 -2.296,22.458 -2,34 -0.333,0 -0.667,0 -1,0 -0.275,-12.69 0.058,-25.357 1,-38 -0.303,-1.614 -0.97,-2.948 -2,-4 z"
         id="path218" />
    </g>
    <g
       id="g219"
       style="clip-rule:evenodd;fill-rule:evenodd;image-rendering:optimizeQuality;shape-rendering:geometricPrecision;text-rendering:geometricPrecision"
       transform="matrix(0.31261505,0,0,0.31261505,-10.823133,-6.046515)">
      <path
         style="opacity:1"
         fill="#e59f99"
         d="m 175.5,197.5 c 0,4.667 0,9.333 0,14 -0.505,6.824 -1.171,13.491 -2,20 -0.296,-11.542 0.371,-22.876 2,-34 z"
         id="path219" />
    </g>
    <g
       id="g221"
       style="clip-rule:evenodd;fill-rule:evenodd;image-rendering:optimizeQuality;shape-rendering:geometricPrecision;text-rendering:geometricPrecision"
       transform="matrix(0.31261505,0,0,0.31261505,-10.823133,-6.046515)">
      <path
         style="opacity:1"
         fill="#f9d9d5"
         d="m 203.5,208.5 c 2.096,1.512 4.096,3.178 6,5 5.819,1.153 11.819,1.319 18,0.5 0.881,-0.708 1.547,-1.542 2,-2.5 0.841,-1.879 1.175,-3.879 1,-6 1.447,0.634 2.113,1.801 2,3.5 -0.871,2.552 -2.205,4.886 -4,7 -7.781,0.386 -15.448,0.552 -23,0.5 -1.739,6.698 -1.073,13.031 2,19 -4.444,-2.308 -6.111,-5.975 -5,-11 -0.75,-8.659 -0.916,-17.326 -0.5,-26 0.179,3.525 0.679,6.859 1.5,10 z"
         id="path221" />
    </g>
    <g
       id="g222"
       style="clip-rule:evenodd;fill-rule:evenodd;image-rendering:optimizeQuality;shape-rendering:geometricPrecision;text-rendering:geometricPrecision"
       transform="matrix(0.31261505,0,0,0.31261505,-10.823133,-6.046515)">
      <path
         style="opacity:1"
         fill="#be6a64"
         d="m 229.5,211.5 c -0.453,0.958 -1.119,1.792 -2,2.5 -6.181,0.819 -12.181,0.653 -18,-0.5 6.909,0.54 13.576,-0.127 20,-2 z"
         id="path222" />
    </g>
    <g
       id="g225"
       style="clip-rule:evenodd;fill-rule:evenodd;image-rendering:optimizeQuality;shape-rendering:geometricPrecision;text-rendering:geometricPrecision"
       transform="matrix(0.31261505,0,0,0.31261505,-10.823133,-6.046515)">
      <path
         style="opacity:1"
         fill="#cc3d34"
         d="m 197.5,210.5 c 0.722,0.418 1.222,1.084 1.5,2 1.145,5.299 1.478,10.632 1,16 -0.671,0.752 -1.504,1.086 -2.5,1 -1.439,-2.088 -2.106,-4.421 -2,-7 0.744,-3.619 1.077,-7.285 1,-11 0.667,0 1,-0.333 1,-1 z"
         id="path225" />
    </g>
    <g
       id="g235"
       style="clip-rule:evenodd;fill-rule:evenodd;image-rendering:optimizeQuality;shape-rendering:geometricPrecision;text-rendering:geometricPrecision"
       transform="matrix(0.31261505,0,0,0.31261505,-10.823133,-6.046515)">
      <path
         style="opacity:1"
         fill="#efada3"
         d="m 198.5,232.5 c 3.021,2.866 5.521,6.2 7.5,10 0.667,2 0.667,4 0,6 -0.383,0.556 -0.883,0.889 -1.5,1 -9.64,0.541 -19.306,0.874 -29,1 0.117,-1.984 -0.55,-3.65 -2,-5 0.615,-1.616 1.615,-2.949 3,-4 -0.525,-0.692 -1.192,-1.192 -2,-1.5 2.304,-3.59 4.804,-7.09 7.5,-10.5 0.392,-3.127 1.225,-6.127 2.5,-9 -0.949,-3.643 0.051,-6.81 3,-9.5 3.878,-0.124 5.878,1.876 6,6 -0.39,2.459 -1.724,4.126 -4,5 2.681,2.194 4.181,5.027 4.5,8.5 1.47,0.767 2.97,1.433 4.5,2 z"
         id="path235" />
    </g>
    <g
       id="g240"
       style="clip-rule:evenodd;fill-rule:evenodd;image-rendering:optimizeQuality;shape-rendering:geometricPrecision;text-rendering:geometricPrecision"
       transform="matrix(0.31261505,0,0,0.31261505,-10.823133,-6.046515)">
      <path
         style="opacity:1"
         fill="#f5d6d1"
         d="m 172.5,231.5 c -2.036,2.871 -3.87,5.871 -5.5,9 -1.158,4.807 -0.324,9.14 2.5,13 2.451,2.396 3.451,5.396 3,9 -0.764,-4.696 -3.264,-8.362 -7.5,-11 -0.999,-5.519 -0.499,-10.853 1.5,-16 2.036,-1.385 4.036,-2.718 6,-4 z"
         id="path240" />
    </g>
    <g
       id="g248"
       style="clip-rule:evenodd;fill-rule:evenodd;image-rendering:optimizeQuality;shape-rendering:geometricPrecision;text-rendering:geometricPrecision"
       transform="matrix(0.31261505,0,0,0.31261505,-10.823133,-6.046515)">
      <path
         style="opacity:1"
         fill="#f5a198"
         d="m 185.5,208.5 c 3.152,-0.541 5.652,0.459 7.5,3 1.014,3.741 1.847,7.407 2.5,11 -0.106,2.579 0.561,4.912 2,7 0.333,0.667 0.667,1.333 1,2 0,0.333 0,0.667 0,1 -1.53,-0.567 -3.03,-1.233 -4.5,-2 -0.319,-3.473 -1.819,-6.306 -4.5,-8.5 2.276,-0.874 3.61,-2.541 4,-5 -0.122,-4.124 -2.122,-6.124 -6,-6 -2.949,2.69 -3.949,5.857 -3,9.5 -1.275,2.873 -2.108,5.873 -2.5,9 -2.696,3.41 -5.196,6.91 -7.5,10.5 0.808,0.308 1.475,0.808 2,1.5 -1.385,1.051 -2.385,2.384 -3,4 1.45,1.35 2.117,3.016 2,5 9.694,-0.126 19.36,-0.459 29,-1 -2.112,1.706 -4.445,3.039 -7,4 -7.008,0.166 -14.008,0 -21,-0.5 -5.353,-1.54 -7.519,-5.04 -6.5,-10.5 2.747,-3.565 5.247,-7.232 7.5,-11 1.629,-2.358 2.795,-5.024 3.5,-8 0.378,-4.801 1.378,-9.468 3,-14 0.383,-0.556 0.883,-0.889 1.5,-1 z"
         id="path248" />
    </g>
    <g
       id="g252"
       style="clip-rule:evenodd;fill-rule:evenodd;image-rendering:optimizeQuality;shape-rendering:geometricPrecision;text-rendering:geometricPrecision"
       transform="matrix(0.31261505,0,0,0.31261505,-10.823133,-6.046515)">
      <path
         style="opacity:1"
         fill="#bc5950"
         d="m 201.5,224.5 c 0.333,0 0.667,0 1,0 -1.111,5.025 0.556,8.692 5,11 4.965,7.866 3.798,14.533 -3.5,20 -0.497,2.31 -0.663,4.643 -0.5,7 -1.956,1.675 -3.289,1.342 -4,-1 0,-1 0,-2 0,-3 0.65,0.304 1.317,0.637 2,1 1.147,-2.265 1.314,-4.598 0.5,-7 -1.356,0.88 -2.856,1.214 -4.5,1 2.555,-0.961 4.888,-2.294 7,-4 0.617,-0.111 1.117,-0.444 1.5,-1 0.667,-2 0.667,-4 0,-6 -1.979,-3.8 -4.479,-7.134 -7.5,-10 0,-0.333 0,-0.667 0,-1 0.996,0.086 1.829,-0.248 2.5,-1 0.495,-1.973 0.662,-3.973 0.5,-6 z"
         id="path252" />
    </g>
    <g
       id="g255"
       style="clip-rule:evenodd;fill-rule:evenodd;image-rendering:optimizeQuality;shape-rendering:geometricPrecision;text-rendering:geometricPrecision"
       transform="matrix(0.31261505,0,0,0.31261505,-10.823133,-6.046515)">
      <path
         style="opacity:1"
         fill="#d24439"
         d="m 180.5,255.5 c 1.973,-0.663 4.139,-0.996 6.5,-1 2.625,0.081 4.959,0.748 7,2 -0.053,14.659 -0.387,29.326 -1,44 -3.006,3.573 -6.339,3.906 -10,1 -0.333,-14.667 -0.667,-29.333 -1,-44 -0.278,-0.916 -0.778,-1.582 -1.5,-2 z"
         id="path255" />
    </g>
    <g
       id="g257"
       style="clip-rule:evenodd;fill-rule:evenodd;image-rendering:optimizeQuality;shape-rendering:geometricPrecision;text-rendering:geometricPrecision"
       transform="matrix(0.31261505,0,0,0.31261505,-10.823133,-6.046515)">
      <path
         style="opacity:1"
         fill="#c5645d"
         d="m 169.5,253.5 c 1.667,0 3.333,0 5,0 -0.308,2.424 0.026,4.757 1,7 0.929,-1.189 1.262,-2.522 1,-4 1.599,-0.268 2.932,0.066 4,1 -1,0 -2,0 -3,0 0.16,1.699 -0.006,3.366 -0.5,5 -0.671,0.752 -1.504,1.086 -2.5,1 -0.667,-0.333 -1.333,-0.667 -2,-1 0.451,-3.604 -0.549,-6.604 -3,-9 z"
         id="path257" />
    </g>
    <g
       id="g262"
       style="clip-rule:evenodd;fill-rule:evenodd;image-rendering:optimizeQuality;shape-rendering:geometricPrecision;text-rendering:geometricPrecision"
       transform="matrix(0.31261505,0,0,0.31261505,-10.823133,-6.046515)">
      <path
         style="opacity:1"
         fill="#f7cfcb"
         d="m 199.5,261.5 c 0.711,2.342 2.044,2.675 4,1 0.086,0.996 -0.248,1.829 -1,2.5 -1.902,0.199 -3.402,1.033 -4.5,2.5 -0.17,10.841 -0.67,21.508 -1.5,32 -0.333,-14.016 0.001,-28.016 1,-42 0.672,1.449 1.339,2.782 2,4 z"
         id="path262" />
    </g>
    <g
       id="g264"
       style="clip-rule:evenodd;fill-rule:evenodd;image-rendering:optimizeQuality;shape-rendering:geometricPrecision;text-rendering:geometricPrecision"
       transform="matrix(0.31261505,0,0,0.31261505,-10.823133,-6.046515)">
      <path
         style="opacity:1"
         fill="#f9c0bb"
         d="m 180.5,257.5 c 0,14.667 0,29.333 0,44 -0.831,-11.826 -1.331,-23.826 -1.5,-36 -1.622,-0.599 -3.122,-1.266 -4.5,-2 0.996,0.086 1.829,-0.248 2.5,-1 0.494,-1.634 0.66,-3.301 0.5,-5 1,0 2,0 3,0 z"
         id="path264" />
    </g>
    <g
       id="g278"
       style="clip-rule:evenodd;fill-rule:evenodd;image-rendering:optimizeQuality;shape-rendering:geometricPrecision;text-rendering:geometricPrecision"
       transform="matrix(0.31261505,0,0,0.31261505,-10.823133,-6.046515)">
      <path
         style="opacity:1"
         fill="#db3f33"
         d="m 184.5,257.5 c 2.333,0 4.667,0 7,0 1.206,8.326 1.206,16.66 0,25 -0.808,0.308 -1.475,0.808 -2,1.5 1.252,2.041 1.919,4.375 2,7 -0.167,2.167 -0.333,4.333 -0.5,6.5 -2.043,5.123 -4.21,4.956 -6.5,-0.5 0.924,-1.15 0.924,-2.15 0,-3 2.491,-0.626 2.491,-1.459 0,-2.5 0.061,-4.728 0.061,-9.394 0,-14 1.774,-0.687 3.441,-1.52 5,-2.5 -1.451,0.263 -2.784,0.096 -4,-0.5 2.677,-1.764 2.344,-2.93 -1,-3.5 0.667,-0.333 1.333,-0.667 2,-1 -1.889,-3.836 -2.555,-8.003 -2,-12.5 z"
         id="path278" />
    </g>
    <g
       id="g288"
       style="clip-rule:evenodd;fill-rule:evenodd;image-rendering:optimizeQuality;shape-rendering:geometricPrecision;text-rendering:geometricPrecision"
       transform="matrix(0.31261505,0,0,0.31261505,-10.823133,-6.046515)">
      <path
         style="opacity:1"
         fill="#eaa7a2"
         d="m 199.5,258.5 c 0,1 0,2 0,3 -0.661,-1.218 -1.328,-2.551 -2,-4 -0.999,13.984 -1.333,27.984 -1,42 0,0.667 -0.333,1 -1,1 0,-14.667 0,-29.333 0,-44 1.983,-0.343 3.317,0.324 4,2 z"
         id="path288" />
    </g>
  </g>
</svg>
