<?xml version="1.0" encoding="UTF-8" standalone="no"?>
<!-- Created with Inkscape (http://www.inkscape.org/) -->

<svg
   width="96mm"
   height="96mm"
   viewBox="0 0 96 96"
   version="1.1"
   id="svg1"
   inkscape:version="1.4.2 (ebf0e940, 2025-05-08)"
   sodipodi:docname="train.svg"
   xmlns:inkscape="http://www.inkscape.org/namespaces/inkscape"
   xmlns:sodipodi="http://sodipodi.sourceforge.net/DTD/sodipodi-0.dtd"
   xmlns="http://www.w3.org/2000/svg"
   xmlns:svg="http://www.w3.org/2000/svg">
  <sodipodi:namedview
     id="namedview1"
     pagecolor="#ffffff"
     bordercolor="#000000"
     borderopacity="0.25"
     inkscape:showpageshadow="2"
     inkscape:pageopacity="0.0"
     inkscape:pagecheckerboard="0"
     inkscape:deskcolor="#d1d1d1"
     inkscape:document-units="mm"
     inkscape:zoom="0.80444024"
     inkscape:cx="397.17059"
     inkscape:cy="362.36377"
     inkscape:window-width="1920"
     inkscape:window-height="1052"
     inkscape:window-x="0"
     inkscape:window-y="28"
     inkscape:window-maximized="0"
     inkscape:current-layer="layer1" />
  <defs
     id="defs1" />
  <g
     inkscape:label="Layer 1"
     inkscape:groupmode="layer"
     id="layer1">
    <g
       id="g5"
       style="clip-rule:evenodd;fill-rule:evenodd;image-rendering:optimizeQuality;shape-rendering:geometricPrecision;text-rendering:geometricPrecision"
       transform="matrix(0.26458333,0,0,0.26458333,-34.013874,5.6618398)">
      <path
         style="opacity:1"
         fill="#97201c"
         d="m 326.5,7.5 c 1.582,3.0877 3.748,5.7543 6.5,8 1.707,2.4088 2.54,5.0755 2.5,8 -2.287,-3.6219 -4.953,-6.9552 -8,-10 -9.695,-7.52758 -19.695,-7.86092 -30,-1 1.27,0.7876 2.27,1.7876 3,3 0.268,7.3222 -0.565,7.6555 -2.5,1 -1.011,-0.8366 -2.178,-1.17 -3.5,-1 0.319,2.2505 -0.181,4.2505 -1.5,6 -0.333,-1 -0.667,-2 -1,-3 -1,2.6667 -2,5.3333 -3,8 -2.312,15.5935 -3.812,31.2602 -4.5,47 -1.162,16.1615 -1.328,32.495 -0.5,49 0.671,0.752 1.504,1.086 2.5,1 -1.068,0.934 -2.401,1.268 -4,1 0,-23.333 0,-46.6667 0,-70 1.034,-9.7702 2.7,-19.4369 5,-29 1.968,-5.2685 4.468,-10.2685 7.5,-15 4.181,-2.06051 8.515,-3.72718 13,-5 6.184,0.63997 12.351,1.30664 18.5,2 z"
         id="path5" />
    </g>
    <g
       id="g6"
       style="clip-rule:evenodd;fill-rule:evenodd;image-rendering:optimizeQuality;shape-rendering:geometricPrecision;text-rendering:geometricPrecision"
       transform="matrix(0.26458333,0,0,0.26458333,-34.013874,5.6618398)">
      <path
         style="opacity:1"
         fill="#87332e"
         d="m 326.5,7.5 c -6.149,-0.69336 -12.316,-1.36003 -18.5,-2 -4.485,1.27282 -8.819,2.93949 -13,5 -3.032,4.7315 -5.532,9.7315 -7.5,15 -2.3,9.5631 -3.966,19.2298 -5,29 -0.333,0 -0.667,0 -1,0 0.251,-5.0068 0.584,-10.0068 1,-15 1.139,-11.2434 5.139,-21.4101 12,-30.5 10.47,-6.66685 21.137,-7.16685 32,-1.5 z"
         id="path6" />
    </g>
    <g
       id="g7"
       style="clip-rule:evenodd;fill-rule:evenodd;image-rendering:optimizeQuality;shape-rendering:geometricPrecision;text-rendering:geometricPrecision"
       transform="matrix(0.26458333,0,0,0.26458333,-34.013874,5.6618398)">
      <path
         style="opacity:1"
         fill="#7e312d"
         d="m 326.5,7.5 c 7.035,4.7197 11.035,11.3864 12,20 -1,-1.3333 -2,-2.6667 -3,-4 0.04,-2.9245 -0.793,-5.5912 -2.5,-8 -2.752,-2.2457 -4.918,-4.9123 -6.5,-8 z"
         id="path7" />
    </g>
    <g
       id="g14"
       style="clip-rule:evenodd;fill-rule:evenodd;image-rendering:optimizeQuality;shape-rendering:geometricPrecision;text-rendering:geometricPrecision"
       transform="matrix(0.26458333,0,0,0.26458333,-34.013874,5.6618398)">
      <path
         style="opacity:1"
         fill="#d23b32"
         d="m 322.5,23.5 c 0.838,-0.3417 1.172,-1.0084 1,-2 3.174,4.1767 6.008,3.8434 8.5,-1 1.333,3.3333 2.667,6.6667 4,10 0.459,6.421 1.459,12.7543 3,19 0.667,7 0.667,14 0,21 -5.034,-15.7873 -10.534,-31.454 -16.5,-47 z"
         id="path14" />
    </g>
    <g
       id="g15"
       style="clip-rule:evenodd;fill-rule:evenodd;image-rendering:optimizeQuality;shape-rendering:geometricPrecision;text-rendering:geometricPrecision"
       transform="matrix(0.26458333,0,0,0.26458333,-34.013874,5.6618398)">
      <path
         style="opacity:1"
         fill="#d03b32"
         d="m 300.5,15.5 c 0.565,2.805 1.565,5.4717 3,8 -1.25,0.0774 -2.083,0.744 -2.5,2 -5.634,16.0714 -11.134,32.0714 -16.5,48 0.688,-15.7398 2.188,-31.4065 4.5,-47 1,-2.6667 2,-5.3333 3,-8 0.333,1 0.667,2 1,3 1.319,-1.7495 1.819,-3.7495 1.5,-6 1.322,-0.17 2.489,0.1634 3.5,1 1.935,6.6555 2.768,6.3222 2.5,-1 z"
         id="path15" />
    </g>
    <g
       id="g16"
       style="clip-rule:evenodd;fill-rule:evenodd;image-rendering:optimizeQuality;shape-rendering:geometricPrecision;text-rendering:geometricPrecision"
       transform="matrix(0.26458333,0,0,0.26458333,-34.013874,5.6618398)">
      <path
         style="opacity:1"
         fill="#a7241d"
         d="m 303.5,23.5 c -4.859,15.4095 -10.025,30.7428 -15.5,46 -2.144,7.5439 -2.811,15.2106 -2,23 3.282,2.5825 4.282,5.9158 3,10 -6,3 -6,6 0,9 0.499,3.986 0.666,7.986 0.5,12 -1,0 -2,0 -3,0 -0.996,0.086 -1.829,-0.248 -2.5,-1 -0.828,-16.505 -0.662,-32.8385 0.5,-49 5.366,-15.9286 10.866,-31.9286 16.5,-48 0.417,-1.256 1.25,-1.9226 2.5,-2 z"
         id="path16" />
    </g>
    <g
       id="g17"
       style="clip-rule:evenodd;fill-rule:evenodd;image-rendering:optimizeQuality;shape-rendering:geometricPrecision;text-rendering:geometricPrecision"
       transform="matrix(0.26458333,0,0,0.26458333,-34.013874,5.6618398)">
      <path
         style="opacity:1"
         fill="#a82620"
         d="m 327.5,13.5 c 3.047,3.0448 5.713,6.3781 8,10 1,1.3333 2,2.6667 3,4 0.613,9.0124 1.446,18.0124 2.5,27 0.432,41.8478 0.598,83.514 0.5,125 0,0.333 0,0.667 0,1 -0.293,41.798 -0.46,83.798 -0.5,126 -0.383,-0.556 -0.883,-0.889 -1.5,-1 -3.44,-0.949 -4.774,-3.282 -4,-7 0.167,-1.667 0.333,-3.333 0.5,-5 4.514,-2.962 4.514,-5.962 0,-9 -0.667,-4 -0.667,-8 0,-12 1.298,-1.06 2.465,-2.226 3.5,-3.5 -3.362,-2.657 -4.695,-6.157 -4,-10.5 0.167,-2 0.333,-4 0.5,-6 4.502,-2.789 4.502,-5.455 0,-8 -0.667,-4.333 -0.667,-8.667 0,-13 4.533,-2.911 4.533,-5.911 0,-9 -0.667,-4.667 -0.667,-9.333 0,-14 4.629,-2.557 4.629,-5.224 0,-8 -0.667,-3.333 -0.667,-6.667 0,-10 2.988,-2.581 4.154,-5.914 3.5,-10 0,-1 0,-2 0,-3 -15.004,-0.167 -30.004,0 -45,0.5 2.751,0.943 5.417,1.776 8,2.5 -6,0 -12,0 -18,0 -0.878,4.587 0.622,7.92 4.5,10 0.752,3.394 0.585,6.727 -0.5,10 -2.244,0.503 -3.578,1.837 -4,4 1.286,1.79 2.786,3.457 4.5,5 0.667,4.333 0.667,8.667 0,13 -2.178,1.147 -3.678,2.813 -4.5,5 0.333,1.667 1.333,2.667 3,3 1.162,4.631 1.328,9.298 0.5,14 -4.654,3.087 -4.32,5.754 1,8 0.667,4 0.667,8 0,12 -5.32,2.246 -5.654,4.913 -1,8 0.667,4.333 0.667,8.667 0,13 -2.91,0.95 -4.077,2.95 -3.5,6 4.292,0.309 5.959,2.642 5,7 0.763,3.638 -0.57,5.971 -4,7 -0.974,2.243 -1.308,4.576 -1,7 3,0 6,0 9,0 -1.667,0.667 -3.333,1.333 -5,2 0,1 0,2 0,3 16,0 32,0 48,0 -15.825,0.996 -31.825,1.33 -48,1 -1.182,-2.509 -3.182,-3.843 -6,-4 0,-45.667 0,-91.333 0,-137 0,-0.667 0,-1.333 0,-2 -0.166,-6.675 0,-13.342 0.5,-20 0.308,-0.808 0.808,-1.475 1.5,-2 2.08,2.073 3.746,4.407 5,7 -0.126,2.968 -1.626,4.968 -4.5,6 -0.497,2.31 -0.663,4.643 -0.5,7 6,0 12,0 18,0 0.318,-4.532 -0.015,-8.866 -1,-13 0.845,-2.262 2.178,-2.929 4,-2 0,4.667 0,9.333 0,14 3.682,0.165 7.348,-0.001 11,-0.5 0.5,-0.5 1,-1 1.5,-1.5 0.5,-25.665 0.667,-51.331 0.5,-77 -4.333,0 -8.667,0 -13,0 0,11 0,22 0,33 -1,-1.333 -2,-2.667 -3,-4 0.166,-10.006 0,-20.006 -0.5,-30 -8.397,-14.2261 -9.397,-28.8928 -3,-44 6.598,-6.5426 14.098,-7.7092 22.5,-3.5 6.911,6.7386 9.411,14.9052 7.5,24.5 -0.341,8.3152 -2.675,15.9819 -7,23 -0.5,26.665 -0.667,53.331 -0.5,80 6,0 12,0 18,0 0.468,-3.442 -0.698,-6.109 -3.5,-8 -0.667,-3.667 -0.667,-7.333 0,-11 4.632,-2.88 4.632,-5.88 0,-9 -0.667,-4.333 -0.667,-8.667 0,-13 4.629,-2.557 4.629,-5.224 0,-8 -0.667,-4.333 -0.667,-8.667 0,-13 4.518,-2.511 4.518,-5.178 0,-8 -0.667,-2.6667 -0.667,-5.3333 0,-8 2.253,-1.1098 3.419,-2.9431 3.5,-5.5 -0.642,-9.4033 -2.476,-18.57 -5.5,-27.5 -4.893,-12.0125 -9.393,-24.1792 -13.5,-36.5 0.336,-1.0299 1.003,-1.5299 2,-1.5 5.966,15.546 11.466,31.2127 16.5,47 0.667,-7 0.667,-14 0,-21 -1.541,-6.2457 -2.541,-12.579 -3,-19 -1.333,-3.3333 -2.667,-6.6667 -4,-10 -2.492,4.8434 -5.326,5.1767 -8.5,1 -0.163,-2.3568 0.003,-4.6902 0.5,-7 1.011,-0.8366 2.178,-1.17 3.5,-1 z"
         id="path17" />
    </g>
    <g
       id="g20"
       style="clip-rule:evenodd;fill-rule:evenodd;image-rendering:optimizeQuality;shape-rendering:geometricPrecision;text-rendering:geometricPrecision"
       transform="matrix(0.26458333,0,0,0.26458333,-34.013874,5.6618398)">
      <path
         style="opacity:1"
         fill="#e76962"
         d="m 327.5,13.5 c -1.322,-0.17 -2.489,0.1634 -3.5,1 -0.497,2.3098 -0.663,4.6432 -0.5,7 0.172,0.9916 -0.162,1.6583 -1,2 -0.997,-0.0299 -1.664,0.4701 -2,1.5 4.107,12.3208 8.607,24.4875 13.5,36.5 3.024,8.93 4.858,18.0967 5.5,27.5 -0.081,2.5569 -1.247,4.3902 -3.5,5.5 -0.667,2.6667 -0.667,5.3333 0,8 4.518,2.822 4.518,5.489 0,8 -0.667,4.333 -0.667,8.667 0,13 4.629,2.776 4.629,5.443 0,8 -0.667,4.333 -0.667,8.667 0,13 4.632,3.12 4.632,6.12 0,9 -0.667,3.667 -0.667,7.333 0,11 2.802,1.891 3.968,4.558 3.5,8 -6,0 -12,0 -18,0 -0.167,-26.669 0,-53.335 0.5,-80 4.325,-7.0181 6.659,-14.6848 7,-23 1.911,-9.5948 -0.589,-17.7614 -7.5,-24.5 -8.402,-4.2092 -15.902,-3.0426 -22.5,3.5 -6.397,15.1072 -5.397,29.7739 3,44 0.5,9.994 0.666,19.994 0.5,30 -4.179,-0.217 -8.513,0.116 -13,1 0.166,-4.014 -10e-4,-8.014 -0.5,-12 -6,-3 -6,-6 0,-9 1.282,-4.0842 0.282,-7.4175 -3,-10 -0.811,-7.7894 -0.144,-15.4561 2,-23 5.475,-15.2572 10.641,-30.5905 15.5,-46 -1.435,-2.5283 -2.435,-5.195 -3,-8 -0.73,-1.2124 -1.73,-2.2124 -3,-3 10.305,-6.86092 20.305,-6.52758 30,1 z"
         id="path20" />
    </g>
    <g
       id="g21"
       style="clip-rule:evenodd;fill-rule:evenodd;image-rendering:optimizeQuality;shape-rendering:geometricPrecision;text-rendering:geometricPrecision"
       transform="matrix(0.26458333,0,0,0.26458333,-34.013874,5.6618398)">
      <path
         style="opacity:1"
         fill="#e76962"
         d="m 309.5,57.5 c 5.848,-0.1592 9.848,2.5075 12,8 1.571,0.8094 3.238,1.1427 5,1 -0.278,8.113 -2.278,15.7797 -6,23 -5.888,1.3074 -11.721,1.3074 -17.5,0 -3.567,-7.2661 -5.4,-14.9328 -5.5,-23 1.762,0.1427 3.429,-0.1906 5,-1 1.669,-3.3303 4.002,-5.9969 7,-8 z"
         id="path21" />
    </g>
    <g
       id="g22"
       style="clip-rule:evenodd;fill-rule:evenodd;image-rendering:optimizeQuality;shape-rendering:geometricPrecision;text-rendering:geometricPrecision"
       transform="matrix(0.26458333,0,0,0.26458333,-34.013874,5.6618398)">
      <path
         style="opacity:1"
         fill="#cc362d"
         d="m 308.5,44.5 c 10.899,-1.1067 14.899,3.56 12,14 -4.621,-3.5154 -9.454,-3.8487 -14.5,-1 -2.412,-2.8619 -3.079,-6.1952 -2,-10 1.409,-1.2811 2.909,-2.2811 4.5,-3 z"
         id="path22" />
    </g>
    <g
       id="g24"
       style="clip-rule:evenodd;fill-rule:evenodd;image-rendering:optimizeQuality;shape-rendering:geometricPrecision;text-rendering:geometricPrecision"
       transform="matrix(0.26458333,0,0,0.26458333,-34.013874,5.6618398)">
      <path
         style="opacity:1"
         fill="#8d2a26"
         d="m 338.5,27.5 c 2.342,8.3825 3.675,17.0492 4,26 0.288,42.0135 -0.045,84.013 -1,126 0.098,-41.486 -0.068,-83.1522 -0.5,-125 -1.054,-8.9876 -1.887,-17.9876 -2.5,-27 z"
         id="path24" />
    </g>
    <g
       id="g25"
       style="clip-rule:evenodd;fill-rule:evenodd;image-rendering:optimizeQuality;shape-rendering:geometricPrecision;text-rendering:geometricPrecision"
       transform="matrix(0.26458333,0,0,0.26458333,-34.013874,5.6618398)">
      <path
         style="opacity:1"
         fill="#f9ebea"
         d="m 282.5,39.5 c -0.416,4.9932 -0.749,9.9932 -1,15 0,1.6667 0,3.3333 0,5 -0.707,26.0085 -1.374,52.175 -2,78.5 0.577,12.661 1.244,25.161 2,37.5 0.333,0 0.667,0 1,0 0,0.667 0,1.333 0,2 -1.333,22.49 -2,45.323 -2,68.5 0.167,22.833 0.333,45.667 0.5,68.5 1.067,0.691 2.234,1.191 3.5,1.5 0.752,0.671 1.086,1.504 1,2.5 -1.8,-0.973 -3.634,-1.973 -5.5,-3 -1.478,-9.66 -1.645,-19.327 -0.5,-29 -0.566,-5.7 -1.232,-11.367 -2,-17 0.96,-19.382 0.96,-38.716 0,-58 0.667,-12 1.333,-24 2,-36 -0.667,-6 -1.333,-12 -2,-18 0.543,-28.404 0.543,-56.57 0,-84.5 0.628,-7.9988 1.628,-15.9988 3,-24 -0.145,-1.2259 -0.478,-2.3926 -1,-3.5 1.301,-1.944 2.301,-3.944 3,-6 z"
         id="path25" />
    </g>
    <g
       id="g27"
       style="clip-rule:evenodd;fill-rule:evenodd;image-rendering:optimizeQuality;shape-rendering:geometricPrecision;text-rendering:geometricPrecision"
       transform="matrix(0.26458333,0,0,0.26458333,-34.013874,5.6618398)">
      <path
         style="opacity:1"
         fill="#d73c33"
         d="m 305.5,158.5 c 2.081,-6.413 4.081,-12.913 6,-19.5 -0.283,-5.064 -2.283,-9.23 -6,-12.5 0,-11 0,-22 0,-33 4.333,0 8.667,0 13,0 0.167,25.669 0,51.335 -0.5,77 -0.5,0.5 -1,1 -1.5,1.5 -3.652,0.499 -7.318,0.665 -11,0.5 0,-4.667 0,-9.333 0,-14 z"
         id="path27" />
    </g>
    <g
       id="g29"
       style="clip-rule:evenodd;fill-rule:evenodd;image-rendering:optimizeQuality;shape-rendering:geometricPrecision;text-rendering:geometricPrecision"
       transform="matrix(0.26458333,0,0,0.26458333,-34.013874,5.6618398)">
      <path
         style="opacity:1"
         fill="#83403e"
         d="m 281.5,59.5 c -0.333,22.3433 0,44.677 1,67 0.667,0.333 1.333,0.667 2,1 1.35,-1.45 3.016,-2.117 5,-2 -6.454,4.201 -8.787,10.201 -7,18 -0.738,10.65 -1.072,21.317 -1,32 -0.756,-12.339 -1.423,-24.839 -2,-37.5 0.626,-26.325 1.293,-52.4915 2,-78.5 z"
         id="path29" />
    </g>
    <g
       id="g33"
       style="clip-rule:evenodd;fill-rule:evenodd;image-rendering:optimizeQuality;shape-rendering:geometricPrecision;text-rendering:geometricPrecision"
       transform="matrix(0.26458333,0,0,0.26458333,-34.013874,5.6618398)">
      <path
         style="opacity:1"
         fill="#a54746"
         d="m 282.5,143.5 c -1.787,-7.799 0.546,-13.799 7,-18 11.621,-2.757 17.955,1.743 19,13.5 -1.344,9.525 -5.678,17.359 -13,23.5 -6.373,-5.022 -10.707,-11.356 -13,-19 z"
         id="path33" />
    </g>
    <g
       id="g34"
       style="clip-rule:evenodd;fill-rule:evenodd;image-rendering:optimizeQuality;shape-rendering:geometricPrecision;text-rendering:geometricPrecision"
       transform="matrix(0.26458333,0,0,0.26458333,-34.013874,5.6618398)">
      <path
         style="opacity:1"
         fill="#772829"
         d="m 291.5,139.5 c -2.165,-6.342 0.168,-8.842 7,-7.5 4,3.667 4,7.333 0,11 -2,0.667 -4,0.667 -6,0 -0.837,-1.011 -1.17,-2.178 -1,-3.5 z"
         id="path34" />
    </g>
    <g
       id="g35"
       style="clip-rule:evenodd;fill-rule:evenodd;image-rendering:optimizeQuality;shape-rendering:geometricPrecision;text-rendering:geometricPrecision"
       transform="matrix(0.26458333,0,0,0.26458333,-34.013874,5.6618398)">
      <path
         style="opacity:1"
         fill="#ebccce"
         d="m 291.5,139.5 c -0.165,-3.004 1.168,-5.004 4,-6 5.211,2.887 5.211,5.554 0,8 -1.573,-0.252 -2.906,-0.918 -4,-2 z"
         id="path35" />
    </g>
    <g
       id="g46"
       style="clip-rule:evenodd;fill-rule:evenodd;image-rendering:optimizeQuality;shape-rendering:geometricPrecision;text-rendering:geometricPrecision"
       transform="matrix(0.26458333,0,0,0.26458333,-34.013874,5.6618398)">
      <path
         style="opacity:1"
         fill="#84201e"
         d="m 281.5,54.5 c 0.333,0 0.667,0 1,0 0,23.3333 0,46.667 0,70 1.599,0.268 2.932,-0.066 4,-1 1,0 2,0 3,0 4.487,-0.884 8.821,-1.217 13,-1 1,1.333 2,2.667 3,4 3.717,3.27 5.717,7.436 6,12.5 -1.919,6.587 -3.919,13.087 -6,19.5 -1.822,-0.929 -3.155,-0.262 -4,2 -1.646,2.312 -3.646,4.312 -6,6 -2.382,-1.715 -4.382,-3.715 -6,-6 -1.254,-2.593 -2.92,-4.927 -5,-7 -0.692,0.525 -1.192,1.192 -1.5,2 -0.5,6.658 -0.666,13.325 -0.5,20 -0.333,0 -0.667,0 -1,0 -0.072,-10.683 0.262,-21.35 1,-32 2.293,7.644 6.627,13.978 13,19 7.322,-6.141 11.656,-13.975 13,-23.5 -1.045,-11.757 -7.379,-16.257 -19,-13.5 -1.984,-0.117 -3.65,0.55 -5,2 -0.667,-0.333 -1.333,-0.667 -2,-1 -1,-22.323 -1.333,-44.6567 -1,-67 0,-1.6667 0,-3.3333 0,-5 z"
         id="path46" />
    </g>
    <g
       id="g47"
       style="clip-rule:evenodd;fill-rule:evenodd;image-rendering:optimizeQuality;shape-rendering:geometricPrecision;text-rendering:geometricPrecision"
       transform="matrix(0.26458333,0,0,0.26458333,-34.013874,5.6618398)">
      <path
         style="opacity:1"
         fill="#762624"
         d="m 342.5,53.5 c 0.56,86.754 0.727,173.754 0.5,261 -1.011,0.837 -2.178,1.17 -3.5,1 0.311,-0.978 0.978,-1.645 2,-2 1.331,-44.498 1.331,-88.831 0,-133 0,-0.333 0,-0.667 0,-1 0.955,-41.987 1.288,-83.9865 1,-126 z"
         id="path47" />
    </g>
    <g
       id="g49"
       style="clip-rule:evenodd;fill-rule:evenodd;image-rendering:optimizeQuality;shape-rendering:geometricPrecision;text-rendering:geometricPrecision"
       transform="matrix(0.26458333,0,0,0.26458333,-34.013874,5.6618398)">
      <path
         style="opacity:1"
         fill="#e1655e"
         d="m 289.5,160.5 c 1.618,2.285 3.618,4.285 6,6 2.354,-1.688 4.354,-3.688 6,-6 0.985,4.134 1.318,8.468 1,13 -6,0 -12,0 -18,0 -0.163,-2.357 0.003,-4.69 0.5,-7 2.874,-1.032 4.374,-3.032 4.5,-6 z"
         id="path49" />
    </g>
    <g
       id="g57"
       style="clip-rule:evenodd;fill-rule:evenodd;image-rendering:optimizeQuality;shape-rendering:geometricPrecision;text-rendering:geometricPrecision"
       transform="matrix(0.26458333,0,0,0.26458333,-34.013874,5.6618398)">
      <path
         style="opacity:1"
         fill="#e76761"
         d="m 339.5,180.5 c 0.654,4.086 -0.512,7.419 -3.5,10 -0.667,3.333 -0.667,6.667 0,10 4.629,2.776 4.629,5.443 0,8 -0.667,4.667 -0.667,9.333 0,14 4.533,3.089 4.533,6.089 0,9 -0.667,4.333 -0.667,8.667 0,13 4.502,2.545 4.502,5.211 0,8 -0.167,2 -0.333,4 -0.5,6 -0.695,4.343 0.638,7.843 4,10.5 -1.035,1.274 -2.202,2.44 -3.5,3.5 -0.667,4 -0.667,8 0,12 4.514,3.038 4.514,6.038 0,9 -0.167,1.667 -0.333,3.333 -0.5,5 -0.774,3.718 0.56,6.051 4,7 0.302,2.559 -0.032,4.893 -1,7 -5.667,0 -11.333,0 -17,0 0,-3.667 0,-7.333 0,-11 3.773,0.678 6.606,-0.656 8.5,-4 0.667,-21.667 0.667,-43.333 0,-65 -1.61,-3.943 -4.277,-6.943 -8,-9 -0.5,-14.329 -0.667,-28.663 -0.5,-43 6,0 12,0 18,0 z"
         id="path57" />
    </g>
    <g
       id="g71"
       style="clip-rule:evenodd;fill-rule:evenodd;image-rendering:optimizeQuality;shape-rendering:geometricPrecision;text-rendering:geometricPrecision"
       transform="matrix(0.26458333,0,0,0.26458333,-34.013874,5.6618398)">
      <path
         style="opacity:1"
         fill="#912823"
         d="m 341.5,180.5 c 1.331,44.169 1.331,88.502 0,133 -1.022,0.355 -1.689,1.022 -2,2 0.271,1.88 -0.396,3.213 -2,4 -16.509,0.33 -32.842,-0.004 -49,-1 16.175,0.33 32.175,-0.004 48,-1 0.904,-0.709 1.237,-1.709 1,-3 0.333,-0.667 0.667,-1.333 1,-2 0.968,-2.107 1.302,-4.441 1,-7 0.617,0.111 1.117,0.444 1.5,1 0.04,-42.202 0.207,-84.202 0.5,-126 z"
         id="path71" />
    </g>
    <g
       id="g72"
       style="clip-rule:evenodd;fill-rule:evenodd;image-rendering:optimizeQuality;shape-rendering:geometricPrecision;text-rendering:geometricPrecision"
       transform="matrix(0.26458333,0,0,0.26458333,-34.013874,5.6618398)">
      <path
         style="opacity:1"
         fill="#8a3c37"
         d="m 282.5,177.5 c 0,45.667 0,91.333 0,137 2.818,0.157 4.818,1.491 6,4 16.158,0.996 32.491,1.33 49,1 -16.495,1.162 -33.162,1.328 -50,0.5 -0.544,-0.717 -1.211,-1.217 -2,-1.5 0.086,-0.996 -0.248,-1.829 -1,-2.5 -1.266,-0.309 -2.433,-0.809 -3.5,-1.5 -0.167,-22.833 -0.333,-45.667 -0.5,-68.5 0,-23.177 0.667,-46.01 2,-68.5 z"
         id="path72" />
    </g>
    <g
       id="g73"
       style="clip-rule:evenodd;fill-rule:evenodd;image-rendering:optimizeQuality;shape-rendering:geometricPrecision;text-rendering:geometricPrecision"
       transform="matrix(0.26458333,0,0,0.26458333,-34.013874,5.6618398)">
      <path
         style="opacity:1"
         fill="#e76862"
         d="m 302.5,180.5 c 0.333,14.682 -10e-4,29.348 -1,44 -3.631,1.588 -6.131,4.254 -7.5,8 -0.667,21.667 -0.667,43.333 0,65 1.812,3.321 4.645,4.655 8.5,4 0,3.667 0,7.333 0,11 -3,0 -6,0 -9,0 -3,0 -6,0 -9,0 -0.308,-2.424 0.026,-4.757 1,-7 3.43,-1.029 4.763,-3.362 4,-7 0.959,-4.358 -0.708,-6.691 -5,-7 -0.577,-3.05 0.59,-5.05 3.5,-6 0.667,-4.333 0.667,-8.667 0,-13 -4.654,-3.087 -4.32,-5.754 1,-8 0.667,-4 0.667,-8 0,-12 -5.32,-2.246 -5.654,-4.913 -1,-8 0.828,-4.702 0.662,-9.369 -0.5,-14 -1.667,-0.333 -2.667,-1.333 -3,-3 0.822,-2.187 2.322,-3.853 4.5,-5 0.667,-4.333 0.667,-8.667 0,-13 -1.714,-1.543 -3.214,-3.21 -4.5,-5 0.422,-2.163 1.756,-3.497 4,-4 1.085,-3.273 1.252,-6.606 0.5,-10 -3.878,-2.08 -5.378,-5.413 -4.5,-10 6,0 12,0 18,0 z"
         id="path73" />
    </g>
    <g
       id="g78"
       style="clip-rule:evenodd;fill-rule:evenodd;image-rendering:optimizeQuality;shape-rendering:geometricPrecision;text-rendering:geometricPrecision"
       transform="matrix(0.26458333,0,0,0.26458333,-34.013874,5.6618398)">
      <path
         style="opacity:1"
         fill="#ab231c"
         d="m 339.5,180.5 c -6,0 -12,0 -18,0 -0.167,14.337 0,28.671 0.5,43 3.723,2.057 6.39,5.057 8,9 0.667,21.667 0.667,43.333 0,65 -1.894,3.344 -4.727,4.678 -8.5,4 0,3.667 0,7.333 0,11 5.667,0 11.333,0 17,0 -0.333,0.667 -0.667,1.333 -1,2 -16.333,1.303 -32.666,1.303 -49,0 1.667,-0.667 3.333,-1.333 5,-2 3,0 6,0 9,0 0,-3.667 0,-7.333 0,-11 -3.855,0.655 -6.688,-0.679 -8.5,-4 -0.667,-21.667 -0.667,-43.333 0,-65 1.369,-3.746 3.869,-6.412 7.5,-8 0.999,-14.652 1.333,-29.318 1,-44 -2.583,-0.724 -5.249,-1.557 -8,-2.5 14.996,-0.5 29.996,-0.667 45,-0.5 0,1 0,2 0,3 z"
         id="path78" />
    </g>
    <g
       id="g79"
       style="clip-rule:evenodd;fill-rule:evenodd;image-rendering:optimizeQuality;shape-rendering:geometricPrecision;text-rendering:geometricPrecision"
       transform="matrix(0.26458333,0,0,0.26458333,-34.013874,5.6618398)">
      <path
         style="opacity:1"
         fill="#c9392e"
         d="m 323.5,231.5 c 0.897,1.098 1.73,1.098 2.5,0 0.667,0.667 1.333,1.333 2,2 0.667,14.667 0.667,29.333 0,44 -0.414,0.457 -0.914,0.791 -1.5,1 -1.253,-2.757 -3.087,-5.091 -5.5,-7 -0.374,0.916 -0.874,1.75 -1.5,2.5 1.473,0.71 2.14,1.876 2,3.5 -6.333,0 -12.667,0 -19,0 0.157,-1.373 -0.01,-2.707 -0.5,-4 -1.892,1.117 -2.725,2.784 -2.5,5 -1.322,0.17 -2.489,-0.163 -3.5,-1 -0.833,-15.011 -0.666,-30.011 0.5,-45 0.648,7.76 1.814,15.427 3.5,23 2.8,0.625 5.634,1.292 8.5,2 -2.274,4.214 -4.274,8.547 -6,13 0.308,0.808 0.808,1.475 1.5,2 2.155,-5.643 4.822,-10.977 8,-16 2.377,3.79 4.377,7.79 6,12 0.692,-0.525 1.192,-1.192 1.5,-2 -1.333,-3 -2.667,-6 -4,-9 1.5,-0.333 3,-0.667 4.5,-1 1.981,0.129 3.647,0.796 5,2 0.667,-6.333 0.667,-12.667 0,-19 -0.278,0.916 -0.778,1.582 -1.5,2 0,-3.333 0,-6.667 0,-10 z"
         id="path79" />
    </g>
    <g
       id="g80"
       style="clip-rule:evenodd;fill-rule:evenodd;image-rendering:optimizeQuality;shape-rendering:geometricPrecision;text-rendering:geometricPrecision"
       transform="matrix(0.26458333,0,0,0.26458333,-34.013874,5.6618398)">
      <path
         style="opacity:1"
         fill="#d03c34"
         d="m 300.5,248.5 c 7.667,0 15.333,0 23,0 0,2 0,4 0,6 -3.333,0 -6.667,0 -10,0 0.285,-1.788 -0.048,-3.455 -1,-5 -1.717,1.168 -2.384,2.835 -2,5 -3.333,0 -6.667,0 -10,0 0,-2 0,-4 0,-6 z"
         id="path80" />
    </g>
    <g
       id="g81"
       style="clip-rule:evenodd;fill-rule:evenodd;image-rendering:optimizeQuality;shape-rendering:geometricPrecision;text-rendering:geometricPrecision"
       transform="matrix(0.26458333,0,0,0.26458333,-34.013874,5.6618398)">
      <path
         style="opacity:1"
         fill="#da3c33"
         d="m 323.5,231.5 c 0,3.333 0,6.667 0,10 0,1.333 0,2.667 0,4 -8,0 -16,0 -24,0 -0.239,-6.065 0.261,-12.065 1.5,-18 1.512,-0.757 2.846,-1.757 4,-3 0.5,-14.663 0.667,-29.33 0.5,-44 4.333,0 8.667,0 13,0 -0.167,14.004 0,28.004 0.5,42 0.953,1.955 2.287,3.622 4,5 0.49,1.293 0.657,2.627 0.5,4 z"
         id="path81" />
    </g>
    <g
       id="g90"
       style="clip-rule:evenodd;fill-rule:evenodd;image-rendering:optimizeQuality;shape-rendering:geometricPrecision;text-rendering:geometricPrecision"
       transform="matrix(0.26458333,0,0,0.26458333,-34.013874,5.6618398)">
      <path
         style="opacity:1"
         fill="#dc3f35"
         d="m 300.5,281.5 c 7.667,0 15.333,0 23,0 0.792,5.63 1.125,11.297 1,17 -1.43,-0.079 -2.764,0.254 -4,1 -0.991,3.945 -1.324,7.945 -1,12 -4.667,0 -9.333,0 -14,0 0.165,-3.682 -10e-4,-7.348 -0.5,-11 -2.398,-0.458 -4.064,-1.792 -5,-4 0.051,-4.978 0.218,-9.978 0.5,-15 z"
         id="path90" />
    </g>
    <g
       id="g114"
       style="clip-rule:evenodd;fill-rule:evenodd;image-rendering:optimizeQuality;shape-rendering:geometricPrecision;text-rendering:geometricPrecision"
       transform="matrix(0.26458333,0,0,0.26458333,-34.013874,5.6618398)">
      <path
         style="opacity:1"
         fill="#c0372f"
         d="m 288.5,314.5 c 16.334,1.303 32.667,1.303 49,0 0.237,1.291 -0.096,2.291 -1,3 -16,0 -32,0 -48,0 0,-1 0,-2 0,-3 z"
         id="path114" />
    </g>
  </g>
</svg>
