<?xml version="1.0" encoding="UTF-8" standalone="no"?>
<!-- Created with Inkscape (http://www.inkscape.org/) -->

<svg
   width="96mm"
   height="96mm"
   viewBox="0 0 96 96"
   version="1.1"
   id="svg1"
   inkscape:version="1.4.2 (ebf0e940, 2025-05-08)"
   sodipodi:docname="pickup.svg"
   xmlns:inkscape="http://www.inkscape.org/namespaces/inkscape"
   xmlns:sodipodi="http://sodipodi.sourceforge.net/DTD/sodipodi-0.dtd"
   xmlns="http://www.w3.org/2000/svg"
   xmlns:svg="http://www.w3.org/2000/svg">
  <sodipodi:namedview
     id="namedview1"
     pagecolor="#ffffff"
     bordercolor="#000000"
     borderopacity="0.25"
     inkscape:showpageshadow="2"
     inkscape:pageopacity="0.0"
     inkscape:pagecheckerboard="0"
     inkscape:deskcolor="#d1d1d1"
     inkscape:document-units="mm"
     inkscape:zoom="0.80444024"
     inkscape:cx="397.17059"
     inkscape:cy="362.36377"
     inkscape:window-width="1920"
     inkscape:window-height="1052"
     inkscape:window-x="0"
     inkscape:window-y="28"
     inkscape:window-maximized="0"
     inkscape:current-layer="layer1" />
  <defs
     id="defs1" />
  <g
     inkscape:label="Layer 1"
     inkscape:groupmode="layer"
     id="layer1">
    <g
       id="g2"
       style="clip-rule:evenodd;fill-rule:evenodd;image-rendering:optimizeQuality;shape-rendering:geometricPrecision;text-rendering:geometricPrecision"
       transform="matrix(0.31250672,0,0,0.31250672,-7.2025366,-6.8728812)">
      <path
         style="opacity:1"
         fill="#f2d6d5"
         d="m 208.5,53.5 c -3,0 -6,0 -9,0 -1.068,-0.9345 -2.401,-1.2678 -4,-1 -8.484,-0.993 -17.151,-1.3264 -26,-1 0.12,-1.0862 0.787,-1.7528 2,-2 12.783,-1.837 25.117,-0.5036 37,4 z"
         id="path2" />
    </g>
    <g
       id="g5"
       style="clip-rule:evenodd;fill-rule:evenodd;image-rendering:optimizeQuality;shape-rendering:geometricPrecision;text-rendering:geometricPrecision"
       transform="matrix(0.31250672,0,0,0.31250672,-7.2025366,-6.8728812)">
      <path
         style="opacity:1"
         fill="#903e3e"
         d="m 169.5,51.5 c 8.849,-0.3264 17.516,0.007 26,1 -12.031,-0.249 -24.031,0.0843 -36,1 3.007,-1.6745 6.34,-2.3412 10,-2 z"
         id="path5" />
    </g>
    <g
       id="g8"
       style="clip-rule:evenodd;fill-rule:evenodd;image-rendering:optimizeQuality;shape-rendering:geometricPrecision;text-rendering:geometricPrecision"
       transform="matrix(0.31250672,0,0,0.31250672,-7.2025366,-6.8728812)">
      <path
         style="opacity:1"
         fill="#95211f"
         d="m 195.5,52.5 c 1.599,-0.2678 2.932,0.0655 4,1 -1.291,-0.2373 -2.291,0.096 -3,1 -12.684,-0.3324 -25.351,9e-4 -38,1 -1.791,0.6698 -3.458,1.3365 -5,2 -5.051,0.7572 -9.718,2.4239 -14,5 0.611,-2.2746 1.945,-3.9412 4,-5 1.653,-0.1596 2.986,-0.8263 4,-2 2.995,0.2062 5.662,-0.4605 8,-2 1.333,0 2.667,0 4,0 11.969,-0.9157 23.969,-1.249 36,-1 z"
         id="path8" />
    </g>
    <g
       id="g9"
       style="clip-rule:evenodd;fill-rule:evenodd;image-rendering:optimizeQuality;shape-rendering:geometricPrecision;text-rendering:geometricPrecision"
       transform="matrix(0.31250672,0,0,0.31250672,-7.2025366,-6.8728812)">
      <path
         style="opacity:1"
         fill="#b97877"
         d="m 155.5,53.5 c -2.338,1.5395 -5.005,2.2062 -8,2 0,-0.3333 0,-0.6667 0,-1 2.667,-0.3333 5.333,-0.6667 8,-1 z"
         id="path9" />
    </g>
    <g
       id="g10"
       style="clip-rule:evenodd;fill-rule:evenodd;image-rendering:optimizeQuality;shape-rendering:geometricPrecision;text-rendering:geometricPrecision"
       transform="matrix(0.31250672,0,0,0.31250672,-7.2025366,-6.8728812)">
      <path
         style="opacity:1"
         fill="#92332f"
         d="m 196.5,54.5 c 0.709,-0.904 1.709,-1.2373 3,-1 3,0 6,0 9,0 5.192,1.9117 10.525,3.5784 16,5 1.988,1.9649 3.488,4.2982 4.5,7 0.411,5.0195 0.911,10.0195 1.5,15 -1.941,-3.8237 -3.275,-7.8237 -4,-12 0.575,-4.35 -1.092,-7.5167 -5,-9.5 -8.276,-1.9347 -16.61,-3.4347 -25,-4.5 z"
         id="path10" />
    </g>
    <g
       id="g11"
       style="clip-rule:evenodd;fill-rule:evenodd;image-rendering:optimizeQuality;shape-rendering:geometricPrecision;text-rendering:geometricPrecision"
       transform="matrix(0.31250672,0,0,0.31250672,-7.2025366,-6.8728812)">
      <path
         style="opacity:1"
         fill="#9c4e49"
         d="m 147.5,55.5 c -1.014,1.1737 -2.347,1.8404 -4,2 -2.538,0.5427 -4.872,1.5427 -7,3 2.604,-3.7664 6.271,-5.4331 11,-5 z"
         id="path11" />
    </g>
    <g
       id="g12"
       style="clip-rule:evenodd;fill-rule:evenodd;image-rendering:optimizeQuality;shape-rendering:geometricPrecision;text-rendering:geometricPrecision"
       transform="matrix(0.31250672,0,0,0.31250672,-7.2025366,-6.8728812)">
      <path
         style="opacity:1"
         fill="#f8e0e1"
         d="m 147.5,54.5 c 0,0.3333 0,0.6667 0,1 -4.729,-0.4331 -8.396,1.2336 -11,5 -1.636,1.2489 -2.803,2.9156 -3.5,5 -0.444,7.0589 -1.278,14.0589 -2.5,21 -0.333,0 -0.667,0 -1,0 0.182,-4.6686 0.182,-9.1686 0,-13.5 1.558,-4.3976 2.724,-8.8976 3.5,-13.5 3.865,-4.3442 8.698,-6.0108 14.5,-5 z"
         id="path12" />
    </g>
    <g
       id="g13"
       style="clip-rule:evenodd;fill-rule:evenodd;image-rendering:optimizeQuality;shape-rendering:geometricPrecision;text-rendering:geometricPrecision"
       transform="matrix(0.31250672,0,0,0.31250672,-7.2025366,-6.8728812)">
      <path
         style="opacity:1"
         fill="#b22620"
         d="m 196.5,54.5 c 8.39,1.0653 16.724,2.5653 25,4.5 3.908,1.9833 5.575,5.15 5,9.5 0,1.6667 0,3.3333 0,5 -0.719,-1.5913 -1.719,-3.0913 -3,-4.5 -8.182,-4.0882 -16.848,-6.4216 -26,-7 -11.667,-0.6667 -23.333,-0.6667 -35,0 -7.986,1.0795 -15.653,3.2462 -23,6.5 -2.489,2.6543 -4.156,5.6543 -5,9 -0.166,-4.0138 0.001,-8.0138 0.5,-12 1.113,-0.805 2.279,-1.4717 3.5,-2 -0.131,0.8764 0.202,1.5431 1,2 4.964,-2.877 10.297,-4.5436 16,-5 0.215,-1.6788 -0.452,-2.6788 -2,-3 1.542,-0.6635 3.209,-1.3302 5,-2 12.649,-0.9991 25.316,-1.3324 38,-1 z"
         id="path13" />
    </g>
    <g
       id="g14"
       style="clip-rule:evenodd;fill-rule:evenodd;image-rendering:optimizeQuality;shape-rendering:geometricPrecision;text-rendering:geometricPrecision"
       transform="matrix(0.31250672,0,0,0.31250672,-7.2025366,-6.8728812)">
      <path
         style="opacity:1"
         fill="#df5550"
         d="m 206.5,57.5 c 4.737,0.8675 9.404,2.0342 14,3.5 0.457,0.414 0.791,0.914 1,1.5 -1,0.3333 -2,0.6667 -3,1 -3.989,-0.7982 -7.989,-1.4649 -12,-2 0,-1.3333 0,-2.6667 0,-4 z"
         id="path14" />
    </g>
    <g
       id="g16"
       style="clip-rule:evenodd;fill-rule:evenodd;image-rendering:optimizeQuality;shape-rendering:geometricPrecision;text-rendering:geometricPrecision"
       transform="matrix(0.31250672,0,0,0.31250672,-7.2025366,-6.8728812)">
      <path
         style="opacity:1"
         fill="#e1534c"
         d="m 153.5,57.5 c 1.548,0.3212 2.215,1.3212 2,3 -5.703,0.4564 -11.036,2.123 -16,5 -0.798,-0.4569 -1.131,-1.1236 -1,-2 0,-0.6667 0.333,-1 1,-1 4.282,-2.5761 8.949,-4.2428 14,-5 z"
         id="path16" />
    </g>
    <g
       id="g22"
       style="clip-rule:evenodd;fill-rule:evenodd;image-rendering:optimizeQuality;shape-rendering:geometricPrecision;text-rendering:geometricPrecision"
       transform="matrix(0.31250672,0,0,0.31250672,-7.2025366,-6.8728812)">
      <path
         style="opacity:1"
         fill="#e5645d"
         d="m 226.5,73.5 c 2.203,19.0053 2.537,38.005 1,57 -1.517,0.011 -2.684,0.677 -3.5,2 -3.289,6.243 -6.289,12.576 -9,19 -0.667,10.667 -0.667,21.333 0,32 2.268,4.135 5.601,5.802 10,5 0.167,-16.344 0.667,-32.677 1.5,-49 0.586,0.209 1.086,0.543 1.5,1 0.498,2.982 0.665,5.982 0.5,9 0,15.333 0,30.667 0,46 -3,0 -6,0 -9,0 -2.463,-1.961 -4.797,-4.128 -7,-6.5 -21,-0.667 -42,-0.667 -63,0 -2.831,1.666 -5.164,3.832 -7,6.5 -3,0 -6,0 -9,0 -0.167,-18.336 0,-36.67 0.5,-55 0.414,-0.457 0.914,-0.791 1.5,-1 0.999,16.653 1.333,33.32 1,50 4.195,-0.181 7.695,-1.847 10.5,-5 3.128,-18.217 0.294,-35.217 -8.5,-51 -1.333,-1 -2.667,-2 -4,-3 -0.999,-11.314 -1.332,-22.647 -1,-34 0.153,-6.345 0.486,-12.6783 1,-19 0.844,-3.3457 2.511,-6.3457 5,-9 7.347,-3.2538 15.014,-5.4205 23,-6.5 11.667,-0.6667 23.333,-0.6667 35,0 9.152,0.5784 17.818,2.9118 26,7 1.281,1.4087 2.281,2.9087 3,4.5 z"
         id="path22" />
    </g>
    <g
       id="g28"
       style="clip-rule:evenodd;fill-rule:evenodd;image-rendering:optimizeQuality;shape-rendering:geometricPrecision;text-rendering:geometricPrecision"
       transform="matrix(0.31250672,0,0,0.31250672,-7.2025366,-6.8728812)">
      <path
         style="opacity:1"
         fill="#f6dad8"
         d="m 224.5,58.5 c 5.922,0.675 7.922,3.8417 6,9.5 0.63,2.8902 1.463,5.7236 2.5,8.5 0.333,16 0.667,32 1,48 0.333,1.333 0.667,2.667 1,4 1.859,1.079 3.359,2.412 4.5,4 -2.257,-0.462 -4.257,-1.462 -6,-3 -0.833,-14.322 -1.333,-28.655 -1.5,-43 -0.191,-2.2078 -0.691,-4.2078 -1.5,-6 -0.589,-4.9805 -1.089,-9.9805 -1.5,-15 -1.012,-2.7018 -2.512,-5.0351 -4.5,-7 z"
         id="path28" />
    </g>
    <g
       id="g31"
       style="clip-rule:evenodd;fill-rule:evenodd;image-rendering:optimizeQuality;shape-rendering:geometricPrecision;text-rendering:geometricPrecision"
       transform="matrix(0.31250672,0,0,0.31250672,-7.2025366,-6.8728812)">
      <path
         style="opacity:1"
         fill="#892723"
         d="m 143.5,57.5 c -2.055,1.0588 -3.389,2.7254 -4,5 -0.667,0 -1,0.3333 -1,1 -1.221,0.5283 -2.387,1.195 -3.5,2 -0.499,3.9862 -0.666,7.9862 -0.5,12 -0.514,6.3217 -0.847,12.655 -1,19 -0.83,9.491 -1.33,19.158 -1.5,29 -0.21,1.558 -0.71,2.891 -1.5,4 0,-14.333 0,-28.667 0,-43 1.222,-6.9411 2.056,-13.9411 2.5,-21 0.697,-2.0844 1.864,-3.7511 3.5,-5 2.128,-1.4573 4.462,-2.4573 7,-3 z"
         id="path31" />
    </g>
    <g
       id="g44"
       style="clip-rule:evenodd;fill-rule:evenodd;image-rendering:optimizeQuality;shape-rendering:geometricPrecision;text-rendering:geometricPrecision"
       transform="matrix(0.31250672,0,0,0.31250672,-7.2025366,-6.8728812)">
      <path
         style="opacity:1"
         fill="#d1433b"
         d="m 204.5,66.5 c 1,0 2,0 3,0 2.434,17.3532 5.434,34.687 9,52 -1.322,0.17 -2.489,-0.163 -3.5,-1 -2.387,-17.099 -5.221,-34.0988 -8.5,-51 z"
         id="path44" />
    </g>
    <g
       id="g52"
       style="clip-rule:evenodd;fill-rule:evenodd;image-rendering:optimizeQuality;shape-rendering:geometricPrecision;text-rendering:geometricPrecision"
       transform="matrix(0.31250672,0,0,0.31250672,-7.2025366,-6.8728812)">
      <path
         style="opacity:1"
         fill="#d0423a"
         d="m 155.5,67.5 c 1.193,0.4704 1.86,1.4704 2,3 -3.79,15.4527 -6.623,31.119 -8.5,47 -1.011,0.837 -2.178,1.17 -3.5,1 2.615,-17.196 5.948,-34.1957 10,-51 z"
         id="path52" />
    </g>
    <g
       id="g58"
       style="clip-rule:evenodd;fill-rule:evenodd;image-rendering:optimizeQuality;shape-rendering:geometricPrecision;text-rendering:geometricPrecision"
       transform="matrix(0.31250672,0,0,0.31250672,-7.2025366,-6.8728812)">
      <path
         style="opacity:1"
         fill="#8e3732"
         d="m 230.5,80.5 c 0.809,1.7922 1.309,3.7922 1.5,6 0.167,14.345 0.667,28.678 1.5,43 1.743,1.538 3.743,2.538 6,3 3.074,3.176 3.741,6.842 2,11 -2.401,1.562 -4.401,1.229 -6,-1 2.743,0.423 4.076,-0.744 4,-3.5 -0.809,-4.809 -3.642,-7.642 -8.5,-8.5 -0.5,-16.663 -0.667,-33.33 -0.5,-50 z"
         id="path58" />
    </g>
    <g
       id="g61"
       style="clip-rule:evenodd;fill-rule:evenodd;image-rendering:optimizeQuality;shape-rendering:geometricPrecision;text-rendering:geometricPrecision"
       transform="matrix(0.31250672,0,0,0.31250672,-7.2025366,-6.8728812)">
      <path
         style="opacity:1"
         fill="#b36b69"
         d="m 129.5,86.5 c 0.333,0 0.667,0 1,0 0,14.333 0,28.667 0,43 0,0.333 0,0.667 0,1 -1.333,0 -2.667,0 -4,0 0.709,-0.904 1.709,-1.237 3,-1 0,-12.667 0,-25.333 0,-38 0,-1.6667 0,-3.3333 0,-5 z"
         id="path61" />
    </g>
    <g
       id="g70"
       style="clip-rule:evenodd;fill-rule:evenodd;image-rendering:optimizeQuality;shape-rendering:geometricPrecision;text-rendering:geometricPrecision"
       transform="matrix(0.31250672,0,0,0.31250672,-7.2025366,-6.8728812)">
      <path
         style="opacity:1"
         fill="#aa1b16"
         d="m 164.5,118.5 c 18.046,-1.421 35.712,0.413 53,5.5 1.978,0.481 3.311,1.647 4,3.5 -2.206,6.116 -4.706,12.116 -7.5,18 -0.92,1.814 -2.42,2.814 -4.5,3 -8.899,-2.675 -18.065,-4.009 -27.5,-4 -10.94,0.475 -21.773,1.309 -32.5,2.5 -4.989,-6.483 -7.655,-13.65 -8,-21.5 7.307,-3.925 14.974,-6.258 23,-7 z"
         id="path70" />
    </g>
    <g
       id="g71"
       style="clip-rule:evenodd;fill-rule:evenodd;image-rendering:optimizeQuality;shape-rendering:geometricPrecision;text-rendering:geometricPrecision"
       transform="matrix(0.31250672,0,0,0.31250672,-7.2025366,-6.8728812)">
      <path
         style="opacity:1"
         fill="#d83b30"
         d="m 168.5,120.5 c 8.34,-0.166 16.673,0 25,0.5 8.175,2.27 16.509,4.103 25,5.5 0.162,2.027 -0.005,4.027 -0.5,6 -2.427,4.53 -5.094,8.863 -8,13 -19.066,-4.988 -38.233,-5.322 -57.5,-1 -1,-0.333 -2,-0.667 -3,-1 -1.964,-4.456 -4.131,-8.789 -6.5,-13 -0.711,-1.867 -0.211,-3.367 1.5,-4.5 7.254,-1.764 14.587,-3.098 22,-4 0.916,-0.278 1.582,-0.778 2,-1.5 z"
         id="path71" />
    </g>
    <g
       id="g78"
       style="clip-rule:evenodd;fill-rule:evenodd;image-rendering:optimizeQuality;shape-rendering:geometricPrecision;text-rendering:geometricPrecision"
       transform="matrix(0.31250672,0,0,0.31250672,-7.2025366,-6.8728812)">
      <path
         style="opacity:1"
         fill="#9a302a"
         d="m 226.5,68.5 c 0.725,4.1763 2.059,8.1763 4,12 -0.167,16.67 0,33.337 0.5,50 4.858,0.858 7.691,3.691 8.5,8.5 0.076,2.756 -1.257,3.923 -4,3.5 -1,0 -2,0 -3,0 -0.331,27.505 0.002,54.838 1,82 0.333,1.333 0.667,2.667 1,4 -0.667,-0.333 -1.333,-0.667 -2,-1 -0.667,-1.333 -1.667,-2.333 -3,-3 0,-25 0,-50 0,-75 -0.49,-3.987 0.176,-7.654 2,-11 2.449,0.557 4.782,0.557 7,0 -2.33,-2.493 -4.997,-4.493 -8,-6 -1,-0.667 -2,-1.333 -3,-2 1.537,-18.995 1.203,-37.9947 -1,-57 0,-1.6667 0,-3.3333 0,-5 z"
         id="path78" />
    </g>
    <g
       id="g79"
       style="clip-rule:evenodd;fill-rule:evenodd;image-rendering:optimizeQuality;shape-rendering:geometricPrecision;text-rendering:geometricPrecision"
       transform="matrix(0.31250672,0,0,0.31250672,-7.2025366,-6.8728812)">
      <path
         style="opacity:1"
         fill="#e05a53"
         d="m 130.5,132.5 c 3.469,-0.613 5.469,0.721 6,4 -3.068,0.047 -6.068,0.547 -9,1.5 -1.442,0.377 -2.442,1.21 -3,2.5 -1.725,-0.343 -2.225,-1.343 -1.5,-3 2.128,-2.308 4.628,-3.974 7.5,-5 z"
         id="path79" />
    </g>
    <g
       id="g80"
       style="clip-rule:evenodd;fill-rule:evenodd;image-rendering:optimizeQuality;shape-rendering:geometricPrecision;text-rendering:geometricPrecision"
       transform="matrix(0.31250672,0,0,0.31250672,-7.2025366,-6.8728812)">
      <path
         style="opacity:1"
         fill="#df5754"
         d="m 230.5,132.5 c 3.003,1.507 5.67,3.507 8,6 -2.218,0.557 -4.551,0.557 -7,0 -1.141,-0.839 -2.474,-1.506 -4,-2 -0.929,-1.189 -1.262,-2.522 -1,-4 1.333,0 2.667,0 4,0 z"
         id="path80" />
    </g>
    <g
       id="g81"
       style="clip-rule:evenodd;fill-rule:evenodd;image-rendering:optimizeQuality;shape-rendering:geometricPrecision;text-rendering:geometricPrecision"
       transform="matrix(0.31250672,0,0,0.31250672,-7.2025366,-6.8728812)">
      <path
         style="opacity:1"
         fill="#f3d3d2"
         d="m 129.5,91.5 c 0,12.667 0,25.333 0,38 -1.291,-0.237 -2.291,0.096 -3,1 -5.627,2.088 -7.461,6.088 -5.5,12 1.11,1.537 2.61,2.203 4.5,2 -2.602,1.469 -4.769,0.802 -6.5,-2 -0.45,-3.688 -0.283,-7.354 0.5,-11 1,0 2,0 3,0 -0.149,-1.052 0.017,-2.052 0.5,-3 1.626,0.354 3.459,0.354 5.5,0 -0.329,-12.511 0.005,-24.845 1,-37 z"
         id="path81" />
    </g>
    <g
       id="g101"
       style="clip-rule:evenodd;fill-rule:evenodd;image-rendering:optimizeQuality;shape-rendering:geometricPrecision;text-rendering:geometricPrecision"
       transform="matrix(0.31250672,0,0,0.31250672,-7.2025366,-6.8728812)">
      <path
         style="opacity:1"
         fill="#ab1f19"
         d="m 227.5,130.5 c 1,0.667 2,1.333 3,2 -1.333,0 -2.667,0 -4,0 -0.262,1.478 0.071,2.811 1,4 1.526,0.494 2.859,1.161 4,2 -1.824,3.346 -2.49,7.013 -2,11 -0.333,0 -0.667,0 -1,0 0.165,-3.018 -0.002,-6.018 -0.5,-9 -0.414,-0.457 -0.914,-0.791 -1.5,-1 -0.833,16.323 -1.333,32.656 -1.5,49 -4.399,0.802 -7.732,-0.865 -10,-5 -0.667,-10.667 -0.667,-21.333 0,-32 2.711,-6.424 5.711,-12.757 9,-19 0.816,-1.323 1.983,-1.989 3.5,-2 z"
         id="path101" />
    </g>
    <g
       id="g103"
       style="clip-rule:evenodd;fill-rule:evenodd;image-rendering:optimizeQuality;shape-rendering:geometricPrecision;text-rendering:geometricPrecision"
       transform="matrix(0.31250672,0,0,0.31250672,-7.2025366,-6.8728812)">
      <path
         style="opacity:1"
         fill="#871a16"
         d="m 126.5,130.5 c 1.333,0 2.667,0 4,0 0,0.667 0,1.333 0,2 -2.872,1.026 -5.372,2.692 -7.5,5 -0.725,1.657 -0.225,2.657 1.5,3 2.667,0 5.333,0 8,0 0.331,28.172 -0.002,56.172 -1,84 0.167,-27.002 0,-54.002 -0.5,-81 -0.383,-0.556 -0.883,-0.889 -1.5,-1 -1.88,-0.271 -3.213,0.396 -4,2 -1.89,0.203 -3.39,-0.463 -4.5,-2 -1.961,-5.912 -0.127,-9.912 5.5,-12 z"
         id="path103" />
    </g>
    <g
       id="g104"
       style="clip-rule:evenodd;fill-rule:evenodd;image-rendering:optimizeQuality;shape-rendering:geometricPrecision;text-rendering:geometricPrecision"
       transform="matrix(0.31250672,0,0,0.31250672,-7.2025366,-6.8728812)">
      <path
         style="opacity:1"
         fill="#d33730"
         d="m 221.5,142.5 c 1.326,14.505 1.326,29.172 0,44 -1.314,-0.813 -2.481,-1.813 -3.5,-3 -0.667,-11 -0.667,-22 0,-33 1.396,-2.564 2.563,-5.231 3.5,-8 z"
         id="path104" />
    </g>
    <g
       id="g109"
       style="clip-rule:evenodd;fill-rule:evenodd;image-rendering:optimizeQuality;shape-rendering:geometricPrecision;text-rendering:geometricPrecision"
       transform="matrix(0.31250672,0,0,0.31250672,-7.2025366,-6.8728812)">
      <path
         style="opacity:1"
         fill="#f5c8c6"
         d="m 235.5,142.5 c 1.599,2.229 3.599,2.562 6,1 -2.135,1.869 -4.802,2.536 -8,2 -0.324,26.408 0.01,52.741 1,79 -0.333,0 -0.667,0 -1,0 -0.998,-27.162 -1.331,-54.495 -1,-82 1,0 2,0 3,0 z"
         id="path109" />
    </g>
    <g
       id="g126"
       style="clip-rule:evenodd;fill-rule:evenodd;image-rendering:optimizeQuality;shape-rendering:geometricPrecision;text-rendering:geometricPrecision"
       transform="matrix(0.31250672,0,0,0.31250672,-7.2025366,-6.8728812)">
      <path
         style="opacity:1"
         fill="#a51712"
         d="m 219.5,195.5 c 2.805,0.819 5.805,1.319 9,1.5 -28.331,0.5 -56.665,0.667 -85,0.5 -3.35,0.165 -6.683,-0.002 -10,-0.5 3.195,-0.181 6.195,-0.681 9,-1.5 1.836,-2.668 4.169,-4.834 7,-6.5 21,-0.667 42,-0.667 63,0 2.203,2.372 4.537,4.539 7,6.5 z"
         id="path126" />
    </g>
    <g
       id="g127"
       style="clip-rule:evenodd;fill-rule:evenodd;image-rendering:optimizeQuality;shape-rendering:geometricPrecision;text-rendering:geometricPrecision"
       transform="matrix(0.31250672,0,0,0.31250672,-7.2025366,-6.8728812)">
      <path
         style="opacity:1"
         fill="#d13832"
         d="m 153.5,190.5 c 19.336,-0.167 38.67,0 58,0.5 1.333,1.333 2.667,2.667 4,4 -23,0.667 -46,0.667 -69,0 2.092,-2.036 4.426,-3.536 7,-4.5 z"
         id="path127" />
    </g>
    <g
       id="g128"
       style="clip-rule:evenodd;fill-rule:evenodd;image-rendering:optimizeQuality;shape-rendering:geometricPrecision;text-rendering:geometricPrecision"
       transform="matrix(0.31250672,0,0,0.31250672,-7.2025366,-6.8728812)">
      <path
         style="opacity:1"
         fill="#eac5c3"
         d="m 129.5,142.5 c 0.333,27.341 0,54.675 -1,82 -3.066,1.793 -4.9,4.46 -5.5,8 -0.667,15.333 -0.667,30.667 0,46 0.898,4.044 3.065,7.044 6.5,9 0.968,2.107 1.302,4.441 1,7 -0.48,3.806 0.52,7.139 3,10 30.993,1 61.993,1.333 93,1 -30.162,0.998 -60.495,1.331 -91,1 -2.299,-0.638 -4.466,-1.638 -6.5,-3 -0.333,-4.333 -0.667,-8.667 -1,-13 -3.811,-3.848 -6.144,-8.515 -7,-14 -0.176,-13.575 -0.676,-27.075 -1.5,-40.5 0.705,-4.372 2.705,-8.039 6,-11 -0.333,-0.333 -0.667,-0.667 -1,-1 1.293,-0.49 2.627,-0.657 4,-0.5 0,-26.333 0,-52.667 0,-79 -1,0 -2,0 -3,0 0.787,-1.604 2.12,-2.271 4,-2 z"
         id="path128" />
    </g>
    <g
       id="g129"
       style="clip-rule:evenodd;fill-rule:evenodd;image-rendering:optimizeQuality;shape-rendering:geometricPrecision;text-rendering:geometricPrecision"
       transform="matrix(0.31250672,0,0,0.31250672,-7.2025366,-6.8728812)">
      <path
         style="opacity:1"
         fill="#e7605b"
         d="m 143.5,198.5 c 28.333,0 56.667,0 85,0 0,5.333 0,10.667 0,16 -0.961,-3.835 -1.795,-7.835 -2.5,-12 -0.5,32.332 -0.667,64.665 -0.5,97 1,0 2,0 3,0 -0.453,0.958 -1.119,1.792 -2,2.5 -29.998,0.5 -59.998,0.667 -90,0.5 -1,-0.333 -1.667,-1 -2,-2 -0.993,-33.927 -1.326,-67.927 -1,-102 3.333,0 6.667,0 10,0 z"
         id="path129" />
    </g>
    <g
       id="g133"
       style="clip-rule:evenodd;fill-rule:evenodd;image-rendering:optimizeQuality;shape-rendering:geometricPrecision;text-rendering:geometricPrecision"
       transform="matrix(0.31250672,0,0,0.31250672,-7.2025366,-6.8728812)">
      <path
         style="opacity:1"
         fill="#b83833"
         d="m 228.5,149.5 c 0.333,0 0.667,0 1,0 0,25 0,50 0,75 -0.331,21.84 0.003,43.506 1,65 0,4 0,8 0,12 -0.333,0.667 -0.667,1.333 -1,2 -31.171,0.331 -62.171,-0.002 -93,-1 30.002,0.167 60.002,0 90,-0.5 0.881,-0.708 1.547,-1.542 2,-2.5 0,-28.333 0,-56.667 0,-85 0,-5.333 0,-10.667 0,-16 -28.333,0 -56.667,0 -85,0 0,-0.333 0,-0.667 0,-1 28.335,0.167 56.669,0 85,-0.5 -3.195,-0.181 -6.195,-0.681 -9,-1.5 3,0 6,0 9,0 0,-15.333 0,-30.667 0,-46 z"
         id="path133" />
    </g>
    <g
       id="g149"
       style="clip-rule:evenodd;fill-rule:evenodd;image-rendering:optimizeQuality;shape-rendering:geometricPrecision;text-rendering:geometricPrecision"
       transform="matrix(0.31250672,0,0,0.31250672,-7.2025366,-6.8728812)">
      <path
         style="opacity:1"
         fill="#a9241f"
         d="m 133.5,96.5 c -0.332,11.353 0.001,22.686 1,34 1.333,1 2.667,2 4,3 8.794,15.783 11.628,32.783 8.5,51 -2.805,3.153 -6.305,4.819 -10.5,5 0.333,-16.68 -0.001,-33.347 -1,-50 -0.586,0.209 -1.086,0.543 -1.5,1 -0.5,18.33 -0.667,36.664 -0.5,55 3,0 6,0 9,0 -2.805,0.819 -5.805,1.319 -9,1.5 3.317,0.498 6.65,0.665 10,0.5 0,0.333 0,0.667 0,1 -3.333,0 -6.667,0 -10,0 -0.326,34.073 0.007,68.073 1,102 -0.992,0.172 -1.658,-0.162 -2,-1 0.166,-5.344 -0.001,-10.677 -0.5,-16 -0.977,1.274 -1.811,1.274 -2.5,0 1.327,-18.171 1.327,-36.504 0,-55 -0.682,0.743 -1.349,1.409 -2,2 -0.149,-1.052 0.017,-2.052 0.5,-3 1.518,-0.663 2.685,-1.663 3.5,-3 0.998,-27.828 1.331,-55.828 1,-84 -2.667,0 -5.333,0 -8,0 0.558,-1.29 1.558,-2.123 3,-2.5 2.932,-0.953 5.932,-1.453 9,-1.5 -0.531,-3.279 -2.531,-4.613 -6,-4 0,-0.667 0,-1.333 0,-2 0,-0.333 0,-0.667 0,-1 0.79,-1.109 1.29,-2.442 1.5,-4 0.17,-9.842 0.67,-19.509 1.5,-29 z"
         id="path149" />
    </g>
    <g
       id="g150"
       style="clip-rule:evenodd;fill-rule:evenodd;image-rendering:optimizeQuality;shape-rendering:geometricPrecision;text-rendering:geometricPrecision"
       transform="matrix(0.31250672,0,0,0.31250672,-7.2025366,-6.8728812)">
      <path
         style="opacity:1"
         fill="#cd332c"
         d="m 139.5,144.5 c 5.43,6.929 7.43,14.929 6,24 -0.167,4.667 -0.333,9.333 -0.5,14 -1.509,2.419 -3.675,3.419 -6.5,3 -0.26,-13.696 0.073,-27.363 1,-41 z"
         id="path150" />
    </g>
    <g
       id="g151"
       style="clip-rule:evenodd;fill-rule:evenodd;image-rendering:optimizeQuality;shape-rendering:geometricPrecision;text-rendering:geometricPrecision"
       transform="matrix(0.31250672,0,0,0.31250672,-7.2025366,-6.8728812)">
      <path
         style="opacity:1"
         fill="#eb6961"
         d="m 228.5,214.5 c 0,28.333 0,56.667 0,85 -1,0 -2,0 -3,0 -0.167,-32.335 0,-64.668 0.5,-97 0.705,4.165 1.539,8.165 2.5,12 z"
         id="path151" />
    </g>
    <g
       id="g158"
       style="clip-rule:evenodd;fill-rule:evenodd;image-rendering:optimizeQuality;shape-rendering:geometricPrecision;text-rendering:geometricPrecision"
       transform="matrix(0.31250672,0,0,0.31250672,-7.2025366,-6.8728812)">
      <path
         style="opacity:1"
         fill="#ab1c16"
         d="m 138.5,202.5 c 28.667,0 57.333,0 86,0 0.167,31.668 0,63.335 -0.5,95 -14.26,0.663 -28.594,0.996 -43,1 -14.406,-0.004 -28.74,-0.337 -43,-1 -0.825,-31.738 -0.658,-63.405 0.5,-95 z"
         id="path158" />
    </g>
    <g
       id="g159"
       style="clip-rule:evenodd;fill-rule:evenodd;image-rendering:optimizeQuality;shape-rendering:geometricPrecision;text-rendering:geometricPrecision"
       transform="matrix(0.31250672,0,0,0.31250672,-7.2025366,-6.8728812)">
      <path
         style="opacity:1"
         fill="#d6392e"
         d="m 140.5,229.5 c 4.303,-0.704 7.803,0.63 10.5,4 0.667,12.333 0.667,24.667 0,37 -2.22,4.192 -5.72,5.859 -10.5,5 0,-15.333 0,-30.667 0,-46 z"
         id="path159" />
    </g>
    <g
       id="g160"
       style="clip-rule:evenodd;fill-rule:evenodd;image-rendering:optimizeQuality;shape-rendering:geometricPrecision;text-rendering:geometricPrecision"
       transform="matrix(0.31250672,0,0,0.31250672,-7.2025366,-6.8728812)">
      <path
         style="opacity:1"
         fill="#d53b31"
         d="m 216.5,229.5 c 1.667,0 3.333,0 5,0 0,15.333 0,30.667 0,46 -3.787,0.686 -6.954,-0.314 -9.5,-3 -0.667,-13.333 -0.667,-26.667 0,-40 1.652,-0.899 3.152,-1.899 4.5,-3 z"
         id="path160" />
    </g>
    <g
       id="g161"
       style="clip-rule:evenodd;fill-rule:evenodd;image-rendering:optimizeQuality;shape-rendering:geometricPrecision;text-rendering:geometricPrecision"
       transform="matrix(0.31250672,0,0,0.31250672,-7.2025366,-6.8728812)">
      <path
         style="opacity:1"
         fill="#c62f27"
         d="m 200.5,209.5 c -0.333,27.008 0,54.008 1,81 0.607,-0.124 0.94,-0.457 1,-1 0.768,0.763 1.268,1.763 1.5,3 0.667,-1.333 1.333,-1.333 2,0 0.915,-0.828 1.581,-1.828 2,-3 0.333,0.667 0.667,1.333 1,2 0.333,-3.333 0.667,-6.667 1,-10 0.414,-0.457 0.914,-0.791 1.5,-1 1.159,3.622 1.325,7.289 0.5,11 -2.66,1.334 -5.494,2.168 -8.5,2.5 5.973,-0.517 11.973,-0.35 18,0.5 0,-5.333 0,-10.667 0,-16 -2.235,0.295 -4.235,-0.039 -6,-1 2.333,0 4.667,0 7,0 0,6 0,12 0,18 -20.169,0.678 -40.169,0.678 -60,0 8.34,0.166 16.673,0 25,-0.5 1.473,-0.71 2.14,-1.876 2,-3.5 1,0 2,0 3,0 0,-26.667 0,-53.333 0,-80 0.731,5.355 1.398,10.855 2,16.5 -0.755,10.161 -0.922,20.661 -0.5,31.5 0.5,0.5 1,1 1.5,1.5 -1.252,2.041 -1.919,4.375 -2,7 0.426,6.694 0.426,13.36 0,20 -0.194,3.988 1.472,5.488 5,4.5 0.667,-27.83 1.333,-55.497 2,-83 z"
         id="path161" />
    </g>
    <g
       id="g162"
       style="clip-rule:evenodd;fill-rule:evenodd;image-rendering:optimizeQuality;shape-rendering:geometricPrecision;text-rendering:geometricPrecision"
       transform="matrix(0.31250672,0,0,0.31250672,-7.2025366,-6.8728812)">
      <path
         style="opacity:1"
         fill="#d0372d"
         d="m 219.5,205.5 c -9.006,-0.166 -18.006,0 -27,0.5 -0.5,0.5 -1,1 -1.5,1.5 -10.68,-2.508 -21.68,-2.508 -33,0 -0.414,-0.457 -0.914,-0.791 -1.5,-1 -0.249,1.082 -0.415,2.415 -0.5,4 -0.914,-1.154 -1.747,-0.987 -2.5,0.5 0.457,0.414 0.791,0.914 1,1.5 -2.04,3.478 -2.54,7.145 -1.5,11 -1.299,-0.466 -2.799,-0.466 -4.5,0 0.166,-5.011 -0.001,-10.011 -0.5,-15 -1.555,-1.646 -3.221,-1.979 -5,-1 -0.667,5.667 -0.667,11.333 0,17 3.178,1.356 6.178,2.356 9,3 0.914,-1.154 1.747,-0.987 2.5,0.5 -0.333,0.333 -0.667,0.667 -1,1 0.916,0.374 1.75,0.874 2.5,1.5 0.199,-1.902 1.033,-3.402 2.5,-4.5 -2.457,-1.512 -2.457,-2.846 0,-4 -0.135,-2.543 -0.802,-5.21 -2,-8 0.749,-1.734 1.249,-3.567 1.5,-5.5 0.383,0.556 0.883,0.889 1.5,1 0.667,109.333 1.333,109.333 2,0 1.313,28.527 1.313,57.194 0,86 -7,0 -14,0 -21,0 0,-5.667 0,-11.333 0,-17 5.109,0.577 9.276,-1.09 12.5,-5 0.667,-13.667 0.667,-27.333 0,-41 -2.945,-4.297 -7.112,-6.297 -12.5,-6 0,-7.333 0,-14.667 0,-22 26.505,-0.331 52.839,0.002 79,1 z"
         id="path162" />
    </g>
    <g
       id="g163"
       style="clip-rule:evenodd;fill-rule:evenodd;image-rendering:optimizeQuality;shape-rendering:geometricPrecision;text-rendering:geometricPrecision"
       transform="matrix(0.31250672,0,0,0.31250672,-7.2025366,-6.8728812)">
      <path
         style="opacity:1"
         fill="#d73a30"
         d="m 219.5,205.5 c 1.961,6.587 2.628,13.587 2,21 -5.448,-0.525 -9.615,1.475 -12.5,6 -0.667,13.333 -0.667,26.667 0,40 1.191,3.034 3.358,4.701 6.5,5 1.765,0.961 3.765,1.295 6,1 0,5.333 0,10.667 0,16 -6.027,-0.85 -12.027,-1.017 -18,-0.5 3.006,-0.332 5.84,-1.166 8.5,-2.5 0.825,-3.711 0.659,-7.378 -0.5,-11 -0.586,0.209 -1.086,0.543 -1.5,1 -0.333,3.333 -0.667,6.667 -1,10 -0.333,-0.667 -0.667,-1.333 -1,-2 -0.419,1.172 -1.085,2.172 -2,3 -0.667,-1.333 -1.333,-1.333 -2,0 -0.232,-1.237 -0.732,-2.237 -1.5,-3 0.658,-27.021 -0.009,-53.688 -2,-80 -0.667,27.503 -1.333,55.17 -2,83 -3.528,0.988 -5.194,-0.512 -5,-4.5 0.426,-6.64 0.426,-13.306 0,-20 0.081,-2.625 0.748,-4.959 2,-7 -0.5,-0.5 -1,-1 -1.5,-1.5 -0.422,-10.839 -0.255,-21.339 0.5,-31.5 -0.602,-5.645 -1.269,-11.145 -2,-16.5 -0.321,-1.548 -1.321,-2.215 -3,-2 0,27.333 0,54.667 0,82 0.14,1.624 -0.527,2.79 -2,3.5 -8.327,0.5 -16.66,0.666 -25,0.5 -0.333,0 -0.667,0 -1,0 1.313,-28.806 1.313,-57.473 0,-86 -0.667,0 -1.333,0 -2,0 -0.617,-0.111 -1.117,-0.444 -1.5,-1 -0.251,1.933 -0.751,3.766 -1.5,5.5 1.198,2.79 1.865,5.457 2,8 -2.457,1.154 -2.457,2.488 0,4 -1.467,1.098 -2.301,2.598 -2.5,4.5 -0.75,-0.626 -1.584,-1.126 -2.5,-1.5 0.333,-0.333 0.667,-0.667 1,-1 -0.753,-1.487 -1.586,-1.654 -2.5,-0.5 -2.822,-0.644 -5.822,-1.644 -9,-3 -0.667,-5.667 -0.667,-11.333 0,-17 1.779,-0.979 3.445,-0.646 5,1 0.499,4.989 0.666,9.989 0.5,15 1.701,-0.466 3.201,-0.466 4.5,0 -1.04,-3.855 -0.54,-7.522 1.5,-11 -0.209,-0.586 -0.543,-1.086 -1,-1.5 0.753,-1.487 1.586,-1.654 2.5,-0.5 0.085,-1.585 0.251,-2.918 0.5,-4 0.586,0.209 1.086,0.543 1.5,1 11.32,-2.508 22.32,-2.508 33,0 0.5,-0.5 1,-1 1.5,-1.5 8.994,-0.5 17.994,-0.666 27,-0.5 z"
         id="path163" />
    </g>
    <g
       id="g164"
       style="clip-rule:evenodd;fill-rule:evenodd;image-rendering:optimizeQuality;shape-rendering:geometricPrecision;text-rendering:geometricPrecision"
       transform="matrix(0.31250672,0,0,0.31250672,-7.2025366,-6.8728812)">
      <path
         style="opacity:1"
         fill="#b51e17"
         d="m 179.5,209.5 c 1,0 2,0 3,0 0,27.333 0,54.667 0,82 -1,0 -2,0 -3,0 0,-27.333 0,-54.667 0,-82 z"
         id="path164" />
    </g>
    <g
       id="g165"
       style="clip-rule:evenodd;fill-rule:evenodd;image-rendering:optimizeQuality;shape-rendering:geometricPrecision;text-rendering:geometricPrecision"
       transform="matrix(0.31250672,0,0,0.31250672,-7.2025366,-6.8728812)">
      <path
         style="opacity:1"
         fill="#b72018"
         d="m 169.5,209.5 c 1,0 2,0 3,0 0.167,27.002 0,54.002 -0.5,81 -0.414,0.457 -0.914,0.791 -1.5,1 -1,-27.325 -1.333,-54.659 -1,-82 z"
         id="path165" />
    </g>
    <g
       id="g166"
       style="clip-rule:evenodd;fill-rule:evenodd;image-rendering:optimizeQuality;shape-rendering:geometricPrecision;text-rendering:geometricPrecision"
       transform="matrix(0.31250672,0,0,0.31250672,-7.2025366,-6.8728812)">
      <path
         style="opacity:1"
         fill="#f2c8c8"
         d="m 238.5,230.5 c 0.617,0.111 1.117,0.444 1.5,1 0.828,15.839 0.661,31.505 -0.5,47 0.303,-16.048 -0.03,-32.048 -1,-48 z"
         id="path166" />
    </g>
    <g
       id="g168"
       style="clip-rule:evenodd;fill-rule:evenodd;image-rendering:optimizeQuality;shape-rendering:geometricPrecision;text-rendering:geometricPrecision"
       transform="matrix(0.31250672,0,0,0.31250672,-7.2025366,-6.8728812)">
      <path
         style="opacity:1"
         fill="#ab160f"
         d="m 200.5,209.5 c 1.991,26.312 2.658,52.979 2,80 -0.06,0.543 -0.393,0.876 -1,1 -1,-26.992 -1.333,-53.992 -1,-81 z"
         id="path168" />
    </g>
    <g
       id="g179"
       style="clip-rule:evenodd;fill-rule:evenodd;image-rendering:optimizeQuality;shape-rendering:geometricPrecision;text-rendering:geometricPrecision"
       transform="matrix(0.31250672,0,0,0.31250672,-7.2025366,-6.8728812)">
      <path
         style="opacity:1"
         fill="#96312f"
         d="m 233.5,224.5 c 0.333,0 0.667,0 1,0 1.333,2 2.667,4 4,6 0.97,15.952 1.303,31.952 1,48 -1.096,2.532 -2.429,4.865 -4,7 0,-1.333 0,-2.667 0,-4 0.306,-17.714 -0.027,-35.38 -1,-53 -0.333,-1.333 -0.667,-2.667 -1,-4 z"
         id="path179" />
    </g>
    <g
       id="g181"
       style="clip-rule:evenodd;fill-rule:evenodd;image-rendering:optimizeQuality;shape-rendering:geometricPrecision;text-rendering:geometricPrecision"
       transform="matrix(0.31250672,0,0,0.31250672,-7.2025366,-6.8728812)">
      <path
         style="opacity:1"
         fill="#b31e16"
         d="m 192.5,211.5 c 0,26.667 0,53.333 0,80 -1,0 -2,0 -3,0 0,-27.333 0,-54.667 0,-82 1.679,-0.215 2.679,0.452 3,2 z"
         id="path181" />
    </g>
    <g
       id="g198"
       style="clip-rule:evenodd;fill-rule:evenodd;image-rendering:optimizeQuality;shape-rendering:geometricPrecision;text-rendering:geometricPrecision"
       transform="matrix(0.31250672,0,0,0.31250672,-7.2025366,-6.8728812)">
      <path
         style="opacity:1"
         fill="#953f39"
         d="m 129.5,142.5 c 0.617,0.111 1.117,0.444 1.5,1 0.5,26.998 0.667,53.998 0.5,81 -0.815,1.337 -1.982,2.337 -3.5,3 -0.483,0.948 -0.649,1.948 -0.5,3 -0.904,0.709 -1.237,1.709 -1,3 -1.331,7.136 -1.997,14.636 -2,22.5 0.167,7.5 0.333,15 0.5,22.5 1.732,2.894 3.232,5.894 4.5,9 -3.435,-1.956 -5.602,-4.956 -6.5,-9 -0.667,-15.333 -0.667,-30.667 0,-46 0.6,-3.54 2.434,-6.207 5.5,-8 1,-27.325 1.333,-54.659 1,-82 z"
         id="path198" />
    </g>
    <g
       id="g202"
       style="clip-rule:evenodd;fill-rule:evenodd;image-rendering:optimizeQuality;shape-rendering:geometricPrecision;text-rendering:geometricPrecision"
       transform="matrix(0.31250672,0,0,0.31250672,-7.2025366,-6.8728812)">
      <path
         style="opacity:1"
         fill="#a31d17"
         d="m 229.5,224.5 c 1.333,0.667 2.333,1.667 3,3 -1.328,18.504 -1.328,37.171 0,56 1.018,-0.693 2.018,-1.359 3,-2 0,1.333 0,2.667 0,4 -3.088,-0.303 -4.754,1.03 -5,4 -0.997,-21.494 -1.331,-43.16 -1,-65 z"
         id="path202" />
    </g>
    <g
       id="g203"
       style="clip-rule:evenodd;fill-rule:evenodd;image-rendering:optimizeQuality;shape-rendering:geometricPrecision;text-rendering:geometricPrecision"
       transform="matrix(0.31250672,0,0,0.31250672,-7.2025366,-6.8728812)">
      <path
         style="opacity:1"
         fill="#972320"
         d="m 126.5,233.5 c -0.167,15.004 0,30.004 0.5,45 0.366,1.952 1.199,3.618 2.5,5 0.689,1.274 1.523,1.274 2.5,0 0.499,5.323 0.666,10.656 0.5,16 -0.667,-1.667 -1.333,-3.333 -2,-5 0.302,-2.559 -0.032,-4.893 -1,-7 -1.268,-3.106 -2.768,-6.106 -4.5,-9 -0.167,-7.5 -0.333,-15 -0.5,-22.5 0.003,-7.864 0.669,-15.364 2,-22.5 z"
         id="path203" />
    </g>
    <g
       id="g204"
       style="clip-rule:evenodd;fill-rule:evenodd;image-rendering:optimizeQuality;shape-rendering:geometricPrecision;text-rendering:geometricPrecision"
       transform="matrix(0.31250672,0,0,0.31250672,-7.2025366,-6.8728812)">
      <path
         style="opacity:1"
         fill="#e75f5a"
         d="m 232.5,227.5 c 0.667,0.333 1.333,0.667 2,1 0.973,17.62 1.306,35.286 1,53 -0.982,0.641 -1.982,1.307 -3,2 -1.328,-18.829 -1.328,-37.496 0,-56 z"
         id="path204" />
    </g>
    <g
       id="g205"
       style="clip-rule:evenodd;fill-rule:evenodd;image-rendering:optimizeQuality;shape-rendering:geometricPrecision;text-rendering:geometricPrecision"
       transform="matrix(0.31250672,0,0,0.31250672,-7.2025366,-6.8728812)">
      <path
         style="opacity:1"
         fill="#eb6963"
         d="m 129.5,283.5 c -1.301,-1.382 -2.134,-3.048 -2.5,-5 -0.5,-14.996 -0.667,-29.996 -0.5,-45 -0.237,-1.291 0.096,-2.291 1,-3 0.651,-0.591 1.318,-1.257 2,-2 1.327,18.496 1.327,36.829 0,55 z"
         id="path205" />
    </g>
    <g
       id="g207"
       style="clip-rule:evenodd;fill-rule:evenodd;image-rendering:optimizeQuality;shape-rendering:geometricPrecision;text-rendering:geometricPrecision"
       transform="matrix(0.31250672,0,0,0.31250672,-7.2025366,-6.8728812)">
      <path
         style="opacity:1"
         fill="#ac1a11"
         d="m 159.5,209.5 c 0.667,0 1.333,0 2,0 -0.667,109.333 -1.333,109.333 -2,0 z"
         id="path207" />
    </g>
    <g
       id="g218"
       style="clip-rule:evenodd;fill-rule:evenodd;image-rendering:optimizeQuality;shape-rendering:geometricPrecision;text-rendering:geometricPrecision"
       transform="matrix(0.31250672,0,0,0.31250672,-7.2025366,-6.8728812)">
      <path
         style="opacity:1"
         fill="#9c4844"
         d="m 235.5,285.5 c -2.695,4.118 -3.695,8.784 -3,14 -0.667,0.667 -1.333,1.333 -2,2 0,-4 0,-8 0,-12 0.246,-2.97 1.912,-4.303 5,-4 z"
         id="path218" />
    </g>
    <g
       id="g231"
       style="clip-rule:evenodd;fill-rule:evenodd;image-rendering:optimizeQuality;shape-rendering:geometricPrecision;text-rendering:geometricPrecision"
       transform="matrix(0.31250672,0,0,0.31250672,-7.2025366,-6.8728812)">
      <path
         style="opacity:1"
         fill="#781a19"
         d="m 130.5,294.5 c 0.667,1.667 1.333,3.333 2,5 0.342,0.838 1.008,1.172 2,1 0.333,1 1,1.667 2,2 30.829,0.998 61.829,1.331 93,1 -0.79,0.901 -1.79,1.568 -3,2 -31.007,0.333 -62.007,0 -93,-1 -2.48,-2.861 -3.48,-6.194 -3,-10 z"
         id="path231" />
    </g>
    <g
       id="g235"
       style="clip-rule:evenodd;fill-rule:evenodd;image-rendering:optimizeQuality;shape-rendering:geometricPrecision;text-rendering:geometricPrecision"
       transform="matrix(0.31250672,0,0,0.31250672,-7.2025366,-6.8728812)">
      <path
         style="opacity:1"
         fill="#f9e7e6"
         d="m 232.5,299.5 c 0.338,2.657 -0.329,4.99 -2,7 -10.651,0.832 -21.318,1.332 -32,1.5 -1.601,0.273 -3.101,0.773 -4.5,1.5 -11.812,-0.852 -23.478,-0.852 -35,0 -7.087,-0.815 -14.253,-1.315 -21.5,-1.5 -0.916,-0.278 -1.582,-0.778 -2,-1.5 30.505,0.331 60.838,-0.002 91,-1 1.21,-0.432 2.21,-1.099 3,-2 0.333,-0.667 0.667,-1.333 1,-2 0.667,-0.667 1.333,-1.333 2,-2 z"
         id="path235" />
    </g>
  </g>
</svg>
