<?xml version="1.0" encoding="UTF-8" standalone="no"?>
<!-- Created with Inkscape (http://www.inkscape.org/) -->

<svg
   width="96mm"
   height="96mm"
   viewBox="0 0 96 96"
   version="1.1"
   id="svg1"
   inkscape:version="1.4.2 (ebf0e940, 2025-05-08)"
   sodipodi:docname="motocycle.svg"
   xmlns:inkscape="http://www.inkscape.org/namespaces/inkscape"
   xmlns:sodipodi="http://sodipodi.sourceforge.net/DTD/sodipodi-0.dtd"
   xmlns="http://www.w3.org/2000/svg"
   xmlns:svg="http://www.w3.org/2000/svg">
  <sodipodi:namedview
     id="namedview1"
     pagecolor="#ffffff"
     bordercolor="#000000"
     borderopacity="0.25"
     inkscape:showpageshadow="2"
     inkscape:pageopacity="0.0"
     inkscape:pagecheckerboard="0"
     inkscape:deskcolor="#d1d1d1"
     inkscape:document-units="mm"
     inkscape:zoom="0.80444024"
     inkscape:cx="397.17059"
     inkscape:cy="362.36377"
     inkscape:window-width="1920"
     inkscape:window-height="1052"
     inkscape:window-x="0"
     inkscape:window-y="28"
     inkscape:window-maximized="0"
     inkscape:current-layer="layer1" />
  <defs
     id="defs1" />
  <g
     inkscape:label="Layer 1"
     inkscape:groupmode="layer"
     id="layer1">
    <g
       id="g3"
       style="clip-rule:evenodd;fill-rule:evenodd;image-rendering:optimizeQuality;shape-rendering:geometricPrecision;text-rendering:geometricPrecision"
       transform="matrix(0.30917983,0,0,0.30917983,-115.59887,-6.3442382)">
      <path
         style="opacity:1"
         fill="#b6534c"
         d="m 543.5,52.5 c 0.565,4.6493 1.065,9.316 1.5,14 0.278,0.9158 0.778,1.5825 1.5,2 0,0.3333 0,0.6667 0,1 0,1 0,2 0,3 -1.629,-2.3577 -2.795,-5.0243 -3.5,-8 -0.333,-4.3333 -0.667,-8.6667 -1,-13 -3.9,-4.6786 -8.733,-6.012 -14.5,-4 2.316,-3.0547 5.316,-3.7214 9,-2 3.37,1.3698 5.703,3.7031 7,7 z"
         id="path3" />
    </g>
    <g
       id="g8"
       style="clip-rule:evenodd;fill-rule:evenodd;image-rendering:optimizeQuality;shape-rendering:geometricPrecision;text-rendering:geometricPrecision"
       transform="matrix(0.30917983,0,0,0.30917983,-115.59887,-6.3442382)">
      <path
         style="opacity:1"
         fill="#d14339"
         d="m 546.5,72.5 c 0,0.6667 0.333,1 1,1 0.437,1.5744 1.437,2.7411 3,3.5 -0.556,0.3826 -0.889,0.8826 -1,1.5 0,0.6667 0,1.3333 0,2 -1.333,-0.3333 -2.667,-0.6667 -4,-1 -0.765,-2.9711 -2.099,-5.6377 -4,-8 2.46,-1.9037 2.127,-3.7371 -1,-5.5 1.035,-1.5069 0.868,-3.0069 -0.5,-4.5 -1.147,0.9581 -2.147,0.6247 -3,-1 -0.849,2.0056 -2.015,2.6723 -3.5,2 1.835,-0.9277 2.168,-2.0944 1,-3.5 3.185,-0.6567 4.852,-2.6567 5,-6 -2.506,-4.3023 -5.506,-4.969 -9,-2 0.667,0.3333 1.333,0.6667 2,1 -3.318,-0.8091 -5.485,0.6909 -6.5,4.5 -0.215,2.6258 -0.048,4.9592 0.5,7 -2.488,2.5933 -2.488,4.9266 0,7 -1.213,2.7254 -3.046,5.0588 -5.5,7 -0.483,0.948 -0.649,1.948 -0.5,3 -1.298,0.6157 -2.298,0.6157 -3,0 0,-1.3333 -0.667,-2 -2,-2 -0.543,-0.06 -0.876,-0.3933 -1,-1 8.234,-4.9638 11.4,-12.2972 9.5,-22 1.845,-2.3668 3.011,-5.0335 3.5,-8 5.767,-2.012 10.6,-0.6786 14.5,4 0.333,4.3333 0.667,8.6667 1,13 0.705,2.9757 1.871,5.6423 3.5,8 z"
         id="path8" />
    </g>
    <g
       id="g10"
       style="clip-rule:evenodd;fill-rule:evenodd;image-rendering:optimizeQuality;shape-rendering:geometricPrecision;text-rendering:geometricPrecision"
       transform="matrix(0.30917983,0,0,0.30917983,-115.59887,-6.3442382)">
      <path
         style="opacity:1"
         fill="#f6d8d5"
         d="m 546.5,65.5 c -0.544,-4.4347 -1.544,-8.768 -3,-13 -1.297,-3.2969 -3.63,-5.6302 -7,-7 -3.684,-1.7214 -6.684,-1.0547 -9,2 -0.992,-0.1716 -1.658,0.1618 -2,1 -0.333,0 -0.667,0 -1,0 0.086,-0.9959 -0.248,-1.8292 -1,-2.5 2.485,0.6228 4.485,-0.3772 6,-3 8.624,-0.8598 14.124,2.9735 16.5,11.5 0.499,3.6516 0.665,7.3183 0.5,11 z"
         id="path10" />
    </g>
    <g
       id="g14"
       style="clip-rule:evenodd;fill-rule:evenodd;image-rendering:optimizeQuality;shape-rendering:geometricPrecision;text-rendering:geometricPrecision"
       transform="matrix(0.30917983,0,0,0.30917983,-115.59887,-6.3442382)">
      <path
         style="opacity:1"
         fill="#de948e"
         d="m 524.5,48.5 c 0.333,0 0.667,0 1,0 -1.011,1.8716 -1.845,3.8716 -2.5,6 -0.176,4.1877 -0.676,8.1877 -1.5,12 -0.166,-4.6785 10e-4,-9.3452 0.5,-14 0.662,-1.4839 1.496,-2.8172 2.5,-4 z"
         id="path14" />
    </g>
    <g
       id="g18"
       style="clip-rule:evenodd;fill-rule:evenodd;image-rendering:optimizeQuality;shape-rendering:geometricPrecision;text-rendering:geometricPrecision"
       transform="matrix(0.30917983,0,0,0.30917983,-115.59887,-6.3442382)">
      <path
         style="opacity:1"
         fill="#eca9a5"
         d="m 543.5,52.5 c 1.456,4.232 2.456,8.5653 3,13 0,1 0,2 0,3 -0.722,-0.4175 -1.222,-1.0842 -1.5,-2 -0.435,-4.684 -0.935,-9.3507 -1.5,-14 z"
         id="path18" />
    </g>
    <g
       id="g19"
       style="clip-rule:evenodd;fill-rule:evenodd;image-rendering:optimizeQuality;shape-rendering:geometricPrecision;text-rendering:geometricPrecision"
       transform="matrix(0.30917983,0,0,0.30917983,-115.59887,-6.3442382)">
      <path
         style="opacity:1"
         fill="#d83f33"
         d="m 541.5,71.5 c -4.831,-2.3066 -9.831,-2.64 -15,-1 -2.488,-2.0734 -2.488,-4.4067 0,-7 -0.548,-2.0408 -0.715,-4.3742 -0.5,-7 1.015,-3.8091 3.182,-5.3091 6.5,-4.5 -0.667,-0.3333 -1.333,-0.6667 -2,-1 3.494,-2.969 6.494,-2.3023 9,2 -0.148,3.3433 -1.815,5.3433 -5,6 1.168,1.4056 0.835,2.5723 -1,3.5 1.485,0.6723 2.651,0.0056 3.5,-2 0.853,1.6247 1.853,1.9581 3,1 1.368,1.4931 1.535,2.9931 0.5,4.5 3.127,1.7629 3.46,3.5963 1,5.5 z"
         id="path19" />
    </g>
    <g
       id="g27"
       style="clip-rule:evenodd;fill-rule:evenodd;image-rendering:optimizeQuality;shape-rendering:geometricPrecision;text-rendering:geometricPrecision"
       transform="matrix(0.30917983,0,0,0.30917983,-115.59887,-6.3442382)">
      <path
         style="opacity:1"
         fill="#be4842"
         d="m 541.5,71.5 c 1.901,2.3623 3.235,5.0289 4,8 -2.3,-2.484 -4.967,-4.484 -8,-6 -0.342,-0.8382 -1.008,-1.1716 -2,-1 -6.262,-1.8163 -10.596,0.517 -13,7 -0.667,0.3333 -1.333,0.6667 -2,1 -0.149,-1.052 0.017,-2.052 0.5,-3 2.454,-1.9412 4.287,-4.2746 5.5,-7 5.169,-1.64 10.169,-1.3066 15,1 z"
         id="path27" />
    </g>
    <g
       id="g29"
       style="clip-rule:evenodd;fill-rule:evenodd;image-rendering:optimizeQuality;shape-rendering:geometricPrecision;text-rendering:geometricPrecision"
       transform="matrix(0.30917983,0,0,0.30917983,-115.59887,-6.3442382)">
      <path
         style="opacity:1"
         fill="#fad9d6"
         d="m 524.5,48.5 c -1.004,1.1828 -1.838,2.5161 -2.5,4 -0.499,4.6548 -0.666,9.3215 -0.5,14 -1.088,2.0825 -2.088,4.2492 -3,6.5 -3.521,1.5918 -6.854,3.4251 -10,5.5 0,-1 0,-2 0,-3 6.362,-0.4302 10.195,-3.7636 11.5,-10 0.333,-5 0.667,-10 1,-15 0.71,-1.4733 1.876,-2.1399 3.5,-2 z"
         id="path29" />
    </g>
    <g
       id="g31"
       style="clip-rule:evenodd;fill-rule:evenodd;image-rendering:optimizeQuality;shape-rendering:geometricPrecision;text-rendering:geometricPrecision"
       transform="matrix(0.30917983,0,0,0.30917983,-115.59887,-6.3442382)">
      <path
         style="opacity:1"
         fill="#e8a29e"
         d="m 546.5,69.5 c 1.032,1.8784 2.366,3.5451 4,5 -1.109,-0.0569 -2.109,-0.3902 -3,-1 -0.667,0 -1,-0.3333 -1,-1 0,-1 0,-2 0,-3 z"
         id="path31" />
    </g>
    <g
       id="g33"
       style="clip-rule:evenodd;fill-rule:evenodd;image-rendering:optimizeQuality;shape-rendering:geometricPrecision;text-rendering:geometricPrecision"
       transform="matrix(0.30917983,0,0,0.30917983,-115.59887,-6.3442382)">
      <path
         style="opacity:1"
         fill="#f9f6f5"
         d="m 537.5,73.5 c 3.033,1.516 5.7,3.516 8,6 0.941,1.5495 1.607,3.2162 2,5 0.173,3.2966 0.673,6.2966 1.5,9 -10.712,-6.2346 -21.545,-6.5679 -32.5,-1 2.084,-3.1406 3.75,-6.6406 5,-10.5 3.297,-2.2954 6.297,-4.962 9,-8 2.31,-0.4966 4.643,-0.6633 7,-0.5 z"
         id="path33" />
    </g>
    <g
       id="g34"
       style="clip-rule:evenodd;fill-rule:evenodd;image-rendering:optimizeQuality;shape-rendering:geometricPrecision;text-rendering:geometricPrecision"
       transform="matrix(0.30917983,0,0,0.30917983,-115.59887,-6.3442382)">
      <path
         style="opacity:1"
         fill="#f9dfdc"
         d="m 504.5,81.5 c -1.199,2.5321 -3.199,3.8654 -6,4 -2.876,-0.8658 -5.542,-2.1992 -8,-4 -6.516,-2.7421 -12.849,-2.0755 -19,2 0,-1.3333 0,-2.6667 0,-4 9.653,-2.1074 18.819,-1.1074 27.5,3 1.326,-0.2549 2.326,-0.9216 3,-2 0.671,0.7524 1.504,1.0858 2.5,1 z"
         id="path34" />
    </g>
    <g
       id="g35"
       style="clip-rule:evenodd;fill-rule:evenodd;image-rendering:optimizeQuality;shape-rendering:geometricPrecision;text-rendering:geometricPrecision"
       transform="matrix(0.30917983,0,0,0.30917983,-115.59887,-6.3442382)">
      <path
         style="opacity:1"
         fill="#eda9a7"
         d="m 535.5,72.5 c -2.027,-0.1621 -4.027,0.0045 -6,0.5 -2.203,2.3722 -4.537,4.5389 -7,6.5 2.404,-6.483 6.738,-8.8163 13,-7 z"
         id="path35" />
    </g>
    <g
       id="g36"
       style="clip-rule:evenodd;fill-rule:evenodd;image-rendering:optimizeQuality;shape-rendering:geometricPrecision;text-rendering:geometricPrecision"
       transform="matrix(0.30917983,0,0,0.30917983,-115.59887,-6.3442382)">
      <path
         style="opacity:1"
         fill="#ba574e"
         d="m 547.5,73.5 c 0.891,0.6098 1.891,0.9431 3,1 3.958,2.6518 7.958,5.3184 12,8 0.667,1 1.333,2 2,3 -1.291,-0.2373 -2.291,0.096 -3,1 -4.029,-2.6769 -8.029,-5.3435 -12,-8 0.111,-0.6174 0.444,-1.1174 1,-1.5 -1.563,-0.7589 -2.563,-1.9256 -3,-3.5 z"
         id="path36" />
    </g>
    <g
       id="g39"
       style="clip-rule:evenodd;fill-rule:evenodd;image-rendering:optimizeQuality;shape-rendering:geometricPrecision;text-rendering:geometricPrecision"
       transform="matrix(0.30917983,0,0,0.30917983,-115.59887,-6.3442382)">
      <path
         style="opacity:1"
         fill="#f5988f"
         d="m 549.5,78.5 c 3.971,2.6565 7.971,5.3231 12,8 0,1.6667 0,3.3333 0,5 2.778,-0.4783 4.778,0.5217 6,3 -2.946,1.1548 -5.946,1.3214 -9,0.5 -2.886,-4.9452 -5.886,-9.7785 -9,-14.5 0,-0.6667 0,-1.3333 0,-2 z"
         id="path39" />
    </g>
    <g
       id="g40"
       style="clip-rule:evenodd;fill-rule:evenodd;image-rendering:optimizeQuality;shape-rendering:geometricPrecision;text-rendering:geometricPrecision"
       transform="matrix(0.30917983,0,0,0.30917983,-115.59887,-6.3442382)">
      <path
         style="opacity:1"
         fill="#b55b55"
         d="m 579.5,79.5 c 2.357,-0.1633 4.69,0.0034 7,0.5 4,1.6667 8,3.3333 12,5 2.161,4.4481 0.828,6.6148 -4,6.5 3.319,-1.5987 3.652,-3.5987 1,-6 -0.683,0.3627 -1.35,0.6961 -2,1 -2.298,-1.9607 -4.965,-2.9607 -8,-3 -2.488,-1.8878 -5.488,-2.5545 -9,-2 0.473,-1.4063 1.473,-2.073 3,-2 z"
         id="path40" />
    </g>
    <g
       id="g41"
       style="clip-rule:evenodd;fill-rule:evenodd;image-rendering:optimizeQuality;shape-rendering:geometricPrecision;text-rendering:geometricPrecision"
       transform="matrix(0.30917983,0,0,0.30917983,-115.59887,-6.3442382)">
      <path
         style="opacity:1"
         fill="#f69c94"
         d="m 515.5,78.5 c 1.333,0 2,0.6667 2,2 -3.3,4.9771 -6.633,9.9771 -10,15 -2.667,0 -5.333,0 -8,0 -0.17,-1.3221 0.163,-2.4887 1,-3.5 1.882,-0.1981 3.548,-0.6981 5,-1.5 -0.157,-1.3734 0.01,-2.7068 0.5,-4 3.145,-2.8038 6.312,-5.4704 9.5,-8 z"
         id="path41" />
    </g>
    <g
       id="g42"
       style="clip-rule:evenodd;fill-rule:evenodd;image-rendering:optimizeQuality;shape-rendering:geometricPrecision;text-rendering:geometricPrecision"
       transform="matrix(0.30917983,0,0,0.30917983,-115.59887,-6.3442382)">
      <path
         style="opacity:1"
         fill="#f6a29b"
         d="m 585.5,83.5 c 3.035,0.0393 5.702,1.0393 8,3 -1.155,2.3251 -3.155,3.4918 -6,3.5 -4.231,0.9195 -8.231,0.4195 -12,-1.5 -0.219,-1.175 0.114,-2.175 1,-3 2.776,-1.6298 5.776,-2.2965 9,-2 z"
         id="path42" />
    </g>
    <g
       id="g43"
       style="clip-rule:evenodd;fill-rule:evenodd;image-rendering:optimizeQuality;shape-rendering:geometricPrecision;text-rendering:geometricPrecision"
       transform="matrix(0.30917983,0,0,0.30917983,-115.59887,-6.3442382)">
      <path
         style="opacity:1"
         fill="#c14a43"
         d="m 527.5,47.5 c -0.489,2.9665 -1.655,5.6332 -3.5,8 1.9,9.7028 -1.266,17.0362 -9.5,22 0.124,0.6067 0.457,0.94 1,1 -3.188,2.5296 -6.355,5.1962 -9.5,8 -0.49,1.2932 -0.657,2.6266 -0.5,4 -2.779,0.2214 -5.446,-0.112 -8,-1 -1,0 -2,0 -3,0 -1.599,0.2678 -2.932,-0.0655 -4,-1 0.304,-0.6499 0.637,-1.3165 1,-2 -2.271,-1.1995 -4.604,-2.1995 -7,-3 1.418,-1.8079 3.418,-2.4746 6,-2 2.458,1.8008 5.124,3.1342 8,4 2.801,-0.1346 4.801,-1.4679 6,-4 1.73,-0.5256 3.064,-1.5256 4,-3 3.146,-2.0749 6.479,-3.9082 10,-5.5 0.912,-2.2508 1.912,-4.4175 3,-6.5 0.824,-3.8123 1.324,-7.8123 1.5,-12 0.655,-2.1284 1.489,-4.1284 2.5,-6 0.342,-0.8382 1.008,-1.1716 2,-1 z"
         id="path43" />
    </g>
    <g
       id="g44"
       style="clip-rule:evenodd;fill-rule:evenodd;image-rendering:optimizeQuality;shape-rendering:geometricPrecision;text-rendering:geometricPrecision"
       transform="matrix(0.30917983,0,0,0.30917983,-115.59887,-6.3442382)">
      <path
         style="opacity:1"
         fill="#c54a41"
         d="m 545.5,79.5 c 1.333,0.3333 2.667,0.6667 4,1 3.114,4.7215 6.114,9.5548 9,14.5 3.054,0.8214 6.054,0.6548 9,-0.5 -1.222,-2.4783 -3.222,-3.4783 -6,-3 0,-1.6667 0,-3.3333 0,-5 0.709,-0.904 1.709,-1.2373 3,-1 3.829,1.5894 6.829,0.5894 9,-3 0.891,-0.6098 1.891,-0.9431 3,-1 3.512,-0.5545 6.512,0.1122 9,2 -3.224,-0.2965 -6.224,0.3702 -9,2 -0.886,0.825 -1.219,1.825 -1,3 -1.208,0.7341 -2.541,1.0674 -4,1 -1.333,0 -2,0.6667 -2,2 0.612,3.196 0.612,6.196 0,9 0.188,-1.6033 -0.312,-2.9366 -1.5,-4 -4.849,1.5001 -9.515,3.5 -14,6 -2.172,-1.085 -4.172,-2.419 -6,-4 -0.198,1.882 -0.698,3.548 -1.5,5 -1.422,0.25 -2.422,1.083 -3,2.5 -5.323,0.499 -10.656,0.666 -16,0.5 -0.838,-0.342 -1.172,-1.008 -1,-2 5.344,0.166 10.677,-0.001 16,-0.5 0.881,-0.708 1.547,-1.542 2,-2.5 0.802,-1.452 1.302,-3.1183 1.5,-5 1.725,0.964 3.559,1.6307 5.5,2 1.221,0.5283 2.387,1.195 3.5,2 0.589,-3.1455 -0.245,-5.8122 -2.5,-8 -0.936,-3.1712 -2.603,-5.8379 -5,-8 -0.393,-1.7838 -1.059,-3.4505 -2,-5 z"
         id="path44" />
    </g>
    <g
       id="g45"
       style="clip-rule:evenodd;fill-rule:evenodd;image-rendering:optimizeQuality;shape-rendering:geometricPrecision;text-rendering:geometricPrecision"
       transform="matrix(0.30917983,0,0,0.30917983,-115.59887,-6.3442382)">
      <path
         style="opacity:1"
         fill="#eeada8"
         d="m 562.5,82.5 c 1.728,0.879 3.561,1.5457 5.5,2 1.939,-0.4543 3.772,-1.121 5.5,-2 -2.171,3.5894 -5.171,4.5894 -9,3 -0.667,-1 -1.333,-2 -2,-3 z"
         id="path45" />
    </g>
    <g
       id="g46"
       style="clip-rule:evenodd;fill-rule:evenodd;image-rendering:optimizeQuality;shape-rendering:geometricPrecision;text-rendering:geometricPrecision"
       transform="matrix(0.30917983,0,0,0.30917983,-115.59887,-6.3442382)">
      <path
         style="opacity:1"
         fill="#f5948c"
         d="m 484.5,83.5 c 2.396,0.8005 4.729,1.8005 7,3 -0.363,0.6835 -0.696,1.3501 -1,2 -6.483,2.7894 -12.816,2.456 -19,-1 3.674,-3.3117 8.007,-4.6451 13,-4 z"
         id="path46" />
    </g>
    <g
       id="g47"
       style="clip-rule:evenodd;fill-rule:evenodd;image-rendering:optimizeQuality;shape-rendering:geometricPrecision;text-rendering:geometricPrecision"
       transform="matrix(0.30917983,0,0,0.30917983,-115.59887,-6.3442382)">
      <path
         style="opacity:1"
         fill="#f6d3d0"
         d="m 535.5,72.5 c 0.992,-0.1716 1.658,0.1618 2,1 -2.357,-0.1633 -4.69,0.0034 -7,0.5 -2.703,3.038 -5.703,5.7046 -9,8 -1.25,3.8594 -2.916,7.3594 -5,10.5 10.955,-5.5679 21.788,-5.2346 32.5,1 -0.827,-2.7034 -1.327,-5.7034 -1.5,-9 2.397,2.1621 4.064,4.8288 5,8 0.343,1.9832 -0.324,3.3166 -2,4 -13.036,-8.3777 -25.536,-7.7111 -37.5,2 -0.5,-0.3333 -1,-0.6667 -1.5,-1 2.234,-6.1372 5.234,-11.8039 9,-17 0.667,-0.3333 1.333,-0.6667 2,-1 2.463,-1.9611 4.797,-4.1278 7,-6.5 1.973,-0.4955 3.973,-0.6621 6,-0.5 z"
         id="path47" />
    </g>
    <g
       id="g48"
       style="clip-rule:evenodd;fill-rule:evenodd;image-rendering:optimizeQuality;shape-rendering:geometricPrecision;text-rendering:geometricPrecision"
       transform="matrix(0.30917983,0,0,0.30917983,-115.59887,-6.3442382)">
      <path
         style="opacity:1"
         fill="#bc544b"
         d="m 490.5,81.5 c -2.582,-0.4746 -4.582,0.1921 -6,2 -4.993,-0.6451 -9.326,0.6883 -13,4 6.184,3.456 12.517,3.7894 19,1 1.068,0.9345 2.401,1.2678 4,1 -1.621,1.6172 -3.621,2.7838 -6,3.5 -3.652,0.4986 -7.318,0.6653 -11,0.5 -3.888,0.1548 -7.388,-0.8452 -10.5,-3 -0.764,-3.7435 0.736,-6.0769 4.5,-7 6.151,-4.0755 12.484,-4.7421 19,-2 z"
         id="path48" />
    </g>
    <g
       id="g49"
       style="clip-rule:evenodd;fill-rule:evenodd;image-rendering:optimizeQuality;shape-rendering:geometricPrecision;text-rendering:geometricPrecision"
       transform="matrix(0.30917983,0,0,0.30917983,-115.59887,-6.3442382)">
      <path
         style="opacity:1"
         fill="#b84d46"
         d="m 594.5,91.5 c 0,0.3333 0,0.6667 0,1 -5.638,0.9591 -11.305,1.1258 -17,0.5 -2.525,-0.4238 -4.525,-1.5905 -6,-3.5 1.459,0.0674 2.792,-0.2659 4,-1 3.769,1.9195 7.769,2.4195 12,1.5 2.845,-0.0082 4.845,-1.1749 6,-3.5 0.65,-0.3039 1.317,-0.6373 2,-1 2.652,2.4013 2.319,4.4013 -1,6 z"
         id="path49" />
    </g>
    <g
       id="g53"
       style="clip-rule:evenodd;fill-rule:evenodd;image-rendering:optimizeQuality;shape-rendering:geometricPrecision;text-rendering:geometricPrecision"
       transform="matrix(0.30917983,0,0,0.30917983,-115.59887,-6.3442382)">
      <path
         style="opacity:1"
         fill="#f6c7c2"
         d="m 494.5,89.5 c 1,0 2,0 3,0 -0.295,1.9233 -1.128,3.5899 -2.5,5 -0.499,4.0138 -0.333,8.014 0.5,12 -0.085,1.833 -0.752,3.166 -2,4 0,-5.667 0,-11.3333 0,-17 -5.485,1.1364 -10.819,1.1364 -16,0 3.682,0.1653 7.348,-0.0014 11,-0.5 2.379,-0.7162 4.379,-1.8828 6,-3.5 z"
         id="path53" />
    </g>
    <g
       id="g60"
       style="clip-rule:evenodd;fill-rule:evenodd;image-rendering:optimizeQuality;shape-rendering:geometricPrecision;text-rendering:geometricPrecision"
       transform="matrix(0.30917983,0,0,0.30917983,-115.59887,-6.3442382)">
      <path
         style="opacity:1"
         fill="#f8e6e4"
         d="m 572.5,109.5 c -0.961,-1.765 -1.295,-3.765 -1,-6 0.958,-0.453 1.792,-1.119 2.5,-2 0.43,-2.6922 0.263,-5.3589 -0.5,-8 3.466,0.5315 6.966,0.8648 10.5,1 3.805,0.1963 7.305,-0.4704 10.5,-2 0,-0.3333 0,-0.6667 0,-1 4.828,0.1148 6.161,-2.0519 4,-6.5 -4,-1.6667 -8,-3.3333 -12,-5 -2.31,-0.4966 -4.643,-0.6633 -7,-0.5 0.969,-0.8094 1.802,-1.8094 2.5,-3 6.049,1.5189 11.882,3.6856 17.5,6.5 2.973,4.273 2.307,7.9397 -2,11 -6.392,1.8744 -12.892,3.0411 -19.5,3.5 -0.333,-0.3333 -0.667,-0.6667 -1,-1 -0.848,2.9178 -2.182,5.584 -4,8 -0.494,1.634 -0.66,3.301 -0.5,5 z"
         id="path60" />
    </g>
    <g
       id="g64"
       style="clip-rule:evenodd;fill-rule:evenodd;image-rendering:optimizeQuality;shape-rendering:geometricPrecision;text-rendering:geometricPrecision"
       transform="matrix(0.30917983,0,0,0.30917983,-115.59887,-6.3442382)">
      <path
         style="opacity:1"
         fill="#eeaca5"
         d="m 552.5,92.5 c 2.255,2.1878 3.089,4.8545 2.5,8 -1.113,-0.805 -2.279,-1.4717 -3.5,-2 -0.333,-0.6667 -0.667,-1.3333 -1,-2 1.676,-0.6834 2.343,-2.0168 2,-4 z"
         id="path64" />
    </g>
    <g
       id="g67"
       style="clip-rule:evenodd;fill-rule:evenodd;image-rendering:optimizeQuality;shape-rendering:geometricPrecision;text-rendering:geometricPrecision"
       transform="matrix(0.30917983,0,0,0.30917983,-115.59887,-6.3442382)">
      <path
         style="opacity:1"
         fill="#bd534b"
         d="m 517.5,80.5 c 0.702,0.6157 1.702,0.6157 3,0 -3.766,5.1961 -6.766,10.8628 -9,17 0.5,0.3333 1,0.6667 1.5,1 11.964,-9.7111 24.464,-10.3777 37.5,-2 0.333,0.6667 0.667,1.3333 1,2 -1.941,-0.3693 -3.775,-1.036 -5.5,-2 -0.198,1.8817 -0.698,3.548 -1.5,5 0.177,-2.4806 -0.823,-4.3139 -3,-5.5 -4.484,-0.731 -8.818,-0.231 -13,1.5 2.641,-1.9535 5.641,-3.4535 9,-4.5 -1.1,-1.023 -2.433,-1.523 -4,-1.5 -3.355,0.7291 -6.688,1.5624 -10,2.5 -4.017,2.8365 -8.35,5.0031 -13,6.5 0,-1.6667 0,-3.3333 0,-5 -1,0 -2,0 -3,0 3.367,-5.0229 6.7,-10.0229 10,-15 z"
         id="path67" />
    </g>
    <g
       id="g70"
       style="clip-rule:evenodd;fill-rule:evenodd;image-rendering:optimizeQuality;shape-rendering:geometricPrecision;text-rendering:geometricPrecision"
       transform="matrix(0.30917983,0,0,0.30917983,-115.59887,-6.3442382)">
      <path
         style="opacity:1"
         fill="#f4c3c0"
         d="m 571.5,89.5 c 1.475,1.9095 3.475,3.0762 6,3.5 5.695,0.6258 11.362,0.4591 17,-0.5 -3.195,1.5296 -6.695,2.1963 -10.5,2 -3.534,-0.1352 -7.034,-0.4685 -10.5,-1 0.763,2.6411 0.93,5.3078 0.5,8 -0.708,0.881 -1.542,1.547 -2.5,2 1.514,-4.4219 0.847,-8.4219 -2,-12 0,-1.3333 0.667,-2 2,-2 z"
         id="path70" />
    </g>
    <g
       id="g74"
       style="clip-rule:evenodd;fill-rule:evenodd;image-rendering:optimizeQuality;shape-rendering:geometricPrecision;text-rendering:geometricPrecision"
       transform="matrix(0.30917983,0,0,0.30917983,-115.59887,-6.3442382)">
      <path
         style="opacity:1"
         fill="#d53e33"
         d="m 528.5,97.5 c -1.844,1.7789 -2.51,4.112 -2,7 -0.172,0.992 0.162,1.658 1,2 -0.086,0.996 0.248,1.829 1,2.5 -10.591,0.156 -20.925,1.656 -31,4.5 1.117,-4.692 1.117,-9.359 0,-14 0.938,-1.0529 2.105,-1.7196 3.5,-2 2.77,0.8479 5.603,1.1813 8.5,1 -0.254,1.901 0.08,2.567 1,2 4.65,-1.4969 8.983,-3.6635 13,-6.5 3.312,-0.9376 6.645,-1.7709 10,-2.5 1.567,-0.023 2.9,0.477 4,1.5 -3.359,1.0465 -6.359,2.5465 -9,4.5 z"
         id="path74" />
    </g>
    <g
       id="g75"
       style="clip-rule:evenodd;fill-rule:evenodd;image-rendering:optimizeQuality;shape-rendering:geometricPrecision;text-rendering:geometricPrecision"
       transform="matrix(0.30917983,0,0,0.30917983,-115.59887,-6.3442382)">
      <path
         style="opacity:1"
         fill="#f8d0cc"
         d="m 544.5,101.5 c -0.453,0.958 -1.119,1.792 -2,2.5 -5.323,0.499 -10.656,0.666 -16,0.5 -0.51,-2.888 0.156,-5.2211 2,-7 4.182,-1.731 8.516,-2.231 13,-1.5 2.177,1.1861 3.177,3.0194 3,5.5 z"
         id="path75" />
    </g>
    <g
       id="g76"
       style="clip-rule:evenodd;fill-rule:evenodd;image-rendering:optimizeQuality;shape-rendering:geometricPrecision;text-rendering:geometricPrecision"
       transform="matrix(0.30917983,0,0,0.30917983,-115.59887,-6.3442382)">
      <path
         style="opacity:1"
         fill="#faf7f5"
         d="m 532.5,97.5 c 3.018,-0.1646 6.018,0.002 9,0.5 0.88,1.3561 1.214,2.856 1,4.5 -4.667,0 -9.333,0 -14,0 0,-1.333 0,-2.6667 0,-4 1.599,0.2678 2.932,-0.0655 4,-1 z"
         id="path76" />
    </g>
    <g
       id="g77"
       style="clip-rule:evenodd;fill-rule:evenodd;image-rendering:optimizeQuality;shape-rendering:geometricPrecision;text-rendering:geometricPrecision"
       transform="matrix(0.30917983,0,0,0.30917983,-115.59887,-6.3442382)">
      <path
         style="opacity:1"
         fill="#d94236"
         d="m 569.5,100.5 c -1.062,2.189 -1.728,4.522 -2,7 -0.16,1.855 0.507,3.188 2,4 0,1 0,2 0,3 -2.211,-0.467 -4.211,-1.467 -6,-3 1.394,-1.187 1.227,-1.854 -0.5,-2 -6.546,1.43 -13.046,1.263 -19.5,-0.5 -0.333,-0.333 -0.667,-0.667 -1,-1 2.144,-0.792 3.477,-2.292 4,-4.5 0.802,-1.452 1.302,-3.118 1.5,-5 1.828,1.581 3.828,2.915 6,4 4.485,-2.5 9.151,-4.4999 14,-6 1.188,1.0634 1.688,2.3967 1.5,4 z"
         id="path77" />
    </g>
    <g
       id="g84"
       style="clip-rule:evenodd;fill-rule:evenodd;image-rendering:optimizeQuality;shape-rendering:geometricPrecision;text-rendering:geometricPrecision"
       transform="matrix(0.30917983,0,0,0.30917983,-115.59887,-6.3442382)">
      <path
         style="opacity:1"
         fill="#c1554b"
         d="m 569.5,91.5 c 2.847,3.5781 3.514,7.5781 2,12 -0.652,0.949 -0.986,2.115 -1,3.5 0.108,1.681 0.775,2.848 2,3.5 0.473,1.406 1.473,2.073 3,2 1.394,2.208 3.394,3.708 6,4.5 3.721,0.678 7.388,0.511 11,-0.5 0.343,1.983 -0.324,3.317 -2,4 -4.059,-0.066 -8.059,-0.233 -12,-0.5 0.556,0.383 0.889,0.883 1,1.5 -1.644,0.214 -3.144,-0.12 -4.5,-1 -0.589,2.363 -2.089,3.363 -4.5,3 1.701,-3.921 0.367,-5.921 -4,-6 2.433,-0.748 4.766,-1.915 7,-3.5 -0.971,-1.481 -2.304,-2.315 -4,-2.5 -1.493,-0.812 -2.16,-2.145 -2,-4 0.272,-2.478 0.938,-4.811 2,-7 0.612,-2.804 0.612,-5.804 0,-9 z"
         id="path84" />
    </g>
    <g
       id="g91"
       style="clip-rule:evenodd;fill-rule:evenodd;image-rendering:optimizeQuality;shape-rendering:geometricPrecision;text-rendering:geometricPrecision"
       transform="matrix(0.30917983,0,0,0.30917983,-115.59887,-6.3442382)">
      <path
         style="opacity:1"
         fill="#eda49d"
         d="m 571.5,103.5 c -0.295,2.235 0.039,4.235 1,6 0,0.333 0,0.667 0,1 -1.225,-0.652 -1.892,-1.819 -2,-3.5 0.014,-1.385 0.348,-2.551 1,-3.5 z"
         id="path91" />
    </g>
    <g
       id="g98"
       style="clip-rule:evenodd;fill-rule:evenodd;image-rendering:optimizeQuality;shape-rendering:geometricPrecision;text-rendering:geometricPrecision"
       transform="matrix(0.30917983,0,0,0.30917983,-115.59887,-6.3442382)">
      <path
         style="opacity:1"
         fill="#f8c5c2"
         d="m 514.5,112.5 c 0.333,0 0.667,0 1,0 12.333,0 24.667,0 37,0 0,1.667 0,3.333 0,5 -3.549,1.179 -7.216,2.179 -11,3 -0.667,0.667 -1.333,1.333 -2,2 -2.179,0.559 -4.346,1.226 -6.5,2 -5.154,-1.774 -10.321,-3.441 -15.5,-5 -2.227,-1.729 -3.227,-4.062 -3,-7 z"
         id="path98" />
    </g>
    <g
       id="g99"
       style="clip-rule:evenodd;fill-rule:evenodd;image-rendering:optimizeQuality;shape-rendering:geometricPrecision;text-rendering:geometricPrecision"
       transform="matrix(0.30917983,0,0,0.30917983,-115.59887,-6.3442382)">
      <path
         style="opacity:1"
         fill="#b74e46"
         d="m 497.5,89.5 c 2.554,0.888 5.221,1.2214 8,1 -1.452,0.8019 -3.118,1.3019 -5,1.5 -0.837,1.0113 -1.17,2.1779 -1,3.5 2.667,0 5.333,0 8,0 -3.462,0.9816 -7.129,1.315 -11,1 0.166,5.011 -10e-4,10.011 -0.5,15 -1.376,1.205 -2.542,2.538 -3.5,4 -4.666,3.666 -9.999,5.332 -16,5 -2.032,-0.548 -3.032,-1.881 -3,-4 0.333,0 0.667,0 1,0 6.245,2.066 11.578,0.732 16,-4 1,-0.667 2,-1.333 3,-2 1.248,-0.834 1.915,-2.167 2,-4 -0.833,-3.986 -0.999,-7.9862 -0.5,-12 1.372,-1.4101 2.205,-3.0767 2.5,-5 z"
         id="path99" />
    </g>
    <g
       id="g104"
       style="clip-rule:evenodd;fill-rule:evenodd;image-rendering:optimizeQuality;shape-rendering:geometricPrecision;text-rendering:geometricPrecision"
       transform="matrix(0.30917983,0,0,0.30917983,-115.59887,-6.3442382)">
      <path
         style="opacity:1"
         fill="#c4574b"
         d="m 514.5,112.5 c -0.227,2.938 0.773,5.271 3,7 -5.469,-1.504 -10.802,-1.17 -16,1 -0.535,-1.946 -1.868,-2.946 -4,-3 1.77,-1.264 3.437,-2.764 5,-4.5 4.169,-0.233 8.169,-0.4 12,-0.5 z"
         id="path104" />
    </g>
    <g
       id="g105"
       style="clip-rule:evenodd;fill-rule:evenodd;image-rendering:optimizeQuality;shape-rendering:geometricPrecision;text-rendering:geometricPrecision"
       transform="matrix(0.30917983,0,0,0.30917983,-115.59887,-6.3442382)">
      <path
         style="opacity:1"
         fill="#efb5ac"
         d="m 504.5,113.5 c 2,0 4,0 6,0 0,1 0,2 0,3 -2.177,0.086 -4.177,0.753 -6,2 -2.43,-1.537 -2.43,-3.204 0,-5 z"
         id="path105" />
    </g>
    <g
       id="g106"
       style="clip-rule:evenodd;fill-rule:evenodd;image-rendering:optimizeQuality;shape-rendering:geometricPrecision;text-rendering:geometricPrecision"
       transform="matrix(0.30917983,0,0,0.30917983,-115.59887,-6.3442382)">
      <path
         style="opacity:1"
         fill="#faf5f3"
         d="m 541.5,120.5 c -4.997,1.166 -9.997,1.166 -15,0 -2.472,-1.396 -5.138,-2.23 -8,-2.5 -1.894,-1.079 -2.227,-2.413 -1,-4 10.995,-0.5 21.995,-0.667 33,-0.5 0,1 0,2 0,3 -3.197,0.952 -6.197,2.285 -9,4 z"
         id="path106" />
    </g>
    <g
       id="g109"
       style="clip-rule:evenodd;fill-rule:evenodd;image-rendering:optimizeQuality;shape-rendering:geometricPrecision;text-rendering:geometricPrecision"
       transform="matrix(0.30917983,0,0,0.30917983,-115.59887,-6.3442382)">
      <path
         style="opacity:1"
         fill="#f0bdb8"
         d="m 490.5,112.5 c -4.422,4.732 -9.755,6.066 -16,4 5.432,-0.542 10.766,-1.876 16,-4 z"
         id="path109" />
    </g>
    <g
       id="g110"
       style="clip-rule:evenodd;fill-rule:evenodd;image-rendering:optimizeQuality;shape-rendering:geometricPrecision;text-rendering:geometricPrecision"
       transform="matrix(0.30917983,0,0,0.30917983,-115.59887,-6.3442382)">
      <path
         style="opacity:1"
         fill="#edc5c2"
         d="m 575.5,112.5 c 5.556,2.055 11.223,3.388 17,4 -3.612,1.011 -7.279,1.178 -11,0.5 -2.606,-0.792 -4.606,-2.292 -6,-4.5 z"
         id="path110" />
    </g>
    <g
       id="g115"
       style="clip-rule:evenodd;fill-rule:evenodd;image-rendering:optimizeQuality;shape-rendering:geometricPrecision;text-rendering:geometricPrecision"
       transform="matrix(0.30917983,0,0,0.30917983,-115.59887,-6.3442382)">
      <path
         style="opacity:1"
         fill="#f9c2b9"
         d="m 566.5,117.5 c 4.367,0.079 5.701,2.079 4,6 -4.76,0.299 -6.094,-1.701 -4,-6 z"
         id="path115" />
    </g>
    <g
       id="g116"
       style="clip-rule:evenodd;fill-rule:evenodd;image-rendering:optimizeQuality;shape-rendering:geometricPrecision;text-rendering:geometricPrecision"
       transform="matrix(0.30917983,0,0,0.30917983,-115.59887,-6.3442382)">
      <path
         style="opacity:1"
         fill="#f39a91"
         d="m 492.5,115.5 c 0.438,-0.065 0.772,0.101 1,0.5 -3.552,3.273 -7.552,5.773 -12,7.5 -1.302,-1.528 -2.969,-2.528 -5,-3 6.001,0.332 11.334,-1.334 16,-5 z"
         id="path116" />
    </g>
    <g
       id="g117"
       style="clip-rule:evenodd;fill-rule:evenodd;image-rendering:optimizeQuality;shape-rendering:geometricPrecision;text-rendering:geometricPrecision"
       transform="matrix(0.30917983,0,0,0.30917983,-115.59887,-6.3442382)">
      <path
         style="opacity:1"
         fill="#f79e96"
         d="m 497.5,117.5 c 2.132,0.054 3.465,1.054 4,3 -0.663,2.923 -2.33,3.59 -5,2 -1.509,-2.12 -1.176,-3.787 1,-5 z"
         id="path117" />
    </g>
    <g
       id="g118"
       style="clip-rule:evenodd;fill-rule:evenodd;image-rendering:optimizeQuality;shape-rendering:geometricPrecision;text-rendering:geometricPrecision"
       transform="matrix(0.30917983,0,0,0.30917983,-115.59887,-6.3442382)">
      <path
         style="opacity:1"
         fill="#f2a49b"
         d="m 590.5,120.5 c -2.131,0.814 -4.464,1.314 -7,1.5 0.556,0.383 0.889,0.883 1,1.5 -0.333,0 -0.667,0 -1,0 -1.105,-1.1 -2.438,-1.767 -4,-2 -0.111,-0.617 -0.444,-1.117 -1,-1.5 3.941,0.267 7.941,0.434 12,0.5 z"
         id="path118" />
    </g>
    <g
       id="g123"
       style="clip-rule:evenodd;fill-rule:evenodd;image-rendering:optimizeQuality;shape-rendering:geometricPrecision;text-rendering:geometricPrecision"
       transform="matrix(0.30917983,0,0,0.30917983,-115.59887,-6.3442382)">
      <path
         style="opacity:1"
         fill="#f7dcd7"
         d="m 473.5,116.5 c -0.032,2.119 0.968,3.452 3,4 2.031,0.472 3.698,1.472 5,3 -1,0.333 -1.667,1 -2,2 -1.562,0.233 -2.895,0.9 -4,2 1.691,-2.959 0.858,-4.959 -2.5,-6 -0.78,-1.887 -0.613,-3.554 0.5,-5 z"
         id="path123" />
    </g>
    <g
       id="g124"
       style="clip-rule:evenodd;fill-rule:evenodd;image-rendering:optimizeQuality;shape-rendering:geometricPrecision;text-rendering:geometricPrecision"
       transform="matrix(0.30917983,0,0,0.30917983,-115.59887,-6.3442382)">
      <path
         style="opacity:1"
         fill="#f5d8d5"
         d="m 592.5,116.5 c 0.978,0.311 1.645,0.978 2,2 -1,2 -2,4 -3,6 4.142,4.508 3.809,8.675 -1,12.5 -2.489,0.941 -4.489,0.441 -6,-1.5 6.605,1.158 9.272,-1.342 8,-7.5 -2.891,-1.274 -5.558,-2.774 -8,-4.5 -0.111,-0.617 -0.444,-1.117 -1,-1.5 2.536,-0.186 4.869,-0.686 7,-1.5 1.676,-0.683 2.343,-2.017 2,-4 z"
         id="path124" />
    </g>
    <g
       id="g126"
       style="clip-rule:evenodd;fill-rule:evenodd;image-rendering:optimizeQuality;shape-rendering:geometricPrecision;text-rendering:geometricPrecision"
       transform="matrix(0.30917983,0,0,0.30917983,-115.59887,-6.3442382)">
      <path
         style="opacity:1"
         fill="#d34035"
         d="m 553.5,134.5 c -1.302,-2.322 -3.302,-3.655 -6,-4 -3.723,-0.797 -7.39,-1.797 -11,-3 0.575,-1.911 1.575,-3.578 3,-5 2.747,0.313 5.414,-0.02 8,-1 4.708,-3.402 9.708,-3.902 15,-1.5 1.537,1.11 2.203,2.61 2,4.5 -2.524,-0.071 -4.524,0.929 -6,3 -1.141,2.562 -1.974,5.228 -2.5,8 -0.671,-0.752 -1.504,-1.086 -2.5,-1 z"
         id="path126" />
    </g>
    <g
       id="g127"
       style="clip-rule:evenodd;fill-rule:evenodd;image-rendering:optimizeQuality;shape-rendering:geometricPrecision;text-rendering:geometricPrecision"
       transform="matrix(0.30917983,0,0,0.30917983,-115.59887,-6.3442382)">
      <path
         style="opacity:1"
         fill="#b9544c"
         d="m 583.5,123.5 c 0.333,0 0.667,0 1,0 2.442,1.726 5.109,3.226 8,4.5 1.272,6.158 -1.395,8.658 -8,7.5 -0.806,-1.228 -1.806,-2.228 -3,-3 2.234,-0.12 4.401,0.213 6.5,1 1.5,-0.167 2.333,-1 2.5,-2.5 -1.989,-2.957 -4.322,-5.457 -7,-7.5 z"
         id="path127" />
    </g>
    <g
       id="g128"
       style="clip-rule:evenodd;fill-rule:evenodd;image-rendering:optimizeQuality;shape-rendering:geometricPrecision;text-rendering:geometricPrecision"
       transform="matrix(0.30917983,0,0,0.30917983,-115.59887,-6.3442382)">
      <path
         style="opacity:1"
         fill="#c6544b"
         d="m 515.5,112.5 c 13.206,-1.305 26.539,-1.305 40,0 0,1.667 0,3.333 0,5 2.424,0.308 4.757,-0.026 7,-1 -1.124,-1.359 -2.458,-2.359 -4,-3 1.373,-0.157 2.707,0.01 4,0.5 1.032,1.627 2.366,2.793 4,3.5 -2.094,4.299 -0.76,6.299 4,6 -1.289,1.137 -2.289,2.47 -3,4 -1.644,-0.866 -3.311,-1.366 -5,-1.5 -2.873,2.913 -4.206,6.413 -4,10.5 -2.198,0.38 -3.865,-0.287 -5,-2 0.996,-0.086 1.829,0.248 2.5,1 0.526,-2.772 1.359,-5.438 2.5,-8 1.476,-2.071 3.476,-3.071 6,-3 0.203,-1.89 -0.463,-3.39 -2,-4.5 -5.292,-2.402 -10.292,-1.902 -15,1.5 -2.586,0.98 -5.253,1.313 -8,1 0.667,-0.667 1.333,-1.333 2,-2 3.784,-0.821 7.451,-1.821 11,-3 0,-1.667 0,-3.333 0,-5 -12.333,0 -24.667,0 -37,0 z"
         id="path128" />
    </g>
    <g
       id="g133"
       style="clip-rule:evenodd;fill-rule:evenodd;image-rendering:optimizeQuality;shape-rendering:geometricPrecision;text-rendering:geometricPrecision"
       transform="matrix(0.30917983,0,0,0.30917983,-115.59887,-6.3442382)">
      <path
         style="opacity:1"
         fill="#c6443c"
         d="m 517.5,119.5 c 5.179,1.559 10.346,3.226 15.5,5 2.154,-0.774 4.321,-1.441 6.5,-2 -1.425,1.422 -2.425,3.089 -3,5 -6.247,-0.283 -12.247,0.717 -18,3 1.539,-2.778 3.872,-4.611 7,-5.5 -3.603,-0.623 -6.27,-2.456 -8,-5.5 z"
         id="path133" />
    </g>
    <g
       id="g134"
       style="clip-rule:evenodd;fill-rule:evenodd;image-rendering:optimizeQuality;shape-rendering:geometricPrecision;text-rendering:geometricPrecision"
       transform="matrix(0.30917983,0,0,0.30917983,-115.59887,-6.3442382)">
      <path
         style="opacity:1"
         fill="#d04238"
         d="m 507.5,95.5 c 1,0 2,0 3,0 0,1.6667 0,3.3333 0,5 -0.92,0.567 -1.254,-0.099 -1,-2 -2.897,0.1813 -5.73,-0.1521 -8.5,-1 -1.395,0.2804 -2.562,0.9471 -3.5,2 1.117,4.641 1.117,9.308 0,14 10.075,-2.844 20.409,-4.344 31,-4.5 -0.752,-0.671 -1.086,-1.504 -1,-2.5 5.344,0.166 10.677,-0.001 16,-0.5 0.578,-1.417 1.578,-2.25 3,-2.5 -0.523,2.208 -1.856,3.708 -4,4.5 0.333,0.333 0.667,0.667 1,1 6.454,1.763 12.954,1.93 19.5,0.5 1.727,0.146 1.894,0.813 0.5,2 1.789,1.533 3.789,2.533 6,3 0,-1 0,-2 0,-3 1.696,0.185 3.029,1.019 4,2.5 -2.234,1.585 -4.567,2.752 -7,3.5 -1.634,-0.707 -2.968,-1.873 -4,-3.5 -1.293,-0.49 -2.627,-0.657 -4,-0.5 -0.891,-0.61 -1.891,-0.943 -3,-1 -13.461,-1.305 -26.794,-1.305 -40,0 -0.333,0 -0.667,0 -1,0 -3.831,0.1 -7.831,0.267 -12,0.5 -1.563,1.736 -3.23,3.236 -5,4.5 -2.176,1.213 -2.509,2.88 -1,5 2.67,1.59 4.337,0.923 5,-2 5.198,-2.17 10.531,-2.504 16,-1 1.73,3.044 4.397,4.877 8,5.5 -3.128,0.889 -5.461,2.722 -7,5.5 -2.564,1.366 -5.064,3.033 -7.5,5 -0.377,-1.442 -1.21,-2.442 -2.5,-3 -1.448,-2.055 -2.781,-4.222 -4,-6.5 -2.428,-0.747 -4.094,0.086 -5,2.5 -1.333,0 -2.667,0 -4,0 -0.667,0 -1.333,0 -2,0 -5.789,1.488 -11.455,3.154 -17,5 -0.484,-3.288 0.516,-5.955 3,-8 0.333,-1 1,-1.667 2,-2 4.448,-1.727 8.448,-4.227 12,-7.5 -0.228,-0.399 -0.562,-0.565 -1,-0.5 0.958,-1.462 2.124,-2.795 3.5,-4 0.499,-4.989 0.666,-9.989 0.5,-15 3.871,0.315 7.538,-0.0184 11,-1 z"
         id="path134" />
    </g>
    <g
       id="g135"
       style="clip-rule:evenodd;fill-rule:evenodd;image-rendering:optimizeQuality;shape-rendering:geometricPrecision;text-rendering:geometricPrecision"
       transform="matrix(0.30917983,0,0,0.30917983,-115.59887,-6.3442382)">
      <path
         style="opacity:1"
         fill="#f6beb6"
         d="m 555.5,112.5 c 1.109,0.057 2.109,0.39 3,1 1.542,0.641 2.876,1.641 4,3 -2.243,0.974 -4.576,1.308 -7,1 0,-1.667 0,-3.333 0,-5 z"
         id="path135" />
    </g>
    <g
       id="g136"
       style="clip-rule:evenodd;fill-rule:evenodd;image-rendering:optimizeQuality;shape-rendering:geometricPrecision;text-rendering:geometricPrecision"
       transform="matrix(0.30917983,0,0,0.30917983,-115.59887,-6.3442382)">
      <path
         style="opacity:1"
         fill="#d44439"
         d="m 579.5,121.5 c 1.562,0.233 2.895,0.9 4,2 2.678,2.043 5.011,4.543 7,7.5 -0.167,1.5 -1,2.333 -2.5,2.5 -2.099,-0.787 -4.266,-1.12 -6.5,-1 -0.843,-1.673 -2.176,-2.84 -4,-3.5 -3.419,-0.248 -6.753,-0.748 -10,-1.5 0.711,-1.53 1.711,-2.863 3,-4 2.411,0.363 3.911,-0.637 4.5,-3 1.356,0.88 2.856,1.214 4.5,1 z"
         id="path136" />
    </g>
    <g
       id="g138"
       style="clip-rule:evenodd;fill-rule:evenodd;image-rendering:optimizeQuality;shape-rendering:geometricPrecision;text-rendering:geometricPrecision"
       transform="matrix(0.30917983,0,0,0.30917983,-115.59887,-6.3442382)">
      <path
         style="opacity:1"
         fill="#b95047"
         d="m 479.5,125.5 c -2.484,2.045 -3.484,4.712 -3,8 5.545,-1.846 11.211,-3.512 17,-5 0,0.333 0,0.667 0,1 -2.996,0.77 -5.663,2.104 -8,4 -1.21,0.432 -2.21,1.099 -3,2 -6.716,0.958 -9.049,-1.709 -7,-8 1.105,-1.1 2.438,-1.767 4,-2 z"
         id="path138" />
    </g>
    <g
       id="g140"
       style="clip-rule:evenodd;fill-rule:evenodd;image-rendering:optimizeQuality;shape-rendering:geometricPrecision;text-rendering:geometricPrecision"
       transform="matrix(0.30917983,0,0,0.30917983,-115.59887,-6.3442382)">
      <path
         style="opacity:1"
         fill="#f6c1bc"
         d="m 493.5,129.5 c 0.667,12 1.333,24 2,36 0,3.667 0,7.333 0,11 -0.817,-2.469 -1.317,-5.135 -1.5,-8 -0.5,-12.329 -0.667,-24.662 -0.5,-37 -1.291,-0.237 -2.291,0.096 -3,1 -1.716,0.129 -3.383,0.462 -5,1 2.337,-1.896 5.004,-3.23 8,-4 z"
         id="path140" />
    </g>
    <g
       id="g142"
       style="clip-rule:evenodd;fill-rule:evenodd;image-rendering:optimizeQuality;shape-rendering:geometricPrecision;text-rendering:geometricPrecision"
       transform="matrix(0.30917983,0,0,0.30917983,-115.59887,-6.3442382)">
      <path
         style="opacity:1"
         fill="#f2c3be"
         d="m 579.5,132.5 c -2,0 -4,0 -6,0 0.142,14.355 -0.358,28.689 -1.5,43 -0.108,3.965 -0.941,7.632 -2.5,11 1.261,-8.949 1.928,-17.949 2,-27 0.85,-9.959 0.85,-19.959 0,-30 3.136,0.103 5.802,1.103 8,3 z"
         id="path142" />
    </g>
    <g
       id="g143"
       style="clip-rule:evenodd;fill-rule:evenodd;image-rendering:optimizeQuality;shape-rendering:geometricPrecision;text-rendering:geometricPrecision"
       transform="matrix(0.30917983,0,0,0.30917983,-115.59887,-6.3442382)">
      <path
         style="opacity:1"
         fill="#efbbb6"
         d="m 579.5,132.5 c 0.667,0 1.333,0 2,0 1.194,0.772 2.194,1.772 3,3 -2.348,-0.092 -4.014,-1.092 -5,-3 z"
         id="path143" />
    </g>
    <g
       id="g147"
       style="clip-rule:evenodd;fill-rule:evenodd;image-rendering:optimizeQuality;shape-rendering:geometricPrecision;text-rendering:geometricPrecision"
       transform="matrix(0.30917983,0,0,0.30917983,-115.59887,-6.3442382)">
      <path
         style="opacity:1"
         fill="#eec9c5"
         d="m 475.5,127.5 c -2.049,6.291 0.284,8.958 7,8 -0.992,1.526 -2.492,2.193 -4.5,2 -1.436,-0.059 -2.769,-0.392 -4,-1 -0.667,-2.667 -0.667,-5.333 0,-8 0.383,-0.556 0.883,-0.889 1.5,-1 z"
         id="path147" />
    </g>
    <g
       id="g148"
       style="clip-rule:evenodd;fill-rule:evenodd;image-rendering:optimizeQuality;shape-rendering:geometricPrecision;text-rendering:geometricPrecision"
       transform="matrix(0.30917983,0,0,0.30917983,-115.59887,-6.3442382)">
      <path
         style="opacity:1"
         fill="#ebafa7"
         d="m 536.5,127.5 c 3.61,1.203 7.277,2.203 11,3 0.333,0.667 0.667,1.333 1,2 -0.876,-0.131 -1.543,0.202 -2,1 1.263,3.103 2.763,6.103 4.5,9 0.546,6.684 0.38,13.351 -0.5,20 -2.563,7.187 -5.063,14.521 -7.5,22 -0.498,3.317 -0.665,6.65 -0.5,10 1,0 2,0 3,0 0,0.333 0,0.667 0,1 -8.341,3.932 -16.674,3.932 -25,0 0,-0.333 0,-0.667 0,-1 1,0 2,0 3,0 0.165,-3.682 -10e-4,-7.348 -0.5,-11 -3.042,-8.209 -5.709,-16.542 -8,-25 -0.698,-6.024 -0.532,-12.024 0.5,-18 -0.333,-1 -0.667,-2 -1,-3 -1.018,0.693 -2.018,1.359 -3,2 1.927,-3.267 4.261,-6.267 7,-9 5.753,-2.283 11.753,-3.283 18,-3 z"
         id="path148" />
    </g>
    <g
       id="g149"
       style="clip-rule:evenodd;fill-rule:evenodd;image-rendering:optimizeQuality;shape-rendering:geometricPrecision;text-rendering:geometricPrecision"
       transform="matrix(0.30917983,0,0,0.30917983,-115.59887,-6.3442382)">
      <path
         style="opacity:1"
         fill="#f7dbd7"
         d="m 548.5,132.5 c 13.118,9.313 16.118,20.979 9,35 0.141,-3.593 0.808,-7.093 2,-10.5 -1.703,-4.775 -3.203,-9.608 -4.5,-14.5 -0.414,0.457 -0.914,0.791 -1.5,1 -0.574,6.546 -1.574,12.879 -3,19 0.88,-6.649 1.046,-13.316 0.5,-20 -1.737,-2.897 -3.237,-5.897 -4.5,-9 0.457,-0.798 1.124,-1.131 2,-1 z"
         id="path149" />
    </g>
    <g
       id="g150"
       style="clip-rule:evenodd;fill-rule:evenodd;image-rendering:optimizeQuality;shape-rendering:geometricPrecision;text-rendering:geometricPrecision"
       transform="matrix(0.30917983,0,0,0.30917983,-115.59887,-6.3442382)">
      <path
         style="opacity:1"
         fill="#ba5146"
         d="m 547.5,130.5 c 2.698,0.345 4.698,1.678 6,4 1.135,1.713 2.802,2.38 5,2 2.569,3.461 4.903,7.128 7,11 0.226,5.062 -0.108,10.062 -1,15 -2.125,2.588 -3.458,5.588 -4,9 -1.792,-0.134 -3.458,0.199 -5,1 0.393,-1.784 1.059,-3.45 2,-5 7.118,-14.021 4.118,-25.687 -9,-35 -0.333,-0.667 -0.667,-1.333 -1,-2 z"
         id="path150" />
    </g>
    <g
       id="g151"
       style="clip-rule:evenodd;fill-rule:evenodd;image-rendering:optimizeQuality;shape-rendering:geometricPrecision;text-rendering:geometricPrecision"
       transform="matrix(0.30917983,0,0,0.30917983,-115.59887,-6.3442382)">
      <path
         style="opacity:1"
         fill="#f6aaa0"
         d="m 567.5,127.5 c 0,1.667 0,3.333 0,5 0.608,5.444 -0.058,10.444 -2,15 -2.097,-3.872 -4.431,-7.539 -7,-11 -0.206,-4.087 1.127,-7.587 4,-10.5 1.689,0.134 3.356,0.634 5,1.5 z"
         id="path151" />
    </g>
    <g
       id="g153"
       style="clip-rule:evenodd;fill-rule:evenodd;image-rendering:optimizeQuality;shape-rendering:geometricPrecision;text-rendering:geometricPrecision"
       transform="matrix(0.30917983,0,0,0.30917983,-115.59887,-6.3442382)">
      <path
         style="opacity:1"
         fill="#c86f69"
         d="m 493.5,129.5 c 0,-0.333 0,-0.667 0,-1 0.667,0 1.333,0 2,0 0,12.333 0,24.667 0,37 -0.667,-12 -1.333,-24 -2,-36 z"
         id="path153" />
    </g>
    <g
       id="g156"
       style="clip-rule:evenodd;fill-rule:evenodd;image-rendering:optimizeQuality;shape-rendering:geometricPrecision;text-rendering:geometricPrecision"
       transform="matrix(0.30917983,0,0,0.30917983,-115.59887,-6.3442382)">
      <path
         style="opacity:1"
         fill="#f9f5f3"
         d="m 530.5,144.5 c 8.398,0.307 10.731,4.14 7,11.5 -8.315,3.276 -11.482,0.443 -9.5,-8.5 1.045,-0.873 1.878,-1.873 2.5,-3 z"
         id="path156" />
    </g>
    <g
       id="g161"
       style="clip-rule:evenodd;fill-rule:evenodd;image-rendering:optimizeQuality;shape-rendering:geometricPrecision;text-rendering:geometricPrecision"
       transform="matrix(0.30917983,0,0,0.30917983,-115.59887,-6.3442382)">
      <path
         style="opacity:1"
         fill="#f9e7e5"
         d="m 520.5,194.5 c -2.262,-4.785 -3.928,-9.785 -5,-15 1,0 2,0 3,0 -1.637,-7.679 -3.47,-15.345 -5.5,-23 -0.404,-16.946 -2.571,-17.113 -6.5,-0.5 1.317,3.753 2.317,7.587 3,11.5 -1.605,-1.98 -2.772,-4.313 -3.5,-7 -2.026,-8.192 -0.192,-15.192 5.5,-21 0.982,-0.641 1.982,-1.307 3,-2 0.333,1 0.667,2 1,3 -1.032,5.976 -1.198,11.976 -0.5,18 2.291,8.458 4.958,16.791 8,25 0.499,3.652 0.665,7.318 0.5,11 -1,0 -2,0 -3,0 z"
         id="path161" />
    </g>
    <g
       id="g164"
       style="clip-rule:evenodd;fill-rule:evenodd;image-rendering:optimizeQuality;shape-rendering:geometricPrecision;text-rendering:geometricPrecision"
       transform="matrix(0.30917983,0,0,0.30917983,-115.59887,-6.3442382)">
      <path
         style="opacity:1"
         fill="#e8776d"
         d="m 567.5,132.5 c 1.333,10.667 1.333,21.333 0,32 0.098,-2.748 -0.902,-3.414 -3,-2 0.892,-4.938 1.226,-9.938 1,-15 1.942,-4.556 2.608,-9.556 2,-15 z"
         id="path164" />
    </g>
    <g
       id="g168"
       style="clip-rule:evenodd;fill-rule:evenodd;image-rendering:optimizeQuality;shape-rendering:geometricPrecision;text-rendering:geometricPrecision"
       transform="matrix(0.30917983,0,0,0.30917983,-115.59887,-6.3442382)">
      <path
         style="opacity:1"
         fill="#f9e4e0"
         d="m 490.5,132.5 c 0.709,-0.904 1.709,-1.237 3,-1 -0.167,12.338 0,24.671 0.5,37 0.183,2.865 0.683,5.531 1.5,8 1.119,7.167 3.452,13.834 7,20 -2.349,-1.457 -4.682,-2.791 -7,-4 -0.79,-8.627 -2.123,-17.127 -4,-25.5 0.656,-5.755 0.99,-11.588 1,-17.5 -0.004,-6.042 -0.671,-11.708 -2,-17 z"
         id="path168" />
    </g>
    <g
       id="g169"
       style="clip-rule:evenodd;fill-rule:evenodd;image-rendering:optimizeQuality;shape-rendering:geometricPrecision;text-rendering:geometricPrecision"
       transform="matrix(0.30917983,0,0,0.30917983,-115.59887,-6.3442382)">
      <path
         style="opacity:1"
         fill="#f9f7f5"
         d="m 515.5,179.5 c -2.321,-3.707 -4.321,-7.707 -6,-12 -0.683,-3.913 -1.683,-7.747 -3,-11.5 3.929,-16.613 6.096,-16.446 6.5,0.5 2.03,7.655 3.863,15.321 5.5,23 -1,0 -2,0 -3,0 z"
         id="path169" />
    </g>
    <g
       id="g171"
       style="clip-rule:evenodd;fill-rule:evenodd;image-rendering:optimizeQuality;shape-rendering:geometricPrecision;text-rendering:geometricPrecision"
       transform="matrix(0.30917983,0,0,0.30917983,-115.59887,-6.3442382)">
      <path
         style="opacity:1"
         fill="#f7a299"
         d="m 508.5,132.5 c -3.596,6.716 -6.263,13.883 -8,21.5 1.094,4.615 2.594,9.115 4.5,13.5 0.823,8.51 0.657,16.844 -0.5,25 -2.8,-8.415 -4.634,-17.082 -5.5,-26 -0.626,-12.679 -0.459,-25.346 0.5,-38 0.906,-2.414 2.572,-3.247 5,-2.5 1.219,2.278 2.552,4.445 4,6.5 z"
         id="path171" />
    </g>
    <g
       id="g172"
       style="clip-rule:evenodd;fill-rule:evenodd;image-rendering:optimizeQuality;shape-rendering:geometricPrecision;text-rendering:geometricPrecision"
       transform="matrix(0.30917983,0,0,0.30917983,-115.59887,-6.3442382)">
      <path
         style="opacity:1"
         fill="#ba473e"
         d="m 567.5,127.5 c 3.247,0.752 6.581,1.252 10,1.5 1.824,0.66 3.157,1.827 4,3.5 -0.667,0 -1.333,0 -2,0 -2.198,-1.897 -4.864,-2.897 -8,-3 0.85,10.041 0.85,20.041 0,30 -0.824,3.812 -1.324,7.812 -1.5,12 -0.419,1.172 -1.085,2.172 -2,3 -0.494,-1.634 -0.66,-3.301 -0.5,-5 0,-1.667 0,-3.333 0,-5 1.333,-10.667 1.333,-21.333 0,-32 0,-1.667 0,-3.333 0,-5 z"
         id="path172" />
    </g>
    <g
       id="g175"
       style="clip-rule:evenodd;fill-rule:evenodd;image-rendering:optimizeQuality;shape-rendering:geometricPrecision;text-rendering:geometricPrecision"
       transform="matrix(0.30917983,0,0,0.30917983,-115.59887,-6.3442382)">
      <path
         style="opacity:1"
         fill="#c15a50"
         d="m 518.5,130.5 c -2.739,2.733 -5.073,5.733 -7,9 -5.692,5.808 -7.526,12.808 -5.5,21 0.728,2.687 1.895,5.02 3.5,7 1.679,4.293 3.679,8.293 6,12 1.072,5.215 2.738,10.215 5,15 0,0.333 0,0.667 0,1 -2,0 -3,-1 -3,-3 -1.347,-5.874 -3.18,-11.54 -5.5,-17 -1.29,-2.292 -2.957,-4.292 -5,-6 -0.168,8.021 -0.668,16.021 -1.5,24 -0.607,-0.124 -0.94,-0.457 -1,-1 1.157,-8.156 1.323,-16.49 0.5,-25 -1.906,-4.385 -3.406,-8.885 -4.5,-13.5 1.737,-7.617 4.404,-14.784 8,-21.5 1.29,0.558 2.123,1.558 2.5,3 2.436,-1.967 4.936,-3.634 7.5,-5 z"
         id="path175" />
    </g>
    <g
       id="g182"
       style="clip-rule:evenodd;fill-rule:evenodd;image-rendering:optimizeQuality;shape-rendering:geometricPrecision;text-rendering:geometricPrecision"
       transform="matrix(0.30917983,0,0,0.30917983,-115.59887,-6.3442382)">
      <path
         style="opacity:1"
         fill="#f9efec"
         d="m 557.5,167.5 c -0.941,1.55 -1.607,3.216 -2,5 -3.887,7.106 -7.22,14.439 -10,22 -1,0 -2,0 -3,0 -0.165,-3.35 0.002,-6.683 0.5,-10 2.437,-7.479 4.937,-14.813 7.5,-22 1.426,-6.121 2.426,-12.454 3,-19 0.586,-0.209 1.086,-0.543 1.5,-1 1.297,4.892 2.797,9.725 4.5,14.5 -1.192,3.407 -1.859,6.907 -2,10.5 z"
         id="path182" />
    </g>
    <g
       id="g183"
       style="clip-rule:evenodd;fill-rule:evenodd;image-rendering:optimizeQuality;shape-rendering:geometricPrecision;text-rendering:geometricPrecision"
       transform="matrix(0.30917983,0,0,0.30917983,-115.59887,-6.3442382)">
      <path
         style="opacity:1"
         fill="#ba584f"
         d="m 571.5,159.5 c -0.072,9.051 -0.739,18.051 -2,27 -0.667,1 -1.333,2 -2,3 0.51,-2.888 -0.156,-5.221 -2,-7 0.551,-4.473 1.217,-8.807 2,-13 -0.16,1.699 0.006,3.366 0.5,5 0.915,-0.828 1.581,-1.828 2,-3 0.176,-4.188 0.676,-8.188 1.5,-12 z"
         id="path183" />
    </g>
    <g
       id="g191"
       style="clip-rule:evenodd;fill-rule:evenodd;image-rendering:optimizeQuality;shape-rendering:geometricPrecision;text-rendering:geometricPrecision"
       transform="matrix(0.30917983,0,0,0.30917983,-115.59887,-6.3442382)">
      <path
         style="opacity:1"
         fill="#f6a397"
         d="m 567.5,164.5 c 0,1.667 0,3.333 0,5 -0.783,4.193 -1.449,8.527 -2,13 0,0.333 0,0.667 0,1 -2.376,1.317 -4.043,0.65 -5,-2 0,-3.333 0,-6.667 0,-10 0.542,-3.412 1.875,-6.412 4,-9 2.098,-1.414 3.098,-0.748 3,2 z"
         id="path191" />
    </g>
    <g
       id="g193"
       style="clip-rule:evenodd;fill-rule:evenodd;image-rendering:optimizeQuality;shape-rendering:geometricPrecision;text-rendering:geometricPrecision"
       transform="matrix(0.30917983,0,0,0.30917983,-115.59887,-6.3442382)">
      <path
         style="opacity:1"
         fill="#f18477"
         d="m 560.5,181.5 c 0.957,2.65 2.624,3.317 5,2 -3.879,13.257 -5.546,12.59 -5,-2 z"
         id="path193" />
    </g>
    <g
       id="g195"
       style="clip-rule:evenodd;fill-rule:evenodd;image-rendering:optimizeQuality;shape-rendering:geometricPrecision;text-rendering:geometricPrecision"
       transform="matrix(0.30917983,0,0,0.30917983,-115.59887,-6.3442382)">
      <path
         style="opacity:1"
         fill="#c14a40"
         d="m 495.5,128.5 c 1.333,0 2.667,0 4,0 -0.959,12.654 -1.126,25.321 -0.5,38 0.866,8.918 2.7,17.585 5.5,26 0.06,0.543 0.393,0.876 1,1 0.832,-7.979 1.332,-15.979 1.5,-24 2.043,1.708 3.71,3.708 5,6 2.32,5.46 4.153,11.126 5.5,17 -0.667,4 -1.333,8 -2,12 0.318,-4.532 -0.015,-8.866 -1,-13 -0.409,-4.727 -1.909,-9.06 -4.5,-13 -0.5,13.996 -0.667,27.996 -0.5,42 -0.617,-0.111 -1.117,-0.444 -1.5,-1 -1.394,1.888 -2.56,3.888 -3.5,6 -1.139,3.418 -2.472,6.751 -4,10 -0.624,-0.417 -0.957,-1.084 -1,-2 0.673,-2.351 1.34,-4.684 2,-7 1.041,-2.891 2.374,-5.558 4,-8 1.153,-6.153 1.32,-12.486 0.5,-19 -1.039,-1.21 -2.206,-2.21 -3.5,-3 -3.548,-6.166 -5.881,-12.833 -7,-20 0,-3.667 0,-7.333 0,-11 0,-12.333 0,-24.667 0,-37 z"
         id="path195" />
    </g>
    <g
       id="g197"
       style="clip-rule:evenodd;fill-rule:evenodd;image-rendering:optimizeQuality;shape-rendering:geometricPrecision;text-rendering:geometricPrecision"
       transform="matrix(0.30917983,0,0,0.30917983,-115.59887,-6.3442382)">
      <path
         style="opacity:1"
         fill="#e88278"
         d="m 514.5,191.5 c -0.91,-1.519 -1.743,-3.185 -2.5,-5 -0.333,0.667 -0.667,1.333 -1,2 -0.825,10.508 -0.659,20.842 0.5,31 -0.532,2.96 -1.199,3.293 -2,1 -0.167,-14.004 0,-28.004 0.5,-42 2.591,3.94 4.091,8.273 4.5,13 z"
         id="path197" />
    </g>
    <g
       id="g198"
       style="clip-rule:evenodd;fill-rule:evenodd;image-rendering:optimizeQuality;shape-rendering:geometricPrecision;text-rendering:geometricPrecision"
       transform="matrix(0.30917983,0,0,0.30917983,-115.59887,-6.3442382)">
      <path
         style="opacity:1"
         fill="#f9aca2"
         d="m 514.5,191.5 c 0.985,4.134 1.318,8.468 1,13 -0.255,5.357 -1.588,10.357 -4,15 -1.159,-10.158 -1.325,-20.492 -0.5,-31 0.333,-0.667 0.667,-1.333 1,-2 0.757,1.815 1.59,3.481 2.5,5 z"
         id="path198" />
    </g>
    <g
       id="g199"
       style="clip-rule:evenodd;fill-rule:evenodd;image-rendering:optimizeQuality;shape-rendering:geometricPrecision;text-rendering:geometricPrecision"
       transform="matrix(0.30917983,0,0,0.30917983,-115.59887,-6.3442382)">
      <path
         style="opacity:1"
         fill="#c05248"
         d="m 555.5,172.5 c -0.333,2.667 -0.667,5.333 -1,8 -0.854,4.083 -2.021,8.083 -3.5,12 -0.815,4.852 -0.648,9.519 0.5,14 0,0.667 0,1.333 0,2 1.274,2.493 1.94,5.159 2,8 -1.228,-0.806 -2.228,-1.806 -3,-3 -0.659,-2.955 -0.992,-5.955 -1,-9 0,-3 0,-6 0,-9 -1.333,0 -2.667,0 -4,0 0,-0.333 0,-0.667 0,-1 2.78,-7.561 6.113,-14.894 10,-22 z"
         id="path199" />
    </g>
    <g
       id="g208"
       style="clip-rule:evenodd;fill-rule:evenodd;image-rendering:optimizeQuality;shape-rendering:geometricPrecision;text-rendering:geometricPrecision"
       transform="matrix(0.30917983,0,0,0.30917983,-115.59887,-6.3442382)">
      <path
         style="opacity:1"
         fill="#f5d1cd"
         d="m 569.5,186.5 c -0.748,5.882 -2.914,11.216 -6.5,16 -0.167,2 -0.333,4 -0.5,6 0.536,5.924 1.87,11.59 4,17 -1.763,-2.52 -3.763,-4.853 -6,-7 -0.166,-6.009 10e-4,-12.009 0.5,-18 2.696,-3.397 4.862,-7.064 6.5,-11 0.667,-1 1.333,-2 2,-3 z"
         id="path208" />
    </g>
    <g
       id="g214"
       style="clip-rule:evenodd;fill-rule:evenodd;image-rendering:optimizeQuality;shape-rendering:geometricPrecision;text-rendering:geometricPrecision"
       transform="matrix(0.30917983,0,0,0.30917983,-115.59887,-6.3442382)">
      <path
         style="opacity:1"
         fill="#e79c94"
         d="m 502.5,196.5 c 1.294,0.79 2.461,1.79 3.5,3 0.82,6.514 0.653,12.847 -0.5,19 0.166,-6.009 -10e-4,-12.009 -0.5,-18 -0.708,-0.881 -1.542,-1.547 -2.5,-2 0,-0.667 0,-1.333 0,-2 z"
         id="path214" />
    </g>
    <g
       id="g220"
       style="clip-rule:evenodd;fill-rule:evenodd;image-rendering:optimizeQuality;shape-rendering:geometricPrecision;text-rendering:geometricPrecision"
       transform="matrix(0.30917983,0,0,0.30917983,-115.59887,-6.3442382)">
      <path
         style="opacity:1"
         fill="#f38d84"
         d="m 553.5,216.5 c -0.06,-2.841 -0.726,-5.507 -2,-8 1.517,0.011 2.684,0.677 3.5,2 1.563,-5.218 1.896,-10.551 1,-16 -1.049,-1.017 -2.216,-1.184 -3.5,-0.5 -0.964,4.066 -1.297,8.233 -1,12.5 -1.148,-4.481 -1.315,-9.148 -0.5,-14 1.479,-3.917 2.646,-7.917 3.5,-12 0.658,-0.898 1.324,-1.898 2,-3 1.166,15.99 1.333,31.99 0.5,48 -1.603,-2.922 -2.77,-5.922 -3.5,-9 z"
         id="path220" />
    </g>
    <g
       id="g229"
       style="clip-rule:evenodd;fill-rule:evenodd;image-rendering:optimizeQuality;shape-rendering:geometricPrecision;text-rendering:geometricPrecision"
       transform="matrix(0.30917983,0,0,0.30917983,-115.59887,-6.3442382)">
      <path
         style="opacity:1"
         fill="#f9dfdc"
         d="m 502.5,198.5 c 0.958,0.453 1.792,1.119 2.5,2 0.499,5.991 0.666,11.991 0.5,18 -1.626,2.442 -2.959,5.109 -4,8 -1.29,0.558 -2.123,1.558 -2.5,3 -4.087,15.184 -4.587,30.517 -1.5,46 -1.29,-0.558 -2.123,-1.558 -2.5,-3 -2.64,-12.865 -2.64,-25.865 0,-39 5.294,-7.191 8.46,-15.191 9.5,-24 0.204,-3.924 -0.463,-7.591 -2,-11 z"
         id="path229" />
    </g>
    <g
       id="g231"
       style="clip-rule:evenodd;fill-rule:evenodd;image-rendering:optimizeQuality;shape-rendering:geometricPrecision;text-rendering:geometricPrecision"
       transform="matrix(0.30917983,0,0,0.30917983,-115.59887,-6.3442382)">
      <path
         style="opacity:1"
         fill="#f7ddd9"
         d="m 566.5,225.5 c 2.105,1.487 3.772,3.487 5,6 0.731,3.153 1.397,6.319 2,9.5 -1.31,10.677 -1.31,21.344 0,32 -0.594,2.79 -1.761,5.29 -3.5,7.5 -1.356,0.88 -2.856,1.214 -4.5,1 2.158,-2.661 3.658,-5.661 4.5,-9 0.667,-12 0.667,-24 0,-36 -1.759,-3.509 -2.926,-7.175 -3.5,-11 z"
         id="path231" />
    </g>
    <g
       id="g234"
       style="clip-rule:evenodd;fill-rule:evenodd;image-rendering:optimizeQuality;shape-rendering:geometricPrecision;text-rendering:geometricPrecision"
       transform="matrix(0.30917983,0,0,0.30917983,-115.59887,-6.3442382)">
      <path
         style="opacity:1"
         fill="#f09287"
         d="m 504.5,225.5 c 0.597,0.235 0.93,0.735 1,1.5 -2.475,5.576 -3.475,11.41 -3,17.5 0.204,3.018 0.537,6.018 1,9 -1.618,-2.671 -2.285,-5.671 -2,-9 0.302,-2.559 -0.032,-4.893 -1,-7 0,-0.667 0,-1.333 0,-2 1.528,-3.249 2.861,-6.582 4,-10 z"
         id="path234" />
    </g>
    <g
       id="g236"
       style="clip-rule:evenodd;fill-rule:evenodd;image-rendering:optimizeQuality;shape-rendering:geometricPrecision;text-rendering:geometricPrecision"
       transform="matrix(0.30917983,0,0,0.30917983,-115.59887,-6.3442382)">
      <path
         style="opacity:1"
         fill="#c7473c"
         d="m 560.5,171.5 c 0,3.333 0,6.667 0,10 -0.546,14.59 1.121,15.257 5,2 0,-0.333 0,-0.667 0,-1 1.844,1.779 2.51,4.112 2,7 -1.638,3.936 -3.804,7.603 -6.5,11 -0.499,5.991 -0.666,11.991 -0.5,18 0,3.333 1.333,6 4,8 0.822,3.971 2.322,7.637 4.5,11 0.667,3.667 0.667,7.333 0,11 -0.278,-0.916 -0.778,-1.582 -1.5,-2 0.077,-6.13 -1.423,-11.796 -4.5,-17 1.065,5.883 1.565,11.883 1.5,18 -1.696,1.629 -2.696,1.296 -3,-1 0.437,-4.912 -0.396,-9.578 -2.5,-14 -1.738,3.741 -4.238,6.908 -7.5,9.5 -3.688,0.45 -7.354,0.283 -11,-0.5 -0.667,0 -1.333,0 -2,0 -5.4,-1.261 -10.733,-0.928 -16,1 -0.709,0.904 -1.709,1.237 -3,1 -6.441,-0.841 -10.274,-4.508 -11.5,-11 -1.044,1.123 -1.71,2.456 -2,4 -0.498,3.317 -0.665,6.65 -0.5,10 0.149,1.052 -0.017,2.052 -0.5,3 -0.757,-1.815 -1.59,-3.481 -2.5,-5 -0.475,-6.09 0.525,-11.924 3,-17.5 -0.07,-0.765 -0.403,-1.265 -1,-1.5 0.94,-2.112 2.106,-4.112 3.5,-6 0.383,0.556 0.883,0.889 1.5,1 0.801,2.293 1.468,1.96 2,-1 2.412,-4.643 3.745,-9.643 4,-15 0.667,-4 1.333,-8 2,-12 0,2 1,3 3,3 8.326,3.932 16.659,3.932 25,0 1.333,0 2.667,0 4,0 0,3 0,6 0,9 -0.973,-2.448 -1.306,-5.115 -1,-8 -8.405,3.076 -17.071,3.742 -26,2 -0.828,-0.915 -1.828,-1.581 -3,-2 -0.529,12.312 -4.195,23.479 -11,33.5 3.782,1.393 4.949,3.893 3.5,7.5 1.171,1.393 2.671,2.227 4.5,2.5 5.85,0.033 11.683,-0.467 17.5,-1.5 3.708,-0.019 7.208,0.648 10.5,2 3.316,0.029 5.983,-1.305 8,-4 1.211,-1.22 1.211,-2.387 0,-3.5 1.431,-0.465 2.597,-1.299 3.5,-2.5 0.333,0.667 0.667,1.333 1,2 3.392,-3.56 2.559,-5.56 -2.5,-6 -1.177,-4.373 -2.51,-8.707 -4,-13 0.772,1.194 1.772,2.194 3,3 0.73,3.078 1.897,6.078 3.5,9 0.833,-16.01 0.666,-32.01 -0.5,-48 -0.676,1.102 -1.342,2.102 -2,3 0.333,-2.667 0.667,-5.333 1,-8 1.542,-0.801 3.208,-1.134 5,-1 z"
         id="path236" />
    </g>
    <g
       id="g237"
       style="clip-rule:evenodd;fill-rule:evenodd;image-rendering:optimizeQuality;shape-rendering:geometricPrecision;text-rendering:geometricPrecision"
       transform="matrix(0.30917983,0,0,0.30917983,-115.59887,-6.3442382)">
      <path
         style="opacity:1"
         fill="#f8b3a9"
         d="m 551.5,208.5 c 0,-0.667 0,-1.333 0,-2 -0.297,-4.267 0.036,-8.434 1,-12.5 1.284,-0.684 2.451,-0.517 3.5,0.5 0.896,5.449 0.563,10.782 -1,16 -0.816,-1.323 -1.983,-1.989 -3.5,-2 z"
         id="path237" />
    </g>
    <g
       id="g238"
       style="clip-rule:evenodd;fill-rule:evenodd;image-rendering:optimizeQuality;shape-rendering:geometricPrecision;text-rendering:geometricPrecision"
       transform="matrix(0.30917983,0,0,0.30917983,-115.59887,-6.3442382)">
      <path
         style="opacity:1"
         fill="#d93f33"
         d="m 549.5,204.5 c 0.008,3.045 0.341,6.045 1,9 1.49,4.293 2.823,8.627 4,13 5.059,0.44 5.892,2.44 2.5,6 -0.333,-0.667 -0.667,-1.333 -1,-2 -0.903,1.201 -2.069,2.035 -3.5,2.5 1.211,1.113 1.211,2.28 0,3.5 -2.017,2.695 -4.684,4.029 -8,4 -3.292,-1.352 -6.792,-2.019 -10.5,-2 -5.817,1.033 -11.65,1.533 -17.5,1.5 -1.829,-0.273 -3.329,-1.107 -4.5,-2.5 1.449,-3.607 0.282,-6.107 -3.5,-7.5 6.805,-10.021 10.471,-21.188 11,-33.5 1.172,0.419 2.172,1.085 3,2 8.929,1.742 17.595,1.076 26,-2 -0.306,2.885 0.027,5.552 1,8 z"
         id="path238" />
    </g>
    <g
       id="g239"
       style="clip-rule:evenodd;fill-rule:evenodd;image-rendering:optimizeQuality;shape-rendering:geometricPrecision;text-rendering:geometricPrecision"
       transform="matrix(0.30917983,0,0,0.30917983,-115.59887,-6.3442382)">
      <path
         style="opacity:1"
         fill="#f19289"
         d="m 561.5,246.5 c -0.333,0 -0.667,0 -1,0 -0.085,-2.429 -1.085,-4.429 -3,-6 -2.743,1.832 -5.743,2.832 -9,3 -2.995,0.206 -5.662,-0.46 -8,-2 3.646,0.783 7.312,0.95 11,0.5 3.262,-2.592 5.762,-5.759 7.5,-9.5 2.104,4.422 2.937,9.088 2.5,14 z"
         id="path239" />
    </g>
    <g
       id="g241"
       style="clip-rule:evenodd;fill-rule:evenodd;image-rendering:optimizeQuality;shape-rendering:geometricPrecision;text-rendering:geometricPrecision"
       transform="matrix(0.30917983,0,0,0.30917983,-115.59887,-6.3442382)">
      <path
         style="opacity:1"
         fill="#e29d99"
         d="m 538.5,241.5 c -5.333,0.333 -10.667,0.667 -16,1 5.267,-1.928 10.6,-2.261 16,-1 z"
         id="path241" />
    </g>
    <g
       id="g243"
       style="clip-rule:evenodd;fill-rule:evenodd;image-rendering:optimizeQuality;shape-rendering:geometricPrecision;text-rendering:geometricPrecision"
       transform="matrix(0.30917983,0,0,0.30917983,-115.59887,-6.3442382)">
      <path
         style="opacity:1"
         fill="#f6a69e"
         d="m 519.5,243.5 c 0,0.333 0,0.667 0,1 -0.333,0 -0.667,0 -1,0 -1.373,-0.157 -2.707,0.01 -4,0.5 0.37,1.61 -0.297,3.11 -2,4.5 -0.667,-0.667 -1.333,-1.333 -2,-2 -0.333,0.333 -0.667,0.667 -1,1 0.176,2.172 0.343,4.505 0.5,7 3.669,6.335 6.502,13.001 8.5,20 -6.465,-8.736 -10.799,-18.403 -13,-29 -0.165,-3.35 0.002,-6.683 0.5,-10 0.29,-1.544 0.956,-2.877 2,-4 1.226,6.492 5.059,10.159 11.5,11 z"
         id="path243" />
    </g>
    <g
       id="g244"
       style="clip-rule:evenodd;fill-rule:evenodd;image-rendering:optimizeQuality;shape-rendering:geometricPrecision;text-rendering:geometricPrecision"
       transform="matrix(0.30917983,0,0,0.30917983,-115.59887,-6.3442382)">
      <path
         style="opacity:1"
         fill="#f9f8f8"
         d="m 538.5,282.5 c -2.988,1.773 -6.321,2.44 -10,2 -6.888,-12.341 -10.221,-25.674 -10,-40 0.333,0 0.667,0 1,0 9.039,-1.276 18.039,-0.942 27,1 1.575,3.627 0.908,6.793 -2,9.5 0.457,0.414 0.791,0.914 1,1.5 -2.217,5.441 -3.383,11.108 -3.5,17 -1.741,2.809 -2.908,5.809 -3.5,9 z"
         id="path244" />
    </g>
    <g
       id="g245"
       style="clip-rule:evenodd;fill-rule:evenodd;image-rendering:optimizeQuality;shape-rendering:geometricPrecision;text-rendering:geometricPrecision"
       transform="matrix(0.30917983,0,0,0.30917983,-115.59887,-6.3442382)">
      <path
         style="opacity:1"
         fill="#efada6"
         d="m 560.5,246.5 c -1.23,6.686 -3.23,13.019 -6,19 -1.457,2.128 -2.457,4.462 -3,7 -2.353,2.36 -4.353,5.027 -6,8 -1,0.667 -2,1.333 -3,2 -4.389,3.037 -9.056,3.703 -14,2 3.679,0.44 7.012,-0.227 10,-2 1.763,-2.385 3.263,-5.052 4.5,-8 2.269,-9.307 4.435,-18.64 6.5,-28 -0.185,-1.084 -0.518,-2.084 -1,-3 3.257,-0.168 6.257,-1.168 9,-3 1.915,1.571 2.915,3.571 3,6 z"
         id="path245" />
    </g>
    <g
       id="g246"
       style="clip-rule:evenodd;fill-rule:evenodd;image-rendering:optimizeQuality;shape-rendering:geometricPrecision;text-rendering:geometricPrecision"
       transform="matrix(0.30917983,0,0,0.30917983,-115.59887,-6.3442382)">
      <path
         style="opacity:1"
         fill="#eeb0aa"
         d="m 500.5,237.5 c 0.968,2.107 1.302,4.441 1,7 -0.992,7.148 -1.325,14.481 -1,22 2,0 4,0 6,0 -2.107,0.968 -4.441,1.302 -7,1 -0.327,-10.181 0.006,-20.181 1,-30 z"
         id="path246" />
    </g>
    <g
       id="g249"
       style="clip-rule:evenodd;fill-rule:evenodd;image-rendering:optimizeQuality;shape-rendering:geometricPrecision;text-rendering:geometricPrecision"
       transform="matrix(0.30917983,0,0,0.30917983,-115.59887,-6.3442382)">
      <path
         style="opacity:1"
         fill="#e6948c"
         d="m 567.5,246.5 c 0.324,6.854 -0.009,13.521 -1,20 0.617,-6.098 -0.05,-11.765 -2,-17 0,-0.667 0,-1.333 0,-2 0.065,-6.117 -0.435,-12.117 -1.5,-18 3.077,5.204 4.577,10.87 4.5,17 z"
         id="path249" />
    </g>
    <g
       id="g251"
       style="clip-rule:evenodd;fill-rule:evenodd;image-rendering:optimizeQuality;shape-rendering:geometricPrecision;text-rendering:geometricPrecision"
       transform="matrix(0.30917983,0,0,0.30917983,-115.59887,-6.3442382)">
      <path
         style="opacity:1"
         fill="#edb1ab"
         d="m 518.5,244.5 c -0.221,14.326 3.112,27.659 10,40 -1.562,-0.233 -2.895,-0.9 -4,-2 -0.333,0 -0.667,0 -1,0 -2.08,-2.073 -3.746,-4.407 -5,-7 -1.998,-6.999 -4.831,-13.665 -8.5,-20 -0.157,-2.495 -0.324,-4.828 -0.5,-7 0.333,-0.333 0.667,-0.667 1,-1 0.667,0.667 1.333,1.333 2,2 1.703,-1.39 2.37,-2.89 2,-4.5 1.293,-0.49 2.627,-0.657 4,-0.5 z"
         id="path251" />
    </g>
    <g
       id="g258"
       style="clip-rule:evenodd;fill-rule:evenodd;image-rendering:optimizeQuality;shape-rendering:geometricPrecision;text-rendering:geometricPrecision"
       transform="matrix(0.30917983,0,0,0.30917983,-115.59887,-6.3442382)">
      <path
         style="opacity:1"
         fill="#f9e4e1"
         d="m 501.5,244.5 c -0.285,3.329 0.382,6.329 2,9 0.774,3.549 2.107,6.882 4,10 0.237,1.291 -0.096,2.291 -1,3 -2,0 -4,0 -6,0 -0.325,-7.519 0.008,-14.852 1,-22 z"
         id="path258" />
    </g>
    <g
       id="g259"
       style="clip-rule:evenodd;fill-rule:evenodd;image-rendering:optimizeQuality;shape-rendering:geometricPrecision;text-rendering:geometricPrecision"
       transform="matrix(0.30917983,0,0,0.30917983,-115.59887,-6.3442382)">
      <path
         style="opacity:1"
         fill="#f9e9e6"
         d="m 538.5,241.5 c 0.667,0 1.333,0 2,0 2.338,1.54 5.005,2.206 8,2 0.482,0.916 0.815,1.916 1,3 -2.065,9.36 -4.231,18.693 -6.5,28 -1.237,2.948 -2.737,5.615 -4.5,8 0.592,-3.191 1.759,-6.191 3.5,-9 0.117,-5.892 1.283,-11.559 3.5,-17 -0.209,-0.586 -0.543,-1.086 -1,-1.5 2.908,-2.707 3.575,-5.873 2,-9.5 -8.961,-1.942 -17.961,-2.276 -27,-1 0,-0.333 0,-0.667 0,-1 1.291,0.237 2.291,-0.096 3,-1 5.333,-0.333 10.667,-0.667 16,-1 z"
         id="path259" />
    </g>
    <g
       id="g260"
       style="clip-rule:evenodd;fill-rule:evenodd;image-rendering:optimizeQuality;shape-rendering:geometricPrecision;text-rendering:geometricPrecision"
       transform="matrix(0.30917983,0,0,0.30917983,-115.59887,-6.3442382)">
      <path
         style="opacity:1"
         fill="#b55951"
         d="m 560.5,218.5 c 2.237,2.147 4.237,4.48 6,7 0.574,3.825 1.741,7.491 3.5,11 0.667,12 0.667,24 0,36 -0.842,3.339 -2.342,6.339 -4.5,9 -6.081,2.577 -10.415,0.91 -13,-5 -0.95,2.92 -2.616,5.253 -5,7 0.215,-1.679 -0.452,-2.679 -2,-3 1.647,-2.973 3.647,-5.64 6,-8 0,1 0,2 0,3 1,0 2,0 3,0 -0.237,-1.291 0.096,-2.291 1,-3 1.549,6.472 4.716,7.472 9.5,3 0.483,-0.948 0.649,-1.948 0.5,-3 0.904,-0.709 1.237,-1.709 1,-3 -3,0 -6,0 -9,0 0.806,-1.664 0.473,-3.331 -1,-5 -0.683,0.363 -1.35,0.696 -2,1 2.77,-5.981 4.77,-12.314 6,-19 0.333,0 0.667,0 1,0 0.304,2.296 1.304,2.629 3,1 0,0.667 0,1.333 0,2 -1.521,5.76 -3.188,11.426 -5,17 2.333,0 4.667,0 7,0 0.991,-6.479 1.324,-13.146 1,-20 0.722,0.418 1.222,1.084 1.5,2 0.667,-3.667 0.667,-7.333 0,-11 -2.178,-3.363 -3.678,-7.029 -4.5,-11 -2.667,-2 -4,-4.667 -4,-8 z"
         id="path260" />
    </g>
    <g
       id="g261"
       style="clip-rule:evenodd;fill-rule:evenodd;image-rendering:optimizeQuality;shape-rendering:geometricPrecision;text-rendering:geometricPrecision"
       transform="matrix(0.30917983,0,0,0.30917983,-115.59887,-6.3442382)">
      <path
         style="opacity:1"
         fill="#f9e4e0"
         d="m 564.5,249.5 c 1.95,5.235 2.617,10.902 2,17 -2.333,0 -4.667,0 -7,0 1.812,-5.574 3.479,-11.24 5,-17 z"
         id="path261" />
    </g>
    <g
       id="g265"
       style="clip-rule:evenodd;fill-rule:evenodd;image-rendering:optimizeQuality;shape-rendering:geometricPrecision;text-rendering:geometricPrecision"
       transform="matrix(0.30917983,0,0,0.30917983,-115.59887,-6.3442382)">
      <path
         style="opacity:1"
         fill="#bd5148"
         d="m 502.5,244.5 c 0.91,1.519 1.743,3.185 2.5,5 0.483,-0.948 0.649,-1.948 0.5,-3 2.201,10.597 6.535,20.264 13,29 1.254,2.593 2.92,4.927 5,7 -0.996,0.086 -1.829,-0.248 -2.5,-1 -0.797,7.423 0.536,14.423 4,21 5.789,1.221 11.622,1.221 17.5,0 -2.536,2.496 -5.703,3.496 -9.5,3 -3.993,0.438 -7.493,-0.562 -10.5,-3 -0.572,-1.755 -1.406,-3.422 -2.5,-5 -0.333,-4.667 -0.667,-9.333 -1,-14 -2.102,-1.595 -3.602,-3.595 -4.5,-6 -0.689,-1.274 -1.523,-1.274 -2.5,0 -0.717,-0.544 -1.217,-1.211 -1.5,-2 0.16,-1.699 -0.006,-3.366 -0.5,-5 -0.671,-0.752 -1.504,-1.086 -2.5,-1 1.073,-2.153 1.073,-4.153 0,-6 -1.893,-3.118 -3.226,-6.451 -4,-10 -0.463,-2.982 -0.796,-5.982 -1,-9 z"
         id="path265" />
    </g>
    <g
       id="g266"
       style="clip-rule:evenodd;fill-rule:evenodd;image-rendering:optimizeQuality;shape-rendering:geometricPrecision;text-rendering:geometricPrecision"
       transform="matrix(0.30917983,0,0,0.30917983,-115.59887,-6.3442382)">
      <path
         style="opacity:1"
         fill="#f5c4bc"
         d="m 507.5,269.5 c 0.996,-0.086 1.829,0.248 2.5,1 0.494,1.634 0.66,3.301 0.5,5 -0.333,0 -0.667,0 -1,0 -0.734,-1.429 -1.901,-2.429 -3.5,-3 -1.44,0.648 -2.94,0.981 -4.5,1 -0.734,-1.208 -1.067,-2.541 -1,-4 2.333,0 4.667,0 7,0 z"
         id="path266" />
    </g>
    <g
       id="g267"
       style="clip-rule:evenodd;fill-rule:evenodd;image-rendering:optimizeQuality;shape-rendering:geometricPrecision;text-rendering:geometricPrecision"
       transform="matrix(0.30917983,0,0,0.30917983,-115.59887,-6.3442382)">
      <path
         style="opacity:1"
         fill="#c4453e"
         d="m 557.5,269.5 c -0.838,0.342 -1.172,1.008 -1,2 -0.667,0 -1,0.333 -1,1 -0.904,0.709 -1.237,1.709 -1,3 -1,0 -2,0 -3,0 0,-1 0,-2 0,-3 0.543,-2.538 1.543,-4.872 3,-7 0.65,-0.304 1.317,-0.637 2,-1 1.473,1.669 1.806,3.336 1,5 z"
         id="path267" />
    </g>
    <g
       id="g268"
       style="clip-rule:evenodd;fill-rule:evenodd;image-rendering:optimizeQuality;shape-rendering:geometricPrecision;text-rendering:geometricPrecision"
       transform="matrix(0.30917983,0,0,0.30917983,-115.59887,-6.3442382)">
      <path
         style="opacity:1"
         fill="#f1beb7"
         d="m 557.5,269.5 c 3,0 6,0 9,0 0.237,1.291 -0.096,2.291 -1,3 -2.84,0.62 -5.674,1.287 -8.5,2 -0.483,-0.948 -0.649,-1.948 -0.5,-3 -0.172,-0.992 0.162,-1.658 1,-2 z"
         id="path268" />
    </g>
    <g
       id="g269"
       style="clip-rule:evenodd;fill-rule:evenodd;image-rendering:optimizeQuality;shape-rendering:geometricPrecision;text-rendering:geometricPrecision"
       transform="matrix(0.30917983,0,0,0.30917983,-115.59887,-6.3442382)">
      <path
         style="opacity:1"
         fill="#b2564f"
         d="m 501.5,226.5 c -0.66,2.316 -1.327,4.649 -2,7 0.043,0.916 0.376,1.583 1,2 0,0.667 0,1.333 0,2 -0.994,9.819 -1.327,19.819 -1,30 2.559,0.302 4.893,-0.032 7,-1 0.904,-0.709 1.237,-1.709 1,-3 1.073,1.847 1.073,3.847 0,6 -2.333,0 -4.667,0 -7,0 -0.067,1.459 0.266,2.792 1,4 0.369,4.512 2.702,6.012 7,4.5 0.752,-0.671 1.086,-1.504 1,-2.5 0.333,0 0.667,0 1,0 0.283,0.789 0.783,1.456 1.5,2 0.977,-1.274 1.811,-1.274 2.5,0 -2,1.333 -3.667,3 -5,5 -2.687,0.164 -5.354,-0.003 -8,-0.5 -1.748,-2.013 -3.082,-4.18 -4,-6.5 -3.087,-15.483 -2.587,-30.816 1.5,-46 0.377,-1.442 1.21,-2.442 2.5,-3 z"
         id="path269" />
    </g>
    <g
       id="g271"
       style="clip-rule:evenodd;fill-rule:evenodd;image-rendering:optimizeQuality;shape-rendering:geometricPrecision;text-rendering:geometricPrecision"
       transform="matrix(0.30917983,0,0,0.30917983,-115.59887,-6.3442382)">
      <path
         style="opacity:1"
         fill="#e09087"
         d="m 509.5,275.5 c 0.086,0.996 -0.248,1.829 -1,2.5 -4.298,1.512 -6.631,0.012 -7,-4.5 1.56,-0.019 3.06,-0.352 4.5,-1 1.599,0.571 2.766,1.571 3.5,3 z"
         id="path271" />
    </g>
    <g
       id="g272"
       style="clip-rule:evenodd;fill-rule:evenodd;image-rendering:optimizeQuality;shape-rendering:geometricPrecision;text-rendering:geometricPrecision"
       transform="matrix(0.30917983,0,0,0.30917983,-115.59887,-6.3442382)">
      <path
         style="opacity:1"
         fill="#e28c83"
         d="m 556.5,271.5 c -0.149,1.052 0.017,2.052 0.5,3 2.826,-0.713 5.66,-1.38 8.5,-2 0.149,1.052 -0.017,2.052 -0.5,3 -4.784,4.472 -7.951,3.472 -9.5,-3 0,-0.667 0.333,-1 1,-1 z"
         id="path272" />
    </g>
    <g
       id="g277"
       style="clip-rule:evenodd;fill-rule:evenodd;image-rendering:optimizeQuality;shape-rendering:geometricPrecision;text-rendering:geometricPrecision"
       transform="matrix(0.30917983,0,0,0.30917983,-115.59887,-6.3442382)">
      <path
         style="opacity:1"
         fill="#f5ccc6"
         d="m 514.5,277.5 c 0.898,2.405 2.398,4.405 4.5,6 0.333,4.667 0.667,9.333 1,14 1.094,1.578 1.928,3.245 2.5,5 -1.917,-0.616 -3.084,-1.95 -3.5,-4 -0.333,-4.667 -0.667,-9.333 -1,-14 -2.254,-3.105 -5.087,-3.772 -8.5,-2 1.333,-2 3,-3.667 5,-5 z"
         id="path277" />
    </g>
    <g
       id="g279"
       style="clip-rule:evenodd;fill-rule:evenodd;image-rendering:optimizeQuality;shape-rendering:geometricPrecision;text-rendering:geometricPrecision"
       transform="matrix(0.30917983,0,0,0.30917983,-115.59887,-6.3442382)">
      <path
         style="opacity:1"
         fill="#f8dbd7"
         d="m 565.5,281.5 c -0.917,2.011 -2.583,3.011 -5,3 -3.064,-0.825 -6.064,-0.825 -9,0 -1.719,2.209 -3.053,4.543 -4,7 0,-2.667 0,-5.333 0,-8 2.384,-1.747 4.05,-4.08 5,-7 2.585,5.91 6.919,7.577 13,5 z"
         id="path279" />
    </g>
    <g
       id="g284"
       style="clip-rule:evenodd;fill-rule:evenodd;image-rendering:optimizeQuality;shape-rendering:geometricPrecision;text-rendering:geometricPrecision"
       transform="matrix(0.30917983,0,0,0.30917983,-115.59887,-6.3442382)">
      <path
         style="opacity:1"
         fill="#d5443a"
         d="m 545.5,280.5 c 1.548,0.321 2.215,1.321 2,3 -1.264,6.34 -2.93,12.673 -5,19 -5.878,1.221 -11.711,1.221 -17.5,0 -3.464,-6.577 -4.797,-13.577 -4,-21 0.671,0.752 1.504,1.086 2.5,1 0.333,0 0.667,0 1,0 1.239,4.497 4.239,6.83 9,7 4.851,0.522 7.851,-1.811 9,-7 1,-0.667 2,-1.333 3,-2 z"
         id="path284" />
    </g>
    <g
       id="g285"
       style="clip-rule:evenodd;fill-rule:evenodd;image-rendering:optimizeQuality;shape-rendering:geometricPrecision;text-rendering:geometricPrecision"
       transform="matrix(0.30917983,0,0,0.30917983,-115.59887,-6.3442382)">
      <path
         style="opacity:1"
         fill="#cc564b"
         d="m 524.5,282.5 c 1.105,1.1 2.438,1.767 4,2 4.944,1.703 9.611,1.037 14,-2 -1.149,5.189 -4.149,7.522 -9,7 -4.761,-0.17 -7.761,-2.503 -9,-7 z"
         id="path285" />
    </g>
    <g
       id="g286"
       style="clip-rule:evenodd;fill-rule:evenodd;image-rendering:optimizeQuality;shape-rendering:geometricPrecision;text-rendering:geometricPrecision"
       transform="matrix(0.30917983,0,0,0.30917983,-115.59887,-6.3442382)">
      <path
         style="opacity:1"
         fill="#b85750"
         d="m 547.5,283.5 c 0,2.667 0,5.333 0,8 0,1.667 0,3.333 0,5 -1.19,2.369 -2.857,4.369 -5,6 2.07,-6.327 3.736,-12.66 5,-19 z"
         id="path286" />
    </g>
    <g
       id="g304"
       style="clip-rule:evenodd;fill-rule:evenodd;image-rendering:optimizeQuality;shape-rendering:geometricPrecision;text-rendering:geometricPrecision"
       transform="matrix(0.30917983,0,0,0.30917983,-115.59887,-6.3442382)">
      <path
         style="opacity:1"
         fill="#f8e2df"
         d="m 547.5,296.5 c -0.108,6.57 -3.441,10.403 -10,11.5 -4.982,0.96 -9.649,0.127 -14,-2.5 -0.886,-0.825 -1.219,-1.825 -1,-3 3.007,2.438 6.507,3.438 10.5,3 3.797,0.496 6.964,-0.504 9.5,-3 2.143,-1.631 3.81,-3.631 5,-6 z"
         id="path304" />
    </g>
  </g>
</svg>
