<?xml version="1.0" encoding="UTF-8" standalone="no"?>
<!-- Created with Inkscape (http://www.inkscape.org/) -->

<svg
   width="96mm"
   height="96mm"
   viewBox="0 0 96 96"
   version="1.1"
   id="svg1"
   inkscape:version="1.4.2 (ebf0e940, 2025-05-08)"
   sodipodi:docname="car.svg"
   xmlns:inkscape="http://www.inkscape.org/namespaces/inkscape"
   xmlns:sodipodi="http://sodipodi.sourceforge.net/DTD/sodipodi-0.dtd"
   xmlns="http://www.w3.org/2000/svg"
   xmlns:svg="http://www.w3.org/2000/svg">
  <sodipodi:namedview
     id="namedview1"
     pagecolor="#ffffff"
     bordercolor="#000000"
     borderopacity="0.25"
     inkscape:showpageshadow="2"
     inkscape:pageopacity="0.0"
     inkscape:pagecheckerboard="0"
     inkscape:deskcolor="#d1d1d1"
     inkscape:document-units="mm"
     inkscape:zoom="0.80444024"
     inkscape:cx="397.17059"
     inkscape:cy="362.36377"
     inkscape:window-width="1920"
     inkscape:window-height="1052"
     inkscape:window-x="0"
     inkscape:window-y="28"
     inkscape:window-maximized="0"
     inkscape:current-layer="layer1" />
  <defs
     id="defs1" />
  <g
     inkscape:label="Layer 1"
     inkscape:groupmode="layer"
     id="layer1">
    <g
       id="g2"
       style="clip-rule:evenodd;fill-rule:evenodd;image-rendering:optimizeQuality;shape-rendering:geometricPrecision;text-rendering:geometricPrecision"
       transform="matrix(0.33829965,0,0,0.33829965,-252.82929,-8.5855706)">
      <path
         style="opacity:1"
         fill="#eecfd0"
         d="m 877.5,45.5 c 10.158,-1.1585 20.492,-1.3252 31,-0.5 5.927,2.1428 11.927,3.9762 18,5.5 0.886,0.825 1.219,1.825 1,3 -15.764,-7.4152 -32.431,-10.0819 -50,-8 z"
         id="path2" />
    </g>
    <g
       id="g9"
       style="clip-rule:evenodd;fill-rule:evenodd;image-rendering:optimizeQuality;shape-rendering:geometricPrecision;text-rendering:geometricPrecision"
       transform="matrix(0.33829965,0,0,0.33829965,-252.82929,-8.5855706)">
      <path
         style="opacity:1"
         fill="#f3d6d7"
         d="m 864.5,47.5 c -6.406,2.7014 -12.739,5.7014 -19,9 0.359,-1.871 1.359,-3.371 3,-4.5 2.087,-0.7922 3.921,-1.9588 5.5,-3.5 0.561,0.5219 1.228,0.8552 2,1 2.639,-1.4944 5.472,-2.1611 8.5,-2 z"
         id="path9" />
    </g>
    <g
       id="g10"
       style="clip-rule:evenodd;fill-rule:evenodd;image-rendering:optimizeQuality;shape-rendering:geometricPrecision;text-rendering:geometricPrecision"
       transform="matrix(0.33829965,0,0,0.33829965,-252.82929,-8.5855706)">
      <path
         style="opacity:1"
         fill="#7d3032"
         d="m 877.5,45.5 c 17.569,-2.0819 34.236,0.5848 50,8 8.372,4.703 13.706,11.703 16,21 0.31,3.2131 -0.023,6.2131 -1,9 -1.493,-3.6601 -2.827,-7.3267 -4,-11 -1.141,-5.6581 -4.141,-10.1581 -9,-13.5 -4.536,-3.2685 -9.536,-5.4352 -15,-6.5 -5.665,-2.2625 -11.665,-3.2625 -18,-3 -14.132,-2.2256 -27.799,-0.3923 -41,5.5 -9.595,4.0918 -15.262,11.2585 -17,21.5 -1.439,2.088 -2.106,4.4214 -2,7 -0.814,2.131 -1.314,4.4644 -1.5,7 -0.5,11.662 -0.667,23.329 -0.5,35 -0.06,0.543 -0.393,0.876 -1,1 -0.667,-3.477 -1.334,-6.811 -2,-10 -1.927,-17.0574 -0.094,-33.7241 5.5,-50 2.669,-3.4997 5.502,-6.833 8.5,-10 6.261,-3.2986 12.594,-6.2986 19,-9 4.394,-0.3437 8.728,-1.0103 13,-2 z"
         id="path10" />
    </g>
    <g
       id="g11"
       style="clip-rule:evenodd;fill-rule:evenodd;image-rendering:optimizeQuality;shape-rendering:geometricPrecision;text-rendering:geometricPrecision"
       transform="matrix(0.33829965,0,0,0.33829965,-252.82929,-8.5855706)">
      <path
         style="opacity:1"
         fill="#863132"
         d="m 879.5,51.5 c 7.008,-0.1663 14.008,4e-4 21,0.5 4.61,-0.0318 7.944,1.9682 10,6 1.634,0.4935 3.301,0.6602 5,0.5 -0.237,-1.291 0.096,-2.291 1,-3 0.992,-0.1716 1.658,0.1618 2,1 -1.086,0.12 -1.753,0.7867 -2,2 1.323,1.6651 2.656,3.3317 4,5 -5.715,-2.343 -11.715,-3.6763 -18,-4 -0.333,0 -0.667,0 -1,0 -10.845,-1.1967 -21.845,-1.1967 -33,0 0,-0.6667 0,-1.3333 0,-2 0.575,-1.9113 1.575,-3.578 3,-5 2.667,-0.3333 5.333,-0.6667 8,-1 z"
         id="path11" />
    </g>
    <g
       id="g12"
       style="clip-rule:evenodd;fill-rule:evenodd;image-rendering:optimizeQuality;shape-rendering:geometricPrecision;text-rendering:geometricPrecision"
       transform="matrix(0.33829965,0,0,0.33829965,-252.82929,-8.5855706)">
      <path
         style="opacity:1"
         fill="#f8d8dc"
         d="m 871.5,52.5 c -1.425,1.422 -2.425,3.0887 -3,5 -2.331,1.4952 -4.331,1.1618 -6,-1 0,-0.6667 -0.333,-1 -1,-1 2.513,-3.7517 5.846,-4.7517 10,-3 z"
         id="path12" />
    </g>
    <g
       id="g13"
       style="clip-rule:evenodd;fill-rule:evenodd;image-rendering:optimizeQuality;shape-rendering:geometricPrecision;text-rendering:geometricPrecision"
       transform="matrix(0.33829965,0,0,0.33829965,-252.82929,-8.5855706)">
      <path
         style="opacity:1"
         fill="#f6cfd1"
         d="m 896.5,49.5 c 6.335,-0.2625 12.335,0.7375 18,3 1.051,0.7223 1.718,1.7223 2,3 -0.904,0.709 -1.237,1.709 -1,3 -1.699,0.1602 -3.366,-0.0065 -5,-0.5 -2.056,-4.0318 -5.39,-6.0318 -10,-6 -6.992,-0.4996 -13.992,-0.6663 -21,-0.5 5.235,-1.95 10.902,-2.6167 17,-2 z"
         id="path13" />
    </g>
    <g
       id="g14"
       style="clip-rule:evenodd;fill-rule:evenodd;image-rendering:optimizeQuality;shape-rendering:geometricPrecision;text-rendering:geometricPrecision"
       transform="matrix(0.33829965,0,0,0.33829965,-252.82929,-8.5855706)">
      <path
         style="opacity:1"
         fill="#eba9ae"
         d="m 896.5,49.5 c -6.098,-0.6167 -11.765,0.05 -17,2 -2.667,0.3333 -5.333,0.6667 -8,1 -4.154,-1.7517 -7.487,-0.7517 -10,3 -1.599,-0.2678 -2.932,0.0655 -4,1 -3.204,0.8833 -5.871,2.5499 -8,5 -4.661,2.6628 -7.328,6.6628 -8,12 -0.838,0.3417 -1.172,1.0084 -1,2 -0.667,0.3333 -1.333,0.6667 -2,1 1.738,-10.2415 7.405,-17.4082 17,-21.5 13.201,-5.8923 26.868,-7.7256 41,-5.5 z"
         id="path14" />
    </g>
    <g
       id="g18"
       style="clip-rule:evenodd;fill-rule:evenodd;image-rendering:optimizeQuality;shape-rendering:geometricPrecision;text-rendering:geometricPrecision"
       transform="matrix(0.33829965,0,0,0.33829965,-252.82929,-8.5855706)">
      <path
         style="opacity:1"
         fill="#9d2a2c"
         d="m 877.5,53.5 c 8.673,-0.1664 17.34,2e-4 26,0.5 1.172,0.4186 2.172,1.0853 3,2 -10,0.6667 -20,0.6667 -30,0 -0.333,-0.3333 -0.667,-0.6667 -1,-1 0.916,-0.2784 1.582,-0.7784 2,-1.5 z"
         id="path18" />
    </g>
    <g
       id="g31"
       style="clip-rule:evenodd;fill-rule:evenodd;image-rendering:optimizeQuality;shape-rendering:geometricPrecision;text-rendering:geometricPrecision"
       transform="matrix(0.33829965,0,0,0.33829965,-252.82929,-8.5855706)">
      <path
         style="opacity:1"
         fill="#844d4d"
         d="m 862.5,56.5 c 1.669,2.1618 3.669,2.4952 6,1 0,0.6667 0,1.3333 0,2 -2.201,1.0664 -4.535,1.733 -7,2 0.418,-0.7216 1.084,-1.2216 2,-1.5 -0.837,-1.0113 -1.17,-2.1779 -1,-3.5 z"
         id="path31" />
    </g>
    <g
       id="g32"
       style="clip-rule:evenodd;fill-rule:evenodd;image-rendering:optimizeQuality;shape-rendering:geometricPrecision;text-rendering:geometricPrecision"
       transform="matrix(0.33829965,0,0,0.33829965,-252.82929,-8.5855706)">
      <path
         style="opacity:1"
         fill="#f9f8f8"
         d="m 901.5,59.5 c 0.333,0 0.667,0 1,0 2.167,0.7685 4.334,1.7685 6.5,3 0.108,3.9651 0.941,7.6317 2.5,11 2.328,9.2982 4.661,18.6315 7,28 0.247,1.213 0.914,1.88 2,2 0.178,-5.2225 0.178,-10.5558 0,-16 -0.192,-2.357 -1.358,-4.0237 -3.5,-5 -1.453,-5.574 -2.286,-11.2406 -2.5,-17 4.436,-0.4681 8.436,0.5319 12,3 1.333,0.6667 2.333,1.6667 3,3 0.879,6.3171 1.712,12.6504 2.5,19 0.383,0.556 0.883,0.8893 1.5,1 0,7.3333 0,14.667 0,22 -1,0 -2,0 -3,0 -0.734,-1.208 -1.067,-2.541 -1,-4 -20.514,-5.867 -41.347,-7.2 -62.5,-4 -0.333,-0.333 -0.667,-0.667 -1,-1 -6.314,2.386 -12.814,4.719 -19.5,7 -1.165,-8.647 -1.332,-17.3142 -0.5,-26 2.759,-7.3659 6.259,-14.3659 10.5,-21 2.982,-0.4629 5.982,-0.7962 9,-1 -2.496,7.8745 -4.829,15.7078 -7,23.5 0.333,0.3333 0.667,0.6667 1,1 -0.808,0.3076 -1.475,0.8076 -2,1.5 1.105,3.797 1.105,7.6303 0,11.5 0.333,1.167 0.667,2.333 1,3.5 0.607,-0.124 0.94,-0.457 1,-1 2.446,-0.892 3.112,-2.392 2,-4.5 1.516,-3.3544 3.183,-6.6877 5,-10 -0.597,-1.0617 -0.93,-2.2284 -1,-3.5 1.768,-7.9439 3.102,-15.9439 4,-24 10.592,-1.6474 21.259,-2.3141 32,-2 z"
         id="path32" />
    </g>
    <g
       id="g35"
       style="clip-rule:evenodd;fill-rule:evenodd;image-rendering:optimizeQuality;shape-rendering:geometricPrecision;text-rendering:geometricPrecision"
       transform="matrix(0.33829965,0,0,0.33829965,-252.82929,-8.5855706)">
      <path
         style="opacity:1"
         fill="#f0d8da"
         d="m 901.5,59.5 c -10.741,-0.3141 -21.408,0.3526 -32,2 -0.898,8.0561 -2.232,16.0561 -4,24 0.07,1.2716 0.403,2.4383 1,3.5 -1.817,3.3123 -3.484,6.6456 -5,10 1.112,2.108 0.446,3.608 -2,4.5 -0.06,0.543 -0.393,0.876 -1,1 -0.333,-1.167 -0.667,-2.333 -1,-3.5 1.105,-3.8697 1.105,-7.703 0,-11.5 0.525,-0.6924 1.192,-1.1924 2,-1.5 -0.333,-0.3333 -0.667,-0.6667 -1,-1 2.171,-7.7922 4.504,-15.6255 7,-23.5 -3.018,0.2038 -6.018,0.5371 -9,1 1.465,-1.2368 3.132,-2.2368 5,-3 2.465,-0.267 4.799,-0.9336 7,-2 11.155,-1.1967 22.155,-1.1967 33,0 z"
         id="path35" />
    </g>
    <g
       id="g38"
       style="clip-rule:evenodd;fill-rule:evenodd;image-rendering:optimizeQuality;shape-rendering:geometricPrecision;text-rendering:geometricPrecision"
       transform="matrix(0.33829965,0,0,0.33829965,-252.82929,-8.5855706)">
      <path
         style="opacity:1"
         fill="#9b2327"
         d="m 857.5,56.5 c 0.778,0.6556 1.444,1.4889 2,2.5 -2.788,2.5659 -5.788,4.8993 -9,7 -1.713,1.3782 -3.047,3.0448 -4,5 -0.983,0.5908 -1.65,0.2575 -2,-1 1.506,-2.9878 3.173,-5.8212 5,-8.5 2.129,-2.4501 4.796,-4.1167 8,-5 z"
         id="path38" />
    </g>
    <g
       id="g41"
       style="clip-rule:evenodd;fill-rule:evenodd;image-rendering:optimizeQuality;shape-rendering:geometricPrecision;text-rendering:geometricPrecision"
       transform="matrix(0.33829965,0,0,0.33829965,-252.82929,-8.5855706)">
      <path
         style="opacity:1"
         fill="#99272b"
         d="m 918.5,56.5 c 6.588,1.1159 11.588,4.4492 15,10 -0.214,1.6439 0.12,3.1439 1,4.5 -0.525,0.6924 -1.192,1.1924 -2,1.5 -1.442,-3.6046 -3.775,-6.438 -7,-8.5 -1.634,-0.4935 -3.301,-0.6602 -5,-0.5 -1.344,-1.6683 -2.677,-3.3349 -4,-5 0.247,-1.2133 0.914,-1.88 2,-2 z"
         id="path41" />
    </g>
    <g
       id="g44"
       style="clip-rule:evenodd;fill-rule:evenodd;image-rendering:optimizeQuality;shape-rendering:geometricPrecision;text-rendering:geometricPrecision"
       transform="matrix(0.33829965,0,0,0.33829965,-252.82929,-8.5855706)">
      <path
         style="opacity:1"
         fill="#eeadb1"
         d="m 914.5,52.5 c 5.464,1.0648 10.464,3.2315 15,6.5 4.859,3.3419 7.859,7.8419 9,13.5 -1.555,3.0756 -2.555,6.4089 -3,10 -0.333,0 -0.667,0 -1,0 0.038,-3.1205 0.705,-6.1205 2,-9 -0.214,-2.7525 -1.214,-5.0858 -3,-7 -3.412,-5.5508 -8.412,-8.8841 -15,-10 -0.342,-0.8382 -1.008,-1.1716 -2,-1 -0.282,-1.2777 -0.949,-2.2777 -2,-3 z"
         id="path44" />
    </g>
    <g
       id="g47"
       style="clip-rule:evenodd;fill-rule:evenodd;image-rendering:optimizeQuality;shape-rendering:geometricPrecision;text-rendering:geometricPrecision"
       transform="matrix(0.33829965,0,0,0.33829965,-252.82929,-8.5855706)">
      <path
         style="opacity:1"
         fill="#802024"
         d="m 861.5,55.5 c 0.667,0 1,0.3333 1,1 -0.17,1.3221 0.163,2.4887 1,3.5 -0.916,0.2784 -1.582,0.7784 -2,1.5 -1.868,0.7632 -3.535,1.7632 -5,3 -4.395,2.0622 -7.395,5.3955 -9,10 -1.1,1.7774 -1.934,3.7774 -2.5,6 -0.494,-1.6341 -0.66,-3.3008 -0.5,-5 -1.679,0.2148 -2.679,-0.4519 -3,-2 0.672,-5.3372 3.339,-9.3372 8,-12 -1.827,2.6788 -3.494,5.5122 -5,8.5 0.35,1.2575 1.017,1.5908 2,1 0.953,-1.9552 2.287,-3.6218 4,-5 3.212,-2.1007 6.212,-4.4341 9,-7 -0.556,-1.0111 -1.222,-1.8444 -2,-2.5 1.068,-0.9345 2.401,-1.2678 4,-1 z"
         id="path47" />
    </g>
    <g
       id="g48"
       style="clip-rule:evenodd;fill-rule:evenodd;image-rendering:optimizeQuality;shape-rendering:geometricPrecision;text-rendering:geometricPrecision"
       transform="matrix(0.33829965,0,0,0.33829965,-252.82929,-8.5855706)">
      <path
         style="opacity:1"
         fill="#832f30"
         d="m 920.5,63.5 c 1.699,-0.1602 3.366,0.0065 5,0.5 3.225,2.062 5.558,4.8954 7,8.5 0.808,-0.3076 1.475,-0.8076 2,-1.5 -0.88,-1.3561 -1.214,-2.8561 -1,-4.5 1.786,1.9142 2.786,4.2475 3,7 -1.295,2.8795 -1.962,5.8795 -2,9 0.268,1.599 -0.066,2.9324 -1,4 -0.265,-5.3994 -1.598,-10.3994 -4,-15 -0.667,-1.3333 -1.667,-2.3333 -3,-3 -1.631,-2.1433 -3.631,-3.81 -6,-5 z"
         id="path48" />
    </g>
    <g
       id="g50"
       style="clip-rule:evenodd;fill-rule:evenodd;image-rendering:optimizeQuality;shape-rendering:geometricPrecision;text-rendering:geometricPrecision"
       transform="matrix(0.33829965,0,0,0.33829965,-252.82929,-8.5855706)">
      <path
         style="opacity:1"
         fill="#f3dede"
         d="m 902.5,59.5 c 6.285,0.3237 12.285,1.657 18,4 2.369,1.19 4.369,2.8567 6,5 -3.564,-2.4681 -7.564,-3.4681 -12,-3 0.214,5.7594 1.047,11.426 2.5,17 2.142,0.9763 3.308,2.643 3.5,5 0.178,5.4442 0.178,10.7775 0,16 -3.149,-12.9304 -6.149,-25.9304 -9,-39 -0.333,0.8333 -0.667,1.6667 -1,2.5 0.577,2.137 0.91,4.3037 1,6.5 -1.559,-3.3683 -2.392,-7.0349 -2.5,-11 -2.166,-1.2315 -4.333,-2.2315 -6.5,-3 z"
         id="path50" />
    </g>
    <g
       id="g55"
       style="clip-rule:evenodd;fill-rule:evenodd;image-rendering:optimizeQuality;shape-rendering:geometricPrecision;text-rendering:geometricPrecision"
       transform="matrix(0.33829965,0,0,0.33829965,-252.82929,-8.5855706)">
      <path
         style="opacity:1"
         fill="#f5dadc"
         d="m 845.5,56.5 c -2.998,3.167 -5.831,6.5003 -8.5,10 -5.594,16.2759 -7.427,32.9426 -5.5,50 0.165,3.018 -0.002,6.018 -0.5,9 -7.046,2.545 -10.213,7.545 -9.5,15 -1.059,-4.025 -1.059,-7.859 0,-11.5 1.453,-2.114 3.453,-3.448 6,-4 1.028,-2.761 1.028,-5.594 0,-8.5 -1.387,-19.2884 1.947,-37.6217 10,-55 0.825,-0.8857 1.825,-1.219 3,-1 -0.116,-3.4103 1.55,-4.7436 5,-4 z"
         id="path55" />
    </g>
    <g
       id="g56"
       style="clip-rule:evenodd;fill-rule:evenodd;image-rendering:optimizeQuality;shape-rendering:geometricPrecision;text-rendering:geometricPrecision"
       transform="matrix(0.33829965,0,0,0.33829965,-252.82929,-8.5855706)">
      <path
         style="opacity:1"
         fill="#f1cfd0"
         d="m 927.5,53.5 c 5.159,-0.4664 8.493,1.7003 10,6.5 0.948,0.4828 1.948,0.6495 3,0.5 1.147,4.9414 2.98,9.6081 5.5,14 0.667,4.6667 1.333,9.3333 2,14 0.186,12.742 0.686,25.408 1.5,38 -2.45,-0.374 -3.45,-1.874 -3,-4.5 1.086,-10.815 1.252,-21.648 0.5,-32.5 -0.41,-5.3005 -1.577,-10.3005 -3.5,-15 -2.294,-9.297 -7.628,-16.297 -16,-21 z"
         id="path56" />
    </g>
    <g
       id="g62"
       style="clip-rule:evenodd;fill-rule:evenodd;image-rendering:optimizeQuality;shape-rendering:geometricPrecision;text-rendering:geometricPrecision"
       transform="matrix(0.33829965,0,0,0.33829965,-252.82929,-8.5855706)">
      <path
         style="opacity:1"
         fill="#f9f2f2"
         d="m 840.5,75.5 c 0.709,0.904 1.709,1.2373 3,1 -0.426,9.6847 -1.093,19.3514 -2,29 -0.826,4.482 -1.326,9.149 -1.5,14 -0.667,0.667 -1.333,1.333 -2,2 -0.667,-2 -1.333,-4 -2,-6 -0.572,-10.679 -0.405,-21.3455 0.5,-32 -0.106,-2.5786 0.561,-4.912 2,-7 0.667,-0.3333 1.333,-0.6667 2,-1 z"
         id="path62" />
    </g>
    <g
       id="g63"
       style="clip-rule:evenodd;fill-rule:evenodd;image-rendering:optimizeQuality;shape-rendering:geometricPrecision;text-rendering:geometricPrecision"
       transform="matrix(0.33829965,0,0,0.33829965,-252.82929,-8.5855706)">
      <path
         style="opacity:1"
         fill="#886768"
         d="m 920.5,103.5 c -1.086,-0.12 -1.753,-0.787 -2,-2 -2.339,-9.3685 -4.672,-18.7018 -7,-28 -0.09,-2.1963 -0.423,-4.363 -1,-6.5 0.333,-0.8333 0.667,-1.6667 1,-2.5 2.851,13.0696 5.851,26.0696 9,39 z"
         id="path63" />
    </g>
    <g
       id="g64"
       style="clip-rule:evenodd;fill-rule:evenodd;image-rendering:optimizeQuality;shape-rendering:geometricPrecision;text-rendering:geometricPrecision"
       transform="matrix(0.33829965,0,0,0.33829965,-252.82929,-8.5855706)">
      <path
         style="opacity:1"
         fill="#996d71"
         d="m 841.5,73.5 c 0.321,1.5481 1.321,2.2148 3,2 -0.16,1.6992 0.006,3.3659 0.5,5 0.566,-2.2226 1.4,-4.2226 2.5,-6 -0.314,3.4466 -1.148,6.7799 -2.5,10 -0.5,10.328 -0.666,20.661 -0.5,31 -0.827,-5.151 -1.327,-10.484 -1.5,-16 -0.499,5.991 -0.666,11.991 -0.5,18 -0.983,-3.798 -1.317,-7.798 -1,-12 0.907,-9.6486 1.574,-19.3153 2,-29 -1.291,0.2373 -2.291,-0.096 -3,-1 -0.172,-0.9916 0.162,-1.6583 1,-2 z"
         id="path64" />
    </g>
    <g
       id="g66"
       style="clip-rule:evenodd;fill-rule:evenodd;image-rendering:optimizeQuality;shape-rendering:geometricPrecision;text-rendering:geometricPrecision"
       transform="matrix(0.33829965,0,0,0.33829965,-252.82929,-8.5855706)">
      <path
         style="opacity:1"
         fill="#ecced0"
         d="m 929.5,71.5 c 2.402,4.6006 3.735,9.6006 4,15 0,1.6667 0,3.3333 0,5 -0.617,-0.1107 -1.117,-0.444 -1.5,-1 -0.788,-6.3496 -1.621,-12.6829 -2.5,-19 z"
         id="path66" />
    </g>
    <g
       id="g67"
       style="clip-rule:evenodd;fill-rule:evenodd;image-rendering:optimizeQuality;shape-rendering:geometricPrecision;text-rendering:geometricPrecision"
       transform="matrix(0.33829965,0,0,0.33829965,-252.82929,-8.5855706)">
      <path
         style="opacity:1"
         fill="#866163"
         d="m 859.5,103.5 c -0.639,-0.597 -0.972,-1.43 -1,-2.5 2.296,-12.352 5.296,-24.5187 9,-36.5 -1.826,12.9992 -4.492,25.9992 -8,39 z"
         id="path67" />
    </g>
    <g
       id="g76"
       style="clip-rule:evenodd;fill-rule:evenodd;image-rendering:optimizeQuality;shape-rendering:geometricPrecision;text-rendering:geometricPrecision"
       transform="matrix(0.33829965,0,0,0.33829965,-252.82929,-8.5855706)">
      <path
         style="opacity:1"
         fill="#712224"
         d="m 943.5,88.5 c 0,-0.6667 0,-1.3333 0,-2 -0.107,-1.8786 0.393,-2.2119 1.5,-1 1.927,13.3203 1.927,26.654 0,40 -0.169,-12.507 -0.669,-24.84 -1.5,-37 z"
         id="path76" />
    </g>
    <g
       id="g84"
       style="clip-rule:evenodd;fill-rule:evenodd;image-rendering:optimizeQuality;shape-rendering:geometricPrecision;text-rendering:geometricPrecision"
       transform="matrix(0.33829965,0,0,0.33829965,-252.82929,-8.5855706)">
      <path
         style="opacity:1"
         fill="#87292b"
         d="m 844.5,115.5 c 6.887,-3.889 14.221,-6.555 22,-8 4.205,-0.217 8.205,-0.883 12,-2 17.993,-1.335 35.326,1.332 52,8 2.006,0.985 3.673,2.318 5,4 -1.628,5.888 -3.628,11.554 -6,17 0.538,-5.105 1.538,-10.105 3,-15 -0.186,-2.08 -1.186,-3.58 -3,-4.5 -24.289,-8.832 -48.955,-9.832 -74,-3 -2.456,1.711 -5.123,3.044 -8,4 -1.074,0.739 -1.741,1.739 -2,3 0.961,4.551 2.128,9.051 3.5,13.5 0.383,0.556 0.883,0.889 1.5,1 0.507,4.36 1.173,8.693 2,13 -3.464,-9.47 -6.797,-19.137 -10,-29 -0.166,-6.009 10e-4,-12.009 0.5,-18 0.173,5.516 0.673,10.849 1.5,16 z"
         id="path84" />
    </g>
    <g
       id="g86"
       style="clip-rule:evenodd;fill-rule:evenodd;image-rendering:optimizeQuality;shape-rendering:geometricPrecision;text-rendering:geometricPrecision"
       transform="matrix(0.33829965,0,0,0.33829965,-252.82929,-8.5855706)">
      <path
         style="opacity:1"
         fill="#a71f25"
         d="m 921.5,147.5 c -15.449,-2.016 -30.782,-2.349 -46,-1 -6.787,0.224 -13.454,1.224 -20,3 -1.235,-0.84 -2.235,-1.84 -3,-3 -0.827,-4.307 -1.493,-8.64 -2,-13 -0.164,-2.687 0.003,-5.354 0.5,-8 0.998,2.528 1.831,2.528 2.5,0 -0.318,-1.147 -0.984,-1.981 -2,-2.5 2.422,-1.84 4.755,-3.007 7,-3.5 0.667,0.667 1.333,1.333 2,2 0.333,-0.667 0.667,-1.333 1,-2 2.065,3.907 3.565,3.574 4.5,-1 0.923,1.259 1.757,2.592 2.5,4 0.854,-1.022 1.854,-1.855 3,-2.5 -1.5,-0.833 -2.667,-2 -3.5,-3.5 -2.562,0.587 -5.228,0.921 -8,1 -0.749,-1.135 -0.583,-2.135 0.5,-3 10.588,-4.217 21.588,-6.051 33,-5.5 1.73,1.852 2.896,1.686 3.5,-0.5 3.624,1.406 7.291,2.74 11,4 2.39,-0.616 4.556,-0.616 6.5,0 0.978,0.477 1.811,1.143 2.5,2 0.333,-0.667 0.667,-1.333 1,-2 0.991,1.439 2.324,2.439 4,3 1.5,3.667 3,7.333 4.5,11 -1,1.667 -2,3.333 -3,5 3.075,3.445 2.408,5.445 -2,6 -0.182,2.175 -0.849,4.175 -2,6 0.725,1.367 1.392,2.7 2,4 z"
         id="path86" />
    </g>
    <g
       id="g90"
       style="clip-rule:evenodd;fill-rule:evenodd;image-rendering:optimizeQuality;shape-rendering:geometricPrecision;text-rendering:geometricPrecision"
       transform="matrix(0.33829965,0,0,0.33829965,-252.82929,-8.5855706)">
      <path
         style="opacity:1"
         fill="#faf5f4"
         d="m 936.5,107.5 c 0,-3.667 0,-7.333 0,-11 -0.324,-4.0546 0.009,-8.0546 1,-12 1.216,0.5016 2.383,0.8349 3.5,1 0.5,12.3288 0.667,24.662 0.5,37 -1.667,0 -3.333,0 -5,0 1.119,-5.153 1.119,-10.153 0,-15 z"
         id="path90" />
    </g>
    <g
       id="g91"
       style="clip-rule:evenodd;fill-rule:evenodd;image-rendering:optimizeQuality;shape-rendering:geometricPrecision;text-rendering:geometricPrecision"
       transform="matrix(0.33829965,0,0,0.33829965,-252.82929,-8.5855706)">
      <path
         style="opacity:1"
         fill="#f2d3d4"
         d="m 856.5,64.5 c -4.241,6.6341 -7.741,13.6341 -10.5,21 -0.832,8.6858 -0.665,17.353 0.5,26 6.686,-2.281 13.186,-4.614 19.5,-7 0.333,0.333 0.667,0.667 1,1 21.153,-3.2 41.986,-1.867 62.5,4 -0.067,1.459 0.266,2.792 1,4 -16.674,-6.668 -34.007,-9.335 -52,-8 -4.29,-0.302 -8.29,0.364 -12,2 -7.779,1.445 -15.113,4.111 -22,8 -0.166,-10.339 0,-20.672 0.5,-31 1.352,-3.2201 2.186,-6.5534 2.5,-10 1.605,-4.6045 4.605,-7.9378 9,-10 z"
         id="path91" />
    </g>
    <g
       id="g92"
       style="clip-rule:evenodd;fill-rule:evenodd;image-rendering:optimizeQuality;shape-rendering:geometricPrecision;text-rendering:geometricPrecision"
       transform="matrix(0.33829965,0,0,0.33829965,-252.82929,-8.5855706)">
      <path
         style="opacity:1"
         fill="#c8898c"
         d="m 878.5,105.5 c -3.795,1.117 -7.795,1.783 -12,2 3.71,-1.636 7.71,-2.302 12,-2 z"
         id="path92" />
    </g>
    <g
       id="g94"
       style="clip-rule:evenodd;fill-rule:evenodd;image-rendering:optimizeQuality;shape-rendering:geometricPrecision;text-rendering:geometricPrecision"
       transform="matrix(0.33829965,0,0,0.33829965,-252.82929,-8.5855706)">
      <path
         style="opacity:1"
         fill="#a22227"
         d="m 929.5,134.5 c -0.333,1.333 -0.667,2.667 -1,4 -1.693,0.975 -3.193,2.308 -4.5,4 -0.374,1.991 -1.207,3.658 -2.5,5 -0.608,-1.3 -1.275,-2.633 -2,-4 1.151,-1.825 1.818,-3.825 2,-6 4.408,-0.555 5.075,-2.555 2,-6 1,-1.667 2,-3.333 3,-5 -1.5,-3.667 -3,-7.333 -4.5,-11 -1.676,-0.561 -3.009,-1.561 -4,-3 -0.333,0.667 -0.667,1.333 -1,2 -0.689,-0.857 -1.522,-1.523 -2.5,-2 -1.944,-0.616 -4.11,-0.616 -6.5,0 -3.709,-1.26 -7.376,-2.594 -11,-4 -0.604,2.186 -1.77,2.352 -3.5,0.5 -11.412,-0.551 -22.412,1.283 -33,5.5 -1.083,0.865 -1.249,1.865 -0.5,3 2.772,-0.079 5.438,-0.413 8,-1 0.833,1.5 2,2.667 3.5,3.5 -1.146,0.645 -2.146,1.478 -3,2.5 -0.743,-1.408 -1.577,-2.741 -2.5,-4 -0.935,4.574 -2.435,4.907 -4.5,1 -0.333,0.667 -0.667,1.333 -1,2 -0.667,-0.667 -1.333,-1.333 -2,-2 -2.245,0.493 -4.578,1.66 -7,3.5 1.016,0.519 1.682,1.353 2,2.5 -0.669,2.528 -1.502,2.528 -2.5,0 -0.497,2.646 -0.664,5.313 -0.5,8 -0.617,-0.111 -1.117,-0.444 -1.5,-1 -1.372,-4.449 -2.539,-8.949 -3.5,-13.5 0.259,-1.261 0.926,-2.261 2,-3 2.877,-0.956 5.544,-2.289 8,-4 25.045,-6.832 49.711,-5.832 74,3 1.814,0.92 2.814,2.42 3,4.5 -1.462,4.895 -2.462,9.895 -3,15 z"
         id="path94" />
    </g>
    <g
       id="g95"
       style="clip-rule:evenodd;fill-rule:evenodd;image-rendering:optimizeQuality;shape-rendering:geometricPrecision;text-rendering:geometricPrecision"
       transform="matrix(0.33829965,0,0,0.33829965,-252.82929,-8.5855706)">
      <path
         style="opacity:1"
         fill="#aa8788"
         d="m 934.5,82.5 c 0.333,0 0.667,0 1,0 -0.319,4.8633 0.014,9.53 1,14 0,3.667 0,7.333 0,11 0.313,3.542 -0.021,6.875 -1,10 -1.327,-1.682 -2.994,-3.015 -5,-4 1,0 2,0 3,0 0,-7.333 0,-14.6667 0,-22 0,-1.6667 0,-3.3333 0,-5 0.934,-1.0676 1.268,-2.401 1,-4 z"
         id="path95" />
    </g>
    <g
       id="g101"
       style="clip-rule:evenodd;fill-rule:evenodd;image-rendering:optimizeQuality;shape-rendering:geometricPrecision;text-rendering:geometricPrecision"
       transform="matrix(0.33829965,0,0,0.33829965,-252.82929,-8.5855706)">
      <path
         style="opacity:1"
         fill="#f5dadc"
         d="m 938.5,72.5 c 1.173,3.6733 2.507,7.3399 4,11 -0.237,1.291 0.096,2.291 1,3 0,0.6667 0,1.3333 0,2 0,12 0,24 0,36 -2.333,0 -4.667,0 -7,0 -1.201,7.137 -2.868,14.137 -5,21 -0.838,0.342 -1.172,1.008 -1,2 -2,4 -4,8 -6,12 0.116,-3.36 0.449,-6.693 1,-10 1.152,-3.607 2.152,-7.273 3,-11 0.333,-1.333 0.667,-2.667 1,-4 2.372,-5.446 4.372,-11.112 6,-17 0.979,-3.125 1.313,-6.458 1,-10 1.119,4.847 1.119,9.847 0,15 1.667,0 3.333,0 5,0 0.167,-12.338 0,-24.6712 -0.5,-37 -1.117,-0.1651 -2.284,-0.4984 -3.5,-1 -0.991,3.9454 -1.324,7.9454 -1,12 -0.986,-4.47 -1.319,-9.1367 -1,-14 0.445,-3.5911 1.445,-6.9244 3,-10 z"
         id="path101" />
    </g>
    <g
       id="g104"
       style="clip-rule:evenodd;fill-rule:evenodd;image-rendering:optimizeQuality;shape-rendering:geometricPrecision;text-rendering:geometricPrecision"
       transform="matrix(0.33829965,0,0,0.33829965,-252.82929,-8.5855706)">
      <path
         style="opacity:1"
         fill="#8f4446"
         d="m 943.5,74.5 c 1.923,4.6995 3.09,9.6995 3.5,15 0.752,10.852 0.586,21.685 -0.5,32.5 -0.45,2.626 0.55,4.126 3,4.5 2.354,1.688 4.354,3.688 6,6 -1.291,-0.237 -2.291,0.096 -3,1 -0.333,0 -0.667,0 -1,0 -1.302,-2.322 -3.302,-3.655 -6,-4 -1.602,-1.574 -3.602,-2.241 -6,-2 0,2 0,4 0,6 -0.722,-0.418 -1.222,-1.084 -1.5,-2 -1.92,4.837 -4.087,9.503 -6.5,14 2.132,-6.863 3.799,-13.863 5,-21 2.333,0 4.667,0 7,0 0,-12 0,-24 0,-36 0.831,12.16 1.331,24.493 1.5,37 1.927,-13.346 1.927,-26.6797 0,-40 -1.107,-1.2119 -1.607,-0.8786 -1.5,1 -0.904,-0.709 -1.237,-1.709 -1,-3 0.977,-2.7869 1.31,-5.7869 1,-9 z"
         id="path104" />
    </g>
    <g
       id="g107"
       style="clip-rule:evenodd;fill-rule:evenodd;image-rendering:optimizeQuality;shape-rendering:geometricPrecision;text-rendering:geometricPrecision"
       transform="matrix(0.33829965,0,0,0.33829965,-252.82929,-8.5855706)">
      <path
         style="opacity:1"
         fill="#924346"
         d="m 831.5,116.5 c 0.666,3.189 1.333,6.523 2,10 0.607,-0.124 0.94,-0.457 1,-1 2.333,-0.667 4.667,-1.333 7,-2 1.847,8.386 3.847,16.719 6,25 -0.997,0.03 -1.664,-0.47 -2,-1.5 -1.116,-4.681 -2.616,-9.181 -4.5,-13.5 -0.667,-1.333 -1.333,-1.333 -2,0 -0.483,0.948 -0.649,1.948 -0.5,3 -0.996,-0.086 -1.829,0.248 -2.5,1 -0.5,6.992 -0.666,13.992 -0.5,21 0.33,20.174 -0.003,40.174 -1,60 0.167,-27.002 0,-54.002 -0.5,-81 -1.356,-0.88 -2.856,-1.214 -4.5,-1 2.292,-1.767 4.958,-2.767 8,-3 0,-2 0,-4 0,-6 -4.446,0.806 -8.279,2.806 -11.5,6 -0.49,1.293 -0.657,2.627 -0.5,4 -0.768,-0.763 -1.268,-1.763 -1.5,-3 -1.319,1.75 -1.819,3.75 -1.5,6 -0.333,0 -0.667,0 -1,0 -0.713,-7.455 2.454,-12.455 9.5,-15 0.498,-2.982 0.665,-5.982 0.5,-9 z"
         id="path107" />
    </g>
    <g
       id="g108"
       style="clip-rule:evenodd;fill-rule:evenodd;image-rendering:optimizeQuality;shape-rendering:geometricPrecision;text-rendering:geometricPrecision"
       transform="matrix(0.33829965,0,0,0.33829965,-252.82929,-8.5855706)">
      <path
         style="opacity:1"
         fill="#f6ddde"
         d="m 829.5,136.5 c -1.333,0.333 -2.667,0.667 -4,1 -0.157,-1.373 0.01,-2.707 0.5,-4 3.221,-3.194 7.054,-5.194 11.5,-6 0,2 0,4 0,6 -3.042,0.233 -5.708,1.233 -8,3 z"
         id="path108" />
    </g>
    <g
       id="g110"
       style="clip-rule:evenodd;fill-rule:evenodd;image-rendering:optimizeQuality;shape-rendering:geometricPrecision;text-rendering:geometricPrecision"
       transform="matrix(0.33829965,0,0,0.33829965,-252.82929,-8.5855706)">
      <path
         style="opacity:1"
         fill="#f9eaeb"
         d="m 945.5,129.5 c 2.698,0.345 4.698,1.678 6,4 0.03,0.997 -0.47,1.664 -1.5,2 -1.927,-1.361 -4.094,-2.194 -6.5,-2.5 -2.694,-2.552 -2.027,-3.719 2,-3.5 z"
         id="path110" />
    </g>
    <g
       id="g111"
       style="clip-rule:evenodd;fill-rule:evenodd;image-rendering:optimizeQuality;shape-rendering:geometricPrecision;text-rendering:geometricPrecision"
       transform="matrix(0.33829965,0,0,0.33829965,-252.82929,-8.5855706)">
      <path
         style="opacity:1"
         fill="#eabcbd"
         d="m 945.5,129.5 c -4.027,-0.219 -4.694,0.948 -2,3.5 2.406,0.306 4.573,1.139 6.5,2.5 1.03,-0.336 1.53,-1.003 1.5,-2 0.333,0 0.667,0 1,0 0.734,1.208 1.067,2.541 1,4 -4.736,-1.135 -9.403,-2.468 -14,-4 0,-2 0,-4 0,-6 2.398,-0.241 4.398,0.426 6,2 z"
         id="path111" />
    </g>
    <g
       id="g120"
       style="clip-rule:evenodd;fill-rule:evenodd;image-rendering:optimizeQuality;shape-rendering:geometricPrecision;text-rendering:geometricPrecision"
       transform="matrix(0.33829965,0,0,0.33829965,-252.82929,-8.5855706)">
      <path
         style="opacity:1"
         fill="#9a4445"
         d="m 852.5,146.5 c 0.765,1.16 1.765,2.16 3,3 6.546,-1.776 13.213,-2.776 20,-3 8.849,-0.326 17.516,0.007 26,1 -10.672,-0.167 -21.339,0 -32,0.5 -4.584,1.363 -9.251,2.197 -14,2.5 -0.667,0.667 -1.333,1.333 -2,2 -0.333,-2 -0.667,-4 -1,-6 z"
         id="path120" />
    </g>
    <g
       id="g121"
       style="clip-rule:evenodd;fill-rule:evenodd;image-rendering:optimizeQuality;shape-rendering:geometricPrecision;text-rendering:geometricPrecision"
       transform="matrix(0.33829965,0,0,0.33829965,-252.82929,-8.5855706)">
      <path
         style="opacity:1"
         fill="#91292d"
         d="m 928.5,138.5 c -0.848,3.727 -1.848,7.393 -3,11 -0.722,0.418 -1.222,1.084 -1.5,2 -0.383,-0.556 -0.883,-0.889 -1.5,-1 -2,-0.333 -4,-0.667 -6,-1 -5.037,-0.408 -10.037,-1.074 -15,-2 -8.484,-0.993 -17.151,-1.326 -26,-1 15.218,-1.349 30.551,-1.016 46,1 1.293,-1.342 2.126,-3.009 2.5,-5 1.307,-1.692 2.807,-3.025 4.5,-4 z"
         id="path121" />
    </g>
    <g
       id="g122"
       style="clip-rule:evenodd;fill-rule:evenodd;image-rendering:optimizeQuality;shape-rendering:geometricPrecision;text-rendering:geometricPrecision"
       transform="matrix(0.33829965,0,0,0.33829965,-252.82929,-8.5855706)">
      <path
         style="opacity:1"
         fill="#faf9f9"
         d="m 919.5,226.5 c 0,0.333 0,0.667 0,1 -0.991,6.813 -1.325,13.813 -1,21 -7.605,-0.509 -15.105,-1.509 -22.5,-3 -5.276,0.276 -10.609,0.276 -16,0 -6.36,1.865 -12.86,2.699 -19.5,2.5 -0.654,-8.598 -1.32,-17.098 -2,-25.5 0.151,-23.343 -0.182,-46.676 -1,-70 3.483,0.584 6.483,-0.249 9,-2.5 9.678,0.502 19.344,0.335 29,-0.5 3.333,0.167 6.667,0.333 10,0.5 5.012,1.286 10.012,2.452 15,3.5 0.166,8.673 0,17.34 -0.5,26 -0.273,1.601 -0.773,3.101 -1.5,4.5 0.99,14.088 1.324,28.255 1,42.5 z"
         id="path122" />
    </g>
    <g
       id="g125"
       style="clip-rule:evenodd;fill-rule:evenodd;image-rendering:optimizeQuality;shape-rendering:geometricPrecision;text-rendering:geometricPrecision"
       transform="matrix(0.33829965,0,0,0.33829965,-252.82929,-8.5855706)">
      <path
         style="opacity:1"
         fill="#f2b8bc"
         d="m 838.5,136.5 c 0,0.333 0,0.667 0,1 0,11 0,22 0,33 -0.826,-4.482 -1.326,-9.149 -1.5,-14 -0.278,0.916 -0.778,1.582 -1.5,2 -0.166,-7.008 0,-14.008 0.5,-21 0.671,-0.752 1.504,-1.086 2.5,-1 z"
         id="path125" />
    </g>
    <g
       id="g126"
       style="clip-rule:evenodd;fill-rule:evenodd;image-rendering:optimizeQuality;shape-rendering:geometricPrecision;text-rendering:geometricPrecision"
       transform="matrix(0.33829965,0,0,0.33829965,-252.82929,-8.5855706)">
      <path
         style="opacity:1"
         fill="#e5b6b9"
         d="m 940.5,136.5 c 0.996,-0.086 1.829,0.248 2.5,1 0.278,32.671 0.778,65.338 1.5,98 -0.072,8.028 -0.572,16.028 -1.5,24 -0.21,1.558 -0.71,2.891 -1.5,4 0.707,-8.826 1.374,-17.659 2,-26.5 -0.072,-3.883 -0.405,-7.717 -1,-11.5 -0.774,-16.309 -1.274,-32.642 -1.5,-49 -0.02,15.538 -0.853,30.871 -2.5,46 -0.176,-28.009 0.157,-56.009 1,-84 -0.172,-0.992 0.162,-1.658 1,-2 z"
         id="path126" />
    </g>
    <g
       id="g127"
       style="clip-rule:evenodd;fill-rule:evenodd;image-rendering:optimizeQuality;shape-rendering:geometricPrecision;text-rendering:geometricPrecision"
       transform="matrix(0.33829965,0,0,0.33829965,-252.82929,-8.5855706)">
      <path
         style="opacity:1"
         fill="#efd7d8"
         d="m 901.5,147.5 c 4.963,0.926 9.963,1.592 15,2 1.28,1.431 2.947,2.098 5,2 0,9.333 0,18.667 0,28 0.38,15.868 -0.287,31.535 -2,47 0.324,-14.245 -0.01,-28.412 -1,-42.5 0.727,-1.399 1.227,-2.899 1.5,-4.5 0.5,-8.66 0.666,-17.327 0.5,-26 -4.988,-1.048 -9.988,-2.214 -15,-3.5 -3.333,-0.167 -6.667,-0.333 -10,-0.5 -9.656,0.835 -19.322,1.002 -29,0.5 -2.517,2.251 -5.517,3.084 -9,2.5 0.818,23.324 1.151,46.657 1,70 -0.961,-1.765 -1.295,-3.765 -1,-6 0.328,-11.512 -0.005,-22.846 -1,-34 -0.777,-10.648 -1.11,-21.315 -1,-32 4.749,-0.303 9.416,-1.137 14,-2.5 10.661,-0.5 21.328,-0.667 32,-0.5 z"
         id="path127" />
    </g>
    <g
       id="g128"
       style="clip-rule:evenodd;fill-rule:evenodd;image-rendering:optimizeQuality;shape-rendering:geometricPrecision;text-rendering:geometricPrecision"
       transform="matrix(0.33829965,0,0,0.33829965,-252.82929,-8.5855706)">
      <path
         style="opacity:1"
         fill="#d3adae"
         d="m 916.5,149.5 c 2,0.333 4,0.667 6,1 0.327,9.848 -0.006,19.514 -1,29 0,-9.333 0,-18.667 0,-28 -2.053,0.098 -3.72,-0.569 -5,-2 z"
         id="path128" />
    </g>
    <g
       id="g129"
       style="clip-rule:evenodd;fill-rule:evenodd;image-rendering:optimizeQuality;shape-rendering:geometricPrecision;text-rendering:geometricPrecision"
       transform="matrix(0.33829965,0,0,0.33829965,-252.82929,-8.5855706)">
      <path
         style="opacity:1"
         fill="#f3d2d4"
         d="m 836.5,83.5 c -0.905,10.6545 -1.072,21.321 -0.5,32 0.667,2 1.333,4 2,6 0.667,-0.667 1.333,-1.333 2,-2 0.174,-4.851 0.674,-9.518 1.5,-14 -0.317,4.202 0.017,8.202 1,12 3.203,9.863 6.536,19.53 10,29 0.333,2 0.667,4 1,6 0.967,18.983 1.634,37.983 2,57 -0.326,8.517 0.007,16.85 1,25 0.321,5.526 -0.012,10.86 -1,16 0,-4.333 0,-8.667 0,-13 -1.459,-0.067 -2.792,0.266 -4,1 0.571,-5.974 0.904,-11.974 1,-18 -0.355,-21.523 -1.355,-42.857 -3,-64 0.206,-2.995 -0.46,-5.662 -2,-8 -2.153,-8.281 -4.153,-16.614 -6,-25 -2.333,0.667 -4.667,1.333 -7,2 -0.167,-11.671 0,-23.338 0.5,-35 0.186,-2.5356 0.686,-4.869 1.5,-7 z"
         id="path129" />
    </g>
    <g
       id="g130"
       style="clip-rule:evenodd;fill-rule:evenodd;image-rendering:optimizeQuality;shape-rendering:geometricPrecision;text-rendering:geometricPrecision"
       transform="matrix(0.33829965,0,0,0.33829965,-252.82929,-8.5855706)">
      <path
         style="opacity:1"
         fill="#a02627"
         d="m 847.5,148.5 c 1.54,2.338 2.206,5.005 2,8 -0.24,23.177 0.093,46.343 1,69.5 0.373,6.646 -0.961,12.813 -4,18.5 -1,0 -2,0 -3,0 0.07,-3.925 -0.597,-7.591 -2,-11 0,-0.667 0,-1.333 0,-2 -0.719,-29.659 -1.219,-59.325 -1.5,-89 -0.198,-1.882 -0.698,-3.548 -1.5,-5 0,-0.333 0,-0.667 0,-1 -0.149,-1.052 0.017,-2.052 0.5,-3 0.667,-1.333 1.333,-1.333 2,0 1.884,4.319 3.384,8.819 4.5,13.5 0.336,1.03 1.003,1.53 2,1.5 z"
         id="path130" />
    </g>
    <g
       id="g132"
       style="clip-rule:evenodd;fill-rule:evenodd;image-rendering:optimizeQuality;shape-rendering:geometricPrecision;text-rendering:geometricPrecision"
       transform="matrix(0.33829965,0,0,0.33829965,-252.82929,-8.5855706)">
      <path
         style="opacity:1"
         fill="#ecbdbf"
         d="m 831.5,140.5 c 0.331,26.839 -0.002,53.505 -1,80 0.333,-26.342 0,-52.675 -1,-79 -2.143,1.254 -4.143,1.254 -6,0 2.437,-0.256 4.771,-0.923 7,-2 0.607,0.124 0.94,0.457 1,1 z"
         id="path132" />
    </g>
    <g
       id="g133"
       style="clip-rule:evenodd;fill-rule:evenodd;image-rendering:optimizeQuality;shape-rendering:geometricPrecision;text-rendering:geometricPrecision"
       transform="matrix(0.33829965,0,0,0.33829965,-252.82929,-8.5855706)">
      <path
         style="opacity:1"
         fill="#88292a"
         d="m 838.5,137.5 c 0.802,1.452 1.302,3.118 1.5,5 0.281,29.675 0.781,59.341 1.5,89 -0.667,-3.667 -1.333,-7.333 -2,-11 0.33,-16.842 -0.003,-33.508 -1,-50 0,-11 0,-22 0,-33 z"
         id="path133" />
    </g>
    <g
       id="g134"
       style="clip-rule:evenodd;fill-rule:evenodd;image-rendering:optimizeQuality;shape-rendering:geometricPrecision;text-rendering:geometricPrecision"
       transform="matrix(0.33829965,0,0,0.33829965,-252.82929,-8.5855706)">
      <path
         style="opacity:1"
         fill="#9e2a2c"
         d="m 939.5,133.5 c 0.057,1.109 0.39,2.109 1,3 -0.838,0.342 -1.172,1.008 -1,2 -0.617,0.111 -1.117,0.444 -1.5,1 -0.785,33.347 -1.785,66.68 -3,100 -0.186,2.4 -0.686,4.734 -1.5,7 -2.021,-2.735 -4.021,-5.401 -6,-8 -0.333,0 -0.667,0 -1,0 -0.244,-27.681 0.256,-55.348 1.5,-83 1.341,-2.522 2.174,-5.189 2.5,-8 -0.172,-0.992 0.162,-1.658 1,-2 2.413,-4.497 4.58,-9.163 6.5,-14 0.278,0.916 0.778,1.582 1.5,2 z"
         id="path134" />
    </g>
    <g
       id="g136"
       style="clip-rule:evenodd;fill-rule:evenodd;image-rendering:optimizeQuality;shape-rendering:geometricPrecision;text-rendering:geometricPrecision"
       transform="matrix(0.33829965,0,0,0.33829965,-252.82929,-8.5855706)">
      <path
         style="opacity:1"
         fill="#eabdbe"
         d="m 930.5,147.5 c -0.326,2.811 -1.159,5.478 -2.5,8 -1.244,27.652 -1.744,55.319 -1.5,83 -0.832,-17.495 -1.332,-35.162 -1.5,-53 -0.191,2.208 -0.691,4.208 -1.5,6 -0.309,-10.748 0.024,-21.415 1,-32 2,-4 4,-8 6,-12 z"
         id="path136" />
    </g>
    <g
       id="g141"
       style="clip-rule:evenodd;fill-rule:evenodd;image-rendering:optimizeQuality;shape-rendering:geometricPrecision;text-rendering:geometricPrecision"
       transform="matrix(0.33829965,0,0,0.33829965,-252.82929,-8.5855706)">
      <path
         style="opacity:1"
         fill="#701e20"
         d="m 825.5,137.5 c 1.333,-0.333 2.667,-0.667 4,-1 1.644,-0.214 3.144,0.12 4.5,1 0.5,26.998 0.667,53.998 0.5,81 -0.493,2.306 -0.826,4.639 -1,7 -0.667,-28.333 -1.333,-56.667 -2,-85 -0.06,-0.543 -0.393,-0.876 -1,-1 -2.229,1.077 -4.563,1.744 -7,2 -0.667,0 -1,-0.333 -1,-1 -0.319,-2.25 0.181,-4.25 1.5,-6 0.232,1.237 0.732,2.237 1.5,3 z"
         id="path141" />
    </g>
    <g
       id="g143"
       style="clip-rule:evenodd;fill-rule:evenodd;image-rendering:optimizeQuality;shape-rendering:geometricPrecision;text-rendering:geometricPrecision"
       transform="matrix(0.33829965,0,0,0.33829965,-252.82929,-8.5855706)">
      <path
         style="opacity:1"
         fill="#dca1a2"
         d="m 949.5,140.5 c -1.991,25.979 -2.658,52.312 -2,79 -0.998,-26.495 -1.331,-53.161 -1,-80 1.291,-0.237 2.291,0.096 3,1 z"
         id="path143" />
    </g>
    <g
       id="g164"
       style="clip-rule:evenodd;fill-rule:evenodd;image-rendering:optimizeQuality;shape-rendering:geometricPrecision;text-rendering:geometricPrecision"
       transform="matrix(0.33829965,0,0,0.33829965,-252.82929,-8.5855706)">
      <path
         style="opacity:1"
         fill="#7a4f52"
         d="m 855.5,150.5 c -0.11,10.685 0.223,21.352 1,32 0.327,9.182 -0.007,18.182 -1,27 -0.366,-19.017 -1.033,-38.017 -2,-57 0.667,-0.667 1.333,-1.333 2,-2 z"
         id="path164" />
    </g>
    <g
       id="g167"
       style="clip-rule:evenodd;fill-rule:evenodd;image-rendering:optimizeQuality;shape-rendering:geometricPrecision;text-rendering:geometricPrecision"
       transform="matrix(0.33829965,0,0,0.33829965,-252.82929,-8.5855706)">
      <path
         style="opacity:1"
         fill="#a07a7f"
         d="m 856.5,182.5 c 0.995,11.154 1.328,22.488 1,34 -0.99,5.81 -1.323,11.81 -1,18 -0.993,-8.15 -1.326,-16.483 -1,-25 0.993,-8.818 1.327,-17.818 1,-27 z"
         id="path167" />
    </g>
    <g
       id="g170"
       style="clip-rule:evenodd;fill-rule:evenodd;image-rendering:optimizeQuality;shape-rendering:geometricPrecision;text-rendering:geometricPrecision"
       transform="matrix(0.33829965,0,0,0.33829965,-252.82929,-8.5855706)">
      <path
         style="opacity:1"
         fill="#f2d3d4"
         d="m 838.5,170.5 c 0.997,16.492 1.33,33.158 1,50 0,2.667 0,5.333 0,8 -1.29,-0.558 -2.123,-1.558 -2.5,-3 -1.505,1.798 -1.672,3.632 -0.5,5.5 -1.233,7.067 -1.9,14.233 -2,21.5 -0.993,-8.818 -1.327,-17.818 -1,-27 0.174,-2.361 0.507,-4.694 1,-7 0.997,-19.826 1.33,-39.826 1,-60 0.722,-0.418 1.222,-1.084 1.5,-2 0.174,4.851 0.674,9.518 1.5,14 z"
         id="path170" />
    </g>
    <g
       id="g171"
       style="clip-rule:evenodd;fill-rule:evenodd;image-rendering:optimizeQuality;shape-rendering:geometricPrecision;text-rendering:geometricPrecision"
       transform="matrix(0.33829965,0,0,0.33829965,-252.82929,-8.5855706)">
      <path
         style="opacity:1"
         fill="#8b5f62"
         d="m 925.5,149.5 c -0.551,3.307 -0.884,6.64 -1,10 -0.976,10.585 -1.309,21.252 -1,32 -0.323,18.349 -0.99,36.682 -2,55 0.117,2.55 1.117,4.55 3,6 -0.667,0 -1,0.333 -1,1 -5.509,-1.623 -11.176,-2.29 -17,-2 -12,-0.667 -24,-1.333 -36,-2 16.266,-0.96 32.599,-0.96 49,0 0,-7.333 0,-14.667 0,-22 0,-0.333 0,-0.667 0,-1 1.713,-15.465 2.38,-31.132 2,-47 0.994,-9.486 1.327,-19.152 1,-29 0.617,0.111 1.117,0.444 1.5,1 0.278,-0.916 0.778,-1.582 1.5,-2 z"
         id="path171" />
    </g>
    <g
       id="g174"
       style="clip-rule:evenodd;fill-rule:evenodd;image-rendering:optimizeQuality;shape-rendering:geometricPrecision;text-rendering:geometricPrecision"
       transform="matrix(0.33829965,0,0,0.33829965,-252.82929,-8.5855706)">
      <path
         style="opacity:1"
         fill="#842d2d"
         d="m 955.5,132.5 c 1.275,2.896 1.275,5.896 0,9 -2.121,0.175 -4.121,-0.159 -6,-1 -0.709,-0.904 -1.709,-1.237 -3,-1 -0.331,26.839 0.002,53.505 1,80 0.167,12.671 0,25.338 -0.5,38 -1.082,6.164 -2.749,12.164 -5,18 -0.792,2.606 -2.292,4.606 -4.5,6 1.551,-3.119 2.551,-6.452 3,-10 -1.822,-0.331 -3.489,-0.998 -5,-2 1.41,-1.328 2.576,-0.995 3.5,1 1.903,-1.941 2.736,-4.274 2.5,-7 0.79,-1.109 1.29,-2.442 1.5,-4 0.928,-7.972 1.428,-15.972 1.5,-24 -0.722,-32.662 -1.222,-65.329 -1.5,-98 -0.671,-0.752 -1.504,-1.086 -2.5,-1 -0.61,-0.891 -0.943,-1.891 -1,-3 4.597,1.532 9.264,2.865 14,4 0.067,-1.459 -0.266,-2.792 -1,-4 0.709,-0.904 1.709,-1.237 3,-1 z"
         id="path174" />
    </g>
    <g
       id="g178"
       style="clip-rule:evenodd;fill-rule:evenodd;image-rendering:optimizeQuality;shape-rendering:geometricPrecision;text-rendering:geometricPrecision"
       transform="matrix(0.33829965,0,0,0.33829965,-252.82929,-8.5855706)">
      <path
         style="opacity:1"
         fill="#8d3634"
         d="m 849.5,156.5 c 1.645,21.143 2.645,42.477 3,64 -0.096,6.026 -0.429,12.026 -1,18 -1.917,3.217 -3.751,6.551 -5.5,10 -1.11,1.537 -2.61,2.203 -4.5,2 0,-5.667 0,-11.333 0,-17 1.403,3.409 2.07,7.075 2,11 1,0 2,0 3,0 3.039,-5.687 4.373,-11.854 4,-18.5 -0.907,-23.157 -1.24,-46.323 -1,-69.5 z"
         id="path178" />
    </g>
    <g
       id="g183"
       style="clip-rule:evenodd;fill-rule:evenodd;image-rendering:optimizeQuality;shape-rendering:geometricPrecision;text-rendering:geometricPrecision"
       transform="matrix(0.33829965,0,0,0.33829965,-252.82929,-8.5855706)">
      <path
         style="opacity:1"
         fill="#ebbcbf"
         d="m 839.5,220.5 c 0.667,3.667 1.333,7.333 2,11 0,0.667 0,1.333 0,2 0,5.667 0,11.333 0,17 -1.428,-7.12 -2.094,-14.453 -2,-22 0,-2.667 0,-5.333 0,-8 z"
         id="path183" />
    </g>
    <g
       id="g184"
       style="clip-rule:evenodd;fill-rule:evenodd;image-rendering:optimizeQuality;shape-rendering:geometricPrecision;text-rendering:geometricPrecision"
       transform="matrix(0.33829965,0,0,0.33829965,-252.82929,-8.5855706)">
      <path
         style="opacity:1"
         fill="#ecc8ca"
         d="m 830.5,227.5 c -0.371,12.073 0.296,24.073 2,36 -2.04,-3.632 -3.207,-7.632 -3.5,-12 -0.667,-7.667 -0.667,-15.333 0,-23 0.383,-0.556 0.883,-0.889 1.5,-1 z"
         id="path184" />
    </g>
    <g
       id="g185"
       style="clip-rule:evenodd;fill-rule:evenodd;image-rendering:optimizeQuality;shape-rendering:geometricPrecision;text-rendering:geometricPrecision"
       transform="matrix(0.33829965,0,0,0.33829965,-252.82929,-8.5855706)">
      <path
         style="opacity:1"
         fill="#987275"
         d="m 857.5,216.5 c -0.295,2.235 0.039,4.235 1,6 0,9 0,18 0,27 4,0 8,0 12,0 12,0.667 24,1.333 36,2 -16.509,-0.33 -32.842,0.004 -49,1 -1.548,0.321 -2.215,1.321 -2,3 -0.667,-1 -1.333,-2 -2,-3 0.333,-1 1,-1.667 2,-2 0.988,-5.14 1.321,-10.474 1,-16 -0.323,-6.19 0.01,-12.19 1,-18 z"
         id="path185" />
    </g>
    <g
       id="g188"
       style="clip-rule:evenodd;fill-rule:evenodd;image-rendering:optimizeQuality;shape-rendering:geometricPrecision;text-rendering:geometricPrecision"
       transform="matrix(0.33829965,0,0,0.33829965,-252.82929,-8.5855706)">
      <path
         style="opacity:1"
         fill="#85282b"
         d="m 939.5,138.5 c -0.843,27.991 -1.176,55.991 -1,84 -1.625,9.249 -2.292,18.582 -2,28 -1.89,0.203 -3.39,-0.463 -4.5,-2 -1.786,-3.236 -3.286,-6.57 -4.5,-10 1.979,2.599 3.979,5.265 6,8 0.814,-2.266 1.314,-4.6 1.5,-7 1.215,-33.32 2.215,-66.653 3,-100 0.383,-0.556 0.883,-0.889 1.5,-1 z"
         id="path188" />
    </g>
    <g
       id="g189"
       style="clip-rule:evenodd;fill-rule:evenodd;image-rendering:optimizeQuality;shape-rendering:geometricPrecision;text-rendering:geometricPrecision"
       transform="matrix(0.33829965,0,0,0.33829965,-252.82929,-8.5855706)">
      <path
         style="opacity:1"
         fill="#f6e3e4"
         d="m 858.5,222.5 c 0.68,8.402 1.346,16.902 2,25.5 6.64,0.199 13.14,-0.635 19.5,-2.5 5.391,0.276 10.724,0.276 16,0 7.395,1.491 14.895,2.491 22.5,3 -0.325,-7.187 0.009,-14.187 1,-21 0,7.333 0,14.667 0,22 -16.401,-0.96 -32.734,-0.96 -49,0 -4,0 -8,0 -12,0 0,-9 0,-18 0,-27 z"
         id="path189" />
    </g>
    <g
       id="g190"
       style="clip-rule:evenodd;fill-rule:evenodd;image-rendering:optimizeQuality;shape-rendering:geometricPrecision;text-rendering:geometricPrecision"
       transform="matrix(0.33829965,0,0,0.33829965,-252.82929,-8.5855706)">
      <path
         style="opacity:1"
         fill="#f6ddde"
         d="m 942.5,225.5 c -1.624,-0.14 -2.79,0.527 -3.5,2 -0.807,5.916 -0.641,11.75 0.5,17.5 -0.727,2.124 -1.394,4.291 -2,6.5 -4.339,1.583 -7.506,0.25 -9.5,-4 -0.374,0.916 -0.874,1.75 -1.5,2.5 1.188,4.211 2.522,8.377 4,12.5 -0.667,0 -1.333,0 -2,0 -1.03,-3.45 -2.363,-6.783 -4,-10 -1.883,-1.45 -2.883,-3.45 -3,-6 1.01,-18.318 1.677,-36.651 2,-55 0.809,-1.792 1.309,-3.792 1.5,-6 0.168,17.838 0.668,35.505 1.5,53 0.333,0 0.667,0 1,0 1.214,3.43 2.714,6.764 4.5,10 1.11,1.537 2.61,2.203 4.5,2 -0.292,-9.418 0.375,-18.751 2,-28 1.647,-15.129 2.48,-30.462 2.5,-46 0.226,16.358 0.726,32.691 1.5,49 z"
         id="path190" />
    </g>
    <g
       id="g191"
       style="clip-rule:evenodd;fill-rule:evenodd;image-rendering:optimizeQuality;shape-rendering:geometricPrecision;text-rendering:geometricPrecision"
       transform="matrix(0.33829965,0,0,0.33829965,-252.82929,-8.5855706)">
      <path
         style="opacity:1"
         fill="#f9f2f2"
         d="m 839.5,228.5 c -0.094,7.547 0.572,14.88 2,22 1.89,0.203 3.39,-0.463 4.5,-2 1.749,-3.449 3.583,-6.783 5.5,-10 1.208,-0.734 2.541,-1.067 4,-1 0,4.333 0,8.667 0,13 -1,0.333 -1.667,1 -2,2 -0.667,1.667 -1.333,3.333 -2,5 -1.777,3.005 -2.777,6.338 -3,10 -1.364,3.861 -3.031,3.861 -5,0 -2.363,-0.67 -4.696,-1.337 -7,-2 -1.085,-4.26 -1.752,-8.594 -2,-13 0.1,-7.267 0.767,-14.433 2,-21.5 -1.172,-1.868 -1.005,-3.702 0.5,-5.5 0.377,1.442 1.21,2.442 2.5,3 z"
         id="path191" />
    </g>
    <g
       id="g193"
       style="clip-rule:evenodd;fill-rule:evenodd;image-rendering:optimizeQuality;shape-rendering:geometricPrecision;text-rendering:geometricPrecision"
       transform="matrix(0.33829965,0,0,0.33829965,-252.82929,-8.5855706)">
      <path
         style="opacity:1"
         fill="#833e40"
         d="m 831.5,140.5 c 0.667,28.333 1.333,56.667 2,85 -0.327,9.182 0.007,18.182 1,27 0.248,4.406 0.915,8.74 2,13 0,0.667 0,1.333 0,2 -0.904,0.709 -1.237,1.709 -1,3 -1.151,-2.279 -2.151,-4.612 -3,-7 -1.704,-11.927 -2.371,-23.927 -2,-36 0,-2.333 0,-4.667 0,-7 0.998,-26.495 1.331,-53.161 1,-80 z"
         id="path193" />
    </g>
    <g
       id="g195"
       style="clip-rule:evenodd;fill-rule:evenodd;image-rendering:optimizeQuality;shape-rendering:geometricPrecision;text-rendering:geometricPrecision"
       transform="matrix(0.33829965,0,0,0.33829965,-252.82929,-8.5855706)">
      <path
         style="opacity:1"
         fill="#e3acaf"
         d="m 857.5,252.5 c -0.803,0.923 -0.97,1.923 -0.5,3 3.104,1.303 5.937,2.97 8.5,5 -4.184,-0.092 -7.517,-1.759 -10,-5 -0.215,-1.679 0.452,-2.679 2,-3 z"
         id="path195" />
    </g>
    <g
       id="g196"
       style="clip-rule:evenodd;fill-rule:evenodd;image-rendering:optimizeQuality;shape-rendering:geometricPrecision;text-rendering:geometricPrecision"
       transform="matrix(0.33829965,0,0,0.33829965,-252.82929,-8.5855706)">
      <path
         style="opacity:1"
         fill="#f9f4f4"
         d="m 906.5,251.5 c 5.824,-0.29 11.491,0.377 17,2 -0.788,3.121 -2.788,4.788 -6,5 -7.435,1.027 -14.935,2.027 -22.5,3 -9.311,0.11 -19.144,-0.224 -29.5,-1 -2.563,-2.03 -5.396,-3.697 -8.5,-5 -0.47,-1.077 -0.303,-2.077 0.5,-3 16.158,-0.996 32.491,-1.33 49,-1 z"
         id="path196" />
    </g>
    <g
       id="g197"
       style="clip-rule:evenodd;fill-rule:evenodd;image-rendering:optimizeQuality;shape-rendering:geometricPrecision;text-rendering:geometricPrecision"
       transform="matrix(0.33829965,0,0,0.33829965,-252.82929,-8.5855706)">
      <path
         style="opacity:1"
         fill="#f9f7f6"
         d="m 942.5,225.5 c 0.595,3.783 0.928,7.617 1,11.5 -0.626,8.841 -1.293,17.674 -2,26.5 -0.904,0.709 -1.237,1.709 -1,3 -3.172,-0.428 -6.172,-0.595 -9,-0.5 -0.837,-1.011 -1.17,-2.178 -1,-3.5 -1.478,-4.123 -2.812,-8.289 -4,-12.5 0.626,-0.75 1.126,-1.584 1.5,-2.5 1.994,4.25 5.161,5.583 9.5,4 0.606,-2.209 1.273,-4.376 2,-6.5 -1.141,-5.75 -1.307,-11.584 -0.5,-17.5 0.71,-1.473 1.876,-2.14 3.5,-2 z"
         id="path197" />
    </g>
    <g
       id="g239"
       style="clip-rule:evenodd;fill-rule:evenodd;image-rendering:optimizeQuality;shape-rendering:geometricPrecision;text-rendering:geometricPrecision"
       transform="matrix(0.33829965,0,0,0.33829965,-252.82929,-8.5855706)">
      <path
         style="opacity:1"
         fill="#a35657"
         d="m 851.5,257.5 c -1.402,4.884 -2.069,9.884 -2,15 -0.951,-1.419 -1.284,-3.085 -1,-5 0.223,-3.662 1.223,-6.995 3,-10 z"
         id="path239" />
    </g>
    <g
       id="g240"
       style="clip-rule:evenodd;fill-rule:evenodd;image-rendering:optimizeQuality;shape-rendering:geometricPrecision;text-rendering:geometricPrecision"
       transform="matrix(0.33829965,0,0,0.33829965,-252.82929,-8.5855706)">
      <path
         style="opacity:1"
         fill="#f3d6d7"
         d="m 917.5,258.5 c -5.763,1.815 -11.763,3.315 -18,4.5 -8.327,0.5 -16.66,0.666 -25,0.5 -3.035,-0.874 -6.035,-1.874 -9,-3 10.356,0.776 20.189,1.11 29.5,1 7.565,-0.973 15.065,-1.973 22.5,-3 z"
         id="path240" />
    </g>
    <g
       id="g243"
       style="clip-rule:evenodd;fill-rule:evenodd;image-rendering:optimizeQuality;shape-rendering:geometricPrecision;text-rendering:geometricPrecision"
       transform="matrix(0.33829965,0,0,0.33829965,-252.82929,-8.5855706)">
      <path
         style="opacity:1"
         fill="#a62424"
         d="m 856.5,260.5 c 0,1 0,2 0,3 1.788,-0.285 3.455,0.048 5,1 -2.399,-0.216 -4.399,0.951 -6,3.5 1.215,2.096 2.049,1.929 2.5,-0.5 1.617,1.036 1.784,2.203 0.5,3.5 0.5,0.167 1,0.333 1.5,0.5 1.991,-0.582 3.825,-1.749 5.5,-3.5 -1,-1 -2,-2 -3,-3 0.5,-0.167 1,-0.333 1.5,-0.5 6.954,1.83 14.287,3.163 22,4 2.234,0.126 4.568,-0.207 7,-1 0.957,2.209 2.124,2.043 3.5,-0.5 6.971,-1.326 13.971,-2.492 21,-3.5 4.429,-0.494 6.762,1.506 7,6 -0.865,1.083 -1.865,1.249 -3,0.5 1.333,-0.667 1.333,-1.333 0,-2 -2.667,-0.667 -5.333,-0.667 -8,0 0.854,1.022 1.854,1.855 3,2.5 1.109,-1.09 2.109,-1.09 3,0 -2.491,1.041 -2.491,1.874 0,2.5 -1.333,1 -2.667,2 -4,3 -5.629,1.197 -11.296,1.53 -17,1 -0.333,-0.333 -0.667,-0.667 -1,-1 1.172,-0.419 2.172,-1.085 3,-2 -3.711,-0.825 -7.378,-0.659 -11,0.5 0.667,0.667 1.333,1.333 2,2 -1.128,0.762 -2.295,1.429 -3.5,2 -4.216,-0.722 -8.716,-0.888 -13.5,-0.5 -1.391,-1.02 -2.891,-1.853 -4.5,-2.5 -1.371,-0.257 -2.871,0.077 -4.5,1 -3.137,-2.638 -6.637,-4.638 -10.5,-6 -1.011,0.837 -2.178,1.17 -3.5,1 0,-2 0,-4 0,-6 0.79,-1.294 1.79,-2.461 3,-3.5 -0.333,-0.333 -0.667,-0.667 -1,-1 0.948,-0.483 1.948,-0.649 3,-0.5 z"
         id="path243" />
    </g>
    <g
       id="g244"
       style="clip-rule:evenodd;fill-rule:evenodd;image-rendering:optimizeQuality;shape-rendering:geometricPrecision;text-rendering:geometricPrecision"
       transform="matrix(0.33829965,0,0,0.33829965,-252.82929,-8.5855706)">
      <path
         style="opacity:1"
         fill="#8d3232"
         d="m 924.5,252.5 c 1.637,3.217 2.97,6.55 4,10 0.876,3.299 1.043,6.632 0.5,10 -0.816,1.323 -1.983,1.989 -3.5,2 2.703,-6.11 2.37,-12.11 -1,-18 -3.657,3.394 -7.991,5.56 -13,6.5 -10.299,1.693 -20.632,2.859 -31,3.5 -1.927,-1.362 -3.927,-2.362 -6,-3 8.34,0.166 16.673,0 25,-0.5 6.237,-1.185 12.237,-2.685 18,-4.5 3.212,-0.212 5.212,-1.879 6,-5 0,-0.667 0.333,-1 1,-1 z"
         id="path244" />
    </g>
    <g
       id="g246"
       style="clip-rule:evenodd;fill-rule:evenodd;image-rendering:optimizeQuality;shape-rendering:geometricPrecision;text-rendering:geometricPrecision"
       transform="matrix(0.33829965,0,0,0.33829965,-252.82929,-8.5855706)">
      <path
         style="opacity:1"
         fill="#a22729"
         d="m 925.5,274.5 c -21.086,6.823 -42.42,7.656 -64,2.5 -3.454,-2.202 -7.12,-3.702 -11,-4.5 -0.302,-2.559 0.032,-4.893 1,-7 0,2 0,4 0,6 1.322,0.17 2.489,-0.163 3.5,-1 3.863,1.362 7.363,3.362 10.5,6 1.629,-0.923 3.129,-1.257 4.5,-1 1.609,0.647 3.109,1.48 4.5,2.5 4.784,-0.388 9.284,-0.222 13.5,0.5 1.205,-0.571 2.372,-1.238 3.5,-2 -0.667,-0.667 -1.333,-1.333 -2,-2 3.622,-1.159 7.289,-1.325 11,-0.5 -0.828,0.915 -1.828,1.581 -3,2 0.333,0.333 0.667,0.667 1,1 5.704,0.53 11.371,0.197 17,-1 1.333,-1 2.667,-2 4,-3 -2.491,-0.626 -2.491,-1.459 0,-2.5 -0.891,-1.09 -1.891,-1.09 -3,0 -1.146,-0.645 -2.146,-1.478 -3,-2.5 2.667,-0.667 5.333,-0.667 8,0 1.333,0.667 1.333,1.333 0,2 1.135,0.749 2.135,0.583 3,-0.5 -0.238,-4.494 -2.571,-6.494 -7,-6 -7.029,1.008 -14.029,2.174 -21,3.5 -1.376,2.543 -2.543,2.709 -3.5,0.5 -2.432,0.793 -4.766,1.126 -7,1 -7.713,-0.837 -15.046,-2.17 -22,-4 -0.5,0.167 -1,0.333 -1.5,0.5 1,1 2,2 3,3 -1.675,1.751 -3.509,2.918 -5.5,3.5 -0.5,-0.167 -1,-0.333 -1.5,-0.5 1.284,-1.297 1.117,-2.464 -0.5,-3.5 -0.451,2.429 -1.285,2.596 -2.5,0.5 1.601,-2.549 3.601,-3.716 6,-3.5 -1.545,-0.952 -3.212,-1.285 -5,-1 0,-1 0,-2 0,-3 5.935,1.424 11.935,2.424 18,3 2.073,0.638 4.073,1.638 6,3 10.368,-0.641 20.701,-1.807 31,-3.5 5.009,-0.94 9.343,-3.106 13,-6.5 3.37,5.89 3.703,11.89 1,18 z"
         id="path246" />
    </g>
    <g
       id="g251"
       style="clip-rule:evenodd;fill-rule:evenodd;image-rendering:optimizeQuality;shape-rendering:geometricPrecision;text-rendering:geometricPrecision"
       transform="matrix(0.33829965,0,0,0.33829965,-252.82929,-8.5855706)">
      <path
         style="opacity:1"
         fill="#9f2629"
         d="m 935.5,269.5 c 1.511,1.002 3.178,1.669 5,2 -0.449,3.548 -1.449,6.881 -3,10 -0.333,1 -1,1.667 -2,2 -4.077,0.87 -8.077,2.037 -12,3.5 -1.667,0.667 -3.333,0.667 -5,0 -1.231,-1.183 -1.231,-2.349 0,-3.5 3.309,-1.331 5.976,-3.331 8,-6 2.974,-2.638 5.974,-5.305 9,-8 z"
         id="path251" />
    </g>
    <g
       id="g252"
       style="clip-rule:evenodd;fill-rule:evenodd;image-rendering:optimizeQuality;shape-rendering:geometricPrecision;text-rendering:geometricPrecision"
       transform="matrix(0.33829965,0,0,0.33829965,-252.82929,-8.5855706)">
      <path
         style="opacity:1"
         fill="#efd2d3"
         d="m 949.5,140.5 c 1.879,0.841 3.879,1.175 6,1 -1.779,1.844 -4.112,2.51 -7,2 0.045,36.007 0.212,72.007 0.5,108 -1.285,7.708 -2.785,15.375 -4.5,23 0.209,0.586 0.543,1.086 1,1.5 -2.387,4.016 -5.721,6.849 -10,8.5 0,-0.333 0,-0.667 0,-1 1,-0.333 1.667,-1 2,-2 2.208,-1.394 3.708,-3.394 4.5,-6 2.251,-5.836 3.918,-11.836 5,-18 0.5,-12.662 0.667,-25.329 0.5,-38 -0.658,-26.688 0.009,-53.021 2,-79 z"
         id="path252" />
    </g>
    <g
       id="g253"
       style="clip-rule:evenodd;fill-rule:evenodd;image-rendering:optimizeQuality;shape-rendering:geometricPrecision;text-rendering:geometricPrecision"
       transform="matrix(0.33829965,0,0,0.33829965,-252.82929,-8.5855706)">
      <path
         style="opacity:1"
         fill="#8a3031"
         d="m 836.5,267.5 c 0.651,0.591 1.318,1.257 2,2 1.268,-0.928 2.601,-1.095 4,-0.5 3.229,3.399 6.562,6.565 10,9.5 -3.631,-1.108 -6.631,-3.274 -9,-6.5 -1.973,-0.495 -3.973,-0.662 -6,-0.5 0.747,5.275 3.414,9.442 8,12.5 2.674,0.67 5.007,1.837 7,3.5 -6.196,-0.676 -11.029,-3.676 -14.5,-9 -1.341,-2.522 -2.174,-5.189 -2.5,-8 -0.237,-1.291 0.096,-2.291 1,-3 z"
         id="path253" />
    </g>
    <g
       id="g254"
       style="clip-rule:evenodd;fill-rule:evenodd;image-rendering:optimizeQuality;shape-rendering:geometricPrecision;text-rendering:geometricPrecision"
       transform="matrix(0.33829965,0,0,0.33829965,-252.82929,-8.5855706)">
      <path
         style="opacity:1"
         fill="#f3bcbf"
         d="m 928.5,262.5 c 0.667,0 1.333,0 2,0 -0.17,1.322 0.163,2.489 1,3.5 2.828,-0.095 5.828,0.072 9,0.5 -0.237,-1.291 0.096,-2.291 1,-3 0.236,2.726 -0.597,5.059 -2.5,7 -0.924,-1.995 -2.09,-2.328 -3.5,-1 -3.026,2.695 -6.026,5.362 -9,8 -2,0.667 -4,1.333 -6,2 -0.709,-0.904 -1.709,-1.237 -3,-1 2.754,-1.141 5.421,-2.475 8,-4 1.517,-0.011 2.684,-0.677 3.5,-2 0.543,-3.368 0.376,-6.701 -0.5,-10 z"
         id="path254" />
    </g>
    <g
       id="g255"
       style="clip-rule:evenodd;fill-rule:evenodd;image-rendering:optimizeQuality;shape-rendering:geometricPrecision;text-rendering:geometricPrecision"
       transform="matrix(0.33829965,0,0,0.33829965,-252.82929,-8.5855706)">
      <path
         style="opacity:1"
         fill="#8a2829"
         d="m 853.5,252.5 c 0.667,1 1.333,2 2,3 2.483,3.241 5.816,4.908 10,5 2.965,1.126 5.965,2.126 9,3 -6.065,-0.576 -12.065,-1.576 -18,-3 -1.052,-0.149 -2.052,0.017 -3,0.5 0.333,0.333 0.667,0.667 1,1 -1.21,1.039 -2.21,2.206 -3,3.5 -0.968,2.107 -1.302,4.441 -1,7 3.88,0.798 7.546,2.298 11,4.5 21.58,5.156 42.914,4.323 64,-2.5 -2.579,1.525 -5.246,2.859 -8,4 -6.538,0.972 -12.872,2.306 -19,4 -8.025,0.11 -16.025,-0.224 -24,-1 -0.333,0 -0.667,0 -1,0 -5.553,-1.42 -11.22,-2.92 -17,-4.5 -2.739,-1.026 -5.072,-2.526 -7,-4.5 -0.069,-5.116 0.598,-10.116 2,-15 0.667,-1.667 1.333,-3.333 2,-5 z"
         id="path255" />
    </g>
    <g
       id="g256"
       style="clip-rule:evenodd;fill-rule:evenodd;image-rendering:optimizeQuality;shape-rendering:geometricPrecision;text-rendering:geometricPrecision"
       transform="matrix(0.33829965,0,0,0.33829965,-252.82929,-8.5855706)">
      <path
         style="opacity:1"
         fill="#eab7ba"
         d="m 836.5,265.5 c 2.304,0.663 4.637,1.33 7,2 1.969,3.861 3.636,3.861 5,0 -0.284,1.915 0.049,3.581 1,5 1.928,1.974 4.261,3.474 7,4.5 5.78,1.58 11.447,3.08 17,4.5 -3.966,-0.662 -7.966,-0.995 -12,-1 0,1 0,2 0,3 -0.904,-0.709 -1.237,-1.709 -1,-3 -2.667,-0.667 -5.333,-1.333 -8,-2 -3.438,-2.935 -6.771,-6.101 -10,-9.5 -1.399,-0.595 -2.732,-0.428 -4,0.5 -0.682,-0.743 -1.349,-1.409 -2,-2 0,-0.667 0,-1.333 0,-2 z"
         id="path256" />
    </g>
    <g
       id="g257"
       style="clip-rule:evenodd;fill-rule:evenodd;image-rendering:optimizeQuality;shape-rendering:geometricPrecision;text-rendering:geometricPrecision"
       transform="matrix(0.33829965,0,0,0.33829965,-252.82929,-8.5855706)">
      <path
         style="opacity:1"
         fill="#a22627"
         d="m 852.5,278.5 c 1.437,1.225 3.104,2.225 5,3 0.816,1.787 1.816,3.454 3,5 -2.586,0.98 -5.253,1.313 -8,1 -1.993,-1.663 -4.326,-2.83 -7,-3.5 -4.586,-3.058 -7.253,-7.225 -8,-12.5 2.027,-0.162 4.027,0.005 6,0.5 2.369,3.226 5.369,5.392 9,6.5 z"
         id="path257" />
    </g>
    <g
       id="g267"
       style="clip-rule:evenodd;fill-rule:evenodd;image-rendering:optimizeQuality;shape-rendering:geometricPrecision;text-rendering:geometricPrecision"
       transform="matrix(0.33829965,0,0,0.33829965,-252.82929,-8.5855706)">
      <path
         style="opacity:1"
         fill="#f1d3d6"
         d="m 935.5,284.5 c -0.437,1.574 -1.437,2.741 -3,3.5 -2.633,0.423 -4.799,1.59 -6.5,3.5 -2.042,-0.785 -4.042,-0.452 -6,1 -0.333,-0.333 -0.667,-0.667 -1,-1 -13.513,3.421 -27.013,3.755 -40.5,1 16.228,0.878 32.228,-0.622 48,-4.5 3.021,-1.18 6.021,-2.346 9,-3.5 z"
         id="path267" />
    </g>
    <g
       id="g269"
       style="clip-rule:evenodd;fill-rule:evenodd;image-rendering:optimizeQuality;shape-rendering:geometricPrecision;text-rendering:geometricPrecision"
       transform="matrix(0.33829965,0,0,0.33829965,-252.82929,-8.5855706)">
      <path
         style="opacity:1"
         fill="#f4d9d9"
         d="m 832.5,263.5 c 0.849,2.388 1.849,4.721 3,7 0.326,2.811 1.159,5.478 2.5,8 3.471,5.324 8.304,8.324 14.5,9 2.088,1.52 4.422,2.52 7,3 -6.616,-0.651 -12.949,-2.317 -19,-5 -0.287,-3.171 -1.954,-5.171 -5,-6 -1.084,-1.165 -1.917,-2.498 -2.5,-4 -0.499,-3.986 -0.666,-7.986 -0.5,-12 z"
         id="path269" />
    </g>
    <g
       id="g270"
       style="clip-rule:evenodd;fill-rule:evenodd;image-rendering:optimizeQuality;shape-rendering:geometricPrecision;text-rendering:geometricPrecision"
       transform="matrix(0.33829965,0,0,0.33829965,-252.82929,-8.5855706)">
      <path
         style="opacity:1"
         fill="#843739"
         d="m 926.5,277.5 c -2.024,2.669 -4.691,4.669 -8,6 -1.231,1.151 -1.231,2.317 0,3.5 1.667,0.667 3.333,0.667 5,0 3.923,-1.463 7.923,-2.63 12,-3.5 0,0.333 0,0.667 0,1 -2.979,1.154 -5.979,2.32 -9,3.5 -15.772,3.878 -31.772,5.378 -48,4.5 -6.324,-0.749 -12.657,-1.415 -19,-2 -2.578,-0.48 -4.912,-1.48 -7,-3 2.747,0.313 5.414,-0.02 8,-1 -1.184,-1.546 -2.184,-3.213 -3,-5 -1.896,-0.775 -3.563,-1.775 -5,-3 2.667,0.667 5.333,1.333 8,2 -0.237,1.291 0.096,2.291 1,3 -0.17,1.322 0.163,2.489 1,3.5 17.664,1.982 35.331,1.982 53,0 0.309,-3.429 1.976,-5.929 5,-7.5 2,-0.667 4,-1.333 6,-2 z"
         id="path270" />
    </g>
    <g
       id="g271"
       style="clip-rule:evenodd;fill-rule:evenodd;image-rendering:optimizeQuality;shape-rendering:geometricPrecision;text-rendering:geometricPrecision"
       transform="matrix(0.33829965,0,0,0.33829965,-252.82929,-8.5855706)">
      <path
         style="opacity:1"
         fill="#f6dddf"
         d="m 917.5,278.5 c 1.291,-0.237 2.291,0.096 3,1 -3.024,1.571 -4.691,4.071 -5,7.5 -17.669,1.982 -35.336,1.982 -53,0 -0.837,-1.011 -1.17,-2.178 -1,-3.5 0.809,0.969 1.809,1.802 3,2.5 12.304,1.419 24.638,1.752 37,1 0.837,-1.011 1.17,-2.178 1,-3.5 -9.674,1.957 -19.007,1.29 -28,-2 7.975,0.776 15.975,1.11 24,1 6.742,0.1 13.075,-1.233 19,-4 z"
         id="path271" />
    </g>
    <g
       id="g272"
       style="clip-rule:evenodd;fill-rule:evenodd;image-rendering:optimizeQuality;shape-rendering:geometricPrecision;text-rendering:geometricPrecision"
       transform="matrix(0.33829965,0,0,0.33829965,-252.82929,-8.5855706)">
      <path
         style="opacity:1"
         fill="#e0aaac"
         d="m 917.5,278.5 c -5.925,2.767 -12.258,4.1 -19,4 6.128,-1.694 12.462,-3.028 19,-4 z"
         id="path272" />
    </g>
    <g
       id="g273"
       style="clip-rule:evenodd;fill-rule:evenodd;image-rendering:optimizeQuality;shape-rendering:geometricPrecision;text-rendering:geometricPrecision"
       transform="matrix(0.33829965,0,0,0.33829965,-252.82929,-8.5855706)">
      <path
         style="opacity:1"
         fill="#faf4f5"
         d="m 873.5,281.5 c 0.333,0 0.667,0 1,0 8.993,3.29 18.326,3.957 28,2 0.17,1.322 -0.163,2.489 -1,3.5 -12.362,0.752 -24.696,0.419 -37,-1 -1.191,-0.698 -2.191,-1.531 -3,-2.5 0,-1 0,-2 0,-3 4.034,0.005 8.034,0.338 12,1 z"
         id="path273" />
    </g>
  </g>
</svg>
