<?xml version="1.0" encoding="UTF-8" standalone="no"?>
<!-- Created with Inkscape (http://www.inkscape.org/) -->

<svg
   width="96mm"
   height="96mm"
   viewBox="0 0 96 96"
   version="1.1"
   id="svg1"
   inkscape:version="1.4.2 (ebf0e940, 2025-05-08)"
   sodipodi:docname="ship.svg"
   xmlns:inkscape="http://www.inkscape.org/namespaces/inkscape"
   xmlns:sodipodi="http://sodipodi.sourceforge.net/DTD/sodipodi-0.dtd"
   xmlns="http://www.w3.org/2000/svg"
   xmlns:svg="http://www.w3.org/2000/svg">
  <sodipodi:namedview
     id="namedview1"
     pagecolor="#ffffff"
     bordercolor="#000000"
     borderopacity="0.25"
     inkscape:showpageshadow="2"
     inkscape:pageopacity="0.0"
     inkscape:pagecheckerboard="0"
     inkscape:deskcolor="#d1d1d1"
     inkscape:document-units="mm"
     inkscape:zoom="0.80444024"
     inkscape:cx="397.17059"
     inkscape:cy="362.36377"
     inkscape:window-width="1920"
     inkscape:window-height="1052"
     inkscape:window-x="0"
     inkscape:window-y="28"
     inkscape:window-maximized="0"
     inkscape:current-layer="layer1" />
  <defs
     id="defs1" />
  <g
     inkscape:label="Layer 1"
     inkscape:groupmode="layer"
     id="layer1">
    <g
       id="g152"
       style="clip-rule:evenodd;fill-rule:evenodd;image-rendering:optimizeQuality;shape-rendering:geometricPrecision;text-rendering:geometricPrecision"
       transform="matrix(0.23566909,0,0,0.23566909,-23.798935,-80.281429)">
      <path
         style="opacity:1"
         fill="#cf3831"
         d="m 331.5,400.5 c 1.511,3.989 2.678,7.989 3.5,12 -4.938,-12.258 -13.271,-21.258 -25,-27 -11.45,5.482 -19.783,14.149 -25,26 0.492,-3.35 1.325,-6.683 2.5,-10 1.446,-4.226 3.446,-8.226 6,-12 4.102,-2.383 7.435,-5.549 10,-9.5 5.78,-3.676 10.946,-2.843 15.5,2.5 4.447,5.926 8.614,11.926 12.5,18 z"
         id="path152" />
    </g>
    <g
       id="g153"
       style="clip-rule:evenodd;fill-rule:evenodd;image-rendering:optimizeQuality;shape-rendering:geometricPrecision;text-rendering:geometricPrecision"
       transform="matrix(0.23566909,0,0,0.23566909,-23.798935,-80.281429)">
      <path
         style="opacity:1"
         fill="#e96760"
         d="m 278.5,431.5 c 0.333,-0.667 0.667,-1.333 1,-2 8.946,-5.497 18.78,-8.164 29.5,-8 10.312,0.037 20.145,2.203 29.5,6.5 2.063,1.572 2.729,3.405 2,5.5 -13.029,-7.365 -27.029,-9.865 -42,-7.5 -6.773,0.869 -13.106,3.036 -19,6.5 -0.607,-0.124 -0.94,-0.457 -1,-1 z"
         id="path153" />
    </g>
    <g
       id="g155"
       style="clip-rule:evenodd;fill-rule:evenodd;image-rendering:optimizeQuality;shape-rendering:geometricPrecision;text-rendering:geometricPrecision"
       transform="matrix(0.23566909,0,0,0.23566909,-23.798935,-80.281429)">
      <path
         style="opacity:1"
         fill="#a8231c"
         d="m 331.5,400.5 c 1.951,1.98 3.451,4.313 4.5,7 1.99,5.3 3.99,10.633 6,16 1.072,5.955 1.572,11.955 1.5,18 -3.902,-3.708 -8.569,-6.208 -14,-7.5 -18.406,-4.582 -36.073,-2.748 -53,5.5 -0.389,-3.053 0.277,-5.72 2,-8 0.06,0.543 0.393,0.876 1,1 5.894,-3.464 12.227,-5.631 19,-6.5 14.971,-2.365 28.971,0.135 42,7.5 0.729,-2.095 0.063,-3.928 -2,-5.5 -9.355,-4.297 -19.188,-6.463 -29.5,-6.5 -10.72,-0.164 -20.554,2.503 -29.5,8 -0.739,0.131 -1.406,-0.036 -2,-0.5 1.313,-7.522 2.98,-15.022 5,-22.5 1.879,-1.397 3.546,-3.063 5,-5 -1.175,3.317 -2.008,6.65 -2.5,10 5.217,-11.851 13.55,-20.518 25,-26 11.729,5.742 20.062,14.742 25,27 -0.822,-4.011 -1.989,-8.011 -3.5,-12 z"
         id="path155" />
    </g>
    <g
       id="g156"
       style="clip-rule:evenodd;fill-rule:evenodd;image-rendering:optimizeQuality;shape-rendering:geometricPrecision;text-rendering:geometricPrecision"
       transform="matrix(0.23566909,0,0,0.23566909,-23.798935,-80.281429)">
      <path
         style="opacity:1"
         fill="#d7382f"
         d="m 307.5,387.5 c 2.811,0.326 5.478,1.159 8,2.5 7.746,7.001 13.913,15.168 18.5,24.5 1.843,3.515 2.843,7.182 3,11 -18.378,-7.931 -36.711,-7.931 -55,0 4.258,-15.516 12.758,-28.183 25.5,-38 z"
         id="path156" />
    </g>
    <g
       id="g157"
       style="clip-rule:evenodd;fill-rule:evenodd;image-rendering:optimizeQuality;shape-rendering:geometricPrecision;text-rendering:geometricPrecision"
       transform="matrix(0.23566909,0,0,0.23566909,-23.798935,-80.281429)">
      <path
         style="opacity:1"
         fill="#ca3f36"
         d="m 298.5,427.5 c 12.328,-0.952 24.328,0.548 36,4.5 2.496,1.08 4.83,2.414 7,4 -6.171,-2.133 -12.505,-4.133 -19,-6 -10.021,-0.462 -20.021,-0.462 -30,0 2.111,-0.845 4.111,-1.678 6,-2.5 z"
         id="path157" />
    </g>
    <g
       id="g158"
       style="clip-rule:evenodd;fill-rule:evenodd;image-rendering:optimizeQuality;shape-rendering:geometricPrecision;text-rendering:geometricPrecision"
       transform="matrix(0.23566909,0,0,0.23566909,-23.798935,-80.281429)">
      <path
         style="opacity:1"
         fill="#e86962"
         d="m 343.5,441.5 c 0,0.667 0,1.333 0,2 -21.97,-11.638 -44.137,-11.971 -66.5,-1 -0.464,-0.594 -0.631,-1.261 -0.5,-2 0,-0.333 0,-0.667 0,-1 16.927,-8.248 34.594,-10.082 53,-5.5 5.431,1.292 10.098,3.792 14,7.5 z"
         id="path158" />
    </g>
    <g
       id="g160"
       style="clip-rule:evenodd;fill-rule:evenodd;image-rendering:optimizeQuality;shape-rendering:geometricPrecision;text-rendering:geometricPrecision"
       transform="matrix(0.23566909,0,0,0.23566909,-23.798935,-80.281429)">
      <path
         style="opacity:1"
         fill="#8d302a"
         d="m 282.5,406.5 c -2.02,7.478 -3.687,14.978 -5,22.5 0.594,0.464 1.261,0.631 2,0.5 -0.333,0.667 -0.667,1.333 -1,2 -1.723,2.28 -2.389,4.947 -2,8 0,0.333 0,0.667 0,1 -1.997,2.713 -3.997,5.379 -6,8 -1.322,-0.17 -2.489,0.163 -3.5,1 -0.495,1.973 -0.662,3.973 -0.5,6 1.09,1.357 2.424,2.357 4,3 -1.667,0 -3.333,0 -5,0 -1.611,-4.384 -1.277,-8.551 1,-12.5 1.973,-0.495 3.973,-0.662 6,-0.5 1.638,-13.554 4.971,-26.554 10,-39 z"
         id="path160" />
    </g>
    <g
       id="g162"
       style="clip-rule:evenodd;fill-rule:evenodd;image-rendering:optimizeQuality;shape-rendering:geometricPrecision;text-rendering:geometricPrecision"
       transform="matrix(0.23566909,0,0,0.23566909,-23.798935,-80.281429)">
      <path
         style="opacity:1"
         fill="#b02a23"
         d="m 343.5,443.5 c 0.904,0.709 1.237,1.709 1,3 1.679,-0.215 2.679,0.452 3,2 -9.532,-2.607 -19.198,-4.774 -29,-6.5 -6.667,-0.667 -13.333,-0.667 -20,0 -9.319,2.274 -18.652,4.441 -28,6.5 2.003,-2.621 4.003,-5.287 6,-8 -0.131,0.739 0.036,1.406 0.5,2 22.363,-10.971 44.53,-10.638 66.5,1 z"
         id="path162" />
    </g>
    <g
       id="g164"
       style="clip-rule:evenodd;fill-rule:evenodd;image-rendering:optimizeQuality;shape-rendering:geometricPrecision;text-rendering:geometricPrecision"
       transform="matrix(0.23566909,0,0,0.23566909,-23.798935,-80.281429)">
      <path
         style="opacity:1"
         fill="#e3635e"
         d="m 347.5,448.5 c 1.667,0 3.333,0 5,0 0,2.333 0,4.667 0,7 -0.333,0 -0.667,0 -1,0 -1.333,0 -2.667,0 -4,0 -2,0 -4,0 -6,0 0.17,-1.322 -0.163,-2.489 -1,-3.5 -20.27,-7.1 -40.603,-7.267 -61,-0.5 -0.929,1.189 -1.262,2.522 -1,4 -2.333,0 -4.667,0 -7,0 -1.667,0 -3.333,0 -5,0 -0.162,-2.027 0.005,-4.027 0.5,-6 1.011,-0.837 2.178,-1.17 3.5,-1 9.348,-2.059 18.681,-4.226 28,-6.5 6.667,-0.667 13.333,-0.667 20,0 9.802,1.726 19.468,3.893 29,6.5 z"
         id="path164" />
    </g>
    <g
       id="g165"
       style="clip-rule:evenodd;fill-rule:evenodd;image-rendering:optimizeQuality;shape-rendering:geometricPrecision;text-rendering:geometricPrecision"
       transform="matrix(0.23566909,0,0,0.23566909,-23.798935,-80.281429)">
      <path
         style="opacity:1"
         fill="#90302a"
         d="m 353.5,446.5 c 0.31,3.213 -0.023,6.213 -1,9 0,-2.333 0,-4.667 0,-7 -1.667,0 -3.333,0 -5,0 -0.321,-1.548 -1.321,-2.215 -3,-2 0.237,-1.291 -0.096,-2.291 -1,-3 0,-0.667 0,-1.333 0,-2 0.072,-6.045 -0.428,-12.045 -1.5,-18 -2.01,-5.367 -4.01,-10.7 -6,-16 -1.049,-2.687 -2.549,-5.02 -4.5,-7 -3.886,-6.074 -8.053,-12.074 -12.5,-18 -4.554,-5.343 -9.72,-6.176 -15.5,-2.5 -2.565,3.951 -5.898,7.117 -10,9.5 -2.554,3.774 -4.554,7.774 -6,12 -1.454,1.937 -3.121,3.603 -5,5 4.543,-11.246 11.21,-21.08 20,-29.5 4.098,-2.886 8.431,-3.219 13,-1 7.287,5.957 13.121,13.124 17.5,21.5 7.485,14.458 12.152,29.791 14,46 1.991,1.492 4.158,2.492 6.5,3 z"
         id="path165" />
    </g>
    <g
       id="g173"
       style="clip-rule:evenodd;fill-rule:evenodd;image-rendering:optimizeQuality;shape-rendering:geometricPrecision;text-rendering:geometricPrecision"
       transform="matrix(0.23566909,0,0,0.23566909,-23.798935,-80.281429)">
      <path
         style="opacity:1"
         fill="#8c2420"
         d="m 266.5,455.5 c 1.667,0 3.333,0 5,0 0.996,56.929 1.329,113.929 1,171 0,6 0,12 0,18 -0.703,8.649 -1.036,17.315 -1,26 -0.99,-6.145 -1.323,-12.478 -1,-19 0,-64.333 0,-128.667 0,-193 -1.576,-0.643 -2.91,-1.643 -4,-3 z"
         id="path173" />
    </g>
    <g
       id="g197"
       style="clip-rule:evenodd;fill-rule:evenodd;image-rendering:optimizeQuality;shape-rendering:geometricPrecision;text-rendering:geometricPrecision"
       transform="matrix(0.23566909,0,0,0.23566909,-23.798935,-80.281429)">
      <path
         style="opacity:1"
         fill="#d53a31"
         d="m 346.5,457.5 c 0,3 0,6 0,9 0.167,52.334 0,104.668 -0.5,157 -1.356,0.88 -2.856,1.214 -4.5,1 0,-55.667 0,-111.333 0,-167 1.667,0 3.333,0 5,0 z"
         id="path197" />
    </g>
    <g
       id="g201"
       style="clip-rule:evenodd;fill-rule:evenodd;image-rendering:optimizeQuality;shape-rendering:geometricPrecision;text-rendering:geometricPrecision"
       transform="matrix(0.23566909,0,0,0.23566909,-23.798935,-80.281429)">
      <path
         style="opacity:1"
         fill="#f4d8d6"
         d="m 265.5,458.5 c 1.667,0 3.333,0 5,0 0,64.333 0,128.667 0,193 -0.665,3.149 -0.998,6.482 -1,10 0.537,17.705 1.204,35.372 2,53 -2.012,-0.841 -3.345,-2.341 -4,-4.5 0.842,-78.239 1.175,-156.906 1,-236 -0.259,-5.453 -1.259,-10.62 -3,-15.5 z"
         id="path201" />
    </g>
    <g
       id="g228"
       style="clip-rule:evenodd;fill-rule:evenodd;image-rendering:optimizeQuality;shape-rendering:geometricPrecision;text-rendering:geometricPrecision"
       transform="matrix(0.23566909,0,0,0.23566909,-23.798935,-80.281429)">
      <path
         style="opacity:1"
         fill="#8f413e"
         d="m 353.5,446.5 c 0.617,0.111 1.117,0.444 1.5,1 0.667,3 0.667,6 0,9 -1.444,1.655 -3.278,2.322 -5.5,2 -0.191,67.538 0.142,135.038 1,202.5 -0.514,17 -1.18,33.833 -2,50.5 0,-13.333 0,-26.667 0,-40 0,-15.333 0,-30.667 0,-46 -0.167,-56.001 0,-112.001 0.5,-168 0.995,-0.566 1.828,-1.233 2.5,-2 0.333,0 0.667,0 1,0 0.977,-2.787 1.31,-5.787 1,-9 z"
         id="path228" />
    </g>
    <g
       id="g232"
       style="clip-rule:evenodd;fill-rule:evenodd;image-rendering:optimizeQuality;shape-rendering:geometricPrecision;text-rendering:geometricPrecision"
       transform="matrix(0.23566909,0,0,0.23566909,-23.798935,-80.281429)">
      <path
         style="opacity:1"
         fill="#92231e"
         d="m 347.5,455.5 c 1.333,0 2.667,0 4,0 -0.672,0.767 -1.505,1.434 -2.5,2 -0.5,55.999 -0.667,111.999 -0.5,168 -0.667,-53 -1.333,-106 -2,-159 0,-3 0,-6 0,-9 0.838,-0.342 1.172,-1.008 1,-2 z"
         id="path232" />
    </g>
    <g
       id="g275"
       style="clip-rule:evenodd;fill-rule:evenodd;image-rendering:optimizeQuality;shape-rendering:geometricPrecision;text-rendering:geometricPrecision"
       transform="matrix(0.23566909,0,0,0.23566909,-23.798935,-80.281429)">
      <path
         style="opacity:1"
         fill="#aa241d"
         d="m 347.5,455.5 c 0.172,0.992 -0.162,1.658 -1,2 -1.667,0 -3.333,0 -5,0 0,55.667 0,111.333 0,167 1.644,0.214 3.144,-0.12 4.5,-1 0.5,-52.332 0.667,-104.666 0.5,-157 0.667,53 1.333,106 2,159 0,15.333 0,30.667 0,46 -0.667,13 -1.333,26 -2,39 0.165,-3.018 -0.002,-6.018 -0.5,-9 -2.707,2.436 -5.873,3.936 -9.5,4.5 -16.613,2.874 -33.279,3.208 -50,1 -4.433,-0.421 -8.433,-1.921 -12,-4.5 -1.458,5.004 -0.792,9.671 2,14 -1.951,-1.216 -3.451,-2.882 -4.5,-5 -0.5,-13.663 -0.667,-27.329 -0.5,-41 -0.036,-8.685 0.297,-17.351 1,-26 7.995,2.005 10.995,-0.995 9,-9 1.995,-8.005 -1.005,-11.005 -9,-9 0.329,-57.071 -0.004,-114.071 -1,-171 2.333,0 4.667,0 7,0 -0.262,-1.478 0.071,-2.811 1,-4 20.397,-6.767 40.73,-6.6 61,0.5 0.837,1.011 1.17,2.178 1,3.5 2,0 4,0 6,0 z"
         id="path275" />
    </g>
    <g
       id="g276"
       style="clip-rule:evenodd;fill-rule:evenodd;image-rendering:optimizeQuality;shape-rendering:geometricPrecision;text-rendering:geometricPrecision"
       transform="matrix(0.23566909,0,0,0.23566909,-23.798935,-80.281429)">
      <path
         style="opacity:1"
         fill="#d23f35"
         d="m 273.5,457.5 c 1.667,0 3.333,0 5,0 0,55.667 0,111.333 0,167 -1.667,0 -3.333,0 -5,0 0,-55.667 0,-111.333 0,-167 z"
         id="path276" />
    </g>
    <g
       id="g279"
       style="clip-rule:evenodd;fill-rule:evenodd;image-rendering:optimizeQuality;shape-rendering:geometricPrecision;text-rendering:geometricPrecision"
       transform="matrix(0.23566909,0,0,0.23566909,-23.798935,-80.281429)">
      <path
         style="opacity:1"
         fill="#cd3830"
         d="m 339.5,647.5 c -0.333,-0.667 -0.667,-1.333 -1,-2 0.071,-6.025 0.071,-12.358 0,-19 3,0 6,0 9,0 0.058,8.021 -0.276,16.021 -1,24 -2,0 -4,0 -6,0 0.237,-1.291 -0.096,-2.291 -1,-3 z"
         id="path279" />
    </g>
    <g
       id="g281"
       style="clip-rule:evenodd;fill-rule:evenodd;image-rendering:optimizeQuality;shape-rendering:geometricPrecision;text-rendering:geometricPrecision"
       transform="matrix(0.23566909,0,0,0.23566909,-23.798935,-80.281429)">
      <path
         style="opacity:1"
         fill="#d63d34"
         d="m 272.5,626.5 c 7.995,-2.005 10.995,0.995 9,9 1.995,8.005 -1.005,11.005 -9,9 0,-6 0,-12 0,-18 z"
         id="path281" />
    </g>
    <g
       id="g291"
       style="clip-rule:evenodd;fill-rule:evenodd;image-rendering:optimizeQuality;shape-rendering:geometricPrecision;text-rendering:geometricPrecision"
       transform="matrix(0.23566909,0,0,0.23566909,-23.798935,-80.281429)">
      <path
         style="opacity:1"
         fill="#d63931"
         d="m 273.5,653.5 c 2.107,-0.968 4.441,-1.302 7,-1 0.166,6.009 -10e-4,12.009 -0.5,18 -2,1.333 -4,1.333 -6,0 -0.104,-5.76 -0.27,-11.426 -0.5,-17 z"
         id="path291" />
    </g>
    <g
       id="g293"
       style="clip-rule:evenodd;fill-rule:evenodd;image-rendering:optimizeQuality;shape-rendering:geometricPrecision;text-rendering:geometricPrecision"
       transform="matrix(0.23566909,0,0,0.23566909,-23.798935,-80.281429)">
      <path
         style="opacity:1"
         fill="#d23932"
         d="m 340.5,651.5 c 2.292,-0.256 4.459,0.077 6.5,1 0.809,6.249 0.642,12.416 -0.5,18.5 -2.599,0.769 -5.099,0.602 -7.5,-0.5 -0.667,-5.667 -0.667,-11.333 0,-17 0.717,-0.544 1.217,-1.211 1.5,-2 z"
         id="path293" />
    </g>
    <g
       id="g304"
       style="clip-rule:evenodd;fill-rule:evenodd;image-rendering:optimizeQuality;shape-rendering:geometricPrecision;text-rendering:geometricPrecision"
       transform="matrix(0.23566909,0,0,0.23566909,-23.798935,-80.281429)">
      <path
         style="opacity:1"
         fill="#7f2c28"
         d="m 270.5,651.5 c -0.323,6.522 0.01,12.855 1,19 -0.167,13.671 0,27.337 0.5,41 1.049,2.118 2.549,3.784 4.5,5 0.953,2.11 2.619,3.277 5,3.5 19.33,0.5 38.664,0.667 58,0.5 -19.829,1.162 -39.829,1.329 -60,0.5 -2.831,-2.001 -5.497,-4.167 -8,-6.5 -0.796,-17.628 -1.463,-35.295 -2,-53 0.002,-3.518 0.335,-6.851 1,-10 z"
         id="path304" />
    </g>
    <g
       id="g307"
       style="clip-rule:evenodd;fill-rule:evenodd;image-rendering:optimizeQuality;shape-rendering:geometricPrecision;text-rendering:geometricPrecision"
       transform="matrix(0.23566909,0,0,0.23566909,-23.798935,-80.281429)">
      <path
         style="opacity:1"
         fill="#e86761"
         d="m 338.5,645.5 c 0.333,0.667 0.667,1.333 1,2 0.039,1.859 -0.794,3.192 -2.5,4 -0.667,6.667 -0.667,13.333 0,20 0.414,0.457 0.914,0.791 1.5,1 1.162,4.967 1.329,9.967 0.5,15 -1.319,1.987 -3.152,3.154 -5.5,3.5 -16.733,2.304 -33.399,1.97 -50,-1 -0.833,-0.833 -1.667,-1.667 -2.5,-2.5 -1.172,-5.992 -0.505,-11.659 2,-17 0.667,-6 0.667,-12 0,-18 -2.659,-1.56 -3.826,-3.893 -3.5,-7 1.322,0.17 2.489,-0.163 3.5,-1 0.667,-6.333 0.667,-12.667 0,-19 -0.414,-0.457 -0.914,-0.791 -1.5,-1 -1.167,-56.997 -1.333,-113.997 -0.5,-171 19.503,-6.988 38.836,-6.655 58,1 0.833,56.67 0.667,113.336 -0.5,170 -0.586,0.209 -1.086,0.543 -1.5,1 -0.667,6.333 -0.667,12.667 0,19 0.383,0.556 0.883,0.889 1.5,1 z"
         id="path307" />
    </g>
    <g
       id="g308"
       style="clip-rule:evenodd;fill-rule:evenodd;image-rendering:optimizeQuality;shape-rendering:geometricPrecision;text-rendering:geometricPrecision"
       transform="matrix(0.23566909,0,0,0.23566909,-23.798935,-80.281429)">
      <path
         style="opacity:1"
         fill="#aa271f"
         d="m 298.5,460.5 c 11.963,-0.928 23.63,0.405 35,4 1.167,71.331 1.333,142.664 0.5,214 -1.236,2.038 -3.069,3.205 -5.5,3.5 -13,0.667 -26,0.667 -39,0 -2.167,-0.833 -3.667,-2.333 -4.5,-4.5 -0.667,-70.667 -0.667,-141.333 0,-212 4.281,-2.59 8.781,-4.257 13.5,-5 z"
         id="path308" />
    </g>
    <g
       id="g309"
       style="clip-rule:evenodd;fill-rule:evenodd;image-rendering:optimizeQuality;shape-rendering:geometricPrecision;text-rendering:geometricPrecision"
       transform="matrix(0.23566909,0,0,0.23566909,-23.798935,-80.281429)">
      <path
         style="opacity:1"
         fill="#e86a64"
         d="m 300.5,594.5 c 6.009,-0.166 12.009,10e-4 18,0.5 4.942,0.866 9.442,2.7 13.5,5.5 0.667,25.667 0.667,51.333 0,77 -0.903,1.201 -2.069,2.035 -3.5,2.5 -12.667,0.667 -25.333,0.667 -38,0 -0.833,-0.833 -1.667,-1.667 -2.5,-2.5 -0.667,-26 -0.667,-52 0,-78 4.141,-1.986 8.308,-3.652 12.5,-5 z"
         id="path309" />
    </g>
    <g
       id="g310"
       style="clip-rule:evenodd;fill-rule:evenodd;image-rendering:optimizeQuality;shape-rendering:geometricPrecision;text-rendering:geometricPrecision"
       transform="matrix(0.23566909,0,0,0.23566909,-23.798935,-80.281429)">
      <path
         style="opacity:1"
         fill="#a92119"
         d="m 301.5,603.5 c 7.047,-0.163 14.047,0.337 21,1.5 1.829,0.273 3.329,1.107 4.5,2.5 0.667,21.667 0.667,43.333 0,65 -0.75,0.626 -1.584,1.126 -2.5,1.5 -10.333,0.667 -20.667,0.667 -31,0 -0.5,-0.5 -1,-1 -1.5,-1.5 -0.667,-21.667 -0.667,-43.333 0,-65 3.005,-2.012 6.171,-3.345 9.5,-4 z"
         id="path310" />
    </g>
    <g
       id="g311"
       style="clip-rule:evenodd;fill-rule:evenodd;image-rendering:optimizeQuality;shape-rendering:geometricPrecision;text-rendering:geometricPrecision"
       transform="matrix(0.23566909,0,0,0.23566909,-23.798935,-80.281429)">
      <path
         style="opacity:1"
         fill="#d73a33"
         d="m 317.5,606.5 c 2.699,-0.034 5.199,0.633 7.5,2 0.667,21 0.667,42 0,63 -10.09,1.152 -20.256,1.319 -30.5,0.5 -1.16,-21.094 -1.326,-42.26 -0.5,-63.5 1.648,-1.217 3.481,-2.05 5.5,-2.5 6.181,-0.819 12.181,-0.653 18,0.5 z"
         id="path311" />
    </g>
    <g
       id="g312"
       style="clip-rule:evenodd;fill-rule:evenodd;image-rendering:optimizeQuality;shape-rendering:geometricPrecision;text-rendering:geometricPrecision"
       transform="matrix(0.23566909,0,0,0.23566909,-23.798935,-80.281429)">
      <path
         style="opacity:1"
         fill="#de3931"
         d="m 317.5,606.5 c 0.683,1.676 2.017,2.343 4,2 -0.004,2.342 -0.837,4.342 -2.5,6 -4.648,-5.606 -10.481,-6.106 -17.5,-1.5 -1.555,1.583 -2.722,3.416 -3.5,5.5 -0.885,4.737 -1.052,9.404 -0.5,14 0,1 0,2 0,3 -0.698,3.397 -1.365,6.897 -2,10.5 0.837,1.011 1.17,2.178 1,3.5 4.479,-0.51 8.312,0.823 11.5,4 2.422,-0.454 4.922,-0.621 7.5,-0.5 9.383,-5.124 11.383,-2.957 6,6.5 1.402,1.342 1.069,2.176 -1,2.5 0.333,0.333 0.667,0.667 1,1 -1.266,0.309 -2.433,0.809 -3.5,1.5 -1.11,-1.537 -2.61,-2.203 -4.5,-2 -0.17,-1.322 0.163,-2.489 1,-3.5 -0.5,-0.5 -1,-1 -1.5,-1.5 -3.301,2.633 -6.468,5.466 -9.5,8.5 0.167,0.5 0.333,1 0.5,1.5 0.837,-1.507 2.004,-2.007 3.5,-1.5 -0.482,1.008 -0.648,2.175 -0.5,3.5 -1.587,-1.227 -2.921,-0.894 -4,1 -0.317,-1.801 -0.984,-2.134 -2,-1 -1,-0.667 -2,-1.333 -3,-2 -1.011,0.837 -2.178,1.17 -3.5,1 0.424,-19.082 0.424,-37.582 0,-55.5 1.123,-1.044 2.456,-1.71 4,-2 -1.333,-1 -1.333,-2 0,-3 6.411,-1.317 12.744,-1.817 19,-1.5 z"
         id="path312" />
    </g>
    <g
       id="g313"
       style="clip-rule:evenodd;fill-rule:evenodd;image-rendering:optimizeQuality;shape-rendering:geometricPrecision;text-rendering:geometricPrecision"
       transform="matrix(0.23566909,0,0,0.23566909,-23.798935,-80.281429)">
      <path
         style="opacity:1"
         fill="#ab261e"
         d="m 297.5,635.5 c 0,-1 0,-2 0,-3 0.292,-6.181 1.792,-12.181 4.5,-18 5.246,-2.898 10.246,-2.564 15,1 0.667,1.333 1.333,2.667 2,4 0.779,7.509 1.613,15.009 2.5,22.5 -0.333,2.167 -0.667,4.333 -1,6.5 -0.751,-0.876 -1.251,-1.876 -1.5,-3 -6.278,6.46 -12.611,6.46 -19,0 -0.249,1.124 -0.749,2.124 -1.5,3 -0.992,-4.283 -1.326,-8.616 -1,-13 z"
         id="path313" />
    </g>
    <g
       id="g314"
       style="clip-rule:evenodd;fill-rule:evenodd;image-rendering:optimizeQuality;shape-rendering:geometricPrecision;text-rendering:geometricPrecision"
       transform="matrix(0.23566909,0,0,0.23566909,-23.798935,-80.281429)">
      <path
         style="opacity:1"
         fill="#e76661"
         d="m 306.5,613.5 c 7.351,-0.821 11.184,2.513 11.5,10 0.667,2.667 0.667,5.333 0,8 -5.367,-4.948 -11.034,-5.281 -17,-1 -1.673,-7.028 0.16,-12.695 5.5,-17 z"
         id="path314" />
    </g>
    <g
       id="g315"
       style="clip-rule:evenodd;fill-rule:evenodd;image-rendering:optimizeQuality;shape-rendering:geometricPrecision;text-rendering:geometricPrecision"
       transform="matrix(0.23566909,0,0,0.23566909,-23.798935,-80.281429)">
      <path
         style="opacity:1"
         fill="#d63d34"
         d="m 287.5,533.5 c 14.333,0 28.667,0 43,0 1.332,10.312 1.999,20.978 2,32 -0.333,10.667 -0.667,21.333 -1,32 -14.68,-6.551 -29.347,-6.551 -44,0 -1.328,-21.496 -1.328,-42.83 0,-64 z"
         id="path315" />
    </g>
    <g
       id="g316"
       style="clip-rule:evenodd;fill-rule:evenodd;image-rendering:optimizeQuality;shape-rendering:geometricPrecision;text-rendering:geometricPrecision"
       transform="matrix(0.23566909,0,0,0.23566909,-23.798935,-80.281429)">
      <path
         style="opacity:1"
         fill="#ad1d15"
         d="m 291.5,539.5 c 11.914,-0.321 23.747,0.012 35.5,1 0.5,14.996 0.667,29.996 0.5,45 -12,0 -24,0 -36,0 0,-15.333 0,-30.667 0,-46 z"
         id="path316" />
    </g>
    <g
       id="g317"
       style="clip-rule:evenodd;fill-rule:evenodd;image-rendering:optimizeQuality;shape-rendering:geometricPrecision;text-rendering:geometricPrecision"
       transform="matrix(0.23566909,0,0,0.23566909,-23.798935,-80.281429)">
      <path
         style="opacity:1"
         fill="#d63932"
         d="m 293.5,574.5 c 5,0 10,0 15,0 0,3.333 0,6.667 0,10 -5.333,0 -10.667,0 -16,0 -0.247,-3.439 0.086,-6.772 1,-10 z"
         id="path317" />
    </g>
    <g
       id="g318"
       style="clip-rule:evenodd;fill-rule:evenodd;image-rendering:optimizeQuality;shape-rendering:geometricPrecision;text-rendering:geometricPrecision"
       transform="matrix(0.23566909,0,0,0.23566909,-23.798935,-80.281429)">
      <path
         style="opacity:1"
         fill="#d63932"
         d="m 310.5,575.5 c 5,0 10,0 15,0 0,2.667 0,5.333 0,8 -5,0 -10,0 -15,0 0,-2.667 0,-5.333 0,-8 z"
         id="path318" />
    </g>
    <g
       id="g319"
       style="clip-rule:evenodd;fill-rule:evenodd;image-rendering:optimizeQuality;shape-rendering:geometricPrecision;text-rendering:geometricPrecision"
       transform="matrix(0.23566909,0,0,0.23566909,-23.798935,-80.281429)">
      <path
         style="opacity:1"
         fill="#d43630"
         d="m 310.5,563.5 c 5.333,0 10.667,0 16,0 0,3.333 0,6.667 0,10 -5.333,0 -10.667,0 -16,0 0,-3.333 0,-6.667 0,-10 z"
         id="path319" />
    </g>
    <g
       id="g320"
       style="clip-rule:evenodd;fill-rule:evenodd;image-rendering:optimizeQuality;shape-rendering:geometricPrecision;text-rendering:geometricPrecision"
       transform="matrix(0.23566909,0,0,0.23566909,-23.798935,-80.281429)">
      <path
         style="opacity:1"
         fill="#d83630"
         d="m 293.5,564.5 c 5,0 10,0 15,0 0,2.667 0,5.333 0,8 -5,0 -10,0 -15,0 0,-2.667 0,-5.333 0,-8 z"
         id="path320" />
    </g>
    <g
       id="g321"
       style="clip-rule:evenodd;fill-rule:evenodd;image-rendering:optimizeQuality;shape-rendering:geometricPrecision;text-rendering:geometricPrecision"
       transform="matrix(0.23566909,0,0,0.23566909,-23.798935,-80.281429)">
      <path
         style="opacity:1"
         fill="#d23932"
         d="m 293.5,552.5 c 5,0 10,0 15,0 0,3 0,6 0,9 -5,0 -10,0 -15,0 0,-3 0,-6 0,-9 z"
         id="path321" />
    </g>
    <g
       id="g322"
       style="clip-rule:evenodd;fill-rule:evenodd;image-rendering:optimizeQuality;shape-rendering:geometricPrecision;text-rendering:geometricPrecision"
       transform="matrix(0.23566909,0,0,0.23566909,-23.798935,-80.281429)">
      <path
         style="opacity:1"
         fill="#d63b34"
         d="m 310.5,552.5 c 5.333,0 10.667,0 16,0 0,3 0,6 0,9 -5.333,0 -10.667,0 -16,0 0,-3 0,-6 0,-9 z"
         id="path322" />
    </g>
    <g
       id="g323"
       style="clip-rule:evenodd;fill-rule:evenodd;image-rendering:optimizeQuality;shape-rendering:geometricPrecision;text-rendering:geometricPrecision"
       transform="matrix(0.23566909,0,0,0.23566909,-23.798935,-80.281429)">
      <path
         style="opacity:1"
         fill="#d23931"
         d="m 310.5,541.5 c 5.333,0 10.667,0 16,0 0,3.333 0,6.667 0,10 -5.333,0 -10.667,0 -16,0 0,-3.333 0,-6.667 0,-10 z"
         id="path323" />
    </g>
    <g
       id="g324"
       style="clip-rule:evenodd;fill-rule:evenodd;image-rendering:optimizeQuality;shape-rendering:geometricPrecision;text-rendering:geometricPrecision"
       transform="matrix(0.23566909,0,0,0.23566909,-23.798935,-80.281429)">
      <path
         style="opacity:1"
         fill="#d73931"
         d="m 293.5,542.5 c 3.35,-0.165 6.683,0.002 10,0.5 1.544,0.29 2.877,0.956 4,2 -10e-4,1.399 -0.335,2.899 -1,4.5 -4.283,0.992 -8.616,1.326 -13,1 0,-2.667 0,-5.333 0,-8 z"
         id="path324" />
    </g>
    <g
       id="g325"
       style="clip-rule:evenodd;fill-rule:evenodd;image-rendering:optimizeQuality;shape-rendering:geometricPrecision;text-rendering:geometricPrecision"
       transform="matrix(0.23566909,0,0,0.23566909,-23.798935,-80.281429)">
      <path
         style="opacity:1"
         fill="#b42119"
         d="m 293.5,493.5 c 0.667,0 1,0.333 1,1 -2.333,0 -4.667,0 -7,0 0,5.667 0,11.333 0,17 3,0 6,0 9,0 0.033,-4.369 -0.3,-8.702 -1,-13 0.617,0.111 1.117,0.444 1.5,1 1.446,4.222 2.28,8.555 2.5,13 1.599,-0.268 2.932,0.066 4,1 -1.333,0 -2.667,0 -4,0 0,6 0,12 0,18 3,0 6,0 9,0 0,-4.667 0,-9.333 0,-14 0.667,0 1.333,0 2,0 0,4.667 0,9.333 0,14 3.333,0 6.667,0 10,0 0,-5.333 0,-10.667 0,-16 0.667,-0.667 1.333,-1.333 2,-2 0,6 0,12 0,18 3.333,0 6.667,0 10,0 -0.667,0.667 -1.333,1.333 -2,2 -14.333,0 -28.667,0 -43,0 0.333,-0.667 0.667,-1.333 1,-2 3,0 6,0 9,0 0.329,-5.706 -0.005,-11.372 -1,-17 -2.921,-0.907 -5.921,-1.24 -9,-1 0,6 0,12 0,18 -0.995,-12.489 -1.329,-25.156 -1,-38 2.333,0 4.667,0 7,0 z"
         id="path325" />
    </g>
    <g
       id="g326"
       style="clip-rule:evenodd;fill-rule:evenodd;image-rendering:optimizeQuality;shape-rendering:geometricPrecision;text-rendering:geometricPrecision"
       transform="matrix(0.23566909,0,0,0.23566909,-23.798935,-80.281429)">
      <path
         style="opacity:1"
         fill="#d63c35"
         d="m 315.5,513.5 c 2.281,-0.423 3.948,0.244 5,2 0,5.333 0,10.667 0,16 -3.333,0 -6.667,0 -10,0 0,-4.667 0,-9.333 0,-14 1.085,-2.087 2.751,-3.42 5,-4 z"
         id="path326" />
    </g>
    <g
       id="g327"
       style="clip-rule:evenodd;fill-rule:evenodd;image-rendering:optimizeQuality;shape-rendering:geometricPrecision;text-rendering:geometricPrecision"
       transform="matrix(0.23566909,0,0,0.23566909,-23.798935,-80.281429)">
      <path
         style="opacity:1"
         fill="#d83d34"
         d="m 303.5,513.5 c 2.249,0.58 3.915,1.913 5,4 0,4.667 0,9.333 0,14 -3,0 -6,0 -9,0 0,-6 0,-12 0,-18 1.333,0 2.667,0 4,0 z"
         id="path327" />
    </g>
    <g
       id="g328"
       style="clip-rule:evenodd;fill-rule:evenodd;image-rendering:optimizeQuality;shape-rendering:geometricPrecision;text-rendering:geometricPrecision"
       transform="matrix(0.23566909,0,0,0.23566909,-23.798935,-80.281429)">
      <path
         style="opacity:1"
         fill="#d43631"
         d="m 288.5,531.5 c -0.333,0 -0.667,0 -1,0 0,-6 0,-12 0,-18 3.079,-0.24 6.079,0.093 9,1 0.995,5.628 1.329,11.294 1,17 -3,0 -6,0 -9,0 z"
         id="path328" />
    </g>
    <g
       id="g329"
       style="clip-rule:evenodd;fill-rule:evenodd;image-rendering:optimizeQuality;shape-rendering:geometricPrecision;text-rendering:geometricPrecision"
       transform="matrix(0.23566909,0,0,0.23566909,-23.798935,-80.281429)">
      <path
         style="opacity:1"
         fill="#d53931"
         d="m 322.5,513.5 c 3.333,0 6.667,0 10,0 0,6 0,12 0,18 -3.333,0 -6.667,0 -10,0 0,-6 0,-12 0,-18 z"
         id="path329" />
    </g>
    <g
       id="g330"
       style="clip-rule:evenodd;fill-rule:evenodd;image-rendering:optimizeQuality;shape-rendering:geometricPrecision;text-rendering:geometricPrecision"
       transform="matrix(0.23566909,0,0,0.23566909,-23.798935,-80.281429)">
      <path
         style="opacity:1"
         fill="#d63d33"
         d="m 326.5,493.5 c 2,0 4,0 6,0 0,6.333 0,12.667 0,19 -3.333,0 -6.667,0 -10,0 0,-3.667 0,-7.333 0,-11 0.396,-3.221 1.729,-5.888 4,-8 z"
         id="path330" />
    </g>
    <g
       id="g331"
       style="clip-rule:evenodd;fill-rule:evenodd;image-rendering:optimizeQuality;shape-rendering:geometricPrecision;text-rendering:geometricPrecision"
       transform="matrix(0.23566909,0,0,0.23566909,-23.798935,-80.281429)">
      <path
         style="opacity:1"
         fill="#d63d34"
         d="m 294.5,494.5 c 0.333,1.333 0.667,2.667 1,4 0.7,4.298 1.033,8.631 1,13 -3,0 -6,0 -9,0 0,-5.667 0,-11.333 0,-17 2.333,0 4.667,0 7,0 z"
         id="path331" />
    </g>
    <g
       id="g332"
       style="clip-rule:evenodd;fill-rule:evenodd;image-rendering:optimizeQuality;shape-rendering:geometricPrecision;text-rendering:geometricPrecision"
       transform="matrix(0.23566909,0,0,0.23566909,-23.798935,-80.281429)">
      <path
         style="opacity:1"
         fill="#8f221f"
         d="m 324.5,486.5 c -0.315,2.711 0.352,5.044 2,7 -2.271,2.112 -3.604,4.779 -4,8 -1.829,3.071 -3.996,6.071 -6.5,9 -0.483,0.948 -0.649,1.948 -0.5,3 -2.249,0.58 -3.915,1.913 -5,4 -0.667,0 -1.333,0 -2,0 -1.085,-2.087 -2.751,-3.42 -5,-4 -1.068,-0.934 -2.401,-1.268 -4,-1 -0.22,-4.445 -1.054,-8.778 -2.5,-13 -0.383,-0.556 -0.883,-0.889 -1.5,-1 -0.333,-1.333 -0.667,-2.667 -1,-4 0,-0.667 -0.333,-1 -1,-1 0.333,-0.667 0.667,-1.333 1,-2 -0.34,-3.631 0.494,-6.964 2.5,-10 3.03,-2.796 5.53,-5.963 7.5,-9.5 4.764,-2.247 8.931,-1.414 12.5,2.5 1.115,2.408 2.782,4.408 5,6 1.122,1.907 1.955,3.907 2.5,6 z"
         id="path332" />
    </g>
    <g
       id="g333"
       style="clip-rule:evenodd;fill-rule:evenodd;image-rendering:optimizeQuality;shape-rendering:geometricPrecision;text-rendering:geometricPrecision"
       transform="matrix(0.23566909,0,0,0.23566909,-23.798935,-80.281429)">
      <path
         style="opacity:1"
         fill="#a64844"
         d="m 321.5,484.5 c 1.145,3.811 1.312,7.811 0.5,12 -2.947,6.91 -7.114,12.91 -12.5,18 -8.763,-7.841 -12.763,-17.507 -12,-29 2.027,-0.162 4.027,0.005 6,0.5 -2.447,1.229 -2.613,2.729 -0.5,4.5 5.345,6.923 10.178,6.423 14.5,-1.5 -1.363,-2.129 -1.029,-2.629 1,-1.5 1.235,-0.84 2.235,-1.84 3,-3 z"
         id="path333" />
    </g>
    <g
       id="g334"
       style="clip-rule:evenodd;fill-rule:evenodd;image-rendering:optimizeQuality;shape-rendering:geometricPrecision;text-rendering:geometricPrecision"
       transform="matrix(0.23566909,0,0,0.23566909,-23.798935,-80.281429)">
      <path
         style="opacity:1"
         fill="#95403f"
         d="m 321.5,484.5 c -0.765,1.16 -1.765,2.16 -3,3 -2.029,-1.129 -2.363,-0.629 -1,1.5 -4.322,7.923 -9.155,8.423 -14.5,1.5 -2.113,-1.771 -1.947,-3.271 0.5,-4.5 -1.973,-0.495 -3.973,-0.662 -6,-0.5 4.194,-7.976 10.528,-10.143 19,-6.5 1.924,1.75 3.591,3.583 5,5.5 z"
         id="path334" />
    </g>
    <g
       id="g335"
       style="clip-rule:evenodd;fill-rule:evenodd;image-rendering:optimizeQuality;shape-rendering:geometricPrecision;text-rendering:geometricPrecision"
       transform="matrix(0.23566909,0,0,0.23566909,-23.798935,-80.281429)">
      <path
         style="opacity:1"
         fill="#f3e2df"
         d="m 307.5,486.5 c 4.623,-1.092 6.456,0.575 5.5,5 -5.58,2.252 -7.413,0.585 -5.5,-5 z"
         id="path335" />
    </g>
    <g
       id="g336"
       style="clip-rule:evenodd;fill-rule:evenodd;image-rendering:optimizeQuality;shape-rendering:geometricPrecision;text-rendering:geometricPrecision"
       transform="matrix(0.23566909,0,0,0.23566909,-23.798935,-80.281429)">
      <path
         style="opacity:1"
         fill="#e76b64"
         d="m 324.5,486.5 c -0.545,-2.093 -1.378,-4.093 -2.5,-6 -2.218,-1.592 -3.885,-3.592 -5,-6 -3.569,-3.914 -7.736,-4.747 -12.5,-2.5 -1.97,3.537 -4.47,6.704 -7.5,9.5 -2.006,3.036 -2.84,6.369 -2.5,10 -2.333,0 -4.667,0 -7,0 0,-8.667 0,-17.333 0,-26 14.69,-4.071 29.356,-3.905 44,0.5 0.983,8.415 1.317,16.915 1,25.5 -2.333,0 -4.667,0 -7,0 0.284,-1.915 -0.049,-3.581 -1,-5 z"
         id="path336" />
    </g>
    <g
       id="g343"
       style="clip-rule:evenodd;fill-rule:evenodd;image-rendering:optimizeQuality;shape-rendering:geometricPrecision;text-rendering:geometricPrecision"
       transform="matrix(0.23566909,0,0,0.23566909,-23.798935,-80.281429)">
      <path
         style="opacity:1"
         fill="#d93c33"
         d="m 273.5,673.5 c 1.667,0 3.333,0 5,0 -0.166,5.011 10e-4,10.011 0.5,15 1.109,2.315 2.943,3.815 5.5,4.5 16.332,1.976 32.665,1.976 49,0 3.048,-0.606 5.548,-2.106 7.5,-4.5 0.499,-4.989 0.666,-9.989 0.5,-15 1.667,0 3.333,0 5,0 0.166,8.007 0,16.007 -0.5,24 -3.401,5.142 -8.234,7.642 -14.5,7.5 -16.694,0.833 -33.361,0.499 -50,-1 -3.062,-1.061 -5.562,-2.894 -7.5,-5.5 -0.5,-8.327 -0.666,-16.66 -0.5,-25 z"
         id="path343" />
    </g>
    <g
       id="g349"
       style="clip-rule:evenodd;fill-rule:evenodd;image-rendering:optimizeQuality;shape-rendering:geometricPrecision;text-rendering:geometricPrecision"
       transform="matrix(0.23566909,0,0,0.23566909,-23.798935,-80.281429)">
      <path
         style="opacity:1"
         fill="#d83a32"
         d="m 346.5,710.5 c 0,0.333 0,0.667 0,1 -2.188,2.681 -4.854,4.848 -8,6.5 -17.664,0.5 -35.33,0.667 -53,0.5 -3.192,0.095 -6.192,-0.571 -9,-2 -2.792,-4.329 -3.458,-8.996 -2,-14 3.567,2.579 7.567,4.079 12,4.5 16.721,2.208 33.387,1.874 50,-1 3.627,-0.564 6.793,-2.064 9.5,-4.5 0.498,2.982 0.665,5.982 0.5,9 z"
         id="path349" />
    </g>
    <g
       id="g355"
       style="clip-rule:evenodd;fill-rule:evenodd;image-rendering:optimizeQuality;shape-rendering:geometricPrecision;text-rendering:geometricPrecision"
       transform="matrix(0.23566909,0,0,0.23566909,-23.798935,-80.281429)">
      <path
         style="opacity:1"
         fill="#ab251f"
         d="m 346.5,711.5 c -0.748,3.917 -3.082,6.417 -7,7.5 -18.171,0.829 -36.171,0.662 -54,-0.5 17.67,0.167 35.336,0 53,-0.5 3.146,-1.652 5.812,-3.819 8,-6.5 z"
         id="path355" />
    </g>
    <g
       id="g356"
       style="clip-rule:evenodd;fill-rule:evenodd;image-rendering:optimizeQuality;shape-rendering:geometricPrecision;text-rendering:geometricPrecision"
       transform="matrix(0.23566909,0,0,0.23566909,-23.798935,-80.281429)">
      <path
         style="opacity:1"
         fill="#93241e"
         d="m 348.5,671.5 c 0,13.333 0,26.667 0,40 -1.333,4.667 -4.333,7.667 -9,9 -19.336,0.167 -38.67,0 -58,-0.5 -2.381,-0.223 -4.047,-1.39 -5,-3.5 2.808,1.429 5.808,2.095 9,2 17.829,1.162 35.829,1.329 54,0.5 3.918,-1.083 6.252,-3.583 7,-7.5 0,-0.333 0,-0.667 0,-1 0.667,-13 1.333,-26 2,-39 z"
         id="path356" />
    </g>
  </g>
</svg>
