<?xml version="1.0" encoding="UTF-8" standalone="no"?>
<!-- Created with Inkscape (http://www.inkscape.org/) -->

<svg
   width="96mm"
   height="96mm"
   viewBox="0 0 96 96"
   version="1.1"
   id="svg1"
   inkscape:version="1.4.2 (ebf0e940, 2025-05-08)"
   sodipodi:docname="taxi.svg"
   xmlns:inkscape="http://www.inkscape.org/namespaces/inkscape"
   xmlns:sodipodi="http://sodipodi.sourceforge.net/DTD/sodipodi-0.dtd"
   xmlns="http://www.w3.org/2000/svg"
   xmlns:svg="http://www.w3.org/2000/svg">
  <sodipodi:namedview
     id="namedview1"
     pagecolor="#ffffff"
     bordercolor="#000000"
     borderopacity="0.25"
     inkscape:showpageshadow="2"
     inkscape:pageopacity="0.0"
     inkscape:pagecheckerboard="0"
     inkscape:deskcolor="#d1d1d1"
     inkscape:document-units="mm"
     inkscape:zoom="0.80444024"
     inkscape:cx="397.17059"
     inkscape:cy="362.36377"
     inkscape:window-width="1920"
     inkscape:window-height="1052"
     inkscape:window-x="0"
     inkscape:window-y="28"
     inkscape:window-maximized="0"
     inkscape:current-layer="layer1" />
  <defs
     id="defs1" />
  <g
     inkscape:label="Layer 1"
     inkscape:groupmode="layer"
     id="layer1">
    <g
       id="g8"
       style="clip-rule:evenodd;fill-rule:evenodd;image-rendering:optimizeQuality;shape-rendering:geometricPrecision;text-rendering:geometricPrecision"
       transform="matrix(0.31940061,0,0,0.31940061,-122.91128,-5.7308659)">
      <path
         style="opacity:1"
         fill="#f4dadb"
         d="m 585.5,63.5 c -3.623,-6.4511 -8.957,-10.9511 -16,-13.5 -20.591,-5.5754 -41.258,-5.9087 -62,-1 -7.257,2.4344 -13.257,6.6011 -18,12.5 -0.143,-1.7624 0.191,-3.4291 1,-5 3.464,-2.8039 6.964,-5.4705 10.5,-8 0.414,0.4574 0.914,0.7907 1.5,1 9,-4.1518 18.5,-6.4851 28.5,-7 12.49,1.129 24.99,2.629 37.5,4.5 3.871,3.066 8.205,5.3994 13,7 2.788,2.5232 4.121,5.6899 4,9.5 z"
         id="path8" />
    </g>
    <g
       id="g16"
       style="clip-rule:evenodd;fill-rule:evenodd;image-rendering:optimizeQuality;shape-rendering:geometricPrecision;text-rendering:geometricPrecision"
       transform="matrix(0.31940061,0,0,0.31940061,-122.91128,-5.7308659)">
      <path
         style="opacity:1"
         fill="#7d2f31"
         d="m 585.5,63.5 c 0.795,7.1069 2.129,14.1069 4,21 0.118,14.0347 1.118,27.701 3,41 2.368,1.283 4.535,2.95 6.5,5 0.667,2.667 0.667,5.333 0,8 -1.356,0.88 -2.856,1.214 -4.5,1 -0.342,-0.838 -1.008,-1.172 -2,-1 -0.06,-0.543 -0.393,-0.876 -1,-1 -1,26.658 -1.333,53.325 -1,80 0,3.333 0,6.667 0,10 -0.903,11.166 -1.57,22.5 -2,34 -1.748,4.815 -2.748,9.815 -3,15 -3.566,6.571 -8.899,10.904 -16,13 -0.667,0 -1.333,0 -2,0 -20.138,3.965 -40.138,3.965 -60,0 1.699,0.16 3.366,-0.006 5,-0.5 -0.691,-2.98 -1.691,-5.814 -3,-8.5 1.333,0.667 2.333,1.667 3,3 -0.17,1.322 0.163,2.489 1,3.5 3.614,0.936 7.28,1.436 11,1.5 4.822,0.666 9.822,0.999 15,1 6.911,0.224 13.578,-0.442 20,-2 1.934,-2.26 3.601,-4.76 5,-7.5 1.654,-0.608 3.321,-1.108 5,-1.5 -3.486,2.332 -6.152,5.498 -8,9.5 8.245,0.629 15.078,-2.204 20.5,-8.5 1.15,-2.254 1.484,-4.587 1,-7 -1.725,0.964 -3.559,1.631 -5.5,2 0,-0.333 0,-0.667 0,-1 1.17,-1.779 2.836,-2.779 5,-3 0.986,-3.943 1.652,-7.943 2,-12 0.823,-3.477 1.323,-7.144 1.5,-11 0.5,-12.662 0.667,-25.329 0.5,-38 0.998,-24.494 1.331,-49.161 1,-74 1.809,-0.791 3.809,-0.791 6,0 1,0 2,0 3,0 0.203,-1.89 -0.463,-3.39 -2,-4.5 -2.417,-1.626 -4.917,-3.126 -7.5,-4.5 -0.275,-12.02 -0.775,-24.02 -1.5,-36 0.124,-5.5687 -0.543,-10.902 -2,-16 0.241,-10.2069 -4.426,-16.8736 -14,-20 -5.39,-2.346 -11.057,-3.6793 -17,-4 -15.393,-3.0112 -30.727,-2.1779 -46,2.5 -8.302,2.6329 -13.469,8.1329 -15.5,16.5 -2.155,10.8981 -3.322,21.8981 -3.5,33 0,2.333 0,4.667 0,7 -0.667,5.514 -1.333,11.181 -2,17 -0.999,-9.978 -1.332,-19.978 -1,-30 0,-1 0,-2 0,-3 1.531,-4.7502 2.198,-9.7502 2,-15 0.204,-5.8135 1.204,-11.4802 3,-17 4.743,-5.8989 10.743,-10.0656 18,-12.5 20.742,-4.9087 41.409,-4.5754 62,1 7.043,2.5489 12.377,7.0489 16,13.5 z"
         id="path16" />
    </g>
    <g
       id="g17"
       style="clip-rule:evenodd;fill-rule:evenodd;image-rendering:optimizeQuality;shape-rendering:geometricPrecision;text-rendering:geometricPrecision"
       transform="matrix(0.31940061,0,0,0.31940061,-122.91128,-5.7308659)">
      <path
         style="opacity:1"
         fill="#962f35"
         d="m 524.5,52.5 c 8.538,-1.2885 17.205,-1.2885 26,0 0.667,0 1,0.3333 1,1 -2.148,-0.1106 -2.481,0.556 -1,2 -9.333,1.3333 -18.667,1.3333 -28,0 0.525,-0.6924 1.192,-1.1924 2,-1.5 30.659,-0.8328 30.659,-1.3328 0,-1.5 z"
         id="path17" />
    </g>
    <g
       id="g19"
       style="clip-rule:evenodd;fill-rule:evenodd;image-rendering:optimizeQuality;shape-rendering:geometricPrecision;text-rendering:geometricPrecision"
       transform="matrix(0.31940061,0,0,0.31940061,-122.91128,-5.7308659)">
      <path
         style="opacity:1"
         fill="#f9f7f7"
         d="m 520.5,54.5 c 0,0.3333 0,0.6667 0,1 -0.904,0.709 -1.237,1.709 -1,3 11.822,0.9951 23.822,1.3284 36,1 0.237,-1.291 -0.096,-2.291 -1,-3 0,-0.3333 0,-0.6667 0,-1 0,-1 0,-2 0,-3 1.667,0 3.333,0 5,0 0.48,3.1852 -0.186,6.0185 -2,8.5 0.333,0.3333 0.667,0.6667 1,1 -0.948,0.4828 -1.948,0.6495 -3,0.5 -0.306,2.8854 0.027,5.5521 1,8 2.953,9.4092 5.286,19.0759 7,29 0.174,2.361 0.507,4.694 1,7 1,0 2,0 3,0 -0.214,-1.644 0.12,-3.144 1,-4.5 -2.818,-10.1613 -5.151,-20.4946 -7,-31 0.255,-1.3261 0.922,-2.3261 2,-3 -0.333,-0.3333 -0.667,-0.6667 -1,-1 3.493,-1.0037 6.659,-0.5037 9.5,1.5 2.342,15.4897 4.175,31.1564 5.5,47 -2.306,-0.493 -4.639,-0.826 -7,-1 -2.267,-2.278 -4.933,-4.111 -8,-5.5 -11.027,-1.492 -21.194,-2.659 -30.5,-3.5 -11.507,2.693 -23.007,5.026 -34.5,7 1.048,-14.3249 2.215,-28.6582 3.5,-43 1.171,-1.3932 2.671,-2.2265 4.5,-2.5 1.248,-1.3997 2.248,-2.8997 3,-4.5 1.855,-1.1896 3.688,-2.5229 5.5,-4 0.765,-1.5657 0.598,-2.8991 -0.5,-4 -0.086,-0.9959 0.248,-1.8292 1,-2.5 1.973,-0.4955 3.973,-0.6621 6,-0.5 0,1 0,2 0,3 z"
         id="path19" />
    </g>
    <g
       id="g20"
       style="clip-rule:evenodd;fill-rule:evenodd;image-rendering:optimizeQuality;shape-rendering:geometricPrecision;text-rendering:geometricPrecision"
       transform="matrix(0.31940061,0,0,0.31940061,-122.91128,-5.7308659)">
      <path
         style="opacity:1"
         fill="#73191d"
         d="m 524.5,52.5 c 30.659,0.1672 30.659,0.6672 0,1.5 -0.808,0.3076 -1.475,0.8076 -2,1.5 9.333,1.3333 18.667,1.3333 28,0 -1.481,-1.444 -1.148,-2.1106 1,-2 0.011,1.5174 0.677,2.6841 2,3.5 -5.5,0.1667 -11,0.3333 -16.5,0.5 -5.876,-0.0048 -11.376,-0.6714 -16.5,-2 0,-0.3333 0,-0.6667 0,-1 1.105,-1.1005 2.438,-1.7671 4,-2 z"
         id="path20" />
    </g>
    <g
       id="g23"
       style="clip-rule:evenodd;fill-rule:evenodd;image-rendering:optimizeQuality;shape-rendering:geometricPrecision;text-rendering:geometricPrecision"
       transform="matrix(0.31940061,0,0,0.31940061,-122.91128,-5.7308659)">
      <path
         style="opacity:1"
         fill="#8b464b"
         d="m 551.5,53.5 c 1,0.6667 2,1.3333 3,2 0,0.3333 0,0.6667 0,1 -11.285,1.9784 -22.952,2.6451 -35,2 -0.237,-1.291 0.096,-2.291 1,-3 5.124,1.3286 10.624,1.9952 16.5,2 5.5,-0.1667 11,-0.3333 16.5,-0.5 -1.323,-0.8159 -1.989,-1.9826 -2,-3.5 z"
         id="path23" />
    </g>
    <g
       id="g24"
       style="clip-rule:evenodd;fill-rule:evenodd;image-rendering:optimizeQuality;shape-rendering:geometricPrecision;text-rendering:geometricPrecision"
       transform="matrix(0.31940061,0,0,0.31940061,-122.91128,-5.7308659)">
      <path
         style="opacity:1"
         fill="#eca9ad"
         d="m 569.5,54.5 c 9.574,3.1264 14.241,9.7931 14,20 -0.6,-1.4002 -1.6,-2.4002 -3,-3 -0.693,-8.3539 -5.026,-13.6872 -13,-16 0.992,0.1716 1.658,-0.1618 2,-1 z"
         id="path24" />
    </g>
    <g
       id="g25"
       style="clip-rule:evenodd;fill-rule:evenodd;image-rendering:optimizeQuality;shape-rendering:geometricPrecision;text-rendering:geometricPrecision"
       transform="matrix(0.31940061,0,0,0.31940061,-122.91128,-5.7308659)">
      <path
         style="opacity:1"
         fill="#873637"
         d="m 513.5,54.5 c 1.098,1.1009 1.265,2.4343 0.5,4 -1.812,1.4771 -3.645,2.8104 -5.5,4 -5.624,1.6153 -8.624,5.2819 -9,11 -0.661,-1.2175 -1.328,-2.5508 -2,-4 -0.607,0.1236 -0.94,0.4569 -1,1 -0.891,0.6098 -1.891,0.9431 -3,1 -0.237,-1.291 0.096,-2.291 1,-3 1.373,0.1567 2.707,-0.01 4,-0.5 2.905,-3.7897 6.572,-6.623 11,-8.5 1.141,-0.9255 1.141,-1.7588 0,-2.5 -1.293,-0.49 -2.627,-0.6567 -4,-0.5 2.338,-1.5395 5.005,-2.2062 8,-2 z"
         id="path25" />
    </g>
    <g
       id="g26"
       style="clip-rule:evenodd;fill-rule:evenodd;image-rendering:optimizeQuality;shape-rendering:geometricPrecision;text-rendering:geometricPrecision"
       transform="matrix(0.31940061,0,0,0.31940061,-122.91128,-5.7308659)">
      <path
         style="opacity:1"
         fill="#f0c2c5"
         d="m 554.5,56.5 c 0.904,0.709 1.237,1.709 1,3 -12.178,0.3284 -24.178,-0.0049 -36,-1 12.048,0.6451 23.715,-0.0216 35,-2 z"
         id="path26" />
    </g>
    <g
       id="g30"
       style="clip-rule:evenodd;fill-rule:evenodd;image-rendering:optimizeQuality;shape-rendering:geometricPrecision;text-rendering:geometricPrecision"
       transform="matrix(0.31940061,0,0,0.31940061,-122.91128,-5.7308659)">
      <path
         style="opacity:1"
         fill="#e6a7ac"
         d="m 552.5,50.5 c -1.333,0 -2,0.6667 -2,2 -8.795,-1.2885 -17.462,-1.2885 -26,0 -1.562,0.2329 -2.895,0.8995 -4,2 0,-1 0,-2 0,-3 -2.027,-0.1621 -4.027,0.0045 -6,0.5 -0.752,0.6708 -1.086,1.5041 -1,2.5 -2.995,-0.2062 -5.662,0.4605 -8,2 -6.495,1.4918 -10.162,5.4918 -11,12 -0.904,0.709 -1.237,1.709 -1,3 -1.277,1.1936 -1.944,2.8603 -2,5 -1.63,8.7535 -2.963,17.4202 -4,26 0.178,-11.1019 1.345,-22.1019 3.5,-33 2.031,-8.3671 7.198,-13.8671 15.5,-16.5 15.273,-4.6779 30.607,-5.5112 46,-2.5 z"
         id="path30" />
    </g>
    <g
       id="g34"
       style="clip-rule:evenodd;fill-rule:evenodd;image-rendering:optimizeQuality;shape-rendering:geometricPrecision;text-rendering:geometricPrecision"
       transform="matrix(0.31940061,0,0,0.31940061,-122.91128,-5.7308659)">
      <path
         style="opacity:1"
         fill="#8e2125"
         d="m 505.5,56.5 c 1.373,-0.1567 2.707,0.01 4,0.5 1.141,0.7412 1.141,1.5745 0,2.5 -4.428,1.877 -8.095,4.7103 -11,8.5 -1.293,0.49 -2.627,0.6567 -4,0.5 0.838,-6.5082 4.505,-10.5082 11,-12 z"
         id="path34" />
    </g>
    <g
       id="g36"
       style="clip-rule:evenodd;fill-rule:evenodd;image-rendering:optimizeQuality;shape-rendering:geometricPrecision;text-rendering:geometricPrecision"
       transform="matrix(0.31940061,0,0,0.31940061,-122.91128,-5.7308659)">
      <path
         style="opacity:1"
         fill="#8d2d2f"
         d="m 567.5,55.5 c 7.974,2.3128 12.307,7.6461 13,16 -1.527,0.073 -2.527,-0.5937 -3,-2 -1.171,-0.8446 -2.505,-1.5113 -4,-2 -3.306,-2.6577 -6.973,-4.8244 -11,-6.5 -1.729,-1.7889 -2.396,-3.9556 -2,-6.5 2.361,0.1741 4.694,0.5074 7,1 z"
         id="path36" />
    </g>
    <g
       id="g40"
       style="clip-rule:evenodd;fill-rule:evenodd;image-rendering:optimizeQuality;shape-rendering:geometricPrecision;text-rendering:geometricPrecision"
       transform="matrix(0.31940061,0,0,0.31940061,-122.91128,-5.7308659)">
      <path
         style="opacity:1"
         fill="#866465"
         d="m 516.5,64.5 c 0.876,-0.1309 1.543,0.2025 2,1 -3.537,13.2786 -6.87,26.6119 -10,40 -0.333,-0.5 -0.667,-1 -1,-1.5 3.084,-13.1678 6.084,-26.3345 9,-39.5 z"
         id="path40" />
    </g>
    <g
       id="g53"
       style="clip-rule:evenodd;fill-rule:evenodd;image-rendering:optimizeQuality;shape-rendering:geometricPrecision;text-rendering:geometricPrecision"
       transform="matrix(0.31940061,0,0,0.31940061,-122.91128,-5.7308659)">
      <path
         style="opacity:1"
         fill="#f5d6d7"
         d="m 489.5,61.5 c -1.796,5.5198 -2.796,11.1865 -3,17 -1.389,4.7688 -2.056,9.7688 -2,15 0,1 0,2 0,3 -0.83,9.491 -1.33,19.158 -1.5,29 -7.926,1.759 -10.426,6.426 -7.5,14 -0.996,0.086 -1.829,-0.248 -2.5,-1 -1.369,-4.937 -0.203,-9.104 3.5,-12.5 1.864,-1.406 3.697,-1.906 5.5,-1.5 0.212,-15.706 1.046,-31.3724 2.5,-47 -0.121,-1.3945 -0.454,-2.7278 -1,-4 1.708,-4.2508 3.708,-8.2508 6,-12 z"
         id="path53" />
    </g>
    <g
       id="g60"
       style="clip-rule:evenodd;fill-rule:evenodd;image-rendering:optimizeQuality;shape-rendering:geometricPrecision;text-rendering:geometricPrecision"
       transform="matrix(0.31940061,0,0,0.31940061,-122.91128,-5.7308659)">
      <path
         style="opacity:1"
         fill="#8a6869"
         d="m 563.5,99.5 c -1.714,-9.9241 -4.047,-19.5908 -7,-29 -0.299,-2.104 0.034,-4.104 1,-6 2.839,12.8668 5.839,25.7002 9,38.5 -0.167,0.833 -0.333,1.667 -0.5,2.5 -0.566,-2.223 -1.4,-4.223 -2.5,-6 z"
         id="path60" />
    </g>
    <g
       id="g61"
       style="clip-rule:evenodd;fill-rule:evenodd;image-rendering:optimizeQuality;shape-rendering:geometricPrecision;text-rendering:geometricPrecision"
       transform="matrix(0.31940061,0,0,0.31940061,-122.91128,-5.7308659)">
      <path
         style="opacity:1"
         fill="#dca7a8"
         d="m 583.5,74.5 c 1.457,5.098 2.124,10.4313 2,16 -1.306,-5.1161 -1.973,-10.4494 -2,-16 z"
         id="path61" />
    </g>
    <g
       id="g68"
       style="clip-rule:evenodd;fill-rule:evenodd;image-rendering:optimizeQuality;shape-rendering:geometricPrecision;text-rendering:geometricPrecision"
       transform="matrix(0.31940061,0,0,0.31940061,-122.91128,-5.7308659)">
      <path
         style="opacity:1"
         fill="#916467"
         d="m 496.5,70.5 c 0.06,-0.5431 0.393,-0.8764 1,-1 0.672,1.4492 1.339,2.7825 2,4 -2.313,14.5669 -3.647,29.234 -4,44 -0.904,0.709 -1.237,1.709 -1,3 -0.968,-2.107 -1.302,-4.441 -1,-7 0.739,-13.057 2.072,-26.0567 4,-39 -0.011,-1.5451 -0.344,-2.8784 -1,-4 z"
         id="path68" />
    </g>
    <g
       id="g71"
       style="clip-rule:evenodd;fill-rule:evenodd;image-rendering:optimizeQuality;shape-rendering:geometricPrecision;text-rendering:geometricPrecision"
       transform="matrix(0.31940061,0,0,0.31940061,-122.91128,-5.7308659)">
      <path
         style="opacity:1"
         fill="#ad6b6d"
         d="m 486.5,78.5 c 0.198,5.2498 -0.469,10.2498 -2,15 -0.056,-5.2312 0.611,-10.2312 2,-15 z"
         id="path71" />
    </g>
    <g
       id="g72"
       style="clip-rule:evenodd;fill-rule:evenodd;image-rendering:optimizeQuality;shape-rendering:geometricPrecision;text-rendering:geometricPrecision"
       transform="matrix(0.31940061,0,0,0.31940061,-122.91128,-5.7308659)">
      <path
         style="opacity:1"
         fill="#f1dadb"
         d="m 552.5,50.5 c 5.943,0.3207 11.61,1.654 17,4 -0.342,0.8382 -1.008,1.1716 -2,1 -2.306,-0.4926 -4.639,-0.8259 -7,-1 -0.396,2.5444 0.271,4.7111 2,6.5 4.027,1.6756 7.694,3.8423 11,6.5 2.589,14.706 4.255,29.5393 5,44.5 -0.047,2.295 -0.713,4.129 -2,5.5 -0.333,0 -0.667,0 -1,0 -1.572,-1.187 -3.239,-2.187 -5,-3 2.361,0.174 4.694,0.507 7,1 -1.325,-15.8436 -3.158,-31.5103 -5.5,-47 -2.841,-2.0037 -6.007,-2.5037 -9.5,-1.5 0.333,0.3333 0.667,0.6667 1,1 -1.078,0.6739 -1.745,1.6739 -2,3 1.849,10.5054 4.182,20.8387 7,31 -0.88,1.356 -1.214,2.856 -1,4.5 -1,0 -2,0 -3,0 -0.493,-2.306 -0.826,-4.639 -1,-7 1.1,1.777 1.934,3.777 2.5,6 0.167,-0.833 0.333,-1.667 0.5,-2.5 -3.161,-12.7998 -6.161,-25.6332 -9,-38.5 -0.966,1.896 -1.299,3.896 -1,6 -0.973,-2.4479 -1.306,-5.1146 -1,-8 1.052,0.1495 2.052,-0.0172 3,-0.5 -0.333,-0.3333 -0.667,-0.6667 -1,-1 1.814,-2.4815 2.48,-5.3148 2,-8.5 -1.667,0 -3.333,0 -5,0 0,1 0,2 0,3 -1,-0.6667 -2,-1.3333 -3,-2 0,-0.6667 -0.333,-1 -1,-1 0,-1.3333 0.667,-2 2,-2 z"
         id="path72" />
    </g>
    <g
       id="g77"
       style="clip-rule:evenodd;fill-rule:evenodd;image-rendering:optimizeQuality;shape-rendering:geometricPrecision;text-rendering:geometricPrecision"
       transform="matrix(0.31940061,0,0,0.31940061,-122.91128,-5.7308659)">
      <path
         style="opacity:1"
         fill="#8d686a"
         d="m 573.5,67.5 c 1.495,0.4887 2.829,1.1554 4,2 -0.876,-0.1309 -1.543,0.2025 -2,1 2.98,15.1754 4.647,30.509 5,46 0.295,2.235 -0.039,4.235 -1,6 0.343,-1.983 -0.324,-3.317 -2,-4 -0.667,0 -1,-0.333 -1,-1 1.287,-1.371 1.953,-3.205 2,-5.5 -0.745,-14.9607 -2.411,-29.794 -5,-44.5 z"
         id="path77" />
    </g>
    <g
       id="g78"
       style="clip-rule:evenodd;fill-rule:evenodd;image-rendering:optimizeQuality;shape-rendering:geometricPrecision;text-rendering:geometricPrecision"
       transform="matrix(0.31940061,0,0,0.31940061,-122.91128,-5.7308659)">
      <path
         style="opacity:1"
         fill="#f4ccce"
         d="m 589.5,84.5 c 0.809,1.7922 1.309,3.7922 1.5,6 0.188,11.742 0.688,23.409 1.5,35 -1.882,-13.299 -2.882,-26.9653 -3,-41 z"
         id="path78" />
    </g>
    <g
       id="g89"
       style="clip-rule:evenodd;fill-rule:evenodd;image-rendering:optimizeQuality;shape-rendering:geometricPrecision;text-rendering:geometricPrecision"
       transform="matrix(0.31940061,0,0,0.31940061,-122.91128,-5.7308659)">
      <path
         style="opacity:1"
         fill="#f2d6d7"
         d="m 508.5,62.5 c -0.752,1.6003 -1.752,3.1003 -3,4.5 -1.829,0.2735 -3.329,1.1068 -4.5,2.5 -1.285,14.3418 -2.452,28.6751 -3.5,43 11.493,-1.974 22.993,-4.307 34.5,-7 9.306,0.841 19.473,2.008 30.5,3.5 3.067,1.389 5.733,3.222 8,5.5 -25.443,-7.567 -50.443,-6.567 -75,3 0.353,-14.766 1.687,-29.4331 4,-44 0.376,-5.7181 3.376,-9.3847 9,-11 z"
         id="path89" />
    </g>
    <g
       id="g93"
       style="clip-rule:evenodd;fill-rule:evenodd;image-rendering:optimizeQuality;shape-rendering:geometricPrecision;text-rendering:geometricPrecision"
       transform="matrix(0.31940061,0,0,0.31940061,-122.91128,-5.7308659)">
      <path
         style="opacity:1"
         fill="#a62126"
         d="m 575.5,117.5 c 0.333,0 0.667,0 1,0 0,0.667 0.333,1 1,1 -0.701,7.604 -2.534,14.938 -5.5,22 -0.574,1.992 -1.741,3.492 -3.5,4.5 -10.104,-1.083 -20.271,-1.916 -30.5,-2.5 -6.731,-0.147 -13.231,0.52 -19.5,2 -4.912,0.737 -9.746,0.737 -14.5,0 -2.794,-7.047 -5.461,-14.047 -8,-21 -0.494,-1.634 -0.66,-3.301 -0.5,-5 8.7,-1.843 17.367,-4.009 26,-6.5 11.372,-0.826 22.706,-0.492 34,1 6.789,1.245 13.455,2.745 20,4.5 z"
         id="path93" />
    </g>
    <g
       id="g96"
       style="clip-rule:evenodd;fill-rule:evenodd;image-rendering:optimizeQuality;shape-rendering:geometricPrecision;text-rendering:geometricPrecision"
       transform="matrix(0.31940061,0,0,0.31940061,-122.91128,-5.7308659)">
      <path
         style="opacity:1"
         fill="#892c2d"
         d="m 570.5,114.5 c 1.761,0.813 3.428,1.813 5,3 -6.545,-1.755 -13.211,-3.255 -20,-4.5 -11.294,-1.492 -22.628,-1.826 -34,-1 -8.633,2.491 -17.3,4.657 -26,6.5 -0.16,1.699 0.006,3.366 0.5,5 2.539,6.953 5.206,13.953 8,21 4.754,0.737 9.588,0.737 14.5,0 -2.813,0.582 -5.48,1.582 -8,3 -2.449,0.557 -4.782,0.557 -7,0 -3.474,-8.922 -6.474,-17.922 -9,-27 -0.237,-1.291 0.096,-2.291 1,-3 24.557,-9.567 49.557,-10.567 75,-3 z"
         id="path96" />
    </g>
    <g
       id="g98"
       style="clip-rule:evenodd;fill-rule:evenodd;image-rendering:optimizeQuality;shape-rendering:geometricPrecision;text-rendering:geometricPrecision"
       transform="matrix(0.31940061,0,0,0.31940061,-122.91128,-5.7308659)">
      <path
         style="opacity:1"
         fill="#f8e8e9"
         d="m 577.5,69.5 c 0.473,1.4063 1.473,2.073 3,2 1.4,0.5998 2.4,1.5998 3,3 0.027,5.5506 0.694,10.8839 2,16 0.725,11.98 1.225,23.98 1.5,36 2.583,1.374 5.083,2.874 7.5,4.5 1.537,1.11 2.203,2.61 2,4.5 -1,0 -2,0 -3,0 -3.52,-1.438 -7.02,-3.105 -10.5,-5 -1.659,1.316 -2.825,2.982 -3.5,5 -1.601,1.143 -2.267,0.476 -2,-2 0.347,-3.028 1.514,-5.694 3.5,-8 0.805,-3.196 0.638,-6.196 -0.5,-9 -0.353,-15.491 -2.02,-30.8246 -5,-46 0.457,-0.7975 1.124,-1.1309 2,-1 z"
         id="path98" />
    </g>
    <g
       id="g99"
       style="clip-rule:evenodd;fill-rule:evenodd;image-rendering:optimizeQuality;shape-rendering:geometricPrecision;text-rendering:geometricPrecision"
       transform="matrix(0.31940061,0,0,0.31940061,-122.91128,-5.7308659)">
      <path
         style="opacity:1"
         fill="#f7e9eb"
         d="m 496.5,70.5 c 0.656,1.1216 0.989,2.4549 1,4 -1.928,12.9433 -3.261,25.943 -4,39 -0.546,5.653 -1.546,11.319 -3,17 -1.761,0.813 -3.428,1.813 -5,3 -1.109,0.057 -2.109,0.39 -3,1 -1.083,0.039 -2.083,0.373 -3,1 -0.578,-5.427 2.089,-8.093 8,-8 0,-6 0,-12 0,-18 0,-2.333 0,-4.667 0,-7 1.037,-8.5798 2.37,-17.2465 4,-26 0.056,-2.1397 0.723,-3.8064 2,-5 1.109,-0.0569 2.109,-0.3902 3,-1 z"
         id="path99" />
    </g>
    <g
       id="g105"
       style="clip-rule:evenodd;fill-rule:evenodd;image-rendering:optimizeQuality;shape-rendering:geometricPrecision;text-rendering:geometricPrecision"
       transform="matrix(0.31940061,0,0,0.31940061,-122.91128,-5.7308659)">
      <path
         style="opacity:1"
         fill="#944b4c"
         d="m 484.5,96.5 c -0.332,10.022 10e-4,20.022 1,30 0.667,-5.819 1.333,-11.486 2,-17 0,6 0,12 0,18 -5.911,-0.093 -8.578,2.573 -8,8 0.917,-0.627 1.917,-0.961 3,-1 -0.971,1.462 -0.638,2.795 1,4 -1.599,-0.268 -2.932,0.066 -4,1 -1.333,0 -2.667,0 -4,0 -2.926,-7.574 -0.426,-12.241 7.5,-14 0.17,-9.842 0.67,-19.509 1.5,-29 z"
         id="path105" />
    </g>
    <g
       id="g113"
       style="clip-rule:evenodd;fill-rule:evenodd;image-rendering:optimizeQuality;shape-rendering:geometricPrecision;text-rendering:geometricPrecision"
       transform="matrix(0.31940061,0,0,0.31940061,-122.91128,-5.7308659)">
      <path
         style="opacity:1"
         fill="#ebc8cb"
         d="m 493.5,113.5 c -0.302,2.559 0.032,4.893 1,7 2.526,9.078 5.526,18.078 9,27 2.218,0.557 4.551,0.557 7,0 -2.292,1.767 -4.958,2.767 -8,3 0,2.667 0,5.333 0,8 0.329,14.843 -0.004,29.51 -1,44 0.167,-15.337 0,-30.67 -0.5,-46 -0.43,-5.12 -1.93,-9.787 -4.5,-14 -0.536,-3.055 -1.369,-6.055 -2.5,-9 -0.422,-1.926 -1.589,-2.926 -3.5,-3 1.454,-5.681 2.454,-11.347 3,-17 z"
         id="path113" />
    </g>
    <g
       id="g114"
       style="clip-rule:evenodd;fill-rule:evenodd;image-rendering:optimizeQuality;shape-rendering:geometricPrecision;text-rendering:geometricPrecision"
       transform="matrix(0.31940061,0,0,0.31940061,-122.91128,-5.7308659)">
      <path
         style="opacity:1"
         fill="#8a3c41"
         d="m 593.5,135.5 c -2.191,-0.791 -4.191,-0.791 -6,0 -0.982,-0.641 -1.982,-1.307 -3,-2 -0.886,0.825 -1.219,1.825 -1,3 0,2 0,4 0,6 -0.667,-0.667 -1.333,-1.333 -2,-2 -0.31,-1.238 -0.81,-1.238 -1.5,0 -0.24,2.352 -1.073,4.352 -2.5,6 -1,2 -2,4 -3,6 1.846,-5.546 3.513,-11.213 5,-17 0.675,-2.018 1.841,-3.684 3.5,-5 3.48,1.895 6.98,3.562 10.5,5 z"
         id="path114" />
    </g>
    <g
       id="g117"
       style="clip-rule:evenodd;fill-rule:evenodd;image-rendering:optimizeQuality;shape-rendering:geometricPrecision;text-rendering:geometricPrecision"
       transform="matrix(0.31940061,0,0,0.31940061,-122.91128,-5.7308659)">
      <path
         style="opacity:1"
         fill="#8e2e31"
         d="m 577.5,118.5 c 1.676,0.683 2.343,2.017 2,4 -2.33,5.825 -4.163,11.825 -5.5,18 -1.178,3.033 -2.844,5.699 -5,8 -16.628,-3.609 -33.462,-4.943 -50.5,-4 6.269,-1.48 12.769,-2.147 19.5,-2 10.229,0.584 20.396,1.417 30.5,2.5 1.759,-1.008 2.926,-2.508 3.5,-4.5 2.966,-7.062 4.799,-14.396 5.5,-22 z"
         id="path117" />
    </g>
    <g
       id="g118"
       style="clip-rule:evenodd;fill-rule:evenodd;image-rendering:optimizeQuality;shape-rendering:geometricPrecision;text-rendering:geometricPrecision"
       transform="matrix(0.31940061,0,0,0.31940061,-122.91128,-5.7308659)">
      <path
         style="opacity:1"
         fill="#f5d8db"
         d="m 580.5,116.5 c 1.138,2.804 1.305,5.804 0.5,9 -1.986,2.306 -3.153,4.972 -3.5,8 -0.267,2.476 0.399,3.143 2,2 -1.487,5.787 -3.154,11.454 -5,17 -0.495,1.982 -0.995,3.982 -1.5,6 -0.667,16.667 -0.667,33.333 0,50 0.725,3.29 1.892,6.29 3.5,9 -0.172,0.992 0.162,1.658 1,2 0.333,1.333 0.667,2.667 1,4 -3.647,-2.016 -5.647,-1.016 -6,3 2.628,5.64 3.962,11.64 4,18 -2.903,-6.708 -5.236,-13.708 -7,-21 -3.986,-0.565 -7.986,-0.232 -12,1 -0.333,0 -0.667,0 -1,0 1.1,-1.058 2.434,-1.892 4,-2.5 3.986,-0.499 7.986,-0.666 12,-0.5 -1.098,-8.373 -2.098,-16.873 -3,-25.5 1.33,-13.277 1.33,-26.277 0,-39 1.281,-2.427 2.281,-4.927 3,-7.5 -1.762,-0.143 -3.429,0.191 -5,1 -5.615,-2.065 -11.448,-3.065 -17.5,-3 -12.831,0.334 -25.997,0.334 -39.5,0 2.52,-1.418 5.187,-2.418 8,-3 17.038,-0.943 33.872,0.391 50.5,4 2.156,-2.301 3.822,-4.967 5,-8 1.337,-6.175 3.17,-12.175 5.5,-18 0.961,-1.765 1.295,-3.765 1,-6 z"
         id="path118" />
    </g>
    <g
       id="g119"
       style="clip-rule:evenodd;fill-rule:evenodd;image-rendering:optimizeQuality;shape-rendering:geometricPrecision;text-rendering:geometricPrecision"
       transform="matrix(0.31940061,0,0,0.31940061,-122.91128,-5.7308659)">
      <path
         style="opacity:1"
         fill="#f9f8f8"
         d="m 510.5,147.5 c 13.503,0.334 26.669,0.334 39.5,0 6.052,-0.065 11.885,0.935 17.5,3 1.571,-0.809 3.238,-1.143 5,-1 -0.719,2.573 -1.719,5.073 -3,7.5 1.33,12.723 1.33,25.723 0,39 0.902,8.627 1.902,17.127 3,25.5 -4.014,-0.166 -8.014,0.001 -12,0.5 -1.566,0.608 -2.9,1.442 -4,2.5 -11.652,0.733 -23.319,1.066 -35,1 -1.667,0 -3.333,0 -5,0 0,-0.333 0,-0.667 0,-1 -10.656,-6.234 -15.656,-3.234 -15,9 -1.464,3.519 -2.464,7.186 -3,11 -0.968,2.107 -1.302,4.441 -1,7 -0.006,7.046 0.161,14.046 0.5,21 -0.671,-0.752 -1.504,-1.086 -2.5,-1 -3.263,-0.174 -4.93,-1.841 -5,-5 -0.551,-3.307 -0.884,-6.64 -1,-10 0,-5 0,-10 0,-15 -0.166,-4.346 10e-4,-8.679 0.5,-13 3.928,-0.278 7.095,-1.945 9.5,-5 -0.209,-0.586 -0.543,-1.086 -1,-1.5 3.416,-9.582 5.75,-19.415 7,-29.5 0.363,3.248 2.029,5.414 5,6.5 15.337,-0.53 30.67,-0.364 46,0.5 4.005,0.337 7.172,-0.996 9.5,-4 0.78,-1.887 0.613,-3.554 -0.5,-5 -1.631,-4.836 -3.131,-9.836 -4.5,-15 -2.897,-2.731 -6.397,-3.731 -10.5,-3 -12.173,-1.325 -24.506,-1.325 -37,0 -2.788,5.261 -5.455,10.595 -8,16 -0.692,-0.525 -1.192,-1.192 -1.5,-2 -0.17,-9.509 -0.67,-18.842 -1.5,-28 0,-2.667 0,-5.333 0,-8 3.042,-0.233 5.708,-1.233 8,-3 z"
         id="path119" />
    </g>
    <g
       id="g123"
       style="clip-rule:evenodd;fill-rule:evenodd;image-rendering:optimizeQuality;shape-rendering:geometricPrecision;text-rendering:geometricPrecision"
       transform="matrix(0.31940061,0,0,0.31940061,-122.91128,-5.7308659)">
      <path
         style="opacity:1"
         fill="#93454a"
         d="m 490.5,130.5 c 1.911,0.074 3.078,1.074 3.5,3 1.131,2.945 1.964,5.945 2.5,9 -1.385,-1.074 -2.551,-2.407 -3.5,-4 -0.464,0.594 -0.631,1.261 -0.5,2 -0.998,25.828 -1.331,51.828 -1,78 -0.667,-28.17 -1.333,-56.503 -2,-85 -0.683,0.363 -1.35,0.696 -2,1 -0.342,-0.838 -1.008,-1.172 -2,-1 1.572,-1.187 3.239,-2.187 5,-3 z"
         id="path123" />
    </g>
    <g
       id="g124"
       style="clip-rule:evenodd;fill-rule:evenodd;image-rendering:optimizeQuality;shape-rendering:geometricPrecision;text-rendering:geometricPrecision"
       transform="matrix(0.31940061,0,0,0.31940061,-122.91128,-5.7308659)">
      <path
         style="opacity:1"
         fill="#a32628"
         d="m 581.5,140.5 c 0.167,26.002 0,52.002 -0.5,78 -0.611,3.772 -1.611,3.772 -3,0 -0.399,0.228 -0.565,0.562 -0.5,1 -0.838,-0.342 -1.172,-1.008 -1,-2 -1.573,-10.564 -2.24,-21.231 -2,-32 -0.479,-13.145 0.521,-26.145 3,-39 1.427,-1.648 2.26,-3.648 2.5,-6 0.69,-1.238 1.19,-1.238 1.5,0 z"
         id="path124" />
    </g>
    <g
       id="g131"
       style="clip-rule:evenodd;fill-rule:evenodd;image-rendering:optimizeQuality;shape-rendering:geometricPrecision;text-rendering:geometricPrecision"
       transform="matrix(0.31940061,0,0,0.31940061,-122.91128,-5.7308659)">
      <path
         style="opacity:1"
         fill="#b67a7d"
         d="m 587.5,135.5 c 0.331,24.839 -0.002,49.506 -1,74 0.167,-24.336 0,-48.669 -0.5,-73 -0.77,-1.098 -1.603,-1.098 -2.5,0 -0.219,-1.175 0.114,-2.175 1,-3 1.018,0.693 2.018,1.359 3,2 z"
         id="path131" />
    </g>
    <g
       id="g137"
       style="clip-rule:evenodd;fill-rule:evenodd;image-rendering:optimizeQuality;shape-rendering:geometricPrecision;text-rendering:geometricPrecision"
       transform="matrix(0.31940061,0,0,0.31940061,-122.91128,-5.7308659)">
      <path
         style="opacity:1"
         fill="#892a2c"
         d="m 492.5,140.5 c -0.167,26.002 0,52.002 0.5,78 0.308,0.808 0.808,1.475 1.5,2 1.753,-2.505 3.253,-5.171 4.5,-8 0.667,-18 0.667,-36 0,-54 -2.08,-5.118 -2.913,-10.451 -2.5,-16 2.57,4.213 4.07,8.88 4.5,14 0.5,15.33 0.667,30.663 0.5,46 0.335,9.317 -2.665,17.317 -9,24 -0.798,-0.457 -1.131,-1.124 -1,-2 0,-2 0,-4 0,-6 -0.331,-26.172 0.002,-52.172 1,-78 z"
         id="path137" />
    </g>
    <g
       id="g138"
       style="clip-rule:evenodd;fill-rule:evenodd;image-rendering:optimizeQuality;shape-rendering:geometricPrecision;text-rendering:geometricPrecision"
       transform="matrix(0.31940061,0,0,0.31940061,-122.91128,-5.7308659)">
      <path
         style="opacity:1"
         fill="#8b2b2b"
         d="m 581.5,140.5 c 0.667,0.667 1.333,1.333 2,2 0,20.333 0,40.667 0,61 0.425,7.784 -0.242,15.45 -2,23 -0.788,-1.27 -1.788,-2.27 -3,-3 -0.333,-1.333 -0.667,-2.667 -1,-4 -0.065,-0.438 0.101,-0.772 0.5,-1 1.389,3.772 2.389,3.772 3,0 0.5,-25.998 0.667,-51.998 0.5,-78 z"
         id="path138" />
    </g>
    <g
       id="g139"
       style="clip-rule:evenodd;fill-rule:evenodd;image-rendering:optimizeQuality;shape-rendering:geometricPrecision;text-rendering:geometricPrecision"
       transform="matrix(0.31940061,0,0,0.31940061,-122.91128,-5.7308659)">
      <path
         style="opacity:1"
         fill="#f3c3c5"
         d="m 491.5,218.5 c 0,2 0,4 0,6 -0.802,-1.452 -1.302,-3.118 -1.5,-5 -0.333,-28 -0.667,-56 -1,-84 -0.831,35.502 -0.664,70.836 0.5,106 0,5 0,10 0,15 -0.333,0 -0.667,0 -1,0 -0.927,-40.657 -1.261,-81.323 -1,-122 0.65,-0.304 1.317,-0.637 2,-1 0.667,28.497 1.333,56.83 2,85 z"
         id="path139" />
    </g>
    <g
       id="g140"
       style="clip-rule:evenodd;fill-rule:evenodd;image-rendering:optimizeQuality;shape-rendering:geometricPrecision;text-rendering:geometricPrecision"
       transform="matrix(0.31940061,0,0,0.31940061,-122.91128,-5.7308659)">
      <path
         style="opacity:1"
         fill="#892c2d"
         d="m 577.5,146.5 c -2.479,12.855 -3.479,25.855 -3,39 -0.24,10.769 0.427,21.436 2,32 -1.608,-2.71 -2.775,-5.71 -3.5,-9 -0.667,-16.667 -0.667,-33.333 0,-50 0.505,-2.018 1.005,-4.018 1.5,-6 1,-2 2,-4 3,-6 z"
         id="path140" />
    </g>
    <g
       id="g142"
       style="clip-rule:evenodd;fill-rule:evenodd;image-rendering:optimizeQuality;shape-rendering:geometricPrecision;text-rendering:geometricPrecision"
       transform="matrix(0.31940061,0,0,0.31940061,-122.91128,-5.7308659)">
      <path
         style="opacity:1"
         fill="#8b3534"
         d="m 485.5,133.5 c 0.992,-0.172 1.658,0.162 2,1 -0.261,40.677 0.073,81.343 1,122 0.164,2.687 -0.003,5.354 -0.5,8 -0.546,-2.879 -1.379,-5.546 -2.5,-8 -1.872,-39.294 -2.538,-78.628 -2,-118 -1.638,-1.205 -1.971,-2.538 -1,-4 0.891,-0.61 1.891,-0.943 3,-1 z"
         id="path142" />
    </g>
    <g
       id="g145"
       style="clip-rule:evenodd;fill-rule:evenodd;image-rendering:optimizeQuality;shape-rendering:geometricPrecision;text-rendering:geometricPrecision"
       transform="matrix(0.31940061,0,0,0.31940061,-122.91128,-5.7308659)">
      <path
         style="opacity:1"
         fill="#f2c8ca"
         d="m 479.5,139.5 c 1.068,-0.934 2.401,-1.268 4,-1 -0.538,39.372 0.128,78.706 2,118 0.333,3.333 0.667,6.667 1,10 -2.286,-4.961 -3.453,-10.294 -3.5,-16 -0.5,-36.998 -0.667,-73.998 -0.5,-111 -1,0 -2,0 -3,0 z"
         id="path145" />
    </g>
    <g
       id="g146"
       style="clip-rule:evenodd;fill-rule:evenodd;image-rendering:optimizeQuality;shape-rendering:geometricPrecision;text-rendering:geometricPrecision"
       transform="matrix(0.31940061,0,0,0.31940061,-122.91128,-5.7308659)">
      <path
         style="opacity:1"
         fill="#9f2526"
         d="m 496.5,142.5 c -0.413,5.549 0.42,10.882 2.5,16 0.667,18 0.667,36 0,54 -1.247,2.829 -2.747,5.495 -4.5,8 -0.692,-0.525 -1.192,-1.192 -1.5,-2 -0.5,-25.998 -0.667,-51.998 -0.5,-78 -0.131,-0.739 0.036,-1.406 0.5,-2 0.949,1.593 2.115,2.926 3.5,4 z"
         id="path146" />
    </g>
    <g
       id="g147"
       style="clip-rule:evenodd;fill-rule:evenodd;image-rendering:optimizeQuality;shape-rendering:geometricPrecision;text-rendering:geometricPrecision"
       transform="matrix(0.31940061,0,0,0.31940061,-122.91128,-5.7308659)">
      <path
         style="opacity:1"
         fill="#dfabaf"
         d="m 592.5,138.5 c -0.667,26.333 -1.333,52.667 -2,79 -0.333,-26.675 0,-53.342 1,-80 0.607,0.124 0.94,0.457 1,1 z"
         id="path147" />
    </g>
    <g
       id="g149"
       style="clip-rule:evenodd;fill-rule:evenodd;image-rendering:optimizeQuality;shape-rendering:geometricPrecision;text-rendering:geometricPrecision"
       transform="matrix(0.31940061,0,0,0.31940061,-122.91128,-5.7308659)">
      <path
         style="opacity:1"
         fill="#f7dee0"
         d="m 491.5,224.5 c -0.131,0.876 0.202,1.543 1,2 6.335,-6.683 9.335,-14.683 9,-24 0.996,-14.49 1.329,-29.157 1,-44 0.83,9.158 1.33,18.491 1.5,28 0.308,0.808 0.808,1.475 1.5,2 2.545,-5.405 5.212,-10.739 8,-16 12.494,-1.325 24.827,-1.325 37,0 -11.671,-0.167 -23.338,0 -35,0.5 -0.833,0.833 -1.667,1.667 -2.5,2.5 -2.144,6.232 -3.477,12.565 -4,19 0.692,0.525 1.192,1.192 1.5,2 17.324,1.166 34.657,1.333 52,0.5 2.419,-1.509 3.419,-3.675 3,-6.5 1.113,1.446 1.28,3.113 0.5,5 -2.328,3.004 -5.495,4.337 -9.5,4 -15.33,-0.864 -30.663,-1.03 -46,-0.5 -2.971,-1.086 -4.637,-3.252 -5,-6.5 -1.25,10.085 -3.584,19.918 -7,29.5 0.457,0.414 0.791,0.914 1,1.5 -2.405,3.055 -5.572,4.722 -9.5,5 -0.499,4.321 -0.666,8.654 -0.5,13 -1.164,-35.164 -1.331,-70.498 -0.5,-106 0.333,28 0.667,56 1,84 0.198,1.882 0.698,3.548 1.5,5 z"
         id="path149" />
    </g>
    <g
       id="g150"
       style="clip-rule:evenodd;fill-rule:evenodd;image-rendering:optimizeQuality;shape-rendering:geometricPrecision;text-rendering:geometricPrecision"
       transform="matrix(0.31940061,0,0,0.31940061,-122.91128,-5.7308659)">
      <path
         style="opacity:1"
         fill="#7b4043"
         d="m 550.5,172.5 c 4.103,-0.731 7.603,0.269 10.5,3 1.369,5.164 2.869,10.164 4.5,15 0.419,2.825 -0.581,4.991 -3,6.5 -17.343,0.833 -34.676,0.666 -52,-0.5 -0.308,-0.808 -0.808,-1.475 -1.5,-2 0.523,-6.435 1.856,-12.768 4,-19 0.833,-0.833 1.667,-1.667 2.5,-2.5 11.662,-0.5 23.329,-0.667 35,-0.5 z"
         id="path150" />
    </g>
    <g
       id="g151"
       style="clip-rule:evenodd;fill-rule:evenodd;image-rendering:optimizeQuality;shape-rendering:geometricPrecision;text-rendering:geometricPrecision"
       transform="matrix(0.31940061,0,0,0.31940061,-122.91128,-5.7308659)">
      <path
         style="opacity:1"
         fill="#f6d2d4"
         d="m 559.5,178.5 c 1.844,5.051 2.844,10.384 3,16 -17,0 -34,0 -51,0 0.081,-4.977 1.081,-9.643 3,-14 -0.521,3.981 -0.854,7.981 -1,12 2.333,0 4.667,0 7,0 0,-3.667 0,-7.333 0,-11 0.979,3.125 1.313,6.458 1,10 1,0 2,0 3,0 11.62,1.979 23.62,2.646 36,2 -0.553,-4.982 -0.887,-9.982 -1,-15 z"
         id="path151" />
    </g>
    <g
       id="g152"
       style="clip-rule:evenodd;fill-rule:evenodd;image-rendering:optimizeQuality;shape-rendering:geometricPrecision;text-rendering:geometricPrecision"
       transform="matrix(0.31940061,0,0,0.31940061,-122.91128,-5.7308659)">
      <path
         style="opacity:1"
         fill="#f6e9ea"
         d="m 546.5,175.5 c 4.014,-0.166 8.014,0.001 12,0.5 0.752,0.671 1.086,1.504 1,2.5 0.113,5.018 0.447,10.018 1,15 -12.38,0.646 -24.38,-0.021 -36,-2 0.667,0 1,-0.333 1,-1 1.569,0.315 3.235,0.315 5,0 0.548,-2.584 2.215,-3.584 5,-3 0,1 0,2 0,3 1.55,1.22 3.216,1.22 5,0 1,0 2,0 3,0 -0.219,-1.175 0.114,-2.175 1,-3 1.235,0.84 2.235,1.84 3,3 1.031,0.749 2.198,1.415 3.5,2 1.302,-0.585 2.469,-1.251 3.5,-2 0.983,-3.798 1.317,-7.798 1,-12 -3.141,-0.821 -6.475,-1.321 -10,-1.5 0.556,-0.383 0.889,-0.883 1,-1.5 z"
         id="path152" />
    </g>
    <g
       id="g153"
       style="clip-rule:evenodd;fill-rule:evenodd;image-rendering:optimizeQuality;shape-rendering:geometricPrecision;text-rendering:geometricPrecision"
       transform="matrix(0.31940061,0,0,0.31940061,-122.91128,-5.7308659)">
      <path
         style="opacity:1"
         fill="#c69b9d"
         d="m 555.5,178.5 c 0.317,4.202 -0.017,8.202 -1,12 -0.667,-14.667 -1.333,-14.667 -2,0 -0.983,-3.798 -1.317,-7.798 -1,-12 1.333,0 2.667,0 4,0 z"
         id="path153" />
    </g>
    <g
       id="g154"
       style="clip-rule:evenodd;fill-rule:evenodd;image-rendering:optimizeQuality;shape-rendering:geometricPrecision;text-rendering:geometricPrecision"
       transform="matrix(0.31940061,0,0,0.31940061,-122.91128,-5.7308659)">
      <path
         style="opacity:1"
         fill="#b68384"
         d="m 519.5,178.5 c 3,0 6,0 9,0 0,1 0,2 0,3 -1,0 -2,0 -3,0 0,3 0,6 0,9 0,0.667 -0.333,1 -1,1 -1,0 -2,0 -3,0 0.313,-3.542 -0.021,-6.875 -1,-10 -0.667,0 -1,-0.333 -1,-1 -1.333,-0.667 -1.333,-1.333 0,-2 z"
         id="path154" />
    </g>
    <g
       id="g155"
       style="clip-rule:evenodd;fill-rule:evenodd;image-rendering:optimizeQuality;shape-rendering:geometricPrecision;text-rendering:geometricPrecision"
       transform="matrix(0.31940061,0,0,0.31940061,-122.91128,-5.7308659)">
      <path
         style="opacity:1"
         fill="#5e1b20"
         d="m 519.5,180.5 c 4.467,-1.362 6.133,-1.362 5,0 -0.667,13.333 -1.333,13.333 -2,0 -1,0 -2,0 -3,0 z"
         id="path155" />
    </g>
    <g
       id="g156"
       style="clip-rule:evenodd;fill-rule:evenodd;image-rendering:optimizeQuality;shape-rendering:geometricPrecision;text-rendering:geometricPrecision"
       transform="matrix(0.31940061,0,0,0.31940061,-122.91128,-5.7308659)">
      <path
         style="opacity:1"
         fill="#602b2e"
         d="m 554.5,190.5 c -0.667,0 -1.333,0 -2,0 0.667,-14.667 1.333,-14.667 2,0 z"
         id="path156" />
    </g>
    <g
       id="g157"
       style="clip-rule:evenodd;fill-rule:evenodd;image-rendering:optimizeQuality;shape-rendering:geometricPrecision;text-rendering:geometricPrecision"
       transform="matrix(0.31940061,0,0,0.31940061,-122.91128,-5.7308659)">
      <path
         style="opacity:1"
         fill="#f9eff0"
         d="m 515.5,176.5 c 2.357,-0.163 4.69,0.003 7,0.5 -1.237,0.232 -2.237,0.732 -3,1.5 -1.333,0.667 -1.333,1.333 0,2 0,0.667 0.333,1 1,1 0,3.667 0,7.333 0,11 -2.333,0 -4.667,0 -7,0 0.146,-4.019 0.479,-8.019 1,-12 -0.268,-1.599 0.066,-2.932 1,-4 z"
         id="path157" />
    </g>
    <g
       id="g158"
       style="clip-rule:evenodd;fill-rule:evenodd;image-rendering:optimizeQuality;shape-rendering:geometricPrecision;text-rendering:geometricPrecision"
       transform="matrix(0.31940061,0,0,0.31940061,-122.91128,-5.7308659)">
      <path
         style="opacity:1"
         fill="#f2d3d4"
         d="m 515.5,176.5 c 10.153,-0.994 20.486,-1.328 31,-1 -0.111,0.617 -0.444,1.117 -1,1.5 3.525,0.179 6.859,0.679 10,1.5 -1.333,0 -2.667,0 -4,0 -0.317,4.202 0.017,8.202 1,12 0.667,0 1.333,0 2,0 -1.031,0.749 -2.198,1.415 -3.5,2 -1.302,-0.585 -2.469,-1.251 -3.5,-2 0.876,0.131 1.543,-0.202 2,-1 -2.667,-3.333 -2.667,-6.667 0,-10 -0.333,-0.333 -0.667,-0.667 -1,-1 -1.219,0.763 -2.219,1.763 -3,3 -1.165,-0.991 -2.332,-1.991 -3.5,-3 -0.5,0.333 -1,0.667 -1.5,1 0.88,1.929 1.88,3.763 3,5.5 -1.241,1.731 -2.241,3.564 -3,5.5 -1.784,1.22 -3.45,1.22 -5,0 1,0 2,0 3,0 -1.309,-3.904 -2.309,-7.904 -3,-12 -2.98,-0.259 -4.813,1.074 -5.5,4 -0.5,2 -1,4 -1.5,6 0.247,1.213 0.914,1.88 2,2 -1.765,0.315 -3.431,0.315 -5,0 0,-3 0,-6 0,-9 1,0 2,0 3,0 0,-1 0,-2 0,-3 -3,0 -6,0 -9,0 0.763,-0.768 1.763,-1.268 3,-1.5 -2.31,-0.497 -4.643,-0.663 -7,-0.5 z"
         id="path158" />
    </g>
    <g
       id="g159"
       style="clip-rule:evenodd;fill-rule:evenodd;image-rendering:optimizeQuality;shape-rendering:geometricPrecision;text-rendering:geometricPrecision"
       transform="matrix(0.31940061,0,0,0.31940061,-122.91128,-5.7308659)">
      <path
         style="opacity:1"
         fill="#7a3738"
         d="m 535.5,190.5 c 0,-1 0,-2 0,-3 -2.785,-0.584 -4.452,0.416 -5,3 -1.086,-0.12 -1.753,-0.787 -2,-2 0.5,-2 1,-4 1.5,-6 0.687,-2.926 2.52,-4.259 5.5,-4 0.691,4.096 1.691,8.096 3,12 -1,0 -2,0 -3,0 z"
         id="path159" />
    </g>
    <g
       id="g160"
       style="clip-rule:evenodd;fill-rule:evenodd;image-rendering:optimizeQuality;shape-rendering:geometricPrecision;text-rendering:geometricPrecision"
       transform="matrix(0.31940061,0,0,0.31940061,-122.91128,-5.7308659)">
      <path
         style="opacity:1"
         fill="#7a3837"
         d="m 547.5,190.5 c -0.765,-1.16 -1.765,-2.16 -3,-3 -0.886,0.825 -1.219,1.825 -1,3 -1,0 -2,0 -3,0 0.759,-1.936 1.759,-3.769 3,-5.5 -1.12,-1.737 -2.12,-3.571 -3,-5.5 0.5,-0.333 1,-0.667 1.5,-1 1.168,1.009 2.335,2.009 3.5,3 0.781,-1.237 1.781,-2.237 3,-3 0.333,0.333 0.667,0.667 1,1 -2.667,3.333 -2.667,6.667 0,10 -0.457,0.798 -1.124,1.131 -2,1 z"
         id="path160" />
    </g>
    <g
       id="g163"
       style="clip-rule:evenodd;fill-rule:evenodd;image-rendering:optimizeQuality;shape-rendering:geometricPrecision;text-rendering:geometricPrecision"
       transform="matrix(0.31940061,0,0,0.31940061,-122.91128,-5.7308659)">
      <path
         style="opacity:1"
         fill="#efbec1"
         d="m 586.5,209.5 c 0.167,12.671 0,25.338 -0.5,38 -0.177,3.856 -0.677,7.523 -1.5,11 1.014,-23.325 1.181,-46.658 0.5,-70 -0.174,5.184 -0.674,10.184 -1.5,15 0,-20.333 0,-40.667 0,-61 0,-2 0,-4 0,-6 0.897,-1.098 1.73,-1.098 2.5,0 0.5,24.331 0.667,48.664 0.5,73 z"
         id="path163" />
    </g>
    <g
       id="g173"
       style="clip-rule:evenodd;fill-rule:evenodd;image-rendering:optimizeQuality;shape-rendering:geometricPrecision;text-rendering:geometricPrecision"
       transform="matrix(0.31940061,0,0,0.31940061,-122.91128,-5.7308659)">
      <path
         style="opacity:1"
         fill="#faf7f7"
         d="m 578.5,223.5 c 0.612,3.197 2.612,4.531 6,4 -0.805,13.484 -1.971,26.818 -3.5,40 -1.844,2.4 -3.344,2.067 -4.5,-1 0.555,-4.963 1.555,-9.796 3,-14.5 -0.782,-2.672 -1.782,-5.172 -3,-7.5 -0.038,-6.36 -1.372,-12.36 -4,-18 0.353,-4.016 2.353,-5.016 6,-3 z"
         id="path173" />
    </g>
    <g
       id="g175"
       style="clip-rule:evenodd;fill-rule:evenodd;image-rendering:optimizeQuality;shape-rendering:geometricPrecision;text-rendering:geometricPrecision"
       transform="matrix(0.31940061,0,0,0.31940061,-122.91128,-5.7308659)">
      <path
         style="opacity:1"
         fill="#ebc5c5"
         d="m 516.5,224.5 c -3.742,-0.427 -7.409,-0.927 -11,-1.5 -1.458,3.554 -2.792,7.054 -4,10.5 -0.656,-12.234 4.344,-15.234 15,-9 z"
         id="path175" />
    </g>
    <g
       id="g176"
       style="clip-rule:evenodd;fill-rule:evenodd;image-rendering:optimizeQuality;shape-rendering:geometricPrecision;text-rendering:geometricPrecision"
       transform="matrix(0.31940061,0,0,0.31940061,-122.91128,-5.7308659)">
      <path
         style="opacity:1"
         fill="#e0a8a8"
         d="m 556.5,224.5 c 0.333,0 0.667,0 1,0 -7.453,1.409 -15.119,2.076 -23,2 -4.513,-0.001 -8.847,-0.334 -13,-1 11.681,0.066 23.348,-0.267 35,-1 z"
         id="path176" />
    </g>
    <g
       id="g177"
       style="clip-rule:evenodd;fill-rule:evenodd;image-rendering:optimizeQuality;shape-rendering:geometricPrecision;text-rendering:geometricPrecision"
       transform="matrix(0.31940061,0,0,0.31940061,-122.91128,-5.7308659)">
      <path
         style="opacity:1"
         fill="#f7dddf"
         d="m 584.5,258.5 c -0.348,4.057 -1.014,8.057 -2,12 -2.164,0.221 -3.83,1.221 -5,3 -1.309,-2.071 -1.975,-4.571 -2,-7.5 0.376,-5.169 0.709,-10.335 1,-15.5 0,-2 0,-4 0,-6 1.218,2.328 2.218,4.828 3,7.5 -1.445,4.704 -2.445,9.537 -3,14.5 1.156,3.067 2.656,3.4 4.5,1 1.529,-13.182 2.695,-26.516 3.5,-40 -3.388,0.531 -5.388,-0.803 -6,-4 1.212,0.73 2.212,1.73 3,3 1.758,-7.55 2.425,-15.216 2,-23 0.826,-4.816 1.326,-9.816 1.5,-15 0.681,23.342 0.514,46.675 -0.5,70 z"
         id="path177" />
    </g>
    <g
       id="g180"
       style="clip-rule:evenodd;fill-rule:evenodd;image-rendering:optimizeQuality;shape-rendering:geometricPrecision;text-rendering:geometricPrecision"
       transform="matrix(0.31940061,0,0,0.31940061,-122.91128,-5.7308659)">
      <path
         style="opacity:1"
         fill="#883132"
         d="m 516.5,224.5 c 0,0.333 0,0.667 0,1 -3.606,-0.289 -7.106,0.044 -10.5,1 -1.544,4.057 -3.21,8.057 -5,12 -0.543,3.368 -0.376,6.701 0.5,10 -0.992,-0.172 -1.658,0.162 -2,1 -0.951,-1.419 -1.284,-3.085 -1,-5 0.536,-3.814 1.536,-7.481 3,-11 1.208,-3.446 2.542,-6.946 4,-10.5 3.591,0.573 7.258,1.073 11,1.5 z"
         id="path180" />
    </g>
    <g
       id="g181"
       style="clip-rule:evenodd;fill-rule:evenodd;image-rendering:optimizeQuality;shape-rendering:geometricPrecision;text-rendering:geometricPrecision"
       transform="matrix(0.31940061,0,0,0.31940061,-122.91128,-5.7308659)">
      <path
         style="opacity:1"
         fill="#a52425"
         d="m 516.5,225.5 c 0.418,0.722 1.084,1.222 2,1.5 15.741,1.907 31.408,1.907 47,0 2.019,3.055 3.852,6.222 5.5,9.5 -0.837,3.148 -0.504,6.148 1,9 -1.637,2.31 -3.804,3.81 -6.5,4.5 -12.715,4.082 -25.715,5.415 -39,4 -8.381,-1.776 -16.714,-3.609 -25,-5.5 -0.876,-3.299 -1.043,-6.632 -0.5,-10 1.79,-3.943 3.456,-7.943 5,-12 3.394,-0.956 6.894,-1.289 10.5,-1 z"
         id="path181" />
    </g>
    <g
       id="g186"
       style="clip-rule:evenodd;fill-rule:evenodd;image-rendering:optimizeQuality;shape-rendering:geometricPrecision;text-rendering:geometricPrecision"
       transform="matrix(0.31940061,0,0,0.31940061,-122.91128,-5.7308659)">
      <path
         style="opacity:1"
         fill="#f8e3e4"
         d="m 592.5,138.5 c 0.992,-0.172 1.658,0.162 2,1 -1.332,10.98 -1.999,22.313 -2,34 0.532,25.425 0.532,50.925 0,76.5 -1.032,8.216 -2.532,16.383 -4.5,24.5 -0.708,0.881 -1.542,1.547 -2.5,2 0.252,-5.185 1.252,-10.185 3,-15 0.809,-1.792 1.309,-3.792 1.5,-6 0.5,-9.327 0.666,-18.661 0.5,-28 0,-3.333 0,-6.667 0,-10 0.667,-26.333 1.333,-52.667 2,-79 z"
         id="path186" />
    </g>
    <g
       id="g192"
       style="clip-rule:evenodd;fill-rule:evenodd;image-rendering:optimizeQuality;shape-rendering:geometricPrecision;text-rendering:geometricPrecision"
       transform="matrix(0.31940061,0,0,0.31940061,-122.91128,-5.7308659)">
      <path
         style="opacity:1"
         fill="#f9f7f7"
         d="m 574.5,248.5 c -0.6,9.672 -1.267,19.338 -2,29 -1.109,0.057 -2.109,0.39 -3,1 -1.679,0.392 -3.346,0.892 -5,1.5 -1.399,2.74 -3.066,5.24 -5,7.5 -3,0 -6,0 -9,0 -11.71,0.332 -23.376,-0.168 -35,-1.5 -1.191,-0.698 -2.191,-1.531 -3,-2.5 -0.667,-1.333 -1.667,-2.333 -3,-3 -1.5,-1.679 -3.333,-3.012 -5.5,-4 -0.756,-4.258 -1.923,-8.258 -3.5,-12 0,-1.333 0,-2.667 0,-4 0,-3.333 0,-6.667 0,-10 1.333,0 2.667,0 4,0 3.881,1.403 7.881,2.403 12,3 2.881,2.18 6.214,3.18 10,3 6.487,1.154 13.154,1.321 20,0.5 3.492,0.07 6.492,-0.763 9,-2.5 6.366,-1.565 12.7,-3.565 19,-6 z"
         id="path192" />
    </g>
    <g
       id="g194"
       style="clip-rule:evenodd;fill-rule:evenodd;image-rendering:optimizeQuality;shape-rendering:geometricPrecision;text-rendering:geometricPrecision"
       transform="matrix(0.31940061,0,0,0.31940061,-122.91128,-5.7308659)">
      <path
         style="opacity:1"
         fill="#8d2a2c"
         d="m 576.5,244.5 c 0,2 0,4 0,6 -0.667,-0.667 -1.333,-1.333 -2,-2 -6.3,2.435 -12.634,4.435 -19,6 -3.307,0.551 -6.64,0.884 -10,1 -9.79,0.489 -19.456,-0.178 -29,-2 -4.119,-0.597 -8.119,-1.597 -12,-3 -1,-0.667 -2,-1.333 -3,-2 8.286,1.891 16.619,3.724 25,5.5 13.285,1.415 26.285,0.082 39,-4 2.696,-0.69 4.863,-2.19 6.5,-4.5 -1.504,-2.852 -1.837,-5.852 -1,-9 -1.648,-3.278 -3.481,-6.445 -5.5,-9.5 -15.592,1.907 -31.259,1.907 -47,0 -0.916,-0.278 -1.582,-0.778 -2,-1.5 1.667,0 3.333,0 5,0 4.153,0.666 8.487,0.999 13,1 7.881,0.076 15.547,-0.591 23,-2 4.014,-1.232 8.014,-1.565 12,-1 1.764,7.292 4.097,14.292 7,21 z"
         id="path194" />
    </g>
    <g
       id="g233"
       style="clip-rule:evenodd;fill-rule:evenodd;image-rendering:optimizeQuality;shape-rendering:geometricPrecision;text-rendering:geometricPrecision"
       transform="matrix(0.31940061,0,0,0.31940061,-122.91128,-5.7308659)">
      <path
         style="opacity:1"
         fill="#ce8e92"
         d="m 516.5,253.5 c 9.544,1.822 19.21,2.489 29,2 -6.145,0.99 -12.478,1.323 -19,1 -3.786,0.18 -7.119,-0.82 -10,-3 z"
         id="path233" />
    </g>
    <g
       id="g235"
       style="clip-rule:evenodd;fill-rule:evenodd;image-rendering:optimizeQuality;shape-rendering:geometricPrecision;text-rendering:geometricPrecision"
       transform="matrix(0.31940061,0,0,0.31940061,-122.91128,-5.7308659)">
      <path
         style="opacity:1"
         fill="#ceadae"
         d="m 501.5,248.5 c 1,0.667 2,1.333 3,2 -1.333,0 -2.667,0 -4,0 0,3.333 0,6.667 0,10 -0.982,-3.462 -1.315,-7.129 -1,-11 0.342,-0.838 1.008,-1.172 2,-1 z"
         id="path235" />
    </g>
    <g
       id="g236"
       style="clip-rule:evenodd;fill-rule:evenodd;image-rendering:optimizeQuality;shape-rendering:geometricPrecision;text-rendering:geometricPrecision"
       transform="matrix(0.31940061,0,0,0.31940061,-122.91128,-5.7308659)">
      <path
         style="opacity:1"
         fill="#f4c5c7"
         d="m 555.5,254.5 c -2.508,1.737 -5.508,2.57 -9,2.5 -6.846,0.821 -13.513,0.654 -20,-0.5 6.522,0.323 12.855,-0.01 19,-1 3.36,-0.116 6.693,-0.449 10,-1 z"
         id="path236" />
    </g>
    <g
       id="g238"
       style="clip-rule:evenodd;fill-rule:evenodd;image-rendering:optimizeQuality;shape-rendering:geometricPrecision;text-rendering:geometricPrecision"
       transform="matrix(0.31940061,0,0,0.31940061,-122.91128,-5.7308659)">
      <path
         style="opacity:1"
         fill="#d59ea4"
         d="m 590.5,227.5 c 0.166,9.339 0,18.673 -0.5,28 -0.191,2.208 -0.691,4.208 -1.5,6 0.43,-11.5 1.097,-22.834 2,-34 z"
         id="path238" />
    </g>
    <g
       id="g241"
       style="clip-rule:evenodd;fill-rule:evenodd;image-rendering:optimizeQuality;shape-rendering:geometricPrecision;text-rendering:geometricPrecision"
       transform="matrix(0.31940061,0,0,0.31940061,-122.91128,-5.7308659)">
      <path
         style="opacity:1"
         fill="#956d6f"
         d="m 498.5,244.5 c -0.284,1.915 0.049,3.581 1,5 -0.315,3.871 0.018,7.538 1,11 0,1.333 0,2.667 0,4 0.662,3.966 0.995,7.966 1,12 -0.992,0.172 -1.658,-0.162 -2,-1 -0.017,-8.201 -0.683,-16.201 -2,-24 -0.302,-2.559 0.032,-4.893 1,-7 z"
         id="path241" />
    </g>
    <g
       id="g242"
       style="clip-rule:evenodd;fill-rule:evenodd;image-rendering:optimizeQuality;shape-rendering:geometricPrecision;text-rendering:geometricPrecision"
       transform="matrix(0.31940061,0,0,0.31940061,-122.91128,-5.7308659)">
      <path
         style="opacity:1"
         fill="#975757"
         d="m 485.5,256.5 c 1.121,2.454 1.954,5.121 2.5,8 0.497,-2.646 0.664,-5.313 0.5,-8 0.333,0 0.667,0 1,0 0.116,3.36 0.449,6.693 1,10 -1.808,1.418 -2.475,3.418 -2,6 -0.958,-1.802 -1.625,-3.802 -2,-6 -0.333,-3.333 -0.667,-6.667 -1,-10 z"
         id="path242" />
    </g>
    <g
       id="g245"
       style="clip-rule:evenodd;fill-rule:evenodd;image-rendering:optimizeQuality;shape-rendering:geometricPrecision;text-rendering:geometricPrecision"
       transform="matrix(0.31940061,0,0,0.31940061,-122.91128,-5.7308659)">
      <path
         style="opacity:1"
         fill="#ab8285"
         d="m 574.5,248.5 c 0.667,0.667 1.333,1.333 2,2 -0.291,5.165 -0.624,10.331 -1,15.5 0.025,2.929 0.691,5.429 2,7.5 0,0.333 0,0.667 0,1 -1.911,0.575 -3.578,1.575 -5,3 0.733,-9.662 1.4,-19.328 2,-29 z"
         id="path245" />
    </g>
    <g
       id="g248"
       style="clip-rule:evenodd;fill-rule:evenodd;image-rendering:optimizeQuality;shape-rendering:geometricPrecision;text-rendering:geometricPrecision"
       transform="matrix(0.31940061,0,0,0.31940061,-122.91128,-5.7308659)">
      <path
         style="opacity:1"
         fill="#edcbcb"
         d="m 497.5,251.5 c 1.317,7.799 1.983,15.799 2,24 -1.667,-1 -3,-2.333 -4,-4 0.996,-0.086 1.829,0.248 2.5,1 -0.339,-6.954 -0.506,-13.954 -0.5,-21 z"
         id="path248" />
    </g>
    <g
       id="g249"
       style="clip-rule:evenodd;fill-rule:evenodd;image-rendering:optimizeQuality;shape-rendering:geometricPrecision;text-rendering:geometricPrecision"
       transform="matrix(0.31940061,0,0,0.31940061,-122.91128,-5.7308659)">
      <path
         style="opacity:1"
         fill="#e8c4c4"
         d="m 500.5,264.5 c 1.577,3.742 2.744,7.742 3.5,12 2.167,0.988 4,2.321 5.5,4 -3.221,-0.396 -5.888,-1.729 -8,-4 -0.005,-4.034 -0.338,-8.034 -1,-12 z"
         id="path249" />
    </g>
    <g
       id="g261"
       style="clip-rule:evenodd;fill-rule:evenodd;image-rendering:optimizeQuality;shape-rendering:geometricPrecision;text-rendering:geometricPrecision"
       transform="matrix(0.31940061,0,0,0.31940061,-122.91128,-5.7308659)">
      <path
         style="opacity:1"
         fill="#8f2c2c"
         d="m 490.5,266.5 c 0.07,3.159 1.737,4.826 5,5 1,1.667 2.333,3 4,4 0.342,0.838 1.008,1.172 2,1 2.112,2.271 4.779,3.604 8,4 1.309,2.686 2.309,5.52 3,8.5 -1.634,0.494 -3.301,0.66 -5,0.5 -4.197,-0.732 -8.197,-2.066 -12,-4 -3.637,-3.606 -5.97,-7.94 -7,-13 -0.475,-2.582 0.192,-4.582 2,-6 z"
         id="path261" />
    </g>
    <g
       id="g262"
       style="clip-rule:evenodd;fill-rule:evenodd;image-rendering:optimizeQuality;shape-rendering:geometricPrecision;text-rendering:geometricPrecision"
       transform="matrix(0.31940061,0,0,0.31940061,-122.91128,-5.7308659)">
      <path
         style="opacity:1"
         fill="#a62927"
         d="m 492.5,275.5 c 3.984,2.5 8.318,4.333 13,5.5 1.711,1.133 2.211,2.633 1.5,4.5 -1.974,-0.126 -4.141,-0.292 -6.5,-0.5 -4.74,-1.562 -7.407,-4.729 -8,-9.5 z"
         id="path262" />
    </g>
    <g
       id="g264"
       style="clip-rule:evenodd;fill-rule:evenodd;image-rendering:optimizeQuality;shape-rendering:geometricPrecision;text-rendering:geometricPrecision"
       transform="matrix(0.31940061,0,0,0.31940061,-122.91128,-5.7308659)">
      <path
         style="opacity:1"
         fill="#f0c8ca"
         d="m 512.5,283.5 c 0.809,0.969 1.809,1.802 3,2.5 11.624,1.332 23.29,1.832 35,1.5 -8.484,0.993 -17.151,1.326 -26,1 -3.72,-0.064 -7.386,-0.564 -11,-1.5 -0.837,-1.011 -1.17,-2.178 -1,-3.5 z"
         id="path264" />
    </g>
    <g
       id="g265"
       style="clip-rule:evenodd;fill-rule:evenodd;image-rendering:optimizeQuality;shape-rendering:geometricPrecision;text-rendering:geometricPrecision"
       transform="matrix(0.31940061,0,0,0.31940061,-122.91128,-5.7308659)">
      <path
         style="opacity:1"
         fill="#9e2829"
         d="m 569.5,278.5 c 0.891,-0.61 1.891,-0.943 3,-1 1.422,-1.425 3.089,-2.425 5,-3 1.941,-0.369 3.775,-1.036 5.5,-2 0.484,2.413 0.15,4.746 -1,7 -5.422,6.296 -12.255,9.129 -20.5,8.5 1.848,-4.002 4.514,-7.168 8,-9.5 z"
         id="path265" />
    </g>
    <g
       id="g266"
       style="clip-rule:evenodd;fill-rule:evenodd;image-rendering:optimizeQuality;shape-rendering:geometricPrecision;text-rendering:geometricPrecision"
       transform="matrix(0.31940061,0,0,0.31940061,-122.91128,-5.7308659)">
      <path
         style="opacity:1"
         fill="#f2d5d8"
         d="m 585.5,276.5 c -0.187,6.028 -3.021,10.361 -8.5,13 -2.394,-0.636 -4.894,-0.636 -7.5,0 7.101,-2.096 12.434,-6.429 16,-13 z"
         id="path266" />
    </g>
    <g
       id="g268"
       style="clip-rule:evenodd;fill-rule:evenodd;image-rendering:optimizeQuality;shape-rendering:geometricPrecision;text-rendering:geometricPrecision"
       transform="matrix(0.31940061,0,0,0.31940061,-122.91128,-5.7308659)">
      <path
         style="opacity:1"
         fill="#9a585a"
         d="m 550.5,287.5 c 3,0 6,0 9,0 -6.422,1.558 -13.089,2.224 -20,2 -5.178,-10e-4 -10.178,-0.334 -15,-1 8.849,0.326 17.516,-0.007 26,-1 z"
         id="path268" />
    </g>
    <g
       id="g274"
       style="clip-rule:evenodd;fill-rule:evenodd;image-rendering:optimizeQuality;shape-rendering:geometricPrecision;text-rendering:geometricPrecision"
       transform="matrix(0.31940061,0,0,0.31940061,-122.91128,-5.7308659)">
      <path
         style="opacity:1"
         fill="#f6d4d5"
         d="m 495.5,285.5 c 3.803,1.934 7.803,3.268 12,4 19.862,3.965 39.862,3.965 60,0 -0.843,1.673 -2.176,2.84 -4,3.5 -2.595,0.226 -5.095,0.726 -7.5,1.5 -11.758,-0.822 -23.591,-1.322 -35.5,-1.5 -7.367,-0.781 -14.7,-1.781 -22,-3 -2.363,-0.589 -3.363,-2.089 -3,-4.5 z"
         id="path274" />
    </g>
  </g>
</svg>
