<?xml version="1.0" encoding="UTF-8" standalone="no"?>
<!-- Created with Inkscape (http://www.inkscape.org/) -->

<svg
   width="96mm"
   height="96mm"
   viewBox="0 0 96 96"
   version="1.1"
   id="svg1"
   inkscape:version="1.4.2 (ebf0e940, 2025-05-08)"
   sodipodi:docname="scooter.svg"
   xmlns:inkscape="http://www.inkscape.org/namespaces/inkscape"
   xmlns:sodipodi="http://sodipodi.sourceforge.net/DTD/sodipodi-0.dtd"
   xmlns="http://www.w3.org/2000/svg"
   xmlns:svg="http://www.w3.org/2000/svg">
  <sodipodi:namedview
     id="namedview1"
     pagecolor="#ffffff"
     bordercolor="#000000"
     borderopacity="0.25"
     inkscape:showpageshadow="2"
     inkscape:pageopacity="0.0"
     inkscape:pagecheckerboard="0"
     inkscape:deskcolor="#d1d1d1"
     inkscape:document-units="mm"
     inkscape:zoom="0.80444024"
     inkscape:cx="397.17059"
     inkscape:cy="362.36377"
     inkscape:window-width="1920"
     inkscape:window-height="1052"
     inkscape:window-x="0"
     inkscape:window-y="28"
     inkscape:window-maximized="0"
     inkscape:current-layer="layer1" />
  <defs
     id="defs1" />
  <g
     inkscape:label="Layer 1"
     inkscape:groupmode="layer"
     id="layer1">
    <g
       id="g6"
       style="clip-rule:evenodd;fill-rule:evenodd;image-rendering:optimizeQuality;shape-rendering:geometricPrecision;text-rendering:geometricPrecision"
       transform="matrix(0.32000487,0,0,0.32000487,-233.11859,-8.6968953)">
      <path
         style="opacity:1"
         fill="#f5d6d2"
         d="m 875.5,45.5 c 3.811,-1.1453 7.811,-1.3119 12,-0.5 1.878,1.5429 3.378,3.3762 4.5,5.5 0.304,4.0483 0.804,8.0483 1.5,12 -0.617,-0.1107 -1.117,-0.444 -1.5,-1 0.586,-11.5807 -4.914,-16.914 -16.5,-16 z"
         id="path6" />
    </g>
    <g
       id="g15"
       style="clip-rule:evenodd;fill-rule:evenodd;image-rendering:optimizeQuality;shape-rendering:geometricPrecision;text-rendering:geometricPrecision"
       transform="matrix(0.32000487,0,0,0.32000487,-233.11859,-8.6968953)">
      <path
         style="opacity:1"
         fill="#d14439"
         d="m 883.5,60.5 c -3,0 -6,0 -9,0 -1,0 -2,0 -3,0 -0.5,-4.6857 0.833,-8.6857 4,-12 10.504,-2.8304 15.17,1.1696 14,12 -2,0 -4,0 -6,0 z"
         id="path15" />
    </g>
    <g
       id="g20"
       style="clip-rule:evenodd;fill-rule:evenodd;image-rendering:optimizeQuality;shape-rendering:geometricPrecision;text-rendering:geometricPrecision"
       transform="matrix(0.32000487,0,0,0.32000487,-233.11859,-8.6968953)">
      <path
         style="opacity:1"
         fill="#f9dcd8"
         d="m 874.5,60.5 c 3,0 6,0 9,0 4.058,1.7269 6.725,4.7269 8,9 0,2 0,4 0,6 -1.18,-3.0208 -2.18,-6.1874 -3,-9.5 -3,-1.1667 -6,-2.3333 -9,-3.5 -3.231,0.9598 -6.231,2.2931 -9,4 0.915,-2.2541 2.248,-4.2541 4,-6 z"
         id="path20" />
    </g>
    <g
       id="g21"
       style="clip-rule:evenodd;fill-rule:evenodd;image-rendering:optimizeQuality;shape-rendering:geometricPrecision;text-rendering:geometricPrecision"
       transform="matrix(0.32000487,0,0,0.32000487,-233.11859,-8.6968953)">
      <path
         style="opacity:1"
         fill="#faf6f5"
         d="m 891.5,75.5 c 0.707,3.2861 1.04,6.6194 1,10 -1.667,0 -3.333,0 -5,0 -4.63,-0.7295 -9.297,-1.0628 -14,-1 -1.667,0 -3.333,0 -5,0 0.26,-5.672 0.593,-11.3387 1,-17 0,-0.6667 0.333,-1 1,-1 2.769,-1.7069 5.769,-3.0402 9,-4 3,1.1667 6,2.3333 9,3.5 0.82,3.3126 1.82,6.4792 3,9.5 z"
         id="path21" />
    </g>
    <g
       id="g22"
       style="clip-rule:evenodd;fill-rule:evenodd;image-rendering:optimizeQuality;shape-rendering:geometricPrecision;text-rendering:geometricPrecision"
       transform="matrix(0.32000487,0,0,0.32000487,-233.11859,-8.6968953)">
      <path
         style="opacity:1"
         fill="#f6cdc7"
         d="m 869.5,51.5 c 0.165,3.0184 -0.002,6.0184 -0.5,9 -1.829,1.6558 -3.163,3.6558 -4,6 -0.839,4.1372 -1.673,8.1372 -2.5,12 0.323,-9.6075 2.656,-18.6075 7,-27 z"
         id="path22" />
    </g>
    <g
       id="g24"
       style="clip-rule:evenodd;fill-rule:evenodd;image-rendering:optimizeQuality;shape-rendering:geometricPrecision;text-rendering:geometricPrecision"
       transform="matrix(0.32000487,0,0,0.32000487,-233.11859,-8.6968953)">
      <path
         style="opacity:1"
         fill="#b35249"
         d="m 875.5,48.5 c -3.167,3.3143 -4.5,7.3143 -4,12 1,0 2,0 3,0 -1.752,1.7459 -3.085,3.7459 -4,6 -0.667,0 -1,0.3333 -1,1 -2.262,5.6648 -3.262,11.6648 -3,18 -0.65,-0.3039 -1.317,-0.6373 -2,-1 -0.641,1.4935 -1.641,2.4935 -3,3 0.903,-2.8915 1.236,-5.8915 1,-9 0.827,-3.8628 1.661,-7.8628 2.5,-12 0.837,-2.3442 2.171,-4.3442 4,-6 0.498,-2.9816 0.665,-5.9816 0.5,-9 0.333,0 0.667,0 1,0 1.422,-1.425 3.089,-2.425 5,-3 z"
         id="path24" />
    </g>
    <g
       id="g37"
       style="clip-rule:evenodd;fill-rule:evenodd;image-rendering:optimizeQuality;shape-rendering:geometricPrecision;text-rendering:geometricPrecision"
       transform="matrix(0.32000487,0,0,0.32000487,-233.11859,-8.6968953)">
      <path
         style="opacity:1"
         fill="#f3c8c1"
         d="m 869.5,67.5 c -0.407,5.6613 -0.74,11.328 -1,17 1.667,0 3.333,0 5,0 -1.194,0.7719 -2.194,1.7719 -3,3 -1.983,0.3432 -3.317,-0.3235 -4,-2 -0.262,-6.3352 0.738,-12.3352 3,-18 z"
         id="path37" />
    </g>
    <g
       id="g38"
       style="clip-rule:evenodd;fill-rule:evenodd;image-rendering:optimizeQuality;shape-rendering:geometricPrecision;text-rendering:geometricPrecision"
       transform="matrix(0.32000487,0,0,0.32000487,-233.11859,-8.6968953)">
      <path
         style="opacity:1"
         fill="#e69f98"
         d="m 891.5,69.5 c 1.531,4.7502 2.198,9.7502 2,15 0,1 0,2 0,3 -1,0 -2,0 -3,0 -1,-0.6667 -2,-1.3333 -3,-2 1.667,0 3.333,0 5,0 0.04,-3.3806 -0.293,-6.7139 -1,-10 0,-2 0,-4 0,-6 z"
         id="path38" />
    </g>
    <g
       id="g50"
       style="clip-rule:evenodd;fill-rule:evenodd;image-rendering:optimizeQuality;shape-rendering:geometricPrecision;text-rendering:geometricPrecision"
       transform="matrix(0.32000487,0,0,0.32000487,-233.11859,-8.6968953)">
      <path
         style="opacity:1"
         fill="#c0443b"
         d="m 890.5,94.5 c -0.667,0 -1.333,0 -2,0 -6.813,-0.9912 -13.813,-1.3245 -21,-1 0,-1 0,-2 0,-3 -2.559,-0.3016 -4.893,0.0318 -7,1 -1,0 -2,0 -3,0 -0.438,0.0654 -0.772,-0.1012 -1,-0.5 1.455,-1.6257 3.122,-2.7924 5,-3.5 1.359,-0.5065 2.359,-1.5065 3,-3 0.683,0.3627 1.35,0.6961 2,1 0.683,1.6765 2.017,2.3432 4,2 1.333,0 2.667,0 4,0 -1.265,0.9793 -2.599,1.9793 -4,3 6.333,1.3333 12.667,1.3333 19,0 -1.86,-0.8249 -3.526,-1.8249 -5,-3 2,0 4,0 6,0 1,0 2,0 3,0 0,-1 0,-2 0,-3 0.65,-0.3039 1.317,-0.6373 2,-1 1.227,3.3947 3.56,5.5614 7,6.5 -2.667,0.3333 -5.333,0.6667 -8,1 -0.727,1.3988 -1.227,2.8988 -1.5,4.5 -0.671,-0.7524 -1.504,-1.0858 -2.5,-1 z"
         id="path50" />
    </g>
    <g
       id="g51"
       style="clip-rule:evenodd;fill-rule:evenodd;image-rendering:optimizeQuality;shape-rendering:geometricPrecision;text-rendering:geometricPrecision"
       transform="matrix(0.32000487,0,0,0.32000487,-233.11859,-8.6968953)">
      <path
         style="opacity:1"
         fill="#f37a71"
         d="m 874.5,87.5 c 3.333,0 6.667,0 10,0 1.474,1.1751 3.14,2.1751 5,3 -6.333,1.3333 -12.667,1.3333 -19,0 1.401,-1.0207 2.735,-2.0207 4,-3 z"
         id="path51" />
    </g>
    <g
       id="g52"
       style="clip-rule:evenodd;fill-rule:evenodd;image-rendering:optimizeQuality;shape-rendering:geometricPrecision;text-rendering:geometricPrecision"
       transform="matrix(0.32000487,0,0,0.32000487,-233.11859,-8.6968953)">
      <path
         style="opacity:1"
         fill="#b4544c"
         d="m 873.5,84.5 c 4.703,-0.0628 9.37,0.2705 14,1 1,0.6667 2,1.3333 3,2 -2,0 -4,0 -6,0 -3.333,0 -6.667,0 -10,0 -1.333,0 -2.667,0 -4,0 0.806,-1.2281 1.806,-2.2281 3,-3 z"
         id="path52" />
    </g>
    <g
       id="g54"
       style="clip-rule:evenodd;fill-rule:evenodd;image-rendering:optimizeQuality;shape-rendering:geometricPrecision;text-rendering:geometricPrecision"
       transform="matrix(0.32000487,0,0,0.32000487,-233.11859,-8.6968953)">
      <path
         style="opacity:1"
         fill="#f9f1ee"
         d="m 857.5,91.5 c 1,0 2,0 3,0 2.281,-0.4227 3.948,0.244 5,2 -0.838,0.3417 -1.172,1.0084 -1,2 -1.676,0.6834 -2.343,2.0168 -2,4 -4.724,2.286 -9.724,3.953 -15,5 -0.157,-1.373 0.01,-2.707 0.5,-4 1.707,-1.5375 3.207,-3.2041 4.5,-5 1.484,-1.5737 3.151,-2.907 5,-4 z"
         id="path54" />
    </g>
    <g
       id="g55"
       style="clip-rule:evenodd;fill-rule:evenodd;image-rendering:optimizeQuality;shape-rendering:geometricPrecision;text-rendering:geometricPrecision"
       transform="matrix(0.32000487,0,0,0.32000487,-233.11859,-8.6968953)">
      <path
         style="opacity:1"
         fill="#be5e56"
         d="m 860.5,91.5 c 2.107,-0.9682 4.441,-1.3016 7,-1 0,1 0,2 0,3 7.187,-0.3245 14.187,0.0088 21,1 -6.854,-0.324 -13.521,0.0093 -20,1 0.172,0.9916 -0.162,1.6583 -1,2 -1.676,-0.6834 -2.343,-2.0168 -2,-4 -1.052,-1.756 -2.719,-2.4227 -5,-2 z"
         id="path55" />
    </g>
    <g
       id="g56"
       style="clip-rule:evenodd;fill-rule:evenodd;image-rendering:optimizeQuality;shape-rendering:geometricPrecision;text-rendering:geometricPrecision"
       transform="matrix(0.32000487,0,0,0.32000487,-233.11859,-8.6968953)">
      <path
         style="opacity:1"
         fill="#f9ebe8"
         d="m 906.5,105.5 c -4.026,-1.24 -7.692,-3.24 -11,-6 0,-2.6667 0,-5.3333 0,-8 7,1.1732 13.166,4.1732 18.5,9 0.495,1.973 0.662,3.973 0.5,6 -2.706,-0.075 -5.373,-0.408 -8,-1 z"
         id="path56" />
    </g>
    <g
       id="g61"
       style="clip-rule:evenodd;fill-rule:evenodd;image-rendering:optimizeQuality;shape-rendering:geometricPrecision;text-rendering:geometricPrecision"
       transform="matrix(0.32000487,0,0,0.32000487,-233.11859,-8.6968953)">
      <path
         style="opacity:1"
         fill="#b55d55"
         d="m 861.5,87.5 c -1.878,0.7076 -3.545,1.8743 -5,3.5 0.228,0.3988 0.562,0.5654 1,0.5 -1.849,1.093 -3.516,2.4263 -5,4 -5.666,2.01 -8,6.01 -7,12 1,0 2,0 3,0 2.503,-0.584 5.003,-1.251 7.5,-2 0.765,0.07 1.265,0.403 1.5,1 -3.3,2.142 -6.967,3.475 -11,4 1.16,-1.703 0.493,-2.369 -2,-2 0.163,-2.357 -0.003,-4.69 -0.5,-7 -0.77,-1.098 -1.603,-1.098 -2.5,0 3.607,-8.9276 10.274,-13.5943 20,-14 z"
         id="path61" />
    </g>
    <g
       id="g65"
       style="clip-rule:evenodd;fill-rule:evenodd;image-rendering:optimizeQuality;shape-rendering:geometricPrecision;text-rendering:geometricPrecision"
       transform="matrix(0.32000487,0,0,0.32000487,-233.11859,-8.6968953)">
      <path
         style="opacity:1"
         fill="#f9f8f7"
         d="m 868.5,95.5 c 6.368,-0.3297 12.702,0.0037 19,1 3.027,2.826 6.027,5.493 9,8 0.333,0 0.667,0 1,0 0.629,2.497 2.296,3.83 5,4 -0.086,0.996 0.248,1.829 1,2.5 2.589,1.197 5.256,2.197 8,3 1.333,1 1.333,2 0,3 -6.222,-1.267 -12.555,-1.6 -19,-1 -3.21,0.927 -5.544,2.094 -7,3.5 0,1 0,2 0,3 -2.538,0.007 -5.038,0.341 -7.5,1 -2.997,-1.21 -5.831,-2.543 -8.5,-4 -0.453,-0.958 -1.119,-1.792 -2,-2.5 -6.288,-0.875 -12.454,-0.375 -18.5,1.5 -2.058,-0.794 -4.058,-1.127 -6,-1 -0.591,-0.983 -0.257,-1.65 1,-2 6.383,-2.598 12.217,-5.931 17.5,-10 3.119,-1.791 5.119,-4.458 6,-8 0.838,-0.3417 1.172,-1.0084 1,-2 z"
         id="path65" />
    </g>
    <g
       id="g68"
       style="clip-rule:evenodd;fill-rule:evenodd;image-rendering:optimizeQuality;shape-rendering:geometricPrecision;text-rendering:geometricPrecision"
       transform="matrix(0.32000487,0,0,0.32000487,-233.11859,-8.6968953)">
      <path
         style="opacity:1"
         fill="#b86058"
         d="m 875.5,45.5 c 11.586,-0.914 17.086,4.4193 16.5,16 0.383,0.556 0.883,0.8893 1.5,1 2.368,7.8699 4.201,15.8699 5.5,24 3.781,1.8078 7.615,3.4745 11.5,5 6.011,4.0263 9.011,9.693 9,17 -0.641,-1.542 -1.641,-2.876 -3,-4 -1.135,2.207 -1.801,4.54 -2,7 -4.297,-1.155 -8.297,-2.821 -12,-5 1.068,-0.934 2.401,-1.268 4,-1 2.627,0.592 5.294,0.925 8,1 0.162,-2.027 -0.005,-4.027 -0.5,-6 -5.334,-4.8268 -11.5,-7.8268 -18.5,-9 0,2.6667 0,5.3333 0,8 -0.667,0 -1.333,0 -2,0 -0.748,-1.8325 -1.748,-3.4991 -3,-5 0.996,-0.0858 1.829,0.2476 2.5,1 0.273,-1.6012 0.773,-3.1012 1.5,-4.5 2.667,-0.3333 5.333,-0.6667 8,-1 -3.44,-0.9386 -5.773,-3.1053 -7,-6.5 -0.683,0.3627 -1.35,0.6961 -2,1 0.198,-5.2498 -0.469,-10.2498 -2,-15 -1.275,-4.2731 -3.942,-7.2731 -8,-9 2,0 4,0 6,0 1.17,-10.8304 -3.496,-14.8304 -14,-12 -1.911,0.575 -3.578,1.575 -5,3 0.95,-2.6149 2.617,-4.6149 5,-6 z"
         id="path68" />
    </g>
    <g
       id="g71"
       style="clip-rule:evenodd;fill-rule:evenodd;image-rendering:optimizeQuality;shape-rendering:geometricPrecision;text-rendering:geometricPrecision"
       transform="matrix(0.32000487,0,0,0.32000487,-233.11859,-8.6968953)">
      <path
         style="opacity:1"
         fill="#ab6861"
         d="m 865.5,93.5 c -0.343,1.9832 0.324,3.3166 2,4 -0.881,3.542 -2.881,6.209 -6,8 -1.333,0.333 -2.667,0.667 -4,1 -0.235,-0.597 -0.735,-0.93 -1.5,-1 -2.497,0.749 -4.997,1.416 -7.5,2 5.103,-1.998 10.103,-4.498 15,-7.5 0.88,-1.3561 1.214,-2.8561 1,-4.5 -0.172,-0.9916 0.162,-1.6583 1,-2 z"
         id="path71" />
    </g>
    <g
       id="g72"
       style="clip-rule:evenodd;fill-rule:evenodd;image-rendering:optimizeQuality;shape-rendering:geometricPrecision;text-rendering:geometricPrecision"
       transform="matrix(0.32000487,0,0,0.32000487,-233.11859,-8.6968953)">
      <path
         style="opacity:1"
         fill="#f5c9c5"
         d="m 868.5,95.5 c 6.479,-0.9907 13.146,-1.324 20,-1 0.667,0 1.333,0 2,0 1.252,1.5009 2.252,3.1675 3,5 0.575,1.911 1.575,3.578 3,5 -2.973,-2.507 -5.973,-5.174 -9,-8 -6.298,-0.9963 -12.632,-1.3297 -19,-1 z"
         id="path72" />
    </g>
    <g
       id="g79"
       style="clip-rule:evenodd;fill-rule:evenodd;image-rendering:optimizeQuality;shape-rendering:geometricPrecision;text-rendering:geometricPrecision"
       transform="matrix(0.32000487,0,0,0.32000487,-233.11859,-8.6968953)">
      <path
         style="opacity:1"
         fill="#a4665c"
         d="m 893.5,99.5 c 0.667,0 1.333,0 2,0 3.308,2.76 6.974,4.76 11,6 -1.599,-0.268 -2.932,0.066 -4,1 -1.784,-0.393 -3.45,-1.059 -5,-2 -0.333,0 -0.667,0 -1,0 -1.425,-1.422 -2.425,-3.089 -3,-5 z"
         id="path79" />
    </g>
    <g
       id="g80"
       style="clip-rule:evenodd;fill-rule:evenodd;image-rendering:optimizeQuality;shape-rendering:geometricPrecision;text-rendering:geometricPrecision"
       transform="matrix(0.32000487,0,0,0.32000487,-233.11859,-8.6968953)">
      <path
         style="opacity:1"
         fill="#f7d3cd"
         d="m 852.5,95.5 c -1.293,1.7959 -2.793,3.4625 -4.5,5 -0.49,1.293 -0.657,2.627 -0.5,4 5.276,-1.047 10.276,-2.714 15,-5 -0.343,-1.9832 0.324,-3.3166 2,-4 0.214,1.6439 -0.12,3.1439 -1,4.5 -4.897,3.002 -9.897,5.502 -15,7.5 -1,0 -2,0 -3,0 -1,-5.99 1.334,-9.99 7,-12 z"
         id="path80" />
    </g>
    <g
       id="g81"
       style="clip-rule:evenodd;fill-rule:evenodd;image-rendering:optimizeQuality;shape-rendering:geometricPrecision;text-rendering:geometricPrecision"
       transform="matrix(0.32000487,0,0,0.32000487,-233.11859,-8.6968953)">
      <path
         style="opacity:1"
         fill="#f8ddd8"
         d="m 910.5,91.5 c 3.009,-0.077 5.176,1.2563 6.5,4 2.185,3.3871 3.685,7.054 4.5,11 5.132,0.311 10.132,-0.355 15,-2 1.226,0.02 2.226,0.353 3,1 -6.346,2.535 -13.013,3.535 -20,3 0.011,-7.307 -2.989,-12.9737 -9,-17 z"
         id="path81" />
    </g>
    <g
       id="g88"
       style="clip-rule:evenodd;fill-rule:evenodd;image-rendering:optimizeQuality;shape-rendering:geometricPrecision;text-rendering:geometricPrecision"
       transform="matrix(0.32000487,0,0,0.32000487,-233.11859,-8.6968953)">
      <path
         style="opacity:1"
         fill="#efb7b1"
         d="m 841.5,101.5 c -0.023,2.427 -0.523,4.76 -1.5,7 -0.671,0.752 -1.504,1.086 -2.5,1 -5.031,0.057 -9.698,-0.943 -14,-3 5.008,1.092 10.008,1.092 15,0 0.775,-1.896 1.775,-3.563 3,-5 z"
         id="path88" />
    </g>
    <g
       id="g92"
       style="clip-rule:evenodd;fill-rule:evenodd;image-rendering:optimizeQuality;shape-rendering:geometricPrecision;text-rendering:geometricPrecision"
       transform="matrix(0.32000487,0,0,0.32000487,-233.11859,-8.6968953)">
      <path
         style="opacity:1"
         fill="#bd463d"
         d="m 919.5,108.5 c 2.469,0.817 5.135,1.317 8,1.5 0.556,0.383 0.889,0.883 1,1.5 -0.973,0.487 -1.973,0.987 -3,1.5 2.069,1.523 4.403,2.357 7,2.5 0.333,0.667 0.667,1.333 1,2 -2.753,-0.522 -5.42,-1.356 -8,-2.5 -0.833,-2.167 -2.333,-3.667 -4.5,-4.5 0.077,3.632 0.41,7.299 1,11 1.302,0.585 2.469,1.251 3.5,2 -3.469,0.613 -5.469,-0.721 -6,-4 0.162,-2.027 -0.005,-4.027 -0.5,-6 -1.622,-0.599 -3.122,-1.266 -4.5,-2 0.199,-2.46 0.865,-4.793 2,-7 1.359,1.124 2.359,2.458 3,4 z"
         id="path92" />
    </g>
    <g
       id="g93"
       style="clip-rule:evenodd;fill-rule:evenodd;image-rendering:optimizeQuality;shape-rendering:geometricPrecision;text-rendering:geometricPrecision"
       transform="matrix(0.32000487,0,0,0.32000487,-233.11859,-8.6968953)">
      <path
         style="opacity:1"
         fill="#ae635a"
         d="m 939.5,105.5 c -1.027,3.877 -3.694,5.877 -8,6 -1,0 -2,0 -3,0 -0.111,-0.617 -0.444,-1.117 -1,-1.5 -2.865,-0.183 -5.531,-0.683 -8,-1.5 6.987,0.535 13.654,-0.465 20,-3 z"
         id="path93" />
    </g>
    <g
       id="g95"
       style="clip-rule:evenodd;fill-rule:evenodd;image-rendering:optimizeQuality;shape-rendering:geometricPrecision;text-rendering:geometricPrecision"
       transform="matrix(0.32000487,0,0,0.32000487,-233.11859,-8.6968953)">
      <path
         style="opacity:1"
         fill="#a86059"
         d="m 820.5,105.5 c 1.291,-0.237 2.291,0.096 3,1 4.302,2.057 8.969,3.057 14,3 -1.4,0.6 -2.4,1.6 -3,3 -3.966,-0.784 -7.966,-1.617 -12,-2.5 -1.537,-1.11 -2.203,-2.61 -2,-4.5 z"
         id="path95" />
    </g>
    <g
       id="g96"
       style="clip-rule:evenodd;fill-rule:evenodd;image-rendering:optimizeQuality;shape-rendering:geometricPrecision;text-rendering:geometricPrecision"
       transform="matrix(0.32000487,0,0,0.32000487,-233.11859,-8.6968953)">
      <path
         style="opacity:1"
         fill="#f5c8c4"
         d="m 897.5,104.5 c 1.55,0.941 3.216,1.607 5,2 3.703,2.179 7.703,3.845 12,5 1.378,0.734 2.878,1.401 4.5,2 0.495,1.973 0.662,3.973 0.5,6 -5.844,1.406 -11.511,1.073 -17,-1 5,0 10,0 15,0 0,-1.667 0,-3.333 0,-5 -5.478,-0.285 -10.478,-1.952 -15,-5 -2.704,-0.17 -4.371,-1.503 -5,-4 z"
         id="path96" />
    </g>
    <g
       id="g100"
       style="clip-rule:evenodd;fill-rule:evenodd;image-rendering:optimizeQuality;shape-rendering:geometricPrecision;text-rendering:geometricPrecision"
       transform="matrix(0.32000487,0,0,0.32000487,-233.11859,-8.6968953)">
      <path
         style="opacity:1"
         fill="#efa69f"
         d="m 928.5,111.5 c 1,0 2,0 3,0 -0.418,0.722 -1.084,1.222 -2,1.5 1.358,0.934 2.692,1.768 4,2.5 -0.333,0 -0.667,0 -1,0 -2.597,-0.143 -4.931,-0.977 -7,-2.5 1.027,-0.513 2.027,-1.013 3,-1.5 z"
         id="path100" />
    </g>
    <g
       id="g101"
       style="clip-rule:evenodd;fill-rule:evenodd;image-rendering:optimizeQuality;shape-rendering:geometricPrecision;text-rendering:geometricPrecision"
       transform="matrix(0.32000487,0,0,0.32000487,-233.11859,-8.6968953)">
      <path
         style="opacity:1"
         fill="#f7d9d6"
         d="m 939.5,105.5 c 1.098,1.101 1.265,2.434 0.5,4 -1.351,1.519 -2.851,2.852 -4.5,4 1.27,0.788 2.27,1.788 3,3 -1.792,0.134 -3.458,-0.199 -5,-1 -1.308,-0.732 -2.642,-1.566 -4,-2.5 0.916,-0.278 1.582,-0.778 2,-1.5 4.306,-0.123 6.973,-2.123 8,-6 z"
         id="path101" />
    </g>
    <g
       id="g107"
       style="clip-rule:evenodd;fill-rule:evenodd;image-rendering:optimizeQuality;shape-rendering:geometricPrecision;text-rendering:geometricPrecision"
       transform="matrix(0.32000487,0,0,0.32000487,-233.11859,-8.6968953)">
      <path
         style="opacity:1"
         fill="#efada8"
         d="m 844.5,112.5 c -0.709,0.904 -1.709,1.237 -3,1 0,2 0,4 0,6 3,0 6,0 9,0 -7.295,4.253 -10.629,2.253 -10,-6 1.068,-0.934 2.401,-1.268 4,-1 z"
         id="path107" />
    </g>
    <g
       id="g111"
       style="clip-rule:evenodd;fill-rule:evenodd;image-rendering:optimizeQuality;shape-rendering:geometricPrecision;text-rendering:geometricPrecision"
       transform="matrix(0.32000487,0,0,0.32000487,-233.11859,-8.6968953)">
      <path
         style="opacity:1"
         fill="#f9e4e0"
         d="m 902.5,108.5 c 4.522,3.048 9.522,4.715 15,5 0,1.667 0,3.333 0,5 -5,0 -10,0 -15,0 -2.804,-1.138 -5.804,-1.305 -9,-0.5 -2.667,2 -5.333,4 -8,6 -6.626,2.845 -11.959,1.345 -16,-4.5 2.669,1.457 5.503,2.79 8.5,4 2.462,-0.659 4.962,-0.993 7.5,-1 0,-1 0,-2 0,-3 1.456,-1.406 3.79,-2.573 7,-3.5 6.445,-0.6 12.778,-0.267 19,1 1.333,-1 1.333,-2 0,-3 -2.744,-0.803 -5.411,-1.803 -8,-3 -0.752,-0.671 -1.086,-1.504 -1,-2.5 z"
         id="path111" />
    </g>
    <g
       id="g112"
       style="clip-rule:evenodd;fill-rule:evenodd;image-rendering:optimizeQuality;shape-rendering:geometricPrecision;text-rendering:geometricPrecision"
       transform="matrix(0.32000487,0,0,0.32000487,-233.11859,-8.6968953)">
      <path
         style="opacity:1"
         fill="#f8dfdc"
         d="m 861.5,105.5 c -5.283,4.069 -11.117,7.402 -17.5,10 -1.257,0.35 -1.591,1.017 -1,2 1.942,-0.127 3.942,0.206 6,1 6.046,-1.875 12.212,-2.375 18.5,-1.5 0.881,0.708 1.547,1.542 2,2.5 -1.109,-0.057 -2.109,-0.39 -3,-1 -5.303,-1.37 -10.637,-1.037 -16,1 -3,0 -6,0 -9,0 0,-2 0,-4 0,-6 1.291,0.237 2.291,-0.096 3,-1 0.667,-0.667 1.333,-1.333 2,-2 4.033,-0.525 7.7,-1.858 11,-4 1.333,-0.333 2.667,-0.667 4,-1 z"
         id="path112" />
    </g>
    <g
       id="g113"
       style="clip-rule:evenodd;fill-rule:evenodd;image-rendering:optimizeQuality;shape-rendering:geometricPrecision;text-rendering:geometricPrecision"
       transform="matrix(0.32000487,0,0,0.32000487,-233.11859,-8.6968953)">
      <path
         style="opacity:1"
         fill="#d64235"
         d="m 933.5,117.5 c 6.905,-0.738 9.905,2.262 9,9 -5.703,-0.678 -11.369,-1.678 -17,-3 -1.031,-0.749 -2.198,-1.415 -3.5,-2 -0.59,-3.701 -0.923,-7.368 -1,-11 2.167,0.833 3.667,2.333 4.5,4.5 2.58,1.144 5.247,1.978 8,2.5 z"
         id="path113" />
    </g>
    <g
       id="g121"
       style="clip-rule:evenodd;fill-rule:evenodd;image-rendering:optimizeQuality;shape-rendering:geometricPrecision;text-rendering:geometricPrecision"
       transform="matrix(0.32000487,0,0,0.32000487,-233.11859,-8.6968953)">
      <path
         style="opacity:1"
         fill="#f6d3d0"
         d="m 820.5,105.5 c -0.203,1.89 0.463,3.39 2,4.5 4.034,0.883 8.034,1.716 12,2.5 -4.103,2.533 -8.77,4.033 -14,4.5 -6.116,1.793 -7.449,5.293 -4,10.5 1.333,0.333 2.667,0.667 4,1 3.342,-0.674 6.675,-1.34 10,-2 -3.024,2.282 -6.524,3.282 -10.5,3 -2.379,-0.154 -4.546,-0.82 -6.5,-2 -1.248,-3.006 -1.248,-6.006 0,-9 4.65,-1.876 9.317,-3.543 14,-5 -2.263,-1.15 -4.596,-2.15 -7,-3 -1.235,-1.816 -1.235,-3.483 0,-5 z"
         id="path121" />
    </g>
    <g
       id="g122"
       style="clip-rule:evenodd;fill-rule:evenodd;image-rendering:optimizeQuality;shape-rendering:geometricPrecision;text-rendering:geometricPrecision"
       transform="matrix(0.32000487,0,0,0.32000487,-233.11859,-8.6968953)">
      <path
         style="opacity:1"
         fill="#b34e47"
         d="m 932.5,115.5 c 0.333,0 0.667,0 1,0 1.542,0.801 3.208,1.134 5,1 7.387,1.787 8.721,5.621 4,11.5 -2.333,0.667 -4.667,0.667 -7,0 -4.887,-1.032 -9.72,-2.198 -14.5,-3.5 -1.924,0.081 -3.757,0.414 -5.5,1 0,-1 0,-2 0,-3 -1.599,-0.268 -2.932,0.066 -4,1 -5.937,-1.487 -11.937,-2.32 -18,-2.5 -2.229,2.4 -4.563,4.567 -7,6.5 -8.477,2.563 -15.477,0.396 -21,-6.5 -3.007,-0.301 -6.007,-0.135 -9,0.5 -1.699,0.16 -3.366,-0.006 -5,-0.5 4.711,-2.142 9.711,-2.976 15,-2.5 0.891,0.61 1.891,0.943 3,1 4.041,5.845 9.374,7.345 16,4.5 2.667,-2 5.333,-4 8,-6 3.196,-0.805 6.196,-0.638 9,0.5 5.489,2.073 11.156,2.406 17,1 0.531,3.279 2.531,4.613 6,4 5.631,1.322 11.297,2.322 17,3 0.905,-6.738 -2.095,-9.738 -9,-9 -0.333,-0.667 -0.667,-1.333 -1,-2 z"
         id="path122" />
    </g>
    <g
       id="g129"
       style="clip-rule:evenodd;fill-rule:evenodd;image-rendering:optimizeQuality;shape-rendering:geometricPrecision;text-rendering:geometricPrecision"
       transform="matrix(0.32000487,0,0,0.32000487,-233.11859,-8.6968953)">
      <path
         style="opacity:1"
         fill="#c04f47"
         d="m 846.5,110.5 c -0.667,0.667 -1.333,1.333 -2,2 -1.599,-0.268 -2.932,0.066 -4,1 -1.317,2.73 -1.317,5.563 0,8.5 -1.237,0.232 -2.237,0.732 -3,1.5 -1.21,0.432 -2.21,1.099 -3,2 -1.599,-0.268 -2.932,0.066 -4,1 -3.325,0.66 -6.658,1.326 -10,2 -1.333,-0.333 -2.667,-0.667 -4,-1 -3.449,-5.207 -2.116,-8.707 4,-10.5 5.23,-0.467 9.897,-1.967 14,-4.5 0.6,-1.4 1.6,-2.4 3,-3 0.996,0.086 1.829,-0.248 2.5,-1 0.977,-2.24 1.477,-4.573 1.5,-7 0.897,-1.098 1.73,-1.098 2.5,0 0.497,2.31 0.663,4.643 0.5,7 2.493,-0.369 3.16,0.297 2,2 z"
         id="path129" />
    </g>
    <g
       id="g130"
       style="clip-rule:evenodd;fill-rule:evenodd;image-rendering:optimizeQuality;shape-rendering:geometricPrecision;text-rendering:geometricPrecision"
       transform="matrix(0.32000487,0,0,0.32000487,-233.11859,-8.6968953)">
      <path
         style="opacity:1"
         fill="#d6453a"
         d="m 834.5,115.5 c 2.905,1.435 3.572,3.602 2,6.5 -4.94,1.712 -9.94,3.212 -15,4.5 -4.335,-1.507 -5.002,-4.007 -2,-7.5 3,-0.333 6,-0.667 9,-1 2.352,-0.24 4.352,-1.073 6,-2.5 z"
         id="path130" />
    </g>
    <g
       id="g131"
       style="clip-rule:evenodd;fill-rule:evenodd;image-rendering:optimizeQuality;shape-rendering:geometricPrecision;text-rendering:geometricPrecision"
       transform="matrix(0.32000487,0,0,0.32000487,-233.11859,-8.6968953)">
      <path
         style="opacity:1"
         fill="#eeaea7"
         d="m 886.5,127.5 c 1.699,0.16 3.366,-0.006 5,-0.5 1.225,-1.563 2.725,-2.73 4.5,-3.5 1.667,1.333 3.333,1.333 5,0 2.524,0.604 5.024,1.271 7.5,2 1.405,5.637 1.071,11.137 -1,16.5 0.632,9.091 1.632,18.091 3,27 -0.333,2.5 -0.667,5 -1,7.5 -2.324,0.377 -2.991,1.377 -2,3 -1.491,0.744 -2.991,1.41 -4.5,2 -2.167,-2.833 -4.333,-5.667 -6.5,-8.5 0.333,-0.333 0.667,-0.667 1,-1 -0.496,-1.996 -1.496,-3.663 -3,-5 2.138,-5.72 0.138,-8.22 -6,-7.5 -3.312,-0.443 -6.645,-0.776 -10,-1 -2.986,-0.211 -5.653,0.456 -8,2 -4.785,1.289 -7.785,4.455 -9,9.5 0.522,0.561 0.855,1.228 1,2 -3.98,4.784 -7.646,9.618 -11,14.5 -1.989,-20.64 -2.655,-41.64 -2,-63 2.452,-0.565 4.785,-1.232 7,-2 2.993,-0.635 5.993,-0.801 9,-0.5 5.523,6.896 12.523,9.063 21,6.5 z"
         id="path131" />
    </g>
    <g
       id="g137"
       style="clip-rule:evenodd;fill-rule:evenodd;image-rendering:optimizeQuality;shape-rendering:geometricPrecision;text-rendering:geometricPrecision"
       transform="matrix(0.32000487,0,0,0.32000487,-233.11859,-8.6968953)">
      <path
         style="opacity:1"
         fill="#f6dbd7"
         d="m 938.5,116.5 c 8.508,-0.977 11.342,2.69 8.5,11 -0.308,0.808 -0.808,1.475 -1.5,2 -2.938,1.075 -5.938,1.241 -9,0.5 -4.19,-0.378 -8.024,-1.545 -11.5,-3.5 -2.041,0.923 -4.208,1.256 -6.5,1 -0.077,20.26 0.09,40.593 0.5,61 3.683,3.941 5.516,8.607 5.5,14 -0.845,-1.171 -1.511,-2.505 -2,-4 -1.194,-3.863 -3.527,-6.863 -7,-9 0,-21.333 0,-42.667 0,-64 1.743,-0.586 3.576,-0.919 5.5,-1 4.78,1.302 9.613,2.468 14.5,3.5 2.333,0.667 4.667,0.667 7,0 4.721,-5.879 3.387,-9.713 -4,-11.5 z"
         id="path137" />
    </g>
    <g
       id="g154"
       style="clip-rule:evenodd;fill-rule:evenodd;image-rendering:optimizeQuality;shape-rendering:geometricPrecision;text-rendering:geometricPrecision"
       transform="matrix(0.32000487,0,0,0.32000487,-233.11859,-8.6968953)">
      <path
         style="opacity:1"
         fill="#f39187"
         d="m 849.5,123.5 c -0.655,21.36 0.011,42.36 2,63 -0.311,0.978 -0.978,1.645 -2,2 -1,-18.321 -1.333,-36.655 -1,-55 -0.313,-3.542 0.021,-6.875 1,-10 z"
         id="path154" />
    </g>
    <g
       id="g157"
       style="clip-rule:evenodd;fill-rule:evenodd;image-rendering:optimizeQuality;shape-rendering:geometricPrecision;text-rendering:geometricPrecision"
       transform="matrix(0.32000487,0,0,0.32000487,-233.11859,-8.6968953)">
      <path
         style="opacity:1"
         fill="#bc453a"
         d="m 848.5,133.5 c -0.333,18.345 0,36.679 1,55 1.022,-0.355 1.689,-1.022 2,-2 2.748,-0.098 3.414,0.902 2,3 -0.667,0 -1,0.333 -1,1 -2,0.667 -4,1.333 -6,2 -1.333,0 -2,-0.667 -2,-2 1.163,-21.829 1.33,-43.829 0.5,-66 -0.5,-0.5 -1,-1 -1.5,-1.5 1.293,-0.49 2.627,-0.657 4,-0.5 -0.315,3.871 0.018,7.538 1,11 z"
         id="path157" />
    </g>
    <g
       id="g158"
       style="clip-rule:evenodd;fill-rule:evenodd;image-rendering:optimizeQuality;shape-rendering:geometricPrecision;text-rendering:geometricPrecision"
       transform="matrix(0.32000487,0,0,0.32000487,-233.11859,-8.6968953)">
      <path
         style="opacity:1"
         fill="#f9e7e5"
         d="m 873.5,129.5 c 4.384,-0.326 8.717,0.008 13,1 0.972,8.946 1.306,17.946 1,27 -4.667,0 -9.333,0 -14,0 0,-9.333 0,-18.667 0,-28 z"
         id="path158" />
    </g>
    <g
       id="g159"
       style="clip-rule:evenodd;fill-rule:evenodd;image-rendering:optimizeQuality;shape-rendering:geometricPrecision;text-rendering:geometricPrecision"
       transform="matrix(0.32000487,0,0,0.32000487,-233.11859,-8.6968953)">
      <path
         style="opacity:1"
         fill="#faf9f8"
         d="m 875.5,131.5 c 3.333,0.333 6.667,0.667 10,1 0,8 0,16 0,24 -3.667,0 -7.333,0 -11,0 -0.302,-8.418 0.031,-16.752 1,-25 z"
         id="path159" />
    </g>
    <g
       id="g162"
       style="clip-rule:evenodd;fill-rule:evenodd;image-rendering:optimizeQuality;shape-rendering:geometricPrecision;text-rendering:geometricPrecision"
       transform="matrix(0.32000487,0,0,0.32000487,-233.11859,-8.6968953)">
      <path
         style="opacity:1"
         fill="#fad3cf"
         d="m 837.5,123.5 c 2.327,0.165 4.493,0.831 6.5,2 0.5,21.664 0.667,43.331 0.5,65 -2.615,0.95 -4.615,2.617 -6,5 2.218,-4.688 3.384,-9.688 3.5,-15 0.5,-18.33 0.667,-36.664 0.5,-55 -2.667,0 -5.333,0 -8,0 0.79,-0.901 1.79,-1.568 3,-2 z"
         id="path162" />
    </g>
    <g
       id="g165"
       style="clip-rule:evenodd;fill-rule:evenodd;image-rendering:optimizeQuality;shape-rendering:geometricPrecision;text-rendering:geometricPrecision"
       transform="matrix(0.32000487,0,0,0.32000487,-233.11859,-8.6968953)">
      <path
         style="opacity:1"
         fill="#c16259"
         d="m 840.5,113.5 c -0.629,8.253 2.705,10.253 10,6 5.363,-2.037 10.697,-2.37 16,-1 -5.289,-0.476 -10.289,0.358 -15,2.5 1.634,0.494 3.301,0.66 5,0.5 -2.215,0.768 -4.548,1.435 -7,2 -0.979,3.125 -1.313,6.458 -1,10 -0.982,-3.462 -1.315,-7.129 -1,-11 -1.373,-0.157 -2.707,0.01 -4,0.5 0.5,0.5 1,1 1.5,1.5 0.83,22.171 0.663,44.171 -0.5,66 0.167,-21.669 0,-43.336 -0.5,-65 -2.007,-1.169 -4.173,-1.835 -6.5,-2 0.763,-0.768 1.763,-1.268 3,-1.5 -1.317,-2.937 -1.317,-5.77 0,-8.5 z"
         id="path165" />
    </g>
    <g
       id="g170"
       style="clip-rule:evenodd;fill-rule:evenodd;image-rendering:optimizeQuality;shape-rendering:geometricPrecision;text-rendering:geometricPrecision"
       transform="matrix(0.32000487,0,0,0.32000487,-233.11859,-8.6968953)">
      <path
         style="opacity:1"
         fill="#c34840"
         d="m 888.5,159.5 c 0.333,0.667 0.667,1.333 1,2 -4.948,-1.059 -9.948,-1.226 -15,-0.5 -2.558,0.884 -4.558,2.384 -6,4.5 -0.108,-2.014 0.558,-3.68 2,-5 2.347,-1.544 5.014,-2.211 8,-2 3.355,0.224 6.688,0.557 10,1 z"
         id="path170" />
    </g>
    <g
       id="g177"
       style="clip-rule:evenodd;fill-rule:evenodd;image-rendering:optimizeQuality;shape-rendering:geometricPrecision;text-rendering:geometricPrecision"
       transform="matrix(0.32000487,0,0,0.32000487,-233.11859,-8.6968953)">
      <path
         style="opacity:1"
         fill="#ec9b95"
         d="m 870.5,160.5 c -1.442,1.32 -2.108,2.986 -2,5 -3.313,5.276 -5.647,10.942 -7,17 0.149,-1.052 -0.017,-2.052 -0.5,-3 -1.139,3.083 -2.472,6.083 -4,9 -1.011,0.837 -2.178,1.17 -3.5,1 1.414,-2.098 0.748,-3.098 -2,-3 3.354,-4.882 7.02,-9.716 11,-14.5 -0.145,-0.772 -0.478,-1.439 -1,-2 1.215,-5.045 4.215,-8.211 9,-9.5 z"
         id="path177" />
    </g>
    <g
       id="g181"
       style="clip-rule:evenodd;fill-rule:evenodd;image-rendering:optimizeQuality;shape-rendering:geometricPrecision;text-rendering:geometricPrecision"
       transform="matrix(0.32000487,0,0,0.32000487,-233.11859,-8.6968953)">
      <path
         style="opacity:1"
         fill="#db3e33"
         d="m 889.5,161.5 c 0.489,2.967 1.655,5.633 3.5,8 0.612,9.35 2.612,18.35 6,27 1.532,17.402 -0.301,34.402 -5.5,51 -1.576,2.077 -3.576,3.577 -6,4.5 -12.739,4.329 -20.406,0.163 -23,-12.5 -1.032,-7.537 -2.032,-15.037 -3,-22.5 0.667,-1.333 1.333,-2.667 2,-4 -0.996,-9.113 -0.829,-18.28 0.5,-27.5 2.672,-6.345 4.172,-13.012 4.5,-20 1.442,-2.116 3.442,-3.616 6,-4.5 5.052,-0.726 10.052,-0.559 15,0.5 z"
         id="path181" />
    </g>
    <g
       id="g185"
       style="clip-rule:evenodd;fill-rule:evenodd;image-rendering:optimizeQuality;shape-rendering:geometricPrecision;text-rendering:geometricPrecision"
       transform="matrix(0.32000487,0,0,0.32000487,-233.11859,-8.6968953)">
      <path
         style="opacity:1"
         fill="#be5046"
         d="m 915.5,125.5 c 0,21.333 0,42.667 0,64 -0.086,0.996 0.248,1.829 1,2.5 -1.293,0.49 -2.627,0.657 -4,0.5 -0.333,0 -0.667,0 -1,0 -0.333,0 -0.667,0 -1,0 -0.333,-1 -1,-1.667 -2,-2 -2.759,-0.433 -4.092,-2.1 -4,-5 2.333,0.667 4.667,1.333 7,2 0,-21.333 0,-42.667 0,-64 1.068,-0.934 2.401,-1.268 4,-1 0,1 0,2 0,3 z"
         id="path185" />
    </g>
    <g
       id="g192"
       style="clip-rule:evenodd;fill-rule:evenodd;image-rendering:optimizeQuality;shape-rendering:geometricPrecision;text-rendering:geometricPrecision"
       transform="matrix(0.32000487,0,0,0.32000487,-233.11859,-8.6968953)">
      <path
         style="opacity:1"
         fill="#f0a099"
         d="m 911.5,123.5 c 0,21.333 0,42.667 0,64 -2.333,-0.667 -4.667,-1.333 -7,-2 -0.092,2.9 1.241,4.567 4,5 -2,0 -4,0 -6,0 0.039,-1.256 -0.461,-2.256 -1.5,-3 -0.497,2.31 -0.663,4.643 -0.5,7 -2.124,-8.104 -3.957,-16.437 -5.5,-25 -1.104,-3.221 -2.937,-5.888 -5.5,-8 -0.333,-0.667 -0.667,-1.333 -1,-2 6.138,-0.72 8.138,1.78 6,7.5 1.504,1.337 2.504,3.004 3,5 -0.333,0.333 -0.667,0.667 -1,1 2.167,2.833 4.333,5.667 6.5,8.5 1.509,-0.59 3.009,-1.256 4.5,-2 -0.991,-1.623 -0.324,-2.623 2,-3 0.333,-2.5 0.667,-5 1,-7.5 -1.368,-8.909 -2.368,-17.909 -3,-27 2.071,-5.363 2.405,-10.863 1,-16.5 -2.476,-0.729 -4.976,-1.396 -7.5,-2 -1.667,1.333 -3.333,1.333 -5,0 -1.775,0.77 -3.275,1.937 -4.5,3.5 -1.634,0.494 -3.301,0.66 -5,0.5 2.437,-1.933 4.771,-4.1 7,-6.5 6.063,0.18 12.063,1.013 18,2.5 z"
         id="path192" />
    </g>
    <g
       id="g194"
       style="clip-rule:evenodd;fill-rule:evenodd;image-rendering:optimizeQuality;shape-rendering:geometricPrecision;text-rendering:geometricPrecision"
       transform="matrix(0.32000487,0,0,0.32000487,-233.11859,-8.6968953)">
      <path
         style="opacity:1"
         fill="#c25247"
         d="m 889.5,161.5 c 2.563,2.112 4.396,4.779 5.5,8 1.543,8.563 3.376,16.896 5.5,25 1.581,17.528 0.248,34.861 -4,52 -1.958,4.951 -5.625,7.618 -11,8 -4.333,0 -8.667,0 -13,0 -3.546,-0.885 -6.212,-2.885 -8,-6 -0.065,-2.928 -0.732,-5.595 -2,-8 0,-0.667 0,-1.333 0,-2 0.667,0.333 1.333,0.667 2,1 2.594,12.663 10.261,16.829 23,12.5 2.424,-0.923 4.424,-2.423 6,-4.5 5.199,-16.598 7.032,-33.598 5.5,-51 -3.388,-8.65 -5.388,-17.65 -6,-27 -1.845,-2.367 -3.011,-5.033 -3.5,-8 z"
         id="path194" />
    </g>
    <g
       id="g196"
       style="clip-rule:evenodd;fill-rule:evenodd;image-rendering:optimizeQuality;shape-rendering:geometricPrecision;text-rendering:geometricPrecision"
       transform="matrix(0.32000487,0,0,0.32000487,-233.11859,-8.6968953)">
      <path
         style="opacity:1"
         fill="#ca4138"
         d="m 868.5,165.5 c -0.328,6.988 -1.828,13.655 -4.5,20 -1.329,9.22 -1.496,18.387 -0.5,27.5 -0.667,1.333 -1.333,2.667 -2,4 0.968,7.463 1.968,14.963 3,22.5 -0.667,-0.333 -1.333,-0.667 -2,-1 -0.946,-5.293 -1.613,-10.626 -2,-16 -0.066,-11.681 0.267,-23.348 1,-35 0,-1.667 0,-3.333 0,-5 1.353,-6.058 3.687,-11.724 7,-17 z"
         id="path196" />
    </g>
    <g
       id="g200"
       style="clip-rule:evenodd;fill-rule:evenodd;image-rendering:optimizeQuality;shape-rendering:geometricPrecision;text-rendering:geometricPrecision"
       transform="matrix(0.32000487,0,0,0.32000487,-233.11859,-8.6968953)">
      <path
         style="opacity:1"
         fill="#f3d6d2"
         d="m 852.5,190.5 c 1.193,0.47 1.86,1.47 2,3 -1.333,17.347 -1.333,34.68 0,52 0.005,4.034 0.338,8.034 1,12 -1.518,-3.034 -2.351,-6.367 -2.5,-10 -0.167,-18.342 -0.667,-36.676 -1.5,-55 -2.808,0.594 -5.141,1.927 -7,4 0.233,-1.562 0.9,-2.895 2,-4 2,-0.667 4,-1.333 6,-2 z"
         id="path200" />
    </g>
    <g
       id="g201"
       style="clip-rule:evenodd;fill-rule:evenodd;image-rendering:optimizeQuality;shape-rendering:geometricPrecision;text-rendering:geometricPrecision"
       transform="matrix(0.32000487,0,0,0.32000487,-233.11859,-8.6968953)">
      <path
         style="opacity:1"
         fill="#f9f5f3"
         d="m 855.5,257.5 c 1.29,6.278 1.29,12.612 0,19 -1.226,-1.778 -2.893,-2.778 -5,-3 -2.644,-3.273 -4.811,-6.94 -6.5,-11 -2.157,-8.62 -3.99,-17.287 -5.5,-26 -0.066,-9.352 0.268,-18.685 1,-28 0.061,-4.776 1.728,-8.776 5,-12 1.859,-2.073 4.192,-3.406 7,-4 0.833,18.324 1.333,36.658 1.5,55 0.149,3.633 0.982,6.966 2.5,10 z"
         id="path201" />
    </g>
    <g
       id="g202"
       style="clip-rule:evenodd;fill-rule:evenodd;image-rendering:optimizeQuality;shape-rendering:geometricPrecision;text-rendering:geometricPrecision"
       transform="matrix(0.32000487,0,0,0.32000487,-233.11859,-8.6968953)">
      <path
         style="opacity:1"
         fill="#f9f7f6"
         d="m 910.5,192.5 c 0.333,0 0.667,0 1,0 0,1 0,2 0,3 1.322,-0.17 2.489,0.163 3.5,1 1.58,3.885 2.913,8.218 4,13 0.431,14.289 0.098,28.289 -1,42 -1.624,4.16 -2.791,8.493 -3.5,13 0,0.667 0,1.333 0,2 -2.735,1.287 -4.402,3.453 -5,6.5 -1.293,0.49 -2.627,0.657 -4,0.5 0.219,1.175 -0.114,2.175 -1,3 -0.333,-2.167 -0.667,-4.333 -1,-6.5 3.268,-25.722 4.601,-51.556 4,-77.5 1,0 2,0 3,0 z"
         id="path202" />
    </g>
    <g
       id="g205"
       style="clip-rule:evenodd;fill-rule:evenodd;image-rendering:optimizeQuality;shape-rendering:geometricPrecision;text-rendering:geometricPrecision"
       transform="matrix(0.32000487,0,0,0.32000487,-233.11859,-8.6968953)">
      <path
         style="opacity:1"
         fill="#b6655c"
         d="m 915.5,189.5 c 3.473,2.137 5.806,5.137 7,9 -1.868,-1.174 -2.868,-0.507 -3,2 -1.59,-3.261 -3.924,-5.927 -7,-8 1.373,0.157 2.707,-0.01 4,-0.5 -0.752,-0.671 -1.086,-1.504 -1,-2.5 z"
         id="path205" />
    </g>
    <g
       id="g211"
       style="clip-rule:evenodd;fill-rule:evenodd;image-rendering:optimizeQuality;shape-rendering:geometricPrecision;text-rendering:geometricPrecision"
       transform="matrix(0.32000487,0,0,0.32000487,-233.11859,-8.6968953)">
      <path
         style="opacity:1"
         fill="#f7c9c3"
         d="m 902.5,190.5 c 0.94,12.296 1.273,24.629 1,37 -1.086,0.12 -1.753,0.787 -2,2 -1.049,4.962 -1.883,9.962 -2.5,15 -0.417,1.256 -1.25,1.923 -2.5,2 4.248,-17.139 5.581,-34.472 4,-52 -0.163,-2.357 0.003,-4.69 0.5,-7 1.039,0.744 1.539,1.744 1.5,3 z"
         id="path211" />
    </g>
    <g
       id="g217"
       style="clip-rule:evenodd;fill-rule:evenodd;image-rendering:optimizeQuality;shape-rendering:geometricPrecision;text-rendering:geometricPrecision"
       transform="matrix(0.32000487,0,0,0.32000487,-233.11859,-8.6968953)">
      <path
         style="opacity:1"
         fill="#bc5149"
         d="m 861.5,187.5 c -0.733,11.652 -1.066,23.319 -1,35 -0.994,-9.152 -1.327,-18.485 -1,-28 0.667,-2.333 1.333,-4.667 2,-7 z"
         id="path217" />
    </g>
    <g
       id="g223"
       style="clip-rule:evenodd;fill-rule:evenodd;image-rendering:optimizeQuality;shape-rendering:geometricPrecision;text-rendering:geometricPrecision"
       transform="matrix(0.32000487,0,0,0.32000487,-233.11859,-8.6968953)">
      <path
         style="opacity:1"
         fill="#cc7974"
         d="m 835.5,205.5 c -1.27,13.003 -1.27,26.003 0,39 -0.667,-2.333 -1.333,-4.667 -2,-7 -0.166,-9.006 0,-18.006 0.5,-27 0.198,-1.882 0.698,-3.548 1.5,-5 z"
         id="path223" />
    </g>
    <g
       id="g224"
       style="clip-rule:evenodd;fill-rule:evenodd;image-rendering:optimizeQuality;shape-rendering:geometricPrecision;text-rendering:geometricPrecision"
       transform="matrix(0.32000487,0,0,0.32000487,-233.11859,-8.6968953)">
      <path
         style="opacity:1"
         fill="#e3a19b"
         d="m 839.5,208.5 c -0.732,9.315 -1.066,18.648 -1,28 -0.665,-3.651 -0.999,-7.485 -1,-11.5 -0.189,-5.752 0.478,-11.252 2,-16.5 z"
         id="path224" />
    </g>
    <g
       id="g226"
       style="clip-rule:evenodd;fill-rule:evenodd;image-rendering:optimizeQuality;shape-rendering:geometricPrecision;text-rendering:geometricPrecision"
       transform="matrix(0.32000487,0,0,0.32000487,-233.11859,-8.6968953)">
      <path
         style="opacity:1"
         fill="#f9ddda"
         d="m 836.5,198.5 c -0.493,2.306 -0.826,4.639 -1,7 -0.802,1.452 -1.302,3.118 -1.5,5 -0.5,8.994 -0.666,17.994 -0.5,27 -0.802,-1.452 -1.302,-3.118 -1.5,-5 -0.743,-10.392 -0.243,-20.726 1.5,-31 1.235,-0.84 2.235,-1.84 3,-3 z"
         id="path226" />
    </g>
    <g
       id="g228"
       style="clip-rule:evenodd;fill-rule:evenodd;image-rendering:optimizeQuality;shape-rendering:geometricPrecision;text-rendering:geometricPrecision"
       transform="matrix(0.32000487,0,0,0.32000487,-233.11859,-8.6968953)">
      <path
         style="opacity:1"
         fill="#d2a2a0"
         d="m 861.5,182.5 c 0,1.667 0,3.333 0,5 -0.667,2.333 -1.333,4.667 -2,7 0.162,-2.027 -0.005,-4.027 -0.5,-6 -0.333,0.333 -0.667,0.667 -1,1 -0.333,3 -0.667,6 -1,9 0.155,16.032 -0.679,31.699 -2.5,47 -1.333,-17.32 -1.333,-34.653 0,-52 -0.14,-1.53 -0.807,-2.53 -2,-3 0,-0.667 0.333,-1 1,-1 1.322,0.17 2.489,-0.163 3.5,-1 1.528,-2.917 2.861,-5.917 4,-9 0.483,0.948 0.649,1.948 0.5,3 z"
         id="path228" />
    </g>
    <g
       id="g230"
       style="clip-rule:evenodd;fill-rule:evenodd;image-rendering:optimizeQuality;shape-rendering:geometricPrecision;text-rendering:geometricPrecision"
       transform="matrix(0.32000487,0,0,0.32000487,-233.11859,-8.6968953)">
      <path
         style="opacity:1"
         fill="#f8dedb"
         d="m 911.5,192.5 c 0.333,0 0.667,0 1,0 3.076,2.073 5.41,4.739 7,8 4.048,17.669 3.882,35.336 -0.5,53 -1.356,3.795 -2.856,7.462 -4.5,11 0.709,-4.507 1.876,-8.84 3.5,-13 1.098,-13.711 1.431,-27.711 1,-42 -1.087,-4.782 -2.42,-9.115 -4,-13 -1.011,-0.837 -2.178,-1.17 -3.5,-1 0,-1 0,-2 0,-3 z"
         id="path230" />
    </g>
    <g
       id="g232"
       style="clip-rule:evenodd;fill-rule:evenodd;image-rendering:optimizeQuality;shape-rendering:geometricPrecision;text-rendering:geometricPrecision"
       transform="matrix(0.32000487,0,0,0.32000487,-233.11859,-8.6968953)">
      <path
         style="opacity:1"
         fill="#f7ddd8"
         d="m 862.5,240.5 c 1.268,2.405 1.935,5.072 2,8 -1.873,-1.363 -3.539,-3.03 -5,-5 -0.984,2.928 -1.317,5.928 -1,9 -1.321,-8.509 -1.321,-17.175 0,-26 0.969,4.893 2.302,9.56 4,14 z"
         id="path232" />
    </g>
    <g
       id="g233"
       style="clip-rule:evenodd;fill-rule:evenodd;image-rendering:optimizeQuality;shape-rendering:geometricPrecision;text-rendering:geometricPrecision"
       transform="matrix(0.32000487,0,0,0.32000487,-233.11859,-8.6968953)">
      <path
         style="opacity:1"
         fill="#ddb4b0"
         d="m 902.5,190.5 c 2,0 4,0 6,0 1,0.333 1.667,1 2,2 -1,0 -2,0 -3,0 0.601,25.944 -0.732,51.778 -4,77.5 0.333,2.167 0.667,4.333 1,6.5 0.886,-0.825 1.219,-1.825 1,-3 1.373,0.157 2.707,-0.01 4,-0.5 0.598,-3.047 2.265,-5.213 5,-6.5 -1.813,3.433 -3.813,6.766 -6,10 -3.745,1.853 -7.412,3.853 -11,6 3.317,-18.065 5.317,-36.398 6,-55 0.273,-12.371 -0.06,-24.704 -1,-37 z"
         id="path233" />
    </g>
    <g
       id="g242"
       style="clip-rule:evenodd;fill-rule:evenodd;image-rendering:optimizeQuality;shape-rendering:geometricPrecision;text-rendering:geometricPrecision"
       transform="matrix(0.32000487,0,0,0.32000487,-233.11859,-8.6968953)">
      <path
         style="opacity:1"
         fill="#f4c5c0"
         d="m 926.5,218.5 c 1.156,7.823 1.323,15.823 0.5,24 -1.387,5.936 -2.387,11.936 -3,18 -0.72,1.556 -1.887,2.556 -3.5,3 4.736,-14.618 6.736,-29.618 6,-45 z"
         id="path242" />
    </g>
    <g
       id="g247"
       style="clip-rule:evenodd;fill-rule:evenodd;image-rendering:optimizeQuality;shape-rendering:geometricPrecision;text-rendering:geometricPrecision"
       transform="matrix(0.32000487,0,0,0.32000487,-233.11859,-8.6968953)">
      <path
         style="opacity:1"
         fill="#e1b3ae"
         d="m 859.5,194.5 c -0.327,9.515 0.006,18.848 1,28 0.387,5.374 1.054,10.707 2,16 0,0.667 0,1.333 0,2 -1.698,-4.44 -3.031,-9.107 -4,-14 -1.321,8.825 -1.321,17.491 0,26 0.977,9.978 2.31,19.978 4,30 -5.128,-1.457 -9.128,-4.457 -12,-9 2.107,0.222 3.774,1.222 5,3 1.29,-6.388 1.29,-12.722 0,-19 -0.662,-3.966 -0.995,-7.966 -1,-12 1.821,-15.301 2.655,-30.968 2.5,-47 0.333,-3 0.667,-6 1,-9 0.333,-0.333 0.667,-0.667 1,-1 0.495,1.973 0.662,3.973 0.5,6 z"
         id="path247" />
    </g>
    <g
       id="g250"
       style="clip-rule:evenodd;fill-rule:evenodd;image-rendering:optimizeQuality;shape-rendering:geometricPrecision;text-rendering:geometricPrecision"
       transform="matrix(0.32000487,0,0,0.32000487,-233.11859,-8.6968953)">
      <path
         style="opacity:1"
         fill="#f9f4f3"
         d="m 903.5,227.5 c -0.683,18.602 -2.683,36.935 -6,55 0.227,2.433 -0.773,4.099 -3,5 -3.43,1.39 -6.764,1.224 -10,-0.5 1.167,-1.833 2.333,-3.667 3.5,-5.5 0.156,-3.634 1.156,-6.967 3,-10 0.84,-2.818 0.006,-4.984 -2.5,-6.5 -2.833,-0.167 -5.667,-0.333 -8.5,-0.5 -3.252,0.019 -6.085,0.686 -8.5,2 0,0.333 0,0.667 0,1 -1.138,2.804 -1.305,5.804 -0.5,9 0.099,2.153 0.933,3.819 2.5,5 0.039,1.083 0.373,2.083 1,3 2.938,0.989 5.938,1.656 9,2 0,1 0,2 0,3 -6.106,0.123 -12.106,-0.544 -18,-2 -2.227,-0.901 -3.227,-2.567 -3,-5 -1.69,-10.022 -3.023,-20.022 -4,-30 -0.317,-3.072 0.016,-6.072 1,-9 1.461,1.97 3.127,3.637 5,5 1.788,3.115 4.454,5.115 8,6 3.719,1.798 7.719,2.298 12,1.5 0.556,-0.383 0.889,-0.883 1,-1.5 5.375,-0.382 9.042,-3.049 11,-8 1.25,-0.077 2.083,-0.744 2.5,-2 0.617,-5.038 1.451,-10.038 2.5,-15 0.247,-1.213 0.914,-1.88 2,-2 z"
         id="path250" />
    </g>
    <g
       id="g253"
       style="clip-rule:evenodd;fill-rule:evenodd;image-rendering:optimizeQuality;shape-rendering:geometricPrecision;text-rendering:geometricPrecision"
       transform="matrix(0.32000487,0,0,0.32000487,-233.11859,-8.6968953)">
      <path
         style="opacity:1"
         fill="#f8d3cc"
         d="m 833.5,237.5 c 0.667,2.333 1.333,4.667 2,7 0.537,4.686 1.204,9.353 2,14 -1.595,-1.611 -2.761,-3.611 -3.5,-6 -0.499,-4.989 -0.666,-9.989 -0.5,-15 z"
         id="path253" />
    </g>
    <g
       id="g254"
       style="clip-rule:evenodd;fill-rule:evenodd;image-rendering:optimizeQuality;shape-rendering:geometricPrecision;text-rendering:geometricPrecision"
       transform="matrix(0.32000487,0,0,0.32000487,-233.11859,-8.6968953)">
      <path
         style="opacity:1"
         fill="#ecb2af"
         d="m 872.5,254.5 c 4.333,0 8.667,0 13,0 -0.111,0.617 -0.444,1.117 -1,1.5 -4.281,0.798 -8.281,0.298 -12,-1.5 z"
         id="path254" />
    </g>
    <g
       id="g256"
       style="clip-rule:evenodd;fill-rule:evenodd;image-rendering:optimizeQuality;shape-rendering:geometricPrecision;text-rendering:geometricPrecision"
       transform="matrix(0.32000487,0,0,0.32000487,-233.11859,-8.6968953)">
      <path
         style="opacity:1"
         fill="#b5544c"
         d="m 922.5,198.5 c 0.489,1.495 1.155,2.829 2,4 1.315,5.244 1.982,10.577 2,16 0.736,15.382 -1.264,30.382 -6,45 -1.574,1.602 -2.241,3.602 -2,6 -2.741,2.475 -4.741,5.475 -6,9 -0.333,0 -0.667,0 -1,0 -0.321,-1.548 -1.321,-2.215 -3,-2 2.187,-3.234 4.187,-6.567 6,-10 0,-0.667 0,-1.333 0,-2 1.644,-3.538 3.144,-7.205 4.5,-11 4.382,-17.664 4.548,-35.331 0.5,-53 0.132,-2.507 1.132,-3.174 3,-2 z"
         id="path256" />
    </g>
    <g
       id="g263"
       style="clip-rule:evenodd;fill-rule:evenodd;image-rendering:optimizeQuality;shape-rendering:geometricPrecision;text-rendering:geometricPrecision"
       transform="matrix(0.32000487,0,0,0.32000487,-233.11859,-8.6968953)">
      <path
         style="opacity:1"
         fill="#e9b2af"
         d="m 920.5,263.5 c 0.241,2.398 -0.426,4.398 -2,6 -0.241,-2.398 0.426,-4.398 2,-6 z"
         id="path263" />
    </g>
    <g
       id="g270"
       style="clip-rule:evenodd;fill-rule:evenodd;image-rendering:optimizeQuality;shape-rendering:geometricPrecision;text-rendering:geometricPrecision"
       transform="matrix(0.32000487,0,0,0.32000487,-233.11859,-8.6968953)">
      <path
         style="opacity:1"
         fill="#e8b6b1"
         d="m 871.5,267.5 c 0.038,4.771 0.704,9.438 2,14 -1.567,-1.181 -2.401,-2.847 -2.5,-5 -0.805,-3.196 -0.638,-6.196 0.5,-9 z"
         id="path270" />
    </g>
    <g
       id="g273"
       style="clip-rule:evenodd;fill-rule:evenodd;image-rendering:optimizeQuality;shape-rendering:geometricPrecision;text-rendering:geometricPrecision"
       transform="matrix(0.32000487,0,0,0.32000487,-233.11859,-8.6968953)">
      <path
         style="opacity:1"
         fill="#ad5349"
         d="m 871.5,266.5 c 5.676,-0.166 11.343,10e-4 17,0.5 0.559,0.725 0.892,1.558 1,2.5 -0.983,5.105 -2.65,9.939 -5,14.5 -4.242,1.077 -7.909,0.244 -11,-2.5 -1.296,-4.562 -1.962,-9.229 -2,-14 0,-0.333 0,-0.667 0,-1 z"
         id="path273" />
    </g>
    <g
       id="g274"
       style="clip-rule:evenodd;fill-rule:evenodd;image-rendering:optimizeQuality;shape-rendering:geometricPrecision;text-rendering:geometricPrecision"
       transform="matrix(0.32000487,0,0,0.32000487,-233.11859,-8.6968953)">
      <path
         style="opacity:1"
         fill="#f38b7f"
         d="m 886.5,271.5 c -0.548,2.126 -1.215,4.126 -2,6 0.417,-4.568 -1.583,-6.068 -6,-4.5 -2.199,2.624 -2.532,5.458 -1,8.5 -1.741,-1.895 -2.741,-4.228 -3,-7 0.079,-1.43 -0.254,-2.764 -1,-4 2.167,-0.333 4.333,-0.667 6.5,-1 2.61,0.033 4.777,0.7 6.5,2 z"
         id="path274" />
    </g>
    <g
       id="g275"
       style="clip-rule:evenodd;fill-rule:evenodd;image-rendering:optimizeQuality;shape-rendering:geometricPrecision;text-rendering:geometricPrecision"
       transform="matrix(0.32000487,0,0,0.32000487,-233.11859,-8.6968953)">
      <path
         style="opacity:1"
         fill="#b9433b"
         d="m 886.5,271.5 c -1.723,-1.3 -3.89,-1.967 -6.5,-2 -2.167,0.333 -4.333,0.667 -6.5,1 0.746,1.236 1.079,2.57 1,4 -0.617,-0.111 -1.117,-0.444 -1.5,-1 -0.495,-1.973 -0.662,-3.973 -0.5,-6 5,0 10,0 15,0 0.268,1.599 -0.066,2.932 -1,4 z"
         id="path275" />
    </g>
    <g
       id="g276"
       style="clip-rule:evenodd;fill-rule:evenodd;image-rendering:optimizeQuality;shape-rendering:geometricPrecision;text-rendering:geometricPrecision"
       transform="matrix(0.32000487,0,0,0.32000487,-233.11859,-8.6968953)">
      <path
         style="opacity:1"
         fill="#f6a89a"
         d="m 884.5,277.5 c -0.734,1.208 -1.067,2.541 -1,4 -2,0 -4,0 -6,0 -1.532,-3.042 -1.199,-5.876 1,-8.5 4.417,-1.568 6.417,-0.068 6,4.5 z"
         id="path276" />
    </g>
    <g
       id="g280"
       style="clip-rule:evenodd;fill-rule:evenodd;image-rendering:optimizeQuality;shape-rendering:geometricPrecision;text-rendering:geometricPrecision"
       transform="matrix(0.32000487,0,0,0.32000487,-233.11859,-8.6968953)">
      <path
         style="opacity:1"
         fill="#f7d5d1"
         d="m 846.5,276.5 c 3.309,3.809 7.309,6.642 12,8.5 1.442,3.268 3.442,6.101 6,8.5 -4.39,-0.76 -6.723,-3.427 -7,-8 -6.007,-0.189 -9.673,-3.189 -11,-9 z"
         id="path280" />
    </g>
    <g
       id="g281"
       style="clip-rule:evenodd;fill-rule:evenodd;image-rendering:optimizeQuality;shape-rendering:geometricPrecision;text-rendering:geometricPrecision"
       transform="matrix(0.32000487,0,0,0.32000487,-233.11859,-8.6968953)">
      <path
         style="opacity:1"
         fill="#b75048"
         d="m 844.5,190.5 c 0,1.333 0.667,2 2,2 -1.1,1.105 -1.767,2.438 -2,4 -3.272,3.224 -4.939,7.224 -5,12 -1.522,5.248 -2.189,10.748 -2,16.5 10e-4,4.015 0.335,7.849 1,11.5 1.51,8.713 3.343,17.38 5.5,26 1.689,4.06 3.856,7.727 6.5,11 2.872,4.543 6.872,7.543 12,9 -0.227,2.433 0.773,4.099 3,5 0.847,1.466 2.18,2.3 4,2.5 7,0.667 14,0.667 21,0 1.82,-0.2 3.153,-1.034 4,-2.5 2.227,-0.901 3.227,-2.567 3,-5 3.588,-2.147 7.255,-4.147 11,-6 1.679,-0.215 2.679,0.452 3,2 -3.041,2.943 -6.541,5.276 -10.5,7 -1.25,3.416 -3.417,6.083 -6.5,8 -0.929,1.189 -1.262,2.522 -1,4 -4.486,6.902 -10.819,9.402 -19,7.5 -4.565,-2.056 -6.898,-5.556 -7,-10.5 -0.891,-0.61 -1.891,-0.943 -3,-1 -2.558,-2.399 -4.558,-5.232 -6,-8.5 -4.691,-1.858 -8.691,-4.691 -12,-8.5 -3.089,-6.051 -6.089,-12.051 -9,-18 -0.796,-4.647 -1.463,-9.314 -2,-14 -1.27,-12.997 -1.27,-25.997 0,-39 0.174,-2.361 0.507,-4.694 1,-7 0.901,-0.79 1.568,-1.79 2,-3 1.385,-2.383 3.385,-4.05 6,-5 z"
         id="path281" />
    </g>
    <g
       id="g282"
       style="clip-rule:evenodd;fill-rule:evenodd;image-rendering:optimizeQuality;shape-rendering:geometricPrecision;text-rendering:geometricPrecision"
       transform="matrix(0.32000487,0,0,0.32000487,-233.11859,-8.6968953)">
      <path
         style="opacity:1"
         fill="#f6d1ce"
         d="m 911.5,278.5 c 0.333,0 0.667,0 1,0 -0.79,1.294 -1.79,2.461 -3,3.5 0.457,0.414 0.791,0.914 1,1.5 -4.852,0.687 -8.019,3.354 -9.5,8 -2.439,2.129 -4.939,4.129 -7.5,6 -0.262,-1.478 0.071,-2.811 1,-4 3.083,-1.917 5.25,-4.584 6.5,-8 3.959,-1.724 7.459,-4.057 10.5,-7 z"
         id="path282" />
    </g>
    <g
       id="g283"
       style="clip-rule:evenodd;fill-rule:evenodd;image-rendering:optimizeQuality;shape-rendering:geometricPrecision;text-rendering:geometricPrecision"
       transform="matrix(0.32000487,0,0,0.32000487,-233.11859,-8.6968953)">
      <path
         style="opacity:1"
         fill="#f6d5d0"
         d="m 894.5,287.5 c -0.847,1.466 -2.18,2.3 -4,2.5 -7,0.667 -14,0.667 -21,0 -1.82,-0.2 -3.153,-1.034 -4,-2.5 5.894,1.456 11.894,2.123 18,2 0,-1 0,-2 0,-3 -3.062,-0.344 -6.062,-1.011 -9,-2 -0.627,-0.917 -0.961,-1.917 -1,-3 3.091,2.744 6.758,3.577 11,2.5 2.35,-4.561 4.017,-9.395 5,-14.5 -0.108,-0.942 -0.441,-1.775 -1,-2.5 -5.657,-0.499 -11.324,-0.666 -17,-0.5 2.415,-1.314 5.248,-1.981 8.5,-2 2.833,0.167 5.667,0.333 8.5,0.5 2.506,1.516 3.34,3.682 2.5,6.5 -1.844,3.033 -2.844,6.366 -3,10 -1.167,1.833 -2.333,3.667 -3.5,5.5 3.236,1.724 6.57,1.89 10,0.5 z"
         id="path283" />
    </g>
    <g
       id="g287"
       style="clip-rule:evenodd;fill-rule:evenodd;image-rendering:optimizeQuality;shape-rendering:geometricPrecision;text-rendering:geometricPrecision"
       transform="matrix(0.32000487,0,0,0.32000487,-233.11859,-8.6968953)">
      <path
         style="opacity:1"
         fill="#d15346"
         d="m 887.5,301.5 c 0.182,-2.175 0.849,-4.175 2,-6 -0.333,-0.667 -0.667,-1.333 -1,-2 -5.305,1.227 -10.639,1.227 -16,0 -1,0.333 -2,0.667 -3,1 0.627,0.917 0.961,1.917 1,3 -1.4,-0.6 -2.4,-1.6 -3,-3 0,-1 0,-2 0,-3 8.342,1.246 16.675,1.246 25,0 -0.627,3.92 -2.293,7.253 -5,10 z"
         id="path287" />
    </g>
    <g
       id="g301"
       style="clip-rule:evenodd;fill-rule:evenodd;image-rendering:optimizeQuality;shape-rendering:geometricPrecision;text-rendering:geometricPrecision"
       transform="matrix(0.32000487,0,0,0.32000487,-233.11859,-8.6968953)">
      <path
         style="opacity:1"
         fill="#db4035"
         d="m 887.5,301.5 c -5.401,2.825 -10.734,2.659 -16,-0.5 -0.837,-1.011 -1.17,-2.178 -1,-3.5 -0.039,-1.083 -0.373,-2.083 -1,-3 1,-0.333 2,-0.667 3,-1 5.361,1.227 10.695,1.227 16,0 0.333,0.667 0.667,1.333 1,2 -1.151,1.825 -1.818,3.825 -2,6 z"
         id="path301" />
    </g>
  </g>
</svg>
