<?xml version="1.0" encoding="UTF-8" standalone="no"?>
<!-- Created with Inkscape (http://www.inkscape.org/) -->

<svg
   width="96mm"
   height="96mm"
   viewBox="0 0 96 96"
   version="1.1"
   id="svg1"
   inkscape:version="1.4.2 (ebf0e940, 2025-05-08)"
   sodipodi:docname="truck.svg"
   xmlns:inkscape="http://www.inkscape.org/namespaces/inkscape"
   xmlns:sodipodi="http://sodipodi.sourceforge.net/DTD/sodipodi-0.dtd"
   xmlns="http://www.w3.org/2000/svg"
   xmlns:svg="http://www.w3.org/2000/svg">
  <sodipodi:namedview
     id="namedview1"
     pagecolor="#ffffff"
     bordercolor="#000000"
     borderopacity="0.25"
     inkscape:showpageshadow="2"
     inkscape:pageopacity="0.0"
     inkscape:pagecheckerboard="0"
     inkscape:deskcolor="#d1d1d1"
     inkscape:document-units="mm"
     inkscape:zoom="0.80444024"
     inkscape:cx="397.17059"
     inkscape:cy="362.36377"
     inkscape:window-width="1920"
     inkscape:window-height="1052"
     inkscape:window-x="0"
     inkscape:window-y="28"
     inkscape:window-maximized="0"
     inkscape:current-layer="layer1" />
  <defs
     id="defs1" />
  <g
     inkscape:label="Layer 1"
     inkscape:groupmode="layer"
     id="layer1">
    <g
       id="g3"
       style="clip-rule:evenodd;fill-rule:evenodd;image-rendering:optimizeQuality;shape-rendering:geometricPrecision;text-rendering:geometricPrecision"
       transform="matrix(0.32557094,0,0,0.32557094,-353.02786,-6.8631179)">
      <path
         style="opacity:1"
         fill="#d4a1a4"
         d="m 1246.5,45.5 c -9.69,-0.0784 -19.35,0.2549 -29,1 1.11,-0.79 2.44,-1.29 4,-1.5 8.51,-0.8232 16.84,-0.6566 25,0.5 z"
         id="path3" />
    </g>
    <g
       id="g4"
       style="clip-rule:evenodd;fill-rule:evenodd;image-rendering:optimizeQuality;shape-rendering:geometricPrecision;text-rendering:geometricPrecision"
       transform="matrix(0.32557094,0,0,0.32557094,-353.02786,-6.8631179)">
      <path
         style="opacity:1"
         fill="#dfb1b2"
         d="m 1248.5,45.5 c 6.42,-0.6433 12.42,0.3567 18,3 -2.67,-0.3333 -5.33,-0.6667 -8,-1 -3.51,-0.3994 -6.84,-1.0661 -10,-2 z"
         id="path4" />
    </g>
    <g
       id="g6"
       style="clip-rule:evenodd;fill-rule:evenodd;image-rendering:optimizeQuality;shape-rendering:geometricPrecision;text-rendering:geometricPrecision"
       transform="matrix(0.32557094,0,0,0.32557094,-353.02786,-6.8631179)">
      <path
         style="opacity:1"
         fill="#82292b"
         d="m 1246.5,45.5 c 0.67,0 1.33,0 2,0 3.16,0.9339 6.49,1.6006 10,2 0.11,0.6174 0.44,1.1174 1,1.5 -3.68,0.0265 -7.01,0.8598 -10,2.5 -4.65,0.6659 -9.49,0.9993 -14.5,1 -8.95,0.056 -17.78,-0.6107 -26.5,-2 -1.76,-0.1427 -3.43,0.1906 -5,1 -1.2,-0.3457 -1.2,-0.8457 0,-1.5 4.94,-0.6829 9.61,-1.8496 14,-3.5 9.65,-0.7451 19.31,-1.0784 29,-1 z"
         id="path6" />
    </g>
    <g
       id="g15"
       style="clip-rule:evenodd;fill-rule:evenodd;image-rendering:optimizeQuality;shape-rendering:geometricPrecision;text-rendering:geometricPrecision"
       transform="matrix(0.32557094,0,0,0.32557094,-353.02786,-6.8631179)">
      <path
         style="opacity:1"
         fill="#f9f7f7"
         d="m 1261.5,55.5 c 2.05,3.0497 4.72,5.383 8,7 1.57,4.8927 2.07,9.8927 1.5,15 -1.36,-0.8802 -2.86,-1.2135 -4.5,-1 -3.36,-1.5378 -6.69,-3.3711 -10,-5.5 -9.08,-0.8035 -18.08,-0.6369 -27,0.5 -5.69,-0.1262 -11.36,0.2071 -17,1 -3.34,1.1952 -6.68,2.0286 -10,2.5 -0.8,-2.6743 -0.47,-5.341 1,-8 2.29,-2.0687 3.95,-4.5687 5,-7.5 0.67,-1.3333 1.33,-2.6667 2,-4 1.29,-1.0417 1.29,-2.2083 0,-3.5 1.17,-0.1667 2.33,-0.3333 3.5,-0.5 7.04,1.551 14.2,2.2176 21.5,2 8.34,-0.1878 16.68,-0.5211 25,-1 -0.24,1.291 0.1,2.291 1,3 z"
         id="path15" />
    </g>
    <g
       id="g27"
       style="clip-rule:evenodd;fill-rule:evenodd;image-rendering:optimizeQuality;shape-rendering:geometricPrecision;text-rendering:geometricPrecision"
       transform="matrix(0.32557094,0,0,0.32557094,-353.02786,-6.8631179)">
      <path
         style="opacity:1"
         fill="#922d31"
         d="m 1210.5,55.5 c -0.67,1.3333 -1.33,2.6667 -2,4 -2.47,1.0686 -4.8,2.4019 -7,4 -1.47,0.5715 -3.14,0.5715 -5,0 1.04,-6.03 4.7,-9.3633 11,-10 1.53,0.1399 2.53,0.8065 3,2 z"
         id="path27" />
    </g>
    <g
       id="g28"
       style="clip-rule:evenodd;fill-rule:evenodd;image-rendering:optimizeQuality;shape-rendering:geometricPrecision;text-rendering:geometricPrecision"
       transform="matrix(0.32557094,0,0,0.32557094,-353.02786,-6.8631179)">
      <path
         style="opacity:1"
         fill="#8e2a2d"
         d="m 1275.5,63.5 c -0.67,0 -1.33,0 -2,0 -0.67,0.3333 -1.33,0.6667 -2,1 -0.33,-1 -1,-1.6667 -2,-2 -3.28,-1.617 -5.95,-3.9503 -8,-7 5.16,-2.5773 9.66,-1.244 13.5,4 0.49,1.2932 0.66,2.6266 0.5,4 z"
         id="path28" />
    </g>
    <g
       id="g29"
       style="clip-rule:evenodd;fill-rule:evenodd;image-rendering:optimizeQuality;shape-rendering:geometricPrecision;text-rendering:geometricPrecision"
       transform="matrix(0.32557094,0,0,0.32557094,-353.02786,-6.8631179)">
      <path
         style="opacity:1"
         fill="#eeb2b6"
         d="m 1208.5,50.5 c 8.72,1.3893 17.55,2.056 26.5,2 5.01,-7e-4 9.85,-0.3341 14.5,-1 7.09,-1.2658 14.09,-0.7658 21,1.5 3.58,1.4098 5.91,3.9098 7,7.5 -0.67,1 -1.33,2 -2,3 0.16,-1.3734 -0.01,-2.7068 -0.5,-4 -3.84,-5.244 -8.34,-6.5773 -13.5,-4 -0.9,-0.709 -1.24,-1.709 -1,-3 -8.32,0.4789 -16.66,0.8122 -25,1 -7.3,0.2176 -14.46,-0.449 -21.5,-2 -1.17,0.1667 -2.33,0.3333 -3.5,0.5 1.29,1.2917 1.29,2.4583 0,3.5 -0.47,-1.1935 -1.47,-1.8601 -3,-2 -6.3,0.6367 -9.96,3.97 -11,10 -0.67,-0.6667 -1.33,-1.3333 -2,-2 0.63,-3.1433 2.3,-5.6433 5,-7.5 3.16,-1.0275 6.16,-2.1941 9,-3.5 z"
         id="path29" />
    </g>
    <g
       id="g33"
       style="clip-rule:evenodd;fill-rule:evenodd;image-rendering:optimizeQuality;shape-rendering:geometricPrecision;text-rendering:geometricPrecision"
       transform="matrix(0.32557094,0,0,0.32557094,-353.02786,-6.8631179)">
      <path
         style="opacity:1"
         fill="#7e3233"
         d="m 1217.5,46.5 c -4.39,1.6504 -9.06,2.8171 -14,3.5 -1.2,0.6543 -1.2,1.1543 0,1.5 1.57,-0.8094 3.24,-1.1427 5,-1 -2.84,1.3059 -5.84,2.4725 -9,3.5 -2.7,1.8567 -4.37,4.3567 -5,7.5 -0.59,1.266 -1.09,2.5993 -1.5,4 -0.33,5.6667 -0.67,11.3333 -1,17 -4.38,0.8626 -8.21,2.8626 -11.5,6 0.67,0.3333 1.33,0.6667 2,1 3.22,-1.2951 6.55,-1.9618 10,-2 0,0.3333 0,0.6667 0,1 0,13.333 0,26.667 0,40 -1,-0.667 -2,-1.333 -3,-2 0,-11.667 0,-23.333 0,-35 -1.91,-0.2845 -3.58,0.0489 -5,1 -2.26,0.7186 -4.6,1.052 -7,1 -0.47,-3.662 0.2,-6.9954 2,-10 3.07,-1.802 6.41,-2.802 10,-3 -0.6,-8.1848 0.23,-16.1848 2.5,-24 1.71,-1.5375 3.21,-3.2041 4.5,-5 6.63,-3.0463 13.63,-4.713 21,-5 z"
         id="path33" />
    </g>
    <g
       id="g39"
       style="clip-rule:evenodd;fill-rule:evenodd;image-rendering:optimizeQuality;shape-rendering:geometricPrecision;text-rendering:geometricPrecision"
       transform="matrix(0.32557094,0,0,0.32557094,-353.02786,-6.8631179)">
      <path
         style="opacity:1"
         fill="#f3d8d9"
         d="m 1208.5,59.5 c -1.05,2.9313 -2.71,5.4313 -5,7.5 -1.47,2.659 -1.8,5.3257 -1,8 3.32,-0.4714 6.66,-1.3048 10,-2.5 5.64,-0.7929 11.31,-1.1262 17,-1 0,0.3333 0,0.6667 0,1 -10.35,-0.3294 -20.01,2.0039 -29,7 -0.66,-1.2933 -0.99,-2.7933 -1,-4.5 0.57,-3.8615 1.23,-7.6948 2,-11.5 2.2,-1.5981 4.53,-2.9314 7,-4 z"
         id="path39" />
    </g>
    <g
       id="g42"
       style="clip-rule:evenodd;fill-rule:evenodd;image-rendering:optimizeQuality;shape-rendering:geometricPrecision;text-rendering:geometricPrecision"
       transform="matrix(0.32557094,0,0,0.32557094,-353.02786,-6.8631179)">
      <path
         style="opacity:1"
         fill="#ecc4c5"
         d="m 1266.5,76.5 c -2,-0.3333 -4,-0.6667 -6,-1 -2.06,-1.2763 -4.4,-2.1097 -7,-2.5 -7.99,-0.4997 -15.99,-0.6664 -24,-0.5 0,-0.3333 0,-0.6667 0,-1 8.92,-1.1369 17.92,-1.3035 27,-0.5 3.31,2.1289 6.64,3.9622 10,5.5 z"
         id="path42" />
    </g>
    <g
       id="g43"
       style="clip-rule:evenodd;fill-rule:evenodd;image-rendering:optimizeQuality;shape-rendering:geometricPrecision;text-rendering:geometricPrecision"
       transform="matrix(0.32557094,0,0,0.32557094,-353.02786,-6.8631179)">
      <path
         style="opacity:1"
         fill="#f9e5e7"
         d="m 1277.5,60.5 c 0.79,1.1085 1.29,2.4419 1.5,4 0.33,6 0.67,12 1,18 0.67,0.7524 1.5,1.0858 2.5,1 0.38,1.4311 1.38,2.2645 3,2.5 -3.65,0.4986 -7.32,0.6653 -11,0.5 0,-1.3333 0,-2.6667 0,-4 -0.29,-6.423 0.04,-12.7564 1,-19 0.67,-1 1.33,-2 2,-3 z"
         id="path43" />
    </g>
    <g
       id="g45"
       style="clip-rule:evenodd;fill-rule:evenodd;image-rendering:optimizeQuality;shape-rendering:geometricPrecision;text-rendering:geometricPrecision"
       transform="matrix(0.32557094,0,0,0.32557094,-353.02786,-6.8631179)">
      <path
         style="opacity:1"
         fill="#efcdce"
         d="m 1196.5,51.5 c -1.29,1.7959 -2.79,3.4625 -4.5,5 -2.27,7.8152 -3.1,15.8152 -2.5,24 -3.59,0.198 -6.93,1.198 -10,3 1.84,-2.6347 4.51,-3.9681 8,-4 -0.17,-6.3421 0,-12.6754 0.5,-19 0.69,-5.1893 3.53,-8.1893 8.5,-9 z"
         id="path45" />
    </g>
    <g
       id="g49"
       style="clip-rule:evenodd;fill-rule:evenodd;image-rendering:optimizeQuality;shape-rendering:geometricPrecision;text-rendering:geometricPrecision"
       transform="matrix(0.32557094,0,0,0.32557094,-353.02786,-6.8631179)">
      <path
         style="opacity:1"
         fill="#f2c9cb"
         d="m 1281.5,57.5 c 1.06,1.1002 1.89,2.4336 2.5,4 0.33,5.6667 0.67,11.3333 1,17 2.27,1.4563 4.77,2.2896 7.5,2.5 1.67,1.5059 2.67,3.3393 3,5.5 -3.17,-3.5844 -7.17,-5.5844 -12,-6 0.37,-7.7805 -0.3,-15.4471 -2,-23 z"
         id="path49" />
    </g>
    <g
       id="g51"
       style="clip-rule:evenodd;fill-rule:evenodd;image-rendering:optimizeQuality;shape-rendering:geometricPrecision;text-rendering:geometricPrecision"
       transform="matrix(0.32557094,0,0,0.32557094,-353.02786,-6.8631179)">
      <path
         style="opacity:1"
         fill="#824f54"
         d="m 1196.5,63.5 c 1.86,0.5715 3.53,0.5715 5,0 -0.77,3.8052 -1.43,7.6385 -2,11.5 0.01,1.7067 0.34,3.2067 1,4.5 -0.73,1.2079 -1.07,2.5413 -1,4 -0.41,-6.7611 -1.41,-13.4278 -3,-20 z"
         id="path51" />
    </g>
    <g
       id="g52"
       style="clip-rule:evenodd;fill-rule:evenodd;image-rendering:optimizeQuality;shape-rendering:geometricPrecision;text-rendering:geometricPrecision"
       transform="matrix(0.32557094,0,0,0.32557094,-353.02786,-6.8631179)">
      <path
         style="opacity:1"
         fill="#8c2d2f"
         d="m 1229.5,72.5 c 8.01,-0.1664 16.01,3e-4 24,0.5 2.6,0.3903 4.94,1.2237 7,2.5 -12.62,-1.6796 -25.29,-2.1796 -38,-1.5 -6.73,2.0618 -13.39,4.2285 -20,6.5 -0.97,1.896 -1.3,3.896 -1,6 -1.41,-0.4731 -2.07,-1.4731 -2,-3 -0.07,-1.4587 0.27,-2.7921 1,-4 8.99,-4.9961 18.65,-7.3294 29,-7 z"
         id="path52" />
    </g>
    <g
       id="g57"
       style="clip-rule:evenodd;fill-rule:evenodd;image-rendering:optimizeQuality;shape-rendering:geometricPrecision;text-rendering:geometricPrecision"
       transform="matrix(0.32557094,0,0,0.32557094,-353.02786,-6.8631179)">
      <path
         style="opacity:1"
         fill="#a32327"
         d="m 1260.5,75.5 c 3.02,2.1773 6.35,3.844 10,5 -0.36,3.8841 -1.69,7.3841 -4,10.5 -5.64,-0.1323 -11.31,-0.299 -17,-0.5 -8.67,0 -17.33,0 -26,0 -5.46,-0.2542 -10.79,0.4125 -16,2 -1.81,-2.0311 -3.81,-3.6978 -6,-5 0,-0.3333 0,-0.6667 0,-1 -0.3,-2.104 0.03,-4.104 1,-6 6.61,-2.2715 13.27,-4.4382 20,-6.5 12.71,-0.6796 25.38,-0.1796 38,1.5 z"
         id="path57" />
    </g>
    <g
       id="g58"
       style="clip-rule:evenodd;fill-rule:evenodd;image-rendering:optimizeQuality;shape-rendering:geometricPrecision;text-rendering:geometricPrecision"
       transform="matrix(0.32557094,0,0,0.32557094,-353.02786,-6.8631179)">
      <path
         style="opacity:1"
         fill="#be9396"
         d="m 1269.5,62.5 c 1,0.3333 1.67,1 2,2 0.63,4.3038 1.13,8.6371 1.5,13 0.5,-4.6548 0.67,-9.3215 0.5,-14 0.67,0 1.33,0 2,0 -0.96,6.2436 -1.29,12.577 -1,19 -0.33,0 -0.67,0 -1,0 0,-1 0,-2 0,-3 -2.74,-0.2073 -5.07,-1.2073 -7,-3 1.64,-0.2135 3.14,0.1198 4.5,1 0.57,-5.1073 0.07,-10.1073 -1.5,-15 z"
         id="path58" />
    </g>
    <g
       id="g59"
       style="clip-rule:evenodd;fill-rule:evenodd;image-rendering:optimizeQuality;shape-rendering:geometricPrecision;text-rendering:geometricPrecision"
       transform="matrix(0.32557094,0,0,0.32557094,-353.02786,-6.8631179)">
      <path
         style="opacity:1"
         fill="#704142"
         d="m 1273.5,63.5 c 0.17,4.6785 0,9.3452 -0.5,14 -0.37,-4.3629 -0.87,-8.6962 -1.5,-13 0.67,-0.3333 1.33,-0.6667 2,-1 z"
         id="path59" />
    </g>
    <g
       id="g65"
       style="clip-rule:evenodd;fill-rule:evenodd;image-rendering:optimizeQuality;shape-rendering:geometricPrecision;text-rendering:geometricPrecision"
       transform="matrix(0.32557094,0,0,0.32557094,-353.02786,-6.8631179)">
      <path
         style="opacity:1"
         fill="#843637"
         d="m 1258.5,47.5 c 2.67,0.3333 5.33,0.6667 8,1 6.16,1.2403 11.16,4.2403 15,9 1.7,7.5529 2.37,15.2195 2,23 4.83,0.4156 8.83,2.4156 12,6 0.26,2.2925 -0.08,4.4592 -1,6.5 -3.5,0.6953 -6.83,0.1953 -10,-1.5 -1,11.982 -1.33,23.982 -1,36 -1.33,-1.333 -2.67,-1.333 -4,0 0,-13.333 0,-26.667 0,-40 3.32,-0.0358 6.49,0.6308 9.5,2 3.01,-0.5445 3.18,-1.7112 0.5,-3.5 -2.35,-0.8471 -4.69,-1.6805 -7,-2.5 -1,0.0858 -1.83,-0.2476 -2.5,-1 -0.33,-6 -0.67,-12 -1,-18 -0.21,-1.5581 -0.71,-2.8915 -1.5,-4 -1.09,-3.5902 -3.42,-6.0902 -7,-7.5 -6.91,-2.2658 -13.91,-2.7658 -21,-1.5 2.99,-1.6402 6.32,-2.4735 10,-2.5 -0.56,-0.3826 -0.89,-0.8826 -1,-1.5 z"
         id="path65" />
    </g>
    <g
       id="g69"
       style="clip-rule:evenodd;fill-rule:evenodd;image-rendering:optimizeQuality;shape-rendering:geometricPrecision;text-rendering:geometricPrecision"
       transform="matrix(0.32557094,0,0,0.32557094,-353.02786,-6.8631179)">
      <path
         style="opacity:1"
         fill="#893438"
         d="m 1201.5,87.5 c 2.19,1.3022 4.19,2.9689 6,5 5.21,-1.5875 10.54,-2.2542 16,-2 -4.32,1.0924 -8.65,2.0924 -13,3 -4.59,0.416 -7.59,-1.584 -9,-6 z"
         id="path69" />
    </g>
    <g
       id="g70"
       style="clip-rule:evenodd;fill-rule:evenodd;image-rendering:optimizeQuality;shape-rendering:geometricPrecision;text-rendering:geometricPrecision"
       transform="matrix(0.32557094,0,0,0.32557094,-353.02786,-6.8631179)">
      <path
         style="opacity:1"
         fill="#8c2f34"
         d="m 1260.5,75.5 c 2,0.3333 4,0.6667 6,1 1.93,1.7927 4.26,2.7927 7,3 0,1 0,2 0,3 -2.11,3.3912 -4.11,6.8912 -6,10.5 -3.03,0.4954 -6.03,0.3287 -9,-0.5 -1,0 -2,0 -3,0 -2,-0.6667 -4,-1.3333 -6,-2 5.69,0.201 11.36,0.3677 17,0.5 2.31,-3.1159 3.64,-6.6159 4,-10.5 -3.65,-1.156 -6.98,-2.8227 -10,-5 z"
         id="path70" />
    </g>
    <g
       id="g73"
       style="clip-rule:evenodd;fill-rule:evenodd;image-rendering:optimizeQuality;shape-rendering:geometricPrecision;text-rendering:geometricPrecision"
       transform="matrix(0.32557094,0,0,0.32557094,-353.02786,-6.8631179)">
      <path
         style="opacity:1"
         fill="#e7b8b9"
         d="m 1223.5,90.5 c 8.67,0 17.33,0 26,0 2,0.6667 4,1.3333 6,2 -15.02,-0.1887 -30.02,0.1446 -45,1 4.35,-0.9076 8.68,-1.9076 13,-3 z"
         id="path73" />
    </g>
    <g
       id="g74"
       style="clip-rule:evenodd;fill-rule:evenodd;image-rendering:optimizeQuality;shape-rendering:geometricPrecision;text-rendering:geometricPrecision"
       transform="matrix(0.32557094,0,0,0.32557094,-353.02786,-6.8631179)">
      <path
         style="opacity:1"
         fill="#f7dfe0"
         d="m 1179.5,83.5 c -1.8,3.0046 -2.47,6.338 -2,10 2.4,0.052 4.74,-0.2814 7,-1 1.33,0 2.67,0 4,0 0,11.667 0,23.333 0,35 -1,0.333 -1.67,1 -2,2 -0.33,0 -0.67,0 -1,0 1.27,-11.648 1.27,-23.315 0,-35 -2.92,0.9066 -5.92,1.2399 -9,1 -0.72,-3.3175 -0.89,-6.6508 -0.5,-10 0.71,-1.4733 1.88,-2.1399 3.5,-2 z"
         id="path74" />
    </g>
    <g
       id="g75"
       style="clip-rule:evenodd;fill-rule:evenodd;image-rendering:optimizeQuality;shape-rendering:geometricPrecision;text-rendering:geometricPrecision"
       transform="matrix(0.32557094,0,0,0.32557094,-353.02786,-6.8631179)">
      <path
         style="opacity:1"
         fill="#faf8f8"
         d="m 1255.5,92.5 c 1,0 2,0 3,0 2.56,1.3861 5.06,3.0528 7.5,5 0.33,-0.3333 0.67,-0.6667 1,-1 0.15,8.551 0.99,16.884 2.5,25 0,0.333 0,0.667 0,1 0.04,1.083 0.37,2.083 1,3 -23.99,1.166 -47.99,1.333 -72,0.5 2.35,-0.346 4.18,-1.513 5.5,-3.5 0.5,-8.994 0.67,-17.994 0.5,-27 2.4,0.2406 4.4,-0.4261 6,-2 14.98,-0.8554 29.98,-1.1887 45,-1 z"
         id="path75" />
    </g>
    <g
       id="g79"
       style="clip-rule:evenodd;fill-rule:evenodd;image-rendering:optimizeQuality;shape-rendering:geometricPrecision;text-rendering:geometricPrecision"
       transform="matrix(0.32557094,0,0,0.32557094,-353.02786,-6.8631179)">
      <path
         style="opacity:1"
         fill="#eabdbe"
         d="m 1295.5,86.5 c 2.64,2.3794 2.64,4.8794 0,7.5 -3.59,0.2069 -7.09,0.7069 -10.5,1.5 -0.5,9.661 -0.67,19.328 -0.5,29 -0.07,1.459 0.27,2.792 1,4 -0.99,0.172 -1.66,-0.162 -2,-1 -0.33,-12.018 0,-24.018 1,-36 3.17,1.6953 6.5,2.1953 10,1.5 0.92,-2.0408 1.26,-4.2075 1,-6.5 z"
         id="path79" />
    </g>
    <g
       id="g81"
       style="clip-rule:evenodd;fill-rule:evenodd;image-rendering:optimizeQuality;shape-rendering:geometricPrecision;text-rendering:geometricPrecision"
       transform="matrix(0.32557094,0,0,0.32557094,-353.02786,-6.8631179)">
      <path
         style="opacity:1"
         fill="#eebec2"
         d="m 1273.5,82.5 c 0.33,0 0.67,0 1,0 0,1.3333 0,2.6667 0,4 3.68,0.1653 7.35,-0.0014 11,-0.5 -1.62,-0.2355 -2.62,-1.0689 -3,-2.5 2.31,0.8195 4.65,1.6529 7,2.5 2.68,1.7888 2.51,2.9555 -0.5,3.5 -3.01,-1.3692 -6.18,-2.0358 -9.5,-2 0,13.333 0,26.667 0,40 -0.33,0 -0.67,0 -1,0 -1,0 -2,0 -3,0 0.71,-0.904 1.71,-1.237 3,-1 0.17,-5.344 0,-10.677 -0.5,-16 -0.18,4.519 -0.68,8.853 -1.5,13 0.17,-12.005 0,-24.0046 -0.5,-36 -2.49,2.3089 -4.49,4.9756 -6,8 -0.5,8.66 -0.67,17.327 -0.5,26 -1.51,-8.116 -2.35,-16.449 -2.5,-25 -0.33,0.3333 -0.67,0.6667 -1,1 -2.44,-1.9472 -4.94,-3.6139 -7.5,-5 2.97,0.8287 5.97,0.9954 9,0.5 1.89,-3.6088 3.89,-7.1088 6,-10.5 z"
         id="path81" />
    </g>
    <g
       id="g82"
       style="clip-rule:evenodd;fill-rule:evenodd;image-rendering:optimizeQuality;shape-rendering:geometricPrecision;text-rendering:geometricPrecision"
       transform="matrix(0.32557094,0,0,0.32557094,-353.02786,-6.8631179)">
      <path
         style="opacity:1"
         fill="#7f2b2c"
         d="m 1195.5,88.5 c 2.59,0.7543 4.42,2.421 5.5,5 1.59,9.592 1.92,19.258 1,29 -2.02,2.108 -4.18,2.442 -6.5,1 0,-11.667 0,-23.333 0,-35 z"
         id="path82" />
    </g>
    <g
       id="g83"
       style="clip-rule:evenodd;fill-rule:evenodd;image-rendering:optimizeQuality;shape-rendering:geometricPrecision;text-rendering:geometricPrecision"
       transform="matrix(0.32557094,0,0,0.32557094,-353.02786,-6.8631179)">
      <path
         style="opacity:1"
         fill="#942225"
         d="m 1196.5,93.5 c 2.25,0.4156 3.75,1.749 4.5,4 0.62,8.352 0.46,16.686 -0.5,25 -1.33,0 -2.67,0 -4,0 0,-9.667 0,-19.333 0,-29 z"
         id="path83" />
    </g>
    <g
       id="g85"
       style="clip-rule:evenodd;fill-rule:evenodd;image-rendering:optimizeQuality;shape-rendering:geometricPrecision;text-rendering:geometricPrecision"
       transform="matrix(0.32557094,0,0,0.32557094,-353.02786,-6.8631179)">
      <path
         style="opacity:1"
         fill="#d9989b"
         d="m 1192.5,88.5 c 0.82,3.1414 1.32,6.4748 1.5,10 0.18,-3.5252 0.68,-6.8586 1.5,-10 0,11.667 0,23.333 0,35 -0.82,-3.141 -1.32,-6.475 -1.5,-10 -0.5,4.655 -0.67,9.321 -0.5,14 27.33,0 54.67,0 82,0 1,0 2,0 3,0 -28.5,0.998 -57.16,1.331 -86,1 0,-13.333 0,-26.667 0,-40 z"
         id="path85" />
    </g>
    <g
       id="g87"
       style="clip-rule:evenodd;fill-rule:evenodd;image-rendering:optimizeQuality;shape-rendering:geometricPrecision;text-rendering:geometricPrecision"
       transform="matrix(0.32557094,0,0,0.32557094,-353.02786,-6.8631179)">
      <path
         style="opacity:1"
         fill="#852628"
         d="m 1276.5,123.5 c -0.37,1.195 -1.2,1.861 -2.5,2 -1.64,-0.815 -3.14,-1.815 -4.5,-3 0,-0.333 0,-0.667 0,-1 -0.17,-8.673 0,-17.34 0.5,-26 1.51,-3.0244 3.51,-5.6911 6,-8 0.5,11.9954 0.67,23.995 0.5,36 z"
         id="path87" />
    </g>
    <g
       id="g88"
       style="clip-rule:evenodd;fill-rule:evenodd;image-rendering:optimizeQuality;shape-rendering:geometricPrecision;text-rendering:geometricPrecision"
       transform="matrix(0.32557094,0,0,0.32557094,-353.02786,-6.8631179)">
      <path
         style="opacity:1"
         fill="#a2262b"
         d="m 1273.5,94.5 c 0.62,0.1107 1.12,0.444 1.5,1 0.5,8.994 0.67,17.994 0.5,27 -1.32,0.17 -2.49,-0.163 -3.5,-1 -0.67,-8.333 -0.67,-16.667 0,-25 0.72,-0.5442 1.22,-1.2109 1.5,-2 z"
         id="path88" />
    </g>
    <g
       id="g97"
       style="clip-rule:evenodd;fill-rule:evenodd;image-rendering:optimizeQuality;shape-rendering:geometricPrecision;text-rendering:geometricPrecision"
       transform="matrix(0.32557094,0,0,0.32557094,-353.02786,-6.8631179)">
      <path
         style="opacity:1"
         fill="#c68789"
         d="m 1184.5,92.5 c 1.42,-0.9511 3.09,-1.2845 5,-1 0,11.667 0,23.333 0,35 0,0.333 0,0.667 0,1 -0.33,0 -0.67,0 -1,0 0,-11.667 0,-23.333 0,-35 -1.33,0 -2.67,0 -4,0 z"
         id="path97" />
    </g>
    <g
       id="g102"
       style="clip-rule:evenodd;fill-rule:evenodd;image-rendering:optimizeQuality;shape-rendering:geometricPrecision;text-rendering:geometricPrecision"
       transform="matrix(0.32557094,0,0,0.32557094,-353.02786,-6.8631179)">
      <path
         style="opacity:1"
         fill="#f4d4d5"
         d="m 1194.5,61.5 c 0.67,0.6667 1.33,1.3333 2,2 1.59,6.5722 2.59,13.2389 3,20 -0.07,1.5269 0.59,2.5269 2,3 0,0.3333 0,0.6667 0,1 1.41,4.416 4.41,6.416 9,6 -1.6,1.5739 -3.6,2.2406 -6,2 0.17,9.006 0,18.006 -0.5,27 -1.32,1.987 -3.15,3.154 -5.5,3.5 24.01,0.833 48.01,0.666 72,-0.5 -0.63,-0.917 -0.96,-1.917 -1,-3 1.36,1.185 2.86,2.185 4.5,3 1.3,-0.139 2.13,-0.805 2.5,-2 0.82,-4.147 1.32,-8.481 1.5,-13 0.5,5.323 0.67,10.656 0.5,16 -1.29,-0.237 -2.29,0.096 -3,1 -27.33,0 -54.67,0 -82,0 -0.17,-4.679 0,-9.345 0.5,-14 0.18,3.525 0.68,6.859 1.5,10 2.32,1.442 4.48,1.108 6.5,-1 0.92,-9.742 0.59,-19.408 -1,-29 -1.08,-2.579 -2.91,-4.2457 -5.5,-5 -0.82,3.1414 -1.32,6.4748 -1.5,10 -0.18,-3.5252 -0.68,-6.8586 -1.5,-10 0,-0.3333 0,-0.6667 0,-1 -3.45,0.0382 -6.78,0.7049 -10,2 -0.67,-0.3333 -1.33,-0.6667 -2,-1 3.29,-3.1374 7.12,-5.1374 11.5,-6 0.33,-5.6667 0.67,-11.3333 1,-17 0.41,-1.4007 0.91,-2.734 1.5,-4 z"
         id="path102" />
    </g>
    <g
       id="g103"
       style="clip-rule:evenodd;fill-rule:evenodd;image-rendering:optimizeQuality;shape-rendering:geometricPrecision;text-rendering:geometricPrecision"
       transform="matrix(0.32557094,0,0,0.32557094,-353.02786,-6.8631179)">
      <path
         style="opacity:1"
         fill="#faf6f6"
         d="m 1192.5,87.5 c -1.43,-1.4848 -1.27,-2.8181 0.5,-4 0.33,-5 0.67,-10 1,-15 0.67,-0.6667 1.33,-1.3333 2,-2 1.78,4.5703 1.94,9.237 0.5,14 0.68,2.3409 1.35,4.6743 2,7 -2,0 -4,0 -6,0 z"
         id="path103" />
    </g>
    <g
       id="g106"
       style="clip-rule:evenodd;fill-rule:evenodd;image-rendering:optimizeQuality;shape-rendering:geometricPrecision;text-rendering:geometricPrecision"
       transform="matrix(0.32557094,0,0,0.32557094,-353.02786,-6.8631179)">
      <path
         style="opacity:1"
         fill="#8e2527"
         d="m 1283.5,127.5 c 0.34,0.838 1.01,1.172 2,1 1.76,0.762 2.76,2.096 3,4 0.33,51.169 0,102.169 -1,153 0.17,-51.001 0,-102.001 -0.5,-153 -2.19,-2.858 -4.69,-3.358 -7.5,-1.5 -7.26,0.256 -14.43,0.423 -21.5,0.5 -21.92,-1.214 -43.76,-2.214 -65.5,-3 28.84,0.331 57.5,-0.002 86,-1 0.33,0 0.67,0 1,0 1.33,-1.333 2.67,-1.333 4,0 z"
         id="path106" />
    </g>
    <g
       id="g109"
       style="clip-rule:evenodd;fill-rule:evenodd;image-rendering:optimizeQuality;shape-rendering:geometricPrecision;text-rendering:geometricPrecision"
       transform="matrix(0.32557094,0,0,0.32557094,-353.02786,-6.8631179)">
      <path
         style="opacity:1"
         fill="#992528"
         d="m 1189.5,126.5 c 1,0.667 2,1.333 3,2 21.74,0.786 43.58,1.786 65.5,3 7.07,-0.077 14.24,-0.244 21.5,-0.5 2.81,-1.858 5.31,-1.358 7.5,1.5 0.5,50.999 0.67,101.999 0.5,153 0,1 0,2 0,3 -1.82,0.331 -3.49,0.998 -5,2 -26,0 -52,0 -78,0 8.49,-0.83 17.16,-1.33 26,-1.5 -13.21,-1.892 -26.55,-2.725 -40,-2.5 -1.32,-50.308 -1.32,-100.641 0,-151 3.88,-2.995 3.21,-4.161 -2,-3.5 -1.38,3.195 -2.72,6.362 -4,9.5 -0.16,-5.395 1.51,-10.061 5,-14 0,-0.333 0,-0.667 0,-1 z"
         id="path109" />
    </g>
    <g
       id="g115"
       style="clip-rule:evenodd;fill-rule:evenodd;image-rendering:optimizeQuality;shape-rendering:geometricPrecision;text-rendering:geometricPrecision"
       transform="matrix(0.32557094,0,0,0.32557094,-353.02786,-6.8631179)">
      <path
         style="opacity:1"
         fill="#c17b7f"
         d="m 1280.5,137.5 c 1,48.83 1.33,97.83 1,147 -30,0 -60,0 -90,0 0,-49.333 0,-98.667 0,-148 29.84,-0.331 59.5,0.002 89,1 z"
         id="path115" />
    </g>
    <g
       id="g116"
       style="clip-rule:evenodd;fill-rule:evenodd;image-rendering:optimizeQuality;shape-rendering:geometricPrecision;text-rendering:geometricPrecision"
       transform="matrix(0.32557094,0,0,0.32557094,-353.02786,-6.8631179)">
      <path
         style="opacity:1"
         fill="#fad5d7"
         d="m 1280.5,137.5 c 0,48.667 0,97.333 0,146 -29.33,0 -58.67,0 -88,0 0,-48.667 0,-97.333 0,-146 29.33,0 58.67,0 88,0 z"
         id="path116" />
    </g>
    <g
       id="g148"
       style="clip-rule:evenodd;fill-rule:evenodd;image-rendering:optimizeQuality;shape-rendering:geometricPrecision;text-rendering:geometricPrecision"
       transform="matrix(0.32557094,0,0,0.32557094,-353.02786,-6.8631179)">
      <path
         style="opacity:1"
         fill="#a6292b"
         d="m 1204.5,290.5 c -5.68,0.166 -11.34,-10e-4 -17,-0.5 -1.2,-0.903 -2.03,-2.069 -2.5,-3.5 -0.5,-48.332 -0.67,-96.666 -0.5,-145 1.28,-3.138 2.62,-6.305 4,-9.5 5.21,-0.661 5.88,0.505 2,3.5 -1.32,50.359 -1.32,100.692 0,151 13.45,-0.225 26.79,0.608 40,2.5 -8.84,0.17 -17.51,0.67 -26,1.5 z"
         id="path148" />
    </g>
    <g
       id="g161"
       style="clip-rule:evenodd;fill-rule:evenodd;image-rendering:optimizeQuality;shape-rendering:geometricPrecision;text-rendering:geometricPrecision"
       transform="matrix(0.32557094,0,0,0.32557094,-353.02786,-6.8631179)">
      <path
         style="opacity:1"
         fill="#faeeef"
         d="m 1273.5,282.5 c 1.38,-0.734 2.88,-1.401 4.5,-2 0.17,-4 0.33,-8 0.5,-12 -0.16,-42.715 -0.33,-85.715 -0.5,-129 -27.87,-0.248 -55.7,0.085 -83.5,1 0,47 0,94 0,141 19.84,-0.33 39.51,0.003 59,1 -20,0 -40,0 -60,0 0,-48 0,-96 0,-144 28.67,0 57.33,0 86,0 0,48 0,96 0,144 -2,0 -4,0 -6,0 z"
         id="path161" />
    </g>
    <g
       id="g162"
       style="clip-rule:evenodd;fill-rule:evenodd;image-rendering:optimizeQuality;shape-rendering:geometricPrecision;text-rendering:geometricPrecision"
       transform="matrix(0.32557094,0,0,0.32557094,-353.02786,-6.8631179)">
      <path
         style="opacity:1"
         fill="#faf9f9"
         d="m 1273.5,282.5 c -6.67,0 -13.33,0 -20,0 -19.49,-0.997 -39.16,-1.33 -59,-1 0,-47 0,-94 0,-141 27.8,-0.915 55.63,-1.248 83.5,-1 0.17,43.285 0.34,86.285 0.5,129 -0.17,4 -0.33,8 -0.5,12 -1.62,0.599 -3.12,1.266 -4.5,2 z"
         id="path162" />
    </g>
    <g
       id="g166"
       style="clip-rule:evenodd;fill-rule:evenodd;image-rendering:optimizeQuality;shape-rendering:geometricPrecision;text-rendering:geometricPrecision"
       transform="matrix(0.32557094,0,0,0.32557094,-353.02786,-6.8631179)">
      <path
         style="opacity:1"
         fill="#b0666b"
         d="m 1185.5,129.5 c 0.33,0 0.67,0 1,0 -0.62,1.127 -1.46,2.127 -2.5,3 -0.5,51.332 -0.67,102.666 -0.5,154 -1,-51.497 -1.33,-103.164 -1,-155 1,-0.667 2,-1.333 3,-2 z"
         id="path166" />
    </g>
    <g
       id="g172"
       style="clip-rule:evenodd;fill-rule:evenodd;image-rendering:optimizeQuality;shape-rendering:geometricPrecision;text-rendering:geometricPrecision"
       transform="matrix(0.32557094,0,0,0.32557094,-353.02786,-6.8631179)">
      <path
         style="opacity:1"
         fill="#f9cfd4"
         d="m 1182.5,131.5 c -0.33,51.836 0,103.503 1,155 0.64,2.295 1.97,3.961 4,5 0,0.333 0,0.667 0,1 -2.16,-0.326 -3.99,-1.326 -5.5,-3 -0.83,-52.835 -0.67,-105.502 0.5,-158 z"
         id="path172" />
    </g>
    <g
       id="g179"
       style="clip-rule:evenodd;fill-rule:evenodd;image-rendering:optimizeQuality;shape-rendering:geometricPrecision;text-rendering:geometricPrecision"
       transform="matrix(0.32557094,0,0,0.32557094,-353.02786,-6.8631179)">
      <path
         style="opacity:1"
         fill="#851e21"
         d="m 1188.5,127.5 c 0.33,0 0.67,0 1,0 -3.49,3.939 -5.16,8.605 -5,14 -0.17,48.334 0,96.668 0.5,145 0.47,1.431 1.3,2.597 2.5,3.5 5.66,0.499 11.32,0.666 17,0.5 26,0 52,0 78,0 -31.5,0.998 -63.16,1.332 -95,1 -2.03,-1.039 -3.36,-2.705 -4,-5 -0.17,-51.334 0,-102.668 0.5,-154 1.04,-0.873 1.88,-1.873 2.5,-3 0.33,-1 1,-1.667 2,-2 z"
         id="path179" />
    </g>
    <g
       id="g182"
       style="clip-rule:evenodd;fill-rule:evenodd;image-rendering:optimizeQuality;shape-rendering:geometricPrecision;text-rendering:geometricPrecision"
       transform="matrix(0.32557094,0,0,0.32557094,-353.02786,-6.8631179)">
      <path
         style="opacity:1"
         fill="#edcbcf"
         d="m 1284.5,124.5 c 1.95,2.207 4.11,4.207 6.5,6 0.17,25.833 0.33,51.667 0.5,77.5 0,26.175 -0.67,52.009 -2,77.5 0.33,-51.169 0,-102.169 -1,-153 -0.24,-1.904 -1.24,-3.238 -3,-4 -0.73,-1.208 -1.07,-2.541 -1,-4 z"
         id="path182" />
    </g>
    <g
       id="g187"
       style="clip-rule:evenodd;fill-rule:evenodd;image-rendering:optimizeQuality;shape-rendering:geometricPrecision;text-rendering:geometricPrecision"
       transform="matrix(0.32557094,0,0,0.32557094,-353.02786,-6.8631179)">
      <path
         style="opacity:1"
         fill="#853234"
         d="m 1288.5,132.5 c 1,50.831 1.33,101.831 1,153 -0.43,2.695 -1.77,4.862 -4,6.5 -32.66,0.5 -65.33,0.667 -98,0.5 0,-0.333 0,-0.667 0,-1 31.84,0.332 63.5,-0.002 95,-1 1.51,-1.002 3.18,-1.669 5,-2 0,-1 0,-2 0,-3 1,-50.831 1.33,-101.831 1,-153 z"
         id="path187" />
    </g>
  </g>
</svg>
