<?xml version="1.0" encoding="UTF-8" standalone="no"?>
<!-- Created with Inkscape (http://www.inkscape.org/) -->

<svg
   width="96mm"
   height="96mm"
   viewBox="0 0 96 96"
   version="1.1"
   id="svg1"
   inkscape:version="1.4.2 (ebf0e940, 2025-05-08)"
   sodipodi:docname="boat.svg"
   xmlns:inkscape="http://www.inkscape.org/namespaces/inkscape"
   xmlns:sodipodi="http://sodipodi.sourceforge.net/DTD/sodipodi-0.dtd"
   xmlns="http://www.w3.org/2000/svg"
   xmlns:svg="http://www.w3.org/2000/svg">
  <sodipodi:namedview
     id="namedview1"
     pagecolor="#ffffff"
     bordercolor="#000000"
     borderopacity="0.25"
     inkscape:showpageshadow="2"
     inkscape:pageopacity="0.0"
     inkscape:pagecheckerboard="0"
     inkscape:deskcolor="#d1d1d1"
     inkscape:document-units="mm"
     inkscape:zoom="0.80444024"
     inkscape:cx="397.17059"
     inkscape:cy="362.36377"
     inkscape:window-width="1920"
     inkscape:window-height="1052"
     inkscape:window-x="0"
     inkscape:window-y="28"
     inkscape:window-maximized="0"
     inkscape:current-layer="layer1" />
  <defs
     id="defs1" />
  <g
     inkscape:label="Layer 1"
     inkscape:groupmode="layer"
     id="layer1">
    <g
       id="g4"
       style="clip-rule:evenodd;fill-rule:evenodd;image-rendering:optimizeQuality;shape-rendering:geometricPrecision;text-rendering:geometricPrecision"
       transform="matrix(0.27288373,0,0,0.27288373,-296.17136,3.4674953)">
      <path
         style="opacity:1"
         fill="#822e2b"
         d="m 1280.5,24.5 c -5.82,-3.4525 -10.15,-8.2858 -13,-14.5 -1.11,-0.63771 -2.28,-1.13771 -3.5,-1.5 -5.39,5.1124 -10.56,10.4457 -15.5,16 3.87,-7.3714 9.04,-13.7048 15.5,-19 2.62,1.61216 4.95,3.61216 7,6 3.8,3.9494 6.96,8.2827 9.5,13 z"
         id="path4" />
    </g>
    <g
       id="g11"
       style="clip-rule:evenodd;fill-rule:evenodd;image-rendering:optimizeQuality;shape-rendering:geometricPrecision;text-rendering:geometricPrecision"
       transform="matrix(0.27288373,0,0,0.27288373,-296.17136,3.4674953)">
      <path
         style="opacity:1"
         fill="#94211d"
         d="m 1280.5,24.5 c 5.34,6.6658 9.67,13.9992 13,22 2.1,6.2634 3.94,12.5967 5.5,19 1.59,2.1705 2.92,4.5038 4,7 2.76,14.2348 5.93,28.235 9.5,42 1.75,32.632 2.41,65.299 2,98 0.34,14.41 -0.32,28.743 -2,43 -1.2,7.31 -2.2,14.643 -3,22 0,-6 0,-12 0,-18 0.33,-3.333 0.67,-6.667 1,-10 2.89,-32.265 3.22,-64.598 1,-97 -0.14,-26.132 -3.64,-51.799 -10.5,-77 -5.34,-18.0081 -13.34,-34.6748 -24,-50 -3.47,-5.2725 -7.64,-9.9392 -12.5,-14 -13.85,14.0475 -24.35,30.3808 -31.5,49 -8.6,24.2748 -13.77,49.275 -15.5,75 1.67,0 3.33,0 5,0 1.72,0.724 3.55,1.391 5.5,2 0.33,-0.333 0.67,-0.667 1,-1 0.66,1.824 1.83,3.157 3.5,4 0.28,0.789 0.78,1.456 1.5,2 1.01,-0.837 2.18,-1.17 3.5,-1 1.43,2.018 1.1,3.685 -1,5 -0.64,0.597 -0.97,1.43 -1,2.5 0.18,1.376 0.85,2.209 2,2.5 1.33,1 1.33,2 0,3 -1,0.333 -1.67,1 -2,2 -0.84,1.171 -1.51,2.505 -2,4 -2.23,2.89 -3.57,6.223 -4,10 -1.18,-0.219 -2.18,0.114 -3,1 -1.16,2.385 -2.16,4.719 -3,7 0.15,-1.052 -0.02,-2.052 -0.5,-3 -1.85,2.564 -3.68,2.564 -5.5,0 -1,8.307 -1.33,16.64 -1,25 -0.03,6.686 -0.36,13.352 -1,20 -1,-16.825 -1.33,-33.825 -1,-51 1.47,2.996 3.81,4.496 7,4.5 6.11,-6.547 10.11,-14.214 12,-23 -1.62,-9.444 -7.29,-13.944 -17,-13.5 -0.96,-7.933 -0.96,-15.933 0,-24 0,-1 0,-2 0,-3 3.7,-8.83 5.7,-18.1631 6,-28 0,-0.3333 0,-0.6667 0,-1 3.98,-11.3692 8.48,-22.7025 13.5,-34 4.19,-7.7155 8.36,-15.3822 12.5,-23 4.94,-5.5543 10.11,-10.8876 15.5,-16 1.22,0.36229 2.39,0.86229 3.5,1.5 2.85,6.2142 7.18,11.0475 13,14.5 z"
         id="path11" />
    </g>
    <g
       id="g13"
       style="clip-rule:evenodd;fill-rule:evenodd;image-rendering:optimizeQuality;shape-rendering:geometricPrecision;text-rendering:geometricPrecision"
       transform="matrix(0.27288373,0,0,0.27288373,-296.17136,3.4674953)">
      <path
         style="opacity:1"
         fill="#802d29"
         d="m 1248.5,24.5 c -4.14,7.6178 -8.31,15.2845 -12.5,23 -5.02,11.2975 -9.52,22.6308 -13.5,34 4.13,-18.5932 11.3,-35.9266 21.5,-52 1.52,-1.7395 3.02,-3.4062 4.5,-5 z"
         id="path13" />
    </g>
    <g
       id="g23"
       style="clip-rule:evenodd;fill-rule:evenodd;image-rendering:optimizeQuality;shape-rendering:geometricPrecision;text-rendering:geometricPrecision"
       transform="matrix(0.27288373,0,0,0.27288373,-296.17136,3.4674953)">
      <path
         style="opacity:1"
         fill="#8a3430"
         d="m 1293.5,46.5 c 10.67,21.3385 17,44.0052 19,68 -3.57,-13.765 -6.74,-27.7652 -9.5,-42 -1.08,-2.4962 -2.41,-4.8295 -4,-7 -1.56,-6.4033 -3.4,-12.7366 -5.5,-19 z"
         id="path23" />
    </g>
    <g
       id="g26"
       style="clip-rule:evenodd;fill-rule:evenodd;image-rendering:optimizeQuality;shape-rendering:geometricPrecision;text-rendering:geometricPrecision"
       transform="matrix(0.27288373,0,0,0.27288373,-296.17136,3.4674953)">
      <path
         style="opacity:1"
         fill="#883631"
         d="m 1222.5,82.5 c -0.3,9.8369 -2.3,19.17 -6,28 1.08,-9.645 3.08,-18.9784 6,-28 z"
         id="path26" />
    </g>
    <g
       id="g30"
       style="clip-rule:evenodd;fill-rule:evenodd;image-rendering:optimizeQuality;shape-rendering:geometricPrecision;text-rendering:geometricPrecision"
       transform="matrix(0.27288373,0,0,0.27288373,-296.17136,3.4674953)">
      <path
         style="opacity:1"
         fill="#d73b32"
         d="m 1237.5,141.5 c -1.32,-0.17 -2.49,0.163 -3.5,1 -0.72,-0.544 -1.22,-1.211 -1.5,-2 -1.7,-4.587 -2.87,-9.254 -3.5,-14 6.35,-4.879 13.52,-7.546 21.5,-8 0.2,6.102 0.2,12.102 0,18 -4.44,1.479 -8.77,3.145 -13,5 z"
         id="path30" />
    </g>
    <g
       id="g31"
       style="clip-rule:evenodd;fill-rule:evenodd;image-rendering:optimizeQuality;shape-rendering:geometricPrecision;text-rendering:geometricPrecision"
       transform="matrix(0.27288373,0,0,0.27288373,-296.17136,3.4674953)">
      <path
         style="opacity:1"
         fill="#a9201a"
         d="m 1223.5,178.5 c 0.84,-2.281 1.84,-4.615 3,-7 0.82,-0.886 1.82,-1.219 3,-1 -1.58,9.636 -2.91,19.303 -4,29 3.33,0 6.67,0 10,0 22.33,0 44.67,0 67,0 0.17,-4.014 0,-8.014 -0.5,-12 -0.38,-0.556 -0.88,-0.889 -1.5,-1 -1.16,-7.635 -1.66,-15.301 -1.5,-23 1.42,6.896 2.75,13.896 4,21 0.69,-17.049 0.02,-34.049 -2,-51 -1.47,3.243 -2.64,6.576 -3.5,10 1.25,6.298 1.75,12.631 1.5,19 -1.78,-5.144 -2.95,-10.477 -3.5,-16 -3.33,-0.667 -6.67,-1.333 -10,-2 0.33,-0.667 0.67,-1.333 1,-2 -10.22,-4.741 -20.88,-6.075 -32,-4 -0.12,4.338 -0.46,4.672 -1,1 -4.57,0.244 -8.9,1.41 -13,3.5 1,0.333 2,0.667 3,1 -2.15,1.411 -4.48,2.245 -7,2.5 2.1,-1.315 2.43,-2.982 1,-5 4.23,-1.855 8.56,-3.521 13,-5 0.2,-5.898 0.2,-11.898 0,-18 -7.98,0.454 -15.15,3.121 -21.5,8 0.63,4.746 1.8,9.413 3.5,14 -1.67,-0.843 -2.84,-2.176 -3.5,-4 -0.33,0.333 -0.67,0.667 -1,1 -1.95,-0.609 -3.78,-1.276 -5.5,-2 2.66,-21.013 6.82,-42.0134 12.5,-63 2.72,-7.1161 5.72,-14.1161 9,-21 1.92,-3.5849 4.75,-6.0849 8.5,-7.5 7.67,-0.6667 15.33,-0.6667 23,0 4,0.6678 6.83,2.8345 8.5,6.5 9.25,18.6499 15.25,38.3166 18,59 5.41,51.133 4.41,102.133 -3,153 -0.47,1.431 -1.3,2.597 -2.5,3.5 -20.99,1.946 -41.99,1.946 -63,0 -1.43,-0.465 -2.6,-1.299 -3.5,-2.5 -3.32,-17.175 -5.32,-34.509 -6,-52 -0.5,-10.995 -0.67,-21.995 -0.5,-33 z"
         id="path31" />
    </g>
    <g
       id="g32"
       style="clip-rule:evenodd;fill-rule:evenodd;image-rendering:optimizeQuality;shape-rendering:geometricPrecision;text-rendering:geometricPrecision"
       transform="matrix(0.27288373,0,0,0.27288373,-296.17136,3.4674953)">
      <path
         style="opacity:1"
         fill="#d93f35"
         d="m 1276.5,117.5 c 9.13,0.816 17.13,4.15 24,10 -1.4,4.039 -2.9,8.039 -4.5,12 -0.52,1.016 -1.35,1.682 -2.5,2 -5.54,-2.134 -11.2,-3.801 -17,-5 0,-6.333 0,-12.667 0,-19 z"
         id="path32" />
    </g>
    <g
       id="g42"
       style="clip-rule:evenodd;fill-rule:evenodd;image-rendering:optimizeQuality;shape-rendering:geometricPrecision;text-rendering:geometricPrecision"
       transform="matrix(0.27288373,0,0,0.27288373,-296.17136,3.4674953)">
      <path
         style="opacity:1"
         fill="#a04642"
         d="m 1216.5,137.5 c 9.71,-0.444 15.38,4.056 17,13.5 -1.89,8.786 -5.89,16.453 -12,23 -3.19,-0.004 -5.53,-1.504 -7,-4.5 -4.1,-5.614 -6.43,-11.947 -7,-19 0.25,-6.248 3.25,-10.581 9,-13 z"
         id="path42" />
    </g>
    <g
       id="g43"
       style="clip-rule:evenodd;fill-rule:evenodd;image-rendering:optimizeQuality;shape-rendering:geometricPrecision;text-rendering:geometricPrecision"
       transform="matrix(0.27288373,0,0,0.27288373,-296.17136,3.4674953)">
      <path
         style="opacity:1"
         fill="#752828"
         d="m 1218.5,143.5 c 5.63,0.461 8.13,3.461 7.5,9 -3.67,4 -7.33,4 -11,0 -1.02,-3.947 0.15,-6.947 3.5,-9 z"
         id="path43" />
    </g>
    <g
       id="g44"
       style="clip-rule:evenodd;fill-rule:evenodd;image-rendering:optimizeQuality;shape-rendering:geometricPrecision;text-rendering:geometricPrecision"
       transform="matrix(0.27288373,0,0,0.27288373,-296.17136,3.4674953)">
      <path
         style="opacity:1"
         fill="#f4dadb"
         d="m 1218.5,146.5 c 4.83,-0.115 6.16,2.052 4,6.5 -5.76,0.418 -7.1,-1.749 -4,-6.5 z"
         id="path44" />
    </g>
    <g
       id="g48"
       style="clip-rule:evenodd;fill-rule:evenodd;image-rendering:optimizeQuality;shape-rendering:geometricPrecision;text-rendering:geometricPrecision"
       transform="matrix(0.27288373,0,0,0.27288373,-296.17136,3.4674953)">
      <path
         style="opacity:1"
         fill="#822e29"
         d="m 1312.5,114.5 c 2.04,11.432 3.04,23.099 3,35 0.33,21.173 0,42.173 -1,63 0.41,-32.701 -0.25,-65.368 -2,-98 z"
         id="path48" />
    </g>
    <g
       id="g50"
       style="clip-rule:evenodd;fill-rule:evenodd;image-rendering:optimizeQuality;shape-rendering:geometricPrecision;text-rendering:geometricPrecision"
       transform="matrix(0.27288373,0,0,0.27288373,-296.17136,3.4674953)">
      <path
         style="opacity:1"
         fill="#d33931"
         d="m 1235.5,156.5 c 0.33,-1 1,-1.667 2,-2 5.3,-1.009 10.63,-1.176 16,-0.5 0.5,0.5 1,1 1.5,1.5 0.5,4.989 0.67,9.989 0.5,15 -6.67,0 -13.33,0 -20,0 0,-4.667 0,-9.333 0,-14 z"
         id="path50" />
    </g>
    <g
       id="g51"
       style="clip-rule:evenodd;fill-rule:evenodd;image-rendering:optimizeQuality;shape-rendering:geometricPrecision;text-rendering:geometricPrecision"
       transform="matrix(0.27288373,0,0,0.27288373,-296.17136,3.4674953)">
      <path
         style="opacity:1"
         fill="#ab1c17"
         d="m 1237.5,151.5 c 5.68,-0.166 11.34,0.001 17,0.5 0.83,0.833 1.67,1.667 2.5,2.5 0.67,7.333 0.67,14.667 0,22 -0.69,0.525 -1.19,1.192 -1.5,2 -6.31,1.164 -12.64,1.331 -19,0.5 -1.2,-0.903 -2.03,-2.069 -2.5,-3.5 -0.5,-4.989 -0.67,-9.989 -0.5,-15 0.49,-1.495 1.16,-2.829 2,-4 0,4.667 0,9.333 0,14 6.67,0 13.33,0 20,0 0.17,-5.011 0,-10.011 -0.5,-15 -0.5,-0.5 -1,-1 -1.5,-1.5 -5.37,-0.676 -10.7,-0.509 -16,0.5 1.33,-1 1.33,-2 0,-3 z"
         id="path51" />
    </g>
    <g
       id="g52"
       style="clip-rule:evenodd;fill-rule:evenodd;image-rendering:optimizeQuality;shape-rendering:geometricPrecision;text-rendering:geometricPrecision"
       transform="matrix(0.27288373,0,0,0.27288373,-296.17136,3.4674953)">
      <path
         style="opacity:1"
         fill="#ca352f"
         d="m 1300.5,186.5 c -1.81,-2.264 -3.65,-4.597 -5.5,-7 -2.18,1.262 -4.35,2.595 -6.5,4 -1.63,-1.398 -3.46,-2.398 -5.5,-3 -7.72,2.202 -13.22,-0.965 -16.5,-9.5 0.67,-0.667 1.33,-1.333 2,-2 -0.39,-1.525 -0.39,-3.192 0,-5 -0.79,-1.085 -1.46,-2.252 -2,-3.5 0.35,-1.196 0.85,-1.196 1.5,0 -0.52,-2.954 0.64,-5.288 3.5,-7 0.67,-1.524 1.67,-2.858 3,-4 -3.07,-0.936 -5.74,-2.436 -8,-4.5 0.92,-2.048 0.42,-3.881 -1.5,-5.5 -1.21,1.549 -2.71,2.715 -4.5,3.5 0.67,0.333 1.33,0.667 2,1 -1,1 -2,2 -3,3 0.67,0.333 1.33,0.667 2,1 -1.71,0.195 -3.37,0.195 -5,0 2.04,3.446 3.71,7.113 5,11 -0.8,1.092 -1.46,2.259 -2,3.5 0.68,2.278 1.68,3.612 3,4 -1.15,2.127 -2.15,4.294 -3,6.5 0.33,0.333 0.67,0.667 1,1 -1.98,2.147 -3.31,4.647 -4,7.5 -0.59,-0.209 -1.09,-0.543 -1.5,-1 -6.29,1.858 -12.46,1.858 -18.5,0 -1.77,0.535 -2.1,1.369 -1,2.5 -1.24,-0.077 -2.24,0.089 -3,0.5 0.53,0.692 1.19,1.192 2,1.5 -1.27,0.309 -2.43,0.809 -3.5,1.5 -0.33,-0.667 -0.67,-1.333 -1,-2 -1.03,4.604 -1.53,8.937 -1.5,13 1.85,1.26 3.69,1.26 5.5,0 0.72,0.544 1.22,1.211 1.5,2 -3.33,0 -6.67,0 -10,0 1.09,-9.697 2.42,-19.364 4,-29 0.43,-3.777 1.77,-7.11 4,-10 -0.17,5.011 0,10.011 0.5,15 0.47,1.431 1.3,2.597 2.5,3.5 6.36,0.831 12.69,0.664 19,-0.5 0.31,-0.808 0.81,-1.475 1.5,-2 0.67,-7.333 0.67,-14.667 0,-22 -0.83,-0.833 -1.67,-1.667 -2.5,-2.5 -5.66,-0.499 -11.32,-0.666 -17,-0.5 -1.15,-0.291 -1.82,-1.124 -2,-2.5 0.03,-1.07 0.36,-1.903 1,-2.5 2.52,-0.255 4.85,-1.089 7,-2.5 -1,-0.333 -2,-0.667 -3,-1 4.1,-2.09 8.43,-3.256 13,-3.5 0.54,3.672 0.88,3.338 1,-1 11.12,-2.075 21.78,-0.741 32,4 -0.33,0.667 -0.67,1.333 -1,2 3.33,0.667 6.67,1.333 10,2 0.55,5.523 1.72,10.856 3.5,16 0.25,-6.369 -0.25,-12.702 -1.5,-19 0.86,-3.424 2.03,-6.757 3.5,-10 2.02,16.951 2.69,33.951 2,51 -1.25,-7.104 -2.58,-14.104 -4,-21 -0.16,7.699 0.34,15.365 1.5,23 z"
         id="path52" />
    </g>
    <g
       id="g53"
       style="clip-rule:evenodd;fill-rule:evenodd;image-rendering:optimizeQuality;shape-rendering:geometricPrecision;text-rendering:geometricPrecision"
       transform="matrix(0.27288373,0,0,0.27288373,-296.17136,3.4674953)">
      <path
         style="opacity:1"
         fill="#d33b34"
         d="m 1235.5,172.5 c 6.67,0 13.33,0 20,0 0.26,1.478 -0.07,2.811 -1,4 -5.61,1.121 -11.28,1.288 -17,0.5 -1.54,-1.11 -2.2,-2.61 -2,-4.5 z"
         id="path53" />
    </g>
    <g
       id="g54"
       style="clip-rule:evenodd;fill-rule:evenodd;image-rendering:optimizeQuality;shape-rendering:geometricPrecision;text-rendering:geometricPrecision"
       transform="matrix(0.27288373,0,0,0.27288373,-296.17136,3.4674953)">
      <path
         style="opacity:1"
         fill="#ae1e18"
         d="m 1271.5,153.5 c 20.84,-7.664 28.67,-0.664 23.5,21 -0.51,2.021 -1.68,3.521 -3.5,4.5 -5.67,0.667 -11.33,0.667 -17,0 -0.92,-0.374 -1.75,-0.874 -2.5,-1.5 -1.83,-7.943 -2,-15.943 -0.5,-24 z"
         id="path54" />
    </g>
    <g
       id="g55"
       style="clip-rule:evenodd;fill-rule:evenodd;image-rendering:optimizeQuality;shape-rendering:geometricPrecision;text-rendering:geometricPrecision"
       transform="matrix(0.27288373,0,0,0.27288373,-296.17136,3.4674953)">
      <path
         style="opacity:1"
         fill="#d13c34"
         d="m 1272.5,172.5 c 6.67,0 13.33,0 20,0 0.2,1.89 -0.46,3.39 -2,4.5 -5.33,0.667 -10.67,0.667 -16,0 -1.54,-1.11 -2.2,-2.61 -2,-4.5 z"
         id="path55" />
    </g>
    <g
       id="g56"
       style="clip-rule:evenodd;fill-rule:evenodd;image-rendering:optimizeQuality;shape-rendering:geometricPrecision;text-rendering:geometricPrecision"
       transform="matrix(0.27288373,0,0,0.27288373,-296.17136,3.4674953)">
      <path
         style="opacity:1"
         fill="#d63b32"
         d="m 1276.5,153.5 c 4.68,-0.166 9.35,0.001 14,0.5 0.5,0.5 1,1 1.5,1.5 0.5,4.989 0.67,9.989 0.5,15 -6.67,0 -13.33,0 -20,0 -0.33,-5.044 0.01,-10.044 1,-15 1.24,-0.442 2.24,-1.109 3,-2 z"
         id="path56" />
    </g>
    <g
       id="g58"
       style="clip-rule:evenodd;fill-rule:evenodd;image-rendering:optimizeQuality;shape-rendering:geometricPrecision;text-rendering:geometricPrecision"
       transform="matrix(0.27288373,0,0,0.27288373,-296.17136,3.4674953)">
      <path
         style="opacity:1"
         fill="#d0342b"
         d="m 1271.5,153.5 c -2.86,1.712 -4.02,4.046 -3.5,7 -0.65,-1.196 -1.15,-1.196 -1.5,0 0.54,1.248 1.21,2.415 2,3.5 -0.39,1.808 -0.39,3.475 0,5 -0.67,0.667 -1.33,1.333 -2,2 3.28,8.535 8.78,11.702 16.5,9.5 2.04,0.602 3.87,1.602 5.5,3 2.15,-1.405 4.32,-2.738 6.5,-4 1.85,2.403 3.69,4.736 5.5,7 0.62,0.111 1.12,0.444 1.5,1 0.5,3.986 0.67,7.986 0.5,12 -22.33,0 -44.67,0 -67,0 -0.28,-0.789 -0.78,-1.456 -1.5,-2 -1.81,1.26 -3.65,1.26 -5.5,0 -0.03,-4.063 0.47,-8.396 1.5,-13 0.33,0.667 0.67,1.333 1,2 1.07,-0.691 2.23,-1.191 3.5,-1.5 -0.81,-0.308 -1.47,-0.808 -2,-1.5 0.76,-0.411 1.76,-0.577 3,-0.5 -1.1,-1.131 -0.77,-1.965 1,-2.5 6.04,1.858 12.21,1.858 18.5,0 0.41,0.457 0.91,0.791 1.5,1 0.69,-2.853 2.02,-5.353 4,-7.5 -0.33,-0.333 -0.67,-0.667 -1,-1 0.85,-2.206 1.85,-4.373 3,-6.5 -1.32,-0.388 -2.32,-1.722 -3,-4 0.54,-1.241 1.2,-2.408 2,-3.5 -1.29,-3.887 -2.96,-7.554 -5,-11 1.63,0.195 3.29,0.195 5,0 -0.67,-0.333 -1.33,-0.667 -2,-1 1,-1 2,-2 3,-3 -0.67,-0.333 -1.33,-0.667 -2,-1 1.79,-0.785 3.29,-1.951 4.5,-3.5 1.92,1.619 2.42,3.452 1.5,5.5 2.26,2.064 4.93,3.564 8,4.5 -1.33,1.142 -2.33,2.476 -3,4 z"
         id="path58" />
    </g>
    <g
       id="g59"
       style="clip-rule:evenodd;fill-rule:evenodd;image-rendering:optimizeQuality;shape-rendering:geometricPrecision;text-rendering:geometricPrecision"
       transform="matrix(0.27288373,0,0,0.27288373,-296.17136,3.4674953)">
      <path
         style="opacity:1"
         fill="#e76760"
         d="m 1311.5,152.5 c 1.77,37.303 -0.73,74.303 -7.5,111 -0.52,2.534 -1.68,4.7 -3.5,6.5 -21.22,3.749 -42.56,4.416 -64,2 -3.52,-0.395 -6.85,-1.395 -10,-3 -1.67,-4.336 -2.84,-8.836 -3.5,-13.5 -2.93,-18.397 -5.09,-36.731 -6.5,-55 -0.33,-8.36 0,-16.693 1,-25 1.82,2.564 3.65,2.564 5.5,0 0.48,0.948 0.65,1.948 0.5,3 -0.17,11.005 0,22.005 0.5,33 0.68,17.491 2.68,34.825 6,52 0.9,1.201 2.07,2.035 3.5,2.5 21.01,1.946 42.01,1.946 63,0 1.2,-0.903 2.03,-2.069 2.5,-3.5 7.41,-50.867 8.41,-101.867 3,-153 -2.75,-20.6834 -8.75,-40.3501 -18,-59 -1.67,-3.6655 -4.5,-5.8322 -8.5,-6.5 -7.67,-0.6667 -15.33,-0.6667 -23,0 -3.75,1.4151 -6.58,3.9151 -8.5,7.5 -3.28,6.8839 -6.28,13.8839 -9,21 -5.68,20.9866 -9.84,41.987 -12.5,63 -1.67,0 -3.33,0 -5,0 1.73,-25.725 6.9,-50.7252 15.5,-75 7.15,-18.6192 17.65,-34.9525 31.5,-49 4.86,4.0608 9.03,8.7275 12.5,14 10.66,15.3252 18.66,31.9919 24,50 6.86,25.201 10.36,50.868 10.5,77 z"
         id="path59" />
    </g>
    <g
       id="g60"
       style="clip-rule:evenodd;fill-rule:evenodd;image-rendering:optimizeQuality;shape-rendering:geometricPrecision;text-rendering:geometricPrecision"
       transform="matrix(0.27288373,0,0,0.27288373,-296.17136,3.4674953)">
      <path
         style="opacity:1"
         fill="#d7362f"
         d="m 1255.5,116.5 c 6.01,-0.166 12.01,0.001 18,0.5 0.98,6.076 1.31,12.242 1,18.5 -7,0 -14,0 -21,0 -0.56,-6.621 0.11,-12.955 2,-19 z"
         id="path60" />
    </g>
    <g
       id="g61"
       style="clip-rule:evenodd;fill-rule:evenodd;image-rendering:optimizeQuality;shape-rendering:geometricPrecision;text-rendering:geometricPrecision"
       transform="matrix(0.27288373,0,0,0.27288373,-296.17136,3.4674953)">
      <path
         style="opacity:1"
         fill="#e36158"
         d="m 1250.5,109.5 c 16.94,-1.154 33.44,0.846 49.5,6 0.67,2.667 0.67,5.333 0,8 -11.08,-6.604 -23.08,-9.604 -36,-9 -13.28,-1.128 -25.28,2.205 -36,10 0.03,-3.199 0.53,-6.365 1.5,-9.5 7.09,-2.02 14.09,-3.853 21,-5.5 z"
         id="path61" />
    </g>
    <g
       id="g62"
       style="clip-rule:evenodd;fill-rule:evenodd;image-rendering:optimizeQuality;shape-rendering:geometricPrecision;text-rendering:geometricPrecision"
       transform="matrix(0.27288373,0,0,0.27288373,-296.17136,3.4674953)">
      <path
         style="opacity:1"
         fill="#ce342c"
         d="m 1292.5,108.5 c 1.89,0.822 3.89,1.655 6,2.5 -0.83,0.167 -1.67,0.333 -2.5,0.5 -5.32,-1.996 -10.82,-3.163 -16.5,-3.5 -14.08,-0.789 -28.08,-0.455 -42,1 0.92,-0.278 1.58,-0.778 2,-1.5 2.62,-0.279 5.12,-0.946 7.5,-2 3.15,-11.6127 6.15,-23.2794 9,-35 3.37,-5.109 7.87,-6.2757 13.5,-3.5 1.54,1.5793 2.71,3.4127 3.5,5.5 2.5,10.6771 5,21.3438 7.5,32 3.65,2.328 7.65,3.661 12,4 z"
         id="path62" />
    </g>
    <g
       id="g63"
       style="clip-rule:evenodd;fill-rule:evenodd;image-rendering:optimizeQuality;shape-rendering:geometricPrecision;text-rendering:geometricPrecision"
       transform="matrix(0.27288373,0,0,0.27288373,-296.17136,3.4674953)">
      <path
         style="opacity:1"
         fill="#af1e18"
         d="m 1293.5,106.5 c -0.33,0.667 -0.67,1.333 -1,2 -4.35,-0.339 -8.35,-1.672 -12,-4 -2.5,-10.6562 -5,-21.3229 -7.5,-32 -0.79,-2.0873 -1.96,-3.9207 -3.5,-5.5 -5.63,-2.7757 -10.13,-1.609 -13.5,3.5 -2.85,11.7206 -5.85,23.3873 -9,35 -2.38,1.054 -4.88,1.721 -7.5,2 -0.71,-0.904 -1.71,-1.237 -3,-1 3.09,-0.927 6.09,-2.26 9,-4 2.6,-9.9624 5.1,-19.9624 7.5,-30 2.33,-7.9154 7.49,-10.7487 15.5,-8.5 1.79,0.7845 3.29,1.9512 4.5,3.5 4.01,11.3852 7.01,23.0518 9,35 3.48,2.329 7.31,3.662 11.5,4 z"
         id="path63" />
    </g>
    <g
       id="g64"
       style="clip-rule:evenodd;fill-rule:evenodd;image-rendering:optimizeQuality;shape-rendering:geometricPrecision;text-rendering:geometricPrecision"
       transform="matrix(0.27288373,0,0,0.27288373,-296.17136,3.4674953)">
      <path
         style="opacity:1"
         fill="#c93833"
         d="m 1252.5,45.5 c 7.34,-0.1663 14.67,3e-4 22,0.5 3.06,1.0608 5.56,2.8941 7.5,5.5 8.62,17.8281 13.79,36.4947 15.5,56 -3.81,-18.2612 -9.31,-35.9279 -16.5,-53 -3.83,-6.4117 -9.5,-8.745 -17,-7 -3.5,0.1667 -7,0.3333 -10.5,0.5 -2.5,1.1667 -4.33,3 -5.5,5.5 -3.06,5.8333 -5.72,11.8333 -8,18 -3.28,12.328 -6.44,24.6614 -9.5,37 1.55,-19.5176 6.72,-38.1842 15.5,-56 1.73,-2.8297 3.89,-5.163 6.5,-7 z"
         id="path64" />
    </g>
    <g
       id="g65"
       style="clip-rule:evenodd;fill-rule:evenodd;image-rendering:optimizeQuality;shape-rendering:geometricPrecision;text-rendering:geometricPrecision"
       transform="matrix(0.27288373,0,0,0.27288373,-296.17136,3.4674953)">
      <path
         style="opacity:1"
         fill="#d83b32"
         d="m 1293.5,106.5 c -4.19,-0.338 -8.02,-1.671 -11.5,-4 -1.99,-11.9482 -4.99,-23.6148 -9,-35 -1.21,-1.5488 -2.71,-2.7155 -4.5,-3.5 -8.01,-2.2487 -13.17,0.5846 -15.5,8.5 -2.4,10.0376 -4.9,20.0376 -7.5,30 -2.91,1.74 -5.91,3.073 -9,4 -1.19,-0.47 -1.86,-1.47 -2,-3 2.74,-13.9781 6.58,-27.6448 11.5,-41 1.79,-4.0766 3.95,-7.91 6.5,-11.5 7.67,-0.6667 15.33,-0.6667 23,0 0.83,0.8333 1.67,1.6667 2.5,2.5 8.22,17.1209 13.39,34.7876 15.5,53 z"
         id="path65" />
    </g>
    <g
       id="g66"
       style="clip-rule:evenodd;fill-rule:evenodd;image-rendering:optimizeQuality;shape-rendering:geometricPrecision;text-rendering:geometricPrecision"
       transform="matrix(0.27288373,0,0,0.27288373,-296.17136,3.4674953)">
      <path
         style="opacity:1"
         fill="#ab2a23"
         d="m 1263.5,14.5 c 4.29,3.2042 7.12,7.5375 8.5,13 0.8,4.2548 0.63,8.4215 -0.5,12.5 -2.5,0.1667 -5,0.3333 -7.5,0.5 -2.95,-0.0676 -5.62,-0.7343 -8,-2 -1.21,-9.21 1.29,-17.21 7.5,-24 z"
         id="path66" />
    </g>
    <g
       id="g67"
       style="clip-rule:evenodd;fill-rule:evenodd;image-rendering:optimizeQuality;shape-rendering:geometricPrecision;text-rendering:geometricPrecision"
       transform="matrix(0.27288373,0,0,0.27288373,-296.17136,3.4674953)">
      <path
         style="opacity:1"
         fill="#e76a62"
         d="m 1263.5,17.5 c 2.39,0.7187 3.89,2.3854 4.5,5 2.03,4.7837 2.87,9.7837 2.5,15 -4,0 -8,0 -12,0 -1.17,-7.4667 0.5,-14.1334 5,-20 z"
         id="path67" />
    </g>
    <g
       id="g74"
       style="clip-rule:evenodd;fill-rule:evenodd;image-rendering:optimizeQuality;shape-rendering:geometricPrecision;text-rendering:geometricPrecision"
       transform="matrix(0.27288373,0,0,0.27288373,-296.17136,3.4674953)">
      <path
         style="opacity:1"
         fill="#ebcccb"
         d="m 1315.5,149.5 c 1.16,32.164 1.33,64.497 0.5,97 -0.63,10.376 -1.47,20.876 -2.5,31.5 0.33,0.333 0.67,0.667 1,1 -1.06,3.149 -2.39,5.982 -4,8.5 0.78,-10.659 1.44,-21.326 2,-32 1.68,-14.257 2.34,-28.59 2,-43 1,-20.827 1.33,-41.827 1,-63 z"
         id="path74" />
    </g>
    <g
       id="g75"
       style="clip-rule:evenodd;fill-rule:evenodd;image-rendering:optimizeQuality;shape-rendering:geometricPrecision;text-rendering:geometricPrecision"
       transform="matrix(0.27288373,0,0,0.27288373,-296.17136,3.4674953)">
      <path
         style="opacity:1"
         fill="#812927"
         d="m 1312.5,255.5 c -0.56,10.674 -1.22,21.341 -2,32 -1.87,4.537 -5.2,7.204 -10,8 3.05,-2.069 5.72,-4.736 8,-8 0.99,-3.268 1.32,-6.602 1,-10 0.8,-7.357 1.8,-14.69 3,-22 z"
         id="path75" />
    </g>
    <g
       id="g76"
       style="clip-rule:evenodd;fill-rule:evenodd;image-rendering:optimizeQuality;shape-rendering:geometricPrecision;text-rendering:geometricPrecision"
       transform="matrix(0.27288373,0,0,0.27288373,-296.17136,3.4674953)">
      <path
         style="opacity:1"
         fill="#d53830"
         d="m 1235.5,293.5 c -6.63,-0.809 -11.47,-4.142 -14.5,-10 -1.34,-8.607 -1.84,-17.274 -1.5,-26 -0.16,-1.373 0.01,-2.707 0.5,-4 1.36,4.172 2.36,8.505 3,13 0.27,1.829 1.11,3.329 2.5,4.5 7.04,2.896 14.37,4.396 22,4.5 -0.74,6.145 -2.08,12.145 -4,18 -2.66,1.114 -5.32,1.114 -8,0 z"
         id="path76" />
    </g>
    <g
       id="g77"
       style="clip-rule:evenodd;fill-rule:evenodd;image-rendering:optimizeQuality;shape-rendering:geometricPrecision;text-rendering:geometricPrecision"
       transform="matrix(0.27288373,0,0,0.27288373,-296.17136,3.4674953)">
      <path
         style="opacity:1"
         fill="#d63931"
         d="m 1310.5,249.5 c -0.33,3.333 -0.67,6.667 -1,10 -0.98,9.204 -2.15,18.538 -3.5,28 -0.37,0.916 -0.87,1.75 -1.5,2.5 -6.07,2.748 -12.41,4.081 -19,4 -1.56,-6.185 -3.23,-12.352 -5,-18.5 7.73,0.324 15.06,-1.176 22,-4.5 1.54,-1.932 2.71,-4.099 3.5,-6.5 1.61,-6.918 2.94,-13.918 4,-21 0.5,1.973 0.66,3.973 0.5,6 z"
         id="path77" />
    </g>
    <g
       id="g82"
       style="clip-rule:evenodd;fill-rule:evenodd;image-rendering:optimizeQuality;shape-rendering:geometricPrecision;text-rendering:geometricPrecision"
       transform="matrix(0.27288373,0,0,0.27288373,-296.17136,3.4674953)">
      <path
         style="opacity:1"
         fill="#d23b30"
         d="m 1277.5,308.5 c 0.68,3.773 -0.66,6.606 -4,8.5 -5.33,0.667 -10.67,0.667 -16,0 -2.75,-0.599 -4.75,-2.099 -6,-4.5 0.06,-7.36 0.56,-14.694 1.5,-22 0.49,-3.482 1.66,-6.649 3.5,-9.5 5.33,-0.667 10.67,-0.667 16,0 2.65,4.41 4.15,9.243 4.5,14.5 0.5,4.321 0.67,8.654 0.5,13 z"
         id="path82" />
    </g>
    <g
       id="g83"
       style="clip-rule:evenodd;fill-rule:evenodd;image-rendering:optimizeQuality;shape-rendering:geometricPrecision;text-rendering:geometricPrecision"
       transform="matrix(0.27288373,0,0,0.27288373,-296.17136,3.4674953)">
      <path
         style="opacity:1"
         fill="#a8231e"
         d="m 1311.5,152.5 c 2.22,32.402 1.89,64.735 -1,97 0.16,-2.027 0,-4.027 -0.5,-6 -1.06,7.082 -2.39,14.082 -4,21 -0.79,2.401 -1.96,4.568 -3.5,6.5 -6.94,3.324 -14.27,4.824 -22,4.5 1.77,6.148 3.44,12.315 5,18.5 6.59,0.081 12.93,-1.252 19,-4 0.63,-0.75 1.13,-1.584 1.5,-2.5 1.35,-9.462 2.52,-18.796 3.5,-28 0,6 0,12 0,18 0.32,3.398 -0.01,6.732 -1,10 -2.28,3.264 -4.95,5.931 -8,8 -6.1,0.617 -11.76,-0.05 -17,-2 -2.04,-5.31 -3.54,-4.977 -4.5,1 -0.17,4.851 -0.67,9.518 -1.5,14 0.17,-4.346 0,-8.679 -0.5,-13 -0.35,-5.257 -1.85,-10.09 -4.5,-14.5 -5.33,-0.667 -10.67,-0.667 -16,0 -1.84,2.851 -3.01,6.018 -3.5,9.5 -0.94,7.306 -1.44,14.64 -1.5,22 -1.03,-2.448 -1.7,-5.114 -2,-8 0.91,-3.644 1.08,-7.31 0.5,-11 -0.72,-0.559 -1.56,-0.892 -2.5,-1 -2.06,1.809 -4.56,2.809 -7.5,3 -1.99,-0.069 -3.49,-0.735 -4.5,-2 2.68,1.114 5.34,1.114 8,0 1.92,-5.855 3.26,-11.855 4,-18 -7.63,-0.104 -14.96,-1.604 -22,-4.5 -1.39,-1.171 -2.23,-2.671 -2.5,-4.5 -0.64,-4.495 -1.64,-8.828 -3,-13 -0.49,1.293 -0.66,2.627 -0.5,4 -0.67,-3.333 -1.33,-6.667 -2,-10 -1.84,-8.861 -2.51,-17.861 -2,-27 0.64,-6.648 0.97,-13.314 1,-20 1.41,18.269 3.57,36.603 6.5,55 0.66,4.664 1.83,9.164 3.5,13.5 3.15,1.605 6.48,2.605 10,3 21.44,2.416 42.78,1.749 64,-2 1.82,-1.8 2.98,-3.966 3.5,-6.5 6.77,-36.697 9.27,-73.697 7.5,-111 z"
         id="path83" />
    </g>
    <g
       id="g84"
       style="clip-rule:evenodd;fill-rule:evenodd;image-rendering:optimizeQuality;shape-rendering:geometricPrecision;text-rendering:geometricPrecision"
       transform="matrix(0.27288373,0,0,0.27288373,-296.17136,3.4674953)">
      <path
         style="opacity:1"
         fill="#d63b33"
         d="m 1285.5,232.5 c -6.15,0.828 -12.49,1.328 -19,1.5 -0.92,0.374 -1.75,0.874 -2.5,1.5 -5.69,-2.08 -11.53,-2.246 -17.5,-0.5 0.95,0.718 1.12,1.551 0.5,2.5 -2.7,-2.778 -5.37,-3.111 -8,-1 -2.03,-1.232 -3.36,-0.898 -4,1 -1.05,-1.607 -2.55,-2.273 -4.5,-2 -0.18,2.436 0.48,4.603 2,6.5 -1.45,3.919 -0.12,6.586 4,8 -4.28,4.99 -3.28,8.823 3,11.5 1.34,-1.402 2.18,-1.069 2.5,1 0.67,-0.667 1.33,-1.333 2,-2 1.82,1.941 3.82,2.608 6,2 0.46,-1.244 -0.04,-2.077 -1.5,-2.5 0.92,-0.374 1.75,-0.874 2.5,-1.5 2.3,2.461 5.13,3.794 8.5,4 0.24,-3.499 -0.59,-3.832 -2.5,-1 -0.32,-1.408 0.02,-2.741 1,-4 1.02,1.134 1.68,0.801 2,-1 1.71,1.425 3.05,1.092 4,-1 1.91,3.267 0.75,4.6 -3.5,4 -0.15,1.052 0.02,2.052 0.5,3 1.11,-1.211 2.28,-1.211 3.5,0 0.69,-0.525 1.19,-1.192 1.5,-2 1.44,0.76 2.94,1.426 4.5,2 7.48,1.018 15.14,1.018 23,0 3.31,-9.031 4.81,-18.364 4.5,-28 -3.87,-0.063 -7.71,-0.73 -11.5,-2 4.67,0 9.33,0 14,0 -0.62,9.064 -1.79,18.064 -3.5,27 -0.27,1.829 -1.11,3.329 -2.5,4.5 -19.66,1.908 -39.33,1.908 -59,0 -1,-0.5 -2,-1 -3,-1.5 -2.73,-9.81 -4.07,-19.81 -4,-30 19,0 38,0 57,0 z"
         id="path84" />
    </g>
    <g
       id="g85"
       style="clip-rule:evenodd;fill-rule:evenodd;image-rendering:optimizeQuality;shape-rendering:geometricPrecision;text-rendering:geometricPrecision"
       transform="matrix(0.27288373,0,0,0.27288373,-296.17136,3.4674953)">
      <path
         style="opacity:1"
         fill="#de3931"
         d="m 1285.5,232.5 c 0.33,0 0.67,0 1,0 3.79,1.27 7.63,1.937 11.5,2 0.31,9.636 -1.19,18.969 -4.5,28 -7.86,1.018 -15.52,1.018 -23,0 -1.56,-0.574 -3.06,-1.24 -4.5,-2 -0.31,0.808 -0.81,1.475 -1.5,2 -1.22,-1.211 -2.39,-1.211 -3.5,0 -0.48,-0.948 -0.65,-1.948 -0.5,-3 4.25,0.6 5.41,-0.733 3.5,-4 -0.95,2.092 -2.29,2.425 -4,1 -0.32,1.801 -0.98,2.134 -2,1 -0.98,1.259 -1.32,2.592 -1,4 1.91,-2.832 2.74,-2.499 2.5,1 -3.37,-0.206 -6.2,-1.539 -8.5,-4 -0.75,0.626 -1.58,1.126 -2.5,1.5 1.46,0.423 1.96,1.256 1.5,2.5 -2.18,0.608 -4.18,-0.059 -6,-2 -0.67,0.667 -1.33,1.333 -2,2 -0.32,-2.069 -1.16,-2.402 -2.5,-1 -6.28,-2.677 -7.28,-6.51 -3,-11.5 -4.12,-1.414 -5.45,-4.081 -4,-8 -1.52,-1.897 -2.18,-4.064 -2,-6.5 1.95,-0.273 3.45,0.393 4.5,2 0.64,-1.898 1.97,-2.232 4,-1 2.63,-2.111 5.3,-1.778 8,1 0.62,-0.949 0.45,-1.782 -0.5,-2.5 5.97,-1.746 11.81,-1.58 17.5,0.5 0.75,-0.626 1.58,-1.126 2.5,-1.5 6.51,-0.172 12.85,-0.672 19,-1.5 z"
         id="path85" />
    </g>
    <g
       id="g86"
       style="clip-rule:evenodd;fill-rule:evenodd;image-rendering:optimizeQuality;shape-rendering:geometricPrecision;text-rendering:geometricPrecision"
       transform="matrix(0.27288373,0,0,0.27288373,-296.17136,3.4674953)">
      <path
         style="opacity:1"
         fill="#d43e35"
         d="m 1227.5,225.5 c 24.33,0 48.67,0 73,0 0,1.667 0,3.333 0,5 -24.33,0 -48.67,0 -73,0 0,-1.667 0,-3.333 0,-5 z"
         id="path86" />
    </g>
    <g
       id="g87"
       style="clip-rule:evenodd;fill-rule:evenodd;image-rendering:optimizeQuality;shape-rendering:geometricPrecision;text-rendering:geometricPrecision"
       transform="matrix(0.27288373,0,0,0.27288373,-296.17136,3.4674953)">
      <path
         style="opacity:1"
         fill="#d63d34"
         d="m 1226.5,218.5 c 25,0 50,0 75,0 0,1.667 0,3.333 0,5 -24.68,0.333 -49.34,0 -74,-1 -0.75,-1.236 -1.08,-2.57 -1,-4 z"
         id="path87" />
    </g>
    <g
       id="g88"
       style="clip-rule:evenodd;fill-rule:evenodd;image-rendering:optimizeQuality;shape-rendering:geometricPrecision;text-rendering:geometricPrecision"
       transform="matrix(0.27288373,0,0,0.27288373,-296.17136,3.4674953)">
      <path
         style="opacity:1"
         fill="#d83b32"
         d="m 1225.5,201.5 c 25.67,0 51.33,0 77,0 0,5 0,10 0,15 -25.33,0 -50.67,0 -76,0 -0.75,-4.963 -1.09,-9.963 -1,-15 z"
         id="path88" />
    </g>
    <g
       id="g89"
       style="clip-rule:evenodd;fill-rule:evenodd;image-rendering:optimizeQuality;shape-rendering:geometricPrecision;text-rendering:geometricPrecision"
       transform="matrix(0.27288373,0,0,0.27288373,-296.17136,3.4674953)">
      <path
         style="opacity:1"
         fill="#863632"
         d="m 1216.5,113.5 c -0.96,8.067 -0.96,16.067 0,24 -5.75,2.419 -8.75,6.752 -9,13 0.57,7.053 2.9,13.386 7,19 -0.33,17.175 0,34.175 1,51 -0.51,9.139 0.16,18.139 2,27 0.2,11.677 0.7,23.344 1.5,35 1.89,7.55 6.72,12.05 14.5,13.5 4.42,0.768 8.75,0.602 13,-0.5 0,0.333 0,0.667 0,1 -0.99,1.526 -2.49,2.193 -4.5,2 -3.88,-0.508 -7.71,-1.175 -11.5,-2 -6.28,-1.776 -10.44,-5.776 -12.5,-12 -3.9,-38.565 -5.9,-77.231 -6,-116 -6.37,-7.802 -8.04,-16.469 -5,-26 2,-2 4,-4 6,-6 0.7,-7.88 1.87,-15.547 3.5,-23 z"
         id="path89" />
    </g>
    <g
       id="g92"
       style="clip-rule:evenodd;fill-rule:evenodd;image-rendering:optimizeQuality;shape-rendering:geometricPrecision;text-rendering:geometricPrecision"
       transform="matrix(0.27288373,0,0,0.27288373,-296.17136,3.4674953)">
      <path
         style="opacity:1"
         fill="#b06b69"
         d="m 1248.5,313.5 c -0.67,-5.667 -1.33,-11.333 -2,-17 0,-0.333 0,-0.667 0,-1 0.72,-0.418 1.22,-1.084 1.5,-2 0.5,6.658 0.67,13.325 0.5,20 z"
         id="path92" />
    </g>
    <g
       id="g111"
       style="clip-rule:evenodd;fill-rule:evenodd;image-rendering:optimizeQuality;shape-rendering:geometricPrecision;text-rendering:geometricPrecision"
       transform="matrix(0.27288373,0,0,0.27288373,-296.17136,3.4674953)">
      <path
         style="opacity:1"
         fill="#f5dddb"
         d="m 1230.5,296.5 c 3.79,0.825 7.62,1.492 11.5,2 2.01,0.193 3.51,-0.474 4.5,-2 0.67,5.667 1.33,11.333 2,17 1.19,4.017 3.85,6.517 8,7.5 5.85,0.818 11.52,0.652 17,-0.5 3.93,-0.928 6.59,-3.261 8,-7 -0.31,4.48 -2.65,7.313 -7,8.5 -7,0.667 -14,0.667 -21,0 -2.26,-1.813 -4.59,-3.313 -7,-4.5 0.17,-5.344 0,-10.677 -0.5,-16 -2.74,-0.782 -5.57,-1.282 -8.5,-1.5 -2.78,-0.522 -5.11,-1.689 -7,-3.5 z"
         id="path111" />
    </g>
    <g
       id="g115"
       style="clip-rule:evenodd;fill-rule:evenodd;image-rendering:optimizeQuality;shape-rendering:geometricPrecision;text-rendering:geometricPrecision"
       transform="matrix(0.27288373,0,0,0.27288373,-296.17136,3.4674953)">
      <path
         style="opacity:1"
         fill="#9b251f"
         d="m 1217.5,247.5 c 0.67,3.333 1.33,6.667 2,10 -0.34,8.726 0.16,17.393 1.5,26 3.03,5.858 7.87,9.191 14.5,10 1.01,1.265 2.51,1.931 4.5,2 2.94,-0.191 5.44,-1.191 7.5,-3 0.94,0.108 1.78,0.441 2.5,1 0.58,3.69 0.41,7.356 -0.5,11 0.3,2.886 0.97,5.552 2,8 1.25,2.401 3.25,3.901 6,4.5 5.33,0.667 10.67,0.667 16,0 3.34,-1.894 4.68,-4.727 4,-8.5 0.83,-4.482 1.33,-9.149 1.5,-14 0.96,-5.977 2.46,-6.31 4.5,-1 -1,0 -2,0 -3,0 0.39,7.421 -0.11,14.754 -1.5,22 -2.26,1.351 -4.1,3.017 -5.5,5 -5.48,1.152 -11.15,1.318 -17,0.5 -4.15,-0.983 -6.81,-3.483 -8,-7.5 0.17,-6.675 0,-13.342 -0.5,-20 -0.28,0.916 -0.78,1.582 -1.5,2 -4.25,1.102 -8.58,1.268 -13,0.5 -7.78,-1.45 -12.61,-5.95 -14.5,-13.5 -0.8,-11.656 -1.3,-23.323 -1.5,-35 z"
         id="path115" />
    </g>
    <g
       id="g116"
       style="clip-rule:evenodd;fill-rule:evenodd;image-rendering:optimizeQuality;shape-rendering:geometricPrecision;text-rendering:geometricPrecision"
       transform="matrix(0.27288373,0,0,0.27288373,-296.17136,3.4674953)">
      <path
         style="opacity:1"
         fill="#87302e"
         d="m 1283.5,293.5 c 5.24,1.95 10.9,2.617 17,2 -4.21,1.683 -8.71,2.683 -13.5,3 -2.03,0.146 -3.7,-0.52 -5,-2 -0.5,5.657 -0.67,11.324 -0.5,17 -1.41,3.739 -4.07,6.072 -8,7 1.4,-1.983 3.24,-3.649 5.5,-5 1.39,-7.246 1.89,-14.579 1.5,-22 1,0 2,0 3,0 z"
         id="path116" />
    </g>
  </g>
</svg>
