<?xml version="1.0" encoding="UTF-8" standalone="no"?>
<!-- Created with Inkscape (http://www.inkscape.org/) -->

<svg
   width="96mm"
   height="96mm"
   viewBox="0 0 96 96"
   version="1.1"
   id="svg1"
   inkscape:version="1.4.2 (ebf0e940, 2025-05-08)"
   sodipodi:docname="animal.svg"
   xmlns:inkscape="http://www.inkscape.org/namespaces/inkscape"
   xmlns:sodipodi="http://sodipodi.sourceforge.net/DTD/sodipodi-0.dtd"
   xmlns="http://www.w3.org/2000/svg"
   xmlns:svg="http://www.w3.org/2000/svg">
  <sodipodi:namedview
     id="namedview1"
     pagecolor="#ffffff"
     bordercolor="#000000"
     borderopacity="0.25"
     inkscape:showpageshadow="2"
     inkscape:pageopacity="0.0"
     inkscape:pagecheckerboard="0"
     inkscape:deskcolor="#d1d1d1"
     inkscape:document-units="mm"
     inkscape:zoom="0.80444024"
     inkscape:cx="397.17059"
     inkscape:cy="362.36377"
     inkscape:window-width="1920"
     inkscape:window-height="1052"
     inkscape:window-x="0"
     inkscape:window-y="28"
     inkscape:window-maximized="0"
     inkscape:current-layer="layer1" />
  <defs
     id="defs1" />
  <g
     inkscape:label="Layer 1"
     inkscape:groupmode="layer"
     id="layer1">
    <g
       id="g377"
       style="clip-rule:evenodd;fill-rule:evenodd;image-rendering:optimizeQuality;shape-rendering:geometricPrecision;text-rendering:geometricPrecision"
       transform="matrix(0.32587512,0,0,0.32587512,-232.63538,-133.38451)">
      <path
         style="opacity:1"
         fill="#8f2f2d"
         d="m 851.5,472.5 c -3.327,-4.926 -6.66,-9.926 -10,-15 -4.123,-3.285 -8.123,-6.785 -12,-10.5 -12.406,-3.709 -21.573,0.124 -27.5,11.5 -1.147,3.118 -2.48,6.118 -4,9 -2.219,14.347 -0.219,28.013 6,41 4.923,5.534 9.756,10.868 14.5,16 -2.283,-0.108 -4.283,-0.941 -6,-2.5 -4.298,-4.45 -7.965,-9.283 -11,-14.5 -5.16,-12.451 -7.16,-25.451 -6,-39 2.036,-7.884 6.036,-14.717 12,-20.5 10.446,-6.445 20.446,-5.778 30,2 7.105,6.057 11.772,13.557 14,22.5 z"
         id="path377" />
    </g>
    <g
       id="g378"
       style="clip-rule:evenodd;fill-rule:evenodd;image-rendering:optimizeQuality;shape-rendering:geometricPrecision;text-rendering:geometricPrecision"
       transform="matrix(0.32587512,0,0,0.32587512,-232.63538,-133.38451)">
      <path
         style="opacity:1"
         fill="#a71f1c"
         d="m 851.5,472.5 c 1.303,12.601 0.803,24.934 -1.5,37 -1.369,3.095 -3.535,5.429 -6.5,7 4.78,-7.545 6.78,-15.878 6,-25 0.604,-15.367 -4.729,-28.2 -16,-38.5 -11.716,-7.515 -21.216,-5.348 -28.5,6.5 -5.31,12.315 -5.977,24.981 -2,38 3.165,11.171 9.999,19.338 20.5,24.5 5.514,0.93 10.848,0.43 16,-1.5 -1,1.333 -2,2.667 -3,4 -5.575,0.952 -11.241,1.286 -17,1 -0.667,0 -1,-0.333 -1,-1 -4.744,-5.132 -9.577,-10.466 -14.5,-16 -6.219,-12.987 -8.219,-26.653 -6,-41 1.52,-2.882 2.853,-5.882 4,-9 5.927,-11.376 15.094,-15.209 27.5,-11.5 3.877,3.715 7.877,7.215 12,10.5 3.34,5.074 6.673,10.074 10,15 z"
         id="path378" />
    </g>
    <g
       id="g394"
       style="clip-rule:evenodd;fill-rule:evenodd;image-rendering:optimizeQuality;shape-rendering:geometricPrecision;text-rendering:geometricPrecision"
       transform="matrix(0.32587512,0,0,0.32587512,-232.63538,-133.38451)">
      <path
         style="opacity:1"
         fill="#a71d1a"
         d="m 922.5,498.5 c 0.157,1.373 -0.01,2.707 -0.5,4 -3.611,5.491 -6.777,11.157 -9.5,17 -4.269,2.135 -8.603,4.301 -13,6.5 -3.317,0.498 -6.65,0.665 -10,0.5 -1.935,-0.65 -3.935,-0.983 -6,-1 -2.609,-0.943 -4.609,-2.61 -6,-5 -0.628,-2.59 -1.795,-4.923 -3.5,-7 -2.896,-12.924 -3.229,-25.924 -1,-39 1.846,-8.852 6.512,-15.852 14,-21 1.009,-1.525 1.509,-3.192 1.5,-5 13.802,-4.096 24.969,-0.429 33.5,11 1.807,12.98 1.974,25.98 0.5,39 z"
         id="path394" />
    </g>
    <g
       id="g396"
       style="clip-rule:evenodd;fill-rule:evenodd;image-rendering:optimizeQuality;shape-rendering:geometricPrecision;text-rendering:geometricPrecision"
       transform="matrix(0.32587512,0,0,0.32587512,-232.63538,-133.38451)">
      <path
         style="opacity:1"
         fill="#8f3633"
         d="m 924.5,461.5 c 1.233,3.506 2.233,7.173 3,11 0.386,8.119 -0.281,16.119 -2,24 -2.547,7.426 -5.881,14.426 -10,21 -1,0.667 -2,1.333 -3,2 2.723,-5.843 5.889,-11.509 9.5,-17 0.49,-1.293 0.657,-2.627 0.5,-4 1.511,-1.976 2.344,-4.309 2.5,-7 0.447,-10.008 0.28,-20.008 -0.5,-30 z"
         id="path396" />
    </g>
    <g
       id="g407"
       style="clip-rule:evenodd;fill-rule:evenodd;image-rendering:optimizeQuality;shape-rendering:geometricPrecision;text-rendering:geometricPrecision"
       transform="matrix(0.32587512,0,0,0.32587512,-232.63538,-133.38451)">
      <path
         style="opacity:1"
         fill="#992221"
         d="m 851.5,472.5 c 1.602,3.739 2.602,7.739 3,12 0.183,7.368 -0.15,14.701 -1,22 -1.141,2.754 -2.475,5.421 -4,8 -2.429,0.765 -3.762,2.431 -4,5 -2.968,0.126 -4.968,1.626 -6,4.5 -0.948,0.483 -1.948,0.649 -3,0.5 1,-1.333 2,-2.667 3,-4 1.333,-1.333 2.667,-2.667 4,-4 2.965,-1.571 5.131,-3.905 6.5,-7 2.303,-12.066 2.803,-24.399 1.5,-37 z"
         id="path407" />
    </g>
    <g
       id="g408"
       style="clip-rule:evenodd;fill-rule:evenodd;image-rendering:optimizeQuality;shape-rendering:geometricPrecision;text-rendering:geometricPrecision"
       transform="matrix(0.32587512,0,0,0.32587512,-232.63538,-133.38451)">
      <path
         style="opacity:1"
         fill="#f7e1de"
         d="m 795.5,468.5 c -1.16,13.549 0.84,26.549 6,39 -3.847,-2.692 -6.347,-6.359 -7.5,-11 -0.636,-5.199 -1.136,-10.199 -1.5,-15 1.361,-4.376 2.361,-8.709 3,-13 z"
         id="path408" />
    </g>
    <g
       id="g409"
       style="clip-rule:evenodd;fill-rule:evenodd;image-rendering:optimizeQuality;shape-rendering:geometricPrecision;text-rendering:geometricPrecision"
       transform="matrix(0.32587512,0,0,0.32587512,-232.63538,-133.38451)">
      <path
         style="opacity:1"
         fill="#f0c6c5"
         d="m 927.5,472.5 c 1.153,5.819 1.319,11.819 0.5,18 -0.566,2.223 -1.4,4.223 -2.5,6 1.719,-7.881 2.386,-15.881 2,-24 z"
         id="path409" />
    </g>
    <g
       id="g415"
       style="clip-rule:evenodd;fill-rule:evenodd;image-rendering:optimizeQuality;shape-rendering:geometricPrecision;text-rendering:geometricPrecision"
       transform="matrix(0.32587512,0,0,0.32587512,-232.63538,-133.38451)">
      <path
         style="opacity:1"
         fill="#d59392"
         d="m 854.5,484.5 c 1.154,6.487 1.321,13.154 0.5,20 -0.278,0.916 -0.778,1.582 -1.5,2 0.85,-7.299 1.183,-14.632 1,-22 z"
         id="path415" />
    </g>
    <g
       id="g416"
       style="clip-rule:evenodd;fill-rule:evenodd;image-rendering:optimizeQuality;shape-rendering:geometricPrecision;text-rendering:geometricPrecision"
       transform="matrix(0.32587512,0,0,0.32587512,-232.63538,-133.38451)">
      <path
         style="opacity:1"
         fill="#942b29"
         d="m 924.5,461.5 c 0.78,9.992 0.947,19.992 0.5,30 -0.156,2.691 -0.989,5.024 -2.5,7 1.474,-13.02 1.307,-26.02 -0.5,-39 -8.531,-11.429 -19.698,-15.096 -33.5,-11 0.009,1.808 -0.491,3.475 -1.5,5 -7.488,5.148 -12.154,12.148 -14,21 -2.229,13.076 -1.896,26.076 1,39 1.705,2.077 2.872,4.41 3.5,7 -2.889,-2.756 -5.056,-6.089 -6.5,-10 -7.161,-24.201 -1.661,-45.034 16.5,-62.5 17.101,-8.446 29.434,-3.946 37,13.5 z"
         id="path416" />
    </g>
    <g
       id="g417"
       style="clip-rule:evenodd;fill-rule:evenodd;image-rendering:optimizeQuality;shape-rendering:geometricPrecision;text-rendering:geometricPrecision"
       transform="matrix(0.32587512,0,0,0.32587512,-232.63538,-133.38451)">
      <path
         style="opacity:1"
         fill="#d63930"
         d="m 888.5,455.5 c 6.981,-7.551 14.981,-8.718 24,-3.5 5.647,5.263 8.813,11.763 9.5,19.5 1.646,13.084 -0.688,25.417 -7,37 -5.26,8.438 -12.76,13.438 -22.5,15 -6.414,-0.963 -11.247,-4.296 -14.5,-10 -1.333,-2.667 -2.667,-5.333 -4,-8 -2.393,-15.192 -0.06,-29.526 7,-43 2.09,-2.928 4.59,-5.261 7.5,-7 z"
         id="path417" />
    </g>
    <g
       id="g418"
       style="clip-rule:evenodd;fill-rule:evenodd;image-rendering:optimizeQuality;shape-rendering:geometricPrecision;text-rendering:geometricPrecision"
       transform="matrix(0.32587512,0,0,0.32587512,-232.63538,-133.38451)">
      <path
         style="opacity:1"
         fill="#d9372b"
         d="m 888.5,455.5 c 1.866,-0.514 3.7,-1.18 5.5,-2 1.808,1.19 3.641,1.19 5.5,0 1.604,0.439 3.104,1.106 4.5,2 2.196,-1.252 4.196,-0.919 6,1 0.333,-0.333 0.667,-0.667 1,-1 1.529,1.229 2.696,2.729 3.5,4.5 -0.667,0.333 -1.333,0.667 -2,1 1.141,0.741 1.141,1.575 0,2.5 4.266,1.343 3.933,3.01 -1,5 0.876,0.751 1.876,1.251 3,1.5 -0.667,0.333 -1.333,0.667 -2,1 1,1 2,2 3,3 -1.167,1.167 -2.333,2.333 -3.5,3.5 -0.333,-0.667 -0.667,-1.333 -1,-2 0.38,2.953 0.38,5.953 0,9 0.249,-1.124 0.749,-2.124 1.5,-3 1.667,0 3.333,0 5,0 0.692,-0.525 1.192,-1.192 1.5,-2 1.852,1.73 1.686,2.896 -0.5,3.5 0.807,2.6 0.14,4.934 -2,7 0.667,0.667 1.333,1.333 2,2 -1.693,2.113 -3.359,3.447 -5,4 1.603,1.907 1.27,3.407 -1,4.5 0.209,0.586 0.543,1.086 1,1.5 -0.571,2.611 -1.404,5.111 -2.5,7.5 -0.388,-0.928 -1.055,-1.595 -2,-2 -1.15,0.924 -2.15,0.924 -3,0 -0.5,1.167 -1.333,2 -2.5,2.5 0.691,1.067 1.191,2.234 1.5,3.5 0.71,-1.473 1.876,-2.14 3.5,-2 0.149,1.052 -0.017,2.052 -0.5,3 -2.172,1.085 -4.172,2.419 -6,4 0,-1.333 0,-2.667 0,-4 -1.017,1.876 -1.851,3.876 -2.5,6 -1.499,-2.302 -2.832,-1.969 -4,1 -1.211,-0.774 -1.211,-1.607 0,-2.5 -1.882,-4.061 -3.216,-4.394 -4,-1 -0.948,0.483 -1.948,0.649 -3,0.5 0.238,-3.599 -0.762,-3.933 -3,-1 -1.104,-1.131 -0.771,-1.965 1,-2.5 -0.333,-0.333 -0.667,-0.667 -1,-1 2.584,-1.994 2.418,-2.494 -0.5,-1.5 -1.261,-0.259 -2.261,-0.926 -3,-2 -1.016,1.134 -1.683,0.801 -2,-1 -0.333,0.333 -0.667,0.667 -1,1 -3.439,-3.075 -3.939,-6.408 -1.5,-10 -1.141,-0.925 -1.141,-1.759 0,-2.5 -0.667,-0.333 -1.333,-0.667 -2,-1 0.522,-2.481 0.522,-4.814 0,-7 1.595,0.617 2.928,0.284 4,-1 -0.723,-2.112 -1.723,-4.112 -3,-6 0.405,-0.945 1.072,-1.612 2,-2 -1.363,-2.129 -1.029,-2.629 1,-1.5 1.921,-1.969 1.921,-3.469 0,-4.5 1.333,-0.667 1.333,-1.333 0,-2 1.124,-0.249 2.124,-0.749 3,-1.5 -0.826,-0.951 -0.992,-1.951 -0.5,-3 1.351,-1.519 2.851,-2.852 4.5,-4 -1.391,0.391 -2.391,-0.442 -3,-2.5 2.559,-1.508 4.226,-3.675 5,-6.5 z"
         id="path418" />
    </g>
    <g
       id="g419"
       style="clip-rule:evenodd;fill-rule:evenodd;image-rendering:optimizeQuality;shape-rendering:geometricPrecision;text-rendering:geometricPrecision"
       transform="matrix(0.32587512,0,0,0.32587512,-232.63538,-133.38451)">
      <path
         style="opacity:1"
         fill="#9d524f"
         d="m 955.5,508.5 c -3.35,-0.165 -6.683,0.002 -10,0.5 -0.916,0.278 -1.582,0.778 -2,1.5 -1.333,0 -2.667,0 -4,0 1.1,-1.058 2.434,-1.892 4,-2.5 4.189,-0.812 8.189,-0.645 12,0.5 z"
         id="path419" />
    </g>
    <g
       id="g420"
       style="clip-rule:evenodd;fill-rule:evenodd;image-rendering:optimizeQuality;shape-rendering:geometricPrecision;text-rendering:geometricPrecision"
       transform="matrix(0.32587512,0,0,0.32587512,-232.63538,-133.38451)">
      <path
         style="opacity:1"
         fill="#a81e1c"
         d="m 793.5,518.5 c 4.805,8.187 8.972,16.854 12.5,26 0.731,7.702 0.564,15.369 -0.5,23 -1.101,1.348 -2.101,2.848 -3,4.5 -4.093,2.145 -8.093,4.479 -12,7 -6.219,0.423 -12.219,-0.577 -18,-3 -0.881,-0.708 -1.547,-1.542 -2,-2.5 -0.734,-1.208 -1.067,-2.541 -1,-4 6.246,6.662 13.913,8.829 23,6.5 5.415,-3.074 8.915,-7.574 10.5,-13.5 2.574,-17.956 -2.926,-32.79 -16.5,-44.5 -7.611,-4.911 -15.611,-5.745 -24,-2.5 0.408,-1.143 1.075,-2.143 2,-3 2.476,-0.729 4.976,-1.396 7.5,-2 7.58,1.713 14.747,4.38 21.5,8 z"
         id="path420" />
    </g>
    <g
       id="g423"
       style="clip-rule:evenodd;fill-rule:evenodd;image-rendering:optimizeQuality;shape-rendering:geometricPrecision;text-rendering:geometricPrecision"
       transform="matrix(0.32587512,0,0,0.32587512,-232.63538,-133.38451)">
      <path
         style="opacity:1"
         fill="#d73931"
         d="m 843.5,516.5 c -1.333,1.333 -2.667,2.667 -4,4 -5.152,1.93 -10.486,2.43 -16,1.5 -10.501,-5.162 -17.335,-13.329 -20.5,-24.5 -3.977,-13.019 -3.31,-25.685 2,-38 7.284,-11.848 16.784,-14.015 28.5,-6.5 11.271,10.3 16.604,23.133 16,38.5 0.78,9.122 -1.22,17.455 -6,25 z"
         id="path423" />
    </g>
    <g
       id="g424"
       style="clip-rule:evenodd;fill-rule:evenodd;image-rendering:optimizeQuality;shape-rendering:geometricPrecision;text-rendering:geometricPrecision"
       transform="matrix(0.32587512,0,0,0.32587512,-232.63538,-133.38451)">
      <path
         style="opacity:1"
         fill="#d9372c"
         d="m 816.5,450.5 c 1.613,0.444 2.78,1.444 3.5,3 2.667,-2.667 5.333,-2.667 8,0 1.147,-0.958 2.147,-0.625 3,1 2.151,1.088 4.318,2.922 6.5,5.5 -0.333,0.333 -0.667,0.667 -1,1 1.452,2.928 3.452,5.928 6,9 -0.333,0.833 -0.667,1.667 -1,2.5 -1.135,0.603 -2.135,0.936 -3,1 1.556,2.201 2.723,2.201 3.5,0 0.333,1 0.667,2 1,3 0.333,-0.333 0.667,-0.667 1,-1 2.534,1.985 3.034,4.319 1.5,7 0.167,1 0.333,2 0.5,3 0.654,-1.196 1.154,-1.196 1.5,0 0.049,5.494 -0.117,11.161 -0.5,17 -2.092,2.873 -3.092,6.207 -3,10 -1.033,2.533 -2.867,4.199 -5.5,5 -0.333,-0.667 -0.667,-1.333 -1,-2 -1.849,1.093 -3.516,2.426 -5,4 -1.667,-1.333 -3.333,-1.333 -5,0 -2.633,-0.801 -4.467,-2.467 -5.5,-5 -0.388,0.928 -1.055,1.595 -2,2 -1.893,-0.696 -3.726,-1.53 -5.5,-2.5 -1.294,-2.09 -2.294,-4.09 -3,-6 1.333,-1.84 1.166,-2.34 -0.5,-1.5 -1.756,-1.559 -1.756,-3.226 0,-5 0.667,-1.333 1.333,-1.333 2,0 0.645,-1.146 1.478,-2.146 2.5,-3 -0.774,-1.211 -1.607,-1.211 -2.5,0 -0.333,-0.667 -0.667,-1.333 -1,-2 -0.26,2.118 -1.26,3.784 -3,5 -0.507,-1.496 -0.007,-2.663 1.5,-3.5 -1.341,-1.295 -2.674,-1.795 -4,-1.5 2.24,-1.422 4.24,-2.422 6,-3 -0.284,-4.572 -2.284,-8.572 -6,-12 0.774,-1.211 1.607,-1.211 2.5,0 2.023,-1.513 1.856,-2.846 -0.5,-4 0.333,-0.667 0.667,-1.333 1,-2 -2.763,-2.785 -3.096,-5.618 -1,-8.5 -2.582,-2.784 -2.249,-4.284 1,-4.5 -0.876,-0.751 -1.876,-1.251 -3,-1.5 1.393,-1.171 2.227,-2.671 2.5,-4.5 3.011,-1.527 5.511,-3.527 7.5,-6 z"
         id="path424" />
    </g>
    <g
       id="g425"
       style="clip-rule:evenodd;fill-rule:evenodd;image-rendering:optimizeQuality;shape-rendering:geometricPrecision;text-rendering:geometricPrecision"
       transform="matrix(0.32587512,0,0,0.32587512,-232.63538,-133.38451)">
      <path
         style="opacity:1"
         fill="#902726"
         d="m 939.5,510.5 c 1.333,0 2.667,0 4,0 -1.135,0.974 -2.135,2.141 -3,3.5 -4.575,2.758 -9.242,5.258 -14,7.5 3.448,-4.787 7.781,-8.454 13,-11 z"
         id="path425" />
    </g>
    <g
       id="g426"
       style="clip-rule:evenodd;fill-rule:evenodd;image-rendering:optimizeQuality;shape-rendering:geometricPrecision;text-rendering:geometricPrecision"
       transform="matrix(0.32587512,0,0,0.32587512,-232.63538,-133.38451)">
      <path
         style="opacity:1"
         fill="#eac1c0"
         d="m 967.5,515.5 c 3.503,2.681 5.17,6.348 5,11 -1.457,-3.678 -3.123,-7.345 -5,-11 z"
         id="path426" />
    </g>
    <g
       id="g429"
       style="clip-rule:evenodd;fill-rule:evenodd;image-rendering:optimizeQuality;shape-rendering:geometricPrecision;text-rendering:geometricPrecision"
       transform="matrix(0.32587512,0,0,0.32587512,-232.63538,-133.38451)">
      <path
         style="opacity:1"
         fill="#d8382d"
         d="m 769.5,569.5 c -11.054,-11.801 -15.554,-25.801 -13.5,-42 0.875,-4.752 3.041,-8.752 6.5,-12 8.389,-3.245 16.389,-2.411 24,2.5 13.574,11.71 19.074,26.544 16.5,44.5 -1.585,5.926 -5.085,10.426 -10.5,13.5 -9.087,2.329 -16.754,0.162 -23,-6.5 z"
         id="path429" />
    </g>
    <g
       id="g432"
       style="clip-rule:evenodd;fill-rule:evenodd;image-rendering:optimizeQuality;shape-rendering:geometricPrecision;text-rendering:geometricPrecision"
       transform="matrix(0.32587512,0,0,0.32587512,-232.63538,-133.38451)">
      <path
         style="opacity:1"
         fill="#902c2b"
         d="m 793.5,518.5 c 8.117,7.563 13.117,16.896 15,28 0.166,5.344 -10e-4,10.677 -0.5,16 -0.374,1.991 -1.207,3.658 -2.5,5 1.064,-7.631 1.231,-15.298 0.5,-23 -3.528,-9.146 -7.695,-17.813 -12.5,-26 z"
         id="path432" />
    </g>
    <g
       id="g433"
       style="clip-rule:evenodd;fill-rule:evenodd;image-rendering:optimizeQuality;shape-rendering:geometricPrecision;text-rendering:geometricPrecision"
       transform="matrix(0.32587512,0,0,0.32587512,-232.63538,-133.38451)">
      <path
         style="opacity:1"
         fill="#f5dcdb"
         d="m 915.5,517.5 c -1.61,5.437 -5.276,8.604 -11,9.5 -2.764,2.644 -6.098,3.811 -10,3.5 -1.667,-0.167 -3.333,-0.333 -5,-0.5 -0.556,-0.383 -0.889,-0.883 -1,-1.5 3.871,0.315 7.538,-0.018 11,-1 5.174,-1.415 9.507,-4.081 13,-8 1,-0.667 2,-1.333 3,-2 z"
         id="path433" />
    </g>
    <g
       id="g436"
       style="clip-rule:evenodd;fill-rule:evenodd;image-rendering:optimizeQuality;shape-rendering:geometricPrecision;text-rendering:geometricPrecision"
       transform="matrix(0.32587512,0,0,0.32587512,-232.63538,-133.38451)">
      <path
         style="opacity:1"
         fill="#973531"
         d="m 849.5,514.5 c -4.048,8.872 -11.048,13.539 -21,14 -3.426,-0.031 -6.426,-1.031 -9,-3 5.759,0.286 11.425,-0.048 17,-1 1.052,0.149 2.052,-0.017 3,-0.5 1.032,-2.874 3.032,-4.374 6,-4.5 0.238,-2.569 1.571,-4.235 4,-5 z"
         id="path436" />
    </g>
    <g
       id="g437"
       style="clip-rule:evenodd;fill-rule:evenodd;image-rendering:optimizeQuality;shape-rendering:geometricPrecision;text-rendering:geometricPrecision"
       transform="matrix(0.32587512,0,0,0.32587512,-232.63538,-133.38451)">
      <path
         style="opacity:1"
         fill="#872928"
         d="m 912.5,519.5 c -3.493,3.919 -7.826,6.585 -13,8 -3.542,0.313 -6.875,-0.021 -10,-1 3.35,0.165 6.683,-0.002 10,-0.5 4.397,-2.199 8.731,-4.365 13,-6.5 z"
         id="path437" />
    </g>
    <g
       id="g439"
       style="clip-rule:evenodd;fill-rule:evenodd;image-rendering:optimizeQuality;shape-rendering:geometricPrecision;text-rendering:geometricPrecision"
       transform="matrix(0.32587512,0,0,0.32587512,-232.63538,-133.38451)">
      <path
         style="opacity:1"
         fill="#af6664"
         d="m 883.5,525.5 c 2.065,0.017 4.065,0.35 6,1 3.125,0.979 6.458,1.313 10,1 -3.462,0.982 -7.129,1.315 -11,1 -1.761,-0.813 -3.428,-1.813 -5,-3 z"
         id="path439" />
    </g>
    <g
       id="g440"
       style="clip-rule:evenodd;fill-rule:evenodd;image-rendering:optimizeQuality;shape-rendering:geometricPrecision;text-rendering:geometricPrecision"
       transform="matrix(0.32587512,0,0,0.32587512,-232.63538,-133.38451)">
      <path
         style="opacity:1"
         fill="#f5d6d3"
         d="m 924.5,522.5 c -3.207,5.748 -5.874,11.748 -8,18 -0.333,0 -0.667,0 -1,0 0.673,-4.51 1.839,-8.843 3.5,-13 1.53,-1.726 2.53,-3.726 3,-6 0.671,0.752 1.504,1.086 2.5,1 z"
         id="path440" />
    </g>
    <g
       id="g461"
       style="clip-rule:evenodd;fill-rule:evenodd;image-rendering:optimizeQuality;shape-rendering:geometricPrecision;text-rendering:geometricPrecision"
       transform="matrix(0.32587512,0,0,0.32587512,-232.63538,-133.38451)">
      <path
         style="opacity:1"
         fill="#f0cecc"
         d="m 753.5,519.5 c -4.145,11.813 -3.812,23.479 1,35 0.713,3.094 1.713,6.094 3,9 -1.693,-0.975 -3.193,-2.308 -4.5,-4 -1.264,-5.967 -2.597,-11.967 -4,-18 -0.982,-7.219 -0.149,-14.219 2.5,-21 0.683,-0.363 1.35,-0.696 2,-1 z"
         id="path461" />
    </g>
    <g
       id="g462"
       style="clip-rule:evenodd;fill-rule:evenodd;image-rendering:optimizeQuality;shape-rendering:geometricPrecision;text-rendering:geometricPrecision"
       transform="matrix(0.32587512,0,0,0.32587512,-232.63538,-133.38451)">
      <path
         style="opacity:1"
         fill="#882928"
         d="m 926.5,521.5 c -1.354,5.859 -3.854,11.192 -7.5,16 -2.737,9.251 -3.071,18.584 -1,28 1.655,3.803 3.489,7.47 5.5,11 -4.744,-4.194 -7.411,-9.527 -8,-16 -0.164,-6.702 0.169,-13.369 1,-20 2.126,-6.252 4.793,-12.252 8,-18 0.667,-0.333 1.333,-0.667 2,-1 z"
         id="path462" />
    </g>
    <g
       id="g469"
       style="clip-rule:evenodd;fill-rule:evenodd;image-rendering:optimizeQuality;shape-rendering:geometricPrecision;text-rendering:geometricPrecision"
       transform="matrix(0.32587512,0,0,0.32587512,-232.63538,-133.38451)">
      <path
         style="opacity:1"
         fill="#a51e1b"
         d="m 943.5,510.5 c 9.126,-1.62 16.626,1.046 22.5,8 0.483,3.967 1.816,7.634 4,11 0.769,6.434 0.269,12.767 -1.5,19 -0.683,0.363 -1.35,0.696 -2,1 -0.881,6.477 -3.047,12.477 -6.5,18 -1.154,1.243 -2.488,2.243 -4,3 -0.483,0.948 -0.649,1.948 -0.5,3 -10.12,6.42 -20.786,7.42 -32,3 -2.011,-3.53 -3.845,-7.197 -5.5,-11 -2.071,-9.416 -1.737,-18.749 1,-28 3.646,-4.808 6.146,-10.141 7.5,-16 4.758,-2.242 9.425,-4.742 14,-7.5 0.865,-1.359 1.865,-2.526 3,-3.5 z"
         id="path469" />
    </g>
    <g
       id="g470"
       style="clip-rule:evenodd;fill-rule:evenodd;image-rendering:optimizeQuality;shape-rendering:geometricPrecision;text-rendering:geometricPrecision"
       transform="matrix(0.32587512,0,0,0.32587512,-232.63538,-133.38451)">
      <path
         style="opacity:1"
         fill="#d8372c"
         d="m 966.5,549.5 c -3.649,9.758 -9.649,17.925 -18,24.5 -14.07,7.543 -23.237,3.709 -27.5,-11.5 -2.838,-19.202 3.329,-34.702 18.5,-46.5 15.266,-6.764 24.766,-1.931 28.5,14.5 0.768,6.448 0.268,12.781 -1.5,19 z"
         id="path470" />
    </g>
    <g
       id="g473"
       style="clip-rule:evenodd;fill-rule:evenodd;image-rendering:optimizeQuality;shape-rendering:geometricPrecision;text-rendering:geometricPrecision"
       transform="matrix(0.32587512,0,0,0.32587512,-232.63538,-133.38451)">
      <path
         style="opacity:1"
         fill="#9e5554"
         d="m 972.5,527.5 c 0.934,1.068 1.268,2.401 1,4 0.198,5.25 -0.469,10.25 -2,15 0.4,-6.329 0.733,-12.662 1,-19 z"
         id="path473" />
    </g>
    <g
       id="g474"
       style="clip-rule:evenodd;fill-rule:evenodd;image-rendering:optimizeQuality;shape-rendering:geometricPrecision;text-rendering:geometricPrecision"
       transform="matrix(0.32587512,0,0,0.32587512,-232.63538,-133.38451)">
      <path
         style="opacity:1"
         fill="#f0cac7"
         d="m 856.5,540.5 c 7.293,-1.377 14.626,-0.877 22,1.5 1.692,1.307 3.025,2.807 4,4.5 -1.333,-0.333 -2.667,-0.667 -4,-1 -6.59,-4.398 -13.923,-6.065 -22,-5 z"
         id="path474" />
    </g>
    <g
       id="g478"
       style="clip-rule:evenodd;fill-rule:evenodd;image-rendering:optimizeQuality;shape-rendering:geometricPrecision;text-rendering:geometricPrecision"
       transform="matrix(0.32587512,0,0,0.32587512,-232.63538,-133.38451)">
      <path
         style="opacity:1"
         fill="#8b322e"
         d="m 856.5,540.5 c 8.077,-1.065 15.41,0.602 22,5 -5.402,-1.523 -10.902,-2.523 -16.5,-3 -6.238,0.602 -12.404,1.602 -18.5,3 4.039,-2.238 8.372,-3.905 13,-5 z"
         id="path478" />
    </g>
    <g
       id="g480"
       style="clip-rule:evenodd;fill-rule:evenodd;image-rendering:optimizeQuality;shape-rendering:geometricPrecision;text-rendering:geometricPrecision"
       transform="matrix(0.32587512,0,0,0.32587512,-232.63538,-133.38451)">
      <path
         style="opacity:1"
         fill="#962523"
         d="m 878.5,545.5 c 1.333,0.333 2.667,0.667 4,1 5.749,4.414 10.416,9.747 14,16 0.42,3.507 1.42,6.841 3,10 -3.24,-1.613 -4.74,-4.28 -4.5,-8 -3.043,-3.694 -5.877,-7.528 -8.5,-11.5 -3.684,-4.258 -8.351,-6.091 -14,-5.5 -19.214,-6.977 -33.381,-1.31 -42.5,17 -3.407,2.245 -6.24,4.912 -8.5,8 3.797,-11.952 11.13,-20.952 22,-27 6.096,-1.398 12.262,-2.398 18.5,-3 5.598,0.477 11.098,1.477 16.5,3 z"
         id="path480" />
    </g>
    <g
       id="g481"
       style="clip-rule:evenodd;fill-rule:evenodd;image-rendering:optimizeQuality;shape-rendering:geometricPrecision;text-rendering:geometricPrecision"
       transform="matrix(0.32587512,0,0,0.32587512,-232.63538,-133.38451)">
      <path
         style="opacity:1"
         fill="#8f312e"
         d="m 779.5,509.5 c -14.29,-2.644 -23.124,3.022 -26.5,17 -0.846,9.433 -0.346,18.767 1.5,28 -4.812,-11.521 -5.145,-23.187 -1,-35 5.91,-10.963 14.577,-14.296 26,-10 z"
         id="path481" />
    </g>
    <g
       id="g487"
       style="clip-rule:evenodd;fill-rule:evenodd;image-rendering:optimizeQuality;shape-rendering:geometricPrecision;text-rendering:geometricPrecision"
       transform="matrix(0.32587512,0,0,0.32587512,-232.63538,-133.38451)">
      <path
         style="opacity:1"
         fill="#eec8c7"
         d="m 973.5,531.5 c 1.12,8.038 0.287,16.038 -2.5,24 -0.708,0.881 -1.542,1.547 -2.5,2 1.203,-3.61 2.203,-7.277 3,-11 1.531,-4.75 2.198,-9.75 2,-15 z"
         id="path487" />
    </g>
    <g
       id="g493"
       style="clip-rule:evenodd;fill-rule:evenodd;image-rendering:optimizeQuality;shape-rendering:geometricPrecision;text-rendering:geometricPrecision"
       transform="matrix(0.32587512,0,0,0.32587512,-232.63538,-133.38451)">
      <path
         style="opacity:1"
         fill="#c68684"
         d="m 915.5,540.5 c 0.333,0 0.667,0 1,0 -0.831,6.631 -1.164,13.298 -1,20 -1.232,-6.524 -1.232,-13.191 0,-20 z"
         id="path493" />
    </g>
    <g
       id="g503"
       style="clip-rule:evenodd;fill-rule:evenodd;image-rendering:optimizeQuality;shape-rendering:geometricPrecision;text-rendering:geometricPrecision"
       transform="matrix(0.32587512,0,0,0.32587512,-232.63538,-133.38451)">
      <path
         style="opacity:1"
         fill="#f0d1cf"
         d="m 808.5,546.5 c 2.655,9.473 1.822,18.806 -2.5,28 -2.642,2.068 -5.475,3.735 -8.5,5 2.034,-2.439 4.201,-4.772 6.5,-7 1.009,-1.525 1.509,-3.192 1.5,-5 1.293,-1.342 2.126,-3.009 2.5,-5 0.499,-5.323 0.666,-10.656 0.5,-16 z"
         id="path503" />
    </g>
    <g
       id="g507"
       style="clip-rule:evenodd;fill-rule:evenodd;image-rendering:optimizeQuality;shape-rendering:geometricPrecision;text-rendering:geometricPrecision"
       transform="matrix(0.32587512,0,0,0.32587512,-232.63538,-133.38451)">
      <path
         style="opacity:1"
         fill="#9e211f"
         d="m 779.5,509.5 c 5.718,1.389 10.385,4.389 14,9 -6.753,-3.62 -13.92,-6.287 -21.5,-8 -2.524,0.604 -5.024,1.271 -7.5,2 -0.925,0.857 -1.592,1.857 -2,3 -3.459,3.248 -5.625,7.248 -6.5,12 -2.054,16.199 2.446,30.199 13.5,42 -0.067,1.459 0.266,2.792 1,4 -1.333,0 -2.667,0 -4,0 -3,-3.333 -6,-6.667 -9,-10 -1.287,-2.906 -2.287,-5.906 -3,-9 -1.846,-9.233 -2.346,-18.567 -1.5,-28 3.376,-13.978 12.21,-19.644 26.5,-17 z"
         id="path507" />
    </g>
    <g
       id="g508"
       style="clip-rule:evenodd;fill-rule:evenodd;image-rendering:optimizeQuality;shape-rendering:geometricPrecision;text-rendering:geometricPrecision"
       transform="matrix(0.32587512,0,0,0.32587512,-232.63538,-133.38451)">
      <path
         style="opacity:1"
         fill="#8e2927"
         d="m 955.5,508.5 c 4.913,0.789 8.913,3.123 12,7 1.877,3.655 3.543,7.322 5,11 0,0.333 0,0.667 0,1 -0.267,6.338 -0.6,12.671 -1,19 -0.797,3.723 -1.797,7.39 -3,11 -4.729,10.564 -12.396,18.397 -23,23.5 -8.062,2.72 -15.395,1.553 -22,-3.5 0,-0.333 0,-0.667 0,-1 11.214,4.42 21.88,3.42 32,-3 -0.149,-1.052 0.017,-2.052 0.5,-3 1.512,-0.757 2.846,-1.757 4,-3 3.453,-5.523 5.619,-11.523 6.5,-18 0.65,-0.304 1.317,-0.637 2,-1 1.769,-6.233 2.269,-12.566 1.5,-19 -2.184,-3.366 -3.517,-7.033 -4,-11 -5.874,-6.954 -13.374,-9.62 -22.5,-8 0.418,-0.722 1.084,-1.222 2,-1.5 3.317,-0.498 6.65,-0.665 10,-0.5 z"
         id="path508" />
    </g>
    <g
       id="g511"
       style="clip-rule:evenodd;fill-rule:evenodd;image-rendering:optimizeQuality;shape-rendering:geometricPrecision;text-rendering:geometricPrecision"
       transform="matrix(0.32587512,0,0,0.32587512,-232.63538,-133.38451)">
      <path
         style="opacity:1"
         fill="#f6e0de"
         d="m 915.5,540.5 c -1.232,6.809 -1.232,13.476 0,20 0.589,6.473 3.256,11.806 8,16 0,0.333 0,0.667 0,1 -1.972,-0.951 -3.972,-1.951 -6,-3 -4.557,-8.813 -6.057,-18.146 -4.5,-28 0.24,-2.352 1.073,-4.352 2.5,-6 z"
         id="path511" />
    </g>
    <g
       id="g517"
       style="clip-rule:evenodd;fill-rule:evenodd;image-rendering:optimizeQuality;shape-rendering:geometricPrecision;text-rendering:geometricPrecision"
       transform="matrix(0.32587512,0,0,0.32587512,-232.63538,-133.38451)">
      <path
         style="opacity:1"
         fill="#8f2826"
         d="m 805.5,567.5 c 0.009,1.808 -0.491,3.475 -1.5,5 -2.299,2.228 -4.466,4.561 -6.5,7 -11.736,5.084 -22.07,3.084 -31,-6 1.333,0 2.667,0 4,0 0.453,0.958 1.119,1.792 2,2.5 5.781,2.423 11.781,3.423 18,3 3.907,-2.521 7.907,-4.855 12,-7 0.899,-1.652 1.899,-3.152 3,-4.5 z"
         id="path517" />
    </g>
    <g
       id="g527"
       style="clip-rule:evenodd;fill-rule:evenodd;image-rendering:optimizeQuality;shape-rendering:geometricPrecision;text-rendering:geometricPrecision"
       transform="matrix(0.32587512,0,0,0.32587512,-232.63538,-133.38451)">
      <path
         style="opacity:1"
         fill="#8f2726"
         d="m 821.5,572.5 c 0.157,1.373 -0.01,2.707 -0.5,4 -3.18,5.17 -7.013,9.67 -11.5,13.5 -6.411,3.387 -12.411,7.221 -18,11.5 3.667,-4.333 7.667,-8.333 12,-12 6.657,-4.991 12.657,-10.657 18,-17 z"
         id="path527" />
    </g>
    <g
       id="g532"
       style="clip-rule:evenodd;fill-rule:evenodd;image-rendering:optimizeQuality;shape-rendering:geometricPrecision;text-rendering:geometricPrecision"
       transform="matrix(0.32587512,0,0,0.32587512,-232.63538,-133.38451)">
      <path
         style="opacity:1"
         fill="#f2d6d4"
         d="m 803.5,589.5 c -4.333,3.667 -8.333,7.667 -12,12 -0.333,0 -0.667,0 -1,0 0.187,-2.064 0.687,-4.064 1.5,-6 0.741,-1.141 1.575,-1.141 2.5,0 1.009,-2.837 3.009,-4.17 6,-4 -0.098,-2.748 0.902,-3.414 3,-2 z"
         id="path532" />
    </g>
    <g
       id="g537"
       style="clip-rule:evenodd;fill-rule:evenodd;image-rendering:optimizeQuality;shape-rendering:geometricPrecision;text-rendering:geometricPrecision"
       transform="matrix(0.32587512,0,0,0.32587512,-232.63538,-133.38451)">
      <path
         style="opacity:1"
         fill="#f4d8d7"
         d="m 931.5,600.5 c 1.59,0.128 2.923,0.795 4,2 1.001,2.673 2.501,5.007 4.5,7 0.497,2.31 0.663,4.643 0.5,7 -1.943,-5.882 -4.943,-11.215 -9,-16 z"
         id="path537" />
    </g>
    <g
       id="g540"
       style="clip-rule:evenodd;fill-rule:evenodd;image-rendering:optimizeQuality;shape-rendering:geometricPrecision;text-rendering:geometricPrecision"
       transform="matrix(0.32587512,0,0,0.32587512,-232.63538,-133.38451)">
      <path
         style="opacity:1"
         fill="#8d312e"
         d="m 896.5,562.5 c 2.543,4.737 5.377,9.403 8.5,14 8.73,8.235 17.563,16.235 26.5,24 4.057,4.785 7.057,10.118 9,16 0.948,9.771 -0.385,19.104 -4,28 -3.305,3.641 -6.638,7.308 -10,11 -9.601,5.77 -19.934,7.436 -31,5 -0.667,0 -1.333,0 -2,0 -1,-0.667 -2,-1.333 -3,-2 7.663,0.654 15.33,0.821 23,0.5 22.45,-8.805 30.117,-24.971 23,-48.5 -1,0 -2,0 -3,0 -0.338,-2.354 -0.838,-4.687 -1.5,-7 -4.611,-5.46 -10.111,-9.627 -16.5,-12.5 -0.96,-1.419 -1.793,-2.919 -2.5,-4.5 -4.731,-4.562 -9.231,-9.229 -13.5,-14 -1.58,-3.159 -2.58,-6.493 -3,-10 z"
         id="path540" />
    </g>
    <g
       id="g549"
       style="clip-rule:evenodd;fill-rule:evenodd;image-rendering:optimizeQuality;shape-rendering:geometricPrecision;text-rendering:geometricPrecision"
       transform="matrix(0.32587512,0,0,0.32587512,-232.63538,-133.38451)">
      <path
         style="opacity:1"
         fill="#90302e"
         d="m 790.5,601.5 c 0.333,0 0.667,0 1,0 -2.242,7.748 -4.575,15.415 -7,23 0.323,5.095 1.156,10.095 2.5,15 2.939,4.897 6.106,9.564 9.5,14 -0.739,0.131 -1.406,-0.036 -2,-0.5 -2.198,-3.023 -4.531,-5.856 -7,-8.5 -2.8,-6.229 -4.467,-12.729 -5,-19.5 -0.299,-5.969 1.034,-11.469 4,-16.5 1.306,-2.316 2.639,-4.65 4,-7 z"
         id="path549" />
    </g>
    <g
       id="g551"
       style="clip-rule:evenodd;fill-rule:evenodd;image-rendering:optimizeQuality;shape-rendering:geometricPrecision;text-rendering:geometricPrecision"
       transform="matrix(0.32587512,0,0,0.32587512,-232.63538,-133.38451)">
      <path
         style="opacity:1"
         fill="#f2d1cf"
         d="m 786.5,608.5 c -2.966,5.031 -4.299,10.531 -4,16.5 0.533,6.771 2.2,13.271 5,19.5 -2.252,-0.416 -3.752,-1.749 -4.5,-4 -3.435,-10.056 -3.268,-20.056 0.5,-30 1.018,-0.693 2.018,-1.359 3,-2 z"
         id="path551" />
    </g>
    <g
       id="g566"
       style="clip-rule:evenodd;fill-rule:evenodd;image-rendering:optimizeQuality;shape-rendering:geometricPrecision;text-rendering:geometricPrecision"
       transform="matrix(0.32587512,0,0,0.32587512,-232.63538,-133.38451)">
      <path
         style="opacity:1"
         fill="#f2d3d2"
         d="m 940.5,616.5 c 0.768,0.763 1.268,1.763 1.5,3 0.928,7.53 0.095,14.864 -2.5,22 -0.788,1.27 -1.788,2.27 -3,3 3.615,-8.896 4.948,-18.229 4,-28 z"
         id="path566" />
    </g>
    <g
       id="g574"
       style="clip-rule:evenodd;fill-rule:evenodd;image-rendering:optimizeQuality;shape-rendering:geometricPrecision;text-rendering:geometricPrecision"
       transform="matrix(0.32587512,0,0,0.32587512,-232.63538,-133.38451)">
      <path
         style="opacity:1"
         fill="#8f2c2b"
         d="m 890.5,658.5 c -5.351,-1.347 -10.684,-2.68 -16,-4 -0.763,-0.768 -1.763,-1.268 -3,-1.5 -6.667,-0.667 -13.333,-0.667 -20,0 -3.365,0.505 -6.365,1.672 -9,3.5 -3.416,0.028 -6.416,1.028 -9,3 -13.194,3.863 -25.527,2.197 -37,-5 0,-0.333 0,-0.667 0,-1 4.174,0.425 7.84,1.925 11,4.5 6.667,0.667 13.333,0.667 20,0 15.981,-7.372 32.647,-9.372 50,-6 4.704,1.685 9.038,3.852 13,6.5 z"
         id="path574" />
    </g>
    <g
       id="g577"
       style="clip-rule:evenodd;fill-rule:evenodd;image-rendering:optimizeQuality;shape-rendering:geometricPrecision;text-rendering:geometricPrecision"
       transform="matrix(0.32587512,0,0,0.32587512,-232.63538,-133.38451)">
      <path
         style="opacity:1"
         fill="#a91f1d"
         d="m 872.5,547.5 c 5.649,-0.591 10.316,1.242 14,5.5 2.623,3.972 5.457,7.806 8.5,11.5 -0.24,3.72 1.26,6.387 4.5,8 4.269,4.771 8.769,9.438 13.5,14 0.707,1.581 1.54,3.081 2.5,4.5 6.389,2.873 11.889,7.04 16.5,12.5 0.662,2.313 1.162,4.646 1.5,7 1,0 2,0 3,0 7.117,23.529 -0.55,39.695 -23,48.5 -7.67,0.321 -15.337,0.154 -23,-0.5 -3.962,-2.648 -8.296,-4.815 -13,-6.5 -17.353,-3.372 -34.019,-1.372 -50,6 -6.667,0.667 -13.333,0.667 -20,0 -3.16,-2.575 -6.826,-4.075 -11,-4.5 -3.394,-4.436 -6.561,-9.103 -9.5,-14 -1.344,-4.905 -2.177,-9.905 -2.5,-15 2.425,-7.585 4.758,-15.252 7,-23 5.589,-4.279 11.589,-8.113 18,-11.5 4.487,-3.83 8.32,-8.33 11.5,-13.5 0.49,-1.293 0.657,-2.627 0.5,-4 2.26,-3.088 5.093,-5.755 8.5,-8 9.119,-18.31 23.286,-23.977 42.5,-17 z"
         id="path577" />
    </g>
    <g
       id="g578"
       style="clip-rule:evenodd;fill-rule:evenodd;image-rendering:optimizeQuality;shape-rendering:geometricPrecision;text-rendering:geometricPrecision"
       transform="matrix(0.32587512,0,0,0.32587512,-232.63538,-133.38451)">
      <path
         style="opacity:1"
         fill="#d83830"
         d="m 872.5,547.5 c 6.371,2.621 11.871,6.621 16.5,12 5.433,11.183 12.6,21.183 21.5,30 8.646,5.479 15.813,12.479 21.5,21 8.502,20.17 3.002,35.004 -16.5,44.5 -5.597,1.456 -11.263,1.789 -17,1 -7.974,-2.614 -15.974,-5.281 -24,-8 -7.667,-0.667 -15.333,-0.667 -23,0 -10.669,3.918 -21.669,6.751 -33,8.5 -18.667,-2 -29,-12.333 -31,-31 0.8,-7.602 3.3,-14.602 7.5,-21 9.297,-7.629 18.297,-15.629 27,-24 3.995,-6.63 7.995,-13.296 12,-20 9.978,-12.737 22.812,-17.07 38.5,-13 z"
         id="path578" />
    </g>
    <g
       id="g579"
       style="clip-rule:evenodd;fill-rule:evenodd;image-rendering:optimizeQuality;shape-rendering:geometricPrecision;text-rendering:geometricPrecision"
       transform="matrix(0.32587512,0,0,0.32587512,-232.63538,-133.38451)">
      <path
         style="opacity:1"
         fill="#da372c"
         d="m 910.5,589.5 c -0.203,1.89 0.463,3.39 2,4.5 -0.333,0.333 -0.667,0.667 -1,1 2.167,1.5 4,3.333 5.5,5.5 2.833,-1.167 3.667,-0.333 2.5,2.5 1.244,0.456 2.077,-0.044 2.5,-1.5 0.684,1.284 0.517,2.451 -0.5,3.5 0.5,0.5 1,1 1.5,1.5 1.117,-0.165 2.284,-0.498 3.5,-1 0.762,1.128 1.429,2.295 2,3.5 -1.073,1.25 -1.073,2.584 0,4 -0.884,1.098 -1.884,1.598 -3,1.5 0.813,1.314 1.813,2.481 3,3.5 -1.537,1.11 -2.203,2.61 -2,4.5 -1.322,0.17 -2.489,-0.163 -3.5,-1 -0.5,1.167 -1.333,2 -2.5,2.5 1.293,0.49 2.627,0.657 4,0.5 0.092,3.571 -1.574,4.738 -5,3.5 1.196,-0.654 1.196,-1.154 0,-1.5 -1.114,1.223 -1.281,2.556 -0.5,4 1.569,-0.347 3.402,-0.514 5.5,-0.5 1.59,4.707 2.756,4.54 3.5,-0.5 1.204,1.359 2.704,2.359 4.5,3 -0.813,1.314 -1.813,2.481 -3,3.5 0.522,0.561 0.855,1.228 1,2 -1.558,6.454 -5.558,10.454 -12,12 -1.114,1.57 -2.447,2.903 -4,4 -5.275,1.938 -10.275,1.604 -15,-1 1.388,-0.889 1.222,-1.389 -0.5,-1.5 -1.43,2.17 -2.93,2.336 -4.5,0.5 2.563,-0.763 2.563,-1.263 0,-1.5 -1.147,0.318 -1.981,0.984 -2.5,2 -4.263,-0.797 -8.263,-2.797 -12,-6 -3.076,-1.16 -6.076,-1.16 -9,0 -1.958,-1.452 -3.958,-1.785 -6,-1 -0.483,-0.948 -0.649,-1.948 -0.5,-3 -1.699,-0.16 -3.366,0.006 -5,0.5 -1.924,1.905 -4.257,3.072 -7,3.5 -2.685,0.677 -5.518,0.677 -8.5,0 -3.084,0.595 -5.751,1.928 -8,4 -0.414,-0.457 -0.914,-0.791 -1.5,-1 -3.104,3.713 -6.938,4.713 -11.5,3 -0.333,0.667 -0.667,1.333 -1,2 -1.996,-0.496 -3.663,-1.496 -5,-3 -0.739,1.074 -1.739,1.741 -3,2 -1.333,-1.333 -2.667,-1.333 -4,0 -1.722,-0.111 -1.888,-0.611 -0.5,-1.5 -2.378,-0.511 -4.712,-1.178 -7,-2 -1.333,-2 -3,-3.667 -5,-5 0.828,-0.915 1.828,-1.581 3,-2 -1.201,-0.903 -2.035,-2.069 -2.5,-3.5 -1.549,2.503 -3.216,2.503 -5,0 -0.912,-2.159 -1.745,-4.325 -2.5,-6.5 0.609,-2.058 1.609,-2.891 3,-2.5 -0.813,-1.314 -1.813,-2.481 -3,-3.5 0.667,-0.333 1.333,-0.667 2,-1 -1.211,-1.113 -1.211,-2.28 0,-3.5 -0.941,0.011 -1.608,-0.489 -2,-1.5 0.277,-1.892 1.277,-3.225 3,-4 -0.457,-0.414 -0.791,-0.914 -1,-1.5 1.227,-1.09 2.06,-2.424 2.5,-4 0.414,0.457 0.914,0.791 1.5,1 1.247,-1.506 1.247,-3.006 0,-4.5 0.753,-1.487 1.586,-1.654 2.5,-0.5 0.559,-2.36 1.892,-4.693 4,-7 7.181,-5.285 13.848,-11.285 20,-18 0.483,-0.948 0.649,-1.948 0.5,-3 2.726,0.236 5.059,-0.597 7,-2.5 -2.667,-1.333 -2.667,-2.667 0,-4 1.244,-0.456 2.077,0.044 2.5,1.5 0.333,-1.333 0.667,-2.667 1,-4 0.654,1.196 1.154,1.196 1.5,0 -1,-0.667 -2,-1.333 -3,-2 0.346,-1.196 0.846,-1.196 1.5,0 0.283,-3.242 1.117,-3.576 2.5,-1 0.723,-1.664 0.39,-3.331 -1,-5 3.187,-7.101 7.353,-8.434 12.5,-4 1,-1.333 2,-2.667 3,-4 0.333,1 0.667,2 1,3 1.333,-2 2.667,-4 4,-6 1.58,3.827 3.08,3.661 4.5,-0.5 3.949,-0.454 7.949,0.213 12,2 -1.095,1.675 -2.595,2.842 -4.5,3.5 -0.483,0.948 -0.649,1.948 -0.5,3 1.478,-0.262 2.811,0.071 4,1 -1.033,0.952 -2.2,0.952 -3.5,0 -1.608,0.474 -1.774,1.141 -0.5,2 6.389,0.585 6.389,1.919 0,4 -1.227,1.09 -2.06,2.424 -2.5,4 -0.333,-0.667 -0.667,-1.333 -1,-2 -1,0.333 -2,0.667 -3,1 -2.18,-5.269 -3.847,-5.269 -5,0 3.196,-3.038 4.03,-2.538 2.5,1.5 2.152,1.413 4.486,2.246 7,2.5 0.214,1.644 -0.12,3.144 -1,4.5 5.54,3.299 5.207,5.133 -1,5.5 0.719,2.815 1.552,5.482 2.5,8 -3.457,0.642 -6.79,-0.024 -10,-2 -3.217,1.553 -6.717,2.553 -10.5,3 -0.667,0.667 -1.333,1.333 -2,2 0.915,0.828 1.581,1.828 2,3 -1.107,1.56 -1.107,3.06 0,4.5 -0.522,0.95 -1.189,1.784 -2,2.5 2.778,2.807 6.111,3.64 10,2.5 -0.333,-0.333 -0.667,-0.667 -1,-1 2.154,-1.32 3.654,-3.153 4.5,-5.5 1.959,2.443 1.292,4.11 -2,5 -0.667,0.667 -0.667,1.333 0,2 4.416,-1.696 8.249,-0.362 11.5,4 0.667,2 1.333,4 2,6 1.135,0.603 2.135,0.936 3,1 -2.152,3.452 -2.486,7.119 -1,11 0.667,-2.667 1.333,-5.333 2,-8 1.941,1.816 2.608,3.816 2,6 1.468,-1.833 3.135,-2.166 5,-1 -1,1 -2,2 -3,3 -0.586,-0.209 -1.086,-0.543 -1.5,-1 -0.98,1.481 -2.147,2.815 -3.5,4 1.022,0.854 1.855,1.854 2.5,3 1.167,-1.167 2.333,-2.333 3.5,-3.5 1.813,0.046 3.479,-0.12 5,-0.5 1.333,-3.333 1.333,-6.667 0,-10 -0.586,0.209 -1.086,0.543 -1.5,1 -1.845,-1.688 -3.679,-2.521 -5.5,-2.5 0.598,-1.301 1.598,-2.135 3,-2.5 0.821,-2.947 1.321,-5.947 1.5,-9 0.333,-0.333 0.667,-0.667 1,-1 0.192,2.077 0.692,4.077 1.5,6 0.86,-2.431 2.527,-3.764 5,-4 -0.157,-1.373 0.01,-2.707 0.5,-4 1.333,2.667 2.667,2.667 4,0 0.333,0.667 0.667,1.333 1,2 0.667,-1.333 1.333,-1.333 2,0 0.49,-1.293 0.657,-2.627 0.5,-4 5.297,-0.532 5.297,-1.366 0,-2.5 3.349,-0.089 3.849,-1.256 1.5,-3.5 -0.626,2.491 -1.459,2.491 -2.5,0 -2.416,0.819 -2.582,0.152 -0.5,-2 2.866,0.459 5.199,1.792 7,4 2.235,-0.868 4.402,-1.868 6.5,-3 -0.167,-0.333 -0.333,-0.667 -0.5,-1 -1.785,0.74 -3.618,1.407 -5.5,2 -0.596,-1.216 -0.763,-2.549 -0.5,-4 -1.908,2.832 -2.741,2.499 -2.5,-1 -1,0 -2,0 -3,0 -0.466,-1.701 -0.466,-3.201 0,-4.5 -0.525,-0.692 -1.192,-1.192 -2,-1.5 -1.598,0.985 -3.265,1.151 -5,0.5 0.333,-0.333 0.667,-0.667 1,-1 -1.456,-0.423 -1.956,-1.256 -1.5,-2.5 3.031,2.608 4.365,1.608 4,-3 0.914,1.154 1.747,0.987 2.5,-0.5 -0.667,-0.333 -1.333,-0.667 -2,-1 1.333,-0.667 1.333,-1.333 0,-2 0.5,-0.5 1,-1 1.5,-1.5 1.011,0.837 2.178,1.17 3.5,1 0.284,2.377 0.284,4.544 0,6.5 1.215,2.096 2.049,1.929 2.5,-0.5 0.181,2.174 -0.652,4.007 -2.5,5.5 0.916,0.374 1.75,0.874 2.5,1.5 0.401,-2.021 1.568,-3.355 3.5,-4 2.225,1.61 4.559,2.943 7,4 z"
         id="path579" />
    </g>
    <g
       id="g580"
       style="clip-rule:evenodd;fill-rule:evenodd;image-rendering:optimizeQuality;shape-rendering:geometricPrecision;text-rendering:geometricPrecision"
       transform="matrix(0.32587512,0,0,0.32587512,-232.63538,-133.38451)">
      <path
         style="opacity:1"
         fill="#f2d2d0"
         d="m 874.5,654.5 c -10.758,-0.263 -21.425,0.404 -32,2 2.635,-1.828 5.635,-2.995 9,-3.5 6.667,-0.667 13.333,-0.667 20,0 1.237,0.232 2.237,0.732 3,1.5 z"
         id="path580" />
    </g>
    <g
       id="g586"
       style="clip-rule:evenodd;fill-rule:evenodd;image-rendering:optimizeQuality;shape-rendering:geometricPrecision;text-rendering:geometricPrecision"
       transform="matrix(0.32587512,0,0,0.32587512,-232.63538,-133.38451)">
      <path
         style="opacity:1"
         fill="#f1d4d4"
         d="m 874.5,654.5 c 5.316,1.32 10.649,2.653 16,4 1,0.667 2,1.333 3,2 -5.065,-0.4 -10.065,-1.233 -15,-2.5 -1.527,-1.032 -2.86,-2.199 -4,-3.5 z"
         id="path586" />
    </g>
    <g
       id="g587"
       style="clip-rule:evenodd;fill-rule:evenodd;image-rendering:optimizeQuality;shape-rendering:geometricPrecision;text-rendering:geometricPrecision"
       transform="matrix(0.32587512,0,0,0.32587512,-232.63538,-133.38451)">
      <path
         style="opacity:1"
         fill="#daa3a4"
         d="m 842.5,656.5 c -2.645,1.81 -5.645,2.81 -9,3 2.584,-1.972 5.584,-2.972 9,-3 z"
         id="path587" />
    </g>
    <g
       id="g595"
       style="clip-rule:evenodd;fill-rule:evenodd;image-rendering:optimizeQuality;shape-rendering:geometricPrecision;text-rendering:geometricPrecision"
       transform="matrix(0.32587512,0,0,0.32587512,-232.63538,-133.38451)">
      <path
         style="opacity:1"
         fill="#f7e1e1"
         d="m 796.5,654.5 c 11.473,7.197 23.806,8.863 37,5 -0.616,1.917 -1.95,3.084 -4,3.5 -11.04,1.944 -21.373,0.277 -31,-5 -1.323,-0.816 -1.989,-1.983 -2,-3.5 z"
         id="path595" />
    </g>
    <g
       id="g596"
       style="clip-rule:evenodd;fill-rule:evenodd;image-rendering:optimizeQuality;shape-rendering:geometricPrecision;text-rendering:geometricPrecision"
       transform="matrix(0.32587512,0,0,0.32587512,-232.63538,-133.38451)">
      <path
         style="opacity:1"
         fill="#f7e1e1"
         d="m 926.5,655.5 c -7.798,7.677 -17.131,10.177 -28,7.5 -1.071,-0.852 -2.071,-1.685 -3,-2.5 11.066,2.436 21.399,0.77 31,-5 z"
         id="path596" />
    </g>
  </g>
</svg>
