<?xml version="1.0" encoding="UTF-8" standalone="no"?>
<!-- Created with Inkscape (http://www.inkscape.org/) -->

<svg
   width="96mm"
   height="96mm"
   viewBox="0 0 96 96"
   version="1.1"
   id="svg1"
   inkscape:version="1.4.2 (ebf0e940, 2025-05-08)"
   sodipodi:docname="van.svg"
   xmlns:inkscape="http://www.inkscape.org/namespaces/inkscape"
   xmlns:sodipodi="http://sodipodi.sourceforge.net/DTD/sodipodi-0.dtd"
   xmlns="http://www.w3.org/2000/svg"
   xmlns:svg="http://www.w3.org/2000/svg">
  <sodipodi:namedview
     id="namedview1"
     pagecolor="#ffffff"
     bordercolor="#000000"
     borderopacity="0.25"
     inkscape:showpageshadow="2"
     inkscape:pageopacity="0.0"
     inkscape:pagecheckerboard="0"
     inkscape:deskcolor="#d1d1d1"
     inkscape:document-units="mm"
     inkscape:zoom="0.80444024"
     inkscape:cx="397.17059"
     inkscape:cy="362.36377"
     inkscape:window-width="1920"
     inkscape:window-height="1052"
     inkscape:window-x="0"
     inkscape:window-y="28"
     inkscape:window-maximized="0"
     inkscape:current-layer="layer1" />
  <defs
     id="defs1" />
  <g
     inkscape:label="Layer 1"
     inkscape:groupmode="layer"
     id="layer1">
    <g
       id="g426"
       style="clip-rule:evenodd;fill-rule:evenodd;image-rendering:optimizeQuality;shape-rendering:geometricPrecision;text-rendering:geometricPrecision"
       transform="matrix(0.30878227,0,0,0.30878227,-116.65627,-123.43077)">
      <path
         style="opacity:1"
         fill="#e1a199"
         d="m 520.5,422.5 c 4.32,-0.666 8.82,-0.999 13.5,-1 7.064,-0.161 13.897,0.506 20.5,2 -11.315,-0.794 -22.648,-1.127 -34,-1 z"
         id="path426" />
    </g>
    <g
       id="g429"
       style="clip-rule:evenodd;fill-rule:evenodd;image-rendering:optimizeQuality;shape-rendering:geometricPrecision;text-rendering:geometricPrecision"
       transform="matrix(0.30878227,0,0,0.30878227,-116.65627,-123.43077)">
      <path
         style="opacity:1"
         fill="#bc554a"
         d="m 520.5,422.5 c 11.352,-0.127 22.685,0.206 34,1 8.72,1.297 16.72,4.463 24,9.5 4.637,4.109 6.97,9.275 7,15.5 1.61,9.922 2.277,19.922 2,30 -0.645,-5.564 -1.478,-11.231 -2.5,-17 -0.333,5 -0.667,10 -1,15 -0.383,0.556 -0.883,0.889 -1.5,1 0.302,-8.418 -0.031,-16.752 -1,-25 0,-1 0,-2 0,-3 -2.926,-0.961 -5.926,-1.627 -9,-2 -6.117,-4.453 -10.784,-10.119 -14,-17 -0.73,-1.545 -2.063,-2.378 -4,-2.5 -14.664,-1.977 -29.33,-1.977 -44,0 -1.619,0.236 -2.619,1.069 -3,2.5 -1.555,3.44 -3.388,6.773 -5.5,10 -3.023,2.198 -5.856,4.531 -8.5,7 -2.452,0.565 -4.785,1.232 -7,2 -0.617,0.111 -1.117,0.444 -1.5,1 -0.499,3.652 -0.665,7.318 -0.5,11 -0.989,5.475 -1.322,11.142 -1,17 -0.593,-3 -1.426,-6 -2.5,-9 -0.191,2.208 -0.691,4.208 -1.5,6 0.718,-9.329 1.384,-18.662 2,-28 1.913,-11.419 8.58,-18.586 20,-21.5 6.223,-1.815 12.556,-2.981 19,-3.5 z"
         id="path429" />
    </g>
    <g
       id="g430"
       style="clip-rule:evenodd;fill-rule:evenodd;image-rendering:optimizeQuality;shape-rendering:geometricPrecision;text-rendering:geometricPrecision"
       transform="matrix(0.30878227,0,0,0.30878227,-116.65627,-123.43077)">
      <path
         style="opacity:1"
         fill="#f4ada7"
         d="m 558.5,430.5 c -1.951,-1.141 -3.951,-1.141 -6,0 -0.418,-0.722 -1.084,-1.222 -2,-1.5 -13.173,-0.827 -26.173,-0.66 -39,0.5 -1.459,-0.067 -2.792,0.266 -4,1 0.381,-1.431 1.381,-2.264 3,-2.5 14.67,-1.977 29.336,-1.977 44,0 1.937,0.122 3.27,0.955 4,2.5 z"
         id="path430" />
    </g>
    <g
       id="g434"
       style="clip-rule:evenodd;fill-rule:evenodd;image-rendering:optimizeQuality;shape-rendering:geometricPrecision;text-rendering:geometricPrecision"
       transform="matrix(0.30878227,0,0,0.30878227,-116.65627,-123.43077)">
      <path
         style="opacity:1"
         fill="#dcaeab"
         d="m 552.5,430.5 c -12.016,-0.199 -24.016,0.134 -36,1 -2,-0.167 -4,-0.333 -6,-0.5 0.556,-0.383 0.889,-0.883 1,-1.5 12.827,-1.16 25.827,-1.327 39,-0.5 0.916,0.278 1.582,0.778 2,1.5 z"
         id="path434" />
    </g>
    <g
       id="g438"
       style="clip-rule:evenodd;fill-rule:evenodd;image-rendering:optimizeQuality;shape-rendering:geometricPrecision;text-rendering:geometricPrecision"
       transform="matrix(0.30878227,0,0,0.30878227,-116.65627,-123.43077)">
      <path
         style="opacity:1"
         fill="#f9f5f5"
         d="m 511.5,429.5 c -0.111,0.617 -0.444,1.117 -1,1.5 2,0.167 4,0.333 6,0.5 11.984,-0.866 23.984,-1.199 36,-1 2.049,-1.141 4.049,-1.141 6,0 3.216,6.881 7.883,12.547 14,17 1.837,6.792 2.504,13.792 2,21 -1.667,0 -3.333,0 -5,0 -2.596,-0.555 -4.929,-1.555 -7,-3 -1.16,-1.703 -0.493,-2.369 2,-2 1,0 2,0 3,0 0.247,-2.358 -0.419,-4.358 -2,-6 0.086,-0.996 -0.248,-1.829 -1,-2.5 -6.999,-1.335 -13.999,-1.501 -21,-0.5 -0.848,1.909 -1.182,3.909 -1,6 -6.009,0.166 -12.009,-10e-4 -18,-0.5 -0.38,-2.326 -1.38,-4.159 -3,-5.5 -1.371,-1.287 -3.205,-1.953 -5.5,-2 -6.226,0.474 -12.059,2.141 -17.5,5 -1.297,2.688 -0.964,5.188 1,7.5 -2.041,1.741 -4.208,1.908 -6.5,0.5 -0.499,-3.652 -0.665,-7.318 -0.5,-11 -0.052,-2.403 0.281,-4.736 1,-7 2.644,-2.469 5.477,-4.802 8.5,-7 2.112,-3.227 3.945,-6.56 5.5,-10 1.208,-0.734 2.541,-1.067 4,-1 z"
         id="path438" />
    </g>
    <g
       id="g441"
       style="clip-rule:evenodd;fill-rule:evenodd;image-rendering:optimizeQuality;shape-rendering:geometricPrecision;text-rendering:geometricPrecision"
       transform="matrix(0.30878227,0,0,0.30878227,-116.65627,-123.43077)">
      <path
         style="opacity:1"
         fill="#f79e94"
         d="m 499.5,438.5 c -2.027,-0.625 -3.86,-0.625 -5.5,0 -1.587,-1.346 -1.42,-2.679 0.5,-4 2.485,-2.413 5.485,-4.08 9,-5 0.64,3.733 -0.694,6.733 -4,9 z"
         id="path441" />
    </g>
    <g
       id="g443"
       style="clip-rule:evenodd;fill-rule:evenodd;image-rendering:optimizeQuality;shape-rendering:geometricPrecision;text-rendering:geometricPrecision"
       transform="matrix(0.30878227,0,0,0.30878227,-116.65627,-123.43077)">
      <path
         style="opacity:1"
         fill="#f69a93"
         d="m 561.5,429.5 c 8.242,1.525 14.408,5.858 18.5,13 0.781,1.444 0.614,2.777 -0.5,4 -8.62,-2.954 -14.62,-8.621 -18,-17 z"
         id="path443" />
    </g>
    <g
       id="g446"
       style="clip-rule:evenodd;fill-rule:evenodd;image-rendering:optimizeQuality;shape-rendering:geometricPrecision;text-rendering:geometricPrecision"
       transform="matrix(0.30878227,0,0,0.30878227,-116.65627,-123.43077)">
      <path
         style="opacity:1"
         fill="#f68b85"
         d="m 494.5,434.5 c -1.92,1.321 -2.087,2.654 -0.5,4 1.64,-0.625 3.473,-0.625 5.5,0 -4.093,3.224 -8.426,6.224 -13,9 -0.701,-6.245 1.966,-10.578 8,-13 z"
         id="path446" />
    </g>
    <g
       id="g460"
       style="clip-rule:evenodd;fill-rule:evenodd;image-rendering:optimizeQuality;shape-rendering:geometricPrecision;text-rendering:geometricPrecision"
       transform="matrix(0.30878227,0,0,0.30878227,-116.65627,-123.43077)">
      <path
         style="opacity:1"
         fill="#f9efed"
         d="m 486.5,449.5 c 1.333,0 2.667,0 4,0 -0.108,9.475 -1.275,18.808 -3.5,28 -0.667,1.333 -1.333,1.333 -2,0 -0.499,-5.323 -0.666,-10.656 -0.5,-16 -0.165,-3.682 10e-4,-7.348 0.5,-11 0.383,-0.556 0.883,-0.889 1.5,-1 z"
         id="path460" />
    </g>
    <g
       id="g463"
       style="clip-rule:evenodd;fill-rule:evenodd;image-rendering:optimizeQuality;shape-rendering:geometricPrecision;text-rendering:geometricPrecision"
       transform="matrix(0.30878227,0,0,0.30878227,-116.65627,-123.43077)">
      <path
         style="opacity:1"
         fill="#ba5347"
         d="m 565.5,457.5 c 1.581,1.642 2.247,3.642 2,6 -1,0 -2,0 -3,0 -6.067,-2.092 -12.401,-3.592 -19,-4.5 -0.88,-1.356 -1.214,-2.856 -1,-4.5 7.123,0.198 14.123,1.198 21,3 z"
         id="path463" />
    </g>
    <g
       id="g464"
       style="clip-rule:evenodd;fill-rule:evenodd;image-rendering:optimizeQuality;shape-rendering:geometricPrecision;text-rendering:geometricPrecision"
       transform="matrix(0.30878227,0,0,0.30878227,-116.65627,-123.43077)">
      <path
         style="opacity:1"
         fill="#e49892"
         d="m 481.5,447.5 c -0.616,9.338 -1.282,18.671 -2,28 0.237,1.291 -0.096,2.291 -1,3 0.215,-9.013 0.715,-18.013 1.5,-27 0.21,-1.558 0.71,-2.891 1.5,-4 z"
         id="path464" />
    </g>
    <g
       id="g465"
       style="clip-rule:evenodd;fill-rule:evenodd;image-rendering:optimizeQuality;shape-rendering:geometricPrecision;text-rendering:geometricPrecision"
       transform="matrix(0.30878227,0,0,0.30878227,-116.65627,-123.43077)">
      <path
         style="opacity:1"
         fill="#f7d9d6"
         d="m 521.5,454.5 c 1.62,1.341 2.62,3.174 3,5.5 5.991,0.499 11.991,0.666 18,0.5 -0.182,-2.091 0.152,-4.091 1,-6 7.001,-1.001 14.001,-0.835 21,0.5 0.752,0.671 1.086,1.504 1,2.5 -6.877,-1.802 -13.877,-2.802 -21,-3 -0.214,1.644 0.12,3.144 1,4.5 6.599,0.908 12.933,2.408 19,4.5 -2.493,-0.369 -3.16,0.297 -2,2 -14.396,-2.756 -28.729,-3.423 -43,-2 -9.193,-0.162 -17.859,1.838 -26,6 -1.309,-2.071 -1.975,-4.571 -2,-7.5 0.003,-2.69 0.336,-5.19 1,-7.5 -0.165,3.682 10e-4,7.348 0.5,11 2.292,1.408 4.459,1.241 6.5,-0.5 -1.964,-2.312 -2.297,-4.812 -1,-7.5 5.441,-2.859 11.274,-4.526 17.5,-5 2.295,0.047 4.129,0.713 5.5,2 z"
         id="path465" />
    </g>
    <g
       id="g466"
       style="clip-rule:evenodd;fill-rule:evenodd;image-rendering:optimizeQuality;shape-rendering:geometricPrecision;text-rendering:geometricPrecision"
       transform="matrix(0.30878227,0,0,0.30878227,-116.65627,-123.43077)">
      <path
         style="opacity:1"
         fill="#bb5146"
         d="m 521.5,454.5 c 0,1.667 0,3.333 0,5 -7.386,0.673 -14.719,1.673 -22,3 -0.214,-1.644 0.12,-3.144 1,-4.5 6.822,-2.248 13.822,-3.415 21,-3.5 z"
         id="path466" />
    </g>
    <g
       id="g467"
       style="clip-rule:evenodd;fill-rule:evenodd;image-rendering:optimizeQuality;shape-rendering:geometricPrecision;text-rendering:geometricPrecision"
       transform="matrix(0.30878227,0,0,0.30878227,-116.65627,-123.43077)">
      <path
         style="opacity:1"
         fill="#bf4e45"
         d="m 562.5,465.5 c 2.071,1.445 4.404,2.445 7,3 0,0.333 0,0.667 0,1 -7.933,-0.451 -15.6,-1.951 -23,-4.5 -14.094,-0.704 -28.094,0.13 -42,2.5 4.887,-1.7 9.887,-3.033 15,-4 14.271,-1.423 28.604,-0.756 43,2 z"
         id="path467" />
    </g>
    <g
       id="g468"
       style="clip-rule:evenodd;fill-rule:evenodd;image-rendering:optimizeQuality;shape-rendering:geometricPrecision;text-rendering:geometricPrecision"
       transform="matrix(0.30878227,0,0,0.30878227,-116.65627,-123.43077)">
      <path
         style="opacity:1"
         fill="#d93e32"
         d="m 569.5,469.5 c 0.986,2.016 2.653,3.349 5,4 0.577,1.606 0.91,3.272 1,5 -2.323,7.319 -4.657,14.653 -7,22 -1.333,0.333 -2.667,0.667 -4,1 -5.93,-1.32 -11.93,-1.986 -18,-2 -15.67,-1.381 -31.337,-0.881 -47,1.5 -0.854,-1.022 -1.854,-1.855 -3,-2.5 -0.915,-6.336 -2.748,-12.336 -5.5,-18 -1.139,-3.921 -0.305,-7.254 2.5,-10 3.61,-1.203 7.277,-2.203 11,-3 13.906,-2.37 27.906,-3.204 42,-2.5 7.4,2.549 15.067,4.049 23,4.5 z"
         id="path468" />
    </g>
    <g
       id="g469"
       style="clip-rule:evenodd;fill-rule:evenodd;image-rendering:optimizeQuality;shape-rendering:geometricPrecision;text-rendering:geometricPrecision"
       transform="matrix(0.30878227,0,0,0.30878227,-116.65627,-123.43077)">
      <path
         style="opacity:1"
         fill="#f9eae7"
         d="m 581.5,452.5 c 0.969,8.248 1.302,16.582 1,25 -0.667,0 -1,0.333 -1,1 -3.685,-8.63 -5.352,-17.964 -5,-28 2.054,-0.135 3.721,0.532 5,2 z"
         id="path469" />
    </g>
    <g
       id="g470"
       style="clip-rule:evenodd;fill-rule:evenodd;image-rendering:optimizeQuality;shape-rendering:geometricPrecision;text-rendering:geometricPrecision"
       transform="matrix(0.30878227,0,0,0.30878227,-116.65627,-123.43077)">
      <path
         style="opacity:1"
         fill="#d98782"
         d="m 519.5,463.5 c -5.113,0.967 -10.113,2.3 -15,4 -3.723,0.797 -7.39,1.797 -11,3 0,-0.333 0,-0.667 0,-1 8.141,-4.162 16.807,-6.162 26,-6 z"
         id="path470" />
    </g>
    <g
       id="g471"
       style="clip-rule:evenodd;fill-rule:evenodd;image-rendering:optimizeQuality;shape-rendering:geometricPrecision;text-rendering:geometricPrecision"
       transform="matrix(0.30878227,0,0,0.30878227,-116.65627,-123.43077)">
      <path
         style="opacity:1"
         fill="#f6cac6"
         d="m 585.5,448.5 c 0.722,0.418 1.222,1.084 1.5,2 0.921,8.655 1.754,17.322 2.5,26 1.355,0.688 2.355,1.688 3,3 -1.792,0.134 -3.458,-0.199 -5,-1 0.277,-10.078 -0.39,-20.078 -2,-30 z"
         id="path471" />
    </g>
    <g
       id="g472"
       style="clip-rule:evenodd;fill-rule:evenodd;image-rendering:optimizeQuality;shape-rendering:geometricPrecision;text-rendering:geometricPrecision"
       transform="matrix(0.30878227,0,0,0.30878227,-116.65627,-123.43077)">
      <path
         style="opacity:1"
         fill="#eebdba"
         d="m 493.5,447.5 c -0.719,2.264 -1.052,4.597 -1,7 -0.664,2.31 -0.997,4.81 -1,7.5 0.025,2.929 0.691,5.429 2,7.5 0,0.333 0,0.667 0,1 -3.071,0.539 -4.738,2.373 -5,5.5 1.642,8.72 3.975,17.22 7,25.5 1.352,1.396 3.019,2.063 5,2 6.877,-1.909 13.877,-2.909 21,-3 -9,3.326 -18.333,4.326 -28,3 0,3 0,6 0,9 -0.934,-1.068 -1.268,-2.401 -1,-4 -1.77,-6.563 -3.27,-13.23 -4.5,-20 -0.911,-3.73 -2.411,-7.063 -4.5,-10 -0.322,-5.858 0.011,-11.525 1,-17 -0.166,5.344 10e-4,10.677 0.5,16 0.667,1.333 1.333,1.333 2,0 2.225,-9.192 3.392,-18.525 3.5,-28 -1.333,0 -2.667,0 -4,0 2.215,-0.768 4.548,-1.435 7,-2 z"
         id="path472" />
    </g>
    <g
       id="g474"
       style="clip-rule:evenodd;fill-rule:evenodd;image-rendering:optimizeQuality;shape-rendering:geometricPrecision;text-rendering:geometricPrecision"
       transform="matrix(0.30878227,0,0,0.30878227,-116.65627,-123.43077)">
      <path
         style="opacity:1"
         fill="#b63f36"
         d="m 587.5,478.5 c -0.086,0.996 0.248,1.829 1,2.5 -1.973,0.495 -3.973,0.662 -6,0.5 0,-1.333 0,-2.667 0,-4 0.617,-0.111 1.117,-0.444 1.5,-1 0.333,-5 0.667,-10 1,-15 1.022,5.769 1.855,11.436 2.5,17 z"
         id="path474" />
    </g>
    <g
       id="g478"
       style="clip-rule:evenodd;fill-rule:evenodd;image-rendering:optimizeQuality;shape-rendering:geometricPrecision;text-rendering:geometricPrecision"
       transform="matrix(0.30878227,0,0,0.30878227,-116.65627,-123.43077)">
      <path
         style="opacity:1"
         fill="#eec4c0"
         d="m 572.5,447.5 c 3.074,0.373 6.074,1.039 9,2 0,1 0,2 0,3 -1.279,-1.468 -2.946,-2.135 -5,-2 -0.352,10.036 1.315,19.37 5,28 -1.976,6.571 -3.643,13.238 -5,20 -1.643,5.085 -2.643,10.418 -3,16 -0.993,8.15 -1.326,16.483 -1,25 0,1 0,2 0,3 0,39 0,78 0,117 -1.32,-50.345 -1.32,-100.845 0,-151.5 -0.167,-1.167 -0.333,-2.333 -0.5,-3.5 -1.4,0.616 -2.9,0.949 -4.5,1 -2.383,0.139 -4.383,-0.528 -6,-2 4.103,0.731 7.603,-0.269 10.5,-3 2.476,-9.591 4.309,-19.258 5.5,-29 -2.667,-0.667 -5.333,-1.333 -8,-2 0,-0.333 0,-0.667 0,-1 1.667,0 3.333,0 5,0 0.504,-7.208 -0.163,-14.208 -2,-21 z"
         id="path478" />
    </g>
    <g
       id="g481"
       style="clip-rule:evenodd;fill-rule:evenodd;image-rendering:optimizeQuality;shape-rendering:geometricPrecision;text-rendering:geometricPrecision"
       transform="matrix(0.30878227,0,0,0.30878227,-116.65627,-123.43077)">
      <path
         style="opacity:1"
         fill="#bc4239"
         d="m 483.5,478.5 c 0,1 0,2 0,3 -1.88,-0.271 -3.213,0.396 -4,2 -0.667,0 -1.333,0 -2,0 -2.027,0.162 -4.027,-0.005 -6,-0.5 0.881,-0.708 1.547,-1.542 2,-2.5 1.784,-0.393 3.45,-1.059 5,-2 0.904,-0.709 1.237,-1.709 1,-3 0.809,-1.792 1.309,-3.792 1.5,-6 1.074,3 1.907,6 2.5,9 z"
         id="path481" />
    </g>
    <g
       id="g482"
       style="clip-rule:evenodd;fill-rule:evenodd;image-rendering:optimizeQuality;shape-rendering:geometricPrecision;text-rendering:geometricPrecision"
       transform="matrix(0.30878227,0,0,0.30878227,-116.65627,-123.43077)">
      <path
         style="opacity:1"
         fill="#bb6359"
         d="m 582.5,477.5 c 0,1.333 0,2.667 0,4 2.027,0.162 4.027,-0.005 6,-0.5 -0.752,-0.671 -1.086,-1.504 -1,-2.5 1.542,0.801 3.208,1.134 5,1 3.043,2.043 5.376,4.71 7,8 0.295,2.235 -0.039,4.235 -1,6 0.202,-2.489 -0.298,-4.823 -1.5,-7 -0.232,1.237 -0.732,2.237 -1.5,3 0.271,-1.88 -0.396,-3.213 -2,-4 -3.421,-1.876 -7.088,-2.876 -11,-3 -0.343,1.983 0.324,3.317 2,4 0,0.333 0,0.667 0,1 -3.45,-0.744 -5.116,0.59 -5,4 -0.206,2.738 -1.206,5.072 -3,7 1.357,-6.762 3.024,-13.429 5,-20 0,-0.667 0.333,-1 1,-1 z"
         id="path482" />
    </g>
    <g
       id="g486"
       style="clip-rule:evenodd;fill-rule:evenodd;image-rendering:optimizeQuality;shape-rendering:geometricPrecision;text-rendering:geometricPrecision"
       transform="matrix(0.30878227,0,0,0.30878227,-116.65627,-123.43077)">
      <path
         style="opacity:1"
         fill="#c15349"
         d="m 569.5,469.5 c 2.667,0.667 5.333,1.333 8,2 -1.191,9.742 -3.024,19.409 -5.5,29 -2.897,2.731 -6.397,3.731 -10.5,3 -0.333,0 -0.667,0 -1,0 -2.454,-1.121 -5.121,-1.954 -8,-2.5 -9.994,-0.5 -19.994,-0.666 -30,-0.5 7.816,-0.992 15.816,-1.326 24,-1 6.07,0.014 12.07,0.68 18,2 1.333,-0.333 2.667,-0.667 4,-1 2.343,-7.347 4.677,-14.681 7,-22 -0.09,-1.728 -0.423,-3.394 -1,-5 -2.347,-0.651 -4.014,-1.984 -5,-4 z"
         id="path486" />
    </g>
    <g
       id="g488"
       style="clip-rule:evenodd;fill-rule:evenodd;image-rendering:optimizeQuality;shape-rendering:geometricPrecision;text-rendering:geometricPrecision"
       transform="matrix(0.30878227,0,0,0.30878227,-116.65627,-123.43077)">
      <path
         style="opacity:1"
         fill="#f9e6e1"
         d="m 593.5,485.5 c -0.086,0.996 0.248,1.829 1,2.5 -0.5,0.167 -1,0.333 -1.5,0.5 -2.724,-1.187 -5.557,-1.853 -8.5,-2 -1.676,-0.683 -2.343,-2.017 -2,-4 3.912,0.124 7.579,1.124 11,3 z"
         id="path488" />
    </g>
    <g
       id="g494"
       style="clip-rule:evenodd;fill-rule:evenodd;image-rendering:optimizeQuality;shape-rendering:geometricPrecision;text-rendering:geometricPrecision"
       transform="matrix(0.30878227,0,0,0.30878227,-116.65627,-123.43077)">
      <path
         style="opacity:1"
         fill="#f1bab0"
         d="m 593.5,485.5 c 1.604,0.787 2.271,2.12 2,4 -3.749,-0.251 -7.415,-0.917 -11,-2 0,-0.333 0,-0.667 0,-1 2.943,0.147 5.776,0.813 8.5,2 0.5,-0.167 1,-0.333 1.5,-0.5 -0.752,-0.671 -1.086,-1.504 -1,-2.5 z"
         id="path494" />
    </g>
    <g
       id="g496"
       style="clip-rule:evenodd;fill-rule:evenodd;image-rendering:optimizeQuality;shape-rendering:geometricPrecision;text-rendering:geometricPrecision"
       transform="matrix(0.30878227,0,0,0.30878227,-116.65627,-123.43077)">
      <path
         style="opacity:1"
         fill="#d94133"
         d="m 585.5,492.5 c -0.996,14.824 -1.329,29.824 -1,45 -3.493,-0.498 -6.826,-0.498 -10,0 -0.331,-13.076 0.336,-26.076 2,-39 1.794,-1.928 2.794,-4.262 3,-7 2.029,-2 4.362,-2.333 7,-1 -0.363,0.683 -0.696,1.35 -1,2 z"
         id="path496" />
    </g>
    <g
       id="g499"
       style="clip-rule:evenodd;fill-rule:evenodd;image-rendering:optimizeQuality;shape-rendering:geometricPrecision;text-rendering:geometricPrecision"
       transform="matrix(0.30878227,0,0,0.30878227,-116.65627,-123.43077)">
      <path
         style="opacity:1"
         fill="#bf443b"
         d="m 493.5,470.5 c -2.805,2.746 -3.639,6.079 -2.5,10 2.752,5.664 4.585,11.664 5.5,18 1.146,0.645 2.146,1.478 3,2.5 15.663,-2.381 31.33,-2.881 47,-1.5 -8.184,-0.326 -16.184,0.008 -24,1 -0.333,0 -0.667,0 -1,0 -7.123,0.091 -14.123,1.091 -21,3 -1.981,0.063 -3.648,-0.604 -5,-2 -3.025,-8.28 -5.358,-16.78 -7,-25.5 0.262,-3.127 1.929,-4.961 5,-5.5 z"
         id="path499" />
    </g>
    <g
       id="g504"
       style="clip-rule:evenodd;fill-rule:evenodd;image-rendering:optimizeQuality;shape-rendering:geometricPrecision;text-rendering:geometricPrecision"
       transform="matrix(0.30878227,0,0,0.30878227,-116.65627,-123.43077)">
      <path
         style="opacity:1"
         fill="#d94134"
         d="m 488.5,500.5 c 0.667,1.333 1.333,2.667 2,4 1.614,10.28 2.114,20.613 1.5,31 -3.149,1.862 -6.649,2.529 -10.5,2 -0.167,-15.67 0,-31.337 0.5,-47 1.587,-1.227 2.921,-0.894 4,1 0.057,3.351 0.891,6.351 2.5,9 z"
         id="path504" />
    </g>
    <g
       id="g508"
       style="clip-rule:evenodd;fill-rule:evenodd;image-rendering:optimizeQuality;shape-rendering:geometricPrecision;text-rendering:geometricPrecision"
       transform="matrix(0.30878227,0,0,0.30878227,-116.65627,-123.43077)">
      <path
         style="opacity:1"
         fill="#faf7f5"
         d="m 560.5,503.5 c 0.333,0 0.667,0 1,0 1.617,1.472 3.617,2.139 6,2 1.6,-0.051 3.1,-0.384 4.5,-1 0.167,1.167 0.333,2.333 0.5,3.5 -1.32,50.655 -1.32,101.155 0,151.5 0.538,1.617 0.871,3.284 1,5 -26.667,0 -53.333,0 -80,0 0.966,-40.983 1.299,-81.983 1,-123 0,-0.667 0,-1.333 0,-2 0.617,-0.111 1.117,-0.444 1.5,-1 0.478,-10.688 0.478,-21.355 0,-32 0.333,0.333 0.667,0.667 1,1 20.771,-5.092 41.937,-6.425 63.5,-4 z"
         id="path508" />
    </g>
    <g
       id="g510"
       style="clip-rule:evenodd;fill-rule:evenodd;image-rendering:optimizeQuality;shape-rendering:geometricPrecision;text-rendering:geometricPrecision"
       transform="matrix(0.30878227,0,0,0.30878227,-116.65627,-123.43077)">
      <path
         style="opacity:1"
         fill="#fadddc"
         d="m 521.5,500.5 c 0.333,0 0.667,0 1,0 10.006,-0.166 20.006,0 30,0.5 2.879,0.546 5.546,1.379 8,2.5 -21.563,-2.425 -42.729,-1.092 -63.5,4 -0.333,-0.333 -0.667,-0.667 -1,-1 0.478,10.645 0.478,21.312 0,32 -0.383,0.556 -0.883,0.889 -1.5,1 0.216,-9.033 -0.117,-18.033 -1,-27 0,-3 0,-6 0,-9 9.667,1.326 19,0.326 28,-3 z"
         id="path510" />
    </g>
    <g
       id="g517"
       style="clip-rule:evenodd;fill-rule:evenodd;image-rendering:optimizeQuality;shape-rendering:geometricPrecision;text-rendering:geometricPrecision"
       transform="matrix(0.30878227,0,0,0.30878227,-116.65627,-123.43077)">
      <path
         style="opacity:1"
         fill="#c74237"
         d="m 585.5,492.5 c 0.651,15.703 -0.016,31.036 -2,46 -0.992,-0.172 -1.658,0.162 -2,1 -1,0 -2,0 -3,0 -1.644,0.214 -3.144,-0.12 -4.5,-1 -0.5,-7.993 -0.666,-15.993 -0.5,-24 0.357,-5.582 1.357,-10.915 3,-16 -1.664,12.924 -2.331,25.924 -2,39 3.174,-0.498 6.507,-0.498 10,0 -0.329,-15.176 0.004,-30.176 1,-45 z"
         id="path517" />
    </g>
    <g
       id="g531"
       style="clip-rule:evenodd;fill-rule:evenodd;image-rendering:optimizeQuality;shape-rendering:geometricPrecision;text-rendering:geometricPrecision"
       transform="matrix(0.30878227,0,0,0.30878227,-116.65627,-123.43077)">
      <path
         style="opacity:1"
         fill="#bc5149"
         d="m 573.5,514.5 c -0.166,8.007 0,16.007 0.5,24 1.356,0.88 2.856,1.214 4.5,1 -1.068,0.934 -2.401,1.268 -4,1 -0.667,-0.333 -1.333,-0.667 -2,-1 -0.326,-8.517 0.007,-16.85 1,-25 z"
         id="path531" />
    </g>
    <g
       id="g533"
       style="clip-rule:evenodd;fill-rule:evenodd;image-rendering:optimizeQuality;shape-rendering:geometricPrecision;text-rendering:geometricPrecision"
       transform="matrix(0.30878227,0,0,0.30878227,-116.65627,-123.43077)">
      <path
         style="opacity:1"
         fill="#bf4538"
         d="m 488.5,500.5 c -1.609,-2.649 -2.443,-5.649 -2.5,-9 -1.079,-1.894 -2.413,-2.227 -4,-1 -0.5,15.663 -0.667,31.33 -0.5,47 3.851,0.529 7.351,-0.138 10.5,-2 0.614,-10.387 0.114,-20.72 -1.5,-31 0.667,1.333 1.333,2.667 2,4 -0.268,1.599 0.066,2.932 1,4 0.883,8.967 1.216,17.967 1,27 -3,0 -6,0 -9,0 -0.667,-1.333 -1.333,-1.333 -2,0 -0.999,39.496 -1.332,79.163 -1,119 -0.617,0.111 -1.117,0.444 -1.5,1 0.157,-56.48 -0.676,-112.814 -2.5,-169 2.752,-2.634 5.585,-2.634 8.5,0 0.455,3.354 0.955,6.687 1.5,10 z"
         id="path533" />
    </g>
    <g
       id="g544"
       style="clip-rule:evenodd;fill-rule:evenodd;image-rendering:optimizeQuality;shape-rendering:geometricPrecision;text-rendering:geometricPrecision"
       transform="matrix(0.30878227,0,0,0.30878227,-116.65627,-123.43077)">
      <path
         style="opacity:1"
         fill="#f9dbd6"
         d="m 474.5,493.5 c 1.333,0 2.667,0 4,0 -0.332,60.502 10e-4,120.836 1,181 1,2 2,4 3,6 -1.385,-1.114 -2.885,-2.114 -4.5,-3 -0.5,-60.999 -0.667,-121.999 -0.5,-183 -3.173,0.868 -6.173,0.868 -9,0 2.065,-0.017 4.065,-0.35 6,-1 z"
         id="path544" />
    </g>
    <g
       id="g545"
       style="clip-rule:evenodd;fill-rule:evenodd;image-rendering:optimizeQuality;shape-rendering:geometricPrecision;text-rendering:geometricPrecision"
       transform="matrix(0.30878227,0,0,0.30878227,-116.65627,-123.43077)">
      <path
         style="opacity:1"
         fill="#f5dfda"
         d="m 516.5,539.5 c 1.788,-0.285 3.455,0.048 5,1 0.623,2.945 0.956,5.945 1,9 -0.78,35.993 -1.28,71.993 -1.5,108 -1.938,1.36 -3.604,1.027 -5,-1 -0.195,-4.918 -0.695,-9.751 -1.5,-14.5 0.611,-33.643 1.277,-67.809 2,-102.5 z"
         id="path545" />
    </g>
    <g
       id="g551"
       style="clip-rule:evenodd;fill-rule:evenodd;image-rendering:optimizeQuality;shape-rendering:geometricPrecision;text-rendering:geometricPrecision"
       transform="matrix(0.30878227,0,0,0.30878227,-116.65627,-123.43077)">
      <path
         style="opacity:1"
         fill="#f8d5cf"
         d="m 599.5,487.5 c 0.973,2.448 1.306,5.115 1,8 -1.842,0.223 -3.675,0.557 -5.5,1 -2.086,-0.918 -4.253,-1.585 -6.5,-2 0.167,60.334 0,120.668 -0.5,181 -1.651,4.421 -4.484,7.921 -8.5,10.5 -7.631,1.069 -15.298,1.569 -23,1.5 7.616,-1.086 15.282,-2.586 23,-4.5 3.539,-1.907 6.039,-4.74 7.5,-8.5 0.5,-60.666 0.667,-121.332 0.5,-182 2.656,0.658 5.322,1.325 8,2 1.226,-0.02 2.226,-0.353 3,-1 0.961,-1.765 1.295,-3.765 1,-6 z"
         id="path551" />
    </g>
    <g
       id="g557"
       style="clip-rule:evenodd;fill-rule:evenodd;image-rendering:optimizeQuality;shape-rendering:geometricPrecision;text-rendering:geometricPrecision"
       transform="matrix(0.30878227,0,0,0.30878227,-116.65627,-123.43077)">
      <path
         style="opacity:1"
         fill="#c7a19c"
         d="m 504.5,541.5 c -0.999,38.163 -1.332,76.496 -1,115 -1.331,-38.502 -1.331,-77.169 0,-116 0.607,0.124 0.94,0.457 1,1 z"
         id="path557" />
    </g>
    <g
       id="g560"
       style="clip-rule:evenodd;fill-rule:evenodd;image-rendering:optimizeQuality;shape-rendering:geometricPrecision;text-rendering:geometricPrecision"
       transform="matrix(0.30878227,0,0,0.30878227,-116.65627,-123.43077)">
      <path
         style="opacity:1"
         fill="#f5aca3"
         d="m 578.5,539.5 c 1,0 2,0 3,0 0.998,34.829 1.332,69.829 1,105 -0.789,-0.283 -1.456,-0.783 -2,-1.5 -0.079,-1.907 0.254,-3.907 1,-6 -0.667,-4 -1.333,-8 -2,-12 0.744,-2.483 0.744,-5.149 0,-8 0.667,-1 1.333,-2 2,-3 -0.595,-11.435 -1.262,-23.102 -2,-35 0.985,-4.558 0.985,-8.891 0,-13 0.626,-0.75 1.126,-1.584 1.5,-2.5 1.051,-6.35 -0.116,-12.517 -3.5,-18.5 0.333,-0.333 0.667,-0.667 1,-1 -2.41,-0.057 -3.744,-1.224 -4,-3.5 1.599,0.268 2.932,-0.066 4,-1 z"
         id="path560" />
    </g>
    <g
       id="g562"
       style="clip-rule:evenodd;fill-rule:evenodd;image-rendering:optimizeQuality;shape-rendering:geometricPrecision;text-rendering:geometricPrecision"
       transform="matrix(0.30878227,0,0,0.30878227,-116.65627,-123.43077)">
      <path
         style="opacity:1"
         fill="#f0d7d0"
         d="m 563.5,656.5 c -0.667,-153.333 -1.333,-153.333 -2,0 -0.617,-0.111 -1.117,-0.444 -1.5,-1 -0.5,-38.665 -0.667,-77.332 -0.5,-116 1.667,0 3.333,0 5,0 0.332,39.17 -10e-4,78.17 -1,117 z"
         id="path562" />
    </g>
    <g
       id="g565"
       style="clip-rule:evenodd;fill-rule:evenodd;image-rendering:optimizeQuality;shape-rendering:geometricPrecision;text-rendering:geometricPrecision"
       transform="matrix(0.30878227,0,0,0.30878227,-116.65627,-123.43077)">
      <path
         style="opacity:1"
         fill="#e7b2ac"
         d="m 492.5,562.5 c 0.556,29.432 0.722,58.765 0.5,88 0.23,7.174 -1.603,13.674 -5.5,19.5 0.117,2.616 1.45,4.116 4,4.5 0,0.333 0,0.667 0,1 -2.471,0.267 -4.138,-0.733 -5,-3 -1.004,-3.161 -1.004,-6.495 0,-10 -0.743,-0.682 -1.409,-1.349 -2,-2 2.03,-2.563 3.697,-5.396 5,-8.5 -0.808,-0.308 -1.475,-0.808 -2,-1.5 3.811,-3.485 4.811,-7.651 3,-12.5 0.808,-0.308 1.475,-0.808 2,-1.5 -1.733,-3.83 -2.066,-7.663 -1,-11.5 -0.405,-0.945 -1.072,-1.612 -2,-2 -0.589,-1.873 0.078,-3.54 2,-5 -0.793,-1.085 -1.46,-2.252 -2,-3.5 1.312,-4.605 2.312,-9.105 3,-13.5 0.152,-2.674 -0.848,-5.174 -3,-7.5 2.6,-2.794 2.6,-5.627 0,-8.5 1.507,-1.473 2.174,-3.307 2,-5.5 -0.746,-2.748 -0.746,-5.414 0,-8 -0.26,-1.687 -0.927,-3.187 -2,-4.5 0.899,-1.652 1.899,-3.152 3,-4.5 z"
         id="path565" />
    </g>
    <g
       id="g566"
       style="clip-rule:evenodd;fill-rule:evenodd;image-rendering:optimizeQuality;shape-rendering:geometricPrecision;text-rendering:geometricPrecision"
       transform="matrix(0.30878227,0,0,0.30878227,-116.65627,-123.43077)">
      <path
         style="opacity:1"
         fill="#926259"
         d="m 563.5,656.5 c -0.667,0 -1.333,0 -2,0 0.667,-153.333 1.333,-153.333 2,0 z"
         id="path566" />
    </g>
    <g
       id="g567"
       style="clip-rule:evenodd;fill-rule:evenodd;image-rendering:optimizeQuality;shape-rendering:geometricPrecision;text-rendering:geometricPrecision"
       transform="matrix(0.30878227,0,0,0.30878227,-116.65627,-123.43077)">
      <path
         style="opacity:1"
         fill="#f0998e"
         d="m 485.5,539.5 c -0.999,40.163 -1.332,80.497 -1,121 0.591,0.651 1.257,1.318 2,2 -1.004,3.505 -1.004,6.839 0,10 0.862,2.267 2.529,3.267 5,3 -0.299,1.955 -1.299,3.289 -3,4 -1.303,-1.642 -2.636,-3.309 -4,-5 -0.99,-44.958 -1.323,-89.958 -1,-135 0.667,-1.333 1.333,-1.333 2,0 z"
         id="path567" />
    </g>
    <g
       id="g571"
       style="clip-rule:evenodd;fill-rule:evenodd;image-rendering:optimizeQuality;shape-rendering:geometricPrecision;text-rendering:geometricPrecision"
       transform="matrix(0.30878227,0,0,0.30878227,-116.65627,-123.43077)">
      <path
         style="opacity:1"
         fill="#f8ded9"
         d="m 531.5,541.5 c 0,38.333 0,76.667 0,115 1,0 2,0 3,0 0,-38.333 0,-76.667 0,-115 0.768,0.763 1.268,1.763 1.5,3 0.667,37.667 0.667,75.333 0,113 -4.094,1.868 -6.26,0.535 -6.5,-4 0.642,-37.49 1.309,-74.823 2,-112 z"
         id="path571" />
    </g>
    <g
       id="g572"
       style="clip-rule:evenodd;fill-rule:evenodd;image-rendering:optimizeQuality;shape-rendering:geometricPrecision;text-rendering:geometricPrecision"
       transform="matrix(0.30878227,0,0,0.30878227,-116.65627,-123.43077)">
      <path
         style="opacity:1"
         fill="#ac7971"
         d="m 531.5,541.5 c 1,0 2,0 3,0 0,38.333 0,76.667 0,115 -1,0 -2,0 -3,0 0,-38.333 0,-76.667 0,-115 z"
         id="path572" />
    </g>
    <g
       id="g573"
       style="clip-rule:evenodd;fill-rule:evenodd;image-rendering:optimizeQuality;shape-rendering:geometricPrecision;text-rendering:geometricPrecision"
       transform="matrix(0.30878227,0,0,0.30878227,-116.65627,-123.43077)">
      <path
         style="opacity:1"
         fill="#af8882"
         d="m 504.5,541.5 c 0.667,18.997 1,38.164 1,57.5 0,19.512 -0.667,38.678 -2,57.5 -0.332,-38.504 10e-4,-76.837 1,-115 z"
         id="path573" />
    </g>
    <g
       id="g584"
       style="clip-rule:evenodd;fill-rule:evenodd;image-rendering:optimizeQuality;shape-rendering:geometricPrecision;text-rendering:geometricPrecision"
       transform="matrix(0.30878227,0,0,0.30878227,-116.65627,-123.43077)">
      <path
         style="opacity:1"
         fill="#bd594e"
         d="m 483.5,478.5 c 2.089,2.937 3.589,6.27 4.5,10 1.23,6.77 2.73,13.437 4.5,20 -0.667,-1.333 -1.333,-2.667 -2,-4 -0.667,-1.333 -1.333,-2.667 -2,-4 -0.545,-3.313 -1.045,-6.646 -1.5,-10 -2.915,-2.634 -5.748,-2.634 -8.5,0 1.824,56.186 2.657,112.52 2.5,169 0.383,-0.556 0.883,-0.889 1.5,-1 -0.166,5.011 10e-4,10.011 0.5,15 0.383,0.556 0.883,0.889 1.5,1 1.364,1.691 2.697,3.358 4,5 -0.219,1.175 0.114,2.175 1,3 1.239,0.442 2.239,1.109 3,2 -1.333,0 -2.667,0 -4,0 -1.963,-1.32 -3.963,-2.654 -6,-4 -1,-2 -2,-4 -3,-6 0,-60.667 0,-121.333 0,-182 -1.915,-0.284 -3.581,0.049 -5,1 -1.935,0.65 -3.935,0.983 -6,1 -3.53,-6.309 -1.864,-10.975 5,-14 -0.453,0.958 -1.119,1.792 -2,2.5 1.973,0.495 3.973,0.662 6,0.5 -1.948,0.631 -3.781,1.631 -5.5,3 -0.781,1.444 -0.614,2.777 0.5,4 3.389,-2.199 7.056,-3.532 11,-4 0,-1 0,-2 0,-3 -1.333,0 -2.667,0 -4,0 0.787,-1.604 2.12,-2.271 4,-2 0,-1 0,-2 0,-3 z"
         id="path584" />
    </g>
    <g
       id="g585"
       style="clip-rule:evenodd;fill-rule:evenodd;image-rendering:optimizeQuality;shape-rendering:geometricPrecision;text-rendering:geometricPrecision"
       transform="matrix(0.30878227,0,0,0.30878227,-116.65627,-123.43077)">
      <path
         style="opacity:1"
         fill="#f8d4ce"
         d="m 477.5,483.5 c 0.667,0 1.333,0 2,0 1.333,0 2.667,0 4,0 0,1 0,2 0,3 -3.944,0.468 -7.611,1.801 -11,4 -1.114,-1.223 -1.281,-2.556 -0.5,-4 1.719,-1.369 3.552,-2.369 5.5,-3 z"
         id="path585" />
    </g>
    <g
       id="g590"
       style="clip-rule:evenodd;fill-rule:evenodd;image-rendering:optimizeQuality;shape-rendering:geometricPrecision;text-rendering:geometricPrecision"
       transform="matrix(0.30878227,0,0,0.30878227,-116.65627,-123.43077)">
      <path
         style="opacity:1"
         fill="#d46558"
         d="m 483.5,539.5 c -0.323,45.042 0.01,90.042 1,135 -0.617,-0.111 -1.117,-0.444 -1.5,-1 -0.499,-4.989 -0.666,-9.989 -0.5,-15 -0.332,-39.837 10e-4,-79.504 1,-119 z"
         id="path590" />
    </g>
    <g
       id="g591"
       style="clip-rule:evenodd;fill-rule:evenodd;image-rendering:optimizeQuality;shape-rendering:geometricPrecision;text-rendering:geometricPrecision"
       transform="matrix(0.30878227,0,0,0.30878227,-116.65627,-123.43077)">
      <path
         style="opacity:1"
         fill="#efafa7"
         d="m 485.5,539.5 c 3,0 6,0 9,0 0,0.667 0,1.333 0,2 -0.667,7 -1.333,14 -2,21 -1.101,1.348 -2.101,2.848 -3,4.5 1.073,1.313 1.74,2.813 2,4.5 -0.746,2.586 -0.746,5.252 0,8 0.174,2.193 -0.493,4.027 -2,5.5 2.6,2.873 2.6,5.706 0,8.5 2.152,2.326 3.152,4.826 3,7.5 -0.688,4.395 -1.688,8.895 -3,13.5 0.54,1.248 1.207,2.415 2,3.5 -1.922,1.46 -2.589,3.127 -2,5 0.928,0.388 1.595,1.055 2,2 -1.066,3.837 -0.733,7.67 1,11.5 -0.525,0.692 -1.192,1.192 -2,1.5 1.811,4.849 0.811,9.015 -3,12.5 0.525,0.692 1.192,1.192 2,1.5 -1.303,3.104 -2.97,5.937 -5,8.5 -0.332,-40.503 10e-4,-80.837 1,-121 z"
         id="path591" />
    </g>
    <g
       id="g592"
       style="clip-rule:evenodd;fill-rule:evenodd;image-rendering:optimizeQuality;shape-rendering:geometricPrecision;text-rendering:geometricPrecision"
       transform="matrix(0.30878227,0,0,0.30878227,-116.65627,-123.43077)">
      <path
         style="opacity:1"
         fill="#a16e67"
         d="m 517.5,541.5 c 1.333,18.822 2,37.988 2,57.5 -0.333,19.167 -0.667,38.333 -1,57.5 -1,-38.328 -1.333,-76.661 -1,-115 z"
         id="path592" />
    </g>
    <g
       id="g596"
       style="clip-rule:evenodd;fill-rule:evenodd;image-rendering:optimizeQuality;shape-rendering:geometricPrecision;text-rendering:geometricPrecision"
       transform="matrix(0.30878227,0,0,0.30878227,-116.65627,-123.43077)">
      <path
         style="opacity:1"
         fill="#ecaea9"
         d="m 572.5,539.5 c 0.667,0.333 1.333,0.667 2,1 0.256,2.276 1.59,3.443 4,3.5 -0.333,0.333 -0.667,0.667 -1,1 3.384,5.983 4.551,12.15 3.5,18.5 -0.374,0.916 -0.874,1.75 -1.5,2.5 0.985,4.109 0.985,8.442 0,13 0.738,11.898 1.405,23.565 2,35 -0.667,1 -1.333,2 -2,3 0.744,2.851 0.744,5.517 0,8 0.667,4 1.333,8 2,12 -0.746,2.093 -1.079,4.093 -1,6 0.544,0.717 1.211,1.217 2,1.5 0,10 0,20 0,30 -0.698,2.167 -2.031,4 -4,5.5 -1.288,0.239 -2.288,-0.261 -3,-1.5 -0.393,-1.784 -1.059,-3.45 -2,-5 4.585,1.579 5.918,0.079 4,-4.5 -1.245,-0.791 -2.578,-1.291 -4,-1.5 0,-0.667 0,-1.333 0,-2 1.524,-2.707 2.524,-5.707 3,-9 -0.525,-0.692 -1.192,-1.192 -2,-1.5 1.149,-1.604 1.149,-3.27 0,-5 0.444,-1.762 0.944,-1.595 1.5,0.5 -0.419,-4.269 0.081,-8.602 1.5,-13 0.896,1.006 1.562,1.006 2,0 -0.598,-1.295 -1.098,-2.628 -1.5,-4 -0.556,2.095 -1.056,2.262 -1.5,0.5 -0.509,-2.579 0.158,-5.079 2,-7.5 -0.346,-1.196 -0.846,-1.196 -1.5,0 -0.863,-2.249 -0.363,-4.082 1.5,-5.5 -2.013,-0.875 -2.013,-2.209 0,-4 -1.844,-4.527 -3.511,-9.194 -5,-14 -0.27,-19.671 0.063,-39.337 1,-59 -0.544,-0.717 -1.211,-1.217 -2,-1.5 0,-1 0,-2 0,-3 z"
         id="path596" />
    </g>
    <g
       id="g597"
       style="clip-rule:evenodd;fill-rule:evenodd;image-rendering:optimizeQuality;shape-rendering:geometricPrecision;text-rendering:geometricPrecision"
       transform="matrix(0.30878227,0,0,0.30878227,-116.65627,-123.43077)">
      <path
         style="opacity:1"
         fill="#c0594d"
         d="m 598.5,493.5 c -0.774,0.647 -1.774,0.98 -3,1 -2.678,-0.675 -5.344,-1.342 -8,-2 0.167,60.668 0,121.334 -0.5,182 -1.461,3.76 -3.961,6.593 -7.5,8.5 -7.718,1.914 -15.384,3.414 -23,4.5 -0.333,0 -0.667,0 -1,0 -16.842,0.33 -33.508,-0.003 -50,-1 15.337,0.167 30.67,0 46,-0.5 7.527,-0.844 14.86,-2.011 22,-3.5 1.676,-0.683 2.343,-2.017 2,-4 0.712,1.239 1.712,1.739 3,1.5 1.969,-1.5 3.302,-3.333 4,-5.5 0.999,-45.164 1.332,-90.497 1,-136 1.984,-14.964 2.651,-30.297 2,-46 0.304,-0.65 0.637,-1.317 1,-2 -2.638,-1.333 -4.971,-1 -7,1 -0.116,-3.41 1.55,-4.744 5,-4 3.585,1.083 7.251,1.749 11,2 0.768,-0.763 1.268,-1.763 1.5,-3 1.202,2.177 1.702,4.511 1.5,7 z"
         id="path597" />
    </g>
    <g
       id="g598"
       style="clip-rule:evenodd;fill-rule:evenodd;image-rendering:optimizeQuality;shape-rendering:geometricPrecision;text-rendering:geometricPrecision"
       transform="matrix(0.30878227,0,0,0.30878227,-116.65627,-123.43077)">
      <path
         style="opacity:1"
         fill="#e38277"
         d="m 581.5,539.5 c 0.342,-0.838 1.008,-1.172 2,-1 0.332,45.503 -10e-4,90.836 -1,136 0,-10 0,-20 0,-30 0.332,-35.171 -0.002,-70.171 -1,-105 z"
         id="path598" />
    </g>
    <g
       id="g603"
       style="clip-rule:evenodd;fill-rule:evenodd;image-rendering:optimizeQuality;shape-rendering:geometricPrecision;text-rendering:geometricPrecision"
       transform="matrix(0.30878227,0,0,0.30878227,-116.65627,-123.43077)">
      <path
         style="opacity:1"
         fill="#b57a71"
         d="m 546.5,540.5 c 1,0 2,0 3,0 0,38.667 0,77.333 0,116 -1,0 -2,0 -3,0 0,-38.667 0,-77.333 0,-116 z"
         id="path603" />
    </g>
    <g
       id="g607"
       style="clip-rule:evenodd;fill-rule:evenodd;image-rendering:optimizeQuality;shape-rendering:geometricPrecision;text-rendering:geometricPrecision"
       transform="matrix(0.30878227,0,0,0.30878227,-116.65627,-123.43077)">
      <path
         style="opacity:1"
         fill="#e2b0af"
         d="m 572.5,542.5 c 0.789,0.283 1.456,0.783 2,1.5 -0.937,19.663 -1.27,39.329 -1,59 1.489,4.806 3.156,9.473 5,14 -2.013,1.791 -2.013,3.125 0,4 -1.863,1.418 -2.363,3.251 -1.5,5.5 0.654,-1.196 1.154,-1.196 1.5,0 -1.842,2.421 -2.509,4.921 -2,7.5 0.444,1.762 0.944,1.595 1.5,-0.5 0.402,1.372 0.902,2.705 1.5,4 -0.438,1.006 -1.104,1.006 -2,0 -1.419,4.398 -1.919,8.731 -1.5,13 -0.556,-2.095 -1.056,-2.262 -1.5,-0.5 1.149,1.73 1.149,3.396 0,5 0.808,0.308 1.475,0.808 2,1.5 -0.476,3.293 -1.476,6.293 -3,9 0,-0.333 0,-0.667 0,-1 -0.129,-1.716 -0.462,-3.383 -1,-5 0,-39 0,-78 0,-117 z"
         id="path607" />
    </g>
    <g
       id="g609"
       style="clip-rule:evenodd;fill-rule:evenodd;image-rendering:optimizeQuality;shape-rendering:geometricPrecision;text-rendering:geometricPrecision"
       transform="matrix(0.30878227,0,0,0.30878227,-116.65627,-123.43077)">
      <path
         style="opacity:1"
         fill="#f0afa8"
         d="m 474.5,493.5 c 1.419,-0.951 3.085,-1.284 5,-1 0,60.667 0,121.333 0,182 -0.999,-60.164 -1.332,-120.498 -1,-181 -1.333,0 -2.667,0 -4,0 z"
         id="path609" />
    </g>
    <g
       id="g627"
       style="clip-rule:evenodd;fill-rule:evenodd;image-rendering:optimizeQuality;shape-rendering:geometricPrecision;text-rendering:geometricPrecision"
       transform="matrix(0.30878227,0,0,0.30878227,-116.65627,-123.43077)">
      <path
         style="opacity:1"
         fill="#e6c5c0"
         d="m 494.5,541.5 c 0.299,41.017 -0.034,82.017 -1,123 26.667,0 53.333,0 80,0 0,0.333 0,0.667 0,1 -24.002,-0.167 -48.002,0 -72,0.5 -1.333,0.333 -2.667,0.667 -4,1 2.646,0.497 5.313,0.664 8,0.5 -0.763,0.768 -1.763,1.268 -3,1.5 0.556,0.383 0.889,0.883 1,1.5 -2.687,-0.164 -5.354,0.003 -8,0.5 -1.449,1.102 -2.782,2.269 -4,3.5 -2.55,-0.384 -3.883,-1.884 -4,-4.5 3.897,-5.826 5.73,-12.326 5.5,-19.5 0.222,-29.235 0.056,-58.568 -0.5,-88 0.667,-7 1.333,-14 2,-21 z"
         id="path627" />
    </g>
    <g
       id="g628"
       style="clip-rule:evenodd;fill-rule:evenodd;image-rendering:optimizeQuality;shape-rendering:geometricPrecision;text-rendering:geometricPrecision"
       transform="matrix(0.30878227,0,0,0.30878227,-116.65627,-123.43077)">
      <path
         style="opacity:1"
         fill="#d0afa9"
         d="m 573.5,665.5 c 0,0.667 0,1.333 0,2 -22.667,0 -45.333,0 -68,0 -2.687,0.164 -5.354,-0.003 -8,-0.5 1.333,-0.333 2.667,-0.667 4,-1 23.998,-0.5 47.998,-0.667 72,-0.5 z"
         id="path628" />
    </g>
    <g
       id="g629"
       style="clip-rule:evenodd;fill-rule:evenodd;image-rendering:optimizeQuality;shape-rendering:geometricPrecision;text-rendering:geometricPrecision"
       transform="matrix(0.30878227,0,0,0.30878227,-116.65627,-123.43077)">
      <path
         style="opacity:1"
         fill="#f5dad5"
         d="m 505.5,667.5 c 22.667,0 45.333,0 68,0 1.422,0.209 2.755,0.709 4,1.5 1.918,4.579 0.585,6.079 -4,4.5 -4.139,-3.349 -8.805,-4.015 -14,-2 -1,0 -2,0 -3,0 0.304,-0.65 0.637,-1.317 1,-2 -14,-1.333 -28,-1.333 -42,0 0.743,0.682 1.409,1.349 2,2 -4,0 -8,0 -12,0 -0.992,0.172 -1.658,-0.162 -2,-1 -0.111,-0.617 -0.444,-1.117 -1,-1.5 1.237,-0.232 2.237,-0.732 3,-1.5 z"
         id="path629" />
    </g>
    <g
       id="g630"
       style="clip-rule:evenodd;fill-rule:evenodd;image-rendering:optimizeQuality;shape-rendering:geometricPrecision;text-rendering:geometricPrecision"
       transform="matrix(0.30878227,0,0,0.30878227,-116.65627,-123.43077)">
      <path
         style="opacity:1"
         fill="#faf0ed"
         d="m 556.5,671.5 c -13.001,1.296 -26.001,1.296 -39,0 -0.591,-0.651 -1.257,-1.318 -2,-2 14,-1.333 28,-1.333 42,0 -0.363,0.683 -0.696,1.35 -1,2 z"
         id="path630" />
    </g>
    <g
       id="g635"
       style="clip-rule:evenodd;fill-rule:evenodd;image-rendering:optimizeQuality;shape-rendering:geometricPrecision;text-rendering:geometricPrecision"
       transform="matrix(0.30878227,0,0,0.30878227,-116.65627,-123.43077)">
      <path
         style="opacity:1"
         fill="#edb3ac"
         d="m 505.5,671.5 c 4,0 8,0 12,0 12.999,1.296 25.999,1.296 39,0 1,0 2,0 3,0 -11.121,1.674 -22.455,2.341 -34,2 -6.846,-0.318 -13.513,-0.985 -20,-2 z"
         id="path635" />
    </g>
    <g
       id="g636"
       style="clip-rule:evenodd;fill-rule:evenodd;image-rendering:optimizeQuality;shape-rendering:geometricPrecision;text-rendering:geometricPrecision"
       transform="matrix(0.30878227,0,0,0.30878227,-116.65627,-123.43077)">
      <path
         style="opacity:1"
         fill="#c3463b"
         d="m 503.5,670.5 c 0.342,0.838 1.008,1.172 2,1 6.487,1.015 13.154,1.682 20,2 7.816,0.992 15.816,1.326 24,1 -17.502,0.741 -35.169,0.907 -53,0.5 -1.658,1.624 -3.325,3.291 -5,5 1.123,1.044 2.456,1.71 4,2 25.979,4.341 51.979,4.507 78,0.5 -7.14,1.489 -14.473,2.656 -22,3.5 -15.33,0.5 -30.663,0.667 -46,0.5 -0.667,0 -1.333,0 -2,0 -3.521,-0.807 -7.188,-1.474 -11,-2 -0.761,-0.891 -1.761,-1.558 -3,-2 -0.886,-0.825 -1.219,-1.825 -1,-3 1.701,-0.711 2.701,-2.045 3,-4 0,-0.333 0,-0.667 0,-1 1.218,-1.231 2.551,-2.398 4,-3.5 2.646,-0.497 5.313,-0.664 8,-0.5 z"
         id="path636" />
    </g>
    <g
       id="g637"
       style="clip-rule:evenodd;fill-rule:evenodd;image-rendering:optimizeQuality;shape-rendering:geometricPrecision;text-rendering:geometricPrecision"
       transform="matrix(0.30878227,0,0,0.30878227,-116.65627,-123.43077)">
      <path
         style="opacity:1"
         fill="#b75145"
         d="m 573.5,673.5 c 0.941,1.55 1.607,3.216 2,5 -2.201,-0.358 -3.535,-1.692 -4,-4 -7.338,-1.185 -14.671,-1.185 -22,0 -8.184,0.326 -16.184,-0.008 -24,-1 11.545,0.341 22.879,-0.326 34,-2 5.195,-2.015 9.861,-1.349 14,2 z"
         id="path637" />
    </g>
    <g
       id="g647"
       style="clip-rule:evenodd;fill-rule:evenodd;image-rendering:optimizeQuality;shape-rendering:geometricPrecision;text-rendering:geometricPrecision"
       transform="matrix(0.30878227,0,0,0.30878227,-116.65627,-123.43077)">
      <path
         style="opacity:1"
         fill="#d94135"
         d="m 575.5,678.5 c 0.343,1.983 -0.324,3.317 -2,4 -26.021,4.007 -52.021,3.841 -78,-0.5 -1.544,-0.29 -2.877,-0.956 -4,-2 1.675,-1.709 3.342,-3.376 5,-5 17.831,0.407 35.498,0.241 53,-0.5 7.329,-1.185 14.662,-1.185 22,0 0.465,2.308 1.799,3.642 4,4 z"
         id="path647" />
    </g>
    <g
       id="g649"
       style="clip-rule:evenodd;fill-rule:evenodd;image-rendering:optimizeQuality;shape-rendering:geometricPrecision;text-rendering:geometricPrecision"
       transform="matrix(0.30878227,0,0,0.30878227,-116.65627,-123.43077)">
      <path
         style="opacity:1"
         fill="#f1bfba"
         d="m 488.5,684.5 c 1.333,0 2.667,0 4,0 3.812,0.526 7.479,1.193 11,2 -3.333,0 -6.667,0 -10,0 -1.806,-0.524 -3.472,-1.191 -5,-2 z"
         id="path649" />
    </g>
    <g
       id="g651"
       style="clip-rule:evenodd;fill-rule:evenodd;image-rendering:optimizeQuality;shape-rendering:geometricPrecision;text-rendering:geometricPrecision"
       transform="matrix(0.30878227,0,0,0.30878227,-116.65627,-123.43077)">
      <path
         style="opacity:1"
         fill="#f5cfca"
         d="m 493.5,686.5 c 3.333,0 6.667,0 10,0 0.667,0 1.333,0 2,0 16.492,0.997 33.158,1.33 50,1 -1.452,0.802 -3.118,1.302 -5,1.5 -18.018,0.719 -36.018,0.385 -54,-1 -1.237,-0.232 -2.237,-0.732 -3,-1.5 z"
         id="path651" />
    </g>
  </g>
</svg>
