<?xml version="1.0" encoding="UTF-8" standalone="no"?>
<!-- Created with Inkscape (http://www.inkscape.org/) -->

<svg
   width="96mm"
   height="96mm"
   viewBox="0 0 96 96"
   version="1.1"
   id="svg1"
   inkscape:version="1.4.2 (ebf0e940, 2025-05-08)"
   sodipodi:docname="finish.svg"
   xmlns:inkscape="http://www.inkscape.org/namespaces/inkscape"
   xmlns:sodipodi="http://sodipodi.sourceforge.net/DTD/sodipodi-0.dtd"
   xmlns="http://www.w3.org/2000/svg"
   xmlns:svg="http://www.w3.org/2000/svg">
  <sodipodi:namedview
     id="namedview1"
     pagecolor="#ffffff"
     bordercolor="#000000"
     borderopacity="0.25"
     inkscape:showpageshadow="2"
     inkscape:pageopacity="0.0"
     inkscape:pagecheckerboard="0"
     inkscape:deskcolor="#d1d1d1"
     inkscape:document-units="mm"
     inkscape:zoom="0.80444024"
     inkscape:cx="397.17059"
     inkscape:cy="362.36377"
     inkscape:window-width="1920"
     inkscape:window-height="1052"
     inkscape:window-x="0"
     inkscape:window-y="28"
     inkscape:window-maximized="0"
     inkscape:current-layer="layer1" />
  <defs
     id="defs1" />
  <g
     inkscape:label="Layer 1"
     inkscape:groupmode="layer"
     id="layer1">
    <g
       id="g373"
       style="clip-rule:evenodd;fill-rule:evenodd;image-rendering:optimizeQuality;shape-rendering:geometricPrecision;text-rendering:geometricPrecision"
       transform="matrix(0.32223851,0,0,0.32223851,-238.19175,-127.7223)">
      <path
         style="opacity:1"
         fill="#f7dadb"
         d="m 925.5,426.5 c -2.982,-0.463 -5.982,-0.796 -9,-1 -8.636,-2.854 -17.636,-4.187 -27,-4 -10.345,-0.187 -20.345,1.146 -30,4 -1,0 -2,0 -3,0 0.929,-0.815 1.929,-1.648 3,-2.5 20.004,-3.333 40.004,-3.333 60,0 2.525,0.424 4.525,1.59 6,3.5 z"
         id="path373" />
    </g>
    <g
       id="g374"
       style="clip-rule:evenodd;fill-rule:evenodd;image-rendering:optimizeQuality;shape-rendering:geometricPrecision;text-rendering:geometricPrecision"
       transform="matrix(0.32223851,0,0,0.32223851,-238.19175,-127.7223)">
      <path
         style="opacity:1"
         fill="#8f3d3b"
         d="m 916.5,425.5 c -18.986,-2.549 -37.986,-2.549 -57,0 9.655,-2.854 19.655,-4.187 30,-4 9.364,-0.187 18.364,1.146 27,4 z"
         id="path374" />
    </g>
    <g
       id="g380"
       style="clip-rule:evenodd;fill-rule:evenodd;image-rendering:optimizeQuality;shape-rendering:geometricPrecision;text-rendering:geometricPrecision"
       transform="matrix(0.32223851,0,0,0.32223851,-238.19175,-127.7223)">
      <path
         style="opacity:1"
         fill="#9f2528"
         d="m 916.5,425.5 c 3.018,0.204 6.018,0.537 9,1 1.761,0.813 3.428,1.813 5,3 7.398,3.535 14.731,7.368 22,11.5 -0.667,0.333 -1.333,0.667 -2,1 2.213,2.274 4.879,3.774 8,4.5 0.929,1.189 1.262,2.522 1,4 -3.469,0.613 -5.469,-0.721 -6,-4 -4.045,-1.364 -8.045,-2.697 -12,-4 -1.928,-1.974 -4.261,-3.474 -7,-4.5 -29.652,-12.353 -59.318,-12.52 -89,-0.5 -0.798,0.457 -1.131,1.124 -1,2 -0.333,0 -0.667,0 -1,0 -2.064,0.187 -4.064,0.687 -6,1.5 -7.913,4.786 -15.913,9.286 -24,13.5 0,1.333 0,2.667 0,4 -5.039,5.037 -9.706,10.371 -14,16 -0.333,0 -0.667,0 -1,0 -3.253,3.594 -6.587,7.261 -10,11 -2.494,4.335 -4.494,9.002 -6,14 -2.427,2.79 -4.427,2.624 -6,-0.5 3.115,-6.055 5.782,-12.221 8,-18.5 8.334,-10.844 17.667,-21.011 28,-30.5 2.562,-2.413 5.562,-4.08 9,-5 1.383,-1.271 2.383,-2.771 3,-4.5 0.342,-0.838 1.008,-1.172 2,-1 5.839,-1.916 11.506,-4.416 17,-7.5 3.92,-1.313 7.92,-2.313 12,-3 1.091,-1.55 2.424,-2.717 4,-3.5 19.014,-2.549 38.014,-2.549 57,0 z"
         id="path380" />
    </g>
    <g
       id="g381"
       style="clip-rule:evenodd;fill-rule:evenodd;image-rendering:optimizeQuality;shape-rendering:geometricPrecision;text-rendering:geometricPrecision"
       transform="matrix(0.32223851,0,0,0.32223851,-238.19175,-127.7223)">
      <path
         style="opacity:1"
         fill="#e6b8b9"
         d="m 925.5,426.5 c 1.699,-0.16 3.366,0.006 5,0.5 4.459,1.524 8.459,3.691 12,6.5 -4.01,-1.34 -8.01,-2.674 -12,-4 -1.572,-1.187 -3.239,-2.187 -5,-3 z"
         id="path381" />
    </g>
    <g
       id="g382"
       style="clip-rule:evenodd;fill-rule:evenodd;image-rendering:optimizeQuality;shape-rendering:geometricPrecision;text-rendering:geometricPrecision"
       transform="matrix(0.32223851,0,0,0.32223851,-238.19175,-127.7223)">
      <path
         style="opacity:1"
         fill="#f0c6c7"
         d="m 855.5,425.5 c -4.908,2.148 -9.908,4.148 -15,6 1.074,-1.784 2.74,-2.951 5,-3.5 3.277,-1.143 6.61,-1.977 10,-2.5 z"
         id="path382" />
    </g>
    <g
       id="g383"
       style="clip-rule:evenodd;fill-rule:evenodd;image-rendering:optimizeQuality;shape-rendering:geometricPrecision;text-rendering:geometricPrecision"
       transform="matrix(0.32223851,0,0,0.32223851,-238.19175,-127.7223)">
      <path
         style="opacity:1"
         fill="#8b3030"
         d="m 941.5,442.5 c -3.779,-1.058 -7.446,-2.391 -11,-4 -6.565,-3.184 -13.565,-5.184 -21,-6 -2.131,-0.814 -4.464,-1.314 -7,-1.5 -9.667,-0.667 -19.333,-0.667 -29,0 -5.016,0.254 -9.683,1.421 -14,3.5 -0.333,0 -0.667,0 -1,0 -4.823,1.274 -9.49,2.941 -14,5 -0.131,-0.876 0.202,-1.543 1,-2 29.682,-12.02 59.348,-11.853 89,0.5 2.739,1.026 5.072,2.526 7,4.5 z"
         id="path383" />
    </g>
    <g
       id="g386"
       style="clip-rule:evenodd;fill-rule:evenodd;image-rendering:optimizeQuality;shape-rendering:geometricPrecision;text-rendering:geometricPrecision"
       transform="matrix(0.32223851,0,0,0.32223851,-238.19175,-127.7223)">
      <path
         style="opacity:1"
         fill="#f9f8f8"
         d="m 909.5,432.5 c 7.435,0.816 14.435,2.816 21,6 3.594,2.398 7.26,4.898 11,7.5 4.104,2.386 8.438,4.219 13,5.5 7.589,5.251 14.589,11.251 21,18 7.547,8.878 13.88,18.545 19,29 1.513,5.053 3.18,10.053 5,15 1.02,7.306 2.19,14.639 3.5,22 0.5,7.659 0.67,15.326 0.5,23 0.13,1.792 -0.2,3.458 -1,5 -3.107,4.366 -4.607,9.366 -4.5,15 -2.999,6.832 -5.499,13.832 -7.5,21 -0.63,2.25 -1.63,4.25 -3,6 -1.871,0.359 -3.371,1.359 -4.5,3 -3.192,3.877 -5.692,8.21 -7.5,13 0,0.667 -0.333,1 -1,1 -3.217,1.438 -6.217,3.105 -9,5 0,1.333 0,2.667 0,4 -4.536,0.203 -7.202,2.536 -8,7 -6.336,5.842 -13.669,10.175 -22,13 -9.443,1.995 -18.776,4.495 -28,7.5 -12.333,2 -24.667,2 -37,0 -9.095,-3.002 -18.428,-5.502 -28,-7.5 -2.985,-0.826 -5.651,-2.159 -8,-4 -1.276,-2.087 -2.776,-4.087 -4.5,-6 -0.333,0.333 -0.667,0.667 -1,1 -2.436,-3.95 -5.936,-5.95 -10.5,-6 -1.911,-0.575 -3.578,-1.575 -5,-3 -2.333,-2.667 -4.667,-5.333 -7,-8 -1.75,-4.834 -4.083,-9.5 -7,-14 -3.087,-1.199 -5.753,-2.865 -8,-5 -2.682,-4.702 -5.349,-9.369 -8,-14 -2.612,-7.168 -4.612,-14.502 -6,-22 -1.748,-12.948 -2.248,-25.948 -1.5,-39 2.243,-10.124 4.743,-20.124 7.5,-30 0.876,0.131 1.543,-0.202 2,-1 2.216,-4.812 4.716,-9.479 7.5,-14 4.125,-2.824 6.291,-6.824 6.5,-12 4.294,-5.629 8.961,-10.963 14,-16 0.667,0 1.333,0 2,0 6.665,-4.623 13.665,-8.79 21,-12.5 0.752,-0.671 1.086,-1.504 1,-2.5 1.699,0.16 3.366,-0.006 5,-0.5 5.394,-2.946 10.727,-5.779 16,-8.5 0.333,0 0.667,0 1,0 5.216,0.366 10.216,-0.468 15,-2.5 11.678,-0.566 23.344,-0.4 35,0.5 z"
         id="path386" />
    </g>
    <g
       id="g387"
       style="clip-rule:evenodd;fill-rule:evenodd;image-rendering:optimizeQuality;shape-rendering:geometricPrecision;text-rendering:geometricPrecision"
       transform="matrix(0.32223851,0,0,0.32223851,-238.19175,-127.7223)">
      <path
         style="opacity:1"
         fill="#8e3233"
         d="m 855.5,425.5 c 0.333,0 0.667,0 1,0 1,0 2,0 3,0 -1.576,0.783 -2.909,1.95 -4,3.5 -4.08,0.687 -8.08,1.687 -12,3 -5.494,3.084 -11.161,5.584 -17,7.5 4.306,-3.157 8.972,-5.824 14,-8 5.092,-1.852 10.092,-3.852 15,-6 z"
         id="path387" />
    </g>
    <g
       id="g388"
       style="clip-rule:evenodd;fill-rule:evenodd;image-rendering:optimizeQuality;shape-rendering:geometricPrecision;text-rendering:geometricPrecision"
       transform="matrix(0.32223851,0,0,0.32223851,-238.19175,-127.7223)">
      <path
         style="opacity:1"
         fill="#ecc5c4"
         d="m 909.5,432.5 c -11.656,-0.9 -23.322,-1.066 -35,-0.5 -4.784,2.032 -9.784,2.866 -15,2.5 4.317,-2.079 8.984,-3.246 14,-3.5 9.667,-0.667 19.333,-0.667 29,0 2.536,0.186 4.869,0.686 7,1.5 z"
         id="path388" />
    </g>
    <g
       id="g392"
       style="clip-rule:evenodd;fill-rule:evenodd;image-rendering:optimizeQuality;shape-rendering:geometricPrecision;text-rendering:geometricPrecision"
       transform="matrix(0.32223851,0,0,0.32223851,-238.19175,-127.7223)">
      <path
         style="opacity:1"
         fill="#f4d4d4"
         d="m 858.5,434.5 c -5.273,2.721 -10.606,5.554 -16,8.5 -1.634,0.494 -3.301,0.66 -5,0.5 2,-1.333 4,-2.667 6,-4 0.333,0 0.667,0 1,0 4.51,-2.059 9.177,-3.726 14,-5 z"
         id="path392" />
    </g>
    <g
       id="g407"
       style="clip-rule:evenodd;fill-rule:evenodd;image-rendering:optimizeQuality;shape-rendering:geometricPrecision;text-rendering:geometricPrecision"
       transform="matrix(0.32223851,0,0,0.32223851,-238.19175,-127.7223)">
      <path
         style="opacity:1"
         fill="#f6d7d9"
         d="m 815.5,445.5 c -4.347,4.345 -9.014,8.345 -14,12 -0.214,-1.644 0.12,-3.144 1,-4.5 3.078,-2.078 6.078,-4.245 9,-6.5 1.236,-0.746 2.57,-1.079 4,-1 z"
         id="path407" />
    </g>
    <g
       id="g408"
       style="clip-rule:evenodd;fill-rule:evenodd;image-rendering:optimizeQuality;shape-rendering:geometricPrecision;text-rendering:geometricPrecision"
       transform="matrix(0.32223851,0,0,0.32223851,-238.19175,-127.7223)">
      <path
         style="opacity:1"
         fill="#8d3032"
         d="m 843.5,439.5 c -2,1.333 -4,2.667 -6,4 -8.382,3.52 -15.715,8.52 -22,15 -0.667,0 -1.333,0 -2,0 0,-1.333 0,-2.667 0,-4 8.087,-4.214 16.087,-8.714 24,-13.5 1.936,-0.813 3.936,-1.313 6,-1.5 z"
         id="path408" />
    </g>
    <g
       id="g409"
       style="clip-rule:evenodd;fill-rule:evenodd;image-rendering:optimizeQuality;shape-rendering:geometricPrecision;text-rendering:geometricPrecision"
       transform="matrix(0.32223851,0,0,0.32223851,-238.19175,-127.7223)">
      <path
         style="opacity:1"
         fill="#f7d8da"
         d="m 930.5,438.5 c 3.554,1.609 7.221,2.942 11,4 4.508,2.753 8.841,5.753 13,9 -4.562,-1.281 -8.896,-3.114 -13,-5.5 -3.74,-2.602 -7.406,-5.102 -11,-7.5 z"
         id="path409" />
    </g>
    <g
       id="g410"
       style="clip-rule:evenodd;fill-rule:evenodd;image-rendering:optimizeQuality;shape-rendering:geometricPrecision;text-rendering:geometricPrecision"
       transform="matrix(0.32223851,0,0,0.32223851,-238.19175,-127.7223)">
      <path
         style="opacity:1"
         fill="#962f2f"
         d="m 930.5,429.5 c 3.99,1.326 7.99,2.66 12,4 13.697,6.692 25.697,15.692 36,27 -5.383,-4.039 -11.05,-7.706 -17,-11 2.161,6.555 6.494,11.888 13,16 0.746,1.236 1.079,2.57 1,4 -6.411,-6.749 -13.411,-12.749 -21,-18 -4.159,-3.247 -8.492,-6.247 -13,-9 3.955,1.303 7.955,2.636 12,4 0.531,3.279 2.531,4.613 6,4 0.262,-1.478 -0.071,-2.811 -1,-4 -3.121,-0.726 -5.787,-2.226 -8,-4.5 0.667,-0.333 1.333,-0.667 2,-1 -7.269,-4.132 -14.602,-7.965 -22,-11.5 z"
         id="path410" />
    </g>
    <g
       id="g412"
       style="clip-rule:evenodd;fill-rule:evenodd;image-rendering:optimizeQuality;shape-rendering:geometricPrecision;text-rendering:geometricPrecision"
       transform="matrix(0.32223851,0,0,0.32223851,-238.19175,-127.7223)">
      <path
         style="opacity:1"
         fill="#8b2e30"
         d="m 824.5,440.5 c -0.617,1.729 -1.617,3.229 -3,4.5 -3.438,0.92 -6.438,2.587 -9,5 -10.333,9.489 -19.666,19.656 -28,30.5 5.256,-7.93 10.923,-15.596 17,-23 4.986,-3.655 9.653,-7.655 14,-12 2.866,-1.932 5.866,-3.599 9,-5 z"
         id="path412" />
    </g>
    <g
       id="g413"
       style="clip-rule:evenodd;fill-rule:evenodd;image-rendering:optimizeQuality;shape-rendering:geometricPrecision;text-rendering:geometricPrecision"
       transform="matrix(0.32223851,0,0,0.32223851,-238.19175,-127.7223)">
      <path
         style="opacity:1"
         fill="#f5d7d9"
         d="m 837.5,443.5 c 0.086,0.996 -0.248,1.829 -1,2.5 -7.335,3.71 -14.335,7.877 -21,12.5 6.285,-6.48 13.618,-11.48 22,-15 z"
         id="path413" />
    </g>
    <g
       id="g421"
       style="clip-rule:evenodd;fill-rule:evenodd;image-rendering:optimizeQuality;shape-rendering:geometricPrecision;text-rendering:geometricPrecision"
       transform="matrix(0.32223851,0,0,0.32223851,-238.19175,-127.7223)">
      <path
         style="opacity:1"
         fill="#8c3435"
         d="m 978.5,460.5 c 6.544,6.092 11.877,13.092 16,21 -0.739,0.131 -1.406,-0.036 -2,-0.5 -0.912,-2.205 -2.245,-4.038 -4,-5.5 -3.367,-5.023 -6.7,-10.023 -10,-15 z"
         id="path421" />
    </g>
    <g
       id="g426"
       style="clip-rule:evenodd;fill-rule:evenodd;image-rendering:optimizeQuality;shape-rendering:geometricPrecision;text-rendering:geometricPrecision"
       transform="matrix(0.32223851,0,0,0.32223851,-238.19175,-127.7223)">
      <path
         style="opacity:1"
         fill="#a42527"
         d="m 978.5,460.5 c 3.3,4.977 6.633,9.977 10,15 1.465,6.098 0.465,6.431 -3,1 -3.146,-2.664 -6.479,-4.997 -10,-7 0.079,-1.43 -0.254,-2.764 -1,-4 -6.506,-4.112 -10.839,-9.445 -13,-16 5.95,3.294 11.617,6.961 17,11 z"
         id="path426" />
    </g>
    <g
       id="g427"
       style="clip-rule:evenodd;fill-rule:evenodd;image-rendering:optimizeQuality;shape-rendering:geometricPrecision;text-rendering:geometricPrecision"
       transform="matrix(0.32223851,0,0,0.32223851,-238.19175,-127.7223)">
      <path
         style="opacity:1"
         fill="#efcfcf"
         d="m 859.5,475.5 c 9.646,-1.621 19.313,-1.121 29,1.5 1.683,1.286 3.349,2.453 5,3.5 -6.059,-1.181 -12.059,-2.681 -18,-4.5 -5.323,-0.499 -10.656,-0.666 -16,-0.5 z"
         id="path427" />
    </g>
    <g
       id="g431"
       style="clip-rule:evenodd;fill-rule:evenodd;image-rendering:optimizeQuality;shape-rendering:geometricPrecision;text-rendering:geometricPrecision"
       transform="matrix(0.32223851,0,0,0.32223851,-238.19175,-127.7223)">
      <path
         style="opacity:1"
         fill="#f4d8d8"
         d="m 798.5,474.5 c 0.333,0 0.667,0 1,0 -0.209,5.176 -2.375,9.176 -6.5,12 -2.784,4.521 -5.284,9.188 -7.5,14 -0.457,0.798 -1.124,1.131 -2,1 3.769,-9.748 8.769,-18.748 15,-27 z"
         id="path431" />
    </g>
    <g
       id="g432"
       style="clip-rule:evenodd;fill-rule:evenodd;image-rendering:optimizeQuality;shape-rendering:geometricPrecision;text-rendering:geometricPrecision"
       transform="matrix(0.32223851,0,0,0.32223851,-238.19175,-127.7223)">
      <path
         style="opacity:1"
         fill="#8e3031"
         d="m 956.5,479.5 c 3.03,17.863 6.363,35.53 10,53 0,2 0,4 0,6 -1.086,-0.12 -1.753,-0.787 -2,-2 -0.584,-4.232 -1.584,-8.232 -3,-12 -0.046,-8.41 -1.712,-16.41 -5,-24 -1.503,1.09 -1.836,2.257 -1,3.5 -4.932,3.931 -10.599,6.098 -17,6.5 4.96,-2.147 9.627,-4.814 14,-8 1.195,-0.366 1.861,-1.199 2,-2.5 -0.927,-5.875 -2.093,-11.708 -3.5,-17.5 -0.414,-0.457 -0.914,-0.791 -1.5,-1 -3.725,2.098 -7.392,4.098 -11,6 -3.05,0.795 -6.05,1.795 -9,3 -0.333,1 -0.667,2 -1,3 1.065,5.693 2.232,11.36 3.5,17 1.776,1.036 3.609,1.036 5.5,0 -1.492,1.107 -2.492,2.607 -3,4.5 0.833,5.166 1.667,10.333 2.5,15.5 3.883,1.307 7.383,0.64 10.5,-2 2,-0.333 4,-0.667 6,-1 -1.465,1.237 -3.132,2.237 -5,3 -3.344,1.008 -6.677,2.008 -10,3 -0.996,0.086 -1.829,-0.248 -2.5,-1 -0.191,-2.208 -0.691,-4.208 -1.5,-6 -0.431,-3.837 -1.098,-7.503 -2,-11 0.172,-0.992 -0.162,-1.658 -1,-2 -8.287,-0.505 -16.62,-1.505 -25,-3 -0.478,-5.227 -1.478,-10.227 -3,-15 0,-1.667 0,-3.333 0,-5 1.893,5.999 3.56,12.166 5,18.5 6.885,1.425 13.885,1.925 21,1.5 -0.394,-5.684 -1.394,-11.184 -3,-16.5 -0.061,-2.261 0.606,-4.261 2,-6 -8.975,-1.332 -17.975,-1.998 -27,-2 1.323,0.816 1.989,1.983 2,3.5 -1.921,-0.863 -3.921,-1.529 -6,-2 -0.333,0 -0.667,0 -1,0 -6.372,-2.45 -13.039,-4.116 -20,-5 0.255,4.3 1.255,8.3 3,12 0,1.333 0,2.667 0,4 0,1.333 0,2.667 0,4 -6.667,0 -13.333,0 -20,0 6.145,-0.99 12.478,-1.323 19,-1 0.162,-2.027 -0.005,-4.027 -0.5,-6 -1.706,-2.752 -2.872,-5.752 -3.5,-9 0.679,-3.006 1.346,-6.006 2,-9 -10.456,-0.51 -20.79,0.323 -31,2.5 -2,1 -4,2 -6,3 1.634,0.494 3.301,0.66 5,0.5 -1.333,1 -2.667,2 -4,3 -5.788,1.477 -10.954,4.144 -15.5,8 -0.667,2 -0.667,4 0,6 1.482,4.608 2.649,9.275 3.5,14 -2.98,-5.717 -4.98,-11.884 -6,-18.5 -0.005,-2.163 0.995,-3.663 3,-4.5 -0.333,-0.333 -0.667,-0.667 -1,-1 -1.107,0.522 -2.274,0.855 -3.5,1 -2.653,-1.584 -5.486,-2.417 -8.5,-2.5 -0.951,3.057 -1.284,6.223 -1,9.5 -1.54,-2.338 -2.206,-5.005 -2,-8 0.667,-1 1.333,-2 2,-3 3.58,-0.577 6.58,0.423 9,3 2.654,-1.336 4.987,-3.003 7,-5 10.062,-5.131 20.728,-8.464 32,-10 5.344,-0.166 10.677,10e-4 16,0.5 5.941,1.819 11.941,3.319 18,4.5 15.065,6.491 30.398,6.658 46,0.5 4.344,-2.171 8.344,-4.837 12,-8 1.293,-0.49 2.627,-0.657 4,-0.5 -0.052,2.403 0.281,4.736 1,7 z"
         id="path432" />
    </g>
    <g
       id="g433"
       style="clip-rule:evenodd;fill-rule:evenodd;image-rendering:optimizeQuality;shape-rendering:geometricPrecision;text-rendering:geometricPrecision"
       transform="matrix(0.32223851,0,0,0.32223851,-238.19175,-127.7223)">
      <path
         style="opacity:1"
         fill="#e3abae"
         d="m 844.5,483.5 c 1.667,0 3.333,0 5,0 0,1.333 0,2.667 0,4 -0.761,-0.891 -1.761,-1.558 -3,-2 -1.953,0.656 -3.953,0.989 -6,1 1.333,-1 2.667,-2 4,-3 z"
         id="path433" />
    </g>
    <g
       id="g434"
       style="clip-rule:evenodd;fill-rule:evenodd;image-rendering:optimizeQuality;shape-rendering:geometricPrecision;text-rendering:geometricPrecision"
       transform="matrix(0.32223851,0,0,0.32223851,-238.19175,-127.7223)">
      <path
         style="opacity:1"
         fill="#f9f7f7"
         d="m 896.5,487.5 c 0.333,0 0.667,0 1,0 0.683,1.676 2.017,2.343 4,2 -0.285,5.397 0.049,10.73 1,16 -0.333,0.333 -0.667,0.667 -1,1 -4.892,-1.403 -9.892,-2.07 -15,-2 -0.333,0 -0.667,0 -1,0 -1.419,-0.951 -3.085,-1.284 -5,-1 0.284,-1.915 -0.049,-3.581 -1,-5 0,-1.333 0,-2.667 0,-4 -0.333,-3.333 -0.667,-6.667 -1,-10 5.938,1.317 11.938,2.317 18,3 z"
         id="path434" />
    </g>
    <g
       id="g435"
       style="clip-rule:evenodd;fill-rule:evenodd;image-rendering:optimizeQuality;shape-rendering:geometricPrecision;text-rendering:geometricPrecision"
       transform="matrix(0.32223851,0,0,0.32223851,-238.19175,-127.7223)">
      <path
         style="opacity:1"
         fill="#f2cdcd"
         d="m 896.5,487.5 c -6.062,-0.683 -12.062,-1.683 -18,-3 0.333,3.333 0.667,6.667 1,10 -1.745,-3.7 -2.745,-7.7 -3,-12 6.961,0.884 13.628,2.55 20,5 z"
         id="path435" />
    </g>
    <g
       id="g436"
       style="clip-rule:evenodd;fill-rule:evenodd;image-rendering:optimizeQuality;shape-rendering:geometricPrecision;text-rendering:geometricPrecision"
       transform="matrix(0.32223851,0,0,0.32223851,-238.19175,-127.7223)">
      <path
         style="opacity:1"
         fill="#a22525"
         d="m 859.5,502.5 c -1.667,0 -3.333,0 -5,0 -0.517,-3.722 -1.35,-7.388 -2.5,-11 -0.2,-1.82 -1.034,-3.153 -2.5,-4 0,-1.333 0,-2.667 0,-4 -1.667,0 -3.333,0 -5,0 -1.699,0.16 -3.366,-0.006 -5,-0.5 2,-1 4,-2 6,-3 10.21,-2.177 20.544,-3.01 31,-2.5 -0.654,2.994 -1.321,5.994 -2,9 0.628,3.248 1.794,6.248 3.5,9 0.495,1.973 0.662,3.973 0.5,6 -6.522,-0.323 -12.855,0.01 -19,1 z"
         id="path436" />
    </g>
    <g
       id="g437"
       style="clip-rule:evenodd;fill-rule:evenodd;image-rendering:optimizeQuality;shape-rendering:geometricPrecision;text-rendering:geometricPrecision"
       transform="matrix(0.32223851,0,0,0.32223851,-238.19175,-127.7223)">
      <path
         style="opacity:1"
         fill="#f1cacc"
         d="m 952.5,502.5 c 0.072,-6.304 -1.261,-12.304 -4,-18 -2.999,2.003 -6.333,3.003 -10,3 3.608,-1.902 7.275,-3.902 11,-6 0.586,0.209 1.086,0.543 1.5,1 1.407,5.792 2.573,11.625 3.5,17.5 -0.139,1.301 -0.805,2.134 -2,2.5 z"
         id="path437" />
    </g>
    <g
       id="g439"
       style="clip-rule:evenodd;fill-rule:evenodd;image-rendering:optimizeQuality;shape-rendering:geometricPrecision;text-rendering:geometricPrecision"
       transform="matrix(0.32223851,0,0,0.32223851,-238.19175,-127.7223)">
      <path
         style="opacity:1"
         fill="#faf8f8"
         d="m 952.5,502.5 c -4.741,1.533 -9.408,3.366 -14,5.5 -1.759,0.798 -3.426,0.631 -5,-0.5 -0.518,-2.816 -1.351,-5.482 -2.5,-8 -0.667,-2.667 -0.667,-5.333 0,-8 2.849,-0.878 5.349,-2.211 7.5,-4 3.667,0.003 7.001,-0.997 10,-3 2.739,5.696 4.072,11.696 4,18 z"
         id="path439" />
    </g>
    <g
       id="g440"
       style="clip-rule:evenodd;fill-rule:evenodd;image-rendering:optimizeQuality;shape-rendering:geometricPrecision;text-rendering:geometricPrecision"
       transform="matrix(0.32223851,0,0,0.32223851,-238.19175,-127.7223)">
      <path
         style="opacity:1"
         fill="#f1d2d3"
         d="m 827.5,485.5 c -2.013,1.997 -4.346,3.664 -7,5 -2.42,-2.577 -5.42,-3.577 -9,-3 0.47,-1.193 1.47,-1.86 3,-2 2.579,0.36 5.079,1.026 7.5,2 1.597,-1.385 3.43,-2.051 5.5,-2 z"
         id="path440" />
    </g>
    <g
       id="g441"
       style="clip-rule:evenodd;fill-rule:evenodd;image-rendering:optimizeQuality;shape-rendering:geometricPrecision;text-rendering:geometricPrecision"
       transform="matrix(0.32223851,0,0,0.32223851,-238.19175,-127.7223)">
      <path
         style="opacity:1"
         fill="#faf7f8"
         d="m 849.5,487.5 c 0,0.667 0,1.333 0,2 -0.448,4.541 0.219,8.874 2,13 -1.112,0.765 -1.779,1.765 -2,3 -0.333,0 -0.667,0 -1,0 -3.819,0.105 -7.486,0.938 -11,2.5 -2.387,2.095 -5.053,3.595 -8,4.5 -0.676,-6.085 -1.676,-12.085 -3,-18 5.408,-1.416 10.075,-4.083 14,-8 2.047,-0.011 4.047,-0.344 6,-1 1.239,0.442 2.239,1.109 3,2 z"
         id="path441" />
    </g>
    <g
       id="g442"
       style="clip-rule:evenodd;fill-rule:evenodd;image-rendering:optimizeQuality;shape-rendering:geometricPrecision;text-rendering:geometricPrecision"
       transform="matrix(0.32223851,0,0,0.32223851,-238.19175,-127.7223)">
      <path
         style="opacity:1"
         fill="#a52526"
         d="m 903.5,490.5 c 0,-0.333 0,-0.667 0,-1 -0.011,-1.517 -0.677,-2.684 -2,-3.5 9.025,0.002 18.025,0.668 27,2 -1.394,1.739 -2.061,3.739 -2,6 1.606,5.316 2.606,10.816 3,16.5 -7.115,0.425 -14.115,-0.075 -21,-1.5 -1.44,-6.334 -3.107,-12.501 -5,-18.5 z"
         id="path442" />
    </g>
    <g
       id="g446"
       style="clip-rule:evenodd;fill-rule:evenodd;image-rendering:optimizeQuality;shape-rendering:geometricPrecision;text-rendering:geometricPrecision"
       transform="matrix(0.32223851,0,0,0.32223851,-238.19175,-127.7223)">
      <path
         style="opacity:1"
         fill="#f5d5d6"
         d="m 775.5,496.5 c -3.092,7.613 -5.759,15.28 -8,23 0.489,-6.453 1.656,-12.786 3.5,-19 1.468,-1.489 2.968,-2.823 4.5,-4 z"
         id="path446" />
    </g>
    <g
       id="g454"
       style="clip-rule:evenodd;fill-rule:evenodd;image-rendering:optimizeQuality;shape-rendering:geometricPrecision;text-rendering:geometricPrecision"
       transform="matrix(0.32223851,0,0,0.32223851,-238.19175,-127.7223)">
      <path
         style="opacity:1"
         fill="#f1c9cb"
         d="m 849.5,489.5 c 1.775,4.075 3.109,8.409 4,13 -0.219,2.415 -1.552,3.415 -4,3 0.221,-1.235 0.888,-2.235 2,-3 -1.781,-4.126 -2.448,-8.459 -2,-13 z"
         id="path454" />
    </g>
    <g
       id="g455"
       style="clip-rule:evenodd;fill-rule:evenodd;image-rendering:optimizeQuality;shape-rendering:geometricPrecision;text-rendering:geometricPrecision"
       transform="matrix(0.32223851,0,0,0.32223851,-238.19175,-127.7223)">
      <path
         style="opacity:1"
         fill="#f5ddde"
         d="m 897.5,487.5 c 2.079,0.471 4.079,1.137 6,2 0,0.333 0,0.667 0,1 0,1.667 0,3.333 0,5 0.086,4.357 0.42,8.69 1,13 -2.306,-0.493 -4.639,-0.826 -7,-1 -3.979,-0.242 -7.646,-1.242 -11,-3 5.108,-0.07 10.108,0.597 15,2 0.333,-0.333 0.667,-0.667 1,-1 -0.951,-5.27 -1.285,-10.603 -1,-16 -1.983,0.343 -3.317,-0.324 -4,-2 z"
         id="path455" />
    </g>
    <g
       id="g456"
       style="clip-rule:evenodd;fill-rule:evenodd;image-rendering:optimizeQuality;shape-rendering:geometricPrecision;text-rendering:geometricPrecision"
       transform="matrix(0.32223851,0,0,0.32223851,-238.19175,-127.7223)">
      <path
         style="opacity:1"
         fill="#f8e1e2"
         d="m 956.5,479.5 c 3.175,4.336 4.675,9.336 4.5,15 2.098,2.435 2.598,5.101 1.5,8 1.881,9.887 3.215,19.887 4,30 -3.637,-17.47 -6.97,-35.137 -10,-53 z"
         id="path456" />
    </g>
    <g
       id="g466"
       style="clip-rule:evenodd;fill-rule:evenodd;image-rendering:optimizeQuality;shape-rendering:geometricPrecision;text-rendering:geometricPrecision"
       transform="matrix(0.32223851,0,0,0.32223851,-238.19175,-127.7223)">
      <path
         style="opacity:1"
         fill="#c08284"
         d="m 879.5,498.5 c 0.951,1.419 1.284,3.085 1,5 -7,0 -14,0 -21,0 0,-0.333 0,-0.667 0,-1 6.667,0 13.333,0 20,0 0,-1.333 0,-2.667 0,-4 z"
         id="path466" />
    </g>
    <g
       id="g467"
       style="clip-rule:evenodd;fill-rule:evenodd;image-rendering:optimizeQuality;shape-rendering:geometricPrecision;text-rendering:geometricPrecision"
       transform="matrix(0.32223851,0,0,0.32223851,-238.19175,-127.7223)">
      <path
         style="opacity:1"
         fill="#ecc2c3"
         d="m 809.5,490.5 c -0.206,2.995 0.46,5.662 2,8 0.667,4 1.333,8 2,12 -1.747,-1.481 -2.914,-3.481 -3.5,-6 -1.366,-4.802 -1.533,-9.468 -0.5,-14 z"
         id="path467" />
    </g>
    <g
       id="g468"
       style="clip-rule:evenodd;fill-rule:evenodd;image-rendering:optimizeQuality;shape-rendering:geometricPrecision;text-rendering:geometricPrecision"
       transform="matrix(0.32223851,0,0,0.32223851,-238.19175,-127.7223)">
      <path
         style="opacity:1"
         fill="#a42425"
         d="m 961.5,524.5 c -2.667,-0.333 -5.333,-0.667 -8,-1 0,1 0,2 0,3 -2.51,-0.446 -4.51,0.22 -6,2 -3.117,2.64 -6.617,3.307 -10.5,2 -0.833,-5.167 -1.667,-10.334 -2.5,-15.5 0.508,-1.893 1.508,-3.393 3,-4.5 0.333,0 0.667,0 1,0 6.401,-0.402 12.068,-2.569 17,-6.5 -0.836,-1.243 -0.503,-2.41 1,-3.5 3.288,7.59 4.954,15.59 5,24 z"
         id="path468" />
    </g>
    <g
       id="g469"
       style="clip-rule:evenodd;fill-rule:evenodd;image-rendering:optimizeQuality;shape-rendering:geometricPrecision;text-rendering:geometricPrecision"
       transform="matrix(0.32223851,0,0,0.32223851,-238.19175,-127.7223)">
      <path
         style="opacity:1"
         fill="#e8abad"
         d="m 903.5,495.5 c 1.522,4.773 2.522,9.773 3,15 -1.333,0 -2.667,0 -4,0 -1.572,-1.187 -3.239,-2.187 -5,-3 2.361,0.174 4.694,0.507 7,1 -0.58,-4.31 -0.914,-8.643 -1,-13 z"
         id="path469" />
    </g>
    <g
       id="g470"
       style="clip-rule:evenodd;fill-rule:evenodd;image-rendering:optimizeQuality;shape-rendering:geometricPrecision;text-rendering:geometricPrecision"
       transform="matrix(0.32223851,0,0,0.32223851,-238.19175,-127.7223)">
      <path
         style="opacity:1"
         fill="#f5d8db"
         d="m 938.5,487.5 c -2.151,1.789 -4.651,3.122 -7.5,4 -0.667,2.667 -0.667,5.333 0,8 1.149,2.518 1.982,5.184 2.5,8 1.574,1.131 3.241,1.298 5,0.5 4.592,-2.134 9.259,-3.967 14,-5.5 -4.373,3.186 -9.04,5.853 -14,8 -0.333,0 -0.667,0 -1,0 -1.891,1.036 -3.724,1.036 -5.5,0 -1.268,-5.64 -2.435,-11.307 -3.5,-17 0.333,-1 0.667,-2 1,-3 2.95,-1.205 5.95,-2.205 9,-3 z"
         id="path470" />
    </g>
    <g
       id="g471"
       style="clip-rule:evenodd;fill-rule:evenodd;image-rendering:optimizeQuality;shape-rendering:geometricPrecision;text-rendering:geometricPrecision"
       transform="matrix(0.32223851,0,0,0.32223851,-238.19175,-127.7223)">
      <path
         style="opacity:1"
         fill="#f2cccf"
         d="m 840.5,486.5 c -3.925,3.917 -8.592,6.584 -14,8 1.324,5.915 2.324,11.915 3,18 2.947,-0.905 5.613,-2.405 8,-4.5 3.514,-1.562 7.181,-2.395 11,-2.5 -6.698,2.02 -12.698,5.354 -18,10 -0.667,-0.333 -1.333,-0.667 -2,-1 -0.851,-4.725 -2.018,-9.392 -3.5,-14 -0.667,-2 -0.667,-4 0,-6 4.546,-3.856 9.712,-6.523 15.5,-8 z"
         id="path471" />
    </g>
    <g
       id="g474"
       style="clip-rule:evenodd;fill-rule:evenodd;image-rendering:optimizeQuality;shape-rendering:geometricPrecision;text-rendering:geometricPrecision"
       transform="matrix(0.32223851,0,0,0.32223851,-238.19175,-127.7223)">
      <path
         style="opacity:1"
         fill="#8f282a"
         d="m 798.5,474.5 c -6.231,8.252 -11.231,17.252 -15,27 -5.201,10.287 -8.201,21.287 -9,33 -1.158,9.825 -1.325,19.825 -0.5,30 0.757,1.815 1.59,3.481 2.5,5 0,0.667 0.333,1 1,1 1.388,7.498 3.388,14.832 6,22 -1.749,-2.697 -3.416,-5.53 -5,-8.5 -2.796,-2.072 -4.129,-1.239 -4,2.5 2.341,6.678 4.674,13.345 7,20 -0.667,-0.667 -1.333,-1.333 -2,-2 -12.566,-25.727 -16.566,-52.727 -12,-81 0,-1.333 0,-2.667 0,-4 2.241,-7.72 4.908,-15.387 8,-23 2.495,-5.66 5.495,-10.994 9,-16 -2.218,6.279 -4.885,12.445 -8,18.5 1.573,3.124 3.573,3.29 6,0.5 1.506,-4.998 3.506,-9.665 6,-14 3.413,-3.739 6.747,-7.406 10,-11 z"
         id="path474" />
    </g>
    <g
       id="g475"
       style="clip-rule:evenodd;fill-rule:evenodd;image-rendering:optimizeQuality;shape-rendering:geometricPrecision;text-rendering:geometricPrecision"
       transform="matrix(0.32223851,0,0,0.32223851,-238.19175,-127.7223)">
      <path
         style="opacity:1"
         fill="#faf8f8"
         d="m 931.5,513.5 c 0.838,0.342 1.172,1.008 1,2 0.285,5.397 -0.049,10.73 -1,16 -6.968,0.997 -13.968,1.33 -21,1 0,-1.667 0,-3.333 0,-5 0.147,-4.714 -0.186,-9.381 -1,-14 7.333,0 14.667,0 22,0 z"
         id="path475" />
    </g>
    <g
       id="g476"
       style="clip-rule:evenodd;fill-rule:evenodd;image-rendering:optimizeQuality;shape-rendering:geometricPrecision;text-rendering:geometricPrecision"
       transform="matrix(0.32223851,0,0,0.32223851,-238.19175,-127.7223)">
      <path
         style="opacity:1"
         fill="#f5d3d5"
         d="m 906.5,510.5 c 8.38,1.495 16.713,2.495 25,3 -7.333,0 -14.667,0 -22,0 0.814,4.619 1.147,9.286 1,14 -1.316,-2.908 -2.316,-5.908 -3,-9 -0.333,-2.667 -0.667,-5.333 -1,-8 z"
         id="path476" />
    </g>
    <g
       id="g477"
       style="clip-rule:evenodd;fill-rule:evenodd;image-rendering:optimizeQuality;shape-rendering:geometricPrecision;text-rendering:geometricPrecision"
       transform="matrix(0.32223851,0,0,0.32223851,-238.19175,-127.7223)">
      <path
         style="opacity:1"
         fill="#912c2e"
         d="m 849.5,487.5 c 1.466,0.847 2.3,2.18 2.5,4 1.15,3.612 1.983,7.278 2.5,11 1.667,0 3.333,0 5,0 0,0.333 0,0.667 0,1 -1.542,0.801 -3.208,1.134 -5,1 1.193,7.106 2.86,14.106 5,21 -4.535,1.77 -8.868,3.77 -13,6 -4.05,1.354 -7.383,3.688 -10,7 0.168,1.671 0.835,3.004 2,4 0.221,2.567 0.888,4.901 2,7 -0.484,3.298 0.516,5.964 3,8 5.601,-3.299 11.268,-6.299 17,-9 1.373,-0.157 2.707,0.01 4,0.5 1.109,1.876 2.109,3.709 3,5.5 0.843,5.036 1.843,10.036 3,15 -0.996,0.086 -1.829,-0.248 -2.5,-1 -1.149,-5.945 -2.982,-11.612 -5.5,-17 -5.421,2.209 -10.755,4.709 -16,7.5 -1.667,0.667 -3.333,0.667 -5,0 -1.793,-3.949 -2.96,-8.115 -3.5,-12.5 -2.949,-3.439 -4.116,-7.439 -3.5,-12 6.879,-3.606 13.879,-6.939 21,-10 -0.309,-3.721 -1.309,-7.221 -3,-10.5 0.975,-2.412 0.308,-4.412 -2,-6 -5.482,0.06 -10.149,2.06 -14,6 -1.936,0.813 -3.936,1.313 -6,1.5 5.302,-4.646 11.302,-7.98 18,-10 0.333,0 0.667,0 1,0 2.448,0.415 3.781,-0.585 4,-3 -0.891,-4.591 -2.225,-8.925 -4,-13 0,-0.667 0,-1.333 0,-2 z"
         id="path477" />
    </g>
    <g
       id="g478"
       style="clip-rule:evenodd;fill-rule:evenodd;image-rendering:optimizeQuality;shape-rendering:geometricPrecision;text-rendering:geometricPrecision"
       transform="matrix(0.32223851,0,0,0.32223851,-238.19175,-127.7223)">
      <path
         style="opacity:1"
         fill="#89292b"
         d="m 994.5,498.5 c 0.997,-0.03 1.664,0.47 2,1.5 7.94,17.5 10.61,35.666 8,54.5 1.02,-14.13 -0.65,-27.797 -5,-41 -1.82,-4.947 -3.487,-9.947 -5,-15 z"
         id="path478" />
    </g>
    <g
       id="g480"
       style="clip-rule:evenodd;fill-rule:evenodd;image-rendering:optimizeQuality;shape-rendering:geometricPrecision;text-rendering:geometricPrecision"
       transform="matrix(0.32223851,0,0,0.32223851,-238.19175,-127.7223)">
      <path
         style="opacity:1"
         fill="#f2ced0"
         d="m 859.5,503.5 c 7,0 14,0 21,0 1.915,-0.284 3.581,0.049 5,1 -1.333,0 -2.667,0 -4,0 1.371,5.925 2.371,11.925 3,18 -1.052,1.756 -2.719,2.423 -5,2 -6.102,-0.123 -12.102,0.543 -18,2 -0.821,2.946 -0.821,5.946 0,9 -2.475,-1.187 -3.475,-3.187 -3,-6 -4,0.667 -8,1.333 -12,2 4.132,-2.23 8.465,-4.23 13,-6 -2.14,-6.894 -3.807,-13.894 -5,-21 1.792,0.134 3.458,-0.199 5,-1 z"
         id="path480" />
    </g>
    <g
       id="g481"
       style="clip-rule:evenodd;fill-rule:evenodd;image-rendering:optimizeQuality;shape-rendering:geometricPrecision;text-rendering:geometricPrecision"
       transform="matrix(0.32223851,0,0,0.32223851,-238.19175,-127.7223)">
      <path
         style="opacity:1"
         fill="#faf8f8"
         d="m 868.5,504.5 c 3.937,-0.293 7.77,0.04 11.5,1 2.059,5.805 2.893,11.805 2.5,18 -7.597,0.283 -15.097,0.283 -22.5,0 -0.72,-1.612 -0.554,-3.112 0.5,-4.5 -1.549,-3.474 -2.549,-7.141 -3,-11 0.405,-0.945 1.072,-1.612 2,-2 3.195,-0.181 6.195,-0.681 9,-1.5 z"
         id="path481" />
    </g>
    <g
       id="g483"
       style="clip-rule:evenodd;fill-rule:evenodd;image-rendering:optimizeQuality;shape-rendering:geometricPrecision;text-rendering:geometricPrecision"
       transform="matrix(0.32223851,0,0,0.32223851,-238.19175,-127.7223)">
      <path
         style="opacity:1"
         fill="#932b2d"
         d="m 885.5,504.5 c 0.333,0 0.667,0 1,0 3.354,1.758 7.021,2.758 11,3 1.761,0.813 3.428,1.813 5,3 1.333,0 2.667,0 4,0 0.333,2.667 0.667,5.333 1,8 0,3.667 0,7.333 0,11 -2.333,0 -4.667,0 -7,0 -3.098,-0.256 -6.098,-0.922 -9,-2 -1.714,-1.238 -3.714,-1.905 -6,-2 0.237,-1.291 -0.096,-2.291 -1,-3 -0.629,-6.075 -1.629,-12.075 -3,-18 1.333,0 2.667,0 4,0 z"
         id="path483" />
    </g>
    <g
       id="g484"
       style="clip-rule:evenodd;fill-rule:evenodd;image-rendering:optimizeQuality;shape-rendering:geometricPrecision;text-rendering:geometricPrecision"
       transform="matrix(0.32223851,0,0,0.32223851,-238.19175,-127.7223)">
      <path
         style="opacity:1"
         fill="#a42526"
         d="m 902.5,510.5 c 0.672,0.767 1.505,1.434 2.5,2 0.554,3.158 1.054,6.325 1.5,9.5 0.242,2.348 -0.592,4.182 -2.5,5.5 -2.736,-1.227 -5.569,-2.227 -8.5,-3 -2.819,0.242 -5.819,0.242 -9,0 -1,-6 -2,-12 -3,-18 6.453,0.864 12.787,2.198 19,4 z"
         id="path484" />
    </g>
    <g
       id="g485"
       style="clip-rule:evenodd;fill-rule:evenodd;image-rendering:optimizeQuality;shape-rendering:geometricPrecision;text-rendering:geometricPrecision"
       transform="matrix(0.32223851,0,0,0.32223851,-238.19175,-127.7223)">
      <path
         style="opacity:1"
         fill="#d98f90"
         d="m 884.5,522.5 c 0.904,0.709 1.237,1.709 1,3 2.286,0.095 4.286,0.762 6,2 -1.333,0 -2.667,0 -4,0 0,1.667 0,3.333 0,5 -0.769,-2.167 -1.769,-4.334 -3,-6.5 -1.634,-0.494 -3.301,-0.66 -5,-0.5 0,-0.333 0,-0.667 0,-1 2.281,0.423 3.948,-0.244 5,-2 z"
         id="path485" />
    </g>
    <g
       id="g486"
       style="clip-rule:evenodd;fill-rule:evenodd;image-rendering:optimizeQuality;shape-rendering:geometricPrecision;text-rendering:geometricPrecision"
       transform="matrix(0.32223851,0,0,0.32223851,-238.19175,-127.7223)">
      <path
         style="opacity:1"
         fill="#862d2f"
         d="m 879.5,524.5 c 0,0.333 0,0.667 0,1 -4.317,-0.417 -8.317,0.25 -12,2 -2.761,-0.585 -4.427,0.415 -5,3 1.03,4.791 2.363,9.458 4,14 7.148,0.992 14.481,1.325 22,1 -0.463,-2.982 -0.796,-5.982 -1,-9 1.268,2.405 1.935,5.072 2,8 -7.131,1.72 -14.631,2.72 -22.5,3 -0.772,-0.145 -1.439,-0.478 -2,-1 -0.724,-3.927 -1.891,-7.594 -3.5,-11 -0.821,-3.054 -0.821,-6.054 0,-9 5.898,-1.457 11.898,-2.123 18,-2 z"
         id="path486" />
    </g>
    <g
       id="g487"
       style="clip-rule:evenodd;fill-rule:evenodd;image-rendering:optimizeQuality;shape-rendering:geometricPrecision;text-rendering:geometricPrecision"
       transform="matrix(0.32223851,0,0,0.32223851,-238.19175,-127.7223)">
      <path
         style="opacity:1"
         fill="#a42526"
         d="m 867.5,527.5 c 5.375,-0.328 10.708,0.005 16,1 1.595,3.238 1.262,6.238 -1,9 0.748,1.832 1.748,3.499 3,5 -1.481,-0.135 -3.147,0.199 -5,1 -1.248,-0.54 -2.415,-1.207 -3.5,-2 -0.5,1.167 -1.333,2 -2.5,2.5 -2.646,0.497 -5.313,0.664 -8,0.5 -1.637,-4.542 -2.97,-9.209 -4,-14 0.573,-2.585 2.239,-3.585 5,-3 z"
         id="path487" />
    </g>
    <g
       id="g488"
       style="clip-rule:evenodd;fill-rule:evenodd;image-rendering:optimizeQuality;shape-rendering:geometricPrecision;text-rendering:geometricPrecision"
       transform="matrix(0.32223851,0,0,0.32223851,-238.19175,-127.7223)">
      <path
         style="opacity:1"
         fill="#faf7f7"
         d="m 861.5,535.5 c 0.249,2.502 0.583,5.002 1,7.5 0.193,2.008 -0.474,3.508 -2,4.5 -5.412,0.938 -10.412,2.938 -15,6 -2.077,-0.823 -3.744,-2.156 -5,-4 -1.112,-2.099 -1.779,-4.433 -2,-7 -0.157,-1.373 0.01,-2.707 0.5,-4 1.816,-0.829 3.649,-1.663 5.5,-2.5 -0.457,-0.414 -0.791,-0.914 -1,-1.5 1.493,-0.641 2.493,-1.641 3,-3 4,-0.667 8,-1.333 12,-2 -0.475,2.813 0.525,4.813 3,6 z"
         id="path488" />
    </g>
    <g
       id="g489"
       style="clip-rule:evenodd;fill-rule:evenodd;image-rendering:optimizeQuality;shape-rendering:geometricPrecision;text-rendering:geometricPrecision"
       transform="matrix(0.32223851,0,0,0.32223851,-238.19175,-127.7223)">
      <path
         style="opacity:1"
         fill="#f6dbdd"
         d="m 891.5,527.5 c 2.902,1.078 5.902,1.744 9,2 2.475,0.631 4.809,1.631 7,3 -6.033,-0.814 -12.033,-1.814 -18,-3 0.416,4.993 0.749,9.993 1,15 -0.333,0 -0.667,0 -1,0 -0.065,-2.928 -0.732,-5.595 -2,-8 0,-1.333 0,-2.667 0,-4 0,-1.667 0,-3.333 0,-5 1.333,0 2.667,0 4,0 z"
         id="path489" />
    </g>
    <g
       id="g490"
       style="clip-rule:evenodd;fill-rule:evenodd;image-rendering:optimizeQuality;shape-rendering:geometricPrecision;text-rendering:geometricPrecision"
       transform="matrix(0.32223851,0,0,0.32223851,-238.19175,-127.7223)">
      <path
         style="opacity:1"
         fill="#faf9f9"
         d="m 907.5,532.5 c 2.671,5.202 3.337,10.702 2,16.5 -6.995,0.706 -13.329,-0.794 -19,-4.5 -0.251,-5.007 -0.584,-10.007 -1,-15 5.967,1.186 11.967,2.186 18,3 z"
         id="path490" />
    </g>
    <g
       id="g491"
       style="clip-rule:evenodd;fill-rule:evenodd;image-rendering:optimizeQuality;shape-rendering:geometricPrecision;text-rendering:geometricPrecision"
       transform="matrix(0.32223851,0,0,0.32223851,-238.19175,-127.7223)">
      <path
         style="opacity:1"
         fill="#8c3e43"
         d="m 907.5,518.5 c 0.684,3.092 1.684,6.092 3,9 0,1.667 0,3.333 0,5 -1,0 -2,0 -3,0 -2.191,-1.369 -4.525,-2.369 -7,-3 2.333,0 4.667,0 7,0 0,-3.667 0,-7.333 0,-11 z"
         id="path491" />
    </g>
    <g
       id="g492"
       style="clip-rule:evenodd;fill-rule:evenodd;image-rendering:optimizeQuality;shape-rendering:geometricPrecision;text-rendering:geometricPrecision"
       transform="matrix(0.32223851,0,0,0.32223851,-238.19175,-127.7223)">
      <path
         style="opacity:1"
         fill="#f9f6f6"
         d="m 956.5,526.5 c 1.931,6.619 3.264,13.619 4,21 -1.836,2.088 -4.169,3.421 -7,4 -4.286,1.207 -8.62,2.207 -13,3 -0.333,0 -0.667,0 -1,0 0,-2 0,-4 0,-6 -0.597,-4.332 -0.763,-8.665 -0.5,-13 3.604,-1.02 6.77,-2.687 9.5,-5 1.868,-0.763 3.535,-1.763 5,-3 1.109,-0.057 2.109,-0.39 3,-1 z"
         id="path492" />
    </g>
    <g
       id="g493"
       style="clip-rule:evenodd;fill-rule:evenodd;image-rendering:optimizeQuality;shape-rendering:geometricPrecision;text-rendering:geometricPrecision"
       transform="matrix(0.32223851,0,0,0.32223851,-238.19175,-127.7223)">
      <path
         style="opacity:1"
         fill="#892b2b"
         d="m 997.5,486.5 c 6.79,11.769 11.45,24.435 14,38 1.8,17.457 1.13,34.791 -2,52 -2.17,5.841 -4.17,11.841 -6,18 -0.67,0.667 -1.33,1.333 -2,2 7.71,-20.627 10.55,-41.961 8.5,-64 -0.72,-8.874 -2.39,-17.541 -5,-26 -2.81,-6.604 -5.308,-13.271 -7.5,-20 z"
         id="path493" />
    </g>
    <g
       id="g499"
       style="clip-rule:evenodd;fill-rule:evenodd;image-rendering:optimizeQuality;shape-rendering:geometricPrecision;text-rendering:geometricPrecision"
       transform="matrix(0.32223851,0,0,0.32223851,-238.19175,-127.7223)">
      <path
         style="opacity:1"
         fill="#93272a"
         d="m 816.5,516.5 c 0.901,2.257 2.568,3.757 5,4.5 -0.457,0.414 -0.791,0.914 -1,1.5 1.465,3.292 3.132,6.458 5,9.5 -0.581,0.893 -0.915,1.893 -1,3 3.914,11.764 6.581,23.597 8,35.5 -6.2,-17.61 -11.534,-35.61 -16,-54 z"
         id="path499" />
    </g>
    <g
       id="g500"
       style="clip-rule:evenodd;fill-rule:evenodd;image-rendering:optimizeQuality;shape-rendering:geometricPrecision;text-rendering:geometricPrecision"
       transform="matrix(0.32223851,0,0,0.32223851,-238.19175,-127.7223)">
      <path
         style="opacity:1"
         fill="#a3282b"
         d="m 773.5,514.5 c 0.652,0.949 0.986,2.115 1,3.5 -1.667,13.019 -3.333,26.019 -5,39 4.323,7.771 5.49,15.938 3.5,24.5 -4.207,-10.883 -6.041,-22.216 -5.5,-34 -0.393,-10.518 0.773,-20.852 3.5,-31 0.995,-0.566 1.828,-1.233 2.5,-2 z"
         id="path500" />
    </g>
    <g
       id="g502"
       style="clip-rule:evenodd;fill-rule:evenodd;image-rendering:optimizeQuality;shape-rendering:geometricPrecision;text-rendering:geometricPrecision"
       transform="matrix(0.32223851,0,0,0.32223851,-238.19175,-127.7223)">
      <path
         style="opacity:1"
         fill="#b5696a"
         d="m 934.5,526.5 c 0.809,1.792 1.309,3.792 1.5,6 0.671,0.752 1.504,1.086 2.5,1 -0.869,2.217 -1.202,4.55 -1,7 -0.951,-1.419 -1.284,-3.085 -1,-5 -5.667,0 -11.333,0 -17,0 -0.667,0 -1.333,0 -2,0 0,-0.333 0,-0.667 0,-1 5.011,0.166 10.011,-10e-4 15,-0.5 1.791,-2.106 2.458,-4.606 2,-7.5 z"
         id="path502" />
    </g>
    <g
       id="g503"
       style="clip-rule:evenodd;fill-rule:evenodd;image-rendering:optimizeQuality;shape-rendering:geometricPrecision;text-rendering:geometricPrecision"
       transform="matrix(0.32223851,0,0,0.32223851,-238.19175,-127.7223)">
      <path
         style="opacity:1"
         fill="#942a2c"
         d="m 961.5,524.5 c 1.416,3.768 2.416,7.768 3,12 0.247,1.213 0.914,1.88 2,2 1.51,4.547 2.51,9.213 3,14 0,1.333 0,2.667 0,4 -2.394,-2.135 -4.061,-4.802 -5,-8 -4.859,2.015 -9.359,4.681 -13.5,8 -2.754,-0.202 -5.587,0.131 -8.5,1 0.556,5.006 1.223,10.006 2,15 -0.011,1.545 -0.344,2.878 -1,4 -0.363,-5.907 -1.363,-11.573 -3,-17 0,-0.333 0,-0.667 0,-1 0.282,-1.278 0.949,-2.278 2,-3 4.033,-0.525 7.7,-1.858 11,-4 2.831,-0.579 5.164,-1.912 7,-4 1.38,-0.462 2.047,-1.462 2,-3 -1.39,-6.282 -2.39,-12.615 -3,-19 -1.291,-0.237 -2.291,0.096 -3,1 -0.891,0.61 -1.891,0.943 -3,1 -2,0.333 -4,0.667 -6,1 1.49,-1.78 3.49,-2.446 6,-2 0,-1 0,-2 0,-3 2.667,0.333 5.333,0.667 8,1 z"
         id="path503" />
    </g>
    <g
       id="g505"
       style="clip-rule:evenodd;fill-rule:evenodd;image-rendering:optimizeQuality;shape-rendering:geometricPrecision;text-rendering:geometricPrecision"
       transform="matrix(0.32223851,0,0,0.32223851,-238.19175,-127.7223)">
      <path
         style="opacity:1"
         fill="#f1cace"
         d="m 948.5,530.5 c -2.73,2.313 -5.896,3.98 -9.5,5 -0.263,4.335 -0.097,8.668 0.5,13 -1.268,-2.405 -1.935,-5.072 -2,-8 -0.202,-2.45 0.131,-4.783 1,-7 3.323,-0.992 6.656,-1.992 10,-3 z"
         id="path505" />
    </g>
    <g
       id="g507"
       style="clip-rule:evenodd;fill-rule:evenodd;image-rendering:optimizeQuality;shape-rendering:geometricPrecision;text-rendering:geometricPrecision"
       transform="matrix(0.32223851,0,0,0.32223851,-238.19175,-127.7223)">
      <path
         style="opacity:1"
         fill="#f3cdd2"
         d="m 846.5,531.5 c -0.507,1.359 -1.507,2.359 -3,3 0.209,0.586 0.543,1.086 1,1.5 -1.851,0.837 -3.684,1.671 -5.5,2.5 -0.49,1.293 -0.657,2.627 -0.5,4 -1.165,-0.996 -1.832,-2.329 -2,-4 2.617,-3.312 5.95,-5.646 10,-7 z"
         id="path507" />
    </g>
    <g
       id="g508"
       style="clip-rule:evenodd;fill-rule:evenodd;image-rendering:optimizeQuality;shape-rendering:geometricPrecision;text-rendering:geometricPrecision"
       transform="matrix(0.32223851,0,0,0.32223851,-238.19175,-127.7223)">
      <path
         style="opacity:1"
         fill="#f1c6c7"
         d="m 956.5,526.5 c 0.709,-0.904 1.709,-1.237 3,-1 0.61,6.385 1.61,12.718 3,19 0.047,1.538 -0.62,2.538 -2,3 -0.736,-7.381 -2.069,-14.381 -4,-21 z"
         id="path508" />
    </g>
    <g
       id="g509"
       style="clip-rule:evenodd;fill-rule:evenodd;image-rendering:optimizeQuality;shape-rendering:geometricPrecision;text-rendering:geometricPrecision"
       transform="matrix(0.32223851,0,0,0.32223851,-238.19175,-127.7223)">
      <path
         style="opacity:1"
         fill="#9a292c"
         d="m 879.5,525.5 c 1.699,-0.16 3.366,0.006 5,0.5 1.231,2.166 2.231,4.333 3,6.5 0,1.333 0,2.667 0,4 0.204,3.018 0.537,6.018 1,9 -7.519,0.325 -14.852,-0.008 -22,-1 2.687,0.164 5.354,-0.003 8,-0.5 1.167,-0.5 2,-1.333 2.5,-2.5 1.085,0.793 2.252,1.46 3.5,2 1.853,-0.801 3.519,-1.135 5,-1 -1.252,-1.501 -2.252,-3.168 -3,-5 2.262,-2.762 2.595,-5.762 1,-9 -5.292,-0.995 -10.625,-1.328 -16,-1 3.683,-1.75 7.683,-2.417 12,-2 z"
         id="path509" />
    </g>
    <g
       id="g510"
       style="clip-rule:evenodd;fill-rule:evenodd;image-rendering:optimizeQuality;shape-rendering:geometricPrecision;text-rendering:geometricPrecision"
       transform="matrix(0.32223851,0,0,0.32223851,-238.19175,-127.7223)">
      <path
         style="opacity:1"
         fill="#dfa0a2"
         d="m 999.5,513.5 c 4.35,13.203 6.02,26.87 5,41 0,1.333 0,2.667 0,4 -0.33,0 -0.67,0 -1,0 0.17,-7.674 0,-15.341 -0.5,-23 -1.31,-7.361 -2.48,-14.694 -3.5,-22 z"
         id="path510" />
    </g>
    <g
       id="g512"
       style="clip-rule:evenodd;fill-rule:evenodd;image-rendering:optimizeQuality;shape-rendering:geometricPrecision;text-rendering:geometricPrecision"
       transform="matrix(0.32223851,0,0,0.32223851,-238.19175,-127.7223)">
      <path
         style="opacity:1"
         fill="#faf6f7"
         d="m 890.5,547.5 c 0.502,6.685 1.169,13.351 2,20 -7.032,0.33 -14.032,-0.003 -21,-1 -1.261,-3.561 -2.094,-7.228 -2.5,-11 -0.383,-0.556 -0.883,-0.889 -1.5,-1 0,-2 0,-4 0,-6 7.65,-0.643 15.317,-0.977 23,-1 z"
         id="path512" />
    </g>
    <g
       id="g513"
       style="clip-rule:evenodd;fill-rule:evenodd;image-rendering:optimizeQuality;shape-rendering:geometricPrecision;text-rendering:geometricPrecision"
       transform="matrix(0.32223851,0,0,0.32223851,-238.19175,-127.7223)">
      <path
         style="opacity:1"
         fill="#f6d5d8"
         d="m 860.5,547.5 c 0,0.333 0,0.667 0,1 -5.732,2.701 -11.399,5.701 -17,9 -2.484,-2.036 -3.484,-4.702 -3,-8 1.256,1.844 2.923,3.177 5,4 4.588,-3.062 9.588,-5.062 15,-6 z"
         id="path513" />
    </g>
    <g
       id="g514"
       style="clip-rule:evenodd;fill-rule:evenodd;image-rendering:optimizeQuality;shape-rendering:geometricPrecision;text-rendering:geometricPrecision"
       transform="matrix(0.32223851,0,0,0.32223851,-238.19175,-127.7223)">
      <path
         style="opacity:1"
         fill="#f6dfe1"
         d="m 932.5,515.5 c 0.902,3.497 1.569,7.163 2,11 0.458,2.894 -0.209,5.394 -2,7.5 -4.989,0.499 -9.989,0.666 -15,0.5 -1.935,-0.65 -3.935,-0.983 -6,-1 0.204,3.018 0.537,6.018 1,9 0.165,3.35 -0.002,6.683 -0.5,10 -2.381,-0.935 -4.881,-1.268 -7.5,-1 -3.652,-1.129 -7.318,-2.129 -11,-3 -0.709,-0.904 -1.709,-1.237 -3,-1 0,-1 0,-2 0,-3 5.671,3.706 12.005,5.206 19,4.5 1.337,-5.798 0.671,-11.298 -2,-16.5 1,0 2,0 3,0 7.032,0.33 14.032,-0.003 21,-1 0.951,-5.27 1.285,-10.603 1,-16 z"
         id="path514" />
    </g>
    <g
       id="g515"
       style="clip-rule:evenodd;fill-rule:evenodd;image-rendering:optimizeQuality;shape-rendering:geometricPrecision;text-rendering:geometricPrecision"
       transform="matrix(0.32223851,0,0,0.32223851,-238.19175,-127.7223)">
      <path
         style="opacity:1"
         fill="#eaaeb0"
         d="m 912.5,542.5 c 1.295,3.767 1.961,7.767 2,12 -3.333,-0.667 -6.667,-1.333 -10,-2 0,-0.333 0,-0.667 0,-1 2.619,-0.268 5.119,0.065 7.5,1 0.498,-3.317 0.665,-6.65 0.5,-10 z"
         id="path515" />
    </g>
    <g
       id="g516"
       style="clip-rule:evenodd;fill-rule:evenodd;image-rendering:optimizeQuality;shape-rendering:geometricPrecision;text-rendering:geometricPrecision"
       transform="matrix(0.32223851,0,0,0.32223851,-238.19175,-127.7223)">
      <path
         style="opacity:1"
         fill="#e2abad"
         d="m 861.5,535.5 c 1.609,3.406 2.776,7.073 3.5,11 0.561,0.522 1.228,0.855 2,1 7.869,-0.28 15.369,-1.28 22.5,-3 0.333,0 0.667,0 1,0 0,1 0,2 0,3 -7.683,0.023 -15.35,0.357 -23,1 0,2 0,4 0,6 -0.891,-1.791 -1.891,-3.624 -3,-5.5 -1.293,-0.49 -2.627,-0.657 -4,-0.5 0,-0.333 0,-0.667 0,-1 1.526,-0.992 2.193,-2.492 2,-4.5 -0.417,-2.498 -0.751,-4.998 -1,-7.5 z"
         id="path516" />
    </g>
    <g
       id="g517"
       style="clip-rule:evenodd;fill-rule:evenodd;image-rendering:optimizeQuality;shape-rendering:geometricPrecision;text-rendering:geometricPrecision"
       transform="matrix(0.32223851,0,0,0.32223851,-238.19175,-127.7223)">
      <path
         style="opacity:1"
         fill="#f2c6ca"
         d="m 953.5,551.5 c -3.3,2.142 -6.967,3.475 -11,4 -0.992,0.172 -1.658,-0.162 -2,-1 4.38,-0.793 8.714,-1.793 13,-3 z"
         id="path517" />
    </g>
    <g
       id="g518"
       style="clip-rule:evenodd;fill-rule:evenodd;image-rendering:optimizeQuality;shape-rendering:geometricPrecision;text-rendering:geometricPrecision"
       transform="matrix(0.32223851,0,0,0.32223851,-238.19175,-127.7223)">
      <path
         style="opacity:1"
         fill="#f1c8ca"
         d="m 783.5,501.5 c -2.757,9.876 -5.257,19.876 -7.5,30 -0.748,13.052 -0.248,26.052 1.5,39 -0.667,0 -1,-0.333 -1,-1 -1.649,-11.597 -2.316,-23.264 -2,-35 0.799,-11.713 3.799,-22.713 9,-33 z"
         id="path518" />
    </g>
    <g
       id="g519"
       style="clip-rule:evenodd;fill-rule:evenodd;image-rendering:optimizeQuality;shape-rendering:geometricPrecision;text-rendering:geometricPrecision"
       transform="matrix(0.32223851,0,0,0.32223851,-238.19175,-127.7223)">
      <path
         style="opacity:1"
         fill="#892b2c"
         d="m 917.5,534.5 c 0,0.333 0,0.667 0,1 -1.333,0 -2.667,0 -4,0 0.676,6.39 1.676,12.723 3,19 6.99,0.499 13.99,0.832 21,1 -0.356,-6.446 -1.356,-12.779 -3,-19 -5.195,0.321 -10.195,-0.013 -15,-1 5.667,0 11.333,0 17,0 -0.284,1.915 0.049,3.581 1,5 0.065,2.928 0.732,5.595 2,8 0,2 0,4 0,6 -5.574,1.953 -11.574,2.62 -18,2 -2,-0.333 -4,-0.667 -6,-1 0.999,5.997 1.999,11.997 3,18 0,0.333 0,0.667 0,1 -0.617,-0.111 -1.117,-0.444 -1.5,-1 -0.843,-5.421 -2.009,-10.754 -3.5,-16 -3.214,-1.437 -6.214,-3.103 -9,-5 3.333,0.667 6.667,1.333 10,2 -0.039,-4.233 -0.705,-8.233 -2,-12 -0.463,-2.982 -0.796,-5.982 -1,-9 2.065,0.017 4.065,0.35 6,1 z"
         id="path519" />
    </g>
    <g
       id="g520"
       style="clip-rule:evenodd;fill-rule:evenodd;image-rendering:optimizeQuality;shape-rendering:geometricPrecision;text-rendering:geometricPrecision"
       transform="matrix(0.32223851,0,0,0.32223851,-238.19175,-127.7223)">
      <path
         style="opacity:1"
         fill="#a32526"
         d="m 917.5,535.5 c 0.667,0 1.333,0 2,0 4.805,0.987 9.805,1.321 15,1 1.644,6.221 2.644,12.554 3,19 -7.01,-0.168 -14.01,-0.501 -21,-1 -1.324,-6.277 -2.324,-12.61 -3,-19 1.333,0 2.667,0 4,0 z"
         id="path520" />
    </g>
    <g
       id="g521"
       style="clip-rule:evenodd;fill-rule:evenodd;image-rendering:optimizeQuality;shape-rendering:geometricPrecision;text-rendering:geometricPrecision"
       transform="matrix(0.32223851,0,0,0.32223851,-238.19175,-127.7223)">
      <path
         style="opacity:1"
         fill="#edcccd"
         d="m 969.5,552.5 c 1.466,0.847 2.3,2.18 2.5,4 0.667,5 0.667,10 0,15 -1.129,1.641 -2.629,2.641 -4.5,3 4.662,-5.488 5.329,-11.488 2,-18 0,-1.333 0,-2.667 0,-4 z"
         id="path521" />
    </g>
    <g
       id="g522"
       style="clip-rule:evenodd;fill-rule:evenodd;image-rendering:optimizeQuality;shape-rendering:geometricPrecision;text-rendering:geometricPrecision"
       transform="matrix(0.32223851,0,0,0.32223851,-238.19175,-127.7223)">
      <path
         style="opacity:1"
         fill="#cc888c"
         d="m 939.5,554.5 c 0.333,0 0.667,0 1,0 0.342,0.838 1.008,1.172 2,1 -1.051,0.722 -1.718,1.722 -2,3 -6.244,-0.958 -12.577,-1.291 -19,-1 0,-0.333 0,-0.667 0,-1 6.426,0.62 12.426,-0.047 18,-2 z"
         id="path522" />
    </g>
    <g
       id="g523"
       style="clip-rule:evenodd;fill-rule:evenodd;image-rendering:optimizeQuality;shape-rendering:geometricPrecision;text-rendering:geometricPrecision"
       transform="matrix(0.32223851,0,0,0.32223851,-238.19175,-127.7223)">
      <path
         style="opacity:1"
         fill="#a42427"
         d="m 904.5,552.5 c 2.786,1.897 5.786,3.563 9,5 1.491,5.246 2.657,10.579 3.5,16 0.383,0.556 0.883,0.889 1.5,1 0,0.667 0,1.333 0,2 0.077,1.25 0.744,2.083 2,2.5 5.101,0.632 10.101,1.632 15,3 -0.667,0.167 -1.333,0.333 -2,0.5 -9.183,-0.919 -18.183,-2.585 -27,-5 -3.325,-1.736 -6.825,-3.403 -10.5,-5 -0.292,-1.826 -0.125,-3.659 0.5,-5.5 -1.562,-5.412 -2.562,-10.912 -3,-16.5 3.667,0.667 7.333,1.333 11,2 z"
         id="path523" />
    </g>
    <g
       id="g525"
       style="clip-rule:evenodd;fill-rule:evenodd;image-rendering:optimizeQuality;shape-rendering:geometricPrecision;text-rendering:geometricPrecision"
       transform="matrix(0.32223851,0,0,0.32223851,-238.19175,-127.7223)">
      <path
         style="opacity:1"
         fill="#a42426"
         d="m 969.5,556.5 c 0.166,4.679 -10e-4,9.345 -0.5,14 -4.15,3.649 -8.65,6.649 -13.5,9 -2.657,0.33 -5.324,0.663 -8,1 -1.955,-0.224 -3.621,-0.891 -5,-2 0,-0.333 0,-0.667 0,-1 0.667,0 1,-0.333 1,-1 0.656,-1.122 0.989,-2.455 1,-4 -0.777,-4.994 -1.444,-9.994 -2,-15 2.913,-0.869 5.746,-1.202 8.5,-1 4.141,-3.319 8.641,-5.985 13.5,-8 0.939,3.198 2.606,5.865 5,8 z"
         id="path525" />
    </g>
    <g
       id="g526"
       style="clip-rule:evenodd;fill-rule:evenodd;image-rendering:optimizeQuality;shape-rendering:geometricPrecision;text-rendering:geometricPrecision"
       transform="matrix(0.32223851,0,0,0.32223851,-238.19175,-127.7223)">
      <path
         style="opacity:1"
         fill="#9a4b4b"
         d="m 774.5,534.5 c -0.316,11.736 0.351,23.403 2,35 -0.91,-1.519 -1.743,-3.185 -2.5,-5 -0.825,-10.175 -0.658,-20.175 0.5,-30 z"
         id="path526" />
    </g>
    <g
       id="g527"
       style="clip-rule:evenodd;fill-rule:evenodd;image-rendering:optimizeQuality;shape-rendering:geometricPrecision;text-rendering:geometricPrecision"
       transform="matrix(0.32223851,0,0,0.32223851,-238.19175,-127.7223)">
      <path
         style="opacity:1"
         fill="#edbdc1"
         d="m 890.5,547.5 c 1.291,-0.237 2.291,0.096 3,1 -1.149,0.291 -1.816,1.124 -2,2.5 1.94,6.112 2.607,12.278 2,18.5 -7.646,-1.224 -15.313,-1.224 -23,0 -1.157,-4.964 -2.157,-9.964 -3,-15 0.617,0.111 1.117,0.444 1.5,1 0.406,3.772 1.239,7.439 2.5,11 6.968,0.997 13.968,1.33 21,1 -0.831,-6.649 -1.498,-13.315 -2,-20 z"
         id="path527" />
    </g>
    <g
       id="g529"
       style="clip-rule:evenodd;fill-rule:evenodd;image-rendering:optimizeQuality;shape-rendering:geometricPrecision;text-rendering:geometricPrecision"
       transform="matrix(0.32223851,0,0,0.32223851,-238.19175,-127.7223)">
      <path
         style="opacity:1"
         fill="#f0ccce"
         d="m 767.5,523.5 c -4.566,28.273 -0.566,55.273 12,81 -3.102,-2.156 -5.268,-5.156 -6.5,-9 -2.913,-8.54 -5.58,-17.207 -8,-26 -0.667,-13.667 -0.667,-27.333 0,-41 0.757,-1.815 1.59,-3.481 2.5,-5 z"
         id="path529" />
    </g>
    <g
       id="g530"
       style="clip-rule:evenodd;fill-rule:evenodd;image-rendering:optimizeQuality;shape-rendering:geometricPrecision;text-rendering:geometricPrecision"
       transform="matrix(0.32223851,0,0,0.32223851,-238.19175,-127.7223)">
      <path
         style="opacity:1"
         fill="#efcccf"
         d="m 1011.5,524.5 c 1.26,1.014 1.93,2.514 2,4.5 0.58,10.534 1.24,21.034 2,31.5 -0.73,2.609 -1.23,5.276 -1.5,8 -1.98,2.472 -3.48,5.139 -4.5,8 3.13,-17.209 3.8,-34.543 2,-52 z"
         id="path530" />
    </g>
    <g
       id="g532"
       style="clip-rule:evenodd;fill-rule:evenodd;image-rendering:optimizeQuality;shape-rendering:geometricPrecision;text-rendering:geometricPrecision"
       transform="matrix(0.32223851,0,0,0.32223851,-238.19175,-127.7223)">
      <path
         style="opacity:1"
         fill="#8a2a2c"
         d="m 893.5,548.5 c 3.682,0.871 7.348,1.871 11,3 0,0.333 0,0.667 0,1 -3.667,-0.667 -7.333,-1.333 -11,-2 0.438,5.588 1.438,11.088 3,16.5 -0.625,1.841 -0.792,3.674 -0.5,5.5 3.675,1.597 7.175,3.264 10.5,5 -2.706,-0.075 -5.373,-0.408 -8,-1 -8.888,-3.556 -17.888,-3.889 -27,-1 -6.668,1.504 -13.001,3.837 -19,7 0.975,-1.693 2.308,-3.193 4,-4.5 4.778,-1.361 9.444,-3.028 14,-5 0.671,-0.986 0.671,-2.153 0,-3.5 7.687,-1.224 15.354,-1.224 23,0 0.607,-6.222 -0.06,-12.388 -2,-18.5 0.184,-1.376 0.851,-2.209 2,-2.5 z"
         id="path532" />
    </g>
    <g
       id="g533"
       style="clip-rule:evenodd;fill-rule:evenodd;image-rendering:optimizeQuality;shape-rendering:geometricPrecision;text-rendering:geometricPrecision"
       transform="matrix(0.32223851,0,0,0.32223851,-238.19175,-127.7223)">
      <path
         style="opacity:1"
         fill="#db999c"
         d="m 940.5,559.5 c 1.637,5.427 2.637,11.093 3,17 0,0.667 -0.333,1 -1,1 -1.057,-5.953 -1.724,-11.953 -2,-18 z"
         id="path533" />
    </g>
    <g
       id="g534"
       style="clip-rule:evenodd;fill-rule:evenodd;image-rendering:optimizeQuality;shape-rendering:geometricPrecision;text-rendering:geometricPrecision"
       transform="matrix(0.32223851,0,0,0.32223851,-238.19175,-127.7223)">
      <path
         style="opacity:1"
         fill="#882e31"
         d="m 969.5,556.5 c 3.329,6.512 2.662,12.512 -2,18 -3.751,2.207 -7.751,3.874 -12,5 4.85,-2.351 9.35,-5.351 13.5,-9 0.499,-4.655 0.666,-9.321 0.5,-14 z"
         id="path534" />
    </g>
    <g
       id="g535"
       style="clip-rule:evenodd;fill-rule:evenodd;image-rendering:optimizeQuality;shape-rendering:geometricPrecision;text-rendering:geometricPrecision"
       transform="matrix(0.32223851,0,0,0.32223851,-238.19175,-127.7223)">
      <path
         style="opacity:1"
         fill="#eec3c5"
         d="m 898.5,576.5 c -8.976,-0.808 -17.976,-1.142 -27,-1 9.112,-2.889 18.112,-2.556 27,1 z"
         id="path535" />
    </g>
    <g
       id="g536"
       style="clip-rule:evenodd;fill-rule:evenodd;image-rendering:optimizeQuality;shape-rendering:geometricPrecision;text-rendering:geometricPrecision"
       transform="matrix(0.32223851,0,0,0.32223851,-238.19175,-127.7223)">
      <path
         style="opacity:1"
         fill="#f6d8da"
         d="m 921.5,556.5 c 0,0.333 0,0.667 0,1 6.423,-0.291 12.756,0.042 19,1 0,0.333 0,0.667 0,1 0.276,6.047 0.943,12.047 2,18 0,0.333 0,0.667 0,1 -6.522,0.323 -12.855,-0.01 -19,-1 -1.849,-1.093 -3.516,-2.426 -5,-4 -1.001,-6.003 -2.001,-12.003 -3,-18 2,0.333 4,0.667 6,1 z"
         id="path536" />
    </g>
    <g
       id="g537"
       style="clip-rule:evenodd;fill-rule:evenodd;image-rendering:optimizeQuality;shape-rendering:geometricPrecision;text-rendering:geometricPrecision"
       transform="matrix(0.32223851,0,0,0.32223851,-238.19175,-127.7223)">
      <path
         style="opacity:1"
         fill="#faf9f9"
         d="m 921.5,557.5 c 5.514,0.667 11.181,1.333 17,2 0.845,4.724 1.178,9.391 1,14 -2.316,1.432 -4.816,2.432 -7.5,3 -3.3,-1.126 -6.634,-2.126 -10,-3 -0.333,0.333 -0.667,0.667 -1,1 -1.687,-5.56 -2.853,-11.226 -3.5,-17 1.333,0 2.667,0 4,0 z"
         id="path537" />
    </g>
    <g
       id="g538"
       style="clip-rule:evenodd;fill-rule:evenodd;image-rendering:optimizeQuality;shape-rendering:geometricPrecision;text-rendering:geometricPrecision"
       transform="matrix(0.32223851,0,0,0.32223851,-238.19175,-127.7223)">
      <path
         style="opacity:1"
         fill="#f1ccce"
         d="m 813.5,510.5 c 0.986,1.926 1.986,3.926 3,6 4.466,18.39 9.8,36.39 16,54 0.493,2.306 0.826,4.639 1,7 -0.958,-0.453 -1.792,-1.119 -2.5,-2 -1.332,-7.634 -3.665,-14.967 -7,-22 -3.761,-14.264 -7.261,-28.598 -10.5,-43 z"
         id="path538" />
    </g>
    <g
       id="g539"
       style="clip-rule:evenodd;fill-rule:evenodd;image-rendering:optimizeQuality;shape-rendering:geometricPrecision;text-rendering:geometricPrecision"
       transform="matrix(0.32223851,0,0,0.32223851,-238.19175,-127.7223)">
      <path
         style="opacity:1"
         fill="#d69496"
         d="m 918.5,573.5 c 1.484,1.574 3.151,2.907 5,4 -1.792,0.134 -3.458,-0.199 -5,-1 0,-0.667 0,-1.333 0,-2 0,-0.333 0,-0.667 0,-1 z"
         id="path539" />
    </g>
    <g
       id="g540"
       style="clip-rule:evenodd;fill-rule:evenodd;image-rendering:optimizeQuality;shape-rendering:geometricPrecision;text-rendering:geometricPrecision"
       transform="matrix(0.32223851,0,0,0.32223851,-238.19175,-127.7223)">
      <path
         style="opacity:1"
         fill="#89292a"
         d="m 918.5,576.5 c 1.542,0.801 3.208,1.134 5,1 6.145,0.99 12.478,1.323 19,1 1.379,1.109 3.045,1.776 5,2 2.676,-0.337 5.343,-0.67 8,-1 0,0.333 0,0.667 0,1 -2.333,0.667 -4.667,1.333 -7,2 -6.297,0.82 -12.631,1.153 -19,1 -8.176,-0.398 -15.842,-2.398 -23,-6 8.817,2.415 17.817,4.081 27,5 0.667,-0.167 1.333,-0.333 2,-0.5 -4.899,-1.368 -9.899,-2.368 -15,-3 -1.256,-0.417 -1.923,-1.25 -2,-2.5 z"
         id="path540" />
    </g>
    <g
       id="g541"
       style="clip-rule:evenodd;fill-rule:evenodd;image-rendering:optimizeQuality;shape-rendering:geometricPrecision;text-rendering:geometricPrecision"
       transform="matrix(0.32223851,0,0,0.32223851,-238.19175,-127.7223)">
      <path
         style="opacity:1"
         fill="#f6dbdb"
         d="m 898.5,576.5 c 2.627,0.592 5.294,0.925 8,1 7.158,3.602 14.824,5.602 23,6 2.478,0.664 5.145,0.997 8,1 3.969,0.206 7.635,-0.461 11,-2 2.333,-0.667 4.667,-1.333 7,-2 -1.853,1.946 -4.186,3.446 -7,4.5 -10.058,1.958 -20.058,1.625 -30,-1 -5.559,-1.809 -11.226,-3.476 -17,-5 -1.071,-0.852 -2.071,-1.685 -3,-2.5 z"
         id="path541" />
    </g>
    <g
       id="g542"
       style="clip-rule:evenodd;fill-rule:evenodd;image-rendering:optimizeQuality;shape-rendering:geometricPrecision;text-rendering:geometricPrecision"
       transform="matrix(0.32223851,0,0,0.32223851,-238.19175,-127.7223)">
      <path
         style="opacity:1"
         fill="#f2cdcf"
         d="m 871.5,575.5 c -4.013,2.333 -8.346,4.166 -13,5.5 -3.991,1.621 -5.824,4.454 -5.5,8.5 2.096,1.215 1.929,2.049 -0.5,2.5 0.944,2.719 1.277,5.552 1,8.5 -1.619,-4.459 -2.952,-9.126 -4,-14 0.252,-1.573 0.918,-2.906 2,-4 0.333,0 0.667,0 1,0 5.999,-3.163 12.332,-5.496 19,-7 z"
         id="path542" />
    </g>
    <g
       id="g543"
       style="clip-rule:evenodd;fill-rule:evenodd;image-rendering:optimizeQuality;shape-rendering:geometricPrecision;text-rendering:geometricPrecision"
       transform="matrix(0.32223851,0,0,0.32223851,-238.19175,-127.7223)">
      <path
         style="opacity:1"
         fill="#f7dcdd"
         d="m 1002.5,563.5 c -1.56,12.952 -5.561,24.952 -12,36 2.001,-7.168 4.501,-14.168 7.5,-21 -0.107,-5.634 1.393,-10.634 4.5,-15 z"
         id="path543" />
    </g>
    <g
       id="g544"
       style="clip-rule:evenodd;fill-rule:evenodd;image-rendering:optimizeQuality;shape-rendering:geometricPrecision;text-rendering:geometricPrecision"
       transform="matrix(0.32223851,0,0,0.32223851,-238.19175,-127.7223)">
      <path
         style="opacity:1"
         fill="#edc6c8"
         d="m 1009.5,576.5 c 0.38,5.691 -0.79,11.025 -3.5,16 -0.71,0.881 -1.54,1.547 -2.5,2 1.83,-6.159 3.83,-12.159 6,-18 z"
         id="path544" />
    </g>
    <g
       id="g545"
       style="clip-rule:evenodd;fill-rule:evenodd;image-rendering:optimizeQuality;shape-rendering:geometricPrecision;text-rendering:geometricPrecision"
       transform="matrix(0.32223851,0,0,0.32223851,-238.19175,-127.7223)">
      <path
         style="opacity:1"
         fill="#a52326"
         d="m 828.5,514.5 c 0.667,0.333 1.333,0.667 2,1 2.064,-0.187 4.064,-0.687 6,-1.5 3.851,-3.94 8.518,-5.94 14,-6 2.308,1.588 2.975,3.588 2,6 1.691,3.279 2.691,6.779 3,10.5 -7.121,3.061 -14.121,6.394 -21,10 -0.616,4.561 0.551,8.561 3.5,12 0.54,4.385 1.707,8.551 3.5,12.5 1.667,0.667 3.333,0.667 5,0 5.245,-2.791 10.579,-5.291 16,-7.5 2.518,5.388 4.351,11.055 5.5,17 0.671,0.752 1.504,1.086 2.5,1 0.671,1.347 0.671,2.514 0,3.5 -4.556,1.972 -9.222,3.639 -14,5 -1.692,1.307 -3.025,2.807 -4,4.5 -0.333,0 -0.667,0 -1,0 -2.621,-0.023 -3.955,1.311 -4,4 0.26,7.182 1.927,14.015 5,20.5 -0.145,0.772 -0.478,1.439 -1,2 3.915,5.073 4.748,10.573 2.5,16.5 -0.615,-1.616 -1.615,-2.949 -3,-4 -2.659,-6.339 -5.159,-12.672 -7.5,-19 -3.672,-10.747 -7.339,-21.413 -11,-32 -1.419,-11.903 -4.086,-23.736 -8,-35.5 0.085,-1.107 0.419,-2.107 1,-3 -1.868,-3.042 -3.535,-6.208 -5,-9.5 0.209,-0.586 0.543,-1.086 1,-1.5 -2.432,-0.743 -4.099,-2.243 -5,-4.5 -1.014,-2.074 -2.014,-4.074 -3,-6 -0.667,-4 -1.333,-8 -2,-12 -0.284,-3.277 0.049,-6.443 1,-9.5 3.014,0.083 5.847,0.916 8.5,2.5 1.226,-0.145 2.393,-0.478 3.5,-1 0.333,0.333 0.667,0.667 1,1 -2.005,0.837 -3.005,2.337 -3,4.5 1.02,6.616 3.02,12.783 6,18.5 z"
         id="path545" />
    </g>
    <g
       id="g546"
       style="clip-rule:evenodd;fill-rule:evenodd;image-rendering:optimizeQuality;shape-rendering:geometricPrecision;text-rendering:geometricPrecision"
       transform="matrix(0.32223851,0,0,0.32223851,-238.19175,-127.7223)">
      <path
         style="opacity:1"
         fill="#8a2c2e"
         d="m 832.5,570.5 c 3.661,10.587 7.328,21.253 11,32 0.333,2.667 0.667,5.333 1,8 -1.457,-3.278 -2.79,-6.611 -4,-10 -1.068,-5.632 -2.735,-10.965 -5,-16 -0.515,-2.394 -1.181,-4.728 -2,-7 -0.174,-2.361 -0.507,-4.694 -1,-7 z"
         id="path546" />
    </g>
    <g
       id="g549"
       style="clip-rule:evenodd;fill-rule:evenodd;image-rendering:optimizeQuality;shape-rendering:geometricPrecision;text-rendering:geometricPrecision"
       transform="matrix(0.32223851,0,0,0.32223851,-238.19175,-127.7223)">
      <path
         style="opacity:1"
         fill="#f1d1d3"
         d="m 998.5,605.5 c -1.432,7.217 -5.098,12.883 -11,17 3.421,-5.845 7.087,-11.512 11,-17 z"
         id="path549" />
    </g>
    <g
       id="g550"
       style="clip-rule:evenodd;fill-rule:evenodd;image-rendering:optimizeQuality;shape-rendering:geometricPrecision;text-rendering:geometricPrecision"
       transform="matrix(0.32223851,0,0,0.32223851,-238.19175,-127.7223)">
      <path
         style="opacity:1"
         fill="#f5d6d9"
         d="m 783.5,611.5 c 0.667,0.333 1.333,0.667 2,1 2.333,4 4.667,8 7,12 -1.478,0.262 -2.811,-0.071 -4,-1 -0.724,-3.115 -2.224,-5.782 -4.5,-8 -0.49,-1.293 -0.657,-2.627 -0.5,-4 z"
         id="path550" />
    </g>
    <g
       id="g551"
       style="clip-rule:evenodd;fill-rule:evenodd;image-rendering:optimizeQuality;shape-rendering:geometricPrecision;text-rendering:geometricPrecision"
       transform="matrix(0.32223851,0,0,0.32223851,-238.19175,-127.7223)">
      <path
         style="opacity:1"
         fill="#8b2d2f"
         d="m 1003.5,558.5 c 0.33,0 0.67,0 1,0 -0.21,8.159 -1.37,16.159 -3.5,24 -10.746,26.822 -27.746,48.822 -51,66 -0.414,-0.457 -0.914,-0.791 -1.5,-1 -7.04,3.52 -14.04,7.02 -21,10.5 -4.825,1.895 -9.825,2.728 -15,2.5 7.962,-2.241 15.628,-5.241 23,-9 8.331,-2.825 15.664,-7.158 22,-13 6.974,-3.974 12.64,-9.308 17,-16 0.667,0 1,-0.333 1,-1 4.961,-4.579 8.961,-9.913 12,-16 1.37,-1.75 2.37,-3.75 3,-6 6.439,-11.048 10.44,-23.048 12,-36 0.8,-1.542 1.13,-3.208 1,-5 z"
         id="path551" />
    </g>
    <g
       id="g553"
       style="clip-rule:evenodd;fill-rule:evenodd;image-rendering:optimizeQuality;shape-rendering:geometricPrecision;text-rendering:geometricPrecision"
       transform="matrix(0.32223851,0,0,0.32223851,-238.19175,-127.7223)">
      <path
         style="opacity:1"
         fill="#8b3636"
         d="m 785.5,612.5 c 0.996,-0.086 1.829,0.248 2.5,1 1.572,4.141 3.905,7.808 7,11 5.658,5.393 10.824,11.06 15.5,17 -6.657,-4.991 -12.657,-10.657 -18,-17 -2.333,-4 -4.667,-8 -7,-12 z"
         id="path553" />
    </g>
    <g
       id="g558"
       style="clip-rule:evenodd;fill-rule:evenodd;image-rendering:optimizeQuality;shape-rendering:geometricPrecision;text-rendering:geometricPrecision"
       transform="matrix(0.32223851,0,0,0.32223851,-238.19175,-127.7223)">
      <path
         style="opacity:1"
         fill="#a02629"
         d="m 975.5,469.5 c 3.521,2.003 6.854,4.336 10,7 3.465,5.431 4.465,5.098 3,-1 1.755,1.462 3.088,3.295 4,5.5 0.594,0.464 1.261,0.631 2,0.5 1.237,1.465 2.237,3.132 3,5 2.192,6.729 4.69,13.396 7.5,20 2.61,8.459 4.28,17.126 5,26 2.05,22.039 -0.79,43.373 -8.5,64 -0.71,3.094 -1.713,6.094 -3,9 -3.913,5.488 -7.579,11.155 -11,17 -6.675,7.674 -14.008,14.674 -22,21 -1.478,-0.262 -2.811,0.071 -4,1 -4.433,2.817 -8.766,5.817 -13,9 -3.342,0.332 -6.008,1.832 -8,4.5 -4.276,0.805 -7.943,2.638 -11,5.5 -1.068,0.934 -2.401,1.268 -4,1 -8.1,0.679 -16.1,1.845 -24,3.5 -17.555,1.933 -34.555,0.267 -51,-5 -3.142,-3.466 -7.142,-5.133 -12,-5 -9.48,-5.24 -18.813,-10.74 -28,-16.5 -4.676,-5.94 -9.842,-11.607 -15.5,-17 -3.095,-3.192 -5.428,-6.859 -7,-11 -0.671,-0.752 -1.504,-1.086 -2.5,-1 -0.667,-0.333 -1.333,-0.667 -2,-1 -0.393,-1.784 -1.059,-3.45 -2,-5 -2.326,-6.655 -4.659,-13.322 -7,-20 -0.129,-3.739 1.204,-4.572 4,-2.5 1.584,2.97 3.251,5.803 5,8.5 2.651,4.631 5.318,9.298 8,14 3.888,7.22 8.888,13.553 15,19 2.333,2.667 4.667,5.333 7,8 -0.131,0.739 0.036,1.406 0.5,2 3.004,2.174 5.837,4.508 8.5,7 2.41,1.872 5.077,3.205 8,4 9.607,6.616 20.274,11.449 32,14.5 12.874,2.764 25.874,3.764 39,3 3.975,-0.614 7.641,-1.781 11,-3.5 5.175,0.228 10.175,-0.605 15,-2.5 6.96,-3.48 13.96,-6.98 21,-10.5 0.586,0.209 1.086,0.543 1.5,1 23.254,-17.178 40.254,-39.178 51,-66 2.13,-7.841 3.29,-15.841 3.5,-24 0,-1.333 0,-2.667 0,-4 2.61,-18.834 -0.06,-37 -8,-54.5 -0.336,-1.03 -1.003,-1.53 -2,-1.5 -5.12,-10.455 -11.453,-20.122 -19,-29 z"
         id="path558" />
    </g>
    <g
       id="g559"
       style="clip-rule:evenodd;fill-rule:evenodd;image-rendering:optimizeQuality;shape-rendering:geometricPrecision;text-rendering:geometricPrecision"
       transform="matrix(0.32223851,0,0,0.32223851,-238.19175,-127.7223)">
      <path
         style="opacity:1"
         fill="#852b2a"
         d="m 813.5,633.5 c 1.422,1.425 3.089,2.425 5,3 3.708,3.71 7.708,7.043 12,10 -2.923,-0.795 -5.59,-2.128 -8,-4 -2.663,-2.492 -5.496,-4.826 -8.5,-7 -0.464,-0.594 -0.631,-1.261 -0.5,-2 z"
         id="path559" />
    </g>
    <g
       id="g560"
       style="clip-rule:evenodd;fill-rule:evenodd;image-rendering:optimizeQuality;shape-rendering:geometricPrecision;text-rendering:geometricPrecision"
       transform="matrix(0.32223851,0,0,0.32223851,-238.19175,-127.7223)">
      <path
         style="opacity:1"
         fill="#f2d0cf"
         d="m 818.5,636.5 c 4.564,0.05 8.064,2.05 10.5,6 0.333,-0.333 0.667,-0.667 1,-1 1.724,1.913 3.224,3.913 4.5,6 -1.208,-0.734 -2.541,-1.067 -4,-1 -4.292,-2.957 -8.292,-6.29 -12,-10 z"
         id="path560" />
    </g>
    <g
       id="g561"
       style="clip-rule:evenodd;fill-rule:evenodd;image-rendering:optimizeQuality;shape-rendering:geometricPrecision;text-rendering:geometricPrecision"
       transform="matrix(0.32223851,0,0,0.32223851,-238.19175,-127.7223)">
      <path
         style="opacity:1"
         fill="#8f3235"
         d="m 844.5,612.5 c 1.747,1.481 2.914,3.481 3.5,6 1.022,4.756 2.356,9.423 4,14 2.301,1.367 4.801,2.034 7.5,2 0,-4 0,-8 0,-12 0.333,0 0.667,0 1,0 0.427,2.876 1.094,5.709 2,8.5 -1.476,5.138 -4.81,6.805 -10,5 -1.281,-1.409 -2.281,-2.909 -3,-4.5 -0.557,-4.665 -1.89,-8.998 -4,-13 -0.017,-2.065 -0.35,-4.065 -1,-6 z"
         id="path561" />
    </g>
    <g
       id="g562"
       style="clip-rule:evenodd;fill-rule:evenodd;image-rendering:optimizeQuality;shape-rendering:geometricPrecision;text-rendering:geometricPrecision"
       transform="matrix(0.32223851,0,0,0.32223851,-238.19175,-127.7223)">
      <path
         style="opacity:1"
         fill="#e2a6ab"
         d="m 845.5,618.5 c 2.11,4.002 3.443,8.335 4,13 -2.398,-3.903 -3.731,-8.236 -4,-13 z"
         id="path562" />
    </g>
    <g
       id="g563"
       style="clip-rule:evenodd;fill-rule:evenodd;image-rendering:optimizeQuality;shape-rendering:geometricPrecision;text-rendering:geometricPrecision"
       transform="matrix(0.32223851,0,0,0.32223851,-238.19175,-127.7223)">
      <path
         style="opacity:1"
         fill="#f3d5d6"
         d="m 974.5,622.5 c -4.36,6.692 -10.026,12.026 -17,16 0.798,-4.464 3.464,-6.797 8,-7 0,-1.333 0,-2.667 0,-4 2.783,-1.895 5.783,-3.562 9,-5 z"
         id="path563" />
    </g>
    <g
       id="g564"
       style="clip-rule:evenodd;fill-rule:evenodd;image-rendering:optimizeQuality;shape-rendering:geometricPrecision;text-rendering:geometricPrecision"
       transform="matrix(0.32223851,0,0,0.32223851,-238.19175,-127.7223)">
      <path
         style="opacity:1"
         fill="#9d2728"
         d="m 851.5,582.5 c -1.082,1.094 -1.748,2.427 -2,4 1.048,4.874 2.381,9.541 4,14 2,7.333 4,14.666 6,22 0,4 0,8 0,12 -2.699,0.034 -5.199,-0.633 -7.5,-2 -1.644,-4.577 -2.978,-9.244 -4,-14 -0.586,-2.519 -1.753,-4.519 -3.5,-6 0,-0.667 0,-1.333 0,-2 -0.333,-2.667 -0.667,-5.333 -1,-8 2.341,6.328 4.841,12.661 7.5,19 1.385,1.051 2.385,2.384 3,4 2.248,-5.927 1.415,-11.427 -2.5,-16.5 0.522,-0.561 0.855,-1.228 1,-2 -3.073,-6.485 -4.74,-13.318 -5,-20.5 0.045,-2.689 1.379,-4.023 4,-4 z"
         id="path564" />
    </g>
    <g
       id="g565"
       style="clip-rule:evenodd;fill-rule:evenodd;image-rendering:optimizeQuality;shape-rendering:geometricPrecision;text-rendering:geometricPrecision"
       transform="matrix(0.32223851,0,0,0.32223851,-238.19175,-127.7223)">
      <path
         style="opacity:1"
         fill="#f5d5d5"
         d="m 987.5,605.5 c -3.039,6.087 -7.039,11.421 -12,16 1.808,-4.79 4.308,-9.123 7.5,-13 1.129,-1.641 2.629,-2.641 4.5,-3 z"
         id="path565" />
    </g>
    <g
       id="g566"
       style="clip-rule:evenodd;fill-rule:evenodd;image-rendering:optimizeQuality;shape-rendering:geometricPrecision;text-rendering:geometricPrecision"
       transform="matrix(0.32223851,0,0,0.32223851,-238.19175,-127.7223)">
      <path
         style="opacity:1"
         fill="#f7dddd"
         d="m 791.5,606.5 c 2.247,2.135 4.913,3.801 8,5 2.917,4.5 5.25,9.166 7,14 -6.112,-5.447 -11.112,-11.78 -15,-19 z"
         id="path566" />
    </g>
    <g
       id="g567"
       style="clip-rule:evenodd;fill-rule:evenodd;image-rendering:optimizeQuality;shape-rendering:geometricPrecision;text-rendering:geometricPrecision"
       transform="matrix(0.32223851,0,0,0.32223851,-238.19175,-127.7223)">
      <path
         style="opacity:1"
         fill="#f1c9c8"
         d="m 853.5,600.5 c 3.515,6.881 5.848,14.214 7,22 -0.333,0 -0.667,0 -1,0 -2,-7.334 -4,-14.667 -6,-22 z"
         id="path567" />
    </g>
    <g
       id="g568"
       style="clip-rule:evenodd;fill-rule:evenodd;image-rendering:optimizeQuality;shape-rendering:geometricPrecision;text-rendering:geometricPrecision"
       transform="matrix(0.32223851,0,0,0.32223851,-238.19175,-127.7223)">
      <path
         style="opacity:1"
         fill="#f1c7ca"
         d="m 835.5,584.5 c 2.265,5.035 3.932,10.368 5,16 -1.673,-0.843 -2.84,-2.176 -3.5,-4 -1.156,-3.918 -1.656,-7.918 -1.5,-12 z"
         id="path568" />
    </g>
    <g
       id="g569"
       style="clip-rule:evenodd;fill-rule:evenodd;image-rendering:optimizeQuality;shape-rendering:geometricPrecision;text-rendering:geometricPrecision"
       transform="matrix(0.32223851,0,0,0.32223851,-238.19175,-127.7223)">
      <path
         style="opacity:1"
         fill="#c68a8c"
         d="m 948.5,582.5 c -3.365,1.539 -7.031,2.206 -11,2 -2.855,-0.003 -5.522,-0.336 -8,-1 6.369,0.153 12.703,-0.18 19,-1 z"
         id="path569" />
    </g>
    <g
       id="g570"
       style="clip-rule:evenodd;fill-rule:evenodd;image-rendering:optimizeQuality;shape-rendering:geometricPrecision;text-rendering:geometricPrecision"
       transform="matrix(0.32223851,0,0,0.32223851,-238.19175,-127.7223)">
      <path
         style="opacity:1"
         fill="#882b2e"
         d="m 965.5,643.5 c -0.333,0.667 -0.667,1.333 -1,2 -9.391,6.697 -19.391,12.363 -30,17 -1.617,0.538 -3.284,0.871 -5,1 3.057,-2.862 6.724,-4.695 11,-5.5 1.992,-2.668 4.658,-4.168 8,-4.5 4.234,-3.183 8.567,-6.183 13,-9 1.189,-0.929 2.522,-1.262 4,-1 z"
         id="path570" />
    </g>
    <g
       id="g571"
       style="clip-rule:evenodd;fill-rule:evenodd;image-rendering:optimizeQuality;shape-rendering:geometricPrecision;text-rendering:geometricPrecision"
       transform="matrix(0.32223851,0,0,0.32223851,-238.19175,-127.7223)">
      <path
         style="opacity:1"
         fill="#f4d7da"
         d="m 964.5,645.5 c -7.139,9.293 -17.139,14.96 -30,17 10.609,-4.637 20.609,-10.303 30,-17 z"
         id="path571" />
    </g>
    <g
       id="g583"
       style="clip-rule:evenodd;fill-rule:evenodd;image-rendering:optimizeQuality;shape-rendering:geometricPrecision;text-rendering:geometricPrecision"
       transform="matrix(0.32223851,0,0,0.32223851,-238.19175,-127.7223)">
      <path
         style="opacity:1"
         fill="#eec9c8"
         d="m 842.5,651.5 c 9.572,1.998 18.905,4.498 28,7.5 12.333,2 24.667,2 37,0 9.224,-3.005 18.557,-5.505 28,-7.5 -7.372,3.759 -15.038,6.759 -23,9 -19.64,3.642 -38.974,2.475 -58,-3.5 -4.314,-1.372 -8.314,-3.205 -12,-5.5 z"
         id="path583" />
    </g>
    <g
       id="g584"
       style="clip-rule:evenodd;fill-rule:evenodd;image-rendering:optimizeQuality;shape-rendering:geometricPrecision;text-rendering:geometricPrecision"
       transform="matrix(0.32223851,0,0,0.32223851,-238.19175,-127.7223)">
      <path
         style="opacity:1"
         fill="#852a2a"
         d="m 830.5,646.5 c 1.459,-0.067 2.792,0.266 4,1 2.349,1.841 5.015,3.174 8,4 3.686,2.295 7.686,4.128 12,5.5 19.026,5.975 38.36,7.142 58,3.5 -3.359,1.719 -7.025,2.886 -11,3.5 -13.126,0.764 -26.126,-0.236 -39,-3 -11.726,-3.051 -22.393,-7.884 -32,-14.5 z"
         id="path584" />
    </g>
    <g
       id="g587"
       style="clip-rule:evenodd;fill-rule:evenodd;image-rendering:optimizeQuality;shape-rendering:geometricPrecision;text-rendering:geometricPrecision"
       transform="matrix(0.32223851,0,0,0.32223851,-238.19175,-127.7223)">
      <path
         style="opacity:1"
         fill="#edc5c8"
         d="m 840.5,661.5 c 5.233,1.219 10.233,2.885 15,5 -2.027,0.162 -4.027,-0.005 -6,-0.5 -3.303,-1.059 -6.303,-2.559 -9,-4.5 z"
         id="path587" />
    </g>
    <g
       id="g588"
       style="clip-rule:evenodd;fill-rule:evenodd;image-rendering:optimizeQuality;shape-rendering:geometricPrecision;text-rendering:geometricPrecision"
       transform="matrix(0.32223851,0,0,0.32223851,-238.19175,-127.7223)">
      <path
         style="opacity:1"
         fill="#c58b8a"
         d="m 861.5,667.5 c 2.652,-0.09 4.985,0.576 7,2 -2.652,0.09 -4.985,-0.576 -7,-2 z"
         id="path588" />
    </g>
    <g
       id="g589"
       style="clip-rule:evenodd;fill-rule:evenodd;image-rendering:optimizeQuality;shape-rendering:geometricPrecision;text-rendering:geometricPrecision"
       transform="matrix(0.32223851,0,0,0.32223851,-238.19175,-127.7223)">
      <path
         style="opacity:1"
         fill="#882d2e"
         d="m 810.5,641.5 c 9.187,5.76 18.52,11.26 28,16.5 4.858,-0.133 8.858,1.534 12,5 16.445,5.267 33.445,6.933 51,5 7.9,-1.655 15.9,-2.821 24,-3.5 -1.572,1.187 -3.239,2.187 -5,3 -15.548,2.583 -31.215,3.583 -47,3 -1.542,-0.801 -3.208,-1.134 -5,-1 -2.015,-1.424 -4.348,-2.09 -7,-2 -2,-0.333 -4,-0.667 -6,-1 -4.767,-2.115 -9.767,-3.781 -15,-5 -11.032,-5.178 -21.032,-11.845 -30,-20 z"
         id="path589" />
    </g>
    <g
       id="g590"
       style="clip-rule:evenodd;fill-rule:evenodd;image-rendering:optimizeQuality;shape-rendering:geometricPrecision;text-rendering:geometricPrecision"
       transform="matrix(0.32223851,0,0,0.32223851,-238.19175,-127.7223)">
      <path
         style="opacity:1"
         fill="#eac0c2"
         d="m 920.5,667.5 c -5.356,2.009 -11.023,3.176 -17,3.5 -10.175,0.825 -20.175,0.658 -30,-0.5 15.785,0.583 31.452,-0.417 47,-3 z"
         id="path590" />
    </g>
  </g>
</svg>
