<?xml version="1.0" encoding="UTF-8" standalone="no"?>
<!-- Created with Inkscape (http://www.inkscape.org/) -->

<svg
   width="96mm"
   height="96mm"
   viewBox="0 0 96 96"
   version="1.1"
   id="svg1"
   inkscape:version="1.4.2 (ebf0e940, 2025-05-08)"
   sodipodi:docname="start.svg"
   xmlns:inkscape="http://www.inkscape.org/namespaces/inkscape"
   xmlns:sodipodi="http://sodipodi.sourceforge.net/DTD/sodipodi-0.dtd"
   xmlns="http://www.w3.org/2000/svg"
   xmlns:svg="http://www.w3.org/2000/svg">
  <sodipodi:namedview
     id="namedview1"
     pagecolor="#ffffff"
     bordercolor="#000000"
     borderopacity="0.25"
     inkscape:showpageshadow="2"
     inkscape:pageopacity="0.0"
     inkscape:pagecheckerboard="0"
     inkscape:deskcolor="#d1d1d1"
     inkscape:document-units="mm"
     inkscape:zoom="0.80444024"
     inkscape:cx="397.17059"
     inkscape:cy="362.36377"
     inkscape:window-width="1920"
     inkscape:window-height="1052"
     inkscape:window-x="0"
     inkscape:window-y="28"
     inkscape:window-maximized="0"
     inkscape:current-layer="layer1" />
  <defs
     id="defs1" />
  <g
     inkscape:label="Layer 1"
     inkscape:groupmode="layer"
     id="layer1">
    <g
       id="g431"
       style="clip-rule:evenodd;fill-rule:evenodd;image-rendering:optimizeQuality;shape-rendering:geometricPrecision;text-rendering:geometricPrecision"
       transform="matrix(0.30571049,0,0,0.30571049,-222.3553,-122.3859)">
      <path
         style="opacity:1"
         fill="#f8dcd6"
         d="m 869.5,428.5 c 8.156,-1.157 16.49,-1.323 25,-0.5 3.663,0.572 6.997,1.738 10,3.5 -5.304,-0.884 -10.637,-1.551 -16,-2 -6.145,-0.99 -12.478,-1.323 -19,-1 z"
         id="path431" />
    </g>
    <g
       id="g433"
       style="clip-rule:evenodd;fill-rule:evenodd;image-rendering:optimizeQuality;shape-rendering:geometricPrecision;text-rendering:geometricPrecision"
       transform="matrix(0.30571049,0,0,0.30571049,-222.3553,-122.3859)">
      <path
         style="opacity:1"
         fill="#e5a6a1"
         d="m 869.5,428.5 c 6.522,-0.323 12.855,0.01 19,1 -9.346,0.038 -18.68,0.371 -28,1 2.773,-1.157 5.773,-1.824 9,-2 z"
         id="path433" />
    </g>
    <g
       id="g435"
       style="clip-rule:evenodd;fill-rule:evenodd;image-rendering:optimizeQuality;shape-rendering:geometricPrecision;text-rendering:geometricPrecision"
       transform="matrix(0.30571049,0,0,0.30571049,-222.3553,-122.3859)">
      <path
         style="opacity:1"
         fill="#ba5248"
         d="m 888.5,429.5 c 5.363,0.449 10.696,1.116 16,2 7.041,1.566 14.041,3.566 21,6 2.84,2.415 6.173,3.748 10,4 0.333,0.667 0.667,1.333 1,2 -6.063,-1.799 -12.063,-3.799 -18,-6 -4.791,-2.064 -9.791,-3.564 -15,-4.5 -23.136,-3.254 -45.803,-1.42 -68,5.5 1.773,-1.392 3.773,-2.559 6,-3.5 6.285,-1.82 12.619,-3.32 19,-4.5 9.32,-0.629 18.654,-0.962 28,-1 z"
         id="path435" />
    </g>
    <g
       id="g444"
       style="clip-rule:evenodd;fill-rule:evenodd;image-rendering:optimizeQuality;shape-rendering:geometricPrecision;text-rendering:geometricPrecision"
       transform="matrix(0.30571049,0,0,0.30571049,-222.3553,-122.3859)">
      <path
         style="opacity:1"
         fill="#f1c0bc"
         d="m 925.5,437.5 c 3.827,0.252 7.16,1.585 10,4 -3.827,-0.252 -7.16,-1.585 -10,-4 z"
         id="path444" />
    </g>
    <g
       id="g447"
       style="clip-rule:evenodd;fill-rule:evenodd;image-rendering:optimizeQuality;shape-rendering:geometricPrecision;text-rendering:geometricPrecision"
       transform="matrix(0.30571049,0,0,0.30571049,-222.3553,-122.3859)">
      <path
         style="opacity:1"
         fill="#faf8f8"
         d="m 905.5,441.5 c 5.238,0.525 10.238,1.858 15,4 8.54,6.5 17.874,11.833 28,16 0.667,0 1.333,0 2,0 2.36,3.027 5.027,5.694 8,8 3.966,5.301 8.3,10.301 13,15 2.4,1.796 4.067,4.13 5,7 3.013,9.541 6.513,18.875 10.5,28 0.74,1.819 1.907,3.152 3.5,4 1.683,14.609 2.349,29.109 2,43.5 -0.403,1.473 -1.07,2.806 -2,4 0.133,2.734 0.133,5.401 0,8 -2.209,8.073 -4.209,16.239 -6,24.5 -3.303,6.614 -6.97,12.947 -11,19 -1.052,-0.149 -2.052,0.017 -3,0.5 -2.732,3.611 -5.399,7.444 -8,11.5 -2.333,-1 -3,-0.333 -2,2 -2.457,2.089 -4.957,4.089 -7.5,6 -0.483,0.948 -0.649,1.948 -0.5,3 -1.373,-0.157 -2.707,0.01 -4,0.5 -4.74,4.33 -9.907,8.163 -15.5,11.5 -8.536,4.187 -17.036,8.187 -25.5,12 -1.333,0 -2.667,0 -4,0 -14.267,2.277 -28.6,2.61 -43,1 -4.286,-1.207 -8.62,-2.207 -13,-3 -5.029,-4.305 -11.029,-6.638 -18,-7 -2.831,-0.579 -5.164,-1.912 -7,-4 0.484,-4.01 -1.016,-5.676 -4.5,-5 -2.792,-2.329 -5.958,-3.995 -9.5,-5 -4.864,-4.84 -8.864,-10.173 -12,-16 -1.052,0.149 -2.052,-0.017 -3,-0.5 -1.549,-2.711 -3.549,-4.877 -6,-6.5 -0.667,-0.333 -1.333,-0.667 -2,-1 -2.333,-4.667 -4.667,-9.333 -7,-14 -3.49,-10.509 -6.657,-21.176 -9.5,-32 -1.984,-17.355 -1.817,-34.688 0.5,-52 4.014,-6.739 6.681,-14.072 8,-22 2.079,-4.493 4.412,-8.826 7,-13 11.124,-15.788 25.124,-28.455 42,-38 5.216,-0.246 9.55,-2.246 13,-6 4.493,-1.494 8.827,-3.16 13,-5 0.333,0 0.667,0 1,0 2.264,-0.719 4.597,-1.052 7,-1 15.107,-1.618 30.107,-0.952 45,2 z"
         id="path447" />
    </g>
    <g
       id="g449"
       style="clip-rule:evenodd;fill-rule:evenodd;image-rendering:optimizeQuality;shape-rendering:geometricPrecision;text-rendering:geometricPrecision"
       transform="matrix(0.30571049,0,0,0.30571049,-222.3553,-122.3859)">
      <path
         style="opacity:1"
         fill="#d34035"
         d="m 918.5,437.5 c 2.09,1.89 4.423,3.557 7,5 -1.901,0.731 -3.901,0.731 -6,0 -5.405,-2.011 -11.071,-3.011 -17,-3 -13.935,-4.398 -28.268,-5.231 -43,-2.5 -2.519,0.586 -4.519,1.753 -6,3.5 -0.333,0 -0.667,0 -1,0 -2.687,-0.164 -5.354,0.003 -8,0.5 -4.125,2.661 -8.625,4.495 -13.5,5.5 -7.483,4.853 -15.15,9.186 -23,13 -0.914,-1.154 -1.747,-0.987 -2.5,0.5 1.231,1.183 1.231,2.349 0,3.5 -1.653,1.817 -3.486,3.484 -5.5,5 -1.162,-0.687 -2.328,-0.853 -3.5,-0.5 0.959,2.69 0.292,3.024 -2,1 0.808,-1.706 2.141,-2.539 4,-2.5 1.385,-4.556 4.385,-7.722 9,-9.5 2.332,-2.306 4.332,-4.806 6,-7.5 1.982,-0.495 3.982,-0.995 6,-1.5 5.003,-3.823 10.337,-6.99 16,-9.5 22.197,-6.92 44.864,-8.754 68,-5.5 5.209,0.936 10.209,2.436 15,4.5 z"
         id="path449" />
    </g>
    <g
       id="g450"
       style="clip-rule:evenodd;fill-rule:evenodd;image-rendering:optimizeQuality;shape-rendering:geometricPrecision;text-rendering:geometricPrecision"
       transform="matrix(0.30571049,0,0,0.30571049,-222.3553,-122.3859)">
      <path
         style="opacity:1"
         fill="#f0b6b0"
         d="m 902.5,439.5 c 1,0.667 2,1.333 3,2 -14.893,-2.952 -29.893,-3.618 -45,-2 5.767,-1.453 11.767,-2.12 18,-2 8.049,0.173 16.049,0.84 24,2 z"
         id="path450" />
    </g>
    <g
       id="g451"
       style="clip-rule:evenodd;fill-rule:evenodd;image-rendering:optimizeQuality;shape-rendering:geometricPrecision;text-rendering:geometricPrecision"
       transform="matrix(0.30571049,0,0,0.30571049,-222.3553,-122.3859)">
      <path
         style="opacity:1"
         fill="#bb4c42"
         d="m 902.5,439.5 c -7.951,-1.16 -15.951,-1.827 -24,-2 -6.233,-0.12 -12.233,0.547 -18,2 -2.403,-0.052 -4.736,0.281 -7,1 1.481,-1.747 3.481,-2.914 6,-3.5 14.732,-2.731 29.065,-1.898 43,2.5 z"
         id="path451" />
    </g>
    <g
       id="g452"
       style="clip-rule:evenodd;fill-rule:evenodd;image-rendering:optimizeQuality;shape-rendering:geometricPrecision;text-rendering:geometricPrecision"
       transform="matrix(0.30571049,0,0,0.30571049,-222.3553,-122.3859)">
      <path
         style="opacity:1"
         fill="#c15c53"
         d="m 902.5,439.5 c 5.929,-0.011 11.595,0.989 17,3 1.849,1.093 3.516,2.426 5,4 -1.333,-0.333 -2.667,-0.667 -4,-1 -4.762,-2.142 -9.762,-3.475 -15,-4 -1,-0.667 -2,-1.333 -3,-2 z"
         id="path452" />
    </g>
    <g
       id="g453"
       style="clip-rule:evenodd;fill-rule:evenodd;image-rendering:optimizeQuality;shape-rendering:geometricPrecision;text-rendering:geometricPrecision"
       transform="matrix(0.30571049,0,0,0.30571049,-222.3553,-122.3859)">
      <path
         style="opacity:1"
         fill="#f5cfca"
         d="m 935.5,441.5 c 3.719,0.064 6.386,1.731 8,5 -2.454,-0.727 -4.787,-1.727 -7,-3 -0.333,-0.667 -0.667,-1.333 -1,-2 z"
         id="path453" />
    </g>
    <g
       id="g454"
       style="clip-rule:evenodd;fill-rule:evenodd;image-rendering:optimizeQuality;shape-rendering:geometricPrecision;text-rendering:geometricPrecision"
       transform="matrix(0.30571049,0,0,0.30571049,-222.3553,-122.3859)">
      <path
         style="opacity:1"
         fill="#c8483d"
         d="m 918.5,437.5 c 5.937,2.201 11.937,4.201 18,6 2.213,1.273 4.546,2.273 7,3 2.033,2.513 4.699,4.013 8,4.5 2.882,3.383 6.215,6.216 10,8.5 2,2.333 4,4.667 6,7 -2.454,0.179 -4.621,-0.487 -6.5,-2 -0.5,0.333 -1,0.667 -1.5,1 0.742,0.787 1.575,1.453 2.5,2 0.982,2.794 2.149,5.461 3.5,8 -2.333,-2 -4.667,-4 -7,-6 -2.973,-2.306 -5.64,-4.973 -8,-8 2.428,0.712 4.761,1.712 7,3 1.181,-1.635 1.181,-3.302 0,-5 -7.207,-6.775 -15.541,-11.775 -25,-15 -1.432,0.233 -1.932,0.9 -1.5,2 4.334,1.399 7.501,4.065 9.5,8 -5.098,-3.088 -10.431,-5.754 -16,-8 -1.484,-1.574 -3.151,-2.907 -5,-4 2.099,0.731 4.099,0.731 6,0 -2.577,-1.443 -4.91,-3.11 -7,-5 z"
         id="path454" />
    </g>
    <g
       id="g456"
       style="clip-rule:evenodd;fill-rule:evenodd;image-rendering:optimizeQuality;shape-rendering:geometricPrecision;text-rendering:geometricPrecision"
       transform="matrix(0.30571049,0,0,0.30571049,-222.3553,-122.3859)">
      <path
         style="opacity:1"
         fill="#c25851"
         d="m 835.5,438.5 c -5.663,2.51 -10.997,5.677 -16,9.5 -2.018,0.505 -4.018,1.005 -6,1.5 6.302,-5.556 13.636,-9.223 22,-11 z"
         id="path456" />
    </g>
    <g
       id="g459"
       style="clip-rule:evenodd;fill-rule:evenodd;image-rendering:optimizeQuality;shape-rendering:geometricPrecision;text-rendering:geometricPrecision"
       transform="matrix(0.30571049,0,0,0.30571049,-222.3553,-122.3859)">
      <path
         style="opacity:1"
         fill="#f4c1c0"
         d="m 839.5,445.5 c -3.45,3.754 -7.784,5.754 -13,6 3.905,-2.784 8.238,-4.784 13,-6 z"
         id="path459" />
    </g>
    <g
       id="g461"
       style="clip-rule:evenodd;fill-rule:evenodd;image-rendering:optimizeQuality;shape-rendering:geometricPrecision;text-rendering:geometricPrecision"
       transform="matrix(0.30571049,0,0,0.30571049,-222.3553,-122.3859)">
      <path
         style="opacity:1"
         fill="#f9d7d4"
         d="m 920.5,445.5 c 1.333,0.333 2.667,0.667 4,1 5.569,2.246 10.902,4.912 16,8 2.667,2.333 5.333,4.667 8,7 -10.126,-4.167 -19.46,-9.5 -28,-16 z"
         id="path461" />
    </g>
    <g
       id="g462"
       style="clip-rule:evenodd;fill-rule:evenodd;image-rendering:optimizeQuality;shape-rendering:geometricPrecision;text-rendering:geometricPrecision"
       transform="matrix(0.30571049,0,0,0.30571049,-222.3553,-122.3859)">
      <path
         style="opacity:1"
         fill="#d14338"
         d="m 950.5,461.5 c -0.667,0 -1.333,0 -2,0 -2.667,-2.333 -5.333,-4.667 -8,-7 -1.999,-3.935 -5.166,-6.601 -9.5,-8 -0.432,-1.1 0.068,-1.767 1.5,-2 9.459,3.225 17.793,8.225 25,15 1.181,1.698 1.181,3.365 0,5 -2.239,-1.288 -4.572,-2.288 -7,-3 z"
         id="path462" />
    </g>
    <g
       id="g473"
       style="clip-rule:evenodd;fill-rule:evenodd;image-rendering:optimizeQuality;shape-rendering:geometricPrecision;text-rendering:geometricPrecision"
       transform="matrix(0.30571049,0,0,0.30571049,-222.3553,-122.3859)">
      <path
         style="opacity:1"
         fill="#c54940"
         d="m 852.5,440.5 c -4.173,1.84 -8.507,3.506 -13,5 -4.762,1.216 -9.095,3.216 -13,6 -16.876,9.545 -30.876,22.212 -42,38 0.599,-3.799 2.099,-7.132 4.5,-10 1.635,-1.226 3.135,-2.559 4.5,-4 -1.574,-1.131 -3.241,-1.298 -5,-0.5 -3.119,2.471 -6.119,4.971 -9,7.5 2.076,-1.807 3.409,-4.141 4,-7 1.221,-0.528 2.387,-1.195 3.5,-2 3.442,-4.812 7.276,-9.312 11.5,-13.5 4.898,-3.745 9.898,-7.245 15,-10.5 -1.668,2.694 -3.668,5.194 -6,7.5 -4.615,1.778 -7.615,4.944 -9,9.5 -1.859,-0.039 -3.192,0.794 -4,2.5 2.292,2.024 2.959,1.69 2,-1 1.172,-0.353 2.338,-0.187 3.5,0.5 2.014,-1.516 3.847,-3.183 5.5,-5 1.231,-1.151 1.231,-2.317 0,-3.5 0.753,-1.487 1.586,-1.654 2.5,-0.5 7.85,-3.814 15.517,-8.147 23,-13 4.875,-1.005 9.375,-2.839 13.5,-5.5 2.646,-0.497 5.313,-0.664 8,-0.5 z"
         id="path473" />
    </g>
    <g
       id="g475"
       style="clip-rule:evenodd;fill-rule:evenodd;image-rendering:optimizeQuality;shape-rendering:geometricPrecision;text-rendering:geometricPrecision"
       transform="matrix(0.30571049,0,0,0.30571049,-222.3553,-122.3859)">
      <path
         style="opacity:1"
         fill="#f8dbd6"
         d="m 961.5,459.5 c 2.305,1.287 4.638,2.62 7,4 1.989,3.323 4.656,5.989 8,8 2,2.667 4,5.333 6,8 0.809,1.571 1.143,3.238 1,5 -2.432,-3.188 -5.099,-6.188 -8,-9 -1.93,-3.6 -4.597,-6.6 -8,-9 -2,-2.333 -4,-4.667 -6,-7 z"
         id="path475" />
    </g>
    <g
       id="g479"
       style="clip-rule:evenodd;fill-rule:evenodd;image-rendering:optimizeQuality;shape-rendering:geometricPrecision;text-rendering:geometricPrecision"
       transform="matrix(0.30571049,0,0,0.30571049,-222.3553,-122.3859)">
      <path
         style="opacity:1"
         fill="#f3bab6"
         d="m 958.5,469.5 c 2.333,2 4.667,4 7,6 1.201,2.409 2.867,4.409 5,6 0.61,0.891 0.943,1.891 1,3 -4.7,-4.699 -9.034,-9.699 -13,-15 z"
         id="path479" />
    </g>
    <g
       id="g480"
       style="clip-rule:evenodd;fill-rule:evenodd;image-rendering:optimizeQuality;shape-rendering:geometricPrecision;text-rendering:geometricPrecision"
       transform="matrix(0.30571049,0,0,0.30571049,-222.3553,-122.3859)">
      <path
         style="opacity:1"
         fill="#c35349"
         d="m 975.5,475.5 c 2.901,2.812 5.568,5.812 8,9 0.667,1.667 1.333,3.333 2,5 -0.973,-0.487 -1.973,-0.987 -3,-1.5 -3.126,-3.9 -5.459,-8.067 -7,-12.5 z"
         id="path480" />
    </g>
    <g
       id="g483"
       style="clip-rule:evenodd;fill-rule:evenodd;image-rendering:optimizeQuality;shape-rendering:geometricPrecision;text-rendering:geometricPrecision"
       transform="matrix(0.30571049,0,0,0.30571049,-222.3553,-122.3859)">
      <path
         style="opacity:1"
         fill="#f8dad6"
         d="m 783.5,475.5 c -0.591,2.859 -1.924,5.193 -4,7 -4.267,4.195 -7.267,9.195 -9,15 -0.333,0.667 -0.667,1.333 -1,2 -0.333,0 -0.667,0 -1,0 2.487,-5.874 4.987,-11.874 7.5,-18 1.667,-1 3.333,-2 5,-3 0.617,-0.949 0.451,-1.782 -0.5,-2.5 0.948,-0.483 1.948,-0.649 3,-0.5 z"
         id="path483" />
    </g>
    <g
       id="g484"
       style="clip-rule:evenodd;fill-rule:evenodd;image-rendering:optimizeQuality;shape-rendering:geometricPrecision;text-rendering:geometricPrecision"
       transform="matrix(0.30571049,0,0,0.30571049,-222.3553,-122.3859)">
      <path
         style="opacity:1"
         fill="#c05c55"
         d="m 950.5,505.5 c -2.404,-7.39 -4.071,-15.057 -5,-23 -2.421,0.378 -4.754,1.045 -7,2 2.158,-2.493 4.824,-4.16 8,-5 1.712,8.568 3.045,17.235 4,26 z"
         id="path484" />
    </g>
    <g
       id="g485"
       style="clip-rule:evenodd;fill-rule:evenodd;image-rendering:optimizeQuality;shape-rendering:geometricPrecision;text-rendering:geometricPrecision"
       transform="matrix(0.30571049,0,0,0.30571049,-222.3553,-122.3859)">
      <path
         style="opacity:1"
         fill="#fadeda"
         d="m 881.5,486.5 c -12.004,-2.955 -24.004,-3.622 -36,-2 -5.332,1.115 -10.665,2.449 -16,4 0.843,-1.673 2.176,-2.84 4,-3.5 13.851,-2.507 27.851,-3.173 42,-2 2.227,0.941 4.227,2.108 6,3.5 z"
         id="path485" />
    </g>
    <g
       id="g487"
       style="clip-rule:evenodd;fill-rule:evenodd;image-rendering:optimizeQuality;shape-rendering:geometricPrecision;text-rendering:geometricPrecision"
       transform="matrix(0.30571049,0,0,0.30571049,-222.3553,-122.3859)">
      <path
         style="opacity:1"
         fill="#be574d"
         d="m 970.5,481.5 c 4.936,2.945 7.936,7.279 9,13 -0.772,-1.194 -1.772,-2.194 -3,-3 -0.933,-2.87 -2.6,-5.204 -5,-7 -0.057,-1.109 -0.39,-2.109 -1,-3 z"
         id="path487" />
    </g>
    <g
       id="g489"
       style="clip-rule:evenodd;fill-rule:evenodd;image-rendering:optimizeQuality;shape-rendering:geometricPrecision;text-rendering:geometricPrecision"
       transform="matrix(0.30571049,0,0,0.30571049,-222.3553,-122.3859)">
      <path
         style="opacity:1"
         fill="#c55c51"
         d="m 779.5,482.5 c 0.157,1.373 -0.01,2.707 -0.5,4 -2.853,3.735 -5.687,7.402 -8.5,11 1.733,-5.805 4.733,-10.805 9,-15 z"
         id="path489" />
    </g>
    <g
       id="g490"
       style="clip-rule:evenodd;fill-rule:evenodd;image-rendering:optimizeQuality;shape-rendering:geometricPrecision;text-rendering:geometricPrecision"
       transform="matrix(0.30571049,0,0,0.30571049,-222.3553,-122.3859)">
      <path
         style="opacity:1"
         fill="#c1473e"
         d="m 845.5,484.5 c 14.353,-0.956 28.353,0.711 42,5 2.387,0.412 4.387,1.412 6,3 -7.691,-1.639 -15.358,-3.472 -23,-5.5 -3.333,-0.167 -6.667,-0.333 -10,-0.5 -11.798,0.76 -23.465,2.426 -35,5 1.333,-1 2.667,-2 4,-3 5.335,-1.551 10.668,-2.885 16,-4 z"
         id="path490" />
    </g>
    <g
       id="g492"
       style="clip-rule:evenodd;fill-rule:evenodd;image-rendering:optimizeQuality;shape-rendering:geometricPrecision;text-rendering:geometricPrecision"
       transform="matrix(0.30571049,0,0,0.30571049,-222.3553,-122.3859)">
      <path
         style="opacity:1"
         fill="#f8dbd7"
         d="m 952.5,512.5 c -0.667,-1.333 -1.333,-2.667 -2,-4 0,-1 0,-2 0,-3 -0.955,-8.765 -2.288,-17.432 -4,-26 -3.176,0.84 -5.842,2.507 -8,5 -6.881,4.743 -14.548,7.743 -23,9 -6.036,0.14 -12.036,-0.193 -18,-1 -1.333,0 -2.667,0 -4,0 -1.613,-1.588 -3.613,-2.588 -6,-3 -1.749,-1.485 -3.749,-2.485 -6,-3 3.802,-0.62 7.135,0.214 10,2.5 14.901,4.63 29.068,3.13 42.5,-4.5 2.73,-2.087 5.563,-4.087 8.5,-6 1.574,-1.131 3.241,-1.298 5,-0.5 3.375,11.187 5.041,22.687 5,34.5 z"
         id="path492" />
    </g>
    <g
       id="g493"
       style="clip-rule:evenodd;fill-rule:evenodd;image-rendering:optimizeQuality;shape-rendering:geometricPrecision;text-rendering:geometricPrecision"
       transform="matrix(0.30571049,0,0,0.30571049,-222.3553,-122.3859)">
      <path
         style="opacity:1"
         fill="#d93d32"
         d="m 950.5,505.5 c 0,1 0,2 0,3 -0.165,3.35 0.002,6.683 0.5,10 4.351,18.438 7.518,37.105 9.5,56 -0.09,1.728 -0.423,3.394 -1,5 -3.355,3.453 -7.021,6.453 -11,9 -3.473,0.076 -6.806,0.742 -10,2 -13.22,0.864 -26.22,-0.302 -39,-3.5 -7.576,-4.49 -15.909,-6.657 -25,-6.5 -8.961,0.704 -17.627,2.704 -26,6 -2.211,3.143 -5.211,4.81 -9,5 -0.198,5.25 0.469,10.25 2,15 2.856,12.649 5.856,25.316 9,38 -2.091,0.182 -4.091,-0.152 -6,-1 -3.394,-5.888 -5.728,-12.222 -7,-19 -0.682,-0.743 -1.349,-1.409 -2,-2 -0.734,-1.208 -1.067,-2.541 -1,-4 -4.254,-20.352 -9.754,-40.352 -16.5,-60 -0.388,-3.719 -1.055,-7.386 -2,-11 -1.944,-3.104 -3.778,-6.104 -5.5,-9 -1.752,-11.924 -4.585,-23.59 -8.5,-35 -0.667,-1.667 -0.667,-3.333 0,-5 4.092,-0.58 8.259,-0.746 12.5,-0.5 3.785,-2.082 7.452,-4.249 11,-6.5 11.535,-2.574 23.202,-4.24 35,-5 3.333,0.167 6.667,0.333 10,0.5 7.642,2.028 15.309,3.861 23,5.5 1.519,0.91 3.185,1.743 5,2.5 12.802,2.164 24.802,0.164 36,-6 1.541,-1.371 2.875,-2.871 4,-4.5 2.246,-0.955 4.579,-1.622 7,-2 0.929,7.943 2.596,15.61 5,23 z"
         id="path493" />
    </g>
    <g
       id="g495"
       style="clip-rule:evenodd;fill-rule:evenodd;image-rendering:optimizeQuality;shape-rendering:geometricPrecision;text-rendering:geometricPrecision"
       transform="matrix(0.30571049,0,0,0.30571049,-222.3553,-122.3859)">
      <path
         style="opacity:1"
         fill="#e6a29c"
         d="m 845.5,484.5 c 11.996,-1.622 23.996,-0.955 36,2 2.251,0.515 4.251,1.515 6,3 -13.647,-4.289 -27.647,-5.956 -42,-5 z"
         id="path495" />
    </g>
    <g
       id="g500"
       style="clip-rule:evenodd;fill-rule:evenodd;image-rendering:optimizeQuality;shape-rendering:geometricPrecision;text-rendering:geometricPrecision"
       transform="matrix(0.30571049,0,0,0.30571049,-222.3553,-122.3859)">
      <path
         style="opacity:1"
         fill="#b8443d"
         d="m 938.5,484.5 c -1.125,1.629 -2.459,3.129 -4,4.5 -11.198,6.164 -23.198,8.164 -36,6 -1.815,-0.757 -3.481,-1.59 -5,-2.5 1.333,0 2.667,0 4,0 3.195,1.53 6.695,2.196 10.5,2 2.69,-0.003 5.19,-0.336 7.5,-1 8.452,-1.257 16.119,-4.257 23,-9 z"
         id="path500" />
    </g>
    <g
       id="g501"
       style="clip-rule:evenodd;fill-rule:evenodd;image-rendering:optimizeQuality;shape-rendering:geometricPrecision;text-rendering:geometricPrecision"
       transform="matrix(0.30571049,0,0,0.30571049,-222.3553,-122.3859)">
      <path
         style="opacity:1"
         fill="#d07d74"
         d="m 897.5,492.5 c 5.964,0.807 11.964,1.14 18,1 -2.31,0.664 -4.81,0.997 -7.5,1 -3.805,0.196 -7.305,-0.47 -10.5,-2 z"
         id="path501" />
    </g>
    <g
       id="g503"
       style="clip-rule:evenodd;fill-rule:evenodd;image-rendering:optimizeQuality;shape-rendering:geometricPrecision;text-rendering:geometricPrecision"
       transform="matrix(0.30571049,0,0,0.30571049,-222.3553,-122.3859)">
      <path
         style="opacity:1"
         fill="#f7d7d3"
         d="m 817.5,494.5 c -1.937,0.988 -3.937,1.988 -6,3 -9.563,-4.448 -13.063,-1.448 -10.5,9 2.553,7.159 4.387,14.492 5.5,22 -1.747,-1.481 -2.914,-3.481 -3.5,-6 -1.869,-4.806 -2.869,-9.806 -3,-15 -2.577,-3.684 -3.077,-7.684 -1.5,-12 2.051,-2.073 4.551,-3.073 7.5,-3 3.694,1.366 7.528,2.032 11.5,2 z"
         id="path503" />
    </g>
    <g
       id="g505"
       style="clip-rule:evenodd;fill-rule:evenodd;image-rendering:optimizeQuality;shape-rendering:geometricPrecision;text-rendering:geometricPrecision"
       transform="matrix(0.30571049,0,0,0.30571049,-222.3553,-122.3859)">
      <path
         style="opacity:1"
         fill="#c34a41"
         d="m 985.5,489.5 c 0.958,0.453 1.792,1.119 2.5,2 1.588,4.172 3.421,8.172 5.5,12 3.879,8.637 6.55,17.637 8,27 1.54,10.602 2.21,21.269 2,32 0,1.667 0,3.333 0,5 -0.67,2 -1.33,4 -2,6 1.08,-9.493 1.08,-18.827 0,-28 -2.014,-10.273 -3.847,-20.606 -5.5,-31 -2.419,-5.181 -5.086,-10.181 -8,-15 -0.661,-3.446 -1.495,-6.779 -2.5,-10 z"
         id="path505" />
    </g>
    <g
       id="g507"
       style="clip-rule:evenodd;fill-rule:evenodd;image-rendering:optimizeQuality;shape-rendering:geometricPrecision;text-rendering:geometricPrecision"
       transform="matrix(0.30571049,0,0,0.30571049,-222.3553,-122.3859)">
      <path
         style="opacity:1"
         fill="#bb4d46"
         d="m 825.5,491.5 c -3.548,2.251 -7.215,4.418 -11,6.5 -4.241,-0.246 -8.408,-0.08 -12.5,0.5 -0.667,1.667 -0.667,3.333 0,5 3.915,11.41 6.748,23.076 8.5,35 -0.333,0 -0.667,0 -1,0 -0.304,-3.022 -0.804,-6.022 -1.5,-9 -0.383,-0.556 -0.883,-0.889 -1.5,-1 -1.113,-7.508 -2.947,-14.841 -5.5,-22 -2.563,-10.448 0.937,-13.448 10.5,-9 2.063,-1.012 4.063,-2.012 6,-3 2.219,-2.106 4.885,-3.106 8,-3 z"
         id="path507" />
    </g>
    <g
       id="g509"
       style="clip-rule:evenodd;fill-rule:evenodd;image-rendering:optimizeQuality;shape-rendering:geometricPrecision;text-rendering:geometricPrecision"
       transform="matrix(0.30571049,0,0,0.30571049,-222.3553,-122.3859)">
      <path
         style="opacity:1"
         fill="#f8d9d7"
         d="m 976.5,491.5 c 1.228,0.806 2.228,1.806 3,3 3.183,7.05 6.516,14.05 10,21 0.333,2.667 0.667,5.333 1,8 -1.593,-0.848 -2.76,-2.181 -3.5,-4 -3.987,-9.125 -7.487,-18.459 -10.5,-28 z"
         id="path509" />
    </g>
    <g
       id="g511"
       style="clip-rule:evenodd;fill-rule:evenodd;image-rendering:optimizeQuality;shape-rendering:geometricPrecision;text-rendering:geometricPrecision"
       transform="matrix(0.30571049,0,0,0.30571049,-222.3553,-122.3859)">
      <path
         style="opacity:1"
         fill="#f6cfcc"
         d="m 768.5,499.5 c -3.162,6.673 -5.496,13.673 -7,21 -1.506,4.53 -2.506,9.197 -3,14 -0.333,0 -0.667,0 -1,0 1.348,-11.286 3.848,-22.286 7.5,-33 1.113,-0.805 2.279,-1.472 3.5,-2 z"
         id="path511" />
    </g>
    <g
       id="g512"
       style="clip-rule:evenodd;fill-rule:evenodd;image-rendering:optimizeQuality;shape-rendering:geometricPrecision;text-rendering:geometricPrecision"
       transform="matrix(0.30571049,0,0,0.30571049,-222.3553,-122.3859)">
      <path
         style="opacity:1"
         fill="#c1544d"
         d="m 979.5,494.5 c 1.294,0.79 2.461,1.79 3.5,3 3.44,5.483 5.607,11.483 6.5,18 -3.484,-6.95 -6.817,-13.95 -10,-21 z"
         id="path512" />
    </g>
    <g
       id="g513"
       style="clip-rule:evenodd;fill-rule:evenodd;image-rendering:optimizeQuality;shape-rendering:geometricPrecision;text-rendering:geometricPrecision"
       transform="matrix(0.30571049,0,0,0.30571049,-222.3553,-122.3859)">
      <path
         style="opacity:1"
         fill="#c36159"
         d="m 768.5,499.5 c 0.333,0 0.667,0 1,0 -1.786,6.024 -3.786,12.024 -6,18 -0.667,1 -1.333,2 -2,3 1.504,-7.327 3.838,-14.327 7,-21 z"
         id="path513" />
    </g>
    <g
       id="g514"
       style="clip-rule:evenodd;fill-rule:evenodd;image-rendering:optimizeQuality;shape-rendering:geometricPrecision;text-rendering:geometricPrecision"
       transform="matrix(0.30571049,0,0,0.30571049,-222.3553,-122.3859)">
      <path
         style="opacity:1"
         fill="#c04d44"
         d="m 865.5,539.5 c 1.474,0.936 2.474,2.27 3,4 -0.572,5.336 -1.238,10.67 -2,16 1.099,4.587 3.099,4.587 6,0 3.326,-2.11 6.992,-3.443 11,-4 4.445,1.39 8.778,3.056 13,5 1.411,2.039 3.411,3.039 6,3 -0.437,-5.236 -1.437,-10.236 -3,-15 -0.162,-2.027 0.005,-4.027 0.5,-6 4.348,-4.515 8.848,-8.849 13.5,-13 -6.574,-1.582 -13.241,-2.582 -20,-3 -1.823,-4.98 -4.157,-9.647 -7,-14 -0.295,-1.923 -1.128,-3.59 -2.5,-5 -1.915,2.735 -3.082,5.735 -3.5,9 -1.841,2.349 -3.174,5.015 -4,8 -2.351,1.57 -5.018,2.403 -8,2.5 -4.321,0.499 -8.654,0.666 -13,0.5 0.122,2.792 1.456,4.792 4,6 1,1.333 2,2.667 3,4 -6.497,-0.983 -9.33,-4.649 -8.5,-11 6.791,-0.761 13.625,-1.595 20.5,-2.5 2.853,-5.21 5.02,-10.71 6.5,-16.5 2.267,-1.435 4.267,-1.102 6,1 1.973,5.279 4.473,10.279 7.5,15 6.749,2.572 13.749,3.572 21,3 0.182,2.091 -0.152,4.091 -1,6 -3.736,3.578 -7.569,6.911 -11.5,10 -0.734,6.096 -0.234,12.096 1.5,18 -0.07,1.272 -0.403,2.438 -1,3.5 -2,0.667 -4,0.667 -6,0 -3.676,-3.088 -7.843,-5.255 -12.5,-6.5 -6.418,2.59 -12.918,4.923 -19.5,7 0.84,-8.375 0.84,-16.709 0,-25 z"
         id="path514" />
    </g>
    <g
       id="g515"
       style="clip-rule:evenodd;fill-rule:evenodd;image-rendering:optimizeQuality;shape-rendering:geometricPrecision;text-rendering:geometricPrecision"
       transform="matrix(0.30571049,0,0,0.30571049,-222.3553,-122.3859)">
      <path
         style="opacity:1"
         fill="#f4b1af"
         d="m 886.5,512.5 c -0.923,-0.803 -1.923,-0.97 -3,-0.5 -1.281,1.409 -2.281,2.909 -3,4.5 0.418,-3.265 1.585,-6.265 3.5,-9 1.372,1.41 2.205,3.077 2.5,5 z"
         id="path515" />
    </g>
    <g
       id="g518"
       style="clip-rule:evenodd;fill-rule:evenodd;image-rendering:optimizeQuality;shape-rendering:geometricPrecision;text-rendering:geometricPrecision"
       transform="matrix(0.30571049,0,0,0.30571049,-222.3553,-122.3859)">
      <path
         style="opacity:1"
         fill="#f8d1ce"
         d="m 993.5,503.5 c 2.124,1.559 3.791,3.559 5,6 1.5,6.994 2.83,13.994 4,21 -0.33,0 -0.67,0 -1,0 -1.45,-9.363 -4.121,-18.363 -8,-27 z"
         id="path518" />
    </g>
    <g
       id="g521"
       style="clip-rule:evenodd;fill-rule:evenodd;image-rendering:optimizeQuality;shape-rendering:geometricPrecision;text-rendering:geometricPrecision"
       transform="matrix(0.30571049,0,0,0.30571049,-222.3553,-122.3859)">
      <path
         style="opacity:1"
         fill="#f1b8b5"
         d="m 886.5,512.5 c 2.843,4.353 5.177,9.02 7,14 -0.876,0.131 -1.543,-0.202 -2,-1 -2.559,-4.097 -4.226,-8.43 -5,-13 z"
         id="path521" />
    </g>
    <g
       id="g522"
       style="clip-rule:evenodd;fill-rule:evenodd;image-rendering:optimizeQuality;shape-rendering:geometricPrecision;text-rendering:geometricPrecision"
       transform="matrix(0.30571049,0,0,0.30571049,-222.3553,-122.3859)">
      <path
         style="opacity:1"
         fill="#faf4f3"
         d="m 886.5,512.5 c 0.774,4.57 2.441,8.903 5,13 0.457,0.798 1.124,1.131 2,1 6.759,0.418 13.426,1.418 20,3 -4.652,4.151 -9.152,8.485 -13.5,13 -0.495,1.973 -0.662,3.973 -0.5,6 -0.12,3.542 0.214,7.042 1,10.5 -0.333,0.833 -0.667,1.667 -1,2.5 -0.917,-0.627 -1.917,-0.961 -3,-1 -4.222,-1.944 -8.555,-3.61 -13,-5 -4.008,0.557 -7.674,1.89 -11,4 -1.322,-0.17 -2.489,0.163 -3.5,1 0.135,-5.841 -0.031,-11.508 -0.5,-17 -0.526,-1.73 -1.526,-3.064 -3,-4 -1,-0.667 -2,-1.333 -3,-2 -1,-1.333 -2,-2.667 -3,-4 0,-1.333 0,-2.667 0,-4 5.642,-0.854 11.309,-1.52 17,-2 0,-1 0,-2 0,-3 0.826,-2.985 2.159,-5.651 4,-8 0.719,-1.591 1.719,-3.091 3,-4.5 1.077,-0.47 2.077,-0.303 3,0.5 z"
         id="path522" />
    </g>
    <g
       id="g523"
       style="clip-rule:evenodd;fill-rule:evenodd;image-rendering:optimizeQuality;shape-rendering:geometricPrecision;text-rendering:geometricPrecision"
       transform="matrix(0.30571049,0,0,0.30571049,-222.3553,-122.3859)">
      <path
         style="opacity:1"
         fill="#f5c5c3"
         d="m 777.5,502.5 c -1.319,7.928 -3.986,15.261 -8,22 0.017,-2.065 0.35,-4.065 1,-6 2.039,-5.531 4.372,-10.864 7,-16 z"
         id="path523" />
    </g>
    <g
       id="g525"
       style="clip-rule:evenodd;fill-rule:evenodd;image-rendering:optimizeQuality;shape-rendering:geometricPrecision;text-rendering:geometricPrecision"
       transform="matrix(0.30571049,0,0,0.30571049,-222.3553,-122.3859)">
      <path
         style="opacity:1"
         fill="#f5cbc8"
         d="m 952.5,516.5 c 1.636,1.249 2.803,2.916 3.5,5 0.499,4.321 0.666,8.654 0.5,13 -1.441,-5.861 -2.775,-11.861 -4,-18 z"
         id="path525" />
    </g>
    <g
       id="g528"
       style="clip-rule:evenodd;fill-rule:evenodd;image-rendering:optimizeQuality;shape-rendering:geometricPrecision;text-rendering:geometricPrecision"
       transform="matrix(0.30571049,0,0,0.30571049,-222.3553,-122.3859)">
      <path
         style="opacity:1"
         fill="#f5c2c0"
         d="m 876.5,524.5 c 0,1 0,2 0,3 -5.691,0.48 -11.358,1.146 -17,2 0,1.333 0,2.667 0,4 -2.544,-1.208 -3.878,-3.208 -4,-6 4.346,0.166 8.679,-10e-4 13,-0.5 2.982,-0.097 5.649,-0.93 8,-2.5 z"
         id="path528" />
    </g>
    <g
       id="g532"
       style="clip-rule:evenodd;fill-rule:evenodd;image-rendering:optimizeQuality;shape-rendering:geometricPrecision;text-rendering:geometricPrecision"
       transform="matrix(0.30571049,0,0,0.30571049,-222.3553,-122.3859)">
      <path
         style="opacity:1"
         fill="#de9793"
         d="m 1001.5,530.5 c 0.33,0 0.67,0 1,0 0.59,4.686 1.26,9.353 2,14 0.32,6.19 -0.01,12.19 -1,18 0.21,-10.731 -0.46,-21.398 -2,-32 z"
         id="path532" />
    </g>
    <g
       id="g534"
       style="clip-rule:evenodd;fill-rule:evenodd;image-rendering:optimizeQuality;shape-rendering:geometricPrecision;text-rendering:geometricPrecision"
       transform="matrix(0.30571049,0,0,0.30571049,-222.3553,-122.3859)">
      <path
         style="opacity:1"
         fill="#d74335"
         d="m 967.5,466.5 c 3.403,2.4 6.07,5.4 8,9 1.541,4.433 3.874,8.6 7,12.5 1.027,0.513 2.027,1.013 3,1.5 1.005,3.221 1.839,6.554 2.5,10 2.914,4.819 5.581,9.819 8,15 1.653,10.394 3.486,20.727 5.5,31 0.12,14.187 -1.38,27.854 -4.5,41 -0.419,1.172 -1.085,2.172 -2,3 -0.667,-1.333 -1.333,-1.333 -2,0 4.384,-17.669 5.384,-35.669 3,-54 -0.383,-0.556 -0.883,-0.889 -1.5,-1 0,-0.667 -0.333,-1 -1,-1 -0.09,-3.714 -1.09,-7.048 -3,-10 -0.333,-2.667 -0.667,-5.333 -1,-8 -0.893,-6.517 -3.06,-12.517 -6.5,-18 -1.039,-1.21 -2.206,-2.21 -3.5,-3 -1.064,-5.721 -4.064,-10.055 -9,-13 -2.133,-1.591 -3.799,-3.591 -5,-6 -1.351,-2.539 -2.518,-5.206 -3.5,-8 -0.925,-0.547 -1.758,-1.213 -2.5,-2 0.5,-0.333 1,-0.667 1.5,-1 1.879,1.513 4.046,2.179 6.5,2 z"
         id="path534" />
    </g>
    <g
       id="g535"
       style="clip-rule:evenodd;fill-rule:evenodd;image-rendering:optimizeQuality;shape-rendering:geometricPrecision;text-rendering:geometricPrecision"
       transform="matrix(0.30571049,0,0,0.30571049,-222.3553,-122.3859)">
      <path
         style="opacity:1"
         fill="#f7d1cf"
         d="m 809.5,538.5 c 0.333,0 0.667,0 1,0 1.471,4.218 2.471,8.551 3,13 0,1.333 0,2.667 0,4 -2.938,-5.177 -4.271,-10.843 -4,-17 z"
         id="path535" />
    </g>
    <g
       id="g536"
       style="clip-rule:evenodd;fill-rule:evenodd;image-rendering:optimizeQuality;shape-rendering:geometricPrecision;text-rendering:geometricPrecision"
       transform="matrix(0.30571049,0,0,0.30571049,-222.3553,-122.3859)">
      <path
         style="opacity:1"
         fill="#bf6863"
         d="m 757.5,534.5 c 0.333,0 0.667,0 1,0 -0.757,9.982 -1.09,19.982 -1,30 -1.202,-9.181 -1.202,-18.514 0,-28 0,-0.667 0,-1.333 0,-2 z"
         id="path536" />
    </g>
    <g
       id="g537"
       style="clip-rule:evenodd;fill-rule:evenodd;image-rendering:optimizeQuality;shape-rendering:geometricPrecision;text-rendering:geometricPrecision"
       transform="matrix(0.30571049,0,0,0.30571049,-222.3553,-122.3859)">
      <path
         style="opacity:1"
         fill="#b84239"
         d="m 763.5,517.5 c -4.349,18.722 -6.016,37.722 -5,57 -0.979,-3.125 -1.313,-6.458 -1,-10 -0.09,-10.018 0.243,-20.018 1,-30 0.494,-4.803 1.494,-9.47 3,-14 0.667,-1 1.333,-2 2,-3 z"
         id="path537" />
    </g>
    <g
       id="g538"
       style="clip-rule:evenodd;fill-rule:evenodd;image-rendering:optimizeQuality;shape-rendering:geometricPrecision;text-rendering:geometricPrecision"
       transform="matrix(0.30571049,0,0,0.30571049,-222.3553,-122.3859)">
      <path
         style="opacity:1"
         fill="#bf4942"
         d="m 810.5,538.5 c 1.722,2.896 3.556,5.896 5.5,9 0.945,3.614 1.612,7.281 2,11 6.746,19.648 12.246,39.648 16.5,60 -2,-5.333 -4,-10.667 -6,-16 -2.221,-10.323 -5.221,-20.323 -9,-30 -0.752,-7.47 -2.752,-14.47 -6,-21 -0.529,-4.449 -1.529,-8.782 -3,-13 z"
         id="path538" />
    </g>
    <g
       id="g539"
       style="clip-rule:evenodd;fill-rule:evenodd;image-rendering:optimizeQuality;shape-rendering:geometricPrecision;text-rendering:geometricPrecision"
       transform="matrix(0.30571049,0,0,0.30571049,-222.3553,-122.3859)">
      <path
         style="opacity:1"
         fill="#d34235"
         d="m 784.5,489.5 c -2.588,4.174 -4.921,8.507 -7,13 -2.628,5.136 -4.961,10.469 -7,16 -2.885,5.161 -4.718,10.828 -5.5,17 -2.514,18.867 -1.514,37.534 3,56 4.169,6.336 6.669,13.336 7.5,21 -2.885,-1.045 -5.052,-3.045 -6.5,-6 -4.313,-8.831 -6.98,-18.165 -8,-28 -0.852,-1.071 -1.685,-2.071 -2.5,-3 0,-0.333 0,-0.667 0,-1 -1.016,-19.278 0.651,-38.278 5,-57 2.214,-5.976 4.214,-11.976 6,-18 0.333,-0.667 0.667,-1.333 1,-2 2.813,-3.598 5.647,-7.265 8.5,-11 0.49,-1.293 0.657,-2.627 0.5,-4 2.881,-2.529 5.881,-5.029 9,-7.5 1.759,-0.798 3.426,-0.631 5,0.5 -1.365,1.441 -2.865,2.774 -4.5,4 -2.401,2.868 -3.901,6.201 -4.5,10 z"
         id="path539" />
    </g>
    <g
       id="g540"
       style="clip-rule:evenodd;fill-rule:evenodd;image-rendering:optimizeQuality;shape-rendering:geometricPrecision;text-rendering:geometricPrecision"
       transform="matrix(0.30571049,0,0,0.30571049,-222.3553,-122.3859)">
      <path
         style="opacity:1"
         fill="#f9d9d8"
         d="m 1004.5,544.5 c 0.67,3.819 1,7.819 1,12 0.22,5.598 -0.44,10.931 -2,16 0,-1.667 0,-3.333 0,-5 0,-1.667 0,-3.333 0,-5 0.99,-5.81 1.32,-11.81 1,-18 z"
         id="path540" />
    </g>
    <g
       id="g542"
       style="clip-rule:evenodd;fill-rule:evenodd;image-rendering:optimizeQuality;shape-rendering:geometricPrecision;text-rendering:geometricPrecision"
       transform="matrix(0.30571049,0,0,0.30571049,-222.3553,-122.3859)">
      <path
         style="opacity:1"
         fill="#f5c0be"
         d="m 767.5,532.5 c -1.307,14.001 -1.307,28.001 0,42 -0.79,-1.109 -1.29,-2.442 -1.5,-4 -0.167,-5.333 -0.333,-10.667 -0.5,-16 -0.21,-7.568 0.456,-14.901 2,-22 z"
         id="path542" />
    </g>
    <g
       id="g543"
       style="clip-rule:evenodd;fill-rule:evenodd;image-rendering:optimizeQuality;shape-rendering:geometricPrecision;text-rendering:geometricPrecision"
       transform="matrix(0.30571049,0,0,0.30571049,-222.3553,-122.3859)">
      <path
         style="opacity:1"
         fill="#e09690"
         d="m 993.5,533.5 c 0.667,0 1,0.333 1,1 1.225,11.152 1.225,22.152 0,33 0.093,-11.35 -0.241,-22.683 -1,-34 z"
         id="path543" />
    </g>
    <g
       id="g546"
       style="clip-rule:evenodd;fill-rule:evenodd;image-rendering:optimizeQuality;shape-rendering:geometricPrecision;text-rendering:geometricPrecision"
       transform="matrix(0.30571049,0,0,0.30571049,-222.3553,-122.3859)">
      <path
         style="opacity:1"
         fill="#f7c7c3"
         d="m 757.5,536.5 c -1.202,9.486 -1.202,18.819 0,28 -0.313,3.542 0.021,6.875 1,10 0,0.333 0,0.667 0,1 0,2.333 0,4.667 0,7 -1.567,-1.181 -2.401,-2.847 -2.5,-5 -0.167,-6.833 -0.333,-13.667 -0.5,-20.5 0.003,-7.201 0.67,-14.034 2,-20.5 z"
         id="path546" />
    </g>
    <g
       id="g547"
       style="clip-rule:evenodd;fill-rule:evenodd;image-rendering:optimizeQuality;shape-rendering:geometricPrecision;text-rendering:geometricPrecision"
       transform="matrix(0.30571049,0,0,0.30571049,-222.3553,-122.3859)">
      <path
         style="opacity:1"
         fill="#efb0ae"
         d="m 813.5,551.5 c 3.248,6.53 5.248,13.53 6,21 -0.617,-0.111 -1.117,-0.444 -1.5,-1 -0.774,-3.647 -1.441,-7.314 -2,-11 -0.608,-1.566 -1.442,-2.9 -2.5,-4 0,-0.333 0,-0.667 0,-1 0,-1.333 0,-2.667 0,-4 z"
         id="path547" />
    </g>
    <g
       id="g548"
       style="clip-rule:evenodd;fill-rule:evenodd;image-rendering:optimizeQuality;shape-rendering:geometricPrecision;text-rendering:geometricPrecision"
       transform="matrix(0.30571049,0,0,0.30571049,-222.3553,-122.3859)">
      <path
         style="opacity:1"
         fill="#f4b9b5"
         d="m 868.5,543.5 c 0.469,5.492 0.635,11.159 0.5,17 1.011,-0.837 2.178,-1.17 3.5,-1 -2.901,4.587 -4.901,4.587 -6,0 0.762,-5.33 1.428,-10.664 2,-16 z"
         id="path548" />
    </g>
    <g
       id="g549"
       style="clip-rule:evenodd;fill-rule:evenodd;image-rendering:optimizeQuality;shape-rendering:geometricPrecision;text-rendering:geometricPrecision"
       transform="matrix(0.30571049,0,0,0.30571049,-222.3553,-122.3859)">
      <path
         style="opacity:1"
         fill="#f0aea9"
         d="m 899.5,548.5 c 1.563,4.764 2.563,9.764 3,15 -2.589,0.039 -4.589,-0.961 -6,-3 1.083,0.039 2.083,0.373 3,1 0.333,-0.833 0.667,-1.667 1,-2.5 -0.786,-3.458 -1.12,-6.958 -1,-10.5 z"
         id="path549" />
    </g>
    <g
       id="g550"
       style="clip-rule:evenodd;fill-rule:evenodd;image-rendering:optimizeQuality;shape-rendering:geometricPrecision;text-rendering:geometricPrecision"
       transform="matrix(0.30571049,0,0,0.30571049,-222.3553,-122.3859)">
      <path
         style="opacity:1"
         fill="#f0bab4"
         d="m 959.5,553.5 c 0.681,1.658 1.515,3.325 2.5,5 1.036,7.299 1.536,14.632 1.5,22 -0.333,0 -0.667,0 -1,0 -0.589,-9.049 -1.589,-18.049 -3,-27 z"
         id="path550" />
    </g>
    <g
       id="g552"
       style="clip-rule:evenodd;fill-rule:evenodd;image-rendering:optimizeQuality;shape-rendering:geometricPrecision;text-rendering:geometricPrecision"
       transform="matrix(0.30571049,0,0,0.30571049,-222.3553,-122.3859)">
      <path
         style="opacity:1"
         fill="#bf4c43"
         d="m 950.5,508.5 c 0.667,1.333 1.333,2.667 2,4 0,1.333 0,2.667 0,4 1.225,6.139 2.559,12.139 4,18 0.85,6.389 1.85,12.723 3,19 1.411,8.951 2.411,17.951 3,27 -4.042,3.69 -8.709,6.357 -14,8 3.979,-2.547 7.645,-5.547 11,-9 0.577,-1.606 0.91,-3.272 1,-5 -1.982,-18.895 -5.149,-37.562 -9.5,-56 -0.498,-3.317 -0.665,-6.65 -0.5,-10 z"
         id="path552" />
    </g>
    <g
       id="g553"
       style="clip-rule:evenodd;fill-rule:evenodd;image-rendering:optimizeQuality;shape-rendering:geometricPrecision;text-rendering:geometricPrecision"
       transform="matrix(0.30571049,0,0,0.30571049,-222.3553,-122.3859)">
      <path
         style="opacity:1"
         fill="#f9dbd9"
         d="m 813.5,556.5 c 1.058,1.1 1.892,2.434 2.5,4 0.559,3.686 1.226,7.353 2,11 0.383,0.556 0.883,0.889 1.5,1 3.779,9.677 6.779,19.677 9,30 -2.861,-9.572 -6.528,-18.905 -11,-28 -1.465,-5.992 -2.798,-11.992 -4,-18 z"
         id="path553" />
    </g>
    <g
       id="g556"
       style="clip-rule:evenodd;fill-rule:evenodd;image-rendering:optimizeQuality;shape-rendering:geometricPrecision;text-rendering:geometricPrecision"
       transform="matrix(0.30571049,0,0,0.30571049,-222.3553,-122.3859)">
      <path
         style="opacity:1"
         fill="#d4756e"
         d="m 994.5,570.5 c 0.683,6.254 -0.65,11.921 -4,17 1.795,-5.682 3.128,-11.349 4,-17 z"
         id="path556" />
    </g>
    <g
       id="g558"
       style="clip-rule:evenodd;fill-rule:evenodd;image-rendering:optimizeQuality;shape-rendering:geometricPrecision;text-rendering:geometricPrecision"
       transform="matrix(0.30571049,0,0,0.30571049,-222.3553,-122.3859)">
      <path
         style="opacity:1"
         fill="#f9deda"
         d="m 769.5,524.5 c -2.317,17.312 -2.484,34.645 -0.5,52 2.843,10.824 6.01,21.491 9.5,32 -6.033,-10.437 -9.7,-21.77 -11,-34 -1.307,-13.999 -1.307,-27.999 0,-42 0.065,-2.928 0.732,-5.595 2,-8 z"
         id="path558" />
    </g>
    <g
       id="g559"
       style="clip-rule:evenodd;fill-rule:evenodd;image-rendering:optimizeQuality;shape-rendering:geometricPrecision;text-rendering:geometricPrecision"
       transform="matrix(0.30571049,0,0,0.30571049,-222.3553,-122.3859)">
      <path
         style="opacity:1"
         fill="#f9e2de"
         d="m 990.5,523.5 c 1.91,2.952 2.91,6.286 3,10 0.759,11.317 1.093,22.65 1,34 0,1 0,2 0,3 -0.872,5.651 -2.205,11.318 -4,17 -1.202,5.514 -2.869,10.847 -5,16 -0.333,0 -0.667,0 -1,0 1.791,-8.261 3.791,-16.427 6,-24.5 0.133,-2.599 0.133,-5.266 0,-8 0.93,-1.194 1.597,-2.527 2,-4 0.349,-14.391 -0.317,-28.891 -2,-43.5 z"
         id="path559" />
    </g>
    <g
       id="g563"
       style="clip-rule:evenodd;fill-rule:evenodd;image-rendering:optimizeQuality;shape-rendering:geometricPrecision;text-rendering:geometricPrecision"
       transform="matrix(0.30571049,0,0,0.30571049,-222.3553,-122.3859)">
      <path
         style="opacity:1"
         fill="#edb0ac"
         d="m 1003.5,567.5 c 0,1.667 0,3.333 0,5 -0.36,6.112 -1.36,12.112 -3,18 -0.33,0 -0.667,0 -1,0 0.99,-5.625 1.66,-11.292 2,-17 0.67,-2 1.33,-4 2,-6 z"
         id="path563" />
    </g>
    <g
       id="g568"
       style="clip-rule:evenodd;fill-rule:evenodd;image-rendering:optimizeQuality;shape-rendering:geometricPrecision;text-rendering:geometricPrecision"
       transform="matrix(0.30571049,0,0,0.30571049,-222.3553,-122.3859)">
      <path
         style="opacity:1"
         fill="#f6d1ce"
         d="m 962.5,580.5 c 0.333,0 0.667,0 1,0 -0.348,2.519 -1.681,4.353 -4,5.5 -5.922,2.798 -11.922,5.298 -18,7.5 -11.319,1.166 -22.652,1.332 -34,0.5 -5.404,-1.556 -10.737,-3.389 -16,-5.5 -1.213,-0.247 -1.88,-0.914 -2,-2 1.935,0.65 3.935,0.983 6,1 6.041,2.679 12.374,4.345 19,5 7.489,1.156 15.155,1.322 23,0.5 4.04,-0.824 7.707,-2.324 11,-4.5 5.291,-1.643 9.958,-4.31 14,-8 z"
         id="path568" />
    </g>
    <g
       id="g569"
       style="clip-rule:evenodd;fill-rule:evenodd;image-rendering:optimizeQuality;shape-rendering:geometricPrecision;text-rendering:geometricPrecision"
       transform="matrix(0.30571049,0,0,0.30571049,-222.3553,-122.3859)">
      <path
         style="opacity:1"
         fill="#ba514b"
         d="m 948.5,588.5 c -3.293,2.176 -6.96,3.676 -11,4.5 -7.845,0.822 -15.511,0.656 -23,-0.5 7.341,0.166 14.674,0 22,-0.5 0.916,-0.278 1.582,-0.778 2,-1.5 3.194,-1.258 6.527,-1.924 10,-2 z"
         id="path569" />
    </g>
    <g
       id="g570"
       style="clip-rule:evenodd;fill-rule:evenodd;image-rendering:optimizeQuality;shape-rendering:geometricPrecision;text-rendering:geometricPrecision"
       transform="matrix(0.30571049,0,0,0.30571049,-222.3553,-122.3859)">
      <path
         style="opacity:1"
         fill="#cc4639"
         d="m 994.5,534.5 c 0.617,0.111 1.117,0.444 1.5,1 2.384,18.331 1.384,36.331 -3,54 0.667,-1.333 1.333,-1.333 2,0 0.915,-0.828 1.581,-1.828 2,-3 3.12,-13.146 4.62,-26.813 4.5,-41 1.08,9.173 1.08,18.507 0,28 -0.34,5.708 -1.01,11.375 -2,17 -0.809,1.528 -1.476,3.194 -2,5 -1.278,0.282 -2.278,0.949 -3,2 0.557,-2.449 0.557,-4.782 0,-7 -2.935,5.416 -5.602,10.916 -8,16.5 -0.99,4.905 -3.656,9.072 -8,12.5 3.11,-4.998 5.443,-10.331 7,-16 2.131,-5.153 3.798,-10.486 5,-16 3.35,-5.079 4.683,-10.746 4,-17 0,-1 0,-2 0,-3 1.225,-10.848 1.225,-21.848 0,-33 z"
         id="path570" />
    </g>
    <g
       id="g574"
       style="clip-rule:evenodd;fill-rule:evenodd;image-rendering:optimizeQuality;shape-rendering:geometricPrecision;text-rendering:geometricPrecision"
       transform="matrix(0.30571049,0,0,0.30571049,-222.3553,-122.3859)">
      <path
         style="opacity:1"
         fill="#bf5047"
         d="m 770.5,518.5 c -0.65,1.935 -0.983,3.935 -1,6 -1.268,2.405 -1.935,5.072 -2,8 -1.544,7.099 -2.21,14.432 -2,22 0.167,5.333 0.333,10.667 0.5,16 0.21,1.558 0.71,2.891 1.5,4 1.3,12.23 4.967,23.563 11,34 2.333,4.667 4.667,9.333 7,14 -3.213,-2.73 -6.213,-5.73 -9,-9 -1.147,2.265 -1.314,4.598 -0.5,7 1.559,1.717 2.392,3.717 2.5,6 -4.851,-7.036 -9.184,-14.369 -13,-22 -2.033,-7.475 -4.366,-14.808 -7,-22 0,-2.333 0,-4.667 0,-7 0.815,0.929 1.648,1.929 2.5,3 1.02,9.835 3.687,19.169 8,28 1.448,2.955 3.615,4.955 6.5,6 -0.831,-7.664 -3.331,-14.664 -7.5,-21 -4.514,-18.466 -5.514,-37.133 -3,-56 0.782,-6.172 2.615,-11.839 5.5,-17 z"
         id="path574" />
    </g>
    <g
       id="g575"
       style="clip-rule:evenodd;fill-rule:evenodd;image-rendering:optimizeQuality;shape-rendering:geometricPrecision;text-rendering:geometricPrecision"
       transform="matrix(0.30571049,0,0,0.30571049,-222.3553,-122.3859)">
      <path
         style="opacity:1"
         fill="#c3443c"
         d="m 938.5,590.5 c -0.418,0.722 -1.084,1.222 -2,1.5 -7.326,0.5 -14.659,0.666 -22,0.5 -6.626,-0.655 -12.959,-2.321 -19,-5 -6.874,-3.153 -14.207,-4.819 -22,-5 -4.408,-0.189 -8.408,0.811 -12,3 -4.033,0.525 -7.7,1.858 -11,4 -3.508,1.004 -6.674,2.671 -9.5,5 -0.334,2.347 -0.167,4.681 0.5,7 0,1.667 0,3.333 0,5 -1.531,-4.75 -2.198,-9.75 -2,-15 3.789,-0.19 6.789,-1.857 9,-5 8.373,-3.296 17.039,-5.296 26,-6 9.091,-0.157 17.424,2.01 25,6.5 12.78,3.198 25.78,4.364 39,3.5 z"
         id="path575" />
    </g>
    <g
       id="g576"
       style="clip-rule:evenodd;fill-rule:evenodd;image-rendering:optimizeQuality;shape-rendering:geometricPrecision;text-rendering:geometricPrecision"
       transform="matrix(0.30571049,0,0,0.30571049,-222.3553,-122.3859)">
      <path
         style="opacity:1"
         fill="#f5c0bd"
         d="m 861.5,585.5 c -3.3,2.142 -6.967,3.475 -11,4 3.3,-2.142 6.967,-3.475 11,-4 z"
         id="path576" />
    </g>
    <g
       id="g577"
       style="clip-rule:evenodd;fill-rule:evenodd;image-rendering:optimizeQuality;shape-rendering:geometricPrecision;text-rendering:geometricPrecision"
       transform="matrix(0.30571049,0,0,0.30571049,-222.3553,-122.3859)">
      <path
         style="opacity:1"
         fill="#f4b9b6"
         d="m 895.5,587.5 c -2.065,-0.017 -4.065,-0.35 -6,-1 -9.213,-2.291 -18.546,-2.624 -28,-1 3.592,-2.189 7.592,-3.189 12,-3 7.793,0.181 15.126,1.847 22,5 z"
         id="path577" />
    </g>
    <g
       id="g578"
       style="clip-rule:evenodd;fill-rule:evenodd;image-rendering:optimizeQuality;shape-rendering:geometricPrecision;text-rendering:geometricPrecision"
       transform="matrix(0.30571049,0,0,0.30571049,-222.3553,-122.3859)">
      <path
         style="opacity:1"
         fill="#f8d8d6"
         d="m 758.5,582.5 c 2.634,7.192 4.967,14.525 7,22 -2.004,-1.173 -3.504,-2.84 -4.5,-5 -1.15,-5.636 -1.983,-11.303 -2.5,-17 z"
         id="path578" />
    </g>
    <g
       id="g579"
       style="clip-rule:evenodd;fill-rule:evenodd;image-rendering:optimizeQuality;shape-rendering:geometricPrecision;text-rendering:geometricPrecision"
       transform="matrix(0.30571049,0,0,0.30571049,-222.3553,-122.3859)">
      <path
         style="opacity:1"
         fill="#f9d6d2"
         d="m 850.5,589.5 c -1.457,2.285 -3.457,4.118 -6,5.5 0.129,3.955 0.129,8.122 0,12.5 -1,-2 -2,-4 -3,-6 -0.667,-2.319 -0.834,-4.653 -0.5,-7 2.826,-2.329 5.992,-3.996 9.5,-5 z"
         id="path579" />
    </g>
    <g
       id="g580"
       style="clip-rule:evenodd;fill-rule:evenodd;image-rendering:optimizeQuality;shape-rendering:geometricPrecision;text-rendering:geometricPrecision"
       transform="matrix(0.30571049,0,0,0.30571049,-222.3553,-122.3859)">
      <path
         style="opacity:1"
         fill="#f9dcd6"
         d="m 999.5,590.5 c 0.333,0 0.67,0 1,0 0.16,3.018 0,6.018 -0.5,9 -1.092,1.617 -2.592,2.617 -4.5,3 0.667,-2.333 1.333,-4.667 2,-7 0.524,-1.806 1.191,-3.472 2,-5 z"
         id="path580" />
    </g>
    <g
       id="g589"
       style="clip-rule:evenodd;fill-rule:evenodd;image-rendering:optimizeQuality;shape-rendering:geometricPrecision;text-rendering:geometricPrecision"
       transform="matrix(0.30571049,0,0,0.30571049,-222.3553,-122.3859)">
      <path
         style="opacity:1"
         fill="#d63f34"
         d="m 994.5,597.5 c -2.341,9.907 -6.841,18.573 -13.5,26 -0.49,1.293 -0.657,2.627 -0.5,4 -1,0 -2,0 -3,0 0,1.333 0,2.667 0,4 -1,0 -2,0 -3,0 0.009,1.808 -0.491,3.475 -1.5,5 -2.925,1.746 -5.758,3.413 -8.5,5 -0.667,-0.167 -1.333,-0.333 -2,-0.5 3.522,-2.892 6.189,-6.392 8,-10.5 2.667,-3.667 5.333,-7.333 8,-11 4.344,-3.428 7.01,-7.595 8,-12.5 2.398,-5.584 5.065,-11.084 8,-16.5 0.557,2.218 0.557,4.551 0,7 z"
         id="path589" />
    </g>
    <g
       id="g594"
       style="clip-rule:evenodd;fill-rule:evenodd;image-rendering:optimizeQuality;shape-rendering:geometricPrecision;text-rendering:geometricPrecision"
       transform="matrix(0.30571049,0,0,0.30571049,-222.3553,-122.3859)">
      <path
         style="opacity:1"
         fill="#f3c0bd"
         d="m 828.5,602.5 c 2,5.333 4,10.667 6,16 -0.067,1.459 0.266,2.792 1,4 0.592,2.627 0.925,5.294 1,8 -1.782,-6.836 -4.282,-13.503 -7.5,-20 -0.497,-2.646 -0.664,-5.313 -0.5,-8 z"
         id="path594" />
    </g>
    <g
       id="g595"
       style="clip-rule:evenodd;fill-rule:evenodd;image-rendering:optimizeQuality;shape-rendering:geometricPrecision;text-rendering:geometricPrecision"
       transform="matrix(0.30571049,0,0,0.30571049,-222.3553,-122.3859)">
      <path
         style="opacity:1"
         fill="#f7dad8"
         d="m 995.5,602.5 c -0.606,7.315 -3.44,13.649 -8.5,19 -0.173,3.663 -2.007,5.996 -5.5,7 5.122,-8.446 9.788,-17.113 14,-26 z"
         id="path595" />
    </g>
    <g
       id="g600"
       style="clip-rule:evenodd;fill-rule:evenodd;image-rendering:optimizeQuality;shape-rendering:geometricPrecision;text-rendering:geometricPrecision"
       transform="matrix(0.30571049,0,0,0.30571049,-222.3553,-122.3859)">
      <path
         style="opacity:1"
         fill="#f7d5d2"
         d="m 765.5,604.5 c 3.816,7.631 8.149,14.964 13,22 0.61,0.891 0.943,1.891 1,3 -1.175,0.219 -2.175,-0.114 -3,-1 -0.851,-2.382 -2.184,-4.382 -4,-6 -2.946,-5.808 -5.28,-11.808 -7,-18 z"
         id="path600" />
    </g>
    <g
       id="g601"
       style="clip-rule:evenodd;fill-rule:evenodd;image-rendering:optimizeQuality;shape-rendering:geometricPrecision;text-rendering:geometricPrecision"
       transform="matrix(0.30571049,0,0,0.30571049,-222.3553,-122.3859)">
      <path
         style="opacity:1"
         fill="#ca493f"
         d="m 785.5,622.5 c 0.667,0.333 1.333,0.667 2,1 5.403,9.149 12.403,16.815 21,23 3.376,3.378 7.043,6.378 11,9 0.973,1.8 1.973,3.634 3,5.5 6.897,2.185 13.564,4.685 20,7.5 -3.612,-0.553 -7.112,-1.553 -10.5,-3 -0.833,0.333 -1.667,0.667 -2.5,1 3.609,1.616 6.609,3.95 9,7 -2.065,-0.017 -4.065,-0.35 -6,-1 -10.319,-4.491 -19.653,-10.491 -28,-18 4.28,2.404 8.947,3.57 14,3.5 -5.983,-5.69 -12.483,-10.856 -19.5,-15.5 -4.246,-5.251 -8.913,-10.251 -14,-15 -0.49,-1.293 -0.657,-2.627 -0.5,-4 -1.603,-0.188 -2.937,0.312 -4,1.5 1.666,2.748 3.166,5.581 4.5,8.5 4.092,1.486 6.258,4.486 6.5,9 -3.228,-2.806 -6.228,-5.806 -9,-9 -0.238,-1.904 -1.238,-3.238 -3,-4 -0.057,-1.109 -0.39,-2.109 -1,-3 -0.108,-2.283 -0.941,-4.283 -2.5,-6 -0.814,-2.402 -0.647,-4.735 0.5,-7 2.787,3.27 5.787,6.27 9,9 z"
         id="path601" />
    </g>
    <g
       id="g604"
       style="clip-rule:evenodd;fill-rule:evenodd;image-rendering:optimizeQuality;shape-rendering:geometricPrecision;text-rendering:geometricPrecision"
       transform="matrix(0.30571049,0,0,0.30571049,-222.3553,-122.3859)">
      <path
         style="opacity:1"
         fill="#c6645c"
         d="m 984.5,603.5 c 0.333,0 0.667,0 1,0 -1.557,5.669 -3.89,11.002 -7,16 -2.667,3.667 -5.333,7.333 -8,11 -1.667,1.333 -3.333,2.667 -5,4 3.033,-3.71 5.7,-7.71 8,-12 4.03,-6.053 7.697,-12.386 11,-19 z"
         id="path604" />
    </g>
    <g
       id="g605"
       style="clip-rule:evenodd;fill-rule:evenodd;image-rendering:optimizeQuality;shape-rendering:geometricPrecision;text-rendering:geometricPrecision"
       transform="matrix(0.30571049,0,0,0.30571049,-222.3553,-122.3859)">
      <path
         style="opacity:1"
         fill="#fadfdc"
         d="m 973.5,622.5 c -2.3,4.29 -4.967,8.29 -8,12 -4.04,4.042 -8.373,7.709 -13,11 -0.149,-1.052 0.017,-2.052 0.5,-3 2.543,-1.911 5.043,-3.911 7.5,-6 -1,-2.333 -0.333,-3 2,-2 2.601,-4.056 5.268,-7.889 8,-11.5 0.948,-0.483 1.948,-0.649 3,-0.5 z"
         id="path605" />
    </g>
    <g
       id="g606"
       style="clip-rule:evenodd;fill-rule:evenodd;image-rendering:optimizeQuality;shape-rendering:geometricPrecision;text-rendering:geometricPrecision"
       transform="matrix(0.30571049,0,0,0.30571049,-222.3553,-122.3859)">
      <path
         style="opacity:1"
         fill="#be4b44"
         d="m 841.5,601.5 c 1,2 2,4 3,6 0,1 0,2 0,3 2.498,8.66 4.998,17.326 7.5,26 1.188,4.241 0.355,7.908 -2.5,11 -2.104,0.299 -4.104,-0.034 -6,-1 -1.021,-1.401 -2.021,-2.735 -3,-4 -0.517,-3.722 -1.35,-7.388 -2.5,-11 -0.383,-0.556 -0.883,-0.889 -1.5,-1 -0.075,-2.706 -0.408,-5.373 -1,-8 0.651,0.591 1.318,1.257 2,2 1.272,6.778 3.606,13.112 7,19 1.909,0.848 3.909,1.182 6,1 -3.144,-12.684 -6.144,-25.351 -9,-38 0,-1.667 0,-3.333 0,-5 z"
         id="path606" />
    </g>
    <g
       id="g608"
       style="clip-rule:evenodd;fill-rule:evenodd;image-rendering:optimizeQuality;shape-rendering:geometricPrecision;text-rendering:geometricPrecision"
       transform="matrix(0.30571049,0,0,0.30571049,-222.3553,-122.3859)">
      <path
         style="opacity:1"
         fill="#f6d0cd"
         d="m 787.5,623.5 c 2.451,1.623 4.451,3.789 6,6.5 0.948,0.483 1.948,0.649 3,0.5 3.136,5.827 7.136,11.16 12,16 -8.597,-6.185 -15.597,-13.851 -21,-23 z"
         id="path608" />
    </g>
    <g
       id="g610"
       style="clip-rule:evenodd;fill-rule:evenodd;image-rendering:optimizeQuality;shape-rendering:geometricPrecision;text-rendering:geometricPrecision"
       transform="matrix(0.30571049,0,0,0.30571049,-222.3553,-122.3859)">
      <path
         style="opacity:1"
         fill="#f8dbda"
         d="m 844.5,610.5 c 3.935,6.883 7.101,14.216 9.5,22 0.667,4.333 0.667,8.667 0,13 -1.33,1.082 -2.83,1.749 -4.5,2 2.855,-3.092 3.688,-6.759 2.5,-11 -2.502,-8.674 -5.002,-17.34 -7.5,-26 z"
         id="path610" />
    </g>
    <g
       id="g612"
       style="clip-rule:evenodd;fill-rule:evenodd;image-rendering:optimizeQuality;shape-rendering:geometricPrecision;text-rendering:geometricPrecision"
       transform="matrix(0.30571049,0,0,0.30571049,-222.3553,-122.3859)">
      <path
         style="opacity:1"
         fill="#f6c7c1"
         d="m 836.5,630.5 c 0.617,0.111 1.117,0.444 1.5,1 1.15,3.612 1.983,7.278 2.5,11 -3.579,-3.09 -4.913,-7.09 -4,-12 z"
         id="path612" />
    </g>
    <g
       id="g613"
       style="clip-rule:evenodd;fill-rule:evenodd;image-rendering:optimizeQuality;shape-rendering:geometricPrecision;text-rendering:geometricPrecision"
       transform="matrix(0.30571049,0,0,0.30571049,-222.3553,-122.3859)">
      <path
         style="opacity:1"
         fill="#d44136"
         d="m 804.5,654.5 c -3.603,-2.263 -6.936,-4.93 -10,-8 -1,-1.333 -2,-2.667 -3,-4 -0.242,-4.514 -2.408,-7.514 -6.5,-9 -1.334,-2.919 -2.834,-5.752 -4.5,-8.5 1.063,-1.188 2.397,-1.688 4,-1.5 -0.157,1.373 0.01,2.707 0.5,4 5.087,4.749 9.754,9.749 14,15 7.017,4.644 13.517,9.81 19.5,15.5 -5.053,0.07 -9.72,-1.096 -14,-3.5 z"
         id="path613" />
    </g>
    <g
       id="g614"
       style="clip-rule:evenodd;fill-rule:evenodd;image-rendering:optimizeQuality;shape-rendering:geometricPrecision;text-rendering:geometricPrecision"
       transform="matrix(0.30571049,0,0,0.30571049,-222.3553,-122.3859)">
      <path
         style="opacity:1"
         fill="#c35d54"
         d="m 965.5,634.5 c -3.633,5.3 -7.966,9.967 -13,14 -1.187,2.475 -3.187,3.475 -6,3 2,-2 4,-4 6,-6 4.627,-3.291 8.96,-6.958 13,-11 z"
         id="path614" />
    </g>
    <g
       id="g616"
       style="clip-rule:evenodd;fill-rule:evenodd;image-rendering:optimizeQuality;shape-rendering:geometricPrecision;text-rendering:geometricPrecision"
       transform="matrix(0.30571049,0,0,0.30571049,-222.3553,-122.3859)">
      <path
         style="opacity:1"
         fill="#f8dad7"
         d="m 782.5,633.5 c 2.772,3.194 5.772,6.194 9,9 1,1.333 2,2.667 3,4 -4.598,-1.55 -8.431,-4.217 -11.5,-8 -0.494,-1.634 -0.66,-3.301 -0.5,-5 z"
         id="path616" />
    </g>
    <g
       id="g617"
       style="clip-rule:evenodd;fill-rule:evenodd;image-rendering:optimizeQuality;shape-rendering:geometricPrecision;text-rendering:geometricPrecision"
       transform="matrix(0.30571049,0,0,0.30571049,-222.3553,-122.3859)">
      <path
         style="opacity:1"
         fill="#c5473d"
         d="m 997.5,595.5 c -0.667,2.333 -1.333,4.667 -2,7 -4.212,8.887 -8.878,17.554 -14,26 -3.626,4.961 -7.626,9.628 -12,14 -3.333,2.667 -6.333,5.667 -9,9 -2.932,1.3 -5.266,3.3 -7,6 -3.507,2.254 -7.173,4.254 -11,6 2.004,-4.803 5.67,-7.47 11,-8 -0.219,-1.175 0.114,-2.175 1,-3 2.502,-1.68 5.002,-3.346 7.5,-5 0.798,-1.759 0.631,-3.426 -0.5,-5 -2.628,2.64 -5.628,4.64 -9,6 5.034,-4.033 9.367,-8.7 13,-14 1.667,-1.333 3.333,-2.667 5,-4 -1.811,4.108 -4.478,7.608 -8,10.5 0.667,0.167 1.333,0.333 2,0.5 2.742,-1.587 5.575,-3.254 8.5,-5 1.009,-1.525 1.509,-3.192 1.5,-5 1,0 2,0 3,0 0,-1.333 0,-2.667 0,-4 1,0 2,0 3,0 -0.157,-1.373 0.01,-2.707 0.5,-4 6.659,-7.427 11.159,-16.093 13.5,-26 0.722,-1.051 1.722,-1.718 3,-2 z"
         id="path617" />
    </g>
    <g
       id="g619"
       style="clip-rule:evenodd;fill-rule:evenodd;image-rendering:optimizeQuality;shape-rendering:geometricPrecision;text-rendering:geometricPrecision"
       transform="matrix(0.30571049,0,0,0.30571049,-222.3553,-122.3859)">
      <path
         style="opacity:1"
         fill="#f8d9d6"
         d="m 952.5,645.5 c -2,2 -4,4 -6,6 -4.352,2.173 -8.352,4.84 -12,8 -5.538,1.954 -10.872,4.287 -16,7 -3.565,1.277 -7.232,2.277 -11,3 8.464,-3.813 16.964,-7.813 25.5,-12 5.593,-3.337 10.76,-7.17 15.5,-11.5 1.293,-0.49 2.627,-0.657 4,-0.5 z"
         id="path619" />
    </g>
    <g
       id="g620"
       style="clip-rule:evenodd;fill-rule:evenodd;image-rendering:optimizeQuality;shape-rendering:geometricPrecision;text-rendering:geometricPrecision"
       transform="matrix(0.30571049,0,0,0.30571049,-222.3553,-122.3859)">
      <path
         style="opacity:1"
         fill="#ebaca8"
         d="m 969.5,642.5 c -2,4 -5,7 -9,9 2.667,-3.333 5.667,-6.333 9,-9 z"
         id="path620" />
    </g>
    <g
       id="g621"
       style="clip-rule:evenodd;fill-rule:evenodd;image-rendering:optimizeQuality;shape-rendering:geometricPrecision;text-rendering:geometricPrecision"
       transform="matrix(0.30571049,0,0,0.30571049,-222.3553,-122.3859)">
      <path
         style="opacity:1"
         fill="#f8dbd5"
         d="m 808.5,646.5 c 3.542,1.005 6.708,2.671 9.5,5 3.484,-0.676 4.984,0.99 4.5,5 -1.109,-0.057 -2.109,-0.39 -3,-1 -3.957,-2.622 -7.624,-5.622 -11,-9 z"
         id="path621" />
    </g>
    <g
       id="g622"
       style="clip-rule:evenodd;fill-rule:evenodd;image-rendering:optimizeQuality;shape-rendering:geometricPrecision;text-rendering:geometricPrecision"
       transform="matrix(0.30571049,0,0,0.30571049,-222.3553,-122.3859)">
      <path
         style="opacity:1"
         fill="#c55850"
         d="m 946.5,651.5 c -2.227,1.365 -3.894,3.365 -5,6 -2.301,0.825 -4.635,1.492 -7,2 3.648,-3.16 7.648,-5.827 12,-8 z"
         id="path622" />
    </g>
    <g
       id="g623"
       style="clip-rule:evenodd;fill-rule:evenodd;image-rendering:optimizeQuality;shape-rendering:geometricPrecision;text-rendering:geometricPrecision"
       transform="matrix(0.30571049,0,0,0.30571049,-222.3553,-122.3859)">
      <path
         style="opacity:1"
         fill="#d33d34"
         d="m 942.5,663.5 c -1.373,-0.157 -2.707,0.01 -4,0.5 -5.045,4.211 -10.712,6.045 -17,5.5 3.805,-2.74 7.805,-5.24 12,-7.5 0.752,-0.671 1.086,-1.504 1,-2.5 2.365,-0.508 4.699,-1.175 7,-2 1.106,-2.635 2.773,-4.635 5,-6 2.813,0.475 4.813,-0.525 6,-3 3.372,-1.36 6.372,-3.36 9,-6 1.131,1.574 1.298,3.241 0.5,5 -2.498,1.654 -4.998,3.32 -7.5,5 -0.886,0.825 -1.219,1.825 -1,3 -5.33,0.53 -8.996,3.197 -11,8 z"
         id="path623" />
    </g>
    <g
       id="g624"
       style="clip-rule:evenodd;fill-rule:evenodd;image-rendering:optimizeQuality;shape-rendering:geometricPrecision;text-rendering:geometricPrecision"
       transform="matrix(0.30571049,0,0,0.30571049,-222.3553,-122.3859)">
      <path
         style="opacity:1"
         fill="#c35349"
         d="m 819.5,655.5 c 0.891,0.61 1.891,0.943 3,1 1.836,2.088 4.169,3.421 7,4 5.513,3.417 11.513,5.75 18,7 1,0.667 2,1.333 3,2 -2.706,-0.075 -5.373,-0.408 -8,-1 -6.436,-2.815 -13.103,-5.315 -20,-7.5 -1.027,-1.866 -2.027,-3.7 -3,-5.5 z"
         id="path624" />
    </g>
    <g
       id="g625"
       style="clip-rule:evenodd;fill-rule:evenodd;image-rendering:optimizeQuality;shape-rendering:geometricPrecision;text-rendering:geometricPrecision"
       transform="matrix(0.30571049,0,0,0.30571049,-222.3553,-122.3859)">
      <path
         style="opacity:1"
         fill="#f6d3d0"
         d="m 829.5,660.5 c 6.971,0.362 12.971,2.695 18,7 -6.487,-1.25 -12.487,-3.583 -18,-7 z"
         id="path625" />
    </g>
    <g
       id="g626"
       style="clip-rule:evenodd;fill-rule:evenodd;image-rendering:optimizeQuality;shape-rendering:geometricPrecision;text-rendering:geometricPrecision"
       transform="matrix(0.30571049,0,0,0.30571049,-222.3553,-122.3859)">
      <path
         style="opacity:1"
         fill="#f6cac7"
         d="m 953.5,657.5 c -2.402,2.715 -5.068,5.215 -8,7.5 -1.293,0.49 -2.627,0.657 -4,0.5 0.333,-0.667 0.667,-1.333 1,-2 3.827,-1.746 7.493,-3.746 11,-6 z"
         id="path626" />
    </g>
    <g
       id="g631"
       style="clip-rule:evenodd;fill-rule:evenodd;image-rendering:optimizeQuality;shape-rendering:geometricPrecision;text-rendering:geometricPrecision"
       transform="matrix(0.30571049,0,0,0.30571049,-222.3553,-122.3859)">
      <path
         style="opacity:1"
         fill="#d4837c"
         d="m 847.5,667.5 c 4.38,0.793 8.714,1.793 13,3 1,0.667 2,1.333 3,2 -4.38,-0.793 -8.714,-1.793 -13,-3 -1,-0.667 -2,-1.333 -3,-2 z"
         id="path631" />
    </g>
    <g
       id="g632"
       style="clip-rule:evenodd;fill-rule:evenodd;image-rendering:optimizeQuality;shape-rendering:geometricPrecision;text-rendering:geometricPrecision"
       transform="matrix(0.30571049,0,0,0.30571049,-222.3553,-122.3859)">
      <path
         style="opacity:1"
         fill="#c3635c"
         d="m 918.5,666.5 c -4.873,2.925 -10.207,5.091 -16,6.5 -11.508,0.826 -22.841,0.659 -34,-0.5 8.673,0.166 17.34,0 26,-0.5 3.297,-0.204 6.297,-1.037 9,-2.5 1.333,0 2.667,0 4,0 3.768,-0.723 7.435,-1.723 11,-3 z"
         id="path632" />
    </g>
    <g
       id="g633"
       style="clip-rule:evenodd;fill-rule:evenodd;image-rendering:optimizeQuality;shape-rendering:geometricPrecision;text-rendering:geometricPrecision"
       transform="matrix(0.30571049,0,0,0.30571049,-222.3553,-122.3859)">
      <path
         style="opacity:1"
         fill="#ca493f"
         d="m 934.5,659.5 c 0.086,0.996 -0.248,1.829 -1,2.5 -4.195,2.26 -8.195,4.76 -12,7.5 6.288,0.545 11.955,-1.289 17,-5.5 1.293,-0.49 2.627,-0.657 4,-0.5 -0.333,0.667 -0.667,1.333 -1,2 -2.831,0.579 -5.164,1.912 -7,4 -3.158,0.483 -6.158,1.483 -9,3 -6.216,0.571 -12.216,2.071 -18,4.5 -2.646,0.497 -5.313,0.664 -8,0.5 2.704,-1.18 2.537,-2.18 -0.5,-3 -13.897,1.581 -27.73,1.081 -41.5,-1.5 -2.569,-0.898 -4.902,-2.065 -7,-3.5 4.286,1.207 8.62,2.207 13,3 1.667,0 3.333,0 5,0 11.159,1.159 22.492,1.326 34,0.5 5.793,-1.409 11.127,-3.575 16,-6.5 5.128,-2.713 10.462,-5.046 16,-7 z"
         id="path633" />
    </g>
    <g
       id="g634"
       style="clip-rule:evenodd;fill-rule:evenodd;image-rendering:optimizeQuality;shape-rendering:geometricPrecision;text-rendering:geometricPrecision"
       transform="matrix(0.30571049,0,0,0.30571049,-222.3553,-122.3859)">
      <path
         style="opacity:1"
         fill="#f7c5c0"
         d="m 903.5,669.5 c -2.703,1.463 -5.703,2.296 -9,2.5 -8.66,0.5 -17.327,0.666 -26,0.5 -1.667,0 -3.333,0 -5,0 -1,-0.667 -2,-1.333 -3,-2 14.4,1.61 28.733,1.277 43,-1 z"
         id="path634" />
    </g>
    <g
       id="g638"
       style="clip-rule:evenodd;fill-rule:evenodd;image-rendering:optimizeQuality;shape-rendering:geometricPrecision;text-rendering:geometricPrecision"
       transform="matrix(0.30571049,0,0,0.30571049,-222.3553,-122.3859)">
      <path
         style="opacity:1"
         fill="#d5453a"
         d="m 842.5,668.5 c 2.627,0.592 5.294,0.925 8,1 2.098,1.435 4.431,2.602 7,3.5 13.77,2.581 27.603,3.081 41.5,1.5 3.037,0.82 3.204,1.82 0.5,3 -10.187,2.034 -20.52,2.534 -31,1.5 -9.941,-2.147 -19.941,-3.98 -30,-5.5 -2.391,-3.05 -5.391,-5.384 -9,-7 0.833,-0.333 1.667,-0.667 2.5,-1 3.388,1.447 6.888,2.447 10.5,3 z"
         id="path638" />
    </g>
    <g
       id="g639"
       style="clip-rule:evenodd;fill-rule:evenodd;image-rendering:optimizeQuality;shape-rendering:geometricPrecision;text-rendering:geometricPrecision"
       transform="matrix(0.30571049,0,0,0.30571049,-222.3553,-122.3859)">
      <path
         style="opacity:1"
         fill="#f7dbda"
         d="m 934.5,669.5 c -3.085,1.934 -6.085,4.101 -9,6.5 -6.354,1.85 -12.688,3.35 -19,4.5 3.402,-1.135 6.735,-2.468 10,-4 2.892,-1.614 5.892,-2.947 9,-4 2.842,-1.517 5.842,-2.517 9,-3 z"
         id="path639" />
    </g>
    <g
       id="g643"
       style="clip-rule:evenodd;fill-rule:evenodd;image-rendering:optimizeQuality;shape-rendering:geometricPrecision;text-rendering:geometricPrecision"
       transform="matrix(0.30571049,0,0,0.30571049,-222.3553,-122.3859)">
      <path
         style="opacity:1"
         fill="#f5c4bf"
         d="m 832.5,672.5 c 1.935,0.65 3.935,0.983 6,1 6.568,2.641 13.235,4.975 20,7 -1.333,0 -2.667,0 -4,0 -5.674,-1.362 -11.341,-2.862 -17,-4.5 -2.084,-0.697 -3.751,-1.864 -5,-3.5 z"
         id="path643" />
    </g>
    <g
       id="g644"
       style="clip-rule:evenodd;fill-rule:evenodd;image-rendering:optimizeQuality;shape-rendering:geometricPrecision;text-rendering:geometricPrecision"
       transform="matrix(0.30571049,0,0,0.30571049,-222.3553,-122.3859)">
      <path
         style="opacity:1"
         fill="#eeb6b1"
         d="m 916.5,676.5 c -3.265,1.532 -6.598,2.865 -10,4 -0.333,0 -0.667,0 -1,0 -4.973,0.664 -9.973,0.997 -15,1 8.585,-1.47 17.251,-3.137 26,-5 z"
         id="path644" />
    </g>
    <g
       id="g645"
       style="clip-rule:evenodd;fill-rule:evenodd;image-rendering:optimizeQuality;shape-rendering:geometricPrecision;text-rendering:geometricPrecision"
       transform="matrix(0.30571049,0,0,0.30571049,-222.3553,-122.3859)">
      <path
         style="opacity:1"
         fill="#bb5149"
         d="m 925.5,672.5 c -3.108,1.053 -6.108,2.386 -9,4 -8.749,1.863 -17.415,3.53 -26,5 -10.698,0.237 -21.365,-0.096 -32,-1 -6.765,-2.025 -13.432,-4.359 -20,-7 10.059,1.52 20.059,3.353 30,5.5 10.48,1.034 20.813,0.534 31,-1.5 2.687,0.164 5.354,-0.003 8,-0.5 5.784,-2.429 11.784,-3.929 18,-4.5 z"
         id="path645" />
    </g>
    <g
       id="g648"
       style="clip-rule:evenodd;fill-rule:evenodd;image-rendering:optimizeQuality;shape-rendering:geometricPrecision;text-rendering:geometricPrecision"
       transform="matrix(0.30571049,0,0,0.30571049,-222.3553,-122.3859)">
      <path
         style="opacity:1"
         fill="#f9e1de"
         d="m 854.5,680.5 c 1.333,0 2.667,0 4,0 10.635,0.904 21.302,1.237 32,1 5.027,-0.003 10.027,-0.336 15,-1 -0.418,0.722 -1.084,1.222 -2,1.5 -13.974,1.429 -27.974,1.763 -42,1 -2.333,-1.043 -4.666,-1.876 -7,-2.5 z"
         id="path648" />
    </g>
  </g>
</svg>
