<?xml version="1.0" encoding="UTF-8" standalone="no"?>
<!-- Created with Inkscape (http://www.inkscape.org/) -->

<svg
   width="96mm"
   height="96mm"
   viewBox="0 0 96 96"
   version="1.1"
   id="svg1"
   inkscape:version="1.4.2 (ebf0e940, 2025-05-08)"
   sodipodi:docname="default.svg"
   xmlns:inkscape="http://www.inkscape.org/namespaces/inkscape"
   xmlns:sodipodi="http://sodipodi.sourceforge.net/DTD/sodipodi-0.dtd"
   xmlns="http://www.w3.org/2000/svg"
   xmlns:svg="http://www.w3.org/2000/svg">
  <sodipodi:namedview
     id="namedview1"
     pagecolor="#ffffff"
     bordercolor="#000000"
     borderopacity="0.25"
     inkscape:showpageshadow="2"
     inkscape:pageopacity="0.0"
     inkscape:pagecheckerboard="0"
     inkscape:deskcolor="#d1d1d1"
     inkscape:document-units="mm"
     inkscape:zoom="0.80444024"
     inkscape:cx="397.17059"
     inkscape:cy="362.36377"
     inkscape:window-width="1920"
     inkscape:window-height="1052"
     inkscape:window-x="0"
     inkscape:window-y="28"
     inkscape:window-maximized="0"
     inkscape:current-layer="layer1" />
  <defs
     id="defs1" />
  <g
     inkscape:label="Layer 1"
     inkscape:groupmode="layer"
     id="layer1">
    <g
       id="g5"
       style="clip-rule:evenodd;fill-rule:evenodd;image-rendering:optimizeQuality;shape-rendering:geometricPrecision;text-rendering:geometricPrecision"
       transform="matrix(0.31389556,0,0,0.31389556,-11.172409,-4.0770052)">
      <path
         style="opacity:1"
         fill="#f4d8d8"
         d="m 225.5,55.5 c -7.509,-2.3021 -15.175,-3.9687 -23,-5 -8.824,-1.1573 -17.824,-1.324 -27,-0.5 -5.962,0.3583 -11.629,1.525 -17,3.5 -1,0 -2,0 -3,0 0.558,-1.2899 1.558,-2.1232 3,-2.5 6.364,-1.7597 12.864,-3.2597 19.5,-4.5 6.388,1.2567 12.721,1.2567 19,0 9.999,1.9323 19.499,4.9323 28.5,9 z"
         id="path5" />
    </g>
    <g
       id="g7"
       style="clip-rule:evenodd;fill-rule:evenodd;image-rendering:optimizeQuality;shape-rendering:geometricPrecision;text-rendering:geometricPrecision"
       transform="matrix(0.31389556,0,0,0.31389556,-11.172409,-4.0770052)">
      <path
         style="opacity:1"
         fill="#9b4b4c"
         d="m 202.5,50.5 c -8.673,-0.1664 -17.34,2e-4 -26,0.5 -5.919,1.4806 -11.919,2.3139 -18,2.5 5.371,-1.975 11.038,-3.1417 17,-3.5 9.176,-0.824 18.176,-0.6573 27,0.5 z"
         id="path7" />
    </g>
    <g
       id="g21"
       style="clip-rule:evenodd;fill-rule:evenodd;image-rendering:optimizeQuality;shape-rendering:geometricPrecision;text-rendering:geometricPrecision"
       transform="matrix(0.31389556,0,0,0.31389556,-11.172409,-4.0770052)">
      <path
         style="opacity:1"
         fill="#e5b3b5"
         d="m 229.5,56.5 c 4.336,0.3369 8.003,2.0035 11,5 -4.093,-0.8824 -7.76,-2.549 -11,-5 z"
         id="path21" />
    </g>
    <g
       id="g22"
       style="clip-rule:evenodd;fill-rule:evenodd;image-rendering:optimizeQuality;shape-rendering:geometricPrecision;text-rendering:geometricPrecision"
       transform="matrix(0.31389556,0,0,0.31389556,-11.172409,-4.0770052)">
      <path
         style="opacity:1"
         fill="#f7d8db"
         d="m 151.5,54.5 c -5.694,2.1241 -11.36,4.4574 -17,7 0.734,-1.2079 1.067,-2.5413 1,-4 5.403,-0.7887 10.736,-1.7887 16,-3 z"
         id="path22" />
    </g>
    <g
       id="g37"
       style="clip-rule:evenodd;fill-rule:evenodd;image-rendering:optimizeQuality;shape-rendering:geometricPrecision;text-rendering:geometricPrecision"
       transform="matrix(0.31389556,0,0,0.31389556,-11.172409,-4.0770052)">
      <path
         style="opacity:1"
         fill="#902c2e"
         d="m 202.5,50.5 c 7.825,1.0313 15.491,2.6979 23,5 1.068,0.9345 2.401,1.2678 4,1 3.24,2.451 6.907,4.1176 11,5 4.404,3.0585 9.071,5.7252 14,8 5.642,4.6368 11.309,9.3034 17,14 3.07,3.0638 5.737,6.3971 8,10 -5.414,-5.4222 -11.081,-10.4222 -17,-15 -5.791,-3.2063 -11.124,-7.0397 -16,-11.5 -27.323,-15.5477 -55.989,-19.2143 -86,-11 -7.077,1.9145 -14.077,4.2478 -21,7 -8.014,4.6725 -16.014,9.3392 -24,14 -6.803,5.3006 -13.47,10.8006 -20,16.5 2.0798,-2.0732 3.7464,-4.4066 5,-7 4.3,-3.2981 8.3,-6.9648 12,-11 7.071,-5.0691 14.404,-9.7358 22,-14 5.64,-2.5426 11.306,-4.8759 17,-7 1.459,0.0674 2.792,-0.2659 4,-1 1,0 2,0 3,0 6.081,-0.1861 12.081,-1.0194 18,-2.5 8.66,-0.4998 17.327,-0.6664 26,-0.5 z"
         id="path37" />
    </g>
    <g
       id="g46"
       style="clip-rule:evenodd;fill-rule:evenodd;image-rendering:optimizeQuality;shape-rendering:geometricPrecision;text-rendering:geometricPrecision"
       transform="matrix(0.31389556,0,0,0.31389556,-11.172409,-4.0770052)">
      <path
         style="opacity:1"
         fill="#f2d2d3"
         d="m 254.5,69.5 c 7.734,2.0491 13.401,6.7158 17,14 -5.691,-4.6966 -11.358,-9.3632 -17,-14 z"
         id="path46" />
    </g>
    <g
       id="g54"
       style="clip-rule:evenodd;fill-rule:evenodd;image-rendering:optimizeQuality;shape-rendering:geometricPrecision;text-rendering:geometricPrecision"
       transform="matrix(0.31389556,0,0,0.31389556,-11.172409,-4.0770052)">
      <path
         style="opacity:1"
         fill="#f1cacd"
         d="m 112.5,75.5 c -3.7,4.0352 -7.7,7.7019 -12,11 0,-1 0,-2 0,-3 3.244,-1.8871 6.244,-4.0538 9,-6.5 -0.333,-0.3333 -0.667,-0.6667 -1,-1 1.293,-0.49 2.627,-0.6567 4,-0.5 z"
         id="path54" />
    </g>
    <g
       id="g80"
       style="clip-rule:evenodd;fill-rule:evenodd;image-rendering:optimizeQuality;shape-rendering:geometricPrecision;text-rendering:geometricPrecision"
       transform="matrix(0.31389556,0,0,0.31389556,-11.172409,-4.0770052)">
      <path
         style="opacity:1"
         fill="#f2cdcf"
         d="m 93.5,94.5 c -2.254,3.5066 -4.254,7.173 -6,11 -1.7225,1.753 -3.2225,3.753 -4.5,6 -3.2813,7.037 -6.448,14.037 -9.5,21 1.354,-5.722 3.0207,-11.389 5,-17 4.1348,-7.175 8.1348,-14.175 12,-21 1,0 2,0 3,0 z"
         id="path80" />
    </g>
    <g
       id="g100"
       style="clip-rule:evenodd;fill-rule:evenodd;image-rendering:optimizeQuality;shape-rendering:geometricPrecision;text-rendering:geometricPrecision"
       transform="matrix(0.31389556,0,0,0.31389556,-11.172409,-4.0770052)">
      <path
         style="opacity:1"
         fill="#f2cfd2"
         d="m 296.5,119.5 c 1.911,0.074 3.078,1.074 3.5,3 2.089,6.294 3.589,12.628 4.5,19 -2.656,-7.26 -5.323,-14.593 -8,-22 z"
         id="path100" />
    </g>
    <g
       id="g112"
       style="clip-rule:evenodd;fill-rule:evenodd;image-rendering:optimizeQuality;shape-rendering:geometricPrecision;text-rendering:geometricPrecision"
       transform="matrix(0.31389556,0,0,0.31389556,-11.172409,-4.0770052)">
      <path
         style="opacity:1"
         fill="#8e2c2d"
         d="m 281.5,95.5 c 6.487,6.954 11.487,14.954 15,24 2.677,7.407 5.344,14.74 8,22 1.736,12.928 2.402,25.928 2,39 -1.413,5.13 -2.413,10.463 -3,16 0,0.333 0,0.667 0,1 -2.91,9.052 -6.243,18.052 -10,27 -4.333,6 -8.667,12 -13,18 1.358,-3.723 3.025,-7.389 5,-11 2.874,-2.077 5.041,-4.744 6.5,-8 2.889,-5.729 5.056,-11.729 6.5,-18 -0.665,-1.601 -0.999,-3.101 -1,-4.5 1.5,-0.833 2.667,-2 3.5,-3.5 3.418,-15.854 4.251,-31.854 2.5,-48 -1.21,-3.945 -2.21,-7.945 -3,-12 -1.614,-4.394 -3.614,-8.56 -6,-12.5 1.054,-1.388 1.22,-2.888 0.5,-4.5 -4.524,-5.733 -8.024,-12.066 -10.5,-19 -2.478,-1.222 -3.478,-3.2224 -3,-6 z"
         id="path112" />
    </g>
    <g
       id="g135"
       style="clip-rule:evenodd;fill-rule:evenodd;image-rendering:optimizeQuality;shape-rendering:geometricPrecision;text-rendering:geometricPrecision"
       transform="matrix(0.31389556,0,0,0.31389556,-11.172409,-4.0770052)">
      <path
         style="opacity:1"
         fill="#f1c4c6"
         d="m 70.5,143.5 c -1.8297,10.921 -2.3297,21.921 -1.5,33 1.3631,8.713 2.8631,17.38 4.5,26 -3.1024,-7.224 -4.9357,-14.891 -5.5,-23 -0.1814,-8.911 -0.6814,-17.745 -1.5,-26.5 1.4802,-3.205 2.8135,-6.372 4,-9.5 z"
         id="path135" />
    </g>
    <g
       id="g144"
       style="clip-rule:evenodd;fill-rule:evenodd;image-rendering:optimizeQuality;shape-rendering:geometricPrecision;text-rendering:geometricPrecision"
       transform="matrix(0.31389556,0,0,0.31389556,-11.172409,-4.0770052)">
      <path
         style="opacity:1"
         fill="#d49a9e"
         d="m 306.5,180.5 c 0.273,5.716 -0.727,11.049 -3,16 0.587,-5.537 1.587,-10.87 3,-16 z"
         id="path144" />
    </g>
    <g
       id="g165"
       style="clip-rule:evenodd;fill-rule:evenodd;image-rendering:optimizeQuality;shape-rendering:geometricPrecision;text-rendering:geometricPrecision"
       transform="matrix(0.31389556,0,0,0.31389556,-11.172409,-4.0770052)">
      <path
         style="opacity:1"
         fill="#8d2e2f"
         d="m 87.5,105.5 c -1.6707,5.677 -4.1707,11.01 -7.5,16 -16.6479,43.668 -10.9812,84.001 17,121 0.4828,0.948 0.6495,1.948 0.5,3 -1.306,-1.973 -2.9727,-3.639 -5,-5 -4.0033,-6.675 -8.0033,-13.341 -12,-20 -2.0973,-5.849 -4.4306,-11.515 -7,-17 0,-0.333 0,-0.667 0,-1 -1.6369,-8.62 -3.1369,-17.287 -4.5,-26 -0.8297,-11.079 -0.3297,-22.079 1.5,-33 1.1641,-3.511 2.1641,-7.177 3,-11 3.052,-6.963 6.2187,-13.963 9.5,-21 1.2775,-2.247 2.7775,-4.247 4.5,-6 z"
         id="path165" />
    </g>
    <g
       id="g168"
       style="clip-rule:evenodd;fill-rule:evenodd;image-rendering:optimizeQuality;shape-rendering:geometricPrecision;text-rendering:geometricPrecision"
       transform="matrix(0.31389556,0,0,0.31389556,-11.172409,-4.0770052)">
      <path
         style="opacity:1"
         fill="#f2cdd0"
         d="m 73.5,203.5 c 2.5694,5.485 4.9027,11.151 7,17 -1.1697,-1.779 -2.8364,-2.779 -5,-3 -0.0376,-4.771 -0.7043,-9.438 -2,-14 z"
         id="path168" />
    </g>
    <g
       id="g169"
       style="clip-rule:evenodd;fill-rule:evenodd;image-rendering:optimizeQuality;shape-rendering:geometricPrecision;text-rendering:geometricPrecision"
       transform="matrix(0.31389556,0,0,0.31389556,-11.172409,-4.0770052)">
      <path
         style="opacity:1"
         fill="#f0d1d2"
         d="m 303.5,197.5 c 0.164,2.687 -0.003,5.354 -0.5,8 -2.856,4.569 -4.523,9.569 -5,15 -1.694,1.199 -3.194,2.532 -4.5,4 3.757,-8.948 7.09,-17.948 10,-27 z"
         id="path169" />
    </g>
    <g
       id="g198"
       style="clip-rule:evenodd;fill-rule:evenodd;image-rendering:optimizeQuality;shape-rendering:geometricPrecision;text-rendering:geometricPrecision"
       transform="matrix(0.31389556,0,0,0.31389556,-11.172409,-4.0770052)">
      <path
         style="opacity:1"
         fill="#f7dee0"
         d="m 92.5,240.5 c 2.0273,1.361 3.694,3.027 5,5 7.101,8.439 15.101,15.772 24,22 -5.113,-0.593 -9.113,-3.093 -12,-7.5 -2.369,-0.536 -4.369,-1.703 -6,-3.5 -2.041,-2.44 -4.208,-4.773 -6.5,-7 -1.3221,-3.136 -2.8221,-6.136 -4.5,-9 z"
         id="path198" />
    </g>
    <g
       id="g199"
       style="clip-rule:evenodd;fill-rule:evenodd;image-rendering:optimizeQuality;shape-rendering:geometricPrecision;text-rendering:geometricPrecision"
       transform="matrix(0.31389556,0,0,0.31389556,-11.172409,-4.0770052)">
      <path
         style="opacity:1"
         fill="#a32527"
         d="m 279.5,93.5 c 1,0.3333 1.667,1 2,2 -0.478,2.7776 0.522,4.778 3,6 2.476,6.934 5.976,13.267 10.5,19 0.72,1.612 0.554,3.112 -0.5,4.5 2.386,3.94 4.386,8.106 6,12.5 0.79,4.055 1.79,8.055 3,12 1.751,16.146 0.918,32.146 -2.5,48 -0.833,1.5 -2,2.667 -3.5,3.5 10e-4,1.399 0.335,2.899 1,4.5 -1.444,6.271 -3.611,12.271 -6.5,18 -1.459,3.256 -3.626,5.923 -6.5,8 -1.975,3.611 -3.642,7.277 -5,11 -1.933,0.229 -3.6,1.062 -5,2.5 -0.837,1.011 -1.17,2.178 -1,3.5 -3.834,0.929 -6.501,3.262 -8,7 -3.976,2.32 -7.643,4.987 -11,8 -0.627,0.917 -0.961,1.917 -1,3 -6.641,2.454 -12.974,5.621 -19,9.5 -11.56,5.358 -23.727,7.858 -36.5,7.5 -12.279,0.475 -24.779,-0.025 -37.5,-1.5 -4.443,-1.94 -9.11,-2.94 -14,-3 -9.349,-4.182 -18.349,-9.016 -27,-14.5 -4.722,-4.751 -9.388,-9.584 -14,-14.5 -2.672,0.583 -4.672,-0.584 -6,-3.5 -0.9168,-0.627 -1.9168,-0.961 -3,-1 0.1495,-1.052 -0.0172,-2.052 -0.5,-3 -27.9812,-36.999 -33.6479,-77.332 -17,-121 3.3293,-4.99 5.8293,-10.323 7.5,-16 1.746,-3.827 3.746,-7.4934 6,-11 0.6667,-0.3333 1.3333,-0.6667 2,-1 6.53,-5.6994 13.197,-11.1994 20,-16.5 7.986,-4.6608 15.986,-9.3275 24,-14 6.923,-2.7522 13.923,-5.0855 21,-7 30.011,-8.2143 58.677,-4.5477 86,11 4.876,4.4603 10.209,8.2937 16,11.5 5.919,4.5778 11.586,9.5778 17,15 z"
         id="path199" />
    </g>
    <g
       id="g200"
       style="clip-rule:evenodd;fill-rule:evenodd;image-rendering:optimizeQuality;shape-rendering:geometricPrecision;text-rendering:geometricPrecision"
       transform="matrix(0.31389556,0,0,0.31389556,-11.172409,-4.0770052)">
      <path
         style="opacity:1"
         fill="#923132"
         d="m 263.5,245.5 c -5.589,9.548 -13.923,15.881 -25,19 9.185,-5.182 17.519,-11.515 25,-19 z"
         id="path200" />
    </g>
    <g
       id="g201"
       style="clip-rule:evenodd;fill-rule:evenodd;image-rendering:optimizeQuality;shape-rendering:geometricPrecision;text-rendering:geometricPrecision"
       transform="matrix(0.31389556,0,0,0.31389556,-11.172409,-4.0770052)">
      <path
         style="opacity:1"
         fill="#922d30"
         d="m 93.5,222.5 c 3.0571,3.758 5.8904,7.758 8.5,12 3.399,3.229 6.565,6.562 9.5,10 1.667,2 3.333,4 5,6 -5.261,-2.432 -9.928,-5.766 -14,-10 -3.0723,-4.47 -5.9056,-9.136 -8.5,-14 -0.49,-1.293 -0.6567,-2.627 -0.5,-4 z"
         id="path201" />
    </g>
    <g
       id="g202"
       style="clip-rule:evenodd;fill-rule:evenodd;image-rendering:optimizeQuality;shape-rendering:geometricPrecision;text-rendering:geometricPrecision"
       transform="matrix(0.31389556,0,0,0.31389556,-11.172409,-4.0770052)">
      <path
         style="opacity:1"
         fill="#892d2d"
         d="m 287.5,211.5 c -0.023,2.427 -0.523,4.76 -1.5,7 -2.699,4.687 -5.366,9.353 -8,14 -3.345,2.849 -6.178,6.182 -8.5,10 -1.743,1.538 -3.743,2.538 -6,3 2.36,-1.365 4.027,-3.365 5,-6 4.818,-4.152 8.485,-9.152 11,-15 3.449,-3.908 6.116,-8.242 8,-13 z"
         id="path202" />
    </g>
    <g
       id="g203"
       style="clip-rule:evenodd;fill-rule:evenodd;image-rendering:optimizeQuality;shape-rendering:geometricPrecision;text-rendering:geometricPrecision"
       transform="matrix(0.31389556,0,0,0.31389556,-11.172409,-4.0770052)">
      <path
         style="opacity:1"
         fill="#f2d3d5"
         d="m 85.5,134.5 c -1.0067,11.386 -2.3401,22.72 -4,34 0.9487,15.077 3.9487,29.743 9,44 1.9586,1.248 3.4586,2.915 4.5,5 1.4442,4.701 3.4442,9.034 6,13 3.667,2.333 6.667,5.333 9,9 1.009,1.525 1.509,3.192 1.5,5 -2.935,-3.438 -6.101,-6.771 -9.5,-10 -2.6096,-4.242 -5.4429,-8.242 -8.5,-12 -11.027,-21.348 -15.527,-44.014 -13.5,-68 0.9255,-7.048 2.7588,-13.714 5.5,-20 z"
         id="path203" />
    </g>
    <g
       id="g204"
       style="clip-rule:evenodd;fill-rule:evenodd;image-rendering:optimizeQuality;shape-rendering:geometricPrecision;text-rendering:geometricPrecision"
       transform="matrix(0.31389556,0,0,0.31389556,-11.172409,-4.0770052)">
      <path
         style="opacity:1"
         fill="#f3d2d2"
         d="m 290.5,202.5 c -1,2.667 -2,5.333 -3,8 0,0.333 0,0.667 0,1 -1.884,4.758 -4.551,9.092 -8,13 1.401,-3.577 2.568,-7.244 3.5,-11 2.604,-3.767 5.104,-7.434 7.5,-11 z"
         id="path204" />
    </g>
    <g
       id="g205"
       style="clip-rule:evenodd;fill-rule:evenodd;image-rendering:optimizeQuality;shape-rendering:geometricPrecision;text-rendering:geometricPrecision"
       transform="matrix(0.31389556,0,0,0.31389556,-11.172409,-4.0770052)">
      <path
         style="opacity:1"
         fill="#8f2d2f"
         d="m 85.5,130.5 c 0,1.333 0,2.667 0,4 -2.7412,6.286 -4.5745,12.952 -5.5,20 -2.027,23.986 2.473,46.652 13.5,68 -0.8764,0.131 -1.5431,-0.202 -2,-1 -2.8823,-6.145 -6.049,-12.145 -9.5,-18 -0.9455,-9.06 -2.2788,-18.06 -4,-27 -0.8131,-14.276 0.8536,-28.276 5,-42 0.6082,-1.566 1.4415,-2.9 2.5,-4 z"
         id="path205" />
    </g>
    <g
       id="g206"
       style="clip-rule:evenodd;fill-rule:evenodd;image-rendering:optimizeQuality;shape-rendering:geometricPrecision;text-rendering:geometricPrecision"
       transform="matrix(0.31389556,0,0,0.31389556,-11.172409,-4.0770052)">
      <path
         style="opacity:1"
         fill="#892a2b"
         d="m 294.5,148.5 c 0.617,0.111 1.117,0.444 1.5,1 2.519,17.867 1.519,35.534 -3,53 -1.64,2.079 -2.806,4.412 -3.5,7 -0.457,0.798 -1.124,1.131 -2,1 1,-2.667 2,-5.333 3,-8 0,-0.333 0,-0.667 0,-1 6.153,-17.186 7.486,-34.853 4,-53 z"
         id="path206" />
    </g>
    <g
       id="g207"
       style="clip-rule:evenodd;fill-rule:evenodd;image-rendering:optimizeQuality;shape-rendering:geometricPrecision;text-rendering:geometricPrecision"
       transform="matrix(0.31389556,0,0,0.31389556,-11.172409,-4.0770052)">
      <path
         style="opacity:1"
         fill="#f0cbcc"
         d="m 292.5,142.5 c 1.238,1.714 1.905,3.714 2,6 3.486,18.147 2.153,35.814 -4,53 -0.166,-4.014 10e-4,-8.014 0.5,-12 2.343,-5.406 2.843,-10.906 1.5,-16.5 1.44,-2.795 2.107,-5.795 2,-9 -0.997,-7.141 -1.663,-14.308 -2,-21.5 z"
         id="path207" />
    </g>
    <g
       id="g208"
       style="clip-rule:evenodd;fill-rule:evenodd;image-rendering:optimizeQuality;shape-rendering:geometricPrecision;text-rendering:geometricPrecision"
       transform="matrix(0.31389556,0,0,0.31389556,-11.172409,-4.0770052)">
      <path
         style="opacity:1"
         fill="#e1abad"
         d="m 87.5,128.5 c 0.2406,2.398 -0.4261,4.398 -2,6 0,-1.333 0,-2.667 0,-4 0.6667,-0.667 1.3333,-1.333 2,-2 z"
         id="path208" />
    </g>
    <g
       id="g209"
       style="clip-rule:evenodd;fill-rule:evenodd;image-rendering:optimizeQuality;shape-rendering:geometricPrecision;text-rendering:geometricPrecision"
       transform="matrix(0.31389556,0,0,0.31389556,-11.172409,-4.0770052)">
      <path
         style="opacity:1"
         fill="#f4d2d4"
         d="m 279.5,112.5 c 3.163,3.656 5.829,7.656 8,12 2.477,5.765 4.143,11.765 5,18 -2.122,-6.699 -5.289,-13.033 -9.5,-19 -1.213,-3.733 -2.38,-7.4 -3.5,-11 z"
         id="path209" />
    </g>
    <g
       id="g210"
       style="clip-rule:evenodd;fill-rule:evenodd;image-rendering:optimizeQuality;shape-rendering:geometricPrecision;text-rendering:geometricPrecision"
       transform="matrix(0.31389556,0,0,0.31389556,-11.172409,-4.0770052)">
      <path
         style="opacity:1"
         fill="#f5d4d7"
         d="m 269.5,98.5 c 4.312,3.954 7.645,8.62 10,14 -5.665,-2.986 -8.999,-7.652 -10,-14 z"
         id="path210" />
    </g>
    <g
       id="g211"
       style="clip-rule:evenodd;fill-rule:evenodd;image-rendering:optimizeQuality;shape-rendering:geometricPrecision;text-rendering:geometricPrecision"
       transform="matrix(0.31389556,0,0,0.31389556,-11.172409,-4.0770052)">
      <path
         style="opacity:1"
         fill="#f3cfd2"
         d="m 103.5,101.5 c -2.436,6.559 -6.1029,12.225 -11,17 2.4927,-6.48 6.1593,-12.146 11,-17 z"
         id="path211" />
    </g>
    <g
       id="g212"
       style="clip-rule:evenodd;fill-rule:evenodd;image-rendering:optimizeQuality;shape-rendering:geometricPrecision;text-rendering:geometricPrecision"
       transform="matrix(0.31389556,0,0,0.31389556,-11.172409,-4.0770052)">
      <path
         style="opacity:1"
         fill="#8d2e32"
         d="m 248.5,78.5 c 4.253,-0.6464 7.086,1.0203 8.5,5 12.657,10.392 22.657,22.725 30,37 0.49,1.293 0.657,2.627 0.5,4 -2.171,-4.344 -4.837,-8.344 -8,-12 -2.355,-5.38 -5.688,-10.046 -10,-14 -6.342,-7.3412 -13.342,-14.0079 -21,-20 z"
         id="path212" />
    </g>
    <g
       id="g213"
       style="clip-rule:evenodd;fill-rule:evenodd;image-rendering:optimizeQuality;shape-rendering:geometricPrecision;text-rendering:geometricPrecision"
       transform="matrix(0.31389556,0,0,0.31389556,-11.172409,-4.0770052)">
      <path
         style="opacity:1"
         fill="#f6d9dc"
         d="m 130.5,77.5 c -1.659,2.648 -3.326,5.3147 -5,8 -0.586,-0.2093 -1.086,-0.5426 -1.5,-1 -4.925,4.1214 -10.091,7.7881 -15.5,11 4.164,-4.9968 8.831,-9.4968 14,-13.5 2.559,-1.7774 5.226,-3.2774 8,-4.5 z"
         id="path213" />
    </g>
    <g
       id="g214"
       style="clip-rule:evenodd;fill-rule:evenodd;image-rendering:optimizeQuality;shape-rendering:geometricPrecision;text-rendering:geometricPrecision"
       transform="matrix(0.31389556,0,0,0.31389556,-11.172409,-4.0770052)">
      <path
         style="opacity:1"
         fill="#8e2c2e"
         d="m 221.5,65.5 c -5.739,-2.159 -11.739,-3.4924 -18,-4 -1.333,0 -2.667,0 -4,0 -9.491,-1.158 -19.158,-1.3246 -29,-0.5 -10.535,2.4535 -20.535,5.9535 -30,10.5 -4.005,0.9977 -7.339,2.9977 -10,6 -2.774,1.2226 -5.441,2.7226 -8,4.5 -5.169,4.0032 -9.836,8.5032 -14,13.5 -2.39,1.3908 -4.057,3.3908 -5,6 -4.8407,4.854 -8.5073,10.52 -11,17 -0.3333,0 -0.6667,0 -1,0 -0.1467,-4.036 1.3533,-7.369 4.5,-10 1.0438,-2.215 1.7105,-4.548 2,-7 5.695,-4.1942 10.528,-9.1942 14.5,-15 3.71,-3.0971 7.71,-5.4304 12,-7 0.421,-2.4099 1.754,-4.2432 4,-5.5 13.139,-6.0466 26.805,-10.7133 41,-14 14.732,-2.2348 29.399,-1.9015 44,1 2.912,1.232 5.578,2.732 8,4.5 z"
         id="path214" />
    </g>
    <g
       id="g215"
       style="clip-rule:evenodd;fill-rule:evenodd;image-rendering:optimizeQuality;shape-rendering:geometricPrecision;text-rendering:geometricPrecision"
       transform="matrix(0.31389556,0,0,0.31389556,-11.172409,-4.0770052)">
      <path
         style="opacity:1"
         fill="#f6d8da"
         d="m 203.5,61.5 c 6.261,0.5076 12.261,1.841 18,4 8.983,2.9925 17.317,7.3258 25,13 -14.524,-5.438 -28.858,-11.1046 -43,-17 z"
         id="path215" />
    </g>
    <g
       id="g216"
       style="clip-rule:evenodd;fill-rule:evenodd;image-rendering:optimizeQuality;shape-rendering:geometricPrecision;text-rendering:geometricPrecision"
       transform="matrix(0.31389556,0,0,0.31389556,-11.172409,-4.0770052)">
      <path
         style="opacity:1"
         fill="#f4d2d5"
         d="m 199.5,61.5 c -15.257,-1.8198 -29.757,0.5136 -43.5,7 -0.333,-0.3333 -0.667,-0.6667 -1,-1 -4.588,2.1888 -9.421,3.5222 -14.5,4 9.465,-4.5465 19.465,-8.0465 30,-10.5 9.842,-0.8246 19.509,-0.658 29,0.5 z"
         id="path216" />
    </g>
    <g
       id="g217"
       style="clip-rule:evenodd;fill-rule:evenodd;image-rendering:optimizeQuality;shape-rendering:geometricPrecision;text-rendering:geometricPrecision"
       transform="matrix(0.31389556,0,0,0.31389556,-11.172409,-4.0770052)">
      <path
         style="opacity:1"
         fill="#f9f9f9"
         d="m 199.5,61.5 c 1.333,0 2.667,0 4,0 14.142,5.8954 28.476,11.562 43,17 0.667,0 1.333,0 2,0 7.658,5.9921 14.658,12.6588 21,20 1.001,6.348 4.335,11.014 10,14 1.12,3.6 2.287,7.267 3.5,11 4.211,5.967 7.378,12.301 9.5,19 0.337,7.192 1.003,14.359 2,21.5 0.107,3.205 -0.56,6.205 -2,9 1.343,5.594 0.843,11.094 -1.5,16.5 -0.499,3.986 -0.666,7.986 -0.5,12 0,0.333 0,0.667 0,1 -2.396,3.566 -4.896,7.233 -7.5,11 -0.932,3.756 -2.099,7.423 -3.5,11 -2.515,5.848 -6.182,10.848 -11,15 -1.872,1.011 -3.872,1.845 -6,2.5 0.333,0.333 0.667,0.667 1,1 -3.989,1.331 -6.655,3.997 -8,8 -6.361,4.074 -12.695,8.241 -19,12.5 -5.628,1.467 -10.962,3.634 -16,6.5 -0.881,0.708 -1.547,1.542 -2,2.5 -5.211,1.508 -10.544,2.508 -16,3 -9.339,0.166 -18.673,0 -28,-0.5 -9.5,-3.167 -19.167,-5.667 -29,-7.5 -2.906,-1.287 -5.906,-2.287 -9,-3 0,-0.667 -0.333,-1 -1,-1 -1.194,-0.772 -2.194,-1.772 -3,-3 -1.148,-2.255 -2.814,-4.088 -5,-5.5 -5.907,-2.776 -11.241,-6.276 -16,-10.5 0.009,-1.808 -0.491,-3.475 -1.5,-5 -2.333,-3.667 -5.333,-6.667 -9,-9 -2.5558,-3.966 -4.5558,-8.299 -6,-13 -1.0414,-2.085 -2.5414,-3.752 -4.5,-5 -5.0513,-14.257 -8.0513,-28.923 -9,-44 1.6599,-11.28 2.9933,-22.614 4,-34 1.5739,-1.602 2.2406,-3.602 2,-6 0.8927,-3.542 2.226,-6.876 4,-10 0.3333,0 0.6667,0 1,0 4.8971,-4.775 8.564,-10.441 11,-17 0.943,-2.6092 2.61,-4.6092 5,-6 5.409,-3.2119 10.575,-6.8786 15.5,-11 0.414,0.4574 0.914,0.7907 1.5,1 1.674,-2.6853 3.341,-5.352 5,-8 2.661,-3.0023 5.995,-5.0023 10,-6 5.079,-0.4778 9.912,-1.8112 14.5,-4 0.333,0.3333 0.667,0.6667 1,1 13.743,-6.4864 28.243,-8.8198 43.5,-7 z"
         id="path217" />
    </g>
    <g
       id="g218"
       style="clip-rule:evenodd;fill-rule:evenodd;image-rendering:optimizeQuality;shape-rendering:geometricPrecision;text-rendering:geometricPrecision"
       transform="matrix(0.31389556,0,0,0.31389556,-11.172409,-4.0770052)">
      <path
         style="opacity:1"
         fill="#ecc5c8"
         d="m 131.5,201.5 c -0.32,6.497 2.68,8.664 9,6.5 2.354,-0.847 4.688,-1.68 7,-2.5 0.131,0.876 -0.202,1.543 -1,2 -5.098,2.851 -10.431,3.518 -16,2 -0.306,-2.885 0.027,-5.552 1,-8 z"
         id="path218" />
    </g>
    <g
       id="g219"
       style="clip-rule:evenodd;fill-rule:evenodd;image-rendering:optimizeQuality;shape-rendering:geometricPrecision;text-rendering:geometricPrecision"
       transform="matrix(0.31389556,0,0,0.31389556,-11.172409,-4.0770052)">
      <path
         style="opacity:1"
         fill="#842a2b"
         d="m 232.5,184.5 c 2.911,3.49 5.578,7.156 8,11 5.489,12.511 2.156,15.845 -10,10 2.932,-0.216 5.598,0.451 8,2 2,0 3,-1 3,-3 -1.744,-5.911 -4.578,-11.245 -8.5,-16 -0.49,-1.293 -0.657,-2.627 -0.5,-4 z"
         id="path219" />
    </g>
    <g
       id="g220"
       style="clip-rule:evenodd;fill-rule:evenodd;image-rendering:optimizeQuality;shape-rendering:geometricPrecision;text-rendering:geometricPrecision"
       transform="matrix(0.31389556,0,0,0.31389556,-11.172409,-4.0770052)">
      <path
         style="opacity:1"
         fill="#872e30"
         d="m 138.5,191.5 c -2.331,5.011 -3.665,10.344 -4,16 5.5,-0.869 10.833,-2.202 16,-4 -1,0.667 -2,1.333 -3,2 -2.312,0.82 -4.646,1.653 -7,2.5 -6.32,2.164 -9.32,-0.003 -9,-6.5 2.666,-1.989 4.333,-4.656 5,-8 0.667,-0.667 1.333,-1.333 2,-2 z"
         id="path220" />
    </g>
    <g
       id="g221"
       style="clip-rule:evenodd;fill-rule:evenodd;image-rendering:optimizeQuality;shape-rendering:geometricPrecision;text-rendering:geometricPrecision"
       transform="matrix(0.31389556,0,0,0.31389556,-11.172409,-4.0770052)">
      <path
         style="opacity:1"
         fill="#f4d8da"
         d="m 192.5,191.5 c 1.333,0.333 2.667,0.667 4,1 10.834,5.408 22.168,9.742 34,13 12.156,5.845 15.489,2.511 10,-10 2.252,0.416 3.752,1.749 4.5,4 2.376,7.111 -0.124,10.778 -7.5,11 -8.665,-3.512 -17.665,-6.346 -27,-8.5 -4.69,-3.547 -9.69,-5.714 -15,-6.5 -1.434,-1.088 -2.434,-2.422 -3,-4 z"
         id="path221" />
    </g>
    <g
       id="g222"
       style="clip-rule:evenodd;fill-rule:evenodd;image-rendering:optimizeQuality;shape-rendering:geometricPrecision;text-rendering:geometricPrecision"
       transform="matrix(0.31389556,0,0,0.31389556,-11.172409,-4.0770052)">
      <path
         style="opacity:1"
         fill="#f5d1d3"
         d="m 153.5,163.5 c -2.257,4.183 -4.257,8.516 -6,13 -3.751,4.495 -6.751,9.495 -9,15 -0.667,0.667 -1.333,1.333 -2,2 -0.157,-1.373 0.01,-2.707 0.5,-4 2.377,-4.625 5.21,-8.958 8.5,-13 1.167,-3 2.333,-6 3.5,-9 0.876,-2.135 2.376,-3.469 4.5,-4 z"
         id="path222" />
    </g>
    <g
       id="g223"
       style="clip-rule:evenodd;fill-rule:evenodd;image-rendering:optimizeQuality;shape-rendering:geometricPrecision;text-rendering:geometricPrecision"
       transform="matrix(0.31389556,0,0,0.31389556,-11.172409,-4.0770052)">
      <path
         style="opacity:1"
         fill="#8d2e30"
         d="m 209.5,144.5 c 5.333,8.333 10.667,16.667 16,25 1.86,3.583 3.527,7.249 5,11 -6.042,-7.719 -11.375,-16.052 -16,-25 -1,-0.667 -2,-1.333 -3,-2 -0.923,-2.947 -1.589,-5.947 -2,-9 z"
         id="path223" />
    </g>
    <g
       id="g224"
       style="clip-rule:evenodd;fill-rule:evenodd;image-rendering:optimizeQuality;shape-rendering:geometricPrecision;text-rendering:geometricPrecision"
       transform="matrix(0.31389556,0,0,0.31389556,-11.172409,-4.0770052)">
      <path
         style="opacity:1"
         fill="#8a2a2c"
         d="m 174.5,127.5 c 0.333,0 0.667,0 1,0 0.128,2.155 -0.372,4.155 -1.5,6 -6.197,9.73 -11.864,19.73 -17,30 -3.173,4.353 -6.34,8.686 -9.5,13 1.743,-4.484 3.743,-8.817 6,-13 7.503,-11.669 14.503,-23.669 21,-36 z"
         id="path224" />
    </g>
    <g
       id="g225"
       style="clip-rule:evenodd;fill-rule:evenodd;image-rendering:optimizeQuality;shape-rendering:geometricPrecision;text-rendering:geometricPrecision"
       transform="matrix(0.31389556,0,0,0.31389556,-11.172409,-4.0770052)">
      <path
         style="opacity:1"
         fill="#f4d2d5"
         d="m 206.5,137.5 c 1.813,1.553 3.647,3.22 5.5,5 5.156,8.515 9.656,17.515 13.5,27 -5.333,-8.333 -10.667,-16.667 -16,-25 -0.727,-2.454 -1.727,-4.787 -3,-7 z"
         id="path225" />
    </g>
    <g
       id="g226"
       style="clip-rule:evenodd;fill-rule:evenodd;image-rendering:optimizeQuality;shape-rendering:geometricPrecision;text-rendering:geometricPrecision"
       transform="matrix(0.31389556,0,0,0.31389556,-11.172409,-4.0770052)">
      <path
         style="opacity:1"
         fill="#f0bfc0"
         d="m 180.5,117.5 c -0.941,1.55 -1.607,3.216 -2,5 -1.39,1.399 -2.39,3.066 -3,5 -0.333,0 -0.667,0 -1,0 0.871,-3.064 2.038,-6.064 3.5,-9 0.671,-0.752 1.504,-1.086 2.5,-1 z"
         id="path226" />
    </g>
    <g
       id="g227"
       style="clip-rule:evenodd;fill-rule:evenodd;image-rendering:optimizeQuality;shape-rendering:geometricPrecision;text-rendering:geometricPrecision"
       transform="matrix(0.31389556,0,0,0.31389556,-11.172409,-4.0770052)">
      <path
         style="opacity:1"
         fill="#883031"
         d="m 206.5,137.5 c 1.273,2.213 2.273,4.546 3,7 -0.876,0.131 -1.543,-0.202 -2,-1 -5.649,-9.959 -11.315,-19.959 -17,-30 -1.574,-1.131 -3.241,-1.298 -5,-0.5 -2.045,2.586 -3.711,5.42 -5,8.5 -0.457,0.798 -1.124,1.131 -2,1 0.393,-1.784 1.059,-3.45 2,-5 1.703,-4.897 5.037,-7.064 10,-6.5 5.735,8.645 11.068,17.478 16,26.5 z"
         id="path227" />
    </g>
    <g
       id="g228"
       style="clip-rule:evenodd;fill-rule:evenodd;image-rendering:optimizeQuality;shape-rendering:geometricPrecision;text-rendering:geometricPrecision"
       transform="matrix(0.31389556,0,0,0.31389556,-11.172409,-4.0770052)">
      <path
         style="opacity:1"
         fill="#a62026"
         d="m 209.5,144.5 c 0.411,3.053 1.077,6.053 2,9 1,0.667 2,1.333 3,2 4.625,8.948 9.958,17.281 16,25 1.174,1.014 1.84,2.347 2,4 -0.157,1.373 0.01,2.707 0.5,4 3.922,4.755 6.756,10.089 8.5,16 0,2 -1,3 -3,3 -2.402,-1.549 -5.068,-2.216 -8,-2 -11.832,-3.258 -23.166,-7.592 -34,-13 -1.29,-1.435 -2.956,-2.435 -5,-3 -4.911,-1.811 -9.245,-0.978 -13,2.5 -8.245,2.956 -16.578,5.623 -25,8 -1.926,0.422 -2.926,1.589 -3,3.5 -5.167,1.798 -10.5,3.131 -16,4 0.335,-5.656 1.669,-10.989 4,-16 2.249,-5.505 5.249,-10.505 9,-15 3.16,-4.314 6.327,-8.647 9.5,-13 5.136,-10.27 10.803,-20.27 17,-30 1.128,-1.845 1.628,-3.845 1.5,-6 0.61,-1.934 1.61,-3.601 3,-5 0.876,0.131 1.543,-0.202 2,-1 1.289,-3.08 2.955,-5.914 5,-8.5 1.759,-0.798 3.426,-0.631 5,0.5 5.685,10.041 11.351,20.041 17,30 0.457,0.798 1.124,1.131 2,1 z"
         id="path228" />
    </g>
    <g
       id="g229"
       style="clip-rule:evenodd;fill-rule:evenodd;image-rendering:optimizeQuality;shape-rendering:geometricPrecision;text-rendering:geometricPrecision"
       transform="matrix(0.31389556,0,0,0.31389556,-11.172409,-4.0770052)">
      <path
         style="opacity:1"
         fill="#f4d8db"
         d="m 190.5,191.5 c -1.699,-0.16 -3.366,0.006 -5,0.5 -2.621,2.201 -5.454,4.035 -8.5,5.5 -0.414,-0.457 -0.914,-0.791 -1.5,-1 -0.854,1.022 -1.854,1.855 -3,2.5 -8.44,3.908 -16.773,6.075 -25,6.5 1,-0.667 2,-1.333 3,-2 11.226,-3.466 22.226,-7.632 33,-12.5 2.539,-0.796 4.872,-0.629 7,0.5 z"
         id="path229" />
    </g>
    <g
       id="g230"
       style="clip-rule:evenodd;fill-rule:evenodd;image-rendering:optimizeQuality;shape-rendering:geometricPrecision;text-rendering:geometricPrecision"
       transform="matrix(0.31389556,0,0,0.31389556,-11.172409,-4.0770052)">
      <path
         style="opacity:1"
         fill="#8c2b2f"
         d="m 196.5,192.5 c -1.333,-0.333 -2.667,-0.667 -4,-1 -0.667,0 -1.333,0 -2,0 -2.128,-1.129 -4.461,-1.296 -7,-0.5 -10.774,4.868 -21.774,9.034 -33,12.5 0.074,-1.911 1.074,-3.078 3,-3.5 8.422,-2.377 16.755,-5.044 25,-8 3.755,-3.478 8.089,-4.311 13,-2.5 2.044,0.565 3.71,1.565 5,3 z"
         id="path230" />
    </g>
    <g
       id="g231"
       style="clip-rule:evenodd;fill-rule:evenodd;image-rendering:optimizeQuality;shape-rendering:geometricPrecision;text-rendering:geometricPrecision"
       transform="matrix(0.31389556,0,0,0.31389556,-11.172409,-4.0770052)">
      <path
         style="opacity:1"
         fill="#f1d2d3"
         d="m 111.5,244.5 c 4.759,4.224 10.093,7.724 16,10.5 2.186,1.412 3.852,3.245 5,5.5 -5.582,-2.911 -10.915,-6.244 -16,-10 -1.667,-2 -3.333,-4 -5,-6 z"
         id="path231" />
    </g>
    <g
       id="g232"
       style="clip-rule:evenodd;fill-rule:evenodd;image-rendering:optimizeQuality;shape-rendering:geometricPrecision;text-rendering:geometricPrecision"
       transform="matrix(0.31389556,0,0,0.31389556,-11.172409,-4.0770052)">
      <path
         style="opacity:1"
         fill="#f6d7d7"
         d="m 268.5,239.5 c -0.973,2.635 -2.64,4.635 -5,6 -7.481,7.485 -15.815,13.818 -25,19 -6.553,2.853 -13.22,5.52 -20,8 0.453,-0.958 1.119,-1.792 2,-2.5 5.038,-2.866 10.372,-5.033 16,-6.5 6.305,-4.259 12.639,-8.426 19,-12.5 1.345,-4.003 4.011,-6.669 8,-8 -0.333,-0.333 -0.667,-0.667 -1,-1 2.128,-0.655 4.128,-1.489 6,-2.5 z"
         id="path232" />
    </g>
    <g
       id="g234"
       style="clip-rule:evenodd;fill-rule:evenodd;image-rendering:optimizeQuality;shape-rendering:geometricPrecision;text-rendering:geometricPrecision"
       transform="matrix(0.31389556,0,0,0.31389556,-11.172409,-4.0770052)">
      <path
         style="opacity:1"
         fill="#852f2f"
         d="m 116.5,250.5 c 5.085,3.756 10.418,7.089 16,10 0.806,1.228 1.806,2.228 3,3 -7.578,-2.614 -13.911,-6.947 -19,-13 z"
         id="path234" />
    </g>
    <g
       id="g237"
       style="clip-rule:evenodd;fill-rule:evenodd;image-rendering:optimizeQuality;shape-rendering:geometricPrecision;text-rendering:geometricPrecision"
       transform="matrix(0.31389556,0,0,0.31389556,-11.172409,-4.0770052)">
      <path
         style="opacity:1"
         fill="#8c2f31"
         d="m 280.5,242.5 c -7.087,9.755 -15.754,17.755 -26,24 0.039,-1.083 0.373,-2.083 1,-3 3.357,-3.013 7.024,-5.68 11,-8 1.499,-3.738 4.166,-6.071 8,-7 -0.17,-1.322 0.163,-2.489 1,-3.5 1.4,-1.438 3.067,-2.271 5,-2.5 z"
         id="path237" />
    </g>
    <g
       id="g247"
       style="clip-rule:evenodd;fill-rule:evenodd;image-rendering:optimizeQuality;shape-rendering:geometricPrecision;text-rendering:geometricPrecision"
       transform="matrix(0.31389556,0,0,0.31389556,-11.172409,-4.0770052)">
      <path
         style="opacity:1"
         fill="#f5d4d8"
         d="m 254.5,267.5 c 0,1 0,2 0,3 -5.1,2.547 -10.433,4.547 -16,6 5.325,-2.997 10.659,-5.997 16,-9 z"
         id="path247" />
    </g>
    <g
       id="g250"
       style="clip-rule:evenodd;fill-rule:evenodd;image-rendering:optimizeQuality;shape-rendering:geometricPrecision;text-rendering:geometricPrecision"
       transform="matrix(0.31389556,0,0,0.31389556,-11.172409,-4.0770052)">
      <path
         style="opacity:1"
         fill="#912f2f"
         d="m 136.5,264.5 c 3.094,0.713 6.094,1.713 9,3 7.789,4.097 16.123,6.93 25,8.5 10.841,0.825 21.508,0.659 32,-0.5 5.456,-0.492 10.789,-1.492 16,-3 6.78,-2.48 13.447,-5.147 20,-8 -1.074,1.385 -2.407,2.551 -4,3.5 -23.508,10.477 -47.841,13.477 -73,9 -8.658,-3.662 -16.991,-7.829 -25,-12.5 z"
         id="path250" />
    </g>
    <g
       id="g258"
       style="clip-rule:evenodd;fill-rule:evenodd;image-rendering:optimizeQuality;shape-rendering:geometricPrecision;text-rendering:geometricPrecision"
       transform="matrix(0.31389556,0,0,0.31389556,-11.172409,-4.0770052)">
      <path
         style="opacity:1"
         fill="#902d2e"
         d="m 97.5,245.5 c 1.0832,0.039 2.0832,0.373 3,1 1.328,2.916 3.328,4.083 6,3.5 4.612,4.916 9.278,9.749 14,14.5 8.651,5.484 17.651,10.318 27,14.5 4.89,0.06 9.557,1.06 14,3 12.721,1.475 25.221,1.975 37.5,1.5 12.773,0.358 24.94,-2.142 36.5,-7.5 6.026,-3.879 12.359,-7.046 19,-9.5 0,0.333 0,0.667 0,1 -5.341,3.003 -10.675,6.003 -16,9 -9.221,3.633 -18.555,6.633 -28,9 -15.006,2.637 -30.006,2.637 -45,0 -2.015,-1.424 -4.348,-2.09 -7,-2 -13.292,-3.076 -25.625,-8.409 -37,-16 -8.899,-6.228 -16.899,-13.561 -24,-22 z"
         id="path258" />
    </g>
    <g
       id="g259"
       style="clip-rule:evenodd;fill-rule:evenodd;image-rendering:optimizeQuality;shape-rendering:geometricPrecision;text-rendering:geometricPrecision"
       transform="matrix(0.31389556,0,0,0.31389556,-11.172409,-4.0770052)">
      <path
         style="opacity:1"
         fill="#ecbdbd"
         d="m 145.5,267.5 c 9.833,1.833 19.5,4.333 29,7.5 9.327,0.5 18.661,0.666 28,0.5 -10.492,1.159 -21.159,1.325 -32,0.5 -8.877,-1.57 -17.211,-4.403 -25,-8.5 z"
         id="path259" />
    </g>
    <g
       id="g260"
       style="clip-rule:evenodd;fill-rule:evenodd;image-rendering:optimizeQuality;shape-rendering:geometricPrecision;text-rendering:geometricPrecision"
       transform="matrix(0.31389556,0,0,0.31389556,-11.172409,-4.0770052)">
      <path
         style="opacity:1"
         fill="#be807e"
         d="m 158.5,283.5 c 2.652,-0.09 4.985,0.576 7,2 -2.652,0.09 -4.985,-0.576 -7,-2 z"
         id="path260" />
    </g>
    <g
       id="g263"
       style="clip-rule:evenodd;fill-rule:evenodd;image-rendering:optimizeQuality;shape-rendering:geometricPrecision;text-rendering:geometricPrecision"
       transform="matrix(0.31389556,0,0,0.31389556,-11.172409,-4.0770052)">
      <path
         style="opacity:1"
         fill="#f5d2d3"
         d="m 121.5,267.5 c 11.375,7.591 23.708,12.924 37,16 2.015,1.424 4.348,2.09 7,2 14.994,2.637 29.994,2.637 45,0 -1.308,0.732 -2.642,1.566 -4,2.5 -28.912,3.313 -55.912,-1.687 -81,-15 -1.71,-1.651 -3.044,-3.484 -4,-5.5 z"
         id="path263" />
    </g>
  </g>
</svg>
