<?xml version="1.0" encoding="UTF-8" standalone="no"?>
<!-- Created with Inkscape (http://www.inkscape.org/) -->

<svg
   width="96mm"
   height="96mm"
   viewBox="0 0 96 96"
   version="1.1"
   id="svg1"
   inkscape:version="1.4.2 (ebf0e940, 2025-05-08)"
   sodipodi:docname="tram.svg"
   xmlns:inkscape="http://www.inkscape.org/namespaces/inkscape"
   xmlns:sodipodi="http://sodipodi.sourceforge.net/DTD/sodipodi-0.dtd"
   xmlns="http://www.w3.org/2000/svg"
   xmlns:svg="http://www.w3.org/2000/svg">
  <sodipodi:namedview
     id="namedview1"
     pagecolor="#ffffff"
     bordercolor="#000000"
     borderopacity="0.25"
     inkscape:showpageshadow="2"
     inkscape:pageopacity="0.0"
     inkscape:pagecheckerboard="0"
     inkscape:deskcolor="#d1d1d1"
     inkscape:document-units="mm"
     inkscape:zoom="0.80444024"
     inkscape:cx="397.17059"
     inkscape:cy="362.36377"
     inkscape:window-width="1920"
     inkscape:window-height="1052"
     inkscape:window-x="0"
     inkscape:window-y="28"
     inkscape:window-maximized="0"
     inkscape:current-layer="layer1" />
  <defs
     id="defs1" />
  <g
     inkscape:label="Layer 1"
     inkscape:groupmode="layer"
     id="layer1">
    <g
       id="g2"
       style="clip-rule:evenodd;fill-rule:evenodd;image-rendering:optimizeQuality;shape-rendering:geometricPrecision;text-rendering:geometricPrecision"
       transform="matrix(0.26458333,0,0,0.26458333,-172.1716,5.2017898)">
      <path
         style="opacity:1"
         fill="#852a27"
         d="m 844.5,5.5 c -12.169,-0.39621 -24.169,0.60379 -36,3 3.924,-2.36489 8.257,-3.86489 13,-4.5 6,-0.66667 12,-0.66667 18,0 1.882,0.19808 3.548,0.69808 5,1.5 z"
         id="path2" />
    </g>
    <g
       id="g3"
       style="clip-rule:evenodd;fill-rule:evenodd;image-rendering:optimizeQuality;shape-rendering:geometricPrecision;text-rendering:geometricPrecision"
       transform="matrix(0.26458333,0,0,0.26458333,-172.1716,5.2017898)">
      <path
         style="opacity:1"
         fill="#80302d"
         d="m 844.5,5.5 c 4.942,0.59145 9.608,2.09145 14,4.5 2.576,2.651 3.909,5.8177 4,9.5 -1.323,-2.2623 -2.657,-4.5956 -4,-7 -4.35,-3.10748 -9.017,-5.44081 -14,-7 z"
         id="path3" />
    </g>
    <g
       id="g8"
       style="clip-rule:evenodd;fill-rule:evenodd;image-rendering:optimizeQuality;shape-rendering:geometricPrecision;text-rendering:geometricPrecision"
       transform="matrix(0.26458333,0,0,0.26458333,-172.1716,5.2017898)">
      <path
         style="opacity:1"
         fill="#e76760"
         d="m 864.5,47.5 c 0,34.6667 0,69.333 0,104 -1.333,0 -2.667,0 -4,0 0.332,-34.171 -0.002,-68.1708 -1,-102 0.89,-7.4089 -2.11,-12.2423 -9,-14.5 -13.662,-1.9424 -27.329,-1.9424 -41,0 -2.439,0.7739 -4.273,2.2739 -5.5,4.5 -1.461,30.625 -1.961,61.292 -1.5,92 -1.667,0 -3.333,0 -5,0 0,-27 0,-54 0,-81 1.26,-11.1561 3.26,-22.1561 6,-33 4.874,-5.7708 11.208,-8.9375 19,-9.5 12.375,-1.96717 23.875,0.1995 34.5,6.5 3.783,10.6954 6.283,21.6954 7.5,33 z"
         id="path8" />
    </g>
    <g
       id="g9"
       style="clip-rule:evenodd;fill-rule:evenodd;image-rendering:optimizeQuality;shape-rendering:geometricPrecision;text-rendering:geometricPrecision"
       transform="matrix(0.26458333,0,0,0.26458333,-172.1716,5.2017898)">
      <path
         style="opacity:1"
         fill="#a9211a"
         d="m 821.5,11.5 c 10.568,-0.7344 20.901,0.4322 31,3.5 1.167,0.5 2,1.3333 2.5,2.5 0.667,2.6667 0.667,5.3333 0,8 -1.822,1.5454 -3.989,2.212 -6.5,2 -5.567,-1.3659 -11.234,-2.0326 -17,-2 -7.652,0.9997 -15.319,1.4997 -23,1.5 -2.948,-4.3409 -2.615,-8.3409 1,-12 4.215,-0.8549 8.215,-2.0215 12,-3.5 z"
         id="path9" />
    </g>
    <g
       id="g10"
       style="clip-rule:evenodd;fill-rule:evenodd;image-rendering:optimizeQuality;shape-rendering:geometricPrecision;text-rendering:geometricPrecision"
       transform="matrix(0.26458333,0,0,0.26458333,-172.1716,5.2017898)">
      <path
         style="opacity:1"
         fill="#d4362e"
         d="m 823.5,13.5 c 9.573,-0.6524 18.906,0.5142 28,3.5 1.957,2.1212 2.457,4.6212 1.5,7.5 -1.062,0.5968 -2.228,0.9302 -3.5,1 -5.583,-1.3658 -11.25,-2.0325 -17,-2 -7.702,0.5427 -15.368,1.0427 -23,1.5 -1.277,-2.4659 -1.277,-4.9659 0,-7.5 4.671,-1.725 9.337,-3.0583 14,-4 z"
         id="path10" />
    </g>
    <g
       id="g12"
       style="clip-rule:evenodd;fill-rule:evenodd;image-rendering:optimizeQuality;shape-rendering:geometricPrecision;text-rendering:geometricPrecision"
       transform="matrix(0.26458333,0,0,0.26458333,-172.1716,5.2017898)">
      <path
         style="opacity:1"
         fill="#8d2f2a"
         d="m 806.5,9.5 c -2.484,2.0452 -3.484,4.7118 -3,8 -2.74,10.8439 -4.74,21.8439 -6,33 -1.992,27.9803 -2.658,56.314 -2,85 -0.667,0.333 -1.333,0.667 -2,1 0,-0.667 0,-1.333 0,-2 -0.167,-29.669 0,-59.3352 0.5,-89 0.966,-7.4679 2.466,-14.8012 4.5,-22 0.66,-3.8127 1.826,-7.4793 3.5,-11 1.129,-1.6412 2.629,-2.64117 4.5,-3 z"
         id="path12" />
    </g>
    <g
       id="g18"
       style="clip-rule:evenodd;fill-rule:evenodd;image-rendering:optimizeQuality;shape-rendering:geometricPrecision;text-rendering:geometricPrecision"
       transform="matrix(0.26458333,0,0,0.26458333,-172.1716,5.2017898)">
      <path
         style="opacity:1"
         fill="#f9e5e2"
         d="m 798.5,23.5 c -2.034,7.1988 -3.534,14.5321 -4.5,22 -0.5,29.6648 -0.667,59.331 -0.5,89 -0.333,0 -0.667,0 -1,0 -0.167,-32.668 0,-65.335 0.5,-98 0.786,-4.8917 2.62,-9.2251 5.5,-13 z"
         id="path18" />
    </g>
    <g
       id="g19"
       style="clip-rule:evenodd;fill-rule:evenodd;image-rendering:optimizeQuality;shape-rendering:geometricPrecision;text-rendering:geometricPrecision"
       transform="matrix(0.26458333,0,0,0.26458333,-172.1716,5.2017898)">
      <path
         style="opacity:1"
         fill="#802624"
         d="m 864.5,26.5 c 1.847,5.0556 3.014,10.3889 3.5,16 0.831,37.5023 0.664,74.836 -0.5,112 0.167,-35.335 0,-70.6682 -0.5,-106 -0.839,-7.347 -1.672,-14.6803 -2.5,-22 z"
         id="path19" />
    </g>
    <g
       id="g28"
       style="clip-rule:evenodd;fill-rule:evenodd;image-rendering:optimizeQuality;shape-rendering:geometricPrecision;text-rendering:geometricPrecision"
       transform="matrix(0.26458333,0,0,0.26458333,-172.1716,5.2017898)">
      <path
         style="opacity:1"
         fill="#be3c36"
         d="m 864.5,47.5 c 0.998,34.8294 1.332,69.829 1,105 -1.667,0 -3.333,0 -5,0 -0.998,-34.163 -1.332,-68.4959 -1,-103 0.998,33.8292 1.332,67.829 1,102 1.333,0 2.667,0 4,0 0,-34.667 0,-69.3333 0,-104 z"
         id="path28" />
    </g>
    <g
       id="g36"
       style="clip-rule:evenodd;fill-rule:evenodd;image-rendering:optimizeQuality;shape-rendering:geometricPrecision;text-rendering:geometricPrecision"
       transform="matrix(0.26458333,0,0,0.26458333,-172.1716,5.2017898)">
      <path
         style="opacity:1"
         fill="#a23f3f"
         d="m 797.5,166.5 c -3.014,-4.695 -5.514,-9.695 -7.5,-15 -1.323,-5.775 -0.157,-10.775 3.5,-15 0.667,-0.333 1.333,-0.667 2,-1 11.794,-4.724 18.461,-0.724 20,12 -1.706,9.411 -6.039,17.411 -13,24 -1.901,-1.506 -3.568,-3.173 -5,-5 z"
         id="path36" />
    </g>
    <g
       id="g37"
       style="clip-rule:evenodd;fill-rule:evenodd;image-rendering:optimizeQuality;shape-rendering:geometricPrecision;text-rendering:geometricPrecision"
       transform="matrix(0.26458333,0,0,0.26458333,-172.1716,5.2017898)">
      <path
         style="opacity:1"
         fill="#702222"
         d="m 799.5,140.5 c 9.371,-0.474 11.371,3.026 6,10.5 -9.148,0.536 -11.148,-2.964 -6,-10.5 z"
         id="path37" />
    </g>
    <g
       id="g38"
       style="clip-rule:evenodd;fill-rule:evenodd;image-rendering:optimizeQuality;shape-rendering:geometricPrecision;text-rendering:geometricPrecision"
       transform="matrix(0.26458333,0,0,0.26458333,-172.1716,5.2017898)">
      <path
         style="opacity:1"
         fill="#f6d3d4"
         d="m 800.5,142.5 c 5.516,-0.027 6.849,2.14 4,6.5 -4.93,0.427 -6.263,-1.74 -4,-6.5 z"
         id="path38" />
    </g>
    <g
       id="g39"
       style="clip-rule:evenodd;fill-rule:evenodd;image-rendering:optimizeQuality;shape-rendering:geometricPrecision;text-rendering:geometricPrecision"
       transform="matrix(0.26458333,0,0,0.26458333,-172.1716,5.2017898)">
      <path
         style="opacity:1"
         fill="#ae251f"
         d="m 859.5,49.5 c -0.332,34.5041 0.002,68.837 1,103 0.891,0.761 1.558,1.761 2,3 -0.573,1.854 -0.907,3.687 -1,5.5 0.92,4.18 1.92,8.347 3,12.5 -1.333,0 -2.667,0 -4,0 0.332,35.837 -0.002,71.504 -1,107 -0.752,-35.936 -1.418,-71.936 -2,-108 -16.667,0 -33.333,0 -50,0 -0.034,-5.465 2.633,-8.631 8,-9.5 -1.936,-4.155 -0.602,-7.488 4,-10 -0.556,-0.383 -0.889,-0.883 -1,-1.5 12.309,1.628 24.475,0.962 36.5,-2 0.651,-1.735 0.485,-3.402 -0.5,-5 1.227,-1.09 2.06,-2.424 2.5,-4 0.5,-16.997 0.667,-33.997 0.5,-51 0,-0.3333 0,-0.6667 0,-1 0.454,-16.0707 -0.046,-32.0707 -1.5,-48 -0.833,-0.8333 -1.667,-1.6667 -2.5,-2.5 -15.045,-3.3044 -30.045,-3.3044 -45,0 -2.104,2.0424 -3.271,4.5424 -3.5,7.5 -0.5,26.3312 -0.667,52.6646 -0.5,79 0,2.333 0,4.667 0,7 3.165,0.536 5.831,-0.297 8,-2.5 12.333,-0.667 24.667,-0.667 37,0 1.996,4.271 2.496,8.771 1.5,13.5 -0.5,0.5 -1,1 -1.5,1.5 -9.994,0.5 -19.994,0.666 -30,0.5 0.333,-0.667 0.667,-1.333 1,-2 9.339,0.166 18.673,0 28,-0.5 1.122,-3.409 1.289,-6.909 0.5,-10.5 -11.424,-1.154 -22.924,-1.32 -34.5,-0.5 -1.473,0.71 -2.14,1.876 -2,3.5 -3.201,-1.423 -6.534,-2.423 -10,-3 -0.461,-30.708 0.039,-61.375 1.5,-92 1.227,-2.2261 3.061,-3.7261 5.5,-4.5 13.671,-1.9424 27.338,-1.9424 41,0 6.89,2.2577 9.89,7.0911 9,14.5 z"
         id="path39" />
    </g>
    <g
       id="g40"
       style="clip-rule:evenodd;fill-rule:evenodd;image-rendering:optimizeQuality;shape-rendering:geometricPrecision;text-rendering:geometricPrecision"
       transform="matrix(0.26458333,0,0,0.26458333,-172.1716,5.2017898)">
      <path
         style="opacity:1"
         fill="#cc362e"
         d="m 857.5,88.5 c -0.641,-4.8045 -1.641,-9.6378 -3,-14.5 1.394,-0.956 2.061,-2.2894 2,-4 0.017,-7.0162 -0.15,-14.1829 -0.5,-21.5 -0.424,-4.5251 -2.59,-7.8584 -6.5,-10 -0.586,0.2093 -1.086,0.5426 -1.5,1 -5.85,-2.1218 -11.683,-2.1218 -17.5,0 -1.723,-1.0522 -3.39,-1.0522 -5,0 -1.248,-0.5402 -2.415,-1.2069 -3.5,-2 -4.442,0.8291 -8.942,1.4958 -13.5,2 -0.355,5.6861 -1.355,11.5194 -3,17.5 1.666,3.8526 2.5,7.6859 2.5,11.5 2.148,-5.7421 6.315,-8.7421 12.5,-9 1.656,1.5224 2.823,1.189 3.5,-1 1.563,2.5443 3.063,2.5443 4.5,0 1.902,1.6511 3.902,1.9845 6,1 1.274,2.35 2.607,2.1833 4,-0.5 1.333,-0.6667 2.667,-0.6667 4,0 2.06,1.6965 4.393,2.8631 7,3.5 1.205,1.0769 1.872,2.4102 2,4 -1.51,-1.3361 -3.177,-2.5027 -5,-3.5 -10.667,-0.6667 -21.333,-0.6667 -32,0 -3.212,3.3017 -3.879,7.135 -2,11.5 -2.688,-0.5241 -4.188,-2.1908 -4.5,-5 -1.536,7.2329 -1.369,14.2329 0.5,21 -3.046,7.4848 -3.713,15.485 -2,24 0.102,3.617 -0.565,6.95 -2,10 -0.167,-26.3354 0,-52.6688 0.5,-79 0.229,-2.9576 1.396,-5.4576 3.5,-7.5 14.955,-3.3044 29.955,-3.3044 45,0 0.833,0.8333 1.667,1.6667 2.5,2.5 1.454,15.9293 1.954,31.9293 1.5,48 z"
         id="path40" />
    </g>
    <g
       id="g41"
       style="clip-rule:evenodd;fill-rule:evenodd;image-rendering:optimizeQuality;shape-rendering:geometricPrecision;text-rendering:geometricPrecision"
       transform="matrix(0.26458333,0,0,0.26458333,-172.1716,5.2017898)">
      <path
         style="opacity:1"
         fill="#d3332b"
         d="m 857.5,88.5 c 0,0.3333 0,0.6667 0,1 -0.827,5.1509 -1.327,10.4842 -1.5,16 -0.5,0.5 -1,1 -1.5,1.5 2.479,3.899 2.479,7.399 0,10.5 1.808,4.334 2.475,8.668 2,13 -0.825,0.886 -1.825,1.219 -3,1 0,-1 0,-2 0,-3 -4.618,-0.027 -5.452,-1.36 -2.5,-4 0.494,-1.634 0.66,-3.301 0.5,-5 -3.341,-0.698 -5.341,-2.698 -6,-6 6.987,-2.371 6.654,-3.371 -1,-3 -3.325,-10.9161 -6.658,-21.9161 -10,-33 4.296,-0.8275 8.629,-1.3275 13,-1.5 3.463,-2.1945 4.796,-5.3612 4,-9.5 -0.128,-1.5898 -0.795,-2.9231 -2,-4 -2.607,-0.6369 -4.94,-1.8035 -7,-3.5 -1.333,-0.6667 -2.667,-0.6667 -4,0 -1.393,2.6833 -2.726,2.85 -4,0.5 -2.098,0.9845 -4.098,0.6511 -6,-1 -1.437,2.5443 -2.937,2.5443 -4.5,0 -0.677,2.189 -1.844,2.5224 -3.5,1 -6.185,0.2579 -10.352,3.2579 -12.5,9 0,-3.8141 -0.834,-7.6474 -2.5,-11.5 1.645,-5.9806 2.645,-11.8139 3,-17.5 4.558,-0.5042 9.058,-1.1709 13.5,-2 1.085,0.7931 2.252,1.4598 3.5,2 1.61,-1.0522 3.277,-1.0522 5,0 5.817,-2.1218 11.65,-2.1218 17.5,0 0.414,-0.4574 0.914,-0.7907 1.5,-1 3.91,2.1416 6.076,5.4749 6.5,10 0.35,7.3171 0.517,14.4838 0.5,21.5 0.061,1.7106 -0.606,3.044 -2,4 1.359,4.8622 2.359,9.6955 3,14.5 z"
         id="path41" />
    </g>
    <g
       id="g45"
       style="clip-rule:evenodd;fill-rule:evenodd;image-rendering:optimizeQuality;shape-rendering:geometricPrecision;text-rendering:geometricPrecision"
       transform="matrix(0.26458333,0,0,0.26458333,-172.1716,5.2017898)">
      <path
         style="opacity:1"
         fill="#844140"
         d="m 792.5,134.5 c 0.333,0 0.667,0 1,0 0,0.667 0,1.333 0,2 -3.657,4.225 -4.823,9.225 -3.5,15 1.986,5.305 4.486,10.305 7.5,15 0.247,2.358 -0.419,4.358 -2,6 -0.998,36.496 -1.332,73.163 -1,110 -1.164,-37.164 -1.331,-74.498 -0.5,-112 0.925,-0.547 1.758,-1.213 2.5,-2 -1.021,-1.401 -2.021,-2.735 -3,-4 -4.821,-6.967 -6.654,-14.634 -5.5,-23 1.012,-2.702 2.512,-5.035 4.5,-7 z"
         id="path45" />
    </g>
    <g
       id="g68"
       style="clip-rule:evenodd;fill-rule:evenodd;image-rendering:optimizeQuality;shape-rendering:geometricPrecision;text-rendering:geometricPrecision"
       transform="matrix(0.26458333,0,0,0.26458333,-172.1716,5.2017898)">
      <path
         style="opacity:1"
         fill="#822625"
         d="m 866.5,169.5 c 0.617,0.111 1.117,0.444 1.5,1 0.5,39.332 0.667,78.665 0.5,118 -1.242,4.696 -2.575,9.363 -4,14 1.218,-7.614 2.051,-15.281 2.5,-23 0.82,-36.708 0.654,-73.375 -0.5,-110 z"
         id="path68" />
    </g>
    <g
       id="g69"
       style="clip-rule:evenodd;fill-rule:evenodd;image-rendering:optimizeQuality;shape-rendering:geometricPrecision;text-rendering:geometricPrecision"
       transform="matrix(0.26458333,0,0,0.26458333,-172.1716,5.2017898)">
      <path
         style="opacity:1"
         fill="#7a1b18"
         d="m 795.5,172.5 c -0.167,37.335 0,74.668 0.5,112 0.828,3.966 1.328,7.966 1.5,12 -0.667,0 -1,-0.333 -1,-1 -0.559,-4.353 -1.225,-8.686 -2,-13 -0.332,-36.837 0.002,-73.504 1,-110 z"
         id="path69" />
    </g>
    <g
       id="g70"
       style="clip-rule:evenodd;fill-rule:evenodd;image-rendering:optimizeQuality;shape-rendering:geometricPrecision;text-rendering:geometricPrecision"
       transform="matrix(0.26458333,0,0,0.26458333,-172.1716,5.2017898)">
      <path
         style="opacity:1"
         fill="#f8e3df"
         d="m 793.5,164.5 c 0.979,1.265 1.979,2.599 3,4 -0.742,0.787 -1.575,1.453 -2.5,2 -0.831,37.502 -0.664,74.836 0.5,112 0.775,4.314 1.441,8.647 2,13 -1.351,-2.523 -2.517,-5.189 -3.5,-8 -0.811,-41.022 -0.644,-82.022 0.5,-123 z"
         id="path70" />
    </g>
    <g
       id="g91"
       style="clip-rule:evenodd;fill-rule:evenodd;image-rendering:optimizeQuality;shape-rendering:geometricPrecision;text-rendering:geometricPrecision"
       transform="matrix(0.26458333,0,0,0.26458333,-172.1716,5.2017898)">
      <path
         style="opacity:1"
         fill="#efcfcf"
         d="m 868.5,288.5 c 0.165,3.35 -0.002,6.683 -0.5,10 -1.578,3.157 -2.578,6.491 -3,10 -0.66,1.824 -1.827,3.157 -3.5,4 1.792,-3.046 2.792,-6.379 3,-10 1.425,-4.637 2.758,-9.304 4,-14 z"
         id="path91" />
    </g>
    <g
       id="g93"
       style="clip-rule:evenodd;fill-rule:evenodd;image-rendering:optimizeQuality;shape-rendering:geometricPrecision;text-rendering:geometricPrecision"
       transform="matrix(0.26458333,0,0,0.26458333,-172.1716,5.2017898)">
      <path
         style="opacity:1"
         fill="#99241e"
         d="m 844.5,5.5 c 4.983,1.55919 9.65,3.89252 14,7 1.343,2.4044 2.677,4.7377 4,7 1.663,1.9385 2.329,4.2718 2,7 0.828,7.3197 1.661,14.653 2.5,22 0.5,35.3318 0.667,70.665 0.5,106 -0.945,4.905 -1.279,9.905 -1,15 1.154,36.625 1.32,73.292 0.5,110 -0.449,7.719 -1.282,15.386 -2.5,23 -0.208,3.621 -1.208,6.954 -3,10 -0.667,0.333 -1.333,0.667 -2,1 -16.409,6.093 -33.076,6.593 -50,1.5 -2.399,-0.731 -4.565,-1.898 -6.5,-3.5 -1.968,-4.46 -3.302,-9.127 -4,-14 -0.383,-0.556 -0.883,-0.889 -1.5,-1 -0.172,-4.034 -0.672,-8.034 -1.5,-12 -0.5,-37.332 -0.667,-74.665 -0.5,-112 1.581,-1.642 2.247,-3.642 2,-6 1.432,1.827 3.099,3.494 5,5 6.961,-6.589 11.294,-14.589 13,-24 -1.539,-12.724 -8.206,-16.724 -20,-12 -0.658,-28.686 0.008,-57.0197 2,-85 0,27 0,54 0,81 1.667,0 3.333,0 5,0 3.466,0.577 6.799,1.577 10,3 2.682,2.03 4.349,4.697 5,8 1,0 2,0 3,0 -0.333,0.667 -0.667,1.333 -1,2 -0.869,2.217 -1.202,4.55 -1,7 0.111,0.617 0.444,1.117 1,1.5 -4.602,2.512 -5.936,5.845 -4,10 -5.367,0.869 -8.034,4.035 -8,9.5 -1.228,0.806 -2.228,1.806 -3,3 -0.342,-0.838 -1.008,-1.172 -2,-1 -1.544,-0.203 -2.878,-0.87 -4,-2 -1.167,35.329 -1.333,70.662 -0.5,106 0.183,2.865 0.683,5.531 1.5,8 0.358,5.789 1.358,11.455 3,17 0.745,5.246 3.745,8.413 9,9.5 13.662,4.501 27.328,4.501 41,0 2.602,-0.883 4.769,-2.383 6.5,-4.5 2.735,-7.072 4.402,-14.406 5,-22 0.5,-37.665 0.667,-75.332 0.5,-113 -1.08,-4.153 -2.08,-8.32 -3,-12.5 0.093,-1.813 0.427,-3.646 1,-5.5 -0.442,-1.239 -1.109,-2.239 -2,-3 1.667,0 3.333,0 5,0 0.332,-35.171 -0.002,-70.1706 -1,-105 C 863.283,36.1954 860.783,25.1954 857,14.5 846.375,8.1995 834.875,6.03283 822.5,8 c -7.792,0.5625 -14.126,3.7292 -19,9.5 -0.484,-3.2882 0.516,-5.9548 3,-8 0.342,-0.83825 1.008,-1.17158 2,-1 11.831,-2.39621 23.831,-3.39621 36,-3 z"
         id="path93" />
    </g>
    <g
       id="g94"
       style="clip-rule:evenodd;fill-rule:evenodd;image-rendering:optimizeQuality;shape-rendering:geometricPrecision;text-rendering:geometricPrecision"
       transform="matrix(0.26458333,0,0,0.26458333,-172.1716,5.2017898)">
      <path
         style="opacity:1"
         fill="#aa1f19"
         d="m 817.5,296.5 c 4.766,1.37 9.766,2.037 15,2 7.324,-0.968 14.657,-1.468 22,-1.5 2.004,2.841 2.504,6.007 1.5,9.5 -4.924,3.419 -10.424,5.252 -16.5,5.5 -10.73,1.43 -21.064,0.097 -31,-4 -1.729,-1.789 -2.396,-3.956 -2,-6.5 0.251,-1.67 0.918,-3.17 2,-4.5 2.982,-0.498 5.982,-0.665 9,-0.5 z"
         id="path94" />
    </g>
    <g
       id="g95"
       style="clip-rule:evenodd;fill-rule:evenodd;image-rendering:optimizeQuality;shape-rendering:geometricPrecision;text-rendering:geometricPrecision"
       transform="matrix(0.26458333,0,0,0.26458333,-172.1716,5.2017898)">
      <path
         style="opacity:1"
         fill="#db3f33"
         d="m 809.5,298.5 c 8.328,0.666 16.662,1.333 25,2 5.415,-0.016 10.748,-0.683 16,-2 3.247,-0.252 4.58,1.248 4,4.5 -0.333,1.167 -0.667,2.333 -1,3.5 -14.75,5.46 -29.416,5.293 -44,-0.5 -1.149,-2.459 -1.149,-4.959 0,-7.5 z"
         id="path95" />
    </g>
    <g
       id="g96"
       style="clip-rule:evenodd;fill-rule:evenodd;image-rendering:optimizeQuality;shape-rendering:geometricPrecision;text-rendering:geometricPrecision"
       transform="matrix(0.26458333,0,0,0.26458333,-172.1716,5.2017898)">
      <path
         style="opacity:1"
         fill="#ed756a"
         d="m 803.5,285.5 c 1.51,1.336 3.177,2.503 5,3.5 6.317,0.765 12.651,1.265 19,1.5 -1.775,4.417 -5.108,6.417 -10,6 -3.018,-0.165 -6.018,0.002 -9,0.5 -1.082,1.33 -1.749,2.83 -2,4.5 -1.105,1.1 -2.438,1.767 -4,2 -1.642,-5.545 -2.642,-11.211 -3,-17 -0.157,-1.373 0.01,-2.707 0.5,-4 1.039,1.21 2.206,2.21 3.5,3 z"
         id="path96" />
    </g>
    <g
       id="g97"
       style="clip-rule:evenodd;fill-rule:evenodd;image-rendering:optimizeQuality;shape-rendering:geometricPrecision;text-rendering:geometricPrecision"
       transform="matrix(0.26458333,0,0,0.26458333,-172.1716,5.2017898)">
      <path
         style="opacity:1"
         fill="#ab211b"
         d="m 802.5,174.5 c 0.992,-0.172 1.658,0.162 2,1 -0.312,36.346 0.188,72.68 1.5,109 1.171,1.393 2.671,2.227 4.5,2.5 15.041,0.896 30.041,0.563 45,-1 0.96,-1.419 1.793,-2.919 2.5,-4.5 0.483,0.948 0.649,1.948 0.5,3 0.086,0.996 -0.248,1.829 -1,2.5 -2.863,1.399 -5.863,2.399 -9,3 -6.992,0.5 -13.992,0.666 -21,0.5 -6.349,-0.235 -12.683,-0.735 -19,-1.5 -1.823,-0.997 -3.49,-2.164 -5,-3.5 -0.975,-36.976 -1.308,-73.976 -1,-111 z"
         id="path97" />
    </g>
    <g
       id="g98"
       style="clip-rule:evenodd;fill-rule:evenodd;image-rendering:optimizeQuality;shape-rendering:geometricPrecision;text-rendering:geometricPrecision"
       transform="matrix(0.26458333,0,0,0.26458333,-172.1716,5.2017898)">
      <path
         style="opacity:1"
         fill="#e56760"
         d="m 802.5,174.5 c -0.308,37.024 0.025,74.024 1,111 -1.294,-0.79 -2.461,-1.79 -3.5,-3 -0.49,1.293 -0.657,2.627 -0.5,4 -0.817,-2.469 -1.317,-5.135 -1.5,-8 -0.833,-35.338 -0.667,-70.671 0.5,-106 1.122,1.13 2.456,1.797 4,2 z"
         id="path98" />
    </g>
    <g
       id="g99"
       style="clip-rule:evenodd;fill-rule:evenodd;image-rendering:optimizeQuality;shape-rendering:geometricPrecision;text-rendering:geometricPrecision"
       transform="matrix(0.26458333,0,0,0.26458333,-172.1716,5.2017898)">
      <path
         style="opacity:1"
         fill="#d1352d"
         d="m 807.5,172.5 c 16.667,0 33.333,0 50,0 0.582,36.064 1.248,72.064 2,108 0.268,1.599 -0.066,2.932 -1,4 0.149,-1.052 -0.017,-2.052 -0.5,-3 -0.707,1.581 -1.54,3.081 -2.5,4.5 -14.959,1.563 -29.959,1.896 -45,1 -1.829,-0.273 -3.329,-1.107 -4.5,-2.5 -1.312,-36.32 -1.812,-72.654 -1.5,-109 0.772,-1.194 1.772,-2.194 3,-3 z"
         id="path99" />
    </g>
    <g
       id="g100"
       style="clip-rule:evenodd;fill-rule:evenodd;image-rendering:optimizeQuality;shape-rendering:geometricPrecision;text-rendering:geometricPrecision"
       transform="matrix(0.26458333,0,0,0.26458333,-172.1716,5.2017898)">
      <path
         style="opacity:1"
         fill="#b11f18"
         d="m 814.5,221.5 c 11.005,-0.167 22.005,0 33,0.5 1.079,0.956 2.245,1.789 3.5,2.5 0.667,11.333 0.667,22.667 0,34 -0.465,1.431 -1.299,2.597 -2.5,3.5 -11.333,0.667 -22.667,0.667 -34,0 -1.5,-0.833 -2.667,-2 -3.5,-3.5 -0.667,-11 -0.667,-22 0,-33 1.376,-1.205 2.542,-2.538 3.5,-4 z"
         id="path100" />
    </g>
    <g
       id="g101"
       style="clip-rule:evenodd;fill-rule:evenodd;image-rendering:optimizeQuality;shape-rendering:geometricPrecision;text-rendering:geometricPrecision"
       transform="matrix(0.26458333,0,0,0.26458333,-172.1716,5.2017898)">
      <path
         style="opacity:1"
         fill="#d93a32"
         d="m 814.5,224.5 c 11.581,-0.321 23.081,0.012 34.5,1 0.667,11 0.667,22 0,33 -0.5,0.5 -1,1 -1.5,1.5 -10.667,0.667 -21.333,0.667 -32,0 -0.833,-0.833 -1.667,-1.667 -2.5,-2.5 -0.667,-10.333 -0.667,-20.667 0,-31 0.717,-0.544 1.217,-1.211 1.5,-2 z"
         id="path101" />
    </g>
    <g
       id="g102"
       style="clip-rule:evenodd;fill-rule:evenodd;image-rendering:optimizeQuality;shape-rendering:geometricPrecision;text-rendering:geometricPrecision"
       transform="matrix(0.26458333,0,0,0.26458333,-172.1716,5.2017898)">
      <path
         style="opacity:1"
         fill="#b52720"
         d="m 839.5,226.5 c 2.292,-0.256 4.459,0.077 6.5,1 0.667,9.333 0.667,18.667 0,28 -2.041,0.923 -4.208,1.256 -6.5,1 0,-10 0,-20 0,-30 z"
         id="path102" />
    </g>
    <g
       id="g103"
       style="clip-rule:evenodd;fill-rule:evenodd;image-rendering:optimizeQuality;shape-rendering:geometricPrecision;text-rendering:geometricPrecision"
       transform="matrix(0.26458333,0,0,0.26458333,-172.1716,5.2017898)">
      <path
         style="opacity:1"
         fill="#b12018"
         d="m 813.5,179.5 c 12.101,-0.459 24.101,0.041 36,1.5 1.201,0.903 2.035,2.069 2.5,3.5 0.91,8.744 0.576,17.411 -1,26 -0.833,0.833 -1.667,1.667 -2.5,2.5 -11.667,0.667 -23.333,0.667 -35,0 -0.833,-0.833 -1.667,-1.667 -2.5,-2.5 -0.667,-8.667 -0.667,-17.333 0,-26 1.094,-1.578 1.928,-3.245 2.5,-5 z"
         id="path103" />
    </g>
    <g
       id="g104"
       style="clip-rule:evenodd;fill-rule:evenodd;image-rendering:optimizeQuality;shape-rendering:geometricPrecision;text-rendering:geometricPrecision"
       transform="matrix(0.26458333,0,0,0.26458333,-172.1716,5.2017898)">
      <path
         style="opacity:1"
         fill="#da3a32"
         d="m 814.5,182.5 c 11.338,-0.167 22.672,0 34,0.5 1.15,8.755 1.316,17.588 0.5,26.5 -0.5,0.5 -1,1 -1.5,1.5 -11,0.667 -22,0.667 -33,0 -0.626,-0.75 -1.126,-1.584 -1.5,-2.5 -0.667,-7.667 -0.667,-15.333 0,-23 0.513,-1.027 1.013,-2.027 1.5,-3 z"
         id="path104" />
    </g>
    <g
       id="g105"
       style="clip-rule:evenodd;fill-rule:evenodd;image-rendering:optimizeQuality;shape-rendering:geometricPrecision;text-rendering:geometricPrecision"
       transform="matrix(0.26458333,0,0,0.26458333,-172.1716,5.2017898)">
      <path
         style="opacity:1"
         fill="#d73730"
         d="m 820.5,142.5 c -1,0 -2,0 -3,0 -0.651,-3.303 -2.318,-5.97 -5,-8 -0.14,-1.624 0.527,-2.79 2,-3.5 11.576,-0.82 23.076,-0.654 34.5,0.5 0.789,3.591 0.622,7.091 -0.5,10.5 -9.327,0.5 -18.661,0.666 -28,0.5 z"
         id="path105" />
    </g>
    <g
       id="g106"
       style="clip-rule:evenodd;fill-rule:evenodd;image-rendering:optimizeQuality;shape-rendering:geometricPrecision;text-rendering:geometricPrecision"
       transform="matrix(0.26458333,0,0,0.26458333,-172.1716,5.2017898)">
      <path
         style="opacity:1"
         fill="#ce352c"
         d="m 812.5,74.5 c 0.789,0.2828 1.456,0.7828 2,1.5 4.321,0.499 8.654,0.6657 13,0.5 -2.694,10.4352 -5.861,20.7685 -9.5,31 -1.864,1.464 -4.031,2.464 -6.5,3 1.168,1.717 2.835,2.384 5,2 -0.592,2.627 -0.925,5.294 -1,8 -1.333,0 -2.667,0 -4,0 0,1 0,2 0,3 13,0 26,0 39,0 0,-1 0,-2 0,-3 -1.667,0 -3.333,0 -5,0 0,-2.333 0,-4.667 0,-7 0.659,3.302 2.659,5.302 6,6 0.16,1.699 -0.006,3.366 -0.5,5 -2.952,2.64 -2.118,3.973 2.5,4 0,1 0,2 0,3 1.175,0.219 2.175,-0.114 3,-1 0.475,-4.332 -0.192,-8.666 -2,-13 2.479,-3.101 2.479,-6.601 0,-10.5 0.5,-0.5 1,-1 1.5,-1.5 0.173,-5.5158 0.673,-10.8491 1.5,-16 0.167,17.003 0,34.003 -0.5,51 -0.44,1.576 -1.273,2.91 -2.5,4 0.985,1.598 1.151,3.265 0.5,5 -12.025,2.962 -24.191,3.628 -36.5,2 -0.202,-2.45 0.131,-4.783 1,-7 10.006,0.166 20.006,0 30,-0.5 0.5,-0.5 1,-1 1.5,-1.5 0.996,-4.729 0.496,-9.229 -1.5,-13.5 -12.333,-0.667 -24.667,-0.667 -37,0 -2.169,2.203 -4.835,3.036 -8,2.5 0,-2.333 0,-4.667 0,-7 1.435,-3.05 2.102,-6.383 2,-10 -1.713,-8.515 -1.046,-16.5152 2,-24 -1.869,-6.7671 -2.036,-13.7671 -0.5,-21 0.312,2.8092 1.812,4.4759 4.5,5 z"
         id="path106" />
    </g>
    <g
       id="g107"
       style="clip-rule:evenodd;fill-rule:evenodd;image-rendering:optimizeQuality;shape-rendering:geometricPrecision;text-rendering:geometricPrecision"
       transform="matrix(0.26458333,0,0,0.26458333,-172.1716,5.2017898)">
      <path
         style="opacity:1"
         fill="#ad1e19"
         d="m 851.5,66.5 c 0.796,4.1388 -0.537,7.3055 -4,9.5 -4.371,0.1725 -8.704,0.6725 -13,1.5 3.342,11.0839 6.675,22.0839 10,33 7.654,-0.371 7.987,0.629 1,3 0,2.333 0,4.667 0,7 1.667,0 3.333,0 5,0 0,1 0,2 0,3 -13,0 -26,0 -39,0 0,-1 0,-2 0,-3 1.333,0 2.667,0 4,0 0.075,-2.706 0.408,-5.373 1,-8 -2.165,0.384 -3.832,-0.283 -5,-2 2.469,-0.536 4.636,-1.536 6.5,-3 3.639,-10.2315 6.806,-20.5648 9.5,-31 -4.346,0.1657 -8.679,-0.001 -13,-0.5 -0.544,-0.7172 -1.211,-1.2172 -2,-1.5 -1.879,-4.365 -1.212,-8.1983 2,-11.5 10.667,-0.6667 21.333,-0.6667 32,0 1.823,0.9973 3.49,2.1639 5,3.5 z"
         id="path107" />
    </g>
    <g
       id="g108"
       style="clip-rule:evenodd;fill-rule:evenodd;image-rendering:optimizeQuality;shape-rendering:geometricPrecision;text-rendering:geometricPrecision"
       transform="matrix(0.26458333,0,0,0.26458333,-172.1716,5.2017898)">
      <path
         style="opacity:1"
         fill="#cf322b"
         d="m 818.5,112.5 c 8,0 16,0 24,0 0,2.667 0,5.333 0,8 -8.36,0.331 -16.693,-0.002 -25,-1 0.874,-2.247 1.208,-4.58 1,-7 z"
         id="path108" />
    </g>
    <g
       id="g109"
       style="clip-rule:evenodd;fill-rule:evenodd;image-rendering:optimizeQuality;shape-rendering:geometricPrecision;text-rendering:geometricPrecision"
       transform="matrix(0.26458333,0,0,0.26458333,-172.1716,5.2017898)">
      <path
         style="opacity:1"
         fill="#d33931"
         d="m 830.5,75.5 c 1.617,1.6209 2.784,3.6209 3.5,6 2.806,9.2702 5.306,18.603 7.5,28 -7,0 -14,0 -21,0 2.955,-11.4395 6.288,-22.7728 10,-34 z"
         id="path109" />
    </g>
    <g
       id="g110"
       style="clip-rule:evenodd;fill-rule:evenodd;image-rendering:optimizeQuality;shape-rendering:geometricPrecision;text-rendering:geometricPrecision"
       transform="matrix(0.26458333,0,0,0.26458333,-172.1716,5.2017898)">
      <path
         style="opacity:1"
         fill="#d1352e"
         d="m 815.5,64.5 c 10.339,-0.1665 20.672,2e-4 31,0.5 1.821,2.456 2.488,5.2893 2,8.5 -5.333,0 -10.667,0 -16,0 0.285,-1.788 -0.048,-3.4547 -1,-5 -1.717,1.1685 -2.384,2.8352 -2,5 -5.011,0.1659 -10.011,-7e-4 -15,-0.5 -1.459,-3.0705 -1.126,-5.9039 1,-8.5 z"
         id="path110" />
    </g>
    <g
       id="g112"
       style="clip-rule:evenodd;fill-rule:evenodd;image-rendering:optimizeQuality;shape-rendering:geometricPrecision;text-rendering:geometricPrecision"
       transform="matrix(0.26458333,0,0,0.26458333,-172.1716,5.2017898)">
      <path
         style="opacity:1"
         fill="#8c3c36"
         d="m 797.5,296.5 c 0.617,0.111 1.117,0.444 1.5,1 0.698,4.873 2.032,9.54 4,14 1.935,1.602 4.101,2.769 6.5,3.5 16.924,5.093 33.591,4.593 50,-1.5 -19.286,9.639 -38.453,9.305 -57.5,-1 -2.827,-4.977 -4.327,-10.311 -4.5,-16 z"
         id="path112" />
    </g>
    <g
       id="g113"
       style="clip-rule:evenodd;fill-rule:evenodd;image-rendering:optimizeQuality;shape-rendering:geometricPrecision;text-rendering:geometricPrecision"
       transform="matrix(0.26458333,0,0,0.26458333,-172.1716,5.2017898)">
      <path
         style="opacity:1"
         fill="#e8665f"
         d="m 864.5,173.5 c 0.167,37.668 0,75.335 -0.5,113 -0.598,7.594 -2.265,14.928 -5,22 -1.731,2.117 -3.898,3.617 -6.5,4.5 -13.672,4.501 -27.338,4.501 -41,0 -5.255,-1.087 -8.255,-4.254 -9,-9.5 1.562,-0.233 2.895,-0.9 4,-2 -0.396,2.544 0.271,4.711 2,6.5 9.936,4.097 20.27,5.43 31,4 6.076,-0.248 11.576,-2.081 16.5,-5.5 1.004,-3.493 0.504,-6.659 -1.5,-9.5 -7.343,0.032 -14.676,0.532 -22,1.5 -5.234,0.037 -10.234,-0.63 -15,-2 4.892,0.417 8.225,-1.583 10,-6 7.008,0.166 14.008,0 21,-0.5 3.137,-0.601 6.137,-1.601 9,-3 0.752,-0.671 1.086,-1.504 1,-2.5 0.934,-1.068 1.268,-2.401 1,-4 0.998,-35.496 1.332,-71.163 1,-107 1.333,0 2.667,0 4,0 z"
         id="path113" />
    </g>
  </g>
</svg>
