<?xml version="1.0" encoding="UTF-8" standalone="no"?>
<!-- Created with Inkscape (http://www.inkscape.org/) -->

<svg
   width="96mm"
   height="96mm"
   viewBox="0 0 96 96"
   version="1.1"
   id="svg1"
   inkscape:version="1.4.2 (ebf0e940, 2025-05-08)"
   sodipodi:docname="plane.svg"
   xmlns:inkscape="http://www.inkscape.org/namespaces/inkscape"
   xmlns:sodipodi="http://sodipodi.sourceforge.net/DTD/sodipodi-0.dtd"
   xmlns="http://www.w3.org/2000/svg"
   xmlns:svg="http://www.w3.org/2000/svg">
  <sodipodi:namedview
     id="namedview1"
     pagecolor="#ffffff"
     bordercolor="#000000"
     borderopacity="0.25"
     inkscape:showpageshadow="2"
     inkscape:pageopacity="0.0"
     inkscape:pagecheckerboard="0"
     inkscape:deskcolor="#d1d1d1"
     inkscape:document-units="mm"
     inkscape:zoom="0.80444024"
     inkscape:cx="397.17059"
     inkscape:cy="362.36377"
     inkscape:window-width="1920"
     inkscape:window-height="1052"
     inkscape:window-x="0"
     inkscape:window-y="28"
     inkscape:window-maximized="0"
     inkscape:current-layer="layer1" />
  <defs
     id="defs1" />
  <g
     inkscape:label="Layer 1"
     inkscape:groupmode="layer"
     id="layer1">
    <g
       id="g154"
       style="clip-rule:evenodd;fill-rule:evenodd;image-rendering:optimizeQuality;shape-rendering:geometricPrecision;text-rendering:geometricPrecision"
       transform="matrix(0.26458333,0,0,0.26458333,-172.4371,-103.3901)">
      <path
         style="opacity:1"
         fill="#862f29"
         d="m 844.5,430.5 c 0,0.333 0,0.667 0,1 -2.492,-2.291 -4.992,-4.624 -7.5,-7 -3.477,-1.009 -6.977,-1.009 -10.5,0 4.012,-3.804 8.345,-3.971 13,-0.5 1.554,2.287 3.221,4.454 5,6.5 z"
         id="path154" />
    </g>
    <g
       id="g161"
       style="clip-rule:evenodd;fill-rule:evenodd;image-rendering:optimizeQuality;shape-rendering:geometricPrecision;text-rendering:geometricPrecision"
       transform="matrix(0.26458333,0,0,0.26458333,-172.4371,-103.3901)">
      <path
         style="opacity:1"
         fill="#873630"
         d="m 844.5,431.5 c 4.427,6.609 7.094,13.942 8,22 -2.962,-7.15 -5.628,-14.483 -8,-22 z"
         id="path161" />
    </g>
    <g
       id="g163"
       style="clip-rule:evenodd;fill-rule:evenodd;image-rendering:optimizeQuality;shape-rendering:geometricPrecision;text-rendering:geometricPrecision"
       transform="matrix(0.26458333,0,0,0.26458333,-172.4371,-103.3901)">
      <path
         style="opacity:1"
         fill="#8c3730"
         d="m 826.5,424.5 c -1.697,5.058 -4.197,9.725 -7.5,14 -0.534,3.805 -1.534,7.471 -3,11 -0.383,-0.556 -0.883,-0.889 -1.5,-1 1.37,-9.408 5.37,-17.408 12,-24 z"
         id="path163" />
    </g>
    <g
       id="g177"
       style="clip-rule:evenodd;fill-rule:evenodd;image-rendering:optimizeQuality;shape-rendering:geometricPrecision;text-rendering:geometricPrecision"
       transform="matrix(0.26458333,0,0,0.26458333,-172.4371,-103.3901)">
      <path
         style="opacity:1"
         fill="#f9e7e6"
         d="m 844.5,431.5 c 0,-0.333 0,-0.667 0,-1 1.322,-0.17 2.489,0.163 3.5,1 5.969,16.506 9.135,33.339 9.5,50.5 0.657,11.772 1.324,23.605 2,35.5 1.915,1.571 2.915,3.571 3,6 -2.731,-1.571 -4.565,-3.905 -5.5,-7 -0.333,-14 -0.667,-28 -1,-42 -0.702,-7.22 -1.869,-14.22 -3.5,-21 -0.906,-8.058 -3.573,-15.391 -8,-22 z"
         id="path177" />
    </g>
    <g
       id="g189"
       style="clip-rule:evenodd;fill-rule:evenodd;image-rendering:optimizeQuality;shape-rendering:geometricPrecision;text-rendering:geometricPrecision"
       transform="matrix(0.26458333,0,0,0.26458333,-172.4371,-103.3901)">
      <path
         style="opacity:1"
         fill="#edbfba"
         d="m 772.5,506.5 c 2.478,-0.664 5.145,-0.997 8,-1 3.09,0.022 5.757,0.688 8,2 -5.272,-0.9 -10.605,-1.233 -16,-1 z"
         id="path189" />
    </g>
    <g
       id="g192"
       style="clip-rule:evenodd;fill-rule:evenodd;image-rendering:optimizeQuality;shape-rendering:geometricPrecision;text-rendering:geometricPrecision"
       transform="matrix(0.26458333,0,0,0.26458333,-172.4371,-103.3901)">
      <path
         style="opacity:1"
         fill="#8d312c"
         d="m 814.5,448.5 c -1.692,22.621 -2.859,45.288 -3.5,68 -0.354,3.414 -2.188,5.414 -5.5,6 1.407,-1.808 2.574,-3.808 3.5,-6 0.333,-14 0.667,-28 1,-42 0.532,-8.973 2.032,-17.64 4.5,-26 z"
         id="path192" />
    </g>
    <g
       id="g194"
       style="clip-rule:evenodd;fill-rule:evenodd;image-rendering:optimizeQuality;shape-rendering:geometricPrecision;text-rendering:geometricPrecision"
       transform="matrix(0.26458333,0,0,0.26458333,-172.4371,-103.3901)">
      <path
         style="opacity:1"
         fill="#8f302b"
         d="m 852.5,453.5 c 1.631,6.78 2.798,13.78 3.5,21 0.333,14 0.667,28 1,42 0.935,3.095 2.769,5.429 5.5,7 2.417,2.72 5.417,4.72 9,6 -2.456,-21.369 6.544,-28.536 27,-21.5 3.466,3.575 4.8,7.908 4,13 -0.819,7.56 -2.153,15.06 -4,22.5 29.396,16.361 58.729,32.694 88,49 -5.629,-2.143 -11.296,-4.31 -17,-6.5 -5.462,-4.09 -11.462,-7.423 -18,-10 -15.42,-10.379 -31.753,-19.212 -49,-26.5 -0.607,0.124 -0.94,0.457 -1,1 -1.21,-0.432 -2.21,-1.099 -3,-2 0.739,0.131 1.406,-0.036 2,-0.5 -1.924,-2.085 -2.924,-4.585 -3,-7.5 0.268,-3.017 0.602,-6.017 1,-9 0,-1 0,-2 0,-3 4.587,-16.453 -1.746,-22.953 -19,-19.5 -1.829,0.273 -3.329,1.107 -4.5,2.5 -0.988,6.302 -1.821,12.635 -2.5,19 -1.571,0.809 -3.238,1.143 -5,1 -1.653,-0.16 -2.986,-0.826 -4,-2 -0.882,-1.884 -2.382,-3.217 -4.5,-4 -1.93,-2.862 -3.597,-5.862 -5,-9 -0.455,-21.003 -0.955,-42.003 -1.5,-63 z"
         id="path194" />
    </g>
    <g
       id="g195"
       style="clip-rule:evenodd;fill-rule:evenodd;image-rendering:optimizeQuality;shape-rendering:geometricPrecision;text-rendering:geometricPrecision"
       transform="matrix(0.26458333,0,0,0.26458333,-172.4371,-103.3901)">
      <path
         style="opacity:1"
         fill="#d53b32"
         d="m 898.5,528.5 c 0,1 0,2 0,3 -1.777,3.005 -2.777,6.338 -3,10 -2.082,0.028 -3.916,-0.639 -5.5,-2 -0.499,-5.991 -0.666,-11.991 -0.5,-18 -1.967,-0.239 -3.801,0.094 -5.5,1 -0.172,4.371 -0.672,8.704 -1.5,13 -2.299,-1.135 -4.466,-2.468 -6.5,-4 -0.806,-5.584 -0.639,-11.084 0.5,-16.5 7.326,-0.5 14.659,-0.666 22,-0.5 0,4.667 0,9.333 0,14 z"
         id="path195" />
    </g>
    <g
       id="g196"
       style="clip-rule:evenodd;fill-rule:evenodd;image-rendering:optimizeQuality;shape-rendering:geometricPrecision;text-rendering:geometricPrecision"
       transform="matrix(0.26458333,0,0,0.26458333,-172.4371,-103.3901)">
      <path
         style="opacity:1"
         fill="#872b27"
         d="m 772.5,506.5 c 5.395,-0.233 10.728,0.1 16,1 2.414,1.411 4.081,3.411 5,6 -0.328,5.375 0.005,10.708 1,16 2.239,-1.288 4.572,-2.288 7,-3 0.086,0.996 -0.248,1.829 -1,2.5 -2.577,1.25 -5.243,1.584 -8,1 -0.644,-4.934 -1.31,-9.767 -2,-14.5 -0.667,-2.333 -1.333,-4.667 -2,-7 -4.972,-0.922 -9.972,-1.088 -15,-0.5 -2.696,0.69 -4.863,2.19 -6.5,4.5 -0.5,8.327 -0.666,16.66 -0.5,25 -0.79,-1.109 -1.29,-2.442 -1.5,-4 -0.5,-6.658 -0.666,-13.325 -0.5,-20 0.959,-4.164 3.626,-6.498 8,-7 z"
         id="path196" />
    </g>
    <g
       id="g199"
       style="clip-rule:evenodd;fill-rule:evenodd;image-rendering:optimizeQuality;shape-rendering:geometricPrecision;text-rendering:geometricPrecision"
       transform="matrix(0.26458333,0,0,0.26458333,-172.4371,-103.3901)">
      <path
         style="opacity:1"
         fill="#f1cecd"
         d="m 764.5,513.5 c -0.166,6.675 0,13.342 0.5,20 0.21,1.558 0.71,2.891 1.5,4 0,0.333 0,0.667 0,1 0.731,2.099 0.731,4.099 0,6 -3.789,2.463 -7.789,4.463 -12,6 -0.219,-1.175 0.114,-2.175 1,-3 2.933,-1.305 5.933,-2.305 9,-3 -1.115,-10.492 -1.115,-20.826 0,-31 z"
         id="path199" />
    </g>
    <g
       id="g217"
       style="clip-rule:evenodd;fill-rule:evenodd;image-rendering:optimizeQuality;shape-rendering:geometricPrecision;text-rendering:geometricPrecision"
       transform="matrix(0.26458333,0,0,0.26458333,-172.4371,-103.3901)">
      <path
         style="opacity:1"
         fill="#842b27"
         d="m 766.5,538.5 c 1.309,1.124 1.975,2.624 2,4.5 -2.964,5.619 -7.63,8.952 -14,10 -8.62,5.195 -17.287,10.195 -26,15 -3.911,1.791 -7.911,3.291 -12,4.5 12.667,-7.333 25.333,-14.667 38,-22 4.211,-1.537 8.211,-3.537 12,-6 0.731,-1.901 0.731,-3.901 0,-6 z"
         id="path217" />
    </g>
    <g
       id="g220"
       style="clip-rule:evenodd;fill-rule:evenodd;image-rendering:optimizeQuality;shape-rendering:geometricPrecision;text-rendering:geometricPrecision"
       transform="matrix(0.26458333,0,0,0.26458333,-172.4371,-103.3901)">
      <path
         style="opacity:1"
         fill="#e96560"
         d="m 687.5,592.5 c 26.493,-14.079 52.827,-28.413 79,-43 4.466,-2.066 8.799,-4.4 13,-7 1.333,1.333 1.333,2.667 0,4 -29.492,15.245 -58.825,30.745 -88,46.5 -1.566,0.765 -2.899,0.598 -4,-0.5 z"
         id="path220" />
    </g>
    <g
       id="g222"
       style="clip-rule:evenodd;fill-rule:evenodd;image-rendering:optimizeQuality;shape-rendering:geometricPrecision;text-rendering:geometricPrecision"
       transform="matrix(0.26458333,0,0,0.26458333,-172.4371,-103.3901)">
      <path
         style="opacity:1"
         fill="#eb6862"
         d="m 898.5,548.5 c 0.79,0.901 1.79,1.568 3,2 26,14 52,28 78,42 -0.417,0.624 -1.084,0.957 -2,1 -30.391,-15.363 -60.724,-31.03 -91,-47 -1.333,-1.333 -1.333,-2.667 0,-4 4.053,2.027 8.053,4.027 12,6 z"
         id="path222" />
    </g>
    <g
       id="g230"
       style="clip-rule:evenodd;fill-rule:evenodd;image-rendering:optimizeQuality;shape-rendering:geometricPrecision;text-rendering:geometricPrecision"
       transform="matrix(0.26458333,0,0,0.26458333,-172.4371,-103.3901)">
      <path
         style="opacity:1"
         fill="#b12019"
         d="m 957.5,601.5 c -5.413,-0.582 -10.746,-1.582 -16,-3 -2.981,0.318 -5.315,-0.682 -7,-3 -0.333,-0.667 -0.667,-1.333 -1,-2 5.031,0.633 5.365,-0.867 1,-4.5 -13.534,-4.681 -27.034,-9.514 -40.5,-14.5 -1.967,0.993 -3.134,2.66 -3.5,5 2.265,1.627 4.599,2.961 7,4 -1.667,0 -3.333,0 -5,0 -2.251,-0.911 -4.251,-2.244 -6,-4 1.624,-1.651 2.957,-3.651 4,-6 1.574,-1.131 3.241,-1.298 5,-0.5 14.708,4.623 29.041,10.123 43,16.5 1.101,2.142 2.101,4.308 3,6.5 5.468,1.766 10.802,3.6 16,5.5 z"
         id="path230" />
    </g>
    <g
       id="g234"
       style="clip-rule:evenodd;fill-rule:evenodd;image-rendering:optimizeQuality;shape-rendering:geometricPrecision;text-rendering:geometricPrecision"
       transform="matrix(0.26458333,0,0,0.26458333,-172.4371,-103.3901)">
      <path
         style="opacity:1"
         fill="#822b27"
         d="m 716.5,572.5 c -1.552,2.459 -3.885,3.959 -7,4.5 -3.132,2.078 -6.132,4.411 -9,7 -5.69,2.181 -11.356,4.348 -17,6.5 10.512,-6.759 21.512,-12.759 33,-18 z"
         id="path234" />
    </g>
    <g
       id="g235"
       style="clip-rule:evenodd;fill-rule:evenodd;image-rendering:optimizeQuality;shape-rendering:geometricPrecision;text-rendering:geometricPrecision"
       transform="matrix(0.26458333,0,0,0.26458333,-172.4371,-103.3901)">
      <path
         style="opacity:1"
         fill="#a22721"
         d="m 901.5,550.5 c 0.06,-0.543 0.393,-0.876 1,-1 17.247,7.288 33.58,16.121 49,26.5 6.538,2.577 12.538,5.91 18,10 5.704,2.19 11.371,4.357 17,6.5 0.531,2.044 1.698,3.711 3.5,5 0.748,4.981 1.248,9.981 1.5,15 -4.764,-0.269 -9.097,-1.602 -13,-4 3.636,0.826 7.303,1.492 11,2 -0.036,-4.479 -0.869,-8.812 -2.5,-13 -1.145,-1.136 -2.312,-2.136 -3.5,-3 -1.171,-0.845 -2.505,-1.511 -4,-2 -26,-14 -52,-28 -78,-42 z"
         id="path235" />
    </g>
    <g
       id="g236"
       style="clip-rule:evenodd;fill-rule:evenodd;image-rendering:optimizeQuality;shape-rendering:geometricPrecision;text-rendering:geometricPrecision"
       transform="matrix(0.26458333,0,0,0.26458333,-172.4371,-103.3901)">
      <path
         style="opacity:1"
         fill="#a9211c"
         d="m 844.5,431.5 c 2.372,7.517 5.038,14.85 8,22 0.545,20.997 1.045,41.997 1.5,63 1.403,3.138 3.07,6.138 5,9 2.118,0.783 3.618,2.116 4.5,4 -2.872,-1.026 -5.372,-2.692 -7.5,-5 -0.122,1.669 0.212,3.335 1,5 7.597,5.552 15.763,10.218 24.5,14 1.333,-1.333 1.333,-2.667 0,-4 -5.055,-2.188 -9.722,-4.855 -14,-8 1.762,0.143 3.429,-0.191 5,-1 0.679,-6.365 1.512,-12.698 2.5,-19 1.171,-1.393 2.671,-2.227 4.5,-2.5 17.254,-3.453 23.587,3.047 19,19.5 0,-4.667 0,-9.333 0,-14 -7.341,-0.166 -14.674,0 -22,0.5 -1.139,5.416 -1.306,10.916 -0.5,16.5 2.034,1.532 4.201,2.865 6.5,4 0.828,-4.296 1.328,-8.629 1.5,-13 1.699,-0.906 3.533,-1.239 5.5,-1 -0.166,6.009 10e-4,12.009 0.5,18 1.584,1.361 3.418,2.028 5.5,2 0.223,-3.662 1.223,-6.995 3,-10 -0.398,2.983 -0.732,5.983 -1,9 0.076,2.915 1.076,5.415 3,7.5 -0.594,0.464 -1.261,0.631 -2,0.5 -3.947,-1.973 -7.947,-3.973 -12,-6 -1.333,1.333 -1.333,2.667 0,4 30.276,15.97 60.609,31.637 91,47 0.916,-0.043 1.583,-0.376 2,-1 1.495,0.489 2.829,1.155 4,2 -2.945,0.968 -5.945,1.134 -9,0.5 -23.187,-12.592 -46.52,-24.592 -70,-36 -16.216,-9.026 -32.383,-18.193 -48.5,-27.5 -0.5,13.663 -0.667,27.329 -0.5,41 8.692,-0.331 17.359,0.002 26,1 0.809,1.571 1.143,3.238 1,5 -0.333,0 -0.667,0 -1,0 -0.734,-1.208 -1.067,-2.541 -1,-4 -8.333,0 -16.667,0 -25,0 0,1.667 0,3.333 0,5 7.667,0 15.333,0 23,0 -5.819,0.828 -11.819,1.328 -18,1.5 -2.819,0.068 -4.986,1.234 -6.5,3.5 -0.333,16.333 -0.667,32.667 -1,49 -1.957,4.083 -2.457,8.249 -1.5,12.5 -0.599,1.622 -1.266,3.122 -2,4.5 -0.321,6.349 -0.487,12.682 -0.5,19 4.026,3.527 7.859,7.194 11.5,11 -4.229,-2.057 -8.063,-4.723 -11.5,-8 -1.196,6.064 -2.696,12.064 -4.5,18 0.333,0.667 0.667,1.333 1,2 15.218,6.776 30.551,13.276 46,19.5 2.476,1.309 4.476,3.142 6,5.5 1.155,-2.946 1.321,-5.946 0.5,-9 -1.812,-1.8 -3.645,-3.467 -5.5,-5 3.154,0.159 5.654,1.493 7.5,4 0.667,4 0.667,8 0,12 -0.561,0.522 -1.228,0.855 -2,1 -2.72,-1.115 -5.22,-2.449 -7.5,-4 2.342,-0.275 2.342,-1.108 0,-2.5 -15.449,-6.224 -30.782,-12.724 -46,-19.5 -1.584,2.452 -1.917,4.952 -1,7.5 11.758,3.896 23.425,7.73 35,11.5 -11.873,-3.292 -23.873,-5.959 -36,-8 -0.667,0 -1.333,0 -2,0 -2.102,4.535 -4.435,9.201 -7,14 -1.402,-0.365 -2.402,-1.199 -3,-2.5 -0.687,-3.271 -2.02,-6.105 -4,-8.5 0,-2 -1,-3 -3,-3 -7.815,2.355 -15.815,3.688 -24,4 7.924,-2.325 15.924,-4.658 24,-7 0.182,-2.091 -0.152,-4.091 -1,-6 -1.223,-1.114 -2.556,-1.281 -4,-0.5 -14.55,6.52 -29.217,12.853 -44,19 -1.206,1.018 -0.873,1.518 1,1.5 6.891,-2.408 13.891,-4.408 21,-6 -1.44,2.449 -3.44,4.115 -6,5 -8.221,0.895 -16.221,2.395 -24,4.5 0.325,-4.538 1.325,-8.705 3,-12.5 -0.992,3.279 -1.159,6.612 -0.5,10 1.873,-2.209 4.04,-4.042 6.5,-5.5 15.118,-5.932 30.118,-12.265 45,-19 0.559,-0.725 0.892,-1.558 1,-2.5 -1.215,-5.871 -2.881,-11.537 -5,-17 -15.363,11.009 -30.696,22.009 -46,33 0.572,-1.755 1.406,-3.422 2.5,-5 3.358,-2.531 6.524,-5.198 9.5,-8 4.997,-2.465 9.664,-5.632 14,-9.5 4.815,-1.401 8.482,-4.234 11,-8.5 11.079,-1.947 13.912,-7.947 8.5,-18 -1,-8.333 -2,-16.667 -3,-25 0.134,-17.9 -0.7,-35.567 -2.5,-53 0,-1.667 0,-3.333 0,-5 -8.007,-0.166 -16.007,0 -24,0.5 -1.333,1.333 -1.333,2.667 0,4 7.659,0.5 15.326,0.666 23,0.5 -5.574,1.953 -11.574,2.62 -18,2 -0.065,2.196 -0.732,4.196 -2,6 -2,-2 -4,-4 -6,-6 -2.28,0.636 -4.28,1.636 -6,3 -0.333,0 -0.667,0 -1,0 -1.699,-0.16 -3.366,0.006 -5,0.5 -1.389,1.957 -2.889,3.79 -4.5,5.5 -5.31,-1.841 -10.81,-2.508 -16.5,-2 -1.72,1.364 -3.72,2.364 -6,3 -0.927,1.613 -1.761,3.279 -2.5,5 -3.073,-1.117 -6.24,-1.284 -9.5,-0.5 -7.34,2.164 -14.674,3.997 -22,5.5 5.104,-2.289 10.438,-4.289 16,-6 -0.154,-5.011 2.179,-8.178 7,-9.5 12.473,-3.935 24.806,-8.269 37,-13 5.205,-1.153 7.538,1.013 7,6.5 1.667,0 3.333,0 5,0 0.165,-2.327 0.831,-4.493 2,-6.5 8.66,-0.5 17.327,-0.666 26,-0.5 0.167,-13.671 0,-27.337 -0.5,-41 -5.747,4.459 -11.914,8.293 -18.5,11.5 -33.126,17.064 -66.126,34.397 -99,52 -3.356,0.215 -6.689,0.215 -10,0 -4.16,4.208 -6.16,9.375 -6,15.5 11.055,-2.796 22.055,-5.796 33,-9 -10.314,6.416 -21.647,9.75 -34,10 -0.51,-5.572 0.323,-10.905 2.5,-16 1.129,-1.641 2.629,-2.641 4.5,-3 1.667,0 3.333,0 5,0 1.101,1.098 2.434,1.265 4,0.5 29.175,-15.755 58.508,-31.255 88,-46.5 1.333,-1.333 1.333,-2.667 0,-4 -4.201,2.6 -8.534,4.934 -13,7 1.523,-1.824 2.523,-3.99 3,-6.5 -2.421,-10.112 -2.588,-20.279 -0.5,-30.5 0.833,-0.833 1.667,-1.667 2.5,-2.5 5,-0.667 10,-0.667 15,0 1.139,1.78 2.139,3.614 3,5.5 -6.342,-0.166 -12.675,0 -19,0.5 -2.909,8.936 -2.576,17.769 1,26.5 1.248,-0.54 2.415,-1.207 3.5,-2 0.088,-6.11 0.755,-12.11 2,-18 1.808,-2.058 3.975,-2.392 6.5,-1 -0.327,4.714 0.007,9.38 1,14 1.832,-0.748 3.499,-1.748 5,-3 0.995,-5.628 1.329,-11.294 1,-17 0.69,4.733 1.356,9.566 2,14.5 2.757,0.584 5.423,0.25 8,-1 0.752,-0.671 1.086,-1.504 1,-2.5 0.333,-0.667 0.667,-1.333 1,-2 1,-0.667 2,-1.333 3,-2 3.312,-0.586 5.146,-2.586 5.5,-6 0.641,-22.712 1.808,-45.379 3.5,-68 0.617,0.111 1.117,0.444 1.5,1 1.466,-3.529 2.466,-7.195 3,-11 3.303,-4.275 5.803,-8.942 7.5,-14 3.523,-1.009 7.023,-1.009 10.5,0 2.508,2.376 5.008,4.709 7.5,7 z"
         id="path236" />
    </g>
    <g
       id="g237"
       style="clip-rule:evenodd;fill-rule:evenodd;image-rendering:optimizeQuality;shape-rendering:geometricPrecision;text-rendering:geometricPrecision"
       transform="matrix(0.26458333,0,0,0.26458333,-172.4371,-103.3901)">
      <path
         style="opacity:1"
         fill="#d73b33"
         d="m 750.5,588.5 c -6.882,1.763 -13.715,3.763 -20.5,6 -0.5,-0.333 -1,-0.667 -1.5,-1 0.813,-1.314 1.813,-2.481 3,-3.5 12.821,-5.386 25.821,-10.386 39,-15 3.458,-0.676 5.458,0.824 6,4.5 -8.744,3.025 -17.411,6.025 -26,9 z"
         id="path237" />
    </g>
    <g
       id="g238"
       style="clip-rule:evenodd;fill-rule:evenodd;image-rendering:optimizeQuality;shape-rendering:geometricPrecision;text-rendering:geometricPrecision"
       transform="matrix(0.26458333,0,0,0.26458333,-172.4371,-103.3901)">
      <path
         style="opacity:1"
         fill="#d43732"
         d="m 881.5,578.5 c -0.709,0.904 -1.709,1.237 -3,1 -7.667,0 -15.333,0 -23,0 0,-1.667 0,-3.333 0,-5 8.333,0 16.667,0 25,0 -0.067,1.459 0.266,2.792 1,4 z"
         id="path238" />
    </g>
    <g
       id="g239"
       style="clip-rule:evenodd;fill-rule:evenodd;image-rendering:optimizeQuality;shape-rendering:geometricPrecision;text-rendering:geometricPrecision"
       transform="matrix(0.26458333,0,0,0.26458333,-172.4371,-103.3901)">
      <path
         style="opacity:1"
         fill="#d73933"
         d="m 810.5,579.5 c -0.333,0 -0.667,0 -1,0 -7.674,0.166 -15.341,0 -23,-0.5 -1.333,-1.333 -1.333,-2.667 0,-4 7.993,-0.5 15.993,-0.666 24,-0.5 0,1.667 0,3.333 0,5 z"
         id="path239" />
    </g>
    <g
       id="g240"
       style="clip-rule:evenodd;fill-rule:evenodd;image-rendering:optimizeQuality;shape-rendering:geometricPrecision;text-rendering:geometricPrecision"
       transform="matrix(0.26458333,0,0,0.26458333,-172.4371,-103.3901)">
      <path
         style="opacity:1"
         fill="#da3931"
         d="m 837.5,448.5 c 0.545,2.093 1.378,4.093 2.5,6 2.026,-0.519 4.026,-0.853 6,-1 0.852,1.071 1.685,2.071 2.5,3 0.164,2.687 -0.003,5.354 -0.5,8 -0.333,-0.333 -0.667,-0.667 -1,-1 -0.465,1.431 -1.299,2.597 -2.5,3.5 1.238,2.618 1.238,5.285 0,8 0.475,1.763 1.142,3.43 2,5 -0.333,0.333 -0.667,0.667 -1,1 1.293,0.49 2.627,0.657 4,0.5 1.316,12.125 1.316,24.125 0,36 1.877,8.53 2.544,17.197 2,26 -3.189,-2.098 -5.855,-4.931 -8,-8.5 -2.018,-0.505 -4.018,-1.005 -6,-1.5 -11.322,-0.353 -17.989,4.98 -20,16 1.91,9.984 6.577,18.484 14,25.5 1,0.667 2,0.667 3,0 2.567,-2.396 4.9,-4.896 7,-7.5 2.639,-2.312 4.973,-4.979 7,-8 1.471,0.881 2.304,2.214 2.5,4 0.843,21.022 0.509,42.022 -1,63 -0.667,1.333 -1.333,1.333 -2,0 -0.684,1.284 -0.517,2.451 0.5,3.5 -1.965,1.565 -4.131,2.732 -6.5,3.5 0.263,1.451 0.096,2.784 -0.5,4 -1.216,0.502 -2.383,0.835 -3.5,1 -0.417,-1.256 -1.25,-1.923 -2.5,-2 -0.025,-2.679 -1.358,-4.012 -4,-4 -3.611,23.938 -3.944,47.938 -1,72 0.087,3.098 -0.413,3.432 -1.5,1 -5.006,-20.198 -9.173,-40.531 -12.5,-61 3.393,0.125 4.726,-1.542 4,-5 -0.015,-2.134 -0.515,-4.134 -1.5,-6 -1.113,-1.211 -2.28,-1.211 -3.5,0 -1,-52.329 -1.333,-104.662 -1,-157 4.241,0.591 5.907,-1.242 5,-5.5 0.783,-3.594 -0.55,-5.427 -4,-5.5 -0.202,-4.928 0.798,-9.594 3,-14 1.111,1.111 2.445,1.778 4,2 3.046,-3.048 6.38,-5.715 10,-8 2.192,0.257 3.859,1.257 5,3 z"
         id="path240" />
    </g>
    <g
       id="g241"
       style="clip-rule:evenodd;fill-rule:evenodd;image-rendering:optimizeQuality;shape-rendering:geometricPrecision;text-rendering:geometricPrecision"
       transform="matrix(0.26458333,0,0,0.26458333,-172.4371,-103.3901)">
      <path
         style="opacity:1"
         fill="#d83931"
         d="m 710.5,601.5 c -0.333,0 -0.667,0 -1,0 -10.945,3.204 -21.945,6.204 -33,9 -0.16,-6.125 1.84,-11.292 6,-15.5 3.311,0.215 6.644,0.215 10,0 32.874,-17.603 65.874,-34.936 99,-52 6.586,-3.207 12.753,-7.041 18.5,-11.5 0.5,13.663 0.667,27.329 0.5,41 -8.673,-0.166 -17.34,0 -26,0.5 -1.169,2.007 -1.835,4.173 -2,6.5 -1.667,0 -3.333,0 -5,0 0.538,-5.487 -1.795,-7.653 -7,-6.5 -12.194,4.731 -24.527,9.065 -37,13 -4.821,1.322 -7.154,4.489 -7,9.5 -5.562,1.711 -10.896,3.711 -16,6 z"
         id="path241" />
    </g>
    <g
       id="g242"
       style="clip-rule:evenodd;fill-rule:evenodd;image-rendering:optimizeQuality;shape-rendering:geometricPrecision;text-rendering:geometricPrecision"
       transform="matrix(0.26458333,0,0,0.26458333,-172.4371,-103.3901)">
      <path
         style="opacity:1"
         fill="#8d1d1a"
         d="m 837.5,533.5 c 3.928,2.092 7.094,5.092 9.5,9 0.667,4.667 0.667,9.333 0,14 -1.86,3.72 -3.693,7.386 -5.5,11 -2.1,2.604 -4.433,5.104 -7,7.5 -1,0.667 -2,0.667 -3,0 -7.423,-7.016 -12.09,-15.516 -14,-25.5 2.011,-11.02 8.678,-16.353 20,-16 z"
         id="path242" />
    </g>
    <g
       id="g243"
       style="clip-rule:evenodd;fill-rule:evenodd;image-rendering:optimizeQuality;shape-rendering:geometricPrecision;text-rendering:geometricPrecision"
       transform="matrix(0.26458333,0,0,0.26458333,-172.4371,-103.3901)">
      <path
         style="opacity:1"
         fill="#a14141"
         d="m 828.5,536.5 c 15.227,-0.592 20.394,6.408 15.5,21 -2.679,6.029 -6.346,11.362 -11,16 -7.301,-6.457 -11.801,-14.457 -13.5,-24 1.031,-5.698 4.031,-10.031 9,-13 z"
         id="path243" />
    </g>
    <g
       id="g244"
       style="clip-rule:evenodd;fill-rule:evenodd;image-rendering:optimizeQuality;shape-rendering:geometricPrecision;text-rendering:geometricPrecision"
       transform="matrix(0.26458333,0,0,0.26458333,-172.4371,-103.3901)">
      <path
         style="opacity:1"
         fill="#752826"
         d="m 829.5,543.5 c 5.206,-1.38 8.206,0.453 9,5.5 -2.837,6.696 -6.671,7.196 -11.5,1.5 -0.317,-2.707 0.516,-5.04 2.5,-7 z"
         id="path244" />
    </g>
    <g
       id="g245"
       style="clip-rule:evenodd;fill-rule:evenodd;image-rendering:optimizeQuality;shape-rendering:geometricPrecision;text-rendering:geometricPrecision"
       transform="matrix(0.26458333,0,0,0.26458333,-172.4371,-103.3901)">
      <path
         style="opacity:1"
         fill="#f1d6d5"
         d="m 830.5,545.5 c 6.055,-0.558 7.388,1.609 4,6.5 -4.709,0.082 -6.042,-2.085 -4,-6.5 z"
         id="path245" />
    </g>
    <g
       id="g246"
       style="clip-rule:evenodd;fill-rule:evenodd;image-rendering:optimizeQuality;shape-rendering:geometricPrecision;text-rendering:geometricPrecision"
       transform="matrix(0.26458333,0,0,0.26458333,-172.4371,-103.3901)">
      <path
         style="opacity:1"
         fill="#ec6961"
         d="m 863.5,529.5 c 1.014,1.174 2.347,1.84 4,2 4.278,3.145 8.945,5.812 14,8 1.333,1.333 1.333,2.667 0,4 -8.737,-3.782 -16.903,-8.448 -24.5,-14 -0.788,-1.665 -1.122,-3.331 -1,-5 2.128,2.308 4.628,3.974 7.5,5 z"
         id="path246" />
    </g>
    <g
       id="g247"
       style="clip-rule:evenodd;fill-rule:evenodd;image-rendering:optimizeQuality;shape-rendering:geometricPrecision;text-rendering:geometricPrecision"
       transform="matrix(0.26458333,0,0,0.26458333,-172.4371,-103.3901)">
      <path
         style="opacity:1"
         fill="#ec6962"
         d="m 809.5,523.5 c 1.262,3.367 0.262,6.2 -3,8.5 -7.452,4.393 -15.119,8.226 -23,11.5 -0.203,-1.89 0.463,-3.39 2,-4.5 5.825,-2.745 11.492,-5.745 17,-9 2.831,-1.666 5.164,-3.832 7,-6.5 z"
         id="path247" />
    </g>
    <g
       id="g248"
       style="clip-rule:evenodd;fill-rule:evenodd;image-rendering:optimizeQuality;shape-rendering:geometricPrecision;text-rendering:geometricPrecision"
       transform="matrix(0.26458333,0,0,0.26458333,-172.4371,-103.3901)">
      <path
         style="opacity:1"
         fill="#d73a32"
         d="m 789.5,515.5 c 0.333,0 0.667,0 1,0 0.329,5.706 -0.005,11.372 -1,17 -1.501,1.252 -3.168,2.252 -5,3 -0.993,-4.62 -1.327,-9.286 -1,-14 -2.525,-1.392 -4.692,-1.058 -6.5,1 -1.245,5.89 -1.912,11.89 -2,18 -1.085,0.793 -2.252,1.46 -3.5,2 -3.576,-8.731 -3.909,-17.564 -1,-26.5 6.325,-0.5 12.658,-0.666 19,-0.5 z"
         id="path248" />
    </g>
    <g
       id="g249"
       style="clip-rule:evenodd;fill-rule:evenodd;image-rendering:optimizeQuality;shape-rendering:geometricPrecision;text-rendering:geometricPrecision"
       transform="matrix(0.26458333,0,0,0.26458333,-172.4371,-103.3901)">
      <path
         style="opacity:1"
         fill="#efd0cf"
         d="m 793.5,513.5 c 0.824,3.812 1.324,7.812 1.5,12 0.414,0.457 0.914,0.791 1.5,1 1.679,-1.604 3.679,-2.271 6,-2 -0.333,0.667 -0.667,1.333 -1,2 -2.428,0.712 -4.761,1.712 -7,3 -0.995,-5.292 -1.328,-10.625 -1,-16 z"
         id="path249" />
    </g>
    <g
       id="g250"
       style="clip-rule:evenodd;fill-rule:evenodd;image-rendering:optimizeQuality;shape-rendering:geometricPrecision;text-rendering:geometricPrecision"
       transform="matrix(0.26458333,0,0,0.26458333,-172.4371,-103.3901)">
      <path
         style="opacity:1"
         fill="#e65f59"
         d="m 815.5,467.5 c 1.193,0.47 1.86,1.47 2,3 0.158,1.819 -0.509,3.152 -2,4 -0.863,-2.271 -0.863,-4.605 0,-7 z"
         id="path250" />
    </g>
    <g
       id="g251"
       style="clip-rule:evenodd;fill-rule:evenodd;image-rendering:optimizeQuality;shape-rendering:geometricPrecision;text-rendering:geometricPrecision"
       transform="matrix(0.26458333,0,0,0.26458333,-172.4371,-103.3901)">
      <path
         style="opacity:1"
         fill="#d23d33"
         d="m 848.5,456.5 c -0.815,-0.929 -1.648,-1.929 -2.5,-3 -1.974,0.147 -3.974,0.481 -6,1 -1.122,-1.907 -1.955,-3.907 -2.5,-6 1.337,0.815 2.337,1.982 3,3.5 1.667,0.667 3.333,0.667 5,0 0.693,-5.211 -1.307,-9.211 -6,-12 -6.232,-2.579 -11.899,-1.746 -17,2.5 -0.445,-6.798 2.221,-12.298 8,-16.5 4.053,-0.559 7.22,0.941 9.5,4.5 4.553,8.159 7.387,16.825 8.5,26 z"
         id="path251" />
    </g>
    <g
       id="g252"
       style="clip-rule:evenodd;fill-rule:evenodd;image-rendering:optimizeQuality;shape-rendering:geometricPrecision;text-rendering:geometricPrecision"
       transform="matrix(0.26458333,0,0,0.26458333,-172.4371,-103.3901)">
      <path
         style="opacity:1"
         fill="#d93930"
         d="m 983.5,594.5 c 1.188,0.864 2.355,1.864 3.5,3 1.631,4.188 2.464,8.521 2.5,13 -3.697,-0.508 -7.364,-1.174 -11,-2 -6.584,-3.306 -13.584,-5.639 -21,-7 -5.198,-1.9 -10.532,-3.734 -16,-5.5 -0.899,-2.192 -1.899,-4.358 -3,-6.5 -13.959,-6.377 -28.292,-11.877 -43,-16.5 -1.759,-0.798 -3.426,-0.631 -5,0.5 -1.043,2.349 -2.376,4.349 -4,6 -1.459,0.067 -2.792,-0.266 -4,-1 0.143,-1.762 -0.191,-3.429 -1,-5 -8.641,-0.998 -17.308,-1.331 -26,-1 -0.167,-13.671 0,-27.337 0.5,-41 16.117,9.307 32.284,18.474 48.5,27.5 23.48,11.408 46.813,23.408 70,36 3.055,0.634 6.055,0.468 9,-0.5 z"
         id="path252" />
    </g>
    <g
       id="g253"
       style="clip-rule:evenodd;fill-rule:evenodd;image-rendering:optimizeQuality;shape-rendering:geometricPrecision;text-rendering:geometricPrecision"
       transform="matrix(0.26458333,0,0,0.26458333,-172.4371,-103.3901)">
      <path
         style="opacity:1"
         fill="#d13731"
         d="m 933.5,593.5 c -12.003,-3.56 -24.003,-6.893 -36,-10 -2.401,-1.039 -4.735,-2.373 -7,-4 0.366,-2.34 1.533,-4.007 3.5,-5 13.466,4.986 26.966,9.819 40.5,14.5 4.365,3.633 4.031,5.133 -1,4.5 z"
         id="path253" />
    </g>
    <g
       id="g256"
       style="clip-rule:evenodd;fill-rule:evenodd;image-rendering:optimizeQuality;shape-rendering:geometricPrecision;text-rendering:geometricPrecision"
       transform="matrix(0.26458333,0,0,0.26458333,-172.4371,-103.3901)">
      <path
         style="opacity:1"
         fill="#f9dedd"
         d="m 809.5,615.5 c -0.994,-9.819 -1.327,-19.819 -1,-30 -4.06,-0.015 -8.06,0.485 -12,1.5 -1.473,0.71 -2.14,1.876 -2,3.5 -1,0 -2,0 -3,0 1.23,-1.797 1.896,-3.797 2,-6 5.333,0 10.667,0 16,0 0,10.333 0,20.667 0,31 z"
         id="path256" />
    </g>
    <g
       id="g257"
       style="clip-rule:evenodd;fill-rule:evenodd;image-rendering:optimizeQuality;shape-rendering:geometricPrecision;text-rendering:geometricPrecision"
       transform="matrix(0.26458333,0,0,0.26458333,-172.4371,-103.3901)">
      <path
         style="opacity:1"
         fill="#82342f"
         d="m 881.5,585.5 c -0.442,4.685 -2.776,6.018 -7,4 -0.363,-0.683 -0.696,-1.35 -1,-2 2.951,0.213 5.618,-0.454 8,-2 z"
         id="path257" />
    </g>
    <g
       id="g259"
       style="clip-rule:evenodd;fill-rule:evenodd;image-rendering:optimizeQuality;shape-rendering:geometricPrecision;text-rendering:geometricPrecision"
       transform="matrix(0.26458333,0,0,0.26458333,-172.4371,-103.3901)">
      <path
         style="opacity:1"
         fill="#9d241f"
         d="m 790.5,515.5 c -0.333,0 -0.667,0 -1,0 -0.861,-1.886 -1.861,-3.72 -3,-5.5 -5,-0.667 -10,-0.667 -15,0 -0.833,0.833 -1.667,1.667 -2.5,2.5 -2.088,10.221 -1.921,20.388 0.5,30.5 -0.477,2.51 -1.477,4.676 -3,6.5 -26.173,14.587 -52.507,28.921 -79,43 -1.667,0 -3.333,0 -5,0 0.333,-0.667 0.667,-1.333 1,-2 5.644,-2.152 11.31,-4.319 17,-6.5 2.868,-2.589 5.868,-4.922 9,-7 3.115,-0.541 5.448,-2.041 7,-4.5 4.089,-1.209 8.089,-2.709 12,-4.5 8.713,-4.805 17.38,-9.805 26,-15 6.37,-1.048 11.036,-4.381 14,-10 -0.025,-1.876 -0.691,-3.376 -2,-4.5 0,-0.333 0,-0.667 0,-1 -0.166,-8.34 0,-16.673 0.5,-25 1.637,-2.31 3.804,-3.81 6.5,-4.5 5.028,-0.588 10.028,-0.422 15,0.5 0.667,2.333 1.333,4.667 2,7 z"
         id="path259" />
    </g>
    <g
       id="g260"
       style="clip-rule:evenodd;fill-rule:evenodd;image-rendering:optimizeQuality;shape-rendering:geometricPrecision;text-rendering:geometricPrecision"
       transform="matrix(0.26458333,0,0,0.26458333,-172.4371,-103.3901)">
      <path
         style="opacity:1"
         fill="#922723"
         d="m 881.5,578.5 c 0.333,0 0.667,0 1,0 1.208,0.734 2.541,1.067 4,1 1.749,1.756 3.749,3.089 6,4 -3.542,-0.313 -6.875,0.021 -10,1 0,0.667 -0.333,1 -1,1 -2.382,1.546 -5.049,2.213 -8,2 0,-0.333 0,-0.667 0,-1 0,-1 0,-2 0,-3 -5.858,-0.322 -11.525,0.011 -17,1 0.956,27.243 -1.044,54.243 -6,81 0.333,1.333 0.667,2.667 1,4 7.99,5.337 15.657,11.004 23,17 -0.149,1.052 0.017,2.052 0.5,3 5.66,2.391 10.16,6.058 13.5,11 -9.617,-6.286 -18.95,-12.953 -28,-20 -3.641,-3.806 -7.474,-7.473 -11.5,-11 0.013,-6.318 0.179,-12.651 0.5,-19 0.734,-1.378 1.401,-2.878 2,-4.5 -0.957,-4.251 -0.457,-8.417 1.5,-12.5 0.333,-16.333 0.667,-32.667 1,-49 1.514,-2.266 3.681,-3.432 6.5,-3.5 6.181,-0.172 12.181,-0.672 18,-1.5 1.291,0.237 2.291,-0.096 3,-1 z"
         id="path260" />
    </g>
    <g
       id="g261"
       style="clip-rule:evenodd;fill-rule:evenodd;image-rendering:optimizeQuality;shape-rendering:geometricPrecision;text-rendering:geometricPrecision"
       transform="matrix(0.26458333,0,0,0.26458333,-172.4371,-103.3901)">
      <path
         style="opacity:1"
         fill="#995757"
         d="m 856.5,584.5 c 5.475,-0.989 11.142,-1.322 17,-1 0,1 0,2 0,3 -5.37,-1.879 -11.037,-2.545 -17,-2 z"
         id="path261" />
    </g>
    <g
       id="g262"
       style="clip-rule:evenodd;fill-rule:evenodd;image-rendering:optimizeQuality;shape-rendering:geometricPrecision;text-rendering:geometricPrecision"
       transform="matrix(0.26458333,0,0,0.26458333,-172.4371,-103.3901)">
      <path
         style="opacity:1"
         fill="#9e211c"
         d="m 897.5,583.5 c 11.997,3.107 23.997,6.44 36,10 0.333,0.667 0.667,1.333 1,2 -2.333,0 -4.667,0 -7,0 0,1 0,2 0,3 -1.373,0.157 -2.707,-0.01 -4,-0.5 -0.556,-2.237 -1.556,-4.237 -3,-6 -4.443,-0.528 -8.777,-1.528 -13,-3 0.667,-0.333 1.333,-0.667 2,-1 -3.062,-0.741 -6.062,-0.575 -9,0.5 -1.821,-1.228 -2.821,-2.894 -3,-5 z"
         id="path262" />
    </g>
    <g
       id="g263"
       style="clip-rule:evenodd;fill-rule:evenodd;image-rendering:optimizeQuality;shape-rendering:geometricPrecision;text-rendering:geometricPrecision"
       transform="matrix(0.26458333,0,0,0.26458333,-172.4371,-103.3901)">
      <path
         style="opacity:1"
         fill="#8e2c28"
         d="m 776.5,584.5 c -1.109,0.79 -2.442,1.29 -4,1.5 -1.286,2.022 -2.286,4.189 -3,6.5 -3.643,1.895 -5.643,0.895 -6,-3 -5.831,0.775 -11.498,2.275 -17,4.5 -0.698,2.454 -1.698,4.787 -3,7 -3.031,1.075 -5.031,0.075 -6,-3 -1.667,-0.667 -3.333,-0.667 -5,0 -19.577,5.97 -39.077,12.137 -58.5,18.5 -1.992,-0.729 -2.826,-2.229 -2.5,-4.5 0.773,-4.927 1.94,-9.76 3.5,-14.5 1.805,-3.643 4.638,-5.976 8.5,-7 -0.333,0.667 -0.667,1.333 -1,2 -1.871,0.359 -3.371,1.359 -4.5,3 -2.177,5.095 -3.01,10.428 -2.5,16 12.353,-0.25 23.686,-3.584 34,-10 0.333,0 0.667,0 1,0 7.326,-1.503 14.66,-3.336 22,-5.5 3.26,-0.784 6.427,-0.617 9.5,0.5 0.739,-1.721 1.573,-3.387 2.5,-5 2.28,-0.636 4.28,-1.636 6,-3 5.69,-0.508 11.19,0.159 16.5,2 1.611,-1.71 3.111,-3.543 4.5,-5.5 1.634,-0.494 3.301,-0.66 5,-0.5 z"
         id="path263" />
    </g>
    <g
       id="g266"
       style="clip-rule:evenodd;fill-rule:evenodd;image-rendering:optimizeQuality;shape-rendering:geometricPrecision;text-rendering:geometricPrecision"
       transform="matrix(0.26458333,0,0,0.26458333,-172.4371,-103.3901)">
      <path
         style="opacity:1"
         fill="#913a33"
         d="m 882.5,584.5 c 3.125,-0.979 6.458,-1.313 10,-1 1.667,0 3.333,0 5,0 0.179,2.106 1.179,3.772 3,5 2.938,-1.075 5.938,-1.241 9,-0.5 -0.667,0.333 -1.333,0.667 -2,1 4.223,1.472 8.557,2.472 13,3 1.444,1.763 2.444,3.763 3,6 1.293,0.49 2.627,0.657 4,0.5 0,-1 0,-2 0,-3 2.333,0 4.667,0 7,0 1.685,2.318 4.019,3.318 7,3 3.31,1.104 6.31,2.771 9,5 -6.326,-1.998 -12.66,-3.998 -19,-6 -2.069,0.285 -3.402,1.452 -4,3.5 -1.333,0.667 -2.667,0.667 -4,0 -1.212,-2.423 -2.546,-4.756 -4,-7 -4.894,-1.298 -9.727,-2.798 -14.5,-4.5 -1.258,1.858 -2.925,3.192 -5,4 -0.833,-0.333 -1.667,-0.667 -2.5,-1 -0.523,-2.433 -1.69,-4.433 -3.5,-6 -3.717,-1.369 -7.55,-2.036 -11.5,-2 z"
         id="path266" />
    </g>
    <g
       id="g267"
       style="clip-rule:evenodd;fill-rule:evenodd;image-rendering:optimizeQuality;shape-rendering:geometricPrecision;text-rendering:geometricPrecision"
       transform="matrix(0.26458333,0,0,0.26458333,-172.4371,-103.3901)">
      <path
         style="opacity:1"
         fill="#9a201e"
         d="m 941.5,598.5 c 5.254,1.418 10.587,2.418 16,3 7.416,1.361 14.416,3.694 21,7 -7.563,-1.65 -15.23,-2.983 -23,-4 -1.617,-0.538 -3.284,-0.871 -5,-1 -2.69,-2.229 -5.69,-3.896 -9,-5 z"
         id="path267" />
    </g>
    <g
       id="g274"
       style="clip-rule:evenodd;fill-rule:evenodd;image-rendering:optimizeQuality;shape-rendering:geometricPrecision;text-rendering:geometricPrecision"
       transform="matrix(0.26458333,0,0,0.26458333,-172.4371,-103.3901)">
      <path
         style="opacity:1"
         fill="#8a322d"
         d="m 986.5,592.5 c 2.76,1.595 4.593,3.928 5.5,7 0.913,4.153 1.747,8.32 2.5,12.5 0.396,3.939 -1.271,5.272 -5,4 -11.49,-3.774 -22.823,-7.607 -34,-11.5 7.77,1.017 15.437,2.35 23,4 3.903,2.398 8.236,3.731 13,4 -0.252,-5.019 -0.752,-10.019 -1.5,-15 -1.802,-1.289 -2.969,-2.956 -3.5,-5 z"
         id="path274" />
    </g>
    <g
       id="g283"
       style="clip-rule:evenodd;fill-rule:evenodd;image-rendering:optimizeQuality;shape-rendering:geometricPrecision;text-rendering:geometricPrecision"
       transform="matrix(0.26458333,0,0,0.26458333,-172.4371,-103.3901)">
      <path
         style="opacity:1"
         fill="#ebc5c2"
         d="m 809.5,619.5 c 1.321,13.235 2.988,26.568 5,40 -0.722,0.418 -1.222,1.084 -1.5,2 -1.936,-13.946 -3.103,-27.946 -3.5,-42 z"
         id="path283" />
    </g>
    <g
       id="g290"
       style="clip-rule:evenodd;fill-rule:evenodd;image-rendering:optimizeQuality;shape-rendering:geometricPrecision;text-rendering:geometricPrecision"
       transform="matrix(0.26458333,0,0,0.26458333,-172.4371,-103.3901)">
      <path
         style="opacity:1"
         fill="#ae1f18"
         d="m 835.5,636.5 c 2.56,23.61 2.56,47.277 0,71 -0.667,0 -1,-0.333 -1,-1 0.206,-12.668 0.54,-25.335 1,-38 0.206,-10.856 -0.628,-21.522 -2.5,-32 -2.831,22.606 -3.331,45.273 -1.5,68 -0.333,0 -0.667,0 -1,0 -2.944,-24.062 -2.611,-48.062 1,-72 2.642,-0.012 3.975,1.321 4,4 z"
         id="path290" />
    </g>
    <g
       id="g295"
       style="clip-rule:evenodd;fill-rule:evenodd;image-rendering:optimizeQuality;shape-rendering:geometricPrecision;text-rendering:geometricPrecision"
       transform="matrix(0.26458333,0,0,0.26458333,-172.4371,-103.3901)">
      <path
         style="opacity:1"
         fill="#8b2b27"
         d="m 809.5,579.5 c 0.333,0 0.667,0 1,0 1.8,17.433 2.634,35.1 2.5,53 1,8.333 2,16.667 3,25 5.412,10.053 2.579,16.053 -8.5,18 2.98,-2.644 5.98,-5.311 9,-8 -0.567,-2.482 -1.234,-4.816 -2,-7 0,-0.333 0,-0.667 0,-1 -2.012,-13.432 -3.679,-26.765 -5,-40 0,-1.333 0,-2.667 0,-4 0,-10.333 0,-20.667 0,-31 -5.333,0 -10.667,0 -16,0 -0.104,2.203 -0.77,4.203 -2,6 -1.373,0.157 -2.707,-0.01 -4,-0.5 -1.487,-4.976 -4.82,-6.809 -10,-5.5 1.72,-1.364 3.72,-2.364 6,-3 2,2 4,4 6,6 1.268,-1.804 1.935,-3.804 2,-6 6.426,0.62 12.426,-0.047 18,-2 z"
         id="path295" />
    </g>
    <g
       id="g299"
       style="clip-rule:evenodd;fill-rule:evenodd;image-rendering:optimizeQuality;shape-rendering:geometricPrecision;text-rendering:geometricPrecision"
       transform="matrix(0.26458333,0,0,0.26458333,-172.4371,-103.3901)">
      <path
         style="opacity:1"
         fill="#d33d36"
         d="m 834.5,706.5 c -1.623,0.991 -2.623,0.324 -3,-2 -1.831,-22.727 -1.331,-45.394 1.5,-68 1.872,10.478 2.706,21.144 2.5,32 -0.46,12.665 -0.794,25.332 -1,38 z"
         id="path299" />
    </g>
    <g
       id="g302"
       style="clip-rule:evenodd;fill-rule:evenodd;image-rendering:optimizeQuality;shape-rendering:geometricPrecision;text-rendering:geometricPrecision"
       transform="matrix(0.26458333,0,0,0.26458333,-172.4371,-103.3901)">
      <path
         style="opacity:1"
         fill="#f3d3d3"
         d="m 814.5,660.5 c 0.766,2.184 1.433,4.518 2,7 -3.02,2.689 -6.02,5.356 -9,8 -4.473,2.405 -8.806,5.071 -13,8 -0.219,-1.175 0.114,-2.175 1,-3 6.275,-3.612 12.275,-7.612 18,-12 0.98,-2.586 1.313,-5.253 1,-8 z"
         id="path302" />
    </g>
    <g
       id="g305"
       style="clip-rule:evenodd;fill-rule:evenodd;image-rendering:optimizeQuality;shape-rendering:geometricPrecision;text-rendering:geometricPrecision"
       transform="matrix(0.26458333,0,0,0.26458333,-172.4371,-103.3901)">
      <path
         style="opacity:1"
         fill="#d23a32"
         d="m 848.5,456.5 c 0.658,1.293 0.992,2.793 1,4.5 -1.687,3.233 -2.687,6.733 -3,10.5 0.333,1.667 0.667,3.333 1,5 1.347,-10.493 2.847,-10.493 4.5,0 0.773,52.341 0.606,104.674 -0.5,157 -1.667,0 -3.333,0 -5,0 0,3.667 0,7.333 0,11 1,0 2,0 3,0 0,2 0,4 0,6 -3.996,19.66 -8.496,39.327 -13.5,59 -0.464,-0.594 -0.631,-1.261 -0.5,-2 2.56,-23.723 2.56,-47.39 0,-71 1.25,0.077 2.083,0.744 2.5,2 1.117,-0.165 2.284,-0.498 3.5,-1 0.596,-1.216 0.763,-2.549 0.5,-4 2.369,-0.768 4.535,-1.935 6.5,-3.5 -1.017,-1.049 -1.184,-2.216 -0.5,-3.5 0.667,1.333 1.333,1.333 2,0 1.509,-20.978 1.843,-41.978 1,-63 -0.196,-1.786 -1.029,-3.119 -2.5,-4 -2.027,3.021 -4.361,5.688 -7,8 1.807,-3.614 3.64,-7.28 5.5,-11 0.667,-4.667 0.667,-9.333 0,-14 -2.406,-3.908 -5.572,-6.908 -9.5,-9 1.982,0.495 3.982,0.995 6,1.5 2.145,3.569 4.811,6.402 8,8.5 0.544,-8.803 -0.123,-17.47 -2,-26 1.316,-11.875 1.316,-23.875 0,-36 -1.373,0.157 -2.707,-0.01 -4,-0.5 0.333,-0.333 0.667,-0.667 1,-1 -0.858,-1.57 -1.525,-3.237 -2,-5 1.238,-2.715 1.238,-5.382 0,-8 1.201,-0.903 2.035,-2.069 2.5,-3.5 0.333,0.333 0.667,0.667 1,1 0.497,-2.646 0.664,-5.313 0.5,-8 z"
         id="path305" />
    </g>
    <g
       id="g337"
       style="clip-rule:evenodd;fill-rule:evenodd;image-rendering:optimizeQuality;shape-rendering:geometricPrecision;text-rendering:geometricPrecision"
       transform="matrix(0.26458333,0,0,0.26458333,-172.4371,-103.3901)">
      <path
         style="opacity:1"
         fill="#832d2a"
         d="m 807.5,675.5 c -2.518,4.266 -6.185,7.099 -11,8.5 -4.336,3.868 -9.003,7.035 -14,9.5 3.708,-3.71 7.708,-7.043 12,-10 4.194,-2.929 8.527,-5.595 13,-8 z"
         id="path337" />
    </g>
    <g
       id="g341"
       style="clip-rule:evenodd;fill-rule:evenodd;image-rendering:optimizeQuality;shape-rendering:geometricPrecision;text-rendering:geometricPrecision"
       transform="matrix(0.26458333,0,0,0.26458333,-172.4371,-103.3901)">
      <path
         style="opacity:1"
         fill="#db3b31"
         d="m 769.5,707.5 c 0,-0.667 0.333,-1 1,-1 15.304,-10.991 30.637,-21.991 46,-33 2.119,5.463 3.785,11.129 5,17 -0.108,0.942 -0.441,1.775 -1,2.5 -14.882,6.735 -29.882,13.068 -45,19 -2.46,1.458 -4.627,3.291 -6.5,5.5 -0.659,-3.388 -0.492,-6.721 0.5,-10 z"
         id="path341" />
    </g>
    <g
       id="g346"
       style="clip-rule:evenodd;fill-rule:evenodd;image-rendering:optimizeQuality;shape-rendering:geometricPrecision;text-rendering:geometricPrecision"
       transform="matrix(0.26458333,0,0,0.26458333,-172.4371,-103.3901)">
      <path
         style="opacity:1"
         fill="#d23b33"
         d="m 799.5,709.5 c -0.891,0.61 -1.891,0.943 -3,1 -7.109,1.592 -14.109,3.592 -21,6 -1.873,0.018 -2.206,-0.482 -1,-1.5 14.783,-6.147 29.45,-12.48 44,-19 1.444,-0.781 2.777,-0.614 4,0.5 0.848,1.909 1.182,3.909 1,6 -8.076,2.342 -16.076,4.675 -24,7 z"
         id="path346" />
    </g>
    <g
       id="g347"
       style="clip-rule:evenodd;fill-rule:evenodd;image-rendering:optimizeQuality;shape-rendering:geometricPrecision;text-rendering:geometricPrecision"
       transform="matrix(0.26458333,0,0,0.26458333,-172.4371,-103.3901)">
      <path
         style="opacity:1"
         fill="#d73b32"
         d="m 860.5,680.5 c 9.05,7.047 18.383,13.714 28,20 2.119,-0.032 3.452,0.968 4,3 1.855,1.533 3.688,3.2 5.5,5 0.821,3.054 0.655,6.054 -0.5,9 -1.524,-2.358 -3.524,-4.191 -6,-5.5 -15.449,-6.224 -30.782,-12.724 -46,-19.5 -0.333,-0.667 -0.667,-1.333 -1,-2 1.804,-5.936 3.304,-11.936 4.5,-18 3.437,3.277 7.271,5.943 11.5,8 z"
         id="path347" />
    </g>
    <g
       id="g348"
       style="clip-rule:evenodd;fill-rule:evenodd;image-rendering:optimizeQuality;shape-rendering:geometricPrecision;text-rendering:geometricPrecision"
       transform="matrix(0.26458333,0,0,0.26458333,-172.4371,-103.3901)">
      <path
         style="opacity:1"
         fill="#d13e35"
         d="m 890.5,716.5 c -3.922,-1.252 -7.922,-2.252 -12,-3 -11.575,-3.77 -23.242,-7.604 -35,-11.5 -0.917,-2.548 -0.584,-5.048 1,-7.5 15.218,6.776 30.551,13.276 46,19.5 2.342,1.392 2.342,2.225 0,2.5 z"
         id="path348" />
    </g>
    <g
       id="g351"
       style="clip-rule:evenodd;fill-rule:evenodd;image-rendering:optimizeQuality;shape-rendering:geometricPrecision;text-rendering:geometricPrecision"
       transform="matrix(0.26458333,0,0,0.26458333,-172.4371,-103.3901)">
      <path
         style="opacity:1"
         fill="#8d2f29"
         d="m 823.5,705.5 c -3.491,1.639 -7.157,3.139 -11,4.5 -7.258,2.148 -14.591,3.981 -22,5.5 2.56,-0.885 4.56,-2.551 6,-5 1.109,-0.057 2.109,-0.39 3,-1 8.185,-0.312 16.185,-1.645 24,-4 z"
         id="path351" />
    </g>
    <g
       id="g352"
       style="clip-rule:evenodd;fill-rule:evenodd;image-rendering:optimizeQuality;shape-rendering:geometricPrecision;text-rendering:geometricPrecision"
       transform="matrix(0.26458333,0,0,0.26458333,-172.4371,-103.3901)">
      <path
         style="opacity:1"
         fill="#92322c"
         d="m 874.5,686.5 c 9.907,6.08 19.074,13.08 27.5,21 0.804,5.251 0.637,10.418 -0.5,15.5 -20.019,-4.729 -39.686,-10.563 -59,-17.5 12.127,2.041 24.127,4.708 36,8 4.078,0.748 8.078,1.748 12,3 2.28,1.551 4.78,2.885 7.5,4 0.772,-0.145 1.439,-0.478 2,-1 0.667,-4 0.667,-8 0,-12 -1.846,-2.507 -4.346,-3.841 -7.5,-4 -0.548,-2.032 -1.881,-3.032 -4,-3 -3.34,-4.942 -7.84,-8.609 -13.5,-11 -0.483,-0.948 -0.649,-1.948 -0.5,-3 z"
         id="path352" />
    </g>
    <g
       id="g354"
       style="clip-rule:evenodd;fill-rule:evenodd;image-rendering:optimizeQuality;shape-rendering:geometricPrecision;text-rendering:geometricPrecision"
       transform="matrix(0.26458333,0,0,0.26458333,-172.4371,-103.3901)">
      <path
         style="opacity:1"
         fill="#882c27"
         d="m 782.5,693.5 c -2.976,2.802 -6.142,5.469 -9.5,8 -1.094,1.578 -1.928,3.245 -2.5,5 -0.667,0 -1,0.333 -1,1 -1.675,3.795 -2.675,7.962 -3,12.5 7.779,-2.105 15.779,-3.605 24,-4.5 -7.698,2.734 -15.532,5.4 -23.5,8 -0.772,-0.145 -1.439,-0.478 -2,-1 -0.903,-5.781 -0.57,-11.447 1,-17 4.939,-4.875 10.439,-8.875 16.5,-12 z"
         id="path354" />
    </g>
    <g
       id="g357"
       style="clip-rule:evenodd;fill-rule:evenodd;image-rendering:optimizeQuality;shape-rendering:geometricPrecision;text-rendering:geometricPrecision"
       transform="matrix(0.26458333,0,0,0.26458333,-172.4371,-103.3901)">
      <path
         style="opacity:1"
         fill="#892c2a"
         d="m 840.5,705.5 c -0.85,4.732 -2.016,9.399 -3.5,14 -2.001,4.689 -4.334,5.022 -7,1 -1.477,-3.93 -2.644,-7.93 -3.5,-12 1.98,2.395 3.313,5.229 4,8.5 0.598,1.301 1.598,2.135 3,2.5 2.565,-4.799 4.898,-9.465 7,-14 z"
         id="path357" />
    </g>
  </g>
</svg>
