<?xml version="1.0" encoding="UTF-8" standalone="no"?>
<!-- Created with Inkscape (http://www.inkscape.org/) -->

<svg
   width="96mm"
   height="96mm"
   viewBox="0 0 96 96"
   version="1.1"
   id="svg1"
   inkscape:version="1.4.2 (ebf0e940, 2025-05-08)"
   sodipodi:docname="finish.svg"
   xmlns:inkscape="http://www.inkscape.org/namespaces/inkscape"
   xmlns:sodipodi="http://sodipodi.sourceforge.net/DTD/sodipodi-0.dtd"
   xmlns="http://www.w3.org/2000/svg"
   xmlns:svg="http://www.w3.org/2000/svg">
  <sodipodi:namedview
     id="namedview1"
     pagecolor="#ffffff"
     bordercolor="#000000"
     borderopacity="0.25"
     inkscape:showpageshadow="2"
     inkscape:pageopacity="0.0"
     inkscape:pagecheckerboard="0"
     inkscape:deskcolor="#d1d1d1"
     inkscape:document-units="mm"
     inkscape:zoom="0.80444024"
     inkscape:cx="397.17059"
     inkscape:cy="163.46771"
     inkscape:window-width="1920"
     inkscape:window-height="1052"
     inkscape:window-x="0"
     inkscape:window-y="28"
     inkscape:window-maximized="0"
     inkscape:current-layer="layer1" />
  <defs
     id="defs1" />
  <g
     inkscape:label="Layer 1"
     inkscape:groupmode="layer"
     id="layer1">
    <g
       id="g383"
       style="clip-rule:evenodd;fill-rule:evenodd;image-rendering:optimizeQuality;shape-rendering:geometricPrecision;text-rendering:geometricPrecision"
       transform="matrix(0.30622937,0,0,0.30622937,-223.6967,-119.05931)">
      <path
         style="opacity:1"
         fill="#f9ebc0"
         d="m 939.5,433.5 c -7.386,-3.431 -15.053,-6.098 -23,-8 -6.756,-2.054 -13.756,-3.054 -21,-3 -8.824,-1.157 -17.824,-1.324 -27,-0.5 -4.576,0.75 -8.909,1.917 -13,3.5 -6.808,1.658 -13.475,3.825 -20,6.5 -2.084,0.697 -3.751,1.864 -5,3.5 -0.667,0 -1.333,0 -2,0 -3.852,2.425 -7.519,5.091 -11,8 -1.562,0.233 -2.895,0.9 -4,2 0.359,-1.871 1.359,-3.371 3,-4.5 7.88,-5.441 16.214,-10.108 25,-14 20.881,-6.944 42.214,-8.944 64,-6 9.868,2.085 19.535,4.752 29,8 2.208,1.047 3.874,2.547 5,4.5 z"
         id="path383" />
    </g>
    <g
       id="g386"
       style="clip-rule:evenodd;fill-rule:evenodd;image-rendering:optimizeQuality;shape-rendering:geometricPrecision;text-rendering:geometricPrecision"
       transform="matrix(0.30622937,0,0,0.30622937,-223.6967,-119.05931)">
      <path
         style="opacity:1"
         fill="#db9f4c"
         d="m 895.5,422.5 c -13.468,-0.502 -26.801,0.498 -40,3 4.091,-1.583 8.424,-2.75 13,-3.5 9.176,-0.824 18.176,-0.657 27,0.5 z"
         id="path386" />
    </g>
    <g
       id="g395"
       style="clip-rule:evenodd;fill-rule:evenodd;image-rendering:optimizeQuality;shape-rendering:geometricPrecision;text-rendering:geometricPrecision"
       transform="matrix(0.30622937,0,0,0.30622937,-223.6967,-119.05931)">
      <path
         style="opacity:1"
         fill="#d6933a"
         d="m 855.5,425.5 c -7.954,4.139 -16.287,7.472 -25,10 1.249,-1.636 2.916,-2.803 5,-3.5 6.525,-2.675 13.192,-4.842 20,-6.5 z"
         id="path395" />
    </g>
    <g
       id="g399"
       style="clip-rule:evenodd;fill-rule:evenodd;image-rendering:optimizeQuality;shape-rendering:geometricPrecision;text-rendering:geometricPrecision"
       transform="matrix(0.30622937,0,0,0.30622937,-223.6967,-119.05931)">
      <path
         style="opacity:1"
         fill="#d68e2d"
         d="m 916.5,425.5 c 7.947,1.902 15.614,4.569 23,8 2.349,1.841 5.015,3.174 8,4 3.394,2.721 7.061,5.054 11,7 2,2 4,4 6,6 -5.78,-2.73 -11.113,-6.23 -16,-10.5 -9.912,-5.292 -20.245,-9.458 -31,-12.5 -0.363,-0.683 -0.696,-1.35 -1,-2 z"
         id="path399" />
    </g>
    <g
       id="g400"
       style="clip-rule:evenodd;fill-rule:evenodd;image-rendering:optimizeQuality;shape-rendering:geometricPrecision;text-rendering:geometricPrecision"
       transform="matrix(0.30622937,0,0,0.30622937,-223.6967,-119.05931)">
      <path
         style="opacity:1"
         fill="#f9eac3"
         d="m 939.5,433.5 c 2.667,0.333 5.333,0.667 8,1 0,1 0,2 0,3 -2.985,-0.826 -5.651,-2.159 -8,-4 z"
         id="path400" />
    </g>
    <g
       id="g401"
       style="clip-rule:evenodd;fill-rule:evenodd;image-rendering:optimizeQuality;shape-rendering:geometricPrecision;text-rendering:geometricPrecision"
       transform="matrix(0.30622937,0,0,0.30622937,-223.6967,-119.05931)">
      <path
         style="opacity:1"
         fill="#f9e7ba"
         d="m 947.5,437.5 c 4.999,0.348 8.666,2.681 11,7 -3.939,-1.946 -7.606,-4.279 -11,-7 z"
         id="path401" />
    </g>
    <g
       id="g402"
       style="clip-rule:evenodd;fill-rule:evenodd;image-rendering:optimizeQuality;shape-rendering:geometricPrecision;text-rendering:geometricPrecision"
       transform="matrix(0.30622937,0,0,0.30622937,-223.6967,-119.05931)">
      <path
         style="opacity:1"
         fill="#d6953b"
         d="m 828.5,435.5 c -2.415,4.375 -6.081,7.042 -11,8 3.481,-2.909 7.148,-5.575 11,-8 z"
         id="path402" />
    </g>
    <g
       id="g403"
       style="clip-rule:evenodd;fill-rule:evenodd;image-rendering:optimizeQuality;shape-rendering:geometricPrecision;text-rendering:geometricPrecision"
       transform="matrix(0.30622937,0,0,0.30622937,-223.6967,-119.05931)">
      <path
         style="opacity:1"
         fill="#ed850b"
         d="m 895.5,422.5 c 7.244,-0.054 14.244,0.946 21,3 0.304,0.65 0.637,1.317 1,2 10.755,3.042 21.088,7.208 31,12.5 4.887,4.27 10.22,7.77 16,10.5 -0.262,1.478 0.071,2.811 1,4 2.887,2.102 5.554,4.602 8,7.5 3.076,1.243 5.743,3.077 8,5.5 -0.157,1.373 0.01,2.707 0.5,4 1.992,1.165 3.825,2.498 5.5,4 1.89,8.12 5.556,15.12 11,21 2.87,6.022 4.71,12.355 5.5,19 1.9,13.762 3.07,27.595 3.5,41.5 -1.14,10.986 -3.14,21.82 -6,32.5 -2.096,7.743 -5.096,15.076 -9,22 -3.333,4.333 -6.667,8.667 -10,13 -4.521,0.187 -7.188,2.52 -8,7 -5.316,4.114 -10.316,8.614 -15,13.5 -5.127,2.397 -10.127,5.064 -15,8 -1.243,1.154 -2.243,2.488 -3,4 -3.381,0.061 -6.214,1.227 -8.5,3.5 -7.401,1.13 -14.568,2.963 -21.5,5.5 -6.813,0.981 -13.646,1.814 -20.5,2.5 -10.516,-1.762 -21.016,-2.429 -31.5,-2 -4.347,-0.097 -8.347,-1.097 -12,-3 -0.111,-0.617 -0.444,-1.117 -1,-1.5 -4.604,-1.688 -9.271,-3.188 -14,-4.5 -7.377,-4.527 -14.377,-9.694 -21,-15.5 -5.739,-2.07 -9.905,-5.903 -12.5,-11.5 -3.522,-2.766 -6.855,-5.766 -10,-9 -2.171,-4.344 -4.837,-8.344 -8,-12 -4.327,-9.094 -8.494,-18.094 -12.5,-27 -1.506,-4.529 -2.839,-9.196 -4,-14 -1.223,-15.009 -1.223,-30.009 0,-45 3.089,-6.939 5.422,-14.272 7,-22 3.464,-5.262 6.13,-10.929 8,-17 1.678,-4.697 4.344,-8.697 8,-12 7.862,-7.775 15.529,-15.775 23,-24 0.667,-1.333 1.667,-2.333 3,-3 1.105,-1.1 2.438,-1.767 4,-2 4.919,-0.958 8.585,-3.625 11,-8 0.667,0 1.333,0 2,0 8.713,-2.528 17.046,-5.861 25,-10 13.199,-2.502 26.532,-3.502 40,-3 z"
         id="path403" />
    </g>
    <g
       id="g404"
       style="clip-rule:evenodd;fill-rule:evenodd;image-rendering:optimizeQuality;shape-rendering:geometricPrecision;text-rendering:geometricPrecision"
       transform="matrix(0.30622937,0,0,0.30622937,-223.6967,-119.05931)">
      <path
         style="opacity:1"
         fill="#df9f4b"
         d="m 931.5,440.5 c 3.825,0.574 7.491,1.741 11,3.5 1.563,0.759 2.563,1.926 3,3.5 -4.711,-2.342 -9.377,-4.675 -14,-7 z"
         id="path404" />
    </g>
    <g
       id="g405"
       style="clip-rule:evenodd;fill-rule:evenodd;image-rendering:optimizeQuality;shape-rendering:geometricPrecision;text-rendering:geometricPrecision"
       transform="matrix(0.30622937,0,0,0.30622937,-223.6967,-119.05931)">
      <path
         style="opacity:1"
         fill="#d99132"
         d="m 901.5,431.5 c 6.727,0.287 13.393,1.121 20,2.5 2.359,1.242 4.359,2.742 6,4.5 -8.442,-3.502 -17.108,-5.836 -26,-7 z"
         id="path405" />
    </g>
    <g
       id="g406"
       style="clip-rule:evenodd;fill-rule:evenodd;image-rendering:optimizeQuality;shape-rendering:geometricPrecision;text-rendering:geometricPrecision"
       transform="matrix(0.30622937,0,0,0.30622937,-223.6967,-119.05931)">
      <path
         style="opacity:1"
         fill="#faf9f9"
         d="m 928.5,439.5 c -0.131,0.876 0.202,1.543 1,2 8.774,3.63 16.441,8.797 23,15.5 5.515,3.255 10.848,6.755 16,10.5 3.073,2.069 5.406,4.736 7,8 5.215,13.426 11.215,26.426 18,39 0.174,2.361 0.507,4.694 1,7 1.855,14.662 2.355,29.662 1.5,45 -4.639,13.681 -9.139,27.348 -13.5,41 -0.624,2.254 -1.957,3.921 -4,5 -2.276,0.256 -3.443,1.59 -3.5,4 -2,1.333 -4,2.667 -6,4 -2.779,5.669 -6.612,10.503 -11.5,14.5 -2.571,0.901 -4.904,2.234 -7,4 -1.323,0.816 -1.989,1.983 -2,3.5 -1.373,-0.157 -2.707,0.01 -4,0.5 -20.175,13.51 -42.508,19.176 -67,17 -10.218,-1.188 -20.218,-3.022 -30,-5.5 -5.093,-3.102 -10.426,-5.935 -16,-8.5 -3.489,-3.994 -7.822,-6.494 -13,-7.5 -3.163,-5.843 -7.496,-10.843 -13,-15 -6.456,-8.625 -13.123,-16.958 -20,-25 -3.084,-6.637 -5.418,-13.637 -7,-21 -1.328,-9.934 -2.328,-19.934 -3,-30 0.583,-7.327 1.083,-14.661 1.5,-22 0.946,-2.288 2.113,-4.455 3.5,-6.5 -0.522,-0.561 -0.855,-1.228 -1,-2 1.41,-5.229 3.41,-10.229 6,-15 -1.054,-1.388 -1.22,-2.888 -0.5,-4.5 1.667,-1.667 3.333,-3.333 5,-5 3.086,-4.512 5.419,-9.512 7,-15 4.236,-4.151 7.736,-8.818 10.5,-14 1.373,0.157 2.707,-0.01 4,-0.5 11.369,-10.598 24.036,-19.098 38,-25.5 8.171,-0.542 16.171,-2.042 24,-4.5 13.086,-0.957 26.086,-0.29 39,2 5.051,2.404 10.384,3.904 16,4.5 z"
         id="path406" />
    </g>
    <g
       id="g407"
       style="clip-rule:evenodd;fill-rule:evenodd;image-rendering:optimizeQuality;shape-rendering:geometricPrecision;text-rendering:geometricPrecision"
       transform="matrix(0.30622937,0,0,0.30622937,-223.6967,-119.05931)">
      <path
         style="opacity:1"
         fill="#f9eabe"
         d="m 894.5,430.5 c 2.306,0.493 4.639,0.826 7,1 8.892,1.164 17.558,3.498 26,7 0.667,0 1,0.333 1,1 -5.616,-0.596 -10.949,-2.096 -16,-4.5 -12.914,-2.29 -25.914,-2.957 -39,-2 -7.829,2.458 -15.829,3.958 -24,4.5 2.279,-1.151 4.612,-2.151 7,-3 12.435,-3.177 25.101,-4.51 38,-4 z"
         id="path407" />
    </g>
    <g
       id="g408"
       style="clip-rule:evenodd;fill-rule:evenodd;image-rendering:optimizeQuality;shape-rendering:geometricPrecision;text-rendering:geometricPrecision"
       transform="matrix(0.30622937,0,0,0.30622937,-223.6967,-119.05931)">
      <path
         style="opacity:1"
         fill="#d38f33"
         d="m 894.5,430.5 c -12.899,-0.51 -25.565,0.823 -38,4 4.693,-2.943 10.026,-4.443 16,-4.5 7.512,-0.822 14.845,-0.655 22,0.5 z"
         id="path408" />
    </g>
    <g
       id="g425"
       style="clip-rule:evenodd;fill-rule:evenodd;image-rendering:optimizeQuality;shape-rendering:geometricPrecision;text-rendering:geometricPrecision"
       transform="matrix(0.30622937,0,0,0.30622937,-223.6967,-119.05931)">
      <path
         style="opacity:1"
         fill="#f9ecc4"
         d="m 849.5,437.5 c -13.964,6.402 -26.631,14.902 -38,25.5 -1.293,0.49 -2.627,0.657 -4,0.5 1.333,-1.667 2.667,-3.333 4,-5 6.023,-4.365 12.023,-8.699 18,-13 3.955,-1.311 7.621,-3.144 11,-5.5 2.853,-1.43 5.853,-2.263 9,-2.5 z"
         id="path425" />
    </g>
    <g
       id="g429"
       style="clip-rule:evenodd;fill-rule:evenodd;image-rendering:optimizeQuality;shape-rendering:geometricPrecision;text-rendering:geometricPrecision"
       transform="matrix(0.30622937,0,0,0.30622937,-223.6967,-119.05931)">
      <path
         style="opacity:1"
         fill="#db8a29"
         d="m 829.5,445.5 c -5.977,4.301 -11.977,8.635 -18,13 4.112,-6.743 10.112,-11.076 18,-13 z"
         id="path429" />
    </g>
    <g
       id="g431"
       style="clip-rule:evenodd;fill-rule:evenodd;image-rendering:optimizeQuality;shape-rendering:geometricPrecision;text-rendering:geometricPrecision"
       transform="matrix(0.30622937,0,0,0.30622937,-223.6967,-119.05931)">
      <path
         style="opacity:1"
         fill="#faefd0"
         d="m 958.5,444.5 c 1.788,-0.285 3.455,0.048 5,1 3.875,3.252 7.875,6.419 12,9.5 1.805,3.11 3.471,6.277 5,9.5 -5.037,-5.039 -10.371,-9.706 -16,-14 -2,-2 -4,-4 -6,-6 z"
         id="path431" />
    </g>
    <g
       id="g435"
       style="clip-rule:evenodd;fill-rule:evenodd;image-rendering:optimizeQuality;shape-rendering:geometricPrecision;text-rendering:geometricPrecision"
       transform="matrix(0.30622937,0,0,0.30622937,-223.6967,-119.05931)">
      <path
         style="opacity:1"
         fill="#faeeca"
         d="m 805.5,451.5 c -4.333,3.667 -8.333,7.667 -12,12 0.069,-2.584 1.235,-4.584 3.5,-6 0.49,-1.293 0.657,-2.627 0.5,-4 2.721,-0.463 5.388,-1.129 8,-2 z"
         id="path435" />
    </g>
    <g
       id="g436"
       style="clip-rule:evenodd;fill-rule:evenodd;image-rendering:optimizeQuality;shape-rendering:geometricPrecision;text-rendering:geometricPrecision"
       transform="matrix(0.30622937,0,0,0.30622937,-223.6967,-119.05931)">
      <path
         style="opacity:1"
         fill="#faf3d5"
         d="m 928.5,439.5 c 1.109,0.057 2.109,0.39 3,1 4.623,2.325 9.289,4.658 14,7 1.399,1.39 3.066,2.39 5,3 4.015,4.013 8.348,7.679 13,11 1.667,2 3.333,4 5,6 -5.152,-3.745 -10.485,-7.245 -16,-10.5 -6.559,-6.703 -14.226,-11.87 -23,-15.5 -0.798,-0.457 -1.131,-1.124 -1,-2 z"
         id="path436" />
    </g>
    <g
       id="g438"
       style="clip-rule:evenodd;fill-rule:evenodd;image-rendering:optimizeQuality;shape-rendering:geometricPrecision;text-rendering:geometricPrecision"
       transform="matrix(0.30622937,0,0,0.30622937,-223.6967,-119.05931)">
      <path
         style="opacity:1"
         fill="#da8c2b"
         d="m 810.5,448.5 c -7.471,8.225 -15.138,16.225 -23,24 1.069,-2.469 2.402,-4.802 4,-7 1,-0.333 1.667,-1 2,-2 3.667,-4.333 7.667,-8.333 12,-12 1.422,-1.425 3.089,-2.425 5,-3 z"
         id="path438" />
    </g>
    <g
       id="g439"
       style="clip-rule:evenodd;fill-rule:evenodd;image-rendering:optimizeQuality;shape-rendering:geometricPrecision;text-rendering:geometricPrecision"
       transform="matrix(0.30622937,0,0,0.30622937,-223.6967,-119.05931)">
      <path
         style="opacity:1"
         fill="#e0912d"
         d="m 950.5,450.5 c 6.405,1.061 10.738,4.728 13,11 -4.652,-3.321 -8.985,-6.987 -13,-11 z"
         id="path439" />
    </g>
    <g
       id="g440"
       style="clip-rule:evenodd;fill-rule:evenodd;image-rendering:optimizeQuality;shape-rendering:geometricPrecision;text-rendering:geometricPrecision"
       transform="matrix(0.30622937,0,0,0.30622937,-223.6967,-119.05931)">
      <path
         style="opacity:1"
         fill="#e08f2e"
         d="m 964.5,450.5 c 5.629,4.294 10.963,8.961 16,14 0.333,0.667 0.667,1.333 1,2 0,0.333 0,0.667 0,1 -2.257,-2.423 -4.924,-4.257 -8,-5.5 -2.446,-2.898 -5.113,-5.398 -8,-7.5 -0.929,-1.189 -1.262,-2.522 -1,-4 z"
         id="path440" />
    </g>
    <g
       id="g451"
       style="clip-rule:evenodd;fill-rule:evenodd;image-rendering:optimizeQuality;shape-rendering:geometricPrecision;text-rendering:geometricPrecision"
       transform="matrix(0.30622937,0,0,0.30622937,-223.6967,-119.05931)">
      <path
         style="opacity:1"
         fill="#dd8a25"
         d="m 811.5,458.5 c -1.333,1.667 -2.667,3.333 -4,5 -2.964,2.462 -5.797,5.129 -8.5,8 -3.61,5.577 -7.443,10.91 -11.5,16 3.726,-7.113 7.726,-14.113 12,-21 4.283,-2.291 8.283,-4.957 12,-8 z"
         id="path451" />
    </g>
    <g
       id="g457"
       style="clip-rule:evenodd;fill-rule:evenodd;image-rendering:optimizeQuality;shape-rendering:geometricPrecision;text-rendering:geometricPrecision"
       transform="matrix(0.30622937,0,0,0.30622937,-223.6967,-119.05931)">
      <path
         style="opacity:1"
         fill="#dc8b28"
         d="m 963.5,461.5 c 3.077,2.052 6.411,3.719 10,5 2.816,6.649 6.649,12.649 11.5,18 0.49,1.293 0.657,2.627 0.5,4 -3.091,-4.514 -6.425,-8.847 -10,-13 -1.594,-3.264 -3.927,-5.931 -7,-8 -1.667,-2 -3.333,-4 -5,-6 z"
         id="path457" />
    </g>
    <g
       id="g459"
       style="clip-rule:evenodd;fill-rule:evenodd;image-rendering:optimizeQuality;shape-rendering:geometricPrecision;text-rendering:geometricPrecision"
       transform="matrix(0.30622937,0,0,0.30622937,-223.6967,-119.05931)">
      <path
         style="opacity:1"
         fill="#faf5de"
         d="m 970.5,565.5 c -2.25,-14.305 -4.75,-28.638 -7.5,-43 -0.942,-2.874 -2.109,-5.54 -3.5,-8 -2.035,-14.227 -4.702,-28.227 -8,-42 -1.446,-1.113 -3.113,-1.28 -5,-0.5 -2.234,1.75 -4.568,3.25 -7,4.5 0.011,-1.517 0.677,-2.684 2,-3.5 3.911,-3.597 8.244,-4.263 13,-2 0.829,1.816 1.663,3.649 2.5,5.5 -1.111,11.121 0.556,21.787 5,32 2.156,8.735 3.489,17.402 4,26 0.667,0.667 1.333,1.333 2,2 1.054,9.655 1.888,19.322 2.5,29 z"
         id="path459" />
    </g>
    <g
       id="g460"
       style="clip-rule:evenodd;fill-rule:evenodd;image-rendering:optimizeQuality;shape-rendering:geometricPrecision;text-rendering:geometricPrecision"
       transform="matrix(0.30622937,0,0,0.30622937,-223.6967,-119.05931)">
      <path
         style="opacity:1"
         fill="#da913b"
         d="m 981.5,467.5 c 2.378,2.378 4.378,5.045 6,8 -1.675,-1.502 -3.508,-2.835 -5.5,-4 -0.49,-1.293 -0.657,-2.627 -0.5,-4 z"
         id="path460" />
    </g>
    <g
       id="g462"
       style="clip-rule:evenodd;fill-rule:evenodd;image-rendering:optimizeQuality;shape-rendering:geometricPrecision;text-rendering:geometricPrecision"
       transform="matrix(0.30622937,0,0,0.30622937,-223.6967,-119.05931)">
      <path
         style="opacity:1"
         fill="#f9e7b7"
         d="m 905.5,483.5 c -8.098,-1.023 -16.098,-2.69 -24,-5 -3.446,-1.187 -7.113,-1.854 -11,-2 -6.153,-1.153 -12.486,-1.32 -19,-0.5 -3.297,0.204 -6.297,1.037 -9,2.5 -3.667,1.333 -7.333,2.667 -11,4 8.86,-6.759 19.026,-9.426 30.5,-8 6.553,-0.05 13.053,0.45 19.5,1.5 8.25,2.071 16.25,4.571 24,7.5 z"
         id="path462" />
    </g>
    <g
       id="g464"
       style="clip-rule:evenodd;fill-rule:evenodd;image-rendering:optimizeQuality;shape-rendering:geometricPrecision;text-rendering:geometricPrecision"
       transform="matrix(0.30622937,0,0,0.30622937,-223.6967,-119.05931)">
      <path
         style="opacity:1"
         fill="#e6b56c"
         d="m 870.5,476.5 c -9.408,-0.231 -18.741,0.436 -28,2 2.703,-1.463 5.703,-2.296 9,-2.5 6.514,-0.82 12.847,-0.653 19,0.5 z"
         id="path464" />
    </g>
    <g
       id="g466"
       style="clip-rule:evenodd;fill-rule:evenodd;image-rendering:optimizeQuality;shape-rendering:geometricPrecision;text-rendering:geometricPrecision"
       transform="matrix(0.30622937,0,0,0.30622937,-223.6967,-119.05931)">
      <path
         style="opacity:1"
         fill="#db9033"
         d="m 945.5,475.5 c -1.114,1.385 -2.114,2.885 -3,4.5 1.882,0.198 3.548,0.698 5,1.5 -4.245,1.596 -8.245,3.596 -12,6 -3.074,0.802 -6.074,1.802 -9,3 4.09,-2.549 8.423,-4.882 13,-7 -1,-0.333 -2,-0.667 -3,-1 -3.302,0.88 -6.635,1.546 -10,2 6.689,-2.177 13.022,-5.177 19,-9 z"
         id="path466" />
    </g>
    <g
       id="g467"
       style="clip-rule:evenodd;fill-rule:evenodd;image-rendering:optimizeQuality;shape-rendering:geometricPrecision;text-rendering:geometricPrecision"
       transform="matrix(0.30622937,0,0,0.30622937,-223.6967,-119.05931)">
      <path
         style="opacity:1"
         fill="#dc9135"
         d="m 987.5,475.5 c 1.97,2.147 3.803,4.48 5.5,7 2.676,4.349 4.509,9.015 5.5,14 -5.444,-5.88 -9.11,-12.88 -11,-21 z"
         id="path467" />
    </g>
    <g
       id="g468"
       style="clip-rule:evenodd;fill-rule:evenodd;image-rendering:optimizeQuality;shape-rendering:geometricPrecision;text-rendering:geometricPrecision"
       transform="matrix(0.30622937,0,0,0.30622937,-223.6967,-119.05931)">
      <path
         style="opacity:1"
         fill="#f9ebbe"
         d="m 951.5,472.5 c -2.813,-0.475 -4.813,0.525 -6,3 -5.978,3.823 -12.311,6.823 -19,9 -6.305,0.987 -12.638,1.153 -19,0.5 -0.556,-0.383 -0.889,-0.883 -1,-1.5 9.622,0.838 18.955,-0.328 28,-3.5 1.931,-0.902 3.597,-2.069 5,-3.5 2.432,-1.25 4.766,-2.75 7,-4.5 1.887,-0.78 3.554,-0.613 5,0.5 z"
         id="path468" />
    </g>
    <g
       id="g469"
       style="clip-rule:evenodd;fill-rule:evenodd;image-rendering:optimizeQuality;shape-rendering:geometricPrecision;text-rendering:geometricPrecision"
       transform="matrix(0.30622937,0,0,0.30622937,-223.6967,-119.05931)">
      <path
         style="opacity:1"
         fill="#e38514"
         d="m 947.5,481.5 c -1.452,-0.802 -3.118,-1.302 -5,-1.5 0.886,-1.615 1.886,-3.115 3,-4.5 1.891,-1.036 3.724,-1.036 5.5,0 1.162,4.625 1.496,9.292 1,14 -0.333,0.333 -0.667,0.667 -1,1 -0.861,-3.231 -2.028,-6.231 -3.5,-9 z"
         id="path469" />
    </g>
    <g
       id="g471"
       style="clip-rule:evenodd;fill-rule:evenodd;image-rendering:optimizeQuality;shape-rendering:geometricPrecision;text-rendering:geometricPrecision"
       transform="matrix(0.30622937,0,0,0.30622937,-223.6967,-119.05931)">
      <path
         style="opacity:1"
         fill="#d79237"
         d="m 881.5,478.5 c 7.902,2.31 15.902,3.977 24,5 0.333,0 0.667,0 1,0 0.111,0.617 0.444,1.117 1,1.5 6.362,0.653 12.695,0.487 19,-0.5 -3.703,1.555 -7.703,2.222 -12,2 -5.349,-0.427 -10.683,-0.594 -16,-0.5 0.837,1.011 1.17,2.178 1,3.5 -8.063,-3.099 -16.397,-5.099 -25,-6 0.204,3.018 0.537,6.018 1,9 -2.475,-2.751 -3.475,-6.084 -3,-10 7.107,0.117 14.107,0.617 21,1.5 -4.263,-1.648 -8.263,-3.481 -12,-5.5 z"
         id="path471" />
    </g>
    <g
       id="g474"
       style="clip-rule:evenodd;fill-rule:evenodd;image-rendering:optimizeQuality;shape-rendering:geometricPrecision;text-rendering:geometricPrecision"
       transform="matrix(0.30622937,0,0,0.30622937,-223.6967,-119.05931)">
      <path
         style="opacity:1"
         fill="#f9ecc1"
         d="m 899.5,489.5 c 0,1.333 0,2.667 0,4 -0.686,-1.348 -1.686,-2.515 -3,-3.5 -6.483,-2.441 -13.149,-3.941 -20,-4.5 1.003,6.036 2.003,12.036 3,18 -1.478,-0.948 -2.478,-2.281 -3,-4 -0.174,-2.361 -0.507,-4.694 -1,-7 -0.463,-2.982 -0.796,-5.982 -1,-9 8.603,0.901 16.937,2.901 25,6 z"
         id="path474" />
    </g>
    <g
       id="g476"
       style="clip-rule:evenodd;fill-rule:evenodd;image-rendering:optimizeQuality;shape-rendering:geometricPrecision;text-rendering:geometricPrecision"
       transform="matrix(0.30622937,0,0,0.30622937,-223.6967,-119.05931)">
      <path
         style="opacity:1"
         fill="#faf9f4"
         d="m 899.5,493.5 c 0.04,4.693 0.373,9.359 1,14 -2,0 -4,0 -6,0 -4.43,-2.913 -9.43,-4.246 -15,-4 -0.997,-5.964 -1.997,-11.964 -3,-18 6.851,0.559 13.517,2.059 20,4.5 1.314,0.985 2.314,2.152 3,3.5 z"
         id="path476" />
    </g>
    <g
       id="g477"
       style="clip-rule:evenodd;fill-rule:evenodd;image-rendering:optimizeQuality;shape-rendering:geometricPrecision;text-rendering:geometricPrecision"
       transform="matrix(0.30622937,0,0,0.30622937,-223.6967,-119.05931)">
      <path
         style="opacity:1"
         fill="#f9e9be"
         d="m 947.5,481.5 c 1.542,6.918 2.542,13.918 3,21 -0.333,0 -0.667,0 -1,0 -1.003,-4.04 -2.003,-8.04 -3,-12 -0.964,-1.905 -2.631,-2.905 -5,-3 -1.677,0.687 -3.344,1.354 -5,2 -0.667,0 -1.333,0 -2,0 0.333,-0.667 0.667,-1.333 1,-2 3.755,-2.404 7.755,-4.404 12,-6 z"
         id="path477" />
    </g>
    <g
       id="g482"
       style="clip-rule:evenodd;fill-rule:evenodd;image-rendering:optimizeQuality;shape-rendering:geometricPrecision;text-rendering:geometricPrecision"
       transform="matrix(0.30622937,0,0,0.30622937,-223.6967,-119.05931)">
      <path
         style="opacity:1"
         fill="#d3a055"
         d="m 815.5,488.5 c -6.175,-0.823 -9.175,1.844 -9,8 -1.647,-3.252 -0.98,-6.086 2,-8.5 2.539,-0.796 4.872,-0.629 7,0.5 z"
         id="path482" />
    </g>
    <g
       id="g483"
       style="clip-rule:evenodd;fill-rule:evenodd;image-rendering:optimizeQuality;shape-rendering:geometricPrecision;text-rendering:geometricPrecision"
       transform="matrix(0.30622937,0,0,0.30622937,-223.6967,-119.05931)">
      <path
         style="opacity:1"
         fill="#faf9f9"
         d="m 946.5,490.5 c -0.077,3.715 0.256,7.381 1,11 -4.104,0.384 -7.771,1.884 -11,4.5 -1.973,0.495 -3.973,0.662 -6,0.5 -0.327,-4.714 0.007,-9.38 1,-14 1.645,-1.196 3.311,-2.196 5,-3 1.656,-0.646 3.323,-1.313 5,-2 2.369,0.095 4.036,1.095 5,3 z"
         id="path483" />
    </g>
    <g
       id="g484"
       style="clip-rule:evenodd;fill-rule:evenodd;image-rendering:optimizeQuality;shape-rendering:geometricPrecision;text-rendering:geometricPrecision"
       transform="matrix(0.30622937,0,0,0.30622937,-223.6967,-119.05931)">
      <path
         style="opacity:1"
         fill="#e1891e"
         d="m 870.5,476.5 c 3.887,0.146 7.554,0.813 11,2 3.737,2.019 7.737,3.852 12,5.5 -6.893,-0.883 -13.893,-1.383 -21,-1.5 -0.475,3.916 0.525,7.249 3,10 0.493,2.306 0.826,4.639 1,7 0.17,1.322 -0.163,2.489 -1,3.5 -6.992,0.5 -13.992,0.666 -21,0.5 -1.322,0.17 -2.489,-0.163 -3.5,-1 -0.333,-2 -0.667,-4 -1,-6 -0.383,-0.556 -0.883,-0.889 -1.5,-1 -0.605,-2.627 -1.105,-5.293 -1.5,-8 -0.408,-1.91 -1.575,-2.91 -3.5,-3 -7.769,2.136 -14.936,5.469 -21.5,10 -0.167,1 -0.333,2 -0.5,3 1.41,3.898 2.41,7.898 3,12 -1.808,-2.936 -3.641,-5.936 -5.5,-9 -0.777,-2.929 -0.61,-5.763 0.5,-8.5 -3.327,-0.61 -6.661,-1.11 -10,-1.5 -0.049,4.481 0.284,9.148 1,14 -0.333,0 -0.667,0 -1,0 -1,-2.667 -2,-5.333 -3,-8 -0.175,-6.156 2.825,-8.823 9,-8 1.238,0.912 2.572,1.079 4,0.5 3.261,-2.452 6.594,-4.619 10,-6.5 0.667,0 1.333,0 2,0 3.667,-1.333 7.333,-2.667 11,-4 9.259,-1.564 18.592,-2.231 28,-2 z"
         id="path484" />
    </g>
    <g
       id="g485"
       style="clip-rule:evenodd;fill-rule:evenodd;image-rendering:optimizeQuality;shape-rendering:geometricPrecision;text-rendering:geometricPrecision"
       transform="matrix(0.30622937,0,0,0.30622937,-223.6967,-119.05931)">
      <path
         style="opacity:1"
         fill="#f68600"
         d="m 848.5,479.5 c 7.159,0.435 13.992,0.435 20.5,0 0.595,1.399 0.428,2.732 -0.5,4 2.2,5.582 3.866,11.249 5,17 -6.659,0.722 -13.325,0.889 -20,0.5 -2.033,-6.481 -4.366,-12.814 -7,-19 0.881,-0.708 1.547,-1.542 2,-2.5 z"
         id="path485" />
    </g>
    <g
       id="g487"
       style="clip-rule:evenodd;fill-rule:evenodd;image-rendering:optimizeQuality;shape-rendering:geometricPrecision;text-rendering:geometricPrecision"
       transform="matrix(0.30622937,0,0,0.30622937,-223.6967,-119.05931)">
      <path
         style="opacity:1"
         fill="#faf3d6"
         d="m 791.5,465.5 c -1.598,2.198 -2.931,4.531 -4,7 -3.656,3.303 -6.322,7.303 -8,12 -4.01,5.021 -6.677,10.687 -8,17 -3.254,7.008 -5.587,14.342 -7,22 -1.75,3.683 -2.417,7.683 -2,12 -0.79,1.109 -1.29,2.442 -1.5,4 -0.499,4.655 -0.666,9.321 -0.5,14 -1.152,-5.485 -1.318,-11.151 -0.5,-17 1.921,-14.681 5.254,-29.015 10,-43 3.982,-7.963 8.482,-15.63 13.5,-23 2.867,-1.488 5.534,-3.155 8,-5 z"
         id="path487" />
    </g>
    <g
       id="g488"
       style="clip-rule:evenodd;fill-rule:evenodd;image-rendering:optimizeQuality;shape-rendering:geometricPrecision;text-rendering:geometricPrecision"
       transform="matrix(0.30622937,0,0,0.30622937,-223.6967,-119.05931)">
      <path
         style="opacity:1"
         fill="#d68f34"
         d="m 951.5,472.5 c 3.298,13.773 5.965,27.773 8,42 0,1 0,2 0,3 -1.999,-7.895 -3.999,-15.895 -6,-24 -0.333,-0.333 -0.667,-0.667 -1,-1 -0.667,3.477 -1.334,6.811 -2,10 -0.458,-7.082 -1.458,-14.082 -3,-21 1.472,2.769 2.639,5.769 3.5,9 0.333,-0.333 0.667,-0.667 1,-1 0.496,-4.708 0.162,-9.375 -1,-14 -1.776,-1.036 -3.609,-1.036 -5.5,0 1.187,-2.475 3.187,-3.475 6,-3 z"
         id="path488" />
    </g>
    <g
       id="g490"
       style="clip-rule:evenodd;fill-rule:evenodd;image-rendering:optimizeQuality;shape-rendering:geometricPrecision;text-rendering:geometricPrecision"
       transform="matrix(0.30622937,0,0,0.30622937,-223.6967,-119.05931)">
      <path
         style="opacity:1"
         fill="#f58500"
         d="m 902.5,494.5 c 0,-0.333 0,-0.667 0,-1 0.143,-1.762 -0.191,-3.429 -1,-5 0.833,-0.333 1.667,-0.667 2.5,-1 4.006,0.193 7.673,1.193 11,3 2.181,-1.202 4.681,-1.202 7.5,0 0.162,2.027 -0.005,4.027 -0.5,6 -2.715,0.454 -4.548,1.954 -5.5,4.5 2.061,1.489 4.394,2.656 7,3.5 0.929,1.189 1.262,2.522 1,4 -5.676,0.428 -11.343,0.595 -17,0.5 -1.333,-1.333 -1.333,-2.667 0,-4 -2.092,-3.324 -3.759,-6.824 -5,-10.5 z"
         id="path490" />
    </g>
    <g
       id="g492"
       style="clip-rule:evenodd;fill-rule:evenodd;image-rendering:optimizeQuality;shape-rendering:geometricPrecision;text-rendering:geometricPrecision"
       transform="matrix(0.30622937,0,0,0.30622937,-223.6967,-119.05931)">
      <path
         style="opacity:1"
         fill="#d79439"
         d="m 779.5,484.5 c -1.87,6.071 -4.536,11.738 -8,17 1.323,-6.313 3.99,-11.979 8,-17 z"
         id="path492" />
    </g>
    <g
       id="g493"
       style="clip-rule:evenodd;fill-rule:evenodd;image-rendering:optimizeQuality;shape-rendering:geometricPrecision;text-rendering:geometricPrecision"
       transform="matrix(0.30622937,0,0,0.30622937,-223.6967,-119.05931)">
      <path
         style="opacity:1"
         fill="#faf8e2"
         d="m 934.5,489.5 c 0.667,0 1.333,0 2,0 -1.689,0.804 -3.355,1.804 -5,3 -0.993,4.62 -1.327,9.286 -1,14 2.027,0.162 4.027,-0.005 6,-0.5 3.229,-2.616 6.896,-4.116 11,-4.5 -0.744,-3.619 -1.077,-7.285 -1,-11 0.997,3.96 1.997,7.96 3,12 -2.762,2.096 -5.762,3.762 -9,5 -3.571,1.142 -7.238,1.809 -11,2 -0.584,-5.001 -1.25,-10.001 -2,-15 1.043,-3.267 3.376,-4.933 7,-5 z"
         id="path493" />
    </g>
    <g
       id="g494"
       style="clip-rule:evenodd;fill-rule:evenodd;image-rendering:optimizeQuality;shape-rendering:geometricPrecision;text-rendering:geometricPrecision"
       transform="matrix(0.30622937,0,0,0.30622937,-223.6967,-119.05931)">
      <path
         style="opacity:1"
         fill="#e58817"
         d="m 959.5,517.5 c 0,0.333 0,0.667 0,1 0.165,3.682 -10e-4,7.348 -0.5,11 -1.039,-0.744 -1.539,-1.744 -1.5,-3 1.134,-2.466 1.301,-5.133 0.5,-8 -1.336,-5.409 -2.67,-10.742 -4,-16 -2.734,0.862 -2.901,1.695 -0.5,2.5 -1.981,0.605 -2.315,1.605 -1,3 -0.916,0.374 -1.75,0.874 -2.5,1.5 -3.466,-1.217 -6.966,-1.217 -10.5,0 0.333,-0.667 0.667,-1.333 1,-2 3.238,-1.238 6.238,-2.904 9,-5 0.333,0 0.667,0 1,0 0.666,-3.189 1.333,-6.523 2,-10 0.333,0.333 0.667,0.667 1,1 2.001,8.105 4.001,16.105 6,24 z"
         id="path494" />
    </g>
    <g
       id="g495"
       style="clip-rule:evenodd;fill-rule:evenodd;image-rendering:optimizeQuality;shape-rendering:geometricPrecision;text-rendering:geometricPrecision"
       transform="matrix(0.30622937,0,0,0.30622937,-223.6967,-119.05931)">
      <path
         style="opacity:1"
         fill="#faf2d7"
         d="m 975.5,475.5 c 3.575,4.153 6.909,8.486 10,13 1.077,3.687 2.743,7.02 5,10 0.65,1.935 0.983,3.935 1,6 0.667,3.333 1.333,6.667 2,10 -6.785,-12.574 -12.785,-25.574 -18,-39 z"
         id="path495" />
    </g>
    <g
       id="g496"
       style="clip-rule:evenodd;fill-rule:evenodd;image-rendering:optimizeQuality;shape-rendering:geometricPrecision;text-rendering:geometricPrecision"
       transform="matrix(0.30622937,0,0,0.30622937,-223.6967,-119.05931)">
      <path
         style="opacity:1"
         fill="#ed880c"
         d="m 926.5,490.5 c -0.333,0 -0.667,0 -1,0 -0.658,1.293 -0.992,2.793 -1,4.5 1.433,5.397 2.1,10.897 2,16.5 -7.124,0.392 -14.124,-0.274 -21,-2 -1.63,-4.886 -2.63,-9.886 -3,-15 1.241,3.676 2.908,7.176 5,10.5 -1.333,1.333 -1.333,2.667 0,4 5.657,0.095 11.324,-0.072 17,-0.5 0.262,-1.478 -0.071,-2.811 -1,-4 -2.606,-0.844 -4.939,-2.011 -7,-3.5 0.952,-2.546 2.785,-4.046 5.5,-4.5 0.495,-1.973 0.662,-3.973 0.5,-6 -2.819,-1.202 -5.319,-1.202 -7.5,0 -3.327,-1.807 -6.994,-2.807 -11,-3 -0.833,0.333 -1.667,0.667 -2.5,1 0.809,1.571 1.143,3.238 1,5 -1,-1.333 -2,-2.667 -3,-4 0.17,-1.322 -0.163,-2.489 -1,-3.5 5.317,-0.094 10.651,0.073 16,0.5 4.297,0.222 8.297,-0.445 12,-2 3.365,-0.454 6.698,-1.12 10,-2 1,0.333 2,0.667 3,1 -4.577,2.118 -8.91,4.451 -13,7 z"
         id="path496" />
    </g>
    <g
       id="g497"
       style="clip-rule:evenodd;fill-rule:evenodd;image-rendering:optimizeQuality;shape-rendering:geometricPrecision;text-rendering:geometricPrecision"
       transform="matrix(0.30622937,0,0,0.30622937,-223.6967,-119.05931)">
      <path
         style="opacity:1"
         fill="#f9edc9"
         d="m 829.5,482.5 c -3.406,1.881 -6.739,4.048 -10,6.5 -1.428,0.579 -2.762,0.412 -4,-0.5 -2.128,-1.129 -4.461,-1.296 -7,-0.5 -2.98,2.414 -3.647,5.248 -2,8.5 1,2.667 2,5.333 3,8 2.647,9.255 4.98,18.589 7,28 -1.784,-1.074 -2.951,-2.74 -3.5,-5 -1.644,-9.626 -4.644,-18.626 -9,-27 -0.667,-3.333 -0.667,-6.667 0,-10 1.227,-2.226 3.061,-3.726 5.5,-4.5 6.885,-0.063 13.552,-1.23 20,-3.5 z"
         id="path497" />
    </g>
    <g
       id="g499"
       style="clip-rule:evenodd;fill-rule:evenodd;image-rendering:optimizeQuality;shape-rendering:geometricPrecision;text-rendering:geometricPrecision"
       transform="matrix(0.30622937,0,0,0.30622937,-223.6967,-119.05931)">
      <path
         style="opacity:1"
         fill="#f9eabb"
         d="m 848.5,495.5 c 0.821,3.054 0.821,6.054 0,9 -5.359,2.348 -10.693,4.681 -16,7 0.437,-1.574 1.437,-2.741 3,-3.5 3.627,-1.476 7.293,-2.976 11,-4.5 1.152,-2.606 1.318,-5.273 0.5,-8 -1.439,-1.775 -2.439,-3.775 -3,-6 -6.916,-0.51 -13.249,1.49 -19,6 -0.618,4.826 0.049,9.492 2,14 1.049,1.607 2.549,2.273 4.5,2 -0.901,2.227 -2.567,3.227 -5,3 0.098,-2.053 -0.569,-3.72 -2,-5 -0.59,-4.102 -1.59,-8.102 -3,-12 0.167,-1 0.333,-2 0.5,-3 6.564,-4.531 13.731,-7.864 21.5,-10 1.925,0.09 3.092,1.09 3.5,3 0.395,2.707 0.895,5.373 1.5,8 z"
         id="path499" />
    </g>
    <g
       id="g500"
       style="clip-rule:evenodd;fill-rule:evenodd;image-rendering:optimizeQuality;shape-rendering:geometricPrecision;text-rendering:geometricPrecision"
       transform="matrix(0.30622937,0,0,0.30622937,-223.6967,-119.05931)">
      <path
         style="opacity:1"
         fill="#faf9f6"
         d="m 832.5,511.5 c -0.333,0 -0.667,0 -1,0 -1.951,0.273 -3.451,-0.393 -4.5,-2 -1.951,-4.508 -2.618,-9.174 -2,-14 5.751,-4.51 12.084,-6.51 19,-6 0.561,2.225 1.561,4.225 3,6 0.818,2.727 0.652,5.394 -0.5,8 -3.707,1.524 -7.373,3.024 -11,4.5 -1.563,0.759 -2.563,1.926 -3,3.5 z"
         id="path500" />
    </g>
    <g
       id="g503"
       style="clip-rule:evenodd;fill-rule:evenodd;image-rendering:optimizeQuality;shape-rendering:geometricPrecision;text-rendering:geometricPrecision"
       transform="matrix(0.30622937,0,0,0.30622937,-223.6967,-119.05931)">
      <path
         style="opacity:1"
         fill="#f4d9a0"
         d="m 876.5,499.5 c 0.522,1.719 1.522,3.052 3,4 5.57,-0.246 10.57,1.087 15,4 -5.173,-1.835 -10.506,-2.835 -16,-3 0,1.333 0,2.667 0,4 -0.934,-1.068 -1.268,-2.401 -1,-4 -7.723,-0.3 -15.39,0.033 -23,1 -0.333,1 -0.667,2 -1,3 1.089,3.597 1.755,7.263 2,11 -2.091,-4.691 -3.424,-9.691 -4,-15 1.291,0.237 2.291,-0.096 3,-1 7.008,0.166 14.008,0 21,-0.5 0.837,-1.011 1.17,-2.178 1,-3.5 z"
         id="path503" />
    </g>
    <g
       id="g504"
       style="clip-rule:evenodd;fill-rule:evenodd;image-rendering:optimizeQuality;shape-rendering:geometricPrecision;text-rendering:geometricPrecision"
       transform="matrix(0.30622937,0,0,0.30622937,-223.6967,-119.05931)">
      <path
         style="opacity:1"
         fill="#f8dc9f"
         d="m 899.5,493.5 c 2.201,4.986 3.201,10.32 3,16 -2.928,-0.065 -5.595,-0.732 -8,-2 2,0 4,0 6,0 -0.627,-4.641 -0.96,-9.307 -1,-14 z"
         id="path504" />
    </g>
    <g
       id="g505"
       style="clip-rule:evenodd;fill-rule:evenodd;image-rendering:optimizeQuality;shape-rendering:geometricPrecision;text-rendering:geometricPrecision"
       transform="matrix(0.30622937,0,0,0.30622937,-223.6967,-119.05931)">
      <path
         style="opacity:1"
         fill="#faf2c9"
         d="m 878.5,508.5 c 1.293,3.179 1.96,6.512 2,10 0,2 0,4 0,6 -5.526,-0.321 -10.86,0.012 -16,1 -1,0 -2,0 -3,0 -2.386,0.241 -4.386,-0.425 -6,-2 0,-1.333 0,-2.667 0,-4 -0.245,-3.737 -0.911,-7.403 -2,-11 0.333,-1 0.667,-2 1,-3 7.61,-0.967 15.277,-1.3 23,-1 -0.268,1.599 0.066,2.932 1,4 z"
         id="path505" />
    </g>
    <g
       id="g506"
       style="clip-rule:evenodd;fill-rule:evenodd;image-rendering:optimizeQuality;shape-rendering:geometricPrecision;text-rendering:geometricPrecision"
       transform="matrix(0.30622937,0,0,0.30622937,-223.6967,-119.05931)">
      <path
         style="opacity:1"
         fill="#faf9f6"
         d="m 857.5,505.5 c 6.333,0 12.667,0 19,0 0.452,6.18 1.452,12.18 3,18 -7.032,0.33 -14.032,-0.003 -21,-1 -1.392,-4.068 -2.392,-8.235 -3,-12.5 0.259,-1.787 0.925,-3.287 2,-4.5 z"
         id="path506" />
    </g>
    <g
       id="g508"
       style="clip-rule:evenodd;fill-rule:evenodd;image-rendering:optimizeQuality;shape-rendering:geometricPrecision;text-rendering:geometricPrecision"
       transform="matrix(0.30622937,0,0,0.30622937,-223.6967,-119.05931)">
      <path
         style="opacity:1"
         fill="#f38502"
         d="m 957.5,526.5 c -0.667,0 -1.333,0 -2,0 -0.417,-0.624 -1.084,-0.957 -2,-1 -5.353,2.143 -10.853,3.809 -16.5,5 -1.107,-0.085 -2.107,-0.419 -3,-1 -1.328,-4.942 -1.661,-9.942 -1,-15 2.466,-1.315 4.632,-2.982 6.5,-5 3.534,-1.217 7.034,-1.217 10.5,0 0.75,-0.626 1.584,-1.126 2.5,-1.5 -1.315,-1.395 -0.981,-2.395 1,-3 -2.401,-0.805 -2.234,-1.638 0.5,-2.5 1.33,5.258 2.664,10.591 4,16 0.801,2.867 0.634,5.534 -0.5,8 z"
         id="path508" />
    </g>
    <g
       id="g509"
       style="clip-rule:evenodd;fill-rule:evenodd;image-rendering:optimizeQuality;shape-rendering:geometricPrecision;text-rendering:geometricPrecision"
       transform="matrix(0.30622937,0,0,0.30622937,-223.6967,-119.05931)">
      <path
         style="opacity:1"
         fill="#d6943c"
         d="m 771.5,501.5 c -1.578,7.728 -3.911,15.061 -7,22 1.413,-7.658 3.746,-14.992 7,-22 z"
         id="path509" />
    </g>
    <g
       id="g510"
       style="clip-rule:evenodd;fill-rule:evenodd;image-rendering:optimizeQuality;shape-rendering:geometricPrecision;text-rendering:geometricPrecision"
       transform="matrix(0.30622937,0,0,0.30622937,-223.6967,-119.05931)">
      <path
         style="opacity:1"
         fill="#d89236"
         d="m 848.5,495.5 c 0.617,0.111 1.117,0.444 1.5,1 0.333,2 0.667,4 1,6 1.011,0.837 2.178,1.17 3.5,1 -0.709,0.904 -1.709,1.237 -3,1 0.576,5.309 1.909,10.309 4,15 0,1.333 0,2.667 0,4 0.116,3.41 -1.55,4.744 -5,4 2.425,-6.34 2.092,-12.673 -1,-19 -1.574,-1.131 -3.241,-1.298 -5,-0.5 -5.633,2.403 -11.133,4.903 -16.5,7.5 -2.906,-0.883 -4.073,-2.883 -3.5,-6 1.431,1.28 2.098,2.947 2,5 2.433,0.227 4.099,-0.773 5,-3 0.333,0 0.667,0 1,0 5.307,-2.319 10.641,-4.652 16,-7 0.821,-2.946 0.821,-5.946 0,-9 z"
         id="path510" />
    </g>
    <g
       id="g511"
       style="clip-rule:evenodd;fill-rule:evenodd;image-rendering:optimizeQuality;shape-rendering:geometricPrecision;text-rendering:geometricPrecision"
       transform="matrix(0.30622937,0,0,0.30622937,-223.6967,-119.05931)">
      <path
         style="opacity:1"
         fill="#f4d69b"
         d="m 935.5,487.5 c -0.333,0.667 -0.667,1.333 -1,2 -3.624,0.067 -5.957,1.733 -7,5 0.75,4.999 1.416,9.999 2,15 3.762,-0.191 7.429,-0.858 11,-2 -0.333,0.667 -0.667,1.333 -1,2 -6.133,-0.515 -9.466,2.152 -10,8 -0.934,-1.068 -1.268,-2.401 -1,-4 -7.333,0 -14.667,0 -22,0 0.015,6.964 1.015,13.631 3,20 -0.934,1.068 -1.268,2.401 -1,4 -0.661,-1.218 -1.328,-2.551 -2,-4 -1.526,-0.494 -2.859,-1.161 -4,-2 1.333,0 2.667,0 4,0 0.31,-3.213 -0.023,-6.213 -1,-9 -0.333,-3.333 -0.667,-6.667 -1,-10 7.92,0.315 15.753,-0.018 23.5,-1 -0.713,-6.988 -1.546,-13.988 -2.5,-21 0.333,0 0.667,0 1,0 2.926,-1.198 5.926,-2.198 9,-3 z"
         id="path511" />
    </g>
    <g
       id="g514"
       style="clip-rule:evenodd;fill-rule:evenodd;image-rendering:optimizeQuality;shape-rendering:geometricPrecision;text-rendering:geometricPrecision"
       transform="matrix(0.30622937,0,0,0.30622937,-223.6967,-119.05931)">
      <path
         style="opacity:1"
         fill="#d88e2e"
         d="m 899.5,489.5 c 1,1.333 2,2.667 3,4 0,0.333 0,0.667 0,1 0.37,5.114 1.37,10.114 3,15 6.876,1.726 13.876,2.392 21,2 0.1,-5.603 -0.567,-11.103 -2,-16.5 0.008,-1.707 0.342,-3.207 1,-4.5 0.954,7.012 1.787,14.012 2.5,21 -7.747,0.982 -15.58,1.315 -23.5,1 0.333,3.333 0.667,6.667 1,10 0.977,2.787 1.31,5.787 1,9 -1.333,0 -2.667,0 -4,0 -6.365,-1.54 -12.698,-3.206 -19,-5 0.187,4.413 0.854,8.746 2,13 0,2.333 0,4.667 0,7 -8.532,0.533 -16.865,-0.134 -25,-2 -0.017,-2.065 -0.35,-4.065 -1,-6 -0.017,-2.065 -0.35,-4.065 -1,-6 1.467,3.904 3.133,7.904 5,12 6.642,1.164 13.308,1.331 20,0.5 0.522,-0.561 0.855,-1.228 1,-2 -1.291,-4.983 -2.291,-9.983 -3,-15 -7.659,-0.5 -15.326,-0.666 -23,-0.5 0,1.333 0,2.667 0,4 -0.951,-1.419 -1.284,-3.085 -1,-5 1.599,0.268 2.932,-0.066 4,-1 1,0 2,0 3,0 5.667,0 11.333,0 17,0 0.302,-2.559 -0.032,-4.893 -1,-7 -0.04,-3.488 -0.707,-6.821 -2,-10 0,-1.333 0,-2.667 0,-4 5.494,0.165 10.827,1.165 16,3 2.405,1.268 5.072,1.935 8,2 0.201,-5.68 -0.799,-11.014 -3,-16 0,-1.333 0,-2.667 0,-4 z"
         id="path514" />
    </g>
    <g
       id="g515"
       style="clip-rule:evenodd;fill-rule:evenodd;image-rendering:optimizeQuality;shape-rendering:geometricPrecision;text-rendering:geometricPrecision"
       transform="matrix(0.30622937,0,0,0.30622937,-223.6967,-119.05931)">
      <path
         style="opacity:1"
         fill="#f28505"
         d="m 905.5,522.5 c 0,2.667 0,5.333 0,8 -4.727,-0.409 -9.06,-1.909 -13,-4.5 -2.667,-0.333 -5.333,-0.667 -8,-1 -1.607,-4.875 -2.941,-9.875 -4,-15 -0.239,-2.259 0.761,-3.426 3,-3.5 6.023,1.396 12.023,2.896 18,4.5 1.117,3.998 2.45,7.832 4,11.5 z"
         id="path515" />
    </g>
    <g
       id="g516"
       style="clip-rule:evenodd;fill-rule:evenodd;image-rendering:optimizeQuality;shape-rendering:geometricPrecision;text-rendering:geometricPrecision"
       transform="matrix(0.30622937,0,0,0.30622937,-223.6967,-119.05931)">
      <path
         style="opacity:1"
         fill="#faf8e2"
         d="m 929.5,517.5 c 0,0.333 0,0.667 0,1 0.754,4.963 1.087,9.963 1,15 -6,0 -12,0 -18,0 -1,0 -2,0 -3,0 -1.985,-6.369 -2.985,-13.036 -3,-20 7.333,0 14.667,0 22,0 -0.268,1.599 0.066,2.932 1,4 z"
         id="path516" />
    </g>
    <g
       id="g517"
       style="clip-rule:evenodd;fill-rule:evenodd;image-rendering:optimizeQuality;shape-rendering:geometricPrecision;text-rendering:geometricPrecision"
       transform="matrix(0.30622937,0,0,0.30622937,-223.6967,-119.05931)">
      <path
         style="opacity:1"
         fill="#faf9f9"
         d="m 909.5,515.5 c 5.555,-0.097 11.222,0.237 17,1 0.158,3.712 0.158,7.212 0,10.5 2.56,3.973 1.227,5.473 -4,4.5 -3.77,-0.154 -7.436,-0.821 -11,-2 -0.762,-1.128 -1.429,-2.295 -2,-3.5 0.766,-3.418 0.766,-6.918 0,-10.5 z"
         id="path517" />
    </g>
    <g
       id="g519"
       style="clip-rule:evenodd;fill-rule:evenodd;image-rendering:optimizeQuality;shape-rendering:geometricPrecision;text-rendering:geometricPrecision"
       transform="matrix(0.30622937,0,0,0.30622937,-223.6967,-119.05931)">
      <path
         style="opacity:1"
         fill="#f5dba2"
         d="m 778.5,510.5 c -5.014,19.019 -6.347,38.353 -4,58 -2.588,-12.054 -3.588,-24.387 -3,-37 1.927,-5.428 3.427,-11.095 4.5,-17 0.608,-1.566 1.442,-2.9 2.5,-4 z"
         id="path519" />
    </g>
    <g
       id="g520"
       style="clip-rule:evenodd;fill-rule:evenodd;image-rendering:optimizeQuality;shape-rendering:geometricPrecision;text-rendering:geometricPrecision"
       transform="matrix(0.30622937,0,0,0.30622937,-223.6967,-119.05931)">
      <path
         style="opacity:1"
         fill="#ecc170"
         d="m 880.5,518.5 c 0.968,2.107 1.302,4.441 1,7 -5.667,0 -11.333,0 -17,0 5.14,-0.988 10.474,-1.321 16,-1 0,-2 0,-4 0,-6 z"
         id="path520" />
    </g>
    <g
       id="g522"
       style="clip-rule:evenodd;fill-rule:evenodd;image-rendering:optimizeQuality;shape-rendering:geometricPrecision;text-rendering:geometricPrecision"
       transform="matrix(0.30622937,0,0,0.30622937,-223.6967,-119.05931)">
      <path
         style="opacity:1"
         fill="#f5d698"
         d="m 955.5,526.5 c 2.385,6.982 3.052,13.982 2,21 0.302,-2.559 -0.032,-4.893 -1,-7 -0.152,-3.762 -0.819,-7.428 -2,-11 -1.826,-0.42 -3.826,-0.42 -6,0 1.926,-1.793 4.259,-2.793 7,-3 z"
         id="path522" />
    </g>
    <g
       id="g523"
       style="clip-rule:evenodd;fill-rule:evenodd;image-rendering:optimizeQuality;shape-rendering:geometricPrecision;text-rendering:geometricPrecision"
       transform="matrix(0.30622937,0,0,0.30622937,-223.6967,-119.05931)">
      <path
         style="opacity:1"
         fill="#f9e8bb"
         d="m 991.5,504.5 c 4.826,8.95 7.659,18.617 8.5,29 0.67,8 0.67,16 0,24 -0.251,5.658 -1.418,10.992 -3.5,16 0.926,-9 1.926,-18 3,-27 -1.162,-8.542 -2.829,-16.876 -5,-25 -0.493,-2.306 -0.826,-4.639 -1,-7 -0.667,-3.333 -1.333,-6.667 -2,-10 z"
         id="path523" />
    </g>
    <g
       id="g525"
       style="clip-rule:evenodd;fill-rule:evenodd;image-rendering:optimizeQuality;shape-rendering:geometricPrecision;text-rendering:geometricPrecision"
       transform="matrix(0.30622937,0,0,0.30622937,-223.6967,-119.05931)">
      <path
         style="opacity:1"
         fill="#dc8a24"
         d="m 939.5,509.5 c -1.868,2.018 -4.034,3.685 -6.5,5 -0.661,5.058 -0.328,10.058 1,15 0.893,0.581 1.893,0.915 3,1 5.647,-1.191 11.147,-2.857 16.5,-5 0.916,0.043 1.583,0.376 2,1 -2.741,0.207 -5.074,1.207 -7,3 -1.527,-0.073 -2.527,0.594 -3,2 -3.098,0.256 -6.098,0.922 -9,2 -1.699,-0.027 -3.033,-0.694 -4,-2 -0.494,-4.541 -1.494,-8.874 -3,-13 0,-0.333 0,-0.667 0,-1 0.534,-5.848 3.867,-8.515 10,-8 z"
         id="path525" />
    </g>
    <g
       id="g526"
       style="clip-rule:evenodd;fill-rule:evenodd;image-rendering:optimizeQuality;shape-rendering:geometricPrecision;text-rendering:geometricPrecision"
       transform="matrix(0.30622937,0,0,0.30622937,-223.6967,-119.05931)">
      <path
         style="opacity:1"
         fill="#faf9f4"
         d="m 956.5,540.5 c 0.162,2.027 -0.005,4.027 -0.5,6 -3.676,1.685 -7.343,3.351 -11,5 -1.31,0.63 -2.144,1.63 -2.5,3 -0.333,0 -0.667,0 -1,0 -1.333,0 -2.667,0 -4,0 0.065,-5.75 -0.602,-11.417 -2,-17 0.333,-0.667 0.667,-1.333 1,-2 3.457,-0.594 6.457,-1.927 9,-4 0.473,-1.406 1.473,-2.073 3,-2 2.174,-0.42 4.174,-0.42 6,0 1.181,3.572 1.848,7.238 2,11 z"
         id="path526" />
    </g>
    <g
       id="g537"
       style="clip-rule:evenodd;fill-rule:evenodd;image-rendering:optimizeQuality;shape-rendering:geometricPrecision;text-rendering:geometricPrecision"
       transform="matrix(0.30622937,0,0,0.30622937,-223.6967,-119.05931)">
      <path
         style="opacity:1"
         fill="#f48602"
         d="m 858.5,532.5 c 0,-0.333 0,-0.667 0,-1 0,-1.333 0,-2.667 0,-4 7.674,-0.166 15.341,0 23,0.5 0.709,5.017 1.709,10.017 3,15 -0.145,0.772 -0.478,1.439 -1,2 -6.692,0.831 -13.358,0.664 -20,-0.5 -1.867,-4.096 -3.533,-8.096 -5,-12 z"
         id="path537" />
    </g>
    <g
       id="g538"
       style="clip-rule:evenodd;fill-rule:evenodd;image-rendering:optimizeQuality;shape-rendering:geometricPrecision;text-rendering:geometricPrecision"
       transform="matrix(0.30622937,0,0,0.30622937,-223.6967,-119.05931)">
      <path
         style="opacity:1"
         fill="#faf9e7"
         d="m 899.5,550.5 c -3.034,-1.518 -6.367,-2.351 -10,-2.5 -1.314,-0.985 -2.314,-2.152 -3,-3.5 0,-1.667 0,-3.333 0,-5 0,-3 0,-6 0,-9 2.687,-0.164 5.354,0.003 8,0.5 4.108,1.095 8.108,2.262 12,3.5 0.694,5.305 1.028,10.638 1,16 -2.667,0 -5.333,0 -8,0 z"
         id="path538" />
    </g>
    <g
       id="g539"
       style="clip-rule:evenodd;fill-rule:evenodd;image-rendering:optimizeQuality;shape-rendering:geometricPrecision;text-rendering:geometricPrecision"
       transform="matrix(0.30622937,0,0,0.30622937,-223.6967,-119.05931)">
      <path
         style="opacity:1"
         fill="#faf9f8"
         d="m 888.5,533.5 c 1.293,-0.658 2.793,-0.992 4.5,-1 3.806,1.156 7.639,2.156 11.5,3 0.472,4.098 0.472,8.098 0,12 -1.107,0.522 -2.274,0.855 -3.5,1 -4.172,-0.715 -8.338,-1.381 -12.5,-2 0.799,-4.735 0.799,-9.069 0,-13 z"
         id="path539" />
    </g>
    <g
       id="g540"
       style="clip-rule:evenodd;fill-rule:evenodd;image-rendering:optimizeQuality;shape-rendering:geometricPrecision;text-rendering:geometricPrecision"
       transform="matrix(0.30622937,0,0,0.30622937,-223.6967,-119.05931)">
      <path
         style="opacity:1"
         fill="#f9eab7"
         d="m 902.5,531.5 c 1.141,0.839 2.474,1.506 4,2 0.672,1.449 1.339,2.782 2,4 0.906,5.677 1.906,11.343 3,17 -1.333,0 -2.667,0 -4,0 -2.754,-1.141 -5.421,-2.475 -8,-4 2.667,0 5.333,0 8,0 0.028,-5.362 -0.306,-10.695 -1,-16 -3.892,-1.238 -7.892,-2.405 -12,-3.5 -2.646,-0.497 -5.313,-0.664 -8,-0.5 0,3 0,6 0,9 -0.333,0 -0.667,0 -1,0 -1.146,-4.254 -1.813,-8.587 -2,-13 6.302,1.794 12.635,3.46 19,5 z"
         id="path540" />
    </g>
    <g
       id="g541"
       style="clip-rule:evenodd;fill-rule:evenodd;image-rendering:optimizeQuality;shape-rendering:geometricPrecision;text-rendering:geometricPrecision"
       transform="matrix(0.30622937,0,0,0.30622937,-223.6967,-119.05931)">
      <path
         style="opacity:1"
         fill="#f7da99"
         d="m 929.5,518.5 c 1.506,4.126 2.506,8.459 3,13 0,1 0,2 0,3 -6.854,0.324 -13.521,-0.009 -20,-1 6,0 12,0 18,0 0.087,-5.037 -0.246,-10.037 -1,-15 z"
         id="path541" />
    </g>
    <g
       id="g542"
       style="clip-rule:evenodd;fill-rule:evenodd;image-rendering:optimizeQuality;shape-rendering:geometricPrecision;text-rendering:geometricPrecision"
       transform="matrix(0.30622937,0,0,0.30622937,-223.6967,-119.05931)">
      <path
         style="opacity:1"
         fill="#faf6df"
         d="m 994.5,521.5 c 2.171,8.124 3.838,16.458 5,25 -1.074,9 -2.074,18 -3,27 -1.183,5.746 -2.683,11.413 -4.5,17 -3.06,5.558 -5.893,11.225 -8.5,17 -0.333,0 -0.667,0 -1,0 4.361,-13.652 8.861,-27.319 13.5,-41 0.855,-15.338 0.355,-30.338 -1.5,-45 z"
         id="path542" />
    </g>
    <g
       id="g543"
       style="clip-rule:evenodd;fill-rule:evenodd;image-rendering:optimizeQuality;shape-rendering:geometricPrecision;text-rendering:geometricPrecision"
       transform="matrix(0.30622937,0,0,0.30622937,-223.6967,-119.05931)">
      <path
         style="opacity:1"
         fill="#f0cf91"
         d="m 855.5,523.5 c 1.614,1.575 3.614,2.241 6,2 -1.068,0.934 -2.401,1.268 -4,1 -0.284,1.915 0.049,3.581 1,5 0,0.333 0,0.667 0,1 0.65,1.935 0.983,3.935 1,6 -1.81,-2.645 -2.81,-5.645 -3,-9 -3.018,0.204 -6.018,0.537 -9,1 1.194,-0.772 2.194,-1.772 3,-3 3.45,0.744 5.116,-0.59 5,-4 z"
         id="path543" />
    </g>
    <g
       id="g544"
       style="clip-rule:evenodd;fill-rule:evenodd;image-rendering:optimizeQuality;shape-rendering:geometricPrecision;text-rendering:geometricPrecision"
       transform="matrix(0.30622937,0,0,0.30622937,-223.6967,-119.05931)">
      <path
         style="opacity:1"
         fill="#faecbd"
         d="m 847.5,530.5 c -4.145,2.109 -7.645,5.109 -10.5,9 0.291,3.973 0.791,7.973 1.5,12 -2.481,-4.288 -3.648,-8.954 -3.5,-14 3.364,-3.765 7.531,-6.099 12.5,-7 z"
         id="path544" />
    </g>
    <g
       id="g547"
       style="clip-rule:evenodd;fill-rule:evenodd;image-rendering:optimizeQuality;shape-rendering:geometricPrecision;text-rendering:geometricPrecision"
       transform="matrix(0.30622937,0,0,0.30622937,-223.6967,-119.05931)">
      <path
         style="opacity:1"
         fill="#f9e9bd"
         d="m 945.5,531.5 c -2.543,2.073 -5.543,3.406 -9,4 -0.333,0.667 -0.667,1.333 -1,2 1.398,5.583 2.065,11.25 2,17 1.333,0 2.667,0 4,0 -0.342,0.838 -1.008,1.172 -2,1 -1,0 -2,0 -3,0 0.295,-2.235 -0.039,-4.235 -1,-6 0,-0.333 0,-0.667 0,-1 -0.667,-4.667 -1.333,-9.333 -2,-14 1.291,0.237 2.291,-0.096 3,-1 2.902,-1.078 5.902,-1.744 9,-2 z"
         id="path547" />
    </g>
    <g
       id="g548"
       style="clip-rule:evenodd;fill-rule:evenodd;image-rendering:optimizeQuality;shape-rendering:geometricPrecision;text-rendering:geometricPrecision"
       transform="matrix(0.30622937,0,0,0.30622937,-223.6967,-119.05931)">
      <path
         style="opacity:1"
         fill="#faf2d4"
         d="m 981.5,467.5 c 0,-0.333 0,-0.667 0,-1 2.627,1.046 5.127,2.38 7.5,4 1.586,4.178 3.919,7.845 7,11 14.8,28.602 19.47,58.935 14,91 -0.38,0.556 -0.88,0.889 -1.5,1 2.18,-14.085 2.51,-28.085 1,-42 -1.52,-8.055 -3.35,-16.055 -5.5,-24 -0.81,-4.287 -2.64,-7.954 -5.5,-11 -0.991,-4.985 -2.824,-9.651 -5.5,-14 -1.697,-2.52 -3.53,-4.853 -5.5,-7 -1.622,-2.955 -3.622,-5.622 -6,-8 z"
         id="path548" />
    </g>
    <g
       id="g549"
       style="clip-rule:evenodd;fill-rule:evenodd;image-rendering:optimizeQuality;shape-rendering:geometricPrecision;text-rendering:geometricPrecision"
       transform="matrix(0.30622937,0,0,0.30622937,-223.6967,-119.05931)">
      <path
         style="opacity:1"
         fill="#dda454"
         d="m 764.5,523.5 c -1.223,14.991 -1.223,29.991 0,45 -1.744,-10.781 -2.41,-21.781 -2,-33 -0.417,-4.317 0.25,-8.317 2,-12 z"
         id="path549" />
    </g>
    <g
       id="g550"
       style="clip-rule:evenodd;fill-rule:evenodd;image-rendering:optimizeQuality;shape-rendering:geometricPrecision;text-rendering:geometricPrecision"
       transform="matrix(0.30622937,0,0,0.30622937,-223.6967,-119.05931)">
      <path
         style="opacity:1"
         fill="#d78e31"
         d="m 809.5,504.5 c 0.333,0 0.667,0 1,0 3.703,9.744 6.536,19.744 8.5,30 0.667,0.667 1.333,1.333 2,2 3.236,13.355 6.403,26.688 9.5,40 -0.667,-1 -1.333,-2 -2,-3 -3.003,-14.053 -7.003,-27.72 -12,-41 -2.02,-9.411 -4.353,-18.745 -7,-28 z"
         id="path550" />
    </g>
    <g
       id="g551"
       style="clip-rule:evenodd;fill-rule:evenodd;image-rendering:optimizeQuality;shape-rendering:geometricPrecision;text-rendering:geometricPrecision"
       transform="matrix(0.30622937,0,0,0.30622937,-223.6967,-119.05931)">
      <path
         style="opacity:1"
         fill="#f38704"
         d="m 935.5,548.5 c 0,0.333 0,0.667 0,1 0.295,2.235 -0.039,4.235 -1,6 -7.368,0.183 -14.701,-0.15 -22,-1 -1.15,-6.274 -1.817,-12.607 -2,-19 7.333,0 14.667,0 22,0 -0.165,3.018 0.002,6.018 0.5,9 0.2,1.82 1.034,3.153 2.5,4 z"
         id="path551" />
    </g>
    <g
       id="g553"
       style="clip-rule:evenodd;fill-rule:evenodd;image-rendering:optimizeQuality;shape-rendering:geometricPrecision;text-rendering:geometricPrecision"
       transform="matrix(0.30622937,0,0,0.30622937,-223.6967,-119.05931)">
      <path
         style="opacity:1"
         fill="#dd9e48"
         d="m 850.5,527.5 c -0.806,1.228 -1.806,2.228 -3,3 -4.969,0.901 -9.136,3.235 -12.5,7 -0.148,5.046 1.019,9.712 3.5,14 -0.17,1.322 0.163,2.489 1,3.5 2.938,0.712 5.604,0.212 8,-1.5 -1.613,3.377 -4.279,4.543 -8,3.5 -1.994,-3.967 -3.994,-7.967 -6,-12 -1.849,-4.246 -1.182,-7.913 2,-11 4.947,-2.476 9.947,-4.642 15,-6.5 z"
         id="path553" />
    </g>
    <g
       id="g554"
       style="clip-rule:evenodd;fill-rule:evenodd;image-rendering:optimizeQuality;shape-rendering:geometricPrecision;text-rendering:geometricPrecision"
       transform="matrix(0.30622937,0,0,0.30622937,-223.6967,-119.05931)">
      <path
         style="opacity:1"
         fill="#f7d9a3"
         d="m 1009.5,531.5 c 1.51,13.915 1.18,27.915 -1,42 0,0.333 0,0.667 0,1 -0.67,0.667 -1.33,1.333 -2,2 2.63,-14.869 3.63,-29.869 3,-45 z"
         id="path554" />
    </g>
    <g
       id="g556"
       style="clip-rule:evenodd;fill-rule:evenodd;image-rendering:optimizeQuality;shape-rendering:geometricPrecision;text-rendering:geometricPrecision"
       transform="matrix(0.30622937,0,0,0.30622937,-223.6967,-119.05931)">
      <path
         style="opacity:1"
         fill="#d79d49"
         d="m 885.5,539.5 c 0.333,0 0.667,0 1,0 0,1.667 0,3.333 0,5 0,1 0,2 0,3 -7.341,-0.166 -14.674,0 -22,0.5 -0.597,1.062 -0.93,2.228 -1,3.5 0.88,3.302 1.546,6.635 2,10 -1.528,-1.302 -2.528,-2.969 -3,-5 0.239,-1.967 -0.094,-3.801 -1,-5.5 -4.481,-0.122 -8.815,0.711 -13,2.5 3.295,-2.314 6.962,-4.148 11,-5.5 0.837,-1.011 1.17,-2.178 1,-3.5 8.135,1.866 16.468,2.533 25,2 0,-2.333 0,-4.667 0,-7 z"
         id="path556" />
    </g>
    <g
       id="g557"
       style="clip-rule:evenodd;fill-rule:evenodd;image-rendering:optimizeQuality;shape-rendering:geometricPrecision;text-rendering:geometricPrecision"
       transform="matrix(0.30622937,0,0,0.30622937,-223.6967,-119.05931)">
      <path
         style="opacity:1"
         fill="#f9e6b7"
         d="m 959.5,514.5 c 1.391,2.46 2.558,5.126 3.5,8 2.75,14.362 5.25,28.695 7.5,43 0.795,4.094 -0.538,7.261 -4,9.5 -5.766,3.465 -11.766,6.298 -18,8.5 -0.667,0 -1.333,0 -2,0 5.384,-2.189 10.717,-4.689 16,-7.5 2.109,-1.141 3.942,-2.641 5.5,-4.5 0.361,-7.587 -0.472,-14.92 -2.5,-22 0,-0.333 0,-0.667 0,-1 -1.164,-10.357 -3.164,-20.357 -6,-30 0,-0.333 0,-0.667 0,-1 0,-1 0,-2 0,-3 z"
         id="path557" />
    </g>
    <g
       id="g558"
       style="clip-rule:evenodd;fill-rule:evenodd;image-rendering:optimizeQuality;shape-rendering:geometricPrecision;text-rendering:geometricPrecision"
       transform="matrix(0.30622937,0,0,0.30622937,-223.6967,-119.05931)">
      <path
         style="opacity:1"
         fill="#d4943a"
         d="m 932.5,531.5 c 0.967,1.306 2.301,1.973 4,2 -0.709,0.904 -1.709,1.237 -3,1 0.667,4.667 1.333,9.333 2,14 -1.466,-0.847 -2.3,-2.18 -2.5,-4 -0.498,-2.982 -0.665,-5.982 -0.5,-9 -7.333,0 -14.667,0 -22,0 0.183,6.393 0.85,12.726 2,19 7.299,0.85 14.632,1.183 22,1 -6.871,1.313 -13.871,1.313 -21,0 -0.952,1.545 -1.285,3.212 -1,5 -0.333,0 -0.667,0 -1,0 0,-1.667 0,-3.333 0,-5 -1.599,0.268 -2.932,-0.066 -4,-1 1.333,0 2.667,0 4,0 -1.094,-5.657 -2.094,-11.323 -3,-17 -0.268,-1.599 0.066,-2.932 1,-4 1,0 2,0 3,0 6.479,0.991 13.146,1.324 20,1 0,-1 0,-2 0,-3 z"
         id="path558" />
    </g>
    <g
       id="g559"
       style="clip-rule:evenodd;fill-rule:evenodd;image-rendering:optimizeQuality;shape-rendering:geometricPrecision;text-rendering:geometricPrecision"
       transform="matrix(0.30622937,0,0,0.30622937,-223.6967,-119.05931)">
      <path
         style="opacity:1"
         fill="#f9efc3"
         d="m 956.5,540.5 c 0.968,2.107 1.302,4.441 1,7 -4.824,2.852 -9.824,5.186 -15,7 0.356,-1.37 1.19,-2.37 2.5,-3 3.657,-1.649 7.324,-3.315 11,-5 0.495,-1.973 0.662,-3.973 0.5,-6 z"
         id="path559" />
    </g>
    <g
       id="g560"
       style="clip-rule:evenodd;fill-rule:evenodd;image-rendering:optimizeQuality;shape-rendering:geometricPrecision;text-rendering:geometricPrecision"
       transform="matrix(0.30622937,0,0,0.30622937,-223.6967,-119.05931)">
      <path
         style="opacity:1"
         fill="#faf7e1"
         d="m 807.5,463.5 c -2.764,5.182 -6.264,9.849 -10.5,14 -1.581,5.488 -3.914,10.488 -7,15 -1.667,1.667 -3.333,3.333 -5,5 -0.72,1.612 -0.554,3.112 0.5,4.5 -2.59,4.771 -4.59,9.771 -6,15 0.145,0.772 0.478,1.439 1,2 -1.387,2.045 -2.554,4.212 -3.5,6.5 -0.417,7.339 -0.917,14.673 -1.5,22 0.672,10.066 1.672,20.066 3,30 -0.942,-3.155 -2.276,-6.155 -4,-9 -2.347,-19.647 -1.014,-38.981 4,-58 0.314,-3.447 1.148,-6.78 2.5,-10 2.705,-4.077 4.872,-8.41 6.5,-13 4.057,-5.09 7.89,-10.423 11.5,-16 2.703,-2.871 5.536,-5.538 8.5,-8 z"
         id="path560" />
    </g>
    <g
       id="g561"
       style="clip-rule:evenodd;fill-rule:evenodd;image-rendering:optimizeQuality;shape-rendering:geometricPrecision;text-rendering:geometricPrecision"
       transform="matrix(0.30622937,0,0,0.30622937,-223.6967,-119.05931)">
      <path
         style="opacity:1"
         fill="#faf6df"
         d="m 859.5,538.5 c 0.65,1.935 0.983,3.935 1,6 0.17,1.322 -0.163,2.489 -1,3.5 -4.038,1.352 -7.705,3.186 -11,5.5 -0.333,0 -0.667,0 -1,0 -2.396,1.712 -5.062,2.212 -8,1.5 -0.837,-1.011 -1.17,-2.178 -1,-3.5 -0.709,-4.027 -1.209,-8.027 -1.5,-12 2.855,-3.891 6.355,-6.891 10.5,-9 2.982,-0.463 5.982,-0.796 9,-1 0.19,3.355 1.19,6.355 3,9 z"
         id="path561" />
    </g>
    <g
       id="g562"
       style="clip-rule:evenodd;fill-rule:evenodd;image-rendering:optimizeQuality;shape-rendering:geometricPrecision;text-rendering:geometricPrecision"
       transform="matrix(0.30622937,0,0,0.30622937,-223.6967,-119.05931)">
      <path
         style="opacity:1"
         fill="#faf9f9"
         d="m 850.5,531.5 c 1.333,0 2.667,0 4,0 1.904,4.812 2.904,9.812 3,15 -5.57,0.639 -10.57,2.639 -15,6 -0.586,-0.209 -1.086,-0.543 -1.5,-1 -0.917,-4.119 -1.583,-8.119 -2,-12 1.5,-1.5 3,-3 4.5,-4.5 2.942,-0.144 5.276,-1.311 7,-3.5 z"
         id="path562" />
    </g>
    <g
       id="g563"
       style="clip-rule:evenodd;fill-rule:evenodd;image-rendering:optimizeQuality;shape-rendering:geometricPrecision;text-rendering:geometricPrecision"
       transform="matrix(0.30622937,0,0,0.30622937,-223.6967,-119.05931)">
      <path
         style="opacity:1"
         fill="#f2d79f"
         d="m 886.5,544.5 c 0.686,1.348 1.686,2.515 3,3.5 3.633,0.149 6.966,0.982 10,2.5 -3.635,-0.614 -7.302,-0.948 -11,-1 0,1 0,2 0,3 -0.934,-1.068 -1.268,-2.401 -1,-4 -7.341,-0.166 -14.674,0 -22,0.5 -1.301,1.616 -1.301,3.116 0,4.5 0.592,2.627 0.925,5.294 1,8 -0.333,0 -0.667,0 -1,0 -0.454,-3.365 -1.12,-6.698 -2,-10 0.07,-1.272 0.403,-2.438 1,-3.5 7.326,-0.5 14.659,-0.666 22,-0.5 0,-1 0,-2 0,-3 z"
         id="path563" />
    </g>
    <g
       id="g564"
       style="clip-rule:evenodd;fill-rule:evenodd;image-rendering:optimizeQuality;shape-rendering:geometricPrecision;text-rendering:geometricPrecision"
       transform="matrix(0.30622937,0,0,0.30622937,-223.6967,-119.05931)">
      <path
         style="opacity:1"
         fill="#faf9f6"
         d="m 883.5,567.5 c -5.635,0.537 -10.968,-0.13 -16,-2 -0.734,-1.208 -1.067,-2.541 -1,-4 -0.075,-2.706 -0.408,-5.373 -1,-8 -0.17,-1.322 0.163,-2.489 1,-3.5 6,-0.667 12,-0.667 18,0 0.5,0.5 1,1 1.5,1.5 1.156,4.96 1.989,9.96 2.5,15 -1.915,-0.284 -3.581,0.049 -5,1 z"
         id="path564" />
    </g>
    <g
       id="g566"
       style="clip-rule:evenodd;fill-rule:evenodd;image-rendering:optimizeQuality;shape-rendering:geometricPrecision;text-rendering:geometricPrecision"
       transform="matrix(0.30622937,0,0,0.30622937,-223.6967,-119.05931)">
      <path
         style="opacity:1"
         fill="#faf7d4"
         d="m 888.5,552.5 c 0.174,2.361 0.507,4.694 1,7 0,2.667 0,5.333 0,8 -2,0 -4,0 -6,0 1.419,-0.951 3.085,-1.284 5,-1 -0.511,-5.04 -1.344,-10.04 -2.5,-15 -0.5,-0.5 -1,-1 -1.5,-1.5 -6,-0.667 -12,-0.667 -18,0 -0.837,1.011 -1.17,2.178 -1,3.5 -1.301,-1.384 -1.301,-2.884 0,-4.5 7.326,-0.5 14.659,-0.666 22,-0.5 -0.268,1.599 0.066,2.932 1,4 z"
         id="path566" />
    </g>
    <g
       id="g568"
       style="clip-rule:evenodd;fill-rule:evenodd;image-rendering:optimizeQuality;shape-rendering:geometricPrecision;text-rendering:geometricPrecision"
       transform="matrix(0.30622937,0,0,0.30622937,-223.6967,-119.05931)">
      <path
         style="opacity:1"
         fill="#f38604"
         d="m 965.5,548.5 c 0,0.333 0,0.667 0,1 0.648,7.019 1.148,14.019 1.5,21 -7.473,5.985 -15.973,9.652 -25.5,11 -0.337,-6.527 -1.004,-13.027 -2,-19.5 0.333,-1.5 0.667,-3 1,-4.5 4.99,-1.827 9.99,-3.66 15,-5.5 1.786,-0.785 3.286,-1.951 4.5,-3.5 0.627,-4.283 0.127,-8.449 -1.5,-12.5 0.13,-1.059 0.63,-1.892 1.5,-2.5 1.851,4.119 3.018,8.452 3.5,13 0.682,0.743 1.349,1.409 2,2 z"
         id="path568" />
    </g>
    <g
       id="g572"
       style="clip-rule:evenodd;fill-rule:evenodd;image-rendering:optimizeQuality;shape-rendering:geometricPrecision;text-rendering:geometricPrecision"
       transform="matrix(0.30622937,0,0,0.30622937,-223.6967,-119.05931)">
      <path
         style="opacity:1"
         fill="#d88d2e"
         d="m 998.5,496.5 c 2.86,3.046 4.69,6.713 5.5,11 2.15,7.945 3.98,15.945 5.5,24 0.63,15.131 -0.37,30.131 -3,45 -0.8,1.542 -1.13,3.208 -1,5 -0.76,2.953 -2.1,5.62 -4,8 2.86,-10.68 4.86,-21.514 6,-32.5 -0.43,-13.905 -1.6,-27.738 -3.5,-41.5 -0.79,-6.645 -2.63,-12.978 -5.5,-19 z"
         id="path572" />
    </g>
    <g
       id="g573"
       style="clip-rule:evenodd;fill-rule:evenodd;image-rendering:optimizeQuality;shape-rendering:geometricPrecision;text-rendering:geometricPrecision"
       transform="matrix(0.30622937,0,0,0.30622937,-223.6967,-119.05931)">
      <path
         style="opacity:1"
         fill="#d59237"
         d="m 771.5,531.5 c -0.588,12.613 0.412,24.946 3,37 0.493,2.306 0.826,4.639 1,7 -0.91,-1.519 -1.743,-3.185 -2.5,-5 -2.421,-13.091 -2.921,-26.091 -1.5,-39 z"
         id="path573" />
    </g>
    <g
       id="g575"
       style="clip-rule:evenodd;fill-rule:evenodd;image-rendering:optimizeQuality;shape-rendering:geometricPrecision;text-rendering:geometricPrecision"
       transform="matrix(0.30622937,0,0,0.30622937,-223.6967,-119.05931)">
      <path
         style="opacity:1"
         fill="#f9e7bb"
         d="m 762.5,535.5 c -0.41,11.219 0.256,22.219 2,33 1.161,4.804 2.494,9.471 4,14 1.203,5.814 2.87,11.48 5,17 -0.333,0 -0.667,0 -1,0 -6.904,-14.506 -10.904,-29.839 -12,-46 -0.166,-4.679 10e-4,-9.345 0.5,-14 0.21,-1.558 0.71,-2.891 1.5,-4 z"
         id="path575" />
    </g>
    <g
       id="g576"
       style="clip-rule:evenodd;fill-rule:evenodd;image-rendering:optimizeQuality;shape-rendering:geometricPrecision;text-rendering:geometricPrecision"
       transform="matrix(0.30622937,0,0,0.30622937,-223.6967,-119.05931)">
      <path
         style="opacity:1"
         fill="#f9ebc1"
         d="m 816.5,532.5 c 4.997,13.28 8.997,26.947 12,41 -3.269,-3.177 -4.769,-7.177 -4.5,-12 -3.648,-9.374 -6.148,-19.041 -7.5,-29 z"
         id="path576" />
    </g>
    <g
       id="g577"
       style="clip-rule:evenodd;fill-rule:evenodd;image-rendering:optimizeQuality;shape-rendering:geometricPrecision;text-rendering:geometricPrecision"
       transform="matrix(0.30622937,0,0,0.30622937,-223.6967,-119.05931)">
      <path
         style="opacity:1"
         fill="#f9e6b2"
         d="m 828.5,573.5 c 0.667,1 1.333,2 2,3 0.463,2.721 1.129,5.388 2,8 0,0.667 0,1.333 0,2 -2.158,-4.007 -3.491,-8.34 -4,-13 z"
         id="path577" />
    </g>
    <g
       id="g578"
       style="clip-rule:evenodd;fill-rule:evenodd;image-rendering:optimizeQuality;shape-rendering:geometricPrecision;text-rendering:geometricPrecision"
       transform="matrix(0.30622937,0,0,0.30622937,-223.6967,-119.05931)">
      <path
         style="opacity:1"
         fill="#f6d79a"
         d="m 901.5,578.5 c -10.589,-1.86 -21.255,-2.36 -32,-1.5 -4.507,0.451 -8.507,1.951 -12,4.5 -7.956,0.606 -10.623,4.606 -8,12 -0.617,-0.111 -1.117,-0.444 -1.5,-1 -0.837,-2.321 -1.17,-4.655 -1,-7 2.478,-2.139 4.978,-4.139 7.5,-6 5.314,-1.302 10.647,-2.802 16,-4.5 10.811,-1.504 21.145,-0.338 31,3.5 z"
         id="path578" />
    </g>
    <g
       id="g580"
       style="clip-rule:evenodd;fill-rule:evenodd;image-rendering:optimizeQuality;shape-rendering:geometricPrecision;text-rendering:geometricPrecision"
       transform="matrix(0.30622937,0,0,0.30622937,-223.6967,-119.05931)">
      <path
         style="opacity:1"
         fill="#f9e8b9"
         d="m 774.5,568.5 c 1.724,2.845 3.058,5.845 4,9 1.582,7.363 3.916,14.363 7,21 -1,-1.333 -2,-2.667 -3,-4 -0.667,-1 -1.333,-2 -2,-3 -1.089,-5.267 -2.756,-10.267 -5,-15 0,-0.333 0,-0.667 0,-1 -0.174,-2.361 -0.507,-4.694 -1,-7 z"
         id="path580" />
    </g>
    <g
       id="g581"
       style="clip-rule:evenodd;fill-rule:evenodd;image-rendering:optimizeQuality;shape-rendering:geometricPrecision;text-rendering:geometricPrecision"
       transform="matrix(0.30622937,0,0,0.30622937,-223.6967,-119.05931)">
      <path
         style="opacity:1"
         fill="#d89a45"
         d="m 775.5,576.5 c 2.244,4.733 3.911,9.733 5,15 -3.036,-4.448 -4.702,-9.448 -5,-15 z"
         id="path581" />
    </g>
    <g
       id="g582"
       style="clip-rule:evenodd;fill-rule:evenodd;image-rendering:optimizeQuality;shape-rendering:geometricPrecision;text-rendering:geometricPrecision"
       transform="matrix(0.30622937,0,0,0.30622937,-223.6967,-119.05931)">
      <path
         style="opacity:1"
         fill="#dc8c28"
         d="m 959.5,518.5 c 2.836,9.643 4.836,19.643 6,30 -0.651,-0.591 -1.318,-1.257 -2,-2 -0.482,-4.548 -1.649,-8.881 -3.5,-13 -0.87,0.608 -1.37,1.441 -1.5,2.5 1.627,4.051 2.127,8.217 1.5,12.5 -1.214,1.549 -2.714,2.715 -4.5,3.5 -5.01,1.84 -10.01,3.673 -15,5.5 -0.333,1.5 -0.667,3 -1,4.5 0.996,6.473 1.663,12.973 2,19.5 9.527,-1.348 18.027,-5.015 25.5,-11 -0.352,-6.981 -0.852,-13.981 -1.5,-21 2.028,7.08 2.861,14.413 2.5,22 -1.558,1.859 -3.391,3.359 -5.5,4.5 -5.283,2.811 -10.616,5.311 -16,7.5 -0.667,0 -1.333,0 -2,0 -11.474,1.575 -22.807,0.908 -34,-2 -2.921,-1.196 -5.921,-2.196 -9,-3 -9.855,-3.838 -20.189,-5.004 -31,-3.5 -5.353,1.698 -10.686,3.198 -16,4.5 2.767,-3.353 6.434,-4.853 11,-4.5 1.921,-0.36 3.588,-1.194 5,-2.5 -1.72,-1.42 -3.554,-2.753 -5.5,-4 -1.617,-3.806 -2.45,-7.806 -2.5,-12 0.472,2.031 1.472,3.698 3,5 0.333,0 0.667,0 1,0 -0.067,1.459 0.266,2.792 1,4 0,1.333 0,2.667 0,4 2.333,0 4.667,0 7,0 5.667,0 11.333,0 17,0 0.284,-1.915 -0.049,-3.581 -1,-5 0.284,-1.915 -0.049,-3.581 -1,-5 -0.493,-2.306 -0.826,-4.639 -1,-7 0,-1 0,-2 0,-3 3.698,0.052 7.365,0.386 11,1 2.579,1.525 5.246,2.859 8,4 1.068,0.934 2.401,1.268 4,1 0,1.667 0,3.333 0,5 -1.676,-0.683 -2.343,-2.017 -2,-4 -5.842,-1.703 -11.842,-3.037 -18,-4 0.563,6.731 1.563,13.398 3,20 0.864,1.697 2.197,2.863 4,3.5 6.754,1.516 13.421,2.849 20,4 -1.165,-1.084 -2.498,-1.917 -4,-2.5 -1.588,-5.21 -2.255,-10.543 -2,-16 0.333,0 0.667,0 1,0 0.333,5.501 1.666,10.667 4,15.5 7.219,1.429 14.553,1.929 22,1.5 -0.105,-6.401 -0.772,-12.734 -2,-19 0.027,-1.699 0.694,-3.033 2,-4 0.992,0.172 1.658,-0.162 2,-1 0.333,0 0.667,0 1,0 5.176,-1.814 10.176,-4.148 15,-7 1.052,-7.018 0.385,-14.018 -2,-21 0.667,0 1.333,0 2,0 -0.039,1.256 0.461,2.256 1.5,3 0.499,-3.652 0.665,-7.318 0.5,-11 z"
         id="path582" />
    </g>
    <g
       id="g583"
       style="clip-rule:evenodd;fill-rule:evenodd;image-rendering:optimizeQuality;shape-rendering:geometricPrecision;text-rendering:geometricPrecision"
       transform="matrix(0.30622937,0,0,0.30622937,-223.6967,-119.05931)">
      <path
         style="opacity:1"
         fill="#eabc6c"
         d="m 890.5,564.5 c 0.951,1.419 1.284,3.085 1,5 -5.667,0 -11.333,0 -17,0 5.14,-0.988 10.474,-1.321 16,-1 0,-1.333 0,-2.667 0,-4 z"
         id="path583" />
    </g>
    <g
       id="g584"
       style="clip-rule:evenodd;fill-rule:evenodd;image-rendering:optimizeQuality;shape-rendering:geometricPrecision;text-rendering:geometricPrecision"
       transform="matrix(0.30622937,0,0,0.30622937,-223.6967,-119.05931)">
      <path
         style="opacity:1"
         fill="#f9e8b7"
         d="m 937.5,559.5 c 1.228,6.266 1.895,12.599 2,19 -7.447,0.429 -14.781,-0.071 -22,-1.5 -2.334,-4.833 -3.667,-9.999 -4,-15.5 0,-1.333 0,-2.667 0,-4 8.272,-0.585 16.272,0.082 24,2 z"
         id="path584" />
    </g>
    <g
       id="g585"
       style="clip-rule:evenodd;fill-rule:evenodd;image-rendering:optimizeQuality;shape-rendering:geometricPrecision;text-rendering:geometricPrecision"
       transform="matrix(0.30622937,0,0,0.30622937,-223.6967,-119.05931)">
      <path
         style="opacity:1"
         fill="#f9e4ac"
         d="m 889.5,559.5 c 0.951,1.419 1.284,3.085 1,5 0,1.333 0,2.667 0,4 -5.526,-0.321 -10.86,0.012 -16,1 -2.333,0 -4.667,0 -7,0 0,-1.333 0,-2.667 0,-4 5.032,1.87 10.365,2.537 16,2 2,0 4,0 6,0 0,-2.667 0,-5.333 0,-8 z"
         id="path585" />
    </g>
    <g
       id="g586"
       style="clip-rule:evenodd;fill-rule:evenodd;image-rendering:optimizeQuality;shape-rendering:geometricPrecision;text-rendering:geometricPrecision"
       transform="matrix(0.30622937,0,0,0.30622937,-223.6967,-119.05931)">
      <path
         style="opacity:1"
         fill="#faf9f5"
         d="m 915.5,558.5 c 6.332,0.444 12.665,0.944 19,1.5 1.887,5.381 3.22,10.881 4,16.5 -6.675,0.166 -13.342,0 -20,-0.5 -1.786,-5.665 -2.786,-11.498 -3,-17.5 z"
         id="path586" />
    </g>
    <g
       id="g587"
       style="clip-rule:evenodd;fill-rule:evenodd;image-rendering:optimizeQuality;shape-rendering:geometricPrecision;text-rendering:geometricPrecision"
       transform="matrix(0.30622937,0,0,0.30622937,-223.6967,-119.05931)">
      <path
         style="opacity:1"
         fill="#e3b169"
         d="m 935.5,549.5 c 0.961,1.765 1.295,3.765 1,6 1,0 2,0 3,0 -1.306,0.967 -1.973,2.301 -2,4 -7.728,-1.918 -15.728,-2.585 -24,-2 0,1.333 0,2.667 0,4 -0.333,0 -0.667,0 -1,0 0,-0.333 0,-0.667 0,-1 -0.285,-1.788 0.048,-3.455 1,-5 7.129,1.313 14.129,1.313 21,0 0.961,-1.765 1.295,-3.765 1,-6 z"
         id="path587" />
    </g>
    <g
       id="g588"
       style="clip-rule:evenodd;fill-rule:evenodd;image-rendering:optimizeQuality;shape-rendering:geometricPrecision;text-rendering:geometricPrecision"
       transform="matrix(0.30622937,0,0,0.30622937,-223.6967,-119.05931)">
      <path
         style="opacity:1"
         fill="#f38603"
         d="m 911.5,560.5 c 0.333,0 0.667,0 1,0 0,0.333 0,0.667 0,1 -0.255,5.457 0.412,10.79 2,16 1.502,0.583 2.835,1.416 4,2.5 -6.579,-1.151 -13.246,-2.484 -20,-4 -1.803,-0.637 -3.136,-1.803 -4,-3.5 -1.437,-6.602 -2.437,-13.269 -3,-20 6.158,0.963 12.158,2.297 18,4 -0.343,1.983 0.324,3.317 2,4 z"
         id="path588" />
    </g>
    <g
       id="g590"
       style="clip-rule:evenodd;fill-rule:evenodd;image-rendering:optimizeQuality;shape-rendering:geometricPrecision;text-rendering:geometricPrecision"
       transform="matrix(0.30622937,0,0,0.30622937,-223.6967,-119.05931)">
      <path
         style="opacity:1"
         fill="#f8e0a9"
         d="m 910.5,581.5 c 11.193,2.908 22.526,3.575 34,2 -0.418,0.722 -1.084,1.222 -2,1.5 -10.468,1.055 -20.801,0.388 -31,-2 -0.556,-0.383 -0.889,-0.883 -1,-1.5 z"
         id="path590" />
    </g>
    <g
       id="g591"
       style="clip-rule:evenodd;fill-rule:evenodd;image-rendering:optimizeQuality;shape-rendering:geometricPrecision;text-rendering:geometricPrecision"
       transform="matrix(0.30622937,0,0,0.30622937,-223.6967,-119.05931)">
      <path
         style="opacity:1"
         fill="#faf8e4"
         d="m 901.5,578.5 c 3.079,0.804 6.079,1.804 9,3 0.111,0.617 0.444,1.117 1,1.5 10.199,2.388 20.532,3.055 31,2 0.916,-0.278 1.582,-0.778 2,-1.5 0.667,0 1.333,0 2,0 0.667,0 1.333,0 2,0 -8.748,4.62 -17.915,5.62 -27.5,3 -0.333,0.333 -0.667,0.667 -1,1 -9.785,-2.254 -19.619,-5.421 -29.5,-9.5 -6.667,-0.667 -13.333,-0.667 -20,0 -4.216,1.684 -8.549,2.851 -13,3.5 3.493,-2.549 7.493,-4.049 12,-4.5 10.745,-0.86 21.411,-0.36 32,1.5 z"
         id="path591" />
    </g>
    <g
       id="g592"
       style="clip-rule:evenodd;fill-rule:evenodd;image-rendering:optimizeQuality;shape-rendering:geometricPrecision;text-rendering:geometricPrecision"
       transform="matrix(0.30622937,0,0,0.30622937,-223.6967,-119.05931)">
      <path
         style="opacity:1"
         fill="#f38603"
         d="m 824.5,509.5 c -0.573,3.117 0.594,5.117 3.5,6 5.367,-2.597 10.867,-5.097 16.5,-7.5 1.759,-0.798 3.426,-0.631 5,0.5 3.092,6.327 3.425,12.66 1,19 -5.053,1.858 -10.053,4.024 -15,6.5 -3.182,3.087 -3.849,6.754 -2,11 2.006,4.033 4.006,8.033 6,12 3.721,1.043 6.387,-0.123 8,-3.5 0.333,0 0.667,0 1,0 4.185,-1.789 8.519,-2.622 13,-2.5 0.906,1.699 1.239,3.533 1,5.5 0.05,4.194 0.883,8.194 2.5,12 1.946,1.247 3.78,2.58 5.5,4 -1.412,1.306 -3.079,2.14 -5,2.5 -4.566,-0.353 -8.233,1.147 -11,4.5 -5.612,0.504 -8.612,3.504 -9,9 2.034,8.219 3.701,16.552 5,25 1.845,2.833 3.511,5.833 5,9 0.991,3.945 1.324,7.945 1,12 -2.357,0.163 -4.69,-0.003 -7,-0.5 -0.578,-1.417 -1.578,-2.25 -3,-2.5 0,-0.333 0,-0.667 0,-1 -0.667,-3 -1.333,-6 -2,-9 -2.232,-8.18 -4.232,-16.513 -6,-25 -1.828,-4.192 -3.828,-8.192 -6,-12 -0.871,-2.612 -1.537,-5.279 -2,-8 -3.097,-13.312 -6.264,-26.645 -9.5,-40 -0.667,-0.667 -1.333,-1.333 -2,-2 -1.964,-10.256 -4.797,-20.256 -8.5,-30 -0.716,-4.852 -1.049,-9.519 -1,-14 3.339,0.39 6.673,0.89 10,1.5 -1.11,2.737 -1.277,5.571 -0.5,8.5 1.859,3.064 3.692,6.064 5.5,9 z"
         id="path592" />
    </g>
    <g
       id="g593"
       style="clip-rule:evenodd;fill-rule:evenodd;image-rendering:optimizeQuality;shape-rendering:geometricPrecision;text-rendering:geometricPrecision"
       transform="matrix(0.30622937,0,0,0.30622937,-223.6967,-119.05931)">
      <path
         style="opacity:1"
         fill="#faf7e3"
         d="m 1008.5,574.5 c 0.05,5.052 -0.45,10.052 -1.5,15 -3.59,3.543 -5.59,7.876 -6,13 -0.67,0.752 -1.504,1.086 -2.5,1 1.86,-5.462 4.03,-10.795 6.5,-16 0.5,-1.973 0.66,-3.973 0.5,-6 -0.13,-1.792 0.2,-3.458 1,-5 0.67,-0.667 1.33,-1.333 2,-2 z"
         id="path593" />
    </g>
    <g
       id="g596"
       style="clip-rule:evenodd;fill-rule:evenodd;image-rendering:optimizeQuality;shape-rendering:geometricPrecision;text-rendering:geometricPrecision"
       transform="matrix(0.30622937,0,0,0.30622937,-223.6967,-119.05931)">
      <path
         style="opacity:1"
         fill="#f7dfad"
         d="m 832.5,586.5 c 2.858,7.078 5.191,14.412 7,22 -2,-4.667 -4,-9.333 -6,-14 -0.888,-2.554 -1.221,-5.221 -1,-8 z"
         id="path596" />
    </g>
    <g
       id="g597"
       style="clip-rule:evenodd;fill-rule:evenodd;image-rendering:optimizeQuality;shape-rendering:geometricPrecision;text-rendering:geometricPrecision"
       transform="matrix(0.30622937,0,0,0.30622937,-223.6967,-119.05931)">
      <path
         style="opacity:1"
         fill="#dd8d28"
         d="m 990.5,498.5 c 1.294,0.79 2.461,1.79 3.5,3 1.544,4.052 2.711,8.218 3.5,12.5 1.959,1.3 3.13,3.133 3.5,5.5 0.3,3.206 0.8,6.372 1.5,9.5 -0.14,0.772 -0.48,1.439 -1,2 0.81,5.108 1.81,9.941 3,14.5 -2.85,11.185 -5.018,22.518 -6.5,34 -1.506,4.517 -3.006,9.017 -4.5,13.5 0.333,0.333 0.667,0.667 1,1 -3.343,4.906 -7.009,9.406 -11,13.5 2.607,-5.775 5.44,-11.442 8.5,-17 1.817,-5.587 3.317,-11.254 4.5,-17 2.082,-5.008 3.249,-10.342 3.5,-16 0.67,-8 0.67,-16 0,-24 -0.841,-10.383 -3.674,-20.05 -8.5,-29 -0.017,-2.065 -0.35,-4.065 -1,-6 z"
         id="path597" />
    </g>
    <g
       id="g599"
       style="clip-rule:evenodd;fill-rule:evenodd;image-rendering:optimizeQuality;shape-rendering:geometricPrecision;text-rendering:geometricPrecision"
       transform="matrix(0.30622937,0,0,0.30622937,-223.6967,-119.05931)">
      <path
         style="opacity:1"
         fill="#da8c2b"
         d="m 832.5,584.5 c 2.172,3.808 4.172,7.808 6,12 1.768,8.487 3.768,16.82 6,25 -1.667,-4 -3.333,-8 -5,-12 0,-0.333 0,-0.667 0,-1 -1.809,-7.588 -4.142,-14.922 -7,-22 0,-0.667 0,-1.333 0,-2 z"
         id="path599" />
    </g>
    <g
       id="g604"
       style="clip-rule:evenodd;fill-rule:evenodd;image-rendering:optimizeQuality;shape-rendering:geometricPrecision;text-rendering:geometricPrecision"
       transform="matrix(0.30622937,0,0,0.30622937,-223.6967,-119.05931)">
      <path
         style="opacity:1"
         fill="#f8e2b0"
         d="m 1005.5,581.5 c 0.16,2.027 0,4.027 -0.5,6 -2.47,5.205 -4.64,10.538 -6.5,16 -1.711,3.022 -3.711,5.689 -6,8 3.904,-6.924 6.904,-14.257 9,-22 1.9,-2.38 3.24,-5.047 4,-8 z"
         id="path604" />
    </g>
    <g
       id="g606"
       style="clip-rule:evenodd;fill-rule:evenodd;image-rendering:optimizeQuality;shape-rendering:geometricPrecision;text-rendering:geometricPrecision"
       transform="matrix(0.30622937,0,0,0.30622937,-223.6967,-119.05931)">
      <path
         style="opacity:1"
         fill="#e48d22"
         d="m 854.5,579.5 c -2.522,1.861 -5.022,3.861 -7.5,6 -0.17,2.345 0.163,4.679 1,7 0.383,0.556 0.883,0.889 1.5,1 2.267,11.423 5.601,22.423 10,33 0.987,7.169 -2.013,10.669 -9,10.5 -1.964,-1.451 -3.297,-3.284 -4,-5.5 1.422,0.25 2.422,1.083 3,2.5 2.31,0.497 4.643,0.663 7,0.5 0.324,-4.055 -0.009,-8.055 -1,-12 -1.489,-3.167 -3.155,-6.167 -5,-9 -1.299,-8.448 -2.966,-16.781 -5,-25 0.388,-5.496 3.388,-8.496 9,-9 z"
         id="path606" />
    </g>
    <g
       id="g607"
       style="clip-rule:evenodd;fill-rule:evenodd;image-rendering:optimizeQuality;shape-rendering:geometricPrecision;text-rendering:geometricPrecision"
       transform="matrix(0.30622937,0,0,0.30622937,-223.6967,-119.05931)">
      <path
         style="opacity:1"
         fill="#faf6e1"
         d="m 850.5,592.5 c 2.998,8.818 6.498,17.485 10.5,26 0.909,6.112 0.576,12.112 -1,18 -7.041,5.988 -12.875,4.821 -17.5,-3.5 -1.951,-8.974 -4.451,-18.141 -7.5,-27.5 -0.719,-3.645 -1.219,-7.312 -1.5,-11 2,4.667 4,9.333 6,14 0,0.333 0,0.667 0,1 1.36,7.415 3.694,14.415 7,21 0,0.333 0,0.667 0,1 0.703,2.216 2.036,4.049 4,5.5 6.987,0.169 9.987,-3.331 9,-10.5 0.162,-2.027 -0.005,-4.027 -0.5,-6 -3.676,-9.034 -6.509,-18.367 -8.5,-28 z"
         id="path607" />
    </g>
    <g
       id="g608"
       style="clip-rule:evenodd;fill-rule:evenodd;image-rendering:optimizeQuality;shape-rendering:geometricPrecision;text-rendering:geometricPrecision"
       transform="matrix(0.30622937,0,0,0.30622937,-223.6967,-119.05931)">
      <path
         style="opacity:1"
         fill="#f2cd8d"
         d="m 839.5,609.5 c 1.667,4 3.333,8 5,12 0.667,3 1.333,6 2,9 -3.306,-6.585 -5.64,-13.585 -7,-21 z"
         id="path608" />
    </g>
    <g
       id="g609"
       style="clip-rule:evenodd;fill-rule:evenodd;image-rendering:optimizeQuality;shape-rendering:geometricPrecision;text-rendering:geometricPrecision"
       transform="matrix(0.30622937,0,0,0.30622937,-223.6967,-119.05931)">
      <path
         style="opacity:1"
         fill="#db902f"
         d="m 768.5,582.5 c 4.006,8.906 8.173,17.906 12.5,27 3.163,3.656 5.829,7.656 8,12 3.145,3.234 6.478,6.234 10,9 2.595,5.597 6.761,9.43 12.5,11.5 6.623,5.806 13.623,10.973 21,15.5 4.729,1.312 9.396,2.812 14,4.5 0.556,0.383 0.889,0.883 1,1.5 -1.333,0 -2.667,0 -4,0 -4.514,-0.921 -8.848,-2.421 -13,-4.5 -6.548,-4.721 -13.215,-9.221 -20,-13.5 -15.4,-13.045 -27.733,-28.379 -37,-46 -2.13,-5.52 -3.797,-11.186 -5,-17 z"
         id="path609" />
    </g>
    <g
       id="g610"
       style="clip-rule:evenodd;fill-rule:evenodd;image-rendering:optimizeQuality;shape-rendering:geometricPrecision;text-rendering:geometricPrecision"
       transform="matrix(0.30622937,0,0,0.30622937,-223.6967,-119.05931)">
      <path
         style="opacity:1"
         fill="#faf3d8"
         d="m 785.5,598.5 c 6.877,8.042 13.544,16.375 20,25 5.504,4.157 9.837,9.157 13,15 -7.897,-5.059 -14.73,-11.392 -20.5,-19 -5.26,-6.409 -9.427,-13.409 -12.5,-21 z"
         id="path610" />
    </g>
    <g
       id="g611"
       style="clip-rule:evenodd;fill-rule:evenodd;image-rendering:optimizeQuality;shape-rendering:geometricPrecision;text-rendering:geometricPrecision"
       transform="matrix(0.30622937,0,0,0.30622937,-223.6967,-119.05931)">
      <path
         style="opacity:1"
         fill="#faf0d0"
         d="m 772.5,599.5 c 0.333,0 0.667,0 1,0 9.267,17.621 21.6,32.955 37,46 -2.283,-0.108 -4.283,-0.941 -6,-2.5 -6.141,-5.471 -12.308,-10.971 -18.5,-16.5 -3.591,-4.909 -6.257,-10.242 -8,-16 -3.651,-2.748 -5.484,-6.414 -5.5,-11 z"
         id="path611" />
    </g>
    <g
       id="g612"
       style="clip-rule:evenodd;fill-rule:evenodd;image-rendering:optimizeQuality;shape-rendering:geometricPrecision;text-rendering:geometricPrecision"
       transform="matrix(0.30622937,0,0,0.30622937,-223.6967,-119.05931)">
      <path
         style="opacity:1"
         fill="#faefc6"
         d="m 857.5,581.5 c -1.599,1.809 -3.599,3.142 -6,4 -0.874,2.247 -1.208,4.58 -1,7 1.991,9.633 4.824,18.966 8.5,28 0.495,1.973 0.662,3.973 0.5,6 -4.399,-10.577 -7.733,-21.577 -10,-33 -2.623,-7.394 0.044,-11.394 8,-12 z"
         id="path612" />
    </g>
    <g
       id="g614"
       style="clip-rule:evenodd;fill-rule:evenodd;image-rendering:optimizeQuality;shape-rendering:geometricPrecision;text-rendering:geometricPrecision"
       transform="matrix(0.30622937,0,0,0.30622937,-223.6967,-119.05931)">
      <path
         style="opacity:1"
         fill="#d4933d"
         d="m 982.5,607.5 c 0.333,0 0.667,0 1,0 -0.937,2.769 -2.104,5.436 -3.5,8 -5.167,5.833 -10.333,11.667 -15.5,17.5 -1.905,1.421 -3.905,2.588 -6,3.5 5.269,-4.498 10.102,-9.498 14.5,-15 2.483,-2.639 4.316,-5.639 5.5,-9 2.043,-1.079 3.376,-2.746 4,-5 z"
         id="path614" />
    </g>
    <g
       id="g615"
       style="clip-rule:evenodd;fill-rule:evenodd;image-rendering:optimizeQuality;shape-rendering:geometricPrecision;text-rendering:geometricPrecision"
       transform="matrix(0.30622937,0,0,0.30622937,-223.6967,-119.05931)">
      <path
         style="opacity:1"
         fill="#f8e3b2"
         d="m 992.5,611.5 c 0.236,2.726 -0.597,5.059 -2.5,7 -3.229,3.443 -6.229,7.11 -9,11 -1.451,1.964 -3.284,3.297 -5.5,4 2.575,-2.819 4.908,-5.819 7,-9 3.333,-4.333 6.667,-8.667 10,-13 z"
         id="path615" />
    </g>
    <g
       id="g617"
       style="clip-rule:evenodd;fill-rule:evenodd;image-rendering:optimizeQuality;shape-rendering:geometricPrecision;text-rendering:geometricPrecision"
       transform="matrix(0.30622937,0,0,0.30622937,-223.6967,-119.05931)">
      <path
         style="opacity:1"
         fill="#faebc1"
         d="m 978.5,612.5 c -1.184,3.361 -3.017,6.361 -5.5,9 -4.398,5.502 -9.231,10.502 -14.5,15 -3.306,1.989 -6.639,3.989 -10,6 0.011,-1.517 0.677,-2.684 2,-3.5 2.096,-1.766 4.429,-3.099 7,-4 4.888,-3.997 8.721,-8.831 11.5,-14.5 2,-1.333 4,-2.667 6,-4 0.057,-2.41 1.224,-3.744 3.5,-4 z"
         id="path617" />
    </g>
    <g
       id="g619"
       style="clip-rule:evenodd;fill-rule:evenodd;image-rendering:optimizeQuality;shape-rendering:geometricPrecision;text-rendering:geometricPrecision"
       transform="matrix(0.30622937,0,0,0.30622937,-223.6967,-119.05931)">
      <path
         style="opacity:1"
         fill="#e58d23"
         d="m 782.5,594.5 c 1,1.333 2,2.667 3,4 3.073,7.591 7.24,14.591 12.5,21 5.77,7.608 12.603,13.941 20.5,19 2.667,2.333 5.333,4.667 8,7 -5.046,-2.012 -10.046,-4.012 -15,-6 0.219,-1.175 -0.114,-2.175 -1,-3 -2.237,-0.769 -4.237,-1.936 -6,-3.5 0.333,-0.333 0.667,-0.667 1,-1 -4.153,-4.497 -7.986,-9.33 -11.5,-14.5 -6.175,-6.37 -10.008,-14.036 -11.5,-23 z"
         id="path619" />
    </g>
    <g
       id="g622"
       style="clip-rule:evenodd;fill-rule:evenodd;image-rendering:optimizeQuality;shape-rendering:geometricPrecision;text-rendering:geometricPrecision"
       transform="matrix(0.30622937,0,0,0.30622937,-223.6967,-119.05931)">
      <path
         style="opacity:1"
         fill="#faeabc"
         d="m 975.5,633.5 c 0.149,1.052 -0.017,2.052 -0.5,3 -5.111,3.616 -9.611,7.782 -13.5,12.5 -1.293,0.49 -2.627,0.657 -4,0.5 5.959,-5.324 11.959,-10.657 18,-16 z"
         id="path622" />
    </g>
    <g
       id="g627"
       style="clip-rule:evenodd;fill-rule:evenodd;image-rendering:optimizeQuality;shape-rendering:geometricPrecision;text-rendering:geometricPrecision"
       transform="matrix(0.30622937,0,0,0.30622937,-223.6967,-119.05931)">
      <path
         style="opacity:1"
         fill="#f9e7b6"
         d="m 818.5,638.5 c 5.178,1.006 9.511,3.506 13,7.5 5.574,2.565 10.907,5.398 16,8.5 -7.356,-2.178 -14.356,-5.178 -21,-9 -2.667,-2.333 -5.333,-4.667 -8,-7 z"
         id="path627" />
    </g>
    <g
       id="g628"
       style="clip-rule:evenodd;fill-rule:evenodd;image-rendering:optimizeQuality;shape-rendering:geometricPrecision;text-rendering:geometricPrecision"
       transform="matrix(0.30622937,0,0,0.30622937,-223.6967,-119.05931)">
      <path
         style="opacity:1"
         fill="#d69238"
         d="m 958.5,636.5 c -8.026,9.024 -18.026,15.024 -30,18 6.966,-3.484 13.632,-7.484 20,-12 3.361,-2.011 6.694,-4.011 10,-6 z"
         id="path628" />
    </g>
    <g
       id="g631"
       style="clip-rule:evenodd;fill-rule:evenodd;image-rendering:optimizeQuality;shape-rendering:geometricPrecision;text-rendering:geometricPrecision"
       transform="matrix(0.30622937,0,0,0.30622937,-223.6967,-119.05931)">
      <path
         style="opacity:1"
         fill="#f9ecc3"
         d="m 957.5,649.5 c -4.842,6.162 -11.176,9.829 -19,11 6.162,-3.916 12.495,-7.583 19,-11 z"
         id="path631" />
    </g>
    <g
       id="g633"
       style="clip-rule:evenodd;fill-rule:evenodd;image-rendering:optimizeQuality;shape-rendering:geometricPrecision;text-rendering:geometricPrecision"
       transform="matrix(0.30622937,0,0,0.30622937,-223.6967,-119.05931)">
      <path
         style="opacity:1"
         fill="#f9e6b5"
         d="m 948.5,642.5 c -6.368,4.516 -13.034,8.516 -20,12 -0.667,0 -1.333,0 -2,0 -10.141,3.784 -20.474,6.451 -31,8 -7.341,0.166 -14.674,0 -22,-0.5 -5.566,-1.736 -11.233,-2.903 -17,-3.5 -3.182,-1.094 -6.182,-2.428 -9,-4 9.782,2.478 19.782,4.312 30,5.5 24.492,2.176 46.825,-3.49 67,-17 1.293,-0.49 2.627,-0.657 4,-0.5 z"
         id="path633" />
    </g>
    <g
       id="g635"
       style="clip-rule:evenodd;fill-rule:evenodd;image-rendering:optimizeQuality;shape-rendering:geometricPrecision;text-rendering:geometricPrecision"
       transform="matrix(0.30622937,0,0,0.30622937,-223.6967,-119.05931)">
      <path
         style="opacity:1"
         fill="#d59032"
         d="m 856.5,658.5 c 5.767,0.597 11.434,1.764 17,3.5 7.326,0.5 14.659,0.666 22,0.5 -11.923,1.46 -23.923,0.96 -36,-1.5 -1.619,-0.236 -2.619,-1.069 -3,-2.5 z"
         id="path635" />
    </g>
    <g
       id="g636"
       style="clip-rule:evenodd;fill-rule:evenodd;image-rendering:optimizeQuality;shape-rendering:geometricPrecision;text-rendering:geometricPrecision"
       transform="matrix(0.30622937,0,0,0.30622937,-223.6967,-119.05931)">
      <path
         style="opacity:1"
         fill="#d5953f"
         d="m 926.5,654.5 c -2.82,2.581 -6.154,4.414 -10,5.5 -6.84,2.078 -13.84,2.911 -21,2.5 10.526,-1.549 20.859,-4.216 31,-8 z"
         id="path636" />
    </g>
    <g
       id="g648"
       style="clip-rule:evenodd;fill-rule:evenodd;image-rendering:optimizeQuality;shape-rendering:geometricPrecision;text-rendering:geometricPrecision"
       transform="matrix(0.30622937,0,0,0.30622937,-223.6967,-119.05931)">
      <path
         style="opacity:1"
         fill="#f9e9bb"
         d="m 935.5,661.5 c -1.074,1.385 -2.407,2.551 -4,3.5 -5.551,1.971 -11.218,3.471 -17,4.5 5.455,-2.032 10.788,-4.365 16,-7 1.716,-0.129 3.383,-0.462 5,-1 z"
         id="path648" />
    </g>
    <g
       id="g652"
       style="clip-rule:evenodd;fill-rule:evenodd;image-rendering:optimizeQuality;shape-rendering:geometricPrecision;text-rendering:geometricPrecision"
       transform="matrix(0.30622937,0,0,0.30622937,-223.6967,-119.05931)">
      <path
         style="opacity:1"
         fill="#faf6df"
         d="m 810.5,645.5 c 6.785,4.279 13.452,8.779 20,13.5 4.152,2.079 8.486,3.579 13,4.5 2.667,1.333 5.333,2.667 8,4 1.1,1.058 2.434,1.892 4,2.5 14.095,2.427 28.095,2.927 42,1.5 5.564,-1.396 11.231,-2.063 17,-2 -5.773,1.867 -11.606,3.867 -17.5,6 -12.842,-0.503 -25.676,-1.67 -38.5,-3.5 -9.827,-2.261 -19.16,-5.594 -28,-10 -5.462,-4.205 -11.128,-8.205 -17,-12 -1.641,-1.129 -2.641,-2.629 -3,-4.5 z"
         id="path652" />
    </g>
    <g
       id="g653"
       style="clip-rule:evenodd;fill-rule:evenodd;image-rendering:optimizeQuality;shape-rendering:geometricPrecision;text-rendering:geometricPrecision"
       transform="matrix(0.30622937,0,0,0.30622937,-223.6967,-119.05931)">
      <path
         style="opacity:1"
         fill="#e28c1f"
         d="m 982.5,624.5 c -2.092,3.181 -4.425,6.181 -7,9 -6.041,5.343 -12.041,10.676 -18,16 -6.505,3.417 -12.838,7.084 -19,11 -1.109,0.057 -2.109,0.39 -3,1 -1.617,0.538 -3.284,0.871 -5,1 -17.139,6.048 -34.806,8.548 -53,7.5 -6.323,-0.217 -12.323,-1.383 -18,-3.5 10.484,-0.429 20.984,0.238 31.5,2 6.854,-0.686 13.687,-1.519 20.5,-2.5 6.932,-2.537 14.099,-4.37 21.5,-5.5 2.286,-2.273 5.119,-3.439 8.5,-3.5 0.757,-1.512 1.757,-2.846 3,-4 4.873,-2.936 9.873,-5.603 15,-8 4.684,-4.886 9.684,-9.386 15,-13.5 0.812,-4.48 3.479,-6.813 8,-7 z"
         id="path653" />
    </g>
    <g
       id="g654"
       style="clip-rule:evenodd;fill-rule:evenodd;image-rendering:optimizeQuality;shape-rendering:geometricPrecision;text-rendering:geometricPrecision"
       transform="matrix(0.30622937,0,0,0.30622937,-223.6967,-119.05931)">
      <path
         style="opacity:1"
         fill="#f9e4b1"
         d="m 851.5,667.5 c 6.96,1.114 13.96,2.281 21,3.5 8.327,0.5 16.66,0.666 25,0.5 -13.905,1.427 -27.905,0.927 -42,-1.5 -1.566,-0.608 -2.9,-1.442 -4,-2.5 z"
         id="path654" />
    </g>
    <g
       id="g655"
       style="clip-rule:evenodd;fill-rule:evenodd;image-rendering:optimizeQuality;shape-rendering:geometricPrecision;text-rendering:geometricPrecision"
       transform="matrix(0.30622937,0,0,0.30622937,-223.6967,-119.05931)">
      <path
         style="opacity:1"
         fill="#d79e4b"
         d="m 930.5,662.5 c -5.212,2.635 -10.545,4.968 -16,7 -5.769,-0.063 -11.436,0.604 -17,2 -8.34,0.166 -16.673,0 -25,-0.5 -7.04,-1.219 -14.04,-2.386 -21,-3.5 -2.667,-1.333 -5.333,-2.667 -8,-4 1.333,0 2.667,0 4,0 3.653,1.903 7.653,2.903 12,3 5.677,2.117 11.677,3.283 18,3.5 18.194,1.048 35.861,-1.452 53,-7.5 z"
         id="path655" />
    </g>
  </g>
</svg>
