<?xml version="1.0" encoding="UTF-8" standalone="no"?>
<!-- Created with Inkscape (http://www.inkscape.org/) -->

<svg
   width="96mm"
   height="96mm"
   viewBox="0 0 96 96"
   version="1.1"
   id="svg1"
   inkscape:version="1.4.2 (ebf0e940, 2025-05-08)"
   sodipodi:docname="plane.svg"
   xmlns:inkscape="http://www.inkscape.org/namespaces/inkscape"
   xmlns:sodipodi="http://sodipodi.sourceforge.net/DTD/sodipodi-0.dtd"
   xmlns="http://www.w3.org/2000/svg"
   xmlns:svg="http://www.w3.org/2000/svg">
  <sodipodi:namedview
     id="namedview1"
     pagecolor="#ffffff"
     bordercolor="#000000"
     borderopacity="0.25"
     inkscape:showpageshadow="2"
     inkscape:pageopacity="0.0"
     inkscape:pagecheckerboard="0"
     inkscape:deskcolor="#d1d1d1"
     inkscape:document-units="mm"
     inkscape:zoom="0.80444024"
     inkscape:cx="397.17059"
     inkscape:cy="262.91574"
     inkscape:window-width="1920"
     inkscape:window-height="1052"
     inkscape:window-x="0"
     inkscape:window-y="28"
     inkscape:window-maximized="0"
     inkscape:current-layer="layer1" />
  <defs
     id="defs1" />
  <g
     inkscape:label="Layer 1"
     inkscape:groupmode="layer"
     id="layer1">
    <g
       id="g179"
       style="clip-rule:evenodd;fill-rule:evenodd;image-rendering:optimizeQuality;shape-rendering:geometricPrecision;text-rendering:geometricPrecision"
       transform="matrix(0.26458333,0,0,0.26458333,-173.04145,-103.07066)">
      <path
         style="opacity:1"
         fill="#965c28"
         d="m 844.5,429.5 c -2.13,-1.627 -4.13,-3.46 -6,-5.5 -2.195,-1.373 -4.529,-1.706 -7,-1 -2.167,2.167 -4.333,4.333 -6.5,6.5 -2.766,5.861 -5.599,11.528 -8.5,17 0.06,-2.841 0.726,-5.507 2,-8 2.676,-7.501 7.343,-13.334 14,-17.5 5.734,0.214 9.734,3.048 12,8.5 z"
         id="path179" />
    </g>
    <g
       id="g180"
       style="clip-rule:evenodd;fill-rule:evenodd;image-rendering:optimizeQuality;shape-rendering:geometricPrecision;text-rendering:geometricPrecision"
       transform="matrix(0.26458333,0,0,0.26458333,-173.04145,-103.07066)">
      <path
         style="opacity:1"
         fill="#f5e0c8"
         d="m 846.5,430.5 c 1.235,0.221 2.235,0.888 3,2 5.702,14.374 8.869,29.374 9.5,45 0.5,13.329 0.667,26.663 0.5,40 -0.722,-0.418 -1.222,-1.084 -1.5,-2 -0.152,-18.025 -0.819,-36.025 -2,-54 -1.851,-10.774 -5.018,-21.108 -9.5,-31 z"
         id="path180" />
    </g>
    <g
       id="g210"
       style="clip-rule:evenodd;fill-rule:evenodd;image-rendering:optimizeQuality;shape-rendering:geometricPrecision;text-rendering:geometricPrecision"
       transform="matrix(0.26458333,0,0,0.26458333,-173.04145,-103.07066)">
      <path
         style="opacity:1"
         fill="#ecdac1"
         d="m 818.5,438.5 c -1.274,2.493 -1.94,5.159 -2,8 -2.275,7.38 -3.775,15.046 -4.5,23 -0.333,15 -0.667,30 -1,45 -0.608,1.566 -1.442,2.9 -2.5,4 0.712,-21.317 1.545,-42.651 2.5,-64 2.096,-1.215 1.929,-2.049 -0.5,-2.5 1.704,-2.949 3.038,-6.115 4,-9.5 1.11,-1.7 2.443,-3.034 4,-4 z"
         id="path210" />
    </g>
    <g
       id="g215"
       style="clip-rule:evenodd;fill-rule:evenodd;image-rendering:optimizeQuality;shape-rendering:geometricPrecision;text-rendering:geometricPrecision"
       transform="matrix(0.26458333,0,0,0.26458333,-173.04145,-103.07066)">
      <path
         style="opacity:1"
         fill="#f3e2cc"
         d="m 917.5,551.5 c -5.667,-2.667 -11.333,-5.333 -17,-8 2.64,-10.505 3.473,-21.172 2.5,-32 -1.167,-2.5 -3,-4.333 -5.5,-5.5 -4.989,-0.499 -9.989,-0.666 -15,-0.5 1.897,-1.305 4.231,-1.971 7,-2 5.42,-0.581 10.087,0.919 14,4.5 1.332,11.533 0.999,23.033 -1,34.5 5.857,1.754 10.857,4.754 15,9 z"
         id="path215" />
    </g>
    <g
       id="g216"
       style="clip-rule:evenodd;fill-rule:evenodd;image-rendering:optimizeQuality;shape-rendering:geometricPrecision;text-rendering:geometricPrecision"
       transform="matrix(0.26458333,0,0,0.26458333,-173.04145,-103.07066)">
      <path
         style="opacity:1"
         fill="#92551e"
         d="m 816.5,446.5 c -0.014,8.508 -1.181,16.842 -3.5,25 -0.333,15 -0.667,30 -1,45 -1.744,4.579 -4.91,7.579 -9.5,9 1.667,-2 3.333,-4 5,-6 0.667,0 1,-0.333 1,-1 1.058,-1.1 1.892,-2.434 2.5,-4 0.333,-15 0.667,-30 1,-45 0.725,-7.954 2.225,-15.62 4.5,-23 z"
         id="path216" />
    </g>
    <g
       id="g217"
       style="clip-rule:evenodd;fill-rule:evenodd;image-rendering:optimizeQuality;shape-rendering:geometricPrecision;text-rendering:geometricPrecision"
       transform="matrix(0.26458333,0,0,0.26458333,-173.04145,-103.07066)">
      <path
         style="opacity:1"
         fill="#9d5b1e"
         d="m 844.5,429.5 c 0.667,0.333 1.333,0.667 2,1 4.482,9.892 7.649,20.226 9.5,31 1.181,17.975 1.848,35.975 2,54 0.278,0.916 0.778,1.582 1.5,2 0.667,1 1.333,2 2,3 3.067,3.379 6.734,6.046 11,8 0.83,-5.638 1.33,-11.304 1.5,-17 0.662,-1.484 1.496,-2.817 2.5,-4 0.891,-0.61 1.891,-0.943 3,-1 5.344,-0.166 10.677,10e-4 16,0.5 2.348,0.346 4.181,1.513 5.5,3.5 0.82,6.514 0.653,12.847 -0.5,19 0.29,-6.061 -0.043,-12.061 -1,-18 -3.765,-2.427 -7.932,-3.427 -12.5,-3 -3.736,-0.069 -7.069,0.931 -10,3 -1.218,6.273 -2.051,12.607 -2.5,19 -1.459,-0.067 -2.792,0.266 -4,1 -0.992,0.172 -1.658,-0.162 -2,-1 0.149,-1.052 -0.017,-2.052 -0.5,-3 -3.374,-1.049 -6.208,-2.882 -8.5,-5.5 -1.094,-1.78 -2.094,-3.614 -3,-5.5 -0.833,-16.323 -1.333,-32.656 -1.5,-49 -1.576,-6.928 -2.909,-13.928 -4,-21 -2.193,-5.709 -4.36,-11.376 -6.5,-17 z"
         id="path217" />
    </g>
    <g
       id="g221"
       style="clip-rule:evenodd;fill-rule:evenodd;image-rendering:optimizeQuality;shape-rendering:geometricPrecision;text-rendering:geometricPrecision"
       transform="matrix(0.26458333,0,0,0.26458333,-173.04145,-103.07066)">
      <path
         style="opacity:1"
         fill="#9c591e"
         d="m 802.5,525.5 c 0.086,0.996 -0.248,1.829 -1,2.5 -2.563,1.079 -5.229,1.579 -8,1.5 0.373,-6.792 -0.294,-13.459 -2,-20 -6.154,-1.317 -12.154,-1.317 -18,0 -1.291,-0.237 -2.291,0.096 -3,1 -1.466,0.847 -2.3,2.18 -2.5,4 -0.346,8.867 0.154,17.7 1.5,26.5 -0.725,4.558 -3.392,6.725 -8,6.5 2.295,-1.823 4.629,-3.656 7,-5.5 -2.512,-10.359 -3.345,-20.859 -2.5,-31.5 3.61,-4.407 8.277,-6.073 14,-5 6.482,-1.292 11.482,0.708 15,6 0.333,5.667 0.667,11.333 1,17 1.993,-1.414 4.16,-2.414 6.5,-3 z"
         id="path221" />
    </g>
    <g
       id="g222"
       style="clip-rule:evenodd;fill-rule:evenodd;image-rendering:optimizeQuality;shape-rendering:geometricPrecision;text-rendering:geometricPrecision"
       transform="matrix(0.26458333,0,0,0.26458333,-173.04145,-103.07066)">
      <path
         style="opacity:1"
         fill="#f6e7d1"
         d="m 876.5,507.5 c -1.004,1.183 -1.838,2.516 -2.5,4 -0.17,5.696 -0.67,11.362 -1.5,17 -4.266,-1.954 -7.933,-4.621 -11,-8 2.491,0.34 4.658,1.34 6.5,3 0.833,-0.333 1.667,-0.667 2.5,-1 0.41,-4.873 1.576,-9.54 3.5,-14 0.671,-0.752 1.504,-1.086 2.5,-1 z"
         id="path222" />
    </g>
    <g
       id="g223"
       style="clip-rule:evenodd;fill-rule:evenodd;image-rendering:optimizeQuality;shape-rendering:geometricPrecision;text-rendering:geometricPrecision"
       transform="matrix(0.26458333,0,0,0.26458333,-173.04145,-103.07066)">
      <path
         style="opacity:1"
         fill="#9c612c"
         d="m 879.5,506.5 c 0.709,-0.904 1.709,-1.237 3,-1 5.011,-0.166 10.011,10e-4 15,0.5 2.5,1.167 4.333,3 5.5,5.5 0.973,10.828 0.14,21.495 -2.5,32 -0.951,-1.419 -1.284,-3.085 -1,-5 0.799,-2.93 1.132,-5.93 1,-9 1.153,-6.153 1.32,-12.486 0.5,-19 -1.319,-1.987 -3.152,-3.154 -5.5,-3.5 -5.323,-0.499 -10.656,-0.666 -16,-0.5 z"
         id="path223" />
    </g>
    <g
       id="g224"
       style="clip-rule:evenodd;fill-rule:evenodd;image-rendering:optimizeQuality;shape-rendering:geometricPrecision;text-rendering:geometricPrecision"
       transform="matrix(0.26458333,0,0,0.26458333,-173.04145,-103.07066)">
      <path
         style="opacity:1"
         fill="#eb8316"
         d="m 818.5,475.5 c -1.301,7.6 -1.967,15.433 -2,23.5 0.333,7.5 0.667,15 1,22.5 2.159,1.285 2.826,2.952 2,5 0.683,2.961 1.516,3.295 2.5,1 1.167,1.667 2.333,3.333 3.5,5 0.667,-0.667 1.333,-1.333 2,-2 3.945,0.768 7.945,1.268 12,1.5 1.819,0.74 3.152,1.907 4,3.5 2.594,1.041 5.094,2.374 7.5,4 0.902,-0.243 1.735,-0.577 2.5,-1 0,12 0,24 0,36 -0.666,-2.858 -1.333,-5.858 -2,-9 -0.586,-0.209 -1.086,-0.543 -1.5,-1 -0.667,1.333 -1.333,1.333 -2,0 -1.157,2.994 -3.324,4.66 -6.5,5 -0.667,2.333 -1.333,4.667 -2,7 -2.747,0.313 -5.414,-0.02 -8,-1 -4.173,-4.347 -9.006,-7.681 -14.5,-10 -0.667,3 -0.667,6 0,9 2.268,0.576 3.268,1.91 3,4 -1.881,-2.851 -2.715,-2.518 -2.5,1 0.209,1.494 0.876,2.661 2,3.5 -1.545,1.688 -2.545,3.688 -3,6 0.667,3 1.333,6 2,9 -2.667,0.667 -2.667,1.333 0,2 -1.559,1.996 -2.226,4.329 -2,7 0.551,6.162 1.051,12.329 1.5,18.5 0.75,0.626 1.584,1.126 2.5,1.5 -0.333,0.333 -0.667,0.667 -1,1 1.473,0.71 2.14,1.876 2,3.5 -2,0 -4,0 -6,0 0,-4.667 0,-9.333 0,-14 0,-29.333 0,-58.667 0,-88 0,-18 0,-36 0,-54 1,0 2,0 3,0 z"
         id="path224" />
    </g>
    <g
       id="g231"
       style="clip-rule:evenodd;fill-rule:evenodd;image-rendering:optimizeQuality;shape-rendering:geometricPrecision;text-rendering:geometricPrecision"
       transform="matrix(0.26458333,0,0,0.26458333,-173.04145,-103.07066)">
      <path
         style="opacity:1"
         fill="#f1e4d5"
         d="m 807.5,519.5 c -1.667,2 -3.333,4 -5,6 -2.34,0.586 -4.507,1.586 -6.5,3 -0.333,-5.667 -0.667,-11.333 -1,-17 -3.518,-5.292 -8.518,-7.292 -15,-6 -5.723,-1.073 -10.39,0.593 -14,5 -0.845,10.641 -0.012,21.141 2.5,31.5 -2.371,1.844 -4.705,3.677 -7,5.5 -11.488,5.241 -22.488,11.241 -33,18 -9.333,4.667 -18.667,9.333 -28,14 1.445,-1.633 2.779,-3.466 4,-5.5 9.16,-4.488 18.16,-9.155 27,-14 1.333,-0.667 1.333,-1.333 0,-2 1.172,-0.353 2.338,-0.187 3.5,0.5 9.377,-6.188 19.044,-11.854 29,-17 -0.702,-8.725 -1.202,-17.391 -1.5,-26 1.185,-10.083 6.851,-14.083 17,-12 6.684,-0.964 12.184,1.036 16.5,6 0.652,5.366 1.485,10.699 2.5,16 2.476,-1.309 4.476,-3.142 6,-5.5 0.948,-0.483 1.948,-0.649 3,-0.5 z"
         id="path231" />
    </g>
    <g
       id="g232"
       style="clip-rule:evenodd;fill-rule:evenodd;image-rendering:optimizeQuality;shape-rendering:geometricPrecision;text-rendering:geometricPrecision"
       transform="matrix(0.26458333,0,0,0.26458333,-173.04145,-103.07066)">
      <path
         style="opacity:1"
         fill="#de7d1f"
         d="m 773.5,509.5 c 5.852,-0.449 11.519,0.051 17,1.5 -6.846,0.821 -13.513,0.654 -20,-0.5 0.709,-0.904 1.709,-1.237 3,-1 z"
         id="path232" />
    </g>
    <g
       id="g241"
       style="clip-rule:evenodd;fill-rule:evenodd;image-rendering:optimizeQuality;shape-rendering:geometricPrecision;text-rendering:geometricPrecision"
       transform="matrix(0.26458333,0,0,0.26458333,-173.04145,-103.07066)">
      <path
         style="opacity:1"
         fill="#995d26"
         d="m 920.5,554.5 c 3.333,1.333 6.667,2.667 10,4 15.176,9.424 30.843,18.091 47,26 1.849,1.093 3.516,2.426 5,4 -9.311,-4.321 -18.644,-8.655 -28,-13 -5.172,-3.752 -10.505,-7.252 -16,-10.5 -5.628,-2.87 -11.294,-5.536 -17,-8 -0.752,-0.671 -1.086,-1.504 -1,-2.5 z"
         id="path241" />
    </g>
    <g
       id="g242"
       style="clip-rule:evenodd;fill-rule:evenodd;image-rendering:optimizeQuality;shape-rendering:geometricPrecision;text-rendering:geometricPrecision"
       transform="matrix(0.26458333,0,0,0.26458333,-173.04145,-103.07066)">
      <path
         style="opacity:1"
         fill="#975a23"
         d="m 761.5,547.5 c -0.453,0.958 -1.119,1.792 -2,2.5 -6.586,3.258 -12.92,6.925 -19,11 -3.729,2.23 -7.729,3.73 -12,4.5 10.512,-6.759 21.512,-12.759 33,-18 z"
         id="path242" />
    </g>
    <g
       id="g244"
       style="clip-rule:evenodd;fill-rule:evenodd;image-rendering:optimizeQuality;shape-rendering:geometricPrecision;text-rendering:geometricPrecision"
       transform="matrix(0.26458333,0,0,0.26458333,-173.04145,-103.07066)">
      <path
         style="opacity:1"
         fill="#f28304"
         d="m 917.5,563.5 c 19.958,9.646 39.625,19.812 59,30.5 1,0.667 2,0.667 3,0 1.238,-0.69 1.238,-1.19 0,-1.5 0,-0.667 0,-1.333 0,-2 8.261,3.499 12.261,9.833 12,19 -9.696,-2.508 -19.362,-5.174 -29,-8 -7.069,-1.97 -14.069,-4.47 -21,-7.5 -0.456,-3.794 -2.456,-6.461 -6,-8 -11.656,-4.606 -23.323,-9.106 -35,-13.5 -3.82,-3.598 -8.154,-4.265 -13,-2 -2.615,-0.356 -4.448,-1.689 -5.5,-4 -1.113,1.211 -2.28,1.211 -3.5,0 -0.978,0.477 -1.811,1.143 -2.5,2 -3.061,-0.962 -6.394,-0.629 -10,1 -1.956,-0.284 -4.123,-0.284 -6.5,0 -0.923,-4.349 0.41,-7.683 4,-10 2.029,1.129 2.363,0.629 1,-1.5 1.896,-1.065 2.063,-1.898 0.5,-2.5 -1.168,1.009 -2.335,2.009 -3.5,3 -0.586,-0.209 -1.086,-0.543 -1.5,-1 -0.078,-2.157 -0.245,-4.157 -0.5,-6 2.033,-1.952 2.366,-4.118 1,-6.5 0.862,-2.734 1.695,-2.901 2.5,-0.5 0.167,-0.667 0.333,-1.333 0.5,-2 -1.477,-1.563 -2.811,-3.896 -4,-7 0.333,-0.333 0.667,-0.667 1,-1 1.49,1.626 2.99,3.292 4.5,5 0.333,-0.333 0.667,-0.667 1,-1 1.084,1.165 1.917,2.498 2.5,4 -0.667,0.333 -1.333,0.667 -2,1 0.525,0.692 1.192,1.192 2,1.5 -0.876,1.586 -1.876,3.086 -3,4.5 0.5,0.333 1,0.667 1.5,1 3.343,-2.016 6.677,-4.016 10,-6 1.333,1.333 2.667,2.667 4,4 1.147,-0.958 2.147,-0.625 3,1 0.333,-0.333 0.667,-0.667 1,-1 3.092,2.418 6.592,3.918 10.5,4.5 5.928,6.263 13.261,9.763 22,10.5 z"
         id="path244" />
    </g>
    <g
       id="g248"
       style="clip-rule:evenodd;fill-rule:evenodd;image-rendering:optimizeQuality;shape-rendering:geometricPrecision;text-rendering:geometricPrecision"
       transform="matrix(0.26458333,0,0,0.26458333,-173.04145,-103.07066)">
      <path
         style="opacity:1"
         fill="#f28405"
         d="m 853.5,574.5 c 0.167,18.67 0,37.336 -0.5,56 -1.699,0.906 -3.533,1.239 -5.5,1 -0.165,3.018 0.002,6.018 0.5,9 0.497,-2.31 0.663,-4.643 0.5,-7 1,0 2,0 3,0 -2.377,23.717 -6.877,47.05 -13.5,70 0.496,-21.321 0.496,-42.655 0,-64 -0.502,-3.013 -1.002,-6.013 -1.5,-9 -1.89,-0.203 -3.39,0.463 -4.5,2 -0.333,3.333 -0.667,6.667 -1,10 -0.345,20.514 -0.511,40.847 -0.5,61 0.134,-1.792 -0.199,-3.458 -1,-5 -5.072,-18.43 -9.072,-37.097 -12,-56 1.322,0.17 2.489,-0.163 3.5,-1 0.498,-3.317 0.665,-6.65 0.5,-10 0.14,-1.624 -0.527,-2.79 -2,-3.5 0.333,-0.333 0.667,-0.667 1,-1 -0.916,-0.374 -1.75,-0.874 -2.5,-1.5 -0.449,-6.171 -0.949,-12.338 -1.5,-18.5 -0.226,-2.671 0.441,-5.004 2,-7 -2.667,-0.667 -2.667,-1.333 0,-2 -0.667,-3 -1.333,-6 -2,-9 0.455,-2.312 1.455,-4.312 3,-6 -1.124,-0.839 -1.791,-2.006 -2,-3.5 -0.215,-3.518 0.619,-3.851 2.5,-1 0.268,-2.09 -0.732,-3.424 -3,-4 -0.667,-3 -0.667,-6 0,-9 5.494,2.319 10.327,5.653 14.5,10 2.586,0.98 5.253,1.313 8,1 0.667,-2.333 1.333,-4.667 2,-7 3.176,-0.34 5.343,-2.006 6.5,-5 0.667,1.333 1.333,1.333 2,0 0.414,0.457 0.914,0.791 1.5,1 0.667,3.142 1.334,6.142 2,9 z"
         id="path248" />
    </g>
    <g
       id="g249"
       style="clip-rule:evenodd;fill-rule:evenodd;image-rendering:optimizeQuality;shape-rendering:geometricPrecision;text-rendering:geometricPrecision"
       transform="matrix(0.26458333,0,0,0.26458333,-173.04145,-103.07066)">
      <path
         style="opacity:1"
         fill="#efe3d4"
         d="m 930.5,558.5 c 4.104,0.384 7.771,1.884 11,4.5 3.258,0.616 6.258,0.283 9,-1 0.509,2.57 1.509,4.903 3,7 9.687,2.85 17.687,8.016 24,15.5 -16.157,-7.909 -31.824,-16.576 -47,-26 z"
         id="path249" />
    </g>
    <g
       id="g256"
       style="clip-rule:evenodd;fill-rule:evenodd;image-rendering:optimizeQuality;shape-rendering:geometricPrecision;text-rendering:geometricPrecision"
       transform="matrix(0.26458333,0,0,0.26458333,-173.04145,-103.07066)">
      <path
         style="opacity:1"
         fill="#ba5801"
         d="m 810.5,530.5 c 1.559,-0.15 3.226,-0.483 5,-1 0,29.333 0,58.667 0,88 -0.667,-13.839 -1.333,-27.839 -2,-42 -0.742,1.608 -0.909,3.275 -0.5,5 -6.109,-1.111 -12.276,-1.111 -18.5,0 0,1 0,2 0,3 -0.996,-0.086 -1.829,0.248 -2.5,1 -1.017,-2.528 -2.184,-2.528 -3.5,0 -1.91,-4.453 -5.244,-5.953 -10,-4.5 -1.563,1.736 -3.23,3.236 -5,4.5 -1.649,1.214 -3.315,2.547 -5,4 -1.581,-3.393 -4.247,-4.727 -8,-4 5.152,-1.96 10.485,-3.626 16,-5 0.993,-5.175 -1.007,-7.009 -6,-5.5 -13.312,4.49 -26.312,9.657 -39,15.5 -1.13,1.122 -1.797,2.456 -2,4 -0.333,0 -0.667,0 -1,0 -0.337,-4.494 1.663,-7.328 6,-8.5 13.554,-4.694 27.054,-9.527 40.5,-14.5 2.303,1.251 3.636,3.251 4,6 0.725,0.559 1.558,0.892 2.5,1 2.105,-1.762 3.772,-3.928 5,-6.5 8.327,-0.5 16.66,-0.666 25,-0.5 0.329,-13.51 -0.004,-26.844 -1,-40 z"
         id="path256" />
    </g>
    <g
       id="g257"
       style="clip-rule:evenodd;fill-rule:evenodd;image-rendering:optimizeQuality;shape-rendering:geometricPrecision;text-rendering:geometricPrecision"
       transform="matrix(0.26458333,0,0,0.26458333,-173.04145,-103.07066)">
      <path
         style="opacity:1"
         fill="#9e5717"
         d="m 728.5,565.5 c -4.933,3.809 -10.266,7.142 -16,10 -2.109,2.022 -4.109,4.022 -6,6 -5.508,3.255 -11.175,6.255 -17,9 -4.834,-0.136 -8.834,1.531 -12,5 0.233,-1.562 0.9,-2.895 2,-4 7.198,-3.762 14.198,-7.762 21,-12 9.333,-4.667 18.667,-9.333 28,-14 z"
         id="path257" />
    </g>
    <g
       id="g259"
       style="clip-rule:evenodd;fill-rule:evenodd;image-rendering:optimizeQuality;shape-rendering:geometricPrecision;text-rendering:geometricPrecision"
       transform="matrix(0.26458333,0,0,0.26458333,-173.04145,-103.07066)">
      <path
         style="opacity:1"
         fill="#a9580c"
         d="m 899.5,538.5 c -0.284,1.915 0.049,3.581 1,5 5.667,2.667 11.333,5.333 17,8 0.806,1.228 1.806,2.228 3,3 -0.086,0.996 0.248,1.829 1,2.5 5.706,2.464 11.372,5.13 17,8 5.495,3.248 10.828,6.748 16,10.5 9.356,4.345 18.689,8.679 28,13 1.653,0.16 2.986,0.826 4,2 2.64,3.614 4.473,7.614 5.5,12 0.498,2.982 0.665,5.982 0.5,9 -5.116,0.069 -10.116,-0.598 -15,-2 -4.851,-0.729 -9.518,-2.062 -14,-4 -2.754,-2.106 -5.754,-3.772 -9,-5 2.627,0.592 5.294,0.925 8,1 9.638,2.826 19.304,5.492 29,8 0.261,-9.167 -3.739,-15.501 -12,-19 -27.542,-15.27 -55.208,-30.27 -83,-45 1.151,-2.279 2.151,-4.612 3,-7 z"
         id="path259" />
    </g>
    <g
       id="g260"
       style="clip-rule:evenodd;fill-rule:evenodd;image-rendering:optimizeQuality;shape-rendering:geometricPrecision;text-rendering:geometricPrecision"
       transform="matrix(0.26458333,0,0,0.26458333,-173.04145,-103.07066)">
      <path
         style="opacity:1"
         fill="#f09639"
         d="m 689.5,590.5 c 5.825,-2.745 11.492,-5.745 17,-9 24.671,-13.335 49.338,-26.669 74,-40 1.333,1.333 1.333,2.667 0,4 -29.675,16.086 -59.509,31.753 -89.5,47 -1.03,-0.336 -1.53,-1.003 -1.5,-2 z"
         id="path260" />
    </g>
    <g
       id="g261"
       style="clip-rule:evenodd;fill-rule:evenodd;image-rendering:optimizeQuality;shape-rendering:geometricPrecision;text-rendering:geometricPrecision"
       transform="matrix(0.26458333,0,0,0.26458333,-173.04145,-103.07066)">
      <path
         style="opacity:1"
         fill="#f09639"
         d="m 896.5,545.5 c 27.792,14.73 55.458,29.73 83,45 0,0.667 0,1.333 0,2 -31.217,-15.276 -62.217,-31.109 -93,-47.5 -1.247,-1.494 -1.247,-2.994 0,-4.5 3.36,1.68 6.693,3.347 10,5 z"
         id="path261" />
    </g>
    <g
       id="g263"
       style="clip-rule:evenodd;fill-rule:evenodd;image-rendering:optimizeQuality;shape-rendering:geometricPrecision;text-rendering:geometricPrecision"
       transform="matrix(0.26458333,0,0,0.26458333,-173.04145,-103.07066)">
      <path
         style="opacity:1"
         fill="#f1e1c9"
         d="m 794.5,583.5 c 0.667,0 1,-0.333 1,-1 5,0 10,0 15,0 -0.433,14.542 0.233,28.875 2,43 0.688,13.791 2.354,27.457 5,41 -1.333,0.667 -2.667,1.333 -4,2 0.286,-1.777 0.953,-3.444 2,-5 -1.485,-10.114 -3.818,-19.948 -7,-29.5 0.622,-1.569 0.956,-3.236 1,-5 -0.606,-14.532 -1.272,-29.032 -2,-43.5 -5.716,-2.256 -10.049,-0.756 -13,4.5 -1.167,0.167 -2.333,0.333 -3.5,0.5 -3.149,-2.401 -6.815,-4.068 -11,-5 -1.561,0.103 -3.061,0.437 -4.5,1 -0.953,2.408 -2.287,4.575 -4,6.5 -1,0.167 -2,0.333 -3,0.5 -1.53,-0.14 -2.53,-0.807 -3,-2 1.568,0.973 3.235,1.14 5,0.5 1.101,-2.472 2.101,-4.972 3,-7.5 3.889,-1.465 7.889,-1.965 12,-1.5 1.094,1.78 2.094,3.614 3,5.5 4.582,1.692 6.582,0.025 6,-5 z"
         id="path263" />
    </g>
    <g
       id="g267"
       style="clip-rule:evenodd;fill-rule:evenodd;image-rendering:optimizeQuality;shape-rendering:geometricPrecision;text-rendering:geometricPrecision"
       transform="matrix(0.26458333,0,0,0.26458333,-173.04145,-103.07066)">
      <path
         style="opacity:1"
         fill="#f2e6d6"
         d="m 896.5,585.5 c 0.043,4.884 2.377,7.05 7,6.5 0.556,-0.383 0.889,-0.883 1,-1.5 0.291,-1.149 1.124,-1.816 2.5,-2 2.731,1.117 5.565,1.783 8.5,2 1.777,1.1 3.777,1.934 6,2.5 1.806,7.452 5.14,8.285 10,2.5 10.691,3.338 21.358,6.671 32,10 4.482,1.938 9.149,3.271 14,4 5.29,2.649 10.957,4.316 17,5 -2.128,1.129 -4.461,1.296 -7,0.5 -8.967,-3.734 -18.134,-5.9 -27.5,-6.5 -8.277,-3.789 -16.943,-6.789 -26,-9 -2.503,0.49 -4.503,1.823 -6,4 -1.667,-0.667 -3.333,-1.333 -5,-2 -0.333,0.333 -0.667,0.667 -1,1 -2.1,-2.426 -3.934,-5.093 -5.5,-8 -2.946,-0.806 -5.612,-2.139 -8,-4 -1.708,0.203 -3.041,1.036 -4,2.5 -4.73,1.652 -7.396,0.152 -8,-4.5 -3.42,0.426 -6.253,-0.574 -8.5,-3 -2.965,-0.062 -3.798,1.105 -2.5,3.5 -3.914,3.068 -7.914,3.568 -12,1.5 -0.947,-3.164 -3.113,-4.831 -6.5,-5 -1.73,1.149 -3.396,1.149 -5,0 -0.5,0.5 -1,1 -1.5,1.5 0.263,3.058 0.43,6.225 0.5,9.5 0.654,-1.196 1.154,-1.196 1.5,0 -2.667,4.333 -2.667,8.667 0,13 -1.267,1.871 -1.267,3.704 0,5.5 -0.808,0.308 -1.475,0.808 -2,1.5 0.667,0.333 1.333,0.667 2,1 -2.491,1.041 -2.491,1.874 0,2.5 -1.118,1.074 -2.118,2.24 -3,3.5 -1.421,14.802 -3.421,29.469 -6,44 -1.195,-0.366 -1.861,-1.199 -2,-2.5 1.606,-6.409 2.606,-12.909 3,-19.5 1.591,-8.458 2.591,-17.125 3,-26 0.995,-11.822 1.328,-23.822 1,-36 5.427,-0.282 10.76,0.051 16,1 -0.148,2.852 1.186,4.519 4,5 2.495,-2.304 4.995,-4.638 7.5,-7 3.545,0.904 7.045,1.904 10.5,3 z"
         id="path267" />
    </g>
    <g
       id="g271"
       style="clip-rule:evenodd;fill-rule:evenodd;image-rendering:optimizeQuality;shape-rendering:geometricPrecision;text-rendering:geometricPrecision"
       transform="matrix(0.26458333,0,0,0.26458333,-173.04145,-103.07066)">
      <path
         style="opacity:1"
         fill="#e8c29f"
         d="m 874.5,584.5 c -5.24,-0.949 -10.573,-1.282 -16,-1 0.328,12.178 -0.005,24.178 -1,36 0,-12.333 0,-24.667 0,-37 6.098,-0.617 11.765,0.05 17,2 z"
         id="path271" />
    </g>
    <g
       id="g274"
       style="clip-rule:evenodd;fill-rule:evenodd;image-rendering:optimizeQuality;shape-rendering:geometricPrecision;text-rendering:geometricPrecision"
       transform="matrix(0.26458333,0,0,0.26458333,-173.04145,-103.07066)">
      <path
         style="opacity:1"
         fill="#9c642d"
         d="m 915.5,590.5 c 2.427,0.023 4.76,0.523 7,1.5 1.042,1.918 2.208,3.751 3.5,5.5 1.729,-0.474 2.895,-1.474 3.5,-3 8.205,2.399 16.538,4.399 25,6 3.246,1.228 6.246,2.894 9,5 -10.642,-3.329 -21.309,-6.662 -32,-10 -4.86,5.785 -8.194,4.952 -10,-2.5 -2.223,-0.566 -4.223,-1.4 -6,-2.5 z"
         id="path274" />
    </g>
    <g
       id="g277"
       style="clip-rule:evenodd;fill-rule:evenodd;image-rendering:optimizeQuality;shape-rendering:geometricPrecision;text-rendering:geometricPrecision"
       transform="matrix(0.26458333,0,0,0.26458333,-173.04145,-103.07066)">
      <path
         style="opacity:1"
         fill="#9a642e"
         d="m 795.5,582.5 c 5.401,-1.325 10.901,-1.325 16.5,0 0.5,14.329 0.667,28.663 0.5,43 -1.767,-14.125 -2.433,-28.458 -2,-43 -5,0 -10,0 -15,0 z"
         id="path277" />
    </g>
    <g
       id="g278"
       style="clip-rule:evenodd;fill-rule:evenodd;image-rendering:optimizeQuality;shape-rendering:geometricPrecision;text-rendering:geometricPrecision"
       transform="matrix(0.26458333,0,0,0.26458333,-173.04145,-103.07066)">
      <path
         style="opacity:1"
         fill="#9e5818"
         d="m 914.5,586.5 c 2.198,0.375 4.198,1.042 6,2 0.787,1.604 2.12,2.271 4,2 0,1 0,2 0,3 1.716,0.129 3.383,0.462 5,1 -0.605,1.526 -1.771,2.526 -3.5,3 -1.292,-1.749 -2.458,-3.582 -3.5,-5.5 -2.24,-0.977 -4.573,-1.477 -7,-1.5 -2.935,-0.217 -5.769,-0.883 -8.5,-2 -1.376,0.184 -2.209,0.851 -2.5,2 -1.699,0.16 -3.366,-0.006 -5,-0.5 -0.553,-1.878 -1.553,-3.378 -3,-4.5 -3.455,-1.096 -6.955,-2.096 -10.5,-3 -2.505,2.362 -5.005,4.696 -7.5,7 -2.814,-0.481 -4.148,-2.148 -4,-5 -5.235,-1.95 -10.902,-2.617 -17,-2 0,12.333 0,24.667 0,37 -0.409,8.875 -1.409,17.542 -3,26 0.778,-21.324 1.111,-42.657 1,-64 7.333,-1.333 14.667,-1.333 22,0 -0.188,1.603 0.312,2.937 1.5,4 1.452,-2.622 3.619,-4.288 6.5,-5 6.996,-0.418 12.829,1.916 17.5,7 3.73,-0.96 7.563,-1.293 11.5,-1 z"
         id="path278" />
    </g>
    <g
       id="g279"
       style="clip-rule:evenodd;fill-rule:evenodd;image-rendering:optimizeQuality;shape-rendering:geometricPrecision;text-rendering:geometricPrecision"
       transform="matrix(0.26458333,0,0,0.26458333,-173.04145,-103.07066)">
      <path
         style="opacity:1"
         fill="#9d5e25"
         d="m 986.5,590.5 c 2.216,0.703 4.049,2.036 5.5,4 2.723,6.623 3.556,13.289 2.5,20 -6.043,-0.684 -11.71,-2.351 -17,-5 4.884,1.402 9.884,2.069 15,2 0.165,-3.018 -0.002,-6.018 -0.5,-9 -1.027,-4.386 -2.86,-8.386 -5.5,-12 z"
         id="path279" />
    </g>
    <g
       id="g283"
       style="clip-rule:evenodd;fill-rule:evenodd;image-rendering:optimizeQuality;shape-rendering:geometricPrecision;text-rendering:geometricPrecision"
       transform="matrix(0.26458333,0,0,0.26458333,-173.04145,-103.07066)">
      <path
         style="opacity:1"
         fill="#985b20"
         d="m 677.5,595.5 c -0.667,5.333 -1.333,10.667 -2,16 9.083,-2.884 18.416,-4.884 28,-6 -5.798,2.435 -11.798,4.602 -18,6.5 -3.905,1.359 -7.905,2.192 -12,2.5 -0.691,-6.884 0.642,-13.218 4,-19 z"
         id="path283" />
    </g>
    <g
       id="g284"
       style="clip-rule:evenodd;fill-rule:evenodd;image-rendering:optimizeQuality;shape-rendering:geometricPrecision;text-rendering:geometricPrecision"
       transform="matrix(0.26458333,0,0,0.26458333,-173.04145,-103.07066)">
      <path
         style="opacity:1"
         fill="#a6540b"
         d="m 815.5,617.5 c 0,4.667 0,9.333 0,14 0.763,0.768 1.763,1.268 3,1.5 -1.292,3.571 -1.958,7.405 -2,11.5 -0.118,6.106 0.549,12.106 2,18 -0.011,1.545 -0.344,2.878 -1,4 -2.646,-13.543 -4.312,-27.209 -5,-41 0.167,-14.337 0,-28.671 -0.5,-43 -5.599,-1.325 -11.099,-1.325 -16.5,0 0,0.667 -0.333,1 -1,1 0,-1 0,-2 0,-3 6.224,-1.111 12.391,-1.111 18.5,0 -0.409,-1.725 -0.242,-3.392 0.5,-5 0.667,14.161 1.333,28.161 2,42 z"
         id="path284" />
    </g>
    <g
       id="g287"
       style="clip-rule:evenodd;fill-rule:evenodd;image-rendering:optimizeQuality;shape-rendering:geometricPrecision;text-rendering:geometricPrecision"
       transform="matrix(0.26458333,0,0,0.26458333,-173.04145,-103.07066)">
      <path
         style="opacity:1"
         fill="#f1e3cf"
         d="m 679.5,591.5 c -1.1,1.105 -1.767,2.438 -2,4 -3.358,5.782 -4.691,12.116 -4,19 4.095,-0.308 8.095,-1.141 12,-2.5 6.202,-1.898 12.202,-4.065 18,-6.5 5.113,-0.927 10.113,-2.26 15,-4 -1.753,1.723 -3.753,3.223 -6,4.5 -6.712,1.459 -13.379,3.126 -20,5 0.443,1.518 -0.224,2.685 -2,3.5 -1.806,-1.359 -3.306,-1.025 -4.5,1 -0.561,-0.522 -1.228,-0.855 -2,-1 -4.526,2.626 -9.026,2.626 -13.5,0 1.054,-6.771 2.554,-13.438 4.5,-20 0.908,-1.939 2.408,-2.939 4.5,-3 z"
         id="path287" />
    </g>
    <g
       id="g333"
       style="clip-rule:evenodd;fill-rule:evenodd;image-rendering:optimizeQuality;shape-rendering:geometricPrecision;text-rendering:geometricPrecision"
       transform="matrix(0.26458333,0,0,0.26458333,-173.04145,-103.07066)">
      <path
         style="opacity:1"
         fill="#9b5d25"
         d="m 854.5,645.5 c -0.394,6.591 -1.394,13.091 -3,19.5 0.139,1.301 0.805,2.134 2,2.5 3.333,2.667 6.667,5.333 10,8 -4.703,-1.772 -8.87,-4.439 -12.5,-8 -0.667,-3 -0.667,-6 0,-9 1.174,-4.442 2.341,-8.775 3.5,-13 z"
         id="path333" />
    </g>
    <g
       id="g346"
       style="clip-rule:evenodd;fill-rule:evenodd;image-rendering:optimizeQuality;shape-rendering:geometricPrecision;text-rendering:geometricPrecision"
       transform="matrix(0.26458333,0,0,0.26458333,-173.04145,-103.07066)">
      <path
         style="opacity:1"
         fill="#b65704"
         d="m 815.5,631.5 c 2,0 4,0 6,0 0.165,3.35 -0.002,6.683 -0.5,10 -1.011,0.837 -2.178,1.17 -3.5,1 2.928,18.903 6.928,37.57 12,56 -0.722,0.418 -1.222,1.084 -1.5,2 -0.342,-2.119 -1.175,-2.453 -2.5,-1 -0.199,-2.46 -0.865,-4.793 -2,-7 -14.552,6.443 -29.218,12.609 -44,18.5 -2.208,1.047 -3.874,2.547 -5,4.5 -1.602,1.574 -3.602,2.241 -6,2 -0.325,-5.099 0.175,-10.099 1.5,-15 7.34,-6.023 15.173,-11.19 23.5,-15.5 1.713,-1.378 3.047,-3.045 4,-5 4.181,-2.37 7.848,-5.203 11,-8.5 1.86,-1.439 3.527,-3.105 5,-5 1.333,-0.667 2.667,-1.333 4,-2 0.656,-1.122 0.989,-2.455 1,-4 -1.451,-5.894 -2.118,-11.894 -2,-18 0.042,-4.095 0.708,-7.929 2,-11.5 -1.237,-0.232 -2.237,-0.732 -3,-1.5 z"
         id="path346" />
    </g>
    <g
       id="g348"
       style="clip-rule:evenodd;fill-rule:evenodd;image-rendering:optimizeQuality;shape-rendering:geometricPrecision;text-rendering:geometricPrecision"
       transform="matrix(0.26458333,0,0,0.26458333,-173.04145,-103.07066)">
      <path
         style="opacity:1"
         fill="#f1e1cd"
         d="m 853.5,667.5 c 2.104,-0.299 4.104,0.034 6,1 2.23,3.894 5.563,6.228 10,7 1.846,3.605 4.846,5.772 9,6.5 2.384,1.41 4.05,3.41 5,6 2.41,0.057 3.744,1.224 4,3.5 -1.667,-0.667 -3.333,-1.333 -5,-2 -5.762,-5.387 -12.095,-10.054 -19,-14 -3.333,-2.667 -6.667,-5.333 -10,-8 z"
         id="path348" />
    </g>
    <g
       id="g351"
       style="clip-rule:evenodd;fill-rule:evenodd;image-rendering:optimizeQuality;shape-rendering:geometricPrecision;text-rendering:geometricPrecision"
       transform="matrix(0.26458333,0,0,0.26458333,-173.04145,-103.07066)">
      <path
         style="opacity:1"
         fill="#f2e1cd"
         d="m 813.5,668.5 c -1.473,1.895 -3.14,3.561 -5,5 -13.926,9.253 -27.593,18.92 -41,29 1,-2.667 2,-5.333 3,-8 2.234,0.12 4.401,-0.213 6.5,-1 4.646,-5.141 9.813,-9.808 15.5,-14 6.622,-1.976 12.288,-5.476 17,-10.5 1.293,-0.49 2.627,-0.657 4,-0.5 z"
         id="path351" />
    </g>
    <g
       id="g352"
       style="clip-rule:evenodd;fill-rule:evenodd;image-rendering:optimizeQuality;shape-rendering:geometricPrecision;text-rendering:geometricPrecision"
       transform="matrix(0.26458333,0,0,0.26458333,-173.04145,-103.07066)">
      <path
         style="opacity:1"
         fill="#f28508"
         d="m 817.5,670.5 c 1.545,0.73 2.378,2.063 2.5,4 1.167,4.667 2.333,9.333 3.5,14 -0.333,0.667 -0.667,1.333 -1,2 -15.218,6.776 -30.551,13.276 -46,19.5 -2.485,1.487 -4.652,3.321 -6.5,5.5 -0.713,-4.007 -0.213,-7.84 1.5,-11.5 15.795,-10.643 31.129,-21.81 46,-33.5 z"
         id="path352" />
    </g>
    <g
       id="g358"
       style="clip-rule:evenodd;fill-rule:evenodd;image-rendering:optimizeQuality;shape-rendering:geometricPrecision;text-rendering:geometricPrecision"
       transform="matrix(0.26458333,0,0,0.26458333,-173.04145,-103.07066)">
      <path
         style="opacity:1"
         fill="#b45703"
         d="m 844.5,429.5 c 2.14,5.624 4.307,11.291 6.5,17 1.091,7.072 2.424,14.072 4,21 0.167,16.344 0.667,32.677 1.5,49 0.906,1.886 1.906,3.72 3,5.5 2.292,2.618 5.126,4.451 8.5,5.5 0.483,0.948 0.649,1.948 0.5,3 -3.872,-1.693 -7.372,-4.026 -10.5,-7 -0.387,3.665 1.113,6.498 4.5,8.5 7,3.833 14,7.667 21,11.5 1.333,-1.667 1.333,-3.333 0,-5 -4.554,-2.108 -8.888,-4.441 -13,-7 1.208,-0.734 2.541,-1.067 4,-1 0.449,-6.393 1.282,-12.727 2.5,-19 2.931,-2.069 6.264,-3.069 10,-3 4.568,-0.427 8.735,0.573 12.5,3 0.957,5.939 1.29,11.939 1,18 0.132,3.07 -0.201,6.07 -1,9 -0.849,2.388 -1.849,4.721 -3,7 -3.307,-1.653 -6.64,-3.32 -10,-5 -1.247,1.506 -1.247,3.006 0,4.5 30.783,16.391 61.783,32.224 93,47.5 1.238,0.31 1.238,0.81 0,1.5 -1,0.667 -2,0.667 -3,0 -19.375,-10.688 -39.042,-20.854 -59,-30.5 -16.478,-9.074 -33.145,-17.907 -50,-26.5 -3.427,-1.796 -6.594,-3.963 -9.5,-6.5 -0.5,13.329 -0.667,26.663 -0.5,40 8.36,-0.331 16.693,0.002 25,1 1.247,1.823 1.914,3.823 2,6 1.43,-0.079 2.764,0.254 4,1 1.369,-6.893 5.369,-8.893 12,-6 11.677,4.394 23.344,8.894 35,13.5 3.544,1.539 5.544,4.206 6,8 6.931,3.03 13.931,5.53 21,7.5 -2.706,-0.075 -5.373,-0.408 -8,-1 -8.462,-1.601 -16.795,-3.601 -25,-6 -1.617,-0.538 -3.284,-0.871 -5,-1 0,-1 0,-2 0,-3 -1.88,0.271 -3.213,-0.396 -4,-2 6.011,1.669 12.011,3.336 18,5 0.052,-3.452 -1.615,-5.619 -5,-6.5 -13.41,-5.415 -27.077,-9.915 -41,-13.5 0.143,1.762 -0.191,3.429 -1,5 7.493,3.496 15.159,6.163 23,8 -3.937,-0.293 -7.77,0.04 -11.5,1 -4.671,-5.084 -10.504,-7.418 -17.5,-7 -2.881,0.712 -5.048,2.378 -6.5,5 -1.188,-1.063 -1.688,-2.397 -1.5,-4 -7.333,-1.333 -14.667,-1.333 -22,0 0.111,21.343 -0.222,42.676 -1,64 -1.159,4.225 -2.326,8.558 -3.5,13 -0.667,3 -0.667,6 0,9 3.63,3.561 7.797,6.228 12.5,8 6.905,3.946 13.238,8.613 19,14 0.011,1.517 0.677,2.684 2,3.5 5.937,3.217 11.437,7.051 16.5,11.5 0.499,4.321 0.666,8.654 0.5,13 -5.917,-1.311 -11.917,-1.978 -18,-2 -7.139,-3.71 -14.806,-6.044 -23,-7 -4.059,-1.528 -8.059,-3.361 -12,-5.5 -2.333,-0.667 -4.667,-0.667 -7,0 -0.556,0.383 -0.889,0.883 -1,1.5 -0.997,-0.03 -1.664,0.47 -2,1.5 -0.627,2.135 -1.127,4.302 -1.5,6.5 -1.11,1.537 -2.61,2.203 -4.5,2 -0.191,-3.762 -0.858,-7.429 -2,-11 -0.011,-20.153 0.155,-40.486 0.5,-61 0.333,-3.333 0.667,-6.667 1,-10 1.11,-1.537 2.61,-2.203 4.5,-2 0.498,2.987 0.998,5.987 1.5,9 0.496,21.345 0.496,42.679 0,64 6.623,-22.95 11.123,-46.283 13.5,-70 -1,0 -2,0 -3,0 0.163,2.357 -0.003,4.69 -0.5,7 -0.498,-2.982 -0.665,-5.982 -0.5,-9 1.967,0.239 3.801,-0.094 5.5,-1 0.5,-18.664 0.667,-37.33 0.5,-56 0,-12 0,-24 0,-36 0,-20.667 0,-41.333 0,-62 -2.222,0.322 -4.056,-0.345 -5.5,-2 -0.667,-3 -0.667,-6 0,-9 1.011,-0.837 2.178,-1.17 3.5,-1 0.302,-2.559 -0.032,-4.893 -1,-7 -1.252,-10.5 -4.752,-20.166 -10.5,-29 -1.439,-1.948 -3.272,-3.281 -5.5,-4 -6.303,3.578 -10.47,8.911 -12.5,16 -3.278,7.666 -4.778,15.666 -4.5,24 1,0 2,0 3,0 0,2.667 0,5.333 0,8 0.073,1.527 -0.594,2.527 -2,3 -1,0 -2,0 -3,0 0,18 0,36 0,54 -1.774,0.517 -3.441,0.85 -5,1 -4.755,4.222 -10.088,7.722 -16,10.5 -34.695,17.661 -69.195,35.494 -103.5,53.5 -5.959,-2.69 -9.959,-0.69 -12,6 -0.502,3.013 -1.002,6.013 -1.5,9 17.35,-4.581 34.35,-9.914 51,-16 0.333,0 0.667,0 1,0 5.7,-1.509 11.367,-3.176 17,-5 -1.743,2.482 -3.243,5.149 -4.5,8 -0.374,-0.916 -0.874,-1.75 -1.5,-2.5 -7.626,-0.143 -14.626,1.857 -21,6 -5.973,0.18 -11.307,2.013 -16,5.5 -9.584,1.116 -18.917,3.116 -28,6 0.667,-5.333 1.333,-10.667 2,-16 3.166,-3.469 7.166,-5.136 12,-5 -0.03,0.997 0.47,1.664 1.5,2 29.991,-15.247 59.825,-30.914 89.5,-47 1.333,-1.333 1.333,-2.667 0,-4 -24.662,13.331 -49.329,26.665 -74,40 1.891,-1.978 3.891,-3.978 6,-6 5.734,-2.858 11.067,-6.191 16,-10 4.271,-0.77 8.271,-2.27 12,-4.5 6.08,-4.075 12.414,-7.742 19,-11 0.881,-0.708 1.547,-1.542 2,-2.5 4.608,0.225 7.275,-1.942 8,-6.5 -1.346,-8.8 -1.846,-17.633 -1.5,-26.5 0.2,-1.82 1.034,-3.153 2.5,-4 6.487,1.154 13.154,1.321 20,0.5 -5.481,-1.449 -11.148,-1.949 -17,-1.5 5.846,-1.317 11.846,-1.317 18,0 1.706,6.541 2.373,13.208 2,20 2.771,0.079 5.437,-0.421 8,-1.5 0.752,-0.671 1.086,-1.504 1,-2.5 4.59,-1.421 7.756,-4.421 9.5,-9 0.333,-15 0.667,-30 1,-45 2.319,-8.158 3.486,-16.492 3.5,-25 2.901,-5.472 5.734,-11.139 8.5,-17 2.167,-2.167 4.333,-4.333 6.5,-6.5 2.471,-0.706 4.805,-0.373 7,1 1.87,2.04 3.87,3.873 6,5.5 z"
         id="path358" />
    </g>
    <g
       id="g359"
       style="clip-rule:evenodd;fill-rule:evenodd;image-rendering:optimizeQuality;shape-rendering:geometricPrecision;text-rendering:geometricPrecision"
       transform="matrix(0.26458333,0,0,0.26458333,-173.04145,-103.07066)">
      <path
         style="opacity:1"
         fill="#ec8417"
         d="m 833.5,633.5 c 1.617,1.089 2.45,2.756 2.5,5 0.907,22.703 0.407,45.369 -1.5,68 -2.219,-24.306 -2.553,-48.639 -1,-73 z"
         id="path359" />
    </g>
    <g
       id="g360"
       style="clip-rule:evenodd;fill-rule:evenodd;image-rendering:optimizeQuality;shape-rendering:geometricPrecision;text-rendering:geometricPrecision"
       transform="matrix(0.26458333,0,0,0.26458333,-173.04145,-103.07066)">
      <path
         style="opacity:1"
         fill="#efdfcb"
         d="m 765.5,591.5 c -4.15,-1.564 -7.65,-0.564 -10.5,3 -1.626,-0.354 -3.459,-0.354 -5.5,0 0.065,3.994 -1.935,6.327 -6,7 -3.083,-0.835 -5.916,-2.168 -8.5,-4 -4.733,1.858 -9.567,3.191 -14.5,4 5.999,-2.776 12.333,-4.776 19,-6 0.28,3.725 2.28,4.892 6,3.5 0.923,-2.041 1.256,-4.208 1,-6.5 5.123,-1.428 10.29,-2.762 15.5,-4 2.275,-0.222 3.441,0.778 3.5,3 z"
         id="path360" />
    </g>
    <g
       id="g361"
       style="clip-rule:evenodd;fill-rule:evenodd;image-rendering:optimizeQuality;shape-rendering:geometricPrecision;text-rendering:geometricPrecision"
       transform="matrix(0.26458333,0,0,0.26458333,-173.04145,-103.07066)">
      <path
         style="opacity:1"
         fill="#946739"
         d="m 896.5,585.5 c 1.447,1.122 2.447,2.622 3,4.5 1.634,0.494 3.301,0.66 5,0.5 -0.111,0.617 -0.444,1.117 -1,1.5 -4.623,0.55 -6.957,-1.616 -7,-6.5 z"
         id="path361" />
    </g>
    <g
       id="g362"
       style="clip-rule:evenodd;fill-rule:evenodd;image-rendering:optimizeQuality;shape-rendering:geometricPrecision;text-rendering:geometricPrecision"
       transform="matrix(0.26458333,0,0,0.26458333,-173.04145,-103.07066)">
      <path
         style="opacity:1"
         fill="#9e5615"
         d="m 760.5,584.5 c 3.753,-0.727 6.419,0.607 8,4 1.685,-1.453 3.351,-2.786 5,-4 -0.899,2.528 -1.899,5.028 -3,7.5 -1.765,0.64 -3.432,0.473 -5,-0.5 -0.059,-2.222 -1.225,-3.222 -3.5,-3 -5.21,1.238 -10.377,2.572 -15.5,4 0.256,2.292 -0.077,4.459 -1,6.5 -3.72,1.392 -5.72,0.225 -6,-3.5 -6.667,1.224 -13.001,3.224 -19,6 -0.667,0 -1.333,0 -2,0 -4.887,1.74 -9.887,3.073 -15,4 4.693,-3.487 10.027,-5.32 16,-5.5 6.374,-4.143 13.374,-6.143 21,-6 0.626,0.75 1.126,1.584 1.5,2.5 1.257,-2.851 2.757,-5.518 4.5,-8 4.679,-1.336 9.345,-2.669 14,-4 z"
         id="path362" />
    </g>
    <g
       id="g363"
       style="clip-rule:evenodd;fill-rule:evenodd;image-rendering:optimizeQuality;shape-rendering:geometricPrecision;text-rendering:geometricPrecision"
       transform="matrix(0.26458333,0,0,0.26458333,-173.04145,-103.07066)">
      <path
         style="opacity:1"
         fill="#ee8513"
         d="m 760.5,584.5 c -4.655,1.331 -9.321,2.664 -14,4 -5.633,1.824 -11.3,3.491 -17,5 0.203,-1.544 0.87,-2.878 2,-4 12.688,-5.843 25.688,-11.01 39,-15.5 4.993,-1.509 6.993,0.325 6,5.5 -5.515,1.374 -10.848,3.04 -16,5 z"
         id="path363" />
    </g>
    <g
       id="g364"
       style="clip-rule:evenodd;fill-rule:evenodd;image-rendering:optimizeQuality;shape-rendering:geometricPrecision;text-rendering:geometricPrecision"
       transform="matrix(0.26458333,0,0,0.26458333,-173.04145,-103.07066)">
      <path
         style="opacity:1"
         fill="#ec8311"
         d="m 920.5,588.5 c -1.802,-0.958 -3.802,-1.625 -6,-2 -7.841,-1.837 -15.507,-4.504 -23,-8 0.809,-1.571 1.143,-3.238 1,-5 13.923,3.585 27.59,8.085 41,13.5 3.385,0.881 5.052,3.048 5,6.5 -5.989,-1.664 -11.989,-3.331 -18,-5 z"
         id="path364" />
    </g>
    <g
       id="g365"
       style="clip-rule:evenodd;fill-rule:evenodd;image-rendering:optimizeQuality;shape-rendering:geometricPrecision;text-rendering:geometricPrecision"
       transform="matrix(0.26458333,0,0,0.26458333,-173.04145,-103.07066)">
      <path
         style="opacity:1"
         fill="#a85f1d"
         d="m 794.5,583.5 c 0.582,5.025 -1.418,6.692 -6,5 -0.906,-1.886 -1.906,-3.72 -3,-5.5 -4.111,-0.465 -8.111,0.035 -12,1.5 1.77,-1.264 3.437,-2.764 5,-4.5 4.756,-1.453 8.09,0.047 10,4.5 1.316,-2.528 2.483,-2.528 3.5,0 0.671,-0.752 1.504,-1.086 2.5,-1 z"
         id="path365" />
    </g>
    <g
       id="g366"
       style="clip-rule:evenodd;fill-rule:evenodd;image-rendering:optimizeQuality;shape-rendering:geometricPrecision;text-rendering:geometricPrecision"
       transform="matrix(0.26458333,0,0,0.26458333,-173.04145,-103.07066)">
      <path
         style="opacity:1"
         fill="#e77e13"
         d="m 787.5,572.5 c 8,0 16,0 24,0 0,2 0,4 0,6 -7.674,0.166 -15.341,0 -23,-0.5 -2.31,-1.459 -2.643,-3.292 -1,-5.5 z"
         id="path366" />
    </g>
    <g
       id="g367"
       style="clip-rule:evenodd;fill-rule:evenodd;image-rendering:optimizeQuality;shape-rendering:geometricPrecision;text-rendering:geometricPrecision"
       transform="matrix(0.26458333,0,0,0.26458333,-173.04145,-103.07066)">
      <path
         style="opacity:1"
         fill="#e67e11"
         d="m 857.5,572.5 c 8,0 16,0 24,0 0.333,2 0.667,4 1,6 -8.333,0 -16.667,0 -25,0 0,-2 0,-4 0,-6 z"
         id="path367" />
    </g>
    <g
       id="g368"
       style="clip-rule:evenodd;fill-rule:evenodd;image-rendering:optimizeQuality;shape-rendering:geometricPrecision;text-rendering:geometricPrecision"
       transform="matrix(0.26458333,0,0,0.26458333,-173.04145,-103.07066)">
      <path
         style="opacity:1"
         fill="#f08308"
         d="m 810.5,530.5 c 0.996,13.156 1.329,26.49 1,40 -8.34,-0.166 -16.673,0 -25,0.5 -1.228,2.572 -2.895,4.738 -5,6.5 -0.942,-0.108 -1.775,-0.441 -2.5,-1 -0.364,-2.749 -1.697,-4.749 -4,-6 -13.446,4.973 -26.946,9.806 -40.5,14.5 -4.337,1.172 -6.337,4.006 -6,8.5 -16.65,6.086 -33.65,11.419 -51,16 0.498,-2.987 0.998,-5.987 1.5,-9 2.041,-6.69 6.041,-8.69 12,-6 34.305,-18.006 68.805,-35.839 103.5,-53.5 5.912,-2.778 11.245,-6.278 16,-10.5 z"
         id="path368" />
    </g>
    <g
       id="g369"
       style="clip-rule:evenodd;fill-rule:evenodd;image-rendering:optimizeQuality;shape-rendering:geometricPrecision;text-rendering:geometricPrecision"
       transform="matrix(0.26458333,0,0,0.26458333,-173.04145,-103.07066)">
      <path
         style="opacity:1"
         fill="#e9820c"
         d="m 917.5,563.5 c -8.739,-0.737 -16.072,-4.237 -22,-10.5 -3.908,-0.582 -7.408,-2.082 -10.5,-4.5 -0.333,0.333 -0.667,0.667 -1,1 -0.853,-1.625 -1.853,-1.958 -3,-1 -1.333,-1.333 -2.667,-2.667 -4,-4 -3.323,1.984 -6.657,3.984 -10,6 -0.5,-0.333 -1,-0.667 -1.5,-1 1.124,-1.414 2.124,-2.914 3,-4.5 -0.808,-0.308 -1.475,-0.808 -2,-1.5 0.667,-0.333 1.333,-0.667 2,-1 -0.583,-1.502 -1.416,-2.835 -2.5,-4 -0.333,0.333 -0.667,0.667 -1,1 -1.51,-1.708 -3.01,-3.374 -4.5,-5 -0.333,0.333 -0.667,0.667 -1,1 1.189,3.104 2.523,5.437 4,7 -0.167,0.667 -0.333,1.333 -0.5,2 -0.805,-2.401 -1.638,-2.234 -2.5,0.5 1.366,2.382 1.033,4.548 -1,6.5 0.255,1.843 0.422,3.843 0.5,6 0.414,0.457 0.914,0.791 1.5,1 1.165,-0.991 2.332,-1.991 3.5,-3 1.563,0.602 1.396,1.435 -0.5,2.5 1.363,2.129 1.029,2.629 -1,1.5 -3.59,2.317 -4.923,5.651 -4,10 2.377,-0.284 4.544,-0.284 6.5,0 3.606,-1.629 6.939,-1.962 10,-1 0.689,-0.857 1.522,-1.523 2.5,-2 1.22,1.211 2.387,1.211 3.5,0 1.052,2.311 2.885,3.644 5.5,4 4.846,-2.265 9.18,-1.598 13,2 -6.631,-2.893 -10.631,-0.893 -12,6 -1.236,-0.746 -2.57,-1.079 -4,-1 -0.086,-2.177 -0.753,-4.177 -2,-6 -8.307,-0.998 -16.64,-1.331 -25,-1 -0.167,-13.337 0,-26.671 0.5,-40 2.906,2.537 6.073,4.704 9.5,6.5 16.855,8.593 33.522,17.426 50,26.5 z"
         id="path369" />
    </g>
    <g
       id="g370"
       style="clip-rule:evenodd;fill-rule:evenodd;image-rendering:optimizeQuality;shape-rendering:geometricPrecision;text-rendering:geometricPrecision"
       transform="matrix(0.26458333,0,0,0.26458333,-173.04145,-103.07066)">
      <path
         style="opacity:1"
         fill="#ec9133"
         d="m 868.5,530.5 c 0.342,0.838 1.008,1.172 2,1 4.112,2.559 8.446,4.892 13,7 1.333,1.667 1.333,3.333 0,5 -7,-3.833 -14,-7.667 -21,-11.5 -3.387,-2.002 -4.887,-4.835 -4.5,-8.5 3.128,2.974 6.628,5.307 10.5,7 z"
         id="path370" />
    </g>
    <g
       id="g371"
       style="clip-rule:evenodd;fill-rule:evenodd;image-rendering:optimizeQuality;shape-rendering:geometricPrecision;text-rendering:geometricPrecision"
       transform="matrix(0.26458333,0,0,0.26458333,-173.04145,-103.07066)">
      <path
         style="opacity:1"
         fill="#872405"
         d="m 843.5,535.5 c 7.079,7.552 7.912,15.886 2.5,25 -3.297,5.128 -7.13,9.794 -11.5,14 -11.102,-7.868 -15.936,-18.535 -14.5,-32 5.621,-9.215 13.455,-11.549 23.5,-7 z"
         id="path371" />
    </g>
    <g
       id="g372"
       style="clip-rule:evenodd;fill-rule:evenodd;image-rendering:optimizeQuality;shape-rendering:geometricPrecision;text-rendering:geometricPrecision"
       transform="matrix(0.26458333,0,0,0.26458333,-173.04145,-103.07066)">
      <path
         style="opacity:1"
         fill="#ab443b"
         d="m 829.5,535.5 c 12.653,-1.122 18.487,4.544 17.5,17 -2.852,7.489 -7.185,13.822 -13,19 -8.661,-7.312 -12.661,-16.646 -12,-28 2.028,-3.192 4.528,-5.859 7.5,-8 z"
         id="path372" />
    </g>
    <g
       id="g373"
       style="clip-rule:evenodd;fill-rule:evenodd;image-rendering:optimizeQuality;shape-rendering:geometricPrecision;text-rendering:geometricPrecision"
       transform="matrix(0.26458333,0,0,0.26458333,-173.04145,-103.07066)">
      <path
         style="opacity:1"
         fill="#762d25"
         d="m 830.5,542.5 c 8.493,-1.029 10.827,2.137 7,9.5 -8.688,1.481 -11.021,-1.686 -7,-9.5 z"
         id="path373" />
    </g>
    <g
       id="g374"
       style="clip-rule:evenodd;fill-rule:evenodd;image-rendering:optimizeQuality;shape-rendering:geometricPrecision;text-rendering:geometricPrecision"
       transform="matrix(0.26458333,0,0,0.26458333,-173.04145,-103.07066)">
      <path
         style="opacity:1"
         fill="#f5e7e4"
         d="m 832.5,543.5 c 4.476,0.3 5.81,2.467 4,6.5 -5.762,0.418 -7.096,-1.749 -4,-6.5 z"
         id="path374" />
    </g>
    <g
       id="g375"
       style="clip-rule:evenodd;fill-rule:evenodd;image-rendering:optimizeQuality;shape-rendering:geometricPrecision;text-rendering:geometricPrecision"
       transform="matrix(0.26458333,0,0,0.26458333,-173.04145,-103.07066)">
      <path
         style="opacity:1"
         fill="#ef9231"
         d="m 810.5,522.5 c 1.113,1.446 1.28,3.113 0.5,5 -1.5,1.5 -3,3 -4.5,4.5 -7,3.833 -14,7.667 -21,11.5 -1.333,-1.667 -1.333,-3.333 0,-5 9.447,-3.816 17.78,-9.149 25,-16 z"
         id="path375" />
    </g>
    <g
       id="g376"
       style="clip-rule:evenodd;fill-rule:evenodd;image-rendering:optimizeQuality;shape-rendering:geometricPrecision;text-rendering:geometricPrecision"
       transform="matrix(0.26458333,0,0,0.26458333,-173.04145,-103.07066)">
      <path
         style="opacity:1"
         fill="#ec8410"
         d="m 878.5,513.5 c 7,0 14,0 21,0 0.166,5.344 -10e-4,10.677 -0.5,16 -0.113,4.043 -1.279,7.709 -3.5,11 -1.248,-0.54 -2.415,-1.207 -3.5,-2 -0.19,-5.916 -0.69,-11.749 -1.5,-17.5 -1.759,-0.798 -3.426,-0.631 -5,0.5 -0.612,4.32 -1.278,8.653 -2,13 -1.832,-0.748 -3.499,-1.748 -5,-3 -1.288,-6.054 -1.288,-12.054 0,-18 z"
         id="path376" />
    </g>
    <g
       id="g377"
       style="clip-rule:evenodd;fill-rule:evenodd;image-rendering:optimizeQuality;shape-rendering:geometricPrecision;text-rendering:geometricPrecision"
       transform="matrix(0.26458333,0,0,0.26458333,-173.04145,-103.07066)">
      <path
         style="opacity:1"
         fill="#ec8511"
         d="m 769.5,513.5 c 7.008,-0.166 14.008,0 21,0.5 1.307,5.779 1.307,11.612 0,17.5 -1.501,1.252 -3.168,2.252 -5,3 -0.827,-3.959 -1.327,-7.959 -1.5,-12 -1.478,-3.493 -3.478,-3.826 -6,-1 -0.505,6.05 -1.339,12.05 -2.5,18 -0.951,0.826 -1.951,0.992 -3,0.5 -2.616,-8.599 -3.616,-17.432 -3,-26.5 z"
         id="path377" />
    </g>
    <g
       id="g378"
       style="clip-rule:evenodd;fill-rule:evenodd;image-rendering:optimizeQuality;shape-rendering:geometricPrecision;text-rendering:geometricPrecision"
       transform="matrix(0.26458333,0,0,0.26458333,-173.04145,-103.07066)">
      <path
         style="opacity:1"
         fill="#f48401"
         d="m 850.5,457.5 c 0.968,2.107 1.302,4.441 1,7 -1.322,-0.17 -2.489,0.163 -3.5,1 -0.667,3 -0.667,6 0,9 1.444,1.655 3.278,2.322 5.5,2 0,20.667 0,41.333 0,62 -0.765,0.423 -1.598,0.757 -2.5,1 -2.406,-1.626 -4.906,-2.959 -7.5,-4 -0.848,-1.593 -2.181,-2.76 -4,-3.5 -4.055,-0.232 -8.055,-0.732 -12,-1.5 -0.667,0.667 -1.333,1.333 -2,2 -1.167,-1.667 -2.333,-3.333 -3.5,-5 -0.984,2.295 -1.817,1.961 -2.5,-1 0.826,-2.048 0.159,-3.715 -2,-5 -0.333,-7.5 -0.667,-15 -1,-22.5 0.033,-8.067 0.699,-15.9 2,-23.5 1.406,-0.473 2.073,-1.473 2,-3 0.802,-1.452 1.302,-3.118 1.5,-5 1.195,3.181 1.529,6.181 1,9 1.602,-1.763 2.102,-3.596 1.5,-5.5 3.791,0.438 7.458,0.438 11,0 -2.391,-0.691 -2.391,-1.691 0,-3 -0.333,-0.333 -0.667,-0.667 -1,-1 2.084,-0.778 3.917,-1.945 5.5,-3.5 0.333,0.333 0.667,0.667 1,1 2.483,-3.324 5.65,-5.658 9.5,-7 z"
         id="path378" />
    </g>
    <g
       id="g379"
       style="clip-rule:evenodd;fill-rule:evenodd;image-rendering:optimizeQuality;shape-rendering:geometricPrecision;text-rendering:geometricPrecision"
       transform="matrix(0.26458333,0,0,0.26458333,-173.04145,-103.07066)">
      <path
         style="opacity:1"
         fill="#ee8109"
         d="m 850.5,457.5 c -3.85,1.342 -7.017,3.676 -9.5,7 -0.333,-0.333 -0.667,-0.667 -1,-1 -1.583,1.555 -3.416,2.722 -5.5,3.5 0.333,0.333 0.667,0.667 1,1 -2.391,1.309 -2.391,2.309 0,3 -3.542,0.438 -7.209,0.438 -11,0 0.602,1.904 0.102,3.737 -1.5,5.5 0.529,-2.819 0.195,-5.819 -1,-9 -0.198,1.882 -0.698,3.548 -1.5,5 0,-2.667 0,-5.333 0,-8 -1,0 -2,0 -3,0 -0.278,-8.334 1.222,-16.334 4.5,-24 2.03,-7.089 6.197,-12.422 12.5,-16 2.228,0.719 4.061,2.052 5.5,4 5.748,8.834 9.248,18.5 10.5,29 z"
         id="path379" />
    </g>
    <g
       id="g380"
       style="clip-rule:evenodd;fill-rule:evenodd;image-rendering:optimizeQuality;shape-rendering:geometricPrecision;text-rendering:geometricPrecision"
       transform="matrix(0.26458333,0,0,0.26458333,-173.04145,-103.07066)">
      <path
         style="opacity:1"
         fill="#b85602"
         d="m 829.5,437.5 c 10.555,-0.925 16.389,3.742 17.5,14 -1.388,1.054 -2.888,1.22 -4.5,0.5 -5.581,-8.577 -11.247,-8.577 -17,0 -2.737,1.08 -4.404,0.246 -5,-2.5 1.516,-5.174 4.516,-9.174 9,-12 z"
         id="path380" />
    </g>
    <g
       id="g381"
       style="clip-rule:evenodd;fill-rule:evenodd;image-rendering:optimizeQuality;shape-rendering:geometricPrecision;text-rendering:geometricPrecision"
       transform="matrix(0.26458333,0,0,0.26458333,-173.04145,-103.07066)">
      <path
         style="opacity:1"
         fill="#d6710e"
         d="m 830.5,439.5 c 7.231,-0.777 12.231,2.223 15,9 -0.5,0.333 -1,0.667 -1.5,1 -4.104,-5.246 -9.604,-7.58 -16.5,-7 0.84,-1.235 1.84,-2.235 3,-3 z"
         id="path381" />
    </g>
    <g
       id="g382"
       style="clip-rule:evenodd;fill-rule:evenodd;image-rendering:optimizeQuality;shape-rendering:geometricPrecision;text-rendering:geometricPrecision"
       transform="matrix(0.26458333,0,0,0.26458333,-173.04145,-103.07066)">
      <path
         style="opacity:1"
         fill="#ef840d"
         d="m 849.5,670.5 c 15.768,10.588 31.435,21.421 47,32.5 0.833,0.833 1.667,1.667 2.5,2.5 0.667,3.333 0.667,6.667 0,10 -4.579,-4.043 -9.745,-7.21 -15.5,-9.5 -12.293,-5.264 -24.626,-10.431 -37,-15.5 -0.333,-0.833 -0.667,-1.667 -1,-2.5 1.416,-5.83 2.749,-11.663 4,-17.5 z"
         id="path382" />
    </g>
    <g
       id="g384"
       style="clip-rule:evenodd;fill-rule:evenodd;image-rendering:optimizeQuality;shape-rendering:geometricPrecision;text-rendering:geometricPrecision"
       transform="matrix(0.26458333,0,0,0.26458333,-173.04145,-103.07066)">
      <path
         style="opacity:1"
         fill="#e88113"
         d="m 844.5,692.5 c 17.044,6.357 33.71,13.524 50,21.5 -1.667,0.667 -3.333,0.667 -5,0 -14.785,-4.261 -29.452,-8.928 -44,-14 -1.078,-0.674 -1.745,-1.674 -2,-3 0.273,-1.533 0.606,-3.033 1,-4.5 z"
         id="path384" />
    </g>
    <g
       id="g386"
       style="clip-rule:evenodd;fill-rule:evenodd;image-rendering:optimizeQuality;shape-rendering:geometricPrecision;text-rendering:geometricPrecision"
       transform="matrix(0.26458333,0,0,0.26458333,-173.04145,-103.07066)">
      <path
         style="opacity:1"
         fill="#9f6128"
         d="m 882.5,689.5 c 1.667,0.667 3.333,1.333 5,2 4.935,3.758 9.768,7.758 14.5,12 1.563,5.218 1.896,10.551 1,16 -2.064,1.091 -4.231,1.258 -6.5,0.5 -4.502,-1.365 -8.836,-2.865 -13,-4.5 6.083,0.022 12.083,0.689 18,2 0.166,-4.346 -10e-4,-8.679 -0.5,-13 -5.063,-4.449 -10.563,-8.283 -16.5,-11.5 -1.323,-0.816 -1.989,-1.983 -2,-3.5 z"
         id="path386" />
    </g>
    <g
       id="g388"
       style="clip-rule:evenodd;fill-rule:evenodd;image-rendering:optimizeQuality;shape-rendering:geometricPrecision;text-rendering:geometricPrecision"
       transform="matrix(0.26458333,0,0,0.26458333,-173.04145,-103.07066)">
      <path
         style="opacity:1"
         fill="#986130"
         d="m 860.5,708.5 c -5.825,-1.052 -11.492,-2.719 -17,-5 -1.359,1.124 -2.359,2.458 -3,4 0,-1 0,-2 0,-3 0.111,-0.617 0.444,-1.117 1,-1.5 2.333,-0.667 4.667,-0.667 7,0 3.941,2.139 7.941,3.972 12,5.5 z"
         id="path388" />
    </g>
    <g
       id="g389"
       style="clip-rule:evenodd;fill-rule:evenodd;image-rendering:optimizeQuality;shape-rendering:geometricPrecision;text-rendering:geometricPrecision"
       transform="matrix(0.26458333,0,0,0.26458333,-173.04145,-103.07066)">
      <path
         style="opacity:1"
         fill="#a45817"
         d="m 829.5,698.5 c 0.801,1.542 1.134,3.208 1,5 1.142,3.571 1.809,7.238 2,11 1.89,0.203 3.39,-0.463 4.5,-2 0.373,-2.198 0.873,-4.365 1.5,-6.5 0.336,-1.03 1.003,-1.53 2,-1.5 0,1 0,2 0,3 -0.357,3.763 -1.19,7.43 -2.5,11 -2.758,4.149 -5.091,3.816 -7,-1 -1.171,-4.686 -2.338,-9.352 -3.5,-14 -13.255,3.557 -26.255,7.557 -39,12 -1.333,0 -2.667,0 -4,0 -3,0 -6,0 -9,0 16.756,-5.023 33.423,-10.356 50,-16 1.325,-1.453 2.158,-1.119 2.5,1 0.278,-0.916 0.778,-1.582 1.5,-2 z"
         id="path389" />
    </g>
    <g
       id="g390"
       style="clip-rule:evenodd;fill-rule:evenodd;image-rendering:optimizeQuality;shape-rendering:geometricPrecision;text-rendering:geometricPrecision"
       transform="matrix(0.26458333,0,0,0.26458333,-173.04145,-103.07066)">
      <path
         style="opacity:1"
         fill="#e78215"
         d="m 825.5,699.5 c -16.577,5.644 -33.244,10.977 -50,16 -0.333,0 -0.667,0 -1,0 1.126,-1.953 2.792,-3.453 5,-4.5 14.782,-5.891 29.448,-12.057 44,-18.5 1.135,2.207 1.801,4.54 2,7 z"
         id="path390" />
    </g>
    <g
       id="g391"
       style="clip-rule:evenodd;fill-rule:evenodd;image-rendering:optimizeQuality;shape-rendering:geometricPrecision;text-rendering:geometricPrecision"
       transform="matrix(0.26458333,0,0,0.26458333,-173.04145,-103.07066)">
      <path
         style="opacity:1"
         fill="#f3e3d0"
         d="m 767.5,702.5 c -2.205,5.703 -2.538,11.536 -1,17.5 6.323,-0.389 12.323,-1.889 18,-4.5 1.333,0 2.667,0 4,0 -1.861,2.623 -4.528,3.957 -8,4 -1.588,0.51 -2.755,1.51 -3.5,3 -3.633,0.017 -7.467,-0.15 -11.5,-0.5 -0.626,-0.75 -1.126,-1.584 -1.5,-2.5 -0.667,-4.333 -0.667,-8.667 0,-13 0.498,-2.044 1.665,-3.378 3.5,-4 z"
         id="path391" />
    </g>
    <g
       id="g393"
       style="clip-rule:evenodd;fill-rule:evenodd;image-rendering:optimizeQuality;shape-rendering:geometricPrecision;text-rendering:geometricPrecision"
       transform="matrix(0.26458333,0,0,0.26458333,-173.04145,-103.07066)">
      <path
         style="opacity:1"
         fill="#f2e4d3"
         d="m 887.5,691.5 c 7.236,2.607 12.903,7.107 17,13.5 1.036,5.139 1.203,10.305 0.5,15.5 -1.473,1.636 -3.307,2.636 -5.5,3 -1.704,-0.568 -3.204,-0.568 -4.5,0 -6.478,-3.167 -13.311,-5.5 -20.5,-7 -1.303,1.218 -2.303,0.885 -3,-1 -4.238,-0.799 -8.071,-2.466 -11.5,-5 -4.275,-1.536 -8.609,-2.87 -13,-4 -1.107,0.085 -2.107,0.419 -3,1 -0.378,4.19 -1.545,8.024 -3.5,11.5 0.951,0.718 1.117,1.551 0.5,2.5 -2.192,0.899 -4.358,1.899 -6.5,3 -5.232,-3.124 -7.899,-7.79 -8,-14 -0.631,-1.798 -1.798,-3.131 -3.5,-4 -8.347,1.913 -16.347,4.579 -24,8 -0.561,-0.522 -1.228,-0.855 -2,-1 -2.724,1.187 -5.557,1.853 -8.5,2 12.745,-4.443 25.745,-8.443 39,-12 1.162,4.648 2.329,9.314 3.5,14 1.909,4.816 4.242,5.149 7,1 1.31,-3.57 2.143,-7.237 2.5,-11 0.641,-1.542 1.641,-2.876 3,-4 5.508,2.281 11.175,3.948 17,5 7.382,2.902 15.049,5.235 23,7 4.164,1.635 8.498,3.135 13,4.5 2.269,0.758 4.436,0.591 6.5,-0.5 0.896,-5.449 0.563,-10.782 -1,-16 -4.732,-4.242 -9.565,-8.242 -14.5,-12 z"
         id="path393" />
    </g>
    <g
       id="g394"
       style="clip-rule:evenodd;fill-rule:evenodd;image-rendering:optimizeQuality;shape-rendering:geometricPrecision;text-rendering:geometricPrecision"
       transform="matrix(0.26458333,0,0,0.26458333,-173.04145,-103.07066)">
      <path
         style="opacity:1"
         fill="#9d6735"
         d="m 860.5,708.5 c 8.194,0.956 15.861,3.29 23,7 -7.951,-1.765 -15.618,-4.098 -23,-7 z"
         id="path394" />
    </g>
    <g
       id="g395"
       style="clip-rule:evenodd;fill-rule:evenodd;image-rendering:optimizeQuality;shape-rendering:geometricPrecision;text-rendering:geometricPrecision"
       transform="matrix(0.26458333,0,0,0.26458333,-173.04145,-103.07066)">
      <path
         style="opacity:1"
         fill="#995922"
         d="m 808.5,673.5 c -3.152,3.297 -6.819,6.13 -11,8.5 -0.953,1.955 -2.287,3.622 -4,5 -8.327,4.31 -16.16,9.477 -23.5,15.5 -1.325,4.901 -1.825,9.901 -1.5,15 2.398,0.241 4.398,-0.426 6,-2 0.333,0 0.667,0 1,0 3,0 6,0 9,0 -5.677,2.611 -11.677,4.111 -18,4.5 -1.538,-5.964 -1.205,-11.797 1,-17.5 13.407,-10.08 27.074,-19.747 41,-29 z"
         id="path395" />
    </g>
  </g>
</svg>
