<?xml version="1.0" encoding="UTF-8" standalone="no"?>
<!-- Created with Inkscape (http://www.inkscape.org/) -->

<svg
   width="96mm"
   height="96mm"
   viewBox="0 0 96 96"
   version="1.1"
   id="svg1"
   inkscape:version="1.4.2 (ebf0e940, 2025-05-08)"
   sodipodi:docname="tram.svg"
   xmlns:inkscape="http://www.inkscape.org/namespaces/inkscape"
   xmlns:sodipodi="http://sodipodi.sourceforge.net/DTD/sodipodi-0.dtd"
   xmlns="http://www.w3.org/2000/svg"
   xmlns:svg="http://www.w3.org/2000/svg">
  <sodipodi:namedview
     id="namedview1"
     pagecolor="#ffffff"
     bordercolor="#000000"
     borderopacity="0.25"
     inkscape:showpageshadow="2"
     inkscape:pageopacity="0.0"
     inkscape:pagecheckerboard="0"
     inkscape:deskcolor="#d1d1d1"
     inkscape:document-units="mm"
     inkscape:zoom="0.80444024"
     inkscape:cx="397.17059"
     inkscape:cy="262.91574"
     inkscape:window-width="1920"
     inkscape:window-height="1052"
     inkscape:window-x="0"
     inkscape:window-y="28"
     inkscape:window-maximized="0"
     inkscape:current-layer="layer1" />
  <defs
     id="defs1" />
  <g
     inkscape:label="Layer 1"
     inkscape:groupmode="layer"
     id="layer1">
    <g
       id="g2"
       style="clip-rule:evenodd;fill-rule:evenodd;image-rendering:optimizeQuality;shape-rendering:geometricPrecision;text-rendering:geometricPrecision"
       transform="matrix(0.26458333,0,0,0.26458333,-170.73914,4.9606095)">
      <path
         style="opacity:1"
         fill="#f5e0c8"
         d="m 854.5,9.5 c -11.587,-4.3813 -23.253,-5.04796 -35,-2 -6.702,0.28434 -12.202,2.951 -16.5,8 -2.878,7.9323 -5.045,15.9323 -6.5,24 0,-1 0,-2 0,-3 0.725,-7.9016 2.558,-15.5683 5.5,-23 9.335,-7.17414 20.001,-10.50747 32,-10 7.462,0.20727 14.628,1.70727 21.5,4.5 -0.556,0.38258 -0.889,0.88258 -1,1.5 z"
         id="path2" />
    </g>
    <g
       id="g4"
       style="clip-rule:evenodd;fill-rule:evenodd;image-rendering:optimizeQuality;shape-rendering:geometricPrecision;text-rendering:geometricPrecision"
       transform="matrix(0.26458333,0,0,0.26458333,-170.73914,4.9606095)">
      <path
         style="opacity:1"
         fill="#ab5708"
         d="m 857.5,11.5 c 1.871,0.3588 3.371,1.3588 4.5,3 1.674,3.5207 2.84,7.1873 3.5,11 -0.071,5.0995 0.596,10.0995 2,15 1,38.6609 1.333,77.328 1,116 -0.333,0 -0.667,0 -1,0 -0.985,4.134 -1.318,8.468 -1,13 -0.667,0 -1.333,0 -2,0 0.217,-4.73 -0.117,-9.397 -1,-14 0.438,0.065 0.772,-0.101 1,-0.5 -0.916,-0.278 -1.582,-0.778 -2,-1.5 1.333,0 2.667,0 4,0 0.167,-35.335 0,-70.6682 -0.5,-106 -1.442,-10.2077 -3.775,-20.2077 -7,-30 -3.521,-3.3445 -7.688,-5.5112 -12.5,-6.5 -13.165,-2.99344 -25.832,-1.6601 -38,4 -1.541,1.5793 -2.708,3.4127 -3.5,5.5 -2.097,8.5806 -3.764,17.2472 -5,26 -0.5,28.6647 -0.667,57.331 -0.5,86 -1.333,-13.15 -1.999,-26.65 -2,-40.5 -1.236,-24.4472 0.597,-48.6139 5.5,-72.5 4.218,-5.8502 9.718,-9.85018 16.5,-12 7.311,-0.96909 14.644,-1.13576 22,-0.5 5.253,1.7937 10.586,3.2937 16,4.5 z"
         id="path4" />
    </g>
    <g
       id="g5"
       style="clip-rule:evenodd;fill-rule:evenodd;image-rendering:optimizeQuality;shape-rendering:geometricPrecision;text-rendering:geometricPrecision"
       transform="matrix(0.26458333,0,0,0.26458333,-170.73914,4.9606095)">
      <path
         style="opacity:1"
         fill="#965b27"
         d="m 854.5,9.5 c 1.21,0.43205 2.21,1.0987 3,2 -5.414,-1.2063 -10.747,-2.7063 -16,-4.5 -7.356,-0.63576 -14.689,-0.46909 -22,0.5 11.747,-3.04796 23.413,-2.3813 35,2 z"
         id="path5" />
    </g>
    <g
       id="g11"
       style="clip-rule:evenodd;fill-rule:evenodd;image-rendering:optimizeQuality;shape-rendering:geometricPrecision;text-rendering:geometricPrecision"
       transform="matrix(0.26458333,0,0,0.26458333,-170.73914,4.9606095)">
      <path
         style="opacity:1"
         fill="#f3952e"
         d="m 862.5,153.5 c -0.832,-34.498 -1.332,-69.1643 -1.5,-104 -0.346,-3.0755 -1.012,-6.0755 -2,-9 -0.903,-1.2014 -2.069,-2.0348 -3.5,-2.5 -14.604,-2.8306 -29.271,-3.164 -44,-1 -2.087,0.7922 -3.921,1.9588 -5.5,3.5 -0.774,3.647 -1.441,7.3136 -2,11 0.146,27.2242 -0.688,54.224 -2.5,81 -0.667,0 -1.333,0 -2,0 -0.167,-28.669 0,-57.3353 0.5,-86 1.236,-8.7528 2.903,-17.4194 5,-26 0.792,-2.0873 1.959,-3.9207 3.5,-5.5 12.168,-5.6601 24.835,-6.99344 38,-4 4.812,0.9888 8.979,3.1555 12.5,6.5 3.225,9.7923 5.558,19.7923 7,30 0.5,35.3318 0.667,70.665 0.5,106 -1.333,0 -2.667,0 -4,0 z"
         id="path11" />
    </g>
    <g
       id="g12"
       style="clip-rule:evenodd;fill-rule:evenodd;image-rendering:optimizeQuality;shape-rendering:geometricPrecision;text-rendering:geometricPrecision"
       transform="matrix(0.26458333,0,0,0.26458333,-170.73914,4.9606095)">
      <path
         style="opacity:1"
         fill="#b25100"
         d="m 824.5,13.5 c 11.011,-1.1446 21.511,0.5221 31.5,5 0.667,3.3333 0.667,6.6667 0,10 -1.569,0.6222 -3.236,0.9555 -5,1 -6.101,-1.2534 -12.268,-1.9201 -18.5,-2 -7.357,0.6182 -14.691,1.1182 -22,1.5 -2.023,-3.1831 -2.523,-6.6831 -1.5,-10.5 5.08,-2.2386 10.247,-3.9053 15.5,-5 z"
         id="path12" />
    </g>
    <g
       id="g13"
       style="clip-rule:evenodd;fill-rule:evenodd;image-rendering:optimizeQuality;shape-rendering:geometricPrecision;text-rendering:geometricPrecision"
       transform="matrix(0.26458333,0,0,0.26458333,-170.73914,4.9606095)">
      <path
         style="opacity:1"
         fill="#df7605"
         d="m 824.5,15.5 c 9.152,-0.5456 18.152,0.2877 27,2.5 0.916,0.3742 1.75,0.8742 2.5,1.5 0.497,2.646 0.664,5.3127 0.5,8 -8.142,-0.8764 -16.308,-1.5431 -24.5,-2 -6.222,0.3831 -12.388,0.8831 -18.5,1.5 -1.333,-2.6667 -1.333,-5.3333 0,-8 4.442,-1.1742 8.775,-2.3408 13,-3.5 z"
         id="path13" />
    </g>
    <g
       id="g18"
       style="clip-rule:evenodd;fill-rule:evenodd;image-rendering:optimizeQuality;shape-rendering:geometricPrecision;text-rendering:geometricPrecision"
       transform="matrix(0.26458333,0,0,0.26458333,-170.73914,4.9606095)">
      <path
         style="opacity:1"
         fill="#b65501"
         d="m 862.5,153.5 c 0.418,0.722 1.084,1.222 2,1.5 -0.228,0.399 -0.562,0.565 -1,0.5 -14.667,0 -29.333,0 -44,0 0,-1 0,-2 0,-3 13.333,0 26.667,0 40,0 0,-11.667 0,-23.333 0,-35 0.167,-21.6692 0,-43.3359 -0.5,-65 -0.26,-3.7498 -0.927,-7.4164 -2,-11 -1.171,-1.3932 -2.671,-2.2265 -4.5,-2.5 -11.968,-1.4433 -23.968,-1.7766 -36,-1 -6.067,-0.2329 -9.234,2.6004 -9.5,8.5 -0.499,3.9862 -0.666,7.9862 -0.5,12 -0.998,24.4944 -1.331,49.161 -1,74 -1.333,0 -2.667,0 -4,0 1.812,-26.776 2.646,-53.7758 2.5,-81 0.559,-3.6864 1.226,-7.353 2,-11 1.579,-1.5412 3.413,-2.7078 5.5,-3.5 14.729,-2.164 29.396,-1.8306 44,1 1.431,0.4652 2.597,1.2986 3.5,2.5 0.988,2.9245 1.654,5.9245 2,9 0.168,34.8357 0.668,69.502 1.5,104 z"
         id="path18" />
    </g>
    <g
       id="g19"
       style="clip-rule:evenodd;fill-rule:evenodd;image-rendering:optimizeQuality;shape-rendering:geometricPrecision;text-rendering:geometricPrecision"
       transform="matrix(0.26458333,0,0,0.26458333,-170.73914,4.9606095)">
      <path
         style="opacity:1"
         fill="#df7502"
         d="m 859.5,117.5 c -1.33,1.332 -2.997,2.165 -5,2.5 0.951,0.718 1.117,1.551 0.5,2.5 -0.667,-1.333 -1.333,-1.333 -2,0 -1.899,-2.438 -3.066,-4.938 -3.5,-7.5 0.916,-0.278 1.582,-0.778 2,-1.5 0.543,-0.06 0.876,-0.393 1,-1 -2.243,-0.974 -4.576,-1.308 -7,-1 -2.62,-11.096 -5.62,-22.0959 -9,-33 4.632,-0.8283 9.298,-1.3283 14,-1.5 2.883,-4.2685 2.55,-8.2685 -1,-12 -11.333,-0.6667 -22.667,-0.6667 -34,0 -2.023,3.1831 -2.523,6.6831 -1.5,10.5 0.5,0.5 1,1 1.5,1.5 4.702,0.1717 9.368,0.6717 14,1.5 -4.335,10.659 -7.669,21.659 -10,33 -2.333,0 -4.667,0 -7,0 -1.325,1.453 -2.158,1.119 -2.5,-1 -0.718,0.951 -1.551,1.117 -2.5,0.5 -0.186,-1.867 0.147,-3.867 1,-6 -0.13,-1.059 -0.63,-1.892 -1.5,-2.5 -0.5,-14.6629 -0.667,-29.3295 -0.5,-44 -0.166,-4.0138 10e-4,-8.0138 0.5,-12 0.266,-5.8996 3.433,-8.7329 9.5,-8.5 12.032,-0.7766 24.032,-0.4433 36,1 1.829,0.2735 3.329,1.1068 4.5,2.5 1.073,3.5836 1.74,7.2502 2,11 0.5,21.6641 0.667,43.3308 0.5,65 z"
         id="path19" />
    </g>
    <g
       id="g22"
       style="clip-rule:evenodd;fill-rule:evenodd;image-rendering:optimizeQuality;shape-rendering:geometricPrecision;text-rendering:geometricPrecision"
       transform="matrix(0.26458333,0,0,0.26458333,-170.73914,4.9606095)">
      <path
         style="opacity:1"
         fill="#9c632e"
         d="m 865.5,25.5 c 0.667,1.3333 1.333,2.6667 2,4 0.509,5.7016 1.343,11.3682 2.5,17 0.5,36.3318 0.667,72.665 0.5,109 -0.667,0 -1,0.333 -1,1 -0.333,0 -0.667,0 -1,0 0.333,-38.672 0,-77.3391 -1,-116 -1.404,-4.9005 -2.071,-9.9005 -2,-15 z"
         id="path22" />
    </g>
    <g
       id="g24"
       style="clip-rule:evenodd;fill-rule:evenodd;image-rendering:optimizeQuality;shape-rendering:geometricPrecision;text-rendering:geometricPrecision"
       transform="matrix(0.26458333,0,0,0.26458333,-170.73914,4.9606095)">
      <path
         style="opacity:1"
         fill="#b34f00"
         d="m 851.5,113.5 c -1.667,0 -3.333,0 -5,0 0,2.667 0,5.333 0,8 1.667,0 3.333,0 5,0 0,1 0,2 0,3 -13,0 -26,0 -39,0 0,-1 0,-2 0,-3 1.667,0 3.333,0 5,0 0.075,-2.706 0.408,-5.373 1,-8 -2.582,0.475 -4.582,-0.192 -6,-2 2.333,0 4.667,0 7,0 2.331,-11.341 5.665,-22.341 10,-33 -4.632,-0.8283 -9.298,-1.3283 -14,-1.5 -0.5,-0.5 -1,-1 -1.5,-1.5 -1.023,-3.8169 -0.523,-7.3169 1.5,-10.5 11.333,-0.6667 22.667,-0.6667 34,0 3.55,3.7315 3.883,7.7315 1,12 -4.702,0.1717 -9.368,0.6717 -14,1.5 3.38,10.9041 6.38,21.904 9,33 2.424,-0.308 4.757,0.026 7,1 -0.124,0.607 -0.457,0.94 -1,1 z"
         id="path24" />
    </g>
    <g
       id="g25"
       style="clip-rule:evenodd;fill-rule:evenodd;image-rendering:optimizeQuality;shape-rendering:geometricPrecision;text-rendering:geometricPrecision"
       transform="matrix(0.26458333,0,0,0.26458333,-170.73914,4.9606095)">
      <path
         style="opacity:1"
         fill="#e77d0b"
         d="m 816.5,66.5 c 11.005,-0.1665 22.005,2e-4 33,0.5 1.333,2.6667 1.333,5.3333 0,8 -4.667,0.6667 -9.333,0.6667 -14,0 -0.88,-1.3561 -1.214,-2.8561 -1,-4.5 -2.97,0.2458 -4.303,1.9124 -4,5 -4.679,0.1658 -9.345,-8e-4 -14,-0.5 -1.286,-2.8316 -1.286,-5.6649 0,-8.5 z"
         id="path25" />
    </g>
    <g
       id="g27"
       style="clip-rule:evenodd;fill-rule:evenodd;image-rendering:optimizeQuality;shape-rendering:geometricPrecision;text-rendering:geometricPrecision"
       transform="matrix(0.26458333,0,0,0.26458333,-170.73914,4.9606095)">
      <path
         style="opacity:1"
         fill="#f7e8d2"
         d="m 867.5,29.5 c 2.218,3.9222 3.385,8.2556 3.5,13 1.014,22.3201 1.514,44.6534 1.5,67 -10e-4,15.682 -0.667,31.015 -2,46 0.167,-36.335 0,-72.6682 -0.5,-109 -1.157,-5.6318 -1.991,-11.2984 -2.5,-17 z"
         id="path27" />
    </g>
    <g
       id="g29"
       style="clip-rule:evenodd;fill-rule:evenodd;image-rendering:optimizeQuality;shape-rendering:geometricPrecision;text-rendering:geometricPrecision"
       transform="matrix(0.26458333,0,0,0.26458333,-170.73914,4.9606095)">
      <path
         style="opacity:1"
         fill="#e07705"
         d="m 831.5,77.5 c 0.996,-0.0858 1.829,0.2476 2.5,1 2.874,11.1172 6.04,22.117 9.5,33 -7.363,0.331 -14.697,-0.003 -22,-1 3.746,-10.9037 7.08,-21.9037 10,-33 z"
         id="path29" />
    </g>
    <g
       id="g30"
       style="clip-rule:evenodd;fill-rule:evenodd;image-rendering:optimizeQuality;shape-rendering:geometricPrecision;text-rendering:geometricPrecision"
       transform="matrix(0.26458333,0,0,0.26458333,-170.73914,4.9606095)">
      <path
         style="opacity:1"
         fill="#f1e0d2"
         d="m 796.5,36.5 c 0,1 0,2 0,3 -0.978,31.6354 -1.311,63.302 -1,95 0,0.333 0,0.667 0,1 -5.281,3.565 -7.615,8.565 -7,15 -1.526,-0.992 -2.193,-2.492 -2,-4.5 1.021,-2.401 0.688,-4.234 -1,-5.5 1.25,-2.549 3.25,-3.882 6,-4 0.467,-31.006 0.967,-62.3392 1.5,-94 0.333,-1.6667 0.667,-3.3333 1,-5 0.671,-0.7524 1.504,-1.0858 2.5,-1 z"
         id="path30" />
    </g>
    <g
       id="g33"
       style="clip-rule:evenodd;fill-rule:evenodd;image-rendering:optimizeQuality;shape-rendering:geometricPrecision;text-rendering:geometricPrecision"
       transform="matrix(0.26458333,0,0,0.26458333,-170.73914,4.9606095)">
      <path
         style="opacity:1"
         fill="#9b591f"
         d="m 819.5,7.5 c -6.782,2.14982 -12.282,6.1498 -16.5,12 -4.903,23.8861 -6.736,48.0528 -5.5,72.5 10e-4,13.85 0.667,27.35 2,40.5 0.667,0 1.333,0 2,0 -1.874,0.785 -3.874,1.452 -6,2 -0.311,-31.698 0.022,-63.3646 1,-95 1.455,-8.0677 3.622,-16.0677 6.5,-24 4.298,-5.049 9.798,-7.71566 16.5,-8 z"
         id="path33" />
    </g>
    <g
       id="g36"
       style="clip-rule:evenodd;fill-rule:evenodd;image-rendering:optimizeQuality;shape-rendering:geometricPrecision;text-rendering:geometricPrecision"
       transform="matrix(0.26458333,0,0,0.26458333,-170.73914,4.9606095)">
      <path
         style="opacity:1"
         fill="#d87208"
         d="m 806.5,58.5 c -0.167,14.6705 0,29.3371 0.5,44 0.87,0.608 1.37,1.441 1.5,2.5 -0.853,2.133 -1.186,4.133 -1,6 0.949,0.617 1.782,0.451 2.5,-0.5 0.342,2.119 1.175,2.453 2.5,1 1.418,1.808 3.418,2.475 6,2 -0.592,2.627 -0.925,5.294 -1,8 -1.667,0 -3.333,0 -5,0 0,1 0,2 0,3 13,0 26,0 39,0 0,-1 0,-2 0,-3 -1.667,0 -3.333,0 -5,0 0,-2.667 0,-5.333 0,-8 1.667,0 3.333,0 5,0 -0.418,0.722 -1.084,1.222 -2,1.5 0.434,2.562 1.601,5.062 3.5,7.5 0.667,-1.333 1.333,-1.333 2,0 0.617,-0.949 0.451,-1.782 -0.5,-2.5 2.003,-0.335 3.67,-1.168 5,-2.5 0,11.667 0,23.333 0,35 -13.333,0 -26.667,0 -40,0 0,-0.667 0,-1.333 0,-2 0.951,-1.419 1.284,-3.085 1,-5 10.339,0.166 20.672,0 31,-0.5 1.978,-3.933 2.478,-8.1 1.5,-12.5 -0.833,-0.833 -1.667,-1.667 -2.5,-2.5 -12.667,-0.667 -25.333,-0.667 -38,0 -1.383,1.461 -1.049,2.294 1,2.5 -0.333,0.667 -0.667,1.333 -1,2 -2.201,-1.066 -4.535,-1.733 -7,-2 -0.331,-24.839 0.002,-49.5056 1,-74 z"
         id="path36" />
    </g>
    <g
       id="g37"
       style="clip-rule:evenodd;fill-rule:evenodd;image-rendering:optimizeQuality;shape-rendering:geometricPrecision;text-rendering:geometricPrecision"
       transform="matrix(0.26458333,0,0,0.26458333,-170.73914,4.9606095)">
      <path
         style="opacity:1"
         fill="#d57107"
         d="m 820.5,113.5 c 7.674,-0.166 15.341,0 23,0.5 0.935,2.381 1.268,4.881 1,7.5 -8.333,0 -16.667,0 -25,0 0.333,-2.667 0.667,-5.333 1,-8 z"
         id="path37" />
    </g>
    <g
       id="g39"
       style="clip-rule:evenodd;fill-rule:evenodd;image-rendering:optimizeQuality;shape-rendering:geometricPrecision;text-rendering:geometricPrecision"
       transform="matrix(0.26458333,0,0,0.26458333,-170.73914,4.9606095)">
      <path
         style="opacity:1"
         fill="#b75200"
         d="m 819.5,150.5 c 0,-2 0,-4 0,-6 10.006,0.166 20.006,0 30,-0.5 2.023,-3.183 2.523,-6.683 1.5,-10.5 -0.5,-0.5 -1,-1 -1.5,-1.5 -12.174,-0.826 -24.174,-0.66 -36,0.5 -2.049,-0.206 -2.383,-1.039 -1,-2.5 12.667,-0.667 25.333,-0.667 38,0 0.833,0.833 1.667,1.667 2.5,2.5 0.978,4.4 0.478,8.567 -1.5,12.5 -10.328,0.5 -20.661,0.666 -31,0.5 0.284,1.915 -0.049,3.581 -1,5 z"
         id="path39" />
    </g>
    <g
       id="g41"
       style="clip-rule:evenodd;fill-rule:evenodd;image-rendering:optimizeQuality;shape-rendering:geometricPrecision;text-rendering:geometricPrecision"
       transform="matrix(0.26458333,0,0,0.26458333,-170.73914,4.9606095)">
      <path
         style="opacity:1"
         fill="#8a2706"
         d="m 801.5,132.5 c 1.333,0 2.667,0 4,0 2.465,0.267 4.799,0.934 7,2 3.315,2.625 5.649,5.958 7,10 0,2 0,4 0,6 0,0.667 0,1.333 0,2 0,1 0,2 0,3 -3.568,4.791 -6.902,9.791 -10,15 -0.901,0.79 -1.568,1.79 -2,3 -1.879,0.841 -3.879,1.175 -6,1 -0.622,-1.622 -1.622,-2.955 -3,-4 0,-0.333 0,-0.667 0,-1 0,-0.667 0.333,-1 1,-1 1.649,1.149 3.149,2.482 4.5,4 8.982,-7.627 13.315,-17.294 13,-29 -5.015,-9.556 -12.181,-11.556 -21.5,-6 0,-0.667 0,-1.333 0,-2 0,-0.333 0,-0.667 0,-1 2.126,-0.548 4.126,-1.215 6,-2 z"
         id="path41" />
    </g>
    <g
       id="g42"
       style="clip-rule:evenodd;fill-rule:evenodd;image-rendering:optimizeQuality;shape-rendering:geometricPrecision;text-rendering:geometricPrecision"
       transform="matrix(0.26458333,0,0,0.26458333,-170.73914,4.9606095)">
      <path
         style="opacity:1"
         fill="#ed810c"
         d="m 819.5,144.5 c -1.351,-4.042 -3.685,-7.375 -7,-10 0.333,-0.667 0.667,-1.333 1,-2 11.826,-1.16 23.826,-1.326 36,-0.5 0.5,0.5 1,1 1.5,1.5 1.023,3.817 0.523,7.317 -1.5,10.5 -9.994,0.5 -19.994,0.666 -30,0.5 z"
         id="path42" />
    </g>
    <g
       id="g59"
       style="clip-rule:evenodd;fill-rule:evenodd;image-rendering:optimizeQuality;shape-rendering:geometricPrecision;text-rendering:geometricPrecision"
       transform="matrix(0.26458333,0,0,0.26458333,-170.73914,4.9606095)">
      <path
         style="opacity:1"
         fill="#af453c"
         d="m 799.5,168.5 c -3.092,-5.184 -5.926,-10.517 -8.5,-16 -1.375,-6.029 0.125,-11.029 4.5,-15 9.319,-5.556 16.485,-3.556 21.5,6 0.315,11.706 -4.018,21.373 -13,29 -1.351,-1.518 -2.851,-2.851 -4.5,-4 z"
         id="path59" />
    </g>
    <g
       id="g60"
       style="clip-rule:evenodd;fill-rule:evenodd;image-rendering:optimizeQuality;shape-rendering:geometricPrecision;text-rendering:geometricPrecision"
       transform="matrix(0.26458333,0,0,0.26458333,-170.73914,4.9606095)">
      <path
         style="opacity:1"
         fill="#752522"
         d="m 801.5,141.5 c 7.72,-0.339 10.053,2.827 7,9.5 -6.748,2.909 -9.914,0.743 -9.5,-6.5 1.045,-0.873 1.878,-1.873 2.5,-3 z"
         id="path60" />
    </g>
    <g
       id="g61"
       style="clip-rule:evenodd;fill-rule:evenodd;image-rendering:optimizeQuality;shape-rendering:geometricPrecision;text-rendering:geometricPrecision"
       transform="matrix(0.26458333,0,0,0.26458333,-170.73914,4.9606095)">
      <path
         style="opacity:1"
         fill="#f7dcdc"
         d="m 802.5,143.5 c 4.476,0.3 5.81,2.467 4,6.5 -5.819,0.526 -7.152,-1.641 -4,-6.5 z"
         id="path61" />
    </g>
    <g
       id="g64"
       style="clip-rule:evenodd;fill-rule:evenodd;image-rendering:optimizeQuality;shape-rendering:geometricPrecision;text-rendering:geometricPrecision"
       transform="matrix(0.26458333,0,0,0.26458333,-170.73914,4.9606095)">
      <path
         style="opacity:1"
         fill="#702e2a"
         d="m 795.5,135.5 c 0,0.667 0,1.333 0,2 -4.375,3.971 -5.875,8.971 -4.5,15 2.574,5.483 5.408,10.816 8.5,16 -0.667,0 -1,0.333 -1,1 -0.333,0 -0.667,0 -1,0 -2.94,-4.881 -5.606,-9.881 -8,-15 -0.333,-1.333 -0.667,-2.667 -1,-4 -0.615,-6.435 1.719,-11.435 7,-15 z"
         id="path64" />
    </g>
    <g
       id="g69"
       style="clip-rule:evenodd;fill-rule:evenodd;image-rendering:optimizeQuality;shape-rendering:geometricPrecision;text-rendering:geometricPrecision"
       transform="matrix(0.26458333,0,0,0.26458333,-170.73914,4.9606095)">
      <path
         style="opacity:1"
         fill="#c4620a"
         d="m 819.5,155.5 c 14.667,0 29.333,0 44,0 0.883,4.603 1.217,9.27 1,14 -8.808,1.332 -17.975,1.998 -27.5,2 -9.34,0 -18.506,-0.334 -27.5,-1 3.098,-5.209 6.432,-10.209 10,-15 z"
         id="path69" />
    </g>
    <g
       id="g113"
       style="clip-rule:evenodd;fill-rule:evenodd;image-rendering:optimizeQuality;shape-rendering:geometricPrecision;text-rendering:geometricPrecision"
       transform="matrix(0.26458333,0,0,0.26458333,-170.73914,4.9606095)">
      <path
         style="opacity:1"
         fill="#f4e3d1"
         d="m 789.5,154.5 c 2.394,5.119 5.06,10.119 8,15 -0.283,0.789 -0.783,1.456 -1.5,2 -0.831,38.502 -0.664,76.836 0.5,115 0.588,5.961 1.921,11.627 4,17 1.486,9.475 7.152,14.475 17,15 4.228,1.525 8.728,2.192 13.5,2 6.059,0.05 11.893,-0.617 17.5,-2 0.333,0 0.667,0 1,0 9.045,-0.592 14.545,-5.258 16.5,-14 1.207,-4.622 2.207,-9.289 3,-14 1.611,-39.31 1.945,-78.643 1,-118 -0.667,-0.667 -1.333,-1.333 -2,-2 -0.499,-4.655 -0.666,-9.321 -0.5,-14 0.333,0 0.667,0 1,0 0.333,0 0.667,0 1,0 2.488,46.982 2.655,93.982 0.5,141 -2.52,4.985 -3.354,10.152 -2.5,15.5 -1.333,0.333 -2.667,0.667 -4,1 1.227,1.587 0.894,2.921 -1,4 -9.321,3.375 -18.988,4.875 -29,4.5 -10.197,0.212 -19.864,-1.954 -29,-6.5 -4.246,-2.607 -6.079,-6.44 -5.5,-11.5 -1.358,-2.881 -2.858,-5.714 -4.5,-8.5 0.333,-0.333 0.667,-0.667 1,-1 -0.428,-2.629 -1.428,-4.962 -3,-7 -0.404,-2.07 -0.404,-4.236 0,-6.5 -0.26,-1.687 -0.927,-3.187 -2,-4.5 0.5,-0.5 1,-1 1.5,-1.5 0.167,-4.5 0.333,-9 0.5,-13.5 -0.87,-30.929 -0.536,-62.096 1,-93.5 -0.682,-2.866 -2.016,-5.366 -4,-7.5 -0.421,-2.087 -0.421,-4.253 0,-6.5 z"
         id="path113" />
    </g>
    <g
       id="g114"
       style="clip-rule:evenodd;fill-rule:evenodd;image-rendering:optimizeQuality;shape-rendering:geometricPrecision;text-rendering:geometricPrecision"
       transform="matrix(0.26458333,0,0,0.26458333,-170.73914,4.9606095)">
      <path
         style="opacity:1"
         fill="#996436"
         d="m 817.5,318.5 c 10.329,1.231 20.663,1.231 31,0 -5.607,1.383 -11.441,2.05 -17.5,2 -4.772,0.192 -9.272,-0.475 -13.5,-2 z"
         id="path114" />
    </g>
    <g
       id="g115"
       style="clip-rule:evenodd;fill-rule:evenodd;image-rendering:optimizeQuality;shape-rendering:geometricPrecision;text-rendering:geometricPrecision"
       transform="matrix(0.26458333,0,0,0.26458333,-170.73914,4.9606095)">
      <path
         style="opacity:1"
         fill="#ab5706"
         d="m 866.5,171.5 c 0.617,0.111 1.117,0.444 1.5,1 0.167,18.833 0.333,37.667 0.5,56.5 0.108,22.19 -0.392,44.357 -1.5,66.5 -1.333,4.667 -2.667,9.333 -4,14 -4.169,3.656 -8.669,6.656 -13.5,9 -0.333,0 -0.667,0 -1,0 -10.337,1.231 -20.671,1.231 -31,0 -3.125,-1.725 -6.458,-3.225 -10,-4.5 -2.741,-3.341 -5.074,-6.841 -7,-10.5 -1.226,-6.255 -2.06,-12.588 -2.5,-19 -0.667,-34.667 -0.667,-69.333 0,-104 0.191,-2.208 0.691,-4.208 1.5,-6 -0.451,39.028 0.049,78.028 1.5,117 1.319,4.237 2.319,8.571 3,13 2.583,6.547 7.417,10.047 14.5,10.5 13.773,2.727 27.106,1.394 40,-4 2.282,-3.512 3.782,-7.345 4.5,-11.5 0.893,-5.023 1.893,-10.023 3,-15 0.5,-36.665 0.667,-73.332 0.5,-110 0,-1 0,-2 0,-3 z"
         id="path115" />
    </g>
    <g
       id="g116"
       style="clip-rule:evenodd;fill-rule:evenodd;image-rendering:optimizeQuality;shape-rendering:geometricPrecision;text-rendering:geometricPrecision"
       transform="matrix(0.26458333,0,0,0.26458333,-170.73914,4.9606095)">
      <path
         style="opacity:1"
         fill="#965f2d"
         d="m 800.5,303.5 c 1.926,3.659 4.259,7.159 7,10.5 3.542,1.275 6.875,2.775 10,4.5 -9.848,-0.525 -15.514,-5.525 -17,-15 z"
         id="path116" />
    </g>
    <g
       id="g117"
       style="clip-rule:evenodd;fill-rule:evenodd;image-rendering:optimizeQuality;shape-rendering:geometricPrecision;text-rendering:geometricPrecision"
       transform="matrix(0.26458333,0,0,0.26458333,-170.73914,4.9606095)">
      <path
         style="opacity:1"
         fill="#f2962f"
         d="m 799.5,174.5 c 0.667,0 1.333,0 2,0 1.817,33.779 2.65,67.779 2.5,102 0.667,3.333 1.333,6.667 2,10 2.042,2.104 4.542,3.271 7.5,3.5 13.333,0.667 26.667,0.667 40,0 2.401,-0.795 4.568,-1.962 6.5,-3.5 1.469,-37.293 1.969,-74.626 1.5,-112 1.667,0 3.333,0 5,0 0.167,36.668 0,73.335 -0.5,110 -1.107,4.977 -2.107,9.977 -3,15 -0.718,4.155 -2.218,7.988 -4.5,11.5 -12.894,5.394 -26.227,6.727 -40,4 -7.083,-0.453 -11.917,-3.953 -14.5,-10.5 -0.681,-4.429 -1.681,-8.763 -3,-13 -1.451,-38.972 -1.951,-77.972 -1.5,-117 z"
         id="path117" />
    </g>
    <g
       id="g118"
       style="clip-rule:evenodd;fill-rule:evenodd;image-rendering:optimizeQuality;shape-rendering:geometricPrecision;text-rendering:geometricPrecision"
       transform="matrix(0.26458333,0,0,0.26458333,-170.73914,4.9606095)">
      <path
         style="opacity:1"
         fill="#b85701"
         d="m 810.5,296.5 c 8.458,1.119 16.958,1.786 25.5,2 6.621,-0.068 13.121,-0.568 19.5,-1.5 1.929,3.256 2.429,6.756 1.5,10.5 -0.903,1.201 -2.069,2.035 -3.5,2.5 -10.861,2.448 -21.861,3.115 -33,2 -4.155,-0.718 -7.988,-2.218 -11.5,-4.5 -0.888,-3.902 -0.388,-7.569 1.5,-11 z"
         id="path118" />
    </g>
    <g
       id="g119"
       style="clip-rule:evenodd;fill-rule:evenodd;image-rendering:optimizeQuality;shape-rendering:geometricPrecision;text-rendering:geometricPrecision"
       transform="matrix(0.26458333,0,0,0.26458333,-170.73914,4.9606095)">
      <path
         style="opacity:1"
         fill="#f08410"
         d="m 811.5,298.5 c 14.603,2.277 29.269,2.61 44,1 0,2.667 0,5.333 0,8 -12.497,3.382 -25.163,3.882 -38,1.5 -6.818,-0.626 -8.818,-4.126 -6,-10.5 z"
         id="path119" />
    </g>
    <g
       id="g120"
       style="clip-rule:evenodd;fill-rule:evenodd;image-rendering:optimizeQuality;shape-rendering:geometricPrecision;text-rendering:geometricPrecision"
       transform="matrix(0.26458333,0,0,0.26458333,-170.73914,4.9606095)">
      <path
         style="opacity:1"
         fill="#b75603"
         d="m 864.5,169.5 c 0.667,0 1.333,0 2,0 0,0.667 0,1.333 0,2 0,1 0,2 0,3 -1.667,0 -3.333,0 -5,0 0.469,37.374 -0.031,74.707 -1.5,112 -1.932,1.538 -4.099,2.705 -6.5,3.5 -13.333,0.667 -26.667,0.667 -40,0 -2.958,-0.229 -5.458,-1.396 -7.5,-3.5 -0.667,-3.333 -1.333,-6.667 -2,-10 0.15,-34.221 -0.683,-68.221 -2.5,-102 2.121,0.175 4.121,-0.159 6,-1 0.432,-1.21 1.099,-2.21 2,-3 8.994,0.666 18.16,1 27.5,1 9.525,-0.002 18.692,-0.668 27.5,-2 z"
         id="path120" />
    </g>
    <g
       id="g121"
       style="clip-rule:evenodd;fill-rule:evenodd;image-rendering:optimizeQuality;shape-rendering:geometricPrecision;text-rendering:geometricPrecision"
       transform="matrix(0.26458333,0,0,0.26458333,-170.73914,4.9606095)">
      <path
         style="opacity:1"
         fill="#de7604"
         d="m 807.5,173.5 c 17.333,0 34.667,0 52,0 0.167,36.668 0,73.335 -0.5,110 -0.5,1.833 -1.667,3 -3.5,3.5 -15.018,1.942 -30.018,1.942 -45,0 -1.549,-1.214 -2.715,-2.714 -3.5,-4.5 -1.597,-35.311 -1.93,-70.644 -1,-106 1.039,-0.744 1.539,-1.744 1.5,-3 z"
         id="path121" />
    </g>
    <g
       id="g122"
       style="clip-rule:evenodd;fill-rule:evenodd;image-rendering:optimizeQuality;shape-rendering:geometricPrecision;text-rendering:geometricPrecision"
       transform="matrix(0.26458333,0,0,0.26458333,-170.73914,4.9606095)">
      <path
         style="opacity:1"
         fill="#ba5400"
         d="m 814.5,223.5 c 12.338,-0.167 24.671,0 37,0.5 0.626,0.75 1.126,1.584 1.5,2.5 0.667,11 0.667,22 0,33 -1.319,1.987 -3.152,3.154 -5.5,3.5 -10.333,0.667 -20.667,0.667 -31,0 -1.549,-1.214 -2.715,-2.714 -3.5,-4.5 -0.667,-11 -0.667,-22 0,-33 0.717,-0.544 1.217,-1.211 1.5,-2 z"
         id="path122" />
    </g>
    <g
       id="g123"
       style="clip-rule:evenodd;fill-rule:evenodd;image-rendering:optimizeQuality;shape-rendering:geometricPrecision;text-rendering:geometricPrecision"
       transform="matrix(0.26458333,0,0,0.26458333,-170.73914,4.9606095)">
      <path
         style="opacity:1"
         fill="#985312"
         d="m 798.5,170.5 c 1.378,1.045 2.378,2.378 3,4 -0.667,0 -1.333,0 -2,0 -0.809,1.792 -1.309,3.792 -1.5,6 -0.667,34.667 -0.667,69.333 0,104 0.44,6.412 1.274,12.745 2.5,19 -2.079,-5.373 -3.412,-11.039 -4,-17 -0.167,-38.001 0,-76.001 0.5,-114 0.717,-0.544 1.217,-1.211 1.5,-2 z"
         id="path123" />
    </g>
    <g
       id="g124"
       style="clip-rule:evenodd;fill-rule:evenodd;image-rendering:optimizeQuality;shape-rendering:geometricPrecision;text-rendering:geometricPrecision"
       transform="matrix(0.26458333,0,0,0.26458333,-170.73914,4.9606095)">
      <path
         style="opacity:1"
         fill="#9b632f"
         d="m 867.5,156.5 c -0.166,4.679 10e-4,9.345 0.5,14 0.667,0.667 1.333,1.333 2,2 0.945,39.357 0.611,78.69 -1,118 -0.793,4.711 -1.793,9.378 -3,14 -1.955,8.742 -7.455,13.408 -16.5,14 4.831,-2.344 9.331,-5.344 13.5,-9 1.333,-4.667 2.667,-9.333 4,-14 1.108,-22.143 1.608,-44.31 1.5,-66.5 -0.167,-18.833 -0.333,-37.667 -0.5,-56.5 -0.383,-0.556 -0.883,-0.889 -1.5,-1 0,-0.667 0,-1.333 0,-2 -0.318,-4.532 0.015,-8.866 1,-13 z"
         id="path124" />
    </g>
    <g
       id="g125"
       style="clip-rule:evenodd;fill-rule:evenodd;image-rendering:optimizeQuality;shape-rendering:geometricPrecision;text-rendering:geometricPrecision"
       transform="matrix(0.26458333,0,0,0.26458333,-170.73914,4.9606095)">
      <path
         style="opacity:1"
         fill="#f18409"
         d="m 817.5,224.5 c 10.672,-0.167 21.339,0 32,0.5 0.5,0.5 1,1 1.5,1.5 0.667,10.667 0.667,21.333 0,32 -0.5,0.5 -1,1 -1.5,1.5 -11.348,0.832 -22.681,0.666 -34,-0.5 -1.144,-10.953 -1.311,-21.953 -0.5,-33 0.995,-0.566 1.828,-1.233 2.5,-2 z"
         id="path125" />
    </g>
    <g
       id="g126"
       style="clip-rule:evenodd;fill-rule:evenodd;image-rendering:optimizeQuality;shape-rendering:geometricPrecision;text-rendering:geometricPrecision"
       transform="matrix(0.26458333,0,0,0.26458333,-170.73914,4.9606095)">
      <path
         style="opacity:1"
         fill="#b85200"
         d="m 840.5,227.5 c 2.292,-0.256 4.459,0.077 6.5,1 0.667,9.333 0.667,18.667 0,28 -2,1.333 -4,1.333 -6,0 -0.5,-9.661 -0.666,-19.328 -0.5,-29 z"
         id="path126" />
    </g>
    <g
       id="g127"
       style="clip-rule:evenodd;fill-rule:evenodd;image-rendering:optimizeQuality;shape-rendering:geometricPrecision;text-rendering:geometricPrecision"
       transform="matrix(0.26458333,0,0,0.26458333,-170.73914,4.9606095)">
      <path
         style="opacity:1"
         fill="#e37e17"
         d="m 842.5,229.5 c 1,0 2,0 3,0 0,8.667 0,17.333 0,26 -1,0 -2,0 -3,0 0,-8.667 0,-17.333 0,-26 z"
         id="path127" />
    </g>
    <g
       id="g128"
       style="clip-rule:evenodd;fill-rule:evenodd;image-rendering:optimizeQuality;shape-rendering:geometricPrecision;text-rendering:geometricPrecision"
       transform="matrix(0.26458333,0,0,0.26458333,-170.73914,4.9606095)">
      <path
         style="opacity:1"
         fill="#9c6533"
         d="m 797.5,169.5 c 0.333,0 0.667,0 1,0 0,0.333 0,0.667 0,1 -0.283,0.789 -0.783,1.456 -1.5,2 -0.5,37.999 -0.667,75.999 -0.5,114 -1.164,-38.164 -1.331,-76.498 -0.5,-115 0.717,-0.544 1.217,-1.211 1.5,-2 z"
         id="path128" />
    </g>
    <g
       id="g129"
       style="clip-rule:evenodd;fill-rule:evenodd;image-rendering:optimizeQuality;shape-rendering:geometricPrecision;text-rendering:geometricPrecision"
       transform="matrix(0.26458333,0,0,0.26458333,-170.73914,4.9606095)">
      <path
         style="opacity:1"
         fill="#b95300"
         d="m 815.5,181.5 c 11.671,-0.167 23.338,0 35,0.5 0.833,0.833 1.667,1.667 2.5,2.5 0.667,9 0.667,18 0,27 -0.833,0.833 -1.667,1.667 -2.5,2.5 -12,0.667 -24,0.667 -36,0 -0.626,-0.75 -1.126,-1.584 -1.5,-2.5 -0.667,-9 -0.667,-18 0,-27 1.045,-0.873 1.878,-1.873 2.5,-3 z"
         id="path129" />
    </g>
    <g
       id="g130"
       style="clip-rule:evenodd;fill-rule:evenodd;image-rendering:optimizeQuality;shape-rendering:geometricPrecision;text-rendering:geometricPrecision"
       transform="matrix(0.26458333,0,0,0.26458333,-170.73914,4.9606095)">
      <path
         style="opacity:1"
         fill="#f18305"
         d="m 817.5,182.5 c 11.103,-0.454 22.103,0.046 33,1.5 1.15,8.755 1.316,17.588 0.5,26.5 -0.5,0.5 -1,1 -1.5,1.5 -11.348,0.832 -22.681,0.666 -34,-0.5 -1.137,-8.618 -1.304,-17.285 -0.5,-26 0.698,-1.191 1.531,-2.191 2.5,-3 z"
         id="path130" />
    </g>
  </g>
</svg>
