<?xml version="1.0" encoding="UTF-8" standalone="no"?>
<!-- Created with Inkscape (http://www.inkscape.org/) -->

<svg
   width="96mm"
   height="96mm"
   viewBox="0 0 96 96"
   version="1.1"
   id="svg1"
   inkscape:version="1.4.2 (ebf0e940, 2025-05-08)"
   sodipodi:docname="train.svg"
   xmlns:inkscape="http://www.inkscape.org/namespaces/inkscape"
   xmlns:sodipodi="http://sodipodi.sourceforge.net/DTD/sodipodi-0.dtd"
   xmlns="http://www.w3.org/2000/svg"
   xmlns:svg="http://www.w3.org/2000/svg">
  <sodipodi:namedview
     id="namedview1"
     pagecolor="#ffffff"
     bordercolor="#000000"
     borderopacity="0.25"
     inkscape:showpageshadow="2"
     inkscape:pageopacity="0.0"
     inkscape:pagecheckerboard="0"
     inkscape:deskcolor="#d1d1d1"
     inkscape:document-units="mm"
     inkscape:zoom="0.80444024"
     inkscape:cx="397.17059"
     inkscape:cy="262.91574"
     inkscape:window-width="1920"
     inkscape:window-height="1052"
     inkscape:window-x="0"
     inkscape:window-y="28"
     inkscape:window-maximized="0"
     inkscape:current-layer="layer1" />
  <defs
     id="defs1" />
  <g
     inkscape:label="Layer 1"
     inkscape:groupmode="layer"
     id="layer1">
    <g
       id="g3"
       style="clip-rule:evenodd;fill-rule:evenodd;image-rendering:optimizeQuality;shape-rendering:geometricPrecision;text-rendering:geometricPrecision"
       transform="matrix(0.26458333,0,0,0.26458333,-35.647741,5.5110594)">
      <path
         style="opacity:1"
         fill="#f4e2ca"
         d="m 306.5,5.5 c -2.136,1.15285 -4.136,2.48618 -6,4 -5.043,2.5496 -8.543,6.5496 -10.5,12 -2.023,7.7537 -3.856,15.4204 -5.5,23 0.526,-8.8503 2.026,-17.5169 4.5,-26 2.787,-2.9489 4.953,-6.2822 6.5,-10 3.541,-1.25896 7.208,-2.25896 11,-3 z"
         id="path3" />
    </g>
    <g
       id="g6"
       style="clip-rule:evenodd;fill-rule:evenodd;image-rendering:optimizeQuality;shape-rendering:geometricPrecision;text-rendering:geometricPrecision"
       transform="matrix(0.26458333,0,0,0.26458333,-35.647741,5.5110594)">
      <path
         style="opacity:1"
         fill="#f2952d"
         d="m 326.5,17.5 c -0.565,2.805 -1.565,5.4717 -3,8 5.792,16.5434 11.292,33.21 16.5,50 0.925,3.9447 1.425,7.9447 1.5,12 -0.226,4.529 -1.226,8.6956 -3,12.5 -0.74,3.659 0.593,5.826 4,6.5 0,1.333 0,2.667 0,4 -1.322,-0.17 -2.489,0.163 -3.5,1 -0.667,4.667 -0.667,9.333 0,14 4.778,2.826 4.612,5.492 -0.5,8 -1.159,3.622 -1.325,7.289 -0.5,11 1.701,1.91 3.201,3.91 4.5,6 -0.285,2.069 -1.452,3.402 -3.5,4 -0.167,1.833 -0.333,3.667 -0.5,5.5 1.706,4.706 3.039,9.539 4,14.5 -4,0 -8,0 -12,0 -2.333,0 -4.667,0 -7,0 -0.167,-26.669 0,-53.335 0.5,-80 7.694,-12.4712 9.694,-25.8045 6,-40 -5.164,-9.882 -12.997,-12.7154 -23.5,-8.5 -8.102,7.7829 -10.935,17.2829 -8.5,28.5 1.157,6.8065 3.49,13.1399 7,19 0.5,10.661 0.667,21.328 0.5,32 -4.227,-2.071 -8.56,-2.405 -13,-1 -0.825,-4.147 -1.325,-8.481 -1.5,-13 -1.011,-0.837 -2.178,-1.17 -3.5,-1 1.883,-3.011 3.216,-6.344 4,-10 -0.167,-1.6667 -0.333,-3.3333 -0.5,-5 -1.011,-0.8366 -2.178,-1.17 -3.5,-1 0.317,-7.0544 1.15,-14.0544 2.5,-21 4.9,-15.7003 10.4,-31.2003 16.5,-46.5 -0.676,-1.6833 -1.676,-1.8499 -3,-0.5 -0.667,0 -1,-0.3333 -1,-1 1.08,-3.2431 1.247,-6.5764 0.5,-10 -0.75,-0.6258 -1.584,-1.1258 -2.5,-1.5 9.611,-5.90532 19.278,-5.90532 29,0 -1.556,0.7202 -2.556,1.8868 -3,3.5 z"
         id="path6" />
    </g>
    <g
       id="g9"
       style="clip-rule:evenodd;fill-rule:evenodd;image-rendering:optimizeQuality;shape-rendering:geometricPrecision;text-rendering:geometricPrecision"
       transform="matrix(0.26458333,0,0,0.26458333,-35.647741,5.5110594)">
      <path
         style="opacity:1"
         fill="#9c581c"
         d="m 306.5,5.5 c 8.417,-0.83239 16.417,0.50095 24,4 6.394,5.4443 10.228,12.4443 11.5,21 1.743,10.2749 2.909,20.6083 3.5,31 0.332,37.837 -0.002,75.504 -1,113 0.167,-40.335 0,-80.668 -0.5,-121 -1.362,-10.0827 -3.362,-20.0827 -6,-30 -2.408,-5.4009 -5.908,-9.9009 -10.5,-13.5 -8.944,-1.72737 -17.944,-1.89404 -27,-0.5 1.864,-1.51382 3.864,-2.84715 6,-4 z"
         id="path9" />
    </g>
    <g
       id="g26"
       style="clip-rule:evenodd;fill-rule:evenodd;image-rendering:optimizeQuality;shape-rendering:geometricPrecision;text-rendering:geometricPrecision"
       transform="matrix(0.26458333,0,0,0.26458333,-35.647741,5.5110594)">
      <path
         style="opacity:1"
         fill="#b65502"
         d="m 330.5,174.5 c -1.333,0.667 -2.667,1.333 -4,2 -12.351,-0.332 -24.685,0.001 -37,1 0.209,0.586 0.543,1.086 1,1.5 5.991,0.499 11.991,0.666 18,0.5 11.512,-0.328 22.846,0.005 34,1 -6.333,0 -12.667,0 -19,0 -0.167,14.67 0,29.337 0.5,44 4.333,1.667 7.333,4.667 9,9 0.667,21 0.667,42 0,63 -1.639,3.989 -4.639,5.989 -9,6 -0.497,2.31 -0.663,4.643 -0.5,7 -0.667,1 -1.333,2 -2,3 -0.166,-4.014 10e-4,-8.014 0.5,-12 1.356,-0.88 2.856,-1.214 4.5,-1 0,-5.667 0,-11.333 0,-17 -7.667,0 -15.333,0 -23,0 -0.666,3.189 -1.333,6.523 -2,10 -0.667,-3.333 -1.333,-6.667 -2,-10 -0.995,5.628 -1.329,11.294 -1,17 -0.617,-0.111 -1.117,-0.444 -1.5,-1 -0.667,-22 -0.667,-44 0,-66 2,-3.333 4.667,-6 8,-8 0.5,-14.329 0.667,-28.663 0.5,-43 -6,0 -12,0 -18,0 -0.654,4.086 0.512,7.419 3.5,10 1.504,5.499 0.337,10.166 -3.5,14 0.285,2.069 1.452,3.402 3.5,4 0.667,5 0.667,10 0,15 -1.011,0.837 -2.178,1.17 -3.5,1 -0.241,2.386 0.425,4.386 2,6 -1,0 -2,0 -3,0 0,11.333 0,22.667 0,34 1.322,0.17 2.489,-0.163 3.5,-1 0.177,-3.856 0.677,-7.523 1.5,-11 0.166,4.346 -10e-4,8.679 -0.5,13 -1.011,0.837 -2.178,1.17 -3.5,1 0.069,2.584 1.235,4.584 3.5,6 0.667,4.333 0.667,8.667 0,13 -1.298,1.06 -2.465,2.226 -3.5,3.5 3.381,2.028 4.714,5.028 4,9 0.657,3.497 -0.509,5.997 -3.5,7.5 -0.495,1.973 -0.662,3.973 -0.5,6 -0.876,-10.83 -1.543,-21.83 -2,-33 0.436,-18.462 0.436,-36.962 0,-55.5 0.167,-14.167 0.333,-28.333 0.5,-42.5 0.168,-2.677 1.001,-5.01 2.5,-7 5.667,0 11.333,0 17,0 0,-4.667 0,-9.333 0,-14 0.16,-1.653 0.826,-2.986 2,-4 0,6 0,12 0,18 4.667,0 9.333,0 14,0 0,-26.333 0,-52.667 0,-79 -4.667,0 -9.333,0 -14,0 0,10.333 0,20.667 0,31 -0.992,0.172 -1.658,-0.162 -2,-1 0.167,-10.672 0,-21.339 -0.5,-32 -3.51,-5.8601 -5.843,-12.1935 -7,-19 -2.435,-11.2171 0.398,-20.7171 8.5,-28.5 10.503,-4.2154 18.336,-1.382 23.5,8.5 3.694,14.1955 1.694,27.5288 -6,40 -0.5,26.665 -0.667,53.331 -0.5,80 2.333,0 4.667,0 7,0 z"
         id="path26" />
    </g>
    <g
       id="g32"
       style="clip-rule:evenodd;fill-rule:evenodd;image-rendering:optimizeQuality;shape-rendering:geometricPrecision;text-rendering:geometricPrecision"
       transform="matrix(0.26458333,0,0,0.26458333,-35.647741,5.5110594)">
      <path
         style="opacity:1"
         fill="#ef8108"
         d="m 307.5,156.5 c 5.376,-6.772 7.209,-14.439 5.5,-23 -1.666,-2.496 -3.5,-4.829 -5.5,-7 0,-10.333 0,-20.667 0,-31 4.667,0 9.333,0 14,0 0,26.333 0,52.667 0,79 -4.667,0 -9.333,0 -14,0 0,-6 0,-12 0,-18 z"
         id="path32" />
    </g>
    <g
       id="g34"
       style="clip-rule:evenodd;fill-rule:evenodd;image-rendering:optimizeQuality;shape-rendering:geometricPrecision;text-rendering:geometricPrecision"
       transform="matrix(0.26458333,0,0,0.26458333,-35.647741,5.5110594)">
      <path
         style="opacity:1"
         fill="#98571a"
         d="m 300.5,9.5 c -0.728,2.0115 -1.562,4.0115 -2.5,6 -2.667,1.3333 -4.667,3.3333 -6,6 -1.68,9.087 -3.68,18.087 -6,27 -0.184,27.3755 -0.684,54.709 -1.5,82 -0.333,0 -0.667,0 -1,0 -0.265,-28.681 0.069,-57.348 1,-86 1.644,-7.5796 3.477,-15.2463 5.5,-23 1.957,-5.4504 5.457,-9.4504 10.5,-12 z"
         id="path34" />
    </g>
    <g
       id="g35"
       style="clip-rule:evenodd;fill-rule:evenodd;image-rendering:optimizeQuality;shape-rendering:geometricPrecision;text-rendering:geometricPrecision"
       transform="matrix(0.26458333,0,0,0.26458333,-35.647741,5.5110594)">
      <path
         style="opacity:1"
         fill="#8d592b"
         d="m 345.5,61.5 c 0.667,18.9971 1,38.1637 1,57.5 0,19.512 -0.667,38.678 -2,57.5 0,-0.333 0,-0.667 0,-1 0,-0.333 0,-0.667 0,-1 0.998,-37.496 1.332,-75.163 1,-113 z"
         id="path35" />
    </g>
    <g
       id="g38"
       style="clip-rule:evenodd;fill-rule:evenodd;image-rendering:optimizeQuality;shape-rendering:geometricPrecision;text-rendering:geometricPrecision"
       transform="matrix(0.26458333,0,0,0.26458333,-35.647741,5.5110594)">
      <path
         style="opacity:1"
         fill="#f6e1d0"
         d="m 330.5,9.5 c 1.422,0.20858 2.755,0.7086 4,1.5 6.657,6.3126 10.657,13.9793 12,23 -1.56,4.0881 -0.894,7.7548 2,11 -0.116,1.2682 -0.449,2.6015 -1,4 0.835,6.1613 1.835,12.3279 3,18.5 -0.308,0.8081 -0.808,1.4747 -1.5,2 -0.82,18.3771 -0.653,36.71 0.5,55 -0.693,18.32 -1.359,36.654 -2,55 0.332,41.503 -10e-4,82.837 -1,124 0.332,-41.837 -10e-4,-83.503 -1,-125 -0.838,-0.342 -1.172,-1.008 -1,-2 1.333,-18.822 2,-37.988 2,-57.5 0,-19.3363 -0.333,-38.5029 -1,-57.5 -0.591,-10.3917 -1.757,-20.7251 -3.5,-31 -1.272,-8.5557 -5.106,-15.5557 -11.5,-21 z"
         id="path38" />
    </g>
    <g
       id="g51"
       style="clip-rule:evenodd;fill-rule:evenodd;image-rendering:optimizeQuality;shape-rendering:geometricPrecision;text-rendering:geometricPrecision"
       transform="matrix(0.26458333,0,0,0.26458333,-35.647741,5.5110594)">
      <path
         style="opacity:1"
         fill="#85260a"
         d="m 305.5,125.5 c 0.342,0.838 1.008,1.172 2,1 2,2.171 3.834,4.504 5.5,7 1.709,8.561 -0.124,16.228 -5.5,23 -1.174,1.014 -1.84,2.347 -2,4 -1.952,2.618 -4.285,4.952 -7,7 -2.708,-1.766 -4.708,-4.099 -6,-7 -2.922,-3.524 -5.589,-7.191 -8,-11 0.172,-0.992 -0.162,-1.658 -1,-2 -1.268,-5.658 -1.268,-11.325 0,-17 0.333,0 0.667,0 1,0 2.408,-2.416 5.074,-4.416 8,-6 4.44,-1.405 8.773,-1.071 13,1 z"
         id="path51" />
    </g>
    <g
       id="g53"
       style="clip-rule:evenodd;fill-rule:evenodd;image-rendering:optimizeQuality;shape-rendering:geometricPrecision;text-rendering:geometricPrecision"
       transform="matrix(0.26458333,0,0,0.26458333,-35.647741,5.5110594)">
      <path
         style="opacity:1"
         fill="#b34940"
         d="m 292.5,126.5 c 15.537,-0.969 21.37,6.031 17.5,21 -2.855,6.35 -6.688,12.017 -11.5,17 -9.413,-7.825 -13.58,-17.825 -12.5,-30 1.305,-3.461 3.471,-6.128 6.5,-8 z"
         id="path53" />
    </g>
    <g
       id="g54"
       style="clip-rule:evenodd;fill-rule:evenodd;image-rendering:optimizeQuality;shape-rendering:geometricPrecision;text-rendering:geometricPrecision"
       transform="matrix(0.26458333,0,0,0.26458333,-35.647741,5.5110594)">
      <path
         style="opacity:1"
         fill="#7c2624"
         d="m 295.5,132.5 c 4.92,-0.716 7.92,1.284 9,6 -0.845,5.344 -3.845,7.177 -9,5.5 -3.827,-3.752 -3.827,-7.585 0,-11.5 z"
         id="path54" />
    </g>
    <g
       id="g55"
       style="clip-rule:evenodd;fill-rule:evenodd;image-rendering:optimizeQuality;shape-rendering:geometricPrecision;text-rendering:geometricPrecision"
       transform="matrix(0.26458333,0,0,0.26458333,-35.647741,5.5110594)">
      <path
         style="opacity:1"
         fill="#f5dbd9"
         d="m 296.5,135.5 c 5.516,-0.027 6.849,2.14 4,6.5 -5.762,0.418 -7.096,-1.749 -4,-6.5 z"
         id="path55" />
    </g>
    <g
       id="g70"
       style="clip-rule:evenodd;fill-rule:evenodd;image-rendering:optimizeQuality;shape-rendering:geometricPrecision;text-rendering:geometricPrecision"
       transform="matrix(0.26458333,0,0,0.26458333,-35.647741,5.5110594)">
      <path
         style="opacity:1"
         fill="#f19633"
         d="m 292.5,160.5 c 1.292,2.901 3.292,5.234 6,7 2.715,-2.048 5.048,-4.382 7,-7 0,4.667 0,9.333 0,14 -5.667,0 -11.333,0 -17,0 -0.973,-2.448 -1.306,-5.115 -1,-8 1.322,0.17 2.489,-0.163 3.5,-1 0.198,-1.882 0.698,-3.548 1.5,-5 z"
         id="path70" />
    </g>
    <g
       id="g72"
       style="clip-rule:evenodd;fill-rule:evenodd;image-rendering:optimizeQuality;shape-rendering:geometricPrecision;text-rendering:geometricPrecision"
       transform="matrix(0.26458333,0,0,0.26458333,-35.647741,5.5110594)">
      <path
         style="opacity:1"
         fill="#d87418"
         d="m 326.5,176.5 c 5.044,-0.327 10.044,0.006 15,1 -11.159,0.667 -22.159,1.333 -33,2 -6.009,0.166 -12.009,-0.001 -18,-0.5 -0.457,-0.414 -0.791,-0.914 -1,-1.5 12.315,-0.999 24.649,-1.332 37,-1 z"
         id="path72" />
    </g>
    <g
       id="g75"
       style="clip-rule:evenodd;fill-rule:evenodd;image-rendering:optimizeQuality;shape-rendering:geometricPrecision;text-rendering:geometricPrecision"
       transform="matrix(0.26458333,0,0,0.26458333,-35.647741,5.5110594)">
      <path
         style="opacity:1"
         fill="#925821"
         d="m 283.5,147.5 c 0.838,0.342 1.172,1.008 1,2 -0.009,53.978 0.158,107.978 0.5,162 0.366,1.952 1.199,3.618 2.5,5 -1.517,-0.011 -2.684,-0.677 -3.5,-2 -0.341,-55.723 -0.508,-111.39 -0.5,-167 z"
         id="path75" />
    </g>
    <g
       id="g76"
       style="clip-rule:evenodd;fill-rule:evenodd;image-rendering:optimizeQuality;shape-rendering:geometricPrecision;text-rendering:geometricPrecision"
       transform="matrix(0.26458333,0,0,0.26458333,-35.647741,5.5110594)">
      <path
         style="opacity:1"
         fill="#a05510"
         d="m 284.5,149.5 c 2.411,3.809 5.078,7.476 8,11 -0.802,1.452 -1.302,3.118 -1.5,5 -1.011,0.837 -2.178,1.17 -3.5,1 -0.306,2.885 0.027,5.552 1,8 -1.499,1.99 -2.332,4.323 -2.5,7 -0.167,14.167 -0.333,28.333 -0.5,42.5 0.436,18.538 0.436,37.038 0,55.5 0.457,11.17 1.124,22.17 2,33 0.61,1.934 1.61,3.601 3,5 2.243,1.312 4.91,1.978 8,2 14,-1.212 28,-1.212 42,0 -0.157,-1.373 0.01,-2.707 0.5,-4 0.383,0.556 0.883,0.889 1.5,1 0.17,1.322 -0.163,2.489 -1,3.5 -17.667,0.667 -35.333,0.667 -53,0 -0.837,-1.011 -1.17,-2.178 -1,-3.5 -1.301,-1.382 -2.134,-3.048 -2.5,-5 -0.342,-54.022 -0.509,-108.022 -0.5,-162 z"
         id="path76" />
    </g>
    <g
       id="g77"
       style="clip-rule:evenodd;fill-rule:evenodd;image-rendering:optimizeQuality;shape-rendering:geometricPrecision;text-rendering:geometricPrecision"
       transform="matrix(0.26458333,0,0,0.26458333,-35.647741,5.5110594)">
      <path
         style="opacity:1"
         fill="#f18206"
         d="m 307.5,181.5 c 4.667,0 9.333,0 14,0 -0.167,14.337 0,28.671 0.5,43 1.333,1.333 2.667,2.667 4,4 0.499,5.991 0.666,11.991 0.5,18 -8,0 -16,0 -24,0 -0.166,-5.676 10e-4,-11.343 0.5,-17 1.333,-1.333 2.667,-2.667 4,-4 0.5,-14.663 0.667,-29.33 0.5,-44 z"
         id="path77" />
    </g>
    <g
       id="g79"
       style="clip-rule:evenodd;fill-rule:evenodd;image-rendering:optimizeQuality;shape-rendering:geometricPrecision;text-rendering:geometricPrecision"
       transform="matrix(0.26458333,0,0,0.26458333,-35.647741,5.5110594)">
      <path
         style="opacity:1"
         fill="#f3952b"
         d="m 298.5,299.5 c 1.536,2.592 3.869,3.592 7,3 0,3.333 0,6.667 0,10 -6,0 -12,0 -18,0 -0.162,-2.027 0.005,-4.027 0.5,-6 2.991,-1.503 4.157,-4.003 3.5,-7.5 0.714,-3.972 -0.619,-6.972 -4,-9 1.035,-1.274 2.202,-2.44 3.5,-3.5 0.667,-4.333 0.667,-8.667 0,-13 -2.265,-1.416 -3.431,-3.416 -3.5,-6 1.322,0.17 2.489,-0.163 3.5,-1 0.499,-4.321 0.666,-8.654 0.5,-13 -1.149,-1.649 -2.482,-3.149 -4,-4.5 1.035,-1.274 2.202,-2.44 3.5,-3.5 0.667,-4.333 0.667,-8.667 0,-13 -0.383,-0.556 -0.883,-0.889 -1.5,-1 -1.575,-1.614 -2.241,-3.614 -2,-6 1.322,0.17 2.489,-0.163 3.5,-1 0.667,-5 0.667,-10 0,-15 -2.048,-0.598 -3.215,-1.931 -3.5,-4 3.837,-3.834 5.004,-8.501 3.5,-14 -2.988,-2.581 -4.154,-5.914 -3.5,-10 6,0 12,0 18,0 0.167,14.337 0,28.671 -0.5,43 -3.333,2 -6,4.667 -8,8 -0.667,22 -0.667,44 0,66 0.383,0.556 0.883,0.889 1.5,1 z"
         id="path79" />
    </g>
    <g
       id="g80"
       style="clip-rule:evenodd;fill-rule:evenodd;image-rendering:optimizeQuality;shape-rendering:geometricPrecision;text-rendering:geometricPrecision"
       transform="matrix(0.26458333,0,0,0.26458333,-35.647741,5.5110594)">
      <path
         style="opacity:1"
         fill="#b65905"
         d="m 344.5,174.5 c 0,0.333 0,0.667 0,1 -0.023,45.792 -0.023,91.792 0,138 -0.901,0.79 -1.568,1.79 -2,3 -0.617,-0.111 -1.117,-0.444 -1.5,-1 -0.49,1.293 -0.657,2.627 -0.5,4 -14,-1.212 -28,-1.212 -42,0 -3.09,-0.022 -5.757,-0.688 -8,-2 16.347,0.333 32.68,-10e-4 49,-1 -10.651,-0.832 -21.318,-1.332 -32,-1.5 -0.667,-0.333 -1.333,-0.667 -2,-1 2.865,-0.183 5.531,-0.683 8,-1.5 2.667,0 5.333,0 8,0 0.667,-1 1.333,-2 2,-3 0,1 0,2 0,3 6.333,0 12.667,0 19,0 0.803,-3.669 -0.364,-6.336 -3.5,-8 -0.667,-3.667 -0.667,-7.333 0,-11 2.91,-0.95 4.077,-2.95 3.5,-6 -1.322,0.17 -2.489,-0.163 -3.5,-1 -0.667,-4.667 -0.667,-9.333 0,-14 1.011,-0.837 2.178,-1.17 3.5,-1 0,-1.333 0,-2.667 0,-4 -1.322,0.17 -2.489,-0.163 -3.5,-1 -0.667,-4.667 -0.667,-9.333 0,-14 4.627,-2.244 4.627,-4.577 0,-7 -0.667,-4.667 -0.667,-9.333 0,-14 2.91,-0.95 4.077,-2.95 3.5,-6 -1.322,0.17 -2.489,-0.163 -3.5,-1 -0.667,-5 -0.667,-10 0,-15 4.667,-2.667 4.667,-5.333 0,-8 -0.667,-3.667 -0.667,-7.333 0,-11 1.011,-0.837 2.178,-1.17 3.5,-1 0,-3 0,-6 0,-9 -11.154,-0.995 -22.488,-1.328 -34,-1 10.841,-0.667 21.841,-1.333 33,-2 -4.956,-0.994 -9.956,-1.327 -15,-1 1.333,-0.667 2.667,-1.333 4,-2 4,0 8,0 12,0 -0.961,-4.961 -2.294,-9.794 -4,-14.5 0.167,-1.833 0.333,-3.667 0.5,-5.5 2.048,-0.598 3.215,-1.931 3.5,-4 -1.299,-2.09 -2.799,-4.09 -4.5,-6 -0.825,-3.711 -0.659,-7.378 0.5,-11 5.112,-2.508 5.278,-5.174 0.5,-8 -0.667,-4.667 -0.667,-9.333 0,-14 1.011,-0.837 2.178,-1.17 3.5,-1 0,-1.333 0,-2.667 0,-4 -3.407,-0.674 -4.74,-2.841 -4,-6.5 1.774,-3.8044 2.774,-7.971 3,-12.5 -0.075,-4.0553 -0.575,-8.0553 -1.5,-12 -5.208,-16.79 -10.708,-33.4566 -16.5,-50 1.784,1.0738 2.951,2.7404 3.5,5 6.005,15.0163 11.005,30.3496 15,46 1.019,-18.7812 -1.314,-37.1145 -7,-55 -1.238,5.1371 -3.905,6.1371 -8,3 -0.497,-2.3098 -0.663,-4.6432 -0.5,-7 0.444,-1.6132 1.444,-2.7798 3,-3.5 -9.722,-5.90532 -19.389,-5.90532 -29,0 0.916,0.3742 1.75,0.8742 2.5,1.5 0.747,3.4236 0.58,6.7569 -0.5,10 -4.176,1.9867 -6.676,0.6533 -7.5,-4 -1.147,2.2312 -2.147,4.5645 -3,7 -3.022,14.865 -4.356,29.865 -4,45 5.285,-15.6869 10.451,-31.3536 15.5,-47 1.324,-1.3499 2.324,-1.1833 3,0.5 -6.1,15.2997 -11.6,30.7997 -16.5,46.5 -1.35,6.9456 -2.183,13.9456 -2.5,21 1.322,-0.17 2.489,0.1634 3.5,1 0.167,1.6667 0.333,3.3333 0.5,5 -0.784,3.656 -2.117,6.989 -4,10 1.322,-0.17 2.489,0.163 3.5,1 0.175,4.519 0.675,8.853 1.5,13 -2.926,1.584 -5.592,3.584 -8,6 0.816,-27.291 1.316,-54.6245 1.5,-82 2.32,-8.913 4.32,-17.913 6,-27 1.333,-2.6667 3.333,-4.6667 6,-6 0.938,-1.9885 1.772,-3.9885 2.5,-6 9.056,-1.39404 18.056,-1.22737 27,0.5 4.592,3.5991 8.092,8.0991 10.5,13.5 2.638,9.9173 4.638,19.9173 6,30 0.5,40.332 0.667,80.665 0.5,121 z"
         id="path80" />
    </g>
    <g
       id="g81"
       style="clip-rule:evenodd;fill-rule:evenodd;image-rendering:optimizeQuality;shape-rendering:geometricPrecision;text-rendering:geometricPrecision"
       transform="matrix(0.26458333,0,0,0.26458333,-35.647741,5.5110594)">
      <path
         style="opacity:1"
         fill="#d17213"
         d="m 287.5,112.5 c 0.996,-0.086 1.829,0.248 2.5,1 0.76,3.725 0.593,7.392 -0.5,11 -0.825,0.886 -1.825,1.219 -3,1 -0.269,-4.431 0.064,-8.765 1,-13 z"
         id="path81" />
    </g>
    <g
       id="g82"
       style="clip-rule:evenodd;fill-rule:evenodd;image-rendering:optimizeQuality;shape-rendering:geometricPrecision;text-rendering:geometricPrecision"
       transform="matrix(0.26458333,0,0,0.26458333,-35.647741,5.5110594)">
      <path
         style="opacity:1"
         fill="#f3952c"
         d="m 310.5,59.5 c 6.675,-1.142 11.342,1.358 14,7.5 1.634,0.4935 3.301,0.6602 5,0.5 -0.245,8.8197 -2.578,16.9864 -7,24.5 -5.584,0.8056 -11.084,0.6389 -16.5,-0.5 -4.354,-7.4168 -6.187,-15.4168 -5.5,-24 1.699,0.1602 3.366,-0.0065 5,-0.5 1.305,-2.7868 2.972,-5.2868 5,-7.5 z"
         id="path82" />
    </g>
    <g
       id="g83"
       style="clip-rule:evenodd;fill-rule:evenodd;image-rendering:optimizeQuality;shape-rendering:geometricPrecision;text-rendering:geometricPrecision"
       transform="matrix(0.26458333,0,0,0.26458333,-35.647741,5.5110594)">
      <path
         style="opacity:1"
         fill="#ea7f13"
         d="m 326.5,17.5 c -0.163,2.3568 0.003,4.6902 0.5,7 4.095,3.1371 6.762,2.1371 8,-3 5.686,17.8855 8.019,36.2188 7,55 -3.995,-15.6504 -8.995,-30.9837 -15,-46 -0.549,-2.2596 -1.716,-3.9262 -3.5,-5 1.435,-2.5283 2.435,-5.195 3,-8 z"
         id="path83" />
    </g>
    <g
       id="g84"
       style="clip-rule:evenodd;fill-rule:evenodd;image-rendering:optimizeQuality;shape-rendering:geometricPrecision;text-rendering:geometricPrecision"
       transform="matrix(0.26458333,0,0,0.26458333,-35.647741,5.5110594)">
      <path
         style="opacity:1"
         fill="#ed8214"
         d="m 302.5,25.5 c 0,0.6667 0.333,1 1,1 -5.049,15.6464 -10.215,31.3131 -15.5,47 -0.356,-15.135 0.978,-30.135 4,-45 0.853,-2.4355 1.853,-4.7688 3,-7 0.824,4.6533 3.324,5.9867 7.5,4 z"
         id="path84" />
    </g>
    <g
       id="g85"
       style="clip-rule:evenodd;fill-rule:evenodd;image-rendering:optimizeQuality;shape-rendering:geometricPrecision;text-rendering:geometricPrecision"
       transform="matrix(0.26458333,0,0,0.26458333,-35.647741,5.5110594)">
      <path
         style="opacity:1"
         fill="#d46e07"
         d="m 309.5,46.5 c 4.436,-0.2899 8.77,0.2101 13,1.5 1.295,3.7864 1.295,7.6197 0,11.5 -4.789,-3.3347 -9.622,-3.668 -14.5,-1 -2.501,-4.6457 -2.001,-8.6457 1.5,-12 z"
         id="path85" />
    </g>
    <g
       id="g86"
       style="clip-rule:evenodd;fill-rule:evenodd;image-rendering:optimizeQuality;shape-rendering:geometricPrecision;text-rendering:geometricPrecision"
       transform="matrix(0.26458333,0,0,0.26458333,-35.647741,5.5110594)">
      <path
         style="opacity:1"
         fill="#a35917"
         d="m 344.5,175.5 c 0,0.333 0,0.667 0,1 -0.172,0.992 0.162,1.658 1,2 0.332,45.17 -10e-4,90.17 -1,135 -0.023,-46.208 -0.023,-92.208 0,-138 z"
         id="path86" />
    </g>
    <g
       id="g87"
       style="clip-rule:evenodd;fill-rule:evenodd;image-rendering:optimizeQuality;shape-rendering:geometricPrecision;text-rendering:geometricPrecision"
       transform="matrix(0.26458333,0,0,0.26458333,-35.647741,5.5110594)">
      <path
         style="opacity:1"
         fill="#8c572a"
         d="m 345.5,178.5 c 0.999,41.497 1.332,83.163 1,125 0.165,3.682 -10e-4,7.348 -0.5,11 -0.816,1.323 -1.983,1.989 -3.5,2 0.432,-1.21 1.099,-2.21 2,-3 0.999,-44.83 1.332,-89.83 1,-135 z"
         id="path87" />
    </g>
    <g
       id="g93"
       style="clip-rule:evenodd;fill-rule:evenodd;image-rendering:optimizeQuality;shape-rendering:geometricPrecision;text-rendering:geometricPrecision"
       transform="matrix(0.26458333,0,0,0.26458333,-35.647741,5.5110594)">
      <path
         style="opacity:1"
         fill="#f3952f"
         d="m 342.5,180.5 c 0,3 0,6 0,9 -1.322,-0.17 -2.489,0.163 -3.5,1 -0.667,3.667 -0.667,7.333 0,11 4.667,2.667 4.667,5.333 0,8 -0.667,5 -0.667,10 0,15 1.011,0.837 2.178,1.17 3.5,1 0.577,3.05 -0.59,5.05 -3.5,6 -0.667,4.667 -0.667,9.333 0,14 4.627,2.423 4.627,4.756 0,7 -0.667,4.667 -0.667,9.333 0,14 1.011,0.837 2.178,1.17 3.5,1 0,1.333 0,2.667 0,4 -1.322,-0.17 -2.489,0.163 -3.5,1 -0.667,4.667 -0.667,9.333 0,14 1.011,0.837 2.178,1.17 3.5,1 0.577,3.05 -0.59,5.05 -3.5,6 -0.667,3.667 -0.667,7.333 0,11 3.136,1.664 4.303,4.331 3.5,8 -6.333,0 -12.667,0 -19,0 0,-1 0,-2 0,-3 -0.163,-2.357 0.003,-4.69 0.5,-7 4.361,-0.011 7.361,-2.011 9,-6 0.667,-21 0.667,-42 0,-63 -1.667,-4.333 -4.667,-7.333 -9,-9 -0.5,-14.663 -0.667,-29.33 -0.5,-44 6.333,0 12.667,0 19,0 z"
         id="path93" />
    </g>
    <g
       id="g95"
       style="clip-rule:evenodd;fill-rule:evenodd;image-rendering:optimizeQuality;shape-rendering:geometricPrecision;text-rendering:geometricPrecision"
       transform="matrix(0.26458333,0,0,0.26458333,-35.647741,5.5110594)">
      <path
         style="opacity:1"
         fill="#e67e12"
         d="m 302.5,249.5 c 7.674,-0.166 15.341,0 23,0.5 0.906,1.699 1.239,3.533 1,5.5 -3.333,0 -6.667,0 -10,0 -1.333,-6.667 -2.667,-6.667 -4,0 -3.333,0 -6.667,0 -10,0 0,-2 0,-4 0,-6 z"
         id="path95" />
    </g>
    <g
       id="g96"
       style="clip-rule:evenodd;fill-rule:evenodd;image-rendering:optimizeQuality;shape-rendering:geometricPrecision;text-rendering:geometricPrecision"
       transform="matrix(0.26458333,0,0,0.26458333,-35.647741,5.5110594)">
      <path
         style="opacity:1"
         fill="#c8670a"
         d="m 289.5,231.5 c 0.617,0.111 1.117,0.444 1.5,1 0.667,4.333 0.667,8.667 0,13 -1.298,1.06 -2.465,2.226 -3.5,3.5 1.518,1.351 2.851,2.851 4,4.5 -0.823,3.477 -1.323,7.144 -1.5,11 -1.011,0.837 -2.178,1.17 -3.5,1 0,-11.333 0,-22.667 0,-34 1,0 2,0 3,0 z"
         id="path96" />
    </g>
    <g
       id="g98"
       style="clip-rule:evenodd;fill-rule:evenodd;image-rendering:optimizeQuality;shape-rendering:geometricPrecision;text-rendering:geometricPrecision"
       transform="matrix(0.26458333,0,0,0.26458333,-35.647741,5.5110594)">
      <path
         style="opacity:1"
         fill="#f18611"
         d="m 303.5,257.5 c 2.333,0 4.667,0 7,0 -1.615,5.231 -3.782,10.231 -6.5,15 -0.499,-4.989 -0.666,-9.989 -0.5,-15 z"
         id="path98" />
    </g>
    <g
       id="g99"
       style="clip-rule:evenodd;fill-rule:evenodd;image-rendering:optimizeQuality;shape-rendering:geometricPrecision;text-rendering:geometricPrecision"
       transform="matrix(0.26458333,0,0,0.26458333,-35.647741,5.5110594)">
      <path
         style="opacity:1"
         fill="#e37e1c"
         d="m 299.5,231.5 c 1.324,14.206 1.324,28.539 0,43 1.624,1.369 2.124,3.036 1.5,5 -0.414,-0.457 -0.914,-0.791 -1.5,-1 -1.302,-15.7 -1.302,-31.367 0,-47 z"
         id="path99" />
    </g>
    <g
       id="g100"
       style="clip-rule:evenodd;fill-rule:evenodd;image-rendering:optimizeQuality;shape-rendering:geometricPrecision;text-rendering:geometricPrecision"
       transform="matrix(0.26458333,0,0,0.26458333,-35.647741,5.5110594)">
      <path
         style="opacity:1"
         fill="#f48d1a"
         d="m 318.5,257.5 c 2.333,0 4.667,0 7,0 0.166,5.011 -10e-4,10.011 -0.5,15 -2.712,-4.758 -4.879,-9.758 -6.5,-15 z"
         id="path100" />
    </g>
    <g
       id="g101"
       style="clip-rule:evenodd;fill-rule:evenodd;image-rendering:optimizeQuality;shape-rendering:geometricPrecision;text-rendering:geometricPrecision"
       transform="matrix(0.26458333,0,0,0.26458333,-35.647741,5.5110594)">
      <path
         style="opacity:1"
         fill="#e17d1a"
         d="m 328.5,231.5 c 0.617,0.111 1.117,0.444 1.5,1 0.167,7.667 0.333,15.333 0.5,23 0.154,8.159 -0.346,16.159 -1.5,24 -0.692,-0.525 -1.192,-1.192 -1.5,-2 0.984,-15.285 1.317,-30.618 1,-46 z"
         id="path101" />
    </g>
    <g
       id="g102"
       style="clip-rule:evenodd;fill-rule:evenodd;image-rendering:optimizeQuality;shape-rendering:geometricPrecision;text-rendering:geometricPrecision"
       transform="matrix(0.26458333,0,0,0.26458333,-35.647741,5.5110594)">
      <path
         style="opacity:1"
         fill="#f08611"
         d="m 312.5,257.5 c 1.322,-0.17 2.489,0.163 3.5,1 2.263,4.624 4.43,9.291 6.5,14 -4.956,0.994 -9.956,1.327 -15,1 1.656,-5.318 3.322,-10.651 5,-16 z"
         id="path102" />
    </g>
    <g
       id="g104"
       style="clip-rule:evenodd;fill-rule:evenodd;image-rendering:optimizeQuality;shape-rendering:geometricPrecision;text-rendering:geometricPrecision"
       transform="matrix(0.26458333,0,0,0.26458333,-35.647741,5.5110594)">
      <path
         style="opacity:1"
         fill="#e98318"
         d="m 306.5,275.5 c 5.667,0 11.333,0 17,0 0,1 0,2 0,3 -6.037,0.329 -12.037,-0.004 -18,-1 0.363,-0.683 0.696,-1.35 1,-2 z"
         id="path104" />
    </g>
    <g
       id="g108"
       style="clip-rule:evenodd;fill-rule:evenodd;image-rendering:optimizeQuality;shape-rendering:geometricPrecision;text-rendering:geometricPrecision"
       transform="matrix(0.26458333,0,0,0.26458333,-35.647741,5.5110594)">
      <path
         style="opacity:1"
         fill="#f48409"
         d="m 303.5,282.5 c 7.667,0 15.333,0 23,0 0,5.667 0,11.333 0,17 -1.644,-0.214 -3.144,0.12 -4.5,1 -0.499,3.986 -0.666,7.986 -0.5,12 -2.667,0 -5.333,0 -8,0 -2,0 -4,0 -6,0 0.166,-4.014 -10e-4,-8.014 -0.5,-12 -1.011,-0.837 -2.178,-1.17 -3.5,-1 0,-5.667 0,-11.333 0,-17 z"
         id="path108" />
    </g>
    <g
       id="g109"
       style="clip-rule:evenodd;fill-rule:evenodd;image-rendering:optimizeQuality;shape-rendering:geometricPrecision;text-rendering:geometricPrecision"
       transform="matrix(0.26458333,0,0,0.26458333,-35.647741,5.5110594)">
      <path
         style="opacity:1"
         fill="#ca670c"
         d="m 303.5,282.5 c 0,5.667 0,11.333 0,17 1.322,-0.17 2.489,0.163 3.5,1 0.499,3.986 0.666,7.986 0.5,12 2,0 4,0 6,0 -2.469,0.817 -5.135,1.317 -8,1.5 0.667,0.333 1.333,0.667 2,1 10.682,0.168 21.349,0.668 32,1.5 -16.32,0.999 -32.653,1.333 -49,1 -1.39,-1.399 -2.39,-3.066 -3,-5 6,0 12,0 18,0 0,-3.333 0,-6.667 0,-10 -3.131,0.592 -5.464,-0.408 -7,-3 -0.329,-5.706 0.005,-11.372 1,-17 0.667,3.333 1.333,6.667 2,10 0.667,-3.477 1.334,-6.811 2,-10 z"
         id="path109" />
    </g>
  </g>
</svg>
