<?xml version="1.0" encoding="UTF-8" standalone="no"?>
<!-- Created with Inkscape (http://www.inkscape.org/) -->

<svg
   width="96mm"
   height="96mm"
   viewBox="0 0 96 96"
   version="1.1"
   id="svg1"
   inkscape:version="1.4.2 (ebf0e940, 2025-05-08)"
   sodipodi:docname="bicycle.svg"
   xmlns:inkscape="http://www.inkscape.org/namespaces/inkscape"
   xmlns:sodipodi="http://sodipodi.sourceforge.net/DTD/sodipodi-0.dtd"
   xmlns="http://www.w3.org/2000/svg"
   xmlns:svg="http://www.w3.org/2000/svg">
  <sodipodi:namedview
     id="namedview1"
     pagecolor="#ffffff"
     bordercolor="#000000"
     borderopacity="0.25"
     inkscape:showpageshadow="2"
     inkscape:pageopacity="0.0"
     inkscape:pagecheckerboard="0"
     inkscape:deskcolor="#d1d1d1"
     inkscape:document-units="mm"
     inkscape:zoom="0.80444024"
     inkscape:cx="397.17059"
     inkscape:cy="163.46771"
     inkscape:window-width="1920"
     inkscape:window-height="1052"
     inkscape:window-x="0"
     inkscape:window-y="28"
     inkscape:window-maximized="0"
     inkscape:current-layer="layer1" />
  <defs
     id="defs1" />
  <g
     inkscape:label="Layer 1"
     inkscape:groupmode="layer"
     id="layer1">
    <g
       id="g9"
       style="clip-rule:evenodd;fill-rule:evenodd;image-rendering:optimizeQuality;shape-rendering:geometricPrecision;text-rendering:geometricPrecision"
       transform="matrix(0.31193715,0,0,0.31193715,-10.717438,-8.1105383)">
      <path
         style="opacity:1"
         fill="#a9590b"
         d="m 194.5,85.5 c -0.829,-6.8213 -1.329,-13.8213 -1.5,-21 -0.889,1.3882 -1.389,1.2215 -1.5,-0.5 0.912,-4.4464 1.245,-8.9464 1,-13.5 -2.627,-0.5916 -5.294,-0.9249 -8,-1 -1.531,18.0982 -2.531,36.0982 -3,54 0,-17.3333 0,-34.6667 0,-52 -0.073,-1.5269 0.594,-2.5269 2,-3 4.047,-1.8546 7.547,-1.1879 10.5,2 0.5,11.6619 0.667,23.3286 0.5,35 z"
         id="path9" />
    </g>
    <g
       id="g10"
       style="clip-rule:evenodd;fill-rule:evenodd;image-rendering:optimizeQuality;shape-rendering:geometricPrecision;text-rendering:geometricPrecision"
       transform="matrix(0.31193715,0,0,0.31193715,-10.717438,-8.1105383)">
      <path
         style="opacity:1"
         fill="#faeac8"
         d="m 195.5,50.5 c 0,-0.3333 0,-0.6667 0,-1 1.689,12.3674 2.689,25.0341 3,38 0,0.3333 0,0.6667 0,1 -0.827,5.1509 -1.327,10.4842 -1.5,16 -0.168,-18.1713 -0.668,-36.1713 -1.5,-54 z"
         id="path10" />
    </g>
    <g
       id="g16"
       style="clip-rule:evenodd;fill-rule:evenodd;image-rendering:optimizeQuality;shape-rendering:geometricPrecision;text-rendering:geometricPrecision"
       transform="matrix(0.31193715,0,0,0.31193715,-10.717438,-8.1105383)">
      <path
         style="opacity:1"
         fill="#99591a"
         d="m 195.5,49.5 c 0,0.3333 0,0.6667 0,1 0,17.3333 0,34.6667 0,52 -0.989,-5.4753 -1.322,-11.142 -1,-17 0.167,-11.6714 0,-23.3381 -0.5,-35 -2.953,-3.1879 -6.453,-3.8546 -10.5,-2 0.333,-0.6667 0.667,-1.3333 1,-2 4.346,-1.6618 8.012,-0.6618 11,3 z"
         id="path16" />
    </g>
    <g
       id="g17"
       style="clip-rule:evenodd;fill-rule:evenodd;image-rendering:optimizeQuality;shape-rendering:geometricPrecision;text-rendering:geometricPrecision"
       transform="matrix(0.31193715,0,0,0.31193715,-10.717438,-8.1105383)">
      <path
         style="opacity:1"
         fill="#ede2d5"
         d="m 219.5,96.5 c -3.024,1.5134 -5.691,3.513 -8,6 -2.107,0.8 -4.274,1.467 -6.5,2 -1.07,-0.028 -1.903,-0.361 -2.5,-1 0,-5.3333 0,-10.6667 0,-16 -1.333,0 -2.667,0 -4,0 -0.311,-12.9659 -1.311,-25.6326 -3,-38 -2.988,-3.6618 -6.654,-4.6618 -11,-3 -1.175,-0.219 -2.175,0.1143 -3,1 -0.583,1.5016 -1.416,2.8349 -2.5,4 0.148,11.379 -0.685,22.379 -2.5,33 0.218,-11.7369 0.718,-23.4036 1.5,-35 6.283,-8.8791 12.95,-9.2124 20,-1 0.96,2.4803 1.793,4.9803 2.5,7.5 -0.667,0.6667 -1.333,1.3333 -2,2 0.939,8.5135 0.939,17.1802 0,26 1.601,0.2734 3.101,0.7734 4.5,1.5 2.487,5.0912 4.154,10.4245 5,16 2.863,-3.8672 6.697,-5.5338 11.5,-5 z"
         id="path17" />
    </g>
    <g
       id="g24"
       style="clip-rule:evenodd;fill-rule:evenodd;image-rendering:optimizeQuality;shape-rendering:geometricPrecision;text-rendering:geometricPrecision"
       transform="matrix(0.31193715,0,0,0.31193715,-10.717438,-8.1105383)">
      <path
         style="opacity:1"
         fill="#bb8f5d"
         d="m 195.5,50.5 c 0.832,17.8287 1.332,35.8287 1.5,54 0.173,-5.5158 0.673,-10.8491 1.5,-16 0,5 0,10 0,15 -0.321,1.548 -1.321,2.215 -3,2 0,-1 0,-2 0,-3 0,-17.3333 0,-34.6667 0,-52 z"
         id="path24" />
    </g>
    <g
       id="g29"
       style="clip-rule:evenodd;fill-rule:evenodd;image-rendering:optimizeQuality;shape-rendering:geometricPrecision;text-rendering:geometricPrecision"
       transform="matrix(0.31193715,0,0,0.31193715,-10.717438,-8.1105383)">
      <path
         style="opacity:1"
         fill="#f4e4ce"
         d="m 184.5,46.5 c -0.333,0.6667 -0.667,1.3333 -1,2 -1.406,0.4731 -2.073,1.4731 -2,3 -0.995,11.488 -1.328,23.1547 -1,35 -0.667,0.3333 -1.333,0.6667 -2,1 -1.644,-0.2135 -3.144,0.1198 -4.5,1 -0.499,5.3229 -0.666,10.6563 -0.5,16 -4.075,0.841 -7.075,-0.492 -9,-4 2.058,1.433 4.392,2.1 7,2 0.297,-4.2675 -0.036,-8.4341 -1,-12.5 1.049,-3.0014 3.049,-4.8347 6,-5.5 1.815,-10.621 2.648,-21.621 2.5,-33 1.084,-1.1651 1.917,-2.4984 2.5,-4 0.825,-0.8857 1.825,-1.219 3,-1 z"
         id="path29" />
    </g>
    <g
       id="g35"
       style="clip-rule:evenodd;fill-rule:evenodd;image-rendering:optimizeQuality;shape-rendering:geometricPrecision;text-rendering:geometricPrecision"
       transform="matrix(0.31193715,0,0,0.31193715,-10.717438,-8.1105383)">
      <path
         style="opacity:1"
         fill="#b45a04"
         d="m 194.5,85.5 c -0.322,5.858 0.011,11.5247 1,17 0,1 0,2 0,3 1.679,0.215 2.679,-0.452 3,-2 1.333,0 2.667,0 4,0 0.597,0.639 1.43,0.972 2.5,1 2.226,-0.533 4.393,-1.2 6.5,-2 4.315,-2.07 8.815,-3.7365 13.5,-5 2.732,0.1148 5.232,0.9481 7.5,2.5 0.752,0.671 1.086,1.504 1,2.5 -4.145,-1.85 -8.479,-2.35 -13,-1.5 -3.667,2.333 -7.333,4.667 -11,7 -13.329,0.5 -26.663,0.667 -40,0.5 1.068,-0.934 2.401,-1.268 4,-1 0,-1 0,-2 0,-3 1.734,-1.062 3.401,-1.062 5,0 1.447,1.385 2.447,1.052 3,-1 0.469,-17.9018 1.469,-35.9018 3,-54 2.706,0.0751 5.373,0.4084 8,1 0.245,4.5536 -0.088,9.0536 -1,13.5 0.111,1.7215 0.611,1.8882 1.5,0.5 0.171,7.1787 0.671,14.1787 1.5,21 z"
         id="path35" />
    </g>
    <g
       id="g42"
       style="clip-rule:evenodd;fill-rule:evenodd;image-rendering:optimizeQuality;shape-rendering:geometricPrecision;text-rendering:geometricPrecision"
       transform="matrix(0.31193715,0,0,0.31193715,-10.717438,-8.1105383)">
      <path
         style="opacity:1"
         fill="#aa7a44"
         d="m 181.5,51.5 c 0,17.3333 0,34.6667 0,52 -0.553,2.052 -1.553,2.385 -3,1 1.953,-5.5738 2.62,-11.5738 2,-18 -0.328,-11.8453 0.005,-23.512 1,-35 z"
         id="path42" />
    </g>
    <g
       id="g52"
       style="clip-rule:evenodd;fill-rule:evenodd;image-rendering:optimizeQuality;shape-rendering:geometricPrecision;text-rendering:geometricPrecision"
       transform="matrix(0.31193715,0,0,0.31193715,-10.717438,-8.1105383)">
      <path
         style="opacity:1"
         fill="#f9cd9a"
         d="m 180.5,86.5 c 0.62,6.4262 -0.047,12.4262 -2,18 0,-5.6667 0,-11.3333 0,-17 0.667,-0.3333 1.333,-0.6667 2,-1 z"
         id="path52" />
    </g>
    <g
       id="g55"
       style="clip-rule:evenodd;fill-rule:evenodd;image-rendering:optimizeQuality;shape-rendering:geometricPrecision;text-rendering:geometricPrecision"
       transform="matrix(0.31193715,0,0,0.31193715,-10.717438,-8.1105383)">
      <path
         style="opacity:1"
         fill="#a16127"
         d="m 178.5,87.5 c 0,5.6667 0,11.3333 0,17 -1.599,-1.062 -3.266,-1.062 -5,0 -0.166,-5.3437 0.001,-10.6771 0.5,-16 1.356,-0.8802 2.856,-1.2135 4.5,-1 z"
         id="path55" />
    </g>
    <g
       id="g58"
       style="clip-rule:evenodd;fill-rule:evenodd;image-rendering:optimizeQuality;shape-rendering:geometricPrecision;text-rendering:geometricPrecision"
       transform="matrix(0.31193715,0,0,0.31193715,-10.717438,-8.1105383)">
      <path
         style="opacity:1"
         fill="#96551a"
         d="m 198.5,87.5 c 1.333,0 2.667,0 4,0 0,5.3333 0,10.6667 0,16 -1.333,0 -2.667,0 -4,0 0,-5 0,-10 0,-15 0,-0.3333 0,-0.6667 0,-1 z"
         id="path58" />
    </g>
    <g
       id="g69"
       style="clip-rule:evenodd;fill-rule:evenodd;image-rendering:optimizeQuality;shape-rendering:geometricPrecision;text-rendering:geometricPrecision"
       transform="matrix(0.31193715,0,0,0.31193715,-10.717438,-8.1105383)">
      <path
         style="opacity:1"
         fill="#a15d1d"
         d="m 219.5,96.5 c 4.703,-0.0628 9.37,0.2705 14,1 4.292,2.957 8.292,6.29 12,10 -2.306,-0.493 -4.639,-0.826 -7,-1 -1.889,-1.104 -3.555,-2.437 -5,-4 0.086,-0.996 -0.248,-1.829 -1,-2.5 -2.268,-1.5519 -4.768,-2.3852 -7.5,-2.5 -4.685,1.2635 -9.185,2.93 -13.5,5 2.309,-2.487 4.976,-4.4866 8,-6 z"
         id="path69" />
    </g>
    <g
       id="g71"
       style="clip-rule:evenodd;fill-rule:evenodd;image-rendering:optimizeQuality;shape-rendering:geometricPrecision;text-rendering:geometricPrecision"
       transform="matrix(0.31193715,0,0,0.31193715,-10.717438,-8.1105383)">
      <path
         style="opacity:1"
         fill="#aa5e14"
         d="m 164.5,100.5 c 1.925,3.508 4.925,4.841 9,4 0,1 0,2 0,3 -1.599,-0.268 -2.932,0.066 -4,1 -1.052,0.149 -2.052,-0.017 -3,-0.5 -9.145,-9.4308 -18.479,-9.7641 -28,-1 0.854,1.022 1.854,1.855 3,2.5 4.046,-3.591 8.712,-4.757 14,-3.5 1.442,0.377 2.442,1.21 3,2.5 -0.543,0.06 -0.876,0.393 -1,1 4.952,4.891 10.952,7.391 18,7.5 0.969,1.758 2.136,2.258 3.5,1.5 0.833,1 1.667,2 2.5,3 0.827,-1.662 1.993,-2.995 3.5,-4 0.667,21.333 0.667,42.667 0,64 -0.77,-1.098 -1.603,-1.098 -2.5,0 1.127,-18.302 1.294,-36.635 0.5,-55 -2.184,-1.788 -4.351,-3.454 -6.5,-5 -0.891,-0.761 -1.558,-1.761 -2,-3 -2.947,-0.821 -5.947,-1.321 -9,-1.5 -4.685,-3.199 -9.685,-5.699 -15,-7.5 -1,0.167 -2,0.333 -3,0.5 -2.426,4.037 -5.426,7.537 -9,10.5 -0.739,-0.131 -1.406,0.036 -2,0.5 -2.878,3.577 -5.878,7.077 -9,10.5 -2.243,0.974 -4.576,1.308 -7,1 -0.876,-3.299 -1.043,-6.632 -0.5,-10 3.404,-3.894 6.571,-7.894 9.5,-12 0.359,-1.871 1.359,-3.371 3,-4.5 3.333,-2.667 6.667,-5.333 10,-8 7.823,-2.6091 15.156,-1.7758 22,2.5 z"
         id="path71" />
    </g>
    <g
       id="g74"
       style="clip-rule:evenodd;fill-rule:evenodd;image-rendering:optimizeQuality;shape-rendering:geometricPrecision;text-rendering:geometricPrecision"
       transform="matrix(0.31193715,0,0,0.31193715,-10.717438,-8.1105383)">
      <path
         style="opacity:1"
         fill="#f4a74c"
         d="m 169.5,108.5 c 13.337,0.167 26.671,0 40,-0.5 3.667,-2.333 7.333,-4.667 11,-7 4.521,-0.85 8.855,-0.35 13,1.5 1.445,1.563 3.111,2.896 5,4 -0.212,1.884 -1.212,3.217 -3,4 -3.661,-4.545 -8.328,-6.045 -14,-4.5 -4.119,3.393 -8.786,5.726 -14,7 -13.333,0.667 -26.667,0.667 -40,0 -3.332,-0.999 -6.332,-2.499 -9,-4.5 -0.558,-1.29 -1.558,-2.123 -3,-2.5 -5.288,-1.257 -9.954,-0.091 -14,3.5 -1.146,-0.645 -2.146,-1.478 -3,-2.5 9.521,-8.7641 18.855,-8.4308 28,1 0.948,0.483 1.948,0.649 3,0.5 z"
         id="path74" />
    </g>
    <g
       id="g80"
       style="clip-rule:evenodd;fill-rule:evenodd;image-rendering:optimizeQuality;shape-rendering:geometricPrecision;text-rendering:geometricPrecision"
       transform="matrix(0.31193715,0,0,0.31193715,-10.717438,-8.1105383)">
      <path
         style="opacity:1"
         fill="#f2e2ce"
         d="m 233.5,97.5 c 1.373,-0.1567 2.707,0.01 4,0.5 2.926,1.9236 5.926,3.757 9,5.5 2.274,2.213 3.774,4.879 4.5,8 3.519,2.67 6.019,6.003 7.5,10 -4.333,-4.667 -8.667,-9.333 -13,-14 -3.708,-3.71 -7.708,-7.043 -12,-10 z"
         id="path80" />
    </g>
    <g
       id="g86"
       style="clip-rule:evenodd;fill-rule:evenodd;image-rendering:optimizeQuality;shape-rendering:geometricPrecision;text-rendering:geometricPrecision"
       transform="matrix(0.31193715,0,0,0.31193715,-10.717438,-8.1105383)">
      <path
         style="opacity:1"
         fill="#f1e3cf"
         d="m 164.5,100.5 c -6.844,-4.2758 -14.177,-5.1091 -22,-2.5 -3.333,2.667 -6.667,5.333 -10,8 -1.641,1.129 -2.641,2.629 -3,4.5 -4.711,3.545 -8.545,7.879 -11.5,13 -1.762,9.244 1.738,12.41 10.5,9.5 3.547,-4.041 6.88,-8.208 10,-12.5 3.574,-2.963 6.574,-6.463 9,-10.5 1,-0.167 2,-0.333 3,-0.5 5.315,1.801 10.315,4.301 15,7.5 3.053,0.179 6.053,0.679 9,1.5 0.442,1.239 1.109,2.239 2,3 0.555,2.229 1.889,3.895 4,5 1,18.321 1.333,36.655 1,55 -3.341,-0.657 -5.341,0.676 -6,4 -0.667,-7 -1.333,-14 -2,-21 -2.164,-0.498 -3.831,-1.664 -5,-3.5 -6.223,-1.581 -12.556,-1.915 -19,-1 -1.256,0.417 -1.923,1.25 -2,2.5 -1.506,2.969 -1.173,5.802 1,8.5 6,0.667 12,0.667 18,0 0.544,-0.717 1.211,-1.217 2,-1.5 0.99,5.81 1.323,11.81 1,18 -0.691,-4.399 -1.358,-8.899 -2,-13.5 -7.383,-0.2 -14.716,-0.7 -22,-1.5 -1.161,-4.295 -1.328,-8.629 -0.5,-13 0.5,-0.5 1,-1 1.5,-1.5 7.732,-0.856 15.398,-0.523 23,1 2.288,0.946 4.455,2.113 6.5,3.5 0.852,3.555 1.519,6.888 2,10 1.633,-14.573 1.966,-29.24 1,-44 -2.045,-1.551 -3.545,-3.551 -4.5,-6 -1.774,-0.687 -3.441,-1.52 -5,-2.5 -4.861,-0.765 -9.861,-1.931 -15,-3.5 -0.545,-3.444 -2.545,-4.611 -6,-3.5 -2.5,3.167 -5.333,6 -8.5,8.5 -0.333,1.333 -0.667,2.667 -1,4 -2.487,2.309 -4.487,4.976 -6,8 -3.743,2.91 -7.743,4.244 -12,4 -5.167,-3.266 -6.833,-7.933 -5,-14 1.586,-2.17 2.92,-4.504 4,-7 3.812,-2.317 6.312,-5.65 7.5,-10 9.746,-11.8066 21.746,-14.6399 36,-8.5 0.752,0.6708 1.086,1.5041 1,2.5 z"
         id="path86" />
    </g>
    <g
       id="g89"
       style="clip-rule:evenodd;fill-rule:evenodd;image-rendering:optimizeQuality;shape-rendering:geometricPrecision;text-rendering:geometricPrecision"
       transform="matrix(0.31193715,0,0,0.31193715,-10.717438,-8.1105383)">
      <path
         style="opacity:1"
         fill="#a16225"
         d="m 221.5,110.5 c -5.339,4.73 -11.672,7.23 -19,7.5 -1.513,3.897 -3.846,7.063 -7,9.5 -0.333,0 -0.667,0 -1,0 0,-1.333 0,-2.667 0,-4 1.333,0 2.667,0 4,0 0.14,-1.624 -0.527,-2.79 -2,-3.5 0.535,-2.109 1.535,-2.609 3,-1.5 7.564,-2.057 14.898,-4.723 22,-8 z"
         id="path89" />
    </g>
    <g
       id="g90"
       style="clip-rule:evenodd;fill-rule:evenodd;image-rendering:optimizeQuality;shape-rendering:geometricPrecision;text-rendering:geometricPrecision"
       transform="matrix(0.31193715,0,0,0.31193715,-10.717438,-8.1105383)">
      <path
         style="opacity:1"
         fill="#f4a64c"
         d="m 249.5,117.5 c 1,1.667 2.333,3 4,4 0.981,1.989 1.981,3.989 3,6 -0.596,2.746 -2.263,3.58 -5,2.5 -2.234,-2.063 -4.234,-4.229 -6,-6.5 0,-0.667 -0.333,-1 -1,-1 -2.499,-2.669 -4.832,-5.502 -7,-8.5 1.185,-1.353 2.519,-2.52 4,-3.5 2.686,2.356 5.353,4.689 8,7 z"
         id="path90" />
    </g>
    <g
       id="g94"
       style="clip-rule:evenodd;fill-rule:evenodd;image-rendering:optimizeQuality;shape-rendering:geometricPrecision;text-rendering:geometricPrecision"
       transform="matrix(0.31193715,0,0,0.31193715,-10.717438,-8.1105383)">
      <path
         style="opacity:1"
         fill="#f6a64d"
         d="m 134.5,109.5 c 2.501,0.989 4.001,2.655 4.5,5 -4.5,5.167 -9,10.333 -13.5,15.5 -3.5,0.5 -5,-1 -4.5,-4.5 4.711,-5.206 9.211,-10.539 13.5,-16 z"
         id="path94" />
    </g>
    <g
       id="g105"
       style="clip-rule:evenodd;fill-rule:evenodd;image-rendering:optimizeQuality;shape-rendering:geometricPrecision;text-rendering:geometricPrecision"
       transform="matrix(0.31193715,0,0,0.31193715,-10.717438,-8.1105383)">
      <path
         style="opacity:1"
         fill="#985d26"
         d="m 129.5,110.5 c -2.929,4.106 -6.096,8.106 -9.5,12 -0.543,3.368 -0.376,6.701 0.5,10 2.424,0.308 4.757,-0.026 7,-1 3.122,-3.423 6.122,-6.923 9,-10.5 0.594,-0.464 1.261,-0.631 2,-0.5 -3.12,4.292 -6.453,8.459 -10,12.5 -8.762,2.91 -12.262,-0.256 -10.5,-9.5 2.955,-5.121 6.789,-9.455 11.5,-13 z"
         id="path105" />
    </g>
    <g
       id="g106"
       style="clip-rule:evenodd;fill-rule:evenodd;image-rendering:optimizeQuality;shape-rendering:geometricPrecision;text-rendering:geometricPrecision"
       transform="matrix(0.31193715,0,0,0.31193715,-10.717438,-8.1105383)">
      <path
         style="opacity:1"
         fill="#f1e5d2"
         d="m 223.5,109.5 c 2.155,-0.128 4.155,0.372 6,1.5 2.669,3.528 5.669,6.695 9,9.5 0,0.667 0,1.333 0,2 -3.957,-1.957 -6.957,-4.957 -9,-9 -1.559,-0.947 -3.226,-1.613 -5,-2 -6.655,4.147 -13.655,7.647 -21,10.5 0.333,0.333 0.667,0.667 1,1 -3.045,2.599 -5.212,5.766 -6.5,9.5 -0.248,15.905 -0.415,31.905 -0.5,48 -1.986,-17.302 -2.653,-34.968 -2,-53 3.154,-2.437 5.487,-5.603 7,-9.5 7.328,-0.27 13.661,-2.77 19,-7.5 0.667,-0.333 1.333,-0.667 2,-1 z"
         id="path106" />
    </g>
    <g
       id="g113"
       style="clip-rule:evenodd;fill-rule:evenodd;image-rendering:optimizeQuality;shape-rendering:geometricPrecision;text-rendering:geometricPrecision"
       transform="matrix(0.31193715,0,0,0.31193715,-10.717438,-8.1105383)">
      <path
         style="opacity:1"
         fill="#ad5b0c"
         d="m 253.5,121.5 c 1.322,-0.17 2.489,0.163 3.5,1 0.498,2.982 0.665,5.982 0.5,9 -2.641,0.763 -5.308,0.93 -8,0.5 -2.063,-2.541 -3.397,-5.375 -4,-8.5 1.766,2.271 3.766,4.437 6,6.5 2.737,1.08 4.404,0.246 5,-2.5 -1.019,-2.011 -2.019,-4.011 -3,-6 z"
         id="path113" />
    </g>
    <g
       id="g114"
       style="clip-rule:evenodd;fill-rule:evenodd;image-rendering:optimizeQuality;shape-rendering:geometricPrecision;text-rendering:geometricPrecision"
       transform="matrix(0.31193715,0,0,0.31193715,-10.717438,-8.1105383)">
      <path
         style="opacity:1"
         fill="#9f6025"
         d="m 245.5,107.5 c 4.333,4.667 8.667,9.333 13,14 3.659,6.681 1.826,11.014 -5.5,13 -1.627,-0.125 -3.127,-0.625 -4.5,-1.5 -2.793,-3.105 -5.46,-6.272 -8,-9.5 1.068,-0.934 2.401,-1.268 4,-1 0.667,0 1,0.333 1,1 0.603,3.125 1.937,5.959 4,8.5 2.692,0.43 5.359,0.263 8,-0.5 0.165,-3.018 -0.002,-6.018 -0.5,-9 -1.011,-0.837 -2.178,-1.17 -3.5,-1 -1.667,-1 -3,-2.333 -4,-4 0.304,-0.65 0.637,-1.317 1,-2 -2.512,-2.17 -4.179,-4.837 -5,-8 z"
         id="path114" />
    </g>
    <g
       id="g118"
       style="clip-rule:evenodd;fill-rule:evenodd;image-rendering:optimizeQuality;shape-rendering:geometricPrecision;text-rendering:geometricPrecision"
       transform="matrix(0.31193715,0,0,0.31193715,-10.717438,-8.1105383)">
      <path
         style="opacity:1"
         fill="#f2e5d5"
         d="m 258.5,121.5 c 1.25,0.077 2.083,0.744 2.5,2 1.499,12.159 -3.334,15.992 -14.5,11.5 -3.127,-3.896 -5.793,-8.062 -8,-12.5 0.667,0.333 1.333,0.667 2,1 2.54,3.228 5.207,6.395 8,9.5 1.373,0.875 2.873,1.375 4.5,1.5 7.326,-1.986 9.159,-6.319 5.5,-13 z"
         id="path118" />
    </g>
    <g
       id="g127"
       style="clip-rule:evenodd;fill-rule:evenodd;image-rendering:optimizeQuality;shape-rendering:geometricPrecision;text-rendering:geometricPrecision"
       transform="matrix(0.31193715,0,0,0.31193715,-10.717438,-8.1105383)">
      <path
         style="opacity:1"
         fill="#cea277"
         d="m 194.5,127.5 c 0.333,0 0.667,0 1,0 -0.653,18.032 0.014,35.698 2,53 0,0.333 0,0.667 0,1 -0.667,0 -1.333,0 -2,0 -0.997,-17.826 -1.33,-35.826 -1,-54 z"
         id="path127" />
    </g>
    <g
       id="g131"
       style="clip-rule:evenodd;fill-rule:evenodd;image-rendering:optimizeQuality;shape-rendering:geometricPrecision;text-rendering:geometricPrecision"
       transform="matrix(0.31193715,0,0,0.31193715,-10.717438,-8.1105383)">
      <path
         style="opacity:1"
         fill="#a26831"
         d="m 176.5,121.5 c 2.149,1.546 4.316,3.212 6.5,5 0.794,18.365 0.627,36.698 -0.5,55 -0.333,0 -0.667,0 -1,0 0.333,-18.345 0,-36.679 -1,-55 -2.111,-1.105 -3.445,-2.771 -4,-5 z"
         id="path131" />
    </g>
    <g
       id="g152"
       style="clip-rule:evenodd;fill-rule:evenodd;image-rendering:optimizeQuality;shape-rendering:geometricPrecision;text-rendering:geometricPrecision"
       transform="matrix(0.31193715,0,0,0.31193715,-10.717438,-8.1105383)">
      <path
         style="opacity:1"
         fill="#9d642a"
         d="m 181.5,181.5 c -0.709,0.904 -1.709,1.237 -3,1 0.175,2.829 -1.158,4.496 -4,5 0.743,0.682 1.409,1.349 2,2 0.313,3.542 -0.021,6.875 -1,10 0,-3.333 0,-6.667 0,-10 -2.198,0.38 -3.865,-0.287 -5,-2 0.166,-6.675 0,-13.342 -0.5,-20 -0.717,0.544 -1.217,1.211 -1.5,2 -0.789,0.283 -1.456,0.783 -2,1.5 -6,0.667 -12,0.667 -18,0 -2.173,-2.698 -2.506,-5.531 -1,-8.5 0.077,-1.25 0.744,-2.083 2,-2.5 6.444,-0.915 12.777,-0.581 19,1 1.169,1.836 2.836,3.002 5,3.5 0.667,7 1.333,14 2,21 0.659,-3.324 2.659,-4.657 6,-4 z"
         id="path152" />
    </g>
    <g
       id="g153"
       style="clip-rule:evenodd;fill-rule:evenodd;image-rendering:optimizeQuality;shape-rendering:geometricPrecision;text-rendering:geometricPrecision"
       transform="matrix(0.31193715,0,0,0.31193715,-10.717438,-8.1105383)">
      <path
         style="opacity:1"
         fill="#b15b05"
         d="m 147.5,162.5 c 5.824,-1.964 11.824,-2.464 18,-1.5 3.957,2.944 3.957,5.944 0,9 -5.333,0.667 -10.667,0.667 -16,0 -1.778,-2.135 -2.445,-4.635 -2,-7.5 z"
         id="path153" />
    </g>
    <g
       id="g154"
       style="clip-rule:evenodd;fill-rule:evenodd;image-rendering:optimizeQuality;shape-rendering:geometricPrecision;text-rendering:geometricPrecision"
       transform="matrix(0.31193715,0,0,0.31193715,-10.717438,-8.1105383)">
      <path
         style="opacity:1"
         fill="#dcb389"
         d="m 170.5,187.5 c -0.333,0 -0.667,0 -1,0 0.323,-6.19 -0.01,-12.19 -1,-18 0.283,-0.789 0.783,-1.456 1.5,-2 0.5,6.658 0.666,13.325 0.5,20 z"
         id="path154" />
    </g>
    <g
       id="g170"
       style="clip-rule:evenodd;fill-rule:evenodd;image-rendering:optimizeQuality;shape-rendering:geometricPrecision;text-rendering:geometricPrecision"
       transform="matrix(0.31193715,0,0,0.31193715,-10.717438,-8.1105383)">
      <path
         style="opacity:1"
         fill="#c89a6f"
         d="m 206.5,186.5 c 0.667,6 1.333,12 2,18 -0.342,0.838 -1.008,1.172 -2,1 0,-6.333 0,-12.667 0,-19 z"
         id="path170" />
    </g>
    <g
       id="g173"
       style="clip-rule:evenodd;fill-rule:evenodd;image-rendering:optimizeQuality;shape-rendering:geometricPrecision;text-rendering:geometricPrecision"
       transform="matrix(0.31193715,0,0,0.31193715,-10.717438,-8.1105383)">
      <path
         style="opacity:1"
         fill="#efdcc7"
         d="m 197.5,181.5 c 0,-0.333 0,-0.667 0,-1 3.745,0.272 7.079,1.605 10,4 0.789,5.615 1.289,11.282 1.5,17 7,-0.667 14,-1.333 21,-2 7.557,12.558 4.057,18.224 -10.5,17 -3.186,-0.002 -6.186,-0.335 -9,-1 0,-0.333 0,-0.667 0,-1 6.009,0.166 12.009,-0.001 18,-0.5 4.403,-9.617 1.236,-13.45 -9.5,-11.5 -3.167,0.167 -6.333,0.333 -9.5,0.5 -0.556,0.383 -0.889,0.883 -1,1.5 -0.667,-6 -1.333,-12 -2,-18 -1.869,-0.665 -3.869,-1.331 -6,-2 -0.688,-1.355 -1.688,-2.355 -3,-3 z"
         id="path173" />
    </g>
    <g
       id="g177"
       style="clip-rule:evenodd;fill-rule:evenodd;image-rendering:optimizeQuality;shape-rendering:geometricPrecision;text-rendering:geometricPrecision"
       transform="matrix(0.31193715,0,0,0.31193715,-10.717438,-8.1105383)">
      <path
         style="opacity:1"
         fill="#9c5f24"
         d="m 195.5,181.5 c 0.667,0 1.333,0 2,0 1.312,0.645 2.312,1.645 3,3 2.131,0.669 4.131,1.335 6,2 0,6.333 0,12.667 0,19 -1.395,-1.554 -2.061,-1.221 -2,1 0.287,1.943 1.287,3.277 3,4 -1.333,0 -2.667,0 -4,0 0.33,-7.032 -0.003,-14.032 -1,-21 -0.333,3.667 -0.667,7.333 -1,11 0.511,8.662 0.844,17.329 1,26 -0.79,-1.109 -1.29,-2.442 -1.5,-4 -0.333,-12 -0.667,-24 -1,-36 -1.113,-0.805 -2.279,-1.472 -3.5,-2 -0.61,-0.891 -0.943,-1.891 -1,-3 z"
         id="path177" />
    </g>
    <g
       id="g179"
       style="clip-rule:evenodd;fill-rule:evenodd;image-rendering:optimizeQuality;shape-rendering:geometricPrecision;text-rendering:geometricPrecision"
       transform="matrix(0.31193715,0,0,0.31193715,-10.717438,-8.1105383)">
      <path
         style="opacity:1"
         fill="#b15b07"
         d="m 208.5,212.5 c -0.333,-0.667 -0.667,-1.333 -1,-2 -1.713,-0.723 -2.713,-2.057 -3,-4 -0.061,-2.221 0.605,-2.554 2,-1 0.992,0.172 1.658,-0.162 2,-1 6.283,-1.084 12.616,-1.251 19,-0.5 3.027,3.866 2.361,6.866 -2,9 -5.718,0.74 -11.385,0.573 -17,-0.5 z"
         id="path179" />
    </g>
    <g
       id="g180"
       style="clip-rule:evenodd;fill-rule:evenodd;image-rendering:optimizeQuality;shape-rendering:geometricPrecision;text-rendering:geometricPrecision"
       transform="matrix(0.31193715,0,0,0.31193715,-10.717438,-8.1105383)">
      <path
         style="opacity:1"
         fill="#965c27"
         d="m 210.5,214.5 c -0.667,-0.333 -1.333,-0.667 -2,-1 0,-0.333 0,-0.667 0,-1 5.615,1.073 11.282,1.24 17,0.5 4.361,-2.134 5.027,-5.134 2,-9 -6.384,-0.751 -12.717,-0.584 -19,0.5 0.111,-0.617 0.444,-1.117 1,-1.5 3.167,-0.167 6.333,-0.333 9.5,-0.5 10.736,-1.95 13.903,1.883 9.5,11.5 -5.991,0.499 -11.991,0.666 -18,0.5 z"
         id="path180" />
    </g>
    <g
       id="g186"
       style="clip-rule:evenodd;fill-rule:evenodd;image-rendering:optimizeQuality;shape-rendering:geometricPrecision;text-rendering:geometricPrecision"
       transform="matrix(0.31193715,0,0,0.31193715,-10.717438,-8.1105383)">
      <path
         style="opacity:1"
         fill="#eccba0"
         d="m 207.5,210.5 c 0.333,0.667 0.667,1.333 1,2 0,0.333 0,0.667 0,1 -1.617,-0.538 -3.284,-0.871 -5,-1 0,5.667 0,11.333 0,17 -0.333,0 -0.667,0 -1,0 0,-1 0,-2 0,-3 -0.156,-8.671 -0.489,-17.338 -1,-26 0.333,-3.667 0.667,-7.333 1,-11 0.997,6.968 1.33,13.968 1,21 1.333,0 2.667,0 4,0 z"
         id="path186" />
    </g>
    <g
       id="g187"
       style="clip-rule:evenodd;fill-rule:evenodd;image-rendering:optimizeQuality;shape-rendering:geometricPrecision;text-rendering:geometricPrecision"
       transform="matrix(0.31193715,0,0,0.31193715,-10.717438,-8.1105383)">
      <path
         style="opacity:1"
         fill="#a06124"
         d="m 176.5,189.5 c 1.452,13.581 0.952,27.248 -1.5,41 -0.383,0.556 -0.883,0.889 -1.5,1 0.832,-10.655 1.498,-21.322 2,-32 0.979,-3.125 1.313,-6.458 1,-10 z"
         id="path187" />
    </g>
    <g
       id="g188"
       style="clip-rule:evenodd;fill-rule:evenodd;image-rendering:optimizeQuality;shape-rendering:geometricPrecision;text-rendering:geometricPrecision"
       transform="matrix(0.31193715,0,0,0.31193715,-10.717438,-8.1105383)">
      <path
         style="opacity:1"
         fill="#b1600f"
         d="m 238.5,106.5 c 2.361,0.174 4.694,0.507 7,1 0.821,3.163 2.488,5.83 5,8 -0.363,0.683 -0.696,1.35 -1,2 -2.647,-2.311 -5.314,-4.644 -8,-7 -1.481,0.98 -2.815,2.147 -4,3.5 2.168,2.998 4.501,5.831 7,8.5 -1.599,-0.268 -2.932,0.066 -4,1 -0.667,-0.333 -1.333,-0.667 -2,-1 0,-0.667 0,-1.333 0,-2 -2.043,-4.249 -4.71,-8.082 -8,-11.5 -2.539,-0.796 -4.872,-0.629 -7,0.5 -0.667,0.333 -1.333,0.667 -2,1 -7.102,3.277 -14.436,5.943 -22,8 -1.465,-1.109 -2.465,-0.609 -3,1.5 1.473,0.71 2.14,1.876 2,3.5 -1.333,0 -2.667,0 -4,0 0,1.333 0,2.667 0,4 -0.33,18.174 0.003,36.174 1,54 0.057,1.109 0.39,2.109 1,3 1.221,0.528 2.387,1.195 3.5,2 0.333,12 0.667,24 1,36 0.21,1.558 0.71,2.891 1.5,4 0,1 0,2 0,3 -0.054,3.467 1.446,6.134 4.5,8 0.64,1.765 0.473,3.432 -0.5,5 -2.97,-3.82 -5.804,-7.82 -8.5,-12 -2.212,-6.613 -4.212,-13.28 -6,-20 -4.131,-3.043 -7.131,-2.043 -9,3 -0.414,9.589 -3.747,17.922 -10,25 -4.457,6.822 -2.957,11.655 4.5,14.5 7,0.667 14,0.667 21,0 6.156,-0.317 8.823,-3.484 8,-9.5 1.723,8.789 -2.11,13.456 -11.5,14 -0.169,14.173 -0.669,28.173 -1.5,42 -0.194,-12.605 -0.527,-25.272 -1,-38 -0.014,-2.093 0.652,-3.926 2,-5.5 -4.52,-0.814 -8.854,-0.647 -13,0.5 -2.779,0.221 -5.446,-0.112 -8,-1 -0.992,0.172 -1.658,-0.162 -2,-1 -3.129,-4.064 -4.462,-8.731 -4,-14 1.19,-3.526 3.19,-6.526 6,-9 0.617,-0.111 1.117,-0.444 1.5,-1 2.452,-13.752 2.952,-27.419 1.5,-41 -0.591,-0.651 -1.257,-1.318 -2,-2 2.842,-0.504 4.175,-2.171 4,-5 1.291,0.237 2.291,-0.096 3,-1 0.333,0 0.667,0 1,0 0.897,-1.098 1.73,-1.098 2.5,0 0.667,-21.333 0.667,-42.667 0,-64 -1.507,1.005 -2.673,2.338 -3.5,4 -0.833,-1 -1.667,-2 -2.5,-3 -1.364,0.758 -2.531,0.258 -3.5,-1.5 -7.048,-0.109 -13.048,-2.609 -18,-7.5 0.124,-0.607 0.457,-0.94 1,-1 2.668,2.001 5.668,3.501 9,4.5 13.333,0.667 26.667,0.667 40,0 5.214,-1.274 9.881,-3.607 14,-7 5.672,-1.545 10.339,-0.045 14,4.5 1.788,-0.783 2.788,-2.116 3,-4 z"
         id="path188" />
    </g>
    <g
       id="g189"
       style="clip-rule:evenodd;fill-rule:evenodd;image-rendering:optimizeQuality;shape-rendering:geometricPrecision;text-rendering:geometricPrecision"
       transform="matrix(0.31193715,0,0,0.31193715,-10.717438,-8.1105383)">
      <path
         style="opacity:1"
         fill="#f1a64f"
         d="m 196.5,184.5 c 0.394,10.363 0.894,20.696 1.5,31 -2.963,-5.957 -4.129,-12.29 -3.5,-19 0.009,-4.393 0.676,-8.393 2,-12 z"
         id="path189" />
    </g>
    <g
       id="g190"
       style="clip-rule:evenodd;fill-rule:evenodd;image-rendering:optimizeQuality;shape-rendering:geometricPrecision;text-rendering:geometricPrecision"
       transform="matrix(0.31193715,0,0,0.31193715,-10.717438,-8.1105383)">
      <path
         style="opacity:1"
         fill="#e99945"
         d="m 180.5,184.5 c 2.938,10.25 2.438,20.583 -1.5,31 0.04,-10.349 0.54,-20.683 1.5,-31 z"
         id="path190" />
    </g>
    <g
       id="g191"
       style="clip-rule:evenodd;fill-rule:evenodd;image-rendering:optimizeQuality;shape-rendering:geometricPrecision;text-rendering:geometricPrecision"
       transform="matrix(0.31193715,0,0,0.31193715,-10.717438,-8.1105383)">
      <path
         style="opacity:1"
         fill="#f6ab52"
         d="m 186.5,117.5 c 1.333,0 2.667,0 4,0 0,29.333 0,58.667 0,88 -1.333,0 -2.667,0 -4,0 0,-29.333 0,-58.667 0,-88 z"
         id="path191" />
    </g>
    <g
       id="g192"
       style="clip-rule:evenodd;fill-rule:evenodd;image-rendering:optimizeQuality;shape-rendering:geometricPrecision;text-rendering:geometricPrecision"
       transform="matrix(0.31193715,0,0,0.31193715,-10.717438,-8.1105383)">
      <path
         style="opacity:1"
         fill="#9b5e23"
         d="m 223.5,109.5 c 2.128,-1.129 4.461,-1.296 7,-0.5 3.29,3.418 5.957,7.251 8,11.5 -3.331,-2.805 -6.331,-5.972 -9,-9.5 -1.845,-1.128 -3.845,-1.628 -6,-1.5 z"
         id="path192" />
    </g>
    <g
       id="g195"
       style="clip-rule:evenodd;fill-rule:evenodd;image-rendering:optimizeQuality;shape-rendering:geometricPrecision;text-rendering:geometricPrecision"
       transform="matrix(0.31193715,0,0,0.31193715,-10.717438,-8.1105383)">
      <path
         style="opacity:1"
         fill="#f3e3cf"
         d="m 208.5,213.5 c 0.667,0.333 1.333,0.667 2,1 0,0.333 0,0.667 0,1 -2,0 -4,0 -6,0 -0.166,4.346 0.001,8.679 0.5,13 0.844,3.178 2.511,5.845 5,8 0.49,1.293 0.657,2.627 0.5,4 -2.721,-3.394 -5.054,-7.061 -7,-11 0,-5.667 0,-11.333 0,-17 1.716,0.129 3.383,0.462 5,1 z"
         id="path195" />
    </g>
    <g
       id="g201"
       style="clip-rule:evenodd;fill-rule:evenodd;image-rendering:optimizeQuality;shape-rendering:geometricPrecision;text-rendering:geometricPrecision"
       transform="matrix(0.31193715,0,0,0.31193715,-10.717438,-8.1105383)">
      <path
         style="opacity:1"
         fill="#f4af5a"
         d="m 206.5,242.5 c 0,0.333 0,0.667 0,1 0.823,6.016 -1.844,9.183 -8,9.5 -7,0.667 -14,0.667 -21,0 -7.457,-2.845 -8.957,-7.678 -4.5,-14.5 6.253,-7.078 9.586,-15.411 10,-25 1.869,-5.043 4.869,-6.043 9,-3 1.788,6.72 3.788,13.387 6,20 2.696,4.18 5.53,8.18 8.5,12 z"
         id="path201" />
    </g>
    <g
       id="g215"
       style="clip-rule:evenodd;fill-rule:evenodd;image-rendering:optimizeQuality;shape-rendering:geometricPrecision;text-rendering:geometricPrecision"
       transform="matrix(0.31193715,0,0,0.31193715,-10.717438,-8.1105383)">
      <path
         style="opacity:1"
         fill="#98612a"
         d="m 167.5,240.5 c -0.462,5.269 0.871,9.936 4,14 -4.851,-3.688 -6.184,-8.355 -4,-14 z"
         id="path215" />
    </g>
    <g
       id="g238"
       style="clip-rule:evenodd;fill-rule:evenodd;image-rendering:optimizeQuality;shape-rendering:geometricPrecision;text-rendering:geometricPrecision"
       transform="matrix(0.31193715,0,0,0.31193715,-10.717438,-8.1105383)">
      <path
         style="opacity:1"
         fill="#f3e1cb"
         d="m 169.5,187.5 c 0.333,0 0.667,0 1,0 1.135,1.713 2.802,2.38 5,2 0,3.333 0,6.667 0,10 -0.502,10.678 -1.168,21.345 -2,32 -2.81,2.474 -4.81,5.474 -6,9 -2.184,5.645 -0.851,10.312 4,14 0.342,0.838 1.008,1.172 2,1 -0.164,2.687 0.003,5.354 0.5,8 1.011,0.837 2.178,1.17 3.5,1 0,-2.333 0,-4.667 0,-7 1,0 2,0 3,0 -0.167,14.337 0,28.671 0.5,43 2.435,4.724 6.269,6.224 11.5,4.5 1.549,-1.214 2.715,-2.714 3.5,-4.5 0.5,-14.329 0.667,-28.663 0.5,-43 1,0 2,0 3,0 -0.162,2.027 0.005,4.027 0.5,6 1,1.333 2,1.333 3,0 0.333,-2.333 0.667,-4.667 1,-7 5.888,-3.279 8.054,-8.279 6.5,-15 1.287,1.371 1.953,3.205 2,5.5 -0.167,1.833 -0.333,3.667 -0.5,5.5 -3.06,3.453 -5.06,7.453 -6,12 -1.509,2.419 -3.675,3.419 -6.5,3 -0.409,12.058 -1.409,24.058 -3,36 -0.318,1.147 -0.984,1.981 -2,2.5 -4.041,0.827 -8.041,0.66 -12,-0.5 -1.697,-0.864 -2.863,-2.197 -3.5,-4 -0.5,-11.995 -0.667,-23.995 -0.5,-36 -5.208,0.627 -7.708,-1.706 -7.5,-7 -8.658,-9.045 -8.658,-18.045 0,-27 0.333,-1.333 0.667,-2.667 1,-4 0.333,-10.667 0.667,-21.333 1,-32 0.374,-0.916 0.874,-1.75 1.5,-2.5 -2.579,-1.076 -4.246,-2.909 -5,-5.5 z"
         id="path238" />
    </g>
    <g
       id="g239"
       style="clip-rule:evenodd;fill-rule:evenodd;image-rendering:optimizeQuality;shape-rendering:geometricPrecision;text-rendering:geometricPrecision"
       transform="matrix(0.31193715,0,0,0.31193715,-10.717438,-8.1105383)">
      <path
         style="opacity:1"
         fill="#9d5b24"
         d="m 173.5,255.5 c 2.554,0.888 5.221,1.221 8,1 0,0.333 0,0.667 0,1 -0.333,0 -0.667,0 -1,0 -1,0 -2,0 -3,0 0,2.333 0,4.667 0,7 -1.322,0.17 -2.489,-0.163 -3.5,-1 -0.497,-2.646 -0.664,-5.313 -0.5,-8 z"
         id="path239" />
    </g>
    <g
       id="g245"
       style="clip-rule:evenodd;fill-rule:evenodd;image-rendering:optimizeQuality;shape-rendering:geometricPrecision;text-rendering:geometricPrecision"
       transform="matrix(0.31193715,0,0,0.31193715,-10.717438,-8.1105383)">
      <path
         style="opacity:1"
         fill="#b55b01"
         d="m 193.5,299.5 c -0.074,1.911 -1.074,3.078 -3,3.5 -2.847,0.944 -5.347,0.444 -7.5,-1.5 -0.183,-14.741 -0.683,-29.408 -1.5,-44 0,-0.333 0,-0.667 0,-1 4.146,-1.147 8.48,-1.314 13,-0.5 -1.348,1.574 -2.014,3.407 -2,5.5 0.473,12.728 0.806,25.395 1,38 z"
         id="path245" />
    </g>
    <g
       id="g249"
       style="clip-rule:evenodd;fill-rule:evenodd;image-rendering:optimizeQuality;shape-rendering:geometricPrecision;text-rendering:geometricPrecision"
       transform="matrix(0.31193715,0,0,0.31193715,-10.717438,-8.1105383)">
      <path
         style="opacity:1"
         fill="#a06329"
         d="m 202.5,229.5 c 0.333,0 0.667,0 1,0 1.946,3.939 4.279,7.606 7,11 0,0.333 0,0.667 0,1 1.554,6.721 -0.612,11.721 -6.5,15 -0.333,2.333 -0.667,4.667 -1,7 -1,1.333 -2,1.333 -3,0 -0.495,-1.973 -0.662,-3.973 -0.5,-6 -1,0 -2,0 -3,0 0.167,14.337 0,28.671 -0.5,43 -0.785,1.786 -1.951,3.286 -3.5,4.5 -5.231,1.724 -9.065,0.224 -11.5,-4.5 -0.5,-14.329 -0.667,-28.663 -0.5,-43 0.333,0 0.667,0 1,0 0.817,14.592 1.317,29.259 1.5,44 2.153,1.944 4.653,2.444 7.5,1.5 1.926,-0.422 2.926,-1.589 3,-3.5 0.831,-13.827 1.331,-27.827 1.5,-42 9.39,-0.544 13.223,-5.211 11.5,-14 0,-0.333 0,-0.667 0,-1 0.973,-1.568 1.14,-3.235 0.5,-5 -3.054,-1.866 -4.554,-4.533 -4.5,-8 z"
         id="path249" />
    </g>
  </g>
</svg>
