<?xml version="1.0" encoding="UTF-8" standalone="no"?>
<!-- Created with Inkscape (http://www.inkscape.org/) -->

<svg
   width="96mm"
   height="96mm"
   viewBox="0 0 96 96"
   version="1.1"
   id="svg1"
   inkscape:version="1.4.2 (ebf0e940, 2025-05-08)"
   sodipodi:docname="van.svg"
   xmlns:inkscape="http://www.inkscape.org/namespaces/inkscape"
   xmlns:sodipodi="http://sodipodi.sourceforge.net/DTD/sodipodi-0.dtd"
   xmlns="http://www.w3.org/2000/svg"
   xmlns:svg="http://www.w3.org/2000/svg">
  <sodipodi:namedview
     id="namedview1"
     pagecolor="#ffffff"
     bordercolor="#000000"
     borderopacity="0.25"
     inkscape:showpageshadow="2"
     inkscape:pageopacity="0.0"
     inkscape:pagecheckerboard="0"
     inkscape:deskcolor="#d1d1d1"
     inkscape:document-units="mm"
     inkscape:zoom="0.80444024"
     inkscape:cx="397.17059"
     inkscape:cy="163.46771"
     inkscape:window-width="1920"
     inkscape:window-height="1052"
     inkscape:window-x="0"
     inkscape:window-y="28"
     inkscape:window-maximized="0"
     inkscape:current-layer="layer1" />
  <defs
     id="defs1" />
  <g
     inkscape:label="Layer 1"
     inkscape:groupmode="layer"
     id="layer1">
    <g
       id="g343"
       style="clip-rule:evenodd;fill-rule:evenodd;image-rendering:optimizeQuality;shape-rendering:geometricPrecision;text-rendering:geometricPrecision"
       transform="matrix(0.29128397,0,0,0.29128397,-105.947,-113.31004)">
      <path
         style="opacity:1"
         fill="#f6e4ce"
         d="m 549.5,422.5 c -6.157,-0.412 -12.324,-0.746 -18.5,-1 -6.067,-0.11 -11.9,0.557 -17.5,2 -8.565,0.431 -16.232,3.098 -23,8 -1.911,0.575 -3.578,1.575 -5,3 0,-1.333 0,-2.667 0,-4 10.014,-4.394 20.347,-7.894 31,-10.5 10.333,-0.667 20.667,-0.667 31,0 1.256,0.417 1.923,1.25 2,2.5 z"
         id="path343" />
    </g>
    <g
       id="g345"
       style="clip-rule:evenodd;fill-rule:evenodd;image-rendering:optimizeQuality;shape-rendering:geometricPrecision;text-rendering:geometricPrecision"
       transform="matrix(0.29128397,0,0,0.29128397,-105.947,-113.31004)">
      <path
         style="opacity:1"
         fill="#9f632b"
         d="m 549.5,422.5 c 0.667,0 1.333,0 2,0 6.627,1.761 13.293,3.761 20,6 0,0.333 0,0.667 0,1 -7.48,-2.547 -15.146,-4.381 -23,-5.5 -11.662,-0.5 -23.329,-0.667 -35,-0.5 5.6,-1.443 11.433,-2.11 17.5,-2 6.176,0.254 12.343,0.588 18.5,1 z"
         id="path345" />
    </g>
    <g
       id="g346"
       style="clip-rule:evenodd;fill-rule:evenodd;image-rendering:optimizeQuality;shape-rendering:geometricPrecision;text-rendering:geometricPrecision"
       transform="matrix(0.29128397,0,0,0.29128397,-105.947,-113.31004)">
      <path
         style="opacity:1"
         fill="#f3dec6"
         d="m 551.5,422.5 c 4.732,-0.122 9.398,0.378 14,1.5 2.677,0.814 4.677,2.314 6,4.5 -6.707,-2.239 -13.373,-4.239 -20,-6 z"
         id="path346" />
    </g>
    <g
       id="g349"
       style="clip-rule:evenodd;fill-rule:evenodd;image-rendering:optimizeQuality;shape-rendering:geometricPrecision;text-rendering:geometricPrecision"
       transform="matrix(0.29128397,0,0,0.29128397,-105.947,-113.31004)">
      <path
         style="opacity:1"
         fill="#ac5f15"
         d="m 513.5,423.5 c 11.671,-0.167 23.338,0 35,0.5 7.854,1.119 15.52,2.953 23,5.5 2.698,0.345 4.698,1.678 6,4 5.389,6.696 7.222,14.362 5.5,23 -0.186,-2.536 -0.686,-4.869 -1.5,-7 -3.592,-0.198 -6.926,-1.198 -10,-3 -1.105,-1.1 -2.438,-1.767 -4,-2 -2.362,-2.692 -4.696,-5.359 -7,-8 -0.727,-2.454 -1.727,-4.787 -3,-7 -1.068,-0.934 -2.401,-1.268 -4,-1 -7.238,-1.9 -14.738,-2.9 -22.5,-3 -6.48,-0.114 -12.647,0.886 -18.5,3 -1.599,-0.268 -2.932,0.066 -4,1 -3.198,7.201 -8.198,12.868 -15,17 -2.355,1.159 -4.688,2.159 -7,3 -0.992,-0.172 -1.658,0.162 -2,1 -1.225,-0.652 -1.892,-1.819 -2,-3.5 1.749,-5.665 4.415,-10.831 8,-15.5 6.768,-4.902 14.435,-7.569 23,-8 z"
         id="path349" />
    </g>
    <g
       id="g351"
       style="clip-rule:evenodd;fill-rule:evenodd;image-rendering:optimizeQuality;shape-rendering:geometricPrecision;text-rendering:geometricPrecision"
       transform="matrix(0.29128397,0,0,0.29128397,-105.947,-113.31004)">
      <path
         style="opacity:1"
         fill="#eea551"
         d="m 553.5,428.5 c -0.111,0.617 -0.444,1.117 -1,1.5 -13.493,0.022 -26.826,-0.478 -40,-1.5 5.853,-2.114 12.02,-3.114 18.5,-3 7.762,0.1 15.262,1.1 22.5,3 z"
         id="path351" />
    </g>
    <g
       id="g354"
       style="clip-rule:evenodd;fill-rule:evenodd;image-rendering:optimizeQuality;shape-rendering:geometricPrecision;text-rendering:geometricPrecision"
       transform="matrix(0.29128397,0,0,0.29128397,-105.947,-113.31004)">
      <path
         style="opacity:1"
         fill="#e1b882"
         d="m 508.5,429.5 c 1.068,-0.934 2.401,-1.268 4,-1 13.174,1.022 26.507,1.522 40,1.5 0.556,-0.383 0.889,-0.883 1,-1.5 1.599,-0.268 2.932,0.066 4,1 -1.548,0.321 -2.215,1.321 -2,3 -15.02,-2.517 -30.02,-2.517 -45,0 0.215,-1.679 -0.452,-2.679 -2,-3 z"
         id="path354" />
    </g>
    <g
       id="g359"
       style="clip-rule:evenodd;fill-rule:evenodd;image-rendering:optimizeQuality;shape-rendering:geometricPrecision;text-rendering:geometricPrecision"
       transform="matrix(0.29128397,0,0,0.29128397,-105.947,-113.31004)">
      <path
         style="opacity:1"
         fill="#e8e7e5"
         d="m 560.5,436.5 c 2.304,2.641 4.638,5.308 7,8 0.25,1.422 1.083,2.422 2.5,3 0.49,1.293 0.657,2.627 0.5,4 0,1.333 0,2.667 0,4 -9.28,-1.603 -18.613,-2.437 -28,-2.5 -0.935,2.381 -1.268,4.881 -1,7.5 -6.333,0 -12.667,0 -19,0 0,-2.667 0,-5.333 0,-8 -5.044,-0.327 -10.044,0.006 -15,1 -2.245,0.708 -4.245,1.708 -6,3 0,0.333 0,0.667 0,1 -1.527,-0.073 -2.527,0.594 -3,2 -1.307,1.723 -1.307,3.557 0,5.5 -1.365,1.682 -2.865,1.849 -4.5,0.5 -3.057,-11.581 0.61,-19.915 11,-25 0.557,-2.115 1.391,-4.115 2.5,-6 16.615,-3.787 33.281,-3.954 50,-0.5 0.578,1.417 1.578,2.25 3,2.5 z"
         id="path359" />
    </g>
    <g
       id="g360"
       style="clip-rule:evenodd;fill-rule:evenodd;image-rendering:optimizeQuality;shape-rendering:geometricPrecision;text-rendering:geometricPrecision"
       transform="matrix(0.29128397,0,0,0.29128397,-105.947,-113.31004)">
      <path
         style="opacity:1"
         fill="#f6e4c8"
         d="m 508.5,429.5 c 1.548,0.321 2.215,1.321 2,3 14.98,-2.517 29.98,-2.517 45,0 -0.215,-1.679 0.452,-2.679 2,-3 1.273,2.213 2.273,4.546 3,7 -1.422,-0.25 -2.422,-1.083 -3,-2.5 -16.719,-3.454 -33.385,-3.287 -50,0.5 -1.109,1.885 -1.943,3.885 -2.5,6 -10.39,5.085 -14.057,13.419 -11,25 1.635,1.349 3.135,1.182 4.5,-0.5 -1.307,-1.943 -1.307,-3.777 0,-5.5 0,1.333 0,2.667 0,4 2.286,-0.095 4.286,-0.762 6,-2 5.661,-1.219 11.328,-2.219 17,-3 0,1 0,2 0,3 5.858,-0.322 11.525,0.011 17,1 -15.809,-0.503 -31.142,1.83 -46,7 -1.319,-7.595 -0.986,-15.262 1,-23 6.802,-4.132 11.802,-9.799 15,-17 z"
         id="path360" />
    </g>
    <g
       id="g361"
       style="clip-rule:evenodd;fill-rule:evenodd;image-rendering:optimizeQuality;shape-rendering:geometricPrecision;text-rendering:geometricPrecision"
       transform="matrix(0.29128397,0,0,0.29128397,-105.947,-113.31004)">
      <path
         style="opacity:1"
         fill="#f6a449"
         d="m 560.5,430.5 c 0.751,-1.073 1.751,-1.24 3,-0.5 4.21,1.623 8.21,3.623 12,6 2.615,3.062 4.281,6.562 5,10.5 -9.364,-2.037 -16.03,-7.37 -20,-16 z"
         id="path361" />
    </g>
    <g
       id="g364"
       style="clip-rule:evenodd;fill-rule:evenodd;image-rendering:optimizeQuality;shape-rendering:geometricPrecision;text-rendering:geometricPrecision"
       transform="matrix(0.29128397,0,0,0.29128397,-105.947,-113.31004)">
      <path
         style="opacity:1"
         fill="#f6a74b"
         d="m 501.5,429.5 c 1.052,-0.149 2.052,0.017 3,0.5 -3.595,8.094 -9.595,13.594 -18,16.5 -0.333,-0.5 -0.667,-1 -1,-1.5 1.03,-2.56 2.197,-5.06 3.5,-7.5 3.712,-3.499 7.879,-6.165 12.5,-8 z"
         id="path364" />
    </g>
    <g
       id="g374"
       style="clip-rule:evenodd;fill-rule:evenodd;image-rendering:optimizeQuality;shape-rendering:geometricPrecision;text-rendering:geometricPrecision"
       transform="matrix(0.29128397,0,0,0.29128397,-105.947,-113.31004)">
      <path
         style="opacity:1"
         fill="#a46c37"
         d="m 490.5,431.5 c -3.585,4.669 -6.251,9.835 -8,15.5 0.108,1.681 0.775,2.848 2,3.5 0.302,2.559 -0.032,4.893 -1,7 0.146,-2.442 -0.687,-3.109 -2.5,-2 -0.224,7.549 -1.057,14.883 -2.5,22 -0.219,-12.14 0.947,-24.14 3.5,-36 1.193,-2.386 2.36,-4.72 3.5,-7 1.422,-1.425 3.089,-2.425 5,-3 z"
         id="path374" />
    </g>
    <g
       id="g379"
       style="clip-rule:evenodd;fill-rule:evenodd;image-rendering:optimizeQuality;shape-rendering:geometricPrecision;text-rendering:geometricPrecision"
       transform="matrix(0.29128397,0,0,0.29128397,-105.947,-113.31004)">
      <path
         style="opacity:1"
         fill="#f2e5d7"
         d="m 570.5,451.5 c 0.768,0.763 1.268,1.763 1.5,3 0.499,4.321 0.666,8.654 0.5,13 -2.925,0.04 -5.591,-0.793 -8,-2.5 0.556,-0.383 0.889,-0.883 1,-1.5 2.097,-1.379 2.43,-3.045 1,-5 -3.779,-1.814 -7.779,-2.814 -12,-3 -3.054,-1.674 -6.388,-2.174 -10,-1.5 -1.48,2.235 -1.147,4.068 1,5.5 1.629,1.696 1.296,2.696 -1,3 -2,0 -4,0 -6,0 -5.475,-0.989 -11.142,-1.322 -17,-1 0,-1 0,-2 0,-3 0.49,-2.448 -0.343,-4.115 -2.5,-5 -5.87,0.879 -11.704,1.879 -17.5,3 1.755,-1.292 3.755,-2.292 6,-3 4.956,-0.994 9.956,-1.327 15,-1 0,2.667 0,5.333 0,8 6.333,0 12.667,0 19,0 -0.268,-2.619 0.065,-5.119 1,-7.5 9.387,0.063 18.72,0.897 28,2.5 0,-1.333 0,-2.667 0,-4 z"
         id="path379" />
    </g>
    <g
       id="g382"
       style="clip-rule:evenodd;fill-rule:evenodd;image-rendering:optimizeQuality;shape-rendering:geometricPrecision;text-rendering:geometricPrecision"
       transform="matrix(0.29128397,0,0,0.29128397,-105.947,-113.31004)">
      <path
         style="opacity:1"
         fill="#dab588"
         d="m 493.5,446.5 c -1.986,7.738 -2.319,15.405 -1,23 -1.295,0.988 -2.628,1.988 -4,3 0.486,-7.658 0.82,-15.325 1,-23 -1,0 -2,0 -3,0 2.312,-0.841 4.645,-1.841 7,-3 z"
         id="path382" />
    </g>
    <g
       id="g383"
       style="clip-rule:evenodd;fill-rule:evenodd;image-rendering:optimizeQuality;shape-rendering:geometricPrecision;text-rendering:geometricPrecision"
       transform="matrix(0.29128397,0,0,0.29128397,-105.947,-113.31004)">
      <path
         style="opacity:1"
         fill="#a66326"
         d="m 483.5,457.5 c -0.166,7.008 0,14.008 0.5,21 2.276,4.774 3.776,9.774 4.5,15 -1.271,-1.609 -2.271,-3.442 -3,-5.5 -2.31,-0.497 -4.643,-0.663 -7,-0.5 -0.641,0.982 -1.307,1.982 -2,3 1.102,0.676 2.102,1.342 3,2 -0.333,0 -0.667,0 -1,0 -2.053,-0.098 -3.72,0.569 -5,2 -6,1.333 -8.333,-1 -7,-7 0.61,-0.891 0.943,-1.891 1,-3 3.229,-3.109 6.895,-5.442 11,-7 1.443,-7.117 2.276,-14.451 2.5,-22 1.813,-1.109 2.646,-0.442 2.5,2 z"
         id="path383" />
    </g>
    <g
       id="g384"
       style="clip-rule:evenodd;fill-rule:evenodd;image-rendering:optimizeQuality;shape-rendering:geometricPrecision;text-rendering:geometricPrecision"
       transform="matrix(0.29128397,0,0,0.29128397,-105.947,-113.31004)">
      <path
         style="opacity:1"
         fill="#9e622d"
         d="m 554.5,455.5 c -2.027,-0.162 -4.027,0.005 -6,0.5 -0.671,0.986 -0.671,2.153 0,3.5 -1,0 -2,0 -3,0 -2.147,-1.432 -2.48,-3.265 -1,-5.5 3.612,-0.674 6.946,-0.174 10,1.5 z"
         id="path384" />
    </g>
    <g
       id="g385"
       style="clip-rule:evenodd;fill-rule:evenodd;image-rendering:optimizeQuality;shape-rendering:geometricPrecision;text-rendering:geometricPrecision"
       transform="matrix(0.29128397,0,0,0.29128397,-105.947,-113.31004)">
      <path
         style="opacity:1"
         fill="#ac611b"
         d="m 554.5,455.5 c 4.221,0.186 8.221,1.186 12,3 0,1 0,2 0,3 -5.539,-1.393 -11.205,-2.06 -17,-2 -0.333,0 -0.667,0 -1,0 -0.671,-1.347 -0.671,-2.514 0,-3.5 1.973,-0.495 3.973,-0.662 6,-0.5 z"
         id="path385" />
    </g>
    <g
       id="g386"
       style="clip-rule:evenodd;fill-rule:evenodd;image-rendering:optimizeQuality;shape-rendering:geometricPrecision;text-rendering:geometricPrecision"
       transform="matrix(0.29128397,0,0,0.29128397,-105.947,-113.31004)">
      <path
         style="opacity:1"
         fill="#a06229"
         d="m 577.5,433.5 c 2.361,1.694 4.361,3.694 6,6 2.199,12.891 3.533,25.891 4,39 6.257,1.423 10.257,5.089 12,11 0.11,1.874 -0.556,3.374 -2,4.5 -2.721,0.602 -5.387,0.435 -8,-0.5 -0.709,-0.904 -1.709,-1.237 -3,-1 0.453,-0.958 1.119,-1.792 2,-2.5 -5.038,-4.143 -8.705,-3.309 -11,2.5 0.912,-5.163 2.412,-10.163 4.5,-15 0.821,-6.846 0.654,-13.513 -0.5,-20 0,-2.667 0,-5.333 0,-8 0.814,2.131 1.314,4.464 1.5,7 1.722,-8.638 -0.111,-16.304 -5.5,-23 z"
         id="path386" />
    </g>
    <g
       id="g387"
       style="clip-rule:evenodd;fill-rule:evenodd;image-rendering:optimizeQuality;shape-rendering:geometricPrecision;text-rendering:geometricPrecision"
       transform="matrix(0.29128397,0,0,0.29128397,-105.947,-113.31004)">
      <path
         style="opacity:1"
         fill="#a75c1c"
         d="m 521.5,458.5 c -5.672,0.781 -11.339,1.781 -17,3 -3.686,0.37 -4.686,-0.963 -3,-4 0,-0.333 0,-0.667 0,-1 5.796,-1.121 11.63,-2.121 17.5,-3 2.157,0.885 2.99,2.552 2.5,5 z"
         id="path387" />
    </g>
    <g
       id="g388"
       style="clip-rule:evenodd;fill-rule:evenodd;image-rendering:optimizeQuality;shape-rendering:geometricPrecision;text-rendering:geometricPrecision"
       transform="matrix(0.29128397,0,0,0.29128397,-105.947,-113.31004)">
      <path
         style="opacity:1"
         fill="#f4ebdd"
         d="m 581.5,457.5 c 0.166,4.014 -10e-4,8.014 -0.5,12 -0.333,0.333 -0.667,0.667 -1,1 -0.934,-1.358 -1.768,-2.692 -2.5,-4 -0.949,-5.24 -1.282,-10.573 -1,-16 1.322,-0.17 2.489,0.163 3.5,1 0.191,2.208 0.691,4.208 1.5,6 z"
         id="path388" />
    </g>
    <g
       id="g389"
       style="clip-rule:evenodd;fill-rule:evenodd;image-rendering:optimizeQuality;shape-rendering:geometricPrecision;text-rendering:geometricPrecision"
       transform="matrix(0.29128397,0,0,0.29128397,-105.947,-113.31004)">
      <path
         style="opacity:1"
         fill="#9a663a"
         d="m 501.5,457.5 c -1.686,3.037 -0.686,4.37 3,4 -1.714,1.238 -3.714,1.905 -6,2 0,-1.333 0,-2.667 0,-4 0.473,-1.406 1.473,-2.073 3,-2 z"
         id="path389" />
    </g>
    <g
       id="g390"
       style="clip-rule:evenodd;fill-rule:evenodd;image-rendering:optimizeQuality;shape-rendering:geometricPrecision;text-rendering:geometricPrecision"
       transform="matrix(0.29128397,0,0,0.29128397,-105.947,-113.31004)">
      <path
         style="opacity:1"
         fill="#a87848"
         d="m 566.5,458.5 c 1.43,1.955 1.097,3.621 -1,5 -5.393,-1.585 -10.726,-2.918 -16,-4 5.795,-0.06 11.461,0.607 17,2 0,-1 0,-2 0,-3 z"
         id="path390" />
    </g>
    <g
       id="g391"
       style="clip-rule:evenodd;fill-rule:evenodd;image-rendering:optimizeQuality;shape-rendering:geometricPrecision;text-rendering:geometricPrecision"
       transform="matrix(0.29128397,0,0,0.29128397,-105.947,-113.31004)">
      <path
         style="opacity:1"
         fill="#f5e1c2"
         d="m 567.5,444.5 c 1.562,0.233 2.895,0.9 4,2 1.559,3.917 2.226,8.084 2,12.5 -0.015,3.576 -0.682,6.742 -2,9.5 -2.361,-0.174 -4.694,-0.507 -7,-1 -6.544,-2.092 -13.211,-3.759 -20,-5 2.296,-0.304 2.629,-1.304 1,-3 1,0 2,0 3,0 0.333,0 0.667,0 1,0 5.274,1.082 10.607,2.415 16,4 -0.111,0.617 -0.444,1.117 -1,1.5 2.409,1.707 5.075,2.54 8,2.5 0.166,-4.346 -10e-4,-8.679 -0.5,-13 -0.232,-1.237 -0.732,-2.237 -1.5,-3 0.157,-1.373 -0.01,-2.707 -0.5,-4 -1.417,-0.578 -2.25,-1.578 -2.5,-3 z"
         id="path391" />
    </g>
    <g
       id="g392"
       style="clip-rule:evenodd;fill-rule:evenodd;image-rendering:optimizeQuality;shape-rendering:geometricPrecision;text-rendering:geometricPrecision"
       transform="matrix(0.29128397,0,0,0.29128397,-105.947,-113.31004)">
      <path
         style="opacity:1"
         fill="#ddb88b"
         d="m 571.5,446.5 c 3.074,1.802 6.408,2.802 10,3 0,2.667 0,5.333 0,8 -0.809,-1.792 -1.309,-3.792 -1.5,-6 -1.011,-0.837 -2.178,-1.17 -3.5,-1 -0.282,5.427 0.051,10.76 1,16 0,2 0,4 0,6 -2.037,-1.346 -4.037,-2.68 -6,-4 1.318,-2.758 1.985,-5.924 2,-9.5 0.226,-4.416 -0.441,-8.583 -2,-12.5 z"
         id="path392" />
    </g>
    <g
       id="g393"
       style="clip-rule:evenodd;fill-rule:evenodd;image-rendering:optimizeQuality;shape-rendering:geometricPrecision;text-rendering:geometricPrecision"
       transform="matrix(0.29128397,0,0,0.29128397,-105.947,-113.31004)">
      <path
         style="opacity:1"
         fill="#a35e1f"
         d="m 538.5,462.5 c 2,0 4,0 6,0 6.789,1.241 13.456,2.908 20,5 -21.059,-4.084 -42.059,-3.917 -63,0.5 -3.573,1.371 -7.073,2.871 -10.5,4.5 0.218,5.632 0.384,11.299 0.5,17 -2.788,-5.457 -3.788,-11.124 -3,-17 1.372,-1.012 2.705,-2.012 4,-3 14.858,-5.17 30.191,-7.503 46,-7 z"
         id="path393" />
    </g>
    <g
       id="g395"
       style="clip-rule:evenodd;fill-rule:evenodd;image-rendering:optimizeQuality;shape-rendering:geometricPrecision;text-rendering:geometricPrecision"
       transform="matrix(0.29128397,0,0,0.29128397,-105.947,-113.31004)">
      <path
         style="opacity:1"
         fill="#b65c01"
         d="m 564.5,467.5 c 3.249,2.035 6.749,3.701 10.5,5 1.109,5.154 0.109,9.821 -3,14 -0.147,5.486 -0.981,10.819 -2.5,16 -3.333,0 -6.667,0 -10,0 -4.337,-1.901 -9.003,-3.068 -14,-3.5 -8.51,-0.823 -16.844,-0.657 -25,0.5 -2,0.667 -4,1.333 -6,2 -2.065,0.017 -4.065,0.35 -6,1 -1.333,0 -2.667,0 -4,0 -2.687,0.164 -5.354,-0.003 -8,-0.5 -1.401,-3.424 -3.068,-6.591 -5,-9.5 0,-1 0,-2 0,-3 -0.116,-5.701 -0.282,-11.368 -0.5,-17 3.427,-1.629 6.927,-3.129 10.5,-4.5 20.941,-4.417 41.941,-4.584 63,-0.5 z"
         id="path395" />
    </g>
    <g
       id="g400"
       style="clip-rule:evenodd;fill-rule:evenodd;image-rendering:optimizeQuality;shape-rendering:geometricPrecision;text-rendering:geometricPrecision"
       transform="matrix(0.29128397,0,0,0.29128397,-105.947,-113.31004)">
      <path
         style="opacity:1"
         fill="#f5e4cd"
         d="m 485.5,434.5 c -1.14,2.28 -2.307,4.614 -3.5,7 -2.553,11.86 -3.719,23.86 -3.5,36 -4.105,1.558 -7.771,3.891 -11,7 0.255,-4.309 2.589,-6.476 7,-6.5 0.626,-0.75 1.126,-1.584 1.5,-2.5 1.024,-13.531 3.191,-26.864 6.5,-40 0.825,-0.886 1.825,-1.219 3,-1 z"
         id="path400" />
    </g>
    <g
       id="g401"
       style="clip-rule:evenodd;fill-rule:evenodd;image-rendering:optimizeQuality;shape-rendering:geometricPrecision;text-rendering:geometricPrecision"
       transform="matrix(0.29128397,0,0,0.29128397,-105.947,-113.31004)">
      <path
         style="opacity:1"
         fill="#f5dbb8"
         d="m 582.5,482.5 c 3.94,0.258 7.607,1.424 11,3.5 0.837,1.011 1.17,2.178 1,3.5 -4.48,-0.87 -8.813,-2.203 -13,-4 0.627,-0.917 0.961,-1.917 1,-3 z"
         id="path401" />
    </g>
    <g
       id="g403"
       style="clip-rule:evenodd;fill-rule:evenodd;image-rendering:optimizeQuality;shape-rendering:geometricPrecision;text-rendering:geometricPrecision"
       transform="matrix(0.29128397,0,0,0.29128397,-105.947,-113.31004)">
      <path
         style="opacity:1"
         fill="#a85f1e"
         d="m 564.5,467.5 c 2.306,0.493 4.639,0.826 7,1 1.963,1.32 3.963,2.654 6,4 -0.722,9.221 -2.555,18.221 -5.5,27 -0.377,1.442 -1.21,2.442 -2.5,3 1.519,-5.181 2.353,-10.514 2.5,-16 3.109,-4.179 4.109,-8.846 3,-14 -3.751,-1.299 -7.251,-2.965 -10.5,-5 z"
         id="path403" />
    </g>
    <g
       id="g406"
       style="clip-rule:evenodd;fill-rule:evenodd;image-rendering:optimizeQuality;shape-rendering:geometricPrecision;text-rendering:geometricPrecision"
       transform="matrix(0.29128397,0,0,0.29128397,-105.947,-113.31004)">
      <path
         style="opacity:1"
         fill="#f7dfba"
         d="m 478.5,487.5 c -2.05,0.461 -4.05,1.128 -6,2 -1.083,-0.865 -1.249,-1.865 -0.5,-3 3.405,-2.622 7.239,-3.955 11.5,-4 0,1.333 0,2.667 0,4 -1.915,-0.284 -3.581,0.049 -5,1 z"
         id="path406" />
    </g>
    <g
       id="g416"
       style="clip-rule:evenodd;fill-rule:evenodd;image-rendering:optimizeQuality;shape-rendering:geometricPrecision;text-rendering:geometricPrecision"
       transform="matrix(0.29128397,0,0,0.29128397,-105.947,-113.31004)">
      <path
         style="opacity:1"
         fill="#b75c03"
         d="m 478.5,487.5 c 2.357,-0.163 4.69,0.003 7,0.5 0.729,2.058 1.729,3.891 3,5.5 0.222,7.46 1.389,14.793 3.5,22 0.5,7.993 0.666,15.993 0.5,24 -2.779,0.221 -5.446,-0.112 -8,-1 -0.06,-0.543 -0.393,-0.876 -1,-1 -1,40.995 -1.333,81.995 -1,123 -0.617,-0.111 -1.117,-0.444 -1.5,-1 -0.746,-36.172 -0.58,-72.339 0.5,-108.5 -0.487,-19.667 -1.154,-39.167 -2,-58.5 -0.898,-0.658 -1.898,-1.324 -3,-2 0.693,-1.018 1.359,-2.018 2,-3 z"
         id="path416" />
    </g>
    <g
       id="g423"
       style="clip-rule:evenodd;fill-rule:evenodd;image-rendering:optimizeQuality;shape-rendering:geometricPrecision;text-rendering:geometricPrecision"
       transform="matrix(0.29128397,0,0,0.29128397,-105.947,-113.31004)">
      <path
         style="opacity:1"
         fill="#9d632b"
         d="m 491.5,492.5 c 1.932,2.909 3.599,6.076 5,9.5 2.646,0.497 5.313,0.664 8,0.5 -5.484,3.667 -9.317,2.333 -11.5,-4 -0.505,-2.018 -1.005,-4.018 -1.5,-6 z"
         id="path423" />
    </g>
    <g
       id="g425"
       style="clip-rule:evenodd;fill-rule:evenodd;image-rendering:optimizeQuality;shape-rendering:geometricPrecision;text-rendering:geometricPrecision"
       transform="matrix(0.29128397,0,0,0.29128397,-105.947,-113.31004)">
      <path
         style="opacity:1"
         fill="#d1aa85"
         d="m 520.5,499.5 c 7.852,-0.325 15.518,0.008 23,1 -9.685,-0.078 -19.352,0.255 -29,1 2,-0.667 4,-1.333 6,-2 z"
         id="path425" />
    </g>
    <g
       id="g426"
       style="clip-rule:evenodd;fill-rule:evenodd;image-rendering:optimizeQuality;shape-rendering:geometricPrecision;text-rendering:geometricPrecision"
       transform="matrix(0.29128397,0,0,0.29128397,-105.947,-113.31004)">
      <path
         style="opacity:1"
         fill="#9e5f26"
         d="m 520.5,499.5 c 8.156,-1.157 16.49,-1.323 25,-0.5 4.997,0.432 9.663,1.599 14,3.5 -5.32,-0.76 -10.653,-1.427 -16,-2 -7.482,-0.992 -15.148,-1.325 -23,-1 z"
         id="path426" />
    </g>
    <g
       id="g428"
       style="clip-rule:evenodd;fill-rule:evenodd;image-rendering:optimizeQuality;shape-rendering:geometricPrecision;text-rendering:geometricPrecision"
       transform="matrix(0.29128397,0,0,0.29128397,-105.947,-113.31004)">
      <path
         style="opacity:1"
         fill="#f8ebd8"
         d="m 543.5,500.5 c 5.347,0.573 10.68,1.24 16,2 1.333,0.667 2.667,1.333 4,2 -9.617,-1.41 -19.283,-2.41 -29,-3 -9.727,0.591 -19.393,1.591 -29,3 1,-0.667 2,-1.333 3,-2 1.935,-0.65 3.935,-0.983 6,-1 9.648,-0.745 19.315,-1.078 29,-1 z"
         id="path428" />
    </g>
    <g
       id="g429"
       style="clip-rule:evenodd;fill-rule:evenodd;image-rendering:optimizeQuality;shape-rendering:geometricPrecision;text-rendering:geometricPrecision"
       transform="matrix(0.29128397,0,0,0.29128397,-105.947,-113.31004)">
      <path
         style="opacity:1"
         fill="#e8e7e6"
         d="m 563.5,504.5 c 2.395,1.314 4.895,1.314 7.5,0 -0.477,51.633 -0.644,103.299 -0.5,155 0,1 0,2 0,3 -21.686,0.265 -43.353,-0.068 -65,-1 -1.333,-1.333 -1.333,-2.667 0,-4 0,-0.333 0,-0.667 0,-1 2.943,-1.219 3.943,-3.219 3,-6 0.346,-1.196 0.846,-1.196 1.5,0 0.5,-1 1,-2 1.5,-3 -0.346,-1.196 -0.846,-1.196 -1.5,0 -0.081,-4.687 -0.915,-9.187 -2.5,-13.5 2.013,-0.875 2.013,-2.209 0,-4 0.667,-1 1.333,-2 2,-3 -1.294,-3.74 -1.961,-7.74 -2,-12 0.183,-11.125 0.183,-22.125 0,-33 -0.146,-2.034 0.52,-3.701 2,-5 -0.667,-1.333 -1.333,-2.667 -2,-4 -0.109,-6.819 2.057,-7.319 6.5,-1.5 0.806,9.381 0.64,18.715 -0.5,28 0.597,3.471 1.264,6.805 2,10 -0.011,1.517 -0.677,2.684 -2,3.5 0.639,14.789 1.473,29.623 2.5,44.5 1.458,1.247 2.958,1.247 4.5,0 1.273,-2.214 2.273,-4.547 3,-7 -1.651,-10.619 -2.484,-21.619 -2.5,-33 -0.168,-25.503 -0.668,-50.837 -1.5,-76 -0.667,0 -1.333,0 -2,0 -1.604,0.787 -2.271,2.12 -2,4 -0.664,7.273 -1.83,14.607 -3.5,22 -0.317,-1.801 -0.984,-2.134 -2,-1 -2.336,-0.792 -2.836,-2.125 -1.5,-4 -2.731,-6.185 -2.564,-12.185 0.5,-18 0.556,2.095 1.056,2.262 1.5,0.5 -1.201,-2.234 -2.535,-4.401 -4,-6.5 -1.542,-1.247 -3.042,-1.247 -4.5,0 -1.353,-1.185 -2.52,-2.519 -3.5,-4 0.019,-2.819 0.352,-5.653 1,-8.5 -2.12,-1.523 -2.453,-3.356 -1,-5.5 -2.613,-3.536 -2.613,-7.036 0,-10.5 -0.457,-0.414 -0.791,-0.914 -1,-1.5 1.791,-0.67 3.458,-1.337 5,-2 1,-0.667 2,-1.333 3,-2 9.607,-1.409 19.273,-2.409 29,-3 9.717,0.59 19.383,1.59 29,3 z"
         id="path429" />
    </g>
    <g
       id="g430"
       style="clip-rule:evenodd;fill-rule:evenodd;image-rendering:optimizeQuality;shape-rendering:geometricPrecision;text-rendering:geometricPrecision"
       transform="matrix(0.29128397,0,0,0.29128397,-105.947,-113.31004)">
      <path
         style="opacity:1"
         fill="#ab723f"
         d="m 559.5,502.5 c 3.333,0 6.667,0 10,0 -1.418,1.808 -3.418,2.475 -6,2 -1.333,-0.667 -2.667,-1.333 -4,-2 z"
         id="path430" />
    </g>
    <g
       id="g434"
       style="clip-rule:evenodd;fill-rule:evenodd;image-rendering:optimizeQuality;shape-rendering:geometricPrecision;text-rendering:geometricPrecision"
       transform="matrix(0.29128397,0,0,0.29128397,-105.947,-113.31004)">
      <path
         style="opacity:1"
         fill="#9f6128"
         d="m 575.5,500.5 c 0.366,5.216 -0.468,10.216 -2.5,15 -0.5,7.659 -0.666,15.326 -0.5,23 -0.333,0 -0.667,0 -1,0 -0.938,-13.061 0.396,-25.728 4,-38 z"
         id="path434" />
    </g>
    <g
       id="g435"
       style="clip-rule:evenodd;fill-rule:evenodd;image-rendering:optimizeQuality;shape-rendering:geometricPrecision;text-rendering:geometricPrecision"
       transform="matrix(0.29128397,0,0,0.29128397,-105.947,-113.31004)">
      <path
         style="opacity:1"
         fill="#a36529"
         d="m 488.5,493.5 c 5.341,14.423 7.341,29.423 6,45 -0.667,0.333 -1.333,0.667 -2,1 0.166,-8.007 0,-16.007 -0.5,-24 -2.111,-7.207 -3.278,-14.54 -3.5,-22 z"
         id="path435" />
    </g>
    <g
       id="g445"
       style="clip-rule:evenodd;fill-rule:evenodd;image-rendering:optimizeQuality;shape-rendering:geometricPrecision;text-rendering:geometricPrecision"
       transform="matrix(0.29128397,0,0,0.29128397,-105.947,-113.31004)">
      <path
         style="opacity:1"
         fill="#f7e8cf"
         d="m 486.5,449.5 c 1,0 2,0 3,0 -0.18,7.675 -0.514,15.342 -1,23 -0.788,5.876 0.212,11.543 3,17 0,1 0,2 0,3 0.495,1.982 0.995,3.982 1.5,6 2.183,6.333 6.016,7.667 11.5,4 1.333,0 2.667,0 4,0 -1,0.667 -2,1.333 -3,2 -1,0.667 -2,1.333 -3,2 -2.667,0 -5.333,0 -8,0 2.068,17.776 2.401,35.609 1,53.5 1.928,32.099 1.928,64.432 0,97 1.445,5.433 4.778,6.933 10,4.5 21.647,0.932 43.314,1.265 65,1 0,-1 0,-2 0,-3 0.333,0 0.667,0 1,0 0,1.333 0,2.667 0,4 -26.355,0.658 -52.355,-0.009 -78,-2 0.994,-40.928 1.327,-81.928 1,-123 1.341,-15.577 -0.659,-30.577 -6,-45 -0.724,-5.226 -2.224,-10.226 -4.5,-15 -0.5,-6.992 -0.666,-13.992 -0.5,-21 0.968,-2.107 1.302,-4.441 1,-7 0.342,-0.838 1.008,-1.172 2,-1 z"
         id="path445" />
    </g>
    <g
       id="g453"
       style="clip-rule:evenodd;fill-rule:evenodd;image-rendering:optimizeQuality;shape-rendering:geometricPrecision;text-rendering:geometricPrecision"
       transform="matrix(0.29128397,0,0,0.29128397,-105.947,-113.31004)">
      <path
         style="opacity:1"
         fill="#ecc7a1"
         d="m 586.5,492.5 c 1.291,-0.237 2.291,0.096 3,1 -1.666,59.493 -2.666,119.16 -3,179 0,-60 0,-120 0,-180 z"
         id="path453" />
    </g>
    <g
       id="g457"
       style="clip-rule:evenodd;fill-rule:evenodd;image-rendering:optimizeQuality;shape-rendering:geometricPrecision;text-rendering:geometricPrecision"
       transform="matrix(0.29128397,0,0,0.29128397,-105.947,-113.31004)">
      <path
         style="opacity:1"
         fill="#eee6da"
         d="m 529.5,654.5 c 0.667,0.667 1.333,1.333 2,2 1,0 2,0 3,0 0.167,-38.335 0,-76.668 -0.5,-115 -0.977,-1.274 -1.811,-1.274 -2.5,0 -0.617,0.111 -1.117,0.444 -1.5,1 -0.5,7.993 -0.666,15.993 -0.5,24 -1.157,-8.156 -1.323,-16.49 -0.5,-25 1.481,-2.58 3.648,-3.413 6.5,-2.5 1.843,2.352 2.843,5.019 3,8 -0.127,33.767 -0.794,68.434 -2,104 0.143,2.151 1.143,3.818 3,5 -3.012,2.557 -6.345,3.057 -10,1.5 -1.062,-0.925 -1.062,-1.925 0,-3 z"
         id="path457" />
    </g>
    <g
       id="g458"
       style="clip-rule:evenodd;fill-rule:evenodd;image-rendering:optimizeQuality;shape-rendering:geometricPrecision;text-rendering:geometricPrecision"
       transform="matrix(0.29128397,0,0,0.29128397,-105.947,-113.31004)">
      <path
         style="opacity:1"
         fill="#f6ad56"
         d="m 582.5,671.5 c -0.828,3.501 -2.828,6.168 -6,8 -0.886,-0.825 -1.219,-1.825 -1,-3 0.996,0.086 1.829,-0.248 2.5,-1 2.705,-4.521 1.705,-7.854 -3,-10 -0.667,-2.667 -1.333,-5.333 -2,-8 -0.5,-39.332 -0.667,-78.665 -0.5,-118 1.333,0 2.667,0 4,0 0.667,0 1.333,0 2,0 1.083,-0.039 2.083,-0.373 3,-1 1,44.328 1.333,88.662 1,133 z"
         id="path458" />
    </g>
    <g
       id="g460"
       style="clip-rule:evenodd;fill-rule:evenodd;image-rendering:optimizeQuality;shape-rendering:geometricPrecision;text-rendering:geometricPrecision"
       transform="matrix(0.29128397,0,0,0.29128397,-105.947,-113.31004)">
      <path
         style="opacity:1"
         fill="#f9e6c7"
         d="m 478.5,492.5 c -0.326,61.375 0.008,122.708 1,184 -0.617,-0.111 -1.117,-0.444 -1.5,-1 -0.495,-1.973 -0.662,-3.973 -0.5,-6 0,-58.333 0,-116.667 0,-175 -1.333,0 -2.667,0 -4,0 1.28,-1.431 2.947,-2.098 5,-2 z"
         id="path460" />
    </g>
    <g
       id="g467"
       style="clip-rule:evenodd;fill-rule:evenodd;image-rendering:optimizeQuality;shape-rendering:geometricPrecision;text-rendering:geometricPrecision"
       transform="matrix(0.29128397,0,0,0.29128397,-105.947,-113.31004)">
      <path
         style="opacity:1"
         fill="#f7e6d2"
         d="m 531.5,541.5 c 0,38.333 0,76.667 0,115 -0.667,-0.667 -1.333,-1.333 -2,-2 -0.499,-29.722 -0.499,-59.055 0,-88 -0.166,-8.007 0,-16.007 0.5,-24 0.383,-0.556 0.883,-0.889 1.5,-1 z"
         id="path467" />
    </g>
    <g
       id="g470"
       style="clip-rule:evenodd;fill-rule:evenodd;image-rendering:optimizeQuality;shape-rendering:geometricPrecision;text-rendering:geometricPrecision"
       transform="matrix(0.29128397,0,0,0.29128397,-105.947,-113.31004)">
      <path
         style="opacity:1"
         fill="#e18e34"
         d="m 484.5,538.5 c -0.999,44.497 -1.332,89.164 -1,134 -0.983,-3.798 -1.317,-7.798 -1,-12 -0.333,-41.005 0,-82.005 1,-123 0.607,0.124 0.94,0.457 1,1 z"
         id="path470" />
    </g>
    <g
       id="g473"
       style="clip-rule:evenodd;fill-rule:evenodd;image-rendering:optimizeQuality;shape-rendering:geometricPrecision;text-rendering:geometricPrecision"
       transform="matrix(0.29128397,0,0,0.29128397,-105.947,-113.31004)">
      <path
         style="opacity:1"
         fill="#b0600c"
         d="m 586.5,492.5 c -0.667,60.333 -1.333,120.667 -2,181 0.166,-5.011 -10e-4,-10.011 -0.5,-15 -0.175,4.519 -0.675,8.853 -1.5,13 0.333,-44.338 0,-88.672 -1,-133 -0.917,0.627 -1.917,0.961 -3,1 -0.111,-0.617 -0.444,-1.117 -1,-1.5 1.555,-1.646 3.221,-1.979 5,-1 0.667,-1 1.333,-2 2,-3 -0.788,-3.076 -1.288,-6.242 -1.5,-9.5 -0.465,-1.431 -1.299,-2.597 -2.5,-3.5 1.141,-0.741 1.141,-1.575 0,-2.5 0.991,-1.165 1.991,-2.332 3,-3.5 -0.522,-0.95 -1.189,-1.784 -2,-2.5 0.611,-2.222 0.611,-4.555 0,-7 0.435,-2.24 1.102,-4.406 2,-6.5 -0.939,-3.056 -0.273,-5.889 2,-8.5 -1.506,-1.247 -3.006,-1.247 -4.5,0 -5.038,15.231 -7.371,30.898 -7,47 0.995,0.566 1.828,1.233 2.5,2 -1.333,0 -2.667,0 -4,0 0,-0.333 0,-0.667 0,-1 -0.166,-7.674 0,-15.341 0.5,-23 2.032,-4.784 2.866,-9.784 2.5,-15 0.302,-2.873 0.969,-5.539 2,-8 2.295,-5.809 5.962,-6.643 11,-2.5 -0.881,0.708 -1.547,1.542 -2,2.5 z"
         id="path473" />
    </g>
    <g
       id="g474"
       style="clip-rule:evenodd;fill-rule:evenodd;image-rendering:optimizeQuality;shape-rendering:geometricPrecision;text-rendering:geometricPrecision"
       transform="matrix(0.29128397,0,0,0.29128397,-105.947,-113.31004)">
      <path
         style="opacity:1"
         fill="#b95c00"
         d="m 578.5,539.5 c -0.667,0 -1.333,0 -2,0 -0.672,-0.767 -1.505,-1.434 -2.5,-2 -0.371,-16.102 1.962,-31.769 7,-47 1.494,-1.247 2.994,-1.247 4.5,0 -2.273,2.611 -2.939,5.444 -2,8.5 -0.898,2.094 -1.565,4.26 -2,6.5 0.611,2.445 0.611,4.778 0,7 0.811,0.716 1.478,1.55 2,2.5 -1.009,1.168 -2.009,2.335 -3,3.5 1.141,0.925 1.141,1.759 0,2.5 1.201,0.903 2.035,2.069 2.5,3.5 0.212,3.258 0.712,6.424 1.5,9.5 -0.667,1 -1.333,2 -2,3 -1.779,-0.979 -3.445,-0.646 -5,1 0.556,0.383 0.889,0.883 1,1.5 z"
         id="path474" />
    </g>
    <g
       id="g475"
       style="clip-rule:evenodd;fill-rule:evenodd;image-rendering:optimizeQuality;shape-rendering:geometricPrecision;text-rendering:geometricPrecision"
       transform="matrix(0.29128397,0,0,0.29128397,-105.947,-113.31004)">
      <path
         style="opacity:1"
         fill="#98734d"
         d="m 531.5,656.5 c 0,-38.333 0,-76.667 0,-115 0.689,-1.274 1.523,-1.274 2.5,0 0.5,38.332 0.667,76.665 0.5,115 -1,0 -2,0 -3,0 z"
         id="path475" />
    </g>
    <g
       id="g477"
       style="clip-rule:evenodd;fill-rule:evenodd;image-rendering:optimizeQuality;shape-rendering:geometricPrecision;text-rendering:geometricPrecision"
       transform="matrix(0.29128397,0,0,0.29128397,-105.947,-113.31004)">
      <path
         style="opacity:1"
         fill="#a97846"
         d="m 478.5,492.5 c 0.333,0 0.667,0 1,0 -0.167,60.334 0,120.668 0.5,181 1.5,4.167 4.333,7 8.5,8.5 7.442,1.505 14.775,3.005 22,4.5 -7.393,-0.284 -14.726,-1.118 -22,-2.5 -3.097,-1.273 -5.764,-3.107 -8,-5.5 0.172,-0.992 -0.162,-1.658 -1,-2 -0.992,-61.292 -1.326,-122.625 -1,-184 z"
         id="path477" />
    </g>
    <g
       id="g479"
       style="clip-rule:evenodd;fill-rule:evenodd;image-rendering:optimizeQuality;shape-rendering:geometricPrecision;text-rendering:geometricPrecision"
       transform="matrix(0.29128397,0,0,0.29128397,-105.947,-113.31004)">
      <path
         style="opacity:1"
         fill="#f2dbc6"
         d="m 550.5,598.5 c 0.167,19.336 0,38.67 -0.5,58 -2.022,1.491 -3.688,1.158 -5,-1 -0.5,-29.331 -0.667,-58.665 -0.5,-88 -0.166,-9.006 0,-18.006 0.5,-27 1.667,-1.333 3.333,-1.333 5,0 0.5,19.33 0.667,38.664 0.5,58 z"
         id="path479" />
    </g>
    <g
       id="g480"
       style="clip-rule:evenodd;fill-rule:evenodd;image-rendering:optimizeQuality;shape-rendering:geometricPrecision;text-rendering:geometricPrecision"
       transform="matrix(0.29128397,0,0,0.29128397,-105.947,-113.31004)">
      <path
         style="opacity:1"
         fill="#90623a"
         d="m 546.5,540.5 c 1.333,18.988 2,38.322 2,58 -0.333,19.333 -0.667,38.667 -1,58 -1,-38.661 -1.333,-77.328 -1,-116 z"
         id="path480" />
    </g>
    <g
       id="g481"
       style="clip-rule:evenodd;fill-rule:evenodd;image-rendering:optimizeQuality;shape-rendering:geometricPrecision;text-rendering:geometricPrecision"
       transform="matrix(0.29128397,0,0,0.29128397,-105.947,-113.31004)">
      <path
         style="opacity:1"
         fill="#f6af57"
         d="m 484.5,538.5 c 2.554,0.888 5.221,1.221 8,1 0,13 0,26 0,39 -0.8,6.67 -1.467,13.503 -2,20.5 1.123,19.151 1.29,38.318 0.5,57.5 -1.93,2.258 -3.43,4.758 -4.5,7.5 0.219,3.682 0.219,7.516 0,11.5 1.333,0 2.667,0 4,0 0,0.667 0,1.333 0,2 -0.722,0.418 -1.222,1.084 -1.5,2 -2.793,-1.59 -4.627,-3.923 -5.5,-7 -0.332,-44.836 10e-4,-89.503 1,-134 z"
         id="path481" />
    </g>
    <g
       id="g482"
       style="clip-rule:evenodd;fill-rule:evenodd;image-rendering:optimizeQuality;shape-rendering:geometricPrecision;text-rendering:geometricPrecision"
       transform="matrix(0.29128397,0,0,0.29128397,-105.947,-113.31004)">
      <path
         style="opacity:1"
         fill="#f6e8d5"
         d="m 583.5,439.5 c 2.158,2.024 3.824,4.524 5,7.5 -0.522,0.561 -0.855,1.228 -1,2 0.794,9.132 1.294,18.299 1.5,27.5 1.845,1.85 3.845,2.183 6,1 3.959,3.343 6.126,7.676 6.5,13 0.094,2.412 -0.906,4.245 -3,5.5 -2.926,0.218 -5.76,0.718 -8.5,1.5 -0.333,-0.333 -0.667,-0.667 -1,-1 -0.333,59.333 -0.667,118.667 -1,178 -0.612,2.615 -2.112,4.281 -4.5,5 1.575,-2.047 2.575,-4.381 3,-7 0.334,-59.84 1.334,-119.507 3,-179 2.613,0.935 5.279,1.102 8,0.5 1.444,-1.126 2.11,-2.626 2,-4.5 -1.743,-5.911 -5.743,-9.577 -12,-11 -0.467,-13.109 -1.801,-26.109 -4,-39 z"
         id="path482" />
    </g>
    <g
       id="g487"
       style="clip-rule:evenodd;fill-rule:evenodd;image-rendering:optimizeQuality;shape-rendering:geometricPrecision;text-rendering:geometricPrecision"
       transform="matrix(0.29128397,0,0,0.29128397,-105.947,-113.31004)">
      <path
         style="opacity:1"
         fill="#f3e3d3"
         d="m 466.5,487.5 c -1.333,6 1,8.333 7,7 1.333,0 2.667,0 4,0 0,58.333 0,116.667 0,175 -0.999,-57.831 -1.332,-115.831 -1,-174 -3.35,0.165 -6.683,-0.002 -10,-0.5 -2.559,-2.707 -2.559,-5.207 0,-7.5 z"
         id="path487" />
    </g>
    <g
       id="g490"
       style="clip-rule:evenodd;fill-rule:evenodd;image-rendering:optimizeQuality;shape-rendering:geometricPrecision;text-rendering:geometricPrecision"
       transform="matrix(0.29128397,0,0,0.29128397,-105.947,-113.31004)">
      <path
         style="opacity:1"
         fill="#f4dab8"
         d="m 581.5,457.5 c 1.154,6.487 1.321,13.154 0.5,20 -2.088,4.837 -3.588,9.837 -4.5,15 -1.031,2.461 -1.698,5.127 -2,8 -3.604,12.272 -4.938,24.939 -4,38 0,40.333 0,80.667 0,121 -0.333,0 -0.667,0 -1,0 -0.144,-51.701 0.023,-103.367 0.5,-155 -2.605,1.314 -5.105,1.314 -7.5,0 2.582,0.475 4.582,-0.192 6,-2 1.29,-0.558 2.123,-1.558 2.5,-3 2.945,-8.779 4.778,-17.779 5.5,-27 0,-2 0,-4 0,-6 0.732,1.308 1.566,2.642 2.5,4 0.333,-0.333 0.667,-0.667 1,-1 0.499,-3.986 0.666,-7.986 0.5,-12 z"
         id="path490" />
    </g>
    <g
       id="g493"
       style="clip-rule:evenodd;fill-rule:evenodd;image-rendering:optimizeQuality;shape-rendering:geometricPrecision;text-rendering:geometricPrecision"
       transform="matrix(0.29128397,0,0,0.29128397,-105.947,-113.31004)">
      <path
         style="opacity:1"
         fill="#f0d9c2"
         d="m 502.5,540.5 c -0.333,38.672 0,77.339 1,116 1,-38.328 1.333,-76.661 1,-115 0.999,38.163 1.332,76.496 1,115 0,0.333 0,0.667 0,1 -3.265,0.2 -5.265,-1.3 -6,-4.5 0.824,-36.471 1.324,-72.971 1.5,-109.5 0.232,-1.237 0.732,-2.237 1.5,-3 z"
         id="path493" />
    </g>
    <g
       id="g498"
       style="clip-rule:evenodd;fill-rule:evenodd;image-rendering:optimizeQuality;shape-rendering:geometricPrecision;text-rendering:geometricPrecision"
       transform="matrix(0.29128397,0,0,0.29128397,-105.947,-113.31004)">
      <path
         style="opacity:1"
         fill="#eae6de"
         d="m 544.5,567.5 c -0.167,29.335 0,58.669 0.5,88 1.312,2.158 2.978,2.491 5,1 0.5,-19.33 0.667,-38.664 0.5,-58 0.617,-0.111 1.117,-0.444 1.5,-1 1.409,6.95 1.243,13.95 -0.5,21 0.721,12.44 0.888,24.774 0.5,37 -1.666,2.879 -4.166,3.712 -7.5,2.5 -0.894,-2.068 -1.56,-4.235 -2,-6.5 -0.268,-27.971 0.399,-55.971 2,-84 z"
         id="path498" />
    </g>
    <g
       id="g500"
       style="clip-rule:evenodd;fill-rule:evenodd;image-rendering:optimizeQuality;shape-rendering:geometricPrecision;text-rendering:geometricPrecision"
       transform="matrix(0.29128397,0,0,0.29128397,-105.947,-113.31004)">
      <path
         style="opacity:1"
         fill="#e0b57a"
         d="m 494.5,538.5 c 0.327,41.072 -0.006,82.072 -1,123 -0.667,0 -1,0.333 -1,1 -0.522,1.719 -1.522,3.052 -3,4 0.981,-2.921 1.815,-5.921 2.5,-9 0.5,-26.331 0.667,-52.665 0.5,-79 0,-13 0,-26 0,-39 0.667,-0.333 1.333,-0.667 2,-1 z"
         id="path500" />
    </g>
    <g
       id="g503"
       style="clip-rule:evenodd;fill-rule:evenodd;image-rendering:optimizeQuality;shape-rendering:geometricPrecision;text-rendering:geometricPrecision"
       transform="matrix(0.29128397,0,0,0.29128397,-105.947,-113.31004)">
      <path
         style="opacity:1"
         fill="#ede8e0"
         d="m 502.5,506.5 c -1.542,0.663 -3.209,1.33 -5,2 0.209,0.586 0.543,1.086 1,1.5 -2.613,3.464 -2.613,6.964 0,10.5 -1.453,2.144 -1.12,3.977 1,5.5 -0.648,2.847 -0.981,5.681 -1,8.5 0.98,1.481 2.147,2.815 3.5,4 1.458,-1.247 2.958,-1.247 4.5,0 1.465,2.099 2.799,4.266 4,6.5 -0.444,1.762 -0.944,1.595 -1.5,-0.5 -3.064,5.815 -3.231,11.815 -0.5,18 -1.336,1.875 -0.836,3.208 1.5,4 1.016,-1.134 1.683,-0.801 2,1 1.67,-7.393 2.836,-14.727 3.5,-22 0,21.333 0,42.667 0,64 -0.736,-3.195 -1.403,-6.529 -2,-10 1.14,-9.285 1.306,-18.619 0.5,-28 -4.443,-5.819 -6.609,-5.319 -6.5,1.5 0.667,1.333 1.333,2.667 2,4 -1.48,1.299 -2.146,2.966 -2,5 0.183,10.875 0.183,21.875 0,33 0.039,4.26 0.706,8.26 2,12 -0.667,1 -1.333,2 -2,3 2.013,1.791 2.013,3.125 0,4 1.585,4.313 2.419,8.813 2.5,13.5 0.654,-1.196 1.154,-1.196 1.5,0 -0.5,1 -1,2 -1.5,3 -0.654,-1.196 -1.154,-1.196 -1.5,0 0.943,2.781 -0.057,4.781 -3,6 0.332,-38.504 -10e-4,-76.837 -1,-115 -0.342,-0.838 -1.008,-1.172 -2,-1 -0.768,0.763 -1.268,1.763 -1.5,3 -0.176,36.529 -0.676,73.029 -1.5,109.5 0.735,3.2 2.735,4.7 6,4.5 -1.333,1.333 -1.333,2.667 0,4 -5.222,2.433 -8.555,0.933 -10,-4.5 1.928,-32.568 1.928,-64.901 0,-97 1.401,-17.891 1.068,-35.724 -1,-53.5 2.667,0 5.333,0 8,0 z"
         id="path503" />
    </g>
    <g
       id="g504"
       style="clip-rule:evenodd;fill-rule:evenodd;image-rendering:optimizeQuality;shape-rendering:geometricPrecision;text-rendering:geometricPrecision"
       transform="matrix(0.29128397,0,0,0.29128397,-105.947,-113.31004)">
      <path
         style="opacity:1"
         fill="#916c4b"
         d="m 502.5,540.5 c 0.992,-0.172 1.658,0.162 2,1 0.333,38.339 0,76.672 -1,115 -1,-38.661 -1.333,-77.328 -1,-116 z"
         id="path504" />
    </g>
    <g
       id="g505"
       style="clip-rule:evenodd;fill-rule:evenodd;image-rendering:optimizeQuality;shape-rendering:geometricPrecision;text-rendering:geometricPrecision"
       transform="matrix(0.29128397,0,0,0.29128397,-105.947,-113.31004)">
      <path
         style="opacity:1"
         fill="#eeb267"
         d="m 492.5,578.5 c 0.167,26.335 0,52.669 -0.5,79 -0.685,3.079 -1.519,6.079 -2.5,9 0,0.333 0,0.667 0,1 -1.011,1.902 -1.178,3.902 -0.5,6 0.671,0.752 1.504,1.086 2.5,1 0,0.667 -0.333,1 -1,1 -1.333,0 -2.667,0 -4,0 0.219,-3.984 0.219,-7.818 0,-11.5 1.07,-2.742 2.57,-5.242 4.5,-7.5 0.79,-19.182 0.623,-38.349 -0.5,-57.5 0.533,-6.997 1.2,-13.83 2,-20.5 z"
         id="path505" />
    </g>
    <g
       id="g511"
       style="clip-rule:evenodd;fill-rule:evenodd;image-rendering:optimizeQuality;shape-rendering:geometricPrecision;text-rendering:geometricPrecision"
       transform="matrix(0.29128397,0,0,0.29128397,-105.947,-113.31004)">
      <path
         style="opacity:1"
         fill="#f2e8db"
         d="m 559.5,538.5 c 3.693,-0.314 6.027,1.352 7,5 -1.213,13.723 -1.88,27.723 -2,42 0.167,7 0.333,14 0.5,21 0.402,1.372 0.902,2.705 1.5,4 -0.71,15.12 -1.21,30.454 -1.5,46 -3.086,1.72 -5.419,1.053 -7,-2 -1.372,-3.825 -1.538,-7.658 -0.5,-11.5 -0.522,-0.95 -1.189,-1.784 -2,-2.5 1,-2 2,-4 3,-6 -3.386,-2.906 -3.719,-6.072 -1,-9.5 -1.333,-4.333 -1.333,-8.667 0,-13 -2.281,-1.482 -2.281,-3.149 0,-5 -0.816,-1.923 -1.483,-3.923 -2,-6 0.286,-6.428 0.286,-13.095 0,-20 0.405,-0.945 1.072,-1.612 2,-2 -0.067,-11.881 -0.401,-23.548 -1,-35 1.139,-1.78 2.139,-3.614 3,-5.5 z"
         id="path511" />
    </g>
    <g
       id="g512"
       style="clip-rule:evenodd;fill-rule:evenodd;image-rendering:optimizeQuality;shape-rendering:geometricPrecision;text-rendering:geometricPrecision"
       transform="matrix(0.29128397,0,0,0.29128397,-105.947,-113.31004)">
      <path
         style="opacity:1"
         fill="#9a7857"
         d="m 560.5,540.5 c 0.996,-0.086 1.829,0.248 2.5,1 0.5,38.332 0.667,76.665 0.5,115 -1,0 -2,0 -3,0 0,-38.667 0,-77.333 0,-116 z"
         id="path512" />
    </g>
    <g
       id="g513"
       style="clip-rule:evenodd;fill-rule:evenodd;image-rendering:optimizeQuality;shape-rendering:geometricPrecision;text-rendering:geometricPrecision"
       transform="matrix(0.29128397,0,0,0.29128397,-105.947,-113.31004)">
      <path
         style="opacity:1"
         fill="#9e652c"
         d="m 586.5,492.5 c 0,60 0,120 0,180 -0.425,2.619 -1.425,4.953 -3,7 -0.333,0.667 -0.667,1.333 -1,2 -1.872,1.011 -3.872,1.845 -6,2.5 -21.053,3.449 -42.053,4.282 -63,2.5 20.788,0.771 41.454,-0.396 62,-3.5 3.961,-2.302 6.961,-5.468 9,-9.5 0.667,-60.333 1.333,-120.667 2,-181 z"
         id="path513" />
    </g>
    <g
       id="g517"
       style="clip-rule:evenodd;fill-rule:evenodd;image-rendering:optimizeQuality;shape-rendering:geometricPrecision;text-rendering:geometricPrecision"
       transform="matrix(0.29128397,0,0,0.29128397,-105.947,-113.31004)">
      <path
         style="opacity:1"
         fill="#e0ae71"
         d="m 571.5,538.5 c 0.333,0 0.667,0 1,0 0,0.333 0,0.667 0,1 -0.167,39.335 0,78.668 0.5,118 0.667,2.667 1.333,5.333 2,8 4.705,2.146 5.705,5.479 3,10 -0.671,0.752 -1.504,1.086 -2.5,1 -0.667,-0.667 -1.333,-1.333 -2,-2 0,-0.333 0,-0.667 0,-1 1.333,0 2.667,0 4,0 1.075,-4.438 -0.592,-6.438 -5,-6 -0.057,-1.109 -0.39,-2.109 -1,-3 0.876,0.131 1.543,-0.202 2,-1 -0.494,-1.526 -1.161,-2.859 -2,-4 0,-40.333 0,-80.667 0,-121 z"
         id="path517" />
    </g>
    <g
       id="g518"
       style="clip-rule:evenodd;fill-rule:evenodd;image-rendering:optimizeQuality;shape-rendering:geometricPrecision;text-rendering:geometricPrecision"
       transform="matrix(0.29128397,0,0,0.29128397,-105.947,-113.31004)">
      <path
         style="opacity:1"
         fill="#ebd9c5"
         d="m 517.5,541.5 c 0.667,153.333 1.333,153.333 2,0 0.832,25.163 1.332,50.497 1.5,76 0.016,11.381 0.849,22.381 2.5,33 -0.727,2.453 -1.727,4.786 -3,7 -1.542,1.247 -3.042,1.247 -4.5,0 -1.027,-14.877 -1.861,-29.711 -2.5,-44.5 1.323,-0.816 1.989,-1.983 2,-3.5 0,-21.333 0,-42.667 0,-64 -0.271,-1.88 0.396,-3.213 2,-4 z"
         id="path518" />
    </g>
    <g
       id="g519"
       style="clip-rule:evenodd;fill-rule:evenodd;image-rendering:optimizeQuality;shape-rendering:geometricPrecision;text-rendering:geometricPrecision"
       transform="matrix(0.29128397,0,0,0.29128397,-105.947,-113.31004)">
      <path
         style="opacity:1"
         fill="#956e4b"
         d="m 517.5,541.5 c 0.667,0 1.333,0 2,0 -0.667,153.333 -1.333,153.333 -2,0 z"
         id="path519" />
    </g>
    <g
       id="g522"
       style="clip-rule:evenodd;fill-rule:evenodd;image-rendering:optimizeQuality;shape-rendering:geometricPrecision;text-rendering:geometricPrecision"
       transform="matrix(0.29128397,0,0,0.29128397,-105.947,-113.31004)">
      <path
         style="opacity:1"
         fill="#a95c12"
         d="m 479.5,492.5 c 0.846,19.333 1.513,38.833 2,58.5 -1.08,36.161 -1.246,72.328 -0.5,108.5 0.383,0.556 0.883,0.889 1.5,1 -0.317,4.202 0.017,8.202 1,12 0.873,3.077 2.707,5.41 5.5,7 0.278,-0.916 0.778,-1.582 1.5,-2 0.006,2.344 1.173,3.678 3.5,4 26.872,5.21 53.706,5.043 80.5,-0.5 -1.091,-2.834 -2.424,-5.334 -4,-7.5 0.891,0.61 1.891,0.943 3,1 0.667,0.667 1.333,1.333 2,2 -0.219,1.175 0.114,2.175 1,3 3.172,-1.832 5.172,-4.499 6,-8 0.825,-4.147 1.325,-8.481 1.5,-13 0.499,4.989 0.666,9.989 0.5,15 -2.039,4.032 -5.039,7.198 -9,9.5 -20.546,3.104 -41.212,4.271 -62,3.5 -1,0 -2,0 -3,0 -7.225,-1.495 -14.558,-2.995 -22,-4.5 -4.167,-1.5 -7,-4.333 -8.5,-8.5 -0.5,-60.332 -0.667,-120.666 -0.5,-181 z"
         id="path522" />
    </g>
    <g
       id="g523"
       style="clip-rule:evenodd;fill-rule:evenodd;image-rendering:optimizeQuality;shape-rendering:geometricPrecision;text-rendering:geometricPrecision"
       transform="matrix(0.29128397,0,0,0.29128397,-105.947,-113.31004)">
      <path
         style="opacity:1"
         fill="#f5d7af"
         d="m 571.5,659.5 c 0.839,1.141 1.506,2.474 2,4 -0.457,0.798 -1.124,1.131 -2,1 -26.688,0.658 -53.021,-0.009 -79,-2 0,-0.667 0.333,-1 1,-1 25.645,1.991 51.645,2.658 78,2 0,-1.333 0,-2.667 0,-4 z"
         id="path523" />
    </g>
    <g
       id="g525"
       style="clip-rule:evenodd;fill-rule:evenodd;image-rendering:optimizeQuality;shape-rendering:geometricPrecision;text-rendering:geometricPrecision"
       transform="matrix(0.29128397,0,0,0.29128397,-105.947,-113.31004)">
      <path
         style="opacity:1"
         fill="#dcb37e"
         d="m 492.5,662.5 c 25.979,1.991 52.312,2.658 79,2 0.61,0.891 0.943,1.891 1,3 -27.667,0 -55.333,0 -83,0 0,-0.333 0,-0.667 0,-1 1.478,-0.948 2.478,-2.281 3,-4 z"
         id="path525" />
    </g>
    <g
       id="g527"
       style="clip-rule:evenodd;fill-rule:evenodd;image-rendering:optimizeQuality;shape-rendering:geometricPrecision;text-rendering:geometricPrecision"
       transform="matrix(0.29128397,0,0,0.29128397,-105.947,-113.31004)">
      <path
         style="opacity:1"
         fill="#f7ddb6"
         d="m 489.5,667.5 c 27.667,0 55.333,0 83,0 4.408,-0.438 6.075,1.562 5,6 -1.333,0 -2.667,0 -4,0 -0.558,-1.29 -1.558,-2.123 -3,-2.5 -6.339,-0.348 -12.673,-0.182 -19,0.5 1.519,-0.91 3.185,-1.743 5,-2.5 -14.333,-0.667 -28.667,-0.667 -43,0 -1,0.333 -2,0.667 -3,1 3.409,0.996 6.742,1.829 10,2.5 -0.667,0 -1.333,0 -2,0 -5.838,-0.584 -11.671,-1.25 -17.5,-2 -4.216,-0.802 -7.383,0.532 -9.5,4 -0.996,0.086 -1.829,-0.248 -2.5,-1 -0.678,-2.098 -0.511,-4.098 0.5,-6 z"
         id="path527" />
    </g>
    <g
       id="g531"
       style="clip-rule:evenodd;fill-rule:evenodd;image-rendering:optimizeQuality;shape-rendering:geometricPrecision;text-rendering:geometricPrecision"
       transform="matrix(0.29128397,0,0,0.29128397,-105.947,-113.31004)">
      <path
         style="opacity:1"
         fill="#f7e4cd"
         d="m 551.5,671.5 c -10.282,0.952 -20.615,1.286 -31,1 -3.258,-0.671 -6.591,-1.504 -10,-2.5 1,-0.333 2,-0.667 3,-1 14.333,-0.667 28.667,-0.667 43,0 -1.815,0.757 -3.481,1.59 -5,2.5 z"
         id="path531" />
    </g>
    <g
       id="g533"
       style="clip-rule:evenodd;fill-rule:evenodd;image-rendering:optimizeQuality;shape-rendering:geometricPrecision;text-rendering:geometricPrecision"
       transform="matrix(0.29128397,0,0,0.29128397,-105.947,-113.31004)">
      <path
         style="opacity:1"
         fill="#a26630"
         d="m 573.5,673.5 c 0,0.333 0,0.667 0,1 -1.109,-0.057 -2.109,-0.39 -3,-1 -0.812,-1.493 -2.145,-2.16 -4,-2 -16.082,2.723 -32.082,3.39 -48,2 0,-0.333 0,-0.667 0,-1 0.667,0 1.333,0 2,0 10.385,0.286 20.718,-0.048 31,-1 6.327,-0.682 12.661,-0.848 19,-0.5 1.442,0.377 2.442,1.21 3,2.5 z"
         id="path533" />
    </g>
    <g
       id="g536"
       style="clip-rule:evenodd;fill-rule:evenodd;image-rendering:optimizeQuality;shape-rendering:geometricPrecision;text-rendering:geometricPrecision"
       transform="matrix(0.29128397,0,0,0.29128397,-105.947,-113.31004)">
      <path
         style="opacity:1"
         fill="#b75b02"
         d="m 570.5,673.5 c 1.576,2.166 2.909,4.666 4,7.5 -26.794,5.543 -53.628,5.71 -80.5,0.5 -2.327,-0.322 -3.494,-1.656 -3.5,-4 1.796,-1.293 3.463,-2.793 5,-4.5 7.651,0.069 15.318,0.236 23,0.5 15.918,1.39 31.918,0.723 48,-2 1.855,-0.16 3.188,0.507 4,2 z"
         id="path536" />
    </g>
    <g
       id="g538"
       style="clip-rule:evenodd;fill-rule:evenodd;image-rendering:optimizeQuality;shape-rendering:geometricPrecision;text-rendering:geometricPrecision"
       transform="matrix(0.29128397,0,0,0.29128397,-105.947,-113.31004)">
      <path
         style="opacity:1"
         fill="#a45e1f"
         d="m 518.5,672.5 c 0,0.333 0,0.667 0,1 -7.682,-0.264 -15.349,-0.431 -23,-0.5 -1.537,1.707 -3.204,3.207 -5,4.5 0,-0.667 0,-1.333 0,-2 0.667,0 1,-0.333 1,-1 2.117,-3.468 5.284,-4.802 9.5,-4 5.829,0.75 11.662,1.416 17.5,2 z"
         id="path538" />
    </g>
    <g
       id="g545"
       style="clip-rule:evenodd;fill-rule:evenodd;image-rendering:optimizeQuality;shape-rendering:geometricPrecision;text-rendering:geometricPrecision"
       transform="matrix(0.29128397,0,0,0.29128397,-105.947,-113.31004)">
      <path
         style="opacity:1"
         fill="#f3e4d0"
         d="m 480.5,678.5 c 2.236,2.393 4.903,4.227 8,5.5 7.274,1.382 14.607,2.216 22,2.5 1,0 2,0 3,0 20.947,1.782 41.947,0.949 63,-2.5 2.128,-0.655 4.128,-1.489 6,-2.5 -1.173,2.004 -2.84,3.504 -5,4.5 -13.156,1.457 -26.323,2.957 -39.5,4.5 -9.514,-0.975 -19.181,-0.975 -29,0 -8.822,-2.248 -17.656,-4.581 -26.5,-7 -1.505,-1.342 -2.172,-3.008 -2,-5 z"
         id="path545" />
    </g>
  </g>
</svg>
