<?xml version="1.0" encoding="UTF-8" standalone="no"?>
<!-- Created with Inkscape (http://www.inkscape.org/) -->

<svg
   width="96mm"
   height="96mm"
   viewBox="0 0 96 96"
   version="1.1"
   id="svg1"
   inkscape:version="1.4.2 (ebf0e940, 2025-05-08)"
   sodipodi:docname="truck.svg"
   xmlns:inkscape="http://www.inkscape.org/namespaces/inkscape"
   xmlns:sodipodi="http://sodipodi.sourceforge.net/DTD/sodipodi-0.dtd"
   xmlns="http://www.w3.org/2000/svg"
   xmlns:svg="http://www.w3.org/2000/svg">
  <sodipodi:namedview
     id="namedview1"
     pagecolor="#ffffff"
     bordercolor="#000000"
     borderopacity="0.25"
     inkscape:showpageshadow="2"
     inkscape:pageopacity="0.0"
     inkscape:pagecheckerboard="0"
     inkscape:deskcolor="#d1d1d1"
     inkscape:document-units="mm"
     inkscape:zoom="0.80444024"
     inkscape:cx="397.17059"
     inkscape:cy="163.46771"
     inkscape:window-width="1920"
     inkscape:window-height="1052"
     inkscape:window-x="0"
     inkscape:window-y="28"
     inkscape:window-maximized="0"
     inkscape:current-layer="layer1" />
  <defs
     id="defs1" />
  <g
     inkscape:label="Layer 1"
     inkscape:groupmode="layer"
     id="layer1">
    <g
       id="g5"
       style="clip-rule:evenodd;fill-rule:evenodd;image-rendering:optimizeQuality;shape-rendering:geometricPrecision;text-rendering:geometricPrecision"
       transform="matrix(0.33192752,0,0,0.33192752,-360.25447,-7.9845625)">
      <path
         style="opacity:1"
         fill="#f8e3b1"
         d="m 1219.5,44.5 c 7.82,-0.9924 15.82,-1.3257 24,-1 8.67,1.39 17.34,2.89 26,4.5 2.91,1.4055 4.91,3.5722 6,6.5 -2.34,-2.8296 -5.34,-4.6629 -9,-5.5 -7.29,-1.4933 -14.62,-2.66 -22,-3.5 -8.15,-0.9927 -16.48,-1.3261 -25,-1 z"
         id="path5" />
    </g>
    <g
       id="g6"
       style="clip-rule:evenodd;fill-rule:evenodd;image-rendering:optimizeQuality;shape-rendering:geometricPrecision;text-rendering:geometricPrecision"
       transform="matrix(0.33192752,0,0,0.33192752,-360.25447,-7.9845625)">
      <path
         style="opacity:1"
         fill="#d39038"
         d="m 1220.5,46.5 c 7.82,-0.9924 15.82,-1.3257 24,-1 7.38,0.84 14.71,2.0067 22,3.5 3.66,0.8371 6.66,2.6704 9,5.5 1.44,2.1365 2.61,4.4698 3.5,7 0.33,6 0.67,12 1,18 2.31,1.4913 4.81,2.4913 7.5,3 1.52,0.0106 2.68,0.6772 3.5,2 0.5,2.9816 0.66,5.9816 0.5,9 -3.38,0.0405 -6.71,-0.2929 -10,-1 -0.06,-0.5431 -0.39,-0.8764 -1,-1 -1.32,12.16 -1.32,24.16 0,36 0,0.333 0,0.667 0,1 -1.62,-0.538 -3.28,-0.871 -5,-1 -0.17,-13.004 0,-26.004 0.5,-39 15,1.5694 15.17,-0.4306 0.5,-6 -0.99,-5.1405 -1.32,-10.4738 -1,-16 -0.26,-8.5567 -4.59,-13.2233 -13,-14 -2.55,-1.3447 -5.38,-2.0114 -8.5,-2 -13.36,2.2761 -26.86,2.6095 -40.5,1 -0.22,-1.2348 -0.89,-2.2348 -2,-3 0.82,-0.8857 1.82,-1.219 3,-1 0.38,1.4311 1.38,2.2645 3,2.5 10.33,0.6667 20.67,0.6667 31,0 2.67,-1 2.67,-2 0,-3 -9.33,-0.4998 -18.66,-0.6665 -28,-0.5 z"
         id="path6" />
    </g>
    <g
       id="g7"
       style="clip-rule:evenodd;fill-rule:evenodd;image-rendering:optimizeQuality;shape-rendering:geometricPrecision;text-rendering:geometricPrecision"
       transform="matrix(0.33192752,0,0,0.33192752,-360.25447,-7.9845625)">
      <path
         style="opacity:1"
         fill="#e78511"
         d="m 1220.5,46.5 c 9.34,-0.1665 18.67,2e-4 28,0.5 2.67,1 2.67,2 0,3 -10.33,0.6667 -20.67,0.6667 -31,0 -1.62,-0.2355 -2.62,-1.0689 -3,-2.5 1.76,-0.9614 3.76,-1.2947 6,-1 z"
         id="path7" />
    </g>
    <g
       id="g9"
       style="clip-rule:evenodd;fill-rule:evenodd;image-rendering:optimizeQuality;shape-rendering:geometricPrecision;text-rendering:geometricPrecision"
       transform="matrix(0.33192752,0,0,0.33192752,-360.25447,-7.9845625)">
      <path
         style="opacity:1"
         fill="#dea756"
         d="m 1219.5,44.5 c 8.52,-0.3261 16.85,0.0073 25,1 -8.18,-0.3257 -16.18,0.0076 -24,1 -2.24,-0.2947 -4.24,0.0386 -6,1 -1.18,-0.219 -2.18,0.1143 -3,1 1.11,0.7652 1.78,1.7652 2,3 -2.24,-0.2947 -4.24,0.0386 -6,1 -5.41,0.1822 -9.91,2.1822 -13.5,6 -0.49,1.6341 -0.66,3.3008 -0.5,5 -0.67,-1.3333 -1.33,-2.6667 -2,-4 3.41,-5.3779 8.41,-8.2112 15,-8.5 -3.93,-1.8238 -7.93,-1.9904 -12,-0.5 1.18,-1.5672 2.85,-2.4005 5,-2.5 6.71,-0.9762 13.38,-2.1428 20,-3.5 z"
         id="path9" />
    </g>
    <g
       id="g17"
       style="clip-rule:evenodd;fill-rule:evenodd;image-rendering:optimizeQuality;shape-rendering:geometricPrecision;text-rendering:geometricPrecision"
       transform="matrix(0.33192752,0,0,0.33192752,-360.25447,-7.9845625)">
      <path
         style="opacity:1"
         fill="#d38d33"
         d="m 1262.5,52.5 c 3,1.5976 5.83,3.5976 8.5,6 0.68,2.0976 0.51,4.0976 -0.5,6 -0.72,0.4175 -1.22,1.0842 -1.5,2 -0.38,-0.556 -0.88,-0.8893 -1.5,-1 0,-2 -1,-3 -3,-3 -0.33,-0.6667 -0.67,-1.3333 -1,-2 -3.91,-1.2438 -5.91,-3.9105 -6,-8 1.67,0 3.33,0 5,0 z"
         id="path17" />
    </g>
    <g
       id="g18"
       style="clip-rule:evenodd;fill-rule:evenodd;image-rendering:optimizeQuality;shape-rendering:geometricPrecision;text-rendering:geometricPrecision"
       transform="matrix(0.33192752,0,0,0.33192752,-360.25447,-7.9845625)">
      <path
         style="opacity:1"
         fill="#dd8d2a"
         d="m 1207.5,52.5 c 0.01,1.8084 -0.49,3.4751 -1.5,5 -2.74,2.2519 -5.57,4.2519 -8.5,6 -1,0 -2,0 -3,0 -0.33,0 -0.67,0 -1,0 -0.16,-1.6992 0.01,-3.3659 0.5,-5 3.59,-3.8178 8.09,-5.8178 13.5,-6 z"
         id="path18" />
    </g>
    <g
       id="g20"
       style="clip-rule:evenodd;fill-rule:evenodd;image-rendering:optimizeQuality;shape-rendering:geometricPrecision;text-rendering:geometricPrecision"
       transform="matrix(0.33192752,0,0,0.33192752,-360.25447,-7.9845625)">
      <path
         style="opacity:1"
         fill="#f6cd7c"
         d="m 1262.5,52.5 c 8.41,0.7767 12.74,5.4433 13,14 -1.31,-2.0992 -2.98,-2.4326 -5,-1 0,-0.3333 0,-0.6667 0,-1 1.01,-1.9024 1.18,-3.9024 0.5,-6 -2.67,-2.4024 -5.5,-4.4024 -8.5,-6 z"
         id="path20" />
    </g>
    <g
       id="g22"
       style="clip-rule:evenodd;fill-rule:evenodd;image-rendering:optimizeQuality;shape-rendering:geometricPrecision;text-rendering:geometricPrecision"
       transform="matrix(0.33192752,0,0,0.33192752,-360.25447,-7.9845625)">
      <path
         style="opacity:1"
         fill="#e78617"
         d="m 1263.5,60.5 c -1.88,-1.5532 -2.88,-3.5532 -3,-6 2.95,0.4314 5.62,1.5981 8,3.5 0.84,1.0113 1.17,2.1779 1,3.5 -2.06,-0.0172 -4.06,-0.3505 -6,-1 z"
         id="path22" />
    </g>
    <g
       id="g31"
       style="clip-rule:evenodd;fill-rule:evenodd;image-rendering:optimizeQuality;shape-rendering:geometricPrecision;text-rendering:geometricPrecision"
       transform="matrix(0.33192752,0,0,0.33192752,-360.25447,-7.9845625)">
      <path
         style="opacity:1"
         fill="#fae9bf"
         d="m 1275.5,54.5 c 1.33,0.3333 2.67,0.6667 4,1 1.47,7.5709 2.31,15.2375 2.5,23 2.17,0.9881 4,2.3214 5.5,4 -2.69,-0.5087 -5.19,-1.5087 -7.5,-3 -0.33,-6 -0.67,-12 -1,-18 -0.89,-2.5302 -2.06,-4.8635 -3.5,-7 z"
         id="path31" />
    </g>
    <g
       id="g41"
       style="clip-rule:evenodd;fill-rule:evenodd;image-rendering:optimizeQuality;shape-rendering:geometricPrecision;text-rendering:geometricPrecision"
       transform="matrix(0.33192752,0,0,0.33192752,-360.25447,-7.9845625)">
      <path
         style="opacity:1"
         fill="#bc995c"
         d="m 1194.5,63.5 c 1,0 2,0 3,0 -0.4,2.9825 -0.73,5.9825 -1,9 0.06,2.1397 0.72,3.8064 2,5 -1.07,0.9345 -2.4,1.2678 -4,1 0,-5 0,-10 0,-15 z"
         id="path41" />
    </g>
    <g
       id="g43"
       style="clip-rule:evenodd;fill-rule:evenodd;image-rendering:optimizeQuality;shape-rendering:geometricPrecision;text-rendering:geometricPrecision"
       transform="matrix(0.33192752,0,0,0.33192752,-360.25447,-7.9845625)">
      <path
         style="opacity:1"
         fill="#f9f1cf"
         d="m 1262.5,52.5 c -1.67,0 -3.33,0 -5,0 0.09,4.0895 2.09,6.7562 6,8 0.33,0.6667 0.67,1.3333 1,2 1.96,4.0473 2.96,8.3806 3,13 -1.29,0.2373 -2.29,-0.096 -3,-1 0.63,-4.1443 -0.37,-8.1443 -3,-12 -2.87,-2.3719 -5.2,-5.2052 -7,-8.5 -0.83,-0.1667 -1.67,-0.3333 -2.5,-0.5 -13.83,1.0724 -27.67,1.239 -41.5,0.5 -1.6,1.9347 -2.77,4.1013 -3.5,6.5 -1.41,1.9136 -3.25,3.2469 -5.5,4 -0.71,2.5272 -1.38,5.0272 -2,7.5 8.91,-1.2237 17.91,-2.057 27,-2.5 -2.33,0.6667 -4.67,1.3333 -7,2 -5.51,1.1196 -10.84,2.7863 -16,5 -1.79,-0.134 -3.46,0.1993 -5,1 -1.28,-1.1936 -1.94,-2.8603 -2,-5 0.27,-3.0175 0.6,-6.0175 1,-9 2.93,-1.7481 5.76,-3.7481 8.5,-6 1.01,-1.5249 1.51,-3.1916 1.5,-5 1.76,-0.9614 3.76,-1.2947 6,-1 13.64,1.6095 27.14,1.2761 40.5,-1 3.12,-0.0114 5.95,0.6553 8.5,2 z"
         id="path43" />
    </g>
    <g
       id="g44"
       style="clip-rule:evenodd;fill-rule:evenodd;image-rendering:optimizeQuality;shape-rendering:geometricPrecision;text-rendering:geometricPrecision"
       transform="matrix(0.33192752,0,0,0.33192752,-360.25447,-7.9845625)">
      <path
         style="opacity:1"
         fill="#faf9f8"
         d="m 1264.5,74.5 c -2.84,-1.3059 -5.84,-2.4725 -9,-3.5 -9.64,-1.091 -19.3,-1.591 -29,-1.5 -9.09,0.443 -18.09,1.2763 -27,2.5 0.62,-2.4728 1.29,-4.9728 2,-7.5 2.25,-0.7531 4.09,-2.0864 5.5,-4 0.73,-2.3987 1.9,-4.5653 3.5,-6.5 13.83,0.739 27.67,0.5724 41.5,-0.5 0.83,0.1667 1.67,0.3333 2.5,0.5 1.8,3.2948 4.13,6.1281 7,8.5 2.63,3.8557 3.63,7.8557 3,12 z"
         id="path44" />
    </g>
    <g
       id="g45"
       style="clip-rule:evenodd;fill-rule:evenodd;image-rendering:optimizeQuality;shape-rendering:geometricPrecision;text-rendering:geometricPrecision"
       transform="matrix(0.33192752,0,0,0.33192752,-360.25447,-7.9845625)">
      <path
         style="opacity:1"
         fill="#db8c26"
         d="m 1219.5,71.5 c 16.92,-1.344 33.26,0.9894 49,7 0.73,1.2079 1.07,2.5413 1,4 0,0.3333 0,0.6667 0,1 -1.92,2.831 -3.58,5.831 -5,9 -3.21,0.31 -6.21,-0.0233 -9,-1 3.2,0.5356 5.86,-0.131 8,-2 0.62,-2.6542 1.62,-5.1542 3,-7.5 -0.14,-0.772 -0.48,-1.4387 -1,-2 -13.07,-5.0839 -26.74,-7.2505 -41,-6.5 -7.14,0.2671 -14.14,1.2671 -21,3 5.16,-2.2137 10.49,-3.8804 16,-5 z"
         id="path45" />
    </g>
    <g
       id="g47"
       style="clip-rule:evenodd;fill-rule:evenodd;image-rendering:optimizeQuality;shape-rendering:geometricPrecision;text-rendering:geometricPrecision"
       transform="matrix(0.33192752,0,0,0.33192752,-360.25447,-7.9845625)">
      <path
         style="opacity:1"
         fill="#f8e6ba"
         d="m 1264.5,62.5 c 2,0 3,1 3,3 0.87,4.2685 1.21,8.6018 1,13 -15.74,-6.0106 -32.08,-8.344 -49,-7 2.33,-0.6667 4.67,-1.3333 7,-2 9.7,-0.091 19.36,0.409 29,1.5 3.16,1.0275 6.16,2.1941 9,3.5 0.71,0.904 1.71,1.2373 3,1 -0.04,-4.6194 -1.04,-8.9527 -3,-13 z"
         id="path47" />
    </g>
    <g
       id="g48"
       style="clip-rule:evenodd;fill-rule:evenodd;image-rendering:optimizeQuality;shape-rendering:geometricPrecision;text-rendering:geometricPrecision"
       transform="matrix(0.33192752,0,0,0.33192752,-360.25447,-7.9845625)">
      <path
         style="opacity:1"
         fill="#f48501"
         d="m 1224.5,73.5 c 14.26,-0.7505 27.93,1.4161 41,6.5 0.52,0.5613 0.86,1.228 1,2 -1.38,2.3458 -2.38,4.8458 -3,7.5 -2.15,0.3782 -4.31,0.7115 -6.5,1 -17.54,-2.5642 -35.04,-2.5642 -52.5,0 -2.7,-2.8998 -5.03,-6.0665 -7,-9.5 5.23,-1.4283 10.73,-2.9283 16.5,-4.5 0.33,0.3333 0.67,0.6667 1,1 3.19,-1.5204 6.36,-2.8538 9.5,-4 z"
         id="path48" />
    </g>
    <g
       id="g49"
       style="clip-rule:evenodd;fill-rule:evenodd;image-rendering:optimizeQuality;shape-rendering:geometricPrecision;text-rendering:geometricPrecision"
       transform="matrix(0.33192752,0,0,0.33192752,-360.25447,-7.9845625)">
      <path
         style="opacity:1"
         fill="#faf5d9"
         d="m 1275.5,66.5 c -0.32,5.5262 0.01,10.8595 1,16 0.58,2.785 -0.42,4.4517 -3,5 -0.67,0 -1.33,0 -2,0 -1.68,-0.6834 -2.34,-2.0168 -2,-4 0,-0.3333 0,-0.6667 0,-1 0.99,-5.4753 1.32,-11.142 1,-17 2.02,-1.4326 3.69,-1.0992 5,1 z"
         id="path49" />
    </g>
    <g
       id="g52"
       style="clip-rule:evenodd;fill-rule:evenodd;image-rendering:optimizeQuality;shape-rendering:geometricPrecision;text-rendering:geometricPrecision"
       transform="matrix(0.33192752,0,0,0.33192752,-360.25447,-7.9845625)">
      <path
         style="opacity:1"
         fill="#d6923b"
         d="m 1191.5,59.5 c -1.09,1.8594 -1.93,3.8594 -2.5,6 -0.33,5.6667 -0.67,11.3333 -1,17 -2.82,1.1623 -5.65,2.3289 -8.5,3.5 -2.06,1.1855 -2.23,2.3521 -0.5,3.5 2.97,-1.5783 6.14,-2.245 9.5,-2 0.67,0 1,0.3333 1,1 0,13 0,26 0,39 -1.33,0 -2.67,0 -4,0 0,-12 0,-24 0,-36 -1.29,-0.2373 -2.29,0.096 -3,1 -2.63,0.5916 -5.29,0.9249 -8,1 -1.88,-8.4962 1.78,-13.1629 11,-14 -0.17,-6.0092 0,-12.0092 0.5,-18 1.55,-4.7121 4.39,-8.3787 8.5,-11 4.07,-1.4904 8.07,-1.3238 12,0.5 -6.59,0.2888 -11.59,3.1221 -15,8.5 z"
         id="path52" />
    </g>
    <g
       id="g53"
       style="clip-rule:evenodd;fill-rule:evenodd;image-rendering:optimizeQuality;shape-rendering:geometricPrecision;text-rendering:geometricPrecision"
       transform="matrix(0.33192752,0,0,0.33192752,-360.25447,-7.9845625)">
      <path
         style="opacity:1"
         fill="#c4a268"
         d="m 1270.5,64.5 c 0,0.3333 0,0.6667 0,1 0.32,5.858 -0.01,11.5247 -1,17 0.07,-1.4587 -0.27,-2.7921 -1,-4 0.21,-4.3982 -0.13,-8.7315 -1,-13 0.62,0.1107 1.12,0.444 1.5,1 0.28,-0.9158 0.78,-1.5825 1.5,-2 z"
         id="path53" />
    </g>
    <g
       id="g59"
       style="clip-rule:evenodd;fill-rule:evenodd;image-rendering:optimizeQuality;shape-rendering:geometricPrecision;text-rendering:geometricPrecision"
       transform="matrix(0.33192752,0,0,0.33192752,-360.25447,-7.9845625)">
      <path
         style="opacity:1"
         fill="#f8dea8"
         d="m 1191.5,59.5 c 0.67,1.3333 1.33,2.6667 2,4 0.33,0 0.67,0 1,0 0,5 0,10 0,15 0,1.3333 0,2.6667 0,4 -0.83,-5.4851 -1.33,-11.1518 -1.5,-17 -1.39,-1.3146 -2.39,-0.9812 -3,1 -0.33,5.6667 -0.67,11.3333 -1,17 -1.77,1.1819 -1.93,2.5152 -0.5,4 -3.36,-0.245 -6.53,0.4217 -9.5,2 -1.73,-1.1479 -1.56,-2.3145 0.5,-3.5 2.85,-1.1711 5.68,-2.3377 8.5,-3.5 0.33,-5.6667 0.67,-11.3333 1,-17 0.57,-2.1406 1.41,-4.1406 2.5,-6 z"
         id="path59" />
    </g>
    <g
       id="g61"
       style="clip-rule:evenodd;fill-rule:evenodd;image-rendering:optimizeQuality;shape-rendering:geometricPrecision;text-rendering:geometricPrecision"
       transform="matrix(0.33192752,0,0,0.33192752,-360.25447,-7.9845625)">
      <path
         style="opacity:1"
         fill="#faf4da"
         d="m 1243.5,43.5 c -8.18,-0.3257 -16.18,0.0076 -24,1 -6.62,1.3572 -13.29,2.5238 -20,3.5 -2.15,0.0995 -3.82,0.9328 -5,2.5 -4.11,2.6213 -6.95,6.2879 -8.5,11 -0.5,5.9908 -0.67,11.9908 -0.5,18 -9.22,0.8371 -12.88,5.5038 -11,14 2.79,0.9767 5.79,1.31 9,1 0.17,10.339 0,20.672 -0.5,31 -1.04,1.21 -2.21,2.21 -3.5,3 0.13,-1.59 0.79,-2.923 2,-4 1,-9.644 1.33,-19.31 1,-29 -3.05,0.8211 -6.05,0.8211 -9,0 -4.39,-5.0662 -4.39,-9.8996 0,-14.5 3.24,-0.232 5.74,-1.732 7.5,-4.5 0.59,-5.6753 1.26,-11.342 2,-17 2.75,-5.7524 6.92,-10.2524 12.5,-13.5 16,-3.5273 32,-4.3607 48,-2.5 z"
         id="path61" />
    </g>
    <g
       id="g62"
       style="clip-rule:evenodd;fill-rule:evenodd;image-rendering:optimizeQuality;shape-rendering:geometricPrecision;text-rendering:geometricPrecision"
       transform="matrix(0.33192752,0,0,0.33192752,-360.25447,-7.9845625)">
      <path
         style="opacity:1"
         fill="#e58817"
         d="m 1224.5,73.5 c -3.14,1.1462 -6.31,2.4796 -9.5,4 -0.33,-0.3333 -0.67,-0.6667 -1,-1 -5.77,1.5717 -11.27,3.0717 -16.5,4.5 1.97,3.4335 4.3,6.6002 7,9.5 17.46,-2.5642 34.96,-2.5642 52.5,0 2.19,-0.2885 4.35,-0.6218 6.5,-1 -2.14,1.869 -4.8,2.5356 -8,2 -12.15,-1.2356 -24.15,-1.2356 -36,0 -2.67,0 -5.33,0 -8,0 -2.99,0.6346 -5.99,0.8013 -9,0.5 -1.93,-2.7375 -3.93,-5.2375 -6,-7.5 -0.67,-0.6667 -1.33,-1.3333 -2,-2 0,-1.3333 0,-2.6667 0,-4 1.6,0.2678 2.93,-0.0655 4,-1 1.54,-0.8007 3.21,-1.134 5,-1 6.86,-1.7329 13.86,-2.7329 21,-3 z"
         id="path62" />
    </g>
    <g
       id="g65"
       style="clip-rule:evenodd;fill-rule:evenodd;image-rendering:optimizeQuality;shape-rendering:geometricPrecision;text-rendering:geometricPrecision"
       transform="matrix(0.33192752,0,0,0.33192752,-360.25447,-7.9845625)">
      <path
         style="opacity:1"
         fill="#d59035"
         d="m 1196.5,84.5 c 2.07,2.2625 4.07,4.7625 6,7.5 3.01,0.3013 6.01,0.1346 9,-0.5 -2.96,2.4737 -6.29,3.1404 -10,2 -2.12,-2.7794 -3.79,-5.7794 -5,-9 z"
         id="path65" />
    </g>
    <g
       id="g66"
       style="clip-rule:evenodd;fill-rule:evenodd;image-rendering:optimizeQuality;shape-rendering:geometricPrecision;text-rendering:geometricPrecision"
       transform="matrix(0.33192752,0,0,0.33192752,-360.25447,-7.9845625)">
      <path
         style="opacity:1"
         fill="#f6d898"
         d="m 1269.5,83.5 c -0.34,1.9832 0.32,3.3166 2,4 -1.42,1.422 -2.42,3.0887 -3,5 -1.29,0.5577 -2.12,1.5577 -2.5,3 -0.5,7.993 -0.67,15.993 -0.5,24 -0.99,-7.816 -1.33,-15.816 -1,-24 -2.56,0.3016 -4.89,-0.0318 -7,-1 2.03,0.1621 4.03,-0.0045 6,-0.5 0.56,-0.3826 0.89,-0.8826 1,-1.5 1.42,-3.169 3.08,-6.169 5,-9 z"
         id="path66" />
    </g>
    <g
       id="g75"
       style="clip-rule:evenodd;fill-rule:evenodd;image-rendering:optimizeQuality;shape-rendering:geometricPrecision;text-rendering:geometricPrecision"
       transform="matrix(0.33192752,0,0,0.33192752,-360.25447,-7.9845625)">
      <path
         style="opacity:1"
         fill="#f9e9bc"
         d="m 1182.5,92.5 c 1.98,11.285 2.65,22.952 2,35 -1.67,1.333 -3.33,2.667 -5,4 0,-1 0,-2 0,-3 1.29,-0.79 2.46,-1.79 3.5,-3 0.5,-10.328 0.67,-20.661 0.5,-31 -3.21,0.31 -6.21,-0.0233 -9,-1 2.71,-0.0751 5.37,-0.4084 8,-1 z"
         id="path75" />
    </g>
    <g
       id="g76"
       style="clip-rule:evenodd;fill-rule:evenodd;image-rendering:optimizeQuality;shape-rendering:geometricPrecision;text-rendering:geometricPrecision"
       transform="matrix(0.33192752,0,0,0.33192752,-360.25447,-7.9845625)">
      <path
         style="opacity:1"
         fill="#dda14e"
         d="m 1271.5,87.5 c 0.67,0 1.33,0 2,0 0.33,12.511 0,24.845 -1,37 0.33,-11.353 0,-22.686 -1,-34 -1.02,0.6925 -2.02,1.3592 -3,2 0.58,-1.9113 1.58,-3.578 3,-5 z"
         id="path76" />
    </g>
    <g
       id="g80"
       style="clip-rule:evenodd;fill-rule:evenodd;image-rendering:optimizeQuality;shape-rendering:geometricPrecision;text-rendering:geometricPrecision"
       transform="matrix(0.33192752,0,0,0.33192752,-360.25447,-7.9845625)">
      <path
         style="opacity:1"
         fill="#e4b05b"
         d="m 1197.5,94.5 c -1.83,-2.4572 -3.5,-2.4572 -5,0 0,1.3333 0,2.6667 0,4 -0.99,8.15 -1.33,16.483 -1,25 -1.26,-11.519 -1.26,-23.186 0,-35 0.4,-1.025 1.06,-1.1917 2,-0.5 1.59,2.0693 2.92,4.236 4,6.5 z"
         id="path80" />
    </g>
    <g
       id="g81"
       style="clip-rule:evenodd;fill-rule:evenodd;image-rendering:optimizeQuality;shape-rendering:geometricPrecision;text-rendering:geometricPrecision"
       transform="matrix(0.33192752,0,0,0.33192752,-360.25447,-7.9845625)">
      <path
         style="opacity:1"
         fill="#f9efc8"
         d="m 1194.5,82.5 c 0.67,0.6667 1.33,1.3333 2,2 1.21,3.2206 2.88,6.2206 5,9 3.71,1.1404 7.04,0.4737 10,-2 2.67,0 5.33,0 8,0 9.01,-0.1664 18.01,2e-4 27,0.5 3.93,0.2415 7.6,1.0749 11,2.5 -14.94,-1.894 -29.94,-2.394 -45,-1.5 -1.09,1.5501 -2.42,2.7168 -4,3.5 -2.29,-0.2564 -4.46,0.0769 -6.5,1 -0.02,7.909 -0.86,15.575 -2.5,23 0.17,-8.34 0,-16.673 -0.5,-25 -0.38,-0.556 -0.88,-0.8893 -1.5,-1 -1.08,-2.264 -2.41,-4.4307 -4,-6.5 -0.94,-0.6917 -1.6,-0.525 -2,0.5 -0.67,0 -1.33,0 -2,0 0,-0.6667 -0.33,-1 -1,-1 -1.43,-1.4848 -1.27,-2.8181 0.5,-4 0.33,-5.6667 0.67,-11.3333 1,-17 0.61,-1.9812 1.61,-2.3146 3,-1 0.17,5.8482 0.67,11.5149 1.5,17 z"
         id="path81" />
    </g>
    <g
       id="g86"
       style="clip-rule:evenodd;fill-rule:evenodd;image-rendering:optimizeQuality;shape-rendering:geometricPrecision;text-rendering:geometricPrecision"
       transform="matrix(0.33192752,0,0,0.33192752,-360.25447,-7.9845625)">
      <path
         style="opacity:1"
         fill="#eec786"
         d="m 1281.5,92.5 c -0.99,11.488 -1.33,23.155 -1,35 -1.32,-11.84 -1.32,-23.84 0,-36 0.61,0.1236 0.94,0.4569 1,1 z"
         id="path86" />
    </g>
    <g
       id="g88"
       style="clip-rule:evenodd;fill-rule:evenodd;image-rendering:optimizeQuality;shape-rendering:geometricPrecision;text-rendering:geometricPrecision"
       transform="matrix(0.33192752,0,0,0.33192752,-360.25447,-7.9845625)">
      <path
         style="opacity:1"
         fill="#e8c07e"
         d="m 1182.5,92.5 c 0.71,-0.904 1.71,-1.2373 3,-1 0,12 0,24 0,36 -0.33,0 -0.67,0 -1,0 0.65,-12.048 -0.02,-23.715 -2,-35 z"
         id="path88" />
    </g>
    <g
       id="g101"
       style="clip-rule:evenodd;fill-rule:evenodd;image-rendering:optimizeQuality;shape-rendering:geometricPrecision;text-rendering:geometricPrecision"
       transform="matrix(0.33192752,0,0,0.33192752,-360.25447,-7.9845625)">
      <path
         style="opacity:1"
         fill="#f9e2a3"
         d="m 1276.5,82.5 c 14.67,5.5694 14.5,7.5694 -0.5,6 -0.5,12.996 -0.67,25.996 -0.5,39 -28.67,0 -57.33,0 -86,0 0,-13 0,-26 0,-39 0.67,0 1.33,0 2,0 -1.26,11.814 -1.26,23.481 0,35 0.77,0.647 1.77,0.98 3,1 2.19,-0.271 3.86,-1.271 5,-3 -0.34,1.983 0.32,3.317 2,4 10.66,0.667 21.49,1 32.5,1 11.19,-0.001 22.02,-0.668 32.5,-2 2.11,1.242 4.11,1.242 6,0 1,-12.155 1.33,-24.489 1,-37 2.58,-0.5483 3.58,-2.215 3,-5 z"
         id="path101" />
    </g>
    <g
       id="g102"
       style="clip-rule:evenodd;fill-rule:evenodd;image-rendering:optimizeQuality;shape-rendering:geometricPrecision;text-rendering:geometricPrecision"
       transform="matrix(0.33192752,0,0,0.33192752,-360.25447,-7.9845625)">
      <path
         style="opacity:1"
         fill="#db8f2c"
         d="m 1197.5,94.5 c 0.62,0.1107 1.12,0.444 1.5,1 0.5,8.327 0.67,16.66 0.5,25 0,0.333 0,0.667 0,1 -1.14,1.729 -2.81,2.729 -5,3 -1.23,-0.02 -2.23,-0.353 -3,-1 -0.33,-8.517 0.01,-16.85 1,-25 -0.04,7.687 0.29,15.354 1,23 1,0 2,0 3,0 0.99,-7.977 1.16,-15.977 0.5,-24 -0.59,-2.3633 -2.09,-3.3633 -4.5,-3 1.5,-2.4572 3.17,-2.4572 5,0 z"
         id="path102" />
    </g>
    <g
       id="g103"
       style="clip-rule:evenodd;fill-rule:evenodd;image-rendering:optimizeQuality;shape-rendering:geometricPrecision;text-rendering:geometricPrecision"
       transform="matrix(0.33192752,0,0,0.33192752,-360.25447,-7.9845625)">
      <path
         style="opacity:1"
         fill="#d48729"
         d="m 1272.5,124.5 c -1.89,1.242 -3.89,1.242 -6,0 -0.54,-1.617 -0.87,-3.284 -1,-5 -0.17,-8.007 0,-16.007 0.5,-24 0.38,-1.4423 1.21,-2.4423 2.5,-3 0.98,-0.6408 1.98,-1.3075 3,-2 1,11.314 1.33,22.647 1,34 z"
         id="path103" />
    </g>
    <g
       id="g104"
       style="clip-rule:evenodd;fill-rule:evenodd;image-rendering:optimizeQuality;shape-rendering:geometricPrecision;text-rendering:geometricPrecision"
       transform="matrix(0.33192752,0,0,0.33192752,-360.25447,-7.9845625)">
      <path
         style="opacity:1"
         fill="#ed880b"
         d="m 1192.5,94.5 c 2.41,-0.3633 3.91,0.6367 4.5,3 0.66,8.023 0.49,16.023 -0.5,24 -1,0 -2,0 -3,0 -0.71,-7.646 -1.04,-15.313 -1,-23 0,-1.3333 0,-2.6667 0,-4 z"
         id="path104" />
    </g>
    <g
       id="g105"
       style="clip-rule:evenodd;fill-rule:evenodd;image-rendering:optimizeQuality;shape-rendering:geometricPrecision;text-rendering:geometricPrecision"
       transform="matrix(0.33192752,0,0,0.33192752,-360.25447,-7.9845625)">
      <path
         style="opacity:1"
         fill="#ee860e"
         d="m 1268.5,93.5 c 1,0 2,0 3,0 0,9.667 0,19.333 0,29 -1.64,0.214 -3.14,-0.12 -4.5,-1 -0.67,-8 -0.67,-16 0,-24 0.41,-1.4007 0.91,-2.734 1.5,-4 z"
         id="path105" />
    </g>
    <g
       id="g106"
       style="clip-rule:evenodd;fill-rule:evenodd;image-rendering:optimizeQuality;shape-rendering:geometricPrecision;text-rendering:geometricPrecision"
       transform="matrix(0.33192752,0,0,0.33192752,-360.25447,-7.9845625)">
      <path
         style="opacity:1"
         fill="#faf8df"
         d="m 1257.5,94.5 c 2.11,0.9682 4.44,1.3016 7,1 -0.33,8.184 0.01,16.184 1,24 0.13,1.716 0.46,3.383 1,5 -10.48,1.332 -21.31,1.999 -32.5,2 -11.01,0 -21.84,-0.333 -32.5,-1 20,0.167 40,0 60,-0.5 1.02,-0.519 1.68,-1.353 2,-2.5 -0.77,-7.638 -1.27,-15.305 -1.5,-23 -9.34,-4.2912 -19.18,-5.9578 -29.5,-5 -8.09,-0.1314 -16.09,0.5352 -24,2 1.58,-0.7832 2.91,-1.9499 4,-3.5 15.06,-0.894 30.06,-0.394 45,1.5 z"
         id="path106" />
    </g>
    <g
       id="g107"
       style="clip-rule:evenodd;fill-rule:evenodd;image-rendering:optimizeQuality;shape-rendering:geometricPrecision;text-rendering:geometricPrecision"
       transform="matrix(0.33192752,0,0,0.33192752,-360.25447,-7.9845625)">
      <path
         style="opacity:1"
         fill="#faf9f9"
         d="m 1201.5,125.5 c -1.68,-0.683 -2.34,-2.017 -2,-4 0,-0.333 0,-0.667 0,-1 1.64,-7.425 2.48,-15.091 2.5,-23 2.04,-0.9231 4.21,-1.2564 6.5,-1 7.91,-1.4648 15.91,-2.1314 24,-2 10.32,-0.9578 20.16,0.7088 29.5,5 0.23,7.695 0.73,15.362 1.5,23 -0.32,1.147 -0.98,1.981 -2,2.5 -20,0.5 -40,0.667 -60,0.5 z"
         id="path107" />
    </g>
    <g
       id="g108"
       style="clip-rule:evenodd;fill-rule:evenodd;image-rendering:optimizeQuality;shape-rendering:geometricPrecision;text-rendering:geometricPrecision"
       transform="matrix(0.33192752,0,0,0.33192752,-360.25447,-7.9845625)">
      <path
         style="opacity:1"
         fill="#dca14d"
         d="m 1219.5,91.5 c 11.85,-1.2356 23.85,-1.2356 36,0 2.79,0.9767 5.79,1.31 9,1 -0.11,0.6174 -0.44,1.1174 -1,1.5 -1.97,0.4955 -3.97,0.6621 -6,0.5 -3.4,-1.4251 -7.07,-2.2585 -11,-2.5 -8.99,-0.4998 -17.99,-0.6664 -27,-0.5 z"
         id="path108" />
    </g>
    <g
       id="g110"
       style="clip-rule:evenodd;fill-rule:evenodd;image-rendering:optimizeQuality;shape-rendering:geometricPrecision;text-rendering:geometricPrecision"
       transform="matrix(0.33192752,0,0,0.33192752,-360.25447,-7.9845625)">
      <path
         style="opacity:1"
         fill="#e68b1f"
         d="m 1185.5,127.5 c 1.33,0 2.67,0 4,0 28.67,0 57.33,0 86,0 1.72,0.129 3.38,0.462 5,1 0.33,0 0.67,0 1,0 0.19,1.696 1.02,3.029 2.5,4 0.5,48.999 0.67,97.999 0.5,147 -0.7,-11.359 -1.36,-22.859 -2,-34.5 0.99,-25.362 1.33,-50.862 1,-76.5 -0.63,-3.867 -1.3,-7.7 -2,-11.5 0.5,-5.557 0.83,-11.057 1,-16.5 -0.01,-3.092 -0.51,-6.092 -1.5,-9 -30.43,-0.829 -60.93,-1.329 -91.5,-1.5 -0.53,-0.692 -1.19,-1.192 -2,-1.5 -3.57,2.215 -5.91,5.215 -7,9 -0.16,-1.699 0.01,-3.366 0.5,-5 1.71,-1.537 3.21,-3.204 4.5,-5 z"
         id="path110" />
    </g>
    <g
       id="g164"
       style="clip-rule:evenodd;fill-rule:evenodd;image-rendering:optimizeQuality;shape-rendering:geometricPrecision;text-rendering:geometricPrecision"
       transform="matrix(0.33192752,0,0,0.33192752,-360.25447,-7.9845625)">
      <path
         style="opacity:1"
         fill="#faeec6"
         d="m 1179.5,128.5 c 0,1 0,2 0,3 -0.67,25.664 -1,51.498 -1,77.5 -0.16,26.585 0.34,53.085 1.5,79.5 1.02,0.854 1.86,1.854 2.5,3 32.99,1 65.99,1.333 99,1 0.67,0 1.33,0 2,0 -0.33,0.667 -0.67,1.333 -1,2 -33,0 -66,0 -99,0 -2.27,-1.267 -4.27,-2.933 -6,-5 -1.17,-53.33 -1.33,-106.664 -0.5,-160 0.67,-0.752 1.5,-1.086 2.5,-1 z"
         id="path164" />
    </g>
    <g
       id="g182"
       style="clip-rule:evenodd;fill-rule:evenodd;image-rendering:optimizeQuality;shape-rendering:geometricPrecision;text-rendering:geometricPrecision"
       transform="matrix(0.33192752,0,0,0.33192752,-360.25447,-7.9845625)">
      <path
         style="opacity:1"
         fill="#f9ebbe"
         d="m 1285.5,131.5 c 0.62,0.111 1.12,0.444 1.5,1 0.5,51.999 0.67,103.999 0.5,156 -1,1.667 -2.33,3 -4,4 -0.67,0 -1.33,0 -2,0 1.67,-1.84 3.17,-3.84 4.5,-6 0.82,-51.708 0.66,-103.374 -0.5,-155 z"
         id="path182" />
    </g>
    <g
       id="g248"
       style="clip-rule:evenodd;fill-rule:evenodd;image-rendering:optimizeQuality;shape-rendering:geometricPrecision;text-rendering:geometricPrecision"
       transform="matrix(0.33192752,0,0,0.33192752,-360.25447,-7.9845625)">
      <path
         style="opacity:1"
         fill="#faf5de"
         d="m 1279.5,55.5 c 1.72,1.0739 2.72,2.7406 3,5 -0.21,0.586 -0.54,1.086 -1,1.5 0.81,4.7488 1.31,9.5821 1.5,14.5 3.08,2.125 6.25,4.125 9.5,6 4.51,10.3175 1.18,14.9842 -10,14 -0.17,10.006 0,20.006 0.5,30 1,2.333 2.67,4 5,5 0.83,52.502 0.67,104.835 -0.5,157 0.17,-52.001 0,-104.001 -0.5,-156 -0.38,-0.556 -0.88,-0.889 -1.5,-1 -1.33,-1 -2.67,-2 -4,-3 -0.33,0 -0.67,0 -1,0 0,-0.333 0,-0.667 0,-1 -0.33,-11.845 0.01,-23.512 1,-35 3.29,0.7071 6.62,1.0405 10,1 0.16,-3.0184 0,-6.0184 -0.5,-9 -0.82,-1.3228 -1.98,-1.9894 -3.5,-2 -1.5,-1.6786 -3.33,-3.0119 -5.5,-4 -0.19,-7.7625 -1.03,-15.4291 -2.5,-23 z"
         id="path248" />
    </g>
    <g
       id="g300"
       style="clip-rule:evenodd;fill-rule:evenodd;image-rendering:optimizeQuality;shape-rendering:geometricPrecision;text-rendering:geometricPrecision"
       transform="matrix(0.33192752,0,0,0.33192752,-360.25447,-7.9845625)">
      <path
         style="opacity:1"
         fill="#d8933a"
         d="m 1184.5,127.5 c 0.33,0 0.67,0 1,0 -1.29,1.796 -2.79,3.463 -4.5,5 -0.49,1.634 -0.66,3.301 -0.5,5 -0.17,50.001 0,100.001 0.5,150 1.83,1.574 3.99,2.407 6.5,2.5 4.32,0.499 8.65,0.666 13,0.5 27,0.167 54,0 81,-0.5 2.53,-2.642 3.53,-5.808 3,-9.5 0,-0.333 0,-0.667 0,-1 0.17,-49.001 0,-98.001 -0.5,-147 -1.48,-0.971 -2.31,-2.304 -2.5,-4 1.33,1 2.67,2 4,3 1.16,51.626 1.32,103.292 0.5,155 -1.33,2.16 -2.83,4.16 -4.5,6 -33.01,0.333 -66.01,0 -99,-1 -0.64,-1.146 -1.48,-2.146 -2.5,-3 -1.16,-26.415 -1.66,-52.915 -1.5,-79.5 0,-26.002 0.33,-51.836 1,-77.5 1.67,-1.333 3.33,-2.667 5,-4 z"
         id="path300" />
    </g>
    <g
       id="g301"
       style="clip-rule:evenodd;fill-rule:evenodd;image-rendering:optimizeQuality;shape-rendering:geometricPrecision;text-rendering:geometricPrecision"
       transform="matrix(0.33192752,0,0,0.33192752,-360.25447,-7.9845625)">
      <path
         style="opacity:1"
         fill="#ea8712"
         d="m 1186.5,157.5 c -0.66,42.347 0.01,84.347 2,126 0,0.667 0.33,1 1,1 29.21,1.329 58.54,1.329 88,0 1,-22.657 1.33,-45.324 1,-68 0.83,21.496 1.33,43.163 1.5,65 0.71,1.473 1.88,2.14 3.5,2 -0.24,-1.291 0.1,-2.291 1,-3 0.53,3.692 -0.47,6.858 -3,9.5 -27,0.5 -54,0.667 -81,0.5 0.9,-0.658 1.9,-1.324 3,-2 -5.41,-0.597 -10.74,-1.431 -16,-2.5 -1.62,-2.166 -2.45,-4.666 -2.5,-7.5 -1.54,-40.465 -1.04,-80.798 1.5,-121 z"
         id="path301" />
    </g>
    <g
       id="g302"
       style="clip-rule:evenodd;fill-rule:evenodd;image-rendering:optimizeQuality;shape-rendering:geometricPrecision;text-rendering:geometricPrecision"
       transform="matrix(0.33192752,0,0,0.33192752,-360.25447,-7.9845625)">
      <path
         style="opacity:1"
         fill="#f7dea9"
         d="m 1277.5,137.5 c 0.33,48.671 0,97.338 -1,146 -28.96,0.992 -57.96,1.325 -87,1 -0.67,0 -1,-0.333 -1,-1 0,-48.667 0,-97.333 0,-146 29.67,0 59.33,0 89,0 z"
         id="path302" />
    </g>
    <g
       id="g303"
       style="clip-rule:evenodd;fill-rule:evenodd;image-rendering:optimizeQuality;shape-rendering:geometricPrecision;text-rendering:geometricPrecision"
       transform="matrix(0.33192752,0,0,0.33192752,-360.25447,-7.9845625)">
      <path
         style="opacity:1"
         fill="#f18608"
         d="m 1284.5,279.5 c 0,0.333 0,0.667 0,1 -0.9,0.709 -1.24,1.709 -1,3 -1.62,0.14 -2.79,-0.527 -3.5,-2 -0.17,-21.837 -0.67,-43.504 -1.5,-65 0.33,-26.505 0,-52.839 -1,-79 -0.11,-0.617 -0.44,-1.117 -1,-1.5 -29.67,-0.667 -59.33,-0.667 -89,0 -0.98,7.079 -1.31,14.245 -1,21.5 -2.54,40.202 -3.04,80.535 -1.5,121 0.05,2.834 0.88,5.334 2.5,7.5 5.26,1.069 10.59,1.903 16,2.5 -1.1,0.676 -2.1,1.342 -3,2 -4.35,0.166 -8.68,-10e-4 -13,-0.5 -2.51,-0.093 -4.67,-0.926 -6.5,-2.5 -0.5,-49.999 -0.67,-99.999 -0.5,-150 1.09,-3.785 3.43,-6.785 7,-9 0.81,0.308 1.47,0.808 2,1.5 30.57,0.171 61.07,0.671 91.5,1.5 0.99,2.908 1.49,5.908 1.5,9 -0.17,5.443 -0.5,10.943 -1,16.5 0.7,3.8 1.37,7.633 2,11.5 0.33,25.638 -0.01,51.138 -1,76.5 0.64,11.641 1.3,23.141 2,34.5 z"
         id="path303" />
    </g>
    <g
       id="g304"
       style="clip-rule:evenodd;fill-rule:evenodd;image-rendering:optimizeQuality;shape-rendering:geometricPrecision;text-rendering:geometricPrecision"
       transform="matrix(0.33192752,0,0,0.33192752,-360.25447,-7.9845625)">
      <path
         style="opacity:1"
         fill="#da9438"
         d="m 1277.5,137.5 c -29.67,0 -59.33,0 -89,0 0,48.667 0,97.333 0,146 -1.99,-41.653 -2.66,-83.653 -2,-126 -0.31,-7.255 0.02,-14.421 1,-21.5 29.67,-0.667 59.33,-0.667 89,0 0.56,0.383 0.89,0.883 1,1.5 z"
         id="path304" />
    </g>
    <g
       id="g305"
       style="clip-rule:evenodd;fill-rule:evenodd;image-rendering:optimizeQuality;shape-rendering:geometricPrecision;text-rendering:geometricPrecision"
       transform="matrix(0.33192752,0,0,0.33192752,-360.25447,-7.9845625)">
      <path
         style="opacity:1"
         fill="#faf9f1"
         d="m 1190.5,139.5 c 28,0 56,0 84,0 0,47.333 0,94.667 0,142 -28,0 -56,0 -84,0 0,-47 0,-94 0,-141 0,-0.333 0,-0.667 0,-1 z"
         id="path305" />
    </g>
    <g
       id="g306"
       style="clip-rule:evenodd;fill-rule:evenodd;image-rendering:optimizeQuality;shape-rendering:geometricPrecision;text-rendering:geometricPrecision"
       transform="matrix(0.33192752,0,0,0.33192752,-360.25447,-7.9845625)">
      <path
         style="opacity:1"
         fill="#cc8022"
         d="m 1277.5,137.5 c 1,26.161 1.33,52.495 1,79 0.33,22.676 0,45.343 -1,68 -29.46,1.329 -58.79,1.329 -88,0 29.04,0.325 58.04,-0.008 87,-1 1,-48.662 1.33,-97.329 1,-146 z"
         id="path306" />
    </g>
    <g
       id="g307"
       style="clip-rule:evenodd;fill-rule:evenodd;image-rendering:optimizeQuality;shape-rendering:geometricPrecision;text-rendering:geometricPrecision"
       transform="matrix(0.33192752,0,0,0.33192752,-360.25447,-7.9845625)">
      <path
         style="opacity:1"
         fill="#faf9df"
         d="m 1190.5,139.5 c 28.16,-0.998 56.5,-1.331 85,-1 0.33,47.836 0,95.503 -1,143 0,-47.333 0,-94.667 0,-142 -28,0 -56,0 -84,0 z"
         id="path307" />
    </g>
    <g
       id="g308"
       style="clip-rule:evenodd;fill-rule:evenodd;image-rendering:optimizeQuality;shape-rendering:geometricPrecision;text-rendering:geometricPrecision"
       transform="matrix(0.33192752,0,0,0.33192752,-360.25447,-7.9845625)">
      <path
         style="opacity:1"
         fill="#faf7e0"
         d="m 1190.5,140.5 c 0,47 0,94 0,141 28,0 56,0 84,0 -28.16,0.998 -56.5,1.331 -85,1 -0.33,-47.503 0,-94.836 1,-142 z"
         id="path308" />
    </g>
    <g
       id="g309"
       style="clip-rule:evenodd;fill-rule:evenodd;image-rendering:optimizeQuality;shape-rendering:geometricPrecision;text-rendering:geometricPrecision"
       transform="matrix(0.33192752,0,0,0.33192752,-360.25447,-7.9845625)">
      <path
         style="opacity:1"
         fill="#f9faf9"
         d="m 1192.5,140.5 c 26.71,-0.324 53.38,0.009 80,1 0.94,35.586 1.27,71.419 1,107.5 -0.17,8.167 -0.33,16.333 -0.5,24.5 -0.24,2.264 -0.74,4.431 -1.5,6.5 -26.66,0.5 -53.33,0.667 -80,0.5 -0.13,-46.597 0.2,-93.264 1,-140 z"
         id="path309" />
    </g>
    <g
       id="g313"
       style="clip-rule:evenodd;fill-rule:evenodd;image-rendering:optimizeQuality;shape-rendering:geometricPrecision;text-rendering:geometricPrecision"
       transform="matrix(0.33192752,0,0,0.33192752,-360.25447,-7.9845625)">
      <path
         style="opacity:1"
         fill="#faf9e9"
         d="m 1183.5,294.5 c 33,0 66,0 99,0 -2.24,1.187 -4.74,1.854 -7.5,2 -30.57,-0.475 -61.07,-1.141 -91.5,-2 z"
         id="path313" />
    </g>
  </g>
</svg>
