<?xml version="1.0" encoding="UTF-8" standalone="no"?>
<!-- Created with Inkscape (http://www.inkscape.org/) -->

<svg
   width="96mm"
   height="96mm"
   viewBox="0 0 96 96"
   version="1.1"
   id="svg1"
   inkscape:version="1.4.2 (ebf0e940, 2025-05-08)"
   sodipodi:docname="default.svg"
   xmlns:inkscape="http://www.inkscape.org/namespaces/inkscape"
   xmlns:sodipodi="http://sodipodi.sourceforge.net/DTD/sodipodi-0.dtd"
   xmlns="http://www.w3.org/2000/svg"
   xmlns:svg="http://www.w3.org/2000/svg">
  <sodipodi:namedview
     id="namedview1"
     pagecolor="#ffffff"
     bordercolor="#000000"
     borderopacity="0.25"
     inkscape:showpageshadow="2"
     inkscape:pageopacity="0.0"
     inkscape:pagecheckerboard="0"
     inkscape:deskcolor="#d1d1d1"
     inkscape:document-units="mm"
     inkscape:zoom="0.80444024"
     inkscape:cx="397.17059"
     inkscape:cy="163.46771"
     inkscape:window-width="1920"
     inkscape:window-height="1052"
     inkscape:window-x="0"
     inkscape:window-y="28"
     inkscape:window-maximized="0"
     inkscape:current-layer="layer1" />
  <defs
     id="defs1" />
  <g
     inkscape:label="Layer 1"
     inkscape:groupmode="layer"
     id="layer1">
    <g
       id="g8"
       style="clip-rule:evenodd;fill-rule:evenodd;image-rendering:optimizeQuality;shape-rendering:geometricPrecision;text-rendering:geometricPrecision"
       transform="matrix(0.32741604,0,0,0.32741604,-13.611537,-7.2320974)">
      <path
         style="opacity:1"
         fill="#e6b76f"
         d="m 199.5,49.5 c -10.35,-0.0598 -20.683,0.2735 -31,1 0,-0.3333 0,-0.6667 0,-1 10.492,-1.1153 20.826,-1.1153 31,0 z"
         id="path8" />
    </g>
    <g
       id="g10"
       style="clip-rule:evenodd;fill-rule:evenodd;image-rendering:optimizeQuality;shape-rendering:geometricPrecision;text-rendering:geometricPrecision"
       transform="matrix(0.32741604,0,0,0.32741604,-13.611537,-7.2320974)">
      <path
         style="opacity:1"
         fill="#f8e5b5"
         d="m 220.5,53.5 c -7.13,-1.259 -14.13,-2.5923 -21,-4 -10.174,-1.1153 -20.508,-1.1153 -31,0 1.109,-0.79 2.442,-1.29 4,-1.5 13.772,-1.0857 27.439,-0.419 41,2 2.358,1.2755 4.692,2.4422 7,3.5 z"
         id="path10" />
    </g>
    <g
       id="g19"
       style="clip-rule:evenodd;fill-rule:evenodd;image-rendering:optimizeQuality;shape-rendering:geometricPrecision;text-rendering:geometricPrecision"
       transform="matrix(0.32741604,0,0,0.32741604,-13.611537,-7.2320974)">
      <path
         style="opacity:1"
         fill="#f9e5b4"
         d="m 221.5,53.5 c 5.399,1.0164 10.732,2.3497 16,4 2,1.6667 4,3.3333 6,5 -7.409,-3.0199 -14.743,-6.0199 -22,-9 z"
         id="path19" />
    </g>
    <g
       id="g23"
       style="clip-rule:evenodd;fill-rule:evenodd;image-rendering:optimizeQuality;shape-rendering:geometricPrecision;text-rendering:geometricPrecision"
       transform="matrix(0.32741604,0,0,0.32741604,-13.611537,-7.2320974)">
      <path
         style="opacity:1"
         fill="#d58c2e"
         d="m 165.5,51.5 c -8.38,1.8512 -16.38,4.8512 -24,9 -4.696,1.7253 -9.363,3.392 -14,5 2.427,-2.0576 5.093,-3.8909 8,-5.5 5.543,-1.4379 10.876,-3.4379 16,-6 4.451,-1.9736 9.118,-2.807 14,-2.5 z"
         id="path23" />
    </g>
    <g
       id="g24"
       style="clip-rule:evenodd;fill-rule:evenodd;image-rendering:optimizeQuality;shape-rendering:geometricPrecision;text-rendering:geometricPrecision"
       transform="matrix(0.32741604,0,0,0.32741604,-13.611537,-7.2320974)">
      <path
         style="opacity:1"
         fill="#e48a1e"
         d="m 199.5,49.5 c 6.87,1.4077 13.87,2.741 21,4 0.333,0 0.667,0 1,0 7.257,2.9801 14.591,5.9801 22,9 4,3 8,6 12,9 -9.565,-2.2826 -18.232,-6.4492 -26,-12.5 -7.51,-1.5194 -14.51,-3.5194 -21,-6 -14.576,-1.913 -28.91,-1.5797 -43,1 -2.712,2.025 -5.379,3.3583 -8,4 2.848,2.521 5.848,2.8543 9,1 5.333,-0.1667 10.667,-0.3333 16,-0.5 7.568,-0.2102 14.901,0.4565 22,2 -1.667,0 -3.333,0 -5,0 -1.667,0 -3.333,0 -5,0 -11.961,-1.5245 -23.961,-0.8578 -36,2 -2.286,1.0792 -4.286,2.4125 -6,4 -6.522,1.9241 -12.855,4.4241 -19,7.5 -2.496,1.331 -4.496,3.1644 -6,5.5 -0.333,0 -0.667,0 -1,0 0.271,-1.8117 0.938,-3.4783 2,-5 3.783,-1.0575 7.117,-2.8908 10,-5.5 3.667,-1 7.333,-2 11,-3 1.55,-2.5255 3.717,-4.3588 6.5,-5.5 0.854,-2.1073 0.188,-3.4407 -2,-4 -3.859,2.2306 -8.026,3.5639 -12.5,4 7.62,-4.1488 15.62,-7.1488 24,-9 0.891,-0.6098 1.891,-0.9431 3,-1 10.317,-0.7265 20.65,-1.0598 31,-1 z"
         id="path24" />
    </g>
    <g
       id="g28"
       style="clip-rule:evenodd;fill-rule:evenodd;image-rendering:optimizeQuality;shape-rendering:geometricPrecision;text-rendering:geometricPrecision"
       transform="matrix(0.32741604,0,0,0.32741604,-13.611537,-7.2320974)">
      <path
         style="opacity:1"
         fill="#d9973c"
         d="m 199.5,60.5 c 1.667,0 3.333,0 5,0 6.04,0.7978 11.706,2.4645 17,5 -2.361,-0.1741 -4.694,-0.5074 -7,-1 -5,-1.3333 -10,-2.6667 -15,-4 z"
         id="path28" />
    </g>
    <g
       id="g29"
       style="clip-rule:evenodd;fill-rule:evenodd;image-rendering:optimizeQuality;shape-rendering:geometricPrecision;text-rendering:geometricPrecision"
       transform="matrix(0.32741604,0,0,0.32741604,-13.611537,-7.2320974)">
      <path
         style="opacity:1"
         fill="#f9eabb"
         d="m 168.5,49.5 c 0,0.3333 0,0.6667 0,1 -1.109,0.0569 -2.109,0.3902 -3,1 -4.882,-0.307 -9.549,0.5264 -14,2.5 -5.124,2.5621 -10.457,4.5621 -16,6 -2.907,1.6091 -5.573,3.4424 -8,5.5 -0.992,-0.1716 -1.658,0.1618 -2,1 -2.316,1.3056 -4.65,2.6389 -7,4 0.359,-1.871 1.359,-3.371 3,-4.5 4.396,-2.5269 8.729,-5.0269 13,-7.5 10.809,-4.7232 22.143,-7.7232 34,-9 z"
         id="path29" />
    </g>
    <g
       id="g32"
       style="clip-rule:evenodd;fill-rule:evenodd;image-rendering:optimizeQuality;shape-rendering:geometricPrecision;text-rendering:geometricPrecision"
       transform="matrix(0.32741604,0,0,0.32741604,-13.611537,-7.2320974)">
      <path
         style="opacity:1"
         fill="#d69942"
         d="m 194.5,60.5 c -14.509,-1.0702 -28.509,0.9298 -42,6 1.714,-1.5875 3.714,-2.9208 6,-4 12.039,-2.8578 24.039,-3.5245 36,-2 z"
         id="path32" />
    </g>
    <g
       id="g33"
       style="clip-rule:evenodd;fill-rule:evenodd;image-rendering:optimizeQuality;shape-rendering:geometricPrecision;text-rendering:geometricPrecision"
       transform="matrix(0.32741604,0,0,0.32741604,-13.611537,-7.2320974)">
      <path
         style="opacity:1"
         fill="#faf7e4"
         d="m 214.5,64.5 c 2.306,0.4926 4.639,0.8259 7,1 1.171,0.8446 2.505,1.5113 4,2 3.24,2.451 6.907,4.1176 11,5 1.295,0.9884 2.628,1.9884 4,3 10.342,8.1866 20.342,16.8532 30,26 0,1.333 0,2.667 0,4 -5.086,-5.5885 -10.419,-11.0885 -16,-16.5 -6.039,-4.6779 -12.039,-9.3445 -18,-14 -7.268,-2.0873 -14.268,-4.754 -21,-8 -9.618,-1.5772 -19.285,-2.7439 -29,-3.5 -4.96,0.0658 -9.793,0.7325 -14.5,2 -0.399,-0.2284 -0.565,-0.5618 -0.5,-1 0.418,-0.7216 1.084,-1.2216 2,-1.5 5,-0.1667 10,-0.3333 15,-0.5 8.782,-0.0875 17.448,0.5791 26,2 z"
         id="path33" />
    </g>
    <g
       id="g34"
       style="clip-rule:evenodd;fill-rule:evenodd;image-rendering:optimizeQuality;shape-rendering:geometricPrecision;text-rendering:geometricPrecision"
       transform="matrix(0.32741604,0,0,0.32741604,-13.611537,-7.2320974)">
      <path
         style="opacity:1"
         fill="#faf9f9"
         d="m 270.5,105.5 c 2.908,4.748 6.408,9.082 10.5,13 0.977,2.24 1.477,4.573 1.5,7 5.564,14.822 8.564,30.155 9,46 -1.462,9.978 -2.795,19.978 -4,30 -1.708,5.087 -3.708,10.087 -6,15 -6.663,7.338 -12.33,15.338 -17,24 -2.285,1.96 -4.285,4.126 -6,6.5 -2,0.667 -4,1.333 -6,2 -3.288,2.259 -5.955,5.092 -8,8.5 -3.75,1.863 -7.083,4.197 -10,7 -2.357,-0.163 -4.69,0.003 -7,0.5 -4.053,1.76 -8.053,3.76 -12,6 -17.188,3.571 -34.521,4.405 -52,2.5 -2.894,-2.706 -6.227,-4.873 -10,-6.5 -7.758,-2.267 -15.425,-4.767 -23,-7.5 -1.936,-3.16 -4.603,-5.66 -8,-7.5 -7.88,-8.71 -15.88,-17.21 -24,-25.5 -11.008,-17.195 -16.3414,-36.029 -16,-56.5 0.4468,-10.959 1.7801,-21.792 4,-32.5 1.8812,-8.862 5.5479,-16.862 11,-24 3.635,-2.264 5.468,-5.598 5.5,-10 1.067,-0.691 2.234,-1.191 3.5,-1.5 3.875,-5.9421 8.541,-11.1088 14,-15.5 1.333,-1.6667 2.667,-3.3333 4,-5 0.333,-1 1,-1.6667 2,-2 0.333,0 0.667,0 1,0 9.797,-5.5503 20.131,-10.0503 31,-13.5 4.332,-0.5833 8.665,-1.0833 13,-1.5 -0.065,0.4382 0.101,0.7716 0.5,1 4.707,-1.2675 9.54,-1.9342 14.5,-2 9.715,0.7561 19.382,1.9228 29,3.5 6.732,3.246 13.732,5.9127 21,8 5.961,4.6555 11.961,9.3221 18,14 5.581,5.4115 10.914,10.9115 16,16.5 z"
         id="path34" />
    </g>
    <g
       id="g40"
       style="clip-rule:evenodd;fill-rule:evenodd;image-rendering:optimizeQuality;shape-rendering:geometricPrecision;text-rendering:geometricPrecision"
       transform="matrix(0.32741604,0,0,0.32741604,-13.611537,-7.2320974)">
      <path
         style="opacity:1"
         fill="#dfa452"
         d="m 225.5,67.5 c 4.336,0.3369 8.003,2.0035 11,5 -4.093,-0.8824 -7.76,-2.549 -11,-5 z"
         id="path40" />
    </g>
    <g
       id="g42"
       style="clip-rule:evenodd;fill-rule:evenodd;image-rendering:optimizeQuality;shape-rendering:geometricPrecision;text-rendering:geometricPrecision"
       transform="matrix(0.32741604,0,0,0.32741604,-13.611537,-7.2320974)">
      <path
         style="opacity:1"
         fill="#f9e8ba"
         d="m 194.5,60.5 c 1.667,0 3.333,0 5,0 5,1.3333 10,2.6667 15,4 -8.552,-1.4209 -17.218,-2.0875 -26,-2 -5,0.1667 -10,0.3333 -15,0.5 -0.916,0.2784 -1.582,0.7784 -2,1.5 -4.335,0.4167 -8.668,0.9167 -13,1.5 -10.869,3.4497 -21.203,7.9497 -31,13.5 1.504,-2.3356 3.504,-4.169 6,-5.5 6.145,-3.0759 12.478,-5.5759 19,-7.5 13.491,-5.0702 27.491,-7.0702 42,-6 z"
         id="path42" />
    </g>
    <g
       id="g51"
       style="clip-rule:evenodd;fill-rule:evenodd;image-rendering:optimizeQuality;shape-rendering:geometricPrecision;text-rendering:geometricPrecision"
       transform="matrix(0.32741604,0,0,0.32741604,-13.611537,-7.2320974)">
      <path
         style="opacity:1"
         fill="#f08607"
         d="m 255.5,71.5 c 1.546,2.149 3.212,4.3156 5,6.5 2.777,2.0551 5.777,3.5551 9,4.5 3.055,5.4203 7.055,10.087 12,14 -0.157,1.3734 0.01,2.7068 0.5,4 3.08,3.567 5.913,7.233 8.5,11 0.164,2.687 -0.003,5.354 -0.5,8 -0.423,1.456 -1.256,1.956 -2.5,1.5 -2.947,-5.818 -6.447,-11.318 -10.5,-16.5 -0.483,-0.948 -0.649,-1.948 -0.5,-3 -2.065,-0.017 -4.065,-0.35 -6,-1 0,-0.333 0,-0.6667 0,-1 -0.111,-4.7451 -2.444,-7.5784 -7,-8.5 -2.9,-2.3968 -5.233,-5.2302 -7,-8.5 -3.494,-1.9142 -6.828,-4.0808 -10,-6.5 -3.061,-2.0347 -6.395,-3.2014 -10,-3.5 -2.997,-2.9965 -6.664,-4.6631 -11,-5 -1.495,-0.4887 -2.829,-1.1554 -4,-2 -5.294,-2.5355 -10.96,-4.2022 -17,-5 -7.099,-1.5435 -14.432,-2.2102 -22,-2 -5.333,0.1667 -10.667,0.3333 -16,0.5 -3.152,1.8543 -6.152,1.521 -9,-1 2.621,-0.6417 5.288,-1.975 8,-4 14.09,-2.5797 28.424,-2.913 43,-1 6.49,2.4806 13.49,4.4806 21,6 7.768,6.0508 16.435,10.2174 26,12.5 z"
         id="path51" />
    </g>
    <g
       id="g54"
       style="clip-rule:evenodd;fill-rule:evenodd;image-rendering:optimizeQuality;shape-rendering:geometricPrecision;text-rendering:geometricPrecision"
       transform="matrix(0.32741604,0,0,0.32741604,-13.611537,-7.2320974)">
      <path
         style="opacity:1"
         fill="#d68a2b"
         d="m 255.5,71.5 c 5.265,2.9347 9.932,6.6014 14,11 -3.223,-0.9449 -6.223,-2.4449 -9,-4.5 -1.788,-2.1844 -3.454,-4.351 -5,-6.5 z"
         id="path54" />
    </g>
    <g
       id="g55"
       style="clip-rule:evenodd;fill-rule:evenodd;image-rendering:optimizeQuality;shape-rendering:geometricPrecision;text-rendering:geometricPrecision"
       transform="matrix(0.32741604,0,0,0.32741604,-13.611537,-7.2320974)">
      <path
         style="opacity:1"
         fill="#dd8f2d"
         d="m 236.5,72.5 c 3.605,0.2986 6.939,1.4653 10,3.5 3.172,2.4192 6.506,4.5858 10,6.5 1.767,3.2698 4.1,6.1032 7,8.5 4.556,0.9216 6.889,3.7549 7,8.5 -4.798,-4.2967 -9.465,-8.7967 -14,-13.5 -4.945,-4.1158 -10.279,-7.6158 -16,-10.5 -1.372,-1.0116 -2.705,-2.0116 -4,-3 z"
         id="path55" />
    </g>
    <g
       id="g56"
       style="clip-rule:evenodd;fill-rule:evenodd;image-rendering:optimizeQuality;shape-rendering:geometricPrecision;text-rendering:geometricPrecision"
       transform="matrix(0.32741604,0,0,0.32741604,-13.611537,-7.2320974)">
      <path
         style="opacity:1"
         fill="#faf1d6"
         d="m 306.5,158.5 c -0.333,0 -0.667,0 -1,0 0.2,-8.513 -1.466,-16.513 -5,-24 -1.17,-6.519 -3.503,-12.519 -7,-18 0,-0.333 0,-0.667 0,-1 -1.613,-4.559 -3.779,-8.892 -6.5,-13 -1.331,-2.496 -3.164,-4.4962 -5.5,-6 -3.529,-5.0481 -7.529,-9.7148 -12,-14 -4.068,-4.3986 -8.735,-8.0653 -14,-11 -4,-3 -8,-6 -12,-9 -2,-1.6667 -4,-3.3333 -6,-5 2.006,-0.6664 3.84,-0.6664 5.5,0 2.521,3.0183 5.688,5.1849 9.5,6.5 3.333,2 6,4.6667 8,8 4.872,2.203 9.206,5.203 13,9 2.583,4.0385 5.75,7.5385 9.5,10.5 3.352,7.3889 7.686,14.056 13,20 6.485,14.944 9.985,30.611 10.5,47 z"
         id="path56" />
    </g>
    <g
       id="g57"
       style="clip-rule:evenodd;fill-rule:evenodd;image-rendering:optimizeQuality;shape-rendering:geometricPrecision;text-rendering:geometricPrecision"
       transform="matrix(0.32741604,0,0,0.32741604,-13.611537,-7.2320974)">
      <path
         style="opacity:1"
         fill="#f7dca4"
         d="m 124.5,81.5 c -1.333,1.6667 -2.667,3.3333 -4,5 -4.484,3.0824 -8.817,6.4157 -13,10 0,-0.6667 0,-1.3333 0,-2 5.401,-4.7408 11.067,-9.0741 17,-13 z"
         id="path57" />
    </g>
    <g
       id="g58"
       style="clip-rule:evenodd;fill-rule:evenodd;image-rendering:optimizeQuality;shape-rendering:geometricPrecision;text-rendering:geometricPrecision"
       transform="matrix(0.32741604,0,0,0.32741604,-13.611537,-7.2320974)">
      <path
         style="opacity:1"
         fill="#faeabd"
         d="m 240.5,75.5 c 5.721,2.8842 11.055,6.3842 16,10.5 4.535,4.7033 9.202,9.2033 14,13.5 0,0.3333 0,0.667 0,1 0,0.333 0,0.667 0,1 -9.658,-9.1468 -19.658,-17.8134 -30,-26 z"
         id="path58" />
    </g>
    <g
       id="g67"
       style="clip-rule:evenodd;fill-rule:evenodd;image-rendering:optimizeQuality;shape-rendering:geometricPrecision;text-rendering:geometricPrecision"
       transform="matrix(0.32741604,0,0,0.32741604,-13.611537,-7.2320974)">
      <path
         style="opacity:1"
         fill="#faf4db"
         d="m 134.5,58.5 c -4.271,2.4731 -8.604,4.9731 -13,7.5 -1.641,1.129 -2.641,2.629 -3,4.5 -17.445,12.4398 -30.4454,28.4398 -39,48 -0.6667,0 -1,0.333 -1,1 -1.6667,2 -3.3333,4 -5,6 0.1785,-2.716 0.6785,-5.383 1.5,-8 3.301,-5.769 6.4677,-11.603 9.5,-17.5 10.71,-15.3754 24.043,-28.0421 40,-38 2.118,-0.2602 3.784,-1.2602 5,-3 1.634,-0.4935 3.301,-0.6602 5,-0.5 z"
         id="path67" />
    </g>
    <g
       id="g69"
       style="clip-rule:evenodd;fill-rule:evenodd;image-rendering:optimizeQuality;shape-rendering:geometricPrecision;text-rendering:geometricPrecision"
       transform="matrix(0.32741604,0,0,0.32741604,-13.611537,-7.2320974)">
      <path
         style="opacity:1"
         fill="#d39543"
         d="m 269.5,82.5 c 4.471,4.2852 8.471,8.9519 12,14 -4.945,-3.913 -8.945,-8.5797 -12,-14 z"
         id="path69" />
    </g>
    <g
       id="g70"
       style="clip-rule:evenodd;fill-rule:evenodd;image-rendering:optimizeQuality;shape-rendering:geometricPrecision;text-rendering:geometricPrecision"
       transform="matrix(0.32741604,0,0,0.32741604,-13.611537,-7.2320974)">
      <path
         style="opacity:1"
         fill="#faf5dc"
         d="m 120.5,86.5 c -5.459,4.3912 -10.125,9.5579 -14,15.5 -1.266,0.309 -2.433,0.809 -3.5,1.5 -0.032,4.402 -1.865,7.736 -5.5,10 0.6168,-2.855 1.6168,-5.522 3,-8 1.958,-3.292 4.291,-6.2915 7,-9 4.183,-3.5843 8.516,-6.9176 13,-10 z"
         id="path70" />
    </g>
    <g
       id="g82"
       style="clip-rule:evenodd;fill-rule:evenodd;image-rendering:optimizeQuality;shape-rendering:geometricPrecision;text-rendering:geometricPrecision"
       transform="matrix(0.32741604,0,0,0.32741604,-13.611537,-7.2320974)">
      <path
         style="opacity:1"
         fill="#d9953f"
         d="m 281.5,96.5 c 2.336,1.5038 4.169,3.504 5.5,6 2.721,4.108 4.887,8.441 6.5,13 -1.357,-1.09 -2.357,-2.424 -3,-4 -2.587,-3.767 -5.42,-7.433 -8.5,-11 -0.49,-1.2932 -0.657,-2.6266 -0.5,-4 z"
         id="path82" />
    </g>
    <g
       id="g85"
       style="clip-rule:evenodd;fill-rule:evenodd;image-rendering:optimizeQuality;shape-rendering:geometricPrecision;text-rendering:geometricPrecision"
       transform="matrix(0.32741604,0,0,0.32741604,-13.611537,-7.2320974)">
      <path
         style="opacity:1"
         fill="#d79135"
         d="m 125.5,66.5 c -3.236,3.2971 -6.903,6.1304 -11,8.5 -2.558,4.0599 -5.891,7.2265 -10,9.5 -2.643,4.4768 -6.1433,8.1435 -10.5,11 -4.3454,8.035 -9.1787,15.702 -14.5,23 8.5546,-19.5602 21.555,-35.5602 39,-48 2.35,-1.3611 4.684,-2.6944 7,-4 z"
         id="path85" />
    </g>
    <g
       id="g89"
       style="clip-rule:evenodd;fill-rule:evenodd;image-rendering:optimizeQuality;shape-rendering:geometricPrecision;text-rendering:geometricPrecision"
       transform="matrix(0.32741604,0,0,0.32741604,-13.611537,-7.2320974)">
      <path
         style="opacity:1"
         fill="#da8b28"
         d="m 107.5,94.5 c 0,0.6667 0,1.3333 0,2 -2.709,2.7085 -5.042,5.708 -7,9 -2.3872,2.413 -4.5539,5.08 -6.5,8 -2.0615,5.352 -4.5615,10.352 -7.5,15 1.3014,-7.554 3.9681,-14.554 8,-21 1.0965,-2.035 2.7632,-3.368 5,-4 1.081,-4.5488 3.748,-7.5488 8,-9 z"
         id="path89" />
    </g>
    <g
       id="g91"
       style="clip-rule:evenodd;fill-rule:evenodd;image-rendering:optimizeQuality;shape-rendering:geometricPrecision;text-rendering:geometricPrecision"
       transform="matrix(0.32741604,0,0,0.32741604,-13.611537,-7.2320974)">
      <path
         style="opacity:1"
         fill="#f8e5b7"
         d="m 270.5,101.5 c 3.683,3.525 6.85,7.525 9.5,12 3.181,6.363 6.348,12.696 9.5,19 0.493,2.306 0.826,4.639 1,7 -1.908,-3.856 -3.741,-7.856 -5.5,-12 -0.708,-0.881 -1.542,-1.547 -2.5,-2 -0.023,-2.427 -0.523,-4.76 -1.5,-7 -4.092,-3.918 -7.592,-8.252 -10.5,-13 0,-1.333 0,-2.667 0,-4 z"
         id="path91" />
    </g>
    <g
       id="g92"
       style="clip-rule:evenodd;fill-rule:evenodd;image-rendering:optimizeQuality;shape-rendering:geometricPrecision;text-rendering:geometricPrecision"
       transform="matrix(0.32741604,0,0,0.32741604,-13.611537,-7.2320974)">
      <path
         style="opacity:1"
         fill="#f9ecc6"
         d="m 208.5,140.5 c -1.228,-0.806 -2.228,-1.806 -3,-3 -2.58,-6.168 -5.914,-11.835 -10,-17 -4.898,-13.004 -10.731,-13.337 -17.5,-1 -0.608,1.654 -1.108,3.321 -1.5,5 -7.333,12 -14.667,24 -22,36 0.187,-2.064 0.687,-4.064 1.5,-6 4.657,-5.648 7.991,-11.982 10,-19 5.97,-7.546 10.636,-15.88 14,-25 5.963,-4.386 11.297,-3.72 16,2 3.361,4.433 5.361,9.433 6,15 3.954,3.316 6.121,7.65 6.5,13 z"
         id="path92" />
    </g>
    <g
       id="g93"
       style="clip-rule:evenodd;fill-rule:evenodd;image-rendering:optimizeQuality;shape-rendering:geometricPrecision;text-rendering:geometricPrecision"
       transform="matrix(0.32741604,0,0,0.32741604,-13.611537,-7.2320974)">
      <path
         style="opacity:1"
         fill="#dc8c2b"
         d="m 195.5,120.5 c -2.119,-1.291 -3.785,-3.125 -5,-5.5 -1.845,-1.128 -3.845,-1.628 -6,-1.5 -1.882,4.218 -4.548,7.885 -8,11 0.392,-1.679 0.892,-3.346 1.5,-5 6.769,-12.337 12.602,-12.004 17.5,1 z"
         id="path93" />
    </g>
    <g
       id="g95"
       style="clip-rule:evenodd;fill-rule:evenodd;image-rendering:optimizeQuality;shape-rendering:geometricPrecision;text-rendering:geometricPrecision"
       transform="matrix(0.32741604,0,0,0.32741604,-13.611537,-7.2320974)">
      <path
         style="opacity:1"
         fill="#d38e34"
         d="m 293.5,116.5 c 3.497,5.481 5.83,11.481 7,18 -3.105,-5.639 -5.438,-11.639 -7,-18 z"
         id="path95" />
    </g>
    <g
       id="g97"
       style="clip-rule:evenodd;fill-rule:evenodd;image-rendering:optimizeQuality;shape-rendering:geometricPrecision;text-rendering:geometricPrecision"
       transform="matrix(0.32741604,0,0,0.32741604,-13.611537,-7.2320974)">
      <path
         style="opacity:1"
         fill="#e88916"
         d="m 270.5,101.5 c 0,-0.333 0,-0.667 0,-1 1.935,0.65 3.935,0.983 6,1 -0.149,1.052 0.017,2.052 0.5,3 4.053,5.182 7.553,10.682 10.5,16.5 1.244,0.456 2.077,-0.044 2.5,-1.5 0.497,-2.646 0.664,-5.313 0.5,-8 0.643,1.576 1.643,2.91 3,4 0,0.333 0,0.667 0,1 1.562,6.361 3.895,12.361 7,18 4.341,19.854 5.008,39.854 2,60 -0.491,5.8 -2.157,11.133 -5,16 5.503,-22.748 6.336,-45.748 2.5,-69 -3.505,-1.346 -4.338,-3.68 -2.5,-7 -1.164,-2.995 -2.33,-5.995 -3.5,-9 -0.121,2.227 -0.954,4.06 -2.5,5.5 2.135,4.579 3.135,9.413 3,14.5 -1.299,-4.588 -2.966,-8.921 -5,-13 -3.152,-6.304 -6.319,-12.637 -9.5,-19 -2.65,-4.475 -5.817,-8.475 -9.5,-12 z"
         id="path97" />
    </g>
    <g
       id="g98"
       style="clip-rule:evenodd;fill-rule:evenodd;image-rendering:optimizeQuality;shape-rendering:geometricPrecision;text-rendering:geometricPrecision"
       transform="matrix(0.32741604,0,0,0.32741604,-13.611537,-7.2320974)">
      <path
         style="opacity:1"
         fill="#f9e7b8"
         d="m 100.5,105.5 c -1.3832,2.478 -2.3832,5.145 -3,8 -5.4521,7.138 -9.1188,15.138 -11,24 -0.6667,0 -1.3333,0 -2,0 0.3726,-3.074 1.0392,-6.074 2,-9 2.9385,-4.648 5.4385,-9.648 7.5,-15 1.9461,-2.92 4.1128,-5.587 6.5,-8 z"
         id="path98" />
    </g>
    <g
       id="g99"
       style="clip-rule:evenodd;fill-rule:evenodd;image-rendering:optimizeQuality;shape-rendering:geometricPrecision;text-rendering:geometricPrecision"
       transform="matrix(0.32741604,0,0,0.32741604,-13.611537,-7.2320974)">
      <path
         style="opacity:1"
         fill="#f48801"
         d="m 195.5,120.5 c 1.105,6.986 4.438,12.653 10,17 1.754,6.175 4.587,11.842 8.5,17 0.029,2.867 0.862,5.367 2.5,7.5 2.215,3.7 5.048,7.533 8.5,11.5 3.484,6.143 6.317,12.643 8.5,19.5 -0.333,0.333 -0.667,0.667 -1,1 3.73,1.892 6.063,4.892 7,9 -0.312,2.281 -1.645,3.448 -4,3.5 -4.026,-1.021 -8.026,-2.021 -12,-3 -5.277,-3.964 -11.277,-6.297 -18,-7 -4.493,-3.009 -9.493,-5.176 -15,-6.5 -1.887,-0.78 -3.554,-0.613 -5,0.5 -0.333,0 -0.667,0 -1,0 -2.687,-0.164 -5.354,0.003 -8,0.5 -8.421,3.535 -17.087,6.535 -26,9 -1.985,2.273 -4.652,4.439 -8,6.5 -3,0 -6,0 -9,0 0.792,-6.332 3.292,-11.998 7.5,-17 0.49,-1.293 0.657,-2.627 0.5,-4 5.504,-3.857 8.504,-9.191 9,-16 0.25,-2.174 1.25,-3.841 3,-5 9.166,-12.315 16.833,-25.649 23,-40 3.452,-3.115 6.118,-6.782 8,-11 2.155,-0.128 4.155,0.372 6,1.5 1.215,2.375 2.881,4.209 5,5.5 z"
         id="path99" />
    </g>
    <g
       id="g100"
       style="clip-rule:evenodd;fill-rule:evenodd;image-rendering:optimizeQuality;shape-rendering:geometricPrecision;text-rendering:geometricPrecision"
       transform="matrix(0.32741604,0,0,0.32741604,-13.611537,-7.2320974)">
      <path
         style="opacity:1"
         fill="#f08505"
         d="m 126.5,79.5 c -1,0.3333 -1.667,1 -2,2 -5.933,3.9259 -11.599,8.2592 -17,13 -4.252,1.4512 -6.919,4.4512 -8,9 -2.2368,0.632 -3.9035,1.965 -5,4 -4.0319,6.446 -6.6986,13.446 -8,21 -3.9632,5.622 -5.9632,11.955 -6,19 0,0.333 0,0.667 0,1 -3.7539,14.502 -3.9205,29.169 -0.5,44 0.7083,0.881 1.5416,1.547 2.5,2 -0.165,3.35 0.0017,6.683 0.5,10 2.1366,1.821 2.9699,4.154 2.5,7 2.0563,3.676 3.223,7.676 3.5,12 2.9312,1.069 4.0979,2.902 3.5,5.5 1.8008,0.317 2.1341,0.984 1,2 1.8008,0.317 2.1341,0.984 1,2 2.1857,0.604 2.3524,1.77 0.5,3.5 -2.248,-1.951 -4.4146,-3.951 -6.5,-6 -4.5761,-5.948 -7.9094,-12.614 -10,-20 -1.048,-1.048 -2.048,-2.048 -3,-3 -0.904,-0.709 -1.2373,-1.709 -1,-3 -4.5625,-17.379 -6.0625,-35.046 -4.5,-53 1.9406,-7.652 3.7739,-15.319 5.5,-23 0.4769,-3.155 1.4769,-6.155 3,-9 0,-0.667 0.3333,-1 1,-1 5.3213,-7.298 10.1546,-14.965 14.5,-23 4.3567,-2.8565 7.857,-6.5232 10.5,-11 4.109,-2.2735 7.442,-5.4401 10,-9.5 4.097,-2.3696 7.764,-5.2029 11,-8.5 0.342,-0.8382 1.008,-1.1716 2,-1 4.637,-1.608 9.304,-3.2747 14,-5 4.474,-0.4361 8.641,-1.7694 12.5,-4 2.188,0.5593 2.854,1.8927 2,4 -2.783,1.1412 -4.95,2.9745 -6.5,5.5 -3.667,1 -7.333,2 -11,3 -2.883,2.6092 -6.217,4.4425 -10,5.5 -1.062,1.5217 -1.729,3.1883 -2,5 z"
         id="path100" />
    </g>
    <g
       id="g109"
       style="clip-rule:evenodd;fill-rule:evenodd;image-rendering:optimizeQuality;shape-rendering:geometricPrecision;text-rendering:geometricPrecision"
       transform="matrix(0.32741604,0,0,0.32741604,-13.611537,-7.2320974)">
      <path
         style="opacity:1"
         fill="#f9eac2"
         d="m 78.5,119.5 c -1.5231,2.845 -2.5231,5.845 -3,9 -10.2677,25.215 -10.6011,50.549 -1,76 -0.2373,1.291 0.096,2.291 1,3 4.0951,12.19 9.7618,23.524 17,34 -3.5453,-1.73 -6.212,-4.396 -8,-8 -2.5042,-6.343 -5.6709,-12.343 -9.5,-18 -9.7863,-28.575 -11.1196,-57.575 -4,-87 0.8518,-1.071 1.6851,-2.071 2.5,-3 1.6667,-2 3.3333,-4 5,-6 z"
         id="path109" />
    </g>
    <g
       id="g111"
       style="clip-rule:evenodd;fill-rule:evenodd;image-rendering:optimizeQuality;shape-rendering:geometricPrecision;text-rendering:geometricPrecision"
       transform="matrix(0.32741604,0,0,0.32741604,-13.611537,-7.2320974)">
      <path
         style="opacity:1"
         fill="#dc9539"
         d="m 195.5,120.5 c 4.086,5.165 7.42,10.832 10,17 -5.562,-4.347 -8.895,-10.014 -10,-17 z"
         id="path111" />
    </g>
    <g
       id="g113"
       style="clip-rule:evenodd;fill-rule:evenodd;image-rendering:optimizeQuality;shape-rendering:geometricPrecision;text-rendering:geometricPrecision"
       transform="matrix(0.32741604,0,0,0.32741604,-13.611537,-7.2320974)">
      <path
         style="opacity:1"
         fill="#db9b46"
         d="m 75.5,128.5 c -1.7261,7.681 -3.5594,15.348 -5.5,23 -1.5625,17.954 -0.0625,35.621 4.5,53 -9.6011,-25.451 -9.2677,-50.785 1,-76 z"
         id="path113" />
    </g>
    <g
       id="g115"
       style="clip-rule:evenodd;fill-rule:evenodd;image-rendering:optimizeQuality;shape-rendering:geometricPrecision;text-rendering:geometricPrecision"
       transform="matrix(0.32741604,0,0,0.32741604,-13.611537,-7.2320974)">
      <path
         style="opacity:1"
         fill="#d58d2c"
         d="m 86.5,128.5 c -0.9608,2.926 -1.6274,5.926 -2,9 -1.9018,3.132 -3.2351,6.466 -4,10 0.0368,-7.045 2.0368,-13.378 6,-19 z"
         id="path115" />
    </g>
    <g
       id="g116"
       style="clip-rule:evenodd;fill-rule:evenodd;image-rendering:optimizeQuality;shape-rendering:geometricPrecision;text-rendering:geometricPrecision"
       transform="matrix(0.32741604,0,0,0.32741604,-13.611537,-7.2320974)">
      <path
         style="opacity:1"
         fill="#faf7e1"
         d="m 282.5,125.5 c 0.958,0.453 1.792,1.119 2.5,2 1.759,4.144 3.592,8.144 5.5,12 0.934,1.068 1.268,2.401 1,4 1.563,12.609 2.229,25.275 2,38 -1,5.333 -2,10.667 -3,16 -0.643,1.576 -1.643,2.91 -3,4 1.205,-10.022 2.538,-20.022 4,-30 -0.436,-15.845 -3.436,-31.178 -9,-46 z"
         id="path116" />
    </g>
    <g
       id="g117"
       style="clip-rule:evenodd;fill-rule:evenodd;image-rendering:optimizeQuality;shape-rendering:geometricPrecision;text-rendering:geometricPrecision"
       transform="matrix(0.32741604,0,0,0.32741604,-13.611537,-7.2320974)">
      <path
         style="opacity:1"
         fill="#f18403"
         d="m 297.5,210.5 c -2.363,3.049 -4.363,6.382 -6,10 -2.376,-1.012 -3.376,-2.845 -3,-5.5 0.896,-3.32 2.063,-6.487 3.5,-9.5 0.497,-2.31 0.663,-4.643 0.5,-7 4.265,-17.509 4.931,-35.175 2,-53 0.135,-5.087 -0.865,-9.921 -3,-14.5 1.546,-1.44 2.379,-3.273 2.5,-5.5 1.17,3.005 2.336,6.005 3.5,9 -1.838,3.32 -1.005,5.654 2.5,7 3.836,23.252 3.003,46.252 -2.5,69 z"
         id="path117" />
    </g>
    <g
       id="g119"
       style="clip-rule:evenodd;fill-rule:evenodd;image-rendering:optimizeQuality;shape-rendering:geometricPrecision;text-rendering:geometricPrecision"
       transform="matrix(0.32741604,0,0,0.32741604,-13.611537,-7.2320974)">
      <path
         style="opacity:1"
         fill="#f2cc8d"
         d="m 84.5,137.5 c -3.5057,14.775 -4.8391,29.775 -4,45 -1.1721,-11.177 -1.1721,-22.51 0,-34 0,-0.333 0,-0.667 0,-1 0.7649,-3.534 2.0982,-6.868 4,-10 z"
         id="path119" />
    </g>
    <g
       id="g161"
       style="clip-rule:evenodd;fill-rule:evenodd;image-rendering:optimizeQuality;shape-rendering:geometricPrecision;text-rendering:geometricPrecision"
       transform="matrix(0.32741604,0,0,0.32741604,-13.611537,-7.2320974)">
      <path
         style="opacity:1"
         fill="#da8e2c"
         d="m 176.5,124.5 c -6.167,14.351 -13.834,27.685 -23,40 0.333,-1.333 0.667,-2.667 1,-4 7.333,-12 14.667,-24 22,-36 z"
         id="path161" />
    </g>
    <g
       id="g168"
       style="clip-rule:evenodd;fill-rule:evenodd;image-rendering:optimizeQuality;shape-rendering:geometricPrecision;text-rendering:geometricPrecision"
       transform="matrix(0.32741604,0,0,0.32741604,-13.611537,-7.2320974)">
      <path
         style="opacity:1"
         fill="#f8e9bb"
         d="m 208.5,140.5 c 1.294,0.79 2.461,1.79 3.5,3 3.295,6.556 6.962,12.889 11,19 6.337,13.344 13.17,26.344 20.5,39 0.268,2.619 -0.065,5.119 -1,7.5 -3,0.667 -6,0.667 -9,0 -0.556,-0.383 -0.889,-0.883 -1,-1.5 8.511,3.411 11.678,0.745 9.5,-8 -11.204,-19.753 -22.371,-39.42 -33.5,-59 z"
         id="path168" />
    </g>
    <g
       id="g172"
       style="clip-rule:evenodd;fill-rule:evenodd;image-rendering:optimizeQuality;shape-rendering:geometricPrecision;text-rendering:geometricPrecision"
       transform="matrix(0.32741604,0,0,0.32741604,-13.611537,-7.2320974)">
      <path
         style="opacity:1"
         fill="#e0902e"
         d="m 205.5,137.5 c 0.772,1.194 1.772,2.194 3,3 11.129,19.58 22.296,39.247 33.5,59 2.178,8.745 -0.989,11.411 -9.5,8 -3.244,-0.963 -6.244,-2.296 -9,-4 3.974,0.979 7.974,1.979 12,3 2.355,-0.052 3.688,-1.219 4,-3.5 -0.937,-4.108 -3.27,-7.108 -7,-9 0.333,-0.333 0.667,-0.667 1,-1 -2.183,-6.857 -5.016,-13.357 -8.5,-19.5 -3.452,-3.967 -6.285,-7.8 -8.5,-11.5 -1.638,-2.133 -2.471,-4.633 -2.5,-7.5 -3.913,-5.158 -6.746,-10.825 -8.5,-17 z"
         id="path172" />
    </g>
    <g
       id="g173"
       style="clip-rule:evenodd;fill-rule:evenodd;image-rendering:optimizeQuality;shape-rendering:geometricPrecision;text-rendering:geometricPrecision"
       transform="matrix(0.32741604,0,0,0.32741604,-13.611537,-7.2320974)">
      <path
         style="opacity:1"
         fill="#d68f32"
         d="m 289.5,132.5 c 2.034,4.079 3.701,8.412 5,13 2.931,17.825 2.265,35.491 -2,53 -0.667,1 -1.333,2 -2,3 0,-1.333 0,-2.667 0,-4 1,-5.333 2,-10.667 3,-16 1.157,-8.49 1.324,-17.157 0.5,-26 -0.076,-4.296 -0.909,-8.296 -2.5,-12 0.268,-1.599 -0.066,-2.932 -1,-4 -0.174,-2.361 -0.507,-4.694 -1,-7 z"
         id="path173" />
    </g>
    <g
       id="g178"
       style="clip-rule:evenodd;fill-rule:evenodd;image-rendering:optimizeQuality;shape-rendering:geometricPrecision;text-rendering:geometricPrecision"
       transform="matrix(0.32741604,0,0,0.32741604,-13.611537,-7.2320974)">
      <path
         style="opacity:1"
         fill="#f8da9e"
         d="m 291.5,143.5 c 1.591,3.704 2.424,7.704 2.5,12 0.824,8.843 0.657,17.51 -0.5,26 0.229,-12.725 -0.437,-25.391 -2,-38 z"
         id="path178" />
    </g>
    <g
       id="g179"
       style="clip-rule:evenodd;fill-rule:evenodd;image-rendering:optimizeQuality;shape-rendering:geometricPrecision;text-rendering:geometricPrecision"
       transform="matrix(0.32741604,0,0,0.32741604,-13.611537,-7.2320974)">
      <path
         style="opacity:1"
         fill="#cf8c35"
         d="m 300.5,134.5 c 3.534,7.487 5.2,15.487 5,24 0.166,8.34 0,16.673 -0.5,25 -0.633,3.847 -1.467,7.514 -2.5,11 3.008,-20.146 2.341,-40.146 -2,-60 z"
         id="path179" />
    </g>
    <g
       id="g191"
       style="clip-rule:evenodd;fill-rule:evenodd;image-rendering:optimizeQuality;shape-rendering:geometricPrecision;text-rendering:geometricPrecision"
       transform="matrix(0.32741604,0,0,0.32741604,-13.611537,-7.2320974)">
      <path
         style="opacity:1"
         fill="#de8f2b"
         d="m 150.5,169.5 c -0.496,6.809 -3.496,12.143 -9,16 1.897,-4.749 4.064,-9.416 6.5,-14 0.708,-0.881 1.542,-1.547 2.5,-2 z"
         id="path191" />
    </g>
    <g
       id="g193"
       style="clip-rule:evenodd;fill-rule:evenodd;image-rendering:optimizeQuality;shape-rendering:geometricPrecision;text-rendering:geometricPrecision"
       transform="matrix(0.32741604,0,0,0.32741604,-13.611537,-7.2320974)">
      <path
         style="opacity:1"
         fill="#d78b29"
         d="m 80.5,148.5 c -1.1721,11.49 -1.1721,22.823 0,34 0.8813,3.954 1.5479,7.954 2,12 -0.9584,-0.453 -1.7917,-1.119 -2.5,-2 -3.4205,-14.831 -3.2539,-29.498 0.5,-44 z"
         id="path193" />
    </g>
    <g
       id="g203"
       style="clip-rule:evenodd;fill-rule:evenodd;image-rendering:optimizeQuality;shape-rendering:geometricPrecision;text-rendering:geometricPrecision"
       transform="matrix(0.32741604,0,0,0.32741604,-13.611537,-7.2320974)">
      <path
         style="opacity:1"
         fill="#f9eaba"
         d="m 154.5,160.5 c -0.333,1.333 -0.667,2.667 -1,4 -1.75,1.159 -2.75,2.826 -3,5 -0.958,0.453 -1.792,1.119 -2.5,2 -2.436,4.584 -4.603,9.251 -6.5,14 -3.581,4.828 -6.915,9.828 -10,15 0.465,-3.562 1.632,-6.895 3.5,-10 3.153,-5.14 6.487,-10.14 10,-15 1.814,-5.956 4.981,-10.956 9.5,-15 z"
         id="path203" />
    </g>
    <g
       id="g204"
       style="clip-rule:evenodd;fill-rule:evenodd;image-rendering:optimizeQuality;shape-rendering:geometricPrecision;text-rendering:geometricPrecision"
       transform="matrix(0.32741604,0,0,0.32741604,-13.611537,-7.2320974)">
      <path
         style="opacity:1"
         fill="#d68f33"
         d="m 141.5,185.5 c 0.157,1.373 -0.01,2.707 -0.5,4 -4.208,5.002 -6.708,10.668 -7.5,17 3,0 6,0 9,0 -3.019,1.837 -6.352,2.337 -10,1.5 -0.935,-2.381 -1.268,-4.881 -1,-7.5 3.085,-5.172 6.419,-10.172 10,-15 z"
         id="path204" />
    </g>
    <g
       id="g208"
       style="clip-rule:evenodd;fill-rule:evenodd;image-rendering:optimizeQuality;shape-rendering:geometricPrecision;text-rendering:geometricPrecision"
       transform="matrix(0.32741604,0,0,0.32741604,-13.611537,-7.2320974)">
      <path
         style="opacity:1"
         fill="#f9ecc6"
         d="m 184.5,190.5 c 0.333,0 0.667,0 1,0 6.607,2.202 13.274,4.202 20,6 1,0.667 2,1.333 3,2 -7.606,-0.423 -14.939,-2.09 -22,-5 -1.084,0.185 -2.084,0.518 -3,1 -8.861,2.919 -17.861,5.585 -27,8 9.081,-4.539 18.414,-8.539 28,-12 z"
         id="path208" />
    </g>
    <g
       id="g209"
       style="clip-rule:evenodd;fill-rule:evenodd;image-rendering:optimizeQuality;shape-rendering:geometricPrecision;text-rendering:geometricPrecision"
       transform="matrix(0.32741604,0,0,0.32741604,-13.611537,-7.2320974)">
      <path
         style="opacity:1"
         fill="#d8943a"
         d="m 185.5,190.5 c 1.446,-1.113 3.113,-1.28 5,-0.5 5.507,1.324 10.507,3.491 15,6.5 -6.726,-1.798 -13.393,-3.798 -20,-6 z"
         id="path209" />
    </g>
    <g
       id="g217"
       style="clip-rule:evenodd;fill-rule:evenodd;image-rendering:optimizeQuality;shape-rendering:geometricPrecision;text-rendering:geometricPrecision"
       transform="matrix(0.32741604,0,0,0.32741604,-13.611537,-7.2320974)">
      <path
         style="opacity:1"
         fill="#faefcc"
         d="m 84.5,137.5 c 0.6667,0 1.3333,0 2,0 -2.2199,10.708 -3.5532,21.541 -4,32.5 -0.3414,20.471 4.992,39.305 16,56.5 8.12,8.29 16.12,16.79 24,25.5 3.397,1.84 6.064,4.34 8,7.5 -8.76,-4.242 -16.26,-10.242 -22.5,-18 -4.03,-5.52 -8.197,-10.853 -12.5,-16 -5.3166,-9.958 -9.6499,-20.291 -13,-31 -0.4521,-4.046 -1.1187,-8.046 -2,-12 -0.8391,-15.225 0.4943,-30.225 4,-45 z"
         id="path217" />
    </g>
    <g
       id="g218"
       style="clip-rule:evenodd;fill-rule:evenodd;image-rendering:optimizeQuality;shape-rendering:geometricPrecision;text-rendering:geometricPrecision"
       transform="matrix(0.32741604,0,0,0.32741604,-13.611537,-7.2320974)">
      <path
         style="opacity:1"
         fill="#da963a"
         d="m 205.5,196.5 c 6.723,0.703 12.723,3.036 18,7 -5.079,-1.37 -10.079,-3.036 -15,-5 -1,-0.667 -2,-1.333 -3,-2 z"
         id="path218" />
    </g>
    <g
       id="g219"
       style="clip-rule:evenodd;fill-rule:evenodd;image-rendering:optimizeQuality;shape-rendering:geometricPrecision;text-rendering:geometricPrecision"
       transform="matrix(0.32741604,0,0,0.32741604,-13.611537,-7.2320974)">
      <path
         style="opacity:1"
         fill="#e28d21"
         d="m 184.5,190.5 c -9.586,3.461 -18.919,7.461 -28,12 -3.379,0.015 -6.379,1.015 -9,3 -1.617,0.538 -3.284,0.871 -5,1 3.348,-2.061 6.015,-4.227 8,-6.5 8.913,-2.465 17.579,-5.465 26,-9 2.646,-0.497 5.313,-0.664 8,-0.5 z"
         id="path219" />
    </g>
    <g
       id="g220"
       style="clip-rule:evenodd;fill-rule:evenodd;image-rendering:optimizeQuality;shape-rendering:geometricPrecision;text-rendering:geometricPrecision"
       transform="matrix(0.32741604,0,0,0.32741604,-13.611537,-7.2320974)">
      <path
         style="opacity:1"
         fill="#faf5dc"
         d="m 208.5,198.5 c 4.921,1.964 9.921,3.63 15,5 2.756,1.704 5.756,3.037 9,4 0.111,0.617 0.444,1.117 1,1.5 3,0.667 6,0.667 9,0 0.935,-2.381 1.268,-4.881 1,-7.5 3.206,5.264 1.706,8.598 -4.5,10 -9.681,-1.294 -18.515,-3.961 -26.5,-8 -1.357,-1.686 -2.69,-3.352 -4,-5 z"
         id="path220" />
    </g>
    <g
       id="g221"
       style="clip-rule:evenodd;fill-rule:evenodd;image-rendering:optimizeQuality;shape-rendering:geometricPrecision;text-rendering:geometricPrecision"
       transform="matrix(0.32741604,0,0,0.32741604,-13.611537,-7.2320974)">
      <path
         style="opacity:1"
         fill="#f3d79f"
         d="m 131.5,200.5 c -0.268,2.619 0.065,5.119 1,7.5 3.648,0.837 6.981,0.337 10,-1.5 1.716,-0.129 3.383,-0.462 5,-1 -5.003,3.825 -10.67,4.825 -17,3 -0.652,-0.949 -0.986,-2.115 -1,-3.5 -0.193,-2.008 0.474,-3.508 2,-4.5 z"
         id="path221" />
    </g>
    <g
       id="g222"
       style="clip-rule:evenodd;fill-rule:evenodd;image-rendering:optimizeQuality;shape-rendering:geometricPrecision;text-rendering:geometricPrecision"
       transform="matrix(0.32741604,0,0,0.32741604,-13.611537,-7.2320974)">
      <path
         style="opacity:1"
         fill="#f6dfb0"
         d="m 305.5,158.5 c 0.333,0 0.667,0 1,0 1.205,11.521 1.038,23.188 -0.5,35 -2.014,4.059 -3.181,8.392 -3.5,13 -2.588,4.174 -4.921,8.507 -7,13 0.373,-3.074 1.039,-6.074 2,-9 2.843,-4.867 4.509,-10.2 5,-16 1.033,-3.486 1.867,-7.153 2.5,-11 0.5,-8.327 0.666,-16.66 0.5,-25 z"
         id="path222" />
    </g>
    <g
       id="g223"
       style="clip-rule:evenodd;fill-rule:evenodd;image-rendering:optimizeQuality;shape-rendering:geometricPrecision;text-rendering:geometricPrecision"
       transform="matrix(0.32741604,0,0,0.32741604,-13.611537,-7.2320974)">
      <path
         style="opacity:1"
         fill="#faf4dd"
         d="m 302.5,206.5 c -0.912,5.163 -2.412,10.163 -4.5,15 -4.761,5.856 -8.761,12.189 -12,19 -2.029,1.533 -3.862,3.199 -5.5,5 0.333,-1.333 0.667,-2.667 1,-4 4.279,-7.606 8.946,-14.939 14,-22 2.079,-4.493 4.412,-8.826 7,-13 z"
         id="path223" />
    </g>
    <g
       id="g224"
       style="clip-rule:evenodd;fill-rule:evenodd;image-rendering:optimizeQuality;shape-rendering:geometricPrecision;text-rendering:geometricPrecision"
       transform="matrix(0.32741604,0,0,0.32741604,-13.611537,-7.2320974)">
      <path
         style="opacity:1"
         fill="#faf6e2"
         d="m 183.5,194.5 c -9.235,4.359 -18.902,7.859 -29,10.5 -5.544,3.836 -11.71,6.336 -18.5,7.5 -1.5,-0.5 -3,-1 -4.5,-1.5 -0.752,-0.671 -1.086,-1.504 -1,-2.5 6.33,1.825 11.997,0.825 17,-3 2.621,-1.985 5.621,-2.985 9,-3 9.139,-2.415 18.139,-5.081 27,-8 z"
         id="path224" />
    </g>
    <g
       id="g227"
       style="clip-rule:evenodd;fill-rule:evenodd;image-rendering:optimizeQuality;shape-rendering:geometricPrecision;text-rendering:geometricPrecision"
       transform="matrix(0.32741604,0,0,0.32741604,-13.611537,-7.2320974)">
      <path
         style="opacity:1"
         fill="#ed860c"
         d="m 292.5,198.5 c 0.163,2.357 -0.003,4.69 -0.5,7 -1.437,3.013 -2.604,6.18 -3.5,9.5 -0.376,2.655 0.624,4.488 3,5.5 0.009,1.808 -0.491,3.475 -1.5,5 -4.058,6.377 -8.558,12.377 -13.5,18 -0.746,1.236 -1.079,2.57 -1,4 -6.062,7.064 -12.728,13.397 -20,19 -4,2 -8,4 -12,6 -11.851,5.242 -24.184,9.408 -37,12.5 -12.014,0.833 -24.014,0.666 -36,-0.5 -8.416,-1.899 -16.749,-3.899 -25,-6 -1.468,-1.998 -3.301,-3.665 -5.5,-5 -5.714,-2.945 -11.547,-5.445 -17.5,-7.5 -1.095,-1.675 -2.595,-2.842 -4.5,-3.5 -0.333,-1 -0.667,-2 -1,-3 -0.667,1.333 -1.333,1.333 -2,0 -0.617,-0.949 -0.451,-1.782 0.5,-2.5 -2.841,1.012 -4.174,-0.155 -4,-3.5 1.699,-0.16 3.366,0.006 5,0.5 4.369,2.885 9.036,5.051 14,6.5 5.403,3.368 11.069,6.201 17,8.5 5.281,1.819 10.614,3.319 16,4.5 3.929,1.323 7.929,2.323 12,3 20.237,3.539 39.237,0.205 57,-10 1.699,0.16 3.366,-0.006 5,-0.5 2.705,-2.351 5.705,-4.184 9,-5.5 0.925,-0.857 1.592,-1.857 2,-3 11.333,-6.667 20.333,-15.667 27,-27 5.401,-9.417 10.401,-19.083 15,-29 0.667,-1 1.333,-2 2,-3 z"
         id="path227" />
    </g>
    <g
       id="g229"
       style="clip-rule:evenodd;fill-rule:evenodd;image-rendering:optimizeQuality;shape-rendering:geometricPrecision;text-rendering:geometricPrecision"
       transform="matrix(0.32741604,0,0,0.32741604,-13.611537,-7.2320974)">
      <path
         style="opacity:1"
         fill="#dc963e"
         d="m 82.5,194.5 c 3.3501,10.709 7.6834,21.042 13,31 -3.4065,-3.8 -6.0731,-8.133 -8,-13 -0.4569,-0.798 -1.1236,-1.131 -2,-1 0.4699,-2.846 -0.3634,-5.179 -2.5,-7 -0.4983,-3.317 -0.665,-6.65 -0.5,-10 z"
         id="path229" />
    </g>
    <g
       id="g236"
       style="clip-rule:evenodd;fill-rule:evenodd;image-rendering:optimizeQuality;shape-rendering:geometricPrecision;text-rendering:geometricPrecision"
       transform="matrix(0.32741604,0,0,0.32741604,-13.611537,-7.2320974)">
      <path
         style="opacity:1"
         fill="#d68b28"
         d="m 75.5,207.5 c 0.952,0.952 1.952,1.952 3,3 2.0906,7.386 5.4239,14.052 10,20 2.3238,4.328 4.6571,8.661 7,13 -1,-0.667 -2,-1.333 -3,-2 -7.2382,-10.476 -12.9049,-21.81 -17,-34 z"
         id="path236" />
    </g>
    <g
       id="g238"
       style="clip-rule:evenodd;fill-rule:evenodd;image-rendering:optimizeQuality;shape-rendering:geometricPrecision;text-rendering:geometricPrecision"
       transform="matrix(0.32741604,0,0,0.32741604,-13.611537,-7.2320974)">
      <path
         style="opacity:1"
         fill="#faedc8"
         d="m 290.5,197.5 c 0,1.333 0,2.667 0,4 -4.599,9.917 -9.599,19.583 -15,29 -8,10 -17,19 -27,27 -4.667,2.333 -9.333,4.667 -14,7 2.917,-2.803 6.25,-5.137 10,-7 2.045,-3.408 4.712,-6.241 8,-8.5 2,-0.667 4,-1.333 6,-2 1.715,-2.374 3.715,-4.54 6,-6.5 4.67,-8.662 10.337,-16.662 17,-24 2.292,-4.913 4.292,-9.913 6,-15 1.357,-1.09 2.357,-2.424 3,-4 z"
         id="path238" />
    </g>
    <g
       id="g239"
       style="clip-rule:evenodd;fill-rule:evenodd;image-rendering:optimizeQuality;shape-rendering:geometricPrecision;text-rendering:geometricPrecision"
       transform="matrix(0.32741604,0,0,0.32741604,-13.611537,-7.2320974)">
      <path
         style="opacity:1"
         fill="#d28c31"
         d="m 297.5,210.5 c -0.961,2.926 -1.627,5.926 -2,9 -5.054,7.061 -9.721,14.394 -14,22 -1.639,2.306 -3.639,4.306 -6,6 -0.079,-1.43 0.254,-2.764 1,-4 4.942,-5.623 9.442,-11.623 13.5,-18 1.009,-1.525 1.509,-3.192 1.5,-5 1.637,-3.618 3.637,-6.951 6,-10 z"
         id="path239" />
    </g>
    <g
       id="g242"
       style="clip-rule:evenodd;fill-rule:evenodd;image-rendering:optimizeQuality;shape-rendering:geometricPrecision;text-rendering:geometricPrecision"
       transform="matrix(0.32741604,0,0,0.32741604,-13.611537,-7.2320974)">
      <path
         style="opacity:1"
         fill="#e98a18"
         d="m 85.5,211.5 c 0.8764,-0.131 1.5431,0.202 2,1 1.9269,4.867 4.5935,9.2 8,13 4.303,5.147 8.47,10.48 12.5,16 6.24,7.758 13.74,13.758 22.5,18 0,0.333 0,0.667 0,1 -4.964,-1.449 -9.631,-3.615 -14,-6.5 -1.634,-0.494 -3.301,-0.66 -5,-0.5 -0.174,3.345 1.159,4.512 4,3.5 -0.951,0.718 -1.117,1.551 -0.5,2.5 0.667,1.333 1.333,1.333 2,0 0.333,1 0.667,2 1,3 1.905,0.658 3.405,1.825 4.5,3.5 5.953,2.055 11.786,4.555 17.5,7.5 2.199,1.335 4.032,3.002 5.5,5 -1.333,0 -2.667,0 -4,0 -3.577,-2.469 -7.243,-4.969 -11,-7.5 -1.845,-1.128 -3.845,-1.628 -6,-1.5 -11.532,-6.529 -21.199,-15.196 -29,-26 -2.3429,-4.339 -4.6762,-8.672 -7,-13 2.0854,2.049 4.252,4.049 6.5,6 1.8524,-1.73 1.6857,-2.896 -0.5,-3.5 1.1341,-1.016 0.8008,-1.683 -1,-2 1.1341,-1.016 0.8008,-1.683 -1,-2 0.5979,-2.598 -0.5688,-4.431 -3.5,-5.5 -0.277,-4.324 -1.4437,-8.324 -3.5,-12 z"
         id="path242" />
    </g>
    <g
       id="g251"
       style="clip-rule:evenodd;fill-rule:evenodd;image-rendering:optimizeQuality;shape-rendering:geometricPrecision;text-rendering:geometricPrecision"
       transform="matrix(0.32741604,0,0,0.32741604,-13.611537,-7.2320974)">
      <path
         style="opacity:1"
         fill="#d3913a"
         d="m 275.5,230.5 c -6.667,11.333 -15.667,20.333 -27,27 10,-8 19,-17 27,-27 z"
         id="path251" />
    </g>
    <g
       id="g254"
       style="clip-rule:evenodd;fill-rule:evenodd;image-rendering:optimizeQuality;shape-rendering:geometricPrecision;text-rendering:geometricPrecision"
       transform="matrix(0.32741604,0,0,0.32741604,-13.611537,-7.2320974)">
      <path
         style="opacity:1"
         fill="#faf2d8"
         d="m 92.5,241.5 c 1,0.667 2,1.333 3,2 7.801,10.804 17.468,19.471 29,26 2.406,2.413 5.072,4.413 8,6 1.333,1.333 2.667,2.667 4,4 -7.721,-3.028 -15.054,-6.861 -22,-11.5 -5.807,-5.472 -11.64,-10.972 -17.5,-16.5 -2.3833,-3.002 -3.8833,-6.335 -4.5,-10 z"
         id="path254" />
    </g>
    <g
       id="g265"
       style="clip-rule:evenodd;fill-rule:evenodd;image-rendering:optimizeQuality;shape-rendering:geometricPrecision;text-rendering:geometricPrecision"
       transform="matrix(0.32741604,0,0,0.32741604,-13.611537,-7.2320974)">
      <path
         style="opacity:1"
         fill="#f7deaa"
         d="m 281.5,241.5 c -0.333,1.333 -0.667,2.667 -1,4 -7.162,6.995 -14.496,13.828 -22,20.5 -0.948,0.483 -1.948,0.649 -3,0.5 7.272,-5.603 13.938,-11.936 20,-19 2.361,-1.694 4.361,-3.694 6,-6 z"
         id="path265" />
    </g>
    <g
       id="g267"
       style="clip-rule:evenodd;fill-rule:evenodd;image-rendering:optimizeQuality;shape-rendering:geometricPrecision;text-rendering:geometricPrecision"
       transform="matrix(0.32741604,0,0,0.32741604,-13.611537,-7.2320974)">
      <path
         style="opacity:1"
         fill="#da953a"
         d="m 248.5,257.5 c -0.408,1.143 -1.075,2.143 -2,3 -3.295,1.316 -6.295,3.149 -9,5.5 -1.634,0.494 -3.301,0.66 -5,0.5 0.667,-0.667 1.333,-1.333 2,-2 4.667,-2.333 9.333,-4.667 14,-7 z"
         id="path267" />
    </g>
    <g
       id="g273"
       style="clip-rule:evenodd;fill-rule:evenodd;image-rendering:optimizeQuality;shape-rendering:geometricPrecision;text-rendering:geometricPrecision"
       transform="matrix(0.32741604,0,0,0.32741604,-13.611537,-7.2320974)">
      <path
         style="opacity:1"
         fill="#faeecb"
         d="m 130.5,260.5 c 0,-0.333 0,-0.667 0,-1 7.575,2.733 15.242,5.233 23,7.5 3.773,1.627 7.106,3.794 10,6.5 -5.386,-1.181 -10.719,-2.681 -16,-4.5 -5.931,-2.299 -11.597,-5.132 -17,-8.5 z"
         id="path273" />
    </g>
    <g
       id="g275"
       style="clip-rule:evenodd;fill-rule:evenodd;image-rendering:optimizeQuality;shape-rendering:geometricPrecision;text-rendering:geometricPrecision"
       transform="matrix(0.32741604,0,0,0.32741604,-13.611537,-7.2320974)">
      <path
         style="opacity:1"
         fill="#d9963a"
         d="m 124.5,269.5 c 2.155,-0.128 4.155,0.372 6,1.5 3.757,2.531 7.423,5.031 11,7.5 -3.119,-0.817 -6.119,-1.817 -9,-3 -2.928,-1.587 -5.594,-3.587 -8,-6 z"
         id="path275" />
    </g>
    <g
       id="g276"
       style="clip-rule:evenodd;fill-rule:evenodd;image-rendering:optimizeQuality;shape-rendering:geometricPrecision;text-rendering:geometricPrecision"
       transform="matrix(0.32741604,0,0,0.32741604,-13.611537,-7.2320974)">
      <path
         style="opacity:1"
         fill="#fae8bb"
         d="m 234.5,264.5 c -0.667,0.667 -1.333,1.333 -2,2 -8.312,2.819 -16.646,5.653 -25,8.5 -10.63,1.238 -21.297,1.738 -32,1.5 -4.071,-0.677 -8.071,-1.677 -12,-3 17.479,1.905 34.812,1.071 52,-2.5 3.947,-2.24 7.947,-4.24 12,-6 2.31,-0.497 4.643,-0.663 7,-0.5 z"
         id="path276" />
    </g>
    <g
       id="g277"
       style="clip-rule:evenodd;fill-rule:evenodd;image-rendering:optimizeQuality;shape-rendering:geometricPrecision;text-rendering:geometricPrecision"
       transform="matrix(0.32741604,0,0,0.32741604,-13.611537,-7.2320974)">
      <path
         style="opacity:1"
         fill="#d7973b"
         d="m 232.5,266.5 c -17.763,10.205 -36.763,13.539 -57,10 10.703,0.238 21.37,-0.262 32,-1.5 8.354,-2.847 16.688,-5.681 25,-8.5 z"
         id="path277" />
    </g>
    <g
       id="g289"
       style="clip-rule:evenodd;fill-rule:evenodd;image-rendering:optimizeQuality;shape-rendering:geometricPrecision;text-rendering:geometricPrecision"
       transform="matrix(0.32741604,0,0,0.32741604,-13.611537,-7.2320974)">
      <path
         style="opacity:1"
         fill="#f9ebc0"
         d="m 255.5,266.5 c -2.796,3.297 -5.796,6.464 -9,9.5 -5.809,2.256 -11.476,4.423 -17,6.5 -13.579,3.853 -27.412,6.187 -41.5,7 -12.735,-0.034 -25.235,-1.7 -37.5,-5 -4.411,-2.197 -9.078,-3.864 -14,-5 -1.333,-1.333 -2.667,-2.667 -4,-4 2.881,1.183 5.881,2.183 9,3 1.1,1.058 2.434,1.892 4,2.5 30.864,9.769 61.198,8.436 91,-4 2.398,-1.524 4.731,-3.024 7,-4.5 4,-2 8,-4 12,-6 z"
         id="path289" />
    </g>
    <g
       id="g290"
       style="clip-rule:evenodd;fill-rule:evenodd;image-rendering:optimizeQuality;shape-rendering:geometricPrecision;text-rendering:geometricPrecision"
       transform="matrix(0.32741604,0,0,0.32741604,-13.611537,-7.2320974)">
      <path
         style="opacity:1"
         fill="#d89439"
         d="m 243.5,272.5 c -2.269,1.476 -4.602,2.976 -7,4.5 -29.802,12.436 -60.136,13.769 -91,4 -1.566,-0.608 -2.9,-1.442 -4,-2.5 1.333,0 2.667,0 4,0 8.251,2.101 16.584,4.101 25,6 11.986,1.166 23.986,1.333 36,0.5 12.816,-3.092 25.149,-7.258 37,-12.5 z"
         id="path290" />
    </g>
    <g
       id="g295"
       style="clip-rule:evenodd;fill-rule:evenodd;image-rendering:optimizeQuality;shape-rendering:geometricPrecision;text-rendering:geometricPrecision"
       transform="matrix(0.32741604,0,0,0.32741604,-13.611537,-7.2320974)">
      <path
         style="opacity:1"
         fill="#faf9ea"
         d="m 229.5,282.5 c -0.111,0.617 -0.444,1.117 -1,1.5 -25.462,7.872 -51.129,8.538 -77,2 -0.556,-0.383 -0.889,-0.883 -1,-1.5 12.265,3.3 24.765,4.966 37.5,5 14.088,-0.813 27.921,-3.147 41.5,-7 z"
         id="path295" />
    </g>
  </g>
</svg>
