<?xml version="1.0" encoding="UTF-8" standalone="no"?>
<!-- Created with Inkscape (http://www.inkscape.org/) -->

<svg
   width="96mm"
   height="96mm"
   viewBox="0 0 96 96"
   version="1.1"
   id="svg1"
   inkscape:version="1.4.2 (ebf0e940, 2025-05-08)"
   sodipodi:docname="taxi.svg"
   xmlns:inkscape="http://www.inkscape.org/namespaces/inkscape"
   xmlns:sodipodi="http://sodipodi.sourceforge.net/DTD/sodipodi-0.dtd"
   xmlns="http://www.w3.org/2000/svg"
   xmlns:svg="http://www.w3.org/2000/svg">
  <sodipodi:namedview
     id="namedview1"
     pagecolor="#ffffff"
     bordercolor="#000000"
     borderopacity="0.25"
     inkscape:showpageshadow="2"
     inkscape:pageopacity="0.0"
     inkscape:pagecheckerboard="0"
     inkscape:deskcolor="#d1d1d1"
     inkscape:document-units="mm"
     inkscape:zoom="0.80444024"
     inkscape:cx="397.17059"
     inkscape:cy="163.46771"
     inkscape:window-width="1920"
     inkscape:window-height="1052"
     inkscape:window-x="0"
     inkscape:window-y="28"
     inkscape:window-maximized="0"
     inkscape:current-layer="layer1" />
  <defs
     id="defs1" />
  <g
     inkscape:label="Layer 1"
     inkscape:groupmode="layer"
     id="layer1">
    <g
       id="g2"
       style="clip-rule:evenodd;fill-rule:evenodd;image-rendering:optimizeQuality;shape-rendering:geometricPrecision;text-rendering:geometricPrecision"
       transform="matrix(0.32935757,0,0,0.32935757,-126.04916,-8.0053545)">
      <path
         style="opacity:1"
         fill="#faf1d4"
         d="m 582.5,60.5 c -3.572,-3.7419 -7.572,-6.9086 -12,-9.5 -25.218,-9.1566 -50.218,-8.6566 -75,1.5 -0.219,-1.175 0.114,-2.175 1,-3 4.239,-1.4818 8.573,-2.6484 13,-3.5 0.979,-2.4031 2.479,-3.2364 4.5,-2.5 11,-0.6667 22,-1.3333 33,-2 12.118,1.0383 23.118,5.0383 33,12 1.411,2.1504 2.245,4.4837 2.5,7 z"
         id="path2" />
    </g>
    <g
       id="g74"
       style="clip-rule:evenodd;fill-rule:evenodd;image-rendering:optimizeQuality;shape-rendering:geometricPrecision;text-rendering:geometricPrecision"
       transform="matrix(0.32935757,0,0,0.32935757,-126.04916,-8.0053545)">
      <path
         style="opacity:1"
         fill="#faf3d5"
         d="m 495.5,52.5 c -1.476,2 -3.309,3.6666 -5.5,5 -4.635,10.4613 -7.135,21.4613 -7.5,33 -0.817,2.4686 -1.317,5.1353 -1.5,8 -0.5,8.66 -0.666,17.327 -0.5,26 -2.95,1.615 -5.616,3.615 -8,6 -0.977,2.787 -1.31,5.787 -1,9 -2.315,-2.422 -2.648,-5.255 -1,-8.5 2.409,-2.945 4.909,-5.778 7.5,-8.5 1.067,-19.069 2.734,-38.069 5,-57 1.246,-2.8608 2.246,-5.8608 3,-9 2.865,-2.015 6.032,-3.3484 9.5,-4 z"
         id="path74" />
    </g>
    <g
       id="g77"
       style="clip-rule:evenodd;fill-rule:evenodd;image-rendering:optimizeQuality;shape-rendering:geometricPrecision;text-rendering:geometricPrecision"
       transform="matrix(0.32935757,0,0,0.32935757,-126.04916,-8.0053545)">
      <path
         style="opacity:1"
         fill="#faedc9"
         d="m 583.5,64.5 c 1.597,1.2373 2.763,2.904 3.5,5 1.746,17.6373 3.08,35.304 4,53 1.085,1.236 1.918,2.569 2.5,4 -1.67,-0.251 -3.17,-0.918 -4.5,-2 -0.003,-20.202 -1.837,-40.202 -5.5,-60 z"
         id="path77" />
    </g>
    <g
       id="g83"
       style="clip-rule:evenodd;fill-rule:evenodd;image-rendering:optimizeQuality;shape-rendering:geometricPrecision;text-rendering:geometricPrecision"
       transform="matrix(0.32935757,0,0,0.32935757,-126.04916,-8.0053545)">
      <path
         style="opacity:1"
         fill="#f6d6a0"
         d="m 482.5,90.5 c -0.43,11.5 -1.097,22.834 -2,34 -0.166,-8.673 0,-17.34 0.5,-26 0.183,-2.8647 0.683,-5.5314 1.5,-8 z"
         id="path83" />
    </g>
    <g
       id="g121"
       style="clip-rule:evenodd;fill-rule:evenodd;image-rendering:optimizeQuality;shape-rendering:geometricPrecision;text-rendering:geometricPrecision"
       transform="matrix(0.32935757,0,0,0.32935757,-126.04916,-8.0053545)">
      <path
         style="opacity:1"
         fill="#d7a156"
         d="m 584.5,135.5 c 0.768,0.763 1.268,1.763 1.5,3 0.671,0.752 1.504,1.086 2.5,1 0.332,33.171 -0.002,66.171 -1,99 0.167,-31.335 0,-62.668 -0.5,-94 -1.153,17.021 -1.986,34.021 -2.5,51 0,-20 0,-40 0,-60 z"
         id="path121" />
    </g>
    <g
       id="g123"
       style="clip-rule:evenodd;fill-rule:evenodd;image-rendering:optimizeQuality;shape-rendering:geometricPrecision;text-rendering:geometricPrecision"
       transform="matrix(0.32935757,0,0,0.32935757,-126.04916,-8.0053545)">
      <path
         style="opacity:1"
         fill="#cf903b"
         d="m 582.5,60.5 c 0.333,1.3333 0.667,2.6667 1,4 3.663,19.798 5.497,39.798 5.5,60 1.33,1.082 2.83,1.749 4.5,2 3.911,3.341 4.911,7.341 3,12 -2.885,-0.306 -5.552,0.027 -8,1 -0.996,0.086 -1.829,-0.248 -2.5,-1 -0.232,-1.237 -0.732,-2.237 -1.5,-3 -0.65,-0.304 -1.317,-0.637 -2,-1 -1,23.991 -1.333,47.991 -1,72 0.213,6.711 -0.12,13.377 -1,20 -1.517,-0.011 -2.684,-0.677 -3.5,-2 -2.604,-4.426 -4.604,-9.093 -6,-14 -1.404,-15.957 -1.904,-31.957 -1.5,-48 1.524,-7.092 3.524,-14.092 6,-21 0.8,-4.261 2.634,-7.928 5.5,-11 2.79,0.594 5.29,1.761 7.5,3.5 1.634,0.494 3.301,0.66 5,0.5 0.17,-1.322 -0.163,-2.489 -1,-3.5 -3.092,-0.854 -5.759,-2.354 -8,-4.5 0.198,-15.024 -0.302,-30.0238 -1.5,-45 -0.738,-3.4913 -1.571,-6.8246 -2.5,-10 -0.232,-5.2965 -2.232,-9.7965 -6,-13.5 -4.554,-3.2202 -9.554,-5.3869 -15,-6.5 -2.955,-0.6587 -5.955,-0.9921 -9,-1 -10.997,-2.6254 -21.997,-2.6254 -33,0 -2.403,-0.052 -4.736,0.2814 -7,1 -5.464,1.0989 -10.464,3.2655 -15,6.5 -2.572,2.3128 -4.239,5.1461 -5,8.5 -1.95,5.8114 -2.95,11.8114 -3,18 -0.809,1.7922 -1.309,3.7922 -1.5,6 -0.5,11.662 -0.667,23.329 -0.5,35 -4.012,2.012 -7.012,5.012 -9,9 3.284,-0.181 6.284,-1.181 9,-3 4.333,-2.114 6.333,-0.781 6,4 -1.992,27.98 -2.658,56.314 -2,85 3.432,0.373 5.766,-0.96 7,-4 -0.744,4.08 -2.744,7.413 -6,10 -0.607,-0.124 -0.94,-0.457 -1,-1 -0.707,-3.286 -1.04,-6.619 -1,-10 0.333,-27.341 0,-54.675 -1,-82 -0.607,0.124 -0.94,0.457 -1,1 -1.164,37.831 -1.331,75.831 -0.5,114 0.179,3.525 0.679,6.859 1.5,10 0.458,4.038 1.124,8.038 2,12 2.536,0.537 4.536,1.87 6,4 -2.306,-0.493 -4.639,-0.826 -7,-1 0.463,2.721 1.129,5.388 2,8 -0.667,-0.333 -1.333,-0.667 -2,-1 -0.16,-1.653 -0.826,-2.986 -2,-4 -1.886,-12.312 -3.553,-24.645 -5,-37 0.333,-34.007 0,-68.007 -1,-102 -2.584,0.893 -5.251,1.226 -8,1 0,-2.667 0,-5.333 0,-8 2.384,-2.385 5.05,-4.385 8,-6 0.903,-11.166 1.57,-22.5 2,-34 0.365,-11.5387 2.865,-22.5387 7.5,-33 2.191,-1.3334 4.024,-3 5.5,-5 24.782,-10.1566 49.782,-10.6566 75,-1.5 4.428,2.5914 8.428,5.7581 12,9.5 z"
         id="path123" />
    </g>
    <g
       id="g124"
       style="clip-rule:evenodd;fill-rule:evenodd;image-rendering:optimizeQuality;shape-rendering:geometricPrecision;text-rendering:geometricPrecision"
       transform="matrix(0.32935757,0,0,0.32935757,-126.04916,-8.0053545)">
      <path
         style="opacity:1"
         fill="#f6d291"
         d="m 519.5,144.5 c 9.848,-0.327 19.514,0.006 29,1 -14.791,-0.576 -29.458,0.424 -44,3 1,-0.667 2,-1.333 3,-2 4.233,-0.039 8.233,-0.705 12,-2 z"
         id="path124" />
    </g>
    <g
       id="g125"
       style="clip-rule:evenodd;fill-rule:evenodd;image-rendering:optimizeQuality;shape-rendering:geometricPrecision;text-rendering:geometricPrecision"
       transform="matrix(0.32935757,0,0,0.32935757,-126.04916,-8.0053545)">
      <path
         style="opacity:1"
         fill="#da9c4d"
         d="m 491.5,135.5 c 3.696,5.748 6.03,12.081 7,19 -1.333,-2.333 -2.667,-4.667 -4,-7 0.38,-2.198 -0.287,-3.865 -2,-5 -0.719,-2.264 -1.052,-4.597 -1,-7 z"
         id="path125" />
    </g>
    <g
       id="g126"
       style="clip-rule:evenodd;fill-rule:evenodd;image-rendering:optimizeQuality;shape-rendering:geometricPrecision;text-rendering:geometricPrecision"
       transform="matrix(0.32935757,0,0,0.32935757,-126.04916,-8.0053545)">
      <path
         style="opacity:1"
         fill="#f9eaba"
         d="m 577.5,122.5 c 0.333,0 0.667,0 1,0 0,2.333 0,4.667 0,7 2,0 4,0 6,0 0,-1 0,-2 0,-3 2.241,2.146 4.908,3.646 8,4.5 0.837,1.011 1.17,2.178 1,3.5 -1.699,0.16 -3.366,-0.006 -5,-0.5 -2.21,-1.739 -4.71,-2.906 -7.5,-3.5 -2.866,3.072 -4.7,6.739 -5.5,11 -2.476,6.908 -4.476,13.908 -6,21 0,-4.333 0,-8.667 0,-13 -2.235,0.295 -4.235,-0.039 -6,-1 1.967,0.239 3.801,-0.094 5.5,-1 3.416,-8.158 6.249,-16.491 8.5,-25 z"
         id="path126" />
    </g>
    <g
       id="g127"
       style="clip-rule:evenodd;fill-rule:evenodd;image-rendering:optimizeQuality;shape-rendering:geometricPrecision;text-rendering:geometricPrecision"
       transform="matrix(0.32935757,0,0,0.32935757,-126.04916,-8.0053545)">
      <path
         style="opacity:1"
         fill="#f58700"
         d="m 552.5,112.5 c 4.289,0.988 8.622,1.821 13,2.5 2.648,2.05 5.648,3.216 9,3.5 0.165,3.018 -0.002,6.018 -0.5,9 -1.212,3.877 -2.879,7.544 -5,11 -0.497,2.646 -0.664,5.313 -0.5,8 -6.224,-0.345 -12.224,-1.512 -18,-3.5 -7.326,-0.5 -14.659,-0.666 -22,-0.5 -2.128,-1.129 -4.461,-1.296 -7,-0.5 -4.684,0.563 -9.184,1.73 -13.5,3.5 -1.764,-0.044 -3.431,-0.378 -5,-1 -1.384,-4.365 -2.884,-8.365 -4.5,-12 -0.631,-1.978 -0.631,-4.145 0,-6.5 -1.785,-1.593 -1.952,-3.093 -0.5,-4.5 0.333,0.667 0.667,1.333 1,2 3.052,-4.124 6.885,-5.791 11.5,-5 -0.612,-4.376 0.554,-5.043 3.5,-2 1.016,-1.134 1.683,-0.801 2,1 1.791,-2.013 3.125,-2.013 4,0 1.501,-2.6 3.501,-3.6 6,-3 8.665,-2.75 17.499,-3.416 26.5,-2 z"
         id="path127" />
    </g>
    <g
       id="g128"
       style="clip-rule:evenodd;fill-rule:evenodd;image-rendering:optimizeQuality;shape-rendering:geometricPrecision;text-rendering:geometricPrecision"
       transform="matrix(0.32935757,0,0,0.32935757,-126.04916,-8.0053545)">
      <path
         style="opacity:1"
         fill="#d6953d"
         d="m 512.5,111.5 c -5.814,2.44 -11.814,4.607 -18,6.5 -0.559,0.725 -0.892,1.558 -1,2.5 2.489,7.943 4.989,15.943 7.5,24 1.789,1.729 3.956,2.396 6.5,2 -1,0.667 -2,1.333 -3,2 -1.89,0.203 -3.39,-0.463 -4.5,-2 -2.581,-7.784 -5.081,-15.451 -7.5,-23 -0.869,-2.217 -1.202,-4.55 -1,-7 0.667,0 1.333,0 2,0 6.266,-1.866 12.6,-3.532 19,-5 z"
         id="path128" />
    </g>
    <g
       id="g129"
       style="clip-rule:evenodd;fill-rule:evenodd;image-rendering:optimizeQuality;shape-rendering:geometricPrecision;text-rendering:geometricPrecision"
       transform="matrix(0.32935757,0,0,0.32935757,-126.04916,-8.0053545)">
      <path
         style="opacity:1"
         fill="#f9f3d4"
         d="m 494.5,77.5 c -1.083,12.9962 -2.083,25.996 -3,39 -0.202,2.45 0.131,4.783 1,7 0.16,1.699 -0.006,3.366 -0.5,5 -2.533,0.45 -4.7,1.45 -6.5,3 -2.716,1.819 -5.716,2.819 -9,3 1.988,-3.988 4.988,-6.988 9,-9 0.826,-13.505 1.493,-27.1718 2,-41 1.492,-3.7641 2.492,-7.7641 3,-12 1.333,0 2.667,0 4,0 0,1.6667 0,3.3333 0,5 z"
         id="path129" />
    </g>
    <g
       id="g130"
       style="clip-rule:evenodd;fill-rule:evenodd;image-rendering:optimizeQuality;shape-rendering:geometricPrecision;text-rendering:geometricPrecision"
       transform="matrix(0.32935757,0,0,0.32935757,-126.04916,-8.0053545)">
      <path
         style="opacity:1"
         fill="#f5daa1"
         d="m 487.5,84.5 c -0.507,13.8282 -1.174,27.495 -2,41 -0.167,-11.671 0,-23.338 0.5,-35 0.191,-2.2078 0.691,-4.2078 1.5,-6 z"
         id="path130" />
    </g>
    <g
       id="g131"
       style="clip-rule:evenodd;fill-rule:evenodd;image-rendering:optimizeQuality;shape-rendering:geometricPrecision;text-rendering:geometricPrecision"
       transform="matrix(0.32935757,0,0,0.32935757,-126.04916,-8.0053545)">
      <path
         style="opacity:1"
         fill="#db9031"
         d="m 570.5,114.5 c 0.342,0.838 1.008,1.172 2,1 1.085,2.082 2.585,2.416 4.5,1 0.495,1.973 0.662,3.973 0.5,6 -2.251,8.509 -5.084,16.842 -8.5,25 -1.699,0.906 -3.533,1.239 -5.5,1 -0.667,0 -1.333,0 -2,0 -4.015,-1.873 -8.349,-2.873 -13,-3 -9.486,-0.994 -19.152,-1.327 -29,-1 2.671,-1.618 5.671,-2.285 9,-2 7.341,-0.166 14.674,0 22,0.5 5.776,1.988 11.776,3.155 18,3.5 -0.164,-2.687 0.003,-5.354 0.5,-8 2.121,-3.456 3.788,-7.123 5,-11 0.498,-2.982 0.665,-5.982 0.5,-9 -3.352,-0.284 -6.352,-1.45 -9,-3.5 -4.378,-0.679 -8.711,-1.512 -13,-2.5 -0.111,-0.617 -0.444,-1.117 -1,-1.5 -12.693,-0.754 -25.359,-0.587 -38,0.5 0.763,-0.768 1.763,-1.268 3,-1.5 12.99,-1.793 25.99,-1.793 39,0 4.837,2.088 9.837,3.588 15,4.5 z"
         id="path131" />
    </g>
    <g
       id="g132"
       style="clip-rule:evenodd;fill-rule:evenodd;image-rendering:optimizeQuality;shape-rendering:geometricPrecision;text-rendering:geometricPrecision"
       transform="matrix(0.32935757,0,0,0.32935757,-126.04916,-8.0053545)">
      <path
         style="opacity:1"
         fill="#ea870e"
         d="m 552.5,112.5 c -9.001,-1.416 -17.835,-0.75 -26.5,2 -2.499,-0.6 -4.499,0.4 -6,3 -0.875,-2.013 -2.209,-2.013 -4,0 -0.317,-1.801 -0.984,-2.134 -2,-1 -2.946,-3.043 -4.112,-2.376 -3.5,2 -4.615,-0.791 -8.448,0.876 -11.5,5 -0.333,-0.667 -0.667,-1.333 -1,-2 -1.452,1.407 -1.285,2.907 0.5,4.5 -0.631,2.355 -0.631,4.522 0,6.5 1.616,3.635 3.116,7.635 4.5,12 1.569,0.622 3.236,0.956 5,1 4.316,-1.77 8.816,-2.937 13.5,-3.5 2.539,-0.796 4.872,-0.629 7,0.5 -3.329,-0.285 -6.329,0.382 -9,2 -3.767,1.295 -7.767,1.961 -12,2 -2.544,0.396 -4.711,-0.271 -6.5,-2 -2.511,-8.057 -5.011,-16.057 -7.5,-24 0.108,-0.942 0.441,-1.775 1,-2.5 6.186,-1.893 12.186,-4.06 18,-6.5 0.333,0 0.667,0 1,0 12.641,-1.087 25.307,-1.254 38,-0.5 0.556,0.383 0.889,0.883 1,1.5 z"
         id="path132" />
    </g>
    <g
       id="g133"
       style="clip-rule:evenodd;fill-rule:evenodd;image-rendering:optimizeQuality;shape-rendering:geometricPrecision;text-rendering:geometricPrecision"
       transform="matrix(0.32935757,0,0,0.32935757,-126.04916,-8.0053545)">
      <path
         style="opacity:1"
         fill="#f8e8bb"
         d="m 501.5,65.5 c -0.283,0.7891 -0.783,1.4558 -1.5,2 -0.897,8.7362 -2.23,17.4029 -4,26 -0.5,6.658 -0.666,13.325 -0.5,20 1.915,0.284 3.581,-0.049 5,-1 21.439,-7.232 43.106,-7.898 65,-2 1.091,2.034 2.757,3.368 5,4 -5.163,-0.912 -10.163,-2.412 -15,-4.5 -13.01,-1.793 -26.01,-1.793 -39,0 -1.237,0.232 -2.237,0.732 -3,1.5 -0.333,0 -0.667,0 -1,0 -6.4,1.468 -12.734,3.134 -19,5 0.366,-15.425 1.699,-30.7584 4,-46 0.61,-0.891 0.943,-1.891 1,-3 0.473,-1.4063 1.473,-2.073 3,-2 z"
         id="path133" />
    </g>
    <g
       id="g134"
       style="clip-rule:evenodd;fill-rule:evenodd;image-rendering:optimizeQuality;shape-rendering:geometricPrecision;text-rendering:geometricPrecision"
       transform="matrix(0.32935757,0,0,0.32935757,-126.04916,-8.0053545)">
      <path
         style="opacity:1"
         fill="#f9f6d9"
         d="m 584.5,126.5 c 0,1 0,2 0,3 -2,0 -4,0 -6,0 0,-2.333 0,-4.667 0,-7 -0.384,-8.331 -0.718,-16.664 -1,-25 -0.255,-8.3689 -0.921,-16.7022 -2,-25 1.644,-0.2135 3.144,0.1198 4.5,1 2.241,17.7421 3.741,35.409 4.5,53 z"
         id="path134" />
    </g>
    <g
       id="g135"
       style="clip-rule:evenodd;fill-rule:evenodd;image-rendering:optimizeQuality;shape-rendering:geometricPrecision;text-rendering:geometricPrecision"
       transform="matrix(0.32935757,0,0,0.32935757,-126.04916,-8.0053545)">
      <path
         style="opacity:1"
         fill="#f7ecc9"
         d="m 566.5,64.5 c 0.891,0.6098 1.891,0.9431 3,1 1.377,1.7895 2.377,3.7895 3,6 2.32,14.5671 3.32,29.234 3,44 -1,0 -2,0 -3,0 -0.992,0.172 -1.658,-0.162 -2,-1 1.333,0 2.667,0 4,0 -1.243,-15.352 -2.743,-30.6854 -4.5,-46 -1.627,-1.0323 -2.793,-2.3656 -3.5,-4 z"
         id="path135" />
    </g>
    <g
       id="g136"
       style="clip-rule:evenodd;fill-rule:evenodd;image-rendering:optimizeQuality;shape-rendering:geometricPrecision;text-rendering:geometricPrecision"
       transform="matrix(0.32935757,0,0,0.32935757,-126.04916,-8.0053545)">
      <path
         style="opacity:1"
         fill="#c3a570"
         d="m 577.5,70.5 c 0.333,0 0.667,0 1,0 -1.068,0.9345 -2.401,1.2678 -4,1 0.353,8.8813 1.353,17.548 3,26 0.282,8.336 0.616,16.669 1,25 -0.333,0 -0.667,0 -1,0 0.162,-2.027 -0.005,-4.027 -0.5,-6 -1.915,1.416 -3.415,1.082 -4.5,-1 1,0 2,0 3,0 0.32,-14.766 -0.68,-29.4329 -3,-44 1.542,-0.8007 3.208,-1.134 5,-1 z"
         id="path136" />
    </g>
    <g
       id="g137"
       style="clip-rule:evenodd;fill-rule:evenodd;image-rendering:optimizeQuality;shape-rendering:geometricPrecision;text-rendering:geometricPrecision"
       transform="matrix(0.32935757,0,0,0.32935757,-126.04916,-8.0053545)">
      <path
         style="opacity:1"
         fill="#b89966"
         d="m 491.5,70.5 c 2,0 4,0 6,0 -2.301,15.2416 -3.634,30.575 -4,46 -0.667,0 -1.333,0 -2,0 0.917,-13.004 1.917,-26.0038 3,-39 0.961,-1.7646 1.295,-3.7646 1,-6 -1.599,0.2678 -2.932,-0.0655 -4,-1 z"
         id="path137" />
    </g>
    <g
       id="g138"
       style="clip-rule:evenodd;fill-rule:evenodd;image-rendering:optimizeQuality;shape-rendering:geometricPrecision;text-rendering:geometricPrecision"
       transform="matrix(0.32935757,0,0,0.32935757,-126.04916,-8.0053545)">
      <path
         style="opacity:1"
         fill="#f4e7c4"
         d="m 555.5,64.5 c -0.876,-0.1309 -1.543,0.2025 -2,1 2.981,11.2585 5.648,22.5918 8,34 -1.303,-3.0073 -2.803,-6.0073 -4.5,-9 -1.113,-9.1653 -2.946,-18.1653 -5.5,-27 1.599,-0.2678 2.932,0.0655 4,1 z"
         id="path138" />
    </g>
    <g
       id="g139"
       style="clip-rule:evenodd;fill-rule:evenodd;image-rendering:optimizeQuality;shape-rendering:geometricPrecision;text-rendering:geometricPrecision"
       transform="matrix(0.32935757,0,0,0.32935757,-126.04916,-8.0053545)">
      <path
         style="opacity:1"
         fill="#b69a69"
         d="m 555.5,64.5 c 3.313,13.9206 6.313,27.9206 9,42 -1.613,-1.961 -2.613,-4.294 -3,-7 -2.352,-11.4082 -5.019,-22.7415 -8,-34 0.457,-0.7975 1.124,-1.1309 2,-1 z"
         id="path139" />
    </g>
    <g
       id="g140"
       style="clip-rule:evenodd;fill-rule:evenodd;image-rendering:optimizeQuality;shape-rendering:geometricPrecision;text-rendering:geometricPrecision"
       transform="matrix(0.32935757,0,0,0.32935757,-126.04916,-8.0053545)">
      <path
         style="opacity:1"
         fill="#f3d5a0"
         d="m 578.5,70.5 c 0.667,0.3333 1.333,0.6667 2,1 0.929,3.1754 1.762,6.5087 2.5,10 1.198,14.9762 1.698,29.976 1.5,45 -0.759,-17.591 -2.259,-35.2579 -4.5,-53 -1.356,-0.8802 -2.856,-1.2135 -4.5,-1 1.079,8.2978 1.745,16.6311 2,25 -1.647,-8.452 -2.647,-17.1187 -3,-26 1.599,0.2678 2.932,-0.0655 4,-1 z"
         id="path140" />
    </g>
    <g
       id="g141"
       style="clip-rule:evenodd;fill-rule:evenodd;image-rendering:optimizeQuality;shape-rendering:geometricPrecision;text-rendering:geometricPrecision"
       transform="matrix(0.32935757,0,0,0.32935757,-126.04916,-8.0053545)">
      <path
         style="opacity:1"
         fill="#f6dca0"
         d="m 490.5,66.5 c 0.934,1.0676 1.268,2.401 1,4 1.068,0.9345 2.401,1.2678 4,1 0.295,2.2354 -0.039,4.2354 -1,6 0,-1.6667 0,-3.3333 0,-5 -1.333,0 -2.667,0 -4,0 -0.508,4.2359 -1.508,8.2359 -3,12 0.05,-6.1886 1.05,-12.1886 3,-18 z"
         id="path141" />
    </g>
    <g
       id="g142"
       style="clip-rule:evenodd;fill-rule:evenodd;image-rendering:optimizeQuality;shape-rendering:geometricPrecision;text-rendering:geometricPrecision"
       transform="matrix(0.32935757,0,0,0.32935757,-126.04916,-8.0053545)">
      <path
         style="opacity:1"
         fill="#faf9f9"
         d="m 565.5,110.5 c -1.395,-1.148 -1.228,-2.148 0.5,-3 0.928,-7.007 0.094,-13.6738 -2.5,-20 -1.749,-6.9161 -3.082,-13.9161 -4,-21 7.583,-0.351 10.25,3.149 8,10.5 3.239,11.2675 5.239,22.7675 6,34.5 -0.667,0.333 -1.333,0.667 -2,1 -1.825,-1.151 -3.825,-1.818 -6,-2 z"
         id="path142" />
    </g>
    <g
       id="g143"
       style="clip-rule:evenodd;fill-rule:evenodd;image-rendering:optimizeQuality;shape-rendering:geometricPrecision;text-rendering:geometricPrecision"
       transform="matrix(0.32935757,0,0,0.32935757,-126.04916,-8.0053545)">
      <path
         style="opacity:1"
         fill="#faf9eb"
         d="m 566.5,64.5 c 0.707,1.6344 1.873,2.9677 3.5,4 1.757,15.3146 3.257,30.648 4.5,46 -1.333,0 -2.667,0 -4,0 -2.243,-0.632 -3.909,-1.966 -5,-4 2.175,0.182 4.175,0.849 6,2 0.667,-0.333 1.333,-0.667 2,-1 -0.761,-11.7325 -2.761,-23.2325 -6,-34.5 2.25,-7.351 -0.417,-10.851 -8,-10.5 0.918,7.0839 2.251,14.0839 4,21 -0.617,-0.1107 -1.117,-0.444 -1.5,-1 -1.945,-7.6861 -3.445,-15.3528 -4.5,-23 2.982,0.4629 5.982,0.7962 9,1 z"
         id="path143" />
    </g>
    <g
       id="g144"
       style="clip-rule:evenodd;fill-rule:evenodd;image-rendering:optimizeQuality;shape-rendering:geometricPrecision;text-rendering:geometricPrecision"
       transform="matrix(0.32935757,0,0,0.32935757,-126.04916,-8.0053545)">
      <path
         style="opacity:1"
         fill="#f8eeca"
         d="m 550.5,50.5 c 3.045,0.0079 6.045,0.3413 9,1 -0.057,1.109 -0.39,2.109 -1,3 -1.098,1.1009 -1.265,2.4343 -0.5,4 2.637,2.391 5.47,4.391 8.5,6 -3.018,-0.2038 -6.018,-0.5371 -9,-1 1.055,7.6472 2.555,15.3139 4.5,23 0.383,0.556 0.883,0.8893 1.5,1 0.385,5.3609 1.051,10.6943 2,16 -0.02,1.226 -0.353,2.226 -1,3 -2.687,-14.0794 -5.687,-28.0794 -9,-42 1.113,-1.4464 1.28,-3.1131 0.5,-5 -0.671,-0.7524 -1.504,-1.0858 -2.5,-1 0.237,-1.291 -0.096,-2.291 -1,-3 -0.333,-1 -1,-1.6667 -2,-2 -0.616,-1.2978 -0.616,-2.2978 0,-3 z"
         id="path144" />
    </g>
    <g
       id="g145"
       style="clip-rule:evenodd;fill-rule:evenodd;image-rendering:optimizeQuality;shape-rendering:geometricPrecision;text-rendering:geometricPrecision"
       transform="matrix(0.32935757,0,0,0.32935757,-126.04916,-8.0053545)">
      <path
         style="opacity:1"
         fill="#d69032"
         d="m 573.5,59.5 c 3.509,2.7391 4.843,6.4057 4,11 -1.792,-0.134 -3.458,0.1993 -5,1 -0.623,-2.2105 -1.623,-4.2105 -3,-6 1.91,1.7838 4.244,2.7838 7,3 -0.53,-3.1819 -1.53,-6.1819 -3,-9 z"
         id="path145" />
    </g>
    <g
       id="g146"
       style="clip-rule:evenodd;fill-rule:evenodd;image-rendering:optimizeQuality;shape-rendering:geometricPrecision;text-rendering:geometricPrecision"
       transform="matrix(0.32935757,0,0,0.32935757,-126.04916,-8.0053545)">
      <path
         style="opacity:1"
         fill="#e98310"
         d="m 572.5,59.5 c 0.333,0 0.667,0 1,0 1.47,2.8181 2.47,5.8181 3,9 -2.756,-0.2162 -5.09,-1.2162 -7,-3 -2.151,-3.2444 -5.151,-5.2444 -9,-6 0,-1 0,-2 0,-3 4.216,0.184 8.216,1.184 12,3 z"
         id="path146" />
    </g>
    <g
       id="g147"
       style="clip-rule:evenodd;fill-rule:evenodd;image-rendering:optimizeQuality;shape-rendering:geometricPrecision;text-rendering:geometricPrecision"
       transform="matrix(0.32935757,0,0,0.32935757,-126.04916,-8.0053545)">
      <path
         style="opacity:1"
         fill="#d58d33"
         d="m 558.5,54.5 c 5.468,-0.2905 10.135,1.3761 14,5 -3.784,-1.816 -7.784,-2.816 -12,-3 0,1 0,2 0,3 3.849,0.7556 6.849,2.7556 9,6 -1.109,-0.0569 -2.109,-0.3902 -3,-1 -3.03,-1.609 -5.863,-3.609 -8.5,-6 -0.765,-1.5657 -0.598,-2.8991 0.5,-4 z"
         id="path147" />
    </g>
    <g
       id="g148"
       style="clip-rule:evenodd;fill-rule:evenodd;image-rendering:optimizeQuality;shape-rendering:geometricPrecision;text-rendering:geometricPrecision"
       transform="matrix(0.32935757,0,0,0.32935757,-126.04916,-8.0053545)">
      <path
         style="opacity:1"
         fill="#f9f7e6"
         d="m 553.5,58.5 c 0.996,-0.0858 1.829,0.2476 2.5,1 0.78,1.8869 0.613,3.5536 -0.5,5 -1.068,-0.9345 -2.401,-1.2678 -4,-1 2.554,8.8347 4.387,17.8347 5.5,27 1.697,2.9927 3.197,5.9927 4.5,9 0.387,2.706 1.387,5.039 3,7 0.647,-0.774 0.98,-1.774 1,-3 -0.949,-5.3057 -1.615,-10.6391 -2,-16 2.594,6.3262 3.428,12.993 2.5,20 -1.728,0.852 -1.895,1.852 -0.5,3 -21.894,-5.898 -43.561,-5.232 -65,2 -1.419,0.951 -3.085,1.284 -5,1 -0.166,-6.675 0,-13.342 0.5,-20 1.77,-8.5971 3.103,-17.2638 4,-26 0.717,-0.5442 1.217,-1.2109 1.5,-2 3.333,-2.3333 6.667,-4.6667 10,-7 0.961,-1.7646 1.295,-3.7646 1,-6 1.333,0 2.667,0 4,0 -0.256,2.2925 0.077,4.4592 1,6.5 12.174,0.8263 24.174,0.6597 36,-0.5 z"
         id="path148" />
    </g>
    <g
       id="g149"
       style="clip-rule:evenodd;fill-rule:evenodd;image-rendering:optimizeQuality;shape-rendering:geometricPrecision;text-rendering:geometricPrecision"
       transform="matrix(0.32935757,0,0,0.32935757,-126.04916,-8.0053545)">
      <path
         style="opacity:1"
         fill="#f6eac9"
         d="m 516.5,63.5 c 0.656,1.1216 0.989,2.4549 1,4 -2.084,5.7814 -3.084,11.7814 -3,18 -0.617,0.1107 -1.117,0.444 -1.5,1 -0.452,3.3772 -1.118,6.7105 -2,10 -0.377,1.4423 -1.21,2.4423 -2.5,3 2.539,-12.0271 5.205,-24.0271 8,-36 z"
         id="path149" />
    </g>
    <g
       id="g150"
       style="clip-rule:evenodd;fill-rule:evenodd;image-rendering:optimizeQuality;shape-rendering:geometricPrecision;text-rendering:geometricPrecision"
       transform="matrix(0.32935757,0,0,0.32935757,-126.04916,-8.0053545)">
      <path
         style="opacity:1"
         fill="#b49768"
         d="m 516.5,63.5 c -2.795,11.9729 -5.461,23.9729 -8,36 -0.532,2.13 -1.365,4.13 -2.5,6 -0.167,-0.667 -0.333,-1.333 -0.5,-2 2.992,-12.9676 5.825,-25.9676 8.5,-39 0.671,-0.7524 1.504,-1.0858 2.5,-1 z"
         id="path150" />
    </g>
    <g
       id="g151"
       style="clip-rule:evenodd;fill-rule:evenodd;image-rendering:optimizeQuality;shape-rendering:geometricPrecision;text-rendering:geometricPrecision"
       transform="matrix(0.32935757,0,0,0.32935757,-126.04916,-8.0053545)">
      <path
         style="opacity:1"
         fill="#faf9f9"
         d="m 500.5,112.5 c -1.333,0 -2.667,0 -4,0 -0.166,-5.344 10e-4,-10.677 0.5,-16 1.554,-4.5863 2.721,-9.5863 3.5,-15 -0.256,-1.1891 -0.589,-2.3558 -1,-3.5 1.041,-3.9586 2.208,-7.4586 3.5,-10.5 2.243,-1.782 4.743,-2.282 7.5,-1.5 -0.045,2.6365 -0.212,5.4698 -0.5,8.5 -5.138,10.6608 -6.971,21.8275 -5.5,33.5 -1.692,1.307 -3.025,2.807 -4,4.5 z"
         id="path151" />
    </g>
    <g
       id="g152"
       style="clip-rule:evenodd;fill-rule:evenodd;image-rendering:optimizeQuality;shape-rendering:geometricPrecision;text-rendering:geometricPrecision"
       transform="matrix(0.32935757,0,0,0.32935757,-126.04916,-8.0053545)">
      <path
         style="opacity:1"
         fill="#fafaf9"
         d="m 514.5,85.5 c 2.911,-7.7785 4.577,-15.6118 5,-23.5 10.215,0.0638 20.215,-0.1028 30,-0.5 2.464,9.0842 4.464,18.2509 6,27.5 -0.333,0.3333 -0.667,0.6667 -1,1 2.711,5.6353 4.711,11.469 6,17.5 -8.054,-0.88 -16.387,-1.88 -25,-3 -4.618,0.159 -9.118,0.826 -13.5,2 -0.414,-0.457 -0.914,-0.791 -1.5,-1 -3.625,0.63 -7.125,1.63 -10.5,3 -0.342,-2.318 0.158,-4.485 1.5,-6.5 -0.675,-2.2421 -0.175,-4.4088 1.5,-6.5 0.61,-3.3273 1.11,-6.6606 1.5,-10 z"
         id="path152" />
    </g>
    <g
       id="g153"
       style="clip-rule:evenodd;fill-rule:evenodd;image-rendering:optimizeQuality;shape-rendering:geometricPrecision;text-rendering:geometricPrecision"
       transform="matrix(0.32935757,0,0,0.32935757,-126.04916,-8.0053545)">
      <path
         style="opacity:1"
         fill="#f1d59d"
         d="m 517.5,50.5 c 1.548,0.3212 2.215,1.3212 2,3 -1.301,1.3845 -1.301,2.8845 0,4.5 10.995,0.4998 21.995,0.6665 33,0.5 0,-1 0,-2 0,-3 0.904,0.709 1.237,1.709 1,3 -11.826,1.1597 -23.826,1.3263 -36,0.5 -0.923,-2.0408 -1.256,-4.2075 -1,-6.5 -1.333,0 -2.667,0 -4,0 0.295,2.2354 -0.039,4.2354 -1,6 0,-1.3333 0,-2.6667 0,-4 -0.61,-0.891 -0.943,-1.891 -1,-3 2.264,-0.7186 4.597,-1.052 7,-1 z"
         id="path153" />
    </g>
    <g
       id="g154"
       style="clip-rule:evenodd;fill-rule:evenodd;image-rendering:optimizeQuality;shape-rendering:geometricPrecision;text-rendering:geometricPrecision"
       transform="matrix(0.32935757,0,0,0.32935757,-126.04916,-8.0053545)">
      <path
         style="opacity:1"
         fill="#e1851a"
         d="m 511.5,54.5 c 0,1.3333 0,2.6667 0,4 -3.333,2.3333 -6.667,4.6667 -10,7 -1.527,-0.073 -2.527,0.5937 -3,2 -1.642,1.5808 -3.642,2.2475 -6,2 -0.199,-7.097 3.134,-11.597 10,-13.5 2.893,-1.1488 5.893,-1.6488 9,-1.5 z"
         id="path154" />
    </g>
    <g
       id="g155"
       style="clip-rule:evenodd;fill-rule:evenodd;image-rendering:optimizeQuality;shape-rendering:geometricPrecision;text-rendering:geometricPrecision"
       transform="matrix(0.32935757,0,0,0.32935757,-126.04916,-8.0053545)">
      <path
         style="opacity:1"
         fill="#cf913c"
         d="m 550.5,53.5 c 1,0.3333 1.667,1 2,2 0,1 0,2 0,3 -11.005,0.1665 -22.005,-2e-4 -33,-0.5 -1.301,-1.6155 -1.301,-3.1155 0,-4.5 0.333,0 0.667,0 1,0 0.111,-0.6174 0.444,-1.1174 1,-1.5 9,-0.6667 18,-0.6667 27,0 0.544,0.7172 1.211,1.2172 2,1.5 z"
         id="path155" />
    </g>
    <g
       id="g156"
       style="clip-rule:evenodd;fill-rule:evenodd;image-rendering:optimizeQuality;shape-rendering:geometricPrecision;text-rendering:geometricPrecision"
       transform="matrix(0.32935757,0,0,0.32935757,-126.04916,-8.0053545)">
      <path
         style="opacity:1"
         fill="#f6c872"
         d="m 559.5,51.5 c 5.446,1.1131 10.446,3.2798 15,6.5 3.768,3.7035 5.768,8.2035 6,13.5 -0.667,-0.3333 -1.333,-0.6667 -2,-1 -0.333,0 -0.667,0 -1,0 0.843,-4.5943 -0.491,-8.2609 -4,-11 -0.333,0 -0.667,0 -1,0 -3.865,-3.6239 -8.532,-5.2905 -14,-5 0.61,-0.891 0.943,-1.891 1,-3 z"
         id="path156" />
    </g>
    <g
       id="g157"
       style="clip-rule:evenodd;fill-rule:evenodd;image-rendering:optimizeQuality;shape-rendering:geometricPrecision;text-rendering:geometricPrecision"
       transform="matrix(0.32935757,0,0,0.32935757,-126.04916,-8.0053545)">
      <path
         style="opacity:1"
         fill="#ea8711"
         d="m 520.5,53.5 c 8.619,-1.1085 17.285,-1.2751 26,-0.5 2.363,0.5885 3.363,2.0885 3,4.5 -9.339,0.1665 -18.673,-2e-4 -28,-0.5 -0.837,-1.0113 -1.17,-2.1779 -1,-3.5 z"
         id="path157" />
    </g>
    <g
       id="g158"
       style="clip-rule:evenodd;fill-rule:evenodd;image-rendering:optimizeQuality;shape-rendering:geometricPrecision;text-rendering:geometricPrecision"
       transform="matrix(0.32935757,0,0,0.32935757,-126.04916,-8.0053545)">
      <path
         style="opacity:1"
         fill="#f3bd63"
         d="m 510.5,51.5 c 0.057,1.109 0.39,2.109 1,3 -3.107,-0.1488 -6.107,0.3512 -9,1.5 -6.866,1.903 -10.199,6.403 -10,13.5 2.358,0.2475 4.358,-0.4192 6,-2 -0.057,1.109 -0.39,2.109 -1,3 -2,0 -4,0 -6,0 0.268,-1.599 -0.066,-2.9324 -1,-4 0.761,-3.3539 2.428,-6.1872 5,-8.5 4.536,-3.2345 9.536,-5.4011 15,-6.5 z"
         id="path158" />
    </g>
    <g
       id="g159"
       style="clip-rule:evenodd;fill-rule:evenodd;image-rendering:optimizeQuality;shape-rendering:geometricPrecision;text-rendering:geometricPrecision"
       transform="matrix(0.32935757,0,0,0.32935757,-126.04916,-8.0053545)">
      <path
         style="opacity:1"
         fill="#f7d382"
         d="m 550.5,50.5 c -0.616,0.7022 -0.616,1.7022 0,3 -0.789,-0.2828 -1.456,-0.7828 -2,-1.5 -9,-0.6667 -18,-0.6667 -27,0 -0.556,0.3826 -0.889,0.8826 -1,1.5 -0.333,0 -0.667,0 -1,0 0.215,-1.6788 -0.452,-2.6788 -2,-3 11.003,-2.6254 22.003,-2.6254 33,0 z"
         id="path159" />
    </g>
    <g
       id="g160"
       style="clip-rule:evenodd;fill-rule:evenodd;image-rendering:optimizeQuality;shape-rendering:geometricPrecision;text-rendering:geometricPrecision"
       transform="matrix(0.32935757,0,0,0.32935757,-126.04916,-8.0053545)">
      <path
         style="opacity:1"
         fill="#faf9f8"
         d="m 552.5,148.5 c 2.469,0.817 5.135,1.317 8,1.5 2.716,0.782 5.05,2.116 7,4 0.196,11.117 -0.137,22.283 -1,33.5 -1.764,-5.01 -3.931,-10.01 -6.5,-15 -0.75,-0.626 -1.584,-1.126 -2.5,-1.5 -14.839,-0.828 -29.506,-0.661 -44,0.5 -1.811,0.072 -3.144,0.905 -4,2.5 -1.584,4.58 -2.917,9.247 -4,14 -0.869,1.869 -2.035,2.369 -3.5,1.5 -0.206,-12.026 -0.706,-24.026 -1.5,-36 0.108,-0.942 0.441,-1.775 1,-2.5 16.135,-3.756 32.469,-5.089 49,-4 0.916,0.278 1.582,0.778 2,1.5 z"
         id="path160" />
    </g>
    <g
       id="g162"
       style="clip-rule:evenodd;fill-rule:evenodd;image-rendering:optimizeQuality;shape-rendering:geometricPrecision;text-rendering:geometricPrecision"
       transform="matrix(0.32935757,0,0,0.32935757,-126.04916,-8.0053545)">
      <path
         style="opacity:1"
         fill="#f8d792"
         d="m 584.5,135.5 c 0,20 0,40 0,60 0.33,16.509 -0.004,32.842 -1,49 0.167,-36.002 0,-72.002 -0.5,-108 -0.168,23.504 -0.668,46.837 -1.5,70 -0.333,-24.009 0,-48.009 1,-72 0.683,0.363 1.35,0.696 2,1 z"
         id="path162" />
    </g>
    <g
       id="g165"
       style="clip-rule:evenodd;fill-rule:evenodd;image-rendering:optimizeQuality;shape-rendering:geometricPrecision;text-rendering:geometricPrecision"
       transform="matrix(0.32935757,0,0,0.32935757,-126.04916,-8.0053545)">
      <path
         style="opacity:1"
         fill="#f9e39e"
         d="m 486.5,134.5 c 0.667,27 1.333,54 2,81 -0.04,3.381 0.293,6.714 1,10 -0.65,-0.304 -1.317,-0.637 -2,-1 -0.333,3.5 -0.667,7 -1,10.5 0.461,7.831 0.795,15.664 1,23.5 -0.821,-3.141 -1.321,-6.475 -1.5,-10 -0.831,-38.169 -0.664,-76.169 0.5,-114 z"
         id="path165" />
    </g>
    <g
       id="g167"
       style="clip-rule:evenodd;fill-rule:evenodd;image-rendering:optimizeQuality;shape-rendering:geometricPrecision;text-rendering:geometricPrecision"
       transform="matrix(0.32935757,0,0,0.32935757,-126.04916,-8.0053545)">
      <path
         style="opacity:1"
         fill="#f9efce"
         d="m 472.5,140.5 c 2.619,-0.268 5.119,0.065 7.5,1 0.168,32.836 0.668,65.503 1.5,98 1.447,12.355 3.114,24.688 5,37 -0.617,-0.111 -1.117,-0.444 -1.5,-1 -1.522,-9.03 -3.188,-18.03 -5,-27 -0.167,-35.502 -0.667,-70.836 -1.5,-106 -2.398,0.241 -4.398,-0.426 -6,-2 z"
         id="path167" />
    </g>
    <g
       id="g169"
       style="clip-rule:evenodd;fill-rule:evenodd;image-rendering:optimizeQuality;shape-rendering:geometricPrecision;text-rendering:geometricPrecision"
       transform="matrix(0.32935757,0,0,0.32935757,-126.04916,-8.0053545)">
      <path
         style="opacity:1"
         fill="#f9dca9"
         d="m 472.5,130.5 c 0,2.667 0,5.333 0,8 2.749,0.226 5.416,-0.107 8,-1 1,33.993 1.333,67.993 1,102 -0.832,-32.497 -1.332,-65.164 -1.5,-98 -2.381,-0.935 -4.881,-1.268 -7.5,-1 -0.667,0 -1,-0.333 -1,-1 -0.31,-3.213 0.023,-6.213 1,-9 z"
         id="path169" />
    </g>
    <g
       id="g174"
       style="clip-rule:evenodd;fill-rule:evenodd;image-rendering:optimizeQuality;shape-rendering:geometricPrecision;text-rendering:geometricPrecision"
       transform="matrix(0.32935757,0,0,0.32935757,-126.04916,-8.0053545)">
      <path
         style="opacity:1"
         fill="#f9eab0"
         d="m 583.5,244.5 c -0.124,8.113 -1.124,16.113 -3,24 -0.247,1.213 -0.914,1.88 -2,2 1.417,-3.498 2.083,-7.165 2,-11 1.057,-7.815 1.724,-15.815 2,-24 -0.017,-3.413 -0.684,-6.413 -2,-9 0.88,-6.623 1.213,-13.289 1,-20 0.832,-23.163 1.332,-46.496 1.5,-70 0.5,35.998 0.667,71.998 0.5,108 z"
         id="path174" />
    </g>
    <g
       id="g183"
       style="clip-rule:evenodd;fill-rule:evenodd;image-rendering:optimizeQuality;shape-rendering:geometricPrecision;text-rendering:geometricPrecision"
       transform="matrix(0.32935757,0,0,0.32935757,-126.04916,-8.0053545)">
      <path
         style="opacity:1"
         fill="#f9d284"
         d="m 486.5,134.5 c 0.06,-0.543 0.393,-0.876 1,-1 1,27.325 1.333,54.659 1,82 -0.667,-27 -1.333,-54 -2,-81 z"
         id="path183" />
    </g>
    <g
       id="g184"
       style="clip-rule:evenodd;fill-rule:evenodd;image-rendering:optimizeQuality;shape-rendering:geometricPrecision;text-rendering:geometricPrecision"
       transform="matrix(0.32935757,0,0,0.32935757,-126.04916,-8.0053545)">
      <path
         style="opacity:1"
         fill="#f38302"
         d="m 492.5,142.5 c 1.713,1.135 2.38,2.802 2,5 3.58,18.478 3.913,36.978 1,55.5 2.064,6.236 0.898,11.736 -3.5,16.5 -0.825,-16.907 -0.658,-33.741 0.5,-50.5 -0.626,-0.75 -1.126,-1.584 -1.5,-2.5 -0.167,-4 -0.333,-8 -0.5,-12 0.009,-4.393 0.676,-8.393 2,-12 z"
         id="path184" />
    </g>
    <g
       id="g185"
       style="clip-rule:evenodd;fill-rule:evenodd;image-rendering:optimizeQuality;shape-rendering:geometricPrecision;text-rendering:geometricPrecision"
       transform="matrix(0.32935757,0,0,0.32935757,-126.04916,-8.0053545)">
      <path
         style="opacity:1"
         fill="#e48616"
         d="m 491.5,135.5 c -0.052,2.403 0.281,4.736 1,7 -1.324,3.607 -1.991,7.607 -2,12 0.167,4 0.333,8 0.5,12 0.374,0.916 0.874,1.75 1.5,2.5 -1.158,16.759 -1.325,33.593 -0.5,50.5 4.398,-4.764 5.564,-10.264 3.5,-16.5 2.913,-18.522 2.58,-37.022 -1,-55.5 1.333,2.333 2.667,4.667 4,7 0.211,19.348 -0.123,38.682 -1,58 0.268,1.599 -0.066,2.932 -1,4 -1.234,3.04 -3.568,4.373 -7,4 -0.658,-28.686 0.008,-57.02 2,-85 z"
         id="path185" />
    </g>
    <g
       id="g187"
       style="clip-rule:evenodd;fill-rule:evenodd;image-rendering:optimizeQuality;shape-rendering:geometricPrecision;text-rendering:geometricPrecision"
       transform="matrix(0.32935757,0,0,0.32935757,-126.04916,-8.0053545)">
      <path
         style="opacity:1"
         fill="#c19757"
         d="m 554.5,172.5 c 2.591,0.754 4.424,2.421 5.5,5 1.332,5.657 2.499,11.323 3.5,17 -1,0.667 -2,1.333 -3,2 0.172,-0.992 -0.162,-1.658 -1,-2 0,-0.333 0,-0.667 0,-1 0.624,-0.417 0.957,-1.084 1,-2 -1.222,-4.824 -2.555,-9.491 -4,-14 -6.801,-1.331 -13.967,-1.997 -21.5,-2 -7.167,0.167 -14.333,0.333 -21.5,0.5 -0.88,1.356 -1.214,2.856 -1,4.5 -0.667,1.333 -1.333,2.667 -2,4 0.131,-0.739 -0.036,-1.406 -0.5,-2 -0.278,0.916 -0.778,1.582 -1.5,2 0.248,-4.244 1.581,-8.078 4,-11.5 13.996,-0.5 27.996,-0.667 42,-0.5 z"
         id="path187" />
    </g>
    <g
       id="g189"
       style="clip-rule:evenodd;fill-rule:evenodd;image-rendering:optimizeQuality;shape-rendering:geometricPrecision;text-rendering:geometricPrecision"
       transform="matrix(0.32935757,0,0,0.32935757,-126.04916,-8.0053545)">
      <path
         style="opacity:1"
         fill="#d38b31"
         d="m 498.5,154.5 c 0.997,18.493 1.33,37.159 1,56 -0.667,0.667 -1.333,1.333 -2,2 0.877,-19.318 1.211,-38.652 1,-58 z"
         id="path189" />
    </g>
    <g
       id="g190"
       style="clip-rule:evenodd;fill-rule:evenodd;image-rendering:optimizeQuality;shape-rendering:geometricPrecision;text-rendering:geometricPrecision"
       transform="matrix(0.32935757,0,0,0.32935757,-126.04916,-8.0053545)">
      <path
         style="opacity:1"
         fill="#f7e5b2"
         d="m 556.5,177.5 c -3.243,-1.08 -6.576,-1.247 -10,-0.5 0.556,0.383 0.889,0.883 1,1.5 -1.594,0.42 -3.094,1.086 -4.5,2 -1,-0.667 -2,-1.333 -3,-2 -0.5,0.333 -1,0.667 -1.5,1 2.559,3.406 2.559,6.74 0,10 0.5,0.333 1,0.667 1.5,1 1.221,-0.772 2.221,-1.772 3,-3 0.779,1.228 1.779,2.228 3,3 0.5,-0.333 1,-0.667 1.5,-1 -2.652,-3.366 -2.652,-6.699 0,-10 0.667,0 1.333,0 2,0 0,3.667 0,7.333 0,11 1,0 2,0 3,0 -1.089,1.617 -2.756,2.45 -5,2.5 3.986,0.499 7.986,0.666 12,0.5 0,0.333 0,0.667 0,1 -16.337,0.167 -32.67,0 -49,-0.5 -0.895,-3.095 -0.895,-6.262 0,-9.5 0.667,-1.333 1.333,-2.667 2,-4 -0.214,-1.644 0.12,-3.144 1,-4.5 7.167,-0.167 14.333,-0.333 21.5,-0.5 7.533,0.003 14.699,0.669 21.5,2 z"
         id="path190" />
    </g>
    <g
       id="g194"
       style="clip-rule:evenodd;fill-rule:evenodd;image-rendering:optimizeQuality;shape-rendering:geometricPrecision;text-rendering:geometricPrecision"
       transform="matrix(0.32935757,0,0,0.32935757,-126.04916,-8.0053545)">
      <path
         style="opacity:1"
         fill="#c19451"
         d="m 517.5,178.5 c 3,0 6,0 9,0 0,1 0,2 0,3 -1.333,0 -2.667,0 -4,0 0,2.667 0,5.333 0,8 -0.709,0.904 -1.709,1.237 -3,1 0,-3.333 0,-6.667 0,-10 -1.175,0.219 -2.175,-0.114 -3,-1 0.124,-0.607 0.457,-0.94 1,-1 z"
         id="path194" />
    </g>
    <g
       id="g195"
       style="clip-rule:evenodd;fill-rule:evenodd;image-rendering:optimizeQuality;shape-rendering:geometricPrecision;text-rendering:geometricPrecision"
       transform="matrix(0.32935757,0,0,0.32935757,-126.04916,-8.0053545)">
      <path
         style="opacity:1"
         fill="#bb8d48"
         d="m 547.5,178.5 c 0,0.333 0,0.667 0,1 -2.652,3.301 -2.652,6.634 0,10 -0.5,0.333 -1,0.667 -1.5,1 -1.221,-0.772 -2.221,-1.772 -3,-3 -0.779,1.228 -1.779,2.228 -3,3 -0.5,-0.333 -1,-0.667 -1.5,-1 2.559,-3.26 2.559,-6.594 0,-10 0.5,-0.333 1,-0.667 1.5,-1 1,0.667 2,1.333 3,2 1.406,-0.914 2.906,-1.58 4.5,-2 z"
         id="path195" />
    </g>
    <g
       id="g198"
       style="clip-rule:evenodd;fill-rule:evenodd;image-rendering:optimizeQuality;shape-rendering:geometricPrecision;text-rendering:geometricPrecision"
       transform="matrix(0.32935757,0,0,0.32935757,-126.04916,-8.0053545)">
      <path
         style="opacity:1"
         fill="#bb9558"
         d="m 552.5,190.5 c -1,0 -2,0 -3,0 0,-3.667 0,-7.333 0,-11 0.709,-0.904 1.709,-1.237 3,-1 0,4 0,8 0,12 z"
         id="path198" />
    </g>
    <g
       id="g199"
       style="clip-rule:evenodd;fill-rule:evenodd;image-rendering:optimizeQuality;shape-rendering:geometricPrecision;text-rendering:geometricPrecision"
       transform="matrix(0.32935757,0,0,0.32935757,-126.04916,-8.0053545)">
      <path
         style="opacity:1"
         fill="#c3954e"
         d="m 534.5,190.5 c -2.182,-2.515 -4.182,-2.515 -6,0 -0.997,0.03 -1.664,-0.47 -2,-1.5 0.929,-3.553 1.929,-7.053 3,-10.5 1.333,0 2.667,0 4,0 0.689,3.569 1.689,7.069 3,10.5 -0.336,1.03 -1.003,1.53 -2,1.5 z"
         id="path199" />
    </g>
    <g
       id="g200"
       style="clip-rule:evenodd;fill-rule:evenodd;image-rendering:optimizeQuality;shape-rendering:geometricPrecision;text-rendering:geometricPrecision"
       transform="matrix(0.32935757,0,0,0.32935757,-126.04916,-8.0053545)">
      <path
         style="opacity:1"
         fill="#f9f5db"
         d="m 552.5,148.5 c 3,0 6,0 9,0 0.667,0 1.333,0 2,0 1.765,0.961 3.765,1.295 6,1 0,4.333 0,8.667 0,13 -0.404,16.043 0.096,32.043 1.5,48 1.396,4.907 3.396,9.574 6,14 0.816,1.323 1.983,1.989 3.5,2 1.316,2.587 1.983,5.587 2,9 -0.276,8.185 -0.943,16.185 -2,24 0.628,-10.356 0.628,-20.69 0,-31 -2.9,-0.943 -5.233,-2.61 -7,-5 -4.452,-7.987 -6.786,-16.654 -7,-26 -1.716,0.129 -3.383,0.462 -5,1 1.1,-1.105 1.767,-2.438 2,-4 -1.001,-5.677 -2.168,-11.343 -3.5,-17 -1.076,-2.579 -2.909,-4.246 -5.5,-5 -13.49,-0.996 -27.156,-1.329 -41,-1 14.494,-1.161 29.161,-1.328 44,-0.5 0.916,0.374 1.75,0.874 2.5,1.5 2.569,4.99 4.736,9.99 6.5,15 0.863,-11.217 1.196,-22.383 1,-33.5 -1.95,-1.884 -4.284,-3.218 -7,-4 -2.865,-0.183 -5.531,-0.683 -8,-1.5 z"
         id="path200" />
    </g>
    <g
       id="g201"
       style="clip-rule:evenodd;fill-rule:evenodd;image-rendering:optimizeQuality;shape-rendering:geometricPrecision;text-rendering:geometricPrecision"
       transform="matrix(0.32935757,0,0,0.32935757,-126.04916,-8.0053545)">
      <path
         style="opacity:1"
         fill="#f9f7e4"
         d="m 593.5,126.5 c 4.38,1.385 6.38,4.385 6,9 0.959,4.875 -1.041,7.041 -6,6.5 -1.48,1.299 -2.146,2.966 -2,5 0.064,18.463 0.397,36.796 1,55 -1.05,13.595 -2.05,27.095 -3,40.5 0,-34.333 0,-68.667 0,-103 2.559,0.302 4.893,-0.032 7,-1 1.911,-4.659 0.911,-8.659 -3,-12 z"
         id="path201" />
    </g>
    <g
       id="g206"
       style="clip-rule:evenodd;fill-rule:evenodd;image-rendering:optimizeQuality;shape-rendering:geometricPrecision;text-rendering:geometricPrecision"
       transform="matrix(0.32935757,0,0,0.32935757,-126.04916,-8.0053545)">
      <path
         style="opacity:1"
         fill="#f9f5d4"
         d="m 517.5,178.5 c -0.543,0.06 -0.876,0.393 -1,1 0.825,0.886 1.825,1.219 3,1 0,3.333 0,6.667 0,10 1.291,0.237 2.291,-0.096 3,-1 0.482,-2.546 1.482,-4.879 3,-7 0.568,2.912 0.568,5.912 0,9 1.291,0.237 2.291,-0.096 3,-1 1.818,-2.515 3.818,-2.515 6,0 3.189,0.666 6.523,1.333 10,2 -10.651,1.166 -21.318,1.332 -32,0.5 -0.402,-4.058 -0.402,-8.225 0,-12.5 0.979,-1.265 1.979,-2.599 3,-4 1.022,0.355 1.689,1.022 2,2 z"
         id="path206" />
    </g>
    <g
       id="g207"
       style="clip-rule:evenodd;fill-rule:evenodd;image-rendering:optimizeQuality;shape-rendering:geometricPrecision;text-rendering:geometricPrecision"
       transform="matrix(0.32935757,0,0,0.32935757,-126.04916,-8.0053545)">
      <path
         style="opacity:1"
         fill="#f9efc6"
         d="m 556.5,177.5 c 1.445,4.509 2.778,9.176 4,14 -0.043,0.916 -0.376,1.583 -1,2 -4.014,0.166 -8.014,-0.001 -12,-0.5 2.244,-0.05 3.911,-0.883 5,-2.5 0,-4 0,-8 0,-12 -1.291,-0.237 -2.291,0.096 -3,1 -0.667,0 -1.333,0 -2,0 0,-0.333 0,-0.667 0,-1 -0.111,-0.617 -0.444,-1.117 -1,-1.5 3.424,-0.747 6.757,-0.58 10,0.5 z"
         id="path207" />
    </g>
    <g
       id="g210"
       style="clip-rule:evenodd;fill-rule:evenodd;image-rendering:optimizeQuality;shape-rendering:geometricPrecision;text-rendering:geometricPrecision"
       transform="matrix(0.32935757,0,0,0.32935757,-126.04916,-8.0053545)">
      <path
         style="opacity:1"
         fill="#ea8511"
         d="m 575.5,141.5 c 1.359,-0.507 2.359,-1.507 3,-3 0.751,0.876 1.251,1.876 1.5,3 0.667,24 0.667,48 0,72 -0.179,3.053 -0.679,6.053 -1.5,9 -3.01,-3.829 -5.176,-8.163 -6.5,-13 -0.667,-17.667 -0.667,-35.333 0,-53 2.103,-4.802 3.269,-9.802 3.5,-15 z"
         id="path210" />
    </g>
    <g
       id="g211"
       style="clip-rule:evenodd;fill-rule:evenodd;image-rendering:optimizeQuality;shape-rendering:geometricPrecision;text-rendering:geometricPrecision"
       transform="matrix(0.32935757,0,0,0.32935757,-126.04916,-8.0053545)">
      <path
         style="opacity:1"
         fill="#f38302"
         d="m 574.5,155.5 c 1.322,-0.17 2.489,0.163 3.5,1 0.167,8.667 0.333,17.333 0.5,26 -0.028,9.162 -0.694,18.162 -2,27 0.96,1.312 0.794,2.646 -0.5,4 -1.63,-3.936 -2.464,-8.102 -2.5,-12.5 -0.094,-14.724 0.239,-29.891 1,-45.5 z"
         id="path211" />
    </g>
    <g
       id="g213"
       style="clip-rule:evenodd;fill-rule:evenodd;image-rendering:optimizeQuality;shape-rendering:geometricPrecision;text-rendering:geometricPrecision"
       transform="matrix(0.32935757,0,0,0.32935757,-126.04916,-8.0053545)">
      <path
         style="opacity:1"
         fill="#c48f47"
         d="m 510.5,184.5 c -0.895,3.238 -0.895,6.405 0,9.5 16.33,0.5 32.663,0.667 49,0.5 0.838,0.342 1.172,1.008 1,2 -16.828,1.162 -33.828,1.328 -51,0.5 -3.441,-3.78 -3.774,-7.947 -1,-12.5 0.722,-0.418 1.222,-1.084 1.5,-2 0.464,0.594 0.631,1.261 0.5,2 z"
         id="path213" />
    </g>
    <g
       id="g214"
       style="clip-rule:evenodd;fill-rule:evenodd;image-rendering:optimizeQuality;shape-rendering:geometricPrecision;text-rendering:geometricPrecision"
       transform="matrix(0.32935757,0,0,0.32935757,-126.04916,-8.0053545)">
      <path
         style="opacity:1"
         fill="#faf9f7"
         d="m 580.5,259.5 c 0.083,3.835 -0.583,7.502 -2,11 -0.667,0.333 -1.333,0.667 -2,1 -1,0 -2,0 -3,0 0.291,-5.412 1.124,-10.745 2.5,-16 0.667,-4.333 0.667,-8.667 0,-13 -3.096,-5.791 -5.263,-11.958 -6.5,-18.5 -0.336,-1.03 -1.003,-1.53 -2,-1.5 -0.949,-0.652 -2.115,-0.986 -3.5,-1 -17.517,3.144 -35.017,3.31 -52.5,0.5 -1.027,-0.513 -2.027,-1.013 -3,-1.5 -2.131,-0.814 -4.464,-1.314 -7,-1.5 -0.559,-0.725 -0.892,-1.558 -1,-2.5 1.461,-5.567 2.294,-11.234 2.5,-17 1.707,-0.638 3.54,-0.638 5.5,0 17.714,0.306 35.38,-0.027 53,-1 1.617,-0.538 3.284,-0.871 5,-1 0.214,9.346 2.548,18.013 7,26 1.767,2.39 4.1,4.057 7,5 0.628,10.31 0.628,20.644 0,31 z"
         id="path214" />
    </g>
    <g
       id="g216"
       style="clip-rule:evenodd;fill-rule:evenodd;image-rendering:optimizeQuality;shape-rendering:geometricPrecision;text-rendering:geometricPrecision"
       transform="matrix(0.32935757,0,0,0.32935757,-126.04916,-8.0053545)">
      <path
         style="opacity:1"
         fill="#f8eac1"
         d="m 492.5,123.5 c 2.419,7.549 4.919,15.216 7.5,23 1.11,1.537 2.61,2.203 4.5,2 14.542,-2.576 29.209,-3.576 44,-3 4.651,0.127 8.985,1.127 13,3 -3,0 -6,0 -9,0 -0.418,-0.722 -1.084,-1.222 -2,-1.5 -16.531,-1.089 -32.865,0.244 -49,4 -0.559,0.725 -0.892,1.558 -1,2.5 0.794,11.974 1.294,23.974 1.5,36 1.465,0.869 2.631,0.369 3.5,-1.5 1.083,-4.753 2.416,-9.42 4,-14 0.856,-1.595 2.189,-2.428 4,-2.5 13.844,-0.329 27.51,0.004 41,1 -14.004,-0.167 -28.004,0 -42,0.5 -2.419,3.422 -3.752,7.256 -4,11.5 -2.774,4.553 -2.441,8.72 1,12.5 17.172,0.828 34.172,0.662 51,-0.5 1,-0.667 2,-1.333 3,-2 -0.233,1.562 -0.9,2.895 -2,4 -17.62,0.973 -35.286,1.306 -53,1 -1.56,-2.27 -3.56,-2.937 -6,-2 -0.76,4.519 -1.76,8.853 -3,13 0.33,-18.841 -0.003,-37.507 -1,-56 -0.97,-6.919 -3.304,-13.252 -7,-19 0.333,-4.781 -1.667,-6.114 -6,-4 1.8,-1.55 3.967,-2.55 6.5,-3 0.494,-1.634 0.66,-3.301 0.5,-5 z"
         id="path216" />
    </g>
    <g
       id="g230"
       style="clip-rule:evenodd;fill-rule:evenodd;image-rendering:optimizeQuality;shape-rendering:geometricPrecision;text-rendering:geometricPrecision"
       transform="matrix(0.32935757,0,0,0.32935757,-126.04916,-8.0053545)">
      <path
         style="opacity:1"
         fill="#f9e4b7"
         d="m 596.5,138.5 c -2.107,0.968 -4.441,1.302 -7,1 0,34.333 0,68.667 0,103 -0.727,7.3 -1.227,14.633 -1.5,22 -0.839,4.036 -2.339,7.702 -4.5,11 3.357,-12.093 4.69,-24.426 4,-37 0.998,-32.829 1.332,-65.829 1,-99 2.448,-0.973 5.115,-1.306 8,-1 z"
         id="path230" />
    </g>
    <g
       id="g231"
       style="clip-rule:evenodd;fill-rule:evenodd;image-rendering:optimizeQuality;shape-rendering:geometricPrecision;text-rendering:geometricPrecision"
       transform="matrix(0.32935757,0,0,0.32935757,-126.04916,-8.0053545)">
      <path
         style="opacity:1"
         fill="#f9eec5"
         d="m 508.5,220.5 c 0.973,0.487 1.973,0.987 3,1.5 17.483,2.81 34.983,2.644 52.5,-0.5 1.385,0.014 2.551,0.348 3.5,1 -5.431,0.228 -10.764,1.061 -16,2.5 -9.661,0.5 -19.328,0.666 -29,0.5 -6.672,-1.002 -13.338,-2.002 -20,-3 0.098,2.053 -0.569,3.72 -2,5 -0.5,-5.829 2.166,-8.163 8,-7 z"
         id="path231" />
    </g>
    <g
       id="g232"
       style="clip-rule:evenodd;fill-rule:evenodd;image-rendering:optimizeQuality;shape-rendering:geometricPrecision;text-rendering:geometricPrecision"
       transform="matrix(0.32935757,0,0,0.32935757,-126.04916,-8.0053545)">
      <path
         style="opacity:1"
         fill="#dc9f4b"
         d="m 567.5,222.5 c 1.25,2.506 1.916,5.173 2,8 -1.19,-1.855 -2.523,-3.688 -4,-5.5 -7.315,0.383 -14.648,0.883 -22,1.5 -7.187,0.325 -14.187,-0.009 -21,-1 9.672,0.166 19.339,0 29,-0.5 5.236,-1.439 10.569,-2.272 16,-2.5 z"
         id="path232" />
    </g>
    <g
       id="g233"
       style="clip-rule:evenodd;fill-rule:evenodd;image-rendering:optimizeQuality;shape-rendering:geometricPrecision;text-rendering:geometricPrecision"
       transform="matrix(0.32935757,0,0,0.32935757,-126.04916,-8.0053545)">
      <path
         style="opacity:1"
         fill="#d88c29"
         d="m 522.5,225.5 c 6.813,0.991 13.813,1.325 21,1 -12.759,1.019 -25.426,1.019 -38,0 -0.958,0.453 -1.792,1.119 -2.5,2 -0.915,3.381 -2.415,6.381 -4.5,9 0.459,-3.377 1.126,-6.711 2,-10 1.431,-1.28 2.098,-2.947 2,-5 6.662,0.998 13.328,1.998 20,3 z"
         id="path233" />
    </g>
    <g
       id="g237"
       style="clip-rule:evenodd;fill-rule:evenodd;image-rendering:optimizeQuality;shape-rendering:geometricPrecision;text-rendering:geometricPrecision"
       transform="matrix(0.32935757,0,0,0.32935757,-126.04916,-8.0053545)">
      <path
         style="opacity:1"
         fill="#ec890f"
         d="m 569.5,230.5 c 1.319,3.916 2.652,7.916 4,12 0.256,2.292 -0.077,4.459 -1,6.5 -7.821,2.408 -15.821,3.908 -24,4.5 6.128,-1.875 12.461,-3.708 19,-5.5 3.23,-1.724 3.564,-3.724 1,-6 0.333,-0.333 0.667,-0.667 1,-1 -1.921,-0.36 -3.588,-1.194 -5,-2.5 -0.793,-2.626 -2.46,-4.46 -5,-5.5 1,-2 2,-2 3,0 1.333,0.667 2.667,0.667 4,0 -1.5,-2.167 -3,-4.333 -4.5,-6.5 -1.649,3.377 -3.649,3.71 -6,1 -0.75,0.626 -1.584,1.126 -2.5,1.5 -0.612,1.303 -0.946,2.47 -1,3.5 -0.848,-2.371 -2.515,-3.704 -5,-4 -5.558,1.214 -11.058,1.214 -16.5,0 -1.333,0.667 -2.667,1.333 -4,2 -4.622,-0.512 -8.955,-1.845 -13,-4 -2.685,0.327 -5.518,0.327 -8.5,0 12.574,1.019 25.241,1.019 38,0 7.352,-0.617 14.685,-1.117 22,-1.5 1.477,1.812 2.81,3.645 4,5.5 z"
         id="path237" />
    </g>
    <g
       id="g240"
       style="clip-rule:evenodd;fill-rule:evenodd;image-rendering:optimizeQuality;shape-rendering:geometricPrecision;text-rendering:geometricPrecision"
       transform="matrix(0.32935757,0,0,0.32935757,-126.04916,-8.0053545)">
      <path
         style="opacity:1"
         fill="#f9f0cb"
         d="m 499.5,210.5 c 1.226,6.708 -0.774,12.208 -6,16.5 -1.525,1.009 -3.192,1.509 -5,1.5 -0.337,13.411 0.496,26.744 2.5,40 1.356,0.88 2.856,1.214 4.5,1 0,-5 0,-10 0,-15 0.781,6.519 1.448,13.186 2,20 -0.667,0 -1.333,0 -2,0 -1.464,-2.13 -3.464,-3.463 -6,-4 -0.876,-3.962 -1.542,-7.962 -2,-12 -0.205,-7.836 -0.539,-15.669 -1,-23.5 0.333,-3.5 0.667,-7 1,-10.5 0.683,0.363 1.35,0.696 2,1 0.06,0.543 0.393,0.876 1,1 3.256,-2.587 5.256,-5.92 6,-10 0.934,-1.068 1.268,-2.401 1,-4 0.667,-0.667 1.333,-1.333 2,-2 z"
         id="path240" />
    </g>
    <g
       id="g244"
       style="clip-rule:evenodd;fill-rule:evenodd;image-rendering:optimizeQuality;shape-rendering:geometricPrecision;text-rendering:geometricPrecision"
       transform="matrix(0.32935757,0,0,0.32935757,-126.04916,-8.0053545)">
      <path
         style="opacity:1"
         fill="#f58600"
         d="m 505.5,226.5 c 2.982,0.327 5.815,0.327 8.5,0 4.045,2.155 8.378,3.488 13,4 1.333,-0.667 2.667,-1.333 4,-2 5.442,1.214 10.942,1.214 16.5,0 2.485,0.296 4.152,1.629 5,4 0.054,-1.03 0.388,-2.197 1,-3.5 0.916,-0.374 1.75,-0.874 2.5,-1.5 2.351,2.71 4.351,2.377 6,-1 1.5,2.167 3,4.333 4.5,6.5 -1.333,0.667 -2.667,0.667 -4,0 -1,-2 -2,-2 -3,0 2.54,1.04 4.207,2.874 5,5.5 1.412,1.306 3.079,2.14 5,2.5 -0.333,0.333 -0.667,0.667 -1,1 2.564,2.276 2.23,4.276 -1,6 -6.539,1.792 -12.872,3.625 -19,5.5 -4.474,0.525 -8.974,0.859 -13.5,1 -8.841,-0.626 -17.674,-1.293 -26.5,-2 -2.993,-2.137 -6.16,-4.137 -9.5,-6 -0.498,-2.982 -0.665,-5.982 -0.5,-9 2.085,-2.619 3.585,-5.619 4.5,-9 0.708,-0.881 1.542,-1.547 2.5,-2 z"
         id="path244" />
    </g>
    <g
       id="g252"
       style="clip-rule:evenodd;fill-rule:evenodd;image-rendering:optimizeQuality;shape-rendering:geometricPrecision;text-rendering:geometricPrecision"
       transform="matrix(0.32935757,0,0,0.32935757,-126.04916,-8.0053545)">
      <path
         style="opacity:1"
         fill="#da8f34"
         d="m 498.5,237.5 c -0.165,3.018 0.002,6.018 0.5,9 3.34,1.863 6.507,3.863 9.5,6 -3.375,-0.267 -6.542,-1.267 -9.5,-3 -0.765,0.07 -1.265,0.403 -1.5,1 -0.667,0 -1.333,0 -2,0 -0.661,-4.856 0.339,-9.19 3,-13 z"
         id="path252" />
    </g>
    <g
       id="g253"
       style="clip-rule:evenodd;fill-rule:evenodd;image-rendering:optimizeQuality;shape-rendering:geometricPrecision;text-rendering:geometricPrecision"
       transform="matrix(0.32935757,0,0,0.32935757,-126.04916,-8.0053545)">
      <path
         style="opacity:1"
         fill="#d18c35"
         d="m 587.5,238.5 c 0.69,12.574 -0.643,24.907 -4,37 0,1 0,2 0,3 -3.937,4.63 -8.604,8.297 -14,11 -1.333,0 -2.667,0 -4,0 -2,0 -4,0 -6,0 0,-1.333 0,-2.667 0,-4 1.388,-4.937 4.721,-7.604 10,-8 -0.172,-0.992 0.162,-1.658 1,-2 1,-0.333 1.667,-1 2,-2 1.88,0.271 3.213,-0.396 4,-2 0.667,-0.333 1.333,-0.667 2,-1 1.086,-0.12 1.753,-0.787 2,-2 1.876,-7.887 2.876,-15.887 3,-24 0.996,-16.158 1.33,-32.491 1,-49 0.514,-16.979 1.347,-33.979 2.5,-51 0.5,31.332 0.667,62.665 0.5,94 z"
         id="path253" />
    </g>
    <g
       id="g256"
       style="clip-rule:evenodd;fill-rule:evenodd;image-rendering:optimizeQuality;shape-rendering:geometricPrecision;text-rendering:geometricPrecision"
       transform="matrix(0.32935757,0,0,0.32935757,-126.04916,-8.0053545)">
      <path
         style="opacity:1"
         fill="#f7e9c1"
         d="m 567.5,222.5 c 0.997,-0.03 1.664,0.47 2,1.5 1.237,6.542 3.404,12.709 6.5,18.5 0.667,4.333 0.667,8.667 0,13 -1.376,5.255 -2.209,10.588 -2.5,16 1,0 2,0 3,0 -0.787,1.604 -2.12,2.271 -4,2 0.502,-8.015 1.169,-16.015 2,-24 0.302,-2.559 -0.032,-4.893 -1,-7 -1.348,-4.084 -2.681,-8.084 -4,-12 -0.084,-2.827 -0.75,-5.494 -2,-8 z"
         id="path256" />
    </g>
    <g
       id="g258"
       style="clip-rule:evenodd;fill-rule:evenodd;image-rendering:optimizeQuality;shape-rendering:geometricPrecision;text-rendering:geometricPrecision"
       transform="matrix(0.32935757,0,0,0.32935757,-126.04916,-8.0053545)">
      <path
         style="opacity:1"
         fill="#faf9eb"
         d="m 508.5,199.5 c -1.96,-0.638 -3.793,-0.638 -5.5,0 -0.206,5.766 -1.039,11.433 -2.5,17 0.108,0.942 0.441,1.775 1,2.5 2.536,0.186 4.869,0.686 7,1.5 -5.834,-1.163 -8.5,1.171 -8,7 -0.874,3.289 -1.541,6.623 -2,10 -2.661,3.81 -3.661,8.144 -3,13 0,1.333 0,2.667 0,4 0,5 0,10 0,15 -1.644,0.214 -3.144,-0.12 -4.5,-1 -2.004,-13.256 -2.837,-26.589 -2.5,-40 1.808,0.009 3.475,-0.491 5,-1.5 5.226,-4.292 7.226,-9.792 6,-16.5 1.24,-4.147 2.24,-8.481 3,-13 2.44,-0.937 4.44,-0.27 6,2 z"
         id="path258" />
    </g>
    <g
       id="g259"
       style="clip-rule:evenodd;fill-rule:evenodd;image-rendering:optimizeQuality;shape-rendering:geometricPrecision;text-rendering:geometricPrecision"
       transform="matrix(0.32935757,0,0,0.32935757,-126.04916,-8.0053545)">
      <path
         style="opacity:1"
         fill="#d99439"
         d="m 573.5,242.5 c 0.968,2.107 1.302,4.441 1,7 -2.452,0.565 -4.785,1.232 -7,2 -7.684,2.029 -15.35,3.696 -23,5 -7.008,0.166 -14.008,0 -21,-0.5 -5.386,-0.117 -10.386,-1.284 -15,-3.5 8.826,0.707 17.659,1.374 26.5,2 4.526,-0.141 9.026,-0.475 13.5,-1 8.179,-0.592 16.179,-2.092 24,-4.5 0.923,-2.041 1.256,-4.208 1,-6.5 z"
         id="path259" />
    </g>
    <g
       id="g263"
       style="clip-rule:evenodd;fill-rule:evenodd;image-rendering:optimizeQuality;shape-rendering:geometricPrecision;text-rendering:geometricPrecision"
       transform="matrix(0.32935757,0,0,0.32935757,-126.04916,-8.0053545)">
      <path
         style="opacity:1"
         fill="#faf9f9"
         d="m 560.5,278.5 c -0.433,2.695 -1.766,4.862 -4,6.5 -14.346,1.934 -28.68,1.934 -43,0 -1.082,-2.687 -2.749,-4.854 -5,-6.5 -6.366,-4.318 -9.032,-10.485 -8,-18.5 0.167,-1.5 0.333,-3 0.5,-4.5 0.414,-0.457 0.914,-0.791 1.5,-1 6.48,1.861 12.98,3.528 19.5,5 11.09,-0.822 22.257,-1.322 33.5,-1.5 4.035,-1.067 8.035,-2.234 12,-3.5 0.915,0.828 1.581,1.828 2,3 -0.616,4.651 -1.282,9.318 -2,14 -2.048,2.715 -4.382,5.048 -7,7 z"
         id="path263" />
    </g>
    <g
       id="g264"
       style="clip-rule:evenodd;fill-rule:evenodd;image-rendering:optimizeQuality;shape-rendering:geometricPrecision;text-rendering:geometricPrecision"
       transform="matrix(0.32935757,0,0,0.32935757,-126.04916,-8.0053545)">
      <path
         style="opacity:1"
         fill="#f9e8bb"
         d="m 508.5,252.5 c 4.614,2.216 9.614,3.383 15,3.5 6.992,0.5 13.992,0.666 21,0.5 -15.551,1.846 -30.884,0.512 -46,-4 0,1.333 0,2.667 0,4 -0.961,-1.765 -1.295,-3.765 -1,-6 0.235,-0.597 0.735,-0.93 1.5,-1 2.958,1.733 6.125,2.733 9.5,3 z"
         id="path264" />
    </g>
    <g
       id="g266"
       style="clip-rule:evenodd;fill-rule:evenodd;image-rendering:optimizeQuality;shape-rendering:geometricPrecision;text-rendering:geometricPrecision"
       transform="matrix(0.32935757,0,0,0.32935757,-126.04916,-8.0053545)">
      <path
         style="opacity:1"
         fill="#f9f5de"
         d="m 567.5,251.5 c 1.333,0 2.667,0 4,0 0.123,7.029 -0.21,14.029 -1,21 -2.336,3.508 -5.669,5.508 -10,6 2.618,-1.952 4.952,-4.285 7,-7 0.718,-4.682 1.384,-9.349 2,-14 -0.419,-1.172 -1.085,-2.172 -2,-3 -3.965,1.266 -7.965,2.433 -12,3.5 -11.243,0.178 -22.41,0.678 -33.5,1.5 -6.52,-1.472 -13.02,-3.139 -19.5,-5 -0.586,0.209 -1.086,0.543 -1.5,1 -0.167,1.5 -0.333,3 -0.5,4.5 -1.032,8.015 1.634,14.182 8,18.5 -6.385,-1.428 -9.385,-5.428 -9,-12 -0.914,-3.228 -1.247,-6.561 -1,-10 0,-1.333 0,-2.667 0,-4 15.116,4.512 30.449,5.846 46,4 7.65,-1.304 15.316,-2.971 23,-5 z"
         id="path266" />
    </g>
    <g
       id="g268"
       style="clip-rule:evenodd;fill-rule:evenodd;image-rendering:optimizeQuality;shape-rendering:geometricPrecision;text-rendering:geometricPrecision"
       transform="matrix(0.32935757,0,0,0.32935757,-126.04916,-8.0053545)">
      <path
         style="opacity:1"
         fill="#c5aa7a"
         d="m 495.5,250.5 c 0.667,0 1.333,0 2,0 -0.295,2.235 0.039,4.235 1,6 -0.247,3.439 0.086,6.772 1,10 0,3 0,6 0,9 -0.667,-0.333 -1.333,-0.667 -2,-1 -0.552,-6.814 -1.219,-13.481 -2,-20 0,-1.333 0,-2.667 0,-4 z"
         id="path268" />
    </g>
    <g
       id="g269"
       style="clip-rule:evenodd;fill-rule:evenodd;image-rendering:optimizeQuality;shape-rendering:geometricPrecision;text-rendering:geometricPrecision"
       transform="matrix(0.32935757,0,0,0.32935757,-126.04916,-8.0053545)">
      <path
         style="opacity:1"
         fill="#c3a877"
         d="m 574.5,249.5 c -0.831,7.985 -1.498,15.985 -2,24 -0.333,1 -1,1.667 -2,2 0,-1 0,-2 0,-3 0.79,-6.971 1.123,-13.971 1,-21 -1.333,0 -2.667,0 -4,0 2.215,-0.768 4.548,-1.435 7,-2 z"
         id="path269" />
    </g>
    <g
       id="g280"
       style="clip-rule:evenodd;fill-rule:evenodd;image-rendering:optimizeQuality;shape-rendering:geometricPrecision;text-rendering:geometricPrecision"
       transform="matrix(0.32935757,0,0,0.32935757,-126.04916,-8.0053545)">
      <path
         style="opacity:1"
         fill="#ef8707"
         d="m 495.5,274.5 c 1.944,1.428 3.611,3.261 5,5.5 3.073,0.697 5.073,2.53 6,5.5 -3.629,0.738 -7.296,0.571 -11,-0.5 -1.289,-1.802 -2.956,-2.969 -5,-3.5 -0.871,-2.612 -1.537,-5.279 -2,-8 2.361,0.174 4.694,0.507 7,1 z"
         id="path280" />
    </g>
    <g
       id="g281"
       style="clip-rule:evenodd;fill-rule:evenodd;image-rendering:optimizeQuality;shape-rendering:geometricPrecision;text-rendering:geometricPrecision"
       transform="matrix(0.32935757,0,0,0.32935757,-126.04916,-8.0053545)">
      <path
         style="opacity:1"
         fill="#ed850c"
         d="m 569.5,277.5 c 3.098,-0.716 5.764,-2.216 8,-4.5 1.293,-0.49 2.627,-0.657 4,-0.5 -1.136,8.728 -6.136,13.895 -15,15.5 -1.973,0.495 -3.973,0.662 -6,0.5 -0.149,-1.052 0.017,-2.052 0.5,-3 2.783,-2.956 5.616,-5.623 8.5,-8 z"
         id="path281" />
    </g>
    <g
       id="g288"
       style="clip-rule:evenodd;fill-rule:evenodd;image-rendering:optimizeQuality;shape-rendering:geometricPrecision;text-rendering:geometricPrecision"
       transform="matrix(0.32935757,0,0,0.32935757,-126.04916,-8.0053545)">
      <path
         style="opacity:1"
         fill="#f8e9bf"
         d="m 583.5,278.5 c -1.948,4.245 -4.614,7.911 -8,11 -2,0 -4,0 -6,0 5.396,-2.703 10.063,-6.37 14,-11 z"
         id="path288" />
    </g>
    <g
       id="g291"
       style="clip-rule:evenodd;fill-rule:evenodd;image-rendering:optimizeQuality;shape-rendering:geometricPrecision;text-rendering:geometricPrecision"
       transform="matrix(0.32935757,0,0,0.32935757,-126.04916,-8.0053545)">
      <path
         style="opacity:1"
         fill="#e08c24"
         d="m 495.5,274.5 c 0.667,0 1.333,0 2,0 0.667,0.333 1.333,0.667 2,1 0.79,1.294 1.79,2.461 3,3.5 2.153,0.099 3.819,0.933 5,2.5 1.18,2.193 2.18,4.526 3,7 -1.189,0.929 -2.522,1.262 -4,1 -7.034,0.483 -12.367,-2.183 -16,-8 2.044,0.531 3.711,1.698 5,3.5 3.704,1.071 7.371,1.238 11,0.5 -0.927,-2.97 -2.927,-4.803 -6,-5.5 -1.389,-2.239 -3.056,-4.072 -5,-5.5 z"
         id="path291" />
    </g>
    <g
       id="g292"
       style="clip-rule:evenodd;fill-rule:evenodd;image-rendering:optimizeQuality;shape-rendering:geometricPrecision;text-rendering:geometricPrecision"
       transform="matrix(0.32935757,0,0,0.32935757,-126.04916,-8.0053545)">
      <path
         style="opacity:1"
         fill="#f9efc9"
         d="m 499.5,266.5 c -0.385,6.572 2.615,10.572 9,12 2.251,1.646 3.918,3.813 5,6.5 14.32,1.934 28.654,1.934 43,0 2.234,-1.638 3.567,-3.805 4,-6.5 4.331,-0.492 7.664,-2.492 10,-6 0,1 0,2 0,3 -0.838,0.342 -1.172,1.008 -1,2 -5.279,0.396 -8.612,3.063 -10,8 -3.705,1.683 -7.705,2.516 -12,2.5 -11.333,0.667 -22.667,0.667 -34,0 -2.085,-2.081 -4.085,-4.248 -6,-6.5 -1.181,-1.567 -2.847,-2.401 -5,-2.5 -1.21,-1.039 -2.21,-2.206 -3,-3.5 0,-3 0,-6 0,-9 z"
         id="path292" />
    </g>
    <g
       id="g296"
       style="clip-rule:evenodd;fill-rule:evenodd;image-rendering:optimizeQuality;shape-rendering:geometricPrecision;text-rendering:geometricPrecision"
       transform="matrix(0.32935757,0,0,0.32935757,-126.04916,-8.0053545)">
      <path
         style="opacity:1"
         fill="#cd9444"
         d="m 507.5,281.5 c 1.915,2.252 3.915,4.419 6,6.5 11.333,0.667 22.667,0.667 34,0 4.295,0.016 8.295,-0.817 12,-2.5 0,1.333 0,2.667 0,4 2,0 4,0 6,0 -4.819,1.066 -9.819,1.9 -15,2.5 -10.661,0.5 -21.328,0.667 -32,0.5 -4.039,-0.816 -8.039,-1.816 -12,-3 1.478,0.262 2.811,-0.071 4,-1 -0.82,-2.474 -1.82,-4.807 -3,-7 z"
         id="path296" />
    </g>
    <g
       id="g298"
       style="clip-rule:evenodd;fill-rule:evenodd;image-rendering:optimizeQuality;shape-rendering:geometricPrecision;text-rendering:geometricPrecision"
       transform="matrix(0.32935757,0,0,0.32935757,-126.04916,-8.0053545)">
      <path
         style="opacity:1"
         fill="#eecb91"
         d="m 488.5,280.5 c 0.667,0.333 1.333,0.667 2,1 3.633,5.817 8.966,8.483 16,8 3.961,1.184 7.961,2.184 12,3 -7.83,-0.083 -15.497,-1.25 -23,-3.5 -3.165,-2.171 -5.498,-5.005 -7,-8.5 z"
         id="path298" />
    </g>
    <g
       id="g310"
       style="clip-rule:evenodd;fill-rule:evenodd;image-rendering:optimizeQuality;shape-rendering:geometricPrecision;text-rendering:geometricPrecision"
       transform="matrix(0.32935757,0,0,0.32935757,-126.04916,-8.0053545)">
      <path
         style="opacity:1"
         fill="#faf8e6"
         d="m 478.5,142.5 c 0.833,35.164 1.333,70.498 1.5,106 1.812,8.97 3.478,17.97 5,27 0.383,0.556 0.883,0.889 1.5,1 1.174,1.014 1.84,2.347 2,4 1.502,3.495 3.835,6.329 7,8.5 7.503,2.25 15.17,3.417 23,3.5 13.516,1.79 27.182,1.956 41,0.5 3.61,-0.738 6.943,-1.905 10,-3.5 2,0 4,0 6,0 -4.081,2.851 -8.748,4.351 -14,4.5 -21.105,2.366 -42.105,1.7 -63,-2 -4.373,-1.713 -8.207,-4.213 -11.5,-7.5 -4.637,-10.119 -7.471,-20.786 -8.5,-32 0.021,-36.548 0.021,-73.215 0,-110 z"
         id="path310" />
    </g>
    <g
       id="g311"
       style="clip-rule:evenodd;fill-rule:evenodd;image-rendering:optimizeQuality;shape-rendering:geometricPrecision;text-rendering:geometricPrecision"
       transform="matrix(0.32935757,0,0,0.32935757,-126.04916,-8.0053545)">
      <path
         style="opacity:1"
         fill="#f9e4b6"
         d="m 565.5,289.5 c 1.333,0 2.667,0 4,0 -3.057,1.595 -6.39,2.762 -10,3.5 -13.818,1.456 -27.484,1.29 -41,-0.5 10.672,0.167 21.339,0 32,-0.5 5.181,-0.6 10.181,-1.434 15,-2.5 z"
         id="path311" />
    </g>
  </g>
</svg>
