<?xml version="1.0" encoding="UTF-8" standalone="no"?>
<!-- Created with Inkscape (http://www.inkscape.org/) -->

<svg
   width="96mm"
   height="96mm"
   viewBox="0 0 96 96"
   version="1.1"
   id="svg1"
   inkscape:version="1.4.2 (ebf0e940, 2025-05-08)"
   sodipodi:docname="helicopter.svg"
   xmlns:inkscape="http://www.inkscape.org/namespaces/inkscape"
   xmlns:sodipodi="http://sodipodi.sourceforge.net/DTD/sodipodi-0.dtd"
   xmlns="http://www.w3.org/2000/svg"
   xmlns:svg="http://www.w3.org/2000/svg">
  <sodipodi:namedview
     id="namedview1"
     pagecolor="#ffffff"
     bordercolor="#000000"
     borderopacity="0.25"
     inkscape:showpageshadow="2"
     inkscape:pageopacity="0.0"
     inkscape:pagecheckerboard="0"
     inkscape:deskcolor="#d1d1d1"
     inkscape:document-units="mm"
     inkscape:zoom="0.80444024"
     inkscape:cx="397.17059"
     inkscape:cy="262.91574"
     inkscape:window-width="1920"
     inkscape:window-height="1052"
     inkscape:window-x="0"
     inkscape:window-y="28"
     inkscape:window-maximized="0"
     inkscape:current-layer="layer1" />
  <defs
     id="defs1" />
  <g
     inkscape:label="Layer 1"
     inkscape:groupmode="layer"
     id="layer1">
    <g
       id="g170"
       style="clip-rule:evenodd;fill-rule:evenodd;image-rendering:optimizeQuality;shape-rendering:geometricPrecision;text-rendering:geometricPrecision"
       transform="matrix(0.26458333,0,0,0.26458333,-285.37534,-102.54044)">
      <path
         style="opacity:1"
         fill="#f1e3d2"
         d="m 1283.5,428.5 c -1.33,-1 -2.67,-2 -4,-3 -5.88,-6.857 -12.88,-8.523 -21,-5 -3.39,1.119 -6.22,3.119 -8.5,6 -10.21,16.465 -15.04,34.465 -14.5,54 -0.67,0.667 -1.33,1.333 -2,2 -1.91,-2.832 -4.57,-3.666 -8,-2.5 -1.52,1.522 -3.02,3.022 -4.5,4.5 -0.9,-0.243 -1.74,-0.577 -2.5,-1 0,-0.667 0,-1.333 0,-2 0.69,-7.061 1.52,-14.061 2.5,-21 -2.25,-3.819 -5.42,-4.819 -9.5,-3 0,-1 0,-2 0,-3 8.52,-0.979 12.86,2.854 13,11.5 -1.4,3.408 -1.9,6.908 -1.5,10.5 0.41,0.457 0.91,0.791 1.5,1 1.39,-1.703 2.89,-2.37 4.5,-2 1,0.667 2,1.333 3,2 1.86,-2.455 1.7,-4.622 -0.5,-6.5 0.25,-1.911 0.25,-3.911 0,-6 1.52,-1.779 2.35,-1.279 2.5,1.5 0.45,-7.287 1.61,-14.454 3.5,-21.5 2.21,-5.313 4.54,-10.647 7,-16 2.56,-1.829 4.56,-4.162 6,-7 2.67,-1.667 5.33,-3.333 8,-5 11.9,-3.54 20.24,0.293 25,11.5 z"
         id="path170" />
    </g>
    <g
       id="g171"
       style="clip-rule:evenodd;fill-rule:evenodd;image-rendering:optimizeQuality;shape-rendering:geometricPrecision;text-rendering:geometricPrecision"
       transform="matrix(0.26458333,0,0,0.26458333,-285.37534,-102.54044)">
      <path
         style="opacity:1"
         fill="#945922"
         d="m 1279.5,425.5 c -6.27,-4.273 -13.27,-5.94 -21,-5 8.12,-3.523 15.12,-1.857 21,5 z"
         id="path171" />
    </g>
    <g
       id="g177"
       style="clip-rule:evenodd;fill-rule:evenodd;image-rendering:optimizeQuality;shape-rendering:geometricPrecision;text-rendering:geometricPrecision"
       transform="matrix(0.26458333,0,0,0.26458333,-285.37534,-102.54044)">
      <path
         style="opacity:1"
         fill="#f08205"
         d="m 1276.5,428.5 c 1.69,3.354 1.19,6.354 -1.5,9 -3.65,-0.638 -7.15,-0.638 -10.5,0 -3.07,-0.37 -5.74,-1.537 -8,-3.5 1.13,-1.016 0.8,-1.683 -1,-2 0.42,-2.078 1.42,-4.245 3,-6.5 1.81,-1.945 4.14,-2.945 7,-3 3.57,0.469 6.91,1.636 10,3.5 0.75,0.671 1.09,1.504 1,2.5 z"
         id="path177" />
    </g>
    <g
       id="g184"
       style="clip-rule:evenodd;fill-rule:evenodd;image-rendering:optimizeQuality;shape-rendering:geometricPrecision;text-rendering:geometricPrecision"
       transform="matrix(0.26458333,0,0,0.26458333,-285.37534,-102.54044)">
      <path
         style="opacity:1"
         fill="#dd7507"
         d="m 1242.5,455.5 c 0,-0.333 0,-0.667 0,-1 0.81,-2.131 1.31,-4.464 1.5,-7 4.6,-4.362 10.1,-6.362 16.5,-6 0.32,3.072 -0.02,6.072 -1,9 -5.62,1.821 -11.28,3.488 -17,5 z"
         id="path184" />
    </g>
    <g
       id="g185"
       style="clip-rule:evenodd;fill-rule:evenodd;image-rendering:optimizeQuality;shape-rendering:geometricPrecision;text-rendering:geometricPrecision"
       transform="matrix(0.26458333,0,0,0.26458333,-285.37534,-102.54044)">
      <path
         style="opacity:1"
         fill="#de780d"
         d="m 1287.5,450.5 c -0.24,1.291 0.1,2.291 1,3 0.03,0.997 -0.47,1.664 -1.5,2 -4.99,-2.054 -10.16,-3.388 -15.5,-4 0,-3.333 0,-6.667 0,-10 5.37,0.215 10.2,1.881 14.5,5 0.21,1.558 0.71,2.891 1.5,4 z"
         id="path185" />
    </g>
    <g
       id="g186"
       style="clip-rule:evenodd;fill-rule:evenodd;image-rendering:optimizeQuality;shape-rendering:geometricPrecision;text-rendering:geometricPrecision"
       transform="matrix(0.26458333,0,0,0.26458333,-285.37534,-102.54044)">
      <path
         style="opacity:1"
         fill="#985c25"
         d="m 1186.5,471.5 c 3.4,3.395 6.4,7.062 9,11 -6.13,-5.63 -12.13,-11.464 -18,-17.5 -2.87,-2.37 -5.87,-4.536 -9,-6.5 -0.6,-0.639 -1.43,-0.972 -2.5,-1 -2.46,1.479 -4.96,2.813 -7.5,4 2.35,-4.532 6.01,-6.699 11,-6.5 5.48,5.648 11.15,11.148 17,16.5 z"
         id="path186" />
    </g>
    <g
       id="g187"
       style="clip-rule:evenodd;fill-rule:evenodd;image-rendering:optimizeQuality;shape-rendering:geometricPrecision;text-rendering:geometricPrecision"
       transform="matrix(0.26458333,0,0,0.26458333,-285.37534,-102.54044)">
      <path
         style="opacity:1"
         fill="#955d2a"
         d="m 1218.5,481.5 c -0.66,-1.634 -0.99,-3.467 -1,-5.5 0.22,-3.928 0.89,-7.761 2,-11.5 -0.09,-1.833 -0.75,-3.166 -2,-4 -0.29,-1.149 -1.12,-1.816 -2.5,-2 -2.2,0.469 -4.03,1.469 -5.5,3 0.06,-1.109 0.39,-2.109 1,-3 0.67,0 1,-0.333 1,-1 4.08,-1.819 7.25,-0.819 9.5,3 -0.98,6.939 -1.81,13.939 -2.5,21 z"
         id="path187" />
    </g>
    <g
       id="g188"
       style="clip-rule:evenodd;fill-rule:evenodd;image-rendering:optimizeQuality;shape-rendering:geometricPrecision;text-rendering:geometricPrecision"
       transform="matrix(0.26458333,0,0,0.26458333,-285.37534,-102.54044)">
      <path
         style="opacity:1"
         fill="#efe4d5"
         d="m 1292.5,450.5 c 1.43,1.28 2.1,2.947 2,5 1.05,-0.149 2.05,0.017 3,0.5 -0.33,0.333 -0.67,0.667 -1,1 0.93,0.388 1.59,1.055 2,2 -0.77,2.161 -0.43,4.328 1,6.5 0.33,-0.667 0.67,-1.333 1,-2 1.11,1.223 1.28,2.556 0.5,4 -1.36,-0.758 -2.53,-0.258 -3.5,1.5 0.89,3.095 0.89,6.262 0,9.5 2.56,-0.302 4.89,0.032 7,1 -5.62,-0.382 -8.28,2.285 -8,8 0.13,0.739 -0.04,1.406 -0.5,2 -0.49,-1.293 -0.66,-2.627 -0.5,-4 0.2,-11.776 -0.8,-23.442 -3,-35 z"
         id="path188" />
    </g>
    <g
       id="g189"
       style="clip-rule:evenodd;fill-rule:evenodd;image-rendering:optimizeQuality;shape-rendering:geometricPrecision;text-rendering:geometricPrecision"
       transform="matrix(0.26458333,0,0,0.26458333,-285.37534,-102.54044)">
      <path
         style="opacity:1"
         fill="#e98318"
         d="m 1258.5,425.5 c -1.58,2.255 -2.58,4.422 -3,6.5 1.8,0.317 2.13,0.984 1,2 2.26,1.963 4.93,3.13 8,3.5 3.35,-0.638 6.85,-0.638 10.5,0 2.69,-2.646 3.19,-5.646 1.5,-9 3.83,3.99 6.33,8.656 7.5,14 -4.57,-2.351 -9.4,-3.184 -14.5,-2.5 -1.12,3.409 -1.29,6.909 -0.5,10.5 0.5,1.167 1.33,2 2.5,2.5 5.54,1.051 10.87,2.717 16,5 1.89,2.917 2.39,6.084 1.5,9.5 -0.65,-3.634 -2.15,-6.8 -4.5,-9.5 -5.28,-1.487 -10.61,-2.653 -16,-3.5 -0.17,3.682 0,7.348 0.5,11 0.5,0.5 1,1 1.5,1.5 6.61,1.347 13.28,2.514 20,3.5 0,2 0,4 0,6 -0.8,1.452 -1.3,3.118 -1.5,5 -0.27,-1.601 -0.77,-3.101 -1.5,-4.5 0.46,-0.414 0.79,-0.914 1,-1.5 -1.96,-1.974 -4.13,-3.64 -6.5,-5 -3.53,-1.135 -7.36,-1.135 -11.5,0 -1.19,-1.34 -2.69,-2.007 -4.5,-2 -3.09,0.884 -6.25,1.884 -9.5,3 -5.01,-1.559 -9.84,-1.226 -14.5,1 0.42,2.858 -0.08,5.692 -1.5,8.5 1.93,2.271 1.93,4.271 0,6 1.04,2.259 1.04,4.592 0,7 0.34,1.365 1.01,2.532 2,3.5 -1.22,2.631 -1.89,5.465 -2,8.5 0.03,2.755 0.36,5.422 1,8 -4.27,6.761 -2.77,11.927 4.5,15.5 1.84,-3.033 2.84,-6.366 3,-10 0.38,-0.556 0.88,-0.889 1.5,-1 0.39,12.78 5.56,23.113 15.5,31 10.4,-8.128 15.4,-18.794 15,-32 -1.09,-1.578 -1.93,-3.245 -2.5,-5 1.18,-0.219 2.18,0.114 3,1 1.14,2.887 2.81,5.387 5,7.5 -1.12,6.609 0.72,7.109 5.5,1.5 0.02,-2.297 -0.15,-4.631 -0.5,-7 1.77,2.008 3.43,4.174 5,6.5 -5.47,6.469 -11.3,12.636 -17.5,18.5 -3.21,4.587 -6.04,9.42 -8.5,14.5 -3,0.667 -6,0.667 -9,0 -6.26,-12.262 -14.76,-22.762 -25.5,-31.5 -0.16,-3.022 0.84,-5.689 3,-8 0.33,-14.667 0.67,-29.333 1,-44 1.49,-1.504 3.32,-2.337 5.5,-2.5 5.42,-0.361 10.76,-1.194 16,-2.5 0.99,-3.945 1.32,-7.945 1,-12 -6.32,0.246 -12.32,1.746 -18,4.5 -0.67,3.357 -1.84,6.523 -3.5,9.5 -0.65,-4.375 0.51,-8.208 3.5,-11.5 5.8,-2.047 11.64,-3.88 17.5,-5.5 0.5,-3.986 0.67,-7.986 0.5,-12 -5.32,-0.521 -10.32,0.479 -15,3 -0.7,-1.692 -0.37,-3.358 1,-5 0.67,-1.333 1.33,-2.667 2,-4 1.66,-3.66 4.33,-6.327 8,-8 z"
         id="path189" />
    </g>
    <g
       id="g190"
       style="clip-rule:evenodd;fill-rule:evenodd;image-rendering:optimizeQuality;shape-rendering:geometricPrecision;text-rendering:geometricPrecision"
       transform="matrix(0.26458333,0,0,0.26458333,-285.37534,-102.54044)">
      <path
         style="opacity:1"
         fill="#f0e1cc"
         d="m 1321.5,602.5 c 0,-0.333 0,-0.667 0,-1 1.22,-0.528 2.39,-1.195 3.5,-2 0.5,-26.665 0.67,-53.331 0.5,-80 3,-2.333 5.67,-5 8,-8 8.72,-7.721 16.72,-16.054 24,-25 5.96,-5.464 11.8,-11.13 17.5,-17 1.34,-4.584 0.17,-8.251 -3.5,-11 -2.87,-4.075 -6.53,-4.908 -11,-2.5 -1.87,1.704 -3.54,3.537 -5,5.5 -9.97,10.135 -19.8,20.468 -29.5,31 0.37,-11.25 -0.96,-22.25 -4,-33 -3.5,-3.935 -7,-3.935 -10.5,0 2.12,-6.731 5.95,-7.731 11.5,-3 0.87,4.484 2.2,8.817 4,13 0.5,5.323 0.67,10.656 0.5,16 2.33,-1.333 4.67,-2.667 7,-4 -0.33,-3 1,-4.333 4,-4 1.63,-2.691 2.8,-5.358 3.5,-8 0.33,1 0.67,2 1,3 0.45,-2.606 1.95,-3.939 4.5,-4 3.42,-4.283 6.76,-8.783 10,-13.5 2.45,-0.738 4.95,-1.238 7.5,-1.5 9.4,1.749 13.4,7.416 12,17 -4.7,5.196 -9.2,10.53 -13.5,16 -6.46,5.452 -12.12,11.452 -17,18 -1.37,-0.157 -2.71,0.01 -4,0.5 -6.06,4.718 -10.56,10.552 -13.5,17.5 -0.78,2.757 -0.28,5.257 1.5,7.5 -0.5,0.5 -1,1 -1.5,1.5 -0.2,9.868 -0.7,19.701 -1.5,29.5 0.71,9.713 0.87,19.547 0.5,29.5 -0.33,3.333 -0.67,6.667 -1,10 -1.73,0.964 -3.56,1.631 -5.5,2 z"
         id="path190" />
    </g>
    <g
       id="g191"
       style="clip-rule:evenodd;fill-rule:evenodd;image-rendering:optimizeQuality;shape-rendering:geometricPrecision;text-rendering:geometricPrecision"
       transform="matrix(0.26458333,0,0,0.26458333,-285.37534,-102.54044)">
      <path
         style="opacity:1"
         fill="#965820"
         d="m 1371.5,458.5 c 3.67,2.749 4.84,6.416 3.5,11 -5.7,5.87 -11.54,11.536 -17.5,17 0.57,-1.755 1.41,-3.422 2.5,-5 5.07,-4.063 9.4,-8.729 13,-14 0.6,-3.181 0.1,-6.181 -1.5,-9 z"
         id="path191" />
    </g>
    <g
       id="g192"
       style="clip-rule:evenodd;fill-rule:evenodd;image-rendering:optimizeQuality;shape-rendering:geometricPrecision;text-rendering:geometricPrecision"
       transform="matrix(0.26458333,0,0,0.26458333,-285.37534,-102.54044)">
      <path
         style="opacity:1"
         fill="#9b5d23"
         d="m 1279.5,425.5 c 1.33,1 2.67,2 4,3 3.58,7.153 6.58,14.487 9,22 2.2,11.558 3.2,23.224 3,35 -0.77,-0.763 -1.27,-1.763 -1.5,-3 -0.77,-7.991 -1.44,-15.991 -2,-24 -0.7,-2.084 -1.86,-3.751 -3.5,-5 -0.9,-0.709 -1.24,-1.709 -1,-3 0.17,-3.682 0,-7.348 -0.5,-11 -3.09,-4.422 -5.59,-9.089 -7.5,-14 z"
         id="path192" />
    </g>
    <g
       id="g193"
       style="clip-rule:evenodd;fill-rule:evenodd;image-rendering:optimizeQuality;shape-rendering:geometricPrecision;text-rendering:geometricPrecision"
       transform="matrix(0.26458333,0,0,0.26458333,-285.37534,-102.54044)">
      <path
         style="opacity:1"
         fill="#a35715"
         d="m 1168.5,458.5 c -4.98,1.133 -7.48,4.133 -7.5,9 5.67,6.504 11.5,12.837 17.5,19 0.57,1.755 1.41,3.422 2.5,5 6.35,5.517 12.18,11.517 17.5,18 1.79,2.11 3.12,4.444 4,7 -6.31,-6.973 -12.97,-13.64 -20,-20 -7.93,-9.433 -16.43,-18.433 -25.5,-27 -0.67,-2.333 -0.67,-4.667 0,-7 0.38,-0.556 0.88,-0.889 1.5,-1 2.54,-1.187 5.04,-2.521 7.5,-4 1.07,0.028 1.9,0.361 2.5,1 z"
         id="path193" />
    </g>
    <g
       id="g195"
       style="clip-rule:evenodd;fill-rule:evenodd;image-rendering:optimizeQuality;shape-rendering:geometricPrecision;text-rendering:geometricPrecision"
       transform="matrix(0.26458333,0,0,0.26458333,-285.37534,-102.54044)">
      <path
         style="opacity:1"
         fill="#9d5212"
         d="m 1258.5,420.5 c -2.52,2.201 -5.02,4.534 -7.5,7 -0.5,1.973 -0.66,3.973 -0.5,6 -0.67,1.333 -1.33,2.667 -2,4 -2.41,-0.363 -3.91,0.637 -4.5,3 -0.3,3.48 -1.13,6.813 -2.5,10 0.35,1.349 0.68,2.683 1,4 0,0.333 0,0.667 0,1 -1.6,2.332 -2.76,4.999 -3.5,8 -0.71,9.033 -1.71,18.033 -3,27 -2.13,2.07 -1.96,3.903 0.5,5.5 -0.17,0.5 -0.33,1 -0.5,1.5 -0.31,-0.808 -0.81,-1.475 -1.5,-2 -1.02,1.688 -2.35,3.021 -4,4 0.17,-5.011 0,-10.011 -0.5,-15 -1.01,-0.837 -2.18,-1.17 -3.5,-1 -1.51,2.75 -3.84,3.584 -7,2.5 -0.75,-0.671 -1.09,-1.504 -1,-2.5 0.76,0.423 1.6,0.757 2.5,1 1.48,-1.478 2.98,-2.978 4.5,-4.5 3.43,-1.166 6.09,-0.332 8,2.5 -0.31,2.424 0.03,4.757 1,7 0.98,-2.928 1.32,-5.928 1,-9 -0.54,-19.535 4.29,-37.535 14.5,-54 2.28,-2.881 5.11,-4.881 8.5,-6 z"
         id="path195" />
    </g>
    <g
       id="g196"
       style="clip-rule:evenodd;fill-rule:evenodd;image-rendering:optimizeQuality;shape-rendering:geometricPrecision;text-rendering:geometricPrecision"
       transform="matrix(0.26458333,0,0,0.26458333,-285.37534,-102.54044)">
      <path
         style="opacity:1"
         fill="#af5504"
         d="m 1258.5,420.5 c 7.73,-0.94 14.73,0.727 21,5 1.91,4.911 4.41,9.578 7.5,14 0.5,3.652 0.67,7.318 0.5,11 -0.79,-1.109 -1.29,-2.442 -1.5,-4 -4.3,-3.119 -9.13,-4.785 -14.5,-5 0,3.333 0,6.667 0,10 5.34,0.612 10.51,1.946 15.5,4 1.03,-0.336 1.53,-1.003 1.5,-2 1.64,1.249 2.8,2.916 3.5,5 0.56,8.009 1.23,16.009 2,24 0.23,1.237 0.73,2.237 1.5,3 -0.16,1.373 0.01,2.707 0.5,4 0.46,-0.594 0.63,-1.261 0.5,-2 1.29,-1.342 2.13,-3.009 2.5,-5 4.65,-1.588 7.48,0.078 8.5,5 1.77,0.526 3.43,0.859 5,1 -1.27,0.979 -2.6,1.979 -4,3 -1.33,1.333 -1.33,2.667 0,4 2.95,-1.615 5.62,-3.615 8,-6 0.83,3.622 1.33,7.289 1.5,11 1,-1 2,-2 3,-3 1.21,-12.514 0.38,-24.848 -2.5,-37 -2.74,-0.423 -4.08,0.744 -4,3.5 1.11,5.16 2.11,10.327 3,15.5 -0.01,1.869 -0.34,3.536 -1,5 0.16,-3.018 0,-6.018 -0.5,-9 -1.73,-3.461 -2.89,-7.127 -3.5,-11 0.54,-6.144 3.37,-7.477 8.5,-4 1.95,10.9 2.95,21.9 3,33 1.36,0.88 2.86,1.214 4.5,1 -15.27,16.438 -30.77,32.771 -46.5,49 -2.73,3.741 -5.07,7.741 -7,12 -0.8,1.759 -0.63,3.426 0.5,5 3.28,-0.973 6.28,-2.473 9,-4.5 4.86,-3.697 9.2,-7.864 13,-12.5 -1.08,5.949 -1.25,11.949 -0.5,18 4.3,3.193 8.8,6.026 13.5,8.5 1.33,0.667 2.67,0.667 4,0 1.15,-11.424 1.32,-22.924 0.5,-34.5 -0.28,-0.916 -0.78,-1.582 -1.5,-2 -0.42,-0.624 -1.08,-0.957 -2,-1 -2.01,1.019 -4.01,2.019 -6,3 21.63,-22.798 43.46,-45.465 65.5,-68 0.15,-4.221 -1.85,-7.221 -6,-9 -0.5,0.167 -1,0.333 -1.5,0.5 -10.51,11.672 -21.51,22.839 -33,33.5 6.74,-10.267 14.91,-19.6 24.5,-28 0.48,-0.948 0.65,-1.948 0.5,-3 1.46,-1.963 3.13,-3.796 5,-5.5 4.47,-2.408 8.13,-1.575 11,2.5 1.6,2.819 2.1,5.819 1.5,9 -3.6,5.271 -7.93,9.937 -13,14 -1.09,1.578 -1.93,3.245 -2.5,5 -7.27,5.437 -14.11,11.437 -20.5,18 -2.24,1.809 -3.4,4.142 -3.5,7 -2.33,3 -5,5.667 -8,8 -0.34,26.516 -1.34,52.849 -3,79 -1.72,1.307 -3.56,1.307 -5.5,0 -0.9,-5.173 -2.07,-10.173 -3.5,-15 -6.28,-3.142 -12.28,-6.809 -18,-11 -4.22,3.779 -3.89,7.112 1,10 0,0.333 0,0.667 0,1 1.96,3.897 4.46,7.563 7.5,11 7.79,7.158 15.29,14.658 22.5,22.5 0.59,0.464 1.26,0.631 2,0.5 0.2,1.544 0.87,2.878 2,4 5.09,4.766 10.09,9.433 15,14 5.28,6.944 11.28,13.277 18,19 1,0.667 2,1.333 3,2 0,0.333 0,0.667 0,1 1.89,3.399 4.39,6.399 7.5,9 0.5,2.646 0.66,5.313 0.5,8 0,0.667 -0.33,1 -1,1 -3.1,2.883 -6.77,4.05 -11,3.5 -4.38,-6.262 -9.54,-11.762 -15.5,-16.5 -0.66,-2.128 -1.49,-4.128 -2.5,-6 7.34,6.673 14.34,13.673 21,21 3.55,-1.379 5.88,-3.879 7,-7.5 -1.82,-2.489 -3.65,-4.989 -5.5,-7.5 -25.14,-25.477 -49.98,-51.31 -74.5,-77.5 -4.99,-4.161 -10.32,-7.827 -16,-11 -0.95,-0.617 -1.78,-0.451 -2.5,0.5 -0.26,2.517 0.41,4.85 2,7 3,4.492 6.16,8.825 9.5,13 0.07,0.438 -0.1,0.772 -0.5,1 -1.11,-1.829 -2.61,-2.663 -4.5,-2.5 0.46,0.414 0.79,0.914 1,1.5 -1.83,1.981 -3,4.315 -3.5,7 -0.5,5.657 -0.67,11.324 -0.5,17 0,3.333 0,6.667 0,10 -1.11,-0.057 -2.11,-0.39 -3,-1 0,-0.333 0,-0.667 0,-1 0.42,-8.667 0.92,-17.334 1.5,-26 0.69,-2.222 1.53,-4.389 2.5,-6.5 -3.21,-4.91 -6.04,-10.077 -8.5,-15.5 -2.38,-0.935 -4.88,-1.268 -7.5,-1 -2.07,5.979 -5.07,11.479 -9,16.5 2.62,5.876 3.62,12.043 3,18.5 0,1 0,2 0,3 -0.67,0.333 -1.33,0.667 -2,1 -0.17,-6.023 -0.67,-12.023 -1.5,-18 -1.79,-1.729 -3.96,-2.396 -6.5,-2 -3.16,3.609 -5.83,7.609 -8,12 -2.41,1.187 -4.74,2.687 -7,4.5 -0.84,1.011 -1.17,2.178 -1,3.5 -3.6,0.82 -5.6,3.153 -6,7 -3,3.667 -6.33,7 -10,10 -2.76,2.228 -5.76,4.395 -9,6.5 -1.54,1.11 -2.2,2.61 -2,4.5 -1,0 -2,0 -3,0 -1.67,2.667 -3.33,5.333 -5,8 -2.49,0.476 -4.49,1.81 -6,4 -2.04,3.03 -4.04,6.03 -6,9 -5.24,3.118 -9.57,7.284 -13,12.5 -5.91,2.795 -9.74,0.961 -11.5,-5.5 -0.67,-1.667 -0.67,-3.333 0,-5 9.66,-11.995 20.33,-22.995 32,-33 0.49,-1.293 0.66,-2.627 0.5,-4 0.74,0.131 1.41,-0.036 2,-0.5 6.6,-6.09 12.6,-12.59 18,-19.5 0,-0.667 0.33,-1 1,-1 9.69,-9.186 19.19,-18.519 28.5,-28 1.22,-3.877 0.05,-6.543 -3.5,-8 -0.34,-0.838 -1.01,-1.172 -2,-1 -1.37,-0.157 -2.71,0.01 -4,0.5 -4.6,3.231 -9.26,6.398 -14,9.5 -0.64,5.532 -1.31,11.032 -2,16.5 -2.69,0.43 -5.36,0.263 -8,-0.5 0.33,-25.505 0,-50.839 -1,-76 -0.92,-2.254 -2.25,-4.254 -4,-6 -0.88,-2.556 -2.21,-4.89 -4,-7 -5.32,-6.483 -11.15,-12.483 -17.5,-18 -1.09,-1.578 -1.93,-3.245 -2.5,-5 16.36,16.363 32.36,33.03 48,50 -2.33,-0.667 -4.67,-1.333 -7,-2 -0.67,-1.333 -1.33,-1.333 -2,0 -1.16,11.493 -1.33,23.159 -0.5,35 2.43,0.95 4.93,0.95 7.5,0 -2.75,2.555 -5.75,4.888 -9,7 -0.83,-15.99 -1.33,-31.99 -1.5,-48 -1.02,-1.187 -2.19,-2.187 -3.5,-3 -1,23.991 -1.33,47.991 -1,72 1.67,0 3.33,0 5,0 -0.33,-5.375 0.01,-10.708 1,-16 6.87,-4.263 13.54,-8.763 20,-13.5 -0.28,-1.395 -0.95,-2.562 -2,-3.5 -1.86,0.76 -3.53,1.76 -5,3 -0.11,-2.014 0.56,-3.68 2,-5 1.91,-0.074 3.08,-1.074 3.5,-3 0.85,-5.835 0.35,-11.501 -1.5,-17 5.98,6.811 12.98,12.311 21,16.5 1.29,0.49 2.63,0.657 4,0.5 -1.23,-6.454 -4.06,-12.12 -8.5,-17 -27.43,-27.592 -54.26,-55.592 -80.5,-84 3.13,1.964 6.13,4.13 9,6.5 5.87,6.036 11.87,11.87 18,17.5 2.24,3.584 4.91,6.917 8,10 1.39,1.145 2.72,1.145 4,0 0.78,-9.972 1.44,-19.972 2,-30 0,-0.333 0,-0.667 0,-1 1.47,-1.531 3.3,-2.531 5.5,-3 1.38,0.184 2.21,0.851 2.5,2 1.25,0.834 1.91,2.167 2,4 -1.11,3.739 -1.78,7.572 -2,11.5 0.01,2.033 0.34,3.866 1,5.5 0,0.667 0,1.333 0,2 -0.09,0.996 0.25,1.829 1,2.5 3.16,1.084 5.49,0.25 7,-2.5 -0.17,9.006 0,18.006 0.5,27 1,1.333 2,1.333 3,0 0.5,-3.652 0.67,-7.318 0.5,-11 1.65,-0.979 2.98,-2.312 4,-4 0.69,0.525 1.19,1.192 1.5,2 0.17,-0.5 0.33,-1 0.5,-1.5 -2.46,-1.597 -2.63,-3.43 -0.5,-5.5 1.29,-8.967 2.29,-17.967 3,-27 0.74,-3.001 1.9,-5.668 3.5,-8 5.72,-1.512 11.38,-3.179 17,-5 0.98,-2.928 1.32,-5.928 1,-9 -6.4,-0.362 -11.9,1.638 -16.5,6 -0.19,2.536 -0.69,4.869 -1.5,7 -0.32,-1.317 -0.65,-2.651 -1,-4 1.37,-3.187 2.2,-6.52 2.5,-10 0.59,-2.363 2.09,-3.363 4.5,-3 -1.37,1.642 -1.7,3.308 -1,5 4.68,-2.521 9.68,-3.521 15,-3 0.17,4.014 0,8.014 -0.5,12 -5.86,1.62 -11.7,3.453 -17.5,5.5 -2.99,3.292 -4.15,7.125 -3.5,11.5 1.66,-2.977 2.83,-6.143 3.5,-9.5 5.68,-2.754 11.68,-4.254 18,-4.5 0.32,4.055 -0.01,8.055 -1,12 -5.24,1.306 -10.58,2.139 -16,2.5 -2.18,0.163 -4.01,0.996 -5.5,2.5 -0.33,14.667 -0.67,29.333 -1,44 -2.16,2.311 -3.16,4.978 -3,8 10.74,8.738 19.24,19.238 25.5,31.5 3,0.667 6,0.667 9,0 2.46,-5.08 5.29,-9.913 8.5,-14.5 6.2,-5.864 12.03,-12.031 17.5,-18.5 -1.57,-2.326 -3.23,-4.492 -5,-6.5 0.28,-13.037 -0.06,-26.037 -1,-39 0,-2 0,-4 0,-6 -6.72,-0.986 -13.39,-2.153 -20,-3.5 -0.5,-0.5 -1,-1 -1.5,-1.5 -0.5,-3.652 -0.67,-7.318 -0.5,-11 5.39,0.847 10.72,2.013 16,3.5 2.35,2.7 3.85,5.866 4.5,9.5 0.89,-3.416 0.39,-6.583 -1.5,-9.5 -5.13,-2.283 -10.46,-3.949 -16,-5 -1.17,-0.5 -2,-1.333 -2.5,-2.5 -0.79,-3.591 -0.62,-7.091 0.5,-10.5 5.1,-0.684 9.93,0.149 14.5,2.5 -1.17,-5.344 -3.67,-10.01 -7.5,-14 0.09,-0.996 -0.25,-1.829 -1,-2.5 -3.09,-1.864 -6.43,-3.031 -10,-3.5 -2.86,0.055 -5.19,1.055 -7,3 -3.67,1.673 -6.34,4.34 -8,8 -0.16,-2.027 0,-4.027 0.5,-6 2.48,-2.466 4.98,-4.799 7.5,-7 z"
         id="path196" />
    </g>
    <g
       id="g197"
       style="clip-rule:evenodd;fill-rule:evenodd;image-rendering:optimizeQuality;shape-rendering:geometricPrecision;text-rendering:geometricPrecision"
       transform="matrix(0.26458333,0,0,0.26458333,-285.37534,-102.54044)">
      <path
         style="opacity:1"
         fill="#e17c15"
         d="m 1226.5,483.5 c 1.32,-0.17 2.49,0.163 3.5,1 0.5,4.989 0.67,9.989 0.5,15 0.17,3.682 0,7.348 -0.5,11 -1,1.333 -2,1.333 -3,0 -0.5,-8.994 -0.67,-17.994 -0.5,-27 z"
         id="path197" />
    </g>
    <g
       id="g198"
       style="clip-rule:evenodd;fill-rule:evenodd;image-rendering:optimizeQuality;shape-rendering:geometricPrecision;text-rendering:geometricPrecision"
       transform="matrix(0.26458333,0,0,0.26458333,-285.37534,-102.54044)">
      <path
         style="opacity:1"
         fill="#9b581a"
         d="m 1355.5,461.5 c 0.15,1.052 -0.02,2.052 -0.5,3 -9.59,8.4 -17.76,17.733 -24.5,28 -0.33,1 -1,1.667 -2,2 -1.64,0.214 -3.14,-0.12 -4.5,-1 -0.05,-11.1 -1.05,-22.1 -3,-33 -5.13,-3.477 -7.96,-2.144 -8.5,4 0.61,3.873 1.77,7.539 3.5,11 0.5,2.982 0.66,5.982 0.5,9 -1,1.667 -2.33,3 -4,4 -1.57,-0.141 -3.23,-0.474 -5,-1 -1.02,-4.922 -3.85,-6.588 -8.5,-5 -0.37,1.991 -1.21,3.658 -2.5,5 -0.28,-5.715 2.38,-8.382 8,-8 0.33,0 0.67,0 1,0 1.77,1.613 2.94,3.613 3.5,6 4.29,-2.426 5.62,-6.093 4,-11 -1.68,-5 -2.18,-10 -1.5,-15 3.5,-3.935 7,-3.935 10.5,0 3.04,10.75 4.37,21.75 4,33 9.7,-10.532 19.53,-20.865 29.5,-31 z"
         id="path198" />
    </g>
    <g
       id="g199"
       style="clip-rule:evenodd;fill-rule:evenodd;image-rendering:optimizeQuality;shape-rendering:geometricPrecision;text-rendering:geometricPrecision"
       transform="matrix(0.26458333,0,0,0.26458333,-285.37534,-102.54044)">
      <path
         style="opacity:1"
         fill="#9e5b1c"
         d="m 1209.5,462.5 c -0.56,10.028 -1.22,20.028 -2,30 -1.28,1.145 -2.61,1.145 -4,0 -3.09,-3.083 -5.76,-6.416 -8,-10 3.31,2.978 6.65,5.978 10,9 0.83,-7.645 1.33,-15.312 1.5,-23 0.57,-2.223 1.4,-4.223 2.5,-6 z"
         id="path199" />
    </g>
    <g
       id="g200"
       style="clip-rule:evenodd;fill-rule:evenodd;image-rendering:optimizeQuality;shape-rendering:geometricPrecision;text-rendering:geometricPrecision"
       transform="matrix(0.26458333,0,0,0.26458333,-285.37534,-102.54044)">
      <path
         style="opacity:1"
         fill="#e47f14"
         d="m 1217.5,460.5 c 0.38,4.628 -0.45,8.961 -2.5,13 -2.47,7.769 -0.14,13.435 7,17 0.67,1.667 0.67,3.333 0,5 -2.26,-1.546 -4.42,-3.212 -6.5,-5 -0.83,3.622 -1.33,7.289 -1.5,11 -1.09,-1.849 -2.43,-3.516 -4,-5 -1.29,-11.566 -0.29,-22.9 3,-34 1.11,-1.537 2.61,-2.203 4.5,-2 z"
         id="path200" />
    </g>
    <g
       id="g201"
       style="clip-rule:evenodd;fill-rule:evenodd;image-rendering:optimizeQuality;shape-rendering:geometricPrecision;text-rendering:geometricPrecision"
       transform="matrix(0.26458333,0,0,0.26458333,-285.37534,-102.54044)">
      <path
         style="opacity:1"
         fill="#eaab72"
         d="m 1235.5,480.5 c 0.32,3.072 -0.02,6.072 -1,9 -0.97,-2.243 -1.31,-4.576 -1,-7 0.67,-0.667 1.33,-1.333 2,-2 z"
         id="path201" />
    </g>
    <g
       id="g202"
       style="clip-rule:evenodd;fill-rule:evenodd;image-rendering:optimizeQuality;shape-rendering:geometricPrecision;text-rendering:geometricPrecision"
       transform="matrix(0.26458333,0,0,0.26458333,-285.37534,-102.54044)">
      <path
         style="opacity:1"
         fill="#e68215"
         d="m 1312.5,488.5 c 1.67,-1 3,-2.333 4,-4 0.66,-1.464 0.99,-3.131 1,-5 -0.89,-5.173 -1.89,-10.34 -3,-15.5 -0.08,-2.756 1.26,-3.923 4,-3.5 2.88,12.152 3.71,24.486 2.5,37 -1,1 -2,2 -3,3 -0.17,-3.711 -0.67,-7.378 -1.5,-11 -2.38,2.385 -5.05,4.385 -8,6 -1.33,-1.333 -1.33,-2.667 0,-4 1.4,-1.021 2.73,-2.021 4,-3 z"
         id="path202" />
    </g>
    <g
       id="g203"
       style="clip-rule:evenodd;fill-rule:evenodd;image-rendering:optimizeQuality;shape-rendering:geometricPrecision;text-rendering:geometricPrecision"
       transform="matrix(0.26458333,0,0,0.26458333,-285.37534,-102.54044)">
      <path
         style="opacity:1"
         fill="#efe3d2"
         d="m 1210.5,458.5 c -0.61,0.891 -0.94,1.891 -1,3 0,0.333 0,0.667 0,1 -1.1,1.777 -1.93,3.777 -2.5,6 -0.17,7.688 -0.67,15.355 -1.5,23 -3.35,-3.022 -6.69,-6.022 -10,-9 -2.6,-3.938 -5.6,-7.605 -9,-11 1.68,0.392 3.35,0.892 5,1.5 2.58,4.585 6.08,8.085 10.5,10.5 0.55,-6.447 1.72,-12.947 3.5,-19.5 1.08,-1.371 1.91,-2.871 2.5,-4.5 0.67,-0.752 1.5,-1.086 2.5,-1 z"
         id="path203" />
    </g>
    <g
       id="g204"
       style="clip-rule:evenodd;fill-rule:evenodd;image-rendering:optimizeQuality;shape-rendering:geometricPrecision;text-rendering:geometricPrecision"
       transform="matrix(0.26458333,0,0,0.26458333,-285.37534,-102.54044)">
      <path
         style="opacity:1"
         fill="#ef8209"
         d="m 1305.5,535.5 c -3.05,2.388 -5.72,5.054 -8,8 -3.8,4.636 -8.14,8.803 -13,12.5 -2.72,2.027 -5.72,3.527 -9,4.5 -1.13,-1.574 -1.3,-3.241 -0.5,-5 1.93,-4.259 4.27,-8.259 7,-12 15.73,-16.229 31.23,-32.562 46.5,-49 1,-0.333 1.67,-1 2,-2 11.49,-10.661 22.49,-21.828 33,-33.5 0.5,-0.167 1,-0.333 1.5,-0.5 4.15,1.779 6.15,4.779 6,9 -22.04,22.535 -43.87,45.202 -65.5,68 z"
         id="path204" />
    </g>
    <g
       id="g205"
       style="clip-rule:evenodd;fill-rule:evenodd;image-rendering:optimizeQuality;shape-rendering:geometricPrecision;text-rendering:geometricPrecision"
       transform="matrix(0.26458333,0,0,0.26458333,-285.37534,-102.54044)">
      <path
         style="opacity:1"
         fill="#f18202"
         d="m 1290.5,476.5 c 0.94,12.963 1.28,25.963 1,39 0.35,2.369 0.52,4.703 0.5,7 -4.78,5.609 -6.62,5.109 -5.5,-1.5 -2.19,-2.113 -3.86,-4.613 -5,-7.5 -0.82,-0.886 -1.82,-1.219 -3,-1 -11.69,-8.282 -21.03,-6.282 -28,6 -0.62,0.111 -1.12,0.444 -1.5,1 -0.16,3.634 -1.16,6.967 -3,10 -7.27,-3.573 -8.77,-8.739 -4.5,-15.5 -0.64,-2.578 -0.97,-5.245 -1,-8 0.11,-3.035 0.78,-5.869 2,-8.5 -0.99,-0.968 -1.66,-2.135 -2,-3.5 1.04,-2.408 1.04,-4.741 0,-7 1.93,-1.729 1.93,-3.729 0,-6 1.42,-2.808 1.92,-5.642 1.5,-8.5 4.66,-2.226 9.49,-2.559 14.5,-1 3.25,-1.116 6.41,-2.116 9.5,-3 1.81,-0.007 3.31,0.66 4.5,2 4.14,-1.135 7.97,-1.135 11.5,0 2.37,1.36 4.54,3.026 6.5,5 -0.21,0.586 -0.54,1.086 -1,1.5 0.73,1.399 1.23,2.899 1.5,4.5 0.2,-1.882 0.7,-3.548 1.5,-5 z"
         id="path205" />
    </g>
    <g
       id="g206"
       style="clip-rule:evenodd;fill-rule:evenodd;image-rendering:optimizeQuality;shape-rendering:geometricPrecision;text-rendering:geometricPrecision"
       transform="matrix(0.26458333,0,0,0.26458333,-285.37534,-102.54044)">
      <path
         style="opacity:1"
         fill="#d6710b"
         d="m 1271.5,456.5 c 4.07,0.856 8.07,2.023 12,3.5 1.88,2.126 2.88,4.626 3,7.5 -5.02,-0.558 -10.02,-1.225 -15,-2 0,-3 0,-6 0,-9 z"
         id="path206" />
    </g>
    <g
       id="g207"
       style="clip-rule:evenodd;fill-rule:evenodd;image-rendering:optimizeQuality;shape-rendering:geometricPrecision;text-rendering:geometricPrecision"
       transform="matrix(0.26458333,0,0,0.26458333,-285.37534,-102.54044)">
      <path
         style="opacity:1"
         fill="#f3e1c7"
         d="m 1311.5,459.5 c -0.68,5 -0.18,10 1.5,15 1.62,4.907 0.29,8.574 -4,11 -0.56,-2.387 -1.73,-4.387 -3.5,-6 1.64,0.214 3.14,-0.12 4.5,-1 0.53,-4.847 0.37,-9.68 -0.5,-14.5 0.07,-1.986 0.74,-3.486 2,-4.5 z"
         id="path207" />
    </g>
    <g
       id="g208"
       style="clip-rule:evenodd;fill-rule:evenodd;image-rendering:optimizeQuality;shape-rendering:geometricPrecision;text-rendering:geometricPrecision"
       transform="matrix(0.26458333,0,0,0.26458333,-285.37534,-102.54044)">
      <path
         style="opacity:1"
         fill="#d16e0a"
         d="m 1256.5,456.5 c 1.33,0 2.67,0 4,0 0.28,2.948 -0.06,5.781 -1,8.5 -4.6,0.304 -9.1,1.138 -13.5,2.5 -0.5,-0.333 -1,-0.667 -1.5,-1 0.69,-1.944 1.19,-3.944 1.5,-6 3.5,-1.573 7,-2.907 10.5,-4 z"
         id="path208" />
    </g>
    <g
       id="g209"
       style="clip-rule:evenodd;fill-rule:evenodd;image-rendering:optimizeQuality;shape-rendering:geometricPrecision;text-rendering:geometricPrecision"
       transform="matrix(0.26458333,0,0,0.26458333,-285.37534,-102.54044)">
      <path
         style="opacity:1"
         fill="#e98114"
         d="m 1300.5,483.5 c 1.33,0 2.67,0 4,0 0.17,9.006 0,18.006 -0.5,27 -1.01,0.837 -2.18,1.17 -3.5,1 0,-9.333 0,-18.667 0,-28 z"
         id="path209" />
    </g>
    <g
       id="g211"
       style="clip-rule:evenodd;fill-rule:evenodd;image-rendering:optimizeQuality;shape-rendering:geometricPrecision;text-rendering:geometricPrecision"
       transform="matrix(0.26458333,0,0,0.26458333,-285.37534,-102.54044)">
      <path
         style="opacity:1"
         fill="#f9e8c7"
         d="m 1312.5,497.5 c 2.05,4.824 0.88,8.824 -3.5,12 -0.67,-3 -0.67,-6 0,-9 1.15,-1.136 2.31,-2.136 3.5,-3 z"
         id="path211" />
    </g>
    <g
       id="g212"
       style="clip-rule:evenodd;fill-rule:evenodd;image-rendering:optimizeQuality;shape-rendering:geometricPrecision;text-rendering:geometricPrecision"
       transform="matrix(0.26458333,0,0,0.26458333,-285.37534,-102.54044)">
      <path
         style="opacity:1"
         fill="#985a20"
         d="m 1357.5,486.5 c -7.28,8.946 -15.28,17.279 -24,25 0.1,-2.858 1.26,-5.191 3.5,-7 6.39,-6.563 13.23,-12.563 20.5,-18 z"
         id="path212" />
    </g>
    <g
       id="g213"
       style="clip-rule:evenodd;fill-rule:evenodd;image-rendering:optimizeQuality;shape-rendering:geometricPrecision;text-rendering:geometricPrecision"
       transform="matrix(0.26458333,0,0,0.26458333,-285.37534,-102.54044)">
      <path
         style="opacity:1"
         fill="#9e5815"
         d="m 1217.5,496.5 c 6.21,1.451 8.38,5.451 6.5,12 -0.52,1.016 -1.35,1.682 -2.5,2 -6.18,-3.297 -7.52,-7.964 -4,-14 z"
         id="path213" />
    </g>
    <g
       id="g214"
       style="clip-rule:evenodd;fill-rule:evenodd;image-rendering:optimizeQuality;shape-rendering:geometricPrecision;text-rendering:geometricPrecision"
       transform="matrix(0.26458333,0,0,0.26458333,-285.37534,-102.54044)">
      <path
         style="opacity:1"
         fill="#f9e0ba"
         d="m 1218.5,497.5 c 1.29,0.79 2.46,1.79 3.5,3 0.67,3 0.67,6 0,9 -3.22,-3.274 -4.38,-7.274 -3.5,-12 z"
         id="path214" />
    </g>
    <g
       id="g218"
       style="clip-rule:evenodd;fill-rule:evenodd;image-rendering:optimizeQuality;shape-rendering:geometricPrecision;text-rendering:geometricPrecision"
       transform="matrix(0.26458333,0,0,0.26458333,-285.37534,-102.54044)">
      <path
         style="opacity:1"
         fill="#832204"
         d="m 1278.5,512.5 c 0.57,1.755 1.41,3.422 2.5,5 0.4,13.206 -4.6,23.872 -15,32 -9.94,-7.887 -15.11,-18.22 -15.5,-31 6.97,-12.282 16.31,-14.282 28,-6 z"
         id="path218" />
    </g>
    <g
       id="g219"
       style="clip-rule:evenodd;fill-rule:evenodd;image-rendering:optimizeQuality;shape-rendering:geometricPrecision;text-rendering:geometricPrecision"
       transform="matrix(0.26458333,0,0,0.26458333,-285.37534,-102.54044)">
      <path
         style="opacity:1"
         fill="#f6d4a1"
         d="m 1234.5,511.5 c 0.54,0.06 0.88,0.393 1,1 -0.83,1.667 -1.67,3.333 -2.5,5 -1.87,1.168 -3.37,0.668 -4.5,-1.5 2.97,-0.308 4.97,-1.808 6,-4.5 z"
         id="path219" />
    </g>
    <g
       id="g220"
       style="clip-rule:evenodd;fill-rule:evenodd;image-rendering:optimizeQuality;shape-rendering:geometricPrecision;text-rendering:geometricPrecision"
       transform="matrix(0.26458333,0,0,0.26458333,-285.37534,-102.54044)">
      <path
         style="opacity:1"
         fill="#f8d9a6"
         d="m 1295.5,510.5 c 1.25,3.077 3.59,4.91 7,5.5 -2.83,3.359 -5,2.859 -6.5,-1.5 -0.49,-1.293 -0.66,-2.627 -0.5,-4 z"
         id="path220" />
    </g>
    <g
       id="g225"
       style="clip-rule:evenodd;fill-rule:evenodd;image-rendering:optimizeQuality;shape-rendering:geometricPrecision;text-rendering:geometricPrecision"
       transform="matrix(0.26458333,0,0,0.26458333,-285.37534,-102.54044)">
      <path
         style="opacity:1"
         fill="#ae433c"
         d="m 1262.5,509.5 c 13.24,0.411 18.41,7.078 15.5,20 -3.01,6.688 -7.01,12.688 -12,18 -6.98,-6.782 -11.48,-14.949 -13.5,-24.5 0.88,-6.372 4.21,-10.872 10,-13.5 z"
         id="path225" />
    </g>
    <g
       id="g226"
       style="clip-rule:evenodd;fill-rule:evenodd;image-rendering:optimizeQuality;shape-rendering:geometricPrecision;text-rendering:geometricPrecision"
       transform="matrix(0.26458333,0,0,0.26458333,-285.37534,-102.54044)">
      <path
         style="opacity:1"
         fill="#772822"
         d="m 1262.5,516.5 c 8.99,-0.744 11.32,2.756 7,10.5 -9.07,1.136 -11.4,-2.364 -7,-10.5 z"
         id="path226" />
    </g>
    <g
       id="g227"
       style="clip-rule:evenodd;fill-rule:evenodd;image-rendering:optimizeQuality;shape-rendering:geometricPrecision;text-rendering:geometricPrecision"
       transform="matrix(0.26458333,0,0,0.26458333,-285.37534,-102.54044)">
      <path
         style="opacity:1"
         fill="#f9e7e4"
         d="m 1264.5,518.5 c 4.99,0.497 5.99,2.664 3,6.5 -5.12,-0.176 -6.12,-2.342 -3,-6.5 z"
         id="path227" />
    </g>
    <g
       id="g228"
       style="clip-rule:evenodd;fill-rule:evenodd;image-rendering:optimizeQuality;shape-rendering:geometricPrecision;text-rendering:geometricPrecision"
       transform="matrix(0.26458333,0,0,0.26458333,-285.37534,-102.54044)">
      <path
         style="opacity:1"
         fill="#985c22"
         d="m 1325.5,519.5 c 0.17,26.669 0,53.335 -0.5,80 -1.11,0.805 -2.28,1.472 -3.5,2 -2.03,0.162 -4.03,-0.005 -6,-0.5 -0.63,-0.75 -1.13,-1.584 -1.5,-2.5 -0.5,-4.989 -0.67,-9.989 -0.5,-15 1.43,4.827 2.6,9.827 3.5,15 1.94,1.307 3.78,1.307 5.5,0 1.66,-26.151 2.66,-52.484 3,-79 z"
         id="path228" />
    </g>
    <g
       id="g229"
       style="clip-rule:evenodd;fill-rule:evenodd;image-rendering:optimizeQuality;shape-rendering:geometricPrecision;text-rendering:geometricPrecision"
       transform="matrix(0.26458333,0,0,0.26458333,-285.37534,-102.54044)">
      <path
         style="opacity:1"
         fill="#ebe7e1"
         d="m 1231.5,560.5 c -0.33,0.667 -0.67,1.333 -1,2 -1.11,0.057 -2.11,0.39 -3,1 -2.33,0 -4.67,0 -7,0 -0.07,-8.514 -0.07,-16.847 0,-25 3.33,2.667 6.33,5.667 9,9 1.68,4.155 2.35,8.488 2,13 z"
         id="path229" />
    </g>
    <g
       id="g230"
       style="clip-rule:evenodd;fill-rule:evenodd;image-rendering:optimizeQuality;shape-rendering:geometricPrecision;text-rendering:geometricPrecision"
       transform="matrix(0.26458333,0,0,0.26458333,-285.37534,-102.54044)">
      <path
         style="opacity:1"
         fill="#9a5517"
         d="m 1219.5,534.5 c 2.33,0.667 4.67,1.333 7,2 2.33,1.667 4.33,3.667 6,6 1.85,5.499 2.35,11.165 1.5,17 -0.42,1.926 -1.59,2.926 -3.5,3 0.33,-0.667 0.67,-1.333 1,-2 1.15,-4.146 1.31,-8.48 0.5,-13 -4.37,-4.202 -8.54,-8.536 -12.5,-13 z"
         id="path230" />
    </g>
    <g
       id="g233"
       style="clip-rule:evenodd;fill-rule:evenodd;image-rendering:optimizeQuality;shape-rendering:geometricPrecision;text-rendering:geometricPrecision"
       transform="matrix(0.26458333,0,0,0.26458333,-285.37534,-102.54044)">
      <path
         style="opacity:1"
         fill="#986837"
         d="m 1219.5,534.5 c -0.99,11.154 -1.33,22.488 -1,34 -0.99,-11.154 -1.33,-22.488 -1,-34 0.67,-1.333 1.33,-1.333 2,0 z"
         id="path233" />
    </g>
    <g
       id="g234"
       style="clip-rule:evenodd;fill-rule:evenodd;image-rendering:optimizeQuality;shape-rendering:geometricPrecision;text-rendering:geometricPrecision"
       transform="matrix(0.26458333,0,0,0.26458333,-285.37534,-102.54044)">
      <path
         style="opacity:1"
         fill="#f8e1c4"
         d="m 1219.5,534.5 c 3.96,4.464 8.13,8.798 12.5,13 0.81,4.52 0.65,8.854 -0.5,13 0.35,-4.512 -0.32,-8.845 -2,-13 -2.67,-3.333 -5.67,-6.333 -9,-9 -0.07,8.153 -0.07,16.486 0,25 2.33,0 4.67,0 7,0 -2.68,2.101 -5.51,4.101 -8.5,6 -0.4,-0.228 -0.57,-0.562 -0.5,-1 -0.33,-11.512 0.01,-22.846 1,-34 z"
         id="path234" />
    </g>
    <g
       id="g235"
       style="clip-rule:evenodd;fill-rule:evenodd;image-rendering:optimizeQuality;shape-rendering:geometricPrecision;text-rendering:geometricPrecision"
       transform="matrix(0.26458333,0,0,0.26458333,-285.37534,-102.54044)">
      <path
         style="opacity:1"
         fill="#eb830d"
         d="m 1168.5,458.5 c 26.24,28.408 53.07,56.408 80.5,84 4.44,4.88 7.27,10.546 8.5,17 -1.37,0.157 -2.71,-0.01 -4,-0.5 -8.02,-4.189 -15.02,-9.689 -21,-16.5 -1.67,-2.333 -3.67,-4.333 -6,-6 -15.64,-16.97 -31.64,-33.637 -48,-50 -6,-6.163 -11.83,-12.496 -17.5,-19 0.02,-4.867 2.52,-7.867 7.5,-9 z"
         id="path235" />
    </g>
    <g
       id="g236"
       style="clip-rule:evenodd;fill-rule:evenodd;image-rendering:optimizeQuality;shape-rendering:geometricPrecision;text-rendering:geometricPrecision"
       transform="matrix(0.26458333,0,0,0.26458333,-285.37534,-102.54044)">
      <path
         style="opacity:1"
         fill="#cb6b08"
         d="m 1321.5,530.5 c 1,22.494 1.33,45.161 1,68 -1.6,0.268 -2.93,-0.066 -4,-1 1,0 2,0 3,0 0,-22.333 0,-44.667 0,-67 z"
         id="path236" />
    </g>
    <g
       id="g237"
       style="clip-rule:evenodd;fill-rule:evenodd;image-rendering:optimizeQuality;shape-rendering:geometricPrecision;text-rendering:geometricPrecision"
       transform="matrix(0.26458333,0,0,0.26458333,-285.37534,-102.54044)">
      <path
         style="opacity:1"
         fill="#ee8616"
         d="m 1321.5,530.5 c 0,22.333 0,44.667 0,67 -1,0 -2,0 -3,0 -0.83,-5.151 -1.33,-10.484 -1.5,-16 -6.58,-4.042 -13.08,-8.209 -19.5,-12.5 -0.88,-1.356 -1.21,-2.856 -1,-4.5 1.05,-0.149 2.05,0.017 3,0.5 5.8,3.638 11.47,7.471 17,11.5 0.83,-15.99 1.33,-31.99 1.5,-48 3.02,-4.099 4.19,-3.433 3.5,2 z"
         id="path237" />
    </g>
    <g
       id="g238"
       style="clip-rule:evenodd;fill-rule:evenodd;image-rendering:optimizeQuality;shape-rendering:geometricPrecision;text-rendering:geometricPrecision"
       transform="matrix(0.26458333,0,0,0.26458333,-285.37534,-102.54044)">
      <path
         style="opacity:1"
         fill="#a15b1a"
         d="m 1313.5,533.5 c 0.72,0.418 1.22,1.084 1.5,2 0.82,11.576 0.65,23.076 -0.5,34.5 -1.33,0.667 -2.67,0.667 -4,0 -4.7,-2.474 -9.2,-5.307 -13.5,-8.5 -0.75,-6.051 -0.58,-12.051 0.5,-18 2.28,-2.946 4.95,-5.612 8,-8 1.99,-0.981 3.99,-1.981 6,-3 0.92,0.043 1.58,0.376 2,1 z"
         id="path238" />
    </g>
    <g
       id="g239"
       style="clip-rule:evenodd;fill-rule:evenodd;image-rendering:optimizeQuality;shape-rendering:geometricPrecision;text-rendering:geometricPrecision"
       transform="matrix(0.26458333,0,0,0.26458333,-285.37534,-102.54044)">
      <path
         style="opacity:1"
         fill="#f6dfc2"
         d="m 1313.5,533.5 c 0.17,12.005 0,24.005 -0.5,36 -4.67,-3.333 -9.33,-6.667 -14,-10 -0.81,-4.189 -0.65,-8.189 0.5,-12 -0.11,4.048 0.23,8.048 1,12 2.41,1.187 4.74,2.687 7,4.5 1.29,0.49 2.63,0.657 4,0.5 0,-8.333 0,-16.667 0,-25 -1.05,-0.149 -2.05,0.017 -3,0.5 -1.63,2.805 -3.96,4.638 -7,5.5 3.67,-4.333 7.67,-8.333 12,-12 z"
         id="path239" />
    </g>
    <g
       id="g240"
       style="clip-rule:evenodd;fill-rule:evenodd;image-rendering:optimizeQuality;shape-rendering:geometricPrecision;text-rendering:geometricPrecision"
       transform="matrix(0.26458333,0,0,0.26458333,-285.37534,-102.54044)">
      <path
         style="opacity:1"
         fill="#ebe8e3"
         d="m 1299.5,547.5 c 0.33,-1 1,-1.667 2,-2 3.04,-0.862 5.37,-2.695 7,-5.5 0.95,-0.483 1.95,-0.649 3,-0.5 0,8.333 0,16.667 0,25 -1.37,0.157 -2.71,-0.01 -4,-0.5 -2.26,-1.813 -4.59,-3.313 -7,-4.5 -0.77,-3.952 -1.11,-7.952 -1,-12 z"
         id="path240" />
    </g>
    <g
       id="g243"
       style="clip-rule:evenodd;fill-rule:evenodd;image-rendering:optimizeQuality;shape-rendering:geometricPrecision;text-rendering:geometricPrecision"
       transform="matrix(0.26458333,0,0,0.26458333,-285.37534,-102.54044)">
      <path
         style="opacity:1"
         fill="#f2e1cc"
         d="m 1182.5,496.5 c 7.03,6.36 13.69,13.027 20,20 1.75,1.746 3.08,3.746 4,6 -0.17,25.669 0,51.335 0.5,77 4.06,2.929 7.73,2.596 11,-1 0.33,-5 0.67,-10 1,-15 5.68,-3.53 11.18,-7.196 16.5,-11 0.99,-0.172 1.66,0.162 2,1 0.86,1.886 1.86,3.72 3,5.5 -3.57,3.396 -6.9,6.896 -10,10.5 -6.39,6.388 -12.39,13.055 -18,20 -0.67,0 -1,0.333 -1,1 -2,1.667 -4,3.333 -6,5 0.9,-3.681 2.57,-7.014 5,-10 -3.14,-1.973 -6.14,-4.14 -9,-6.5 0.63,-0.75 1.13,-1.584 1.5,-2.5 0.04,-3.93 0.21,-7.763 0.5,-11.5 -0.67,-1.667 -1.33,-3.333 -2,-5 0.95,-0.483 1.95,-0.649 3,-0.5 0.17,-16.67 0,-33.337 -0.5,-50 -1.72,-1.702 -1.89,-3.535 -0.5,-5.5 -1.39,-1.171 -2.23,-2.671 -2.5,-4.5 -4.46,-1.963 -7.3,-5.297 -8.5,-10 -3.58,-4.174 -6.92,-8.508 -10,-13 z"
         id="path243" />
    </g>
    <g
       id="g245"
       style="clip-rule:evenodd;fill-rule:evenodd;image-rendering:optimizeQuality;shape-rendering:geometricPrecision;text-rendering:geometricPrecision"
       transform="matrix(0.26458333,0,0,0.26458333,-285.37534,-102.54044)">
      <path
         style="opacity:1"
         fill="#9e5615"
         d="m 1217.5,534.5 c -0.33,11.512 0.01,22.846 1,34 -0.07,0.438 0.1,0.772 0.5,1 2.99,-1.899 5.82,-3.899 8.5,-6 0.89,-0.61 1.89,-0.943 3,-1 -1.44,1.32 -2.11,2.986 -2,5 -1.1,1.1 -2.44,1.767 -4,2 -2.57,0.95 -5.07,0.95 -7.5,0 -0.83,-11.841 -0.66,-23.507 0.5,-35 z"
         id="path245" />
    </g>
    <g
       id="g246"
       style="clip-rule:evenodd;fill-rule:evenodd;image-rendering:optimizeQuality;shape-rendering:geometricPrecision;text-rendering:geometricPrecision"
       transform="matrix(0.26458333,0,0,0.26458333,-285.37534,-102.54044)">
      <path
         style="opacity:1"
         fill="#ee840f"
         d="m 1236.5,552.5 c 5.13,4.403 10.79,8.07 17,11 1.33,2.333 1.33,4.667 0,7 -2.84,1.92 -5.84,3.587 -9,5 -2.59,-2.848 -4.43,-6.181 -5.5,-10 -0.9,-4.334 -1.73,-8.668 -2.5,-13 z"
         id="path246" />
    </g>
    <g
       id="g247"
       style="clip-rule:evenodd;fill-rule:evenodd;image-rendering:optimizeQuality;shape-rendering:geometricPrecision;text-rendering:geometricPrecision"
       transform="matrix(0.26458333,0,0,0.26458333,-285.37534,-102.54044)">
      <path
         style="opacity:1"
         fill="#e58012"
         d="m 1263.5,559.5 c 5.89,-1.07 9.22,1.263 10,7 -0.85,6.603 -4.52,8.77 -11,6.5 -2.89,-2.909 -3.73,-6.409 -2.5,-10.5 1.15,-1.136 2.31,-2.136 3.5,-3 z"
         id="path247" />
    </g>
    <g
       id="g250"
       style="clip-rule:evenodd;fill-rule:evenodd;image-rendering:optimizeQuality;shape-rendering:geometricPrecision;text-rendering:geometricPrecision"
       transform="matrix(0.26458333,0,0,0.26458333,-285.37534,-102.54044)">
      <path
         style="opacity:1"
         fill="#ee8412"
         d="m 1293.5,553.5 c 1.1,8.044 -0.9,15.377 -6,22 -3.59,-1.375 -6.76,-3.375 -9.5,-6 -0.67,-1.667 -0.67,-3.333 0,-5 5.63,-3.141 10.79,-6.808 15.5,-11 z"
         id="path250" />
    </g>
    <g
       id="g258"
       style="clip-rule:evenodd;fill-rule:evenodd;image-rendering:optimizeQuality;shape-rendering:geometricPrecision;text-rendering:geometricPrecision"
       transform="matrix(0.26458333,0,0,0.26458333,-285.37534,-102.54044)">
      <path
         style="opacity:1"
         fill="#ece6de"
         d="m 1304.5,591.5 c -2.67,-2.667 -5.33,-5.333 -8,-8 0,-0.333 0,-0.667 0,-1 -1.43,-2.058 -2.1,-4.392 -2,-7 6.14,2.658 11.98,5.992 17.5,10 0.9,3.533 0.57,6.867 -1,10 -1.55,-2.387 -3.71,-3.72 -6.5,-4 z"
         id="path258" />
    </g>
    <g
       id="g262"
       style="clip-rule:evenodd;fill-rule:evenodd;image-rendering:optimizeQuality;shape-rendering:geometricPrecision;text-rendering:geometricPrecision"
       transform="matrix(0.26458333,0,0,0.26458333,-285.37534,-102.54044)">
      <path
         style="opacity:1"
         fill="#ede9e5"
         d="m 1230.5,589.5 c -0.65,-0.304 -1.32,-0.637 -2,-1 -2,2.987 -4.66,4.987 -8,6 0.17,-3.374 0.67,-6.707 1.5,-10 4.19,-3.042 8.69,-5.376 13.5,-7 -1.67,4 -3.33,8 -5,12 z"
         id="path262" />
    </g>
    <g
       id="g264"
       style="clip-rule:evenodd;fill-rule:evenodd;image-rendering:optimizeQuality;shape-rendering:geometricPrecision;text-rendering:geometricPrecision"
       transform="matrix(0.26458333,0,0,0.26458333,-285.37534,-102.54044)">
      <path
         style="opacity:1"
         fill="#e67e12"
         d="m 1224.5,569.5 c 1.56,-0.233 2.9,-0.9 4,-2 1.47,-1.24 3.14,-2.24 5,-3 1.05,0.938 1.72,2.105 2,3.5 -6.46,4.737 -13.13,9.237 -20,13.5 -0.99,5.292 -1.33,10.625 -1,16 -1.67,0 -3.33,0 -5,0 -0.33,-24.009 0,-48.009 1,-72 1.31,0.813 2.48,1.813 3.5,3 0.17,16.01 0.67,32.01 1.5,48 3.25,-2.112 6.25,-4.445 9,-7 z"
         id="path264" />
    </g>
    <g
       id="g265"
       style="clip-rule:evenodd;fill-rule:evenodd;image-rendering:optimizeQuality;shape-rendering:geometricPrecision;text-rendering:geometricPrecision"
       transform="matrix(0.26458333,0,0,0.26458333,-285.37534,-102.54044)">
      <path
         style="opacity:1"
         fill="#f2d7b5"
         d="m 1313.5,583.5 c -0.17,5.011 0,10.011 0.5,15 0.37,0.916 0.87,1.75 1.5,2.5 1.97,0.495 3.97,0.662 6,0.5 0,0.333 0,0.667 0,1 -1.98,-0.343 -3.32,0.324 -4,2 -4.67,-4 -9,-8.333 -13,-13 2.79,0.28 4.95,1.613 6.5,4 1.57,-3.133 1.9,-6.467 1,-10 -5.52,-4.008 -11.36,-7.342 -17.5,-10 -0.1,2.608 0.57,4.942 2,7 -4.89,-2.888 -5.22,-6.221 -1,-10 5.72,4.191 11.72,7.858 18,11 z"
         id="path265" />
    </g>
    <g
       id="g266"
       style="clip-rule:evenodd;fill-rule:evenodd;image-rendering:optimizeQuality;shape-rendering:geometricPrecision;text-rendering:geometricPrecision"
       transform="matrix(0.26458333,0,0,0.26458333,-285.37534,-102.54044)">
      <path
         style="opacity:1"
         fill="#f18204"
         d="m 1274.5,626.5 c -3.23,-1.72 -6.06,-4.053 -8.5,-7 -2.44,-3.872 -4.6,-7.872 -6.5,-12 -1.2,1.645 -2.2,3.311 -3,5 0.62,-6.457 -0.38,-12.624 -3,-18.5 3.93,-5.021 6.93,-10.521 9,-16.5 2.62,-0.268 5.12,0.065 7.5,1 2.46,5.423 5.29,10.59 8.5,15.5 -0.97,2.111 -1.81,4.278 -2.5,6.5 -0.58,8.666 -1.08,17.333 -1.5,26 z"
         id="path266" />
    </g>
    <g
       id="g268"
       style="clip-rule:evenodd;fill-rule:evenodd;image-rendering:optimizeQuality;shape-rendering:geometricPrecision;text-rendering:geometricPrecision"
       transform="matrix(0.26458333,0,0,0.26458333,-285.37534,-102.54044)">
      <path
         style="opacity:1"
         fill="#925a25"
         d="m 1296.5,583.5 c 2.67,2.667 5.33,5.333 8,8 4,4.667 8.33,9 13,13 3.29,4.627 6.96,8.96 11,13 -0.74,0.131 -1.41,-0.036 -2,-0.5 -7.21,-7.842 -14.71,-15.342 -22.5,-22.5 -3.04,-3.437 -5.54,-7.103 -7.5,-11 z"
         id="path268" />
    </g>
    <g
       id="g269"
       style="clip-rule:evenodd;fill-rule:evenodd;image-rendering:optimizeQuality;shape-rendering:geometricPrecision;text-rendering:geometricPrecision"
       transform="matrix(0.26458333,0,0,0.26458333,-285.37534,-102.54044)">
      <path
         style="opacity:1"
         fill="#a55917"
         d="m 1285.5,594.5 c 6.37,5.369 12.04,11.369 17,18 1.9,2.898 3.74,5.898 5.5,9 3.98,4.312 8.31,8.312 13,12 1.85,3.046 3.69,6.046 5.5,9 -0.33,0 -0.67,0 -1,0 -8.63,-10.301 -17.97,-19.967 -28,-29 -4.07,-5.575 -8.73,-10.741 -14,-15.5 -0.83,-0.688 -1.5,-0.521 -2,0.5 -0.49,1.526 -1.16,2.859 -2,4 -0.67,5.333 -1.33,10.667 -2,16 -0.17,-5.676 0,-11.343 0.5,-17 0.5,-2.685 1.67,-5.019 3.5,-7 -0.21,-0.586 -0.54,-1.086 -1,-1.5 1.89,-0.163 3.39,0.671 4.5,2.5 0.4,-0.228 0.57,-0.562 0.5,-1 z"
         id="path269" />
    </g>
    <g
       id="g270"
       style="clip-rule:evenodd;fill-rule:evenodd;image-rendering:optimizeQuality;shape-rendering:geometricPrecision;text-rendering:geometricPrecision"
       transform="matrix(0.26458333,0,0,0.26458333,-285.37534,-102.54044)">
      <path
         style="opacity:1"
         fill="#ef820b"
         d="m 1255.5,573.5 c 1.88,0.212 3.22,1.212 4,3 -2.58,4.833 -5.42,9.5 -8.5,14 -27.83,28.833 -55.67,57.667 -83.5,86.5 -4.95,-0.622 -7.45,-3.455 -7.5,-8.5 26.2,-26.53 52.03,-53.363 77.5,-80.5 5.59,-5.426 11.59,-10.259 18,-14.5 z"
         id="path270" />
    </g>
    <g
       id="g272"
       style="clip-rule:evenodd;fill-rule:evenodd;image-rendering:optimizeQuality;shape-rendering:geometricPrecision;text-rendering:geometricPrecision"
       transform="matrix(0.26458333,0,0,0.26458333,-285.37534,-102.54044)">
      <path
         style="opacity:1"
         fill="#935620"
         d="m 1206.5,522.5 c 1,25.161 1.33,50.495 1,76 2.64,0.763 5.31,0.93 8,0.5 0.69,-5.468 1.36,-10.968 2,-16.5 4.74,-3.102 9.4,-6.269 14,-9.5 1.29,-0.49 2.63,-0.657 4,-0.5 -5.32,3.804 -10.82,7.47 -16.5,11 -0.33,5 -0.67,10 -1,15 -3.27,3.596 -6.94,3.929 -11,1 -0.5,-25.665 -0.67,-51.331 -0.5,-77 z"
         id="path272" />
    </g>
    <g
       id="g273"
       style="clip-rule:evenodd;fill-rule:evenodd;image-rendering:optimizeQuality;shape-rendering:geometricPrecision;text-rendering:geometricPrecision"
       transform="matrix(0.26458333,0,0,0.26458333,-285.37534,-102.54044)">
      <path
         style="opacity:1"
         fill="#915723"
         d="m 1237.5,573.5 c 3.55,1.457 4.72,4.123 3.5,8 -9.31,9.481 -18.81,18.814 -28.5,28 5.61,-6.945 11.61,-13.612 18,-20 3.1,-3.604 6.43,-7.104 10,-10.5 -1.14,-1.78 -2.14,-3.614 -3,-5.5 z"
         id="path273" />
    </g>
    <g
       id="g275"
       style="clip-rule:evenodd;fill-rule:evenodd;image-rendering:optimizeQuality;shape-rendering:geometricPrecision;text-rendering:geometricPrecision"
       transform="matrix(0.26458333,0,0,0.26458333,-285.37534,-102.54044)">
      <path
         style="opacity:1"
         fill="#efd9bc"
         d="m 1297.5,613.5 c -3.74,-3.204 -7.41,-6.704 -11,-10.5 -2.22,-3.467 -4.05,-3.301 -5.5,0.5 -0.17,6.846 -0.67,13.513 -1.5,20 0,-7 0,-14 0,-21 0.84,-1.141 1.51,-2.474 2,-4 0.5,-1.021 1.17,-1.188 2,-0.5 5.27,4.759 9.93,9.925 14,15.5 z"
         id="path275" />
    </g>
    <g
       id="g276"
       style="clip-rule:evenodd;fill-rule:evenodd;image-rendering:optimizeQuality;shape-rendering:geometricPrecision;text-rendering:geometricPrecision"
       transform="matrix(0.26458333,0,0,0.26458333,-285.37534,-102.54044)">
      <path
         style="opacity:1"
         fill="#9b591c"
         d="m 1254.5,616.5 c 0,0.667 -0.33,1 -1,1 0.24,-1.291 -0.1,-2.291 -1,-3 0.17,-4.346 0,-8.679 -0.5,-13 -0.29,-1.544 -0.96,-2.877 -2,-4 -3.7,3.87 -7.54,7.537 -11.5,11 2.17,-4.391 4.84,-8.391 8,-12 2.54,-0.396 4.71,0.271 6.5,2 0.83,5.977 1.33,11.977 1.5,18 z"
         id="path276" />
    </g>
    <g
       id="g282"
       style="clip-rule:evenodd;fill-rule:evenodd;image-rendering:optimizeQuality;shape-rendering:geometricPrecision;text-rendering:geometricPrecision"
       transform="matrix(0.26458333,0,0,0.26458333,-285.37534,-102.54044)">
      <path
         style="opacity:1"
         fill="#96602c"
         d="m 1279.5,602.5 c 0,7 0,14 0,21 -0.95,1.419 -1.28,3.085 -1,5 -0.33,0 -0.67,0 -1,0 0,-3.333 0,-6.667 0,-10 0.67,-5.333 1.33,-10.667 2,-16 z"
         id="path282" />
    </g>
    <g
       id="g285"
       style="clip-rule:evenodd;fill-rule:evenodd;image-rendering:optimizeQuality;shape-rendering:geometricPrecision;text-rendering:geometricPrecision"
       transform="matrix(0.26458333,0,0,0.26458333,-285.37534,-102.54044)">
      <path
         style="opacity:1"
         fill="#a2632b"
         d="m 1238.5,608.5 c -3.27,4.607 -6.93,8.941 -11,13 -1,0.667 -2,1.333 -3,2 0.4,-3.847 2.4,-6.18 6,-7 -0.17,-1.322 0.16,-2.489 1,-3.5 2.26,-1.813 4.59,-3.313 7,-4.5 z"
         id="path285" />
    </g>
    <g
       id="g286"
       style="clip-rule:evenodd;fill-rule:evenodd;image-rendering:optimizeQuality;shape-rendering:geometricPrecision;text-rendering:geometricPrecision"
       transform="matrix(0.26458333,0,0,0.26458333,-285.37534,-102.54044)">
      <path
         style="opacity:1"
         fill="#8f541e"
         d="m 1211.5,610.5 c -5.4,6.91 -11.4,13.41 -18,19.5 -0.59,0.464 -1.26,0.631 -2,0.5 4.67,-5 9.33,-10 14,-15 2,-1.667 4,-3.333 6,-5 z"
         id="path286" />
    </g>
    <g
       id="g288"
       style="clip-rule:evenodd;fill-rule:evenodd;image-rendering:optimizeQuality;shape-rendering:geometricPrecision;text-rendering:geometricPrecision"
       transform="matrix(0.26458333,0,0,0.26458333,-285.37534,-102.54044)">
      <path
         style="opacity:1"
         fill="#ef840c"
         d="m 1344.5,656.5 c -13.66,-14.996 -27.66,-29.663 -42,-44 -4.96,-6.631 -10.63,-12.631 -17,-18 -3.34,-4.175 -6.5,-8.508 -9.5,-13 -1.59,-2.15 -2.26,-4.483 -2,-7 0.72,-0.951 1.55,-1.117 2.5,-0.5 5.68,3.173 11.01,6.839 16,11 24.52,26.19 49.36,52.023 74.5,77.5 1.85,2.511 3.68,5.011 5.5,7.5 -1.12,3.621 -3.45,6.121 -7,7.5 -6.66,-7.327 -13.66,-14.327 -21,-21 z"
         id="path288" />
    </g>
    <g
       id="g289"
       style="clip-rule:evenodd;fill-rule:evenodd;image-rendering:optimizeQuality;shape-rendering:geometricPrecision;text-rendering:geometricPrecision"
       transform="matrix(0.26458333,0,0,0.26458333,-285.37534,-102.54044)">
      <path
         style="opacity:1"
         fill="#f2a44d"
         d="m 1274.5,626.5 c 0,0.333 0,0.667 0,1 0,2.667 0,5.333 0,8 0,0.667 -0.33,1 -1,1 -7.08,4.496 -11.41,10.829 -13,19 -0.33,0 -0.67,0 -1,0 -0.67,-13.347 -1.67,-26.68 -3,-40 0,-1 0,-2 0,-3 0.8,-1.689 1.8,-3.355 3,-5 1.9,4.128 4.06,8.128 6.5,12 2.44,2.947 5.27,5.28 8.5,7 z"
         id="path289" />
    </g>
    <g
       id="g290"
       style="clip-rule:evenodd;fill-rule:evenodd;image-rendering:optimizeQuality;shape-rendering:geometricPrecision;text-rendering:geometricPrecision"
       transform="matrix(0.26458333,0,0,0.26458333,-285.37534,-102.54044)">
      <path
         style="opacity:1"
         fill="#ede6db"
         d="m 1297.5,613.5 c 10.03,9.033 19.37,18.699 28,29 -9.76,-6.926 -18.43,-15.092 -26,-24.5 -3.75,-1.58 -6.75,-4.08 -9,-7.5 -1.49,-0.744 -2.99,-1.41 -4.5,-2 -1.39,1.315 -2.39,0.981 -3,-1 -0.78,3.26 -0.62,6.427 0.5,9.5 -1.94,6.611 -2.27,13.278 -1,20 -1.38,3.844 -2.04,7.844 -2,12 0.48,3.146 0.48,6.146 0,9 0.81,0.308 1.47,0.808 2,1.5 -3.69,3.822 -3.69,7.655 0,11.5 4.86,0.523 9.53,1.356 14,2.5 -5.79,0.292 -11.46,-0.375 -17,-2 -0.44,-15.979 -0.44,-31.979 0,-48 0.83,-6.487 1.33,-13.154 1.5,-20 1.45,-3.801 3.28,-3.967 5.5,-0.5 3.59,3.796 7.26,7.296 11,10.5 z"
         id="path290" />
    </g>
    <g
       id="g291"
       style="clip-rule:evenodd;fill-rule:evenodd;image-rendering:optimizeQuality;shape-rendering:geometricPrecision;text-rendering:geometricPrecision"
       transform="matrix(0.26458333,0,0,0.26458333,-285.37534,-102.54044)">
      <path
         style="opacity:1"
         fill="#97612e"
         d="m 1328.5,617.5 c 6.37,5.369 12.04,11.369 17,18 -4.91,-4.567 -9.91,-9.234 -15,-14 -1.13,-1.122 -1.8,-2.456 -2,-4 z"
         id="path291" />
    </g>
    <g
       id="g292"
       style="clip-rule:evenodd;fill-rule:evenodd;image-rendering:optimizeQuality;shape-rendering:geometricPrecision;text-rendering:geometricPrecision"
       transform="matrix(0.26458333,0,0,0.26458333,-285.37534,-102.54044)">
      <path
         style="opacity:1"
         fill="#f1e4d2"
         d="m 1321.5,602.5 c -0.91,1.238 -1.08,2.572 -0.5,4 2.41,1.791 4.91,3.457 7.5,5 2.84,2.334 4.67,5.334 5.5,9 1.49,1.504 3.32,2.337 5.5,2.5 1.48,2.643 3.48,4.81 6,6.5 1.13,2.667 2.13,5.333 3,8 -1,-0.667 -2,-1.333 -3,-2 -4.96,-6.631 -10.63,-12.631 -17,-18 -4.04,-4.04 -7.71,-8.373 -11,-13 0.68,-1.676 2.02,-2.343 4,-2 z"
         id="path292" />
    </g>
    <g
       id="g319"
       style="clip-rule:evenodd;fill-rule:evenodd;image-rendering:optimizeQuality;shape-rendering:geometricPrecision;text-rendering:geometricPrecision"
       transform="matrix(0.26458333,0,0,0.26458333,-285.37534,-102.54044)">
      <path
         style="opacity:1"
         fill="#bf8a58"
         d="m 1274.5,627.5 c 0.89,0.61 1.89,0.943 3,1 0.33,0 0.67,0 1,0 0.32,4.863 -0.01,9.53 -1,14 0.34,-3.153 0.01,-5.487 -1,-7 -0.67,0 -1.33,0 -2,0 0,-2.667 0,-5.333 0,-8 z"
         id="path319" />
    </g>
    <g
       id="g320"
       style="clip-rule:evenodd;fill-rule:evenodd;image-rendering:optimizeQuality;shape-rendering:geometricPrecision;text-rendering:geometricPrecision"
       transform="matrix(0.26458333,0,0,0.26458333,-285.37534,-102.54044)">
      <path
         style="opacity:1"
         fill="#b48d69"
         d="m 1252.5,614.5 c 0.9,0.709 1.24,1.709 1,3 1.59,7.873 2.26,15.873 2,24 -1.06,-8.85 -2.06,-17.85 -3,-27 z"
         id="path320" />
    </g>
    <g
       id="g321"
       style="clip-rule:evenodd;fill-rule:evenodd;image-rendering:optimizeQuality;shape-rendering:geometricPrecision;text-rendering:geometricPrecision"
       transform="matrix(0.26458333,0,0,0.26458333,-285.37534,-102.54044)">
      <path
         style="opacity:1"
         fill="#f3e3ce"
         d="m 1227.5,621.5 c -1.65,4.279 -4.48,7.613 -8.5,10 -0.67,1.333 -1.33,2.667 -2,4 -7.06,6.564 -14.22,12.897 -21.5,19 6.7,-6.701 13.04,-13.701 19,-21 3.67,-3 7,-6.333 10,-10 1,-0.667 2,-1.333 3,-2 z"
         id="path321" />
    </g>
    <g
       id="g322"
       style="clip-rule:evenodd;fill-rule:evenodd;image-rendering:optimizeQuality;shape-rendering:geometricPrecision;text-rendering:geometricPrecision"
       transform="matrix(0.26458333,0,0,0.26458333,-285.37534,-102.54044)">
      <path
         style="opacity:1"
         fill="#96612e"
         d="m 1345.5,635.5 c 1,0.667 2,1.333 3,2 5.39,5.39 10.39,11.056 15,17 -6.72,-5.723 -12.72,-12.056 -18,-19 z"
         id="path322" />
    </g>
    <g
       id="g325"
       style="clip-rule:evenodd;fill-rule:evenodd;image-rendering:optimizeQuality;shape-rendering:geometricPrecision;text-rendering:geometricPrecision"
       transform="matrix(0.26458333,0,0,0.26458333,-285.37534,-102.54044)">
      <path
         style="opacity:1"
         fill="#bd8049"
         d="m 1256.5,615.5 c 1.33,13.32 2.33,26.653 3,40 -0.72,-0.418 -1.22,-1.084 -1.5,-2 -0.17,6.846 -0.67,13.513 -1.5,20 -0.54,-10.659 -0.88,-21.325 -1,-32 0.26,-8.127 -0.41,-16.127 -2,-24 0.67,0 1,-0.333 1,-1 0.67,-0.333 1.33,-0.667 2,-1 z"
         id="path325" />
    </g>
    <g
       id="g326"
       style="clip-rule:evenodd;fill-rule:evenodd;image-rendering:optimizeQuality;shape-rendering:geometricPrecision;text-rendering:geometricPrecision"
       transform="matrix(0.26458333,0,0,0.26458333,-285.37534,-102.54044)">
      <path
         style="opacity:1"
         fill="#b1580a"
         d="m 1302.5,612.5 c 14.34,14.337 28.34,29.004 42,44 -1.81,0.009 -3.48,-0.491 -5,-1.5 -0.6,-2.071 -1.94,-3.238 -4,-3.5 -3.33,-2.667 -6.33,-5.667 -9,-9 -1.81,-2.954 -3.65,-5.954 -5.5,-9 -4.69,-3.688 -9.02,-7.688 -13,-12 -1.76,-3.102 -3.6,-6.102 -5.5,-9 z"
         id="path326" />
    </g>
    <g
       id="g327"
       style="clip-rule:evenodd;fill-rule:evenodd;image-rendering:optimizeQuality;shape-rendering:geometricPrecision;text-rendering:geometricPrecision"
       transform="matrix(0.26458333,0,0,0.26458333,-285.37534,-102.54044)">
      <path
         style="opacity:1"
         fill="#96571f"
         d="m 1214.5,633.5 c -5.96,7.299 -12.3,14.299 -19,21 -4,3.667 -8,7.333 -12,11 1.96,-2.97 3.96,-5.97 6,-9 1.51,-2.19 3.51,-3.524 6,-4 1.67,-2.667 3.33,-5.333 5,-8 1,0 2,0 3,0 -0.2,-1.89 0.46,-3.39 2,-4.5 3.24,-2.105 6.24,-4.272 9,-6.5 z"
         id="path327" />
    </g>
    <g
       id="g329"
       style="clip-rule:evenodd;fill-rule:evenodd;image-rendering:optimizeQuality;shape-rendering:geometricPrecision;text-rendering:geometricPrecision"
       transform="matrix(0.26458333,0,0,0.26458333,-285.37534,-102.54044)">
      <path
         style="opacity:1"
         fill="#b45a05"
         d="m 1274.5,635.5 c 0.67,0 1.33,0 2,0 -1,12.831 -1,25.497 0,38 0.89,0.61 1.89,0.943 3,1 6.54,1.327 13.21,2.66 20,4 1.97,3.049 2.47,6.382 1.5,10 -0.38,0.556 -0.88,0.889 -1.5,1 -0.11,0.617 -0.44,1.117 -1,1.5 -7.02,0.891 -14.02,1.891 -21,3 -0.97,5.741 -1.31,11.575 -1,17.5 1.27,0.979 2.6,1.979 4,3 -1.12,2.096 -2.62,2.43 -4.5,1 -0.88,2.901 -2.04,5.568 -3.5,8 -0.11,-29.007 0.23,-58.007 1,-87 0.67,0 1,-0.333 1,-1 z"
         id="path329" />
    </g>
    <g
       id="g330"
       style="clip-rule:evenodd;fill-rule:evenodd;image-rendering:optimizeQuality;shape-rendering:geometricPrecision;text-rendering:geometricPrecision"
       transform="matrix(0.26458333,0,0,0.26458333,-285.37534,-102.54044)">
      <path
         style="opacity:1"
         fill="#f0e4d4"
         d="m 1325.5,642.5 c 0.33,0 0.67,0 1,0 2.67,3.333 5.67,6.333 9,9 6.67,7.667 13.33,15.333 20,23 -1.97,-0.941 -3.97,-1.941 -6,-3 -6.11,-6.57 -12.45,-12.903 -19,-19 -1.29,-3.592 -2.95,-6.926 -5,-10 z"
         id="path330" />
    </g>
    <g
       id="g331"
       style="clip-rule:evenodd;fill-rule:evenodd;image-rendering:optimizeQuality;shape-rendering:geometricPrecision;text-rendering:geometricPrecision"
       transform="matrix(0.26458333,0,0,0.26458333,-285.37534,-102.54044)">
      <path
         style="opacity:1"
         fill="#9e5e24"
         d="m 1335.5,651.5 c 2.06,0.262 3.4,1.429 4,3.5 1.52,1.009 3.19,1.509 5,1.5 1.01,1.872 1.84,3.872 2.5,6 5.96,4.738 11.12,10.238 15.5,16.5 4.23,0.55 7.9,-0.617 11,-3.5 0.09,0.996 -0.25,1.829 -1,2.5 -3.14,3.628 -6.81,4.295 -11,2 -1.87,-2.04 -3.87,-3.873 -6,-5.5 -6.67,-7.667 -13.33,-15.333 -20,-23 z"
         id="path331" />
    </g>
    <g
       id="g332"
       style="clip-rule:evenodd;fill-rule:evenodd;image-rendering:optimizeQuality;shape-rendering:geometricPrecision;text-rendering:geometricPrecision"
       transform="matrix(0.26458333,0,0,0.26458333,-285.37534,-102.54044)">
      <path
         style="opacity:1"
         fill="#905721"
         d="m 1366.5,657.5 c 3.3,2.796 6.46,5.796 9.5,9 0.67,2.333 0.67,4.667 0,7 -0.38,0.556 -0.88,0.889 -1.5,1 0.16,-2.687 0,-5.354 -0.5,-8 -3.11,-2.601 -5.61,-5.601 -7.5,-9 z"
         id="path332" />
    </g>
    <g
       id="g334"
       style="clip-rule:evenodd;fill-rule:evenodd;image-rendering:optimizeQuality;shape-rendering:geometricPrecision;text-rendering:geometricPrecision"
       transform="matrix(0.26458333,0,0,0.26458333,-285.37534,-102.54044)">
      <path
         style="opacity:1"
         fill="#93541b"
         d="m 1277.5,642.5 c -0.8,10.312 -1.14,20.646 -1,31 -1,-12.503 -1,-25.169 0,-38 1.01,1.513 1.34,3.847 1,7 z"
         id="path334" />
    </g>
    <g
       id="g336"
       style="clip-rule:evenodd;fill-rule:evenodd;image-rendering:optimizeQuality;shape-rendering:geometricPrecision;text-rendering:geometricPrecision"
       transform="matrix(0.26458333,0,0,0.26458333,-285.37534,-102.54044)">
      <path
         style="opacity:1"
         fill="#f2e6d5"
         d="m 1252.5,614.5 c 0.94,9.15 1.94,18.15 3,27 0.12,10.675 0.46,21.341 1,32 -0.33,0 -0.67,0 -1,0 -8.16,0.811 -16.16,2.145 -24,4 0.08,-1.25 0.74,-2.083 2,-2.5 7.05,-0.768 13.55,-2.935 19.5,-6.5 0.31,-8.356 -0.52,-16.856 -2.5,-25.5 0.83,-12.819 0.83,-25.986 0,-39.5 -1.05,-0.149 -2.05,0.017 -3,0.5 -6.56,6.065 -13.22,11.898 -20,17.5 4.07,-4.059 7.73,-8.393 11,-13 3.96,-3.463 7.8,-7.13 11.5,-11 1.04,1.123 1.71,2.456 2,4 0.5,4.321 0.67,8.654 0.5,13 z"
         id="path336" />
    </g>
    <g
       id="g347"
       style="clip-rule:evenodd;fill-rule:evenodd;image-rendering:optimizeQuality;shape-rendering:geometricPrecision;text-rendering:geometricPrecision"
       transform="matrix(0.26458333,0,0,0.26458333,-285.37534,-102.54044)">
      <path
         style="opacity:1"
         fill="#b05705"
         d="m 1259.5,655.5 c 0.33,0 0.67,0 1,0 1.12,22.652 1.79,45.319 2,68 3.33,0 6.67,0 10,0 -0.11,0.617 -0.44,1.117 -1,1.5 -3.59,0.789 -7.09,0.622 -10.5,-0.5 -1.12,-9.743 -1.95,-19.41 -2.5,-29 -1,0 -2,0 -3,0 -6.69,-1.675 -13.69,-3.175 -21,-4.5 -2.96,-4.665 -2.62,-8.998 1,-13 5.91,-1.464 11.91,-2.464 18,-3 0.92,-0.278 1.58,-0.778 2,-1.5 0.33,0 0.67,0 1,0 0.83,-6.487 1.33,-13.154 1.5,-20 0.28,0.916 0.78,1.582 1.5,2 z"
         id="path347" />
    </g>
    <g
       id="g349"
       style="clip-rule:evenodd;fill-rule:evenodd;image-rendering:optimizeQuality;shape-rendering:geometricPrecision;text-rendering:geometricPrecision"
       transform="matrix(0.26458333,0,0,0.26458333,-285.37534,-102.54044)">
      <path
         style="opacity:1"
         fill="#955822"
         d="m 1191.5,630.5 c 0.16,1.373 -0.01,2.707 -0.5,4 -11.67,10.005 -22.34,21.005 -32,33 -0.67,1.667 -0.67,3.333 0,5 1.76,6.461 5.59,8.295 11.5,5.5 3.43,-5.216 7.76,-9.382 13,-12.5 -4.07,5.575 -8.73,10.741 -14,15.5 -2,0.667 -4,0.667 -6,0 -2.17,-2.167 -4.33,-4.333 -6.5,-6.5 -1.37,-2.195 -1.71,-4.529 -1,-7 11.7,-12.532 23.53,-24.865 35.5,-37 z"
         id="path349" />
    </g>
    <g
       id="g350"
       style="clip-rule:evenodd;fill-rule:evenodd;image-rendering:optimizeQuality;shape-rendering:geometricPrecision;text-rendering:geometricPrecision"
       transform="matrix(0.26458333,0,0,0.26458333,-285.37534,-102.54044)">
      <path
         style="opacity:1"
         fill="#efe3d4"
         d="m 1366.5,657.5 c 0,-0.333 0,-0.667 0,-1 4.81,1.57 9.14,3.904 13,7 0,3.667 0,7.333 0,11 -3.09,4.717 -7.42,7.717 -13,9 -3.58,-0.958 -6.91,-2.291 -10,-4 -0.13,-1.716 -0.46,-3.383 -1,-5 2.13,1.627 4.13,3.46 6,5.5 4.19,2.295 7.86,1.628 11,-2 0.75,-0.671 1.09,-1.504 1,-2.5 0.67,0 1,-0.333 1,-1 0.62,-0.111 1.12,-0.444 1.5,-1 0.67,-2.333 0.67,-4.667 0,-7 -3.04,-3.204 -6.2,-6.204 -9.5,-9 z"
         id="path350" />
    </g>
    <g
       id="g353"
       style="clip-rule:evenodd;fill-rule:evenodd;image-rendering:optimizeQuality;shape-rendering:geometricPrecision;text-rendering:geometricPrecision"
       transform="matrix(0.26458333,0,0,0.26458333,-285.37534,-102.54044)">
      <path
         style="opacity:1"
         fill="#f2e4d3"
         d="m 1205.5,615.5 c -4.67,5 -9.33,10 -14,15 -11.97,12.135 -23.8,24.468 -35.5,37 -0.71,2.471 -0.37,4.805 1,7 2.17,2.167 4.33,4.333 6.5,6.5 2,0.667 4,0.667 6,0 5.27,-4.759 9.93,-9.925 14,-15.5 4,-3.667 8,-7.333 12,-11 0.15,1.052 -0.02,2.052 -0.5,3 -3,2.667 -6,5.333 -9,8 -4.42,8.586 -10.92,14.919 -19.5,19 -2.92,-1.834 -5.92,-3.501 -9,-5 -3.23,-2.714 -4.89,-6.214 -5,-10.5 1.24,-3.215 2.57,-6.382 4,-9.5 1.43,0.079 2.76,-0.254 4,-1 6.28,-5.944 12.61,-11.944 19,-18 2.49,-2.155 4.16,-4.822 5,-8 4.35,-4.977 9.35,-9.31 15,-13 0.51,-1.725 1.18,-3.392 2,-5 1.24,0.746 2.57,1.079 4,1 z"
         id="path353" />
    </g>
    <g
       id="g355"
       style="clip-rule:evenodd;fill-rule:evenodd;image-rendering:optimizeQuality;shape-rendering:geometricPrecision;text-rendering:geometricPrecision"
       transform="matrix(0.26458333,0,0,0.26458333,-285.37534,-102.54044)">
      <path
         style="opacity:1"
         fill="#9a5f28"
         d="m 1255.5,673.5 c -0.42,0.722 -1.08,1.222 -2,1.5 -6.09,0.536 -12.09,1.536 -18,3 -3.62,4.002 -3.96,8.335 -1,13 7.31,1.325 14.31,2.825 21,4.5 -7.69,-0.569 -15.36,-1.402 -23,-2.5 -0.5,-0.5 -1,-1 -1.5,-1.5 -0.77,-4.752 -0.61,-9.419 0.5,-14 7.84,-1.855 15.84,-3.189 24,-4 z"
         id="path355" />
    </g>
    <g
       id="g357"
       style="clip-rule:evenodd;fill-rule:evenodd;image-rendering:optimizeQuality;shape-rendering:geometricPrecision;text-rendering:geometricPrecision"
       transform="matrix(0.26458333,0,0,0.26458333,-285.37534,-102.54044)">
      <path
         style="opacity:1"
         fill="#a2642c"
         d="m 1279.5,674.5 c 7.38,0.372 14.72,1.205 22,2.5 0.5,0.5 1,1 1.5,1.5 0.67,4.333 0.67,8.667 0,13 -0.5,0.5 -1,1 -1.5,1.5 -7.67,1.009 -15.33,1.842 -23,2.5 -0.99,5.292 -1.33,10.625 -1,16 -0.33,0 -0.67,0 -1,0 -0.31,-5.925 0.03,-11.759 1,-17.5 6.98,-1.109 13.98,-2.109 21,-3 0.56,-0.383 0.89,-0.883 1,-1.5 0.62,-0.111 1.12,-0.444 1.5,-1 0.97,-3.618 0.47,-6.951 -1.5,-10 -6.79,-1.34 -13.46,-2.673 -20,-4 z"
         id="path357" />
    </g>
    <g
       id="g383"
       style="clip-rule:evenodd;fill-rule:evenodd;image-rendering:optimizeQuality;shape-rendering:geometricPrecision;text-rendering:geometricPrecision"
       transform="matrix(0.26458333,0,0,0.26458333,-285.37534,-102.54044)">
      <path
         style="opacity:1"
         fill="#f2860a"
         d="m 1273.5,636.5 c -0.77,28.993 -1.11,57.993 -1,87 -3.33,0 -6.67,0 -10,0 -0.21,-22.681 -0.88,-45.348 -2,-68 1.59,-8.171 5.92,-14.504 13,-19 z"
         id="path383" />
    </g>
    <g
       id="g397"
       style="clip-rule:evenodd;fill-rule:evenodd;image-rendering:optimizeQuality;shape-rendering:geometricPrecision;text-rendering:geometricPrecision"
       transform="matrix(0.26458333,0,0,0.26458333,-285.37534,-102.54044)">
      <path
         style="opacity:1"
         fill="#a15a19"
         d="m 1258.5,695.5 c 0.55,9.59 1.38,19.257 2.5,29 3.41,1.122 6.91,1.289 10.5,0.5 0.56,-0.383 0.89,-0.883 1,-1.5 1.46,-2.432 2.62,-5.099 3.5,-8 1.88,1.43 3.38,1.096 4.5,-1 -1.4,-1.021 -2.73,-2.021 -4,-3 0.33,0 0.67,0 1,0 0.33,0 0.67,0 1,0 0.48,-4.07 1.48,-8.07 3,-12 1.17,9.983 1.33,19.983 0.5,30 -0.33,0.333 -0.67,0.667 -1,1 -0.18,-3.856 -0.68,-7.523 -1.5,-11 -1,0 -2,0 -3,0 0.45,2.865 -0.22,5.365 -2,7.5 -4.33,0.667 -8.67,0.667 -13,0 -0.83,-0.833 -1.67,-1.667 -2.5,-2.5 -0.5,-9.661 -0.67,-19.328 -0.5,-29 z"
         id="path397" />
    </g>
    <g
       id="g398"
       style="clip-rule:evenodd;fill-rule:evenodd;image-rendering:optimizeQuality;shape-rendering:geometricPrecision;text-rendering:geometricPrecision"
       transform="matrix(0.26458333,0,0,0.26458333,-285.37534,-102.54044)">
      <path
         style="opacity:1"
         fill="#8e5927"
         d="m 1279.5,719.5 c 0.82,3.477 1.32,7.144 1.5,11 0.33,-0.333 0.67,-0.667 1,-1 0.83,-10.017 0.67,-20.017 -0.5,-30 -1.52,3.93 -2.52,7.93 -3,12 -0.17,-4.346 0,-8.679 0.5,-13 1.36,-0.88 2.86,-1.214 4.5,-1 0,12.333 0,24.667 0,37 -1.33,0 -2.67,0 -4,0 0,-5 0,-10 0,-15 z"
         id="path398" />
    </g>
    <g
       id="g399"
       style="clip-rule:evenodd;fill-rule:evenodd;image-rendering:optimizeQuality;shape-rendering:geometricPrecision;text-rendering:geometricPrecision"
       transform="matrix(0.26458333,0,0,0.26458333,-285.37534,-102.54044)">
      <path
         style="opacity:1"
         fill="#ed840e"
         d="m 1247.5,677.5 c 3.33,0 6.67,0 10,0 0,4.667 0,9.333 0,14 -7.57,-0.441 -15.07,-1.107 -22.5,-2 -0.78,-3.26 -0.62,-6.427 0.5,-9.5 4.24,-0.335 8.24,-1.168 12,-2.5 z"
         id="path399" />
    </g>
    <g
       id="g400"
       style="clip-rule:evenodd;fill-rule:evenodd;image-rendering:optimizeQuality;shape-rendering:geometricPrecision;text-rendering:geometricPrecision"
       transform="matrix(0.26458333,0,0,0.26458333,-285.37534,-102.54044)">
      <path
         style="opacity:1"
         fill="#ef850e"
         d="m 1299.5,689.5 c -7.68,0.479 -15.35,1.145 -23,2 0,-4.667 0,-9.333 0,-14 7.71,0.72 15.37,1.72 23,3 0,3 0,6 0,9 z"
         id="path400" />
    </g>
  </g>
</svg>
