<?xml version="1.0" encoding="UTF-8" standalone="no"?>
<!-- Created with Inkscape (http://www.inkscape.org/) -->

<svg
   width="96mm"
   height="96mm"
   viewBox="0 0 96 96"
   version="1.1"
   id="svg1"
   inkscape:version="1.4.2 (ebf0e940, 2025-05-08)"
   sodipodi:docname="trailer.svg"
   xmlns:inkscape="http://www.inkscape.org/namespaces/inkscape"
   xmlns:sodipodi="http://sodipodi.sourceforge.net/DTD/sodipodi-0.dtd"
   xmlns="http://www.w3.org/2000/svg"
   xmlns:svg="http://www.w3.org/2000/svg">
  <sodipodi:namedview
     id="namedview1"
     pagecolor="#ffffff"
     bordercolor="#000000"
     borderopacity="0.25"
     inkscape:showpageshadow="2"
     inkscape:pageopacity="0.0"
     inkscape:pagecheckerboard="0"
     inkscape:deskcolor="#d1d1d1"
     inkscape:document-units="mm"
     inkscape:zoom="0.80444024"
     inkscape:cx="397.17059"
     inkscape:cy="262.91574"
     inkscape:window-width="1920"
     inkscape:window-height="1052"
     inkscape:window-x="0"
     inkscape:window-y="28"
     inkscape:window-maximized="0"
     inkscape:current-layer="layer1" />
  <defs
     id="defs1" />
  <g
     inkscape:label="Layer 1"
     inkscape:groupmode="layer"
     id="layer1">
    <g
       id="g18"
       style="clip-rule:evenodd;fill-rule:evenodd;image-rendering:optimizeQuality;shape-rendering:geometricPrecision;text-rendering:geometricPrecision"
       transform="matrix(0.32484048,0,0,0.32484048,-341.99384,-10.160597)">
      <path
         style="opacity:1"
         fill="#f9f1db"
         d="m 1275.5,225.5 c -1.37,-1.012 -2.7,-2.012 -4,-3 -2.79,-0.977 -5.79,-1.31 -9,-1 0.33,-38.17 0,-76.17 -1,-114 -0.42,-2.41 -1.75,-4.243 -4,-5.5 -9.02,-0.168 -18.02,-0.668 -27,-1.5 -0.36,-1.0223 -1.02,-1.689 -2,-2 -5.24,-10.4249 -10.74,-20.7582 -16.5,-31 -0.33,-4 -0.67,-8 -1,-12 -3.8,-4.2799 -7.97,-4.9465 -12.5,-2 -0.96,0.4528 -1.79,1.1195 -2.5,2 -0.5,3.9862 -0.67,7.9862 -0.5,12 -0.61,0.891 -0.94,1.891 -1,3 -1.24,1.4649 -2.24,3.1316 -3,5 -3.5,5.0016 -6.5,10.335 -9,16 -2.5,2.9937 -4.5,6.327 -6,10 -9.34,-0.166 -18.67,0 -28,0.5 -0.56,0.383 -0.89,0.883 -1,1.5 -1.1,1.105 -1.77,2.438 -2,4 -1,37.83 -1.33,75.83 -1,114 -3.21,-0.31 -6.21,0.023 -9,1 -2.95,0.859 -4.79,2.859 -5.5,6 -0.5,14.663 -0.67,29.33 -0.5,44 -1.16,-14.828 -1.33,-29.828 -0.5,-45 0.65,-2.508 1.82,-4.674 3.5,-6.5 3.65,-0.499 7.32,-0.665 11,-0.5 -0.17,-38.001 0,-76.001 0.5,-114 0.29,-2.431 1.46,-4.264 3.5,-5.5 9.02,-0.168 18.02,-0.668 27,-1.5 4.5,-10.2989 9.66,-20.2989 15.5,-30 1.79,-5.5249 2.96,-11.1916 3.5,-17 1.8,-0.6368 3.14,-1.8035 4,-3.5 4,-0.6667 8,-0.6667 12,0 1.5,0.8333 2.67,2 3.5,3.5 1,4.9535 1.66,9.9535 2,15 1.87,2.3082 2.87,4.9749 3,8 3.46,2.9255 6.46,6.2588 9,10 -0.39,4.3757 1.28,7.709 5,10 0.48,0.948 0.65,1.948 0.5,3 8.55,0.2602 17.05,0.2602 25.5,0 3.25,1.54 5.75,3.873 7.5,7 -0.21,0.586 -0.54,1.086 -1,1.5 1.52,2.355 2.19,4.688 2,7 -0.76,5.128 -1.26,10.295 -1.5,15.5 -0.68,29.834 -0.52,59.501 0.5,89 2.79,0.697 5.46,1.697 8,3 1.35,1.024 2.02,2.357 2,4 z"
         id="path18" />
    </g>
    <g
       id="g19"
       style="clip-rule:evenodd;fill-rule:evenodd;image-rendering:optimizeQuality;shape-rendering:geometricPrecision;text-rendering:geometricPrecision"
       transform="matrix(0.32484048,0,0,0.32484048,-341.99384,-10.160597)">
      <path
         style="opacity:1"
         fill="#bb6608"
         d="m 1213.5,78.5 c -5.37,-5.7797 -7.54,-12.7797 -6.5,-21 -1.79,-1.729 -3.96,-2.3957 -6.5,-2 3.17,-2.6263 6.34,-2.293 9.5,1 0.33,4.6667 0.67,9.3333 1,14 2.02,2.2693 2.86,4.9359 2.5,8 z"
         id="path19" />
    </g>
    <g
       id="g20"
       style="clip-rule:evenodd;fill-rule:evenodd;image-rendering:optimizeQuality;shape-rendering:geometricPrecision;text-rendering:geometricPrecision"
       transform="matrix(0.32484048,0,0,0.32484048,-341.99384,-10.160597)">
      <path
         style="opacity:1"
         fill="#c0915a"
         d="m 1198.5,53.5 c -1.47,4.6103 -2.47,9.277 -3,14 -0.17,-4.0138 0,-8.0138 0.5,-12 0.71,-0.8805 1.54,-1.5472 2.5,-2 z"
         id="path20" />
    </g>
    <g
       id="g28"
       style="clip-rule:evenodd;fill-rule:evenodd;image-rendering:optimizeQuality;shape-rendering:geometricPrecision;text-rendering:geometricPrecision"
       transform="matrix(0.32484048,0,0,0.32484048,-341.99384,-10.160597)">
      <path
         style="opacity:1"
         fill="#bd680d"
         d="m 1199.5,57.5 c 0.17,4.3461 0,8.6794 -0.5,13 -5.86,9.2546 -11.52,18.5879 -17,28 -0.49,1.2932 -0.66,2.627 -0.5,4 1.79,0.285 3.45,-0.048 5,-1 4.92,-10.1953 10.59,-19.862 17,-29 6.89,8.9052 12.56,18.5718 17,29 1.55,0.952 3.21,1.285 5,1 -0.33,-2 -0.67,-4 -1,-6 1.33,0.6667 2.67,1.3333 4,2 -0.14,1.762 0.19,3.429 1,5 -0.74,0.682 -1.41,1.349 -2,2 -1.67,0 -3.33,0 -5,0 -1.07,-0.934 -2.4,-1.268 -4,-1 0.16,-1.699 -0.01,-3.366 -0.5,-5 -1.1,-2.7533 -2.94,-4.7533 -5.5,-6 -2.77,-4.0172 -5.43,-8.1839 -8,-12.5 -0.67,-0.6667 -1.33,-0.6667 -2,0 -0.99,2.167 -2.32,4.0003 -4,5.5 -0.88,-0.1309 -1.54,0.2025 -2,1 -2.28,4.2344 -4.28,8.5678 -6,13 0.21,1.494 0.88,2.661 2,3.5 -0.56,0.383 -0.89,0.883 -1,1.5 -5,0 -10,0 -15,0 0.17,-0.992 -0.16,-1.658 -1,-2 0,-0.333 0,-0.667 0,-1 0.67,0 1,-0.333 1,-1 3.5,-2.3092 5.5,-5.6426 6,-10 3.19,-2.6742 5.69,-6.0076 7.5,-10 1.13,-1.8453 1.63,-3.8453 1.5,-6 0.76,-1.8684 1.76,-3.5351 3,-5 0.96,-0.4528 1.79,-1.1195 2.5,-2 -0.09,-4.1327 0.74,-7.7994 2.5,-11 z"
         id="path28" />
    </g>
    <g
       id="g31"
       style="clip-rule:evenodd;fill-rule:evenodd;image-rendering:optimizeQuality;shape-rendering:geometricPrecision;text-rendering:geometricPrecision"
       transform="matrix(0.32484048,0,0,0.32484048,-341.99384,-10.160597)">
      <path
         style="opacity:1"
         fill="#b07433"
         d="m 1191.5,75.5 c 0.13,2.1547 -0.37,4.1547 -1.5,6 -1.81,3.9924 -4.31,7.3258 -7.5,10 2.5,-5.665 5.5,-10.9984 9,-16 z"
         id="path31" />
    </g>
    <g
       id="g34"
       style="clip-rule:evenodd;fill-rule:evenodd;image-rendering:optimizeQuality;shape-rendering:geometricPrecision;text-rendering:geometricPrecision"
       transform="matrix(0.32484048,0,0,0.32484048,-341.99384,-10.160597)">
      <path
         style="opacity:1"
         fill="#b2691e"
         d="m 1228.5,98.5 c -1.33,-0.6667 -2.67,-1.3333 -4,-2 -4.15,-5.6116 -7.81,-11.6116 -11,-18 0.36,-3.0641 -0.48,-5.7307 -2.5,-8 -0.33,-4.6667 -0.67,-9.3333 -1,-14 -3.16,-3.293 -6.33,-3.6263 -9.5,-1 -0.84,0.3417 -1.17,1.0084 -1,2 -1.76,3.2006 -2.59,6.8673 -2.5,11 -0.71,0.8805 -1.54,1.5472 -2.5,2 0.06,-1.109 0.39,-2.109 1,-3 0.53,-4.723 1.53,-9.3897 3,-14 4.53,-2.9465 8.7,-2.2799 12.5,2 0.33,4 0.67,8 1,12 5.76,10.2418 11.26,20.5751 16.5,31 z"
         id="path34" />
    </g>
    <g
       id="g43"
       style="clip-rule:evenodd;fill-rule:evenodd;image-rendering:optimizeQuality;shape-rendering:geometricPrecision;text-rendering:geometricPrecision"
       transform="matrix(0.32484048,0,0,0.32484048,-341.99384,-10.160597)">
      <path
         style="opacity:1"
         fill="#e5840f"
         d="m 1200.5,55.5 c 2.54,-0.3957 4.71,0.271 6.5,2 -1.04,8.2203 1.13,15.2203 6.5,21 3.19,6.3884 6.85,12.3884 11,18 0.33,2 0.67,4 1,6 -1.79,0.285 -3.45,-0.048 -5,-1 -4.44,-10.4282 -10.11,-20.0948 -17,-29 -6.41,9.138 -12.08,18.8047 -17,29 -1.55,0.952 -3.21,1.285 -5,1 -0.16,-1.373 0.01,-2.7068 0.5,-4 5.48,-9.4121 11.14,-18.7454 17,-28 0.5,-4.3206 0.67,-8.6539 0.5,-13 -0.17,-0.9916 0.16,-1.6583 1,-2 z"
         id="path43" />
    </g>
    <g
       id="g44"
       style="clip-rule:evenodd;fill-rule:evenodd;image-rendering:optimizeQuality;shape-rendering:geometricPrecision;text-rendering:geometricPrecision"
       transform="matrix(0.32484048,0,0,0.32484048,-341.99384,-10.160597)">
      <path
         style="opacity:1"
         fill="#f9efd7"
         d="m 1212.5,93.5 c 0.74,2.4798 1.74,4.8131 3,7 -7.82,0.992 -15.82,1.326 -24,1 2.59,-4.8489 4.92,-9.8489 7,-15 1.68,-1.4997 3.01,-3.333 4,-5.5 0.67,-0.6667 1.33,-0.6667 2,0 2.57,4.3161 5.23,8.4828 8,12.5 z"
         id="path44" />
    </g>
    <g
       id="g45"
       style="clip-rule:evenodd;fill-rule:evenodd;image-rendering:optimizeQuality;shape-rendering:geometricPrecision;text-rendering:geometricPrecision"
       transform="matrix(0.32484048,0,0,0.32484048,-341.99384,-10.160597)">
      <path
         style="opacity:1"
         fill="#faf9f7"
         d="m 1202.5,87.5 c 1.83,1.2945 3.83,2.2945 6,3 0.99,2.993 1.99,5.993 3,9 -4.67,0 -9.33,0 -14,0 -0.16,-1.3734 0.01,-2.7068 0.5,-4 2.28,-2.2357 3.78,-4.9024 4.5,-8 z"
         id="path45" />
    </g>
    <g
       id="g50"
       style="clip-rule:evenodd;fill-rule:evenodd;image-rendering:optimizeQuality;shape-rendering:geometricPrecision;text-rendering:geometricPrecision"
       transform="matrix(0.32484048,0,0,0.32484048,-341.99384,-10.160597)">
      <path
         style="opacity:1"
         fill="#b57e40"
         d="m 1182.5,91.5 c -0.5,4.3574 -2.5,7.6908 -6,10 1.5,-3.673 3.5,-7.0063 6,-10 z"
         id="path50" />
    </g>
    <g
       id="g52"
       style="clip-rule:evenodd;fill-rule:evenodd;image-rendering:optimizeQuality;shape-rendering:geometricPrecision;text-rendering:geometricPrecision"
       transform="matrix(0.32484048,0,0,0.32484048,-341.99384,-10.160597)">
      <path
         style="opacity:1"
         fill="#d4ad81"
         d="m 1176.5,101.5 c 0,0.667 -0.33,1 -1,1 -9.39,-0.28 -18.72,0.053 -28,1 0.11,-0.617 0.44,-1.117 1,-1.5 9.33,-0.5 18.66,-0.666 28,-0.5 z"
         id="path52" />
    </g>
    <g
       id="g55"
       style="clip-rule:evenodd;fill-rule:evenodd;image-rendering:optimizeQuality;shape-rendering:geometricPrecision;text-rendering:geometricPrecision"
       transform="matrix(0.32484048,0,0,0.32484048,-341.99384,-10.160597)">
      <path
         style="opacity:1"
         fill="#aa661e"
         d="m 1198.5,86.5 c -2.08,5.1511 -4.41,10.1511 -7,15 8.18,1.321 16.51,1.321 25,0 -0.12,-0.607 -0.46,-0.94 -1,-1 -1.26,-2.1869 -2.26,-4.5202 -3,-7 2.56,1.2467 4.4,3.2467 5.5,6 0.49,1.634 0.66,3.301 0.5,5 1.6,-0.268 2.93,0.066 4,1 -10.33,0 -20.67,0 -31,0 0.11,-0.617 0.44,-1.117 1,-1.5 -1.12,-0.839 -1.79,-2.006 -2,-3.5 1.72,-4.4322 3.72,-8.7656 6,-13 0.46,-0.7975 1.12,-1.1309 2,-1 z"
         id="path55" />
    </g>
    <g
       id="g56"
       style="clip-rule:evenodd;fill-rule:evenodd;image-rendering:optimizeQuality;shape-rendering:geometricPrecision;text-rendering:geometricPrecision"
       transform="matrix(0.32484048,0,0,0.32484048,-341.99384,-10.160597)">
      <path
         style="opacity:1"
         fill="#cb9e6a"
         d="m 1215.5,100.5 c 0.54,0.06 0.88,0.393 1,1 -8.49,1.321 -16.82,1.321 -25,0 8.18,0.326 16.18,-0.008 24,-1 z"
         id="path56" />
    </g>
    <g
       id="g66"
       style="clip-rule:evenodd;fill-rule:evenodd;image-rendering:optimizeQuality;shape-rendering:geometricPrecision;text-rendering:geometricPrecision"
       transform="matrix(0.32484048,0,0,0.32484048,-341.99384,-10.160597)">
      <path
         style="opacity:1"
         fill="#b06d1f"
         d="m 1258.5,107.5 c 0.79,1.109 1.29,2.442 1.5,4 0.17,36.502 0.67,72.836 1.5,109 0,0.667 0,1.333 0,2 -0.89,-0.61 -1.89,-0.943 -3,-1 0,-38 0,-76 0,-114 z"
         id="path66" />
    </g>
    <g
       id="g72"
       style="clip-rule:evenodd;fill-rule:evenodd;image-rendering:optimizeQuality;shape-rendering:geometricPrecision;text-rendering:geometricPrecision"
       transform="matrix(0.32484048,0,0,0.32484048,-341.99384,-10.160597)">
      <path
         style="opacity:1"
         fill="#e0be93"
         d="m 1145.5,107.5 c 0,37.667 0,75.333 0,113 0,0.667 0,1.333 0,2 -3.33,0 -6.67,0 -10,0 2.79,-0.977 5.79,-1.31 9,-1 -0.33,-38.17 0,-76.17 1,-114 z"
         id="path72" />
    </g>
    <g
       id="g77"
       style="clip-rule:evenodd;fill-rule:evenodd;image-rendering:optimizeQuality;shape-rendering:geometricPrecision;text-rendering:geometricPrecision"
       transform="matrix(0.32484048,0,0,0.32484048,-341.99384,-10.160597)">
      <path
         style="opacity:1"
         fill="#f5ba6a"
         d="m 1176.5,105.5 c 5,0 10,0 15,0 10.33,0 20.67,0 31,0 1.67,0 3.33,0 5,0 9.67,-0.166 19.34,0 29,0.5 0.54,0.717 1.21,1.217 2,1.5 0,38 0,76 0,114 0,18.667 0,37.333 0,56 0.59,8.603 -0.08,16.936 -2,25 -35.67,0.167 -71.33,0 -107,-0.5 -0.98,-7.413 -1.31,-14.913 -1,-22.5 0,-18 0,-36 0,-54 -0.17,-39.335 0,-78.668 0.5,-118 0.5,-0.5 1,-1 1.5,-1.5 8.66,-0.5 17.33,-0.666 26,-0.5 z"
         id="path77" />
    </g>
    <g
       id="g78"
       style="clip-rule:evenodd;fill-rule:evenodd;image-rendering:optimizeQuality;shape-rendering:geometricPrecision;text-rendering:geometricPrecision"
       transform="matrix(0.32484048,0,0,0.32484048,-341.99384,-10.160597)">
      <path
         style="opacity:1"
         fill="#f2a847"
         d="m 1252.5,110.5 c 1.17,62.165 1.33,124.499 0.5,187 -32.93,1.332 -65.76,1.332 -98.5,0 31,0.167 62,0 93,-0.5 2.41,-0.057 3.74,-1.224 4,-3.5 1,-60.831 1.33,-121.831 1,-183 z"
         id="path78" />
    </g>
    <g
       id="g84"
       style="clip-rule:evenodd;fill-rule:evenodd;image-rendering:optimizeQuality;shape-rendering:geometricPrecision;text-rendering:geometricPrecision"
       transform="matrix(0.32484048,0,0,0.32484048,-341.99384,-10.160597)">
      <path
         style="opacity:1"
         fill="#b27b3c"
         d="m 1228.5,98.5 c 0.98,0.311 1.64,0.9777 2,2 8.98,0.832 17.98,1.332 27,1.5 2.25,1.257 3.58,3.09 4,5.5 0,37.667 0,75.333 0,113 -0.83,-36.164 -1.33,-72.498 -1.5,-109 -0.21,-1.558 -0.71,-2.891 -1.5,-4 -0.79,-0.283 -1.46,-0.783 -2,-1.5 -9.66,-0.5 -19.33,-0.666 -29,-0.5 0.59,-0.651 1.26,-1.318 2,-2 -0.81,-1.571 -1.14,-3.238 -1,-5 z"
         id="path84" />
    </g>
    <g
       id="g86"
       style="clip-rule:evenodd;fill-rule:evenodd;image-rendering:optimizeQuality;shape-rendering:geometricPrecision;text-rendering:geometricPrecision"
       transform="matrix(0.32484048,0,0,0.32484048,-341.99384,-10.160597)">
      <path
         style="opacity:1"
         fill="#e2c294"
         d="m 1261.5,107.5 c 1,37.83 1.33,75.83 1,114 3.21,-0.31 6.21,0.023 9,1 -2,0 -4,0 -6,0 -1.33,0 -2.67,0 -4,0 0,-0.667 0,-1.333 0,-2 0,-37.667 0,-75.333 0,-113 z"
         id="path86" />
    </g>
    <g
       id="g105"
       style="clip-rule:evenodd;fill-rule:evenodd;image-rendering:optimizeQuality;shape-rendering:geometricPrecision;text-rendering:geometricPrecision"
       transform="matrix(0.32484048,0,0,0.32484048,-341.99384,-10.160597)">
      <path
         style="opacity:1"
         fill="#e28b1c"
         d="m 1252.5,110.5 c 0.33,61.169 0,122.169 -1,183 -0.26,2.276 -1.59,3.443 -4,3.5 -31,0.5 -62,0.667 -93,0.5 0,-0.333 0,-0.667 0,-1 -0.33,-61.708 0,-123.375 1,-185 32.33,-1 64.66,-1.333 97,-1 z"
         id="path105" />
    </g>
    <g
       id="g106"
       style="clip-rule:evenodd;fill-rule:evenodd;image-rendering:optimizeQuality;shape-rendering:geometricPrecision;text-rendering:geometricPrecision"
       transform="matrix(0.32484048,0,0,0.32484048,-341.99384,-10.160597)">
      <path
         style="opacity:1"
         fill="#f38800"
         d="m 1201.5,111.5 c 8.82,0.83 17.82,1.33 27,1.5 -1.2,0.654 -1.2,1.154 0,1.5 6.47,-0.535 12.97,-0.535 19.5,0 1.08,4.357 1.25,8.691 0.5,13 0.35,1.286 1.02,2.119 2,2.5 -0.18,2.39 -0.18,4.724 0,7 -2.67,1 -2.67,2 0,3 -0.57,8.624 -0.57,17.791 0,27.5 -0.17,5.667 -0.33,11.333 -0.5,17 -0.5,1.167 -1.33,2 -2.5,2.5 0.17,1.837 0.83,3.837 2,6 -0.86,0.689 -1.52,1.522 -2,2.5 1.27,2.886 1.94,6.053 2,9.5 -1.19,1.019 -2.19,2.186 -3,3.5 1.03,-0.204 2.03,0.296 3,1.5 0.56,1.566 -0.11,2.899 -2,4 0.79,1.085 1.46,2.252 2,3.5 -0.1,2.493 -0.43,4.993 -1,7.5 1.01,3.98 1.68,7.813 2,11.5 -0.67,1 -1.33,2 -2,3 2.56,5.757 2.56,11.424 0,17 0.13,2.584 0.47,5.084 1,7.5 -1.07,0.739 -1.74,1.739 -2,3 1.33,2 1.33,4 0,6 0.44,1.762 0.94,1.595 1.5,-0.5 1.85,1.73 1.69,2.896 -0.5,3.5 2.26,2.182 2.26,4.515 0,7 0.69,1.921 1.02,3.755 1,5.5 -1.58,0.798 -3.24,1.298 -5,1.5 0.45,1.612 1.79,2.612 4,3 -0.53,0.692 -1.19,1.192 -2,1.5 -2.03,-0.027 -4.03,-0.027 -6,0 -25.65,0.743 -51.32,1.076 -77,1 -3.24,-0.79 -5.41,-2.79 -6.5,-6 -1.49,-58.659 -1.82,-117.326 -1,-176 1.4,-0.727 2.9,-1.227 4.5,-1.5 13.66,-0.5 27.33,-0.667 41,-0.5 z"
         id="path106" />
    </g>
    <g
       id="g128"
       style="clip-rule:evenodd;fill-rule:evenodd;image-rendering:optimizeQuality;shape-rendering:geometricPrecision;text-rendering:geometricPrecision"
       transform="matrix(0.32484048,0,0,0.32484048,-341.99384,-10.160597)">
      <path
         style="opacity:1"
         fill="#a16a31"
         d="m 1175.5,102.5 c 0,0.333 0,0.667 0,1 -7.01,-0.166 -14.01,0 -21,0.5 -2.73,0.21 -5.23,1.044 -7.5,2.5 -0.17,38.169 -0.67,76.169 -1.5,114 0,-37.667 0,-75.333 0,-113 0.23,-1.562 0.9,-2.895 2,-4 9.28,-0.947 18.61,-1.28 28,-1 z"
         id="path128" />
    </g>
    <g
       id="g129"
       style="clip-rule:evenodd;fill-rule:evenodd;image-rendering:optimizeQuality;shape-rendering:geometricPrecision;text-rendering:geometricPrecision"
       transform="matrix(0.32484048,0,0,0.32484048,-341.99384,-10.160597)">
      <path
         style="opacity:1"
         fill="#ad691e"
         d="m 1175.5,103.5 c 0.84,0.342 1.17,1.008 1,2 -8.67,-0.166 -17.34,0 -26,0.5 -0.5,0.5 -1,1 -1.5,1.5 -0.5,39.332 -0.67,78.665 -0.5,118 -0.6,-1.4 -1.6,-2.4 -3,-3 0,-0.667 0,-1.333 0,-2 0.83,-37.831 1.33,-75.831 1.5,-114 2.27,-1.456 4.77,-2.29 7.5,-2.5 6.99,-0.5 13.99,-0.666 21,-0.5 z"
         id="path129" />
    </g>
    <g
       id="g143"
       style="clip-rule:evenodd;fill-rule:evenodd;image-rendering:optimizeQuality;shape-rendering:geometricPrecision;text-rendering:geometricPrecision"
       transform="matrix(0.32484048,0,0,0.32484048,-341.99384,-10.160597)">
      <path
         style="opacity:1"
         fill="#f8b150"
         d="m 1252.5,110.5 c -32.34,-0.333 -64.67,0 -97,1 -1,61.625 -1.33,123.292 -1,185 -1.17,-61.832 -1.33,-123.832 -0.5,-186 32.93,-1.332 65.76,-1.332 98.5,0 z"
         id="path143" />
    </g>
    <g
       id="g172"
       style="clip-rule:evenodd;fill-rule:evenodd;image-rendering:optimizeQuality;shape-rendering:geometricPrecision;text-rendering:geometricPrecision"
       transform="matrix(0.32484048,0,0,0.32484048,-341.99384,-10.160597)">
      <path
         style="opacity:1"
         fill="#b2793a"
         d="m 1135.5,222.5 c 3.33,0 6.67,0 10,0 -2.81,0.819 -5.81,1.319 -9,1.5 -1.08,0.956 -2.25,1.789 -3.5,2.5 -1.14,7.901 -1.64,15.901 -1.5,24 -0.12,8.406 0.38,16.739 1.5,25 0.83,0.833 1.67,1.667 2.5,2.5 3.53,0.179 6.86,0.679 10,1.5 -3.68,0.165 -7.35,-10e-4 -11,-0.5 -1.57,-1.397 -2.9,-2.897 -4,-4.5 -0.84,-0.342 -1.17,-1.008 -1,-2 -0.17,-14.67 0,-29.337 0.5,-44 0.71,-3.141 2.55,-5.141 5.5,-6 z"
         id="path172" />
    </g>
    <g
       id="g180"
       style="clip-rule:evenodd;fill-rule:evenodd;image-rendering:optimizeQuality;shape-rendering:geometricPrecision;text-rendering:geometricPrecision"
       transform="matrix(0.32484048,0,0,0.32484048,-341.99384,-10.160597)">
      <path
         style="opacity:1"
         fill="#df7d0c"
         d="m 1272.5,275.5 c -0.99,-0.172 -1.66,0.162 -2,1 -3.33,0 -6.67,0 -10,0 -0.17,-16.67 0,-33.337 0.5,-50 3.69,-1.517 7.19,-1.184 10.5,1 1,15.986 1.33,31.986 1,48 z"
         id="path180" />
    </g>
    <g
       id="g181"
       style="clip-rule:evenodd;fill-rule:evenodd;image-rendering:optimizeQuality;shape-rendering:geometricPrecision;text-rendering:geometricPrecision"
       transform="matrix(0.32484048,0,0,0.32484048,-341.99384,-10.160597)">
      <path
         style="opacity:1"
         fill="#be6708"
         d="m 1258.5,221.5 c 1.11,0.057 2.11,0.39 3,1 1.33,0 2.67,0 4,0 3.1,0.542 5.94,1.876 8.5,4 0.67,15.333 0.67,30.667 0,46 -0.23,1.237 -0.73,2.237 -1.5,3 0.33,-16.014 0,-32.014 -1,-48 -3.31,-2.184 -6.81,-2.517 -10.5,-1 -0.5,16.663 -0.67,33.33 -0.5,50 3.33,0 6.67,0 10,0 -3.8,0.983 -7.8,1.317 -12,1 0,-18.667 0,-37.333 0,-56 z"
         id="path181" />
    </g>
    <g
       id="g187"
       style="clip-rule:evenodd;fill-rule:evenodd;image-rendering:optimizeQuality;shape-rendering:geometricPrecision;text-rendering:geometricPrecision"
       transform="matrix(0.32484048,0,0,0.32484048,-341.99384,-10.160597)">
      <path
         style="opacity:1"
         fill="#f28a07"
         d="m 1263.5,227.5 c 2.71,0.075 5.37,0.408 8,1 0.33,15.348 0,30.681 -1,46 -2.92,0.907 -5.92,1.24 -9,1 -0.17,-15.337 0,-30.67 0.5,-46 0.72,-0.544 1.22,-1.211 1.5,-2 z"
         id="path187" />
    </g>
    <g
       id="g197"
       style="clip-rule:evenodd;fill-rule:evenodd;image-rendering:optimizeQuality;shape-rendering:geometricPrecision;text-rendering:geometricPrecision"
       transform="matrix(0.32484048,0,0,0.32484048,-341.99384,-10.160597)">
      <path
         style="opacity:1"
         fill="#eb8909"
         d="m 1201.5,111.5 c 16.69,-0.275 33.36,0.059 50,1 0,60.333 0,120.667 0,181 -3.55,2.173 -7.22,2.507 -11,1 1.97,-0.027 3.97,-0.027 6,0 0.81,-0.308 1.47,-0.808 2,-1.5 -2.21,-0.388 -3.55,-1.388 -4,-3 1.76,-0.202 3.42,-0.702 5,-1.5 0.02,-1.745 -0.31,-3.579 -1,-5.5 2.26,-2.485 2.26,-4.818 0,-7 2.19,-0.604 2.35,-1.77 0.5,-3.5 -0.56,2.095 -1.06,2.262 -1.5,0.5 1.33,-2 1.33,-4 0,-6 0.26,-1.261 0.93,-2.261 2,-3 -0.53,-2.416 -0.87,-4.916 -1,-7.5 2.56,-5.576 2.56,-11.243 0,-17 0.67,-1 1.33,-2 2,-3 -0.32,-3.687 -0.99,-7.52 -2,-11.5 0.57,-2.507 0.9,-5.007 1,-7.5 -0.54,-1.248 -1.21,-2.415 -2,-3.5 1.89,-1.101 2.56,-2.434 2,-4 -0.97,-1.204 -1.97,-1.704 -3,-1.5 0.81,-1.314 1.81,-2.481 3,-3.5 -0.06,-3.447 -0.73,-6.614 -2,-9.5 0.48,-0.978 1.14,-1.811 2,-2.5 -1.17,-2.163 -1.83,-4.163 -2,-6 1.17,-0.5 2,-1.333 2.5,-2.5 0.17,-5.667 0.33,-11.333 0.5,-17 -0.57,-9.709 -0.57,-18.876 0,-27.5 -2.67,-1 -2.67,-2 0,-3 -0.18,-2.276 -0.18,-4.61 0,-7 -0.98,-0.381 -1.65,-1.214 -2,-2.5 0.75,-4.309 0.58,-8.643 -0.5,-13 -6.53,-0.535 -13.03,-0.535 -19.5,0 -1.2,-0.346 -1.2,-0.846 0,-1.5 -9.18,-0.17 -18.18,-0.67 -27,-1.5 z"
         id="path197" />
    </g>
    <g
       id="g204"
       style="clip-rule:evenodd;fill-rule:evenodd;image-rendering:optimizeQuality;shape-rendering:geometricPrecision;text-rendering:geometricPrecision"
       transform="matrix(0.32484048,0,0,0.32484048,-341.99384,-10.160597)">
      <path
         style="opacity:1"
         fill="#faecd3"
         d="m 1275.5,225.5 c 1,-0.086 1.83,0.248 2.5,1 0.33,11.667 0.67,23.333 1,35 0.05,2.834 0.88,5.334 2.5,7.5 -1.62,3.027 -2.95,6.194 -4,9.5 -2.28,0.921 -4.61,1.587 -7,2 0,-0.333 0,-0.667 0,-1 2.61,-0.777 4.45,-2.444 5.5,-5 0.82,-16.407 0.65,-32.741 -0.5,-49 z"
         id="path204" />
    </g>
    <g
       id="g216"
       style="clip-rule:evenodd;fill-rule:evenodd;image-rendering:optimizeQuality;shape-rendering:geometricPrecision;text-rendering:geometricPrecision"
       transform="matrix(0.32484048,0,0,0.32484048,-341.99384,-10.160597)">
      <path
         style="opacity:1"
         fill="#b9670a"
         d="m 1145.5,222.5 c 1.4,0.6 2.4,1.6 3,3 0,18 0,36 0,54 -1,0 -2,0 -3,0 -3.14,-0.821 -6.47,-1.321 -10,-1.5 -0.83,-0.833 -1.67,-1.667 -2.5,-2.5 -1.12,-8.261 -1.62,-16.594 -1.5,-25 -0.14,-8.099 0.36,-16.099 1.5,-24 1.25,-0.711 2.42,-1.544 3.5,-2.5 3.19,-0.181 6.19,-0.681 9,-1.5 z"
         id="path216" />
    </g>
    <g
       id="g217"
       style="clip-rule:evenodd;fill-rule:evenodd;image-rendering:optimizeQuality;shape-rendering:geometricPrecision;text-rendering:geometricPrecision"
       transform="matrix(0.32484048,0,0,0.32484048,-341.99384,-10.160597)">
      <path
         style="opacity:1"
         fill="#dd7b08"
         d="m 1145.5,275.5 c -3.19,1.306 -6.52,1.306 -10,0 -0.5,-1 -1,-2 -1.5,-3 -0.67,-15 -0.67,-30 0,-45 3.92,-1.812 8.09,-2.479 12.5,-2 0.33,16.842 0,33.508 -1,50 z"
         id="path217" />
    </g>
    <g
       id="g218"
       style="clip-rule:evenodd;fill-rule:evenodd;image-rendering:optimizeQuality;shape-rendering:geometricPrecision;text-rendering:geometricPrecision"
       transform="matrix(0.32484048,0,0,0.32484048,-341.99384,-10.160597)">
      <path
         style="opacity:1"
         fill="#f48a03"
         d="m 1145.5,275.5 c -3,0 -6,0 -9,0 -0.95,-15.298 -1.29,-30.631 -1,-46 2.44,0.381 3.11,-0.286 2,-2 2.45,-1.41 4.62,-1.076 6.5,1 1.27,15.64 1.77,31.306 1.5,47 z"
         id="path218" />
    </g>
    <g
       id="g235"
       style="clip-rule:evenodd;fill-rule:evenodd;image-rendering:optimizeQuality;shape-rendering:geometricPrecision;text-rendering:geometricPrecision"
       transform="matrix(0.32484048,0,0,0.32484048,-341.99384,-10.160597)">
      <path
         style="opacity:1"
         fill="#b06e26"
         d="m 1265.5,222.5 c 2,0 4,0 6,0 1.3,0.988 2.63,1.988 4,3 1.15,16.259 1.32,32.593 0.5,49 -1.05,2.556 -2.89,4.223 -5.5,5 -3.21,-0.31 -6.21,0.023 -9,1 -0.81,7.178 -1.48,14.512 -2,22 -1,0 -2,0 -3,0 1.92,-8.064 2.59,-16.397 2,-25 4.2,0.317 8.2,-0.017 12,-1 0.34,-0.838 1.01,-1.172 2,-1 0.77,-0.763 1.27,-1.763 1.5,-3 0.67,-15.333 0.67,-30.667 0,-46 -2.56,-2.124 -5.4,-3.458 -8.5,-4 z"
         id="path235" />
    </g>
    <g
       id="g236"
       style="clip-rule:evenodd;fill-rule:evenodd;image-rendering:optimizeQuality;shape-rendering:geometricPrecision;text-rendering:geometricPrecision"
       transform="matrix(0.32484048,0,0,0.32484048,-341.99384,-10.160597)">
      <path
         style="opacity:1"
         fill="#e5c597"
         d="m 1270.5,279.5 c 0,0.333 0,0.667 0,1 -2.67,0 -5.33,0 -8,0 0.32,6.854 -0.01,13.521 -1,20 0,-6.667 0,-13.333 0,-20 2.79,-0.977 5.79,-1.31 9,-1 z"
         id="path236" />
    </g>
    <g
       id="g237"
       style="clip-rule:evenodd;fill-rule:evenodd;image-rendering:optimizeQuality;shape-rendering:geometricPrecision;text-rendering:geometricPrecision"
       transform="matrix(0.32484048,0,0,0.32484048,-341.99384,-10.160597)">
      <path
         style="opacity:1"
         fill="#f2e1c1"
         d="m 1130.5,274.5 c 1.1,1.603 2.43,3.103 4,4.5 3.65,0.499 7.32,0.665 11,0.5 0,7.667 0,15.333 0,23 -0.62,-0.111 -1.12,-0.444 -1.5,-1 -0.21,-6.384 -0.71,-12.717 -1.5,-19 -3.69,-0.752 -7.36,-1.586 -11,-2.5 -0.91,-1.699 -1.24,-3.533 -1,-5.5 z"
         id="path237" />
    </g>
    <g
       id="g252"
       style="clip-rule:evenodd;fill-rule:evenodd;image-rendering:optimizeQuality;shape-rendering:geometricPrecision;text-rendering:geometricPrecision"
       transform="matrix(0.32484048,0,0,0.32484048,-341.99384,-10.160597)">
      <path
         style="opacity:1"
         fill="#ae7028"
         d="m 1145.5,279.5 c 1,0 2,0 3,0 -0.31,7.587 0.02,15.087 1,22.5 35.67,0.5 71.33,0.667 107,0.5 -35.98,1.994 -72.32,2.66 -109,2 -0.33,-1 -1,-1.667 -2,-2 0,-7.667 0,-15.333 0,-23 z"
         id="path252" />
    </g>
    <g
       id="g254"
       style="clip-rule:evenodd;fill-rule:evenodd;image-rendering:optimizeQuality;shape-rendering:geometricPrecision;text-rendering:geometricPrecision"
       transform="matrix(0.32484048,0,0,0.32484048,-341.99384,-10.160597)">
      <path
         style="opacity:1"
         fill="#aa7a40"
         d="m 1261.5,280.5 c 0,6.667 0,13.333 0,20 0,0.667 0,1.333 0,2 -1.51,1.336 -3.18,2.503 -5,3.5 -36,0.667 -72,0.667 -108,0 -0.56,-0.383 -0.89,-0.883 -1,-1.5 36.68,0.66 73.02,-0.006 109,-2 1,0 2,0 3,0 0.52,-7.488 1.19,-14.822 2,-22 z"
         id="path254" />
    </g>
    <g
       id="g256"
       style="clip-rule:evenodd;fill-rule:evenodd;image-rendering:optimizeQuality;shape-rendering:geometricPrecision;text-rendering:geometricPrecision"
       transform="matrix(0.32484048,0,0,0.32484048,-341.99384,-10.160597)">
      <path
         style="opacity:1"
         fill="#f9e8c8"
         d="m 1145.5,302.5 c 1,0.333 1.67,1 2,2 0.11,0.617 0.44,1.117 1,1.5 36,0.667 72,0.667 108,0 1.82,-0.997 3.49,-2.164 5,-3.5 -0.42,2.252 -1.75,3.752 -4,4.5 -37.07,0.826 -74.07,0.66 -111,-0.5 -0.33,-1.333 -0.67,-2.667 -1,-4 z"
         id="path256" />
    </g>
    <g
       id="g261"
       style="clip-rule:evenodd;fill-rule:evenodd;image-rendering:optimizeQuality;shape-rendering:geometricPrecision;text-rendering:geometricPrecision"
       transform="matrix(0.32484048,0,0,0.32484048,-341.99384,-10.160597)">
      <path
         style="opacity:1"
         fill="#faf8eb"
         d="m 1270.5,280.5 c -1.72,0.724 -3.55,1.391 -5.5,2 -0.19,7.718 -0.85,15.385 -2,23 -1.59,0.876 -3.09,1.876 -4.5,3 -13.23,0.675 -26.4,1.342 -39.5,2 -15.83,-0.869 -32,-0.869 -48.5,0 -6.2,-0.647 -12.36,-1.314 -18.5,-2 -0.33,0.333 -0.67,0.667 -1,1 -2.03,-0.415 -3.53,-1.415 -4.5,-3 36.93,1.16 73.93,1.326 111,0.5 2.25,-0.748 3.58,-2.248 4,-4.5 0,-0.667 0,-1.333 0,-2 0.99,-6.479 1.32,-13.146 1,-20 2.67,0 5.33,0 8,0 z"
         id="path261" />
    </g>
  </g>
</svg>
