<?xml version="1.0" encoding="UTF-8" standalone="no"?>
<!-- Created with Inkscape (http://www.inkscape.org/) -->

<svg
   width="96mm"
   height="96mm"
   viewBox="0 0 96 96"
   version="1.1"
   id="svg1"
   inkscape:version="1.4.2 (ebf0e940, 2025-05-08)"
   sodipodi:docname="crane.svg"
   xmlns:inkscape="http://www.inkscape.org/namespaces/inkscape"
   xmlns:sodipodi="http://sodipodi.sourceforge.net/DTD/sodipodi-0.dtd"
   xmlns="http://www.w3.org/2000/svg"
   xmlns:svg="http://www.w3.org/2000/svg">
  <sodipodi:namedview
     id="namedview1"
     pagecolor="#ffffff"
     bordercolor="#000000"
     borderopacity="0.25"
     inkscape:showpageshadow="2"
     inkscape:pageopacity="0.0"
     inkscape:pagecheckerboard="0"
     inkscape:deskcolor="#d1d1d1"
     inkscape:document-units="mm"
     inkscape:zoom="0.80444024"
     inkscape:cx="397.17059"
     inkscape:cy="262.91574"
     inkscape:window-width="1920"
     inkscape:window-height="1052"
     inkscape:window-x="0"
     inkscape:window-y="28"
     inkscape:window-maximized="0"
     inkscape:current-layer="layer1" />
  <defs
     id="defs1" />
  <g
     inkscape:label="Layer 1"
     inkscape:groupmode="layer"
     id="layer1">
    <g
       id="g11"
       style="clip-rule:evenodd;fill-rule:evenodd;image-rendering:optimizeQuality;shape-rendering:geometricPrecision;text-rendering:geometricPrecision"
       transform="matrix(0.30475476,0,0,0.30475476,-110.64033,-7.1546021)">
      <path
         style="opacity:1"
         fill="#ad6c27"
         d="m 526.5,51.5 c 0.888,2.5545 1.221,5.2212 1,8 1.333,0 2.667,0 4,0 1.164,20.629 2.498,41.296 4,62 -0.21,8.55 0.457,16.884 2,25 0,2.333 0,4.667 0,7 0.413,12.86 1.413,25.527 3,38 0,4.333 0,8.667 0,13 -0.667,0.333 -1.333,0.667 -2,1 -0.818,-10.825 -1.818,-21.492 -3,-32 -1.304,-31.719 -3.304,-63.386 -6,-95 -5.333,0 -10.667,0 -16,0 -1.141,15.311 -1.808,30.644 -2,46 -3.438,27.077 -5.438,54.41 -6,82 -2.29,1.839 -4.623,2.172 -7,1 1.322,0.17 2.489,-0.163 3.5,-1 0.877,-9.65 1.377,-19.317 1.5,-29 0.986,-4.47 1.319,-9.137 1,-14 2.675,-23.443 4.341,-47.109 5,-71 0,-0.6667 0,-1.3333 0,-2 1.382,-9.8024 2.215,-19.8024 2.5,-30 1.699,-0.9061 3.533,-1.2394 5.5,-1 0,-2.6667 0,-5.3333 0,-8 3,0 6,0 9,0 z"
         id="path11" />
    </g>
    <g
       id="g12"
       style="clip-rule:evenodd;fill-rule:evenodd;image-rendering:optimizeQuality;shape-rendering:geometricPrecision;text-rendering:geometricPrecision"
       transform="matrix(0.30475476,0,0,0.30475476,-110.64033,-7.1546021)">
      <path
         style="opacity:1"
         fill="#d8851f"
         d="m 519.5,53.5 c 2,0 4,0 6,0 0,2.3333 0,4.6667 0,7 -2.333,0 -4.667,0 -7,0 -0.202,-2.4496 0.131,-4.783 1,-7 z"
         id="path12" />
    </g>
    <g
       id="g16"
       style="clip-rule:evenodd;fill-rule:evenodd;image-rendering:optimizeQuality;shape-rendering:geometricPrecision;text-rendering:geometricPrecision"
       transform="matrix(0.30475476,0,0,0.30475476,-110.64033,-7.1546021)">
      <path
         style="opacity:1"
         fill="#f5ba6f"
         d="m 513.5,62.5 c 5.333,0 10.667,0 16,0 0,4.6667 0,9.3333 0,14 -5.333,0 -10.667,0 -16,0 0,-4.6667 0,-9.3333 0,-14 z"
         id="path16" />
    </g>
    <g
       id="g23"
       style="clip-rule:evenodd;fill-rule:evenodd;image-rendering:optimizeQuality;shape-rendering:geometricPrecision;text-rendering:geometricPrecision"
       transform="matrix(0.30475476,0,0,0.30475476,-110.64033,-7.1546021)">
      <path
         style="opacity:1"
         fill="#f6e2bf"
         d="m 526.5,51.5 c -3,0 -6,0 -9,0 0,2.6667 0,5.3333 0,8 -1.967,-0.2394 -3.801,0.0939 -5.5,1 -0.285,10.1976 -1.118,20.1976 -2.5,30 -0.166,-10.0056 0,-20.0056 0.5,-30 0.717,-0.5442 1.217,-1.2109 1.5,-2 0,-0.3333 0,-0.6667 0,-1 1,0 2,0 3,0 0.165,-2.3268 0.831,-4.4935 2,-6.5 3.527,-0.8075 6.86,-0.6408 10,0.5 z"
         id="path23" />
    </g>
    <g
       id="g46"
       style="clip-rule:evenodd;fill-rule:evenodd;image-rendering:optimizeQuality;shape-rendering:geometricPrecision;text-rendering:geometricPrecision"
       transform="matrix(0.30475476,0,0,0.30475476,-110.64033,-7.1546021)">
      <path
         style="opacity:1"
         fill="#f5e0be"
         d="m 531.5,59.5 c 1.25,0.0774 2.083,0.744 2.5,2 0.876,24.3517 2.043,48.685 3.5,73 -0.667,-4.333 -1.333,-8.667 -2,-13 -1.502,-20.704 -2.836,-41.371 -4,-62 z"
         id="path46" />
    </g>
    <g
       id="g51"
       style="clip-rule:evenodd;fill-rule:evenodd;image-rendering:optimizeQuality;shape-rendering:geometricPrecision;text-rendering:geometricPrecision"
       transform="matrix(0.30475476,0,0,0.30475476,-110.64033,-7.1546021)">
      <path
         style="opacity:1"
         fill="#faf7e9"
         d="m 539.5,163.5 c -0.399,-3.511 -1.066,-6.844 -2,-10 0,-2.333 0,-4.667 0,-7 0,-4 0,-8 0,-12 -1.457,-24.315 -2.624,-48.6483 -3.5,-73 -0.417,-1.256 -1.25,-1.9226 -2.5,-2 -1.333,0 -2.667,0 -4,0 0.221,-2.7788 -0.112,-5.4455 -1,-8 -3.14,-1.1408 -6.473,-1.3075 -10,-0.5 -1.169,2.0065 -1.835,4.1732 -2,6.5 -1,0 -2,0 -3,0 0.856,-3.0744 2.19,-5.9078 4,-8.5 4,-0.6667 8,-0.6667 12,0 1.963,4.3031 4.463,8.1364 7.5,11.5 1.157,14.7878 2.324,29.6211 3.5,44.5 0.143,2.041 -0.191,4.208 -1,6.5 0.732,4.308 1.398,8.641 2,13 -0.277,7.2 -0.277,14.533 0,22 0.637,4.2 1.304,8.366 2,12.5 -0.599,1.622 -1.266,3.122 -2,4.5 z"
         id="path51" />
    </g>
    <g
       id="g76"
       style="clip-rule:evenodd;fill-rule:evenodd;image-rendering:optimizeQuality;shape-rendering:geometricPrecision;text-rendering:geometricPrecision"
       transform="matrix(0.30475476,0,0,0.30475476,-110.64033,-7.1546021)">
      <path
         style="opacity:1"
         fill="#f4debb"
         d="m 509.5,92.5 c -0.659,23.891 -2.325,47.557 -5,71 0.307,-23.915 1.974,-47.582 5,-71 z"
         id="path76" />
    </g>
    <g
       id="g88"
       style="clip-rule:evenodd;fill-rule:evenodd;image-rendering:optimizeQuality;shape-rendering:geometricPrecision;text-rendering:geometricPrecision"
       transform="matrix(0.30475476,0,0,0.30475476,-110.64033,-7.1546021)">
      <path
         style="opacity:1"
         fill="#e0b687"
         d="m 535.5,121.5 c 0.667,4.333 1.333,8.667 2,13 0,4 0,8 0,12 -1.543,-8.116 -2.21,-16.45 -2,-25 z"
         id="path88" />
    </g>
    <g
       id="g98"
       style="clip-rule:evenodd;fill-rule:evenodd;image-rendering:optimizeQuality;shape-rendering:geometricPrecision;text-rendering:geometricPrecision"
       transform="matrix(0.30475476,0,0,0.30475476,-110.64033,-7.1546021)">
      <path
         style="opacity:1"
         fill="#b77a33"
         d="m 513.5,168.5 c -0.961,-1.765 -1.295,-3.765 -1,-6 0.155,-5.395 0.822,-10.728 2,-16 4.652,3.321 8.985,6.987 13,11 -4.295,4.147 -8.962,7.813 -14,11 z"
         id="path98" />
    </g>
    <g
       id="g102"
       style="clip-rule:evenodd;fill-rule:evenodd;image-rendering:optimizeQuality;shape-rendering:geometricPrecision;text-rendering:geometricPrecision"
       transform="matrix(0.30475476,0,0,0.30475476,-110.64033,-7.1546021)">
      <path
         style="opacity:1"
         fill="#e6c59c"
         d="m 537.5,153.5 c 0.934,3.156 1.601,6.489 2,10 0,0.333 0,0.667 0,1 0.541,8.991 0.874,17.991 1,27 -1.587,-12.473 -2.587,-25.14 -3,-38 z"
         id="path102" />
    </g>
    <g
       id="g107"
       style="clip-rule:evenodd;fill-rule:evenodd;image-rendering:optimizeQuality;shape-rendering:geometricPrecision;text-rendering:geometricPrecision"
       transform="matrix(0.30475476,0,0,0.30475476,-110.64033,-7.1546021)">
      <path
         style="opacity:1"
         fill="#f3b466"
         d="m 535.5,173.5 c 0.166,5.011 -10e-4,10.011 -0.5,15 -1.835,-3.544 -3.002,-7.21 -3.5,-11 0.166,-5.344 -10e-4,-10.677 -0.5,-16 -0.718,-0.951 -1.551,-1.117 -2.5,-0.5 -3.387,3.053 -7.053,5.72 -11,8 -1.399,1.062 -2.399,2.395 -3,4 3.508,3.004 7.174,5.837 11,8.5 0.172,0.992 -0.162,1.658 -1,2 -4.217,-2.608 -8.55,-4.941 -13,-7 -0.76,6.304 -1.093,12.637 -1,19 -1.122,1.788 -1.289,3.788 -0.5,6 0.934,1.358 1.768,2.692 2.5,4 0,0.667 -0.333,1 -1,1 -1,0 -2,0 -3,0 0,6.667 0,13.333 0,20 -0.79,1.109 -1.29,2.442 -1.5,4 -1.28,-20.827 -0.114,-41.493 3.5,-62 1.187,1.153 2.187,1.153 3,0 5.038,-3.187 9.705,-6.853 14,-11 -4.015,-4.013 -8.348,-7.679 -13,-11 -1.178,5.272 -1.845,10.605 -2,16 -0.802,1.452 -1.302,3.118 -1.5,5 -0.333,-0.333 -0.667,-0.667 -1,-1 -0.167,-3.833 -0.333,-7.667 -0.5,-11.5 0.715,-10.167 1.381,-20.333 2,-30.5 0.192,-15.356 0.859,-30.689 2,-46 5.333,0 10.667,0 16,0 2.696,31.614 4.696,63.281 6,95 z"
         id="path107" />
    </g>
    <g
       id="g108"
       style="clip-rule:evenodd;fill-rule:evenodd;image-rendering:optimizeQuality;shape-rendering:geometricPrecision;text-rendering:geometricPrecision"
       transform="matrix(0.30475476,0,0,0.30475476,-110.64033,-7.1546021)">
      <path
         style="opacity:1"
         fill="#b37630"
         d="m 531.5,177.5 c 0.308,2.424 -0.026,4.757 -1,7 -1.529,-1.263 -3.195,-2.263 -5,-3 -3.826,-2.663 -7.492,-5.496 -11,-8.5 0.601,-1.605 1.601,-2.938 3,-4 3.947,-2.28 7.613,-4.947 11,-8 0.949,-0.617 1.782,-0.451 2.5,0.5 0.499,5.323 0.666,10.656 0.5,16 z"
         id="path108" />
    </g>
    <g
       id="g109"
       style="clip-rule:evenodd;fill-rule:evenodd;image-rendering:optimizeQuality;shape-rendering:geometricPrecision;text-rendering:geometricPrecision"
       transform="matrix(0.30475476,0,0,0.30475476,-110.64033,-7.1546021)">
      <path
         style="opacity:1"
         fill="#f7edd3"
         d="m 526.5,164.5 c 0.996,-0.086 1.829,0.248 2.5,1 0.829,5.033 0.662,10.033 -0.5,15 -4.236,-1.945 -7.903,-4.612 -11,-8 3.045,-2.718 6.045,-5.384 9,-8 z"
         id="path109" />
    </g>
    <g
       id="g110"
       style="clip-rule:evenodd;fill-rule:evenodd;image-rendering:optimizeQuality;shape-rendering:geometricPrecision;text-rendering:geometricPrecision"
       transform="matrix(0.30475476,0,0,0.30475476,-110.64033,-7.1546021)">
      <path
         style="opacity:1"
         fill="#e9c28d"
         d="m 515.5,151.5 c -0.58,4.149 0.086,7.816 2,11 -0.311,0.978 -0.978,1.645 -2,2 -1.311,-4.484 -1.311,-8.817 0,-13 z"
         id="path110" />
    </g>
    <g
       id="g111"
       style="clip-rule:evenodd;fill-rule:evenodd;image-rendering:optimizeQuality;shape-rendering:geometricPrecision;text-rendering:geometricPrecision"
       transform="matrix(0.30475476,0,0,0.30475476,-110.64033,-7.1546021)">
      <path
         style="opacity:1"
         fill="#f8edd2"
         d="m 517.5,162.5 c -1.914,-3.184 -2.58,-6.851 -2,-11 0.397,-1.025 1.063,-1.192 2,-0.5 2.755,1.711 5.089,3.878 7,6.5 -2.05,2.047 -4.383,3.714 -7,5 z"
         id="path111" />
    </g>
    <g
       id="g112"
       style="clip-rule:evenodd;fill-rule:evenodd;image-rendering:optimizeQuality;shape-rendering:geometricPrecision;text-rendering:geometricPrecision"
       transform="matrix(0.30475476,0,0,0.30475476,-110.64033,-7.1546021)">
      <path
         style="opacity:1"
         fill="#b67932"
         d="m 527.5,131.5 c 1.32,2.928 1.986,6.261 2,10 0.446,4.46 0.446,8.794 0,13 -4.986,-3.655 -9.653,-7.655 -14,-12 4.046,-3.717 8.046,-7.384 12,-11 z"
         id="path112" />
    </g>
    <g
       id="g113"
       style="clip-rule:evenodd;fill-rule:evenodd;image-rendering:optimizeQuality;shape-rendering:geometricPrecision;text-rendering:geometricPrecision"
       transform="matrix(0.30475476,0,0,0.30475476,-110.64033,-7.1546021)">
      <path
         style="opacity:1"
         fill="#e8c392"
         d="m 524.5,137.5 c 0.709,-0.904 1.709,-1.237 3,-1 0,4 0,8 0,12 -1.291,0.237 -2.291,-0.096 -3,-1 1.277,-1.194 1.944,-2.86 2,-5 -0.056,-2.14 -0.723,-3.806 -2,-5 z"
         id="path113" />
    </g>
    <g
       id="g114"
       style="clip-rule:evenodd;fill-rule:evenodd;image-rendering:optimizeQuality;shape-rendering:geometricPrecision;text-rendering:geometricPrecision"
       transform="matrix(0.30475476,0,0,0.30475476,-110.64033,-7.1546021)">
      <path
         style="opacity:1"
         fill="#f8f0d5"
         d="m 524.5,137.5 c 1.277,1.194 1.944,2.86 2,5 -0.056,2.14 -0.723,3.806 -2,5 -6.502,-3.205 -6.502,-6.539 0,-10 z"
         id="path114" />
    </g>
    <g
       id="g115"
       style="clip-rule:evenodd;fill-rule:evenodd;image-rendering:optimizeQuality;shape-rendering:geometricPrecision;text-rendering:geometricPrecision"
       transform="matrix(0.30475476,0,0,0.30475476,-110.64033,-7.1546021)">
      <path
         style="opacity:1"
         fill="#b5762d"
         d="m 515.5,119.5 c 3.944,2.605 7.61,5.605 11,9 -3.641,3.305 -7.308,6.638 -11,10 -0.608,-6.294 -0.608,-12.628 0,-19 z"
         id="path115" />
    </g>
    <g
       id="g116"
       style="clip-rule:evenodd;fill-rule:evenodd;image-rendering:optimizeQuality;shape-rendering:geometricPrecision;text-rendering:geometricPrecision"
       transform="matrix(0.30475476,0,0,0.30475476,-110.64033,-7.1546021)">
      <path
         style="opacity:1"
         fill="#f5e1b6"
         d="m 517.5,123.5 c 7.182,2.614 7.516,5.614 1,9 -0.984,-2.928 -1.317,-5.928 -1,-9 z"
         id="path116" />
    </g>
    <g
       id="g117"
       style="clip-rule:evenodd;fill-rule:evenodd;image-rendering:optimizeQuality;shape-rendering:geometricPrecision;text-rendering:geometricPrecision"
       transform="matrix(0.30475476,0,0,0.30475476,-110.64033,-7.1546021)">
      <path
         style="opacity:1"
         fill="#b87b31"
         d="m 525.5,104.5 c 1.32,2.928 1.986,6.261 2,10 -0.167,3.333 -0.333,6.667 -0.5,10 -3.846,-2.512 -7.012,-5.679 -9.5,-9.5 2.868,-3.366 5.535,-6.866 8,-10.5 z"
         id="path117" />
    </g>
    <g
       id="g118"
       style="clip-rule:evenodd;fill-rule:evenodd;image-rendering:optimizeQuality;shape-rendering:geometricPrecision;text-rendering:geometricPrecision"
       transform="matrix(0.30475476,0,0,0.30475476,-110.64033,-7.1546021)">
      <path
         style="opacity:1"
         fill="#f8e2ae"
         d="m 523.5,110.5 c 1.3,2.524 1.3,5.191 0,8 -3.833,-2.557 -3.833,-5.224 0,-8 z"
         id="path118" />
    </g>
    <g
       id="g119"
       style="clip-rule:evenodd;fill-rule:evenodd;image-rendering:optimizeQuality;shape-rendering:geometricPrecision;text-rendering:geometricPrecision"
       transform="matrix(0.30475476,0,0,0.30475476,-110.64033,-7.1546021)">
      <path
         style="opacity:1"
         fill="#b6762a"
         d="m 516.5,91.5 c 3.264,2.5974 6.264,5.5974 9,9 -3.021,3.186 -5.854,6.52 -8.5,10 -0.5,-6.325 -0.666,-12.6579 -0.5,-19 z"
         id="path119" />
    </g>
    <g
       id="g120"
       style="clip-rule:evenodd;fill-rule:evenodd;image-rendering:optimizeQuality;shape-rendering:geometricPrecision;text-rendering:geometricPrecision"
       transform="matrix(0.30475476,0,0,0.30475476,-110.64033,-7.1546021)">
      <path
         style="opacity:1"
         fill="#efc886"
         d="m 518.5,97.5 c 4.871,1.4594 5.204,3.793 1,7 -0.974,-2.243 -1.308,-4.576 -1,-7 z"
         id="path120" />
    </g>
    <g
       id="g121"
       style="clip-rule:evenodd;fill-rule:evenodd;image-rendering:optimizeQuality;shape-rendering:geometricPrecision;text-rendering:geometricPrecision"
       transform="matrix(0.30475476,0,0,0.30475476,-110.64033,-7.1546021)">
      <path
         style="opacity:1"
         fill="#b5762a"
         d="m 518.5,80.5 c 2.333,0 4.667,0 7,0 -0.006,5.3934 0.161,10.7268 0.5,16 -2.333,-2.3333 -4.667,-4.6667 -7,-7 -0.498,-2.9816 -0.665,-5.9816 -0.5,-9 z"
         id="path121" />
    </g>
    <g
       id="g122"
       style="clip-rule:evenodd;fill-rule:evenodd;image-rendering:optimizeQuality;shape-rendering:geometricPrecision;text-rendering:geometricPrecision"
       transform="matrix(0.30475476,0,0,0.30475476,-110.64033,-7.1546021)">
      <path
         style="opacity:1"
         fill="#e5bc78"
         d="m 520.5,82.5 c 1,0 2,0 3,0 0.313,2.7469 -0.02,5.4135 -1,8 -0.586,-0.2093 -1.086,-0.5426 -1.5,-1 -0.497,-2.3098 -0.663,-4.6432 -0.5,-7 z"
         id="path122" />
    </g>
    <g
       id="g125"
       style="clip-rule:evenodd;fill-rule:evenodd;image-rendering:optimizeQuality;shape-rendering:geometricPrecision;text-rendering:geometricPrecision"
       transform="matrix(0.30475476,0,0,0.30475476,-110.64033,-7.1546021)">
      <path
         style="opacity:1"
         fill="#f9f7e8"
         d="m 511.5,58.5 c -0.283,0.7891 -0.783,1.4558 -1.5,2 -0.5,9.9944 -0.666,19.9944 -0.5,30 0,0.6667 0,1.3333 0,2 -3.026,23.418 -4.693,47.085 -5,71 0.319,4.863 -0.014,9.53 -1,14 -0.514,5.996 -1.68,11.996 -3.5,18 -1.897,-1.516 -4.064,-2.183 -6.5,-2 -4.134,-0.985 -8.468,-1.318 -13,-1 2.071,-1.309 4.571,-1.975 7.5,-2 4.021,0.016 7.854,0.516 11.5,1.5 -0.333,-0.333 -0.667,-0.667 -1,-1 1.637,-4.442 2.637,-9.108 3,-14 -0.628,-2.37 -0.961,-4.703 -1,-7 0.667,-2.333 1.333,-4.667 2,-7 -0.173,-3.668 -0.506,-7.668 -1,-12 1.431,-2.496 1.765,-4.996 1,-7.5 1.096,-12.794 2.429,-25.794 4,-39 -0.995,-6.0462 -0.662,-11.8795 1,-17.5 -1.03,-7.4835 -1.03,-15.3169 0,-23.5 -0.119,-2.8769 1.214,-4.5436 4,-5 z"
         id="path125" />
    </g>
    <g
       id="g134"
       style="clip-rule:evenodd;fill-rule:evenodd;image-rendering:optimizeQuality;shape-rendering:geometricPrecision;text-rendering:geometricPrecision"
       transform="matrix(0.30475476,0,0,0.30475476,-110.64033,-7.1546021)">
      <path
         style="opacity:1"
         fill="#f6e3c6"
         d="m 480.5,192.5 c 4.532,-0.318 8.866,0.015 13,1 -13.68,-2.311 -18.68,3.355 -15,17 -1.295,0.988 -2.628,1.988 -4,3 1.434,-5.876 2.268,-11.876 2.5,-18 0.422,-1.926 1.589,-2.926 3.5,-3 z"
         id="path134" />
    </g>
    <g
       id="g135"
       style="clip-rule:evenodd;fill-rule:evenodd;image-rendering:optimizeQuality;shape-rendering:geometricPrecision;text-rendering:geometricPrecision"
       transform="matrix(0.30475476,0,0,0.30475476,-110.64033,-7.1546021)">
      <path
         style="opacity:1"
         fill="#ae7b42"
         d="m 493.5,193.5 c 0,0.333 0,0.667 0,1 -3.682,-0.165 -7.348,0.001 -11,0.5 -0.833,0.833 -1.667,1.667 -2.5,2.5 -0.175,4.519 -0.675,8.853 -1.5,13 -3.68,-13.645 1.32,-19.311 15,-17 z"
         id="path135" />
    </g>
    <g
       id="g138"
       style="clip-rule:evenodd;fill-rule:evenodd;image-rendering:optimizeQuality;shape-rendering:geometricPrecision;text-rendering:geometricPrecision"
       transform="matrix(0.30475476,0,0,0.30475476,-110.64033,-7.1546021)">
      <path
         style="opacity:1"
         fill="#f7e0b8"
         d="m 503.5,177.5 c -0.123,9.683 -0.623,19.35 -1.5,29 -1.011,0.837 -2.178,1.17 -3.5,1 -0.904,-0.709 -1.237,-1.709 -1,-3 0.164,-2.687 -0.003,-5.354 -0.5,-8 -0.816,-1.323 -1.983,-1.989 -3.5,-2 0,-0.333 0,-0.667 0,-1 2.436,-0.183 4.603,0.484 6.5,2 1.82,-6.004 2.986,-12.004 3.5,-18 z"
         id="path138" />
    </g>
    <g
       id="g141"
       style="clip-rule:evenodd;fill-rule:evenodd;image-rendering:optimizeQuality;shape-rendering:geometricPrecision;text-rendering:geometricPrecision"
       transform="matrix(0.30475476,0,0,0.30475476,-110.64033,-7.1546021)">
      <path
         style="opacity:1"
         fill="#ba6a13"
         d="m 497.5,204.5 c -0.237,1.291 0.096,2.291 1,3 2.377,1.172 4.71,0.839 7,-1 0,16.333 0,32.667 0,49 6.487,0.828 13.154,1.328 20,1.5 -3.667,0.167 -7.333,0.333 -11,0.5 -4.065,-0.011 -7.732,-0.678 -11,-2 0.167,-13.004 0,-26.004 -0.5,-39 -0.903,-1.201 -2.069,-2.035 -3.5,-2.5 -6.333,-0.667 -12.667,-0.667 -19,0 -0.544,0.717 -1.211,1.217 -2,1.5 1.454,-5.681 2.454,-11.347 3,-17 0,4.333 0,8.667 0,13 6.726,-0.295 13.392,0.038 20,1 0.886,-0.825 1.219,-1.825 1,-3 -1.967,0.239 -3.801,-0.094 -5.5,-1 -1.822,-3.657 -3.322,-7.324 -4.5,-11 -3.333,0 -6.667,0 -10,0 0.111,-0.617 0.444,-1.117 1,-1.5 3.333,-0.667 6.667,-0.667 10,0 1.167,0.5 2,1.333 2.5,2.5 0.191,2.208 0.691,4.208 1.5,6 z"
         id="path141" />
    </g>
    <g
       id="g147"
       style="clip-rule:evenodd;fill-rule:evenodd;image-rendering:optimizeQuality;shape-rendering:geometricPrecision;text-rendering:geometricPrecision"
       transform="matrix(0.30475476,0,0,0.30475476,-110.64033,-7.1546021)">
      <path
         style="opacity:1"
         fill="#db7d13"
         d="m 482.5,197.5 c 0,4.333 0,8.667 0,13 3.667,0 7.333,0 11,0 -0.086,-4.357 -0.42,-8.69 -1,-13 1.178,3.676 2.678,7.343 4.5,11 1.699,0.906 3.533,1.239 5.5,1 0.219,1.175 -0.114,2.175 -1,3 -6.608,-0.962 -13.274,-1.295 -20,-1 0,-4.333 0,-8.667 0,-13 0,-0.667 0.333,-1 1,-1 z"
         id="path147" />
    </g>
    <g
       id="g148"
       style="clip-rule:evenodd;fill-rule:evenodd;image-rendering:optimizeQuality;shape-rendering:geometricPrecision;text-rendering:geometricPrecision"
       transform="matrix(0.30475476,0,0,0.30475476,-110.64033,-7.1546021)">
      <path
         style="opacity:1"
         fill="#f28d0f"
         d="m 482.5,197.5 c 3.333,0 6.667,0 10,0 0.58,4.31 0.914,8.643 1,13 -3.667,0 -7.333,0 -11,0 0,-4.333 0,-8.667 0,-13 z"
         id="path148" />
    </g>
    <g
       id="g149"
       style="clip-rule:evenodd;fill-rule:evenodd;image-rendering:optimizeQuality;shape-rendering:geometricPrecision;text-rendering:geometricPrecision"
       transform="matrix(0.30475476,0,0,0.30475476,-110.64033,-7.1546021)">
      <path
         style="opacity:1"
         fill="#ebcba2"
         d="m 565.5,198.5 c 1.158,9.825 1.325,19.825 0.5,30 -0.667,1.333 -1.667,2.333 -3,3 -0.5,9.994 -0.666,19.994 -0.5,30 -1.159,-10.158 -1.325,-20.492 -0.5,-31 1.385,-1.051 2.385,-2.384 3,-4 0.5,-9.327 0.666,-18.661 0.5,-28 z"
         id="path149" />
    </g>
    <g
       id="g156"
       style="clip-rule:evenodd;fill-rule:evenodd;image-rendering:optimizeQuality;shape-rendering:geometricPrecision;text-rendering:geometricPrecision"
       transform="matrix(0.30475476,0,0,0.30475476,-110.64033,-7.1546021)">
      <path
         style="opacity:1"
         fill="#f2af5f"
         d="m 511.5,124.5 c -0.619,10.167 -1.285,20.333 -2,30.5 0.167,3.833 0.333,7.667 0.5,11.5 0.333,0.333 0.667,0.667 1,1 0.198,-1.882 0.698,-3.548 1.5,-5 -0.295,2.235 0.039,4.235 1,6 -0.813,1.153 -1.813,1.153 -3,0 -3.614,20.507 -4.78,41.173 -3.5,62 0.21,-1.558 0.71,-2.891 1.5,-4 -0.166,7.008 0,14.008 0.5,21 8.015,-7.848 15.848,-15.848 23.5,-24 -7.284,-5.454 -14.284,-11.121 -21,-17 0.667,0 1,-0.333 1,-1 -0.732,-1.308 -1.566,-2.642 -2.5,-4 -0.789,-2.212 -0.622,-4.212 0.5,-6 -0.285,1.788 0.048,3.455 1,5 6.615,-3.458 12.615,-7.625 18,-12.5 -1.707,-1.509 -3.373,-3.009 -5,-4.5 0.838,-0.342 1.172,-1.008 1,-2 1.805,0.737 3.471,1.737 5,3 0.974,-2.243 1.308,-4.576 1,-7 0.498,3.79 1.665,7.456 3.5,11 0.499,-4.989 0.666,-9.989 0.5,-15 1.182,10.508 2.182,21.175 3,32 0,16.667 0,33.333 0,50 -11,0 -22,0 -33,0 0,-16.333 0,-32.667 0,-49 0.562,-27.59 2.562,-54.923 6,-82 z"
         id="path156" />
    </g>
    <g
       id="g157"
       style="clip-rule:evenodd;fill-rule:evenodd;image-rendering:optimizeQuality;shape-rendering:geometricPrecision;text-rendering:geometricPrecision"
       transform="matrix(0.30475476,0,0,0.30475476,-110.64033,-7.1546021)">
      <path
         style="opacity:1"
         fill="#bf6a0c"
         d="m 511.5,206.5 c 6.716,5.879 13.716,11.546 21,17 -7.652,8.152 -15.485,16.152 -23.5,24 -0.5,-6.992 -0.666,-13.992 -0.5,-21 0,-6.667 0,-13.333 0,-20 1,0 2,0 3,0 z"
         id="path157" />
    </g>
    <g
       id="g158"
       style="clip-rule:evenodd;fill-rule:evenodd;image-rendering:optimizeQuality;shape-rendering:geometricPrecision;text-rendering:geometricPrecision"
       transform="matrix(0.30475476,0,0,0.30475476,-110.64033,-7.1546021)">
      <path
         style="opacity:1"
         fill="#f18f15"
         d="m 511.5,211.5 c 4.95,2.48 9.616,5.48 14,9 -4.62,0.993 -9.286,1.327 -14,1 0,-3.333 0,-6.667 0,-10 z"
         id="path158" />
    </g>
    <g
       id="g159"
       style="clip-rule:evenodd;fill-rule:evenodd;image-rendering:optimizeQuality;shape-rendering:geometricPrecision;text-rendering:geometricPrecision"
       transform="matrix(0.30475476,0,0,0.30475476,-110.64033,-7.1546021)">
      <path
         style="opacity:1"
         fill="#bb6b10"
         d="m 531.5,206.5 c 0.667,0 1.333,0 2,0 0.326,4.384 -0.008,8.717 -1,13 -4.987,-3.002 -9.653,-6.336 -14,-10 3.837,-0.431 7.503,-1.098 11,-2 0.992,0.172 1.658,-0.162 2,-1 z"
         id="path159" />
    </g>
    <g
       id="g160"
       style="clip-rule:evenodd;fill-rule:evenodd;image-rendering:optimizeQuality;shape-rendering:geometricPrecision;text-rendering:geometricPrecision"
       transform="matrix(0.30475476,0,0,0.30475476,-110.64033,-7.1546021)">
      <path
         style="opacity:1"
         fill="#e78915"
         d="m 522.5,210.5 c 3.125,-0.979 6.458,-1.313 10,-1 0.308,2.424 -0.026,4.757 -1,7 -2.857,-2.258 -5.857,-4.258 -9,-6 z"
         id="path160" />
    </g>
    <g
       id="g161"
       style="clip-rule:evenodd;fill-rule:evenodd;image-rendering:optimizeQuality;shape-rendering:geometricPrecision;text-rendering:geometricPrecision"
       transform="matrix(0.30475476,0,0,0.30475476,-110.64033,-7.1546021)">
      <path
         style="opacity:1"
         fill="#a96b26"
         d="m 533.5,206.5 c -0.667,0 -1.333,0 -2,0 0,-3.667 0,-7.333 0,-11 -2.589,-0.039 -4.589,0.961 -6,3 -0.992,-0.172 -1.658,0.162 -2,1 -2.361,0.935 -4.528,2.268 -6.5,4 -0.585,1.498 -0.085,2.498 1.5,3 3.462,0.982 7.129,1.315 11,1 -3.497,0.902 -7.163,1.569 -11,2 -2,-1.333 -4,-2.667 -6,-4 0.011,-1.517 0.677,-2.684 2,-3.5 5.667,-3.5 11.333,-7 17,-10.5 0.996,4.962 1.663,9.962 2,15 z"
         id="path161" />
    </g>
    <g
       id="g162"
       style="clip-rule:evenodd;fill-rule:evenodd;image-rendering:optimizeQuality;shape-rendering:geometricPrecision;text-rendering:geometricPrecision"
       transform="matrix(0.30475476,0,0,0.30475476,-110.64033,-7.1546021)">
      <path
         style="opacity:1"
         fill="#f7ddb2"
         d="m 523.5,199.5 c -1.885,1.553 -2.885,3.553 -3,6 3.333,0 6.667,0 10,0 -3.798,0.983 -7.798,1.317 -12,1 -1.585,-0.502 -2.085,-1.502 -1.5,-3 1.972,-1.732 4.139,-3.065 6.5,-4 z"
         id="path162" />
    </g>
    <g
       id="g163"
       style="clip-rule:evenodd;fill-rule:evenodd;image-rendering:optimizeQuality;shape-rendering:geometricPrecision;text-rendering:geometricPrecision"
       transform="matrix(0.30475476,0,0,0.30475476,-110.64033,-7.1546021)">
      <path
         style="opacity:1"
         fill="#f9f7e4"
         d="m 530.5,205.5 c -3.333,0 -6.667,0 -10,0 0.115,-2.447 1.115,-4.447 3,-6 0.342,-0.838 1.008,-1.172 2,-1 1.617,-0.538 3.284,-0.871 5,-1 0,2.667 0,5.333 0,8 z"
         id="path163" />
    </g>
    <g
       id="g164"
       style="clip-rule:evenodd;fill-rule:evenodd;image-rendering:optimizeQuality;shape-rendering:geometricPrecision;text-rendering:geometricPrecision"
       transform="matrix(0.30475476,0,0,0.30475476,-110.64033,-7.1546021)">
      <path
         style="opacity:1"
         fill="#dab480"
         d="m 531.5,206.5 c -0.342,0.838 -1.008,1.172 -2,1 -3.871,0.315 -7.538,-0.018 -11,-1 4.202,0.317 8.202,-0.017 12,-1 0,-2.667 0,-5.333 0,-8 -1.716,0.129 -3.383,0.462 -5,1 1.411,-2.039 3.411,-3.039 6,-3 0,3.667 0,7.333 0,11 z"
         id="path164" />
    </g>
    <g
       id="g165"
       style="clip-rule:evenodd;fill-rule:evenodd;image-rendering:optimizeQuality;shape-rendering:geometricPrecision;text-rendering:geometricPrecision"
       transform="matrix(0.30475476,0,0,0.30475476,-110.64033,-7.1546021)">
      <path
         style="opacity:1"
         fill="#b77831"
         d="m 524.5,183.5 c 1.627,1.491 3.293,2.991 5,4.5 -5.385,4.875 -11.385,9.042 -18,12.5 -0.952,-1.545 -1.285,-3.212 -1,-5 -0.093,-6.363 0.24,-12.696 1,-19 4.45,2.059 8.783,4.392 13,7 z"
         id="path165" />
    </g>
    <g
       id="g166"
       style="clip-rule:evenodd;fill-rule:evenodd;image-rendering:optimizeQuality;shape-rendering:geometricPrecision;text-rendering:geometricPrecision"
       transform="matrix(0.30475476,0,0,0.30475476,-110.64033,-7.1546021)">
      <path
         style="opacity:1"
         fill="#f9f0d9"
         d="m 520.5,184.5 c 2.229,0.555 3.895,1.889 5,4 -2.149,1.909 -4.482,3.576 -7,5 -1.333,0 -2.667,0 -4,0 -0.165,-3.018 0.002,-6.018 0.5,-9 1.776,-1.036 3.609,-1.036 5.5,0 z"
         id="path166" />
    </g>
    <g
       id="g167"
       style="clip-rule:evenodd;fill-rule:evenodd;image-rendering:optimizeQuality;shape-rendering:geometricPrecision;text-rendering:geometricPrecision"
       transform="matrix(0.30475476,0,0,0.30475476,-110.64033,-7.1546021)">
      <path
         style="opacity:1"
         fill="#f4daaf"
         d="m 520.5,184.5 c -1.891,-1.036 -3.724,-1.036 -5.5,0 -0.498,2.982 -0.665,5.982 -0.5,9 1.333,0 2.667,0 4,0 -1.437,1.225 -3.104,2.225 -5,3 -0.995,-5.292 -1.328,-10.625 -1,-16 3.352,0.03 6.018,1.363 8,4 z"
         id="path167" />
    </g>
    <g
       id="g168"
       style="clip-rule:evenodd;fill-rule:evenodd;image-rendering:optimizeQuality;shape-rendering:geometricPrecision;text-rendering:geometricPrecision"
       transform="matrix(0.30475476,0,0,0.30475476,-110.64033,-7.1546021)">
      <path
         style="opacity:1"
         fill="#c56c0b"
         d="m 549.5,196.5 c 4.402,-0.272 8.735,0.061 13,1 1.165,9.316 1.332,18.649 0.5,28 -0.667,0.667 -1.333,1.333 -2,2 -0.977,-1.274 -1.811,-1.274 -2.5,0 -1.127,-0.622 -2.127,-1.455 -3,-2.5 -4.655,-0.499 -9.321,-0.666 -14,-0.5 -1.309,-2.071 -1.975,-4.571 -2,-7.5 0.025,-2.929 0.691,-5.429 2,-7.5 0.052,3.698 0.386,7.365 1,11 1.322,0.17 2.489,-0.163 3.5,-1 0.808,-3.527 0.641,-6.86 -0.5,-10 0.672,-0.767 1.505,-1.434 2.5,-2 0.181,-3.195 0.681,-6.195 1.5,-9 0,-0.667 0,-1.333 0,-2 z"
         id="path168" />
    </g>
    <g
       id="g169"
       style="clip-rule:evenodd;fill-rule:evenodd;image-rendering:optimizeQuality;shape-rendering:geometricPrecision;text-rendering:geometricPrecision"
       transform="matrix(0.30475476,0,0,0.30475476,-110.64033,-7.1546021)">
      <path
         style="opacity:1"
         fill="#f18808"
         d="m 549.5,198.5 c 3.834,-1.3 7.668,-1.3 11.5,0 0.832,9.018 0.665,18.018 -0.5,27 -3.227,-2.52 -6.893,-3.854 -11,-4 0,-7.667 0,-15.333 0,-23 z"
         id="path169" />
    </g>
    <g
       id="g170"
       style="clip-rule:evenodd;fill-rule:evenodd;image-rendering:optimizeQuality;shape-rendering:geometricPrecision;text-rendering:geometricPrecision"
       transform="matrix(0.30475476,0,0,0.30475476,-110.64033,-7.1546021)">
      <path
         style="opacity:1"
         fill="#ee8910"
         d="m 541.5,209.5 c 1.333,0 2.667,0 4,0 1.141,3.14 1.308,6.473 0.5,10 -1.011,0.837 -2.178,1.17 -3.5,1 -0.614,-3.635 -0.948,-7.302 -1,-11 z"
         id="path170" />
    </g>
    <g
       id="g173"
       style="clip-rule:evenodd;fill-rule:evenodd;image-rendering:optimizeQuality;shape-rendering:geometricPrecision;text-rendering:geometricPrecision"
       transform="matrix(0.30475476,0,0,0.30475476,-110.64033,-7.1546021)">
      <path
         style="opacity:1"
         fill="#f8f1dd"
         d="m 539.5,164.5 c 0.517,5.078 1.684,10.078 3.5,15 0.499,4.321 0.666,8.654 0.5,13 6.187,-1.848 12.52,-2.348 19,-1.5 1.123,1.044 2.456,1.71 4,2 0.684,1.693 1.684,3.193 3,4.5 -0.811,10.62 -1.311,21.287 -1.5,32 -1.419,1.836 -2.586,3.836 -3.5,6 0.066,7.899 0.066,15.732 0,23.5 3.867,4.602 5.533,9.935 5,16 -0.5,7.5 -1,15 -1.5,22.5 -1.11,1.743 -2.61,3.076 -4.5,4 -7.715,-0.692 -14.049,1.808 -19,7.5 -2.264,0.236 -4.431,0.736 -6.5,1.5 -12.167,-0.531 -24.5,-1.198 -37,-2 -0.333,0.333 -0.667,0.667 -1,1 -2.5,-1.833 -5,-3.667 -7.5,-5.5 -3.333,-0.333 -6.667,-0.667 -10,-1 -2.348,-0.346 -4.181,-1.513 -5.5,-3.5 -0.333,-10.333 -0.667,-20.667 -1,-31 -0.788,-3.463 -2.454,-6.463 -5,-9 -0.977,-2.741 -1.477,-5.575 -1.5,-8.5 0.052,-9.515 0.052,-19.015 0,-28.5 0.608,-2.645 1.108,-5.312 1.5,-8 1.011,-0.837 2.178,-1.17 3.5,-1 -1.148,14.259 -1.315,28.592 -0.5,43 0.223,2.381 1.39,4.047 3.5,5 -0.167,11.338 0,22.672 0.5,34 0.383,0.556 0.883,0.889 1.5,1 0.453,0.958 1.119,1.792 2,2.5 4.333,0.333 8.667,0.667 13,1 1.905,1.815 3.572,3.815 5,6 15.408,0.816 30.741,0.649 46,-0.5 1.796,-1.293 3.463,-2.793 5,-4.5 3.856,-0.177 7.523,-0.677 11,-1.5 1.333,-0.667 2.333,-1.667 3,-3 1.159,-10.492 1.325,-21.159 0.5,-32 -0.708,-0.881 -1.542,-1.547 -2.5,-2 0,-0.333 0,-0.667 0,-1 -0.166,-10.006 0,-20.006 0.5,-30 1.333,-0.667 2.333,-1.667 3,-3 0.825,-10.175 0.658,-20.175 -0.5,-30 -0.826,-1.764 -2.159,-3.098 -4,-4 -11.34,-3.993 -16.673,0.007 -16,12 -2.281,0.423 -3.948,-0.244 -5,-2 0,-4.333 0,-8.667 0,-13 -0.126,-9.009 -0.459,-18.009 -1,-27 z"
         id="path173" />
    </g>
    <g
       id="g174"
       style="clip-rule:evenodd;fill-rule:evenodd;image-rendering:optimizeQuality;shape-rendering:geometricPrecision;text-rendering:geometricPrecision"
       transform="matrix(0.30475476,0,0,0.30475476,-110.64033,-7.1546021)">
      <path
         style="opacity:1"
         fill="#ed8a0f"
         d="m 510.5,224.5 c 5.706,-0.329 11.372,0.005 17,1 -4.601,6.27 -9.934,11.937 -16,17 -0.996,-5.963 -1.329,-11.963 -1,-18 z"
         id="path174" />
    </g>
    <g
       id="g175"
       style="clip-rule:evenodd;fill-rule:evenodd;image-rendering:optimizeQuality;shape-rendering:geometricPrecision;text-rendering:geometricPrecision"
       transform="matrix(0.30475476,0,0,0.30475476,-110.64033,-7.1546021)">
      <path
         style="opacity:1"
         fill="#eca856"
         d="m 503.5,255.5 c -0.333,0 -0.667,0 -1,0 0.332,-9.357 -0.002,-18.69 -1,-28 -7.53,1.32 -15.03,1.32 -22.5,0 -0.278,0.916 -0.778,1.582 -1.5,2 -0.274,-4.763 0.059,-9.43 1,-14 0.789,-0.283 1.456,-0.783 2,-1.5 6.333,-0.667 12.667,-0.667 19,0 1.431,0.465 2.597,1.299 3.5,2.5 0.5,12.996 0.667,25.996 0.5,39 z"
         id="path175" />
    </g>
    <g
       id="g176"
       style="clip-rule:evenodd;fill-rule:evenodd;image-rendering:optimizeQuality;shape-rendering:geometricPrecision;text-rendering:geometricPrecision"
       transform="matrix(0.30475476,0,0,0.30475476,-110.64033,-7.1546021)">
      <path
         style="opacity:1"
         fill="#c06c0a"
         d="m 481.5,216.5 c 5.676,-0.166 11.343,0.001 17,0.5 0.956,3.394 1.289,6.894 1,10.5 -6.333,0 -12.667,0 -19,0 -0.256,-3.769 0.077,-7.436 1,-11 z"
         id="path176" />
    </g>
    <g
       id="g177"
       style="clip-rule:evenodd;fill-rule:evenodd;image-rendering:optimizeQuality;shape-rendering:geometricPrecision;text-rendering:geometricPrecision"
       transform="matrix(0.30475476,0,0,0.30475476,-110.64033,-7.1546021)">
      <path
         style="opacity:1"
         fill="#ea8911"
         d="m 482.5,218.5 c 4.679,-0.166 9.345,0.001 14,0.5 0.923,2.041 1.256,4.208 1,6.5 -5,0 -10,0 -15,0 0,-2.333 0,-4.667 0,-7 z"
         id="path177" />
    </g>
    <g
       id="g178"
       style="clip-rule:evenodd;fill-rule:evenodd;image-rendering:optimizeQuality;shape-rendering:geometricPrecision;text-rendering:geometricPrecision"
       transform="matrix(0.30475476,0,0,0.30475476,-110.64033,-7.1546021)">
      <path
         style="opacity:1"
         fill="#bd894f"
         d="m 561.5,194.5 c -3.682,-0.165 -7.348,0.001 -11,0.5 -0.556,0.383 -0.889,0.883 -1,1.5 -0.958,0.453 -1.792,1.119 -2.5,2 -0.183,2.865 -0.683,5.531 -1.5,8 -0.673,-11.993 4.66,-15.993 16,-12 z"
         id="path178" />
    </g>
    <g
       id="g185"
       style="clip-rule:evenodd;fill-rule:evenodd;image-rendering:optimizeQuality;shape-rendering:geometricPrecision;text-rendering:geometricPrecision"
       transform="matrix(0.30475476,0,0,0.30475476,-110.64033,-7.1546021)">
      <path
         style="opacity:1"
         fill="#f7c280"
         d="m 502.5,255.5 c -0.453,0.958 -1.119,1.792 -2,2.5 -7,0.667 -14,0.667 -21,0 -0.544,-0.717 -1.211,-1.217 -2,-1.5 0,-0.667 -0.333,-1 -1,-1 -0.303,-8.751 0.03,-17.418 1,-26 0.722,-0.418 1.222,-1.084 1.5,-2 7.47,1.32 14.97,1.32 22.5,0 0.998,9.31 1.332,18.643 1,28 z"
         id="path185" />
    </g>
    <g
       id="g188"
       style="clip-rule:evenodd;fill-rule:evenodd;image-rendering:optimizeQuality;shape-rendering:geometricPrecision;text-rendering:geometricPrecision"
       transform="matrix(0.30475476,0,0,0.30475476,-110.64033,-7.1546021)">
      <path
         style="opacity:1"
         fill="#ab6720"
         d="m 561.5,194.5 c 1.841,0.902 3.174,2.236 4,4 0.166,9.339 0,18.673 -0.5,28 -0.615,1.616 -1.615,2.949 -3,4 -0.825,10.508 -0.659,20.842 0.5,31 0,0.333 0,0.667 0,1 -0.039,1.256 0.461,2.256 1.5,3 0.5,10.328 0.666,20.661 0.5,31 -0.667,1.333 -1.667,2.333 -3,3 -4.014,-0.166 -8.014,10e-4 -12,0.5 -1.541,1.371 -2.875,2.871 -4,4.5 -15.333,0 -30.667,0 -46,0 0,-1 0,-2 0,-3 14.259,1.148 28.592,1.315 43,0.5 1.21,-1.039 2.21,-2.206 3,-3.5 1,-0.667 2,-1.333 3,-2 0.996,0.086 1.829,-0.248 2.5,-1 0.567,-10.538 1.401,-10.538 2.5,0 2.559,0.302 4.893,-0.032 7,-1 0.667,-0.333 1.333,-0.667 2,-1 1.157,-8.156 1.323,-16.49 0.5,-25 -1.439,-1.775 -2.439,-3.775 -3,-6 -0.383,0.556 -0.883,0.889 -1.5,1 0,-12 0,-24 0,-36 0.689,-1.274 1.523,-1.274 2.5,0 0.667,-0.667 1.333,-1.333 2,-2 0.832,-9.351 0.665,-18.684 -0.5,-28 -4.265,-0.939 -8.598,-1.272 -13,-1 0.111,-0.617 0.444,-1.117 1,-1.5 3.652,-0.499 7.318,-0.665 11,-0.5 z"
         id="path188" />
    </g>
    <g
       id="g189"
       style="clip-rule:evenodd;fill-rule:evenodd;image-rendering:optimizeQuality;shape-rendering:geometricPrecision;text-rendering:geometricPrecision"
       transform="matrix(0.30475476,0,0,0.30475476,-110.64033,-7.1546021)">
      <path
         style="opacity:1"
         fill="#ae6d28"
         d="m 493.5,194.5 c 1.517,0.011 2.684,0.677 3.5,2 0.497,2.646 0.664,5.313 0.5,8 -0.809,-1.792 -1.309,-3.792 -1.5,-6 -0.5,-1.167 -1.333,-2 -2.5,-2.5 -3.333,-0.667 -6.667,-0.667 -10,0 -0.556,0.383 -0.889,0.883 -1,1.5 -0.667,0 -1,0.333 -1,1 -0.546,5.653 -1.546,11.319 -3,17 -0.941,4.57 -1.274,9.237 -1,14 -0.97,8.582 -1.303,17.249 -1,26 -0.597,0.235 -0.93,0.735 -1,1.5 0.815,1.643 1.815,3.143 3,4.5 -0.333,0 -0.667,0 -1,0 -2.11,-0.953 -3.277,-2.619 -3.5,-5 -0.815,-14.408 -0.648,-28.741 0.5,-43 1.372,-1.012 2.705,-2.012 4,-3 0.825,-4.147 1.325,-8.481 1.5,-13 0.833,-0.833 1.667,-1.667 2.5,-2.5 3.652,-0.499 7.318,-0.665 11,-0.5 z"
         id="path189" />
    </g>
    <g
       id="g190"
       style="clip-rule:evenodd;fill-rule:evenodd;image-rendering:optimizeQuality;shape-rendering:geometricPrecision;text-rendering:geometricPrecision"
       transform="matrix(0.30475476,0,0,0.30475476,-110.64033,-7.1546021)">
      <path
         style="opacity:1"
         fill="#c16d10"
         d="m 533.5,226.5 c 1.968,7.933 2.635,16.266 2,25 -8.36,0.331 -16.693,-0.002 -25,-1 7.688,-8.021 15.355,-16.021 23,-24 z"
         id="path190" />
    </g>
    <g
       id="g191"
       style="clip-rule:evenodd;fill-rule:evenodd;image-rendering:optimizeQuality;shape-rendering:geometricPrecision;text-rendering:geometricPrecision"
       transform="matrix(0.30475476,0,0,0.30475476,-110.64033,-7.1546021)">
      <path
         style="opacity:1"
         fill="#ec890c"
         d="m 531.5,231.5 c 1.953,5.574 2.62,11.574 2,18 -5.667,0 -11.333,0 -17,0 -0.149,-1.052 0.017,-2.052 0.5,-3 5.037,-4.869 9.87,-9.869 14.5,-15 z"
         id="path191" />
    </g>
    <g
       id="g203"
       style="clip-rule:evenodd;fill-rule:evenodd;image-rendering:optimizeQuality;shape-rendering:geometricPrecision;text-rendering:geometricPrecision"
       transform="matrix(0.30475476,0,0,0.30475476,-110.64033,-7.1546021)">
      <path
         style="opacity:1"
         fill="#c27625"
         d="m 549.5,196.5 c 0,0.667 0,1.333 0,2 -0.819,2.805 -1.319,5.805 -1.5,9 -0.995,0.566 -1.828,1.233 -2.5,2 -1.333,0 -2.667,0 -4,0 -1.309,2.071 -1.975,4.571 -2,7.5 0.025,2.929 0.691,5.429 2,7.5 0.167,10.672 0,21.339 -0.5,32 -0.717,0.544 -1.217,1.211 -1.5,2 -12.005,-0.167 -24.005,0 -36,0.5 -5.738,2.295 -11.738,3.128 -18,2.5 0,6.667 0,13.333 0,20 -0.667,-6.512 -1.333,-13.179 -2,-20 -2.926,-0.765 -4.926,-2.432 -6,-5 0.789,0.283 1.456,0.783 2,1.5 7,0.667 14,0.667 21,0 0.881,-0.708 1.547,-1.542 2,-2.5 0.333,0 0.667,0 1,0 3.268,1.322 6.935,1.989 11,2 3.667,-0.167 7.333,-0.333 11,-0.5 -6.846,-0.172 -13.513,-0.672 -20,-1.5 11,0 22,0 33,0 0,-16.667 0,-33.333 0,-50 0.667,-0.333 1.333,-0.667 2,-1 1.052,1.756 2.719,2.423 5,2 0.817,-2.469 1.317,-5.135 1.5,-8 0.708,-0.881 1.542,-1.547 2.5,-2 z"
         id="path203" />
    </g>
    <g
       id="g220"
       style="clip-rule:evenodd;fill-rule:evenodd;image-rendering:optimizeQuality;shape-rendering:geometricPrecision;text-rendering:geometricPrecision"
       transform="matrix(0.30475476,0,0,0.30475476,-110.64033,-7.1546021)">
      <path
         style="opacity:1"
         fill="#f7bb73"
         d="m 541.5,224.5 c 4.679,-0.166 9.345,0.001 14,0.5 0.873,1.045 1.873,1.878 3,2.5 0,12 0,24 0,36 0.33,6.368 -0.004,12.702 -1,19 -1.122,1.13 -2.456,1.797 -4,2 -22.343,0.333 -44.677,0 -67,-1 -0.363,-0.683 -0.696,-1.35 -1,-2 0,-6.667 0,-13.333 0,-20 6.262,0.628 12.262,-0.205 18,-2.5 11.995,-0.5 23.995,-0.667 36,-0.5 0.283,-0.789 0.783,-1.456 1.5,-2 0.5,-10.661 0.667,-21.328 0.5,-32 z"
         id="path220" />
    </g>
    <g
       id="g221"
       style="clip-rule:evenodd;fill-rule:evenodd;image-rendering:optimizeQuality;shape-rendering:geometricPrecision;text-rendering:geometricPrecision"
       transform="matrix(0.30475476,0,0,0.30475476,-110.64033,-7.1546021)">
      <path
         style="opacity:1"
         fill="#f5c182"
         d="m 539.5,258.5 c 1.923,-0.295 3.59,-1.128 5,-2.5 0.056,-4.08 -0.277,-8.247 -1,-12.5 0.606,-2.209 1.273,-4.376 2,-6.5 -0.5,-0.5 -1,-1 -1.5,-1.5 -0.212,-2.832 -0.379,-5.498 -0.5,-8 4.028,-1.459 7.861,-1.126 11.5,1 0.246,3.39 0.746,6.723 1.5,10 -0.276,13.313 -0.276,26.48 0,39.5 -1.241,3.349 -3.408,4.182 -6.5,2.5 -0.333,0.667 -0.667,1.333 -1,2 -0.419,-1.172 -1.085,-2.172 -2,-3 -5.47,1.315 -10.97,1.315 -16.5,0 -0.978,0.477 -1.811,1.143 -2.5,2 -1.797,-1.656 -3.964,-2.656 -6.5,-3 -0.498,1.103 -0.831,2.103 -1,3 -3.49,-0.912 -7.157,-1.245 -11,-1 -1.555,0.222 -2.889,0.889 -4,2 -0.667,-0.667 -1.333,-1.333 -2,-2 -2.604,0.263 -5.27,1.263 -8,3 -0.98,-1.481 -2.147,-2.815 -3.5,-4 -0.333,0.333 -0.667,0.667 -1,1 -1.373,-5.888 -2.04,-11.555 -2,-17 3,0.667 6,1.333 9,2 1.682,-2.054 3.349,-1.721 5,1 0.667,-1.333 1.333,-1.333 2,0 1.531,-2.772 3.698,-4.772 6.5,-6 1.687,0.26 3.187,0.927 4.5,2 3.135,-1.299 6.301,-1.299 9.5,0 4.416,-1.643 9.083,-2.977 14,-4 z"
         id="path221" />
    </g>
    <g
       id="g222"
       style="clip-rule:evenodd;fill-rule:evenodd;image-rendering:optimizeQuality;shape-rendering:geometricPrecision;text-rendering:geometricPrecision"
       transform="matrix(0.30475476,0,0,0.30475476,-110.64033,-7.1546021)">
      <path
         style="opacity:1"
         fill="#a97135"
         d="m 562.5,262.5 c 0.958,0.453 1.792,1.119 2.5,2 0.825,10.841 0.659,21.508 -0.5,32 0.166,-10.339 0,-20.672 -0.5,-31 -1.039,-0.744 -1.539,-1.744 -1.5,-3 z"
         id="path222" />
    </g>
    <g
       id="g232"
       style="clip-rule:evenodd;fill-rule:evenodd;image-rendering:optimizeQuality;shape-rendering:geometricPrecision;text-rendering:geometricPrecision"
       transform="matrix(0.30475476,0,0,0.30475476,-110.64033,-7.1546021)">
      <path
         style="opacity:1"
         fill="#e3be8e"
         d="m 477.5,261.5 c 0.333,0 0.667,0 1,0 0.333,0 0.667,0 1,0 -1.289,11.686 -1.289,23.353 0,35 -0.617,-0.111 -1.117,-0.444 -1.5,-1 -0.5,-11.328 -0.667,-22.662 -0.5,-34 z"
         id="path232" />
    </g>
    <g
       id="g234"
       style="clip-rule:evenodd;fill-rule:evenodd;image-rendering:optimizeQuality;shape-rendering:geometricPrecision;text-rendering:geometricPrecision"
       transform="matrix(0.30475476,0,0,0.30475476,-110.64033,-7.1546021)">
      <path
         style="opacity:1"
         fill="#c97212"
         d="m 562.5,293.5 c -0.058,-7.36 -0.558,-14.694 -1.5,-22 -0.333,3.667 -0.667,7.333 -1,11 -1.193,2.105 -2.86,3.772 -5,5 -0.497,2.31 -0.663,4.643 -0.5,7 2,0 4,0 6,0 -2.107,0.968 -4.441,1.302 -7,1 -1.099,-10.538 -1.933,-10.538 -2.5,0 -0.671,0.752 -1.504,1.086 -2.5,1 1.799,-3.005 2.466,-6.338 2,-10 1.21,-0.432 2.21,-1.099 3,-2 1.544,-0.203 2.878,-0.87 4,-2 0.996,-6.298 1.33,-12.632 1,-19 0.617,-0.111 1.117,-0.444 1.5,-1 0.561,2.225 1.561,4.225 3,6 0.823,8.51 0.657,16.844 -0.5,25 z"
         id="path234" />
    </g>
    <g
       id="g238"
       style="clip-rule:evenodd;fill-rule:evenodd;image-rendering:optimizeQuality;shape-rendering:geometricPrecision;text-rendering:geometricPrecision"
       transform="matrix(0.30475476,0,0,0.30475476,-110.64033,-7.1546021)">
      <path
         style="opacity:1"
         fill="#ea8711"
         d="m 562.5,293.5 c -0.667,0.333 -1.333,0.667 -2,1 -2,0 -4,0 -6,0 -0.163,-2.357 0.003,-4.69 0.5,-7 2.14,-1.228 3.807,-2.895 5,-5 0.333,-3.667 0.667,-7.333 1,-11 0.942,7.306 1.442,14.64 1.5,22 z"
         id="path238" />
    </g>
    <g
       id="g239"
       style="clip-rule:evenodd;fill-rule:evenodd;image-rendering:optimizeQuality;shape-rendering:geometricPrecision;text-rendering:geometricPrecision"
       transform="matrix(0.30475476,0,0,0.30475476,-110.64033,-7.1546021)">
      <path
         style="opacity:1"
         fill="#ba6a13"
         d="m 476.5,255.5 c 0.667,0 1,0.333 1,1 1.074,2.568 3.074,4.235 6,5 0.667,6.821 1.333,13.488 2,20 0.304,0.65 0.637,1.317 1,2 22.323,1 44.657,1.333 67,1 -0.79,0.901 -1.79,1.568 -3,2 -19.507,-0.33 -38.841,0.003 -58,1 -0.217,2.921 0.449,5.587 2,8 -0.086,0.996 0.248,1.829 1,2.5 -4.292,-0.128 -8.626,-0.461 -13,-1 -1.201,-0.903 -2.035,-2.069 -2.5,-3.5 -0.667,-8 -0.667,-16 0,-24 1.4,-2.341 1.9,-4.674 1.5,-7 -0.457,-0.798 -1.124,-1.131 -2,-1 -0.333,0 -0.667,0 -1,0 -1.185,-1.357 -2.185,-2.857 -3,-4.5 0.07,-0.765 0.403,-1.265 1,-1.5 z"
         id="path239" />
    </g>
    <g
       id="g240"
       style="clip-rule:evenodd;fill-rule:evenodd;image-rendering:optimizeQuality;shape-rendering:geometricPrecision;text-rendering:geometricPrecision"
       transform="matrix(0.30475476,0,0,0.30475476,-110.64033,-7.1546021)">
      <path
         style="opacity:1"
         fill="#e78410"
         d="m 482.5,268.5 c 0.826,4.816 1.326,9.816 1.5,15 1.066,1.599 2.566,2.599 4.5,3 0.98,2.586 1.313,5.253 1,8 -2.667,0 -5.333,0 -8,0 -0.303,-8.751 0.03,-17.418 1,-26 z"
         id="path240" />
    </g>
    <g
       id="g243"
       style="clip-rule:evenodd;fill-rule:evenodd;image-rendering:optimizeQuality;shape-rendering:geometricPrecision;text-rendering:geometricPrecision"
       transform="matrix(0.30475476,0,0,0.30475476,-110.64033,-7.1546021)">
      <path
         style="opacity:1"
         fill="#efa855"
         d="m 492.5,287.5 c 19.159,-0.997 38.493,-1.33 58,-1 0.466,3.662 -0.201,6.995 -2,10 -1,0.667 -2,1.333 -3,2 1.47,-2.818 2.47,-5.818 3,-9 -2.307,0.486 -4.473,0.486 -6.5,0 -0.216,1.884 -0.883,3.551 -2,5 -11.09,-0.822 -22.257,-1.322 -33.5,-1.5 -1.425,-1.714 -1.092,-3.047 1,-4 6.7,0.998 13.366,0.665 20,-1 -11.662,-0.5 -23.329,-0.667 -35,-0.5 z"
         id="path243" />
    </g>
    <g
       id="g250"
       style="clip-rule:evenodd;fill-rule:evenodd;image-rendering:optimizeQuality;shape-rendering:geometricPrecision;text-rendering:geometricPrecision"
       transform="matrix(0.30475476,0,0,0.30475476,-110.64033,-7.1546021)">
      <path
         style="opacity:1"
         fill="#f7c07a"
         d="m 492.5,287.5 c 11.671,-0.167 23.338,0 35,0.5 -6.634,1.665 -13.3,1.998 -20,1 -2.092,0.953 -2.425,2.286 -1,4 11.243,0.178 22.41,0.678 33.5,1.5 1.117,-1.449 1.784,-3.116 2,-5 2.027,0.486 4.193,0.486 6.5,0 -0.53,3.182 -1.53,6.182 -3,9 -0.79,1.294 -1.79,2.461 -3,3.5 -14.408,0.815 -28.741,0.648 -43,-0.5 -1.677,-2.04 -3.344,-4.04 -5,-6 -1.551,-2.413 -2.217,-5.079 -2,-8 z"
         id="path250" />
    </g>
    <g
       id="g251"
       style="clip-rule:evenodd;fill-rule:evenodd;image-rendering:optimizeQuality;shape-rendering:geometricPrecision;text-rendering:geometricPrecision"
       transform="matrix(0.30475476,0,0,0.30475476,-110.64033,-7.1546021)">
      <path
         style="opacity:1"
         fill="#e6c69a"
         d="m 561.5,299.5 c -3.477,0.823 -7.144,1.323 -11,1.5 -1.537,1.707 -3.204,3.207 -5,4.5 0,-0.333 0,-0.667 0,-1 1.125,-1.629 2.459,-3.129 4,-4.5 3.986,-0.499 7.986,-0.666 12,-0.5 z"
         id="path251" />
    </g>
    <g
       id="g253"
       style="clip-rule:evenodd;fill-rule:evenodd;image-rendering:optimizeQuality;shape-rendering:geometricPrecision;text-rendering:geometricPrecision"
       transform="matrix(0.30475476,0,0,0.30475476,-110.64033,-7.1546021)">
      <path
         style="opacity:1"
         fill="#a87236"
         d="m 479.5,261.5 c 0.876,-0.131 1.543,0.202 2,1 0.4,2.326 -0.1,4.659 -1.5,7 -0.667,8 -0.667,16 0,24 0.465,1.431 1.299,2.597 2.5,3.5 4.374,0.539 8.708,0.872 13,1 -0.752,-0.671 -1.086,-1.504 -1,-2.5 1.656,1.96 3.323,3.96 5,6 0,1 0,2 0,3 15.333,0 30.667,0 46,0 0,0.333 0,0.667 0,1 -15.259,1.149 -30.592,1.316 -46,0.5 -1.428,-2.185 -3.095,-4.185 -5,-6 -4.333,-0.333 -8.667,-0.667 -13,-1 -0.881,-0.708 -1.547,-1.542 -2,-2.5 -1.289,-11.647 -1.289,-23.314 0,-35 z"
         id="path253" />
    </g>
  </g>
</svg>
