<?xml version="1.0" encoding="UTF-8" standalone="no"?>
<!-- Created with Inkscape (http://www.inkscape.org/) -->

<svg
   width="96mm"
   height="96mm"
   viewBox="0 0 96 96"
   version="1.1"
   id="svg1"
   inkscape:version="1.4.2 (ebf0e940, 2025-05-08)"
   sodipodi:docname="motocycle.svg"
   xmlns:inkscape="http://www.inkscape.org/namespaces/inkscape"
   xmlns:sodipodi="http://sodipodi.sourceforge.net/DTD/sodipodi-0.dtd"
   xmlns="http://www.w3.org/2000/svg"
   xmlns:svg="http://www.w3.org/2000/svg">
  <sodipodi:namedview
     id="namedview1"
     pagecolor="#ffffff"
     bordercolor="#000000"
     borderopacity="0.25"
     inkscape:showpageshadow="2"
     inkscape:pageopacity="0.0"
     inkscape:pagecheckerboard="0"
     inkscape:deskcolor="#d1d1d1"
     inkscape:document-units="mm"
     inkscape:zoom="0.80444024"
     inkscape:cx="397.17059"
     inkscape:cy="163.46771"
     inkscape:window-width="1920"
     inkscape:window-height="1052"
     inkscape:window-x="0"
     inkscape:window-y="28"
     inkscape:window-maximized="0"
     inkscape:current-layer="layer1" />
  <defs
     id="defs1" />
  <g
     inkscape:label="Layer 1"
     inkscape:groupmode="layer"
     id="layer1">
    <g
       id="g2"
       style="clip-rule:evenodd;fill-rule:evenodd;image-rendering:optimizeQuality;shape-rendering:geometricPrecision;text-rendering:geometricPrecision"
       transform="matrix(0.30678225,0,0,0.30678225,-114.87488,-6.1517772)">
      <path
         style="opacity:1"
         fill="#f2e3d1"
         d="m 560.5,81.5 c -5.043,-2.515 -9.71,-5.515 -14,-9 -1.492,-5.8807 -2.325,-11.8807 -2.5,-18 -3.98,-8.5793 -10.147,-10.7459 -18.5,-6.5 -0.881,0.7083 -1.547,1.5416 -2,2.5 -0.333,0.6667 -0.667,1.3333 -1,2 -0.27,7.1405 -1.77,14.1405 -4.5,21 -5.281,2.3848 -10.114,5.3848 -14.5,9 0,-1.3333 0,-2.6667 0,-4 1.373,0.1567 2.707,-0.01 4,-0.5 2.243,-2.4671 4.91,-4.3004 8,-5.5 0.773,-2.9308 1.773,-5.7641 3,-8.5 -1.866,-7.6276 0.134,-13.961 6,-19 2.672,-0.8344 5.339,-1.6677 8,-2.5 2.661,0.8323 5.328,1.6656 8,2.5 0.837,1.0113 1.17,2.1779 1,3.5 1.333,0 2.667,0 4,0 -0.141,6.8987 0.526,13.8987 2,21 5.38,3.0538 9.714,7.0538 13,12 z"
         id="path2" />
    </g>
    <g
       id="g3"
       style="clip-rule:evenodd;fill-rule:evenodd;image-rendering:optimizeQuality;shape-rendering:geometricPrecision;text-rendering:geometricPrecision"
       transform="matrix(0.30678225,0,0,0.30678225,-114.87488,-6.1517772)">
      <path
         style="opacity:1"
         fill="#a06632"
         d="m 546.5,72.5 c -0.667,-0.3333 -1.333,-0.6667 -2,-1 -1.492,-5.88 -2.325,-11.88 -2.5,-18 -0.66,-1.8237 -1.827,-3.157 -3.5,-4 -1.446,-1.4402 -3.279,-2.1068 -5.5,-2 -3.444,0.3155 -6.61,1.3155 -9.5,3 0.453,-0.9584 1.119,-1.7917 2,-2.5 8.353,-4.2459 14.52,-2.0793 18.5,6.5 0.175,6.1193 1.008,12.1193 2.5,18 z"
         id="path3" />
    </g>
    <g
       id="g8"
       style="clip-rule:evenodd;fill-rule:evenodd;image-rendering:optimizeQuality;shape-rendering:geometricPrecision;text-rendering:geometricPrecision"
       transform="matrix(0.30678225,0,0,0.30678225,-114.87488,-6.1517772)">
      <path
         style="opacity:1"
         fill="#b55a01"
         d="m 538.5,49.5 c 1.673,0.843 2.84,2.1763 3.5,4 0.175,6.12 1.008,12.12 2.5,18 0.398,2.9243 1.731,5.2576 4,7 -0.667,0 -1,0.3333 -1,1 -2.684,-1.6933 -5.351,-3.36 -8,-5 -2.462,-3.8983 -6.129,-5.7316 -11,-5.5 -1.167,-0.5 -2,-1.3333 -2.5,-2.5 -0.684,1.2839 -0.517,2.4505 0.5,3.5 -1.803,0.6368 -3.136,1.8035 -4,3.5 -0.333,-0.5 -0.667,-1 -1,-1.5 0.744,-2.1551 1.744,-4.1551 3,-6 -1.051,-4.8862 -0.717,-9.7196 1,-14.5 4.187,-1.5653 8.52,-2.2319 13,-2 z"
         id="path8" />
    </g>
    <g
       id="g14"
       style="clip-rule:evenodd;fill-rule:evenodd;image-rendering:optimizeQuality;shape-rendering:geometricPrecision;text-rendering:geometricPrecision"
       transform="matrix(0.30678225,0,0,0.30678225,-114.87488,-6.1517772)">
      <path
         style="opacity:1"
         fill="#a9580f"
         d="m 538.5,49.5 c -4.48,-0.2319 -8.813,0.4347 -13,2 -1.717,4.7804 -2.051,9.6138 -1,14.5 -1.256,1.8449 -2.256,3.8449 -3,6 0.333,0.5 0.667,1 1,1.5 0.864,-1.6965 2.197,-2.8632 4,-3.5 -1.017,-1.0495 -1.184,-2.2161 -0.5,-3.5 0.5,1.1667 1.333,2 2.5,2.5 4.871,-0.2316 8.538,1.6017 11,5.5 -3.477,-1.7585 -7.143,-2.2585 -11,-1.5 -3.192,2.0282 -5.859,4.5282 -8,7.5 -2,1.3333 -4,2.6667 -6,4 0.203,-1.5443 0.87,-2.8777 2,-4 -0.333,-0.3333 -0.667,-0.6667 -1,-1 -2.225,1.61 -4.559,2.9434 -7,4 3.481,-3.9986 7.314,-7.6653 11.5,-11 2.265,-6.442 3.099,-13.1086 2.5,-20 0.333,-0.6667 0.667,-1.3333 1,-2 2.89,-1.6845 6.056,-2.6845 9.5,-3 2.221,-0.1068 4.054,0.5598 5.5,2 z"
         id="path14" />
    </g>
    <g
       id="g18"
       style="clip-rule:evenodd;fill-rule:evenodd;image-rendering:optimizeQuality;shape-rendering:geometricPrecision;text-rendering:geometricPrecision"
       transform="matrix(0.30678225,0,0,0.30678225,-114.87488,-6.1517772)">
      <path
         style="opacity:1"
         fill="#9c5b21"
         d="m 522.5,52.5 c 0.599,6.8914 -0.235,13.558 -2.5,20 -4.186,3.3347 -8.019,7.0014 -11.5,11 -2.608,-0.0997 -4.942,0.5669 -7,2 0.667,-1 1.333,-2 2,-3 4.386,-3.6152 9.219,-6.6152 14.5,-9 2.73,-6.8595 4.23,-13.8595 4.5,-21 z"
         id="path18" />
    </g>
    <g
       id="g25"
       style="clip-rule:evenodd;fill-rule:evenodd;image-rendering:optimizeQuality;shape-rendering:geometricPrecision;text-rendering:geometricPrecision"
       transform="matrix(0.30678225,0,0,0.30678225,-114.87488,-6.1517772)">
      <path
         style="opacity:1"
         fill="#f6e3c7"
         d="m 539.5,74.5 c 2.258,2.8566 4.258,5.8566 6,9 -2.534,-2.4862 -5.201,-4.9862 -8,-7.5 -2.942,-1.1244 -5.942,-1.4577 -9,-1 -4.952,4.7884 -8.952,10.2884 -12,16.5 0.667,0.3333 1.333,0.6667 2,1 2.522,-1.262 5.189,-1.9287 8,-2 -2.667,1.6667 -5.333,3.3333 -8,5 -2.441,1.0566 -4.775,2.39 -7,4 -0.587,-0.7334 -0.587,-1.7334 0,-3 2.997,-5.3255 5.997,-10.6588 9,-16 2.141,-2.9718 4.808,-5.4718 8,-7.5 3.857,-0.7585 7.523,-0.2585 11,1.5 z"
         id="path25" />
    </g>
    <g
       id="g26"
       style="clip-rule:evenodd;fill-rule:evenodd;image-rendering:optimizeQuality;shape-rendering:geometricPrecision;text-rendering:geometricPrecision"
       transform="matrix(0.30678225,0,0,0.30678225,-114.87488,-6.1517772)">
      <path
         style="opacity:1"
         fill="#e9e7e4"
         d="m 545.5,83.5 c 0.461,2.0504 1.128,4.0504 2,6 -0.5,0.3333 -1,0.6667 -1.5,1 -5.866,-0.8398 -11.699,-0.8398 -17.5,0 -0.667,0 -1.333,0 -2,0 -2.811,0.0713 -5.478,0.738 -8,2 -0.667,-0.3333 -1.333,-0.6667 -2,-1 3.048,-6.2116 7.048,-11.7116 12,-16.5 3.058,-0.4577 6.058,-0.1244 9,1 2.799,2.5138 5.466,5.0138 8,7.5 z"
         id="path26" />
    </g>
    <g
       id="g30"
       style="clip-rule:evenodd;fill-rule:evenodd;image-rendering:optimizeQuality;shape-rendering:geometricPrecision;text-rendering:geometricPrecision"
       transform="matrix(0.30678225,0,0,0.30678225,-114.87488,-6.1517772)">
      <path
         style="opacity:1"
         fill="#f2e3d1"
         d="m 503.5,82.5 c -0.667,1 -1.333,2 -2,3 -2,1.3333 -4,1.3333 -6,0 -9.185,-6.6306 -18.518,-6.6306 -28,0 -0.131,-0.8764 0.202,-1.5431 1,-2 7.681,-5.0359 16.014,-6.5359 25,-4.5 2.107,1.2635 3.107,3.0968 3,5.5 2.429,-0.3844 4.763,-1.051 7,-2 z"
         id="path30" />
    </g>
    <g
       id="g31"
       style="clip-rule:evenodd;fill-rule:evenodd;image-rendering:optimizeQuality;shape-rendering:geometricPrecision;text-rendering:geometricPrecision"
       transform="matrix(0.30678225,0,0,0.30678225,-114.87488,-6.1517772)">
      <path
         style="opacity:1"
         fill="#f5e3cc"
         d="m 588.5,94.5 c 13.274,-3.961 13.274,-8.461 0,-13.5 -4.189,-0.8119 -8.189,-0.6453 -12,0.5 -3.3,1.6079 -6.633,3.2745 -10,5 -2.629,-0.9667 -4.629,-2.6334 -6,-5 2.185,0.3881 4.018,1.3881 5.5,3 3.56,-1.1952 6.726,-3.0285 9.5,-5.5 9.508,-2.2639 17.675,-0.0973 24.5,6.5 1.157,3.8458 -0.009,6.6792 -3.5,8.5 -2.646,0.4974 -5.313,0.6641 -8,0.5 z"
         id="path31" />
    </g>
    <g
       id="g34"
       style="clip-rule:evenodd;fill-rule:evenodd;image-rendering:optimizeQuality;shape-rendering:geometricPrecision;text-rendering:geometricPrecision"
       transform="matrix(0.30678225,0,0,0.30678225,-114.87488,-6.1517772)">
      <path
         style="opacity:1"
         fill="#9b632e"
         d="m 495.5,85.5 c -4.113,-1.4716 -8.28,-2.8049 -12.5,-4 -4.772,0.8085 -9.272,2.3085 -13.5,4.5 -1.017,1.0495 -1.184,2.2161 -0.5,3.5 5.236,3.5625 11.07,4.8959 17.5,4 -6.014,1.4992 -12.014,0.9992 -18,-1.5 -2.184,-1.8976 -2.517,-4.0642 -1,-6.5 9.482,-6.6306 18.815,-6.6306 28,0 z"
         id="path34" />
    </g>
    <g
       id="g36"
       style="clip-rule:evenodd;fill-rule:evenodd;image-rendering:optimizeQuality;shape-rendering:geometricPrecision;text-rendering:geometricPrecision"
       transform="matrix(0.30678225,0,0,0.30678225,-114.87488,-6.1517772)">
      <path
         style="opacity:1"
         fill="#995b21"
         d="m 520.5,80.5 c -3.003,5.3412 -6.003,10.6745 -9,16 1.405,-3.8852 2.405,-7.8852 3,-12 2,-1.3333 4,-2.6667 6,-4 z"
         id="path36" />
    </g>
    <g
       id="g38"
       style="clip-rule:evenodd;fill-rule:evenodd;image-rendering:optimizeQuality;shape-rendering:geometricPrecision;text-rendering:geometricPrecision"
       transform="matrix(0.30678225,0,0,0.30678225,-114.87488,-6.1517772)">
      <path
         style="opacity:1"
         fill="#a85d17"
         d="m 539.5,74.5 c 2.649,1.64 5.316,3.3067 8,5 3.793,4.8162 6.793,10.1495 9,16 -0.174,2.361 -0.507,4.694 -1,7 -1.983,0.343 -3.317,-0.324 -4,-2 0.667,0 1.333,0 2,0 -0.664,-6.3418 -3.331,-12.0084 -8,-17 -1.742,-3.1434 -3.742,-6.1434 -6,-9 z"
         id="path38" />
    </g>
    <g
       id="g39"
       style="clip-rule:evenodd;fill-rule:evenodd;image-rendering:optimizeQuality;shape-rendering:geometricPrecision;text-rendering:geometricPrecision"
       transform="matrix(0.30678225,0,0,0.30678225,-114.87488,-6.1517772)">
      <path
         style="opacity:1"
         fill="#f7aa57"
         d="m 514.5,84.5 c -2.335,3.0315 -4.335,6.3648 -6,10 -3,1.3333 -6,1.3333 -9,0 1.491,-1.5116 3.324,-2.5116 5.5,-3 0.684,-1.2839 0.517,-2.4505 -0.5,-3.5 1.541,-1.3712 2.875,-2.8712 4,-4.5 2.441,-1.0566 4.775,-2.39 7,-4 0.333,0.3333 0.667,0.6667 1,1 -1.13,1.1223 -1.797,2.4557 -2,4 z"
         id="path39" />
    </g>
    <g
       id="g40"
       style="clip-rule:evenodd;fill-rule:evenodd;image-rendering:optimizeQuality;shape-rendering:geometricPrecision;text-rendering:geometricPrecision"
       transform="matrix(0.30678225,0,0,0.30678225,-114.87488,-6.1517772)">
      <path
         style="opacity:1"
         fill="#a75a11"
         d="m 495.5,85.5 c 2,1.3333 4,1.3333 6,0 -1.644,1.9807 -3.31,3.9807 -5,6 -0.235,-0.5967 -0.735,-0.9301 -1.5,-1 -2.476,1.9871 -5.31,2.9871 -8.5,3 -6.43,0.8959 -12.264,-0.4375 -17.5,-4 -0.684,-1.2839 -0.517,-2.4505 0.5,-3.5 4.228,-2.1915 8.728,-3.6915 13.5,-4.5 4.22,1.1951 8.387,2.5284 12.5,4 z"
         id="path40" />
    </g>
    <g
       id="g41"
       style="clip-rule:evenodd;fill-rule:evenodd;image-rendering:optimizeQuality;shape-rendering:geometricPrecision;text-rendering:geometricPrecision"
       transform="matrix(0.30678225,0,0,0.30678225,-114.87488,-6.1517772)">
      <path
         style="opacity:1"
         fill="#f0a048"
         d="m 479.5,83.5 c 4.313,0.0483 8.313,1.215 12,3.5 -1.051,1.3848 -2.384,2.3848 -4,3 -4,0.6667 -8,0.6667 -12,0 -1.544,-0.2896 -2.877,-0.9563 -4,-2 2.599,-1.795 5.266,-3.295 8,-4.5 z"
         id="path41" />
    </g>
    <g
       id="g43"
       style="clip-rule:evenodd;fill-rule:evenodd;image-rendering:optimizeQuality;shape-rendering:geometricPrecision;text-rendering:geometricPrecision"
       transform="matrix(0.30678225,0,0,0.30678225,-114.87488,-6.1517772)">
      <path
         style="opacity:1"
         fill="#f2a24c"
         d="m 547.5,79.5 c 0,-0.6667 0.333,-1 1,-1 3.958,2.7854 7.791,5.7854 11.5,9 -0.062,3.7704 1.771,5.7704 5.5,6 0.304,0.6499 0.637,1.3165 1,2 -3.374,1.2505 -6.707,1.2505 -10,0 -2.207,-5.8505 -5.207,-11.1838 -9,-16 z"
         id="path43" />
    </g>
    <g
       id="g46"
       style="clip-rule:evenodd;fill-rule:evenodd;image-rendering:optimizeQuality;shape-rendering:geometricPrecision;text-rendering:geometricPrecision"
       transform="matrix(0.30678225,0,0,0.30678225,-114.87488,-6.1517772)">
      <path
         style="opacity:1"
         fill="#ac5b12"
         d="m 544.5,71.5 c 0.667,0.3333 1.333,0.6667 2,1 4.29,3.485 8.957,6.485 14,9 1.371,2.3666 3.371,4.0333 6,5 3.367,-1.7255 6.7,-3.3921 10,-5 7.973,-0.9969 14.64,1.3364 20,7 -0.318,1.1473 -0.984,1.9806 -2,2.5 -5.19,1.9559 -10.524,2.6226 -16,2 -1.921,-0.3603 -3.588,-1.1936 -5,-2.5 -0.607,0.1236 -0.94,0.4569 -1,1 -3.265,-1.7296 -4.265,-1.0629 -3,2 0,1 0,2 0,3 -0.904,-0.709 -1.237,-1.709 -1,-3 -1,0 -2,0 -3,0 -3.729,-0.2296 -5.562,-2.2296 -5.5,-6 -3.709,-3.2146 -7.542,-6.2146 -11.5,-9 -2.269,-1.7424 -3.602,-4.0757 -4,-7 z"
         id="path46" />
    </g>
    <g
       id="g47"
       style="clip-rule:evenodd;fill-rule:evenodd;image-rendering:optimizeQuality;shape-rendering:geometricPrecision;text-rendering:geometricPrecision"
       transform="matrix(0.30678225,0,0,0.30678225,-114.87488,-6.1517772)">
      <path
         style="opacity:1"
         fill="#f5a64f"
         d="m 577.5,84.5 c 5.851,-0.826 11.184,0.3407 16,3.5 -5.125,2.2461 -10.458,2.9128 -16,2 -3.851,-1.8065 -3.851,-3.6398 0,-5.5 z"
         id="path47" />
    </g>
    <g
       id="g48"
       style="clip-rule:evenodd;fill-rule:evenodd;image-rendering:optimizeQuality;shape-rendering:geometricPrecision;text-rendering:geometricPrecision"
       transform="matrix(0.30678225,0,0,0.30678225,-114.87488,-6.1517772)">
      <path
         style="opacity:1"
         fill="#9b5e27"
         d="m 576.5,81.5 c 3.811,-1.1453 7.811,-1.3119 12,-0.5 13.274,5.039 13.274,9.539 0,13.5 -4.014,0.1655 -8.014,-0.0012 -12,-0.5 -1.484,-0.6622 -2.817,-1.4955 -4,-2.5 0.06,-0.5431 0.393,-0.8764 1,-1 1.412,1.3064 3.079,2.1397 5,2.5 5.476,0.6226 10.81,-0.0441 16,-2 1.016,-0.5194 1.682,-1.3527 2,-2.5 -5.36,-5.6636 -12.027,-7.9969 -20,-7 z"
         id="path48" />
    </g>
    <g
       id="g49"
       style="clip-rule:evenodd;fill-rule:evenodd;image-rendering:optimizeQuality;shape-rendering:geometricPrecision;text-rendering:geometricPrecision"
       transform="matrix(0.30678225,0,0,0.30678225,-114.87488,-6.1517772)">
      <path
         style="opacity:1"
         fill="#f5e3c9"
         d="m 545.5,83.5 c 4.669,4.9916 7.336,10.6582 8,17 -7.017,-6.4539 -15.351,-9.7872 -25,-10 5.801,-0.8398 11.634,-0.8398 17.5,0 0.5,-0.3333 1,-0.6667 1.5,-1 -0.872,-1.9496 -1.539,-3.9496 -2,-6 z"
         id="path49" />
    </g>
    <g
       id="g56"
       style="clip-rule:evenodd;fill-rule:evenodd;image-rendering:optimizeQuality;shape-rendering:geometricPrecision;text-rendering:geometricPrecision"
       transform="matrix(0.30678225,0,0,0.30678225,-114.87488,-6.1517772)">
      <path
         style="opacity:1"
         fill="#9f6026"
         d="m 526.5,90.5 c 0.667,0 1.333,0 2,0 9.649,0.2128 17.983,3.5461 25,10 -0.667,0 -1.333,0 -2,0 -2.574,-1.381 -5.074,-3.0476 -7.5,-5 1.083,3.6761 0.583,7.176 -1.5,10.5 -5.184,0.816 -10.184,0.65 -15,-0.5 4.679,0.166 9.345,-0.001 14,-0.5 0.752,-0.671 1.086,-1.504 1,-2.5 1.387,-1.989 1.053,-3.8221 -1,-5.5 -2.982,-0.498 -5.982,-0.6646 -9,-0.5 -0.14,-1.6238 0.527,-2.7904 2,-3.5 -1.333,-0.1667 -2.667,-0.3333 -4,-0.5 -4.009,1.0067 -8.009,2.0067 -12,3 2.667,-1.6667 5.333,-3.3333 8,-5 z"
         id="path56" />
    </g>
    <g
       id="g61"
       style="clip-rule:evenodd;fill-rule:evenodd;image-rendering:optimizeQuality;shape-rendering:geometricPrecision;text-rendering:geometricPrecision"
       transform="matrix(0.30678225,0,0,0.30678225,-114.87488,-6.1517772)">
      <path
         style="opacity:1"
         fill="#f5dfc5"
         d="m 572.5,91.5 c 1.183,1.0045 2.516,1.8378 4,2.5 3.986,0.4988 7.986,0.6655 12,0.5 -1.371,1.2868 -3.205,1.9535 -5.5,2 -3.186,-0.2441 -6.353,-0.5774 -9.5,-1 -0.251,5.007 -0.584,10.007 -1,15 -1.248,-0.834 -1.915,-2.167 -2,-4 0.292,-2.505 0.626,-5.005 1,-7.5 0.107,-2.2206 -0.56,-4.0539 -2,-5.5 -1.265,-3.0629 -0.265,-3.7296 3,-2 z"
         id="path61" />
    </g>
    <g
       id="g63"
       style="clip-rule:evenodd;fill-rule:evenodd;image-rendering:optimizeQuality;shape-rendering:geometricPrecision;text-rendering:geometricPrecision"
       transform="matrix(0.30678225,0,0,0.30678225,-114.87488,-6.1517772)">
      <path
         style="opacity:1"
         fill="#b45a05"
         d="m 508.5,83.5 c -1.125,1.6288 -2.459,3.1288 -4,4.5 1.017,1.0495 1.184,2.2161 0.5,3.5 -2.176,0.4884 -4.009,1.4884 -5.5,3 3,1.3333 6,1.3333 9,0 1.665,-3.6352 3.665,-6.9685 6,-10 -0.595,4.1148 -1.595,8.1148 -3,12 -0.587,1.2666 -0.587,2.2666 0,3 2.225,-1.61 4.559,-2.9434 7,-4 3.991,-0.9933 7.991,-1.9933 12,-3 1.333,0.1667 2.667,0.3333 4,0.5 -1.473,0.7096 -2.14,1.8762 -2,3.5 -5.834,0.5503 -7.501,3.55 -5,9 4.816,1.15 9.816,1.316 15,0.5 2.083,-3.324 2.583,-6.8239 1.5,-10.5 2.426,1.9524 4.926,3.619 7.5,5 0.683,1.676 2.017,2.343 4,2 0.493,-2.306 0.826,-4.639 1,-7 3.293,1.2505 6.626,1.2505 10,0 -0.363,-0.6835 -0.696,-1.3501 -1,-2 1,0 2,0 3,0 -0.237,1.291 0.096,2.291 1,3 0.351,4.029 -0.315,7.862 -2,11.5 1.807,2.801 3.14,5.801 4,9 -0.594,0.464 -1.261,0.631 -2,0.5 -1,0 -2,0 -3,0 -1,0 -2,0 -3,0 -0.997,-4.041 -3.331,-5.374 -7,-4 -0.667,0 -1.333,0 -2,0 -1,0 -2,0 -3,0 -5.963,-1.33 -12.296,-1.996 -19,-2 -6.704,0.004 -13.037,0.67 -19,2 -3.264,-0.824 -6.598,-1.158 -10,-1 0,1 0,2 0,3 -0.667,0 -1,0.333 -1,1 -1.333,0.333 -2.667,0.667 -4,1 -1.562,0.233 -2.895,0.9 -4,2 0.543,-9.015 1.209,-18.015 2,-27 0,-0.3333 0,-0.6667 0,-1 1.69,-2.0193 3.356,-4.0193 5,-6 2.058,-1.4331 4.392,-2.0997 7,-2 z"
         id="path63" />
    </g>
    <g
       id="g64"
       style="clip-rule:evenodd;fill-rule:evenodd;image-rendering:optimizeQuality;shape-rendering:geometricPrecision;text-rendering:geometricPrecision"
       transform="matrix(0.30678225,0,0,0.30678225,-114.87488,-6.1517772)">
      <path
         style="opacity:1"
         fill="#f5debd"
         d="m 532.5,96.5 c 3.018,-0.1646 6.018,0.002 9,0.5 2.053,1.6779 2.387,3.511 1,5.5 0.086,0.996 -0.248,1.829 -1,2.5 -4.655,0.499 -9.321,0.666 -14,0.5 -2.501,-5.45 -0.834,-8.4497 5,-9 z"
         id="path64" />
    </g>
    <g
       id="g65"
       style="clip-rule:evenodd;fill-rule:evenodd;image-rendering:optimizeQuality;shape-rendering:geometricPrecision;text-rendering:geometricPrecision"
       transform="matrix(0.30678225,0,0,0.30678225,-114.87488,-6.1517772)">
      <path
         style="opacity:1"
         fill="#f5e2c8"
         d="m 467.5,85.5 c -1.517,2.4358 -1.184,4.6024 1,6.5 5.986,2.4992 11.986,2.9992 18,1.5 3.19,-0.0129 6.024,-1.0129 8.5,-3 0.765,0.0699 1.265,0.4033 1.5,1 0,0.3333 0,0.6667 0,1 -1.786,1.9142 -2.786,4.2475 -3,7 1.182,4.061 1.182,8.061 0,12 -3.334,2.334 -7.001,4.167 -11,5.5 -2.73,0.728 -5.397,0.562 -8,-0.5 -1.419,0.505 -2.085,1.505 -2,3 -0.951,-1.419 -1.284,-3.085 -1,-5 7.656,1.235 14.489,-0.431 20.5,-5 0.499,-4.989 0.666,-9.9889 0.5,-15 -6.63,1.0464 -13.297,1.2131 -20,0.5 -2.696,-0.7648 -5.196,-1.9315 -7.5,-3.5 -0.495,-1.9727 -0.662,-3.9727 -0.5,-6 1,0 2,0 3,0 z"
         id="path65" />
    </g>
    <g
       id="g68"
       style="clip-rule:evenodd;fill-rule:evenodd;image-rendering:optimizeQuality;shape-rendering:geometricPrecision;text-rendering:geometricPrecision"
       transform="matrix(0.30678225,0,0,0.30678225,-114.87488,-6.1517772)">
      <path
         style="opacity:1"
         fill="#f1ebe2"
         d="m 542.5,102.5 c -4.619,0.814 -9.286,1.147 -14,1 0.225,-4.2997 2.559,-5.9664 7,-5 2.06,0.0716 4.06,0.4049 6,1 0.886,0.825 1.219,1.825 1,3 z"
         id="path68" />
    </g>
    <g
       id="g78"
       style="clip-rule:evenodd;fill-rule:evenodd;image-rendering:optimizeQuality;shape-rendering:geometricPrecision;text-rendering:geometricPrecision"
       transform="matrix(0.30678225,0,0,0.30678225,-114.87488,-6.1517772)">
      <path
         style="opacity:1"
         fill="#9b5719"
         d="m 551.5,113.5 c -12.667,-1.333 -25.333,-1.333 -38,0 5.963,-1.33 12.296,-1.996 19,-2 6.704,0.004 13.037,0.67 19,2 z"
         id="path78" />
    </g>
    <g
       id="g82"
       style="clip-rule:evenodd;fill-rule:evenodd;image-rendering:optimizeQuality;shape-rendering:geometricPrecision;text-rendering:geometricPrecision"
       transform="matrix(0.30678225,0,0,0.30678225,-114.87488,-6.1517772)">
      <path
         style="opacity:1"
         fill="#f2e2ce"
         d="m 572.5,110.5 c 2.967,0.489 5.633,1.655 8,3.5 4.738,-0.233 9.405,-0.066 14,0.5 0.163,2.357 -0.003,4.69 -0.5,7 -0.903,1.201 -2.069,2.035 -3.5,2.5 2.669,3.504 3.336,7.338 2,11.5 -3.26,3.935 -6.26,3.935 -9,0 2.716,1.586 5.05,1.253 7,-1 1.877,-1.159 2.377,-2.826 1.5,-5 -4.247,-3.208 -8.747,-6.042 -13.5,-8.5 3.621,0.405 7.287,0.405 11,0 2.363,-0.589 3.363,-2.089 3,-4.5 -8.124,2.593 -14.791,0.593 -20,-6 z"
         id="path82" />
    </g>
    <g
       id="g83"
       style="clip-rule:evenodd;fill-rule:evenodd;image-rendering:optimizeQuality;shape-rendering:geometricPrecision;text-rendering:geometricPrecision"
       transform="matrix(0.30678225,0,0,0.30678225,-114.87488,-6.1517772)">
      <path
         style="opacity:1"
         fill="#f4ca93"
         d="m 502.5,116.5 c 0,-0.667 0.333,-1 1,-1 2.101,-1.609 4.435,-2.109 7,-1.5 -0.673,2.929 -2.506,4.429 -5.5,4.5 -1.376,-0.184 -2.209,-0.851 -2.5,-2 z"
         id="path83" />
    </g>
    <g
       id="g84"
       style="clip-rule:evenodd;fill-rule:evenodd;image-rendering:optimizeQuality;shape-rendering:geometricPrecision;text-rendering:geometricPrecision"
       transform="matrix(0.30678225,0,0,0.30678225,-114.87488,-6.1517772)">
      <path
         style="opacity:1"
         fill="#a26326"
         d="m 569.5,93.5 c 1.44,1.4461 2.107,3.2794 2,5.5 -0.374,2.495 -0.708,4.995 -1,7.5 0.085,1.833 0.752,3.166 2,4 5.209,6.593 11.876,8.593 20,6 0.363,2.411 -0.637,3.911 -3,4.5 -3.713,0.405 -7.379,0.405 -11,0 4.753,2.458 9.253,5.292 13.5,8.5 0.877,2.174 0.377,3.841 -1.5,5 0.16,-1.699 -0.006,-3.366 -0.5,-5 -6.244,-2.446 -11.577,-6.113 -16,-11 -1.359,0.865 -2.526,1.865 -3.5,3 0.067,-1.459 -0.266,-2.792 -1,-4 0.739,0.131 1.406,-0.036 2,-0.5 -0.86,-3.199 -2.193,-6.199 -4,-9 1.685,-3.638 2.351,-7.471 2,-11.5 0,-1 0,-2 0,-3 z"
         id="path84" />
    </g>
    <g
       id="g87"
       style="clip-rule:evenodd;fill-rule:evenodd;image-rendering:optimizeQuality;shape-rendering:geometricPrecision;text-rendering:geometricPrecision"
       transform="matrix(0.30678225,0,0,0.30678225,-114.87488,-6.1517772)">
      <path
         style="opacity:1"
         fill="#a55d1b"
         d="m 496.5,92.5 c -0.791,8.985 -1.457,17.985 -2,27 -4.274,2.137 -8.608,4.304 -13,6.5 -1.293,0.49 -2.627,0.657 -4,0.5 2.135,-1.571 4.468,-2.904 7,-4 2.812,-1.576 5.478,-3.41 8,-5.5 -0.228,-0.399 -0.562,-0.565 -1,-0.5 -0.108,-2.014 0.558,-3.68 2,-5 1.182,-3.939 1.182,-7.939 0,-12 0.214,-2.7525 1.214,-5.0858 3,-7 z"
         id="path87" />
    </g>
    <g
       id="g91"
       style="clip-rule:evenodd;fill-rule:evenodd;image-rendering:optimizeQuality;shape-rendering:geometricPrecision;text-rendering:geometricPrecision"
       transform="matrix(0.30678225,0,0,0.30678225,-114.87488,-6.1517772)">
      <path
         style="opacity:1"
         fill="#955b26"
         d="m 493.5,111.5 c -1.442,1.32 -2.108,2.986 -2,5 -2.906,1.95 -5.906,3.617 -9,5 -3.662,0.466 -6.995,-0.201 -10,-2 -0.085,-1.495 0.581,-2.495 2,-3 2.603,1.062 5.27,1.228 8,0.5 3.999,-1.333 7.666,-3.166 11,-5.5 z"
         id="path91" />
    </g>
    <g
       id="g92"
       style="clip-rule:evenodd;fill-rule:evenodd;image-rendering:optimizeQuality;shape-rendering:geometricPrecision;text-rendering:geometricPrecision"
       transform="matrix(0.30678225,0,0,0.30678225,-114.87488,-6.1517772)">
      <path
         style="opacity:1"
         fill="#eeb373"
         d="m 491.5,116.5 c 0.438,-0.065 0.772,0.101 1,0.5 -2.522,2.09 -5.188,3.924 -8,5.5 -0.342,-0.838 -1.008,-1.172 -2,-1 3.094,-1.383 6.094,-3.05 9,-5 z"
         id="path92" />
    </g>
    <g
       id="g95"
       style="clip-rule:evenodd;fill-rule:evenodd;image-rendering:optimizeQuality;shape-rendering:geometricPrecision;text-rendering:geometricPrecision"
       transform="matrix(0.30678225,0,0,0.30678225,-114.87488,-6.1517772)">
      <path
         style="opacity:1"
         fill="#f0a44a"
         d="m 498.5,117.5 c 1,1 2,2 3,3 -3.035,5.662 -5.369,5.329 -7,-1 1.105,-1.1 2.438,-1.767 4,-2 z"
         id="path95" />
    </g>
    <g
       id="g96"
       style="clip-rule:evenodd;fill-rule:evenodd;image-rendering:optimizeQuality;shape-rendering:geometricPrecision;text-rendering:geometricPrecision"
       transform="matrix(0.30678225,0,0,0.30678225,-114.87488,-6.1517772)">
      <path
         style="opacity:1"
         fill="#b35802"
         d="m 557.5,119.5 c 1.632,1.332 3.299,2.665 5,4 -1.353,1.024 -2.02,2.357 -2,4 -1.853,2.708 -2.853,5.708 -3,9 -1.32,-1.442 -2.986,-2.108 -5,-2 -1.422,-1.425 -3.089,-2.425 -5,-3 -0.667,0 -1.333,0 -2,0 -8.385,-4.941 -17.051,-5.275 -26,-1 -4.026,0.343 -7.026,2.343 -9,6 -0.683,-0.363 -1.35,-0.696 -2,-1 -1.486,-3.637 -3.486,-6.97 -6,-10 -1.352,1.024 -2.685,2.024 -4,3 -0.722,0.418 -1.222,1.084 -1.5,2 -0.383,-0.556 -0.883,-0.889 -1.5,-1 -0.333,0 -0.667,0 -1,0 -0.667,0 -1.333,0 -2,0 -4.64,1.649 -9.307,3.316 -14,5 -2.109,-0.275 -3.442,-1.442 -4,-3.5 0.815,-1.643 1.815,-3.143 3,-4.5 1.373,0.157 2.707,-0.01 4,-0.5 4.392,-2.196 8.726,-4.363 13,-6.5 1.631,6.329 3.965,6.662 7,1 3.265,0.292 6.265,-0.375 9,-2 3.602,1.982 7.269,3.815 11,5.5 4,0.5 8,1 12,1.5 6.079,-1.87 12.079,-4.036 18,-6.5 2.045,-0.49 4.045,-0.323 6,0.5 z"
         id="path96" />
    </g>
    <g
       id="g97"
       style="clip-rule:evenodd;fill-rule:evenodd;image-rendering:optimizeQuality;shape-rendering:geometricPrecision;text-rendering:geometricPrecision"
       transform="matrix(0.30678225,0,0,0.30678225,-114.87488,-6.1517772)">
      <path
         style="opacity:1"
         fill="#f5b261"
         d="m 566.5,117.5 c 1,0 2,0 3,0 0.734,1.208 1.067,2.541 1,4 -2.585,4.055 -4.585,3.722 -6,-1 0.667,-1 1.333,-2 2,-3 z"
         id="path97" />
    </g>
    <g
       id="g98"
       style="clip-rule:evenodd;fill-rule:evenodd;image-rendering:optimizeQuality;shape-rendering:geometricPrecision;text-rendering:geometricPrecision"
       transform="matrix(0.30678225,0,0,0.30678225,-114.87488,-6.1517772)">
      <path
         style="opacity:1"
         fill="#a75c16"
         d="m 513.5,113.5 c -0.524,3.81 1.143,5.81 5,6 0.333,0 0.667,0 1,0 4.004,2.229 8.338,3.895 13,5 5.995,-2.33 11.995,-4.664 18,-7 0.929,-1.189 1.262,-2.522 1,-4 1,0 2,0 3,0 -0.17,1.322 0.163,2.489 1,3.5 2.24,0.977 4.573,1.477 7,1.5 -0.705,-3.043 -2.705,-4.71 -6,-5 3.669,-1.374 6.003,-0.041 7,4 1,0 2,0 3,0 -0.667,1 -1.333,2 -2,3 -2.264,-0.719 -4.597,-1.052 -7,-1 -1.955,-0.823 -3.955,-0.99 -6,-0.5 -5.921,2.464 -11.921,4.63 -18,6.5 -4,-0.5 -8,-1 -12,-1.5 -3.731,-1.685 -7.398,-3.518 -11,-5.5 -2.735,1.625 -5.735,2.292 -9,2 -1,-1 -2,-2 -3,-3 1.333,-0.333 2.667,-0.667 4,-1 0.291,1.149 1.124,1.816 2.5,2 2.994,-0.071 4.827,-1.571 5.5,-4.5 -2.565,-0.609 -4.899,-0.109 -7,1.5 0,-1 0,-2 0,-3 3.402,-0.158 6.736,0.176 10,1 z"
         id="path98" />
    </g>
    <g
       id="g99"
       style="clip-rule:evenodd;fill-rule:evenodd;image-rendering:optimizeQuality;shape-rendering:geometricPrecision;text-rendering:geometricPrecision"
       transform="matrix(0.30678225,0,0,0.30678225,-114.87488,-6.1517772)">
      <path
         style="opacity:1"
         fill="#efd4b6"
         d="m 551.5,113.5 c 0.262,1.478 -0.071,2.811 -1,4 -6.005,2.336 -12.005,4.67 -18,7 -4.662,-1.105 -8.996,-2.771 -13,-5 4.386,0.309 8.553,1.309 12.5,3 4.777,-1.901 9.61,-3.567 14.5,-5 0,-1 0,-2 0,-3 -10.333,0 -20.667,0 -31,0 0,1 0,2 0,3 1.679,-0.215 2.679,0.452 3,2 -3.857,-0.19 -5.524,-2.19 -5,-6 12.667,-1.333 25.333,-1.333 38,0 z"
         id="path99" />
    </g>
    <g
       id="g100"
       style="clip-rule:evenodd;fill-rule:evenodd;image-rendering:optimizeQuality;shape-rendering:geometricPrecision;text-rendering:geometricPrecision"
       transform="matrix(0.30678225,0,0,0.30678225,-114.87488,-6.1517772)">
      <path
         style="opacity:1"
         fill="#ebe7e1"
         d="m 519.5,119.5 c -0.333,0 -0.667,0 -1,0 -0.321,-1.548 -1.321,-2.215 -3,-2 0,-1 0,-2 0,-3 10.333,0 20.667,0 31,0 0,1 0,2 0,3 -4.89,1.433 -9.723,3.099 -14.5,5 -3.947,-1.691 -8.114,-2.691 -12.5,-3 z"
         id="path100" />
    </g>
    <g
       id="g101"
       style="clip-rule:evenodd;fill-rule:evenodd;image-rendering:optimizeQuality;shape-rendering:geometricPrecision;text-rendering:geometricPrecision"
       transform="matrix(0.30678225,0,0,0.30678225,-114.87488,-6.1517772)">
      <path
         style="opacity:1"
         fill="#f4cb97"
         d="m 554.5,113.5 c 0.667,0 1.333,0 2,0 3.295,0.29 5.295,1.957 6,5 -2.427,-0.023 -4.76,-0.523 -7,-1.5 -0.837,-1.011 -1.17,-2.178 -1,-3.5 z"
         id="path101" />
    </g>
    <g
       id="g109"
       style="clip-rule:evenodd;fill-rule:evenodd;image-rendering:optimizeQuality;shape-rendering:geometricPrecision;text-rendering:geometricPrecision"
       transform="matrix(0.30678225,0,0,0.30678225,-114.87488,-6.1517772)">
      <path
         style="opacity:1"
         fill="#f3e3cd"
         d="m 472.5,119.5 c 3.005,1.799 6.338,2.466 10,2 0.992,-0.172 1.658,0.162 2,1 -2.532,1.096 -4.865,2.429 -7,4 -3.754,1.328 -4.921,3.994 -3.5,8 2.542,2.338 5.375,2.672 8.5,1 -0.992,1.526 -2.492,2.193 -4.5,2 -2.034,0.146 -3.701,-0.52 -5,-2 -3.122,-4.757 -2.622,-8.757 1.5,-12 -1.353,-1.024 -2.02,-2.357 -2,-4 z"
         id="path109" />
    </g>
    <g
       id="g116"
       style="clip-rule:evenodd;fill-rule:evenodd;image-rendering:optimizeQuality;shape-rendering:geometricPrecision;text-rendering:geometricPrecision"
       transform="matrix(0.30678225,0,0,0.30678225,-114.87488,-6.1517772)">
      <path
         style="opacity:1"
         fill="#995e26"
         d="m 477.5,126.5 c -1.185,1.357 -2.185,2.857 -3,4.5 0.558,2.058 1.891,3.225 4,3.5 4.693,-1.684 9.36,-3.351 14,-5 -3.333,2 -6.667,4 -10,6 -3.125,1.672 -5.958,1.338 -8.5,-1 -1.421,-4.006 -0.254,-6.672 3.5,-8 z"
         id="path116" />
    </g>
    <g
       id="g117"
       style="clip-rule:evenodd;fill-rule:evenodd;image-rendering:optimizeQuality;shape-rendering:geometricPrecision;text-rendering:geometricPrecision"
       transform="matrix(0.30678225,0,0,0.30678225,-114.87488,-6.1517772)">
      <path
         style="opacity:1"
         fill="#f2ac56"
         d="m 545.5,131.5 c 0,0.333 0,0.667 0,1 -0.543,0.06 -0.876,0.393 -1,1 4.319,8.819 5.819,18.152 4.5,28 -0.748,1.832 -1.748,3.499 -3,5 -1.719,8.485 -4.219,16.652 -7.5,24.5 0.38,2.326 1.38,4.159 3,5.5 0,0.333 0,0.667 0,1 -4.963,0.754 -9.963,1.087 -15,1 -1,-0.667 -2,-1.333 -3,-2 -0.04,-4.693 -0.373,-9.359 -1,-14 -2.577,-10.147 -4.91,-20.314 -7,-30.5 0.555,-5.952 1.555,-11.786 3,-17.5 0.61,-0.891 0.943,-1.891 1,-3 0,-0.333 0,-0.667 0,-1 8.949,-4.275 17.615,-3.941 26,1 z"
         id="path117" />
    </g>
    <g
       id="g119"
       style="clip-rule:evenodd;fill-rule:evenodd;image-rendering:optimizeQuality;shape-rendering:geometricPrecision;text-rendering:geometricPrecision"
       transform="matrix(0.30678225,0,0,0.30678225,-114.87488,-6.1517772)">
      <path
         style="opacity:1"
         fill="#f6ddba"
         d="m 545.5,131.5 c 0.667,0 1.333,0 2,0 3.024,4.018 6.024,8.018 9,12 -1.644,-0.866 -3.311,-1.366 -5,-1.5 1.142,6.084 1.309,12.251 0.5,18.5 -0.383,0.556 -0.883,0.889 -1.5,1 2.057,-10.373 0.391,-20.04 -5,-29 0,-0.333 0,-0.667 0,-1 z"
         id="path119" />
    </g>
    <g
       id="g122"
       style="clip-rule:evenodd;fill-rule:evenodd;image-rendering:optimizeQuality;shape-rendering:geometricPrecision;text-rendering:geometricPrecision"
       transform="matrix(0.30678225,0,0,0.30678225,-114.87488,-6.1517772)">
      <path
         style="opacity:1"
         fill="#f6e2c9"
         d="m 519.5,131.5 c -0.057,1.109 -0.39,2.109 -1,3 -2.884,4.843 -4.55,10.177 -5,16 0.669,5.008 1.335,10.008 2,15 -1.511,-1.976 -2.344,-4.309 -2.5,-7 -0.499,-4.989 -0.666,-9.989 -0.5,-15 -2.934,0.789 -4.768,2.789 -5.5,6 -0.667,3.667 -0.667,7.333 0,11 2.913,5.063 5.079,10.396 6.5,16 -1.667,-2.667 -3.333,-5.333 -5,-8 -6.17,-10.796 -5.17,-20.796 3,-30 2.455,-2.577 5.122,-4.911 8,-7 z"
         id="path122" />
    </g>
    <g
       id="g124"
       style="clip-rule:evenodd;fill-rule:evenodd;image-rendering:optimizeQuality;shape-rendering:geometricPrecision;text-rendering:geometricPrecision"
       transform="matrix(0.30678225,0,0,0.30678225,-114.87488,-6.1517772)">
      <path
         style="opacity:1"
         fill="#e3b478"
         d="m 535.5,158.5 c -6.829,2.212 -10.495,-0.455 -11,-8 1.723,-6.033 5.723,-8.199 12,-6.5 3.258,3.526 4.425,7.693 3.5,12.5 -1.33,1.082 -2.83,1.749 -4.5,2 z"
         id="path124" />
    </g>
    <g
       id="g125"
       style="clip-rule:evenodd;fill-rule:evenodd;image-rendering:optimizeQuality;shape-rendering:geometricPrecision;text-rendering:geometricPrecision"
       transform="matrix(0.30678225,0,0,0.30678225,-114.87488,-6.1517772)">
      <path
         style="opacity:1"
         fill="#9c6029"
         d="m 580.5,133.5 c -3.008,-0.92 -5.841,-2.254 -8.5,-4 0.026,18.069 -0.974,36.069 -3,54 -0.39,2.604 -1.224,4.938 -2.5,7 3.447,-20.509 4.78,-41.176 4,-62 4.248,0.124 7.582,1.79 10,5 z"
         id="path125" />
    </g>
    <g
       id="g128"
       style="clip-rule:evenodd;fill-rule:evenodd;image-rendering:optimizeQuality;shape-rendering:geometricPrecision;text-rendering:geometricPrecision"
       transform="matrix(0.30678225,0,0,0.30678225,-114.87488,-6.1517772)">
      <path
         style="opacity:1"
         fill="#ad5d0f"
         d="m 498.5,128.5 c -0.449,17.743 0.218,35.41 2,53 -1.109,-0.057 -2.109,-0.39 -3,-1 -0.741,-2.913 -1.241,-5.913 -1.5,-9 -0.5,-13.996 -0.667,-27.996 -0.5,-42 0.617,0.111 1.117,0.444 1.5,1 0.278,-0.916 0.778,-1.582 1.5,-2 z"
         id="path128" />
    </g>
    <g
       id="g129"
       style="clip-rule:evenodd;fill-rule:evenodd;image-rendering:optimizeQuality;shape-rendering:geometricPrecision;text-rendering:geometricPrecision"
       transform="matrix(0.30678225,0,0,0.30678225,-114.87488,-6.1517772)">
      <path
         style="opacity:1"
         fill="#9d5d20"
         d="m 511.5,138.5 c -8.17,9.204 -9.17,19.204 -3,30 -5.601,-5.764 -7.434,-12.764 -5.5,-21 2.353,-2.351 4.353,-5.018 6,-8 0.671,-0.752 1.504,-1.086 2.5,-1 z"
         id="path129" />
    </g>
    <g
       id="g133"
       style="clip-rule:evenodd;fill-rule:evenodd;image-rendering:optimizeQuality;shape-rendering:geometricPrecision;text-rendering:geometricPrecision"
       transform="matrix(0.30678225,0,0,0.30678225,-114.87488,-6.1517772)">
      <path
         style="opacity:1"
         fill="#f8e8cb"
         d="m 535.5,158.5 c -5.634,1.032 -8.634,-1.302 -9,-7 -0.16,-1.855 0.507,-3.188 2,-4 2.775,-2.534 5.775,-2.534 9,0 1.557,4.107 0.891,7.774 -2,11 z"
         id="path133" />
    </g>
    <g
       id="g134"
       style="clip-rule:evenodd;fill-rule:evenodd;image-rendering:optimizeQuality;shape-rendering:geometricPrecision;text-rendering:geometricPrecision"
       transform="matrix(0.30678225,0,0,0.30678225,-114.87488,-6.1517772)">
      <path
         style="opacity:1"
         fill="#ebe8e7"
         d="m 528.5,147.5 c 3.971,-1.842 6.638,-0.676 8,3.5 -0.716,3.882 -3.049,5.715 -7,5.5 -0.659,-2.955 -0.992,-5.955 -1,-9 z"
         id="path134" />
    </g>
    <g
       id="g137"
       style="clip-rule:evenodd;fill-rule:evenodd;image-rendering:optimizeQuality;shape-rendering:geometricPrecision;text-rendering:geometricPrecision"
       transform="matrix(0.30678225,0,0,0.30678225,-114.87488,-6.1517772)">
      <path
         style="opacity:1"
         fill="#e4ae6c"
         d="m 518.5,134.5 c -1.445,5.714 -2.445,11.548 -3,17.5 2.09,10.186 4.423,20.353 7,30.5 -0.667,-1 -1.333,-2 -2,-3 -0.898,-5.035 -2.565,-9.701 -5,-14 -0.665,-4.992 -1.331,-9.992 -2,-15 0.45,-5.823 2.116,-11.157 5,-16 z"
         id="path137" />
    </g>
    <g
       id="g138"
       style="clip-rule:evenodd;fill-rule:evenodd;image-rendering:optimizeQuality;shape-rendering:geometricPrecision;text-rendering:geometricPrecision"
       transform="matrix(0.30678225,0,0,0.30678225,-114.87488,-6.1517772)">
      <path
         style="opacity:1"
         fill="#eee4d7"
         d="m 556.5,143.5 c 1.636,1.249 2.803,2.916 3.5,5 1.591,9.38 -0.575,17.713 -6.5,25 -0.876,-0.131 -1.543,0.202 -2,1 -1.367,3.956 -3.2,7.623 -5.5,11 0.496,-5.974 1.329,-11.974 2.5,-18 0.667,-2 1.333,-4 2,-6 0.617,-0.111 1.117,-0.444 1.5,-1 0.809,-6.249 0.642,-12.416 -0.5,-18.5 1.689,0.134 3.356,0.634 5,1.5 z"
         id="path138" />
    </g>
    <g
       id="g140"
       style="clip-rule:evenodd;fill-rule:evenodd;image-rendering:optimizeQuality;shape-rendering:geometricPrecision;text-rendering:geometricPrecision"
       transform="matrix(0.30678225,0,0,0.30678225,-114.87488,-6.1517772)">
      <path
         style="opacity:1"
         fill="#f5a851"
         d="m 557.5,136.5 c 0.147,-3.292 1.147,-6.292 3,-9 0.651,-0.591 1.318,-1.257 2,-2 1.649,1.148 3.149,2.481 4.5,4 1.321,18.811 0.321,37.478 -3,56 -1,2.667 -2,5.333 -3,8 -1.696,-12.419 -0.362,-24.419 4,-36 0.579,-8.097 -1.921,-15.097 -7.5,-21 z"
         id="path140" />
    </g>
    <g
       id="g146"
       style="clip-rule:evenodd;fill-rule:evenodd;image-rendering:optimizeQuality;shape-rendering:geometricPrecision;text-rendering:geometricPrecision"
       transform="matrix(0.30678225,0,0,0.30678225,-114.87488,-6.1517772)">
      <path
         style="opacity:1"
         fill="#9e632c"
         d="m 494.5,129.5 c 0.333,0 0.667,0 1,0 -0.167,14.004 0,28.004 0.5,42 0.259,3.087 0.759,6.087 1.5,9 0.387,4.489 1.387,8.823 3,13 -1.663,-1.993 -2.83,-4.326 -3.5,-7 -3.313,-18.894 -4.147,-37.894 -2.5,-57 z"
         id="path146" />
    </g>
    <g
       id="g147"
       style="clip-rule:evenodd;fill-rule:evenodd;image-rendering:optimizeQuality;shape-rendering:geometricPrecision;text-rendering:geometricPrecision"
       transform="matrix(0.30678225,0,0,0.30678225,-114.87488,-6.1517772)">
      <path
         style="opacity:1"
         fill="#f7ae57"
         d="m 508.5,135.5 c -9.207,10.474 -10.373,21.807 -3.5,34 0.667,8 0.667,16 0,24 -1.459,-1.932 -2.625,-3.932 -3.5,-6 -0.017,-2.065 -0.35,-4.065 -1,-6 -1.782,-17.59 -2.449,-35.257 -2,-53 1.315,-0.976 2.648,-1.976 4,-3 2.514,3.03 4.514,6.363 6,10 z"
         id="path147" />
    </g>
    <g
       id="g148"
       style="clip-rule:evenodd;fill-rule:evenodd;image-rendering:optimizeQuality;shape-rendering:geometricPrecision;text-rendering:geometricPrecision"
       transform="matrix(0.30678225,0,0,0.30678225,-114.87488,-6.1517772)">
      <path
         style="opacity:1"
         fill="#e1ad6e"
         d="m 545.5,132.5 c 5.391,8.96 7.057,18.627 5,29 -0.667,2 -1.333,4 -2,6 -1.856,5.387 -4.023,10.721 -6.5,16 -0.667,3.667 -0.667,7.333 0,11 0.383,0.556 0.883,0.889 1.5,1 -0.342,0.838 -1.008,1.172 -2,1 -1.62,-1.341 -2.62,-3.174 -3,-5.5 3.281,-7.848 5.781,-16.015 7.5,-24.5 1.252,-1.501 2.252,-3.168 3,-5 1.319,-9.848 -0.181,-19.181 -4.5,-28 0.124,-0.607 0.457,-0.94 1,-1 z"
         id="path148" />
    </g>
    <g
       id="g149"
       style="clip-rule:evenodd;fill-rule:evenodd;image-rendering:optimizeQuality;shape-rendering:geometricPrecision;text-rendering:geometricPrecision"
       transform="matrix(0.30678225,0,0,0.30678225,-114.87488,-6.1517772)">
      <path
         style="opacity:1"
         fill="#9e5e22"
         d="m 547.5,131.5 c 1.911,0.575 3.578,1.575 5,3 3.003,3.843 5.836,7.843 8.5,12 2,5.333 2,10.667 0,16 -4.811,8.944 -8.311,18.278 -10.5,28 0.067,1.459 -0.266,2.792 -1,4 -2.298,1.961 -4.965,2.961 -8,3 0,-0.333 0,-0.667 0,-1 0.992,0.172 1.658,-0.162 2,-1 1.25,-0.077 2.083,-0.744 2.5,-2 2.235,-6.797 4.735,-13.464 7.5,-20 5.925,-7.287 8.091,-15.62 6.5,-25 -0.697,-2.084 -1.864,-3.751 -3.5,-5 -2.976,-3.982 -5.976,-7.982 -9,-12 z"
         id="path149" />
    </g>
    <g
       id="g150"
       style="clip-rule:evenodd;fill-rule:evenodd;image-rendering:optimizeQuality;shape-rendering:geometricPrecision;text-rendering:geometricPrecision"
       transform="matrix(0.30678225,0,0,0.30678225,-114.87488,-6.1517772)">
      <path
         style="opacity:1"
         fill="#efe8e0"
         d="m 515.5,165.5 c 2.435,4.299 4.102,8.965 5,14 0.165,3.35 -0.002,6.683 -0.5,10 -1.784,-3.512 -3.284,-7.179 -4.5,-11 -0.457,-0.798 -1.124,-1.131 -2,-1 0,-0.333 0,-0.667 0,-1 -1.421,-5.604 -3.587,-10.937 -6.5,-16 -0.667,-3.667 -0.667,-7.333 0,-11 0.732,-3.211 2.566,-5.211 5.5,-6 -0.166,5.011 10e-4,10.011 0.5,15 0.156,2.691 0.989,5.024 2.5,7 z"
         id="path150" />
    </g>
    <g
       id="g155"
       style="clip-rule:evenodd;fill-rule:evenodd;image-rendering:optimizeQuality;shape-rendering:geometricPrecision;text-rendering:geometricPrecision"
       transform="matrix(0.30678225,0,0,0.30678225,-114.87488,-6.1517772)">
      <path
         style="opacity:1"
         fill="#a06025"
         d="m 508.5,168.5 c 1.667,2.667 3.333,5.333 5,8 0,0.333 0,0.667 0,1 2.398,5.527 4.398,11.193 6,17 -1.911,-0.074 -3.078,-1.074 -3.5,-3 -2.44,-7.722 -4.94,-15.389 -7.5,-23 z"
         id="path155" />
    </g>
    <g
       id="g163"
       style="clip-rule:evenodd;fill-rule:evenodd;image-rendering:optimizeQuality;shape-rendering:geometricPrecision;text-rendering:geometricPrecision"
       transform="matrix(0.30678225,0,0,0.30678225,-114.87488,-6.1517772)">
      <path
         style="opacity:1"
         fill="#f6e2c6"
         d="m 548.5,167.5 c -1.171,6.026 -2.004,12.026 -2.5,18 2.3,-3.377 4.133,-7.044 5.5,-11 0.457,-0.798 1.124,-1.131 2,-1 -2.765,6.536 -5.265,13.203 -7.5,20 -0.417,1.256 -1.25,1.923 -2.5,2 -0.617,-0.111 -1.117,-0.444 -1.5,-1 -0.667,-3.667 -0.667,-7.333 0,-11 2.477,-5.279 4.644,-10.613 6.5,-16 z"
         id="path163" />
    </g>
    <g
       id="g164"
       style="clip-rule:evenodd;fill-rule:evenodd;image-rendering:optimizeQuality;shape-rendering:geometricPrecision;text-rendering:geometricPrecision"
       transform="matrix(0.30678225,0,0,0.30678225,-114.87488,-6.1517772)">
      <path
         style="opacity:1"
         fill="#f6e2c9"
         d="m 580.5,133.5 c 0.667,0.667 1.333,1.333 2,2 -3.303,-0.939 -6.636,-1.939 -10,-3 1.493,18.773 0.66,37.44 -2.5,56 -1.059,3.303 -2.559,6.303 -4.5,9 -0.667,0 -1.333,0 -2,0 1.273,-2.213 2.273,-4.546 3,-7 1.276,-2.062 2.11,-4.396 2.5,-7 2.026,-17.931 3.026,-35.931 3,-54 2.659,1.746 5.492,3.08 8.5,4 z"
         id="path164" />
    </g>
    <g
       id="g167"
       style="clip-rule:evenodd;fill-rule:evenodd;image-rendering:optimizeQuality;shape-rendering:geometricPrecision;text-rendering:geometricPrecision"
       transform="matrix(0.30678225,0,0,0.30678225,-114.87488,-6.1517772)">
      <path
         style="opacity:1"
         fill="#f7e2c7"
         d="m 513.5,177.5 c 0.876,-0.131 1.543,0.202 2,1 1.216,3.821 2.716,7.488 4.5,11 0.498,-3.317 0.665,-6.65 0.5,-10 0.667,1 1.333,2 2,3 0.627,4.641 0.96,9.307 1,14 -1.562,-0.233 -2.895,-0.9 -4,-2 -1.602,-5.807 -3.602,-11.473 -6,-17 z"
         id="path167" />
    </g>
    <g
       id="g168"
       style="clip-rule:evenodd;fill-rule:evenodd;image-rendering:optimizeQuality;shape-rendering:geometricPrecision;text-rendering:geometricPrecision"
       transform="matrix(0.30678225,0,0,0.30678225,-114.87488,-6.1517772)">
      <path
         style="opacity:1"
         fill="#f2a852"
         d="m 556.5,223.5 c -2.059,-3.537 -3.892,-7.87 -5.5,-13 -1.095,-5.28 -1.595,-10.613 -1.5,-16 0.734,-1.208 1.067,-2.541 1,-4 2.101,-4.11 3.934,-8.444 5.5,-13 -0.062,15.356 0.105,30.689 0.5,46 z"
         id="path168" />
    </g>
    <g
       id="g171"
       style="clip-rule:evenodd;fill-rule:evenodd;image-rendering:optimizeQuality;shape-rendering:geometricPrecision;text-rendering:geometricPrecision"
       transform="matrix(0.30678225,0,0,0.30678225,-114.87488,-6.1517772)">
      <path
         style="opacity:1"
         fill="#b55c00"
         d="m 549.5,194.5 c -0.095,5.387 0.405,10.72 1.5,16 1.608,5.13 3.441,9.463 5.5,13 1.716,0.129 3.383,0.462 5,1 0,0.667 0,1.333 0,2 -0.597,0.235 -0.93,0.735 -1,1.5 1.715,3.309 2.715,6.809 3,10.5 -1.011,8.999 -3.011,17.999 -6,27 0,0.333 0,0.667 0,1 -1.333,0 -2.667,0 -4,0 2.462,-4.387 4.129,-9.054 5,-14 2.818,-6.632 2.651,-13.299 -0.5,-20 -1.116,3.256 -2.949,5.922 -5.5,8 -1.467,0.394 -2.967,0.727 -4.5,1 -11.395,-2.835 -22.561,-2.502 -33.5,1 -3.147,-1.813 -5.147,-4.48 -6,-8 -1.635,-2.916 -2.969,-6.083 -4,-9.5 0.833,-0.833 1.667,-1.667 2.5,-2.5 0.508,2.404 1.675,3.071 3.5,2 1.98,-2.295 3.147,-4.961 3.5,-8 1.878,-1.543 3.378,-3.376 4.5,-5.5 -0.667,-0.333 -1.333,-0.667 -2,-1 0.286,-4.227 0.619,-8.394 1,-12.5 2.982,0.463 5.982,0.796 9,1 5.037,0.087 10.037,-0.246 15,-1 3.035,-0.039 5.702,-1.039 8,-3 z"
         id="path171" />
    </g>
    <g
       id="g181"
       style="clip-rule:evenodd;fill-rule:evenodd;image-rendering:optimizeQuality;shape-rendering:geometricPrecision;text-rendering:geometricPrecision"
       transform="matrix(0.30678225,0,0,0.30678225,-114.87488,-6.1517772)">
      <path
         style="opacity:1"
         fill="#ae5c0d"
         d="m 519.5,130.5 c 0,0.333 0,0.667 0,1 -2.878,2.089 -5.545,4.423 -8,7 -0.996,-0.086 -1.829,0.248 -2.5,1 -1.647,2.982 -3.647,5.649 -6,8 -1.934,8.236 -0.101,15.236 5.5,21 2.56,7.611 5.06,15.278 7.5,23 0.422,1.926 1.589,2.926 3.5,3 1.105,1.1 2.438,1.767 4,2 1,0.667 2,1.333 3,2 -3.018,-0.204 -6.018,-0.537 -9,-1 -0.381,4.106 -0.714,8.273 -1,12.5 0.667,0.333 1.333,0.667 2,1 -1.122,2.124 -2.622,3.957 -4.5,5.5 -0.353,3.039 -1.52,5.705 -3.5,8 -1.825,1.071 -2.992,0.404 -3.5,-2 -0.833,0.833 -1.667,1.667 -2.5,2.5 1.031,3.417 2.365,6.584 4,9.5 -0.617,-0.111 -1.117,-0.444 -1.5,-1 -2.593,13.978 0.074,26.978 8,39 1.333,2 2.667,4 4,6 1.129,1.641 2.629,2.641 4.5,3 0.473,1.406 1.473,2.073 3,2 3.742,2.228 7.742,2.562 12,1 3.62,-1.953 6.62,-4.619 9,-8 2.363,-3.049 4.363,-6.382 6,-10 1.333,0 2.667,0 4,0 0,0.667 0.333,1 1,1 0,0.667 0,1.333 0,2 -1.752,-0.082 -2.752,0.751 -3,2.5 0.332,2.887 1.665,5.054 4,6.5 1.084,-0.185 2.084,-0.518 3,-1 1.676,0.683 2.343,2.017 2,4 -5.232,2.152 -9.398,0.819 -12.5,-4 -1.511,2.362 -3.011,4.695 -4.5,7 -1.461,4.197 -2.795,8.53 -4,13 0.772,-3.952 1.105,-7.952 1,-12 -3.281,1.352 -6.781,2.019 -10.5,2 -3.688,-0.336 -7.188,-0.669 -10.5,-1 -0.808,0.308 -1.475,0.808 -2,1.5 1.023,2.774 1.023,5.607 0,8.5 -0.788,-3.387 -1.788,-6.72 -3,-10 0.149,-1.052 -0.017,-2.052 -0.5,-3 -1.617,-2.263 -3.45,-4.263 -5.5,-6 -2.34,-1.072 -2.673,-2.739 -1,-5 -0.379,-1.713 -1.379,-2.713 -3,-3 -0.333,0 -0.667,0 -1,0 -0.333,-0.667 -0.667,-1.333 -1,-2 0.543,-0.06 0.876,-0.393 1,-1 -1.692,-4.1 -3.359,-8.1 -5,-12 -0.017,-2.065 -0.35,-4.065 -1,-6 -0.425,-5.979 0.241,-11.812 2,-17.5 -0.197,-1.579 -0.531,-1.745 -1,-0.5 -0.543,-0.06 -0.876,-0.393 -1,-1 1.63,-4.119 3.463,-8.119 5.5,-12 0.667,-6 0.667,-12 0,-18 -4.027,-2.883 -5.86,-6.883 -5.5,-12 0.875,2.068 2.041,4.068 3.5,6 0.667,-8 0.667,-16 0,-24 -6.873,-12.193 -5.707,-23.526 3.5,-34 0.65,0.304 1.317,0.637 2,1 1.974,-3.657 4.974,-5.657 9,-6 z"
         id="path181" />
    </g>
    <g
       id="g183"
       style="clip-rule:evenodd;fill-rule:evenodd;image-rendering:optimizeQuality;shape-rendering:geometricPrecision;text-rendering:geometricPrecision"
       transform="matrix(0.30678225,0,0,0.30678225,-114.87488,-6.1517772)">
      <path
         style="opacity:1"
         fill="#f5a74f"
         d="m 509.5,179.5 c 7.804,14.099 7.971,28.433 0.5,43 -0.5,-14.329 -0.667,-28.663 -0.5,-43 z"
         id="path183" />
    </g>
    <g
       id="g184"
       style="clip-rule:evenodd;fill-rule:evenodd;image-rendering:optimizeQuality;shape-rendering:geometricPrecision;text-rendering:geometricPrecision"
       transform="matrix(0.30678225,0,0,0.30678225,-114.87488,-6.1517772)">
      <path
         style="opacity:1"
         fill="#ae5b0b"
         d="m 590.5,134.5 c -1.95,2.253 -4.284,2.586 -7,1 -0.333,0 -0.667,0 -1,0 -0.667,-0.667 -1.333,-1.333 -2,-2 -2.418,-3.21 -5.752,-4.876 -10,-5 0.78,20.824 -0.553,41.491 -4,62 -0.727,2.454 -1.727,4.787 -3,7 -1,0.667 -2,1.333 -3,2 -1.539,3.365 -2.206,7.031 -2,11 0.167,2.667 0.333,5.333 0.5,8 1.559,1.717 2.392,3.717 2.5,6 -1.617,-0.538 -3.284,-0.871 -5,-1 -0.395,-15.311 -0.562,-30.644 -0.5,-46 -1.566,4.556 -3.399,8.89 -5.5,13 2.189,-9.722 5.689,-19.056 10.5,-28 2,-5.333 2,-10.667 0,-16 -2.664,-4.157 -5.497,-8.157 -8.5,-12 2.014,-0.108 3.68,0.558 5,2 5.579,5.903 8.079,12.903 7.5,21 -4.362,11.581 -5.696,23.581 -4,36 1,-2.667 2,-5.333 3,-8 3.321,-18.522 4.321,-37.189 3,-56 -1.351,-1.519 -2.851,-2.852 -4.5,-4 -0.682,0.743 -1.349,1.409 -2,2 -0.02,-1.643 0.647,-2.976 2,-4 -1.701,-1.335 -3.368,-2.668 -5,-4 2.403,-0.052 4.736,0.281 7,1 1.415,4.722 3.415,5.055 6,1 0.974,-1.135 2.141,-2.135 3.5,-3 4.423,4.887 9.756,8.554 16,11 0.494,1.634 0.66,3.301 0.5,5 z"
         id="path184" />
    </g>
    <g
       id="g199"
       style="clip-rule:evenodd;fill-rule:evenodd;image-rendering:optimizeQuality;shape-rendering:geometricPrecision;text-rendering:geometricPrecision"
       transform="matrix(0.30678225,0,0,0.30678225,-114.87488,-6.1517772)">
      <path
         style="opacity:1"
         fill="#f3a44a"
         d="m 558.5,252.5 c -0.287,-1.621 -1.287,-2.621 -3,-3 -0.236,0.747 -0.57,1.58 -1,2.5 -3.471,0.687 -3.805,-0.313 -1,-3 -1.894,-1.079 -2.227,-2.413 -1,-4 -0.744,-1.039 -1.744,-1.539 -3,-1.5 1.194,-0.772 2.194,-1.772 3,-3 2.551,-2.078 4.384,-4.744 5.5,-8 3.151,6.701 3.318,13.368 0.5,20 z"
         id="path199" />
    </g>
    <g
       id="g202"
       style="clip-rule:evenodd;fill-rule:evenodd;image-rendering:optimizeQuality;shape-rendering:geometricPrecision;text-rendering:geometricPrecision"
       transform="matrix(0.30678225,0,0,0.30678225,-114.87488,-6.1517772)">
      <path
         style="opacity:1"
         fill="#f0bf83"
         d="m 501.5,248.5 c -0.667,0 -1.333,0 -2,0 -0.441,-6.28 0.559,-12.28 3,-18 0.469,-1.245 0.803,-1.079 1,0.5 -1.759,5.688 -2.425,11.521 -2,17.5 z"
         id="path202" />
    </g>
    <g
       id="g203"
       style="clip-rule:evenodd;fill-rule:evenodd;image-rendering:optimizeQuality;shape-rendering:geometricPrecision;text-rendering:geometricPrecision"
       transform="matrix(0.30678225,0,0,0.30678225,-114.87488,-6.1517772)">
      <path
         style="opacity:1"
         fill="#a9611c"
         d="m 552.5,240.5 c -0.806,1.228 -1.806,2.228 -3,3 -0.333,0 -0.667,0 -1,0 -1,0 -2,0 -3,0 -2.361,-0.174 -4.694,-0.507 -7,-1 -6.284,-1.366 -12.618,-1.033 -19,1 -1,0 -2,0 -3,0 -0.667,-0.333 -1.333,-0.667 -2,-1 10.939,-3.502 22.105,-3.835 33.5,-1 1.533,-0.273 3.033,-0.606 4.5,-1 z"
         id="path203" />
    </g>
    <g
       id="g204"
       style="clip-rule:evenodd;fill-rule:evenodd;image-rendering:optimizeQuality;shape-rendering:geometricPrecision;text-rendering:geometricPrecision"
       transform="matrix(0.30678225,0,0,0.30678225,-114.87488,-6.1517772)">
      <path
         style="opacity:1"
         fill="#eedeca"
         d="m 492.5,129.5 c 0.667,0 1.333,0 2,0 -1.647,19.106 -0.813,38.106 2.5,57 0.67,2.674 1.837,5.007 3.5,7 0.98,2.616 2.48,4.949 4.5,7 0.667,5.667 0.667,11.333 0,17 -3.273,6.212 -6.273,12.546 -9,19 -0.667,11.667 -0.667,23.333 0,35 0.494,8.665 4.994,12.331 13.5,11 2.491,-1.668 4.658,-1.334 6.5,1 0.026,3.679 0.86,7.012 2.5,10 0.691,4.89 3.024,8.723 7,11.5 5.385,0.733 10.718,0.567 16,-0.5 0.086,0.996 -0.248,1.829 -1,2.5 -4.667,0.667 -9.333,0.667 -14,0 -2.254,-1.377 -4.42,-2.877 -6.5,-4.5 -0.333,0.333 -0.667,0.667 -1,1 -3.015,-6.605 -4.515,-13.272 -4.5,-20 -3.533,0.005 -6.7,1.005 -9.5,3 -2.545,-1.022 -5.045,-2.188 -7.5,-3.5 -1.167,-2.5 -2.333,-5 -3.5,-7.5 -2.305,-15.412 -1.972,-30.745 1,-46 1.959,-2.026 2.793,-4.192 2.5,-6.5 5.431,-4.925 7.265,-11.091 5.5,-18.5 -0.111,-3.547 -1.611,-6.214 -4.5,-8 -2.585,-4.673 -4.085,-9.673 -4.5,-15 -1.216,-15.632 -1.883,-31.299 -2,-47 -2.6,-0.807 -4.934,-0.14 -7,2 -0.671,-0.752 -1.504,-1.086 -2.5,-1 3.333,-2 6.667,-4 10,-6 z"
         id="path204" />
    </g>
    <g
       id="g205"
       style="clip-rule:evenodd;fill-rule:evenodd;image-rendering:optimizeQuality;shape-rendering:geometricPrecision;text-rendering:geometricPrecision"
       transform="matrix(0.30678225,0,0,0.30678225,-114.87488,-6.1517772)">
      <path
         style="opacity:1"
         fill="#f7e5c9"
         d="m 538.5,242.5 c -6.452,-0.522 -12.619,0.478 -18.5,3 -0.022,8.068 0.812,16.068 2.5,24 -2.817,-6.775 -4.483,-13.941 -5,-21.5 0.259,-1.787 0.925,-3.287 2,-4.5 6.382,-2.033 12.716,-2.366 19,-1 z"
         id="path205" />
    </g>
    <g
       id="g206"
       style="clip-rule:evenodd;fill-rule:evenodd;image-rendering:optimizeQuality;shape-rendering:geometricPrecision;text-rendering:geometricPrecision"
       transform="matrix(0.30678225,0,0,0.30678225,-114.87488,-6.1517772)">
      <path
         style="opacity:1"
         fill="#e8e7e5"
         d="m 538.5,242.5 c 2.306,0.493 4.639,0.826 7,1 0.935,2.613 1.102,5.279 0.5,8 -2.359,10.56 -5.192,20.893 -8.5,31 -1.992,-0.172 -3.658,0.495 -5,2 -1.431,-0.477 -2.764,-1.143 -4,-2 -1.519,-4.371 -3.519,-8.371 -6,-12 0,-0.333 0,-0.667 0,-1 -1.688,-7.932 -2.522,-15.932 -2.5,-24 5.881,-2.522 12.048,-3.522 18.5,-3 z"
         id="path206" />
    </g>
    <g
       id="g214"
       style="clip-rule:evenodd;fill-rule:evenodd;image-rendering:optimizeQuality;shape-rendering:geometricPrecision;text-rendering:geometricPrecision"
       transform="matrix(0.30678225,0,0,0.30678225,-114.87488,-6.1517772)">
      <path
         style="opacity:1"
         fill="#da9c5d"
         d="m 561.5,226.5 c 2.192,4.411 3.692,9.077 4.5,14 0.823,8.51 0.657,16.844 -0.5,25 0.323,-6.522 -0.01,-12.855 -1,-19 0.306,-2.885 -0.027,-5.552 -1,-8 -0.285,-3.691 -1.285,-7.191 -3,-10.5 0.07,-0.765 0.403,-1.265 1,-1.5 z"
         id="path214" />
    </g>
    <g
       id="g216"
       style="clip-rule:evenodd;fill-rule:evenodd;image-rendering:optimizeQuality;shape-rendering:geometricPrecision;text-rendering:geometricPrecision"
       transform="matrix(0.30678225,0,0,0.30678225,-114.87488,-6.1517772)">
      <path
         style="opacity:1"
         fill="#a16324"
         d="m 563.5,238.5 c 0.973,2.448 1.306,5.115 1,8 -1.541,6.502 -3.541,12.835 -6,19 -0.333,0 -0.667,0 -1,0 2.989,-9.001 4.989,-18.001 6,-27 z"
         id="path216" />
    </g>
    <g
       id="g217"
       style="clip-rule:evenodd;fill-rule:evenodd;image-rendering:optimizeQuality;shape-rendering:geometricPrecision;text-rendering:geometricPrecision"
       transform="matrix(0.30678225,0,0,0.30678225,-114.87488,-6.1517772)">
      <path
         style="opacity:1"
         fill="#f3ae5a"
         d="m 548.5,244.5 c 0,-0.333 0,-0.667 0,-1 0.333,0 0.667,0 1,0 1.256,-0.039 2.256,0.461 3,1.5 -1.227,1.587 -0.894,2.921 1,4 -2.805,2.687 -2.471,3.687 1,3 0.43,-0.92 0.764,-1.753 1,-2.5 1.713,0.379 2.713,1.379 3,3 -0.871,4.946 -2.538,9.613 -5,14 -1.637,3.618 -3.637,6.951 -6,10 -0.224,-2.287 -0.891,-4.453 -2,-6.5 3.418,-8.407 4.418,-16.907 3,-25.5 z"
         id="path217" />
    </g>
    <g
       id="g220"
       style="clip-rule:evenodd;fill-rule:evenodd;image-rendering:optimizeQuality;shape-rendering:geometricPrecision;text-rendering:geometricPrecision"
       transform="matrix(0.30678225,0,0,0.30678225,-114.87488,-6.1517772)">
      <path
         style="opacity:1"
         fill="#e5af70"
         d="m 548.5,244.5 c 1.418,8.593 0.418,17.093 -3,25.5 1.109,2.047 1.776,4.213 2,6.5 -2.38,3.381 -5.38,6.047 -9,8 4.902,-12.943 8.236,-26.276 10,-40 z"
         id="path220" />
    </g>
    <g
       id="g223"
       style="clip-rule:evenodd;fill-rule:evenodd;image-rendering:optimizeQuality;shape-rendering:geometricPrecision;text-rendering:geometricPrecision"
       transform="matrix(0.30678225,0,0,0.30678225,-114.87488,-6.1517772)">
      <path
         style="opacity:1"
         fill="#f0d8b3"
         d="m 499.5,248.5 c 0.667,0 1.333,0 2,0 0.65,1.935 0.983,3.935 1,6 1.641,3.9 3.308,7.9 5,12 -0.124,0.607 -0.457,0.94 -1,1 -2.333,0 -4.667,0 -7,0 0,-6.333 0,-12.667 0,-19 z"
         id="path223" />
    </g>
    <g
       id="g224"
       style="clip-rule:evenodd;fill-rule:evenodd;image-rendering:optimizeQuality;shape-rendering:geometricPrecision;text-rendering:geometricPrecision"
       transform="matrix(0.30678225,0,0,0.30678225,-114.87488,-6.1517772)">
      <path
         style="opacity:1"
         fill="#f4eadb"
         d="m 502.5,254.5 c 0.189,4.14 0.856,8.14 2,12 -1.333,0 -2.667,0 -4,0 -0.589,-4.471 0.077,-8.471 2,-12 z"
         id="path224" />
    </g>
    <g
       id="g225"
       style="clip-rule:evenodd;fill-rule:evenodd;image-rendering:optimizeQuality;shape-rendering:geometricPrecision;text-rendering:geometricPrecision"
       transform="matrix(0.30678225,0,0,0.30678225,-114.87488,-6.1517772)">
      <path
         style="opacity:1"
         fill="#f6e7ce"
         d="m 564.5,246.5 c 0.99,6.145 1.323,12.478 1,19 0,0.333 0,0.667 0,1 -2.559,0.302 -4.893,-0.032 -7,-1 2.459,-6.165 4.459,-12.498 6,-19 z"
         id="path225" />
    </g>
    <g
       id="g227"
       style="clip-rule:evenodd;fill-rule:evenodd;image-rendering:optimizeQuality;shape-rendering:geometricPrecision;text-rendering:geometricPrecision"
       transform="matrix(0.30678225,0,0,0.30678225,-114.87488,-6.1517772)">
      <path
         style="opacity:1"
         fill="#d0a87c"
         d="m 557.5,265.5 c 0.333,0 0.667,0 1,0 2.107,0.968 4.441,1.302 7,1 -2.107,0.968 -4.441,1.302 -7,1 -0.667,0 -1,-0.333 -1,-1 0,-0.333 0,-0.667 0,-1 z"
         id="path227" />
    </g>
    <g
       id="g228"
       style="clip-rule:evenodd;fill-rule:evenodd;image-rendering:optimizeQuality;shape-rendering:geometricPrecision;text-rendering:geometricPrecision"
       transform="matrix(0.30678225,0,0,0.30678225,-114.87488,-6.1517772)">
      <path
         style="opacity:1"
         fill="#9f6027"
         d="m 560.5,199.5 c -0.166,6.675 0,13.342 0.5,20 4.086,6.172 7.086,12.839 9,20 0.667,10 0.667,20 0,30 -0.667,2.667 -1.333,5.333 -2,8 -0.66,1.824 -1.827,3.157 -3.5,4 0.343,-1.983 -0.324,-3.317 -2,-4 5.146,-6.182 3.812,-8.849 -4,-8 0,-0.667 0,-1.333 0,-2 2.559,0.302 4.893,-0.032 7,-1 0,-0.333 0,-0.667 0,-1 1.157,-8.156 1.323,-16.49 0.5,-25 -0.808,-4.923 -2.308,-9.589 -4.5,-14 0,-0.667 0,-1.333 0,-2 -0.108,-2.283 -0.941,-4.283 -2.5,-6 -0.167,-2.667 -0.333,-5.333 -0.5,-8 -0.206,-3.969 0.461,-7.635 2,-11 z"
         id="path228" />
    </g>
    <g
       id="g230"
       style="clip-rule:evenodd;fill-rule:evenodd;image-rendering:optimizeQuality;shape-rendering:geometricPrecision;text-rendering:geometricPrecision"
       transform="matrix(0.30678225,0,0,0.30678225,-114.87488,-6.1517772)">
      <path
         style="opacity:1"
         fill="#9d5d20"
         d="m 497.5,180.5 c 0.891,0.61 1.891,0.943 3,1 0.65,1.935 0.983,3.935 1,6 -0.36,5.117 1.473,9.117 5.5,12 0.667,6 0.667,12 0,18 -2.037,3.881 -3.87,7.881 -5.5,12 0.124,0.607 0.457,0.94 1,1 -2.441,5.72 -3.441,11.72 -3,18 0,6.333 0,12.667 0,19 2.333,0 4.667,0 7,0 0.333,0.667 0.667,1.333 1,2 -2.747,-0.313 -5.414,0.02 -8,1 0.124,0.607 0.457,0.94 1,1 0.062,3.584 1.729,5.917 5,7 1.925,-0.09 3.092,-1.09 3.5,-3 0.78,-1.887 0.613,-3.554 -0.5,-5 0,-0.333 0,-0.667 0,-1 1.621,0.287 2.621,1.287 3,3 -1.673,2.261 -1.34,3.928 1,5 -0.575,1.911 -1.575,3.578 -3,5 -8.506,1.331 -13.006,-2.335 -13.5,-11 -0.667,-11.667 -0.667,-23.333 0,-35 2.727,-6.454 5.727,-12.788 9,-19 0.667,-5.667 0.667,-11.333 0,-17 -2.02,-2.051 -3.52,-4.384 -4.5,-7 -1.613,-4.177 -2.613,-8.511 -3,-13 z"
         id="path230" />
    </g>
    <g
       id="g231"
       style="clip-rule:evenodd;fill-rule:evenodd;image-rendering:optimizeQuality;shape-rendering:geometricPrecision;text-rendering:geometricPrecision"
       transform="matrix(0.30678225,0,0,0.30678225,-114.87488,-6.1517772)">
      <path
         style="opacity:1"
         fill="#f7d6a7"
         d="m 508.5,270.5 c 1.113,1.446 1.28,3.113 0.5,5 -0.408,1.91 -1.575,2.91 -3.5,3 -3.271,-1.083 -4.938,-3.416 -5,-7 2.448,-0.973 5.115,-1.306 8,-1 z"
         id="path231" />
    </g>
    <g
       id="g232"
       style="clip-rule:evenodd;fill-rule:evenodd;image-rendering:optimizeQuality;shape-rendering:geometricPrecision;text-rendering:geometricPrecision"
       transform="matrix(0.30678225,0,0,0.30678225,-114.87488,-6.1517772)">
      <path
         style="opacity:1"
         fill="#c09664"
         d="m 507.5,269.5 c 0.333,0 0.667,0 1,0 0,0.333 0,0.667 0,1 -2.885,-0.306 -5.552,0.027 -8,1 -0.543,-0.06 -0.876,-0.393 -1,-1 2.586,-0.98 5.253,-1.313 8,-1 z"
         id="path232" />
    </g>
    <g
       id="g233"
       style="clip-rule:evenodd;fill-rule:evenodd;image-rendering:optimizeQuality;shape-rendering:geometricPrecision;text-rendering:geometricPrecision"
       transform="matrix(0.30678225,0,0,0.30678225,-114.87488,-6.1517772)">
      <path
         style="opacity:1"
         fill="#f3ad5a"
         d="m 508.5,234.5 c 0.853,3.52 2.853,6.187 6,8 0.667,0.333 1.333,0.667 2,1 -1.096,3.913 -1.262,7.913 -0.5,12 3.028,8.47 5.528,17.137 7.5,26 -1.871,-0.359 -3.371,-1.359 -4.5,-3 -1.333,-2 -2.667,-4 -4,-6 -7.926,-12.022 -10.593,-25.022 -8,-39 0.383,0.556 0.883,0.889 1.5,1 z"
         id="path233" />
    </g>
    <g
       id="g234"
       style="clip-rule:evenodd;fill-rule:evenodd;image-rendering:optimizeQuality;shape-rendering:geometricPrecision;text-rendering:geometricPrecision"
       transform="matrix(0.30678225,0,0,0.30678225,-114.87488,-6.1517772)">
      <path
         style="opacity:1"
         fill="#ebc193"
         d="m 558.5,269.5 c 7.812,-0.849 9.146,1.818 4,8 -0.916,0.482 -1.916,0.815 -3,1 -2.335,-1.446 -3.668,-3.613 -4,-6.5 0.248,-1.749 1.248,-2.582 3,-2.5 z"
         id="path234" />
    </g>
    <g
       id="g235"
       style="clip-rule:evenodd;fill-rule:evenodd;image-rendering:optimizeQuality;shape-rendering:geometricPrecision;text-rendering:geometricPrecision"
       transform="matrix(0.30678225,0,0,0.30678225,-114.87488,-6.1517772)">
      <path
         style="opacity:1"
         fill="#8e5d32"
         d="m 558.5,272.5 c 4.549,0.432 5.049,2.099 1.5,5 -1.269,-1.405 -1.769,-3.071 -1.5,-5 z"
         id="path235" />
    </g>
    <g
       id="g236"
       style="clip-rule:evenodd;fill-rule:evenodd;image-rendering:optimizeQuality;shape-rendering:geometricPrecision;text-rendering:geometricPrecision"
       transform="matrix(0.30678225,0,0,0.30678225,-114.87488,-6.1517772)">
      <path
         style="opacity:1"
         fill="#926233"
         d="m 503.5,272.5 c 3.661,-0.15 4.661,1.35 3,4.5 -0.949,0.617 -1.782,0.451 -2.5,-0.5 -0.49,-1.293 -0.657,-2.627 -0.5,-4 z"
         id="path236" />
    </g>
    <g
       id="g237"
       style="clip-rule:evenodd;fill-rule:evenodd;image-rendering:optimizeQuality;shape-rendering:geometricPrecision;text-rendering:geometricPrecision"
       transform="matrix(0.30678225,0,0,0.30678225,-114.87488,-6.1517772)">
      <path
         style="opacity:1"
         fill="#e3b47e"
         d="m 516.5,243.5 c 1,0 2,0 3,0 -1.075,1.213 -1.741,2.713 -2,4.5 0.517,7.559 2.183,14.725 5,21.5 0,0.333 0,0.667 0,1 0.933,4.465 2.266,8.798 4,13 -1.527,0.073 -2.527,-0.594 -3,-2 -1.972,-8.863 -4.472,-17.53 -7.5,-26 -0.762,-4.087 -0.596,-8.087 0.5,-12 z"
         id="path237" />
    </g>
    <g
       id="g244"
       style="clip-rule:evenodd;fill-rule:evenodd;image-rendering:optimizeQuality;shape-rendering:geometricPrecision;text-rendering:geometricPrecision"
       transform="matrix(0.30678225,0,0,0.30678225,-114.87488,-6.1517772)">
      <path
         style="opacity:1"
         fill="#f7e4ca"
         d="m 545.5,243.5 c 1,0 2,0 3,0 0,0.333 0,0.667 0,1 -1.764,13.724 -5.098,27.057 -10,40 -4.258,1.562 -8.258,1.228 -12,-1 -1.734,-4.202 -3.067,-8.535 -4,-13 2.481,3.629 4.481,7.629 6,12 1.236,0.857 2.569,1.523 4,2 1.342,-1.505 3.008,-2.172 5,-2 3.308,-10.107 6.141,-20.44 8.5,-31 0.602,-2.721 0.435,-5.387 -0.5,-8 z"
         id="path244" />
    </g>
    <g
       id="g246"
       style="clip-rule:evenodd;fill-rule:evenodd;image-rendering:optimizeQuality;shape-rendering:geometricPrecision;text-rendering:geometricPrecision"
       transform="matrix(0.30678225,0,0,0.30678225,-114.87488,-6.1517772)">
      <path
         style="opacity:1"
         fill="#f3e5d1"
         d="m 563.5,197.5 c 0.667,0 1.333,0 2,0 -0.789,1.415 -1.456,2.915 -2,4.5 0.619,6.255 1.119,12.755 1.5,19.5 2.43,2.856 4.597,6.023 6.5,9.5 -0.333,0.333 -0.667,0.667 -1,1 0.995,2.971 1.995,5.971 3,9 -1.099,12.318 -2.265,24.818 -3.5,37.5 -1.833,1.833 -3.667,3.667 -5.5,5.5 -3.946,0.175 -7.78,0.342 -11.5,0.5 -0.333,-0.667 -0.667,-1.333 -1,-2 -1.385,1.051 -2.385,2.384 -3,4 -0.208,4.418 -0.874,8.751 -2,13 -1.076,2.579 -2.909,4.246 -5.5,5 5.076,-5.617 7.076,-12.284 6,-20 1.489,-2.305 2.989,-4.638 4.5,-7 3.102,4.819 7.268,6.152 12.5,4 1.673,-0.843 2.84,-2.176 3.5,-4 0.667,-2.667 1.333,-5.333 2,-8 0.667,-10 0.667,-20 0,-30 -1.914,-7.161 -4.914,-13.828 -9,-20 -0.5,-6.658 -0.666,-13.325 -0.5,-20 1,-0.667 2,-1.333 3,-2 z"
         id="path246" />
    </g>
    <g
       id="g248"
       style="clip-rule:evenodd;fill-rule:evenodd;image-rendering:optimizeQuality;shape-rendering:geometricPrecision;text-rendering:geometricPrecision"
       transform="matrix(0.30678225,0,0,0.30678225,-114.87488,-6.1517772)">
      <path
         style="opacity:1"
         fill="#f5e0c1"
         d="m 512.5,277.5 c 2.05,1.737 3.883,3.737 5.5,6 0.483,0.948 0.649,1.948 0.5,3 0,2.333 0,4.667 0,7 -1.64,-2.988 -2.474,-6.321 -2.5,-10 -1.842,-2.334 -4.009,-2.668 -6.5,-1 1.425,-1.422 2.425,-3.089 3,-5 z"
         id="path248" />
    </g>
    <g
       id="g250"
       style="clip-rule:evenodd;fill-rule:evenodd;image-rendering:optimizeQuality;shape-rendering:geometricPrecision;text-rendering:geometricPrecision"
       transform="matrix(0.30678225,0,0,0.30678225,-114.87488,-6.1517772)">
      <path
         style="opacity:1"
         fill="#b45a03"
         d="m 543.5,297.5 c -0.299,3.142 -1.966,5.309 -5,6.5 -5.337,1.143 -10.337,0.476 -15,-2 -1.361,-1.584 -2.028,-3.418 -2,-5.5 1.023,-2.893 1.023,-5.726 0,-8.5 0.525,-0.692 1.192,-1.192 2,-1.5 3.312,0.331 6.812,0.664 10.5,1 3.719,0.019 7.219,-0.648 10.5,-2 0.105,4.048 -0.228,8.048 -1,12 z"
         id="path250" />
    </g>
    <g
       id="g254"
       style="clip-rule:evenodd;fill-rule:evenodd;image-rendering:optimizeQuality;shape-rendering:geometricPrecision;text-rendering:geometricPrecision"
       transform="matrix(0.30678225,0,0,0.30678225,-114.87488,-6.1517772)">
      <path
         style="opacity:1"
         fill="#9b622d"
         d="m 547.5,284.5 c 1.076,7.716 -0.924,14.383 -6,20 -5.282,1.067 -10.615,1.233 -16,0.5 -3.976,-2.777 -6.309,-6.61 -7,-11.5 0,-2.333 0,-4.667 0,-7 1.212,3.28 2.212,6.613 3,10 -0.028,2.082 0.639,3.916 2,5.5 4.663,2.476 9.663,3.143 15,2 3.034,-1.191 4.701,-3.358 5,-6.5 1.205,-4.47 2.539,-8.803 4,-13 z"
         id="path254" />
    </g>
  </g>
</svg>
