<?xml version="1.0" encoding="UTF-8" standalone="no"?>
<!-- Created with Inkscape (http://www.inkscape.org/) -->

<svg
   width="96mm"
   height="96mm"
   viewBox="0 0 96 96"
   version="1.1"
   id="svg1"
   inkscape:version="1.4.2 (ebf0e940, 2025-05-08)"
   sodipodi:docname="boat.svg"
   xmlns:inkscape="http://www.inkscape.org/namespaces/inkscape"
   xmlns:sodipodi="http://sodipodi.sourceforge.net/DTD/sodipodi-0.dtd"
   xmlns="http://www.w3.org/2000/svg"
   xmlns:svg="http://www.w3.org/2000/svg">
  <sodipodi:namedview
     id="namedview1"
     pagecolor="#ffffff"
     bordercolor="#000000"
     borderopacity="0.25"
     inkscape:showpageshadow="2"
     inkscape:pageopacity="0.0"
     inkscape:pagecheckerboard="0"
     inkscape:deskcolor="#d1d1d1"
     inkscape:document-units="mm"
     inkscape:zoom="0.80444024"
     inkscape:cx="397.17059"
     inkscape:cy="262.91574"
     inkscape:window-width="1920"
     inkscape:window-height="1052"
     inkscape:window-x="0"
     inkscape:window-y="28"
     inkscape:window-maximized="0"
     inkscape:current-layer="layer1" />
  <defs
     id="defs1" />
  <g
     inkscape:label="Layer 1"
     inkscape:groupmode="layer"
     id="layer1">
    <g
       id="g7"
       style="clip-rule:evenodd;fill-rule:evenodd;image-rendering:optimizeQuality;shape-rendering:geometricPrecision;text-rendering:geometricPrecision"
       transform="matrix(0.26458333,0,0,0.26458333,-286.55502,3.8386708)">
      <path
         style="opacity:1"
         fill="#f1e3d1"
         d="m 1263.5,7.5 c -5.07,5.7326 -9.74,11.7326 -14,18 -5.17,6.9948 -9.83,14.3282 -14,22 -0.39,-5.1863 0.94,-9.3529 4,-12.5 -0.33,-0.3333 -0.67,-0.6667 -1,-1 4.88,-1.7427 7.54,-5.2427 8,-10.5 2.29,-2.9409 4.79,-5.6075 7.5,-8 1.08,-3.413 3.24,-5.91295 6.5,-7.5 0.95,-0.48278 1.95,-0.64945 3,-0.5 z"
         id="path7" />
    </g>
    <g
       id="g8"
       style="clip-rule:evenodd;fill-rule:evenodd;image-rendering:optimizeQuality;shape-rendering:geometricPrecision;text-rendering:geometricPrecision"
       transform="matrix(0.26458333,0,0,0.26458333,-286.55502,3.8386708)">
      <path
         style="opacity:1"
         fill="#925928"
         d="m 1263.5,7.5 c 1.05,-0.14945 2.05,0.01722 3,0.5 3.24,3.7276 6.24,7.5609 9,11.5 -3.7,-3.1974 -7.2,-6.5307 -10.5,-10 -5.33,5.1633 -10.5,10.4966 -15.5,16 4.26,-6.2674 8.93,-12.2674 14,-18 z"
         id="path8" />
    </g>
    <g
       id="g10"
       style="clip-rule:evenodd;fill-rule:evenodd;image-rendering:optimizeQuality;shape-rendering:geometricPrecision;text-rendering:geometricPrecision"
       transform="matrix(0.26458333,0,0,0.26458333,-286.55502,3.8386708)">
      <path
         style="opacity:1"
         fill="#f4e0c9"
         d="m 1281.5,25.5 c 3.25,3.4294 6.42,7.0961 9.5,11 3.29,7.8735 6.95,15.5401 11,23 1.15,2.8926 1.65,5.8926 1.5,9 -2.42,-6.5902 -5.42,-12.9235 -9,-19 -3.81,-8.2923 -8.15,-16.2923 -13,-24 z"
         id="path10" />
    </g>
    <g
       id="g14"
       style="clip-rule:evenodd;fill-rule:evenodd;image-rendering:optimizeQuality;shape-rendering:geometricPrecision;text-rendering:geometricPrecision"
       transform="matrix(0.26458333,0,0,0.26458333,-286.55502,3.8386708)">
      <path
         style="opacity:1"
         fill="#f1942d"
         d="m 1312.5,156.5 c 1.68,37.022 -1.15,73.688 -8.5,110 -1.48,3.163 -3.98,4.996 -7.5,5.5 -21.33,3.314 -42.66,3.314 -64,0 -2.53,-0.516 -4.7,-1.683 -6.5,-3.5 -7.47,-30.095 -9.97,-60.428 -7.5,-91 1.33,2.667 2.67,2.667 4,0 1.25,23.557 3.09,47.224 5.5,71 0.19,6.251 1.69,12.084 4.5,17.5 4.22,1.204 8.55,1.87 13,2 13.33,0.667 26.67,0.667 40,0 4.12,-0.143 8.12,-0.81 12,-2 3.4,-13.587 5.57,-27.42 6.5,-41.5 2.24,-36.361 1.91,-72.694 -1,-109 -2.94,-22.3609 -9.27,-43.6943 -19,-64 -1.96,-2.6353 -4.46,-4.4686 -7.5,-5.5 -8,-0.6667 -16,-0.6667 -24,0 -2.09,0.7922 -3.92,1.9588 -5.5,3.5 -14.2,27.1765 -21.37,56.176 -21.5,87 -1,0 -2,0 -3,0 -1.33,0 -2.67,0 -4,0 1.39,-26.88 6.89,-52.8802 16.5,-78 3.26,-6.8513 6.76,-13.518 10.5,-20 0,-0.3333 0,-0.6667 0,-1 5.55,-8.5564 11.88,-16.5564 19,-24 7.08,6.5762 13.24,13.9096 18.5,22 20.32,37.6277 30.16,77.961 29.5,121 z"
         id="path14" />
    </g>
    <g
       id="g15"
       style="clip-rule:evenodd;fill-rule:evenodd;image-rendering:optimizeQuality;shape-rendering:geometricPrecision;text-rendering:geometricPrecision"
       transform="matrix(0.26458333,0,0,0.26458333,-286.55502,3.8386708)">
      <path
         style="opacity:1"
         fill="#b15503"
         d="m 1263.5,16.5 c 1.87,0.3588 3.37,1.3588 4.5,3 4.39,6.4476 5.89,13.4476 4.5,21 -5.22,1.3042 -10.39,1.3042 -15.5,0 -2.18,-9.2424 -0.02,-17.2424 6.5,-24 z"
         id="path15" />
    </g>
    <g
       id="g16"
       style="clip-rule:evenodd;fill-rule:evenodd;image-rendering:optimizeQuality;shape-rendering:geometricPrecision;text-rendering:geometricPrecision"
       transform="matrix(0.26458333,0,0,0.26458333,-286.55502,3.8386708)">
      <path
         style="opacity:1"
         fill="#f1952c"
         d="m 1263.5,18.5 c 1,-0.0858 1.83,0.2476 2.5,1 4.02,6.0713 5.85,12.738 5.5,20 -4.33,0 -8.67,0 -13,0 -0.17,-3.6817 0,-7.3484 0.5,-11 1.32,-3.465 2.82,-6.7983 4.5,-10 z"
         id="path16" />
    </g>
    <g
       id="g17"
       style="clip-rule:evenodd;fill-rule:evenodd;image-rendering:optimizeQuality;shape-rendering:geometricPrecision;text-rendering:geometricPrecision"
       transform="matrix(0.26458333,0,0,0.26458333,-286.55502,3.8386708)">
      <path
         style="opacity:1"
         fill="#91531c"
         d="m 1249.5,25.5 c -2.24,3.5945 -3.57,7.5945 -4,12 0,0.3333 0,0.6667 0,1 -1.52,0.0106 -2.68,0.6772 -3.5,2 -5.94,9.6515 -10.6,19.9849 -14,31 -0.74,2.096 -1.9,3.7627 -3.5,5 1.33,-4.3333 2.67,-8.6667 4,-13 2.33,-5.3289 4.66,-10.6622 7,-16 4.17,-7.6718 8.83,-15.0052 14,-22 z"
         id="path17" />
    </g>
    <g
       id="g20"
       style="clip-rule:evenodd;fill-rule:evenodd;image-rendering:optimizeQuality;shape-rendering:geometricPrecision;text-rendering:geometricPrecision"
       transform="matrix(0.26458333,0,0,0.26458333,-286.55502,3.8386708)">
      <path
         style="opacity:1"
         fill="#9e6432"
         d="m 1294.5,49.5 c 3.58,6.0765 6.58,12.4098 9,19 0.87,3.2893 1.54,6.6226 2,10 -2.89,-7.4112 -6.06,-14.7446 -9.5,-22 -0.98,-2.24 -1.48,-4.5733 -1.5,-7 z"
         id="path20" />
    </g>
    <g
       id="g21"
       style="clip-rule:evenodd;fill-rule:evenodd;image-rendering:optimizeQuality;shape-rendering:geometricPrecision;text-rendering:geometricPrecision"
       transform="matrix(0.26458333,0,0,0.26458333,-286.55502,3.8386708)">
      <path
         style="opacity:1"
         fill="#a55205"
         d="m 1245.5,38.5 c -3.74,6.482 -7.24,13.1487 -10.5,20 -9.61,25.1198 -15.11,51.12 -16.5,78 -0.33,0 -0.67,0 -1,0 -0.36,-14.991 1.47,-29.657 5.5,-44 1.05,-4.9482 1.55,-9.9482 1.5,-15 0,-0.3333 0,-0.6667 0,-1 1.6,-1.2373 2.76,-2.904 3.5,-5 3.4,-11.0151 8.06,-21.3485 14,-31 0.82,-1.3228 1.98,-1.9894 3.5,-2 z"
         id="path21" />
    </g>
    <g
       id="g23"
       style="clip-rule:evenodd;fill-rule:evenodd;image-rendering:optimizeQuality;shape-rendering:geometricPrecision;text-rendering:geometricPrecision"
       transform="matrix(0.26458333,0,0,0.26458333,-286.55502,3.8386708)">
      <path
         style="opacity:1"
         fill="#f5e1c9"
         d="m 1228.5,63.5 c -1.33,4.3333 -2.67,8.6667 -4,13 0,0.3333 0,0.6667 0,1 -5.76,19.4641 -9.09,39.464 -10,60 -0.33,0 -0.67,0 -1,0 -0.65,-0.949 -0.99,-2.115 -1,-3.5 1.42,-9.465 2.59,-18.965 3.5,-28.5 2.44,-13.6131 5.94,-26.9464 10.5,-40 0.25,-1.2133 0.91,-1.88 2,-2 z"
         id="path23" />
    </g>
    <g
       id="g28"
       style="clip-rule:evenodd;fill-rule:evenodd;image-rendering:optimizeQuality;shape-rendering:geometricPrecision;text-rendering:geometricPrecision"
       transform="matrix(0.26458333,0,0,0.26458333,-286.55502,3.8386708)">
      <path
         style="opacity:1"
         fill="#aa5509"
         d="m 1275.5,19.5 c 2.36,1.6939 4.36,3.6939 6,6 4.85,7.7077 9.19,15.7077 13,24 0.02,2.4267 0.52,4.76 1.5,7 3.44,7.2554 6.61,14.5888 9.5,22 1.62,11.3913 3.79,22.725 6.5,34 0.47,10.672 0.97,21.339 1.5,32 0,4 0,8 0,12 -0.33,0 -0.67,0 -1,0 0.66,-43.039 -9.18,-83.3723 -29.5,-121 -5.26,-8.0904 -11.42,-15.4238 -18.5,-22 -7.12,7.4436 -13.45,15.4436 -19,24 0.43,-4.4055 1.76,-8.4055 4,-12 5,-5.5034 10.17,-10.8367 15.5,-16 3.3,3.4693 6.8,6.8026 10.5,10 z"
         id="path28" />
    </g>
    <g
       id="g31"
       style="clip-rule:evenodd;fill-rule:evenodd;image-rendering:optimizeQuality;shape-rendering:geometricPrecision;text-rendering:geometricPrecision"
       transform="matrix(0.26458333,0,0,0.26458333,-286.55502,3.8386708)">
      <path
         style="opacity:1"
         fill="#9c5a1e"
         d="m 1224.5,77.5 c 0.05,5.0518 -0.45,10.0518 -1.5,15 -4.03,14.343 -5.86,29.009 -5.5,44 -0.89,0.61 -1.89,0.943 -3,1 0.91,-20.536 4.24,-40.5359 10,-60 z"
         id="path31" />
    </g>
    <g
       id="g40"
       style="clip-rule:evenodd;fill-rule:evenodd;image-rendering:optimizeQuality;shape-rendering:geometricPrecision;text-rendering:geometricPrecision"
       transform="matrix(0.26458333,0,0,0.26458333,-286.55502,3.8386708)">
      <path
         style="opacity:1"
         fill="#f2830c"
         d="m 1234.5,144.5 c -0.67,-1 -1.33,-2 -2,-3 -1.19,-4.675 -2.03,-9.341 -2.5,-14 6.46,-4.543 13.63,-7.21 21.5,-8 0.33,6.368 0,12.702 -1,19 -5.59,1.47 -10.93,3.47 -16,6 z"
         id="path40" />
    </g>
    <g
       id="g43"
       style="clip-rule:evenodd;fill-rule:evenodd;image-rendering:optimizeQuality;shape-rendering:geometricPrecision;text-rendering:geometricPrecision"
       transform="matrix(0.26458333,0,0,0.26458333,-286.55502,3.8386708)">
      <path
         style="opacity:1"
         fill="#872806"
         d="m 1217.5,136.5 c 0.33,0 0.67,0 1,0 1.33,0 2.67,0 4,0 3.73,0.688 7.06,2.354 10,5 0.67,1 1.33,2 2,3 1.6,5.863 1.27,11.53 -1,17 -1.19,2.251 -2.19,4.585 -3,7 -2.64,2.974 -5.3,5.974 -8,9 -1.33,2.667 -2.67,2.667 -4,0 -0.33,-1 -1,-1.667 -2,-2 -0.33,-0.667 -0.67,-1.333 -1,-2 0,-0.667 0,-1.333 0,-2 1.28,1.952 2.95,3.618 5,5 6.82,-6.464 11.15,-14.298 13,-23.5 0.64,-7.022 -2.36,-11.689 -9,-14 -3.37,-0.543 -6.7,-0.376 -10,0.5 0,-0.667 0,-1.333 0,-2 1.11,-0.057 2.11,-0.39 3,-1 z"
         id="path43" />
    </g>
    <g
       id="g44"
       style="clip-rule:evenodd;fill-rule:evenodd;image-rendering:optimizeQuality;shape-rendering:geometricPrecision;text-rendering:geometricPrecision"
       transform="matrix(0.26458333,0,0,0.26458333,-286.55502,3.8386708)">
      <path
         style="opacity:1"
         fill="#b65301"
         d="m 1222.5,177.5 c 2.7,-3.026 5.36,-6.026 8,-9 -0.84,6.059 -2.01,12.059 -3.5,18 -0.5,4.655 -0.67,9.321 -0.5,14 25.33,0 50.67,0 76,0 0.56,-6.232 -0.27,-12.232 -2.5,-18 -0.82,-11.776 -2.32,-23.442 -4.5,-35 -3.88,0.415 -7.54,-0.085 -11,-1.5 2.67,-0.333 5.33,-0.667 8,-1 -4.57,-1.787 -9.24,-3.287 -14,-4.5 -1.54,0.29 -2.88,0.956 -4,2 -0.89,-0.825 -1.22,-1.825 -1,-3 -6,0 -12,0 -18,0 0,2.667 0,5.333 0,8 -6.33,0 -12.67,0 -19,0 0,2 0,4 0,6 6.34,-0.166 12.68,0 19,0.5 0.5,0.5 1,1 1.5,1.5 7.93,22.064 0.76,29.897 -21.5,23.5 -0.65,-5.933 -1.31,-11.766 -2,-17.5 2.27,-5.47 2.6,-11.137 1,-17 5.07,-2.53 10.41,-4.53 16,-6 1,-6.298 1.33,-12.632 1,-19 -7.87,0.79 -15.04,3.457 -21.5,8 0.47,4.659 1.31,9.325 2.5,14 -2.94,-2.646 -6.27,-4.312 -10,-5 1,0 2,0 3,0 0.13,-30.824 7.3,-59.8235 21.5,-87 1.58,-1.5412 3.41,-2.7078 5.5,-3.5 8,-0.6667 16,-0.6667 24,0 3.04,1.0314 5.54,2.8647 7.5,5.5 9.73,20.3057 16.06,41.6391 19,64 2.91,36.306 3.24,72.639 1,109 -0.93,14.08 -3.1,27.913 -6.5,41.5 -3.88,1.19 -7.88,1.857 -12,2 -13.33,0.667 -26.67,0.667 -40,0 -4.45,-0.13 -8.78,-0.796 -13,-2 -2.81,-5.416 -4.31,-11.249 -4.5,-17.5 -2.41,-23.776 -4.25,-47.443 -5.5,-71 z"
         id="path44" />
    </g>
    <g
       id="g45"
       style="clip-rule:evenodd;fill-rule:evenodd;image-rendering:optimizeQuality;shape-rendering:geometricPrecision;text-rendering:geometricPrecision"
       transform="matrix(0.26458333,0,0,0.26458333,-286.55502,3.8386708)">
      <path
         style="opacity:1"
         fill="#f1840a"
         d="m 1276.5,118.5 c 8.23,1.354 15.9,4.188 23,8.5 0.88,6.121 -0.79,11.621 -5,16.5 -5.95,-2.206 -11.95,-4.206 -18,-6 0,-6.333 0,-12.667 0,-19 z"
         id="path45" />
    </g>
    <g
       id="g46"
       style="clip-rule:evenodd;fill-rule:evenodd;image-rendering:optimizeQuality;shape-rendering:geometricPrecision;text-rendering:geometricPrecision"
       transform="matrix(0.26458333,0,0,0.26458333,-286.55502,3.8386708)">
      <path
         style="opacity:1"
         fill="#ec810b"
         d="m 1256.5,117.5 c 6.05,-0.197 12.05,0.137 18,1 0,6.333 0,12.667 0,19 -7,0 -14,0 -21,0 0,-6.333 0,-12.667 0,-19 1.29,0.237 2.29,-0.096 3,-1 z"
         id="path46" />
    </g>
    <g
       id="g47"
       style="clip-rule:evenodd;fill-rule:evenodd;image-rendering:optimizeQuality;shape-rendering:geometricPrecision;text-rendering:geometricPrecision"
       transform="matrix(0.26458333,0,0,0.26458333,-286.55502,3.8386708)">
      <path
         style="opacity:1"
         fill="#f0912d"
         d="m 1254.5,110.5 c 15.79,-0.858 31.12,1.309 46,6.5 1.11,2.737 1.28,5.571 0.5,8.5 -11.44,-7.106 -23.94,-10.106 -37.5,-9 -12.66,-1.237 -24.16,1.763 -34.5,9 -0.78,-2.929 -0.61,-5.763 0.5,-8.5 8.25,-2.978 16.58,-5.145 25,-6.5 z"
         id="path47" />
    </g>
    <g
       id="g48"
       style="clip-rule:evenodd;fill-rule:evenodd;image-rendering:optimizeQuality;shape-rendering:geometricPrecision;text-rendering:geometricPrecision"
       transform="matrix(0.26458333,0,0,0.26458333,-286.55502,3.8386708)">
      <path
         style="opacity:1"
         fill="#dd7504"
         d="m 1260.5,67.5 c 3.02,-0.1646 6.02,0.002 9,0.5 0.83,0.8333 1.67,1.6667 2.5,2.5 3.3,11.602 6.3,23.2686 9,35 0.9,1.201 2.07,2.035 3.5,2.5 4.87,0.884 9.54,2.384 14,4.5 1.02,0.502 1.19,1.168 0.5,2 -6.49,-2.967 -13.32,-4.801 -20.5,-5.5 -9.33,-0.667 -18.67,-0.667 -28,0 -4.98,1.168 -9.98,1.835 -15,2 4.11,-1.205 8.11,-2.705 12,-4.5 2.83,-10.9878 5.67,-21.9878 8.5,-33 0.8,-2.6459 2.3,-4.6459 4.5,-6 z"
         id="path48" />
    </g>
    <g
       id="g49"
       style="clip-rule:evenodd;fill-rule:evenodd;image-rendering:optimizeQuality;shape-rendering:geometricPrecision;text-rendering:geometricPrecision"
       transform="matrix(0.26458333,0,0,0.26458333,-286.55502,3.8386708)">
      <path
         style="opacity:1"
         fill="#e37c17"
         d="m 1252.5,47.5 c 8.01,-0.1664 16.01,3e-4 24,0.5 2.44,0.7739 4.27,2.2739 5.5,4.5 9.56,18.5902 15.23,38.2569 17,59 -0.91,-0.828 -1.58,-1.828 -2,-3 -3.06,-18.8548 -8.73,-36.8548 -17,-54 -4.36,-4.4118 -9.69,-6.0784 -16,-5 -6.03,-1.1097 -11.03,0.557 -15,5 -4.64,8.9154 -8.31,18.2487 -11,28 -1.58,9.2622 -3.92,18.262 -7,27 1.54,-19.6867 6.88,-38.3534 16,-56 1.36,-2.5226 3.19,-4.5226 5.5,-6 z"
         id="path49" />
    </g>
    <g
       id="g50"
       style="clip-rule:evenodd;fill-rule:evenodd;image-rendering:optimizeQuality;shape-rendering:geometricPrecision;text-rendering:geometricPrecision"
       transform="matrix(0.26458333,0,0,0.26458333,-286.55502,3.8386708)">
      <path
         style="opacity:1"
         fill="#ea7e07"
         d="m 1256.5,51.5 c 5.68,-0.1661 11.34,6e-4 17,0.5 4.36,2.189 7.19,5.689 8.5,10.5 5.51,14.9008 10.01,30.0675 13.5,45.5 -4.3,-0.655 -8.63,-1.488 -13,-2.5 -1.88,-12.2007 -4.72,-24.2007 -8.5,-36 -2.07,-3.376 -5.07,-4.7094 -9,-4 -4.59,-0.7041 -7.93,0.9625 -10,5 -3.27,11.6391 -6.44,23.3058 -9.5,35 -3.33,1 -6.67,2 -10,3 1.84,-18.041 6.67,-35.3743 14.5,-52 1.8,-2.3257 3.97,-3.9923 6.5,-5 z"
         id="path50" />
    </g>
    <g
       id="g52"
       style="clip-rule:evenodd;fill-rule:evenodd;image-rendering:optimizeQuality;shape-rendering:geometricPrecision;text-rendering:geometricPrecision"
       transform="matrix(0.26458333,0,0,0.26458333,-286.55502,3.8386708)">
      <path
         style="opacity:1"
         fill="#e98318"
         d="m 1301.5,132.5 c 0.82,3.141 1.32,6.475 1.5,10 0.67,14 0.67,28 0,42 -1.75,-13.012 -3.58,-26.012 -5.5,-39 1.62,-4.244 2.95,-8.577 4,-13 z"
         id="path52" />
    </g>
    <g
       id="g56"
       style="clip-rule:evenodd;fill-rule:evenodd;image-rendering:optimizeQuality;shape-rendering:geometricPrecision;text-rendering:geometricPrecision"
       transform="matrix(0.26458333,0,0,0.26458333,-286.55502,3.8386708)">
      <path
         style="opacity:1"
         fill="#af463e"
         d="m 1215.5,171.5 c -3.62,-6.072 -6.28,-12.572 -8,-19.5 1.13,-4.97 3.47,-9.136 7,-12.5 3.3,-0.876 6.63,-1.043 10,-0.5 6.64,2.311 9.64,6.978 9,14 -1.85,9.202 -6.18,17.036 -13,23.5 -2.05,-1.382 -3.72,-3.048 -5,-5 z"
         id="path56" />
    </g>
    <g
       id="g57"
       style="clip-rule:evenodd;fill-rule:evenodd;image-rendering:optimizeQuality;shape-rendering:geometricPrecision;text-rendering:geometricPrecision"
       transform="matrix(0.26458333,0,0,0.26458333,-286.55502,3.8386708)">
      <path
         style="opacity:1"
         fill="#792a24"
         d="m 1218.5,145.5 c 7.49,-0.671 9.83,2.495 7,9.5 -7.92,3.41 -11.09,0.91 -9.5,-7.5 0.99,-0.566 1.83,-1.233 2.5,-2 z"
         id="path57" />
    </g>
    <g
       id="g58"
       style="clip-rule:evenodd;fill-rule:evenodd;image-rendering:optimizeQuality;shape-rendering:geometricPrecision;text-rendering:geometricPrecision"
       transform="matrix(0.26458333,0,0,0.26458333,-286.55502,3.8386708)">
      <path
         style="opacity:1"
         fill="#f5ded9"
         d="m 1219.5,147.5 c 4.48,0.3 5.81,2.467 4,6.5 -6.16,0.878 -7.49,-1.289 -4,-6.5 z"
         id="path58" />
    </g>
    <g
       id="g63"
       style="clip-rule:evenodd;fill-rule:evenodd;image-rendering:optimizeQuality;shape-rendering:geometricPrecision;text-rendering:geometricPrecision"
       transform="matrix(0.26458333,0,0,0.26458333,-286.55502,3.8386708)">
      <path
         style="opacity:1"
         fill="#ee820b"
         d="m 1236.5,155.5 c 6.01,-0.166 12.01,0.001 18,0.5 0.97,5.072 1.3,10.238 1,15.5 -6.33,0 -12.67,0 -19,0 0,-5.333 0,-10.667 0,-16 z"
         id="path63" />
    </g>
    <g
       id="g65"
       style="clip-rule:evenodd;fill-rule:evenodd;image-rendering:optimizeQuality;shape-rendering:geometricPrecision;text-rendering:geometricPrecision"
       transform="matrix(0.26458333,0,0,0.26458333,-286.55502,3.8386708)">
      <path
         style="opacity:1"
         fill="#db7405"
         d="m 1230.5,168.5 c 0.81,-2.415 1.81,-4.749 3,-7 0.69,5.734 1.35,11.567 2,17.5 22.26,6.397 29.43,-1.436 21.5,-23.5 -0.5,-0.5 -1,-1 -1.5,-1.5 -6.32,-0.5 -12.66,-0.666 -19,-0.5 0,-2 0,-4 0,-6 6.33,0 12.67,0 19,0 0,-2.667 0,-5.333 0,-8 6,0 12,0 18,0 -0.22,1.175 0.11,2.175 1,3 1.12,-1.044 2.46,-1.71 4,-2 4.76,1.213 9.43,2.713 14,4.5 -2.67,0.333 -5.33,0.667 -8,1 3.46,1.415 7.12,1.915 11,1.5 2.18,11.558 3.68,23.224 4.5,35 2.23,5.768 3.06,11.768 2.5,18 -25.33,0 -50.67,0 -76,0 -0.17,-4.679 0,-9.345 0.5,-14 1.49,-5.941 2.66,-11.941 3.5,-18 z"
         id="path65" />
    </g>
    <g
       id="g66"
       style="clip-rule:evenodd;fill-rule:evenodd;image-rendering:optimizeQuality;shape-rendering:geometricPrecision;text-rendering:geometricPrecision"
       transform="matrix(0.26458333,0,0,0.26458333,-286.55502,3.8386708)">
      <path
         style="opacity:1"
         fill="#b75200"
         d="m 1273.5,153.5 c 6.34,-0.166 12.68,0 19,0.5 0.83,0.833 1.67,1.667 2.5,2.5 0.67,6.333 0.67,12.667 0,19 -0.27,1.829 -1.11,3.329 -2.5,4.5 -6.33,0.667 -12.67,0.667 -19,0 -0.5,-0.5 -1,-1 -1.5,-1.5 -1.59,-6.892 -1.92,-13.892 -1,-21 0.66,-1.484 1.5,-2.817 2.5,-4 z"
         id="path66" />
    </g>
    <g
       id="g67"
       style="clip-rule:evenodd;fill-rule:evenodd;image-rendering:optimizeQuality;shape-rendering:geometricPrecision;text-rendering:geometricPrecision"
       transform="matrix(0.26458333,0,0,0.26458333,-286.55502,3.8386708)">
      <path
         style="opacity:1"
         fill="#6d2a23"
         d="m 1213.5,137.5 c 0.33,0 0.67,0 1,0 0,0.667 0,1.333 0,2 -3.53,3.364 -5.87,7.53 -7,12.5 1.72,6.928 4.38,13.428 8,19.5 0,0.667 0,1.333 0,2 -0.67,-0.667 -1.33,-1.333 -2,-2 -4.18,-5.866 -6.85,-12.366 -8,-19.5 0.36,-6.173 3.03,-11.006 8,-14.5 z"
         id="path67" />
    </g>
    <g
       id="g68"
       style="clip-rule:evenodd;fill-rule:evenodd;image-rendering:optimizeQuality;shape-rendering:geometricPrecision;text-rendering:geometricPrecision"
       transform="matrix(0.26458333,0,0,0.26458333,-286.55502,3.8386708)">
      <path
         style="opacity:1"
         fill="#ed820e"
         d="m 1276.5,154.5 c 4.68,-0.166 9.35,0.001 14,0.5 0.83,0.833 1.67,1.667 2.5,2.5 0.5,4.655 0.67,9.321 0.5,14 -6.67,0 -13.33,0 -20,0 -0.17,-5.011 0,-10.011 0.5,-15 0.99,-0.566 1.83,-1.233 2.5,-2 z"
         id="path68" />
    </g>
    <g
       id="g71"
       style="clip-rule:evenodd;fill-rule:evenodd;image-rendering:optimizeQuality;shape-rendering:geometricPrecision;text-rendering:geometricPrecision"
       transform="matrix(0.26458333,0,0,0.26458333,-286.55502,3.8386708)">
      <path
         style="opacity:1"
         fill="#ea8115"
         d="m 1273.5,173.5 c 6.67,0 13.33,0 20,0 0.2,1.89 -0.46,3.39 -2,4.5 -5.67,0.667 -11.33,0.667 -17,0 -0.88,-1.356 -1.21,-2.856 -1,-4.5 z"
         id="path71" />
    </g>
    <g
       id="g73"
       style="clip-rule:evenodd;fill-rule:evenodd;image-rendering:optimizeQuality;shape-rendering:geometricPrecision;text-rendering:geometricPrecision"
       transform="matrix(0.26458333,0,0,0.26458333,-286.55502,3.8386708)">
      <path
         style="opacity:1"
         fill="#ee8417"
         d="m 1236.5,173.5 c 6.33,0 12.67,0 19,0 0.21,1.644 -0.12,3.144 -1,4.5 -5.67,0.667 -11.33,0.667 -17,0 -0.88,-1.356 -1.21,-2.856 -1,-4.5 z"
         id="path73" />
    </g>
    <g
       id="g74"
       style="clip-rule:evenodd;fill-rule:evenodd;image-rendering:optimizeQuality;shape-rendering:geometricPrecision;text-rendering:geometricPrecision"
       transform="matrix(0.26458333,0,0,0.26458333,-286.55502,3.8386708)">
      <path
         style="opacity:1"
         fill="#a05614"
         d="m 1313.5,144.5 c 1.49,42.874 0.82,85.874 -2,129 0.17,4.679 0,9.345 -0.5,14 -1.85,5.027 -5.35,8.027 -10.5,9 4.06,-3.235 7.23,-7.235 9.5,-12 2.57,-42.629 3.73,-85.295 3.5,-128 0,-4 0,-8 0,-12 z"
         id="path74" />
    </g>
    <g
       id="g78"
       style="clip-rule:evenodd;fill-rule:evenodd;image-rendering:optimizeQuality;shape-rendering:geometricPrecision;text-rendering:geometricPrecision"
       transform="matrix(0.26458333,0,0,0.26458333,-286.55502,3.8386708)">
      <path
         style="opacity:1"
         fill="#a06836"
         d="m 1305.5,78.5 c 6.23,20.7407 9.73,42.074 10.5,64 0.98,38.365 0.31,76.699 -2,115 -0.25,5.564 -1.08,10.898 -2.5,16 2.82,-43.126 3.49,-86.126 2,-129 -0.53,-10.661 -1.03,-21.328 -1.5,-32 -2.71,-11.275 -4.88,-22.6087 -6.5,-34 z"
         id="path78" />
    </g>
    <g
       id="g88"
       style="clip-rule:evenodd;fill-rule:evenodd;image-rendering:optimizeQuality;shape-rendering:geometricPrecision;text-rendering:geometricPrecision"
       transform="matrix(0.26458333,0,0,0.26458333,-286.55502,3.8386708)">
      <path
         style="opacity:1"
         fill="#b25705"
         d="m 1312.5,156.5 c 0.33,0 0.67,0 1,0 0.23,42.705 -0.93,85.371 -3.5,128 -2.27,4.765 -5.44,8.765 -9.5,12 -5.33,2.331 -11,3.165 -17,2.5 -0.63,-0.75 -1.13,-1.584 -1.5,-2.5 -0.4,0.228 -0.57,0.562 -0.5,1 -0.7,5.869 -1.37,11.869 -2,18 -3.92,4.139 -8.75,5.806 -14.5,5 -5.29,0.678 -9.96,-0.655 -14,-4 -1.33,-6.592 -1.83,-13.259 -1.5,-20 0.15,-3.353 -0.51,-3.686 -2,-1 -1.73,0.879 -3.56,1.546 -5.5,2 -5.98,-0.787 -11.81,-2.12 -17.5,-4 -1.15,-2.307 -2.32,-4.64 -3.5,-7 -5.22,-36.875 -6.72,-73.875 -4.5,-111 1,0.333 1.67,1 2,2 -2.47,30.572 0.03,60.905 7.5,91 1.8,1.817 3.97,2.984 6.5,3.5 21.34,3.314 42.67,3.314 64,0 3.52,-0.504 6.02,-2.337 7.5,-5.5 7.35,-36.312 10.18,-72.978 8.5,-110 z"
         id="path88" />
    </g>
    <g
       id="g89"
       style="clip-rule:evenodd;fill-rule:evenodd;image-rendering:optimizeQuality;shape-rendering:geometricPrecision;text-rendering:geometricPrecision"
       transform="matrix(0.26458333,0,0,0.26458333,-286.55502,3.8386708)">
      <path
         style="opacity:1"
         fill="#f28204"
         d="m 1229.5,233.5 c 23.67,0 47.33,0 71,0 -0.42,9.759 -1.58,19.426 -3.5,29 -0.5,0.5 -1,1 -1.5,1.5 -10.53,1.906 -21.2,2.739 -32,2.5 -10.08,0.11 -20.08,-0.557 -30,-2 -2.72,-10.126 -4.06,-20.459 -4,-31 z"
         id="path89" />
    </g>
    <g
       id="g90"
       style="clip-rule:evenodd;fill-rule:evenodd;image-rendering:optimizeQuality;shape-rendering:geometricPrecision;text-rendering:geometricPrecision"
       transform="matrix(0.26458333,0,0,0.26458333,-286.55502,3.8386708)">
      <path
         style="opacity:1"
         fill="#ee8411"
         d="m 1228.5,226.5 c 24.33,0 48.67,0 73,0 0,1.667 0,3.333 0,5 -24.33,0 -48.67,0 -73,0 0,-1.667 0,-3.333 0,-5 z"
         id="path90" />
    </g>
    <g
       id="g91"
       style="clip-rule:evenodd;fill-rule:evenodd;image-rendering:optimizeQuality;shape-rendering:geometricPrecision;text-rendering:geometricPrecision"
       transform="matrix(0.26458333,0,0,0.26458333,-286.55502,3.8386708)">
      <path
         style="opacity:1"
         fill="#ed8215"
         d="m 1227.5,219.5 c 25,0 50,0 75,0 0,1.667 0,3.333 0,5 -25,0 -50,0 -75,0 0,-1.667 0,-3.333 0,-5 z"
         id="path91" />
    </g>
    <g
       id="g92"
       style="clip-rule:evenodd;fill-rule:evenodd;image-rendering:optimizeQuality;shape-rendering:geometricPrecision;text-rendering:geometricPrecision"
       transform="matrix(0.26458333,0,0,0.26458333,-286.55502,3.8386708)">
      <path
         style="opacity:1"
         fill="#f08209"
         d="m 1232.5,202.5 c 23.67,0 47.33,0 71,0 -0.11,5.018 -0.45,10.018 -1,15 -25.33,0 -50.67,0 -76,0 0,-4.667 0,-9.333 0,-14 2.24,0.295 4.24,-0.039 6,-1 z"
         id="path92" />
    </g>
    <g
       id="g94"
       style="clip-rule:evenodd;fill-rule:evenodd;image-rendering:optimizeQuality;shape-rendering:geometricPrecision;text-rendering:geometricPrecision"
       transform="matrix(0.26458333,0,0,0.26458333,-286.55502,3.8386708)">
      <path
         style="opacity:1"
         fill="#97551e"
         d="m 1213.5,171.5 c 0.67,0.667 1.33,1.333 2,2 0.33,0.667 0.67,1.333 1,2 -2.22,37.125 -0.72,74.125 4.5,111 1.18,2.36 2.35,4.693 3.5,7 -1.56,-0.233 -2.9,-0.9 -4,-2 -1.82,-7.196 -2.98,-14.53 -3.5,-22 -2.85,-31.605 -4.01,-63.272 -3.5,-95 0,-1 0,-2 0,-3 z"
         id="path94" />
    </g>
    <g
       id="g97"
       style="clip-rule:evenodd;fill-rule:evenodd;image-rendering:optimizeQuality;shape-rendering:geometricPrecision;text-rendering:geometricPrecision"
       transform="matrix(0.26458333,0,0,0.26458333,-286.55502,3.8386708)">
      <path
         style="opacity:1"
         fill="#f5e6d4"
         d="m 1303.5,68.5 c 2.09,2.9734 3.59,6.3068 4.5,10 1.87,8.3679 3.87,16.7012 6,25 5.71,51.49 6.38,103.157 2,155 -1.84,8.562 -2.84,17.228 -3,26 -0.33,7.355 -3.67,12.688 -10,16 -0.33,-0.333 -0.67,-0.667 -1,-1 -5.05,1.537 -10.21,2.704 -15.5,3.5 -0.4,2.905 -0.9,6.072 -1.5,9.5 -1.89,1.526 -2.89,3.526 -3,6 -2.03,2.193 -4.53,3.193 -7.5,3 3.62,-1.458 6.12,-4.125 7.5,-8 0.61,-5.361 0.44,-10.695 -0.5,-16 -0.07,-0.438 0.1,-0.772 0.5,-1 0.37,0.916 0.87,1.75 1.5,2.5 6,0.665 11.67,-0.169 17,-2.5 5.15,-0.973 8.65,-3.973 10.5,-9 0.5,-4.655 0.67,-9.321 0.5,-14 1.42,-5.102 2.25,-10.436 2.5,-16 2.31,-38.301 2.98,-76.635 2,-115 -0.77,-21.926 -4.27,-43.2593 -10.5,-64 -0.46,-3.3774 -1.13,-6.7107 -2,-10 z"
         id="path97" />
    </g>
    <g
       id="g103"
       style="clip-rule:evenodd;fill-rule:evenodd;image-rendering:optimizeQuality;shape-rendering:geometricPrecision;text-rendering:geometricPrecision"
       transform="matrix(0.26458333,0,0,0.26458333,-286.55502,3.8386708)">
      <path
         style="opacity:1"
         fill="#f2e0c7"
         d="m 1213.5,174.5 c -0.51,31.728 0.65,63.395 3.5,95 0.52,7.47 1.68,14.804 3.5,22 -2.32,-2.086 -4.32,-4.586 -6,-7.5 1.54,-3.356 1.2,-6.523 -1,-9.5 -0.74,-33.447 -0.74,-66.781 0,-100 z"
         id="path103" />
    </g>
    <g
       id="g105"
       style="clip-rule:evenodd;fill-rule:evenodd;image-rendering:optimizeQuality;shape-rendering:geometricPrecision;text-rendering:geometricPrecision"
       transform="matrix(0.26458333,0,0,0.26458333,-286.55502,3.8386708)">
      <path
         style="opacity:1"
         fill="#ed8109"
         d="m 1309.5,246.5 c 0.69,13.964 -0.48,27.964 -3.5,42 -2.59,2.715 -5.76,4.549 -9.5,5.5 -3.06,0.256 -6.06,0.756 -9,1.5 -0.59,-0.209 -1.09,-0.543 -1.5,-1 -1.27,-5.566 -2.77,-11.066 -4.5,-16.5 0.41,-0.945 1.07,-1.612 2,-2 5.77,-0.462 11.44,-1.462 17,-3 1.79,-0.785 3.29,-1.951 4.5,-3.5 2.01,-7.57 3.51,-15.237 4.5,-23 z"
         id="path105" />
    </g>
    <g
       id="g106"
       style="clip-rule:evenodd;fill-rule:evenodd;image-rendering:optimizeQuality;shape-rendering:geometricPrecision;text-rendering:geometricPrecision"
       transform="matrix(0.26458333,0,0,0.26458333,-286.55502,3.8386708)">
      <path
         style="opacity:1"
         fill="#df7603"
         d="m 1256.5,281.5 c 5.71,-0.329 11.37,0.005 17,1 4.55,10.185 6.05,20.852 4.5,32 -4,2.773 -8.5,4.106 -13.5,4 -4.38,0.15 -8.22,-1.183 -11.5,-4 -1.33,-11.311 -0.16,-22.311 3.5,-33 z"
         id="path106" />
    </g>
    <g
       id="g107"
       style="clip-rule:evenodd;fill-rule:evenodd;image-rendering:optimizeQuality;shape-rendering:geometricPrecision;text-rendering:geometricPrecision"
       transform="matrix(0.26458333,0,0,0.26458333,-286.55502,3.8386708)">
      <path
         style="opacity:1"
         fill="#ea7f0c"
         d="m 1217.5,238.5 c 0.62,0.111 1.12,0.444 1.5,1 1.2,10.082 2.87,20.082 5,30 0.83,0.833 1.67,1.667 2.5,2.5 6.54,1.968 13.21,3.301 20,4 0.93,0.388 1.59,1.055 2,2 -2.21,5.63 -3.54,11.463 -4,17.5 -6.3,-0.243 -12.3,-1.743 -18,-4.5 -2.12,-1.731 -3.62,-3.898 -4.5,-6.5 -0.86,-15.407 -2.36,-30.741 -4.5,-46 z"
         id="path107" />
    </g>
    <g
       id="g110"
       style="clip-rule:evenodd;fill-rule:evenodd;image-rendering:optimizeQuality;shape-rendering:geometricPrecision;text-rendering:geometricPrecision"
       transform="matrix(0.26458333,0,0,0.26458333,-286.55502,3.8386708)">
      <path
         style="opacity:1"
         fill="#f3e6d5"
         d="m 1220.5,291.5 c 1.1,1.1 2.44,1.767 4,2 0.56,1.29 1.56,2.123 3,2.5 6.14,2.732 12.47,3.565 19,2.5 0.63,-0.917 0.96,-1.917 1,-3 1.49,-2.686 2.15,-2.353 2,1 -0.66,2.982 -1,6.148 -1,9.5 -1.96,8.757 1.37,14.09 10,16 5.36,0.609 10.69,0.442 16,-0.5 -0.12,1.086 -0.79,1.753 -2,2 -7.41,1.674 -14.58,1.008 -21.5,-2 -0.33,0.333 -0.67,0.667 -1,1 -1.71,-2.911 -3.54,-5.745 -5.5,-8.5 -0.26,-4.12 0.07,-8.286 1,-12.5 -6.55,-1.258 -13.21,-2.425 -20,-3.5 -3.32,-0.97 -4.99,-3.137 -5,-6.5 z"
         id="path110" />
    </g>
    <g
       id="g111"
       style="clip-rule:evenodd;fill-rule:evenodd;image-rendering:optimizeQuality;shape-rendering:geometricPrecision;text-rendering:geometricPrecision"
       transform="matrix(0.26458333,0,0,0.26458333,-286.55502,3.8386708)">
      <path
         style="opacity:1"
         fill="#9a5d24"
         d="m 1224.5,293.5 c 5.69,1.88 11.52,3.213 17.5,4 1.94,-0.454 3.77,-1.121 5.5,-2 -0.04,1.083 -0.37,2.083 -1,3 -6.53,1.065 -12.86,0.232 -19,-2.5 -1.44,-0.377 -2.44,-1.21 -3,-2.5 z"
         id="path111" />
    </g>
    <g
       id="g112"
       style="clip-rule:evenodd;fill-rule:evenodd;image-rendering:optimizeQuality;shape-rendering:geometricPrecision;text-rendering:geometricPrecision"
       transform="matrix(0.26458333,0,0,0.26458333,-286.55502,3.8386708)">
      <path
         style="opacity:1"
         fill="#96602e"
         d="m 1249.5,296.5 c -0.33,6.741 0.17,13.408 1.5,20 4.04,3.345 8.71,4.678 14,4 5.75,0.806 10.58,-0.861 14.5,-5 0.63,-6.131 1.3,-12.131 2,-18 0.94,5.305 1.11,10.639 0.5,16 -1.38,3.875 -3.88,6.542 -7.5,8 -5.31,0.942 -10.64,1.109 -16,0.5 -8.63,-1.91 -11.96,-7.243 -10,-16 0,-3.352 0.34,-6.518 1,-9.5 z"
         id="path112" />
    </g>
  </g>
</svg>
