<?xml version="1.0" encoding="UTF-8" standalone="no"?>
<!-- Created with Inkscape (http://www.inkscape.org/) -->

<svg
   width="96mm"
   height="96mm"
   viewBox="0 0 96 96"
   version="1.1"
   id="svg1"
   inkscape:version="1.4.2 (ebf0e940, 2025-05-08)"
   sodipodi:docname="motocycle.svg"
   xmlns:inkscape="http://www.inkscape.org/namespaces/inkscape"
   xmlns:sodipodi="http://sodipodi.sourceforge.net/DTD/sodipodi-0.dtd"
   xmlns="http://www.w3.org/2000/svg"
   xmlns:svg="http://www.w3.org/2000/svg">
  <sodipodi:namedview
     id="namedview1"
     pagecolor="#ffffff"
     bordercolor="#000000"
     borderopacity="0.25"
     inkscape:showpageshadow="2"
     inkscape:pageopacity="0.0"
     inkscape:pagecheckerboard="0"
     inkscape:deskcolor="#d1d1d1"
     inkscape:document-units="mm"
     inkscape:zoom="0.80444024"
     inkscape:cx="397.17059"
     inkscape:cy="262.91574"
     inkscape:window-width="1920"
     inkscape:window-height="1052"
     inkscape:window-x="0"
     inkscape:window-y="28"
     inkscape:window-maximized="0"
     inkscape:current-layer="layer1" />
  <defs
     id="defs1" />
  <g
     inkscape:label="Layer 1"
     inkscape:groupmode="layer"
     id="layer1">
    <g
       id="g2"
       style="clip-rule:evenodd;fill-rule:evenodd;image-rendering:optimizeQuality;shape-rendering:geometricPrecision;text-rendering:geometricPrecision"
       transform="matrix(0.28703213,0,0,0.28703213,-106.40506,-2.5076997)">
      <path
         style="opacity:1"
         fill="#dbedf5"
         d="m 541.5,49.5 c -9.369,-6.599 -16.202,-4.599 -20.5,6 -0.499,3.6516 -0.665,7.3183 -0.5,11 -0.822,1.8885 -1.655,3.8885 -2.5,6 -3.615,2.2195 -7.115,4.5528 -10.5,7 0.086,-0.9959 -0.248,-1.8292 -1,-2.5 5.308,-1.4249 8.808,-4.2582 10.5,-8.5 1,-6.3333 2,-12.6667 3,-19 7.447,-7.9329 14.614,-7.9329 21.5,0 z"
         id="path2" />
    </g>
    <g
       id="g23"
       style="clip-rule:evenodd;fill-rule:evenodd;image-rendering:optimizeQuality;shape-rendering:geometricPrecision;text-rendering:geometricPrecision"
       transform="matrix(0.28703213,0,0,0.28703213,-106.40506,-2.5076997)">
      <path
         style="opacity:1"
         fill="#225992"
         d="m 541.5,49.5 c 0.538,1.6172 0.871,3.2839 1,5 -0.166,5.3437 10e-4,10.6771 0.5,16 1.076,1.5672 1.909,3.2338 2.5,5 -0.333,0.6667 -0.667,1.3333 -1,2 -0.917,-0.6272 -1.917,-0.9606 -3,-1 -2.17,-1.5862 -4.504,-2.9196 -7,-4 -0.774,-0.6471 -1.774,-0.9805 -3,-1 -1.855,-0.1598 -3.188,0.5069 -4,2 -1.667,1 -3,2.3333 -4,4 -3.388,3.0971 -6.055,6.7637 -8,11 -1.817,3.4644 -3.817,6.7978 -6,10 -0.934,-1.0676 -1.268,-2.401 -1,-4 1.752,-5.337 4.419,-10.1703 8,-14.5 -1,-0.6667 -2,-0.6667 -3,0 -2.234,1.7498 -4.568,3.2498 -7,4.5 0.752,-1.6003 1.752,-3.1003 3,-4.5 1.829,-0.2735 3.329,-1.1068 4.5,-2.5 0.333,0.3333 0.667,0.6667 1,1 1.667,-1.6667 3.333,-3.3333 5,-5 0.497,-2.3098 0.663,-4.6432 0.5,-7 -0.165,-3.6817 10e-4,-7.3484 0.5,-11 4.298,-10.599 11.131,-12.599 20.5,-6 z"
         id="path23" />
    </g>
    <g
       id="g24"
       style="clip-rule:evenodd;fill-rule:evenodd;image-rendering:optimizeQuality;shape-rendering:geometricPrecision;text-rendering:geometricPrecision"
       transform="matrix(0.28703213,0,0,0.28703213,-106.40506,-2.5076997)">
      <path
         style="opacity:1"
         fill="#688fb4"
         d="m 534.5,72.5 c -2.403,-0.052 -4.736,0.2814 -7,1 0.812,-1.4931 2.145,-2.1598 4,-2 1.226,0.0195 2.226,0.3529 3,1 z"
         id="path24" />
    </g>
    <g
       id="g25"
       style="clip-rule:evenodd;fill-rule:evenodd;image-rendering:optimizeQuality;shape-rendering:geometricPrecision;text-rendering:geometricPrecision"
       transform="matrix(0.28703213,0,0,0.28703213,-106.40506,-2.5076997)">
      <path
         style="opacity:1"
         fill="#185aa0"
         d="m 529.5,49.5 c 2.181,0.4141 4.515,0.5808 7,0.5 -0.333,0.3333 -0.667,0.6667 -1,1 2.686,2.3667 4.353,5.3667 5,9 -0.789,0.5464 -1.789,1.2131 -3,2 0.753,1.487 1.586,1.6537 2.5,0.5 1.026,3.0934 0.193,5.4268 -2.5,7 -0.781,-1.2287 -1.281,-2.562 -1.5,-4 -0.359,3.0443 -1.026,3.3776 -2,1 -0.333,0.6667 -0.667,1.3333 -1,2 -3.795,-1.3515 -5.962,-0.0181 -6.5,4 -3.692,-0.5287 -4.358,-2.0287 -2,-4.5 -0.333,-0.3333 -0.667,-0.6667 -1,-1 0.793,-3.4106 1.293,-6.9106 1.5,-10.5 0.75,-0.6258 1.584,-1.1258 2.5,-1.5 -1.658,-0.7253 -2.158,-1.892 -1.5,-3.5 1.302,-0.5848 2.469,-1.2515 3.5,-2 z"
         id="path25" />
    </g>
    <g
       id="g26"
       style="clip-rule:evenodd;fill-rule:evenodd;image-rendering:optimizeQuality;shape-rendering:geometricPrecision;text-rendering:geometricPrecision"
       transform="matrix(0.28703213,0,0,0.28703213,-106.40506,-2.5076997)">
      <path
         style="opacity:1"
         fill="#daecf4"
         d="m 543.5,54.5 c 1.12,5.5181 2.12,11.1848 3,17 5.47,1.0655 9.47,4.0655 12,9 -4.364,-2.271 -8.531,-4.9377 -12.5,-8 -2.151,-5.8003 -2.984,-11.8003 -2.5,-18 z"
         id="path26" />
    </g>
    <g
       id="g32"
       style="clip-rule:evenodd;fill-rule:evenodd;image-rendering:optimizeQuality;shape-rendering:geometricPrecision;text-rendering:geometricPrecision"
       transform="matrix(0.28703213,0,0,0.28703213,-106.40506,-2.5076997)">
      <path
         style="opacity:1"
         fill="#ddeef5"
         d="m 506.5,79.5 c -2.029,3.0269 -4.696,5.3602 -8,7 -3.457,-1.5627 -6.79,-3.396 -10,-5.5 -6.624,-1.0886 -12.958,-0.2553 -19,2.5 0.061,-2.5495 1.394,-4.0495 4,-4.5 8.261,-2.5518 16.094,-1.0518 23.5,4.5 2.881,-2.0239 6.047,-3.3573 9.5,-4 z"
         id="path32" />
    </g>
    <g
       id="g33"
       style="clip-rule:evenodd;fill-rule:evenodd;image-rendering:optimizeQuality;shape-rendering:geometricPrecision;text-rendering:geometricPrecision"
       transform="matrix(0.28703213,0,0,0.28703213,-106.40506,-2.5076997)">
      <path
         style="opacity:1"
         fill="#4c7296"
         d="m 587.5,80.5 c 0.667,0.6667 1.333,1.3333 2,2 -5.014,-1.2694 -10.014,-1.2694 -15,0 0,-0.3333 0,-0.6667 0,-1 4.235,-0.936 8.569,-1.2693 13,-1 z"
         id="path33" />
    </g>
    <g
       id="g37"
       style="clip-rule:evenodd;fill-rule:evenodd;image-rendering:optimizeQuality;shape-rendering:geometricPrecision;text-rendering:geometricPrecision"
       transform="matrix(0.28703213,0,0,0.28703213,-106.40506,-2.5076997)">
      <path
         style="opacity:1"
         fill="#ddeef5"
         d="m 558.5,80.5 c 3.596,1.3004 7.263,2.3004 11,3 -0.149,-1.052 0.017,-2.052 0.5,-3 1.521,0.0186 3.021,0.352 4.5,1 0,0.3333 0,0.6667 0,1 -2.929,1.0877 -5.763,2.421 -8.5,4 -3.191,-1.1737 -5.691,-3.1737 -7.5,-6 z"
         id="path37" />
    </g>
    <g
       id="g38"
       style="clip-rule:evenodd;fill-rule:evenodd;image-rendering:optimizeQuality;shape-rendering:geometricPrecision;text-rendering:geometricPrecision"
       transform="matrix(0.28703213,0,0,0.28703213,-106.40506,-2.5076997)">
      <path
         style="opacity:1"
         fill="#2a5b8e"
         d="m 542.5,54.5 c 0.333,0 0.667,0 1,0 -0.484,6.1997 0.349,12.1997 2.5,18 3.969,3.0623 8.136,5.729 12.5,8 1.809,2.8263 4.309,4.8263 7.5,6 2.737,-1.579 5.571,-2.9123 8.5,-4 4.986,-1.2694 9.986,-1.2694 15,0 3.245,0.47 6.079,1.8034 8.5,4 0.877,2.1742 0.377,3.8409 -1.5,5 -3.525,0.7097 -6.858,1.7097 -10,3 -6.147,0.6879 -11.814,-0.6454 -17,-4 -0.333,0.3333 -0.667,0.6667 -1,1 1.569,2.4678 2.569,5.1345 3,8 -0.83,3.649 -1.496,7.315 -2,11 -2.383,-3.425 -2.383,-6.925 0,-10.5 -0.434,-2.6342 -1.267,-5.1342 -2.5,-7.5 -0.383,0.556 -0.883,0.8893 -1.5,1 -1.745,-1.3063 -3.745,-2.3063 -6,-3 0.826,-0.951 0.992,-1.951 0.5,-3 -3.743,-3.1207 -7.576,-6.1207 -11.5,-9 -0.333,0.3333 -0.667,0.6667 -1,1 2.124,2.7794 3.791,5.7794 5,9 0.086,0.9959 -0.248,1.8292 -1,2.5 1.361,1.5843 2.028,3.4176 2,5.5 -1.756,-1.749 -3.089,-3.749 -4,-6 0,-0.3333 0,-0.6667 0,-1 0.073,-1.5269 -0.594,-2.5269 -2,-3 -1.989,-3.3056 -3.989,-6.6389 -6,-10 1.083,0.0394 2.083,0.3728 3,1 0.333,-0.6667 0.667,-1.3333 1,-2 -0.591,-1.7662 -1.424,-3.4328 -2.5,-5 -0.499,-5.3229 -0.666,-10.6563 -0.5,-16 z"
         id="path38" />
    </g>
    <g
       id="g41"
       style="clip-rule:evenodd;fill-rule:evenodd;image-rendering:optimizeQuality;shape-rendering:geometricPrecision;text-rendering:geometricPrecision"
       transform="matrix(0.28703213,0,0,0.28703213,-106.40506,-2.5076997)">
      <path
         style="opacity:1"
         fill="#6da8e0"
         d="m 565.5,93.5 c 0,1 0,2 0,3 -3.072,0.3174 -6.072,-0.0159 -9,-1 -1.108,-2.5591 -2.441,-4.8924 -4,-7 -1.209,-3.2206 -2.876,-6.2206 -5,-9 0.333,-0.3333 0.667,-0.6667 1,-1 3.924,2.8793 7.757,5.8793 11.5,9 0.492,1.049 0.326,2.049 -0.5,3 2.255,0.6937 4.255,1.6937 6,3 z"
         id="path41" />
    </g>
    <g
       id="g42"
       style="clip-rule:evenodd;fill-rule:evenodd;image-rendering:optimizeQuality;shape-rendering:geometricPrecision;text-rendering:geometricPrecision"
       transform="matrix(0.28703213,0,0,0.28703213,-106.40506,-2.5076997)">
      <path
         style="opacity:1"
         fill="#7ab2e6"
         d="m 576.5,84.5 c 4.014,-0.1655 8.014,0.0012 12,0.5 6.388,2.0128 6.388,3.6794 0,5 -3.667,0.6667 -7.333,0.6667 -11,0 -4.865,-1.1998 -5.199,-3.0332 -1,-5.5 z"
         id="path42" />
    </g>
    <g
       id="g44"
       style="clip-rule:evenodd;fill-rule:evenodd;image-rendering:optimizeQuality;shape-rendering:geometricPrecision;text-rendering:geometricPrecision"
       transform="matrix(0.28703213,0,0,0.28703213,-106.40506,-2.5076997)">
      <path
         style="opacity:1"
         fill="#2d5c8d"
         d="m 520.5,66.5 c 0.163,2.3568 -0.003,4.6902 -0.5,7 -1.667,1.6667 -3.333,3.3333 -5,5 -0.333,-0.3333 -0.667,-0.6667 -1,-1 -1.171,1.3932 -2.671,2.2265 -4.5,2.5 -1.248,1.3997 -2.248,2.8997 -3,4.5 -0.79,1.2942 -1.79,2.4609 -3,3.5 1.456,0.4226 1.956,1.2559 1.5,2.5 -3.415,0.4189 -5.915,2.0856 -7.5,5 -1.733,0.5076 -2.066,1.341 -1,2.5 -0.601,5.577 -1.601,11.077 -3,16.5 -2.865,2.261 -5.865,4.261 -9,6 -2.93,0.799 -5.93,1.132 -9,1 -2.584,-0.548 -3.584,-2.215 -3,-5 1,0 2,0 3,0 2.466,1.134 5.133,1.301 8,0.5 3.584,-2.441 7.25,-4.608 11,-6.5 0.202,-2.45 -0.131,-4.783 -1,-7 -0.576,-4.5997 0.424,-8.7664 3,-12.5 -0.333,-0.5 -0.667,-1 -1,-1.5 -2.411,0.8611 -4.411,2.1944 -6,4 -7.093,1.492 -14.093,1.1587 -21,-1 -4.097,-3.3266 -3.763,-6.3266 1,-9 6.042,-2.7553 12.376,-3.5886 19,-2.5 3.21,2.104 6.543,3.9373 10,5.5 3.304,-1.6398 5.971,-3.9731 8,-7 0.333,0 0.667,0 1,0 3.385,-2.4472 6.885,-4.7805 10.5,-7 0.845,-2.1115 1.678,-4.1115 2.5,-6 z"
         id="path44" />
    </g>
    <g
       id="g45"
       style="clip-rule:evenodd;fill-rule:evenodd;image-rendering:optimizeQuality;shape-rendering:geometricPrecision;text-rendering:geometricPrecision"
       transform="matrix(0.28703213,0,0,0.28703213,-106.40506,-2.5076997)">
      <path
         style="opacity:1"
         fill="#80b6e7"
         d="m 477.5,84.5 c 4.657,-0.5061 8.99,0.3272 13,2.5 -1.051,1.3848 -2.384,2.3848 -4,3 -4,0.6667 -8,0.6667 -12,0 -1.544,-0.2896 -2.877,-0.9563 -4,-2 2.358,-1.2755 4.692,-2.4422 7,-3.5 z"
         id="path45" />
    </g>
    <g
       id="g48"
       style="clip-rule:evenodd;fill-rule:evenodd;image-rendering:optimizeQuality;shape-rendering:geometricPrecision;text-rendering:geometricPrecision"
       transform="matrix(0.28703213,0,0,0.28703213,-106.40506,-2.5076997)">
      <path
         style="opacity:1"
         fill="#deeff6"
         d="m 534.5,72.5 c 2.496,1.0804 4.83,2.4138 7,4 2.011,3.3611 4.011,6.6944 6,10 -0.073,1.5269 0.594,2.5269 2,3 0,0.3333 0,0.6667 0,1 0,1.3333 0,2.6667 0,4 -1.333,0 -2.667,0 -4,0 -4.408,-1.8605 -8.908,-3.1938 -13.5,-4 -4.408,0.0823 -8.575,1.0823 -12.5,3 -1.083,0.0394 -2.083,0.3728 -3,1 -0.966,-1.896 -1.299,-3.896 -1,-6 1.945,-4.2363 4.612,-7.9029 8,-11 1,-1.6667 2.333,-3 4,-4 2.264,-0.7186 4.597,-1.052 7,-1 z"
         id="path48" />
    </g>
    <g
       id="g49"
       style="clip-rule:evenodd;fill-rule:evenodd;image-rendering:optimizeQuality;shape-rendering:geometricPrecision;text-rendering:geometricPrecision"
       transform="matrix(0.28703213,0,0,0.28703213,-106.40506,-2.5076997)">
      <path
         style="opacity:1"
         fill="#f8faf9"
         d="m 523.5,77.5 c 8.018,-5.0711 14.185,-3.4044 18.5,5 1,0.6667 2,1.3333 3,2 0.251,1.933 0.751,3.7663 1.5,5.5 -4.518,-0.3185 -9.018,-1.1519 -13.5,-2.5 -5.696,0.4043 -10.863,1.9043 -15.5,4.5 -0.9,-3.1173 0.1,-5.6173 3,-7.5 0.82,-2.4738 1.82,-4.8071 3,-7 z"
         id="path49" />
    </g>
    <g
       id="g50"
       style="clip-rule:evenodd;fill-rule:evenodd;image-rendering:optimizeQuality;shape-rendering:geometricPrecision;text-rendering:geometricPrecision"
       transform="matrix(0.28703213,0,0,0.28703213,-106.40506,-2.5076997)">
      <path
         style="opacity:1"
         fill="#88aaca"
         d="m 547.5,86.5 c 1.406,0.4731 2.073,1.4731 2,3 -1.406,-0.4731 -2.073,-1.4731 -2,-3 z"
         id="path50" />
    </g>
    <g
       id="g54"
       style="clip-rule:evenodd;fill-rule:evenodd;image-rendering:optimizeQuality;shape-rendering:geometricPrecision;text-rendering:geometricPrecision"
       transform="matrix(0.28703213,0,0,0.28703213,-106.40506,-2.5076997)">
      <path
         style="opacity:1"
         fill="#6ca8df"
         d="m 508.5,94.5 c -3.528,2.1752 -7.195,2.5085 -11,1 1.585,-2.9144 4.085,-4.5811 7.5,-5 0.456,-1.2441 -0.044,-2.0774 -1.5,-2.5 1.21,-1.0391 2.21,-2.2058 3,-3.5 2.432,-1.2502 4.766,-2.7502 7,-4.5 1,-0.6667 2,-0.6667 3,0 -3.581,4.3297 -6.248,9.163 -8,14.5 z"
         id="path54" />
    </g>
    <g
       id="g58"
       style="clip-rule:evenodd;fill-rule:evenodd;image-rendering:optimizeQuality;shape-rendering:geometricPrecision;text-rendering:geometricPrecision"
       transform="matrix(0.28703213,0,0,0.28703213,-106.40506,-2.5076997)">
      <path
         style="opacity:1"
         fill="#bddcec"
         d="m 493.5,103.5 c -0.979,-3.125 -1.313,-6.4581 -1,-10 -1,0 -2,0 -3,0 1.589,-1.8056 3.589,-3.1389 6,-4 0.333,0.5 0.667,1 1,1.5 -2.576,3.7336 -3.576,7.9003 -3,12.5 z"
         id="path58" />
    </g>
    <g
       id="g59"
       style="clip-rule:evenodd;fill-rule:evenodd;image-rendering:optimizeQuality;shape-rendering:geometricPrecision;text-rendering:geometricPrecision"
       transform="matrix(0.28703213,0,0,0.28703213,-106.40506,-2.5076997)">
      <path
         style="opacity:1"
         fill="#b3d9ed"
         d="m 515.5,88.5 c -0.299,2.104 0.034,4.104 1,6 0.917,-0.6272 1.917,-0.9606 3,-1 -3,2.3333 -6,4.6667 -9,7 -0.838,-0.342 -1.172,-1.0084 -1,-2 2.183,-3.2022 4.183,-6.5356 6,-10 z"
         id="path59" />
    </g>
    <g
       id="g60"
       style="clip-rule:evenodd;fill-rule:evenodd;image-rendering:optimizeQuality;shape-rendering:geometricPrecision;text-rendering:geometricPrecision"
       transform="matrix(0.28703213,0,0,0.28703213,-106.40506,-2.5076997)">
      <path
         style="opacity:1"
         fill="#2b5a89"
         d="m 545.5,94.5 c 1.484,1.5737 3.151,2.907 5,4 -2,0 -4,0 -6,0 0.237,1.291 -0.096,2.291 -1,3 0.203,-1.8904 -0.463,-3.3904 -2,-4.5 -4.333,-0.6667 -8.667,-0.6667 -13,0 -3.108,1.9396 -3.775,4.606 -2,8 4.989,0.499 9.989,0.666 15,0.5 -5.15,1.151 -10.484,1.317 -16,0.5 -1.333,-0.667 -2.333,-1.667 -3,-3 0.902,-2.202 1.902,-4.3683 3,-6.5 2.873,-1.2749 5.873,-2.1082 9,-2.5 -2.866,-1.4568 -5.866,-1.7901 -9,-1 -4.495,1.8112 -8.495,4.4778 -12,8 -1.249,0.74 -2.249,0.573 -3,-0.5 3,-2.3333 6,-4.6667 9,-7 3.925,-1.9177 8.092,-2.9177 12.5,-3 4.592,0.8062 9.092,2.1395 13.5,4 z"
         id="path60" />
    </g>
    <g
       id="g61"
       style="clip-rule:evenodd;fill-rule:evenodd;image-rendering:optimizeQuality;shape-rendering:geometricPrecision;text-rendering:geometricPrecision"
       transform="matrix(0.28703213,0,0,0.28703213,-106.40506,-2.5076997)">
      <path
         style="opacity:1"
         fill="#bfe2f1"
         d="m 549.5,90.5 c 0.911,2.251 2.244,4.251 4,6 1.425,4.24 0.425,4.907 -3,2 -1.849,-1.093 -3.516,-2.4263 -5,-4 1.333,0 2.667,0 4,0 0,-1.3333 0,-2.6667 0,-4 z"
         id="path61" />
    </g>
    <g
       id="g64"
       style="clip-rule:evenodd;fill-rule:evenodd;image-rendering:optimizeQuality;shape-rendering:geometricPrecision;text-rendering:geometricPrecision"
       transform="matrix(0.28703213,0,0,0.28703213,-106.40506,-2.5076997)">
      <path
         style="opacity:1"
         fill="#e3f2f7"
         d="m 468.5,92.5 c 6.907,2.1587 13.907,2.492 21,1 1,0 2,0 3,0 -0.313,3.5419 0.021,6.875 1,10 0.869,2.217 1.202,4.55 1,7 -3.75,1.892 -7.416,4.059 -11,6.5 -2.867,0.801 -5.534,0.634 -8,-0.5 1.373,0.157 2.707,-0.01 4,-0.5 2.852,-3.327 6.519,-5.161 11,-5.5 0.584,-5.028 0.75,-10.028 0.5,-15 -0.333,-0.3333 -0.667,-0.6667 -1,-1 -6.773,3.7783 -13.606,3.7783 -20.5,0 -0.798,-0.4569 -1.131,-1.1236 -1,-2 z"
         id="path64" />
    </g>
    <g
       id="g72"
       style="clip-rule:evenodd;fill-rule:evenodd;image-rendering:optimizeQuality;shape-rendering:geometricPrecision;text-rendering:geometricPrecision"
       transform="matrix(0.28703213,0,0,0.28703213,-106.40506,-2.5076997)">
      <path
         style="opacity:1"
         fill="#1a599a"
         d="m 552.5,88.5 c 1.559,2.1076 2.892,4.4409 4,7 2.928,0.9841 5.928,1.3174 9,1 0,-1 0,-2 0,-3 0.617,-0.1107 1.117,-0.444 1.5,-1 1.233,2.3658 2.066,4.8658 2.5,7.5 -2.383,3.575 -2.383,7.075 0,10.5 0.369,7.561 -2.298,8.728 -8,3.5 -1.634,-0.494 -3.301,-0.66 -5,-0.5 -1.765,-0.315 -3.431,-0.315 -5,0 -0.333,0 -0.667,0 -1,0 0,-0.333 0,-0.667 0,-1 -0.111,-0.617 -0.444,-1.117 -1,-1.5 -12,-0.667 -24,-0.667 -36,0 -4.069,0.938 -8.069,2.105 -12,3.5 -0.67,1.791 -1.337,3.458 -2,5 -1.811,-2.741 -3.478,-2.575 -5,0.5 1.78,5.745 3.78,5.912 6,0.5 2.126,-0.548 4.126,-1.215 6,-2 1.644,0.214 3.144,-0.12 4.5,-1 1.995,2.247 4.495,3.247 7.5,3 0.333,0 0.667,0 1,0 2.86,3.178 5.86,5.511 9,7 -4.197,1.174 -8.197,2.841 -12,5 -1.459,-0.067 -2.792,0.266 -4,1 1.706,-1.573 2.873,-3.573 3.5,-6 0.333,0.667 0.667,1.333 1,2 1.02,-1.391 1.853,-2.891 2.5,-4.5 -2.915,-1.922 -5.915,-3.756 -9,-5.5 -1.35,2.235 -2.85,3.568 -4.5,4 -0.826,-1.905 -1.993,-2.239 -3.5,-1 1.656,1.492 3.156,3.158 4.5,5 0.617,0.949 0.451,1.782 -0.5,2.5 2.119,0.342 2.453,1.175 1,2.5 -1.977,-2.314 -3.977,-4.647 -6,-7 -1.716,1.049 -3.049,2.382 -4,4 -0.709,-0.904 -1.709,-1.237 -3,-1 -0.992,-0.172 -1.658,0.162 -2,1 -1.109,0.057 -2.109,0.39 -3,1 -4.17,0.361 -8.17,1.361 -12,3 -1.236,-1.534 -1.736,-3.2 -1.5,-5 2.311,-1.61 4.811,-2.943 7.5,-4 0.798,-0.457 1.131,-1.124 1,-2 0.667,-0.667 1.333,-1.333 2,-2 3.13,-1.072 5.796,-2.906 8,-5.5 -0.228,-0.399 -0.562,-0.565 -1,-0.5 1.399,-5.423 2.399,-10.923 3,-16.5 -1.066,-1.159 -0.733,-1.9924 1,-2.5 3.805,1.5085 7.472,1.1752 11,-1 -0.268,1.599 0.066,2.9324 1,4 -0.172,0.9916 0.162,1.658 1,2 0.751,1.073 1.751,1.24 3,0.5 3.505,-3.5222 7.505,-6.1888 12,-8 3.134,-0.7901 6.134,-0.4568 9,1 -3.127,0.3918 -6.127,1.2251 -9,2.5 -1.098,2.1317 -2.098,4.298 -3,6.5 0.667,1.333 1.667,2.333 3,3 5.516,0.817 10.85,0.651 16,-0.5 0.489,-1.495 1.155,-2.829 2,-4 0.904,-0.709 1.237,-1.709 1,-3 2,0 4,0 6,0 3.425,2.907 4.425,2.24 3,-2 0.028,-2.0824 -0.639,-3.9157 -2,-5.5 0.752,-0.6708 1.086,-1.5041 1,-2.5 z"
         id="path72" />
    </g>
    <g
       id="g73"
       style="clip-rule:evenodd;fill-rule:evenodd;image-rendering:optimizeQuality;shape-rendering:geometricPrecision;text-rendering:geometricPrecision"
       transform="matrix(0.28703213,0,0,0.28703213,-106.40506,-2.5076997)">
      <path
         style="opacity:1"
         fill="#cbe5f0"
         d="m 543.5,101.5 c -0.845,1.171 -1.511,2.505 -2,4 -5.011,0.166 -10.011,-0.001 -15,-0.5 -1.775,-3.394 -1.108,-6.0604 2,-8 4.333,-0.6667 8.667,-0.6667 13,0 1.537,1.1096 2.203,2.6096 2,4.5 z"
         id="path73" />
    </g>
    <g
       id="g74"
       style="clip-rule:evenodd;fill-rule:evenodd;image-rendering:optimizeQuality;shape-rendering:geometricPrecision;text-rendering:geometricPrecision"
       transform="matrix(0.28703213,0,0,0.28703213,-106.40506,-2.5076997)">
      <path
         style="opacity:1"
         fill="#f7faf9"
         d="m 531.5,98.5 c 2.667,0 5.333,0 8,0 0.14,1.624 -0.527,2.79 -2,3.5 0.667,0.333 1.333,0.667 2,1 -4.11,1.143 -7.776,0.477 -11,-2 1.071,-0.852 2.071,-1.6851 3,-2.5 z"
         id="path74" />
    </g>
    <g
       id="g79"
       style="clip-rule:evenodd;fill-rule:evenodd;image-rendering:optimizeQuality;shape-rendering:geometricPrecision;text-rendering:geometricPrecision"
       transform="matrix(0.28703213,0,0,0.28703213,-106.40506,-2.5076997)">
      <path
         style="opacity:1"
         fill="#dbecf4"
         d="m 587.5,80.5 c 3.199,0.6739 6.199,1.1739 9,1.5 4.999,3.8188 5.332,7.9855 1,12.5 -6.114,3.374 -12.28,3.7073 -18.5,1 -1.583,-0.007 -3.249,0.3263 -5,1 -3.105,7.225 -1.939,13.558 3.5,19 -2.667,-1.667 -5.333,-3.333 -8,-5 0.504,-3.685 1.17,-7.351 2,-11 -0.431,-2.8655 -1.431,-5.5322 -3,-8 0.333,-0.3333 0.667,-0.6667 1,-1 5.186,3.3546 10.853,4.6879 17,4 3.018,0.1646 6.018,-0.002 9,-0.5 0.752,-0.6708 1.086,-1.5041 1,-2.5 1.877,-1.1591 2.377,-2.8258 1.5,-5 -2.421,-2.1966 -5.255,-3.53 -8.5,-4 -0.667,-0.6667 -1.333,-1.3333 -2,-2 z"
         id="path79" />
    </g>
    <g
       id="g80"
       style="clip-rule:evenodd;fill-rule:evenodd;image-rendering:optimizeQuality;shape-rendering:geometricPrecision;text-rendering:geometricPrecision"
       transform="matrix(0.28703213,0,0,0.28703213,-106.40506,-2.5076997)">
      <path
         style="opacity:1"
         fill="#c4ddea"
         d="m 596.5,91.5 c 0.086,0.9959 -0.248,1.8292 -1,2.5 -2.982,0.498 -5.982,0.6646 -9,0.5 3.142,-1.2903 6.475,-2.2903 10,-3 z"
         id="path80" />
    </g>
    <g
       id="g93"
       style="clip-rule:evenodd;fill-rule:evenodd;image-rendering:optimizeQuality;shape-rendering:geometricPrecision;text-rendering:geometricPrecision"
       transform="matrix(0.28703213,0,0,0.28703213,-106.40506,-2.5076997)">
      <path
         style="opacity:1"
         fill="#22588b"
         d="m 550.5,112.5 c -12.333,0 -24.667,0 -37,0 -0.475,2.582 0.192,4.582 2,6 1,0.667 2,1.333 3,2 -3.005,0.247 -5.505,-0.753 -7.5,-3 -1.356,0.88 -2.856,1.214 -4.5,1 -1.874,0.785 -3.874,1.452 -6,2 -0.667,0 -1,-0.333 -1,-1 0.663,-1.542 1.33,-3.209 2,-5 3.931,-1.395 7.931,-2.562 12,-3.5 12,-0.667 24,-0.667 36,0 0.556,0.383 0.889,0.883 1,1.5 z"
         id="path93" />
    </g>
    <g
       id="g96"
       style="clip-rule:evenodd;fill-rule:evenodd;image-rendering:optimizeQuality;shape-rendering:geometricPrecision;text-rendering:geometricPrecision"
       transform="matrix(0.28703213,0,0,0.28703213,-106.40506,-2.5076997)">
      <path
         style="opacity:1"
         fill="#8eb5d5"
         d="m 550.5,112.5 c 0,0.333 0,0.667 0,1 -12,0 -24,0 -36,0 -0.134,1.792 0.199,3.458 1,5 -1.808,-1.418 -2.475,-3.418 -2,-6 12.333,0 24.667,0 37,0 z"
         id="path96" />
    </g>
    <g
       id="g101"
       style="clip-rule:evenodd;fill-rule:evenodd;image-rendering:optimizeQuality;shape-rendering:geometricPrecision;text-rendering:geometricPrecision"
       transform="matrix(0.28703213,0,0,0.28703213,-106.40506,-2.5076997)">
      <path
         style="opacity:1"
         fill="#dbf0f6"
         d="m 550.5,113.5 c 0.333,0 0.667,0 1,0 0.567,3.411 -0.766,5.411 -4,6 -2.652,-0.09 -4.985,0.576 -7,2 -5.782,3.886 -11.449,3.886 -17,0 3.981,0.521 7.981,0.854 12,1 0,-1 0,-2 0,-3 2.687,0.159 5.02,-0.675 7,-2.5 -0.921,-1.756 -2.088,-1.923 -3.5,-0.5 -6.673,-2.021 -13.507,-2.521 -20.5,-1.5 -0.522,0.561 -0.855,1.228 -1,2 1.044,1.174 2.044,2.341 3,3.5 -0.333,0 -0.667,0 -1,0 -0.333,0 -0.667,0 -1,0 -1,-0.667 -2,-1.333 -3,-2 -0.801,-1.542 -1.134,-3.208 -1,-5 12,0 24,0 36,0 z"
         id="path101" />
    </g>
    <g
       id="g102"
       style="clip-rule:evenodd;fill-rule:evenodd;image-rendering:optimizeQuality;shape-rendering:geometricPrecision;text-rendering:geometricPrecision"
       transform="matrix(0.28703213,0,0,0.28703213,-106.40506,-2.5076997)">
      <path
         style="opacity:1"
         fill="#bee6f3"
         d="m 506.5,118.5 c -1.788,0.285 -3.455,-0.048 -5,-1 2.107,-2.387 4.773,-3.72 8,-4 0,1.333 0,2.667 0,4 -1.291,-0.237 -2.291,0.096 -3,1 z"
         id="path102" />
    </g>
    <g
       id="g103"
       style="clip-rule:evenodd;fill-rule:evenodd;image-rendering:optimizeQuality;shape-rendering:geometricPrecision;text-rendering:geometricPrecision"
       transform="matrix(0.28703213,0,0,0.28703213,-106.40506,-2.5076997)">
      <path
         style="opacity:1"
         fill="#f6f9f9"
         d="m 523.5,121.5 c -0.891,-0.61 -1.891,-0.943 -3,-1 -0.956,-1.159 -1.956,-2.326 -3,-3.5 0.145,-0.772 0.478,-1.439 1,-2 6.993,-1.021 13.827,-0.521 20.5,1.5 1.412,-1.423 2.579,-1.256 3.5,0.5 -1.98,1.825 -4.313,2.659 -7,2.5 0,1 0,2 0,3 -4.019,-0.146 -8.019,-0.479 -12,-1 z"
         id="path103" />
    </g>
    <g
       id="g107"
       style="clip-rule:evenodd;fill-rule:evenodd;image-rendering:optimizeQuality;shape-rendering:geometricPrecision;text-rendering:geometricPrecision"
       transform="matrix(0.28703213,0,0,0.28703213,-106.40506,-2.5076997)">
      <path
         style="opacity:1"
         fill="#69a1d6"
         d="m 580.5,119.5 c 0,0.333 0,0.667 0,1 -0.992,-0.172 -1.658,0.162 -2,1 -2.17,-1.586 -4.504,-2.92 -7,-4 -0.131,-0.876 0.202,-1.543 1,-2 2.142,2.405 4.809,3.738 8,4 z"
         id="path107" />
    </g>
    <g
       id="g108"
       style="clip-rule:evenodd;fill-rule:evenodd;image-rendering:optimizeQuality;shape-rendering:geometricPrecision;text-rendering:geometricPrecision"
       transform="matrix(0.28703213,0,0,0.28703213,-106.40506,-2.5076997)">
      <path
         style="opacity:1"
         fill="#bfd8ec"
         d="m 577.5,115.5 c 4.832,0.924 9.498,1.257 14,1 -3.619,0.744 -7.285,1.077 -11,1 -1.21,-0.432 -2.21,-1.099 -3,-2 z"
         id="path108" />
    </g>
    <g
       id="g111"
       style="clip-rule:evenodd;fill-rule:evenodd;image-rendering:optimizeQuality;shape-rendering:geometricPrecision;text-rendering:geometricPrecision"
       transform="matrix(0.28703213,0,0,0.28703213,-106.40506,-2.5076997)">
      <path
         style="opacity:1"
         fill="#6da3d7"
         d="m 493.5,114.5 c 0.438,-0.065 0.772,0.101 1,0.5 -2.204,2.594 -4.87,4.428 -8,5.5 -0.667,0 -1.333,0 -2,0 3.135,-1.739 6.135,-3.739 9,-6 z"
         id="path111" />
    </g>
    <g
       id="g112"
       style="clip-rule:evenodd;fill-rule:evenodd;image-rendering:optimizeQuality;shape-rendering:geometricPrecision;text-rendering:geometricPrecision"
       transform="matrix(0.28703213,0,0,0.28703213,-106.40506,-2.5076997)">
      <path
         style="opacity:1"
         fill="#456889"
         d="m 591.5,116.5 c 1.452,2.274 0.785,3.774 -2,4.5 -3.092,0.736 -6.092,0.569 -9,-0.5 0,-0.333 0,-0.667 0,-1 0,-0.667 0,-1.333 0,-2 3.715,0.077 7.381,-0.256 11,-1 z"
         id="path112" />
    </g>
    <g
       id="g116"
       style="clip-rule:evenodd;fill-rule:evenodd;image-rendering:optimizeQuality;shape-rendering:geometricPrecision;text-rendering:geometricPrecision"
       transform="matrix(0.28703213,0,0,0.28703213,-106.40506,-2.5076997)">
      <path
         style="opacity:1"
         fill="#84beed"
         d="m 499.5,119.5 c 0,0.667 0.333,1 1,1 -2.22,5.412 -4.22,5.245 -6,-0.5 1.522,-3.075 3.189,-3.241 5,-0.5 z"
         id="path116" />
    </g>
    <g
       id="g117"
       style="clip-rule:evenodd;fill-rule:evenodd;image-rendering:optimizeQuality;shape-rendering:geometricPrecision;text-rendering:geometricPrecision"
       transform="matrix(0.28703213,0,0,0.28703213,-106.40506,-2.5076997)">
      <path
         style="opacity:1"
         fill="#17569b"
         d="m 512.5,133.5 c -0.311,0.978 -0.978,1.645 -2,2 -0.765,-1.112 -1.765,-1.779 -3,-2 0,-0.333 0,-0.667 0,-1 1.453,-1.325 1.119,-2.158 -1,-2.5 0.951,-0.718 1.117,-1.551 0.5,-2.5 -1.344,-1.842 -2.844,-3.508 -4.5,-5 1.507,-1.239 2.674,-0.905 3.5,1 1.65,-0.432 3.15,-1.765 4.5,-4 3.085,1.744 6.085,3.578 9,5.5 -0.647,1.609 -1.48,3.109 -2.5,4.5 -0.333,-0.667 -0.667,-1.333 -1,-2 -0.627,2.427 -1.794,4.427 -3.5,6 z"
         id="path117" />
    </g>
    <g
       id="g120"
       style="clip-rule:evenodd;fill-rule:evenodd;image-rendering:optimizeQuality;shape-rendering:geometricPrecision;text-rendering:geometricPrecision"
       transform="matrix(0.28703213,0,0,0.28703213,-106.40506,-2.5076997)">
      <path
         style="opacity:1"
         fill="#537aa3"
         d="m 547.5,119.5 c -2.015,1.424 -4.348,2.09 -7,2 2.015,-1.424 4.348,-2.09 7,-2 z"
         id="path120" />
    </g>
    <g
       id="g121"
       style="clip-rule:evenodd;fill-rule:evenodd;image-rendering:optimizeQuality;shape-rendering:geometricPrecision;text-rendering:geometricPrecision"
       transform="matrix(0.28703213,0,0,0.28703213,-106.40506,-2.5076997)">
      <path
         style="opacity:1"
         fill="#185699"
         d="m 562.5,123.5 c -2.688,0.524 -4.188,2.191 -4.5,5 -0.333,-0.333 -0.667,-0.667 -1,-1 -0.5,1.167 -1.333,2 -2.5,2.5 1.323,0.816 1.989,1.983 2,3.5 0,1 0,2 0,3 -1.937,-1.591 -3.937,-3.258 -6,-5 -0.603,-1.135 -0.936,-2.135 -1,-3 -2.619,-0.238 -5.285,0.095 -8,1 -2.333,-0.667 -4.667,-1.333 -7,-2 1.878,-0.708 3.545,-1.874 5,-3.5 5.045,-0.958 9.712,-2.791 14,-5.5 2.899,1.142 5.899,1.808 9,2 0,1 0,2 0,3 z"
         id="path121" />
    </g>
    <g
       id="g122"
       style="clip-rule:evenodd;fill-rule:evenodd;image-rendering:optimizeQuality;shape-rendering:geometricPrecision;text-rendering:geometricPrecision"
       transform="matrix(0.28703213,0,0,0.28703213,-106.40506,-2.5076997)">
      <path
         style="opacity:1"
         fill="#1e5995"
         d="m 571.5,117.5 c 2.496,1.08 4.83,2.414 7,4 1,0.333 1.667,1 2,2 -0.086,0.996 0.248,1.829 1,2.5 5.263,0.004 7.763,2.504 7.5,7.5 -1.726,1.076 -3.559,1.243 -5.5,0.5 -4.057,-2.866 -8.39,-4.866 -13,-6 -1.324,5.266 -1.324,10.433 0,15.5 0.252,9.373 -0.082,18.707 -1,28 -1.226,2.442 -2.559,4.776 -4,7 0.956,-16.657 1.123,-33.324 0.5,-50 -1.113,-1.829 -2.613,-2.663 -4.5,-2.5 -1.952,2.426 -3.619,4.926 -5,7.5 -0.011,-1.517 -0.677,-2.684 -2,-3.5 1.167,-0.5 2,-1.333 2.5,-2.5 0.333,0.333 0.667,0.667 1,1 0.312,-2.809 1.812,-4.476 4.5,-5 0.667,-0.333 1.333,-0.667 2,-1 0.366,1.195 1.199,1.861 2.5,2 2.176,-1.016 3.343,-2.682 3.5,-5 -0.172,-0.992 0.162,-1.658 1,-2 z"
         id="path122" />
    </g>
    <g
       id="g124"
       style="clip-rule:evenodd;fill-rule:evenodd;image-rendering:optimizeQuality;shape-rendering:geometricPrecision;text-rendering:geometricPrecision"
       transform="matrix(0.28703213,0,0,0.28703213,-106.40506,-2.5076997)">
      <path
         style="opacity:1"
         fill="#a5ceef"
         d="m 570.5,119.5 c -0.157,2.318 -1.324,3.984 -3.5,5 -1.301,-0.139 -2.134,-0.805 -2.5,-2 0.384,-3.944 2.384,-4.944 6,-3 z"
         id="path124" />
    </g>
    <g
       id="g129"
       style="clip-rule:evenodd;fill-rule:evenodd;image-rendering:optimizeQuality;shape-rendering:geometricPrecision;text-rendering:geometricPrecision"
       transform="matrix(0.28703213,0,0,0.28703213,-106.40506,-2.5076997)">
      <path
         style="opacity:1"
         fill="#cbeaf8"
         d="m 484.5,120.5 c 0.667,0 1.333,0 2,0 -0.667,0.667 -1.333,1.333 -2,2 -2.667,1 -5.333,2 -8,3 -0.086,-0.996 0.248,-1.829 1,-2.5 -0.916,-0.278 -1.582,-0.778 -2,-1.5 3.07,0.132 6.07,-0.201 9,-1 z"
         id="path129" />
    </g>
    <g
       id="g134"
       style="clip-rule:evenodd;fill-rule:evenodd;image-rendering:optimizeQuality;shape-rendering:geometricPrecision;text-rendering:geometricPrecision"
       transform="matrix(0.28703213,0,0,0.28703213,-106.40506,-2.5076997)">
      <path
         style="opacity:1"
         fill="#22568a"
         d="m 569.5,110.5 c 2.667,1.667 5.333,3.333 8,5 0.79,0.901 1.79,1.568 3,2 0,0.667 0,1.333 0,2 -3.191,-0.262 -5.858,-1.595 -8,-4 -0.798,0.457 -1.131,1.124 -1,2 -0.838,0.342 -1.172,1.008 -1,2 -3.616,-1.944 -5.616,-0.944 -6,3 -0.667,0.333 -1.333,0.667 -2,1 0,-1 0,-2 0,-3 -3.101,-0.192 -6.101,-0.858 -9,-2 -4.288,2.709 -8.955,4.542 -14,5.5 -1.455,1.626 -3.122,2.792 -5,3.5 -2,0 -4,0 -6,0 -3.14,-1.489 -6.14,-3.822 -9,-7 0.333,0 0.667,0 1,0 1.109,0.057 2.109,0.39 3,1 5.551,3.886 11.218,3.886 17,0 2.652,0.09 4.985,-0.576 7,-2 3.234,-0.589 4.567,-2.589 4,-6 1.569,-0.315 3.235,-0.315 5,0 1.699,-0.16 3.366,0.006 5,0.5 5.702,5.228 8.369,4.061 8,-3.5 z"
         id="path134" />
    </g>
    <g
       id="g135"
       style="clip-rule:evenodd;fill-rule:evenodd;image-rendering:optimizeQuality;shape-rendering:geometricPrecision;text-rendering:geometricPrecision"
       transform="matrix(0.28703213,0,0,0.28703213,-106.40506,-2.5076997)">
      <path
         style="opacity:1"
         fill="#b3dff3"
         d="m 556.5,113.5 c 1.882,1.251 3.882,2.418 6,3.5 -3.235,2.253 -5.902,1.753 -8,-1.5 0.247,-1.213 0.914,-1.88 2,-2 z"
         id="path135" />
    </g>
    <g
       id="g136"
       style="clip-rule:evenodd;fill-rule:evenodd;image-rendering:optimizeQuality;shape-rendering:geometricPrecision;text-rendering:geometricPrecision"
       transform="matrix(0.28703213,0,0,0.28703213,-106.40506,-2.5076997)">
      <path
         style="opacity:1"
         fill="#6aa7df"
         d="m 507.5,132.5 c 0,0.333 0,0.667 0,1 1.454,1.763 1.12,3.097 -1,4 -0.671,-1.347 -0.671,-2.514 0,-3.5 -2.534,-0.516 -4.7,-1.683 -6.5,-3.5 -0.333,0.333 -0.667,0.667 -1,1 -0.667,5.667 -0.667,11.333 0,17 0.417,-1.256 1.25,-1.923 2.5,-2 -1.754,3.758 -2.421,7.758 -2,12 -0.979,3.125 -1.313,6.458 -1,10 -0.995,-12.823 -1.329,-25.823 -1,-39 0.951,-1.618 2.284,-2.951 4,-4 2.023,2.353 4.023,4.686 6,7 z"
         id="path136" />
    </g>
    <g
       id="g137"
       style="clip-rule:evenodd;fill-rule:evenodd;image-rendering:optimizeQuality;shape-rendering:geometricPrecision;text-rendering:geometricPrecision"
       transform="matrix(0.28703213,0,0,0.28703213,-106.40506,-2.5076997)">
      <path
         style="opacity:1"
         fill="#34608d"
         d="m 580.5,123.5 c 4.155,1.242 7.822,3.242 11,6 0.98,4.341 -0.687,6.674 -5,7 -4.168,-1.278 -8.168,-2.944 -12,-5 -0.761,-0.891 -1.761,-1.558 -3,-2 -0.989,3.607 -1.323,7.274 -1,11 0,1 0,2 0,3 -1.324,-5.067 -1.324,-10.234 0,-15.5 4.61,1.134 8.943,3.134 13,6 1.941,0.743 3.774,0.576 5.5,-0.5 0.263,-4.996 -2.237,-7.496 -7.5,-7.5 -0.752,-0.671 -1.086,-1.504 -1,-2.5 z"
         id="path137" />
    </g>
    <g
       id="g140"
       style="clip-rule:evenodd;fill-rule:evenodd;image-rendering:optimizeQuality;shape-rendering:geometricPrecision;text-rendering:geometricPrecision"
       transform="matrix(0.28703213,0,0,0.28703213,-106.40506,-2.5076997)">
      <path
         style="opacity:1"
         fill="#2d6092"
         d="m 484.5,122.5 c 0.131,0.876 -0.202,1.543 -1,2 -2.689,1.057 -5.189,2.39 -7.5,4 -0.236,1.8 0.264,3.466 1.5,5 3.83,-1.639 7.83,-2.639 12,-3 0,0.333 0,0.667 0,1 -1.653,0.16 -2.986,0.826 -4,2 -3.152,1.754 -6.485,2.587 -10,2.5 -1.857,-1.182 -2.857,-2.849 -3,-5 1.05,-2.029 2.384,-3.863 4,-5.5 2.667,-1 5.333,-2 8,-3 z"
         id="path140" />
    </g>
    <g
       id="g144"
       style="clip-rule:evenodd;fill-rule:evenodd;image-rendering:optimizeQuality;shape-rendering:geometricPrecision;text-rendering:geometricPrecision"
       transform="matrix(0.28703213,0,0,0.28703213,-106.40506,-2.5076997)">
      <path
         style="opacity:1"
         fill="#7eb3e5"
         d="m 528.5,127.5 c 2,0 4,0 6,0 2.333,0.667 4.667,1.333 7,2 0,0.667 0.333,1 1,1 -0.847,1.466 -2.18,2.3 -4,2.5 0.971,1.204 1.971,1.704 3,1.5 -0.883,1.048 -1.55,2.215 -2,3.5 1.61,2.305 1.277,4.138 -1,5.5 -0.659,-3.071 -2.492,-5.071 -5.5,-6 0.058,1.48 -1.109,2.313 -3.5,2.5 0.333,0.333 0.667,0.667 1,1 -1.372,0.402 -2.705,0.902 -4,1.5 -1.124,-1.869 -1.957,-3.869 -2.5,-6 0.256,7.342 -1.577,8.342 -5.5,3 0.034,-2.034 0.034,-4.034 0,-6 -0.342,-0.838 -1.008,-1.172 -2,-1 3.803,-2.159 7.803,-3.826 12,-5 z"
         id="path144" />
    </g>
    <g
       id="g145"
       style="clip-rule:evenodd;fill-rule:evenodd;image-rendering:optimizeQuality;shape-rendering:geometricPrecision;text-rendering:geometricPrecision"
       transform="matrix(0.28703213,0,0,0.28703213,-106.40506,-2.5076997)">
      <path
         style="opacity:1"
         fill="#b5d4ee"
         d="m 574.5,131.5 c -1,0 -2,0 -3,0 0,3 0,6 0,9 -0.333,0 -0.667,0 -1,0 -0.323,-3.726 0.011,-7.393 1,-11 1.239,0.442 2.239,1.109 3,2 z"
         id="path145" />
    </g>
    <g
       id="g150"
       style="clip-rule:evenodd;fill-rule:evenodd;image-rendering:optimizeQuality;shape-rendering:geometricPrecision;text-rendering:geometricPrecision"
       transform="matrix(0.28703213,0,0,0.28703213,-106.40506,-2.5076997)">
      <path
         style="opacity:1"
         fill="#d7eef6"
         d="m 544.5,131.5 c 0.333,0 0.667,0 1,0 10.186,7.038 15.019,16.705 14.5,29 -1.122,1.907 -1.955,3.907 -2.5,6 -0.838,0.342 -1.172,1.008 -1,2 -0.333,0 -0.667,0 -1,0 1.106,-3.404 2.106,-6.904 3,-10.5 -0.684,-4.918 -1.684,-9.752 -3,-14.5 -1.322,0.17 -2.489,-0.163 -3.5,-1 -0.173,5.516 -0.673,10.849 -1.5,16 1.428,-9.935 -0.572,-18.935 -6,-27 z"
         id="path150" />
    </g>
    <g
       id="g151"
       style="clip-rule:evenodd;fill-rule:evenodd;image-rendering:optimizeQuality;shape-rendering:geometricPrecision;text-rendering:geometricPrecision"
       transform="matrix(0.28703213,0,0,0.28703213,-106.40506,-2.5076997)">
      <path
         style="opacity:1"
         fill="#e4f3f7"
         d="m 591.5,129.5 c 2.12,4.359 0.787,7.193 -4,8.5 -3.984,1.115 -7.318,0.115 -10,-3 -1.634,-0.494 -3.301,-0.66 -5,-0.5 0.452,3.376 1.118,6.709 2,10 -1.553,4.623 -2.553,9.289 -3,14 0,-6 0,-12 0,-18 0,-3 0,-6 0,-9 1,0 2,0 3,0 3.832,2.056 7.832,3.722 12,5 4.313,-0.326 5.98,-2.659 5,-7 z"
         id="path151" />
    </g>
    <g
       id="g153"
       style="clip-rule:evenodd;fill-rule:evenodd;image-rendering:optimizeQuality;shape-rendering:geometricPrecision;text-rendering:geometricPrecision"
       transform="matrix(0.28703213,0,0,0.28703213,-106.40506,-2.5076997)">
      <path
         style="opacity:1"
         fill="#2a5d90"
         d="m 516.5,132.5 c -2.715,2.714 -5.049,5.714 -7,9 -1.474,0.936 -2.474,2.27 -3,4 -3,4.008 -3.666,8.341 -2,13 1.117,4.234 2.784,8.234 5,12 3.515,7.041 6.348,14.374 8.5,22 0.748,2.251 2.248,3.584 4.5,4 0,0.333 0,0.667 0,1 -3.053,-0.072 -5.719,-1.072 -8,-3 -0.057,-1.109 -0.39,-2.109 -1,-3 -1.536,-3.942 -2.87,-7.942 -4,-12 -0.65,-1.935 -0.983,-3.935 -1,-6 -0.473,-1.406 -1.473,-2.073 -3,-2 0.172,-0.992 -0.162,-1.658 -1,-2 -1.482,-3.794 -3.149,-7.461 -5,-11 -0.421,-4.242 0.246,-8.242 2,-12 1.401,-3.134 3.068,-6.134 5,-9 2.12,-0.903 2.454,-2.237 1,-4 1.235,0.221 2.235,0.888 3,2 1.022,-0.355 1.689,-1.022 2,-2 1.208,-0.734 2.541,-1.067 4,-1 z"
         id="path153" />
    </g>
    <g
       id="g155"
       style="clip-rule:evenodd;fill-rule:evenodd;image-rendering:optimizeQuality;shape-rendering:geometricPrecision;text-rendering:geometricPrecision"
       transform="matrix(0.28703213,0,0,0.28703213,-106.40506,-2.5076997)">
      <path
         style="opacity:1"
         fill="#88bfef"
         d="m 506.5,137.5 c -1.932,2.866 -3.599,5.866 -5,9 -1.25,0.077 -2.083,0.744 -2.5,2 -0.667,-5.667 -0.667,-11.333 0,-17 0.333,-0.333 0.667,-0.667 1,-1 1.8,1.817 3.966,2.984 6.5,3.5 -0.671,0.986 -0.671,2.153 0,3.5 z"
         id="path155" />
    </g>
    <g
       id="g156"
       style="clip-rule:evenodd;fill-rule:evenodd;image-rendering:optimizeQuality;shape-rendering:geometricPrecision;text-rendering:geometricPrecision"
       transform="matrix(0.28703213,0,0,0.28703213,-106.40506,-2.5076997)">
      <path
         style="opacity:1"
         fill="#f3f8f9"
         d="m 509.5,170.5 c -2.216,-3.766 -3.883,-7.766 -5,-12 -0.075,-4.481 0.592,-8.814 2,-13 0.526,-1.73 1.526,-3.064 3,-4 0.996,0.086 1.829,-0.248 2.5,-1 0.748,6.032 0.581,12.032 -0.5,18 2.291,5.49 3.458,11.156 3.5,17 -1.084,-1.165 -1.917,-2.498 -2.5,-4 -0.825,-0.886 -1.825,-1.219 -3,-1 z"
         id="path156" />
    </g>
    <g
       id="g157"
       style="clip-rule:evenodd;fill-rule:evenodd;image-rendering:optimizeQuality;shape-rendering:geometricPrecision;text-rendering:geometricPrecision"
       transform="matrix(0.28703213,0,0,0.28703213,-106.40506,-2.5076997)">
      <path
         style="opacity:1"
         fill="#8bb4d3"
         d="m 518.5,133.5 c 0.034,1.966 0.034,3.966 0,6 -1.293,1.342 -2.126,3.009 -2.5,5 -0.667,5 -0.667,10 0,15 1.835,6.725 3.668,13.725 5.5,21 -4.746,-9.14 -7.413,-18.974 -8,-29.5 -0.419,-6.499 1.248,-12.332 5,-17.5 z"
         id="path157" />
    </g>
    <g
       id="g161"
       style="clip-rule:evenodd;fill-rule:evenodd;image-rendering:optimizeQuality;shape-rendering:geometricPrecision;text-rendering:geometricPrecision"
       transform="matrix(0.28703213,0,0,0.28703213,-106.40506,-2.5076997)">
      <path
         style="opacity:1"
         fill="#446e96"
         d="m 492.5,129.5 c 0.342,-0.838 1.008,-1.172 2,-1 0,11 0,22 0,33 -0.667,-10.667 -1.333,-21.333 -2,-32 z"
         id="path161" />
    </g>
    <g
       id="g162"
       style="clip-rule:evenodd;fill-rule:evenodd;image-rendering:optimizeQuality;shape-rendering:geometricPrecision;text-rendering:geometricPrecision"
       transform="matrix(0.28703213,0,0,0.28703213,-106.40506,-2.5076997)">
      <path
         style="opacity:1"
         fill="#91b9d8"
         d="m 544.5,131.5 c 5.428,8.065 7.428,17.065 6,27 -1.073,5.009 -2.74,9.676 -5,14 -0.092,-3.559 0.741,-6.892 2.5,-10 0.017,-5.694 0.184,-11.027 0.5,-16 -0.468,-1.634 -1.468,-2.8 -3,-3.5 0.333,-0.333 0.667,-0.667 1,-1 -2.14,-2.066 -2.807,-4.4 -2,-7 -2.57,-1.349 -2.57,-2.516 0,-3.5 z"
         id="path162" />
    </g>
    <g
       id="g165"
       style="clip-rule:evenodd;fill-rule:evenodd;image-rendering:optimizeQuality;shape-rendering:geometricPrecision;text-rendering:geometricPrecision"
       transform="matrix(0.28703213,0,0,0.28703213,-106.40506,-2.5076997)">
      <path
         style="opacity:1"
         fill="#b1cee7"
         d="m 492.5,129.5 c 0.667,10.667 1.333,21.333 2,32 0,3 0,6 0,9 -0.809,-1.792 -1.309,-3.792 -1.5,-6 -0.333,-11.333 -0.667,-22.667 -1,-34 -0.671,0.752 -1.504,1.086 -2.5,1 0,-0.333 0,-0.667 0,-1 0.891,-0.61 1.891,-0.943 3,-1 z"
         id="path165" />
    </g>
    <g
       id="g166"
       style="clip-rule:evenodd;fill-rule:evenodd;image-rendering:optimizeQuality;shape-rendering:geometricPrecision;text-rendering:geometricPrecision"
       transform="matrix(0.28703213,0,0,0.28703213,-106.40506,-2.5076997)">
      <path
         style="opacity:1"
         fill="#aacae2"
         d="m 506.5,145.5 c -1.408,4.186 -2.075,8.519 -2,13 -1.666,-4.659 -1,-8.992 2,-13 z"
         id="path166" />
    </g>
    <g
       id="g167"
       style="clip-rule:evenodd;fill-rule:evenodd;image-rendering:optimizeQuality;shape-rendering:geometricPrecision;text-rendering:geometricPrecision"
       transform="matrix(0.28703213,0,0,0.28703213,-106.40506,-2.5076997)">
      <path
         style="opacity:1"
         fill="#84b6e0"
         d="m 542.5,130.5 c 1.291,-0.237 2.291,0.096 3,1 -0.333,0 -0.667,0 -1,0 -2.57,0.984 -2.57,2.151 0,3.5 -0.807,2.6 -0.14,4.934 2,7 -0.333,0.333 -0.667,0.667 -1,1 1.532,0.7 2.532,1.866 3,3.5 -0.316,4.973 -0.483,10.306 -0.5,16 -1.759,3.108 -2.592,6.441 -2.5,10 -0.394,3.906 -1.56,7.572 -3.5,11 -0.167,2 -0.333,4 -0.5,6 0.039,2.452 0.706,4.452 2,6 -0.342,0.838 -1.008,1.172 -2,1 -0.864,-1.188 -1.864,-2.355 -3,-3.5 0.744,-2.851 0.744,-5.517 0,-8 2.437,-3.307 4.103,-6.974 5,-11 0.007,-1.812 -0.66,-3.312 -2,-4.5 1,-0.667 2,-1.333 3,-2 -0.209,-0.586 -0.543,-1.086 -1,-1.5 0.896,-2.179 2.229,-4.012 4,-5.5 -0.087,-2.203 -0.087,-4.37 0,-6.5 -1.607,0.019 -3.274,0.185 -5,0.5 0.087,3.098 -0.413,3.432 -1.5,1 -0.911,3.076 -2.744,5.409 -5.5,7 -5.074,-0.596 -10.241,-1.93 -15.5,-4 -1.188,1.063 -1.688,2.397 -1.5,4 1.373,-0.157 2.707,0.01 4,0.5 -2.336,1.27 -2.336,2.77 0,4.5 1.435,-1.901 3.102,-2.234 5,-1 -4.082,3.691 -4.749,7.858 -2,12.5 -1.359,3.249 -0.692,6.082 2,8.5 -1.145,1.391 -1.145,2.724 0,4 0.925,1.141 1.759,1.141 2.5,0 0.333,0.667 0.667,1.333 1,2 0.718,-0.951 1.551,-1.117 2.5,-0.5 -0.691,1.067 -1.191,2.234 -1.5,3.5 -1.529,-1.083 -3.029,-2.083 -4.5,-3 -1.122,1.13 -2.456,1.797 -4,2 -0.667,-5 -1.333,-10 -2,-15 -1.832,-7.275 -3.665,-14.275 -5.5,-21 -0.667,-5 -0.667,-10 0,-15 0.374,-1.991 1.207,-3.658 2.5,-5 3.923,5.342 5.756,4.342 5.5,-3 0.543,2.131 1.376,4.131 2.5,6 1.295,-0.598 2.628,-1.098 4,-1.5 -0.333,-0.333 -0.667,-0.667 -1,-1 2.391,-0.187 3.558,-1.02 3.5,-2.5 3.008,0.929 4.841,2.929 5.5,6 2.277,-1.362 2.61,-3.195 1,-5.5 0.45,-1.285 1.117,-2.452 2,-3.5 -1.029,0.204 -2.029,-0.296 -3,-1.5 1.82,-0.2 3.153,-1.034 4,-2.5 z"
         id="path167" />
    </g>
    <g
       id="g168"
       style="clip-rule:evenodd;fill-rule:evenodd;image-rendering:optimizeQuality;shape-rendering:geometricPrecision;text-rendering:geometricPrecision"
       transform="matrix(0.28703213,0,0,0.28703213,-106.40506,-2.5076997)">
      <path
         style="opacity:1"
         fill="#93bad8"
         d="m 538.5,143.5 c 4.012,11.481 0.012,16.647 -12,15.5 -4.254,-4.599 -4.42,-9.099 -0.5,-13.5 4.126,-1.939 8.293,-2.606 12.5,-2 z"
         id="path168" />
    </g>
    <g
       id="g170"
       style="clip-rule:evenodd;fill-rule:evenodd;image-rendering:optimizeQuality;shape-rendering:geometricPrecision;text-rendering:geometricPrecision"
       transform="matrix(0.28703213,0,0,0.28703213,-106.40506,-2.5076997)">
      <path
         style="opacity:1"
         fill="#e1f3f8"
         d="m 534.5,146.5 c -5.5,-0.669 -7.667,1.665 -6.5,7 3.921,4.297 6.755,3.631 8.5,-2 -0.228,-1.707 -0.562,-3.374 -1,-5 4.146,4.02 3.813,7.853 -1,11.5 -6.624,0.371 -9.458,-2.796 -8.5,-9.5 2.414,-2.98 5.248,-3.647 8.5,-2 z"
         id="path170" />
    </g>
    <g
       id="g171"
       style="clip-rule:evenodd;fill-rule:evenodd;image-rendering:optimizeQuality;shape-rendering:geometricPrecision;text-rendering:geometricPrecision"
       transform="matrix(0.28703213,0,0,0.28703213,-106.40506,-2.5076997)">
      <path
         style="opacity:1"
         fill="#f7faf9"
         d="m 534.5,146.5 c 0.333,0 0.667,0 1,0 0.438,1.626 0.772,3.293 1,5 -1.745,5.631 -4.579,6.297 -8.5,2 -1.167,-5.335 1,-7.669 6.5,-7 z"
         id="path171" />
    </g>
    <g
       id="g172"
       style="clip-rule:evenodd;fill-rule:evenodd;image-rendering:optimizeQuality;shape-rendering:geometricPrecision;text-rendering:geometricPrecision"
       transform="matrix(0.28703213,0,0,0.28703213,-106.40506,-2.5076997)">
      <path
         style="opacity:1"
         fill="#23568b"
         d="m 556.5,136.5 c 8.942,9.051 10.275,19.051 4,30 -0.848,-1.125 -1.848,-1.125 -3,0 0.545,-2.093 1.378,-4.093 2.5,-6 0.519,-12.295 -4.314,-21.962 -14.5,-29 -0.709,-0.904 -1.709,-1.237 -3,-1 -0.667,0 -1,-0.333 -1,-1 2.715,-0.905 5.381,-1.238 8,-1 0.064,0.865 0.397,1.865 1,3 2.063,1.742 4.063,3.409 6,5 z"
         id="path172" />
    </g>
    <g
       id="g173"
       style="clip-rule:evenodd;fill-rule:evenodd;image-rendering:optimizeQuality;shape-rendering:geometricPrecision;text-rendering:geometricPrecision"
       transform="matrix(0.28703213,0,0,0.28703213,-106.40506,-2.5076997)">
      <path
         style="opacity:1"
         fill="#81b5e6"
         d="m 541.5,196.5 c 0,0.333 0,0.667 0,1 -6.347,1.288 -12.68,1.288 -19,0 0,-0.333 0,-0.667 0,-1 0.667,0 1,-0.333 1,-1 1.544,-0.203 2.878,-0.87 4,-2 1.471,0.917 2.971,1.917 4.5,3 0.309,-1.266 0.809,-2.433 1.5,-3.5 -0.949,-0.617 -1.782,-0.451 -2.5,0.5 -0.333,-0.667 -0.667,-1.333 -1,-2 -0.741,1.141 -1.575,1.141 -2.5,0 -1.145,-1.276 -1.145,-2.609 0,-4 -2.692,-2.418 -3.359,-5.251 -2,-8.5 -2.749,-4.642 -2.082,-8.809 2,-12.5 -1.898,-1.234 -3.565,-0.901 -5,1 -2.336,-1.73 -2.336,-3.23 0,-4.5 -1.293,-0.49 -2.627,-0.657 -4,-0.5 -0.188,-1.603 0.312,-2.937 1.5,-4 5.259,2.07 10.426,3.404 15.5,4 2.756,-1.591 4.589,-3.924 5.5,-7 1.087,2.432 1.587,2.098 1.5,-1 1.726,-0.315 3.393,-0.481 5,-0.5 -0.087,2.13 -0.087,4.297 0,6.5 -1.771,1.488 -3.104,3.321 -4,5.5 0.457,0.414 0.791,0.914 1,1.5 -1,0.667 -2,1.333 -3,2 1.34,1.188 2.007,2.688 2,4.5 -0.897,4.026 -2.563,7.693 -5,11 0.744,2.483 0.744,5.149 0,8 1.136,1.145 2.136,2.312 3,3.5 z"
         id="path173" />
    </g>
    <g
       id="g176"
       style="clip-rule:evenodd;fill-rule:evenodd;image-rendering:optimizeQuality;shape-rendering:geometricPrecision;text-rendering:geometricPrecision"
       transform="matrix(0.28703213,0,0,0.28703213,-106.40506,-2.5076997)">
      <path
         style="opacity:1"
         fill="#275a8f"
         d="m 494.5,128.5 c 1.291,-0.237 2.291,0.096 3,1 -0.329,13.177 0.005,26.177 1,39 0.002,8.676 1.668,17.009 5,25 -0.651,2.311 0.182,4.311 2.5,6 0.985,7.638 1.485,15.304 1.5,23 -1.634,1.081 -2.967,2.415 -4,4 -0.838,0.342 -1.172,1.008 -1,2 -0.432,1.21 -1.099,2.21 -2,3 0.199,-4.231 1.866,-7.731 5,-10.5 -0.752,-0.671 -1.086,-1.504 -1,-2.5 0.166,-6.342 0,-12.675 -0.5,-19 -4.389,-4.446 -6.889,-9.779 -7.5,-16 -0.065,-2.928 -0.732,-5.595 -2,-8 0,-1.667 0,-3.333 0,-5 0,-3 0,-6 0,-9 0,-11 0,-22 0,-33 z"
         id="path176" />
    </g>
    <g
       id="g181"
       style="clip-rule:evenodd;fill-rule:evenodd;image-rendering:optimizeQuality;shape-rendering:geometricPrecision;text-rendering:geometricPrecision"
       transform="matrix(0.28703213,0,0,0.28703213,-106.40506,-2.5076997)">
      <path
         style="opacity:1"
         fill="#e2f3f8"
         d="m 516.5,132.5 c 0.992,-0.172 1.658,0.162 2,1 -3.752,5.168 -5.419,11.001 -5,17.5 0.587,10.526 3.254,20.36 8,29.5 0.667,5 1.333,10 2,15 0,0.667 -0.333,1 -1,1 -2.252,-0.416 -3.752,-1.749 -4.5,-4 -2.152,-7.626 -4.985,-14.959 -8.5,-22 1.175,-0.219 2.175,0.114 3,1 0.583,1.502 1.416,2.835 2.5,4 -0.042,-5.844 -1.209,-11.51 -3.5,-17 1.081,-5.968 1.248,-11.968 0.5,-18 -0.671,0.752 -1.504,1.086 -2.5,1 1.951,-3.286 4.285,-6.286 7,-9 z"
         id="path181" />
    </g>
    <g
       id="g185"
       style="clip-rule:evenodd;fill-rule:evenodd;image-rendering:optimizeQuality;shape-rendering:geometricPrecision;text-rendering:geometricPrecision"
       transform="matrix(0.28703213,0,0,0.28703213,-106.40506,-2.5076997)">
      <path
         style="opacity:1"
         fill="#95b4cf"
         d="m 570.5,140.5 c 0.333,0 0.667,0 1,0 0,6 0,12 0,18 0,3.667 0,7.333 0,11 -0.667,2.333 -1.333,4.667 -2,7 0,-1.667 0,-3.333 0,-5 0.918,-9.293 1.252,-18.627 1,-28 0,-1 0,-2 0,-3 z"
         id="path185" />
    </g>
    <g
       id="g188"
       style="clip-rule:evenodd;fill-rule:evenodd;image-rendering:optimizeQuality;shape-rendering:geometricPrecision;text-rendering:geometricPrecision"
       transform="matrix(0.28703213,0,0,0.28703213,-106.40506,-2.5076997)">
      <path
         style="opacity:1"
         fill="#7cb9ed"
         d="m 499.5,158.5 c 1.851,3.539 3.518,7.206 5,11 0.326,8.184 -0.008,16.184 -1,24 -3.332,-7.991 -4.998,-16.324 -5,-25 -0.313,-3.542 0.021,-6.875 1,-10 z"
         id="path188" />
    </g>
    <g
       id="g189"
       style="clip-rule:evenodd;fill-rule:evenodd;image-rendering:optimizeQuality;shape-rendering:geometricPrecision;text-rendering:geometricPrecision"
       transform="matrix(0.28703213,0,0,0.28703213,-106.40506,-2.5076997)">
      <path
         style="opacity:1"
         fill="#91b1cc"
         d="m 552.5,176.5 c 0.073,1.527 -0.594,2.527 -2,3 -0.073,-1.527 0.594,-2.527 2,-3 z"
         id="path189" />
    </g>
    <g
       id="g192"
       style="clip-rule:evenodd;fill-rule:evenodd;image-rendering:optimizeQuality;shape-rendering:geometricPrecision;text-rendering:geometricPrecision"
       transform="matrix(0.28703213,0,0,0.28703213,-106.40506,-2.5076997)">
      <path
         style="opacity:1"
         fill="#135492"
         d="m 505.5,171.5 c 1.527,-0.073 2.527,0.594 3,2 -0.978,0.311 -1.645,0.978 -2,2 1.286,5.311 1.286,10.644 0,16 -0.997,-6.634 -1.33,-13.3 -1,-20 z"
         id="path192" />
    </g>
    <g
       id="g193"
       style="clip-rule:evenodd;fill-rule:evenodd;image-rendering:optimizeQuality;shape-rendering:geometricPrecision;text-rendering:geometricPrecision"
       transform="matrix(0.28703213,0,0,0.28703213,-106.40506,-2.5076997)">
      <path
         style="opacity:1"
         fill="#587ea1"
         d="m 494.5,175.5 c 1.268,2.405 1.935,5.072 2,8 -1.54,-2.338 -2.206,-5.005 -2,-8 z"
         id="path193" />
    </g>
    <g
       id="g195"
       style="clip-rule:evenodd;fill-rule:evenodd;image-rendering:optimizeQuality;shape-rendering:geometricPrecision;text-rendering:geometricPrecision"
       transform="matrix(0.28703213,0,0,0.28703213,-106.40506,-2.5076997)">
      <path
         style="opacity:1"
         fill="#ebf6f8"
         d="m 555.5,168.5 c -1.383,2.478 -2.383,5.145 -3,8 -1.406,0.473 -2.073,1.473 -2,3 -1.486,4.312 -2.986,8.646 -4.5,13 -0.377,1.442 -1.21,2.442 -2.5,3 -1.294,-1.548 -1.961,-3.548 -2,-6 0.167,-2 0.333,-4 0.5,-6 1.94,-3.428 3.106,-7.094 3.5,-11 2.26,-4.324 3.927,-8.991 5,-14 0.827,-5.151 1.327,-10.484 1.5,-16 1.011,0.837 2.178,1.17 3.5,1 1.316,4.748 2.316,9.582 3,14.5 -0.894,3.596 -1.894,7.096 -3,10.5 z"
         id="path195" />
    </g>
    <g
       id="g197"
       style="clip-rule:evenodd;fill-rule:evenodd;image-rendering:optimizeQuality;shape-rendering:geometricPrecision;text-rendering:geometricPrecision"
       transform="matrix(0.28703213,0,0,0.28703213,-106.40506,-2.5076997)">
      <path
         style="opacity:1"
         fill="#75b0e5"
         d="m 565.5,178.5 c -1.683,4.893 -3.183,9.893 -4.5,15 -0.383,0.556 -0.883,0.889 -1.5,1 -0.28,-9.386 0.053,-18.72 1,-28 6.275,-10.949 4.942,-20.949 -4,-30 0,-1 0,-2 0,-3 1.381,-2.574 3.048,-5.074 5,-7.5 1.887,-0.163 3.387,0.671 4.5,2.5 0.623,16.676 0.456,33.343 -0.5,50 z"
         id="path197" />
    </g>
    <g
       id="g200"
       style="clip-rule:evenodd;fill-rule:evenodd;image-rendering:optimizeQuality;shape-rendering:geometricPrecision;text-rendering:geometricPrecision"
       transform="matrix(0.28703213,0,0,0.28703213,-106.40506,-2.5076997)">
      <path
         style="opacity:1"
         fill="#65a4dd"
         d="m 509.5,179.5 c 1.13,4.058 2.464,8.058 4,12 -1.613,-0.444 -2.78,-1.444 -3.5,-3 -0.825,10.508 -0.659,20.842 0.5,31 -0.129,1.716 -0.462,3.383 -1,5 -1.333,-15 -1.333,-30 0,-45 z"
         id="path200" />
    </g>
    <g
       id="g202"
       style="clip-rule:evenodd;fill-rule:evenodd;image-rendering:optimizeQuality;shape-rendering:geometricPrecision;text-rendering:geometricPrecision"
       transform="matrix(0.28703213,0,0,0.28703213,-106.40506,-2.5076997)">
      <path
         style="opacity:1"
         fill="#2d6092"
         d="m 569.5,171.5 c 0,1.667 0,3.333 0,5 0.162,9.381 -3.005,17.381 -9.5,24 -0.499,5.991 -0.666,11.991 -0.5,18 -0.69,-4.733 -1.356,-9.566 -2,-14.5 0.667,-2 1.333,-4 2,-6 -1.134,-1.016 -0.801,-1.683 1,-2 -0.556,-0.383 -0.889,-0.883 -1,-1.5 0.617,-0.111 1.117,-0.444 1.5,-1 1.317,-5.107 2.817,-10.107 4.5,-15 1.441,-2.224 2.774,-4.558 4,-7 z"
         id="path202" />
    </g>
    <g
       id="g206"
       style="clip-rule:evenodd;fill-rule:evenodd;image-rendering:optimizeQuality;shape-rendering:geometricPrecision;text-rendering:geometricPrecision"
       transform="matrix(0.28703213,0,0,0.28703213,-106.40506,-2.5076997)">
      <path
         style="opacity:1"
         fill="#82bced"
         d="m 513.5,191.5 c 0.61,0.891 0.943,1.891 1,3 0.938,8.772 -0.395,17.105 -4,25 -1.159,-10.158 -1.325,-20.492 -0.5,-31 0.72,1.556 1.887,2.556 3.5,3 z"
         id="path206" />
    </g>
    <g
       id="g207"
       style="clip-rule:evenodd;fill-rule:evenodd;image-rendering:optimizeQuality;shape-rendering:geometricPrecision;text-rendering:geometricPrecision"
       transform="matrix(0.28703213,0,0,0.28703213,-106.40506,-2.5076997)">
      <path
         style="opacity:1"
         fill="#28588a"
         d="m 555.5,168.5 c 0.333,0 0.667,0 1,0 -1,4 -2,8 -3,12 -0.582,4.583 -1.915,8.917 -4,13 -2.465,1.814 -5.132,3.147 -8,4 0,-0.333 0,-0.667 0,-1 0.992,0.172 1.658,-0.162 2,-1 1.29,-0.558 2.123,-1.558 2.5,-3 1.514,-4.354 3.014,-8.688 4.5,-13 1.406,-0.473 2.073,-1.473 2,-3 0.617,-2.855 1.617,-5.522 3,-8 z"
         id="path207" />
    </g>
    <g
       id="g208"
       style="clip-rule:evenodd;fill-rule:evenodd;image-rendering:optimizeQuality;shape-rendering:geometricPrecision;text-rendering:geometricPrecision"
       transform="matrix(0.28703213,0,0,0.28703213,-106.40506,-2.5076997)">
      <path
         style="opacity:1"
         fill="#3c7ab6"
         d="m 556.5,220.5 c -0.667,-13.667 -1.333,-27.333 -2,-41 -0.131,-0.876 0.202,-1.543 1,-2 0.999,14.318 1.333,28.651 1,43 z"
         id="path208" />
    </g>
    <g
       id="g210"
       style="clip-rule:evenodd;fill-rule:evenodd;image-rendering:optimizeQuality;shape-rendering:geometricPrecision;text-rendering:geometricPrecision"
       transform="matrix(0.28703213,0,0,0.28703213,-106.40506,-2.5076997)">
      <path
         style="opacity:1"
         fill="#2a69a5"
         d="m 504.5,169.5 c 0.838,0.342 1.172,1.008 1,2 -0.33,6.7 0.003,13.366 1,20 1.286,-5.356 1.286,-10.689 0,-16 0.355,-1.022 1.022,-1.689 2,-2 0.017,2.065 0.35,4.065 1,6 -1.333,15 -1.333,30 0,45 -0.283,0.789 -0.783,1.456 -1.5,2 -0.49,-1.293 -0.657,-2.627 -0.5,-4 -0.015,-7.696 -0.515,-15.362 -1.5,-23 -2.318,-1.689 -3.151,-3.689 -2.5,-6 0.992,-7.816 1.326,-15.816 1,-24 z"
         id="path210" />
    </g>
    <g
       id="g214"
       style="clip-rule:evenodd;fill-rule:evenodd;image-rendering:optimizeQuality;shape-rendering:geometricPrecision;text-rendering:geometricPrecision"
       transform="matrix(0.28703213,0,0,0.28703213,-106.40506,-2.5076997)">
      <path
         style="opacity:1"
         fill="#e1f1f7"
         d="m 494.5,170.5 c 0,1.667 0,3.333 0,5 -0.206,2.995 0.46,5.662 2,8 0.611,6.221 3.111,11.554 7.5,16 0.5,6.325 0.666,12.658 0.5,19 -4.026,5.386 -7.026,11.386 -9,18 -1.166,11.652 -1.333,23.319 -0.5,35 1.248,4.326 3.414,8.159 6.5,11.5 3.642,1.07 6.642,0.236 9,-2.5 0.658,-0.898 1.324,-1.898 2,-3 1.656,1.96 3.323,3.96 5,6 0.829,4.967 1.329,9.967 1.5,15 1.805,3.643 4.638,5.976 8.5,7 0,0.333 0,0.667 0,1 -2.627,-0.592 -5.294,-0.925 -8,-1 -0.384,-3.269 -1.718,-6.103 -4,-8.5 0.129,-3.955 0.129,-8.122 0,-12.5 -5.722,1.319 -11.389,1.153 -17,-0.5 -2.438,-2.295 -3.938,-5.128 -4.5,-8.5 -1.075,-7.856 -2.241,-15.689 -3.5,-23.5 1.221,-12.633 4.721,-24.466 10.5,-35.5 1.244,-4.279 1.577,-8.612 1,-13 -3.427,-5.431 -6.427,-11.097 -9,-17 -1.008,-12.624 -2.175,-25.458 -3.5,-38.5 0.667,-1.333 1.333,-2.667 2,-4 0.18,-3.675 -0.153,-7.508 -1,-11.5 -1.571,0.809 -3.238,1.143 -5,1 1.014,-1.174 2.347,-1.84 4,-2 0.996,0.086 1.829,-0.248 2.5,-1 0.333,11.333 0.667,22.667 1,34 0.191,2.208 0.691,4.208 1.5,6 z"
         id="path214" />
    </g>
    <g
       id="g215"
       style="clip-rule:evenodd;fill-rule:evenodd;image-rendering:optimizeQuality;shape-rendering:geometricPrecision;text-rendering:geometricPrecision"
       transform="matrix(0.28703213,0,0,0.28703213,-106.40506,-2.5076997)">
      <path
         style="opacity:1"
         fill="#7ab6eb"
         d="m 554.5,179.5 c 0.667,13.667 1.333,27.333 2,41 0.285,1.788 -0.048,3.455 -1,5 -1.397,-5.134 -3.231,-10.134 -5.5,-15 -0.499,-5.657 -0.666,-11.324 -0.5,-17 2.085,-4.083 3.418,-8.417 4,-13 0.667,0 1,-0.333 1,-1 z"
         id="path215" />
    </g>
    <g
       id="g221"
       style="clip-rule:evenodd;fill-rule:evenodd;image-rendering:optimizeQuality;shape-rendering:geometricPrecision;text-rendering:geometricPrecision"
       transform="matrix(0.28703213,0,0,0.28703213,-106.40506,-2.5076997)">
      <path
         style="opacity:1"
         fill="#195c9e"
         d="m 560.5,166.5 c -0.947,9.28 -1.28,18.614 -1,28 0.111,0.617 0.444,1.117 1,1.5 -1.801,0.317 -2.134,0.984 -1,2 -0.667,2 -1.333,4 -2,6 0.644,4.934 1.31,9.767 2,14.5 -0.539,3.195 0.461,5.695 3,7.5 -0.556,0.383 -0.889,0.883 -1,1.5 -0.863,-0.963 -1.53,-0.963 -2,0 1.595,3.18 2.595,6.513 3,10 -0.286,3.334 -0.286,6.5 0,9.5 -1.594,4.314 -2.261,3.814 -2,-1.5 0.382,-4.661 -0.618,-8.994 -3,-13 -0.861,3.027 -2.361,5.694 -4.5,8 -0.671,0.752 -1.504,1.086 -2.5,1 -1.835,-3.372 -4.168,-3.705 -7,-1 -5.614,-1.121 -11.28,-1.288 -17,-0.5 -3.953,1.148 -7.953,1.982 -12,2.5 -3.988,-1.612 -6.321,-4.612 -7,-9 -0.321,-1.548 -1.321,-2.215 -3,-2 0.284,-1.915 -0.049,-3.581 -1,-5 1.033,-1.585 2.366,-2.919 4,-4 -0.157,1.373 0.01,2.707 0.5,4 0.717,-0.544 1.217,-1.211 1.5,-2 0.538,-1.617 0.871,-3.284 1,-5 3.605,-7.895 4.938,-16.228 4,-25 2.281,1.928 4.947,2.928 8,3 6.32,1.288 12.653,1.288 19,0 2.868,-0.853 5.535,-2.186 8,-4 -0.166,5.676 10e-4,11.343 0.5,17 2.269,4.866 4.103,9.866 5.5,15 0.952,-1.545 1.285,-3.212 1,-5 0.333,-14.349 -10e-4,-28.682 -1,-43 -0.798,0.457 -1.131,1.124 -1,2 0,0.667 -0.333,1 -1,1 1,-4 2,-8 3,-12 -0.172,-0.992 0.162,-1.658 1,-2 1.152,-1.125 2.152,-1.125 3,0 z"
         id="path221" />
    </g>
    <g
       id="g224"
       style="clip-rule:evenodd;fill-rule:evenodd;image-rendering:optimizeQuality;shape-rendering:geometricPrecision;text-rendering:geometricPrecision"
       transform="matrix(0.28703213,0,0,0.28703213,-106.40506,-2.5076997)">
      <path
         style="opacity:1"
         fill="#d8ebf2"
         d="m 571.5,169.5 c -0.334,7.007 -0.834,14.007 -1.5,21 -0.667,2 -2,3.333 -4,4 -4.115,9.508 -4.948,19.175 -2.5,29 -1.333,-1.667 -2.667,-3.333 -4,-5 -0.166,-6.009 10e-4,-12.009 0.5,-18 6.495,-6.619 9.662,-14.619 9.5,-24 0.667,-2.333 1.333,-4.667 2,-7 z"
         id="path224" />
    </g>
    <g
       id="g245"
       style="clip-rule:evenodd;fill-rule:evenodd;image-rendering:optimizeQuality;shape-rendering:geometricPrecision;text-rendering:geometricPrecision"
       transform="matrix(0.28703213,0,0,0.28703213,-106.40506,-2.5076997)">
      <path
         style="opacity:1"
         fill="#6ea7dd"
         d="m 502.5,228.5 c 0.597,0.235 0.93,0.735 1,1.5 -1.194,2.888 -2.194,5.722 -3,8.5 0.172,-0.992 -0.162,-1.658 -1,-2 0.538,-1.617 0.871,-3.284 1,-5 0.901,-0.79 1.568,-1.79 2,-3 z"
         id="path245" />
    </g>
    <g
       id="g247"
       style="clip-rule:evenodd;fill-rule:evenodd;image-rendering:optimizeQuality;shape-rendering:geometricPrecision;text-rendering:geometricPrecision"
       transform="matrix(0.28703213,0,0,0.28703213,-106.40506,-2.5076997)">
      <path
         style="opacity:1"
         fill="#65a2dd"
         d="m 561.5,227.5 c 0.713,3.094 1.713,6.094 3,9 -0.667,0 -1,0.333 -1,1 -0.333,0 -0.667,0 -1,0 -0.405,-3.487 -1.405,-6.82 -3,-10 0.47,-0.963 1.137,-0.963 2,0 z"
         id="path247" />
    </g>
    <g
       id="g251"
       style="clip-rule:evenodd;fill-rule:evenodd;image-rendering:optimizeQuality;shape-rendering:geometricPrecision;text-rendering:geometricPrecision"
       transform="matrix(0.28703213,0,0,0.28703213,-106.40506,-2.5076997)">
      <path
         style="opacity:1"
         fill="#89bfef"
         d="m 564.5,236.5 c 0.824,3.264 1.158,6.598 1,10 -0.667,0 -1.333,0 -2,0 0,-3 0,-6 0,-9 0,-0.667 0.333,-1 1,-1 z"
         id="path251" />
    </g>
    <g
       id="g253"
       style="clip-rule:evenodd;fill-rule:evenodd;image-rendering:optimizeQuality;shape-rendering:geometricPrecision;text-rendering:geometricPrecision"
       transform="matrix(0.28703213,0,0,0.28703213,-106.40506,-2.5076997)">
      <path
         style="opacity:1"
         fill="#50759b"
         d="m 567.5,234.5 c 0.79,1.109 1.29,2.442 1.5,4 0.826,11.508 0.659,22.841 -0.5,34 0.232,-12.692 -0.102,-25.359 -1,-38 z"
         id="path253" />
    </g>
    <g
       id="g266"
       style="clip-rule:evenodd;fill-rule:evenodd;image-rendering:optimizeQuality;shape-rendering:geometricPrecision;text-rendering:geometricPrecision"
       transform="matrix(0.28703213,0,0,0.28703213,-106.40506,-2.5076997)">
      <path
         style="opacity:1"
         fill="#aed4f0"
         d="m 499.5,236.5 c 0.838,0.342 1.172,1.008 1,2 0,2.667 0,5.333 0,8 -0.961,1.765 -1.295,3.765 -1,6 0,4.667 0,9.333 0,14 1.667,0 3.333,0 5,0 0.667,0 1.333,0 2,0 0,0.333 0,0.667 0,1 -2.667,0 -5.333,0 -8,0 -0.308,-10.415 0.025,-20.749 1,-31 z"
         id="path266" />
    </g>
    <g
       id="g267"
       style="clip-rule:evenodd;fill-rule:evenodd;image-rendering:optimizeQuality;shape-rendering:geometricPrecision;text-rendering:geometricPrecision"
       transform="matrix(0.28703213,0,0,0.28703213,-106.40506,-2.5076997)">
      <path
         style="opacity:1"
         fill="#84b9e8"
         d="m 507.5,233.5 c 0.679,4.388 3.012,7.388 7,9 0,0.667 0.333,1 1,1 -1.3,1.327 -2.633,2.66 -4,4 0.525,0.692 1.192,1.192 2,1.5 -1.141,0.741 -1.141,1.575 0,2.5 -1,0.667 -2,1.333 -3,2 1.115,1.098 1.115,2.265 0,3.5 0.216,2.507 1.216,3.34 3,2.5 1.248,0.54 2.415,1.207 3.5,2 1.062,4.137 1.895,8.304 2.5,12.5 -0.333,0.333 -0.667,0.667 -1,1 3.289,1.41 4.956,3.91 5,7.5 -3.332,-2.5 -6.166,-5.5 -8.5,-9 -5.803,-9.594 -9.303,-19.928 -10.5,-31 0.167,-2 0.333,-4 0.5,-6 0.377,-1.442 1.21,-2.442 2.5,-3 z"
         id="path267" />
    </g>
    <g
       id="g268"
       style="clip-rule:evenodd;fill-rule:evenodd;image-rendering:optimizeQuality;shape-rendering:geometricPrecision;text-rendering:geometricPrecision"
       transform="matrix(0.28703213,0,0,0.28703213,-106.40506,-2.5076997)">
      <path
         style="opacity:1"
         fill="#bddcee"
         d="m 563.5,246.5 c 0.667,0 1.333,0 2,0 0,7 0,14 0,21 -2.667,0 -5.333,0 -8,0 1.292,-4.882 2.959,-9.548 5,-14 -1.085,4.26 -1.752,8.594 -2,13 1.333,0 2.667,0 4,0 0.323,-6.19 -0.01,-12.19 -1,-18 0,-0.667 0,-1.333 0,-2 z"
         id="path268" />
    </g>
    <g
       id="g272"
       style="clip-rule:evenodd;fill-rule:evenodd;image-rendering:optimizeQuality;shape-rendering:geometricPrecision;text-rendering:geometricPrecision"
       transform="matrix(0.28703213,0,0,0.28703213,-106.40506,-2.5076997)">
      <path
         style="opacity:1"
         fill="#daebf4"
         d="m 564.5,226.5 c 2.846,1.975 5.013,4.641 6.5,8 0.667,13.333 0.667,26.667 0,40 -1.323,8.199 -5.823,11.199 -13.5,9 1.915,0.284 3.581,-0.049 5,-1 3.523,-2.373 5.523,-5.707 6,-10 1.159,-11.159 1.326,-22.492 0.5,-34 -0.21,-1.558 -0.71,-2.891 -1.5,-4 -0.457,-2.906 -1.457,-5.572 -3,-8 z"
         id="path272" />
    </g>
    <g
       id="g274"
       style="clip-rule:evenodd;fill-rule:evenodd;image-rendering:optimizeQuality;shape-rendering:geometricPrecision;text-rendering:geometricPrecision"
       transform="matrix(0.28703213,0,0,0.28703213,-106.40506,-2.5076997)">
      <path
         style="opacity:1"
         fill="#345d87"
         d="m 504.5,218.5 c -0.086,0.996 0.248,1.829 1,2.5 -3.134,2.769 -4.801,6.269 -5,10.5 -0.129,1.716 -0.462,3.383 -1,5 -0.975,10.251 -1.308,20.585 -1,31 2.667,0 5.333,0 8,0 -0.111,0.617 -0.444,1.117 -1,1.5 1.237,0.232 2.237,0.732 3,1.5 -3.072,-0.317 -6.072,0.016 -9,1 0.746,1.236 1.079,2.57 1,4 1.335,3.504 3.668,4.504 7,3 1.21,0.432 2.21,1.099 3,2 -2.358,2.736 -5.358,3.57 -9,2.5 -3.086,-3.341 -5.252,-7.174 -6.5,-11.5 -0.833,-11.681 -0.666,-23.348 0.5,-35 1.974,-6.614 4.974,-12.614 9,-18 z"
         id="path274" />
    </g>
    <g
       id="g282"
       style="clip-rule:evenodd;fill-rule:evenodd;image-rendering:optimizeQuality;shape-rendering:geometricPrecision;text-rendering:geometricPrecision"
       transform="matrix(0.28703213,0,0,0.28703213,-106.40506,-2.5076997)">
      <path
         style="opacity:1"
         fill="#7db4e5"
         d="m 560.5,245.5 c -2.948,13.232 -8.615,25.232 -17,36 -0.667,0 -1,0.333 -1,1 -0.333,0 -0.667,0 -1,0 2.102,-7.667 4.268,-15.334 6.5,-23 0.816,-5.184 0.65,-10.184 -0.5,-15 -1.291,0.237 -2.291,-0.096 -3,-1 2.51,0.446 4.51,-0.22 6,-2 0.996,0.086 1.829,-0.248 2.5,-1 2.139,-2.306 3.639,-4.973 4.5,-8 2.382,4.006 3.382,8.339 3,13 z"
         id="path282" />
    </g>
    <g
       id="g286"
       style="clip-rule:evenodd;fill-rule:evenodd;image-rendering:optimizeQuality;shape-rendering:geometricPrecision;text-rendering:geometricPrecision"
       transform="matrix(0.28703213,0,0,0.28703213,-106.40506,-2.5076997)">
      <path
         style="opacity:1"
         fill="#c3e3f0"
         d="m 500.5,246.5 c 1.673,6.677 3.673,13.344 6,20 -0.667,0 -1.333,0 -2,0 -0.07,-3.067 -1.404,-5.4 -4,-7 1.691,-2.845 1.357,-5.179 -1,-7 -0.295,-2.235 0.039,-4.235 1,-6 z"
         id="path286" />
    </g>
    <g
       id="g287"
       style="clip-rule:evenodd;fill-rule:evenodd;image-rendering:optimizeQuality;shape-rendering:geometricPrecision;text-rendering:geometricPrecision"
       transform="matrix(0.28703213,0,0,0.28703213,-106.40506,-2.5076997)">
      <path
         style="opacity:1"
         fill="#295683"
         d="m 559.5,218.5 c 1.333,1.667 2.667,3.333 4,5 0.61,0.891 0.943,1.891 1,3 1.543,2.428 2.543,5.094 3,8 0.898,12.641 1.232,25.308 1,38 -0.477,4.293 -2.477,7.627 -6,10 -4.969,1.191 -8.303,-0.476 -10,-5 0.709,-0.904 1.709,-1.237 3,-1 3.526,4.172 6.192,3.505 8,-2 0,-0.667 0.333,-1 1,-1 0.934,-1.068 1.268,-2.401 1,-4 -2.667,0 -5.333,0 -8,0 0,-0.667 0,-1.333 0,-2 2.667,0 5.333,0 8,0 0,-7 0,-14 0,-21 0.158,-3.402 -0.176,-6.736 -1,-10 -1.287,-2.906 -2.287,-5.906 -3,-9 0.111,-0.617 0.444,-1.117 1,-1.5 -2.539,-1.805 -3.539,-4.305 -3,-7.5 z"
         id="path287" />
    </g>
    <g
       id="g288"
       style="clip-rule:evenodd;fill-rule:evenodd;image-rendering:optimizeQuality;shape-rendering:geometricPrecision;text-rendering:geometricPrecision"
       transform="matrix(0.28703213,0,0,0.28703213,-106.40506,-2.5076997)">
      <path
         style="opacity:1"
         fill="#e7faf9"
         d="m 499.5,252.5 c 2.357,1.821 2.691,4.155 1,7 2.596,1.6 3.93,3.933 4,7 -1.667,0 -3.333,0 -5,0 0,-4.667 0,-9.333 0,-14 z"
         id="path288" />
    </g>
    <g
       id="g289"
       style="clip-rule:evenodd;fill-rule:evenodd;image-rendering:optimizeQuality;shape-rendering:geometricPrecision;text-rendering:geometricPrecision"
       transform="matrix(0.28703213,0,0,0.28703213,-106.40506,-2.5076997)">
      <path
         style="opacity:1"
         fill="#e7f9f9"
         d="m 563.5,248.5 c 0.99,5.81 1.323,11.81 1,18 -1.333,0 -2.667,0 -4,0 0.248,-4.406 0.915,-8.74 2,-13 -0.134,-1.792 0.199,-3.458 1,-5 z"
         id="path289" />
    </g>
    <g
       id="g292"
       style="clip-rule:evenodd;fill-rule:evenodd;image-rendering:optimizeQuality;shape-rendering:geometricPrecision;text-rendering:geometricPrecision"
       transform="matrix(0.28703213,0,0,0.28703213,-106.40506,-2.5076997)">
      <path
         style="opacity:1"
         fill="#658eab"
         d="m 555.5,270.5 c 0.342,-0.838 1.008,-1.172 2,-1 2.667,0 5.333,0 8,0 0.268,1.599 -0.066,2.932 -1,4 0,-1 0,-2 0,-3 -3,0 -6,0 -9,0 z"
         id="path292" />
    </g>
    <g
       id="g293"
       style="clip-rule:evenodd;fill-rule:evenodd;image-rendering:optimizeQuality;shape-rendering:geometricPrecision;text-rendering:geometricPrecision"
       transform="matrix(0.28703213,0,0,0.28703213,-106.40506,-2.5076997)">
      <path
         style="opacity:1"
         fill="#cff3f8"
         d="m 508.5,270.5 c 1.333,1.667 1.333,3.333 0,5 -0.667,-0.667 -1.333,-1.333 -2,-2 -1,-1.333 -2,-1.333 -3,0 -0.722,1.051 -1.722,1.718 -3,2 0.079,-1.43 -0.254,-2.764 -1,-4 2.928,-0.984 5.928,-1.317 9,-1 z"
         id="path293" />
    </g>
    <g
       id="g294"
       style="clip-rule:evenodd;fill-rule:evenodd;image-rendering:optimizeQuality;shape-rendering:geometricPrecision;text-rendering:geometricPrecision"
       transform="matrix(0.28703213,0,0,0.28703213,-106.40506,-2.5076997)">
      <path
         style="opacity:1"
         fill="#c3e9f4"
         d="m 555.5,270.5 c 3,0 6,0 9,0 0,1 0,2 0,3 -0.667,0 -1,0.333 -1,1 -0.667,-0.333 -1.333,-0.667 -2,-1 -1.983,-0.343 -3.317,0.324 -4,2 -0.667,0 -1.333,0 -2,0 -1.333,-1.667 -1.333,-3.333 0,-5 z"
         id="path294" />
    </g>
    <g
       id="g297"
       style="clip-rule:evenodd;fill-rule:evenodd;image-rendering:optimizeQuality;shape-rendering:geometricPrecision;text-rendering:geometricPrecision"
       transform="matrix(0.28703213,0,0,0.28703213,-106.40506,-2.5076997)">
      <path
         style="opacity:1"
         fill="#335d7b"
         d="m 506.5,273.5 c 0.278,1.846 -0.389,3.18 -2,4 -0.929,-1.189 -1.262,-2.522 -1,-4 1,-1.333 2,-1.333 3,0 z"
         id="path297" />
    </g>
    <g
       id="g298"
       style="clip-rule:evenodd;fill-rule:evenodd;image-rendering:optimizeQuality;shape-rendering:geometricPrecision;text-rendering:geometricPrecision"
       transform="matrix(0.28703213,0,0,0.28703213,-106.40506,-2.5076997)">
      <path
         style="opacity:1"
         fill="#315c7c"
         d="m 561.5,273.5 c -0.116,4.063 -1.449,4.73 -4,2 0.683,-1.676 2.017,-2.343 4,-2 z"
         id="path298" />
    </g>
    <g
       id="g300"
       style="clip-rule:evenodd;fill-rule:evenodd;image-rendering:optimizeQuality;shape-rendering:geometricPrecision;text-rendering:geometricPrecision"
       transform="matrix(0.28703213,0,0,0.28703213,-106.40506,-2.5076997)">
      <path
         style="opacity:1"
         fill="#8fc0e5"
         d="m 503.5,273.5 c -0.262,1.478 0.071,2.811 1,4 1.611,-0.82 2.278,-2.154 2,-4 0.667,0.667 1.333,1.333 2,2 -0.057,1.109 -0.39,2.109 -1,3 -3.332,1.504 -5.665,0.504 -7,-3 1.278,-0.282 2.278,-0.949 3,-2 z"
         id="path300" />
    </g>
    <g
       id="g301"
       style="clip-rule:evenodd;fill-rule:evenodd;image-rendering:optimizeQuality;shape-rendering:geometricPrecision;text-rendering:geometricPrecision"
       transform="matrix(0.28703213,0,0,0.28703213,-106.40506,-2.5076997)">
      <path
         style="opacity:1"
         fill="#8bbce7"
         d="m 561.5,273.5 c 0.667,0.333 1.333,0.667 2,1 -1.808,5.505 -4.474,6.172 -8,2 0,-0.333 0,-0.667 0,-1 0.667,0 1.333,0 2,0 2.551,2.73 3.884,2.063 4,-2 z"
         id="path301" />
    </g>
    <g
       id="g305"
       style="clip-rule:evenodd;fill-rule:evenodd;image-rendering:optimizeQuality;shape-rendering:geometricPrecision;text-rendering:geometricPrecision"
       transform="matrix(0.28703213,0,0,0.28703213,-106.40506,-2.5076997)">
      <path
         style="opacity:1"
         fill="#c9e0ee"
         d="m 552.5,277.5 c 1.697,4.524 5.031,6.191 10,5 -1.419,0.951 -3.085,1.284 -5,1 -2.667,-0.333 -5.333,-0.667 -8,-1 -1.324,3.973 -2.324,7.973 -3,12 -0.165,-3.682 10e-4,-7.348 0.5,-11 1.634,-2.337 3.467,-4.337 5.5,-6 z"
         id="path305" />
    </g>
    <g
       id="g315"
       style="clip-rule:evenodd;fill-rule:evenodd;image-rendering:optimizeQuality;shape-rendering:geometricPrecision;text-rendering:geometricPrecision"
       transform="matrix(0.28703213,0,0,0.28703213,-106.40506,-2.5076997)">
      <path
         style="opacity:1"
         fill="#2a5c90"
         d="m 503.5,226.5 c 0.951,1.419 1.284,3.085 1,5 1.679,-0.215 2.679,0.452 3,2 -1.29,0.558 -2.123,1.558 -2.5,3 -0.167,2 -0.333,4 -0.5,6 1.197,11.072 4.697,21.406 10.5,31 2.334,3.5 5.168,6.5 8.5,9 0.79,0.901 1.79,1.568 3,2 3.667,2.667 7.333,2.667 11,0 1.562,-0.233 2.895,-0.9 4,-2 0.333,0 0.667,0 1,0 -2.759,3.898 -6.593,5.898 -11.5,6 -3.543,-1.58 -7.043,-3.08 -10.5,-4.5 -1.877,7.284 -0.211,13.617 5,19 3.915,0.045 7.749,0.212 11.5,0.5 2.527,-0.524 4.527,-1.858 6,-4 0.32,-4.523 0.82,-9.023 1.5,-13.5 -1.232,-2.027 -0.898,-3.36 1,-4 -0.594,-0.464 -1.261,-0.631 -2,-0.5 8.385,-10.768 14.052,-22.768 17,-36 -0.261,5.314 0.406,5.814 2,1.5 -0.286,-3 -0.286,-6.166 0,-9.5 0.333,0 0.667,0 1,0 0,3 0,6 0,9 0,0.667 0,1.333 0,2 -0.801,1.542 -1.134,3.208 -1,5 -2.041,4.452 -3.708,9.118 -5,14 0,0.667 0,1.333 0,2 -0.992,-0.172 -1.658,0.162 -2,1 -1.333,1.667 -1.333,3.333 0,5 0,0.333 0,0.667 0,1 -1.291,-0.237 -2.291,0.096 -3,1 -2.033,1.663 -3.866,3.663 -5.5,6 -0.499,3.652 -0.665,7.318 -0.5,11 0,0.333 0,0.667 0,1 -3.104,8.727 -9.438,12.06 -19,10 -3.862,-1.024 -6.695,-3.357 -8.5,-7 -0.171,-5.033 -0.671,-10.033 -1.5,-15 -1.677,-2.04 -3.344,-4.04 -5,-6 -0.676,1.102 -1.342,2.102 -2,3 -0.79,-0.901 -1.79,-1.568 -3,-2 0.61,-0.891 0.943,-1.891 1,-3 1.333,-1.667 1.333,-3.333 0,-5 -0.763,-0.768 -1.763,-1.268 -3,-1.5 0.556,-0.383 0.889,-0.883 1,-1.5 0,-0.333 0,-0.667 0,-1 -2.327,-6.656 -4.327,-13.323 -6,-20 0,-2.667 0,-5.333 0,-8 0.806,-2.778 1.806,-5.612 3,-8.5 -0.07,-0.765 -0.403,-1.265 -1,-1.5 -0.172,-0.992 0.162,-1.658 1,-2 z"
         id="path315" />
    </g>
    <g
       id="g316"
       style="clip-rule:evenodd;fill-rule:evenodd;image-rendering:optimizeQuality;shape-rendering:geometricPrecision;text-rendering:geometricPrecision"
       transform="matrix(0.28703213,0,0,0.28703213,-106.40506,-2.5076997)">
      <path
         style="opacity:1"
         fill="#195a9e"
         d="m 543.5,281.5 c 0.739,-0.131 1.406,0.036 2,0.5 -1.898,0.64 -2.232,1.973 -1,4 -0.68,4.477 -1.18,8.977 -1.5,13.5 -1.473,2.142 -3.473,3.476 -6,4 -3.751,-0.288 -7.585,-0.455 -11.5,-0.5 -5.211,-5.383 -6.877,-11.716 -5,-19 3.457,1.42 6.957,2.92 10.5,4.5 4.907,-0.102 8.741,-2.102 11.5,-6 0,-0.667 0.333,-1 1,-1 z"
         id="path316" />
    </g>
    <g
       id="g317"
       style="clip-rule:evenodd;fill-rule:evenodd;image-rendering:optimizeQuality;shape-rendering:geometricPrecision;text-rendering:geometricPrecision"
       transform="matrix(0.28703213,0,0,0.28703213,-106.40506,-2.5076997)">
      <path
         style="opacity:1"
         fill="#b5d2e7"
         d="m 526.5,284.5 c 3.667,0 7.333,0 11,0 -3.667,2.667 -7.333,2.667 -11,0 z"
         id="path317" />
    </g>
    <g
       id="g318"
       style="clip-rule:evenodd;fill-rule:evenodd;image-rendering:optimizeQuality;shape-rendering:geometricPrecision;text-rendering:geometricPrecision"
       transform="matrix(0.28703213,0,0,0.28703213,-106.40506,-2.5076997)">
      <path
         style="opacity:1"
         fill="#96bbd9"
         d="m 547.5,244.5 c 1.15,4.816 1.316,9.816 0.5,15 -2.232,7.666 -4.398,15.333 -6.5,23 -1.105,1.1 -2.438,1.767 -4,2 1.273,-2.213 2.273,-4.546 3,-7 4.341,-10.389 6.674,-21.389 7,-33 z"
         id="path318" />
    </g>
    <g
       id="g319"
       style="clip-rule:evenodd;fill-rule:evenodd;image-rendering:optimizeQuality;shape-rendering:geometricPrecision;text-rendering:geometricPrecision"
       transform="matrix(0.28703213,0,0,0.28703213,-106.40506,-2.5076997)">
      <path
         style="opacity:1"
         fill="#e3f3f7"
         d="m 544.5,243.5 c 0.709,0.904 1.709,1.237 3,1 -0.326,11.611 -2.659,22.611 -7,33 -0.425,-5.993 0.242,-11.826 2,-17.5 -0.145,-1.226 -0.478,-2.393 -1,-3.5 2.557,-3.199 3.557,-6.866 3,-11 -5.124,-0.898 -10.291,-1.565 -15.5,-2 -3.719,-0.019 -7.219,0.648 -10.5,2 0,3.667 0,7.333 0,11 -1.489,-3.736 -2.156,-7.736 -2,-12 1.291,0.237 2.291,-0.096 3,-1 8.312,-2.663 16.645,-2.663 25,0 z"
         id="path319" />
    </g>
    <g
       id="g320"
       style="clip-rule:evenodd;fill-rule:evenodd;image-rendering:optimizeQuality;shape-rendering:geometricPrecision;text-rendering:geometricPrecision"
       transform="matrix(0.28703213,0,0,0.28703213,-106.40506,-2.5076997)">
      <path
         style="opacity:1"
         fill="#95bedf"
         d="m 515.5,243.5 c 1.333,0 2.667,0 4,0 -0.709,0.904 -1.709,1.237 -3,1 -0.156,4.264 0.511,8.264 2,12 0.907,9.821 3.574,19.154 8,28 -1.21,-0.432 -2.21,-1.099 -3,-2 -0.044,-3.59 -1.711,-6.09 -5,-7.5 0.333,-0.333 0.667,-0.667 1,-1 -0.605,-4.196 -1.438,-8.363 -2.5,-12.5 -1.085,-0.793 -2.252,-1.46 -3.5,-2 -1.784,0.84 -2.784,0.007 -3,-2.5 1.115,-1.235 1.115,-2.402 0,-3.5 1,-0.667 2,-1.333 3,-2 -1.141,-0.925 -1.141,-1.759 0,-2.5 -0.808,-0.308 -1.475,-0.808 -2,-1.5 1.367,-1.34 2.7,-2.673 4,-4 z"
         id="path320" />
    </g>
    <g
       id="g321"
       style="clip-rule:evenodd;fill-rule:evenodd;image-rendering:optimizeQuality;shape-rendering:geometricPrecision;text-rendering:geometricPrecision"
       transform="matrix(0.28703213,0,0,0.28703213,-106.40506,-2.5076997)">
      <path
         style="opacity:1"
         fill="#f8f9f9"
         d="m 540.5,277.5 c -0.727,2.454 -1.727,4.787 -3,7 -3.667,0 -7.333,0 -11,0 -4.426,-8.846 -7.093,-18.179 -8,-28 0,-3.667 0,-7.333 0,-11 3.281,-1.352 6.781,-2.019 10.5,-2 5.209,0.435 10.376,1.102 15.5,2 0.557,4.134 -0.443,7.801 -3,11 0.522,1.107 0.855,2.274 1,3.5 -1.758,5.674 -2.425,11.507 -2,17.5 z"
         id="path321" />
    </g>
    <g
       id="g322"
       style="clip-rule:evenodd;fill-rule:evenodd;image-rendering:optimizeQuality;shape-rendering:geometricPrecision;text-rendering:geometricPrecision"
       transform="matrix(0.28703213,0,0,0.28703213,-106.40506,-2.5076997)">
      <path
         style="opacity:1"
         fill="#275b91"
         d="m 550.5,241.5 c -1.49,1.78 -3.49,2.446 -6,2 -8.355,-2.663 -16.688,-2.663 -25,0 -1.333,0 -2.667,0 -4,0 -0.667,0 -1,-0.333 -1,-1 4.047,-0.518 8.047,-1.352 12,-2.5 5.72,-0.788 11.386,-0.621 17,0.5 2.832,-2.705 5.165,-2.372 7,1 z"
         id="path322" />
    </g>
    <g
       id="g323"
       style="clip-rule:evenodd;fill-rule:evenodd;image-rendering:optimizeQuality;shape-rendering:geometricPrecision;text-rendering:geometricPrecision"
       transform="matrix(0.28703213,0,0,0.28703213,-106.40506,-2.5076997)">
      <path
         style="opacity:1"
         fill="#c8dfeb"
         d="m 546.5,295.5 c 0.728,3.719 -0.272,6.719 -3,9 -5.104,2.825 -10.438,3.492 -16,2 0,-0.333 0,-0.667 0,-1 9.562,2.06 15.896,-1.273 19,-10 z"
         id="path323" />
    </g>
  </g>
</svg>
