<?xml version="1.0" encoding="UTF-8" standalone="no"?>
<!-- Created with Inkscape (http://www.inkscape.org/) -->

<svg
   width="96mm"
   height="96mm"
   viewBox="0 0 96 96"
   version="1.1"
   id="svg1"
   inkscape:version="1.4.2 (ebf0e940, 2025-05-08)"
   sodipodi:docname="camper.svg"
   xmlns:inkscape="http://www.inkscape.org/namespaces/inkscape"
   xmlns:sodipodi="http://sodipodi.sourceforge.net/DTD/sodipodi-0.dtd"
   xmlns="http://www.w3.org/2000/svg"
   xmlns:svg="http://www.w3.org/2000/svg">
  <sodipodi:namedview
     id="namedview1"
     pagecolor="#ffffff"
     bordercolor="#000000"
     borderopacity="0.25"
     inkscape:showpageshadow="2"
     inkscape:pageopacity="0.0"
     inkscape:pagecheckerboard="0"
     inkscape:deskcolor="#d1d1d1"
     inkscape:document-units="mm"
     inkscape:zoom="0.80444024"
     inkscape:cx="397.17059"
     inkscape:cy="262.91574"
     inkscape:window-width="1920"
     inkscape:window-height="1052"
     inkscape:window-x="0"
     inkscape:window-y="28"
     inkscape:window-maximized="0"
     inkscape:current-layer="layer1" />
  <defs
     id="defs1" />
  <g
     inkscape:label="Layer 1"
     inkscape:groupmode="layer"
     id="layer1">
    <g
       id="g342"
       style="clip-rule:evenodd;fill-rule:evenodd;image-rendering:optimizeQuality;shape-rendering:geometricPrecision;text-rendering:geometricPrecision"
       transform="matrix(0.29428861,0,0,0.29428861,-111.39668,-111.82336)">
      <path
         style="opacity:1"
         fill="#daeef6"
         d="m 584.5,432.5 c -1.59,-3.261 -3.924,-5.927 -7,-8 -4.268,-3.657 -9.268,-5.99 -15,-7 -2.062,-1.276 -4.396,-2.11 -7,-2.5 -8.51,-0.823 -16.844,-0.657 -25,0.5 -7.843,-0.467 -15.51,0.366 -23,2.5 -2.891,1.274 -5.558,2.774 -8,4.5 -0.667,0 -1.333,0 -2,0 1.684,-1.5 3.351,-3.167 5,-5 4.195,-0.441 8.028,-1.774 11.5,-4 0.893,0.581 1.893,0.915 3,1 16.902,-2.734 33.735,-2.234 50.5,1.5 5.997,2.498 11.33,5.998 16,10.5 0.848,1.909 1.182,3.909 1,6 z"
         id="path342" />
    </g>
    <g
       id="g343"
       style="clip-rule:evenodd;fill-rule:evenodd;image-rendering:optimizeQuality;shape-rendering:geometricPrecision;text-rendering:geometricPrecision"
       transform="matrix(0.29428861,0,0,0.29428861,-111.39668,-111.82336)">
      <path
         style="opacity:1"
         fill="#8fb7d7"
         d="m 530.5,415.5 c 8.156,-1.157 16.49,-1.323 25,-0.5 2.604,0.39 4.938,1.224 7,2.5 -10.569,-1.774 -21.236,-2.441 -32,-2 z"
         id="path343" />
    </g>
    <g
       id="g344"
       style="clip-rule:evenodd;fill-rule:evenodd;image-rendering:optimizeQuality;shape-rendering:geometricPrecision;text-rendering:geometricPrecision"
       transform="matrix(0.29428861,0,0,0.29428861,-111.39668,-111.82336)">
      <path
         style="opacity:1"
         fill="#1964a9"
         d="m 508.5,425.5 c -0.61,0.891 -0.943,1.891 -1,3 -1.963,1.46 -3.796,3.127 -5.5,5 -1.597,-0.14 -3.097,-0.14 -4.5,0 -1.228,2.571 -3.228,3.905 -6,4 0.806,-5.944 3.473,-10.944 8,-15 4.408,-1.034 8.741,-2.367 13,-4 1.689,0.226 3.355,0.559 5,1 6.599,-2.608 13.266,-3.108 20,-1.5 -0.828,0.915 -1.828,1.581 -3,2 -7.709,0.238 -15.376,0.904 -23,2 -1.926,0.422 -2.926,1.589 -3,3.5 z"
         id="path344" />
    </g>
    <g
       id="g345"
       style="clip-rule:evenodd;fill-rule:evenodd;image-rendering:optimizeQuality;shape-rendering:geometricPrecision;text-rendering:geometricPrecision"
       transform="matrix(0.29428861,0,0,0.29428861,-111.39668,-111.82336)">
      <path
         style="opacity:1"
         fill="#24639f"
         d="m 530.5,415.5 c 10.764,-0.441 21.431,0.226 32,2 5.732,1.01 10.732,3.343 15,7 -2.772,-1.091 -5.605,-2.091 -8.5,-3 -1.537,0.535 -3.037,0.868 -4.5,1 3.692,3.02 6.692,6.687 9,11 1.896,0.775 3.563,1.775 5,3 -2.177,-0.086 -4.177,-0.753 -6,-2 -1.799,-2.663 -3.799,-4.996 -6,-7 -5.917,-2.791 -12.251,-4.457 -19,-5 -3.651,-0.665 -7.485,-0.999 -11.5,-1 -5.432,-0.219 -10.599,0.448 -15.5,2 -4.057,0.348 -8.057,1.014 -12,2 0.074,-1.911 1.074,-3.078 3,-3.5 7.624,-1.096 15.291,-1.762 23,-2 1.172,-0.419 2.172,-1.085 3,-2 -6.734,-1.608 -13.401,-1.108 -20,1.5 -1.645,-0.441 -3.311,-0.774 -5,-1 -4.259,1.633 -8.592,2.966 -13,4 2.442,-1.726 5.109,-3.226 8,-4.5 7.49,-2.134 15.157,-2.967 23,-2.5 z"
         id="path345" />
    </g>
    <g
       id="g346"
       style="clip-rule:evenodd;fill-rule:evenodd;image-rendering:optimizeQuality;shape-rendering:geometricPrecision;text-rendering:geometricPrecision"
       transform="matrix(0.29428861,0,0,0.29428861,-111.39668,-111.82336)">
      <path
         style="opacity:1"
         fill="#81acca"
         d="m 547.5,422.5 c -9.028,-0.18 -18.028,0.153 -27,1 4.901,-1.552 10.068,-2.219 15.5,-2 4.015,10e-4 7.849,0.335 11.5,1 z"
         id="path346" />
    </g>
    <g
       id="g348"
       style="clip-rule:evenodd;fill-rule:evenodd;image-rendering:optimizeQuality;shape-rendering:geometricPrecision;text-rendering:geometricPrecision"
       transform="matrix(0.29428861,0,0,0.29428861,-111.39668,-111.82336)">
      <path
         style="opacity:1"
         fill="#1663ad"
         d="m 577.5,424.5 c 1.853,3.195 3.853,6.361 6,9.5 -0.691,1.067 -1.191,2.234 -1.5,3.5 -1.209,-0.153 -2.375,-0.486 -3.5,-1 -1.437,-1.225 -3.104,-2.225 -5,-3 -2.308,-4.313 -5.308,-7.98 -9,-11 1.463,-0.132 2.963,-0.465 4.5,-1 2.895,0.909 5.728,1.909 8.5,3 z"
         id="path348" />
    </g>
    <g
       id="g350"
       style="clip-rule:evenodd;fill-rule:evenodd;image-rendering:optimizeQuality;shape-rendering:geometricPrecision;text-rendering:geometricPrecision"
       transform="matrix(0.29428861,0,0,0.29428861,-111.39668,-111.82336)">
      <path
         style="opacity:1"
         fill="#f9f9f9"
         d="m 573.5,438.5 c 0.333,3.333 0.667,6.667 1,10 -2.347,2.482 -4.847,2.482 -7.5,0 -2.21,1.249 -4.376,1.082 -6.5,-0.5 1.442,-0.377 2.442,-1.21 3,-2.5 1.442,-2.317 1.108,-4.484 -1,-6.5 -6.331,-1.35 -12.664,-1.517 -19,-0.5 -0.809,1.571 -1.143,3.238 -1,5 -2.527,1.017 -5.027,1.017 -7.5,0 -1.611,-1.71 -3.111,-3.543 -4.5,-5.5 -7.522,-1.193 -14.689,-0.36 -21.5,2.5 -0.769,2.599 -0.602,5.099 0.5,7.5 -2.699,1.943 -5.366,2.276 -8,1 0.522,-2.909 1.356,-6.076 2.5,-9.5 1.359,-2.192 3.192,-3.859 5.5,-5 0.574,-1.559 1.24,-3.059 2,-4.5 6.485,-3.534 13.485,-5.368 21,-5.5 10.941,0.292 21.941,1.625 33,4 0,2.333 0,4.667 0,7 3.035,0.039 5.702,1.039 8,3 z"
         id="path350" />
    </g>
    <g
       id="g362"
       style="clip-rule:evenodd;fill-rule:evenodd;image-rendering:optimizeQuality;shape-rendering:geometricPrecision;text-rendering:geometricPrecision"
       transform="matrix(0.29428861,0,0,0.29428861,-111.39668,-111.82336)">
      <path
         style="opacity:1"
         fill="#def2f6"
         d="m 547.5,422.5 c 6.749,0.543 13.083,2.209 19,5 0.873,4.431 3.206,7.764 7,10 0,0.333 0,0.667 0,1 -2.298,-1.961 -4.965,-2.961 -8,-3 0,-2.333 0,-4.667 0,-7 -11.059,-2.375 -22.059,-3.708 -33,-4 -7.515,0.132 -14.515,1.966 -21,5.5 -0.76,1.441 -1.426,2.941 -2,4.5 -2.308,1.141 -4.141,2.808 -5.5,5 -1.144,3.424 -1.978,6.591 -2.5,9.5 2.634,1.276 5.301,0.943 8,-1 -1.102,-2.401 -1.269,-4.901 -0.5,-7.5 6.811,-2.86 13.978,-3.693 21.5,-2.5 1.389,1.957 2.889,3.79 4.5,5.5 2.473,1.017 4.973,1.017 7.5,0 -0.143,-1.762 0.191,-3.429 1,-5 6.336,-1.017 12.669,-0.85 19,0.5 2.108,2.016 2.442,4.183 1,6.5 -0.558,1.29 -1.558,2.123 -3,2.5 2.124,1.582 4.29,1.749 6.5,0.5 2.653,2.482 5.153,2.482 7.5,0 1.129,2.128 1.296,4.461 0.5,7 -0.671,-0.752 -1.504,-1.086 -2.5,-1 -1.208,-0.734 -2.541,-1.067 -4,-1 -7.878,-3.385 -16.212,-5.385 -25,-6 -5.819,-1.153 -11.819,-1.319 -18,-0.5 -2.604,0.39 -4.938,1.224 -7,2.5 -6.953,1.071 -13.619,3.071 -20,6 1.15,-5.602 1.816,-11.269 2,-17 3.137,-2.799 5.471,-6.132 7,-10 0.057,-1.109 0.39,-2.109 1,-3 3.943,-0.986 7.943,-1.652 12,-2 8.972,-0.847 17.972,-1.18 27,-1 z"
         id="path362" />
    </g>
    <g
       id="g363"
       style="clip-rule:evenodd;fill-rule:evenodd;image-rendering:optimizeQuality;shape-rendering:geometricPrecision;text-rendering:geometricPrecision"
       transform="matrix(0.29428861,0,0,0.29428861,-111.39668,-111.82336)">
      <path
         style="opacity:1"
         fill="#c8e4f0"
         d="m 584.5,433.5 c 0.617,0.111 1.117,0.444 1.5,1 3.525,9.591 4.359,19.424 2.5,29.5 0.79,2.282 1.79,4.448 3,6.5 -1.315,-0.976 -2.648,-1.976 -4,-3 -0.507,-11.417 -1.507,-22.75 -3,-34 z"
         id="path363" />
    </g>
    <g
       id="g364"
       style="clip-rule:evenodd;fill-rule:evenodd;image-rendering:optimizeQuality;shape-rendering:geometricPrecision;text-rendering:geometricPrecision"
       transform="matrix(0.29428861,0,0,0.29428861,-111.39668,-111.82336)">
      <path
         style="opacity:1"
         fill="#386d97"
         d="m 497.5,422.5 c 0.667,0 1.333,0 2,0 -4.527,4.056 -7.194,9.056 -8,15 2.772,-0.095 4.772,-1.429 6,-4 1.403,-0.14 2.903,-0.14 4.5,0 1.704,-1.873 3.537,-3.54 5.5,-5 -1.529,3.868 -3.863,7.201 -7,10 -2.086,-1.523 -3.752,-1.19 -5,1 -1,0 -2,0 -3,0 -0.993,8.818 -1.327,17.818 -1,27 2,0 4,0 6,0 -2.107,0.968 -4.441,1.302 -7,1 0.328,-5.375 -0.005,-10.708 -1,-16 -0.667,4.482 -1.334,8.816 -2,13 0,-4.333 0,-8.667 0,-13 -0.478,-11.14 2.856,-20.806 10,-29 z"
         id="path364" />
    </g>
    <g
       id="g365"
       style="clip-rule:evenodd;fill-rule:evenodd;image-rendering:optimizeQuality;shape-rendering:geometricPrecision;text-rendering:geometricPrecision"
       transform="matrix(0.29428861,0,0,0.29428861,-111.39668,-111.82336)">
      <path
         style="opacity:1"
         fill="#ddf2f7"
         d="m 577.5,438.5 c 1.811,0.072 3.144,0.905 4,2.5 0.822,2.434 1.156,4.934 1,7.5 0,6 0,12 0,18 -2.582,0.475 -4.582,-0.192 -6,-2 0,-1 0,-2 0,-3 1.294,-6.746 0.96,-13.58 -1,-20.5 0.184,-1.376 0.851,-2.209 2,-2.5 z"
         id="path365" />
    </g>
    <g
       id="g367"
       style="clip-rule:evenodd;fill-rule:evenodd;image-rendering:optimizeQuality;shape-rendering:geometricPrecision;text-rendering:geometricPrecision"
       transform="matrix(0.29428861,0,0,0.29428861,-111.39668,-111.82336)">
      <path
         style="opacity:1"
         fill="#316291"
         d="m 563.5,445.5 c -5.71,0.029 -11.377,-0.471 -17,-1.5 -0.88,-1.356 -1.214,-2.856 -1,-4.5 5.757,0.182 11.424,1.015 17,2.5 0.837,1.011 1.17,2.178 1,3.5 z"
         id="path367" />
    </g>
    <g
       id="g368"
       style="clip-rule:evenodd;fill-rule:evenodd;image-rendering:optimizeQuality;shape-rendering:geometricPrecision;text-rendering:geometricPrecision"
       transform="matrix(0.29428861,0,0,0.29428861,-111.39668,-111.82336)">
      <path
         style="opacity:1"
         fill="#7897a8"
         d="m 500.5,438.5 c -0.184,5.731 -0.85,11.398 -2,17 -0.951,1.419 -1.284,3.085 -1,5 -0.652,-0.949 -0.986,-2.115 -1,-3.5 1.437,-6.11 1.937,-12.277 1.5,-18.5 -0.671,0.752 -1.504,1.086 -2.5,1 1.248,-2.19 2.914,-2.523 5,-1 z"
         id="path368" />
    </g>
    <g
       id="g369"
       style="clip-rule:evenodd;fill-rule:evenodd;image-rendering:optimizeQuality;shape-rendering:geometricPrecision;text-rendering:geometricPrecision"
       transform="matrix(0.29428861,0,0,0.29428861,-111.39668,-111.82336)">
      <path
         style="opacity:1"
         fill="#34648d"
         d="m 518.5,439.5 c 3.667,0 7.333,0 11,0 0.203,1.89 -0.463,3.39 -2,4.5 -5.344,0.471 -10.678,0.971 -16,1.5 -0.262,-1.478 0.071,-2.811 1,-4 2.157,-0.55 4.157,-1.217 6,-2 z"
         id="path369" />
    </g>
    <g
       id="g375"
       style="clip-rule:evenodd;fill-rule:evenodd;image-rendering:optimizeQuality;shape-rendering:geometricPrecision;text-rendering:geometricPrecision"
       transform="matrix(0.29428861,0,0,0.29428861,-111.39668,-111.82336)">
      <path
         style="opacity:1"
         fill="#6a899e"
         d="m 573.5,437.5 c 1.599,-0.268 2.932,0.066 4,1 -1.149,0.291 -1.816,1.124 -2,2.5 1.96,6.92 2.294,13.754 1,20.5 0,-1.667 0,-3.333 0,-5 -1.88,0.271 -3.213,-0.396 -4,-2 0.996,-0.086 1.829,0.248 2.5,1 0.796,-2.539 0.629,-4.872 -0.5,-7 -0.333,-3.333 -0.667,-6.667 -1,-10 0,-0.333 0,-0.667 0,-1 z"
         id="path375" />
    </g>
    <g
       id="g376"
       style="clip-rule:evenodd;fill-rule:evenodd;image-rendering:optimizeQuality;shape-rendering:geometricPrecision;text-rendering:geometricPrecision"
       transform="matrix(0.29428861,0,0,0.29428861,-111.39668,-111.82336)">
      <path
         style="opacity:1"
         fill="#77a5c7"
         d="m 543.5,447.5 c -7.238,-0.32 -14.238,0.347 -21,2 -1.333,0 -2.667,0 -4,0 2.062,-1.276 4.396,-2.11 7,-2.5 6.181,-0.819 12.181,-0.653 18,0.5 z"
         id="path376" />
    </g>
    <g
       id="g379"
       style="clip-rule:evenodd;fill-rule:evenodd;image-rendering:optimizeQuality;shape-rendering:geometricPrecision;text-rendering:geometricPrecision"
       transform="matrix(0.29428861,0,0,0.29428861,-111.39668,-111.82336)">
      <path
         style="opacity:1"
         fill="#1365b0"
         d="m 522.5,449.5 c 15.559,-0.858 30.892,0.476 46,4 1.459,-0.067 2.792,0.266 4,1 0.787,1.604 2.12,2.271 4,2 0,1.667 0,3.333 0,5 0,1 0,2 0,3 -0.838,0.342 -1.172,1.008 -1,2 -12.277,1.314 -24.777,1.981 -37.5,2 -12.167,-0.167 -24.333,-0.333 -36.5,-0.5 -0.578,-1.417 -1.578,-2.25 -3,-2.5 0,-0.333 0,-0.667 0,-1 0.71,-2.393 1.377,-4.893 2,-7.5 6.763,-2.885 13.763,-4.885 21,-6 0.556,-0.383 0.889,-0.883 1,-1.5 z"
         id="path379" />
    </g>
    <g
       id="g382"
       style="clip-rule:evenodd;fill-rule:evenodd;image-rendering:optimizeQuality;shape-rendering:geometricPrecision;text-rendering:geometricPrecision"
       transform="matrix(0.29428861,0,0,0.29428861,-111.39668,-111.82336)">
      <path
         style="opacity:1"
         fill="#286298"
         d="m 543.5,447.5 c 8.788,0.615 17.122,2.615 25,6 -15.108,-3.524 -30.441,-4.858 -46,-4 6.762,-1.653 13.762,-2.32 21,-2 z"
         id="path382" />
    </g>
    <g
       id="g383"
       style="clip-rule:evenodd;fill-rule:evenodd;image-rendering:optimizeQuality;shape-rendering:geometricPrecision;text-rendering:geometricPrecision"
       transform="matrix(0.29428861,0,0,0.29428861,-111.39668,-111.82336)">
      <path
         style="opacity:1"
         fill="#a6cee6"
         d="m 492.5,439.5 c 0,8.667 0,17.333 0,26 2.281,0.423 3.948,-0.244 5,-2 0.667,0 1,0.333 1,1 0,0.333 0,0.667 0,1 0,0.667 -0.333,1 -1,1 -2,0 -4,0 -6,0 -0.327,-9.182 0.007,-18.182 1,-27 z"
         id="path383" />
    </g>
    <g
       id="g385"
       style="clip-rule:evenodd;fill-rule:evenodd;image-rendering:optimizeQuality;shape-rendering:geometricPrecision;text-rendering:geometricPrecision"
       transform="matrix(0.29428861,0,0,0.29428861,-111.39668,-111.82336)">
      <path
         style="opacity:1"
         fill="#33699c"
         d="m 518.5,449.5 c 1.333,0 2.667,0 4,0 -0.111,0.617 -0.444,1.117 -1,1.5 -7.237,1.115 -14.237,3.115 -21,6 -0.623,2.607 -1.29,5.107 -2,7.5 0,-0.667 -0.333,-1 -1,-1 0,-1 0,-2 0,-3 -0.284,-1.915 0.049,-3.581 1,-5 6.381,-2.929 13.047,-4.929 20,-6 z"
         id="path385" />
    </g>
    <g
       id="g387"
       style="clip-rule:evenodd;fill-rule:evenodd;image-rendering:optimizeQuality;shape-rendering:geometricPrecision;text-rendering:geometricPrecision"
       transform="matrix(0.29428861,0,0,0.29428861,-111.39668,-111.82336)">
      <path
         style="opacity:1"
         fill="#ddf5f8"
         d="m 497.5,460.5 c 0,1 0,2 0,3 -1.052,1.756 -2.719,2.423 -5,2 0,-8.667 0,-17.333 0,-26 1,0 2,0 3,0 0.996,0.086 1.829,-0.248 2.5,-1 0.437,6.223 -0.063,12.39 -1.5,18.5 0.014,1.385 0.348,2.551 1,3.5 z"
         id="path387" />
    </g>
    <g
       id="g388"
       style="clip-rule:evenodd;fill-rule:evenodd;image-rendering:optimizeQuality;shape-rendering:geometricPrecision;text-rendering:geometricPrecision"
       transform="matrix(0.29428861,0,0,0.29428861,-111.39668,-111.82336)">
      <path
         style="opacity:1"
         fill="#8cb1ce"
         d="m 582.5,448.5 c 0.99,6.145 1.323,12.478 1,19 -2.885,0.306 -5.552,-0.027 -8,-1 -0.172,-0.992 0.162,-1.658 1,-2 1.418,1.808 3.418,2.475 6,2 0,-6 0,-12 0,-18 z"
         id="path388" />
    </g>
    <g
       id="g391"
       style="clip-rule:evenodd;fill-rule:evenodd;image-rendering:optimizeQuality;shape-rendering:geometricPrecision;text-rendering:geometricPrecision"
       transform="matrix(0.29428861,0,0,0.29428861,-111.39668,-111.82336)">
      <path
         style="opacity:1"
         fill="#badff2"
         d="m 519.5,470.5 c -2.921,0.694 -5.921,1.527 -9,2.5 1.667,0.333 3.333,0.667 5,1 16.838,0.168 33.505,0.668 50,1.5 -19.003,-0.167 -38.003,0 -57,0.5 -1.036,1.776 -1.036,3.609 0,5.5 -1.447,-0.634 -2.113,-1.801 -2,-3.5 -0.016,-2.305 0.984,-3.972 3,-5 -6.576,-1.377 -13.243,-1.877 -20,-1.5 0,1.667 0,3.333 0,5 -0.951,-1.419 -1.284,-3.085 -1,-5 10.153,-0.994 20.486,-1.328 31,-1 z"
         id="path391" />
    </g>
    <g
       id="g392"
       style="clip-rule:evenodd;fill-rule:evenodd;image-rendering:optimizeQuality;shape-rendering:geometricPrecision;text-rendering:geometricPrecision"
       transform="matrix(0.29428861,0,0,0.29428861,-111.39668,-111.82336)">
      <path
         style="opacity:1"
         fill="#d5f3f8"
         d="m 519.5,470.5 c 21.667,0 43.333,0 65,0 0.667,0 1,0.333 1,1 0.284,1.915 -0.049,3.581 -1,5 0,-1.667 0,-3.333 0,-5 -6.342,-0.166 -12.675,0 -19,0.5 3.921,4.581 3.921,9.081 0,13.5 -0.667,0 -1.333,0 -2,0 1.1,-1.105 1.767,-2.438 2,-4 1.333,-2 1.333,-4 0,-6 -16.495,-0.832 -33.162,-1.332 -50,-1.5 -1.667,-0.333 -3.333,-0.667 -5,-1 3.079,-0.973 6.079,-1.806 9,-2.5 z"
         id="path392" />
    </g>
    <g
       id="g393"
       style="clip-rule:evenodd;fill-rule:evenodd;image-rendering:optimizeQuality;shape-rendering:geometricPrecision;text-rendering:geometricPrecision"
       transform="matrix(0.29428861,0,0,0.29428861,-111.39668,-111.82336)">
      <path
         style="opacity:1"
         fill="#f8f9f9"
         d="m 584.5,476.5 c -2.119,8.705 -4.453,17.372 -7,26 0,0.667 0,1.333 0,2 -0.667,0 -1,0.333 -1,1 -0.999,49.497 -1.332,99.164 -1,149 -25,0 -50,0 -75,0 -1.026,-25.551 -0.693,-51.051 1,-76.5 -0.828,-24.428 -1.328,-48.928 -1.5,-73.5 -3.453,-10.574 -6.619,-21.241 -9.5,-32 4.679,-0.166 9.345,10e-4 14,0.5 -0.223,3.092 0.277,6.259 1.5,9.5 1.152,2.149 2.652,3.982 4.5,5.5 10.754,0.617 21.587,1.117 32.5,1.5 6.753,-0.814 13.586,-1.314 20.5,-1.5 1.256,-0.417 1.923,-1.25 2,-2.5 3.921,-4.419 3.921,-8.919 0,-13.5 6.325,-0.5 12.658,-0.666 19,-0.5 0,1.667 0,3.333 0,5 z"
         id="path393" />
    </g>
    <g
       id="g394"
       style="clip-rule:evenodd;fill-rule:evenodd;image-rendering:optimizeQuality;shape-rendering:geometricPrecision;text-rendering:geometricPrecision"
       transform="matrix(0.29428861,0,0,0.29428861,-111.39668,-111.82336)">
      <path
         style="opacity:1"
         fill="#346a97"
         d="m 565.5,475.5 c 1.333,2 1.333,4 0,6 0,-1.667 0,-3.333 0,-5 -18.667,0 -37.333,0 -56,0 0.174,2.361 0.507,4.694 1,7 -0.667,-0.333 -1.333,-0.667 -2,-1 0,-0.333 0,-0.667 0,-1 -1.036,-1.891 -1.036,-3.724 0,-5.5 18.997,-0.5 37.997,-0.667 57,-0.5 z"
         id="path394" />
    </g>
    <g
       id="g395"
       style="clip-rule:evenodd;fill-rule:evenodd;image-rendering:optimizeQuality;shape-rendering:geometricPrecision;text-rendering:geometricPrecision"
       transform="matrix(0.29428861,0,0,0.29428861,-111.39668,-111.82336)">
      <path
         style="opacity:1"
         fill="#1f5d99"
         d="m 565.5,481.5 c -0.233,1.562 -0.9,2.895 -2,4 -17.337,0.167 -34.67,0 -52,-0.5 -0.556,-0.383 -0.889,-0.883 -1,-1.5 -0.493,-2.306 -0.826,-4.639 -1,-7 18.667,0 37.333,0 56,0 0,1.667 0,3.333 0,5 z"
         id="path395" />
    </g>
    <g
       id="g397"
       style="clip-rule:evenodd;fill-rule:evenodd;image-rendering:optimizeQuality;shape-rendering:geometricPrecision;text-rendering:geometricPrecision"
       transform="matrix(0.29428861,0,0,0.29428861,-111.39668,-111.82336)">
      <path
         style="opacity:1"
         fill="#1565b1"
         d="m 511.5,477.5 c 17.003,-0.167 34.003,0 51,0.5 1.247,1.458 1.247,2.958 0,4.5 -16.667,1.333 -33.333,1.333 -50,0 -0.809,-1.571 -1.143,-3.238 -1,-5 z"
         id="path397" />
    </g>
    <g
       id="g399"
       style="clip-rule:evenodd;fill-rule:evenodd;image-rendering:optimizeQuality;shape-rendering:geometricPrecision;text-rendering:geometricPrecision"
       transform="matrix(0.29428861,0,0,0.29428861,-111.39668,-111.82336)">
      <path
         style="opacity:1"
         fill="#3a6b92"
         d="m 595.5,480.5 c 5.28,0.951 8.613,3.951 10,9 0.11,1.874 -0.556,3.374 -2,4.5 -2.385,0.556 -4.718,0.39 -7,-0.5 -0.709,-0.904 -1.709,-1.237 -3,-1 0.734,-1.208 1.067,-2.541 1,-4 2.246,0.955 4.579,1.622 7,2 -1.059,-3.408 -3.392,-5.741 -7,-7 0.61,-0.891 0.943,-1.891 1,-3 z"
         id="path399" />
    </g>
    <g
       id="g404"
       style="clip-rule:evenodd;fill-rule:evenodd;image-rendering:optimizeQuality;shape-rendering:geometricPrecision;text-rendering:geometricPrecision"
       transform="matrix(0.29428861,0,0,0.29428861,-111.39668,-111.82336)">
      <path
         style="opacity:1"
         fill="#2b6597"
         d="m 577.5,424.5 c 3.076,2.073 5.41,4.739 7,8 0,0.333 0,0.667 0,1 1.493,11.25 2.493,22.583 3,34 1.352,1.024 2.685,2.024 4,3 0.667,0 1,0.333 1,1 -0.163,2.357 0.003,4.69 0.5,7 0.995,0.566 1.828,1.233 2.5,2 -0.057,1.109 -0.39,2.109 -1,3 -2.548,1.538 -2.548,3.204 0,5 0.067,1.459 -0.266,2.792 -1,4 -0.167,32.335 0,64.668 0.5,97 0.383,0.556 0.883,0.889 1.5,1 0.487,0.973 0.987,1.973 1.5,3 0.827,12.84 0.66,25.507 -0.5,38 0.216,2.181 -0.617,3.847 -2.5,5 -0.333,7 -0.667,14 -1,21 -1.193,3.86 -3.693,6.36 -7.5,7.5 -3.652,0.499 -7.318,0.665 -11,0.5 0.163,2.357 -0.003,4.69 -0.5,7 -0.903,1.201 -2.069,2.035 -3.5,2.5 -13.173,0.827 -26.173,0.66 -39,-0.5 -1.768,-2.662 -2.435,-5.662 -2,-9 -13.667,0 -27.333,0 -41,0 -1.975,-1.637 -3.975,-3.304 -6,-5 0,-1.333 0,-2.667 0,-4 0.166,-6.342 0,-12.675 -0.5,-19 -1.713,-1.378 -3.047,-3.045 -4,-5 -0.667,-13.333 -0.667,-26.667 0,-40 1.039,-1.21 2.206,-2.21 3.5,-3 0.039,1.256 -0.461,2.256 -1.5,3 -0.667,12.667 -0.667,25.333 0,38 0.639,2.712 2.139,4.712 4.5,6 -0.323,6.19 0.01,12.19 1,18 0.563,2.795 1.896,5.128 4,7 13.156,0.996 26.49,1.329 40,1 0.747,3.993 2.414,7.493 5,10.5 11.909,0.821 23.743,0.654 35.5,-0.5 1.814,-2.215 2.314,-4.548 1.5,-7 -3.272,-1.499 -6.605,-2.499 -10,-3 7.341,0.166 14.674,0 22,-0.5 5.447,-3.269 7.447,-8.102 6,-14.5 0.167,-58.001 0,-116.001 -0.5,-174 -0.671,-0.752 -1.504,-1.086 -2.5,-1 0,-0.667 -0.333,-1 -1,-1 0,-0.667 -0.333,-1 -1,-1 -32.162,-0.998 -64.496,-1.332 -97,-1 0,-1.667 0,-3.333 0,-5 0.666,-4.184 1.333,-8.518 2,-13 0.995,5.292 1.328,10.625 1,16 2.559,0.302 4.893,-0.032 7,-1 0.667,0 1,-0.333 1,-1 1.422,0.25 2.422,1.083 3,2.5 12.167,0.167 24.333,0.333 36.5,0.5 12.723,-0.019 25.223,-0.686 37.5,-2 2.448,0.973 5.115,1.306 8,1 0.323,-6.522 -0.01,-12.855 -1,-19 0.156,-2.566 -0.178,-5.066 -1,-7.5 -0.856,-1.595 -2.189,-2.428 -4,-2.5 -1.068,-0.934 -2.401,-1.268 -4,-1 -3.794,-2.236 -6.127,-5.569 -7,-10 2.201,2.004 4.201,4.337 6,7 1.823,1.247 3.823,1.914 6,2 1.125,0.514 2.291,0.847 3.5,1 0.309,-1.266 0.809,-2.433 1.5,-3.5 -2.147,-3.139 -4.147,-6.305 -6,-9.5 z"
         id="path404" />
    </g>
    <g
       id="g406"
       style="clip-rule:evenodd;fill-rule:evenodd;image-rendering:optimizeQuality;shape-rendering:geometricPrecision;text-rendering:geometricPrecision"
       transform="matrix(0.29428861,0,0,0.29428861,-111.39668,-111.82336)">
      <path
         style="opacity:1"
         fill="#a0c5e2"
         d="m 508.5,482.5 c 0.667,0.333 1.333,0.667 2,1 0.111,0.617 0.444,1.117 1,1.5 17.33,0.5 34.663,0.667 52,0.5 -17.495,1.162 -35.162,1.329 -53,0.5 -1.323,-0.816 -1.989,-1.983 -2,-3.5 z"
         id="path406" />
    </g>
    <g
       id="g407"
       style="clip-rule:evenodd;fill-rule:evenodd;image-rendering:optimizeQuality;shape-rendering:geometricPrecision;text-rendering:geometricPrecision"
       transform="matrix(0.29428861,0,0,0.29428861,-111.39668,-111.82336)">
      <path
         style="opacity:1"
         fill="#c9ecf5"
         d="m 594.5,483.5 c 3.608,1.259 5.941,3.592 7,7 -2.421,-0.378 -4.754,-1.045 -7,-2 -2.548,-1.796 -2.548,-3.462 0,-5 z"
         id="path407" />
    </g>
    <g
       id="g433"
       style="clip-rule:evenodd;fill-rule:evenodd;image-rendering:optimizeQuality;shape-rendering:geometricPrecision;text-rendering:geometricPrecision"
       transform="matrix(0.29428861,0,0,0.29428861,-111.39668,-111.82336)">
      <path
         style="opacity:1"
         fill="#235a87"
         d="m 484.5,588.5 c -0.667,0 -1.333,0 -2,0 0.332,-32.171 -0.002,-64.171 -1,-96 -3.599,1.14 -7.266,1.64 -11,1.5 -1.655,-4.082 -0.988,-7.748 2,-11 3.053,-1.527 6.053,-3.027 9,-4.5 0.658,-0.898 1.324,-1.898 2,-3 1,37.661 1.333,75.327 1,113 z"
         id="path433" />
    </g>
    <g
       id="g434"
       style="clip-rule:evenodd;fill-rule:evenodd;image-rendering:optimizeQuality;shape-rendering:geometricPrecision;text-rendering:geometricPrecision"
       transform="matrix(0.29428861,0,0,0.29428861,-111.39668,-111.82336)">
      <path
         style="opacity:1"
         fill="#bbe8f3"
         d="m 478.5,483.5 c 1,0 2,0 3,0 0,1.667 0,3.333 0,5 -10.525,3.337 -11.525,1.67 -3,-5 z"
         id="path434" />
    </g>
    <g
       id="g448"
       style="clip-rule:evenodd;fill-rule:evenodd;image-rendering:optimizeQuality;shape-rendering:geometricPrecision;text-rendering:geometricPrecision"
       transform="matrix(0.29428861,0,0,0.29428861,-111.39668,-111.82336)">
      <path
         style="opacity:1"
         fill="#87bce7"
         d="m 488.5,471.5 c -0.284,1.915 0.049,3.581 1,5 2.468,9.403 5.135,18.737 8,28 -1.32,-1.963 -2.654,-3.963 -4,-6 -0.709,-0.904 -1.709,-1.237 -3,-1 0,5.333 0,10.667 0,16 -0.79,-1.109 -1.29,-2.442 -1.5,-4 -1.299,0.59 -2.132,1.59 -2.5,3 0.663,42.614 0.663,85.114 0,127.5 0.667,0.333 1.333,0.667 2,1 -1.863,1.418 -2.363,3.251 -1.5,5.5 1.011,-0.837 2.178,-1.17 3.5,-1 -0.295,2.235 0.039,4.235 1,6 1.067,4.135 3.067,4.802 6,2 0,1 0,2 0,3 -1.074,1.784 -2.74,2.951 -5,3.5 0.556,0.383 0.889,0.883 1,1.5 -1.333,0 -2.667,0 -4,0 -2.104,-1.872 -3.437,-4.205 -4,-7 -0.167,-60.334 0,-120.668 0.5,-181 0.417,-1.256 1.25,-1.923 2.5,-2 z"
         id="path448" />
    </g>
    <g
       id="g449"
       style="clip-rule:evenodd;fill-rule:evenodd;image-rendering:optimizeQuality;shape-rendering:geometricPrecision;text-rendering:geometricPrecision"
       transform="matrix(0.29428861,0,0,0.29428861,-111.39668,-111.82336)">
      <path
         style="opacity:1"
         fill="#5f9dce"
         d="m 493.5,498.5 c -1.996,50.656 -2.662,101.656 -2,153 -0.961,-1.765 -1.295,-3.765 -1,-6 0,-44 0,-88 0,-132 0,-5.333 0,-10.667 0,-16 1.291,-0.237 2.291,0.096 3,1 z"
         id="path449" />
    </g>
    <g
       id="g458"
       style="clip-rule:evenodd;fill-rule:evenodd;image-rendering:optimizeQuality;shape-rendering:geometricPrecision;text-rendering:geometricPrecision"
       transform="matrix(0.29428861,0,0,0.29428861,-111.39668,-111.82336)">
      <path
         style="opacity:1"
         fill="#c7e6f9"
         d="m 593.5,492.5 c 1.291,-0.237 2.291,0.096 3,1 -1.333,15.486 -1.999,31.319 -2,47.5 0.014,16.543 0.347,33.043 1,49.5 -0.617,-0.111 -1.117,-0.444 -1.5,-1 -0.5,-32.332 -0.667,-64.665 -0.5,-97 z"
         id="path458" />
    </g>
    <g
       id="g461"
       style="clip-rule:evenodd;fill-rule:evenodd;image-rendering:optimizeQuality;shape-rendering:geometricPrecision;text-rendering:geometricPrecision"
       transform="matrix(0.29428861,0,0,0.29428861,-111.39668,-111.82336)">
      <path
         style="opacity:1"
         fill="#4a82b0"
         d="m 487.5,451.5 c 0,4.333 0,8.667 0,13 0,1.667 0,3.333 0,5 32.504,-0.332 64.838,0.002 97,1 -21.667,0 -43.333,0 -65,0 -10.514,-0.328 -20.847,0.006 -31,1 -1.25,0.077 -2.083,0.744 -2.5,2 -0.5,60.332 -0.667,120.666 -0.5,181 -0.99,-5.81 -1.323,-11.81 -1,-18 0,-16 0,-32 0,-48 0.333,-37.673 0,-75.339 -1,-113 -0.676,1.102 -1.342,2.102 -2,3 -0.161,-4.344 1.339,-8.011 4.5,-11 0.173,-5.516 0.673,-10.849 1.5,-16 z"
         id="path461" />
    </g>
    <g
       id="g462"
       style="clip-rule:evenodd;fill-rule:evenodd;image-rendering:optimizeQuality;shape-rendering:geometricPrecision;text-rendering:geometricPrecision"
       transform="matrix(0.29428861,0,0,0.29428861,-111.39668,-111.82336)">
      <path
         style="opacity:1"
         fill="#91c5ec"
         d="m 490.5,513.5 c 0,44 0,88 0,132 -1.322,-0.17 -2.489,0.163 -3.5,1 -0.863,-2.249 -0.363,-4.082 1.5,-5.5 -0.667,-0.333 -1.333,-0.667 -2,-1 0.663,-42.386 0.663,-84.886 0,-127.5 0.368,-1.41 1.201,-2.41 2.5,-3 0.21,1.558 0.71,2.891 1.5,4 z"
         id="path462" />
    </g>
    <g
       id="g463"
       style="clip-rule:evenodd;fill-rule:evenodd;image-rendering:optimizeQuality;shape-rendering:geometricPrecision;text-rendering:geometricPrecision"
       transform="matrix(0.29428861,0,0,0.29428861,-111.39668,-111.82336)">
      <path
         style="opacity:1"
         fill="#75b0e1"
         d="m 583.5,604.5 c 0.333,-35.34 0,-70.673 -1,-106 -1.551,1.3 -2.551,2.967 -3,5 -0.667,1 -1.333,2 -2,3 0,-0.667 0,-1.333 0,-2 0,-0.667 0,-1.333 0,-2 1.713,-1.135 2.38,-2.802 2,-5 1.667,0 3.333,0 5,0 -0.275,24.753 0.058,49.253 1,73.5 -0.657,11.265 -1.323,22.431 -2,33.5 z"
         id="path463" />
    </g>
    <g
       id="g468"
       style="clip-rule:evenodd;fill-rule:evenodd;image-rendering:optimizeQuality;shape-rendering:geometricPrecision;text-rendering:geometricPrecision"
       transform="matrix(0.29428861,0,0,0.29428861,-111.39668,-111.82336)">
      <path
         style="opacity:1"
         fill="#65a3d3"
         d="m 586.5,472.5 c 0.996,-0.086 1.829,0.248 2.5,1 0.5,57.999 0.667,115.999 0.5,174 -0.986,-4.47 -1.319,-9.137 -1,-14 0,-49.333 0,-98.667 0,-148 -1.175,0.219 -2.175,-0.114 -3,-1 2.172,-3.833 2.506,-7.833 1,-12 z"
         id="path468" />
    </g>
    <g
       id="g475"
       style="clip-rule:evenodd;fill-rule:evenodd;image-rendering:optimizeQuality;shape-rendering:geometricPrecision;text-rendering:geometricPrecision"
       transform="matrix(0.29428861,0,0,0.29428861,-111.39668,-111.82336)">
      <path
         style="opacity:1"
         fill="#95bcd5"
         d="m 497.5,504.5 c 0.999,50.164 1.332,100.497 1,151 26,0 52,0 78,0 0,-50 0,-100 0,-150 0,-0.667 0.333,-1 1,-1 0,0.667 0,1.333 0,2 0,49.667 0,99.333 0,149 0,0.667 -0.333,1 -1,1 -26.333,0 -52.667,0 -79,0 0,-1 0,-2 0,-3 0,-49.667 0,-99.333 0,-149 z"
         id="path475" />
    </g>
    <g
       id="g478"
       style="clip-rule:evenodd;fill-rule:evenodd;image-rendering:optimizeQuality;shape-rendering:geometricPrecision;text-rendering:geometricPrecision"
       transform="matrix(0.29428861,0,0,0.29428861,-111.39668,-111.82336)">
      <path
         style="opacity:1"
         fill="#236daf"
         d="m 583.5,604.5 c 0,0.333 0,0.667 0,1 0.167,15.337 0,30.67 -0.5,46 -0.278,0.916 -0.778,1.582 -1.5,2 -0.617,-0.111 -1.117,-0.444 -1.5,-1 -0.192,-46.343 -0.692,-92.677 -1.5,-139 0.336,-3.341 0.669,-6.675 1,-10 0.449,-2.033 1.449,-3.7 3,-5 1,35.327 1.333,70.66 1,106 z"
         id="path478" />
    </g>
    <g
       id="g479"
       style="clip-rule:evenodd;fill-rule:evenodd;image-rendering:optimizeQuality;shape-rendering:geometricPrecision;text-rendering:geometricPrecision"
       transform="matrix(0.29428861,0,0,0.29428861,-111.39668,-111.82336)">
      <path
         style="opacity:1"
         fill="#2069a5"
         d="m 493.5,498.5 c 1.346,2.037 2.68,4.037 4,6 0,49.667 0,99.333 0,149 -2.933,2.802 -4.933,2.135 -6,-2 -0.662,-51.344 0.004,-102.344 2,-153 z"
         id="path479" />
    </g>
    <g
       id="g483"
       style="clip-rule:evenodd;fill-rule:evenodd;image-rendering:optimizeQuality;shape-rendering:geometricPrecision;text-rendering:geometricPrecision"
       transform="matrix(0.29428861,0,0,0.29428861,-111.39668,-111.82336)">
      <path
         style="opacity:1"
         fill="#24649a"
         d="m 579.5,503.5 c -0.331,3.325 -0.664,6.659 -1,10 0.808,46.323 1.308,92.657 1.5,139 0.383,0.556 0.883,0.889 1.5,1 -0.787,1.604 -2.12,2.271 -4,2 0,-49.667 0,-99.333 0,-149 0.667,-1 1.333,-2 2,-3 z"
         id="path483" />
    </g>
    <g
       id="g485"
       style="clip-rule:evenodd;fill-rule:evenodd;image-rendering:optimizeQuality;shape-rendering:geometricPrecision;text-rendering:geometricPrecision"
       transform="matrix(0.29428861,0,0,0.29428861,-111.39668,-111.82336)">
      <path
         style="opacity:1"
         fill="#1867ad"
         d="m 596.5,631.5 c -1.324,1.435 -2.991,2.435 -5,3 -0.333,-0.667 -0.667,-1.333 -1,-2 -0.191,-13.739 0.309,-27.739 1.5,-42 1.439,1.775 2.439,3.775 3,6 0.263,7.44 0.096,14.773 -0.5,22 0.911,4.288 1.578,8.621 2,13 z"
         id="path485" />
    </g>
    <g
       id="g499"
       style="clip-rule:evenodd;fill-rule:evenodd;image-rendering:optimizeQuality;shape-rendering:geometricPrecision;text-rendering:geometricPrecision"
       transform="matrix(0.29428861,0,0,0.29428861,-111.39668,-111.82336)">
      <path
         style="opacity:1"
         fill="#1567ac"
         d="m 482.5,588.5 c 0.667,0 1.333,0 2,0 0,16 0,32 0,48 -2.361,-1.288 -3.861,-3.288 -4.5,-6 -0.667,-12.667 -0.667,-25.333 0,-38 1.039,-0.744 1.539,-1.744 1.5,-3 0,-0.667 0.333,-1 1,-1 z"
         id="path499" />
    </g>
    <g
       id="g500"
       style="clip-rule:evenodd;fill-rule:evenodd;image-rendering:optimizeQuality;shape-rendering:geometricPrecision;text-rendering:geometricPrecision"
       transform="matrix(0.29428861,0,0,0.29428861,-111.39668,-111.82336)">
      <path
         style="opacity:1"
         fill="#b7d5e6"
         d="m 481.5,492.5 c 0.998,31.829 1.332,63.829 1,96 -0.667,0 -1,0.333 -1,1 -1.294,0.79 -2.461,1.79 -3.5,3 -0.667,13.333 -0.667,26.667 0,40 0.953,1.955 2.287,3.622 4,5 0.5,6.325 0.666,12.658 0.5,19 -0.722,-0.418 -1.222,-1.084 -1.5,-2 -0.333,-5.667 -0.667,-11.333 -1,-17 -1.667,-1 -3,-2.333 -4,-4 -0.667,-13.667 -0.667,-27.333 0,-41 1.617,-1.036 1.784,-2.203 0.5,-3.5 0.948,-0.483 1.948,-0.649 3,-0.5 0.057,-2.384 -0.277,-4.718 -1,-7 1.898,-3.735 2.231,-7.569 1,-11.5 1.567,-25.8 2.233,-51.633 2,-77.5 z"
         id="path500" />
    </g>
    <g
       id="g504"
       style="clip-rule:evenodd;fill-rule:evenodd;image-rendering:optimizeQuality;shape-rendering:geometricPrecision;text-rendering:geometricPrecision"
       transform="matrix(0.29428861,0,0,0.29428861,-111.39668,-111.82336)">
      <path
         style="opacity:1"
         fill="#92c4eb"
         d="m 585.5,471.5 c 0.667,0 1,0.333 1,1 1.506,4.167 1.172,8.167 -1,12 0.825,0.886 1.825,1.219 3,1 0,49.333 0,98.667 0,148 -0.809,1.792 -1.309,3.792 -1.5,6 -0.219,-1.438 -0.719,-2.771 -1.5,-4 -0.667,-10.159 -1.333,-20.159 -2,-30 0,-0.333 0,-0.667 0,-1 0.677,-11.069 1.343,-22.235 2,-33.5 -0.942,-24.247 -1.275,-48.747 -1,-73.5 -1.667,0 -3.333,0 -5,0 0.38,2.198 -0.287,3.865 -2,5 2.547,-8.628 4.881,-17.295 7,-26 0.951,-1.419 1.284,-3.085 1,-5 z"
         id="path504" />
    </g>
    <g
       id="g506"
       style="clip-rule:evenodd;fill-rule:evenodd;image-rendering:optimizeQuality;shape-rendering:geometricPrecision;text-rendering:geometricPrecision"
       transform="matrix(0.29428861,0,0,0.29428861,-111.39668,-111.82336)">
      <path
         style="opacity:1"
         fill="#e3f7f9"
         d="m 508.5,481.5 c 0,0.333 0,0.667 0,1 0.011,1.517 0.677,2.684 2,3.5 17.838,0.829 35.505,0.662 53,-0.5 0.667,0 1.333,0 2,0 -0.077,1.25 -0.744,2.083 -2,2.5 -6.914,0.186 -13.747,0.686 -20.5,1.5 -10.913,-0.383 -21.746,-0.883 -32.5,-1.5 -1.848,-1.518 -3.348,-3.351 -4.5,-5.5 -1.223,-3.241 -1.723,-6.408 -1.5,-9.5 -4.655,-0.499 -9.321,-0.666 -14,-0.5 2.881,10.759 6.047,21.426 9.5,32 0.172,24.572 0.672,49.072 1.5,73.5 -1.693,25.449 -2.026,50.949 -1,76.5 25,0 50,0 75,0 -0.332,-49.836 10e-4,-99.503 1,-149 0,50 0,100 0,150 -26,0 -52,0 -78,0 0.332,-50.503 -10e-4,-100.836 -1,-151 -2.865,-9.263 -5.532,-18.597 -8,-28 0,-1.667 0,-3.333 0,-5 6.757,-0.377 13.424,0.123 20,1.5 -2.016,1.028 -3.016,2.695 -3,5 -0.113,1.699 0.553,2.866 2,3.5 z"
         id="path506" />
    </g>
    <g
       id="g507"
       style="clip-rule:evenodd;fill-rule:evenodd;image-rendering:optimizeQuality;shape-rendering:geometricPrecision;text-rendering:geometricPrecision"
       transform="matrix(0.29428861,0,0,0.29428861,-111.39668,-111.82336)">
      <path
         style="opacity:1"
         fill="#3e71a1"
         d="m 550.5,611.5 c 0.645,1.312 1.645,2.312 3,3 0.998,8.975 1.332,17.975 1,27 -1.462,0.958 -2.795,2.124 -4,3.5 -9,0.667 -18,0.667 -27,0 -0.544,-0.717 -1.211,-1.217 -2,-1.5 -0.949,-9.614 -1.282,-19.281 -1,-29 0.978,-0.311 1.645,-0.978 2,-2 9.31,-0.998 18.643,-1.332 28,-1 z"
         id="path507" />
    </g>
    <g
       id="g508"
       style="clip-rule:evenodd;fill-rule:evenodd;image-rendering:optimizeQuality;shape-rendering:geometricPrecision;text-rendering:geometricPrecision"
       transform="matrix(0.29428861,0,0,0.29428861,-111.39668,-111.82336)">
      <path
         style="opacity:1"
         fill="#9cc8e5"
         d="m 520.5,614.5 c -0.282,9.719 0.051,19.386 1,29 -0.617,-0.111 -1.117,-0.444 -1.5,-1 -0.824,-9.509 -0.658,-18.843 0.5,-28 z"
         id="path508" />
    </g>
    <g
       id="g509"
       style="clip-rule:evenodd;fill-rule:evenodd;image-rendering:optimizeQuality;shape-rendering:geometricPrecision;text-rendering:geometricPrecision"
       transform="matrix(0.29428861,0,0,0.29428861,-111.39668,-111.82336)">
      <path
         style="opacity:1"
         fill="#c6e6f8"
         d="m 550.5,611.5 c 1.544,0.203 2.878,0.87 4,2 1.322,9.492 1.322,18.825 0,28 0.332,-9.025 -0.002,-18.025 -1,-27 -1.355,-0.688 -2.355,-1.688 -3,-3 z"
         id="path509" />
    </g>
    <g
       id="g510"
       style="clip-rule:evenodd;fill-rule:evenodd;image-rendering:optimizeQuality;shape-rendering:geometricPrecision;text-rendering:geometricPrecision"
       transform="matrix(0.29428861,0,0,0.29428861,-111.39668,-111.82336)">
      <path
         style="opacity:1"
         fill="#1367b2"
         d="m 523.5,613.5 c 9.006,-0.166 18.006,0 27,0.5 0.5,0.5 1,1 1.5,1.5 0.039,8.421 0.206,16.587 0.5,24.5 -0.259,1.261 -0.926,2.261 -2,3 -8.85,0.625 -17.85,0.458 -27,-0.5 -2.664,-9.692 -2.664,-19.358 0,-29 z"
         id="path510" />
    </g>
    <g
       id="g511"
       style="clip-rule:evenodd;fill-rule:evenodd;image-rendering:optimizeQuality;shape-rendering:geometricPrecision;text-rendering:geometricPrecision"
       transform="matrix(0.29428861,0,0,0.29428861,-111.39668,-111.82336)">
      <path
         style="opacity:1"
         fill="#356995"
         d="m 552.5,557.5 c -9.62,1.115 -19.286,1.282 -29,0.5 -1.641,-1.129 -2.641,-2.629 -3,-4.5 -0.166,-8.34 0,-16.673 0.5,-25 0.513,-1.027 1.013,-2.027 1.5,-3 8.922,-1.137 17.922,-1.304 27,-0.5 1.786,0.785 3.286,1.951 4.5,3.5 0.667,8.667 0.667,17.333 0,26 -1.039,0.744 -1.539,1.744 -1.5,3 z"
         id="path511" />
    </g>
    <g
       id="g512"
       style="clip-rule:evenodd;fill-rule:evenodd;image-rendering:optimizeQuality;shape-rendering:geometricPrecision;text-rendering:geometricPrecision"
       transform="matrix(0.29428861,0,0,0.29428861,-111.39668,-111.82336)">
      <path
         style="opacity:1"
         fill="#1168b2"
         d="m 524.5,526.5 c 9.197,-0.6 18.197,0.067 27,2 1.316,8.893 1.316,17.726 0,26.5 -5.11,2.009 -10.443,2.843 -16,2.5 -3.667,-0.167 -7.333,-0.333 -11,-0.5 -0.5,-0.5 -1,-1 -1.5,-1.5 -1.572,-8.255 -1.905,-16.589 -1,-25 0.662,-1.484 1.496,-2.817 2.5,-4 z"
         id="path512" />
    </g>
    <g
       id="g513"
       style="clip-rule:evenodd;fill-rule:evenodd;image-rendering:optimizeQuality;shape-rendering:geometricPrecision;text-rendering:geometricPrecision"
       transform="matrix(0.29428861,0,0,0.29428861,-111.39668,-111.82336)">
      <path
         style="opacity:1"
         fill="#a2cae5"
         d="m 520.5,525.5 c 0.667,0 1.333,0 2,0 -0.487,0.973 -0.987,1.973 -1.5,3 -0.5,8.327 -0.666,16.66 -0.5,25 -1.316,-9.235 -1.316,-18.568 0,-28 z"
         id="path513" />
    </g>
    <g
       id="g514"
       style="clip-rule:evenodd;fill-rule:evenodd;image-rendering:optimizeQuality;shape-rendering:geometricPrecision;text-rendering:geometricPrecision"
       transform="matrix(0.29428861,0,0,0.29428861,-111.39668,-111.82336)">
      <path
         style="opacity:1"
         fill="#e0f4f9"
         d="m 552.5,557.5 c -0.039,-1.256 0.461,-2.256 1.5,-3 0.667,-8.667 0.667,-17.333 0,-26 -1.214,-1.549 -2.714,-2.715 -4.5,-3.5 -9.078,-0.804 -18.078,-0.637 -27,0.5 -0.667,0 -1.333,0 -2,0 0.077,-1.25 0.744,-2.083 2,-2.5 3.589,-0.207 7.089,-0.707 10.5,-1.5 6.535,0.573 13.035,1.073 19.5,1.5 1.817,1.8 2.984,3.966 3.5,6.5 0.181,8.911 0.681,17.745 1.5,26.5 -1.747,0.352 -3.414,0.852 -5,1.5 z"
         id="path514" />
    </g>
    <g
       id="g520"
       style="clip-rule:evenodd;fill-rule:evenodd;image-rendering:optimizeQuality;shape-rendering:geometricPrecision;text-rendering:geometricPrecision"
       transform="matrix(0.29428861,0,0,0.29428861,-111.39668,-111.82336)">
      <path
         style="opacity:1"
         fill="#90bbdd"
         d="m 497.5,656.5 c 26.333,0 52.667,0 79,0 -0.304,0.65 -0.637,1.317 -1,2 -2,0.333 -4,0.667 -6,1 -21.527,1.123 -43.527,1.123 -66,0 -3.476,0.05 -6.81,0.717 -10,2 -0.111,-0.617 -0.444,-1.117 -1,-1.5 2.26,-0.549 3.926,-1.716 5,-3.5 z"
         id="path520" />
    </g>
    <g
       id="g521"
       style="clip-rule:evenodd;fill-rule:evenodd;image-rendering:optimizeQuality;shape-rendering:geometricPrecision;text-rendering:geometricPrecision"
       transform="matrix(0.29428861,0,0,0.29428861,-111.39668,-111.82336)">
      <path
         style="opacity:1"
         fill="#7cb4e2"
         d="m 583.5,605.5 c 0.667,9.841 1.333,19.841 2,30 0.781,1.229 1.281,2.562 1.5,4 0.191,-2.208 0.691,-4.208 1.5,-6 -0.319,4.863 0.014,9.53 1,14 1.447,6.398 -0.553,11.231 -6,14.5 -7.326,0.5 -14.659,0.666 -22,0.5 -10.667,0 -21.333,0 -32,0 -13.51,0.329 -26.844,-0.004 -40,-1 1.333,0 2.667,0 4,0 3.19,-1.283 6.524,-1.95 10,-2 22.473,1.123 44.473,1.123 66,0 2,-0.333 4,-0.667 6,-1 0.363,-0.683 0.696,-1.35 1,-2 0.667,0 1,-0.333 1,-1 1.88,0.271 3.213,-0.396 4,-2 0.722,-0.418 1.222,-1.084 1.5,-2 0.5,-15.33 0.667,-30.663 0.5,-46 z"
         id="path521" />
    </g>
    <g
       id="g528"
       style="clip-rule:evenodd;fill-rule:evenodd;image-rendering:optimizeQuality;shape-rendering:geometricPrecision;text-rendering:geometricPrecision"
       transform="matrix(0.29428861,0,0,0.29428861,-111.39668,-111.82336)">
      <path
         style="opacity:1"
         fill="#e0f2f7"
         d="m 592.5,471.5 c 1.679,1.5 3.012,3.333 4,5.5 6.251,1.953 10.584,5.953 13,12 -1.19,4.523 -4.023,7.357 -8.5,8.5 -2.022,-1.491 -3.688,-1.158 -5,1 -0.231,17.539 -0.397,34.705 -0.5,51.5 0.667,3 1.333,6 2,9 -1.15,9.089 -1.317,18.255 -0.5,27.5 0.937,3.156 2.437,5.989 4.5,8.5 -0.176,11.81 -0.176,23.476 0,35 -1.312,2.941 -2.812,5.774 -4.5,8.5 -0.027,6.99 -0.861,13.823 -2.5,20.5 0.333,0.333 0.667,0.667 1,1 -1,0.833 -2,1.667 -3,2.5 1.071,1.825 0.404,2.992 -2,3.5 -4.273,1.03 -8.606,1.697 -13,2 -1.564,5.565 -5.064,9.065 -10.5,10.5 -10.412,-0.509 -21.079,-0.509 -32,0 -2.175,-0.755 -4.341,-1.588 -6.5,-2.5 -1.042,-2.557 -2.375,-4.89 -4,-7 -11.272,0.402 -22.606,0.069 -34,-1 -5.158,-0.048 -7.825,-2.548 -8,-7.5 2.025,1.696 4.025,3.363 6,5 13.156,0.996 26.49,1.329 40,1 -0.163,2.357 0.003,4.69 0.5,7 0.671,0.752 1.504,1.086 2.5,1 12.827,1.16 25.827,1.327 39,0.5 1.431,-0.465 2.597,-1.299 3.5,-2.5 0.497,-2.31 0.663,-4.643 0.5,-7 3.682,0.165 7.348,-10e-4 11,-0.5 3.807,-1.14 6.307,-3.64 7.5,-7.5 0.333,-7 0.667,-14 1,-21 1.883,-1.153 2.716,-2.819 2.5,-5 1.16,-12.493 1.327,-25.16 0.5,-38 -0.513,-1.027 -1.013,-2.027 -1.5,-3 -0.653,-16.457 -0.986,-32.957 -1,-49.5 10e-4,-16.181 0.667,-32.014 2,-47.5 2.282,0.89 4.615,1.056 7,0.5 1.444,-1.126 2.11,-2.626 2,-4.5 -1.387,-5.049 -4.72,-8.049 -10,-9 -0.672,-0.767 -1.505,-1.434 -2.5,-2 -0.497,-2.31 -0.663,-4.643 -0.5,-7 z"
         id="path528" />
    </g>
    <g
       id="g529"
       style="clip-rule:evenodd;fill-rule:evenodd;image-rendering:optimizeQuality;shape-rendering:geometricPrecision;text-rendering:geometricPrecision"
       transform="matrix(0.29428861,0,0,0.29428861,-111.39668,-111.82336)">
      <path
         style="opacity:1"
         fill="#1365af"
         d="m 529.5,662.5 c 10.667,0 21.333,0 32,0 3.395,0.501 6.728,1.501 10,3 0.814,2.452 0.314,4.785 -1.5,7 -11.757,1.154 -23.591,1.321 -35.5,0.5 -2.586,-3.007 -4.253,-6.507 -5,-10.5 z"
         id="path529" />
    </g>
    <g
       id="g530"
       style="clip-rule:evenodd;fill-rule:evenodd;image-rendering:optimizeQuality;shape-rendering:geometricPrecision;text-rendering:geometricPrecision"
       transform="matrix(0.29428861,0,0,0.29428861,-111.39668,-111.82336)">
      <path
         style="opacity:1"
         fill="#92bcd8"
         d="m 488.5,665.5 c 13.667,0 27.333,0 41,0 -0.435,3.338 0.232,6.338 2,9 -0.996,0.086 -1.829,-0.248 -2.5,-1 -0.497,-2.31 -0.663,-4.643 -0.5,-7 -13.51,0.329 -26.844,-0.004 -40,-1 z"
         id="path530" />
    </g>
  </g>
</svg>
