<?xml version="1.0" encoding="UTF-8" standalone="no"?>
<!-- Created with Inkscape (http://www.inkscape.org/) -->

<svg
   width="96mm"
   height="96mm"
   viewBox="0 0 96 96"
   version="1.1"
   id="svg1"
   inkscape:version="1.4.2 (ebf0e940, 2025-05-08)"
   sodipodi:docname="default.svg"
   xmlns:inkscape="http://www.inkscape.org/namespaces/inkscape"
   xmlns:sodipodi="http://sodipodi.sourceforge.net/DTD/sodipodi-0.dtd"
   xmlns="http://www.w3.org/2000/svg"
   xmlns:svg="http://www.w3.org/2000/svg">
  <sodipodi:namedview
     id="namedview1"
     pagecolor="#ffffff"
     bordercolor="#000000"
     borderopacity="0.25"
     inkscape:showpageshadow="2"
     inkscape:pageopacity="0.0"
     inkscape:pagecheckerboard="0"
     inkscape:deskcolor="#d1d1d1"
     inkscape:document-units="mm"
     inkscape:zoom="0.80444024"
     inkscape:cx="397.17059"
     inkscape:cy="262.91574"
     inkscape:window-width="1920"
     inkscape:window-height="1052"
     inkscape:window-x="0"
     inkscape:window-y="28"
     inkscape:window-maximized="0"
     inkscape:current-layer="layer1" />
  <defs
     id="defs1" />
  <g
     inkscape:label="Layer 1"
     inkscape:groupmode="layer"
     id="layer1">
    <g
       id="g6"
       style="clip-rule:evenodd;fill-rule:evenodd;image-rendering:optimizeQuality;shape-rendering:geometricPrecision;text-rendering:geometricPrecision"
       transform="matrix(0.32927893,0,0,0.32927893,-14.766036,-6.8416966)">
      <path
         style="opacity:1"
         fill="#d6eef7"
         d="m 218.5,53.5 c -5.3,-1.1857 -10.633,-2.1857 -16,-3 -4.822,-0.666 -9.822,-0.9993 -15,-1 -6.911,-0.2244 -13.578,0.4423 -20,2 -6.769,0.9771 -13.436,2.4771 -20,4.5 -8.191,3.597 -16.191,7.4303 -24,11.5 0.061,-2.0922 1.061,-3.5922 3,-4.5 9.376,-5.5056 19.376,-9.1723 30,-11 5.706,-2.3091 11.539,-4.1425 17.5,-5.5 14.166,0.5663 28.333,1.7329 42.5,3.5 0.805,1.1127 1.472,2.2794 2,3.5 z"
         id="path6" />
    </g>
    <g
       id="g7"
       style="clip-rule:evenodd;fill-rule:evenodd;image-rendering:optimizeQuality;shape-rendering:geometricPrecision;text-rendering:geometricPrecision"
       transform="matrix(0.32927893,0,0,0.32927893,-14.766036,-6.8416966)">
      <path
         style="opacity:1"
         fill="#5285af"
         d="m 202.5,50.5 c -11.683,-0.1019 -23.35,0.2314 -35,1 6.422,-1.5577 13.089,-2.2244 20,-2 5.178,7e-4 10.178,0.334 15,1 z"
         id="path7" />
    </g>
    <g
       id="g33"
       style="clip-rule:evenodd;fill-rule:evenodd;image-rendering:optimizeQuality;shape-rendering:geometricPrecision;text-rendering:geometricPrecision"
       transform="matrix(0.32927893,0,0,0.32927893,-14.766036,-6.8416966)">
      <path
         style="opacity:1"
         fill="#f8f9f9"
         d="m 206.5,62.5 c 4.449,0.529 8.782,1.529 13,3 0.891,0.6098 1.891,0.9431 3,1 7.472,3.4245 14.472,7.9245 21,13.5 1.973,0.4955 3.973,0.6621 6,0.5 10.355,7.0212 19.021,15.6879 26,26 1.255,5.584 3.755,10.584 7.5,15 1.208,9.107 4.708,17.441 10.5,25 0.359,15.369 -0.141,30.703 -1.5,46 -0.333,-2 -0.667,-4 -1,-6 -0.531,6.306 -2.364,12.139 -5.5,17.5 0.457,0.414 0.791,0.914 1,1.5 -4.998,9.999 -9.998,19.999 -15,30 -1,0 -2,0 -3,0 0,1.333 0,2.667 0,4 -1.208,-0.734 -2.541,-1.067 -4,-1 -1.187,2.405 -2.687,4.739 -4.5,7 -3.38,1.371 -6.213,3.538 -8.5,6.5 0.333,0.333 0.667,0.667 1,1 -4.226,3.28 -8.893,5.78 -14,7.5 -0.886,0.825 -1.219,1.825 -1,3 -3.408,0.867 -6.742,2.033 -10,3.5 -2.044,0.498 -3.378,1.665 -4,3.5 -0.333,0 -0.667,0 -1,0 -12.332,1.25 -24.665,2.583 -37,4 -7.617,-1.236 -15.283,-2.236 -23,-3 -8.001,-3.749 -16.335,-6.416 -25,-8 -3.568,-4.466 -8.235,-7.466 -14,-9 -2.982,-1.974 -5.982,-3.974 -9,-6 -5.405,-6.065 -10.405,-12.398 -15,-19 -6.2627,-12.869 -11.9294,-25.869 -17,-39 -1.5661,-15.046 -1.2328,-30.046 1,-45 1.5691,-1.214 2.4024,-2.881 2.5,-5 0.498,-2.982 0.6646,-5.982 0.5,-9 0.538,-1.617 0.8713,-3.284 1,-5 3.7318,-7.128 7.7318,-14.128 12,-21 3,-3.333 6,-6.6667 9,-10 3.063,-1.5512 5.729,-3.7179 8,-6.5 1.587,-0.8624 3.254,-1.5291 5,-2 5.661,-4.2988 10.994,-8.7988 16,-13.5 12.602,-3.9218 25.268,-7.7551 38,-11.5 10.347,-0.6008 20.681,-0.4341 31,0.5 z"
         id="path33" />
    </g>
    <g
       id="g44"
       style="clip-rule:evenodd;fill-rule:evenodd;image-rendering:optimizeQuality;shape-rendering:geometricPrecision;text-rendering:geometricPrecision"
       transform="matrix(0.32927893,0,0,0.32927893,-14.766036,-6.8416966)">
      <path
         style="opacity:1"
         fill="#2465a1"
         d="m 202.5,50.5 c 5.367,0.8143 10.7,1.8143 16,3 22.951,6.641 42.617,18.641 59,36 12.005,14.007 20.338,30.007 25,48 -2.868,-5.11 -5.701,-10.443 -8.5,-16 -0.257,-4.514 -2.09,-8.181 -5.5,-11 -1.85,-5.036 -4.016,-9.369 -6.5,-13 -3.708,-4.2202 -7.541,-8.3869 -11.5,-12.5 -2.343,-1.746 -4.343,-1.5794 -6,0.5 -1.85,-0.7418 -2.516,-1.7418 -2,-3 -1,0.5 -2,1 -3,1.5 3.408,2.472 6.575,5.3053 9.5,8.5 3.383,5.2137 6.55,10.547 9.5,16 -1,-0.667 -2,-1.333 -3,-2 -6.979,-10.3121 -15.645,-18.9788 -26,-26 -0.806,-1.2281 -1.806,-2.2281 -3,-3 1.373,-0.1567 2.707,0.01 4,0.5 2.118,2.1422 4.618,3.6422 7.5,4.5 0.749,-1.135 0.583,-2.135 -0.5,-3 -0.896,1.0063 -1.562,1.0063 -2,0 1.229,-0.7811 2.562,-1.2811 4,-1.5 -0.452,-1.6124 -1.785,-2.6124 -4,-3 1.333,-1 1.333,-2 0,-3 -4.259,-1.9343 -8.259,-4.2677 -12,-7 -5.643,-0.9365 -10.976,-2.7698 -16,-5.5 -1.104,1.1313 -0.771,1.9646 1,2.5 -2.42,0.6869 -4.587,0.1869 -6.5,-1.5 -0.75,0.6258 -1.584,1.1258 -2.5,1.5 4.459,1.5242 8.459,3.6909 12,6.5 -3,-0.6667 -6,-1.3333 -9,-2 -1.109,-0.0569 -2.109,-0.3902 -3,-1 -0.356,-1.3699 -1.19,-2.3699 -2.5,-3 -3.206,-1.2677 -6.373,-2.2677 -9.5,-3 1.083,-0.0394 2.083,-0.3728 3,-1 3.262,1.2209 6.596,1.7209 10,1.5 -2.624,-0.5764 -3.291,-1.9098 -2,-4 -1.601,-0.2734 -3.101,-0.7734 -4.5,-1.5 -0.333,0.6667 -0.667,1.3333 -1,2 -1.892,-0.63 -3.559,-1.63 -5,-3 -3.578,0.7594 -7.245,1.0927 -11,1 -1.907,-1.4298 -4.074,-2.0965 -6.5,-2 -6.229,0.8391 -12.895,1.1725 -20,1 -0.789,1.9879 -1.955,2.3213 -3.5,1 -2.996,0.7897 -5.829,1.9563 -8.5,3.5 2.432,1.0875 2.098,1.5875 -1,1.5 0.041,-3.7434 -0.626,-3.9101 -2,-0.5 -2.586,1.2612 -5.086,1.4279 -7.5,0.5 -5.62,1.3164 -11.12,3.1498 -16.5,5.5 -2.157,1.9121 -4.491,3.5787 -7,5 -2.168,3.4235 -4.835,6.4235 -8,9 0.916,0.3742 1.75,0.8742 2.5,1.5 5.785,-3.6865 11.785,-7.6865 18,-12 0.333,0.3333 0.667,0.6667 1,1 8.985,-4.3824 18.485,-7.049 28.5,-8 0,0.3333 0,0.6667 0,1 -4.764,0.2689 -9.097,1.6022 -13,4 -3.825,0.574 -7.491,1.7406 -11,3.5 -2.084,0.6972 -3.751,1.8639 -5,3.5 -11.291,5.1506 -20.958,12.4839 -29,22 -3,3.3333 -6,6.667 -9,10 0,-1.667 0,-3.333 0,-5 1.322,0.17 2.489,-0.163 3.5,-1 0.894,-2.4787 1.227,-4.812 1,-7 1.356,0.8802 2.856,1.2135 4.5,1 -0.149,-1.052 0.017,-2.052 0.5,-3 2.209,-1.8734 4.042,-4.04 5.5,-6.5 -0.916,-0.3742 -1.75,-0.8742 -2.5,-1.5 -1.512,2.4574 -2.846,2.4574 -4,0 -4.035,3.7002 -7.702,7.7002 -11,12 -0.3826,-0.556 -0.8826,-0.8893 -1.5,-1 8.405,-9.7408 17.738,-18.4074 28,-26 7.809,-4.0697 15.809,-7.903 24,-11.5 6.564,-2.0229 13.231,-3.5229 20,-4.5 11.65,-0.7686 23.317,-1.1019 35,-1 z"
         id="path44" />
    </g>
    <g
       id="g45"
       style="clip-rule:evenodd;fill-rule:evenodd;image-rendering:optimizeQuality;shape-rendering:geometricPrecision;text-rendering:geometricPrecision"
       transform="matrix(0.32927893,0,0,0.32927893,-14.766036,-6.8416966)">
      <path
         style="opacity:1"
         fill="#d0e8f4"
         d="m 222.5,66.5 c 3,0.6667 6,1.3333 9,2 4.695,3.3309 9.695,6.3309 15,9 1.194,0.7719 2.194,1.7719 3,3 -2.027,0.1621 -4.027,-0.0045 -6,-0.5 -6.528,-5.5755 -13.528,-10.0755 -21,-13.5 z"
         id="path45" />
    </g>
    <g
       id="g46"
       style="clip-rule:evenodd;fill-rule:evenodd;image-rendering:optimizeQuality;shape-rendering:geometricPrecision;text-rendering:geometricPrecision"
       transform="matrix(0.32927893,0,0,0.32927893,-14.766036,-6.8416966)">
      <path
         style="opacity:1"
         fill="#cceaf5"
         d="m 175.5,60.5 c 8.673,-0.1664 17.34,2e-4 26,0.5 1.882,0.1981 3.548,0.6981 5,1.5 -10.319,-0.9341 -20.653,-1.1008 -31,-0.5 -12.732,3.7449 -25.398,7.5782 -38,11.5 1.249,-1.6361 2.916,-2.8028 5,-3.5 3.509,-1.7594 7.175,-2.926 11,-3.5 4.554,-0.8841 8.887,-2.2175 13,-4 0,-0.3333 0,-0.6667 0,-1 3.018,-0.2038 6.018,-0.5371 9,-1 z"
         id="path46" />
    </g>
    <g
       id="g47"
       style="clip-rule:evenodd;fill-rule:evenodd;image-rendering:optimizeQuality;shape-rendering:geometricPrecision;text-rendering:geometricPrecision"
       transform="matrix(0.32927893,0,0,0.32927893,-14.766036,-6.8416966)">
      <path
         style="opacity:1"
         fill="#98c5e3"
         d="m 166.5,62.5 c -4.113,1.7825 -8.446,3.1159 -13,4 3.903,-2.3978 8.236,-3.7311 13,-4 z"
         id="path47" />
    </g>
    <g
       id="g48"
       style="clip-rule:evenodd;fill-rule:evenodd;image-rendering:optimizeQuality;shape-rendering:geometricPrecision;text-rendering:geometricPrecision"
       transform="matrix(0.32927893,0,0,0.32927893,-14.766036,-6.8416966)">
      <path
         style="opacity:1"
         fill="#1b66ad"
         d="m 246.5,77.5 c -5.305,-2.6691 -10.305,-5.6691 -15,-9 -3.541,-2.8091 -7.541,-4.9758 -12,-6.5 0.916,-0.3742 1.75,-0.8742 2.5,-1.5 1.913,1.6869 4.08,2.1869 6.5,1.5 -1.771,-0.5354 -2.104,-1.3687 -1,-2.5 5.024,2.7302 10.357,4.5635 16,5.5 3.741,2.7323 7.741,5.0657 12,7 1.333,1 1.333,2 0,3 2.215,0.3876 3.548,1.3876 4,3 -1.438,0.2189 -2.771,0.7189 -4,1.5 0.438,1.0063 1.104,1.0063 2,0 1.083,0.865 1.249,1.865 0.5,3 -2.882,-0.8578 -5.382,-2.3578 -7.5,-4.5 -1.293,-0.49 -2.627,-0.6567 -4,-0.5 z"
         id="path48" />
    </g>
    <g
       id="g49"
       style="clip-rule:evenodd;fill-rule:evenodd;image-rendering:optimizeQuality;shape-rendering:geometricPrecision;text-rendering:geometricPrecision"
       transform="matrix(0.32927893,0,0,0.32927893,-14.766036,-6.8416966)">
      <path
         style="opacity:1"
         fill="#3b72a3"
         d="m 175.5,60.5 c 10.487,-0.9944 21.154,-1.3278 32,-1 3.127,0.7323 6.294,1.7323 9.5,3 1.31,0.6301 2.144,1.6301 2.5,3 -4.218,-1.471 -8.551,-2.471 -13,-3 -1.452,-0.8019 -3.118,-1.3019 -5,-1.5 -8.66,-0.4998 -17.327,-0.6664 -26,-0.5 z"
         id="path49" />
    </g>
    <g
       id="g50"
       style="clip-rule:evenodd;fill-rule:evenodd;image-rendering:optimizeQuality;shape-rendering:geometricPrecision;text-rendering:geometricPrecision"
       transform="matrix(0.32927893,0,0,0.32927893,-14.766036,-6.8416966)">
      <path
         style="opacity:1"
         fill="#1865ac"
         d="m 207.5,59.5 c -10.846,-0.3278 -21.513,0.0056 -32,1 -2.982,0.4629 -5.982,0.7962 -9,1 -10.015,0.951 -19.515,3.6176 -28.5,8 -0.333,-0.3333 -0.667,-0.6667 -1,-1 -6.215,4.3135 -12.215,8.3135 -18,12 -0.75,-0.6258 -1.584,-1.1258 -2.5,-1.5 3.165,-2.5765 5.832,-5.5765 8,-9 2.509,-1.4213 4.843,-3.0879 7,-5 5.38,-2.3502 10.88,-4.1836 16.5,-5.5 2.414,0.9279 4.914,0.7612 7.5,-0.5 1.374,-3.4101 2.041,-3.2434 2,0.5 3.098,0.0875 3.432,-0.4125 1,-1.5 2.671,-1.5437 5.504,-2.7103 8.5,-3.5 1.545,1.3213 2.711,0.9879 3.5,-1 7.105,0.1725 13.771,-0.1609 20,-1 2.426,-0.0965 4.593,0.5702 6.5,2 3.755,0.0927 7.422,-0.2406 11,-1 1.441,1.37 3.108,2.37 5,3 0.333,-0.6667 0.667,-1.3333 1,-2 1.399,0.7266 2.899,1.2266 4.5,1.5 -1.291,2.0902 -0.624,3.4236 2,4 -3.404,0.2209 -6.738,-0.2791 -10,-1.5 -0.917,0.6272 -1.917,0.9606 -3,1 z"
         id="path50" />
    </g>
    <g
       id="g53"
       style="clip-rule:evenodd;fill-rule:evenodd;image-rendering:optimizeQuality;shape-rendering:geometricPrecision;text-rendering:geometricPrecision"
       transform="matrix(0.32927893,0,0,0.32927893,-14.766036,-6.8416966)">
      <path
         style="opacity:1"
         fill="#d1eaf5"
         d="m 137.5,73.5 c -5.006,4.7012 -10.339,9.2012 -16,13.5 -1.746,0.4709 -3.413,1.1376 -5,2 -2.271,2.7821 -4.937,4.9488 -8,6.5 8.042,-9.5161 17.709,-16.8494 29,-22 z"
         id="path53" />
    </g>
    <g
       id="g66"
       style="clip-rule:evenodd;fill-rule:evenodd;image-rendering:optimizeQuality;shape-rendering:geometricPrecision;text-rendering:geometricPrecision"
       transform="matrix(0.32927893,0,0,0.32927893,-14.766036,-6.8416966)">
      <path
         style="opacity:1"
         fill="#cde7f5"
         d="m 123.5,67.5 c -10.262,7.5926 -19.595,16.2592 -28,26 -2.8229,2.9751 -5.1563,6.3084 -7,10 -0.3333,0 -0.6667,0 -1,0 1.0536,-3.7729 2.387,-7.4395 4,-11 1,0 2,0 3,0 0,-1 0,-2 0,-3 1,0 2,0 3,0 -0.1964,-4.1414 1.8036,-6.4748 6,-7 1.43,-1.886 3.097,-3.5527 5,-5 0.886,-0.825 1.219,-1.825 1,-3 3.717,-1.0274 7.05,-2.8607 10,-5.5 -0.333,-0.3333 -0.667,-0.6667 -1,-1 1.634,-0.4935 3.301,-0.6602 5,-0.5 z"
         id="path66" />
    </g>
    <g
       id="g81"
       style="clip-rule:evenodd;fill-rule:evenodd;image-rendering:optimizeQuality;shape-rendering:geometricPrecision;text-rendering:geometricPrecision"
       transform="matrix(0.32927893,0,0,0.32927893,-14.766036,-6.8416966)">
      <path
         style="opacity:1"
         fill="#dbeff7"
         d="m 277.5,89.5 c 1.679,0.3923 3.346,0.8923 5,1.5 7.66,10.365 14.16,21.532 19.5,33.5 1.955,7.546 3.121,15.213 3.5,23 -1.126,-2.965 -2.126,-5.965 -3,-9 0,-0.333 0,-0.667 0,-1 -4.662,-17.993 -12.995,-33.993 -25,-48 z"
         id="path81" />
    </g>
    <g
       id="g82"
       style="clip-rule:evenodd;fill-rule:evenodd;image-rendering:optimizeQuality;shape-rendering:geometricPrecision;text-rendering:geometricPrecision"
       transform="matrix(0.32927893,0,0,0.32927893,-14.766036,-6.8416966)">
      <path
         style="opacity:1"
         fill="#d0eaf5"
         d="m 87.5,103.5 c -5.01,9.682 -9.6767,19.348 -14,29 2.1867,-8.209 4.6867,-16.209 7.5,-24 1.5579,-2.521 3.7245,-4.188 6.5,-5 z"
         id="path82" />
    </g>
    <g
       id="g90"
       style="clip-rule:evenodd;fill-rule:evenodd;image-rendering:optimizeQuality;shape-rendering:geometricPrecision;text-rendering:geometricPrecision"
       transform="matrix(0.32927893,0,0,0.32927893,-14.766036,-6.8416966)">
      <path
         style="opacity:1"
         fill="#2266a1"
         d="m 190.5,110.5 c 3.585,5.502 6.919,11.169 10,17 2.266,3.534 4.266,7.2 6,11 -2.149,-1.546 -4.316,-3.212 -6.5,-5 -1.221,-4.424 -3.887,-6.09 -8,-5 -0.749,-1.135 -0.583,-2.135 0.5,-3 1.109,1.09 2.109,1.09 3,0 -1.818,-3.636 -3.651,-7.302 -5.5,-11 -1.011,-0.837 -2.178,-1.17 -3.5,-1 0.117,1.984 -0.55,3.65 -2,5 1.029,-0.204 2.029,0.296 3,1.5 -1.578,1.14 -3.244,1.64 -5,1.5 -0.401,1.934 -1.401,3.434 -3,4.5 0.667,0.333 1.333,0.667 2,1 -1.544,0.29 -2.877,0.956 -4,2 0.333,0.333 0.667,0.667 1,1 -1.473,0.71 -2.14,1.876 -2,3.5 -1.622,0.622 -2.955,1.622 -4,3 -1.308,2.964 -3.308,5.297 -6,7 5.544,-10.888 11.544,-21.555 18,-32 1.896,-0.966 3.896,-1.299 6,-1 z"
         id="path90" />
    </g>
    <g
       id="g95"
       style="clip-rule:evenodd;fill-rule:evenodd;image-rendering:optimizeQuality;shape-rendering:geometricPrecision;text-rendering:geometricPrecision"
       transform="matrix(0.32927893,0,0,0.32927893,-14.766036,-6.8416966)">
      <path
         style="opacity:1"
         fill="#256095"
         d="m 87.5,103.5 c 0.3333,0 0.6667,0 1,0 -0.0116,3.188 -1.0116,6.022 -3,8.5 1.0846,4.366 -0.4154,6.866 -4.5,7.5 -6.9712,16.564 -10.4712,33.897 -10.5,52 1.0083,10.382 2.3416,20.715 4,31 -4.4133,-13.183 -6.08,-26.849 -5,-41 0.77,-9.724 2.1033,-19.39 4,-29 4.3233,-9.652 8.99,-19.318 14,-29 z"
         id="path95" />
    </g>
    <g
       id="g96"
       style="clip-rule:evenodd;fill-rule:evenodd;image-rendering:optimizeQuality;shape-rendering:geometricPrecision;text-rendering:geometricPrecision"
       transform="matrix(0.32927893,0,0,0.32927893,-14.766036,-6.8416966)">
      <path
         style="opacity:1"
         fill="#d9eef6"
         d="m 275.5,106.5 c 1,0.667 2,1.333 3,2 6.356,11.05 11.356,22.717 15,35 0,1 0,2 0,3 -5.792,-7.559 -9.292,-15.893 -10.5,-25 -3.745,-4.416 -6.245,-9.416 -7.5,-15 z"
         id="path96" />
    </g>
    <g
       id="g98"
       style="clip-rule:evenodd;fill-rule:evenodd;image-rendering:optimizeQuality;shape-rendering:geometricPrecision;text-rendering:geometricPrecision"
       transform="matrix(0.32927893,0,0,0.32927893,-14.766036,-6.8416966)">
      <path
         style="opacity:1"
         fill="#cde8f5"
         d="m 190.5,110.5 c -2.104,-0.299 -4.104,0.034 -6,1 -6.456,10.445 -12.456,21.112 -18,32 -3.667,5.333 -7.333,10.667 -11,16 -0.157,-1.373 0.01,-2.707 0.5,-4 4.092,-4.523 7.425,-9.523 10,-15 0.822,-2.288 1.489,-4.622 2,-7 3.815,-4.287 7.148,-8.953 10,-14 0.287,-2.391 0.787,-4.724 1.5,-7 1.189,-0.929 2.522,-1.262 4,-1 0,-1 0,-2 0,-3 2.888,-0.51 5.221,0.156 7,2 z"
         id="path98" />
    </g>
    <g
       id="g102"
       style="clip-rule:evenodd;fill-rule:evenodd;image-rendering:optimizeQuality;shape-rendering:geometricPrecision;text-rendering:geometricPrecision"
       transform="matrix(0.32927893,0,0,0.32927893,-14.766036,-6.8416966)">
      <path
         style="opacity:1"
         fill="#1064b4"
         d="m 172.5,136.5 c 1.045,-1.378 2.378,-2.378 4,-3 0.923,-0.803 1.923,-0.97 3,-0.5 -1.063,1.188 -2.397,1.688 -4,1.5 -0.353,2.135 0.48,3.468 2.5,4 1.672,-1.005 3.005,-2.339 4,-4 1.733,2.117 3.9,3.617 6.5,4.5 -0.333,0.333 -0.667,0.667 -1,1 2.5,0.833 2.667,2 0.5,3.5 -0.308,-0.808 -0.808,-1.475 -1.5,-2 -0.925,1.141 -1.759,1.141 -2.5,0 -2.238,3.265 -1.404,5.265 2.5,6 -0.16,1.699 0.006,3.366 0.5,5 0.317,-1.801 0.984,-2.134 2,-1 0.309,-1.266 0.809,-2.433 1.5,-3.5 -1.196,-0.654 -1.196,-1.154 0,-1.5 0.751,0.876 1.251,1.876 1.5,3 0.739,-1.721 1.573,-3.387 2.5,-5 0.667,1 1.333,2 2,3 1,-1.333 2,-1.333 3,0 1.261,-1.953 2.427,-3.953 3.5,-6 2.709,1.324 3.042,2.99 1,5 -0.333,-0.333 -0.667,-0.667 -1,-1 -0.333,1.333 -0.667,2.667 -1,4 -2.865,-0.541 -4.865,0.793 -6,4 -0.914,-1.154 -1.747,-0.987 -2.5,0.5 1.333,0.333 2.667,0.667 4,1 -1.333,0.667 -1.333,1.333 0,2 -1.756,0.14 -3.422,-0.36 -5,-1.5 -0.586,0.209 -1.086,0.543 -1.5,1 -0.7,-1.532 -1.866,-2.532 -3.5,-3 -0.411,0.762 -0.577,1.762 -0.5,3 -1.067,-0.691 -2.234,-1.191 -3.5,-1.5 0.667,-0.333 1.333,-0.667 2,-1 -2.605,-1.021 -5.272,-1.855 -8,-2.5 -1,0.333 -1.667,1 -2,2 0.774,1.211 1.607,1.211 2.5,0 2.261,1.272 2.761,2.938 1.5,5 -2.778,-2.807 -6.111,-3.64 -10,-2.5 2.164,0.37 4.164,1.204 6,2.5 -2.234,1.881 -3.567,4.215 -4,7 -2.666,-0.434 -3.833,0.566 -3.5,3 1.229,-2.447 2.729,-2.613 4.5,-0.5 -0.626,0.75 -1.126,1.584 -1.5,2.5 -0.333,-0.333 -0.667,-0.667 -1,-1 -1.368,1.493 -1.535,2.993 -0.5,4.5 -0.753,1.487 -1.586,1.654 -2.5,0.5 -0.483,0.948 -0.649,1.948 -0.5,3 -1.701,-0.466 -3.201,-0.466 -4.5,0 -2.105,-2.511 -1.938,-4.844 0.5,-7 0.586,0.209 1.086,0.543 1.5,1 -0.148,-1.325 0.018,-2.492 0.5,-3.5 -0.949,-0.617 -1.782,-0.451 -2.5,0.5 -0.833,-1.5 -2,-2.667 -3.5,-3.5 1.009,-2.172 2.676,-3.338 5,-3.5 -0.219,1.175 0.114,2.175 1,3 1.804,-1.216 3.471,-2.216 5,-3 -1,-2.667 -2,-2.667 -3,0 -1.196,-0.346 -1.196,-0.846 0,-1.5 -3.674,-0.288 -4.507,-1.788 -2.5,-4.5 0.427,2.993 1.594,3.493 3.5,1.5 -0.928,-0.388 -1.595,-1.055 -2,-2 0.621,-3.186 1.288,-6.352 2,-9.5 2.512,-1.295 5.179,-1.961 8,-2 -0.466,-1.701 -0.466,-3.201 0,-4.5 -1.442,-0.377 -2.442,-1.21 -3,-2.5 z"
         id="path102" />
    </g>
    <g
       id="g108"
       style="clip-rule:evenodd;fill-rule:evenodd;image-rendering:optimizeQuality;shape-rendering:geometricPrecision;text-rendering:geometricPrecision"
       transform="matrix(0.32927893,0,0,0.32927893,-14.766036,-6.8416966)">
      <path
         style="opacity:1"
         fill="#d5eff7"
         d="m 200.5,127.5 c 3.262,1.035 5.762,3.035 7.5,6 5.038,12.413 11.372,24.08 19,35 0.813,1.936 1.313,3.936 1.5,6 -7.73,-11.736 -15.064,-23.736 -22,-36 -1.734,-3.8 -3.734,-7.466 -6,-11 z"
         id="path108" />
    </g>
    <g
       id="g109"
       style="clip-rule:evenodd;fill-rule:evenodd;image-rendering:optimizeQuality;shape-rendering:geometricPrecision;text-rendering:geometricPrecision"
       transform="matrix(0.32927893,0,0,0.32927893,-14.766036,-6.8416966)">
      <path
         style="opacity:1"
         fill="#1368b3"
         d="m 206.5,138.5 c 1.125,5.92 3.625,11.253 7.5,16 0.005,2.729 1.171,4.729 3.5,6 5.063,8.132 9.563,16.465 13.5,25 1.412,2.186 3.245,3.852 5.5,5 2.045,5.14 3.712,10.473 5,16 -5.64,0.419 -10.473,-1.247 -14.5,-5 -2.718,0.513 -5.551,0.513 -8.5,0 -6.442,-2.055 -12.775,-4.388 -19,-7 -3.708,-1.556 -7.542,-2.89 -11.5,-4 -4.452,1.475 -8.952,2.808 -13.5,4 -0.617,-0.111 -1.117,-0.444 -1.5,-1 -8.443,3.307 -16.943,6.307 -25.5,9 -2.528,-0.998 -2.528,-1.831 0,-2.5 -1.333,-0.667 -1.333,-1.333 0,-2 -2.225,-0.561 -4.225,-1.561 -6,-3 1.26,-1.113 2.427,-1.28 3.5,-0.5 0.595,-1.399 0.428,-2.732 -0.5,-4 2.089,-2.095 2.089,-3.928 0,-5.5 6.608,-11.376 13.108,-22.876 19.5,-34.5 0.847,-2.354 1.68,-4.688 2.5,-7 2.692,-1.703 4.692,-4.036 6,-7 0.558,1.29 1.558,2.123 3,2.5 -0.466,1.299 -0.466,2.799 0,4.5 -2.821,0.039 -5.488,0.705 -8,2 -0.712,3.148 -1.379,6.314 -2,9.5 0.405,0.945 1.072,1.612 2,2 -1.906,1.993 -3.073,1.493 -3.5,-1.5 -2.007,2.712 -1.174,4.212 2.5,4.5 -1.196,0.654 -1.196,1.154 0,1.5 1,-2.667 2,-2.667 3,0 -1.529,0.784 -3.196,1.784 -5,3 -0.886,-0.825 -1.219,-1.825 -1,-3 -2.324,0.162 -3.991,1.328 -5,3.5 1.5,0.833 2.667,2 3.5,3.5 0.718,-0.951 1.551,-1.117 2.5,-0.5 -0.482,1.008 -0.648,2.175 -0.5,3.5 -0.414,-0.457 -0.914,-0.791 -1.5,-1 -2.438,2.156 -2.605,4.489 -0.5,7 1.299,-0.466 2.799,-0.466 4.5,0 -0.149,-1.052 0.017,-2.052 0.5,-3 0.914,1.154 1.747,0.987 2.5,-0.5 -1.035,-1.507 -0.868,-3.007 0.5,-4.5 0.333,0.333 0.667,0.667 1,1 0.374,-0.916 0.874,-1.75 1.5,-2.5 -1.771,-2.113 -3.271,-1.947 -4.5,0.5 -0.333,-2.434 0.834,-3.434 3.5,-3 0.433,-2.785 1.766,-5.119 4,-7 -1.836,-1.296 -3.836,-2.13 -6,-2.5 3.889,-1.14 7.222,-0.307 10,2.5 1.261,-2.062 0.761,-3.728 -1.5,-5 -0.893,1.211 -1.726,1.211 -2.5,0 0.333,-1 1,-1.667 2,-2 2.728,0.645 5.395,1.479 8,2.5 -0.667,0.333 -1.333,0.667 -2,1 1.266,0.309 2.433,0.809 3.5,1.5 -0.077,-1.238 0.089,-2.238 0.5,-3 1.634,0.468 2.8,1.468 3.5,3 0.414,-0.457 0.914,-0.791 1.5,-1 1.578,1.14 3.244,1.64 5,1.5 -1.333,-0.667 -1.333,-1.333 0,-2 -1.333,-0.333 -2.667,-0.667 -4,-1 0.753,-1.487 1.586,-1.654 2.5,-0.5 1.135,-3.207 3.135,-4.541 6,-4 0.333,-1.333 0.667,-2.667 1,-4 0.333,0.333 0.667,0.667 1,1 2.042,-2.01 1.709,-3.676 -1,-5 -1.073,2.047 -2.239,4.047 -3.5,6 -1,-1.333 -2,-1.333 -3,0 -0.667,-1 -1.333,-2 -2,-3 -0.927,1.613 -1.761,3.279 -2.5,5 -0.249,-1.124 -0.749,-2.124 -1.5,-3 -1.196,0.346 -1.196,0.846 0,1.5 -0.691,1.067 -1.191,2.234 -1.5,3.5 -1.016,-1.134 -1.683,-0.801 -2,1 -0.494,-1.634 -0.66,-3.301 -0.5,-5 -3.904,-0.735 -4.738,-2.735 -2.5,-6 0.741,1.141 1.575,1.141 2.5,0 0.692,0.525 1.192,1.192 1.5,2 2.167,-1.5 2,-2.667 -0.5,-3.5 0.333,-0.333 0.667,-0.667 1,-1 -2.6,-0.883 -4.767,-2.383 -6.5,-4.5 -0.995,1.661 -2.328,2.995 -4,4 -2.02,-0.532 -2.853,-1.865 -2.5,-4 1.603,0.188 2.937,-0.312 4,-1.5 -1.077,-0.47 -2.077,-0.303 -3,0.5 -0.14,-1.624 0.527,-2.79 2,-3.5 -0.333,-0.333 -0.667,-0.667 -1,-1 1.123,-1.044 2.456,-1.71 4,-2 -0.667,-0.333 -1.333,-0.667 -2,-1 1.599,-1.066 2.599,-2.566 3,-4.5 1.756,0.14 3.422,-0.36 5,-1.5 -0.971,-1.204 -1.971,-1.704 -3,-1.5 1.45,-1.35 2.117,-3.016 2,-5 1.322,-0.17 2.489,0.163 3.5,1 1.849,3.698 3.682,7.364 5.5,11 -0.891,1.09 -1.891,1.09 -3,0 -1.083,0.865 -1.249,1.865 -0.5,3 4.113,-1.09 6.779,0.576 8,5 2.184,1.788 4.351,3.454 6.5,5 z"
         id="path109" />
    </g>
    <g
       id="g110"
       style="clip-rule:evenodd;fill-rule:evenodd;image-rendering:optimizeQuality;shape-rendering:geometricPrecision;text-rendering:geometricPrecision"
       transform="matrix(0.32927893,0,0,0.32927893,-14.766036,-6.8416966)">
      <path
         style="opacity:1"
         fill="#c6e4f5"
         d="m 73.5,132.5 c -1.8967,9.61 -3.23,19.276 -4,29 -0.9912,6.813 -1.3245,13.813 -1,21 -1.1569,-8.49 -1.3236,-17.157 -0.5,-26 0.887,-6.644 1.5537,-13.311 2,-20 1.0319,-1.527 2.1986,-2.86 3.5,-4 z"
         id="path110" />
    </g>
    <g
       id="g111"
       style="clip-rule:evenodd;fill-rule:evenodd;image-rendering:optimizeQuality;shape-rendering:geometricPrecision;text-rendering:geometricPrecision"
       transform="matrix(0.32927893,0,0,0.32927893,-14.766036,-6.8416966)">
      <path
         style="opacity:1"
         fill="#c7e5f4"
         d="m 86.5,131.5 c 0.1646,3.018 -0.002,6.018 -0.5,9 -0.0976,2.119 -0.9309,3.786 -2.5,5 -2.2328,14.954 -2.5661,29.954 -1,45 -1.4891,-3.736 -2.1558,-7.736 -2,-12 -0.1656,-10.024 0.1677,-20.024 1,-30 0.7971,-6.033 2.4637,-11.7 5,-17 z"
         id="path111" />
    </g>
    <g
       id="g113"
       style="clip-rule:evenodd;fill-rule:evenodd;image-rendering:optimizeQuality;shape-rendering:geometricPrecision;text-rendering:geometricPrecision"
       transform="matrix(0.32927893,0,0,0.32927893,-14.766036,-6.8416966)">
      <path
         style="opacity:1"
         fill="#7ca8ca"
         d="m 81.5,148.5 c -0.8323,9.976 -1.1656,19.976 -1,30 -1.1569,-8.49 -1.3236,-17.157 -0.5,-26 0.21,-1.558 0.71,-2.891 1.5,-4 z"
         id="path113" />
    </g>
    <g
       id="g115"
       style="clip-rule:evenodd;fill-rule:evenodd;image-rendering:optimizeQuality;shape-rendering:geometricPrecision;text-rendering:geometricPrecision"
       transform="matrix(0.32927893,0,0,0.32927893,-14.766036,-6.8416966)">
      <path
         style="opacity:1"
         fill="#1965aa"
         d="m 302.5,137.5 c 0,0.333 0,0.667 0,1 1.485,12.316 2.318,24.649 2.5,37 -0.333,-0.667 -0.667,-1.333 -1,-2 -0.911,2.811 -1.744,5.644 -2.5,8.5 -0.094,2.165 0.24,4.165 1,6 -0.667,0.667 -1.333,1.333 -2,2 0.399,2.602 0.399,5.102 0,7.5 -1.348,4.022 -2.681,8.022 -4,12 -1.478,-0.262 -2.811,0.071 -4,1 0.346,1.196 0.846,1.196 1.5,0 1.241,1.377 1.408,2.71 0.5,4 -1.148,-1.85 -2.481,-2.517 -4,-2 1.558,-5.236 3.558,-9.736 6,-13.5 -0.705,-1.422 -1.039,-2.755 -1,-4 0.917,-5.317 1.917,-10.65 3,-16 -0.631,-10.185 -1.464,-20.351 -2.5,-30.5 -0.374,-1.991 -1.207,-3.658 -2.5,-5 -3.644,-12.283 -8.644,-23.95 -15,-35 -2.95,-5.453 -6.117,-10.7863 -9.5,-16 -2.925,-3.1947 -6.092,-6.028 -9.5,-8.5 1,-0.5 2,-1 3,-1.5 -0.516,1.2582 0.15,2.2582 2,3 1.657,-2.0794 3.657,-2.246 6,-0.5 3.959,4.1131 7.792,8.2798 11.5,12.5 2.484,3.631 4.65,7.964 6.5,13 3.41,2.819 5.243,6.486 5.5,11 2.799,5.557 5.632,10.89 8.5,16 z"
         id="path115" />
    </g>
    <g
       id="g116"
       style="clip-rule:evenodd;fill-rule:evenodd;image-rendering:optimizeQuality;shape-rendering:geometricPrecision;text-rendering:geometricPrecision"
       transform="matrix(0.32927893,0,0,0.32927893,-14.766036,-6.8416966)">
      <path
         style="opacity:1"
         fill="#2d699e"
         d="m 206.5,138.5 c 6.936,12.264 14.27,24.264 22,36 2.216,5.552 4.882,10.885 8,16 -2.255,-1.148 -4.088,-2.814 -5.5,-5 -3.937,-8.535 -8.437,-16.868 -13.5,-25 -2.329,-1.271 -3.495,-3.271 -3.5,-6 -3.875,-4.747 -6.375,-10.08 -7.5,-16 z"
         id="path116" />
    </g>
    <g
       id="g117"
       style="clip-rule:evenodd;fill-rule:evenodd;image-rendering:optimizeQuality;shape-rendering:geometricPrecision;text-rendering:geometricPrecision"
       transform="matrix(0.32927893,0,0,0.32927893,-14.766036,-6.8416966)">
      <path
         style="opacity:1"
         fill="#8db7d6"
         d="m 305.5,148.5 c 1.711,4.381 2.377,9.047 2,14 0.321,5.195 -0.013,10.195 -1,15 0.078,-9.685 -0.255,-19.352 -1,-29 z"
         id="path117" />
    </g>
    <g
       id="g120"
       style="clip-rule:evenodd;fill-rule:evenodd;image-rendering:optimizeQuality;shape-rendering:geometricPrecision;text-rendering:geometricPrecision"
       transform="matrix(0.32927893,0,0,0.32927893,-14.766036,-6.8416966)">
      <path
         style="opacity:1"
         fill="#d7eef6"
         d="m 155.5,159.5 c -7.772,14.943 -15.772,29.777 -24,44.5 0.44,2.94 2.107,4.774 5,5.5 4.533,-2.066 9.199,-3.733 14,-5 -4.102,3.044 -8.769,5.044 -14,6 -6.786,-0.891 -8.786,-4.558 -6,-11 4.513,-6.688 8.18,-13.854 11,-21.5 4.978,-6.116 9.644,-12.282 14,-18.5 z"
         id="path120" />
    </g>
    <g
       id="g152"
       style="clip-rule:evenodd;fill-rule:evenodd;image-rendering:optimizeQuality;shape-rendering:geometricPrecision;text-rendering:geometricPrecision"
       transform="matrix(0.32927893,0,0,0.32927893,-14.766036,-6.8416966)">
      <path
         style="opacity:1"
         fill="#96bddc"
         d="m 69.5,161.5 c -1.08,14.151 0.5867,27.817 5,41 0.4926,2.306 0.8259,4.639 1,7 -0.6174,-0.111 -1.1174,-0.444 -1.5,-1 -2.7111,-8.475 -4.5445,-17.142 -5.5,-26 -0.3245,-7.187 0.0088,-14.187 1,-21 z"
         id="path152" />
    </g>
    <g
       id="g153"
       style="clip-rule:evenodd;fill-rule:evenodd;image-rendering:optimizeQuality;shape-rendering:geometricPrecision;text-rendering:geometricPrecision"
       transform="matrix(0.32927893,0,0,0.32927893,-14.766036,-6.8416966)">
      <path
         style="opacity:1"
         fill="#1867ac"
         d="m 99.5,105.5 c -4.2682,6.872 -8.2682,13.872 -12,21 -1.5968,1.237 -2.7635,2.904 -3.5,5 -8.1729,23.585 -8.5062,47.251 -1,71 0.876,2.258 2.0427,4.258 3.5,6 3.6631,6.659 7.3298,13.326 11,20 0.8487,2.535 1.8487,5.035 3,7.5 -0.145,0.772 -0.478,1.439 -1,2 1.201,0.903 2.035,2.069 2.5,3.5 1.364,-0.758 2.531,-0.258 3.5,1.5 -1.467,1.098 -2.301,2.598 -2.5,4.5 -2.667,-4 -6,-7.333 -10,-10 -1.3615,-4.071 -3.6948,-7.405 -7,-10 -1.1702,-4.264 -3.0035,-8.097 -5.5,-11.5 -1.1749,-5.086 -3.1749,-9.586 -6,-13.5 -1.6584,-10.285 -2.9917,-20.618 -4,-31 0.0288,-18.103 3.5288,-35.436 10.5,-52 4.0846,-0.634 5.5846,-3.134 4.5,-7.5 1.9884,-2.478 2.9884,-5.312 3,-8.5 1.8437,-3.6916 4.1771,-7.0249 7,-10 0.6174,0.1107 1.1174,0.444 1.5,1 3.298,-4.2998 6.965,-8.2998 11,-12 1.154,2.4574 2.488,2.4574 4,0 0.75,0.6258 1.584,1.1258 2.5,1.5 -1.458,2.46 -3.291,4.6266 -5.5,6.5 -0.483,0.948 -0.649,1.948 -0.5,3 -1.644,0.2135 -3.144,-0.1198 -4.5,-1 0.227,2.188 -0.106,4.5213 -1,7 -1.011,0.837 -2.178,1.17 -3.5,1 0,1.667 0,3.333 0,5 z"
         id="path153" />
    </g>
    <g
       id="g155"
       style="clip-rule:evenodd;fill-rule:evenodd;image-rendering:optimizeQuality;shape-rendering:geometricPrecision;text-rendering:geometricPrecision"
       transform="matrix(0.32927893,0,0,0.32927893,-14.766036,-6.8416966)">
      <path
         style="opacity:1"
         fill="#276398"
         d="m 87.5,126.5 c -0.1287,1.716 -0.462,3.383 -1,5 -2.5363,5.3 -4.2029,10.967 -5,17 -0.79,1.109 -1.29,2.442 -1.5,4 -0.8236,8.843 -0.6569,17.51 0.5,26 -0.1558,4.264 0.5109,8.264 2,12 1.1293,6.052 2.4626,12.052 4,18 -1.4573,-1.742 -2.624,-3.742 -3.5,-6 -7.5062,-23.749 -7.1729,-47.415 1,-71 0.7365,-2.096 1.9032,-3.763 3.5,-5 z"
         id="path155" />
    </g>
    <g
       id="g170"
       style="clip-rule:evenodd;fill-rule:evenodd;image-rendering:optimizeQuality;shape-rendering:geometricPrecision;text-rendering:geometricPrecision"
       transform="matrix(0.32927893,0,0,0.32927893,-14.766036,-6.8416966)">
      <path
         style="opacity:1"
         fill="#2165a4"
         d="m 166.5,143.5 c -0.82,2.312 -1.653,4.646 -2.5,7 -6.392,11.624 -12.892,23.124 -19.5,34.5 2.089,1.572 2.089,3.405 0,5.5 0.928,1.268 1.095,2.601 0.5,4 -1.073,-0.78 -2.24,-0.613 -3.5,0.5 1.775,1.439 3.775,2.439 6,3 -1.333,0.667 -1.333,1.333 0,2 -2.528,0.669 -2.528,1.502 0,2.5 8.557,-2.693 17.057,-5.693 25.5,-9 0.383,0.556 0.883,0.889 1.5,1 -1.681,1.508 -3.681,2.508 -6,3 -4.436,0.914 -8.436,2.581 -12,5 -2.286,0.095 -4.286,0.762 -6,2 -4.801,1.267 -9.467,2.934 -14,5 -2.893,-0.726 -4.56,-2.56 -5,-5.5 8.228,-14.723 16.228,-29.557 24,-44.5 3.667,-5.333 7.333,-10.667 11,-16 z"
         id="path170" />
    </g>
    <g
       id="g171"
       style="clip-rule:evenodd;fill-rule:evenodd;image-rendering:optimizeQuality;shape-rendering:geometricPrecision;text-rendering:geometricPrecision"
       transform="matrix(0.32927893,0,0,0.32927893,-14.766036,-6.8416966)">
      <path
         style="opacity:1"
         fill="#daf0f7"
         d="m 293.5,146.5 c 6.88,34.812 -1.12,65.812 -24,93 -0.333,0 -0.667,0 -1,0 0,-1.333 0,-2.667 0,-4 1,0 2,0 3,0 5.002,-10.001 10.002,-20.001 15,-30 -0.209,-0.586 -0.543,-1.086 -1,-1.5 3.136,-5.361 4.969,-11.194 5.5,-17.5 0.333,2 0.667,4 1,6 1.359,-15.297 1.859,-30.631 1.5,-46 z"
         id="path171" />
    </g>
    <g
       id="g176"
       style="clip-rule:evenodd;fill-rule:evenodd;image-rendering:optimizeQuality;shape-rendering:geometricPrecision;text-rendering:geometricPrecision"
       transform="matrix(0.32927893,0,0,0.32927893,-14.766036,-6.8416966)">
      <path
         style="opacity:1"
         fill="#cbe7f5"
         d="m 199.5,194.5 c 6.225,2.612 12.558,4.945 19,7 0,0.333 0,0.667 0,1 -2.357,0.163 -4.69,-0.003 -7,-0.5 -2.606,-2.615 -5.772,-4.115 -9.5,-4.5 -1.31,-0.63 -2.144,-1.63 -2.5,-3 z"
         id="path176" />
    </g>
    <g
       id="g177"
       style="clip-rule:evenodd;fill-rule:evenodd;image-rendering:optimizeQuality;shape-rendering:geometricPrecision;text-rendering:geometricPrecision"
       transform="matrix(0.32927893,0,0,0.32927893,-14.766036,-6.8416966)">
      <path
         style="opacity:1"
         fill="#9ac3e1"
         d="m 168.5,197.5 c -3.564,2.419 -7.564,4.086 -12,5 3.564,-2.419 7.564,-4.086 12,-5 z"
         id="path177" />
    </g>
    <g
       id="g180"
       style="clip-rule:evenodd;fill-rule:evenodd;image-rendering:optimizeQuality;shape-rendering:geometricPrecision;text-rendering:geometricPrecision"
       transform="matrix(0.32927893,0,0,0.32927893,-14.766036,-6.8416966)">
      <path
         style="opacity:1"
         fill="#366a9b"
         d="m 236.5,190.5 c 2.304,3.158 4.47,6.491 6.5,10 2.168,6.479 0.001,9.312 -6.5,8.5 -5.67,-3.057 -11.67,-5.223 -18,-6.5 0,-0.333 0,-0.667 0,-1 2.949,0.513 5.782,0.513 8.5,0 4.027,3.753 8.86,5.419 14.5,5 -1.288,-5.527 -2.955,-10.86 -5,-16 z"
         id="path180" />
    </g>
    <g
       id="g184"
       style="clip-rule:evenodd;fill-rule:evenodd;image-rendering:optimizeQuality;shape-rendering:geometricPrecision;text-rendering:geometricPrecision"
       transform="matrix(0.32927893,0,0,0.32927893,-14.766036,-6.8416966)">
      <path
         style="opacity:1"
         fill="#2466a3"
         d="m 302.5,138.5 c 0.874,3.035 1.874,6.035 3,9 0,0.333 0,0.667 0,1 0.745,9.648 1.078,19.315 1,29 -2.162,20.487 -8.496,39.487 -19,57 -6.965,8.377 -14.298,16.543 -22,24.5 -2.217,1.723 -4.55,3.223 -7,4.5 -2.065,0.017 -4.065,0.35 -6,1 -1.213,-0.997 -1.046,-1.997 0.5,-3 3.818,0.896 6.151,-0.771 7,-5 0.333,0.333 0.667,0.667 1,1 1.242,-2.041 3.075,-3.207 5.5,-3.5 -0.808,-0.308 -1.475,-0.808 -2,-1.5 3.465,-2.049 6.465,-4.549 9,-7.5 5.77,-1.402 8.103,-4.902 7,-10.5 0.346,-1.196 0.846,-1.196 1.5,0 2.139,-2.54 4.139,-5.207 6,-8 0.851,-2.092 1.518,-4.092 2,-6 -3.209,1.578 -5.376,4.078 -6.5,7.5 -3.142,2.469 -6.309,4.969 -9.5,7.5 -0.45,2.606 -1.95,3.939 -4.5,4 22.88,-27.188 30.88,-58.188 24,-93 0,-1 0,-2 0,-3 1.293,1.342 2.126,3.009 2.5,5 1.036,10.149 1.869,20.315 2.5,30.5 -1.083,5.35 -2.083,10.683 -3,16 -0.039,1.245 0.295,2.578 1,4 -2.442,3.764 -4.442,8.264 -6,13.5 1.519,-0.517 2.852,0.15 4,2 0.908,-1.29 0.741,-2.623 -0.5,-4 -0.654,1.196 -1.154,1.196 -1.5,0 1.189,-0.929 2.522,-1.262 4,-1 1.319,-3.978 2.652,-7.978 4,-12 0.399,-2.398 0.399,-4.898 0,-7.5 0.667,-0.667 1.333,-1.333 2,-2 -0.76,-1.835 -1.094,-3.835 -1,-6 0.756,-2.856 1.589,-5.689 2.5,-8.5 0.333,0.667 0.667,1.333 1,2 -0.182,-12.351 -1.015,-24.684 -2.5,-37 z"
         id="path184" />
    </g>
    <g
       id="g185"
       style="clip-rule:evenodd;fill-rule:evenodd;image-rendering:optimizeQuality;shape-rendering:geometricPrecision;text-rendering:geometricPrecision"
       transform="matrix(0.32927893,0,0,0.32927893,-14.766036,-6.8416966)">
      <path
         style="opacity:1"
         fill="#d4ecf5"
         d="m 307.5,162.5 c 1.431,17.597 -0.903,34.764 -7,51.5 0.145,0.772 0.478,1.439 1,2 -2.879,4.638 -5.379,9.471 -7.5,14.5 -1.972,1.732 -4.139,3.065 -6.5,4 10.504,-17.513 16.838,-36.513 19,-57 0.987,-4.805 1.321,-9.805 1,-15 z"
         id="path185" />
    </g>
    <g
       id="g187"
       style="clip-rule:evenodd;fill-rule:evenodd;image-rendering:optimizeQuality;shape-rendering:geometricPrecision;text-rendering:geometricPrecision"
       transform="matrix(0.32927893,0,0,0.32927893,-14.766036,-6.8416966)">
      <path
         style="opacity:1"
         fill="#cfeaf5"
         d="m 82.5,190.5 c 5.0706,13.131 10.7373,26.131 17,39 -0.6667,-0.333 -1.3333,-0.667 -2,-1 -3.6702,-6.674 -7.3369,-13.341 -11,-20 -1.5374,-5.948 -2.8707,-11.948 -4,-18 z"
         id="path187" />
    </g>
    <g
       id="g194"
       style="clip-rule:evenodd;fill-rule:evenodd;image-rendering:optimizeQuality;shape-rendering:geometricPrecision;text-rendering:geometricPrecision"
       transform="matrix(0.32927893,0,0,0.32927893,-14.766036,-6.8416966)">
      <path
         style="opacity:1"
         fill="#2666a0"
         d="m 74.5,202.5 c 2.8251,3.914 4.8251,8.414 6,13.5 2.4965,3.403 4.3298,7.236 5.5,11.5 3.3052,2.595 5.6385,5.929 7,10 4,2.667 7.333,6 10,10 0.199,-1.902 1.033,-3.402 2.5,-4.5 -0.969,-1.758 -2.136,-2.258 -3.5,-1.5 -0.465,-1.431 -1.299,-2.597 -2.5,-3.5 0.522,-0.561 0.855,-1.228 1,-2 -1.1513,-2.465 -2.1513,-4.965 -3,-7.5 0.6667,0.333 1.3333,0.667 2,1 4.595,6.602 9.595,12.935 15,19 -1.322,-0.17 -2.489,0.163 -3.5,1 -2.125,-4.882 -4.292,-5.049 -6.5,-0.5 0.833,0.833 1.667,1.667 2.5,2.5 -0.077,-1.238 0.089,-2.238 0.5,-3 0.735,3.202 1.902,6.202 3.5,9 4.281,2.116 7.781,5.116 10.5,9 -1.109,-0.057 -2.109,-0.39 -3,-1 -19.6311,-14.627 -33.9644,-33.294 -43,-56 -0.1741,-2.361 -0.5074,-4.694 -1,-7 z"
         id="path194" />
    </g>
    <g
       id="g197"
       style="clip-rule:evenodd;fill-rule:evenodd;image-rendering:optimizeQuality;shape-rendering:geometricPrecision;text-rendering:geometricPrecision"
       transform="matrix(0.32927893,0,0,0.32927893,-14.766036,-6.8416966)">
      <path
         style="opacity:1"
         fill="#d7eff8"
         d="m 268.5,239.5 c -12.068,14.538 -27.068,24.872 -45,31 0.622,-1.835 1.956,-3.002 4,-3.5 3.258,-1.467 6.592,-2.633 10,-3.5 -0.219,-1.175 0.114,-2.175 1,-3 5.107,-1.72 9.774,-4.22 14,-7.5 -0.333,-0.333 -0.667,-0.667 -1,-1 2.287,-2.962 5.12,-5.129 8.5,-6.5 1.813,-2.261 3.313,-4.595 4.5,-7 1.459,-0.067 2.792,0.266 4,1 z"
         id="path197" />
    </g>
    <g
       id="g207"
       style="clip-rule:evenodd;fill-rule:evenodd;image-rendering:optimizeQuality;shape-rendering:geometricPrecision;text-rendering:geometricPrecision"
       transform="matrix(0.32927893,0,0,0.32927893,-14.766036,-6.8416966)">
      <path
         style="opacity:1"
         fill="#c7e6f3"
         d="m 123.5,254.5 c 5.765,1.534 10.432,4.534 14,9 -5.355,-2.006 -10.021,-5.006 -14,-9 z"
         id="path207" />
    </g>
    <g
       id="g209"
       style="clip-rule:evenodd;fill-rule:evenodd;image-rendering:optimizeQuality;shape-rendering:geometricPrecision;text-rendering:geometricPrecision"
       transform="matrix(0.32927893,0,0,0.32927893,-14.766036,-6.8416966)">
      <path
         style="opacity:1"
         fill="#1567b0"
         d="m 114.5,248.5 c -0.086,0.996 0.248,1.829 1,2.5 4.525,3.937 9.025,7.103 13.5,9.5 0.969,2.234 2.302,4.234 4,6 0.914,-1.154 1.747,-0.987 2.5,0.5 -1.134,1.016 -0.801,1.683 1,2 -5.158,0.144 -10.158,-0.689 -15,-2.5 -2.719,-3.884 -6.219,-6.884 -10.5,-9 -1.598,-2.798 -2.765,-5.798 -3.5,-9 -0.411,0.762 -0.577,1.762 -0.5,3 -0.833,-0.833 -1.667,-1.667 -2.5,-2.5 2.208,-4.549 4.375,-4.382 6.5,0.5 1.011,-0.837 2.178,-1.17 3.5,-1 z"
         id="path209" />
    </g>
    <g
       id="g212"
       style="clip-rule:evenodd;fill-rule:evenodd;image-rendering:optimizeQuality;shape-rendering:geometricPrecision;text-rendering:geometricPrecision"
       transform="matrix(0.32927893,0,0,0.32927893,-14.766036,-6.8416966)">
      <path
         style="opacity:1"
         fill="#1665ad"
         d="m 252.5,264.5 c -5.475,5.338 -11.975,9.338 -19.5,12 -0.333,-0.333 -0.667,-0.667 -1,-1 -5.157,3.886 -10.99,5.886 -17.5,6 -2.1,0.023 -3.933,-0.644 -5.5,-2 -2.543,0.99 -4.709,0.99 -6.5,0 5.731,-0.575 11.231,-1.909 16.5,-4 1.159,1.066 1.992,0.733 2.5,-1 7.296,-4.104 14.963,-7.771 23,-11 0.586,0.209 1.086,0.543 1.5,1 2.59,-3.259 5.756,-5.759 9.5,-7.5 3.167,-5.833 7.667,-10.333 13.5,-13.5 0.49,-1.293 0.657,-2.627 0.5,-4 2.55,-0.061 4.05,-1.394 4.5,-4 3.191,-2.531 6.358,-5.031 9.5,-7.5 1.124,-3.422 3.291,-5.922 6.5,-7.5 -0.482,1.908 -1.149,3.908 -2,6 -1.861,2.793 -3.861,5.46 -6,8 -0.654,-1.196 -1.154,-1.196 -1.5,0 1.103,5.598 -1.23,9.098 -7,10.5 -2.535,2.951 -5.535,5.451 -9,7.5 0.525,0.692 1.192,1.192 2,1.5 -2.425,0.293 -4.258,1.459 -5.5,3.5 -0.333,-0.333 -0.667,-0.667 -1,-1 -0.849,4.229 -3.182,5.896 -7,5 -1.546,1.003 -1.713,2.003 -0.5,3 z"
         id="path212" />
    </g>
    <g
       id="g214"
       style="clip-rule:evenodd;fill-rule:evenodd;image-rendering:optimizeQuality;shape-rendering:geometricPrecision;text-rendering:geometricPrecision"
       transform="matrix(0.32927893,0,0,0.32927893,-14.766036,-6.8416966)">
      <path
         style="opacity:1"
         fill="#2a6599"
         d="m 268.5,239.5 c 0.333,0 0.667,0 1,0 0.157,1.373 -0.01,2.707 -0.5,4 -5.833,3.167 -10.333,7.667 -13.5,13.5 -3.744,1.741 -6.91,4.241 -9.5,7.5 -0.414,-0.457 -0.914,-0.791 -1.5,-1 -8.037,3.229 -15.704,6.896 -23,11 -17.154,3.632 -34.487,4.799 -52,3.5 -2.52,-0.421 -4.52,-1.588 -6,-3.5 1,0 2,0 3,0 6.932,1.539 14.098,2.206 21.5,2 7.402,0.206 14.568,-0.461 21.5,-2 4.658,-0.589 8.991,-1.922 13,-4 0.333,0 0.667,0 1,0 17.932,-6.128 32.932,-16.462 45,-31 z"
         id="path214" />
    </g>
    <g
       id="g219"
       style="clip-rule:evenodd;fill-rule:evenodd;image-rendering:optimizeQuality;shape-rendering:geometricPrecision;text-rendering:geometricPrecision"
       transform="matrix(0.32927893,0,0,0.32927893,-14.766036,-6.8416966)">
      <path
         style="opacity:1"
         fill="#e0f3f7"
         d="m 137.5,263.5 c 8.665,1.584 16.999,4.251 25,8 7.717,0.764 15.383,1.764 23,3 12.335,-1.417 24.668,-2.75 37,-4 -4.009,2.078 -8.342,3.411 -13,4 -14.335,1.306 -28.668,1.306 -43,0 -1,0 -2,0 -3,0 -9.397,-2.126 -18.063,-5.793 -26,-11 z"
         id="path219" />
    </g>
    <g
       id="g222"
       style="clip-rule:evenodd;fill-rule:evenodd;image-rendering:optimizeQuality;shape-rendering:geometricPrecision;text-rendering:geometricPrecision"
       transform="matrix(0.32927893,0,0,0.32927893,-14.766036,-6.8416966)">
      <path
         style="opacity:1"
         fill="#ceeaf6"
         d="m 118.5,265.5 c 0.891,0.61 1.891,0.943 3,1 7.33,6.166 15.663,10.499 25,13 5.128,2.565 10.462,4.565 16,6 -5.27,-0.421 -10.437,-1.421 -15.5,-3 -8.117,-3.703 -16.283,-7.203 -24.5,-10.5 -1.585,-2.069 -2.919,-4.236 -4,-6.5 z"
         id="path222" />
    </g>
    <g
       id="g224"
       style="clip-rule:evenodd;fill-rule:evenodd;image-rendering:optimizeQuality;shape-rendering:geometricPrecision;text-rendering:geometricPrecision"
       transform="matrix(0.32927893,0,0,0.32927893,-14.766036,-6.8416966)">
      <path
         style="opacity:1"
         fill="#2a6599"
         d="m 258.5,263.5 c -7.567,6.225 -15.901,11.225 -25,15 -6.338,2.355 -12.671,4.355 -19,6 -6.847,0.686 -13.514,1.686 -20,3 -9.751,0.312 -19.418,-0.355 -29,-2 -1,0 -2,0 -3,0 -5.538,-1.435 -10.872,-3.435 -16,-6 7.429,1.084 14.762,2.584 22,4.5 10.971,1.376 21.971,1.709 33,1 0.626,-0.75 1.126,-1.584 1.5,-2.5 1.398,0.551 2.732,0.884 4,1 2.607,-0.623 5.107,-1.29 7.5,-2 6.51,-0.114 12.343,-2.114 17.5,-6 0.333,0.333 0.667,0.667 1,1 7.525,-2.662 14.025,-6.662 19.5,-12 1.935,-0.65 3.935,-0.983 6,-1 z"
         id="path224" />
    </g>
    <g
       id="g227"
       style="clip-rule:evenodd;fill-rule:evenodd;image-rendering:optimizeQuality;shape-rendering:geometricPrecision;text-rendering:geometricPrecision"
       transform="matrix(0.32927893,0,0,0.32927893,-14.766036,-6.8416966)">
      <path
         style="opacity:1"
         fill="#1c68ab"
         d="m 114.5,248.5 c 3.018,2.026 6.018,4.026 9,6 3.979,3.994 8.645,6.994 14,9 7.937,5.207 16.603,8.874 26,11 1.48,1.912 3.48,3.079 6,3.5 17.513,1.299 34.846,0.132 52,-3.5 -0.508,1.733 -1.341,2.066 -2.5,1 -5.269,2.091 -10.769,3.425 -16.5,4 1.791,0.99 3.957,0.99 6.5,0 1.567,1.356 3.4,2.023 5.5,2 -2.393,0.71 -4.893,1.377 -7.5,2 -1.268,-0.116 -2.602,-0.449 -4,-1 -0.374,0.916 -0.874,1.75 -1.5,2.5 -11.029,0.709 -22.029,0.376 -33,-1 -7.238,-1.916 -14.571,-3.416 -22,-4.5 -9.337,-2.501 -17.67,-6.834 -25,-13 4.842,1.811 9.842,2.644 15,2.5 -1.801,-0.317 -2.134,-0.984 -1,-2 -0.753,-1.487 -1.586,-1.654 -2.5,-0.5 -1.698,-1.766 -3.031,-3.766 -4,-6 -4.475,-2.397 -8.975,-5.563 -13.5,-9.5 -0.752,-0.671 -1.086,-1.504 -1,-2.5 z"
         id="path227" />
    </g>
    <g
       id="g228"
       style="clip-rule:evenodd;fill-rule:evenodd;image-rendering:optimizeQuality;shape-rendering:geometricPrecision;text-rendering:geometricPrecision"
       transform="matrix(0.32927893,0,0,0.32927893,-14.766036,-6.8416966)">
      <path
         style="opacity:1"
         fill="#b7dcf1"
         d="m 166.5,274.5 c 14.332,1.306 28.665,1.306 43,0 -6.932,1.539 -14.098,2.206 -21.5,2 -7.402,0.206 -14.568,-0.461 -21.5,-2 z"
         id="path228" />
    </g>
    <g
       id="g236"
       style="clip-rule:evenodd;fill-rule:evenodd;image-rendering:optimizeQuality;shape-rendering:geometricPrecision;text-rendering:geometricPrecision"
       transform="matrix(0.32927893,0,0,0.32927893,-14.766036,-6.8416966)">
      <path
         style="opacity:1"
         fill="#b5d9ee"
         d="m 165.5,285.5 c 9.582,1.645 19.249,2.312 29,2 -9.507,1.095 -19.174,1.095 -29,0 0,-0.667 0,-1.333 0,-2 z"
         id="path236" />
    </g>
    <g
       id="g237"
       style="clip-rule:evenodd;fill-rule:evenodd;image-rendering:optimizeQuality;shape-rendering:geometricPrecision;text-rendering:geometricPrecision"
       transform="matrix(0.32927893,0,0,0.32927893,-14.766036,-6.8416966)">
      <path
         style="opacity:1"
         fill="#90bbda"
         d="m 214.5,284.5 c -6.354,2.131 -13.021,3.131 -20,3 6.486,-1.314 13.153,-2.314 20,-3 z"
         id="path237" />
    </g>
    <g
       id="g244"
       style="clip-rule:evenodd;fill-rule:evenodd;image-rendering:optimizeQuality;shape-rendering:geometricPrecision;text-rendering:geometricPrecision"
       transform="matrix(0.32927893,0,0,0.32927893,-14.766036,-6.8416966)">
      <path
         style="opacity:1"
         fill="#e1f4f8"
         d="m 233.5,278.5 c -2.385,1.763 -5.052,3.263 -8,4.5 -7.588,2.384 -15.088,4.884 -22.5,7.5 -10.022,0.094 -20.188,-0.072 -30.5,-0.5 -2.427,-0.902 -4.76,-1.736 -7,-2.5 9.826,1.095 19.493,1.095 29,0 6.979,0.131 13.646,-0.869 20,-3 6.329,-1.645 12.662,-3.645 19,-6 z"
         id="path244" />
    </g>
  </g>
</svg>
