<?xml version="1.0" encoding="UTF-8" standalone="no"?>
<!-- Created with Inkscape (http://www.inkscape.org/) -->

<svg
   width="96mm"
   height="96mm"
   viewBox="0 0 96 96"
   version="1.1"
   id="svg1"
   inkscape:version="1.4.2 (ebf0e940, 2025-05-08)"
   sodipodi:docname="car.svg"
   xmlns:inkscape="http://www.inkscape.org/namespaces/inkscape"
   xmlns:sodipodi="http://sodipodi.sourceforge.net/DTD/sodipodi-0.dtd"
   xmlns="http://www.w3.org/2000/svg"
   xmlns:svg="http://www.w3.org/2000/svg">
  <sodipodi:namedview
     id="namedview1"
     pagecolor="#ffffff"
     bordercolor="#000000"
     borderopacity="0.25"
     inkscape:showpageshadow="2"
     inkscape:pageopacity="0.0"
     inkscape:pagecheckerboard="0"
     inkscape:deskcolor="#d1d1d1"
     inkscape:document-units="mm"
     inkscape:zoom="0.80444024"
     inkscape:cx="397.17059"
     inkscape:cy="262.91574"
     inkscape:window-width="1920"
     inkscape:window-height="1052"
     inkscape:window-x="0"
     inkscape:window-y="28"
     inkscape:window-maximized="0"
     inkscape:current-layer="layer1" />
  <defs
     id="defs1" />
  <g
     inkscape:label="Layer 1"
     inkscape:groupmode="layer"
     id="layer1">
    <g
       id="g3"
       style="clip-rule:evenodd;fill-rule:evenodd;image-rendering:optimizeQuality;shape-rendering:geometricPrecision;text-rendering:geometricPrecision"
       transform="matrix(0.3068288,0,0,0.3068288,-223.82066,-4.1068447)">
      <path
         style="opacity:1"
         fill="#d5eaf3"
         d="m 878.5,45.5 c 10.492,-1.1588 21.159,-1.3255 32,-0.5 6.96,1.4872 13.627,3.6539 20,6.5 1.027,2.0531 2.027,4.0531 3,6 -16.841,-10.1536 -35.174,-14.1536 -55,-12 z"
         id="path3" />
    </g>
    <g
       id="g8"
       style="clip-rule:evenodd;fill-rule:evenodd;image-rendering:optimizeQuality;shape-rendering:geometricPrecision;text-rendering:geometricPrecision"
       transform="matrix(0.3068288,0,0,0.3068288,-223.82066,-4.1068447)">
      <path
         style="opacity:1"
         fill="#bae0f0"
         d="m 940.5,78.5 c 1.078,2.9021 1.744,5.9021 2,9 -2.073,-2.5432 -3.406,-5.5432 -4,-9 -0.825,-0.8857 -1.825,-1.219 -3,-1 0,1.6667 0,3.3333 0,5 -0.961,-1.7646 -1.295,-3.7646 -1,-6 1.193,-0.4704 1.86,-1.4704 2,-3 -2.138,-9.7387 -8.138,-15.4053 -18,-17 -1.614,0.3029 -2.948,0.9695 -4,2 -3.49,0.3494 -5.823,-1.1506 -7,-4.5 -1.245,-0.7914 -2.578,-1.2914 -4,-1.5 -0.333,0 -0.667,0 -1,0 -9.157,-1.1576 -18.491,-1.3243 -28,-0.5 -3.243,0.9082 -5.577,2.9082 -7,6 -2.043,0.64 -3.71,0.14 -5,-1.5 0,-0.6667 -0.333,-1 -1,-1 -0.333,-0.6667 -0.667,-1.3333 -1,-2 2.358,-1.6286 5.024,-2.7952 8,-3.5 21.55,-4.4269 41.883,-1.4269 61,9 6.396,4.9596 10.063,11.4596 11,19.5 z"
         id="path8" />
    </g>
    <g
       id="g9"
       style="clip-rule:evenodd;fill-rule:evenodd;image-rendering:optimizeQuality;shape-rendering:geometricPrecision;text-rendering:geometricPrecision"
       transform="matrix(0.3068288,0,0,0.3068288,-223.82066,-4.1068447)">
      <path
         style="opacity:1"
         fill="#2b5c87"
         d="m 878.5,45.5 c 19.826,-2.1536 38.159,1.8464 55,12 1.961,2.4635 4.128,4.7968 6.5,7 1.17,3.3573 2.337,6.6906 3.5,10 0.162,2.0273 -0.005,4.0273 -0.5,6 -0.708,-0.8805 -1.542,-1.5472 -2.5,-2 -0.937,-8.0404 -4.604,-14.5404 -11,-19.5 -19.117,-10.4269 -39.45,-13.4269 -61,-9 -2.976,0.7048 -5.642,1.8714 -8,3.5 -12.155,3.1527 -19.488,10.8193 -22,23 -0.838,0.3417 -1.172,1.0084 -1,2 -1.212,0.7299 -2.212,1.7299 -3,3 -0.607,-0.1236 -0.94,-0.4569 -1,-1 0,-0.6667 0,-1.3333 0,-2 1.788,-4.4529 3.288,-9.1196 4.5,-14 7.397,-8.1032 16.231,-13.7698 26.5,-17 4.632,-0.883 9.298,-1.5496 14,-2 z"
         id="path9" />
    </g>
    <g
       id="g11"
       style="clip-rule:evenodd;fill-rule:evenodd;image-rendering:optimizeQuality;shape-rendering:geometricPrecision;text-rendering:geometricPrecision"
       transform="matrix(0.3068288,0,0,0.3068288,-223.82066,-4.1068447)">
      <path
         style="opacity:1"
         fill="#3b7099"
         d="m 902.5,52.5 c -8.673,-0.1664 -17.34,2e-4 -26,0.5 -1.786,0.7845 -3.286,1.9512 -4.5,3.5 -0.889,-1.3882 -1.389,-1.2215 -1.5,0.5 0.336,1.0299 1.003,1.5299 2,1.5 0,0.3333 0,0.6667 0,1 -3.469,0.0465 -6.802,0.7132 -10,2 0.571,-1.4733 0.571,-3.14 0,-5 1.29,1.64 2.957,2.14 5,1.5 1.423,-3.0918 3.757,-5.0918 7,-6 9.509,-0.8243 18.843,-0.6576 28,0.5 z"
         id="path11" />
    </g>
    <g
       id="g14"
       style="clip-rule:evenodd;fill-rule:evenodd;image-rendering:optimizeQuality;shape-rendering:geometricPrecision;text-rendering:geometricPrecision"
       transform="matrix(0.3068288,0,0,0.3068288,-223.82066,-4.1068447)">
      <path
         style="opacity:1"
         fill="#175b96"
         d="m 902.5,52.5 c 0.333,0 0.667,0 1,0 0.752,1.6003 1.752,3.1003 3,4.5 -10.508,0.1697 -20.841,0.6697 -31,1.5 -1,0 -2,0 -3,0 -0.997,0.0299 -1.664,-0.4701 -2,-1.5 0.111,-1.7215 0.611,-1.8882 1.5,-0.5 1.214,-1.5488 2.714,-2.7155 4.5,-3.5 8.66,-0.4998 17.327,-0.6664 26,-0.5 z"
         id="path14" />
    </g>
    <g
       id="g19"
       style="clip-rule:evenodd;fill-rule:evenodd;image-rendering:optimizeQuality;shape-rendering:geometricPrecision;text-rendering:geometricPrecision"
       transform="matrix(0.3068288,0,0,0.3068288,-223.82066,-4.1068447)">
      <path
         style="opacity:1"
         fill="#3d6d94"
         d="m 903.5,52.5 c 1.422,0.2086 2.755,0.7086 4,1.5 1.177,3.3494 3.51,4.8494 7,4.5 -0.333,0.6667 -0.667,1.3333 -1,2 -1.333,0 -2.667,0 -4,0 -0.763,-0.7679 -1.763,-1.2679 -3,-1.5 -10.328,-0.4998 -20.661,-0.6665 -31,-0.5 10.159,-0.8303 20.492,-1.3303 31,-1.5 -1.248,-1.3997 -2.248,-2.8997 -3,-4.5 z"
         id="path19" />
    </g>
    <g
       id="g20"
       style="clip-rule:evenodd;fill-rule:evenodd;image-rendering:optimizeQuality;shape-rendering:geometricPrecision;text-rendering:geometricPrecision"
       transform="matrix(0.3068288,0,0,0.3068288,-223.82066,-4.1068447)">
      <path
         style="opacity:1"
         fill="#b4d7ec"
         d="m 872.5,59.5 c 0,-0.3333 0,-0.6667 0,-1 1,0 2,0 3,0 10.339,-0.1665 20.672,2e-4 31,0.5 1.237,0.2321 2.237,0.7321 3,1.5 -12.303,-0.9182 -24.636,-1.2516 -37,-1 z"
         id="path20" />
    </g>
    <g
       id="g22"
       style="clip-rule:evenodd;fill-rule:evenodd;image-rendering:optimizeQuality;shape-rendering:geometricPrecision;text-rendering:geometricPrecision"
       transform="matrix(0.3068288,0,0,0.3068288,-223.82066,-4.1068447)">
      <path
         style="opacity:1"
         fill="#f9f9f9"
         d="m 915.5,99.5 c -0.048,2.792 1.285,4.625 4,5.5 -8.197,-0.894 -16.364,-2.06 -24.5,-3.5 -6.333,0.667 -12.667,1.333 -19,2 -0.333,-0.333 -0.667,-0.667 -1,-1 -4.883,1.307 -9.716,2.473 -14.5,3.5 4.051,-10.3596 6.384,-21.5262 7,-33.5 0,-0.3333 0,-0.6667 0,-1 1.314,-2.777 2.314,-5.777 3,-9 0.808,-0.3076 1.475,-0.8076 2,-1.5 12.058,-0.9148 24.058,-0.5814 36,1 0.333,0.3333 0.667,0.6667 1,1 -0.667,2 -1.333,4 -2,6 0.872,3.3514 1.872,6.6848 3,10 -0.085,1.1074 -0.419,2.1074 -1,3 3.051,5.81 5.051,11.6433 6,17.5 z"
         id="path22" />
    </g>
    <g
       id="g23"
       style="clip-rule:evenodd;fill-rule:evenodd;image-rendering:optimizeQuality;shape-rendering:geometricPrecision;text-rendering:geometricPrecision"
       transform="matrix(0.3068288,0,0,0.3068288,-223.82066,-4.1068447)">
      <path
         style="opacity:1"
         fill="#246298"
         d="m 934.5,76.5 c -0.667,0.6667 -1.333,1.3333 -2,2 -1.087,-4.5174 -3.42,-8.184 -7,-11 -0.79,-0.9013 -1.79,-1.5679 -3,-2 -2.613,-2.2179 -5.613,-3.8846 -9,-5 0.333,-0.6667 0.667,-1.3333 1,-2 1.052,-1.0305 2.386,-1.6971 4,-2 9.862,1.5947 15.862,7.2613 18,17 -0.14,1.5296 -0.807,2.5296 -2,3 z"
         id="path23" />
    </g>
    <g
       id="g31"
       style="clip-rule:evenodd;fill-rule:evenodd;image-rendering:optimizeQuality;shape-rendering:geometricPrecision;text-rendering:geometricPrecision"
       transform="matrix(0.3068288,0,0,0.3068288,-223.82066,-4.1068447)">
      <path
         style="opacity:1"
         fill="#20609b"
         d="m 861.5,55.5 c 0.667,0 1,0.3333 1,1 0.571,1.86 0.571,3.5267 0,5 -4.454,1.1257 -8.121,3.4591 -11,7 -1.673,0.843 -2.84,2.1763 -3.5,4 -0.849,3.0214 -1.683,6.0214 -2.5,9 -0.961,-1.7646 -1.295,-3.7646 -1,-6 -1,0 -2,0 -3,0 0.949,-7.8049 4.949,-13.6382 12,-17.5 2.522,-1.3409 5.189,-2.1743 8,-2.5 z"
         id="path31" />
    </g>
    <g
       id="g35"
       style="clip-rule:evenodd;fill-rule:evenodd;image-rendering:optimizeQuality;shape-rendering:geometricPrecision;text-rendering:geometricPrecision"
       transform="matrix(0.3068288,0,0,0.3068288,-223.82066,-4.1068447)">
      <path
         style="opacity:1"
         fill="#d5ecf3"
         d="m 872.5,59.5 c 12.364,-0.2516 24.697,0.0818 37,1 1.333,0 2.667,0 4,0 3.387,1.1154 6.387,2.7821 9,5 -2.333,0 -4.667,0 -7,0 0,1.3333 0,2.6667 0,4 -0.612,2.804 -0.612,5.804 0,9 -1.356,-3.0767 -2.189,-6.4101 -2.5,-10 -0.667,-1.3333 -1.333,-2.6667 -2,-4 -0.167,0.8333 -0.333,1.6667 -0.5,2.5 2.401,11.1735 4.735,22.3402 7,33.5 -0.667,-0.333 -1.333,-0.6667 -2,-1 -0.949,-5.8567 -2.949,-11.69 -6,-17.5 0.581,-0.8926 0.915,-1.8926 1,-3 -1.128,-3.3152 -2.128,-6.6486 -3,-10 0.667,-2 1.333,-4 2,-6 -0.333,-0.3333 -0.667,-0.6667 -1,-1 -11.942,-1.5814 -23.942,-1.9148 -36,-1 -0.525,0.6924 -1.192,1.1924 -2,1.5 -0.686,3.223 -1.686,6.223 -3,9 -0.067,-1.9008 0.267,-3.7341 1,-5.5 -0.51,-1.8261 -1.344,-1.9928 -2.5,-0.5 -1.614,8.9318 -3.78,17.5984 -6.5,26 0.12,-2.2345 -0.213,-4.4011 -1,-6.5 3.369,-5.7082 4.536,-11.8749 3.5,-18.5 -0.725,-0.5585 -1.558,-0.8918 -2.5,-1 -2.496,1.3885 -5.163,2.3885 -8,3 2.879,-3.5409 6.546,-5.8743 11,-7 3.198,-1.2868 6.531,-1.9535 10,-2 z"
         id="path35" />
    </g>
    <g
       id="g37"
       style="clip-rule:evenodd;fill-rule:evenodd;image-rendering:optimizeQuality;shape-rendering:geometricPrecision;text-rendering:geometricPrecision"
       transform="matrix(0.3068288,0,0,0.3068288,-223.82066,-4.1068447)">
      <path
         style="opacity:1"
         fill="#93ccec"
         d="m 860.5,53.5 c 0.333,0.6667 0.667,1.3333 1,2 -2.811,0.3257 -5.478,1.1591 -8,2.5 -7.051,3.8618 -11.051,9.6951 -12,17.5 -1.109,0.0569 -2.109,0.3902 -3,1 2.512,-12.1807 9.845,-19.8473 22,-23 z"
         id="path37" />
    </g>
    <g
       id="g39"
       style="clip-rule:evenodd;fill-rule:evenodd;image-rendering:optimizeQuality;shape-rendering:geometricPrecision;text-rendering:geometricPrecision"
       transform="matrix(0.3068288,0,0,0.3068288,-223.82066,-4.1068447)">
      <path
         style="opacity:1"
         fill="#d2e9f2"
         d="m 864.5,47.5 c -10.269,3.2302 -19.103,8.8968 -26.5,17 -1.212,4.8804 -2.712,9.5471 -4.5,14 -0.166,-4.0138 10e-4,-8.0138 0.5,-12 2.531,-2.5464 4.698,-5.3797 6.5,-8.5 2.218,-1.0906 4.384,-2.2573 6.5,-3.5 0.483,-0.948 0.649,-1.948 0.5,-3 3.636,-0.3185 6.969,-1.4852 10,-3.5 2.31,-0.4966 4.643,-0.6633 7,-0.5 z"
         id="path39" />
    </g>
    <g
       id="g40"
       style="clip-rule:evenodd;fill-rule:evenodd;image-rendering:optimizeQuality;shape-rendering:geometricPrecision;text-rendering:geometricPrecision"
       transform="matrix(0.3068288,0,0,0.3068288,-223.82066,-4.1068447)">
      <path
         style="opacity:1"
         fill="#f0f7f8"
         d="m 859.5,91.5 c -0.69,3.9896 -0.857,7.9896 -0.5,12 2.69,-10.4306 5.523,-20.7639 8.5,-31 -0.616,11.9738 -2.949,23.1404 -7,33.5 4.784,-1.027 9.617,-2.193 14.5,-3.5 0.333,0.333 0.667,0.667 1,1 6.333,-0.667 12.667,-1.333 19,-2 8.136,1.44 16.303,2.606 24.5,3.5 -2.715,-0.875 -4.048,-2.708 -4,-5.5 0.667,0.3333 1.333,0.667 2,1 0.658,0.898 1.324,1.898 2,3 0.333,-0.833 0.667,-1.667 1,-2.5 -2.534,-7.3031 -4.201,-14.8031 -5,-22.5 -0.612,-3.196 -0.612,-6.196 0,-9 1.396,6.4964 3.23,12.8297 5.5,19 0.721,6.1739 1.221,12.174 1.5,18 2.251,1.195 4.585,2.195 7,3 0.751,-0.876 1.251,-1.876 1.5,-3 0.226,-5.145 0.393,-10.1449 0.5,-15 -1.259,-3.5491 -2.093,-7.2158 -2.5,-11 -0.5,-1.1667 -1.333,-2 -2.5,-2.5 -0.257,-1.3715 0.077,-2.8715 1,-4.5 -0.678,-2.016 -1.344,-4.016 -2,-6 3.58,2.816 5.913,6.4826 7,11 0.627,4.6408 0.96,9.3075 1,14 -0.514,6.3217 -0.847,12.655 -1,19 -4.649,-0.986 -9.316,-1.986 -14,-3 -4.057,-0.348 -8.057,-1.014 -12,-2 -0.763,-0.768 -1.763,-1.268 -3,-1.5 -9.509,-0.824 -18.843,-0.658 -28,0.5 -5.198,1.321 -10.531,2.321 -16,3 -4.177,-0.329 -8.01,0.671 -11.5,3 -0.772,-0.145 -1.439,-0.478 -2,-1 -1.936,-14.691 -0.102,-28.691 5.5,-42 2.837,-0.6115 5.504,-1.6115 8,-3 0.942,0.1082 1.775,0.4415 2.5,1 1.036,6.6251 -0.131,12.7918 -3.5,18.5 0.787,2.0989 1.12,4.2655 1,6.5 z"
         id="path40" />
    </g>
    <g
       id="g41"
       style="clip-rule:evenodd;fill-rule:evenodd;image-rendering:optimizeQuality;shape-rendering:geometricPrecision;text-rendering:geometricPrecision"
       transform="matrix(0.3068288,0,0,0.3068288,-223.82066,-4.1068447)">
      <path
         style="opacity:1"
         fill="#f9f9f9"
         d="m 922.5,65.5 c 1.21,0.4321 2.21,1.0987 3,2 0.656,1.984 1.322,3.984 2,6 -0.923,1.6285 -1.257,3.1285 -1,4.5 1.167,0.5 2,1.3333 2.5,2.5 0.407,3.7842 1.241,7.4509 2.5,11 -0.107,4.8551 -0.274,9.855 -0.5,15 -0.249,1.124 -0.749,2.124 -1.5,3 -2.415,-0.805 -4.749,-1.805 -7,-3 -0.279,-5.826 -0.779,-11.8261 -1.5,-18 -2.27,-6.1703 -4.104,-12.5036 -5.5,-19 0,-1.3333 0,-2.6667 0,-4 2.333,0 4.667,0 7,0 z"
         id="path41" />
    </g>
    <g
       id="g43"
       style="clip-rule:evenodd;fill-rule:evenodd;image-rendering:optimizeQuality;shape-rendering:geometricPrecision;text-rendering:geometricPrecision"
       transform="matrix(0.3068288,0,0,0.3068288,-223.82066,-4.1068447)">
      <path
         style="opacity:1"
         fill="#c1dced"
         d="m 851.5,68.5 c -5.602,13.309 -7.436,27.309 -5.5,42 0.561,0.522 1.228,0.855 2,1 3.49,-2.329 7.323,-3.329 11.5,-3 -5.143,1.753 -10.143,4.087 -15,7 -0.268,-11.371 0.066,-22.7047 1,-34 0.817,-2.9786 1.651,-5.9786 2.5,-9 0.66,-1.8237 1.827,-3.157 3.5,-4 z"
         id="path43" />
    </g>
    <g
       id="g63"
       style="clip-rule:evenodd;fill-rule:evenodd;image-rendering:optimizeQuality;shape-rendering:geometricPrecision;text-rendering:geometricPrecision"
       transform="matrix(0.3068288,0,0,0.3068288,-223.82066,-4.1068447)">
      <path
         style="opacity:1"
         fill="#597386"
         d="m 867.5,71.5 c 0,0.3333 0,0.6667 0,1 -2.977,10.2361 -5.81,20.5694 -8.5,31 -0.357,-4.0104 -0.19,-8.0104 0.5,-12 2.72,-8.4016 4.886,-17.0682 6.5,-26 1.156,-1.4928 1.99,-1.3261 2.5,0.5 -0.733,1.7659 -1.067,3.5992 -1,5.5 z"
         id="path63" />
    </g>
    <g
       id="g64"
       style="clip-rule:evenodd;fill-rule:evenodd;image-rendering:optimizeQuality;shape-rendering:geometricPrecision;text-rendering:geometricPrecision"
       transform="matrix(0.3068288,0,0,0.3068288,-223.82066,-4.1068447)">
      <path
         style="opacity:1"
         fill="#516c80"
         d="m 915.5,78.5 c 0.799,7.6969 2.466,15.1969 5,22.5 -0.333,0.833 -0.667,1.667 -1,2.5 -0.676,-1.102 -1.342,-2.102 -2,-3 -2.265,-11.1598 -4.599,-22.3265 -7,-33.5 0.167,-0.8333 0.333,-1.6667 0.5,-2.5 0.667,1.3333 1.333,2.6667 2,4 0.311,3.5899 1.144,6.9233 2.5,10 z"
         id="path64" />
    </g>
    <g
       id="g65"
       style="clip-rule:evenodd;fill-rule:evenodd;image-rendering:optimizeQuality;shape-rendering:geometricPrecision;text-rendering:geometricPrecision"
       transform="matrix(0.3068288,0,0,0.3068288,-223.82066,-4.1068447)">
      <path
         style="opacity:1"
         fill="#5e7c8f"
         d="m 934.5,76.5 c -0.295,2.2354 0.039,4.2354 1,6 -0.065,7.0244 0.268,14.0244 1,21 0.318,4.532 -0.015,8.866 -1,13 0.237,-1.291 -0.096,-2.291 -1,-3 0.325,-7.187 -0.009,-14.1866 -1,-21 -0.04,-4.6925 -0.373,-9.3592 -1,-14 0.667,-0.6667 1.333,-1.3333 2,-2 z"
         id="path65" />
    </g>
    <g
       id="g69"
       style="clip-rule:evenodd;fill-rule:evenodd;image-rendering:optimizeQuality;shape-rendering:geometricPrecision;text-rendering:geometricPrecision"
       transform="matrix(0.3068288,0,0,0.3068288,-223.82066,-4.1068447)">
      <path
         style="opacity:1"
         fill="#eaf7f9"
         d="m 841.5,75.5 c 1.157,1.7147 1.824,3.7147 2,6 -0.667,8.6749 -1.334,17.3415 -2,26 -1.119,4.847 -1.119,9.847 0,15 -5.061,-0.572 -6.061,-2.905 -3,-7 -0.346,-1.196 -0.846,-1.196 -1.5,0 0.979,-1.779 0.646,-3.445 -1,-5 -0.5,-7.326 -0.666,-14.6591 -0.5,-22 0,-0.6667 0,-1.3333 0,-2 0.871,-2.503 1.537,-5.1697 2,-8 -0.172,-0.9916 0.162,-1.6583 1,-2 0.891,-0.6098 1.891,-0.9431 3,-1 z"
         id="path69" />
    </g>
    <g
       id="g75"
       style="clip-rule:evenodd;fill-rule:evenodd;image-rendering:optimizeQuality;shape-rendering:geometricPrecision;text-rendering:geometricPrecision"
       transform="matrix(0.3068288,0,0,0.3068288,-223.82066,-4.1068447)">
      <path
         style="opacity:1"
         fill="#6690b1"
         d="m 837.5,78.5 c -0.463,2.8303 -1.129,5.497 -2,8 0.188,-1.6033 -0.312,-2.9366 -1.5,-4 -0.471,1.7464 -1.138,3.413 -2,5 -0.169,12.84 -0.669,25.507 -1.5,38 0,-10 0,-20 0,-30 -0.518,-5.427 0.482,-10.427 3,-15 0.06,0.5431 0.393,0.8764 1,1 0.788,-1.2701 1.788,-2.2701 3,-3 z"
         id="path75" />
    </g>
    <g
       id="g76"
       style="clip-rule:evenodd;fill-rule:evenodd;image-rendering:optimizeQuality;shape-rendering:geometricPrecision;text-rendering:geometricPrecision"
       transform="matrix(0.3068288,0,0,0.3068288,-223.82066,-4.1068447)">
      <path
         style="opacity:1"
         fill="#b9d6e6"
         d="m 933.5,92.5 c 0.991,6.8134 1.325,13.813 1,21 0.131,0.876 -0.202,1.543 -1,2 -5.017,-2.548 -10.017,-4.882 -15,-7 4.684,1.014 9.351,2.014 14,3 0.153,-6.345 0.486,-12.6783 1,-19 z"
         id="path76" />
    </g>
    <g
       id="g77"
       style="clip-rule:evenodd;fill-rule:evenodd;image-rendering:optimizeQuality;shape-rendering:geometricPrecision;text-rendering:geometricPrecision"
       transform="matrix(0.3068288,0,0,0.3068288,-223.82066,-4.1068447)">
      <path
         style="opacity:1"
         fill="#627e97"
         d="m 841.5,75.5 c 1,0 2,0 3,0 -0.295,2.2354 0.039,4.2354 1,6 -0.934,11.2953 -1.268,22.629 -1,34 -0.768,-0.763 -1.268,-1.763 -1.5,-3 -0.494,1.634 -0.66,3.301 -0.5,5 -0.979,-3.125 -1.313,-6.458 -1,-10 0.666,-8.6585 1.333,-17.3251 2,-26 -0.176,-2.2853 -0.843,-4.2853 -2,-6 z"
         id="path77" />
    </g>
    <g
       id="g79"
       style="clip-rule:evenodd;fill-rule:evenodd;image-rendering:optimizeQuality;shape-rendering:geometricPrecision;text-rendering:geometricPrecision"
       transform="matrix(0.3068288,0,0,0.3068288,-223.82066,-4.1068447)">
      <path
         style="opacity:1"
         fill="#99c3e0"
         d="m 875.5,105.5 c 9.157,-1.158 18.491,-1.324 28,-0.5 1.237,0.232 2.237,0.732 3,1.5 -10.302,-0.9 -20.635,-1.233 -31,-1 z"
         id="path79" />
    </g>
    <g
       id="g80"
       style="clip-rule:evenodd;fill-rule:evenodd;image-rendering:optimizeQuality;shape-rendering:geometricPrecision;text-rendering:geometricPrecision"
       transform="matrix(0.3068288,0,0,0.3068288,-223.82066,-4.1068447)">
      <path
         style="opacity:1"
         fill="#507ea4"
         d="m 943.5,74.5 c 1.3,3.5007 2.466,7.1674 3.5,11 0.5,13.3292 0.667,26.663 0.5,40 -0.831,-12.493 -1.331,-25.16 -1.5,-38 -1.507,-3.7364 -2.34,-3.7364 -2.5,0 -0.333,0 -0.667,0 -1,0 -0.256,-3.0979 -0.922,-6.0979 -2,-9 0.958,0.4528 1.792,1.1195 2.5,2 0.495,-1.9727 0.662,-3.9727 0.5,-6 z"
         id="path80" />
    </g>
    <g
       id="g85"
       style="clip-rule:evenodd;fill-rule:evenodd;image-rendering:optimizeQuality;shape-rendering:geometricPrecision;text-rendering:geometricPrecision"
       transform="matrix(0.3068288,0,0,0.3068288,-223.82066,-4.1068447)">
      <path
         style="opacity:1"
         fill="#1465ae"
         d="m 929.5,134.5 c 0,0.333 0,0.667 0,1 -1.912,1.535 -3.245,3.535 -4,6 -0.876,0.751 -1.876,1.251 -3,1.5 0.667,0.333 1.333,0.667 2,1 -0.88,1.356 -1.214,2.856 -1,4.5 -5.796,0.034 -11.463,-0.799 -17,-2.5 -9.327,-0.5 -18.661,-0.666 -28,-0.5 0,-1 0,-2 0,-3 9.348,-0.08 18.181,-0.413 26.5,-1 1.137,0.864 2.47,1.864 4,3 0.75,-0.626 1.584,-1.126 2.5,-1.5 -0.333,-0.333 -0.667,-0.667 -1,-1 0.948,-0.483 1.948,-0.649 3,-0.5 -0.188,1.603 0.312,2.937 1.5,4 -0.498,-4.167 1.002,-4.833 4.5,-2 1.465,-2.764 2.799,-5.597 4,-8.5 -0.333,-0.5 -0.667,-1 -1,-1.5 -1.108,3.003 -2.775,3.503 -5,1.5 2.502,-1.337 4.502,-3.171 6,-5.5 -1.161,-4.222 -3.328,-4.888 -6.5,-2 -1.628,-1.319 -1.461,-2.652 0.5,-4 -0.998,-2.528 -1.831,-2.528 -2.5,0 -0.374,-0.916 -0.874,-1.75 -1.5,-2.5 0.808,-0.308 1.475,-0.808 2,-1.5 -0.38,-1.521 -0.546,-3.187 -0.5,-5 -4.659,2.636 -9.159,2.47 -13.5,-0.5 2.466,-0.93 2.299,-1.763 -0.5,-2.5 -6.397,0.086 -13.23,0.253 -20.5,0.5 -1.201,0.903 -2.035,2.069 -2.5,3.5 -0.308,-0.808 -0.808,-1.475 -1.5,-2 0.204,1.029 -0.296,2.029 -1.5,3 -0.333,-0.333 -0.667,-0.667 -1,-1 -1.314,0.813 -2.481,1.813 -3.5,3 -1.006,-0.438 -1.006,-1.104 0,-2 -1.965,-0.792 -3.965,-1.459 -6,-2 -1.114,1.223 -1.281,2.556 -0.5,4 0.556,-2.095 1.056,-2.262 1.5,-0.5 -1.92,2.506 -3.586,5.172 -5,8 0.953,1.955 2.287,3.622 4,5 -1.587,0.862 -3.254,1.529 -5,2 1.363,2.129 1.029,2.629 -1,1.5 -1.09,1.227 -2.424,2.06 -4,2.5 3.344,0.57 3.677,1.736 1,3.5 3.749,1.138 7.415,2.471 11,4 3.534,-0.631 7.034,-1.298 10.5,-2 0.483,0.948 0.649,1.948 0.5,3 -7.672,0.572 -15.172,1.906 -22.5,4 -3.366,-8.763 -6.366,-17.763 -9,-27 -0.896,-2.525 -0.396,-4.692 1.5,-6.5 13.61,-6.149 27.943,-8.983 43,-8.5 7.385,-0.068 14.718,0.432 22,1.5 7.171,2.222 14.171,4.722 21,7.5 -1.332,5.994 -2.665,11.994 -4,18 z"
         id="path85" />
    </g>
    <g
       id="g86"
       style="clip-rule:evenodd;fill-rule:evenodd;image-rendering:optimizeQuality;shape-rendering:geometricPrecision;text-rendering:geometricPrecision"
       transform="matrix(0.3068288,0,0,0.3068288,-223.82066,-4.1068447)">
      <path
         style="opacity:1"
         fill="#1164b4"
         d="m 878.5,145.5 c -0.333,0 -0.667,0 -1,0 0.149,-1.052 -0.017,-2.052 -0.5,-3 -3.466,0.702 -6.966,1.369 -10.5,2 -3.585,-1.529 -7.251,-2.862 -11,-4 2.677,-1.764 2.344,-2.93 -1,-3.5 1.576,-0.44 2.91,-1.273 4,-2.5 2.029,1.129 2.363,0.629 1,-1.5 1.746,-0.471 3.413,-1.138 5,-2 -1.713,-1.378 -3.047,-3.045 -4,-5 1.414,-2.828 3.08,-5.494 5,-8 -0.444,-1.762 -0.944,-1.595 -1.5,0.5 -0.781,-1.444 -0.614,-2.777 0.5,-4 2.035,0.541 4.035,1.208 6,2 -1.006,0.896 -1.006,1.562 0,2 1.019,-1.187 2.186,-2.187 3.5,-3 0.333,0.333 0.667,0.667 1,1 1.204,-0.971 1.704,-1.971 1.5,-3 0.692,0.525 1.192,1.192 1.5,2 0.465,-1.431 1.299,-2.597 2.5,-3.5 7.27,-0.247 14.103,-0.414 20.5,-0.5 2.799,0.737 2.966,1.57 0.5,2.5 4.341,2.97 8.841,3.136 13.5,0.5 -0.046,1.813 0.12,3.479 0.5,5 -0.525,0.692 -1.192,1.192 -2,1.5 0.626,0.75 1.126,1.584 1.5,2.5 0.669,-2.528 1.502,-2.528 2.5,0 -1.961,1.348 -2.128,2.681 -0.5,4 3.172,-2.888 5.339,-2.222 6.5,2 -1.498,2.329 -3.498,4.163 -6,5.5 2.225,2.003 3.892,1.503 5,-1.5 0.333,0.5 0.667,1 1,1.5 -1.201,2.903 -2.535,5.736 -4,8.5 -3.498,-2.833 -4.998,-2.167 -4.5,2 -1.188,-1.063 -1.688,-2.397 -1.5,-4 -1.052,-0.149 -2.052,0.017 -3,0.5 0.333,0.333 0.667,0.667 1,1 -0.916,0.374 -1.75,0.874 -2.5,1.5 -1.53,-1.136 -2.863,-2.136 -4,-3 -8.319,0.587 -17.152,0.92 -26.5,1 0,1 0,2 0,3 z"
         id="path86" />
    </g>
    <g
       id="g87"
       style="clip-rule:evenodd;fill-rule:evenodd;image-rendering:optimizeQuality;shape-rendering:geometricPrecision;text-rendering:geometricPrecision"
       transform="matrix(0.3068288,0,0,0.3068288,-223.82066,-4.1068447)">
      <path
         style="opacity:1"
         fill="#f2f9f9"
         d="m 942.5,87.5 c 0.167,11.3382 0,22.672 -0.5,34 -1.699,0.906 -3.533,1.239 -5.5,1 1.117,-6.489 1.117,-12.822 0,-19 -0.732,-6.9756 -1.065,-13.9756 -1,-21 0,-1.6667 0,-3.3333 0,-5 1.175,-0.219 2.175,0.1143 3,1 0.594,3.4568 1.927,6.4568 4,9 z"
         id="path87" />
    </g>
    <g
       id="g88"
       style="clip-rule:evenodd;fill-rule:evenodd;image-rendering:optimizeQuality;shape-rendering:geometricPrecision;text-rendering:geometricPrecision"
       transform="matrix(0.3068288,0,0,0.3068288,-223.82066,-4.1068447)">
      <path
         style="opacity:1"
         fill="#2e6598"
         d="m 875.5,105.5 c 10.365,-0.233 20.698,0.1 31,1 3.943,0.986 7.943,1.652 12,2 4.983,2.118 9.983,4.452 15,7 0.798,-0.457 1.131,-1.124 1,-2 0.904,0.709 1.237,1.709 1,3 -1.428,6.284 -3.428,12.284 -6,18 1.335,-6.006 2.668,-12.006 4,-18 -6.829,-2.778 -13.829,-5.278 -21,-7.5 -7.282,-1.068 -14.615,-1.568 -22,-1.5 -15.057,-0.483 -29.39,2.351 -43,8.5 -1.896,1.808 -2.396,3.975 -1.5,6.5 2.634,9.237 5.634,18.237 9,27 7.328,-2.094 14.828,-3.428 22.5,-4 0.333,0 0.667,0 1,0 9.339,-0.166 18.673,0 28,0.5 5.537,1.701 11.204,2.534 17,2.5 -0.214,-1.644 0.12,-3.144 1,-4.5 -0.667,-0.333 -1.333,-0.667 -2,-1 1.124,-0.249 2.124,-0.749 3,-1.5 0.755,-2.465 2.088,-4.465 4,-6 -1.511,5.711 -3.178,11.378 -5,17 -1.979,-1.668 -4.312,-2.334 -7,-2 -15.824,-2.965 -31.824,-3.799 -48,-2.5 -4.813,1.115 -9.48,2.281 -14,3.5 -0.667,-0.333 -1.333,-0.667 -2,-1 -3.838,-10.846 -7.504,-21.846 -11,-33 -0.16,-1.699 0.006,-3.366 0.5,-5 0.232,1.237 0.732,2.237 1.5,3 4.857,-2.913 9.857,-5.247 15,-7 5.469,-0.679 10.802,-1.679 16,-3 z"
         id="path88" />
    </g>
    <g
       id="g91"
       style="clip-rule:evenodd;fill-rule:evenodd;image-rendering:optimizeQuality;shape-rendering:geometricPrecision;text-rendering:geometricPrecision"
       transform="matrix(0.3068288,0,0,0.3068288,-223.82066,-4.1068447)">
      <path
         style="opacity:1"
         fill="#34668e"
         d="m 835.5,86.5 c 0,0.6667 0,1.3333 0,2 -1.388,4.9322 -2.055,10.0989 -2,15.5 0.564,7.158 0.897,14.325 1,21.5 2.07,0.051 3.903,-0.615 5.5,-2 0.5,0.333 1,0.667 1.5,1 2.026,8.773 4.36,17.44 7,26 0.892,9.634 1.225,19.301 1,29 -0.652,-8.873 -1.486,-17.873 -2.5,-27 -1.799,-5.09 -3.966,-9.924 -6.5,-14.5 1.104,-1.131 0.771,-1.965 -1,-2.5 -0.607,0.124 -0.94,0.457 -1,1 -1.291,-0.237 -2.291,0.096 -3,1 0.331,27.172 -0.002,54.172 -1,81 0.167,-25.669 0,-51.335 -0.5,-77 -0.171,8.177 -0.671,16.177 -1.5,24 0.326,-8.849 -0.007,-17.516 -1,-26 -2.612,0.871 -5.279,1.537 -8,2 -0.617,-0.111 -1.117,-0.444 -1.5,-1 -0.495,-1.973 -0.662,-3.973 -0.5,-6 1.975,-3.975 4.975,-6.975 9,-9 0.831,-12.493 1.331,-25.16 1.5,-38 0.862,-1.587 1.529,-3.2536 2,-5 1.188,1.0634 1.688,2.3967 1.5,4 z"
         id="path91" />
    </g>
    <g
       id="g92"
       style="clip-rule:evenodd;fill-rule:evenodd;image-rendering:optimizeQuality;shape-rendering:geometricPrecision;text-rendering:geometricPrecision"
       transform="matrix(0.3068288,0,0,0.3068288,-223.82066,-4.1068447)">
      <path
         style="opacity:1"
         fill="#c9e5f2"
         d="m 830.5,95.5 c 0,10 0,20 0,30 -4.025,2.025 -7.025,5.025 -9,9 -0.163,-2.357 0.003,-4.69 0.5,-7 2.86,-0.473 5.193,-1.806 7,-4 0.17,-9.509 0.67,-18.842 1.5,-28 z"
         id="path92" />
    </g>
    <g
       id="g93"
       style="clip-rule:evenodd;fill-rule:evenodd;image-rendering:optimizeQuality;shape-rendering:geometricPrecision;text-rendering:geometricPrecision"
       transform="matrix(0.3068288,0,0,0.3068288,-223.82066,-4.1068447)">
      <path
         style="opacity:1"
         fill="#c1e4f0"
         d="m 942.5,87.5 c 0.333,0 0.667,0 1,0 0,12.3333 0,24.667 0,37 -2.307,-0.486 -4.473,-0.486 -6.5,0 -3.174,11.695 -6.508,23.362 -10,35 -0.5,26.331 -0.667,52.665 -0.5,79 -1.293,-1.342 -2.126,-3.009 -2.5,-5 -0.757,5.649 -1.257,11.316 -1.5,17 -0.661,-1.634 -0.994,-3.467 -1,-5.5 1.167,-30.835 2.167,-61.668 3,-92.5 1.822,-5.622 3.489,-11.289 5,-17 0,-0.333 0,-0.667 0,-1 2.572,-5.716 4.572,-11.716 6,-18 0.985,-4.134 1.318,-8.468 1,-13 1.117,6.178 1.117,12.511 0,19 1.967,0.239 3.801,-0.094 5.5,-1 0.5,-11.328 0.667,-22.6618 0.5,-34 z"
         id="path93" />
    </g>
    <g
       id="g94"
       style="clip-rule:evenodd;fill-rule:evenodd;image-rendering:optimizeQuality;shape-rendering:geometricPrecision;text-rendering:geometricPrecision"
       transform="matrix(0.3068288,0,0,0.3068288,-223.82066,-4.1068447)">
      <path
         style="opacity:1"
         fill="#d1edf5"
         d="m 834.5,127.5 c 1,0 2,0 3,0 0.299,2.104 -0.034,4.104 -1,6 -3.549,0.774 -6.882,2.107 -10,4 -1.114,-1.223 -1.281,-2.556 -0.5,-4 2.322,-2.895 5.155,-4.895 8.5,-6 z"
         id="path94" />
    </g>
    <g
       id="g106"
       style="clip-rule:evenodd;fill-rule:evenodd;image-rendering:optimizeQuality;shape-rendering:geometricPrecision;text-rendering:geometricPrecision"
       transform="matrix(0.3068288,0,0,0.3068288,-223.82066,-4.1068447)">
      <path
         style="opacity:1"
         fill="#cfe6f1"
         d="m 917.5,150.5 c 1.068,0.934 2.401,1.268 4,1 -0.084,32.68 -0.75,65.346 -2,98 -0.333,0 -0.667,0 -1,0 0.488,-24.836 1.155,-49.67 2,-74.5 -0.018,-6.88 -0.351,-13.714 -1,-20.5 -3.939,-1.809 -7.939,-3.309 -12,-4.5 -8.245,-0.183 -16.412,-0.683 -24.5,-1.5 -8.675,2.278 -17.509,3.611 -26.5,4 1.711,32.3 2.711,64.634 3,97 -1.637,-32.497 -2.971,-65.164 -4,-98 4.52,-1.219 9.187,-2.385 14,-3.5 16.176,-1.299 32.176,-0.465 48,2.5 z"
         id="path106" />
    </g>
    <g
       id="g107"
       style="clip-rule:evenodd;fill-rule:evenodd;image-rendering:optimizeQuality;shape-rendering:geometricPrecision;text-rendering:geometricPrecision"
       transform="matrix(0.3068288,0,0,0.3068288,-223.82066,-4.1068447)">
      <path
         style="opacity:1"
         fill="#f9f9f9"
         d="m 918.5,249.5 c -6,-0.333 -12,-0.667 -18,-1 -3.986,-0.666 -8.153,-0.999 -12.5,-1 -6.731,-0.147 -13.231,0.52 -19.5,2 -3,0 -6,0 -9,0 -0.289,-32.366 -1.289,-64.7 -3,-97 8.991,-0.389 17.825,-1.722 26.5,-4 8.088,0.817 16.255,1.317 24.5,1.5 4.061,1.191 8.061,2.691 12,4.5 0.649,6.786 0.982,13.62 1,20.5 -0.845,24.83 -1.512,49.664 -2,74.5 z"
         id="path107" />
    </g>
    <g
       id="g119"
       style="clip-rule:evenodd;fill-rule:evenodd;image-rendering:optimizeQuality;shape-rendering:geometricPrecision;text-rendering:geometricPrecision"
       transform="matrix(0.3068288,0,0,0.3068288,-223.82066,-4.1068447)">
      <path
         style="opacity:1"
         fill="#a8cce0"
         d="m 831.5,139.5 c 0.331,26.839 -0.002,53.505 -1,80 0.333,-26.009 0,-52.009 -1,-78 -2.143,1.254 -4.143,1.254 -6,0 2.721,-0.463 5.388,-1.129 8,-2 z"
         id="path119" />
    </g>
    <g
       id="g134"
       style="clip-rule:evenodd;fill-rule:evenodd;image-rendering:optimizeQuality;shape-rendering:geometricPrecision;text-rendering:geometricPrecision"
       transform="matrix(0.3068288,0,0,0.3068288,-223.82066,-4.1068447)">
      <path
         style="opacity:1"
         fill="#2f6692"
         d="m 947.5,125.5 c 4.657,2.152 7.657,5.652 9,10.5 0.304,5.359 -2.03,6.859 -7,4.5 -0.709,-0.904 -1.709,-1.237 -3,-1 -0.331,27.172 0.002,54.172 1,81 0,9.667 0,19.333 0,29 -0.724,2.583 -1.557,5.249 -2.5,8 -0.497,-2.31 -0.663,-4.643 -0.5,-7 -1.436,-37.746 -2.436,-75.413 -3,-113 0,-0.667 -0.333,-1 -1,-1 -0.472,-3.019 -1.972,-4.019 -4.5,-3 -1.535,7.807 -3.535,15.474 -6,23 -1.391,27.321 -1.724,54.654 -1,82 2.03,2.726 3.53,5.726 4.5,9 0.798,-1.578 1.298,-3.244 1.5,-5 1.09,-14.979 1.757,-29.979 2,-45 0.186,-2.536 0.686,-4.869 1.5,-7 0.161,13.018 -0.173,26.018 -1,39 -0.913,5.941 -1.246,11.941 -1,18 -0.346,1.863 -1.346,2.696 -3,2.5 -2.484,-3.814 -4.818,-7.647 -7,-11.5 -0.167,-26.335 0,-52.669 0.5,-79 3.492,-11.638 6.826,-23.305 10,-35 2.027,-0.486 4.193,-0.486 6.5,0 0,-12.333 0,-24.6667 0,-37 0.16,-3.7364 0.993,-3.7364 2.5,0 0.169,12.84 0.669,25.507 1.5,38 z"
         id="path134" />
    </g>
    <g
       id="g135"
       style="clip-rule:evenodd;fill-rule:evenodd;image-rendering:optimizeQuality;shape-rendering:geometricPrecision;text-rendering:geometricPrecision"
       transform="matrix(0.3068288,0,0,0.3068288,-223.82066,-4.1068447)">
      <path
         style="opacity:1"
         fill="#d0eef6"
         d="m 940.5,127.5 c 4.969,0.901 9.136,3.235 12.5,7 0.483,0.948 0.649,1.948 0.5,3 -4.186,-0.729 -8.186,-2.062 -12,-4 -0.966,-1.896 -1.299,-3.896 -1,-6 z"
         id="path135" />
    </g>
    <g
       id="g137"
       style="clip-rule:evenodd;fill-rule:evenodd;image-rendering:optimizeQuality;shape-rendering:geometricPrecision;text-rendering:geometricPrecision"
       transform="matrix(0.3068288,0,0,0.3068288,-223.82066,-4.1068447)">
      <path
         style="opacity:1"
         fill="#bfe3ee"
         d="m 835.5,88.5 c -0.166,7.3409 0,14.674 0.5,22 1.646,1.555 1.979,3.221 1,5 0.654,-1.196 1.154,-1.196 1.5,0 -3.061,4.095 -2.061,6.428 3,7 -1.119,-5.153 -1.119,-10.153 0,-15 -0.313,3.542 0.021,6.875 1,10 3.496,11.154 7.162,22.154 11,33 1.738,33.483 2.405,66.816 2,100 0.327,-4.714 -0.007,-9.38 -1,-14 -1.319,2.286 -2.985,4.286 -5,6 0.471,-2.079 1.137,-4.079 2,-6 0.678,-27.848 0.178,-55.848 -1.5,-84 -0.278,-0.916 -0.778,-1.582 -1.5,-2 -2.64,-8.56 -4.974,-17.227 -7,-26 -0.5,-0.333 -1,-0.667 -1.5,-1 -1.597,1.385 -3.43,2.051 -5.5,2 -0.103,-7.175 -0.436,-14.342 -1,-21.5 -0.055,-5.4011 0.612,-10.5678 2,-15.5 z"
         id="path137" />
    </g>
    <g
       id="g141"
       style="clip-rule:evenodd;fill-rule:evenodd;image-rendering:optimizeQuality;shape-rendering:geometricPrecision;text-rendering:geometricPrecision"
       transform="matrix(0.3068288,0,0,0.3068288,-223.82066,-4.1068447)">
      <path
         style="opacity:1"
         fill="#c4eaf5"
         d="m 941.5,137.5 c 0.564,37.587 1.564,75.254 3,113 -0.612,5.821 -1.945,11.488 -4,17 0.277,-2.948 -0.056,-5.781 -1,-8.5 0.5,-0.5 1,-1 1.5,-1.5 2.53,-11.218 3.03,-22.551 1.5,-34 -1,0 -2,0 -3,0 -0.429,8.209 -1.429,16.209 -3,24 -0.246,-6.059 0.087,-12.059 1,-18 0.814,-2.131 1.314,-4.464 1.5,-7 0.429,-28.507 1.262,-56.84 2.5,-85 z"
         id="path141" />
    </g>
    <g
       id="g145"
       style="clip-rule:evenodd;fill-rule:evenodd;image-rendering:optimizeQuality;shape-rendering:geometricPrecision;text-rendering:geometricPrecision"
       transform="matrix(0.3068288,0,0,0.3068288,-223.82066,-4.1068447)">
      <path
         style="opacity:1"
         fill="#1d4c74"
         d="m 834.5,218.5 c 0.268,1.599 -0.066,2.932 -1,4 0.284,-1.915 -0.049,-3.581 -1,-5 0,-17.333 0,-34.667 0,-52 0.829,-7.823 1.329,-15.823 1.5,-24 0.5,25.665 0.667,51.331 0.5,77 z"
         id="path145" />
    </g>
    <g
       id="g147"
       style="clip-rule:evenodd;fill-rule:evenodd;image-rendering:optimizeQuality;shape-rendering:geometricPrecision;text-rendering:geometricPrecision"
       transform="matrix(0.3068288,0,0,0.3068288,-223.82066,-4.1068447)">
      <path
         style="opacity:1"
         fill="#d6ecf3"
         d="m 933.5,57.5 c 2.843,0.6717 5.343,2.005 7.5,4 2.268,3.9966 4.435,7.9966 6.5,12 -0.108,0.9419 -0.441,1.7753 -1,2.5 2.246,5.9274 3.412,12.0941 3.5,18.5 0.792,8.869 0.625,17.702 -0.5,26.5 2.426,3.159 4.759,6.326 7,9.5 1.159,3.622 1.325,7.289 0.5,11 -2.481,1.814 -5.315,2.48 -8.5,2 0.058,35.673 0.225,71.34 0.5,107 -0.21,1.558 -0.71,2.891 -1.5,4 0,-1.667 0,-3.333 0,-5 0,-9.667 0,-19.333 0,-29 -0.658,-27.021 0.009,-53.688 2,-80 4.97,2.359 7.304,0.859 7,-4.5 -1.343,-4.848 -4.343,-8.348 -9,-10.5 0.167,-13.337 0,-26.6708 -0.5,-40 -1.034,-3.8326 -2.2,-7.4993 -3.5,-11 -1.163,-3.3094 -2.33,-6.6427 -3.5,-10 -2.372,-2.2032 -4.539,-4.5365 -6.5,-7 z"
         id="path147" />
    </g>
    <g
       id="g148"
       style="clip-rule:evenodd;fill-rule:evenodd;image-rendering:optimizeQuality;shape-rendering:geometricPrecision;text-rendering:geometricPrecision"
       transform="matrix(0.3068288,0,0,0.3068288,-223.82066,-4.1068447)">
      <path
         style="opacity:1"
         fill="#7eb2d4"
         d="m 835.5,137.5 c 0.709,-0.904 1.709,-1.237 3,-1 0.581,18.995 0.914,37.995 1,57 -0.796,-18.859 -2.129,-37.525 -4,-56 z"
         id="path148" />
    </g>
    <g
       id="g154"
       style="clip-rule:evenodd;fill-rule:evenodd;image-rendering:optimizeQuality;shape-rendering:geometricPrecision;text-rendering:geometricPrecision"
       transform="matrix(0.3068288,0,0,0.3068288,-223.82066,-4.1068447)">
      <path
         style="opacity:1"
         fill="#3f759a"
         d="m 848.5,150.5 c 0.722,0.418 1.222,1.084 1.5,2 1.678,28.152 2.178,56.152 1.5,84 0.322,-5.858 -0.011,-11.525 -1,-17 -0.507,-13.328 -0.84,-26.661 -1,-40 0.225,-9.699 -0.108,-19.366 -1,-29 z"
         id="path154" />
    </g>
    <g
       id="g156"
       style="clip-rule:evenodd;fill-rule:evenodd;image-rendering:optimizeQuality;shape-rendering:geometricPrecision;text-rendering:geometricPrecision"
       transform="matrix(0.3068288,0,0,0.3068288,-223.82066,-4.1068447)">
      <path
         style="opacity:1"
         fill="#8cbcdc"
         d="m 940.5,136.5 c 0.667,0 1,0.333 1,1 -1.238,28.16 -2.071,56.493 -2.5,85 -0.186,2.536 -0.686,4.869 -1.5,7 0.827,-12.982 1.161,-25.982 1,-39 0.436,-18.167 1.102,-36.167 2,-54 z"
         id="path156" />
    </g>
    <g
       id="g159"
       style="clip-rule:evenodd;fill-rule:evenodd;image-rendering:optimizeQuality;shape-rendering:geometricPrecision;text-rendering:geometricPrecision"
       transform="matrix(0.3068288,0,0,0.3068288,-223.82066,-4.1068447)">
      <path
         style="opacity:1"
         fill="#4c6c84"
         d="m 853.5,150.5 c 0.667,0.333 1.333,0.667 2,1 1.029,32.836 2.363,65.503 4,98 3,0 6,0 9,0 10.648,-0.777 21.315,-1.11 32,-1 1.109,0.79 2.442,1.29 4,1.5 -10.841,0.17 -21.508,0.67 -32,1.5 -5.011,-0.166 -10.011,0.001 -15,0.5 -1.473,0.71 -2.14,1.876 -2,3.5 -1.459,-0.067 -2.792,0.266 -4,1 0.393,-1.784 1.059,-3.45 2,-5 0.667,-0.333 1.333,-0.667 2,-1 0.405,-33.184 -0.262,-66.517 -2,-100 z"
         id="path159" />
    </g>
    <g
       id="g169"
       style="clip-rule:evenodd;fill-rule:evenodd;image-rendering:optimizeQuality;shape-rendering:geometricPrecision;text-rendering:geometricPrecision"
       transform="matrix(0.3068288,0,0,0.3068288,-223.82066,-4.1068447)">
      <path
         style="opacity:1"
         fill="#98c2e0"
         d="m 949.5,140.5 c -1.991,26.312 -2.658,52.979 -2,80 -0.998,-26.828 -1.331,-53.828 -1,-81 1.291,-0.237 2.291,0.096 3,1 z"
         id="path169" />
    </g>
    <g
       id="g174"
       style="clip-rule:evenodd;fill-rule:evenodd;image-rendering:optimizeQuality;shape-rendering:geometricPrecision;text-rendering:geometricPrecision"
       transform="matrix(0.3068288,0,0,0.3068288,-223.82066,-4.1068447)">
      <path
         style="opacity:1"
         fill="#1b69a9"
         d="m 838.5,136.5 c 0.06,-0.543 0.393,-0.876 1,-1 1.771,0.535 2.104,1.369 1,2.5 2.534,4.576 4.701,9.41 6.5,14.5 1.014,9.127 1.848,18.127 2.5,27 0.16,13.339 0.493,26.672 1,40 0.573,7.523 -0.26,14.856 -2.5,22 -0.464,-0.594 -0.631,-1.261 -0.5,-2 -1.184,-1.188 -1.184,-2.355 0,-3.5 -0.667,-0.333 -1.333,-0.667 -2,-1 0.953,-1.704 1.953,-3.37 3,-5 -1.496,-5.615 -1.996,-11.448 -1.5,-17.5 -0.75,-0.626 -1.584,-1.126 -2.5,-1.5 0.02,-1.715 0.686,-3.548 2,-5.5 -0.256,-4.614 -0.423,-9.614 -0.5,-15 -1.951,-1.637 -1.784,-3.137 0.5,-4.5 -0.667,-0.667 -1.333,-1.333 -2,-2 2.244,-2.376 2.577,-5.043 1,-8 0.667,-0.667 1.333,-1.333 2,-2 -1.333,-1.667 -1.333,-3.333 0,-5 -2.973,-1.224 -3.64,-3.224 -2,-6 -0.691,-1.067 -1.191,-2.234 -1.5,-3.5 -0.87,0.608 -1.37,1.441 -1.5,2.5 0.077,13.814 0.41,27.814 1,42 -0.069,1.986 -0.735,3.486 -2,4.5 -0.111,-23.007 -0.611,-46.007 -1.5,-69 -0.232,-1.237 -0.732,-2.237 -1.5,-3 z"
         id="path174" />
    </g>
    <g
       id="g178"
       style="clip-rule:evenodd;fill-rule:evenodd;image-rendering:optimizeQuality;shape-rendering:geometricPrecision;text-rendering:geometricPrecision"
       transform="matrix(0.3068288,0,0,0.3068288,-223.82066,-4.1068447)">
      <path
         style="opacity:1"
         fill="#6590b2"
         d="m 831.5,139.5 c 0.993,8.484 1.326,17.151 1,26 0,17.333 0,34.667 0,52 -1.757,11.247 -2.424,22.58 -2,34 -1.249,-10.519 -1.249,-21.186 0,-32 0.998,-26.495 1.331,-53.161 1,-80 z"
         id="path178" />
    </g>
    <g
       id="g182"
       style="clip-rule:evenodd;fill-rule:evenodd;image-rendering:optimizeQuality;shape-rendering:geometricPrecision;text-rendering:geometricPrecision"
       transform="matrix(0.3068288,0,0,0.3068288,-223.82066,-4.1068447)">
      <path
         style="opacity:1"
         fill="#1b6aae"
         d="m 940.5,136.5 c -0.898,17.833 -1.564,35.833 -2,54 -0.814,2.131 -1.314,4.464 -1.5,7 -0.243,15.021 -0.91,30.021 -2,45 -0.202,1.756 -0.702,3.422 -1.5,5 -0.97,-3.274 -2.47,-6.274 -4.5,-9 -0.724,-27.346 -0.391,-54.679 1,-82 2.465,-7.526 4.465,-15.193 6,-23 2.528,-1.019 4.028,-0.019 4.5,3 z"
         id="path182" />
    </g>
    <g
       id="g183"
       style="clip-rule:evenodd;fill-rule:evenodd;image-rendering:optimizeQuality;shape-rendering:geometricPrecision;text-rendering:geometricPrecision"
       transform="matrix(0.3068288,0,0,0.3068288,-223.82066,-4.1068447)">
      <path
         style="opacity:1"
         fill="#1464ae"
         d="m 847.5,239.5 c -0.996,-0.086 -1.829,0.248 -2.5,1 -1.132,-2.588 -1.299,-5.088 -0.5,-7.5 -2.633,-7.942 -3.633,-16.109 -3,-24.5 1.265,-1.014 1.931,-2.514 2,-4.5 -0.59,-14.186 -0.923,-28.186 -1,-42 0.13,-1.059 0.63,-1.892 1.5,-2.5 0.309,1.266 0.809,2.433 1.5,3.5 -1.64,2.776 -0.973,4.776 2,6 -1.333,1.667 -1.333,3.333 0,5 -0.667,0.667 -1.333,1.333 -2,2 1.577,2.957 1.244,5.624 -1,8 0.667,0.667 1.333,1.333 2,2 -2.284,1.363 -2.451,2.863 -0.5,4.5 0.077,5.386 0.244,10.386 0.5,15 -1.314,1.952 -1.98,3.785 -2,5.5 0.916,0.374 1.75,0.874 2.5,1.5 -0.496,6.052 0.004,11.885 1.5,17.5 -1.047,1.63 -2.047,3.296 -3,5 0.667,0.333 1.333,0.667 2,1 -1.184,1.145 -1.184,2.312 0,3.5 z"
         id="path183" />
    </g>
    <g
       id="g186"
       style="clip-rule:evenodd;fill-rule:evenodd;image-rendering:optimizeQuality;shape-rendering:geometricPrecision;text-rendering:geometricPrecision"
       transform="matrix(0.3068288,0,0,0.3068288,-223.82066,-4.1068447)">
      <path
         style="opacity:1"
         fill="#56778e"
         d="m 917.5,150.5 c 2.688,-0.334 5.021,0.332 7,2 -0.833,30.832 -1.833,61.665 -3,92.5 0.006,2.033 0.339,3.866 1,5.5 3.554,2.298 5.221,5.632 5,10 -0.433,-2.759 -2.1,-4.092 -5,-4 1.454,-2.9 0.454,-4.233 -3,-4 -2.107,-0.968 -4.441,-1.302 -7,-1 2.333,-0.667 4.667,-1.333 7,-2 1.25,-32.654 1.916,-65.32 2,-98 -1.599,0.268 -2.932,-0.066 -4,-1 z"
         id="path186" />
    </g>
    <g
       id="g189"
       style="clip-rule:evenodd;fill-rule:evenodd;image-rendering:optimizeQuality;shape-rendering:geometricPrecision;text-rendering:geometricPrecision"
       transform="matrix(0.3068288,0,0,0.3068288,-223.82066,-4.1068447)">
      <path
         style="opacity:1"
         fill="#ccecf6"
         d="m 835.5,137.5 c 1.871,18.475 3.204,37.141 4,56 -0.211,18.712 0.622,37.379 2.5,56 1.183,1.231 2.349,1.231 3.5,0 1.343,-2.404 2.677,-4.738 4,-7 0.315,1.726 0.481,3.393 0.5,5 -2.167,0.833 -3.667,2.333 -4.5,4.5 -1.612,0.72 -3.112,0.554 -4.5,-0.5 -1.811,-7.524 -2.811,-15.191 -3,-23 -0.333,-1 -0.667,-2 -1,-3 -0.333,0.333 -0.667,0.667 -1,1 -1.104,4.22 -1.604,8.553 -1.5,13 0.213,6.013 0.546,12.013 1,18 -0.802,-1.452 -1.302,-3.118 -1.5,-5 -0.5,-9.994 -0.666,-19.994 -0.5,-30 0.934,-1.068 1.268,-2.401 1,-4 0.998,-26.828 1.331,-53.828 1,-81 z"
         id="path189" />
    </g>
    <g
       id="g190"
       style="clip-rule:evenodd;fill-rule:evenodd;image-rendering:optimizeQuality;shape-rendering:geometricPrecision;text-rendering:geometricPrecision"
       transform="matrix(0.3068288,0,0,0.3068288,-223.82066,-4.1068447)">
      <path
         style="opacity:1"
         fill="#23629a"
         d="m 838.5,136.5 c 0.768,0.763 1.268,1.763 1.5,3 0.889,22.993 1.389,45.993 1.5,69 -0.633,8.391 0.367,16.558 3,24.5 -0.799,2.412 -0.632,4.912 0.5,7.5 0.671,-0.752 1.504,-1.086 2.5,-1 -0.131,0.739 0.036,1.406 0.5,2 2.24,-7.144 3.073,-14.477 2.5,-22 0.989,5.475 1.322,11.142 1,17 -0.863,1.921 -1.529,3.921 -2,6 -1.323,2.262 -2.657,4.596 -4,7 -1.151,1.231 -2.317,1.231 -3.5,0 -1.878,-18.621 -2.711,-37.288 -2.5,-56 -0.086,-19.005 -0.419,-38.005 -1,-57 z"
         id="path190" />
    </g>
    <g
       id="g196"
       style="clip-rule:evenodd;fill-rule:evenodd;image-rendering:optimizeQuality;shape-rendering:geometricPrecision;text-rendering:geometricPrecision"
       transform="matrix(0.3068288,0,0,0.3068288,-223.82066,-4.1068447)">
      <path
         style="opacity:1"
         fill="#2e5e86"
         d="m 832.5,217.5 c 0.951,1.419 1.284,3.085 1,5 -0.166,10.006 0,20.006 0.5,30 0.198,1.882 0.698,3.548 1.5,5 0.667,4 1.333,8 2,12 -1.703,-1.16 -2.369,-0.493 -2,2 -2.906,-6.289 -4.572,-12.956 -5,-20 -0.424,-11.42 0.243,-22.753 2,-34 z"
         id="path196" />
    </g>
    <g
       id="g198"
       style="clip-rule:evenodd;fill-rule:evenodd;image-rendering:optimizeQuality;shape-rendering:geometricPrecision;text-rendering:geometricPrecision"
       transform="matrix(0.3068288,0,0,0.3068288,-223.82066,-4.1068447)">
      <path
         style="opacity:1"
         fill="#e5f5f8"
         d="m 821.5,134.5 c -0.162,2.027 0.005,4.027 0.5,6 0.383,0.556 0.883,0.889 1.5,1 1.857,1.254 3.857,1.254 6,0 1,25.991 1.333,51.991 1,78 -1.249,10.814 -1.249,21.481 0,32 0.428,7.044 2.094,13.711 5,20 0.378,2.421 1.045,4.754 2,7 -3.571,-0.92 -5.738,-3.253 -6.5,-7 -1.62,-8.411 -3.12,-16.577 -4.5,-24.5 0.388,-5.14 0.388,-10.14 0,-15 0.667,-3.667 1.333,-7.333 2,-11 -0.067,-22.879 -0.067,-45.879 0,-69 -0.167,-1.833 -0.333,-3.667 -0.5,-5.5 -3.373,-1.758 -6.207,-4.091 -8.5,-7 0.301,-1.922 0.967,-3.588 2,-5 z"
         id="path198" />
    </g>
    <g
       id="g199"
       style="clip-rule:evenodd;fill-rule:evenodd;image-rendering:optimizeQuality;shape-rendering:geometricPrecision;text-rendering:geometricPrecision"
       transform="matrix(0.3068288,0,0,0.3068288,-223.82066,-4.1068447)">
      <path
         style="opacity:1"
         fill="#ecf8f9"
         d="m 849.5,242.5 c 2.015,-1.714 3.681,-3.714 5,-6 0.993,4.62 1.327,9.286 1,14 -0.667,0.333 -1.333,0.667 -2,1 -2.114,1.407 -3.614,3.407 -4.5,6 -0.602,4.383 -1.435,8.716 -2.5,13 -0.917,-0.627 -1.917,-0.961 -3,-1 -0.787,-1.604 -2.12,-2.271 -4,-2 0.262,1.478 -0.071,2.811 -1,4 -0.798,-0.457 -1.131,-1.124 -1,-2 -0.667,-4 -1.333,-8 -2,-12 -0.454,-5.987 -0.787,-11.987 -1,-18 -0.104,-4.447 0.396,-8.78 1.5,-13 0.333,-0.333 0.667,-0.667 1,-1 0.333,1 0.667,2 1,3 0.189,7.809 1.189,15.476 3,23 1.388,1.054 2.888,1.22 4.5,0.5 0.833,-2.167 2.333,-3.667 4.5,-4.5 -0.019,-1.607 -0.185,-3.274 -0.5,-5 z"
         id="path199" />
    </g>
    <g
       id="g200"
       style="clip-rule:evenodd;fill-rule:evenodd;image-rendering:optimizeQuality;shape-rendering:geometricPrecision;text-rendering:geometricPrecision"
       transform="matrix(0.3068288,0,0,0.3068288,-223.82066,-4.1068447)">
      <path
         style="opacity:1"
         fill="#b8d5e9"
         d="m 900.5,248.5 c -10.685,-0.11 -21.352,0.223 -32,1 6.269,-1.48 12.769,-2.147 19.5,-2 4.347,0.001 8.514,0.334 12.5,1 z"
         id="path200" />
    </g>
    <g
       id="g201"
       style="clip-rule:evenodd;fill-rule:evenodd;image-rendering:optimizeQuality;shape-rendering:geometricPrecision;text-rendering:geometricPrecision"
       transform="matrix(0.3068288,0,0,0.3068288,-223.82066,-4.1068447)">
      <path
         style="opacity:1"
         fill="#7f9aad"
         d="m 900.5,248.5 c 6,0.333 12,0.667 18,1 0.333,0 0.667,0 1,0 -2.333,0.667 -4.667,1.333 -7,2 -13.333,0 -26.667,0 -40,0 10.492,-0.83 21.159,-1.33 32,-1.5 -1.558,-0.21 -2.891,-0.71 -4,-1.5 z"
         id="path201" />
    </g>
    <g
       id="g202"
       style="clip-rule:evenodd;fill-rule:evenodd;image-rendering:optimizeQuality;shape-rendering:geometricPrecision;text-rendering:geometricPrecision"
       transform="matrix(0.3068288,0,0,0.3068288,-223.82066,-4.1068447)">
      <path
         style="opacity:1"
         fill="#eff8f9"
         d="m 940.5,267.5 c -2.51,-0.446 -4.51,0.22 -6,2 -1.333,0 -2.667,0 -4,0 0.268,-1.599 -0.066,-2.932 -1,-4 -0.809,-1.528 -1.476,-3.194 -2,-5 0.221,-4.368 -1.446,-7.702 -5,-10 0.243,-5.684 0.743,-11.351 1.5,-17 0.374,1.991 1.207,3.658 2.5,5 2.182,3.853 4.516,7.686 7,11.5 1.654,0.196 2.654,-0.637 3,-2.5 1.571,-7.791 2.571,-15.791 3,-24 1,0 2,0 3,0 1.53,11.449 1.03,22.782 -1.5,34 -0.5,0.5 -1,1 -1.5,1.5 0.944,2.719 1.277,5.552 1,8.5 z"
         id="path202" />
    </g>
    <g
       id="g203"
       style="clip-rule:evenodd;fill-rule:evenodd;image-rendering:optimizeQuality;shape-rendering:geometricPrecision;text-rendering:geometricPrecision"
       transform="matrix(0.3068288,0,0,0.3068288,-223.82066,-4.1068447)">
      <path
         style="opacity:1"
         fill="#dceff4"
         d="m 872.5,251.5 c 13.333,0 26.667,0 40,0 2.559,-0.302 4.893,0.032 7,1 -14.923,-0.04 -29.756,0.627 -44.5,2 -4.114,-0.893 -8.114,-1.227 -12,-1 -3.048,1.283 -3.215,2.949 -0.5,5 3.945,0.768 7.945,1.268 12,1.5 0.881,0.708 1.547,1.542 2,2.5 -4.716,-0.508 -9.382,-1.342 -14,-2.5 -3.027,-0.545 -5.36,-2.045 -7,-4.5 -0.14,-1.624 0.527,-2.79 2,-3.5 4.989,-0.499 9.989,-0.666 15,-0.5 z"
         id="path203" />
    </g>
    <g
       id="g205"
       style="clip-rule:evenodd;fill-rule:evenodd;image-rendering:optimizeQuality;shape-rendering:geometricPrecision;text-rendering:geometricPrecision"
       transform="matrix(0.3068288,0,0,0.3068288,-223.82066,-4.1068447)">
      <path
         style="opacity:1"
         fill="#f4f9f9"
         d="m 919.5,252.5 c 3.454,-0.233 4.454,1.1 3,4 -2.213,1.273 -4.546,2.273 -7,3 -4.346,-0.166 -8.679,10e-4 -13,0.5 -1.172,0.419 -2.172,1.085 -3,2 -7.326,0.5 -14.659,0.666 -22,0.5 -0.333,0 -0.667,0 -1,0 -0.453,-0.958 -1.119,-1.792 -2,-2.5 -4.055,-0.232 -8.055,-0.732 -12,-1.5 -2.715,-2.051 -2.548,-3.717 0.5,-5 3.886,-0.227 7.886,0.107 12,1 14.744,-1.373 29.577,-2.04 44.5,-2 z"
         id="path205" />
    </g>
    <g
       id="g210"
       style="clip-rule:evenodd;fill-rule:evenodd;image-rendering:optimizeQuality;shape-rendering:geometricPrecision;text-rendering:geometricPrecision"
       transform="matrix(0.3068288,0,0,0.3068288,-223.82066,-4.1068447)">
      <path
         style="opacity:1"
         fill="#2a6496"
         d="m 855.5,255.5 c 1.64,2.455 3.973,3.955 7,4.5 4.618,1.158 9.284,1.992 14,2.5 0.333,0 0.667,0 1,0 12.877,1.889 25.544,0.889 38,-3 2.454,-0.727 4.787,-1.727 7,-3 2.9,-0.092 4.567,1.241 5,4 0.524,1.806 1.191,3.472 2,5 0.48,3.185 -0.186,6.019 -2,8.5 -9.216,4.799 -18.883,7.632 -29,8.5 -11.84,0.6 -23.506,-0.4 -35,-3 -2.279,-1.151 -4.612,-2.151 -7,-3 18.521,4.579 37.188,5.079 56,1.5 4.792,-1.26 9.292,-3.094 13.5,-5.5 1.173,-5.477 0.173,-10.477 -3,-15 -2.53,2.971 -5.53,4.304 -9,4 -17.84,5.443 -35.673,5.276 -53.5,-0.5 -2.164,-0.914 -4.164,-2.081 -6,-3.5 -1.671,2.127 -3.337,4.127 -5,6 0.667,-2.333 1.333,-4.667 2,-7 1.208,-0.734 2.541,-1.067 4,-1 z"
         id="path210" />
    </g>
    <g
       id="g213"
       style="clip-rule:evenodd;fill-rule:evenodd;image-rendering:optimizeQuality;shape-rendering:geometricPrecision;text-rendering:geometricPrecision"
       transform="matrix(0.3068288,0,0,0.3068288,-223.82066,-4.1068447)">
      <path
         style="opacity:1"
         fill="#3c6e98"
         d="m 947.5,249.5 c 0,1.667 0,3.333 0,5 -1.105,8.756 -3.605,17.089 -7.5,25 -1.039,1.21 -2.206,2.21 -3.5,3 2.379,-3.249 3.712,-6.916 4,-11 -2.737,-0.099 -5.404,0.235 -8,1 0.667,-1 1.333,-2 2,-3 1.49,-1.78 3.49,-2.446 6,-2 2.055,-5.512 3.388,-11.179 4,-17 -0.163,2.357 0.003,4.69 0.5,7 0.943,-2.751 1.776,-5.417 2.5,-8 z"
         id="path213" />
    </g>
    <g
       id="g215"
       style="clip-rule:evenodd;fill-rule:evenodd;image-rendering:optimizeQuality;shape-rendering:geometricPrecision;text-rendering:geometricPrecision"
       transform="matrix(0.3068288,0,0,0.3068288,-223.82066,-4.1068447)">
      <path
         style="opacity:1"
         fill="#1567ad"
         d="m 856.5,276.5 c -7.723,-1.388 -10.056,-5.721 -7,-13 1.663,-1.873 3.329,-3.873 5,-6 1.836,1.419 3.836,2.586 6,3.5 17.827,5.776 35.66,5.943 53.5,0.5 3.47,0.304 6.47,-1.029 9,-4 3.173,4.523 4.173,9.523 3,15 -4.208,2.406 -8.708,4.24 -13.5,5.5 -18.812,3.579 -37.479,3.079 -56,-1.5 z"
         id="path215" />
    </g>
    <g
       id="g216"
       style="clip-rule:evenodd;fill-rule:evenodd;image-rendering:optimizeQuality;shape-rendering:geometricPrecision;text-rendering:geometricPrecision"
       transform="matrix(0.3068288,0,0,0.3068288,-223.82066,-4.1068447)">
      <path
         style="opacity:1"
         fill="#b3d4e7"
         d="m 915.5,259.5 c -12.456,3.889 -25.123,4.889 -38,3 7.341,0.166 14.674,0 22,-0.5 0.828,-0.915 1.828,-1.581 3,-2 4.321,-0.499 8.654,-0.666 13,-0.5 z"
         id="path216" />
    </g>
    <g
       id="g218"
       style="clip-rule:evenodd;fill-rule:evenodd;image-rendering:optimizeQuality;shape-rendering:geometricPrecision;text-rendering:geometricPrecision"
       transform="matrix(0.3068288,0,0,0.3068288,-223.82066,-4.1068447)">
      <path
         style="opacity:1"
         fill="#25649a"
         d="m 843.5,269.5 c 4.084,6.212 9.751,10.212 17,12 0.538,1.617 0.871,3.284 1,5 1,0 2,0 3,0 0,0.333 0,0.667 0,1 -3.286,0.707 -6.619,1.04 -10,1 -4.427,-0.79 -8.427,-2.457 -12,-5 -1.895,-1.473 -3.561,-3.14 -5,-5 -0.955,-2.246 -1.622,-4.579 -2,-7 -0.369,-2.493 0.297,-3.16 2,-2 -0.131,0.876 0.202,1.543 1,2 0.929,-1.189 1.262,-2.522 1,-4 1.88,-0.271 3.213,0.396 4,2 z"
         id="path218" />
    </g>
    <g
       id="g220"
       style="clip-rule:evenodd;fill-rule:evenodd;image-rendering:optimizeQuality;shape-rendering:geometricPrecision;text-rendering:geometricPrecision"
       transform="matrix(0.3068288,0,0,0.3068288,-223.82066,-4.1068447)">
      <path
         style="opacity:1"
         fill="#1865aa"
         d="m 936.5,282.5 c -1.322,0.17 -2.489,-0.163 -3.5,-1 -0.833,2.167 -2.333,3.667 -4.5,4.5 -3.013,0.502 -6.013,1.002 -9,1.5 0,-2.333 0,-4.667 0,-7 4.722,-1.869 9.056,-4.536 13,-8 2.596,-0.765 5.263,-1.099 8,-1 -0.288,4.084 -1.621,7.751 -4,11 z"
         id="path220" />
    </g>
    <g
       id="g223"
       style="clip-rule:evenodd;fill-rule:evenodd;image-rendering:optimizeQuality;shape-rendering:geometricPrecision;text-rendering:geometricPrecision"
       transform="matrix(0.3068288,0,0,0.3068288,-223.82066,-4.1068447)">
      <path
         style="opacity:1"
         fill="#a5d8ed"
         d="m 853.5,251.5 c -0.941,1.55 -1.607,3.216 -2,5 -0.667,2.333 -1.333,4.667 -2,7 -3.056,7.279 -0.723,11.612 7,13 2.388,0.849 4.721,1.849 7,3 -1.679,-0.215 -2.679,0.452 -3,2 -7.249,-1.788 -12.916,-5.788 -17,-12 1.083,0.039 2.083,0.373 3,1 1.065,-4.284 1.898,-8.617 2.5,-13 0.886,-2.593 2.386,-4.593 4.5,-6 z"
         id="path223" />
    </g>
    <g
       id="g226"
       style="clip-rule:evenodd;fill-rule:evenodd;image-rendering:optimizeQuality;shape-rendering:geometricPrecision;text-rendering:geometricPrecision"
       transform="matrix(0.3068288,0,0,0.3068288,-223.82066,-4.1068447)">
      <path
         style="opacity:1"
         fill="#b7def1"
         d="m 929.5,265.5 c 0.934,1.068 1.268,2.401 1,4 1.333,0 2.667,0 4,0 -0.667,1 -1.333,2 -2,3 -3.944,3.464 -8.278,6.131 -13,8 -1.947,1.716 -3.281,3.883 -4,6.5 -16.988,1.778 -33.988,1.944 -51,0.5 0,-0.333 0,-0.667 0,-1 17.061,1.644 34.061,1.31 51,-1 0.269,-1.929 -0.231,-3.595 -1.5,-5 -5.004,1.618 -10.171,2.285 -15.5,2 10.117,-0.868 19.784,-3.701 29,-8.5 1.814,-2.481 2.48,-5.315 2,-8.5 z"
         id="path226" />
    </g>
    <g
       id="g230"
       style="clip-rule:evenodd;fill-rule:evenodd;image-rendering:optimizeQuality;shape-rendering:geometricPrecision;text-rendering:geometricPrecision"
       transform="matrix(0.3068288,0,0,0.3068288,-223.82066,-4.1068447)">
      <path
         style="opacity:1"
         fill="#1968ad"
         d="m 842.5,283.5 c 0.111,-0.617 0.444,-1.117 1,-1.5 -2.964,-0.84 -3.297,-1.84 -1,-3 -1.957,-1.746 -2.957,-3.912 -3,-6.5 3.292,-0.38 5.625,0.953 7,4 6.002,2.024 10.335,5.69 13,11 -5.526,-1.671 -11.193,-3.005 -17,-4 z"
         id="path230" />
    </g>
    <g
       id="g231"
       style="clip-rule:evenodd;fill-rule:evenodd;image-rendering:optimizeQuality;shape-rendering:geometricPrecision;text-rendering:geometricPrecision"
       transform="matrix(0.3068288,0,0,0.3068288,-223.82066,-4.1068447)">
      <path
         style="opacity:1"
         fill="#dcf4f9"
         d="m 863.5,279.5 c 11.494,2.6 23.16,3.6 35,3 5.329,0.285 10.496,-0.382 15.5,-2 1.269,1.405 1.769,3.071 1.5,5 -16.939,2.31 -33.939,2.644 -51,1 -1,0 -2,0 -3,0 -0.129,-1.716 -0.462,-3.383 -1,-5 0.321,-1.548 1.321,-2.215 3,-2 z"
         id="path231" />
    </g>
    <g
       id="g243"
       style="clip-rule:evenodd;fill-rule:evenodd;image-rendering:optimizeQuality;shape-rendering:geometricPrecision;text-rendering:geometricPrecision"
       transform="matrix(0.3068288,0,0,0.3068288,-223.82066,-4.1068447)">
      <path
         style="opacity:1"
         fill="#d7eef5"
         d="m 935.5,284.5 c 0.363,2.411 -0.637,3.911 -3,4.5 -9.191,2.476 -18.524,3.976 -28,4.5 3,-0.667 6,-1.333 9,-2 7.491,-1.574 14.824,-3.907 22,-7 z"
         id="path243" />
    </g>
    <g
       id="g245"
       style="clip-rule:evenodd;fill-rule:evenodd;image-rendering:optimizeQuality;shape-rendering:geometricPrecision;text-rendering:geometricPrecision"
       transform="matrix(0.3068288,0,0,0.3068288,-223.82066,-4.1068447)">
      <path
         style="opacity:1"
         fill="#d6ecf5"
         d="m 837.5,278.5 c 1.439,1.86 3.105,3.527 5,5 3.573,2.543 7.573,4.21 12,5 4.964,1.491 9.964,2.824 15,4 -12.125,1.846 -22.458,-1.487 -31,-10 -0.929,-1.189 -1.262,-2.522 -1,-4 z"
         id="path245" />
    </g>
    <g
       id="g247"
       style="clip-rule:evenodd;fill-rule:evenodd;image-rendering:optimizeQuality;shape-rendering:geometricPrecision;text-rendering:geometricPrecision"
       transform="matrix(0.3068288,0,0,0.3068288,-223.82066,-4.1068447)">
      <path
         style="opacity:1"
         fill="#32638c"
         d="m 919.5,280.5 c 0,2.333 0,4.667 0,7 2.987,-0.498 5.987,-0.998 9,-1.5 2.167,-0.833 3.667,-2.333 4.5,-4.5 1.011,0.837 2.178,1.17 3.5,1 -0.333,0.667 -0.667,1.333 -1,2 -7.176,3.093 -14.509,5.426 -22,7 -14.652,0.803 -29.319,1.137 -44,1 -5.036,-1.176 -10.036,-2.509 -15,-4 3.381,0.04 6.714,-0.293 10,-1 17.012,1.444 34.012,1.278 51,-0.5 0.719,-2.617 2.053,-4.784 4,-6.5 z"
         id="path247" />
    </g>
    <g
       id="g248"
       style="clip-rule:evenodd;fill-rule:evenodd;image-rendering:optimizeQuality;shape-rendering:geometricPrecision;text-rendering:geometricPrecision"
       transform="matrix(0.3068288,0,0,0.3068288,-223.82066,-4.1068447)">
      <path
         style="opacity:1"
         fill="#abcee5"
         d="m 913.5,291.5 c -3,0.667 -6,1.333 -9,2 -11.845,0.328 -23.512,-0.005 -35,-1 14.681,0.137 29.348,-0.197 44,-1 z"
         id="path248" />
    </g>
  </g>
</svg>
