<?xml version="1.0" encoding="UTF-8" standalone="no"?>
<!-- Created with Inkscape (http://www.inkscape.org/) -->

<svg
   width="96mm"
   height="96mm"
   viewBox="0 0 96 96"
   version="1.1"
   id="svg1"
   inkscape:version="1.4.2 (ebf0e940, 2025-05-08)"
   sodipodi:docname="plane.svg"
   xmlns:inkscape="http://www.inkscape.org/namespaces/inkscape"
   xmlns:sodipodi="http://sodipodi.sourceforge.net/DTD/sodipodi-0.dtd"
   xmlns="http://www.w3.org/2000/svg"
   xmlns:svg="http://www.w3.org/2000/svg">
  <sodipodi:namedview
     id="namedview1"
     pagecolor="#ffffff"
     bordercolor="#000000"
     borderopacity="0.25"
     inkscape:showpageshadow="2"
     inkscape:pageopacity="0.0"
     inkscape:pagecheckerboard="0"
     inkscape:deskcolor="#d1d1d1"
     inkscape:document-units="mm"
     inkscape:zoom="0.80444024"
     inkscape:cx="397.17059"
     inkscape:cy="262.91574"
     inkscape:window-width="1920"
     inkscape:window-height="1052"
     inkscape:window-x="0"
     inkscape:window-y="28"
     inkscape:window-maximized="0"
     inkscape:current-layer="layer1" />
  <defs
     id="defs1" />
  <g
     inkscape:label="Layer 1"
     inkscape:groupmode="layer"
     id="layer1">
    <g
       id="g238"
       style="clip-rule:evenodd;fill-rule:evenodd;image-rendering:optimizeQuality;shape-rendering:geometricPrecision;text-rendering:geometricPrecision"
       transform="matrix(0.26458333,0,0,0.26458333,-172.34822,-104.16941)">
      <path
         style="opacity:1"
         fill="#1b3b63"
         d="m 846.5,437.5 c 2.278,6.169 3.945,12.502 5,19 -0.43,7.02 0.57,13.686 3,20 -0.167,13.004 0,26.004 0.5,39 2.314,4.475 5.48,8.142 9.5,11 -1.373,0.157 -2.707,-0.01 -4,-0.5 -6.26,-5.796 -9.26,-12.963 -9,-21.5 0.167,-10.672 0,-21.339 -0.5,-32 -0.21,-1.558 -0.71,-2.891 -1.5,-4 1.346,-2.292 1.012,-4.292 -1,-6 -1.432,-13.005 -5.765,-24.839 -13,-35.5 -3.558,-2.154 -6.725,-1.654 -9.5,1.5 -4.132,4.932 -6.632,10.599 -7.5,17 -1.385,1.074 -2.551,2.407 -3.5,4 -0.836,3.873 -1.669,7.707 -2.5,11.5 1.315,1.395 0.981,2.395 -1,3 0.667,0.333 1.333,0.667 2,1 -0.752,0.671 -1.086,1.504 -1,2.5 0,0.333 0,0.667 0,1 -1.363,3.992 -2.363,8.159 -3,12.5 0.248,7.198 0.915,14.531 2,22 -1.304,0.804 -1.971,1.971 -2,3.5 -0.033,4.797 -0.033,9.63 0,14.5 -0.805,1.113 -1.472,2.279 -2,3.5 -3.187,3.093 -6.854,5.427 -11,7 -1.806,-0.524 -3.472,-1.191 -5,-2 0,-5.667 0,-11.333 0,-17 0.827,5.485 1.327,11.152 1.5,17 6.611,-2.944 11.611,-7.611 15,-14 0.114,-18.364 0.781,-36.697 2,-55 1.945,-10.782 5.279,-21.115 10,-31 6.17,-9.787 13.17,-10.454 21,-2 2.099,3.2 3.933,6.533 5.5,10 z"
         id="path238" />
    </g>
    <g
       id="g247"
       style="clip-rule:evenodd;fill-rule:evenodd;image-rendering:optimizeQuality;shape-rendering:geometricPrecision;text-rendering:geometricPrecision"
       transform="matrix(0.26458333,0,0,0.26458333,-172.34822,-104.16941)">
      <path
         style="opacity:1"
         fill="#0c3e75"
         d="m 837.5,439.5 c 4.464,3.144 6.798,7.478 7,13 -1.699,0.16 -3.366,-0.006 -5,-0.5 -2.57,-4.948 -6.57,-6.615 -12,-5 -1.519,1.351 -2.852,2.851 -4,4.5 -2.333,0.667 -4.667,1.333 -7,2 -1.311,3.889 -1.978,7.889 -2,12 3.393,-0.125 4.726,1.542 4,5 0.477,4.018 -1.19,5.851 -5,5.5 1.814,-2.481 2.48,-5.315 2,-8.5 -1,0 -2,0 -3,0 -0.086,-0.996 0.248,-1.829 1,-2.5 -0.667,-0.333 -1.333,-0.667 -2,-1 1.981,-0.605 2.315,-1.605 1,-3 0.831,-3.793 1.664,-7.627 2.5,-11.5 0.949,-1.593 2.115,-2.926 3.5,-4 2.333,-1.667 4.333,-3.667 6,-6 4.333,-2.667 8.667,-2.667 13,0 z"
         id="path247" />
    </g>
    <g
       id="g248"
       style="clip-rule:evenodd;fill-rule:evenodd;image-rendering:optimizeQuality;shape-rendering:geometricPrecision;text-rendering:geometricPrecision"
       transform="matrix(0.26458333,0,0,0.26458333,-172.34822,-104.16941)">
      <path
         style="opacity:1"
         fill="#1e4f80"
         d="m 827.5,440.5 c 2.472,0.133 5.139,0.3 8,0.5 1.517,1.685 3.184,3.185 5,4.5 1.131,1.574 1.298,3.241 0.5,5 -1.717,-1.488 -2.884,-3.321 -3.5,-5.5 -2.562,-1.141 -5.228,-1.974 -8,-2.5 -2.922,2.579 -5.922,5.245 -9,8 -1.114,-1.223 -1.281,-2.556 -0.5,-4 2.111,-2.619 4.611,-4.619 7.5,-6 z"
         id="path248" />
    </g>
    <g
       id="g250"
       style="clip-rule:evenodd;fill-rule:evenodd;image-rendering:optimizeQuality;shape-rendering:geometricPrecision;text-rendering:geometricPrecision"
       transform="matrix(0.26458333,0,0,0.26458333,-172.34822,-104.16941)">
      <path
         style="opacity:1"
         fill="#175da8"
         d="m 845.5,465.5 c -0.333,0.667 -0.667,1.333 -1,2 -0.747,2.65 -1.747,5.316 -3,8 -1.756,-3.349 -3.422,-6.849 -5,-10.5 -1.535,-0.496 -3.035,-0.33 -4.5,0.5 -1.261,-0.259 -2.261,-0.926 -3,-2 -2.448,2.284 -4.615,1.784 -6.5,-1.5 0.333,-0.333 0.667,-0.667 1,-1 -0.808,-0.308 -1.475,-0.808 -2,-1.5 1.141,-0.925 1.141,-1.759 0,-2.5 0.626,-0.75 1.126,-1.584 1.5,-2.5 0.914,1.154 1.747,0.987 2.5,-0.5 3.667,-0.667 7.333,-0.667 11,0 1.333,1 1.333,2 0,3 1,0.333 2,0.667 3,1 1.61,2.93 3.61,5.43 6,7.5 z"
         id="path250" />
    </g>
    <g
       id="g260"
       style="clip-rule:evenodd;fill-rule:evenodd;image-rendering:optimizeQuality;shape-rendering:geometricPrecision;text-rendering:geometricPrecision"
       transform="matrix(0.26458333,0,0,0.26458333,-172.34822,-104.16941)">
      <path
         style="opacity:1"
         fill="#506a85"
         d="m 851.5,456.5 c 1.844,6.411 2.844,13.078 3,20 -2.43,-6.314 -3.43,-12.98 -3,-20 z"
         id="path260" />
    </g>
    <g
       id="g261"
       style="clip-rule:evenodd;fill-rule:evenodd;image-rendering:optimizeQuality;shape-rendering:geometricPrecision;text-rendering:geometricPrecision"
       transform="matrix(0.26458333,0,0,0.26458333,-172.34822,-104.16941)">
      <path
         style="opacity:1"
         fill="#195ca0"
         d="m 848.5,462.5 c 0,1 0,2 0,3 -1,0 -2,0 -3,0 -2.39,-2.07 -4.39,-4.57 -6,-7.5 -1,-0.333 -2,-0.667 -3,-1 1.333,-1 1.333,-2 0,-3 -3.667,-0.667 -7.333,-0.667 -11,0 -0.753,1.487 -1.586,1.654 -2.5,0.5 -0.374,0.916 -0.874,1.75 -1.5,2.5 1.141,0.741 1.141,1.575 0,2.5 0.525,0.692 1.192,1.192 2,1.5 -0.333,0.333 -0.667,0.667 -1,1 1.885,3.284 4.052,3.784 6.5,1.5 0.739,1.074 1.739,1.741 3,2 1.465,-0.83 2.965,-0.996 4.5,-0.5 1.578,3.651 3.244,7.151 5,10.5 1.253,-2.684 2.253,-5.35 3,-8 -0.226,2.749 0.107,5.416 1,8 1.545,0.952 3.212,1.285 5,1 0,23 0,46 0,69 -0.617,0.111 -1.117,0.444 -1.5,1 -1.889,-1.983 -3.222,-4.316 -4,-7 -1.307,-1.692 -2.807,-3.025 -4.5,-4 -0.558,-1.29 -1.558,-2.123 -3,-2.5 -2.167,-0.167 -4.333,-0.333 -6.5,-0.5 -3.243,-0.193 -6.243,0.473 -9,2 -1.364,-0.758 -2.531,-0.258 -3.5,1.5 -1.634,0.494 -3.301,0.66 -5,0.5 0.375,-3.989 0.709,-8.323 1,-13 1.052,-0.149 2.052,0.017 3,0.5 -1.987,2.47 -2.487,5.303 -1.5,8.5 1.297,1.284 2.464,1.117 3.5,-0.5 -1.167,-2.833 -0.333,-3.667 2.5,-2.5 2.948,-1.543 3.782,-3.71 2.5,-6.5 1.612,-0.72 3.112,-0.554 4.5,0.5 0.748,-1.832 1.748,-3.499 3,-5 -1.131,2.477 -0.631,4.643 1.5,6.5 -2.226,1.201 -4.559,2.535 -7,4 3.355,1.547 6.522,1.047 9.5,-1.5 1.913,3.694 4.746,5.361 8.5,5 0.751,0.876 1.251,1.876 1.5,3 0.682,-3.549 1.849,-6.883 3.5,-10 -1.547,-2.433 -2.547,-5.099 -3,-8 0.209,-1.494 0.876,-2.661 2,-3.5 0.179,-3.92 -0.155,-7.92 -1,-12 0.115,-1.895 0.782,-3.562 2,-5 -3.674,-3.405 -4.674,-7.405 -3,-12 -1,-2.333 -2.667,-4 -5,-5 2.315,-1.368 2.315,-2.201 0,-2.5 -1.588,0.51 -2.755,1.51 -3.5,3 -2.184,0.608 -4.184,-0.059 -6,-2 -0.333,0.667 -0.667,1.333 -1,2 -1.314,-0.813 -2.481,-1.813 -3.5,-3 -0.781,1.229 -1.281,2.562 -1.5,4 -1.303,0.612 -2.47,0.946 -3.5,1 0.876,0.751 1.876,1.251 3,1.5 -1.947,0.991 -3.947,1.325 -6,1 2.475,-2.617 1.975,-4.784 -1.5,-6.5 -2.186,1.467 -2.852,3.467 -2,6 2,0.667 3.333,2 4,4 0.451,-2.429 1.285,-2.596 2.5,-0.5 -1.134,1.016 -0.801,1.683 1,2 -1.333,0.667 -1.333,1.333 0,2 -0.608,0.87 -1.441,1.37 -2.5,1.5 -1.751,-1.893 -3.418,-3.226 -5,-4 -0.5,0.5 -1,1 -1.5,1.5 1.722,4.998 3.056,9.832 4,14.5 1.667,-1 3,-2.333 4,-4 0.333,0.667 0.667,1.333 1,2 2.773,-0.968 5.273,-2.301 7.5,-4 0.833,1.5 2,2.667 3.5,3.5 -0.938,1.063 -1.938,2.23 -3,3.5 0.876,0.751 1.876,1.251 3,1.5 -1.791,2.414 -3.457,4.914 -5,7.5 0.333,0.667 0.667,1.333 1,2 -1.46,1.922 -3.127,2.589 -5,2 -0.886,-0.825 -1.219,-1.825 -1,-3 1.373,0.157 2.707,-0.01 4,-0.5 -1.948,-0.983 -3.782,-2.15 -5.5,-3.5 -0.492,1.049 -0.326,2.049 0.5,3 -1.216,0.596 -2.549,0.763 -4,0.5 0.457,0.414 0.791,0.914 1,1.5 -1.808,2.018 -3.808,3.684 -6,5 -0.503,-5.747 -0.836,-11.58 -1,-17.5 0.667,-0.333 1.333,-0.667 2,-1 -1.028,-1.632 -2.028,-3.132 -3,-4.5 -0.245,-10.484 -0.245,-20.818 0,-31 0,-0.333 0,-0.667 0,-1 1,0 2,0 3,0 0.48,3.185 -0.186,6.019 -2,8.5 3.81,0.351 5.477,-1.482 5,-5.5 0.726,-3.458 -0.607,-5.125 -4,-5 0.022,-4.111 0.689,-8.111 2,-12 2.333,-0.667 4.667,-1.333 7,-2 1.148,-1.649 2.481,-3.149 4,-4.5 5.43,-1.615 9.43,0.052 12,5 1.634,0.494 3.301,0.66 5,0.5 -0.202,-5.522 -2.536,-9.856 -7,-13 0.418,-0.722 1.084,-1.222 2,-1.5 -1.696,-5.027 -5.196,-7.86 -10.5,-8.5 -5.098,1.881 -6.598,5.215 -4.5,10 -1.667,2.333 -3.667,4.333 -6,6 0.868,-6.401 3.368,-12.068 7.5,-17 2.775,-3.154 5.942,-3.654 9.5,-1.5 7.235,10.661 11.568,22.495 13,35.5 z"
         id="path261" />
    </g>
    <g
       id="g262"
       style="clip-rule:evenodd;fill-rule:evenodd;image-rendering:optimizeQuality;shape-rendering:geometricPrecision;text-rendering:geometricPrecision"
       transform="matrix(0.26458333,0,0,0.26458333,-172.34822,-104.16941)">
      <path
         style="opacity:1"
         fill="#1b62aa"
         d="m 837.5,439.5 c -4.333,-2.667 -8.667,-2.667 -13,0 -2.098,-4.785 -0.598,-8.119 4.5,-10 5.304,0.64 8.804,3.473 10.5,8.5 -0.916,0.278 -1.582,0.778 -2,1.5 z"
         id="path262" />
    </g>
    <g
       id="g267"
       style="clip-rule:evenodd;fill-rule:evenodd;image-rendering:optimizeQuality;shape-rendering:geometricPrecision;text-rendering:geometricPrecision"
       transform="matrix(0.26458333,0,0,0.26458333,-172.34822,-104.16941)">
      <path
         style="opacity:1"
         fill="#155da7"
         d="m 814.5,523.5 c 0,-0.333 0,-0.667 0,-1 2.192,-1.316 4.192,-2.982 6,-5 -0.209,-0.586 -0.543,-1.086 -1,-1.5 1.451,0.263 2.784,0.096 4,-0.5 -0.826,-0.951 -0.992,-1.951 -0.5,-3 1.718,1.35 3.552,2.517 5.5,3.5 -1.293,0.49 -2.627,0.657 -4,0.5 -0.219,1.175 0.114,2.175 1,3 1.873,0.589 3.54,-0.078 5,-2 -0.333,-0.667 -0.667,-1.333 -1,-2 1.543,-2.586 3.209,-5.086 5,-7.5 -1.124,-0.249 -2.124,-0.749 -3,-1.5 1.062,-1.27 2.062,-2.437 3,-3.5 -1.5,-0.833 -2.667,-2 -3.5,-3.5 -2.227,1.699 -4.727,3.032 -7.5,4 -0.333,-0.667 -0.667,-1.333 -1,-2 -1,1.667 -2.333,3 -4,4 -0.944,-4.668 -2.278,-9.502 -4,-14.5 0.5,-0.5 1,-1 1.5,-1.5 1.582,0.774 3.249,2.107 5,4 1.059,-0.13 1.892,-0.63 2.5,-1.5 -1.333,-0.667 -1.333,-1.333 0,-2 -1.801,-0.317 -2.134,-0.984 -1,-2 -1.215,-2.096 -2.049,-1.929 -2.5,0.5 -0.667,-2 -2,-3.333 -4,-4 -0.852,-2.533 -0.186,-4.533 2,-6 3.475,1.716 3.975,3.883 1.5,6.5 2.053,0.325 4.053,-0.009 6,-1 -1.124,-0.249 -2.124,-0.749 -3,-1.5 1.03,-0.054 2.197,-0.388 3.5,-1 0.219,-1.438 0.719,-2.771 1.5,-4 1.019,1.187 2.186,2.187 3.5,3 0.333,-0.667 0.667,-1.333 1,-2 1.816,1.941 3.816,2.608 6,2 0.745,-1.49 1.912,-2.49 3.5,-3 2.315,0.299 2.315,1.132 0,2.5 2.333,1 4,2.667 5,5 -1.674,4.595 -0.674,8.595 3,12 -1.218,1.438 -1.885,3.105 -2,5 0.845,4.08 1.179,8.08 1,12 -1.124,0.839 -1.791,2.006 -2,3.5 0.453,2.901 1.453,5.567 3,8 -1.651,3.117 -2.818,6.451 -3.5,10 -0.249,-1.124 -0.749,-2.124 -1.5,-3 -3.754,0.361 -6.587,-1.306 -8.5,-5 -2.978,2.547 -6.145,3.047 -9.5,1.5 2.441,-1.465 4.774,-2.799 7,-4 -2.131,-1.857 -2.631,-4.023 -1.5,-6.5 -1.252,1.501 -2.252,3.168 -3,5 -1.388,-1.054 -2.888,-1.22 -4.5,-0.5 1.282,2.79 0.448,4.957 -2.5,6.5 -2.833,-1.167 -3.667,-0.333 -2.5,2.5 -1.036,1.617 -2.203,1.784 -3.5,0.5 -0.987,-3.197 -0.487,-6.03 1.5,-8.5 -0.948,-0.483 -1.948,-0.649 -3,-0.5 z"
         id="path267" />
    </g>
    <g
       id="g283"
       style="clip-rule:evenodd;fill-rule:evenodd;image-rendering:optimizeQuality;shape-rendering:geometricPrecision;text-rendering:geometricPrecision"
       transform="matrix(0.26458333,0,0,0.26458333,-172.34822,-104.16941)">
      <path
         style="opacity:1"
         fill="#e1eff4"
         d="m 846.5,437.5 c 2.082,0.124 3.582,1.124 4.5,3 3.053,16.207 5.22,32.541 6.5,49 -0.271,6.622 -0.604,12.955 -1,19 0.137,7.136 3.47,12.136 10,15 1.379,-4.264 2.545,-8.598 3.5,-13 2.113,-4.058 5.446,-6.391 10,-7 3.628,0.739 7.794,0.739 12.5,0 3.689,0.287 6.523,1.954 8.5,5 0.667,8.333 0.667,16.667 0,25 -0.383,0.556 -0.883,0.889 -1.5,1 1.025,-7.639 1.191,-15.305 0.5,-23 -1.48,-3.163 -3.98,-4.996 -7.5,-5.5 -5,-0.667 -10,-0.667 -15,0 -2.909,1.406 -4.909,3.572 -6,6.5 -0.356,5.577 -1.356,10.91 -3,16 -1.333,-0.667 -2.667,-1.333 -4,-2 -4.02,-2.858 -7.186,-6.525 -9.5,-11 -0.5,-12.996 -0.667,-25.996 -0.5,-39 -0.156,-6.922 -1.156,-13.589 -3,-20 -1.055,-6.498 -2.722,-12.831 -5,-19 z"
         id="path283" />
    </g>
    <g
       id="g284"
       style="clip-rule:evenodd;fill-rule:evenodd;image-rendering:optimizeQuality;shape-rendering:geometricPrecision;text-rendering:geometricPrecision"
       transform="matrix(0.26458333,0,0,0.26458333,-172.34822,-104.16941)">
      <path
         style="opacity:1"
         fill="#1b5998"
         d="m 896.5,526.5 c -0.572,4.769 -1.572,9.436 -3,14 -1.494,0.899 -2.994,0.565 -4.5,-1 -0.173,-4.041 -0.673,-8.041 -1.5,-12 -0.987,3.268 -1.32,6.602 -1,10 -1,0 -2,0 -3,0 0.162,-2.027 -0.005,-4.027 -0.5,-6 -2.284,3.305 -4.951,3.305 -8,0 -0.499,-5.657 -0.666,-11.324 -0.5,-17 7.333,0 14.667,0 22,0 0,4 0,8 0,12 z"
         id="path284" />
    </g>
    <g
       id="g285"
       style="clip-rule:evenodd;fill-rule:evenodd;image-rendering:optimizeQuality;shape-rendering:geometricPrecision;text-rendering:geometricPrecision"
       transform="matrix(0.26458333,0,0,0.26458333,-172.34822,-104.16941)">
      <path
         style="opacity:1"
         fill="#1c5b9c"
         d="m 767.5,514.5 c 7,0 14,0 21,0 -0.641,5.977 -1.141,11.977 -1.5,18 -1.506,1.674 -3.339,2.674 -5.5,3 0.166,-4.346 -10e-4,-8.679 -0.5,-13 -1.133,-1.711 -2.633,-2.211 -4.5,-1.5 -1.887,5.88 -2.887,12.046 -3,18.5 -1.251,1.72 -2.751,2.053 -4.5,1 -2.538,-8.694 -3.038,-17.36 -1.5,-26 z"
         id="path285" />
    </g>
    <g
       id="g287"
       style="clip-rule:evenodd;fill-rule:evenodd;image-rendering:optimizeQuality;shape-rendering:geometricPrecision;text-rendering:geometricPrecision"
       transform="matrix(0.26458333,0,0,0.26458333,-172.34822,-104.16941)">
      <path
         style="opacity:1"
         fill="#294464"
         d="m 791.5,512.5 c -1.634,-0.707 -2.968,-1.873 -4,-3.5 -1.699,-0.958 -3.533,-1.458 -5.5,-1.5 -4.876,0.504 -9.71,1.17 -14.5,2 -1.084,1.165 -1.917,2.498 -2.5,4 -0.294,7.821 -0.461,15.488 -0.5,23 -0.333,0 -0.667,0 -1,0 -0.791,-8.324 -0.958,-16.657 -0.5,-25 2.051,-3.053 4.885,-4.886 8.5,-5.5 4.667,-0.667 9.333,-0.667 14,0 2.909,1.406 4.909,3.572 6,6.5 z"
         id="path287" />
    </g>
    <g
       id="g320"
       style="clip-rule:evenodd;fill-rule:evenodd;image-rendering:optimizeQuality;shape-rendering:geometricPrecision;text-rendering:geometricPrecision"
       transform="matrix(0.26458333,0,0,0.26458333,-172.34822,-104.16941)">
      <path
         style="opacity:1"
         fill="#387abb"
         d="m 881.5,540.5 c 0.219,1.175 -0.114,2.175 -1,3 -8.315,-3.823 -16.315,-8.156 -24,-13 -1.743,-1.626 -2.243,-3.626 -1.5,-6 8.316,6.239 17.149,11.572 26.5,16 z"
         id="path320" />
    </g>
    <g
       id="g321"
       style="clip-rule:evenodd;fill-rule:evenodd;image-rendering:optimizeQuality;shape-rendering:geometricPrecision;text-rendering:geometricPrecision"
       transform="matrix(0.26458333,0,0,0.26458333,-172.34822,-104.16941)">
      <path
         style="opacity:1"
         fill="#0c3869"
         d="m 791.5,512.5 c 0,5.667 0,11.333 0,17 -2.422,-1.192 -3.422,-3.192 -3,-6 2.597,-5.129 1.597,-9.629 -3,-13.5 -5.564,-1.01 -10.898,-0.343 -16,2 -0.881,0.708 -1.547,1.542 -2,2.5 -1.538,8.64 -1.038,17.306 1.5,26 1.749,1.053 3.249,0.72 4.5,-1 0.891,-0.61 1.891,-0.943 3,-1 0.667,0 1.333,0 2,0 0.438,-0.065 0.772,0.101 1,0.5 -0.881,0.708 -1.547,1.542 -2,2.5 -29.005,16.505 -58.339,32.505 -88,48 0.011,-1.517 0.677,-2.684 2,-3.5 3.98,-1.966 7.98,-3.966 12,-6 -0.556,-0.383 -0.889,-0.883 -1,-1.5 3.974,-0.269 7.64,-1.436 11,-3.5 2.991,-1.965 5.657,-4.132 8,-6.5 5.725,-1.113 10.892,-3.446 15.5,-7 0.333,0.333 0.667,0.667 1,1 2.783,-1.141 4.95,-2.975 6.5,-5.5 6.219,-2.549 12.219,-5.549 18,-9 0.752,-0.671 1.086,-1.504 1,-2.5 0,-0.667 0.333,-1 1,-1 0.997,-2.505 0.997,-5.172 0,-8 0.039,-7.512 0.206,-15.179 0.5,-23 0.583,-1.502 1.416,-2.835 2.5,-4 4.79,-0.83 9.624,-1.496 14.5,-2 1.967,0.042 3.801,0.542 5.5,1.5 1.032,1.627 2.366,2.793 4,3.5 z"
         id="path321" />
    </g>
    <g
       id="g323"
       style="clip-rule:evenodd;fill-rule:evenodd;image-rendering:optimizeQuality;shape-rendering:geometricPrecision;text-rendering:geometricPrecision"
       transform="matrix(0.26458333,0,0,0.26458333,-172.34822,-104.16941)">
      <path
         style="opacity:1"
         fill="#203e64"
         d="m 899.5,534.5 c -1.32,2.78 -1.82,5.78 -1.5,9 8.481,5.152 16.981,10.152 25.5,15 -7.43,-1.045 -13.764,-4.211 -19,-9.5 -2.808,-0.598 -5.308,-1.765 -7.5,-3.5 -0.333,0.333 -0.667,0.667 -1,1 -0.566,-2.223 -1.4,-4.223 -2.5,-6 1.428,-4.564 2.428,-9.231 3,-14 1.547,-2.307 2.213,-4.973 2,-8 0.312,-3.376 -0.522,-6.376 -2.5,-9 -5.716,0.021 -11.549,0.187 -17.5,0.5 -2.141,1.308 -4.141,2.808 -6,4.5 0.607,2.275 0.941,4.609 1,7 0.213,3.027 -0.453,5.693 -2,8 0,-5.667 0,-11.333 0,-17 1.091,-2.928 3.091,-5.094 6,-6.5 5,-0.667 10,-0.667 15,0 3.52,0.504 6.02,2.337 7.5,5.5 0.691,7.695 0.525,15.361 -0.5,23 z"
         id="path323" />
    </g>
    <g
       id="g325"
       style="clip-rule:evenodd;fill-rule:evenodd;image-rendering:optimizeQuality;shape-rendering:geometricPrecision;text-rendering:geometricPrecision"
       transform="matrix(0.26458333,0,0,0.26458333,-172.34822,-104.16941)">
      <path
         style="opacity:1"
         fill="#463852"
         d="m 834.5,535.5 c 2,0 4,0 6,0 2.094,2.597 3.427,5.597 4,9 -2.711,-3.712 -6.044,-6.712 -10,-9 z"
         id="path325" />
    </g>
    <g
       id="g326"
       style="clip-rule:evenodd;fill-rule:evenodd;image-rendering:optimizeQuality;shape-rendering:geometricPrecision;text-rendering:geometricPrecision"
       transform="matrix(0.26458333,0,0,0.26458333,-172.34822,-104.16941)">
      <path
         style="opacity:1"
         fill="#0b3b70"
         d="m 851.5,504.5 c -0.26,8.537 2.74,15.704 9,21.5 1.293,0.49 2.627,0.657 4,0.5 1.333,0.667 2.667,1.333 4,2 0.709,0.904 1.709,1.237 3,1 1.547,-2.307 2.213,-4.973 2,-8 -0.059,-2.391 -0.393,-4.725 -1,-7 1.859,-1.692 3.859,-3.192 6,-4.5 5.951,-0.313 11.784,-0.479 17.5,-0.5 1.978,2.624 2.812,5.624 2.5,9 0.213,3.027 -0.453,5.693 -2,8 0,-4 0,-8 0,-12 -7.333,0 -14.667,0 -22,0 -0.166,5.676 10e-4,11.343 0.5,17 3.049,3.305 5.716,3.305 8,0 0.495,1.973 0.662,3.973 0.5,6 1,0 2,0 3,0 -0.32,-3.398 0.013,-6.732 1,-10 0.827,3.959 1.327,7.959 1.5,12 1.506,1.565 3.006,1.899 4.5,1 1.1,1.777 1.934,3.777 2.5,6 0.333,-0.333 0.667,-0.667 1,-1 2.192,1.735 4.692,2.902 7.5,3.5 5.236,5.289 11.57,8.455 19,9.5 -0.086,0.996 0.248,1.829 1,2.5 5.254,1.627 9.92,4.294 14,8 4.886,1.622 9.553,3.456 14,5.5 1.709,4.372 5.042,6.538 10,6.5 2.084,0.697 3.751,1.864 5,3.5 -1.935,-0.65 -3.935,-0.983 -6,-1 -26.059,-14.027 -52.059,-28.027 -78,-42 -0.667,-0.333 -1.333,-0.667 -2,-1 -9.351,-4.428 -18.184,-9.761 -26.5,-16 -0.743,2.374 -0.243,4.374 1.5,6 -2.198,-0.091 -2.531,0.575 -1,2 -0.667,0 -1,0.333 -1,1 -1.501,2.674 -2.501,2.507 -3,-0.5 1.036,-2.408 1.036,-4.741 0,-7 2.667,-0.667 2.667,-1.333 0,-2 0.393,-6.115 0.393,-12.615 0,-19.5 z"
         id="path326" />
    </g>
    <g
       id="g327"
       style="clip-rule:evenodd;fill-rule:evenodd;image-rendering:optimizeQuality;shape-rendering:geometricPrecision;text-rendering:geometricPrecision"
       transform="matrix(0.26458333,0,0,0.26458333,-172.34822,-104.16941)">
      <path
         style="opacity:1"
         fill="#4b6581"
         d="m 871.5,512.5 c 0,5.667 0,11.333 0,17 -1.291,0.237 -2.291,-0.096 -3,-1 1.644,-5.09 2.644,-10.423 3,-16 z"
         id="path327" />
    </g>
    <g
       id="g332"
       style="clip-rule:evenodd;fill-rule:evenodd;image-rendering:optimizeQuality;shape-rendering:geometricPrecision;text-rendering:geometricPrecision"
       transform="matrix(0.26458333,0,0,0.26458333,-172.34822,-104.16941)">
      <path
         style="opacity:1"
         fill="#a1b8d0"
         d="m 763.5,536.5 c 0.333,0 0.667,0 1,0 0.997,2.828 0.997,5.495 0,8 -0.333,-2.667 -0.667,-5.333 -1,-8 z"
         id="path332" />
    </g>
    <g
       id="g333"
       style="clip-rule:evenodd;fill-rule:evenodd;image-rendering:optimizeQuality;shape-rendering:geometricPrecision;text-rendering:geometricPrecision"
       transform="matrix(0.26458333,0,0,0.26458333,-172.34822,-104.16941)">
      <path
         style="opacity:1"
         fill="#894b4f"
         d="m 821.5,560.5 c -3.186,-6.106 -3.686,-12.439 -1.5,-19 2.069,-1.585 4.236,-2.919 6.5,-4 5.081,-2.127 8.414,-0.46 10,5 2.847,1.546 4.847,3.712 6,6.5 -0.255,1.326 -0.922,2.326 -2,3 1.054,1.388 1.22,2.888 0.5,4.5 -0.667,1.333 -1.333,1.333 -2,0 -0.645,1.146 -1.478,2.146 -2.5,3 -0.016,3.448 -1.516,6.448 -4.5,9 -3.65,-2.563 -7.15,-5.23 -10.5,-8 z"
         id="path333" />
    </g>
    <g
       id="g335"
       style="clip-rule:evenodd;fill-rule:evenodd;image-rendering:optimizeQuality;shape-rendering:geometricPrecision;text-rendering:geometricPrecision"
       transform="matrix(0.26458333,0,0,0.26458333,-172.34822,-104.16941)">
      <path
         style="opacity:1"
         fill="#195ea2"
         d="m 855.5,532.5 c 3.872,2.097 7.539,4.431 11,7 -0.814,1.773 -2.148,2.273 -4,1.5 1.333,-0.667 1.333,-1.333 0,-2 -2.043,-0.93 -3.876,-1.43 -5.5,-1.5 0.667,1.667 0.667,3.333 0,5 2.409,-2.667 3.576,-2.501 3.5,0.5 -0.302,1.655 -1.636,2.988 -4,4 1.167,0.5 2,1.333 2.5,2.5 0.249,-1.124 0.749,-2.124 1.5,-3 0.411,0.762 0.577,1.762 0.5,3 0.741,-1.141 1.575,-1.141 2.5,0 1.45,-2.641 2.117,-2.308 2,1 -0.167,1 -0.333,2 -0.5,3 -1.364,-0.758 -2.531,-0.258 -3.5,1.5 -1.293,0.49 -2.627,0.657 -4,0.5 -0.711,3.364 0.456,5.697 3.5,7 2.948,-1.543 3.782,-3.71 2.5,-6.5 1.242,-0.311 2.242,0.189 3,1.5 0.333,-0.667 0.667,-1.333 1,-2 1.22,0.387 1.887,1.22 2,2.5 -0.893,3.411 -2.726,5.244 -5.5,5.5 -2.25,1.208 -4.417,2.541 -6.5,4 1.024,1.352 2.024,2.685 3,4 -2,0 -4,0 -6,0 0,-12.667 0,-25.333 0,-38 0,-0.667 0.333,-1 1,-1 z"
         id="path335" />
    </g>
    <g
       id="g354"
       style="clip-rule:evenodd;fill-rule:evenodd;image-rendering:optimizeQuality;shape-rendering:geometricPrecision;text-rendering:geometricPrecision"
       transform="matrix(0.26458333,0,0,0.26458333,-172.34822,-104.16941)">
      <path
         style="opacity:1"
         fill="#dfebf1"
         d="m 899.5,534.5 c 0,3 0,6 0,9 8.617,3.082 16.951,6.915 25,11.5 1.939,0.908 2.939,2.408 3,4.5 -1.333,-0.333 -2.667,-0.667 -4,-1 -8.519,-4.848 -17.019,-9.848 -25.5,-15 -0.32,-3.22 0.18,-6.22 1.5,-9 z"
         id="path354" />
    </g>
    <g
       id="g355"
       style="clip-rule:evenodd;fill-rule:evenodd;image-rendering:optimizeQuality;shape-rendering:geometricPrecision;text-rendering:geometricPrecision"
       transform="matrix(0.26458333,0,0,0.26458333,-172.34822,-104.16941)">
      <path
         style="opacity:1"
         fill="#5f2e33"
         d="m 828.5,542.5 c 9.728,0.532 11.394,4.365 5,11.5 -5.134,1.042 -7.801,-1.124 -8,-6.5 0.271,-2.193 1.271,-3.859 3,-5 z"
         id="path355" />
    </g>
    <g
       id="g356"
       style="clip-rule:evenodd;fill-rule:evenodd;image-rendering:optimizeQuality;shape-rendering:geometricPrecision;text-rendering:geometricPrecision"
       transform="matrix(0.26458333,0,0,0.26458333,-172.34822,-104.16941)">
      <path
         style="opacity:1"
         fill="#e9cbd3"
         d="m 829.5,544.5 c 4.514,0.193 5.847,2.36 4,6.5 -5.762,0.418 -7.096,-1.749 -4,-6.5 z"
         id="path356" />
    </g>
    <g
       id="g357"
       style="clip-rule:evenodd;fill-rule:evenodd;image-rendering:optimizeQuality;shape-rendering:geometricPrecision;text-rendering:geometricPrecision"
       transform="matrix(0.26458333,0,0,0.26458333,-172.34822,-104.16941)">
      <path
         style="opacity:1"
         fill="#1860aa"
         d="m 866.5,539.5 c 0.333,0 0.667,0 1,0 0.035,4.035 0.035,8.202 0,12.5 1.867,0.711 3.367,0.211 4.5,-1.5 2.735,2.51 4.235,2.177 4.5,-1 1.299,0.59 2.132,1.59 2.5,3 0.333,-0.333 0.667,-0.667 1,-1 0.219,1.438 0.719,2.771 1.5,4 0.335,-1.164 0.335,-2.497 0,-4 0.747,-0.236 1.58,-0.57 2.5,-1 1,1.333 2,2.667 3,4 0.333,-0.333 0.667,-0.667 1,-1 0.906,2.112 2.406,2.945 4.5,2.5 -2.381,-1.247 -2.047,-1.58 1,-1 1.333,1.333 2.667,2.667 4,4 -1.431,0.465 -2.597,1.299 -3.5,2.5 -0.333,-0.333 -0.667,-0.667 -1,-1 -0.483,0.948 -0.649,1.948 -0.5,3 -1.052,0.149 -2.052,-0.017 -3,-0.5 0.333,-0.333 0.667,-0.667 1,-1 -1.167,-0.5 -2,-1.333 -2.5,-2.5 -0.956,1.079 -1.789,2.245 -2.5,3.5 3.073,0.697 5.073,2.53 6,5.5 -1.574,1.131 -3.241,1.298 -5,0.5 0.951,-0.718 1.117,-1.551 0.5,-2.5 -0.741,1.141 -1.575,1.141 -2.5,0 -1.951,3.1 -4.118,3.434 -6.5,1 -1.15,0.924 -2.15,0.924 -3,0 -1.032,1.527 -2.199,2.86 -3.5,4 -3.667,0 -7.333,0 -11,0 -0.976,-1.315 -1.976,-2.648 -3,-4 2.083,-1.459 4.25,-2.792 6.5,-4 2.774,-0.256 4.607,-2.089 5.5,-5.5 -0.113,-1.28 -0.78,-2.113 -2,-2.5 -0.333,0.667 -0.667,1.333 -1,2 -0.758,-1.311 -1.758,-1.811 -3,-1.5 1.282,2.79 0.448,4.957 -2.5,6.5 -3.044,-1.303 -4.211,-3.636 -3.5,-7 1.373,0.157 2.707,-0.01 4,-0.5 0.969,-1.758 2.136,-2.258 3.5,-1.5 0.167,-1 0.333,-2 0.5,-3 0.117,-3.308 -0.55,-3.641 -2,-1 -0.925,-1.141 -1.759,-1.141 -2.5,0 0.077,-1.238 -0.089,-2.238 -0.5,-3 -0.751,0.876 -1.251,1.876 -1.5,3 -0.5,-1.167 -1.333,-2 -2.5,-2.5 2.364,-1.012 3.698,-2.345 4,-4 0.076,-3.001 -1.091,-3.167 -3.5,-0.5 0.667,-1.667 0.667,-3.333 0,-5 1.624,0.07 3.457,0.57 5.5,1.5 1.333,0.667 1.333,1.333 0,2 1.852,0.773 3.186,0.273 4,-1.5 z"
         id="path357" />
    </g>
    <g
       id="g358"
       style="clip-rule:evenodd;fill-rule:evenodd;image-rendering:optimizeQuality;shape-rendering:geometricPrecision;text-rendering:geometricPrecision"
       transform="matrix(0.26458333,0,0,0.26458333,-172.34822,-104.16941)">
      <path
         style="opacity:1"
         fill="#3c7cbb"
         d="m 777.5,541.5 c 1.844,0.704 2.344,2.037 1.5,4 -30.62,16.393 -61.453,32.393 -92.5,48 0.238,-1.904 1.238,-3.238 3,-4 29.661,-15.495 58.995,-31.495 88,-48 z"
         id="path358" />
    </g>
    <g
       id="g364"
       style="clip-rule:evenodd;fill-rule:evenodd;image-rendering:optimizeQuality;shape-rendering:geometricPrecision;text-rendering:geometricPrecision"
       transform="matrix(0.26458333,0,0,0.26458333,-172.34822,-104.16941)">
      <path
         style="opacity:1"
         fill="#213f60"
         d="m 923.5,558.5 c 1.333,0.333 2.667,0.667 4,1 8.499,4.748 16.832,9.748 25,15 -4.447,-2.044 -9.114,-3.878 -14,-5.5 -4.08,-3.706 -8.746,-6.373 -14,-8 -0.752,-0.671 -1.086,-1.504 -1,-2.5 z"
         id="path364" />
    </g>
    <g
       id="g368"
       style="clip-rule:evenodd;fill-rule:evenodd;image-rendering:optimizeQuality;shape-rendering:geometricPrecision;text-rendering:geometricPrecision"
       transform="matrix(0.26458333,0,0,0.26458333,-172.34822,-104.16941)">
      <path
         style="opacity:1"
         fill="#203f64"
         d="m 763.5,545.5 c 0.086,0.996 -0.248,1.829 -1,2.5 -5.781,3.451 -11.781,6.451 -18,9 -1.55,2.525 -3.717,4.359 -6.5,5.5 -0.333,-0.333 -0.667,-0.667 -1,-1 -4.608,3.554 -9.775,5.887 -15.5,7 13.703,-8.185 27.703,-15.852 42,-23 z"
         id="path368" />
    </g>
    <g
       id="g369"
       style="clip-rule:evenodd;fill-rule:evenodd;image-rendering:optimizeQuality;shape-rendering:geometricPrecision;text-rendering:geometricPrecision"
       transform="matrix(0.26458333,0,0,0.26458333,-172.34822,-104.16941)">
      <path
         style="opacity:1"
         fill="#3d7bbc"
         d="m 883.5,541.5 c 25.941,13.973 51.941,27.973 78,42 4.937,2.806 9.937,5.639 15,8.5 -2.413,0.484 -4.746,0.15 -7,-1 -28.175,-15.255 -56.508,-30.255 -85,-45 -0.88,-1.356 -1.214,-2.856 -1,-4.5 z"
         id="path369" />
    </g>
    <g
       id="g371"
       style="clip-rule:evenodd;fill-rule:evenodd;image-rendering:optimizeQuality;shape-rendering:geometricPrecision;text-rendering:geometricPrecision"
       transform="matrix(0.26458333,0,0,0.26458333,-172.34822,-104.16941)">
      <path
         style="opacity:1"
         fill="#2e548b"
         d="m 840.5,535.5 c 1.693,0.975 3.193,2.308 4.5,4 0.778,2.684 2.111,5.017 4,7 0.383,-0.556 0.883,-0.889 1.5,-1 0,3.333 0,6.667 0,10 -5.478,4.258 -8.978,9.925 -10.5,17 -0.75,0.626 -1.584,1.126 -2.5,1.5 0.333,0.333 0.667,0.667 1,1 -3.752,2.416 -7.585,2.916 -11.5,1.5 -1.908,-2.965 -4.074,-5.632 -6.5,-8 -0.966,-1.896 -1.299,-3.896 -1,-6 3.299,4.966 7.299,9.299 12,13 6.342,-4.982 11.009,-11.316 14,-19 0.333,-1.833 0.667,-3.667 1,-5.5 -0.047,-2.295 -0.713,-4.129 -2,-5.5 0,-0.333 0,-0.667 0,-1 -0.573,-3.403 -1.906,-6.403 -4,-9 z"
         id="path371" />
    </g>
    <g
       id="g372"
       style="clip-rule:evenodd;fill-rule:evenodd;image-rendering:optimizeQuality;shape-rendering:geometricPrecision;text-rendering:geometricPrecision"
       transform="matrix(0.26458333,0,0,0.26458333,-172.34822,-104.16941)">
      <path
         style="opacity:1"
         fill="#824d56"
         d="m 834.5,535.5 c 3.956,2.288 7.289,5.288 10,9 0,0.333 0,0.667 0,1 0.041,5.261 -1.126,10.261 -3.5,15 -2.596,4.431 -5.762,8.431 -9.5,12 -3.808,-3.622 -7.141,-7.622 -10,-12 3.35,2.77 6.85,5.437 10.5,8 2.984,-2.552 4.484,-5.552 4.5,-9 1.022,-0.854 1.855,-1.854 2.5,-3 0.667,1.333 1.333,1.333 2,0 0.72,-1.612 0.554,-3.112 -0.5,-4.5 1.078,-0.674 1.745,-1.674 2,-3 -1.153,-2.788 -3.153,-4.954 -6,-6.5 -1.586,-5.46 -4.919,-7.127 -10,-5 2.28,-1.723 4.947,-2.389 8,-2 z"
         id="path372" />
    </g>
    <g
       id="g375"
       style="clip-rule:evenodd;fill-rule:evenodd;image-rendering:optimizeQuality;shape-rendering:geometricPrecision;text-rendering:geometricPrecision"
       transform="matrix(0.26458333,0,0,0.26458333,-172.34822,-104.16941)">
      <path
         style="opacity:1"
         fill="#4a3a57"
         d="m 834.5,535.5 c -3.053,-0.389 -5.72,0.277 -8,2 -2.264,1.081 -4.431,2.415 -6.5,4 -2.186,6.561 -1.686,12.894 1.5,19 2.859,4.378 6.192,8.378 10,12 3.738,-3.569 6.904,-7.569 9.5,-12 2.374,-4.739 3.541,-9.739 3.5,-15 1.287,1.371 1.953,3.205 2,5.5 -0.333,1.833 -0.667,3.667 -1,5.5 -2.991,7.684 -7.658,14.018 -14,19 -4.701,-3.701 -8.701,-8.034 -12,-13 -4.25,-8.619 -3.917,-16.953 1,-25 4.533,-2.814 9.2,-3.481 14,-2 z"
         id="path375" />
    </g>
    <g
       id="g376"
       style="clip-rule:evenodd;fill-rule:evenodd;image-rendering:optimizeQuality;shape-rendering:geometricPrecision;text-rendering:geometricPrecision"
       transform="matrix(0.26458333,0,0,0.26458333,-172.34822,-104.16941)">
      <path
         style="opacity:1"
         fill="#064180"
         d="m 856.5,530.5 c 7.685,4.844 15.685,9.177 24,13 0.886,-0.825 1.219,-1.825 1,-3 0.667,0.333 1.333,0.667 2,1 -0.214,1.644 0.12,3.144 1,4.5 28.492,14.745 56.825,29.745 85,45 2.254,1.15 4.587,1.484 7,1 -5.063,-2.861 -10.063,-5.694 -15,-8.5 2.065,0.017 4.065,0.35 6,1 3.083,1.476 6.083,3.143 9,5 1.194,0.772 2.194,1.772 3,3 -1.548,0.321 -2.215,1.321 -2,3 -4.033,-1.173 -8.033,-2.673 -12,-4.5 -32.598,-17.464 -65.265,-34.631 -98,-51.5 -0.333,0 -0.667,0 -1,0 -3.461,-2.569 -7.128,-4.903 -11,-7 -1.531,-1.425 -1.198,-2.091 1,-2 z"
         id="path376" />
    </g>
    <g
       id="g378"
       style="clip-rule:evenodd;fill-rule:evenodd;image-rendering:optimizeQuality;shape-rendering:geometricPrecision;text-rendering:geometricPrecision"
       transform="matrix(0.26458333,0,0,0.26458333,-172.34822,-104.16941)">
      <path
         style="opacity:1"
         fill="#1c3759"
         d="m 721.5,568.5 c -2.343,2.368 -5.009,4.535 -8,6.5 -3.36,2.064 -7.026,3.231 -11,3.5 5.851,-4.094 12.185,-7.427 19,-10 z"
         id="path378" />
    </g>
    <g
       id="g379"
       style="clip-rule:evenodd;fill-rule:evenodd;image-rendering:optimizeQuality;shape-rendering:geometricPrecision;text-rendering:geometricPrecision"
       transform="matrix(0.26458333,0,0,0.26458333,-172.34822,-104.16941)">
      <path
         style="opacity:1"
         fill="#093e78"
         d="m 812.5,468.5 c -0.245,10.182 -0.245,20.516 0,31 0,37.333 0,74.667 0,112 -1.54,-10.203 -2.373,-20.536 -2.5,-31 -6,1.333 -12,1.333 -18,0 -1.402,2.473 -2.902,2.473 -4.5,0 -4.184,-0.911 -8.518,-0.911 -13,0 -0.462,-2.257 -1.462,-4.257 -3,-6 -14.209,4.347 -28.209,9.18 -42,14.5 -2.063,1.572 -2.729,3.405 -2,5.5 5.502,-2.279 11.169,-3.946 17,-5 -1.592,2.387 -3.925,3.72 -7,4 -1.303,-1.218 -2.303,-0.885 -3,1 -0.586,-0.209 -1.086,-0.543 -1.5,-1 -1.243,2.333 -2.909,3 -5,2 -4.444,2.654 -9.277,4.154 -14.5,4.5 -0.457,0.414 -0.791,0.914 -1,1.5 -6.085,1.213 -12.085,2.713 -18,4.5 -2.021,0.513 -3.521,1.68 -4.5,3.5 -4.25,-1.293 -7.417,0.041 -9.5,4 -0.667,0 -1.333,0 -2,0 -2.292,0.256 -4.459,-0.077 -6.5,-1 0.755,-2.133 1.255,-4.133 1.5,-6 0.472,-2.031 1.472,-3.698 3,-5 -0.829,2.969 -0.995,5.969 -0.5,9 16.071,-5.46 32.237,-10.46 48.5,-15 0.429,-2.863 1.429,-5.529 3,-8 14.895,-5.742 29.895,-11.075 45,-16 0.333,0 0.667,0 1,0 1.371,1.759 2.371,3.759 3,6 1.545,0.952 3.212,1.285 5,1 -0.183,-2.436 0.484,-4.603 2,-6.5 8.327,-0.5 16.66,-0.666 25,-0.5 0.332,-13.017 -10e-4,-26.017 -1,-39 -13.955,7.319 -27.621,14.986 -41,23 -26.044,12.571 -51.71,25.738 -77,39.5 -0.833,0.167 -1.667,0.333 -2.5,0.5 -1.376,-0.184 -2.209,-0.851 -2.5,-2 0.667,0 1.333,0 2,0 31.047,-15.607 61.88,-31.607 92.5,-48 0.844,-1.963 0.344,-3.296 -1.5,-4 0.453,-0.958 1.119,-1.792 2,-2.5 -0.228,-0.399 -0.562,-0.565 -1,-0.5 0.945,-4.905 1.279,-9.905 1,-15 -1,0 -2,0 -3,0 0,5 0,10 0,15 -1.109,0.057 -2.109,0.39 -3,1 0.113,-6.454 1.113,-12.62 3,-18.5 1.867,-0.711 3.367,-0.211 4.5,1.5 0.499,4.321 0.666,8.654 0.5,13 2.161,-0.326 3.994,-1.326 5.5,-3 0.359,-6.023 0.859,-12.023 1.5,-18 -7,0 -14,0 -21,0 0.453,-0.958 1.119,-1.792 2,-2.5 5.102,-2.343 10.436,-3.01 16,-2 4.597,3.871 5.597,8.371 3,13.5 -0.422,2.808 0.578,4.808 3,6 1.528,0.809 3.194,1.476 5,2 -3.943,2.978 -8.277,5.478 -13,7.5 -1.054,1.388 -1.22,2.888 -0.5,4.5 8.996,-3.994 17.33,-8.994 25,-15 0.765,-1.566 0.598,-2.899 -0.5,-4 0.528,-1.221 1.195,-2.387 2,-3.5 -0.033,-4.87 -0.033,-9.703 0,-14.5 0.029,-1.529 0.696,-2.696 2,-3.5 -1.085,-7.469 -1.752,-14.802 -2,-22 0.637,-4.341 1.637,-8.508 3,-12.5 z"
         id="path379" />
    </g>
    <g
       id="g380"
       style="clip-rule:evenodd;fill-rule:evenodd;image-rendering:optimizeQuality;shape-rendering:geometricPrecision;text-rendering:geometricPrecision"
       transform="matrix(0.26458333,0,0,0.26458333,-172.34822,-104.16941)">
      <path
         style="opacity:1"
         fill="#2162a5"
         d="m 784.5,574.5 c 8,0 16,0 24,0 0,1.667 0,3.333 0,5 -7.995,-0.435 -15.995,-0.769 -24,-1 0,-1.333 0,-2.667 0,-4 z"
         id="path380" />
    </g>
    <g
       id="g381"
       style="clip-rule:evenodd;fill-rule:evenodd;image-rendering:optimizeQuality;shape-rendering:geometricPrecision;text-rendering:geometricPrecision"
       transform="matrix(0.26458333,0,0,0.26458333,-172.34822,-104.16941)">
      <path
         style="opacity:1"
         fill="#1b5da0"
         d="m 773.5,571.5 c 2.738,-0.535 4.572,0.465 5.5,3 1.039,-2.513 2.372,-4.847 4,-7 1.688,3.526 3.855,3.859 6.5,1 0.586,0.209 1.086,0.543 1.5,1 -0.019,-1.607 -0.185,-3.274 -0.5,-5 1.967,0.239 3.801,-0.094 5.5,-1 1.702,6.613 4.869,7.613 9.5,3 -0.227,-2.171 -0.56,-4.338 -1,-6.5 0.808,-0.308 1.475,-0.808 2,-1.5 -0.667,-1.667 -1.333,-3.333 -2,-5 1.892,-2.381 2.392,-5.047 1.5,-8 -0.914,1.154 -1.747,0.987 -2.5,-0.5 0.667,-1.667 1.333,-3.333 2,-5 -1.549,0.522 -3.049,0.355 -4.5,-0.5 -1.506,1.828 -3.173,2.162 -5,1 -1.437,1.721 -0.937,3.221 1.5,4.5 -1.293,0.49 -2.627,0.657 -4,0.5 -0.16,3.736 -0.993,3.736 -2.5,0 -4.084,1.499 -7.917,3.499 -11.5,6 -0.586,-0.209 -1.086,-0.543 -1.5,-1 -2.857,2.87 -6.19,4.87 -10,6 -0.383,-0.556 -0.883,-0.889 -1.5,-1 13.379,-8.014 27.045,-15.681 41,-23 0.999,12.983 1.332,25.983 1,39 -8.34,-0.166 -16.673,0 -25,0.5 -1.516,1.897 -2.183,4.064 -2,6.5 -1.788,0.285 -3.455,-0.048 -5,-1 -0.629,-2.241 -1.629,-4.241 -3,-6 z"
         id="path381" />
    </g>
    <g
       id="g382"
       style="clip-rule:evenodd;fill-rule:evenodd;image-rendering:optimizeQuality;shape-rendering:geometricPrecision;text-rendering:geometricPrecision"
       transform="matrix(0.26458333,0,0,0.26458333,-172.34822,-104.16941)">
      <path
         style="opacity:1"
         fill="#185da8"
         d="m 773.5,571.5 c -0.333,0 -0.667,0 -1,0 -0.311,-0.978 -0.978,-1.645 -2,-2 -1.735,0.557 -3.402,0.89 -5,1 -1.219,-0.763 -2.219,-1.763 -3,-3 -2.461,0.807 -4.794,0.307 -7,-1.5 1.243,-1.154 2.243,-2.488 3,-4 1.634,-0.494 3.301,-0.66 5,-0.5 0,-1.333 0,-2.667 0,-4 1.679,0.215 2.679,-0.452 3,-2 0.617,0.111 1.117,0.444 1.5,1 3.81,-1.13 7.143,-3.13 10,-6 0.414,0.457 0.914,0.791 1.5,1 3.583,-2.501 7.416,-4.501 11.5,-6 1.507,3.736 2.34,3.736 2.5,0 1.373,0.157 2.707,-0.01 4,-0.5 -2.437,-1.279 -2.937,-2.779 -1.5,-4.5 1.827,1.162 3.494,0.828 5,-1 1.451,0.855 2.951,1.022 4.5,0.5 -0.667,1.667 -1.333,3.333 -2,5 0.753,1.487 1.586,1.654 2.5,0.5 0.892,2.953 0.392,5.619 -1.5,8 0.667,1.667 1.333,3.333 2,5 -0.525,0.692 -1.192,1.192 -2,1.5 0.44,2.162 0.773,4.329 1,6.5 -4.631,4.613 -7.798,3.613 -9.5,-3 -1.699,0.906 -3.533,1.239 -5.5,1 0.315,1.726 0.481,3.393 0.5,5 -0.414,-0.457 -0.914,-0.791 -1.5,-1 -2.645,2.859 -4.812,2.526 -6.5,-1 -1.628,2.153 -2.961,4.487 -4,7 -0.928,-2.535 -2.762,-3.535 -5.5,-3 z"
         id="path382" />
    </g>
    <g
       id="g383"
       style="clip-rule:evenodd;fill-rule:evenodd;image-rendering:optimizeQuality;shape-rendering:geometricPrecision;text-rendering:geometricPrecision"
       transform="matrix(0.26458333,0,0,0.26458333,-172.34822,-104.16941)">
      <path
         style="opacity:1"
         fill="#3f81bf"
         d="m 807.5,524.5 c 1.098,1.101 1.265,2.434 0.5,4 -7.67,6.006 -16.004,11.006 -25,15 -0.72,-1.612 -0.554,-3.112 0.5,-4.5 4.723,-2.022 9.057,-4.522 13,-7.5 4.146,-1.573 7.813,-3.907 11,-7 z"
         id="path383" />
    </g>
    <g
       id="g384"
       style="clip-rule:evenodd;fill-rule:evenodd;image-rendering:optimizeQuality;shape-rendering:geometricPrecision;text-rendering:geometricPrecision"
       transform="matrix(0.26458333,0,0,0.26458333,-172.34822,-104.16941)">
      <path
         style="opacity:1"
         fill="#2b66a2"
         d="m 778.5,538.5 c -0.667,0 -1.333,0 -2,0 0,-5 0,-10 0,-15 1,0 2,0 3,0 0.279,5.095 -0.055,10.095 -1,15 z"
         id="path384" />
    </g>
    <g
       id="g386"
       style="clip-rule:evenodd;fill-rule:evenodd;image-rendering:optimizeQuality;shape-rendering:geometricPrecision;text-rendering:geometricPrecision"
       transform="matrix(0.26458333,0,0,0.26458333,-172.34822,-104.16941)">
      <path
         style="opacity:1"
         fill="#155da7"
         d="m 814.5,597.5 c 0,-0.333 0,-0.667 0,-1 1.437,-1.225 3.104,-2.225 5,-3 1.141,-0.925 1.141,-1.759 0,-2.5 0.667,-0.333 1.333,-0.667 2,-1 -2.151,0.387 -4.151,1.053 -6,2 -0.088,-3.895 0.912,-7.728 3,-11.5 1.299,0.59 2.132,1.59 2.5,3 0.333,-0.667 0.667,-1.333 1,-2 1,0.333 2,0.667 3,1 0.368,-1.41 1.201,-2.41 2.5,-3 2.128,1.038 3.128,2.371 3,4 1.72,-1.455 3.72,-2.288 6,-2.5 -1.402,-1.342 -1.069,-2.176 1,-2.5 1.529,0.029 2.696,0.696 3.5,2 0.833,-0.833 1.667,-1.667 2.5,-2.5 0.034,-2.548 -0.299,-5.215 -1,-8 2.135,-0.635 4.135,-0.301 6,1 -0.193,1.645 -0.36,3.479 -0.5,5.5 -1.771,0.804 -3.271,1.971 -4.5,3.5 0.949,0.617 1.782,0.451 2.5,-0.5 0.617,0.949 0.451,1.782 -0.5,2.5 1.211,0.787 2.211,1.454 3,2 -2.269,3.925 -2.269,7.925 0,12 -0.869,1.869 -2.035,2.369 -3.5,1.5 -0.75,0.626 -1.584,1.126 -2.5,1.5 4.608,-0.365 5.608,0.969 3,4 1.372,1.242 2.372,2.742 3,4.5 0.353,4.496 -0.313,9.662 -2,15.5 0.145,0.772 0.478,1.439 1,2 -2.209,1.691 -4.042,1.524 -5.5,-0.5 -0.783,1.933 -0.283,3.433 1.5,4.5 -4.298,3.576 -8.131,3.076 -11.5,-1.5 -1.94,2.895 -4.44,5.228 -7.5,7 -0.333,0.667 -0.667,1.333 -1,2 2.326,5.04 3.16,9.706 2.5,14 -0.667,-0.667 -1.333,-1.333 -2,-2 -0.368,1.41 -1.201,2.41 -2.5,3 -1.209,-1.915 -2.542,-3.748 -4,-5.5 2.818,-3.823 3.985,-7.99 3.5,-12.5 0.667,-1.333 1.333,-1.333 2,0 0.948,-2.07 2.448,-3.57 4.5,-4.5 -0.333,-0.333 -0.667,-0.667 -1,-1 1,-0.333 2,-0.667 3,-1 -1.308,-2.355 -2.308,-4.855 -3,-7.5 -4.298,2.191 -7.964,1.191 -11,-3 0.146,-2.306 0.479,-4.639 1,-7 -0.609,-4.135 -1.276,-8.135 -2,-12 z"
         id="path386" />
    </g>
    <g
       id="g387"
       style="clip-rule:evenodd;fill-rule:evenodd;image-rendering:optimizeQuality;shape-rendering:geometricPrecision;text-rendering:geometricPrecision"
       transform="matrix(0.26458333,0,0,0.26458333,-172.34822,-104.16941)">
      <path
         style="opacity:1"
         fill="#1f3e62"
         d="m 952.5,574.5 c 9.659,4.495 18.992,9.495 28,15 -1.333,0 -2.667,0 -4,0 -2.917,-1.857 -5.917,-3.524 -9,-5 -1.249,-1.636 -2.916,-2.803 -5,-3.5 -4.958,0.038 -8.291,-2.128 -10,-6.5 z"
         id="path387" />
    </g>
    <g
       id="g388"
       style="clip-rule:evenodd;fill-rule:evenodd;image-rendering:optimizeQuality;shape-rendering:geometricPrecision;text-rendering:geometricPrecision"
       transform="matrix(0.26458333,0,0,0.26458333,-172.34822,-104.16941)">
      <path
         style="opacity:1"
         fill="#225793"
         d="m 812.5,499.5 c 0.972,1.368 1.972,2.868 3,4.5 -0.667,0.333 -1.333,0.667 -2,1 0.164,5.92 0.497,11.753 1,17.5 0,0.333 0,0.667 0,1 -0.291,4.677 -0.625,9.011 -1,13 1.699,0.16 3.366,-0.006 5,-0.5 0.969,-1.758 2.136,-2.258 3.5,-1.5 2.757,-1.527 5.757,-2.193 9,-2 2.167,0.167 4.333,0.333 6.5,0.5 1.442,0.377 2.442,1.21 3,2.5 -2,0 -4,0 -6,0 -4.8,-1.481 -9.467,-0.814 -14,2 -4.917,8.047 -5.25,16.381 -1,25 -1.89,0.203 -3.39,-0.463 -4.5,-2 -0.309,1.266 -0.809,2.433 -1.5,3.5 0.362,11.071 0.695,21.904 1,32.5 0,0.333 0,0.667 0,1 -0.424,10.677 -0.757,22.011 -1,34 -0.991,-6.479 -1.324,-13.146 -1,-20 0,-37.333 0,-74.667 0,-112 z"
         id="path388" />
    </g>
    <g
       id="g389"
       style="clip-rule:evenodd;fill-rule:evenodd;image-rendering:optimizeQuality;shape-rendering:geometricPrecision;text-rendering:geometricPrecision"
       transform="matrix(0.26458333,0,0,0.26458333,-172.34822,-104.16941)">
      <path
         style="opacity:1"
         fill="#143965"
         d="m 862.5,579.5 c 3.667,0 7.333,0 11,0 2.07,-0.051 3.903,0.615 5.5,2 2.63,-0.073 5.13,-0.073 7.5,0 -2.198,0.375 -4.198,1.042 -6,2 -0.472,3.309 -2.139,5.642 -5,7 -2.08,-1.079 -3.413,-2.745 -4,-5 -2.415,-1.314 -5.248,-1.981 -8.5,-2 -3.021,0.002 -5.854,0.336 -8.5,1 -0.696,3.731 -1.362,7.565 -2,11.5 0.878,8.825 0.878,17.992 0,27.5 -0.667,-0.667 -1.333,-1.333 -2,-2 0,-0.667 0,-1.333 0,-2 0.831,-12.16 1.331,-24.493 1.5,-37 3.167,-0.797 6.667,-1.797 10.5,-3 z"
         id="path389" />
    </g>
    <g
       id="g390"
       style="clip-rule:evenodd;fill-rule:evenodd;image-rendering:optimizeQuality;shape-rendering:geometricPrecision;text-rendering:geometricPrecision"
       transform="matrix(0.26458333,0,0,0.26458333,-172.34822,-104.16941)">
      <path
         style="opacity:1"
         fill="#1e5c9b"
         d="m 774.5,580.5 c -9.332,1.892 -18.332,4.559 -27,8 -1.291,-0.237 -2.291,0.096 -3,1 -5.831,1.054 -11.498,2.721 -17,5 -0.729,-2.095 -0.063,-3.928 2,-5.5 13.791,-5.32 27.791,-10.153 42,-14.5 1.538,1.743 2.538,3.743 3,6 z"
         id="path390" />
    </g>
    <g
       id="g391"
       style="clip-rule:evenodd;fill-rule:evenodd;image-rendering:optimizeQuality;shape-rendering:geometricPrecision;text-rendering:geometricPrecision"
       transform="matrix(0.26458333,0,0,0.26458333,-172.34822,-104.16941)">
      <path
         style="opacity:1"
         fill="#213b5e"
         d="m 805.5,583.5 c -4.532,-0.318 -8.866,0.015 -13,1 -3.162,8.046 -6.496,7.879 -10,-0.5 -4.469,-0.674 -8.636,0.159 -12.5,2.5 -1.128,1.845 -1.628,3.845 -1.5,6 -0.667,0.333 -1.333,0.667 -2,1 -2.473,0.412 -3.806,-0.588 -4,-3 1.028,-0.426 2.361,-0.426 4,0 -0.162,-2.027 0.005,-4.027 0.5,-6 0.974,2.378 1.641,2.044 2,-1 0.333,0.333 0.667,0.667 1,1 3.585,-1.426 7.251,-2.76 11,-4 3.029,1.529 5.195,3.862 6.5,7 1.861,-1.028 3.195,-2.528 4,-4.5 4.852,-0.815 9.519,-0.648 14,0.5 z"
         id="path391" />
    </g>
    <g
       id="g393"
       style="clip-rule:evenodd;fill-rule:evenodd;image-rendering:optimizeQuality;shape-rendering:geometricPrecision;text-rendering:geometricPrecision"
       transform="matrix(0.26458333,0,0,0.26458333,-172.34822,-104.16941)">
      <path
         style="opacity:1"
         fill="#1b5fa2"
         d="m 867.5,539.5 c 32.735,16.869 65.402,34.036 98,51.5 3.967,1.827 7.967,3.327 12,4.5 -0.215,-1.679 0.452,-2.679 2,-3 1.963,1.46 3.796,3.127 5.5,5 0.676,3.702 1.509,7.369 2.5,11 -0.333,0.667 -0.667,1.333 -1,2 -3.514,-1.617 -7.181,-2.617 -11,-3 -0.333,0 -0.667,0 -1,0 -2.903,-2.148 -6.236,-3.648 -10,-4.5 -7.4,-1.748 -14.733,-3.581 -22,-5.5 -0.342,-0.838 -1.008,-1.172 -2,-1 -0.672,-0.767 -1.505,-1.434 -2.5,-2 -0.229,-2.958 -1.396,-5.458 -3.5,-7.5 -14.425,-5.397 -28.925,-10.564 -43.5,-15.5 -2.65,1.069 -4.15,3.069 -4.5,6 -1.545,0.952 -3.212,1.285 -5,1 -0.148,-6.494 -3.481,-8.827 -10,-7 1.301,-1.14 2.468,-2.473 3.5,-4 0.85,0.924 1.85,0.924 3,0 2.382,2.434 4.549,2.1 6.5,-1 0.925,1.141 1.759,1.141 2.5,0 0.617,0.949 0.451,1.782 -0.5,2.5 1.759,0.798 3.426,0.631 5,-0.5 -0.927,-2.97 -2.927,-4.803 -6,-5.5 0.711,-1.255 1.544,-2.421 2.5,-3.5 0.5,1.167 1.333,2 2.5,2.5 -0.333,0.333 -0.667,0.667 -1,1 0.948,0.483 1.948,0.649 3,0.5 -0.149,-1.052 0.017,-2.052 0.5,-3 0.333,0.333 0.667,0.667 1,1 0.903,-1.201 2.069,-2.035 3.5,-2.5 -1.333,-1.333 -2.667,-2.667 -4,-4 -3.047,-0.58 -3.381,-0.247 -1,1 -2.094,0.445 -3.594,-0.388 -4.5,-2.5 -0.333,0.333 -0.667,0.667 -1,1 -1,-1.333 -2,-2.667 -3,-4 -0.92,0.43 -1.753,0.764 -2.5,1 0.335,1.503 0.335,2.836 0,4 -0.781,-1.229 -1.281,-2.562 -1.5,-4 -0.333,0.333 -0.667,0.667 -1,1 -0.368,-1.41 -1.201,-2.41 -2.5,-3 -0.265,3.177 -1.765,3.51 -4.5,1 -1.133,1.711 -2.633,2.211 -4.5,1.5 0.035,-4.298 0.035,-8.465 0,-12.5 z"
         id="path393" />
    </g>
    <g
       id="g405"
       style="clip-rule:evenodd;fill-rule:evenodd;image-rendering:optimizeQuality;shape-rendering:geometricPrecision;text-rendering:geometricPrecision"
       transform="matrix(0.26458333,0,0,0.26458333,-172.34822,-104.16941)">
      <path
         style="opacity:1"
         fill="#a3bacf"
         d="m 871.5,585.5 c -5.24,-0.949 -10.573,-1.282 -16,-1 0.328,11.179 -0.005,22.179 -1,33 0,-11 0,-22 0,-33 2.646,-0.664 5.479,-0.998 8.5,-1 3.252,0.019 6.085,0.686 8.5,2 z"
         id="path405" />
    </g>
    <g
       id="g409"
       style="clip-rule:evenodd;fill-rule:evenodd;image-rendering:optimizeQuality;shape-rendering:geometricPrecision;text-rendering:geometricPrecision"
       transform="matrix(0.26458333,0,0,0.26458333,-172.34822,-104.16941)">
      <path
         style="opacity:1"
         fill="#e3eff3"
         d="m 693.5,582.5 c -6.357,3.602 -12.524,7.602 -18.5,12 -1.009,1.525 -1.509,3.192 -1.5,5 -2.26,4.973 -3.26,10.306 -3,16 2.928,-0.065 5.595,-0.732 8,-2 0.667,0 1.333,0 2,0 0.667,0 1.333,0 2,0 -0.256,2.276 -1.59,3.443 -4,3.5 -2.982,0.498 -5.982,0.665 -9,0.5 -0.224,-2.287 -0.891,-4.453 -2,-6.5 1.553,-5.483 3.053,-10.983 4.5,-16.5 6.111,-5.956 13.278,-9.956 21.5,-12 z"
         id="path409" />
    </g>
    <g
       id="g410"
       style="clip-rule:evenodd;fill-rule:evenodd;image-rendering:optimizeQuality;shape-rendering:geometricPrecision;text-rendering:geometricPrecision"
       transform="matrix(0.26458333,0,0,0.26458333,-172.34822,-104.16941)">
      <path
         style="opacity:1"
         fill="#e6f1f5"
         d="m 792.5,584.5 c 5,0 10,0 15,0 0,9.333 0,18.667 0,28 -0.617,-0.111 -1.117,-0.444 -1.5,-1 -0.333,-8.333 -0.667,-16.667 -1,-25 -6.042,-1.876 -10.542,-0.043 -13.5,5.5 -2.599,0.769 -5.099,0.602 -7.5,-0.5 -0.49,-1.293 -0.657,-2.627 -0.5,-4 -4.014,-0.166 -8.014,10e-4 -12,0.5 -0.899,1.652 -1.899,3.152 -3,4.5 -0.128,-2.155 0.372,-4.155 1.5,-6 3.864,-2.341 8.031,-3.174 12.5,-2.5 3.504,8.379 6.838,8.546 10,0.5 z"
         id="path410" />
    </g>
    <g
       id="g412"
       style="clip-rule:evenodd;fill-rule:evenodd;image-rendering:optimizeQuality;shape-rendering:geometricPrecision;text-rendering:geometricPrecision"
       transform="matrix(0.26458333,0,0,0.26458333,-172.34822,-104.16941)">
      <path
         style="opacity:1"
         fill="#1b5da2"
         d="m 766.5,555.5 c -0.321,1.548 -1.321,2.215 -3,2 0,1.333 0,2.667 0,4 -1.699,-0.16 -3.366,0.006 -5,0.5 -0.757,1.512 -1.757,2.846 -3,4 2.206,1.807 4.539,2.307 7,1.5 0.781,1.237 1.781,2.237 3,3 1.598,-0.11 3.265,-0.443 5,-1 1.022,0.355 1.689,1.022 2,2 -15.105,4.925 -30.105,10.258 -45,16 -1.571,2.471 -2.571,5.137 -3,8 -16.263,4.54 -32.429,9.54 -48.5,15 -0.495,-3.031 -0.329,-6.031 0.5,-9 0.704,-4.704 3.371,-7.371 8,-8 0.291,1.149 1.124,1.816 2.5,2 0.833,-0.167 1.667,-0.333 2.5,-0.5 25.29,-13.762 50.956,-26.929 77,-39.5 z"
         id="path412" />
    </g>
    <g
       id="g414"
       style="clip-rule:evenodd;fill-rule:evenodd;image-rendering:optimizeQuality;shape-rendering:geometricPrecision;text-rendering:geometricPrecision"
       transform="matrix(0.26458333,0,0,0.26458333,-172.34822,-104.16941)">
      <path
         style="opacity:1"
         fill="#0c3f78"
         d="m 848.5,462.5 c 2.012,1.708 2.346,3.708 1,6 0.79,1.109 1.29,2.442 1.5,4 0.5,10.661 0.667,21.328 0.5,32 0.393,6.885 0.393,13.385 0,19.5 2.667,0.667 2.667,1.333 0,2 1.036,2.259 1.036,4.592 0,7 0.499,3.007 1.499,3.174 3,0.5 0,12.667 0,25.333 0,38 2,0 4,0 6,0 3.667,0 7.333,0 11,0 6.519,-1.827 9.852,0.506 10,7 1.788,0.285 3.455,-0.048 5,-1 0.35,-2.931 1.85,-4.931 4.5,-6 14.575,4.936 29.075,10.103 43.5,15.5 2.104,2.042 3.271,4.542 3.5,7.5 0.995,0.566 1.828,1.233 2.5,2 -5.682,-1.04 -11.348,-1.04 -17,0 -1.367,-0.725 -2.7,-1.392 -4,-2 -0.528,-1.221 -1.195,-2.387 -2,-3.5 -5.517,-0.839 -10.683,-2.672 -15.5,-5.5 -0.9,1.898 -2.066,3.564 -3.5,5 -2.916,-4.6 -6.916,-7.6 -12,-9 -2.37,-0.073 -4.87,-0.073 -7.5,0 -1.597,-1.385 -3.43,-2.051 -5.5,-2 1.419,-0.951 3.085,-1.284 5,-1 0,-1.333 0,-2.667 0,-4 -8,0 -16,0 -24,0 0,1.667 0,3.333 0,5 2.667,0 5.333,0 8,0 -3.833,1.203 -7.333,2.203 -10.5,3 -0.169,12.507 -0.669,24.84 -1.5,37 0,-21.333 0,-42.667 0,-64 0,-3.333 0,-6.667 0,-10 0,-23 0,-46 0,-69 -1.788,0.285 -3.455,-0.048 -5,-1 -0.893,-2.584 -1.226,-5.251 -1,-8 0.333,-0.667 0.667,-1.333 1,-2 1,0 2,0 3,0 0,-1 0,-2 0,-3 z"
         id="path414" />
    </g>
    <g
       id="g415"
       style="clip-rule:evenodd;fill-rule:evenodd;image-rendering:optimizeQuality;shape-rendering:geometricPrecision;text-rendering:geometricPrecision"
       transform="matrix(0.26458333,0,0,0.26458333,-172.34822,-104.16941)">
      <path
         style="opacity:1"
         fill="#264468"
         d="m 886.5,581.5 c 5.084,1.4 9.084,4.4 12,9 1.434,-1.436 2.6,-3.102 3.5,-5 4.817,2.828 9.983,4.661 15.5,5.5 0.805,1.113 1.472,2.279 2,3.5 -5.316,-1.66 -10.649,-3.327 -16,-5 -2.029,1.051 -3.863,2.385 -5.5,4 -1.261,-0.259 -2.261,-0.926 -3,-2 -0.45,-2.019 -1.283,-3.852 -2.5,-5.5 -3.878,-1.47 -7.878,-2.303 -12,-2.5 1.802,-0.958 3.802,-1.625 6,-2 z"
         id="path415" />
    </g>
    <g
       id="g416"
       style="clip-rule:evenodd;fill-rule:evenodd;image-rendering:optimizeQuality;shape-rendering:geometricPrecision;text-rendering:geometricPrecision"
       transform="matrix(0.26458333,0,0,0.26458333,-172.34822,-104.16941)">
      <path
         style="opacity:1"
         fill="#1e5e9f"
         d="m 889.5,574.5 c 15.352,4.003 30.352,9.169 45,15.5 0.837,1.011 1.17,2.178 1,3.5 -15.761,-3.953 -31.428,-8.286 -47,-13 0.017,-2.065 0.35,-4.065 1,-6 z"
         id="path416" />
    </g>
    <g
       id="g417"
       style="clip-rule:evenodd;fill-rule:evenodd;image-rendering:optimizeQuality;shape-rendering:geometricPrecision;text-rendering:geometricPrecision"
       transform="matrix(0.26458333,0,0,0.26458333,-172.34822,-104.16941)">
      <path
         style="opacity:1"
         fill="#1d5b9a"
         d="m 873.5,579.5 c -3.667,0 -7.333,0 -11,0 -2.667,0 -5.333,0 -8,0 0,-1.667 0,-3.333 0,-5 8,0 16,0 24,0 0,1.333 0,2.667 0,4 -1.915,-0.284 -3.581,0.049 -5,1 z"
         id="path417" />
    </g>
    <g
       id="g418"
       style="clip-rule:evenodd;fill-rule:evenodd;image-rendering:optimizeQuality;shape-rendering:geometricPrecision;text-rendering:geometricPrecision"
       transform="matrix(0.26458333,0,0,0.26458333,-172.34822,-104.16941)">
      <path
         style="opacity:1"
         fill="#326ca9"
         d="m 849.5,468.5 c 0.299,2.104 -0.034,4.104 -1,6 -1.491,-0.848 -2.158,-2.181 -2,-4 0.047,-2.739 1.047,-3.405 3,-2 z"
         id="path418" />
    </g>
    <g
       id="g420"
       style="clip-rule:evenodd;fill-rule:evenodd;image-rendering:optimizeQuality;shape-rendering:geometricPrecision;text-rendering:geometricPrecision"
       transform="matrix(0.26458333,0,0,0.26458333,-172.34822,-104.16941)">
      <path
         style="opacity:1"
         fill="#193b64"
         d="m 702.5,578.5 c 0.111,0.617 0.444,1.117 1,1.5 -4.02,2.034 -8.02,4.034 -12,6 -1.323,0.816 -1.989,1.983 -2,3.5 -1.762,0.762 -2.762,2.096 -3,4 -0.667,0 -1.333,0 -2,0 -4.629,0.629 -7.296,3.296 -8,8 -1.528,1.302 -2.528,2.969 -3,5 0,-2.333 0,-4.667 0,-7 -0.009,-1.808 0.491,-3.475 1.5,-5 5.976,-4.398 12.143,-8.398 18.5,-12 3,-1.333 6,-2.667 9,-4 z"
         id="path420" />
    </g>
    <g
       id="g421"
       style="clip-rule:evenodd;fill-rule:evenodd;image-rendering:optimizeQuality;shape-rendering:geometricPrecision;text-rendering:geometricPrecision"
       transform="matrix(0.26458333,0,0,0.26458333,-172.34822,-104.16941)">
      <path
         style="opacity:1"
         fill="#1d3e65"
         d="m 747.5,588.5 c 3.756,0.188 7.423,0.521 11,1 -4.442,0.925 -8.775,2.258 -13,4 -1.098,2.132 -2.098,4.298 -3,6.5 -1.634,0.494 -3.301,0.66 -5,0.5 -0.032,-2.067 -1.032,-3.4 -3,-4 -2.916,0.634 -5.582,1.634 -8,3 -13.072,3.094 -25.738,7.094 -38,12 -2.079,0.471 -4.079,1.137 -6,2 -0.667,0 -1.333,0 -2,0 2.083,-3.959 5.25,-5.293 9.5,-4 0.979,-1.82 2.479,-2.987 4.5,-3.5 5.915,-1.787 11.915,-3.287 18,-4.5 0.209,-0.586 0.543,-1.086 1,-1.5 5.223,-0.346 10.056,-1.846 14.5,-4.5 2.091,1 3.757,0.333 5,-2 0.414,0.457 0.914,0.791 1.5,1 0.697,-1.885 1.697,-2.218 3,-1 3.075,-0.28 5.408,-1.613 7,-4 0.709,-0.904 1.709,-1.237 3,-1 z"
         id="path421" />
    </g>
    <g
       id="g422"
       style="clip-rule:evenodd;fill-rule:evenodd;image-rendering:optimizeQuality;shape-rendering:geometricPrecision;text-rendering:geometricPrecision"
       transform="matrix(0.26458333,0,0,0.26458333,-172.34822,-104.16941)">
      <path
         style="opacity:1"
         fill="#d8e7ee"
         d="m 758.5,589.5 c 1.459,-0.067 2.792,0.266 4,1 0.194,2.412 1.527,3.412 4,3 -1.446,1.113 -3.113,1.28 -5,0.5 -0.959,-1.464 -2.292,-2.297 -4,-2.5 -2.766,1.467 -5.766,2.3 -9,2.5 -2.094,2.421 -3.76,5.088 -5,8 -1.936,0.813 -3.936,1.313 -6,1.5 0,-1 0,-2 0,-3 1.699,0.16 3.366,-0.006 5,-0.5 0.902,-2.202 1.902,-4.368 3,-6.5 4.225,-1.742 8.558,-3.075 13,-4 z"
         id="path422" />
    </g>
    <g
       id="g423"
       style="clip-rule:evenodd;fill-rule:evenodd;image-rendering:optimizeQuality;shape-rendering:geometricPrecision;text-rendering:geometricPrecision"
       transform="matrix(0.26458333,0,0,0.26458333,-172.34822,-104.16941)">
      <path
         style="opacity:1"
         fill="#254366"
         d="m 980.5,589.5 c 1.667,0.667 3.333,1.333 5,2 4.801,7.193 7.135,15.193 7,24 -13.485,-3.073 -26.818,-6.74 -40,-11 -7.906,-2.358 -15.739,-5.024 -23.5,-8 -1.714,0.576 -2.881,1.743 -3.5,3.5 -4.336,0.833 -6.336,-1 -6,-5.5 1.3,0.608 2.633,1.275 4,2 5.652,-1.04 11.318,-1.04 17,0 0.992,-0.172 1.658,0.162 2,1 2.835,1.018 5.502,2.518 8,4.5 7.811,2.447 15.811,4.281 24,5.5 0.333,0 0.667,0 1,0 4.315,1.911 8.481,4.245 12.5,7 3.036,-2.694 3.203,-5.527 0.5,-8.5 0.667,-0.333 1.333,-0.667 2,-1 -1.025,-2.071 -1.858,-4.238 -2.5,-6.5 -2.387,-3.21 -4.887,-6.21 -7.5,-9 z"
         id="path423" />
    </g>
    <g
       id="g426"
       style="clip-rule:evenodd;fill-rule:evenodd;image-rendering:optimizeQuality;shape-rendering:geometricPrecision;text-rendering:geometricPrecision"
       transform="matrix(0.26458333,0,0,0.26458333,-172.34822,-104.16941)">
      <path
         style="opacity:1"
         fill="#0f3d72"
         d="m 942.5,597.5 c 7.267,1.919 14.6,3.752 22,5.5 3.764,0.852 7.097,2.352 10,4.5 -8.189,-1.219 -16.189,-3.053 -24,-5.5 -2.498,-1.982 -5.165,-3.482 -8,-4.5 z"
         id="path426" />
    </g>
    <g
       id="g428"
       style="clip-rule:evenodd;fill-rule:evenodd;image-rendering:optimizeQuality;shape-rendering:geometricPrecision;text-rendering:geometricPrecision"
       transform="matrix(0.26458333,0,0,0.26458333,-172.34822,-104.16941)">
      <path
         style="opacity:1"
         fill="#2e4a66"
         d="m 673.5,599.5 c 0,2.333 0,4.667 0,7 -0.245,1.867 -0.745,3.867 -1.5,6 2.041,0.923 4.208,1.256 6.5,1 -2.405,1.268 -5.072,1.935 -8,2 -0.26,-5.694 0.74,-11.027 3,-16 z"
         id="path428" />
    </g>
    <g
       id="g429"
       style="clip-rule:evenodd;fill-rule:evenodd;image-rendering:optimizeQuality;shape-rendering:geometricPrecision;text-rendering:geometricPrecision"
       transform="matrix(0.26458333,0,0,0.26458333,-172.34822,-104.16941)">
      <path
         style="opacity:1"
         fill="#deedf2"
         d="m 726.5,599.5 c -1.974,1.406 -3.974,2.906 -6,4.5 -4.382,0.968 -8.549,2.468 -12.5,4.5 -1.691,-2.631 -2.858,-2.297 -3.5,1 -1.175,-1.355 -2.175,-1.188 -3,0.5 -4.332,0.583 -8.665,1.083 -13,1.5 12.262,-4.906 24.928,-8.906 38,-12 z"
         id="path429" />
    </g>
    <g
       id="g430"
       style="clip-rule:evenodd;fill-rule:evenodd;image-rendering:optimizeQuality;shape-rendering:geometricPrecision;text-rendering:geometricPrecision"
       transform="matrix(0.26458333,0,0,0.26458333,-172.34822,-104.16941)">
      <path
         style="opacity:1"
         fill="#0e3a6b"
         d="m 812.5,611.5 c -0.324,6.854 0.009,13.521 1,20 0.929,0.815 1.929,1.648 3,2.5 -0.948,0.483 -1.948,0.649 -3,0.5 0.923,9.048 2.256,18.048 4,27 0.51,2.888 -0.156,5.221 -2,7 0.423,-0.765 0.757,-1.598 1,-2.5 -2.927,-10.402 -4.927,-20.735 -6,-31 0.145,-0.772 0.478,-1.439 1,-2 -1.095,-15.593 -2.095,-31.093 -3,-46.5 0,-1 0,-2 0,-3 -1,0 -2,0 -3,0 -4.481,-1.148 -9.148,-1.315 -14,-0.5 -0.805,1.972 -2.139,3.472 -4,4.5 -1.305,-3.138 -3.471,-5.471 -6.5,-7 -3.749,1.24 -7.415,2.574 -11,4 -0.333,-0.333 -0.667,-0.667 -1,-1 -0.359,3.044 -1.026,3.378 -2,1 -0.495,1.973 -0.662,3.973 -0.5,6 -1.639,-0.426 -2.972,-0.426 -4,0 -1.208,-0.734 -2.541,-1.067 -4,-1 -3.577,-0.479 -7.244,-0.812 -11,-1 8.668,-3.441 17.668,-6.108 27,-8 4.482,-0.911 8.816,-0.911 13,0 1.598,2.473 3.098,2.473 4.5,0 6,1.333 12,1.333 18,0 0.127,10.464 0.96,20.797 2.5,31 z"
         id="path430" />
    </g>
    <g
       id="g431"
       style="clip-rule:evenodd;fill-rule:evenodd;image-rendering:optimizeQuality;shape-rendering:geometricPrecision;text-rendering:geometricPrecision"
       transform="matrix(0.26458333,0,0,0.26458333,-172.34822,-104.16941)">
      <path
         style="opacity:1"
         fill="#144174"
         d="m 976.5,589.5 c 1.333,0 2.667,0 4,0 2.613,2.79 5.113,5.79 7.5,9 0.642,2.262 1.475,4.429 2.5,6.5 -0.667,0.333 -1.333,0.667 -2,1 2.703,2.973 2.536,5.806 -0.5,8.5 -4.019,-2.755 -8.185,-5.089 -12.5,-7 3.819,0.383 7.486,1.383 11,3 0.333,-0.667 0.667,-1.333 1,-2 -0.991,-3.631 -1.824,-7.298 -2.5,-11 -1.704,-1.873 -3.537,-3.54 -5.5,-5 -0.806,-1.228 -1.806,-2.228 -3,-3 z"
         id="path431" />
    </g>
    <g
       id="g433"
       style="clip-rule:evenodd;fill-rule:evenodd;image-rendering:optimizeQuality;shape-rendering:geometricPrecision;text-rendering:geometricPrecision"
       transform="matrix(0.26458333,0,0,0.26458333,-172.34822,-104.16941)">
      <path
         style="opacity:1"
         fill="#92a7bd"
         d="m 792.5,584.5 c 4.134,-0.985 8.468,-1.318 13,-1 1,0 2,0 3,0 0,1 0,2 0,3 0,10.667 0,21.333 0,32 -0.961,-1.765 -1.295,-3.765 -1,-6 0,-9.333 0,-18.667 0,-28 -5,0 -10,0 -15,0 z"
         id="path433" />
    </g>
    <g
       id="g434"
       style="clip-rule:evenodd;fill-rule:evenodd;image-rendering:optimizeQuality;shape-rendering:geometricPrecision;text-rendering:geometricPrecision"
       transform="matrix(0.26458333,0,0,0.26458333,-172.34822,-104.16941)">
      <path
         style="opacity:1"
         fill="#1f3b5e"
         d="m 808.5,586.5 c 0.905,15.407 1.905,30.907 3,46.5 -0.522,0.561 -0.855,1.228 -1,2 1.073,10.265 3.073,20.598 6,31 -0.243,0.902 -0.577,1.735 -1,2.5 1.326,1.695 0.993,3.028 -1,4 -4.388,-0.557 -7.555,1.11 -9.5,5 -0.986,-0.671 -2.153,-0.671 -3.5,0 4.528,-3.431 8.861,-7.098 13,-11 -3.525,-15.814 -5.525,-31.814 -6,-48 0,-10.667 0,-21.333 0,-32 z"
         id="path434" />
    </g>
    <g
       id="g435"
       style="clip-rule:evenodd;fill-rule:evenodd;image-rendering:optimizeQuality;shape-rendering:geometricPrecision;text-rendering:geometricPrecision"
       transform="matrix(0.26458333,0,0,0.26458333,-172.34822,-104.16941)">
      <path
         style="opacity:1"
         fill="#e5f0f4"
         d="m 985.5,591.5 c 4.191,-0.118 6.357,1.882 6.5,6 0.445,5.698 1.612,11.198 3.5,16.5 -1.114,1.57 -2.447,2.903 -4,4 -6.068,-1.484 -12.235,-2.984 -18.5,-4.5 -5.013,-2.256 -10.179,-4.089 -15.5,-5.5 -2.096,-0.737 -3.763,-1.903 -5,-3.5 13.182,4.26 26.515,7.927 40,11 0.135,-8.807 -2.199,-16.807 -7,-24 z"
         id="path435" />
    </g>
    <g
       id="g441"
       style="clip-rule:evenodd;fill-rule:evenodd;image-rendering:optimizeQuality;shape-rendering:geometricPrecision;text-rendering:geometricPrecision"
       transform="matrix(0.26458333,0,0,0.26458333,-172.34822,-104.16941)">
      <path
         style="opacity:1"
         fill="#1b3b5f"
         d="m 854.5,584.5 c 0,11 0,22 0,33 0,3.333 0,6.667 0,10 -1.133,7.845 -2.133,15.845 -3,24 -0.903,4.973 -1.903,9.973 -3,15 2.021,2.688 4.354,5.021 7,7 -1.935,-0.65 -3.935,-0.983 -6,-1 -0.965,-2.465 -1.965,-4.965 -3,-7.5 2.168,-7.162 3.501,-14.496 4,-22 0.314,-4.784 0.314,-9.618 0,-14.5 0.674,-1.695 1.341,-3.362 2,-5 0.878,-9.508 0.878,-18.675 0,-27.5 0.638,-3.935 1.304,-7.769 2,-11.5 z"
         id="path441" />
    </g>
    <g
       id="g444"
       style="clip-rule:evenodd;fill-rule:evenodd;image-rendering:optimizeQuality;shape-rendering:geometricPrecision;text-rendering:geometricPrecision"
       transform="matrix(0.26458333,0,0,0.26458333,-172.34822,-104.16941)">
      <path
         style="opacity:1"
         fill="#1a5ca0"
         d="m 850.5,555.5 c 0,21.333 0,42.667 0,64 0,0.667 0,1.333 0,2 -0.442,3.654 -0.776,7.321 -1,11 -1.644,-0.214 -3.144,0.12 -4.5,1 -0.498,3.317 -0.665,6.65 -0.5,10 1.333,0 2.667,0 4,0 -0.351,3.403 -1.018,6.737 -2,10 -1.391,2.46 -2.558,5.126 -3.5,8 -1,0.667 -2,1.333 -3,2 -0.707,-1.581 -1.54,-3.081 -2.5,-4.5 1.436,-3.654 0.77,-6.821 -2,-9.5 0.01,-5.785 -0.823,-11.451 -2.5,-17 -1,-1.333 -2,-1.333 -3,0 -1.044,2.215 -1.71,4.548 -2,7 -0.679,7.655 -1.179,15.322 -1.5,23 0.937,12.993 1.103,25.993 0.5,39 -3.676,-13.26 -6.842,-26.593 -9.5,-40 -1.744,-8.952 -3.077,-17.952 -4,-27 1.052,0.149 2.052,-0.017 3,-0.5 -1.071,-0.852 -2.071,-1.685 -3,-2.5 0.243,-11.989 0.576,-23.323 1,-34 0.724,3.865 1.391,7.865 2,12 -0.521,2.361 -0.854,4.694 -1,7 3.036,4.191 6.702,5.191 11,3 0.692,2.645 1.692,5.145 3,7.5 -1,0.333 -2,0.667 -3,1 0.333,0.333 0.667,0.667 1,1 -2.052,0.93 -3.552,2.43 -4.5,4.5 -0.667,-1.333 -1.333,-1.333 -2,0 0.485,4.51 -0.682,8.677 -3.5,12.5 1.458,1.752 2.791,3.585 4,5.5 1.299,-0.59 2.132,-1.59 2.5,-3 0.667,0.667 1.333,1.333 2,2 0.66,-4.294 -0.174,-8.96 -2.5,-14 0.333,-0.667 0.667,-1.333 1,-2 3.06,-1.772 5.56,-4.105 7.5,-7 3.369,4.576 7.202,5.076 11.5,1.5 -1.783,-1.067 -2.283,-2.567 -1.5,-4.5 1.458,2.024 3.291,2.191 5.5,0.5 -0.522,-0.561 -0.855,-1.228 -1,-2 1.687,-5.838 2.353,-11.004 2,-15.5 -0.628,-1.758 -1.628,-3.258 -3,-4.5 2.608,-3.031 1.608,-4.365 -3,-4 0.916,-0.374 1.75,-0.874 2.5,-1.5 1.465,0.869 2.631,0.369 3.5,-1.5 -2.269,-4.075 -2.269,-8.075 0,-12 -0.789,-0.546 -1.789,-1.213 -3,-2 0.951,-0.718 1.117,-1.551 0.5,-2.5 -0.718,0.951 -1.551,1.117 -2.5,0.5 1.229,-1.529 2.729,-2.696 4.5,-3.5 0.14,-2.021 0.307,-3.855 0.5,-5.5 -1.865,-1.301 -3.865,-1.635 -6,-1 0.701,2.785 1.034,5.452 1,8 -0.833,0.833 -1.667,1.667 -2.5,2.5 -0.804,-1.304 -1.971,-1.971 -3.5,-2 -2.069,0.324 -2.402,1.158 -1,2.5 -2.28,0.212 -4.28,1.045 -6,2.5 0.128,-1.629 -0.872,-2.962 -3,-4 -1.299,0.59 -2.132,1.59 -2.5,3 -1,-0.333 -2,-0.667 -3,-1 -0.333,0.667 -0.667,1.333 -1,2 -0.368,-1.41 -1.201,-2.41 -2.5,-3 -2.088,3.772 -3.088,7.605 -3,11.5 1.849,-0.947 3.849,-1.613 6,-2 -0.667,0.333 -1.333,0.667 -2,1 1.141,0.741 1.141,1.575 0,2.5 -1.896,0.775 -3.563,1.775 -5,3 -0.305,-10.596 -0.638,-21.429 -1,-32.5 0.691,-1.067 1.191,-2.234 1.5,-3.5 1.11,1.537 2.61,2.203 4.5,2 -0.299,2.104 0.034,4.104 1,6 2.426,2.368 4.592,5.035 6.5,8 3.915,1.416 7.748,0.916 11.5,-1.5 -0.333,-0.333 -0.667,-0.667 -1,-1 0.916,-0.374 1.75,-0.874 2.5,-1.5 1.522,-7.075 5.022,-12.742 10.5,-17 z"
         id="path444" />
    </g>
    <g
       id="g450"
       style="clip-rule:evenodd;fill-rule:evenodd;image-rendering:optimizeQuality;shape-rendering:geometricPrecision;text-rendering:geometricPrecision"
       transform="matrix(0.26458333,0,0,0.26458333,-172.34822,-104.16941)">
      <path
         style="opacity:1"
         fill="#c9dbe6"
         d="m 854.5,627.5 c 0.33,7.032 -0.003,14.032 -1,21 -0.676,1.102 -1.342,2.102 -2,3 0.867,-8.155 1.867,-16.155 3,-24 z"
         id="path450" />
    </g>
    <g
       id="g462"
       style="clip-rule:evenodd;fill-rule:evenodd;image-rendering:optimizeQuality;shape-rendering:geometricPrecision;text-rendering:geometricPrecision"
       transform="matrix(0.26458333,0,0,0.26458333,-172.34822,-104.16941)">
      <path
         style="opacity:1"
         fill="#1d5b99"
         d="m 835.5,649.5 c 2.77,2.679 3.436,5.846 2,9.5 0.96,1.419 1.793,2.919 2.5,4.5 1,-0.667 2,-1.333 3,-2 0.942,-2.874 2.109,-5.54 3.5,-8 -3.079,19.308 -7.246,38.308 -12.5,57 -0.464,-0.594 -0.631,-1.261 -0.5,-2 2.625,-19.614 3.291,-39.281 2,-59 z"
         id="path462" />
    </g>
    <g
       id="g466"
       style="clip-rule:evenodd;fill-rule:evenodd;image-rendering:optimizeQuality;shape-rendering:geometricPrecision;text-rendering:geometricPrecision"
       transform="matrix(0.26458333,0,0,0.26458333,-172.34822,-104.16941)">
      <path
         style="opacity:1"
         fill="#0f3a6e"
         d="m 814.5,672.5 c -4.035,3.357 -8.368,6.357 -13,9 0,-1.333 0,-2.667 0,-4 1.347,-0.671 2.514,-0.671 3.5,0 1.945,-3.89 5.112,-5.557 9.5,-5 z"
         id="path466" />
    </g>
    <g
       id="g476"
       style="clip-rule:evenodd;fill-rule:evenodd;image-rendering:optimizeQuality;shape-rendering:geometricPrecision;text-rendering:geometricPrecision"
       transform="matrix(0.26458333,0,0,0.26458333,-172.34822,-104.16941)">
      <path
         style="opacity:1"
         fill="#1d3c5f"
         d="m 801.5,677.5 c 0,1.333 0,2.667 0,4 -1.699,-0.16 -3.366,0.006 -5,0.5 1.333,0.667 1.333,1.333 0,2 -4.265,1.954 -7.931,4.621 -11,8 -4.148,1.76 -8.148,3.593 -12,5.5 9.032,-7.023 18.365,-13.689 28,-20 z"
         id="path476" />
    </g>
    <g
       id="g477"
       style="clip-rule:evenodd;fill-rule:evenodd;image-rendering:optimizeQuality;shape-rendering:geometricPrecision;text-rendering:geometricPrecision"
       transform="matrix(0.26458333,0,0,0.26458333,-172.34822,-104.16941)">
      <path
         style="opacity:1"
         fill="#083f7a"
         d="m 835.5,649.5 c 1.291,19.719 0.625,39.386 -2,59 -0.667,0 -1,-0.333 -1,-1 0.99,-22.325 1.157,-44.658 0.5,-67 -0.219,-1.438 -0.719,-2.771 -1.5,-4 -1.541,10.928 -2.208,21.928 -2,33 0.167,12.008 0.5,24.008 1,36 -1.592,-1.102 -2.425,-0.435 -2.5,2 -0.984,-2.816 -2.817,-4.816 -5.5,-6 -0.493,-2.306 -0.826,-4.639 -1,-7 -16.778,5.76 -33.111,12.593 -49,20.5 0.594,0.464 1.261,0.631 2,0.5 -1.847,1.073 -3.847,1.073 -6,0 3.535,-2.994 7.535,-5.494 12,-7.5 12.818,-4.94 25.485,-10.274 38,-16 1.102,-2.401 1.269,-4.901 0.5,-7.5 -0.87,-4.471 -2.37,-8.471 -4.5,-12 1.993,-0.972 2.326,-2.305 1,-4 1.844,-1.779 2.51,-4.112 2,-7 2.658,13.407 5.824,26.74 9.5,40 0.603,-13.007 0.437,-26.007 -0.5,-39 0.321,-7.678 0.821,-15.345 1.5,-23 0.29,-2.452 0.956,-4.785 2,-7 1,-1.333 2,-1.333 3,0 1.677,5.549 2.51,11.215 2.5,17 z"
         id="path477" />
    </g>
    <g
       id="g478"
       style="clip-rule:evenodd;fill-rule:evenodd;image-rendering:optimizeQuality;shape-rendering:geometricPrecision;text-rendering:geometricPrecision"
       transform="matrix(0.26458333,0,0,0.26458333,-172.34822,-104.16941)">
      <path
         style="opacity:1"
         fill="#205a98"
         d="m 832.5,707.5 c -1.333,0 -2,-0.667 -2,-2 -0.5,-11.992 -0.833,-23.992 -1,-36 -0.208,-11.072 0.459,-22.072 2,-33 0.781,1.229 1.281,2.562 1.5,4 0.657,22.342 0.49,44.675 -0.5,67 z"
         id="path478" />
    </g>
    <g
       id="g482"
       style="clip-rule:evenodd;fill-rule:evenodd;image-rendering:optimizeQuality;shape-rendering:geometricPrecision;text-rendering:geometricPrecision"
       transform="matrix(0.26458333,0,0,0.26458333,-172.34822,-104.16941)">
      <path
         style="opacity:1"
         fill="#1b5ea1"
         d="m 814.5,672.5 c 2.13,3.529 3.63,7.529 4.5,12 0.769,2.599 0.602,5.099 -0.5,7.5 -12.515,5.726 -25.182,11.06 -38,16 -4.465,2.006 -8.465,4.506 -12,7.5 -0.06,0.543 -0.393,0.876 -1,1 -1.165,-3.035 -0.998,-6.035 0.5,-9 11.352,-8.53 22.519,-17.197 33.5,-26 4.632,-2.643 8.965,-5.643 13,-9 z"
         id="path482" />
    </g>
    <g
       id="g484"
       style="clip-rule:evenodd;fill-rule:evenodd;image-rendering:optimizeQuality;shape-rendering:geometricPrecision;text-rendering:geometricPrecision"
       transform="matrix(0.26458333,0,0,0.26458333,-172.34822,-104.16941)">
      <path
         style="opacity:1"
         fill="#1f5d9a"
         d="m 822.5,701.5 c -3.246,0.554 -6.246,1.554 -9,3 -0.333,0 -0.667,0 -1,0 -12.695,3.673 -25.362,7.339 -38,11 -0.739,0.131 -1.406,-0.036 -2,-0.5 15.889,-7.907 32.222,-14.74 49,-20.5 0.174,2.361 0.507,4.694 1,7 z"
         id="path484" />
    </g>
    <g
       id="g485"
       style="clip-rule:evenodd;fill-rule:evenodd;image-rendering:optimizeQuality;shape-rendering:geometricPrecision;text-rendering:geometricPrecision"
       transform="matrix(0.26458333,0,0,0.26458333,-172.34822,-104.16941)">
      <path
         style="opacity:1"
         fill="#0f3e73"
         d="m 850.5,621.5 c 0.667,0.667 1.333,1.333 2,2 -0.659,1.638 -1.326,3.305 -2,5 0.314,4.882 0.314,9.716 0,14.5 -0.499,7.504 -1.832,14.838 -4,22 1.035,2.535 2.035,5.035 3,7.5 2.065,0.017 4.065,0.35 6,1 13.027,8.512 25.693,17.512 38,27 0.921,1.769 2.088,3.435 3.5,5 1.509,4.038 1.343,7.704 -0.5,11 0.316,-3.478 -0.184,-6.812 -1.5,-10 -2.802,-2.646 -5.968,-4.646 -9.5,-6 -0.79,-1.294 -1.79,-2.461 -3,-3.5 -11.19,-8.02 -22.523,-15.853 -34,-23.5 -0.586,0.209 -1.086,0.543 -1.5,1 -1.362,5.446 -2.695,10.78 -4,16 13.615,7.39 27.782,13.557 42.5,18.5 3.58,2.277 6.914,4.777 10,7.5 0.077,1.25 0.744,2.083 2,2.5 -2,0.667 -4,0.667 -6,0 -8.238,-2.844 -16.571,-5.177 -25,-7 -0.805,-1.113 -1.472,-2.279 -2,-3.5 -3.602,-0.534 -7.102,-0.534 -10.5,0 -1.242,-1.372 -2.742,-2.372 -4.5,-3 -2.227,0.553 -4.561,0.553 -7,0 -1.083,-0.039 -2.083,-0.373 -3,-1 -1.086,4.452 -2.42,8.785 -4,13 -1.548,0.321 -2.215,1.321 -2,3 -1.333,0 -2.667,0 -4,0 -0.256,-2.437 -0.923,-4.771 -2,-7 0.209,-0.586 0.543,-1.086 1,-1.5 -1.254,-2.337 -2.587,-4.504 -4,-6.5 0.03,-0.997 -0.47,-1.664 -1.5,-2 -3.576,1.599 -6.743,1.932 -9.5,1 2.754,-1.446 5.754,-2.446 9,-3 2.683,1.184 4.516,3.184 5.5,6 0.075,-2.435 0.908,-3.102 2.5,-2 0,1.333 0.667,2 2,2 0,0.667 0.333,1 1,1 -0.131,0.739 0.036,1.406 0.5,2 5.254,-18.692 9.421,-37.692 12.5,-57 0.982,-3.263 1.649,-6.597 2,-10 -1.333,0 -2.667,0 -4,0 -0.165,-3.35 0.002,-6.683 0.5,-10 1.356,-0.88 2.856,-1.214 4.5,-1 0.224,-3.679 0.558,-7.346 1,-11 z"
         id="path485" />
    </g>
    <g
       id="g486"
       style="clip-rule:evenodd;fill-rule:evenodd;image-rendering:optimizeQuality;shape-rendering:geometricPrecision;text-rendering:geometricPrecision"
       transform="matrix(0.26458333,0,0,0.26458333,-172.34822,-104.16941)">
      <path
         style="opacity:1"
         fill="#215f9d"
         d="m 864.5,708.5 c -7.237,-2.484 -14.57,-4.984 -22,-7.5 -1.102,-2.401 -1.269,-4.901 -0.5,-7.5 14.331,6.555 28.831,12.722 43.5,18.5 0.828,0.915 1.828,1.581 3,2 -0.833,0.167 -1.667,0.333 -2.5,0.5 -7.095,-2.31 -14.262,-4.31 -21.5,-6 z"
         id="path486" />
    </g>
    <g
       id="g487"
       style="clip-rule:evenodd;fill-rule:evenodd;image-rendering:optimizeQuality;shape-rendering:geometricPrecision;text-rendering:geometricPrecision"
       transform="matrix(0.26458333,0,0,0.26458333,-172.34822,-104.16941)">
      <path
         style="opacity:1"
         fill="#1c5c9f"
         d="m 885.5,700.5 c 3.532,1.354 6.698,3.354 9.5,6 1.316,3.188 1.816,6.522 1.5,10 -0.333,0 -0.667,0 -1,0 -3.086,-2.723 -6.42,-5.223 -10,-7.5 -14.718,-4.943 -28.885,-11.11 -42.5,-18.5 1.305,-5.22 2.638,-10.554 4,-16 0.414,-0.457 0.914,-0.791 1.5,-1 11.477,7.647 22.81,15.48 34,23.5 1.21,1.039 2.21,2.206 3,3.5 z"
         id="path487" />
    </g>
    <g
       id="g488"
       style="clip-rule:evenodd;fill-rule:evenodd;image-rendering:optimizeQuality;shape-rendering:geometricPrecision;text-rendering:geometricPrecision"
       transform="matrix(0.26458333,0,0,0.26458333,-172.34822,-104.16941)">
      <path
         style="opacity:1"
         fill="#1961ac"
         d="m 885.5,700.5 c 0.074,1.911 1.074,3.078 3,3.5 -0.333,0.333 -0.667,0.667 -1,1 2.164,0.37 4.164,1.204 6,2.5 -2.182,3.477 -4.016,3.477 -5.5,0 -0.333,0.333 -0.667,0.667 -1,1 -7.441,-6.53 -15.941,-10.03 -25.5,-10.5 0.758,-1.364 0.258,-2.531 -1.5,-3.5 -0.333,0.333 -0.667,0.667 -1,1 -0.772,-1.349 -1.939,-2.182 -3.5,-2.5 1.141,-0.741 1.141,-1.575 0,-2.5 1.669,-1.171 3.169,-2.504 4.5,-4 1.646,1.641 2.646,1.307 3,-1 2.046,1.411 3.879,3.077 5.5,5 1.189,0.929 2.522,1.262 4,1 -0.149,1.052 0.017,2.052 0.5,3 1.973,1.728 3.806,3.561 5.5,5.5 2.485,-0.081 4.819,0.086 7,0.5 z"
         id="path488" />
    </g>
    <g
       id="g490"
       style="clip-rule:evenodd;fill-rule:evenodd;image-rendering:optimizeQuality;shape-rendering:geometricPrecision;text-rendering:geometricPrecision"
       transform="matrix(0.26458333,0,0,0.26458333,-172.34822,-104.16941)">
      <path
         style="opacity:1"
         fill="#ddeaef"
         d="m 824.5,705.5 c 0.986,5.46 2.486,10.793 4.5,16 1.356,0.88 2.856,1.214 4.5,1 -2.945,1.563 -5.612,1.063 -8,-1.5 0.457,-0.414 0.791,-0.914 1,-1.5 -1.714,-2.799 -3.047,-5.799 -4,-9 -1,-0.333 -2,-0.667 -3,-1 -8.165,2.457 -16.499,4.124 -25,5 9.796,-3.374 19.796,-6.374 30,-9 z"
         id="path490" />
    </g>
    <g
       id="g492"
       style="clip-rule:evenodd;fill-rule:evenodd;image-rendering:optimizeQuality;shape-rendering:geometricPrecision;text-rendering:geometricPrecision"
       transform="matrix(0.26458333,0,0,0.26458333,-172.34822,-104.16941)">
      <path
         style="opacity:1"
         fill="#1a3a5c"
         d="m 824.5,705.5 c -10.204,2.626 -20.204,5.626 -30,9 -2.706,0.075 -5.373,0.408 -8,1 8.602,-4.16 17.269,-7.827 26,-11 0.333,0 0.667,0 1,0 2.757,0.932 5.924,0.599 9.5,-1 1.03,0.336 1.53,1.003 1.5,2 z"
         id="path492" />
    </g>
    <g
       id="g494"
       style="clip-rule:evenodd;fill-rule:evenodd;image-rendering:optimizeQuality;shape-rendering:geometricPrecision;text-rendering:geometricPrecision"
       transform="matrix(0.26458333,0,0,0.26458333,-172.34822,-104.16941)">
      <path
         style="opacity:1"
         fill="#0e3a6a"
         d="m 801.5,681.5 c -10.981,8.803 -22.148,17.47 -33.5,26 -1.498,2.965 -1.665,5.965 -0.5,9 0.607,-0.124 0.94,-0.457 1,-1 2.153,1.073 4.153,1.073 6,0 12.638,-3.661 25.305,-7.327 38,-11 -8.731,3.173 -17.398,6.84 -26,11 -8.097,1.418 -15.597,2.752 -22.5,4 -1.72,-7.656 0.446,-13.823 6.5,-18.5 0.948,-0.483 1.948,-0.649 3,-0.5 0,-1 0,-2 0,-3 3.852,-1.907 7.852,-3.74 12,-5.5 3.069,-3.379 6.735,-6.046 11,-8 1.333,-0.667 1.333,-1.333 0,-2 1.634,-0.494 3.301,-0.66 5,-0.5 z"
         id="path494" />
    </g>
    <g
       id="g495"
       style="clip-rule:evenodd;fill-rule:evenodd;image-rendering:optimizeQuality;shape-rendering:geometricPrecision;text-rendering:geometricPrecision"
       transform="matrix(0.26458333,0,0,0.26458333,-172.34822,-104.16941)">
      <path
         style="opacity:1"
         fill="#204066"
         d="m 893.5,700.5 c 2.949,1.114 5.115,3.114 6.5,6 0.667,5 0.667,10 0,15 -0.561,0.522 -1.228,0.855 -2,1 -18.804,-4.993 -37.304,-10.659 -55.5,-17 2.439,0.553 4.773,0.553 7,0 1.758,0.628 3.258,1.628 4.5,3 3.398,-0.534 6.898,-0.534 10.5,0 0.528,1.221 1.195,2.387 2,3.5 8.429,1.823 16.762,4.156 25,7 2,0.667 4,0.667 6,0 -1.256,-0.417 -1.923,-1.25 -2,-2.5 0.333,0 0.667,0 1,0 1.843,-3.296 2.009,-6.962 0.5,-11 -1.412,-1.565 -2.579,-3.231 -3.5,-5 z"
         id="path495" />
    </g>
    <g
       id="g496"
       style="clip-rule:evenodd;fill-rule:evenodd;image-rendering:optimizeQuality;shape-rendering:geometricPrecision;text-rendering:geometricPrecision"
       transform="matrix(0.26458333,0,0,0.26458333,-172.34822,-104.16941)">
      <path
         style="opacity:1"
         fill="#284462"
         d="m 773.5,697.5 c 0,1 0,2 0,3 -1.052,-0.149 -2.052,0.017 -3,0.5 -6.054,4.677 -8.22,10.844 -6.5,18.5 6.903,-1.248 14.403,-2.582 22.5,-4 -6.176,2.303 -12.51,4.47 -19,6.5 -1.612,0.72 -3.112,0.554 -4.5,-0.5 -3.284,-11.09 0.216,-19.09 10.5,-24 z"
         id="path496" />
    </g>
    <g
       id="g503"
       style="clip-rule:evenodd;fill-rule:evenodd;image-rendering:optimizeQuality;shape-rendering:geometricPrecision;text-rendering:geometricPrecision"
       transform="matrix(0.26458333,0,0,0.26458333,-172.34822,-104.16941)">
      <path
         style="opacity:1"
         fill="#213b5a"
         d="m 824.5,705.5 c 1.413,1.996 2.746,4.163 4,6.5 -0.457,0.414 -0.791,0.914 -1,1.5 1.077,2.229 1.744,4.563 2,7 1.333,0 2.667,0 4,0 -0.215,-1.679 0.452,-2.679 2,-3 0.108,2.014 -0.558,3.68 -2,5 -1.644,0.214 -3.144,-0.12 -4.5,-1 -2.014,-5.207 -3.514,-10.54 -4.5,-16 z"
         id="path503" />
    </g>
  </g>
</svg>
