<?xml version="1.0" encoding="UTF-8" standalone="no"?>
<!-- Created with Inkscape (http://www.inkscape.org/) -->

<svg
   width="96mm"
   height="96mm"
   viewBox="0 0 96 96"
   version="1.1"
   id="svg1"
   inkscape:version="1.4.2 (ebf0e940, 2025-05-08)"
   sodipodi:docname="boat.svg"
   xmlns:inkscape="http://www.inkscape.org/namespaces/inkscape"
   xmlns:sodipodi="http://sodipodi.sourceforge.net/DTD/sodipodi-0.dtd"
   xmlns="http://www.w3.org/2000/svg"
   xmlns:svg="http://www.w3.org/2000/svg">
  <sodipodi:namedview
     id="namedview1"
     pagecolor="#ffffff"
     bordercolor="#000000"
     borderopacity="0.25"
     inkscape:showpageshadow="2"
     inkscape:pageopacity="0.0"
     inkscape:pagecheckerboard="0"
     inkscape:deskcolor="#d1d1d1"
     inkscape:document-units="mm"
     inkscape:zoom="0.80444024"
     inkscape:cx="397.17059"
     inkscape:cy="262.91574"
     inkscape:window-width="1920"
     inkscape:window-height="1052"
     inkscape:window-x="0"
     inkscape:window-y="28"
     inkscape:window-maximized="0"
     inkscape:current-layer="layer1" />
  <defs
     id="defs1" />
  <g
     inkscape:label="Layer 1"
     inkscape:groupmode="layer"
     id="layer1">
    <g
       id="g5"
       style="clip-rule:evenodd;fill-rule:evenodd;image-rendering:optimizeQuality;shape-rendering:geometricPrecision;text-rendering:geometricPrecision"
       transform="matrix(0.26458333,0,0,0.26458333,-284.11248,5.2045854)">
      <path
         style="opacity:1"
         fill="#223c5b"
         d="m 1267.5,11.5 c -1.53,0.8696 -3.03,0.5362 -4.5,-1 -2.93,1.2164 -5.76,2.5498 -8.5,4 2.28,-2.9274 4.78,-5.5941 7.5,-8 2.32,1.15042 4.15,2.81709 5.5,5 z"
         id="path5" />
    </g>
    <g
       id="g20"
       style="clip-rule:evenodd;fill-rule:evenodd;image-rendering:optimizeQuality;shape-rendering:geometricPrecision;text-rendering:geometricPrecision"
       transform="matrix(0.26458333,0,0,0.26458333,-284.11248,5.2045854)">
      <path
         style="opacity:1"
         fill="#224066"
         d="m 1267.5,11.5 c 15.94,17.1964 27.27,37.1964 34,60 -4.33,-4.3276 -6.83,-9.6609 -7.5,-16 -3.2,-3.7852 -5.37,-8.1185 -6.5,-13 -2.52,-2.0104 -4.02,-4.6771 -4.5,-8 -2.7,-2.5362 -5.2,-5.2029 -7.5,-8 -0.67,0 -1,-0.3333 -1,-1 -2.7,-4.4085 -5.03,-9.0752 -7,-14 z"
         id="path20" />
    </g>
    <g
       id="g25"
       style="clip-rule:evenodd;fill-rule:evenodd;image-rendering:optimizeQuality;shape-rendering:geometricPrecision;text-rendering:geometricPrecision"
       transform="matrix(0.26458333,0,0,0.26458333,-284.11248,5.2045854)">
      <path
         style="opacity:1"
         fill="#243a5e"
         d="m 1254.5,14.5 c -0.9,4.1198 -3.06,7.4531 -6.5,10 -3.22,6.2342 -6.89,12.2342 -11,18 -5.17,10.6647 -9.5,21.3313 -13,32 -3.73,12.3776 -5.9,24.8776 -6.5,37.5 -3.55,7.043 -4.72,14.543 -3.5,22.5 0.67,0.752 1.5,1.086 2.5,1 2.24,0.295 4.24,-0.039 6,-1 2.67,1.224 5,2.891 7,5 1.41,0.473 2.07,1.473 2,3 1.31,0.732 2.64,1.566 4,2.5 -1.36,5.237 -2.7,10.404 -4,15.5 0.32,-4.532 -0.02,-8.866 -1,-13 -0.31,-3.67 -1.98,-6.67 -5,-9 -4.26,-0.939 -8.6,-1.272 -13,-1 0,-3 0,-6 0,-9 1.79,-33.8589 10.96,-65.5255 27.5,-95 4.31,-6.8026 9.15,-13.136 14.5,-19 z"
         id="path25" />
    </g>
    <g
       id="g31"
       style="clip-rule:evenodd;fill-rule:evenodd;image-rendering:optimizeQuality;shape-rendering:geometricPrecision;text-rendering:geometricPrecision"
       transform="matrix(0.26458333,0,0,0.26458333,-284.11248,5.2045854)">
      <path
         style="opacity:1"
         fill="#327fc7"
         d="m 1274.5,25.5 c 0,0.6667 0.33,1 1,1 13.21,21.0853 22.54,43.752 28,68 1.68,10.794 3.34,21.461 5,32 1.83,38.056 1.17,76.056 -2,114 -2.34,7.369 -3.84,15.036 -4.5,23 -0.42,2.633 -1.59,4.799 -3.5,6.5 -4.3,1.106 -8.64,2.106 -13,3 -17.7,0.881 -35.36,0.547 -53,-1 -3.32,-0.059 -6.16,-1.226 -8.5,-3.5 -3.21,-14.226 -5.71,-28.559 -7.5,-43 -0.72,-15.656 -1.05,-31.323 -1,-47 -0.13,-0.739 0.04,-1.406 0.5,-2 1.04,1.811 2.21,2.145 3.5,1 0.67,9.667 1.33,19.333 2,29 0.84,19.435 3.01,38.768 6.5,58 0.5,0.5 1,1 1.5,1.5 17.92,2.431 35.92,3.098 54,2 3.72,-0.388 7.39,-1.055 11,-2 1.39,-1.171 2.23,-2.671 2.5,-4.5 7.41,-52.259 8.07,-104.593 2,-157 -3.13,-17.712 -8.46,-34.712 -16,-51 -1.5,-2.1667 -3,-4.3333 -4.5,-6.5 -2.88,-1.302 -5.88,-2.1353 -9,-2.5 -6.34,-0.1662 -12.68,5e-4 -19,0.5 -3.04,1.0314 -5.54,2.8647 -7.5,5.5 -10.63,19.9857 -16.8,41.3191 -18.5,64 -1.7,6.419 -2.37,13.085 -2,20 -1.76,0.961 -3.76,1.295 -6,1 0.79,-40.5179 12.29,-77.5179 34.5,-111 3.32,-4.3207 6.99,-8.3207 11,-12 4.38,4.2074 8.54,8.5407 12.5,13 z"
         id="path31" />
    </g>
    <g
       id="g32"
       style="clip-rule:evenodd;fill-rule:evenodd;image-rendering:optimizeQuality;shape-rendering:geometricPrecision;text-rendering:geometricPrecision"
       transform="matrix(0.26458333,0,0,0.26458333,-284.11248,5.2045854)">
      <path
         style="opacity:1"
         fill="#255d99"
         d="m 1271.5,46.5 c 2.87,1.0256 5.37,2.6923 7.5,5 9.55,17.4446 15.38,36.1113 17.5,56 0.15,1.052 -0.02,2.052 -0.5,3 -3.29,-11.1579 -6.29,-22.4912 -9,-34 -2.24,-7.9618 -5.24,-15.6284 -9,-23 -3.97,-4.443 -8.97,-6.1097 -15,-5 -6.6,-1.0478 -12.26,0.6189 -17,5 -7.48,16.5574 -12.81,33.8907 -16,52 -0.42,1.172 -1.09,2.172 -2,3 1.31,-8.6057 2.65,-17.2723 4,-26 3.13,-9.587 6.8,-18.9203 11,-28 1.71,-2.2594 3.55,-4.4261 5.5,-6.5 7.6,-1.3561 15.26,-1.8561 23,-1.5 z"
         id="path32" />
    </g>
    <g
       id="g33"
       style="clip-rule:evenodd;fill-rule:evenodd;image-rendering:optimizeQuality;shape-rendering:geometricPrecision;text-rendering:geometricPrecision"
       transform="matrix(0.26458333,0,0,0.26458333,-284.11248,5.2045854)">
      <path
         style="opacity:1"
         fill="#06488c"
         d="m 1260.5,15.5 c 1.32,-0.17 2.49,0.1634 3.5,1 5.26,6.8387 7.26,14.5053 6,23 -0.5,0.5 -1,1 -1.5,1.5 -12.47,4.1894 -17.3,0.0228 -14.5,-12.5 1.52,-4.6784 3.69,-9.0118 6.5,-13 z"
         id="path33" />
    </g>
    <g
       id="g34"
       style="clip-rule:evenodd;fill-rule:evenodd;image-rendering:optimizeQuality;shape-rendering:geometricPrecision;text-rendering:geometricPrecision"
       transform="matrix(0.26458333,0,0,0.26458333,-284.11248,5.2045854)">
      <path
         style="opacity:1"
         fill="#3284ce"
         d="m 1260.5,18.5 c 1.18,-0.219 2.18,0.1143 3,1 3.92,5.751 5.58,12.0844 5,19 -4.33,0 -8.67,0 -13,0 -0.37,-7.2259 1.3,-13.8926 5,-20 z"
         id="path34" />
    </g>
    <g
       id="g38"
       style="clip-rule:evenodd;fill-rule:evenodd;image-rendering:optimizeQuality;shape-rendering:geometricPrecision;text-rendering:geometricPrecision"
       transform="matrix(0.26458333,0,0,0.26458333,-284.11248,5.2045854)">
      <path
         style="opacity:1"
         fill="#074383"
         d="m 1269.5,44.5 c 3.12,0.3647 6.12,1.198 9,2.5 1.5,2.1667 3,4.3333 4.5,6.5 7.54,16.288 12.87,33.288 16,51 6.07,52.407 5.41,104.741 -2,157 -0.27,1.829 -1.11,3.329 -2.5,4.5 -3.61,0.945 -7.28,1.612 -11,2 -18.08,1.098 -36.08,0.431 -54,-2 -0.5,-0.5 -1,-1 -1.5,-1.5 -3.49,-19.232 -5.66,-38.565 -6.5,-58 0,-1 0,-2 0,-3 0.67,0 1.33,0 2,0 -0.3,4.267 0.04,8.434 1,12.5 25.33,0.5 50.66,0.667 76,0.5 0,-4.667 0,-9.333 0,-14 -9,0 -18,0 -27,0 -0.67,0 -1.33,0 -2,0 -11.67,0 -23.33,0 -35,0 0.33,-0.667 0.67,-1.333 1,-2 20.5,-0.832 41.16,-1.332 62,-1.5 0.33,-0.333 0.67,-0.667 1,-1 -0.67,-5.866 -1.67,-11.699 -3,-17.5 0.67,0.333 1.33,0.667 2,1 -0.11,1.879 0.39,2.212 1.5,1 0.67,-10 0.67,-20 0,-30 -0.12,-2.227 -0.95,-4.06 -2.5,-5.5 1.13,-4.413 1.3,-8.913 0.5,-13.5 -0.66,2.128 -1.49,4.128 -2.5,6 -1,0 -2,0 -3,0 0.69,-2.557 1.85,-4.891 3.5,-7 0.67,-2 0.67,-4 0,-6 -6.9,-4.355 -14.4,-7.022 -22.5,-8 0,6.333 0,12.667 0,19 -0.67,-0.333 -1.33,-0.667 -2,-1 0,-6.333 0,-12.667 0,-19 -7.06,-0.297 -14.06,0.036 -21,1 -0.99,3.607 -1.32,7.274 -1,11 -0.67,1 -1.33,2 -2,3 0,-4.667 0,-9.333 0,-14 -7.43,1.134 -14.27,3.801 -20.5,8 -0.26,4.404 0.24,8.738 1.5,13 -2,-2.109 -4.33,-3.776 -7,-5 -0.37,-6.915 0.3,-13.581 2,-20 0.33,0.667 0.67,1.333 1,2 -0.31,2.747 0.02,5.414 1,8 10.64,-6.91 22.3,-9.91 35,-9 12.67,-0.445 24.67,2.221 36,8 0.33,-1.167 0.67,-2.333 1,-3.5 0.19,-2.008 -0.47,-3.508 -2,-4.5 0.59,-0.651 1.26,-1.318 2,-2 -0.55,-2.157 -1.22,-4.157 -2,-6 -2.12,-19.8887 -7.95,-38.5554 -17.5,-56 -2.13,-2.3077 -4.63,-3.9744 -7.5,-5 -0.67,-0.6667 -1.33,-1.3333 -2,-2 z"
         id="path38" />
    </g>
    <g
       id="g40"
       style="clip-rule:evenodd;fill-rule:evenodd;image-rendering:optimizeQuality;shape-rendering:geometricPrecision;text-rendering:geometricPrecision"
       transform="matrix(0.26458333,0,0,0.26458333,-284.11248,5.2045854)">
      <path
         style="opacity:1"
         fill="#0b3f77"
         d="m 1275.5,26.5 c 2.3,2.7971 4.8,5.4638 7.5,8 0.48,3.3229 1.98,5.9896 4.5,8 1.13,4.8815 3.3,9.2148 6.5,13 0.67,6.3391 3.17,11.6724 7.5,16 0,0.3333 0,0.6667 0,1 0.99,7.2967 1.66,14.63 2,22 -5.46,-24.248 -14.79,-46.9147 -28,-68 z"
         id="path40" />
    </g>
    <g
       id="g46"
       style="clip-rule:evenodd;fill-rule:evenodd;image-rendering:optimizeQuality;shape-rendering:geometricPrecision;text-rendering:geometricPrecision"
       transform="matrix(0.26458333,0,0,0.26458333,-284.11248,5.2045854)">
      <path
         style="opacity:1"
         fill="#1e3f69"
         d="m 1301.5,72.5 c 2.29,7.163 4.29,14.4963 6,22 0,0.6667 0,1.3333 0,2 -0.37,6.037 0.63,11.703 3,17 1.48,7.547 2.15,15.214 2,23 0,4.333 0,8.667 0,13 -0.75,-1.031 -1.42,-2.198 -2,-3.5 0.87,-3.443 1.2,-6.776 1,-10 -0.78,-2.74 -1.28,-5.574 -1.5,-8.5 -0.38,-0.556 -0.88,-0.889 -1.5,-1 -1.66,-10.539 -3.32,-21.206 -5,-32 -0.34,-7.37 -1.01,-14.7033 -2,-22 z"
         id="path46" />
    </g>
    <g
       id="g49"
       style="clip-rule:evenodd;fill-rule:evenodd;image-rendering:optimizeQuality;shape-rendering:geometricPrecision;text-rendering:geometricPrecision"
       transform="matrix(0.26458333,0,0,0.26458333,-284.11248,5.2045854)">
      <path
         style="opacity:1"
         fill="#0a396f"
         d="m 1267.5,11.5 c 1.97,4.9248 4.3,9.5915 7,14 -3.96,-4.4593 -8.12,-8.7926 -12.5,-13 -4.01,3.6793 -7.68,7.6793 -11,12 -22.21,33.4821 -33.71,70.4821 -34.5,111 -1,0.086 -1.83,-0.248 -2.5,-1 -1.22,-7.957 -0.05,-15.457 3.5,-22.5 0.6,-12.6224 2.77,-25.1224 6.5,-37.5 3.5,-10.6687 7.83,-21.3353 13,-32 4.11,-5.7658 7.78,-11.7658 11,-18 3.44,-2.5469 5.6,-5.8802 6.5,-10 2.74,-1.4502 5.57,-2.7836 8.5,-4 1.47,1.5362 2.97,1.8696 4.5,1 z"
         id="path49" />
    </g>
    <g
       id="g50"
       style="clip-rule:evenodd;fill-rule:evenodd;image-rendering:optimizeQuality;shape-rendering:geometricPrecision;text-rendering:geometricPrecision"
       transform="matrix(0.26458333,0,0,0.26458333,-284.11248,5.2045854)">
      <path
         style="opacity:1"
         fill="#415c77"
         d="m 1307.5,96.5 c 1.64,5.427 2.64,11.093 3,17 -2.37,-5.297 -3.37,-10.963 -3,-17 z"
         id="path50" />
    </g>
    <g
       id="g51"
       style="clip-rule:evenodd;fill-rule:evenodd;image-rendering:optimizeQuality;shape-rendering:geometricPrecision;text-rendering:geometricPrecision"
       transform="matrix(0.26458333,0,0,0.26458333,-284.11248,5.2045854)">
      <path
         style="opacity:1"
         fill="#063f7d"
         d="m 1269.5,44.5 c 0.67,0.6667 1.33,1.3333 2,2 -7.74,-0.3561 -15.4,0.1439 -23,1.5 -1.95,2.0739 -3.79,4.2406 -5.5,6.5 -4.2,9.0797 -7.87,18.413 -11,28 -1.35,8.7277 -2.69,17.3943 -4,26 0.91,-0.828 1.58,-1.828 2,-3 3.19,-18.1093 8.52,-35.4426 16,-52 4.74,-4.3811 10.4,-6.0478 17,-5 6.03,-1.1097 11.03,0.557 15,5 3.76,7.3716 6.76,15.0382 9,23 2.71,11.5088 5.71,22.8421 9,34 0.48,-0.948 0.65,-1.948 0.5,-3 0.78,1.843 1.45,3.843 2,6 -0.74,0.682 -1.41,1.349 -2,2 -11.24,-4.345 -22.91,-6.011 -35,-5 -6,0.167 -12,0.333 -18,0.5 -6.1,1.649 -12.1,3.483 -18,5.5 -0.33,-0.667 -0.67,-1.333 -1,-2 1.7,-22.6809 7.87,-44.0143 18.5,-64 1.96,-2.6353 4.46,-4.4686 7.5,-5.5 6.32,-0.4995 12.66,-0.6662 19,-0.5 z"
         id="path51" />
    </g>
    <g
       id="g52"
       style="clip-rule:evenodd;fill-rule:evenodd;image-rendering:optimizeQuality;shape-rendering:geometricPrecision;text-rendering:geometricPrecision"
       transform="matrix(0.26458333,0,0,0.26458333,-284.11248,5.2045854)">
      <path
         style="opacity:1"
         fill="#1d62a8"
         d="m 1252.5,50.5 c 6.01,-0.1662 12.01,5e-4 18,0.5 1.58,0.7065 3.08,1.5399 4.5,2.5 7.28,14.9225 12.62,30.5892 16,47 0.67,2.333 0.67,4.667 0,7 -3.05,-1.312 -6.22,-2.312 -9.5,-3 -3.15,-10.5506 -5.98,-21.2173 -8.5,-32 -1.59,-5.6206 -5.26,-8.2872 -11,-8 -5.09,-0.7942 -8.42,1.2058 -10,6 -3.48,11.2697 -6.65,22.6031 -9.5,34 -3.7,0.844 -7.2,2.177 -10.5,4 2.48,-19.2998 8.15,-37.6331 17,-55 1.15,-1.1364 2.31,-2.1364 3.5,-3 z"
         id="path52" />
    </g>
    <g
       id="g53"
       style="clip-rule:evenodd;fill-rule:evenodd;image-rendering:optimizeQuality;shape-rendering:geometricPrecision;text-rendering:geometricPrecision"
       transform="matrix(0.26458333,0,0,0.26458333,-284.11248,5.2045854)">
      <path
         style="opacity:1"
         fill="#155594"
         d="m 1256.5,66.5 c 5.02,-0.8447 9.19,0.4886 12.5,4 3.67,11.8914 6.84,23.8914 9.5,36 6.33,0.766 12.33,2.599 18,5.5 -0.83,0.167 -1.67,0.333 -2.5,0.5 -10.19,-3.412 -20.69,-4.746 -31.5,-4 -11.11,-0.726 -21.94,0.608 -32.5,4 -1.95,-0.263 -2.61,-1.263 -2,-3 0.56,0.522 1.23,0.855 2,1 4.39,-1.612 8.89,-2.779 13.5,-3.5 0.83,-0.833 1.67,-1.667 2.5,-2.5 2.27,-13.0642 5.77,-25.7309 10.5,-38 z"
         id="path53" />
    </g>
    <g
       id="g57"
       style="clip-rule:evenodd;fill-rule:evenodd;image-rendering:optimizeQuality;shape-rendering:geometricPrecision;text-rendering:geometricPrecision"
       transform="matrix(0.26458333,0,0,0.26458333,-284.11248,5.2045854)">
      <path
         style="opacity:1"
         fill="#2f7abf"
         d="m 1296.5,115.5 c 1.53,0.992 2.19,2.492 2,4.5 -0.33,1.167 -0.67,2.333 -1,3.5 -11.33,-5.779 -23.33,-8.445 -36,-8 -12.7,-0.91 -24.36,2.09 -35,9 -0.98,-2.586 -1.31,-5.253 -1,-8 5.9,-2.017 11.9,-3.851 18,-5.5 6,-0.167 12,-0.333 18,-0.5 12.09,-1.011 23.76,0.655 35,5 z"
         id="path57" />
    </g>
    <g
       id="g58"
       style="clip-rule:evenodd;fill-rule:evenodd;image-rendering:optimizeQuality;shape-rendering:geometricPrecision;text-rendering:geometricPrecision"
       transform="matrix(0.26458333,0,0,0.26458333,-284.11248,5.2045854)">
      <path
         style="opacity:1"
         fill="#1c61a5"
         d="m 1248.5,132.5 c 0,1.667 0,3.333 0,5 -5.66,1.501 -11.33,3.167 -17,5 0.07,-1.527 -0.59,-2.527 -2,-3 -1.26,-4.262 -1.76,-8.596 -1.5,-13 6.23,-4.199 13.07,-6.866 20.5,-8 0,4.667 0,9.333 0,14 z"
         id="path58" />
    </g>
    <g
       id="g59"
       style="clip-rule:evenodd;fill-rule:evenodd;image-rendering:optimizeQuality;shape-rendering:geometricPrecision;text-rendering:geometricPrecision"
       transform="matrix(0.26458333,0,0,0.26458333,-284.11248,5.2045854)">
      <path
         style="opacity:1"
         fill="#1c65ad"
         d="m 1293.5,139.5 c 0.09,1.495 -0.58,2.495 -2,3 -5.44,-2.444 -11.11,-4.11 -17,-5 0,-6.333 0,-12.667 0,-19 8.1,0.978 15.6,3.645 22.5,8 0.67,2 0.67,4 0,6 -1.65,2.109 -2.81,4.443 -3.5,7 z"
         id="path59" />
    </g>
    <g
       id="g60"
       style="clip-rule:evenodd;fill-rule:evenodd;image-rendering:optimizeQuality;shape-rendering:geometricPrecision;text-rendering:geometricPrecision"
       transform="matrix(0.26458333,0,0,0.26458333,-284.11248,5.2045854)">
      <path
         style="opacity:1"
         fill="#1c61a4"
         d="m 1272.5,136.5 c -7.01,0.166 -14.01,0 -21,-0.5 -0.92,-2.041 -1.26,-4.208 -1,-6.5 -0.32,-3.726 0.01,-7.393 1,-11 6.94,-0.964 13.94,-1.297 21,-1 0,6.333 0,12.667 0,19 z"
         id="path60" />
    </g>
    <g
       id="g69"
       style="clip-rule:evenodd;fill-rule:evenodd;image-rendering:optimizeQuality;shape-rendering:geometricPrecision;text-rendering:geometricPrecision"
       transform="matrix(0.26458333,0,0,0.26458333,-284.11248,5.2045854)">
      <path
         style="opacity:1"
         fill="#564559"
         d="m 1212.5,128.5 c 0,3 0,6 0,9 4.4,-0.272 8.74,0.061 13,1 3.02,2.33 4.69,5.33 5,9 -0.63,-2.162 -1.96,-3.828 -4,-5 -0.69,-1.522 -1.86,-2.522 -3.5,-3 -3.98,-0.572 -7.82,-1.239 -11.5,-2 -0.31,-3.213 0.02,-6.213 1,-9 z"
         id="path69" />
    </g>
    <g
       id="g71"
       style="clip-rule:evenodd;fill-rule:evenodd;image-rendering:optimizeQuality;shape-rendering:geometricPrecision;text-rendering:geometricPrecision"
       transform="matrix(0.26458333,0,0,0.26458333,-284.11248,5.2045854)">
      <path
         style="opacity:1"
         fill="#844d4e"
         d="m 1226.5,142.5 c 2.04,1.172 3.37,2.838 4,5 0.17,3.682 0,7.348 -0.5,11 -2.52,4.388 -5.02,8.722 -7.5,13 -1,0.333 -1.67,1 -2,2 -2.15,0.128 -4.15,-0.372 -6,-1.5 -6.7,-7.233 -9.54,-15.733 -8.5,-25.5 1.04,-3.871 3.54,-6.205 7.5,-7 2.2,0.087 4.37,0.087 6.5,0 1.64,2.05 3.8,3.05 6.5,3 z"
         id="path71" />
    </g>
    <g
       id="g73"
       style="clip-rule:evenodd;fill-rule:evenodd;image-rendering:optimizeQuality;shape-rendering:geometricPrecision;text-rendering:geometricPrecision"
       transform="matrix(0.26458333,0,0,0.26458333,-284.11248,5.2045854)">
      <path
         style="opacity:1"
         fill="#5e2f30"
         d="m 1216.5,144.5 c 6.5,0.514 8.5,3.847 6,10 -3.4,2.699 -6.57,2.366 -9.5,-1 -1.02,-3.947 0.15,-6.947 3.5,-9 z"
         id="path73" />
    </g>
    <g
       id="g74"
       style="clip-rule:evenodd;fill-rule:evenodd;image-rendering:optimizeQuality;shape-rendering:geometricPrecision;text-rendering:geometricPrecision"
       transform="matrix(0.26458333,0,0,0.26458333,-284.11248,5.2045854)">
      <path
         style="opacity:1"
         fill="#0d417b"
         d="m 1250.5,129.5 c -0.26,2.292 0.08,4.459 1,6.5 6.99,0.5 13.99,0.666 21,0.5 0.67,0.333 1.33,0.667 2,1 5.89,0.89 11.56,2.556 17,5 1.42,-0.505 2.09,-1.505 2,-3 1,0 2,0 3,0 -0.76,1.767 -1.42,3.6 -2,5.5 0.97,2.111 1.81,4.278 2.5,6.5 0.91,10 1.74,20 2.5,30 -0.67,-0.333 -1.33,-0.667 -2,-1 -0.86,-11.008 -2.53,-21.842 -5,-32.5 -6.92,-1.219 -13.92,-1.886 -21,-2 -1.28,-2.132 -1.28,-4.298 0,-6.5 -6.42,-1.415 -12.75,-1.249 -19,0.5 0.92,2.041 1.26,4.208 1,6.5 -6.04,-0.14 -12.04,0.193 -18,1 0,1.333 0,2.667 0,4 5.68,-0.166 11.34,0.001 17,0.5 0.5,0.5 1,1 1.5,1.5 1.6,7.895 1.93,15.895 1,24 -0.83,0.833 -1.67,1.667 -2.5,2.5 -6,0.667 -12,0.667 -18,0 -0.81,-0.308 -1.47,-0.808 -2,-1.5 -0.53,-7.803 -2.36,-8.469 -5.5,-2 -1.62,7.606 -2.79,15.273 -3.5,23 4.76,-0.274 9.43,0.059 14,1 -0.33,0.667 -0.67,1.333 -1,2 -4.53,-0.318 -8.87,0.015 -13,1 -0.67,0 -1.33,0 -2,0 0,-9 0,-18 0,-27 1.6,-2.77 3.77,-5.103 6.5,-7 1.74,-2.809 2.91,-5.809 3.5,-9 1.3,-5.096 2.64,-10.263 4,-15.5 -1.36,-0.934 -2.69,-1.768 -4,-2.5 5.67,-1.833 11.34,-3.499 17,-5 0,-1.667 0,-3.333 0,-5 0.67,-1 1.33,-2 2,-3 z"
         id="path74" />
    </g>
    <g
       id="g75"
       style="clip-rule:evenodd;fill-rule:evenodd;image-rendering:optimizeQuality;shape-rendering:geometricPrecision;text-rendering:geometricPrecision"
       transform="matrix(0.26458333,0,0,0.26458333,-284.11248,5.2045854)">
      <path
         style="opacity:1"
         fill="#1f5b98"
         d="m 1299.5,181.5 c -0.76,-10 -1.59,-20 -2.5,-30 -0.69,-2.222 -1.53,-4.389 -2.5,-6.5 0.58,-1.9 1.24,-3.733 2,-5.5 1.01,-1.872 1.84,-3.872 2.5,-6 0.8,4.587 0.63,9.087 -0.5,13.5 1.55,1.44 2.38,3.273 2.5,5.5 0.67,10 0.67,20 0,30 -1.11,1.212 -1.61,0.879 -1.5,-1 z"
         id="path75" />
    </g>
    <g
       id="g80"
       style="clip-rule:evenodd;fill-rule:evenodd;image-rendering:optimizeQuality;shape-rendering:geometricPrecision;text-rendering:geometricPrecision"
       transform="matrix(0.26458333,0,0,0.26458333,-284.11248,5.2045854)">
      <path
         style="opacity:1"
         fill="#f5dbd7"
         d="m 1220.5,148.5 c 1.43,1.955 1.1,3.621 -1,5 -2.58,-0.548 -3.58,-2.215 -3,-5 1.33,0 2.67,0 4,0 z"
         id="path80" />
    </g>
    <g
       id="g82"
       style="clip-rule:evenodd;fill-rule:evenodd;image-rendering:optimizeQuality;shape-rendering:geometricPrecision;text-rendering:geometricPrecision"
       transform="matrix(0.26458333,0,0,0.26458333,-284.11248,5.2045854)">
      <path
         style="opacity:1"
         fill="#caa4a3"
         d="m 1220.5,148.5 c -1.33,0 -2.67,0 -4,0 -0.58,2.785 0.42,4.452 3,5 -3.84,0.986 -5.34,-0.681 -4.5,-5 2.08,-2.363 3.92,-2.363 5.5,0 z"
         id="path82" />
    </g>
    <g
       id="g86"
       style="clip-rule:evenodd;fill-rule:evenodd;image-rendering:optimizeQuality;shape-rendering:geometricPrecision;text-rendering:geometricPrecision"
       transform="matrix(0.26458333,0,0,0.26458333,-284.11248,5.2045854)">
      <path
         style="opacity:1"
         fill="#694447"
         d="m 1211.5,137.5 c 3.68,0.761 7.52,1.428 11.5,2 1.64,0.478 2.81,1.478 3.5,3 -2.7,0.05 -4.86,-0.95 -6.5,-3 -2.13,0.087 -4.3,0.087 -6.5,0 -3.96,0.795 -6.46,3.129 -7.5,7 -1.04,9.767 1.8,18.267 8.5,25.5 1.85,1.128 3.85,1.628 6,1.5 -3.91,1.401 -7.24,0.401 -10,-3 -3.87,-5.92 -6.21,-12.42 -7,-19.5 -0.25,-6.348 2.42,-10.848 8,-13.5 z"
         id="path86" />
    </g>
    <g
       id="g87"
       style="clip-rule:evenodd;fill-rule:evenodd;image-rendering:optimizeQuality;shape-rendering:geometricPrecision;text-rendering:geometricPrecision"
       transform="matrix(0.26458333,0,0,0.26458333,-284.11248,5.2045854)">
      <path
         style="opacity:1"
         fill="#583e51"
         d="m 1230.5,147.5 c 0.98,4.134 1.32,8.468 1,13 -2.76,3.85 -5.76,7.517 -9,11 2.48,-4.278 4.98,-8.612 7.5,-13 0.5,-3.652 0.67,-7.318 0.5,-11 z"
         id="path87" />
    </g>
    <g
       id="g93"
       style="clip-rule:evenodd;fill-rule:evenodd;image-rendering:optimizeQuality;shape-rendering:geometricPrecision;text-rendering:geometricPrecision"
       transform="matrix(0.26458333,0,0,0.26458333,-284.11248,5.2045854)">
      <path
         style="opacity:1"
         fill="#1d62a5"
         d="m 1234.5,154.5 c 6.01,-0.166 12.01,0.001 18,0.5 0.97,5.072 1.3,10.238 1,15.5 -6.67,0 -13.33,0 -20,0 -0.11,-5.37 0.23,-10.703 1,-16 z"
         id="path93" />
    </g>
    <g
       id="g97"
       style="clip-rule:evenodd;fill-rule:evenodd;image-rendering:optimizeQuality;shape-rendering:geometricPrecision;text-rendering:geometricPrecision"
       transform="matrix(0.26458333,0,0,0.26458333,-284.11248,5.2045854)">
      <path
         style="opacity:1"
         fill="#2765a3"
         d="m 1219.5,177.5 c 0.34,-0.838 1.01,-1.172 2,-1 0,9 0,18 0,27 0,1 0,2 0,3 -0.67,-9.667 -1.33,-19.333 -2,-29 z"
         id="path97" />
    </g>
    <g
       id="g98"
       style="clip-rule:evenodd;fill-rule:evenodd;image-rendering:optimizeQuality;shape-rendering:geometricPrecision;text-rendering:geometricPrecision"
       transform="matrix(0.26458333,0,0,0.26458333,-284.11248,5.2045854)">
      <path
         style="opacity:1"
         fill="#175695"
         d="m 1297.5,180.5 c 1.33,5.801 2.33,11.634 3,17.5 -0.33,0.333 -0.67,0.667 -1,1 -20.84,0.168 -41.5,0.668 -62,1.5 -4.57,-0.941 -9.24,-1.274 -14,-1 0.71,-7.727 1.88,-15.394 3.5,-23 3.14,-6.469 4.97,-5.803 5.5,2 0.53,0.692 1.19,1.192 2,1.5 6,0.667 12,0.667 18,0 0.83,-0.833 1.67,-1.667 2.5,-2.5 0.93,-8.105 0.6,-16.105 -1,-24 -0.5,-0.5 -1,-1 -1.5,-1.5 -5.66,-0.499 -11.32,-0.666 -17,-0.5 0,-1.333 0,-2.667 0,-4 5.96,-0.807 11.96,-1.14 18,-1 0.26,-2.292 -0.08,-4.459 -1,-6.5 6.25,-1.749 12.58,-1.915 19,-0.5 -1.28,2.202 -1.28,4.368 0,6.5 7.08,0.114 14.08,0.781 21,2 2.47,10.658 4.14,21.492 5,32.5 z"
         id="path98" />
    </g>
    <g
       id="g99"
       style="clip-rule:evenodd;fill-rule:evenodd;image-rendering:optimizeQuality;shape-rendering:geometricPrecision;text-rendering:geometricPrecision"
       transform="matrix(0.26458333,0,0,0.26458333,-284.11248,5.2045854)">
      <path
         style="opacity:1"
         fill="#2264a2"
         d="m 1233.5,173.5 c 6.33,0 12.67,0 19,0 0,1.333 0,2.667 0,4 -6.01,0.166 -12.01,-0.001 -18,-0.5 -0.84,-1.011 -1.17,-2.178 -1,-3.5 z"
         id="path99" />
    </g>
    <g
       id="g100"
       style="clip-rule:evenodd;fill-rule:evenodd;image-rendering:optimizeQuality;shape-rendering:geometricPrecision;text-rendering:geometricPrecision"
       transform="matrix(0.26458333,0,0,0.26458333,-284.11248,5.2045854)">
      <path
         style="opacity:1"
         fill="#053f7b"
         d="m 1270.5,152.5 c 6.67,-0.166 13.34,0 20,0.5 0.5,0.5 1,1 1.5,1.5 7.5,22.664 0,30.664 -22.5,24 -1.57,-8.87 -1.24,-17.537 1,-26 z"
         id="path100" />
    </g>
    <g
       id="g101"
       style="clip-rule:evenodd;fill-rule:evenodd;image-rendering:optimizeQuality;shape-rendering:geometricPrecision;text-rendering:geometricPrecision"
       transform="matrix(0.26458333,0,0,0.26458333,-284.11248,5.2045854)">
      <path
         style="opacity:1"
         fill="#2468ab"
         d="m 1270.5,173.5 c 6.7,-0.33 13.37,0.003 20,1 -0.33,0.667 -0.67,1.333 -1,2 -5.97,1.164 -11.97,1.33 -18,0.5 -0.84,-1.011 -1.17,-2.178 -1,-3.5 z"
         id="path101" />
    </g>
    <g
       id="g102"
       style="clip-rule:evenodd;fill-rule:evenodd;image-rendering:optimizeQuality;shape-rendering:geometricPrecision;text-rendering:geometricPrecision"
       transform="matrix(0.26458333,0,0,0.26458333,-284.11248,5.2045854)">
      <path
         style="opacity:1"
         fill="#1c62a5"
         d="m 1271.5,154.5 c 5.68,-0.166 11.34,0.001 17,0.5 0.5,0.5 1,1 1.5,1.5 0.5,4.655 0.67,9.321 0.5,14 -6.67,0 -13.33,0 -20,0 -0.23,-5.395 0.1,-10.728 1,-16 z"
         id="path102" />
    </g>
    <g
       id="g109"
       style="clip-rule:evenodd;fill-rule:evenodd;image-rendering:optimizeQuality;shape-rendering:geometricPrecision;text-rendering:geometricPrecision"
       transform="matrix(0.26458333,0,0,0.26458333,-284.11248,5.2045854)">
      <path
         style="opacity:1"
         fill="#deeaef"
         d="m 1307.5,94.5 c 1.98,0.3586 2.65,1.192 2,2.5 1.75,3.301 2.91,7.134 3.5,11.5 1.94,17.723 3.11,35.223 3.5,52.5 -0.27,23.37 -0.93,47.037 -2,71 0.12,1.268 0.45,2.602 1,4 -1.1,14.917 -2.43,30.084 -4,45.5 -1.26,3.561 -2.09,7.228 -2.5,11 -4.75,4.15 -10.25,6.983 -16.5,8.5 -3.26,0.212 -6.42,0.712 -9.5,1.5 -0.96,3.842 -1.79,7.675 -2.5,11.5 0.33,0.333 0.67,0.667 1,1 -1.44,1.763 -2.44,3.763 -3,6 -2.01,1.257 -4.18,2.091 -6.5,2.5 -5.33,-0.543 -10.49,-1.21 -15.5,-2 5.01,0.166 10.01,-10e-4 15,-0.5 1.24,-0.232 2.24,-0.732 3,-1.5 2.82,-1.492 4.49,-3.826 5,-7 0.98,-4.134 1.32,-8.468 1,-13 4.35,0.166 8.68,-10e-4 13,-0.5 0.56,-0.383 0.89,-0.883 1,-1.5 9.68,-1.517 14.52,-7.183 14.5,-17 4.22,-48.088 5.39,-96.088 3.5,-144 0.15,-7.786 -0.52,-15.453 -2,-23 -0.36,-5.907 -1.36,-11.573 -3,-17 0,-0.6667 0,-1.3333 0,-2 z"
         id="path109" />
    </g>
    <g
       id="g111"
       style="clip-rule:evenodd;fill-rule:evenodd;image-rendering:optimizeQuality;shape-rendering:geometricPrecision;text-rendering:geometricPrecision"
       transform="matrix(0.26458333,0,0,0.26458333,-284.11248,5.2045854)">
      <path
         style="opacity:1"
         fill="#1e63a5"
         d="m 1236.5,202.5 c 11.67,0 23.33,0 35,0 -1.72,0.724 -3.55,1.391 -5.5,2 -2.18,-0.608 -4.18,0.059 -6,2 -0.42,-1.172 -1.09,-2.172 -2,-3 -1.11,1.211 -2.28,1.211 -3.5,0 -1.95,0.524 -3.62,1.524 -5,3 0.39,-1.391 -0.44,-2.391 -2.5,-3 -0.6,2.186 -1.77,2.352 -3.5,0.5 -4.78,-1.254 -8.78,-0.088 -12,3.5 -2.71,-2.714 -3.55,-2.047 -2.5,2 0.85,1.625 1.85,1.958 3,1 0.58,2.624 1.91,3.291 4,2 0.88,2.013 2.21,2.013 4,0 0.33,1 0.67,2 1,3 2.33,-0.667 4.67,-1.333 7,-2 3.25,0.712 6.58,1.045 10,1 1,-0.667 2,-1.333 3,-2 1.78,2.503 3.45,2.503 5,0 1,1.333 2,1.333 3,0 0.31,0.808 0.81,1.475 1.5,2 1.83,-0.544 3.83,-0.544 6,0 1.82,-0.149 3.32,-0.816 4.5,-2 0.88,2.013 2.21,2.013 4,0 3,0.667 6,1.333 9,2 4.6,-2.894 5.1,-6.061 1.5,-9.5 -7.25,-1.793 -14.25,-1.959 -21,-0.5 -0.8,-0.457 -1.13,-1.124 -1,-2 9,0 18,0 27,0 0,4.667 0,9.333 0,14 -25.34,0.167 -50.67,0 -76,-0.5 -0.96,-4.066 -1.3,-8.233 -1,-12.5 4.13,-0.985 8.47,-1.318 13,-1 z"
         id="path111" />
    </g>
    <g
       id="g112"
       style="clip-rule:evenodd;fill-rule:evenodd;image-rendering:optimizeQuality;shape-rendering:geometricPrecision;text-rendering:geometricPrecision"
       transform="matrix(0.26458333,0,0,0.26458333,-284.11248,5.2045854)">
      <path
         style="opacity:1"
         fill="#1964af"
         d="m 1271.5,202.5 c 0.67,0 1.33,0 2,0 -0.13,0.876 0.2,1.543 1,2 6.75,-1.459 13.75,-1.293 21,0.5 3.6,3.439 3.1,6.606 -1.5,9.5 -3,-0.667 -6,-1.333 -9,-2 -1.79,2.013 -3.12,2.013 -4,0 -1.18,1.184 -2.68,1.851 -4.5,2 -2.17,-0.544 -4.17,-0.544 -6,0 -0.69,-0.525 -1.19,-1.192 -1.5,-2 -1,1.333 -2,1.333 -3,0 -1.55,2.503 -3.22,2.503 -5,0 -1,0.667 -2,1.333 -3,2 -3.42,0.045 -6.75,-0.288 -10,-1 -2.33,0.667 -4.67,1.333 -7,2 -0.33,-1 -0.67,-2 -1,-3 -1.79,2.013 -3.12,2.013 -4,0 -2.09,1.291 -3.42,0.624 -4,-2 -1.15,0.958 -2.15,0.625 -3,-1 -1.05,-4.047 -0.21,-4.714 2.5,-2 3.22,-3.588 7.22,-4.754 12,-3.5 1.73,1.852 2.9,1.686 3.5,-0.5 2.06,0.609 2.89,1.609 2.5,3 1.38,-1.476 3.05,-2.476 5,-3 1.22,1.211 2.39,1.211 3.5,0 0.91,0.828 1.58,1.828 2,3 1.82,-1.941 3.82,-2.608 6,-2 1.95,-0.609 3.78,-1.276 5.5,-2 z"
         id="path112" />
    </g>
    <g
       id="g113"
       style="clip-rule:evenodd;fill-rule:evenodd;image-rendering:optimizeQuality;shape-rendering:geometricPrecision;text-rendering:geometricPrecision"
       transform="matrix(0.26458333,0,0,0.26458333,-284.11248,5.2045854)">
      <path
         style="opacity:1"
         fill="#203e60"
         d="m 1312.5,136.5 c 1.89,47.912 0.72,95.912 -3.5,144 0.02,9.817 -4.82,15.483 -14.5,17 -4.82,1.097 -9.49,1.097 -14,0 0,-0.333 0,-0.667 0,-1 4.54,0.696 9.21,0.529 14,-0.5 1.56,-0.759 2.56,-1.926 3,-3.5 0.33,0 0.67,0 1,0 3.01,-0.22 5.35,-1.553 7,-4 1.36,-4.103 2.36,-8.269 3,-12.5 -1.83,-3.267 -1.83,-6.267 0,-9 -0.5,-2.477 -0.83,-4.977 -1,-7.5 1.15,-5.948 1.99,-11.948 2.5,-18 1.27,-30.656 2.1,-61.323 2.5,-92 0,-4.333 0,-8.667 0,-13 z"
         id="path113" />
    </g>
    <g
       id="g115"
       style="clip-rule:evenodd;fill-rule:evenodd;image-rendering:optimizeQuality;shape-rendering:geometricPrecision;text-rendering:geometricPrecision"
       transform="matrix(0.26458333,0,0,0.26458333,-284.11248,5.2045854)">
      <path
         style="opacity:1"
         fill="#104b88"
         d="m 1214.5,178.5 c 0.33,0 0.67,0 1,0 -0.05,15.677 0.28,31.344 1,47 -1.98,-15.298 -2.65,-30.964 -2,-47 z"
         id="path115" />
    </g>
    <g
       id="g117"
       style="clip-rule:evenodd;fill-rule:evenodd;image-rendering:optimizeQuality;shape-rendering:geometricPrecision;text-rendering:geometricPrecision"
       transform="matrix(0.26458333,0,0,0.26458333,-284.11248,5.2045854)">
      <path
         style="opacity:1"
         fill="#2063a4"
         d="m 1225.5,219.5 c 24.67,0 49.33,0 74,0 0,1.333 0,2.667 0,4 -24.67,0 -49.33,0 -74,0 0,-1.333 0,-2.667 0,-4 z"
         id="path117" />
    </g>
    <g
       id="g120"
       style="clip-rule:evenodd;fill-rule:evenodd;image-rendering:optimizeQuality;shape-rendering:geometricPrecision;text-rendering:geometricPrecision"
       transform="matrix(0.26458333,0,0,0.26458333,-284.11248,5.2045854)">
      <path
         style="opacity:1"
         fill="#2064a6"
         d="m 1225.5,226.5 c 24.33,0 48.67,0 73,0 0,1.333 0,2.667 0,4 -24.33,0 -48.67,0 -73,0 0,-1.333 0,-2.667 0,-4 z"
         id="path120" />
    </g>
    <g
       id="g127"
       style="clip-rule:evenodd;fill-rule:evenodd;image-rendering:optimizeQuality;shape-rendering:geometricPrecision;text-rendering:geometricPrecision"
       transform="matrix(0.26458333,0,0,0.26458333,-284.11248,5.2045854)">
      <path
         style="opacity:1"
         fill="#1a65af"
         d="m 1226.5,233.5 c 23.67,0 47.33,0 71,0 -0.32,10.775 -1.99,21.275 -5,31.5 -20.68,0.72 -41.35,0.553 -62,-0.5 -1.92,-10.244 -3.25,-20.577 -4,-31 z"
         id="path127" />
    </g>
    <g
       id="g128"
       style="clip-rule:evenodd;fill-rule:evenodd;image-rendering:optimizeQuality;shape-rendering:geometricPrecision;text-rendering:geometricPrecision"
       transform="matrix(0.26458333,0,0,0.26458333,-284.11248,5.2045854)">
      <path
         style="opacity:1"
         fill="#0f3f74"
         d="m 1308.5,126.5 c 0.62,0.111 1.12,0.444 1.5,1 0.22,2.926 0.72,5.76 1.5,8.5 0.2,3.224 -0.13,6.557 -1,10 0.58,1.302 1.25,2.469 2,3.5 -0.4,30.677 -1.23,61.344 -2.5,92 -0.51,6.052 -1.35,12.052 -2.5,18 0.17,2.523 0.5,5.023 1,7.5 -1.83,2.733 -1.83,5.733 0,9 -0.64,4.231 -1.64,8.397 -3,12.5 -1.65,2.447 -3.99,3.78 -7,4 2.31,-1.477 4.14,-3.477 5.5,-6 1.2,-7.304 1.54,-14.637 1,-22 -0.28,0.916 -0.78,1.582 -1.5,2 1.01,-6.884 2.34,-13.717 4,-20.5 -0.44,-1.825 -0.78,-3.658 -1,-5.5 3.17,-37.944 3.83,-75.944 2,-114 z"
         id="path128" />
    </g>
    <g
       id="g132"
       style="clip-rule:evenodd;fill-rule:evenodd;image-rendering:optimizeQuality;shape-rendering:geometricPrecision;text-rendering:geometricPrecision"
       transform="matrix(0.26458333,0,0,0.26458333,-284.11248,5.2045854)">
      <path
         style="opacity:1"
         fill="#254164"
         d="m 1231.5,160.5 c -0.59,3.191 -1.76,6.191 -3.5,9 -2.73,1.897 -4.9,4.23 -6.5,7 -0.99,-0.172 -1.66,0.162 -2,1 -1.29,1.145 -2.46,0.811 -3.5,-1 -0.46,0.594 -0.63,1.261 -0.5,2 -0.33,0 -0.67,0 -1,0 -0.92,2.64 -1.59,5.473 -2,8.5 0.88,6.228 0.88,12.562 0,19 0.78,19.866 2.44,39.699 5,59.5 -1.41,7.076 -1.07,14.076 1,21 0.68,0.363 1.35,0.696 2,1 4.57,3.864 9.9,6.198 16,7 0.76,0.891 1.76,1.558 3,2 1.57,-0.809 3.24,-1.143 5,-1 0,0.333 0,0.667 0,1 -1.72,1.3 -3.89,1.967 -6.5,2 -6.27,-0.424 -12.11,-2.258 -17.5,-5.5 -2.12,-1.731 -3.62,-3.898 -4.5,-6.5 -3.96,-38.562 -5.79,-77.229 -5.5,-116 2.76,3.401 6.09,4.401 10,3 0.33,-1 1,-1.667 2,-2 3.24,-3.483 6.24,-7.15 9,-11 z"
         id="path132" />
    </g>
    <g
       id="g138"
       style="clip-rule:evenodd;fill-rule:evenodd;image-rendering:optimizeQuality;shape-rendering:geometricPrecision;text-rendering:geometricPrecision"
       transform="matrix(0.26458333,0,0,0.26458333,-284.11248,5.2045854)">
      <path
         style="opacity:1"
         fill="#09417d"
         d="m 1214.5,178.5 c -0.65,16.036 0.02,31.702 2,47 1.79,14.441 4.29,28.774 7.5,43 2.34,2.274 5.18,3.441 8.5,3.5 17.64,1.547 35.3,1.881 53,1 4.36,-0.894 8.7,-1.894 13,-3 1.91,-1.701 3.08,-3.867 3.5,-6.5 0.66,-7.964 2.16,-15.631 4.5,-23 0.22,1.842 0.56,3.675 1,5.5 -1.66,6.783 -2.99,13.616 -4,20.5 -0.37,3.543 -2.37,5.71 -6,6.5 -6.2,1.886 -12.53,2.72 -19,2.5 1.21,4.286 2.21,8.62 3,13 -0.81,-0.969 -1.81,-1.802 -3,-2.5 1.43,-1.714 1.09,-3.047 -1,-4 1.36,-2.129 1.03,-2.629 -1,-1.5 -0.91,-0.828 -1.58,-1.828 -2,-3 -4.27,-0.995 -8.27,-1.829 -12,-2.5 -6.51,-0.82 -12.85,-0.653 -19,0.5 -1.67,0 -3.33,0 -5,0 -2.22,-0.869 -4.55,-1.202 -7,-1 -2.63,-0.827 -5.3,-1.66 -8,-2.5 -1.01,-2.172 -2.68,-3.338 -5,-3.5 0.11,6.401 0.77,12.734 2,19 -0.65,-0.304 -1.32,-0.637 -2,-1 -2.07,-6.924 -2.41,-13.924 -1,-21 -2.56,-19.801 -4.22,-39.634 -5,-59.5 0.88,-6.438 0.88,-12.772 0,-19 0.41,-3.027 1.08,-5.86 2,-8.5 z"
         id="path138" />
    </g>
    <g
       id="g139"
       style="clip-rule:evenodd;fill-rule:evenodd;image-rendering:optimizeQuality;shape-rendering:geometricPrecision;text-rendering:geometricPrecision"
       transform="matrix(0.26458333,0,0,0.26458333,-284.11248,5.2045854)">
      <path
         style="opacity:1"
         fill="#1964ae"
         d="m 1231.5,274.5 c 2.45,-0.202 4.78,0.131 7,1 -1.21,1.38 -0.87,2.547 1,3.5 -2.94,3.896 -6.94,5.562 -12,5 -0.83,0.833 -1.67,1.667 -2.5,2.5 -1.01,-0.837 -2.18,-1.17 -3.5,-1 1.34,-3.104 1.01,-5.938 -1,-8.5 0.85,-1.022 1.85,-1.855 3,-2.5 2.8,1.276 5.47,1.276 8,0 z"
         id="path139" />
    </g>
    <g
       id="g140"
       style="clip-rule:evenodd;fill-rule:evenodd;image-rendering:optimizeQuality;shape-rendering:geometricPrecision;text-rendering:geometricPrecision"
       transform="matrix(0.26458333,0,0,0.26458333,-284.11248,5.2045854)">
      <path
         style="opacity:1"
         fill="#1e60a2"
         d="m 1231.5,274.5 c -2.53,1.276 -5.2,1.276 -8,0 -1.15,0.645 -2.15,1.478 -3,2.5 2.01,2.562 2.34,5.396 1,8.5 1.32,-0.17 2.49,0.163 3.5,1 0.83,-0.833 1.67,-1.667 2.5,-2.5 5.06,0.562 9.06,-1.104 12,-5 -1.87,-0.953 -2.21,-2.12 -1,-3.5 1.67,0 3.33,0 5,0 0.97,0.899 1.64,2.066 2,3.5 -1.58,4.734 -2.74,9.568 -3.5,14.5 -1.7,0.906 -3.53,1.239 -5.5,1 -6.1,-0.802 -11.43,-3.136 -16,-7 -1.23,-6.266 -1.89,-12.599 -2,-19 2.32,0.162 3.99,1.328 5,3.5 2.7,0.84 5.37,1.673 8,2.5 z"
         id="path140" />
    </g>
    <g
       id="g147"
       style="clip-rule:evenodd;fill-rule:evenodd;image-rendering:optimizeQuality;shape-rendering:geometricPrecision;text-rendering:geometricPrecision"
       transform="matrix(0.26458333,0,0,0.26458333,-284.11248,5.2045854)">
      <path
         style="opacity:1"
         fill="#103e70"
         d="m 1281.5,288.5 c 0.54,1.617 0.87,3.284 1,5 5.06,0.226 10.06,-0.108 15,-1 -0.44,1.574 -1.44,2.741 -3,3.5 -4.79,1.029 -9.46,1.196 -14,0.5 -0.28,-0.789 -0.78,-1.456 -1.5,-2 -0.5,1.973 -0.66,3.973 -0.5,6 0.35,3.102 -0.32,5.935 -2,8.5 1.08,1.726 1.24,3.559 0.5,5.5 -1.09,1.578 -1.93,3.245 -2.5,5 -6,0.634 -12,0.8 -18,0.5 -3.09,-2.361 -6.42,-4.195 -10,-5.5 0.33,-6.7 0,-13.366 -1,-20 -0.61,0.124 -0.94,0.457 -1,1 -1.76,-0.143 -3.43,0.191 -5,1 -1.24,-0.442 -2.24,-1.109 -3,-2 1.97,0.239 3.8,-0.094 5.5,-1 0.76,-4.932 1.92,-9.766 3.5,-14.5 -0.36,-1.434 -1.03,-2.601 -2,-3.5 6.15,-1.153 12.49,-1.32 19,-0.5 3.73,0.671 7.73,1.505 12,2.5 0.42,1.172 1.09,2.172 2,3 2.03,-1.129 2.36,-0.629 1,1.5 2.09,0.953 2.43,2.286 1,4 1.19,0.698 2.19,1.531 3,2.5 z"
         id="path147" />
    </g>
    <g
       id="g148"
       style="clip-rule:evenodd;fill-rule:evenodd;image-rendering:optimizeQuality;shape-rendering:geometricPrecision;text-rendering:geometricPrecision"
       transform="matrix(0.26458333,0,0,0.26458333,-284.11248,5.2045854)">
      <path
         style="opacity:1"
         fill="#1d62a6"
         d="m 1298.5,292.5 c -0.33,0 -0.67,0 -1,0 -4.94,0.892 -9.94,1.226 -15,1 -0.13,-1.716 -0.46,-3.383 -1,-5 -0.79,-4.38 -1.79,-8.714 -3,-13 6.47,0.22 12.8,-0.614 19,-2.5 3.63,-0.79 5.63,-2.957 6,-6.5 0.72,-0.418 1.22,-1.084 1.5,-2 0.54,7.363 0.2,14.696 -1,22 -1.36,2.523 -3.19,4.523 -5.5,6 z"
         id="path148" />
    </g>
    <g
       id="g160"
       style="clip-rule:evenodd;fill-rule:evenodd;image-rendering:optimizeQuality;shape-rendering:geometricPrecision;text-rendering:geometricPrecision"
       transform="matrix(0.26458333,0,0,0.26458333,-284.11248,5.2045854)">
      <path
         style="opacity:1"
         fill="#165a9f"
         d="m 1273.5,295.5 c 0.48,1.804 -0.18,3.471 -2,5 0.21,0.586 0.54,1.086 1,1.5 -1.33,1 -2.67,2 -4,3 1.33,0.667 1.33,1.333 0,2 -3.25,0.671 -3.58,0.171 -1,-1.5 -2.01,-0.849 -3.68,-0.182 -5,2 -2.04,-1.845 -4.37,-2.345 -7,-1.5 0.76,1.364 0.26,2.531 -1.5,3.5 -0.84,-1.851 -1.67,-3.684 -2.5,-5.5 0.67,-0.333 1.33,-0.667 2,-1 -2.21,-2.209 -2.54,-4.709 -1,-7.5 -0.47,-0.963 -1.14,-0.963 -2,0 0.01,-5.262 1.35,-10.095 4,-14.5 13.94,-4.406 20.27,0.427 19,14.5 z"
         id="path160" />
    </g>
    <g
       id="g163"
       style="clip-rule:evenodd;fill-rule:evenodd;image-rendering:optimizeQuality;shape-rendering:geometricPrecision;text-rendering:geometricPrecision"
       transform="matrix(0.26458333,0,0,0.26458333,-284.11248,5.2045854)">
      <path
         style="opacity:1"
         fill="#85a7c7"
         d="m 1280.5,296.5 c 0,0.333 0,0.667 0,1 -0.9,0.709 -1.24,1.709 -1,3 -0.33,0 -0.67,0 -1,0 -0.16,-2.027 0,-4.027 0.5,-6 0.72,0.544 1.22,1.211 1.5,2 z"
         id="path163" />
    </g>
    <g
       id="g168"
       style="clip-rule:evenodd;fill-rule:evenodd;image-rendering:optimizeQuality;shape-rendering:geometricPrecision;text-rendering:geometricPrecision"
       transform="matrix(0.26458333,0,0,0.26458333,-284.11248,5.2045854)">
      <path
         style="opacity:1"
         fill="#4e6a87"
         d="m 1246.5,314.5 c -0.67,-6 -1.33,-12 -2,-18 0,-0.333 0,-0.667 0,-1 0.06,-0.543 0.39,-0.876 1,-1 1,6.634 1.33,13.3 1,20 z"
         id="path168" />
    </g>
    <g
       id="g170"
       style="clip-rule:evenodd;fill-rule:evenodd;image-rendering:optimizeQuality;shape-rendering:geometricPrecision;text-rendering:geometricPrecision"
       transform="matrix(0.26458333,0,0,0.26458333,-284.11248,5.2045854)">
      <path
         style="opacity:1"
         fill="#195695"
         d="m 1273.5,295.5 c 1.12,6.252 1.29,12.585 0.5,19 -2.75,2.541 -6.08,3.541 -10,3 -5.29,0.678 -9.96,-0.655 -14,-4 -0.79,-6.082 -0.62,-12.082 0.5,-18 0.86,-0.963 1.53,-0.963 2,0 -1.54,2.791 -1.21,5.291 1,7.5 -0.67,0.333 -1.33,0.667 -2,1 0.83,1.816 1.66,3.649 2.5,5.5 1.76,-0.969 2.26,-2.136 1.5,-3.5 2.63,-0.845 4.96,-0.345 7,1.5 1.32,-2.182 2.99,-2.849 5,-2 -2.58,1.671 -2.25,2.171 1,1.5 1.33,-0.667 1.33,-1.333 0,-2 1.33,-1 2.67,-2 4,-3 -0.46,-0.414 -0.79,-0.914 -1,-1.5 1.82,-1.529 2.48,-3.196 2,-5 z"
         id="path170" />
    </g>
    <g
       id="g171"
       style="clip-rule:evenodd;fill-rule:evenodd;image-rendering:optimizeQuality;shape-rendering:geometricPrecision;text-rendering:geometricPrecision"
       transform="matrix(0.26458333,0,0,0.26458333,-284.11248,5.2045854)">
      <path
         style="opacity:1"
         fill="#c0d2e0"
         d="m 1280.5,297.5 c 4.51,1.097 9.18,1.097 14,0 -0.11,0.617 -0.44,1.117 -1,1.5 -4.32,0.499 -8.65,0.666 -13,0.5 0.32,4.532 -0.02,8.866 -1,13 0,-4 0,-8 0,-12 -0.24,-1.291 0.1,-2.291 1,-3 z"
         id="path171" />
    </g>
    <g
       id="g173"
       style="clip-rule:evenodd;fill-rule:evenodd;image-rendering:optimizeQuality;shape-rendering:geometricPrecision;text-rendering:geometricPrecision"
       transform="matrix(0.26458333,0,0,0.26458333,-284.11248,5.2045854)">
      <path
         style="opacity:1"
         fill="#304a68"
         d="m 1278.5,300.5 c 0.33,0 0.67,0 1,0 0,4 0,8 0,12 -0.51,3.174 -2.18,5.508 -5,7 0.57,-1.755 1.41,-3.422 2.5,-5 0.74,-1.941 0.58,-3.774 -0.5,-5.5 1.68,-2.565 2.35,-5.398 2,-8.5 z"
         id="path173" />
    </g>
    <g
       id="g182"
       style="clip-rule:evenodd;fill-rule:evenodd;image-rendering:optimizeQuality;shape-rendering:geometricPrecision;text-rendering:geometricPrecision"
       transform="matrix(0.26458333,0,0,0.26458333,-284.11248,5.2045854)">
      <path
         style="opacity:1"
         fill="#2b4663"
         d="m 1246.5,314.5 c 3.58,1.305 6.91,3.139 10,5.5 6,0.3 12,0.134 18,-0.5 -0.76,0.768 -1.76,1.268 -3,1.5 -4.99,0.499 -9.99,0.666 -15,0.5 -4.77,-0.378 -8.11,-2.712 -10,-7 z"
         id="path182" />
    </g>
  </g>
</svg>
