<?xml version="1.0" encoding="UTF-8" standalone="no"?>
<!-- Created with Inkscape (http://www.inkscape.org/) -->

<svg
   width="96mm"
   height="96mm"
   viewBox="0 0 96 96"
   version="1.1"
   id="svg1"
   inkscape:version="1.4.2 (ebf0e940, 2025-05-08)"
   sodipodi:docname="truck.svg"
   xmlns:inkscape="http://www.inkscape.org/namespaces/inkscape"
   xmlns:sodipodi="http://sodipodi.sourceforge.net/DTD/sodipodi-0.dtd"
   xmlns="http://www.w3.org/2000/svg"
   xmlns:svg="http://www.w3.org/2000/svg">
  <sodipodi:namedview
     id="namedview1"
     pagecolor="#ffffff"
     bordercolor="#000000"
     borderopacity="0.25"
     inkscape:showpageshadow="2"
     inkscape:pageopacity="0.0"
     inkscape:pagecheckerboard="0"
     inkscape:deskcolor="#d1d1d1"
     inkscape:document-units="mm"
     inkscape:zoom="0.80444024"
     inkscape:cx="397.17059"
     inkscape:cy="262.91574"
     inkscape:window-width="1920"
     inkscape:window-height="1052"
     inkscape:window-x="0"
     inkscape:window-y="28"
     inkscape:window-maximized="0"
     inkscape:current-layer="layer1" />
  <defs
     id="defs1" />
  <g
     inkscape:label="Layer 1"
     inkscape:groupmode="layer"
     id="layer1">
    <g
       id="g2"
       style="clip-rule:evenodd;fill-rule:evenodd;image-rendering:optimizeQuality;shape-rendering:geometricPrecision;text-rendering:geometricPrecision"
       transform="matrix(0.33766861,0,0,0.33766861,-369.84894,-9.6813622)">
      <path
         style="opacity:1"
         fill="#d6eaf3"
         d="m 1224.5,44.5 c 10.83,-1.159 21.83,-1.3257 33,-0.5 5.49,0.751 10.83,2.0844 16,4 1.68,1.2088 3.02,2.7088 4,4.5 -9.92,-3.8713 -20.26,-6.2047 -31,-7 -7.15,-0.9916 -14.48,-1.325 -22,-1 z"
         id="path2" />
    </g>
    <g
       id="g4"
       style="clip-rule:evenodd;fill-rule:evenodd;image-rendering:optimizeQuality;shape-rendering:geometricPrecision;text-rendering:geometricPrecision"
       transform="matrix(0.33766861,0,0,0.33766861,-369.84894,-9.6813622)">
      <path
         style="opacity:1"
         fill="#9cc1dc"
         d="m 1223.5,44.5 c 0.33,0 0.67,0 1,0 7.52,-0.325 14.85,0.0084 22,1 -9.69,-0.0784 -19.35,0.2549 -29,1 2,-0.6667 4,-1.3333 6,-2 z"
         id="path4" />
    </g>
    <g
       id="g24"
       style="clip-rule:evenodd;fill-rule:evenodd;image-rendering:optimizeQuality;shape-rendering:geometricPrecision;text-rendering:geometricPrecision"
       transform="matrix(0.33766861,0,0,0.33766861,-369.84894,-9.6813622)">
      <path
         style="opacity:1"
         fill="#2f608c"
         d="m 1246.5,45.5 c 10.74,0.7953 21.08,3.1287 31,7 3.07,3.3626 4.91,7.3626 5.5,12 0.5,5.3229 0.67,10.6563 0.5,16 2.72,0.4628 5.39,1.1295 8,2 3.58,2.402 4.75,5.7353 3.5,10 -2.04,0.9231 -4.21,1.2564 -6.5,1 -0.71,-0.904 -1.71,-1.2373 -3,-1 -0.71,-0.904 -1.71,-1.2373 -3,-1 0,11.667 0,23.333 0,35 -0.67,0 -1.33,0 -2,0 0,-12.667 0,-25.333 0,-38 1,0 2,0 3,0 2.64,0.7631 5.31,0.9298 8,0.5 -3.17,-3.1838 -6.84,-5.3505 -11,-6.5 0.94,-8.7533 -0.4,-17.0867 -4,-25 -3.31,-3.3279 -7.31,-5.3279 -12,-6 -4.39,-1.4922 -8.73,-1.3255 -13,0.5 -9.66,0.4998 -19.33,0.6665 -29,0.5 -1.94,-0.6495 -3.94,-0.9828 -6,-1 -7.76,-1.6057 -14.59,0.3943 -20.5,6 -0.79,1.245 -1.29,2.5783 -1.5,4 -0.93,1.0676 -1.27,2.401 -1,4 -0.99,5.4753 -1.32,11.142 -1,17 -4.84,0.4195 -8.84,2.4195 -12,6 3.96,0.8671 7.96,0.8671 12,0 0,13 0,26 0,39 -0.89,-0.61 -1.89,-0.943 -3,-1 0,-11.333 0,-22.667 0,-34 -3.7,0.0524 -7.36,0.3857 -11,1 -2.47,-2.3415 -2.63,-5.0082 -0.5,-8 2.8,-3.1525 6.3,-4.8192 10.5,-5 -3.16,-22.498 6.51,-33.8313 29,-34 9.65,-0.7451 19.31,-1.0784 29,-1 z"
         id="path24" />
    </g>
    <g
       id="g25"
       style="clip-rule:evenodd;fill-rule:evenodd;image-rendering:optimizeQuality;shape-rendering:geometricPrecision;text-rendering:geometricPrecision"
       transform="matrix(0.33766861,0,0,0.33766861,-369.84894,-9.6813622)">
      <path
         style="opacity:1"
         fill="#2d6290"
         d="m 1210.5,55.5 c -2.31,3.3415 -5.31,6.0082 -9,8 -1.14,4.4716 -1.98,9.1383 -2.5,14 0.11,-5.1059 -0.72,-9.7726 -2.5,-14 1.06,-6.0586 4.73,-9.3919 11,-10 1.53,0.1399 2.53,0.8065 3,2 z"
         id="path25" />
    </g>
    <g
       id="g26"
       style="clip-rule:evenodd;fill-rule:evenodd;image-rendering:optimizeQuality;shape-rendering:geometricPrecision;text-rendering:geometricPrecision"
       transform="matrix(0.33766861,0,0,0.33766861,-369.84894,-9.6813622)">
      <path
         style="opacity:1"
         fill="#94c3dd"
         d="m 1264.5,51.5 c 4.69,0.6721 8.69,2.6721 12,6 3.6,7.9133 4.94,16.2467 4,25 -0.33,0 -0.67,0 -1,0 0.53,-6.8614 -0.3,-13.528 -2.5,-20 -0.38,0.556 -0.88,0.8893 -1.5,1 -1.65,-7.1871 -6.32,-10.5204 -14,-10 1,-0.6667 2,-1.3333 3,-2 z"
         id="path26" />
    </g>
    <g
       id="g27"
       style="clip-rule:evenodd;fill-rule:evenodd;image-rendering:optimizeQuality;shape-rendering:geometricPrecision;text-rendering:geometricPrecision"
       transform="matrix(0.33766861,0,0,0.33766861,-369.84894,-9.6813622)">
      <path
         style="opacity:1"
         fill="#d2eaf5"
         d="m 1264.5,51.5 c -1,0.6667 -2,1.3333 -3,2 0,1 0,2 0,3 -0.93,-1.0676 -1.27,-2.401 -1,-4 -4.33,2.1439 -9,3.1439 -14,3 -8.01,-1.3308 -16.01,-2.3308 -24,-3 9.67,0.1665 19.34,-2e-4 29,-0.5 4.27,-1.8255 8.61,-1.9922 13,-0.5 z"
         id="path27" />
    </g>
    <g
       id="g28"
       style="clip-rule:evenodd;fill-rule:evenodd;image-rendering:optimizeQuality;shape-rendering:geometricPrecision;text-rendering:geometricPrecision"
       transform="matrix(0.33766861,0,0,0.33766861,-369.84894,-9.6813622)">
      <path
         style="opacity:1"
         fill="#f3f8f9"
         d="m 1216.5,51.5 c 2.06,0.0172 4.06,0.3505 6,1 7.99,0.6692 15.99,1.6692 24,3 5,0.1439 9.67,-0.8561 14,-3 -0.27,1.599 0.07,2.9324 1,4 3,2.8316 6.17,5.4983 9.5,8 1.66,4.9451 1.83,9.9451 0.5,15 -3.4,-1.6796 -6.74,-3.3462 -10,-5 -2.06,-1.2763 -4.4,-2.1097 -7,-2.5 -8.84,-0.8236 -17.51,-0.6569 -26,0.5 -8.85,-0.4967 -17.18,1.17 -25,5 -1,0 -2,0 -3,0 0.63,-4.6408 0.96,-9.3075 1,-14 3.69,-1.9918 6.69,-4.6585 9,-8 1.6,-0.787 2.27,-2.1203 2,-4 1.33,0 2.67,0 4,0 z"
         id="path28" />
    </g>
    <g
       id="g29"
       style="clip-rule:evenodd;fill-rule:evenodd;image-rendering:optimizeQuality;shape-rendering:geometricPrecision;text-rendering:geometricPrecision"
       transform="matrix(0.33766861,0,0,0.33766861,-369.84894,-9.6813622)">
      <path
         style="opacity:1"
         fill="#9acce9"
         d="m 1216.5,51.5 c -1.33,0 -2.67,0 -4,0 0.27,1.8797 -0.4,3.213 -2,4 -0.47,-1.1935 -1.47,-1.8601 -3,-2 -6.27,0.6081 -9.94,3.9414 -11,10 -0.67,-0.6667 -1.33,-1.3333 -2,-2 0.21,-1.4217 0.71,-2.755 1.5,-4 5.91,-5.6057 12.74,-7.6057 20.5,-6 z"
         id="path29" />
    </g>
    <g
       id="g30"
       style="clip-rule:evenodd;fill-rule:evenodd;image-rendering:optimizeQuality;shape-rendering:geometricPrecision;text-rendering:geometricPrecision"
       transform="matrix(0.33766861,0,0,0.33766861,-369.84894,-9.6813622)">
      <path
         style="opacity:1"
         fill="#1c61a0"
         d="m 1220.5,47.5 c 11.41,-0.4334 22.74,0.0666 34,1.5 -11.95,3.1239 -23.95,3.2906 -36,0.5 0.74,-0.6818 1.41,-1.3485 2,-2 z"
         id="path30" />
    </g>
    <g
       id="g32"
       style="clip-rule:evenodd;fill-rule:evenodd;image-rendering:optimizeQuality;shape-rendering:geometricPrecision;text-rendering:geometricPrecision"
       transform="matrix(0.33766861,0,0,0.33766861,-369.84894,-9.6813622)">
      <path
         style="opacity:1"
         fill="#2b6192"
         d="m 1261.5,53.5 c 7.68,-0.5204 12.35,2.8129 14,10 -1.96,5.912 -2.62,12.2453 -2,19 0,0.3333 0,0.6667 0,1 -1.94,3.6925 -4.27,7.1925 -7,10.5 -1.61,-0.0187 -3.27,-0.1854 -5,-0.5 -2.31,-0.4926 -4.64,-0.8259 -7,-1 -1.11,-0.79 -2.44,-1.29 -4,-1.5 -10.18,-0.8249 -20.18,-0.6583 -30,0.5 -4.56,0.6788 -9.06,1.6788 -13.5,3 -1.31,-0.6301 -2.14,-1.6301 -2.5,-3 1.83,0.994 3.5,0.994 5,0 1.62,-0.538 3.28,-0.8713 5,-1 6.27,-1.1861 12.6,-1.8527 19,-2 10.89,0.4541 21.55,1.6207 32,3.5 3.09,-2.8323 5.09,-6.3323 6,-10.5 -6.6,-4.4857 -13.77,-6.1524 -21.5,-5 -3.6,-1.6283 -7.44,-2.4616 -11.5,-2.5 -13.24,-1.0271 -25.74,1.4729 -37.5,7.5 -0.49,1.2932 -0.66,2.6266 -0.5,4 -0.9,-0.7905 -1.57,-1.7905 -2,-3 -0.13,-0.7389 0.04,-1.4056 0.5,-2 1.65,-0.8994 3.15,-1.8994 4.5,-3 7.82,-3.83 16.15,-5.4967 25,-5 11.09,-0.4134 22.09,0.2532 33,2 3.26,1.6538 6.6,3.3204 10,5 1.33,-5.0549 1.16,-10.0549 -0.5,-15 -3.33,-2.5017 -6.5,-5.1684 -9.5,-8 0,-1 0,-2 0,-3 z"
         id="path32" />
    </g>
    <g
       id="g42"
       style="clip-rule:evenodd;fill-rule:evenodd;image-rendering:optimizeQuality;shape-rendering:geometricPrecision;text-rendering:geometricPrecision"
       transform="matrix(0.33766861,0,0,0.33766861,-369.84894,-9.6813622)">
      <path
         style="opacity:1"
         fill="#9ec4e2"
         d="m 1228.5,72.5 c 8.49,-1.1569 17.16,-1.3236 26,-0.5 2.6,0.3903 4.94,1.2237 7,2.5 -10.91,-1.7468 -21.91,-2.4134 -33,-2 z"
         id="path42" />
    </g>
    <g
       id="g51"
       style="clip-rule:evenodd;fill-rule:evenodd;image-rendering:optimizeQuality;shape-rendering:geometricPrecision;text-rendering:geometricPrecision"
       transform="matrix(0.33766861,0,0,0.33766861,-369.84894,-9.6813622)">
      <path
         style="opacity:1"
         fill="#9fc0d7"
         d="m 1196.5,63.5 c 1.78,4.2274 2.61,8.8941 2.5,14 0.52,-4.8617 1.36,-9.5284 2.5,-14 -0.04,4.6925 -0.37,9.3592 -1,14 1,0 2,0 3,0 -1.35,1.1006 -2.85,2.1006 -4.5,3 -0.46,0.5944 -0.63,1.2611 -0.5,2 -0.7,-6.2329 -1.37,-12.5662 -2,-19 z"
         id="path51" />
    </g>
    <g
       id="g52"
       style="clip-rule:evenodd;fill-rule:evenodd;image-rendering:optimizeQuality;shape-rendering:geometricPrecision;text-rendering:geometricPrecision"
       transform="matrix(0.33766861,0,0,0.33766861,-369.84894,-9.6813622)">
      <path
         style="opacity:1"
         fill="#7a97a9"
         d="m 1275.5,63.5 c -0.63,6.4338 -1.3,12.7671 -2,19 -0.62,-6.7547 0.04,-13.088 2,-19 z"
         id="path52" />
    </g>
    <g
       id="g54"
       style="clip-rule:evenodd;fill-rule:evenodd;image-rendering:optimizeQuality;shape-rendering:geometricPrecision;text-rendering:geometricPrecision"
       transform="matrix(0.33766861,0,0,0.33766861,-369.84894,-9.6813622)">
      <path
         style="opacity:1"
         fill="#1b68ac"
         d="m 1214.5,90.5 c 4.15,-1.5168 8.48,-2.8501 13,-4 3.4,0.9915 6.74,0.6582 10,-1 1.67,1.3333 3.33,1.3333 5,0 1.02,1.1872 2.19,2.1872 3.5,3 1.95,-0.2512 4.12,-0.9179 6.5,-2 -0.2,1.0294 0.3,2.0294 1.5,3 0.41,-0.4574 0.91,-0.7907 1.5,-1 2.67,0.6667 5.33,1.3333 8,2 1.11,-1.223 1.28,-2.5563 0.5,-4 -0.89,1.2112 -1.73,1.2112 -2.5,0 0.62,-1.6161 1.62,-2.9495 3,-4 -0.67,-0.3333 -1.33,-0.6667 -2,-1 0.21,-0.586 0.54,-1.086 1,-1.5 -2.12,1.0202 -4.45,1.3535 -7,1 5.17,-1.8156 4.84,-2.9823 -1,-3.5 -1.98,-0.0629 -3.65,0.6038 -5,2 -1.93,-1.0525 -3.43,-2.3858 -4.5,-4 -1.58,0.8757 -2.58,2.2091 -3,4 -1.07,-1.7826 -2.57,-2.2826 -4.5,-1.5 -1.33,1.3333 -1.33,2.6667 0,4 -2.07,0.3787 -3.57,-0.4547 -4.5,-2.5 -0.33,1 -0.67,2 -1,3 -1.12,-1.0521 -1.62,-2.2188 -1.5,-3.5 3.04,-0.3589 3.38,-1.0255 1,-2 1.33,-0.6667 2.67,-1.3333 4,-2 -0.83,-0.1667 -1.67,-0.3333 -2.5,-0.5 -2.44,-0.0088 -4.6,0.6579 -6.5,2 -0.59,-0.2093 -1.09,-0.5426 -1.5,-1 -2.11,0.8114 -4.11,1.8114 -6,3 -3.27,-0.3965 -6.77,-0.3965 -10.5,0 0.12,4.669 -1.38,5.669 -4.5,3 -0.83,0.1667 -1.67,0.3333 -2.5,0.5 0.78,3.2641 2.44,5.0974 5,5.5 -0.53,0.6924 -1.19,1.1924 -2,1.5 1.36,0.9344 2.69,1.7677 4,2.5 -1.5,0.994 -3.17,0.994 -5,0 -1.82,-1.6184 -3.15,-3.6184 -4,-6 -0.16,-1.3734 0.01,-2.7068 0.5,-4 11.76,-6.0271 24.26,-8.5271 37.5,-7.5 4.06,0.0384 7.9,0.8717 11.5,2.5 7.73,-1.1524 14.9,0.5143 21.5,5 -0.91,4.1677 -2.91,7.6677 -6,10.5 -10.45,-1.8793 -21.11,-3.0459 -32,-3.5 -6.4,0.1473 -12.73,0.8139 -19,2 z"
         id="path54" />
    </g>
    <g
       id="g55"
       style="clip-rule:evenodd;fill-rule:evenodd;image-rendering:optimizeQuality;shape-rendering:geometricPrecision;text-rendering:geometricPrecision"
       transform="matrix(0.33766861,0,0,0.33766861,-369.84894,-9.6813622)">
      <path
         style="opacity:1"
         fill="#1265af"
         d="m 1214.5,90.5 c -1.72,0.1287 -3.38,0.462 -5,1 -1.31,-0.7323 -2.64,-1.5656 -4,-2.5 0.81,-0.3076 1.47,-0.8076 2,-1.5 -2.56,-0.4026 -4.22,-2.2359 -5,-5.5 0.83,-0.1667 1.67,-0.3333 2.5,-0.5 3.12,2.669 4.62,1.669 4.5,-3 3.73,-0.3965 7.23,-0.3965 10.5,0 1.89,-1.1886 3.89,-2.1886 6,-3 0.41,0.4574 0.91,0.7907 1.5,1 1.9,-1.3421 4.06,-2.0088 6.5,-2 0.83,0.1667 1.67,0.3333 2.5,0.5 -1.33,0.6667 -2.67,1.3333 -4,2 2.38,0.9745 2.04,1.6411 -1,2 -0.12,1.2812 0.38,2.4479 1.5,3.5 0.33,-1 0.67,-2 1,-3 0.93,2.0453 2.43,2.8787 4.5,2.5 -1.33,-1.3333 -1.33,-2.6667 0,-4 1.93,-0.7826 3.43,-0.2826 4.5,1.5 0.42,-1.7909 1.42,-3.1243 3,-4 1.07,1.6142 2.57,2.9475 4.5,4 1.35,-1.3962 3.02,-2.0629 5,-2 5.84,0.5177 6.17,1.6844 1,3.5 2.55,0.3535 4.88,0.0202 7,-1 -0.46,0.414 -0.79,0.914 -1,1.5 0.67,0.3333 1.33,0.6667 2,1 -1.38,1.0505 -2.38,2.3839 -3,4 0.77,1.2112 1.61,1.2112 2.5,0 0.78,1.4437 0.61,2.777 -0.5,4 -2.67,-0.6667 -5.33,-1.3333 -8,-2 -0.59,0.2093 -1.09,0.5426 -1.5,1 -1.2,-0.9706 -1.7,-1.9706 -1.5,-3 -2.38,1.0821 -4.55,1.7488 -6.5,2 -1.31,-0.8128 -2.48,-1.8128 -3.5,-3 -1.67,1.3333 -3.33,1.3333 -5,0 -3.26,1.6582 -6.6,1.9915 -10,1 -4.52,1.1499 -8.85,2.4832 -13,4 z"
         id="path55" />
    </g>
    <g
       id="g58"
       style="clip-rule:evenodd;fill-rule:evenodd;image-rendering:optimizeQuality;shape-rendering:geometricPrecision;text-rendering:geometricPrecision"
       transform="matrix(0.33766861,0,0,0.33766861,-369.84894,-9.6813622)">
      <path
         style="opacity:1"
         fill="#e4f6f9"
         d="m 1279.5,82.5 c 0.22,1.2348 0.89,2.2348 2,3 -2.59,0.98 -5.25,1.3134 -8,1 0,-1 0,-2 0,-3 0,-0.3333 0,-0.6667 0,-1 0.7,-6.2329 1.37,-12.5662 2,-19 0.62,-0.1107 1.12,-0.444 1.5,-1 2.2,6.472 3.03,13.1386 2.5,20 z"
         id="path58" />
    </g>
    <g
       id="g62"
       style="clip-rule:evenodd;fill-rule:evenodd;image-rendering:optimizeQuality;shape-rendering:geometricPrecision;text-rendering:geometricPrecision"
       transform="matrix(0.33766861,0,0,0.33766861,-369.84894,-9.6813622)">
      <path
         style="opacity:1"
         fill="#b0d7ea"
         d="m 1193.5,65.5 c 0,6 0,12 0,18 -1,0 -2,0 -3,0 0.33,1.8224 1,3.4891 2,5 -4.04,0.8671 -8.04,0.8671 -12,0 3.16,-3.5805 7.16,-5.5805 12,-6 -0.32,-5.858 0.01,-11.5247 1,-17 z"
         id="path62" />
    </g>
    <g
       id="g68"
       style="clip-rule:evenodd;fill-rule:evenodd;image-rendering:optimizeQuality;shape-rendering:geometricPrecision;text-rendering:geometricPrecision"
       transform="matrix(0.33766861,0,0,0.33766861,-369.84894,-9.6813622)">
      <path
         style="opacity:1"
         fill="#ddf1f6"
         d="m 1194.5,61.5 c 0.67,0.6667 1.33,1.3333 2,2 0.63,6.4338 1.3,12.7671 2,19 0.43,1.2095 1.1,2.2095 2,3 0.85,2.3816 2.18,4.3816 4,6 0.36,1.3699 1.19,2.3699 2.5,3 4.44,-1.3212 8.94,-2.3212 13.5,-3 11.36,-0.2174 22.69,0.1159 34,1 2.36,0.1741 4.69,0.5074 7,1 1.19,2.4754 3.19,3.4754 6,3 0.28,9.924 0.28,19.757 0,29.5 -21.66,0.5 -43.33,0.667 -65,0.5 0,-1.333 0,-2.667 0,-4 0.17,-8.673 0,-17.34 -0.5,-26 -1.19,-1.8772 -2.19,-3.8772 -3,-6 -0.82,-1.3228 -1.98,-1.9894 -3.5,-2 -0.72,0.4175 -1.22,1.0842 -1.5,2 -0.28,-0.9158 -0.78,-1.5825 -1.5,-2 -1,-1.5109 -1.67,-3.1776 -2,-5 1,0 2,0 3,0 0,-6 0,-12 0,-18 -0.27,-1.599 0.07,-2.9324 1,-4 z"
         id="path68" />
    </g>
    <g
       id="g122"
       style="clip-rule:evenodd;fill-rule:evenodd;image-rendering:optimizeQuality;shape-rendering:geometricPrecision;text-rendering:geometricPrecision"
       transform="matrix(0.33766861,0,0,0.33766861,-369.84894,-9.6813622)">
      <path
         style="opacity:1"
         fill="#dceff3"
         d="m 1223.5,44.5 c -2,0.6667 -4,1.3333 -6,2 -22.49,0.1687 -32.16,11.502 -29,34 -4.2,0.1808 -7.7,1.8475 -10.5,5 -2.13,2.9918 -1.97,5.6585 0.5,8 2.83,0.8683 5.83,0.8683 9,0 0,11.333 0,22.667 0,34 -2.98,-0.259 -4.81,1.074 -5.5,4 -0.83,51.835 -0.67,103.502 0.5,155 1.2,2.409 2.87,4.409 5,6 32.5,1.164 65.16,1.331 98,0.5 0.56,-0.383 0.89,-0.883 1,-1.5 0.33,-0.667 0.67,-1.333 1,-2 0.72,-0.418 1.22,-1.084 1.5,-2 0.67,-51.667 0.67,-103.333 0,-155 -0.66,-1.824 -1.83,-3.157 -3.5,-4 -1.14,-11.257 -1.31,-22.591 -0.5,-34 1.01,-0.8366 2.18,-1.17 3.5,-1 2.29,0.2564 4.46,-0.0769 6.5,-1 1.25,-4.2647 0.08,-7.598 -3.5,-10 4.97,1.9432 6.81,5.6098 5.5,11 -3.42,1.6225 -7.09,2.6225 -11,3 -0.67,10 -0.67,20 0,30 3.33,0.667 5.33,2.667 6,6 0.19,7.247 0.69,14.413 1.5,21.5 -1.15,35.994 -1.15,72.661 0,110 -0.82,8.088 -1.32,16.255 -1.5,24.5 -1.08,1.165 -1.92,2.498 -2.5,4 -1.89,0.906 -3.72,1.906 -5.5,3 -32.91,-0.376 -65.74,-0.876 -98.5,-1.5 -1.79,-0.785 -3.29,-1.951 -4.5,-3.5 -0.21,-5.718 -0.71,-11.385 -1.5,-17 0.01,-47.19 0.17,-94.523 0.5,-142 1.58,-3.251 3.58,-6.251 6,-9 0.5,-8.994 0.67,-17.994 0.5,-27 -4,0 -8,0 -12,0 -0.94,-4.1737 -0.61,-8.3404 1,-12.5 3.51,-2.8357 7.34,-5.0023 11.5,-6.5 -0.06,-7.8877 1.11,-15.5544 3.5,-23 1,0 2,0 3,0 -0.17,-1.3221 0.16,-2.4887 1,-3.5 2,-1 4,-2 6,-3 7.6,-1.4031 15.27,-2.2364 23,-2.5 z"
         id="path122" />
    </g>
    <g
       id="g123"
       style="clip-rule:evenodd;fill-rule:evenodd;image-rendering:optimizeQuality;shape-rendering:geometricPrecision;text-rendering:geometricPrecision"
       transform="matrix(0.33766861,0,0,0.33766861,-369.84894,-9.6813622)">
      <path
         style="opacity:1"
         fill="#b4d6ed"
         d="m 1285.5,92.5 c 1.29,-0.2373 2.29,0.096 3,1 -1.32,-0.17 -2.49,0.1634 -3.5,1 -0.81,11.409 -0.64,22.743 0.5,34 -0.67,0 -1.33,0 -2,0 0,-0.333 0,-0.667 0,-1 -0.65,-12.048 0.02,-23.715 2,-35 z"
         id="path123" />
    </g>
    <g
       id="g124"
       style="clip-rule:evenodd;fill-rule:evenodd;image-rendering:optimizeQuality;shape-rendering:geometricPrecision;text-rendering:geometricPrecision"
       transform="matrix(0.33766861,0,0,0.33766861,-369.84894,-9.6813622)">
      <path
         style="opacity:1"
         fill="#5388aa"
         d="m 1283.5,88.5 c -1,0 -2,0 -3,0 0,12.667 0,25.333 0,38 -0.33,0 -0.67,0 -1,0 0,-13 0,-26 0,-39 1.6,-0.2678 2.93,0.0655 4,1 z"
         id="path124" />
    </g>
    <g
       id="g125"
       style="clip-rule:evenodd;fill-rule:evenodd;image-rendering:optimizeQuality;shape-rendering:geometricPrecision;text-rendering:geometricPrecision"
       transform="matrix(0.33766861,0,0,0.33766861,-369.84894,-9.6813622)">
      <path
         style="opacity:1"
         fill="#4a7da4"
         d="m 1285.5,92.5 c -1.98,11.285 -2.65,22.952 -2,35 -0.67,0 -1,-0.333 -1,-1 0,-11.667 0,-23.333 0,-35 1.29,-0.2373 2.29,0.096 3,1 z"
         id="path125" />
    </g>
    <g
       id="g126"
       style="clip-rule:evenodd;fill-rule:evenodd;image-rendering:optimizeQuality;shape-rendering:geometricPrecision;text-rendering:geometricPrecision"
       transform="matrix(0.33766861,0,0,0.33766861,-369.84894,-9.6813622)">
      <path
         style="opacity:1"
         fill="#bae4f2"
         d="m 1279.5,82.5 c 0.33,0 0.67,0 1,0 4.16,1.1495 7.83,3.3162 11,6.5 -2.69,0.4298 -5.36,0.2631 -8,-0.5 -1.07,-0.9345 -2.4,-1.2678 -4,-1 0,13 0,26 0,39 -28.83,0.998 -57.83,1.331 -87,1 0,-13 0,-26 0,-39 0.72,0.4175 1.22,1.0842 1.5,2 0.28,-0.9158 0.78,-1.5825 1.5,-2 -0.17,12.005 0,24.005 0.5,36 0.56,0.522 1.23,0.855 2,1 1.64,-0.815 3.14,-1.815 4.5,-3 0,1.333 0,2.667 0,4 21.67,0.167 43.34,0 65,-0.5 0.28,-9.743 0.28,-19.576 0,-29.5 -2.81,0.4754 -4.81,-0.5246 -6,-3 1.73,0.3146 3.39,0.4813 5,0.5 2.73,-3.3075 5.06,-6.8075 7,-10.5 0,1 0,2 0,3 2.75,0.3134 5.41,-0.02 8,-1 -1.11,-0.7652 -1.78,-1.7652 -2,-3 z"
         id="path126" />
    </g>
    <g
       id="g127"
       style="clip-rule:evenodd;fill-rule:evenodd;image-rendering:optimizeQuality;shape-rendering:geometricPrecision;text-rendering:geometricPrecision"
       transform="matrix(0.33766861,0,0,0.33766861,-369.84894,-9.6813622)">
      <path
         style="opacity:1"
         fill="#76aed3"
         d="m 1274.5,88.5 c 0.71,-0.904 1.71,-1.2373 3,-1 0.33,12.1783 0,24.178 -1,36 0.65,-12.048 -0.02,-23.7146 -2,-35 z"
         id="path127" />
    </g>
    <g
       id="g128"
       style="clip-rule:evenodd;fill-rule:evenodd;image-rendering:optimizeQuality;shape-rendering:geometricPrecision;text-rendering:geometricPrecision"
       transform="matrix(0.33766861,0,0,0.33766861,-369.84894,-9.6813622)">
      <path
         style="opacity:1"
         fill="#225a87"
         d="m 1195.5,88.5 c 1.52,0.0106 2.68,0.6772 3.5,2 0.81,2.1228 1.81,4.1228 3,6 0.5,8.66 0.67,17.327 0.5,26 -1.36,1.185 -2.86,2.185 -4.5,3 -0.77,-0.145 -1.44,-0.478 -2,-1 -0.5,-11.995 -0.67,-23.995 -0.5,-36 z"
         id="path128" />
    </g>
    <g
       id="g129"
       style="clip-rule:evenodd;fill-rule:evenodd;image-rendering:optimizeQuality;shape-rendering:geometricPrecision;text-rendering:geometricPrecision"
       transform="matrix(0.33766861,0,0,0.33766861,-369.84894,-9.6813622)">
      <path
         style="opacity:1"
         fill="#1c64a6"
         d="m 1197.5,96.5 c 2.55,0.3844 3.88,1.8844 4,4.5 -0.01,6.017 -0.18,12.184 -0.5,18.5 -2.4,5.399 -3.9,5.066 -4.5,-1 0.85,-7.309 1.18,-14.642 1,-22 z"
         id="path129" />
    </g>
    <g
       id="g130"
       style="clip-rule:evenodd;fill-rule:evenodd;image-rendering:optimizeQuality;shape-rendering:geometricPrecision;text-rendering:geometricPrecision"
       transform="matrix(0.33766861,0,0,0.33766861,-369.84894,-9.6813622)">
      <path
         style="opacity:1"
         fill="#265e8f"
         d="m 1274.5,88.5 c 1.98,11.2854 2.65,22.952 2,35 -2.34,2.639 -4.5,2.306 -6.5,-1 -0.67,-9 -0.67,-18 0,-27 1.52,-2.3981 3.02,-4.7314 4.5,-7 z"
         id="path130" />
    </g>
    <g
       id="g131"
       style="clip-rule:evenodd;fill-rule:evenodd;image-rendering:optimizeQuality;shape-rendering:geometricPrecision;text-rendering:geometricPrecision"
       transform="matrix(0.33766861,0,0,0.33766861,-369.84894,-9.6813622)">
      <path
         style="opacity:1"
         fill="#1b66a8"
         d="m 1272.5,94.5 c 1,-0.0858 1.83,0.2476 2.5,1 0.5,9.327 0.67,18.661 0.5,28 -1.89,0.203 -3.39,-0.463 -4.5,-2 -0.61,-9.274 -0.11,-18.274 1.5,-27 z"
         id="path131" />
    </g>
    <g
       id="g132"
       style="clip-rule:evenodd;fill-rule:evenodd;image-rendering:optimizeQuality;shape-rendering:geometricPrecision;text-rendering:geometricPrecision"
       transform="matrix(0.33766861,0,0,0.33766861,-369.84894,-9.6813622)">
      <path
         style="opacity:1"
         fill="#f9faf9"
         d="m 1229.5,93.5 c 7.51,0.4883 14.67,0.4883 21.5,0 4.78,1.8544 9.61,3.5211 14.5,5 -0.86,2.897 -1.19,5.897 -1,9 1.66,5.877 2.32,11.877 2,18 -20.34,0.167 -40.67,0 -61,-0.5 -0.52,-0.561 -0.86,-1.228 -1,-2 0.59,-3.386 1.25,-6.72 2,-10 -1.14,-5.082 -1.3,-10.249 -0.5,-15.5 7.94,-2.4666 15.77,-3.7999 23.5,-4 z"
         id="path132" />
    </g>
    <g
       id="g133"
       style="clip-rule:evenodd;fill-rule:evenodd;image-rendering:optimizeQuality;shape-rendering:geometricPrecision;text-rendering:geometricPrecision"
       transform="matrix(0.33766861,0,0,0.33766861,-369.84894,-9.6813622)">
      <path
         style="opacity:1"
         fill="#7eabcf"
         d="m 1220.5,91.5 c 9.82,-1.1583 19.82,-1.3249 30,-0.5 1.56,0.21 2.89,0.71 4,1.5 -11.31,-0.8841 -22.64,-1.2174 -34,-1 z"
         id="path133" />
    </g>
    <g
       id="g138"
       style="clip-rule:evenodd;fill-rule:evenodd;image-rendering:optimizeQuality;shape-rendering:geometricPrecision;text-rendering:geometricPrecision"
       transform="matrix(0.33766861,0,0,0.33766861,-369.84894,-9.6813622)">
      <path
         style="opacity:1"
         fill="#4e80aa"
         d="m 1183.5,132.5 c -0.33,50.836 0,101.503 1,152 0.28,3.726 2.28,5.892 6,6.5 31.33,0.5 62.66,0.667 94,0.5 -32.16,0.998 -64.5,1.332 -97,1 -2.13,-1.591 -3.8,-3.591 -5,-6 -0.33,-51.503 0,-102.836 1,-154 z"
         id="path138" />
    </g>
    <g
       id="g142"
       style="clip-rule:evenodd;fill-rule:evenodd;image-rendering:optimizeQuality;shape-rendering:geometricPrecision;text-rendering:geometricPrecision"
       transform="matrix(0.33766861,0,0,0.33766861,-369.84894,-9.6813622)">
      <path
         style="opacity:1"
         fill="#3a73a6"
         d="m 1279.5,126.5 c 0.33,0 0.67,0 1,0 0.67,0 1.33,0 2,0 0,0.667 0.33,1 1,1 0,0.333 0,0.667 0,1 0.83,2.324 2.16,4.324 4,6 1,29.659 1.33,59.326 1,89 -1.44,-20.294 -1.94,-40.628 -1.5,-61 -0.37,-0.916 -0.87,-1.75 -1.5,-2.5 1.01,-3.952 1.34,-8.118 1,-12.5 -0.93,-2.971 -1.77,-5.971 -2.5,-9 -0.38,0.556 -0.88,0.889 -1.5,1 -0.68,46.794 -1.34,94.794 -2,144 0,-48.667 0,-97.333 0,-146 -29.33,0 -58.67,0 -88,0 -0.33,0 -0.67,0 -1,0 30.85,-0.634 59.19,-1.301 85,-2 1.11,-0.79 2.44,-1.29 4,-1.5 -1.17,-0.5 -2,-1.333 -2.5,-2.5 -1.18,2.154 -2.35,1.82 -3.5,-1 -26.99,-0.833 -53.99,-1.333 -81,-1.5 -0.56,-0.383 -0.89,-0.883 -1,-1.5 29.17,0.331 58.17,-0.002 87,-1 z"
         id="path142" />
    </g>
    <g
       id="g151"
       style="clip-rule:evenodd;fill-rule:evenodd;image-rendering:optimizeQuality;shape-rendering:geometricPrecision;text-rendering:geometricPrecision"
       transform="matrix(0.33766861,0,0,0.33766861,-369.84894,-9.6813622)">
      <path
         style="opacity:1"
         fill="#18578f"
         d="m 1189.5,127.5 c 0.44,-0.065 0.77,0.101 1,0.5 -1.65,2.039 -3.48,3.873 -5.5,5.5 -0.5,50.332 -0.67,100.666 -0.5,151 -1,-50.497 -1.33,-101.164 -1,-152 1.39,-2.39 3.39,-4.057 6,-5 z"
         id="path151" />
    </g>
    <g
       id="g175"
       style="clip-rule:evenodd;fill-rule:evenodd;image-rendering:optimizeQuality;shape-rendering:geometricPrecision;text-rendering:geometricPrecision"
       transform="matrix(0.33766861,0,0,0.33766861,-369.84894,-9.6813622)">
      <path
         style="opacity:1"
         fill="#b3d5f1"
         d="m 1189.5,126.5 c 0,0.333 0,0.667 0,1 -2.61,0.943 -4.61,2.61 -6,5 -1,51.164 -1.33,102.497 -1,154 -1.17,-51.498 -1.33,-103.165 -0.5,-155 0.69,-2.926 2.52,-4.259 5.5,-4 0,-11.333 0,-22.667 0,-34 -3.17,0.8683 -6.17,0.8683 -9,0 3.64,-0.6143 7.3,-0.9476 11,-1 0,11.333 0,22.667 0,34 z"
         id="path175" />
    </g>
    <g
       id="g181"
       style="clip-rule:evenodd;fill-rule:evenodd;image-rendering:optimizeQuality;shape-rendering:geometricPrecision;text-rendering:geometricPrecision"
       transform="matrix(0.33766861,0,0,0.33766861,-369.84894,-9.6813622)">
      <path
         style="opacity:1"
         fill="#255e89"
         d="m 1283.5,128.5 c 0.67,0 1.33,0 2,0 1.67,0.843 2.84,2.176 3.5,4 0.67,51.667 0.67,103.333 0,155 -0.28,0.916 -0.78,1.582 -1.5,2 0.66,-21.829 0.99,-43.829 1,-66 0.33,-29.674 0,-59.341 -1,-89 -1.84,-1.676 -3.17,-3.676 -4,-6 z"
         id="path181" />
    </g>
    <g
       id="g232"
       style="clip-rule:evenodd;fill-rule:evenodd;image-rendering:optimizeQuality;shape-rendering:geometricPrecision;text-rendering:geometricPrecision"
       transform="matrix(0.33766861,0,0,0.33766861,-369.84894,-9.6813622)">
      <path
         style="opacity:1"
         fill="#1b5a8e"
         d="m 1276.5,135.5 c -25.81,0.699 -54.15,1.366 -85,2 0,49 0,98 0,147 29.84,0.331 59.5,-0.002 89,-1 0.66,-49.206 1.32,-97.206 2,-144 0.17,48.334 0,96.668 -0.5,145 -1.07,0.691 -2.23,1.191 -3.5,1.5 -24.74,0.214 -49.24,0.38 -73.5,0.5 -5.22,-0.36 -10.22,-1.36 -15,-3 0.16,-49.33 0.33,-98.663 0.5,-148 28.67,0 57.33,0 86,0 z"
         id="path232" />
    </g>
    <g
       id="g233"
       style="clip-rule:evenodd;fill-rule:evenodd;image-rendering:optimizeQuality;shape-rendering:geometricPrecision;text-rendering:geometricPrecision"
       transform="matrix(0.33766861,0,0,0.33766861,-369.84894,-9.6813622)">
      <path
         style="opacity:1"
         fill="#ceeefa"
         d="m 1192.5,137.5 c 29.33,0 58.67,0 88,0 0,48.667 0,97.333 0,146 -29.33,0 -58.67,0 -88,0 0,-48.667 0,-97.333 0,-146 z"
         id="path233" />
    </g>
    <g
       id="g234"
       style="clip-rule:evenodd;fill-rule:evenodd;image-rendering:optimizeQuality;shape-rendering:geometricPrecision;text-rendering:geometricPrecision"
       transform="matrix(0.33766861,0,0,0.33766861,-369.84894,-9.6813622)">
      <path
         style="opacity:1"
         fill="#79a9c8"
         d="m 1191.5,137.5 c 0.33,0 0.67,0 1,0 0,48.667 0,97.333 0,146 29.33,0 58.67,0 88,0 -29.5,0.998 -59.16,1.331 -89,1 0,-49 0,-98 0,-147 z"
         id="path234" />
    </g>
    <g
       id="g240"
       style="clip-rule:evenodd;fill-rule:evenodd;image-rendering:optimizeQuality;shape-rendering:geometricPrecision;text-rendering:geometricPrecision"
       transform="matrix(0.33766861,0,0,0.33766861,-369.84894,-9.6813622)">
      <path
         style="opacity:1"
         fill="#1d68ab"
         d="m 1189.5,127.5 c 0,-0.333 0,-0.667 0,-1 1.11,0.057 2.11,0.39 3,1 0.11,0.617 0.44,1.117 1,1.5 27.01,0.167 54.01,0.667 81,1.5 1.15,2.82 2.32,3.154 3.5,1 0.5,1.167 1.33,2 2.5,2.5 -1.56,0.21 -2.89,0.71 -4,1.5 -28.67,0 -57.33,0 -86,0 -0.17,49.337 -0.34,98.67 -0.5,148 4.78,1.64 9.78,2.64 15,3 24.26,-0.12 48.76,-0.286 73.5,-0.5 1.27,-0.309 2.43,-0.809 3.5,-1.5 0.5,-48.332 0.67,-96.666 0.5,-145 0.62,-0.111 1.12,-0.444 1.5,-1 0.73,3.029 1.57,6.029 2.5,9 0.34,4.382 0.01,8.548 -1,12.5 0.63,0.75 1.13,1.584 1.5,2.5 -0.44,20.372 0.06,40.706 1.5,61 -0.01,22.171 -0.34,44.171 -1,66 -0.33,0.667 -0.67,1.333 -1,2 -0.67,0 -1.33,0 -2,0 -31.34,0.167 -62.67,0 -94,-0.5 -3.72,-0.608 -5.72,-2.774 -6,-6.5 -0.17,-50.334 0,-100.668 0.5,-151 2.02,-1.627 3.85,-3.461 5.5,-5.5 -0.23,-0.399 -0.56,-0.565 -1,-0.5 z"
         id="path240" />
    </g>
    <g
       id="g241"
       style="clip-rule:evenodd;fill-rule:evenodd;image-rendering:optimizeQuality;shape-rendering:geometricPrecision;text-rendering:geometricPrecision"
       transform="matrix(0.33766861,0,0,0.33766861,-369.84894,-9.6813622)">
      <path
         style="opacity:1"
         fill="#eaf9fa"
         d="m 1193.5,138.5 c 28.67,0 57.33,0 86,0 0,48 0,96 0,144 -28.67,0 -57.33,0 -86,0 0,-48 0,-96 0,-144 z"
         id="path241" />
    </g>
    <g
       id="g242"
       style="clip-rule:evenodd;fill-rule:evenodd;image-rendering:optimizeQuality;shape-rendering:geometricPrecision;text-rendering:geometricPrecision"
       transform="matrix(0.33766861,0,0,0.33766861,-369.84894,-9.6813622)">
      <path
         style="opacity:1"
         fill="#f9faf9"
         d="m 1218.5,139.5 c 19.59,-0.248 39.09,0.419 58.5,2 0.65,23.622 0.48,46.622 -0.5,69 0.5,1 1,2 1.5,3 0.67,20.333 0.67,40.667 0,61 -0.5,0.5 -1,1 -1.5,1.5 1.08,2.19 0.42,3.856 -2,5 -24.65,0.437 -49.15,0.603 -73.5,0.5 -2.26,0.061 -4.26,-0.606 -6,-2 -0.41,-45.244 -0.58,-89.744 -0.5,-133.5 0.67,-1.667 1.33,-3.333 2,-5 7.51,-0.171 14.84,-0.671 22,-1.5 z"
         id="path242" />
    </g>
    <g
       id="g249"
       style="clip-rule:evenodd;fill-rule:evenodd;image-rendering:optimizeQuality;shape-rendering:geometricPrecision;text-rendering:geometricPrecision"
       transform="matrix(0.33766861,0,0,0.33766861,-369.84894,-9.6813622)">
      <path
         style="opacity:1"
         fill="#b4d8f2"
         d="m 1284.5,291.5 c 0.67,0 1.33,0 2,0 -0.11,0.617 -0.44,1.117 -1,1.5 -32.84,0.831 -65.5,0.664 -98,-0.5 32.5,0.332 64.84,-0.002 97,-1 z"
         id="path249" />
    </g>
  </g>
</svg>
