<?xml version="1.0" encoding="UTF-8" standalone="no"?>
<!-- Created with Inkscape (http://www.inkscape.org/) -->

<svg
   width="96mm"
   height="96mm"
   viewBox="0 0 96 96"
   version="1.1"
   id="svg1"
   inkscape:version="1.4.2 (ebf0e940, 2025-05-08)"
   sodipodi:docname="finish.svg"
   xmlns:inkscape="http://www.inkscape.org/namespaces/inkscape"
   xmlns:sodipodi="http://sodipodi.sourceforge.net/DTD/sodipodi-0.dtd"
   xmlns="http://www.w3.org/2000/svg"
   xmlns:svg="http://www.w3.org/2000/svg">
  <sodipodi:namedview
     id="namedview1"
     pagecolor="#ffffff"
     bordercolor="#000000"
     borderopacity="0.25"
     inkscape:showpageshadow="2"
     inkscape:pageopacity="0.0"
     inkscape:pagecheckerboard="0"
     inkscape:deskcolor="#d1d1d1"
     inkscape:document-units="mm"
     inkscape:zoom="0.80444024"
     inkscape:cx="397.17059"
     inkscape:cy="262.91574"
     inkscape:window-width="1920"
     inkscape:window-height="1052"
     inkscape:window-x="0"
     inkscape:window-y="28"
     inkscape:window-maximized="0"
     inkscape:current-layer="layer1" />
  <defs
     id="defs1" />
  <g
     inkscape:label="Layer 1"
     inkscape:groupmode="layer"
     id="layer1">
    <g
       id="g347"
       style="clip-rule:evenodd;fill-rule:evenodd;image-rendering:optimizeQuality;shape-rendering:geometricPrecision;text-rendering:geometricPrecision"
       transform="matrix(0.30376449,0,0,0.30376449,-223.72609,-118.7518)">
      <path
         style="opacity:1"
         fill="#c2e2f5"
         d="m 922.5,425.5 c -1.667,0 -3.333,0 -5,0 -18.748,-4.966 -37.748,-5.3 -57,-1 3.98,-1.971 8.313,-3.138 13,-3.5 11,-0.667 22,-0.667 33,0 5.535,1.214 10.868,2.714 16,4.5 z"
         id="path347" />
    </g>
    <g
       id="g352"
       style="clip-rule:evenodd;fill-rule:evenodd;image-rendering:optimizeQuality;shape-rendering:geometricPrecision;text-rendering:geometricPrecision"
       transform="matrix(0.30376449,0,0,0.30376449,-223.72609,-118.7518)">
      <path
         style="opacity:1"
         fill="#1d66a9"
         d="m 917.5,425.5 c 1.667,0 3.333,0 5,0 23.518,7.527 43.685,20.527 60.5,39 3.015,3.378 5.515,7.044 7.5,11 -0.285,1.788 0.048,3.455 1,5 11.32,16.579 17.66,35.079 19,55.5 -0.26,2.621 -0.93,5.121 -2,7.5 0.24,2.563 0.74,2.563 1.5,0 0.83,5.033 0.66,10.033 -0.5,15 -0.67,0.333 -1.33,0.667 -2,1 -0.95,-13.393 -2.45,-26.726 -4.5,-40 -4.6,-17.526 -12.1,-33.526 -22.5,-48 -3.4,-2.427 -6.733,-4.76 -10,-7 -14.297,-13.316 -30.63,-23.316 -49,-30 0.111,-0.617 0.444,-1.117 1,-1.5 -6.927,-1.719 -13.927,-3.052 -21,-4 -10.927,-0.325 -21.76,-0.491 -32.5,-0.5 -9.95,3.648 -19.783,7.481 -29.5,11.5 -2.677,0.814 -4.677,2.314 -6,4.5 -3.394,2.721 -7.061,5.054 -11,7 -2.921,-0.354 -5.254,0.646 -7,3 -1.062,-1.27 -2.062,-2.437 -3,-3.5 5.626,-3.807 11.792,-7.641 18.5,-11.5 1.416,-1.073 2.75,-1.073 4,0 0.617,-0.949 0.451,-1.782 -0.5,-2.5 4.299,-1.29 8.133,-3.456 11.5,-6.5 0.333,0.333 0.667,0.667 1,1 10.261,-4.87 21.095,-7.37 32.5,-7.5 12.725,-0.679 25.392,-0.179 38,1.5 z"
         id="path352" />
    </g>
    <g
       id="g353"
       style="clip-rule:evenodd;fill-rule:evenodd;image-rendering:optimizeQuality;shape-rendering:geometricPrecision;text-rendering:geometricPrecision"
       transform="matrix(0.30376449,0,0,0.30376449,-223.72609,-118.7518)">
      <path
         style="opacity:1"
         fill="#2c6598"
         d="m 921.5,434.5 c -2.667,-0.333 -5.333,-0.667 -8,-1 -0.763,-0.768 -1.763,-1.268 -3,-1.5 -7.802,-0.959 -15.635,-1.459 -23.5,-1.5 -6.746,-0.22 -13.246,0.446 -19.5,2 -4.938,0.731 -9.605,2.065 -14,4 -6.892,2.113 -13.559,4.78 -20,8 1.323,-2.186 3.323,-3.686 6,-4.5 9.717,-4.019 19.55,-7.852 29.5,-11.5 10.74,0.009 21.573,0.175 32.5,0.5 7.073,0.948 14.073,2.281 21,4 -0.556,0.383 -0.889,0.883 -1,1.5 z"
         id="path353" />
    </g>
    <g
       id="g354"
       style="clip-rule:evenodd;fill-rule:evenodd;image-rendering:optimizeQuality;shape-rendering:geometricPrecision;text-rendering:geometricPrecision"
       transform="matrix(0.30376449,0,0,0.30376449,-223.72609,-118.7518)">
      <path
         style="opacity:1"
         fill="#bbdbee"
         d="m 913.5,433.5 c -9.338,-0.534 -18.672,-1.2 -28,-2 -5.996,0.466 -11.996,0.8 -18,1 6.254,-1.554 12.754,-2.22 19.5,-2 7.865,0.041 15.698,0.541 23.5,1.5 1.237,0.232 2.237,0.732 3,1.5 z"
         id="path354" />
    </g>
    <g
       id="g355"
       style="clip-rule:evenodd;fill-rule:evenodd;image-rendering:optimizeQuality;shape-rendering:geometricPrecision;text-rendering:geometricPrecision"
       transform="matrix(0.30376449,0,0,0.30376449,-223.72609,-118.7518)">
      <path
         style="opacity:1"
         fill="#f8f9f9"
         d="m 913.5,433.5 c 2.667,0.333 5.333,0.667 8,1 18.37,6.684 34.703,16.684 49,30 4.123,3.782 7.457,8.115 10,13 1.277,5.601 3.11,10.935 5.5,16 3.85,4.392 7.183,9.059 10,14 0.599,5.553 1.933,10.886 4,16 0.47,4.837 0.97,9.67 1.5,14.5 -0.37,4.546 -0.37,9.046 0,13.5 -1.35,4.226 -1.684,8.393 -1,12.5 -1.363,10.172 -3.696,20.006 -7,29.5 -3.782,8.892 -8.616,17.225 -14.5,25 -6.729,6.897 -13.562,13.563 -20.5,20 -7.74,5.2 -15.74,9.867 -24,14 -4.045,2.097 -8.378,3.431 -13,4 -7.993,1.049 -15.993,2.215 -24,3.5 -7.993,0.5 -15.993,0.666 -24,0.5 -2.205,-0.698 -4.039,-2.032 -5.5,-4 -0.333,0.333 -0.667,0.667 -1,1 -4.072,-1.394 -8.238,-2.56 -12.5,-3.5 -0.833,-0.833 -1.667,-1.667 -2.5,-2.5 -1.543,0.785 -3.21,0.785 -5,0 -5.676,-3.794 -11.843,-6.461 -18.5,-8 -9.215,-5.457 -17.549,-12.123 -25,-20 -5.583,-7.5 -10.916,-15.167 -16,-23 -3.735,-7.26 -6.401,-14.927 -8,-23 -1.286,-9.499 -2.619,-18.999 -4,-28.5 0.721,-10.549 1.721,-21.049 3,-31.5 -0.09,-2.652 0.576,-4.985 2,-7 1.238,-1.714 1.905,-3.714 2,-6 1.175,0.219 2.175,-0.114 3,-1 1.83,-3.657 3.163,-7.49 4,-11.5 1.944,-2.042 3.777,-4.208 5.5,-6.5 0.483,-0.948 0.649,-1.948 0.5,-3 1,0 2,0 3,0 0.615,-3.508 1.615,-6.841 3,-10 2.783,-1.281 5.45,-2.781 8,-4.5 2.199,-3.7 5.199,-6.533 9,-8.5 1.915,-1.571 2.915,-3.571 3,-6 0.333,-0.667 0.667,-1.333 1,-2 3.939,-1.946 7.606,-4.279 11,-7 6.441,-3.22 13.108,-5.887 20,-8 5.04,-0.423 9.707,-1.756 14,-4 6.004,-0.2 12.004,-0.534 18,-1 9.328,0.8 18.662,1.466 28,2 z"
         id="path355" />
    </g>
    <g
       id="g356"
       style="clip-rule:evenodd;fill-rule:evenodd;image-rendering:optimizeQuality;shape-rendering:geometricPrecision;text-rendering:geometricPrecision"
       transform="matrix(0.30376449,0,0,0.30376449,-223.72609,-118.7518)">
      <path
         style="opacity:1"
         fill="#a5cbe5"
         d="m 867.5,432.5 c -4.293,2.244 -8.96,3.577 -14,4 4.395,-1.935 9.062,-3.269 14,-4 z"
         id="path356" />
    </g>
    <g
       id="g357"
       style="clip-rule:evenodd;fill-rule:evenodd;image-rendering:optimizeQuality;shape-rendering:geometricPrecision;text-rendering:geometricPrecision"
       transform="matrix(0.30376449,0,0,0.30376449,-223.72609,-118.7518)">
      <path
         style="opacity:1"
         fill="#d0e8f3"
         d="m 859.5,424.5 c -13.315,4.11 -25.982,9.776 -38,17 -0.671,-1.347 -0.671,-2.514 0,-3.5 7.631,-3.698 15.464,-6.864 23.5,-9.5 1.169,-0.509 2.002,-1.342 2.5,-2.5 4.01,-0.501 8.01,-1.001 12,-1.5 z"
         id="path357" />
    </g>
    <g
       id="g366"
       style="clip-rule:evenodd;fill-rule:evenodd;image-rendering:optimizeQuality;shape-rendering:geometricPrecision;text-rendering:geometricPrecision"
       transform="matrix(0.30376449,0,0,0.30376449,-223.72609,-118.7518)">
      <path
         style="opacity:1"
         fill="#25629b"
         d="m 917.5,425.5 c -12.608,-1.679 -25.275,-2.179 -38,-1.5 -11.405,0.13 -22.239,2.63 -32.5,7.5 -0.333,-0.333 -0.667,-0.667 -1,-1 -3.367,3.044 -7.201,5.21 -11.5,6.5 0.951,0.718 1.117,1.551 0.5,2.5 -1.25,-1.073 -2.584,-1.073 -4,0 -6.708,3.859 -12.874,7.693 -18.5,11.5 0.938,1.063 1.938,2.23 3,3.5 1.746,-2.354 4.079,-3.354 7,-3 -0.333,0.667 -0.667,1.333 -1,2 -6.584,4.247 -12.584,9.247 -18,15 0,-1.333 0,-2.667 0,-4 3.661,0.15 4.661,-1.35 3,-4.5 2.997,-0.775 5.33,-2.441 7,-5 -1.266,-0.309 -2.433,-0.809 -3.5,-1.5 -7.307,6.14 -14.141,12.807 -20.5,20 8.339,-13.006 19.006,-23.673 32,-32 12.018,-7.224 24.685,-12.89 38,-17 0.333,0 0.667,0 1,0 19.252,-4.3 38.252,-3.966 57,1 z"
         id="path366" />
    </g>
    <g
       id="g386"
       style="clip-rule:evenodd;fill-rule:evenodd;image-rendering:optimizeQuality;shape-rendering:geometricPrecision;text-rendering:geometricPrecision"
       transform="matrix(0.30376449,0,0,0.30376449,-223.72609,-118.7518)">
      <path
         style="opacity:1"
         fill="#d8edf6"
         d="m 821.5,441.5 c -12.994,8.327 -23.661,18.994 -32,32 -3,4 -6,8 -9,12 0.944,-4.624 2.444,-8.957 4.5,-13 6.316,-6.476 12.483,-13.309 18.5,-20.5 1.92,-1.122 3.92,-1.956 6,-2.5 -0.149,-1.052 0.017,-2.052 0.5,-3 3.02,-3.424 6.854,-5.091 11.5,-5 z"
         id="path386" />
    </g>
    <g
       id="g389"
       style="clip-rule:evenodd;fill-rule:evenodd;image-rendering:optimizeQuality;shape-rendering:geometricPrecision;text-rendering:geometricPrecision"
       transform="matrix(0.30376449,0,0,0.30376449,-223.72609,-118.7518)">
      <path
         style="opacity:1"
         fill="#1763ab"
         d="m 803.5,468.5 c 0,0.667 -0.333,1 -1,1 -2.403,-0.107 -4.236,0.893 -5.5,3 -1.711,2.456 -3.044,5.123 -4,8 -0.414,-0.457 -0.914,-0.791 -1.5,-1 -0.927,2.446 -2.594,3.279 -5,2.5 2.307,-0.354 2.641,-1.354 1,-3 0.82,-1.8 1.486,-3.634 2,-5.5 6.359,-7.193 13.193,-13.86 20.5,-20 1.067,0.691 2.234,1.191 3.5,1.5 -1.67,2.559 -4.003,4.225 -7,5 1.661,3.15 0.661,4.65 -3,4.5 0,1.333 0,2.667 0,4 z"
         id="path389" />
    </g>
    <g
       id="g390"
       style="clip-rule:evenodd;fill-rule:evenodd;image-rendering:optimizeQuality;shape-rendering:geometricPrecision;text-rendering:geometricPrecision"
       transform="matrix(0.30376449,0,0,0.30376449,-223.72609,-118.7518)">
      <path
         style="opacity:1"
         fill="#d5ebf4"
         d="m 821.5,453.5 c -0.085,2.429 -1.085,4.429 -3,6 -3.801,1.967 -6.801,4.8 -9,8.5 -2.55,1.719 -5.217,3.219 -8,4.5 0.057,-1.109 0.39,-2.109 1,-3 0.667,0 1,-0.333 1,-1 5.416,-5.753 11.416,-10.753 18,-15 z"
         id="path390" />
    </g>
    <g
       id="g398"
       style="clip-rule:evenodd;fill-rule:evenodd;image-rendering:optimizeQuality;shape-rendering:geometricPrecision;text-rendering:geometricPrecision"
       transform="matrix(0.30376449,0,0,0.30376449,-223.72609,-118.7518)">
      <path
         style="opacity:1"
         fill="#c9e5f2"
         d="m 853.5,476.5 c -8.323,1.421 -16.323,4.088 -24,8 1.684,-1.5 3.351,-3.167 5,-5 6.244,-1.639 12.577,-2.639 19,-3 z"
         id="path398" />
    </g>
    <g
       id="g400"
       style="clip-rule:evenodd;fill-rule:evenodd;image-rendering:optimizeQuality;shape-rendering:geometricPrecision;text-rendering:geometricPrecision"
       transform="matrix(0.30376449,0,0,0.30376449,-223.72609,-118.7518)">
      <path
         style="opacity:1"
         fill="#21639d"
         d="m 802.5,469.5 c -0.61,0.891 -0.943,1.891 -1,3 -6.113,7.115 -11.446,14.781 -16,23 0.449,-3.533 0.782,-6.866 1,-10 -0.5,-0.333 -1,-0.667 -1.5,-1 -2.176,2.374 -4.342,4.707 -6.5,7 0.471,-2.079 1.137,-4.079 2,-6 3,-4 6,-8 9,-12 -0.514,1.866 -1.18,3.7 -2,5.5 1.641,1.646 1.307,2.646 -1,3 2.406,0.779 4.073,-0.054 5,-2.5 0.586,0.209 1.086,0.543 1.5,1 0.956,-2.877 2.289,-5.544 4,-8 1.264,-2.107 3.097,-3.107 5.5,-3 z"
         id="path400" />
    </g>
    <g
       id="g401"
       style="clip-rule:evenodd;fill-rule:evenodd;image-rendering:optimizeQuality;shape-rendering:geometricPrecision;text-rendering:geometricPrecision"
       transform="matrix(0.30376449,0,0,0.30376449,-223.72609,-118.7518)">
      <path
         style="opacity:1"
         fill="#27639b"
         d="m 952.5,471.5 c 0.996,-0.086 1.829,0.248 2.5,1 3.172,20.617 7.006,40.95 11.5,61 1.037,8.518 2.704,16.852 5,25 0,2.667 0,5.333 0,8 -2.933,-9.394 -5.433,-19.06 -7.5,-29 0.139,3.916 -0.027,7.749 -0.5,11.5 -6.95,3.145 -13.95,5.979 -21,8.5 0.181,5.061 0.848,10.061 2,15 -0.011,1.545 -0.344,2.878 -1,4 -0.676,-6.04 -1.676,-12.04 -3,-18 0.442,-1.239 1.109,-2.239 2,-3 6.496,-1.582 12.496,-4.248 18,-8 1.195,-0.366 1.861,-1.199 2,-2.5 -1.488,-6.429 -2.488,-12.929 -3,-19.5 -2.47,0.154 -4.47,1.154 -6,3 -1.653,0.16 -2.986,0.826 -4,2 -4.185,1.789 -8.519,2.622 -13,2.5 -1.392,-6.753 -3.058,-13.419 -5,-20 -5.657,-0.499 -11.324,-0.666 -17,-0.5 -2,-0.667 -4,-1.333 -6,-2 6.667,0 13.333,0 20,0 0.254,-4.319 -0.746,-8.319 -3,-12 0.199,-2.935 0.199,-5.768 0,-8.5 2.297,-1.16 1.964,-2.16 -1,-3 -7.333,-0.667 -14.667,-0.667 -22,0 1.051,1.385 2.384,2.385 4,3 -0.165,1.117 -0.498,2.284 -1,3.5 0.646,4.725 1.979,9.225 4,13.5 -0.805,1.113 -1.472,2.279 -2,3.5 -0.333,0 -0.667,0 -1,0 -0.065,-2.928 -0.732,-5.595 -2,-8 0.189,-4.661 -0.478,-9.161 -2,-13.5 -8.548,-2.804 -17.215,-4.97 -26,-6.5 -1.184,-1.188 -1.184,-2.355 0,-3.5 -7,-0.667 -14,-0.667 -21,0 -1.5,1.115 -3.167,1.948 -5,2.5 -0.886,0.825 -1.219,1.825 -1,3 -1.238,-0.912 -2.572,-1.079 -4,-0.5 -4.704,1.685 -9.038,3.852 -13,6.5 -0.333,0 -0.667,0 -1,0 -3.684,0.822 -6.018,2.989 -7,6.5 1.023,6.204 3.023,12.037 6,17.5 2.455,-1.797 5.122,-3.13 8,-4 -2.211,3.364 -5.378,5.364 -9.5,6 -0.75,-0.626 -1.584,-1.126 -2.5,-1.5 0.522,-0.561 0.855,-1.228 1,-2 -2.049,-5.28 -3.716,-10.613 -5,-16 2.118,-3.917 1.118,-6.417 -3,-7.5 3.92,-0.627 7.253,-2.293 10,-5 7.677,-3.912 15.677,-6.579 24,-8 11.491,-1.621 22.825,-0.954 34,2 9.157,3.969 18.824,6.303 29,7 10.333,0.421 19.666,-2.246 28,-8 3.033,-1.516 5.7,-3.516 8,-6 z"
         id="path401" />
    </g>
    <g
       id="g402"
       style="clip-rule:evenodd;fill-rule:evenodd;image-rendering:optimizeQuality;shape-rendering:geometricPrecision;text-rendering:geometricPrecision"
       transform="matrix(0.30376449,0,0,0.30376449,-223.72609,-118.7518)">
      <path
         style="opacity:1"
         fill="#dbeff5"
         d="m 944.5,477.5 c -8.334,5.754 -17.667,8.421 -28,8 -10.176,-0.697 -19.843,-3.031 -29,-7 4.014,-0.166 8.014,10e-4 12,0.5 1.99,1.751 4.323,2.751 7,3 8,0.667 16,0.667 24,0 4.405,-2.372 9.072,-3.872 14,-4.5 z"
         id="path402" />
    </g>
    <g
       id="g403"
       style="clip-rule:evenodd;fill-rule:evenodd;image-rendering:optimizeQuality;shape-rendering:geometricPrecision;text-rendering:geometricPrecision"
       transform="matrix(0.30376449,0,0,0.30376449,-223.72609,-118.7518)">
      <path
         style="opacity:1"
         fill="#1164af"
         d="m 876.5,482.5 c -1.309,1.124 -1.975,2.624 -2,4.5 0.457,3.085 1.123,6.085 2,9 -2.87,2.771 -6.37,4.271 -10.5,4.5 -2.405,-0.464 -4.905,-0.631 -7.5,-0.5 -1.216,-1.594 -2.549,-3.094 -4,-4.5 -1.4,-3.98 -3.066,-7.647 -5,-11 -0.219,-1.175 0.114,-2.175 1,-3 1.833,-0.552 3.5,-1.385 5,-2.5 7,-0.667 14,-0.667 21,0 -1.184,1.145 -1.184,2.312 0,3.5 z"
         id="path403" />
    </g>
    <g
       id="g405"
       style="clip-rule:evenodd;fill-rule:evenodd;image-rendering:optimizeQuality;shape-rendering:geometricPrecision;text-rendering:geometricPrecision"
       transform="matrix(0.30376449,0,0,0.30376449,-223.72609,-118.7518)">
      <path
         style="opacity:1"
         fill="#d0eaf5"
         d="m 801.5,472.5 c -1.385,3.159 -2.385,6.492 -3,10 -1,0 -2,0 -3,0 0.149,1.052 -0.017,2.052 -0.5,3 -1.723,2.292 -3.556,4.458 -5.5,6.5 -0.837,4.01 -2.17,7.843 -4,11.5 -0.825,0.886 -1.825,1.219 -3,1 -0.095,2.286 -0.762,4.286 -2,6 1.144,-5.155 2.81,-10.155 5,-15 4.554,-8.219 9.887,-15.885 16,-23 z"
         id="path405" />
    </g>
    <g
       id="g408"
       style="clip-rule:evenodd;fill-rule:evenodd;image-rendering:optimizeQuality;shape-rendering:geometricPrecision;text-rendering:geometricPrecision"
       transform="matrix(0.30376449,0,0,0.30376449,-223.72609,-118.7518)">
      <path
         style="opacity:1"
         fill="#b2d8ef"
         d="m 849.5,484.5 c 0,1.333 0,2.667 0,4 -0.904,-0.709 -1.237,-1.709 -1,-3 -5.323,1.659 -10.656,3.326 -16,5 3.962,-2.648 8.296,-4.815 13,-6.5 1.428,-0.579 2.762,-0.412 4,0.5 z"
         id="path408" />
    </g>
    <g
       id="g409"
       style="clip-rule:evenodd;fill-rule:evenodd;image-rendering:optimizeQuality;shape-rendering:geometricPrecision;text-rendering:geometricPrecision"
       transform="matrix(0.30376449,0,0,0.30376449,-223.72609,-118.7518)">
      <path
         style="opacity:1"
         fill="#eef6f9"
         d="m 876.5,482.5 c 8.785,1.53 17.452,3.696 26,6.5 1.522,4.339 2.189,8.839 2,13.5 0,2 0,4 0,6 -4.286,-1.207 -8.62,-2.207 -13,-3 -3.749,-0.251 -7.415,-0.917 -11,-2 0.284,-1.915 -0.049,-3.581 -1,-5 -0.582,-5.413 -1.582,-10.746 -3,-16 z"
         id="path409" />
    </g>
    <g
       id="g410"
       style="clip-rule:evenodd;fill-rule:evenodd;image-rendering:optimizeQuality;shape-rendering:geometricPrecision;text-rendering:geometricPrecision"
       transform="matrix(0.30376449,0,0,0.30376449,-223.72609,-118.7518)">
      <path
         style="opacity:1"
         fill="#f3f8f9"
         d="m 946.5,483.5 c 1,0 2,0 3,0 1.391,6.244 2.058,12.578 2,19 -5.669,2.751 -11.502,5.085 -17.5,7 -0.902,-0.243 -1.735,-0.577 -2.5,-1 -1.184,-5.285 -2.184,-10.619 -3,-16 0.333,-0.667 0.667,-1.333 1,-2 5.967,-1.762 11.633,-4.096 17,-7 z"
         id="path410" />
    </g>
    <g
       id="g411"
       style="clip-rule:evenodd;fill-rule:evenodd;image-rendering:optimizeQuality;shape-rendering:geometricPrecision;text-rendering:geometricPrecision"
       transform="matrix(0.30376449,0,0,0.30376449,-223.72609,-118.7518)">
      <path
         style="opacity:1"
         fill="#1365af"
         d="m 908.5,510.5 c -0.333,0 -0.667,0 -1,0 0.528,-1.221 1.195,-2.387 2,-3.5 -2.021,-4.275 -3.354,-8.775 -4,-13.5 0.502,-1.216 0.835,-2.383 1,-3.5 -1.616,-0.615 -2.949,-1.615 -4,-3 7.333,-0.667 14.667,-0.667 22,0 2.964,0.84 3.297,1.84 1,3 0.199,2.732 0.199,5.565 0,8.5 2.254,3.681 3.254,7.681 3,12 -6.667,0 -13.333,0 -20,0 z"
         id="path411" />
    </g>
    <g
       id="g413"
       style="clip-rule:evenodd;fill-rule:evenodd;image-rendering:optimizeQuality;shape-rendering:geometricPrecision;text-rendering:geometricPrecision"
       transform="matrix(0.30376449,0,0,0.30376449,-223.72609,-118.7518)">
      <path
         style="opacity:1"
         fill="#f6f9fa"
         d="m 849.5,488.5 c 0,0.333 0,0.667 0,1 -0.352,4.506 0.315,8.839 2,13 -1.622,1.939 -3.456,2.272 -5.5,1 -4.185,3.428 -8.852,6.095 -14,8 -1.735,-1.182 -2.735,-2.849 -3,-5 -0.998,-3.973 -1.331,-7.973 -1,-12 1.72,-0.884 2.886,-2.217 3.5,-4 0.333,0 0.667,0 1,0 5.344,-1.674 10.677,-3.341 16,-5 -0.237,1.291 0.096,2.291 1,3 z"
         id="path413" />
    </g>
    <g
       id="g415"
       style="clip-rule:evenodd;fill-rule:evenodd;image-rendering:optimizeQuality;shape-rendering:geometricPrecision;text-rendering:geometricPrecision"
       transform="matrix(0.30376449,0,0,0.30376449,-223.72609,-118.7518)">
      <path
         style="opacity:1"
         fill="#dff2f7"
         d="m 952.5,471.5 c 1.653,-1.299 3.153,-0.966 4.5,1 0.747,5.747 2.247,11.247 4.5,16.5 -0.333,0.333 -0.667,0.667 -1,1 3.09,3.918 4.09,8.251 3,13 2.22,10.046 3.22,20.212 3,30.5 -4.494,-20.05 -8.328,-40.383 -11.5,-61 -0.671,-0.752 -1.504,-1.086 -2.5,-1 z"
         id="path415" />
    </g>
    <g
       id="g416"
       style="clip-rule:evenodd;fill-rule:evenodd;image-rendering:optimizeQuality;shape-rendering:geometricPrecision;text-rendering:geometricPrecision"
       transform="matrix(0.30376449,0,0,0.30376449,-223.72609,-118.7518)">
      <path
         style="opacity:1"
         fill="#dbeff6"
         d="m 980.5,477.5 c 10.63,13.182 17.63,28.182 21,45 0.83,13.315 1.17,26.649 1,40 -1.19,10.908 -4.193,21.241 -9,31 3.304,-9.494 5.637,-19.328 7,-29.5 -0.684,-4.107 -0.35,-8.274 1,-12.5 -0.37,-4.454 -0.37,-8.954 0,-13.5 -0.53,-4.83 -1.03,-9.663 -1.5,-14.5 -2.067,-5.114 -3.401,-10.447 -4,-16 -2.817,-4.941 -6.15,-9.608 -10,-14 -2.39,-5.065 -4.223,-10.399 -5.5,-16 z"
         id="path416" />
    </g>
    <g
       id="g418"
       style="clip-rule:evenodd;fill-rule:evenodd;image-rendering:optimizeQuality;shape-rendering:geometricPrecision;text-rendering:geometricPrecision"
       transform="matrix(0.30376449,0,0,0.30376449,-223.72609,-118.7518)">
      <path
         style="opacity:1"
         fill="#23649d"
         d="m 876.5,482.5 c 1.418,5.254 2.418,10.587 3,16 0,1.333 0,2.667 0,4 -6.19,-0.323 -12.19,0.01 -18,1 -2.361,0.174 -4.694,0.507 -7,1 1.076,6.381 2.41,12.714 4,19 -0.333,1 -0.667,2 -1,3 -3.355,1.346 -6.688,2.68 -10,4 0.041,-2.245 0.875,-2.912 2.5,-2 1.763,-1.444 3.763,-2.444 6,-3 0.442,-5.731 -1.058,-10.898 -4.5,-15.5 0.457,-0.414 0.791,-0.914 1,-1.5 -4.486,-1.507 -8.32,-0.507 -11.5,3 -0.671,-0.752 -1.504,-1.086 -2.5,-1 4.457,-3.157 9.457,-5.157 15,-6 -0.576,-5.309 -1.909,-10.309 -4,-15 0,-0.333 0,-0.667 0,-1 0,-1.333 0,-2.667 0,-4 1.934,3.353 3.6,7.02 5,11 1.451,1.406 2.784,2.906 4,4.5 2.595,-0.131 5.095,0.036 7.5,0.5 4.13,-0.229 7.63,-1.729 10.5,-4.5 -0.877,-2.915 -1.543,-5.915 -2,-9 0.025,-1.876 0.691,-3.376 2,-4.5 z"
         id="path418" />
    </g>
    <g
       id="g424"
       style="clip-rule:evenodd;fill-rule:evenodd;image-rendering:optimizeQuality;shape-rendering:geometricPrecision;text-rendering:geometricPrecision"
       transform="matrix(0.30376449,0,0,0.30376449,-223.72609,-118.7518)">
      <path
         style="opacity:1"
         fill="#6b99bc"
         d="m 879.5,498.5 c 0.951,1.419 1.284,3.085 1,5 -6.333,0 -12.667,0 -19,0 5.81,-0.99 11.81,-1.323 18,-1 0,-1.333 0,-2.667 0,-4 z"
         id="path424" />
    </g>
    <g
       id="g425"
       style="clip-rule:evenodd;fill-rule:evenodd;image-rendering:optimizeQuality;shape-rendering:geometricPrecision;text-rendering:geometricPrecision"
       transform="matrix(0.30376449,0,0,0.30376449,-223.72609,-118.7518)">
      <path
         style="opacity:1"
         fill="#1265b0"
         d="m 955.5,503.5 c 0.978,0.311 1.645,0.978 2,2 1.333,4.333 1.333,8.667 0,13 0.346,1.196 0.846,1.196 1.5,0 0.034,1.68 0.201,3.18 0.5,4.5 -1.474,-0.973 -2.974,-1.473 -4.5,-1.5 -3.601,5.854 -8.767,8.688 -15.5,8.5 0.333,-0.333 0.667,-0.667 1,-1 -0.948,-0.483 -1.948,-0.649 -3,-0.5 -0.885,-3.556 -0.885,-6.723 0,-9.5 -0.667,-1.333 -1.333,-2.667 -2,-4 5.763,-3.548 11.763,-6.548 18,-9 0.881,-0.708 1.547,-1.542 2,-2.5 z"
         id="path425" />
    </g>
    <g
       id="g427"
       style="clip-rule:evenodd;fill-rule:evenodd;image-rendering:optimizeQuality;shape-rendering:geometricPrecision;text-rendering:geometricPrecision"
       transform="matrix(0.30376449,0,0,0.30376449,-223.72609,-118.7518)">
      <path
         style="opacity:1"
         fill="#98c5e3"
         d="m 904.5,502.5 c 1.268,2.405 1.935,5.072 2,8 -5.285,-1.095 -10.285,-2.762 -15,-5 4.38,0.793 8.714,1.793 13,3 0,-2 0,-4 0,-6 z"
         id="path427" />
    </g>
    <g
       id="g428"
       style="clip-rule:evenodd;fill-rule:evenodd;image-rendering:optimizeQuality;shape-rendering:geometricPrecision;text-rendering:geometricPrecision"
       transform="matrix(0.30376449,0,0,0.30376449,-223.72609,-118.7518)">
      <path
         style="opacity:1"
         fill="#c7e7f4"
         d="m 931.5,508.5 c 0.765,0.423 1.598,0.757 2.5,1 5.998,-1.915 11.831,-4.249 17.5,-7 0.058,-6.422 -0.609,-12.756 -2,-19 -1,0 -2,0 -3,0 0.787,-1.604 2.12,-2.271 4,-2 0.513,3.729 1.346,7.396 2.5,11 0.667,3.333 0.667,6.667 0,10 -6.479,4.659 -13.646,7.659 -21.5,9 0,-1 0,-2 0,-3 z"
         id="path428" />
    </g>
    <g
       id="g429"
       style="clip-rule:evenodd;fill-rule:evenodd;image-rendering:optimizeQuality;shape-rendering:geometricPrecision;text-rendering:geometricPrecision"
       transform="matrix(0.30376449,0,0,0.30376449,-223.72609,-118.7518)">
      <path
         style="opacity:1"
         fill="#ccebf6"
         d="m 849.5,489.5 c 2.091,4.691 3.424,9.691 4,15 -5.543,0.843 -10.543,2.843 -15,6 -2.878,0.87 -5.545,2.203 -8,4 -2.977,-5.463 -4.977,-11.296 -6,-17.5 0.982,-3.511 3.316,-5.678 7,-6.5 -0.614,1.783 -1.78,3.116 -3.5,4 -0.331,4.027 0.002,8.027 1,12 0.265,2.151 1.265,3.818 3,5 5.148,-1.905 9.815,-4.572 14,-8 2.044,1.272 3.878,0.939 5.5,-1 -1.685,-4.161 -2.352,-8.494 -2,-13 z"
         id="path429" />
    </g>
    <g
       id="g430"
       style="clip-rule:evenodd;fill-rule:evenodd;image-rendering:optimizeQuality;shape-rendering:geometricPrecision;text-rendering:geometricPrecision"
       transform="matrix(0.30376449,0,0,0.30376449,-223.72609,-118.7518)">
      <path
         style="opacity:1"
         fill="#97c5e2"
         d="m 906.5,510.5 c 0.333,0 0.667,0 1,0 0.333,0 0.667,0 1,0 2,0.667 4,1.333 6,2 -2,0 -4,0 -6,0 0.239,4.342 0.573,8.676 1,13 -1.761,-4.731 -2.761,-9.731 -3,-15 z"
         id="path430" />
    </g>
    <g
       id="g431"
       style="clip-rule:evenodd;fill-rule:evenodd;image-rendering:optimizeQuality;shape-rendering:geometricPrecision;text-rendering:geometricPrecision"
       transform="matrix(0.30376449,0,0,0.30376449,-223.72609,-118.7518)">
      <path
         style="opacity:1"
         fill="#c5e5f3"
         d="m 914.5,512.5 c 5.676,-0.166 11.343,10e-4 17,0.5 1.942,6.581 3.608,13.247 5,20 4.481,0.122 8.815,-0.711 13,-2.5 -2.903,2.148 -6.236,3.648 -10,4.5 -0.923,2.041 -1.256,4.208 -1,6.5 -0.769,-2.167 -1.769,-4.334 -3,-6.5 -8.014,-0.39 -16.014,-0.89 -24,-1.5 1.325,6.951 2.325,13.951 3,21 -3.662,-0.223 -6.995,-1.223 -10,-3 2.333,0 4.667,0 7,0 0.024,-6.357 -0.31,-12.69 -1,-19 -0.493,-2.306 -0.826,-4.639 -1,-7 -0.427,-4.324 -0.761,-8.658 -1,-13 2,0 4,0 6,0 z"
         id="path431" />
    </g>
    <g
       id="g432"
       style="clip-rule:evenodd;fill-rule:evenodd;image-rendering:optimizeQuality;shape-rendering:geometricPrecision;text-rendering:geometricPrecision"
       transform="matrix(0.30376449,0,0,0.30376449,-223.72609,-118.7518)">
      <path
         style="opacity:1"
         fill="#f7f9f9"
         d="m 909.5,514.5 c 6.487,-1.154 13.154,-1.321 20,-0.5 3.107,5.711 3.773,11.711 2,18 -6.658,0.5 -13.325,0.666 -20,0.5 -0.482,-6.16 -1.149,-12.16 -2,-18 z"
         id="path432" />
    </g>
    <g
       id="g437"
       style="clip-rule:evenodd;fill-rule:evenodd;image-rendering:optimizeQuality;shape-rendering:geometricPrecision;text-rendering:geometricPrecision"
       transform="matrix(0.30376449,0,0,0.30376449,-223.72609,-118.7518)">
      <path
         style="opacity:1"
         fill="#d5ecf5"
         d="m 829.5,484.5 c -2.747,2.707 -6.08,4.373 -10,5 -5.3,-4.648 -8.633,-3.481 -10,3.5 1.332,8.5 3.665,16.667 7,24.5 5.096,19.279 10.763,38.279 17,57 0,0.333 0,0.667 0,1 2.757,11.512 6.091,22.845 10,34 2.314,9.108 5.314,17.941 9,26.5 1.973,0.495 3.973,0.662 6,0.5 -2.524,1.3 -5.191,1.3 -8,0 -0.847,-1.345 -2.013,-2.345 -3.5,-3 -3.301,-8.743 -5.467,-18.077 -6.5,-28 -4.664,-10.335 -8.497,-21.002 -11.5,-32 -1.21,-10.622 -4.21,-20.622 -9,-30 -2.265,-8.221 -4.265,-16.554 -6,-25 -0.917,-4.501 -2.917,-8.501 -6,-12 -0.667,-6.333 -0.667,-12.667 0,-19 4.374,-3.774 9.041,-4.44 14,-2 2.498,-0.417 4.998,-0.751 7.5,-1 z"
         id="path437" />
    </g>
    <g
       id="g438"
       style="clip-rule:evenodd;fill-rule:evenodd;image-rendering:optimizeQuality;shape-rendering:geometricPrecision;text-rendering:geometricPrecision"
       transform="matrix(0.30376449,0,0,0.30376449,-223.72609,-118.7518)">
      <path
         style="opacity:1"
         fill="#8ec0e1"
         d="m 885.5,525.5 c 1.903,0.296 3.57,0.963 5,2 -1,0 -2,0 -3,0 0.463,2.982 0.796,5.982 1,9 -1.445,-3.437 -2.445,-7.103 -3,-11 z"
         id="path438" />
    </g>
    <g
       id="g439"
       style="clip-rule:evenodd;fill-rule:evenodd;image-rendering:optimizeQuality;shape-rendering:geometricPrecision;text-rendering:geometricPrecision"
       transform="matrix(0.30376449,0,0,0.30376449,-223.72609,-118.7518)">
      <path
         style="opacity:1"
         fill="#b4daed"
         d="m 960.5,547.5 c -0.377,-6.054 -1.21,-12.054 -2.5,-18 -1.356,-0.88 -2.856,-1.214 -4.5,-1 1.53,-1.846 3.53,-2.846 6,-3 0.512,6.571 1.512,13.071 3,19.5 -0.139,1.301 -0.805,2.134 -2,2.5 z"
         id="path439" />
    </g>
    <g
       id="g440"
       style="clip-rule:evenodd;fill-rule:evenodd;image-rendering:optimizeQuality;shape-rendering:geometricPrecision;text-rendering:geometricPrecision"
       transform="matrix(0.30376449,0,0,0.30376449,-223.72609,-118.7518)">
      <path
         style="opacity:1"
         fill="#1b66aa"
         d="m 785.5,495.5 c -2.19,4.845 -3.856,9.845 -5,15 -1.424,2.015 -2.09,4.348 -2,7 -2.723,6.958 -4.056,14.291 -4,22 -0.722,0.418 -1.222,1.084 -1.5,2 -0.34,9.077 -0.507,18.077 -0.5,27 1.491,2.307 2.491,4.807 3,7.5 -1.122,1.613 -0.622,2.78 1.5,3.5 0.5,1.5 1,3 1.5,4.5 -0.328,2.025 -0.494,4.191 -0.5,6.5 -1.188,-1.063 -1.688,-2.397 -1.5,-4 -1.175,0.219 -2.175,-0.114 -3,-1 -0.472,-3.773 -1.805,-7.107 -4,-10 0,-0.333 0,-0.667 0,-1 -3.016,-20.41 -2.516,-40.744 1.5,-61 3.065,-7.19 5.565,-14.523 7.5,-22 2.158,-2.293 4.324,-4.626 6.5,-7 0.5,0.333 1,0.667 1.5,1 -0.218,3.134 -0.551,6.467 -1,10 z"
         id="path440" />
    </g>
    <g
       id="g441"
       style="clip-rule:evenodd;fill-rule:evenodd;image-rendering:optimizeQuality;shape-rendering:geometricPrecision;text-rendering:geometricPrecision"
       transform="matrix(0.30376449,0,0,0.30376449,-223.72609,-118.7518)">
      <path
         style="opacity:1"
         fill="#f4f8f9"
         d="m 859.5,549.5 c -5.484,1.832 -10.484,4.498 -15,8 -0.996,0.086 -1.829,-0.248 -2.5,-1 -1.31,-3.57 -2.143,-7.237 -2.5,-11 -0.313,-2.747 0.02,-5.414 1,-8 4.844,-2.588 9.844,-4.921 15,-7 0.942,0.108 1.775,0.441 2.5,1 3.959,5.716 4.459,11.716 1.5,18 z"
         id="path441" />
    </g>
    <g
       id="g442"
       style="clip-rule:evenodd;fill-rule:evenodd;image-rendering:optimizeQuality;shape-rendering:geometricPrecision;text-rendering:geometricPrecision"
       transform="matrix(0.30376449,0,0,0.30376449,-223.72609,-118.7518)">
      <path
         style="opacity:1"
         fill="#f1f7f9"
         d="m 890.5,527.5 c 2.306,0.493 4.639,0.826 7,1 4.117,1.704 8.451,3.037 13,4 0.69,6.31 1.024,12.643 1,19 -2.333,0 -4.667,0 -7,0 -4.736,-1.135 -9.403,-2.468 -14,-4 0.172,-0.992 -0.162,-1.658 -1,-2 -0.204,-3.018 -0.537,-6.018 -1,-9 -0.204,-3.018 -0.537,-6.018 -1,-9 1,0 2,0 3,0 z"
         id="path442" />
    </g>
    <g
       id="g443"
       style="clip-rule:evenodd;fill-rule:evenodd;image-rendering:optimizeQuality;shape-rendering:geometricPrecision;text-rendering:geometricPrecision"
       transform="matrix(0.30376449,0,0,0.30376449,-223.72609,-118.7518)">
      <path
         style="opacity:1"
         fill="#f3f8f9"
         d="m 953.5,528.5 c 1.644,-0.214 3.144,0.12 4.5,1 1.29,5.946 2.123,11.946 2.5,18 -5.504,3.752 -11.504,6.418 -18,8 -1,0 -2,0 -3,0 -0.333,-4.667 -0.667,-9.333 -1,-14 -0.256,-2.292 0.077,-4.459 1,-6.5 3.764,-0.852 7.097,-2.352 10,-4.5 1.014,-1.174 2.347,-1.84 4,-2 z"
         id="path443" />
    </g>
    <g
       id="g444"
       style="clip-rule:evenodd;fill-rule:evenodd;image-rendering:optimizeQuality;shape-rendering:geometricPrecision;text-rendering:geometricPrecision"
       transform="matrix(0.30376449,0,0,0.30376449,-223.72609,-118.7518)">
      <path
         style="opacity:1"
         fill="#266093"
         d="m 880.5,503.5 c 3.585,1.083 7.251,1.749 11,2 4.715,2.238 9.715,3.905 15,5 0.239,5.269 1.239,10.269 3,15 0.174,2.361 0.507,4.694 1,7 -4.549,-0.963 -8.883,-2.296 -13,-4 3.381,-0.04 6.714,0.293 10,1 -0.679,-6.052 -1.679,-12.052 -3,-18 -6.916,-2.205 -13.916,-3.872 -21,-5 0.103,5.181 1.103,10.181 3,15 -0.746,1.236 -1.079,2.57 -1,4 0.555,3.897 1.555,7.563 3,11 0.463,2.982 0.796,5.982 1,9 -8.18,0.791 -16.514,1.458 -25,2 0.237,-1.291 -0.096,-2.291 -1,-3 -0.786,-6.049 -1.786,-12.049 -3,-18 7.908,-1.594 15.908,-2.261 24,-2 -0.821,-7.106 -2.155,-14.106 -4,-21 z"
         id="path444" />
    </g>
    <g
       id="g445"
       style="clip-rule:evenodd;fill-rule:evenodd;image-rendering:optimizeQuality;shape-rendering:geometricPrecision;text-rendering:geometricPrecision"
       transform="matrix(0.30376449,0,0,0.30376449,-223.72609,-118.7518)">
      <path
         style="opacity:1"
         fill="#1665ad"
         d="m 897.5,528.5 c -2.361,-0.174 -4.694,-0.507 -7,-1 -1.43,-1.037 -3.097,-1.704 -5,-2 -0.079,-1.43 0.254,-2.764 1,-4 -1.897,-4.819 -2.897,-9.819 -3,-15 7.084,1.128 14.084,2.795 21,5 1.321,5.948 2.321,11.948 3,18 -3.286,-0.707 -6.619,-1.04 -10,-1 z"
         id="path445" />
    </g>
    <g
       id="g446"
       style="clip-rule:evenodd;fill-rule:evenodd;image-rendering:optimizeQuality;shape-rendering:geometricPrecision;text-rendering:geometricPrecision"
       transform="matrix(0.30376449,0,0,0.30376449,-223.72609,-118.7518)">
      <path
         style="opacity:1"
         fill="#cce8f4"
         d="m 861.5,503.5 c 6.333,0 12.667,0 19,0 1.845,6.894 3.179,13.894 4,21 -8.092,-0.261 -16.092,0.406 -24,2 1.214,5.951 2.214,11.951 3,18 0,1.333 0,2.667 0,4 -1.333,0.333 -2.667,0.667 -4,1 2.959,-6.284 2.459,-12.284 -1.5,-18 -0.725,-0.559 -1.558,-0.892 -2.5,-1 -5.156,2.079 -10.156,4.412 -15,7 -0.98,2.586 -1.313,5.253 -1,8 -2.184,-2.69 -2.851,-5.69 -2,-9 3.361,-2.011 6.694,-4.011 10,-6 3.312,-1.32 6.645,-2.654 10,-4 0.333,-1 0.667,-2 1,-3 -1.59,-6.286 -2.924,-12.619 -4,-19 2.306,-0.493 4.639,-0.826 7,-1 z"
         id="path446" />
    </g>
    <g
       id="g447"
       style="clip-rule:evenodd;fill-rule:evenodd;image-rendering:optimizeQuality;shape-rendering:geometricPrecision;text-rendering:geometricPrecision"
       transform="matrix(0.30376449,0,0,0.30376449,-223.72609,-118.7518)">
      <path
         style="opacity:1"
         fill="#f7faf9"
         d="m 859.5,505.5 c 6.151,0.11 12.151,0.443 18,1 0.667,0.667 1.333,1.333 2,2 1.13,4.982 2.13,9.982 3,15 -7.354,-0.021 -14.687,0.313 -22,1 -0.389,-5.614 -1.389,-11.114 -3,-16.5 0.556,-1.011 1.222,-1.844 2,-2.5 z"
         id="path447" />
    </g>
    <g
       id="g450"
       style="clip-rule:evenodd;fill-rule:evenodd;image-rendering:optimizeQuality;shape-rendering:geometricPrecision;text-rendering:geometricPrecision"
       transform="matrix(0.30376449,0,0,0.30376449,-223.72609,-118.7518)">
      <path
         style="opacity:1"
         fill="#1465b0"
         d="m 819.5,489.5 c 4.118,1.083 5.118,3.583 3,7.5 1.284,5.387 2.951,10.72 5,16 -0.145,0.772 -0.478,1.439 -1,2 0.916,0.374 1.75,0.874 2.5,1.5 4.122,-0.636 7.289,-2.636 9.5,-6 0.996,-0.086 1.829,0.248 2.5,1 3.18,-3.507 7.014,-4.507 11.5,-3 -0.209,0.586 -0.543,1.086 -1,1.5 3.442,4.602 4.942,9.769 4.5,15.5 -2.237,0.556 -4.237,1.556 -6,3 -1.625,-0.912 -2.459,-0.245 -2.5,2 -3.306,1.989 -6.639,3.989 -10,6 -0.851,3.31 -0.184,6.31 2,9 0.357,3.763 1.19,7.43 2.5,11 0.671,0.752 1.504,1.086 2.5,1 5.497,-1.889 10.997,-3.889 16.5,-6 0.772,0.145 1.439,0.478 2,1 0.311,2.056 0.811,4.056 1.5,6 -0.667,0.667 -1.333,1.333 -2,2 0.897,0.169 1.897,0.502 3,1 1.368,4.239 3.368,8.073 6,11.5 -5.052,0.948 -9.385,3.114 -13,6.5 -5.09,-0.087 -9.09,1.913 -12,6 0.65,4.106 1.983,7.94 4,11.5 -0.167,1.167 -0.333,2.333 -0.5,3.5 -0.333,-0.333 -0.667,-0.667 -1,-1 -1,2 -2,4 -3,6 -3.492,-6.746 -5.992,-13.913 -7.5,-21.5 0.333,-1 0.667,-2 1,-3 -2.57,-1.423 -4.57,-3.256 -6,-5.5 0,-0.333 0,-0.667 0,-1 -1.454,-11.081 -4.287,-21.747 -8.5,-32 -1.576,-7.46 -3.576,-14.793 -6,-22 -0.377,-1.442 -1.21,-2.442 -2.5,-3 -3.335,-7.833 -5.668,-16 -7,-24.5 1.367,-6.981 4.7,-8.148 10,-3.5 z"
         id="path450" />
    </g>
    <g
       id="g451"
       style="clip-rule:evenodd;fill-rule:evenodd;image-rendering:optimizeQuality;shape-rendering:geometricPrecision;text-rendering:geometricPrecision"
       transform="matrix(0.30376449,0,0,0.30376449,-223.72609,-118.7518)">
      <path
         style="opacity:1"
         fill="#1367ae"
         d="m 864.5,526.5 c 6.667,0 13.333,0 20,0 1.384,5.962 2.217,11.962 2.5,18 -7.079,0.98 -14.245,1.313 -21.5,1 -0.677,-5.379 -1.677,-10.713 -3,-16 0.442,-1.239 1.109,-2.239 2,-3 z"
         id="path451" />
    </g>
    <g
       id="g452"
       style="clip-rule:evenodd;fill-rule:evenodd;image-rendering:optimizeQuality;shape-rendering:geometricPrecision;text-rendering:geometricPrecision"
       transform="matrix(0.30376449,0,0,0.30376449,-223.72609,-118.7518)">
      <path
         style="opacity:1"
         fill="#afd4ec"
         d="m 1001.5,522.5 c 3.19,13.059 3.85,26.393 2,40 -0.33,0 -0.67,0 -1,0 0.17,-13.351 -0.17,-26.685 -1,-40 z"
         id="path452" />
    </g>
    <g
       id="g453"
       style="clip-rule:evenodd;fill-rule:evenodd;image-rendering:optimizeQuality;shape-rendering:geometricPrecision;text-rendering:geometricPrecision"
       transform="matrix(0.30376449,0,0,0.30376449,-223.72609,-118.7518)">
      <path
         style="opacity:1"
         fill="#95bede"
         d="m 1011.5,523.5 c 1.51,5.927 2.17,12.094 2,18.5 0,4.347 -0.33,8.514 -1,12.5 0.14,-10.354 -0.2,-20.688 -1,-31 z"
         id="path453" />
    </g>
    <g
       id="g454"
       style="clip-rule:evenodd;fill-rule:evenodd;image-rendering:optimizeQuality;shape-rendering:geometricPrecision;text-rendering:geometricPrecision"
       transform="matrix(0.30376449,0,0,0.30376449,-223.72609,-118.7518)">
      <path
         style="opacity:1"
         fill="#95bfdc"
         d="m 765.5,535.5 c 10e-4,10.014 0.334,20.014 1,30 -2.046,-9.957 -2.379,-19.957 -1,-30 z"
         id="path454" />
    </g>
    <g
       id="g455"
       style="clip-rule:evenodd;fill-rule:evenodd;image-rendering:optimizeQuality;shape-rendering:geometricPrecision;text-rendering:geometricPrecision"
       transform="matrix(0.30376449,0,0,0.30376449,-223.72609,-118.7518)">
      <path
         style="opacity:1"
         fill="#dff1f7"
         d="m 1004.5,498.5 c 5.51,5.281 8.01,11.948 7.5,20 2.84,2.238 3.67,4.904 2.5,8 0.35,2.942 1.02,5.775 2,8.5 -0.82,10.757 -1.32,21.59 -1.5,32.5 -3.23,9.37 -6.4,18.703 -9.5,28 -3.39,3.181 -5.05,7.181 -5,12 -1,0 -2,0 -3,0 1.287,-2.906 2.287,-5.906 3,-9 7.6,-13.473 11.6,-28.139 12,-44 0.67,-3.986 1,-8.153 1,-12.5 0.17,-6.406 -0.49,-12.573 -2,-18.5 -2.13,-8.383 -4.46,-16.716 -7,-25 z"
         id="path455" />
    </g>
    <g
       id="g456"
       style="clip-rule:evenodd;fill-rule:evenodd;image-rendering:optimizeQuality;shape-rendering:geometricPrecision;text-rendering:geometricPrecision"
       transform="matrix(0.30376449,0,0,0.30376449,-223.72609,-118.7518)">
      <path
         style="opacity:1"
         fill="#c2e3f5"
         d="m 778.5,517.5 c -1.279,10.451 -2.279,20.951 -3,31.5 1.381,9.501 2.714,19.001 4,28.5 -2.18,-4.676 -3.68,-9.676 -4.5,-15 -0.5,-7.659 -0.666,-15.326 -0.5,-23 -0.056,-7.709 1.277,-15.042 4,-22 z"
         id="path456" />
    </g>
    <g
       id="g457"
       style="clip-rule:evenodd;fill-rule:evenodd;image-rendering:optimizeQuality;shape-rendering:geometricPrecision;text-rendering:geometricPrecision"
       transform="matrix(0.30376449,0,0,0.30376449,-223.72609,-118.7518)">
      <path
         style="opacity:1"
         fill="#78a9cc"
         d="m 863.5,544.5 c 0.904,0.709 1.237,1.709 1,3 8.486,-0.542 16.82,-1.209 25,-2 0.838,0.342 1.172,1.008 1,2 -7.008,-0.166 -14.008,0 -21,0.5 -1.558,0.21 -2.891,0.71 -4,1.5 -0.667,-0.333 -1.333,-0.667 -2,-1 0,-1.333 0,-2.667 0,-4 z"
         id="path457" />
    </g>
    <g
       id="g459"
       style="clip-rule:evenodd;fill-rule:evenodd;image-rendering:optimizeQuality;shape-rendering:geometricPrecision;text-rendering:geometricPrecision"
       transform="matrix(0.30376449,0,0,0.30376449,-223.72609,-118.7518)">
      <path
         style="opacity:1"
         fill="#235d95"
         d="m 778.5,491.5 c -1.935,7.477 -4.435,14.81 -7.5,22 -4.016,20.256 -4.516,40.59 -1.5,61 -0.751,-2.746 -1.751,-5.413 -3,-8 0,-0.333 0,-0.667 0,-1 -0.666,-9.986 -0.999,-19.986 -1,-30 0.762,-8.456 2.262,-16.79 4.5,-25 2.371,-6.644 5.205,-12.977 8.5,-19 z"
         id="path459" />
    </g>
    <g
       id="g460"
       style="clip-rule:evenodd;fill-rule:evenodd;image-rendering:optimizeQuality;shape-rendering:geometricPrecision;text-rendering:geometricPrecision"
       transform="matrix(0.30376449,0,0,0.30376449,-223.72609,-118.7518)">
      <path
         style="opacity:1"
         fill="#225f98"
         d="m 816.5,517.5 c 1.29,0.558 2.123,1.558 2.5,3 2.424,7.207 4.424,14.54 6,22 4.213,10.253 7.046,20.919 8.5,32 -6.237,-18.721 -11.904,-37.721 -17,-57 z"
         id="path460" />
    </g>
    <g
       id="g464"
       style="clip-rule:evenodd;fill-rule:evenodd;image-rendering:optimizeQuality;shape-rendering:geometricPrecision;text-rendering:geometricPrecision"
       transform="matrix(0.30376449,0,0,0.30376449,-223.72609,-118.7518)">
      <path
         style="opacity:1"
         fill="#25639a"
         d="m 938.5,541.5 c 0.333,4.667 0.667,9.333 1,14 -4.805,0.987 -9.805,1.321 -15,1 -3.045,-0.008 -6.045,-0.341 -9,-1 1.161,6.311 2.161,12.644 3,19 0.256,2.276 1.59,3.443 4,3.5 6.992,0.5 13.992,0.666 21,0.5 -0.885,1.77 -0.052,2.77 2.5,3 2.135,-0.627 4.302,-1.127 6.5,-1.5 5.228,-2.728 10.561,-5.228 16,-7.5 -9.516,7.805 -20.516,11.805 -33,12 -12.706,-0.926 -25.039,-3.593 -37,-8 -0.333,0 -0.667,0 -1,0 -0.418,-0.722 -1.084,-1.222 -2,-1.5 -9.404,-2.072 -18.737,-1.739 -28,1 -1.442,0.377 -2.442,1.21 -3,2.5 -2.065,0.017 -4.065,0.35 -6,1 3.615,-3.386 7.948,-5.552 13,-6.5 -2.632,-3.427 -4.632,-7.261 -6,-11.5 -1.103,-0.498 -2.103,-0.831 -3,-1 0.667,-0.667 1.333,-1.333 2,-2 -0.689,-1.944 -1.189,-3.944 -1.5,-6 -0.561,-0.522 -1.228,-0.855 -2,-1 -5.503,2.111 -11.003,4.111 -16.5,6 4.516,-3.502 9.516,-6.168 15,-8 1.333,-0.333 2.667,-0.667 4,-1 0.667,0.333 1.333,0.667 2,1 1.881,6.304 3.548,12.638 5,19 7.007,0.008 14.173,0.342 21.5,1 1.167,-0.333 2.333,-0.667 3.5,-1 -0.55,-2.157 -1.217,-4.157 -2,-6 -1.322,-4.929 -2.322,-9.929 -3,-15 4.597,1.532 9.264,2.865 14,4 3.005,1.777 6.338,2.777 10,3 -0.675,-7.049 -1.675,-14.049 -3,-21 7.986,0.61 15.986,1.11 24,1.5 1.231,2.166 2.231,4.333 3,6.5 z"
         id="path464" />
    </g>
    <g
       id="g465"
       style="clip-rule:evenodd;fill-rule:evenodd;image-rendering:optimizeQuality;shape-rendering:geometricPrecision;text-rendering:geometricPrecision"
       transform="matrix(0.30376449,0,0,0.30376449,-223.72609,-118.7518)">
      <path
         style="opacity:1"
         fill="#1265b0"
         d="m 898.5,552.5 c 5.495,0.302 10.495,1.969 15,5 0.89,6.165 1.89,12.331 3,18.5 -0.333,0.833 -0.667,1.667 -1,2.5 -6.06,-2.041 -12.06,-4.041 -18,-6 -1.823,-5.88 -2.323,-11.88 -1.5,-18 0.995,-0.566 1.828,-1.233 2.5,-2 z"
         id="path465" />
    </g>
    <g
       id="g466"
       style="clip-rule:evenodd;fill-rule:evenodd;image-rendering:optimizeQuality;shape-rendering:geometricPrecision;text-rendering:geometricPrecision"
       transform="matrix(0.30376449,0,0,0.30376449,-223.72609,-118.7518)">
      <path
         style="opacity:1"
         fill="#1464ac"
         d="m 913.5,535.5 c 7.043,-0.22 14.043,0.114 21,1 1.792,6.178 2.792,12.511 3,19 -5.676,0.166 -11.343,-10e-4 -17,-0.5 -5.111,-5.418 -7.444,-11.918 -7,-19.5 z"
         id="path466" />
    </g>
    <g
       id="g467"
       style="clip-rule:evenodd;fill-rule:evenodd;image-rendering:optimizeQuality;shape-rendering:geometricPrecision;text-rendering:geometricPrecision"
       transform="matrix(0.30376449,0,0,0.30376449,-223.72609,-118.7518)">
      <path
         style="opacity:1"
         fill="#e3f5f9"
         d="m 924.5,556.5 c 4.805,0.987 9.805,1.321 15,1 0.673,6.72 1.673,13.387 3,20 -6.342,0.166 -12.675,0 -19,-0.5 -1.693,-0.847 -3.36,-1.68 -5,-2.5 -0.839,-6.356 -1.839,-12.689 -3,-19 2.955,0.659 5.955,0.992 9,1 z"
         id="path467" />
    </g>
    <g
       id="g469"
       style="clip-rule:evenodd;fill-rule:evenodd;image-rendering:optimizeQuality;shape-rendering:geometricPrecision;text-rendering:geometricPrecision"
       transform="matrix(0.30376449,0,0,0.30376449,-223.72609,-118.7518)">
      <path
         style="opacity:1"
         fill="#f9faf9"
         d="m 919.5,559.5 c 4.751,0.689 9.918,0.689 15.5,0 0.75,0.626 1.584,1.126 2.5,1.5 0.062,4.764 0.229,9.264 0.5,13.5 -0.414,0.457 -0.914,0.791 -1.5,1 -4.613,-0.779 -9.28,-1.279 -14,-1.5 -1.203,-4.947 -2.203,-9.78 -3,-14.5 z"
         id="path469" />
    </g>
    <g
       id="g470"
       style="clip-rule:evenodd;fill-rule:evenodd;image-rendering:optimizeQuality;shape-rendering:geometricPrecision;text-rendering:geometricPrecision"
       transform="matrix(0.30376449,0,0,0.30376449,-223.72609,-118.7518)">
      <path
         style="opacity:1"
         fill="#236097"
         d="m 970.5,464.5 c 3.267,2.24 6.6,4.573 10,7 10.4,14.474 17.9,30.474 22.5,48 2.05,13.274 3.55,26.607 4.5,40 0.67,-0.333 1.33,-0.667 2,-1 1.16,-4.967 1.33,-9.967 0.5,-15 -0.76,2.563 -1.26,2.563 -1.5,0 1.07,-2.379 1.74,-4.879 2,-7.5 -1.34,-20.421 -7.68,-38.921 -19,-55.5 -0.952,-1.545 -1.285,-3.212 -1,-5 1.814,2.264 3.647,4.597 5.5,7 2.19,5.789 5.02,11.122 8.5,16 2.54,8.284 4.87,16.617 7,25 0.8,10.312 1.14,20.646 1,31 -0.4,15.861 -4.4,30.527 -12,44 2.31,-7.074 4.81,-14.074 7.5,-21 0.43,-4.176 0.93,-8.342 1.5,-12.5 0.05,-1.728 -0.45,-3.228 -1.5,-4.5 -1.33,1.082 -2.83,1.749 -4.5,2 1.85,-13.607 1.19,-26.941 -2,-40 -3.37,-16.818 -10.37,-31.818 -21,-45 -2.543,-4.885 -5.877,-9.218 -10,-13 z"
         id="path470" />
    </g>
    <g
       id="g471"
       style="clip-rule:evenodd;fill-rule:evenodd;image-rendering:optimizeQuality;shape-rendering:geometricPrecision;text-rendering:geometricPrecision"
       transform="matrix(0.30376449,0,0,0.30376449,-223.72609,-118.7518)">
      <path
         style="opacity:1"
         fill="#daf3f8"
         d="m 890.5,547.5 c 0.678,5.071 1.678,10.071 3,15 0,1.667 0,3.333 0,5 -7.691,-0.097 -15.358,0.237 -23,1 -1.452,-6.362 -3.119,-12.696 -5,-19 1.109,-0.79 2.442,-1.29 4,-1.5 6.992,-0.5 13.992,-0.666 21,-0.5 z"
         id="path471" />
    </g>
    <g
       id="g472"
       style="clip-rule:evenodd;fill-rule:evenodd;image-rendering:optimizeQuality;shape-rendering:geometricPrecision;text-rendering:geometricPrecision"
       transform="matrix(0.30376449,0,0,0.30376449,-223.72609,-118.7518)">
      <path
         style="opacity:1"
         fill="#f8faf9"
         d="m 868.5,549.5 c 6.667,0 13.333,0 20,0 0.841,5.328 1.341,10.661 1.5,16 -5.779,1.307 -11.612,1.307 -17.5,0 -2.73,-4.983 -4.063,-10.316 -4,-16 z"
         id="path472" />
    </g>
    <g
       id="g473"
       style="clip-rule:evenodd;fill-rule:evenodd;image-rendering:optimizeQuality;shape-rendering:geometricPrecision;text-rendering:geometricPrecision"
       transform="matrix(0.30376449,0,0,0.30376449,-223.72609,-118.7518)">
      <path
         style="opacity:1"
         fill="#9ac9e3"
         d="m 893.5,562.5 c 0.783,1.843 1.45,3.843 2,6 -1.167,0.333 -2.333,0.667 -3.5,1 -7.327,-0.658 -14.493,-0.992 -21.5,-1 7.642,-0.763 15.309,-1.097 23,-1 0,-1.667 0,-3.333 0,-5 z"
         id="path473" />
    </g>
    <g
       id="g474"
       style="clip-rule:evenodd;fill-rule:evenodd;image-rendering:optimizeQuality;shape-rendering:geometricPrecision;text-rendering:geometricPrecision"
       transform="matrix(0.30376449,0,0,0.30376449,-223.72609,-118.7518)">
      <path
         style="opacity:1"
         fill="#1267b1"
         d="m 971.5,566.5 c 0.475,2.813 -0.525,4.813 -3,6 -5.439,2.272 -10.772,4.772 -16,7.5 -2.198,0.373 -4.365,0.873 -6.5,1.5 -2.552,-0.23 -3.385,-1.23 -2.5,-3 0,-0.667 0,-1.333 0,-2 0.656,-1.122 0.989,-2.455 1,-4 -1.152,-4.939 -1.819,-9.939 -2,-15 7.05,-2.521 14.05,-5.355 21,-8.5 0.473,-3.751 0.639,-7.584 0.5,-11.5 2.067,9.94 4.567,19.606 7.5,29 z"
         id="path474" />
    </g>
    <g
       id="g476"
       style="clip-rule:evenodd;fill-rule:evenodd;image-rendering:optimizeQuality;shape-rendering:geometricPrecision;text-rendering:geometricPrecision"
       transform="matrix(0.30376449,0,0,0.30376449,-223.72609,-118.7518)">
      <path
         style="opacity:1"
         fill="#d0e9f2"
         d="m 897.5,576.5 c -10.922,-0.435 -21.922,0.231 -33,2 0.558,-1.29 1.558,-2.123 3,-2.5 9.263,-2.739 18.596,-3.072 28,-1 0.916,0.278 1.582,0.778 2,1.5 z"
         id="path476" />
    </g>
    <g
       id="g477"
       style="clip-rule:evenodd;fill-rule:evenodd;image-rendering:optimizeQuality;shape-rendering:geometricPrecision;text-rendering:geometricPrecision"
       transform="matrix(0.30376449,0,0,0.30376449,-223.72609,-118.7518)">
      <path
         style="opacity:1"
         fill="#82b1d3"
         d="m 939.5,555.5 c 1,0 2,0 3,0 -0.891,0.761 -1.558,1.761 -2,3 1.324,5.96 2.324,11.96 3,18 0,0.667 0,1.333 0,2 -7.008,0.166 -14.008,0 -21,-0.5 -2.41,-0.057 -3.744,-1.224 -4,-3.5 1.64,0.82 3.307,1.653 5,2.5 6.325,0.5 12.658,0.666 19,0.5 -1.327,-6.613 -2.327,-13.28 -3,-20 -5.195,0.321 -10.195,-0.013 -15,-1 5.195,0.321 10.195,-0.013 15,-1 z"
         id="path477" />
    </g>
    <g
       id="g480"
       style="clip-rule:evenodd;fill-rule:evenodd;image-rendering:optimizeQuality;shape-rendering:geometricPrecision;text-rendering:geometricPrecision"
       transform="matrix(0.30376449,0,0,0.30376449,-223.72609,-118.7518)">
      <path
         style="opacity:1"
         fill="#bddded"
         d="m 766.5,566.5 c 1.249,2.587 2.249,5.254 3,8 0,0.333 0,0.667 0,1 0.826,3.636 1.492,7.303 2,11 -1.636,-1.249 -2.803,-2.916 -3.5,-5 -0.912,-4.964 -1.412,-9.964 -1.5,-15 z"
         id="path480" />
    </g>
    <g
       id="g481"
       style="clip-rule:evenodd;fill-rule:evenodd;image-rendering:optimizeQuality;shape-rendering:geometricPrecision;text-rendering:geometricPrecision"
       transform="matrix(0.30376449,0,0,0.30376449,-223.72609,-118.7518)">
      <path
         style="opacity:1"
         fill="#d9f0f7"
         d="m 971.5,558.5 c 1.305,1.897 1.971,4.231 2,7 0.612,4.307 -0.555,7.974 -3.5,11 -6.797,2.149 -13.297,4.982 -19.5,8.5 -12.749,2.25 -25.416,1.917 -38,-1 -3.677,-2.804 -7.843,-4.637 -12.5,-5.5 -1.03,-0.336 -1.53,-1.003 -1.5,-2 11.961,4.407 24.294,7.074 37,8 12.484,-0.195 23.484,-4.195 33,-12 2.475,-1.187 3.475,-3.187 3,-6 0,-2.667 0,-5.333 0,-8 z"
         id="path481" />
    </g>
    <g
       id="g484"
       style="clip-rule:evenodd;fill-rule:evenodd;image-rendering:optimizeQuality;shape-rendering:geometricPrecision;text-rendering:geometricPrecision"
       transform="matrix(0.30376449,0,0,0.30376449,-223.72609,-118.7518)">
      <path
         style="opacity:1"
         fill="#24649e"
         d="m 774.5,539.5 c -0.166,7.674 0,15.341 0.5,23 0.82,5.324 2.32,10.324 4.5,15 1.599,8.073 4.265,15.74 8,23 -1.511,-1.002 -3.178,-1.669 -5,-2 0,-1 0,-2 0,-3 -1.052,-0.149 -2.052,0.017 -3,0.5 0.616,5.236 2.616,9.902 6,14 -0.556,0.383 -0.889,0.883 -1,1.5 -5.129,-7.924 -9.462,-16.258 -13,-25 -0.508,-3.697 -1.174,-7.364 -2,-11 2.195,2.893 3.528,6.227 4,10 0.825,0.886 1.825,1.219 3,1 -0.188,1.603 0.312,2.937 1.5,4 0.006,-2.309 0.172,-4.475 0.5,-6.5 -0.5,-1.5 -1,-3 -1.5,-4.5 -2.122,-0.72 -2.622,-1.887 -1.5,-3.5 -0.509,-2.693 -1.509,-5.193 -3,-7.5 -0.007,-8.923 0.16,-17.923 0.5,-27 0.278,-0.916 0.778,-1.582 1.5,-2 z"
         id="path484" />
    </g>
    <g
       id="g486"
       style="clip-rule:evenodd;fill-rule:evenodd;image-rendering:optimizeQuality;shape-rendering:geometricPrecision;text-rendering:geometricPrecision"
       transform="matrix(0.30376449,0,0,0.30376449,-223.72609,-118.7518)">
      <path
         style="opacity:1"
         fill="#2163a3"
         d="m 1000.5,598.5 c -0.713,3.094 -1.713,6.094 -3,9 -4.245,6.92 -8.912,13.587 -14,20 -5.465,4.964 -10.798,10.13 -16,15.5 -8.893,6.609 -18.226,12.443 -28,17.5 -3.344,1.008 -6.677,2.008 -10,3 0.453,-0.958 1.119,-1.792 2,-2.5 5.72,-2.181 11.386,-4.515 17,-7 5.535,-4.135 11.201,-8.135 17,-12 1.789,-2.279 3.789,-4.279 6,-6 -1.671,-1.844 -3.671,-2.51 -6,-2 -2.051,2.02 -4.384,3.52 -7,4.5 6.938,-6.437 13.771,-13.103 20.5,-20 5.884,-7.775 10.718,-16.108 14.5,-25 4.807,-9.759 7.81,-20.092 9,-31 0.33,0 0.67,0 1,0 1.67,-0.251 3.17,-0.918 4.5,-2 1.05,1.272 1.55,2.772 1.5,4.5 -0.57,4.158 -1.07,8.324 -1.5,12.5 -2.69,6.926 -5.19,13.926 -7.5,21 z"
         id="path486" />
    </g>
    <g
       id="g497"
       style="clip-rule:evenodd;fill-rule:evenodd;image-rendering:optimizeQuality;shape-rendering:geometricPrecision;text-rendering:geometricPrecision"
       transform="matrix(0.30376449,0,0,0.30376449,-223.72609,-118.7518)">
      <path
         style="opacity:1"
         fill="#1c66a8"
         d="m 833.5,575.5 c 1.43,2.244 3.43,4.077 6,5.5 -0.333,1 -0.667,2 -1,3 1.508,7.587 4.008,14.754 7.5,21.5 1,-2 2,-4 3,-6 0.333,0.333 0.667,0.667 1,1 0.167,-1.167 0.333,-2.333 0.5,-3.5 -2.017,-3.56 -3.35,-7.394 -4,-11.5 2.91,-4.087 6.91,-6.087 12,-6 -2.098,1.435 -4.431,2.602 -7,3.5 -1.444,1.126 -2.11,2.626 -2,4.5 2.494,8.976 4.827,17.976 7,27 0.952,5.424 2.285,10.758 4,16 -1.576,3.555 -4.243,4.722 -8,3.5 -2.6,-6.805 -4.6,-13.805 -6,-21 -0.215,-1.908 -1.215,-3.074 -3,-3.5 -3.909,-11.155 -7.243,-22.488 -10,-34 z"
         id="path497" />
    </g>
    <g
       id="g498"
       style="clip-rule:evenodd;fill-rule:evenodd;image-rendering:optimizeQuality;shape-rendering:geometricPrecision;text-rendering:geometricPrecision"
       transform="matrix(0.30376449,0,0,0.30376449,-223.72609,-118.7518)">
      <path
         style="opacity:1"
         fill="#1d66ab"
         d="m 787.5,600.5 c 5.084,7.833 10.417,15.5 16,23 0.269,1.929 -0.231,3.595 -1.5,5 -3.135,-3.321 -6.635,-5.988 -10.5,-8 0.149,-1.052 -0.017,-2.052 -0.5,-3 -1.972,-2.354 -4.139,-4.354 -6.5,-6 0.111,-0.617 0.444,-1.117 1,-1.5 -3.384,-4.098 -5.384,-8.764 -6,-14 0.948,-0.483 1.948,-0.649 3,-0.5 0,1 0,2 0,3 1.822,0.331 3.489,0.998 5,2 z"
         id="path498" />
    </g>
    <g
       id="g501"
       style="clip-rule:evenodd;fill-rule:evenodd;image-rendering:optimizeQuality;shape-rendering:geometricPrecision;text-rendering:geometricPrecision"
       transform="matrix(0.30376449,0,0,0.30376449,-223.72609,-118.7518)">
      <path
         style="opacity:1"
         fill="#d3ebf5"
         d="m 771.5,586.5 c 3.538,8.742 7.871,17.076 13,25 3.582,6.254 7.582,12.254 12,18 -2.606,-1.763 -5.106,-3.763 -7.5,-6 -8.953,-10.703 -14.786,-23.037 -17.5,-37 z"
         id="path501" />
    </g>
    <g
       id="g502"
       style="clip-rule:evenodd;fill-rule:evenodd;image-rendering:optimizeQuality;shape-rendering:geometricPrecision;text-rendering:geometricPrecision"
       transform="matrix(0.30376449,0,0,0.30376449,-223.72609,-118.7518)">
      <path
         style="opacity:1"
         fill="#d5ecf4"
         d="m 864.5,578.5 c -1.912,3.355 -4.912,4.855 -9,4.5 -3.951,3.722 -3.951,7.555 0,11.5 -1.337,7.809 0.663,14.643 6,20.5 1.797,6.062 2.297,12.228 1.5,18.5 -0.383,0.556 -0.883,0.889 -1.5,1 0.188,-7.248 -1.479,-13.915 -5,-20 -2.173,-9.024 -4.506,-18.024 -7,-27 -0.11,-1.874 0.556,-3.374 2,-4.5 2.569,-0.898 4.902,-2.065 7,-3.5 1.935,-0.65 3.935,-0.983 6,-1 z"
         id="path502" />
    </g>
    <g
       id="g505"
       style="clip-rule:evenodd;fill-rule:evenodd;image-rendering:optimizeQuality;shape-rendering:geometricPrecision;text-rendering:geometricPrecision"
       transform="matrix(0.30376449,0,0,0.30376449,-223.72609,-118.7518)">
      <path
         style="opacity:1"
         fill="#2c6292"
         d="m 843.5,609.5 c 1.785,0.426 2.785,1.592 3,3.5 1.4,7.195 3.4,14.195 6,21 3.757,1.222 6.424,0.055 8,-3.5 -1.715,-5.242 -3.048,-10.576 -4,-16 3.521,6.085 5.188,12.752 5,20 -1,0.667 -2,1.333 -3,2 -2.027,0.162 -4.027,-0.005 -6,-0.5 -3.686,-8.559 -6.686,-17.392 -9,-26.5 z"
         id="path505" />
    </g>
    <g
       id="g518"
       style="clip-rule:evenodd;fill-rule:evenodd;image-rendering:optimizeQuality;shape-rendering:geometricPrecision;text-rendering:geometricPrecision"
       transform="matrix(0.30376449,0,0,0.30376449,-223.72609,-118.7518)">
      <path
         style="opacity:1"
         fill="#2566a1"
         d="m 784.5,611.5 c 2.361,1.646 4.528,3.646 6.5,6 0.483,0.948 0.649,1.948 0.5,3 3.865,2.012 7.365,4.679 10.5,8 1.269,-1.405 1.769,-3.071 1.5,-5 7.451,7.877 15.785,14.543 25,20 4.774,3.896 10.108,7.063 16,9.5 7.098,2.564 14.098,5.064 21,7.5 -6.941,-1.315 -13.941,-2.815 -21,-4.5 -1.333,-0.667 -2.333,-1.667 -3,-3 -5.544,-0.272 -10.211,-2.439 -14,-6.5 -1.615,-0.654 -3.282,-1.154 -5,-1.5 0.333,-0.333 0.667,-0.667 1,-1 -1.284,-0.684 -2.451,-0.517 -3.5,0.5 -0.662,-3.853 -1.496,-3.853 -2.5,0 1.323,1.665 2.656,3.332 4,5 -1.667,-0.667 -3.333,-1.333 -5,-2 -6.939,-5.601 -13.606,-11.601 -20,-18 -4.418,-5.746 -8.418,-11.746 -12,-18 z"
         id="path518" />
    </g>
    <g
       id="g519"
       style="clip-rule:evenodd;fill-rule:evenodd;image-rendering:optimizeQuality;shape-rendering:geometricPrecision;text-rendering:geometricPrecision"
       transform="matrix(0.30376449,0,0,0.30376449,-223.72609,-118.7518)">
      <path
         style="opacity:1"
         fill="#dbeff6"
         d="m 983.5,627.5 c -0.712,2.428 -1.712,4.761 -3,7 -3.324,3.311 -6.657,6.644 -10,10 -6.071,3.238 -11.737,7.071 -17,11.5 -4.611,1.812 -9.277,3.312 -14,4.5 9.774,-5.057 19.107,-10.891 28,-17.5 5.202,-5.37 10.535,-10.536 16,-15.5 z"
         id="path519" />
    </g>
    <g
       id="g522"
       style="clip-rule:evenodd;fill-rule:evenodd;image-rendering:optimizeQuality;shape-rendering:geometricPrecision;text-rendering:geometricPrecision"
       transform="matrix(0.30376449,0,0,0.30376449,-223.72609,-118.7518)">
      <path
         style="opacity:1"
         fill="#1a66ac"
         d="m 929.5,663.5 c -13.947,3.309 -28.114,4.976 -42.5,5 -10.622,-0.027 -21.122,-1.027 -31.5,-3 -12.869,-2.234 -24.202,-7.567 -34,-16 -1.344,-1.668 -2.677,-3.335 -4,-5 1.004,-3.853 1.838,-3.853 2.5,0 1.049,-1.017 2.216,-1.184 3.5,-0.5 -0.333,0.333 -0.667,0.667 -1,1 1.718,0.346 3.385,0.846 5,1.5 3.789,4.061 8.456,6.228 14,6.5 0.667,1.333 1.667,2.333 3,3 7.059,1.685 14.059,3.185 21,4.5 0.333,0 0.667,0 1,0 2.377,1.387 5.043,2.221 8,2.5 16.599,1.492 32.932,0.159 49,-4 1.132,-2.21 2.632,-2.71 4.5,-1.5 2.035,-1.936 4.202,-3.602 6.5,-5 8.26,-4.133 16.26,-8.8 24,-14 2.616,-0.98 4.949,-2.48 7,-4.5 2.329,-0.51 4.329,0.156 6,2 -2.211,1.721 -4.211,3.721 -6,6 -5.799,3.865 -11.465,7.865 -17,12 -5.614,2.485 -11.28,4.819 -17,7 -0.881,0.708 -1.547,1.542 -2,2.5 z"
         id="path522" />
    </g>
    <g
       id="g523"
       style="clip-rule:evenodd;fill-rule:evenodd;image-rendering:optimizeQuality;shape-rendering:geometricPrecision;text-rendering:geometricPrecision"
       transform="matrix(0.30376449,0,0,0.30376449,-223.72609,-118.7518)">
      <path
         style="opacity:1"
         fill="#366ea0"
         d="m 934.5,652.5 c -2.298,1.398 -4.465,3.064 -6.5,5 -1.868,-1.21 -3.368,-0.71 -4.5,1.5 -16.068,4.159 -32.401,5.492 -49,4 -2.957,-0.279 -5.623,-1.113 -8,-2.5 2.333,0 4.667,0 7,0 9.825,1.158 19.825,1.325 30,0.5 6.366,-0.591 12.366,-2.091 18,-4.5 4.622,-0.569 8.955,-1.903 13,-4 z"
         id="path523" />
    </g>
    <g
       id="g524"
       style="clip-rule:evenodd;fill-rule:evenodd;image-rendering:optimizeQuality;shape-rendering:geometricPrecision;text-rendering:geometricPrecision"
       transform="matrix(0.30376449,0,0,0.30376449,-223.72609,-118.7518)">
      <path
         style="opacity:1"
         fill="#ceebf6"
         d="m 921.5,656.5 c -5.634,2.409 -11.634,3.909 -18,4.5 -10.175,0.825 -20.175,0.658 -30,-0.5 8.007,0.166 16.007,0 24,-0.5 8.007,-1.285 16.007,-2.451 24,-3.5 z"
         id="path524" />
    </g>
    <g
       id="g525"
       style="clip-rule:evenodd;fill-rule:evenodd;image-rendering:optimizeQuality;shape-rendering:geometricPrecision;text-rendering:geometricPrecision"
       transform="matrix(0.30376449,0,0,0.30376449,-223.72609,-118.7518)">
      <path
         style="opacity:1"
         fill="#d6ecf5"
         d="m 828.5,643.5 c 6.657,1.539 12.824,4.206 18.5,8 1.79,0.785 3.457,0.785 5,0 0.833,0.833 1.667,1.667 2.5,2.5 4.262,0.94 8.428,2.106 12.5,3.5 0.333,-0.333 0.667,-0.667 1,-1 1.461,1.968 3.295,3.302 5.5,4 -2.333,0 -4.667,0 -7,0 -0.333,0 -0.667,0 -1,0 -6.902,-2.436 -13.902,-4.936 -21,-7.5 -5.892,-2.437 -11.226,-5.604 -16,-9.5 z"
         id="path525" />
    </g>
    <g
       id="g526"
       style="clip-rule:evenodd;fill-rule:evenodd;image-rendering:optimizeQuality;shape-rendering:geometricPrecision;text-rendering:geometricPrecision"
       transform="matrix(0.30376449,0,0,0.30376449,-223.72609,-118.7518)">
      <path
         style="opacity:1"
         fill="#def2f7"
         d="m 816.5,647.5 c 1.667,0.667 3.333,1.333 5,2 9.798,8.433 21.131,13.766 34,16 3.359,1.719 7.025,2.886 11,3.5 21.618,3.361 42.618,1.527 63,-5.5 3.323,-0.992 6.656,-1.992 10,-3 -1.315,2.506 -3.315,4.339 -6,5.5 -6.811,1.326 -13.478,3.16 -20,5.5 -13.664,2.683 -27.33,3.183 -41,1.5 -9.976,-2.926 -19.976,-5.592 -30,-8 -7.761,-3.715 -15.428,-7.715 -23,-12 -1.66,-1.488 -2.66,-3.321 -3,-5.5 z"
         id="path526" />
    </g>
    <g
       id="g527"
       style="clip-rule:evenodd;fill-rule:evenodd;image-rendering:optimizeQuality;shape-rendering:geometricPrecision;text-rendering:geometricPrecision"
       transform="matrix(0.30376449,0,0,0.30376449,-223.72609,-118.7518)">
      <path
         style="opacity:1"
         fill="#256193"
         d="m 929.5,663.5 c -20.382,7.027 -41.382,8.861 -63,5.5 -3.975,-0.614 -7.641,-1.781 -11,-3.5 10.378,1.973 20.878,2.973 31.5,3 14.386,-0.024 28.553,-1.691 42.5,-5 z"
         id="path527" />
    </g>
  </g>
</svg>
