<?xml version="1.0" encoding="UTF-8" standalone="no"?>
<!-- Created with Inkscape (http://www.inkscape.org/) -->

<svg
   width="96mm"
   height="96mm"
   viewBox="0 0 96 96"
   version="1.1"
   id="svg1"
   inkscape:version="1.4.2 (ebf0e940, 2025-05-08)"
   sodipodi:docname="helicopter.svg"
   xmlns:inkscape="http://www.inkscape.org/namespaces/inkscape"
   xmlns:sodipodi="http://sodipodi.sourceforge.net/DTD/sodipodi-0.dtd"
   xmlns="http://www.w3.org/2000/svg"
   xmlns:svg="http://www.w3.org/2000/svg">
  <sodipodi:namedview
     id="namedview1"
     pagecolor="#ffffff"
     bordercolor="#000000"
     borderopacity="0.25"
     inkscape:showpageshadow="2"
     inkscape:pageopacity="0.0"
     inkscape:pagecheckerboard="0"
     inkscape:deskcolor="#d1d1d1"
     inkscape:document-units="mm"
     inkscape:zoom="0.80444024"
     inkscape:cx="397.17059"
     inkscape:cy="262.91574"
     inkscape:window-width="1920"
     inkscape:window-height="1052"
     inkscape:window-x="0"
     inkscape:window-y="28"
     inkscape:window-maximized="0"
     inkscape:current-layer="layer1" />
  <defs
     id="defs1" />
  <g
     inkscape:label="Layer 1"
     inkscape:groupmode="layer"
     id="layer1">
    <g
       id="g234"
       style="clip-rule:evenodd;fill-rule:evenodd;image-rendering:optimizeQuality;shape-rendering:geometricPrecision;text-rendering:geometricPrecision"
       transform="matrix(0.26458333,0,0,0.26458333,-286.53957,-103.20337)">
      <path
         style="opacity:1"
         fill="#2c4669"
         d="m 1272.5,421.5 c -6,-1.333 -12,-1.333 -18,0 0.11,-0.617 0.44,-1.117 1,-1.5 6.09,-2.45 11.76,-1.95 17,1.5 z"
         id="path234" />
    </g>
    <g
       id="g244"
       style="clip-rule:evenodd;fill-rule:evenodd;image-rendering:optimizeQuality;shape-rendering:geometricPrecision;text-rendering:geometricPrecision"
       transform="matrix(0.26458333,0,0,0.26458333,-286.53957,-103.20337)">
      <path
         style="opacity:1"
         fill="#1a558a"
         d="m 1282.5,444.5 c 1.5,3.127 2.5,6.46 3,10 -0.06,0.543 -0.39,0.876 -1,1 -4.86,-1.964 -9.86,-3.464 -15,-4.5 -0.94,-2.719 -1.28,-5.552 -1,-8.5 4.83,-0.279 9.49,0.387 14,2 z"
         id="path244" />
    </g>
    <g
       id="g246"
       style="clip-rule:evenodd;fill-rule:evenodd;image-rendering:optimizeQuality;shape-rendering:geometricPrecision;text-rendering:geometricPrecision"
       transform="matrix(0.26458333,0,0,0.26458333,-286.53957,-103.20337)">
      <path
         style="opacity:1"
         fill="#1c3f69"
         d="m 1272.5,421.5 c 8.51,5.66 13.51,13.66 15,24 1.19,5.6 1.85,11.267 2,17 -0.49,-3.069 -1.82,-5.736 -4,-8 -0.5,-3.54 -1.5,-6.873 -3,-10 0.11,-0.617 0.44,-1.117 1,-1.5 -1.24,-0.232 -2.24,-0.732 -3,-1.5 0.33,0 0.67,0 1,0 0.6,-0.235 0.93,-0.735 1,-1.5 -0.97,-2.111 -1.81,-4.278 -2.5,-6.5 -2.75,-3.902 -5.25,-7.902 -7.5,-12 z"
         id="path246" />
    </g>
    <g
       id="g251"
       style="clip-rule:evenodd;fill-rule:evenodd;image-rendering:optimizeQuality;shape-rendering:geometricPrecision;text-rendering:geometricPrecision"
       transform="matrix(0.26458333,0,0,0.26458333,-286.53957,-103.20337)">
      <path
         style="opacity:1"
         fill="#1d3a5b"
         d="m 1254.5,421.5 c -6.91,7.82 -11.74,16.82 -14.5,27 -0.33,-0.333 -0.67,-0.667 -1,-1 -1.44,8.147 -2.94,16.147 -4.5,24 0,-2.333 0,-4.667 0,-7 0.2,-3.018 0.54,-6.018 1,-9 1.83,-13.155 7.49,-24.321 17,-33.5 0.59,-0.464 1.26,-0.631 2,-0.5 z"
         id="path251" />
    </g>
    <g
       id="g252"
       style="clip-rule:evenodd;fill-rule:evenodd;image-rendering:optimizeQuality;shape-rendering:geometricPrecision;text-rendering:geometricPrecision"
       transform="matrix(0.26458333,0,0,0.26458333,-286.53957,-103.20337)">
      <path
         style="opacity:1"
         fill="#264262"
         d="m 1216.5,482.5 c -0.62,0.111 -1.12,0.444 -1.5,1 -1.22,-6.336 -0.39,-12.336 2.5,-18 -1.94,-1.622 -2.27,-3.456 -1,-5.5 -2.04,-1.741 -4.21,-1.908 -6.5,-0.5 -3.92,8.008 -5.09,16.008 -3.5,24 -1.05,3.228 -1.71,6.561 -2,10 -4.33,-0.333 -6.67,-2.667 -7,-7 1.89,1.44 3.55,3.106 5,5 0.26,-10.552 1.76,-20.886 4.5,-31 3.35,-4.81 7.02,-5.144 11,-1 -0.88,7.585 -1.38,15.252 -1.5,23 z"
         id="path252" />
    </g>
    <g
       id="g253"
       style="clip-rule:evenodd;fill-rule:evenodd;image-rendering:optimizeQuality;shape-rendering:geometricPrecision;text-rendering:geometricPrecision"
       transform="matrix(0.26458333,0,0,0.26458333,-286.53957,-103.20337)">
      <path
         style="opacity:1"
         fill="#23405f"
         d="m 1185.5,474.5 c -0.62,0.111 -1.12,0.444 -1.5,1 -5.1,-5.776 -10.27,-11.609 -15.5,-17.5 -9.96,-1.051 -13.79,3.116 -11.5,12.5 1,0.333 2,0.667 3,1 0.99,2.47 2.16,4.803 3.5,7 -4.66,-3.156 -8,-7.323 -10,-12.5 2.31,-8.675 7.64,-11.675 16,-9 5.91,5.404 11.24,11.237 16,17.5 z"
         id="path253" />
    </g>
    <g
       id="g254"
       style="clip-rule:evenodd;fill-rule:evenodd;image-rendering:optimizeQuality;shape-rendering:geometricPrecision;text-rendering:geometricPrecision"
       transform="matrix(0.26458333,0,0,0.26458333,-286.53957,-103.20337)">
      <path
         style="opacity:1"
         fill="#164d86"
         d="m 1258.5,452.5 c 1.3,1.897 1.97,4.231 2,7 0.23,3.31 -0.44,6.31 -2,9 -3.62,0.744 -7.29,1.077 -11,1 2.33,-0.624 4.67,-1.457 7,-2.5 -3.39,-0.752 -6.73,-0.585 -10,0.5 -0.67,-2 -1.33,-4 -2,-6 -1,2 -2,4 -3,6 -1.12,-3.096 -0.79,-6.096 1,-9 5.7,-2.874 11.7,-4.874 18,-6 z"
         id="path254" />
    </g>
    <g
       id="g255"
       style="clip-rule:evenodd;fill-rule:evenodd;image-rendering:optimizeQuality;shape-rendering:geometricPrecision;text-rendering:geometricPrecision"
       transform="matrix(0.26458333,0,0,0.26458333,-286.53957,-103.20337)">
      <path
         style="opacity:1"
         fill="#334c6a"
         d="m 1287.5,445.5 c 2.51,7.699 4.18,15.699 5,24 0,1 0,2 0,3 -0.81,-2.131 -1.31,-4.464 -1.5,-7 -0.38,0.556 -0.88,0.889 -1.5,1 0,-1.333 0,-2.667 0,-4 -0.15,-5.733 -0.81,-11.4 -2,-17 z"
         id="path255" />
    </g>
    <g
       id="g256"
       style="clip-rule:evenodd;fill-rule:evenodd;image-rendering:optimizeQuality;shape-rendering:geometricPrecision;text-rendering:geometricPrecision"
       transform="matrix(0.26458333,0,0,0.26458333,-286.53957,-103.20337)">
      <path
         style="opacity:1"
         fill="#e0eef4"
         d="m 1235.5,455.5 c -0.46,2.982 -0.8,5.982 -1,9 -0.81,1.792 -1.31,3.792 -1.5,6 -0.5,6.325 -0.67,12.658 -0.5,19 -0.81,-2.131 -1.31,-4.464 -1.5,-7 -2.87,-3.544 -6.04,-3.877 -9.5,-1 -0.14,-1.624 0.53,-2.79 2,-3.5 2.31,-0.497 4.64,-0.663 7,-0.5 0.13,-4.423 0.79,-8.756 2,-13 -1.59,-1.946 -1.25,-3.446 1,-4.5 -2.19,-0.604 -2.35,-1.77 -0.5,-3.5 0.33,0.667 0.67,1.333 1,2 0.23,-1.237 0.73,-2.237 1.5,-3 z"
         id="path256" />
    </g>
    <g
       id="g259"
       style="clip-rule:evenodd;fill-rule:evenodd;image-rendering:optimizeQuality;shape-rendering:geometricPrecision;text-rendering:geometricPrecision"
       transform="matrix(0.26458333,0,0,0.26458333,-286.53957,-103.20337)">
      <path
         style="opacity:1"
         fill="#103d70"
         d="m 1185.5,474.5 c 2.6,5.099 6.1,9.432 10.5,13 0.38,-0.556 0.88,-0.889 1.5,-1 0.33,4.333 2.67,6.667 7,7 0.29,-3.439 0.95,-6.772 2,-10 0.33,0 0.67,0 1,0 -0.17,4.679 0,9.345 0.5,14 0.94,1.561 2.11,2.895 3.5,4 0.83,-3.622 1.33,-7.289 1.5,-11 2.47,1.486 4.97,2.819 7.5,4 -1.77,1.696 -3.93,3.03 -6.5,4 0,3.249 -1.17,5.916 -3.5,8 -14.41,-15.578 -29.07,-31.078 -44,-46.5 -3.29,-0.746 -5.79,0.42 -7.5,3.5 -0.67,1.333 -0.67,2.667 0,4 21.12,22.281 41.96,44.615 62.5,67 -2.65,-0.238 -4.48,-1.572 -5.5,-4 -1.02,1.134 -1.68,0.801 -2,-1 0.46,9.739 0.29,19.906 -0.5,30.5 0.57,4.158 1.07,8.324 1.5,12.5 3.78,-0.227 6.78,-1.894 9,-5 0.38,0.556 0.88,0.889 1.5,1 -4.05,3.694 -8.72,6.36 -14,8 0.17,-15.67 0,-31.337 -0.5,-47 -0.25,-1.124 -0.75,-2.124 -1.5,-3 -1,23.991 -1.33,47.991 -1,72 1,0 2,0 3,0 -0.17,-5.344 0,-10.677 0.5,-16 6.45,-4.952 13.28,-9.286 20.5,-13 0.65,-0.304 1.32,-0.637 2,-1 1.74,3.509 3.41,7.009 5,10.5 -1.33,1 -1.33,2 0,3 -1.07,2.012 -2.4,2.512 -4,1.5 0.86,-1.031 1.52,-2.197 2,-3.5 -0.78,-2.39 -1.94,-4.557 -3.5,-6.5 -5.78,3.803 -11.61,7.469 -17.5,11 -1.88,4.908 -2.88,10.241 -3,16 -6.08,1.089 -8.74,-1.411 -8,-7.5 0.7,-12.462 0.7,-24.962 0,-37.5 -0.12,-6.106 0.55,-12.106 2,-18 -0.56,-3.52 -1.23,-7.02 -2,-10.5 0.06,-1.436 0.39,-2.769 1,-4 -1.87,-2.37 -3.54,-4.87 -5,-7.5 -1.58,-0.956 -3.24,-1.623 -5,-2 0.12,-1.984 -0.55,-3.65 -2,-5 -6.71,-6.876 -13.21,-13.876 -19.5,-21 -0.33,0.333 -0.67,0.667 -1,1 -0.59,-2.363 -2.09,-3.363 -4.5,-3 -2.7,-1.734 -4.7,-4.068 -6,-7 -1.34,-2.197 -2.51,-4.53 -3.5,-7 -1,-0.333 -2,-0.667 -3,-1 -2.29,-9.384 1.54,-13.551 11.5,-12.5 5.23,5.891 10.4,11.724 15.5,17.5 0.38,-0.556 0.88,-0.889 1.5,-1 z"
         id="path259" />
    </g>
    <g
       id="g264"
       style="clip-rule:evenodd;fill-rule:evenodd;image-rendering:optimizeQuality;shape-rendering:geometricPrecision;text-rendering:geometricPrecision"
       transform="matrix(0.26458333,0,0,0.26458333,-286.53957,-103.20337)">
      <path
         style="opacity:1"
         fill="#dfecf1"
         d="m 1351.5,492.5 c 6.7,-8.016 13.86,-15.682 21.5,-23 1.26,-8.236 -2.24,-12.902 -10.5,-14 -2.34,-0.137 -4.34,0.53 -6,2 -0.22,-1.175 0.11,-2.175 1,-3 5.92,-3.156 10.75,-2.156 14.5,3 4.29,5.353 4.62,11.02 1,17 -7.33,5.828 -14.49,11.828 -21.5,18 z"
         id="path264" />
    </g>
    <g
       id="g265"
       style="clip-rule:evenodd;fill-rule:evenodd;image-rendering:optimizeQuality;shape-rendering:geometricPrecision;text-rendering:geometricPrecision"
       transform="matrix(0.26458333,0,0,0.26458333,-286.53957,-103.20337)">
      <path
         style="opacity:1"
         fill="#e4f1f6"
         d="m 1339.5,475.5 c -5.03,5.36 -10.03,10.693 -15,16 -0.67,-6.667 -1.33,-13.333 -2,-20 -0.38,-4.086 -1.22,-8.086 -2.5,-12 -2.7,-2.968 -5.87,-3.635 -9.5,-2 1.7,-1.641 3.87,-2.641 6.5,-3 1.09,0.793 2.25,1.46 3.5,2 1.74,4.158 3.41,8.325 5,12.5 -0.14,3.384 -0.14,6.717 0,10 0.29,2.7 1.62,4.033 4,4 2.05,-2.544 4.39,-4.877 7,-7 0.95,-0.483 1.95,-0.649 3,-0.5 z"
         id="path265" />
    </g>
    <g
       id="g266"
       style="clip-rule:evenodd;fill-rule:evenodd;image-rendering:optimizeQuality;shape-rendering:geometricPrecision;text-rendering:geometricPrecision"
       transform="matrix(0.26458333,0,0,0.26458333,-286.53957,-103.20337)">
      <path
         style="opacity:1"
         fill="#1a60a5"
         d="m 1281.5,441.5 c -0.33,0 -0.67,0 -1,0 -4.58,-1.824 -9.25,-2.157 -14,-1 -1.84,4.678 -1.17,8.844 2,12.5 5.94,1.066 11.6,2.9 17,5.5 1.98,2.848 2.31,5.848 1,9 -0.81,-2.919 -1.81,-5.752 -3,-8.5 -5.61,-1.82 -11.27,-3.32 -17,-4.5 -0.17,4.014 0,8.014 0.5,12 0.5,0.5 1,1 1.5,1.5 5.63,0.966 11.3,1.633 17,2 0.5,0.5 1,1 1.5,1.5 1.26,14.947 2.26,29.947 3,45 0.51,1.027 1.01,2.027 1.5,3 0.15,1.052 -0.02,2.052 -0.5,3 -2.43,2.886 -5.1,5.553 -8,8 -0.95,-6.218 -2.45,-12.384 -4.5,-18.5 -3.04,-2.046 -4.04,-4.713 -3,-8 -0.58,-1.417 -1.58,-2.25 -3,-2.5 -0.42,-0.722 -1.08,-1.222 -2,-1.5 2.67,-1 2.67,-2 0,-3 2.39,-1.309 2.39,-2.309 0,-3 0.53,-3.456 -0.8,-6.289 -4,-8.5 -1.25,0.54 -2.41,1.207 -3.5,2 -0.92,-0.43 -1.75,-0.764 -2.5,-1 2.27,-0.771 4.1,-2.104 5.5,-4 0.95,0.405 1.61,1.072 2,2 1.01,-0.837 2.18,-1.17 3.5,-1 0.24,-3.499 -0.59,-3.832 -2.5,-1 -1.63,-1.319 -1.46,-2.652 0.5,-4 0.33,-0.333 0.67,-0.667 1,-1 1.22,2.75 3.22,3.917 6,3.5 0.46,-0.414 0.79,-0.914 1,-1.5 -1.48,-0.613 -2.81,-0.946 -4,-1 1.35,-1.185 2.52,-2.519 3.5,-4 1.32,2.528 2.48,2.528 3.5,0 0.69,1.63 1.02,3.464 1,5.5 -1.5,0.583 -2.83,1.416 -4,2.5 0.61,1.981 1.61,2.315 3,1 0.75,0.876 1.25,1.876 1.5,3 0.67,-2.667 1.33,-2.667 2,0 0.71,-1.867 0.21,-3.367 -1.5,-4.5 2.46,-1.154 2.46,-2.488 0,-4 1.46,-3.241 0.3,-5.074 -3.5,-5.5 -0.77,0.145 -1.44,0.478 -2,1 -1,-2.667 -2,-2.667 -3,0 -1.71,-0.808 -2.54,-2.141 -2.5,-4 -2.03,0.162 -4.03,-0.005 -6,-0.5 0.33,-0.333 0.67,-0.667 1,-1 -1.35,-0.772 -2.18,-1.939 -2.5,-3.5 -0.75,0.626 -1.58,1.126 -2.5,1.5 1.02,1.049 1.18,2.216 0.5,3.5 -1.14,-0.119 -2.31,-0.452 -3.5,-1 1.56,-2.69 2.23,-5.69 2,-9 -0.03,-2.769 -0.7,-5.103 -2,-7 2.21,-3.954 2.54,-8.12 1,-12.5 -5.19,-1.055 -10.02,-0.222 -14.5,2.5 2.44,-13.771 10.6,-19.937 24.5,-18.5 6.09,4.339 10.09,10.172 12,17.5 z"
         id="path266" />
    </g>
    <g
       id="g268"
       style="clip-rule:evenodd;fill-rule:evenodd;image-rendering:optimizeQuality;shape-rendering:geometricPrecision;text-rendering:geometricPrecision"
       transform="matrix(0.26458333,0,0,0.26458333,-286.53957,-103.20337)">
      <path
         style="opacity:1"
         fill="#244061"
         d="m 1185.5,474.5 c 4.33,3.667 8.33,7.667 12,12 -0.62,0.111 -1.12,0.444 -1.5,1 -4.4,-3.568 -7.9,-7.901 -10.5,-13 z"
         id="path268" />
    </g>
    <g
       id="g269"
       style="clip-rule:evenodd;fill-rule:evenodd;image-rendering:optimizeQuality;shape-rendering:geometricPrecision;text-rendering:geometricPrecision"
       transform="matrix(0.26458333,0,0,0.26458333,-286.53957,-103.20337)">
      <path
         style="opacity:1"
         fill="#103f77"
         d="m 1363.5,473.5 c -1.86,5.779 -5.53,9.779 -11,12 2.96,-4.626 6.62,-8.626 11,-12 z"
         id="path269" />
    </g>
    <g
       id="g270"
       style="clip-rule:evenodd;fill-rule:evenodd;image-rendering:optimizeQuality;shape-rendering:geometricPrecision;text-rendering:geometricPrecision"
       transform="matrix(0.26458333,0,0,0.26458333,-286.53957,-103.20337)">
      <path
         style="opacity:1"
         fill="#627b95"
         d="m 1234.5,464.5 c 0,2.333 0,4.667 0,7 -0.96,5.909 -1.29,11.909 -1,18 -0.33,0 -0.67,0 -1,0 -0.17,-6.342 0,-12.675 0.5,-19 0.19,-2.208 0.69,-4.208 1.5,-6 z"
         id="path270" />
    </g>
    <g
       id="g272"
       style="clip-rule:evenodd;fill-rule:evenodd;image-rendering:optimizeQuality;shape-rendering:geometricPrecision;text-rendering:geometricPrecision"
       transform="matrix(0.26458333,0,0,0.26458333,-286.53957,-103.20337)">
      <path
         style="opacity:1"
         fill="#1f5994"
         d="m 1220.5,494.5 c -2.53,-1.181 -5.03,-2.514 -7.5,-4 -0.17,3.711 -0.67,7.378 -1.5,11 -1.39,-1.105 -2.56,-2.439 -3.5,-4 -0.5,-4.655 -0.67,-9.321 -0.5,-14 -0.12,-7.806 1.22,-15.306 4,-22.5 0.95,-0.483 1.95,-0.649 3,-0.5 -1.76,7.899 -2.26,15.899 -1.5,24 1.51,2.926 3.84,4.926 7,6 0.49,1.293 0.66,2.627 0.5,4 z"
         id="path272" />
    </g>
    <g
       id="g273"
       style="clip-rule:evenodd;fill-rule:evenodd;image-rendering:optimizeQuality;shape-rendering:geometricPrecision;text-rendering:geometricPrecision"
       transform="matrix(0.26458333,0,0,0.26458333,-286.53957,-103.20337)">
      <path
         style="opacity:1"
         fill="#244264"
         d="m 1169.5,485.5 c 2.41,-0.363 3.91,0.637 4.5,3 0.33,-0.333 0.67,-0.667 1,-1 6.29,7.124 12.79,14.124 19.5,21 1.45,1.35 2.12,3.016 2,5 -8.97,-9.307 -17.97,-18.64 -27,-28 z"
         id="path273" />
    </g>
    <g
       id="g275"
       style="clip-rule:evenodd;fill-rule:evenodd;image-rendering:optimizeQuality;shape-rendering:geometricPrecision;text-rendering:geometricPrecision"
       transform="matrix(0.26458333,0,0,0.26458333,-286.53957,-103.20337)">
      <path
         style="opacity:1"
         fill="#0e3f73"
         d="m 1280.5,441.5 c 0.76,0.768 1.76,1.268 3,1.5 -0.56,0.383 -0.89,0.883 -1,1.5 -4.51,-1.613 -9.17,-2.279 -14,-2 -0.28,2.948 0.06,5.781 1,8.5 5.14,1.036 10.14,2.536 15,4.5 0.61,-0.124 0.94,-0.457 1,-1 2.18,2.264 3.51,4.931 4,8 0,1.333 0,2.667 0,4 0.28,3.41 0.95,6.743 2,10 -0.43,1.886 -0.76,3.719 -1,5.5 0.14,1.301 0.81,2.134 2,2.5 -0.29,1.788 0.05,3.455 1,5 0.61,-0.124 0.94,-0.457 1,-1 -0.29,-2.235 0.04,-4.235 1,-6 0.19,3.505 1.19,3.838 3,1 -0.89,8.987 -1.05,17.987 -0.5,27 1.15,1.184 2.31,1.184 3.5,0 -0.29,1.149 -1.12,1.816 -2.5,2 -1.48,-0.592 -2.64,-0.592 -3.5,0 -1.42,-1.531 -2.09,-1.198 -2,1 -1.12,2.188 -1.12,4.521 0,7 -0.67,-0.333 -1.33,-0.667 -2,-1 -0.49,-0.973 -0.99,-1.973 -1.5,-3 -0.74,-15.053 -1.74,-30.053 -3,-45 -0.5,-0.5 -1,-1 -1.5,-1.5 -5.7,-0.367 -11.37,-1.034 -17,-2 -0.5,-0.5 -1,-1 -1.5,-1.5 -0.5,-3.986 -0.67,-7.986 -0.5,-12 5.73,1.18 11.39,2.68 17,4.5 1.19,2.748 2.19,5.581 3,8.5 1.31,-3.152 0.98,-6.152 -1,-9 -5.4,-2.6 -11.06,-4.434 -17,-5.5 -3.17,-3.656 -3.84,-7.822 -2,-12.5 4.75,-1.157 9.42,-0.824 14,1 z"
         id="path275" />
    </g>
    <g
       id="g276"
       style="clip-rule:evenodd;fill-rule:evenodd;image-rendering:optimizeQuality;shape-rendering:geometricPrecision;text-rendering:geometricPrecision"
       transform="matrix(0.26458333,0,0,0.26458333,-286.53957,-103.20337)">
      <path
         style="opacity:1"
         fill="#1a3b61"
         d="m 1351.5,492.5 c -9.36,8.694 -18.36,17.694 -27,27 -0.11,-0.617 -0.44,-1.117 -1,-1.5 1.19,-1.353 2.52,-2.52 4,-3.5 -0.21,-0.586 -0.54,-1.086 -1,-1.5 4.54,-4.042 8.54,-8.542 12,-13.5 4.33,-5 9,-9.667 14,-14 5.47,-2.221 9.14,-6.221 11,-12 0.67,-1.333 1.67,-2.333 3,-3 2.74,0.127 4.74,-1.04 6,-3.5 -1.02,-2.545 -2.19,-5.045 -3.5,-7.5 -2.73,-2.464 -5.89,-3.297 -9.5,-2.5 -4.87,7.706 -11.21,13.872 -19,18.5 5.7,-5.703 11.04,-11.703 16,-18 1.66,-1.47 3.66,-2.137 6,-2 8.26,1.098 11.76,5.764 10.5,14 -7.64,7.318 -14.8,14.984 -21.5,23 z"
         id="path276" />
    </g>
    <g
       id="g277"
       style="clip-rule:evenodd;fill-rule:evenodd;image-rendering:optimizeQuality;shape-rendering:geometricPrecision;text-rendering:geometricPrecision"
       transform="matrix(0.26458333,0,0,0.26458333,-286.53957,-103.20337)">
      <path
         style="opacity:1"
         fill="#22568f"
         d="m 1227.5,490.5 c 0,3 0,6 0,9 0,4 0,8 0,12 -3.27,-0.519 -4.61,-2.519 -4,-6 0.85,-7.309 1.18,-14.642 1,-22 1,0 2,0 3,0 0,2.333 0,4.667 0,7 z"
         id="path277" />
    </g>
    <g
       id="g278"
       style="clip-rule:evenodd;fill-rule:evenodd;image-rendering:optimizeQuality;shape-rendering:geometricPrecision;text-rendering:geometricPrecision"
       transform="matrix(0.26458333,0,0,0.26458333,-286.53957,-103.20337)">
      <path
         style="opacity:1"
         fill="#133d6c"
         d="m 1216.5,482.5 c 2.42,4.247 4.09,3.914 5,-1 3.46,-2.877 6.63,-2.544 9.5,1 0.19,2.536 0.69,4.869 1.5,7 0.33,0 0.67,0 1,0 -1,1.183 -1.84,2.516 -2.5,4 -0.72,-1.556 -1.89,-2.556 -3.5,-3 0,-2.333 0,-4.667 0,-7 -1,0 -2,0 -3,0 0.18,7.358 -0.15,14.691 -1,22 -0.61,3.481 0.73,5.481 4,6 0,-4 0,-8 0,-12 1,0 2,0 3,0 0,-1.333 0,-2.667 0,-4 1,0 2,0 3,0 -0.35,3.102 0.32,5.935 2,8.5 -0.92,0.85 -0.92,1.85 0,3 -1.95,1.693 -1.95,3.693 0,6 -1.75,4.088 -4.59,7.254 -8.5,9.5 -1.17,-1.833 -2.67,-3.333 -4.5,-4.5 0.03,-1.526 0.53,-3.026 1.5,-4.5 -1.39,1.315 -2.39,0.981 -3,-1 -0.81,2.401 -1.64,2.234 -2.5,-0.5 -1.52,-1.009 -3.19,-1.509 -5,-1.5 -1.29,-1.137 -2.29,-2.47 -3,-4 2.33,-2.084 3.5,-4.751 3.5,-8 2.57,-0.97 4.73,-2.304 6.5,-4 0.16,-1.373 -0.01,-2.707 -0.5,-4 -3.16,-1.074 -5.49,-3.074 -7,-6 -0.76,-8.101 -0.26,-16.101 1.5,-24 -1.05,-0.149 -2.05,0.017 -3,0.5 -2.78,7.194 -4.12,14.694 -4,22.5 -0.33,0 -0.67,0 -1,0 -1.59,-7.992 -0.42,-15.992 3.5,-24 2.29,-1.408 4.46,-1.241 6.5,0.5 -1.27,2.044 -0.94,3.878 1,5.5 -2.89,5.664 -3.72,11.664 -2.5,18 0.38,-0.556 0.88,-0.889 1.5,-1 z"
         id="path278" />
    </g>
    <g
       id="g279"
       style="clip-rule:evenodd;fill-rule:evenodd;image-rendering:optimizeQuality;shape-rendering:geometricPrecision;text-rendering:geometricPrecision"
       transform="matrix(0.26458333,0,0,0.26458333,-286.53957,-103.20337)">
      <path
         style="opacity:1"
         fill="#658096"
         d="m 1217.5,499.5 c -0.97,2.107 -1.3,4.441 -1,7 -1.3,-2.524 -1.3,-5.191 0,-8 0.61,0.124 0.94,0.457 1,1 z"
         id="path279" />
    </g>
    <g
       id="g281"
       style="clip-rule:evenodd;fill-rule:evenodd;image-rendering:optimizeQuality;shape-rendering:geometricPrecision;text-rendering:geometricPrecision"
       transform="matrix(0.26458333,0,0,0.26458333,-286.53957,-103.20337)">
      <path
         style="opacity:1"
         fill="#daf0f5"
         d="m 1217.5,499.5 c 1,0.333 1.67,1 2,2 0.3,2.559 -0.03,4.893 -1,7 -1,-0.333 -1.67,-1 -2,-2 -0.3,-2.559 0.03,-4.893 1,-7 z"
         id="path281" />
    </g>
    <g
       id="g282"
       style="clip-rule:evenodd;fill-rule:evenodd;image-rendering:optimizeQuality;shape-rendering:geometricPrecision;text-rendering:geometricPrecision"
       transform="matrix(0.26458333,0,0,0.26458333,-286.53957,-103.20337)">
      <path
         style="opacity:1"
         fill="#83a4be"
         d="m 1219.5,501.5 c 1.3,2.524 1.3,5.191 0,8 -0.61,-0.124 -0.94,-0.457 -1,-1 0.97,-2.107 1.3,-4.441 1,-7 z"
         id="path282" />
    </g>
    <g
       id="g289"
       style="clip-rule:evenodd;fill-rule:evenodd;image-rendering:optimizeQuality;shape-rendering:geometricPrecision;text-rendering:geometricPrecision"
       transform="matrix(0.26458333,0,0,0.26458333,-286.53957,-103.20337)">
      <path
         style="opacity:1"
         fill="#0b3c72"
         d="m 1272.5,421.5 c 2.25,4.098 4.75,8.098 7.5,12 0.69,2.222 1.53,4.389 2.5,6.5 -0.07,0.765 -0.4,1.265 -1,1.5 -1.91,-7.328 -5.91,-13.161 -12,-17.5 -13.9,-1.437 -22.06,4.729 -24.5,18.5 4.48,-2.722 9.31,-3.555 14.5,-2.5 1.54,4.38 1.21,8.546 -1,12.5 -6.3,1.126 -12.3,3.126 -18,6 -1.79,2.904 -2.12,5.904 -1,9 1,-2 2,-4 3,-6 0.67,2 1.33,4 2,6 3.27,-1.085 6.61,-1.252 10,-0.5 -2.33,1.043 -4.67,1.876 -7,2.5 -3.08,-0.24 -6.08,0.093 -9,1 -0.99,14.99 -1.82,29.99 -2.5,45 -0.75,2.409 -1.91,4.575 -3.5,6.5 5.81,7.686 12.31,14.853 19.5,21.5 2.87,3.683 5.04,7.683 6.5,12 3.33,0 6.67,0 10,0 1.96,-5.91 4.96,-11.244 9,-16 0.67,0 1,-0.333 1,-1 5.65,-4.979 10.98,-10.312 16,-16 -0.36,-0.683 -0.7,-1.35 -1,-2 2.42,0.308 4.76,-0.026 7,-1 1.85,-2.018 3.85,-3.851 6,-5.5 2.51,-2.933 4.84,-5.933 7,-9 0.19,-1.891 0.52,-3.725 1,-5.5 -0.13,0.876 0.2,1.543 1,2 1.31,-0.813 2.48,-1.813 3.5,-3 0.5,-5.991 0.67,-11.991 0.5,-18 0.74,2.86 1.41,5.86 2,9 -0.67,1.601 -1,3.101 -1,4.5 0.5,1.158 1.33,1.991 2.5,2.5 4.21,-3.776 8.21,-7.776 12,-12 1.69,-3.167 3.52,-6.167 5.5,-9 7.79,-4.628 14.13,-10.794 19,-18.5 3.61,-0.797 6.77,0.036 9.5,2.5 1.31,2.455 2.48,4.955 3.5,7.5 -1.26,2.46 -3.26,3.627 -6,3.5 4.23,-5.578 2.73,-9.245 -4.5,-11 -27.57,28.241 -55.24,56.574 -83,85 -2.77,4.539 -5.27,9.206 -7.5,14 0.39,1.22 1.22,1.887 2.5,2 6.83,-2.995 12.66,-7.328 17.5,-13 0.33,2 0.67,4 1,6 -4.57,4.059 -9.57,7.559 -15,10.5 -1.9,1.808 -2.4,3.975 -1.5,6.5 2.43,1.13 4.59,2.63 6.5,4.5 1.33,0.667 2.67,0.667 4,0 3.34,-5.859 5.34,-12.026 6,-18.5 -0.29,3.285 0.38,6.285 2,9 -0.26,1.478 0.07,2.811 1,4 1.92,1.112 3.59,2.446 5,4 -3.41,-0.559 -6.25,-2.226 -8.5,-5 -3.12,4.474 -4.29,9.474 -3.5,15 -5.01,-4.003 -10.67,-6.67 -17,-8 1.39,3.775 3.05,7.441 5,11 -1.1,1.105 -1.77,2.438 -2,4 -2.39,-3.098 -4.56,-6.431 -6.5,-10 -2.42,-2.18 -5.08,-2.513 -8,-1 -2.08,5.161 -4.91,9.828 -8.5,14 -0.77,0.763 -1.27,1.763 -1.5,3 -0.33,-0.667 -0.67,-1.333 -1,-2 -3.42,2.069 -6.58,4.402 -9.5,7 3.6,-4.774 7.43,-9.44 11.5,-14 1.33,-2.667 2.67,-5.333 4,-8 0.8,-1.759 0.63,-3.426 -0.5,-5 -4.17,2.25 -8.17,4.75 -12,7.5 -11.53,12.693 -23.53,24.86 -36,36.5 2.05,-4.221 5.05,-7.721 9,-10.5 -0.33,-0.333 -0.67,-0.667 -1,-1 2.37,-3.226 5.37,-5.392 9,-6.5 -0.15,-1.052 0.02,-2.052 0.5,-3 0.33,0.333 0.67,0.667 1,1 3.05,-5.339 6.55,-10.339 10.5,-15 1.6,1.012 2.93,0.512 4,-1.5 -1.33,-1 -1.33,-2 0,-3 -1.59,-3.491 -3.26,-6.991 -5,-10.5 -0.68,0.363 -1.35,0.696 -2,1 0.26,-1.478 -0.07,-2.811 -1,-4 -1.74,1.538 -3.74,2.538 -6,3 2.38,-2.891 5.05,-5.724 8,-8.5 -0.67,-0.667 -1.33,-1.333 -2,-2 1.84,-2.756 2.51,-5.59 2,-8.5 -1.53,-3.467 -4.2,-5.467 -8,-6 1.16,-1.45 0.66,-2.45 -1.5,-3 -0.5,-2.018 -1,-4.018 -1.5,-6 5.77,6.271 11.77,12.438 18,18.5 4.52,3.595 9.52,6.095 15,7.5 -1.41,-5.477 -3.91,-10.477 -7.5,-15 -11.76,-11.589 -23.26,-23.255 -34.5,-35 1.81,-0.009 3.48,0.491 5,1.5 0.86,2.734 1.69,2.901 2.5,0.5 0.61,1.981 1.61,2.315 3,1 -0.97,1.474 -1.47,2.974 -1.5,4.5 1.83,1.167 3.33,2.667 4.5,4.5 3.91,-2.246 6.75,-5.412 8.5,-9.5 -1.95,-2.307 -1.95,-4.307 0,-6 -0.92,-1.15 -0.92,-2.15 0,-3 -1.68,-2.565 -2.35,-5.398 -2,-8.5 -1,0 -2,0 -3,0 0,1.333 0,2.667 0,4 -1,0 -2,0 -3,0 0,-3 0,-6 0,-9 1.61,0.444 2.78,1.444 3.5,3 0.66,-1.484 1.5,-2.817 2.5,-4 -0.29,-6.091 0.04,-12.091 1,-18 1.56,-7.853 3.06,-15.853 4.5,-24 0.33,0.333 0.67,0.667 1,1 2.76,-10.18 7.59,-19.18 14.5,-27 6,-1.333 12,-1.333 18,0 z"
         id="path289" />
    </g>
    <g
       id="g290"
       style="clip-rule:evenodd;fill-rule:evenodd;image-rendering:optimizeQuality;shape-rendering:geometricPrecision;text-rendering:geometricPrecision"
       transform="matrix(0.26458333,0,0,0.26458333,-286.53957,-103.20337)">
      <path
         style="opacity:1"
         fill="#b6d7ea"
         d="m 1231.5,511.5 c 1.43,3.754 0.1,5.921 -4,6.5 -1.05,-1.716 -0.39,-2.716 2,-3 0.81,-1.113 1.47,-2.279 2,-3.5 z"
         id="path290" />
    </g>
    <g
       id="g291"
       style="clip-rule:evenodd;fill-rule:evenodd;image-rendering:optimizeQuality;shape-rendering:geometricPrecision;text-rendering:geometricPrecision"
       transform="matrix(0.26458333,0,0,0.26458333,-286.53957,-103.20337)">
      <path
         style="opacity:1"
         fill="#b8d6eb"
         d="m 1295.5,512.5 c -0.09,0.996 0.25,1.829 1,2.5 3.75,-0.035 4.41,0.965 2,3 -2.66,-0.152 -4.33,-1.652 -5,-4.5 -0.09,-2.198 0.58,-2.531 2,-1 z"
         id="path291" />
    </g>
    <g
       id="g292"
       style="clip-rule:evenodd;fill-rule:evenodd;image-rendering:optimizeQuality;shape-rendering:geometricPrecision;text-rendering:geometricPrecision"
       transform="matrix(0.26458333,0,0,0.26458333,-286.53957,-103.20337)">
      <path
         style="opacity:1"
         fill="#205c9c"
         d="m 1258.5,468.5 c 0.09,0.996 -0.25,1.829 -1,2.5 -1.27,0.309 -2.43,0.809 -3.5,1.5 -4.5,1 -8.84,1 -13,0 -0.03,1.68 -0.2,3.18 -0.5,4.5 0.79,4.272 2.46,7.605 5,10 -2.27,0.932 -4.27,2.266 -6,4 1.39,0.956 2.06,2.289 2,4 -1.7,2.055 -3.03,4.388 -4,7 0.26,1.261 0.93,2.261 2,3 0.05,3.443 -0.12,6.943 -0.5,10.5 2.35,-2.014 4.35,-4.347 6,-7 0.33,0.333 0.67,0.667 1,1 1.88,-2.884 4.38,-5.051 7.5,-6.5 -0.33,-0.333 -0.67,-0.667 -1,-1 4.14,0.42 7.97,0.253 11.5,-0.5 0.27,-2.09 -0.73,-3.424 -3,-4 -0.33,0.333 -0.67,0.667 -1,1 -0.27,-1.601 -0.77,-3.101 -1.5,-4.5 0.33,-0.167 0.67,-0.333 1,-0.5 1.49,0.033 2.82,0.533 4,1.5 -2.29,0.984 -1.96,1.817 1,2.5 0.69,1.774 1.52,3.441 2.5,5 1.41,-1.168 2.57,-0.835 3.5,1 1.02,-0.355 1.69,-1.022 2,-2 1.42,0.25 2.42,1.083 3,2.5 -1.04,3.287 -0.04,5.954 3,8 2.05,6.116 3.55,12.282 4.5,18.5 2.9,-2.447 5.57,-5.114 8,-8 0.48,-0.948 0.65,-1.948 0.5,-3 0.67,0.333 1.33,0.667 2,1 0.3,0.65 0.64,1.317 1,2 -5.02,5.688 -10.35,11.021 -16,16 -0.5,-2.25 0.16,-4.417 2,-6.5 -0.64,-4.268 -1.31,-8.435 -2,-12.5 0.27,-1.599 -0.07,-2.932 -1,-4 -1.35,-3.199 -3.35,-6.032 -6,-8.5 -18.45,-3.615 -26.28,3.885 -23.5,22.5 0.78,3.029 1.95,5.862 3.5,8.5 -0.14,0.772 -0.48,1.439 -1,2 1.59,2.095 3.59,3.595 6,4.5 0.89,0.61 1.89,0.943 3,1 0.24,2.473 1.57,4.14 4,5 4.43,-3.02 8.1,-6.686 11,-11 1.19,-1.153 2.19,-1.153 3,0 -4.04,4.756 -7.04,10.09 -9,16 -3.33,0 -6.67,0 -10,0 -1.46,-4.317 -3.63,-8.317 -6.5,-12 -7.19,-6.647 -13.69,-13.814 -19.5,-21.5 1.59,-1.925 2.75,-4.091 3.5,-6.5 0.68,-15.01 1.51,-30.01 2.5,-45 2.92,-0.907 5.92,-1.24 9,-1 3.71,0.077 7.38,-0.256 11,-1 z"
         id="path292" />
    </g>
    <g
       id="g293"
       style="clip-rule:evenodd;fill-rule:evenodd;image-rendering:optimizeQuality;shape-rendering:geometricPrecision;text-rendering:geometricPrecision"
       transform="matrix(0.26458333,0,0,0.26458333,-286.53957,-103.20337)">
      <path
         style="opacity:1"
         fill="#374f7d"
         d="m 1277.5,515.5 c -3.01,-2.502 -6.01,-5.002 -9,-7.5 -5.16,-0.919 -9.99,-0.086 -14.5,2.5 -0.89,2.633 -2.39,4.8 -4.5,6.5 -1.06,3.789 -1.23,7.623 -0.5,11.5 2.8,5.277 5.3,10.61 7.5,16 -2.41,-0.905 -4.41,-2.405 -6,-4.5 0.52,-0.561 0.86,-1.228 1,-2 -1.55,-2.638 -2.72,-5.471 -3.5,-8.5 -2.78,-18.615 5.05,-26.115 23.5,-22.5 2.65,2.468 4.65,5.301 6,8.5 z"
         id="path293" />
    </g>
    <g
       id="g294"
       style="clip-rule:evenodd;fill-rule:evenodd;image-rendering:optimizeQuality;shape-rendering:geometricPrecision;text-rendering:geometricPrecision"
       transform="matrix(0.26458333,0,0,0.26458333,-286.53957,-103.20337)">
      <path
         style="opacity:1"
         fill="#205995"
         d="m 1298.5,483.5 c 1.62,-0.14 2.79,0.527 3.5,2 0.8,8.412 0.63,16.745 -0.5,25 -1.19,1.184 -2.35,1.184 -3.5,0 -0.55,-9.013 -0.39,-18.013 0.5,-27 z"
         id="path294" />
    </g>
    <g
       id="g295"
       style="clip-rule:evenodd;fill-rule:evenodd;image-rendering:optimizeQuality;shape-rendering:geometricPrecision;text-rendering:geometricPrecision"
       transform="matrix(0.26458333,0,0,0.26458333,-286.53957,-103.20337)">
      <path
         style="opacity:1"
         fill="#1860aa"
         d="m 1272.5,501.5 c -0.31,0.978 -0.98,1.645 -2,2 -0.93,-1.835 -2.09,-2.168 -3.5,-1 -0.98,-1.559 -1.81,-3.226 -2.5,-5 -2.96,-0.683 -3.29,-1.516 -1,-2.5 -1.18,-0.967 -2.51,-1.467 -4,-1.5 -0.33,0.167 -0.67,0.333 -1,0.5 0.73,1.399 1.23,2.899 1.5,4.5 0.33,-0.333 0.67,-0.667 1,-1 2.27,0.576 3.27,1.91 3,4 -3.53,0.753 -7.36,0.92 -11.5,0.5 0.33,0.333 0.67,0.667 1,1 -3.12,1.449 -5.62,3.616 -7.5,6.5 -0.33,-0.333 -0.67,-0.667 -1,-1 -1.65,2.653 -3.65,4.986 -6,7 0.38,-3.557 0.55,-7.057 0.5,-10.5 -1.07,-0.739 -1.74,-1.739 -2,-3 0.97,-2.612 2.3,-4.945 4,-7 0.06,-1.711 -0.61,-3.044 -2,-4 1.73,-1.734 3.73,-3.068 6,-4 -2.54,-2.395 -4.21,-5.728 -5,-10 0.3,-1.32 0.47,-2.82 0.5,-4.5 4.16,1 8.5,1 13,0 1.07,-0.691 2.23,-1.191 3.5,-1.5 0.75,-0.671 1.09,-1.504 1,-2.5 1.19,0.548 2.36,0.881 3.5,1 0.68,-1.284 0.52,-2.451 -0.5,-3.5 0.92,-0.374 1.75,-0.874 2.5,-1.5 0.32,1.561 1.15,2.728 2.5,3.5 -0.33,0.333 -0.67,0.667 -1,1 1.97,0.495 3.97,0.662 6,0.5 -0.04,1.859 0.79,3.192 2.5,4 1,-2.667 2,-2.667 3,0 0.56,-0.522 1.23,-0.855 2,-1 3.8,0.426 4.96,2.259 3.5,5.5 2.46,1.512 2.46,2.846 0,4 1.71,1.133 2.21,2.633 1.5,4.5 -0.67,-2.667 -1.33,-2.667 -2,0 -0.25,-1.124 -0.75,-2.124 -1.5,-3 -1.39,1.315 -2.39,0.981 -3,-1 1.17,-1.084 2.5,-1.917 4,-2.5 0.02,-2.036 -0.31,-3.87 -1,-5.5 -1.02,2.528 -2.18,2.528 -3.5,0 -0.98,1.481 -2.15,2.815 -3.5,4 1.19,0.054 2.52,0.387 4,1 -0.21,0.586 -0.54,1.086 -1,1.5 -2.78,0.417 -4.78,-0.75 -6,-3.5 -0.33,0.333 -0.67,0.667 -1,1 -1.96,1.348 -2.13,2.681 -0.5,4 1.91,-2.832 2.74,-2.499 2.5,1 -1.32,-0.17 -2.49,0.163 -3.5,1 -0.39,-0.928 -1.05,-1.595 -2,-2 -1.4,1.896 -3.23,3.229 -5.5,4 0.75,0.236 1.58,0.57 2.5,1 1.09,-0.793 2.25,-1.46 3.5,-2 3.2,2.211 4.53,5.044 4,8.5 2.39,0.691 2.39,1.691 0,3 2.67,1 2.67,2 0,3 0.92,0.278 1.58,0.778 2,1.5 z"
         id="path295" />
    </g>
    <g
       id="g296"
       style="clip-rule:evenodd;fill-rule:evenodd;image-rendering:optimizeQuality;shape-rendering:geometricPrecision;text-rendering:geometricPrecision"
       transform="matrix(0.26458333,0,0,0.26458333,-286.53957,-103.20337)">
      <path
         style="opacity:1"
         fill="#123966"
         d="m 1322.5,471.5 c -0.33,7.032 0,14.032 1,21 0.61,-0.124 0.94,-0.457 1,-1 4.97,-5.307 9.97,-10.64 15,-16 0.33,0 0.67,0 1,0 -1.98,2.833 -3.81,5.833 -5.5,9 -3.79,4.224 -7.79,8.224 -12,12 -1.17,-0.509 -2,-1.342 -2.5,-2.5 0,-1.399 0.33,-2.899 1,-4.5 -0.59,-3.14 -1.26,-6.14 -2,-9 -0.62,-5.681 -1.46,-11.348 -2.5,-17 -1.05,-1.607 -2.55,-2.273 -4.5,-2 1.49,6.935 2.32,13.935 2.5,21 -1.85,4.355 -5.01,7.021 -9.5,8 -0.29,1.788 0.05,3.455 1,5 2.16,-1.912 4.49,-3.579 7,-5 0.98,2.928 1.32,5.928 1,9 -0.48,1.775 -0.81,3.609 -1,5.5 -2.16,3.067 -4.49,6.067 -7,9 -2.15,1.649 -4.15,3.482 -6,5.5 -2.24,0.974 -4.58,1.308 -7,1 -1.12,-2.479 -1.12,-4.812 0,-7 0.67,2.848 2.34,4.348 5,4.5 2.41,-2.035 1.75,-3.035 -2,-3 -0.75,-0.671 -1.09,-1.504 -1,-2.5 0.86,-0.592 2.02,-0.592 3.5,0 1.38,-0.184 2.21,-0.851 2.5,-2 1.13,-8.255 1.3,-16.588 0.5,-25 -0.71,-1.473 -1.88,-2.14 -3.5,-2 2.9,-2.906 4.9,-2.239 6,2 1.11,1.276 2.11,1.276 3,0 3.4,-0.231 5.4,-2.064 6,-5.5 -2.37,-6.694 -3.03,-13.527 -2,-20.5 1.64,-1.181 3.3,-1.181 5,0 1.79,4.173 3.13,8.507 4,13 0.68,-0.363 1.35,-0.696 2,-1 z"
         id="path296" />
    </g>
    <g
       id="g297"
       style="clip-rule:evenodd;fill-rule:evenodd;image-rendering:optimizeQuality;shape-rendering:geometricPrecision;text-rendering:geometricPrecision"
       transform="matrix(0.26458333,0,0,0.26458333,-286.53957,-103.20337)">
      <path
         style="opacity:1"
         fill="#9ebad2"
         d="m 1306.5,501.5 c -0.3,2.559 0.03,4.893 1,7 -0.28,0.789 -0.78,1.456 -1.5,2 -0.8,-3.196 -0.64,-6.196 0.5,-9 z"
         id="path297" />
    </g>
    <g
       id="g298"
       style="clip-rule:evenodd;fill-rule:evenodd;image-rendering:optimizeQuality;shape-rendering:geometricPrecision;text-rendering:geometricPrecision"
       transform="matrix(0.26458333,0,0,0.26458333,-286.53957,-103.20337)">
      <path
         style="opacity:1"
         fill="#e0f3f6"
         d="m 1309.5,499.5 c 0.96,1.765 1.29,3.765 1,6 -0.67,1.333 -1.67,2.333 -3,3 -0.97,-2.107 -1.3,-4.441 -1,-7 0.79,-0.901 1.79,-1.568 3,-2 z"
         id="path298" />
    </g>
    <g
       id="g299"
       style="clip-rule:evenodd;fill-rule:evenodd;image-rendering:optimizeQuality;shape-rendering:geometricPrecision;text-rendering:geometricPrecision"
       transform="matrix(0.26458333,0,0,0.26458333,-286.53957,-103.20337)">
      <path
         style="opacity:1"
         fill="#7e9ab1"
         d="m 1309.5,499.5 c 0.06,-0.543 0.39,-0.876 1,-1 1.3,2.473 1.3,4.807 0,7 0.29,-2.235 -0.04,-4.235 -1,-6 z"
         id="path299" />
    </g>
    <g
       id="g300"
       style="clip-rule:evenodd;fill-rule:evenodd;image-rendering:optimizeQuality;shape-rendering:geometricPrecision;text-rendering:geometricPrecision"
       transform="matrix(0.26458333,0,0,0.26458333,-286.53957,-103.20337)">
      <path
         style="opacity:1"
         fill="#205a96"
         d="m 1319.5,480.5 c 0.17,6.009 0,12.009 -0.5,18 -1.02,1.187 -2.19,2.187 -3.5,3 -0.8,-0.457 -1.13,-1.124 -1,-2 0.32,-3.072 -0.02,-6.072 -1,-9 -2.51,1.421 -4.84,3.088 -7,5 -0.95,-1.545 -1.29,-3.212 -1,-5 4.49,-0.979 7.65,-3.645 9.5,-8 -0.18,-7.065 -1.01,-14.065 -2.5,-21 1.95,-0.273 3.45,0.393 4.5,2 1.04,5.652 1.88,11.319 2.5,17 z"
         id="path300" />
    </g>
    <g
       id="g301"
       style="clip-rule:evenodd;fill-rule:evenodd;image-rendering:optimizeQuality;shape-rendering:geometricPrecision;text-rendering:geometricPrecision"
       transform="matrix(0.26458333,0,0,0.26458333,-286.53957,-103.20337)">
      <path
         style="opacity:1"
         fill="#37546f"
         d="m 1322.5,471.5 c 0.67,6.667 1.33,13.333 2,20 -0.06,0.543 -0.39,0.876 -1,1 -1,-6.968 -1.33,-13.968 -1,-21 z"
         id="path301" />
    </g>
    <g
       id="g302"
       style="clip-rule:evenodd;fill-rule:evenodd;image-rendering:optimizeQuality;shape-rendering:geometricPrecision;text-rendering:geometricPrecision"
       transform="matrix(0.26458333,0,0,0.26458333,-286.53957,-103.20337)">
      <path
         style="opacity:1"
         fill="#6b8ba9"
         d="m 1292.5,475.5 c 0.67,4.333 1.33,8.667 2,13 -0.06,0.543 -0.39,0.876 -1,1 -0.95,-1.545 -1.29,-3.212 -1,-5 0,-3 0,-6 0,-9 z"
         id="path302" />
    </g>
    <g
       id="g303"
       style="clip-rule:evenodd;fill-rule:evenodd;image-rendering:optimizeQuality;shape-rendering:geometricPrecision;text-rendering:geometricPrecision"
       transform="matrix(0.26458333,0,0,0.26458333,-286.53957,-103.20337)">
      <path
         style="opacity:1"
         fill="#1a3754"
         d="m 1307.5,485.5 c -0.89,1.276 -1.89,1.276 -3,0 -1.1,-4.239 -3.1,-4.906 -6,-2 -1.81,2.838 -2.81,2.505 -3,-1 1.55,-2.754 3.89,-3.587 7,-2.5 1.75,1.936 3.42,3.77 5,5.5 z"
         id="path303" />
    </g>
    <g
       id="g304"
       style="clip-rule:evenodd;fill-rule:evenodd;image-rendering:optimizeQuality;shape-rendering:geometricPrecision;text-rendering:geometricPrecision"
       transform="matrix(0.26458333,0,0,0.26458333,-286.53957,-103.20337)">
      <path
         style="opacity:1"
         fill="#d5e7ef"
         d="m 1308.5,466.5 c 1.94,5.397 2.44,11.064 1.5,17 -0.99,0.566 -1.83,1.233 -2.5,2 -1.58,-1.73 -3.25,-3.564 -5,-5.5 -3.11,-1.087 -5.45,-0.254 -7,2.5 -0.96,1.765 -1.29,3.765 -1,6 -0.67,-4.333 -1.33,-8.667 -2,-13 0,-1 0,-2 0,-3 0,-1 0,-2 0,-3 0.75,2.639 1.75,5.306 3,8 3.3,0.829 6.64,1.496 10,2 1.77,0.066 2.77,-0.768 3,-2.5 -0.55,-3.49 -0.55,-6.99 0,-10.5 z"
         id="path304" />
    </g>
    <g
       id="g305"
       style="clip-rule:evenodd;fill-rule:evenodd;image-rendering:optimizeQuality;shape-rendering:geometricPrecision;text-rendering:geometricPrecision"
       transform="matrix(0.26458333,0,0,0.26458333,-286.53957,-103.20337)">
      <path
         style="opacity:1"
         fill="#133253"
         d="m 1292.5,472.5 c 0,1 0,2 0,3 0,3 0,6 0,9 -1.19,-0.366 -1.86,-1.199 -2,-2.5 0.24,-1.781 0.57,-3.614 1,-5.5 -1.05,-3.257 -1.72,-6.59 -2,-10 0.62,-0.111 1.12,-0.444 1.5,-1 0.19,2.536 0.69,4.869 1.5,7 z"
         id="path305" />
    </g>
    <g
       id="g306"
       style="clip-rule:evenodd;fill-rule:evenodd;image-rendering:optimizeQuality;shape-rendering:geometricPrecision;text-rendering:geometricPrecision"
       transform="matrix(0.26458333,0,0,0.26458333,-286.53957,-103.20337)">
      <path
         style="opacity:1"
         fill="#294666"
         d="m 1322.5,471.5 c -0.65,0.304 -1.32,0.637 -2,1 -0.87,-4.493 -2.21,-8.827 -4,-13 -1.7,-1.181 -3.36,-1.181 -5,0 -1.03,6.973 -0.37,13.806 2,20.5 -0.6,3.436 -2.6,5.269 -6,5.5 0.67,-0.767 1.51,-1.434 2.5,-2 0.94,-5.936 0.44,-11.603 -1.5,-17 -0.29,-3.254 0.37,-6.254 2,-9 3.63,-1.635 6.8,-0.968 9.5,2 1.28,3.914 2.12,7.914 2.5,12 z"
         id="path306" />
    </g>
    <g
       id="g307"
       style="clip-rule:evenodd;fill-rule:evenodd;image-rendering:optimizeQuality;shape-rendering:geometricPrecision;text-rendering:geometricPrecision"
       transform="matrix(0.26458333,0,0,0.26458333,-286.53957,-103.20337)">
      <path
         style="opacity:1"
         fill="#184c7e"
         d="m 1268.5,457.5 c 5.29,-0.021 9.95,1.646 14,5 0.81,1.571 1.14,3.238 1,5 -4.27,0.255 -8.6,-0.245 -13,-1.5 -1.81,-2.481 -2.48,-5.315 -2,-8.5 z"
         id="path307" />
    </g>
    <g
       id="g308"
       style="clip-rule:evenodd;fill-rule:evenodd;image-rendering:optimizeQuality;shape-rendering:geometricPrecision;text-rendering:geometricPrecision"
       transform="matrix(0.26458333,0,0,0.26458333,-286.53957,-103.20337)">
      <path
         style="opacity:1"
         fill="#184f82"
         d="m 1255.5,440.5 c 1,0 2,0 3,0 0.28,3.277 -0.05,6.443 -1,9.5 -5.54,1.964 -11.04,3.798 -16.5,5.5 -0.8,-3.221 -0.3,-6.221 1.5,-9 4.23,-2.402 8.57,-4.402 13,-6 z"
         id="path308" />
    </g>
    <g
       id="g310"
       style="clip-rule:evenodd;fill-rule:evenodd;image-rendering:optimizeQuality;shape-rendering:geometricPrecision;text-rendering:geometricPrecision"
       transform="matrix(0.26458333,0,0,0.26458333,-286.53957,-103.20337)">
      <path
         style="opacity:1"
         fill="#1c5ea1"
         d="m 1366.5,470.5 c -1.33,0.667 -2.33,1.667 -3,3 -4.38,3.374 -8.04,7.374 -11,12 -5,4.333 -9.67,9 -14,14 -13.11,12.442 -25.77,25.108 -38,38 -3.24,3.12 -6.24,6.453 -9,10 -4.84,5.672 -10.67,10.005 -17.5,13 -1.28,-0.113 -2.11,-0.78 -2.5,-2 2.23,-4.794 4.73,-9.461 7.5,-14 27.76,-28.426 55.43,-56.759 83,-85 7.23,1.755 8.73,5.422 4.5,11 z"
         id="path310" />
    </g>
    <g
       id="g311"
       style="clip-rule:evenodd;fill-rule:evenodd;image-rendering:optimizeQuality;shape-rendering:geometricPrecision;text-rendering:geometricPrecision"
       transform="matrix(0.26458333,0,0,0.26458333,-286.53957,-103.20337)">
      <path
         style="opacity:1"
         fill="#4f3a50"
         d="m 1277.5,515.5 c 0.93,1.068 1.27,2.401 1,4 0.43,11.406 -3.9,20.406 -13,27 -2.14,1.308 -4.14,0.975 -6,-1 -1.11,-0.057 -2.11,-0.39 -3,-1 -2.2,-5.39 -4.7,-10.723 -7.5,-16 -0.73,-3.877 -0.56,-7.711 0.5,-11.5 2.11,-1.7 3.61,-3.867 4.5,-6.5 4.51,-2.586 9.34,-3.419 14.5,-2.5 2.99,2.498 5.99,4.998 9,7.5 z"
         id="path311" />
    </g>
    <g
       id="g312"
       style="clip-rule:evenodd;fill-rule:evenodd;image-rendering:optimizeQuality;shape-rendering:geometricPrecision;text-rendering:geometricPrecision"
       transform="matrix(0.26458333,0,0,0.26458333,-286.53957,-103.20337)">
      <path
         style="opacity:1"
         fill="#824b50"
         d="m 1271.5,537.5 c 0.33,-2 0.67,-4 1,-6 -2.75,-1.686 -6.08,-2.686 -10,-3 6.05,-0.073 8.21,-3.073 6.5,-9 -6.57,-4.94 -10.07,-3.274 -10.5,5 -0.96,-1.765 -1.29,-3.765 -1,-6 -2.04,-0.354 -3.87,-0.354 -5.5,0 -0.5,3.317 -0.67,6.65 -0.5,10 -2.49,-14.989 3.84,-20.489 19,-16.5 4.29,1.78 6.29,4.946 6,9.5 0.08,5.994 -1.59,11.328 -5,16 z"
         id="path312" />
    </g>
    <g
       id="g313"
       style="clip-rule:evenodd;fill-rule:evenodd;image-rendering:optimizeQuality;shape-rendering:geometricPrecision;text-rendering:geometricPrecision"
       transform="matrix(0.26458333,0,0,0.26458333,-286.53957,-103.20337)">
      <path
         style="opacity:1"
         fill="#64393b"
         d="m 1262.5,528.5 c -2.33,-0.333 -3.67,-1.667 -4,-4 0.43,-8.274 3.93,-9.94 10.5,-5 1.71,5.927 -0.45,8.927 -6.5,9 z"
         id="path313" />
    </g>
    <g
       id="g314"
       style="clip-rule:evenodd;fill-rule:evenodd;image-rendering:optimizeQuality;shape-rendering:geometricPrecision;text-rendering:geometricPrecision"
       transform="matrix(0.26458333,0,0,0.26458333,-286.53957,-103.20337)">
      <path
         style="opacity:1"
         fill="#f8eded"
         d="m 1261.5,519.5 c 4.66,-0.485 5.99,1.348 4,5.5 -4.77,0.81 -6.11,-1.023 -4,-5.5 z"
         id="path314" />
    </g>
    <g
       id="g315"
       style="clip-rule:evenodd;fill-rule:evenodd;image-rendering:optimizeQuality;shape-rendering:geometricPrecision;text-rendering:geometricPrecision"
       transform="matrix(0.26458333,0,0,0.26458333,-286.53957,-103.20337)">
      <path
         style="opacity:1"
         fill="#8e5154"
         d="m 1258.5,524.5 c 0.33,2.333 1.67,3.667 4,4 3.92,0.314 7.25,1.314 10,3 -0.33,2 -0.67,4 -1,6 -2.38,2.723 -4.38,5.723 -6,9 -2.4,0.107 -4.24,-0.893 -5.5,-3 -3.87,-4.405 -6.7,-9.405 -8.5,-15 -0.17,-3.35 0,-6.683 0.5,-10 1.63,-0.354 3.46,-0.354 5.5,0 -0.29,2.235 0.04,4.235 1,6 z"
         id="path315" />
    </g>
    <g
       id="g319"
       style="clip-rule:evenodd;fill-rule:evenodd;image-rendering:optimizeQuality;shape-rendering:geometricPrecision;text-rendering:geometricPrecision"
       transform="matrix(0.26458333,0,0,0.26458333,-286.53957,-103.20337)">
      <path
         style="opacity:1"
         fill="#1d5fa1"
         d="m 1210.5,506.5 c 0.71,1.53 1.71,2.863 3,4 11.24,11.745 22.74,23.411 34.5,35 3.59,4.523 6.09,9.523 7.5,15 -5.48,-1.405 -10.48,-3.905 -15,-7.5 -6.23,-6.062 -12.23,-12.229 -18,-18.5 -0.33,0 -0.67,0 -1,0 -20.54,-22.385 -41.38,-44.719 -62.5,-67 -0.67,-1.333 -0.67,-2.667 0,-4 1.71,-3.08 4.21,-4.246 7.5,-3.5 14.93,15.422 29.59,30.922 44,46.5 z"
         id="path319" />
    </g>
    <g
       id="g322"
       style="clip-rule:evenodd;fill-rule:evenodd;image-rendering:optimizeQuality;shape-rendering:geometricPrecision;text-rendering:geometricPrecision"
       transform="matrix(0.26458333,0,0,0.26458333,-286.53957,-103.20337)">
      <path
         style="opacity:1"
         fill="#3f517c"
         d="m 1278.5,519.5 c 0.69,4.065 1.36,8.232 2,12.5 -1.84,2.083 -2.5,4.25 -2,6.5 0,0.667 -0.33,1 -1,1 -0.81,-1.153 -1.81,-1.153 -3,0 -2.9,4.314 -6.57,7.98 -11,11 -2.43,-0.86 -3.76,-2.527 -4,-5 1.86,1.975 3.86,2.308 6,1 9.1,-6.594 13.43,-15.594 13,-27 z"
         id="path322" />
    </g>
    <g
       id="g328"
       style="clip-rule:evenodd;fill-rule:evenodd;image-rendering:optimizeQuality;shape-rendering:geometricPrecision;text-rendering:geometricPrecision"
       transform="matrix(0.26458333,0,0,0.26458333,-286.53957,-103.20337)">
      <path
         style="opacity:1"
         fill="#0d3c70"
         d="m 1338.5,499.5 c -3.46,4.958 -7.46,9.458 -12,13.5 0.46,0.414 0.79,0.914 1,1.5 -1.48,0.98 -2.81,2.147 -4,3.5 0.56,0.383 0.89,0.883 1,1.5 -0.33,0.667 -0.67,1.333 -1,2 -0.33,0 -0.67,0 -1,0 -0.31,-1.238 -0.81,-1.238 -1.5,0 -0.17,0.833 -0.33,1.667 -0.5,2.5 0.91,24.222 1.24,48.389 1,72.5 -0.67,0.667 -1.33,1.333 -2,2 0.33,-24.342 0,-48.676 -1,-73 -0.98,0.477 -1.81,1.143 -2.5,2 -0.5,16.33 -0.67,32.663 -0.5,49 -1.37,0.157 -2.71,-0.01 -4,-0.5 -2.4,-1.853 -4.74,-3.686 -7,-5.5 3.07,0.856 5.91,2.19 8.5,4 0.56,-9.538 1.06,-18.704 1.5,-27.5 -0.18,-4.619 -1.18,-8.786 -3,-12.5 -0.6,-0.639 -1.43,-0.972 -2.5,-1 -2.69,1.762 -5.52,3.095 -8.5,4 12.23,-12.892 24.89,-25.558 38,-38 z"
         id="path328" />
    </g>
    <g
       id="g329"
       style="clip-rule:evenodd;fill-rule:evenodd;image-rendering:optimizeQuality;shape-rendering:geometricPrecision;text-rendering:geometricPrecision"
       transform="matrix(0.26458333,0,0,0.26458333,-286.53957,-103.20337)">
      <path
         style="opacity:1"
         fill="#0f3158"
         d="m 1322.5,521.5 c 0.33,25.741 0,50.741 -1,75 0.24,-24.111 -0.09,-48.278 -1,-72.5 0.17,-0.833 0.33,-1.667 0.5,-2.5 0.69,-1.238 1.19,-1.238 1.5,0 z"
         id="path329" />
    </g>
    <g
       id="g334"
       style="clip-rule:evenodd;fill-rule:evenodd;image-rendering:optimizeQuality;shape-rendering:geometricPrecision;text-rendering:geometricPrecision"
       transform="matrix(0.26458333,0,0,0.26458333,-286.53957,-103.20337)">
      <path
         style="opacity:1"
         fill="#334e6b"
         d="m 1322.5,521.5 c 0.33,0 0.67,0 1,0 0.17,26.002 0,52.002 -0.5,78 -2.2,2.625 -5.03,3.625 -8.5,3 -2.19,-0.874 -3.19,-2.541 -3,-5 0.93,1.642 2.93,2.642 6,3 1.21,-0.247 1.88,-0.914 2,-2 0.67,-0.667 1.33,-1.333 2,-2 1,-24.259 1.33,-49.259 1,-75 z"
         id="path334" />
    </g>
    <g
       id="g350"
       style="clip-rule:evenodd;fill-rule:evenodd;image-rendering:optimizeQuality;shape-rendering:geometricPrecision;text-rendering:geometricPrecision"
       transform="matrix(0.26458333,0,0,0.26458333,-286.53957,-103.20337)">
      <path
         style="opacity:1"
         fill="#153c68"
         d="m 1311.5,534.5 c 1.82,3.714 2.82,7.881 3,12.5 -0.44,8.796 -0.94,17.962 -1.5,27.5 -2.59,-1.81 -5.43,-3.144 -8.5,-4 -3.09,-2.213 -6.43,-3.879 -10,-5 -1.62,-2.715 -2.29,-5.715 -2,-9 0,-1 0,-2 0,-3 -0.33,-2 -0.67,-4 -1,-6 2.76,-3.547 5.76,-6.88 9,-10 2.98,-0.905 5.81,-2.238 8.5,-4 1.07,0.028 1.9,0.361 2.5,1 z"
         id="path350" />
    </g>
    <g
       id="g351"
       style="clip-rule:evenodd;fill-rule:evenodd;image-rendering:optimizeQuality;shape-rendering:geometricPrecision;text-rendering:geometricPrecision"
       transform="matrix(0.26458333,0,0,0.26458333,-286.53957,-103.20337)">
      <path
         style="opacity:1"
         fill="#718ba0"
         d="m 1309.5,535.5 c 0.34,-0.838 1.01,-1.172 2,-1 0.33,11.686 0,23.352 -1,35 -0.61,-0.124 -0.94,-0.457 -1,-1 1.33,-11 1.33,-22 0,-33 z"
         id="path351" />
    </g>
    <g
       id="g352"
       style="clip-rule:evenodd;fill-rule:evenodd;image-rendering:optimizeQuality;shape-rendering:geometricPrecision;text-rendering:geometricPrecision"
       transform="matrix(0.26458333,0,0,0.26458333,-286.53957,-103.20337)">
      <path
         style="opacity:1"
         fill="#ddecf1"
         d="m 1309.5,535.5 c 1.33,11 1.33,22 0,33 -3.52,-1.259 -6.52,-3.259 -9,-6 -3.37,-0.531 -5.04,-2.531 -5,-6 0.31,-3.032 0.81,-6.032 1.5,-9 4.04,-4.204 8.2,-8.204 12.5,-12 z"
         id="path352" />
    </g>
    <g
       id="g353"
       style="clip-rule:evenodd;fill-rule:evenodd;image-rendering:optimizeQuality;shape-rendering:geometricPrecision;text-rendering:geometricPrecision"
       transform="matrix(0.26458333,0,0,0.26458333,-286.53957,-103.20337)">
      <path
         style="opacity:1"
         fill="#f9faf9"
         d="m 1300.5,562.5 c -1.2,-2.386 -2.2,-4.886 -3,-7.5 0.17,-1.167 0.33,-2.333 0.5,-3.5 3.33,-3.333 6.67,-6.667 10,-10 1.46,6.867 1.96,13.701 1.5,20.5 -1.64,4.057 -2.98,4.223 -4,0.5 -1.67,0 -3.33,0 -5,0 z"
         id="path353" />
    </g>
    <g
       id="g359"
       style="clip-rule:evenodd;fill-rule:evenodd;image-rendering:optimizeQuality;shape-rendering:geometricPrecision;text-rendering:geometricPrecision"
       transform="matrix(0.26458333,0,0,0.26458333,-286.53957,-103.20337)">
      <path
         style="opacity:1"
         fill="#234062"
         d="m 1196.5,513.5 c 1.76,0.377 3.42,1.044 5,2 1.46,2.63 3.13,5.13 5,7.5 -0.61,1.231 -0.94,2.564 -1,4 0.77,3.48 1.44,6.98 2,10.5 -1.45,5.894 -2.12,11.894 -2,18 0.7,12.538 0.7,25.038 0,37.5 -0.74,6.089 1.92,8.589 8,7.5 0.12,-5.759 1.12,-11.092 3,-16 0.17,5.011 0,10.011 -0.5,15 -3.64,3.472 -7.47,3.805 -11.5,1 -0.66,-26.764 -1.32,-53.431 -2,-80 -2,-2.333 -4,-4.667 -6,-7 z"
         id="path359" />
    </g>
    <g
       id="g360"
       style="clip-rule:evenodd;fill-rule:evenodd;image-rendering:optimizeQuality;shape-rendering:geometricPrecision;text-rendering:geometricPrecision"
       transform="matrix(0.26458333,0,0,0.26458333,-286.53957,-103.20337)">
      <path
         style="opacity:1"
         fill="#193a60"
         d="m 1221.5,534.5 c 0.33,0 0.67,0 1,0 0.5,1.982 1,3.982 1.5,6 2.16,0.55 2.66,1.55 1.5,3 3.8,0.533 6.47,2.533 8,6 0.51,2.91 -0.16,5.744 -2,8.5 0.67,0.667 1.33,1.333 2,2 -2.95,2.776 -5.62,5.609 -8,8.5 -0.62,-0.111 -1.12,-0.444 -1.5,-1 -2.22,3.106 -5.22,4.773 -9,5 -0.43,-4.176 -0.93,-8.342 -1.5,-12.5 0.79,-10.594 0.96,-20.761 0.5,-30.5 0.32,1.801 0.98,2.134 2,1 1.02,2.428 2.85,3.762 5.5,4 z"
         id="path360" />
    </g>
    <g
       id="g361"
       style="clip-rule:evenodd;fill-rule:evenodd;image-rendering:optimizeQuality;shape-rendering:geometricPrecision;text-rendering:geometricPrecision"
       transform="matrix(0.26458333,0,0,0.26458333,-286.53957,-103.20337)">
      <path
         style="opacity:1"
         fill="#839bb1"
         d="m 1217.5,535.5 c -0.99,11.154 -1.33,22.488 -1,34 -0.69,-4.918 -1.02,-10.585 -1,-17 0.33,-6 0.67,-12 1,-18 0.61,0.124 0.94,0.457 1,1 z"
         id="path361" />
    </g>
    <g
       id="g362"
       style="clip-rule:evenodd;fill-rule:evenodd;image-rendering:optimizeQuality;shape-rendering:geometricPrecision;text-rendering:geometricPrecision"
       transform="matrix(0.26458333,0,0,0.26458333,-286.53957,-103.20337)">
      <path
         style="opacity:1"
         fill="#ddecf2"
         d="m 1217.5,535.5 c 3.03,2.36 5.69,5.027 8,8 5.02,4.974 6.36,10.974 4,18 -0.92,0.627 -1.92,0.961 -3,1 -2.95,2.813 -6.28,5.146 -10,7 -0.33,-11.512 0.01,-22.846 1,-34 z"
         id="path362" />
    </g>
    <g
       id="g363"
       style="clip-rule:evenodd;fill-rule:evenodd;image-rendering:optimizeQuality;shape-rendering:geometricPrecision;text-rendering:geometricPrecision"
       transform="matrix(0.26458333,0,0,0.26458333,-286.53957,-103.20337)">
      <path
         style="opacity:1"
         fill="#f9faf9"
         d="m 1226.5,562.5 c -2.08,-0.028 -3.92,0.639 -5.5,2 -0.67,-1.333 -1.33,-1.333 -2,0 -1.59,-6.892 -1.92,-13.892 -1,-21 0.31,-0.808 0.81,-1.475 1.5,-2 3.85,2.347 6.35,5.68 7.5,10 0.23,2.595 0.73,5.095 1.5,7.5 -1.32,0.816 -1.99,1.983 -2,3.5 z"
         id="path363" />
    </g>
    <g
       id="g365"
       style="clip-rule:evenodd;fill-rule:evenodd;image-rendering:optimizeQuality;shape-rendering:geometricPrecision;text-rendering:geometricPrecision"
       transform="matrix(0.26458333,0,0,0.26458333,-286.53957,-103.20337)">
      <path
         style="opacity:1"
         fill="#cfe0ed"
         d="m 1202.5,520.5 c 0.68,26.569 1.34,53.236 2,80 -1.99,-26.312 -2.66,-52.979 -2,-80 z"
         id="path365" />
    </g>
    <g
       id="g366"
       style="clip-rule:evenodd;fill-rule:evenodd;image-rendering:optimizeQuality;shape-rendering:geometricPrecision;text-rendering:geometricPrecision"
       transform="matrix(0.26458333,0,0,0.26458333,-286.53957,-103.20337)">
      <path
         style="opacity:1"
         fill="#1c60a1"
         d="m 1234.5,553.5 c 5.2,4.855 11.03,8.855 17.5,12 0.8,1.759 0.63,3.426 -0.5,5 -3.26,2.962 -6.92,4.795 -11,5.5 -3.75,-7.066 -5.75,-14.566 -6,-22.5 z"
         id="path366" />
    </g>
    <g
       id="g367"
       style="clip-rule:evenodd;fill-rule:evenodd;image-rendering:optimizeQuality;shape-rendering:geometricPrecision;text-rendering:geometricPrecision"
       transform="matrix(0.26458333,0,0,0.26458333,-286.53957,-103.20337)">
      <path
         style="opacity:1"
         fill="#1c5794"
         d="m 1261.5,559.5 c 7.63,0.478 10.46,4.478 8.5,12 -4,4 -8,4 -12,0 -2.55,-5.16 -1.38,-9.16 3.5,-12 z"
         id="path367" />
    </g>
    <g
       id="g370"
       style="clip-rule:evenodd;fill-rule:evenodd;image-rendering:optimizeQuality;shape-rendering:geometricPrecision;text-rendering:geometricPrecision"
       transform="matrix(0.26458333,0,0,0.26458333,-286.53957,-103.20337)">
      <path
         style="opacity:1"
         fill="#1d5c9f"
         d="m 1292.5,553.5 c 0,1 0,2 0,3 -0.66,6.474 -2.66,12.641 -6,18.5 -1.33,0.667 -2.67,0.667 -4,0 -1.91,-1.87 -4.07,-3.37 -6.5,-4.5 -0.9,-2.525 -0.4,-4.692 1.5,-6.5 5.43,-2.941 10.43,-6.441 15,-10.5 z"
         id="path370" />
    </g>
    <g
       id="g377"
       style="clip-rule:evenodd;fill-rule:evenodd;image-rendering:optimizeQuality;shape-rendering:geometricPrecision;text-rendering:geometricPrecision"
       transform="matrix(0.26458333,0,0,0.26458333,-286.53957,-103.20337)">
      <path
         style="opacity:1"
         fill="#215a95"
         d="m 1225.5,568.5 c 2.26,-0.462 4.26,-1.462 6,-3 0.93,1.189 1.26,2.522 1,4 -7.22,3.714 -14.05,8.048 -20.5,13 -0.5,5.323 -0.67,10.656 -0.5,16 -1,0 -2,0 -3,0 -0.33,-24.009 0,-48.009 1,-72 0.75,0.876 1.25,1.876 1.5,3 0.5,15.663 0.67,31.33 0.5,47 5.28,-1.64 9.95,-4.306 14,-8 z"
         id="path377" />
    </g>
    <g
       id="g392"
       style="clip-rule:evenodd;fill-rule:evenodd;image-rendering:optimizeQuality;shape-rendering:geometricPrecision;text-rendering:geometricPrecision"
       transform="matrix(0.26458333,0,0,0.26458333,-286.53957,-103.20337)">
      <path
         style="opacity:1"
         fill="#1e5c9b"
         d="m 1288.5,583.5 c 2.33,2.667 4.67,5.333 7,8 4.67,5 9.33,10 14,15 -2.73,-1.83 -5.73,-3.33 -9,-4.5 -0.81,-1.972 -2.14,-3.472 -4,-4.5 0.21,-0.586 0.54,-1.086 1,-1.5 -1.48,-0.98 -2.81,-2.147 -4,-3.5 -2.56,0.935 -3.23,0.101 -2,-2.5 -0.95,-0.617 -1.78,-0.451 -2.5,0.5 -0.33,-0.667 -0.67,-1.333 -1,-2 0.23,2.074 0.06,4.074 -0.5,6 0.53,0.692 1.19,1.192 2,1.5 -0.33,0.333 -0.67,0.667 -1,1 2.17,2.463 4.33,4.963 6.5,7.5 0.33,-0.667 0.67,-1.333 1,-2 0.44,2.179 1.44,2.845 3,2 0.49,1.049 0.33,2.049 -0.5,3 1.35,1.024 2.02,2.357 2,4 1,0 2,0 3,0 0,1 0,2 0,3 -1.1,-1.1 -2.44,-1.767 -4,-2 -7.67,-8.667 -15.33,-17.333 -23,-26 -1.95,-3.559 -3.61,-7.225 -5,-11 6.33,1.33 11.99,3.997 17,8 z"
         id="path392" />
    </g>
    <g
       id="g394"
       style="clip-rule:evenodd;fill-rule:evenodd;image-rendering:optimizeQuality;shape-rendering:geometricPrecision;text-rendering:geometricPrecision"
       transform="matrix(0.26458333,0,0,0.26458333,-286.53957,-103.20337)">
      <path
         style="opacity:1"
         fill="#e9f3f6"
         d="m 1235.5,583.5 c -9.69,9.027 -19.03,18.36 -28,28 -0.75,-2.066 -0.08,-3.9 2,-5.5 -2.58,-1.076 -4.25,-2.909 -5,-5.5 4.03,2.805 7.86,2.472 11.5,-1 0.5,-4.989 0.67,-9.989 0.5,-15 5.89,-3.531 11.72,-7.197 17.5,-11 1.56,1.943 2.72,4.11 3.5,6.5 -0.48,1.303 -1.14,2.469 -2,3.5 z"
         id="path394" />
    </g>
    <g
       id="g404"
       style="clip-rule:evenodd;fill-rule:evenodd;image-rendering:optimizeQuality;shape-rendering:geometricPrecision;text-rendering:geometricPrecision"
       transform="matrix(0.26458333,0,0,0.26458333,-286.53957,-103.20337)">
      <path
         style="opacity:1"
         fill="#205a97"
         d="m 1319.5,598.5 c -1.77,1.381 -3.27,1.048 -4.5,-1 -0.33,-5.333 -0.67,-10.667 -1,-16 -4.15,-3.321 -8.65,-5.988 -13.5,-8 -1.41,-1.554 -3.08,-2.888 -5,-4 -0.93,-1.189 -1.26,-2.522 -1,-4 3.57,1.121 6.91,2.787 10,5 2.26,1.814 4.6,3.647 7,5.5 1.29,0.49 2.63,0.657 4,0.5 -0.17,-16.337 0,-32.67 0.5,-49 0.69,-0.857 1.52,-1.523 2.5,-2 1,24.324 1.33,48.658 1,73 z"
         id="path404" />
    </g>
    <g
       id="g406"
       style="clip-rule:evenodd;fill-rule:evenodd;image-rendering:optimizeQuality;shape-rendering:geometricPrecision;text-rendering:geometricPrecision"
       transform="matrix(0.26458333,0,0,0.26458333,-286.53957,-103.20337)">
      <path
         style="opacity:1"
         fill="#183c67"
         d="m 1300.5,573.5 c 4.85,2.012 9.35,4.679 13.5,8 0.33,5.333 0.67,10.667 1,16 1.23,2.048 2.73,2.381 4.5,1 -0.12,1.086 -0.79,1.753 -2,2 -3.07,-0.358 -5.07,-1.358 -6,-3 0.32,-4.532 -0.02,-8.866 -1,-13 -5.97,-3.656 -11.97,-7.322 -18,-11 -0.82,1.787 -1.82,3.454 -3,5 6.72,7.047 13.38,14.047 20,21 1,1.667 2.33,3 4,4 3.38,3.376 6.38,7.043 9,11 -4.94,-3.062 -9.44,-6.729 -13.5,-11 -0.48,-0.948 -0.65,-1.948 -0.5,-3 -4,-1.156 -7,-3.656 -9,-7.5 -1.24,-0.791 -2.58,-1.291 -4,-1.5 -2.33,-2.667 -4.67,-5.333 -7,-8 -0.79,-5.526 0.38,-10.526 3.5,-15 2.25,2.774 5.09,4.441 8.5,5 z"
         id="path406" />
    </g>
    <g
       id="g407"
       style="clip-rule:evenodd;fill-rule:evenodd;image-rendering:optimizeQuality;shape-rendering:geometricPrecision;text-rendering:geometricPrecision"
       transform="matrix(0.26458333,0,0,0.26458333,-286.53957,-103.20337)">
      <path
         style="opacity:1"
         fill="#ecf5f7"
         d="m 1310.5,584.5 c 0.32,5.195 -0.01,10.195 -1,15 -6.62,-6.953 -13.28,-13.953 -20,-21 1.18,-1.546 2.18,-3.213 3,-5 6.03,3.678 12.03,7.344 18,11 z"
         id="path407" />
    </g>
    <g
       id="g411"
       style="clip-rule:evenodd;fill-rule:evenodd;image-rendering:optimizeQuality;shape-rendering:geometricPrecision;text-rendering:geometricPrecision"
       transform="matrix(0.26458333,0,0,0.26458333,-286.53957,-103.20337)">
      <path
         style="opacity:1"
         fill="#1c5fa4"
         d="m 1274.5,590.5 c 0.65,1.307 1.32,2.64 2,4 -1.69,2.054 -2.86,4.388 -3.5,7 -0.5,7.993 -0.67,15.993 -0.5,24 -6.27,-4.528 -10.61,-10.528 -13,-18 -1.72,2.823 -3.05,5.823 -4,9 -0.33,0 -0.67,0 -1,0 -0.06,-7.886 -1.06,-15.552 -3,-23 3.59,-4.172 6.42,-8.839 8.5,-14 2.92,-1.513 5.58,-1.18 8,1 1.94,3.569 4.11,6.902 6.5,10 z"
         id="path411" />
    </g>
    <g
       id="g413"
       style="clip-rule:evenodd;fill-rule:evenodd;image-rendering:optimizeQuality;shape-rendering:geometricPrecision;text-rendering:geometricPrecision"
       transform="matrix(0.26458333,0,0,0.26458333,-286.53957,-103.20337)">
      <path
         style="opacity:1"
         fill="#153c6b"
         d="m 1276.5,586.5 c 7.67,8.667 15.33,17.333 23,26 -1,0.086 -1.83,-0.248 -2.5,-1 -0.28,0.916 -0.78,1.582 -1.5,2 -1.33,-2 -3,-3.667 -5,-5 -3.3,-3.798 -6.8,-7.464 -10.5,-11 -0.33,0.333 -0.67,0.667 -1,1 -1.68,9.548 -2.52,19.215 -2.5,29 -1.65,-0.16 -2.99,-0.826 -4,-2 -0.17,-8.007 0,-16.007 0.5,-24 0.64,-2.612 1.81,-4.946 3.5,-7 -0.68,-1.36 -1.35,-2.693 -2,-4 0.23,-1.562 0.9,-2.895 2,-4 z"
         id="path413" />
    </g>
    <g
       id="g419"
       style="clip-rule:evenodd;fill-rule:evenodd;image-rendering:optimizeQuality;shape-rendering:geometricPrecision;text-rendering:geometricPrecision"
       transform="matrix(0.26458333,0,0,0.26458333,-286.53957,-103.20337)">
      <path
         style="opacity:1"
         fill="#183c69"
         d="m 1251.5,593.5 c 1.94,7.448 2.94,15.114 3,23 -0.64,2.326 -1.98,3.993 -4,5 -0.23,-7.015 -0.73,-14.015 -1.5,-21 -2.5,-0.738 -4.34,0.262 -5.5,3 -15.64,16.306 -31.64,32.306 -48,48 -2.63,1.461 -5.13,3.127 -7.5,5 -0.46,-0.594 -0.63,-1.261 -0.5,-2 17.1,-17.86 34.44,-35.526 52,-53 2.92,-2.598 6.08,-4.931 9.5,-7 0.33,0.667 0.67,1.333 1,2 0.23,-1.237 0.73,-2.237 1.5,-3 z"
         id="path419" />
    </g>
    <g
       id="g425"
       style="clip-rule:evenodd;fill-rule:evenodd;image-rendering:optimizeQuality;shape-rendering:geometricPrecision;text-rendering:geometricPrecision"
       transform="matrix(0.26458333,0,0,0.26458333,-286.53957,-103.20337)">
      <path
         style="opacity:1"
         fill="#9fbbcf"
         d="m 1310.5,584.5 c 0.98,4.134 1.32,8.468 1,13 -0.19,2.459 0.81,4.126 3,5 -0.67,0 -1,0.333 -1,1 -1.67,-1 -3,-2.333 -4,-4 0.99,-4.805 1.32,-9.805 1,-15 z"
         id="path425" />
    </g>
    <g
       id="g432"
       style="clip-rule:evenodd;fill-rule:evenodd;image-rendering:optimizeQuality;shape-rendering:geometricPrecision;text-rendering:geometricPrecision"
       transform="matrix(0.26458333,0,0,0.26458333,-286.53957,-103.20337)">
      <path
         style="opacity:1"
         fill="#124073"
         d="m 1295.5,591.5 c 1.42,0.209 2.76,0.709 4,1.5 2,3.844 5,6.344 9,7.5 -0.15,1.052 0.02,2.052 0.5,3 4.06,4.271 8.56,7.938 13.5,11 4.6,5.775 9.43,11.441 14.5,17 0.82,1.323 1.98,1.989 3.5,2 -0.15,1.052 0.02,2.052 0.5,3 5.01,4.469 9.68,9.136 14,14 0.38,-0.556 0.88,-0.889 1.5,-1 1.64,2.306 3.64,4.306 6,6 3.33,3.667 6.67,7.333 10,11 -0.21,1.644 0.12,3.144 1,4.5 -1.81,4.138 -4.64,7.305 -8.5,9.5 -1.73,-0.474 -2.9,-1.474 -3.5,-3 4.57,0.444 7.57,-1.556 9,-6 -19.93,-21.929 -40.26,-43.596 -61,-65 -4.67,-5 -9.33,-10 -14,-15 z"
         id="path432" />
    </g>
    <g
       id="g436"
       style="clip-rule:evenodd;fill-rule:evenodd;image-rendering:optimizeQuality;shape-rendering:geometricPrecision;text-rendering:geometricPrecision"
       transform="matrix(0.26458333,0,0,0.26458333,-286.53957,-103.20337)">
      <path
         style="opacity:1"
         fill="#2b4765"
         d="m 1322.5,614.5 c 1.33,1 2.67,2 4,3 5.04,5.037 9.71,10.371 14,16 -1.52,-0.011 -2.68,-0.677 -3.5,-2 -5.07,-5.559 -9.9,-11.225 -14.5,-17 z"
         id="path436" />
    </g>
    <g
       id="g437"
       style="clip-rule:evenodd;fill-rule:evenodd;image-rendering:optimizeQuality;shape-rendering:geometricPrecision;text-rendering:geometricPrecision"
       transform="matrix(0.26458333,0,0,0.26458333,-286.53957,-103.20337)">
      <path
         style="opacity:1"
         fill="#5c8cbb"
         d="m 1272.5,625.5 c 1.01,1.174 2.35,1.84 4,2 -0.89,2.554 -1.22,5.221 -1,8 -1,0.333 -1.67,1 -2,2 -0.99,-0.172 -1.66,0.162 -2,1 -1,0.333 -1.67,1 -2,2 -4.9,3.912 -8.24,8.912 -10,15 -0.68,-0.743 -1.35,-1.409 -2,-2 -0.13,-1.716 -0.46,-3.383 -1,-5 -0.26,-10.67 -0.59,-21.336 -1,-32 0.95,-3.177 2.28,-6.177 4,-9 2.39,7.472 6.73,13.472 13,18 z"
         id="path437" />
    </g>
    <g
       id="g438"
       style="clip-rule:evenodd;fill-rule:evenodd;image-rendering:optimizeQuality;shape-rendering:geometricPrecision;text-rendering:geometricPrecision"
       transform="matrix(0.26458333,0,0,0.26458333,-286.53957,-103.20337)">
      <path
         style="opacity:1"
         fill="#1e61a5"
         d="m 1309.5,606.5 c 20.74,21.404 41.07,43.071 61,65 -1.43,4.444 -4.43,6.444 -9,6 -14.29,-16.629 -29.29,-32.629 -45,-48 -4.36,-5.025 -8.7,-10.025 -13,-15 0,-1 0,-2 0,-3 -1,0 -2,0 -3,0 0.02,-1.643 -0.65,-2.976 -2,-4 0.83,-0.951 0.99,-1.951 0.5,-3 -1.56,0.845 -2.56,0.179 -3,-2 -0.33,0.667 -0.67,1.333 -1,2 -2.17,-2.537 -4.33,-5.037 -6.5,-7.5 0.33,-0.333 0.67,-0.667 1,-1 -0.81,-0.308 -1.47,-0.808 -2,-1.5 0.56,-1.926 0.73,-3.926 0.5,-6 0.33,0.667 0.67,1.333 1,2 0.72,-0.951 1.55,-1.117 2.5,-0.5 -1.23,2.601 -0.56,3.435 2,2.5 1.19,1.353 2.52,2.52 4,3.5 -0.46,0.414 -0.79,0.914 -1,1.5 1.86,1.028 3.19,2.528 4,4.5 3.27,1.17 6.27,2.67 9,4.5 z"
         id="path438" />
    </g>
    <g
       id="g439"
       style="clip-rule:evenodd;fill-rule:evenodd;image-rendering:optimizeQuality;shape-rendering:geometricPrecision;text-rendering:geometricPrecision"
       transform="matrix(0.26458333,0,0,0.26458333,-286.53957,-103.20337)">
      <path
         style="opacity:1"
         fill="#1c3a62"
         d="m 1235.5,583.5 c -3.95,4.661 -7.45,9.661 -10.5,15 -0.33,-0.333 -0.67,-0.667 -1,-1 -0.48,0.948 -0.65,1.948 -0.5,3 -3.63,1.108 -6.63,3.274 -9,6.5 0.33,0.333 0.67,0.667 1,1 -3.95,2.779 -6.95,6.279 -9,10.5 -1.6,2.608 -3.6,4.941 -6,7 -1.81,-0.009 -3.48,0.491 -5,1.5 -9.28,8.441 -17.61,17.608 -25,27.5 -3.28,3.248 -6.94,5.914 -11,8 5.96,-7.299 12.3,-14.299 19,-21 9.37,-8.366 18.03,-17.366 26,-27 1.33,-0.667 2.33,-1.667 3,-3 8.97,-9.64 18.31,-18.973 28,-28 z"
         id="path439" />
    </g>
    <g
       id="g440"
       style="clip-rule:evenodd;fill-rule:evenodd;image-rendering:optimizeQuality;shape-rendering:geometricPrecision;text-rendering:geometricPrecision"
       transform="matrix(0.26458333,0,0,0.26458333,-286.53957,-103.20337)">
      <path
         style="opacity:1"
         fill="#0d4078"
         d="m 1299.5,612.5 c 1.56,0.233 2.9,0.9 4,2 4.3,4.975 8.64,9.975 13,15 -6.65,-4.646 -12.31,-10.312 -17,-17 z"
         id="path440" />
    </g>
    <g
       id="g442"
       style="clip-rule:evenodd;fill-rule:evenodd;image-rendering:optimizeQuality;shape-rendering:geometricPrecision;text-rendering:geometricPrecision"
       transform="matrix(0.26458333,0,0,0.26458333,-286.53957,-103.20337)">
      <path
         style="opacity:1"
         fill="#ddeaef"
         d="m 1204.5,614.5 c -7.97,9.634 -16.63,18.634 -26,27 -0.15,-1.052 0.02,-2.052 0.5,-3 7.44,-7.774 14.94,-15.607 22.5,-23.5 0.95,-0.483 1.95,-0.649 3,-0.5 z"
         id="path442" />
    </g>
    <g
       id="g445"
       style="clip-rule:evenodd;fill-rule:evenodd;image-rendering:optimizeQuality;shape-rendering:geometricPrecision;text-rendering:geometricPrecision"
       transform="matrix(0.26458333,0,0,0.26458333,-286.53957,-103.20337)">
      <path
         style="opacity:1"
         fill="#1c3e64"
         d="m 1299.5,612.5 c 4.69,6.688 10.35,12.354 17,17 0.54,1.617 0.87,3.284 1,5 1.32,-0.17 2.49,0.163 3.5,1 1.76,3.503 3.59,6.836 5.5,10 -10.31,-10.64 -20.64,-21.307 -31,-32 0.72,-0.418 1.22,-1.084 1.5,-2 0.67,0.752 1.5,1.086 2.5,1 z"
         id="path445" />
    </g>
    <g
       id="g446"
       style="clip-rule:evenodd;fill-rule:evenodd;image-rendering:optimizeQuality;shape-rendering:geometricPrecision;text-rendering:geometricPrecision"
       transform="matrix(0.26458333,0,0,0.26458333,-286.53957,-103.20337)">
      <path
         style="opacity:1"
         fill="#e2eff3"
         d="m 1290.5,608.5 c -4.06,-0.626 -7.23,-2.626 -9.5,-6 -0.69,0.525 -1.19,1.192 -1.5,2 0.83,5.231 1.16,10.398 1,15.5 -1.26,1.705 -1.6,3.372 -1,5 -0.85,2.417 -1.52,4.917 -2,7.5 -0.34,3.391 -0.01,6.557 1,9.5 -0.8,8.266 -1.47,16.6 -2,25 -0.2,2.352 0.47,4.352 2,6 6.28,1.092 12.62,1.758 19,2 5.13,1.818 7.47,5.485 7,11 -0.58,3.139 -1.58,6.139 -3,9 -1.29,0.49 -2.63,0.657 -4,0.5 1.19,-0.864 2.35,-1.864 3.5,-3 0.67,-4.333 0.67,-8.667 0,-13 -1.58,-1.361 -3.42,-2.028 -5.5,-2 -3.68,-1.75 -7.68,-2.417 -12,-2 -0.33,0 -0.67,0 -1,0 -2.11,-0.968 -4.44,-1.302 -7,-1 0,-9.667 0,-19.333 0,-29 0,-3.333 0,-6.667 0,-10 -0.22,-2.779 0.11,-5.446 1,-8 -0.02,-9.785 0.82,-19.452 2.5,-29 0.33,-0.333 0.67,-0.667 1,-1 3.7,3.536 7.2,7.202 10.5,11 z"
         id="path446" />
    </g>
    <g
       id="g447"
       style="clip-rule:evenodd;fill-rule:evenodd;image-rendering:optimizeQuality;shape-rendering:geometricPrecision;text-rendering:geometricPrecision"
       transform="matrix(0.26458333,0,0,0.26458333,-286.53957,-103.20337)">
      <path
         style="opacity:1"
         fill="#5d7897"
         d="m 1254.5,616.5 c 0.33,0 0.67,0 1,0 0.41,10.664 0.74,21.33 1,32 -0.67,-0.667 -1.33,-1.333 -2,-2 -1.1,-3.789 -1.76,-3.789 -2,0 -0.69,-8.234 -1.36,-16.567 -2,-25 2.02,-1.007 3.36,-2.674 4,-5 z"
         id="path447" />
    </g>
    <g
       id="g448"
       style="clip-rule:evenodd;fill-rule:evenodd;image-rendering:optimizeQuality;shape-rendering:geometricPrecision;text-rendering:geometricPrecision"
       transform="matrix(0.26458333,0,0,0.26458333,-286.53957,-103.20337)">
      <path
         style="opacity:1"
         fill="#e4f1f5"
         d="m 1326.5,617.5 c 1.37,-0.157 2.71,0.01 4,0.5 10.46,11.134 20.96,22.3 31.5,33.5 0.49,1.293 0.66,2.627 0.5,4 -2.36,-1.694 -4.36,-3.694 -6,-6 -5,-5.667 -10.33,-11 -16,-16 -4.29,-5.629 -8.96,-10.963 -14,-16 z"
         id="path448" />
    </g>
    <g
       id="g451"
       style="clip-rule:evenodd;fill-rule:evenodd;image-rendering:optimizeQuality;shape-rendering:geometricPrecision;text-rendering:geometricPrecision"
       transform="matrix(0.26458333,0,0,0.26458333,-286.53957,-103.20337)">
      <path
         style="opacity:1"
         fill="#254467"
         d="m 1340.5,633.5 c 5.67,5 11,10.333 16,16 -0.62,0.111 -1.12,0.444 -1.5,1 -4.32,-4.864 -8.99,-9.531 -14,-14 -0.48,-0.948 -0.65,-1.948 -0.5,-3 z"
         id="path451" />
    </g>
    <g
       id="g456"
       style="clip-rule:evenodd;fill-rule:evenodd;image-rendering:optimizeQuality;shape-rendering:geometricPrecision;text-rendering:geometricPrecision"
       transform="matrix(0.26458333,0,0,0.26458333,-286.53957,-103.20337)">
      <path
         style="opacity:1"
         fill="#153c6b"
         d="m 1316.5,629.5 c 15.71,15.371 30.71,31.371 45,48 -2.71,1.054 -4.71,0.054 -6,-3 -0.82,-0.886 -1.82,-1.219 -3,-1 -9.01,-9.006 -17.67,-18.34 -26,-28 -1.91,-3.164 -3.74,-6.497 -5.5,-10 -1.01,-0.837 -2.18,-1.17 -3.5,-1 -0.13,-1.716 -0.46,-3.383 -1,-5 z"
         id="path456" />
    </g>
    <g
       id="g457"
       style="clip-rule:evenodd;fill-rule:evenodd;image-rendering:optimizeQuality;shape-rendering:geometricPrecision;text-rendering:geometricPrecision"
       transform="matrix(0.26458333,0,0,0.26458333,-286.53957,-103.20337)">
      <path
         style="opacity:1"
         fill="#0f3c6e"
         d="m 1200.5,625.5 c -13.94,14.868 -28.11,29.535 -42.5,44 -0.24,4.175 1.59,7.175 5.5,9 7.35,-7.021 14.69,-14.021 22,-21 -1.8,2.908 -3.63,5.908 -5.5,9 -1.01,0.837 -2.18,1.17 -3.5,1 0.33,3 -1,4.333 -4,4 -1.04,3.806 -3.2,6.806 -6.5,9 -1.23,-1.115 -2.4,-1.115 -3.5,0 -2.23,-1.61 -4.56,-2.943 -7,-4 0.11,-0.617 0.44,-1.117 1,-1.5 -1.12,-0.839 -1.79,-2.006 -2,-3.5 1.42,-3.184 3.09,-6.184 5,-9 4.06,-2.086 7.72,-4.752 11,-8 7.39,-9.892 15.72,-19.059 25,-27.5 1.52,-1.009 3.19,-1.509 5,-1.5 z"
         id="path457" />
    </g>
    <g
       id="g458"
       style="clip-rule:evenodd;fill-rule:evenodd;image-rendering:optimizeQuality;shape-rendering:geometricPrecision;text-rendering:geometricPrecision"
       transform="matrix(0.26458333,0,0,0.26458333,-286.53957,-103.20337)">
      <path
         style="opacity:1"
         fill="#1c3c60"
         d="m 1254.5,646.5 c 0.2,5.388 0.86,10.721 2,16 -0.33,3.939 -0.49,7.939 -0.5,12 -0.28,-0.916 -0.78,-1.582 -1.5,-2 0.29,-2.235 -0.04,-4.235 -1,-6 -0.21,-6.674 -0.55,-13.341 -1,-20 0.24,-3.789 0.9,-3.789 2,0 z"
         id="path458" />
    </g>
    <g
       id="g459"
       style="clip-rule:evenodd;fill-rule:evenodd;image-rendering:optimizeQuality;shape-rendering:geometricPrecision;text-rendering:geometricPrecision"
       transform="matrix(0.26458333,0,0,0.26458333,-286.53957,-103.20337)">
      <path
         style="opacity:1"
         fill="#1e5fa0"
         d="m 1239.5,601.5 c -17.56,17.474 -34.9,35.14 -52,53 -1.41,0.473 -2.07,1.473 -2,3 -7.31,6.979 -14.65,13.979 -22,21 -3.91,-1.825 -5.74,-4.825 -5.5,-9 14.39,-14.465 28.56,-29.132 42.5,-44 2.4,-2.059 4.4,-4.392 6,-7 12.47,-11.64 24.47,-23.807 36,-36.5 3.83,-2.75 7.83,-5.25 12,-7.5 1.13,1.574 1.3,3.241 0.5,5 -1.33,2.667 -2.67,5.333 -4,8 -4.07,4.56 -7.9,9.226 -11.5,14 z"
         id="path459" />
    </g>
    <g
       id="g460"
       style="clip-rule:evenodd;fill-rule:evenodd;image-rendering:optimizeQuality;shape-rendering:geometricPrecision;text-rendering:geometricPrecision"
       transform="matrix(0.26458333,0,0,0.26458333,-286.53957,-103.20337)">
      <path
         style="opacity:1"
         fill="#1f3d5f"
         d="m 1195.5,651.5 c -8.77,9.943 -17.77,19.776 -27,29.5 -5.85,2.913 -10.18,1.413 -13,-4.5 2.44,1.057 4.77,2.39 7,4 1.1,-1.115 2.27,-1.115 3.5,0 3.3,-2.194 5.46,-5.194 6.5,-9 3,0.333 4.33,-1 4,-4 1.32,0.17 2.49,-0.163 3.5,-1 1.87,-3.092 3.7,-6.092 5.5,-9 -0.07,-1.527 0.59,-2.527 2,-3 -0.13,0.739 0.04,1.406 0.5,2 2.37,-1.873 4.87,-3.539 7.5,-5 z"
         id="path460" />
    </g>
    <g
       id="g461"
       style="clip-rule:evenodd;fill-rule:evenodd;image-rendering:optimizeQuality;shape-rendering:geometricPrecision;text-rendering:geometricPrecision"
       transform="matrix(0.26458333,0,0,0.26458333,-286.53957,-103.20337)">
      <path
         style="opacity:1"
         fill="#9db4c7"
         d="m 1275.5,645.5 c 0,9.667 0,19.333 0,29 2.56,-0.302 4.89,0.032 7,1 -2.67,0 -5.33,0 -8,0 -0.33,-10.181 0.01,-20.181 1,-30 z"
         id="path461" />
    </g>
    <g
       id="g463"
       style="clip-rule:evenodd;fill-rule:evenodd;image-rendering:optimizeQuality;shape-rendering:geometricPrecision;text-rendering:geometricPrecision"
       transform="matrix(0.26458333,0,0,0.26458333,-286.53957,-103.20337)">
      <path
         style="opacity:1"
         fill="#0e3d6f"
         d="m 1273.5,637.5 c -1.12,9.782 -1.12,19.449 0,29 -1.93,3.495 -1.93,6.828 0,10 8.84,0.497 17.51,1.83 26,4 0.34,3.66 -0.33,6.993 -2,10 0.55,-3.512 -0.11,-6.512 -2,-9 -5.67,-0.583 -11.33,-1.25 -17,-2 -1.83,0.085 -3.17,0.752 -4,2 -1.21,0.734 -2.54,1.067 -4,1 -0.11,-14.68 0.22,-29.347 1,-44 0.34,-0.838 1.01,-1.172 2,-1 z"
         id="path463" />
    </g>
    <g
       id="g464"
       style="clip-rule:evenodd;fill-rule:evenodd;image-rendering:optimizeQuality;shape-rendering:geometricPrecision;text-rendering:geometricPrecision"
       transform="matrix(0.26458333,0,0,0.26458333,-286.53957,-103.20337)">
      <path
         style="opacity:1"
         fill="#304864"
         d="m 1159.5,662.5 c -1.91,2.816 -3.58,5.816 -5,9 0.21,1.494 0.88,2.661 2,3.5 -0.56,0.383 -0.89,0.883 -1,1.5 -2.5,-1.686 -3.34,-4.019 -2.5,-7 1.67,-2.831 3.83,-5.164 6.5,-7 z"
         id="path464" />
    </g>
    <g
       id="g465"
       style="clip-rule:evenodd;fill-rule:evenodd;image-rendering:optimizeQuality;shape-rendering:geometricPrecision;text-rendering:geometricPrecision"
       transform="matrix(0.26458333,0,0,0.26458333,-286.53957,-103.20337)">
      <path
         style="opacity:1"
         fill="#b8ccda"
         d="m 1253.5,666.5 c 0.96,1.765 1.29,3.765 1,6 -0.06,1.109 -0.39,2.109 -1,3 -1.67,0 -3.33,0 -5,0 1.07,-0.934 2.4,-1.268 4,-1 -0.1,-2.737 0.23,-5.404 1,-8 z"
         id="path465" />
    </g>
    <g
       id="g467"
       style="clip-rule:evenodd;fill-rule:evenodd;image-rendering:optimizeQuality;shape-rendering:geometricPrecision;text-rendering:geometricPrecision"
       transform="matrix(0.26458333,0,0,0.26458333,-286.53957,-103.20337)">
      <path
         style="opacity:1"
         fill="#0e3d70"
         d="m 1254.5,646.5 c 0.67,0.667 1.33,1.333 2,2 0.54,1.617 0.87,3.284 1,5 0.84,11.987 1.51,23.987 2,36 0,11.667 0,23.333 0,35 -1.25,-0.077 -2.08,-0.744 -2.5,-2 -0.17,-8.51 -0.67,-16.843 -1.5,-25 0,-0.333 0,-0.667 0,-1 -6.03,-2.034 -12.36,-3.201 -19,-3.5 -2.15,-0.099 -3.82,-0.933 -5,-2.5 -2.33,-3.328 -2.33,-6.828 0,-10.5 7.4,-1.741 14.73,-3.241 22,-4.5 0.61,-0.891 0.94,-1.891 1,-3 0.72,0.418 1.22,1.084 1.5,2 0.01,-4.061 0.17,-8.061 0.5,-12 -1.14,-5.279 -1.8,-10.612 -2,-16 z"
         id="path467" />
    </g>
    <g
       id="g468"
       style="clip-rule:evenodd;fill-rule:evenodd;image-rendering:optimizeQuality;shape-rendering:geometricPrecision;text-rendering:geometricPrecision"
       transform="matrix(0.26458333,0,0,0.26458333,-286.53957,-103.20337)">
      <path
         style="opacity:1"
         fill="#a2b6c9"
         d="m 1283.5,675.5 c 4.32,-0.417 8.32,0.25 12,2 -4.18,-0.351 -8.18,-1.018 -12,-2 z"
         id="path468" />
    </g>
    <g
       id="g469"
       style="clip-rule:evenodd;fill-rule:evenodd;image-rendering:optimizeQuality;shape-rendering:geometricPrecision;text-rendering:geometricPrecision"
       transform="matrix(0.26458333,0,0,0.26458333,-286.53957,-103.20337)">
      <path
         style="opacity:1"
         fill="#264365"
         d="m 1275.5,635.5 c 0,3.333 0,6.667 0,10 -0.99,9.819 -1.33,19.819 -1,30 2.67,0 5.33,0 8,0 0.33,0 0.67,0 1,0 3.82,0.982 7.82,1.649 12,2 2.08,-0.028 3.92,0.639 5.5,2 0.67,4.333 0.67,8.667 0,13 -1.15,1.136 -2.31,2.136 -3.5,3 -6,0.333 -12,0.667 -18,1 0.76,-0.768 1.76,-1.268 3,-1.5 4.67,-0.333 9.33,-0.667 14,-1 0.56,-0.383 0.89,-0.883 1,-1.5 0,-0.667 0,-1.333 0,-2 1.67,-3.007 2.34,-6.34 2,-10 -8.49,-2.17 -17.16,-3.503 -26,-4 -1.93,-3.172 -1.93,-6.505 0,-10 -1.12,-9.551 -1.12,-19.218 0,-29 0.33,-1 1,-1.667 2,-2 z"
         id="path469" />
    </g>
    <g
       id="g470"
       style="clip-rule:evenodd;fill-rule:evenodd;image-rendering:optimizeQuality;shape-rendering:geometricPrecision;text-rendering:geometricPrecision"
       transform="matrix(0.26458333,0,0,0.26458333,-286.53957,-103.20337)">
      <path
         style="opacity:1"
         fill="#1c62a8"
         d="m 1269.5,640.5 c -0.66,4.651 -0.66,8.818 0,12.5 -1.18,2.719 -2.84,4.219 -5,4.5 3.33,1.048 4.83,3.382 4.5,7 0.67,11 0.67,22 0,33 -1,2.667 -2,5.333 -3,8 -1,-1.333 -2,-1.333 -3,0 -0.61,-1.566 -1.44,-2.9 -2.5,-4 0.32,-4.202 -0.02,-8.202 -1,-12 -0.49,-12.013 -1.16,-24.013 -2,-36 0.65,0.591 1.32,1.257 2,2 1.76,-6.088 5.1,-11.088 10,-15 z"
         id="path470" />
    </g>
    <g
       id="g471"
       style="clip-rule:evenodd;fill-rule:evenodd;image-rendering:optimizeQuality;shape-rendering:geometricPrecision;text-rendering:geometricPrecision"
       transform="matrix(0.26458333,0,0,0.26458333,-286.53957,-103.20337)">
      <path
         style="opacity:1"
         fill="#24405f"
         d="m 1372.5,666.5 c 2.96,6.691 0.96,11.858 -6,15.5 -2.47,0.706 -4.8,0.373 -7,-1 -2.54,-2.37 -4.87,-4.87 -7,-7.5 1.18,-0.219 2.18,0.114 3,1 1.29,3.054 3.29,4.054 6,3 0.6,1.526 1.77,2.526 3.5,3 3.86,-2.195 6.69,-5.362 8.5,-9.5 -0.88,-1.356 -1.21,-2.856 -1,-4.5 z"
         id="path471" />
    </g>
    <g
       id="g474"
       style="clip-rule:evenodd;fill-rule:evenodd;image-rendering:optimizeQuality;shape-rendering:geometricPrecision;text-rendering:geometricPrecision"
       transform="matrix(0.26458333,0,0,0.26458333,-286.53957,-103.20337)">
      <path
         style="opacity:1"
         fill="#1c5b9a"
         d="m 1231.5,690.5 c -0.28,-2.948 0.06,-5.781 1,-8.5 7.64,-1.413 15.3,-2.579 23,-3.5 0,4.667 0,9.333 0,14 -7.99,-0.718 -15.99,-1.384 -24,-2 z"
         id="path474" />
    </g>
    <g
       id="g475"
       style="clip-rule:evenodd;fill-rule:evenodd;image-rendering:optimizeQuality;shape-rendering:geometricPrecision;text-rendering:geometricPrecision"
       transform="matrix(0.26458333,0,0,0.26458333,-286.53957,-103.20337)">
      <path
         style="opacity:1"
         fill="#1f61a4"
         d="m 1295.5,681.5 c 0.9,2.891 1.24,5.891 1,9 -7.29,0.892 -14.62,1.226 -22,1 0,-3.333 0,-6.667 0,-10 0.83,-1.248 2.17,-1.915 4,-2 5.67,0.75 11.33,1.417 17,2 z"
         id="path475" />
    </g>
    <g
       id="g479"
       style="clip-rule:evenodd;fill-rule:evenodd;image-rendering:optimizeQuality;shape-rendering:geometricPrecision;text-rendering:geometricPrecision"
       transform="matrix(0.26458333,0,0,0.26458333,-286.53957,-103.20337)">
      <path
         style="opacity:1"
         fill="#294464"
         d="m 1248.5,675.5 c 1.67,0 3.33,0 5,0 -7.27,1.259 -14.6,2.759 -22,4.5 -2.33,3.672 -2.33,7.172 0,10.5 1.18,1.567 2.85,2.401 5,2.5 6.64,0.299 12.97,1.466 19,3.5 -7.37,0.116 -14.71,-0.384 -22,-1.5 -2.18,-0.163 -4.01,-0.996 -5.5,-2.5 -0.67,-4 -0.67,-8 0,-12 0.83,-0.833 1.67,-1.667 2.5,-2.5 5.96,-1.162 11.96,-1.995 18,-2.5 z"
         id="path479" />
    </g>
    <g
       id="g480"
       style="clip-rule:evenodd;fill-rule:evenodd;image-rendering:optimizeQuality;shape-rendering:geometricPrecision;text-rendering:geometricPrecision"
       transform="matrix(0.26458333,0,0,0.26458333,-286.53957,-103.20337)">
      <path
         style="opacity:1"
         fill="#124680"
         d="m 1274.5,681.5 c 0,3.333 0,6.667 0,10 7.38,0.226 14.71,-0.108 22,-1 0.24,-3.109 -0.1,-6.109 -1,-9 1.89,2.488 2.55,5.488 2,9 0,0.667 0,1.333 0,2 -7.7,0.503 -15.36,1.337 -23,2.5 -1.74,2.192 -2.9,4.692 -3.5,7.5 -0.5,7.659 -0.67,15.326 -0.5,23 -3.74,2.168 -7.41,1.834 -11,-1 0,-11.667 0,-23.333 0,-35 0.98,3.798 1.32,7.798 1,12 -0.33,7.696 0,15.362 1,23 2.58,0.893 5.25,1.226 8,1 0.17,-1.322 -0.16,-2.489 -1,-3.5 1.16,-13.084 1.83,-26.251 2,-39.5 1.46,0.067 2.79,-0.266 4,-1 z"
         id="path480" />
    </g>
    <g
       id="g481"
       style="clip-rule:evenodd;fill-rule:evenodd;image-rendering:optimizeQuality;shape-rendering:geometricPrecision;text-rendering:geometricPrecision"
       transform="matrix(0.26458333,0,0,0.26458333,-286.53957,-103.20337)">
      <path
         style="opacity:1"
         fill="#e6f1f5"
         d="m 1250.5,621.5 c 0.64,8.433 1.31,16.766 2,25 0.45,6.659 0.79,13.326 1,20 -0.77,2.596 -1.1,5.263 -1,8 -1.6,-0.268 -2.93,0.066 -4,1 -6.04,0.505 -12.04,1.338 -18,2.5 -0.83,0.833 -1.67,1.667 -2.5,2.5 -0.67,4 -0.67,8 0,12 1.49,1.504 3.32,2.337 5.5,2.5 7.29,1.116 14.63,1.616 22,1.5 0,0.333 0,0.667 0,1 -0.17,9.339 0,18.673 0.5,28 1.09,1.193 1.93,2.527 2.5,4 -2.52,-0.348 -4.35,-1.681 -5.5,-4 -0.6,-5.987 -0.43,-11.82 0.5,-17.5 -0.16,-2.637 -0.82,-5.137 -2,-7.5 -4.43,-1.398 -8.93,-2.398 -13.5,-3 -4.4,0.535 -8.4,-0.799 -12,-4 -0.67,-4.667 -0.67,-9.333 0,-14 0.47,-1.431 1.3,-2.597 2.5,-3.5 7.86,-1.023 15.36,-2.189 22.5,-3.5 -0.48,-14.988 -1.15,-29.988 -2,-45 -1.74,-6.498 -2.24,-12.998 -1.5,-19.5 -0.33,-1.833 -0.67,-3.667 -1,-5.5 -0.92,0.627 -1.92,0.961 -3,1 1.16,-2.738 3,-3.738 5.5,-3 0.77,6.985 1.27,13.985 1.5,21 z"
         id="path481" />
    </g>
    <g
       id="g483"
       style="clip-rule:evenodd;fill-rule:evenodd;image-rendering:optimizeQuality;shape-rendering:geometricPrecision;text-rendering:geometricPrecision"
       transform="matrix(0.26458333,0,0,0.26458333,-286.53957,-103.20337)">
      <path
         style="opacity:1"
         fill="#bad8ed"
         d="m 1279.5,696.5 c 0.33,0.667 0.67,1.333 1,2 -2.47,-0.412 -3.81,0.588 -4,3 -0.67,0 -1.33,0 -2,0 0,-1.667 0,-3.333 0,-5 1.67,0 3.33,0 5,0 z"
         id="path483" />
    </g>
    <g
       id="g489"
       style="clip-rule:evenodd;fill-rule:evenodd;image-rendering:optimizeQuality;shape-rendering:geometricPrecision;text-rendering:geometricPrecision"
       transform="matrix(0.26458333,0,0,0.26458333,-286.53957,-103.20337)">
      <path
         style="opacity:1"
         fill="#83a5c7"
         d="m 1274.5,701.5 c 0.67,0 1.33,0 2,0 0,4 0,8 0,12 -1.92,-3.529 -2.59,-7.529 -2,-12 z"
         id="path489" />
    </g>
    <g
       id="g491"
       style="clip-rule:evenodd;fill-rule:evenodd;image-rendering:optimizeQuality;shape-rendering:geometricPrecision;text-rendering:geometricPrecision"
       transform="matrix(0.26458333,0,0,0.26458333,-286.53957,-103.20337)">
      <path
         style="opacity:1"
         fill="#113b68"
         d="m 1297.5,692.5 c -0.11,0.617 -0.44,1.117 -1,1.5 -4.67,0.333 -9.33,0.667 -14,1 -1.24,0.232 -2.24,0.732 -3,1.5 -1.67,0 -3.33,0 -5,0 0,1.667 0,3.333 0,5 -0.59,4.471 0.08,8.471 2,12 2.65,1.628 2.65,3.294 0,5 -1.71,-1.109 -2.38,-0.442 -2,2 0,1 0,2 0,3 -0.97,1.306 -2.3,1.973 -4,2 -0.17,-7.674 0,-15.341 0.5,-23 0.6,-2.808 1.76,-5.308 3.5,-7.5 7.64,-1.163 15.3,-1.997 23,-2.5 z"
         id="path491" />
    </g>
    <g
       id="g493"
       style="clip-rule:evenodd;fill-rule:evenodd;image-rendering:optimizeQuality;shape-rendering:geometricPrecision;text-rendering:geometricPrecision"
       transform="matrix(0.26458333,0,0,0.26458333,-286.53957,-103.20337)">
      <path
         style="opacity:1"
         fill="#1c5d9c"
         d="m 1271.5,638.5 c -0.78,14.653 -1.11,29.32 -1,44 -0.17,13.249 -0.84,26.416 -2,39.5 0.84,1.011 1.17,2.178 1,3.5 -2.75,0.226 -5.42,-0.107 -8,-1 -1,-7.638 -1.33,-15.304 -1,-23 1.06,1.1 1.89,2.434 2.5,4 1,-1.333 2,-1.333 3,0 1,-2.667 2,-5.333 3,-8 0.67,-11 0.67,-22 0,-33 0.33,-3.618 -1.17,-5.952 -4.5,-7 2.16,-0.281 3.82,-1.781 5,-4.5 -0.66,-3.682 -0.66,-7.849 0,-12.5 0.33,-1 1,-1.667 2,-2 z"
         id="path493" />
    </g>
    <g
       id="g505"
       style="clip-rule:evenodd;fill-rule:evenodd;image-rendering:optimizeQuality;shape-rendering:geometricPrecision;text-rendering:geometricPrecision"
       transform="matrix(0.26458333,0,0,0.26458333,-286.53957,-103.20337)">
      <path
         style="opacity:1"
         fill="#33506f"
         d="m 1255.5,697.5 c 0.83,8.157 1.33,16.49 1.5,25 0.42,1.256 1.25,1.923 2.5,2 3.59,2.834 7.26,3.168 11,1 1.7,-0.027 3.03,-0.694 4,-2 0.11,2.403 -0.89,4.236 -3,5.5 -4.32,0.499 -8.65,0.666 -13,0.5 -0.57,-1.473 -1.41,-2.807 -2.5,-4 -0.5,-9.327 -0.67,-18.661 -0.5,-28 z"
         id="path505" />
    </g>
    <g
       id="g506"
       style="clip-rule:evenodd;fill-rule:evenodd;image-rendering:optimizeQuality;shape-rendering:geometricPrecision;text-rendering:geometricPrecision"
       transform="matrix(0.26458333,0,0,0.26458333,-286.53957,-103.20337)">
      <path
         style="opacity:1"
         fill="#1a395b"
         d="m 1280.5,698.5 c 1.15,12.258 1.31,24.591 0.5,37 -1.33,1.333 -2.67,1.333 -4,0 0.12,-5.433 -0.71,-10.433 -2.5,-15 -0.38,-2.442 0.29,-3.109 2,-2 2.65,-1.706 2.65,-3.372 0,-5 0,-4 0,-8 0,-12 0.19,-2.412 1.53,-3.412 4,-3 z"
         id="path506" />
    </g>
    <g
       id="g508"
       style="clip-rule:evenodd;fill-rule:evenodd;image-rendering:optimizeQuality;shape-rendering:geometricPrecision;text-rendering:geometricPrecision"
       transform="matrix(0.26458333,0,0,0.26458333,-286.53957,-103.20337)">
      <path
         style="opacity:1"
         fill="#4f555c"
         d="m 1226.5,737.5 c -0.14,1.837 -0.81,2.17 -2,1 0.46,-0.798 1.12,-1.131 2,-1 z"
         id="path508" />
    </g>
  </g>
</svg>
