<?xml version="1.0" encoding="UTF-8" standalone="no"?>
<!-- Created with Inkscape (http://www.inkscape.org/) -->

<svg
   width="96mm"
   height="96mm"
   viewBox="0 0 96 96"
   version="1.1"
   id="svg1"
   inkscape:version="1.4.2 (ebf0e940, 2025-05-08)"
   sodipodi:docname="train.svg"
   xmlns:inkscape="http://www.inkscape.org/namespaces/inkscape"
   xmlns:sodipodi="http://sodipodi.sourceforge.net/DTD/sodipodi-0.dtd"
   xmlns="http://www.w3.org/2000/svg"
   xmlns:svg="http://www.w3.org/2000/svg">
  <sodipodi:namedview
     id="namedview1"
     pagecolor="#ffffff"
     bordercolor="#000000"
     borderopacity="0.25"
     inkscape:showpageshadow="2"
     inkscape:pageopacity="0.0"
     inkscape:pagecheckerboard="0"
     inkscape:deskcolor="#d1d1d1"
     inkscape:document-units="mm"
     inkscape:zoom="0.80444024"
     inkscape:cx="397.17059"
     inkscape:cy="262.91574"
     inkscape:window-width="1920"
     inkscape:window-height="1052"
     inkscape:window-x="0"
     inkscape:window-y="28"
     inkscape:window-maximized="0"
     inkscape:current-layer="layer1" />
  <defs
     id="defs1" />
  <g
     inkscape:label="Layer 1"
     inkscape:groupmode="layer"
     id="layer1">
    <g
       id="g2"
       style="clip-rule:evenodd;fill-rule:evenodd;image-rendering:optimizeQuality;shape-rendering:geometricPrecision;text-rendering:geometricPrecision"
       transform="matrix(0.26458333,0,0,0.26458333,-32.286234,5.1175854)">
      <path
         style="opacity:1"
         fill="#deeaf1"
         d="m 323.5,6.5 c -7.634,-2.29305 -15.3,-2.45972 -23,-0.5 -7.481,3.64096 -12.147,9.4743 -14,17.5 -1.764,3.7054 -2.931,7.7054 -3.5,12 -0.58,6.5137 -1.413,12.847 -2.5,19 0.411,-5.9283 0.411,-11.7616 0,-17.5 2.036,-2.2989 2.369,-4.7989 1,-7.5 1.582,-6.0144 3.915,-11.6811 7,-17 2.545,-1.9705 4.879,-4.13715 7,-6.5 3.39,-1.12485 6.557,-2.62485 9.5,-4.5 3.561,0.77088 7.228,0.77088 11,0 2.175,0.75463 4.341,1.58796 6.5,2.5 0.752,0.67076 1.086,1.5041 1,2.5 z"
         id="path2" />
    </g>
    <g
       id="g7"
       style="clip-rule:evenodd;fill-rule:evenodd;image-rendering:optimizeQuality;shape-rendering:geometricPrecision;text-rendering:geometricPrecision"
       transform="matrix(0.26458333,0,0,0.26458333,-32.286234,5.1175854)">
      <path
         style="opacity:1"
         fill="#193a63"
         d="m 323.5,6.5 c 2.369,1.18999 4.369,2.85665 6,5 -1.109,0.0569 -2.109,0.3902 -3,1 0.086,-0.9959 -0.248,-1.8292 -1,-2.5 -6.688,-2.3922 -13.354,-2.8922 -20,-1.5 -2.307,1.15339 -4.64,2.3201 -7,3.5 -1.098,0.7697 -1.098,1.603 0,2.5 -2.761,1.3894 -5.427,2.8894 -8,4.5 -1.655,1.4443 -2.322,3.2776 -2,5.5 -0.667,-0.3333 -1.333,-0.6667 -2,-1 1.853,-8.0257 6.519,-13.85904 14,-17.5 7.7,-1.95972 15.366,-1.79305 23,0.5 z"
         id="path7" />
    </g>
    <g
       id="g8"
       style="clip-rule:evenodd;fill-rule:evenodd;image-rendering:optimizeQuality;shape-rendering:geometricPrecision;text-rendering:geometricPrecision"
       transform="matrix(0.26458333,0,0,0.26458333,-32.286234,5.1175854)">
      <path
         style="opacity:1"
         fill="#08417e"
         d="m 305.5,8.5 c 6.646,-1.3922 13.312,-0.8922 20,1.5 0.752,0.6708 1.086,1.5041 1,2.5 1.561,3.4431 2.394,7.1098 2.5,11 0.383,-0.556 0.883,-0.8893 1.5,-1 0.086,0.9959 -0.248,1.8292 -1,2.5 -1.759,0.7975 -3.426,0.6309 -5,-0.5 -0.893,-2.5841 -1.226,-5.2508 -1,-8 2.901,-2.3759 2.568,-4.2092 -1,-5.5 -5.488,-2.0157 -11.155,-2.84903 -17,-2.5 z"
         id="path8" />
    </g>
    <g
       id="g9"
       style="clip-rule:evenodd;fill-rule:evenodd;image-rendering:optimizeQuality;shape-rendering:geometricPrecision;text-rendering:geometricPrecision"
       transform="matrix(0.26458333,0,0,0.26458333,-32.286234,5.1175854)">
      <path
         style="opacity:1"
         fill="#2c83d3"
         d="m 305.5,8.5 c 5.845,-0.34903 11.512,0.4843 17,2.5 3.568,1.2908 3.901,3.1241 1,5.5 -0.951,1.4187 -1.284,3.0853 -1,5 -2.743,-0.4228 -4.076,0.7439 -4,3.5 0.871,2.2431 0.871,4.2431 0,6 1.504,1.3369 2.504,3.0036 3,5 -3.88,1.8571 -3.546,3.1904 1,4 -3.338,1.2064 -5.171,0.0397 -5.5,-3.5 -2.39,4.594 -5.723,5.594 -10,3 -1.989,2.3394 -4.489,3.6727 -7.5,4 0,-2.3333 0,-4.6667 0,-7 1,-3.3333 2,-6.6667 3,-10 0.904,-0.709 1.237,-1.709 1,-3 -1,0 -2,0 -3,0 0.31,-3.2131 -0.023,-6.2131 -1,-9 -0.333,0 -0.667,0 -1,0 -1.098,-0.897 -1.098,-1.7303 0,-2.5 2.36,-1.1799 4.693,-2.34661 7,-3.5 z"
         id="path9" />
    </g>
    <g
       id="g11"
       style="clip-rule:evenodd;fill-rule:evenodd;image-rendering:optimizeQuality;shape-rendering:geometricPrecision;text-rendering:geometricPrecision"
       transform="matrix(0.26458333,0,0,0.26458333,-32.286234,5.1175854)">
      <path
         style="opacity:1"
         fill="#0c417c"
         d="m 298.5,14.5 c 0.333,0 0.667,0 1,0 0.316,3.4783 -0.184,6.8117 -1.5,10 -4.001,1.7275 -6.334,0.3942 -7,-4 -0.943,2.7507 -1.776,5.4174 -2.5,8 0,-1.3333 0,-2.6667 0,-4 -0.322,-2.2224 0.345,-4.0557 2,-5.5 2.573,-1.6106 5.239,-3.1106 8,-4.5 z"
         id="path11" />
    </g>
    <g
       id="g12"
       style="clip-rule:evenodd;fill-rule:evenodd;image-rendering:optimizeQuality;shape-rendering:geometricPrecision;text-rendering:geometricPrecision"
       transform="matrix(0.26458333,0,0,0.26458333,-32.286234,5.1175854)">
      <path
         style="opacity:1"
         fill="#044283"
         d="m 319.5,24.5 c 1,0 2,0 3,0 2.737,9.9491 6.237,19.6158 10.5,29 2.356,8.4283 4.522,16.7617 6.5,25 -0.61,0.891 -0.943,1.891 -1,3 -4.93,-19.3547 -11.264,-38.3547 -19,-57 z"
         id="path12" />
    </g>
    <g
       id="g13"
       style="clip-rule:evenodd;fill-rule:evenodd;image-rendering:optimizeQuality;shape-rendering:geometricPrecision;text-rendering:geometricPrecision"
       transform="matrix(0.26458333,0,0,0.26458333,-32.286234,5.1175854)">
      <path
         style="opacity:1"
         fill="#667b92"
         d="m 336.5,22.5 c 1.424,2.0145 2.09,4.3478 2,7 -1.424,-2.0145 -2.09,-4.3478 -2,-7 z"
         id="path13" />
    </g>
    <g
       id="g14"
       style="clip-rule:evenodd;fill-rule:evenodd;image-rendering:optimizeQuality;shape-rendering:geometricPrecision;text-rendering:geometricPrecision"
       transform="matrix(0.26458333,0,0,0.26458333,-32.286234,5.1175854)">
      <path
         style="opacity:1"
         fill="#465c7a"
         d="m 286.5,23.5 c -0.966,3.5649 -0.966,7.0649 0,10.5 -0.5,0.5 -1,1 -1.5,1.5 -2.624,12.5366 -3.791,25.2033 -3.5,38 -0.986,17.5899 -1.319,35.257 -1,53 0,1 0,2 0,3 0.284,1.915 -0.049,3.581 -1,5 -0.14,-26.675 0.194,-53.3415 1,-80 1.087,-6.153 1.92,-12.4863 2.5,-19 0.569,-4.2946 1.736,-8.2946 3.5,-12 z"
         id="path14" />
    </g>
    <g
       id="g17"
       style="clip-rule:evenodd;fill-rule:evenodd;image-rendering:optimizeQuality;shape-rendering:geometricPrecision;text-rendering:geometricPrecision"
       transform="matrix(0.26458333,0,0,0.26458333,-32.286234,5.1175854)">
      <path
         style="opacity:1"
         fill="#1c5a99"
         d="m 323.5,16.5 c -0.226,2.7492 0.107,5.4159 1,8 1.574,1.1309 3.241,1.2975 5,0.5 0.752,-0.6708 1.086,-1.5041 1,-2.5 -0.107,-1.8786 0.393,-2.2119 1.5,-1 1.751,1.9899 2.751,4.3232 3,7 1.835,16.6771 3.335,33.3437 4.5,50 -1.978,-8.2383 -4.144,-16.5717 -6.5,-25 -4.263,-9.3842 -7.763,-19.0509 -10.5,-29 -1,0 -2,0 -3,0 1.4,-0.6001 2.4,-1.6001 3,-3 -0.284,-1.9147 0.049,-3.5813 1,-5 z"
         id="path17" />
    </g>
    <g
       id="g18"
       style="clip-rule:evenodd;fill-rule:evenodd;image-rendering:optimizeQuality;shape-rendering:geometricPrecision;text-rendering:geometricPrecision"
       transform="matrix(0.26458333,0,0,0.26458333,-32.286234,5.1175854)">
      <path
         style="opacity:1"
         fill="#1d5d9d"
         d="m 299.5,14.5 c 0.977,2.7869 1.31,5.7869 1,9 1,0 2,0 3,0 0.237,1.291 -0.096,2.291 -1,3 -0.595,-2.6125 -1.429,-2.6125 -2.5,0 -4.741,14.4693 -9.741,28.8027 -15,43 -0.499,-4.9889 -0.666,-9.9889 -0.5,-15 1.053,-8.7004 2.386,-17.3671 4,-26 0.724,-2.5826 1.557,-5.2493 2.5,-8 0.666,4.3942 2.999,5.7275 7,4 1.316,-3.1883 1.816,-6.5217 1.5,-10 z"
         id="path18" />
    </g>
    <g
       id="g21"
       style="clip-rule:evenodd;fill-rule:evenodd;image-rendering:optimizeQuality;shape-rendering:geometricPrecision;text-rendering:geometricPrecision"
       transform="matrix(0.26458333,0,0,0.26458333,-32.286234,5.1175854)">
      <path
         style="opacity:1"
         fill="#0e3b6e"
         d="m 329.5,11.5 c 6.08,10.6084 8.746,21.7751 8,33.5 1.158,2.51 1.825,5.1767 2,8 1.212,13.3282 1.212,26.4949 0,39.5 0.295,-2.2354 -0.039,-4.2354 -1,-6 0,-1.6667 0,-3.3333 0,-5 0.057,-1.109 0.39,-2.109 1,-3 -1.165,-16.6563 -2.665,-33.3229 -4.5,-50 -0.249,-2.6768 -1.249,-5.0101 -3,-7 -1.107,-1.2119 -1.607,-0.8786 -1.5,1 -0.617,0.1107 -1.117,0.444 -1.5,1 -0.106,-3.8902 -0.939,-7.5569 -2.5,-11 0.891,-0.6098 1.891,-0.9431 3,-1 z"
         id="path21" />
    </g>
    <g
       id="g23"
       style="clip-rule:evenodd;fill-rule:evenodd;image-rendering:optimizeQuality;shape-rendering:geometricPrecision;text-rendering:geometricPrecision"
       transform="matrix(0.26458333,0,0,0.26458333,-32.286234,5.1175854)">
      <path
         style="opacity:1"
         fill="#084281"
         d="m 302.5,26.5 c -1,3.3333 -2,6.6667 -3,10 -4.829,11.6504 -8.996,23.6504 -12.5,36 -1.596,6.5774 -2.43,13.2441 -2.5,20 -0.886,-12.5214 -0.886,-25.1881 0,-38 -0.166,5.0111 10e-4,10.0111 0.5,15 5.259,-14.1973 10.259,-28.5307 15,-43 1.071,-2.6125 1.905,-2.6125 2.5,0 z"
         id="path23" />
    </g>
    <g
       id="g28"
       style="clip-rule:evenodd;fill-rule:evenodd;image-rendering:optimizeQuality;shape-rendering:geometricPrecision;text-rendering:geometricPrecision"
       transform="matrix(0.26458333,0,0,0.26458333,-32.286234,5.1175854)">
      <path
         style="opacity:1"
         fill="#19375b"
         d="m 329.5,11.5 c 3.578,2.811 5.911,6.4777 7,11 -0.09,2.6522 0.576,4.9855 2,7 1.088,5.1052 2.088,10.1052 3,15 0.921,28.3198 1.254,56.653 1,85 -1.676,-8 -2.01,-16.167 -1,-24.5 -0.572,-3.985 -1.239,-7.8183 -2,-11.5 0,-0.3333 0,-0.6667 0,-1 1.212,-13.0051 1.212,-26.1718 0,-39.5 -0.175,-2.8233 -0.842,-5.49 -2,-8 0.746,-11.7249 -1.92,-22.8916 -8,-33.5 z"
         id="path28" />
    </g>
    <g
       id="g29"
       style="clip-rule:evenodd;fill-rule:evenodd;image-rendering:optimizeQuality;shape-rendering:geometricPrecision;text-rendering:geometricPrecision"
       transform="matrix(0.26458333,0,0,0.26458333,-32.286234,5.1175854)">
      <path
         style="opacity:1"
         fill="#3380c7"
         d="m 322.5,21.5 c -0.6,1.3999 -1.6,2.3999 -3,3 7.736,18.6453 14.07,37.6453 19,57 0,1.6667 0,3.3333 0,5 0.574,3.7666 -0.593,6.7666 -3.5,9 -0.667,2.6667 -0.667,5.333 0,8 4.629,2.557 4.629,5.224 0,8 -1.034,4.957 -0.534,9.624 1.5,14 -1,0 -2,0 -3,0 -0.357,-4.808 -1.357,-9.474 -3,-14 0.763,-1.219 1.763,-2.219 3,-3 -0.525,-0.692 -1.192,-1.192 -2,-1.5 1.016,-0.519 1.682,-1.353 2,-2.5 -0.919,-3.124 -1.252,-6.1241 -1,-9 1.282,-1.6792 2.282,-3.5126 3,-5.5 -0.173,-2.4069 -0.173,-4.7402 0,-7 -0.667,-0.3333 -1.333,-0.6667 -2,-1 -0.039,-1.2447 0.295,-2.5781 1,-4 -0.35,-1.2575 -1.017,-1.5908 -2,-1 0.78,1.073 0.613,2.2396 -0.5,3.5 -0.333,-0.6667 -0.667,-1.3333 -1,-2 -0.5,1.1667 -1.333,2 -2.5,2.5 0.667,0.3333 1.333,0.6667 2,1 -2.443,1.9341 -3.776,4.4341 -4,7.5 -1.332,1.6321 -2.665,3.2988 -4,5 -1.333,26 -1.333,52 0,78 1.531,-0.921 2.865,-0.588 4,1 -2,0 -4,0 -6,0 -0.167,-26.669 0,-53.335 0.5,-80 7.293,-12.1421 9.293,-25.1421 6,-39 -6.154,-11.6018 -14.988,-14.1018 -26.5,-7.5 -6.631,8.0042 -8.797,17.1708 -6.5,27.5 1.543,6.6301 3.877,12.9634 7,19 0.5,9.994 0.666,19.994 0.5,30 -4.333,-1.333 -8.667,-1.333 -13,0 0,-0.333 0,-0.667 0,-1 0.165,-3.682 -10e-4,-7.348 -0.5,-11 -0.708,-0.881 -1.542,-1.547 -2.5,-2 -0.667,0 -1,-0.333 -1,-1 0.212,-1.884 1.212,-3.217 3,-4 2.026,-4.9929 1.026,-8.9929 -3,-12 0.07,-6.7559 0.904,-13.4226 2.5,-20 3.504,-12.3496 7.671,-24.3496 12.5,-36 0,2.3333 0,4.6667 0,7 3.011,-0.3273 5.511,-1.6606 7.5,-4 4.277,2.594 7.61,1.594 10,-3 0.329,3.5397 2.162,4.7064 5.5,3.5 -4.546,-0.8096 -4.88,-2.1429 -1,-4 -0.496,-1.9964 -1.496,-3.6631 -3,-5 0.871,-1.7569 0.871,-3.7569 0,-6 -0.076,-2.7561 1.257,-3.9228 4,-3.5 z"
         id="path29" />
    </g>
    <g
       id="g39"
       style="clip-rule:evenodd;fill-rule:evenodd;image-rendering:optimizeQuality;shape-rendering:geometricPrecision;text-rendering:geometricPrecision"
       transform="matrix(0.26458333,0,0,0.26458333,-32.286234,5.1175854)">
      <path
         style="opacity:1"
         fill="#0d3a6b"
         d="m 286.5,23.5 c 0.667,0.3333 1.333,0.6667 2,1 0,1.3333 0,2.6667 0,4 -1.614,8.6329 -2.947,17.2996 -4,26 -0.886,12.8119 -0.886,25.4786 0,38 4.026,3.0071 5.026,7.0071 3,12 -1.788,0.783 -2.788,2.116 -3,4 -1.461,-2.176 -1.794,-4.509 -1,-7 -0.689,-1.944 -1.189,-3.944 -1.5,-6 -0.403,-7.575 -0.57,-14.9083 -0.5,-22 -0.291,-12.7967 0.876,-25.4634 3.5,-38 0.5,-0.5 1,-1 1.5,-1.5 -0.966,-3.4351 -0.966,-6.9351 0,-10.5 z"
         id="path39" />
    </g>
    <g
       id="g41"
       style="clip-rule:evenodd;fill-rule:evenodd;image-rendering:optimizeQuality;shape-rendering:geometricPrecision;text-rendering:geometricPrecision"
       transform="matrix(0.26458333,0,0,0.26458333,-32.286234,5.1175854)">
      <path
         style="opacity:1"
         fill="#094381"
         d="m 320.5,173.5 c -0.667,-1.333 -1.333,-2.667 -2,-4 0,-25 0,-50 0,-75 -4.667,0 -9.333,0 -14,0 0,10 0,20 0,30 -1.109,-0.057 -2.109,-0.39 -3,-1 0.166,-10.006 0,-20.006 -0.5,-30 -3.123,-6.0366 -5.457,-12.3699 -7,-19 -2.297,-10.3292 -0.131,-19.4958 6.5,-27.5 11.512,-6.6018 20.346,-4.1018 26.5,7.5 3.293,13.8579 1.293,26.8579 -6,39 -0.5,26.665 -0.667,53.331 -0.5,80 z"
         id="path41" />
    </g>
    <g
       id="g42"
       style="clip-rule:evenodd;fill-rule:evenodd;image-rendering:optimizeQuality;shape-rendering:geometricPrecision;text-rendering:geometricPrecision"
       transform="matrix(0.26458333,0,0,0.26458333,-32.286234,5.1175854)">
      <path
         style="opacity:1"
         fill="#3382ca"
         d="m 308.5,58.5 c 2.737,-0.0987 5.404,0.2347 8,1 1.812,1.9605 2.812,4.2939 3,7 2.333,0 4.667,0 7,0 -0.713,8.3985 -2.879,16.3985 -6.5,24 -5.416,1.1389 -10.916,1.3056 -16.5,0.5 -4.729,-7.4069 -7.062,-15.5735 -7,-24.5 4.227,0.7131 6.894,-0.9536 8,-5 1.352,-1.0244 2.685,-2.0244 4,-3 z"
         id="path42" />
    </g>
    <g
       id="g43"
       style="clip-rule:evenodd;fill-rule:evenodd;image-rendering:optimizeQuality;shape-rendering:geometricPrecision;text-rendering:geometricPrecision"
       transform="matrix(0.26458333,0,0,0.26458333,-32.286234,5.1175854)">
      <path
         style="opacity:1"
         fill="#2983d3"
         d="m 311.5,60.5 c 3.288,2.9493 6.621,5.9493 10,9 0.352,3.4911 0.352,6.8244 0,10 -1.052,-0.1495 -2.052,0.0172 -3,0.5 1.456,0.4226 1.956,1.2559 1.5,2.5 -1,-0.3333 -2,-0.6667 -3,-1 -0.089,1.6134 0.745,2.7801 2.5,3.5 -2.73,4.8097 -6.23,5.6431 -10.5,2.5 -1.388,1.0536 -2.888,1.2203 -4.5,0.5 0.333,-0.3333 0.667,-0.6667 1,-1 -3.886,-4.7711 -5.386,-10.2711 -4.5,-16.5 3.755,-3.2983 7.255,-6.6316 10.5,-10 z"
         id="path43" />
    </g>
    <g
       id="g44"
       style="clip-rule:evenodd;fill-rule:evenodd;image-rendering:optimizeQuality;shape-rendering:geometricPrecision;text-rendering:geometricPrecision"
       transform="matrix(0.26458333,0,0,0.26458333,-32.286234,5.1175854)">
      <path
         style="opacity:1"
         fill="#124579"
         d="m 316.5,59.5 c -2.596,-0.7653 -5.263,-1.0987 -8,-1 2.334,-0.6237 4.667,-1.457 7,-2.5 -1.549,0.5219 -3.049,0.3553 -4.5,-0.5 -2.077,0.5172 -4.077,1.1839 -6,2 -0.147,-3.0706 -0.98,-5.9039 -2.5,-8.5 1.496,-0.5074 2.663,-0.0074 3.5,1.5 0.492,-1.049 0.326,-2.049 -0.5,-3 1,-2.6667 2,-2.6667 3,0 1,-1.3333 2,-1.3333 3,0 0.751,-0.876 1.251,-1.876 1.5,-3 0.911,3.133 2.744,4.133 5.5,3 3.396,1.392 4.063,3.2254 2,5.5 1.423,2.62 1.257,5.12 -0.5,7.5 -0.123,-4.9357 -1.29,-5.269 -3.5,-1 z"
         id="path44" />
    </g>
    <g
       id="g45"
       style="clip-rule:evenodd;fill-rule:evenodd;image-rendering:optimizeQuality;shape-rendering:geometricPrecision;text-rendering:geometricPrecision"
       transform="matrix(0.26458333,0,0,0.26458333,-32.286234,5.1175854)">
      <path
         style="opacity:1"
         fill="#2681d2"
         d="m 290.5,81.5 c 1.432,1.8271 3.099,3.4937 5,5 1.247,1.5421 1.247,3.0421 0,4.5 2.214,2.2823 3.881,4.9489 5,8 -1.149,1.73 -1.149,3.396 0,5 -2.667,0.667 -2.667,1.333 0,2 -1.333,1.333 -1.333,2.667 0,4 -0.603,1.825 -1.27,3.659 -2,5.5 -1.634,0.468 -2.8,1.468 -3.5,3 -0.975,-1.87 -1.475,-3.87 -1.5,-6 -0.876,-0.751 -1.876,-1.251 -3,-1.5 0.457,-0.414 0.791,-0.914 1,-1.5 -3.036,-3.689 -2.37,-6.522 2,-8.5 -0.828,-0.915 -1.828,-1.5814 -3,-2 0.333,-1.6667 0.667,-3.3333 1,-5 -1,-0.3333 -2,-0.6667 -3,-1 0.674,-1.7506 1.007,-3.4173 1,-5 -0.667,-0.3333 -1.333,-0.6667 -2,-1 1.172,-0.4186 2.172,-1.0853 3,-2 -1.184,-1.1455 -1.184,-2.3121 0,-3.5 z"
         id="path45" />
    </g>
    <g
       id="g48"
       style="clip-rule:evenodd;fill-rule:evenodd;image-rendering:optimizeQuality;shape-rendering:geometricPrecision;text-rendering:geometricPrecision"
       transform="matrix(0.26458333,0,0,0.26458333,-32.286234,5.1175854)">
      <path
         style="opacity:1"
         fill="#134c85"
         d="m 338.5,86.5 c 0.961,1.7646 1.295,3.7646 1,6 0,0.3333 0,0.6667 0,1 0.167,23.669 0,47.336 -0.5,71 -0.717,0.544 -1.217,1.211 -1.5,2 -0.65,-0.304 -1.317,-0.637 -2,-1 -2.007,-5.92 -1.007,-11.086 3,-15.5 -3.137,-3.127 -4.47,-6.96 -4,-11.5 0.167,-2 0.333,-4 0.5,-6 3.869,-1.792 4.369,-4.125 1.5,-7 -2.034,-4.376 -2.534,-9.043 -1.5,-14 4.629,-2.776 4.629,-5.443 0,-8 -0.667,-2.667 -0.667,-5.3333 0,-8 2.907,-2.2334 4.074,-5.2334 3.5,-9 z"
         id="path48" />
    </g>
    <g
       id="g55"
       style="clip-rule:evenodd;fill-rule:evenodd;image-rendering:optimizeQuality;shape-rendering:geometricPrecision;text-rendering:geometricPrecision"
       transform="matrix(0.26458333,0,0,0.26458333,-32.286234,5.1175854)">
      <path
         style="opacity:1"
         fill="#153760"
         d="m 281.5,73.5 c -0.07,7.0917 0.097,14.425 0.5,22 0.311,2.056 0.811,4.056 1.5,6 -0.794,2.491 -0.461,4.824 1,7 0,0.667 0.333,1 1,1 -0.763,0.768 -1.763,1.268 -3,1.5 0.797,3.745 1.297,7.579 1.5,11.5 1.451,-0.236 2.951,-0.236 4.5,0 0,0.333 0,0.667 0,1 -2.553,1.305 -5.22,2.305 -8,3 -0.319,-17.743 0.014,-35.4101 1,-53 z"
         id="path55" />
    </g>
    <g
       id="g56"
       style="clip-rule:evenodd;fill-rule:evenodd;image-rendering:optimizeQuality;shape-rendering:geometricPrecision;text-rendering:geometricPrecision"
       transform="matrix(0.26458333,0,0,0.26458333,-32.286234,5.1175854)">
      <path
         style="opacity:1"
         fill="#0f4681"
         d="m 285.5,109.5 c 0.958,0.453 1.792,1.119 2.5,2 0.499,3.652 0.665,7.318 0.5,11 -1.549,-0.236 -3.049,-0.236 -4.5,0 -0.203,-3.921 -0.703,-7.755 -1.5,-11.5 1.237,-0.232 2.237,-0.732 3,-1.5 z"
         id="path56" />
    </g>
    <g
       id="g61"
       style="clip-rule:evenodd;fill-rule:evenodd;image-rendering:optimizeQuality;shape-rendering:geometricPrecision;text-rendering:geometricPrecision"
       transform="matrix(0.26458333,0,0,0.26458333,-32.286234,5.1175854)">
      <path
         style="opacity:1"
         fill="#404162"
         d="m 301.5,123.5 c 0.891,0.61 1.891,0.943 3,1 0.873,2.386 2.373,4.386 4.5,6 3.773,7.495 3.273,14.495 -1.5,21 1.107,-3.73 1.773,-7.564 2,-11.5 -0.167,-1.833 -0.333,-3.667 -0.5,-5.5 -0.2,-1.82 -1.034,-3.153 -2.5,-4 -5.882,-5.46 -12.549,-6.46 -20,-3 -2.079,0.471 -4.079,1.137 -6,2 0,-1 0,-2 0,-3 2.78,-0.695 5.447,-1.695 8,-3 4.333,-1.333 8.667,-1.333 13,0 z"
         id="path61" />
    </g>
    <g
       id="g64"
       style="clip-rule:evenodd;fill-rule:evenodd;image-rendering:optimizeQuality;shape-rendering:geometricPrecision;text-rendering:geometricPrecision"
       transform="matrix(0.26458333,0,0,0.26458333,-32.286234,5.1175854)">
      <path
         style="opacity:1"
         fill="#1e5fa2"
         d="m 318.5,169.5 c 0,1.333 0,2.667 0,4 -4.667,0 -9.333,0 -14,0 0,-5.667 0,-11.333 0,-17 0.25,-2.174 1.25,-3.841 3,-5 4.773,-6.505 5.273,-13.505 1.5,-21 -2.127,-1.614 -3.627,-3.614 -4.5,-6 0,-10 0,-20 0,-30 4.667,0 9.333,0 14,0 0,25 0,50 0,75 z"
         id="path64" />
    </g>
    <g
       id="g66"
       style="clip-rule:evenodd;fill-rule:evenodd;image-rendering:optimizeQuality;shape-rendering:geometricPrecision;text-rendering:geometricPrecision"
       transform="matrix(0.26458333,0,0,0.26458333,-32.286234,5.1175854)">
      <path
         style="opacity:1"
         fill="#0c3561"
         d="m 339.5,93.5 c 0.761,3.6817 1.428,7.515 2,11.5 -1.01,8.333 -0.676,16.5 1,24.5 0,0.667 0,1.333 0,2 -0.966,12.357 -1.966,24.69 -3,37 -0.333,0 -0.667,0 -1,0 0.172,-0.992 -0.162,-1.658 -1,-2 0.283,-0.789 0.783,-1.456 1.5,-2 0.5,-23.664 0.667,-47.331 0.5,-71 z"
         id="path66" />
    </g>
    <g
       id="g67"
       style="clip-rule:evenodd;fill-rule:evenodd;image-rendering:optimizeQuality;shape-rendering:geometricPrecision;text-rendering:geometricPrecision"
       transform="matrix(0.26458333,0,0,0.26458333,-32.286234,5.1175854)">
      <path
         style="opacity:1"
         fill="#59393f"
         d="m 286.5,127.5 c -4.893,4.866 -6.226,10.533 -4,17 0.333,0 0.667,0 1,0 0.874,3.533 2.207,6.866 4,10 -1.105,-1.1 -2.438,-1.767 -4,-2 -0.25,-2.174 -1.25,-3.841 -3,-5 0.284,-1.915 -0.049,-3.581 -1,-5 0,-2.667 0,-5.333 0,-8 0.951,-1.419 1.284,-3.085 1,-5 1.921,-0.863 3.921,-1.529 6,-2 z"
         id="path67" />
    </g>
    <g
       id="g68"
       style="clip-rule:evenodd;fill-rule:evenodd;image-rendering:optimizeQuality;shape-rendering:geometricPrecision;text-rendering:geometricPrecision"
       transform="matrix(0.26458333,0,0,0.26458333,-32.286234,5.1175854)">
      <path
         style="opacity:1"
         fill="#2a83d4"
         d="m 336.5,125.5 c -0.669,3.347 -2.335,6.013 -5,8 1.237,2 0.903,3.834 -1,5.5 1.646,1.555 1.979,3.221 1,5 1.333,2 2.667,4 4,6 -1.749,2.213 -3.749,3.213 -6,3 2.587,1.525 3.42,3.692 2.5,6.5 -0.569,-3.861 -1.402,-3.861 -2.5,0 -1.602,-1.05 -2.435,-0.383 -2.5,2 -0.87,-0.608 -1.37,-1.441 -1.5,-2.5 1.113,-1.394 2.447,-2.561 4,-3.5 -1.692,-1.859 -3.192,-3.859 -4.5,-6 -0.811,1.46 -1.645,1.793 -2.5,1 0.295,-3.557 0.462,-7.557 0.5,-12 3.106,-2.527 2.939,-4.36 -0.5,-5.5 1.136,-1.53 2.136,-2.863 3,-4 -0.667,-0.333 -1.333,-0.667 -2,-1 1.333,-0.667 1.333,-1.333 0,-2 0.921,-1.756 2.088,-1.923 3.5,-0.5 1.225,-0.362 2.391,-0.862 3.5,-1.5 -1.801,-0.317 -2.134,-0.984 -1,-2 -0.5,-0.5 -1,-1 -1.5,-1.5 -1.731,3.835 -3.065,3.502 -4,-1 -0.333,0.333 -0.667,0.667 -1,1 -1.226,-4.125 -0.393,-7.625 2.5,-10.5 -0.167,-0.5 -0.333,-1 -0.5,-1.5 -0.718,0.951 -1.551,1.117 -2.5,0.5 0.405,-3.861 1.405,-6.027 3,-6.5 -0.167,-1 -0.333,-2 -0.5,-3 -1.195,3.307 -2.028,3.473 -2.5,0.5 0.18,-2.2414 1.013,-2.7414 2.5,-1.5 0.359,-3.0443 1.026,-3.3776 2,-1 2.134,-2.0784 1.968,-3.9117 -0.5,-5.5 1.746,-0.4709 3.413,-1.1376 5,-2 -1,-0.5 -2,-1 -3,-1.5 -1.196,0.3457 -1.196,0.8457 0,1.5 -0.937,0.6917 -1.603,0.525 -2,-0.5 0.224,-3.0659 1.557,-5.5659 4,-7.5 -0.667,-0.3333 -1.333,-0.6667 -2,-1 1.167,-0.5 2,-1.3333 2.5,-2.5 0.333,0.6667 0.667,1.3333 1,2 1.113,-1.2604 1.28,-2.427 0.5,-3.5 0.983,-0.5908 1.65,-0.2575 2,1 -0.705,1.4219 -1.039,2.7553 -1,4 0.667,0.3333 1.333,0.6667 2,1 -0.173,2.2598 -0.173,4.5931 0,7 -0.718,1.9874 -1.718,3.8208 -3,5.5 -0.252,2.8759 0.081,5.876 1,9 -0.318,1.147 -0.984,1.981 -2,2.5 0.808,0.308 1.475,0.808 2,1.5 -1.237,0.781 -2.237,1.781 -3,3 1.643,4.526 2.643,9.192 3,14 1,0 2,0 3,0 z"
         id="path68" />
    </g>
    <g
       id="g76"
       style="clip-rule:evenodd;fill-rule:evenodd;image-rendering:optimizeQuality;shape-rendering:geometricPrecision;text-rendering:geometricPrecision"
       transform="matrix(0.26458333,0,0,0.26458333,-32.286234,5.1175854)">
      <path
         style="opacity:1"
         fill="#845153"
         d="m 306.5,130.5 c 1.067,5.282 1.233,10.615 0.5,16 -2.936,4.873 -5.603,9.873 -8,15 -1.599,1.536 -3.433,2.036 -5.5,1.5 -2.22,-2.713 -4.22,-5.546 -6,-8.5 -1.793,-3.134 -3.126,-6.467 -4,-10 1.29,0.558 2.123,1.558 2.5,3 2.881,-1.528 5.214,-0.862 7,2 1,-0.333 2,-0.667 3,-1 1.317,2.232 2.15,4.232 2.5,6 4.974,-2.615 6.641,-6.615 5,-12 -1.609,-0.111 -3.275,0.222 -5,1 2.87,-2.148 3.537,-4.815 2,-8 5.643,-0.263 6.31,-2.263 2,-6 -6.882,-3.232 -13.048,-2.232 -18.5,3 -1.354,3.863 -1.854,7.863 -1.5,12 -2.226,-6.467 -0.893,-12.134 4,-17 7.451,-3.46 14.118,-2.46 20,3 z"
         id="path76" />
    </g>
    <g
       id="g77"
       style="clip-rule:evenodd;fill-rule:evenodd;image-rendering:optimizeQuality;shape-rendering:geometricPrecision;text-rendering:geometricPrecision"
       transform="matrix(0.26458333,0,0,0.26458333,-32.286234,5.1175854)">
      <path
         style="opacity:1"
         fill="#6f403f"
         d="m 300.5,135.5 c 1.537,3.185 0.87,5.852 -2,8 -8.937,0.897 -11.271,-2.603 -7,-10.5 2.333,-0.667 4.667,-0.667 7,0 0.881,0.708 1.547,1.542 2,2.5 z"
         id="path77" />
    </g>
    <g
       id="g78"
       style="clip-rule:evenodd;fill-rule:evenodd;image-rendering:optimizeQuality;shape-rendering:geometricPrecision;text-rendering:geometricPrecision"
       transform="matrix(0.26458333,0,0,0.26458333,-32.286234,5.1175854)">
      <path
         style="opacity:1"
         fill="#f0dcdc"
         d="m 292.5,134.5 c 5.658,-0.821 7.325,1.346 5,6.5 -5.759,1.139 -7.426,-1.028 -5,-6.5 z"
         id="path78" />
    </g>
    <g
       id="g79"
       style="clip-rule:evenodd;fill-rule:evenodd;image-rendering:optimizeQuality;shape-rendering:geometricPrecision;text-rendering:geometricPrecision"
       transform="matrix(0.26458333,0,0,0.26458333,-32.286234,5.1175854)">
      <path
         style="opacity:1"
         fill="#8f5756"
         d="m 300.5,135.5 c -0.453,-0.958 -1.119,-1.792 -2,-2.5 -2.333,-0.667 -4.667,-0.667 -7,0 -4.271,7.897 -1.937,11.397 7,10.5 1.725,-0.778 3.391,-1.111 5,-1 1.641,5.385 -0.026,9.385 -5,12 -0.35,-1.768 -1.183,-3.768 -2.5,-6 -1,0.333 -2,0.667 -3,1 -1.786,-2.862 -4.119,-3.528 -7,-2 -0.377,-1.442 -1.21,-2.442 -2.5,-3 -0.333,0 -0.667,0 -1,0 -0.354,-4.137 0.146,-8.137 1.5,-12 5.452,-5.232 11.618,-6.232 18.5,-3 4.31,3.737 3.643,5.737 -2,6 z"
         id="path79" />
    </g>
    <g
       id="g85"
       style="clip-rule:evenodd;fill-rule:evenodd;image-rendering:optimizeQuality;shape-rendering:geometricPrecision;text-rendering:geometricPrecision"
       transform="matrix(0.26458333,0,0,0.26458333,-32.286234,5.1175854)">
      <path
         style="opacity:1"
         fill="#44394f"
         d="m 306.5,130.5 c 1.466,0.847 2.3,2.18 2.5,4 0.167,1.833 0.333,3.667 0.5,5.5 -0.227,3.936 -0.893,7.77 -2,11.5 -1.75,1.159 -2.75,2.826 -3,5 -1.093,1.849 -2.426,3.516 -4,5 -1.35,2.183 -3.184,3.85 -5.5,5 -1.76,-2.172 -3.926,-3.839 -6.5,-5 -1.401,-3.134 -3.068,-6.134 -5,-9 1.562,0.233 2.895,0.9 4,2 1.78,2.954 3.78,5.787 6,8.5 2.067,0.536 3.901,0.036 5.5,-1.5 2.397,-5.127 5.064,-10.127 8,-15 0.733,-5.385 0.567,-10.718 -0.5,-16 z"
         id="path85" />
    </g>
    <g
       id="g88"
       style="clip-rule:evenodd;fill-rule:evenodd;image-rendering:optimizeQuality;shape-rendering:geometricPrecision;text-rendering:geometricPrecision"
       transform="matrix(0.26458333,0,0,0.26458333,-32.286234,5.1175854)">
      <path
         style="opacity:1"
         fill="#2f84cf"
         d="m 336.5,125.5 c 2.869,2.875 2.369,5.208 -1.5,7 -0.167,2 -0.333,4 -0.5,6 -0.47,4.54 0.863,8.373 4,11.5 -4.007,4.414 -5.007,9.58 -3,15.5 0.683,0.363 1.35,0.696 2,1 0.838,0.342 1.172,1.008 1,2 0,1.667 0,3.333 0,5 -4,0 -8,0 -12,0 -1.135,-1.588 -2.469,-1.921 -4,-1 -1.333,-26 -1.333,-52 0,-78 1.335,-1.7012 2.668,-3.3679 4,-5 0.397,1.025 1.063,1.1917 2,0.5 -1.196,-0.6543 -1.196,-1.1543 0,-1.5 1,0.5 2,1 3,1.5 -1.587,0.8624 -3.254,1.5291 -5,2 2.468,1.5883 2.634,3.4216 0.5,5.5 -0.974,-2.3776 -1.641,-2.0443 -2,1 -1.487,-1.2414 -2.32,-0.7414 -2.5,1.5 0.472,2.973 1.305,2.807 2.5,-0.5 0.167,1 0.333,2 0.5,3 -1.595,0.473 -2.595,2.639 -3,6.5 0.949,0.617 1.782,0.451 2.5,-0.5 0.167,0.5 0.333,1 0.5,1.5 -2.893,2.875 -3.726,6.375 -2.5,10.5 0.333,-0.333 0.667,-0.667 1,-1 0.935,4.502 2.269,4.835 4,1 0.5,0.5 1,1 1.5,1.5 -1.134,1.016 -0.801,1.683 1,2 -1.109,0.638 -2.275,1.138 -3.5,1.5 -1.412,-1.423 -2.579,-1.256 -3.5,0.5 1.333,0.667 1.333,1.333 0,2 0.667,0.333 1.333,0.667 2,1 -0.864,1.137 -1.864,2.47 -3,4 3.439,1.14 3.606,2.973 0.5,5.5 -0.038,4.443 -0.205,8.443 -0.5,12 0.855,0.793 1.689,0.46 2.5,-1 1.308,2.141 2.808,4.141 4.5,6 -1.553,0.939 -2.887,2.106 -4,3.5 0.13,1.059 0.63,1.892 1.5,2.5 0.065,-2.383 0.898,-3.05 2.5,-2 1.098,-3.861 1.931,-3.861 2.5,0 0.92,-2.808 0.087,-4.975 -2.5,-6.5 2.251,0.213 4.251,-0.787 6,-3 -1.333,-2 -2.667,-4 -4,-6 0.979,-1.779 0.646,-3.445 -1,-5 1.903,-1.666 2.237,-3.5 1,-5.5 2.665,-1.987 4.331,-4.653 5,-8 z"
         id="path88" />
    </g>
    <g
       id="g91"
       style="clip-rule:evenodd;fill-rule:evenodd;image-rendering:optimizeQuality;shape-rendering:geometricPrecision;text-rendering:geometricPrecision"
       transform="matrix(0.26458333,0,0,0.26458333,-32.286234,5.1175854)">
      <path
         style="opacity:1"
         fill="#0c3f76"
         d="m 304.5,156.5 c 0,5.667 0,11.333 0,17 4.667,0 9.333,0 14,0 0,-1.333 0,-2.667 0,-4 0.667,1.333 1.333,2.667 2,4 2,0 4,0 6,0 4,0 8,0 12,0 0,-1.667 0,-3.333 0,-5 0.333,0 0.667,0 1,0 0.978,0.311 1.645,0.978 2,2 -1.082,5.718 -1.082,11.218 0,16.5 -1.074,0.739 -1.741,1.739 -2,3 1.261,3.379 1.261,6.712 0,10 0.667,1.667 1.333,3.333 2,5 0.228,5.407 -0.105,10.907 -1,16.5 -0.333,8.667 -0.667,17.333 -1,26 0.41,-5.173 -0.257,-10.173 -2,-15 -0.667,4.147 -1.334,8.147 -2,12 -0.977,-2.787 -1.31,-5.787 -1,-9 0,-3.333 1.333,-6 4,-8 -0.043,-0.916 -0.376,-1.583 -1,-2 2.087,-7.363 2.42,-14.697 1,-22 -3.376,-1.568 -4.709,-4.235 -4,-8 2.015,-4.398 3.349,-9.065 4,-14 -4.134,-0.985 -8.468,-1.318 -13,-1 0,-0.667 0,-1.333 0,-2 4.243,-0.597 8.576,-0.597 13,0 0.149,-1.052 -0.017,-2.052 -0.5,-3 -17.938,0.964 -35.771,0.964 -53.5,0 -0.237,1.291 0.096,2.291 1,3 0,0.667 0,1.333 0,2 -0.973,2.448 -1.306,5.115 -1,8 -0.477,-6.825 -1.477,-13.658 -3,-20.5 2.603,-1.936 4.436,-4.436 5.5,-7.5 0.278,0.916 0.778,1.582 1.5,2 -0.212,1.884 -1.212,3.217 -3,4 -0.974,2.243 -1.308,4.576 -1,7 5.667,0 11.333,0 17,0 0.317,-4.202 -0.017,-8.202 -1,-12 1.574,-1.484 2.907,-3.151 4,-5 z"
         id="path91" />
    </g>
    <g
       id="g95"
       style="clip-rule:evenodd;fill-rule:evenodd;image-rendering:optimizeQuality;shape-rendering:geometricPrecision;text-rendering:geometricPrecision"
       transform="matrix(0.26458333,0,0,0.26458333,-32.286234,5.1175854)">
      <path
         style="opacity:1"
         fill="#3980c3"
         d="m 288.5,161.5 c 2.574,1.161 4.74,2.828 6.5,5 2.316,-1.15 4.15,-2.817 5.5,-5 0.983,3.798 1.317,7.798 1,12 -5.667,0 -11.333,0 -17,0 -0.308,-2.424 0.026,-4.757 1,-7 1.788,-0.783 2.788,-2.116 3,-4 0,-0.333 0,-0.667 0,-1 z"
         id="path95" />
    </g>
    <g
       id="g96"
       style="clip-rule:evenodd;fill-rule:evenodd;image-rendering:optimizeQuality;shape-rendering:geometricPrecision;text-rendering:geometricPrecision"
       transform="matrix(0.26458333,0,0,0.26458333,-32.286234,5.1175854)">
      <path
         style="opacity:1"
         fill="#1c4f86"
         d="m 325.5,178.5 c -13.333,0 -26.667,0 -40,0 -0.904,-0.709 -1.237,-1.709 -1,-3 17.729,0.964 35.562,0.964 53.5,0 0.483,0.948 0.649,1.948 0.5,3 -4.424,-0.597 -8.757,-0.597 -13,0 z"
         id="path96" />
    </g>
    <g
       id="g103"
       style="clip-rule:evenodd;fill-rule:evenodd;image-rendering:optimizeQuality;shape-rendering:geometricPrecision;text-rendering:geometricPrecision"
       transform="matrix(0.26458333,0,0,0.26458333,-32.286234,5.1175854)">
      <path
         style="opacity:1"
         fill="#2a82d1"
         d="m 285.5,180.5 c 5.333,0 10.667,0 16,0 0,11 0,22 0,33 -0.973,2.448 -1.306,5.115 -1,8 -1.052,0.149 -2.052,-0.017 -3,-0.5 -2.446,-2.711 -4.279,-5.544 -5.5,-8.5 1.184,2.154 2.35,1.82 3.5,-1 -1.547,0.293 -3.214,-0.207 -5,-1.5 2.429,-0.451 2.596,-1.285 0.5,-2.5 -0.333,0.333 -0.667,0.667 -1,1 -0.5,-1 -1,-2 -1.5,-3 1.777,-1.401 3.444,-2.901 5,-4.5 -1.304,-0.804 -1.971,-1.971 -2,-3.5 0.64,-2.351 0.64,-4.518 0,-6.5 -0.948,-0.483 -1.948,-0.649 -3,-0.5 -1.105,-1.1 -2.438,-1.767 -4,-2 -0.306,-2.885 0.027,-5.552 1,-8 z"
         id="path103" />
    </g>
    <g
       id="g105"
       style="clip-rule:evenodd;fill-rule:evenodd;image-rendering:optimizeQuality;shape-rendering:geometricPrecision;text-rendering:geometricPrecision"
       transform="matrix(0.26458333,0,0,0.26458333,-32.286234,5.1175854)">
      <path
         style="opacity:1"
         fill="#2e86d4"
         d="m 338.5,181.5 c -0.651,4.935 -1.985,9.602 -4,14 -0.709,3.765 0.624,6.432 4,8 0.127,2.745 -1.04,4.745 -3.5,6 -0.778,5.084 -0.611,10.084 0.5,15 -2.258,0.275 -2.592,1.275 -1,3 -0.5,0.333 -1,0.667 -1.5,1 -1.49,-0.817 -2.99,-1.65 -4.5,-2.5 0.333,-0.333 0.667,-0.667 1,-1 -2.543,-0.14 -4.877,-0.806 -7,-2 0.333,-0.333 0.667,-0.667 1,-1 -1.971,-13.253 -2.638,-26.753 -2,-40.5 5.667,0 11.333,0 17,0 z"
         id="path105" />
    </g>
    <g
       id="g106"
       style="clip-rule:evenodd;fill-rule:evenodd;image-rendering:optimizeQuality;shape-rendering:geometricPrecision;text-rendering:geometricPrecision"
       transform="matrix(0.26458333,0,0,0.26458333,-32.286234,5.1175854)">
      <path
         style="opacity:1"
         fill="#cedae3"
         d="m 279.5,142.5 c 0.951,1.419 1.284,3.085 1,5 0.153,55.585 0.153,111.251 0,167 -0.547,-2.018 -1.547,-3.851 -3,-5.5 0.333,-0.333 0.667,-0.667 1,-1 -1.973,-7.518 -1.973,-15.018 0,-22.5 -0.994,-40.594 -1.328,-81.427 -1,-122.5 0.5,-0.5 1,-1 1.5,-1.5 0.5,-6.325 0.666,-12.658 0.5,-19 z"
         id="path106" />
    </g>
    <g
       id="g114"
       style="clip-rule:evenodd;fill-rule:evenodd;image-rendering:optimizeQuality;shape-rendering:geometricPrecision;text-rendering:geometricPrecision"
       transform="matrix(0.26458333,0,0,0.26458333,-32.286234,5.1175854)">
      <path
         style="opacity:1"
         fill="#12508f"
         d="m 338.5,203.5 c 1.42,7.303 1.087,14.637 -1,22 -0.667,-0.333 -1.333,-0.667 -2,-1 -1.111,-4.916 -1.278,-9.916 -0.5,-15 2.46,-1.255 3.627,-3.255 3.5,-6 z"
         id="path114" />
    </g>
    <g
       id="g119"
       style="clip-rule:evenodd;fill-rule:evenodd;image-rendering:optimizeQuality;shape-rendering:geometricPrecision;text-rendering:geometricPrecision"
       transform="matrix(0.26458333,0,0,0.26458333,-32.286234,5.1175854)">
      <path
         style="opacity:1"
         fill="#0e447e"
         d="m 284.5,188.5 c 1.562,0.233 2.895,0.9 4,2 0.165,3.682 -10e-4,7.348 -0.5,11 -4.667,2.667 -4.667,5.333 0,8 1.44,6.868 0.273,13.034 -3.5,18.5 1.524,1.194 2.69,2.694 3.5,4.5 0.667,4 0.667,8 0,12 -4.502,2.789 -4.502,5.455 0,8 0.828,4.702 0.662,9.369 -0.5,14 -1.018,0.693 -2.018,1.359 -3,2 -0.653,-20.781 -1.653,-41.447 -3,-62 0.834,-6.017 1.834,-12.017 3,-18 z"
         id="path119" />
    </g>
    <g
       id="g121"
       style="clip-rule:evenodd;fill-rule:evenodd;image-rendering:optimizeQuality;shape-rendering:geometricPrecision;text-rendering:geometricPrecision"
       transform="matrix(0.26458333,0,0,0.26458333,-32.286234,5.1175854)">
      <path
         style="opacity:1"
         fill="#163555"
         d="m 342.5,131.5 c -0.542,34.945 -0.542,69.945 0,105 -0.806,-1.497 -1.472,-3.164 -2,-5 0.474,-3.245 0.474,-6.579 0,-10 0.895,-5.593 1.228,-11.093 1,-16.5 -0.667,-1.667 -1.333,-3.333 -2,-5 1.261,-3.288 1.261,-6.621 0,-10 0.259,-1.261 0.926,-2.261 2,-3 -1.082,-5.282 -1.082,-10.782 0,-16.5 -0.355,-1.022 -1.022,-1.689 -2,-2 1.034,-12.31 2.034,-24.643 3,-37 z"
         id="path121" />
    </g>
    <g
       id="g122"
       style="clip-rule:evenodd;fill-rule:evenodd;image-rendering:optimizeQuality;shape-rendering:geometricPrecision;text-rendering:geometricPrecision"
       transform="matrix(0.26458333,0,0,0.26458333,-32.286234,5.1175854)">
      <path
         style="opacity:1"
         fill="#08427f"
         d="m 285.5,178.5 c 13.333,0 26.667,0 40,0 0,0.667 0,1.333 0,2 -1.667,0 -3.333,0 -5,0 -0.333,14.682 10e-4,29.348 1,44 3.06,1.772 5.56,4.105 7.5,7 0.667,22.333 0.667,44.667 0,67 -2.196,2.625 -5.03,3.625 -8.5,3 0,3.667 0,7.333 0,11 6,0 12,0 18,0 0.333,0 0.667,0 1,0 -0.342,0.838 -1.008,1.172 -2,1 -7.528,0.52 -15.195,1.187 -23,2 -8.141,-0.363 -16.475,-0.696 -25,-1 -0.333,-0.667 -0.667,-1.333 -1,-2 4.667,0 9.333,0 14,0 0,-3.667 0,-7.333 0,-11 -4.094,0.795 -7.261,-0.538 -9.5,-4 -0.667,-21.667 -0.667,-43.333 0,-65 1.978,-3.145 4.478,-5.812 7.5,-8 0.989,-3.607 1.323,-7.274 1,-11 0,-11 0,-22 0,-33 -5.333,0 -10.667,0 -16,0 0,-0.667 0,-1.333 0,-2 z"
         id="path122" />
    </g>
    <g
       id="g123"
       style="clip-rule:evenodd;fill-rule:evenodd;image-rendering:optimizeQuality;shape-rendering:geometricPrecision;text-rendering:geometricPrecision"
       transform="matrix(0.26458333,0,0,0.26458333,-32.286234,5.1175854)">
      <path
         style="opacity:1"
         fill="#1b67b2"
         d="m 300.5,228.5 c 1.964,-1.627 3.297,-3.627 4,-6 3.146,-0.81 4.813,-2.81 5,-6 4.72,-0.275 5.054,0.559 1,2.5 2.624,0.576 3.291,1.91 2,4 4.225,2.268 7.225,5.602 9,10 -2.391,1.309 -2.391,2.309 0,3 -1.129,2.168 -2.629,2.668 -4.5,1.5 -0.324,2.069 -1.158,2.402 -2.5,1 -2.273,0.779 -4.106,2.112 -5.5,4 -3.029,-0.785 -5.862,-1.951 -8.5,-3.5 0.542,-3.418 0.542,-6.918 0,-10.5 z"
         id="path123" />
    </g>
    <g
       id="g124"
       style="clip-rule:evenodd;fill-rule:evenodd;image-rendering:optimizeQuality;shape-rendering:geometricPrecision;text-rendering:geometricPrecision"
       transform="matrix(0.26458333,0,0,0.26458333,-32.286234,5.1175854)">
      <path
         style="opacity:1"
         fill="#1d61a4"
         d="m 299.5,245.5 c -0.322,-5.858 0.011,-11.525 1,-17 0.542,3.582 0.542,7.082 0,10.5 2.638,1.549 5.471,2.715 8.5,3.5 1.394,-1.888 3.227,-3.221 5.5,-4 1.342,1.402 2.176,1.069 2.5,-1 1.871,1.168 3.371,0.668 4.5,-1.5 -2.391,-0.691 -2.391,-1.691 0,-3 -1.775,-4.398 -4.775,-7.732 -9,-10 1.291,-2.09 0.624,-3.424 -2,-4 4.054,-1.941 3.72,-2.775 -1,-2.5 -0.187,3.19 -1.854,5.19 -5,6 0,-13.667 0,-27.333 0,-41 4.333,0 8.667,0 13,0 0.784,14.635 1.284,29.302 1.5,44 1,0.667 2,1.333 3,2 0.499,5.991 0.666,11.991 0.5,18 -7.667,0 -15.333,0 -23,0 z"
         id="path124" />
    </g>
    <g
       id="g125"
       style="clip-rule:evenodd;fill-rule:evenodd;image-rendering:optimizeQuality;shape-rendering:geometricPrecision;text-rendering:geometricPrecision"
       transform="matrix(0.26458333,0,0,0.26458333,-32.286234,5.1175854)">
      <path
         style="opacity:1"
         fill="#1c67b3"
         d="m 307.5,182.5 c 1.188,1.184 2.355,1.184 3.5,0 1.636,2.05 3.802,3.05 6.5,3 0.33,6.7 -0.003,13.366 -1,20 -1.165,0.991 -2.332,1.991 -3.5,3 -1.766,-0.733 -3.599,-1.067 -5.5,-1 0.346,-3.102 -0.321,-5.935 -2,-8.5 0.657,-1.695 0.657,-3.528 0,-5.5 0.209,-1.494 0.876,-2.661 2,-3.5 -2.62,-2.559 -2.62,-5.059 0,-7.5 z"
         id="path125" />
    </g>
    <g
       id="g126"
       style="clip-rule:evenodd;fill-rule:evenodd;image-rendering:optimizeQuality;shape-rendering:geometricPrecision;text-rendering:geometricPrecision"
       transform="matrix(0.26458333,0,0,0.26458333,-32.286234,5.1175854)">
      <path
         style="opacity:1"
         fill="#3583c9"
         d="m 288.5,190.5 c 1.052,-0.149 2.052,0.017 3,0.5 0.64,1.982 0.64,4.149 0,6.5 0.029,1.529 0.696,2.696 2,3.5 -1.556,1.599 -3.223,3.099 -5,4.5 0.5,1 1,2 1.5,3 0.333,-0.333 0.667,-0.667 1,-1 2.096,1.215 1.929,2.049 -0.5,2.5 1.786,1.293 3.453,1.793 5,1.5 -1.15,2.82 -2.316,3.154 -3.5,1 1.221,2.956 3.054,5.789 5.5,8.5 0.948,0.483 1.948,0.649 3,0.5 -0.306,-2.885 0.027,-5.552 1,-8 0.323,3.726 -0.011,7.393 -1,11 -3.022,2.188 -5.522,4.855 -7.5,8 -0.667,21.667 -0.667,43.333 0,65 2.239,3.462 5.406,4.795 9.5,4 0,3.667 0,7.333 0,11 -4.667,0 -9.333,0 -14,0 -1.333,0 -2.667,0 -4,0 -0.202,-2.45 0.131,-4.783 1,-7 2.488,-1.556 3.488,-3.889 3,-7 -0.167,-1.667 -0.333,-3.333 -0.5,-5 -3.853,-2.136 -4.187,-4.469 -1,-7 0.499,-4.321 0.666,-8.654 0.5,-13 -1.425,-1.422 -2.425,-3.089 -3,-5 0.982,-0.641 1.982,-1.307 3,-2 1.162,-4.631 1.328,-9.298 0.5,-14 -4.502,-2.545 -4.502,-5.211 0,-8 0.667,-4 0.667,-8 0,-12 -0.81,-1.806 -1.976,-3.306 -3.5,-4.5 3.773,-5.466 4.94,-11.632 3.5,-18.5 -4.667,-2.667 -4.667,-5.333 0,-8 0.499,-3.652 0.665,-7.318 0.5,-11 z"
         id="path126" />
    </g>
    <g
       id="g129"
       style="clip-rule:evenodd;fill-rule:evenodd;image-rendering:optimizeQuality;shape-rendering:geometricPrecision;text-rendering:geometricPrecision"
       transform="matrix(0.26458333,0,0,0.26458333,-32.286234,5.1175854)">
      <path
         style="opacity:1"
         fill="#184f86"
         d="m 339.5,247.5 c 0.634,8.403 -0.033,16.403 -2,24 1.29,-2.692 0.457,-4.692 -2.5,-6 -0.667,-4.333 -0.667,-8.667 0,-13 4.436,-2.5 4.602,-5.166 0.5,-8 0.666,-3.853 1.333,-7.853 2,-12 1.743,4.827 2.41,9.827 2,15 z"
         id="path129" />
    </g>
    <g
       id="g130"
       style="clip-rule:evenodd;fill-rule:evenodd;image-rendering:optimizeQuality;shape-rendering:geometricPrecision;text-rendering:geometricPrecision"
       transform="matrix(0.26458333,0,0,0.26458333,-32.286234,5.1175854)">
      <path
         style="opacity:1"
         fill="#cddbe3"
         d="m 341.5,44.5 c 0.617,0.1107 1.117,0.444 1.5,1 0.309,5.7605 1.142,11.4271 2.5,17 -0.069,29.22 -0.403,59.053 -1,89.5 0.667,1.667 1.333,3.333 2,5 -1.546,10.55 -2.213,21.216 -2,32 -0.147,35.181 0.187,70.014 1,104.5 -0.548,7.208 -1.548,14.208 -3,21 0,-23.333 0,-46.667 0,-70 0,-2.667 0,-5.333 0,-8 -0.542,-35.055 -0.542,-70.055 0,-105 0,-0.667 0,-1.333 0,-2 0.254,-28.347 -0.079,-56.6802 -1,-85 z"
         id="path130" />
    </g>
    <g
       id="g133"
       style="clip-rule:evenodd;fill-rule:evenodd;image-rendering:optimizeQuality;shape-rendering:geometricPrecision;text-rendering:geometricPrecision"
       transform="matrix(0.26458333,0,0,0.26458333,-32.286234,5.1175854)">
      <path
         style="opacity:1"
         fill="#215993"
         d="m 324.5,278.5 c -1.297,-1.349 -1.13,-2.682 0.5,-4 0.5,-8.66 0.666,-17.327 0.5,-26 -0.328,-5.375 0.005,-10.708 1,-16 0.999,15.319 1.333,30.652 1,46 -1,0 -2,0 -3,0 z"
         id="path133" />
    </g>
    <g
       id="g134"
       style="clip-rule:evenodd;fill-rule:evenodd;image-rendering:optimizeQuality;shape-rendering:geometricPrecision;text-rendering:geometricPrecision"
       transform="matrix(0.26458333,0,0,0.26458333,-32.286234,5.1175854)">
      <path
         style="opacity:1"
         fill="#3a88ce"
         d="m 334.5,235.5 c -0.31,3.213 0.023,6.213 1,9 4.102,2.834 3.936,5.5 -0.5,8 -0.667,4.333 -0.667,8.667 0,13 2.957,1.308 3.79,3.308 2.5,6 -0.667,0 -1,0.333 -1,1 -0.617,0.111 -1.117,0.444 -1.5,1 -0.667,4 -0.667,8 0,12 4.445,2.513 4.612,5.18 0.5,8 -0.333,1.5 -0.667,3 -1,4.5 1.214,4.644 2.547,9.144 4,13.5 -2.687,0.164 -5.354,-0.003 -8,-0.5 6.569,-0.919 7.236,-3.085 2,-6.5 0.132,-1.463 0.465,-2.963 1,-4.5 -0.509,-1.169 -1.342,-2.002 -2.5,-2.5 -0.667,-21.333 -0.667,-42.667 0,-64 0.333,0.667 0.667,1.333 1,2 0.77,-1.098 1.603,-1.098 2.5,0 z"
         id="path134" />
    </g>
    <g
       id="g135"
       style="clip-rule:evenodd;fill-rule:evenodd;image-rendering:optimizeQuality;shape-rendering:geometricPrecision;text-rendering:geometricPrecision"
       transform="matrix(0.26458333,0,0,0.26458333,-32.286234,5.1175854)">
      <path
         style="opacity:1"
         fill="#0d3765"
         d="m 281.5,206.5 c 1.347,20.553 2.347,41.219 3,62 0.575,1.911 1.575,3.578 3,5 -0.722,0.418 -1.222,1.084 -1.5,2 -0.333,-0.667 -0.667,-1.333 -1,-2 -0.972,3.597 -1.472,7.264 -1.5,11 0.584,4.088 0.584,8.088 0,12 0.821,3.342 1.488,6.342 2,9 -0.869,2.217 -1.202,4.55 -1,7 1.333,0 2.667,0 4,0 0.333,0.667 0.667,1.333 1,2 -1,0 -2,0 -3,0 -1.53,-0.567 -3.03,-1.233 -4.5,-2 -0.5,-35.332 -0.667,-70.665 -0.5,-106 z"
         id="path135" />
    </g>
    <g
       id="g136"
       style="clip-rule:evenodd;fill-rule:evenodd;image-rendering:optimizeQuality;shape-rendering:geometricPrecision;text-rendering:geometricPrecision"
       transform="matrix(0.26458333,0,0,0.26458333,-32.286234,5.1175854)">
      <path
         style="opacity:1"
         fill="#1c3b5e"
         d="m 280.5,147.5 c 1.75,1.159 2.75,2.826 3,5 1.932,2.866 3.599,5.866 5,9 0,0.333 0,0.667 0,1 -0.722,-0.418 -1.222,-1.084 -1.5,-2 -1.064,3.064 -2.897,5.564 -5.5,7.5 1.523,6.842 2.523,13.675 3,20.5 -1.166,5.983 -2.166,11.983 -3,18 -0.167,35.335 0,70.668 0.5,106 1.47,0.767 2.97,1.433 4.5,2 -0.086,0.996 0.248,1.829 1,2.5 15.673,0.616 31.34,0.95 47,1 2.363,-0.589 3.363,-2.089 3,-4.5 0.992,0.172 1.658,-0.162 2,-1 0,-0.333 0,-0.667 0,-1 1.327,-4.283 1.993,-8.949 2,-14 0.332,-14.332 -0.002,-28.665 -1,-43 0.597,-3.471 1.264,-6.805 2,-10 0,23.333 0,46.667 0,70 0,0.667 -0.333,1 -1,1 -1,0 -2,0 -3,0 0,1.333 0,2.667 0,4 -17.495,1.162 -35.162,1.329 -53,0.5 -0.837,-1.011 -1.17,-2.178 -1,-3.5 -1.88,0.271 -3.213,-0.396 -4,-2 0.153,-55.749 0.153,-111.415 0,-167 z"
         id="path136" />
    </g>
    <g
       id="g137"
       style="clip-rule:evenodd;fill-rule:evenodd;image-rendering:optimizeQuality;shape-rendering:geometricPrecision;text-rendering:geometricPrecision"
       transform="matrix(0.26458333,0,0,0.26458333,-32.286234,5.1175854)">
      <path
         style="opacity:1"
         fill="#28629b"
         d="m 298.5,277.5 c -0.848,1.125 -1.848,1.125 -3,0 0.322,-12.58 -0.011,-25.08 -1,-37.5 0.774,-2.405 1.274,-4.905 1.5,-7.5 -0.098,15.169 0.735,30.169 2.5,45 z"
         id="path137" />
    </g>
    <g
       id="g141"
       style="clip-rule:evenodd;fill-rule:evenodd;image-rendering:optimizeQuality;shape-rendering:geometricPrecision;text-rendering:geometricPrecision"
       transform="matrix(0.26458333,0,0,0.26458333,-32.286234,5.1175854)">
      <path
         style="opacity:1"
         fill="#073c74"
         d="m 325.5,248.5 c 0.166,8.673 0,17.34 -0.5,26 -1.63,1.318 -1.797,2.651 -0.5,4 0.763,0.768 1.763,1.268 3,1.5 -1.68,0.347 -2.68,1.347 -3,3 1.467,5.576 1.301,11.076 -0.5,16.5 -0.173,-5.848 -0.673,-11.515 -1.5,-17 -7.148,-0.992 -14.481,-1.325 -22,-1 0.237,1.291 -0.096,2.291 -1,3 -0.667,0 -1.333,0 -2,0 0,-1 0,-2 0,-3 -1.679,-0.215 -2.679,0.452 -3,2 -1.156,-7.489 -1.322,-15.155 -0.5,-23 0.173,5.848 0.673,11.515 1.5,17 1.152,1.125 2.152,1.125 3,0 4.261,2.128 8.595,2.461 13,1 3,0 6,0 9,0 0,-1 0,-2 0,-3 -2.336,-1.094 -2.336,-2.427 0,-4 0,0.667 0.333,1 1,1 0.06,0.543 0.393,0.876 1,1 1.32,-8.157 1.32,-16.157 0,-24 -7.667,-1.333 -15.333,-1.333 -23,0 0,1.667 0,3.333 0,5 3,0 6,0 9,0 -0.111,0.617 -0.444,1.117 -1,1.5 -2.982,0.498 -5.982,0.665 -9,0.5 -1.227,16.312 -0.894,12.645 1,-11 7.816,0.992 15.816,1.326 24,1 -0.16,-1.699 0.006,-3.366 0.5,-5 0.186,2.536 0.686,4.869 1.5,7 z"
         id="path141" />
    </g>
    <g
       id="g142"
       style="clip-rule:evenodd;fill-rule:evenodd;image-rendering:optimizeQuality;shape-rendering:geometricPrecision;text-rendering:geometricPrecision"
       transform="matrix(0.26458333,0,0,0.26458333,-32.286234,5.1175854)">
      <path
         style="opacity:1"
         fill="#2d6cab"
         d="m 320.5,275.5 c 0,1 0,2 0,3 -3,0 -6,0 -9,0 -3,0 -6,0 -9,0 0,-1 0,-2 0,-3 6,0 12,0 18,0 z"
         id="path142" />
    </g>
    <g
       id="g143"
       style="clip-rule:evenodd;fill-rule:evenodd;image-rendering:optimizeQuality;shape-rendering:geometricPrecision;text-rendering:geometricPrecision"
       transform="matrix(0.26458333,0,0,0.26458333,-32.286234,5.1175854)">
      <path
         style="opacity:1"
         fill="#226bb0"
         d="m 309.5,257.5 c 1.175,-0.219 2.175,0.114 3,1 2,4.333 4,8.667 6,13 -4.62,0.993 -9.286,1.327 -14,1 1.38,-5.094 3.047,-10.094 5,-15 z"
         id="path143" />
    </g>
    <g
       id="g144"
       style="clip-rule:evenodd;fill-rule:evenodd;image-rendering:optimizeQuality;shape-rendering:geometricPrecision;text-rendering:geometricPrecision"
       transform="matrix(0.26458333,0,0,0.26458333,-32.286234,5.1175854)">
      <path
         style="opacity:1"
         fill="#286bac"
         d="m 321.5,272.5 c -0.667,0 -1,-0.333 -1,-1 -1.369,-4.412 -3.036,-8.746 -5,-13 2.243,-0.974 4.576,-1.308 7,-1 0.321,5.195 -0.013,10.195 -1,15 z"
         id="path144" />
    </g>
    <g
       id="g145"
       style="clip-rule:evenodd;fill-rule:evenodd;image-rendering:optimizeQuality;shape-rendering:geometricPrecision;text-rendering:geometricPrecision"
       transform="matrix(0.26458333,0,0,0.26458333,-32.286234,5.1175854)">
      <path
         style="opacity:1"
         fill="#2868aa"
         d="m 299.5,257.5 c 2.687,-0.164 5.354,0.003 8,0.5 -2.739,4.644 -5.072,9.477 -7,14.5 -0.994,-4.956 -1.327,-9.956 -1,-15 z"
         id="path145" />
    </g>
    <g
       id="g146"
       style="clip-rule:evenodd;fill-rule:evenodd;image-rendering:optimizeQuality;shape-rendering:geometricPrecision;text-rendering:geometricPrecision"
       transform="matrix(0.26458333,0,0,0.26458333,-32.286234,5.1175854)">
      <path
         style="opacity:1"
         fill="#225b98"
         d="m 322.5,249.5 c 0,1.667 0,3.333 0,5 -3.333,0 -6.667,0 -10,0 0.262,-1.478 -0.071,-2.811 -1,-4 -0.557,1.832 -1.557,3.165 -3,4 -3,0 -6,0 -9,0 0,-1.667 0,-3.333 0,-5 7.667,-1.333 15.333,-1.333 23,0 z"
         id="path146" />
    </g>
    <g
       id="g149"
       style="clip-rule:evenodd;fill-rule:evenodd;image-rendering:optimizeQuality;shape-rendering:geometricPrecision;text-rendering:geometricPrecision"
       transform="matrix(0.26458333,0,0,0.26458333,-32.286234,5.1175854)">
      <path
         style="opacity:1"
         fill="#1f63a5"
         d="m 322.5,282.5 c 0.328,5.375 -0.005,10.708 -1,16 -1.018,0.693 -2.018,1.359 -3,2 -1.36,-4.566 -2.193,-9.566 -2.5,-15 -1.147,0.958 -2.147,0.625 -3,-1 -0.324,2.069 -1.158,2.402 -2.5,1 -1,0.5 -2,1 -3,1.5 1.833,0.5 3,1.667 3.5,3.5 2.359,-4.077 3.859,-3.743 4.5,1 -3.795,1.086 -6.795,2.419 -9,4 0.128,-2.155 -0.372,-4.155 -1.5,-6 -1.852,2.847 -1.352,5.347 1.5,7.5 -0.194,1.903 -0.194,3.737 0,5.5 -0.494,1.526 -1.161,2.859 -2,4 0,-2 0,-4 0,-6 -1.89,0.203 -3.39,-0.463 -4.5,-2 -0.499,-4.655 -0.666,-9.321 -0.5,-14 0.904,-0.709 1.237,-1.709 1,-3 7.519,-0.325 14.852,0.008 22,1 z"
         id="path149" />
    </g>
    <g
       id="g150"
       style="clip-rule:evenodd;fill-rule:evenodd;image-rendering:optimizeQuality;shape-rendering:geometricPrecision;text-rendering:geometricPrecision"
       transform="matrix(0.26458333,0,0,0.26458333,-32.286234,5.1175854)">
      <path
         style="opacity:1"
         fill="#114884"
         d="m 287.5,273.5 c 0.166,4.346 -10e-4,8.679 -0.5,13 -3.187,2.531 -2.853,4.864 1,7 0.167,1.667 0.333,3.333 0.5,5 0.488,3.111 -0.512,5.444 -3,7 -0.512,-2.658 -1.179,-5.658 -2,-9 0.584,-3.912 0.584,-7.912 0,-12 0.028,-3.736 0.528,-7.403 1.5,-11 0.333,0.667 0.667,1.333 1,2 0.278,-0.916 0.778,-1.582 1.5,-2 z"
         id="path150" />
    </g>
    <g
       id="g151"
       style="clip-rule:evenodd;fill-rule:evenodd;image-rendering:optimizeQuality;shape-rendering:geometricPrecision;text-rendering:geometricPrecision"
       transform="matrix(0.26458333,0,0,0.26458333,-32.286234,5.1175854)">
      <path
         style="opacity:1"
         fill="#1f5691"
         d="m 297.5,284.5 c 0.088,5.279 0.088,10.279 0,15 -1.299,-0.59 -2.132,-1.59 -2.5,-3 -0.499,-4.321 -0.666,-8.654 -0.5,-13 0.321,-1.548 1.321,-2.215 3,-2 0,1 0,2 0,3 z"
         id="path151" />
    </g>
    <g
       id="g165"
       style="clip-rule:evenodd;fill-rule:evenodd;image-rendering:optimizeQuality;shape-rendering:geometricPrecision;text-rendering:geometricPrecision"
       transform="matrix(0.26458333,0,0,0.26458333,-32.286234,5.1175854)">
      <path
         style="opacity:1"
         fill="#0d3460"
         d="m 340.5,221.5 c 0.474,3.421 0.474,6.755 0,10 0.528,1.836 1.194,3.503 2,5 0,2.667 0,5.333 0,8 -0.736,3.195 -1.403,6.529 -2,10 0.998,14.335 1.332,28.668 1,43 -0.007,5.051 -0.673,9.717 -2,14 0.332,-12.684 -10e-4,-25.351 -1,-38 -1.444,1.481 -2.111,1.148 -2,-1 0,-0.667 0.333,-1 1,-1 1.967,-7.597 2.634,-15.597 2,-24 0.333,-8.667 0.667,-17.333 1,-26 z"
         id="path165" />
    </g>
    <g
       id="g166"
       style="clip-rule:evenodd;fill-rule:evenodd;image-rendering:optimizeQuality;shape-rendering:geometricPrecision;text-rendering:geometricPrecision"
       transform="matrix(0.26458333,0,0,0.26458333,-32.286234,5.1175854)">
      <path
         style="opacity:1"
         fill="#2c7dc5"
         d="m 325.5,180.5 c 4.532,-0.318 8.866,0.015 13,1 -5.667,0 -11.333,0 -17,0 -0.638,13.747 0.029,27.247 2,40.5 -0.333,0.333 -0.667,0.667 -1,1 2.123,1.194 4.457,1.86 7,2 -0.333,0.333 -0.667,0.667 -1,1 1.51,0.85 3.01,1.683 4.5,2.5 0.5,-0.333 1,-0.667 1.5,-1 -1.592,-1.725 -1.258,-2.725 1,-3 0.667,0.333 1.333,0.667 2,1 0.624,0.417 0.957,1.084 1,2 -2.667,2 -4,4.667 -4,8 -0.897,-1.098 -1.73,-1.098 -2.5,0 -0.333,-0.667 -0.667,-1.333 -1,-2 -0.667,21.333 -0.667,42.667 0,64 1.158,0.498 1.991,1.331 2.5,2.5 -0.535,1.537 -0.868,3.037 -1,4.5 5.236,3.415 4.569,5.581 -2,6.5 2.646,0.497 5.313,0.664 8,0.5 0,0.333 0,0.667 0,1 -6,0 -12,0 -18,0 0,-3.667 0,-7.333 0,-11 3.47,0.625 6.304,-0.375 8.5,-3 0.667,-22.333 0.667,-44.667 0,-67 -1.94,-2.895 -4.44,-5.228 -7.5,-7 -0.999,-14.652 -1.333,-29.318 -1,-44 1.667,0 3.333,0 5,0 z"
         id="path166" />
    </g>
    <g
       id="g167"
       style="clip-rule:evenodd;fill-rule:evenodd;image-rendering:optimizeQuality;shape-rendering:geometricPrecision;text-rendering:geometricPrecision"
       transform="matrix(0.26458333,0,0,0.26458333,-32.286234,5.1175854)">
      <path
         style="opacity:1"
         fill="#164d86"
         d="m 336.5,272.5 c -0.111,2.148 0.556,2.481 2,1 0.999,12.649 1.332,25.316 1,38 0,0.333 0,0.667 0,1 -0.333,0 -0.667,0 -1,0 0,-0.333 0,-0.667 0,-1 -1.453,-4.356 -2.786,-8.856 -4,-13.5 0.333,-1.5 0.667,-3 1,-4.5 4.112,-2.82 3.945,-5.487 -0.5,-8 -0.667,-4 -0.667,-8 0,-12 0.383,-0.556 0.883,-0.889 1.5,-1 z"
         id="path167" />
    </g>
    <g
       id="g169"
       style="clip-rule:evenodd;fill-rule:evenodd;image-rendering:optimizeQuality;shape-rendering:geometricPrecision;text-rendering:geometricPrecision"
       transform="matrix(0.26458333,0,0,0.26458333,-32.286234,5.1175854)">
      <path
         style="opacity:1"
         fill="#1e66af"
         d="m 318.5,300.5 c 0,4 0,8 0,12 -4.667,0 -9.333,0 -14,0 0,-2 0,-4 0,-6 0.839,-1.141 1.506,-2.474 2,-4 -0.194,-1.763 -0.194,-3.597 0,-5.5 -2.852,-2.153 -3.352,-4.653 -1.5,-7.5 1.128,1.845 1.628,3.845 1.5,6 2.205,-1.581 5.205,-2.914 9,-4 -0.641,-4.743 -2.141,-5.077 -4.5,-1 -0.5,-1.833 -1.667,-3 -3.5,-3.5 1,-0.5 2,-1 3,-1.5 1.342,1.402 2.176,1.069 2.5,-1 0.853,1.625 1.853,1.958 3,1 0.307,5.434 1.14,10.434 2.5,15 z"
         id="path169" />
    </g>
    <g
       id="g178"
       style="clip-rule:evenodd;fill-rule:evenodd;image-rendering:optimizeQuality;shape-rendering:geometricPrecision;text-rendering:geometricPrecision"
       transform="matrix(0.26458333,0,0,0.26458333,-32.286234,5.1175854)">
      <path
         style="opacity:1"
         fill="#215286"
         d="m 337.5,313.5 c 0.363,2.411 -0.637,3.911 -3,4.5 -15.66,-0.05 -31.327,-0.384 -47,-1 -0.752,-0.671 -1.086,-1.504 -1,-2.5 1,0 2,0 3,0 8.525,0.304 16.859,0.637 25,1 7.805,-0.813 15.472,-1.48 23,-2 z"
         id="path178" />
    </g>
    <g
       id="g180"
       style="clip-rule:evenodd;fill-rule:evenodd;image-rendering:optimizeQuality;shape-rendering:geometricPrecision;text-rendering:geometricPrecision"
       transform="matrix(0.26458333,0,0,0.26458333,-32.286234,5.1175854)">
      <path
         style="opacity:1"
         fill="#758da4"
         d="m 341.5,315.5 c -1.159,1.24 -2.159,2.574 -3,4 0,-1.333 0,-2.667 0,-4 1,0 2,0 3,0 z"
         id="path180" />
    </g>
  </g>
</svg>
