<?xml version="1.0" encoding="UTF-8" standalone="no"?>
<!-- Created with Inkscape (http://www.inkscape.org/) -->

<svg
   width="96mm"
   height="96mm"
   viewBox="0 0 96 96"
   version="1.1"
   id="svg1"
   inkscape:version="1.4.2 (ebf0e940, 2025-05-08)"
   sodipodi:docname="bicycle.svg"
   xmlns:inkscape="http://www.inkscape.org/namespaces/inkscape"
   xmlns:sodipodi="http://sodipodi.sourceforge.net/DTD/sodipodi-0.dtd"
   xmlns="http://www.w3.org/2000/svg"
   xmlns:svg="http://www.w3.org/2000/svg">
  <sodipodi:namedview
     id="namedview1"
     pagecolor="#ffffff"
     bordercolor="#000000"
     borderopacity="0.25"
     inkscape:showpageshadow="2"
     inkscape:pageopacity="0.0"
     inkscape:pagecheckerboard="0"
     inkscape:deskcolor="#d1d1d1"
     inkscape:document-units="mm"
     inkscape:zoom="0.80444024"
     inkscape:cx="397.17059"
     inkscape:cy="262.91574"
     inkscape:window-width="1920"
     inkscape:window-height="1052"
     inkscape:window-x="0"
     inkscape:window-y="28"
     inkscape:window-maximized="0"
     inkscape:current-layer="layer1" />
  <defs
     id="defs1" />
  <g
     inkscape:label="Layer 1"
     inkscape:groupmode="layer"
     id="layer1">
    <g
       id="g8"
       style="clip-rule:evenodd;fill-rule:evenodd;image-rendering:optimizeQuality;shape-rendering:geometricPrecision;text-rendering:geometricPrecision"
       transform="matrix(0.28194256,0,0,0.28194256,-7.1352758,-2.4892624)">
      <path
         style="opacity:1"
         fill="#1a5a99"
         d="m 195.5,103.5 c 0.321,1.548 1.321,2.215 3,2 0.651,-0.591 1.318,-1.257 2,-2 1.54,1.937 3.54,3.104 6,3.5 -0.556,0.383 -0.889,0.883 -1,1.5 -10,0 -20,0 -30,0 -0.333,-1.333 -0.667,-2.667 -1,-4 1,0 2,0 3,0 1,1.333 2,1.333 3,0 0.667,-17.5046 1.333,-35.1713 2,-53 4.551,-5.6365 8.384,-5.3031 11.5,1 0.168,17.1716 0.668,34.1716 1.5,51 z"
         id="path8" />
    </g>
    <g
       id="g20"
       style="clip-rule:evenodd;fill-rule:evenodd;image-rendering:optimizeQuality;shape-rendering:geometricPrecision;text-rendering:geometricPrecision"
       transform="matrix(0.28194256,0,0,0.28194256,-7.1352758,-2.4892624)">
      <path
         style="opacity:1"
         fill="#c5e7f9"
         d="m 180.5,51.5 c 0,17.6667 0,35.3333 0,53 -1.646,-5.4273 -2.646,-11.094 -3,-17 -1,0 -2,0 -3,0 1.419,-0.9511 3.085,-1.2845 5,-1 -0.328,-11.8453 0.005,-23.512 1,-35 z"
         id="path20" />
    </g>
    <g
       id="g22"
       style="clip-rule:evenodd;fill-rule:evenodd;image-rendering:optimizeQuality;shape-rendering:geometricPrecision;text-rendering:geometricPrecision"
       transform="matrix(0.28194256,0,0,0.28194256,-7.1352758,-2.4892624)">
      <path
         style="opacity:1"
         fill="#e3f1f7"
         d="m 236.5,99.5 c -1.333,-0.3333 -2.667,-0.6667 -4,-1 -2.307,-1.5468 -4.973,-2.2135 -8,-2 -2,0.1667 -4,0.3333 -6,0.5 -1.442,0.3768 -2.442,1.2101 -3,2.5 -2.432,1.25 -4.766,2.75 -7,4.5 -1.973,0.495 -3.973,0.662 -6,0.5 0.322,-5.858 -0.011,-11.5247 -1,-17 -1,0 -2,0 -3,0 -0.667,0 -1.333,0 -2,0 0.328,-12.1783 -0.005,-24.1783 -1,-36 -2.318,-5.4881 -6.318,-7.1548 -12,-5 0,-1 0,-2 0,-3 5.71,-1.2254 10.21,0.4413 13.5,5 1.439,12.2581 1.939,24.5915 1.5,37 2.082,-0.028 3.916,0.6387 5.5,2 1.062,4.137 1.895,8.3036 2.5,12.5 4.433,0.07 7.933,-1.7636 10.5,-5.5 5.298,-0.0663 10.798,0.1003 16.5,0.5 1.383,1.2708 2.383,2.7708 3,4.5 z"
         id="path22" />
    </g>
    <g
       id="g27"
       style="clip-rule:evenodd;fill-rule:evenodd;image-rendering:optimizeQuality;shape-rendering:geometricPrecision;text-rendering:geometricPrecision"
       transform="matrix(0.28194256,0,0,0.28194256,-7.1352758,-2.4892624)">
      <path
         style="opacity:1"
         fill="#9cc1de"
         d="m 195.5,51.5 c 0.995,11.8217 1.328,23.8217 1,36 -0.166,5.6764 0.001,11.3431 0.5,17 0.173,-5.5158 0.673,-10.8491 1.5,-16 0,2.6667 0,5.3333 0,8 0,3 0,6 0,9 -1.679,0.215 -2.679,-0.452 -3,-2 0,-17.3333 0,-34.6667 0,-52 z"
         id="path27" />
    </g>
    <g
       id="g35"
       style="clip-rule:evenodd;fill-rule:evenodd;image-rendering:optimizeQuality;shape-rendering:geometricPrecision;text-rendering:geometricPrecision"
       transform="matrix(0.28194256,0,0,0.28194256,-7.1352758,-2.4892624)">
      <path
         style="opacity:1"
         fill="#3e6994"
         d="m 195.5,51.5 c 0,17.3333 0,34.6667 0,52 -0.832,-16.8284 -1.332,-33.8284 -1.5,-51 -3.116,-6.3031 -6.949,-6.6365 -11.5,-1 -0.667,17.8287 -1.333,35.4954 -2,53 0,-17.6667 0,-35.3333 0,-53 0.748,-1.8325 1.748,-3.4991 3,-5 5.682,-2.1548 9.682,-0.4881 12,5 z"
         id="path35" />
    </g>
    <g
       id="g57"
       style="clip-rule:evenodd;fill-rule:evenodd;image-rendering:optimizeQuality;shape-rendering:geometricPrecision;text-rendering:geometricPrecision"
       transform="matrix(0.28194256,0,0,0.28194256,-7.1352758,-2.4892624)">
      <path
         style="opacity:1"
         fill="#22527e"
         d="m 174.5,87.5 c 1,0 2,0 3,0 0,5.6667 0,11.3333 0,17 -1,0 -2,0 -3,0 0,-5.3333 0,-10.6667 0,-16 0,-0.3333 0,-0.6667 0,-1 z"
         id="path57" />
    </g>
    <g
       id="g63"
       style="clip-rule:evenodd;fill-rule:evenodd;image-rendering:optimizeQuality;shape-rendering:geometricPrecision;text-rendering:geometricPrecision"
       transform="matrix(0.28194256,0,0,0.28194256,-7.1352758,-2.4892624)">
      <path
         style="opacity:1"
         fill="#c1ecf9"
         d="m 196.5,87.5 c 0.667,0 1.333,0 2,0 0,0.3333 0,0.6667 0,1 -0.827,5.1509 -1.327,10.4842 -1.5,16 -0.499,-5.6569 -0.666,-11.3236 -0.5,-17 z"
         id="path63" />
    </g>
    <g
       id="g66"
       style="clip-rule:evenodd;fill-rule:evenodd;image-rendering:optimizeQuality;shape-rendering:geometricPrecision;text-rendering:geometricPrecision"
       transform="matrix(0.28194256,0,0,0.28194256,-7.1352758,-2.4892624)">
      <path
         style="opacity:1"
         fill="#1d4c7c"
         d="m 198.5,87.5 c 1,0 2,0 3,0 0.166,5.0111 -0.001,10.0111 -0.5,15 -0.037,-2.474 -0.87,-4.4739 -2.5,-6 0,-2.6667 0,-5.3333 0,-8 0,-0.3333 0,-0.6667 0,-1 z"
         id="path66" />
    </g>
    <g
       id="g67"
       style="clip-rule:evenodd;fill-rule:evenodd;image-rendering:optimizeQuality;shape-rendering:geometricPrecision;text-rendering:geometricPrecision"
       transform="matrix(0.28194256,0,0,0.28194256,-7.1352758,-2.4892624)">
      <path
         style="opacity:1"
         fill="#48749d"
         d="m 232.5,98.5 c -2.687,-0.1641 -5.354,0.0026 -8,0.5 1.237,0.2321 2.237,0.7321 3,1.5 -1.667,0 -3.333,0 -5,0 1.554,-1.3946 1.221,-2.0613 -1,-2 -1.953,0.6556 -3.953,0.9889 -6,1 0.558,-1.2899 1.558,-2.1232 3,-2.5 2,-0.1667 4,-0.3333 6,-0.5 3.027,-0.2135 5.693,0.4532 8,2 z"
         id="path67" />
    </g>
    <g
       id="g70"
       style="clip-rule:evenodd;fill-rule:evenodd;image-rendering:optimizeQuality;shape-rendering:geometricPrecision;text-rendering:geometricPrecision"
       transform="matrix(0.28194256,0,0,0.28194256,-7.1352758,-2.4892624)">
      <path
         style="opacity:1"
         fill="#73a1bf"
         d="m 177.5,87.5 c 0.354,5.906 1.354,11.5727 3,17 -1,1.333 -2,1.333 -3,0 0,-5.6667 0,-11.3333 0,-17 z"
         id="path70" />
    </g>
    <g
       id="g71"
       style="clip-rule:evenodd;fill-rule:evenodd;image-rendering:optimizeQuality;shape-rendering:geometricPrecision;text-rendering:geometricPrecision"
       transform="matrix(0.28194256,0,0,0.28194256,-7.1352758,-2.4892624)">
      <path
         style="opacity:1"
         fill="#daedf4"
         d="m 236.5,99.5 c 4.605,1.138 8.438,3.471 11.5,7 0.49,1.293 0.657,2.627 0.5,4 -4.211,-3.325 -8.211,-6.992 -12,-11 z"
         id="path71" />
    </g>
    <g
       id="g77"
       style="clip-rule:evenodd;fill-rule:evenodd;image-rendering:optimizeQuality;shape-rendering:geometricPrecision;text-rendering:geometricPrecision"
       transform="matrix(0.28194256,0,0,0.28194256,-7.1352758,-2.4892624)">
      <path
         style="opacity:1"
         fill="#badcf3"
         d="m 172.5,87.5 c 0.667,0 1.333,0 2,0 0,0.3333 0,0.6667 0,1 -0.988,5.1405 -1.321,10.4738 -1,16 -2.235,0.295 -4.235,-0.039 -6,-1 1.667,0 3.333,0 5,0 0,-5.3333 0,-10.6667 0,-16 z"
         id="path77" />
    </g>
    <g
       id="g78"
       style="clip-rule:evenodd;fill-rule:evenodd;image-rendering:optimizeQuality;shape-rendering:geometricPrecision;text-rendering:geometricPrecision"
       transform="matrix(0.28194256,0,0,0.28194256,-7.1352758,-2.4892624)">
      <path
         style="opacity:1"
         fill="#78b4e7"
         d="m 175.5,108.5 c 10,0 20,0 30,0 4.802,-0.624 8.802,-2.791 12,-6.5 1.525,-1.009 3.192,-1.509 5,-1.5 1.667,0 3.333,0 5,0 5.322,1.193 8.656,4.026 10,8.5 -3.096,0.927 -5.43,-0.073 -7,-3 -3,-0.667 -6,-0.667 -9,0 -3.968,2.32 -7.968,4.653 -12,7 -1.293,0.49 -2.627,0.657 -4,0.5 -13.049,0.296 -26.049,-0.037 -39,-1 -4.345,-1.507 -8.345,-3.673 -12,-6.5 -5.657,-1.718 -10.157,-0.218 -13.5,4.5 -1.236,-0.899 -2.07,-2.066 -2.5,-3.5 4.154,-6.063 9.82,-8.0629 17,-6 4.239,1.902 8.239,4.235 12,7 2.646,0.497 5.313,0.664 8,0.5 z"
         id="path78" />
    </g>
    <g
       id="g82"
       style="clip-rule:evenodd;fill-rule:evenodd;image-rendering:optimizeQuality;shape-rendering:geometricPrecision;text-rendering:geometricPrecision"
       transform="matrix(0.28194256,0,0,0.28194256,-7.1352758,-2.4892624)">
      <path
         style="opacity:1"
         fill="#2d6090"
         d="m 201.5,87.5 c 0.989,5.4753 1.322,11.142 1,17 2.027,0.162 4.027,-0.005 6,-0.5 2.234,-1.75 4.568,-3.25 7,-4.5 2.047,-0.0111 4.047,-0.3444 6,-1 2.221,-0.0613 2.554,0.6054 1,2 -1.808,-0.009 -3.475,0.491 -5,1.5 -3.198,3.709 -7.198,5.876 -12,6.5 0.111,-0.617 0.444,-1.117 1,-1.5 -2.46,-0.396 -4.46,-1.563 -6,-3.5 -0.682,0.743 -1.349,1.409 -2,2 0,-3 0,-6 0,-9 1.63,1.5261 2.463,3.526 2.5,6 0.499,-4.9889 0.666,-9.9889 0.5,-15 z"
         id="path82" />
    </g>
    <g
       id="g86"
       style="clip-rule:evenodd;fill-rule:evenodd;image-rendering:optimizeQuality;shape-rendering:geometricPrecision;text-rendering:geometricPrecision"
       transform="matrix(0.28194256,0,0,0.28194256,-7.1352758,-2.4892624)">
      <path
         style="opacity:1"
         fill="#2b5d8f"
         d="m 174.5,88.5 c 0,5.3333 0,10.6667 0,16 0.333,1.333 0.667,2.667 1,4 -2.687,0.164 -5.354,-0.003 -8,-0.5 -3.761,-2.765 -7.761,-5.098 -12,-7 -7.18,-2.0629 -12.846,-0.063 -17,6 0.43,1.434 1.264,2.601 2.5,3.5 3.343,-4.718 7.843,-6.218 13.5,-4.5 3.655,2.827 7.655,4.993 12,6.5 0.321,1.548 1.321,2.215 3,2 1.09,1.357 2.424,2.357 4,3 -1.667,0 -3.333,0 -5,0 -0.333,0 -0.667,0 -1,0 -5.642,-2.622 -11.308,-5.288 -17,-8 -1,0.167 -2,0.333 -3,0.5 -3.048,3.29 -5.715,6.79 -8,10.5 -3.95,4.287 -7.95,8.62 -12,13 -8.099,1.737 -11.599,-1.596 -10.5,-10 2.741,-3.229 5.241,-6.562 7.5,-10 4.705,-4.707 9.705,-9.04 15,-13 3.321,-0.9955 6.654,-1.9955 10,-3 4.744,1.1379 9.411,2.4712 14,4 0.333,0 0.667,0 1,0 0.473,1.406 1.473,2.073 3,2 1.765,0.961 3.765,1.295 6,1 -0.321,-5.5262 0.012,-10.8595 1,-16 z"
         id="path86" />
    </g>
    <g
       id="g90"
       style="clip-rule:evenodd;fill-rule:evenodd;image-rendering:optimizeQuality;shape-rendering:geometricPrecision;text-rendering:geometricPrecision"
       transform="matrix(0.28194256,0,0,0.28194256,-7.1352758,-2.4892624)">
      <path
         style="opacity:1"
         fill="#e0f2f7"
         d="m 172.5,87.5 c 0,5.3333 0,10.6667 0,16 -1.667,0 -3.333,0 -5,0 -0.473,-1.406 -1.473,-2.073 -3,-2 -0.333,0 -0.667,0 -1,0 -5.106,-4.5603 -11.106,-6.0603 -18,-4.5 -2.379,0.7162 -4.379,1.8828 -6,3.5 -5.295,3.96 -10.295,8.293 -15,13 0.607,-2.576 1.774,-4.909 3.5,-7 1.011,-0.837 2.178,-1.17 3.5,-1 -0.262,-1.478 0.071,-2.811 1,-4 4.178,-1.5856 7.845,-3.9189 11,-7 6.293,0.458 12.459,1.458 18.5,3 0.333,-0.3333 0.667,-0.6667 1,-1 3.366,5.118 6.199,4.952 8.5,-0.5 0.079,-1.9068 -0.254,-3.9068 -1,-6 0.566,-0.9947 1.233,-1.828 2,-2.5 z"
         id="path90" />
    </g>
    <g
       id="g91"
       style="clip-rule:evenodd;fill-rule:evenodd;image-rendering:optimizeQuality;shape-rendering:geometricPrecision;text-rendering:geometricPrecision"
       transform="matrix(0.28194256,0,0,0.28194256,-7.1352758,-2.4892624)">
      <path
         style="opacity:1"
         fill="#9abeda"
         d="m 164.5,101.5 c 1.527,-0.073 2.527,0.594 3,2 -1.527,0.073 -2.527,-0.594 -3,-2 z"
         id="path91" />
    </g>
    <g
       id="g92"
       style="clip-rule:evenodd;fill-rule:evenodd;image-rendering:optimizeQuality;shape-rendering:geometricPrecision;text-rendering:geometricPrecision"
       transform="matrix(0.28194256,0,0,0.28194256,-7.1352758,-2.4892624)">
      <path
         style="opacity:1"
         fill="#426c93"
         d="m 163.5,101.5 c -4.589,-1.5288 -9.256,-2.8621 -14,-4 -3.346,1.0045 -6.679,2.0045 -10,3 1.621,-1.6172 3.621,-2.7838 6,-3.5 6.894,-1.5603 12.894,-0.0603 18,4.5 z"
         id="path92" />
    </g>
    <g
       id="g98"
       style="clip-rule:evenodd;fill-rule:evenodd;image-rendering:optimizeQuality;shape-rendering:geometricPrecision;text-rendering:geometricPrecision"
       transform="matrix(0.28194256,0,0,0.28194256,-7.1352758,-2.4892624)">
      <path
         style="opacity:1"
         fill="#3e7db5"
         d="m 166.5,112.5 c 12.951,0.963 25.951,1.296 39,1 -0.709,0.904 -1.709,1.237 -3,1 -11,0 -22,0 -33,0 -1.679,0.215 -2.679,-0.452 -3,-2 z"
         id="path98" />
    </g>
    <g
       id="g100"
       style="clip-rule:evenodd;fill-rule:evenodd;image-rendering:optimizeQuality;shape-rendering:geometricPrecision;text-rendering:geometricPrecision"
       transform="matrix(0.28194256,0,0,0.28194256,-7.1352758,-2.4892624)">
      <path
         style="opacity:1"
         fill="#d9ecf4"
         d="m 167.5,117.5 c -3.018,0.165 -6.018,-0.002 -9,-0.5 -2.66,-0.866 -4.827,-2.366 -6.5,-4.5 -1.92,0.438 -3.754,1.105 -5.5,2 -2.033,2.368 -4.367,4.368 -7,6 2.285,-3.71 4.952,-7.21 8,-10.5 1,-0.167 2,-0.333 3,-0.5 5.692,2.712 11.358,5.378 17,8 z"
         id="path100" />
    </g>
    <g
       id="g106"
       style="clip-rule:evenodd;fill-rule:evenodd;image-rendering:optimizeQuality;shape-rendering:geometricPrecision;text-rendering:geometricPrecision"
       transform="matrix(0.28194256,0,0,0.28194256,-7.1352758,-2.4892624)">
      <path
         style="opacity:1"
         fill="#d7ecf4"
         d="m 238.5,122.5 c -4.58,-2.797 -8.58,-6.297 -12,-10.5 -0.833,-0.167 -1.667,-0.333 -2.5,-0.5 -2.134,1.454 -4.301,2.954 -6.5,4.5 -5.227,1.782 -10.56,2.948 -16,3.5 0,-0.667 0,-1.333 0,-2 7.699,0.157 14.366,-2.343 20,-7.5 3.134,-0.79 6.134,-0.457 9,1 2.522,4.007 5.189,7.841 8,11.5 z"
         id="path106" />
    </g>
    <g
       id="g109"
       style="clip-rule:evenodd;fill-rule:evenodd;image-rendering:optimizeQuality;shape-rendering:geometricPrecision;text-rendering:geometricPrecision"
       transform="matrix(0.28194256,0,0,0.28194256,-7.1352758,-2.4892624)">
      <path
         style="opacity:1"
         fill="#85bbea"
         d="m 132.5,121.5 c -1.764,-0.826 -3.098,-2.159 -4,-4 1.419,-2.6 3.085,-5.1 5,-7.5 1.917,0.027 3.584,0.861 5,2.5 1.021,0.502 1.188,1.168 0.5,2 -2.372,2.203 -4.539,4.537 -6.5,7 z"
         id="path109" />
    </g>
    <g
       id="g113"
       style="clip-rule:evenodd;fill-rule:evenodd;image-rendering:optimizeQuality;shape-rendering:geometricPrecision;text-rendering:geometricPrecision"
       transform="matrix(0.28194256,0,0,0.28194256,-7.1352758,-2.4892624)">
      <path
         style="opacity:1"
         fill="#295e90"
         d="m 232.5,98.5 c 1.333,0.3333 2.667,0.6667 4,1 3.789,4.008 7.789,7.675 12,11 2,2.667 4.333,5 7,7 3.425,3.229 4.758,7.229 4,12 -2.221,3.943 -5.554,5.443 -10,4.5 -3.337,-4.196 -7.003,-8.029 -11,-11.5 -2.811,-3.659 -5.478,-7.493 -8,-11.5 -2.866,-1.457 -5.866,-1.79 -9,-1 -5.634,5.157 -12.301,7.657 -20,7.5 -0.111,-0.617 -0.444,-1.117 -1,-1.5 0.916,-0.278 1.582,-0.778 2,-1.5 1.291,0.237 2.291,-0.096 3,-1 1.373,0.157 2.707,-0.01 4,-0.5 4.032,-2.347 8.032,-4.68 12,-7 3,-0.667 6,-0.667 9,0 1.57,2.927 3.904,3.927 7,3 -1.344,-4.474 -4.678,-7.307 -10,-8.5 -0.763,-0.7679 -1.763,-1.2679 -3,-1.5 2.646,-0.4974 5.313,-0.6641 8,-0.5 z"
         id="path113" />
    </g>
    <g
       id="g114"
       style="clip-rule:evenodd;fill-rule:evenodd;image-rendering:optimizeQuality;shape-rendering:geometricPrecision;text-rendering:geometricPrecision"
       transform="matrix(0.28194256,0,0,0.28194256,-7.1352758,-2.4892624)">
      <path
         style="opacity:1"
         fill="#86bced"
         d="m 247.5,116.5 c -0.17,1.322 0.163,2.489 1,3.5 -1.245,0.791 -2.578,1.291 -4,1.5 -3.19,-2.423 -5.356,-5.423 -6.5,-9 1.133,-1.711 2.633,-2.211 4.5,-1.5 1.873,1.704 3.54,3.537 5,5.5 z"
         id="path114" />
    </g>
    <g
       id="g115"
       style="clip-rule:evenodd;fill-rule:evenodd;image-rendering:optimizeQuality;shape-rendering:geometricPrecision;text-rendering:geometricPrecision"
       transform="matrix(0.28194256,0,0,0.28194256,-7.1352758,-2.4892624)">
      <path
         style="opacity:1"
         fill="#c5daea"
         d="m 255.5,117.5 c 1.653,0.16 2.986,0.826 4,2 1.2,3.469 1.2,6.802 0,10 0.758,-4.771 -0.575,-8.771 -4,-12 z"
         id="path115" />
    </g>
    <g
       id="g131"
       style="clip-rule:evenodd;fill-rule:evenodd;image-rendering:optimizeQuality;shape-rendering:geometricPrecision;text-rendering:geometricPrecision"
       transform="matrix(0.28194256,0,0,0.28194256,-7.1352758,-2.4892624)">
      <path
         style="opacity:1"
         fill="#6eabe2"
         d="m 128.5,117.5 c 0.902,1.841 2.236,3.174 4,4 -2.499,2.669 -4.832,5.502 -7,8.5 -3.825,0.836 -5.325,-0.664 -4.5,-4.5 2,-3.166 4.5,-5.832 7.5,-8 z"
         id="path131" />
    </g>
    <g
       id="g132"
       style="clip-rule:evenodd;fill-rule:evenodd;image-rendering:optimizeQuality;shape-rendering:geometricPrecision;text-rendering:geometricPrecision"
       transform="matrix(0.28194256,0,0,0.28194256,-7.1352758,-2.4892624)">
      <path
         style="opacity:1"
         fill="#73aee6"
         d="m 247.5,116.5 c 2.601,3.104 5.434,6.104 8.5,9 0.5,3.5 -1,5 -4.5,4.5 -2.923,-2.416 -5.257,-5.25 -7,-8.5 1.422,-0.209 2.755,-0.709 4,-1.5 -0.837,-1.011 -1.17,-2.178 -1,-3.5 z"
         id="path132" />
    </g>
    <g
       id="g148"
       style="clip-rule:evenodd;fill-rule:evenodd;image-rendering:optimizeQuality;shape-rendering:geometricPrecision;text-rendering:geometricPrecision"
       transform="matrix(0.28194256,0,0,0.28194256,-7.1352758,-2.4892624)">
      <path
         style="opacity:1"
         fill="#e7f7f9"
         d="m 168.5,117.5 c 1.667,0 3.333,0 5,0 1.587,2.928 3.587,5.594 6,8 0,0.667 0.333,1 1,1 0,18 0,36 0,54 -1.644,0.214 -3.144,-0.12 -4.5,-1 -0.455,-3.354 -0.955,-6.687 -1.5,-10 0.815,0.929 1.648,1.929 2.5,3 3.008,-5.595 3.175,-11.429 0.5,-17.5 1.164,-1.994 1.831,-4.161 2,-6.5 -0.388,-3.473 -0.388,-6.807 0,-10 -0.5,-3 -1,-6 -1.5,-9 -1.085,-1.873 -2.418,-3.54 -4,-5 -0.494,-1.634 -0.66,-3.301 -0.5,-5 -2.053,0.098 -3.72,-0.569 -5,-2 z"
         id="path148" />
    </g>
    <g
       id="g149"
       style="clip-rule:evenodd;fill-rule:evenodd;image-rendering:optimizeQuality;shape-rendering:geometricPrecision;text-rendering:geometricPrecision"
       transform="matrix(0.28194256,0,0,0.28194256,-7.1352758,-2.4892624)">
      <path
         style="opacity:1"
         fill="#e2f1f6"
         d="m 259.5,119.5 c 1.337,0.815 2.337,1.982 3,3.5 0.33,3.066 -0.17,6.233 -1.5,9.5 -5.321,5.078 -10.821,5.245 -16.5,0.5 -4.004,-2.471 -6.004,-5.971 -6,-10.5 3.997,3.471 7.663,7.304 11,11.5 4.446,0.943 7.779,-0.557 10,-4.5 1.2,-3.198 1.2,-6.531 0,-10 z"
         id="path149" />
    </g>
    <g
       id="g160"
       style="clip-rule:evenodd;fill-rule:evenodd;image-rendering:optimizeQuality;shape-rendering:geometricPrecision;text-rendering:geometricPrecision"
       transform="matrix(0.28194256,0,0,0.28194256,-7.1352758,-2.4892624)">
      <path
         style="opacity:1"
         fill="#5f9dd4"
         d="m 190.5,128.5 c -0.979,-3.125 -1.313,-6.458 -1,-10 -1,0 -2,0 -3,0 0,29 0,58 0,87 -0.333,0 -0.667,0 -1,0 0,-27.667 0,-55.333 0,-83 0,-1.667 0,-3.333 0,-5 1.667,0 3.333,0 5,0 0,3.667 0,7.333 0,11 z"
         id="path160" />
    </g>
    <g
       id="g164"
       style="clip-rule:evenodd;fill-rule:evenodd;image-rendering:optimizeQuality;shape-rendering:geometricPrecision;text-rendering:geometricPrecision"
       transform="matrix(0.28194256,0,0,0.28194256,-7.1352758,-2.4892624)">
      <path
         style="opacity:1"
         fill="#b0ceea"
         d="m 195.5,126.5 c -0.633,18.569 0.034,36.902 2,55 -0.667,0 -1.333,0 -2,0 -1.333,-18.333 -1.333,-36.667 0,-55 z"
         id="path164" />
    </g>
    <g
       id="g175"
       style="clip-rule:evenodd;fill-rule:evenodd;image-rendering:optimizeQuality;shape-rendering:geometricPrecision;text-rendering:geometricPrecision"
       transform="matrix(0.28194256,0,0,0.28194256,-7.1352758,-2.4892624)">
      <path
         style="opacity:1"
         fill="#195c99"
         d="m 147.5,161.5 c 0.667,0 1.333,0 2,0 5.706,-0.329 11.372,0.005 17,1 1.45,1.35 2.117,3.016 2,5 -2.193,1.18 -4.526,2.18 -7,3 -3.871,0.156 -7.871,-0.177 -12,-1 -1.729,-2.351 -2.396,-5.018 -2,-8 z"
         id="path175" />
    </g>
    <g
       id="g177"
       style="clip-rule:evenodd;fill-rule:evenodd;image-rendering:optimizeQuality;shape-rendering:geometricPrecision;text-rendering:geometricPrecision"
       transform="matrix(0.28194256,0,0,0.28194256,-7.1352758,-2.4892624)">
      <path
         style="opacity:1"
         fill="#77b6ec"
         d="m 190.5,128.5 c 0,25.667 0,51.333 0,77 -1.333,0 -2.667,0 -4,0 0,-29 0,-58 0,-87 1,0 2,0 3,0 -0.313,3.542 0.021,6.875 1,10 z"
         id="path177" />
    </g>
    <g
       id="g178"
       style="clip-rule:evenodd;fill-rule:evenodd;image-rendering:optimizeQuality;shape-rendering:geometricPrecision;text-rendering:geometricPrecision"
       transform="matrix(0.28194256,0,0,0.28194256,-7.1352758,-2.4892624)">
      <path
         style="opacity:1"
         fill="#b5d6ec"
         d="m 180.5,126.5 c 0.667,0 1,0.333 1,1 0,18 0,36 0,54 -1.667,0 -3.333,0 -5,0 0,1.333 0,2.667 0,4 -1,0 -2,0 -3,0 0,-6.667 0,-13.333 0,-20 0.934,1.068 1.268,2.401 1,4 0.545,3.313 1.045,6.646 1.5,10 1.356,0.88 2.856,1.214 4.5,1 0,-18 0,-36 0,-54 z"
         id="path178" />
    </g>
    <g
       id="g180"
       style="clip-rule:evenodd;fill-rule:evenodd;image-rendering:optimizeQuality;shape-rendering:geometricPrecision;text-rendering:geometricPrecision"
       transform="matrix(0.28194256,0,0,0.28194256,-7.1352758,-2.4892624)">
      <path
         style="opacity:1"
         fill="#2f5c86"
         d="m 147.5,161.5 c -0.396,2.982 0.271,5.649 2,8 4.129,0.823 8.129,1.156 12,1 2.474,-0.82 4.807,-1.82 7,-3 0,0.333 0,0.667 0,1 -0.667,1.333 -1.667,2.333 -3,3 -5.676,0.166 -11.343,-0.001 -17,-0.5 -2.193,-3.038 -2.527,-6.204 -1,-9.5 z"
         id="path180" />
    </g>
    <g
       id="g183"
       style="clip-rule:evenodd;fill-rule:evenodd;image-rendering:optimizeQuality;shape-rendering:geometricPrecision;text-rendering:geometricPrecision"
       transform="matrix(0.28194256,0,0,0.28194256,-7.1352758,-2.4892624)">
      <path
         style="opacity:1"
         fill="#daedf3"
         d="m 173.5,164.5 c -2.776,-0.589 -5.11,-1.922 -7,-4 -5.819,-1.153 -11.819,-1.319 -18,-0.5 -0.556,0.383 -0.889,0.883 -1,1.5 -1.527,3.296 -1.193,6.462 1,9.5 5.657,0.499 11.324,0.666 17,0.5 0,0.333 0,0.667 0,1 -6.153,1.153 -12.486,1.32 -19,0.5 -4.171,-6.649 -2.838,-11.982 4,-16 6.876,-0.931 13.543,-0.431 20,1.5 0.183,2.488 1.183,4.488 3,6 z"
         id="path183" />
    </g>
    <g
       id="g184"
       style="clip-rule:evenodd;fill-rule:evenodd;image-rendering:optimizeQuality;shape-rendering:geometricPrecision;text-rendering:geometricPrecision"
       transform="matrix(0.28194256,0,0,0.28194256,-7.1352758,-2.4892624)">
      <path
         style="opacity:1"
         fill="#48729a"
         d="m 166.5,160.5 c -5.858,-0.322 -11.525,0.011 -17,1 -0.667,0 -1.333,0 -2,0 0.111,-0.617 0.444,-1.117 1,-1.5 6.181,-0.819 12.181,-0.653 18,0.5 z"
         id="path184" />
    </g>
    <g
       id="g191"
       style="clip-rule:evenodd;fill-rule:evenodd;image-rendering:optimizeQuality;shape-rendering:geometricPrecision;text-rendering:geometricPrecision"
       transform="matrix(0.28194256,0,0,0.28194256,-7.1352758,-2.4892624)">
      <path
         style="opacity:1"
         fill="#81a6c7"
         d="m 168.5,168.5 c 0,-0.333 0,-0.667 0,-1 1.961,6.587 2.628,13.587 2,21 -0.667,-6.667 -1.333,-13.333 -2,-20 z"
         id="path191" />
    </g>
    <g
       id="g199"
       style="clip-rule:evenodd;fill-rule:evenodd;image-rendering:optimizeQuality;shape-rendering:geometricPrecision;text-rendering:geometricPrecision"
       transform="matrix(0.28194256,0,0,0.28194256,-7.1352758,-2.4892624)">
      <path
         style="opacity:1"
         fill="#245a90"
         d="m 196.5,125.5 c 0,0.667 -0.333,1 -1,1 -1.333,18.333 -1.333,36.667 0,55 -0.086,0.996 0.248,1.829 1,2.5 -0.948,0.483 -1.948,0.649 -3,0.5 0.329,5.706 -0.005,11.372 -1,17 -1.167,-26.66 -1.333,-53.327 -0.5,-80 1.067,0.691 2.234,1.191 3.5,1.5 0.752,0.671 1.086,1.504 1,2.5 z"
         id="path199" />
    </g>
    <g
       id="g203"
       style="clip-rule:evenodd;fill-rule:evenodd;image-rendering:optimizeQuality;shape-rendering:geometricPrecision;text-rendering:geometricPrecision"
       transform="matrix(0.28194256,0,0,0.28194256,-7.1352758,-2.4892624)">
      <path
         style="opacity:1"
         fill="#346393"
         d="m 181.5,127.5 c 1.314,18.872 1.314,37.872 0,57 -1.808,1.418 -2.475,3.418 -2,6 -0.129,7.345 -0.462,14.678 -1,22 -0.807,2.796 -1.807,5.63 -3,8.5 0.455,4.694 1.455,7.861 3,9.5 -1.667,3.324 -3.834,6.324 -6.5,9 -3.146,6.445 -1.646,11.112 4.5,14 -0.722,1.051 -1.722,1.718 -3,2 -0.333,0 -0.667,0 -1,0 -0.667,-0.333 -1.333,-0.667 -2,-1 -6.89,-7.253 -6.557,-14.253 1,-21 0.958,-0.453 1.792,-1.119 2.5,-2 0.5,-9.994 0.666,-19.994 0.5,-30 0.983,-3.798 1.317,-7.798 1,-12 -1.915,0.284 -3.581,-0.049 -5,-1 0.628,-7.413 -0.039,-14.413 -2,-21 0.117,-1.984 -0.55,-3.65 -2,-5 -5.628,-0.995 -11.294,-1.329 -17,-1 5.475,-0.989 11.142,-1.322 17,-1 1.89,2.078 4.224,3.411 7,4 0,0.333 0,0.667 0,1 0,6.667 0,13.333 0,20 1,0 2,0 3,0 0,-1.333 0,-2.667 0,-4 1.667,0 3.333,0 5,0 0,-18 0,-36 0,-54 z"
         id="path203" />
    </g>
    <g
       id="g204"
       style="clip-rule:evenodd;fill-rule:evenodd;image-rendering:optimizeQuality;shape-rendering:geometricPrecision;text-rendering:geometricPrecision"
       transform="matrix(0.28194256,0,0,0.28194256,-7.1352758,-2.4892624)">
      <path
         style="opacity:1"
         fill="#4888c2"
         d="m 181.5,184.5 c 0.992,7.148 1.325,14.481 1,22 0,0.667 -0.333,1 -1,1 0.166,-7.341 0,-14.674 -0.5,-22 -0.198,1.882 -0.698,3.548 -1.5,5 -0.475,-2.582 0.192,-4.582 2,-6 z"
         id="path204" />
    </g>
    <g
       id="g205"
       style="clip-rule:evenodd;fill-rule:evenodd;image-rendering:optimizeQuality;shape-rendering:geometricPrecision;text-rendering:geometricPrecision"
       transform="matrix(0.28194256,0,0,0.28194256,-7.1352758,-2.4892624)">
      <path
         style="opacity:1"
         fill="#e0f3f9"
         d="m 168.5,168.5 c 0.667,6.667 1.333,13.333 2,20 1.419,0.951 3.085,1.284 5,1 0.317,4.202 -0.017,8.202 -1,12 -0.914,-3.228 -1.247,-6.561 -1,-10 -2.493,0.171 -4.326,-0.829 -5.5,-3 -0.609,-5.361 -0.442,-10.695 0.5,-16 -1,0 -2,0 -3,0 0,-0.333 0,-0.667 0,-1 1.333,-0.667 2.333,-1.667 3,-3 z"
         id="path205" />
    </g>
    <g
       id="g218"
       style="clip-rule:evenodd;fill-rule:evenodd;image-rendering:optimizeQuality;shape-rendering:geometricPrecision;text-rendering:geometricPrecision"
       transform="matrix(0.28194256,0,0,0.28194256,-7.1352758,-2.4892624)">
      <path
         style="opacity:1"
         fill="#6aa9e1"
         d="m 181.5,207.5 c -0.827,2.632 -1.66,5.298 -2.5,8 -0.483,-0.948 -0.649,-1.948 -0.5,-3 0.538,-7.322 0.871,-14.655 1,-22 0.802,-1.452 1.302,-3.118 1.5,-5 0.5,7.326 0.666,14.659 0.5,22 z"
         id="path218" />
    </g>
    <g
       id="g220"
       style="clip-rule:evenodd;fill-rule:evenodd;image-rendering:optimizeQuality;shape-rendering:geometricPrecision;text-rendering:geometricPrecision"
       transform="matrix(0.28194256,0,0,0.28194256,-7.1352758,-2.4892624)">
      <path
         style="opacity:1"
         fill="#1d578f"
         d="m 185.5,122.5 c 0,27.667 0,55.333 0,83 -0.722,-0.418 -1.222,-1.084 -1.5,-2 -0.232,1.237 -0.732,2.237 -1.5,3 0.325,-7.519 -0.008,-14.852 -1,-22 1.314,-19.128 1.314,-38.128 0,-57 0,-0.667 -0.333,-1 -1,-1 -0.667,0 -1,-0.333 -1,-1 1.295,-1.973 2.628,-3.973 4,-6 0.676,1.102 1.342,2.102 2,3 z"
         id="path220" />
    </g>
    <g
       id="g222"
       style="clip-rule:evenodd;fill-rule:evenodd;image-rendering:optimizeQuality;shape-rendering:geometricPrecision;text-rendering:geometricPrecision"
       transform="matrix(0.28194256,0,0,0.28194256,-7.1352758,-2.4892624)">
      <path
         style="opacity:1"
         fill="#a5c9e5"
         d="m 205.5,186.5 c 0,-0.333 0,-0.667 0,-1 1.649,6.101 2.649,12.435 3,19 -1.123,1.257 -1.789,0.924 -2,-1 0.322,-5.858 -0.011,-11.525 -1,-17 z"
         id="path222" />
    </g>
    <g
       id="g225"
       style="clip-rule:evenodd;fill-rule:evenodd;image-rendering:optimizeQuality;shape-rendering:geometricPrecision;text-rendering:geometricPrecision"
       transform="matrix(0.28194256,0,0,0.28194256,-7.1352758,-2.4892624)">
      <path
         style="opacity:1"
         fill="#6599c7"
         d="m 202.5,190.5 c -0.991,6.479 -1.324,13.146 -1,20 -0.989,-5.475 -1.322,-11.142 -1,-17 -0.262,-1.478 0.071,-2.811 1,-4 0.607,0.124 0.94,0.457 1,1 z"
         id="path225" />
    </g>
    <g
       id="g227"
       style="clip-rule:evenodd;fill-rule:evenodd;image-rendering:optimizeQuality;shape-rendering:geometricPrecision;text-rendering:geometricPrecision"
       transform="matrix(0.28194256,0,0,0.28194256,-7.1352758,-2.4892624)">
      <path
         style="opacity:1"
         fill="#2a659e"
         d="m 169.5,114.5 c 11,0 22,0 33,0 -0.418,0.722 -1.084,1.222 -2,1.5 0.556,0.383 0.889,0.883 1,1.5 0,0.667 0,1.333 0,2 -1.19,2.369 -2.857,4.369 -5,6 0.086,-0.996 -0.248,-1.829 -1,-2.5 -1.266,-0.309 -2.433,-0.809 -3.5,-1.5 -0.833,26.673 -0.667,53.34 0.5,80 0.995,-5.628 1.329,-11.294 1,-17 1.052,0.149 2.052,-0.017 3,-0.5 -0.752,-0.671 -1.086,-1.504 -1,-2.5 0.667,0 1.333,0 2,0 1.604,0.787 2.271,2.12 2,4 2,0 4,0 6,0 0,0.333 0,0.667 0,1 -0.722,0.418 -1.222,1.084 -1.5,2 -0.5,6.992 -0.666,13.992 -0.5,21 -0.99,-6.145 -1.323,-12.478 -1,-19 -0.06,-0.543 -0.393,-0.876 -1,-1 -0.929,1.189 -1.262,2.522 -1,4 -0.658,-0.898 -1.324,-1.898 -2,-3 -0.989,3.607 -1.323,7.274 -1,11 -0.667,-5.181 -1.333,-10.515 -2,-16 -1.165,7.645 -1.331,15.312 -0.5,23 1.67,5.092 2.503,5.092 2.5,0 2.106,4.499 2.272,9.166 0.5,14 -1.95,-6.564 -2.783,-6.231 -2.5,1 -1.159,-4.225 -2.326,-8.558 -3.5,-13 -1.808,-1.896 -3.975,-2.396 -6.5,-1.5 -2.053,7.269 -4.386,14.435 -7,21.5 -1.545,-1.639 -2.545,-4.806 -3,-9.5 1.193,-2.87 2.193,-5.704 3,-8.5 -0.149,1.052 0.017,2.052 0.5,3 0.84,-2.702 1.673,-5.368 2.5,-8 0.667,0 1,-0.333 1,-1 0.768,-0.763 1.268,-1.763 1.5,-3 0.278,0.916 0.778,1.582 1.5,2 0.333,0 0.667,0 1,0 1.333,0 2.667,0 4,0 0,-25.667 0,-51.333 0,-77 0,-3.667 0,-7.333 0,-11 -1.667,0 -3.333,0 -5,0 0,1.667 0,3.333 0,5 -0.658,-0.898 -1.324,-1.898 -2,-3 -1.372,2.027 -2.705,4.027 -4,6 -2.413,-2.406 -4.413,-5.072 -6,-8 -1.576,-0.643 -2.91,-1.643 -4,-3 z"
         id="path227" />
    </g>
    <g
       id="g228"
       style="clip-rule:evenodd;fill-rule:evenodd;image-rendering:optimizeQuality;shape-rendering:geometricPrecision;text-rendering:geometricPrecision"
       transform="matrix(0.28194256,0,0,0.28194256,-7.1352758,-2.4892624)">
      <path
         style="opacity:1"
         fill="#79b8ec"
         d="m 197.5,201.5 c 0,2.333 0,4.667 0,7 0.003,5.092 -0.83,5.092 -2.5,0 -0.831,-7.688 -0.665,-15.355 0.5,-23 0.667,5.485 1.333,10.819 2,16 z"
         id="path228" />
    </g>
    <g
       id="g229"
       style="clip-rule:evenodd;fill-rule:evenodd;image-rendering:optimizeQuality;shape-rendering:geometricPrecision;text-rendering:geometricPrecision"
       transform="matrix(0.28194256,0,0,0.28194256,-7.1352758,-2.4892624)">
      <path
         style="opacity:1"
         fill="#7fbaec"
         d="m 194.5,117.5 c 3.274,0.128 3.441,1.461 0.5,4 -0.49,-1.293 -0.657,-2.627 -0.5,-4 z"
         id="path229" />
    </g>
    <g
       id="g230"
       style="clip-rule:evenodd;fill-rule:evenodd;image-rendering:optimizeQuality;shape-rendering:geometricPrecision;text-rendering:geometricPrecision"
       transform="matrix(0.28194256,0,0,0.28194256,-7.1352758,-2.4892624)">
      <path
         style="opacity:1"
         fill="#85bded"
         d="m 179.5,117.5 c 1.844,0.704 2.344,2.037 1.5,4 -1.188,-1.063 -1.688,-2.397 -1.5,-4 z"
         id="path230" />
    </g>
    <g
       id="g231"
       style="clip-rule:evenodd;fill-rule:evenodd;image-rendering:optimizeQuality;shape-rendering:geometricPrecision;text-rendering:geometricPrecision"
       transform="matrix(0.28194256,0,0,0.28194256,-7.1352758,-2.4892624)">
      <path
         style="opacity:1"
         fill="#275885"
         d="m 205.5,186.5 c 0.989,5.475 1.322,11.142 1,17 -2.841,2.367 -2.508,4.367 1,6 0.692,-0.525 1.192,-1.192 1.5,-2 0.465,1.431 1.299,2.597 2.5,3.5 -0.667,0.333 -1.333,0.667 -2,1 4.872,0.246 9.705,0.746 14.5,1.5 4.414,-2.07 5.581,-5.404 3.5,-10 0.996,-0.086 1.829,0.248 2.5,1 0.634,3.055 0.468,6.055 -0.5,9 -6.275,0.918 -12.608,1.251 -19,1 -0.667,-0.333 -1.333,-0.667 -2,-1 -1.122,-2.056 -2.789,-3.389 -5,-4 -0.166,-7.008 0,-14.008 0.5,-21 0.278,-0.916 0.778,-1.582 1.5,-2 z"
         id="path231" />
    </g>
    <g
       id="g232"
       style="clip-rule:evenodd;fill-rule:evenodd;image-rendering:optimizeQuality;shape-rendering:geometricPrecision;text-rendering:geometricPrecision"
       transform="matrix(0.28194256,0,0,0.28194256,-7.1352758,-2.4892624)">
      <path
         style="opacity:1"
         fill="#205d9a"
         d="m 210.5,202.5 c 5.858,-0.322 11.525,0.011 17,1 2.081,4.596 0.914,7.93 -3.5,10 -4.795,-0.754 -9.628,-1.254 -14.5,-1.5 0.667,-0.333 1.333,-0.667 2,-1 -1.201,-0.903 -2.035,-2.069 -2.5,-3.5 -0.308,0.808 -0.808,1.475 -1.5,2 -3.508,-1.633 -3.841,-3.633 -1,-6 0.211,1.924 0.877,2.257 2,1 0.333,-1 1,-1.667 2,-2 z"
         id="path232" />
    </g>
    <g
       id="g233"
       style="clip-rule:evenodd;fill-rule:evenodd;image-rendering:optimizeQuality;shape-rendering:geometricPrecision;text-rendering:geometricPrecision"
       transform="matrix(0.28194256,0,0,0.28194256,-7.1352758,-2.4892624)">
      <path
         style="opacity:1"
         fill="#c9e2ef"
         d="m 174.5,201.5 c 0.166,10.006 0,20.006 -0.5,30 -0.708,0.881 -1.542,1.547 -2.5,2 0.513,-10.852 1.513,-21.519 3,-32 z"
         id="path233" />
    </g>
    <g
       id="g234"
       style="clip-rule:evenodd;fill-rule:evenodd;image-rendering:optimizeQuality;shape-rendering:geometricPrecision;text-rendering:geometricPrecision"
       transform="matrix(0.28194256,0,0,0.28194256,-7.1352758,-2.4892624)">
      <path
         style="opacity:1"
         fill="#bee0f2"
         d="m 202.5,190.5 c -0.323,6.522 0.01,12.855 1,19 2.211,0.611 3.878,1.944 5,4 -1.43,0.079 -2.764,-0.254 -4,-1 -0.996,6.298 -1.33,12.632 -1,19 -0.667,-6.333 -1.333,-12.667 -2,-19 0,-0.667 0,-1.333 0,-2 -0.324,-6.854 0.009,-13.521 1,-20 z"
         id="path234" />
    </g>
    <g
       id="g236"
       style="clip-rule:evenodd;fill-rule:evenodd;image-rendering:optimizeQuality;shape-rendering:geometricPrecision;text-rendering:geometricPrecision"
       transform="matrix(0.28194256,0,0,0.28194256,-7.1352758,-2.4892624)">
      <path
         style="opacity:1"
         fill="#dcecf3"
         d="m 210.5,202.5 c 6.487,-1.154 13.154,-1.321 20,-0.5 3.095,3.301 3.762,7.134 2,11.5 -1.528,1.361 -3.195,2.528 -5,3.5 -7.361,0.683 -14.695,0.517 -22,-0.5 -0.778,7.388 0.222,14.388 3,21 -1.656,-1.96 -3.323,-3.96 -5,-6 -0.33,-6.368 0.004,-12.702 1,-19 1.236,0.746 2.57,1.079 4,1 0.667,0.333 1.333,0.667 2,1 5.819,1.153 11.819,1.319 18,0.5 0.556,-0.383 0.889,-0.883 1,-1.5 0.968,-2.945 1.134,-5.945 0.5,-9 -0.671,-0.752 -1.504,-1.086 -2.5,-1 -5.475,-0.989 -11.142,-1.322 -17,-1 z"
         id="path236" />
    </g>
    <g
       id="g237"
       style="clip-rule:evenodd;fill-rule:evenodd;image-rendering:optimizeQuality;shape-rendering:geometricPrecision;text-rendering:geometricPrecision"
       transform="matrix(0.28194256,0,0,0.28194256,-7.1352758,-2.4892624)">
      <path
         style="opacity:1"
         fill="#a3c2dc"
         d="m 229.5,213.5 c -0.111,0.617 -0.444,1.117 -1,1.5 -6.181,0.819 -12.181,0.653 -18,-0.5 6.392,0.251 12.725,-0.082 19,-1 z"
         id="path237" />
    </g>
    <g
       id="g241"
       style="clip-rule:evenodd;fill-rule:evenodd;image-rendering:optimizeQuality;shape-rendering:geometricPrecision;text-rendering:geometricPrecision"
       transform="matrix(0.28194256,0,0,0.28194256,-7.1352758,-2.4892624)">
      <path
         style="opacity:1"
         fill="#1a558d"
         d="m 200.5,193.5 c -0.322,5.858 0.011,11.525 1,17 0,0.667 0,1.333 0,2 0,6.333 0,12.667 0,19 -1,0 -2,0 -3,0 -1.56,-2.454 -2.56,-5.12 -3,-8 -0.283,-7.231 0.55,-7.564 2.5,-1 1.772,-4.834 1.606,-9.501 -0.5,-14 0,-2.333 0,-4.667 0,-7 -0.323,-3.726 0.011,-7.393 1,-11 0.676,1.102 1.342,2.102 2,3 z"
         id="path241" />
    </g>
    <g
       id="g250"
       style="clip-rule:evenodd;fill-rule:evenodd;image-rendering:optimizeQuality;shape-rendering:geometricPrecision;text-rendering:geometricPrecision"
       transform="matrix(0.28194256,0,0,0.28194256,-7.1352758,-2.4892624)">
      <path
         style="opacity:1"
         fill="#82b8e6"
         d="m 195.5,223.5 c 0.44,2.88 1.44,5.546 3,8 2.67,3.512 5.17,7.178 7.5,11 1.061,5.951 -1.439,9.451 -7.5,10.5 -6.325,0.5 -12.658,0.666 -19,0.5 -1,0 -2,0 -3,0 -6.146,-2.888 -7.646,-7.555 -4.5,-14 2.666,-2.676 4.833,-5.676 6.5,-9 2.614,-7.065 4.947,-14.231 7,-21.5 2.525,-0.896 4.692,-0.396 6.5,1.5 1.174,4.442 2.341,8.775 3.5,13 z"
         id="path250" />
    </g>
    <g
       id="g271"
       style="clip-rule:evenodd;fill-rule:evenodd;image-rendering:optimizeQuality;shape-rendering:geometricPrecision;text-rendering:geometricPrecision"
       transform="matrix(0.28194256,0,0,0.28194256,-7.1352758,-2.4892624)">
      <path
         style="opacity:1"
         fill="#cadfef"
         d="m 210.5,241.5 c 1.306,3.187 1.306,6.52 0,10 -1.105,2.111 -2.771,3.445 -5,4 1.668,-1.84 3.168,-3.84 4.5,-6 0.497,-2.646 0.664,-5.313 0.5,-8 z"
         id="path271" />
    </g>
    <g
       id="g276"
       style="clip-rule:evenodd;fill-rule:evenodd;image-rendering:optimizeQuality;shape-rendering:geometricPrecision;text-rendering:geometricPrecision"
       transform="matrix(0.28194256,0,0,0.28194256,-7.1352758,-2.4892624)">
      <path
         style="opacity:1"
         fill="#34689c"
         d="m 201.5,212.5 c 0.667,6.333 1.333,12.667 2,19 1.677,2.04 3.344,4.04 5,6 0.667,1.333 1.333,2.667 2,4 0.164,2.687 -0.003,5.354 -0.5,8 -1.332,2.16 -2.832,4.16 -4.5,6 -0.667,0 -1.333,0 -2,0 -1.208,0.734 -2.541,1.067 -4,1 -1.418,-1.808 -3.418,-2.475 -6,-2 -4.863,0.319 -9.53,-0.014 -14,-1 6.342,0.166 12.675,0 19,-0.5 6.061,-1.049 8.561,-4.549 7.5,-10.5 -2.33,-3.822 -4.83,-7.488 -7.5,-11 1,0 2,0 3,0 0,-6.333 0,-12.667 0,-19 z"
         id="path276" />
    </g>
    <g
       id="g278"
       style="clip-rule:evenodd;fill-rule:evenodd;image-rendering:optimizeQuality;shape-rendering:geometricPrecision;text-rendering:geometricPrecision"
       transform="matrix(0.28194256,0,0,0.28194256,-7.1352758,-2.4892624)">
      <path
         style="opacity:1"
         fill="#1c5d9c"
         d="m 176.5,253.5 c 1,0 2,0 3,0 4.47,0.986 9.137,1.319 14,1 0.167,15.67 0,31.337 -0.5,47 -3.487,2.649 -6.82,2.315 -10,-1 -0.333,-14.667 -0.667,-29.333 -1,-44 -0.383,0.556 -0.883,0.889 -1.5,1 -1.068,-0.934 -2.401,-1.268 -4,-1 0.16,1.699 -0.006,3.366 -0.5,5 -2.039,-1.478 -2.872,-3.478 -2.5,-6 1.278,-0.282 2.278,-0.949 3,-2 z"
         id="path278" />
    </g>
    <g
       id="g281"
       style="clip-rule:evenodd;fill-rule:evenodd;image-rendering:optimizeQuality;shape-rendering:geometricPrecision;text-rendering:geometricPrecision"
       transform="matrix(0.28194256,0,0,0.28194256,-7.1352758,-2.4892624)">
      <path
         style="opacity:1"
         fill="#7ca8cc"
         d="m 196.5,257.5 c 0.709,-0.904 1.709,-1.237 3,-1 0,2.333 0,4.667 0,7 -0.44,-2.344 -1.44,-4.344 -3,-6 z"
         id="path281" />
    </g>
    <g
       id="g283"
       style="clip-rule:evenodd;fill-rule:evenodd;image-rendering:optimizeQuality;shape-rendering:geometricPrecision;text-rendering:geometricPrecision"
       transform="matrix(0.28194256,0,0,0.28194256,-7.1352758,-2.4892624)">
      <path
         style="opacity:1"
         fill="#2d5682"
         d="m 203.5,255.5 c 0.132,3.07 -0.201,6.07 -1,9 -1.291,0.237 -2.291,-0.096 -3,-1 0,-2.333 0,-4.667 0,-7 1.459,0.067 2.792,-0.266 4,-1 z"
         id="path283" />
    </g>
    <g
       id="g285"
       style="clip-rule:evenodd;fill-rule:evenodd;image-rendering:optimizeQuality;shape-rendering:geometricPrecision;text-rendering:geometricPrecision"
       transform="matrix(0.28194256,0,0,0.28194256,-7.1352758,-2.4892624)">
      <path
         style="opacity:1"
         fill="#487097"
         d="m 172.5,255.5 c 0.333,0 0.667,0 1,0 -0.372,2.522 0.461,4.522 2.5,6 0.494,-1.634 0.66,-3.301 0.5,-5 1.599,-0.268 2.932,0.066 4,1 -1,0 -2,0 -3,0 0.202,2.45 -0.131,4.783 -1,7 -1.517,-0.011 -2.684,-0.677 -3.5,-2 -0.497,-2.31 -0.663,-4.643 -0.5,-7 z"
         id="path285" />
    </g>
    <g
       id="g299"
       style="clip-rule:evenodd;fill-rule:evenodd;image-rendering:optimizeQuality;shape-rendering:geometricPrecision;text-rendering:geometricPrecision"
       transform="matrix(0.28194256,0,0,0.28194256,-7.1352758,-2.4892624)">
      <path
         style="opacity:1"
         fill="#d9ebf2"
         d="m 170.5,254.5 c 0.667,0.333 1.333,0.667 2,1 -0.163,2.357 0.003,4.69 0.5,7 0.816,1.323 1.983,1.989 3.5,2 0.996,-0.086 1.829,0.248 2.5,1 0.333,12 0.667,24 1,36 0.383,0.556 0.883,0.889 1.5,1 3.092,2.855 6.759,3.688 11,2.5 1.201,-0.903 2.035,-2.069 2.5,-3.5 0.169,-14.839 0.669,-29.506 1.5,-44 1.56,1.656 2.56,3.656 3,6 0.709,0.904 1.709,1.237 3,1 -0.194,2.412 -1.527,3.412 -4,3 0.167,11.338 0,22.672 -0.5,34 -3.783,7.266 -9.283,8.766 -16.5,4.5 -1.118,-1.074 -2.118,-2.24 -3,-3.5 -0.678,-9.893 -1.345,-19.727 -2,-29.5 1.431,-4.345 -0.236,-6.845 -5,-7.5 0.177,-3.734 -0.156,-7.401 -1,-11 z"
         id="path299" />
    </g>
    <g
       id="g304"
       style="clip-rule:evenodd;fill-rule:evenodd;image-rendering:optimizeQuality;shape-rendering:geometricPrecision;text-rendering:geometricPrecision"
       transform="matrix(0.28194256,0,0,0.28194256,-7.1352758,-2.4892624)">
      <path
         style="opacity:1"
         fill="#305e8b"
         d="m 193.5,254.5 c 2.582,-0.475 4.582,0.192 6,2 -1.291,-0.237 -2.291,0.096 -3,1 -0.831,14.494 -1.331,29.161 -1.5,44 -0.465,1.431 -1.299,2.597 -2.5,3.5 -4.241,1.188 -7.908,0.355 -11,-2.5 -0.968,-14.952 -1.301,-29.952 -1,-45 0.617,-0.111 1.117,-0.444 1.5,-1 0.333,14.667 0.667,29.333 1,44 3.18,3.315 6.513,3.649 10,1 0.5,-15.663 0.667,-31.33 0.5,-47 z"
         id="path304" />
    </g>
    <g
       id="g307"
       style="clip-rule:evenodd;fill-rule:evenodd;image-rendering:optimizeQuality;shape-rendering:geometricPrecision;text-rendering:geometricPrecision"
       transform="matrix(0.28194256,0,0,0.28194256,-7.1352758,-2.4892624)">
      <path
         style="opacity:1"
         fill="#c7e5f8"
         d="m 180.5,257.5 c -0.301,15.048 0.032,30.048 1,45 -0.617,-0.111 -1.117,-0.444 -1.5,-1 -0.333,-12 -0.667,-24 -1,-36 -0.671,-0.752 -1.504,-1.086 -2.5,-1 0.869,-2.217 1.202,-4.55 1,-7 1,0 2,0 3,0 z"
         id="path307" />
    </g>
  </g>
</svg>
