<?xml version="1.0" encoding="UTF-8" standalone="no"?>
<!-- Created with Inkscape (http://www.inkscape.org/) -->

<svg
   width="96mm"
   height="96mm"
   viewBox="0 0 96 96"
   version="1.1"
   id="svg1"
   inkscape:version="1.4.2 (ebf0e940, 2025-05-08)"
   sodipodi:docname="start.svg"
   xmlns:inkscape="http://www.inkscape.org/namespaces/inkscape"
   xmlns:sodipodi="http://sodipodi.sourceforge.net/DTD/sodipodi-0.dtd"
   xmlns="http://www.w3.org/2000/svg"
   xmlns:svg="http://www.w3.org/2000/svg">
  <sodipodi:namedview
     id="namedview1"
     pagecolor="#ffffff"
     bordercolor="#000000"
     borderopacity="0.25"
     inkscape:showpageshadow="2"
     inkscape:pageopacity="0.0"
     inkscape:pagecheckerboard="0"
     inkscape:deskcolor="#d1d1d1"
     inkscape:document-units="mm"
     inkscape:zoom="0.80444024"
     inkscape:cx="397.17059"
     inkscape:cy="262.91574"
     inkscape:window-width="1920"
     inkscape:window-height="1052"
     inkscape:window-x="0"
     inkscape:window-y="28"
     inkscape:window-maximized="0"
     inkscape:current-layer="layer1" />
  <defs
     id="defs1" />
  <g
     inkscape:label="Layer 1"
     inkscape:groupmode="layer"
     id="layer1">
    <g
       id="g487"
       style="clip-rule:evenodd;fill-rule:evenodd;image-rendering:optimizeQuality;shape-rendering:geometricPrecision;text-rendering:geometricPrecision"
       transform="matrix(0.31598668,0,0,0.31598668,-229.84179,-127.53146)">
      <path
         style="opacity:1"
         fill="#def3f8"
         d="m 953.5,454.5 c -6.113,-3.562 -12.113,-7.396 -18,-11.5 -1.525,-1.009 -3.192,-1.509 -5,-1.5 -0.342,-0.838 -1.008,-1.172 -2,-1 -0.111,-0.617 -0.444,-1.117 -1,-1.5 -5.263,-1.815 -10.597,-3.315 -16,-4.5 -1.171,-0.845 -2.505,-1.511 -4,-2 -2.015,-1.424 -4.348,-2.09 -7,-2 -3.619,-0.744 -7.285,-1.077 -11,-1 -3.651,-0.665 -7.485,-0.999 -11.5,-1 -5.752,-0.189 -11.252,0.478 -16.5,2 -1.667,0 -3.333,0 -5,0 -3.662,0.223 -6.995,1.223 -10,3 -4.033,0.525 -7.7,1.858 -11,4 -6.593,1.31 -12.593,3.976 -18,8 0,-1 0,-2 0,-3 33.589,-18.126 68.422,-20.792 104.5,-8 7.139,3.903 14.473,7.57 22,11 3.39,2.894 6.557,5.894 9.5,9 z"
         id="path487" />
    </g>
    <g
       id="g488"
       style="clip-rule:evenodd;fill-rule:evenodd;image-rendering:optimizeQuality;shape-rendering:geometricPrecision;text-rendering:geometricPrecision"
       transform="matrix(0.31598668,0,0,0.31598668,-229.84179,-127.53146)">
      <path
         style="opacity:1"
         fill="#add9f2"
         d="m 900.5,430.5 c 2.652,-0.09 4.985,0.576 7,2 -2.652,0.09 -4.985,-0.576 -7,-2 z"
         id="path488" />
    </g>
    <g
       id="g489"
       style="clip-rule:evenodd;fill-rule:evenodd;image-rendering:optimizeQuality;shape-rendering:geometricPrecision;text-rendering:geometricPrecision"
       transform="matrix(0.31598668,0,0,0.31598668,-229.84179,-127.53146)">
      <path
         style="opacity:1"
         fill="#4786be"
         d="m 889.5,430.5 c 0,-0.333 0,-0.667 0,-1 3.715,-0.077 7.381,0.256 11,1 2.015,1.424 4.348,2.09 7,2 1.495,0.489 2.829,1.155 4,2 -3.018,0.165 -6.018,-0.002 -9,-0.5 -4.334,-1.213 -8.668,-2.38 -13,-3.5 z"
         id="path489" />
    </g>
    <g
       id="g490"
       style="clip-rule:evenodd;fill-rule:evenodd;image-rendering:optimizeQuality;shape-rendering:geometricPrecision;text-rendering:geometricPrecision"
       transform="matrix(0.31598668,0,0,0.31598668,-229.84179,-127.53146)">
      <path
         style="opacity:1"
         fill="#367bb6"
         d="m 889.5,429.5 c 0,0.333 0,0.667 0,1 -18.318,0.146 -36.318,2.479 -54,7 3.3,-2.142 6.967,-3.475 11,-4 3.662,-0.223 6.995,-1.223 10,-3 1.667,0 3.333,0 5,0 9.309,-0.817 18.643,-1.15 28,-1 z"
         id="path490" />
    </g>
    <g
       id="g491"
       style="clip-rule:evenodd;fill-rule:evenodd;image-rendering:optimizeQuality;shape-rendering:geometricPrecision;text-rendering:geometricPrecision"
       transform="matrix(0.31598668,0,0,0.31598668,-229.84179,-127.53146)">
      <path
         style="opacity:1"
         fill="#95c1e2"
         d="m 856.5,430.5 c -3.005,1.777 -6.338,2.777 -10,3 3.005,-1.777 6.338,-2.777 10,-3 z"
         id="path491" />
    </g>
    <g
       id="g492"
       style="clip-rule:evenodd;fill-rule:evenodd;image-rendering:optimizeQuality;shape-rendering:geometricPrecision;text-rendering:geometricPrecision"
       transform="matrix(0.31598668,0,0,0.31598668,-229.84179,-127.53146)">
      <path
         style="opacity:1"
         fill="#9dcae8"
         d="m 889.5,429.5 c -9.357,-0.15 -18.691,0.183 -28,1 5.248,-1.522 10.748,-2.189 16.5,-2 4.015,10e-4 7.849,0.335 11.5,1 z"
         id="path492" />
    </g>
    <g
       id="g498"
       style="clip-rule:evenodd;fill-rule:evenodd;image-rendering:optimizeQuality;shape-rendering:geometricPrecision;text-rendering:geometricPrecision"
       transform="matrix(0.31598668,0,0,0.31598668,-229.84179,-127.53146)">
      <path
         style="opacity:1"
         fill="#247dcb"
         d="m 889.5,430.5 c 4.332,1.12 8.666,2.287 13,3.5 2.982,0.498 5.982,0.665 9,0.5 5.12,3.154 10.787,5.154 17,6 0.992,-0.172 1.658,0.162 2,1 2.969,2.492 5.969,4.992 9,7.5 -2.965,2.089 -5.799,1.922 -8.5,-0.5 -1.364,0.758 -2.531,0.258 -3.5,-1.5 -1.293,-0.49 -2.627,-0.657 -4,-0.5 -5.447,-4.288 -11.78,-6.288 -19,-6 -0.667,0 -1.333,0 -2,0 -0.929,-0.815 -1.929,-1.648 -3,-2.5 -11.969,-2.336 -23.969,-2.669 -36,-1 -0.916,0.278 -1.582,0.778 -2,1.5 -0.333,0 -0.667,0 -1,0 -6.528,0.048 -12.862,1.215 -19,3.5 -2.739,1.026 -5.072,2.526 -7,4.5 -3.055,0.536 -6.055,1.369 -9,2.5 -1.926,0.422 -2.926,1.589 -3,3.5 -0.342,0.838 -1.008,1.172 -2,1 -3.173,0.67 -6.173,1.836 -9,3.5 -3.792,2.79 -7.292,5.956 -10.5,9.5 -0.464,0.594 -0.631,1.261 -0.5,2 0,0.333 0,0.667 0,1 -1.373,-0.157 -2.707,0.01 -4,0.5 -2,3.333 -4.667,6 -8,8 0.752,0.671 1.086,1.504 1,2.5 -1.544,0.203 -2.878,0.87 -4,2 -1.996,-1.22 -2.829,-2.886 -2.5,-5 6.498,-6.991 12.998,-13.991 19.5,-21 1.943,-2.971 4.609,-4.971 8,-6 1.373,0.157 2.707,-0.01 4,-0.5 6.695,-4.901 13.695,-9.068 21,-12.5 17.682,-4.521 35.682,-6.854 54,-7 z"
         id="path498" />
    </g>
    <g
       id="g501"
       style="clip-rule:evenodd;fill-rule:evenodd;image-rendering:optimizeQuality;shape-rendering:geometricPrecision;text-rendering:geometricPrecision"
       transform="matrix(0.31598668,0,0,0.31598668,-229.84179,-127.53146)">
      <path
         style="opacity:1"
         fill="#4281b7"
         d="m 911.5,434.5 c 5.403,1.185 10.737,2.685 16,4.5 0.556,0.383 0.889,0.883 1,1.5 -6.213,-0.846 -11.88,-2.846 -17,-6 z"
         id="path501" />
    </g>
    <g
       id="g502"
       style="clip-rule:evenodd;fill-rule:evenodd;image-rendering:optimizeQuality;shape-rendering:geometricPrecision;text-rendering:geometricPrecision"
       transform="matrix(0.31598668,0,0,0.31598668,-229.84179,-127.53146)">
      <path
         style="opacity:1"
         fill="#3a7fb7"
         d="m 902.5,440.5 c -5.065,-0.4 -10.065,-1.233 -15,-2.5 -6.415,-0.79 -12.748,-0.624 -19,0.5 -2.333,0 -4.667,0 -7,0 0.418,-0.722 1.084,-1.222 2,-1.5 12.031,-1.669 24.031,-1.336 36,1 1.071,0.852 2.071,1.685 3,2.5 z"
         id="path502" />
    </g>
    <g
       id="g508"
       style="clip-rule:evenodd;fill-rule:evenodd;image-rendering:optimizeQuality;shape-rendering:geometricPrecision;text-rendering:geometricPrecision"
       transform="matrix(0.31598668,0,0,0.31598668,-229.84179,-127.53146)">
      <path
         style="opacity:1"
         fill="#3a7db6"
         d="m 860.5,438.5 c -1.333,0.667 -2.667,1.333 -4,2 -7.592,1.065 -14.925,3.065 -22,6 1.928,-1.974 4.261,-3.474 7,-4.5 6.138,-2.285 12.472,-3.452 19,-3.5 z"
         id="path508" />
    </g>
    <g
       id="g509"
       style="clip-rule:evenodd;fill-rule:evenodd;image-rendering:optimizeQuality;shape-rendering:geometricPrecision;text-rendering:geometricPrecision"
       transform="matrix(0.31598668,0,0,0.31598668,-229.84179,-127.53146)">
      <path
         style="opacity:1"
         fill="#a1ceeb"
         d="m 860.5,438.5 c 0.333,0 0.667,0 1,0 2.333,0 4.667,0 7,0 -2.333,0.667 -4.667,1.333 -7,2 -0.333,0 -0.667,0 -1,0 -1.333,0 -2.667,0 -4,0 1.333,-0.667 2.667,-1.333 4,-2 z"
         id="path509" />
    </g>
    <g
       id="g510"
       style="clip-rule:evenodd;fill-rule:evenodd;image-rendering:optimizeQuality;shape-rendering:geometricPrecision;text-rendering:geometricPrecision"
       transform="matrix(0.31598668,0,0,0.31598668,-229.84179,-127.53146)">
      <path
         style="opacity:1"
         fill="#f9f9f9"
         d="m 924.5,448.5 c 0.333,0 0.667,0 1,0 2.893,2.81 5.893,5.644 9,8.5 4.044,2.552 8.378,4.385 13,5.5 0.209,1.422 0.709,2.755 1.5,4 2.257,1.546 4.424,3.212 6.5,5 2.865,5.408 6.865,9.741 12,13 1.429,3.571 3.763,6.238 7,8 -0.12,2.234 0.213,4.401 1,6.5 2.381,1.923 3.881,4.423 4.5,7.5 0.671,0.752 1.504,1.086 2.5,1 0.895,3.238 0.895,6.405 0,9.5 5.624,15.544 7.791,31.378 6.5,47.5 -1.186,10.049 -2.352,20.049 -3.5,30 0,0.667 -0.333,1 -1,1 -4.713,10.347 -10.047,20.347 -16,30 -1,0 -2,0 -3,0 0,1.333 0,2.667 0,4 -1,0 -2,0 -3,0 0,1 0,2 0,3 -1.052,-0.149 -2.052,0.017 -3,0.5 -4.368,3.513 -7.701,7.68 -10,12.5 -1.373,-0.157 -2.707,0.01 -4,0.5 0.752,0.671 1.086,1.504 1,2.5 -0.65,-0.304 -1.317,-0.637 -2,-1 -3.113,2.463 -6.447,4.463 -10,6 0,1 0,2 0,3 -1.533,1.745 -3.533,2.745 -6,3 -10.217,4.178 -20.884,7.178 -32,9 -0.667,-0.333 -1.333,-0.667 -2,-1 -6.059,1.46 -12.226,2.127 -18.5,2 -5.497,0.2 -10.83,-0.466 -16,-2 -0.333,0.333 -0.667,0.667 -1,1 -7.577,-2.749 -15.411,-4.416 -23.5,-5 -7.875,-4.563 -15.375,-9.896 -22.5,-16 -2.875,-2.021 -6.042,-3.354 -9.5,-4 -3.333,-3 -6.667,-6 -10,-9 -5.121,-6.127 -9.454,-12.794 -13,-20 -2.98,-8.237 -5.813,-16.571 -8.5,-25 -3.064,-11.14 -5.23,-22.474 -6.5,-34 0.007,-7.43 1.673,-14.43 5,-21 -0.037,-3.549 -0.37,-7.215 -1,-11 0.917,-2.917 1.584,-5.917 2,-9 0.403,-2.986 1.403,-5.652 3,-8 1.322,0.17 2.489,-0.163 3.5,-1 1.507,-4.344 3.007,-8.678 4.5,-13 1.083,-0.039 2.083,-0.373 3,-1 3.372,-3.356 5.372,-7.356 6,-12 3.019,-3.415 6.019,-6.749 9,-10 0,-0.333 0,-0.667 0,-1 4.076,-3.415 8.409,-6.415 13,-9 2.382,-1.546 5.049,-2.213 8,-2 0,-1 0,-2 0,-3 2.427,-0.023 4.76,-0.523 7,-1.5 3.761,-2.765 7.761,-5.098 12,-7 6.954,-1.311 13.621,-3.145 20,-5.5 0.333,0 0.667,0 1,0 8.992,-0.774 17.992,-0.941 27,-0.5 7.429,2.42 15.096,4.087 23,5 3.79,3.021 8.123,4.188 13,3.5 z"
         id="path510" />
    </g>
    <g
       id="g512"
       style="clip-rule:evenodd;fill-rule:evenodd;image-rendering:optimizeQuality;shape-rendering:geometricPrecision;text-rendering:geometricPrecision"
       transform="matrix(0.31598668,0,0,0.31598668,-229.84179,-127.53146)">
      <path
         style="opacity:1"
         fill="#3d7fb5"
         d="m 904.5,440.5 c 7.22,-0.288 13.553,1.712 19,6 -6.367,-2.012 -12.701,-4.012 -19,-6 z"
         id="path512" />
    </g>
    <g
       id="g513"
       style="clip-rule:evenodd;fill-rule:evenodd;image-rendering:optimizeQuality;shape-rendering:geometricPrecision;text-rendering:geometricPrecision"
       transform="matrix(0.31598668,0,0,0.31598668,-229.84179,-127.53146)">
      <path
         style="opacity:1"
         fill="#d3edf5"
         d="m 902.5,440.5 c 0.667,0 1.333,0 2,0 6.299,1.988 12.633,3.988 19,6 0.333,0.667 0.667,1.333 1,2 -4.877,0.688 -9.21,-0.479 -13,-3.5 -7.904,-0.913 -15.571,-2.58 -23,-5 -9.008,-0.441 -18.008,-0.274 -27,0.5 2.333,-0.667 4.667,-1.333 7,-2 6.252,-1.124 12.585,-1.29 19,-0.5 4.935,1.267 9.935,2.1 15,2.5 z"
         id="path513" />
    </g>
    <g
       id="g517"
       style="clip-rule:evenodd;fill-rule:evenodd;image-rendering:optimizeQuality;shape-rendering:geometricPrecision;text-rendering:geometricPrecision"
       transform="matrix(0.31598668,0,0,0.31598668,-229.84179,-127.53146)">
      <path
         style="opacity:1"
         fill="#3d7fb9"
         d="m 834.5,446.5 c -3.869,2.184 -7.869,4.184 -12,6 0.074,-1.911 1.074,-3.078 3,-3.5 2.945,-1.131 5.945,-1.964 9,-2.5 z"
         id="path517" />
    </g>
    <g
       id="g519"
       style="clip-rule:evenodd;fill-rule:evenodd;image-rendering:optimizeQuality;shape-rendering:geometricPrecision;text-rendering:geometricPrecision"
       transform="matrix(0.31598668,0,0,0.31598668,-229.84179,-127.53146)">
      <path
         style="opacity:1"
         fill="#3e7fbb"
         d="m 835.5,437.5 c -7.305,3.432 -14.305,7.599 -21,12.5 -1.293,0.49 -2.627,0.657 -4,0.5 0,-0.333 0,-0.667 0,-1 2.333,-1.333 4.667,-2.667 7,-4 5.407,-4.024 11.407,-6.69 18,-8 z"
         id="path519" />
    </g>
    <g
       id="g520"
       style="clip-rule:evenodd;fill-rule:evenodd;image-rendering:optimizeQuality;shape-rendering:geometricPrecision;text-rendering:geometricPrecision"
       transform="matrix(0.31598668,0,0,0.31598668,-229.84179,-127.53146)">
      <path
         style="opacity:1"
         fill="#387db8"
         d="m 930.5,441.5 c 1.808,-0.009 3.475,0.491 5,1.5 5.887,4.104 11.887,7.938 18,11.5 2.36,3.027 5.027,5.694 8,8 -6.888,-3.868 -13.554,-8.201 -20,-13 -1.333,0.667 -2.333,1.667 -3,3 2.493,2.08 5.159,3.914 8,5.5 1.71,1.651 3.044,3.484 4,5.5 -0.891,-0.61 -1.891,-0.943 -3,-1 -6.525,-5.843 -13.859,-10.51 -22,-14 -0.333,0 -0.667,0 -1,0 -0.333,-0.667 -0.667,-1.333 -1,-2 1.373,-0.157 2.707,0.01 4,0.5 0.969,1.758 2.136,2.258 3.5,1.5 2.701,2.422 5.535,2.589 8.5,0.5 -3.031,-2.508 -6.031,-5.008 -9,-7.5 z"
         id="path520" />
    </g>
    <g
       id="g522"
       style="clip-rule:evenodd;fill-rule:evenodd;image-rendering:optimizeQuality;shape-rendering:geometricPrecision;text-rendering:geometricPrecision"
       transform="matrix(0.31598668,0,0,0.31598668,-229.84179,-127.53146)">
      <path
         style="opacity:1"
         fill="#d9f1f8"
         d="m 856.5,440.5 c 1.333,0 2.667,0 4,0 -6.379,2.355 -13.046,4.189 -20,5.5 -4.239,1.902 -8.239,4.235 -12,7 -2.24,0.977 -4.573,1.477 -7,1.5 0,1 0,2 0,3 -2.951,-0.213 -5.618,0.454 -8,2 2.147,-2.237 4.48,-4.237 7,-6 0.992,0.172 1.658,-0.162 2,-1 4.131,-1.816 8.131,-3.816 12,-6 7.075,-2.935 14.408,-4.935 22,-6 z"
         id="path522" />
    </g>
    <g
       id="g528"
       style="clip-rule:evenodd;fill-rule:evenodd;image-rendering:optimizeQuality;shape-rendering:geometricPrecision;text-rendering:geometricPrecision"
       transform="matrix(0.31598668,0,0,0.31598668,-229.84179,-127.53146)">
      <path
         style="opacity:1"
         fill="#dbf2f8"
         d="m 925.5,448.5 c 8.141,3.49 15.475,8.157 22,14 -4.622,-1.115 -8.956,-2.948 -13,-5.5 -3.107,-2.856 -6.107,-5.69 -9,-8.5 z"
         id="path528" />
    </g>
    <g
       id="g534"
       style="clip-rule:evenodd;fill-rule:evenodd;image-rendering:optimizeQuality;shape-rendering:geometricPrecision;text-rendering:geometricPrecision"
       transform="matrix(0.31598668,0,0,0.31598668,-229.84179,-127.53146)">
      <path
         style="opacity:1"
         fill="#daf0f7"
         d="m 953.5,454.5 c 2.693,1.052 5.36,2.052 8,3 -0.219,1.175 0.114,2.175 1,3 4.028,1.74 6.361,4.74 7,9 -2.667,-2.333 -5.333,-4.667 -8,-7 -2.973,-2.306 -5.64,-4.973 -8,-8 z"
         id="path534" />
    </g>
    <g
       id="g535"
       style="clip-rule:evenodd;fill-rule:evenodd;image-rendering:optimizeQuality;shape-rendering:geometricPrecision;text-rendering:geometricPrecision"
       transform="matrix(0.31598668,0,0,0.31598668,-229.84179,-127.53146)">
      <path
         style="opacity:1"
         fill="#3b7cb4"
         d="m 820.5,453.5 c -2.52,1.763 -4.853,3.763 -7,6 -4.591,2.585 -8.924,5.585 -13,9 -0.131,-0.739 0.036,-1.406 0.5,-2 3.208,-3.544 6.708,-6.71 10.5,-9.5 2.827,-1.664 5.827,-2.83 9,-3.5 z"
         id="path535" />
    </g>
    <g
       id="g546"
       style="clip-rule:evenodd;fill-rule:evenodd;image-rendering:optimizeQuality;shape-rendering:geometricPrecision;text-rendering:geometricPrecision"
       transform="matrix(0.31598668,0,0,0.31598668,-229.84179,-127.53146)">
      <path
         style="opacity:1"
         fill="#267cca"
         d="m 961.5,462.5 c 1.13,3.922 3.463,6.922 7,9 -1.211,1.22 -1.211,2.387 0,3.5 -4.006,0.499 -6.006,-1.335 -6,-5.5 -4.258,0.205 -7.258,-1.628 -9,-5.5 -0.948,-0.483 -1.948,-0.649 -3,-0.5 -0.956,-2.016 -2.29,-3.849 -4,-5.5 -2.841,-1.586 -5.507,-3.42 -8,-5.5 0.667,-1.333 1.667,-2.333 3,-3 6.446,4.799 13.112,9.132 20,13 z"
         id="path546" />
    </g>
    <g
       id="g549"
       style="clip-rule:evenodd;fill-rule:evenodd;image-rendering:optimizeQuality;shape-rendering:geometricPrecision;text-rendering:geometricPrecision"
       transform="matrix(0.31598668,0,0,0.31598668,-229.84179,-127.53146)">
      <path
         style="opacity:1"
         fill="#4280b7"
         d="m 800.5,469.5 c -2.981,3.251 -5.981,6.585 -9,10 -0.667,0.333 -1.333,0.667 -2,1 0.086,-0.996 -0.248,-1.829 -1,-2.5 3.333,-2 6,-4.667 8,-8 1.293,-0.49 2.627,-0.657 4,-0.5 z"
         id="path549" />
    </g>
    <g
       id="g550"
       style="clip-rule:evenodd;fill-rule:evenodd;image-rendering:optimizeQuality;shape-rendering:geometricPrecision;text-rendering:geometricPrecision"
       transform="matrix(0.31598668,0,0,0.31598668,-229.84179,-127.53146)">
      <path
         style="opacity:1"
         fill="#317abc"
         d="m 961.5,462.5 c 2.667,2.333 5.333,4.667 8,7 1.752,1.746 3.085,3.746 4,6 0.763,2.641 0.93,5.308 0.5,8 -3.068,-2.251 -6.235,-4.251 -9.5,-6 -4.279,-4.946 -8.946,-9.613 -14,-14 1.052,-0.149 2.052,0.017 3,0.5 1.742,3.872 4.742,5.705 9,5.5 -0.006,4.165 1.994,5.999 6,5.5 -1.211,-1.113 -1.211,-2.28 0,-3.5 -3.537,-2.078 -5.87,-5.078 -7,-9 z"
         id="path550" />
    </g>
    <g
       id="g553"
       style="clip-rule:evenodd;fill-rule:evenodd;image-rendering:optimizeQuality;shape-rendering:geometricPrecision;text-rendering:geometricPrecision"
       transform="matrix(0.31598668,0,0,0.31598668,-229.84179,-127.53146)">
      <path
         style="opacity:1"
         fill="#dff3f8"
         d="m 947.5,462.5 c 1.109,0.057 2.109,0.39 3,1 5.054,4.387 9.721,9.054 14,14 4.088,4.513 7.421,9.513 10,15 -3.237,-1.762 -5.571,-4.429 -7,-8 -5.135,-3.259 -9.135,-7.592 -12,-13 -2.076,-1.788 -4.243,-3.454 -6.5,-5 -0.791,-1.245 -1.291,-2.578 -1.5,-4 z"
         id="path553" />
    </g>
    <g
       id="g558"
       style="clip-rule:evenodd;fill-rule:evenodd;image-rendering:optimizeQuality;shape-rendering:geometricPrecision;text-rendering:geometricPrecision"
       transform="matrix(0.31598668,0,0,0.31598668,-229.84179,-127.53146)">
      <path
         style="opacity:1"
         fill="#dff3f8"
         d="m 969.5,469.5 c 4.42,0.581 7.586,2.914 9.5,7 2.416,4.501 5.083,8.834 8,13 2.027,3.728 3.193,7.728 3.5,12 -4.162,-9.659 -9.828,-18.325 -17,-26 -0.915,-2.254 -2.248,-4.254 -4,-6 z"
         id="path558" />
    </g>
    <g
       id="g560"
       style="clip-rule:evenodd;fill-rule:evenodd;image-rendering:optimizeQuality;shape-rendering:geometricPrecision;text-rendering:geometricPrecision"
       transform="matrix(0.31598668,0,0,0.31598668,-229.84179,-127.53146)">
      <path
         style="opacity:1"
         fill="#ddf3f9"
         d="m 810.5,449.5 c 0,0.333 0,0.667 0,1 -3.391,1.029 -6.057,3.029 -8,6 -10.419,7.751 -19.086,17.084 -26,28 -5.455,7.34 -9.788,15.34 -13,24 -0.333,0 -0.667,0 -1,0 0.986,-6.433 3.152,-12.433 6.5,-18 4.298,-6.968 8.798,-13.635 13.5,-20 1,0 2,0 3,0 0,-1 0,-2 0,-3 1,0 2,0 3,0 -0.149,-1.052 0.017,-2.052 0.5,-3 2.768,-2.296 5.601,-4.296 8.5,-6 -0.149,-1.052 0.017,-2.052 0.5,-3 2.897,-1.319 5.397,-3.153 7.5,-5.5 1.634,-0.494 3.301,-0.66 5,-0.5 z"
         id="path560" />
    </g>
    <g
       id="g562"
       style="clip-rule:evenodd;fill-rule:evenodd;image-rendering:optimizeQuality;shape-rendering:geometricPrecision;text-rendering:geometricPrecision"
       transform="matrix(0.31598668,0,0,0.31598668,-229.84179,-127.53146)">
      <path
         style="opacity:1"
         fill="#387dbb"
         d="m 802.5,456.5 c -6.502,7.009 -13.002,14.009 -19.5,21 -0.329,2.114 0.504,3.78 2.5,5 1.122,-1.13 2.456,-1.797 4,-2 -1.765,3.209 -3.765,6.209 -6,9 0,-2 0,-4 0,-6 -2.45,-0.202 -4.783,0.131 -7,1 6.914,-10.916 15.581,-20.249 26,-28 z"
         id="path562" />
    </g>
    <g
       id="g565"
       style="clip-rule:evenodd;fill-rule:evenodd;image-rendering:optimizeQuality;shape-rendering:geometricPrecision;text-rendering:geometricPrecision"
       transform="matrix(0.31598668,0,0,0.31598668,-229.84179,-127.53146)">
      <path
         style="opacity:1"
         fill="#5188b2"
         d="m 944.5,482.5 c -2.667,0.667 -5.333,1.333 -8,2 0.806,-1.228 1.806,-2.228 3,-3 1.315,-0.976 2.648,-1.976 4,-3 0.929,1.189 1.262,2.522 1,4 z"
         id="path565" />
    </g>
    <g
       id="g566"
       style="clip-rule:evenodd;fill-rule:evenodd;image-rendering:optimizeQuality;shape-rendering:geometricPrecision;text-rendering:geometricPrecision"
       transform="matrix(0.31598668,0,0,0.31598668,-229.84179,-127.53146)">
      <path
         style="opacity:1"
         fill="#3b7eb7"
         d="m 973.5,475.5 c 7.172,7.675 12.838,16.341 17,26 0.575,3.412 1.908,6.412 4,9 -0.067,1.459 0.266,2.792 1,4 1.535,6.48 3.202,12.813 5,19 0.73,4.63 1.06,9.297 1,14 0.12,8.358 -0.21,16.691 -1,25 -1.844,4.362 -2.844,9.029 -3,14 -0.59,4.103 -1.59,8.103 -3,12 -1.187,1.572 -2.187,3.239 -3,5 3.449,-11.742 5.949,-23.742 7.5,-36 1.54,-17.87 -0.292,-35.37 -5.5,-52.5 -1.234,-2.979 -2.9,-5.645 -5,-8 1.017,-1.049 1.184,-2.216 0.5,-3.5 -2.889,-3.138 -4.722,-6.805 -5.5,-11 -2.255,-2.922 -4.422,-5.922 -6.5,-9 -0.956,1.079 -1.789,2.245 -2.5,3.5 3.909,6.727 7.242,13.727 10,21 0.509,1.169 1.342,2.002 2.5,2.5 0.332,3.006 1.166,5.84 2.5,8.5 -0.556,0.383 -0.889,0.883 -1,1.5 -0.333,0 -0.667,0 -1,0 -1.099,-4.644 -2.766,-8.978 -5,-13 -1.837,-5.487 -4.503,-10.487 -8,-15 -2.579,-5.487 -5.912,-10.487 -10,-15 3.265,1.749 6.432,3.749 9.5,6 0.43,-2.692 0.263,-5.359 -0.5,-8 z"
         id="path566" />
    </g>
    <g
       id="g568"
       style="clip-rule:evenodd;fill-rule:evenodd;image-rendering:optimizeQuality;shape-rendering:geometricPrecision;text-rendering:geometricPrecision"
       transform="matrix(0.31598668,0,0,0.31598668,-229.84179,-127.53146)">
      <path
         style="opacity:1"
         fill="#def5f9"
         d="m 862.5,483.5 c -6.522,-0.323 -12.855,0.01 -19,1 -2.995,-0.206 -5.662,0.46 -8,2 -8.749,2.986 -17.249,6.652 -25.5,11 -1.303,-0.478 -2.469,-1.145 -3.5,-2 -0.774,-0.647 -1.774,-0.98 -3,-1 -1.855,-0.16 -3.188,0.507 -4,2 -1.526,0.992 -2.193,2.492 -2,4.5 0.014,1.385 0.348,2.551 1,3.5 -0.09,2.652 0.576,4.985 2,7 0.221,2.567 0.888,4.901 2,7 1.25,2.506 1.916,5.173 2,8 -5.271,-7.369 -8.271,-15.703 -9,-25 0.436,-3.805 2.103,-6.971 5,-9.5 4.905,0.867 9.905,1.201 15,1 8.496,-4.882 17.496,-8.716 27,-11.5 6.744,-0.506 13.411,0.161 20,2 z"
         id="path568" />
    </g>
    <g
       id="g569"
       style="clip-rule:evenodd;fill-rule:evenodd;image-rendering:optimizeQuality;shape-rendering:geometricPrecision;text-rendering:geometricPrecision"
       transform="matrix(0.31598668,0,0,0.31598668,-229.84179,-127.53146)">
      <path
         style="opacity:1"
         fill="#77aed7"
         d="m 843.5,484.5 c -1.333,0.667 -2.667,1.333 -4,2 -0.333,0 -0.667,0 -1,0 -1,0 -2,0 -3,0 2.338,-1.54 5.005,-2.206 8,-2 z"
         id="path569" />
    </g>
    <g
       id="g570"
       style="clip-rule:evenodd;fill-rule:evenodd;image-rendering:optimizeQuality;shape-rendering:geometricPrecision;text-rendering:geometricPrecision"
       transform="matrix(0.31598668,0,0,0.31598668,-229.84179,-127.53146)">
      <path
         style="opacity:1"
         fill="#2c79ba"
         d="m 843.5,484.5 c 11.097,-0.45 22.097,0.217 33,2 1.068,0.934 2.401,1.268 4,1 1.194,0.772 2.194,1.772 3,3 -14.38,-4.238 -29.046,-5.571 -44,-4 1.333,-0.667 2.667,-1.333 4,-2 z"
         id="path570" />
    </g>
    <g
       id="g571"
       style="clip-rule:evenodd;fill-rule:evenodd;image-rendering:optimizeQuality;shape-rendering:geometricPrecision;text-rendering:geometricPrecision"
       transform="matrix(0.31598668,0,0,0.31598668,-229.84179,-127.53146)">
      <path
         style="opacity:1"
         fill="#8fc0e3"
         d="m 843.5,484.5 c 6.145,-0.99 12.478,-1.323 19,-1 3.715,-0.077 7.381,0.256 11,1 1,0.667 2,1.333 3,2 -10.903,-1.783 -21.903,-2.45 -33,-2 z"
         id="path571" />
    </g>
    <g
       id="g572"
       style="clip-rule:evenodd;fill-rule:evenodd;image-rendering:optimizeQuality;shape-rendering:geometricPrecision;text-rendering:geometricPrecision"
       transform="matrix(0.31598668,0,0,0.31598668,-229.84179,-127.53146)">
      <path
         style="opacity:1"
         fill="#d5f1f8"
         d="m 939.5,481.5 c -1.194,0.772 -2.194,1.772 -3,3 -6.182,3.06 -12.515,5.726 -19,8 -12.968,2.424 -25.301,0.758 -37,-5 -1.599,0.268 -2.932,-0.066 -4,-1 -1,-0.667 -2,-1.333 -3,-2 6.081,0.527 11.748,2.36 17,5.5 17.45,4.605 33.117,1.439 47,-9.5 0.683,0.363 1.35,0.696 2,1 z"
         id="path572" />
    </g>
    <g
       id="g573"
       style="clip-rule:evenodd;fill-rule:evenodd;image-rendering:optimizeQuality;shape-rendering:geometricPrecision;text-rendering:geometricPrecision"
       transform="matrix(0.31598668,0,0,0.31598668,-229.84179,-127.53146)">
      <path
         style="opacity:1"
         fill="#dcf2f7"
         d="m 791.5,479.5 c -0.628,4.644 -2.628,8.644 -6,12 -0.917,0.627 -1.917,0.961 -3,1 0.057,-1.109 0.39,-2.109 1,-3 2.235,-2.791 4.235,-5.791 6,-9 0.667,-0.333 1.333,-0.667 2,-1 z"
         id="path573" />
    </g>
    <g
       id="g578"
       style="clip-rule:evenodd;fill-rule:evenodd;image-rendering:optimizeQuality;shape-rendering:geometricPrecision;text-rendering:geometricPrecision"
       transform="matrix(0.31598668,0,0,0.31598668,-229.84179,-127.53146)">
      <path
         style="opacity:1"
         fill="#3680c0"
         d="m 776.5,484.5 c -0.857,3.049 -0.857,6.049 0,9 -0.683,2.961 -1.516,3.295 -2.5,1 -1.224,3.296 -3.058,6.129 -5.5,8.5 0.667,0.333 1.333,0.667 2,1 -2.645,1.044 -4.978,2.544 -7,4.5 3.212,-8.66 7.545,-16.66 13,-24 z"
         id="path578" />
    </g>
    <g
       id="g579"
       style="clip-rule:evenodd;fill-rule:evenodd;image-rendering:optimizeQuality;shape-rendering:geometricPrecision;text-rendering:geometricPrecision"
       transform="matrix(0.31598668,0,0,0.31598668,-229.84179,-127.53146)">
      <path
         style="opacity:1"
         fill="#74a5cb"
         d="m 806.5,495.5 c -1.915,-0.284 -3.581,0.049 -5,1 -0.333,0 -0.667,0 -1,0 -0.333,0 -0.667,0 -1,0 0.812,-1.493 2.145,-2.16 4,-2 1.226,0.02 2.226,0.353 3,1 z"
         id="path579" />
    </g>
    <g
       id="g580"
       style="clip-rule:evenodd;fill-rule:evenodd;image-rendering:optimizeQuality;shape-rendering:geometricPrecision;text-rendering:geometricPrecision"
       transform="matrix(0.31598668,0,0,0.31598668,-229.84179,-127.53146)">
      <path
         style="opacity:1"
         fill="#c8e6f4"
         d="m 945.5,484.5 c 3.365,9.235 5.031,18.902 5,29 -0.333,0 -0.667,0 -1,0 -1.876,-9.588 -3.209,-19.255 -4,-29 z"
         id="path580" />
    </g>
    <g
       id="g582"
       style="clip-rule:evenodd;fill-rule:evenodd;image-rendering:optimizeQuality;shape-rendering:geometricPrecision;text-rendering:geometricPrecision"
       transform="matrix(0.31598668,0,0,0.31598668,-229.84179,-127.53146)">
      <path
         style="opacity:1"
         fill="#1d7ed4"
         d="m 883.5,490.5 c 4.771,2.22 9.771,3.554 15,4 10.469,2.255 20.469,0.922 30,-4 0.586,0.209 1.086,0.543 1.5,1 2.675,-1.658 5.175,-3.491 7.5,-5.5 1.634,-0.494 3.301,-0.66 5,-0.5 1.361,8.443 3.194,16.776 5.5,25 0.367,9.469 1.7,18.802 4,28 0.752,3.394 0.585,6.727 -0.5,10 2.72,6.36 4.886,13.026 6.5,20 0.667,3.667 0.667,7.333 0,11 -1.167,1.167 -2.333,2.333 -3.5,3.5 -5.866,0.269 -10.533,2.602 -14,7 -9.934,1.395 -19.934,1.895 -30,1.5 -0.667,0 -1.333,0 -2,0 -5.171,-2.414 -10.504,-4.581 -16,-6.5 -1.201,-0.903 -2.035,-2.069 -2.5,-3.5 -7.749,0.224 -15.583,0.391 -23.5,0.5 -2.551,0.002 -4.551,0.836 -6,2.5 -0.333,0 -0.667,0 -1,0 -2.357,-0.163 -4.69,0.003 -7,0.5 -3.418,2.503 -7.084,4.503 -11,6 -0.752,0.671 -1.086,1.504 -1,2.5 -1.406,0.473 -2.073,1.473 -2,3 -0.624,0.417 -0.957,1.084 -1,2 0.699,5.669 1.699,11.336 3,17 0.065,0.438 -0.101,0.772 -0.5,1 -0.333,-0.667 -0.667,-1.333 -1,-2 -0.595,1.399 -0.428,2.732 0.5,4 -0.525,0.692 -1.192,1.192 -2,1.5 2.559,1.323 3.225,3.157 2,5.5 -0.667,-0.333 -1.333,-0.667 -2,-1 -1.857,-5.13 -3.523,-10.297 -5,-15.5 0.165,-1.117 0.498,-2.284 1,-3.5 -1.391,0.391 -2.391,-0.442 -3,-2.5 0.333,-0.333 0.667,-0.667 1,-1 -0.403,-4.246 -2.07,-7.912 -5,-11 0.654,-1.987 1.987,-3.32 4,-4 -0.5,-0.5 -1,-1 -1.5,-1.5 -1.011,0.837 -2.178,1.17 -3.5,1 -0.748,-2.084 -0.748,-4.084 0,-6 -0.873,-1.913 -1.873,-3.747 -3,-5.5 0.185,-2.818 -0.982,-5.318 -3.5,-7.5 -2.741,-11.219 -6.074,-22.219 -10,-33 -0.495,-1.973 -0.662,-3.973 -0.5,-6 -0.207,-2.155 -0.207,-4.488 0,-7 -5.075,-7.136 -7.075,-14.969 -6,-23.5 1.293,-0.49 2.627,-0.657 4,-0.5 1.568,1.369 3.401,2.369 5.5,3 2.107,-1.833 4.607,-2.999 7.5,-3.5 4.745,-5.366 10.745,-8.366 18,-9 0.556,-0.383 0.889,-0.883 1,-1.5 0.333,0 0.667,0 1,0 14.954,-1.571 29.62,-0.238 44,4 z"
         id="path582" />
    </g>
    <g
       id="g583"
       style="clip-rule:evenodd;fill-rule:evenodd;image-rendering:optimizeQuality;shape-rendering:geometricPrecision;text-rendering:geometricPrecision"
       transform="matrix(0.31598668,0,0,0.31598668,-229.84179,-127.53146)">
      <path
         style="opacity:1"
         fill="#4c8bbf"
         d="m 880.5,487.5 c 11.699,5.758 24.032,7.424 37,5 -0.418,0.722 -1.084,1.222 -2,1.5 -5.657,0.499 -11.324,0.666 -17,0.5 -5.229,-0.446 -10.229,-1.78 -15,-4 -0.806,-1.228 -1.806,-2.228 -3,-3 z"
         id="path583" />
    </g>
    <g
       id="g584"
       style="clip-rule:evenodd;fill-rule:evenodd;image-rendering:optimizeQuality;shape-rendering:geometricPrecision;text-rendering:geometricPrecision"
       transform="matrix(0.31598668,0,0,0.31598668,-229.84179,-127.53146)">
      <path
         style="opacity:1"
         fill="#95c0e0"
         d="m 799.5,496.5 c -0.765,2.596 -1.099,5.263 -1,8 -0.652,-0.949 -0.986,-2.115 -1,-3.5 -0.193,-2.008 0.474,-3.508 2,-4.5 z"
         id="path584" />
    </g>
    <g
       id="g585"
       style="clip-rule:evenodd;fill-rule:evenodd;image-rendering:optimizeQuality;shape-rendering:geometricPrecision;text-rendering:geometricPrecision"
       transform="matrix(0.31598668,0,0,0.31598668,-229.84179,-127.53146)">
      <path
         style="opacity:1"
         fill="#3880be"
         d="m 835.5,486.5 c 1,0 2,0 3,0 -0.111,0.617 -0.444,1.117 -1,1.5 -7.255,0.634 -13.255,3.634 -18,9 -2.893,0.501 -5.393,1.667 -7.5,3.5 -2.099,-0.631 -3.932,-1.631 -5.5,-3 -1.419,-0.951 -3.085,-1.284 -5,-1 1.419,-0.951 3.085,-1.284 5,-1 1.031,0.855 2.197,1.522 3.5,2 8.251,-4.348 16.751,-8.014 25.5,-11 z"
         id="path585" />
    </g>
    <g
       id="g586"
       style="clip-rule:evenodd;fill-rule:evenodd;image-rendering:optimizeQuality;shape-rendering:geometricPrecision;text-rendering:geometricPrecision"
       transform="matrix(0.31598668,0,0,0.31598668,-229.84179,-127.53146)">
      <path
         style="opacity:1"
         fill="#d4eff6"
         d="m 974.5,492.5 c 3.497,4.513 6.163,9.513 8,15 -0.996,0.086 -1.829,-0.248 -2.5,-1 -0.619,-3.077 -2.119,-5.577 -4.5,-7.5 -0.787,-2.099 -1.12,-4.266 -1,-6.5 z"
         id="path586" />
    </g>
    <g
       id="g598"
       style="clip-rule:evenodd;fill-rule:evenodd;image-rendering:optimizeQuality;shape-rendering:geometricPrecision;text-rendering:geometricPrecision"
       transform="matrix(0.31598668,0,0,0.31598668,-229.84179,-127.53146)">
      <path
         style="opacity:1"
         fill="#377ab4"
         d="m 783.5,489.5 c -0.61,0.891 -0.943,1.891 -1,3 -3.674,4.007 -6.341,8.673 -8,14 -1.597,2.348 -2.597,5.014 -3,8 -1.435,2.098 -2.602,4.431 -3.5,7 -0.741,4.902 -1.908,9.568 -3.5,14 0.585,-10.198 3.085,-19.865 7.5,-29 2.929,-5.288 5.762,-10.622 8.5,-16 0.825,-0.886 1.825,-1.219 3,-1 z"
         id="path598" />
    </g>
    <g
       id="g599"
       style="clip-rule:evenodd;fill-rule:evenodd;image-rendering:optimizeQuality;shape-rendering:geometricPrecision;text-rendering:geometricPrecision"
       transform="matrix(0.31598668,0,0,0.31598668,-229.84179,-127.53146)">
      <path
         style="opacity:1"
         fill="#ddf1f8"
         d="m 782.5,492.5 c -1.493,4.322 -2.993,8.656 -4.5,13 -1.011,0.837 -2.178,1.17 -3.5,1 1.659,-5.327 4.326,-9.993 8,-14 z"
         id="path599" />
    </g>
    <g
       id="g600"
       style="clip-rule:evenodd;fill-rule:evenodd;image-rendering:optimizeQuality;shape-rendering:geometricPrecision;text-rendering:geometricPrecision"
       transform="matrix(0.31598668,0,0,0.31598668,-229.84179,-127.53146)">
      <path
         style="opacity:1"
         fill="#c3e3f0"
         d="m 990.5,501.5 c 3.238,2.013 4.571,5.013 4,9 -2.092,-2.588 -3.425,-5.588 -4,-9 z"
         id="path600" />
    </g>
    <g
       id="g601"
       style="clip-rule:evenodd;fill-rule:evenodd;image-rendering:optimizeQuality;shape-rendering:geometricPrecision;text-rendering:geometricPrecision"
       transform="matrix(0.31598668,0,0,0.31598668,-229.84179,-127.53146)">
      <path
         style="opacity:1"
         fill="#267ec9"
         d="m 800.5,496.5 c 0.333,0 0.667,0 1,0 1.915,-0.284 3.581,0.049 5,1 -1.373,-0.157 -2.707,0.01 -4,0.5 -1.075,8.531 0.925,16.364 6,23.5 -0.207,2.512 -0.207,4.845 0,7 -1.197,-3.773 -3.197,-7.106 -6,-10 -0.667,-7.333 -1.333,-14.667 -2,-22 z"
         id="path601" />
    </g>
    <g
       id="g602"
       style="clip-rule:evenodd;fill-rule:evenodd;image-rendering:optimizeQuality;shape-rendering:geometricPrecision;text-rendering:geometricPrecision"
       transform="matrix(0.31598668,0,0,0.31598668,-229.84179,-127.53146)">
      <path
         style="opacity:1"
         fill="#3e80bb"
         d="m 799.5,496.5 c 0.333,0 0.667,0 1,0 0.667,7.333 1.333,14.667 2,22 -1.112,-2.099 -1.779,-4.433 -2,-7 0.09,-2.652 -0.576,-4.985 -2,-7 -0.099,-2.737 0.235,-5.404 1,-8 z"
         id="path602" />
    </g>
    <g
       id="g604"
       style="clip-rule:evenodd;fill-rule:evenodd;image-rendering:optimizeQuality;shape-rendering:geometricPrecision;text-rendering:geometricPrecision"
       transform="matrix(0.31598668,0,0,0.31598668,-229.84179,-127.53146)">
      <path
         style="opacity:1"
         fill="#8cbde1"
         d="m 798.5,504.5 c 1.424,2.015 2.09,4.348 2,7 -1.424,-2.015 -2.09,-4.348 -2,-7 z"
         id="path604" />
    </g>
    <g
       id="g606"
       style="clip-rule:evenodd;fill-rule:evenodd;image-rendering:optimizeQuality;shape-rendering:geometricPrecision;text-rendering:geometricPrecision"
       transform="matrix(0.31598668,0,0,0.31598668,-229.84179,-127.53146)">
      <path
         style="opacity:1"
         fill="#327ab6"
         d="m 900.5,526.5 c -3.018,0.165 -6.018,-0.002 -9,-0.5 -2.768,-6.37 -5.935,-12.537 -9.5,-18.5 -0.377,1.442 -1.21,2.442 -2.5,3 0,-1.333 0,-2.667 0,-4 1.644,-0.214 3.144,0.12 4.5,1 3.216,5.265 6.05,10.765 8.5,16.5 2.879,0.546 5.546,1.379 8,2.5 z"
         id="path606" />
    </g>
    <g
       id="g607"
       style="clip-rule:evenodd;fill-rule:evenodd;image-rendering:optimizeQuality;shape-rendering:geometricPrecision;text-rendering:geometricPrecision"
       transform="matrix(0.31598668,0,0,0.31598668,-229.84179,-127.53146)">
      <path
         style="opacity:1"
         fill="#d0edf8"
         d="m 762.5,508.5 c -1.43,7.604 -3.43,14.937 -6,22 -0.165,-3.35 0.002,-6.683 0.5,-10 1.369,-4.302 3.203,-8.302 5.5,-12 z"
         id="path607" />
    </g>
    <g
       id="g609"
       style="clip-rule:evenodd;fill-rule:evenodd;image-rendering:optimizeQuality;shape-rendering:geometricPrecision;text-rendering:geometricPrecision"
       transform="matrix(0.31598668,0,0,0.31598668,-229.84179,-127.53146)">
      <path
         style="opacity:1"
         fill="#f8f9f9"
         d="m 883.5,554.5 c -0.597,-0.639 -1.43,-0.972 -2.5,-1 -3.779,1.657 -7.612,2.823 -11.5,3.5 -0.644,-4.934 -1.31,-9.767 -2,-14.5 -1.096,-4.434 -3.429,-8.101 -7,-11 3.635,-1.106 7.302,-2.106 11,-3 0.743,-0.682 1.409,-1.349 2,-2 1.092,-3.95 2.759,-7.617 5,-11 1.315,-0.976 2.648,-1.976 4,-3 0.333,0.333 0.667,0.667 1,1 0.73,2.609 1.23,5.276 1.5,8 1.841,1.659 3.008,3.659 3.5,6 5.682,0.056 11.015,1.389 16,4 -1.45,1.35 -2.117,3.016 -2,5 -1,0 -2,0 -3,0 -0.836,2.687 -2.336,5.02 -4.5,7 -0.315,3.942 0.185,7.776 1.5,11.5 -0.59,1.299 -1.59,2.132 -3,2.5 -3.061,-1.932 -6.395,-2.932 -10,-3 z"
         id="path609" />
    </g>
    <g
       id="g610"
       style="clip-rule:evenodd;fill-rule:evenodd;image-rendering:optimizeQuality;shape-rendering:geometricPrecision;text-rendering:geometricPrecision"
       transform="matrix(0.31598668,0,0,0.31598668,-229.84179,-127.53146)">
      <path
         style="opacity:1"
         fill="#427fb2"
         d="m 762.5,508.5 c 0.333,0 0.667,0 1,0 -2.059,8.959 -3.726,17.959 -5,27 -0.617,0.111 -1.117,0.444 -1.5,1 -0.5,11.328 -0.667,22.662 -0.5,34 -1.267,-13.186 -1.267,-26.52 0,-40 2.57,-7.063 4.57,-14.396 6,-22 z"
         id="path610" />
    </g>
    <g
       id="g611"
       style="clip-rule:evenodd;fill-rule:evenodd;image-rendering:optimizeQuality;shape-rendering:geometricPrecision;text-rendering:geometricPrecision"
       transform="matrix(0.31598668,0,0,0.31598668,-229.84179,-127.53146)">
      <path
         style="opacity:1"
         fill="#7bb0db"
         d="m 949.5,513.5 c 0.333,0 0.667,0 1,0 0.493,2.306 0.826,4.639 1,7 -1.663,-1.938 -2.329,-4.272 -2,-7 z"
         id="path611" />
    </g>
    <g
       id="g612"
       style="clip-rule:evenodd;fill-rule:evenodd;image-rendering:optimizeQuality;shape-rendering:geometricPrecision;text-rendering:geometricPrecision"
       transform="matrix(0.31598668,0,0,0.31598668,-229.84179,-127.53146)">
      <path
         style="opacity:1"
         fill="#d7eff7"
         d="m 995.5,514.5 c 1.593,0.848 2.76,2.181 3.5,4 1.16,4.934 1.66,9.934 1.5,15 -1.798,-6.187 -3.465,-12.52 -5,-19 z"
         id="path612" />
    </g>
    <g
       id="g614"
       style="clip-rule:evenodd;fill-rule:evenodd;image-rendering:optimizeQuality;shape-rendering:geometricPrecision;text-rendering:geometricPrecision"
       transform="matrix(0.31598668,0,0,0.31598668,-229.84179,-127.53146)">
      <path
         style="opacity:1"
         fill="#2d7ec6"
         d="m 879.5,510.5 c -0.129,1.716 -0.462,3.383 -1,5 -2.241,3.383 -3.908,7.05 -5,11 -1,0 -2,0 -3,0 -5.569,-0.124 -10.902,0.543 -16,2 -0.438,-0.065 -0.772,0.101 -1,0.5 3.537,3.369 6.871,6.869 10,10.5 0.377,1.758 1.044,3.425 2,5 -0.808,6.304 -1.475,12.638 -2,19 -3.336,-3.361 -3.67,-7.028 -1,-11 -1.029,0.204 -2.029,-0.296 -3,-1.5 4.066,-4.052 3.733,-7.385 -1,-10 0.333,-0.333 0.667,-0.667 1,-1 -2.629,-1.458 -4.295,-3.625 -5,-6.5 -1,0 -2,0 -3,0 0.256,-2.292 -0.077,-4.459 -1,-6.5 2.578,-1.783 5.411,-2.949 8.5,-3.5 0.333,0.667 0.667,1.333 1,2 1.441,-0.76 2.941,-1.426 4.5,-2 1.815,0.146 3.815,0.312 6,0.5 1.333,-1 1.333,-2 0,-3 2.179,-0.442 2.845,-1.442 2,-3 1.607,-1.049 2.273,-2.549 2,-4.5 2.459,0.19 4.126,-0.81 5,-3 z"
         id="path614" />
    </g>
    <g
       id="g615"
       style="clip-rule:evenodd;fill-rule:evenodd;image-rendering:optimizeQuality;shape-rendering:geometricPrecision;text-rendering:geometricPrecision"
       transform="matrix(0.31598668,0,0,0.31598668,-229.84179,-127.53146)">
      <path
         style="opacity:1"
         fill="#4487bf"
         d="m 900.5,526.5 c 4.149,-0.58 7.816,0.086 11,2 -3.925,0.07 -7.591,-0.597 -11,-2 z"
         id="path615" />
    </g>
    <g
       id="g616"
       style="clip-rule:evenodd;fill-rule:evenodd;image-rendering:optimizeQuality;shape-rendering:geometricPrecision;text-rendering:geometricPrecision"
       transform="matrix(0.31598668,0,0,0.31598668,-229.84179,-127.53146)">
      <path
         style="opacity:1"
         fill="#97c2e3"
         d="m 987.5,520.5 c 0.333,0 0.667,0 1,0 0.493,2.306 0.826,4.639 1,7 -1.424,-2.015 -2.09,-4.348 -2,-7 z"
         id="path616" />
    </g>
    <g
       id="g617"
       style="clip-rule:evenodd;fill-rule:evenodd;image-rendering:optimizeQuality;shape-rendering:geometricPrecision;text-rendering:geometricPrecision"
       transform="matrix(0.31598668,0,0,0.31598668,-229.84179,-127.53146)">
      <path
         style="opacity:1"
         fill="#9ccaea"
         d="m 870.5,526.5 c -5.083,1.578 -10.416,2.245 -16,2 5.098,-1.457 10.431,-2.124 16,-2 z"
         id="path617" />
    </g>
    <g
       id="g618"
       style="clip-rule:evenodd;fill-rule:evenodd;image-rendering:optimizeQuality;shape-rendering:geometricPrecision;text-rendering:geometricPrecision"
       transform="matrix(0.31598668,0,0,0.31598668,-229.84179,-127.53146)">
      <path
         style="opacity:1"
         fill="#b6ddf0"
         d="m 771.5,514.5 c -0.416,3.083 -1.083,6.083 -2,9 -2.074,7.227 -3.741,14.56 -5,22 0,-1 0,-2 0,-3 0,-1.333 0,-2.667 0,-4 0,-1 0,-2 0,-3 1.592,-4.432 2.759,-9.098 3.5,-14 0.898,-2.569 2.065,-4.902 3.5,-7 z"
         id="path618" />
    </g>
    <g
       id="g619"
       style="clip-rule:evenodd;fill-rule:evenodd;image-rendering:optimizeQuality;shape-rendering:geometricPrecision;text-rendering:geometricPrecision"
       transform="matrix(0.31598668,0,0,0.31598668,-229.84179,-127.53146)">
      <path
         style="opacity:1"
         fill="#d8f1f7"
         d="m 900.5,526.5 c 3.409,1.403 7.075,2.07 11,2 -4.297,4.798 -8.797,9.465 -13.5,14 -0.494,1.634 -0.66,3.301 -0.5,5 -0.105,4.048 0.228,8.048 1,12 -2.403,0.052 -4.736,-0.281 -7,-1 -1.333,-0.333 -2.667,-0.667 -4,-1 -1.333,-1 -2.667,-2 -4,-3 3.605,0.068 6.939,1.068 10,3 1.41,-0.368 2.41,-1.201 3,-2.5 -1.315,-3.724 -1.815,-7.558 -1.5,-11.5 2.164,-1.98 3.664,-4.313 4.5,-7 1,0 2,0 3,0 -0.117,-1.984 0.55,-3.65 2,-5 -4.985,-2.611 -10.318,-3.944 -16,-4 -0.492,-2.341 -1.659,-4.341 -3.5,-6 -0.27,-2.724 -0.77,-5.391 -1.5,-8 -0.333,-0.333 -0.667,-0.667 -1,-1 -1.352,1.024 -2.685,2.024 -4,3 0.538,-1.617 0.871,-3.284 1,-5 1.29,-0.558 2.123,-1.558 2.5,-3 3.565,5.963 6.732,12.13 9.5,18.5 2.982,0.498 5.982,0.665 9,0.5 z"
         id="path619" />
    </g>
    <g
       id="g620"
       style="clip-rule:evenodd;fill-rule:evenodd;image-rendering:optimizeQuality;shape-rendering:geometricPrecision;text-rendering:geometricPrecision"
       transform="matrix(0.31598668,0,0,0.31598668,-229.84179,-127.53146)">
      <path
         style="opacity:1"
         fill="#e6f8fa"
         d="m 870.5,526.5 c 1,0 2,0 3,0 -0.591,0.651 -1.257,1.318 -2,2 -3.698,0.894 -7.365,1.894 -11,3 3.571,2.899 5.904,6.566 7,11 -1.333,-1 -2.667,-2 -4,-3 -3.129,-3.631 -6.463,-7.131 -10,-10.5 0.228,-0.399 0.562,-0.565 1,-0.5 5.584,0.245 10.917,-0.422 16,-2 z"
         id="path620" />
    </g>
    <g
       id="g621"
       style="clip-rule:evenodd;fill-rule:evenodd;image-rendering:optimizeQuality;shape-rendering:geometricPrecision;text-rendering:geometricPrecision"
       transform="matrix(0.31598668,0,0,0.31598668,-229.84179,-127.53146)">
      <path
         style="opacity:1"
         fill="#d5f0f7"
         d="m 951.5,520.5 c 2.888,5.209 4.721,10.876 5.5,17 1.572,8.912 2.739,17.912 3.5,27 -0.667,-1.333 -1.333,-2.667 -2,-4 -0.567,-4.847 -1.567,-9.514 -3,-14 0.284,-1.915 -0.049,-3.581 -1,-5 -0.207,-5.947 -1.207,-11.613 -3,-17 0,-1.333 0,-2.667 0,-4 z"
         id="path621" />
    </g>
    <g
       id="g622"
       style="clip-rule:evenodd;fill-rule:evenodd;image-rendering:optimizeQuality;shape-rendering:geometricPrecision;text-rendering:geometricPrecision"
       transform="matrix(0.31598668,0,0,0.31598668,-229.84179,-127.53146)">
      <path
         style="opacity:1"
         fill="#659fc7"
         d="m 990.5,532.5 c 1.663,1.938 2.329,4.272 2,7 0,1.667 0,3.333 0,5 -0.982,-3.816 -1.649,-7.816 -2,-12 z"
         id="path622" />
    </g>
    <g
       id="g624"
       style="clip-rule:evenodd;fill-rule:evenodd;image-rendering:optimizeQuality;shape-rendering:geometricPrecision;text-rendering:geometricPrecision"
       transform="matrix(0.31598668,0,0,0.31598668,-229.84179,-127.53146)">
      <path
         style="opacity:1"
         fill="#5691c2"
         d="m 951.5,524.5 c 1.793,5.387 2.793,11.053 3,17 -1.648,-5.421 -2.648,-11.088 -3,-17 z"
         id="path624" />
    </g>
    <g
       id="g626"
       style="clip-rule:evenodd;fill-rule:evenodd;image-rendering:optimizeQuality;shape-rendering:geometricPrecision;text-rendering:geometricPrecision"
       transform="matrix(0.31598668,0,0,0.31598668,-229.84179,-127.53146)">
      <path
         style="opacity:1"
         fill="#e2f7f9"
         d="m 769.5,523.5 c 0.63,3.785 0.963,7.451 1,11 -3.327,6.57 -4.993,13.57 -5,21 1.27,11.526 3.436,22.86 6.5,34 2.687,8.429 5.52,16.763 8.5,25 -3.27,-5.54 -6.27,-11.207 -9,-17 0,-0.333 0,-0.667 0,-1 -2.406,-6.884 -4.406,-13.884 -6,-21 -0.713,-9.984 -1.047,-19.984 -1,-30 1.259,-7.44 2.926,-14.773 5,-22 z"
         id="path626" />
    </g>
    <g
       id="g627"
       style="clip-rule:evenodd;fill-rule:evenodd;image-rendering:optimizeQuality;shape-rendering:geometricPrecision;text-rendering:geometricPrecision"
       transform="matrix(0.31598668,0,0,0.31598668,-229.84179,-127.53146)">
      <path
         style="opacity:1"
         fill="#a9d2ee"
         d="m 808.5,540.5 c 1.574,1.602 2.241,3.602 2,6 -1.574,-1.602 -2.241,-3.602 -2,-6 z"
         id="path627" />
    </g>
    <g
       id="g628"
       style="clip-rule:evenodd;fill-rule:evenodd;image-rendering:optimizeQuality;shape-rendering:geometricPrecision;text-rendering:geometricPrecision"
       transform="matrix(0.31598668,0,0,0.31598668,-229.84179,-127.53146)">
      <path
         style="opacity:1"
         fill="#257ecb"
         d="m 783.5,489.5 c -1.175,-0.219 -2.175,0.114 -3,1 -2.738,5.378 -5.571,10.712 -8.5,16 -4.415,9.135 -6.915,18.802 -7.5,29 0,1 0,2 0,3 -1.511,1.976 -2.344,4.309 -2.5,7 -0.954,12.792 -0.121,25.459 2.5,38 -0.958,0.453 -1.792,1.119 -2.5,2 -2.789,-3.468 -4.122,-7.468 -4,-12 -0.754,-12.693 -0.587,-25.359 0.5,-38 1.274,-9.041 2.941,-18.041 5,-27 2.022,-1.956 4.355,-3.456 7,-4.5 -0.667,-0.333 -1.333,-0.667 -2,-1 2.442,-2.371 4.276,-5.204 5.5,-8.5 0.984,2.295 1.817,1.961 2.5,-1 -0.857,-2.951 -0.857,-5.951 0,-9 2.217,-0.869 4.55,-1.202 7,-1 0,2 0,4 0,6 z"
         id="path628" />
    </g>
    <g
       id="g629"
       style="clip-rule:evenodd;fill-rule:evenodd;image-rendering:optimizeQuality;shape-rendering:geometricPrecision;text-rendering:geometricPrecision"
       transform="matrix(0.31598668,0,0,0.31598668,-229.84179,-127.53146)">
      <path
         style="opacity:1"
         fill="#367ebb"
         d="m 911.5,528.5 c -0.126,1.779 0.208,3.779 1,6 -4.721,2.468 -8.888,5.802 -12.5,10 -0.311,5.512 0.522,10.846 2.5,16 -0.442,1.239 -1.109,2.239 -2,3 -0.641,-5.525 -1.641,-10.858 -3,-16 -0.16,-1.699 0.006,-3.366 0.5,-5 4.703,-4.535 9.203,-9.202 13.5,-14 z"
         id="path629" />
    </g>
    <g
       id="g630"
       style="clip-rule:evenodd;fill-rule:evenodd;image-rendering:optimizeQuality;shape-rendering:geometricPrecision;text-rendering:geometricPrecision"
       transform="matrix(0.31598668,0,0,0.31598668,-229.84179,-127.53146)">
      <path
         style="opacity:1"
         fill="#b3d9f1"
         d="m 1001.5,547.5 c 0.99,6.479 1.32,13.146 1,20 -0.67,1.667 -1.33,3.333 -2,5 0.79,-8.309 1.12,-16.642 1,-25 z"
         id="path630" />
    </g>
    <g
       id="g632"
       style="clip-rule:evenodd;fill-rule:evenodd;image-rendering:optimizeQuality;shape-rendering:geometricPrecision;text-rendering:geometricPrecision"
       transform="matrix(0.31598668,0,0,0.31598668,-229.84179,-127.53146)">
      <path
         style="opacity:1"
         fill="#93c1dd"
         d="m 764.5,542.5 c 0,1 0,2 0,3 -0.047,10.016 0.287,20.016 1,30 -1.487,-6.436 -2.154,-13.102 -2,-20 10e-4,-4.513 0.334,-8.847 1,-13 z"
         id="path632" />
    </g>
    <g
       id="g633"
       style="clip-rule:evenodd;fill-rule:evenodd;image-rendering:optimizeQuality;shape-rendering:geometricPrecision;text-rendering:geometricPrecision"
       transform="matrix(0.31598668,0,0,0.31598668,-229.84179,-127.53146)">
      <path
         style="opacity:1"
         fill="#d7f3f9"
         d="m 867.5,542.5 c 0.69,4.733 1.356,9.566 2,14.5 3.888,-0.677 7.721,-1.843 11.5,-3.5 1.07,0.028 1.903,0.361 2.5,1 -5.724,1.696 -11.057,4.196 -16,7.5 -1.135,0.749 -2.135,0.583 -3,-0.5 0.803,-6.368 1.803,-12.702 3,-19 z"
         id="path633" />
    </g>
    <g
       id="g635"
       style="clip-rule:evenodd;fill-rule:evenodd;image-rendering:optimizeQuality;shape-rendering:geometricPrecision;text-rendering:geometricPrecision"
       transform="matrix(0.31598668,0,0,0.31598668,-229.84179,-127.53146)">
      <path
         style="opacity:1"
         fill="#287fc7"
         d="m 887.5,557.5 c 1.333,0.333 2.667,0.667 4,1 2.157,1.912 4.491,3.579 7,5 -5.07,-0.627 -10.07,-1.627 -15,-3 0.149,-1.052 -0.017,-2.052 -0.5,-3 -5.678,3.446 -11.678,6.113 -18,8 -0.464,-0.594 -0.631,-1.261 -0.5,-2 6.438,-1.602 12.605,-3.936 18.5,-7 1.44,0.648 2.94,0.981 4.5,1 z"
         id="path635" />
    </g>
    <g
       id="g636"
       style="clip-rule:evenodd;fill-rule:evenodd;image-rendering:optimizeQuality;shape-rendering:geometricPrecision;text-rendering:geometricPrecision"
       transform="matrix(0.31598668,0,0,0.31598668,-229.84179,-127.53146)">
      <path
         style="opacity:1"
         fill="#4787ba"
         d="m 863.5,539.5 c 1.333,1 2.667,2 4,3 -1.197,6.298 -2.197,12.632 -3,19 0.865,1.083 1.865,1.249 3,0.5 4.943,-3.304 10.276,-5.804 16,-7.5 1.333,1 2.667,2 4,3 -1.56,-0.019 -3.06,-0.352 -4.5,-1 -5.895,3.064 -12.062,5.398 -18.5,7 -0.333,0 -0.667,0 -1,0 0.525,-6.362 1.192,-12.696 2,-19 -0.956,-1.575 -1.623,-3.242 -2,-5 z"
         id="path636" />
    </g>
    <g
       id="g637"
       style="clip-rule:evenodd;fill-rule:evenodd;image-rendering:optimizeQuality;shape-rendering:geometricPrecision;text-rendering:geometricPrecision"
       transform="matrix(0.31598668,0,0,0.31598668,-229.84179,-127.53146)">
      <path
         style="opacity:1"
         fill="#b5e3f5"
         d="m 897.5,547.5 c 1.359,5.142 2.359,10.475 3,16 -0.667,0 -1.333,0 -2,0 -2.509,-1.421 -4.843,-3.088 -7,-5 2.264,0.719 4.597,1.052 7,1 -0.772,-3.952 -1.105,-7.952 -1,-12 z"
         id="path637" />
    </g>
    <g
       id="g638"
       style="clip-rule:evenodd;fill-rule:evenodd;image-rendering:optimizeQuality;shape-rendering:geometricPrecision;text-rendering:geometricPrecision"
       transform="matrix(0.31598668,0,0,0.31598668,-229.84179,-127.53146)">
      <path
         style="opacity:1"
         fill="#287ecb"
         d="m 991.5,603.5 c -4.43,8.546 -9.43,16.879 -15,25 -0.929,1.189 -1.262,2.522 -1,4 -3.286,1.512 -5.953,3.846 -8,7 -1.236,0.746 -2.57,1.079 -4,1 -1.278,1.291 -1.945,3.291 -2,6 -1.175,-0.219 -2.175,0.114 -3,1 -3.739,4.066 -7.405,8.066 -11,12 -5.067,3.729 -10.401,7.062 -16,10 -0.667,0 -1.333,0 -2,0 -5.553,1.808 -11.22,3.475 -17,5 -0.996,0.086 -1.829,-0.248 -2.5,-1 -5.024,2.383 -10.357,3.717 -16,4 -3.059,-0.407 -6.225,-0.74 -9.5,-1 -1.111,1.111 -2.445,1.778 -4,2 -2.104,-0.831 -4.104,-1.164 -6,-1 -2.123,1.194 -4.457,1.86 -7,2 -4.554,-0.396 -8.887,-1.562 -13,-3.5 0.5,-0.5 1,-1 1.5,-1.5 8.166,0.553 16,1.219 23.5,2 4.285,-1.543 8.619,-2.543 13,-3 8.019,-0.837 15.852,-2.504 23.5,-5 0.772,0.145 1.439,0.478 2,1 4.919,-4.935 10.753,-8.101 17.5,-9.5 3.674,-2.968 7.007,-6.134 10,-9.5 5.586,-2.584 9.92,-6.584 13,-12 4.185,-2.262 8.019,-5.262 11.5,-9 2.384,-5.586 5.884,-10.42 10.5,-14.5 2.483,-8.413 5.649,-16.913 9.5,-25.5 0.643,-6.403 2.143,-12.57 4.5,-18.5 0.089,-9.355 -0.078,-18.855 -0.5,-28.5 -0.232,-1.237 -0.732,-2.237 -1.5,-3 0.329,-2.728 -0.337,-5.062 -2,-7 -0.538,-1.617 -0.871,-3.284 -1,-5 -0.174,-2.361 -0.507,-4.694 -1,-7 0.111,-0.617 0.444,-1.117 1,-1.5 -1.334,-2.66 -2.168,-5.494 -2.5,-8.5 -1.158,-0.498 -1.991,-1.331 -2.5,-2.5 -2.758,-7.273 -6.091,-14.273 -10,-21 0.711,-1.255 1.544,-2.421 2.5,-3.5 2.078,3.078 4.245,6.078 6.5,9 0.778,4.195 2.611,7.862 5.5,11 0.684,1.284 0.517,2.451 -0.5,3.5 2.1,2.355 3.766,5.021 5,8 5.208,17.13 7.04,34.63 5.5,52.5 -1.551,12.258 -4.051,24.258 -7.5,36 z"
         id="path638" />
    </g>
    <g
       id="g641"
       style="clip-rule:evenodd;fill-rule:evenodd;image-rendering:optimizeQuality;shape-rendering:geometricPrecision;text-rendering:geometricPrecision"
       transform="matrix(0.31598668,0,0,0.31598668,-229.84179,-127.53146)">
      <path
         style="opacity:1"
         fill="#5993c0"
         d="m 955.5,546.5 c 1.433,4.486 2.433,9.153 3,14 0,1 0,2 0,3 -1.793,-5.387 -2.793,-11.053 -3,-17 z"
         id="path641" />
    </g>
    <g
       id="g642"
       style="clip-rule:evenodd;fill-rule:evenodd;image-rendering:optimizeQuality;shape-rendering:geometricPrecision;text-rendering:geometricPrecision"
       transform="matrix(0.31598668,0,0,0.31598668,-229.84179,-127.53146)">
      <path
         style="opacity:1"
         fill="#e3f5f9"
         d="m 982.5,507.5 c 2.234,4.022 3.901,8.356 5,13 -0.09,2.652 0.576,4.985 2,7 0.129,1.716 0.462,3.383 1,5 0.351,4.184 1.018,8.184 2,12 1.524,17.343 -0.81,34.01 -7,50 1.148,-9.951 2.314,-19.951 3.5,-30 1.291,-16.122 -0.876,-31.956 -6.5,-47.5 0.895,-3.095 0.895,-6.262 0,-9.5 z"
         id="path642" />
    </g>
    <g
       id="g645"
       style="clip-rule:evenodd;fill-rule:evenodd;image-rendering:optimizeQuality;shape-rendering:geometricPrecision;text-rendering:geometricPrecision"
       transform="matrix(0.31598668,0,0,0.31598668,-229.84179,-127.53146)">
      <path
         style="opacity:1"
         fill="#9cc9e7"
         d="m 958.5,560.5 c 0.667,1.333 1.333,2.667 2,4 0.926,5.166 0.926,10.166 0,15 -0.233,-5.394 -0.899,-10.727 -2,-16 0,-1 0,-2 0,-3 z"
         id="path645" />
    </g>
    <g
       id="g647"
       style="clip-rule:evenodd;fill-rule:evenodd;image-rendering:optimizeQuality;shape-rendering:geometricPrecision;text-rendering:geometricPrecision"
       transform="matrix(0.31598668,0,0,0.31598668,-229.84179,-127.53146)">
      <path
         style="opacity:1"
         fill="#397cb4"
         d="m 764.5,538.5 c 0,1.333 0,2.667 0,4 -0.666,4.153 -0.999,8.487 -1,13 -0.154,6.898 0.513,13.564 2,20 1.594,7.116 3.594,14.116 6,21 -3.564,-3.591 -5.898,-7.925 -7,-13 -2.621,-12.541 -3.454,-25.208 -2.5,-38 0.156,-2.691 0.989,-5.024 2.5,-7 z"
         id="path647" />
    </g>
    <g
       id="g649"
       style="clip-rule:evenodd;fill-rule:evenodd;image-rendering:optimizeQuality;shape-rendering:geometricPrecision;text-rendering:geometricPrecision"
       transform="matrix(0.31598668,0,0,0.31598668,-229.84179,-127.53146)">
      <path
         style="opacity:1"
         fill="#e5f6f9"
         d="m 960.5,564.5 c 2.446,5.328 3.613,10.995 3.5,17 -4.956,3.335 -9.956,6.668 -15,10 -0.671,-0.752 -1.504,-1.086 -2.5,-1 0,-0.333 0,-0.667 0,-1 5.057,-2.855 9.723,-6.188 14,-10 0.926,-4.834 0.926,-9.834 0,-15 z"
         id="path649" />
    </g>
    <g
       id="g651"
       style="clip-rule:evenodd;fill-rule:evenodd;image-rendering:optimizeQuality;shape-rendering:geometricPrecision;text-rendering:geometricPrecision"
       transform="matrix(0.31598668,0,0,0.31598668,-229.84179,-127.53146)">
      <path
         style="opacity:1"
         fill="#dff3f8"
         d="m 1002.5,567.5 c 0.53,9.225 -0.63,18.225 -3.5,27 -1.694,1.199 -3.194,2.532 -4.5,4 1.41,-3.897 2.41,-7.897 3,-12 1.63,-4.411 2.63,-9.078 3,-14 0.67,-1.667 1.33,-3.333 2,-5 z"
         id="path651" />
    </g>
    <g
       id="g654"
       style="clip-rule:evenodd;fill-rule:evenodd;image-rendering:optimizeQuality;shape-rendering:geometricPrecision;text-rendering:geometricPrecision"
       transform="matrix(0.31598668,0,0,0.31598668,-229.84179,-127.53146)">
      <path
         style="opacity:1"
         fill="#6095c1"
         d="m 1000.5,572.5 c -0.37,4.922 -1.37,9.589 -3,14 0.156,-4.971 1.156,-9.638 3,-14 z"
         id="path654" />
    </g>
    <g
       id="g655"
       style="clip-rule:evenodd;fill-rule:evenodd;image-rendering:optimizeQuality;shape-rendering:geometricPrecision;text-rendering:geometricPrecision"
       transform="matrix(0.31598668,0,0,0.31598668,-229.84179,-127.53146)">
      <path
         style="opacity:1"
         fill="#c7e8f5"
         d="m 893.5,587.5 c -6.896,-0.769 -13.729,-1.769 -20.5,-3 -5.565,0.214 -11.065,0.88 -16.5,2 1,-0.667 2,-1.333 3,-2 0.333,0 0.667,0 1,0 7.587,-1.131 15.254,-1.298 23,-0.5 3.48,0.937 6.813,2.104 10,3.5 z"
         id="path655" />
    </g>
    <g
       id="g656"
       style="clip-rule:evenodd;fill-rule:evenodd;image-rendering:optimizeQuality;shape-rendering:geometricPrecision;text-rendering:geometricPrecision"
       transform="matrix(0.31598668,0,0,0.31598668,-229.84179,-127.53146)">
      <path
         style="opacity:1"
         fill="#347dbd"
         d="m 802.5,518.5 c 2.803,2.894 4.803,6.227 6,10 -0.162,2.027 0.005,4.027 0.5,6 3.926,10.781 7.259,21.781 10,33 2.518,2.182 3.685,4.682 3.5,7.5 1.127,1.753 2.127,3.587 3,5.5 -0.748,1.916 -0.748,3.916 0,6 0.19,2.142 0.356,4.475 0.5,7 5.561,14.573 9.728,29.573 12.5,45 -0.667,-1 -1.333,-2 -2,-3 0.09,-2.652 -0.576,-4.985 -2,-7 -1.176,-5.037 -2.509,-10.037 -4,-15 -0.428,-3.285 -1.428,-6.285 -3,-9 -0.601,-3.468 -1.601,-6.801 -3,-10 -0.223,-3.662 -1.223,-6.995 -3,-10 -3.357,-12.761 -7.023,-25.428 -11,-38 0.241,-2.398 -0.426,-4.398 -2,-6 -0.423,-5.04 -1.756,-9.707 -4,-14 -0.084,-2.827 -0.75,-5.494 -2,-8 z"
         id="path656" />
    </g>
    <g
       id="g658"
       style="clip-rule:evenodd;fill-rule:evenodd;image-rendering:optimizeQuality;shape-rendering:geometricPrecision;text-rendering:geometricPrecision"
       transform="matrix(0.31598668,0,0,0.31598668,-229.84179,-127.53146)">
      <path
         style="opacity:1"
         fill="#327cbc"
         d="m 944.5,482.5 c 0.333,0.667 0.667,1.333 1,2 0.791,9.745 2.124,19.412 4,29 -0.329,2.728 0.337,5.062 2,7 0,1.333 0,2.667 0,4 0.352,5.912 1.352,11.579 3,17 0.951,1.419 1.284,3.085 1,5 0.207,5.947 1.207,11.613 3,17 1.101,5.273 1.767,10.606 2,16 -4.277,3.812 -8.943,7.145 -14,10 -10.001,3.565 -20.335,4.898 -31,4 -0.667,0 -1.333,0 -2,0 -1,-0.667 -2,-1.333 -3,-2 10.066,0.395 20.066,-0.105 30,-1.5 3.467,-4.398 8.134,-6.731 14,-7 1.167,-1.167 2.333,-2.333 3.5,-3.5 0.667,-3.667 0.667,-7.333 0,-11 -1.614,-6.974 -3.78,-13.64 -6.5,-20 1.085,-3.273 1.252,-6.606 0.5,-10 -2.3,-9.198 -3.633,-18.531 -4,-28 -2.306,-8.224 -4.139,-16.557 -5.5,-25 -1.699,-0.16 -3.366,0.006 -5,0.5 -2.325,2.009 -4.825,3.842 -7.5,5.5 -0.414,-0.457 -0.914,-0.791 -1.5,-1 -9.531,4.922 -19.531,6.255 -30,4 5.676,0.166 11.343,-10e-4 17,-0.5 0.916,-0.278 1.582,-0.778 2,-1.5 6.485,-2.274 12.818,-4.94 19,-8 2.667,-0.667 5.333,-1.333 8,-2 z"
         id="path658" />
    </g>
    <g
       id="g659"
       style="clip-rule:evenodd;fill-rule:evenodd;image-rendering:optimizeQuality;shape-rendering:geometricPrecision;text-rendering:geometricPrecision"
       transform="matrix(0.31598668,0,0,0.31598668,-229.84179,-127.53146)">
      <path
         style="opacity:1"
         fill="#4285bf"
         d="m 908.5,591.5 c -0.667,0 -1.333,0 -2,0 -2.612,-0.871 -5.279,-1.537 -8,-2 -0.473,-1.406 -1.473,-2.073 -3,-2 -0.667,0 -1.333,0 -2,0 -3.187,-1.396 -6.52,-2.563 -10,-3.5 -7.746,-0.798 -15.413,-0.631 -23,0.5 1.449,-1.664 3.449,-2.498 6,-2.5 7.917,-0.109 15.751,-0.276 23.5,-0.5 0.465,1.431 1.299,2.597 2.5,3.5 5.496,1.919 10.829,4.086 16,6.5 z"
         id="path659" />
    </g>
    <g
       id="g660"
       style="clip-rule:evenodd;fill-rule:evenodd;image-rendering:optimizeQuality;shape-rendering:geometricPrecision;text-rendering:geometricPrecision"
       transform="matrix(0.31598668,0,0,0.31598668,-229.84179,-127.53146)">
      <path
         style="opacity:1"
         fill="#add7ef"
         d="m 821.5,584.5 c 1.777,3.005 2.777,6.338 3,10 -1.91,-2.952 -2.91,-6.286 -3,-10 z"
         id="path660" />
    </g>
    <g
       id="g661"
       style="clip-rule:evenodd;fill-rule:evenodd;image-rendering:optimizeQuality;shape-rendering:geometricPrecision;text-rendering:geometricPrecision"
       transform="matrix(0.31598668,0,0,0.31598668,-229.84179,-127.53146)">
      <path
         style="opacity:1"
         fill="#88b9dd"
         d="m 895.5,587.5 c 1.527,-0.073 2.527,0.594 3,2 -1.527,0.073 -2.527,-0.594 -3,-2 z"
         id="path661" />
    </g>
    <g
       id="g662"
       style="clip-rule:evenodd;fill-rule:evenodd;image-rendering:optimizeQuality;shape-rendering:geometricPrecision;text-rendering:geometricPrecision"
       transform="matrix(0.31598668,0,0,0.31598668,-229.84179,-127.53146)">
      <path
         style="opacity:1"
         fill="#3a7fb8"
         d="m 859.5,584.5 c -1,0.667 -2,1.333 -3,2 -1.373,-0.157 -2.707,0.01 -4,0.5 -2.493,1.419 -4.826,2.919 -7,4.5 -1.653,0.16 -2.986,0.826 -4,2 -0.333,0 -0.667,0 -1,0 -0.086,-0.996 0.248,-1.829 1,-2.5 3.916,-1.497 7.582,-3.497 11,-6 2.31,-0.497 4.643,-0.663 7,-0.5 z"
         id="path662" />
    </g>
    <g
       id="g663"
       style="clip-rule:evenodd;fill-rule:evenodd;image-rendering:optimizeQuality;shape-rendering:geometricPrecision;text-rendering:geometricPrecision"
       transform="matrix(0.31598668,0,0,0.31598668,-229.84179,-127.53146)">
      <path
         style="opacity:1"
         fill="#c9eaf7"
         d="m 856.5,586.5 c -2.832,3.255 -6.499,4.922 -11,5 2.174,-1.581 4.507,-3.081 7,-4.5 1.293,-0.49 2.627,-0.657 4,-0.5 z"
         id="path663" />
    </g>
    <g
       id="g664"
       style="clip-rule:evenodd;fill-rule:evenodd;image-rendering:optimizeQuality;shape-rendering:geometricPrecision;text-rendering:geometricPrecision"
       transform="matrix(0.31598668,0,0,0.31598668,-229.84179,-127.53146)">
      <path
         style="opacity:1"
         fill="#afd7eb"
         d="m 946.5,589.5 c 0,0.333 0,0.667 0,1 -4.197,1.732 -8.53,3.065 -13,4 -6.19,0.323 -12.19,-0.01 -18,-1 10.665,0.898 20.999,-0.435 31,-4 z"
         id="path664" />
    </g>
    <g
       id="g665"
       style="clip-rule:evenodd;fill-rule:evenodd;image-rendering:optimizeQuality;shape-rendering:geometricPrecision;text-rendering:geometricPrecision"
       transform="matrix(0.31598668,0,0,0.31598668,-229.84179,-127.53146)">
      <path
         style="opacity:1"
         fill="#82b4da"
         d="m 906.5,591.5 c 0.667,0 1.333,0 2,0 0.667,0 1.333,0 2,0 1,0.667 2,1.333 3,2 -2.652,0.09 -4.985,-0.576 -7,-2 z"
         id="path665" />
    </g>
    <g
       id="g667"
       style="clip-rule:evenodd;fill-rule:evenodd;image-rendering:optimizeQuality;shape-rendering:geometricPrecision;text-rendering:geometricPrecision"
       transform="matrix(0.31598668,0,0,0.31598668,-229.84179,-127.53146)">
      <path
         style="opacity:1"
         fill="#217ecd"
         d="m 840.5,615.5 c 1.534,3.093 3.534,5.76 6,8 0,0.333 0,0.667 0,1 1.187,4.405 1.854,8.905 2,13.5 -0.333,2.167 -0.667,4.333 -1,6.5 -1.598,0.985 -3.265,1.151 -5,0.5 -1.143,-2.425 -2.476,-4.592 -4,-6.5 -2.772,-15.427 -6.939,-30.427 -12.5,-45 -0.144,-2.525 -0.31,-4.858 -0.5,-7 1.322,0.17 2.489,-0.163 3.5,-1 0.5,0.5 1,1 1.5,1.5 -2.013,0.68 -3.346,2.013 -4,4 2.93,3.088 4.597,6.754 5,11 -0.333,0.333 -0.667,0.667 -1,1 0.609,2.058 1.609,2.891 3,2.5 -0.502,1.216 -0.835,2.383 -1,3.5 1.477,5.203 3.143,10.37 5,15.5 0.667,0.333 1.333,0.667 2,1 1.225,-2.343 0.559,-4.177 -2,-5.5 0.808,-0.308 1.475,-0.808 2,-1.5 -0.928,-1.268 -1.095,-2.601 -0.5,-4 0.333,0.667 0.667,1.333 1,2 0.399,-0.228 0.565,-0.562 0.5,-1 z"
         id="path667" />
    </g>
    <g
       id="g670"
       style="clip-rule:evenodd;fill-rule:evenodd;image-rendering:optimizeQuality;shape-rendering:geometricPrecision;text-rendering:geometricPrecision"
       transform="matrix(0.31598668,0,0,0.31598668,-229.84179,-127.53146)">
      <path
         style="opacity:1"
         fill="#98d1f0"
         d="m 840.5,593.5 c 0.333,0 0.667,0 1,0 -0.888,2.554 -1.221,5.221 -1,8 -0.809,-1.528 -1.476,-3.194 -2,-5 -0.073,-1.527 0.594,-2.527 2,-3 z"
         id="path670" />
    </g>
    <g
       id="g671"
       style="clip-rule:evenodd;fill-rule:evenodd;image-rendering:optimizeQuality;shape-rendering:geometricPrecision;text-rendering:geometricPrecision"
       transform="matrix(0.31598668,0,0,0.31598668,-229.84179,-127.53146)">
      <path
         style="opacity:1"
         fill="#dcf5f9"
         d="m 845.5,591.5 c -1.373,3.314 -2.373,6.814 -3,10.5 0.756,3.125 1.089,6.291 1,9.5 -1.37,-3.119 -2.37,-6.452 -3,-10 -0.221,-2.779 0.112,-5.446 1,-8 1.014,-1.174 2.347,-1.84 4,-2 z"
         id="path671" />
    </g>
    <g
       id="g672"
       style="clip-rule:evenodd;fill-rule:evenodd;image-rendering:optimizeQuality;shape-rendering:geometricPrecision;text-rendering:geometricPrecision"
       transform="matrix(0.31598668,0,0,0.31598668,-229.84179,-127.53146)">
      <path
         style="opacity:1"
         fill="#e6f8f9"
         d="m 893.5,587.5 c 0.667,0 1.333,0 2,0 0.473,1.406 1.473,2.073 3,2 2.721,0.463 5.388,1.129 8,2 2.015,1.424 4.348,2.09 7,2 0.667,0 1.333,0 2,0 5.81,0.99 11.81,1.323 18,1 -2.758,1.318 -5.924,1.985 -9.5,2 -3.873,-0.408 -7.54,-0.408 -11,0 -6.303,-1.799 -12.47,-3.966 -18.5,-6.5 -0.752,-0.671 -1.086,-1.504 -1,-2.5 z"
         id="path672" />
    </g>
    <g
       id="g673"
       style="clip-rule:evenodd;fill-rule:evenodd;image-rendering:optimizeQuality;shape-rendering:geometricPrecision;text-rendering:geometricPrecision"
       transform="matrix(0.31598668,0,0,0.31598668,-229.84179,-127.53146)">
      <path
         style="opacity:1"
         fill="#669cc3"
         d="m 759.5,590.5 c 1.897,2.198 2.897,4.864 3,8 -1.597,-2.348 -2.597,-5.014 -3,-8 z"
         id="path673" />
    </g>
    <g
       id="g674"
       style="clip-rule:evenodd;fill-rule:evenodd;image-rendering:optimizeQuality;shape-rendering:geometricPrecision;text-rendering:geometricPrecision"
       transform="matrix(0.31598668,0,0,0.31598668,-229.84179,-127.53146)">
      <path
         style="opacity:1"
         fill="#3f80b5"
         d="m 992.5,539.5 c 0.768,0.763 1.268,1.763 1.5,3 0.422,9.645 0.589,19.145 0.5,28.5 -2.357,5.93 -3.857,12.097 -4.5,18.5 -3.851,8.587 -7.017,17.087 -9.5,25.5 -4.616,4.08 -8.116,8.914 -10.5,14.5 -3.481,3.738 -7.315,6.738 -11.5,9 2.739,-2.733 5.073,-5.733 7,-9 9.437,-9.536 15.771,-20.869 19,-34 0.667,0 1,-0.333 1,-1 6.19,-15.99 8.524,-32.657 7,-50 0,-1.667 0,-3.333 0,-5 z"
         id="path674" />
    </g>
    <g
       id="g676"
       style="clip-rule:evenodd;fill-rule:evenodd;image-rendering:optimizeQuality;shape-rendering:geometricPrecision;text-rendering:geometricPrecision"
       transform="matrix(0.31598668,0,0,0.31598668,-229.84179,-127.53146)">
      <path
         style="opacity:1"
         fill="#2a7cc4"
         d="m 758.5,535.5 c -1.087,12.641 -1.254,25.307 -0.5,38 -0.122,4.532 1.211,8.532 4,12 0.708,-0.881 1.542,-1.547 2.5,-2 1.102,5.075 3.436,9.409 7,13 0,0.333 0,0.667 0,1 0.178,2.716 0.678,5.383 1.5,8 2.241,5.199 4.741,10.199 7.5,15 -0.573,2.585 -2.239,3.585 -5,3 -0.333,-2 -0.667,-4 -1,-6 -1,0 -2,0 -3,0 -3.785,-5.905 -6.785,-12.239 -9,-19 -0.103,-3.136 -1.103,-5.802 -3,-8 -1.372,-6.606 -2.372,-13.272 -3,-20 -0.167,-11.338 0,-22.672 0.5,-34 0.383,-0.556 0.883,-0.889 1.5,-1 z"
         id="path676" />
    </g>
    <g
       id="g678"
       style="clip-rule:evenodd;fill-rule:evenodd;image-rendering:optimizeQuality;shape-rendering:geometricPrecision;text-rendering:geometricPrecision"
       transform="matrix(0.31598668,0,0,0.31598668,-229.84179,-127.53146)">
      <path
         style="opacity:1"
         fill="#d0ebf5"
         d="m 756.5,530.5 c -1.267,13.48 -1.267,26.814 0,40 0.628,6.728 1.628,13.394 3,20 0.403,2.986 1.403,5.652 3,8 2.215,6.761 5.215,13.095 9,19 0,0.667 0,1.333 0,2 -2.598,-1.804 -4.765,-4.138 -6.5,-7 -3.16,-6.467 -5.827,-13.134 -8,-20 -1.579,-13.631 -2.746,-27.298 -3.5,-41 0.167,-4.333 0.333,-8.667 0.5,-13 0.279,-2.957 1.113,-5.623 2.5,-8 z"
         id="path678" />
    </g>
    <g
       id="g681"
       style="clip-rule:evenodd;fill-rule:evenodd;image-rendering:optimizeQuality;shape-rendering:geometricPrecision;text-rendering:geometricPrecision"
       transform="matrix(0.31598668,0,0,0.31598668,-229.84179,-127.53146)">
      <path
         style="opacity:1"
         fill="#d9f3f8"
         d="m 984.5,595.5 c -3.229,13.131 -9.563,24.464 -19,34 0,-1.333 0,-2.667 0,-4 1,0 2,0 3,0 5.953,-9.653 11.287,-19.653 16,-30 z"
         id="path681" />
    </g>
    <g
       id="g684"
       style="clip-rule:evenodd;fill-rule:evenodd;image-rendering:optimizeQuality;shape-rendering:geometricPrecision;text-rendering:geometricPrecision"
       transform="matrix(0.31598668,0,0,0.31598668,-229.84179,-127.53146)">
      <path
         style="opacity:1"
         fill="#407cb0"
         d="m 991.5,603.5 c -0.378,2.421 -1.045,4.754 -2,7 -3.992,6.995 -7.992,13.995 -12,21 -0.667,0.333 -1.333,0.667 -2,1 -0.262,-1.478 0.071,-2.811 1,-4 5.57,-8.121 10.57,-16.454 15,-25 z"
         id="path684" />
    </g>
    <g
       id="g685"
       style="clip-rule:evenodd;fill-rule:evenodd;image-rendering:optimizeQuality;shape-rendering:geometricPrecision;text-rendering:geometricPrecision"
       transform="matrix(0.31598668,0,0,0.31598668,-229.84179,-127.53146)">
      <path
         style="opacity:1"
         fill="#8dbee1"
         d="m 827.5,604.5 c 1.572,2.715 2.572,5.715 3,9 -1.972,-2.584 -2.972,-5.584 -3,-9 z"
         id="path685" />
    </g>
    <g
       id="g690"
       style="clip-rule:evenodd;fill-rule:evenodd;image-rendering:optimizeQuality;shape-rendering:geometricPrecision;text-rendering:geometricPrecision"
       transform="matrix(0.31598668,0,0,0.31598668,-229.84179,-127.53146)">
      <path
         style="opacity:1"
         fill="#cbe8f3"
         d="m 994.5,598.5 c -0.178,2.716 -0.678,5.383 -1.5,8 -0.498,2.044 -1.665,3.378 -3.5,4 0.955,-2.246 1.622,-4.579 2,-7 0.813,-1.761 1.813,-3.428 3,-5 z"
         id="path690" />
    </g>
    <g
       id="g692"
       style="clip-rule:evenodd;fill-rule:evenodd;image-rendering:optimizeQuality;shape-rendering:geometricPrecision;text-rendering:geometricPrecision"
       transform="matrix(0.31598668,0,0,0.31598668,-229.84179,-127.53146)">
      <path
         style="opacity:1"
         fill="#337ebe"
         d="m 838.5,596.5 c 0.524,1.806 1.191,3.472 2,5 0.63,3.548 1.63,6.881 3,10 1,3.999 2,7.999 3,12 -2.466,-2.24 -4.466,-4.907 -6,-8 -1.301,-5.664 -2.301,-11.331 -3,-17 0.043,-0.916 0.376,-1.583 1,-2 z"
         id="path692" />
    </g>
    <g
       id="g698"
       style="clip-rule:evenodd;fill-rule:evenodd;image-rendering:optimizeQuality;shape-rendering:geometricPrecision;text-rendering:geometricPrecision"
       transform="matrix(0.31598668,0,0,0.31598668,-229.84179,-127.53146)">
      <path
         style="opacity:1"
         fill="#daf2f8"
         d="m 843.5,611.5 c 6.153,6.224 8.486,13.891 7,23 -0.765,-3.534 -2.098,-6.868 -4,-10 0,-0.333 0,-0.667 0,-1 -1,-4.001 -2,-8.001 -3,-12 z"
         id="path698" />
    </g>
    <g
       id="g702"
       style="clip-rule:evenodd;fill-rule:evenodd;image-rendering:optimizeQuality;shape-rendering:geometricPrecision;text-rendering:geometricPrecision"
       transform="matrix(0.31598668,0,0,0.31598668,-229.84179,-127.53146)">
      <path
         style="opacity:1"
         fill="#377eba"
         d="m 771.5,597.5 c 2.73,5.793 5.73,11.46 9,17 3.546,7.206 7.879,13.873 13,20 -3.544,-1.033 -5.711,-3.366 -6.5,-7 -5.136,-4.348 -7.303,-3.348 -6.5,3 3.4,1.408 5.4,4.075 6,8 -3.567,-3.477 -6.9,-7.144 -10,-11 -1.169,-3.011 -2.836,-5.678 -5,-8 0,-0.667 0,-1.333 0,-2 1,0 2,0 3,0 0.333,2 0.667,4 1,6 2.761,0.585 4.427,-0.415 5,-3 -2.759,-4.801 -5.259,-9.801 -7.5,-15 -0.822,-2.617 -1.322,-5.284 -1.5,-8 z"
         id="path702" />
    </g>
    <g
       id="g704"
       style="clip-rule:evenodd;fill-rule:evenodd;image-rendering:optimizeQuality;shape-rendering:geometricPrecision;text-rendering:geometricPrecision"
       transform="matrix(0.31598668,0,0,0.31598668,-229.84179,-127.53146)">
      <path
         style="opacity:1"
         fill="#caebf5"
         d="m 771.5,619.5 c 2.164,2.322 3.831,4.989 5,8 -3.67,-1.328 -5.337,-3.995 -5,-8 z"
         id="path704" />
    </g>
    <g
       id="g707"
       style="clip-rule:evenodd;fill-rule:evenodd;image-rendering:optimizeQuality;shape-rendering:geometricPrecision;text-rendering:geometricPrecision"
       transform="matrix(0.31598668,0,0,0.31598668,-229.84179,-127.53146)">
      <path
         style="opacity:1"
         fill="#a7d3ec"
         d="m 834.5,628.5 c 1.424,2.015 2.09,4.348 2,7 -1.424,-2.015 -2.09,-4.348 -2,-7 z"
         id="path707" />
    </g>
    <g
       id="g708"
       style="clip-rule:evenodd;fill-rule:evenodd;image-rendering:optimizeQuality;shape-rendering:geometricPrecision;text-rendering:geometricPrecision"
       transform="matrix(0.31598668,0,0,0.31598668,-229.84179,-127.53146)">
      <path
         style="opacity:1"
         fill="#2880cb"
         d="m 793.5,634.5 c 1.822,2.887 1.322,5.221 -1.5,7 -1.346,-1.842 -3.179,-2.842 -5.5,-3 -0.6,-3.925 -2.6,-6.592 -6,-8 -0.803,-6.348 1.364,-7.348 6.5,-3 0.789,3.634 2.956,5.967 6.5,7 z"
         id="path708" />
    </g>
    <g
       id="g709"
       style="clip-rule:evenodd;fill-rule:evenodd;image-rendering:optimizeQuality;shape-rendering:geometricPrecision;text-rendering:geometricPrecision"
       transform="matrix(0.31598668,0,0,0.31598668,-229.84179,-127.53146)">
      <path
         style="opacity:1"
         fill="#def3f8"
         d="m 804.5,526.5 c 2.244,4.293 3.577,8.96 4,14 -0.241,2.398 0.426,4.398 2,6 3.977,12.572 7.643,25.239 11,38 0.09,3.714 1.09,7.048 3,10 1.399,3.199 2.399,6.532 3,10 0.028,3.416 1.028,6.416 3,9 1.491,4.963 2.824,9.963 4,15 -0.09,2.652 0.576,4.985 2,7 0.667,1 1.333,2 2,3 0.084,2.827 0.75,5.494 2,8 -1.943,-1.438 -3.776,-3.104 -5.5,-5 -1.662,-6.66 -3.328,-13.327 -5,-20 -0.885,-3.226 -2.219,-6.226 -4,-9 -3.738,-21.376 -9.738,-42.043 -18,-62 -1.411,-7.935 -2.577,-15.935 -3.5,-24 z"
         id="path709" />
    </g>
    <g
       id="g711"
       style="clip-rule:evenodd;fill-rule:evenodd;image-rendering:optimizeQuality;shape-rendering:geometricPrecision;text-rendering:geometricPrecision"
       transform="matrix(0.31598668,0,0,0.31598668,-229.84179,-127.53146)">
      <path
         style="opacity:1"
         fill="#d6eff6"
         d="m 776.5,627.5 c 3.1,3.856 6.433,7.523 10,11 1.1,1.105 1.767,2.438 2,4 -4.708,-2.387 -8.541,-5.721 -11.5,-10 -0.494,-1.634 -0.66,-3.301 -0.5,-5 z"
         id="path711" />
    </g>
    <g
       id="g712"
       style="clip-rule:evenodd;fill-rule:evenodd;image-rendering:optimizeQuality;shape-rendering:geometricPrecision;text-rendering:geometricPrecision"
       transform="matrix(0.31598668,0,0,0.31598668,-229.84179,-127.53146)">
      <path
         style="opacity:1"
         fill="#e4f4f8"
         d="m 850.5,634.5 c 3.499,3.397 3.999,7.397 1.5,12 -2.616,2.19 -5.616,3.524 -9,4 -1.706,-0.808 -2.539,-2.141 -2.5,-4 3.731,1.821 6.897,1.154 9.5,-2 0.498,-3.317 0.665,-6.65 0.5,-10 z"
         id="path712" />
    </g>
    <g
       id="g713"
       style="clip-rule:evenodd;fill-rule:evenodd;image-rendering:optimizeQuality;shape-rendering:geometricPrecision;text-rendering:geometricPrecision"
       transform="matrix(0.31598668,0,0,0.31598668,-229.84179,-127.53146)">
      <path
         style="opacity:1"
         fill="#e0f5f9"
         d="m 965.5,629.5 c -1.927,3.267 -4.261,6.267 -7,9 -3.727,3.733 -7.727,7.066 -12,10 0.086,-0.996 -0.248,-1.829 -1,-2.5 1.293,-0.49 2.627,-0.657 4,-0.5 2.299,-4.82 5.632,-8.987 10,-12.5 0.948,-0.483 1.948,-0.649 3,-0.5 0,-1 0,-2 0,-3 1,0 2,0 3,0 z"
         id="path713" />
    </g>
    <g
       id="g714"
       style="clip-rule:evenodd;fill-rule:evenodd;image-rendering:optimizeQuality;shape-rendering:geometricPrecision;text-rendering:geometricPrecision"
       transform="matrix(0.31598668,0,0,0.31598668,-229.84179,-127.53146)">
      <path
         style="opacity:1"
         fill="#4381b4"
         d="m 846.5,624.5 c 1.902,3.132 3.235,6.466 4,10 0.165,3.35 -0.002,6.683 -0.5,10 -2.603,3.154 -5.769,3.821 -9.5,2 -1.25,-2.506 -1.916,-5.173 -2,-8 1.524,1.908 2.857,4.075 4,6.5 1.735,0.651 3.402,0.485 5,-0.5 0.333,-2.167 0.667,-4.333 1,-6.5 -0.146,-4.595 -0.813,-9.095 -2,-13.5 z"
         id="path714" />
    </g>
    <g
       id="g718"
       style="clip-rule:evenodd;fill-rule:evenodd;image-rendering:optimizeQuality;shape-rendering:geometricPrecision;text-rendering:geometricPrecision"
       transform="matrix(0.31598668,0,0,0.31598668,-229.84179,-127.53146)">
      <path
         style="opacity:1"
         fill="#c0e2f0"
         d="m 977.5,631.5 c -1.097,4.77 -3.763,8.436 -8,11 -3.395,3.402 -7.062,6.402 -11,9 6.037,-6.035 11.704,-12.369 17,-19 0.667,-0.333 1.333,-0.667 2,-1 z"
         id="path718" />
    </g>
    <g
       id="g720"
       style="clip-rule:evenodd;fill-rule:evenodd;image-rendering:optimizeQuality;shape-rendering:geometricPrecision;text-rendering:geometricPrecision"
       transform="matrix(0.31598668,0,0,0.31598668,-229.84179,-127.53146)">
      <path
         style="opacity:1"
         fill="#4782b5"
         d="m 958.5,638.5 c -3.08,5.416 -7.414,9.416 -13,12 0.333,-0.667 0.667,-1.333 1,-2 4.273,-2.934 8.273,-6.267 12,-10 z"
         id="path720" />
    </g>
    <g
       id="g721"
       style="clip-rule:evenodd;fill-rule:evenodd;image-rendering:optimizeQuality;shape-rendering:geometricPrecision;text-rendering:geometricPrecision"
       transform="matrix(0.31598668,0,0,0.31598668,-229.84179,-127.53146)">
      <path
         style="opacity:1"
         fill="#ddf5f9"
         d="m 788.5,642.5 c 6.041,5.343 12.041,10.676 18,16 -8.792,-2.122 -14.792,-7.456 -18,-16 z"
         id="path721" />
    </g>
    <g
       id="g722"
       style="clip-rule:evenodd;fill-rule:evenodd;image-rendering:optimizeQuality;shape-rendering:geometricPrecision;text-rendering:geometricPrecision"
       transform="matrix(0.31598668,0,0,0.31598668,-229.84179,-127.53146)">
      <path
         style="opacity:1"
         fill="#d3eff6"
         d="m 803.5,643.5 c 3.458,0.646 6.625,1.979 9.5,4 7.125,6.104 14.625,11.437 22.5,16 -1.617,-0.538 -3.284,-0.871 -5,-1 -8.429,-5.056 -16.762,-10.389 -25,-16 -0.667,-1 -1.333,-2 -2,-3 z"
         id="path722" />
    </g>
    <g
       id="g723"
       style="clip-rule:evenodd;fill-rule:evenodd;image-rendering:optimizeQuality;shape-rendering:geometricPrecision;text-rendering:geometricPrecision"
       transform="matrix(0.31598668,0,0,0.31598668,-229.84179,-127.53146)">
      <path
         style="opacity:1"
         fill="#3c7db5"
         d="m 975.5,632.5 c -5.296,6.631 -10.963,12.965 -17,19 -3.49,2.911 -7.156,5.578 -11,8 3.595,-3.934 7.261,-7.934 11,-12 0.825,-0.886 1.825,-1.219 3,-1 0.055,-2.709 0.722,-4.709 2,-6 1.43,0.079 2.764,-0.254 4,-1 2.047,-3.154 4.714,-5.488 8,-7 z"
         id="path723" />
    </g>
    <g
       id="g724"
       style="clip-rule:evenodd;fill-rule:evenodd;image-rendering:optimizeQuality;shape-rendering:geometricPrecision;text-rendering:geometricPrecision"
       transform="matrix(0.31598668,0,0,0.31598668,-229.84179,-127.53146)">
      <path
         style="opacity:1"
         fill="#dbf2f8"
         d="m 946.5,648.5 c -0.333,0.667 -0.667,1.333 -1,2 -3.534,2.266 -7.2,4.266 -11,6 0,-1 0,-2 0,-3 3.553,-1.537 6.887,-3.537 10,-6 0.683,0.363 1.35,0.696 2,1 z"
         id="path724" />
    </g>
    <g
       id="g725"
       style="clip-rule:evenodd;fill-rule:evenodd;image-rendering:optimizeQuality;shape-rendering:geometricPrecision;text-rendering:geometricPrecision"
       transform="matrix(0.31598668,0,0,0.31598668,-229.84179,-127.53146)">
      <path
         style="opacity:1"
         fill="#367fbb"
         d="m 793.5,634.5 c 3.333,3 6.667,6 10,9 0.667,1 1.333,2 2,3 -3.156,-1.917 -6.49,-3.583 -10,-5 -2.211,0.495 -2.545,1.662 -1,3.5 3.307,5.15 7.974,7.984 14,8.5 -0.219,1.175 0.114,2.175 1,3 5.018,2.722 9.685,5.889 14,9.5 0.752,0.671 1.086,1.504 1,2.5 -6.29,-2.812 -12.29,-6.145 -18,-10 -5.959,-5.324 -11.959,-10.657 -18,-16 -0.233,-1.562 -0.9,-2.895 -2,-4 2.321,0.158 4.154,1.158 5.5,3 2.822,-1.779 3.322,-4.113 1.5,-7 z"
         id="path725" />
    </g>
    <g
       id="g726"
       style="clip-rule:evenodd;fill-rule:evenodd;image-rendering:optimizeQuality;shape-rendering:geometricPrecision;text-rendering:geometricPrecision"
       transform="matrix(0.31598668,0,0,0.31598668,-229.84179,-127.53146)">
      <path
         style="opacity:1"
         fill="#337ab4"
         d="m 805.5,646.5 c 8.238,5.611 16.571,10.944 25,16 -8.817,-2.075 -16.484,-6.241 -23,-12.5 -1.323,-0.816 -1.989,-1.983 -2,-3.5 z"
         id="path726" />
    </g>
    <g
       id="g727"
       style="clip-rule:evenodd;fill-rule:evenodd;image-rendering:optimizeQuality;shape-rendering:geometricPrecision;text-rendering:geometricPrecision"
       transform="matrix(0.31598668,0,0,0.31598668,-229.84179,-127.53146)">
      <path
         style="opacity:1"
         fill="#e1f4f8"
         d="m 969.5,642.5 c -2.239,3.584 -4.906,6.917 -8,10 -4.478,3.31 -8.811,6.81 -13,10.5 -5.241,3.248 -10.908,5.414 -17,6.5 5.599,-2.938 10.933,-6.271 16,-10 3.844,-2.422 7.51,-5.089 11,-8 3.938,-2.598 7.605,-5.598 11,-9 z"
         id="path727" />
    </g>
    <g
       id="g728"
       style="clip-rule:evenodd;fill-rule:evenodd;image-rendering:optimizeQuality;shape-rendering:geometricPrecision;text-rendering:geometricPrecision"
       transform="matrix(0.31598668,0,0,0.31598668,-229.84179,-127.53146)">
      <path
         style="opacity:1"
         fill="#267fcc"
         d="m 805.5,646.5 c 0.011,1.517 0.677,2.684 2,3.5 6.516,6.259 14.183,10.425 23,12.5 -0.172,0.992 0.162,1.658 1,2 0.453,0.958 1.119,1.792 2,2.5 2.808,0.598 5.308,1.765 7.5,3.5 2.308,-0.293 4.474,0.541 6.5,2.5 -4.789,0.61 -9.122,-0.556 -13,-3.5 -0.683,0.363 -1.35,0.696 -2,1 -1.935,-0.65 -3.935,-0.983 -6,-1 -0.992,0.172 -1.658,-0.162 -2,-1 0.086,-0.996 -0.248,-1.829 -1,-2.5 -4.315,-3.611 -8.982,-6.778 -14,-9.5 -0.886,-0.825 -1.219,-1.825 -1,-3 -6.026,-0.516 -10.693,-3.35 -14,-8.5 -1.545,-1.838 -1.211,-3.005 1,-3.5 3.51,1.417 6.844,3.083 10,5 z"
         id="path728" />
    </g>
    <g
       id="g732"
       style="clip-rule:evenodd;fill-rule:evenodd;image-rendering:optimizeQuality;shape-rendering:geometricPrecision;text-rendering:geometricPrecision"
       transform="matrix(0.31598668,0,0,0.31598668,-229.84179,-127.53146)">
      <path
         style="opacity:1"
         fill="#ddf4f8"
         d="m 806.5,658.5 c 5.71,3.855 11.71,7.188 18,10 0.342,0.838 1.008,1.172 2,1 0,0.333 0,0.667 0,1 -4.086,-0.93 -8.086,-2.097 -12,-3.5 -3.919,-1.749 -6.585,-4.583 -8,-8.5 z"
         id="path732" />
    </g>
    <g
       id="g733"
       style="clip-rule:evenodd;fill-rule:evenodd;image-rendering:optimizeQuality;shape-rendering:geometricPrecision;text-rendering:geometricPrecision"
       transform="matrix(0.31598668,0,0,0.31598668,-229.84179,-127.53146)">
      <path
         style="opacity:1"
         fill="#4a87b7"
         d="m 830.5,662.5 c 1.716,0.129 3.383,0.462 5,1 2.667,1.333 5.333,2.667 8,4 -4.219,-0.388 -8.219,-1.388 -12,-3 -0.838,-0.342 -1.172,-1.008 -1,-2 z"
         id="path733" />
    </g>
    <g
       id="g737"
       style="clip-rule:evenodd;fill-rule:evenodd;image-rendering:optimizeQuality;shape-rendering:geometricPrecision;text-rendering:geometricPrecision"
       transform="matrix(0.31598668,0,0,0.31598668,-229.84179,-127.53146)">
      <path
         style="opacity:1"
         fill="#3d7fb9"
         d="m 945.5,650.5 c -2.993,3.366 -6.326,6.532 -10,9.5 -6.747,1.399 -12.581,4.565 -17.5,9.5 -0.561,-0.522 -1.228,-0.855 -2,-1 -7.648,2.496 -15.481,4.163 -23.5,5 -10.339,0.166 -20.672,0 -31,-0.5 -5.094,-0.524 -10.094,-1.524 -15,-3 -1.619,-0.236 -2.619,-1.069 -3,-2.5 3.263,0.982 6.597,1.649 10,2 3.403,1.425 7.07,2.258 11,2.5 9.176,0.824 18.176,0.657 27,-0.5 13.292,-1.399 25.626,-5.399 37,-12 2.467,-0.255 4.467,-1.255 6,-3 3.8,-1.734 7.466,-3.734 11,-6 z"
         id="path737" />
    </g>
    <g
       id="g739"
       style="clip-rule:evenodd;fill-rule:evenodd;image-rendering:optimizeQuality;shape-rendering:geometricPrecision;text-rendering:geometricPrecision"
       transform="matrix(0.31598668,0,0,0.31598668,-229.84179,-127.53146)">
      <path
         style="opacity:1"
         fill="#5991bc"
         d="m 826.5,670.5 c 0,-0.333 0,-0.667 0,-1 2.065,0.017 4.065,0.35 6,1 2.333,1.333 4.667,2.667 7,4 -4.634,-0.572 -8.968,-1.905 -13,-4 z"
         id="path739" />
    </g>
    <g
       id="g741"
       style="clip-rule:evenodd;fill-rule:evenodd;image-rendering:optimizeQuality;shape-rendering:geometricPrecision;text-rendering:geometricPrecision"
       transform="matrix(0.31598668,0,0,0.31598668,-229.84179,-127.53146)">
      <path
         style="opacity:1"
         fill="#e2f5f9"
         d="m 928.5,659.5 c -11.374,6.601 -23.708,10.601 -37,12 -12.729,0.275 -25.396,-0.391 -38,-2 -3.403,-0.351 -6.737,-1.018 -10,-2 -2.667,-1.333 -5.333,-2.667 -8,-4 8.089,0.584 15.923,2.251 23.5,5 0.333,-0.333 0.667,-0.667 1,-1 5.17,1.534 10.503,2.2 16,2 6.274,0.127 12.441,-0.54 18.5,-2 0.667,0.333 1.333,0.667 2,1 11.116,-1.822 21.783,-4.822 32,-9 z"
         id="path741" />
    </g>
    <g
       id="g745"
       style="clip-rule:evenodd;fill-rule:evenodd;image-rendering:optimizeQuality;shape-rendering:geometricPrecision;text-rendering:geometricPrecision"
       transform="matrix(0.31598668,0,0,0.31598668,-229.84179,-127.53146)">
      <path
         style="opacity:1"
         fill="#aed6f0"
         d="m 853.5,669.5 c 12.604,1.609 25.271,2.275 38,2 -8.824,1.157 -17.824,1.324 -27,0.5 -3.93,-0.242 -7.597,-1.075 -11,-2.5 z"
         id="path745" />
    </g>
    <g
       id="g747"
       style="clip-rule:evenodd;fill-rule:evenodd;image-rendering:optimizeQuality;shape-rendering:geometricPrecision;text-rendering:geometricPrecision"
       transform="matrix(0.31598668,0,0,0.31598668,-229.84179,-127.53146)">
      <path
         style="opacity:1"
         fill="#327ec1"
         d="m 831.5,664.5 c 3.781,1.612 7.781,2.612 12,3 0.381,1.431 1.381,2.264 3,2.5 4.906,1.476 9.906,2.476 15,3 10.328,0.5 20.661,0.666 31,0.5 -4.381,0.457 -8.715,1.457 -13,3 -7.5,-0.781 -15.334,-1.447 -23.5,-2 -0.5,0.5 -1,1 -1.5,1.5 4.113,1.938 8.446,3.104 13,3.5 2.543,-0.14 4.877,-0.806 7,-2 1.896,-0.164 3.896,0.169 6,1 1.555,-0.222 2.889,-0.889 4,-2 3.275,0.26 6.441,0.593 9.5,1 5.643,-0.283 10.976,-1.617 16,-4 0.671,0.752 1.504,1.086 2.5,1 -5.261,1.878 -10.595,3.544 -16,5 -19.512,3.97 -38.512,2.303 -57,-5 -2.333,-1.333 -4.667,-2.667 -7,-4 0.65,-0.304 1.317,-0.637 2,-1 3.878,2.944 8.211,4.11 13,3.5 -2.026,-1.959 -4.192,-2.793 -6.5,-2.5 -2.192,-1.735 -4.692,-2.902 -7.5,-3.5 -0.881,-0.708 -1.547,-1.542 -2,-2.5 z"
         id="path747" />
    </g>
    <g
       id="g748"
       style="clip-rule:evenodd;fill-rule:evenodd;image-rendering:optimizeQuality;shape-rendering:geometricPrecision;text-rendering:geometricPrecision"
       transform="matrix(0.31598668,0,0,0.31598668,-229.84179,-127.53146)">
      <path
         style="opacity:1"
         fill="#417eb4"
         d="m 929.5,669.5 c -2.909,1.856 -5.909,3.523 -9,5 -4.676,0.561 -9.009,1.894 -13,4 -3.635,0.614 -7.302,0.948 -11,1 5.405,-1.456 10.739,-3.122 16,-5 5.78,-1.525 11.447,-3.192 17,-5 z"
         id="path748" />
    </g>
    <g
       id="g749"
       style="clip-rule:evenodd;fill-rule:evenodd;image-rendering:optimizeQuality;shape-rendering:geometricPrecision;text-rendering:geometricPrecision"
       transform="matrix(0.31598668,0,0,0.31598668,-229.84179,-127.53146)">
      <path
         style="opacity:1"
         fill="#ceedf6"
         d="m 929.5,669.5 c 0.667,0 1.333,0 2,0 -2.58,3.594 -6.246,5.26 -11,5 3.091,-1.477 6.091,-3.144 9,-5 z"
         id="path749" />
    </g>
    <g
       id="g753"
       style="clip-rule:evenodd;fill-rule:evenodd;image-rendering:optimizeQuality;shape-rendering:geometricPrecision;text-rendering:geometricPrecision"
       transform="matrix(0.31598668,0,0,0.31598668,-229.84179,-127.53146)">
      <path
         style="opacity:1"
         fill="#c8e6f3"
         d="m 920.5,674.5 c -3.689,3.012 -8.022,4.345 -13,4 3.991,-2.106 8.324,-3.439 13,-4 z"
         id="path753" />
    </g>
    <g
       id="g755"
       style="clip-rule:evenodd;fill-rule:evenodd;image-rendering:optimizeQuality;shape-rendering:geometricPrecision;text-rendering:geometricPrecision"
       transform="matrix(0.31598668,0,0,0.31598668,-229.84179,-127.53146)">
      <path
         style="opacity:1"
         fill="#cdebf6"
         d="m 826.5,670.5 c 4.032,2.095 8.366,3.428 13,4 18.488,7.303 37.488,8.97 57,5 3.698,-0.052 7.365,-0.386 11,-1 -2.949,1.961 -6.282,3.127 -10,3.5 -13.333,0.667 -26.667,0.667 -40,0 -10.38,-1.976 -20.38,-5.142 -30,-9.5 -0.798,-0.457 -1.131,-1.124 -1,-2 z"
         id="path755" />
    </g>
  </g>
</svg>
